<svg id="Layer_1" data-name="Layer 1" xmlns="http://www.w3.org/2000/svg" viewBox="0 0 50.46 50.46"><defs><style>.cls-1{fill:#65b4e1;}</style></defs><title>alarma negativo</title><path class="cls-1" d="M39.14,31.23c-2.13-1.56-2.84-6.67-3.35-10.4l0-.35a11,11,0,0,0-7.83-9.28,3.62,3.62,0,1,0-5.36,0,11,11,0,0,0-7.83,9.27l0,.35c-.51,3.73-1.22,8.84-3.35,10.4a6.26,6.26,0,0,0-2.45,6.93l.41,1.19H41.18l.41-1.19A6.26,6.26,0,0,0,39.14,31.23ZM25.23,6.95A1.86,1.86,0,1,1,23.37,8.8,1.86,1.86,0,0,1,25.23,6.95Z"/><path class="cls-1" d="M19.8,41.27h0a5.73,5.73,0,0,0,10.92,0H19.8Z"/></svg>