<svg id="Layer_1" data-name="Layer 1" xmlns="http://www.w3.org/2000/svg" viewBox="0 0 50.46 50.46"><defs><style>.cls-1{fill:#12b5e1;}</style></defs><title>alimentos y establecimientos ok</title><rect class="cls-1" x="21.78" y="9.91" width="3.93" height="4.39"/><rect class="cls-1" x="28.09" y="9.91" width="3.93" height="4.39"/><rect class="cls-1" x="34.41" y="9.91" width="3.93" height="4.39"/><rect class="cls-1" x="21.78" y="16.62" width="3.93" height="4.39"/><rect class="cls-1" x="28.09" y="16.62" width="3.93" height="4.39"/><rect class="cls-1" x="34.41" y="16.62" width="3.93" height="4.39"/><rect class="cls-1" x="21.78" y="23.33" width="3.93" height="4.39"/><rect class="cls-1" x="28.09" y="23.33" width="3.93" height="4.39"/><rect class="cls-1" x="34.41" y="23.33" width="3.93" height="4.39"/><path class="cls-1" d="M29.75,39.3l0-.08h-8.9v.43c0,.31,0,.62,0,.92v.13h9.56l-.1-.19A12.48,12.48,0,0,1,29.75,39.3Z"/><path class="cls-1" d="M43.32,7.74,37.13,3a.74.74,0,0,0-.45-.15H23.44A.71.71,0,0,0,23,3L16.8,7.74a.75.75,0,0,0-.29.59v6.72s.85.88,1.27,1.24l.21.17V8.7l5.7-4.34H36.43l5.7,4.34V27.88h.12a4.16,4.16,0,0,1,1.19.3l.18.06V8.33A.73.73,0,0,0,43.32,7.74Z"/><path class="cls-1" d="M10.13,38.5A.58.58,0,0,0,9,38.5v.59a.58.58,0,0,0,1.16,0Z"/><path class="cls-1" d="M19.86,20.82h0l-.07-.11v0h0l-.06-.09-4.34-4.71V13.67a.69.69,0,0,0-.28-.57.71.71,0,0,0-.62-.14L7,14.77a.74.74,0,0,0-.56.72l0,2.17L2.84,20.52l0,0-.12.14a.26.26,0,0,0,0,.09.63.63,0,0,0-.07.26V44.47a.73.73,0,0,0,.45.67l6.26,2.57a.71.71,0,0,0,.28.06.58.58,0,0,0,.19,0l9.63-2.57a.72.72,0,0,0,.54-.7V21.09a.44.44,0,0,0,0-.1A.55.55,0,0,0,19.86,20.82Zm-10.31,22a.57.57,0,0,0-.58.57V46L4,44V22l5,2V37a.58.58,0,0,0,1.16,0V24.11l8.33-2.23v22l-8.33,2.22V43.44A.57.57,0,0,0,9.55,42.87Zm4.39-26.62v.05a.35.35,0,0,0,0,.13.69.69,0,0,0,.09.16.23.23,0,0,0,0,.07L18,20.82,9.88,23,8,18.46l3.41-.89a.58.58,0,0,0,.42-.71.58.58,0,0,0-.71-.41l-3.22.84V16.05l6.06-1.46v1.58A.19.19,0,0,0,13.94,16.25ZM4.58,21,7,19.08l1.49,3.51Z"/><path class="cls-1" d="M12.69,16.05a.59.59,0,0,0-.58.6.58.58,0,0,0,.58.58.57.57,0,0,0,.57-.58v0A.54.54,0,0,0,12.69,16.05Z"/><path class="cls-1" d="M40.19,28.63a8.89,8.89,0,1,0,8.88,8.89A8.9,8.9,0,0,0,40.19,28.63Zm0,16.07a7.18,7.18,0,1,1,7.17-7.18A7.19,7.19,0,0,1,40.19,44.7Z"/><polygon class="cls-1" points="44.22 33.31 39.12 37.81 36.23 34.9 34.62 36.32 39.19 42.01 39.19 42.01 45.76 34.65 44.22 33.31"/></svg>