<svg id="Layer_1" data-name="Layer 1" xmlns="http://www.w3.org/2000/svg" viewBox="0 0 50.46 50.46"><defs><style>.cls-1{fill:#65b4e1;}</style></defs><title>arbitraje</title><circle class="cls-1" cx="40.51" cy="13.29" r="2.96" transform="translate(15.44 47.78) rotate(-72.16)"/><path class="cls-1" d="M46.91,37.62,43.53,33l-1-5.63-.27-5.92,1.65,1.67.34,2.66a1.24,1.24,0,0,0,2.42-.52l-.42-3a1.24,1.24,0,0,0-.34-.62l-2.3-2.36-1.82-1.9h0a1.23,1.23,0,0,0-.62-.36,1.33,1.33,0,0,0-1.22.41l-3.38,4-2.86,1a1.24,1.24,0,0,0,.72,2.37l3.22-1.12a1.24,1.24,0,0,0,.59-.39l1.55-1.87L40,27.23l-3.25,4.46A2.68,2.68,0,0,0,36.16,33l-.48,5.95a1.24,1.24,0,0,0,1,1.2l.26,0a1.24,1.24,0,0,0,1.23-1.24l.48-5.4,1.94-2.71a18.19,18.19,0,0,0,.76,3.44l3.76,5.07a1.24,1.24,0,0,0,1.82-1.68Z"/><circle class="cls-1" cx="9.95" cy="13.29" r="2.96" transform="translate(-3.59 3.69) rotate(-17.84)"/><path class="cls-1" d="M16.73,22.43l-2.86-1-3.38-4a1.33,1.33,0,0,0-1.22-.41,1.23,1.23,0,0,0-.62.36h0l-1.82,1.9-2.3,2.36a1.24,1.24,0,0,0-.34.62l-.42,3a1.24,1.24,0,0,0,2.42.52l.34-2.66,1.65-1.67-.27,5.92L6.93,33,3.55,37.62A1.24,1.24,0,1,0,5.37,39.3l3.76-5.07a18.21,18.21,0,0,0,.76-3.44l1.94,2.71.48,5.4a1.24,1.24,0,0,0,1.23,1.24l.26,0a1.24,1.24,0,0,0,1-1.2L14.3,33a2.68,2.68,0,0,0-.56-1.29l-3.25-4.46.15-5.81,1.55,1.87a1.24,1.24,0,0,0,.59.39L16,24.8a1.24,1.24,0,0,0,.72-2.37Z"/><path class="cls-1" d="M35.46,18.3a1.24,1.24,0,0,0-1.55-.81l-2.48,1-4.19-1.26a7.27,7.27,0,0,0-2-.26,7.19,7.19,0,0,0-2,.26L19,18.51l-2.48-1a1.24,1.24,0,0,0-.74,2.36L18.64,21a1.24,1.24,0,0,0,.71,0l3-.77V38.9a1.24,1.24,0,0,0,1,1.2l.26,0a1.24,1.24,0,0,0,1.23-1.24l.05-9.27a.39.39,0,1,1,.79,0l.05,9.27a1.24,1.24,0,0,0,1.23,1.24l.26,0a1.24,1.24,0,0,0,1-1.2V20.23l3,.77a1.24,1.24,0,0,0,.71,0l2.83-1.13A1.24,1.24,0,0,0,35.46,18.3Z"/><circle class="cls-1" cx="25.2" cy="13.27" r="2.96" transform="translate(4.85 33.19) rotate(-72.16)"/></svg>