<svg id="Layer_1" data-name="Layer 1" xmlns="http://www.w3.org/2000/svg" viewBox="0 0 50.46 50.46"><defs><style>.cls-1{fill:#12b5e1;}</style></defs><title>asistencia-humanitaria</title><path class="cls-1" d="M27.72,24.37H26V22.66a.65.65,0,1,0-1.3,0v1.71H23a.65.65,0,0,0,0,1.3h1.71v1.71a.65.65,0,1,0,1.3,0V25.67h1.71a.65.65,0,0,0,0-1.3Z"/><path class="cls-1" d="M30.17,25a4.81,4.81,0,1,0-4.81,4.81A4.81,4.81,0,0,0,30.17,25Zm-4.81,3.52A3.52,3.52,0,1,1,28.88,25,3.53,3.53,0,0,1,25.36,28.54Z"/><path class="cls-1" d="M47.13,41.09a6,6,0,0,0-1.45-.43h-.34l2-6a.63.63,0,0,0-.08-.58.66.66,0,0,0-.53-.27H34.05V18.15a.65.65,0,0,0-.65-.65H29.67v-3a.65.65,0,0,0-.65-.65H25.86V11h1.89a.65.65,0,0,0,0-1.3H25.86V9.05H27a.65.65,0,1,0,0-1.29H25.86V6.15a.65.65,0,0,0-1.3,0V7.76H23.48a.65.65,0,1,0,0,1.29h1.08v.64H22.67a.65.65,0,0,0,0,1.3h1.89v2.9H21.4a.65.65,0,0,0-.64.65v3H17a.65.65,0,0,0-.65.65V30.93H3.68a.64.64,0,0,0-.58.93L8,42a3.56,3.56,0,0,1-.62-.36l-.26-.2a3.08,3.08,0,0,0-2.26-.75,3.36,3.36,0,0,0-1.53.46.6.6,0,0,0-.26.81.61.61,0,0,0,.54.33.71.71,0,0,0,.28-.06,2.17,2.17,0,0,1,1-.33,1.92,1.92,0,0,1,1.5.49l.34.25a3,3,0,0,0,3.8,0,3.56,3.56,0,0,1,2.29-.76,3.93,3.93,0,0,1,2.36.77,3.4,3.4,0,0,0,1.84.66h0a3,3,0,0,0,1.9-.67,3.83,3.83,0,0,1,4.58,0,3.08,3.08,0,0,0,1.74.66h.37a3.25,3.25,0,0,0,1.64-.66,3.83,3.83,0,0,1,4.58,0,3,3,0,0,0,3.79,0,3.85,3.85,0,0,1,4.59,0,3,3,0,0,0,1.9.67,2.65,2.65,0,0,0,1.68-.61l.29-.2a2.52,2.52,0,0,1,1.43-.6h.1a5.65,5.65,0,0,1,1,.3.48.48,0,0,0,.26.07.61.61,0,0,0,.27-1.15ZM22.05,15.18h6.32V17.5H22.05ZM17.67,18.8H32.75v15H31.39L25.67,31a.72.72,0,0,0-.29-.06H17.67ZM43.28,41.54l-.19.13a1.5,1.5,0,0,1-1,.4,1.86,1.86,0,0,1-1.22-.46,5,5,0,0,0-5.94,0,1.85,1.85,0,0,1-2.44,0,5,5,0,0,0-5.94,0,1.91,1.91,0,0,1-1.2.46,1.86,1.86,0,0,1-1.19-.46,5,5,0,0,0-5.94,0,1.86,1.86,0,0,1-1.22.46h0a2.26,2.26,0,0,1-1.19-.48,5.15,5.15,0,0,0-3-1,4.73,4.73,0,0,0-3,1,3.78,3.78,0,0,1-.43.26L4.71,32.22H25.23l3.23,1.6H12.73a.65.65,0,1,0,0,1.29H45.87L45,37.54H24.11a.65.65,0,1,0,0,1.29h20.5l-.8,2.34s0,0,0,0l-.42.28Z"/><path class="cls-1" d="M10.63,33.87a.67.67,0,0,0-.5,0,.56.56,0,0,0-.2.14.61.61,0,0,0-.2.46.64.64,0,0,0,0,.24.56.56,0,0,0,.16.21.58.58,0,0,0,.45.19.6.6,0,0,0,.45-.19.43.43,0,0,0,.14-.21.5.5,0,0,0,.06-.24.65.65,0,0,0-.2-.46A.56.56,0,0,0,10.63,33.87Z"/><path class="cls-1" d="M22.21,37.72a.65.65,0,0,0-.71-.14.56.56,0,0,0-.2.14.62.62,0,0,0-.15.21.53.53,0,0,0,0,.25.59.59,0,0,0,.2.45.46.46,0,0,0,.2.14.57.57,0,0,0,.25.06.54.54,0,0,0,.25-.06.49.49,0,0,0,.21-.14.62.62,0,0,0,.19-.45.7.7,0,0,0,0-.25A.77.77,0,0,0,22.21,37.72Z"/></svg>