<svg id="Layer_1" data-name="Layer 1" xmlns="http://www.w3.org/2000/svg" viewBox="0 0 50.46 50.46"><defs><style>.cls-1{fill:#65b4e1;}</style></defs><title>auto licencia ok</title><path class="cls-1" d="M48.46,31.36l-1.09-1.05-.47-.46-.49.44-.55.49V12.44a3.11,3.11,0,0,0-3.11-3.11H4.61a3.11,3.11,0,0,0-3.11,3.11v25.1a3.11,3.11,0,0,0,3.11,3.11H36.53a6.64,6.64,0,0,1-1.28-1.78H4.61a1.33,1.33,0,0,1-1.33-1.33V12.44a1.33,1.33,0,0,1,1.33-1.33H42.75a1.33,1.33,0,0,1,1.33,1.33V30a6.69,6.69,0,0,1,1.5,1l-.24.21-.52.46-.31.28a5.1,5.1,0,0,0-3.35-1.23,5.19,5.19,0,1,0,5.19,5.19,5.09,5.09,0,0,0-.12-1.07l.29-.33.63-.7,1.33-1.49.46-.51Zm-1.83,2-.63.7-4.87,5.42h0l-3.83-4.76,1.35-1.19L41.07,36l4.22-3.74.52-.46,1.07-.95L48,31.87Z"/><path class="cls-1" d="M25.17,18.28c-5.09.32-6.3,4.49-8.62,5.29-4.58,1.57-2.63,6-2.63,6h1a3.06,3.06,0,0,0,.73,1.15,3.13,3.13,0,0,0,4.43,0,3.06,3.06,0,0,0,.73-1.15h5.07a3.06,3.06,0,0,0,.73,1.15,3.13,3.13,0,0,0,5.3-1.68l1,0s0-2.43-.09-3.94v-.08C32.86,24,32.18,17.84,25.17,18.28ZM19,29.65a1.54,1.54,0,1,1,.47-1.1A1.5,1.5,0,0,1,19,29.65Zm6.18-5.76-6.11,0c1.89-2.18,3.44-3.94,6.11-4.13Zm4.78,5.76a1.54,1.54,0,1,1,.46-1.1A1.5,1.5,0,0,1,29.94,29.65Zm-3.86-5.77V19.81a4.89,4.89,0,0,1,4.9,4Z"/></svg>