<svg id="Layer_1" data-name="Layer 1" xmlns="http://www.w3.org/2000/svg" viewBox="0 0 50.46 50.46"><defs><style>.cls-1{fill:#65b4e1;}</style></defs><title>auto licencia</title><path class="cls-1" d="M44.3,9.6H6.16a3.11,3.11,0,0,0-3.11,3.11v25a3.11,3.11,0,0,0,3.11,3.11H44.3a3.11,3.11,0,0,0,3.11-3.11v-25A3.11,3.11,0,0,0,44.3,9.6Zm1.33,28.14a1.33,1.33,0,0,1-1.33,1.33H6.16a1.33,1.33,0,0,1-1.33-1.33v-25a1.33,1.33,0,0,1,1.33-1.33H44.3a1.33,1.33,0,0,1,1.33,1.33Z"/><path class="cls-1" d="M34.26,25.37c0-1-.63-6.82-7.21-6.42-4.78.3-5.9,4.21-8.08,5-4.29,1.48-2.46,5.67-2.46,5.67h.95a2.87,2.87,0,0,0,.68,1.08,2.93,2.93,0,0,0,4.15,0A2.87,2.87,0,0,0,23,29.58h4.76a2.87,2.87,0,0,0,.68,1.08,2.93,2.93,0,0,0,5-1.57l1,0s0-2.28-.08-3.69Zm-13,4.25a1.44,1.44,0,1,1,.44-1A1.41,1.41,0,0,1,21.24,29.62Zm5.8-5.4-5.73,0c1.77-2,3.23-3.7,5.73-3.87Zm4.48,5.4a1.44,1.44,0,1,1,.44-1A1.41,1.41,0,0,1,31.52,29.62ZM27.9,24.21V20.39a4.59,4.59,0,0,1,4.59,3.79Z"/></svg>