<svg id="Layer_1" data-name="Layer 1" xmlns="http://www.w3.org/2000/svg" viewBox="0 0 50.46 50.46"><defs><style>.cls-1{fill:#12b5e1;}</style></defs><title>bananas </title><path class="cls-1" d="M10.79,21.78a8,8,0,0,1-.52-1.87l.82-1.39c.33-.13,1.76-.41,4.92,2.31a13.76,13.76,0,0,0,8.17,3.55A12.2,12.2,0,0,0,29.36,22c.3-.24.59-.48.87-.74-.28.16-.56.33-.85.46-4.16,1.91-8.6,1.12-12.49-2.22-4.54-3.9-6.43-2.57-6.77-2.26a.86.86,0,0,0-.14.18l-1,1.77a.89.89,0,0,0-.12.39,6.7,6.7,0,0,0,.41,2.17A8,8,0,0,1,10.79,21.78Z"/><path class="cls-1" d="M9,28.72a7.42,7.42,0,0,1-.94-1.63l.56-1.69c.35-.24,1.9-1,6.2.93a16.06,16.06,0,0,0,12.55.56,13.63,13.63,0,0,0,3.18-2.72,15.46,15.46,0,0,0,2.15-3.26,15.69,15.69,0,0,1-2.45,2.37C26,26.53,20.78,27,15.49,24.72c-6.17-2.72-8-.76-8.27-.33a1,1,0,0,0-.12.23l-.72,2.16a.86.86,0,0,0,0,.45,6.53,6.53,0,0,0,1.08,2.22A6.3,6.3,0,0,1,9,28.72Z"/><path class="cls-1" d="M42.18,16.29a10.36,10.36,0,0,1-.51-1.36,29.76,29.76,0,0,1-.49-5.28,1,1,0,0,0-.33-.72.94.94,0,0,0-.77-.2L36,9.46a1,1,0,0,0-.64.44.93.93,0,0,0-.08.78c1.5,4.37,0,10.34-3.56,14.5-3.78,4.39-9.29,6.17-15.5,5C9,28.84,7.5,31.31,7.28,31.82a.83.83,0,0,0-.07.27l-.27,2.42A.85.85,0,0,0,7,35c.62,1.46,3.67,4.3,8.21,5.78a20.2,20.2,0,0,0,6.3,1,27.09,27.09,0,0,0,13.88-4.2C47.93,30.14,43.75,20.08,42.18,16.29ZM34.45,36c-8.21,4.86-14.67,4.34-18.65,3a14.13,14.13,0,0,1-7-4.56L9,32.53c.32-.33,1.81-1.45,6.86-.51,6.89,1.28,13-.71,17.25-5.62,3.74-4.33,5.39-10.45,4.21-15.29l2-.36a31.72,31.72,0,0,0,.51,4.55,11,11,0,0,0,.62,1.7C42.12,21,45.59,29.36,34.45,36Z"/><path class="cls-1" d="M31.5,30.08l-.21.23a.83.83,0,0,0,.06,1.17.85.85,0,0,0,.56.21.82.82,0,0,0,.61-.27l.23-.25A.83.83,0,0,0,32.67,30,.83.83,0,0,0,31.5,30.08Z"/><path class="cls-1" d="M29.33,31.87a13.5,13.5,0,0,1-8.42,2.45.82.82,0,0,0-.91.74.83.83,0,0,0,.73.91,8.17,8.17,0,0,0,.91.05,15.45,15.45,0,0,0,8.68-2.82A.84.84,0,0,0,30.49,32,.82.82,0,0,0,29.33,31.87Z"/></svg>