<svg id="Layer_1" data-name="Layer 1" xmlns="http://www.w3.org/2000/svg" viewBox="0 0 50.46 50.46"><defs><style>.cls-1{fill:#12b5e1;}</style></defs><title>caja 2</title><path class="cls-1" d="M7.28,43.11H33.13a.86.86,0,0,0,.63-.25h0L43.81,32.7a.89.89,0,0,0,.25-.62V6.23h0A.75.75,0,0,0,44,5.89a.81.81,0,0,0-.19-.29h0s0,0-.06,0a.86.86,0,0,0-.22-.15.92.92,0,0,0-.28,0H17.33a.88.88,0,0,0-.63.26l-10,10.15a.25.25,0,0,0,0,.07,1,1,0,0,0-.15.21,1.28,1.28,0,0,0,0,.27s0,0,0,.07V42.23A.87.87,0,0,0,7.28,43.11Zm35-11.39L34,40.1V16.74L42.3,8.36ZM34.44,7.1h6.63l-8.3,8.4H26.1Zm-16.75,0h7.1l-8.36,8.4h-7ZM8.16,17.26h7.4v7.31L20.19,22l5,2.65V17.26h7v24.1h-7v-8l-5,3.19-4.67-3.16v7.94H8.16Z"/></svg>