<svg id="Layer_1" data-name="Layer 1" xmlns="http://www.w3.org/2000/svg" viewBox="0 0 50.46 50.46"><defs><style>.cls-1{fill:#65b4e1;}</style></defs><title>cajero</title><path class="cls-1" d="M36.82,4.4H13.64a4.16,4.16,0,1,0,0,8.33h3.52v3.82c-2.13,2.76-5.27,7.14-5.75,9.67C10.68,30.11,15,37.9,14.8,39.5c-.27,1.84-1,5.83-1.12,6.36,0,0,6,.44,8,0,.31-.07-1-5.64.71-7.6.64-.75,1.47-1.4,2.21-2.3h6.19a2.48,2.48,0,0,0,2.47-2.47V12.73h3.52a4.16,4.16,0,1,0,0-8.33Zm0,6.72H33.3V8.35h-2V33.49a.46.46,0,0,1-.46.46h-5a7.88,7.88,0,0,0,.33-1.09l.22-1.73a5.54,5.54,0,0,0-.15-1.39c-1-3.81-.79-6.38,0-8.37A9.68,9.68,0,0,1,26.81,20l.1-.18a.57.57,0,0,0-.32-.87,3.34,3.34,0,0,0-1.18-.11,2.58,2.58,0,0,0-1.4.57,3.12,3.12,0,0,0-.52.51c-1.89,2.38-.59,6.92-1.76,7.51a1.73,1.73,0,0,1-2.32-1.72,7.36,7.36,0,0,1-.23-2.08V8.35h-2v2.77H13.64a2.56,2.56,0,1,1,0-5.12H36.82a2.56,2.56,0,1,1,0,5.12Z"/></svg>