<svg id="Layer_1" data-name="Layer 1" xmlns="http://www.w3.org/2000/svg" viewBox="0 0 50.46 50.46"><defs><style>.cls-1{fill:#65b4e1;}</style></defs><title>calefactor</title><path class="cls-1" d="M34.09,5.12H16.37a5.28,5.28,0,0,0-5.28,5.28V43.54a1.81,1.81,0,0,0,1.81,1.81H37.56a1.81,1.81,0,0,0,1.81-1.81V10.39A5.28,5.28,0,0,0,34.09,5.12ZM16.37,6.63H34.09a3.76,3.76,0,0,1,3.76,3.76v9H12.61v-9A3.76,3.76,0,0,1,16.37,6.63Zm21.2,37.19H12.9a.29.29,0,0,1-.29-.29V20.89H37.85V43.54A.29.29,0,0,1,37.56,43.83Z"/><path class="cls-1" d="M16.12,10.37h7.15a.76.76,0,1,0,0-1.52H16.12a.76.76,0,0,0,0,1.52Z"/><path class="cls-1" d="M16.12,12.77h7.15a.76.76,0,1,0,0-1.52H16.12a.76.76,0,0,0,0,1.52Z"/><path class="cls-1" d="M16.12,15.18h7.15a.76.76,0,0,0,0-1.52H16.12a.76.76,0,0,0,0,1.52Z"/><path class="cls-1" d="M16.12,17.58h7.15a.76.76,0,0,0,0-1.52H16.12a.76.76,0,0,0,0,1.52Z"/><path class="cls-1" d="M27,10.37h7.33a.76.76,0,1,0,0-1.52H27a.76.76,0,0,0,0,1.52Z"/><path class="cls-1" d="M27,12.77h7.33a.76.76,0,1,0,0-1.52H27a.76.76,0,0,0,0,1.52Z"/><path class="cls-1" d="M27,15.18h7.33a.76.76,0,0,0,0-1.52H27a.76.76,0,0,0,0,1.52Z"/><path class="cls-1" d="M27,17.58h7.33a.76.76,0,0,0,0-1.52H27a.76.76,0,0,0,0,1.52Z"/><path class="cls-1" d="M27.94,35.67H22.52a1.26,1.26,0,1,0,0,2.52h5.43a1.26,1.26,0,1,0,0-2.52Z"/></svg>