<svg id="Layer_1" data-name="Layer 1" xmlns="http://www.w3.org/2000/svg" viewBox="0 0 50.46 50.46"><defs><style>.cls-1{fill:#65b4e1;}</style></defs><title>calendario</title><path class="cls-1" d="M36.36,6.39H14.1a7.9,7.9,0,0,0-7.9,7.9V36.17a7.9,7.9,0,0,0,7.9,7.9H36.36a7.9,7.9,0,0,0,7.9-7.9V14.29A7.9,7.9,0,0,0,36.36,6.39Zm5.7,29.78a5.71,5.71,0,0,1-5.7,5.7H14.1a5.71,5.71,0,0,1-5.7-5.7V14.29a5.71,5.71,0,0,1,5.7-5.7H36.36a5.71,5.71,0,0,1,5.7,5.7Z"/><path class="cls-1" d="M16.57,12.38H14.22a1.75,1.75,0,0,0-1.75,1.75v2.36a1.75,1.75,0,0,0,1.75,1.75h2.36a1.75,1.75,0,0,0,1.75-1.75V14.13A1.75,1.75,0,0,0,16.57,12.38Zm.75,4.11a.75.75,0,0,1-.75.75H14.22a.75.75,0,0,1-.75-.75V14.13a.75.75,0,0,1,.75-.75h2.36a.75.75,0,0,1,.75.75Z"/><path class="cls-1" d="M16.57,22.3H14.22a1.75,1.75,0,0,0-1.75,1.75v2.36a1.75,1.75,0,0,0,1.75,1.75h2.36a1.75,1.75,0,0,0,1.75-1.75V24.05A1.75,1.75,0,0,0,16.57,22.3Zm.75,4.1a.75.75,0,0,1-.75.75H14.22a.75.75,0,0,1-.75-.75V24.05a.75.75,0,0,1,.75-.75h2.36a.75.75,0,0,1,.75.75Z"/><path class="cls-1" d="M16.57,32.23H14.22A1.75,1.75,0,0,0,12.47,34v2.36a1.75,1.75,0,0,0,1.75,1.75h2.36a1.75,1.75,0,0,0,1.75-1.75V34A1.75,1.75,0,0,0,16.57,32.23Zm.75,4.11a.75.75,0,0,1-.75.75H14.22a.75.75,0,0,1-.75-.75V34a.75.75,0,0,1,.75-.75h2.36a.75.75,0,0,1,.75.75Z"/><path class="cls-1" d="M36.24,12.38H33.89a1.75,1.75,0,0,0-1.75,1.75v2.36a1.75,1.75,0,0,0,1.75,1.75h2.36A1.75,1.75,0,0,0,38,16.48V14.13A1.75,1.75,0,0,0,36.24,12.38ZM37,16.48a.75.75,0,0,1-.75.75H33.89a.75.75,0,0,1-.75-.75V14.13a.75.75,0,0,1,.75-.75h2.36a.75.75,0,0,1,.75.75Z"/><path class="cls-1" d="M36.24,22.3H33.89a1.75,1.75,0,0,0-1.75,1.75v2.36a1.75,1.75,0,0,0,1.75,1.75h2.36A1.75,1.75,0,0,0,38,26.41V24.05A1.75,1.75,0,0,0,36.24,22.3Zm.75,4.1a.75.75,0,0,1-.75.75H33.89a.75.75,0,0,1-.75-.75V24.05a.75.75,0,0,1,.75-.75h2.36a.75.75,0,0,1,.75.75Z"/><path class="cls-1" d="M36.24,32.23H33.89A1.75,1.75,0,0,0,32.14,34v2.36a1.75,1.75,0,0,0,1.75,1.75h2.36A1.75,1.75,0,0,0,38,36.33V34A1.75,1.75,0,0,0,36.24,32.23ZM37,36.33a.75.75,0,0,1-.75.75H33.89a.75.75,0,0,1-.75-.75V34a.75.75,0,0,1,.75-.75h2.36A.75.75,0,0,1,37,34Z"/><path class="cls-1" d="M24.05,18.23h2.36a1.75,1.75,0,0,0,1.75-1.75V14.13a1.75,1.75,0,0,0-1.75-1.75H24.05a1.75,1.75,0,0,0-1.75,1.75v2.36A1.75,1.75,0,0,0,24.05,18.23Zm-.75-4.11a.75.75,0,0,1,.75-.75h2.36a.75.75,0,0,1,.75.75v2.36a.75.75,0,0,1-.75.75H24.05a.75.75,0,0,1-.75-.75Z"/><path class="cls-1" d="M26.41,32.23H24.05A1.75,1.75,0,0,0,22.3,34v2.36a1.75,1.75,0,0,0,1.75,1.75h2.36a1.75,1.75,0,0,0,1.75-1.75V34A1.75,1.75,0,0,0,26.41,32.23Zm.75,4.11a.75.75,0,0,1-.75.75H24.05a.75.75,0,0,1-.75-.75V34a.75.75,0,0,1,.75-.75h2.36a.75.75,0,0,1,.75.75Z"/><polygon class="cls-1" points="24.66 25.86 22.8 23.98 21.76 24.9 24.7 28.56 29.96 22.71 29.13 21.9 24.66 25.86"/></svg>