<svg id="Layer_1" data-name="Layer 1" xmlns="http://www.w3.org/2000/svg" viewBox="0 0 50.46 50.46"><defs><style>.cls-1{fill:#65b4e1;}</style></defs><title>calidad cert</title><polygon class="cls-1" points="37.02 29.93 36.05 27.96 35.08 29.93 32.91 30.24 34.48 31.77 34.11 33.94 36.05 32.92 37.99 33.94 37.62 31.77 39.2 30.24 37.02 29.93"/><path class="cls-1" d="M40,41.2l0,3.22a.08.08,0,0,1,0,.07.08.08,0,0,1-.09,0l-2.93-2a1.6,1.6,0,0,0-1.78,0l-3,2a.08.08,0,0,1-.09,0,.08.08,0,0,1,0-.07V41.15a2.29,2.29,0,0,0-1.3-1.77l-.18-.08,0,5.1A1.57,1.57,0,0,0,33,45.69l3-2a.09.09,0,0,1,.1,0l2.93,2a1.56,1.56,0,0,0,.89.28,1.58,1.58,0,0,0,.72-.18,1.56,1.56,0,0,0,.84-1.38l0-5.16-.18.09A2.37,2.37,0,0,0,40,41.2Z"/><path class="cls-1" d="M44.14,29.43a1.61,1.61,0,0,1-.65-2A1.63,1.63,0,0,0,41.7,25,1.61,1.61,0,0,1,40,23.72a1.8,1.8,0,0,0-1.12-1.45,1.77,1.77,0,0,0-1.7.47,1.79,1.79,0,0,1-1.47.38,1.47,1.47,0,0,1-.71-.33,1.63,1.63,0,0,0-2.89.94A1.61,1.61,0,0,1,30.4,25a1.63,1.63,0,0,0-1.79,2.46,1.61,1.61,0,0,1-.65,2,1.63,1.63,0,0,0,0,3,1.61,1.61,0,0,1,.65,2,1.8,1.8,0,0,0,0,1.81h0a1.81,1.81,0,0,0,1.73.64,1.6,1.6,0,0,1,1.71,1.23,1.8,1.8,0,0,0,1.12,1.45,1.77,1.77,0,0,0,1.7-.47,1.17,1.17,0,0,1,.51-.3l.11,0,.05,0h0a1.65,1.65,0,0,1,.88,0h0l.15.05a1.16,1.16,0,0,1,.48.29,1.77,1.77,0,0,0,1.7.47A1.8,1.8,0,0,0,40,38.16a1.61,1.61,0,0,1,1.71-1.24,1.81,1.81,0,0,0,1.73-.62l0,0a1.8,1.8,0,0,0,0-1.8,1.61,1.61,0,0,1,.65-2,1.63,1.63,0,0,0,0-3Zm-8.09,6.76a5.24,5.24,0,1,1,5.24-5.24A5.24,5.24,0,0,1,36.05,36.19Z"/><path class="cls-1" d="M11.5,11h9.59a.67.67,0,1,0,0-1.33H11.5a.67.67,0,0,0,0,1.33Z"/><path class="cls-1" d="M29.7,15H11.5a.67.67,0,0,0,0,1.33H29.7a.67.67,0,1,0,0-1.33Z"/><path class="cls-1" d="M29.7,20.43H11.5a.67.67,0,0,0,0,1.33H29.7a.67.67,0,0,0,0-1.33Z"/><path class="cls-1" d="M7,38.23V8.57A2.44,2.44,0,0,1,9.39,6.14H28.87l0,6.17a1,1,0,0,0,.94.94h0c.38,0,3,0,5.35,0v7.46l.07,0a1.09,1.09,0,0,0,1.18-.08,3.59,3.59,0,0,1,.38-.18l.08,0v-.09c0-8.57-.09-8.65-.16-8.72-6.53-7.05-6.66-7.09-6.7-7.1L9.39,4.47a4.11,4.11,0,0,0-4.1,4.1V38.23a4.11,4.11,0,0,0,4.1,4.1h18.8V40.67H9.39A2.44,2.44,0,0,1,7,38.23ZM34,11.36H30.81l0-3.45Z"/></svg>