<svg id="Layer_1" data-name="Layer 1" xmlns="http://www.w3.org/2000/svg" viewBox="0 0 50.46 50.46"><defs><style>.cls-1{fill:#65b4e1;}</style></defs><title>cambio</title><path class="cls-1" d="M25.65,26.66h0a1.09,1.09,0,0,0-1.08-.07,1,1,0,0,0-.57.88V30.8c-4.15,0-7.61-.56-11-6.15a1.08,1.08,0,0,0-.91-.5,1,1,0,0,0-.26,0,1,1,0,0,0-.78,1,16.08,16.08,0,0,0,2,8.49C15.16,37,18.83,38.95,24,39.39V42.8a1,1,0,0,0,.56.88,1.11,1.11,0,0,0,.48.11,1.05,1.05,0,0,0,.6-.19L36.93,36a1,1,0,0,0,0-1.62Zm.44,14.21v-2.4a1,1,0,0,0-1-1c-6.83-.32-10.65-3.2-11.65-8.78,3.7,4.09,7.71,4.09,11.59,4.09a1.08,1.08,0,0,0,.74-.29,1,1,0,0,0,.31-.7v-2.4l8.44,5.74Z"/><path class="cls-1" d="M37.38,16.83c-2.08-3.38-5.76-5.32-10.92-5.76V7.66a1,1,0,0,0-.56-.88,1.07,1.07,0,0,0-1.08.07L13.52,14.5a1,1,0,0,0,0,1.62L24.81,23.8a1.09,1.09,0,0,0,1.08.07,1,1,0,0,0,.57-.88V19.66c4.15,0,7.61.56,11,6.15a1.08,1.08,0,0,0,.91.5,1,1,0,0,0,1-1A16.08,16.08,0,0,0,37.38,16.83Zm-12,.84a1.08,1.08,0,0,0-.74.29,1,1,0,0,0-.31.7v2.4l-8.44-5.74L24.37,9.6V12a1,1,0,0,0,1,1C32.2,13.31,36,16.18,37,21.76,33.31,17.67,29.3,17.67,25.42,17.67Z"/></svg>