<svg id="Layer_1" data-name="Layer 1" xmlns="http://www.w3.org/2000/svg" viewBox="0 0 50.46 50.46"><defs><style>.cls-1{fill:#65b4e1;}</style></defs><title>camion construccion</title><path class="cls-1" d="M35,8.13a3.75,3.75,0,0,0-4.83,0s-6.88,5.67-7.1,6h19C41.92,13.8,35,8.13,35,8.13Z"/><path class="cls-1" d="M16.78,28.6a.5.5,0,0,0,.5-.5V24.27a.5.5,0,0,0-.5-.5H14.42a1,1,0,0,0-.68.28L10.82,27a1,1,0,0,0-.28.68v.45a.5.5,0,0,0,.5.5Z"/><path class="cls-1" d="M14.43,33.52a4.84,4.84,0,1,0,4.84,4.84A4.85,4.85,0,0,0,14.43,33.52Zm0,8.29a3.45,3.45,0,1,1,3.45-3.45A3.45,3.45,0,0,1,14.43,41.81Z"/><path class="cls-1" d="M34.92,33.52a4.84,4.84,0,1,0,4.84,4.84A4.85,4.85,0,0,0,34.92,33.52Zm0,8.29a3.45,3.45,0,1,1,3.45-3.45A3.45,3.45,0,0,1,34.92,41.81Z"/><path class="cls-1" d="M43.77,30.44h-21a.67.67,0,0,1-.67-.67V19.13H16.37a.67.67,0,0,1-.67-.67v-2.3a.67.67,0,0,1,.67-.67H43.62a.67.67,0,0,1,.67.66l.15,13.6a.67.67,0,0,1-.67.68ZM23.48,29.1H43.09L43,16.84H17v1h5.76a.67.67,0,0,1,.67.67Z"/><path class="cls-1" d="M25.31,27.83a.67.67,0,0,1-.61-.95l3.73-8.39a.67.67,0,1,1,1.23.55l-3.73,8.39A.67.67,0,0,1,25.31,27.83Z"/><path class="cls-1" d="M37.08,27.83a.67.67,0,0,1-.61-.95L40.2,18.5a.67.67,0,1,1,1.23.55L37.7,27.43A.67.67,0,0,1,37.08,27.83Z"/><path class="cls-1" d="M29.23,27.83a.67.67,0,0,1-.61-.95l3.73-8.39a.67.67,0,1,1,1.23.55l-3.73,8.39A.67.67,0,0,1,29.23,27.83Z"/><path class="cls-1" d="M33.16,27.83a.67.67,0,0,1-.61-.95l3.73-8.39A.67.67,0,1,1,37.5,19l-3.73,8.39A.67.67,0,0,1,33.16,27.83Z"/><path class="cls-1" d="M43.75,37.91H41.16a.67.67,0,1,1,0-1.34h1.92V33H20.2a.67.67,0,0,1-.67-.67V21.66H13.79L8.73,26.73v7.89a.67.67,0,0,1-.5.65c-.17,0-.86.32-.86.69,0,.54.76.62,1.21.62a.67.67,0,1,1,0,1.34C7,37.91,6,37.16,6,36a2.08,2.08,0,0,1,1.36-1.81v-7.7a.67.67,0,0,1,.2-.47L13,20.52a.67.67,0,0,1,.48-.2H20.2a.67.67,0,0,1,.67.67V31.62H43.75a.67.67,0,0,1,.67.67v5A.67.67,0,0,1,43.75,37.91Z"/><path class="cls-1" d="M28.68,37.91H21.16a.67.67,0,1,1,0-1.34h7.52a.67.67,0,1,1,0,1.34Z"/></svg>