<svg id="Layer_1" data-name="Layer 1" xmlns="http://www.w3.org/2000/svg" viewBox="0 0 50.46 50.46"><defs><style>.cls-1{fill:#65b4e1;}</style></defs><title>canilla</title><path class="cls-1" d="M38.69,15.15a1.13,1.13,0,0,0-1.13,1.13v.37H30.35V12.23h3.72a3.85,3.85,0,1,0-.45-4.73H25.39a3.86,3.86,0,1,0-.45,4.73h3.72v4.42h-7.5A11.43,11.43,0,0,0,9.75,28.06v5a.84.84,0,0,0,.84.84h6.36a.84.84,0,0,0,.84-.84v-5a3.38,3.38,0,0,1,3.38-3.38h16.4a1.13,1.13,0,1,0,2.25,0V16.28A1.13,1.13,0,0,0,38.69,15.15ZM36.86,7.4a2.18,2.18,0,1,1-2.18,2.18A2.18,2.18,0,0,1,36.86,7.4Zm-14.7,4.36a2.18,2.18,0,1,1,2.18-2.18A2.18,2.18,0,0,1,22.16,11.76Zm3.72-1.21a3.81,3.81,0,0,0,.14-1,3.77,3.77,0,0,0,0-.4H33a3.77,3.77,0,0,0,0,.4,3.81,3.81,0,0,0,.14,1ZM37.57,23H21.16a5.06,5.06,0,0,0-5.05,5.05v4.2H11.42v-4.2a9.75,9.75,0,0,1,9.74-9.74h16.4Z"/><path class="cls-1" d="M15.87,38.41a19.38,19.38,0,0,0-1.47-2.07.84.84,0,0,0-.65-.31h0a.84.84,0,0,0-.65.32,20.14,20.14,0,0,0-1.46,2.07,6.31,6.31,0,0,0-1.12,3.09,3.24,3.24,0,0,0,6.47,0,6.29,6.29,0,0,0-1.12-3.09Zm-2.12,4.65A1.56,1.56,0,0,1,12.2,41.5a4.73,4.73,0,0,1,.87-2.22c.2-.33.43-.68.68-1,.22.3.46.66.68,1a4.73,4.73,0,0,1,.87,2.22A1.56,1.56,0,0,1,13.76,43.06Z"/></svg>