<svg id="Layer_1" data-name="Layer 1" xmlns="http://www.w3.org/2000/svg" viewBox="0 0 50.46 50.46"><defs><style>.cls-1{fill:#12b5e1;}</style></defs><title>cardon</title><path class="cls-1" d="M37.34,43.72A8,8,0,0,0,32.25,42a8.24,8.24,0,0,0-4.18,1.09V37.82a12.74,12.74,0,0,0,6.73-4.11,12.42,12.42,0,0,0,3-8.06,2.84,2.84,0,0,0-5.68,0,6.9,6.9,0,0,1-4,6.24V22.33a12.69,12.69,0,0,0,6.73-4.12,12.38,12.38,0,0,0,3-8,2.84,2.84,0,0,0-5.68,0,6.92,6.92,0,0,1-4,6.24v-12a2.84,2.84,0,0,0-5.68,0V23.56a6.93,6.93,0,0,1-4-6.24,2.84,2.84,0,0,0-5.68,0,12.38,12.38,0,0,0,3,8.05,12.61,12.61,0,0,0,6.73,4.11V43.1A8.3,8.3,0,0,0,18.21,42a8,8,0,0,0-5.09,1.72,5.58,5.58,0,0,0-2.2,4.35.8.8,0,0,0,.8.8h27a.8.8,0,0,0,.8-.8A5.58,5.58,0,0,0,37.34,43.72ZM16.88,24.33a10.78,10.78,0,0,1-2.6-7,1.23,1.23,0,0,1,2.46,0A8.53,8.53,0,0,0,23,25.47a.8.8,0,0,0,1-.77V4.41a1.23,1.23,0,0,1,2.46,0V17.54a.81.81,0,0,0,.32.64.83.83,0,0,0,.7.14,8.54,8.54,0,0,0,6.24-8.16,1.23,1.23,0,0,1,2.46,0,10.78,10.78,0,0,1-2.6,7,11.05,11.05,0,0,1-6.46,3.71.8.8,0,0,0-.66.79V33a.79.79,0,0,0,.32.63.77.77,0,0,0,.7.14,8.54,8.54,0,0,0,6.24-8.16,1.23,1.23,0,0,1,2.46,0,10.78,10.78,0,0,1-2.6,7,11,11,0,0,1-6.46,3.71.81.81,0,0,0-.66.79v6.42a6.93,6.93,0,0,0-2.46,0V28.83a.8.8,0,0,0-.66-.79A11.11,11.11,0,0,1,16.88,24.33Zm2.94,22.94H12.61c.49-2.08,2.81-3.66,5.6-3.66a6.61,6.61,0,0,1,3.48.94,2.55,2.55,0,0,0-.28.21A4.39,4.39,0,0,0,19.82,47.27Zm1.67,0a3.27,3.27,0,0,1,1.83-1.8,1,1,0,0,0,.28-.11,4.77,4.77,0,0,1,1.63-.28,5,5,0,0,1,1.71.3l.06,0a3.33,3.33,0,0,1,2,1.86Zm9.15,0a4.39,4.39,0,0,0-1.59-2.51,2.55,2.55,0,0,0-.28-.21,6.66,6.66,0,0,1,3.48-.94c2.79,0,5.11,1.58,5.6,3.66Z"/></svg>