<svg id="Layer_1" data-name="Layer 1" xmlns="http://www.w3.org/2000/svg" viewBox="0 0 50.46 50.46"><defs><style>.cls-1{fill:#12b5e1;}</style></defs><title>casco</title><path class="cls-1" d="M43.88,34.56h0a.93.93,0,0,0-.93.94,1,1,0,0,0,1.91,0A1,1,0,0,0,43.88,34.56Z"/><path class="cls-1" d="M43.4,37.45a.94.94,0,0,0-1.21.56A24.34,24.34,0,0,1,40,42.45C31.67,36.19,15.1,31.87,7.64,30.16,6.36,25.66,5.72,18,5.6,16.48c3.68-7,9.93-11.22,17.19-11.62A19.2,19.2,0,0,1,40.17,14a.95.95,0,0,0,1.61-1A21,21,0,0,0,22.68,3c-8,.44-14.9,5.13-18.89,12.88a.92.92,0,0,0-.1.49c0,.4.71,9.83,2.3,14.89a1,1,0,0,0,.7.64c5.67,1.28,24.82,6,33,12.68a.94.94,0,0,0,.6.22h.13a1,1,0,0,0,.65-.4l.35-.52A26.17,26.17,0,0,0,44,38.66.94.94,0,0,0,43.4,37.45Z"/><path class="cls-1" d="M37.76,45.77c-8.45-5.38-22.58-10-29.5-11.57A.94.94,0,0,0,7.83,36c6.8,1.59,20.66,6.07,28.92,11.33a.95.95,0,0,0,1-1.6Z"/><path class="cls-1" d="M17.11,8.55A18.07,18.07,0,0,0,8.6,15.41a.94.94,0,0,0,.27,1.31,1,1,0,0,0,.52.15,1,1,0,0,0,.79-.42,16.19,16.19,0,0,1,7.6-6.14,1,1,0,0,0,.55-1.22A.94.94,0,0,0,17.11,8.55Z"/><path class="cls-1" d="M44.18,16.49a.92.92,0,0,0-.79-.57L28.12,14.75a4.93,4.93,0,0,0-1.22-.18,4.75,4.75,0,0,0-4.74,4.74,9.58,9.58,0,0,0,.65,2.5,13.91,13.91,0,0,0,8,7l14.24,4.79a1,1,0,0,0,.3,0,1,1,0,0,0,.93-.78,30,30,0,0,0,.47-5.28A30.44,30.44,0,0,0,44.18,16.49Zm-17.28,0a2.85,2.85,0,1,1-2.85,2.85A2.86,2.86,0,0,1,26.9,16.46Zm17.72,15L31.43,27.05a12,12,0,0,1-4.76-3l.23,0a4.72,4.72,0,0,0,4-7.19l11.72.9a28.38,28.38,0,0,1,2.22,9.86A29.1,29.1,0,0,1,44.62,31.48Z"/><path class="cls-1" d="M26.67,20.14a.85.85,0,1,0-.89-.81A.85.85,0,0,0,26.67,20.14Z"/></svg>