<svg id="Layer_1" data-name="Layer 1" xmlns="http://www.w3.org/2000/svg" viewBox="0 0 50.46 50.46"><defs><style>.cls-1{fill:#12b5e1;}</style></defs><title>casco negativo</title><path class="cls-1" d="M38.41,45.83c-8.47-5.4-22.64-10-29.58-11.61a.95.95,0,0,0-.43,1.85c6.82,1.59,20.72,6.09,29,11.36a.91.91,0,0,0,.5.15.95.95,0,0,0,.51-1.75Z"/><path class="cls-1" d="M28.37,19.25a.85.85,0,1,0-.81.9A.87.87,0,0,0,28.37,19.25Z"/><path class="cls-1" d="M27.3,24h.22a4.75,4.75,0,0,0,4.75-4.75,4.67,4.67,0,0,0-.69-2.46l12.13.76a.63.63,0,0,0,.61-.88,27.52,27.52,0,0,0-1.78-3.47.77.77,0,0,0-.1-.25,21.21,21.21,0,0,0-2.09-2.84A16.46,16.46,0,0,0,35.62,6.1h0A21.07,21.07,0,0,0,23.29,2.91c-8,.44-14.95,5.15-18.94,12.92a.87.87,0,0,0-.1.5c0,.4.71,9.87,2.31,14.94a.91.91,0,0,0,.69.62c5.68,1.29,24.89,6,33.06,12.72a.94.94,0,0,0,.6.22H41a1,1,0,0,0,.61-.35,1,1,0,0,0,.32-.34c.22-.38.42-.76.62-1.14a25.6,25.6,0,0,0,2-4.29,1,1,0,0,0,0-.41,32.12,32.12,0,0,0,1.53-5.83.63.63,0,0,0-.42-.69L32.06,27.05A12.08,12.08,0,0,1,27.3,24ZM24.66,19.3a2.86,2.86,0,1,1,2.86,2.85A2.86,2.86,0,0,1,24.66,19.3Z"/></svg>