<svg id="Layer_1" data-name="Layer 1" xmlns="http://www.w3.org/2000/svg" viewBox="0 0 50.46 50.46"><defs><style>.cls-1{fill:#12b5e1;}</style></defs><title>central y profesional nuclear</title><path class="cls-1" d="M4.25,13.25a.79.79,0,0,1-.62-.3.78.78,0,0,1-.15-.67l0-.2C5,6.05,11.05,1.68,17.9,1.68S30.78,6,32.28,12.06l0,.18a.77.77,0,0,1-.15.67.79.79,0,0,1-.62.3l-27.3,0Zm13.65-10c-5.82,0-11,3.49-12.61,8.4l25.22,0C28.87,6.73,23.71,3.26,17.9,3.26Z"/><path class="cls-1" d="M16,23.44a1.93,1.93,0,0,1,1-1.68l-1.36-2.34a4.7,4.7,0,0,0-2.36,4.06H16Z"/><path class="cls-1" d="M20.27,19.42l-1.35,2.33a2,2,0,0,1,1,1.69v0h2.73A4.7,4.7,0,0,0,20.27,19.42Z"/><path class="cls-1" d="M17.93,25.42a1.93,1.93,0,0,1-1-.28l-1.4,2.41a4.75,4.75,0,0,0,2.37.65,4.63,4.63,0,0,0,2.33-.64l-1.38-2.39A2,2,0,0,1,17.93,25.42Z"/><path class="cls-1" d="M17.93,24.57a1.13,1.13,0,1,0-1.13-1.13A1.14,1.14,0,0,0,17.93,24.57Z"/><path class="cls-1" d="M17.94,30.13l-.45,0a6.69,6.69,0,0,1,.9-13.34,6.69,6.69,0,0,1,6.22,7.12h0A6.7,6.7,0,0,1,17.94,30.13Zm0-12.26A5.57,5.57,0,0,0,17.57,29a5.57,5.57,0,1,0,.74-11.12Z"/><path class="cls-1" d="M4,13.87a.79.79,0,0,0-.79.79V32.23A.79.79,0,0,0,4,33H24.63a.79.79,0,0,0,.79-.79h0a.79.79,0,0,0-.79-.79H4.75v-16H29.39a.79.79,0,0,0,.79-.79h0a.79.79,0,0,0-.79-.79Z"/><path class="cls-1" d="M40,33.3a1,1,0,0,0-.46-.1.85.85,0,0,0-.49.14,5.06,5.06,0,0,1-.62.37h0v0a6.94,6.94,0,0,1-3,.8,6.58,6.58,0,0,1-3.06-.8v0h0c-.27-.15-.47-.28-.55-.33a1,1,0,0,0-.59-.19.9.9,0,0,0-.36.08l0,0C25.25,36,23,43.23,23.46,44.61a1,1,0,0,0,.31.45,20.62,20.62,0,0,0,11.58,3.72,22.06,22.06,0,0,0,11.55-3.7.91.91,0,0,0,.32-.43C47.7,43.23,45.45,36,40,33.3Zm1.21,5.49-1.7.78a.67.67,0,0,0-.34.38.65.65,0,0,0,0,.51l1.12,2.26-3.71,3.09,2.71-10.45.46-.25ZM31.51,40a.65.65,0,0,0-.35-.38l-1.69-.78,1.43-3.67.47.3,2.7,10.39-3.72-3.09,1.13-2.26A.65.65,0,0,0,31.51,40Zm3.84-3.73a8,8,0,0,0,2.52-.44l-2.53,9.71L32.83,35.8A7.9,7.9,0,0,0,35.35,36.22Zm-6.48.48L28,38.89a.66.66,0,0,0,.33.84l1.65.76L28.94,42.6a.68.68,0,0,0,.17.8L33.38,47a19,19,0,0,1-8.28-3A14.27,14.27,0,0,1,28.87,36.7Zm8.47,10.23,4.24-3.53a.66.66,0,0,0,.16-.8l-1.05-2.11,1.64-.76a.65.65,0,0,0,.34-.84l-.86-2.21a14.24,14.24,0,0,1,3.78,7.26A20.8,20.8,0,0,1,37.34,46.93Z"/><path class="cls-1" d="M43.47,22a8.21,8.21,0,0,0-16.26,0,1.85,1.85,0,0,0-.75,1.47v2.89a2.62,2.62,0,0,0,2.3,2.36c1.5,2.53,3.88,4.47,6.58,4.47s5.08-1.94,6.58-4.47a2.61,2.61,0,0,0,2.3-2.36V23.48A1.83,1.83,0,0,0,43.47,22Zm-1.78-.36H38.53l-2.29-3.12V16.69A6.53,6.53,0,0,1,41.69,21.65Zm-6.13-1.82,1.34,1.82H34.18Zm-.63-3.19v1.85l-2.4,3.16H29A6.53,6.53,0,0,1,34.93,16.64Zm.41,14.87a6,6,0,0,1-4.48-2.7h.86a3.24,3.24,0,0,0,2.59-1.15l.62-.81a.53.53,0,0,1,.82,0l.62.81A3.27,3.27,0,0,0,39,28.81h.85A6,6,0,0,1,35.34,31.51Zm7.57-5.14c0,.61-.8,1.13-1.74,1.13H39a2,2,0,0,1-1.55-.64l-.62-.81a1.81,1.81,0,0,0-1.46-.72h0a1.81,1.81,0,0,0-1.45.72l-.62.81a2,2,0,0,1-1.55.64H29.51c-.94,0-1.73-.52-1.73-1.13V23.48a.51.51,0,0,1,.51-.51h14.1a.51.51,0,0,1,.52.51Z"/></svg>