<svg id="Layer_1" data-name="Layer 1" xmlns="http://www.w3.org/2000/svg" viewBox="0 0 50.46 50.46"><defs><style>.cls-1{fill:#12b5e1;}</style></defs><title>cinturon seguridad negativo</title><path class="cls-1" d="M16.47,25.29a.89.89,0,0,0-1.25,0L9,31.49a.88.88,0,0,0,0,1.25l8.66,8.66a.91.91,0,0,0,.63.26.89.89,0,0,0,.62-.26l6.2-6.2a.88.88,0,0,0,0-1.25Zm2.65,10.28-4.23-4.23,2.46-2.45,4.22,4.22Z"/><path class="cls-1" d="M27.19,16.59l-1-1a.88.88,0,0,0-1.25,0l-4.48,4.47a.89.89,0,0,0-.18,1l1.3,3.07L20.1,25.56a.9.9,0,0,0-.26.62.88.88,0,0,0,.26.62l3.48,3.48a.88.88,0,0,0,1.25,0l1.46-1.46,3.1,1.33a.89.89,0,0,0,1-.18l4.48-4.48a.91.91,0,0,0,0-1.25Zm4,9a1.1,1.1,0,0,1-.77.31,1.08,1.08,0,0,1-.77-.31l-4.84-4.84a1.09,1.09,0,1,1,1.54-1.54l4.84,4.84A1.1,1.1,0,0,1,31.19,25.62Z"/><path class="cls-1" d="M4.39,36.57h8.74a0,0,0,0,1,0,0v9a1.24,1.24,0,0,1-1.24,1.24H5.63a1.24,1.24,0,0,1-1.24-1.24v-9A0,0,0,0,1,4.39,36.57Z" transform="translate(32.05 6.02) rotate(45)"/><path class="cls-1" d="M35.42,2.32h6.26a1.24,1.24,0,0,1,1.24,1.24V21.51a0,0,0,0,1,0,0H34.18a0,0,0,0,1,0,0V3.56A1.24,1.24,0,0,1,35.42,2.32Z" transform="translate(19.71 -23.77) rotate(45)"/></svg>