<svg id="Layer_1" data-name="Layer 1" xmlns="http://www.w3.org/2000/svg" viewBox="0 0 50.46 50.46"><defs><style>.cls-1{fill:#65b4e1;}</style></defs><title>cocina</title><path class="cls-1" d="M8.59,7.11V41.38a2,2,0,0,0,2,2H39.9a2,2,0,0,0,2-2V7.11ZM40.35,41.38a.46.46,0,0,1-.45.45H10.56a.46.46,0,0,1-.45-.45V15H40.35Zm0-27.88H10.11V8.63H40.35Z"/><path class="cls-1" d="M15.79,39.2H34.67A3.18,3.18,0,0,0,37.85,36V17.51H12.61V36A3.18,3.18,0,0,0,15.79,39.2ZM14.13,19h22.2V36a1.66,1.66,0,0,1-1.66,1.66H15.79A1.66,1.66,0,0,1,14.13,36Z"/><path class="cls-1" d="M17.11,23.77H33.35a.76.76,0,0,0,.76-.76v-1a.76.76,0,1,0-1.52,0v.2H17.87v-.2a.76.76,0,0,0-1.52,0v1A.76.76,0,0,0,17.11,23.77Z"/><path class="cls-1" d="M31,27.73H19.5a.63.63,0,0,0,0,1.25H31a.63.63,0,0,0,0-1.25Z"/><path class="cls-1" d="M31,30.22H19.5a.63.63,0,1,0,0,1.25H31a.63.63,0,1,0,0-1.25Z"/><path class="cls-1" d="M31,32.71H19.5a.63.63,0,0,0,0,1.25H31a.63.63,0,0,0,0-1.25Z"/><circle class="cls-1" cx="16.07" cy="11.22" r="1.19"/><circle class="cls-1" cx="20.65" cy="11.22" r="1.19"/><circle class="cls-1" cx="25.23" cy="11.22" r="1.19"/><circle class="cls-1" cx="29.81" cy="11.22" r="1.19"/><circle class="cls-1" cx="34.39" cy="11.22" r="1.19"/></svg>