<svg id="Layer_1" data-name="Layer 1" xmlns="http://www.w3.org/2000/svg" viewBox="0 0 50.46 50.46"><defs><style>.cls-1{fill:#65b4e1;}</style></defs><title>consulta</title><path class="cls-1" d="M29,26.93a6.79,6.79,0,0,1-2,2l3.53,3.53a1.44,1.44,0,1,0,2-2Z"/><path class="cls-1" d="M29.07,23.31a5.77,5.77,0,1,0-5.77,5.77A5.77,5.77,0,0,0,29.07,23.31Zm-5.77,4.32a4.32,4.32,0,1,1,4.32-4.32A4.33,4.33,0,0,1,23.31,27.63Z"/><path class="cls-1" d="M19.94,23.31h1a2.41,2.41,0,0,1,2.4-2.4v-1A3.37,3.37,0,0,0,19.94,23.31Z"/><path class="cls-1" d="M40.83,13.55l-6.7-7.13H13.52a4,4,0,0,0-4,4V40.06a4,4,0,0,0,4,4H36.94a4,4,0,0,0,4-4Zm-2.46-.24H34.81l0-3.9ZM39.5,40.06a2.56,2.56,0,0,1-2.56,2.56H13.52A2.56,2.56,0,0,1,11,40.06V10.4a2.56,2.56,0,0,1,2.56-2.56H33.13l0,6.29A.83.83,0,0,0,34,15l2.92,0,2.59,0Z"/></svg>