<svg id="Layer_1" data-name="Layer 1" xmlns="http://www.w3.org/2000/svg" viewBox="0 0 50.46 50.46"><defs><style>.cls-1{fill:#12b5e1;}</style></defs><title>cotizacion envio</title><path class="cls-1" d="M34.79,6.18l0,0H15.65l-8,10.41,0,.05V39.73a4.58,4.58,0,0,0,4.55,4.59H38.27a4.58,4.58,0,0,0,4.55-4.59V16.58ZM26.46,8h7.43l6.44,8.54H26.46ZM16.57,8h8.08v8.54H10.21ZM41,24.79h0V39.73a2.75,2.75,0,0,1-2.74,2.76H12.19a2.75,2.75,0,0,1-2.74-2.76V18.35H41Z"/><path class="cls-1" d="M25.23,39.36a9,9,0,1,0-9-9A9,9,0,0,0,25.23,39.36Zm1.25-7.24a3.23,3.23,0,0,0-1.21-.71,13.83,13.83,0,0,1-1.49-.64A5,5,0,0,1,22.71,30a3.1,3.1,0,0,1-.69-1,3.16,3.16,0,0,1-.25-1.33,3,3,0,0,1,.85-2.18,3.64,3.64,0,0,1,2.27-1V22.86h1.26v1.72a3.24,3.24,0,0,1,2.18,1.16,3.8,3.8,0,0,1,.79,2.5H26.84a2.16,2.16,0,0,0-.39-1.41,1.27,1.27,0,0,0-1-.47,1.33,1.33,0,0,0-1,.36,1.41,1.41,0,0,0-.36,1,1.33,1.33,0,0,0,.35,1,3.79,3.79,0,0,0,1.29.74,14.94,14.94,0,0,1,1.55.71,4.84,4.84,0,0,1,1,.76,2.94,2.94,0,0,1,.64,1,3.26,3.26,0,0,1,.22,1.26,3,3,0,0,1-.83,2.18,3.67,3.67,0,0,1-2.31,1v1.57H24.73V36.3a3.75,3.75,0,0,1-2.5-1.15,3.64,3.64,0,0,1-.89-2.59h2.28A2.12,2.12,0,0,0,24.06,34a1.62,1.62,0,0,0,1.28.5,1.58,1.58,0,0,0,1.1-.36,1.28,1.28,0,0,0,.4-1A1.44,1.44,0,0,0,26.48,32.12Z"/></svg>