<svg id="Layer_1" data-name="Layer 1" xmlns="http://www.w3.org/2000/svg" viewBox="0 0 50.46 50.46"><defs><style>.cls-1{fill:#a7a9ac;}</style></defs><title>credenciales-negativo</title><path class="cls-1" d="M41.83,9.74H8.63a5.76,5.76,0,0,0-5.74,5.75V35a5.76,5.76,0,0,0,5.74,5.75h33.2A5.76,5.76,0,0,0,47.57,35V15.49A5.76,5.76,0,0,0,41.83,9.74ZM15,16.74a4.09,4.09,0,1,1-4.09,4.09A4.09,4.09,0,0,1,15,16.74ZM15,33a14.15,14.15,0,0,1-6.72-2A9.55,9.55,0,0,1,12,25.43a6.48,6.48,0,0,0,3,.79,6.2,6.2,0,0,0,3-.79A9.58,9.58,0,0,1,21.67,31,12.92,12.92,0,0,1,15,33ZM41,30.47H26.64a.9.9,0,0,1,0-1.79H41a.9.9,0,0,1,0,1.79Zm0-4.73H26.64a.9.9,0,0,1,0-1.79H41a.9.9,0,0,1,0,1.79ZM41,21H26.64a.9.9,0,0,1,0-1.79H41A.9.9,0,0,1,41,21Z"/></svg>