<svg id="Layer_1" data-name="Layer 1" xmlns="http://www.w3.org/2000/svg" viewBox="0 0 50.46 50.46"><defs><style>.cls-1{fill:#a7a9ac;}</style></defs><title>cruz medicina</title><path class="cls-1" d="M14.5,42.69H36a6.47,6.47,0,0,0,6.46-6.46V12.28a4.52,4.52,0,0,0-4.51-4.51H12.55A4.52,4.52,0,0,0,8,12.28V36.23A6.47,6.47,0,0,0,14.5,42.69ZM9.72,12.28a2.83,2.83,0,0,1,2.83-2.83H37.91a2.83,2.83,0,0,1,2.83,2.83V36.23A4.79,4.79,0,0,1,36,41H14.5a4.79,4.79,0,0,1-4.78-4.78Z"/><path class="cls-1" d="M18.12,28.45H22v3.84a1.38,1.38,0,0,0,1.21,1.35h4.11a1.31,1.31,0,0,0,1.12-1.35V28.45h4a1.3,1.3,0,0,0,1.21-1.26V23.08A1.13,1.13,0,0,0,32.43,22h-4V18a1.13,1.13,0,0,0-1.12-1.16H23.22A1.2,1.2,0,0,0,22,18v4H18.12a1.22,1.22,0,0,0-1.3,1.07v4.11A1.39,1.39,0,0,0,18.12,28.45Z"/></svg>