<svg id="Layer_1" data-name="Layer 1" xmlns="http://www.w3.org/2000/svg" viewBox="0 0 50.46 50.46"><defs><style>.cls-1{fill:#a7a9ac;}</style></defs><title>cruz medicina-negativo</title><path class="cls-1" d="M14.5,42.69H36a6.47,6.47,0,0,0,6.46-6.46V12.28a4.52,4.52,0,0,0-4.51-4.51H12.55A4.52,4.52,0,0,0,8,12.28V36.23A6.47,6.47,0,0,0,14.5,42.69Zm2.32-19.61A1.22,1.22,0,0,1,18.12,22H22V18a1.2,1.2,0,0,1,1.21-1.16h4.11A1.13,1.13,0,0,1,28.45,18v4h4a1.13,1.13,0,0,1,1.21,1.07v4.11a1.3,1.3,0,0,1-1.21,1.26h-4v3.84a1.31,1.31,0,0,1-1.12,1.35H23.22A1.38,1.38,0,0,1,22,32.29V28.45H18.12a1.39,1.39,0,0,1-1.3-1.26Z"/></svg>