<svg id="Layer_1" data-name="Layer 1" xmlns="http://www.w3.org/2000/svg" viewBox="0 0 50.46 50.46"><defs><style>.cls-1{fill:#12b5e1;}</style></defs><title>cud</title><path class="cls-1" d="M34.71,21.57H33.59V28.9h1.1a2.47,2.47,0,0,0,2-.87,3.94,3.94,0,0,0,.71-2.48V25a4,4,0,0,0-.69-2.53A2.44,2.44,0,0,0,34.71,21.57Z"/><path class="cls-1" d="M42.22,10.3h-34a5,5,0,0,0-5,5V35.2a5,5,0,0,0,5,5h34a5,5,0,0,0,5-5V15.26A5,5,0,0,0,42.22,10.3ZM13.57,28.2a1.87,1.87,0,0,0,1.7.82,2.21,2.21,0,0,0,1.56-.48,2.13,2.13,0,0,0,.59-1.48h2.26a3.89,3.89,0,0,1-1.3,2.79,4.61,4.61,0,0,1-3.11,1A4.11,4.11,0,0,1,12,29.45a5.82,5.82,0,0,1-1.21-3.9v-.67a6.58,6.58,0,0,1,.55-2.79,4.16,4.16,0,0,1,1.6-1.85,4.46,4.46,0,0,1,2.41-.65,4.49,4.49,0,0,1,3.06,1,4.19,4.19,0,0,1,1.34,2.86H17.44a2.33,2.33,0,0,0-.59-1.55,2.2,2.2,0,0,0-1.55-.47,1.93,1.93,0,0,0-1.7.81A4.56,4.56,0,0,0,13,24.77v.83A4.85,4.85,0,0,0,13.57,28.2ZM29.48,27a3.71,3.71,0,0,1-1.13,2.85,4.34,4.34,0,0,1-3.08,1.05,4.38,4.38,0,0,1-3.05-1,3.64,3.64,0,0,1-1.16-2.8V19.74h2.27V27a2.1,2.1,0,0,0,.51,1.57,2,2,0,0,0,1.43.49c1.27,0,1.92-.67,1.94-2V19.74h2.27Zm10.24-1.48a5.74,5.74,0,0,1-.63,2.72,4.51,4.51,0,0,1-1.77,1.85,5.3,5.3,0,0,1-2.59.66h-3.4v-11h3.38a5.16,5.16,0,0,1,2.59.65,4.56,4.56,0,0,1,1.78,1.86A5.67,5.67,0,0,1,39.72,25Z"/></svg>