<svg id="Layer_1" data-name="Layer 1" xmlns="http://www.w3.org/2000/svg" viewBox="0 0 50.46 50.46"><defs><style>.cls-1{fill:#12b5e1;}</style></defs><title>curriculum</title><path class="cls-1" d="M42.42,8.38H24.17a15.86,15.86,0,0,1,.62,1.52H42.42a.47.47,0,0,1,.47.47V30.31H7.57V10.37A.47.47,0,0,1,8,9.9h4a9.45,9.45,0,0,1,.81-1.52H8a2,2,0,0,0-2,2V34.86a2,2,0,0,0,2,2H21.5v3.38a2.42,2.42,0,0,1-2.41,2.42h-.45a.76.76,0,0,0-.76.76.77.77,0,0,0,.76.77H31.82a.77.77,0,0,0,.76-.77.76.76,0,0,0-.76-.76h-.45A2.42,2.42,0,0,1,29,40.24V36.86H42.42a2,2,0,0,0,2-2V10.37A2,2,0,0,0,42.42,8.38ZM22.2,42.66A3.94,3.94,0,0,0,23,40.24V36.86h4.4v3.38a3.94,3.94,0,0,0,.83,2.42Zm20.69-7.8a.47.47,0,0,1-.47.47H8a.47.47,0,0,1-.47-.47v-3H42.89Z"/><path class="cls-1" d="M40.39,26.85V13.13a1,1,0,0,0-1-1h-14a8.2,8.2,0,0,1-.15,1.2h14V26.85Z"/><path class="cls-1" d="M28.62,15.89a.69.69,0,0,1,.61-.29.77.77,0,0,1,.56.17.82.82,0,0,1,.21.55h.82a1.55,1.55,0,0,0-.49-1,1.6,1.6,0,0,0-1.1-.36,1.52,1.52,0,0,0-1.44.89,2.46,2.46,0,0,0-.2,1v.24A2.07,2.07,0,0,0,28,18.48a1.47,1.47,0,0,0,1.19.51,1.66,1.66,0,0,0,1.12-.37,1.4,1.4,0,0,0,.47-1H30a.67.67,0,0,1-.78.7.69.69,0,0,1-.61-.29,1.75,1.75,0,0,1-.2-.94v-.3A1.7,1.7,0,0,1,28.62,15.89Z"/><polygon class="cls-1" points="35.84 14.98 34.94 14.98 34.04 17.95 33.15 14.98 32.25 14.98 33.62 18.93 34.47 18.93 35.84 14.98"/><path class="cls-1" d="M37.92,20.41h-12v.2c.23.33.44.66.63,1H37.92Z"/><path class="cls-1" d="M37.92,24.5V23.3H27.34a9.42,9.42,0,0,1,.36,1.2Z"/><path class="cls-1" d="M21.53,18.53l0,0a.62.62,0,0,0-.63.07,4.67,4.67,0,0,1-2.44.76,4.78,4.78,0,0,1-2.48-.79.64.64,0,0,0-.63,0c-3.63,1.79-5.13,6.61-4.81,7.56a.7.7,0,0,0,.22.29,14.65,14.65,0,0,0,7.7,2.47,13.8,13.8,0,0,0,7.72-2.48.71.71,0,0,0,.21-.3C26.66,25.14,25.15,20.32,21.53,18.53Zm-.27,1.18a6.35,6.35,0,0,1,1,.67l-1.45,1.81-1.44-1.76A5.92,5.92,0,0,0,21.26,19.71ZM19.6,22.05l-1.16,1.41s0,0,0,.05,0,0,0-.05l-1.16-1.41,1.18-1.44Zm-4-2.34a6.1,6.1,0,0,0,1.94.71l-1.45,1.77-1.44-1.81A5.8,5.8,0,0,1,15.58,19.71Zm-4,5.88A9.88,9.88,0,0,1,14,21l1.72,2.14a.52.52,0,0,0,.32.16.44.44,0,0,0,.32-.15l.32-.4.87,1.05-2.13,3.49A12.43,12.43,0,0,1,11.61,25.59Zm6.81,2.09a11.57,11.57,0,0,1-2.13-.24L18.42,24l2.15,3.51A11.54,11.54,0,0,1,18.42,27.68Zm3-.41-2.15-3.52.87-1.05.32.4a.44.44,0,0,0,.32.15h0a.42.42,0,0,0,.32-.16l1.72-2.15a9.86,9.86,0,0,1,2.42,4.64A11.68,11.68,0,0,1,21.41,27.27Z"/><path class="cls-1" d="M18.42,18.46c3,0,5.48-3.67,5.48-6.7a5.48,5.48,0,1,0-11,0C12.94,14.79,15.39,18.46,18.42,18.46Zm-3.6-5.4a5.45,5.45,0,0,0,2.5-.67,6.7,6.7,0,0,0,2.91-3.1c.31,1.39,1,3.19,2.38,3.56-.47,2.18-2.24,4.44-4.19,4.44S14.8,15.15,14.28,13A3.12,3.12,0,0,0,14.82,13.06Z"/></svg>