<svg id="Layer_1" data-name="Layer 1" xmlns="http://www.w3.org/2000/svg" viewBox="0 0 50.46 50.46"><defs><style>.cls-1{fill:#65b4e1;}</style></defs><title>deficit habitacional</title><path class="cls-1" d="M25.7,13.66a.8.8,0,0,0-.94,0l-12.14,8.8a.8.8,0,0,0-.33.65V40.7a.8.8,0,0,0,.8.8H37.37a.8.8,0,0,0,.8-.8V23.12a.8.8,0,0,0-.33-.65ZM36.57,39.9H13.89V23.53l11.34-8.22,11.34,8.22Z"/><path class="cls-1" d="M40.93,20.13l-15.18-11a.89.89,0,0,0-1,0l-7.17,5.2V9.85a.89.89,0,1,0-1.79,0v5.79L9.53,20.13a.89.89,0,0,0,1,1.45L25.23,11,39.88,21.58a.89.89,0,0,0,1-1.45Z"/><path class="cls-1" d="M15.55,29.54a9.68,9.68,0,1,0,9.68-9.68A9.69,9.69,0,0,0,15.55,29.54Zm17.85,0a8.17,8.17,0,1,1-8.17-8.17A8.18,8.18,0,0,1,33.4,29.54Z"/><path class="cls-1" d="M20.72,26.93A.9.9,0,0,0,22,28.21l2.34-2.34v9.4a.9.9,0,0,0,1.8,0V25.78l2.55,2.55A.9.9,0,1,0,30,27.06l-4-4a.9.9,0,0,0-1.27,0Z"/></svg>