<svg id="Layer_1" data-name="Layer 1" xmlns="http://www.w3.org/2000/svg" viewBox="0 0 50.46 50.46"><defs><style>.cls-1{fill:#65b4e1;}</style></defs><title>deporte</title><path class="cls-1" d="M25.23,8.86A16.39,16.39,0,0,0,9.44,21l-.06.15h0A16.36,16.36,0,1,0,25.23,8.86Zm12.94,9.69c-1.64-1-3.8-1.86-5.67-1.18-.41-.41-.83-.82-1.29-1.22l0,0a13.09,13.09,0,0,1,3.75-1.75A14.64,14.64,0,0,1,38.17,18.55Zm-17.87-7a14.44,14.44,0,0,1,3.79-.82,2,2,0,0,1,1.14,2A22.87,22.87,0,0,0,20.3,11.53Zm6.3-.81A14.47,14.47,0,0,1,33.19,13a19.23,19.23,0,0,0-3.53,1.91,18.11,18.11,0,0,0-2.74-1.57A3.51,3.51,0,0,0,26.61,10.73Zm-9.54,2.44a21.88,21.88,0,0,1,7.27,1.12c-1.19,1-3.59,1.63-6.12,2.28l-2.2.58a19.92,19.92,0,0,0-3.71,1.38A14.67,14.67,0,0,1,17.06,13.17Zm-5.94,8.46c.22-.33,1.31-1.62,5.36-2.74l2.17-.57c3.27-.84,6.15-1.58,7.5-3.3a16.5,16.5,0,0,1,1.94,1.05,45.74,45.74,0,0,0-5.44,5C17.11,26.89,14.82,32,14,34.45a14.41,14.41,0,0,1-2.83-12.82Zm4.25,14.31c.48-1.62,2.44-7.17,8.59-13.66a42.79,42.79,0,0,1,5.66-5.1c.13.11.27.2.39.32.33.29.64.59.94.88-1.73,1.8-1.4,4.82-1.11,7.53a22.4,22.4,0,0,1,.2,3c-.21,6.17-1.53,9.64-4.14,10.9-.22,0-.44,0-.66,0A14.5,14.5,0,0,1,15.37,35.93Zm13.87,3.29c2-2.77,2.48-7,2.59-10.29a23.63,23.63,0,0,0-.21-3.23c-.26-2.35-.52-4.76.57-6a22,22,0,0,1,5.52,13A14.61,14.61,0,0,1,29.25,39.23Zm9.88-9.6a23.9,23.9,0,0,0-5.21-10.71c1.89,0,4.31,1.71,5.42,2.7a14.32,14.32,0,0,1-.21,8Z"/></svg>