<svg id="Layer_1" data-name="Layer 1" xmlns="http://www.w3.org/2000/svg" viewBox="0 0 50.46 50.46"><defs><style>.cls-1{fill:#65b4e1;}</style></defs><title>derrame toxico</title><path class="cls-1" d="M34.92,38.45c-5.72,0-.56-.92-.74-1.7-.4-1.7-13.2-.29-9-2.27.05,0-5.5.79-3.65,1.64,2.49,1.14,3.26,1.92-2.12,2.14-3.31.14-9,1.18-7.68,2.94,1.52,2.09,12.77,1.75,20,1.49C40.59,42.37,40.64,38.43,34.92,38.45Z"/><path class="cls-1" d="M22.84,20.72a.83.83,0,0,0,.66.78v.28a.9.9,0,0,0,.9.9h1.66a.9.9,0,0,0,.9-.9V21.5a.83.83,0,0,0,.66-.78.79.79,0,0,0-.27-.59,2.24,2.24,0,0,0,.41-1.29,2.54,2.54,0,0,0-5.06,0,2.24,2.24,0,0,0,.41,1.29A.79.79,0,0,0,22.84,20.72Zm3.51-2.38a.68.68,0,1,1-.7.68A.69.69,0,0,1,26.35,18.34Zm-1.07,1.52L26,21l-.69-.32-.7.34Zm-1.17-1.52a.68.68,0,1,1-.7.68A.69.69,0,0,1,24.11,18.34Z"/><path class="cls-1" d="M22.78,25a.63.63,0,0,0-1.16.49.62.62,0,0,0,.42.35.62.62,0,0,0,0,.55.63.63,0,1,0,1.16-.49l0,0L25.22,25l2.07.93,0,0a.63.63,0,1,0,1.12,0,.62.62,0,0,0,.43-.34.63.63,0,0,0-1.15-.52s0,0,0,0l-1.31-.59L27.68,24s0,0,0,0a.63.63,0,0,0,1.16-.49.61.61,0,0,0-.42-.35.62.62,0,0,0,0-.55.63.63,0,0,0-1.16.49l0,0L25.24,24l-2.07-.93,0,0A.63.63,0,1,0,22,22.53a.61.61,0,0,0,0,.54.62.62,0,0,0-.43.34.63.63,0,1,0,1.14.52s0,0,0,0l1.31.59L22.78,25S22.78,25,22.78,25Z"/><path class="cls-1" d="M14.71,31.87c0,.85.95,1.29,3.5,1.63a56.48,56.48,0,0,0,7,.39,56.48,56.48,0,0,0,7-.39c2.55-.34,3.5-.78,3.5-1.63a.72.72,0,0,0-.58-.71V29.25a1,1,0,0,0,.58-.9.72.72,0,0,0-.58-.71V14a1,1,0,0,0,.58-.9.72.72,0,0,0-.58-.71V10.49a1,1,0,0,0,.58-.9c0-.85-.95-1.29-3.5-1.63a56.5,56.5,0,0,0-7-.39,56.5,56.5,0,0,0-7,.39c-2.55.34-3.5.78-3.5,1.63a1,1,0,0,0,.58.9v1.92a.72.72,0,0,0-.58.71,1,1,0,0,0,.58.89V27.65a.72.72,0,0,0-.58.71,1,1,0,0,0,.58.9v1.92A.72.72,0,0,0,14.71,31.87ZM25.23,9a44.92,44.92,0,0,1,8.07.57,44.92,44.92,0,0,1-8.07.57,44.92,44.92,0,0,1-8.07-.57A44.92,44.92,0,0,1,25.23,9Zm-7,2.2a56.5,56.5,0,0,0,7,.39,56.5,56.5,0,0,0,7-.39c.57-.08,1.05-.16,1.47-.25v2a40.83,40.83,0,0,1-8.49.67A40.78,40.78,0,0,1,16.74,13V11C17.15,11.07,17.64,11.15,18.21,11.22Zm0,3.52a56.43,56.43,0,0,0,7,.39,56.48,56.48,0,0,0,7-.39c.57-.08,1.05-.16,1.47-.25V28.26a40.83,40.83,0,0,1-8.49.67,40.84,40.84,0,0,1-8.49-.67V14.5C17.16,14.59,17.64,14.67,18.21,14.74Zm0,15.24a56.5,56.5,0,0,0,7,.39,56.5,56.5,0,0,0,7-.39c.57-.08,1.05-.16,1.47-.25v2a40.83,40.83,0,0,1-8.49.67,40.84,40.84,0,0,1-8.49-.67v-2C17.15,29.83,17.64,29.91,18.21,30Z"/></svg>