<?xml version="1.0" encoding="utf-8"?>
<!-- Generator: Adobe Illustrator 22.1.0, SVG Export Plug-In . SVG Version: 6.00 Build 0)  -->
<svg version="1.1" id="Layer_1" xmlns="http://www.w3.org/2000/svg" xmlns:xlink="http://www.w3.org/1999/xlink" x="0px" y="0px"
	 viewBox="0 0 50.5 50.5" style="enable-background:new 0 0 50.5 50.5;" xml:space="preserve">
<style type="text/css">
	.st0{fill:#12B5E1;}
</style>
<title>dni</title>
<g>
	<g>
		<path class="st0" d="M24.5,23.5c2.4,0,4.1-1.7,4.1-3.8v0c0-2.2-1.7-3.8-4.1-3.8h-2.2c-0.5,0-0.8,0.4-0.8,0.8v6
			c0,0.5,0.4,0.8,0.8,0.8H24.5z M23.2,17.3h1.3c1.4,0,2.3,1,2.3,2.3v0c0,1.4-0.9,2.3-2.3,2.3h-1.3V17.3z"/>
		<path class="st0" d="M30.4,23.6c0.5,0,0.8-0.4,0.8-0.8v-4.1l3.4,4.4c0.2,0.3,0.5,0.5,0.9,0.5h0.1c0.5,0,0.8-0.4,0.8-0.8v-6.1
			c0-0.5-0.4-0.8-0.8-0.8c-0.5,0-0.8,0.4-0.8,0.8v4l-3.3-4.3c-0.2-0.3-0.5-0.5-0.9-0.5h-0.2c-0.5,0-0.8,0.4-0.8,0.8v6.1
			C29.6,23.2,30,23.6,30.4,23.6z"/>
		<path class="st0" d="M38.6,23.6c0.5,0,0.8-0.4,0.8-0.8v-6.1c0-0.5-0.4-0.8-0.8-0.8c-0.5,0-0.8,0.4-0.8,0.8v6.1
			C37.8,23.2,38.2,23.6,38.6,23.6z"/>
		<path class="st0" d="M44.2,9.7H6.3c-1.7,0-3.1,1.4-3.1,3.1v24.9c0,1.7,1.4,3.1,3.1,3.1h37.9c1.7,0,3.1-1.4,3.1-3.1V12.8
			C47.2,11.1,45.9,9.7,44.2,9.7z M45.5,37.6c0,0.7-0.6,1.3-1.3,1.3c0,0,0,0,0,0H6.3C5.6,39,5,38.4,5,37.7c0,0,0,0,0,0V12.8
			c0-0.7,0.6-1.3,1.3-1.3h37.8c0.7,0,1.3,0.6,1.3,1.3V37.6z"/>
		<path class="st0" d="M13.8,29c-2.5,0-4.6,1.9-5.1,4.5c-0.1,0.4,0.2,0.7,0.6,0.7h9.1c0.4,0,0.7-0.3,0.6-0.7
			C18.3,30.9,16.2,29,13.8,29z"/>
		<path class="st0" d="M13.8,28.1c1.7,0,3.1-1.4,3.1-3.1s-1.4-3.1-3.1-3.1c-1.7,0-3.1,1.4-3.1,3.1S12.1,28.1,13.8,28.1z"/>
		<path class="st0" d="M22.9,29.2C22.9,29.2,22.9,29.2,22.9,29.2h17.2c0.5,0,0.9-0.4,0.9-0.9c0-0.5-0.4-0.9-0.9-0.9H22.9
			c-0.5,0-0.9,0.4-0.9,0.9S22.4,29.2,22.9,29.2z"/>
		<path class="st0" d="M40.1,32.4H22.9c-0.5,0-0.9,0.4-0.9,0.9c0,0.5,0.4,0.9,0.9,0.9h17.2c0.5,0,0.9-0.4,0.9-0.9
			C41,32.8,40.6,32.4,40.1,32.4z"/>
	</g>
</g>
</svg>
