<svg id="Layer_1" data-name="Layer 1" xmlns="http://www.w3.org/2000/svg" viewBox="0 0 50.46 50.46"><defs><style>.cls-1{fill:#65b4e1;}</style></defs><title>energia hidroelectrica</title><path class="cls-1" d="M30,34.53a3.34,3.34,0,0,0,2.13-.75,4.14,4.14,0,0,1,4.93,0,3.34,3.34,0,0,0,2.13.75,3,3,0,0,0,1.89-.69l.19-.13.12-.08A2.55,2.55,0,0,1,43,33a5.54,5.54,0,0,1,1.05.33A.75.75,0,0,0,44.72,32a6.37,6.37,0,0,0-1.62-.48,3.91,3.91,0,0,0-2.57.9l-.12.08-.21.14a1.55,1.55,0,0,1-1,.42,1.91,1.91,0,0,1-1.29-.49,5.63,5.63,0,0,0-6.61,0A1.91,1.91,0,0,1,30,33a1.62,1.62,0,0,1-1-.31l-.87,1.22A3.12,3.12,0,0,0,30,34.53Z"/><path class="cls-1" d="M19.49,32.52a5.7,5.7,0,0,0-3.34-1,5.29,5.29,0,0,0-3.31,1.07,1.94,1.94,0,0,1-2.58,0L10,32.33a3.48,3.48,0,0,0-2.53-.84A3.76,3.76,0,0,0,5.74,32a.75.75,0,1,0,.68,1.33,2.37,2.37,0,0,1,1-.35,2,2,0,0,1,1.6.51l.37.28a3.41,3.41,0,0,0,4.26,0A3.83,3.83,0,0,1,16.16,33a4.3,4.3,0,0,1,2.55.82l.48.29.34-1.54Z"/><path class="cls-1" d="M16.16,36.44a5.29,5.29,0,0,0-3.31,1.07,1.94,1.94,0,0,1-2.58,0L10,37.3a3.48,3.48,0,0,0-2.53-.84A3.76,3.76,0,0,0,5.74,37a.75.75,0,0,0,.68,1.33,2.37,2.37,0,0,1,1-.35,2,2,0,0,1,1.6.51l.37.28a3.41,3.41,0,0,0,4.26,0,3.83,3.83,0,0,1,2.47-.81,4,4,0,0,1,2.07.53L18.56,37A5.4,5.4,0,0,0,16.16,36.44Z"/><path class="cls-1" d="M25.38,37.93a3.82,3.82,0,0,1,2.47.81,3.41,3.41,0,0,0,4.26,0,4.14,4.14,0,0,1,4.93,0,3.34,3.34,0,0,0,2.13.75,3,3,0,0,0,1.89-.69l.19-.13.12-.08A2.55,2.55,0,0,1,43,38a5.53,5.53,0,0,1,1.05.33.75.75,0,0,0,.66-1.34,6.36,6.36,0,0,0-1.62-.48,3.91,3.91,0,0,0-2.57.9l-.12.08-.21.14a1.55,1.55,0,0,1-1,.42,1.91,1.91,0,0,1-1.29-.49,5.63,5.63,0,0,0-6.61,0,1.94,1.94,0,0,1-2.58,0,5.3,5.3,0,0,0-2.44-1l-1,1.44Z"/><path class="cls-1" d="M44.72,41.9a6.35,6.35,0,0,0-1.62-.48,3.91,3.91,0,0,0-2.57.9l-.12.08-.21.14a1.55,1.55,0,0,1-1,.42,1.91,1.91,0,0,1-1.29-.49,5.63,5.63,0,0,0-6.61,0,1.94,1.94,0,0,1-2.58,0,5.63,5.63,0,0,0-6.61,0,1.91,1.91,0,0,1-1.29.49h0a2.38,2.38,0,0,1-1.27-.52,5.7,5.7,0,0,0-3.34-1,5.29,5.29,0,0,0-3.31,1.07,1.94,1.94,0,0,1-2.58,0L10,42.26a3.48,3.48,0,0,0-2.53-.84,3.76,3.76,0,0,0-1.72.51.75.75,0,1,0,.68,1.33,2.37,2.37,0,0,1,1-.35,2,2,0,0,1,1.6.51l.37.28a3.41,3.41,0,0,0,4.26,0,3.83,3.83,0,0,1,2.47-.81,4.3,4.3,0,0,1,2.55.82,3.71,3.71,0,0,0,2.06.74h0a3.34,3.34,0,0,0,2.13-.75,4.14,4.14,0,0,1,4.93,0,3.41,3.41,0,0,0,4.26,0,4.14,4.14,0,0,1,4.93,0,3.34,3.34,0,0,0,2.13.75,3,3,0,0,0,1.89-.69l.19-.13.12-.08A2.54,2.54,0,0,1,43,42.92a5.52,5.52,0,0,1,1.05.33.75.75,0,0,0,.66-1.34Z"/><path class="cls-1" d="M20.55,40.78a.8.8,0,0,1-.78-1L22.7,26.46H16.36a.8.8,0,0,1-.65-1.26L29.26,6.33A.8.8,0,0,1,30.69,7L27.76,20.32H34.1a.8.8,0,0,1,.65,1.26L21.2,40.45A.8.8,0,0,1,20.55,40.78ZM17.91,24.87h5.78a.8.8,0,0,1,.78,1L22.15,36.39,32.55,21.92H26.77a.8.8,0,0,1-.78-1l2.31-10.55Z"/></svg>