<svg id="Layer_1" data-name="Layer 1" xmlns="http://www.w3.org/2000/svg" viewBox="0 0 50.46 50.46"><defs><style>.cls-1{fill:#12b5e1;}</style></defs><title>entradas</title><path class="cls-1" d="M47.82,24.79a.92.92,0,0,0-1.18-.53,2.9,2.9,0,0,1-2-5.43.92.92,0,0,0,.53-1.18L43.32,12.8a4,4,0,0,0-3.81-2.56,3.21,3.21,0,0,1,.74-.78.9.9,0,0,0,.21-1.27L37.45,4A4,4,0,0,0,31.92,3L2.65,23.77a3.62,3.62,0,0,0-.42.36,4,4,0,0,0-1.41,4.6l1.82,4.85a.91.91,0,0,0,1.18.54,2.9,2.9,0,1,1,2,5.43.9.9,0,0,0-.53,1.17l1.81,4.86a4,4,0,0,0,5.11,2.32L47.32,34.75a4,4,0,0,0,2.32-5.11ZM33,4.53A2.13,2.13,0,0,1,36,5L38.5,8.58a4.66,4.66,0,0,0-1.15,2.22L9.26,21.33ZM46.68,33l-4.27,1.59-1-2.66a.91.91,0,1,0-1.71.64l1,2.67L11.6,46.19a2.14,2.14,0,0,1-2.75-1.25L7.32,40.86a4.73,4.73,0,0,0-3.26-8.69L2.53,28.09a2.14,2.14,0,0,1,1.25-2.75l29.1-10.91,4.2,11.19a.91.91,0,0,0,1.18.53A.9.9,0,0,0,38.79,25L34.6,13.79l4.26-1.6a2.14,2.14,0,0,1,2.75,1.25l1.53,4.08a4.73,4.73,0,0,0,3.26,8.69l1.53,4.08A2.15,2.15,0,0,1,46.68,33Z"/><path class="cls-1" d="M39.08,28.35a.93.93,0,0,0-.54,1.18l.13.34a.92.92,0,0,0,1.18.53.9.9,0,0,0,.53-1.17l-.12-.34A.91.91,0,0,0,39.08,28.35Z"/><path class="cls-1" d="M27.86,33.65l-2.17-3.52,1.66-3.79a.49.49,0,0,0-.07-.52.52.52,0,0,0-.51-.17l-4,1-3.09-2.76a.5.5,0,0,0-.52-.09.49.49,0,0,0-.31.43l-.31,4.12L15,30.43a.48.48,0,0,0-.25.46.49.49,0,0,0,.31.43l3.83,1.57.88,4a.48.48,0,0,0,.36.38l.12,0a.53.53,0,0,0,.39-.18L23.27,34l4.12.42a.53.53,0,0,0,.47-.24A.49.49,0,0,0,27.86,33.65Z"/></svg>