<svg id="Layer_1" data-name="Layer 1" xmlns="http://www.w3.org/2000/svg" viewBox="0 0 50.46 50.46"><defs><style>.cls-1{fill:#65b4e1;}</style></defs><title>erupciones volcanicas</title><path class="cls-1" d="M46.18,44.59l-16-26.28a1.09,1.09,0,0,0-1-.52,1.1,1.1,0,0,0-.93.65L26.5,22.27,25,20.58a1.1,1.1,0,0,0-1.78.21L22,23l-1.86-4.48a1.1,1.1,0,0,0-1-.68,1.09,1.09,0,0,0-1,.58c-14,26.46-14,26.46-14,26.74a1.1,1.1,0,0,0,1.1,1.1h40a1.1,1.1,0,0,0,.94-1.67ZM7,44.06,19,21.51,20.83,26a1.1,1.1,0,0,0,1,.68,1.13,1.13,0,0,0,1-.57l1.56-2.86L26,25a1.1,1.1,0,0,0,1.82-.3l1.53-3.46L43.28,44.06Z"/><path class="cls-1" d="M18.35,16a2.9,2.9,0,0,1,1.82.53.8.8,0,0,0,.56.23l.21,0a.8.8,0,0,0,.55-.57A7.14,7.14,0,0,0,20,12.23a2.84,2.84,0,0,0-3.33-.7A2.31,2.31,0,0,0,15.47,14C15.77,15.79,17.32,15.92,18.35,16Zm-1-3.11a.83.83,0,0,1,.39-.09,1.72,1.72,0,0,1,1.14.55,3.81,3.81,0,0,1,.66,1.24,9.83,9.83,0,0,0-1.08-.13c-1.19-.1-1.39-.2-1.48-.71A.77.77,0,0,1,17.37,12.89Z"/><path class="cls-1" d="M25.44,12.23h.11a.78.78,0,0,0,.69-.42,3.5,3.5,0,0,1,.24-.37l.07-.11c1.08-1.6,2.21-1.63,3.52-1.66S33,9.59,34,7.43a3.22,3.22,0,0,0-.91-3.93,4.63,4.63,0,0,0-5.65.1c-3.63,2.56-2.68,7.77-2.64,8A.78.78,0,0,0,25.44,12.23Zm2.88-7.35a3.68,3.68,0,0,1,2.12-.73,2.62,2.62,0,0,1,1.66.56,1.68,1.68,0,0,1,.47,2.1C32,8.07,31.32,8.09,30,8.12a5.39,5.39,0,0,0-3.82,1.24A5.66,5.66,0,0,1,28.33,4.88Z"/><path class="cls-1" d="M16.29,7.56A4.66,4.66,0,0,1,20.1,8.72a9,9,0,0,1,2.46,6.16.75.75,0,0,0,.74.76h0a.75.75,0,0,0,.75-.74,10.54,10.54,0,0,0-2.95-7.29,6.1,6.1,0,0,0-5-1.55.75.75,0,1,0,.16,1.49Z"/><path class="cls-1" d="M28.61,12.11c-2.11,1.19-3.07,4-3.07,6.1a.75.75,0,1,0,1.5,0c0-1.69.81-3.95,2.31-4.79,1.76-1,3.88-1,5,.07a.75.75,0,1,0,1-1.12C33.76,10.91,30.91,10.81,28.61,12.11Z"/><circle class="cls-1" cx="13.79" cy="7.42" r="0.75"/><circle class="cls-1" cx="11.94" cy="8.82" r="0.65"/><circle class="cls-1" cx="36.66" cy="14.14" r="0.75" transform="translate(-2.59 15.96) rotate(-23.76)"/><circle class="cls-1" cx="38.01" cy="15.98" r="0.65" transform="translate(-3.22 16.67) rotate(-23.76)"/></svg>