<svg id="Layer_1" data-name="Layer 1" xmlns="http://www.w3.org/2000/svg" viewBox="0 0 50.46 50.46"><defs><style>.cls-1{fill:#65b4e1;}</style></defs><title>finanzas</title><rect class="cls-1" x="15.28" y="20.2" width="2.61" height="15.9" rx="1.31" ry="1.31"/><rect class="cls-1" x="32.56" y="20.2" width="2.61" height="15.9" rx="1.31" ry="1.31"/><rect class="cls-1" x="21.04" y="20.2" width="2.61" height="15.9" rx="1.31" ry="1.31"/><rect class="cls-1" x="26.8" y="20.2" width="2.61" height="15.9" rx="1.31" ry="1.31"/><path class="cls-1" d="M12.15,37.88a1.18,1.18,0,0,0-.37.25,1.19,1.19,0,0,0-.14.17,1.16,1.16,0,0,0,0,1.31,1.19,1.19,0,0,0,.14.17,1.18,1.18,0,0,0,.37.25,1.16,1.16,0,0,0,.45.09H37.85a1.16,1.16,0,0,0,.45-.09,1.18,1.18,0,0,0,.52-.42,1.16,1.16,0,0,0,0-1.31,1.18,1.18,0,0,0-.52-.42,1.16,1.16,0,0,0-.45-.09H12.61A1.16,1.16,0,0,0,12.15,37.88Z"/><path class="cls-1" d="M41.59,41.92H8.87a1.17,1.17,0,1,0,0,2.34H41.59a1.17,1.17,0,0,0,0-2.34Z"/><path class="cls-1" d="M10.1,17.71h2.79v1.35H37.57V17.71h2.79a1.56,1.56,0,0,0,.73-2.95L26,6.38a1.56,1.56,0,0,0-1.46,0L9.37,14.76A1.56,1.56,0,0,0,10.1,17.71ZM23,14.27h1.47v.12a1,1,0,0,0,.21.69.75.75,0,0,0,.6.23.72.72,0,0,0,.51-.17A.56.56,0,0,0,26,14.7a.66.66,0,0,0-.16-.47,1.67,1.67,0,0,0-.61-.35,7.9,7.9,0,0,1-.81-.35,2.69,2.69,0,0,1-.6-.41,1.72,1.72,0,0,1-.4-.57,1.89,1.89,0,0,1-.15-.77,1.72,1.72,0,0,1,.49-1.26A2,2,0,0,1,24.92,10V9h.93V10a1.87,1.87,0,0,1,1.15.65,2.2,2.2,0,0,1,.45,1.43v.12H26v-.12a1.07,1.07,0,0,0-.18-.68.57.57,0,0,0-.47-.21.59.59,0,0,0-.45.16.63.63,0,0,0-.16.46.6.6,0,0,0,.15.43,2,2,0,0,0,.65.37,8,8,0,0,1,.85.39,2.58,2.58,0,0,1,.58.43,1.7,1.7,0,0,1,.37.56,1.9,1.9,0,0,1,.13.72A1.71,1.71,0,0,1,27,16a2.05,2.05,0,0,1-1.2.55v.86h-.92v-.86A2,2,0,0,1,23,14.39Z"/></svg>