<svg id="Layer_1" data-name="Layer 1" xmlns="http://www.w3.org/2000/svg" viewBox="0 0 50.46 50.46"><defs><style>.cls-1{fill:#12b5e1;}</style></defs><title>geolocalizacion</title><path class="cls-1" d="M46.75,23.36h-4A17.47,17.47,0,0,0,27.1,7.75v-4a1.87,1.87,0,1,0-3.74,0v4A17.47,17.47,0,0,0,7.75,23.36h-4a1.87,1.87,0,1,0,0,3.74h4A17.47,17.47,0,0,0,23.36,42.71v4a1.87,1.87,0,1,0,3.74,0v-4A17.47,17.47,0,0,0,42.71,27.1h4a1.87,1.87,0,0,0,0-3.74Zm-7.66,1.87A13.86,13.86,0,1,1,25.23,11.37,13.88,13.88,0,0,1,39.09,25.23Z"/><circle class="cls-1" cx="25.23" cy="25.23" r="8.43"/></svg>