<svg id="Layer_1" data-name="Layer 1" xmlns="http://www.w3.org/2000/svg" viewBox="0 0 50.46 50.46"><defs><style>.cls-1{fill:#65b4e1;}</style></defs><title>graduada</title><path class="cls-1" d="M21.76,12.91,17,11.7a11.28,11.28,0,0,0-1,5.65c.12,6.45-2.82,8.81-2.82,8.81l7.42.15a8.61,8.61,0,0,0,9.6,0l7.44-.15s-2.35-1.52-2.52-8a14.55,14.55,0,0,0-1.54-6.78l-8.39,2.1a2,2,0,0,1-1,0l-1.29-.32A16.36,16.36,0,0,0,32.47,19c0,.06,0,.13,0,.19a7.19,7.19,0,1,1-10.73-6.23Z"/><path class="cls-1" d="M30.82,27.55l-.08,0-.07,0a10.12,10.12,0,0,1-5.45,1.72,10.4,10.4,0,0,1-5.45-1.72l-.07,0-.08,0C13,30.81,10.33,39.72,10.75,41v0l0,0c3.83,2.89,10.34,4.61,14.43,4.61A25.81,25.81,0,0,0,39.66,41l0,0v0C40.13,39.72,37.42,30.81,30.82,27.55ZM25.23,43.9a26.62,26.62,0,0,1-12.73-3.8c.36-2,2.62-7.85,7.16-10.57A12,12,0,0,0,25.23,31a11.6,11.6,0,0,0,5.58-1.49C35.34,32.26,37.6,38.12,38,40.1A24.25,24.25,0,0,1,25.23,43.9Z"/><path class="cls-1" d="M38.63,18.2c-.79,0-1.43,1.57-1.43,3.52,0,.19,0,.37,0,.55H40c0-.18,0-.36,0-.55C40.07,19.78,39.43,18.2,38.63,18.2Z"/><ellipse class="cls-1" cx="38.63" cy="16.98" rx="1.13" ry="0.94"/><path class="cls-1" d="M24.89,12.34,38.2,9v6.25a.44.44,0,0,0,.86,0V8.73a.37.37,0,0,0-.31-.34.4.4,0,0,0-.19-.1L24.89,4.85a1.12,1.12,0,0,0-.54,0L10.67,8.28a.32.32,0,0,0,0,.63l13.68,3.43A1.12,1.12,0,0,0,24.89,12.34Z"/></svg>