<svg id="Layer_1" data-name="Layer 1" xmlns="http://www.w3.org/2000/svg" viewBox="0 0 50.46 50.46"><defs><style>.cls-1{fill:#12b5e1;}</style></defs><title>helicoptero</title><path class="cls-1" d="M13.69,32.89v1.59H8.36a1,1,0,0,1-.94-.94.68.68,0,1,0-1.35,0,2.29,2.29,0,0,0,2.29,2.29H29.89a.68.68,0,0,0,.67-.68.67.67,0,0,0-.67-.67H24v-1.6a9.6,9.6,0,0,0,9.27-9.53V22.8a1.12,1.12,0,0,1,.82-1.08l9.56-2a2.44,2.44,0,0,0,1.81-2.28l.18-4.06a.71.71,0,0,0-.19-.5.82.82,0,0,0-.47-.2H43.44a.69.69,0,0,0-.57.34l-1.93,3.26H26.34v-.09c0-1.48-1.11-2.43-2.84-2.43H23v-.43H38.56a.68.68,0,0,0,.67-.68.67.67,0,0,0-.67-.67H23v-.39a.68.68,0,0,0-1.35,0V12H6.26a.67.67,0,0,0-.67.67.68.68,0,0,0,.67.68H21.69v.43h-.22c-1.73,0-2.85,1-2.85,2.43v.09H18A12.42,12.42,0,0,0,5.59,28.72a4.18,4.18,0,0,0,4.18,4.17Zm4-15.22L17.65,27H7.08l0-.07A11,11,0,0,1,17.71,17.67ZM25,16.31H20v-.09c0-.94.94-1.08,1.5-1.08h2c.56,0,1.49.14,1.49,1.08Zm1,1.35L25.94,26a1,1,0,0,1-1,1H19l.06-9.3ZM15,32.89h7.65v1.59H15ZM9.77,31.54a2.83,2.83,0,0,1-2.83-2.82c0-.14,0-.27,0-.41H25a2.33,2.33,0,0,0,2.3-2.3l.06-8.35h14a.68.68,0,0,0,.58-.33l1.94-3.27h.46l-.15,3.36a1.1,1.1,0,0,1-.81,1l-9.55,2A2.46,2.46,0,0,0,32,22.79v.56a8.22,8.22,0,0,1-8.21,8.19Z"/><path class="cls-1" d="M13.74,21.07a9.62,9.62,0,0,0-3.27,3.29.66.66,0,1,1-1.13-.67A10.8,10.8,0,0,1,13.06,20a.67.67,0,0,1,.5-.08.65.65,0,0,1,.18,1.19Z"/><path class="cls-1" d="M15.34,20.31l-.13.05a.93.93,0,0,1-.23,0,.66.66,0,0,1-.62-.42.68.68,0,0,1,.38-.85l.14-.05a.67.67,0,0,1,.5,0,.63.63,0,0,1,.34.36A.66.66,0,0,1,15.34,20.31Z"/><path class="cls-1" d="M44.36,25.33H36.58a.65.65,0,1,1,0-1.3h7.78a.65.65,0,1,1,0,1.3Z"/><path class="cls-1" d="M48.26,28.57H40.47a.65.65,0,1,1,0-1.29h7.79a.65.65,0,0,1,0,1.29Z"/></svg>