<svg id="Layer_1" data-name="Layer 1" xmlns="http://www.w3.org/2000/svg" viewBox="0 0 50.46 50.46"><defs><style>.cls-1{fill:#65b4e1;}</style></defs><title>hogar y familia negativo</title><path class="cls-1" d="M25.79,11.92a1,1,0,0,0-1.12,0L10.28,22.35a1,1,0,0,0-.39.77V44a1,1,0,0,0,1,1H39.62a1,1,0,0,0,1-1V23.13a1,1,0,0,0-.39-.77Zm6.47,19.62c-.71.78-7,8-7,8l0,.06,0-.06s-6.27-7.26-7-8a4.2,4.2,0,1,1,7-4.32,4.2,4.2,0,1,1,7,4.32Z"/><path class="cls-1" d="M43.84,19.58l-18-13a1.06,1.06,0,0,0-1.24,0l-8.5,6.17V7.4A1.06,1.06,0,1,0,14,7.4v6.52a1,1,0,0,0,.06.28L6.62,19.58A1.06,1.06,0,1,0,7.86,21.3L25.23,8.7,42.6,21.3a1.06,1.06,0,1,0,1.24-1.71Z"/></svg>