<svg id="Layer_1" data-name="Layer 1" xmlns="http://www.w3.org/2000/svg" viewBox="0 0 50.46 50.46"><defs><style>.cls-1{fill:#12b5e1;}</style></defs><title>horas extra</title><path class="cls-1" d="M38.12,24.5a.4.4,0,0,1-.39-.34A13.09,13.09,0,0,0,26.9,13.64a.4.4,0,1,1,.1-.79A13.9,13.9,0,0,1,38.52,24a.4.4,0,0,1-.33.46Z"/><path class="cls-1" d="M35.15,23.82a.29.29,0,0,1-.28-.23,8.86,8.86,0,0,0-7.38-7.13.28.28,0,0,1-.24-.32.29.29,0,0,1,.32-.23,9.42,9.42,0,0,1,7.86,7.58.28.28,0,0,1-.23.32Z"/><polygon class="cls-1" points="26.69 24.67 26.07 14.96 24.27 14.96 23.67 27.8 36.83 27.12 36.83 25.33 26.69 24.67"/><path class="cls-1" d="M36.32,13.16l1-1,1.27,1.27.72-.72a1,1,0,0,0,0-1.44L37.15,9.07a1,1,0,0,0-1.44,0L35,9.79l1.27,1.26L35.1,12.21A17,17,0,0,0,26.29,9.1V7h2.5V5.57a1.42,1.42,0,0,0-1.42-1.42H23.09a1.42,1.42,0,0,0-1.42,1.42V7h2.5V9.1a17,17,0,0,0-8.81,3.11L14.2,11.05l1.27-1.26-.72-.72a1,1,0,0,0-1.44,0l-2.18,2.17a1,1,0,0,0,0,1.44l.72.72,1.27-1.27,1,1a17.08,17.08,0,1,0,22.18,0ZM25.23,40.71A14.58,14.58,0,1,1,39.81,26.13,14.6,14.6,0,0,1,25.23,40.71Z"/></svg>