<svg id="Layer_1" data-name="Layer 1" xmlns="http://www.w3.org/2000/svg" viewBox="0 0 50.46 50.46"><defs><style>.cls-1{fill:#12b5e1;}</style></defs><title>hosting</title><path class="cls-1" d="M44.61,14.65H23.78l0-5.14v0L18.47,3.84l0,0h-11A3.23,3.23,0,0,0,4.19,7v19.4a3.23,3.23,0,0,0,3.22,3.22h7.05v7a1.65,1.65,0,0,0,1.66,1.65H27.28v2.8a2,2,0,0,1-2,2H24.9a.63.63,0,0,0,0,1.26H35.83a.63.63,0,1,0,0-1.26h-.37a2,2,0,0,1-2-2v-2.8H44.61a1.66,1.66,0,0,0,1.66-1.65V16.31A1.67,1.67,0,0,0,44.61,14.65ZM21.51,9.22H19V6.51Zm6.34,33.85a3.28,3.28,0,0,0,.69-2v-2.8h3.65v2.8a3.28,3.28,0,0,0,.69,2ZM45,36.61a.39.39,0,0,1-.39.39H16.12a.39.39,0,0,1-.39-.39V34.1H45Zm0-3.78H15.73V29.65h4.89a3.19,3.19,0,0,0,2.33-1A10.07,10.07,0,0,1,21.67,28a1.89,1.89,0,0,1-1.05.32H7.41A1.92,1.92,0,0,1,5.5,26.43V7A1.92,1.92,0,0,1,7.41,5.12H17.52l0,4.84a.74.74,0,0,0,.73.74h0c.3,0,2.37,0,4.2,0V22.18a7.44,7.44,0,0,0,1.29.41l0-6.67H44.61a.39.39,0,0,1,.39.39Z"/><path class="cls-1" d="M28.28,23.44a.71.71,0,0,1-.21.5.67.67,0,0,1-.5.21c-3.11,0-6.3,0-9.23-3.64.51,3.65,2.46,7.39,9.27,7.73a.7.7,0,0,1,.67.7v2.2l6.9-4.94-6.9-4.95Z"/><path class="cls-1" d="M8.61,10.82h5.32a.65.65,0,0,0,0-1.3H8.61a.65.65,0,1,0,0,1.3Z"/><path class="cls-1" d="M8.61,14.27H19.42a.65.65,0,0,0,0-1.3H8.61a.65.65,0,1,0,0,1.3Z"/><path class="cls-1" d="M20.06,17.07a.64.64,0,0,0-.64-.64H8.61a.65.65,0,1,0,0,1.29H19.42A.65.65,0,0,0,20.06,17.07Z"/></svg>