<svg id="Layer_1" data-name="Layer 1" xmlns="http://www.w3.org/2000/svg" viewBox="0 0 50.46 50.46"><defs><style>.cls-1{fill:#12b5e1;}</style></defs><title>huerta</title><path class="cls-1" d="M34,15.05c-.06-.29-.55-2.87-2.08-4s-3.74-1-5.4,1.07A7.4,7.4,0,0,0,25,8.84c-2.4-2.5-5.28-2.23-8.56.79a.89.89,0,0,0-.28.68,4.87,4.87,0,0,0,5.2,4.8c.55,0,3.14,0,4,2.26a5.5,5.5,0,0,0,.15.55V32a7.26,7.26,0,0,0-5.68,3.06.85.85,0,0,0,.31,1.17.88.88,0,0,0,.44.12.85.85,0,0,0,.74-.43c.79-1.34,2.86-2.25,5.17-2.25s4.28.87,5.11,2.16A.86.86,0,0,0,33,34.92,7.52,7.52,0,0,0,27.18,32V17.93a3.41,3.41,0,0,1,1.88-2.2,4.73,4.73,0,0,1,3.71.24.84.84,0,0,0,.9-.08A.86.86,0,0,0,34,15.05ZM21.59,13.39h-.34a3.11,3.11,0,0,1-3.35-2.79C21,7.94,22.63,8.88,23.74,10c.8.84,1.25,2.7,1.48,4.46A6.26,6.26,0,0,0,21.59,13.39Zm6.8.75A4.83,4.83,0,0,0,27,15v-.1a4.63,4.63,0,0,1,.84-1.72,2.56,2.56,0,0,1,2-1.15,1.75,1.75,0,0,1,1.06.35,3.53,3.53,0,0,1,1,1.46A6,6,0,0,0,28.39,14.14Z"/><path class="cls-1" d="M19.14,29.34c-.05-.29-.55-2.87-2.07-4s-3.74-1-5.41,1.08a7.38,7.38,0,0,0-1.55-3.28c-2.4-2.49-5.28-2.22-8.57.79a.89.89,0,0,0-.27.69,4.88,4.88,0,0,0,5.2,4.8c.55,0,3.14,0,4,2.26.05.23.1.41.14.54v6.34a7.26,7.26,0,0,0-5.67,3.05.86.86,0,0,0,.31,1.18.85.85,0,0,0,.43.12.88.88,0,0,0,.75-.43c.78-1.35,2.86-2.25,5.17-2.25s4.28.86,5.11,2.15a.86.86,0,1,0,1.45-.92,7.54,7.54,0,0,0-5.83-2.92v-6.3A3.46,3.46,0,0,1,14.19,30a4.76,4.76,0,0,1,3.72.25.88.88,0,0,0,.9-.08A.86.86,0,0,0,19.14,29.34ZM6.72,27.67H6.39A3.08,3.08,0,0,1,3,24.89c3.07-2.67,4.73-1.72,5.83-.58.81.84,1.25,2.71,1.49,4.47A6.21,6.21,0,0,0,6.72,27.67Zm6.8.76a4.54,4.54,0,0,0-1.36.88v-.1A4.48,4.48,0,0,1,13,27.49a2.54,2.54,0,0,1,2-1.14A1.76,1.76,0,0,1,16,26.7a3.56,3.56,0,0,1,1,1.46A6,6,0,0,0,13.52,28.43Z"/><path class="cls-1" d="M49.18,29.34c0-.29-.55-2.87-2.07-4s-3.74-1-5.41,1.08a7.49,7.49,0,0,0-1.55-3.28c-2.4-2.49-5.29-2.22-8.57.79a.86.86,0,0,0-.27.69,4.88,4.88,0,0,0,5.2,4.8c.54,0,3.13,0,4,2.26q.09.35.15.54V39C38.1,39.2,35.93,40.34,35,42a.85.85,0,0,0,.31,1.17.82.82,0,0,0,.43.12.85.85,0,0,0,.74-.42c.79-1.35,2.87-2.26,5.17-2.26s4.29.87,5.11,2.16a.86.86,0,0,0,1.45-.93A7.5,7.5,0,0,0,42.35,39V32.22A3.46,3.46,0,0,1,44.23,30a4.76,4.76,0,0,1,3.72.25.88.88,0,0,0,.9-.08A.86.86,0,0,0,49.18,29.34ZM36.76,27.67h-.34a3.1,3.1,0,0,1-3.35-2.79c3.08-2.67,4.74-1.72,5.84-.58.81.84,1.25,2.71,1.49,4.47A6.23,6.23,0,0,0,36.76,27.67Zm6.8.76a4.54,4.54,0,0,0-1.36.88v-.1A4.59,4.59,0,0,1,43,27.49a2.57,2.57,0,0,1,2-1.14,1.73,1.73,0,0,1,1.06.35,3.38,3.38,0,0,1,1,1.46A5.91,5.91,0,0,0,43.56,28.43Z"/></svg>