<svg id="Layer_1" data-name="Layer 1" xmlns="http://www.w3.org/2000/svg" viewBox="0 0 50.46 50.46"><defs><style>.cls-1{fill:#12b5e1;}.cls-2{fill:#0eb5e3;}</style></defs><title>identidad federada</title><path class="cls-1" d="M38,27.83l-2.8,2.78a.93.93,0,0,1-.64.25.88.88,0,0,1-.61-.29l-.91-1-1,1.06a.86.86,0,0,1-.62.27h0a.86.86,0,0,1-.62-.27l-1.09-1.17-1.26,1.2a.84.84,0,0,1-.61.24.89.89,0,0,1-.6-.26.86.86,0,0,1,0-1.21l1.88-1.81a.93.93,0,0,1,.62-.23.8.8,0,0,1,.6.27l1.06,1.13,1-1.08a.86.86,0,0,1,.62-.27h0a.89.89,0,0,1,.63.29l.93,1.07,1.51-1.51-1.89-1.73H23.76a.82.82,0,0,1-.8-.62L22.3,23a1.52,1.52,0,0,0-1.43-1H16.72a1.52,1.52,0,0,0-1.43,1L14,26.86a1.54,1.54,0,0,0,0,.95l1.29,3.89a1.52,1.52,0,0,0,1.43,1h4.15a1.51,1.51,0,0,0,1.43-1l.8-2.41a.86.86,0,0,1,1.08-.55.87.87,0,0,1,.59.82,1.26,1.26,0,0,1,0,.27l-.81,2.41a3.19,3.19,0,0,1-3.05,2.2H16.72a3.2,3.2,0,0,1-3-2.2h0l-1.29-3.89a3.2,3.2,0,0,1,0-2l1.29-3.89a3.22,3.22,0,0,1,3-2.2h4.15a3.21,3.21,0,0,1,3.05,2.2l.46,1.38H34.59a.87.87,0,0,1,.58.22L38,26.59a.86.86,0,0,1,0,1.24Z"/><circle class="cls-1" cx="16.72" cy="27.38" r="1.12"/><path class="cls-2" d="M9,39.72a8.64,8.64,0,0,1-8.45-8.4,8.16,8.16,0,0,1,4.78-7.43,12,12,0,0,1-.08-1.33,11.84,11.84,0,0,1,21.44-6.92,7.7,7.7,0,0,1,5.78-2.58,7.79,7.79,0,0,1,7.78,7.78V21h.26a9.36,9.36,0,0,1,9.34,9.35,9.72,9.72,0,0,1-9.63,9.45Zm8.09-27.2A10.05,10.05,0,0,0,7.23,24.3a.9.9,0,0,1-.59,1,6.37,6.37,0,0,0-4.26,6A6.79,6.79,0,0,0,9,37.92l31.22,0a7.87,7.87,0,0,0,7.83-7.65,7.55,7.55,0,0,0-7.54-7.55c-.22,0-.43,0-.64,0h-.61a.91.91,0,0,1-.67-.32.89.89,0,0,1-.2-.72,6.4,6.4,0,0,0,.06-.88,6,6,0,0,0-11.06-3.15.87.87,0,0,1-.78.42.91.91,0,0,1-.77-.46A10.06,10.06,0,0,0,17.12,12.52Z"/></svg>