<svg id="Layer_1" data-name="Layer 1" xmlns="http://www.w3.org/2000/svg" viewBox="0 0 50.46 50.46"><defs><style>.cls-1{fill:#65b4e1;}</style></defs><title>industria y medioambiente</title><path class="cls-1" d="M44.43,8.49c.1.29,2.33,7.07-3,11.36-2.41,1.94-6.64,2.39-9.27-.26a.92.92,0,1,1,1.31-1.3c2,2,5.24,1.37,6.8.12a8.27,8.27,0,0,0,2.7-8c-1.82,1-3.84.69-5.81.4h-.1A3.8,3.8,0,0,0,33.33,12a5,5,0,0,0-.93,1.85.92.92,0,0,1-1.81-.39,6.79,6.79,0,0,1,2.33-3.6,5.71,5.71,0,0,1,4.42-1h.1c2.25.33,4,.59,5.48-.8a.92.92,0,0,1,1.52.37Z"/><path class="cls-1" d="M38.18,23.2a.88.88,0,0,0-.83,0l-6.07,3-.08-2.27a.88.88,0,0,0-1.28-.76l-6.07,3-.08-2.27a.88.88,0,0,0-1.28-.76l-5.35,2.66-.58-9.34a1.46,1.46,0,0,0-1.42-1.42H10.53a1.45,1.45,0,0,0-1.42,1.41L7.48,43.28a1.53,1.53,0,0,0,.35,1.06,1.4,1.4,0,0,0,1.07.5l29.77,0a1.4,1.4,0,0,0,1.07-.5,1.52,1.52,0,0,0,.35-1.07C39.63,34.65,38.64,24,38.63,23.9A.89.89,0,0,0,38.18,23.2ZM9.27,43.07l1.59-26.22h4l.65,10.43a.88.88,0,0,0,1.28.74l5.32-2.64.08,2.28a.88.88,0,0,0,1.28.76l6.07-3,.08,2.27a.88.88,0,0,0,1.28.76L37,25.35c.26,3.41,1,10.78,1.35,17.7Z"/><path class="cls-1" d="M38.95,14.47a.77.77,0,0,0-1.11-.17,6.59,6.59,0,0,1-1.63.93c-3.82,1.48-7.84-.91-9.51-4.09-2.26-4.31-6-6.28-10-5.27-3.16.79-5.54,3.35-5.53,5.94a.88.88,0,0,0,.88.88h0a.88.88,0,0,0,.88-.89c0-1.78,1.83-3.63,4.19-4.22,3.19-.79,6.2.84,8.05,4.38a10.23,10.23,0,0,0,8.69,5.49,8.3,8.3,0,0,0,3-.57,8.19,8.19,0,0,0,1.9-1.06A1,1,0,0,0,39,14.48Z"/><path class="cls-1" d="M21,32.2H17.47a.88.88,0,1,0,0,1.77H21a.88.88,0,1,0,0-1.77Z"/><path class="cls-1" d="M27.88,32.2H24.37a.88.88,0,1,0,0,1.77h3.51a.88.88,0,1,0,0-1.77Z"/><path class="cls-1" d="M34.79,32.2H31.28a.88.88,0,1,0,0,1.77h3.51a.88.88,0,0,0,0-1.77Z"/></svg>