<svg id="Layer_1" data-name="Layer 1" xmlns="http://www.w3.org/2000/svg" viewBox="0 0 50.46 50.46"><defs><style>.cls-1{fill:#12b5e1;}</style></defs><title>investigaciones famacologicas</title><path class="cls-1" d="M47.35,13.07h0a.74.74,0,0,0-.74-.74H38.5V10.85h.74a.73.73,0,0,0,.73-.73V7.17a.74.74,0,0,0-.73-.74H31.87a.74.74,0,0,0-.74.74v2.95a.74.74,0,0,0,.74.73h.73v1.48H20.81V10.85h.73a.74.74,0,0,0,.74-.73V7.17a.74.74,0,0,0-.74-.74H12.7a.74.74,0,0,0-.74.74v2.95a.74.74,0,0,0,.74.73h.73v1.48H8.91A3,3,0,0,0,6.8,10.22V7.91a.74.74,0,0,0-.74-.74h0a.74.74,0,0,0-.73.74v2.31a2.94,2.94,0,0,0,.08,5.72L8.17,36.66H5.33a.74.74,0,0,0-.74.73v2.22H3.85a.74.74,0,0,0-.74.73v2.95a.74.74,0,0,0,.74.74H46.61a.74.74,0,0,0,.74-.74V40.34a.74.74,0,0,0-.74-.73H13.43V37.39a.73.73,0,0,0-.73-.73h-3L6.89,15.88a3,3,0,0,0,2-2.08h4.52V30.61A3.79,3.79,0,0,0,17,34.44a3.69,3.69,0,0,0,3.8-3.68v-17H32.6v1.11a11.85,11.85,0,0,0-8.85,11.43c0,.09,0,.18,0,.27h0a11.8,11.8,0,0,0,10.6,11.45,11.73,11.73,0,0,0,2.37,0L37,38c.29,0,.59-.07.88-.14a2.61,2.61,0,0,0,.27-.06l.86-.22.22-.08c.29-.1.58-.2.86-.32l.18-.08c.29-.13.57-.26.85-.41l.16-.09c.28-.16.55-.32.81-.49l.16-.12c.25-.17.5-.36.73-.55l.19-.16.64-.58c.07-.08.15-.15.21-.23s.36-.38.53-.58.17-.21.26-.32.27-.35.4-.54l.3-.45.27-.46c.11-.2.22-.4.32-.6s.11-.24.17-.35.21-.51.31-.77l.09-.24c.1-.3.19-.6.27-.91l0-.13a9.29,9.29,0,0,0,.21-1v-.05c0-.37.09-.74.11-1.12v0c0-.19,0-.37,0-.56A11.85,11.85,0,0,0,38.5,14.91V13.8h8.11A.74.74,0,0,0,47.35,13.07ZM6.06,14.54a1.48,1.48,0,1,1,1.48-1.47A1.47,1.47,0,0,1,6.06,14.54Zm13.27,8.85H14.91V20.64h2.21a.74.74,0,0,0,.74-.74h0a.74.74,0,0,0-.74-.73H14.91V17.69h.74a.73.73,0,0,0,.73-.73h0a.74.74,0,0,0-.73-.74h-.74V14.74h2.21a.74.74,0,0,0,.74-.73h0a.74.74,0,0,0-.74-.74H14.91V10.85h4.42Zm26.54,2.95v0a5.07,5.07,0,0,0-1.25.91,3.44,3.44,0,0,1-4.86,0,4.9,4.9,0,0,0-6.94,0,3.43,3.43,0,0,1-4.85,0,4.83,4.83,0,0,0-2.72-1.37,10.35,10.35,0,0,1,8.24-9.7.74.74,0,0,0,.59-.72V10.85h3V15.5a.73.73,0,0,0,.58.72A10.35,10.35,0,0,1,45.87,26.34Z"/><path class="cls-1" d="M27.78,24.14h0a.74.74,0,0,0,.89-.44,7.33,7.33,0,0,1,3.59-4,.74.74,0,0,0,.36-.92h0a.75.75,0,0,0-1-.4,8.87,8.87,0,0,0-4.29,4.73A.75.75,0,0,0,27.78,24.14Z"/></svg>