<svg id="Layer_1" data-name="Layer 1" xmlns="http://www.w3.org/2000/svg" viewBox="0 0 50.46 50.46"><defs><style>.cls-1{fill:#12b5e1;}</style></defs><title>juegos</title><path class="cls-1" d="M18.29,31.7a4.62,4.62,0,1,0,4.62,4.62A4.61,4.61,0,0,0,18.29,31.7Zm0,7.06a2.45,2.45,0,1,1,2.45-2.44A2.44,2.44,0,0,1,18.29,38.76Z"/><path class="cls-1" d="M36.78,36.32a4.62,4.62,0,1,0-4.61,4.61A4.61,4.61,0,0,0,36.78,36.32Zm-4.61,2.44a2.45,2.45,0,1,1,2.44-2.44A2.45,2.45,0,0,1,32.17,38.76Z"/><path class="cls-1" d="M18.29,20.41a.9.9,0,0,0-.9.9V23.7H15a.9.9,0,0,0,0,1.8h2.39v2.4a.9.9,0,1,0,1.8,0V25.5h2.4a.9.9,0,1,0,0-1.8h-2.4V21.31A.9.9,0,0,0,18.29,20.41Z"/><path class="cls-1" d="M29.45,23.2a1.41,1.41,0,1,0,1.4,1.4A1.4,1.4,0,0,0,29.45,23.2Z"/><path class="cls-1" d="M34.88,26a1.41,1.41,0,1,0-1.4-1.41A1.41,1.41,0,0,0,34.88,26Z"/><path class="cls-1" d="M32.17,20.48a1.41,1.41,0,1,0,1.4,1.41A1.41,1.41,0,0,0,32.17,20.48Z"/><path class="cls-1" d="M32.17,25.92a1.4,1.4,0,1,0,1.4,1.4A1.41,1.41,0,0,0,32.17,25.92Z"/><path class="cls-1" d="M46.26,40.66l-4-17.41c-.66-3.31-2.15-7.74-7.47-7.83H26.28V14a2.84,2.84,0,0,0-2.84-2.83h-3.9a1.06,1.06,0,0,1,0-2.12H30.92a2.84,2.84,0,1,0,0-5.67H22.56a.9.9,0,0,0,0,1.8h8.36a1,1,0,1,1,0,2.07H19.54a2.86,2.86,0,0,0,0,5.72h3.9a1,1,0,0,1,1,1v1.44H15.67c-5.3.09-6.79,4.52-7.45,7.81l-4,17.43a1.49,1.49,0,0,0,0,.21,6.79,6.79,0,0,0,0,.78A6,6,0,0,0,8.4,46.76,6.38,6.38,0,0,0,15.24,45l1.12-1.39A.9.9,0,0,0,15,42.44l-1.08,1.35A4.62,4.62,0,0,1,9,45.05a4.17,4.17,0,0,1-3-3.59A4.07,4.07,0,0,1,6,41L10,23.6c.89-4.47,2.55-6.32,5.71-6.38H34.76c3.17.06,4.83,1.91,5.72,6.41l4,17.33a4.07,4.07,0,0,1,0,.5,4.17,4.17,0,0,1-3,3.59,4.59,4.59,0,0,1-4.86-1.21l-1.1-1.39a.9.9,0,1,0-1.41,1.11L35.25,45A6.34,6.34,0,0,0,40,47.1a6.67,6.67,0,0,0,2.09-.34,6,6,0,0,0,4.18-5.11,6.79,6.79,0,0,0,0-.78A1.49,1.49,0,0,0,46.26,40.66Z"/></svg>