<svg id="Layer_1" data-name="Layer 1" xmlns="http://www.w3.org/2000/svg" viewBox="0 0 50.46 50.46"><defs><style>.cls-1{fill:#12b5e1;}</style></defs><title>lactancia</title><path class="cls-1" d="M44.19,32.06c-.81-2.6-3-9-6.3-12.4a11,11,0,0,0-2.53-1.92,1,1,0,0,0-.72-.08.92.92,0,0,0-.57.45,1,1,0,0,0-.08.73.93.93,0,0,0,.45.56A9.19,9.19,0,0,1,36.53,21c2.06,2.14,4.25,6.49,5.84,11.64a4.26,4.26,0,0,1-1.25,4.54,58.87,58.87,0,0,1-7.85,5.31,2.87,2.87,0,0,1-3.92-1.08,2.45,2.45,0,0,1-.21-2,2.65,2.65,0,0,1,1.46-1.57l.42-.18c3-1.32,7.19-3.14,7.19-8.77a.95.95,0,0,0-1.9,0c0,4.39-3.21,5.79-6.05,7l-.43.19a4.5,4.5,0,0,0-2.49,2.71,4.26,4.26,0,0,0-.15,2.15,4.08,4.08,0,0,0-.8-1.16,5.31,5.31,0,0,0-3.21-1.47l-.82-.09c-.71-.07-1.66-.16-2.75-.34a3.93,3.93,0,0,0,1-4.4l-.92-2.31a1,1,0,0,1,.13-1,1,1,0,0,1,.87-.41,1,1,0,0,1,.8.49c1.53,3.4,3.5,5.55,5.85,6.38a.94.94,0,0,0,1.21-.57A1,1,0,0,0,28,34.89c-1.85-.65-3.45-2.46-4.76-5.37a2.81,2.81,0,0,0-2.4-1.6,2.92,2.92,0,0,0-2.53,1.17,2.89,2.89,0,0,0-.36,2.77l.92,2.32a2.08,2.08,0,0,1-.07,1.71A2,2,0,0,1,17.46,37l-.83.23c-.8-.23-1.59-.48-2.4-.78a1,1,0,0,0-.72,0,1,1,0,0,0-.46,1.27.91.91,0,0,0,.53.49c.94.34,1.86.63,2.77.88a31.41,31.41,0,0,0,5.82,1l.8.08a3.37,3.37,0,0,1,2.06.92A2.26,2.26,0,0,1,25.65,43a2.86,2.86,0,0,1-3.17,2.45c-.14,0-.38,0-.7-.05a32.84,32.84,0,0,1-7.71-1.21A8.58,8.58,0,0,1,7.94,35c.24-2.06,2.83-9.16,6.54-12.94a15.24,15.24,0,0,1,2.08-1.8.92.92,0,0,0,.39-.61,1,1,0,0,0-1.49-.93,16.94,16.94,0,0,0-2.34,2C9.05,24.86,6.33,32.44,6.06,34.77a10.45,10.45,0,0,0,7.48,11.28,34.66,34.66,0,0,0,8.14,1.29h.15l.45,0,.53,0a4.71,4.71,0,0,0,4.71-4.08s0-.16,0-.18a4.14,4.14,0,0,0,0-1.22c.06.14.13.27.2.4l.08.13a4.73,4.73,0,0,0,4.06,2.29,4.83,4.83,0,0,0,2.37-.63,60.61,60.61,0,0,0,8.15-5.52A6.18,6.18,0,0,0,44.19,32.06Z"/><path class="cls-1" d="M25.43,21.23a9.09,9.09,0,1,0-9.09-9.09A9.1,9.1,0,0,0,25.43,21.23Zm-7.19-9.09a7.19,7.19,0,1,1,7.19,7.19A7.2,7.2,0,0,1,18.24,12.14Z"/><path class="cls-1" d="M24.2,27.84a5.63,5.63,0,1,0,5.63-5.63A5.64,5.64,0,0,0,24.2,27.84Zm1.89,0a3.74,3.74,0,1,1,3.74,3.73A3.75,3.75,0,0,1,26.09,27.84Z"/></svg>