<svg id="Layer_1" data-name="Layer 1" xmlns="http://www.w3.org/2000/svg" viewBox="0 0 50.46 50.46"><defs><style>.cls-1{fill:#65b4e1;}</style></defs><title>lampara hoja</title><path class="cls-1" d="M26.74,6.77c-.28,0-1.51-.08-1.6-.08a8.37,8.37,0,0,0-1.4.1A11.51,11.51,0,0,0,14,18c0,3.12,1.66,6.19,3.26,9.16,1.38,2.55,2.68,5.11,2.68,7.12a2.1,2.1,0,0,0,.71,1.5h8c1.35,0,1.89-.78,1.89-1.45,0-1.95,1.25-4.32,2.58-6.73,1.65-3,3.35-6.13,3.35-9.54A11.41,11.41,0,0,0,26.74,6.77Zm4.6,19.73C30,29,28.66,31.66,28.52,33.74H21.94c-.11-2-1.53-5.19-2.91-7.75-1.49-2.75-3-5.5-3-8.12a9.45,9.45,0,0,1,8.08-9.16,8.78,8.78,0,0,1,2.32.05h.06a9.38,9.38,0,0,1,8,9.29C34.45,21.06,32.8,23.86,31.34,26.5Z"/><path class="cls-1" d="M20.17,17.27c-3,5.46,3.16,10.33,4.19,11.13-2.43-5-2.68-11.21,2.07-12.38-4.1,1.36-3.49,9.32-1.19,12.37.4-.17,3.27-2.31,3.92-4.38.91-2.88-1.08-5-1.42-6C27,15.91,29,15.63,29.85,15.79,29,14.94,22.68,12.69,20.17,17.27Z"/><path class="cls-1" d="M29.37,37.25H21.94a.74.74,0,0,0,0,1.48h7.43a.74.74,0,0,0,0-1.48Z"/><path class="cls-1" d="M29.37,39.77H21.94a.74.74,0,0,0,0,1.48h7.43a.74.74,0,0,0,0-1.48Z"/><path class="cls-1" d="M28.38,42.29H22.93a.74.74,0,0,0,0,1.48h5.45a.74.74,0,0,0,0-1.48Z"/></svg>