<svg id="Layer_1" data-name="Layer 1" xmlns="http://www.w3.org/2000/svg" viewBox="0 0 50.46 50.46"><defs><style>.cls-1{fill:#12b5e1;}</style></defs><title>lluvias</title><path class="cls-1" d="M38,14.86C37.79,11.05,34.29,8,30,8a8,8,0,0,0-7,3.8,5.17,5.17,0,0,0-7.57,1.52,7.07,7.07,0,0,0-1.22-.12,7.94,7.94,0,0,0-4,14.78,1,1,0,0,0,.46.12.91.91,0,0,0,.78-.44.9.9,0,0,0-.32-1.23A6.14,6.14,0,0,1,14.2,15c.1,0,.29,0,.57,0a4.44,4.44,0,0,0-.1.62.9.9,0,1,0,1.79.12,3.44,3.44,0,0,1,3.41-3.22,3.39,3.39,0,0,1,2.69,1.33.91.91,0,0,0,.86.33.87.87,0,0,0,.7-.6A6.14,6.14,0,0,1,30,9.8c3.38,0,6.14,2.39,6.14,5.34a3.71,3.71,0,0,1,0,.47.94.94,0,0,0,.93,1,5.35,5.35,0,0,1,5.34,5.34,5.16,5.16,0,0,1-2,4.19.9.9,0,0,0-.17,1.26.91.91,0,0,0,.72.35.9.9,0,0,0,.54-.18,6.91,6.91,0,0,0,2.72-5.62A7.14,7.14,0,0,0,38,14.86Z"/><path class="cls-1" d="M12.94,30.56a.91.91,0,0,1-.7-1.46l1.23-1.57a.9.9,0,0,1,1.26-.16.92.92,0,0,1,.16,1.27l-1.24,1.57A.88.88,0,0,1,12.94,30.56Z"/><path class="cls-1" d="M20.72,30.58a.94.94,0,0,1-.55-.19A.91.91,0,0,1,20,29.12l1.23-1.57a.9.9,0,0,1,1.26-.16.92.92,0,0,1,.16,1.27l-1.24,1.57A.88.88,0,0,1,20.72,30.58Z"/><path class="cls-1" d="M28.5,30.58a.94.94,0,0,1-.55-.19.92.92,0,0,1-.16-1.27L29,27.55a.9.9,0,1,1,1.41,1.11l-1.23,1.57A.89.89,0,0,1,28.5,30.58Z"/><path class="cls-1" d="M36.28,30.58a.94.94,0,0,1-.55-.19.92.92,0,0,1-.16-1.27l1.24-1.57a.9.9,0,1,1,1.41,1.11L37,30.23A.89.89,0,0,1,36.28,30.58Z"/><path class="cls-1" d="M16.83,36.31a.88.88,0,0,1-.55-.19.89.89,0,0,1-.15-1.26l1.23-1.58a.89.89,0,0,1,1.26-.15.9.9,0,0,1,.16,1.26L17.54,36A.9.9,0,0,1,16.83,36.31Z"/><path class="cls-1" d="M24.61,36.31a.88.88,0,0,1-.55-.19.89.89,0,0,1-.15-1.26l1.23-1.58a.89.89,0,0,1,1.26-.15.9.9,0,0,1,.16,1.26L25.32,36A.91.91,0,0,1,24.61,36.31Z"/><path class="cls-1" d="M32.39,36.31a.88.88,0,0,1-.55-.19.9.9,0,0,1-.16-1.26l1.24-1.58a.9.9,0,1,1,1.41,1.11L33.1,36A.91.91,0,0,1,32.39,36.31Z"/><path class="cls-1" d="M20.72,42.06A.91.91,0,0,1,20,40.6L21.25,39a.9.9,0,0,1,1.26-.16.9.9,0,0,1,.16,1.26l-1.24,1.58A.88.88,0,0,1,20.72,42.06Z"/><path class="cls-1" d="M28.5,42.06a.89.89,0,0,1-.55-.2.9.9,0,0,1-.16-1.26L29,39a.89.89,0,1,1,1.41,1.1l-1.23,1.58A.89.89,0,0,1,28.5,42.06Z"/></svg>