<svg id="Layer_1" data-name="Layer 1" xmlns="http://www.w3.org/2000/svg" viewBox="0 0 50.46 50.46"><defs><style>.cls-1{fill:#0eb5e3;}</style></defs><title>login social</title><path class="cls-1" d="M9.45,38.74a1.49,1.49,0,0,1-1.39-2,21.83,21.83,0,0,1,4.33-6.85,14.68,14.68,0,0,1,10.93-4.6h.1a15.89,15.89,0,0,1,3.77.44A1,1,0,0,0,28.38,25l0-.1a1,1,0,0,0-.7-1.16,18.14,18.14,0,0,0-4.29-.5h-.1A16.6,16.6,0,0,0,11,28.47a23.68,23.68,0,0,0-4.7,7.37,3.46,3.46,0,0,0,3.18,4.88h7.19a1,1,0,0,0,1-1h0a1,1,0,0,0-1-1Z"/><path class="cls-1" d="M23.92,4.85A8.14,8.14,0,1,0,32.06,13,8.15,8.15,0,0,0,23.92,4.85ZM30.22,13a6.3,6.3,0,1,1-6.3-6.3A6.3,6.3,0,0,1,30.22,13Z"/><path class="cls-1" d="M25.19,29.36a5.85,5.85,0,0,0-5.83,5.83h0a5.83,5.83,0,0,0,11.66,0h0A5.85,5.85,0,0,0,25.19,29.36Zm4.07,6.7a4.16,4.16,0,0,1-7.74,1.11,4.24,4.24,0,0,1-.49-2,4.08,4.08,0,0,1,.46-1.91A4.17,4.17,0,0,1,27.85,32l-1.35,1.1a2.44,2.44,0,0,0-1.31-.37,2.47,2.47,0,0,0-2.34,1.67,2.36,2.36,0,0,0-.14.8,2.49,2.49,0,0,0,2.48,2.48,2.41,2.41,0,0,0,1.25-.34,2.47,2.47,0,0,0,1.07-1.27H25.28V34.41h4a3.84,3.84,0,0,1,0,1.65Z"/><path class="cls-1" d="M38.66,29.36a5.85,5.85,0,0,0-5.83,5.83h0a5.83,5.83,0,0,0,11.66,0h0A5.86,5.86,0,0,0,38.66,29.36Zm2.08,3.41H39.67a.51.51,0,0,0-.49.55v.48h1.53l-.25,1.55H39.18v4.16H37.61V35.35h-1V33.8h1V33h0c0-.9.34-1.76,1.87-1.81h1.26Z"/></svg>