<svg id="Layer_1" data-name="Layer 1" xmlns="http://www.w3.org/2000/svg" viewBox="0 0 50.46 50.46"><defs><style>.cls-1{fill:#12b5e1;}</style></defs><title>maiz</title><path class="cls-1" d="M22.38,20.79H21a.7.7,0,0,0,0,1.4h1.36a.7.7,0,0,0,0-1.4Z"/><path class="cls-1" d="M27.12,20.79H25.76a.7.7,0,1,0,0,1.4h1.36a.7.7,0,0,0,0-1.4Z"/><path class="cls-1" d="M25.45,16.68a.7.7,0,0,0-.7-.7H23.39a.7.7,0,0,0,0,1.4h1.36A.7.7,0,0,0,25.45,16.68Z"/><path class="cls-1" d="M27.43,16.68a.7.7,0,0,0,.7.7h1.36a.7.7,0,0,0,0-1.4H28.13A.7.7,0,0,0,27.43,16.68Z"/><path class="cls-1" d="M18.65,17.38H20A.7.7,0,0,0,20,16H18.65a.7.7,0,0,0,0,1.4Z"/><path class="cls-1" d="M23.39,7.76h1.36a.7.7,0,0,0,0-1.4H23.39a.7.7,0,1,0,0,1.4Z"/><path class="cls-1" d="M21,12.57h1.36a.7.7,0,0,0,0-1.4H21a.7.7,0,0,0,0,1.4Z"/><path class="cls-1" d="M25.06,11.87a.7.7,0,0,0,.7.7h1.36a.7.7,0,0,0,0-1.4H25.76A.7.7,0,0,0,25.06,11.87Z"/><path class="cls-1" d="M39.78,18.09A1.65,1.65,0,0,0,38.23,17c-.43,0-.47,0-5.15,2.57-1.24-11.67-5.43-17-8.93-17-4.91,0-8.21,9-9,18-2.3-1.34-2.57-1.34-2.89-1.34a1.64,1.64,0,0,0-1,2.89c2.34,1.93,2.7,4.56,2.8,13.25.09,7.59,6.2,11.4,9.75,12.48a4.11,4.11,0,0,0,1.11.14c3.18-.57,9.3-4.08,9.69-13.23.41-9.65,2.17-12.89,4.67-14.79A1.63,1.63,0,0,0,39.78,18.09ZM24.15,4.21c3.29,0,6.48,7.11,7.34,16.26a22.76,22.76,0,0,0-7.81,7.83,21.81,21.81,0,0,0-6.95-6.84C17.43,12,20.76,4.21,24.15,4.21ZM15.62,35.29c-.1-8.71-.44-12-3.39-14.49h0s1.18.57,3.65,2.05a20.35,20.35,0,0,1,6.93,7.09A20.08,20.08,0,0,0,21.3,43a10.87,10.87,0,0,0,.84,2.33A11.25,11.25,0,0,1,15.62,35.29ZM38.23,18.61c-3.27,2.48-4.92,6.71-5.32,16-.43,10.27-8.35,11.7-8.35,11.7a12.7,12.7,0,0,1-1.67-3.67c-1.88-8.42,2.42-17,10.34-21.34,2.78-1.52,5-2.71,5-2.71Z"/></svg>