<svg id="Layer_1" data-name="Layer 1" xmlns="http://www.w3.org/2000/svg" viewBox="0 0 50.46 50.46"><defs><style>.cls-1{fill:#a7a9ac;}</style></defs><title>maletin check-negativo</title><path class="cls-1" d="M39.46,33.62a7.06,7.06,0,1,0,7.06,7.06A7.07,7.07,0,0,0,39.46,33.62Zm-.79,10.62h0L35,39.73l1.28-1.13,2.29,2.3,4-3.57,1.22,1.06Z"/><path class="cls-1" d="M32.69,24.41V35a8.84,8.84,0,0,1,6.67-3.15V20.53a13.88,13.88,0,0,1-2.19,1.85A14.16,14.16,0,0,1,32.69,24.41Z"/><path class="cls-1" d="M39.36,17.5V13.74a3.59,3.59,0,0,0-3.59-3.59H30.25V6.7a4,4,0,0,0-4-4H16.82a3.76,3.76,0,0,0-3.76,3.77v3.66H7.53a3.6,3.6,0,0,0-3.59,3.58v4.36a11.73,11.73,0,0,0,2.93,2.85,12,12,0,0,0,5,1.9,18.35,18.35,0,0,0,3.11.1c.83,0,1.9,0,3.27,0V21h6.53v1.9c1.28,0,2.3,0,3.1,0a18.16,18.16,0,0,0,3.1-.1,11.88,11.88,0,0,0,5-1.9A11,11,0,0,0,39.36,17.5ZM28.22,10.15H15.08V6.7a1.68,1.68,0,0,1,1.74-1.61h9.65A1.69,1.69,0,0,1,28.22,6.7Z"/><path class="cls-1" d="M3.94,20.9V35.35a3.44,3.44,0,0,0,3.44,3.44h4V24.61a13.68,13.68,0,0,1-5.57-2.23A15,15,0,0,1,3.94,20.9Z"/><path class="cls-1" d="M24.82,24.81v.91A2.86,2.86,0,0,1,22,28.57h-.83a2.86,2.86,0,0,1-2.85-2.85v-.91H13.13v14H30.89V24.72l-1.17.09Z"/><path class="cls-1" d="M22,26.94a1.22,1.22,0,0,0,1.22-1.22v-3H19.92v3a1.22,1.22,0,0,0,1.22,1.22Z"/></svg>