<svg id="Layer_1" data-name="Layer 1" xmlns="http://www.w3.org/2000/svg" viewBox="0 0 50.46 50.46"><defs><style>.cls-1{fill:#65b4e1;}</style></defs><title>mano</title><path class="cls-1" d="M35.43,13.14a2.86,2.86,0,0,0-.84.13V13A3.32,3.32,0,0,0,31.45,9.5a2.88,2.88,0,0,0-1.36.34,3.08,3.08,0,0,0-2.62-1.56,3.22,3.22,0,0,0-3,2.59,2.86,2.86,0,0,0-.94-.16,3.32,3.32,0,0,0-3.14,3.47V26.77a9.29,9.29,0,0,0-3.2-2.53,4.63,4.63,0,0,0-1-.3,3.57,3.57,0,0,0-.73-.07,4.2,4.2,0,0,0-1.5.27,2.31,2.31,0,0,0-.82.46,4.75,4.75,0,0,0-.73.72,2.16,2.16,0,0,0-.47,1.77A2.34,2.34,0,0,0,13,28.7l.08,0,.29.19a6.15,6.15,0,0,1,.79.58c1.11.93,2,2.66,3.24,5.06l.14.28.76,1.46A12.07,12.07,0,0,0,22.9,40.8a12.58,12.58,0,0,0,5.75,1.37l1.54-.06c5.43-.47,8.4-3.66,8.4-9.1V16.61A3.33,3.33,0,0,0,35.43,13.14ZM36.78,33c0,4.87-2.69,7.35-8,7.36h-.13a10.87,10.87,0,0,1-4.92-1.16,10.24,10.24,0,0,1-3.81-3.74L19,33.76c-1.33-2.59-2.3-4.46-3.69-5.63a7.73,7.73,0,0,0-1-.7l-.27-.18-.07,0-.1-.06a.54.54,0,0,1-.27-.37.37.37,0,0,1,.07-.31,1.92,1.92,0,0,1,.74-.59,1.82,1.82,0,0,1,.92-.21,1.75,1.75,0,0,1,.37,0,2.85,2.85,0,0,1,.64.19,10,10,0,0,1,3.46,3.17c.78,1,1.4,1.77,2,1.77h0a.36.36,0,0,0,.25-.1l0,0-.08-2.08V14.18a1.53,1.53,0,0,1,1.34-1.67,1.53,1.53,0,0,1,1.34,1.67V23.3a.66.66,0,1,0,1.3,0V11.75a1.53,1.53,0,0,1,1.34-1.67,1.53,1.53,0,0,1,1.34,1.67V23.3a.66.66,0,1,0,1.3,0V13a1.53,1.53,0,0,1,1.34-1.67A1.53,1.53,0,0,1,32.79,13V24.52a.66.66,0,1,0,1.3,0V16.61a1.53,1.53,0,0,1,1.34-1.67,1.54,1.54,0,0,1,1.35,1.67Z"/></svg>