<svg id="Layer_1" data-name="Layer 1" xmlns="http://www.w3.org/2000/svg" viewBox="0 0 50.46 50.46"><defs><style>.cls-1{fill:#65b4e1;}</style></defs><title>marcador ubicacion 1</title><path class="cls-1" d="M25.38,9.93a9,9,0,0,0-9.13,8.71h0a9,9,0,0,0,2.55,6.31A8.87,8.87,0,0,0,25,27.65h.17a8.86,8.86,0,0,0,.16-17.72Zm4.56,13.72a6.85,6.85,0,0,1-4.82,1.9,6.77,6.77,0,0,1-6.65-6.88,6.92,6.92,0,0,1,2.06-4.84,6.8,6.8,0,0,1,4.7-2h.12a7.07,7.07,0,0,1,6.65,7A6.92,6.92,0,0,1,29.93,23.65Z"/><path class="cls-1" d="M25.47,4.72A13.86,13.86,0,0,0,15.29,8.78a13.64,13.64,0,0,0-4.13,9.79c0,10.21,12.25,25.55,12.77,26.2l.79,1,.82-1C26.1,44.14,39.3,28.7,39.3,19A14.08,14.08,0,0,0,25.47,4.72Zm-.69,37.72c-2.72-3.58-11.52-15.81-11.52-23.87a11.56,11.56,0,0,1,3.5-8.29,12,12,0,0,1,8.46-3.47h.21A12,12,0,0,1,37.2,19C37.2,26.61,27.67,38.89,24.78,42.44Z"/><circle class="cls-1" cx="25.23" cy="18.79" r="2.93"/></svg>