<svg id="Layer_1" data-name="Layer 1" xmlns="http://www.w3.org/2000/svg" viewBox="0 0 50.46 50.46"><defs><style>.cls-1{fill:#65b4e1;}</style></defs><title>marcador temporal</title><polygon class="cls-1" points="25.67 13.16 24.58 13.19 24.25 18.6 20.65 18.97 20.66 20.06 26.06 20.32 26.06 20.3 26.2 20.32 25.67 13.16"/><path class="cls-1" d="M25.46,5.14a13.82,13.82,0,0,0-10,4,13.44,13.44,0,0,0-4.07,9.64C11.37,28.87,23.44,44,24,44.62l.43.54a.45.45,0,0,0,.34.17h0a.45.45,0,0,0,.34-.16l.45-.52c.55-.64,13.56-15.86,13.56-25.42A13.87,13.87,0,0,0,25.46,5.14Zm-.68,37.2C22.23,39,13.41,26.75,13.41,18.79a11.4,11.4,0,0,1,3.46-8.18,11.84,11.84,0,0,1,8.35-3.42h.21A11.84,11.84,0,0,1,37,19.22C37,26.74,27.52,39,24.78,42.34Z"/><path class="cls-1" d="M31.5,12.94a8.67,8.67,0,0,0-6.13-2.66,8.53,8.53,0,0,0-6.21,2.45,8.73,8.73,0,0,0,5.92,15h.15a8.73,8.73,0,0,0,6.27-14.8ZM29.88,23.81a6.65,6.65,0,0,1-4.64,1.88h-.12a6.68,6.68,0,0,1,.11-13.36h.12a6.68,6.68,0,0,1,4.53,11.48Z"/></svg>