<svg id="Layer_1" data-name="Layer 1" xmlns="http://www.w3.org/2000/svg" viewBox="0 0 50.46 50.46"><defs><style>.cls-1{fill:#65b4e1;}</style></defs><title>mecedora</title><path class="cls-1" d="M42.41,35.77a1.46,1.46,0,0,0-1.07-.46,1.48,1.48,0,0,0-1,.41,20.44,20.44,0,0,1-3.42,2.6l-.88.53-.41-.94-3-6.77-.42-1,1-.28a8.44,8.44,0,0,1,2.23-.36,3.12,3.12,0,0,1,2.65,1.22A1.48,1.48,0,0,0,40.45,29a5.85,5.85,0,0,0-5-2.41,13,13,0,0,0-4.15.79l-.27.09-.06,0h-.06a24.35,24.35,0,0,1-5.07.59,13.58,13.58,0,0,1-4.32-.64l-.07,0-.07,0,0,0-.09,0h0a7.2,7.2,0,0,1-4.45-4L15.88,21l-.36-.94,1-.25c4.37-1.13,6.94-1.71,8.85-1.71,2.52,0,3.85,1,5.54,2.95a.88.88,0,1,0,1.33-1.16c-2.25-2.59-4.09-3.56-6.8-3.56-2.43,0-5.58.78-9.77,1.87l-.78.2-.29-.75L10.5,7.06a1.49,1.49,0,0,0-1.38-.95,1.48,1.48,0,0,0-1.38,2L13.95,24.2v.06a9.68,9.68,0,0,0,4.6,5.15l.72.4-.33.75-3.19,7.22-.42,1-.88-.55a20.44,20.44,0,0,1-3.19-2.46,1.48,1.48,0,1,0-2,2.15A23.93,23.93,0,0,0,25.8,44.35a23.93,23.93,0,0,0,16.55-6.48A1.48,1.48,0,0,0,42.41,35.77ZM33.56,40a21.8,21.8,0,0,1-15.76-.1l-.87-.35.38-.85,3.34-7.57.3-.69.73.18a17.29,17.29,0,0,0,4.05.45,26,26,0,0,0,4-.34l.68-.11.28.63,3.33,7.53.38.87Z"/></svg>