<svg id="Layer_1" data-name="Layer 1" xmlns="http://www.w3.org/2000/svg" viewBox="0 0 50.46 50.46"><defs><style>.cls-1{fill:#65b4e1;}</style></defs><title>medico</title><path class="cls-1" d="M38,32.94a18.82,18.82,0,0,0-4.75-6.56,1,1,0,1,0-1.23,1.45,16.85,16.85,0,0,1,4.15,5.67,13.38,13.38,0,0,1,1.17,3.61,19.75,19.75,0,0,1-11.62,3.78h-.1V32.35c0-.31-.13-.55-.44-.55s-.44.25-.44.55v8.47a19.46,19.46,0,0,1-11.63-3.74,12.72,12.72,0,0,1,1.2-3.72,16.44,16.44,0,0,1,4.34-5.76,1,1,0,0,0-1.2-1.48,18.5,18.5,0,0,0-5,6.67c-.63,1.38-1.6,4-1.23,5.09a1,1,0,0,0,.33.45A21.7,21.7,0,0,0,24.7,42.72h1.06a21.7,21.7,0,0,0,13.12-4.39,1,1,0,0,0,.33-.45C39.54,36.89,38.79,34.6,38,32.94Z"/><path class="cls-1" d="M31.11,31.53a.56.56,0,0,0-.55.55h-1.7c-.31,0-.56.37-.56.68v3.76a.56.56,0,0,0,.41.55l2.28.65.15,0,.15,0,2.22-.65a.52.52,0,0,0,.35-.55V32.77c0-.31-.14-.68-.45-.68H31.67S31.42,31.53,31.11,31.53ZM33,33.26V36.1l-1.76.49-1.76-.49V33.26h1.17v1.47a.59.59,0,0,0,1.17,0V33.26Z"/><path class="cls-1" d="M25.23,27.81a8.26,8.26,0,0,0,8.24-8.25c0-1.54-.05-4.19-.05-4.19h0s0,0,0-.05l-.57-6.7a1,1,0,0,0-.95-.87H18.59a1,1,0,0,0-.95.88l-.57,6.79s0,0,0,.05h0c0,.11-.08,2.6-.08,4.11A8.25,8.25,0,0,0,25.23,27.81Zm-5.76-18H31l.41,4.74-12.38.11Zm-.52,6.64,12.59-.07c0,.9,0,2.26,0,3.21a6.34,6.34,0,1,1-12.68,0C18.89,18.65,18.92,17.32,18.94,16.44Z"/><path class="cls-1" d="M26.55,11.56h-.89v-.75c0-.31-.13-.55-.44-.55s-.44.25-.44.55v.75h-.87a.59.59,0,0,0,0,1.17h.87v.72c0,.31.13.55.44.55s.44-.25.44-.55v-.72h.89a.59.59,0,0,0,0-1.17Z"/></svg>