<svg id="Layer_1" data-name="Layer 1" xmlns="http://www.w3.org/2000/svg" viewBox="0 0 50.46 50.46"><defs><style>.cls-1{fill:#65b4e1;}</style></defs><title>nido</title><path class="cls-1" d="M25.23,44.49A19.26,19.26,0,1,1,44.49,25.23,19.28,19.28,0,0,1,25.23,44.49Zm0-36.79A17.54,17.54,0,1,0,42.77,25.23,17.56,17.56,0,0,0,25.23,7.69Z"/><path class="cls-1" d="M17.18,20.7h-.92a.36.36,0,0,0-.36.36V26.7l-4.61-5.86A.36.36,0,0,0,11,20.7h-.88a.36.36,0,0,0-.36.36v8.33a.36.36,0,0,0,.36.36H11a.36.36,0,0,0,.36-.36V23.6l4.74,6a.36.36,0,0,0,.28.14h.75a.36.36,0,0,0,.36-.36V21.06A.36.36,0,0,0,17.18,20.7Z"/><rect class="cls-1" x="19.25" y="20.7" width="1.66" height="9.05" rx="0.36" ry="0.36"/><path class="cls-1" d="M25.89,20.7H23a.36.36,0,0,0-.36.36v8.33a.36.36,0,0,0,.36.36h2.89a4.53,4.53,0,1,0,0-9ZM29,25.25a2.88,2.88,0,0,1-3.09,2.91h-1.6V22.29h1.6A2.89,2.89,0,0,1,29,25.25Z"/><path class="cls-1" d="M36.1,20.56a4.59,4.59,0,0,0-4.62,4.67v0a4.52,4.52,0,0,0,4.6,4.64,4.6,4.6,0,0,0,4.62-4.69A4.52,4.52,0,0,0,36.1,20.56ZM39,25.23v0a2.92,2.92,0,0,1-2.9,3.06,3,3,0,0,1-2.93-3.11,2.92,2.92,0,1,1,5.83,0Z"/></svg>