<svg id="Layer_1" data-name="Layer 1" xmlns="http://www.w3.org/2000/svg" viewBox="0 0 50.46 50.46"><defs><style>.cls-1{fill:#0eb5e3;}</style></defs><title>nube bajar datos</title><path class="cls-1" d="M18.69,38.35l5.9,5.9a.91.91,0,0,0,1.28,0l5.9-5.9a.9.9,0,0,0,0-1.27.91.91,0,0,0-1.28,0l-4.36,4.36V25.22a.9.9,0,0,0-1.8,0V41.44L20,37.08a.9.9,0,0,0-1.28,1.27Z"/><path class="cls-1" d="M40.54,16.16h-.26v-.11A7.79,7.79,0,0,0,32.5,8.28a7.7,7.7,0,0,0-5.78,2.58A11.82,11.82,0,0,0,5.36,19.11,8.16,8.16,0,0,0,.58,26.54,8.65,8.65,0,0,0,9,35H22.46v-1.8H9a6.8,6.8,0,0,1-6.65-6.61,6.37,6.37,0,0,1,4.26-6,.9.9,0,0,0,.59-1,10,10,0,0,1,18.64-6.65.89.89,0,0,0,.77.46.87.87,0,0,0,.78-.42,6,6,0,0,1,11.06,3.15,6.29,6.29,0,0,1-.06.88.89.89,0,0,0,.2.72.91.91,0,0,0,.67.32h.61c.21,0,.42,0,.64,0a7.55,7.55,0,0,1,7.54,7.55,7.87,7.87,0,0,1-7.83,7.65H27.94V35H40.25a9.72,9.72,0,0,0,9.63-9.45A9.36,9.36,0,0,0,40.54,16.16Z"/></svg>