<svg id="Layer_1" data-name="Layer 1" xmlns="http://www.w3.org/2000/svg" viewBox="0 0 50.46 50.46"><defs><style>.cls-1{fill:#0eb5e3;}</style></defs><title>nube</title><path class="cls-1" d="M9,39.72a8.64,8.64,0,0,1-8.45-8.4,8.16,8.16,0,0,1,4.78-7.43,12,12,0,0,1-.08-1.33,11.84,11.84,0,0,1,21.44-6.92,7.7,7.7,0,0,1,5.78-2.58,7.79,7.79,0,0,1,7.78,7.78V21h.26a9.36,9.36,0,0,1,9.34,9.35,9.72,9.72,0,0,1-9.63,9.45Zm8.09-27.2A10.05,10.05,0,0,0,7.23,24.3a.9.9,0,0,1-.59,1,6.37,6.37,0,0,0-4.26,6A6.79,6.79,0,0,0,9,37.92l31.22,0a7.87,7.87,0,0,0,7.83-7.65,7.55,7.55,0,0,0-7.54-7.55c-.22,0-.43,0-.64,0h-.61a.91.91,0,0,1-.67-.32.89.89,0,0,1-.2-.72,6.4,6.4,0,0,0,.06-.88,6,6,0,0,0-11.06-3.15.87.87,0,0,1-.78.42.91.91,0,0,1-.77-.46A10.06,10.06,0,0,0,17.12,12.52Z"/></svg>