<svg id="Layer_1" data-name="Layer 1" xmlns="http://www.w3.org/2000/svg" viewBox="0 0 50.46 50.46"><defs><style>.cls-1{fill:#65b4e1;}</style></defs><title>olla</title><path class="cls-1" d="M43.91,25.12a1.37,1.37,0,0,0-1.42-1.23h-3v-4H10.94v4H8a1.37,1.37,0,0,0-1.42,1.23A4.94,4.94,0,0,0,9.28,30.3l.24.12a5.38,5.38,0,0,0,1.41.5v5a4.66,4.66,0,0,0,4.65,4.65H34.87a4.66,4.66,0,0,0,4.65-4.65v-5a5.39,5.39,0,0,0,1.41-.5l.24-.12A4.94,4.94,0,0,0,43.91,25.12Zm-33,4.23a5.05,5.05,0,0,1-.76-.31l-.25-.12A3.42,3.42,0,0,1,8,25.42h2.89ZM38,35.92a3.14,3.14,0,0,1-3.13,3.13H15.59a3.14,3.14,0,0,1-3.13-3.13V21.4H38Zm2.53-7-.25.12a5,5,0,0,1-.75.31V25.42h2.89A3.43,3.43,0,0,1,40.53,28.92Z"/><path class="cls-1" d="M39.52,18.16c0-2.12-2-3.73-5.93-4.78a35.65,35.65,0,0,0-6.62-1v-.43a2.05,2.05,0,1,0-4.1,0v.45c-4.62.33-11.93,1.7-11.93,5.78v.94H39.52ZM24.39,11.94a.53.53,0,1,1,1.07,0v.37H24.39ZM12.56,17.58c.54-1.43,3-2.31,4.52-2.73a33.16,33.16,0,0,1,8-1,35.37,35.37,0,0,1,8.15,1c1.59.42,4.13,1.3,4.69,2.73Z"/></svg>