<svg id="Layer_1" data-name="Layer 1" xmlns="http://www.w3.org/2000/svg" viewBox="0 0 50.46 50.46"><defs><style>.cls-1{fill:#12b5e1;}</style></defs><title>open id</title><path class="cls-1" d="M48.25,25.43l-2.72-6.62a1.62,1.62,0,0,0-1-.94,1.74,1.74,0,0,0-.45-.06,1.65,1.65,0,0,0-.93.29l-1.46,1a29.33,29.33,0,0,0-10.06-3.34V5.52a1.62,1.62,0,0,0-.83-1.41,1.65,1.65,0,0,0-.78-.2,1.61,1.61,0,0,0-.85.24L21.9,8.64A1.62,1.62,0,0,0,21.14,10v5.76A31,31,0,0,0,8.53,20.2c-4.15,2.73-6.44,6.31-6.44,10.07,0,11.8,18,15.84,20.23,16.27a1,1,0,0,0,.55-.06,6.65,6.65,0,0,0,1.06-.56l6.9-4.29a1.61,1.61,0,0,0,.76-1.37V23.35a22.1,22.1,0,0,1,2.65,1l-.56.39a1.62,1.62,0,0,0,.93,2.93H46.76a1.61,1.61,0,0,0,1.34-.72A1.59,1.59,0,0,0,48.25,25.43ZM21.14,38c-6.1-1.35-9.62-3.73-9.73-6.67-.11-3.28,4-7,9.23-8.27l.5-.1Zm0-16.68c-.29.06-.58.1-.88.18C9.63,24.09,3,35.79,21.14,39.63v5C16.49,43.5,3.7,39.35,3.7,30.27c0-6.43,7.94-11.5,17.44-12.88Zm8.84,19-7.23,4.21h0V10L30,5.52Zm4.63-14.21,2.68-1.89a21.3,21.3,0,0,0-5.7-2.47V17.43A27.39,27.39,0,0,1,41.73,21L44,19.42l2.72,6.63Z"/></svg>