<svg id="Layer_1" data-name="Layer 1" xmlns="http://www.w3.org/2000/svg" viewBox="0 0 50.46 50.46"><defs><style>.cls-1{fill:#65b4e1;}</style></defs><title>paisaje hidrico</title><circle class="cls-1" cx="29.23" cy="10.78" r="1.12" transform="translate(0.94 23.83) rotate(-45)"/><path class="cls-1" d="M16.08,14.69h.37c.3,0,.55-.17.55-.38V13.16c0-.21-.25-.38-.55-.38h-.37c-.3,0-.55.17-.55.38v1.15C15.53,14.52,15.78,14.69,16.08,14.69Z"/><path class="cls-1" d="M18.63,14.69H19c.3,0,.55-.17.55-.38V13.16c0-.21-.25-.38-.55-.38h-.37c-.3,0-.55.17-.55.38v1.15C18.08,14.52,18.33,14.69,18.63,14.69Z"/><path class="cls-1" d="M15.53,17.41c0,.21.25.38.55.38h.37c.3,0,.55-.17.55-.38V16.26c0-.21-.25-.38-.55-.38h-.37c-.3,0-.55.17-.55.38Z"/><path class="cls-1" d="M18.05,17.39c0,.21.25.38.55.38H19c.3,0,.55-.17.55-.38V16.24c0-.21-.25-.38-.55-.38H18.6c-.3,0-.55.17-.55.38Z"/><path class="cls-1" d="M6.1,27.14a1,1,0,0,1,1-1h5.36v7.45a.87.87,0,1,0,1.75,0V12.31a.85.85,0,0,1,.85-.85h5a.85.85,0,0,1,.85.85v11.2a.87.87,0,0,0,1.75,0V15.16H25.9a.87.87,0,0,0,.87-.87V8.86l2.44-3.55,2.4,3.61v5.37a.87.87,0,0,0,.87.87h3.35V30.48a.87.87,0,0,0,1.75,0v-8h5.8a.91.91,0,0,1,.91.91v12A6.12,6.12,0,0,1,46,36.3V23.41a2.66,2.66,0,0,0-2.66-2.66h-5.8V14.29a.87.87,0,0,0-.87-.87H33.36V8.66a.87.87,0,0,0-.15-.48L30,3.27a.87.87,0,0,0-.72-.39.8.8,0,0,0-.73.38L25.18,8.09a.87.87,0,0,0-.15.49v4.83H22.64V12.31A2.6,2.6,0,0,0,20,9.71H15a2.6,2.6,0,0,0-2.6,2.6V24.43H7.07a2.72,2.72,0,0,0-2.71,2.71v9.61A6.64,6.64,0,0,1,6.1,35.58Z"/><path class="cls-1" d="M39.44,25.73h.37c.3,0,.55-.17.55-.38V24.2c0-.21-.25-.38-.55-.38h-.37c-.3,0-.55.17-.55.38v1.15C38.89,25.56,39.14,25.73,39.44,25.73Z"/><path class="cls-1" d="M42,25.73h.37c.3,0,.55-.17.55-.38V24.2c0-.21-.25-.38-.55-.38H42c-.3,0-.55.17-.55.38v1.15C41.44,25.56,41.69,25.73,42,25.73Z"/><path class="cls-1" d="M38.89,28.45c0,.21.25.38.55.38h.37c.3,0,.55-.17.55-.38V27.3c0-.21-.25-.38-.55-.38h-.37c-.3,0-.55.17-.55.38Z"/><path class="cls-1" d="M41.42,28.42c0,.21.25.38.55.38h.37c.3,0,.55-.17.55-.38V27.27c0-.21-.25-.38-.55-.38H42c-.3,0-.55.17-.55.38Z"/><path class="cls-1" d="M7.81,29.37h.37c.3,0,.55-.17.55-.38V27.84c0-.21-.25-.38-.55-.38H7.81c-.3,0-.55.17-.55.38V29C7.26,29.2,7.51,29.37,7.81,29.37Z"/><path class="cls-1" d="M10.36,29.37h.37c.3,0,.55-.17.55-.38V27.84c0-.21-.25-.38-.55-.38h-.37c-.3,0-.55.17-.55.38V29C9.81,29.2,10.06,29.37,10.36,29.37Z"/><path class="cls-1" d="M7.26,32.09c0,.21.25.38.55.38h.37c.3,0,.55-.17.55-.38V30.94c0-.21-.25-.38-.55-.38H7.81c-.3,0-.55.17-.55.38Z"/><path class="cls-1" d="M9.79,32.07c0,.21.25.38.55.38h.37c.3,0,.55-.17.55-.38V30.92c0-.21-.25-.38-.55-.38h-.37c-.3,0-.55.17-.55.38Z"/><path class="cls-1" d="M5.17,39.06l-.33.34a5.63,5.63,0,0,1,1.71,1.07l.06-.06c.71-.75,1.15-1.18,2.08-1.18a2,2,0,0,1,1.4.52,6.28,6.28,0,0,1,.52.49,5.27,5.27,0,0,1,1.8-1l-.2-.2A4.6,4.6,0,0,0,9,37.28l-.29,0A4.51,4.51,0,0,0,5.17,39.06Z"/><path class="cls-1" d="M17.72,40.45l0,0,.06-.07.38-.38a2.47,2.47,0,0,1,1.17-.74l.24,0,.27,0,.25,0,.15,0a2.08,2.08,0,0,1,1,.48,6.22,6.22,0,0,1,.52.49l0,0,0,0,.26-.2a5.15,5.15,0,0,1,1.54-.78l-.2-.2a5.37,5.37,0,0,0-2.17-1.56l-.17,0a3.57,3.57,0,0,0-.49-.14,4.47,4.47,0,0,0-.69-.05h-.05a4.51,4.51,0,0,0-3.52,1.8L16,39.4a5.64,5.64,0,0,1,1.71,1.07Z"/><path class="cls-1" d="M38.39,39.4a5.59,5.59,0,0,1,1.65,1l.06,0,.06-.06c.71-.75,1.15-1.18,2.09-1.18a2.45,2.45,0,0,1,1.93,1,5.28,5.28,0,0,1,1.8-1l-.2-.21a4.51,4.51,0,0,0-3.52-1.8,4.36,4.36,0,0,0-.79.08,4.85,4.85,0,0,0-2.73,1.72Z"/><path class="cls-1" d="M47.62,40.34h0a3.93,3.93,0,0,0-2.5.83,8.48,8.48,0,0,0-1,1l-.4.41a4.36,4.36,0,0,1-.37.33,2,2,0,0,1-.81.39,2.32,2.32,0,0,1-.51.05,2,2,0,0,1-1.45-.56,8.14,8.14,0,0,1-.64-.62c-.19-.2-.39-.42-.62-.62l-.16-.14a4,4,0,0,0-2.61-1H36.4a4.11,4.11,0,0,0-1.43.24,4,4,0,0,0-1.06.59,8.49,8.49,0,0,0-1,1l-.4.4-.11.11a2.21,2.21,0,0,1-1.1.62,2.41,2.41,0,0,1-.44,0,2.05,2.05,0,0,1-1.41-.56,8.15,8.15,0,0,1-.64-.62c-.19-.2-.39-.42-.62-.62L28,41.37a4,4,0,0,0-2.74-1h-.06a3.93,3.93,0,0,0-2.49.83c-.14.11-.28.22-.4.34s-.43.43-.63.63-.27.27-.41.39a2.89,2.89,0,0,1-.9.63l-.18.07a2.26,2.26,0,0,1-.58.07,2,2,0,0,1-1.41-.55h0l-.13-.11c-.16-.15-.33-.32-.51-.52a10.49,10.49,0,0,0-.78-.76,4,4,0,0,0-1.87-1l-.26,0a4.05,4.05,0,0,0-.5,0H14a3.93,3.93,0,0,0-2.42.82c-.14.11-.28.22-.4.34s-.43.43-.63.63-.27.27-.41.39a2.89,2.89,0,0,1-.9.63L9,43.24a2.26,2.26,0,0,1-.59.07A2.05,2.05,0,0,1,7,42.75a8.13,8.13,0,0,1-.64-.62,10.46,10.46,0,0,0-.78-.77,4.09,4.09,0,0,0-1.7-.9,4.18,4.18,0,0,0-1-.14,1,1,0,0,0-1,1,1,1,0,0,0,.46.81,1.16,1.16,0,0,0,.25.13.87.87,0,0,0,.22,0h.06a2,2,0,0,1,1.09.29h0a5.09,5.09,0,0,1,1,.89l.29.31h0a4.22,4.22,0,0,0,3.22,1.49h.05a4.32,4.32,0,0,0,.78-.08l.26-.06A3.78,3.78,0,0,0,10,45l.15-.05h0a5.42,5.42,0,0,0,1.61-1.26h0l.16-.17a4.84,4.84,0,0,1,1-.91,2,2,0,0,1,.47-.2,2.17,2.17,0,0,1,.55-.07,2.12,2.12,0,0,1,.23,0,2.13,2.13,0,0,1,.37.06,1.91,1.91,0,0,1,.41.18l0,0h0a5.09,5.09,0,0,1,1,.89l.29.31a4.22,4.22,0,0,0,3.22,1.49h.05A4.34,4.34,0,0,0,23,43.66l.16-.17A6,6,0,0,1,24,42.7a2.07,2.07,0,0,1,.55-.29,2.12,2.12,0,0,1,.65-.1,2,2,0,0,1,1.2.39,6,6,0,0,1,.86.79l.3.31a4.22,4.22,0,0,0,3.22,1.49h.07a4.34,4.34,0,0,0,3.36-1.63l.16-.17a3.38,3.38,0,0,1,1.45-1.09l.2,0a2.24,2.24,0,0,1,.4-.05,2,2,0,0,1,1,.27,4.82,4.82,0,0,1,1,.91l.29.31a7.32,7.32,0,0,0,.58.54,4,4,0,0,0,2.65,1,4.34,4.34,0,0,0,3.36-1.63l.16-.17c.71-.75,1.16-1.18,2.09-1.18a1,1,0,0,0,.44-.12,1,1,0,0,0,.22-.15,1,1,0,0,0,.17-.2,1,1,0,0,0,.15-.52A1,1,0,0,0,47.62,40.34Z"/><path class="cls-1" d="M27.53,39.06l-.34.34a5.26,5.26,0,0,1,1.17.64,6.67,6.67,0,0,1,.54.43l0,0,0,0,.06-.06c.7-.75,1.15-1.17,2.06-1.18a2.3,2.3,0,0,1,.45,0h0a2.47,2.47,0,0,1,1.2.75l.2.21,0,0,0,0a5.28,5.28,0,0,1,1.8-1l-.2-.21a4.51,4.51,0,0,0-3.52-1.8H31a4.22,4.22,0,0,0-1.15.15A5.1,5.1,0,0,0,27.53,39.06Z"/></svg>