<svg id="Layer_1" data-name="Layer 1" xmlns="http://www.w3.org/2000/svg" viewBox="0 0 50.46 50.46"><defs><style>.cls-1{fill:#65b4e1;}</style></defs><title>paisaje hidrico 2</title><path class="cls-1" d="M19.56,11.57c0-.19-.23-.35-.51-.35h-.34c-.28,0-.51.16-.51.35v1.07c0,.19.23.35.51.35h.34c.28,0,.51-.16.51-.35Z"/><path class="cls-1" d="M21.93,11.57c0-.19-.23-.35-.51-.35h-.34c-.28,0-.51.16-.51.35v1.07c0,.19.23.35.51.35h.34c.28,0,.51-.16.51-.35Z"/><path class="cls-1" d="M19.05,14.09h-.34c-.28,0-.51.16-.51.35v1.07c0,.19.23.35.51.35h.34c.28,0,.51-.16.51-.35V14.45C19.56,14.25,19.33,14.09,19.05,14.09Z"/><path class="cls-1" d="M21.4,14.07h-.34c-.28,0-.51.16-.51.35v1.07c0,.19.23.35.51.35h.34c.28,0,.51-.16.51-.35V14.42C21.91,14.23,21.68,14.07,21.4,14.07Z"/><path class="cls-1" d="M9.45,24.55a.9.9,0,0,1,.9-.9h5V30a.81.81,0,1,0,1.62,0V10.78a.79.79,0,0,1,.79-.79h4.65a.79.79,0,0,1,.79.79V27.71a.81.81,0,1,0,1.62,0V10.78a2.41,2.41,0,0,0-2.41-2.41H17.74a2.41,2.41,0,0,0-2.41,2.41V22h-5a2.52,2.52,0,0,0-2.52,2.52v8.92a6.16,6.16,0,0,1,1.62-1.08Z"/><path class="cls-1" d="M11.89,25.2c0-.19-.23-.35-.51-.35H11c-.28,0-.51.16-.51.35v1.07c0,.19.23.35.51.35h.34c.28,0,.51-.16.51-.35Z"/><path class="cls-1" d="M14.26,25.2c0-.19-.23-.35-.51-.35H13.4c-.28,0-.51.16-.51.35v1.07c0,.19.23.35.51.35h.34c.28,0,.51-.16.51-.35Z"/><path class="cls-1" d="M11.38,27.72H11c-.28,0-.51.16-.51.35v1.07c0,.19.23.35.51.35h.34c.28,0,.51-.16.51-.35V28.07C11.89,27.88,11.66,27.72,11.38,27.72Z"/><path class="cls-1" d="M13.72,27.7h-.34c-.28,0-.51.16-.51.35v1.07c0,.19.23.35.51.35h.34c.28,0,.51-.16.51-.35V28.05C14.23,27.86,14,27.7,13.72,27.7Z"/><path class="cls-1" d="M14.27,34.11a17.23,17.23,0,0,1,4.86-.49,16.37,16.37,0,0,0,6.38-.95,12.44,12.44,0,0,0,4.65-3.26,8.51,8.51,0,0,1,3.79-2.57,12.66,12.66,0,0,1,7,.08.84.84,0,1,0,.55-1.59,14.16,14.16,0,0,0-8-.1,10.12,10.12,0,0,0-4.49,3A10.74,10.74,0,0,1,24.9,31.1a14.79,14.79,0,0,1-5.78.83,18.84,18.84,0,0,0-5.3.55A12.13,12.13,0,0,0,7,37.23a.84.84,0,1,0,1.43.89A10.51,10.51,0,0,1,14.27,34.11Z"/><path class="cls-1" d="M43.09,29.34a12,12,0,0,0-8.14-.71,11.43,11.43,0,0,0-4.67,3A12.55,12.55,0,0,1,26,34.5a13.63,13.63,0,0,1-5.72.73,17.26,17.26,0,0,0-5.35.47,9.66,9.66,0,0,0-6.29,5.24.84.84,0,1,0,1.56.63,8,8,0,0,1,5.17-4.25,15.67,15.67,0,0,1,4.87-.41,15.19,15.19,0,0,0,6.37-.84,14.14,14.14,0,0,0,4.8-3.22,9.79,9.79,0,0,1,4-2.61,10.42,10.42,0,0,1,6.89.6.84.84,0,0,0,.76-1.5Z"/><path class="cls-1" d="M29.79,18.6a3.13,3.13,0,0,0,2,1.59V24.1a.47.47,0,0,0,.47.47h.51a.47.47,0,0,0,.47-.47V20.24a3.13,3.13,0,0,0,2.16-1.62,3.13,3.13,0,0,0,2-5.4A3.13,3.13,0,0,0,32.67,10,3.13,3.13,0,0,0,28,13.22a3.13,3.13,0,0,0,1.8,5.39ZM29.1,14a.65.65,0,0,0,.25-.74,1.82,1.82,0,0,1,2.9-2,.65.65,0,0,0,.84,0,1.82,1.82,0,0,1,2.9,2,.65.65,0,0,0,.25.74,1.82,1.82,0,0,1-1,3.32H35a.65.65,0,0,0-.69.44,1.79,1.79,0,0,1-1.11,1.13v-1a.47.47,0,0,0-.47-.47h-.51a.47.47,0,0,0-.47.47v.92a1.89,1.89,0,0,1-.91-1.07.71.71,0,0,0-.62-.5h0s0,.06-.07.06a1.78,1.78,0,0,1-1.82-1.77A1.83,1.83,0,0,1,29.1,14Z"/></svg>