<svg id="Layer_1" data-name="Layer 1" xmlns="http://www.w3.org/2000/svg" viewBox="0 0 50.46 50.46"><defs><style>.cls-1{fill:#12b5e1;}</style></defs><title>pera</title><path class="cls-1" d="M22.59,20.32a.75.75,0,0,0-1,.29,6,6,0,0,0-.65,3.69.76.76,0,0,0,.74.65h.11a.75.75,0,0,0,.64-.85,4.56,4.56,0,0,1,.48-2.75A.76.76,0,0,0,22.59,20.32Z"/><path class="cls-1" d="M22.86,18.31a.75.75,0,0,0,.19,1.48.69.69,0,0,0,.2,0h.07a.74.74,0,0,0,.5-.92A.8.8,0,0,0,22.86,18.31Z"/><path class="cls-1" d="M25.14,11.85a6.23,6.23,0,0,0,.83,0,8.41,8.41,0,0,0,5.18-1.61,9,9,0,0,0,2.76-5.57.83.83,0,0,0-.73-.9,8.9,8.9,0,0,0-6,1.58h0A8.81,8.81,0,0,0,24.41,11,.82.82,0,0,0,25.14,11.85Zm3.07-5.18h0A6.57,6.57,0,0,1,32.1,5.44,6.57,6.57,0,0,1,30.1,9a6.57,6.57,0,0,1-3.89,1.24A6.56,6.56,0,0,1,28.21,6.67Z"/><path class="cls-1" d="M35.38,26.58c-.47-.49-1.05-3-1.05-4.58,0-5.52-3.49-8.94-9.1-8.94s-9.1,3.42-9.1,8.91c0,1.59-.58,4.12-1.06,4.62a11.19,11.19,0,0,0-3.57,8.08c0,6.62,6.16,12,13.73,12S39,41.29,39,34.67A11.2,11.2,0,0,0,35.38,26.58ZM25.23,44.82c-6.55,0-11.86-4.54-11.86-10.15a9.3,9.3,0,0,1,3-6.74C17.46,26.88,18,23.51,18,22v0c0-4.93,3.24-7,7.24-7s7.24,2.12,7.24,7v0c0,1.51.53,4.88,1.62,5.93a9.3,9.3,0,0,1,3,6.74C37.09,40.28,31.78,44.82,25.23,44.82Z"/></svg>