<svg id="Layer_1" data-name="Layer 1" xmlns="http://www.w3.org/2000/svg" viewBox="0 0 50.46 50.46"><defs><style>.cls-1{fill:#12b5e1;}</style></defs><title>pescado</title><path class="cls-1" d="M48.09,31.54l-3-6.31,3-6.31A.92.92,0,0,0,48,18a.94.94,0,0,0-.78-.41s-.62,0-.92.05c-4.75.47-8.6,4.33-10.15,6.12-2.22-2.67-9.33-10.3-18-10.3C7.84,13.5,2.59,24.38,2.37,24.85a.92.92,0,0,0,0,.76C2.59,26.08,7.84,37,18.21,37c8.64,0,15.75-7.63,18-10.3,1.58,1.82,5.57,5.81,10.44,6.15l.64,0h0a.9.9,0,0,0,.81-1.29ZM18.21,35.16c-8.19,0-13-8.06-14-9.93,1-1.87,5.8-9.93,14-9.93S33.27,23.09,35,25.23C33.27,27.37,26.31,35.16,18.21,35.16Zm19.12-9.93c1.15-1.36,4.47-4.9,8.45-5.65l-2.49,5.26a.89.89,0,0,0,0,.78l2.49,5.26C41.81,30.13,38.48,26.59,37.33,25.23Z"/><path class="cls-1" d="M11.05,21a1.09,1.09,0,1,0,1.08,1.08A1.08,1.08,0,0,0,11.05,21Z"/><path class="cls-1" d="M19.86,17.34a.59.59,0,0,0-.6.6.6.6,0,0,0,.6.6,1.92,1.92,0,0,1,.6,3.74.59.59,0,0,0,0,1.13,1.91,1.91,0,0,1,0,3.64.59.59,0,0,0,0,1.13,1.92,1.92,0,0,1-.6,3.74.6.6,0,0,0-.6.6.59.59,0,0,0,.6.6,3.12,3.12,0,0,0,2-5.51A3.06,3.06,0,0,0,23,25.23a3.1,3.1,0,0,0-1.12-2.39A3.06,3.06,0,0,0,23,20.46,3.12,3.12,0,0,0,19.86,17.34Z"/><path class="cls-1" d="M25.54,19.72a.6.6,0,0,0,0,1.2,1.92,1.92,0,0,1,.61,3.74.6.6,0,0,0,0,1.14,1.92,1.92,0,0,1-.61,3.74.6.6,0,0,0,0,1.2,3.13,3.13,0,0,0,3.13-3.13,3.08,3.08,0,0,0-1.12-2.38,3.08,3.08,0,0,0,1.12-2.38A3.13,3.13,0,0,0,25.54,19.72Z"/></svg>