<svg id="Layer_1" data-name="Layer 1" xmlns="http://www.w3.org/2000/svg" viewBox="0 0 50.46 50.46"><defs><style>.cls-1{fill:#12b5e1;}</style></defs><title>pescador</title><path class="cls-1" d="M17.1,8.58l-2,.28a4.24,4.24,0,0,1,.14,1,3.92,3.92,0,0,1-7.84.07l-1.7.23a.56.56,0,0,1-.65-.49A.57.57,0,0,1,5.55,9L7.1,8.82l.29-2.67a2.22,2.22,0,0,1,1.9-2l2.18-.31A2.23,2.23,0,0,1,13.69,5l1.63,2.73L17,7.45a.57.57,0,0,1,.15,1.13Z"/><path class="cls-1" d="M43.12,34.61c.59-.48,2.27-2,2.29-3.89,0-2-1.92-3.2-2.36-3.43,0,0,0,0,0-.06V6.07a.46.46,0,0,0,.19-.2.45.45,0,0,0-.23-.6,11.48,11.48,0,0,0-10.21,0C29.19,7.11,26.39,11.18,25,16.5a1.43,1.43,0,0,0-1.19,1c-.27.83-.66,1-1,1.13-1.56.46-4.71-1.18-7-2.83a3.76,3.76,0,0,0-3.56-1.4A4.06,4.06,0,0,0,8.86,19s.74,3.91,1.43,8A17.38,17.38,0,0,1,9.2,36.66L5.71,44.17a1.74,1.74,0,0,0,.67,2.2,1.61,1.61,0,0,0,1.1.21,1.68,1.68,0,0,0,1.29-1L14.15,34a1.09,1.09,0,0,1,1.56-.51l5.78,3.46.92,8.27a1.69,1.69,0,0,0,2.46,1.22,1.72,1.72,0,0,0,.86-1.82l-1-8.9a1.68,1.68,0,0,0-.7-1.11l-5.35-3.78a2.57,2.57,0,0,1-1.07-2l-.24-3.34a8.47,8.47,0,0,0,4.77,2.29l-.49,2.33a.9.9,0,0,0,.7,1.07.62.62,0,0,0,.19,0,.9.9,0,0,0,.88-.72l.6-2.84a5,5,0,0,0,.5-.11,1.44,1.44,0,0,0,.09-2.73l1-4.63a5.1,5.1,0,0,0,1-1.8,1.45,1.45,0,0,0-.67-1.7c1.33-5.05,4-8.88,7.36-10.63a10.6,10.6,0,0,1,9.39,0V27.23a.19.19,0,0,0,0,.08,4.18,4.18,0,0,0-2.37,3.36c0,1.88,1.63,3.45,2.21,3.94a3.7,3.7,0,0,0-1.36,2.26V37h0a.16.16,0,0,0,.08.16.19.19,0,0,0,.19,0l1.38-.64,1.37.67a.21.21,0,0,0,.19,0,.17.17,0,0,0,.09-.16v-.21A3.75,3.75,0,0,0,43.12,34.61ZM17,20.76c0-.36,0-.63-.05-.82a11.93,11.93,0,0,0,5.28,1.64,5.08,5.08,0,0,0,1.18-.15l-.72,3.47C20.54,24.94,18.53,22.88,17,20.76Zm25.29,9a.3.3,0,1,1,.06-.42A.29.29,0,0,1,42.33,29.74Z"/></svg>