<svg id="Layer_1" data-name="Layer 1" xmlns="http://www.w3.org/2000/svg" viewBox="0 0 50.46 50.46"><defs><style>.cls-1{fill:#65b4e1;}</style></defs><title>planta exotica 2</title><path class="cls-1" d="M25.5,28.54a.44.44,0,0,0-.33.17.39.39,0,0,0,0,.54.31.31,0,0,0,.2.07.44.44,0,0,0,.33-.17.38.38,0,0,0,0-.54A.31.31,0,0,0,25.5,28.54Z"/><path class="cls-1" d="M27.22,19.89a.63.63,0,0,0-.36.12.53.53,0,0,0-.19.72.46.46,0,0,0,.38.18.63.63,0,0,0,.36-.12.53.53,0,0,0,.18-.72A.46.46,0,0,0,27.22,19.89Z"/><path class="cls-1" d="M19.74,22.79a1.09,1.09,0,0,0-.38.07.89.89,0,0,0-.61,1.09.82.82,0,0,0,.79.5,1.09,1.09,0,0,0,.38-.07.89.89,0,0,0,.61-1.09A.82.82,0,0,0,19.74,22.79Z"/><path class="cls-1" d="M29.61,18.22a.76.76,0,0,0-.64-.31,1,1,0,0,0-.6.2.89.89,0,0,0-.31,1.2.77.77,0,0,0,.64.31,1,1,0,0,0,.6-.2A.89.89,0,0,0,29.61,18.22Z"/><path class="cls-1" d="M22,22.65a.65.65,0,0,0-.23,0,.53.53,0,0,0-.37.65.49.49,0,0,0,.48.3.66.66,0,0,0,.23,0,.53.53,0,0,0,.37-.65A.49.49,0,0,0,22,22.65Z"/><path class="cls-1" d="M24.28,29.44a.73.73,0,0,0-.56.29.64.64,0,0,0,0,.9.52.52,0,0,0,.33.11.73.73,0,0,0,.56-.28.64.64,0,0,0,0-.9A.52.52,0,0,0,24.28,29.44Z"/><path class="cls-1" d="M34.29,34.24h0a.48.48,0,0,0-.49.48.48.48,0,0,0,.51.41h0a.49.49,0,0,0,.49-.48A.48.48,0,0,0,34.29,34.24Z"/><path class="cls-1" d="M41.4,30.22a7.15,7.15,0,0,0-1.77-4.66,2.72,2.72,0,0,0,.53-.47,3.66,3.66,0,0,0,.68-2.93c-.05-.38-.11-.71-.17-1l-.06-.37a1.59,1.59,0,0,0,0-.2c-.38-1.23-1.67-4.81-4.26-5.89,1.35-1.23,1.95-3.07.81-6.17l0-.06c-.42-1-.93-2.16-1.53-3.42a1.6,1.6,0,0,0-.16-.26A4.86,4.86,0,0,0,31.56,2.8a6.8,6.8,0,0,0-4.38,1.91l-.09.08a22,22,0,0,0-6,9.9,20.83,20.83,0,0,0-6.89-1.15c-.57,0-1.15,0-1.73.06s-.93.08-1.36.14H11c-3.1.44-5.17,1.54-6.18,3.25a5,5,0,0,0-.34,4.19,1.6,1.6,0,0,0,.11.23c.7,1.22,1.37,2.31,2.05,3.33l0,.07C7.52,26,8.92,27.58,11,27.58a4.47,4.47,0,0,0,1-.12c-.54,2.66,1.48,5.59,2.41,6.77l.14.16.28.28c.29.29.59.57.89.85l.06.05a3.65,3.65,0,0,0,2.32,1,2.65,2.65,0,0,0,1-.19,7,7,0,0,0,2.7,4l.11.08c.57.39,1.15.76,1.64,1.07l.24.12a4.84,4.84,0,0,0,2.26.64,3.2,3.2,0,0,0,.76-.09,6.15,6.15,0,0,0,3,2.7l.08,0a47.7,47.7,0,0,0,6.86,2.48,1.6,1.6,0,0,0,1.93-1A47.52,47.52,0,0,0,40.63,39s0-.09,0-.13a6,6,0,0,0-.59-3.68,4.2,4.2,0,0,0,1.24-2.71,1.57,1.57,0,0,0,.05-.35c0-.6,0-1.2,0-1.81Q41.4,30.27,41.4,30.22Zm-1.64,1.86,0,0c-.17,1.8-.92,2.31-1.8,2.31a3.61,3.61,0,0,1-1-.19,2,2,0,0,0-.58-.09c-1.16,0-1.34,1.3.61,1.3l.38,0h.17c1.55,0,1.72,1.82,1.58,3.36a45.79,45.79,0,0,1-1.83,7.09,45.93,45.93,0,0,1-6.63-2.39c-1.46-.75-3.18-2-2-3.44,1-1.27.73-2,.21-2-.33,0-.75.31-1,1-.27.87-.73,1.67-1.72,1.67a3.49,3.49,0,0,1-1.65-.53h0c-.54-.34-1.07-.68-1.59-1-1.42-1.15-3.45-3.42-1.13-5.67,1.68-1.62,1.63-2.44,1-2.44a3,3,0,0,0-2,1.41C19.63,33.87,19,35,18.14,35a2.14,2.14,0,0,1-1.3-.61c-.39-.35-.76-.73-1.14-1.1-.7-.88-4.59-6.12.18-7.62,2.6-.81,2.69-2.2,1.28-2.2a5.74,5.74,0,0,0-3,1.21A5.9,5.9,0,0,1,11,26c-1,0-2-.58-3.1-2.09-.7-1-1.36-2.13-2-3.24-.21-.56-1.37-4.35,5.22-5.29l.18,0q.59-.08,1.27-.13t1.62-.06a18.94,18.94,0,0,1,8,1.74,20,20,0,0,1,6-11A5.21,5.21,0,0,1,31.56,4.4a3.26,3.26,0,0,1,2.55,1.3c.53,1.11,1,2.22,1.49,3.33,1.35,3.69-.13,4.74-2.83,5.78-3.16,1.21-3.51,3-2.29,3a3.86,3.86,0,0,0,2.14-1,3.42,3.42,0,0,1,2.1-.85c2.64,0,4.08,4.35,4.3,5.08.07.44.16.89.22,1.33.28,2.44-1.13,2.19-3.75,2.25-2.27.06-3.39,1.62-1.28,1.62A7.87,7.87,0,0,0,35.75,26a4.21,4.21,0,0,1,.84-.09c2.54,0,3.09,2.75,3.21,4.38C39.8,30.91,39.78,31.49,39.75,32.07Z"/><path class="cls-1" d="M31.62,25.59h-.06a.64.64,0,0,0-.64.63.63.63,0,0,0,.67.54h.06a.64.64,0,0,0,.64-.63A.63.63,0,0,0,31.62,25.59Z"/><path class="cls-1" d="M29.77,36.61a.55.55,0,0,0-.42.22.49.49,0,0,0,0,.68.4.4,0,0,0,.25.08.55.55,0,0,0,.42-.22.49.49,0,0,0,0-.68A.4.4,0,0,0,29.77,36.61Z"/><path class="cls-1" d="M30,26.2h0a.39.39,0,0,0-.39.38.38.38,0,0,0,.4.32h0a.38.38,0,0,0,.39-.38A.38.38,0,0,0,30,26.2Z"/></svg>