<svg id="Layer_1" data-name="Layer 1" xmlns="http://www.w3.org/2000/svg" viewBox="0 0 50.46 50.46"><defs><style>.cls-1{fill:#12b5e1;}</style></defs><title>preservativo</title><path class="cls-1" d="M40.78,45.67a1,1,0,0,0,.72-.32l1.86-2.06a1,1,0,0,0,.25-.65V7.82a1,1,0,0,0-.25-.65L41.5,5.11a1,1,0,0,0-.71-.32,1,1,0,0,0-.72.3L38.85,6.37,37.79,5.13a1,1,0,0,0-.72-.34,1,1,0,0,0-.74.32L35.19,6.37,34.05,5.11a1,1,0,0,0-1.45,0L31.46,6.37,30.32,5.11a1,1,0,0,0-.72-.32,1,1,0,0,0-.72.32L27.73,6.37,26.59,5.11a1,1,0,0,0-.72-.32,1,1,0,0,0-.72.32L24,6.4l-1.3-1.32a1,1,0,0,0-1.39,0L20,6.43,18.63,5.08a.94.94,0,0,0-.69-.29,1,1,0,0,0-.7.29L15.91,6.43,14.59,5.08a1,1,0,0,0-.7-.29.94.94,0,0,0-.69.29L11.87,6.43,10.54,5.08a1,1,0,0,0-1.39,0l-2,2.06a1,1,0,0,0-.28.68V42.64a1,1,0,0,0,.28.68l2,2.06a1,1,0,0,0,1.39,0L11.87,44l1.33,1.35a.94.94,0,0,0,.69.29,1,1,0,0,0,.7-.29L15.92,44l1.32,1.35a1,1,0,0,0,.7.29.94.94,0,0,0,.69-.29L20,44l1.33,1.35a1,1,0,0,0,1.39,0L24,44.06l1.17,1.29a1,1,0,0,0,.72.32,1,1,0,0,0,.72-.32l1.14-1.26,1.14,1.26a1,1,0,0,0,.73.32,1,1,0,0,0,.72-.32l1.14-1.26,1.14,1.26a1,1,0,0,0,1.45,0l1.14-1.26,1.14,1.26a1,1,0,0,0,1.45,0l1.14-1.26,1.14,1.26A1,1,0,0,0,40.78,45.67ZM19.26,42,17.94,43.3,16.61,42a1,1,0,0,0-1.39,0l-1.33,1.36L12.56,42a1,1,0,0,0-.69-.29,1,1,0,0,0-.7.29L9.85,43.3l-1-1.06v-34l1-1.06,1.32,1.35a1,1,0,0,0,.7.29,1,1,0,0,0,.69-.29l1.33-1.35,1.33,1.35a1,1,0,0,0,1.39,0l1.33-1.36,1.33,1.36A1,1,0,0,0,20,8.8a1,1,0,0,0,.7-.29L22,7.16l1.33,1.35A1,1,0,0,0,24,8.8a1,1,0,0,0,.7-.32l1.14-1.26L27,8.48a1,1,0,0,0,1.45,0L29.6,7.22l1.14,1.26a1,1,0,0,0,.72.32,1,1,0,0,0,.72-.32l1.15-1.26,1.14,1.26a1,1,0,0,0,.72.32,1,1,0,0,0,.72-.32L37,7.24l1,1.22a1,1,0,0,0,.72.34,1,1,0,0,0,.73-.3l1.24-1.3.9,1V42.26l-.88,1L39.64,42a1,1,0,0,0-1.45,0l-1.14,1.26L35.91,42a1,1,0,0,0-.72-.32,1,1,0,0,0-.72.32l-1.15,1.26L32.18,42a1,1,0,0,0-.72-.32,1,1,0,0,0-.72.32L29.6,43.24,28.46,42A1,1,0,0,0,27,42l-1.14,1.26L24.73,42a1,1,0,0,0-.7-.32,1,1,0,0,0-.72.29L22,43.31,20.66,42a1,1,0,0,0-1.4,0Z"/><path class="cls-1" d="M39.91,25.23A14.68,14.68,0,1,0,25.23,39.91,14.7,14.7,0,0,0,39.91,25.23Zm-27.41,0A12.73,12.73,0,1,1,25.23,38,12.74,12.74,0,0,1,12.5,25.23Z"/><path class="cls-1" d="M22.22,15.74l.22-.06a.74.74,0,1,0-.39-1.43l-.21.06-.14,0a.71.71,0,0,0-.43.9A.79.79,0,0,0,22.22,15.74Z"/><path class="cls-1" d="M15.51,26.48a9.9,9.9,0,0,1,4.78-9.87.74.74,0,1,0-.74-1.28,11.34,11.34,0,0,0-5.62,9.77A12.26,12.26,0,0,0,14,26.69a.74.74,0,1,0,1.47-.21Z"/></svg>