<svg id="Layer_1" data-name="Layer 1" xmlns="http://www.w3.org/2000/svg" viewBox="0 0 50.46 50.46"><defs><style>.cls-1{fill:#12b5e1;}.cls-2{fill:none;}</style></defs><title>profesionales y empresas</title><path class="cls-1" d="M5.37,29.11l.09.32a1.89,1.89,0,0,1,.1.54V30a7.83,7.83,0,0,1-.43.74l-.1.17a.73.73,0,0,0,.1.84,4.62,4.62,0,0,0,2.38,1.3.57.57,0,0,0,.18,0,.71.71,0,0,0,.69-.54.7.7,0,0,0-.52-.87,4,4,0,0,1-1.29-.55A3.36,3.36,0,0,0,7,30.33,2.28,2.28,0,0,0,7,30a3.75,3.75,0,0,0-.14-.92l-.1-.34c0-.13-.08-.26-.11-.39a.76.76,0,0,0,0-.11,5.86,5.86,0,0,1-.5-2.34,5.67,5.67,0,0,1,5.5-5.66,5.67,5.67,0,0,1,5.51,5.66,5.74,5.74,0,0,1-.54,2.42c-.07.26-.15.5-.21.74a3.23,3.23,0,0,0-.15.94,2.06,2.06,0,0,0,0,.35l0,.1a4.09,4.09,0,0,0,.37.72,3.17,3.17,0,0,1-1,.45.73.73,0,0,0-.47.9.72.72,0,0,0,.9.47,4.24,4.24,0,0,0,2-1.19.73.73,0,0,0,.1-.84l-.11-.18c-.09-.14-.34-.56-.42-.73V30a1.84,1.84,0,0,1,.09-.53l.18-.64a7,7,0,0,0,.63-2.93,7.11,7.11,0,0,0-7-7.09,7.1,7.1,0,0,0-6.31,10C5.3,28.86,5.34,29,5.37,29.11Z"/><path class="cls-1" d="M15.37,34a.81.81,0,0,0-.78.08,5.51,5.51,0,0,1-3,.94,5.76,5.76,0,0,1-3-1A.73.73,0,0,0,7.84,34l0,0c-4.44,2.2-6.28,8.11-5.89,9.26a.8.8,0,0,0,.27.36,18,18,0,0,0,9.43,3,16.86,16.86,0,0,0,9.44-3,.86.86,0,0,0,.26-.37C21.69,42.11,19.85,36.2,15.37,34Zm-.29,1.47a6.73,6.73,0,0,1,1.12.77l-2.07,2.26-1.48-2.14A7.27,7.27,0,0,0,15.08,35.45Zm-6.95,0a7.32,7.32,0,0,0,2.44.89L9.09,38.48,7,36.22A7.18,7.18,0,0,1,8.13,35.45Zm3.48,9.76a16.69,16.69,0,0,1-8.34-2.56,12.06,12.06,0,0,1,3-5.74l2.49,2.71a.52.52,0,0,0,.37.16h0a.51.51,0,0,0,.38-.21l2.06-3,2.05,3a.52.52,0,0,0,.38.21h0a.52.52,0,0,0,.37-.16l2.49-2.71a12,12,0,0,1,3,5.73A15.38,15.38,0,0,1,11.61,45.21Z"/><path class="cls-1" d="M14,23.31a.49.49,0,0,0-.49-.24.47.47,0,0,0-.39.37c-.63,2.8-2.48,3-4,3.08-.87.08-1.86.16-1.86,1.13,0,2.41,1.94,5.32,4.36,5.32S16,30.06,16,27.65C16,26.93,14.56,24.37,14,23.31ZM11.61,32c-1.8,0-3.4-2.45-3.41-4.37a3,3,0,0,1,1-.17c1.33-.12,3.45-.3,4.47-2.73A17,17,0,0,1,15,27.65C15,29.58,13.4,32,11.61,32Z"/><path class="cls-2" d="M36,29.45a.71.71,0,0,1-1-.62l-.11-2-5.34,2.67a.74.74,0,0,1-.68,0,.73.73,0,0,1-.36-.58L28,20.42H25.55L24.26,41.25h18l-.92-14.37Zm-5.18,4.87H29.25a.72.72,0,0,1,0-1.44h1.57a.72.72,0,0,1,0,1.44Zm6.59,0H35.83a.72.72,0,0,1,0-1.44h1.58a.72.72,0,0,1,0,1.44Z"/><path class="cls-1" d="M16,11a.61.61,0,0,0-.61-.6.6.6,0,0,0-.61.6v7.21a7.92,7.92,0,0,1,1.22.65Z"/><path class="cls-1" d="M18.63,21.52V11a.61.61,0,0,0-.61-.6.6.6,0,0,0-.61.6v9A8.4,8.4,0,0,1,18.63,21.52Z"/><path class="cls-1" d="M20,11V32.1a.61.61,0,0,0,.61.61.62.62,0,0,0,.61-.61V11a.61.61,0,0,0-.61-.6A.6.6,0,0,0,20,11Z"/><path class="cls-1" d="M30.82,32.88H29.25a.72.72,0,0,0,0,1.44h1.57a.72.72,0,0,0,0-1.44Z"/><path class="cls-1" d="M37.41,32.88H35.83a.72.72,0,0,0,0,1.44h1.58a.72.72,0,0,0,0-1.44Z"/><path class="cls-1" d="M48.46,20.8v0a.63.63,0,0,0-.9-.13,5.86,5.86,0,0,1-1.33.76c-3.1,1.2-6.36-.74-7.72-3.32-1.83-3.5-4.88-5.1-8.15-4.28a6.26,6.26,0,0,0-4,2.93A.73.73,0,0,0,27,17.81a.7.7,0,0,0,.62-.36,4.82,4.82,0,0,1,3.07-2.25c2.59-.65,5,.68,6.54,3.55a8.32,8.32,0,0,0,7.06,4.46,6.7,6.7,0,0,0,2.45-.47,6.62,6.62,0,0,0,1.54-.85A.79.79,0,0,0,48.46,20.8Z"/><path class="cls-1" d="M12.5,17.61V8.88H14V5.4h7.51V8.88h1.46v7.55a.79.79,0,0,0,1.58,0v-8A1.14,1.14,0,0,0,23.38,7.3h-.33V4.94a1.12,1.12,0,0,0-1.12-1.12H13.5a1.12,1.12,0,0,0-1.12,1.12V7.3H12a1.12,1.12,0,0,0-1.12,1.12v9.17q.35,0,.69,0A8.69,8.69,0,0,1,12.5,17.61Z"/><path class="cls-1" d="M42.88,28.2l-.14-2.26h0l0-.24a.71.71,0,0,0-1-.61l-5.32,2.57-.1-2a.72.72,0,0,0-.35-.59.71.71,0,0,0-.69,0l-5.37,2.68-.47-7.58A1.18,1.18,0,0,0,28.22,19H25.28a1.17,1.17,0,0,0-1.15,1.14l-1,16.17H20.2a15.82,15.82,0,0,1,1,1.58H23l-.22,3.54a1.22,1.22,0,0,0,.29.86,1.11,1.11,0,0,0,.86.41H42.53a1.15,1.15,0,0,0,.87-.41,1.21,1.21,0,0,0,.28-.86l-.8-13.22ZM41.21,41.25H24.26l1.29-20.83H28l.52,8.47a.73.73,0,0,0,.36.58.74.74,0,0,0,.68,0l5.34-2.67.11,2a.71.71,0,0,0,1,.62l5.32-2.57.92,14.37Z"/></svg>