<svg id="Layer_1" data-name="Layer 1" xmlns="http://www.w3.org/2000/svg" viewBox="0 0 50.46 50.46"><defs><style>.cls-1{fill:#12b5e1;}</style></defs><title>promocion comercial</title><path class="cls-1" d="M13.82,33.11a3.75,3.75,0,1,0,3.74,3.75A3.75,3.75,0,0,0,13.82,33.11Zm0,5.74a2,2,0,1,1,2-2A2,2,0,0,1,13.82,38.85Z"/><path class="cls-1" d="M25.33,33.11a3.75,3.75,0,1,0,3.75,3.75A3.75,3.75,0,0,0,25.33,33.11Zm0,5.74a2,2,0,1,1,2-2A2,2,0,0,1,25.33,38.85Z"/><path class="cls-1" d="M49.24,28.83h0a9.86,9.86,0,0,0-9.47-7.21h-.16a12.71,12.71,0,0,0-1.41-5.19,7.53,7.53,0,0,0-4.69-4.21,5.74,5.74,0,0,0-4.49.49,5,5,0,0,0-1.63,1.65H7.62L6.09,9.76a.89.89,0,0,0-.83-.6H1.73a.88.88,0,0,0,0,1.75h2.9L10,27,7.61,31a.87.87,0,0,0,0,.87.89.89,0,0,0,.76.44H28.79a10.22,10.22,0,0,1,0-1.75H9.89l1.55-2.66L30,26.41a11.08,11.08,0,0,1,3.17-3.74l.29-1.16a5.76,5.76,0,0,1,.4.78,7.39,7.39,0,0,1,1-.49,6.31,6.31,0,0,0-1.08-1.69L35,15.45a.85.85,0,0,0-.16-.75.87.87,0,0,0-.69-.33H28.8a4.56,4.56,0,0,1,.82-.68,4.58,4.58,0,0,1,3.58-.36,6.43,6.43,0,0,1,4,3.62,11.59,11.59,0,0,1,1.29,4.76,10.55,10.55,0,0,0-1.36.27A9.85,9.85,0,0,0,39,41.3a10.41,10.41,0,0,1,10.38-10h.18A9.28,9.28,0,0,0,49.24,28.83ZM17,25.69l-5.47.43L10,21.42h7Zm0-5.44H9.58L8.2,16.12H17Zm6.87,4.89-5.7.45V21.42h5.7Zm0-4.89h-5.7V16.12h5.7Zm7,4.33L25,25.05V21.42h6.65ZM25,20.25V16.12h1.78a3,3,0,0,0,.06.9c.33,1.48,1.7,2.45,3.74,2.67a3.79,3.79,0,0,1,1.39.43l0,.13Zm8-4.13L32.3,19a4.9,4.9,0,0,0-1.56-.42c-1.55-.17-2.53-.8-2.75-1.79a2,2,0,0,1,0-.65Zm5.22,11h0a2,2,0,0,1-2.47-1.39A2,2,0,0,1,36,24.24a2,2,0,0,1,1.2-.95,1.91,1.91,0,0,1,1.06,0,3.55,3.55,0,0,1-1.4,1.82.58.58,0,0,0,.32,1.05.63.63,0,0,0,.32-.1,4.7,4.7,0,0,0,1.76-2.15,2,2,0,0,1,.41.77A2,2,0,0,1,38.23,27.15Z"/><path class="cls-1" d="M40.54,39.15a8.36,8.36,0,0,0-.23,1l7.6-7.54A9.26,9.26,0,0,0,40.54,39.15Z"/></svg>