<svg id="Layer_1" data-name="Layer 1" xmlns="http://www.w3.org/2000/svg" viewBox="0 0 50.46 50.46"><defs><style>.cls-1{fill:#65b4e1;}</style></defs><title>reciclaje</title><path class="cls-1" d="M25.81,20l7.95-.51a1.17,1.17,0,0,0,.92-.56l4.09-6.83a1.16,1.16,0,0,0-1.61-1.59l-1.88,1.15L33.62,8.94a3.83,3.83,0,0,0-3.28-2.06c-1.77,0-8.69,0-9.67,0h-.12a5,5,0,0,0-1.66.32,5.56,5.56,0,0,0-2.72,2.52l-2.87,5A1.91,1.91,0,0,0,14,17.36l5.52,3a1.91,1.91,0,0,0,2.58-.73l3.38-5.81,1.63,2.78-2,1.24a1.16,1.16,0,0,0,.6,2.16Zm-5-1.11a.41.41,0,0,1-.55.16l-5.52-3a.4.4,0,0,1-.16-.56l2.87-5a4.21,4.21,0,0,1,1.95-1.86,3.55,3.55,0,0,1,1.16-.23h.07c1.34,0,2.09,1,2.8,2,.21.32.66,1.06,1.18,1.93Zm7.72-1.38h0l0,0,.07-.05,0,0,.06-.07,0,0,0-.08,0,0,0-.09v0a.75.75,0,0,0,0-.1s0,0,0,0a.75.75,0,0,0,0-.1v0a.74.74,0,0,0,0-.1l0,0,0-.09c-.14-.24-3.37-5.78-4.11-6.9a9.94,9.94,0,0,0-.92-1.23c2.4,0,5.45,0,6.51,0a2.32,2.32,0,0,1,2,1.23l0,.07L34.4,13.1l.09.12h0a.75.75,0,0,0,.22.16h0a.75.75,0,0,0,.26.06h.16l.12,0h0l.12-.06h0l1.34-.82L33.48,18l-6.39.41Z"/><path class="cls-1" d="M42.9,24.59l-2.91-5a1.91,1.91,0,0,0-2.64-.67L32,22.23a1.91,1.91,0,0,0-.66,2.6l3.32,5.83-3.19,0-.06-2.38a1.16,1.16,0,0,0-2.21-.48L25.65,35a1.16,1.16,0,0,0,0,1.08l3.88,7a1.15,1.15,0,0,0,1,.6,1.2,1.2,0,0,0,.32,0,1.15,1.15,0,0,0,.86-1.15l-.06-2.2,3.2-.08A3.83,3.83,0,0,0,38.3,38.3c1-1.6,4.71-8.19,4.87-8.47h0a5,5,0,0,0,.55-1.6A5.55,5.55,0,0,0,42.9,24.59Zm-10.29-.53a.41.41,0,0,1,.14-.55l5.38-3.28a.4.4,0,0,1,.21-.06h.1a.4.4,0,0,1,.25.19l2.91,5A4.21,4.21,0,0,1,42.24,28a3.55,3.55,0,0,1-.38,1.12h0c-.66,1.21-1.89,1.38-3.2,1.46-.39,0-1.27,0-2.31.06l0-.1ZM37,37.52A2.32,2.32,0,0,1,35,38.61h-.08l-4,.1a.75.75,0,0,0-.72.62v0a.75.75,0,0,0,0,.13h0l0,1.57-3.12-5.59,2.83-5.74,0,1.74s0,0,0,.07a.77.77,0,0,0,0,.08l0,.06,0,.09,0,0,.05.09h0a.75.75,0,0,0,.47.29h.14c.27,0,6.69,0,8-.13a9.93,9.93,0,0,0,1.53-.18C39.08,34,37.56,36.61,37,37.52Z"/><path class="cls-1" d="M22.65,30H15.89l1.65-2.86,2.09,1.15a1.17,1.17,0,0,0,.57.15,1.17,1.17,0,0,0,1-1.81L16.78,20a1.16,1.16,0,0,0-.95-.52l-8-.18a1.16,1.16,0,0,0-.59,2.18l1.93,1.07-1.55,2.8a3.83,3.83,0,0,0-.17,3.86c.89,1.64,4.68,8.21,4.84,8.49h0A5,5,0,0,0,13.44,39,5.56,5.56,0,0,0,17,40.16l5.77,0h0a1.91,1.91,0,0,0,1.91-1.94l-.1-6.3A1.92,1.92,0,0,0,22.65,30ZM8.91,26.21l0-.07,1.93-3.49a.75.75,0,0,0-.17-.94l-.13-.09-1.38-.76,6.4.14,3.52,5.35-1.52-.84-.06,0-.07,0h-.06l-.08,0h-.19l-.09,0,0,0-.09,0,0,0-.09.06,0,0-.08.07,0,0-.06.08c-.14.24-3.35,5.79-4,7A9.93,9.93,0,0,0,12,34.2c-1.2-2.09-2.71-4.73-3.21-5.66A2.32,2.32,0,0,1,8.91,26.21ZM23,38.54a.4.4,0,0,1-.29.12h0l-5.77,0a4.21,4.21,0,0,1-2.58-.77,3.54,3.54,0,0,1-.77-.9h0c-.71-1.18-.23-2.33.36-3.51.17-.34.57-1.05,1-1.91h7.62a.41.41,0,0,1,.41.4l.1,6.3A.4.4,0,0,1,23,38.54Z"/></svg>