<svg id="Layer_1" data-name="Layer 1" xmlns="http://www.w3.org/2000/svg" viewBox="0 0 50.46 50.46"><defs><style>.cls-1{fill:#12b5e1;}</style></defs><title>rocas</title><path class="cls-1" d="M48.32,45.74l-2.87-18a.79.79,0,0,0-.33-.52l-3.46-2.51-2.11-3.3a.8.8,0,0,0-.67-.37h0a.8.8,0,0,0-.66.36l-3.63,5.49-.23-1,.59-2.61a.8.8,0,0,0-.14-.65l-.57-.78-.91-2.09v0l-1.77-3.62v-.61a1.09,1.09,0,0,0,0-.18L30.4,9l.22-.54a.79.79,0,0,0-.13-.83l-.65-.75,0-.46,1.39-1.17a.8.8,0,0,0,.28-.68.79.79,0,0,0-.39-.62l-1.08-.65a.64.64,0,0,0-.24-.1L23,1.67a.73.73,0,0,0-.46,0l-4,1.51a.87.87,0,0,0-.47.47.8.8,0,0,0,.05.66l.75,1.41a1.43,1.43,0,0,0,.14.2l.58.56-.16.18a.83.83,0,0,0-.14.82L19.79,9v1.32l-.43.69-.07.14v0a1,1,0,0,0,0,.17l-.56,3.83a.49.49,0,0,0,0,.12v1L18,17.88a.71.71,0,0,0-.07.32v1.63l-.36.31L15.07,18,12,13.63a.83.83,0,0,0-.7-.34.8.8,0,0,0-.66.4l-4.9,8.44a.73.73,0,0,0-.1.28L2.14,45.74a.82.82,0,0,0,.19.65.8.8,0,0,0,.6.27h11.3L15,48.33a.81.81,0,0,0,.74.48H34.32a.77.77,0,0,0,.39-.2l2.06-1.93H47.53a.81.81,0,0,0,.61-.28A.79.79,0,0,0,48.32,45.74Zm-9.46-22.4L40,25.18l-3.2,15.51L36.45,35a.49.49,0,0,0,0-.12l-1.36-5.82ZM18.36,27.8l1.25.93L17,36.6Zm2.28-.3-2.29-1.71-.05,0-.13-.23,14.95-1.44-.26,1.15Zm12.28-.64,1.94,8.33.31,4.53L31,27.22ZM21.34,8.6l-.48-1.23.07-.08,7.69.61.26.3L21.39,9.62V8.89A.71.71,0,0,0,21.34,8.6Zm7.25,7-8.31.13V15.4l.41-2.81Zm-7-4.34,7.32-1.39.79,4.43Zm1.23-7.94,6.53,1.44h0l-.79.66A.84.84,0,0,0,28.3,6l0,.32-7.34-.59-.82-.8-.26-.48Zm-3.3,15.09L20,17.3l5.37-.09L19.53,19.1Zm-.41,2.54,11.2-3.61,1.54,3.15.89,2.07L17.7,24V22.13ZM11.4,15.58l2.41,3.47a.71.71,0,0,0,.15.15l2.37,2a.8.8,0,0,0-.24.56v3a1.08,1.08,0,0,0,0,.18V25a.86.86,0,0,0,.12.42l.71,1.14L14.41,43,7.21,22.79ZM6.7,26.15l6.72,18.91H3.86ZM17.09,47.21h-.87l-.58-1.33,2.89-8.75Zm1.62,0L21.31,29l8-1.48,3.89,19.68Zm15.95-.77-1.53-7.75,2.34,7Zm2.92-1.38L41.4,26.53l2.51,1.82,2.68,16.71Z"/></svg>