<svg id="Layer_1" data-name="Layer 1" xmlns="http://www.w3.org/2000/svg" viewBox="0 0 50.46 50.46"><defs><style>.cls-1{fill:#12b5e1;}</style></defs><title>satelite</title><path class="cls-1" d="M45.71,36.58,34.6,25.47a.91.91,0,0,0-1.28,0l-1.88,1.88-1.09-1.1L37,19.61a.91.91,0,0,0,0-1.27l-.43-.42,2-2a.59.59,0,0,0,0-.85l-1.12-1.12,1.87-1.86a.6.6,0,0,0-.85-.85l-1.86,1.86L35.5,12a.59.59,0,0,0-.85,0l-2,2-.42-.42a.9.9,0,0,0-1.27,0L24.3,20.2,23,18.93l1.87-1.88a.9.9,0,0,0,0-1.27L13.79,4.66a.91.91,0,0,0-1.28,0l-4.6,4.6a.91.91,0,0,0,0,1.28L19,21.65a.86.86,0,0,0,.63.27.9.9,0,0,0,.64-.27l1.88-1.87,1.27,1.27L20.9,23.6a.9.9,0,0,0,0,1.27l.42.43L19.58,27a8,8,0,0,0-8.94,1.6l-.08.09a.9.9,0,0,0,.07,1.2l4.58,4.58,0,0-2.29,2.29a.61.61,0,0,0,0,.85.62.62,0,0,0,.85,0L16,35.38l0,0,4.58,4.58a.93.93,0,0,0,.64.26.92.92,0,0,0,.56-.19l.09-.08A8,8,0,0,0,23.51,31l1.74-1.74.42.42a.92.92,0,0,0,1.28,0L29.5,27.1l1.1,1.09-1.88,1.88a.91.91,0,0,0,0,1.28L39.83,42.46a.92.92,0,0,0,1.28,0l4.6-4.6A.91.91,0,0,0,45.71,36.58Zm-24-18.93L19,14.89l1.25-1.24L23,16.41Zm-8.44-4.26,1.24-1.24,2.74,2.74-1.24,1.24ZM15.4,11.3l1.24-1.24,2.74,2.74L18.14,14ZM13.15,6.57l2.64,2.64-1.24,1.24L11.91,7.81ZM11.06,8.66,13.7,11.3l-1.24,1.24L9.82,9.9Zm8.6,11.08L16.89,17l1.25-1.25L20.9,18.5Zm15.41-6.5,1.12,1.12h0l1.12,1.11-1.59,1.6-2.24-2.24Zm-3.5,2.23L35.08,19l-2.94,2.94-3.5-3.5ZM21.21,38l-8.63-8.64A6.17,6.17,0,0,1,21.21,38Zm1.7-8.1a8.83,8.83,0,0,0-1-1.23,8.83,8.83,0,0,0-1.23-1l1.49-1.5,2.23,2.24Zm3.4-2.13-3.5-3.5,5-5,3.5,3.5Zm7.93,6.58,1.25-1.24,2.73,2.74L37,37.06Zm2.09-2.08L37.57,31l2.74,2.74L39.07,35ZM34,27.38l2.77,2.77-1.24,1.24-2.77-2.77Zm-2.09,2.09,2.77,2.77L33.4,33.48l-2.77-2.77Zm8.6,11.08-2.64-2.64,1.24-1.24,2.64,2.64Zm2.09-2.09-2.64-2.64,1.24-1.24,2.64,2.64Z"/><path class="cls-1" d="M10.94,36.43a.6.6,0,0,0-.84.11A2.79,2.79,0,0,0,14,40.45a.6.6,0,0,0,.11-.84.6.6,0,0,0-.84-.12,1.59,1.59,0,0,1-2.23-2.22A.6.6,0,0,0,10.94,36.43Z"/><path class="cls-1" d="M9.3,34.78a.6.6,0,0,0-.85.06,5.14,5.14,0,0,0,7.26,7.26.6.6,0,0,0,.06-.85.61.61,0,0,0-.85-.06,3.94,3.94,0,0,1-5.57-5.56A.6.6,0,0,0,9.3,34.78Z"/><path class="cls-1" d="M16.81,43.1a6.62,6.62,0,0,1-9.36-9.36.6.6,0,0,0-.88-.81A7.82,7.82,0,0,0,17.62,44a.6.6,0,0,0-.81-.88Z"/></svg>