<svg id="Layer_1" data-name="Layer 1" xmlns="http://www.w3.org/2000/svg" viewBox="0 0 50.46 50.46"><defs><style>.cls-1{fill:#12b5e1;}</style></defs><title>seguridad bebe lineal</title><path class="cls-1" d="M46.35,29.94a5.94,5.94,0,0,0-3.12-4.1,6.82,6.82,0,0,0-2.58-.6c-1.37-.13-2.23-.25-2.61-1-.5-1,.63-3.55,1.63-5.8.5-1.12,1-2.28,1.47-3.5A10,10,0,0,0,41.75,9a9.82,9.82,0,0,0-9.62-7.65H18.33A9.82,9.82,0,0,0,8.71,9a10,10,0,0,0,.61,5.88c.45,1.21,1,2.37,1.47,3.5.13.3.27.6.42.91a10.68,10.68,0,0,1,1.33,4.22c0,1.16-.63,1.41-2.75,1.68a7.3,7.3,0,0,0-2.56.63,5.94,5.94,0,0,0-3.12,4.1c-.46,2.33.49,5.21,2.53,7.71l2,2.44.83,4.58a4.61,4.61,0,0,0,4.59,4.42h8.82a1.79,1.79,0,0,0,1.42-.71c.15-.2.3-.41.31-2.53h1.26c0,2.12.16,2.33.32,2.53a1.75,1.75,0,0,0,1.41.71h8.82A4.61,4.61,0,0,0,41,44.67l.83-4.58,2-2.44C45.86,35.15,46.81,32.27,46.35,29.94Zm-3.92,6.57-2.14,2.63a.86.86,0,0,0-.19.41l-.88,4.87a.66.66,0,0,0,0,.14,2.81,2.81,0,0,1-2.8,2.73l-8.7,0c0-.49-.06-1.5-.05-2.35a.9.9,0,0,0-.26-.64.91.91,0,0,0-.64-.27H23.7a.91.91,0,0,0-.64.27.9.9,0,0,0-.26.64c0,.84,0,1.84-.05,2.33h-8.7a2.81,2.81,0,0,1-2.8-2.73.66.66,0,0,0,0-.14l-.88-4.87a.86.86,0,0,0-.19-.41L8,36.51c-1.7-2.09-2.51-4.41-2.15-6.23A4.15,4.15,0,0,1,8.1,27.42,6.09,6.09,0,0,1,10,27c1.7-.22,4.28-.55,4.32-3.44a11.73,11.73,0,0,0-1.5-5c-.14-.3-.28-.6-.41-.9-.49-1.09-1-2.22-1.43-3.38a8.3,8.3,0,0,1-.53-4.84,8,8,0,0,1,7.86-6.26h13.8A8,8,0,0,1,40,9.42a8.32,8.32,0,0,1-.53,4.85c-.44,1.17-1,2.3-1.44,3.41-1.32,3-2.47,5.55-1.6,7.31s2.63,1.91,4.06,2a5.5,5.5,0,0,1,1.88.39,4.15,4.15,0,0,1,2.22,2.86C44.94,32.1,44.13,34.42,42.43,36.51Z"/><circle class="cls-1" cx="25.23" cy="11.14" r="6.06" transform="translate(-1.88 6.09) rotate(-13.28)"/><path class="cls-1" d="M31.23,19.71l-1.55,6.81a.81.81,0,0,1-.81.69h-.49l-.93,2.08a.65.65,0,0,1-.23.34v1.84c0,.49-.66.89-.66.89v3.52a7.67,7.67,0,0,1,4.31,1.54,1.75,1.75,0,0,1,.55,1.52c-.15.39-.76,1.6-1.1,2.25A13.55,13.55,0,0,0,29.45,43,1.86,1.86,0,0,0,31,45.31a2.08,2.08,0,0,0,.55.07,2,2,0,0,0,2-1.36c.07-.17.42-.84.67-1.33a12.51,12.51,0,0,0,1.41-3.21A5,5,0,0,0,34.06,35a9.41,9.41,0,0,0-3.72-2.11,2.5,2.5,0,0,0,0-.4V23.71a8.29,8.29,0,0,1,1.08,1.6,13,13,0,0,1,1.34,4.43,1.86,1.86,0,0,0,2,1.58h.13a1.8,1.8,0,0,0,1.83-1.8C36.49,26.71,35,22.15,31.23,19.71Z"/><path class="cls-1" d="M25.74,26.4l1.65-8.15a13,13,0,0,0-2.13-.19H25.2a12.08,12.08,0,0,0-2.15.2l1.53,8.11a.73.73,0,0,1-.18.6.76.76,0,0,1-.54.23l.49,1H26l.5-1a.78.78,0,0,1-.53-.23A.74.74,0,0,1,25.74,26.4Z"/><rect class="cls-1" x="24.28" y="29.49" width="1.9" height="1.85"/><path class="cls-1" d="M13.76,29.52a1.8,1.8,0,0,0,1.82,1.8h.14a1.87,1.87,0,0,0,2-1.58A13,13,0,0,1,19,25.31a8,8,0,0,1,1.06-1.57l-.84-4C15.43,22.15,14,26.71,13.76,29.52Z"/><path class="cls-1" d="M23.1,31.47V29.64a.93.93,0,0,1-.23-.35l-.93-2.08h-.48a.82.82,0,0,1-.82-.73l-.55-2.63v8.62a2.5,2.5,0,0,0,0,.4A9.41,9.41,0,0,0,16.4,35a5,5,0,0,0-1.57,4.5,12.51,12.51,0,0,0,1.41,3.21c.25.49.6,1.16.64,1.27A2.11,2.11,0,0,0,19,45.34a2.46,2.46,0,0,0,.53-.06A1.84,1.84,0,0,0,21,43a13.55,13.55,0,0,0-.87-1.85c-.34-.65-.95-1.86-1.1-2.25a1.75,1.75,0,0,1,.55-1.52,7.59,7.59,0,0,1,4.18-1.53V32.36S23.1,32,23.1,31.47Z"/><path class="cls-1" d="M20.07,23.74l0,.11v-.14S20.07,23.73,20.07,23.74Z"/></svg>