<svg id="Layer_1" data-name="Layer 1" xmlns="http://www.w3.org/2000/svg" viewBox="0 0 50.46 50.46"><defs><style>.cls-1{fill:#65b4e1;}</style></defs><title>semaforo</title><path class="cls-1" d="M31.12,43.92H19.34a3.6,3.6,0,0,1-3.59-3.59V10.14a3.6,3.6,0,0,1,3.59-3.59H31.12a3.6,3.6,0,0,1,3.59,3.59V40.32A3.6,3.6,0,0,1,31.12,43.92ZM19.34,8.29a1.84,1.84,0,0,0-1.84,1.84V40.32a1.84,1.84,0,0,0,1.84,1.84H31.12A1.84,1.84,0,0,0,33,40.32V10.14a1.84,1.84,0,0,0-1.84-1.84Z"/><path class="cls-1" d="M25.23,10.85a3.67,3.67,0,1,1-3.67,3.67,3.67,3.67,0,0,1,3.67-3.67m0-1.32a5,5,0,1,0,5,5,5,5,0,0,0-5-5Z"/><path class="cls-1" d="M23.36,14.14a.4.4,0,0,1-.35-.58,2.33,2.33,0,0,1,2.17-1.31.4.4,0,0,1,0,.79,1.53,1.53,0,0,0-1.47.89A.39.39,0,0,1,23.36,14.14Z"/><path class="cls-1" d="M23.12,15.38h-.05a.4.4,0,0,1-.34-.41.46.46,0,0,1,0-.09.4.4,0,0,1,.46-.32.4.4,0,0,1,.33.41.51.51,0,0,1,0,.07A.4.4,0,0,1,23.12,15.38Z"/><path class="cls-1" d="M25.23,21.56a3.67,3.67,0,1,1-3.67,3.67,3.67,3.67,0,0,1,3.67-3.67m0-1.32a5,5,0,1,0,5,5,5,5,0,0,0-5-5Z"/><path class="cls-1" d="M23.36,24.85a.4.4,0,0,1-.35-.58A2.33,2.33,0,0,1,25.19,23a.4.4,0,0,1,0,.79,1.53,1.53,0,0,0-1.47.89A.39.39,0,0,1,23.36,24.85Z"/><path class="cls-1" d="M23.12,26.1h-.05a.4.4,0,0,1-.34-.41.46.46,0,0,1,0-.09.4.4,0,0,1,.46-.32.4.4,0,0,1,.33.41.51.51,0,0,1,0,.07A.4.4,0,0,1,23.12,26.1Z"/><path class="cls-1" d="M25.23,32.28a3.67,3.67,0,1,1-3.67,3.67,3.67,3.67,0,0,1,3.67-3.67m0-1.32a5,5,0,1,0,5,5,5,5,0,0,0-5-5Z"/><path class="cls-1" d="M23.36,35.57A.4.4,0,0,1,23,35a2.33,2.33,0,0,1,2.17-1.31.4.4,0,0,1,0,.79,1.53,1.53,0,0,0-1.47.89A.39.39,0,0,1,23.36,35.57Z"/><path class="cls-1" d="M23.12,36.81h-.05a.4.4,0,0,1-.34-.41.46.46,0,0,1,0-.09.4.4,0,0,1,.46-.32.4.4,0,0,1,.33.41.51.51,0,0,1,0,.07A.4.4,0,0,1,23.12,36.81Z"/></svg>