<svg id="Layer_1" data-name="Layer 1" xmlns="http://www.w3.org/2000/svg" viewBox="0 0 50.46 50.46"><defs><style>.cls-1{fill:#65b4e1;}</style></defs><title>social</title><path class="cls-1" d="M22.11,7.63a3.23,3.23,0,0,0,.41.93,3.29,3.29,0,0,0,.42.51,3.25,3.25,0,0,0,.46.37l.15.1.36.19.17.08a3.25,3.25,0,0,0,.47.14l.3,0,.2,0,.2,0,.16,0h0a3.1,3.1,0,0,0,.41-.05,3.33,3.33,0,0,0,.45-.12,3.23,3.23,0,0,0,.75-.35,3.3,3.3,0,0,0,.51-.42,3.25,3.25,0,0,0,.83-1.46,3.24,3.24,0,0,0-.83-3.18c-.07-.07-.15-.14-.23-.2A3.16,3.16,0,0,0,27,4l-.36-.19A3.41,3.41,0,0,0,26,3.57a3.27,3.27,0,0,0-4,3.8C22.06,7.46,22.09,7.55,22.11,7.63Z"/><path class="cls-1" d="M15.55,13.77a1.56,1.56,0,0,0,1-.32,14.35,14.35,0,0,1,4-2.14l2.11,4.43a1.57,1.57,0,0,0,1.37.89l2.86.08h0a1.57,1.57,0,0,0,1.46-1L30,11.26A14.33,14.33,0,0,1,34,13.33a1.57,1.57,0,1,0,1.87-2.51,17.47,17.47,0,0,0-6.12-2.92,4.6,4.6,0,0,1-8.92,0l-.07,0a17.49,17.49,0,0,0-6.14,3,1.57,1.57,0,0,0,1,2.81Z"/><path class="cls-1" d="M40.44,22a4.58,4.58,0,0,1,2.1-1.19h0a17.49,17.49,0,0,0-3-6.19A1.57,1.57,0,0,0,37,16.51a14.35,14.35,0,0,1,2.14,4l-4.43,2.11a1.57,1.57,0,0,0-.89,1.37l-.08,2.86a1.57,1.57,0,0,0,1,1.5L39.2,30A14.33,14.33,0,0,1,37.13,34a1.57,1.57,0,0,0,2.51,1.88,17.47,17.47,0,0,0,2.92-6.12,4.58,4.58,0,0,1-2.13-1.2A4.63,4.63,0,0,1,40.44,22Z"/><path class="cls-1" d="M46.93,24.63A3.28,3.28,0,0,0,43.71,22h0a3.3,3.3,0,0,0-.63.06l-.25.07a3.23,3.23,0,0,0-.93.41,3.25,3.25,0,0,0-1.28,3.83,3.24,3.24,0,0,0,.34.71,3.31,3.31,0,0,0,.94.93,3.24,3.24,0,0,0,.95.41,3.27,3.27,0,0,0,4.08-3.78Z"/><path class="cls-1" d="M34,37a14.35,14.35,0,0,1-4,2.14l-2.11-4.43a1.57,1.57,0,0,0-1.37-.89l-2.86-.08a1.61,1.61,0,0,0-1.5,1L20.42,39.2a14.34,14.34,0,0,1-3.93-2.06,1.57,1.57,0,1,0-1.87,2.51,17.47,17.47,0,0,0,6.12,2.91,4.6,4.6,0,0,1,8.92,0h0a17.48,17.48,0,0,0,6.16-3A1.57,1.57,0,1,0,34,37Z"/><path class="cls-1" d="M28.24,42.47a3.26,3.26,0,0,0-.3-.57,3.3,3.3,0,0,0-.42-.51,3.24,3.24,0,0,0-1.27-.79,3.33,3.33,0,0,0-.47-.12,3.29,3.29,0,0,0-.57-.05h-.14l-.17,0a3.25,3.25,0,0,0-.54.1l-.21.06a3.24,3.24,0,0,0-.48.21l-.19.1a3.17,3.17,0,1,0,4.77,1.55Z"/><path class="cls-1" d="M11.31,30l4.43-2.11a1.57,1.57,0,0,0,.89-1.37l.08-2.86a1.57,1.57,0,0,0-1-1.5l-4.45-1.74a14.33,14.33,0,0,1,2.06-3.93,1.57,1.57,0,0,0-2.51-1.88,17.47,17.47,0,0,0-2.92,6.12,4.6,4.6,0,0,1,0,8.92h0a17.48,17.48,0,0,0,3,6.2A1.57,1.57,0,0,0,13.44,34,14.35,14.35,0,0,1,11.31,30Z"/><path class="cls-1" d="M9.49,27a3.28,3.28,0,1,0-4.54.93,3.23,3.23,0,0,0,.58.29l.12,0a3.28,3.28,0,0,0,1.11.2,3.28,3.28,0,0,0,.88-.13h0a3.25,3.25,0,0,0,1.44-.83A3.3,3.3,0,0,0,9.49,27Z"/></svg>