<svg id="Layer_1" data-name="Layer 1" xmlns="http://www.w3.org/2000/svg" viewBox="0 0 50.46 50.46"><defs><style>.cls-1{fill:#12b5e1;}</style></defs><title>submarino</title><path class="cls-1" d="M3.88,9a2.27,2.27,0,0,1,1-.32,1.89,1.89,0,0,1,1.5.49l.34.25a3,3,0,0,0,3.8,0,3.56,3.56,0,0,1,2.29-.76,4,4,0,0,1,2.36.76,3.33,3.33,0,0,0,1.84.67h0a3,3,0,0,0,1.9-.67,3.83,3.83,0,0,1,4.58,0,3,3,0,0,0,1.74.65h.37a3.15,3.15,0,0,0,1.64-.65,3.83,3.83,0,0,1,4.58,0,3,3,0,0,0,3.79,0,3.85,3.85,0,0,1,4.59,0,3,3,0,0,0,1.9.67,2.6,2.6,0,0,0,1.68-.62l.29-.19a2.33,2.33,0,0,1,1.53-.6,4.91,4.91,0,0,1,1,.3.6.6,0,0,0,.53-1.08,5.55,5.55,0,0,0-1.45-.43,3.54,3.54,0,0,0-2.3.81l-.1.07-.19.13a1.49,1.49,0,0,1-1,.39,1.81,1.81,0,0,1-1.22-.46,4.79,4.79,0,0,0-3-1,4.73,4.73,0,0,0-3,1,1.88,1.88,0,0,1-2.44,0,5,5,0,0,0-5.94,0,1.84,1.84,0,0,1-1.2.45,1.79,1.79,0,0,1-1.19-.45,5,5,0,0,0-5.94,0A1.85,1.85,0,0,1,17,8.85h0a2.18,2.18,0,0,1-1.19-.48,5.15,5.15,0,0,0-3-.94,4.8,4.8,0,0,0-3,1,1.81,1.81,0,0,1-1.22.46A1.85,1.85,0,0,1,7.37,8.4l-.26-.21a3.13,3.13,0,0,0-2.26-.74,3.35,3.35,0,0,0-1.53.45.61.61,0,0,0-.26.82A.6.6,0,0,0,3.88,9Z"/><path class="cls-1" d="M30.18,12.84a1.67,1.67,0,1,0,1.67,1.67A1.67,1.67,0,0,0,30.18,12.84Zm0,2.26a.59.59,0,0,1-.59-.59.58.58,0,0,1,.59-.59.59.59,0,0,1,.59.59A.6.6,0,0,1,30.18,15.1Z"/><path class="cls-1" d="M41.55,16.47a2,2,0,1,0,2-2A2,2,0,0,0,41.55,16.47Zm3,0a.95.95,0,1,1-1.89,0,.95.95,0,0,1,1.89,0Z"/><path class="cls-1" d="M20.41,20.75a2.58,2.58,0,1,0,2,.93,2.59,2.59,0,0,0-2-.93Zm1,3.74a1.46,1.46,0,0,1-1,.35,1.51,1.51,0,0,1-1-2.66,1.46,1.46,0,0,1,1-.35,1.51,1.51,0,0,1,1,2.66Z"/><path class="cls-1" d="M49.71,32a2.19,2.19,0,0,0-2.2-2.14h-9.7V25.55a.68.68,0,0,0-.52-.59,11.86,11.86,0,0,0-1.37-.27V20.26a.61.61,0,0,0-1.21,0v4.32c-.38,0-.75,0-1.13,0V21.13a.6.6,0,0,0-.61-.6.61.61,0,0,0-.61.6v3.51c-.35,0-.71.09-1.05.15V22.64a.61.61,0,0,0-.61-.6.6.6,0,0,0-.61.6v2.43a10.54,10.54,0,0,0-1.34.46.57.57,0,0,0-.36.43l-.83,3.92-5.41,0a53.34,53.34,0,0,0-13,1.71l-1-2.05a1.23,1.23,0,0,0-1.1-.67H5A1.2,1.2,0,0,0,3.77,30.2L4,33.6A13.77,13.77,0,0,0,2.3,34.7V32.54A.54.54,0,0,0,1.76,32a.54.54,0,0,0-.54.54v2.55a.54.54,0,0,0,0,1.07v2.55a.54.54,0,0,0,.54.54.54.54,0,0,0,.54-.54V36.55a10.81,10.81,0,0,0,1.79,1.2l-.32,4A1.2,1.2,0,0,0,5,43H7.05a1.23,1.23,0,0,0,1.1-.67l1.3-2.63A52.05,52.05,0,0,0,21.9,41H45.83a3.94,3.94,0,0,0,2.8-1.15,3.81,3.81,0,0,0,1.14-2.77ZM7.05,30.11,8,32A23.5,23.5,0,0,0,5.22,33L5,30.11Zm0,11.72H5l.28-3.49a25,25,0,0,0,3,1.08ZM47.77,39a2.75,2.75,0,0,1-1.94.8H21.9c-12.77,0-17.52-3.09-18.82-4.2,1.44-1.08,6.63-4.2,19.09-4.5l5.89-.05a.61.61,0,0,0,.6-.48l.85-4.08A13,13,0,0,1,36.59,26v4.45a.61.61,0,0,0,.61.6H47.51a1,1,0,0,1,1,1l.06,5.08A2.66,2.66,0,0,1,47.77,39Z"/><polygon class="cls-1" points="19.63 34.18 19.63 34.18 19.62 34.18 19.63 34.18"/><polygon class="cls-1" points="19.62 32.98 19.63 32.98 19.63 32.98 19.62 32.98"/><path class="cls-1" d="M19.63,33a.61.61,0,0,0-.61.6.61.61,0,1,0,.61-.6Z"/><path class="cls-1" d="M35,29.05a.6.6,0,0,0,.6-.6.61.61,0,1,0-.6.6Z"/><polygon class="cls-1" points="35.03 27.85 35.04 27.85 35.04 27.85 35.03 27.85"/><polygon class="cls-1" points="35.04 29.05 35.04 29.05 35.03 29.05 35.04 29.05"/><path class="cls-1" d="M46.4,33H22.22a.6.6,0,0,0,0,1.2H46.4a.6.6,0,1,0,0-1.2Z"/><path class="cls-1" d="M30.53,31.07h4.79a.6.6,0,0,0,.61-.6.6.6,0,0,0-.61-.59H30.53a.6.6,0,0,0-.61.59A.6.6,0,0,0,30.53,31.07Z"/></svg>