<svg id="Layer_1" data-name="Layer 1" xmlns="http://www.w3.org/2000/svg" viewBox="0 0 50.46 50.46"><defs><style>.cls-1{fill:#65b4e1;}</style></defs><title>termometro</title><path class="cls-1" d="M26.09,33.09V22.32a.41.41,0,0,0-.41-.41h-.91a.41.41,0,0,0-.41.41V33.09a3.49,3.49,0,1,0,1.72,0Z"/><path class="cls-1" d="M29.2,29.93V8.37a1.8,1.8,0,0,0-1.8-1.8H23.06a1.8,1.8,0,0,0-1.8,1.8V29.93a7.52,7.52,0,0,0-2.89,3.27,7.72,7.72,0,0,0-.19,5.91,7.14,7.14,0,0,0,4.16,4.23,8.06,8.06,0,0,0,2.88.54,7.54,7.54,0,0,0,4-14Zm-4,12.15A6.27,6.27,0,0,1,23,41.66a5.36,5.36,0,0,1-3.11-3.17A5.78,5.78,0,0,1,23.06,31V8.37H27.4V31a5.74,5.74,0,0,1-2.17,11.06Z"/><path class="cls-1" d="M24.44,19.49H26a.45.45,0,0,0,0-.9H24.44a.45.45,0,0,0,0,.9Z"/><path class="cls-1" d="M24.44,11.62H26a.45.45,0,0,0,0-.9H24.44a.45.45,0,0,0,0,.9Z"/><path class="cls-1" d="M24.44,15.55H26a.45.45,0,0,0,0-.9H24.44a.45.45,0,0,0,0,.9Z"/></svg>