<svg id="Layer_1" data-name="Layer 1" xmlns="http://www.w3.org/2000/svg" viewBox="0 0 50.46 50.46"><defs><style>.cls-1{fill:#65b4e1;}</style></defs><title>terremoto</title><path class="cls-1" d="M8.58,31.83s.17.46.19.51a.66.66,0,0,0,.87.31.66.66,0,0,0,.32-.86l-.15-.39h0A3,3,0,0,1,10.74,28a2.57,2.57,0,0,0,1-1.44A2.28,2.28,0,0,0,11.59,25l-.1-.27a1.78,1.78,0,0,1-.14-1.23,4.09,4.09,0,0,1,.42-.66.66.66,0,0,0-.06-.92.66.66,0,0,0-.93.05A4.78,4.78,0,0,0,10.11,23a3,3,0,0,0,.15,2.09l.1.28a1.05,1.05,0,0,1,.1.77,1.33,1.33,0,0,1-.57.78,4.29,4.29,0,0,0-1.3,4.87Z"/><path class="cls-1" d="M5.38,31.43a.66.66,0,0,0,.87.31.66.66,0,0,0,.32-.86,3,3,0,0,1-.11-1.76,2.76,2.76,0,0,1,1-1.57,2.57,2.57,0,0,0,1-1.44,2.31,2.31,0,0,0-.13-1.56l-.06-.16,0-.11a1.78,1.78,0,0,1-.14-1.22,4.07,4.07,0,0,1,.42-.66.66.66,0,0,0-.06-.92.66.66,0,0,0-.93.05,4.77,4.77,0,0,0-.68,1.11A3,3,0,0,0,7,24.72l0,.1.06.18a1.05,1.05,0,0,1,.1.77,1.33,1.33,0,0,1-.57.78,4,4,0,0,0-1.44,2.22A4.72,4.72,0,0,0,5.38,31.43Z"/><path class="cls-1" d="M2.74,30.34a.66.66,0,0,0,.82-.88,4,4,0,0,1,0-1.2,2.35,2.35,0,0,1,.94-1.49l.09-.07a2.57,2.57,0,0,0,1-1.44,2.31,2.31,0,0,0-.13-1.56l-.06-.16,0-.11a1.78,1.78,0,0,1-.14-1.22,1.26,1.26,0,0,1,.22-.38.66.66,0,0,0-.06-.92.65.65,0,0,0-.47-.17.65.65,0,0,0-.45.22,2.7,2.7,0,0,0-.47.82,3,3,0,0,0,.15,2.09l0,.1.06.18a1.05,1.05,0,0,1,.1.77,1.33,1.33,0,0,1-.57.78A3.9,3.9,0,0,0,2.37,30,.65.65,0,0,0,2.74,30.34Z"/><path class="cls-1" d="M41.13,25.58a.65.65,0,0,0-.5,0,.66.66,0,0,0-.29.88,4.06,4.06,0,0,1,.24.74,1.79,1.79,0,0,1-.45,1.16l-.06.09-.1.14a2.31,2.31,0,0,0-.51,1.47,2.57,2.57,0,0,0,.59,1.64,3,3,0,0,1,0,3.56l-.24.34a.66.66,0,0,0,.09.92.65.65,0,0,0,.42.15h.06a.65.65,0,0,0,.44-.24L41.2,36a4.29,4.29,0,0,0-.06-5,1.33,1.33,0,0,1-.36-.9,1.06,1.06,0,0,1,.29-.73l.1-.15.06-.09a3,3,0,0,0,.66-2,4.78,4.78,0,0,0-.38-1.24A.65.65,0,0,0,41.13,25.58Z"/><path class="cls-1" d="M43.93,33.93a3,3,0,0,1-.54,1.68.66.66,0,0,0,1,.83,4.73,4.73,0,0,0,.84-2.52,4,4,0,0,0-.85-2.51,1.33,1.33,0,0,1-.36-.9,1.07,1.07,0,0,1,.29-.73l.16-.24a3,3,0,0,0,.66-2,4.74,4.74,0,0,0-.38-1.24.66.66,0,0,0-1.17.59,4.1,4.1,0,0,1,.24.75,1.79,1.79,0,0,1-.45,1.16l-.06.09-.1.14a2.31,2.31,0,0,0-.51,1.48,2.57,2.57,0,0,0,.59,1.64A2.76,2.76,0,0,1,43.93,33.93Z"/><path class="cls-1" d="M46.41,32.13A2.35,2.35,0,0,1,47,33.81h0a4,4,0,0,1-.3,1.16.66.66,0,0,0,.09.92.65.65,0,0,0,.42.15h.06a.65.65,0,0,0,.44-.24,3.9,3.9,0,0,0-.25-4.51,1.33,1.33,0,0,1-.36-.9,1.05,1.05,0,0,1,.29-.72l.16-.24a3,3,0,0,0,.66-2,2.69,2.69,0,0,0-.26-.91.66.66,0,0,0-1.17.59,1.26,1.26,0,0,1,.12.42,1.79,1.79,0,0,1-.45,1.16l-.06.09-.1.14a2.31,2.31,0,0,0-.51,1.48A2.57,2.57,0,0,0,46.35,32Z"/><path class="cls-1" d="M13.06,19.55l14.75-8.14L40.13,22.91a.83.83,0,0,0,1.13-1.22L28.51,9.79a.83.83,0,0,0-1-.12l-7.22,4,.51-4.14a.83.83,0,1,0-1.65-.2l-.67,5.35-6.25,3.44a.83.83,0,1,0,.8,1.46Z"/><path class="cls-1" d="M45.35,40.28h-9l2-16.14a.75.75,0,0,0-.23-.64L27.94,14a.75.75,0,0,0-.87-.11L14.84,20.61a.75.75,0,0,0-.38.56l-2,16.24a.75.75,0,0,0,.65.83l16.4,2h-24a.8.8,0,0,0,0,1.61H45.35a.8.8,0,1,0,0-1.61ZM21.57,37.78l1.27-10.28,5.85.73L27.42,38.51Zm7,.87L30,27.79a.6.6,0,0,0-.52-.66l-7-.87a.6.6,0,0,0-.66.52L20.39,37.64,14,36.85,15.9,21.73l11.41-6.3,9.53,8.89L35,39.45Z"/></svg>