<svg id="Layer_1" data-name="Layer 1" xmlns="http://www.w3.org/2000/svg" viewBox="0 0 50.46 50.46"><defs><style>.cls-1{fill:#12b5e1;}</style></defs><title>tomate</title><path class="cls-1" d="M19.93,8.33c.27.09,4.1,1.53,4.42,5.52a.83.83,0,0,0,.71.74h0a.85.85,0,0,0,1-.91,7.81,7.81,0,0,0-5.57-7,.85.85,0,0,0-.54,1.62Z"/><path class="cls-1" d="M14.6,32.15a.83.83,0,0,0,.51.19.76.76,0,0,0,.57-.26A.75.75,0,0,0,15.61,31a3.86,3.86,0,0,1-.76-4.38.76.76,0,1,0-1.28-.83A5.32,5.32,0,0,0,14.6,32.15Z"/><path class="cls-1" d="M14.73,23.81a.77.77,0,0,0,.13,1.07.77.77,0,0,0,1.07-.13l.05-.06a.73.73,0,0,0-.15-1A.8.8,0,0,0,14.73,23.81Z"/><path class="cls-1" d="M15.59,16.1h.22A11.92,11.92,0,0,1,17.75,16l.63,0a5,5,0,0,0-.66,1,4.38,4.38,0,0,0-.16,3.54,1.39,1.39,0,0,0,1.3.93h0a1.41,1.41,0,0,0,1.31-.95,3.72,3.72,0,0,1,2.45-1.89,9.15,9.15,0,0,0,2,4.07,1.36,1.36,0,0,0,1.06.5h.14A1.38,1.38,0,0,0,27,22.42a6.74,6.74,0,0,0,.85-4,4.62,4.62,0,0,1,2.64,1.68,1.4,1.4,0,0,0,1.18.67,1.55,1.55,0,0,0,.31,0A1.39,1.39,0,0,0,33,19.56a4.83,4.83,0,0,0-1.48-4.15c.21,0,.44,0,.66,0a11.2,11.2,0,0,1,1.51.1l.2,0a1.41,1.41,0,0,0,1.27-.8,1.39,1.39,0,0,0-.33-1.63,8.49,8.49,0,0,0-5.31-1.95,7.5,7.5,0,0,0-1.58.17.69.69,0,0,0-.52.83h0a.68.68,0,0,0,.8.52,6,6,0,0,1,1.29-.14,6.94,6.94,0,0,1,4.39,1.6,12.21,12.21,0,0,0-1.7-.13,7,7,0,0,0-4.16,1s4,.91,3.58,4.37c0,0-1.54-2.56-5.74-2.61a5.16,5.16,0,0,1-.17,4.95,6.73,6.73,0,0,1-1.81-4.85c-4.14.43-5.05,3.12-5.05,3.12-1.2-3.39,3-4.57,3-4.57a8.65,8.65,0,0,0-4.08-.87,15.2,15.2,0,0,0-2.15.13c1-1.31,3.12-1.77,4.52-1.76A5.49,5.49,0,0,1,21,13a.69.69,0,0,0,.78-.47h0a.71.71,0,0,0-.57-.91,6.89,6.89,0,0,0-1.1-.09,7.36,7.36,0,0,0-5.62,2.29,1.39,1.39,0,0,0,1.07,2.25Z"/><path class="cls-1" d="M44.58,25a12.64,12.64,0,0,0-6.41-9.81,1.11,1.11,0,0,0-1,2,10.54,10.54,0,0,1,5.25,8.14,17.19,17.19,0,0,1,.12,2.13c0,7.65-7.91,14.12-17.27,14.12C16,41.58,8,34.81,8,27.1a13.28,13.28,0,0,1,.15-1.94,10.57,10.57,0,0,1,4.52-7.56,1.1,1.1,0,1,0-1.16-1.88,12.74,12.74,0,0,0-5.55,9.15,14.78,14.78,0,0,0-.17,2.23c0,9,8.93,16.68,19.5,16.68s19.48-7.47,19.48-16.32A19.75,19.75,0,0,0,44.58,25Z"/></svg>