<svg id="Layer_1" data-name="Layer 1" xmlns="http://www.w3.org/2000/svg" viewBox="0 0 50.46 50.46"><defs><style>.cls-1{fill:#12b5e1;}</style></defs><title>tramite electrónico</title><path class="cls-1" d="M16.42,21.52l-.44,0a5.33,5.33,0,0,1-1-.09v8.41l1.42-1.42Z"/><path class="cls-1" d="M16.42,9.27V8.41a1.79,1.79,0,0,1,1.79-1.79H33.05l0,4.64a.81.81,0,0,0,.82.8c.29,0,2.26,0,4,0v6.69a3.9,3.9,0,0,1,1.38.81l0-8.74v-.07L34.1,5.25l-.05,0H18.21A3.21,3.21,0,0,0,15,8.41v.92a6.37,6.37,0,0,1,1-.08Zm20.42,1.2H34.67V8.09Z"/><path class="cls-1" d="M27.94,37.47a.78.78,0,0,0-.87.17l-2,2a.8.8,0,0,0,1.13,1.13l.66-.66v2.37a.8.8,0,0,0,1.6,0v-4.3a.79.79,0,0,0-.49-.74"/><path class="cls-1" d="M17.56,35.63a.8.8,0,0,0,1.6,0V29.37a.79.79,0,0,0-1.36-.56l-2,2a.8.8,0,0,0,0,1.13.79.79,0,0,0,1.13,0l.66-.66Z"/><path class="cls-1" d="M22.29,23.15l.66-.66v4.32a.8.8,0,1,0,1.6,0V20.55A.79.79,0,0,0,23.19,20l-2,2a.8.8,0,0,0,1.13,1.13"/><path class="cls-1" d="M31.42,28.63a.8.8,0,0,0-.87.18l-2,2a.8.8,0,0,0,0,1.13.79.79,0,0,0,1.13,0l.66-.66v4.33a.8.8,0,1,0,1.6,0V29.37a.81.81,0,0,0-.49-.74"/><path class="cls-1" d="M26.58,33.68V31.32a2.75,2.75,0,0,0-2.75-2.75h0A2.75,2.75,0,0,0,21,31.32v2.36a2.76,2.76,0,0,0,2.75,2.75h0a2.75,2.75,0,0,0,2.75-2.75m-1.6,0a1.15,1.15,0,0,1-1.15,1.15h0a1.16,1.16,0,0,1-1.15-1.15V31.32a1.16,1.16,0,0,1,1.15-1.15h0A1.15,1.15,0,0,1,25,31.32Z"/><path class="cls-1" d="M36.64,28.57h0a2.75,2.75,0,0,0-2.75,2.75v2.36a2.75,2.75,0,0,0,2.75,2.75h0a2.75,2.75,0,0,0,2.75-2.75V31.32a2.75,2.75,0,0,0-2.75-2.75m1.15,5.11a1.16,1.16,0,0,1-1.15,1.15h0a1.16,1.16,0,0,1-1.15-1.15V31.32a1.16,1.16,0,0,1,1.15-1.15h0a1.16,1.16,0,0,1,1.15,1.15Z"/><path class="cls-1" d="M29.22,19.75h0a2.75,2.75,0,0,0-2.75,2.75v2.36a2.75,2.75,0,0,0,2.75,2.75h0a.8.8,0,0,0,0-1.6h0A1.16,1.16,0,0,1,28,24.86V22.5a1.15,1.15,0,0,1,1.15-1.14h0a1.15,1.15,0,0,1,1.15,1.14.8.8,0,1,0,1.6,0,2.75,2.75,0,0,0-2.75-2.75"/><path class="cls-1" d="M36.64,19.75h0a2.76,2.76,0,0,0-2.75,2.76v2.35a2.75,2.75,0,0,0,2.75,2.75h0a2.75,2.75,0,0,0,2.75-2.75V22.51a2.76,2.76,0,0,0-2.75-2.76m1.15,5.11A1.16,1.16,0,0,1,36.64,26h0a1.16,1.16,0,0,1-1.15-1.15V22.51a1.16,1.16,0,0,1,1.15-1.16h0a1.16,1.16,0,0,1,1.15,1.16Z"/><path class="cls-1" d="M20.09,37.41h0a2.75,2.75,0,0,0-2.75,2.75v2.35a2.75,2.75,0,0,0,2.75,2.75h0a2.75,2.75,0,0,0,2.75-2.75V40.16a2.75,2.75,0,0,0-2.75-2.75m1.15,5.1a1.14,1.14,0,0,1-1.15,1.15h0a1.15,1.15,0,0,1-1.15-1.15V40.16A1.15,1.15,0,0,1,20.05,39h0a1.14,1.14,0,0,1,1.15,1.15Z"/><path class="cls-1" d="M16,10.48a4.92,4.92,0,1,0,4.92,4.91A4.91,4.91,0,0,0,16,10.48Zm2.35,5.43c-.62.66-1.26,1.31-1.91,1.95a.6.6,0,0,1-.89,0,.61.61,0,0,1,0-.87c.23-.28.49-.53.81-.87-.8,0-1.5,0-2.2,0a.94.94,0,0,1-.63-.38.65.65,0,0,1,.06-.6.91.91,0,0,1,.62-.27c.7,0,1.4,0,2.2,0-.31-.31-.56-.54-.79-.79a.62.62,0,0,1,0-1,.62.62,0,0,1,.93.05c.62.6,1.24,1.21,1.84,1.83A.59.59,0,0,1,18.33,15.91Z"/></svg>