<svg id="Layer_1" data-name="Layer 1" xmlns="http://www.w3.org/2000/svg" viewBox="0 0 50.46 50.46"><defs><style>.cls-1{fill:#12b5e1;}</style></defs><title>tromba marina</title><path class="cls-1" d="M20,10.66a27.84,27.84,0,0,1,5.22-.47c4.21,0,8.12.87,10,2.2a.91.91,0,0,0,1.26-.2.91.91,0,0,0-.2-1.26c-2.16-1.56-6.38-2.54-11-2.54a29.6,29.6,0,0,0-5.55.5A.9.9,0,1,0,20,10.66Z"/><path class="cls-1" d="M12.63,14.38a2.09,2.09,0,0,0,0,.35c0,1.31,1,2.39,2.54,3.21a2.33,2.33,0,0,0-.16.81c0,1.38,1.26,2.43,3.15,3.15a2.19,2.19,0,0,0,0,.43c0,1.51,1.64,3.48,4,3.9a14.78,14.78,0,0,0,2.62.22c.33,0,.47.07.49.1.29.66-1.13,3.18-1.76,3.89a.91.91,0,0,0,0,1.24.68.68,0,0,0,.5.18c1.38,0,4.36-2.5,5.35-3.35,3.46-3,3.64-5.18,3-6.59,1.92-.71,3.21-1.77,3.21-3.17a2.09,2.09,0,0,0-.16-.81c1.56-.83,2.54-1.9,2.54-3.21,0-.12,0-.23,0-.35,1.85-.93,2.95-2.08,2.95-3.32,0-3.13-7-5.67-15.56-5.67S9.67,7.93,9.67,11.06C9.67,12.3,10.77,13.45,12.63,14.38Zm18.11,9.36c-.34,1.47-2.24,3.22-4,4.55a3.42,3.42,0,0,0,.13-2.48,2.12,2.12,0,0,0-2.13-1.16,13.06,13.06,0,0,1-2.3-.19,3.09,3.09,0,0,1-2.5-2,23.61,23.61,0,0,0,5.31.58,24,24,0,0,0,5.27-.57A1.49,1.49,0,0,1,30.74,23.74Zm2.95-5c0,.83-3,2.45-8.46,2.45s-8.46-1.62-8.46-2.45a.29.29,0,0,1,0-.09,26.44,26.44,0,0,0,8.44,1.27,26.44,26.44,0,0,0,8.44-1.27A.29.29,0,0,1,33.69,18.75Zm-8.46-.62c-5.95,0-10-1.62-10.7-3a33.7,33.7,0,0,0,10.7,1.56,33.7,33.7,0,0,0,10.7-1.56C35.18,16.51,31.18,18.13,25.23,18.13Zm0-10.94C34.17,7.19,39,9.94,39,11.06s-4.82,3.87-13.76,3.87-13.76-2.74-13.76-3.87S16.29,7.19,25.23,7.19Z"/><path class="cls-1" d="M45.09,37.13a4.13,4.13,0,0,1-3.74-2.47,1.29,1.29,0,0,0-2.44,0,4.08,4.08,0,0,1-7.5,0,1.36,1.36,0,0,0-1.21-.88h0a1.39,1.39,0,0,0-1.22.88,4.07,4.07,0,0,1-7.49,0,1.35,1.35,0,0,0-1.21-.88,1.38,1.38,0,0,0-1.23.88,4.13,4.13,0,0,1-3.74,2.47,4.05,4.05,0,0,1-3.76-2.33,1.45,1.45,0,0,0-1.28-.93h0a1.29,1.29,0,0,0-1.16.81,4.11,4.11,0,0,1-3.73,2.45.8.8,0,0,0,0,1.6,5.68,5.68,0,0,0,4.91-2.86,5.69,5.69,0,0,0,5,2.86,5.77,5.77,0,0,0,5-2.95,5.65,5.65,0,0,0,9.93,0,5.67,5.67,0,0,0,5,2.95,5.79,5.79,0,0,0,5-2.95,5.73,5.73,0,0,0,5,2.95.8.8,0,0,0,0-1.6Z"/><path class="cls-1" d="M40.13,43.47A4.13,4.13,0,0,1,36.38,41a1.37,1.37,0,0,0-1.22-.88h0a1.36,1.36,0,0,0-1.22.87,4.07,4.07,0,0,1-7.49,0A1.29,1.29,0,0,0,24,41a4.12,4.12,0,0,1-3.74,2.48,4.07,4.07,0,0,1-3.77-2.33,1.44,1.44,0,0,0-1.27-.93h0a1.3,1.3,0,0,0-1.16.8,4.13,4.13,0,0,1-3.74,2.46.8.8,0,1,0,0,1.6,5.67,5.67,0,0,0,4.92-2.87,5.66,5.66,0,0,0,5,2.87,5.76,5.76,0,0,0,5-3,5.65,5.65,0,0,0,9.93,0,5.67,5.67,0,0,0,5,3,.8.8,0,1,0,0-1.6Z"/></svg>