<svg id="Layer_1" data-name="Layer 1" xmlns="http://www.w3.org/2000/svg" viewBox="0 0 50.46 50.46"><defs><style>.cls-1{fill:#12b5e1;}</style></defs><title>vehiculo autorizado 02</title><path class="cls-1" d="M9.21,15a1.05,1.05,0,0,0,.65.23,1,1,0,0,0,.76-.33l4.23-4.57a1,1,0,0,0-.06-1.47,1,1,0,0,0-1.46.06L9.76,12.73l-2.46-2A1,1,0,1,0,6,12.37Z"/><path class="cls-1" d="M31.48,25.1h-.11a.9.9,0,1,0,0,1.8h.11a.9.9,0,0,0,0-1.8Z"/><path class="cls-1" d="M15.5,32.12A2.84,2.84,0,1,0,18.34,35,2.84,2.84,0,0,0,15.5,32.12Zm0,4A1.12,1.12,0,1,1,16.62,35,1.12,1.12,0,0,1,15.5,36.08Z"/><path class="cls-1" d="M36.25,32.12A2.84,2.84,0,1,0,39.08,35,2.84,2.84,0,0,0,36.25,32.12Zm0,4A1.12,1.12,0,1,1,37.36,35,1.12,1.12,0,0,1,36.25,36.08Z"/><path class="cls-1" d="M43.93,15.36H43V10a1.79,1.79,0,0,0-1.18-1.69,48.64,48.64,0,0,0-16-2.41,57.53,57.53,0,0,0-9.33.75A8.21,8.21,0,1,0,5.67,18.88v3.53a2.14,2.14,0,0,0,2.14,2.14h.9V39a2.9,2.9,0,0,0,2.9,2.9h.15v2.82A2.29,2.29,0,0,0,14.05,47h2.89a2.29,2.29,0,0,0,2.29-2.28V41.9H32.51v2.82A2.29,2.29,0,0,0,34.8,47h2.89A2.29,2.29,0,0,0,40,44.72V41.9h.15A2.9,2.9,0,0,0,43,39V24.55h.9a2.14,2.14,0,0,0,2.15-2.14V17.5A2.14,2.14,0,0,0,43.93,15.36ZM4.08,12.25a6.43,6.43,0,1,1,6.43,6.42A6.44,6.44,0,0,1,4.08,12.25Zm3.73,10.5a.34.34,0,0,1-.34-.34V19.88a7.42,7.42,0,0,0,1.24.38v2.49Zm9.62,22a.49.49,0,0,1-.49.48H14.05a.49.49,0,0,1-.49-.48V41.9h3.87Zm20.75,0a.49.49,0,0,1-.49.48H34.8a.49.49,0,0,1-.49-.48V41.9h3.87Zm3-5.72a1.1,1.1,0,0,1-1.1,1.1H11.61a1.1,1.1,0,0,1-1.1-1.1V20.47a7.84,7.84,0,0,0,2-.25V26a.9.9,0,0,0,.9.9H28.07a.9.9,0,0,0,0-1.8H14.26V19.55a8.23,8.23,0,0,0,4.45-6.82H36.56a.92.92,0,0,1,.92.92V25.1H33.71a.9.9,0,0,0,0,1.8h4.67a.9.9,0,0,0,.9-.9V13.65a2.72,2.72,0,0,0-2.72-2.72h-18a8.05,8.05,0,0,0-.88-2.61,56.91,56.91,0,0,1,8.14-.59A47.13,47.13,0,0,1,41.23,10Zm3.05-16.59a.35.35,0,0,1-.35.34H43V17.16h.9a.35.35,0,0,1,.35.34Z"/></svg>