<svg id="Layer_1" data-name="Layer 1" xmlns="http://www.w3.org/2000/svg" viewBox="0 0 50.46 50.46"><defs><style>.cls-1{fill:#12b5e1;}</style></defs><title>viajero</title><path class="cls-1" d="M44.21,20.43a2.13,2.13,0,0,0-1.7-.3c-.95.1-3.27,1.17-8.63-4.75a4.35,4.35,0,0,0-3.62-1.61h0a4.67,4.67,0,0,0-2.69,1c-3.05,2.26-6.89,8.79-8,11A2,2,0,0,0,20,28.18L18.41,31l-3.72-2.15a1.82,1.82,0,0,0-2.49.66L5.69,40.75a1.84,1.84,0,0,0,.67,2.5L7.7,44a2.68,2.68,0,0,0,5,1.75,2.67,2.67,0,0,0,.19-2.27l8.6-14.87a2,2,0,0,0,1.59-1.05,48.88,48.88,0,0,1,3.76-6.23,20.88,20.88,0,0,1,.26,4.83,8.11,8.11,0,0,0,.16,3.2,4.41,4.41,0,0,0,.66,1L20.63,43.59a2,2,0,0,0,1.72,2.91,2,2,0,0,0,1.72-1l7.17-13,7.73,13a2,2,0,0,0,1.69,1,2,2,0,0,0,1-.27,2,2,0,0,0,.69-2.7L34.57,30.41a3.26,3.26,0,0,0,.81-2.8l-.49-6.08a12.12,12.12,0,0,0,7,2.59,6.17,6.17,0,0,0,1.66-.2,1.89,1.89,0,0,0,1.11-.74A2,2,0,0,0,44.21,20.43ZM11.41,45A1.23,1.23,0,1,1,11,43.37,1.22,1.22,0,0,1,11.41,45Z"/><circle class="cls-1" cx="30.33" cy="8.12" r="4.78"/></svg>