<svg id="Layer_1" data-name="Layer 1" xmlns="http://www.w3.org/2000/svg" viewBox="0 0 50.46 50.46"><defs><style>.cls-1{fill:#65b4e1;}</style></defs><title>vivienda credito</title><path class="cls-1" d="M25.7,13.71a.8.8,0,0,0-.94,0l-12.14,8.8a.8.8,0,0,0-.33.65V40.74a.8.8,0,0,0,.8.8H37.37a.8.8,0,0,0,.8-.8V23.16a.8.8,0,0,0-.33-.65ZM36.57,39.94H13.89V23.57l11.34-8.22,11.34,8.22Z"/><path class="cls-1" d="M40.93,20.17l-15.18-11a.89.89,0,0,0-1,0l-7.17,5.2V9.89a.89.89,0,1,0-1.79,0v5.79L9.53,20.17a.89.89,0,0,0,1,1.45L25.23,11,39.88,21.62a.89.89,0,0,0,1-1.45Z"/><path class="cls-1" d="M15.55,29.58a9.68,9.68,0,1,0,9.68-9.68A9.69,9.69,0,0,0,15.55,29.58Zm17.85,0a8.17,8.17,0,1,1-8.17-8.17A8.18,8.18,0,0,1,33.4,29.58Z"/><path class="cls-1" d="M24.92,23.12v1.46a3.14,3.14,0,0,0-2,.86,2.53,2.53,0,0,0-.73,1.87A2.48,2.48,0,0,0,23,29.22a6.66,6.66,0,0,0,2.24,1.23,2.9,2.9,0,0,1,1.08.65,1.28,1.28,0,0,1,.32.9,1.2,1.2,0,0,1-.33.89,1.28,1.28,0,0,1-.95.33,1.49,1.49,0,0,1-1.06-.39,1.72,1.72,0,0,1-.42-1.31H21.9v0a2.87,2.87,0,0,0,.8,2.27,3.51,3.51,0,0,0,2.1.9V36h1.08V34.7a3.21,3.21,0,0,0,2-.84A2.51,2.51,0,0,0,28.58,32a2.44,2.44,0,0,0-.73-1.88,7.19,7.19,0,0,0-2.23-1.26,3.08,3.08,0,0,1-1.11-.65,1.22,1.22,0,0,1-.3-.86,1.32,1.32,0,0,1,.29-.89,1.09,1.09,0,0,1,.87-.34,1.07,1.07,0,0,1,.9.44,2,2,0,0,1,.33,1.24h1.93l0,0a3.16,3.16,0,0,0-.67-2.13,2.89,2.89,0,0,0-1.87-1V23.12Z"/></svg>