<svg id="Layer_1" data-name="Layer 1" xmlns="http://www.w3.org/2000/svg" viewBox="0 0 50.46 50.46"><defs><style>.cls-1{fill:#12b5e1;}</style></defs><title>zanahorias</title><path class="cls-1" d="M23.93,29.42c-.67-.59-1.13-.19-1.26-.05a.81.81,0,0,0,0,1.11l.12.13c.66.62,1.14.22,1.27.08A.82.82,0,0,0,24,29.45Z"/><path class="cls-1" d="M15.07,31a.82.82,0,0,0-1.1-.28A.83.83,0,0,0,13.72,32l.09.14a.8.8,0,0,0,1,.16.87.87,0,0,0,.33-1.12Z"/><path class="cls-1" d="M35.52,25.15a6.18,6.18,0,0,0-.49-2A1.09,1.09,0,0,0,33,24a3.82,3.82,0,0,1,.31,1.27,5.62,5.62,0,0,1-3.14,5.19L19.63,36.05a9.87,9.87,0,0,1-3.29-2.93.8.8,0,0,0-1.14-.18A.82.82,0,0,0,15,34.08c.17.24.37.49.59.75a11.08,11.08,0,0,0,2.31,2.11L8.52,41.88a2.13,2.13,0,0,1-2.76-.29,2.13,2.13,0,0,1,.17-2.78L17.65,23.55A19.19,19.19,0,0,0,20.44,28h0a.81.81,0,1,0,1.25-1A15.81,15.81,0,0,1,18.81,22l2.05-2.66a5.6,5.6,0,0,1,5.82-2.17A3.83,3.83,0,0,1,28,17.9a1.08,1.08,0,0,0,1.37-1.68,5.91,5.91,0,0,0-2.06-1.09,7.83,7.83,0,0,0-8.17,2.92L4.21,37.49A4.31,4.31,0,0,0,4.1,43a4.3,4.3,0,0,0,5.43.82l21.69-11.4A7.81,7.81,0,0,0,35.52,25.15Z"/><path class="cls-1" d="M43.1,14.36l.75-.4c1.93-.91,3.07-2.09,3.37-3.48a3.5,3.5,0,0,0-.73-3,3.42,3.42,0,0,0-3.42-1.18h0a5.38,5.38,0,0,0-2.6,1.72,2.85,2.85,0,0,0-1.67-1.79,2.71,2.71,0,0,0-2.24.05,4,4,0,0,0-1.91,2.76c-.65,2.34-2.26,8-2.72,9.67l-.18.22a.7.7,0,0,0-.16-.4.71.71,0,0,0-1-.08c-.57.48-.49,1.43.2,2.25s1.61,1.06,2.18.58a.7.7,0,0,0,.09-1,.81.81,0,0,0-.31-.21c.86-.46,2.61-1.44,4.59-2.56L40.17,16a3,3,0,0,1,2.31-.36,1.17,1.17,0,0,1,.61.78,1.07,1.07,0,0,1-.19.86,2,2,0,0,1-1.52.59h-.52l-1.44-.06a.69.69,0,0,0-.72.67.7.7,0,0,0,.67.73l1.43.06c.23,0,.45,0,.64,0h0A3.24,3.24,0,0,0,44,18.12a2.53,2.53,0,0,0,.46-2A2.61,2.61,0,0,0,43.1,14.36ZM36,9.45a2.83,2.83,0,0,1,1.18-1.87,1.34,1.34,0,0,1,1.1,0,1.48,1.48,0,0,1,.85.9,2.67,2.67,0,0,1-.52,2c-1.4,1.83-3.09,3.93-4.47,5.61C34.78,13.78,35.58,11,36,9.45Zm7.26,3.24c-.59.28-3.64,2-6.6,3.65l-1.56.88c1.44-1.72,3.19-3.85,4.31-5.39.12-.16.19-.31.29-.47.41-.54.8-1,1.14-1.53A5,5,0,0,1,43.4,7.71h0a2,2,0,0,1,2,.71,2.16,2.16,0,0,1,.44,1.76C45.64,11.11,44.74,12,43.25,12.69Z"/></svg>