<svg id="Layer_1" data-name="Layer 1" xmlns="http://www.w3.org/2000/svg" viewBox="0 0 316.01 122.97"><defs><style>.cls-1{fill:#ffc60b;}.cls-2{fill:#231f20;}.cls-3{fill:#59aa47;}.cls-4{fill:#05b4e9;}.cls-5{fill:#fff;}.cls-6{fill:#ef4123;}.cls-7{fill:#fcbc80;}.cls-8{fill:#010101;}</style></defs><title>argentina-presidencia-logo</title><path class="cls-1" d="M49.41,24.25a8,8,0,0,1,3.13.69l.15,0c.56.09,1.67.27,2.9.35h.3a8.69,8.69,0,0,1-1.62-.74c-.31-.17-.63-.34-1-.51a10.88,10.88,0,0,0-2.5-.77.32.32,0,0,1-.28-.32.34.34,0,0,1,.28-.33l5.66-.84L50.77,21a.32.32,0,0,1-.27-.25.33.33,0,0,1,.15-.35,7.53,7.53,0,0,1,2.21-.86c.55-.13,1.65-.39,2.82-.79l.28-.11a8.56,8.56,0,0,1-1.78-.06c-.35,0-.71-.07-1.12-.09a10.85,10.85,0,0,0-2.6.25.33.33,0,0,1-.25-.6l4.91-2.94-5.54,1.41a.32.32,0,0,1-.35-.13.33.33,0,0,1,0-.38,8.14,8.14,0,0,1,1.71-1.65,25.47,25.47,0,0,0,2.3-1.8l.22-.21a8.66,8.66,0,0,1-1.67.63c-.34.1-.68.2-1.06.34a11.39,11.39,0,0,0-2.31,1.23.32.32,0,0,1-.43,0,.31.31,0,0,1,0-.42l3.41-4.6L46.79,13a.33.33,0,0,1-.52-.33,7.43,7.43,0,0,1,.95-2.18A24.9,24.9,0,0,0,48.65,8c0-.1.09-.19.13-.28a8.63,8.63,0,0,1-1.31,1.22c-.28.23-.55.45-.84.73a10.94,10.94,0,0,0-1.67,2,.32.32,0,0,1-.41.13.33.33,0,0,1-.19-.38l1.4-5.55-2.93,4.92a.32.32,0,0,1-.34.15.31.31,0,0,1-.26-.26,7.35,7.35,0,0,1,0-2.38,28.49,28.49,0,0,0,.34-2.91c0-.1,0-.2,0-.3a8.18,8.18,0,0,1-.74,1.63c-.16.31-.33.62-.5,1a10.65,10.65,0,0,0-.76,2.5.33.33,0,0,1-.33.28.32.32,0,0,1-.32-.28l-.82-5.62-.79,5.62a.33.33,0,0,1-.26.27.35.35,0,0,1-.35-.14,7.67,7.67,0,0,1-.86-2.22,28.32,28.32,0,0,0-.79-2.81c0-.1-.07-.19-.1-.29a9.4,9.4,0,0,1-.07,1.79c0,.34-.07.7-.08,1.11a10.94,10.94,0,0,0,.24,2.61.32.32,0,0,1-.59.24l-3-4.91L34,11.38a.31.31,0,0,1-.13.35.33.33,0,0,1-.38,0A7.49,7.49,0,0,1,31.8,10,25.47,25.47,0,0,0,30,7.72l-.21-.22a8.42,8.42,0,0,1,.63,1.67c.1.33.2.68.34,1.06A11.29,11.29,0,0,0,32,12.54a.32.32,0,0,1-.45.46L26.93,9.59l3.43,4.58a.33.33,0,0,1,0,.38.32.32,0,0,1-.34.14,7.53,7.53,0,0,1-2.19-1,26.67,26.67,0,0,0-2.55-1.43L25,12.18a8.59,8.59,0,0,1,1.22,1.3,10.73,10.73,0,0,0,.73.85A11.22,11.22,0,0,0,29,16a.32.32,0,0,1,.13.4.31.31,0,0,1-.38.19L23.18,15.2l4.92,2.93a.32.32,0,0,1-.11.6,7.68,7.68,0,0,1-2.38,0,24.83,24.83,0,0,0-2.9-.35h-.3a8.69,8.69,0,0,1,1.62.74c.3.16.62.33,1,.5a10.55,10.55,0,0,0,2.5.77.31.31,0,0,1,.28.32.32.32,0,0,1-.28.32l-5.66.84,5.67.82a.34.34,0,0,1,.27.26.32.32,0,0,1-.15.34,7.25,7.25,0,0,1-2.21.88,25.78,25.78,0,0,0-2.81.79l-.29.11a8.69,8.69,0,0,1,1.79.05l1.11.09a8.75,8.75,0,0,0,.88,0l.07,0a13.15,13.15,0,0,1,4.05-1.81.64.64,0,0,1,.81.56,8.77,8.77,0,0,1,.92-.46,13.41,13.41,0,0,1,4.26-1,.64.64,0,0,1,.69.58,10.63,10.63,0,0,1,1.45-.42,13.82,13.82,0,0,1,4.38-.06.65.65,0,0,1,.49.36.49.49,0,0,1,.06.17,7.75,7.75,0,0,1,1.38-.09,13.34,13.34,0,0,1,4.29.81.64.64,0,0,1,.42.47v0"/><path class="cls-2" d="M41.16,17.09c5.51-.88,6.12.71,6.12.71a.47.47,0,0,0,.59.25s.37,0,.19-.48c0,0-.61-1.81-3.54-2.12a11.66,11.66,0,0,0-3.16.09c-.49.09-.63,1.17-.63,1.17-.07.48.43.38.43.38"/><path class="cls-2" d="M36.46,18.16a6.64,6.64,0,0,0-2.21-.24c-2.49.08-3.14,1.63-3.14,1.63-.22.51.22.56.22.56a.56.56,0,0,0,.69-.29s.14-.44,1.16-.69a1.4,1.4,0,0,0-.09.47,1.28,1.28,0,0,0,2.55,0,1.18,1.18,0,0,0-.1-.5,1.6,1.6,0,0,1,.91.82c.09.18.28.26.76.26s.38-.33.38-.33a2.4,2.4,0,0,0-1.13-1.69"/><path class="cls-2" d="M41.05,20.18c.47,0,.66-.08.75-.26a1.63,1.63,0,0,1,.91-.82,1.35,1.35,0,0,0-.1.5,1.28,1.28,0,0,0,2.55,0,1.19,1.19,0,0,0-.09-.47c1,.25,1.17.69,1.17.69a.56.56,0,0,0,.69.29s.43-.05.21-.56c0,0-.65-1.55-3.14-1.63a6.66,6.66,0,0,0-2.21.24,2.43,2.43,0,0,0-1.13,1.69s-.12.33.39.33"/><path class="cls-2" d="M30.39,18.05A.48.48,0,0,0,31,17.8s.6-1.59,6.11-.71c0,0,.5.1.43-.38,0,0-.13-1.08-.62-1.17a11.72,11.72,0,0,0-3.17-.09c-2.93.31-3.53,2.12-3.53,2.12-.19.44.19.48.19.48"/><path class="cls-3" d="M25.65,30.91a9.6,9.6,0,0,0-2.47.15.49.49,0,0,1-.49-.2.47.47,0,0,1,0-.53,7.52,7.52,0,0,0,1.24-3.64s0,0,0,0,0,0,0,0c-3.68,2.65-3.94,5.43-3.88,6.51a0,0,0,0,0,0,0h.24A9.39,9.39,0,0,0,25.67,31a.06.06,0,0,0,0,0l0,0"/><path class="cls-3" d="M30.36,28.64a8.9,8.9,0,0,0-1.29-.26,10.48,10.48,0,0,0-1.22-.09h0A.49.49,0,0,1,27.4,28a.48.48,0,0,1,.13-.53,7.74,7.74,0,0,0,2.16-2.75s0,0,0,0h0c-4.28,1.45-5.21,4-5.42,5,0,0,0,0,0,0a6.33,6.33,0,0,0,1.7.22,8.75,8.75,0,0,0,2.88-.52,11.82,11.82,0,0,0,1.53-.64s0,0,0,0,0,0,0,0"/><path class="cls-3" d="M35.49,27.26a10.3,10.3,0,0,0-2.39-.8.48.48,0,0,1-.12-.9,6.62,6.62,0,0,0,2.46-1.88,0,0,0,0,0,0,0s0,0,0,0a8.84,8.84,0,0,0-5,2.15,4.57,4.57,0,0,0-1,1.47s0,0,0,0a6.83,6.83,0,0,0,2.86.59,10.12,10.12,0,0,0,1.66-.15,11.43,11.43,0,0,0,1.58-.4s0,0,0,0a0,0,0,0,0,0,0"/><path class="cls-3" d="M38.83,25.81a.48.48,0,0,1,0-.91,8.42,8.42,0,0,0,2.73-1.32.06.06,0,0,0,0,0l0,0a8.78,8.78,0,0,0-5.28,1A4.5,4.5,0,0,0,35,25.78s0,0,0,0a8,8,0,0,0,4.79,1.37c.45,0,.85,0,1.19-.06l0,0s0,0,0,0a8.21,8.21,0,0,0-2.16-1.26"/><path class="cls-3" d="M44.45,26.19a.48.48,0,0,1-.2-.51.49.49,0,0,1,.41-.36,9.69,9.69,0,0,0,2.9-.76s0,0,0,0l0,0a8.9,8.9,0,0,0-5.32,0,4.56,4.56,0,0,0-1.54.94,0,0,0,0,0,0,.05A7.58,7.58,0,0,0,46.32,28h0s0,0,0,0,0,0,0,0a10.55,10.55,0,0,0-1.9-1.77"/><path class="cls-3" d="M58.42,33.19a0,0,0,0,0,0,0A6.21,6.21,0,0,0,58,30.82a5.91,5.91,0,0,0-3.89-3.45h0s0,0,0,0a10,10,0,0,0,1.52,2.86.48.48,0,0,1,0,.56.47.47,0,0,1-.51.2,6.78,6.78,0,0,0-2.45,0,0,0,0,0,0,0,0s0,0,0,0c1.22.81,3.51,2.13,5.48,2.13h.25"/><path class="cls-3" d="M54,29.72s0,0,0,0a5,5,0,0,0-4.07-1.56,7.73,7.73,0,0,0-1.74.33l0,0a0,0,0,0,0,0,0,6.49,6.49,0,0,0,4,1.51h.22A5.31,5.31,0,0,0,54,29.74a0,0,0,0,0,0,0"/><path class="cls-3" d="M46.1,26.27a0,0,0,0,0,0,0,5.05,5.05,0,0,0,3,.87A8.74,8.74,0,0,0,50.67,27a12.26,12.26,0,0,0,2.13-.62s0,0,0,0,0,0,0,0a7.29,7.29,0,0,0-2.38-.86,6.51,6.51,0,0,0-4.3.77s0,0,0,0"/><path class="cls-4" d="M38.14,59.74h-6.7a3.3,3.3,0,0,1-2.69-1.12,3.48,3.48,0,0,1-.7-1.65.77.77,0,0,1,0-.15,6.19,6.19,0,0,1,.1-2,21,21,0,0,1,4.08-9.15,2.14,2.14,0,0,1-.47-.2,2.59,2.59,0,0,1-1.17-2.78,7.4,7.4,0,0,1,1.87-3.19,8.77,8.77,0,0,1,6.17-2.85,7.89,7.89,0,0,1,7.46,4.51,41.36,41.36,0,0,1,4.15,14.09l0,.18a4.23,4.23,0,0,1-.07,1.66s0,.1,0,.15a3.19,3.19,0,0,1-.68,1.18,4.5,4.5,0,0,1-2.64,1.26,7.19,7.19,0,0,1-1.18.09H40.15v9.47H70.07a52.37,52.37,0,0,0-2.45-16,43.47,43.47,0,0,0-6.67-13,32,32,0,0,0-9.83-8.74,24.07,24.07,0,0,0-23.95,0,32,32,0,0,0-9.83,8.74,43.47,43.47,0,0,0-6.67,13,52.36,52.36,0,0,0-2.44,16H38.14Z"/><path class="cls-5" d="M8.23,69.21A53,53,0,0,0,9.64,81.49C23,80,31,78.39,33.37,76.81A7.54,7.54,0,0,1,38.14,75V69.21Z"/><path class="cls-5" d="M40.15,75.23a10.83,10.83,0,0,1,3.06,1l.29,0a13.27,13.27,0,0,1,5.19,1.18l1.86.66c.29.09,9.92,3.11,18.06,3.57a52.83,52.83,0,0,0,1.46-12.45H40.15Z"/><path class="cls-5" d="M52.34,88.3a2.64,2.64,0,0,1-.56.78,3,3,0,0,1-2,.78,3.17,3.17,0,0,1-.5.78,3.14,3.14,0,0,1-2.62,1,3.4,3.4,0,0,1-.53.7,2.78,2.78,0,0,1-2.55.78,4,4,0,0,1-1,.6,4.27,4.27,0,0,1-2.4.19v7.93a1,1,0,1,1-2,0V94.28a3.94,3.94,0,0,1-1.29.25,3.07,3.07,0,0,1-.53,0,2.48,2.48,0,0,1-1.42-.87,3.87,3.87,0,0,1-2.68-.39,2,2,0,0,1-.74-.93,5.07,5.07,0,0,1-.95-.2,2.67,2.67,0,0,1-1.76-1.48,6.24,6.24,0,0,1-.69-.06,2.5,2.5,0,0,1-2-1.27,1.88,1.88,0,0,1-.15-.55c-4.27,2.19-9.13,4.38-11.32,5.35a39.33,39.33,0,0,0,2.76,4.15A31.86,31.86,0,0,0,27.17,107a25.79,25.79,0,0,0,5.29,2.23,2.27,2.27,0,0,1,.78-.85c1.72-1.12,5-.31,5.9,0,.93-.27,4.19-1.08,5.91,0a2.27,2.27,0,0,1,.78.85A25.79,25.79,0,0,0,51.12,107,31.86,31.86,0,0,0,61,98.23a37.83,37.83,0,0,0,2.61-3.9c-2.42-1-7.78-3.36-11.22-6"/><path class="cls-4" d="M41.89,115.46a2.61,2.61,0,0,0,.09-.69,2.72,2.72,0,0,0-.08-.63,6.28,6.28,0,0,0,3.55-1.79,2.89,2.89,0,0,0,.65-2.25,2.32,2.32,0,0,0-1.05-1.75c-1.72-1.12-5-.31-5.91,0-.92-.27-4.18-1.08-5.9,0a2.33,2.33,0,0,0-1.06,1.75,2.94,2.94,0,0,0,.66,2.25,6.35,6.35,0,0,0,3.57,1.8,2.56,2.56,0,0,0-.07.62,2.46,2.46,0,0,0,.08.67,11.47,11.47,0,0,1-6.52,3.18,4.92,4.92,0,0,0,1,1.19,12.73,12.73,0,0,0,6.17-3.15,2.2,2.2,0,0,0,.31.3c-.21.84-1.12,3-4.82,3.92a8.21,8.21,0,0,0,2.23.64,6.6,6.6,0,0,0,3.81-4,3.43,3.43,0,0,0,.56,0,3.07,3.07,0,0,0,.53,0,6.57,6.57,0,0,0,3.81,4,8.21,8.21,0,0,0,2.23-.64c-3.68-.93-4.6-3-4.82-3.9a2.27,2.27,0,0,0,.32-.3,12.79,12.79,0,0,0,6.16,3.13,4.78,4.78,0,0,0,1-1.19,11.43,11.43,0,0,1-6.49-3.16"/><path class="cls-5" d="M44.32,109.46a1,1,0,0,1,.46.78,1.57,1.57,0,0,1-.36,1.26,3.74,3.74,0,0,1-1.72,1,2.49,2.49,0,0,0,.14-2,3.12,3.12,0,0,0-1.07-1.41,4.33,4.33,0,0,1,2.55.31"/><path class="cls-5" d="M36.7,111c.5-1.34,2.37-1.36,2.44-1.36a3.86,3.86,0,0,1,1.07.18A2,2,0,0,1,41.59,111a1.71,1.71,0,0,1-.57,1.63,2.81,2.81,0,0,0-1.86-.71,2.86,2.86,0,0,0-1.89.72A1.71,1.71,0,0,1,36.7,111"/><path class="cls-5" d="M35.59,112.56a3.88,3.88,0,0,1-1.72-1,1.6,1.6,0,0,1-.36-1.27,1,1,0,0,1,.46-.78,3.16,3.16,0,0,1,1.68-.35,8.71,8.71,0,0,1,.87,0,3.12,3.12,0,0,0-1.07,1.41,2.49,2.49,0,0,0,.14,2"/><path class="cls-5" d="M37.67,114.77a1.49,1.49,0,1,1,1.49,1.49,1.49,1.49,0,0,1-1.49-1.49"/><path class="cls-5" d="M47.39,119.81a12.84,12.84,0,0,1-6.16-3.13,3.06,3.06,0,0,1-.32.3c.22.85,1.14,3,4.82,3.9a6.61,6.61,0,0,0,1.66-1.07"/><path class="cls-5" d="M37.07,116.66a12.73,12.73,0,0,1-6.17,3.15,6.61,6.61,0,0,0,1.66,1.07c3.7-.93,4.61-3.08,4.82-3.92a2.2,2.2,0,0,1-.31-.3"/><path class="cls-2" d="M76.58,77.18a.65.65,0,0,0-.23-.57.59.59,0,0,0-.44-.15c.13-.27.24-.55.35-.84A13,13,0,0,0,77,71.27a.64.64,0,0,0-.28-.54.65.65,0,0,0-.45-.1,8,8,0,0,0,.26-.83,13.06,13.06,0,0,0,.29-4.4.64.64,0,0,0-.79-.57,9.79,9.79,0,0,0,.2-1,13,13,0,0,0-.13-4.41A.64.64,0,0,0,75.7,59a.57.57,0,0,0-.34,0c0-.23.07-.46.1-.69a12.82,12.82,0,0,0-.35-4.4.63.63,0,0,0-.4-.45.61.61,0,0,0-.6.09h0c0-.35,0-.71,0-1.07a13,13,0,0,0-.95-4.31.66.66,0,0,0-.46-.4.65.65,0,0,0-.49.1,8.28,8.28,0,0,0-.09-1,12.82,12.82,0,0,0-1.39-4.19.62.62,0,0,0-.5-.34.61.61,0,0,0-.48.15,9.18,9.18,0,0,0-.19-.91,13.36,13.36,0,0,0-1.87-4,.65.65,0,0,0-.54-.28.63.63,0,0,0-.52.27,11.16,11.16,0,0,0-.39-1,13.41,13.41,0,0,0-2.5-3.66.68.68,0,0,0-.6-.19.67.67,0,0,0-.39.26,9.75,9.75,0,0,0-.58-1,13.06,13.06,0,0,0-3-3.18.65.65,0,0,0-.6-.1.64.64,0,0,0-.37.33,7.35,7.35,0,0,0-3.52-2.49c.27,0,.53.05.81.06a9.3,9.3,0,0,0,3.08-.28.81.81,0,0,0-.2-1.59,6.85,6.85,0,0,1-3.59-1l-.55-.3,4.55-.68a.81.81,0,0,0,0-1.6l-4.52-.65c.52-.14,1.13-.32,1.76-.54a9.84,9.84,0,0,0,2.74-1.44A.81.81,0,0,0,58,17a6.82,6.82,0,0,1-3.69.46l-.62-.06L57.62,15A.8.8,0,0,0,58,14a.81.81,0,0,0-1-.48l-4.43,1.13c.43-.33.93-.73,1.43-1.17a9.61,9.61,0,0,0,2-2.39.81.81,0,0,0-1.26-1A7,7,0,0,1,51.47,12l-.58.17,2.73-3.68a.81.81,0,0,0-1.14-1.13L48.8,10.09c.27-.48.58-1,.87-1.65a9.13,9.13,0,0,0,.91-3A.81.81,0,0,0,50,4.62a.83.83,0,0,0-1,.44,6.88,6.88,0,0,1-2.29,3l-.46.38L47.41,4a.81.81,0,0,0-1.49-.61l-2.36,4c.08-.55.15-1.19.18-1.87a9.14,9.14,0,0,0-.29-3.08.81.81,0,0,0-1.59.2,6.84,6.84,0,0,1-1,3.6l-.28.52-.66-4.52a.8.8,0,0,0-.8-.69h0a.81.81,0,0,0-.8.7L37.7,6.65c-.14-.52-.31-1.12-.52-1.74a9.71,9.71,0,0,0-1.45-2.74.82.82,0,0,0-1.39.8,6.85,6.85,0,0,1,.46,3.7c0,.2,0,.4-.06.62L32.36,3.34A.81.81,0,0,0,30.88,4L32,8.37c-.33-.43-.72-.92-1.16-1.41a9.21,9.21,0,0,0-2.38-2,.81.81,0,0,0-1,1.26,7,7,0,0,1,1.84,3.24c.05.19.11.39.18.59L25.8,7.34a.81.81,0,0,0-1.13,1.14l2.75,3.66c-.47-.27-1-.57-1.63-.86a9.13,9.13,0,0,0-3-.91.81.81,0,0,0-.42,1.54,6.85,6.85,0,0,1,2.94,2.29l.39.47-4.46-1.12a.8.8,0,0,0-.94.48.82.82,0,0,0,.33,1l3.95,2.34c-.54-.07-1.18-.14-1.85-.17a9.24,9.24,0,0,0-3.08.29.81.81,0,0,0,.21,1.58,6.85,6.85,0,0,1,3.59,1c.17.09.34.19.53.28L19.48,21a.81.81,0,0,0,0,1.6l4.57.67c-.53.14-1.15.32-1.79.55a9.11,9.11,0,0,0-2.73,1.45.81.81,0,0,0,.79,1.38,7.7,7.7,0,0,1,2.41-.53,17.78,17.78,0,0,0-2,2c-.18.23-.35.47-.51.71a.7.7,0,0,0-.34-.27.64.64,0,0,0-.6.1,13.1,13.1,0,0,0-3.05,3.22,8.61,8.61,0,0,0-.58,1,.64.64,0,0,0-1-.09,13.41,13.41,0,0,0-2.5,3.66c-.14.33-.27.66-.38,1a.62.62,0,0,0-.41-.18.66.66,0,0,0-.55.26,13.41,13.41,0,0,0-2,3.92c-.1.34-.18.69-.25,1A.63.63,0,0,0,8,42.28a.62.62,0,0,0-.5.34A12.82,12.82,0,0,0,6,46.8a8.28,8.28,0,0,0-.09,1,.64.64,0,0,0-.55-.12.62.62,0,0,0-.46.4A12.87,12.87,0,0,0,4,52.39c0,.33,0,.66,0,1a.7.7,0,0,0-.55,0,.66.66,0,0,0-.4.46,13,13,0,0,0-.35,4.4c0,.25.07.5.11.75a.56.56,0,0,0-.28,0,.63.63,0,0,0-.38.47,13,13,0,0,0-.14,4.41c0,.34.13.68.21,1a.54.54,0,0,0-.25.06.65.65,0,0,0-.36.5,13.08,13.08,0,0,0,.14,4.41,8.19,8.19,0,0,0,.23.85.64.64,0,0,0-.72.62,13,13,0,0,0,.6,4.37,10.58,10.58,0,0,0,.44,1.08l-.08,0a.64.64,0,0,0-.59.15.61.61,0,0,0-.2.57,13,13,0,0,0,1.36,4.21,7.16,7.16,0,0,0,.39.66.59.59,0,0,0-.29.18.64.64,0,0,0-.16.59,13,13,0,0,0,1.67,4.09A8.54,8.54,0,0,0,5,88a.62.62,0,0,0-.44.25.63.63,0,0,0-.09.61A13.12,13.12,0,0,0,6.63,92.7q.29.35.6.66a.65.65,0,0,0-.38.29.66.66,0,0,0,0,.61,13.14,13.14,0,0,0,2.58,3.6c.21.2.42.39.65.57a.61.61,0,0,0-.33.32.65.65,0,0,0,0,.62,13.29,13.29,0,0,0,2.94,3.31c.33.25.67.48,1,.69l-.14,0a.64.64,0,0,0-.25,1,15.5,15.5,0,0,0,3.43,2.74,9.42,9.42,0,0,0,2.82,1.07,6.26,6.26,0,0,0,2.28,0,.27.27,0,0,0,.12,0,33.72,33.72,0,0,0,6.3,3.51,31,31,0,0,0,5.57,1.76c.4.09.77.16,1.13.22a5,5,0,0,1-2.14-1.4,4.06,4.06,0,0,1-.26-.36,30.49,30.49,0,0,1-3.83-1.33,32.81,32.81,0,0,1-6-3.35.41.41,0,0,0,0-.07,6.19,6.19,0,0,0-.22-1.95,28.8,28.8,0,0,0,4,2.78,26.49,26.49,0,0,0,5.67,2.36c0-.11,0-.22,0-.33a2.63,2.63,0,0,1,.28-.9A25.79,25.79,0,0,1,27.17,107a31.86,31.86,0,0,1-9.83-8.74,39.33,39.33,0,0,1-2.76-4.15c2.19-1,7-3.16,11.32-5.35a1.88,1.88,0,0,0,.15.55,2.5,2.5,0,0,0,2,1.27,6.24,6.24,0,0,0,.69.06,2.67,2.67,0,0,0,1.76,1.48,5.07,5.07,0,0,0,.95.2,2,2,0,0,0,.74.93,3.87,3.87,0,0,0,2.68.39,2.48,2.48,0,0,0,1.42.87,3.07,3.07,0,0,0,.53,0,3.94,3.94,0,0,0,1.29-.25v7.59a1,1,0,1,0,2,0V93.94a4.27,4.27,0,0,0,2.4-.19,4,4,0,0,0,1-.6,2.78,2.78,0,0,0,2.55-.78,3.19,3.19,0,0,0,.53-.71,3.11,3.11,0,0,0,2.62-1,3.37,3.37,0,0,0,.5-.78,3,3,0,0,0,2-.78,2.64,2.64,0,0,0,.56-.78c3.44,2.67,8.8,5,11.22,6A37.83,37.83,0,0,1,61,98.23,31.86,31.86,0,0,1,51.12,107a25.79,25.79,0,0,1-5.29,2.23,2.42,2.42,0,0,1,.27.9c0,.11,0,.22,0,.33a26.78,26.78,0,0,0,5.68-2.36,29.77,29.77,0,0,0,4-2.81,6.29,6.29,0,0,0-.23,2s0,.06,0,.09A26.27,26.27,0,0,1,51.17,110a29.76,29.76,0,0,1-5.27,2l-.23.05a3.46,3.46,0,0,1-.22.31,5,5,0,0,1-2.19,1.42,27.51,27.51,0,0,0,3-.63,30.16,30.16,0,0,0,5.51-2.07,27.6,27.6,0,0,0,4.61-2.81l.1,0a6.31,6.31,0,0,0,2.29,0,9.42,9.42,0,0,0,2.82-1.07A15.5,15.5,0,0,0,65,104.46a.64.64,0,0,0-.25-1l-.1,0a9.72,9.72,0,0,0,1-.7,13.29,13.29,0,0,0,2.94-3.31.65.65,0,0,0,.05-.62.68.68,0,0,0-.33-.32c.22-.18.43-.37.64-.57a13.14,13.14,0,0,0,2.58-3.6.63.63,0,0,0,0-.61.65.65,0,0,0-.46-.31c.22-.23.44-.46.64-.71a13,13,0,0,0,2.14-3.88.66.66,0,0,0-.07-.58.63.63,0,0,0-.51-.28h0c.19-.23.37-.48.54-.73a13.27,13.27,0,0,0,1.74-4.07.67.67,0,0,0-.15-.59.66.66,0,0,0-.52-.21,8,8,0,0,0,.49-.86,13.06,13.06,0,0,0,1.22-4.25m-.76-5a0,0,0,0,1,0,0,11.39,11.39,0,0,1-.6,3,7.71,7.71,0,0,1-1.34,2.35,5.75,5.75,0,0,1-1.6,1.33h0s0,0,0,0A6.93,6.93,0,0,1,71,74.46a10.26,10.26,0,0,1,.17-1.65s0,0,0,0l0,0a8.6,8.6,0,0,1,1.24,2.27.47.47,0,0,0,.42.32.46.46,0,0,0,.46-.27,7.75,7.75,0,0,1,2.47-3s0,0,0,0m-.13-5.75h0s0,0,0,0a11.44,11.44,0,0,1-.3,3.06,7.57,7.57,0,0,1-1.1,2.46,5.77,5.77,0,0,1-1.46,1.48h0s0,0,0,0c-1.57-1.77-1.72-4.4-1.67-5.8,0,0,0,0,0,0h0a9.68,9.68,0,0,1,1.41,2,.47.47,0,0,0,.46.27.46.46,0,0,0,.42-.31,7.62,7.62,0,0,1,2.16-3.19m-.62-5.85h0l0,0a10.85,10.85,0,0,1,0,3.07,7.55,7.55,0,0,1-.84,2.57,5.78,5.78,0,0,1-1.34,1.63h0c-1.54-1.28-2-4.06-2.15-5.6,0,0,0,0,0,0h0a9.62,9.62,0,0,1,1.56,1.86.48.48,0,0,0,.48.22.47.47,0,0,0,.39-.36,7.65,7.65,0,0,1,1.84-3.39M74.15,55h0s0,0,0,0a11.09,11.09,0,0,1,.14,3.06,7.53,7.53,0,0,1-.73,2.61,5.89,5.89,0,0,1-1.23,1.67h0a7.44,7.44,0,0,1-2.21-3.89,12,12,0,0,1-.28-1.63s0,0,0,0,0,0,0,0a9.92,9.92,0,0,1,1.7,1.84.49.49,0,0,0,.87-.18A7.71,7.71,0,0,1,74.15,55m-44.35.36a1.85,1.85,0,0,1,0-.23,19.59,19.59,0,0,1,3.38-7.94,12.23,12.23,0,0,1,2-2.16l.36-.29a.91.91,0,0,0-1.11-1.44l-.38.3c-.85.59-1.34.4-1.47.33a.9.9,0,0,1-.31-1,5.61,5.61,0,0,1,1.42-2.28l0-.05a7.14,7.14,0,0,1,4.9-2.26h.08a5.9,5.9,0,0,1,2.11.3,6.32,6.32,0,0,1,3.68,3.26A35.23,35.23,0,0,1,47.25,49a11.54,11.54,0,0,1-3-1.69.91.91,0,0,0-1.28.13.88.88,0,0,0-.21.66,1,1,0,0,0,.33.62A12.5,12.5,0,0,0,47.74,51c.18.84.34,1.72.5,2.74a13.82,13.82,0,0,0-2.51-.86,13.71,13.71,0,0,1-1.41-.42,15.15,15.15,0,0,1-3.18-1.84A.91.91,0,1,0,40,52.08a17.07,17.07,0,0,0,3.63,2.1,14.39,14.39,0,0,0,1.63.49c2.16.58,3.14,1,3.18,2.09a1.16,1.16,0,0,1-.27.44,3.94,3.94,0,0,1-2.73.8h-2.1a8.8,8.8,0,0,1-4.27-1.25c-4.61-3-6.7-2.51-9.28-1.39M37.65,58H31.44a1.63,1.63,0,0,1-1.34-.48,1,1,0,0,1-.15-.24c2.6-1.18,4-1.6,7.7.72m2.5,11.21V59.74h5.49a7.19,7.19,0,0,0,1.18-.09,4.5,4.5,0,0,0,2.64-1.26,3.28,3.28,0,0,0,.68-1.18c0-.05,0-.1,0-.15a4.23,4.23,0,0,0,.07-1.66l0-.18a41.36,41.36,0,0,0-4.15-14.09,7.89,7.89,0,0,0-7.46-4.51,8.77,8.77,0,0,0-6.17,2.85,7.4,7.4,0,0,0-1.87,3.19,2.59,2.59,0,0,0,1.17,2.78,2.14,2.14,0,0,0,.47.2,21,21,0,0,0-4.08,9.15,6.19,6.19,0,0,0-.1,2,.77.77,0,0,0,0,.15,3.48,3.48,0,0,0,.7,1.65,3.3,3.3,0,0,0,2.69,1.12h6.7V75a7.54,7.54,0,0,0-4.77,1.81C31,78.39,23,80,9.64,81.49A53,53,0,0,1,8.22,69.21a52.37,52.37,0,0,1,2.45-16,43.47,43.47,0,0,1,6.67-13,32,32,0,0,1,9.83-8.74,24.07,24.07,0,0,1,23.95,0A32,32,0,0,1,61,40.19a43.47,43.47,0,0,1,6.67,13,52.37,52.37,0,0,1,2.45,16,52.83,52.83,0,0,1-1.46,12.45c-8.14-.46-17.77-3.48-18.06-3.57l-1.86-.66a13.31,13.31,0,0,0-5.19-1.18l-.29,0a10.83,10.83,0,0,0-3.06-1ZM52.8,26.39a12.26,12.26,0,0,1-2.13.62,8.74,8.74,0,0,1-1.56.15,5.05,5.05,0,0,1-3-.87,0,0,0,0,1,0,0s0,0,0,0a6.51,6.51,0,0,1,4.3-.77,7.21,7.21,0,0,1,2.38.86s0,0,0,0,0,0,0,0M54,29.69s0,0,0,0a0,0,0,0,1,0,0,5.31,5.31,0,0,1-1.54.29h-.22a6.49,6.49,0,0,1-4-1.51,0,0,0,0,1,0,0l0,0a7.73,7.73,0,0,1,1.74-.33A5,5,0,0,1,54,29.69m-6.4-5.13a9.87,9.87,0,0,1-2.91.76.48.48,0,0,0-.21.87A10.55,10.55,0,0,1,46.35,28s0,0,0,0,0,0,0,0h0a7.58,7.58,0,0,1-5.62-2.56,0,0,0,0,1,0-.05,4.56,4.56,0,0,1,1.54-.94,8.9,8.9,0,0,1,5.32,0l0,0s0,0,0,0m-6-1a8.42,8.42,0,0,1-2.73,1.32.48.48,0,0,0,0,.91A8.21,8.21,0,0,1,41,27.07s0,0,0,0l0,0c-.34,0-.74.06-1.19.06A8,8,0,0,1,35,25.82s0,0,0,0a4.5,4.5,0,0,1,1.31-1.23,8.78,8.78,0,0,1,5.28-1l0,0a.06.06,0,0,1,0,0m-6.15.1A6.62,6.62,0,0,1,33,25.56a.48.48,0,0,0,.12.9,10.3,10.3,0,0,1,2.39.8,0,0,0,0,1,0,0s0,0,0,0a11.43,11.43,0,0,1-1.58.4,10.12,10.12,0,0,1-1.66.15,6.67,6.67,0,0,1-2.86-.59s0,0,0,0a4.57,4.57,0,0,1,1-1.47,8.84,8.84,0,0,1,5-2.15s0,0,0,0a0,0,0,0,1,0,0m-7.91,3.77a.48.48,0,0,0-.13.53.49.49,0,0,0,.45.31h0a10.48,10.48,0,0,1,1.22.09,8.9,8.9,0,0,1,1.29.26s0,0,0,0,0,0,0,0a11.14,11.14,0,0,1-1.52.64,8.75,8.75,0,0,1-2.88.52,6.33,6.33,0,0,1-1.7-.22s0,0,0,0c.21-1,1.14-3.51,5.42-5h0a0,0,0,0,1,0,0,7.66,7.66,0,0,1-2.16,2.76M71.21,53a7.56,7.56,0,0,1,1.18-3.66l0,0s0,0,0,0a11.15,11.15,0,0,1,.56,3,7.74,7.74,0,0,1-.36,2.67,5.63,5.63,0,0,1-1,1.82l0,0h0a7.11,7.11,0,0,1-2.78-3.58,10.08,10.08,0,0,1-.48-1.56s0,0,0,0a0,0,0,0,1,0,0,10.24,10.24,0,0,1,2,1.59.45.45,0,0,0,.51.13.49.49,0,0,0,.32-.42m-1.91-5.3A7.55,7.55,0,0,1,70.09,44l0,0,0,0a11.4,11.4,0,0,1,.87,3,7.82,7.82,0,0,1-.08,2.7,6,6,0,0,1-.8,1.91h0A7.21,7.21,0,0,1,67,48.27a10.53,10.53,0,0,1-.63-1.5s0,0,0,0h0a10.11,10.11,0,0,1,2.12,1.39.47.47,0,0,0,.52.07.47.47,0,0,0,.28-.45m-2.67-4.5h0a.46.46,0,0,0,.23-.48,7.69,7.69,0,0,1,.35-3.83l0,0s0,0,0,0a11.64,11.64,0,0,1,1.22,2.83,7.58,7.58,0,0,1,.23,2.69,5.78,5.78,0,0,1-.56,2s0,0,0,0h0a7,7,0,0,1-3.6-2.93,9.36,9.36,0,0,1-.78-1.47,0,0,0,0,1,0,0h0a8.15,8.15,0,0,1,2.31,1.2.47.47,0,0,0,.54,0M63,38.65a.48.48,0,0,0,.73-.54,8.53,8.53,0,0,1-.24-3.79s0,0,0,0,0,0,0,0a11.43,11.43,0,0,1,1.62,2.55,7.57,7.57,0,0,1,.67,2.62,5.73,5.73,0,0,1-.23,2.05l0,0h0a7.25,7.25,0,0,1-3.93-2.31,11.37,11.37,0,0,1-1.1-1.37v0l0,0a5.44,5.44,0,0,1,2.43.84m-3.58-4.1a.5.5,0,0,0,.53-.12.5.5,0,0,0,.07-.55,7.67,7.67,0,0,1-.89-3.73l0,0h0a11.22,11.22,0,0,1,2,2.27,8,8,0,0,1,1.09,2.49A6.21,6.21,0,0,1,62.44,37a0,0,0,0,1,0,0h-.08a6.94,6.94,0,0,1-4-1.61,13.2,13.2,0,0,1-1.38-1.24s0,0,0,0,0,0,0,0h.18a7.53,7.53,0,0,1,2.33.43M58,30.82a6.21,6.21,0,0,1,.41,2.34,0,0,0,0,1,0,0h-.25c-2,0-4.26-1.32-5.48-2.13,0,0,0,0,0,0a0,0,0,0,1,0,0,6.78,6.78,0,0,1,2.45,0,.47.47,0,0,0,.51-.2.48.48,0,0,0,0-.56,10,10,0,0,1-1.52-2.86s0,0,0,0h0A5.91,5.91,0,0,1,58,30.82M22.35,25l.29-.11a25.16,25.16,0,0,1,2.81-.79,7.25,7.25,0,0,0,2.21-.88.32.32,0,0,0,.15-.34.34.34,0,0,0-.27-.26l-5.68-.82L27.53,21a.32.32,0,0,0,0-.64,10.55,10.55,0,0,1-2.5-.77c-.38-.17-.71-.34-1-.5a8.09,8.09,0,0,0-1.62-.74h.3a24.83,24.83,0,0,1,2.9.35,7.68,7.68,0,0,0,2.38,0,.33.33,0,0,0,.27-.26.34.34,0,0,0-.16-.35L23.18,15.2l5.56,1.39a.31.31,0,0,0,.38-.19A.32.32,0,0,0,29,16a10.85,10.85,0,0,1-2-1.67,10.73,10.73,0,0,1-.73-.85A8.59,8.59,0,0,0,25,12.18l.27.12a26.67,26.67,0,0,1,2.55,1.43,7.53,7.53,0,0,0,2.19,1,.33.33,0,0,0,.33-.52L26.93,9.59,31.54,13A.32.32,0,0,0,32,13a.33.33,0,0,0,0-.43,11.29,11.29,0,0,1-1.23-2.31c-.14-.38-.24-.73-.34-1.06a8.42,8.42,0,0,0-.63-1.67l.21.22A25.47,25.47,0,0,1,31.8,10a7.49,7.49,0,0,0,1.65,1.71.33.33,0,0,0,.51-.35L32.54,5.84l3,4.91a.34.34,0,0,0,.41.14.33.33,0,0,0,.19-.38,11.26,11.26,0,0,1-.25-2.61c0-.41.06-.77.09-1.11A9.4,9.4,0,0,0,36,5l.1.28a29.12,29.12,0,0,1,.79,2.82,7.67,7.67,0,0,0,.86,2.22.34.34,0,0,0,.35.14.33.33,0,0,0,.26-.27l.79-5.62L40,10.19a.32.32,0,0,0,.32.28.34.34,0,0,0,.33-.28,10.25,10.25,0,0,1,.76-2.51c.16-.37.34-.68.5-1a8.18,8.18,0,0,0,.74-1.63c0,.1,0,.2,0,.3a28.49,28.49,0,0,1-.34,2.91,7.35,7.35,0,0,0,0,2.38.31.31,0,0,0,.26.26.32.32,0,0,0,.34-.15l2.93-4.92-1.4,5.55a.33.33,0,0,0,.19.38.32.32,0,0,0,.41-.13,11.14,11.14,0,0,1,1.66-2c.3-.28.57-.5.85-.73a8.63,8.63,0,0,0,1.31-1.22l-.13.27a28.5,28.5,0,0,1-1.43,2.56,7.43,7.43,0,0,0-.95,2.18.33.33,0,0,0,.52.33l4.58-3.42L48,14.19a.31.31,0,0,0,0,.42.32.32,0,0,0,.43,0,11.39,11.39,0,0,1,2.31-1.23c.38-.14.72-.24,1.06-.34a8.66,8.66,0,0,0,1.67-.63l-.22.21a25.47,25.47,0,0,1-2.3,1.8,7.85,7.85,0,0,0-1.71,1.65.33.33,0,0,0,.35.51l5.54-1.41-4.91,2.94a.33.33,0,0,0,.25.6,10.85,10.85,0,0,1,2.6-.25c.41,0,.77.05,1.12.09a8.56,8.56,0,0,0,1.78.06l-.28.11c-1.17.4-2.27.66-2.82.79a7.53,7.53,0,0,0-2.21.86.33.33,0,0,0-.15.35.32.32,0,0,0,.27.25l5.66.82-5.66.84a.34.34,0,0,0-.28.33.32.32,0,0,0,.28.32,10.88,10.88,0,0,1,2.5.77c.37.17.69.34,1,.51a8.69,8.69,0,0,0,1.62.74h-.3c-1.23-.08-2.34-.26-2.9-.35l-.15,0a8,8,0,0,0-3.13-.69s0,0,0,0a.64.64,0,0,0-.42-.47,13.34,13.34,0,0,0-4.29-.81,7.75,7.75,0,0,0-1.38.09.49.49,0,0,0-.06-.17.65.65,0,0,0-.49-.36,13.82,13.82,0,0,0-4.38.06,9.37,9.37,0,0,0-1.45.42.64.64,0,0,0-.69-.58,13.41,13.41,0,0,0-4.26,1,8.77,8.77,0,0,0-.92.46.64.64,0,0,0-.81-.56A13.15,13.15,0,0,0,26.2,25.1l-.07,0a8.75,8.75,0,0,1-.88,0l-1.11-.09A8.69,8.69,0,0,0,22.35,25m1.53,1.64s0,0,0,0,0,0,0,0a7.52,7.52,0,0,1-1.24,3.64.47.47,0,0,0,0,.53.51.51,0,0,0,.49.2,9.6,9.6,0,0,1,2.47-.15l0,0a.06.06,0,0,1,0,0,9.39,9.39,0,0,1-5.4,2.24H20a0,0,0,0,1,0,0c-.06-1.07.2-3.86,3.88-6.51m-7.79,8.26a7.5,7.5,0,0,1,1.08-2.48,11.46,11.46,0,0,1,2-2.32,0,0,0,0,1,0,0s0,0,0,0a7.51,7.51,0,0,1-.89,3.73.48.48,0,0,0,.58.68,9,9,0,0,1,2.4-.44l0,0s0,0,0,0A14.39,14.39,0,0,1,20,35.42a6.86,6.86,0,0,1-3.79,1.63H16a0,0,0,0,1,0,0,5.51,5.51,0,0,1,.09-2.09m-1.26-.66a0,0,0,0,1,0,0l0,0a7.74,7.74,0,0,1-.28,3.84.47.47,0,0,0,.16.53.48.48,0,0,0,.56,0,5.48,5.48,0,0,1,2.39-.83s0,0,0,0a0,0,0,0,1,0,0c-.86,1.21-2.66,3.3-5,3.69h0s0,0,0,0c-.34-1-.81-3.79,2.09-7.28m-5,7.48A11.52,11.52,0,0,1,11.16,39h0l0,0a7.4,7.4,0,0,1,.19,3.84.49.49,0,0,0,.24.52.48.48,0,0,0,.57-.08,4.55,4.55,0,0,1,2.33-1.14,0,0,0,0,1,0,0,0,0,0,0,1,0,0,10.83,10.83,0,0,1-.94,1.57A6.91,6.91,0,0,1,10,46.45h0s0,0,0,0a5.76,5.76,0,0,1-.49-2,7.68,7.68,0,0,1,.35-2.68m-2.7,5.17A11.64,11.64,0,0,1,8,44l0,0s0,0,0,0a7.5,7.5,0,0,1,.77,3.78.48.48,0,0,0,.79.38,10.13,10.13,0,0,1,2.24-1.42h0a0,0,0,0,1,0,0,7.16,7.16,0,0,1-.52,1.4A7.33,7.33,0,0,1,8,51.53H8a6,6,0,0,1-.77-1.91,7.6,7.6,0,0,1-.06-2.7M5.67,49.33l0,0a0,0,0,0,1,0,0A7.59,7.59,0,0,1,7,53a.48.48,0,0,0,.84.27,8.6,8.6,0,0,1,2.05-1.7h0a.05.05,0,0,1,0,0,7.9,7.9,0,0,1-.33,1.5,6.9,6.9,0,0,1-3,3.77h0a5.82,5.82,0,0,1-1-1.81,7.67,7.67,0,0,1-.4-2.67,11.41,11.41,0,0,1,.52-3M4,54.94s0,0,0,0,0,0,0,0A7.55,7.55,0,0,1,5.76,58.4a.48.48,0,0,0,.37.37.47.47,0,0,0,.49-.2,10.08,10.08,0,0,1,1.77-1.89h0a0,0,0,0,1,0,0,8.45,8.45,0,0,1-.2,1.5,7.52,7.52,0,0,1-2.37,4.06h0a5.71,5.71,0,0,1-1.22-1.66A7.69,7.69,0,0,1,3.88,58,11.55,11.55,0,0,1,4,54.94m-.84,5.63,0,0h0a7.65,7.65,0,0,1,1.84,3.39.48.48,0,0,0,.42.36A.49.49,0,0,0,6,64a6.82,6.82,0,0,1,1.49-2s0,0,0,0,0,0,0,0a11.79,11.79,0,0,1-.14,1.69,6.88,6.88,0,0,1-2,4h0A5.8,5.8,0,0,1,4,66.21a7.56,7.56,0,0,1-.85-2.57,11.26,11.26,0,0,1,0-3.07m-.47,5.92s0,0,0,0h0l.36.36a7.79,7.79,0,0,1,1.69,2.92.48.48,0,0,0,.93-.07A4.11,4.11,0,0,1,7,67.54H7s0,0,0,0a9.15,9.15,0,0,1,0,2.79A5.76,5.76,0,0,1,5.38,73.6h0C4.45,73,2.43,71,2.71,66.49m-.23,5.73h0a4,4,0,0,1,.4.32,7.8,7.8,0,0,1,2,2.72.47.47,0,0,0,.43.29h0a.5.5,0,0,0,.44-.3A9.45,9.45,0,0,1,7.14,73s0,0,0,0a0,0,0,0,1,0,0,7.35,7.35,0,0,1-1.36,6,0,0,0,0,1,0,0h0c-.94-.54-3.14-2.3-3.34-6.78a.05.05,0,0,1,0,0m.29,6a.08.08,0,0,1,0,0h0A7.69,7.69,0,0,1,5.7,80.75a.47.47,0,0,0,.49.2.48.48,0,0,0,.38-.36h0a9.84,9.84,0,0,1,1-2.51l0,0,0,0a6.91,6.91,0,0,1,.52,1.53,6.44,6.44,0,0,1-.8,4.69s0,0,0,0h0a5.73,5.73,0,0,1-1.79-1.09,7.46,7.46,0,0,1-1.67-2.14,11.71,11.71,0,0,1-1-2.89m1.36,5.54a0,0,0,0,1,0,0s0,0,0,0c.16.06.31.14.46.21a8,8,0,0,1,2.61,2.16.46.46,0,0,0,.5.17.5.5,0,0,0,.35-.4,9.91,9.91,0,0,1,.73-2.47.05.05,0,0,1,0,0l0,0a7.5,7.5,0,0,1,.22,6.13h0C8,89.22,5.44,88.06,4.13,83.74M7.47,92A11.45,11.45,0,0,1,5.9,89.31a0,0,0,0,1,0,0h0l.47.16a7.87,7.87,0,0,1,2.84,1.85.48.48,0,0,0,.52.11.46.46,0,0,0,.3-.43,10,10,0,0,1,.44-2.51,0,0,0,0,1,0,0,.05.05,0,0,1,0,0,10.34,10.34,0,0,1,.69,1.47,7,7,0,0,1,.25,4.55.05.05,0,0,1,0,0h0a5.93,5.93,0,0,1-2-.74,7.64,7.64,0,0,1-2-1.79m.81,2.63s0,0,0,0h0a7.88,7.88,0,0,1,3.53,1.62.49.49,0,0,0,.53,0,.48.48,0,0,0,.24-.47,9.09,9.09,0,0,1,.13-2.48s0,0,0,0h0a12.39,12.39,0,0,1,.84,1.43,7.39,7.39,0,0,1,.81,4.4,0,0,0,0,1,0,0h0a5.82,5.82,0,0,1-2-.51A7.63,7.63,0,0,1,10.15,97a11.38,11.38,0,0,1-1.87-2.44m11,9.59a9.46,9.46,0,0,1-.59-2.43l0,0h0c1.11.94,3,2.89,2.85,5.46,0,0,0,0,0,0a4.64,4.64,0,0,1-.74.06,5.67,5.67,0,0,1-1.14-.12,10.36,10.36,0,0,1-4.9-2.81,0,0,0,0,1,0,0,0,0,0,0,1,0,0,7.84,7.84,0,0,1,3.85.52.48.48,0,0,0,.62-.63M15,100.72a.47.47,0,0,0,.53,0,.49.49,0,0,0,.19-.51,7.55,7.55,0,0,1-.16-2.46l0,0h0c.91,1.11,2.42,3.3,2.28,5.62a0,0,0,0,1,0,0H17.6a6.14,6.14,0,0,1-1.84-.31,7.49,7.49,0,0,1-2.39-1.3,10.86,10.86,0,0,1-2.12-2.24,0,0,0,0,1,0,0s0,0,0,0A7.9,7.9,0,0,1,15,100.72M33.67,88.17l-.44.3a4.55,4.55,0,0,0-1.89,2.26c-.13,0-.26-.06-.38-.09-.78-.26-.82-.66-.83-.8,0-.41.19-.77.78-1.34a2.85,2.85,0,0,1,1.79-1,1.13,1.13,0,0,1,.51.12.86.86,0,0,1,.45.4.24.24,0,0,1,0,.15m1,3.94A2.6,2.6,0,0,1,33.07,92a.54.54,0,0,1-.23-.45c-.07-.67.79-1.38,1.31-1.74A3.76,3.76,0,0,1,36,88.89a.92.92,0,0,1,.63.25.55.55,0,0,1,.25.38,1.32,1.32,0,0,1-.53.72,4.71,4.71,0,0,0-1.67,1.87m4.06.14a3.26,3.26,0,0,1-2.1.74.85.85,0,0,1-.48-.27,4.24,4.24,0,0,1,1.8-1.6c.9-.52,1.29-.22,1.3-.21.26.25.25.4.24.45,0,.32-.49.71-.69.85l-.07,0M30.18,87l-.37.34a4,4,0,0,0-1.18,1.75l-.34,0c-.51-.09-.8-.25-.85-.37s-.14-.31.16-.71a3,3,0,0,1,2.06-1h.25l.27,0m20.55,1a1.6,1.6,0,0,1-1.07.36,13.93,13.93,0,0,0-4.6-4.09.76.76,0,0,0-.61,0,.77.77,0,0,0-.45.4.76.76,0,0,0,0,.61.79.79,0,0,0,.4.46,12.52,12.52,0,0,1,4,3.6,1.41,1.41,0,0,1-.24.36,1.6,1.6,0,0,1-1.3.5,7.2,7.2,0,0,0-1.07-1.53,14,14,0,0,0-2.11-1.79.77.77,0,0,0-.59-.14.86.86,0,0,0-.52.33.8.8,0,0,0-.13.6.77.77,0,0,0,.33.51,13.16,13.16,0,0,1,1.81,1.53,4.86,4.86,0,0,1,.83,1.18,2,2,0,0,1-.36.5,1.22,1.22,0,0,1-1.06.33,8.82,8.82,0,0,0-1.46-2.2.8.8,0,0,0-1.39.48.82.82,0,0,0,.2.58,7.18,7.18,0,0,1,1.1,1.6,2.74,2.74,0,0,1-.42.21,2.62,2.62,0,0,1-1.28.16,2.2,2.2,0,0,0,.35-1,2.1,2.1,0,0,0-.71-1.76,2.2,2.2,0,0,0-1.92-.52,2.14,2.14,0,0,0-.78-1.32,2.49,2.49,0,0,0-2.51-.51h0a2.32,2.32,0,0,0-1.21-1.22A2.78,2.78,0,0,0,31.79,86a3.23,3.23,0,0,0-1.74-.67,4.43,4.43,0,0,0-3.34,1.22C22.16,89,16.3,91.66,13.92,92.72a46.06,46.06,0,0,1-3.17-7.54c-.23-.73-.45-1.47-.65-2.22,6.69-.76,12.08-1.55,16-2.33,4.12-.83,6.77-1.67,8.13-2.58,1.57-1.1,2.64-1.64,4.14-1.52l1,.11a4.17,4.17,0,0,0-.82.46c-.63.44-1,.75-1.35,1a12.71,12.71,0,0,1-1.06.79,11,11,0,0,1-1.1.58c-.93.46-1.67.82-1.91,1.46a1.94,1.94,0,0,0,.32,1.94,2.91,2.91,0,0,0,2.81.88,7.87,7.87,0,0,0,3.24-1c.34-.19.63-.38.89-.56a3.85,3.85,0,0,1,1-.54h0A4.38,4.38,0,0,1,44.2,82,16.5,16.5,0,0,1,47,83.5a18.88,18.88,0,0,1,4.1,3.76,1.29,1.29,0,0,1-.36.73m2.89-.61a8.75,8.75,0,0,1-1.39-1.24h0l0,0L52.08,86a19.85,19.85,0,0,0-4.22-3.8c-1.47-1-4.21-2.74-6.85-2a4.75,4.75,0,0,0-1.52.77c-.25.17-.51.34-.81.51a6.3,6.3,0,0,1-2.53.77c-.76,0-1.23,0-1.42-.22s-.16-.33-.14-.4a6.71,6.71,0,0,1,1.13-.63A12.66,12.66,0,0,0,37,80.25a10.24,10.24,0,0,0,1.19-.88c.32-.26.68-.56,1.27-1a5,5,0,0,1,3-.6h.65l.49,0a12,12,0,0,1,4.61,1.08c.56.21,1.19.43,1.91.68.11,0,2.7.85,6.23,1.69a75,75,0,0,0,11.82,1.93c-.19.69-.39,1.37-.6,2A46.38,46.38,0,0,1,64.24,93a55.22,55.22,0,0,1-10.62-5.59m9.89,17a10.21,10.21,0,0,1-4.9,2.81,5.67,5.67,0,0,1-1.14.12,5.31,5.31,0,0,1-.74-.06s0,0,0,0a6,6,0,0,1,1.65-4.23,9.93,9.93,0,0,1,1.23-1.19h0s0,0,0,0a10.35,10.35,0,0,1-.61,2.39.5.5,0,0,0,.1.52.48.48,0,0,0,.52.11,7.67,7.67,0,0,1,3.85-.51l0,0a0,0,0,0,1,0,0m3.62-4.8A11.64,11.64,0,0,1,65,101.77a7.53,7.53,0,0,1-2.4,1.3,6.09,6.09,0,0,1-1.84.31h-.23a0,0,0,0,1,0,0A7.08,7.08,0,0,1,61.78,99a11,11,0,0,1,1-1.31s0,0,0,0a0,0,0,0,1,0,0,10.18,10.18,0,0,1-.14,2.5.47.47,0,0,0,.2.49.47.47,0,0,0,.53,0,7.8,7.8,0,0,1,3.68-1.24l0,0s0,0,0,0M68.22,97A7.59,7.59,0,0,1,66,98.57a6.18,6.18,0,0,1-2,.51h0s0,0,0,0a7.16,7.16,0,0,1,.8-4.43,10.15,10.15,0,0,1,.85-1.41s0,0,0,0,0,0,0,0a9.8,9.8,0,0,1,.13,2.51.47.47,0,0,0,.25.46.49.49,0,0,0,.53,0,7.7,7.7,0,0,1,3.53-1.62l0,0a0,0,0,0,1,0,0A11.38,11.38,0,0,1,68.22,97m2.65-5.14a7.82,7.82,0,0,1-2.05,1.79,5.71,5.71,0,0,1-1.95.74h0a0,0,0,0,1,0,0,7.15,7.15,0,0,1,.26-4.56,10.78,10.78,0,0,1,.66-1.43s0,0,0,0,0,0,0,0a11.38,11.38,0,0,1,.45,2.48.45.45,0,0,0,.31.43.48.48,0,0,0,.52-.12,6.89,6.89,0,0,1,2.82-1.93,3.34,3.34,0,0,1,.52-.14s0,0,0,0a0,0,0,0,1,0,0,11,11,0,0,1-1.6,2.72m2-5.39a7.74,7.74,0,0,1-1.86,2,6.08,6.08,0,0,1-1.87.93h0s0,0,0,0a7.62,7.62,0,0,1-.2-4.59,11,11,0,0,1,.52-1.6s0,0,0,0l0,0a10.31,10.31,0,0,1,.69,2.55.48.48,0,0,0,.35.4.46.46,0,0,0,.5-.16,7.72,7.72,0,0,1,3.1-2.32h0s0,0,0,0a11,11,0,0,1-1.29,2.78m1.48-5.61a7.87,7.87,0,0,1-1.59,2.2,5.89,5.89,0,0,1-1.74,1.14h0s0,0,0,0a7.46,7.46,0,0,1-.79-4.61A11.35,11.35,0,0,1,70.55,78a0,0,0,0,1,0,0l0,0a11.77,11.77,0,0,1,1,2.5.46.46,0,0,0,.38.36.51.51,0,0,0,.49-.22,7.74,7.74,0,0,1,2.78-2.68s0,0,0,0,0,0,0,0a11.12,11.12,0,0,1-.94,2.92"/><path class="cls-3" d="M63.49,104.29a7.67,7.67,0,0,0-3.85.51.48.48,0,0,1-.52-.11.5.5,0,0,1-.1-.52,9.8,9.8,0,0,0,.61-2.39s0,0,0,0h0a10.68,10.68,0,0,0-1.23,1.19,6,6,0,0,0-1.65,4.23s0,0,0,0a5.31,5.31,0,0,0,.74.06,5.67,5.67,0,0,0,1.14-.12,10.21,10.21,0,0,0,4.9-2.81,0,0,0,0,0,0,0s0,0,0,0"/><path class="cls-3" d="M18.77,101.71h0l0,0a9.46,9.46,0,0,0,.59,2.43.46.46,0,0,1-.1.52.48.48,0,0,1-.52.11,7.84,7.84,0,0,0-3.85-.52,0,0,0,0,0,0,0,0,0,0,0,0,0,0,10.36,10.36,0,0,0,4.9,2.81,5.67,5.67,0,0,0,1.14.12,4.64,4.64,0,0,0,.74-.06s0,0,0,0c.12-2.57-1.74-4.52-2.85-5.46"/><path class="cls-3" d="M67.1,99.48a7.8,7.8,0,0,0-3.68,1.24.47.47,0,0,1-.53,0,.47.47,0,0,1-.2-.49,10.18,10.18,0,0,0,.14-2.5,0,0,0,0,0,0,0s0,0,0,0a11,11,0,0,0-1,1.31,7.08,7.08,0,0,0-1.27,4.33,0,0,0,0,0,0,0h.23a6.09,6.09,0,0,0,1.84-.31,7.53,7.53,0,0,0,2.4-1.3,11.64,11.64,0,0,0,2.12-2.23s0,0,0,0l0,0"/><path class="cls-3" d="M70.06,94.53a7.81,7.81,0,0,0-3.53,1.62.49.49,0,0,1-.53,0,.47.47,0,0,1-.25-.46,9.8,9.8,0,0,0-.13-2.51s0,0,0,0,0,0,0,0a10.77,10.77,0,0,0-.85,1.41,7.16,7.16,0,0,0-.8,4.43s0,0,0,0h0a6.18,6.18,0,0,0,2-.51A7.59,7.59,0,0,0,68.22,97a11.38,11.38,0,0,0,1.87-2.44,0,0,0,0,0,0,0l0,0"/><path class="cls-3" d="M72.44,89.11a5.08,5.08,0,0,0-.52.15,6.89,6.89,0,0,0-2.82,1.93.48.48,0,0,1-.52.12.46.46,0,0,1-.31-.43,11.38,11.38,0,0,0-.45-2.48s0,0,0,0,0,0,0,0a10.78,10.78,0,0,0-.66,1.43,7.15,7.15,0,0,0-.26,4.56,0,0,0,0,0,0,0h0a5.71,5.71,0,0,0,1.95-.74,7.82,7.82,0,0,0,2.05-1.79,11,11,0,0,0,1.6-2.72,0,0,0,0,0,0,0l0,0"/><path class="cls-3" d="M74.15,83.67A7.66,7.66,0,0,0,71.05,86a.47.47,0,0,1-.5.15.48.48,0,0,1-.35-.4,10.31,10.31,0,0,0-.69-2.55l0,0s0,0,0,0a11,11,0,0,0-.52,1.6,7.62,7.62,0,0,0,.2,4.59s0,0,0,0h0A6.08,6.08,0,0,0,71,88.48a7.54,7.54,0,0,0,1.85-2,10.66,10.66,0,0,0,1.3-2.78s0,0,0,0h0"/><path class="cls-3" d="M75.27,77.93a7.74,7.74,0,0,0-2.78,2.68.5.5,0,0,1-.49.22.46.46,0,0,1-.38-.36,11.77,11.77,0,0,0-1-2.5l0,0a0,0,0,0,0,0,0,11.35,11.35,0,0,0-.33,1.62A7.46,7.46,0,0,0,71,84.21s0,0,0,0h0a5.89,5.89,0,0,0,1.74-1.14,7.87,7.87,0,0,0,1.59-2.2A11.12,11.12,0,0,0,75.32,78s0,0,0,0,0,0,0,0"/><path class="cls-3" d="M73.31,75.12a.48.48,0,0,1-.46.27.47.47,0,0,1-.42-.33,8.78,8.78,0,0,0-1.24-2.26l0,0s0,0,0,0A10.26,10.26,0,0,0,71,74.46a6.93,6.93,0,0,0,1.29,4.4h0a5.75,5.75,0,0,0,1.6-1.33,7.71,7.71,0,0,0,1.34-2.35,11.39,11.39,0,0,0,.6-3,0,0,0,0,0,0,0s0,0,0,0a7.75,7.75,0,0,0-2.47,3"/><path class="cls-3" d="M73.11,69.9a.47.47,0,0,1-.46-.27,9.68,9.68,0,0,0-1.41-2,0,0,0,0,0,0,0,0,0,0,0,0,0,0c-.05,1.4.1,4,1.67,5.8,0,0,0,0,0,0h0a5.77,5.77,0,0,0,1.46-1.48,7.57,7.57,0,0,0,1.1-2.46,11.44,11.44,0,0,0,.3-3.06s0,0,0,0h0a7.62,7.62,0,0,0-2.16,3.19.46.46,0,0,1-.42.31"/><path class="cls-3" d="M72.84,64.3a.49.49,0,0,1-.48-.22,9.62,9.62,0,0,0-1.56-1.86h0s0,0,0,0c.14,1.54.61,4.32,2.15,5.6h0a5.63,5.63,0,0,0,1.33-1.63,7.56,7.56,0,0,0,.85-2.57,10.85,10.85,0,0,0,0-3.07l0,0h0a7.75,7.75,0,0,0-1.84,3.39.47.47,0,0,1-.39.36"/><path class="cls-3" d="M72.1,58.84a.49.49,0,0,1-.49-.19,9.68,9.68,0,0,0-1.7-1.83h0s0,0,0,0a12,12,0,0,0,.28,1.63,7.44,7.44,0,0,0,2.21,3.89h0a5.73,5.73,0,0,0,1.23-1.67,7.53,7.53,0,0,0,.73-2.61A11.09,11.09,0,0,0,74.21,55s0,0,0,0h0a7.71,7.71,0,0,0-1.67,3.47.47.47,0,0,1-.38.37"/><path class="cls-3" d="M70.89,53.46a.47.47,0,0,1-.51-.13,10.24,10.24,0,0,0-2-1.59,0,0,0,0,0,0,0s0,0,0,0a10.08,10.08,0,0,0,.48,1.56,7.11,7.11,0,0,0,2.78,3.58h0a5.63,5.63,0,0,0,1-1.82A7.74,7.74,0,0,0,73,52.41a11.08,11.08,0,0,0-.56-3s0,0,0,0l0,0A7.56,7.56,0,0,0,71.21,53a.49.49,0,0,1-.32.42"/><path class="cls-3" d="M68.5,48.12a10.11,10.11,0,0,0-2.12-1.39h0s0,0,0,0a10.53,10.53,0,0,0,.63,1.5,7.21,7.21,0,0,0,3.14,3.28h0a6,6,0,0,0,.8-1.91,7.83,7.83,0,0,0,.08-2.7,11.4,11.4,0,0,0-.87-3l0,0s0,0,0,0a7.54,7.54,0,0,0-.8,3.76.47.47,0,0,1-.28.45.49.49,0,0,1-.52-.07"/><path class="cls-3" d="M63.74,42a0,0,0,0,0,0,0,9.36,9.36,0,0,0,.78,1.47,7,7,0,0,0,3.6,2.93h0s0,0,0,0a5.78,5.78,0,0,0,.56-2,7.58,7.58,0,0,0-.23-2.69,11.26,11.26,0,0,0-1.22-2.83s0,0,0,0l0,0a7.69,7.69,0,0,0-.35,3.83.48.48,0,0,1-.77.44A8.15,8.15,0,0,0,63.78,42h0"/><path class="cls-3" d="M60.58,37.83v0a11.37,11.37,0,0,0,1.1,1.37,7.25,7.25,0,0,0,3.93,2.31h0l0,0a5.73,5.73,0,0,0,.23-2.05,7.57,7.57,0,0,0-.67-2.62,11.43,11.43,0,0,0-1.62-2.55s0,0,0,0,0,0,0,0a8.53,8.53,0,0,0,.24,3.79.48.48,0,0,1-.73.54,5.44,5.44,0,0,0-2.43-.84l0,0"/><path class="cls-3" d="M60,34.43a.5.5,0,0,1-.53.12,7.53,7.53,0,0,0-2.33-.43H57s0,0,0,0a0,0,0,0,0,0,0,13.2,13.2,0,0,0,1.38,1.24,6.94,6.94,0,0,0,4,1.61h.08a0,0,0,0,0,0,0,6.21,6.21,0,0,0-.13-2.11,8,8,0,0,0-1.09-2.49,11.22,11.22,0,0,0-2-2.27h0l0,0a7.67,7.67,0,0,0,.89,3.73.5.5,0,0,1-.07.55"/><path class="cls-3" d="M17.6,103.38h.23a0,0,0,0,0,0,0c.14-2.32-1.37-4.51-2.28-5.62h0l0,0a7.55,7.55,0,0,0,.16,2.46.49.49,0,0,1-.19.51.47.47,0,0,1-.53,0,7.9,7.9,0,0,0-3.68-1.24s0,0,0,0a0,0,0,0,0,0,0,11.12,11.12,0,0,0,2.12,2.24,7.69,7.69,0,0,0,2.39,1.3,6.14,6.14,0,0,0,1.84.31"/><path class="cls-3" d="M14.43,99.08h0a0,0,0,0,0,0,0,7.39,7.39,0,0,0-.81-4.4,12.39,12.39,0,0,0-.84-1.43h0s0,0,0,0a9,9,0,0,0-.13,2.47.48.48,0,0,1-.77.44,7.83,7.83,0,0,0-3.53-1.62h0v0A11.38,11.38,0,0,0,10.15,97a7.63,7.63,0,0,0,2.25,1.55,5.86,5.86,0,0,0,2,.51"/><path class="cls-3" d="M11.47,94.48h0a.05.05,0,0,0,0,0,7,7,0,0,0-.25-4.55,10.34,10.34,0,0,0-.69-1.47s0,0,0,0a0,0,0,0,0,0,0A9.93,9.93,0,0,0,10.07,91a.46.46,0,0,1-.3.43.48.48,0,0,1-.52-.11,7.87,7.87,0,0,0-2.84-1.85l-.47-.16h0a0,0,0,0,0,0,0A11.45,11.45,0,0,0,7.47,92a7.64,7.64,0,0,0,2.05,1.79,5.93,5.93,0,0,0,2,.74"/><path class="cls-3" d="M9.07,89.51h0s0,0,0,0a7.48,7.48,0,0,0-.22-6.12l0,0s0,0,0,0a9.68,9.68,0,0,0-.74,2.47.5.5,0,0,1-.35.4.48.48,0,0,1-.5-.17,8,8,0,0,0-2.61-2.16c-.15-.07-.3-.15-.46-.21,0,0,0,0,0,0a0,0,0,0,0,0,0C5.44,88.06,8,89.22,9.07,89.51"/><path class="cls-3" d="M5.49,83.23a5.73,5.73,0,0,0,1.79,1.09h0a6.47,6.47,0,0,0,.8-4.7,6.91,6.91,0,0,0-.52-1.53s0,0,0,0,0,0,0,0a9.84,9.84,0,0,0-1,2.51h0a.49.49,0,0,1-.87.16,7.69,7.69,0,0,0-2.88-2.59h0s0,0,0,0a11.31,11.31,0,0,0,1,2.89,7.5,7.5,0,0,0,1.67,2.14"/><path class="cls-3" d="M5.8,79h0l0,0A7.37,7.37,0,0,0,7.2,73a0,0,0,0,0,0,0s0,0,0,0a9.45,9.45,0,0,0-1.36,2.26.5.5,0,0,1-.44.3h0a.47.47,0,0,1-.43-.29,7.8,7.8,0,0,0-2-2.72,4,4,0,0,0-.4-.32h0a.05.05,0,0,0,0,0c.2,4.48,2.4,6.24,3.34,6.78"/><path class="cls-3" d="M5.34,73.6h0A5.76,5.76,0,0,0,7,70.35a9.15,9.15,0,0,0,0-2.79s0,0,0,0H7a4.19,4.19,0,0,0-1.22,2.13.48.48,0,0,1-.93.07,7.66,7.66,0,0,0-1.69-2.92l-.36-.36h0s0,0,0,0C2.43,71,4.45,73,5.34,73.6"/><path class="cls-3" d="M4,66.21a5.8,5.8,0,0,0,1.31,1.61h0a6.88,6.88,0,0,0,2-4,11.79,11.79,0,0,0,.14-1.69s0,0,0,0,0,0,0,0A6.82,6.82,0,0,0,6,64a.49.49,0,0,1-.48.27.48.48,0,0,1-.42-.36,7.65,7.65,0,0,0-1.84-3.39h0l0,0a11.26,11.26,0,0,0,0,3.07A7.56,7.56,0,0,0,4,66.21"/><path class="cls-3" d="M4.61,60.61a5.71,5.71,0,0,0,1.22,1.66h0a7.52,7.52,0,0,0,2.37-4.06,8.45,8.45,0,0,0,.2-1.5s0,0,0,0h0a10.49,10.49,0,0,0-1.77,1.89.47.47,0,0,1-.49.2.48.48,0,0,1-.37-.37,7.55,7.55,0,0,0-1.68-3.47s0,0,0,0,0,0,0,0A11.55,11.55,0,0,0,3.88,58a7.69,7.69,0,0,0,.73,2.6"/><path class="cls-3" d="M6.57,56.84h0a6.9,6.9,0,0,0,3-3.77,7.9,7.9,0,0,0,.33-1.5s0,0,0,0h0a8.86,8.86,0,0,0-2,1.7A.48.48,0,0,1,7,53a7.64,7.64,0,0,0-1.24-3.65s0,0,0,0l0,0a11.82,11.82,0,0,0-.52,3A7.67,7.67,0,0,0,5.55,55a5.82,5.82,0,0,0,1,1.81"/><path class="cls-3" d="M8,51.52H8a7.35,7.35,0,0,0,3.41-3.38,7.49,7.49,0,0,0,.52-1.41,0,0,0,0,0,0,0h0a10.13,10.13,0,0,0-2.24,1.42.48.48,0,0,1-.79-.38A7.63,7.63,0,0,0,8.1,44l0,0h0l0,0a12.06,12.06,0,0,0-.9,2.95,7.6,7.6,0,0,0,.06,2.7A6,6,0,0,0,8,51.52"/><path class="cls-3" d="M10,46.43s0,0,0,0h0a6.91,6.91,0,0,0,3.64-2.73,11.4,11.4,0,0,0,.94-1.57,0,0,0,0,0,0,0,0,0,0,0,0,0,0,4.55,4.55,0,0,0-2.33,1.14.48.48,0,0,1-.57.08.49.49,0,0,1-.24-.52A7.4,7.4,0,0,0,11.22,39l0,0h0a11.34,11.34,0,0,0-1.33,2.78,7.68,7.68,0,0,0-.35,2.68,5.76,5.76,0,0,0,.49,2"/><path class="cls-3" d="M12.77,41.56h0c2.32-.39,4.12-2.48,5-3.69a0,0,0,0,0,0,0l0,0a5.48,5.48,0,0,0-2.39.83.48.48,0,0,1-.56,0,.47.47,0,0,1-.16-.53,7.74,7.74,0,0,0,.28-3.84l0,0s0,0,0,0c-2.9,3.49-2.43,6.25-2.09,7.28,0,0,0,0,0,0"/><path class="cls-3" d="M16,37h.16A6.86,6.86,0,0,0,20,35.42a14.39,14.39,0,0,0,1.41-1.24s0,0,0,0l0,0a9,9,0,0,0-2.4.44.48.48,0,0,1-.52-.14.47.47,0,0,1-.06-.53,7.54,7.54,0,0,0,.89-3.74s0,0,0,0a0,0,0,0,0,0,0,11.46,11.46,0,0,0-2,2.32,7.5,7.5,0,0,0-1.08,2.48A5.51,5.51,0,0,0,16,37a0,0,0,0,0,0,0"/><path class="cls-6" d="M30.1,57.52a1.63,1.63,0,0,0,1.34.48h6.21c-3.73-2.32-5.1-1.9-7.7-.72a1,1,0,0,0,.15.24"/><path class="cls-6" d="M45.27,54.67a14.39,14.39,0,0,1-1.63-.49A17.07,17.07,0,0,1,40,52.08a.91.91,0,1,1,1.13-1.43,15.15,15.15,0,0,0,3.18,1.84,13.71,13.71,0,0,0,1.41.42,13.1,13.1,0,0,1,2.51.86c-.16-1-.32-1.9-.5-2.73a12.61,12.61,0,0,1-4.65-2.32,1,1,0,0,1-.33-.62.91.91,0,0,1,1.49-.79,11.54,11.54,0,0,0,3,1.69,35.23,35.23,0,0,0-2.73-7.08,6.32,6.32,0,0,0-3.68-3.26,5.64,5.64,0,0,0-2.11-.3h-.08a7.14,7.14,0,0,0-4.9,2.26l0,.05A5.68,5.68,0,0,0,32.29,43a.9.9,0,0,0,.31,1c.13.07.62.26,1.47-.33.21-.18.34-.27.38-.3a.92.92,0,0,1,1.24.19.91.91,0,0,1-.13,1.25L35.2,45a12.23,12.23,0,0,0-2,2.16,19.59,19.59,0,0,0-3.38,7.94,2.23,2.23,0,0,0,0,.23c2.58-1.12,4.67-1.58,9.28,1.39A8.69,8.69,0,0,0,43.35,58h2.1a3.94,3.94,0,0,0,2.73-.8,1.16,1.16,0,0,0,.27-.44c0-1.08-1-1.51-3.18-2.09"/><path class="cls-7" d="M36.32,90.24a1.38,1.38,0,0,0,.53-.72.55.55,0,0,0-.25-.38.93.93,0,0,0-.63-.26,3.81,3.81,0,0,0-1.82.9c-.52.36-1.38,1.07-1.31,1.74a.54.54,0,0,0,.23.45,2.6,2.6,0,0,0,1.58.14,4.71,4.71,0,0,1,1.67-1.87"/><path class="cls-7" d="M39.47,91.36s0-.19-.24-.45c0,0-.4-.31-1.3.21a4.24,4.24,0,0,0-1.8,1.6.88.88,0,0,0,.48.27,3.31,3.31,0,0,0,2.11-.74l.06,0c.21-.14.66-.53.69-.85"/><path class="cls-7" d="M29.84,87h-.18a3,3,0,0,0-2.06,1c-.3.4-.2.63-.16.7s.34.29.85.38l.34,0a4,4,0,0,1,1.18-1.75l.37-.34-.27,0h-.07"/><path class="cls-7" d="M30.13,89.84c0,.14.05.54.83.8.12,0,.25.07.38.09a4.55,4.55,0,0,1,1.89-2.26l.44-.3a.24.24,0,0,0,0-.15.86.86,0,0,0-.45-.4,1.13,1.13,0,0,0-.51-.12,2.85,2.85,0,0,0-1.79,1c-.59.57-.8.93-.78,1.34"/><path class="cls-7" d="M49.66,88.35A1.6,1.6,0,0,0,50.73,88a1.29,1.29,0,0,0,.36-.73A18.88,18.88,0,0,0,47,83.5,16.5,16.5,0,0,0,44.2,82a4.38,4.38,0,0,0-2.79-.28h0a3.85,3.85,0,0,0-1,.54c-.26.18-.55.37-.89.56a7.87,7.87,0,0,1-3.24,1,2.91,2.91,0,0,1-2.81-.88A1.94,1.94,0,0,1,33.11,81c.24-.64,1-1,1.91-1.46a11,11,0,0,0,1.1-.58,12.71,12.71,0,0,0,1.06-.79c.34-.28.72-.59,1.35-1a3.91,3.91,0,0,1,.82-.46l-1-.11c-1.5-.12-2.57.42-4.14,1.52-1.36.91-4,1.75-8.13,2.58-3.93.78-9.32,1.57-16,2.33.2.75.42,1.49.65,2.22a46.06,46.06,0,0,0,3.17,7.54c2.38-1.06,8.24-3.7,12.79-6.13a4.43,4.43,0,0,1,3.34-1.22,3.32,3.32,0,0,1,1.74.67,2.78,2.78,0,0,1,2.14.16,2.32,2.32,0,0,1,1.21,1.22h0a2.49,2.49,0,0,1,2.51.51,2.14,2.14,0,0,1,.78,1.32,2.2,2.2,0,0,1,1.92.52,2.1,2.1,0,0,1,.71,1.76,2.2,2.2,0,0,1-.35,1A2.62,2.62,0,0,0,42,92.34a2.74,2.74,0,0,0,.42-.21,7.18,7.18,0,0,0-1.1-1.6.82.82,0,0,1-.2-.58.79.79,0,0,1,.27-.55.8.8,0,0,1,1.13.07A9,9,0,0,1,44,91.67,1.19,1.19,0,0,0,45,91.34a2,2,0,0,0,.36-.5,4.86,4.86,0,0,0-.83-1.18,13.16,13.16,0,0,0-1.81-1.53.77.77,0,0,1-.33-.51.8.8,0,0,1,.13-.6.86.86,0,0,1,.52-.33.77.77,0,0,1,.59.14,14,14,0,0,1,2.11,1.79,7,7,0,0,1,1.07,1.54,1.67,1.67,0,0,0,1.31-.51,1.69,1.69,0,0,0,.23-.36,12.52,12.52,0,0,0-4-3.6.79.79,0,0,1-.4-.46.76.76,0,0,1,0-.61.77.77,0,0,1,.45-.4.76.76,0,0,1,.61,0,13.93,13.93,0,0,1,4.6,4.09"/><path class="cls-7" d="M39.49,80.91A4.75,4.75,0,0,1,41,80.14c2.65-.72,5.38,1.06,6.85,2A19.85,19.85,0,0,1,52.08,86a.67.67,0,0,1,.12.14l0,0h0a8.75,8.75,0,0,0,1.39,1.24A55.22,55.22,0,0,0,64.24,93a45.57,45.57,0,0,0,3.3-7.79c.21-.66.41-1.34.6-2a75.15,75.15,0,0,1-11.82-1.93c-3.53-.84-6.12-1.66-6.23-1.69-.72-.25-1.35-.47-1.91-.68a12,12,0,0,0-4.61-1.08h-.49l-.62,0h0a5,5,0,0,0-3,.6c-.58.41-1,.71-1.27,1a10.24,10.24,0,0,1-1.19.88,12.66,12.66,0,0,1-1.27.69,7.13,7.13,0,0,0-1.13.63c0,.07,0,.16.14.4s.66.26,1.42.22a6.26,6.26,0,0,0,2.53-.77c.3-.17.56-.34.81-.51"/><path class="cls-8" d="M124.57,71.87l-3-9.09a.77.77,0,0,0-.72-.53H108.23a.75.75,0,0,0-.72.53l-3,9.09a.75.75,0,0,1-.72.52H99.19a.76.76,0,0,1-.72-1l11.34-33.71a.77.77,0,0,1,.72-.52h8.1a.77.77,0,0,1,.72.52l11.34,33.71a.76.76,0,0,1-.72,1h-4.68a.77.77,0,0,1-.72-.52m-14.2-14.71h8.35a.76.76,0,0,0,.72-1l-4.19-12.79a.76.76,0,0,0-1.44,0l-4.17,12.79a.76.76,0,0,0,.73,1"/><path class="cls-8" d="M135.33,46.42h3.73a.76.76,0,0,1,.75.66l.38,2.72h.34a7.33,7.33,0,0,1,3-2.76,9,9,0,0,1,4.1-.93,13.48,13.48,0,0,1,1.41.08.76.76,0,0,1,.66.76v4.14a.75.75,0,0,1-.81.75c-.47,0-1-.06-1.61-.06a9.27,9.27,0,0,0-3.66.76,6.65,6.65,0,0,0-2.65,2,.79.79,0,0,0-.17.49V71.63a.76.76,0,0,1-.76.76h-4.72a.76.76,0,0,1-.75-.76V47.18a.76.76,0,0,1,.75-.76"/><path class="cls-8" d="M157.27,83.07a28.17,28.17,0,0,1-3.52-.67.77.77,0,0,1-.56-.74V78.28a.76.76,0,0,1,.95-.73,27.62,27.62,0,0,0,6.93.94,11.7,11.7,0,0,0,4.33-.68,4.67,4.67,0,0,0,2.46-2.18,8.32,8.32,0,0,0,.8-3.95V69.63h-.31a8.38,8.38,0,0,1-3,2.19,10.16,10.16,0,0,1-9-.56,9.36,9.36,0,0,1-3.62-4.19,16.58,16.58,0,0,1-1.35-7.13q0-6.86,3.57-10.37T165.61,46a34,34,0,0,1,4.84.36,26.39,26.39,0,0,1,3.92.83.74.74,0,0,1,.53.73V70.56a15.82,15.82,0,0,1-1.47,7.32A8.89,8.89,0,0,1,169,82a18.46,18.46,0,0,1-7.5,1.32,34.53,34.53,0,0,1-4.25-.27M166.44,67a5.57,5.57,0,0,0,2-1.35.76.76,0,0,0,.21-.53V51.86a.78.78,0,0,0-.62-.76,16.52,16.52,0,0,0-2.95-.27,7.08,7.08,0,0,0-5.53,2c-1.23,1.37-1.85,3.54-1.85,6.53s.52,5.05,1.55,6.27a5.5,5.5,0,0,0,4.43,1.82,7.63,7.63,0,0,0,2.75-.52"/><path class="cls-8" d="M201.42,61.28H186.93a.77.77,0,0,0-.76.86,8.28,8.28,0,0,0,.89,3.15,4.79,4.79,0,0,0,2.57,2.15,13.13,13.13,0,0,0,4.64.67,26,26,0,0,0,5.59-.69.76.76,0,0,1,.93.74v3.17a.76.76,0,0,1-.59.75,30,30,0,0,1-6.78.79,17.9,17.9,0,0,1-7.63-1.41,9.24,9.24,0,0,1-4.47-4.36,17.41,17.41,0,0,1-1.47-7.7A17.72,17.72,0,0,1,181.21,52a9.67,9.67,0,0,1,3.92-4.51A12.07,12.07,0,0,1,191.35,46q5.29,0,8.06,3.41t2.76,10.16v.93a.75.75,0,0,1-.75.76m-14-9.48a9.1,9.1,0,0,0-1.35,5,.76.76,0,0,0,.76.79h8.69a.76.76,0,0,0,.76-.79,9.41,9.41,0,0,0-1.3-5,4.3,4.3,0,0,0-3.72-1.71,4.56,4.56,0,0,0-3.84,1.71"/><path class="cls-8" d="M207.58,46.42h3.75a.76.76,0,0,1,.75.64l.33,2.1h.33a10.14,10.14,0,0,1,3.49-2.33,11.38,11.38,0,0,1,4.3-.81,8.49,8.49,0,0,1,6.35,2.37q2.34,2.37,2.34,7.48V71.63a.76.76,0,0,1-.76.76h-4.72a.76.76,0,0,1-.76-.76V56.23a5.15,5.15,0,0,0-1.1-3.7,4.27,4.27,0,0,0-3.18-1.11,7.75,7.75,0,0,0-3.1.66,6.41,6.41,0,0,0-2.37,1.74.77.77,0,0,0-.18.5V71.63a.76.76,0,0,1-.76.76h-4.71a.76.76,0,0,1-.76-.76V47.18a.76.76,0,0,1,.76-.76"/><path class="cls-8" d="M250.66,68.25v3.48a.76.76,0,0,1-.61.75,19.82,19.82,0,0,1-3.89.39q-9.22,0-9.23-9.31V52.16a.76.76,0,0,0-.76-.76h-3a.76.76,0,0,1-.76-.76V47.18a.76.76,0,0,1,.76-.76h3a.76.76,0,0,0,.76-.67l.93-7.92a.77.77,0,0,1,.76-.67h3.71a.76.76,0,0,1,.75.76v7.75a.76.76,0,0,0,.76.75h5.74a.76.76,0,0,1,.76.76v3.46a.76.76,0,0,1-.76.76h-5.74a.76.76,0,0,0-.76.76v10.4a7.85,7.85,0,0,0,.49,3,3.08,3.08,0,0,0,1.49,1.6,6,6,0,0,0,2.64.49,13.52,13.52,0,0,0,2-.18.75.75,0,0,1,.86.75"/><path class="cls-8" d="M255.22,41.1a3.15,3.15,0,0,1-1-2.51,3.2,3.2,0,0,1,1-2.52,5.44,5.44,0,0,1,5.93,0,3.23,3.23,0,0,1,1,2.52,3.18,3.18,0,0,1-1,2.51,5.49,5.49,0,0,1-5.93,0M255,71.63V47.18a.76.76,0,0,1,.76-.76h4.74a.76.76,0,0,1,.76.76V71.63a.76.76,0,0,1-.76.76H255.8a.76.76,0,0,1-.76-.76"/><path class="cls-8" d="M267.17,46.42h3.76a.77.77,0,0,1,.75.64l.32,2.1h.34a10,10,0,0,1,3.48-2.33,11.46,11.46,0,0,1,4.3-.81,8.53,8.53,0,0,1,6.36,2.37q2.32,2.37,2.33,7.48V71.63a.76.76,0,0,1-.76.76h-4.72a.76.76,0,0,1-.76-.76V56.23a5.15,5.15,0,0,0-1.09-3.7,4.3,4.3,0,0,0-3.19-1.11,7.75,7.75,0,0,0-3.1.66,6.37,6.37,0,0,0-2.36,1.74.77.77,0,0,0-.18.5V71.63a.76.76,0,0,1-.76.76h-4.72a.76.76,0,0,1-.76-.76V47.18a.76.76,0,0,1,.76-.76"/><path class="cls-8" d="M309.83,47a6.93,6.93,0,0,1,3.65,3.25,13.15,13.15,0,0,1,1.2,6.14V71.63a.76.76,0,0,1-.76.76h-3.75a.75.75,0,0,1-.75-.64l-.33-2h-.33a7.37,7.37,0,0,1-3,2.35,10.26,10.26,0,0,1-4.09.8,10,10,0,0,1-4.4-.91,6.58,6.58,0,0,1-2.85-2.56,7.52,7.52,0,0,1-1-3.89,6.73,6.73,0,0,1,2.47-5.59q2.48-2,7.83-2.41l4.86-.45V56a6.42,6.42,0,0,0-.63-3.11,3.53,3.53,0,0,0-2-1.61,11,11,0,0,0-3.6-.47,23.91,23.91,0,0,0-3.45.27,21.53,21.53,0,0,0-2.61.54.76.76,0,0,1-1-.73v-3.2a.75.75,0,0,1,.55-.73,25.38,25.38,0,0,1,3.39-.68,32,32,0,0,1,4.13-.28,17.39,17.39,0,0,1,6.41,1m-3.56,20.88a6.18,6.18,0,0,0,2.1-1.43.77.77,0,0,0,.22-.54V61.54a.76.76,0,0,0-.83-.76l-3.43.31a6.55,6.55,0,0,0-3.58,1.17,3.23,3.23,0,0,0-1.13,2.64,3.29,3.29,0,0,0,1,2.61,4.26,4.26,0,0,0,3,.91,7.11,7.11,0,0,0,2.68-.53"/><path class="cls-2" d="M98.47,89.75a28.24,28.24,0,0,1,5.43-.54q4.11,0,6.14,1.64a7.28,7.28,0,0,1,0,10.1c-1.35,1.14-3.38,1.7-6.09,1.7-.44,0-1.13,0-2.07-.07v5.83H98.47Zm9.14,9.31a3.89,3.89,0,0,0,1.13-3.1,4,4,0,0,0-1.11-3.15,5,5,0,0,0-3.44-1,14.38,14.38,0,0,0-2.3.18v7.91A15.77,15.77,0,0,0,104,100,5.48,5.48,0,0,0,107.61,99.06Z"/><path class="cls-2" d="M115.15,94.42h2.77l.26,1.82h.18A4,4,0,0,1,120,94.75a5,5,0,0,1,2.21-.5,7.14,7.14,0,0,1,1.12.09v3A7.65,7.65,0,0,0,122,97.3a5.12,5.12,0,0,0-2,.41,3.68,3.68,0,0,0-1.52,1.17v9.53h-3.36Z"/><path class="cls-2" d="M136.66,102.42H128a5,5,0,0,0,.52,2.16,2.57,2.57,0,0,0,1.38,1.16,7.15,7.15,0,0,0,2.5.36,15.12,15.12,0,0,0,3.52-.48v2.55a16.69,16.69,0,0,1-4,.5,9.58,9.58,0,0,1-4.11-.76,5,5,0,0,1-2.4-2.35,9.35,9.35,0,0,1-.8-4.15,9.5,9.5,0,0,1,.73-4A5.17,5.17,0,0,1,127.48,95a6.41,6.41,0,0,1,3.34-.82A5.28,5.28,0,0,1,135.17,96a8.58,8.58,0,0,1,1.49,5.47Zm-7.93-5.1a5.37,5.37,0,0,0-.74,3.09h5.53a5.65,5.65,0,0,0-.71-3.09,2.32,2.32,0,0,0-2-.93A2.44,2.44,0,0,0,128.73,97.32Z"/><path class="cls-2" d="M139.12,108.08v-2.52a14.58,14.58,0,0,0,4.23.62,4.19,4.19,0,0,0,2.18-.44,1.46,1.46,0,0,0,.68-1.29,1.41,1.41,0,0,0-.36-1,2.44,2.44,0,0,0-1.23-.54l-2.13-.4a5,5,0,0,1-2.82-1.35,3.71,3.71,0,0,1-.88-2.6,3.86,3.86,0,0,1,.68-2.27,4.42,4.42,0,0,1,2.09-1.51A9.63,9.63,0,0,1,145,94.2a14,14,0,0,1,3.58.44v2.5a13.25,13.25,0,0,0-3.49-.45c-2.11,0-3.17.58-3.17,1.74a1.33,1.33,0,0,0,.36,1,2.24,2.24,0,0,0,1.19.55l2.13.4a5.24,5.24,0,0,1,2.83,1.31,3.65,3.65,0,0,1,.91,2.65,3.91,3.91,0,0,1-.7,2.32,4.36,4.36,0,0,1-2,1.5,8.86,8.86,0,0,1-3.24.53A14.4,14.4,0,0,1,139.12,108.08Z"/><path class="cls-2" d="M152.24,91.55a1.68,1.68,0,0,1-.54-1.35,1.72,1.72,0,0,1,.54-1.36,2.34,2.34,0,0,1,1.59-.47,2.39,2.39,0,0,1,1.6.47A1.75,1.75,0,0,1,156,90.2a1.71,1.71,0,0,1-.53,1.35,2.34,2.34,0,0,1-1.6.47A2.29,2.29,0,0,1,152.24,91.55Zm-.1,16.86v-14h3.37v14Z"/><path class="cls-2" d="M161.34,107.94a5,5,0,0,1-2-2.28,9.14,9.14,0,0,1-.75-4,7.63,7.63,0,0,1,1.89-5.6A7.46,7.46,0,0,1,166,94.19a14.38,14.38,0,0,1,1.88.14V87.69h3.36v20.72h-2.84l-.2-1.47H168a4.47,4.47,0,0,1-1.59,1.25,4.93,4.93,0,0,1-2.17.46A5.76,5.76,0,0,1,161.34,107.94Zm5.31-2.37a3,3,0,0,0,1.2-.93V97a9.21,9.21,0,0,0-1.88-.19,3.89,3.89,0,0,0-3,1.1,5.2,5.2,0,0,0-1,3.54,5.52,5.52,0,0,0,.83,3.45,2.91,2.91,0,0,0,2.37,1A3.63,3.63,0,0,0,166.65,105.57Z"/><path class="cls-2" d="M186.31,102.42h-8.65a4.84,4.84,0,0,0,.51,2.16,2.57,2.57,0,0,0,1.38,1.16,7.18,7.18,0,0,0,2.51.36,15.11,15.11,0,0,0,3.51-.48v2.55a16.63,16.63,0,0,1-4,.5,9.64,9.64,0,0,1-4.11-.76,5,5,0,0,1-2.4-2.35,9.35,9.35,0,0,1-.8-4.15,9.49,9.49,0,0,1,.74-4A5.16,5.16,0,0,1,177.13,95a6.42,6.42,0,0,1,3.35-.82A5.31,5.31,0,0,1,184.83,96a8.58,8.58,0,0,1,1.48,5.47Zm-7.92-5.1a5.36,5.36,0,0,0-.75,3.09h5.53a5.48,5.48,0,0,0-.71-3.09,2.32,2.32,0,0,0-2-.93A2.43,2.43,0,0,0,178.39,97.32Z"/><path class="cls-2" d="M189.2,94.42H192l.23,1.47h.18a5.48,5.48,0,0,1,1.88-1.25,6.13,6.13,0,0,1,2.31-.44A4.6,4.6,0,0,1,200,95.48a5.55,5.55,0,0,1,1.26,4v8.9h-3.36V99.7a2.78,2.78,0,0,0-.59-2,2.32,2.32,0,0,0-1.72-.6,4.28,4.28,0,0,0-1.67.35,3.48,3.48,0,0,0-1.37,1.06v9.89H189.2Z"/><path class="cls-2" d="M206,106.88q-1.75-1.78-1.75-5.45T206.1,96a7.64,7.64,0,0,1,5.48-1.78,12.73,12.73,0,0,1,3,.34v2.69a12.36,12.36,0,0,0-2.6-.3,5.73,5.73,0,0,0-2.45.45,2.93,2.93,0,0,0-1.41,1.43,6.13,6.13,0,0,0-.46,2.59,5.08,5.08,0,0,0,1,3.48,3.84,3.84,0,0,0,3,1.06,8.21,8.21,0,0,0,1.36-.13,15,15,0,0,0,1.62-.37v2.69a11,11,0,0,1-3.48.54A6.93,6.93,0,0,1,206,106.88Z"/><path class="cls-2" d="M217.51,91.55A1.68,1.68,0,0,1,217,90.2a1.72,1.72,0,0,1,.54-1.36,2.34,2.34,0,0,1,1.59-.47,2.39,2.39,0,0,1,1.6.47,1.75,1.75,0,0,1,.53,1.36,1.71,1.71,0,0,1-.53,1.35,2.34,2.34,0,0,1-1.6.47A2.29,2.29,0,0,1,217.51,91.55Zm-.1,16.86v-14h3.37v14Z"/><path class="cls-2" d="M232.61,94.73a3.74,3.74,0,0,1,2,1.75,7,7,0,0,1,.65,3.31v8.62h-2.78l-.23-1.45H232a3.88,3.88,0,0,1-1.62,1.26,5.47,5.47,0,0,1-2.2.43,5.39,5.39,0,0,1-2.37-.48,3.63,3.63,0,0,1-1.54-1.38,4.07,4.07,0,0,1-.53-2.1,3.65,3.65,0,0,1,1.33-3,7.85,7.85,0,0,1,4.22-1.3l2.62-.24v-.55a3.45,3.45,0,0,0-.34-1.68,1.91,1.91,0,0,0-1.06-.86,6.08,6.08,0,0,0-1.95-.26,12.66,12.66,0,0,0-1.86.15,13.4,13.4,0,0,0-1.92.44V94.8a13.17,13.17,0,0,1,2.12-.44,16,16,0,0,1,2.23-.16A9.47,9.47,0,0,1,232.61,94.73ZM230.69,106a3.46,3.46,0,0,0,1.25-.9v-3l-2.3.21a3.59,3.59,0,0,0-1.93.63,1.76,1.76,0,0,0-.6,1.42,1.79,1.79,0,0,0,.54,1.41,2.3,2.3,0,0,0,1.6.49A4,4,0,0,0,230.69,106Z"/></svg>