<svg id="Layer_1" enable-background="new 0 0 64 64" height="512" viewBox="0 0 64 64" width="512" xmlns="http://www.w3.org/2000/svg"><path d="m56.224 37.068c-.792-.396-1.572-.739-2.333-1.038.071-.658.109-1.331.109-2.019 0-1.511-.255-3.027-.733-4.539 1.012-.441 2.027-.949 2.993-1.536.236-.143.311-.451.168-.688-.146-.236-.454-.309-.688-.168-.898.546-1.848 1.023-2.801 1.439-.635-1.66-1.547-3.315-2.751-4.955 1.243-1.1 3.775-4.183 3.775-11.038 0-.27-.213-.49-.483-.5-.463-.014-11.149-.361-14.161 2.891-1.714-.554-3.42-.771-4.736-.898-.27-.01-.519.175-.546.45-.026.274.175.519.45.546 2.025.195 3.47.482 4.831.957 1.179.412 2.525 1.074 4 1.967.08.049.17.072.259.072.148 0 .296-.066.394-.191.243-.309.53-.605.903-.932.209-.182.23-.497.049-.705-.182-.211-.498-.231-.705-.049-.289.251-.533.489-.749.729-1.121-.66-2.142-1.171-3.1-1.559 1.508-1.253 4.726-1.851 7.725-2.114-.612.245-1.231.536-1.832.896-.236.142-.315.448-.172.686.093.156.259.243.429.243.088 0 .176-.022.257-.071 2.368-1.415 5.056-1.787 6.181-1.884-.137 6.823-2.894 9.385-3.753 10.016-.108.08-.18.199-.199.332s.017.268.098.375c1.295 1.697 2.269 3.407 2.921 5.117-3.885 1.545-7.547 2.098-7.595 2.104-.273.04-.462.294-.423.567.036.25.249.429.493.429.024 0 .049-.002.073-.005.202-.03 3.839-.576 7.77-2.138.43 1.388.658 2.775.658 4.154 0 .563-.036 1.111-.087 1.653-4.637-1.64-8.283-1.636-8.414-1.656-.276.001-.5.226-.499.501.001.276.225.499.5.499h.001.001c.072 0 3.717.024 8.27 1.671-1.358 8.671-9.349 14.332-20.772 14.332s-19.414-5.661-20.772-14.332c4.557-1.647 8.214-1.671 8.271-1.671h.001c.276 0 .5-.224.501-.499 0-.275-.223-.5-.499-.501-.204-.033-3.81.001-8.415 1.648-.051-.539-.087-1.085-.087-1.645 0-1.356.239-2.739.687-4.139 3.919 1.558 7.538 2.114 7.739 2.144.025.004.05.006.074.006.244 0 .457-.178.494-.426.041-.273-.147-.528-.421-.568-.048-.007-3.687-.568-7.557-2.107.651-1.67 1.612-3.363 2.884-5.069.087-.117.119-.268.086-.41-.033-.143-.127-.265-.256-.332-.037-.02-3.574-1.959-3.725-10.05 1.12.094 3.867.462 6.247 1.886.081.049.169.071.256.071.17 0 .336-.087.43-.243.142-.237.064-.544-.172-.686-.69-.412-1.406-.74-2.11-1.004 3.112.217 6.517.811 8.042 2.208-.938.38-1.943.885-3.098 1.567-.234-.261-.497-.494-.753-.722-.207-.183-.524-.165-.706.042-.183.207-.164.523.042.706.342.304.665.59.891.912.097.139.252.214.41.214.088 0 .178-.023.258-.072 1.545-.936 2.807-1.561 3.969-1.967 1.36-.476 2.806-.762 4.834-.957.275-.027.477-.271.45-.546-.026-.275-.273-.469-.545-.45-1.315.127-3.018.344-4.726.894-2.999-3.486-13.783-2.914-14.253-2.886-.264.015-.471.235-.471.499 0 7.387 2.674 10.266 3.792 11.146-1.172 1.632-2.063 3.257-2.693 4.867-.966-.422-1.93-.906-2.84-1.459-.236-.142-.543-.066-.687.168-.144.236-.068.544.167.688.975.593 2.001 1.106 3.022 1.55-.496 1.526-.761 3.037-.761 4.525 0 .687.038 1.358.109 2.015-.76.302-1.54.645-2.332 1.042-.247.124-.347.424-.224.671.088.175.264.277.447.277.075 0 .151-.017.223-.053.693-.347 1.377-.65 2.048-.92 1.517 9.064 9.853 14.968 21.729 14.968 11.877 0 20.212-5.904 21.728-14.968.671.27 1.355.573 2.048.92.071.036.148.053.224.053.183 0 .359-.101.447-.276.123-.248.024-.548-.223-.672z"/><path d="m28.106 33.325c-5.459.902-9.106 3.558-9.106 6.675 0 3.925 5.71 7 13 7s13-3.075 13-7c0-3.117-3.647-5.773-9.106-6.675-.177-.542-.581-.92-1.222-1.118-.678-.21-1.538-.205-2.522-.209h-.299c-.981.001-1.845-.001-2.522.209-.642.197-1.047.576-1.223 1.118zm15.894 6.675c0 3.252-5.495 6-12 6s-12-2.748-12-6c0-2.526 3.276-4.805 8.031-5.649.264 1.716 2.366 3.123 3.469 3.526v1.12h-7c-.276 0-.5.224-.5.5s.224.5.5.5h15.016c.276 0 .5-.224.5-.5s-.224-.5-.5-.5h-7.016v-1.114c1.112-.391 3.211-1.778 3.469-3.532 4.755.844 8.031 3.123 8.031 5.649zm-12.292-7.003h.142.3c.879.004 1.694-.001 2.226.164.455.141.624.367.624.836 0 1.521-2.531 2.944-2.98 3.001-.502-.066-3.02-1.477-3.02-3.001 0-.469.169-.695.624-.836.503-.156 1.266-.164 2.084-.164z"/><path d="m35.516 40.997h-7.016c-.276 0-.5.224-.5.5s.224.5.5.5h7.016c.276 0 .5-.224.5-.5s-.224-.5-.5-.5z"/><path d="m22.145 31.85c.098.099.226.148.355.148.127 0 .255-.049.352-.146l2.148-2.137 2.147 2.137c.097.097.225.146.353.146s.257-.049.354-.148c.195-.195.194-.512-.002-.707l-2.144-2.133 2.144-2.133c.196-.195.197-.512.002-.707-.195-.196-.512-.196-.707-.002l-2.147 2.136-2.148-2.137c-.194-.193-.512-.193-.707.002s-.194.512.002.707l2.144 2.133-2.144 2.133c-.195.196-.196.512-.002.708z"/><path d="m36.177 31.85c.098.099.226.148.354.148s.255-.049.352-.146l2.148-2.137 2.147 2.137c.098.097.225.146.353.146s.257-.049.354-.148c.194-.195.194-.512-.002-.707l-2.144-2.133 2.144-2.133c.196-.195.196-.512.002-.707-.195-.197-.512-.195-.707-.002l-2.147 2.137-2.148-2.137c-.195-.193-.512-.195-.707.002-.194.195-.194.512.002.707l2.144 2.133-2.144 2.133c-.196.195-.196.511-.001.707z"/><path d="m32 15.011c.168 0 .337.002.506.006h.011c.271 0 .494-.217.5-.488.007-.276-.212-.505-.488-.512-.177-.004-.353-.006-.528-.006l-.479.004c-.276.005-.496.233-.491.51.005.275.226.471.509.49z"/></svg>