<?xml version="1.0" encoding="UTF-8"?>
<!-- Generator: Adobe Illustrator 28.1.0, SVG Export Plug-In . SVG Version: 6.00 Build 0)  -->
<svg version="1.1" id="Layer_2" xmlns="http://www.w3.org/2000/svg" xmlns:xlink="http://www.w3.org/1999/xlink" x="0px" y="0px" viewBox="0 0 356 70" style="enable-background:new 0 0 356 70;" xml:space="preserve">
<style type="text/css">
	.st0{clip-path:url(#SVGID_00000009555374862936525440000011534213942954139290_);}
	.st1{fill:none;}
	.st2{fill:#242C4F;}
</style>
<g>
	<g>
		<defs>
			<rect id="SVGID_1_" x="2.8" y="14" width="350.5" height="45.9"/>
		</defs>
		<clipPath id="SVGID_00000108297613221684950650000009304704643704417428_">
			<use xlink:href="#SVGID_1_" style="overflow:visible;"/>
		</clipPath>
		<g style="clip-path:url(#SVGID_00000108297613221684950650000009304704643704417428_);">
			<path class="st1" d="M2.8,14h350.5v46H2.8V14z"/>
			<path class="st2" d="M11.9,35.6h8.4L17.9,29c-0.4-1-0.7-2-1-3.1c-0.3-0.9-0.6-1.9-0.8-2.8H16c-0.2,0.6-0.4,1.4-0.6,2.3     c-0.3,1-0.6,2-1.1,3.3C14.4,28.7,11.9,35.6,11.9,35.6z M2.8,47.8v-2.6c0.8,0,1.5-0.2,2-0.7s0.9-1.1,1.3-1.9     c0.3-0.8,0.7-1.7,1-2.7L16,15.7h2.4l9.7,24.8c0.2,0.5,0.4,1.2,0.7,2.1c0.3,0.9,0.5,1.7,0.5,2.4c0.5,0,1-0.1,1.5-0.1     c0.4,0,0.8,0,1.3,0v3H20.6v-2.5c0.9,0,1.6-0.2,1.9-0.6c0.3-0.4,0.5-0.9,0.4-1.5c0-0.6-0.2-1.3-0.5-1.9l-1.1-3L11,38.5l-1,3     c-0.2,0.5-0.4,1.1-0.6,1.7c-0.2,0.6-0.5,1.2-0.7,1.7c0.6,0,1.2-0.1,1.8-0.1c0.5,0,1,0,1.5,0v3C11.9,47.8,2.8,47.8,2.8,47.8z      M33.7,45.5c0.9,0,1.5-0.2,1.8-0.6c0.4-0.4,0.6-0.9,0.7-1.6c0.1-0.7,0.1-1.5,0.1-2.3v-8.4c0-0.5,0-1.1,0-1.7s0.1-1.2,0.1-1.8     c-0.5,0-1.1,0.1-1.7,0.1c-0.5,0-1,0-1.5,0.1v-2.9h1.7c1.2,0,2.2-0.1,3-0.4s1.4-0.6,1.7-0.9h1.9c0.1,0.4,0.1,0.9,0.1,1.7     c0,0.8,0,1.6,0,2.3c0.7-0.9,1.4-1.7,2.1-2.3c0.7-0.6,1.5-1.1,2.3-1.5c0.8-0.3,1.6-0.5,2.4-0.5c1,0,1.8,0.3,2.5,0.8S52,27,52,28.2     c0,0.4-0.1,0.8-0.3,1.3c-0.2,0.4-0.5,0.8-0.9,1.1c-0.4,0.3-0.9,0.4-1.6,0.4c-0.6,0-1.2-0.2-1.8-0.6s-0.8-1.1-0.9-1.9     c-0.6,0-1.3,0.2-1.9,0.7c-0.7,0.5-1.3,1.1-1.8,1.7c-0.5,0.7-1,1.4-1.3,2.1v8.5c0,0.5,0,1.1,0,1.7c0,0.6-0.1,1.3-0.1,1.9     c0.5-0.1,1-0.1,1.5-0.1c0.4,0,0.9,0,1.3,0v2.9H33.7C33.7,47.8,33.7,45.5,33.7,45.5z M64.5,39.4c0.9,0,1.6-0.3,2.3-0.8     c0.6-0.5,1.1-1.2,1.4-2s0.5-1.7,0.5-2.6c0-1.1-0.1-2.2-0.4-3.2s-0.8-1.9-1.4-2.5s-1.4-1-2.4-1c-1.3,0-2.4,0.6-3.1,1.7     c-0.7,1.1-1.1,2.4-1.1,4c0,1.2,0.2,2.2,0.5,3.2s0.8,1.8,1.5,2.4C62.8,39.1,63.6,39.4,64.5,39.4z M65.1,57.3c2.3,0,4-0.4,5.2-1.3     c1.2-0.8,1.8-1.7,1.8-2.7c0-0.8-0.3-1.4-0.9-1.9s-1.4-0.8-2.4-1.1c-1-0.2-2.3-0.4-3.9-0.4c-0.7,0-1.4-0.1-2.3-0.1     c-0.8,0-1.5-0.1-2.3-0.2c-0.6,0.4-1,0.9-1.3,1.6c-0.3,0.6-0.5,1.3-0.5,1.9c-0.1,1.3,0.5,2.3,1.7,3.1     C61.5,56.9,63.1,57.3,65.1,57.3z M64.3,60c-2.6,0-4.7-0.3-6.2-0.9c-1.5-0.6-2.6-1.3-3.3-2.2s-1-1.9-1-2.8c0-0.7,0.2-1.4,0.5-2.1     c0.3-0.6,0.8-1.2,1.4-1.8c0.6-0.6,1.4-1,2.3-1.3c-1.1-0.3-2-0.8-2.5-1.5s-0.8-1.4-0.8-2.3c0-0.9,0.4-1.8,1.1-2.7     c0.7-1,1.8-1.6,3.3-2c-1.3-0.6-2.3-1.4-3.2-2.5c-0.8-1.1-1.2-2.4-1.3-3.9c0-1.8,0.4-3.4,1.4-4.7c0.9-1.4,2.2-2.4,3.7-3.2     c1.5-0.8,3.1-1.1,4.7-1.1c0.8,0,1.8,0.1,2.8,0.4c1,0.2,1.9,0.6,2.7,1.1c0.3-0.9,0.7-1.7,1.3-2.5c0.5-0.8,1.2-1.4,1.9-1.9     c0.7-0.5,1.5-0.7,2.4-0.7s1.6,0.2,2.1,0.7s0.7,1.1,0.7,1.9c0,0.3-0.1,0.7-0.2,1.1s-0.4,0.7-0.8,1s-0.9,0.4-1.5,0.4     c-0.5,0-0.9-0.2-1.3-0.5s-0.6-0.7-0.7-1.2c-0.5,0.1-1,0.5-1.4,1.1s-0.6,1.2-0.7,1.8c0.8,0.7,1.4,1.6,1.9,2.5c0.4,1,0.7,2,0.7,3.1     c0,1.7-0.5,3.2-1.4,4.5s-2.2,2.4-3.7,3.1c-1.5,0.7-3.1,1.1-4.9,1.1c-0.4,0-0.9,0-1.3-0.1c-0.4,0-0.9-0.1-1.4-0.1     c-0.8,0-1.5,0.2-2,0.5s-0.8,0.8-0.7,1.3c0.1,0.6,0.6,1,1.6,1.2s2.5,0.4,4.6,0.5c2.3,0.1,4.3,0.4,6,0.8c1.7,0.4,3,1.2,3.9,2.1     c0.9,1,1.4,2.3,1.4,4c0,1.3-0.4,2.4-1.1,3.3c-0.7,1-1.7,1.8-2.8,2.4c-1.2,0.7-2.5,1.2-3.9,1.5C67.1,59.8,65.7,60,64.3,60z      M84.7,33H94c0-1.2-0.2-2.2-0.5-3s-0.8-1.4-1.4-1.9c-0.6-0.4-1.3-0.6-2.2-0.6c-1.5,0-2.6,0.5-3.5,1.5     C85.5,29.8,84.9,31.2,84.7,33z M89.6,48.5c-2.1,0-4.1-0.5-5.7-1.5c-1.7-1-3-2.3-3.9-4.1s-1.4-3.9-1.4-6.3c0-2.1,0.5-4,1.4-5.9     c0.9-1.8,2.2-3.3,3.9-4.4c1.7-1.1,3.6-1.7,5.9-1.7c1.3,0,2.5,0.2,3.6,0.5c1.2,0.4,2.2,1,3.1,1.8s1.7,1.9,2.2,3.3     c0.6,1.4,0.8,3,0.8,5l-15,0.3c0,1.9,0.2,3.5,0.6,4.9s1.1,2.5,2.1,3.4c1,0.8,2.3,1.2,3.9,1.2c0.7,0,1.5-0.1,2.3-0.4     c0.8-0.3,1.6-0.6,2.4-1.2c0.8-0.5,1.5-1.2,2.1-1.9l1.7,1.6c-1,1.4-2.1,2.5-3.3,3.3c-1.2,0.8-2.4,1.3-3.6,1.6     C91.7,48.4,90.6,48.5,89.6,48.5L89.6,48.5z M103,47.8v-2.4c0.9,0,1.5-0.2,1.8-0.6c0.4-0.4,0.6-0.9,0.7-1.6     c0.1-0.7,0.1-1.5,0.1-2.3v-8.4c0-1.2,0.1-2.4,0.2-3.5c-0.5,0-1,0.1-1.6,0.1s-1.1,0.1-1.5,0.1v-2.9c1.3,0,2.4-0.1,3.3-0.2     s1.5-0.3,2-0.5s0.8-0.4,1-0.6h1.9c0.1,0.3,0.1,0.6,0.1,0.8c0,0.2,0,0.4,0,0.7c0,0.2,0.1,0.5,0.1,1c0.6-0.5,1.3-1,2.1-1.4     c0.8-0.4,1.6-0.7,2.4-1c0.8-0.2,1.6-0.4,2.2-0.4c2.7,0,4.6,0.8,5.8,2.4c1.2,1.6,1.7,4.1,1.7,7.6v6.8c0,0.5,0,1.1,0,1.7     c0,0.7-0.1,1.3-0.2,1.9c0.5-0.1,1-0.1,1.6-0.1c0.4,0,0.9,0,1.3,0v2.9h-10.9v-2.4c0.9,0,1.5-0.2,1.9-0.6c0.4-0.4,0.6-0.9,0.7-1.6     c0.1-0.7,0.1-1.5,0.1-2.3v-6.4c0-2.1-0.3-3.8-1-4.8c-0.6-1.1-1.7-1.6-3.2-1.6c-0.9,0-1.7,0.2-2.6,0.6s-1.5,0.9-2.1,1.5     c0,0.4,0,0.7,0,1.1v1.2v8.8c0,0.5,0,1.1,0,1.7c0,0.7-0.1,1.3-0.2,1.9c0.5-0.1,1-0.1,1.5-0.1s0.9,0,1.4,0v2.9L103,47.8L103,47.8z      M139.4,48.5c-0.8,0-1.6-0.1-2.4-0.3c-0.8-0.2-1.5-0.6-2.1-1.2c-0.6-0.6-1.2-1.4-1.5-2.5c-0.4-1.1-0.6-2.6-0.6-4.5l0.1-11.5h-3.2     v-3.1c0.9,0,1.8-0.3,2.6-0.9s1.6-1.3,2.2-2.3c0.6-0.9,1-2,1.3-3h2.7v6.3h6.3v2.9l-6.3,0.1V40c0,0.9,0.1,1.7,0.2,2.5     c0.2,0.8,0.5,1.4,0.9,1.8c0.4,0.4,1,0.7,1.8,0.7c0.6,0,1.2-0.2,1.9-0.5c0.7-0.4,1.5-1.1,2.2-2.1l1.8,1.7c-0.7,1.1-1.5,2-2.3,2.6     s-1.6,1.1-2.3,1.4c-0.7,0.3-1.4,0.5-1.9,0.5C140.1,48.5,139.7,48.5,139.4,48.5z M153.9,21.2c-0.9,0-1.6-0.3-2.2-1     c-0.6-0.6-0.9-1.4-0.9-2.3c0-0.9,0.3-1.7,0.9-2.4c0.6-0.7,1.3-1,2.2-1s1.6,0.3,2.2,1c0.6,0.7,0.9,1.4,0.9,2.4     c0,0.9-0.3,1.7-0.9,2.3C155.5,20.8,154.8,21.2,153.9,21.2z M148.8,45.5c0.9,0,1.5-0.2,1.8-0.6c0.4-0.4,0.6-0.9,0.7-1.6     c0.1-0.8,0.1-1.5,0.1-2.3v-8.4c0-0.5,0-1.1,0-1.7s0.1-1.2,0.1-1.9c-0.5,0-1.1,0.1-1.7,0.1c-0.6,0-1.1,0.1-1.5,0.1v-2.9     c1.3,0,2.5-0.1,3.3-0.2c0.9-0.1,1.6-0.3,2.1-0.5s0.8-0.4,1.1-0.6h2v16.4c0,0.5,0,1.1,0,1.7c0,0.7-0.1,1.3-0.2,1.9     c0.5-0.1,1-0.1,1.5-0.1s0.9,0,1.4,0v2.9h-10.9L148.8,45.5L148.8,45.5z M162.7,47.8v-2.4c0.9,0,1.5-0.2,1.8-0.6     c0.4-0.4,0.6-0.9,0.7-1.6c0.1-0.8,0.1-1.5,0.1-2.3v-8.4c0-1.2,0.1-2.4,0.2-3.5c-0.5,0-1,0.1-1.6,0.1s-1.1,0.1-1.5,0.1v-2.9     c1.3,0,2.4-0.1,3.3-0.2c0.9-0.1,1.5-0.3,2-0.5s0.8-0.4,1-0.6h1.9c0.1,0.3,0.1,0.6,0.1,0.8c0,0.2,0,0.4,0,0.7c0,0.2,0.1,0.5,0.1,1     c0.6-0.5,1.3-1,2.1-1.4s1.6-0.7,2.4-1c0.8-0.2,1.6-0.4,2.2-0.4c2.7,0,4.6,0.8,5.8,2.4s1.7,4.1,1.7,7.6v6.8c0,0.5,0,1.1,0,1.7     c0,0.7-0.1,1.3-0.2,1.9c0.5-0.1,1-0.1,1.6-0.1c0.4,0,0.9,0,1.3,0v2.9H177v-2.4c0.9,0,1.5-0.2,1.9-0.6c0.4-0.4,0.6-0.9,0.7-1.6     c0.1-0.7,0.1-1.5,0.1-2.3v-6.4c0-2.1-0.3-3.8-1-4.8c-0.6-1.1-1.7-1.6-3.2-1.6c-0.9,0-1.7,0.2-2.6,0.6c-0.8,0.4-1.5,0.9-2.1,1.5     c0,0.4,0,0.7,0,1.1v1.2v8.8c0,0.5,0,1.1,0,1.7c0,0.7-0.1,1.3-0.2,1.9c0.5-0.1,1-0.1,1.5-0.1s0.9,0,1.4,0v2.9L162.7,47.8     L162.7,47.8z M203.1,37.3c-0.9,0.1-1.8,0.2-2.6,0.4c-0.9,0.2-1.6,0.5-2.3,0.9s-1.2,0.9-1.6,1.5c-0.4,0.6-0.6,1.2-0.6,2     c0,0.9,0.3,1.6,0.9,2c0.6,0.4,1.2,0.6,2,0.6c0.9,0,1.6-0.2,2.4-0.5c0.7-0.4,1.4-0.9,1.9-1.4L203.1,37.3L203.1,37.3z M203.6,47.8     c-0.1-0.4-0.1-0.8-0.2-1.1c0-0.4,0-0.7-0.1-1.1c-1,1-2.1,1.8-3.2,2.2c-1.1,0.5-2.3,0.7-3.6,0.7c-2,0-3.6-0.6-4.7-1.7     c-1.1-1.1-1.6-2.5-1.6-4.1c0-1.4,0.4-2.6,1.2-3.6s1.8-1.8,3-2.5c1.3-0.6,2.6-1.1,4.2-1.5c1.5-0.3,3-0.5,4.5-0.6V32     c0-0.9-0.1-1.7-0.3-2.4c-0.2-0.7-0.5-1.3-1.1-1.7c-0.5-0.4-1.3-0.6-2.2-0.6c-0.7,0-1.3,0.2-2,0.4c-0.7,0.3-1.2,0.6-1.6,1.2     c0.2,0.3,0.4,0.6,0.4,0.9c0.1,0.3,0.1,0.6,0.1,0.8c0,0.5-0.2,1.1-0.6,1.7c-0.4,0.6-1.1,0.9-2,0.8c-0.8,0-1.4-0.3-1.9-0.9     c-0.4-0.5-0.6-1.2-0.6-1.9c0-1.1,0.4-2.1,1.2-3s1.9-1.5,3.3-2c1.4-0.5,3-0.7,4.7-0.7c2.6,0,4.5,0.7,5.9,2s2,3.5,2,6.4v3     c0,0.9,0,1.7,0,2.6c0,0.9,0,1.9,0,2.8c0,0.6,0,1.1,0,1.7c0,0.7-0.1,1.3-0.1,2c0.5-0.1,1.1-0.1,1.6-0.1c0.6,0,1,0,1.4-0.1v2.9     C211.3,47.8,203.6,47.8,203.6,47.8z M217.5,48.5c-0.9,0-1.6-0.3-2.2-1c-0.6-0.6-0.9-1.4-0.9-2.3c0-0.9,0.3-1.7,0.9-2.3     c0.6-0.6,1.3-1,2.1-1c0.9,0,1.6,0.3,2.1,1c0.6,0.6,0.9,1.4,0.9,2.3c0,0.9-0.3,1.7-0.9,2.3C219.1,48.2,218.4,48.5,217.5,48.5z      M234.9,39.4c0.9,0,1.6-0.3,2.3-0.8c0.6-0.5,1.1-1.2,1.4-2c0.3-0.8,0.5-1.7,0.5-2.6c0-1.1-0.1-2.2-0.4-3.2     c-0.3-1-0.8-1.9-1.4-2.5c-0.6-0.6-1.4-1-2.4-1c-1.3,0-2.4,0.6-3.1,1.7c-0.7,1.1-1.1,2.4-1.1,4c0,1.2,0.2,2.2,0.5,3.2     s0.8,1.8,1.5,2.4C233.3,39.1,234,39.4,234.9,39.4L234.9,39.4z M235.6,57.3c2.3,0,4-0.4,5.2-1.3c1.2-0.8,1.8-1.7,1.8-2.7     c0-0.8-0.3-1.4-0.9-1.9c-0.6-0.5-1.4-0.8-2.4-1.1c-1-0.2-2.3-0.4-3.9-0.4c-0.7,0-1.4-0.1-2.3-0.1c-0.8,0-1.5-0.1-2.3-0.2     c-0.6,0.4-1,0.9-1.3,1.6c-0.3,0.6-0.5,1.3-0.5,1.9c-0.1,1.3,0.5,2.3,1.7,3.1C231.9,56.9,233.5,57.3,235.6,57.3z M234.7,60     c-2.6,0-4.7-0.3-6.2-0.9c-1.5-0.6-2.6-1.3-3.3-2.2s-1-1.9-1-2.8c0-0.7,0.2-1.4,0.5-2.1c0.3-0.6,0.8-1.2,1.4-1.8     c0.6-0.6,1.4-1,2.3-1.3c-1.1-0.3-2-0.8-2.5-1.5s-0.8-1.4-0.8-2.3c0-0.9,0.4-1.8,1.1-2.7c0.7-1,1.8-1.6,3.3-2     c-1.3-0.6-2.3-1.4-3.2-2.5s-1.2-2.4-1.3-3.9c0-1.8,0.4-3.4,1.4-4.7c0.9-1.4,2.2-2.4,3.7-3.2c1.5-0.8,3.1-1.1,4.7-1.1     c0.8,0,1.8,0.1,2.8,0.4c1,0.2,1.9,0.6,2.7,1.1c0.3-0.9,0.7-1.7,1.3-2.5c0.5-0.8,1.2-1.4,1.9-1.9s1.5-0.7,2.4-0.7s1.6,0.2,2.1,0.7     s0.7,1.1,0.7,1.9c0,0.3-0.1,0.7-0.2,1.1c-0.2,0.4-0.4,0.7-0.8,1c-0.4,0.3-0.9,0.4-1.5,0.4c-0.5,0-0.9-0.2-1.3-0.5     c-0.4-0.3-0.6-0.7-0.7-1.2c-0.5,0.1-1,0.5-1.4,1.1s-0.6,1.2-0.7,1.8c0.8,0.7,1.4,1.6,1.9,2.5c0.4,1,0.7,2,0.7,3.1     c0,1.7-0.5,3.2-1.4,4.5s-2.2,2.4-3.7,3.1c-1.5,0.7-3.1,1.1-4.9,1.1c-0.4,0-0.9,0-1.3-0.1c-0.5,0-1-0.1-1.4-0.1     c-0.8,0-1.5,0.2-2,0.5s-0.8,0.8-0.7,1.3c0.1,0.6,0.6,1,1.6,1.2s2.5,0.4,4.6,0.5c2.3,0.1,4.3,0.4,6,0.8c1.7,0.4,3,1.2,3.9,2.1     c0.9,1,1.4,2.3,1.4,4c0,1.3-0.4,2.4-1.1,3.3c-0.7,1-1.7,1.8-2.8,2.4c-1.2,0.7-2.5,1.2-3.9,1.5C237.6,59.8,236.1,60,234.7,60     L234.7,60z M260.5,45.8c1.3,0,2.4-0.4,3.1-1.3c0.7-0.8,1.2-1.9,1.5-3.2s0.4-2.7,0.4-4c0-1.2-0.1-2.3-0.3-3.5     c-0.2-1.2-0.5-2.3-0.9-3.2c-0.4-1-1-1.7-1.7-2.3c-0.7-0.6-1.5-0.9-2.5-0.9c-1.3,0-2.4,0.5-3.1,1.3c-0.8,0.8-1.3,1.9-1.7,3.2     c-0.3,1.3-0.5,2.6-0.5,4.1c0,1.6,0.2,3.2,0.6,4.7c0.4,1.5,1,2.8,1.8,3.8C258.1,45.4,259.2,45.8,260.5,45.8L260.5,45.8z      M260.3,48.5c-2.1,0-4-0.5-5.8-1.4c-1.7-0.9-3.1-2.3-4.1-4s-1.5-3.7-1.5-6c0-2.4,0.5-4.6,1.5-6.4c1-1.9,2.4-3.3,4.1-4.4     c1.7-1,3.6-1.6,5.7-1.6s4,0.5,5.7,1.4c1.7,1,3.1,2.3,4.1,4s1.5,3.7,1.5,6c0,2.4-0.5,4.6-1.5,6.5s-2.3,3.3-4,4.3     C264.4,48,262.5,48.5,260.3,48.5z M281.5,41c0,1.2,0.2,2.1,0.6,2.8s0.9,1.2,1.5,1.5s1.2,0.4,1.9,0.5c1.4,0,2.5-0.4,3.3-1.2     c0.9-0.8,1.5-1.9,1.9-3.2c0.4-1.4,0.6-2.8,0.6-4.4c0-1.6-0.2-3.1-0.6-4.4c-0.4-1.3-1-2.4-1.8-3.2c-0.8-0.8-1.9-1.2-3.2-1.2     c-0.8,0-1.6,0.2-2.3,0.6c-0.7,0.4-1.4,0.9-1.9,1.5C281.5,30.3,281.5,41,281.5,41z M276,21.6c0-0.5,0-1.1,0-1.7s0.1-1.2,0.1-1.9     c-0.5,0-1,0.1-1.6,0.1s-1.1,0.1-1.5,0.1v-2.9c1.4,0,2.5-0.1,3.4-0.2c0.9-0.1,1.5-0.3,2-0.5s0.8-0.4,1.1-0.6h2.1v13.2     c1-0.9,2-1.5,3-1.9c1.1-0.4,2.1-0.6,3.2-0.6c1.8,0,3.5,0.5,4.9,1.4s2.5,2.2,3.3,3.9c0.8,1.7,1.2,3.7,1.2,6c0,2.4-0.5,4.6-1.4,6.5     c-1,1.9-2.3,3.4-3.9,4.4c-1.7,1.1-3.6,1.6-5.8,1.6c-0.9,0-1.9-0.2-3.2-0.5c-1.2-0.4-2.4-1.1-3.4-2.1l-1.3,2H276V21.6L276,21.6z      M304.1,48.5c-0.9,0-1.6-0.3-2.2-1c-0.6-0.6-0.9-1.4-0.9-2.3c0-0.9,0.3-1.7,0.9-2.3s1.3-1,2.1-1c0.9,0,1.6,0.3,2.1,1     c0.6,0.6,0.9,1.4,0.9,2.3c0,0.9-0.3,1.7-0.9,2.3C305.7,48.2,305,48.5,304.1,48.5z M323.6,37.3c-0.9,0.1-1.8,0.2-2.6,0.4     c-0.9,0.2-1.6,0.5-2.3,0.9c-0.7,0.4-1.2,0.9-1.6,1.5s-0.6,1.2-0.6,2c0,0.9,0.3,1.6,0.9,2s1.2,0.6,2,0.6c0.9,0,1.6-0.2,2.4-0.5     c0.7-0.4,1.4-0.9,1.9-1.4L323.6,37.3L323.6,37.3z M324.1,47.8c-0.1-0.4-0.1-0.8-0.2-1.1c0-0.4,0-0.7-0.1-1.1     c-1,1-2.1,1.8-3.2,2.2c-1.1,0.5-2.3,0.7-3.6,0.7c-2,0-3.6-0.6-4.7-1.7c-1.1-1.1-1.6-2.5-1.6-4.1c0-1.4,0.4-2.6,1.2-3.6     c0.8-1,1.8-1.8,3-2.5c1.3-0.6,2.6-1.1,4.2-1.5c1.5-0.3,3-0.5,4.5-0.6V32c0-0.9-0.1-1.7-0.3-2.4c-0.2-0.7-0.5-1.3-1.1-1.7     c-0.5-0.4-1.3-0.6-2.2-0.6c-0.7,0-1.3,0.2-2,0.4c-0.7,0.3-1.2,0.6-1.6,1.2c0.2,0.3,0.4,0.6,0.4,0.9s0.1,0.6,0.1,0.8     c0,0.5-0.2,1.1-0.6,1.7c-0.4,0.6-1.1,0.9-2,0.8c-0.8,0-1.4-0.3-1.9-0.9c-0.4-0.5-0.6-1.2-0.6-1.9c0-1.1,0.4-2.1,1.2-3     c0.8-0.9,1.9-1.5,3.3-2s3-0.7,4.7-0.7c2.6,0,4.5,0.7,5.9,2s2,3.5,2,6.4v3c0,0.9,0,1.7,0,2.6c0,0.9,0,1.9,0,2.8c0,0.4,0,1,0,1.7     s-0.1,1.3-0.1,2c0.5-0.1,1.1-0.1,1.6-0.1s0.9,0,1.4-0.1v2.9C331.9,47.8,324.1,47.8,324.1,47.8z M334.6,45.5     c0.9,0,1.5-0.2,1.8-0.6c0.4-0.4,0.6-0.9,0.7-1.6c0.1-0.7,0.1-1.5,0.1-2.3v-8.4c0-1.2,0.1-2.4,0.2-3.5c-0.5,0-1.1,0.1-1.7,0.1     s-1.1,0-1.5,0.1v-2.9h1.7c1.2,0,2.2-0.1,3-0.4s1.4-0.6,1.7-0.9h1.9c0.1,0.4,0.1,0.9,0.1,1.7c0,0.8,0,1.6,0,2.3     c0.7-0.9,1.4-1.7,2.1-2.3c0.7-0.6,1.5-1.1,2.3-1.5c0.8-0.3,1.6-0.5,2.4-0.5c1,0,1.8,0.3,2.5,0.8s1.1,1.4,1.1,2.6     c0,0.4-0.1,0.8-0.3,1.3c-0.2,0.4-0.5,0.8-0.9,1.1c-0.4,0.3-0.9,0.4-1.6,0.4c-0.6,0-1.2-0.2-1.8-0.6c-0.6-0.4-0.8-1.1-0.9-1.9     c-0.6,0-1.3,0.2-1.9,0.7c-0.7,0.5-1.3,1.1-1.8,1.7c-0.5,0.7-1,1.4-1.3,2.1v8.5c0,0.5,0,1.1,0,1.7c0,0.6-0.1,1.3-0.1,1.9     c0.5-0.1,1-0.1,1.5-0.1s1,0,1.3,0v2.9h-10.9L334.6,45.5L334.6,45.5z"/>
		</g>
	</g>
</g>
<script xmlns="" id="bw-fido2-page-script"/></svg>