<?xml version="1.0" encoding="UTF-8"?>
<svg id="Layer_2" data-name="Layer 2" xmlns="http://www.w3.org/2000/svg" viewBox="0 0 356 70">
  <defs>
    <style>
      .cls-1, .cls-2 {
        stroke-width: .13px;
      }

      .cls-1, .cls-2, .cls-3 {
        stroke: #252c4f;
      }

      .cls-1, .cls-2, .cls-3, .cls-4 {
        fill: #252c4f;
      }

      .cls-1, .cls-3 {
        stroke-miterlimit: 10;
      }

      .cls-2 {
        stroke-linejoin: round;
      }

      .cls-3 {
        stroke-width: .26px;
      }

      .cls-4, .cls-5 {
        stroke-width: 0px;
      }

      .cls-5 {
        fill: #242c4f;
      }
    </style>
  </defs>
  <g>
    <path class="cls-5" d="m57.55,47.48v-2.17c.71,0,1.28-.2,1.72-.61.43-.41.79-.95,1.07-1.62.28-.67.57-1.43.88-2.27l7.59-20.7h2.06l8.27,21.08c.15.43.36,1.04.61,1.83.25.79.39,1.47.42,2.06.43-.03.85-.05,1.26-.08.41-.03.76-.04,1.07-.04v2.52h-9.72v-2.1c.79,0,1.32-.16,1.6-.5.28-.33.4-.76.36-1.3-.04-.53-.17-1.08-.4-1.64l-.95-2.59-8.84.15-.84,2.55c-.15.43-.33.92-.53,1.47-.2.55-.41,1.04-.61,1.47.46-.03.96-.05,1.51-.08.55-.02.98-.04,1.31-.04v2.59h-7.81Zm7.81-10.41h7.17l-2.06-5.6c-.3-.86-.59-1.73-.86-2.61-.27-.88-.49-1.68-.67-2.42h-.08c-.15.51-.34,1.17-.55,1.98-.22.81-.51,1.74-.9,2.78l-2.06,5.87Z"/>
    <path class="cls-5" d="m83.93,45.45c.74,0,1.26-.16,1.56-.48.3-.32.5-.77.57-1.35.08-.58.11-1.25.11-1.98v-7.17c0-.46.01-.94.04-1.45.03-.51.06-1.03.11-1.56-.43.03-.9.04-1.41.06-.51.01-.93.03-1.26.06v-2.44h1.41c1.02,0,1.87-.12,2.55-.36.69-.24,1.17-.49,1.45-.74h1.6c.05.31.09.79.11,1.45.02.66.04,1.32.04,1.98.58-.76,1.19-1.42,1.83-1.96.63-.55,1.29-.97,1.96-1.26.67-.29,1.37-.44,2.08-.44.81,0,1.53.23,2.15.69.62.46.93,1.19.93,2.21,0,.33-.08.69-.25,1.07-.17.38-.42.7-.76.95-.34.25-.81.38-1.39.38-.53,0-1.04-.17-1.51-.52-.47-.34-.72-.9-.74-1.66-.53-.03-1.09.17-1.66.57-.57.41-1.09.9-1.54,1.49-.46.58-.81,1.18-1.07,1.79l.04,7.24c0,.41-.01.9-.04,1.47-.03.57-.06,1.12-.11,1.66.41-.05.84-.08,1.3-.1.46-.01.84-.02,1.14-.02v2.44h-9.26v-2.02Z"/>
    <path class="cls-5" d="m109.92,57.8c-2.24,0-4.01-.24-5.32-.72-1.31-.48-2.25-1.11-2.82-1.89-.57-.78-.86-1.58-.86-2.42,0-.64.14-1.23.42-1.77.28-.55.69-1.06,1.22-1.54.53-.48,1.18-.86,1.94-1.14-.97-.28-1.66-.71-2.1-1.28-.43-.57-.65-1.23-.65-1.96s.3-1.51.9-2.33c.6-.81,1.54-1.38,2.84-1.72-1.09-.48-1.99-1.19-2.69-2.13-.7-.94-1.06-2.06-1.09-3.35-.03-1.52.36-2.87,1.16-4.04.8-1.17,1.85-2.08,3.14-2.73,1.3-.65,2.64-.97,4.04-.97.71,0,1.5.1,2.36.31.86.2,1.63.52,2.29.95.25-.76.61-1.47,1.07-2.12.46-.65,1-1.18,1.62-1.58.62-.41,1.31-.61,2.08-.61s1.38.2,1.79.61c.41.41.61.95.61,1.64,0,.28-.06.58-.19.91-.13.33-.34.61-.65.84-.31.23-.72.34-1.26.34-.41,0-.78-.14-1.12-.42-.34-.28-.55-.62-.63-1.03-.43.1-.82.42-1.16.95-.34.53-.55,1.04-.63,1.52.69.61,1.22,1.33,1.6,2.15.38.83.57,1.71.57,2.65,0,1.45-.4,2.74-1.2,3.87-.8,1.13-1.84,2.01-3.13,2.65-1.28.64-2.66.95-4.14.95-.38,0-.76-.02-1.14-.06-.38-.04-.79-.06-1.22-.06-.69,0-1.25.14-1.7.42-.44.28-.64.65-.59,1.1.08.53.53.88,1.37,1.05.84.17,2.13.3,3.89.4,1.96.1,3.66.34,5.11.72,1.45.38,2.57.99,3.35,1.81.79.83,1.18,1.96,1.18,3.41,0,1.07-.3,2.01-.91,2.82-.61.81-1.42,1.5-2.42,2.06-1,.56-2.11.98-3.32,1.28-1.21.29-2.42.44-3.64.44Zm.72-2.25c1.93,0,3.41-.36,4.42-1.07,1.02-.71,1.52-1.49,1.52-2.33,0-.66-.24-1.19-.72-1.58-.48-.39-1.17-.69-2.06-.9-.89-.2-2-.33-3.32-.38-.58-.03-1.23-.06-1.94-.1-.71-.04-1.36-.11-1.94-.21-.48.36-.86.8-1.12,1.33-.27.53-.4,1.07-.4,1.6-.05,1.09.43,1.97,1.45,2.63,1.02.66,2.39.99,4.12.99Zm-.53-15.28c.76,0,1.4-.22,1.93-.67.52-.44.91-1.02,1.18-1.72.27-.7.4-1.44.4-2.23,0-.97-.13-1.89-.38-2.76-.25-.88-.65-1.59-1.18-2.13-.53-.55-1.21-.82-2.02-.82-1.14,0-2.03.48-2.65,1.43-.62.95-.93,2.08-.93,3.37,0,.99.15,1.91.44,2.76.29.85.71,1.52,1.26,2.02.55.5,1.2.74,1.96.74Z"/>
    <path class="cls-5" d="m131.46,48.08c-1.83,0-3.46-.41-4.88-1.24-1.42-.83-2.53-1.99-3.32-3.51-.79-1.51-1.18-3.3-1.18-5.36,0-1.78.39-3.44,1.18-4.99.79-1.55,1.9-2.8,3.34-3.75,1.44-.95,3.11-1.43,5.01-1.43,1.07,0,2.1.15,3.09.46.99.3,1.88.81,2.67,1.52.79.71,1.42,1.65,1.89,2.82.47,1.17.69,2.59.67,4.27l-12.81.23c0,1.58.18,2.97.55,4.17.37,1.21.97,2.16,1.81,2.86.84.7,1.94,1.05,3.32,1.05.61,0,1.26-.11,1.96-.32.7-.22,1.39-.55,2.08-.99.69-.44,1.3-1,1.83-1.66l1.45,1.33c-.84,1.22-1.77,2.16-2.78,2.82-1.02.66-2.03,1.11-3.05,1.35-1.02.24-1.96.36-2.82.36Zm-4.15-13.26h7.93c-.03-1.02-.17-1.87-.44-2.57-.27-.7-.65-1.23-1.16-1.6-.51-.37-1.13-.55-1.87-.55-1.25,0-2.24.41-2.99,1.24-.75.83-1.24,1.99-1.47,3.49Z"/>
    <path class="cls-5" d="m142.89,47.48v-2.02c.74,0,1.26-.16,1.56-.48.3-.32.5-.77.57-1.35.08-.58.11-1.25.11-1.98v-7.17c0-.46.01-.94.04-1.45.02-.51.06-1.03.11-1.56-.41.03-.87.05-1.39.08-.52.03-.95.05-1.28.08v-2.48c1.14,0,2.08-.06,2.82-.17.74-.11,1.31-.26,1.72-.44.41-.18.7-.34.88-.5h1.6c.05.28.08.51.08.69s.01.36.04.55c.02.19.06.46.11.82.51-.43,1.1-.82,1.77-1.16.67-.34,1.35-.62,2.04-.82.69-.2,1.32-.31,1.91-.31,2.29,0,3.93.67,4.92,2.02.99,1.35,1.49,3.49,1.49,6.44v5.76c0,.41,0,.9-.02,1.47-.01.57-.06,1.12-.13,1.66.43-.05.88-.08,1.33-.1.46-.01.84-.02,1.14-.02v2.44h-9.26v-2.02c.74,0,1.26-.16,1.58-.48.32-.32.51-.77.59-1.35.08-.58.11-1.25.11-1.98l-.04-5.41c0-1.83-.27-3.19-.82-4.1-.55-.9-1.44-1.35-2.69-1.35-.74.03-1.46.2-2.17.53-.71.33-1.31.75-1.79,1.26.03.3.04.62.04.95v.99l-.04,7.51c0,.41,0,.9-.02,1.47-.01.57-.06,1.12-.13,1.66.41-.05.84-.08,1.31-.1.47-.01.86-.02,1.16-.02v2.44h-9.26Z"/>
    <path class="cls-5" d="m173.92,48.08c-.71,0-1.4-.09-2.08-.27-.67-.18-1.28-.51-1.83-.99-.55-.48-.98-1.2-1.31-2.15-.33-.95-.5-2.22-.5-3.79l.08-9.83-2.71.04v-2.67c.76-.03,1.5-.29,2.21-.78.71-.5,1.33-1.15,1.87-1.96.53-.81.89-1.68,1.07-2.59h2.32l-.04,5.34h5.37v2.44l-5.37.11-.04,9.8c0,.76.07,1.47.21,2.12.14.65.39,1.16.76,1.54.37.38.87.57,1.51.57.48,0,1.04-.15,1.66-.46.62-.31,1.25-.91,1.89-1.83l1.56,1.41c-.64.97-1.29,1.72-1.96,2.25-.67.53-1.32.93-1.94,1.18-.62.25-1.18.41-1.66.46-.48.05-.84.08-1.07.08Z"/>
    <path class="cls-5" d="m181.89,45.45c.74,0,1.26-.16,1.56-.48.31-.32.5-.77.57-1.35.08-.58.11-1.25.11-1.98v-7.13c0-.43.01-.91.04-1.43.02-.52.06-1.06.11-1.62-.43.03-.9.05-1.41.08-.51.03-.93.05-1.26.08v-2.48c1.14,0,2.09-.06,2.84-.17.75-.11,1.33-.26,1.75-.44.42-.18.72-.34.9-.5h1.72v13.99c0,.41,0,.9-.02,1.47-.01.57-.06,1.12-.13,1.66.41-.05.84-.08,1.31-.1.47-.01.86-.02,1.16-.02v2.44h-9.26v-2.02Zm4.38-20.7c-.74,0-1.36-.27-1.87-.82-.51-.55-.76-1.21-.76-2s.26-1.46.78-2.02c.52-.56,1.14-.84,1.85-.84s1.35.28,1.85.84c.5.56.74,1.23.74,2.02s-.24,1.46-.72,2c-.48.55-1.1.82-1.87.82Z"/>
    <path class="cls-5" d="m193.78,47.48v-2.02c.74,0,1.26-.16,1.56-.48.31-.32.5-.77.57-1.35.08-.58.11-1.25.11-1.98v-7.17c0-.46.01-.94.04-1.45.02-.51.06-1.03.11-1.56-.41.03-.87.05-1.39.08-.52.03-.95.05-1.28.08v-2.48c1.14,0,2.08-.06,2.82-.17.74-.11,1.31-.26,1.72-.44.41-.18.7-.34.88-.5h1.6c.05.28.08.51.08.69s.01.36.04.55c.02.19.06.46.11.82.51-.43,1.1-.82,1.77-1.16.67-.34,1.35-.62,2.04-.82.69-.2,1.32-.31,1.91-.31,2.29,0,3.93.67,4.92,2.02.99,1.35,1.49,3.49,1.49,6.44v5.76c0,.41,0,.9-.02,1.47s-.06,1.12-.13,1.66c.43-.05.88-.08,1.33-.1.46-.01.84-.02,1.14-.02v2.44h-9.26v-2.02c.74,0,1.26-.16,1.58-.48.32-.32.51-.77.59-1.35.08-.58.11-1.25.11-1.98l-.04-5.41c0-1.83-.27-3.19-.82-4.1-.55-.9-1.44-1.35-2.69-1.35-.74.03-1.46.2-2.17.53-.71.33-1.31.75-1.79,1.26.03.3.04.62.04.95v.99l-.04,7.51c0,.41,0,.9-.02,1.47-.01.57-.06,1.12-.13,1.66.41-.05.84-.08,1.31-.1.47-.01.86-.02,1.16-.02v2.44h-9.26Z"/>
    <path class="cls-5" d="m228.58,47.48c-.08-.38-.12-.71-.13-.97-.01-.27-.03-.58-.06-.93-.86.86-1.79,1.5-2.76,1.91-.98.41-1.99.61-3.03.61-1.73,0-3.06-.47-3.98-1.41-.93-.94-1.39-2.1-1.39-3.47,0-1.22.33-2.25.99-3.11.66-.85,1.52-1.55,2.59-2.1,1.07-.55,2.25-.97,3.55-1.26,1.3-.29,2.58-.45,3.85-.48v-2.1c0-.74-.08-1.42-.25-2.04-.17-.62-.46-1.12-.9-1.49-.43-.37-1.07-.55-1.91-.55-.56.03-1.12.15-1.7.36-.57.22-1.02.55-1.35,1.01.2.23.33.48.38.74.05.27.08.5.08.71,0,.46-.18.93-.53,1.43-.36.5-.93.73-1.72.71-.69-.03-1.21-.27-1.58-.72-.37-.46-.55-1-.55-1.64,0-.97.35-1.81,1.05-2.53.7-.72,1.65-1.3,2.84-1.72,1.19-.42,2.53-.63,4-.63,2.19,0,3.86.57,5.03,1.72,1.17,1.14,1.74,2.97,1.72,5.49v2.42c0,.72,0,1.45-.02,2.17-.01.72-.02,1.53-.02,2.42,0,.38-.01.86-.04,1.43-.03.57-.06,1.14-.11,1.7.46-.05.92-.08,1.39-.1.47-.01.86-.03,1.16-.06v2.48h-6.59Zm-.42-8.96c-.76.05-1.51.17-2.25.36-.74.19-1.4.45-1.98.78-.58.33-1.05.74-1.39,1.24-.34.5-.5,1.06-.48,1.7.02.79.28,1.37.76,1.73.48.37,1.04.55,1.68.55.74,0,1.4-.15,2-.46.6-.31,1.15-.71,1.66-1.22v-4.69Z"/>
    <path class="cls-5" d="m240.43,48.08c-.74,0-1.35-.27-1.85-.82-.5-.55-.74-1.2-.74-1.96s.26-1.45.78-2c.52-.55,1.12-.82,1.81-.82.74,0,1.35.27,1.83.82.48.55.72,1.21.72,2s-.24,1.42-.72,1.96c-.48.55-1.09.82-1.83.82Z"/>
    <path class="cls-5" d="m255.07,57.8c-2.24,0-4.01-.24-5.32-.72-1.31-.48-2.25-1.11-2.82-1.89-.57-.78-.86-1.58-.86-2.42,0-.64.14-1.23.42-1.77.28-.55.69-1.06,1.22-1.54.53-.48,1.18-.86,1.94-1.14-.97-.28-1.67-.71-2.1-1.28-.43-.57-.65-1.23-.65-1.96s.3-1.51.9-2.33c.6-.81,1.54-1.38,2.84-1.72-1.09-.48-1.99-1.19-2.69-2.13-.7-.94-1.06-2.06-1.09-3.35-.03-1.52.36-2.87,1.16-4.04.8-1.17,1.85-2.08,3.14-2.73,1.3-.65,2.64-.97,4.04-.97.71,0,1.5.1,2.36.31.86.2,1.63.52,2.29.95.25-.76.61-1.47,1.07-2.12.46-.65,1-1.18,1.62-1.58.62-.41,1.31-.61,2.08-.61s1.38.2,1.79.61c.41.41.61.95.61,1.64,0,.28-.06.58-.19.91-.13.33-.34.61-.65.84-.31.23-.72.34-1.26.34-.41,0-.78-.14-1.12-.42-.34-.28-.55-.62-.63-1.03-.43.1-.82.42-1.16.95-.34.53-.55,1.04-.63,1.52.69.61,1.22,1.33,1.6,2.15.38.83.57,1.71.57,2.65,0,1.45-.4,2.74-1.2,3.87-.8,1.13-1.84,2.01-3.13,2.65-1.28.64-2.66.95-4.14.95-.38,0-.76-.02-1.14-.06-.38-.04-.79-.06-1.22-.06-.69,0-1.25.14-1.7.42-.44.28-.64.65-.59,1.1.08.53.53.88,1.37,1.05.84.17,2.13.3,3.89.4,1.96.1,3.66.34,5.11.72,1.45.38,2.57.99,3.35,1.81.79.83,1.18,1.96,1.18,3.41,0,1.07-.31,2.01-.91,2.82-.61.81-1.42,1.5-2.42,2.06-1,.56-2.11.98-3.32,1.28-1.21.29-2.42.44-3.64.44Zm.72-2.25c1.93,0,3.4-.36,4.42-1.07,1.02-.71,1.52-1.49,1.52-2.33,0-.66-.24-1.19-.72-1.58-.48-.39-1.17-.69-2.06-.9-.89-.2-1.99-.33-3.32-.38-.58-.03-1.23-.06-1.94-.1-.71-.04-1.36-.11-1.94-.21-.48.36-.86.8-1.12,1.33-.27.53-.4,1.07-.4,1.6-.05,1.09.43,1.97,1.45,2.63,1.02.66,2.39.99,4.12.99Zm-.53-15.28c.76,0,1.4-.22,1.92-.67.52-.44.91-1.02,1.18-1.72.27-.7.4-1.44.4-2.23,0-.97-.13-1.89-.38-2.76-.25-.88-.65-1.59-1.18-2.13-.53-.55-1.21-.82-2.02-.82-1.14,0-2.03.48-2.65,1.43-.62.95-.93,2.08-.93,3.37,0,.99.15,1.91.44,2.76.29.85.71,1.52,1.26,2.02.55.5,1.2.74,1.96.74Z"/>
    <path class="cls-5" d="m276.87,48.08c-1.8,0-3.44-.4-4.92-1.2-1.47-.8-2.64-1.93-3.49-3.39-.85-1.46-1.28-3.17-1.28-5.13,0-2.06.43-3.89,1.3-5.49.86-1.6,2.03-2.85,3.49-3.74,1.46-.89,3.07-1.33,4.82-1.33s3.43.41,4.88,1.22c1.45.81,2.6,1.94,3.45,3.39.85,1.45,1.28,3.16,1.28,5.15,0,2.08-.41,3.92-1.24,5.51-.83,1.59-1.96,2.82-3.39,3.7-1.44.88-3.07,1.31-4.9,1.31Zm.19-2.32c1.14,0,2.02-.36,2.63-1.07.61-.71,1.04-1.62,1.28-2.73.24-1.11.36-2.24.36-3.41,0-.99-.08-1.99-.25-3.01-.17-1.02-.43-1.94-.78-2.76-.36-.83-.83-1.49-1.41-1.98-.58-.5-1.3-.74-2.13-.74-1.12.03-2.01.39-2.67,1.11-.66.71-1.14,1.61-1.43,2.71-.29,1.09-.44,2.25-.44,3.47,0,1.37.16,2.71.5,4.02.33,1.31.85,2.38,1.56,3.2.71.83,1.64,1.23,2.78,1.2Z"/>
    <path class="cls-5" d="m290.25,25.18c0-.43,0-.91.02-1.43.01-.52.04-1.06.1-1.62-.41.03-.87.05-1.39.08-.52.03-.95.05-1.28.08v-2.48c1.17,0,2.12-.06,2.86-.17.74-.11,1.31-.26,1.73-.44.42-.18.72-.34.9-.5h1.75v11.24c.81-.76,1.68-1.31,2.59-1.64.92-.33,1.83-.5,2.74-.5,1.57,0,2.97.39,4.17,1.18,1.21.79,2.15,1.91,2.84,3.35.69,1.45,1.03,3.15,1.03,5.11,0,2.08-.41,3.93-1.22,5.53-.81,1.6-1.93,2.85-3.35,3.75-1.42.9-3.06,1.35-4.92,1.35-.74,0-1.63-.15-2.69-.46-1.05-.31-2.01-.91-2.88-1.83l-1.07,1.68h-1.94v-22.3Zm4.69,16.5c0,1.02.16,1.82.5,2.4.33.58.76,1,1.28,1.24.52.24,1.05.38,1.58.4,1.17,0,2.12-.34,2.84-1.03.72-.69,1.26-1.61,1.6-2.76.34-1.16.52-2.41.52-3.75s-.17-2.62-.5-3.75c-.33-1.13-.84-2.03-1.52-2.71-.69-.67-1.59-1.01-2.71-1.01-.69.03-1.35.2-1.98.53-.64.33-1.17.76-1.6,1.3v9.15Z"/>
    <path class="cls-5" d="m314.19,48.08c-.74,0-1.35-.27-1.85-.82-.5-.55-.74-1.2-.74-1.96s.26-1.45.78-2c.52-.55,1.12-.82,1.81-.82.74,0,1.35.27,1.83.82.48.55.72,1.21.72,2s-.24,1.42-.72,1.96c-.48.55-1.09.82-1.83.82Z"/>
    <path class="cls-5" d="m331.22,47.48c-.08-.38-.12-.71-.13-.97-.01-.27-.03-.58-.06-.93-.86.86-1.79,1.5-2.76,1.91-.98.41-1.99.61-3.03.61-1.73,0-3.06-.47-3.98-1.41-.93-.94-1.39-2.1-1.39-3.47,0-1.22.33-2.25.99-3.11.66-.85,1.52-1.55,2.59-2.1,1.07-.55,2.25-.97,3.55-1.26,1.3-.29,2.58-.45,3.85-.48v-2.1c0-.74-.08-1.42-.25-2.04-.17-.62-.46-1.12-.9-1.49-.43-.37-1.07-.55-1.91-.55-.56.03-1.12.15-1.7.36-.57.22-1.02.55-1.35,1.01.2.23.33.48.38.74.05.27.08.5.08.71,0,.46-.18.93-.53,1.43-.36.5-.93.73-1.72.71-.69-.03-1.21-.27-1.58-.72-.37-.46-.55-1-.55-1.64,0-.97.35-1.81,1.05-2.53.7-.72,1.65-1.3,2.84-1.72,1.19-.42,2.53-.63,4-.63,2.19,0,3.86.57,5.03,1.72,1.17,1.14,1.74,2.97,1.72,5.49v2.42c0,.72,0,1.45-.02,2.17-.01.72-.02,1.53-.02,2.42,0,.38-.01.86-.04,1.43-.03.57-.06,1.14-.11,1.7.46-.05.92-.08,1.39-.1.47-.01.86-.03,1.16-.06v2.48h-6.59Zm-.42-8.96c-.76.05-1.51.17-2.25.36-.74.19-1.4.45-1.98.78-.58.33-1.05.74-1.39,1.24-.34.5-.5,1.06-.48,1.7.02.79.28,1.37.76,1.73.48.37,1.04.55,1.68.55.74,0,1.4-.15,2-.46.6-.31,1.15-.71,1.66-1.22v-4.69Z"/>
    <path class="cls-5" d="m340.14,45.45c.74,0,1.26-.16,1.56-.48.31-.32.5-.77.57-1.35.08-.58.11-1.25.11-1.98v-7.17c0-.46.01-.94.04-1.45.02-.51.06-1.03.11-1.56-.43.03-.9.04-1.41.06-.51.01-.93.03-1.26.06v-2.44h1.41c1.02,0,1.87-.12,2.55-.36s1.17-.49,1.45-.74h1.6c.05.31.09.79.11,1.45.02.66.04,1.32.04,1.98.58-.76,1.19-1.42,1.83-1.96.63-.55,1.29-.97,1.96-1.26.67-.29,1.37-.44,2.08-.44.81,0,1.53.23,2.15.69.62.46.93,1.19.93,2.21,0,.33-.08.69-.25,1.07-.17.38-.42.7-.76.95-.34.25-.81.38-1.39.38-.53,0-1.04-.17-1.51-.52-.47-.34-.72-.9-.74-1.66-.53-.03-1.09.17-1.66.57-.57.41-1.09.9-1.54,1.49-.46.58-.81,1.18-1.07,1.79l.04,7.24c0,.41-.01.9-.04,1.47s-.06,1.12-.11,1.66c.41-.05.84-.08,1.3-.1.46-.01.84-.02,1.14-.02v2.44h-9.26v-2.02Z"/>
  </g>
  <g>
    <g>
      <path class="cls-4" d="m20.76,60.49c-8.8,0-15.96-10.07-15.96-22.45s7.16-22.45,15.96-22.45,15.96,10.07,15.96,22.45-7.16,22.45-15.96,22.45Zm0-44.46c-8.56,0-15.52,9.88-15.52,22.02s6.96,22.02,15.52,22.02,15.52-9.88,15.52-22.02-6.96-22.02-15.52-22.02Z"/>
      <rect class="cls-3" x="5.11" y="37.33" width="31.32" height=".21"/>
      <g>
        <path class="cls-1" d="m34.49,49.18c.14-.32.3-.83.48-1.46-.22.65-.37,1.12-.48,1.46Z"/>
        <path class="cls-1" d="m34.23,49.58c-.62-.08-4.94-1.91-5.97-2.69-.18-.14-.38-.3-.6-.48-.79-.66-1.62-1.45-2.11-1.92-.14-.14-.26-.25-.34-.32-.41-.38-2.35-1.37-3.19-1.37-.04,0-.08,0-.11,0-.43.06-.8.27-1.15.48-.25.14-.49.28-.73.36-.63.19-1.46.18-1.57.12-.07-.05-.24-.19-.18-.33.09-.2.67-.45.95-.57.29-.12.71-.45,1.12-.77.34-.26.69-.53.86-.6.36-.14,1.15-.16,1.57-.12.6.05,4.02.96,5.73,1.52,1.59.52,6.36.88,7.37.95-.31,1.47-.62,2.84-.91,3.87.1-.3.21-.63.33-1,.49-1.46.78-3.16.78-3.16-.06,0-5.77-.39-7.48-.95-1.76-.57-5.17-1.48-5.79-1.53-.43-.04-1.27-.04-1.71.14-.04.02-.09.04-.14.07-.47-.15-1.62-.24-2.04-.21-.63.06-4.04.96-5.79,1.53-1.71.56-7.42.94-7.48.95h-.18s.05.19.05.19c0,.02.26,1.7.75,3.21.93,2.86,1.1,3.22,1.31,3.22.02,0,3.31-1.47,5.25-2.57.76-.43,2.23-1.2,2.68-1.3l.24-.44c-.52.11-2.92,1.33-2.99,1.37-2.57,1.26-4.37,2.2-5.18,2.49-.47.17-1.84-5.88-1.73-5.88,0,0,5.78-.43,7.37-.95,1.7-.56,5.13-1.47,5.73-1.52.32-.03,1.17.03,1.68.13-.14.1-.3.22-.46.35-.38.29-.8.62-1.06.73-.62.27-1,.47-1.11.73-.1.23,0,.49.28.69.24.17,1.27.1,1.83-.07.28-.09.54-.24.79-.38.33-.19.67-.39,1.05-.44.62-.08,2.64.9,3.06,1.28.08.07.19.18.33.32.5.47,1.33,1.26,2.12,1.93.22.18.42.35.61.48,1,.75,5.4,2.79,6.15,2.88.01,0,.05-.17.26-.83-.1.24-.19.38-.26.39Z"/>
      </g>
      <g>
        <g>
          <path class="cls-1" d="m30.87,18.59h0s-5.16-1.82-5.16-1.82l.4.28c.2.1.46.13.68.26l4.13,1.45h.04s-.02-.02-.02-.02c-.02-.05-.05-.1-.07-.15Z"/>
          <path class="cls-1" d="m34.6,14.15l-7.67-.51h0s.06-.02.1-.03c.17-.06.33-.13.55-.22.1-.05.2-.1.28-.14h0c.07-.04.14-.07.21-.1.31-.16.62-.27.91-.34.3-.07.61-.1.95-.08.1,0,.2.01.32.02h0c.07,0,.14.01.21.01.2.01.4.02.63-.02.41-.07.71-.23,1-.39h0s.08-.04.12-.06c.29-.16.6-.32.91-.42.31-.09.62-.11.94-.07.16.02.31-.09.34-.25.02-.08,0-.16-.05-.23-.05-.07-.12-.11-.2-.13-.4-.07-.81-.07-1.21.02-.39.09-.75.25-1.08.41-.14.07-.31.14-.47.2-.08.03-.15.05-.22.07h0s-.06.02-.09.02h-.03s-.05.01-.07.01h0c-.18.02-.39-.01-.62-.04-.11-.02-.24-.03-.37-.05-.41-.05-.82-.03-1.2.03-.37.06-.75.18-1.14.34-.08.03-.16.06-.23.09h-.01c-.08.04-.17.07-.25.11-.18.07-.33.12-.47.16-.11.03-.23.06-.35.08h0s-.02-.06-.02-.06l7.19-3.57c.11-.06.13-.17.09-.26-.04-.09-.14-.15-.26-.11l-7.22,2.67h0c.06-.05.11-.1.17-.15.13-.12.26-.25.42-.42.07-.08.14-.15.21-.24h0c.05-.07.1-.13.15-.18.23-.26.46-.49.71-.67.25-.19.53-.33.84-.45.1-.04.2-.07.3-.11h.01c.06-.02.13-.05.19-.07.18-.07.38-.14.57-.26.35-.22.56-.49.77-.75v-.02s.06-.06.09-.09c.2-.26.42-.53.68-.74.25-.2.53-.34.84-.43.16-.05.25-.2.22-.36-.02-.08-.07-.15-.13-.19-.07-.04-.15-.06-.23-.04-.39.09-.78.25-1.1.49-.33.23-.59.52-.84.8-.11.12-.23.25-.35.37-.06.06-.12.11-.18.15h0s-.05.04-.07.05h0s-.01.01-.02.02c-.02.01-.04.03-.06.03h0c-.16.09-.37.15-.59.21-.12.03-.24.06-.36.1-.39.12-.77.29-1.09.5-.32.2-.62.46-.92.76-.07.07-.13.13-.18.18-.06.07-.13.13-.19.19-.14.14-.26.24-.37.33-.11.09-.23.17-.34.23h0s-.03-.04-.03-.04l5.26-6.14c.08-.1.05-.21-.02-.28-.07-.07-.19-.09-.28,0l-5.6,5.28h0c.03-.07.07-.13.1-.2.07-.16.14-.33.22-.55.03-.1.06-.19.1-.29h0c.03-.09.05-.17.07-.23.1-.33.24-.63.39-.89.16-.27.35-.51.6-.74.08-.07.16-.15.24-.22l.02-.02s.09-.08.14-.13c.14-.13.3-.28.43-.46.23-.34.33-.67.42-.99.01-.04.02-.09.04-.13.09-.32.18-.65.34-.95.15-.28.35-.52.6-.73.13-.1.15-.29.06-.42-.05-.07-.12-.11-.2-.13-.08-.01-.16,0-.23.05-.33.23-.61.54-.83.88-.21.34-.34.71-.46,1.06-.05.15-.11.32-.18.48-.03.08-.07.15-.1.21h0s-.03.06-.05.08l-.02.03s-.03.04-.04.06h0c-.11.14-.28.28-.46.42h0c-.09.07-.19.15-.29.24-.32.26-.6.57-.81.89-.21.31-.4.66-.55,1.06-.04.09-.07.16-.09.24v.02c-.04.08-.07.15-.1.23-.08.18-.14.32-.21.44-.07.13-.15.26-.24.37v.02s-.01,0-.01,0h0s-.05-.02-.07-.04h0s2.71-7.68,2.71-7.68c.04-.12-.03-.22-.11-.25-.09-.04-.21-.01-.26.1l-3.1,6.51h0c0-.09,0-.19-.01-.31,0-.1-.02-.2-.03-.3h0c0-.09-.02-.17-.02-.25-.03-.35-.03-.67.01-.97.04-.31.13-.61.26-.92.04-.09.08-.19.13-.29.03-.06.06-.13.09-.19.08-.18.16-.37.21-.59.08-.4.04-.75,0-1.08v-.02s-.01-.08-.02-.12c-.05-.33-.09-.67-.06-1,.03-.32.12-.62.27-.91.08-.14.03-.32-.11-.41-.07-.04-.15-.06-.23-.04-.08.02-.15.07-.19.14-.21.34-.36.73-.42,1.13-.06.4-.04.79,0,1.16.01.17.02.35.02.51,0,.09,0,.16-.01.23h0s0,.06-.01.09h0s0,.03,0,.03c0,.02,0,.05-.02.07h0c-.05.18-.15.37-.27.57-.05.1-.12.21-.17.33-.19.36-.33.76-.4,1.13-.07.37-.11.77-.09,1.19,0,.08,0,.15,0,.22v.06c0,.09,0,.17,0,.25,0,.2,0,.35-.02.49-.01.15-.04.3-.07.43,0,.02-.01.05-.02.07h0s0,0,0,0c-.03,0-.06,0-.09-.01l-.48-8.05c0-.12-.11-.19-.2-.19-.1,0-.2.07-.2.19l-.36,7.69h0c-.02-.07-.04-.14-.07-.21-.06-.16-.13-.33-.22-.55-.04-.09-.08-.17-.13-.27v-.03c-.05-.07-.08-.14-.11-.2-.16-.31-.27-.62-.34-.91-.07-.3-.1-.61-.08-.95,0-.1.01-.2.02-.31v-.04c0-.06.01-.12.02-.18.01-.2.02-.41-.02-.63-.07-.41-.23-.71-.39-1-.02-.04-.04-.08-.06-.12-.16-.29-.32-.6-.42-.91-.09-.31-.11-.62-.07-.94.02-.16-.09-.31-.25-.34-.08-.02-.16,0-.23.05-.07.05-.11.12-.13.2-.08.4-.07.81.02,1.21.09.39.25.75.41,1.08.07.14.14.31.2.47.03.08.05.15.07.22h0s.01.06.02.09v.04s.01.05.01.07h0c.02.18-.01.4-.04.63-.02.12-.03.24-.05.37-.05.41-.03.82.03,1.2.06.37.18.75.34,1.14.03.09.07.16.1.24h0c.03.09.07.17.1.26.07.18.12.33.16.47.04.14.07.29.09.43h0s-.04.01-.04.01l-3.61-7.27c-.06-.11-.17-.13-.26-.09-.09.04-.15.14-.11.26l2.67,7.22h0c-.05-.06-.09-.11-.14-.17-.12-.13-.25-.26-.42-.42-.07-.07-.15-.14-.22-.2l-.03-.02c-.06-.05-.12-.1-.16-.14-.26-.23-.49-.46-.67-.71-.19-.25-.33-.53-.45-.84-.04-.1-.07-.2-.11-.3-.02-.07-.05-.13-.07-.2-.07-.18-.14-.38-.26-.57-.22-.35-.49-.56-.75-.77-.04-.03-.07-.06-.11-.09-.26-.2-.53-.42-.74-.68-.2-.25-.34-.53-.43-.84-.05-.16-.2-.25-.36-.22-.08.02-.15.07-.19.13-.04.07-.06.15-.04.23.09.39.25.78.49,1.1.23.32.52.59.8.84.12.11.26.23.37.35.06.06.11.12.15.18h0s.03.05.05.07l.02.03s.03.04.03.06h0c.09.16.14.37.2.6h0c.03.12.06.24.1.36.12.39.29.77.5,1.09.2.32.46.62.76.92.06.06.12.12.17.17h.01c.07.08.13.14.19.21.14.14.24.26.33.37.1.11.18.24.25.36,0,.01.01.03.02.04h0s-.02.01-.02.01l-6.19-5.31c-.1-.08-.21-.05-.28.02-.07.07-.09.19,0,.28l5.28,5.6h0c-.06-.04-.13-.07-.2-.1-.16-.07-.33-.14-.55-.22-.09-.03-.19-.06-.29-.1h-.02c-.08-.03-.15-.05-.21-.08-.33-.1-.63-.24-.89-.39-.27-.16-.51-.35-.74-.6-.07-.08-.15-.16-.22-.24-.05-.05-.09-.1-.14-.16-.13-.14-.28-.3-.46-.43-.34-.23-.67-.33-.99-.42h-.02s-.08-.03-.11-.04c-.32-.09-.65-.18-.95-.34-.28-.15-.52-.35-.73-.6-.1-.13-.29-.15-.42-.06-.14.1-.17.29-.07.43.23.33.54.61.88.83.34.21.71.34,1.06.46.15.05.32.11.48.18.08.04.15.07.21.1h0s.05.03.08.05l.03.02s.04.03.06.04h0c.14.11.27.29.42.47.07.09.15.19.23.29.26.32.57.6.89.81.31.21.66.4,1.06.55.09.04.17.07.24.1.09.03.17.07.25.1.18.08.32.14.44.21.13.07.26.15.37.24.02.01.03.03.05.04h0s-.03.06-.03.06l-7.72-2.72c-.12-.04-.22.03-.25.11-.04.09-.01.21.1.26l6.51,3.1h0c-.09,0-.19,0-.3.01-.1,0-.2.02-.3.03h-.02c-.08,0-.16.02-.22.02-.35.03-.67.03-.97-.01-.31-.04-.61-.13-.92-.26-.09-.04-.19-.08-.28-.13h0c-.06-.03-.13-.06-.19-.09-.18-.08-.37-.16-.59-.21-.4-.08-.75-.04-1.08,0h-.03s-.07.01-.11.02c-.33.05-.67.09-1,.06-.32-.03-.62-.12-.91-.27-.14-.08-.32-.03-.41.11-.04.07-.06.15-.04.23.02.08.07.15.14.19.34.21.73.36,1.13.42.4.06.79.04,1.16,0,.16-.01.34-.02.5-.02h0c.09,0,.16,0,.23.01h0s.06,0,.09.01h.03s.05.01.07.02h0c.17.05.36.15.57.27h0c.1.06.21.12.32.18.36.19.76.33,1.13.4.37.08.77.11,1.19.09.09,0,.18,0,.26,0,.09,0,.18,0,.27,0,.2,0,.35,0,.49.02.15.01.3.04.43.07.03,0,.05.02.08.03h0s0,0,0,0c0,.03,0,.06-.01.09l-8.06.48c-.13,0-.19.11-.19.2,0,.09.07.19.19.2l7.69.36h0c-.07.02-.14.04-.21.07-.17.06-.34.13-.55.22-.1.04-.2.1-.28.14h0c-.07.04-.14.07-.21.1-.31.16-.62.27-.91.34-.3.07-.61.1-.95.08-.1,0-.21-.01-.32-.02h-.04c-.06,0-.12-.01-.18-.01-.2-.01-.4-.02-.63.02-.41.07-.71.23-1,.39-.04.02-.08.04-.12.06-.29.16-.6.32-.91.42-.31.09-.62.11-.94.07-.16-.02-.31.09-.34.25-.02.08,0,.16.05.23.05.07.12.11.2.13.4.07.81.07,1.21-.02.39-.09.75-.25,1.08-.41.14-.07.31-.14.47-.2.08-.03.15-.05.22-.07h0s.06-.02.09-.02h0s.01,0,.02,0c.02,0,.05,0,.07,0h0c.18-.02.39.01.62.04h0c.12.02.24.03.36.05.41.05.82.03,1.2-.03.37-.06.75-.18,1.14-.34.08-.03.15-.06.22-.09h.02c.08-.04.17-.08.25-.11.18-.07.33-.12.47-.16.14-.04.28-.07.41-.08h0s0,0,0,0c0,.01,0,.03.01.04h0s-4.15,2.06-4.15,2.06h-.02s.02.03.02.03h0s.03.07.01.1l-.02.04,4.32-2.15h.01s-.02-.07-.02-.07c-.02-.05-.03-.11-.05-.16l-.02-.06h-.06s-.03,0-.05,0c-.15.01-.3.04-.45.09-.14.04-.29.09-.48.16-.09.03-.17.07-.25.1h0c-.07.03-.15.07-.24.1-.38.16-.75.27-1.11.33-.37.06-.77.08-1.16.03-.13-.01-.25-.03-.36-.04h0c-.24-.03-.46-.06-.65-.05-.04,0-.07,0-.09.01h-.03s-.07.02-.11.03c-.08.02-.17.05-.23.07-.16.06-.33.14-.48.21-.33.15-.68.31-1.05.4-.37.08-.77.09-1.15.01-.04,0-.08-.03-.1-.07-.02-.03-.03-.08-.02-.12.01-.08.09-.14.17-.13.34.04.68.02,1.01-.08.33-.1.65-.26.94-.43.03-.02.07-.04.1-.05h.02c.28-.16.57-.32.96-.38.21-.03.41-.03.6-.01.07,0,.14,0,.21.01h0c.11,0,.22.02.32.02.35.02.68-.01.99-.09.3-.07.62-.19.94-.35.06-.03.13-.06.2-.1h.01c.09-.05.19-.1.28-.14.21-.09.37-.16.53-.22.2-.07.39-.12.59-.15h.07s-.01-.19-.01-.19l-8.17-.38s-.05-.04-.05-.05c0-.01,0-.05.05-.05l8.17-.48h.01s0-.06,0-.06c0-.06.02-.13.02-.19v-.03s-.03-.05-.03-.05h-.02s-.09-.05-.15-.07c-.14-.04-.3-.07-.46-.08-.14-.01-.3-.02-.5-.02-.1,0-.19,0-.27,0-.08,0-.17,0-.26,0-.41.01-.8-.02-1.15-.09-.37-.07-.74-.2-1.1-.39-.11-.06-.23-.12-.33-.17-.21-.12-.41-.22-.59-.28-.03-.01-.06-.02-.09-.02h-.03s-.07-.02-.11-.02c-.08,0-.15-.01-.25-.01h0c-.17,0-.36.01-.52.02-.36.03-.74.05-1.12,0-.38-.06-.75-.2-1.07-.4-.04-.02-.06-.06-.07-.1,0-.04,0-.08.02-.12.04-.07.13-.09.21-.06.3.16.63.26.97.29.34.03.7-.01,1.03-.06.03,0,.06,0,.09-.01h.05c.32-.05.64-.09,1.02,0,.21.04.39.12.56.2.06.03.13.06.19.09h0c.1.05.19.1.29.14.32.14.64.23.96.27.31.04.65.05,1,.01.07,0,.15-.01.24-.02.1,0,.21-.02.31-.03.23-.01.4-.02.58-.01.01,0,.02,0,.03,0h.38s-7.14-3.39-7.14-3.39c-.04-.02-.03-.05-.03-.07,0-.01.02-.04.06-.03l7.82,2.76h.01s.03-.05.03-.05c0,0,.06-.11.09-.16l.03-.05-.04-.04s-.06-.06-.11-.1c-.11-.09-.25-.18-.39-.25-.13-.07-.27-.14-.46-.22-.08-.04-.17-.07-.25-.1h-.01c-.07-.03-.15-.06-.23-.1-.38-.15-.73-.33-1.03-.53-.31-.21-.6-.48-.86-.78-.08-.1-.16-.2-.23-.29-.15-.19-.29-.37-.44-.49-.03-.02-.05-.04-.07-.06l-.03-.02s-.05-.04-.09-.06c-.07-.04-.16-.08-.22-.11-.16-.07-.34-.13-.49-.18-.34-.12-.7-.25-1.03-.45-.32-.2-.61-.47-.83-.78-.05-.07-.03-.17.04-.22.07-.05.16-.03.21.03.22.27.48.48.78.64.31.16.65.26.97.35.04.01.08.02.11.03h.02c.31.09.63.18.95.4.17.12.31.27.44.4.05.05.09.1.14.15.08.09.15.17.22.24.24.26.49.46.78.63.27.16.58.3.92.4.07.02.14.05.22.07h.01c.09.03.19.07.28.1.22.08.38.14.54.21.19.09.37.19.54.3.02.01.04.03.06.04l.06.05.1-.13-5.66-6.01s0-.06,0-.07c0-.01.04-.03.07,0l6.27,5.38h.01s.05-.03.05-.03c.04-.03.07-.06.11-.09l.04-.03-.02-.05s-.03-.08-.05-.11c-.07-.13-.16-.26-.26-.38-.09-.11-.2-.23-.34-.38-.07-.07-.13-.13-.19-.19h0c-.06-.06-.12-.12-.18-.19-.29-.29-.54-.59-.74-.89-.2-.31-.37-.68-.48-1.06-.04-.12-.07-.24-.1-.35h0c-.06-.24-.12-.45-.21-.63-.01-.03-.03-.06-.05-.08l-.02-.03s-.03-.06-.06-.09c-.05-.07-.11-.14-.16-.19-.12-.13-.26-.25-.38-.36-.27-.24-.55-.5-.78-.81-.22-.31-.38-.67-.46-1.05,0-.04,0-.08.02-.12.02-.04.06-.06.1-.07.08-.02.16.03.18.11.09.33.25.63.46.9.22.27.5.49.76.7.04.03.07.06.11.09.25.2.51.41.71.73.11.18.18.37.25.54.02.06.04.13.07.19h0c.03.1.07.21.11.31.12.33.28.62.47.88.18.25.42.5.69.73.06.05.12.11.18.16h0c.08.07.15.14.23.2.17.16.3.28.41.41.15.16.27.32.38.49,0,.01.01.02.02.04l.04.06.15-.08-2.85-7.72s.01-.06.03-.07c.01,0,.05-.02.07.02l3.66,7.37h0s.06,0,.06,0c.05-.02.1-.03.15-.04l.06-.02v-.06s0-.05,0-.07c-.01-.15-.04-.3-.09-.45-.04-.14-.09-.29-.16-.48-.03-.08-.06-.15-.09-.23l-.02-.04c-.03-.07-.06-.14-.09-.22-.16-.38-.27-.75-.33-1.11-.06-.37-.08-.77-.03-1.16.01-.12.03-.24.05-.36.03-.24.06-.46.05-.66,0-.04,0-.07-.01-.09,0,0,0-.01,0-.02h0s-.01-.08-.02-.11c-.02-.07-.04-.14-.07-.23-.06-.16-.14-.34-.21-.48-.15-.33-.31-.68-.4-1.05-.08-.37-.09-.77-.01-1.15,0-.04.03-.08.07-.1.03-.02.08-.03.12-.02.08.02.14.09.13.17-.04.34-.02.68.08,1.01.1.33.26.65.43.94.02.04.04.08.06.12.15.28.31.57.37.96.03.21.03.41.01.6,0,.07,0,.14-.01.21,0,.11-.02.22-.02.32-.02.35.01.68.09.99.07.3.19.62.35.94.03.07.07.14.1.21.04.09.09.19.13.28.1.21.16.37.22.53.07.2.12.39.16.6v.07s.19-.02.19-.02l.38-8.17s.04-.05.05-.05c.01,0,.05,0,.05.05l.48,8.16h0s.06.02.06.02c.07,0,.14.01.21.02h.05s.02-.04.02-.04c.02-.04.04-.09.06-.15.04-.14.07-.3.08-.46.01-.14.02-.3.02-.5,0-.09,0-.18,0-.28v-.02c0-.08,0-.15,0-.24-.01-.41.02-.8.09-1.15.07-.37.2-.74.39-1.1.06-.11.12-.22.17-.32.12-.21.23-.41.28-.6.01-.03.02-.06.02-.09v-.03s.02-.07.02-.11c0-.08.01-.15.01-.25,0-.18-.01-.36-.02-.52-.03-.36-.05-.74,0-1.12.06-.38.2-.75.4-1.07.02-.04.06-.06.1-.07.04,0,.08,0,.12.02.07.04.09.13.06.21-.16.3-.26.63-.29.96-.03.35.01.7.06,1.03,0,.03,0,.06.01.09v.04c.05.32.09.65,0,1.03-.04.21-.12.39-.2.56-.03.07-.06.13-.09.19h0c-.04.1-.09.2-.13.3-.14.32-.23.64-.27.96-.04.31-.05.65-.01,1,0,.07.01.15.02.24.01.12.02.21.03.31.01.23.02.41.01.58,0,.02,0,.03,0,.05v.36s3.39-7.14,3.39-7.14c.02-.04.05-.03.07-.03.01,0,.04.02.03.06l-2.74,7.79h0s.06.04.06.04c.06.03.12.06.18.09l.05.03.04-.04s.05-.05.06-.07c.09-.11.18-.25.25-.39.07-.13.14-.27.22-.46.03-.08.07-.16.1-.24v-.03c.04-.07.07-.14.1-.22.15-.38.33-.73.53-1.03.21-.31.48-.6.78-.86.09-.08.19-.16.28-.23h0c.19-.15.37-.29.49-.45.02-.03.04-.05.06-.07l.02-.02s.04-.05.06-.09c.04-.07.08-.15.11-.21h0c.07-.16.13-.33.18-.5.12-.34.25-.7.45-1.03.2-.32.47-.61.78-.83.03-.02.08-.03.12-.03.04,0,.08.03.1.06.05.07.03.16-.03.21-.27.22-.48.48-.64.78-.16.31-.26.65-.35.97-.01.04-.02.08-.04.12h0c-.09.32-.18.63-.4.95-.12.17-.27.31-.4.44-.04.04-.08.07-.12.11l-.03.03c-.08.07-.16.14-.24.22-.26.24-.46.5-.63.78-.16.27-.3.58-.4.92-.02.06-.04.13-.07.2v.02c-.04.1-.07.2-.1.29-.08.22-.14.38-.21.54-.09.2-.19.37-.3.54,0,0,0,0,0,.01l-.05.06.13.11,5.97-5.63s.06,0,.07,0c.01,0,.03.04,0,.07l-5.34,6.22h0s.04.06.04.06c.04.04.07.09.11.13l.04.05.05-.03s.03-.01.04-.02c.13-.07.26-.16.38-.26.11-.09.23-.2.38-.34.07-.07.14-.14.2-.2.06-.06.12-.12.18-.18.29-.29.59-.54.89-.74.31-.2.68-.37,1.06-.48.12-.04.24-.07.36-.1.23-.06.45-.12.62-.21.03-.01.06-.03.08-.05l.02-.02s.06-.04.09-.06c.06-.05.12-.1.19-.16.13-.12.25-.26.36-.38.24-.27.5-.55.81-.78.31-.22.67-.38,1.05-.46.04,0,.08,0,.12.02.04.02.06.06.07.1.02.08-.03.16-.11.18-.33.09-.63.25-.9.46-.27.22-.49.5-.7.76-.02.02-.04.05-.06.07l-.03.03c-.2.25-.41.51-.74.72-.18.11-.37.18-.54.25-.07.02-.13.05-.2.07-.11.04-.21.07-.3.11-.33.12-.62.28-.88.47-.25.18-.5.41-.73.69-.04.05-.09.1-.14.16l-.02.02c-.06.07-.13.16-.2.23-.16.17-.28.3-.41.41-.15.14-.3.26-.46.36l-.06.04.09.16,7.64-2.83s.06.02.06.03c0,.01.02.05-.02.07l-7.29,3.62h-.01s.02.07.02.07c.02.06.04.12.05.18l.02.06h.06c.14-.02.29-.05.44-.09.14-.04.29-.09.48-.16.08-.03.16-.07.25-.1h0c.07-.03.15-.07.23-.1.38-.16.75-.27,1.11-.33.37-.06.77-.08,1.16-.03.12.01.25.03.36.04h0c.24.03.46.07.66.05.04,0,.07,0,.09-.01h.03s.07-.02.11-.03c.08-.02.15-.04.23-.07.17-.06.34-.14.48-.21.33-.15.68-.31,1.05-.4.37-.08.77-.09,1.15-.01.04,0,.08.03.1.07.02.03.03.08.02.12-.01.08-.09.14-.17.13-.34-.04-.68-.02-1,.08-.33.1-.65.26-.94.43-.03.02-.07.04-.1.05h-.02c-.28.16-.57.32-.96.38-.21.03-.41.03-.6.01-.07,0-.14,0-.21-.01-.11,0-.22-.02-.32-.02-.35-.02-.68.01-.99.09-.3.07-.62.19-.94.35-.06.03-.13.06-.2.1h-.02c-.08.05-.18.1-.27.14-.21.1-.37.16-.53.22-.17.06-.34.11-.52.14h-.07s.01.15.01.15l8.18.54s.05.04.05.05c0,.01,0,.05-.05.05l-8.17.33v.07c-.01.09-.03.19-.04.29v.06s.05.02.05.02c.02,0,.04.01.06.02.14.04.3.07.46.08.14.01.3.02.5.02.1,0,.2,0,.28,0h.03c.07,0,.15,0,.23,0,.41-.01.8.02,1.15.09.36.07.74.2,1.1.39.11.06.22.12.32.17.21.12.41.22.59.28.03.01.06.02.09.02h.03s.07.02.11.02c.08,0,.17.01.24.01h.01c.17,0,.36-.01.51-.02.36-.03.75-.05,1.12,0,.38.06.75.2,1.07.4.04.02.06.06.07.1,0,.04,0,.08-.02.12-.04.07-.13.09-.21.06-.3-.16-.63-.26-.97-.29-.34-.03-.7.01-1.03.06-.04,0-.08,0-.12.01h-.02c-.32.04-.65.08-1.03,0-.21-.04-.39-.12-.56-.2-.07-.03-.13-.06-.19-.09-.1-.05-.2-.09-.3-.13-.32-.14-.64-.23-.96-.27-.31-.04-.65-.05-1-.01-.07,0-.15.01-.24.02h0c-.1,0-.2.02-.3.03-.23.01-.41.02-.58.01-.02,0-.03,0-.05,0h-.36s4.07,1.93,4.07,1.93h.02s0-.02,0-.02c0-.02,0-.04.02-.06,0,0,.02-.02.03-.02h.04s-3.49-1.68-3.49-1.68h0c.09,0,.19,0,.3-.01.11,0,.22-.02.31-.03h.02c.08,0,.15-.02.22-.02.35-.03.67-.03.97.01.31.04.61.13.92.26.1.04.2.09.29.13h.02c.06.04.11.06.17.09.18.08.37.16.59.21.4.08.75.04,1.08,0,.05,0,.09-.01.14-.02.33-.05.67-.09,1-.06.32.03.62.12.91.27.14.08.32.03.41-.11.04-.07.06-.15.04-.23-.02-.08-.07-.15-.14-.19-.34-.21-.73-.36-1.13-.42-.39-.06-.79-.04-1.16,0-.16.01-.34.02-.5.02h0c-.08,0-.16,0-.23-.01h0s-.06,0-.09-.01h-.03s-.05-.01-.07-.02h0c-.17-.05-.36-.15-.57-.27h0c-.1-.06-.21-.12-.32-.18-.36-.19-.76-.33-1.13-.4-.37-.08-.77-.11-1.19-.09-.09,0-.18,0-.26,0h0c-.09,0-.18,0-.27,0-.2,0-.35,0-.49-.02-.14-.01-.29-.04-.42-.07h0s0,0,0,0c0-.05.01-.11.02-.16l8.04-.32c.13,0,.19-.11.19-.2,0-.09-.06-.2-.19-.2Zm-8.82-8.54h0s0,0,0,0Z"/>
          <path class="cls-1" d="m10.57,18.73h0c-.03.06-.05.11-.08.16l-.02.04,3.84-1.42c.2-.13.39-.23.56-.33l1.15-.46-5.45,2.02Z"/>
        </g>
        <g>
          <path class="cls-4" d="m22.35,12.13c-.35.12-.55.36-.55.37l-.04.05.04.05c.26.31.59.41.9.41.6,0,1.15-.36,1.16-.37l.09-.06-.08-.07c-.66-.52-1.19-.5-1.51-.39Zm.05.14c-.03.14-.07.4.05.55-.17-.04-.34-.12-.48-.28.07-.07.22-.2.44-.27Zm.62.54c.14-.15.11-.41.08-.54.17.05.37.14.57.29-.13.07-.37.19-.66.25Z"/>
          <path class="cls-4" d="m18.63,13.01c.31,0,.64-.1.9-.41l.04-.05-.04-.05s-.2-.25-.55-.37c-.32-.11-.85-.13-1.51.39l-.08.07.09.06s.56.37,1.16.37Zm.74-.46c-.15.15-.31.24-.48.28.12-.15.08-.41.05-.55.22.07.37.2.44.27Zm-1.14-.27c-.03.13-.06.39.08.54-.28-.06-.53-.18-.66-.25.21-.15.4-.24.57-.29Z"/>
          <path class="cls-4" d="m22.69,11.05c-1.21,0-1.91.66-1.91,1.82,0,1.22.46,1.34.69,1.4.03,0,.07.02.1.02.2.04.33.08.33.31,0,.09-.05.16-.14.2-.16.07-.4.01-.53-.12l-.06-.06-.05.06s-.15.15-.47.15c-.32,0-.46-.14-.47-.15l-.05-.06-.06.06c-.13.13-.37.19-.53.12-.09-.04-.14-.1-.14-.2,0-.23.13-.27.33-.31.03,0,.07-.01.12-.03.22-.06.68-.18.68-1.39s-.7-1.82-1.91-1.82c-1.12,0-1.83.9-1.86.94l.12.1s.7-.88,1.74-.88c1.13,0,1.75.59,1.75,1.66s-.38,1.2-.56,1.24h-.02s-.06.02-.09.03c-.18.04-.45.09-.45.46,0,.16.08.28.23.34.2.08.47.03.65-.11.08.06.25.15.52.15,0,0,0,0,0,0,.27,0,.44-.09.52-.15.12.1.28.15.43.15.07,0,.15-.01.21-.04.15-.06.23-.19.23-.34,0-.37-.27-.43-.45-.46-.03,0-.06-.01-.09-.02h-.02s0,0,0,0c-.18-.05-.56-.15-.56-1.24s.62-1.66,1.75-1.66c1.04,0,1.74.87,1.74.88l.12-.1s-.75-.94-1.86-.94Z"/>
        </g>
      </g>
      <path class="cls-4" d="m20.76,60.49c-8.8,0-15.96-10.07-15.96-22.45s7.16-22.45,15.96-22.45,15.96,10.07,15.96,22.45-7.16,22.45-15.96,22.45Zm0-44.46c-8.56,0-15.52,9.88-15.52,22.02s6.96,22.02,15.52,22.02,15.52-9.88,15.52-22.02-6.96-22.02-15.52-22.02Z"/>
      <polygon class="cls-4" points="4.21 50.22 4.21 50.22 4.21 50.22 4.21 50.22"/>
      <path class="cls-4" d="m22.57,65.21c.71-.68,1.32-1.54,1.37-2.23,0,0,0-.03,0-.03,0-.46-.04-.98-.35-1.4-.1-.13-.35-.18-.51-.14-.12.03-1.28.23-2.46.2-1.32-.03-2.15-.17-2.28-.2-.15-.04-.41.01-.51.14-.31.42-.35.94-.35,1.4,0,0,0,0,0,0,0,0,0,.02,0,.03.06.68.66,1.55,1.37,2.23-1.21.36-3.84,1.59-4.76,3.13-.03.05-.02.11.01.15.04.04.1.05.15.03.46-.22.91-.25,1.29-.1.4.16.72.52.92,1.04.02.05.06.08.12.08h0c.05,0,.1-.03.12-.08.52-1.44,2.2-3.08,2.96-3.58.05.18.21.31.42.34.19.02.38.04.57.04h0s0,0,0,0c.02,0,.04,0,.05,0,.02,0,.04,0,.05,0,0,0,0,0,0,0h0c.19,0,.39-.02.57-.04.21-.03.37-.16.42-.34.76.5,2.44,2.14,2.96,3.58.02.05.06.08.12.08h0c.05,0,.1-.03.12-.08.2-.52.52-.89.92-1.04.39-.15.83-.12,1.29.1.05.02.11.01.15-.03.04-.04.04-.1.01-.15-.92-1.54-3.55-2.77-4.76-3.13Zm-4.66-3.14h0c1.96.46,3.76.42,5.67-.01.02.02.09.33.1.47h0c-2.08.52-3.89.5-5.92,0,.03-.18.08-.32.15-.47Zm1.42,3.55c-.99.6-2.7,1.81-3.36,2.75-.09-.08-.39-.23-.68-.27h0c1.11-1.03,2.57-1.92,3.86-2.62-.02-.02.02.02,0,0h0s.11.09.18.15h0Zm.3-.75c0,.08-.02.29-.02.38-.58-.52-1.03-1.15-1.38-1.85.09.03.47.11.55.13h0c.19.49.48.93.86,1.33h0Zm1.41,1.14h-.64v-1.5h.64v1.5Zm.61-1.58c-.07-.07-.18-.12-.29-.14-.19-.03-1.08-.03-1.27,0-.12.02-.22.07-.29.14-.1-.25-.17-.52-.19-.74.36.05,1.89.05,2.25,0-.02.22-.09.49-.19.74Zm.16.44c.38-.4.66-.84.86-1.33,0,0,.54-.12.55-.13-.35.7-.81,1.32-1.38,1.85,0-.15-.01-.23-.02-.38Zm3.67,3.49c-.67-.95-2.38-2.15-3.36-2.75.09-.08.12-.09.18-.15,1.29.7,2.76,1.6,3.87,2.63h0c-.19.03-.65.23-.69.27"/>
      <path class="cls-2" d="m26.67,45.55l-.22.2c.22.23.17.45.05.58-.18.19-.56.22-.91-.09-.05-.04-.22-.2-.44-.4-.68-.62-1.01-.93-1.19-1.06-.02-.02-.04-.03-.04-.03-.13-.09-.15-.06-.2-.01l-.11.1.1.11s.36.34.85.8c.26.24.52.48.54.51.26.28.25.56.13.71-.13.16-.44.25-.89-.03-.13-.08-.27-.17-.39-.27l-.07-.06h0c-.13-.11-.45-.39-.71-.63-.45-.4-.66-.59-.78-.67,0,0-.01-.01-.01-.01h0c-.09-.06-.12-.05-.17-.03-.09.04-.11.16-.04.23h0s0,0,.98.93l.53.5c.26.28.25.56.13.71-.13.16-.44.25-.89-.03-.11-.07-.19-.06-.7-.48q-.76-.62-.82-.62h0c-.13,0-.21.15-.12.24.04.04-.32-.28.42.39.28.26.33.34.36.36.24.26.18.5.07.64-.12.14-.4.22-.81-.03-.08-.05-.22-.14-.37-.25-.02-.01-.04-.03-.05-.04,0,0-.01.01-.02.02.15-.19.22-.37.22-.54,0-.14-.07-.34-.36-.48-.25-.13-.49-.1-.7,0,0-.04,0-.08,0-.12-.02-.16-.12-.38-.46-.51-.2-.08-.39-.08-.56-.03,0,0,0,0,0,0,0-.04,0-.07,0-.11-.03-.18-.14-.43-.52-.57-.36-.14-.67-.06-.94.11,0-.15-.04-.3-.13-.46-.19-.31-.43-.36-.59-.36-.4.02-.83.45-1.2,1.21-.12.25-.16.47-.14.65.02.24.15.42.29.52.16.11.39.14.63.05,0,.22.08.4.2.53.14.14.36.24.63.21.14-.01.3-.06.47-.16h0c.01.17.08.31.18.41.12.12.32.21.56.19.16-.02.35-.08.54-.21h0c.02.1.06.19.11.26.1.12.26.21.47.21.16,0,.35-.05.56-.18.04-.02.08-.05.12-.07v6.94h0c0,.27.22.48.49.48s.49-.22.49-.48v-6.91c.22.12.41.17.58.17.25,0,.44-.11.55-.24.13-.16.25-.4.15-.67,0,0,.25.19.26.19.61.38,1.07.22,1.27-.03.13-.16.2-.41.11-.68,0,0,0,0,0,0,.63.41,1.1.25,1.31,0,.11-.14.17-.33.14-.54.43.26.87.17,1.11-.08.22-.23.29-.62-.04-.98Zm-5.91,2.42s.02-.02.03-.04c-.01.01-.02.02-.03.04Zm-4.27-1.18c-.22.22-.45.23-.59.14-.15-.1-.26-.37-.05-.8.37-.76.74-1.04.96-1.05.12,0,.23.07.33.22.05.09.08.17.09.26.01.1-.01.21-.05.31-.2.2-.36.42-.47.58-.04.05-.07.1-.1.14-.05.07-.09.13-.13.19Zm1.32.53s-.07.06-.11.08c-.43.32-.75.26-.89.12-.14-.14-.17-.42.06-.73.03-.04.07-.09.11-.15.3-.42.64-.85,1.05-.89.1,0,.2,0,.31.05.19.07.29.18.31.31,0,.07,0,.15-.04.24-.28.2-.5.51-.63.7-.03.05-.06.09-.09.12-.03.04-.06.09-.09.13Zm1.24.44c-.06.05-.12.1-.18.15-.38.29-.67.24-.8.11-.12-.12-.15-.37.06-.65.03-.04.06-.08.1-.13.27-.37.57-.76.94-.79.09,0,.18,0,.28.04.17.07.26.16.28.28.01.08-.01.19-.08.33-.14.13-.27.27-.35.37-.03.04-.06.07-.09.1-.06.07-.11.14-.15.21Zm.93.5c-.36.22-.6.15-.7.03-.1-.12-.1-.34.1-.56.03-.03.06-.07.09-.11.26-.3.56-.61.88-.61.08,0,.16.02.24.06.14.07.22.16.22.27,0,.19-.21.54-.84.92Z"/>
      <path class="cls-1" d="m26.2,29.8c-.06-.58-.22-1.12-.48-1.63-.13-.25-1.84-3.64-2.6-4.56-.3-.36-1.64-1.72-3.04-1.48-.49.05-.97.19-1.43.39-1.01.44-1.92,1.06-2.8,1.75-.53.41-.73,1.22-.52,1.86.1.31.28.54.57.63.25.07.49,0,.71-.14.07-.05.14-.11.25-.08-.02.05-.03.1-.05.15-.02.04-.04.07-.06.11-.28.5-.57.99-.85,1.5-.08.15-.14.32-.19.48-.11.38-.11.77-.07,1.17.03.29.06.59.15.86.1.28.26.49.53.57.05.02.1.03.15.05,1,.36,2.03.6,3.08.7.23.02.46.03.68.04v9.22c.33.08.67-.18.99-.03v-9.2c.05,0,.11,0,.16,0,.54-.03,1.09-.1,1.62-.21.92-.18,1.82-.46,2.7-.81.22-.09.36-.25.44-.5.08-.27.08-.56.05-.84Zm-9.04,1.45c1.02-.43,2.05-.69,3.08-.79v1.39c-1-.05-1.98-.25-3.08-.59Zm4.06.59v-1.44c1.28-.02,2.56.19,3.84.58-1.49.52-2.71.79-3.84.86Zm4.61-1.3c-.07.23-.2.26-.35.19-.35-.16-.71-.24-1.08-.32-.49-.11-1.13-.24-1.62-.31-.61-.09-1.43-.11-2.05-.09-1.03.03-1.56.16-2.55.48-.4.13-.92.34-1.32.49-.12.05-.23.07-.36.06-.17-.02-.29-.11-.36-.28-.09-.19-.12-.4-.14-.61-.04-.35-.06-.7,0-1.05.03-.22.1-.44.21-.63.27-.47.54-.94.8-1.41.04-.06.08-.13.11-.19.08-.16.19-.5.25-.7.24-.81,1.9-1.08,2.55-1.31-.09-.07-2.35.33-2.86.97-.3.37-.93.97-1.38.26-.14-.36-.11-.72.05-1.07.08-.19.2-.35.36-.46.72-.54,1.45-1.05,2.24-1.45.49-.25.99-.45,1.52-.55,1.11-.2,2.4.22,4.03,2.99.35.59.61,1.34.83,1.7,0,0,0,.02,0,.03-.53-.22-1.77-.28-2.44-.22-1.03.1-2,.64-3.05.98-.74.27-1.55.27-1.46.9.34-.34,1.02-.52,1.47-.67.9-.3,1.15-.45,2.05-.67.56-.13,2.52-.61,3.75.16.05.02.11.06.14.11.39.58.64,1.23.73,1.95.03.25.03.49-.04.73Z"/>
    </g>
    <g>
      <g>
        <path class="cls-4" d="m35.78,53.84s.01.07.02.1c.04-.02.09-.05.13-.07.54-.28.96-.5,1.26-1.12.11-.22.18-.53.23-.85l.04-.33c.04-.38.05-.74.07-1.08v-.04s0-.08,0-.12c-.03.03-.06.06-.1.08-.27.23-.58.5-.86.78l-.21.22c-.22.24-.4.47-.51.69-.3.62-.2,1.1-.08,1.7v.03Z"/>
        <path class="cls-4" d="m38.37,28.16c-.04-.05-.08-.11-.12-.16,0,.05-.02.11-.02.16-.11.72-.25,1.7-.1,2.28.18.66.56.95,1.03,1.33.04.03.08.06.13.1.02-.05.04-.1.06-.15.23-.55.4-.99.23-1.65-.15-.57-.76-1.34-1.21-1.91Z"/>
        <path class="cls-4" d="m36.49,26.41c-.13-.29-.21-.66-.25-1.07-.35-.15-.73-.28-1.07-.4-.05-.02-.11-.04-.16-.05l.04.08c.31.68.74,1.61,1.2,2.03.45.4.86.49,1.36.54-.46-.25-.85-.53-1.12-1.13Z"/>
        <path class="cls-4" d="m39.14,45.43c.43-.43.76-.77.85-1.45.03-.25,0-.56-.05-.88l-.07-.33c-.08-.37-.18-.72-.27-1.04v-.04s-.03-.08-.04-.11l-.07.11c-.18.3-.39.66-.58,1.01l-.13.28c-.13.29-.24.57-.27.82-.09.69.15,1.11.45,1.64.02.04.05.08.07.12.03-.03.06-.06.09-.09h.01Z"/>
        <path class="cls-4" d="m39.84,31.1c-.04.15-.09.3-.15.45.33-.34.58-.67.67-1.23.09-.61-.18-1.6-.37-2.33l-.02-.09s-.06.09-.09.14h0c-.18.3-.38.63-.56.95.23.35.42.69.5,1,.1.38.11.73.02,1.1Z"/>
        <path class="cls-4" d="m37.71,49.74s.03.07.04.11c.03-.02.06-.04.09-.06l.03-.02c.49-.35.88-.63,1.08-1.29.07-.24.1-.55.1-.88v-.33c-.03-.38-.07-.75-.1-1.08l-.02-.16s-.04.05-.07.08l-.02.02c-.23.27-.5.58-.74.9l-.18.25c-.18.27-.33.53-.4.76-.2.66-.04,1.11.17,1.69v.02Z"/>
        <path class="cls-4" d="m40.32,38.45l-.09-.31c-.11-.36-.24-.71-.36-1.03l-.02-.05s-.03-.07-.04-.11l-.06.12c-.15.32-.34.69-.49,1.05l-.11.29c-.11.3-.19.59-.2.83-.03.69.24,1.09.59,1.6.03.04.05.07.08.11.03-.03.05-.06.08-.09v-.02c.4-.46.71-.83.74-1.52.01-.25-.04-.55-.13-.88Z"/>
        <path class="cls-4" d="m38.53,26.67c-.01.15-.04.31-.07.46.27-.39.46-.75.45-1.32-.02-.62-.44-1.55-.76-2.23l-.04-.08s-.04.1-.06.15h0c-.13.33-.27.68-.39,1.03.28.3.53.61.66.9.17.36.23.7.2,1.08Z"/>
        <path class="cls-4" d="m38.61,42.7c-.22-.31-.47-.62-.7-.9-.04-.04-.07-.09-.1-.13v.09c-.11.74-.24,1.76-.08,2.36.16.57.47.87.86,1.18-.25-.46-.43-.9-.35-1.56.04-.31.18-.67.36-1.04Z"/>
        <path class="cls-4" d="m39.84,36.45s.05-.08.07-.13c.3-.52.54-.93.46-1.62-.03-.25-.13-.54-.27-.84l-.12-.26c-.17-.34-.38-.69-.55-.98l-.08-.14s-.02.07-.03.11v.02c-.11.34-.22.73-.31,1.12l-.06.3c-.06.32-.09.62-.06.86.08.69.42,1.03.85,1.47.03.03.06.07.1.1Z"/>
        <path class="cls-4" d="m36.81,28.85s-.1-.05-.14-.08l.02.09c.2.72.46,1.72.84,2.2.37.47.77.62,1.25.76-.41-.33-.75-.67-.92-1.31-.08-.31-.09-.69-.07-1.09-.32-.2-.68-.4-.99-.57Z"/>
        <path class="cls-4" d="m34.36,55.12l-.25.17c-.26.19-.49.38-.64.57-.42.55-.43,1.03-.43,1.65,0,.05,0,.09,0,.14.05-.01.09-.03.14-.04.58-.16,1.05-.29,1.47-.84.15-.2.28-.48.4-.79l.12-.34c.12-.36.2-.69.28-1.02v-.04s.03-.08.04-.12l-.11.06c-.31.17-.67.37-1,.59Z"/>
        <path class="cls-4" d="m40.63,34.68c.05.39,0,.74-.14,1.09-.06.14-.13.28-.21.42.37-.29.67-.58.83-1.13.17-.59.05-1.61-.04-2.35v-.09s-.08.08-.12.13h0c-.22.27-.46.57-.68.86.18.37.32.74.36,1.06Z"/>
        <path class="cls-4" d="m36.28,51.12c-.11-.37-.25-.74-.38-1.07-.02-.05-.04-.1-.06-.15l-.04.08c-.32.68-.77,1.6-.8,2.22-.02.6.18.97.45,1.39-.1-.51-.13-.99.16-1.59.14-.29.38-.58.66-.87Z"/>
        <path class="cls-4" d="m38.63,34.91c-.04-.31,0-.7.09-1.09-.29-.25-.61-.49-.9-.7-.05-.03-.09-.07-.13-.1v.09c.1.74.23,1.76.54,2.3.3.51.68.72,1.13.93-.36-.38-.65-.76-.73-1.42Z"/>
        <path class="cls-4" d="m38.96,38.17c-.25-.29-.52-.58-.77-.84-.04-.04-.08-.08-.11-.12v.09c-.04.75-.09,1.77.13,2.35.21.56.54.83.96,1.1-.29-.43-.51-.86-.48-1.52.01-.32.12-.68.27-1.06Z"/>
        <path class="cls-4" d="m37.8,46.99c-.17-.35-.36-.69-.53-1.01-.03-.05-.05-.1-.08-.14l-.03.08c-.22.72-.52,1.7-.46,2.31.07.59.32.94.65,1.31-.17-.49-.28-.96-.08-1.59.09-.3.29-.63.53-.96Z"/>
        <path class="cls-4" d="m27,62.6c.23-.1.48-.28.73-.5l.24-.21c.28-.26.54-.53.77-.78l.04-.04s.05-.05.07-.07h-.13c-.35,0-.77,0-1.17.03l-.31.03c-.32.03-.62.09-.84.19-.64.27-.88.7-1.18,1.23-.02.04-.05.08-.07.12.04,0,.08.02.12.03h.02c.59.15,1.06.26,1.69-.01Z"/>
        <path class="cls-4" d="m38.75,51.42c-.33.11-.69.22-1.04.36-.05.41-.13.8-.27,1.09-.17.36-.4.63-.71.85-.13.09-.26.17-.4.25.47-.04.88-.13,1.31-.5.46-.41.91-1.33,1.24-2.01l.04-.08c-.05.02-.1.03-.16.05h0Z"/>
        <path class="cls-4" d="m36.43,55.79c-.34.04-.72.08-1.09.14-.13.39-.29.75-.49,1.01-.24.31-.52.53-.87.69-.14.06-.29.11-.44.16.47.05.88.05,1.39-.23.54-.3,1.17-1.12,1.62-1.71l.05-.07c-.05,0-.11.01-.16.02h-.01Z"/>
        <path class="cls-4" d="m33.17,59.65c-.34-.05-.72-.09-1.09-.12-.22.35-.46.66-.72.86-.31.25-.63.4-1.01.46-.15.03-.31.04-.47.05.45.16.85.26,1.4.11.59-.17,1.4-.81,1.99-1.28l.07-.05s-.08,0-.12-.02h-.06Z"/>
        <path class="cls-4" d="m30.1,58.82c.25-.2.6-.36.98-.5.06-.38.09-.78.12-1.13v-.03s.01-.09.01-.14l-.07.06c-.59.47-1.39,1.12-1.68,1.66-.28.53-.26.95-.19,1.45.14-.5.31-.95.83-1.37Z"/>
        <path class="cls-4" d="m31.77,59.52l.17-.27c.2-.32.38-.66.54-.95l.02-.03s.04-.07.06-.11l-.13.03c-.34.09-.74.2-1.12.34l-.29.11c-.3.12-.57.25-.76.41-.54.43-.66.9-.81,1.5-.01.04-.02.09-.03.13.05,0,.1,0,.15,0,.61-.02,1.09-.04,1.62-.47.19-.16.39-.4.57-.67Z"/>
        <path class="cls-4" d="m41.35,37.5c-.26.22-.55.47-.82.73.11.4.19.78.18,1.11-.02.39-.12.73-.32,1.06-.08.13-.17.26-.27.38.42-.22.76-.46,1.01-.97.27-.55.32-1.58.35-2.33v-.09s-.13.11-.13.11Z"/>
        <path class="cls-4" d="m40.28,46.93c-.31.15-.65.32-.97.51.01.41-.01.81-.11,1.12-.12.38-.3.68-.57.94-.11.11-.23.21-.36.3.46-.11.85-.26,1.22-.69.4-.47.7-1.45.93-2.17l.03-.08s-.1.05-.15.07h-.01Z"/>
        <path class="cls-4" d="m36.49,25.17c0,.06.02.23.03.3.04.32.11.61.21.83.29.63.72.86,1.26,1.15.04.02.08.04.12.07,0-.05.02-.09.03-.13h0c.13-.6.23-1.06-.05-1.69-.1-.23-.29-.47-.51-.72-.06-.07-.15-.17-.21-.22-.27-.27-.56-.54-.81-.76l-.04-.03s-.06-.05-.08-.08v.13c.01.35.02.76.05,1.16Z"/>
        <path class="cls-4" d="m41.05,42.24c-.28.2-.59.43-.87.66.08.41.12.8.08,1.12-.05.39-.18.72-.41,1.03-.09.13-.2.24-.31.36.43-.19.79-.39,1.09-.88.31-.53.45-1.55.55-2.29v-.09s-.08.06-.12.1h0Z"/>
        <path class="cls-4" d="m29.05,62.61c-.32-.13-.67-.28-1.02-.41-.31.28-.62.51-.92.64-.3.13-.58.19-.88.19-.07,0-.14,0-.21-.01-.16-.01-.31-.04-.46-.08.38.27.75.47,1.32.47.62,0,1.57-.41,2.26-.71l.08-.04s-.1-.04-.15-.06h0Z"/>
        <path class="cls-4" d="m26.31,60.99c.29-.13.67-.19,1.08-.23.16-.35.3-.72.42-1.06.02-.05.04-.1.06-.15l-.08.04c-.69.3-1.64.71-2.06,1.15-.41.44-.51.85-.57,1.34.27-.45.55-.83,1.16-1.1Z"/>
        <path class="cls-4" d="m33.26,55.71c.19-.25.49-.49.83-.72-.03-.38-.1-.78-.15-1.13,0-.06-.02-.11-.03-.16l-.05.07c-.46.6-1.08,1.41-1.24,2.01-.14.58-.03.99.16,1.45.01-.52.07-1,.48-1.52Z"/>
        <path class="cls-4" d="m30.74,18.39c.33.68.74,1.53,1.21,1.94.56.48,1.07.52,1.67.56h0c.09,0,.19.01.29.02,0,0,0,0,.01,0,0,0,.01,0,.02,0h0s.05-.02.07-.04c.03-.03.04-.07.03-.11-.02-.1-.05-.2-.07-.3-.13-.58-.24-1.08-.79-1.56-.47-.4-1.35-.69-2.06-.92-.14-.05-.29-.1-.42-.14-.05-.02-.1,0-.14.04-.03.04-.04.09-.02.14.06.11.12.25.18.37Z"/>
        <g>
          <path class="cls-4" d="m36.25,23.48c.11-.51.23-1.23-.03-1.8-.24-.54-.96-1.2-1.49-1.69-.04-.04-.08-.07-.12-.11v.13c.01.47.04,1.05.1,1.55l.06.33c.03.16.07.26.12.39.28.61.69.84,1.21,1.13l.14.08Z"/>
          <path class="cls-4" d="m34.67,22.39c.29.65.72.92,1.22,1.19-.53.04-.97.03-1.49-.3-.5-.33-1.06-1.15-1.47-1.75l-.07-.1c.05,0,.1.02.16.03.45.08,1,.18,1.48.32.04.23.1.45.18.62Z"/>
        </g>
      </g>
      <g>
        <path class="cls-4" d="m5.7,53.84s-.01.07-.02.1c-.04-.02-.09-.05-.13-.07-.54-.28-.96-.5-1.26-1.12-.11-.22-.18-.53-.23-.85l-.04-.33c-.04-.38-.05-.74-.07-1.08v-.04s0-.08,0-.12c.03.03.06.06.1.08.27.23.58.5.86.78l.21.22c.22.24.4.47.51.69.3.62.2,1.1.08,1.7v.03Z"/>
        <path class="cls-4" d="m3.12,28.16c.04-.05.08-.11.12-.16,0,.05.02.11.02.16.11.72.25,1.7.1,2.28-.18.66-.56.95-1.03,1.33-.04.03-.08.06-.13.1-.02-.05-.04-.1-.06-.15-.23-.55-.4-.99-.23-1.65.15-.57.76-1.34,1.21-1.91Z"/>
        <path class="cls-4" d="m5,26.41c.13-.29.21-.66.25-1.07.35-.15.73-.28,1.07-.4.05-.02.11-.04.16-.05l-.04.08c-.31.68-.74,1.61-1.2,2.03-.45.4-.86.49-1.36.54.46-.25.85-.53,1.12-1.13Z"/>
        <path class="cls-4" d="m2.34,45.43c-.43-.43-.76-.77-.85-1.45-.03-.25,0-.56.05-.88l.07-.33c.08-.37.18-.72.27-1.04v-.04s.03-.08.04-.11l.07.11c.18.3.39.66.58,1.01l.13.28c.13.29.24.57.27.82.09.69-.15,1.11-.45,1.64-.02.04-.05.08-.07.12-.03-.03-.06-.06-.09-.09h-.01Z"/>
        <path class="cls-4" d="m1.64,31.1c.04.15.09.3.15.45-.33-.34-.58-.67-.67-1.23-.09-.61.18-1.6.37-2.33l.02-.09s.06.09.09.14h0c.18.3.38.63.56.95-.23.35-.42.69-.5,1-.1.38-.11.73-.02,1.1Z"/>
        <path class="cls-4" d="m3.78,49.74s-.03.07-.04.11c-.03-.02-.06-.04-.09-.06l-.03-.02c-.49-.35-.88-.63-1.08-1.29-.07-.24-.1-.55-.1-.88v-.33c.03-.38.07-.75.1-1.08l.02-.16s.04.05.07.08l.02.02c.23.27.5.58.74.9l.18.25c.18.27.33.53.4.76.2.66.04,1.11-.17,1.69v.02Z"/>
        <path class="cls-4" d="m1.16,38.45l.09-.31c.11-.36.24-.71.36-1.03l.02-.05s.03-.07.04-.11l.06.12c.15.32.34.69.49,1.05l.11.29c.11.3.19.59.2.83.03.69-.24,1.09-.59,1.6-.03.04-.05.07-.08.11-.03-.03-.05-.06-.08-.09v-.02c-.4-.46-.71-.83-.74-1.52-.01-.25.04-.55.13-.88Z"/>
        <path class="cls-4" d="m2.95,26.67c.01.15.04.31.07.46-.27-.39-.46-.75-.45-1.32.02-.62.44-1.55.76-2.23l.04-.08s.04.1.06.15h0c.13.33.27.68.39,1.03-.28.3-.53.61-.66.9-.17.36-.23.7-.2,1.08Z"/>
        <path class="cls-4" d="m2.87,42.7c.22-.31.47-.62.7-.9.04-.04.07-.09.1-.13v.09c.11.74.24,1.76.08,2.36-.16.57-.47.87-.86,1.18.25-.46.43-.9.35-1.56-.04-.31-.18-.67-.36-1.04Z"/>
        <path class="cls-4" d="m1.65,36.45s-.05-.08-.07-.13c-.3-.52-.54-.93-.46-1.62.03-.25.13-.54.27-.84l.12-.26c.17-.34.38-.69.55-.98l.08-.14s.02.07.03.11v.02c.11.34.22.73.31,1.12l.06.3c.06.32.09.62.06.86-.08.69-.42,1.03-.85,1.47-.03.03-.06.07-.1.1Z"/>
        <path class="cls-4" d="m4.67,28.85s.1-.05.14-.08l-.02.09c-.2.72-.46,1.72-.84,2.2-.37.47-.77.62-1.25.76.41-.33.75-.67.92-1.31.08-.31.09-.69.07-1.09.32-.2.68-.4.99-.57Z"/>
        <path class="cls-4" d="m7.12,55.12l.25.17c.26.19.49.38.64.57.42.55.43,1.03.43,1.65,0,.05,0,.09,0,.14-.05-.01-.09-.03-.14-.04-.58-.16-1.05-.29-1.47-.84-.15-.2-.28-.48-.4-.79l-.12-.34c-.12-.36-.2-.69-.28-1.02v-.04s-.03-.08-.04-.12l.11.06c.31.17.67.37,1,.59Z"/>
        <path class="cls-4" d="m.85,34.68c-.05.39,0,.74.14,1.09.06.14.13.28.21.42-.37-.29-.67-.58-.83-1.13-.17-.59-.05-1.61.04-2.35v-.09s.08.08.12.13h0c.22.27.46.57.68.86-.18.37-.32.74-.36,1.06Z"/>
        <path class="cls-4" d="m5.2,51.12c.11-.37.25-.74.38-1.07.02-.05.04-.1.06-.15l.04.08c.32.68.77,1.6.8,2.22.02.6-.18.97-.45,1.39.1-.51.13-.99-.16-1.59-.14-.29-.38-.58-.66-.87Z"/>
        <path class="cls-4" d="m2.86,34.91c.04-.31,0-.7-.09-1.09.29-.25.61-.49.9-.7.05-.03.09-.07.13-.1v.09c-.1.74-.23,1.76-.54,2.3-.3.51-.68.72-1.13.93.36-.38.65-.76.73-1.42Z"/>
        <path class="cls-4" d="m2.52,38.17c.25-.29.52-.58.77-.84.04-.04.08-.08.11-.12v.09c.04.75.09,1.77-.13,2.35-.21.56-.54.83-.96,1.1.29-.43.51-.86.48-1.52-.01-.32-.12-.68-.27-1.06Z"/>
        <path class="cls-4" d="m3.69,46.99c.17-.35.36-.69.53-1.01.03-.05.05-.1.08-.14l.03.08c.22.72.52,1.7.46,2.31-.07.59-.32.94-.65,1.31.17-.49.28-.96.08-1.59-.09-.3-.29-.63-.53-.96Z"/>
        <path class="cls-4" d="m14.49,62.6c-.23-.1-.48-.28-.73-.5l-.24-.21c-.28-.26-.54-.53-.77-.78l-.04-.04s-.05-.05-.07-.07h.13c.35,0,.77,0,1.17.03l.31.03c.32.03.62.09.84.19.64.27.88.7,1.18,1.23.02.04.05.08.07.12-.04,0-.08.02-.12.03h-.02c-.59.15-1.06.26-1.69-.01Z"/>
        <path class="cls-4" d="m2.74,51.42c.33.11.69.22,1.04.36.05.41.13.8.27,1.09.17.36.4.63.71.85.13.09.26.17.4.25-.47-.04-.88-.13-1.31-.5-.46-.41-.91-1.33-1.24-2.01l-.04-.08c.05.02.1.03.16.05h0Z"/>
        <path class="cls-4" d="m5.05,55.79c.34.04.72.08,1.09.14.13.39.29.75.49,1.01.24.31.52.53.87.69.14.06.29.11.44.16-.47.05-.88.05-1.39-.23-.54-.3-1.17-1.12-1.62-1.71l-.05-.07c.05,0,.11.01.16.02h.01Z"/>
        <path class="cls-4" d="m8.32,59.65c.34-.05.72-.09,1.09-.12.22.35.46.66.72.86.31.25.63.4,1.01.46.15.03.31.04.47.05-.45.16-.85.26-1.4.11-.59-.17-1.4-.81-1.99-1.28l-.07-.05s.08,0,.12-.02h.06Z"/>
        <path class="cls-4" d="m11.39,58.82c-.25-.2-.6-.36-.98-.5-.06-.38-.09-.78-.12-1.13v-.03s-.01-.09-.01-.14l.07.06c.59.47,1.39,1.12,1.68,1.66.28.53.26.95.19,1.45-.14-.5-.31-.95-.83-1.37Z"/>
        <path class="cls-4" d="m9.72,59.52l-.17-.27c-.2-.32-.38-.66-.54-.95l-.02-.03s-.04-.07-.06-.11l.13.03c.34.09.74.2,1.12.34l.29.11c.3.12.57.25.76.41.54.43.66.9.81,1.5.01.04.02.09.03.13-.05,0-.1,0-.15,0-.61-.02-1.09-.04-1.62-.47-.19-.16-.39-.4-.57-.67Z"/>
        <path class="cls-4" d="m.13,37.5c.26.22.55.47.82.73-.11.4-.19.78-.18,1.11.02.39.12.73.32,1.06.08.13.17.26.27.38-.42-.22-.76-.46-1.01-.97-.27-.55-.32-1.58-.35-2.33v-.09s.13.11.13.11Z"/>
        <path class="cls-4" d="m1.21,46.93c.31.15.65.32.97.51-.01.41.01.81.11,1.12.12.38.3.68.57.94.11.11.23.21.36.3-.46-.11-.85-.26-1.22-.69-.4-.47-.7-1.45-.93-2.17l-.03-.08s.1.05.15.07h.01Z"/>
        <path class="cls-4" d="m5,25.17c0,.06-.02.23-.03.3-.04.32-.11.61-.21.83-.29.63-.72.86-1.26,1.15-.04.02-.08.04-.12.07,0-.05-.02-.09-.03-.13h0c-.13-.6-.23-1.06.05-1.69.1-.23.29-.47.51-.72.06-.07.15-.17.21-.22.27-.27.56-.54.81-.76l.04-.03s.06-.05.08-.08v.13c-.01.35-.02.76-.05,1.16Z"/>
        <path class="cls-4" d="m.43,42.24c.28.2.59.43.87.66-.08.41-.12.8-.08,1.12.05.39.18.72.41,1.03.09.13.2.24.31.36-.43-.19-.79-.39-1.09-.88-.31-.53-.45-1.55-.55-2.29v-.09s.08.06.12.1h0Z"/>
        <path class="cls-4" d="m12.44,62.61c.32-.13.67-.28,1.02-.41.31.28.62.51.92.64.3.13.58.19.88.19.07,0,.14,0,.21-.01.16-.01.31-.04.46-.08-.38.27-.75.47-1.32.47-.62,0-1.57-.41-2.26-.71l-.08-.04s.1-.04.15-.06h0Z"/>
        <path class="cls-4" d="m15.17,60.99c-.29-.13-.67-.19-1.08-.23-.16-.35-.3-.72-.42-1.06-.02-.05-.04-.1-.06-.15l.08.04c.69.3,1.64.71,2.06,1.15.41.44.51.85.57,1.34-.27-.45-.55-.83-1.16-1.1Z"/>
        <path class="cls-4" d="m8.23,55.71c-.19-.25-.49-.49-.83-.72.03-.38.1-.78.15-1.13,0-.06.02-.11.03-.16l.05.07c.46.6,1.08,1.41,1.24,2.01.14.58.03.99-.16,1.45-.01-.52-.07-1-.48-1.52Z"/>
        <path class="cls-4" d="m10.93,18.02s.02-.1-.02-.14c-.03-.04-.09-.05-.14-.04-.13.04-.28.09-.42.14-.71.23-1.59.51-2.06.92-.55.48-.66.98-.79,1.56-.02.1-.04.19-.07.3,0,.04,0,.08.03.11.02.02.05.04.07.04h0s.01,0,.02,0c0,0,0,0,.01,0,.1,0,.19-.01.29-.02h0c.6-.04,1.11-.08,1.67-.56.47-.41.88-1.26,1.21-1.94.06-.13.13-.26.18-.37Z"/>
        <g>
          <path class="cls-4" d="m5.23,23.48c-.11-.51-.23-1.23.03-1.8.24-.54.96-1.2,1.49-1.69.04-.04.08-.07.12-.11v.13c-.01.47-.04,1.05-.1,1.55l-.06.33c-.03.16-.07.26-.12.39-.28.61-.69.84-1.21,1.13l-.14.08Z"/>
          <path class="cls-4" d="m7,21.76c.47-.14,1.03-.24,1.48-.32.05,0,.11-.02.16-.03l-.07.1c-.41.6-.96,1.43-1.47,1.75-.52.34-.96.34-1.49.3.5-.27.92-.54,1.22-1.19.08-.18.14-.39.18-.62Z"/>
        </g>
      </g>
    </g>
  </g>
</svg>
