<svg width="640" height="360" viewBox="0 0 640 360" fill="none" xmlns="http://www.w3.org/2000/svg" xmlns:xlink="http://www.w3.org/1999/xlink">
	<defs>
	        <ref id="colorOne" param="c1" default="#242C4F" />
	        <ref id="colorTwo" param="c2" default="#9296A7" />
	    </defs>
<g clip-path="url(#clip0_5018_9610)">
<path d="M104.473 325L533.401 325.53C534.288 325.53 535 325.966 535 326.504C535 327.038 534.288 327.474 533.401 327.474L104.473 328C103.109 328 102 327.332 102 326.504C102 325.673 103.109 325 104.473 325.004" fill="black"/>
<mask id="mask0_5018_9610" style="mask-type:luminance" maskUnits="userSpaceOnUse" x="101" y="-2" width="437" height="367">
<path d="M537.953 -2H101.656V365H537.953V-2Z" fill="white"/>
</mask>
<g mask="url(#mask0_5018_9610)">
<g opacity="0.3">
<mask id="mask1_5018_9610" style="mask-type:luminance" maskUnits="userSpaceOnUse" x="290" y="160" width="11" height="4">
<path d="M300.436 160.172H290.68V163.322H300.436V160.172Z" fill="white"/>
</mask>
<g mask="url(#mask1_5018_9610)">
<path d="M300.433 162.402C300.415 162.197 300.064 161.736 299.899 161.604C298.924 160.797 297.989 160.478 296.489 160.241C294.492 159.945 292.678 160.619 291.142 161.932C290.905 162.137 290.658 162.402 290.681 162.716C290.709 163.122 291.187 163.368 291.593 163.314C291.999 163.259 292.341 163.008 292.687 162.794C294.62 161.609 297.178 161.531 299.184 162.593C299.416 162.716 299.653 162.858 299.913 162.858C300.173 162.858 300.46 162.657 300.433 162.397" fill="white"/>
</g>
</g>
<g opacity="0.3">
<mask id="mask2_5018_9610" style="mask-type:luminance" maskUnits="userSpaceOnUse" x="289" y="163" width="3" height="3">
<path d="M291.045 163.771H289.695V165.121H291.045V163.771Z" fill="white"/>
</mask>
<g mask="url(#mask2_5018_9610)">
<path d="M291.042 164.487C291.019 164.861 290.696 165.144 290.326 165.116C289.952 165.093 289.67 164.77 289.697 164.401C289.72 164.027 290.044 163.744 290.413 163.771C290.787 163.794 291.069 164.118 291.042 164.487Z" fill="white"/>
</g>
</g>
<g opacity="0.3">
<mask id="mask3_5018_9610" style="mask-type:luminance" maskUnits="userSpaceOnUse" x="282" y="151" width="3" height="2">
<path d="M284.154 151.605H282.805V152.955H284.154V151.605Z" fill="white"/>
</mask>
<g mask="url(#mask3_5018_9610)">
<path d="M284.151 152.325C284.129 152.699 283.805 152.982 283.436 152.954C283.062 152.931 282.779 152.608 282.807 152.238C282.829 151.865 283.153 151.582 283.522 151.609C283.896 151.632 284.179 151.956 284.151 152.325Z" fill="white"/>
</g>
</g>
<path d="M360.674 338.422C360.738 345.251 355.258 350.841 348.428 350.904C341.599 350.968 336.01 345.488 335.946 338.659C335.882 331.829 341.362 326.24 348.191 326.176C355.021 326.113 360.61 331.592 360.674 338.422Z" fill="black"/>
<path d="M356.77 338.457C356.815 343.134 353.059 346.964 348.381 347.009C343.704 347.055 339.874 343.298 339.829 338.621C339.783 333.943 343.54 330.114 348.217 330.073C352.895 330.027 356.724 333.784 356.77 338.461" fill="black"/>
<path d="M339.932 319.073C339.795 319.21 339.859 322.36 339.932 324.708C339.973 326.117 341.131 327.229 342.54 327.215H343.224L343.643 338.421C343.739 340.947 345.827 342.939 348.352 342.912C350.208 342.894 351.877 341.781 352.601 340.072C354.616 335.33 358.455 326.258 358.455 326.258L358.387 319.109L339.937 319.068L339.932 319.073Z" fill="url(#colorOne)"/>
<path d="M350.465 338.521C350.474 339.711 349.521 340.687 348.331 340.696C347.141 340.709 346.166 339.752 346.156 338.562C346.143 337.372 347.1 336.397 348.29 336.383C349.48 336.369 350.456 337.327 350.465 338.517" fill="black"/>
<g opacity="0.3">
<mask id="mask4_5018_9610" style="mask-type:luminance" maskUnits="userSpaceOnUse" x="337" y="329" width="6" height="7">
<path d="M342.717 329.133H337.461V335.588H342.717V329.133Z" fill="white"/>
</mask>
<g mask="url(#mask4_5018_9610)">
<path d="M341.883 329.133C339.895 330.104 338.322 331.896 337.611 333.988C337.515 334.275 337.433 334.576 337.47 334.873C337.506 335.173 337.693 335.47 337.98 335.561C338.272 335.648 338.591 335.506 338.801 335.287C339.011 335.069 339.138 334.786 339.28 334.517C339.79 333.519 340.506 332.625 341.368 331.909C341.705 331.627 342.07 331.371 342.343 331.025C342.617 330.683 342.795 330.227 342.685 329.798C342.576 329.374 342.106 329.037 341.691 329.178" fill="white"/>
</g>
</g>
<path d="M357.754 326.965C357.754 327.042 354.48 327.138 350.445 327.179C346.406 327.216 343.137 327.184 343.133 327.106C343.133 327.029 346.402 326.933 350.441 326.892C354.476 326.856 357.749 326.887 357.754 326.965Z" fill="black"/>
<path d="M349.025 345.656C349.089 352.486 343.609 358.075 336.78 358.139C329.951 358.203 324.361 352.723 324.297 345.893C324.234 339.064 329.714 333.475 336.543 333.411C343.372 333.347 348.962 338.827 349.025 345.656Z" fill="black"/>
<path d="M345.137 345.697C345.183 350.374 341.426 354.204 336.748 354.25C332.071 354.295 328.241 350.539 328.196 345.861C328.15 341.184 331.907 337.354 336.584 337.313C341.262 337.267 345.091 341.024 345.137 345.701" fill="black"/>
<path d="M328.299 326.307C328.162 326.444 328.226 329.594 328.299 331.942C328.34 333.351 329.498 334.463 330.907 334.45H331.591L332.01 345.656C332.106 348.181 334.194 350.174 336.72 350.146C338.575 350.128 340.244 349.016 340.969 347.306C342.984 342.565 346.822 333.492 346.822 333.492L346.754 326.344L328.304 326.303L328.299 326.307Z" fill="url(#colorOne)"/>
<path d="M338.824 345.757C338.833 346.947 337.88 347.922 336.69 347.936C335.501 347.95 334.525 346.992 334.516 345.802C334.502 344.613 335.459 343.637 336.649 343.623C337.839 343.61 338.815 344.567 338.829 345.757" fill="black"/>
<path d="M346.113 334.199C346.113 334.277 342.84 334.373 338.805 334.414C334.766 334.45 331.497 334.418 331.492 334.341C331.492 334.263 334.761 334.167 338.8 334.126C342.835 334.09 346.108 334.122 346.113 334.199Z" fill="black"/>
<path d="M354.066 284.798C351.148 288.627 348.23 292.461 345.317 296.291C341.528 301.265 337.74 306.243 333.951 311.217C333.632 311.636 333.304 312.051 332.994 312.475C331.457 314.559 331.102 317.417 332.1 319.811C333.395 322.92 336.29 324.721 339.636 324.689C342.244 324.661 344.852 324.639 347.46 324.611C352.825 324.561 358.187 324.506 363.553 324.456C370.578 324.388 377.604 324.32 384.629 324.256C392.256 324.183 399.888 324.11 407.515 324.037C414.568 323.969 421.621 323.9 428.678 323.832C434.099 323.782 439.52 323.727 444.94 323.677C447.635 323.649 450.324 323.627 453.019 323.599C453.137 323.599 453.256 323.599 453.374 323.599C454.323 323.59 455.221 322.751 455.166 321.776C455.111 320.795 454.355 319.975 453.342 319.984C451.496 320.002 449.654 320.02 447.808 320.039C443.025 320.084 438.243 320.13 433.456 320.175C426.759 320.239 420.062 320.303 413.365 320.367L390.934 320.581C383.694 320.65 376.45 320.723 369.211 320.791C363.293 320.846 357.38 320.905 351.462 320.96C347.947 320.991 344.432 321.028 340.917 321.06C340.384 321.064 339.851 321.078 339.317 321.074C339.262 321.074 339.221 321.074 339.158 321.074C339.007 321.074 338.852 321.06 338.702 321.051C339.103 321.074 338.779 321.064 338.67 321.042C338.41 320.987 338.155 320.932 337.899 320.855C337.822 320.827 337.389 320.65 337.808 320.836C337.639 320.764 337.471 320.681 337.311 320.595C337.193 320.531 337.074 320.458 336.96 320.385C336.887 320.34 336.536 320.061 336.887 320.349C336.714 320.207 336.541 320.061 336.381 319.902C336.285 319.806 336.199 319.706 336.108 319.606C335.798 319.286 336.308 319.916 336.057 319.551C335.88 319.291 335.711 319.036 335.565 318.753C335.524 318.671 335.36 318.261 335.529 318.698C335.483 318.575 335.433 318.448 335.387 318.32C335.319 318.106 335.26 317.891 335.209 317.673C335.187 317.572 335.146 317.135 335.191 317.622C335.178 317.486 335.164 317.353 335.155 317.217C335.146 317.08 335.146 316.943 335.15 316.811C335.15 316.706 335.219 316.104 335.141 316.61C335.182 316.337 335.237 316.063 335.314 315.794C335.342 315.703 335.374 315.616 335.401 315.525C335.524 315.078 335.228 315.844 335.437 315.425C335.57 315.161 335.702 314.896 335.866 314.645C336.007 314.431 336.149 314.24 335.861 314.627C338.797 310.72 341.784 306.849 344.742 302.961C348.494 298.037 352.242 293.109 355.989 288.185C356.208 287.902 356.423 287.615 356.641 287.328C357.234 286.553 357.375 285.513 356.619 284.77C355.989 284.15 354.658 284.013 354.061 284.793" fill="black"/>
<path d="M456.15 337.551C456.214 344.38 450.734 349.969 443.905 350.033C437.076 350.097 431.486 344.617 431.422 337.788C431.359 330.958 436.839 325.369 443.668 325.305C450.497 325.241 456.087 330.721 456.15 337.551Z" fill="black"/>
<path d="M452.254 337.591C452.3 342.269 448.543 346.099 443.866 346.144C439.188 346.19 435.359 342.433 435.313 337.756C435.267 333.078 439.024 329.248 443.701 329.207C448.379 329.162 452.209 332.918 452.254 337.596" fill="black"/>
<path d="M435.424 318.202C435.287 318.339 435.351 321.489 435.424 323.837C435.465 325.245 436.623 326.358 438.032 326.344H438.716L439.135 337.55C439.231 340.076 441.319 342.068 443.845 342.041C445.7 342.023 447.369 340.91 448.094 339.201C450.109 334.459 453.947 325.387 453.947 325.387L453.879 318.238L435.429 318.197L435.424 318.202Z" fill="url(#colorOne)"/>
<path d="M445.941 337.65C445.95 338.84 444.998 339.816 443.808 339.825C442.618 339.838 441.642 338.881 441.633 337.691C441.619 336.501 442.577 335.526 443.767 335.512C444.956 335.498 445.932 336.456 445.946 337.645" fill="black"/>
<g opacity="0.3">
<mask id="mask5_5018_9610" style="mask-type:luminance" maskUnits="userSpaceOnUse" x="443" y="337" width="13" height="13">
<path d="M455.41 337.207H443V349.316H455.41V337.207Z" fill="white"/>
</mask>
<g mask="url(#mask5_5018_9610)">
<path d="M444.394 347.457C443.801 347.507 443.268 347.881 443.067 348.441C442.953 348.76 442.976 349.075 443.373 349.235C444.326 349.608 449.815 348.856 452.938 344.753C455.5 341.389 455.7 337.623 455.194 337.331C454.688 337.039 453.95 337.331 453.717 337.577C453.48 337.823 453.64 341.885 450.403 344.762C448.019 346.882 445.557 347.361 444.399 347.461" fill="white"/>
</g>
</g>
<path d="M453.23 326.094C453.23 326.171 449.957 326.267 445.922 326.308C441.883 326.345 438.614 326.313 438.609 326.235C438.609 326.158 441.878 326.062 445.917 326.021C449.952 325.984 453.226 326.016 453.23 326.094Z" fill="black"/>
<path d="M323.188 320.726C323.238 320.663 323.301 320.581 323.301 320.576C323.301 320.576 323.301 320.576 323.297 320.576C323.26 320.622 323.228 320.667 323.192 320.713V320.717" fill="black"/>
<path d="M323.193 320.727C323.193 320.727 323.161 320.749 323.161 320.699C323.129 320.645 323.134 320.563 323.184 320.495L323.197 320.476L323.215 320.463L323.229 320.454L323.374 320.699C323.374 320.699 323.374 320.699 323.37 320.704L323.356 320.713C323.356 320.713 323.343 320.722 323.329 320.731C323.311 320.74 323.293 320.749 323.274 320.758C323.238 320.772 323.211 320.772 323.197 320.772C323.161 320.767 323.17 320.749 323.197 320.717C323.22 320.686 323.252 320.636 323.261 320.577C323.261 320.549 323.261 320.517 323.252 320.495C323.247 320.481 323.243 320.472 323.243 320.467C323.243 320.463 323.243 320.458 323.243 320.458V320.449L323.388 320.695H323.393L323.424 320.663C323.374 320.727 323.297 320.754 323.238 320.736C323.238 320.69 323.202 320.704 323.202 320.717" fill="black"/>
<path d="M344.222 289.435C342.193 292.075 340.383 294.947 338.477 297.691C335.085 302.579 331.694 307.466 328.306 312.353C327.025 314.2 325.744 316.046 324.463 317.892C324.112 318.398 323.761 318.9 323.414 319.406C323.373 319.465 323.332 319.524 323.291 319.584C323.264 319.607 323.223 319.67 323.186 319.734C323.182 319.743 323.173 319.752 323.168 319.762C323.159 319.78 323.132 319.803 323.127 319.821C323.127 319.821 323.15 319.784 323.182 319.739C323.145 319.807 323.109 319.875 323.1 319.898C322.99 320.085 322.899 320.277 322.803 320.473C322.772 320.537 322.731 320.637 322.712 320.678C322.685 320.76 322.658 320.842 322.635 320.924C322.571 321.152 322.516 321.38 322.475 321.612C322.462 321.685 322.452 321.758 322.439 321.831C322.439 321.84 322.439 321.85 322.439 321.863C322.43 322.096 322.421 322.324 322.43 322.556C322.434 322.684 322.539 323.4 322.452 322.966C322.493 323.163 322.525 323.354 322.576 323.55C322.63 323.764 322.699 323.969 322.767 324.179C322.767 324.184 322.767 324.188 322.772 324.193C322.808 324.266 322.84 324.343 322.876 324.421C323 324.672 323.145 324.904 323.287 325.146C323.31 325.187 323.323 325.21 323.332 325.223C323.351 325.241 323.387 325.278 323.442 325.342C323.565 325.488 323.692 325.634 323.825 325.766C323.884 325.825 324.235 326.112 324.148 326.058C324.322 326.181 324.49 326.299 324.673 326.409C324.746 326.45 325.019 326.582 325.006 326.582C325.179 326.65 325.352 326.709 325.53 326.76C325.589 326.778 326.004 326.855 325.99 326.864C326.405 326.905 326.825 326.892 327.239 326.887C329.031 326.869 330.823 326.851 332.619 326.837C335.933 326.805 339.243 326.773 342.558 326.741C347.035 326.696 351.507 326.655 355.984 326.614C361.268 326.564 366.552 326.513 371.831 326.463C377.543 326.409 383.251 326.354 388.964 326.299C394.818 326.244 400.667 326.185 406.516 326.13C412.06 326.076 417.608 326.026 423.152 325.971C428.103 325.925 433.054 325.875 438.005 325.83C441.98 325.793 445.96 325.752 449.936 325.716C452.585 325.688 455.233 325.665 457.878 325.638C458.84 325.629 459.802 325.62 460.764 325.611C463.093 325.588 463.13 329.554 460.8 329.577C460.563 329.577 460.321 329.582 460.084 329.582C458.229 329.6 456.378 329.618 454.522 329.636C451.135 329.668 447.752 329.7 444.365 329.737C439.792 329.782 435.219 329.823 430.642 329.869L414.563 330.024C408.768 330.079 402.974 330.138 397.175 330.193C391.284 330.247 385.394 330.306 379.504 330.361C373.91 330.416 368.321 330.471 362.727 330.521C357.817 330.566 352.907 330.617 348.001 330.662C344.117 330.699 340.237 330.735 336.353 330.776C333.855 330.799 331.356 330.826 328.858 330.849C326.943 330.867 325.129 330.981 323.31 330.092C319.576 328.278 317.852 323.263 319.389 319.173C319.913 317.778 320.852 316.598 321.682 315.399C324.632 311.145 327.586 306.887 330.536 302.633C333.599 298.216 336.663 293.798 339.727 289.385C340.315 288.537 340.885 287.671 341.495 286.845C343.173 284.935 345.708 283.472 348.06 282.906C349.246 282.624 350.477 282.596 351.685 282.501C356.773 282.09 361.856 281.621 366.939 281.147C373.545 280.531 380.151 279.898 386.757 279.255C393.331 278.616 399.905 277.978 406.475 277.335C411.54 276.843 416.61 276.346 421.675 275.872C423.179 275.731 424.684 275.589 426.193 275.466C427.068 275.393 427.962 275.225 428.823 275.439C429.781 275.676 430.209 277.066 429.913 277.978C429.557 279.072 429.142 279.173 427.916 279.282C427.556 279.309 427.191 279.337 426.831 279.369C423.097 279.683 419.368 280.053 415.639 280.413C409.684 280.987 403.735 281.571 397.781 282.15C391.07 282.802 384.355 283.454 377.644 284.096C371.635 284.671 365.626 285.241 359.613 285.779C357.338 285.984 355.058 286.18 352.779 286.367C351.749 286.449 350.709 286.485 349.688 286.627C347.573 286.923 345.726 287.789 344.203 289.449" fill="black"/>
<path d="M461.596 344.6C461.66 351.429 456.18 357.018 449.35 357.082C442.521 357.146 436.932 351.666 436.868 344.837C436.804 338.007 442.284 332.418 449.113 332.354C455.943 332.29 461.532 337.77 461.596 344.6Z" fill="black"/>
<path d="M457.7 344.634C457.745 349.312 453.988 353.142 449.311 353.187C444.633 353.233 440.804 349.476 440.758 344.799C440.713 340.121 444.469 336.291 449.147 336.25C453.824 336.205 457.654 339.961 457.7 344.639" fill="black"/>
<path d="M440.862 325.245C440.725 325.382 440.789 328.532 440.862 330.88C440.903 332.288 442.061 333.401 443.469 333.387H444.153L444.573 344.593C444.668 347.119 446.756 349.111 449.282 349.084C451.138 349.066 452.806 347.953 453.531 346.244C455.546 341.502 459.385 332.43 459.385 332.43L459.316 325.281L440.866 325.24L440.862 325.245Z" fill="url(#colorOne)"/>
<path d="M451.387 344.693C451.396 345.883 450.443 346.859 449.253 346.868C448.063 346.881 447.087 345.924 447.078 344.734C447.065 343.544 448.022 342.569 449.212 342.555C450.402 342.541 451.377 343.499 451.391 344.688" fill="black"/>
<path d="M458.675 333.137C458.675 333.214 455.402 333.31 451.367 333.351C447.328 333.388 444.055 333.356 444.055 333.278C444.055 333.201 447.323 333.105 451.363 333.064C455.397 333.027 458.671 333.059 458.675 333.137Z" fill="black"/>
<path d="M337.32 121.5C337.37 121.436 337.434 121.354 337.434 121.35C337.434 121.35 337.434 121.35 337.429 121.35C337.393 121.395 337.361 121.441 337.325 121.486V121.491" fill="black"/>
<path d="M337.318 121.497C337.318 121.497 337.286 121.52 337.286 121.47C337.254 121.416 337.259 121.334 337.309 121.266L337.322 121.252L337.34 121.238L337.354 121.229L337.499 121.475C337.499 121.475 337.499 121.475 337.495 121.479L337.481 121.488C337.481 121.488 337.468 121.497 337.454 121.506C337.436 121.52 337.418 121.525 337.399 121.534C337.363 121.547 337.336 121.547 337.322 121.547C337.286 121.543 337.295 121.525 337.322 121.493C337.345 121.461 337.377 121.411 337.386 121.352C337.386 121.325 337.386 121.293 337.377 121.27C337.372 121.256 337.368 121.247 337.368 121.243C337.368 121.238 337.368 121.234 337.368 121.234V121.225L337.513 121.47H337.518L337.549 121.438C337.499 121.502 337.422 121.529 337.363 121.511C337.363 121.466 337.327 121.479 337.327 121.493" fill="black"/>
<path d="M364.457 246.037L353.183 238.847C352.704 238.542 352.153 238.382 351.587 238.387L343.226 238.455C342.296 238.464 341.421 238.916 340.878 239.672L335.052 247.765C334.687 248.271 334.496 248.877 334.5 249.497L334.723 276.701C334.737 278.315 336.055 279.614 337.673 279.6L363.144 279.39C364.758 279.377 366.058 278.059 366.044 276.441L365.816 248.471C365.807 247.482 365.296 246.561 364.462 246.028M361.257 250.372C360.619 251.375 359.287 251.672 358.284 251.033L351.118 246.465C350.115 245.827 349.818 244.496 350.461 243.493C351.099 242.49 352.431 242.194 353.434 242.836L360.6 247.405C361.603 248.043 361.9 249.374 361.261 250.377" fill="url(#colorOne)"/>
<path d="M351.28 235.609L343.375 235.674L343.398 238.455L351.303 238.39L351.28 235.609Z" fill="url(#colorOne)"/>
<g opacity="0.3">
<mask id="mask6_5018_9610" style="mask-type:luminance" maskUnits="userSpaceOnUse" x="343" y="235" width="9" height="4">
<path d="M351.295 235.611H343.367V238.456H351.295V235.611Z" fill="white"/>
</mask>
<g mask="url(#mask6_5018_9610)">
<path d="M351.28 235.609L343.375 235.674L343.398 238.455L351.303 238.39L351.28 235.609Z" fill="black"/>
</g>
</g>
<path d="M352.13 237.22L342.305 237.302C341.895 237.302 341.562 236.979 341.557 236.568L341.539 234.316C341.539 233.906 341.863 233.573 342.273 233.568L352.098 233.486C352.508 233.486 352.841 233.81 352.845 234.22L352.864 236.472C352.864 236.883 352.535 237.216 352.13 237.22Z" fill="black"/>
<path d="M358.854 242.645H339.688V255.861H358.854V242.645Z" fill="#F5F5F5"/>
<path d="M409.62 235.095C412.561 237.712 415.78 238.97 418.702 237.908C419.286 237.693 419.573 237.146 420.106 236.891C420.393 236.795 420.804 236.859 421.164 236.859C421.355 236.854 421.542 236.836 421.688 236.772C424.601 235.405 426.306 232.318 426.626 228.188C427.059 222.407 424.232 217.538 420.316 217.301C419.755 217.264 419.249 217.274 418.766 217.333C418.178 217.41 417.626 217.556 417.056 217.807C416.053 218.235 415.005 218.979 413.66 220.15C413.619 220.191 413.569 220.232 413.523 220.273C410.386 220.2 408.253 221.062 406.58 222.881C403.931 225.785 405.289 231.251 409.62 235.099" fill="url(#colorTwo)"/>
<path d="M414.521 221.864C414.521 221.864 412.99 220.141 411.398 217.743L413.19 217.178C413.19 217.178 413.094 219.339 415.388 221.618L414.526 221.86L414.521 221.864Z" fill="url(#colorOne)"/>
<path d="M417.339 219.555C417.339 219.555 417.325 219.655 417.266 219.819C417.207 219.983 417.088 220.216 416.897 220.471C416.523 220.982 415.789 221.533 414.85 221.798C413.915 222.058 413.031 222.039 412.406 222.012C412.091 221.998 411.841 221.976 411.667 221.962C411.494 221.944 411.398 221.93 411.398 221.921C411.398 221.912 411.494 221.907 411.672 221.912C411.873 221.912 412.123 221.916 412.411 221.921C413.031 221.921 413.901 221.921 414.818 221.675C415.729 221.419 416.445 220.9 416.828 220.416C417.22 219.938 417.311 219.546 417.339 219.559" fill="black"/>
<g opacity="0.1">
<mask id="mask7_5018_9610" style="mask-type:luminance" maskUnits="userSpaceOnUse" x="406" y="222" width="9" height="11">
<path d="M414.728 222.18H406.18V232.355H414.728V222.18Z" fill="white"/>
</mask>
<g mask="url(#mask7_5018_9610)">
<path d="M413.842 222.741C410.044 222.581 410.177 221.852 408.467 222.362C407.437 222.686 406.703 223.653 406.402 224.692C406.096 225.731 406.16 226.835 406.274 227.911C406.37 228.8 406.798 229.775 407.172 230.591C407.546 231.403 408.216 231.918 409.041 232.264C409.474 232.447 410.628 232.424 411.148 231.699C411.69 230.938 411.549 229.898 411.312 228.996C411.075 228.093 410.765 227.136 411.043 226.247C411.225 225.668 411.645 225.18 412.146 224.838C412.648 224.491 413.227 224.282 413.815 224.122C414.024 224.063 414.243 224.013 414.426 223.89C414.608 223.766 414.749 223.557 414.726 223.343C414.685 222.964 414.225 222.768 413.847 222.75" fill="white"/>
</g>
</g>
<path d="M413.184 217.169C413.229 217.32 412.869 217.566 412.381 217.716C411.889 217.867 411.456 217.871 411.41 217.716C411.365 217.566 411.725 217.32 412.213 217.169C412.705 217.019 413.138 217.014 413.184 217.169Z" fill="url(#colorTwo)"/>
<path d="M408.292 222.646C408.346 222.737 408.114 222.988 407.772 223.206C407.425 223.425 407.102 223.53 407.047 223.443C406.992 223.352 407.225 223.106 407.567 222.883C407.909 222.664 408.237 222.559 408.292 222.646Z" fill="white"/>
<path d="M405.842 248.864C407.689 252.343 410.26 254.645 413.374 254.668C413.994 254.668 414.454 254.258 415.047 254.203C415.352 254.212 415.708 254.413 416.05 254.54C416.232 254.604 416.41 254.65 416.569 254.641C419.774 254.376 422.451 252.078 424.192 248.317C426.618 243.052 425.665 237.499 422.077 235.912C421.566 235.684 421.083 235.516 420.609 235.402C420.03 235.269 419.464 235.21 418.84 235.251C417.75 235.306 416.51 235.634 414.837 236.263C414.782 236.286 414.719 236.309 414.664 236.332C411.751 235.169 409.448 235.233 407.246 236.354C403.75 238.155 403.12 243.754 405.833 248.864" fill="url(#colorTwo)"/>
<path d="M415.053 238.174C415.053 238.174 414.219 236.022 413.562 233.223L415.436 233.318C415.436 233.318 414.593 235.311 415.947 238.247L415.053 238.174Z" fill="url(#colorOne)"/>
<path d="M418.505 236.993C418.505 236.993 418.459 237.08 418.345 237.216C418.231 237.353 418.04 237.526 417.775 237.7C417.246 238.046 416.362 238.31 415.395 238.228C414.429 238.146 413.608 237.818 413.029 237.576C412.742 237.453 412.509 237.349 412.354 237.271C412.199 237.194 412.113 237.148 412.117 237.139C412.117 237.13 412.213 237.162 412.377 237.225C412.564 237.298 412.797 237.39 413.066 237.494C413.649 237.713 414.465 238.019 415.409 238.101C416.353 238.178 417.205 237.941 417.734 237.622C418.267 237.307 418.491 236.975 418.514 236.993" fill="black"/>
<g opacity="0.1">
<mask id="mask8_5018_9610" style="mask-type:luminance" maskUnits="userSpaceOnUse" x="405" y="236" width="10" height="11">
<path d="M414.766 236.527H405.078V246.452H414.766V236.527Z" fill="white"/>
</mask>
<g mask="url(#mask8_5018_9610)">
<path d="M414.127 238.762C410.626 237.285 411.004 236.651 409.222 236.533C408.141 236.478 407.12 237.13 406.472 237.996C405.825 238.862 405.497 239.92 405.232 240.968C405.014 241.835 405.073 242.901 405.137 243.795C405.201 244.689 405.652 245.404 406.304 246.015C406.646 246.339 407.731 246.717 408.474 246.216C409.249 245.696 409.481 244.666 409.573 243.74C409.664 242.81 409.709 241.807 410.279 241.069C410.653 240.59 411.214 240.28 411.807 240.134C412.395 239.988 413.015 239.988 413.621 240.043C413.84 240.061 414.063 240.089 414.278 240.038C414.492 239.988 414.697 239.842 414.752 239.628C414.843 239.259 414.483 238.917 414.132 238.766" fill="white"/>
</g>
</g>
<path d="M415.434 233.309C415.425 233.468 415.001 233.569 414.49 233.541C413.979 233.514 413.569 233.363 413.578 233.204C413.587 233.044 414.011 232.944 414.522 232.971C415.033 232.999 415.443 233.149 415.434 233.309Z" fill="url(#colorTwo)"/>
<path d="M408.962 236.737C408.985 236.842 408.679 236.993 408.278 237.079C407.877 237.166 407.54 237.152 407.517 237.047C407.494 236.942 407.799 236.792 408.201 236.705C408.602 236.619 408.939 236.632 408.962 236.737Z" fill="white"/>
<path d="M420.433 225.204C419.115 228.915 419.152 232.366 421.235 234.678C421.655 235.138 422.27 235.197 422.708 235.598C422.904 235.831 423 236.232 423.136 236.565C423.214 236.743 423.3 236.907 423.414 237.016C425.776 239.205 429.273 239.624 433.225 238.37C438.746 236.601 442.198 232.156 440.944 228.436C440.766 227.903 440.565 227.438 440.333 227.009C440.041 226.494 439.699 226.038 439.248 225.605C438.473 224.835 437.392 224.142 435.797 223.339C435.742 223.316 435.687 223.285 435.633 223.257C434.52 220.326 432.924 218.666 430.609 217.805C426.92 216.441 422.366 219.751 420.428 225.208" fill="url(#colorTwo)"/>
<path d="M434.536 224.778C434.536 224.778 435.557 222.709 437.18 220.338L438.374 221.788C438.374 221.788 436.337 222.508 435.083 225.49L434.531 224.783L434.536 224.778Z" fill="url(#colorOne)"/>
<path d="M437.737 226.525C437.737 226.525 437.641 226.552 437.463 226.556C437.285 226.566 437.03 226.543 436.72 226.461C436.105 226.301 435.316 225.832 434.723 225.061C434.135 224.291 433.816 223.465 433.606 222.877C433.501 222.581 433.424 222.339 433.378 222.171C433.328 222.002 433.305 221.911 433.314 221.906C433.324 221.906 433.36 221.993 433.424 222.157C433.497 222.344 433.588 222.576 433.693 222.845C433.925 223.42 434.249 224.231 434.823 224.979C435.402 225.727 436.155 226.196 436.743 226.37C437.335 226.552 437.732 226.493 437.732 226.52" fill="black"/>
<g opacity="0.1">
<mask id="mask9_5018_9610" style="mask-type:luminance" maskUnits="userSpaceOnUse" x="422" y="218" width="12" height="8">
<path d="M433.517 218.295H422.812V225.576H433.517V218.295Z" fill="white"/>
</mask>
<g mask="url(#mask9_5018_9610)">
<path d="M433.444 224.482C432.168 220.903 432.893 220.752 431.776 219.357C431.087 218.523 429.915 218.208 428.84 218.318C427.764 218.427 426.761 218.897 425.808 219.407C425.019 219.831 424.276 220.593 423.661 221.245C423.045 221.897 422.822 222.713 422.813 223.606C422.808 224.076 423.259 225.134 424.13 225.343C425.037 225.562 425.949 225.038 426.701 224.482C427.449 223.921 428.22 223.278 429.15 223.201C429.756 223.15 430.362 223.36 430.868 223.693C431.374 224.03 431.789 224.486 432.158 224.969C432.291 225.143 432.423 225.325 432.605 225.448C432.788 225.571 433.034 225.626 433.225 225.521C433.558 225.339 433.572 224.842 433.444 224.482Z" fill="white"/>
</g>
</g>
<path d="M438.37 221.78C438.246 221.88 437.886 221.638 437.558 221.242C437.234 220.845 437.066 220.439 437.189 220.339C437.312 220.239 437.672 220.48 438 220.877C438.324 221.274 438.488 221.679 438.37 221.775" fill="url(#colorTwo)"/>
<path d="M431.46 219.309C431.401 219.395 431.077 219.272 430.744 219.035C430.411 218.798 430.193 218.538 430.252 218.452C430.311 218.365 430.635 218.488 430.968 218.725C431.3 218.962 431.519 219.222 431.46 219.309Z" fill="white"/>
<path d="M424.011 244.21C422.693 247.921 422.73 251.372 424.813 253.683C425.233 254.144 425.848 254.203 426.286 254.604C426.482 254.837 426.578 255.238 426.714 255.571C426.792 255.749 426.879 255.913 426.993 256.022C429.354 258.21 432.851 258.63 436.804 257.376C442.324 255.607 445.776 251.162 444.526 247.442C444.349 246.909 444.148 246.444 443.916 246.015C443.624 245.5 443.282 245.044 442.831 244.611C442.055 243.84 440.975 243.148 439.379 242.345C439.325 242.322 439.27 242.29 439.215 242.263C438.103 239.332 436.507 237.672 434.191 236.81C430.503 235.447 425.949 238.757 424.011 244.214" fill="url(#colorTwo)"/>
<path d="M438.122 243.784C438.122 243.784 439.143 241.714 440.766 239.344L441.96 240.794C441.96 240.794 439.923 241.514 438.669 244.495L438.117 243.789L438.122 243.784Z" fill="url(#colorOne)"/>
<path d="M441.323 245.526C441.323 245.526 441.227 245.554 441.049 245.558C440.871 245.568 440.616 245.545 440.306 245.463C439.691 245.303 438.902 244.833 438.309 244.063C437.721 243.293 437.402 242.467 437.192 241.879C437.087 241.583 437.01 241.341 436.964 241.173C436.914 241.004 436.891 240.913 436.9 240.908C436.91 240.908 436.946 240.995 437.01 241.159C437.083 241.346 437.174 241.578 437.279 241.847C437.511 242.422 437.835 243.233 438.409 243.981C438.988 244.729 439.741 245.198 440.329 245.371C440.921 245.554 441.318 245.495 441.318 245.522" fill="black"/>
<g opacity="0.1">
<mask id="mask10_5018_9610" style="mask-type:luminance" maskUnits="userSpaceOnUse" x="426" y="237" width="12" height="8">
<path d="M437.126 237.301H426.422V244.582H437.126V237.301Z" fill="white"/>
</mask>
<g mask="url(#mask10_5018_9610)">
<path d="M437.054 243.484C435.777 239.905 436.502 239.754 435.385 238.359C434.697 237.525 433.525 237.21 432.449 237.32C431.373 237.429 430.37 237.899 429.417 238.409C428.628 238.833 427.885 239.595 427.27 240.247C426.654 240.899 426.431 241.715 426.422 242.608C426.417 243.078 426.869 244.136 427.739 244.345C428.647 244.564 429.559 244.04 430.311 243.484C431.058 242.923 431.829 242.28 432.759 242.203C433.365 242.152 433.972 242.362 434.478 242.695C434.984 243.032 435.399 243.488 435.768 243.971C435.9 244.145 436.032 244.327 436.215 244.45C436.397 244.573 436.643 244.628 436.835 244.523C437.167 244.341 437.181 243.844 437.054 243.484Z" fill="white"/>
</g>
</g>
<path d="M441.971 240.782C441.848 240.882 441.488 240.64 441.16 240.244C440.836 239.847 440.667 239.441 440.79 239.341C440.913 239.241 441.274 239.482 441.602 239.879C441.926 240.276 442.09 240.681 441.971 240.777" fill="url(#colorTwo)"/>
<path d="M435.069 238.311C435.01 238.397 434.686 238.274 434.354 238.037C434.021 237.8 433.802 237.54 433.861 237.454C433.925 237.367 434.244 237.49 434.577 237.727C434.91 237.964 435.129 238.224 435.069 238.311Z" fill="white"/>
<path d="M450.614 242.112C450.614 242.112 450.732 242.814 450.746 244.159C450.741 245.5 450.646 247.524 449.798 249.958C449.365 251.162 448.758 252.479 447.792 253.715C446.839 254.959 445.54 256.117 443.907 256.961C442.289 257.813 440.379 258.365 438.332 258.634C436.276 258.908 434.078 258.88 431.799 258.707C429.515 258.543 427.139 258.242 424.655 258.119C422.17 257.973 419.594 258.201 416.909 258.36C414.237 258.497 411.374 258.588 408.603 257.663C407.23 257.189 405.917 256.441 404.837 255.402C403.752 254.367 402.899 253.081 402.27 251.691C400.984 248.891 400.679 245.709 400.629 242.554C400.611 239.386 400.583 236.158 400.816 232.866C401.062 229.589 401.595 226.215 402.945 223.056C403.296 222.271 403.656 221.496 404.121 220.758C404.6 220.015 405.201 219.367 405.867 218.802C407.203 217.671 408.73 216.796 410.303 216.035C412.227 215.095 414.206 214.33 416.18 213.627C417.169 213.286 418.158 212.948 419.138 212.611C420.109 212.273 421.126 211.963 421.992 211.535L421.951 211.836C420.561 210.318 419.731 208.444 419.134 206.57C418.564 204.683 418.208 202.731 418.35 200.771C418.4 200.283 418.496 199.786 418.71 199.326C418.92 198.87 419.271 198.446 419.731 198.204C420.178 197.963 420.734 197.858 421.249 198.031C421.773 198.209 422.106 198.679 422.302 199.116C422.995 200.899 423.392 202.713 423.597 204.537L423.269 204.446C424.45 202.873 426.086 201.697 427.869 201.049C428.316 200.89 428.772 200.753 429.232 200.662C429.692 200.566 430.185 200.498 430.682 200.616C431.183 200.721 431.621 201.131 431.771 201.615C431.935 202.093 431.904 202.608 431.735 203.06C431.388 203.972 430.709 204.601 430.167 205.289C429.597 205.968 429.036 206.639 428.475 207.3C427.358 208.626 426.269 209.93 425.197 211.202L425.152 210.956C425.854 211.302 426.674 211.453 427.463 211.585C428.256 211.713 429.054 211.799 429.838 211.886C430.627 211.973 431.407 212.041 432.177 212.146C432.56 212.201 432.952 212.26 433.331 212.383C433.7 212.506 434.055 212.643 434.406 212.798C437.206 214.065 439.266 216.222 440.848 218.373C442.444 220.544 443.602 222.787 444.605 224.87C445.599 226.963 446.456 228.9 447.231 230.651C448.781 234.152 449.72 237.024 450.144 239.026C450.586 241.023 450.614 242.117 450.614 242.117C450.614 242.117 450.564 241.848 450.495 241.328C450.413 240.808 450.29 240.038 450.053 239.044C449.602 237.056 448.64 234.211 447.067 230.724C446.283 228.982 445.407 227.049 444.404 224.966C443.392 222.896 442.23 220.671 440.639 218.528C439.061 216.404 437.023 214.289 434.288 213.067C432.943 212.378 431.388 212.383 429.811 212.191C429.022 212.109 428.224 212.023 427.418 211.895C426.615 211.758 425.79 211.622 425.001 211.234L424.823 211.147L424.956 210.988C426.022 209.711 427.112 208.407 428.224 207.076C428.781 206.411 429.341 205.74 429.911 205.061C430.463 204.373 431.124 203.734 431.416 202.937C431.721 202.175 431.457 201.118 430.604 200.949C430.203 200.853 429.752 200.903 429.314 200.999C428.867 201.09 428.43 201.222 428.001 201.377C426.282 202.007 424.705 203.142 423.57 204.66L423.292 205.029L423.241 204.569C423.036 202.786 422.631 200.967 421.97 199.262C421.792 198.861 421.518 198.505 421.135 198.378C420.752 198.245 420.301 198.323 419.923 198.524C419.143 198.934 418.815 199.887 418.742 200.794C418.61 202.663 418.951 204.596 419.517 206.443C420.1 208.28 420.925 210.117 422.248 211.553L422.425 211.745L422.211 211.854C421.24 212.342 420.264 212.625 419.28 212.971C418.299 213.308 417.315 213.646 416.325 213.988C414.361 214.69 412.391 215.451 410.49 216.381C408.931 217.133 407.426 218 406.136 219.094C405.489 219.641 404.914 220.261 404.467 220.954C404.021 221.66 403.661 222.435 403.319 223.201C401.992 226.302 401.459 229.634 401.212 232.889C400.98 236.154 401.003 239.39 401.016 242.541C401.062 245.677 401.367 248.805 402.612 251.536C403.223 252.894 404.053 254.139 405.092 255.142C406.132 256.145 407.399 256.87 408.726 257.335C411.415 258.242 414.242 258.164 416.904 258.032C419.576 257.882 422.184 257.658 424.687 257.813C427.185 257.946 429.56 258.256 431.835 258.429C434.106 258.607 436.28 258.648 438.314 258.383C440.342 258.128 442.225 257.595 443.821 256.765C445.426 255.949 446.711 254.818 447.655 253.601C448.617 252.388 449.228 251.093 449.665 249.908C450.523 247.505 450.646 245.495 450.678 244.159C450.682 243.489 450.668 242.974 450.646 242.632C450.627 242.29 450.627 242.112 450.627 242.112" fill="black"/>
<path d="M458.59 257.087L400.992 262.471L402.195 275.339L459.793 269.956L458.59 257.087Z" fill="url(#colorOne)"/>
<path d="M410.747 268.034L413.396 271.457C412.735 271.918 411.955 272.196 411.144 272.273C408.677 272.506 406.471 270.778 406.252 268.453C406.033 266.128 407.884 264.026 410.35 263.794C412.817 263.566 415.023 265.289 415.242 267.614L410.747 268.034Z" fill="white"/>
<path d="M443.469 266.739L419.347 268.991C418.504 269.068 417.756 268.448 417.678 267.605C417.601 266.762 418.221 266.014 419.064 265.936L443.186 263.684C444.029 263.607 444.777 264.227 444.855 265.07C444.932 265.914 444.312 266.661 443.469 266.739Z" fill="white"/>
<g style="mix-blend-mode:multiply" opacity="0.33">
<mask id="mask11_5018_9610" style="mask-type:luminance" maskUnits="userSpaceOnUse" x="448" y="257" width="12" height="14">
<path d="M459.769 257.125H448.125V270.971H459.769V257.125Z" fill="white"/>
</mask>
<g mask="url(#mask11_5018_9610)">
<path d="M458.581 257.092L448.141 258.068L449.343 270.937L459.784 269.961L458.581 257.092Z" fill="url(#colorOne)"/>
</g>
</g>
<path d="M453.114 244.931L395.516 250.314L396.718 263.183L454.317 257.799L453.114 244.931Z" fill="url(#colorTwo)"/>
<path d="M405.263 255.87L407.912 259.294C407.25 259.754 406.471 260.033 405.659 260.11C403.193 260.343 400.986 258.615 400.768 256.29C400.549 253.965 402.4 251.863 404.866 251.63C407.333 251.398 409.539 253.126 409.758 255.451L405.263 255.87Z" fill="white"/>
<path d="M437.984 254.577L413.863 256.829C413.019 256.906 412.272 256.286 412.194 255.443C412.117 254.599 412.737 253.852 413.58 253.774L437.702 251.522C438.545 251.445 439.293 252.065 439.37 252.908C439.448 253.752 438.828 254.499 437.984 254.577Z" fill="white"/>
<path d="M453.104 244.932L442.664 245.908L443.867 258.777L454.307 257.801L453.104 244.932Z" fill="url(#colorOne)"/>
<path d="M454.302 257.95C454.316 258.105 441.45 259.413 425.567 260.872C409.679 262.335 396.795 263.393 396.781 263.243C396.768 263.088 409.629 261.779 425.517 260.32C441.4 258.862 454.289 257.799 454.302 257.95Z" fill="black"/>
<path d="M449.653 232.118L392.055 237.502L393.258 250.371L450.856 244.987L449.653 232.118Z" fill="url(#colorOne)"/>
<path d="M401.786 243.066L404.435 246.489C403.774 246.95 402.994 247.228 402.183 247.305C399.716 247.538 397.51 245.81 397.291 243.485C397.072 241.16 398.923 239.058 401.39 238.826C403.856 238.593 406.063 240.321 406.281 242.646L401.786 243.066Z" fill="white"/>
<path d="M434.516 241.77L410.394 244.022C409.55 244.1 408.803 243.48 408.725 242.636C408.648 241.793 409.268 241.045 410.111 240.968L434.233 238.716C435.076 238.638 435.824 239.258 435.902 240.101C435.979 240.945 435.359 241.693 434.516 241.77Z" fill="white"/>
<g style="mix-blend-mode:multiply" opacity="0.33">
<mask id="mask12_5018_9610" style="mask-type:luminance" maskUnits="userSpaceOnUse" x="439" y="232" width="12" height="14">
<path d="M450.847 232.152H439.203V245.998H450.847V232.152Z" fill="white"/>
</mask>
<g mask="url(#mask12_5018_9610)">
<path d="M449.659 232.126L439.219 233.102L440.422 245.97L450.862 244.994L449.659 232.126Z" fill="url(#colorOne)"/>
</g>
</g>
<path d="M450.855 245.304C450.869 245.459 437.999 246.731 422.115 248.144C406.222 249.562 393.334 250.583 393.32 250.433C393.307 250.282 406.172 249.006 422.065 247.592C437.948 246.175 450.841 245.153 450.855 245.304Z" fill="black"/>
<path d="M449.014 232.009C449.027 232.164 436.23 233.5 420.429 235C404.623 236.499 391.803 237.589 391.789 237.434C391.775 237.284 404.573 235.943 420.374 234.443C436.171 232.943 448.995 231.854 449.009 232.009" fill="black"/>
<path d="M402.806 268.819L403.025 235.256C403.061 229.739 398.384 225.873 396.961 223.945C395.534 222.017 396.063 214.69 396.063 214.69H395.566L395.575 214.54H395.457C393.546 214.512 391.267 214.48 388.563 214.439H388.404L388.413 214.649C388.481 216.341 388.49 218.169 388.331 220.065C388.24 221.004 388.117 221.989 387.798 222.86C387.656 223.307 387.396 223.621 387.1 223.981C386.799 224.323 386.498 224.67 386.193 225.021C384.957 226.416 383.667 227.957 382.696 229.954C382.222 230.952 381.843 232.083 381.675 233.3C381.67 233.341 381.675 233.378 381.666 233.419C381.565 233.966 381.497 234.531 381.492 235.119L381.274 268.683C381.255 271.4 383.006 273.615 385.181 273.634L398.839 273.725C401.014 273.738 402.792 271.546 402.81 268.824" fill="white"/>
<path d="M387.315 241.909L387.195 260.432L402.832 260.533L402.952 242.01L387.315 241.909Z" fill="url(#colorOne)"/>
<path d="M402.765 268.819C402.806 260.025 402.624 249.548 402.61 240.754C402.61 239.605 402.615 236.605 402.624 235.493C402.688 232.621 401.407 229.972 399.629 227.725C398.703 226.516 397.595 225.422 396.647 224.205C395.571 222.409 395.676 220.202 395.589 218.201C395.58 217.02 395.617 215.848 395.694 214.663L396.059 215.055C395.835 215.037 395.389 215.06 395.17 215.046L395.197 214.663L395.206 214.517L395.566 214.905L388.395 214.754L388.714 214.426C388.76 217.266 388.888 220.22 387.998 222.96C387.78 223.617 387.242 224.118 386.813 224.615C385.641 225.915 384.483 227.205 383.567 228.677C382.377 230.492 381.757 232.616 381.625 234.777C381.598 235.625 381.598 237.814 381.589 238.698C381.566 242.026 381.611 250.971 381.634 254.408C381.666 257.901 381.657 261.393 381.643 264.88C381.707 266.59 381.456 268.336 381.753 270.028C382.131 271.819 383.59 273.47 385.532 273.351C388.204 273.41 392.64 273.511 395.348 273.57C396.237 273.57 398.402 273.679 399.264 273.611C401.502 273.296 402.765 270.917 402.77 268.815M402.843 268.819C402.861 270.976 401.571 273.424 399.277 273.766C398.402 273.834 396.25 273.789 395.338 273.821C393.606 273.834 389.161 273.875 387.483 273.894L386.175 273.907C385.281 273.925 384.287 273.967 383.481 273.492C380.348 271.746 380.946 267.912 380.941 264.885C380.973 261.393 381.01 257.901 381.087 254.413C381.206 249.562 381.32 240.85 381.356 236.086C381.119 231.299 383.394 227.747 386.494 224.346C387.816 223.129 387.976 221.36 388.085 219.66C388.199 217.822 388.167 215.971 388.062 214.125H388.4L395.571 214.18H395.954L395.931 214.567L395.922 214.713L395.562 214.326C395.776 214.326 396.237 214.326 396.446 214.326L396.424 214.718C396.305 217.006 396.273 219.368 396.61 221.629C396.747 222.308 396.857 222.992 397.203 223.558C398.129 224.848 399.323 225.915 400.28 227.214C402.118 229.521 403.513 232.448 403.422 235.493C403.417 236.596 403.381 239.61 403.367 240.754C403.235 249.544 402.92 260.025 402.847 268.815" fill="black"/>
<path d="M397.006 215.596L387.747 215.537C386.821 215.533 386.074 214.803 386.078 213.91C386.083 213.016 386.84 212.296 387.765 212.305L397.024 212.364C397.95 212.369 398.697 213.098 398.693 213.992C398.688 214.885 397.932 215.605 397.006 215.596Z" fill="url(#colorOne)"/>
<path d="M361.318 281.151L356.398 243.507L360.857 236.235L360.351 232.378L376.08 230.322L376.64 234.631L382.512 239.053L387.568 277.722L361.318 281.151Z" fill="url(#colorTwo)"/>
<path d="M372.626 249.533L359.508 251.248L361.921 269.701L375.039 267.985L372.626 249.533Z" fill="white"/>
<path d="M379.282 278.804C379.282 278.804 379.227 278.653 379.172 278.357C379.113 278.011 379.045 277.582 378.958 277.067C378.78 275.872 378.548 274.268 378.261 272.312C377.691 268.295 376.939 262.742 376.136 256.601C375.388 250.684 374.709 245.313 374.203 241.297V241.256L374.212 241.219C374.923 239.227 375.507 237.59 375.936 236.382C376.132 235.858 376.296 235.425 376.428 235.074C376.546 234.777 376.615 234.622 376.633 234.627C376.651 234.632 376.61 234.796 376.524 235.106C376.414 235.466 376.282 235.908 376.118 236.442C375.726 237.663 375.192 239.318 374.54 241.329L374.55 241.251C375.092 245.268 375.817 250.629 376.615 256.542C377.417 262.679 378.115 268.241 378.598 272.266C378.821 274.227 379.008 275.84 379.145 277.039C379.195 277.559 379.236 277.988 379.268 278.339C379.291 278.635 379.296 278.795 379.277 278.795" fill="black"/>
<path d="M374.164 241.306C374.183 241.434 370.152 242.067 365.165 242.719C360.177 243.371 356.12 243.795 356.102 243.667C356.083 243.54 360.114 242.906 365.101 242.254C370.089 241.602 374.146 241.178 374.164 241.306Z" fill="black"/>
<path d="M376.564 234.025C376.582 234.153 372.972 234.732 368.499 235.315C364.027 235.899 360.393 236.268 360.375 236.141C360.357 236.013 363.968 235.434 368.44 234.85C372.908 234.267 376.546 233.898 376.564 234.025Z" fill="black"/>
<path d="M320.414 190.719C321.727 190.91 322.88 191.48 323.783 192.405C324.02 192.46 324.257 192.528 324.499 192.574C322.434 189.424 320.378 186.274 318.29 183.141C316.015 179.731 313.731 176.326 311.351 172.989C310.63 171.977 309.901 170.964 309.135 169.989C308.647 169.369 308.15 168.658 307.48 168.215C306.559 167.609 305.506 167.162 304.512 166.697C302.898 165.94 301.262 165.225 299.62 164.523C296.466 163.173 293.288 161.869 290.097 160.597C289.563 160.383 289.025 160.169 288.492 159.959C287.886 159.722 287.197 159.818 286.855 160.438C286.573 160.953 286.728 161.833 287.334 162.074C292.768 164.217 298.216 166.396 303.505 168.881C304.129 169.177 304.754 169.478 305.369 169.797C305.616 169.925 305.862 170.057 306.099 170.194C306.117 170.203 306.117 170.208 306.131 170.217C306.249 170.376 306.477 170.536 306.6 170.677C306.65 170.736 306.705 170.796 306.755 170.855C306.778 170.878 306.787 170.896 306.805 170.914C306.792 170.896 306.783 170.887 306.764 170.86C306.787 170.887 306.81 170.914 306.833 170.942C306.851 170.96 306.856 170.974 306.865 170.983C306.974 171.119 307.084 171.252 307.188 171.388C307.539 171.84 307.881 172.3 308.223 172.761C310.38 175.697 312.418 178.719 314.451 181.737C316.457 184.719 318.44 187.714 320.419 190.719M306.14 170.217C306.24 170.326 306.345 170.344 306.14 170.217V170.217Z" fill="black"/>
<path d="M479.174 209.073C478.098 209.005 477.437 209.798 477.255 210.765C475.983 217.548 474.706 224.332 473.434 231.111C471.406 241.907 469.377 252.707 467.348 263.503C466.983 265.445 466.619 267.383 466.254 269.325C462.47 269.653 458.69 269.977 454.906 270.305C444.918 271.167 434.929 272.024 424.94 272.881C412.658 273.934 400.376 274.983 388.094 276.022C377.267 276.939 366.434 277.855 355.607 278.748C351.805 279.063 348.007 279.373 344.205 279.674C342.937 279.774 341.67 279.875 340.402 279.966C339.956 279.998 339.509 280.03 339.058 280.066C339.801 280.011 338.998 280.066 338.615 280.093C338.515 279.897 338.415 279.701 338.319 279.501C337.12 277.016 336.099 274.445 335.059 271.892C331.257 262.532 327.678 253.086 324.099 243.64C319.723 232.082 315.401 220.507 311.093 208.927C307.527 199.331 303.976 189.729 300.415 180.137C299.412 177.443 298.419 174.748 297.397 172.059C297.169 171.461 296.964 170.85 296.704 170.267C295.829 168.261 293.536 167.039 291.694 166.059C289.574 164.928 287.368 163.925 285.125 163.068C282.945 162.238 281.774 165.658 283.944 166.487C286.196 167.349 288.402 168.325 290.44 169.478C291.088 169.843 291.726 170.23 292.328 170.668C292.474 170.773 292.615 170.882 292.761 170.996C292.806 171.033 292.838 171.056 292.861 171.074C292.875 171.088 292.893 171.106 292.911 171.124C293.021 171.229 293.376 171.712 293.331 171.594C293.408 171.749 293.481 171.908 293.545 172.072C294.297 173.946 294.981 175.852 295.688 177.748C298.911 186.392 302.102 195.041 305.307 203.689C309.602 215.26 313.906 226.821 318.259 238.374C322.112 248.604 325.978 258.83 330.008 268.992C331.303 272.252 332.602 275.516 333.997 278.735C334.412 279.697 334.836 280.659 335.31 281.589C335.638 282.236 335.994 282.984 336.609 283.408C337.166 283.786 337.708 283.745 338.324 283.709C339.258 283.654 340.193 283.581 341.132 283.513C344.132 283.289 347.132 283.048 350.131 282.801C360.116 281.99 370.095 281.151 380.079 280.308C392.293 279.277 404.502 278.238 416.716 277.194C427.648 276.259 438.581 275.32 449.509 274.381C455.44 273.87 461.376 273.36 467.307 272.849C467.581 272.826 467.854 272.804 468.128 272.776C468.98 272.703 469.427 271.842 469.564 271.121C470.84 264.337 472.112 257.554 473.389 250.774C475.417 239.979 477.446 229.178 479.475 218.383C479.935 215.921 480.4 213.464 480.861 211.002C481.043 210.04 480.063 209.137 479.169 209.082" fill="black"/>
<path d="M482.512 210.13C480.866 209.925 479.216 209.725 477.57 209.519C473.088 208.968 468.607 208.412 464.125 207.86C457.551 207.048 450.972 206.237 444.398 205.425C436.324 204.427 428.25 203.433 420.172 202.435C411.327 201.345 402.478 200.251 393.634 199.161L366.936 195.865C358.639 194.839 350.342 193.818 342.04 192.792C335.005 191.926 327.966 191.055 320.931 190.189C315.889 189.569 310.847 188.945 305.805 188.325C303.571 188.051 301.337 187.718 299.094 187.49C299.572 188.279 299.924 189.15 300.161 190.052C301.141 190.175 302.121 190.294 303.101 190.417C307.583 190.969 312.064 191.525 316.546 192.077C323.12 192.888 329.698 193.7 336.272 194.511C344.346 195.51 352.42 196.503 360.499 197.502C369.343 198.596 378.193 199.686 387.037 200.775C395.936 201.874 404.835 202.973 413.735 204.071C422.032 205.097 430.329 206.118 438.627 207.144C445.661 208.01 452.696 208.881 459.735 209.747C464.777 210.372 469.819 210.992 474.862 211.616C477.251 211.913 479.64 212.273 482.038 212.501C482.142 212.51 482.247 212.528 482.348 212.537C483.889 212.729 484.034 210.322 482.503 210.13" fill="black"/>
<path d="M294.284 158.915C294.015 159.69 287.902 172.852 287.902 172.852L271.047 164.277C267.172 162.307 265.681 157.429 267.76 153.545C269.739 149.848 274.229 148.434 277.895 150.349L294.284 158.915Z" fill="url(#colorOne)"/>
<g style="mix-blend-mode:multiply">
<mask id="mask13_5018_9610" style="mask-type:luminance" maskUnits="userSpaceOnUse" x="270" y="152" width="11" height="11">
<path d="M280.17 152.404H270.117V162.703H280.17V152.404Z" fill="white"/>
</mask>
<g mask="url(#mask13_5018_9610)">
<path d="M280.162 157.879C279.984 160.72 277.595 162.871 274.823 162.689C272.052 162.507 269.95 160.063 270.128 157.223C270.305 154.387 272.694 152.231 275.466 152.413C278.238 152.595 280.34 155.044 280.162 157.879Z" fill="url(#colorOne)"/>
</g>
</g>
<path d="M327.539 192.338L348.51 280.783" stroke="black" stroke-width="1.5" stroke-miterlimit="10"/>
<path d="M343.727 193.932L360.367 278.957" stroke="black" stroke-width="1.5" stroke-miterlimit="10"/>
<path d="M357.852 195.301L371.073 277.819" stroke="black" stroke-width="1.5" stroke-miterlimit="10"/>
<path d="M372.445 197.58L384.299 276.907" stroke="black" stroke-width="1.5" stroke-miterlimit="10"/>
<path d="M387.953 198.492L396.159 275.539" stroke="black" stroke-width="1.5" stroke-miterlimit="10"/>
<path d="M403.445 201.227L407.548 274.627" stroke="black" stroke-width="1.5" stroke-miterlimit="10"/>
<path d="M418.031 202.139L420.78 273.473" stroke="black" stroke-width="1.5" stroke-miterlimit="10"/>
<path d="M432.172 203.963L432.514 272.394" stroke="black" stroke-width="1.5" stroke-miterlimit="10"/>
<path d="M447.214 206.697L444.82 271.481" stroke="black" stroke-width="1.5" stroke-miterlimit="10"/>
<path d="M460.89 207.609L458.523 270.218" stroke="black" stroke-width="1.5" stroke-miterlimit="10"/>
<path d="M475.248 233.368L315.227 223.338" stroke="black" stroke-width="1.5" stroke-miterlimit="10"/>
<path d="M471.833 254.112L327.312 252.744" stroke="black" stroke-width="1.5" stroke-miterlimit="10"/>
<path d="M240.457 57.541C240.457 57.541 232.825 58.4482 226.023 54.2129C226.023 54.2129 229.187 61.3295 239.924 60.9739L240.457 57.541Z" fill="black"/>
<path d="M251.68 28.1026C251.425 28.4217 250.449 28.0707 249.273 28.0342C248.097 27.9567 247.094 28.2166 246.87 27.8746C246.775 27.7105 246.934 27.3868 247.377 27.0905C247.81 26.7942 248.535 26.5571 249.341 26.5936C250.148 26.6346 250.846 26.9355 251.252 27.2728C251.662 27.6102 251.794 27.9476 251.68 28.1026Z" fill="black"/>
<path d="M243.484 32.7227C243.821 34.7879 244.4 36.803 245.353 38.663C246.256 40.4091 247.136 42.137 244.254 42.0185C243.726 41.9683 243.206 41.8771 242.695 41.7404C243.22 41.7905 243.739 41.8452 244.259 41.8316C246.862 41.8224 245.764 40.3134 245.016 38.8272C244.086 36.9306 243.516 34.8335 243.484 32.7227Z" fill="black"/>
<path d="M240.379 66.4342C239.804 63.6213 239.663 60.7081 240.064 57.8633C240.479 57.8496 240.894 57.7721 241.309 57.7402C240.981 57.8633 240.538 58.0457 240.197 58.1232L240.311 57.9955C240.534 60.8039 240.703 63.6259 240.374 66.4342" fill="black"/>
<path d="M214.63 27.9568C216.49 14.8724 228.886 5.91854 241.509 11.9866C250.682 16.3359 255.92 26.3748 256.372 36.2679C256.969 43.9133 254.348 52.7623 246.967 56.291C244.97 57.2985 242.777 57.8639 240.566 58.1146C237.315 58.5067 233.887 58.9307 230.718 57.8365L230.741 57.7681C232.852 58.3973 235.077 58.3152 237.242 58.0872C240.456 57.6997 243.78 57.2758 246.67 55.7166C253.696 52.1605 256.13 43.6854 255.674 36.2998C255.419 31.9642 254.566 27.6012 252.665 23.6668C249.068 15.8207 240.712 9.64325 231.849 10.7192C222.494 11.7313 216.654 19.3676 214.625 27.9477" fill="black"/>
<path d="M221.519 41.6337C221.487 41.6109 221.401 41.7249 221.195 41.8252C220.999 41.9255 220.653 42.003 220.284 41.8799C219.531 41.6383 218.861 40.4849 218.779 39.2175C218.738 38.5792 218.847 37.9638 219.053 37.4531C219.249 36.9289 219.563 36.5596 219.937 36.4775C220.306 36.3772 220.58 36.5915 220.671 36.783C220.771 36.9744 220.735 37.1158 220.771 37.1294C220.79 37.1477 220.917 37.0064 220.849 36.7191C220.812 36.5824 220.726 36.4182 220.557 36.2906C220.384 36.1584 220.133 36.0991 219.873 36.1356C219.335 36.1949 218.866 36.71 218.638 37.2753C218.382 37.8407 218.241 38.5291 218.291 39.2494C218.392 40.6627 219.167 41.9574 220.192 42.2127C220.689 42.3222 221.1 42.158 221.305 41.9848C221.514 41.8024 221.546 41.6429 221.524 41.6337" fill="black"/>
<path d="M221.57 50.584C222.039 52.0885 222.19 53.7434 222.172 55.3208C222.203 56.9073 222.19 58.4893 222.172 60.0758C222.099 63.2489 221.985 66.4128 221.624 69.5722C221.283 64.8218 221.356 60.0622 221.588 55.3117C221.725 53.7479 221.729 52.1477 221.574 50.5885" fill="black"/>
<path d="M238.237 28.5725C238.132 28.9691 236.701 28.9144 235.06 29.2655C233.409 29.5846 232.114 30.1909 231.859 29.8672C231.745 29.7122 231.946 29.3293 232.456 28.9053C232.958 28.4859 233.783 28.0528 234.772 27.8522C235.762 27.6516 236.687 27.7291 237.316 27.9206C237.95 28.112 238.283 28.3856 238.237 28.5725Z" fill="black"/>
<path d="M242.43 34.7915C242.512 34.6639 243.118 33.7931 244.24 33.6791C245.037 33.6016 245.63 33.9481 245.812 34.0712" stroke="url(#colorOne)" stroke-width="1.27" stroke-miterlimit="10"/>
<path d="M229.92 35.9394L220.523 34.3438" stroke="url(#colorOne)" stroke-width="1.27" stroke-miterlimit="10"/>
<path d="M267.22 26.8264C265.305 25.8371 262.939 25.6593 261.357 24.1958C259.734 22.6959 259.406 20.307 259.009 18.1369C258.572 15.7708 257.915 13.3955 256.556 11.4078C255.198 9.42008 253.046 7.8609 250.639 7.70589C248.847 7.59192 247.005 8.24385 245.273 7.7606C243.303 7.21352 242.027 5.38535 240.509 4.01309C237.705 1.47829 233.629 0.416034 229.941 1.25945C227.392 1.83844 224.949 3.4113 223.905 5.80022C223.672 6.33362 223.536 6.9035 223.476 7.48249C222.099 7.24998 220.759 7.10866 220.139 7.17705C217.395 7.48706 214.901 9.81214 214.541 12.739C211.208 12.9579 208.103 15.2374 206.722 18.4651C206.549 18.8709 206.403 19.2858 206.289 19.7097C205.377 21.5881 205.341 23.8812 206.23 25.7915C206.768 26.9449 207.634 28.2123 207.1 29.3566C206.558 30.5192 204.99 30.6514 203.8 31.1392C201.725 31.9917 200.517 34.5083 201.142 36.6647C201.365 37.4397 201.798 38.2011 201.689 38.9989C201.575 39.8286 200.909 40.4487 200.417 41.1188C199.186 42.7874 198.931 45.1262 199.774 47.0364C200.617 48.9467 205.796 50.8979 207.875 51.1487C208.824 51.2626 209.831 51.1623 210.675 51.6137C211.641 52.1288 212.124 53.2139 212.84 54.0391C214.212 55.6256 216.624 56.2228 218.562 55.4524C218.954 55.2973 219.314 55.074 219.647 54.8232C220.335 55.6484 220.353 57.7866 222.031 57.6863L222.574 44.0047C220.987 44.3785 217.258 44.5062 216.747 39.6007C216.501 37.2528 217.199 35.9763 218.17 35.3016C219.483 34.3898 221.265 34.3259 222.204 35.2514C222.25 35.2195 222.341 35.2104 222.514 35.2377C226.089 35.8213 226.098 28.577 225.172 26.6668C226.367 25.4678 227.575 24.2505 228.446 22.7643C229.316 21.2781 229.9 17.3299 229.567 15.5884C229.567 15.5884 229.572 15.5884 229.576 15.5884C231.158 16.4592 233.068 16.7373 234.815 16.3133C236.397 15.9258 238.092 15.0185 239.538 15.7845C241.056 16.5914 241.27 18.7752 242.642 19.8146C244.603 21.3008 247.598 20.7674 249.991 21.3236C251.838 21.7522 251.273 25.5498 252.576 26.9267C252.959 27.3324 253.557 27.6743 254.254 27.9433C257.806 38.9898 255.968 53.7518 243.695 57.3899C243.705 57.5449 246.08 56.5283 247.324 56.3642C248.569 56.2 249.691 57.0389 250.853 57.5176C253.625 58.6619 257.154 57.5039 258.708 54.9463C259.497 53.647 259.898 51.9738 261.22 51.2079C262.547 50.4374 264.225 50.9253 265.747 50.7383C268.765 50.3691 270.913 46.7857 269.814 43.9591C269.385 42.8604 268.556 41.8665 268.56 40.6857C268.56 39.3955 269.55 38.3515 270.211 37.2437C272.285 33.7606 270.826 28.6728 267.225 26.8127" fill="black"/>
<path d="M236.795 43.066C232.104 43.4627 228.229 39.314 230.139 34.6729C232.341 29.3981 239.708 28.3952 242.507 33.7292C244.75 38.1742 241.568 42.829 236.795 43.0706M236.786 42.9475C241.783 42.5691 243.757 35.7032 240.123 32.4709C236.138 28.8738 229.925 31.6412 230.613 37.1621C230.923 40.1939 233.535 43.221 236.79 42.9521" fill="url(#colorOne)"/>
<path d="M252.264 40.7184C247.572 41.115 243.697 36.9663 245.608 32.3253C247.81 27.0505 255.177 26.0475 257.976 31.3815C260.219 35.8266 257.037 40.4813 252.264 40.7229M252.255 40.5998C257.251 40.2214 259.225 33.3556 255.592 30.1232C251.607 26.5262 245.393 29.2935 246.082 34.8145C246.392 37.8462 249.004 40.8734 252.259 40.6044" fill="url(#colorOne)"/>
<path d="M252.188 110.352L265.076 129.604C268.167 134.223 273.519 136.808 279.063 136.356L304.612 134.998V135.043L306.517 136.42C307.712 137.797 309.348 138.713 311.149 138.996C313.611 139.383 316.342 139.926 316.342 139.926L318.795 140.277C318.722 140.423 318.626 140.564 318.526 140.696C318.339 140.947 318.138 141.212 318.097 141.522C318.02 142.11 318.539 142.62 319.082 142.88C320.212 143.423 321.626 143.309 322.647 142.598C323.627 141.914 324.197 140.701 324.124 139.507C324.32 139.26 324.489 138.969 324.598 138.604C325.268 136.379 323.121 133.767 323.121 133.767H323.996C323.996 133.767 326.49 134.829 326.723 139.329C326.759 139.999 327.014 140.66 327.493 141.139C327.785 141.43 328.154 141.658 328.592 141.622C329.686 141.54 329.905 140.742 329.795 137.934C329.686 135.125 328.651 132.445 327.092 131.369C325.533 130.297 324.854 129.978 324.854 129.978C324.854 129.978 332.745 129.55 333.247 129.5C334.687 129.363 335.832 128.606 335.827 127.635C335.827 127.015 335.362 126.231 333.68 126.336C332.221 126.427 317.162 125.488 317.162 125.488L310.73 125.46C310.561 125.46 310.397 125.474 310.233 125.497L305.4 126.263C305.113 126.308 304.821 126.29 304.543 126.212L273.223 117.245L263.384 94.3906" fill="white"/>
<path d="M252.227 110.33C256.033 115.87 259.936 121.527 263.706 127.103C264.477 128.211 265.206 129.378 266.022 130.417C269.564 134.821 274.716 136.586 280.242 135.961C287.832 135.528 297.242 135.072 304.879 134.735L304.865 135.004V135.049L304.76 134.84L306.657 136.23L306.679 136.248C308.07 137.972 310.19 138.751 312.332 139.025C314.193 139.371 316.955 139.909 318.815 140.137L319.034 140.169L318.92 140.338C318.446 141.081 317.776 141.692 318.674 142.458C320.899 144.145 324.227 142.307 324.004 139.508V139.462L324.031 139.426C324.678 138.633 324.715 137.511 324.441 136.554C324.14 135.482 323.548 134.493 322.855 133.631H323.124H323.999C324.979 134.074 325.627 134.999 326.082 135.911C326.52 136.836 326.748 137.839 326.844 138.847C326.889 139.344 326.903 139.809 327.113 140.26C327.778 141.806 329.57 141.974 329.597 139.95C329.711 137.133 329.383 133.805 327.222 131.781C326.465 131.224 325.581 130.659 324.747 130.221L323.885 129.77L324.847 129.711L329.616 129.41L332 129.259C332.593 129.223 333.71 129.2 334.27 128.94C335.255 128.644 336.035 127.504 335.036 126.893C334.767 126.738 334.407 126.688 334.047 126.679C332.451 126.72 330.847 126.611 329.256 126.547C323.652 126.314 318.163 125.79 312.547 125.872C312.15 125.872 311.143 125.863 310.755 125.863C310.709 125.822 305.731 126.611 305.499 126.652C305.061 126.738 304.578 126.652 304.154 126.51L303.005 126.182L300.707 125.521C294.735 123.825 279.17 119.261 273.038 117.461L272.993 117.351L268.147 105.894C268.215 105.863 263.168 94.3328 263.423 94.383L268.47 105.758L273.458 117.155L273.294 117.009L291.721 122.161C294.293 122.89 301.938 125.07 304.372 125.763C304.701 125.867 305.034 125.945 305.38 125.881L310.103 125.129C310.801 125.024 311.849 125.097 312.56 125.079C313.978 125.102 315.952 125.07 317.361 125.115C321.314 125.371 325.348 125.621 329.292 125.836C330.888 125.909 332.465 126.027 334.061 125.995C334.489 126.009 334.945 126.059 335.378 126.305C336.956 127.299 335.985 129.118 334.503 129.56C333.837 129.847 332.775 129.857 332.059 129.893C330.582 129.971 326.424 130.18 324.883 130.258L324.984 129.747C325.672 130.098 326.301 130.536 326.93 130.951C329.848 132.834 330.391 137.621 329.871 140.771C329.702 141.683 328.604 142.093 327.833 141.623C327.354 141.336 327.026 140.894 326.816 140.406C326.602 139.937 326.579 139.385 326.543 138.888C326.456 137.908 326.256 136.932 325.841 136.043C325.503 135.195 324.601 134.238 324.013 133.914H323.137L323.238 133.695C323.89 134.539 324.405 135.478 324.697 136.504C324.984 137.525 324.934 138.738 324.231 139.59L324.259 139.508C324.469 142.503 320.944 144.496 318.519 142.672C317.876 142.166 317.808 141.368 318.332 140.757C318.473 140.575 318.565 140.402 318.683 140.228L318.788 140.429C316.905 140.206 314.188 139.709 312.291 139.389C310.071 139.143 307.842 138.341 306.365 136.581C306.574 136.75 304.441 135.213 304.486 135.254L304.382 135.177V135.045L304.386 134.999L304.646 135.259C296.339 135.77 286.529 136.344 278.258 136.732C273.417 136.873 268.571 134.612 265.607 130.773C264.764 129.665 264.075 128.521 263.314 127.39C259.694 121.773 255.618 115.938 252.245 110.344" fill="black"/>
<path d="M311.12 126.72C310.951 127.558 311.617 128.365 312.378 128.767C313.14 129.168 314.015 129.295 314.804 129.642C317.165 130.672 318.456 133.435 320.858 134.347C321.196 134.474 321.647 134.529 321.843 134.228C322.021 133.95 321.843 133.59 321.656 133.307C320.111 130.923 318.565 128.539 317.02 126.154" fill="white"/>
<path d="M317.022 126.153C317.049 126.135 317.254 126.395 317.601 126.878C317.947 127.361 318.435 128.068 319.032 128.948C319.648 129.864 320.341 130.908 321.102 132.048C321.293 132.344 321.494 132.641 321.695 132.951C321.859 133.252 322.21 133.566 322.128 134.15C322.073 134.437 321.781 134.651 321.526 134.679C321.271 134.715 321.047 134.669 320.833 134.597C320.436 134.442 320.063 134.259 319.712 134.022C318.303 133.078 317.368 131.806 316.329 130.913C315.814 130.457 315.285 130.079 314.738 129.832C314.191 129.586 313.625 129.445 313.119 129.258C312.08 128.934 311.35 128.246 311.145 127.653C310.917 127.051 311.1 126.7 311.113 126.719C311.163 126.719 311.063 127.065 311.318 127.576C311.569 128.091 312.217 128.656 313.229 128.93C313.726 129.089 314.3 129.208 314.902 129.463C315.504 129.714 316.083 130.11 316.625 130.575C317.724 131.492 318.677 132.75 319.98 133.616C320.3 133.835 320.655 134.004 320.993 134.136C321.325 134.259 321.654 134.218 321.672 134.031C321.727 133.831 321.512 133.498 321.312 133.197C321.116 132.887 320.924 132.586 320.733 132.29C320.003 131.132 319.338 130.069 318.75 129.13C318.189 128.228 317.747 127.494 317.446 126.978C317.149 126.463 316.994 126.171 317.022 126.153Z" fill="black"/>
<path d="M323.078 133.657C323.069 133.721 323.758 133.571 324.633 134.077C325.061 134.327 325.472 134.779 325.722 135.38C325.987 135.987 326.11 136.712 326.178 137.487C326.251 138.262 326.32 139.023 326.529 139.698C326.739 140.363 327.063 140.933 327.473 141.298C327.883 141.676 328.385 141.736 328.672 141.667C328.968 141.604 329.101 141.503 329.096 141.494C329.087 141.467 328.932 141.526 328.658 141.549C328.385 141.572 327.975 141.49 327.628 141.138C327.282 140.797 326.994 140.25 326.812 139.62C326.625 138.987 326.57 138.248 326.497 137.464C326.425 136.68 326.292 135.914 325.991 135.271C325.704 134.624 325.226 134.136 324.747 133.89C324.268 133.634 323.826 133.58 323.534 133.584C323.238 133.589 323.083 133.643 323.087 133.662" fill="black"/>
<path d="M333.81 129.436C333.805 129.391 333.204 129.436 332.242 129.514C331.166 129.591 329.885 129.687 328.471 129.792C327.054 129.874 325.772 129.947 324.697 130.011C323.73 130.061 323.133 130.097 323.133 130.143C323.133 130.184 323.735 130.229 324.706 130.234C325.677 130.239 327.022 130.202 328.499 130.106C329.976 130.011 331.312 129.869 332.274 129.737C333.236 129.605 333.824 129.482 333.819 129.441" fill="black"/>
<path d="M321.42 135.545C321.42 135.545 321.489 135.714 321.63 135.992C321.758 136.261 321.972 136.717 321.771 137.196C321.676 137.428 321.452 137.592 321.147 137.643C320.846 137.702 320.499 137.656 320.121 137.633C319.752 137.606 319.282 137.606 318.899 137.898C318.53 138.185 318.338 138.659 318.361 139.138C318.384 139.626 318.648 140.054 318.981 140.337C319.319 140.62 319.711 140.802 320.121 140.848C320.901 140.911 321.575 140.806 322.136 140.688C322.697 140.56 323.134 140.387 323.408 140.209C323.682 140.031 323.782 139.872 323.768 139.867C323.75 139.849 323.622 139.968 323.349 140.104C323.075 140.241 322.642 140.378 322.095 140.474C321.548 140.56 320.873 140.638 320.157 140.56C319.496 140.469 318.721 139.908 318.68 139.124C318.662 138.741 318.822 138.358 319.095 138.139C319.373 137.925 319.752 137.902 320.116 137.921C320.481 137.939 320.855 137.975 321.211 137.898C321.562 137.839 321.89 137.588 321.986 137.282C322.191 136.667 321.904 136.188 321.744 135.933C321.566 135.664 321.443 135.536 321.429 135.545" fill="black"/>
<path d="M319.221 140.19C319.221 140.19 319.052 140.145 318.779 140.263C318.514 140.382 318.145 140.687 318.035 141.23C317.926 141.759 318.14 142.452 318.692 142.917C319.235 143.386 320.028 143.605 320.821 143.555C321.623 143.505 322.353 143.19 322.877 142.752C323.411 142.31 323.734 141.759 323.907 141.28C324.081 140.792 324.113 140.373 324.104 140.09C324.09 139.803 324.049 139.652 324.031 139.652C323.971 139.652 324.076 140.295 323.702 141.198C323.515 141.64 323.196 142.142 322.695 142.529C322.202 142.921 321.528 143.199 320.798 143.245C320.073 143.29 319.353 143.094 318.874 142.698C318.391 142.306 318.186 141.718 318.254 141.266C318.323 140.806 318.619 140.505 318.838 140.373C319.066 140.236 319.225 140.222 319.221 140.195" fill="black"/>
<path d="M313.559 135.103C313.586 135.103 313.622 134.816 313.495 134.351C313.367 133.895 313.039 133.252 312.387 132.774L312.328 133.043C312.656 132.988 313.007 132.91 313.367 132.801C315.364 132.217 316.609 131.018 316.545 130.973C316.49 130.895 315.2 131.944 313.276 132.5C312.929 132.605 312.587 132.682 312.273 132.746L311.922 132.815L312.214 133.015C312.811 133.43 313.148 133.995 313.317 134.406C313.486 134.825 313.518 135.099 313.559 135.099" fill="black"/>
<path d="M327.004 134.41C326.963 134.337 326.416 134.679 326.17 135.386C325.914 136.092 326.124 136.703 326.202 136.676C326.293 136.662 326.243 136.111 326.466 135.495C326.68 134.875 327.063 134.478 327.004 134.41Z" fill="black"/>
<path d="M249.914 278.849L250.776 347.613L265.282 349.669L277.947 263.736L267.744 268.035L249.914 278.849Z" fill="white"/>
<path d="M249.946 278.867C250.534 301.461 250.913 324.963 250.936 347.612L250.799 347.452C255.084 347.99 261.075 349.025 265.301 349.545C267.95 328.774 271.328 306.426 274.392 285.158C275.454 277.996 276.512 270.838 277.619 263.685L278.075 264.041C278.103 264.041 267.713 268.326 267.881 268.262C263.423 270.934 254.428 276.227 249.951 278.867M249.878 278.83C254.296 276.081 263.181 270.528 267.617 267.802C267.635 267.793 277.793 263.439 277.816 263.43L278.353 263.197L278.271 263.781C274.141 292.398 269.906 321.475 265.26 349.782C261.061 349.239 255.011 348.309 250.749 347.771L250.612 347.753V347.612C250.074 324.963 249.846 301.402 249.878 278.826" fill="black"/>
<path d="M267.332 346.258L267.323 347.384C267.323 347.384 286.343 355.28 286.503 358.905L248.562 358.271V345.629C254.161 348.337 260.785 348.752 267.332 346.253" fill="url(#colorOne)"/>
<path d="M248.562 358.275L248.736 355.238L285.035 356.952C285.035 356.952 286.712 357.714 286.503 358.904L248.562 358.27V358.275Z" fill="black"/>
<path d="M229.509 272.006L198.672 328.57L211.861 339.083C211.861 339.083 234.852 305.807 243.154 295.845C251.433 285.911 265.407 270.493 262.234 257.271L229.509 272.011V272.006Z" fill="white"/>
<path d="M229.531 272.033C222.077 286.152 214.309 300.609 206.65 314.61C204.083 319.315 201.475 323.997 198.872 328.683L198.813 328.392C202.086 331.027 208.651 336.37 211.938 338.982C211.017 339.675 226.062 318.699 225.756 318.941C230.457 312.271 235.162 305.601 240.113 299.109C247.517 289.526 256.498 280.686 260.801 269.152C262.155 265.391 262.803 261.274 261.905 257.339L262.365 257.563C253.033 261.734 238.781 267.985 229.531 272.029M229.481 271.978C238.572 267.697 252.873 261.215 262.096 256.966L262.461 256.797C263.573 260.968 262.985 265.409 261.526 269.412C257.241 281.083 248.178 289.95 240.66 299.533C230.689 312.485 221.193 325.829 211.892 339.269C208.473 336.538 201.817 331.337 198.375 328.633C200.942 323.833 203.504 319.032 206.107 314.249C213.716 300.24 221.667 285.865 229.486 271.978" fill="black"/>
<path d="M214.349 337.463L213.692 338.361C213.692 338.361 224.415 355.662 222.45 358.671L192.352 336.291L199.637 326.143C202.573 331.54 207.652 335.698 214.349 337.463Z" fill="url(#colorOne)"/>
<path d="M192.352 336.297L194.239 333.963L222.395 356.266C222.395 356.266 223.303 357.848 222.45 358.677L192.352 336.297Z" fill="black"/>
<path d="M262.4 257.73C262.4 257.73 262.546 258.018 262.687 258.61C262.837 259.198 262.947 260.101 262.915 261.255C262.856 263.571 262.122 266.858 260.781 270.742C260.079 272.693 259.058 274.713 257.813 276.792C256.592 278.898 254.941 280.908 253.318 283.065C250.049 287.391 246.503 292.178 242.782 297.216C235.356 307.269 228.64 316.368 223.739 323.002C221.296 326.248 219.308 328.892 217.899 330.766C217.22 331.641 216.678 332.339 216.281 332.854C215.907 333.328 215.702 333.57 215.688 333.56C215.675 333.551 215.848 333.287 216.194 332.79C216.573 332.261 217.088 331.545 217.731 330.643C219.108 328.746 221.045 326.065 223.434 322.778C228.257 316.145 234.914 306.972 242.349 296.897C246.065 291.864 249.63 287.081 252.922 282.769C254.567 280.603 256.209 278.629 257.431 276.564C258.68 274.517 259.715 272.52 260.421 270.614C261.798 266.766 262.582 263.525 262.701 261.245C262.847 258.957 262.322 257.744 262.395 257.73" fill="black"/>
<path d="M226.508 142.794L227.206 148.867C227.206 148.867 216.533 169.041 216.533 179.868C216.533 190.696 211.609 276.866 211.609 276.866C211.609 276.866 269.509 280.162 275.627 274.513L281.745 268.865L302.457 263.216L270.147 145.311V138.992L226.513 142.794H226.508Z" fill="black"/>
<path d="M266.117 171.998C266.117 171.998 266.145 172.08 266.176 172.235C266.208 172.427 266.245 172.659 266.29 172.942C266.386 173.607 266.514 174.515 266.678 175.664C267.015 178.075 267.494 181.481 268.078 185.671C269.286 194.118 271.082 205.767 273.402 218.577C275.728 231.388 278.135 242.932 279.967 251.266C280.888 255.396 281.641 258.751 282.169 261.127C282.42 262.257 282.616 263.151 282.762 263.812C282.817 264.095 282.867 264.323 282.903 264.514C282.931 264.674 282.944 264.756 282.935 264.756C282.926 264.756 282.899 264.678 282.853 264.528C282.803 264.341 282.739 264.117 282.662 263.839C282.493 263.187 282.261 262.298 281.973 261.181C281.381 258.87 280.569 255.51 279.603 251.352C277.674 243.036 275.203 231.498 272.878 218.678C270.558 205.858 268.816 194.191 267.708 185.73C267.152 181.499 266.733 178.071 266.477 175.695C266.354 174.542 266.259 173.63 266.19 172.96C266.167 172.673 266.145 172.44 266.131 172.249C266.122 172.089 266.117 172.007 266.131 172.003" fill="white"/>
<path d="M224.536 182.794C224.536 182.794 224.637 183.027 224.778 183.478C224.928 183.984 225.124 184.641 225.366 185.461C225.886 187.244 226.615 189.724 227.504 192.756C229.328 198.91 231.977 207.372 235.204 216.618C238.441 225.863 241.655 234.129 244.062 240.078C245.261 243.005 246.237 245.394 246.944 247.113C247.263 247.906 247.523 248.54 247.719 249.028C247.892 249.47 247.974 249.702 247.956 249.711C247.938 249.72 247.824 249.497 247.618 249.073C247.395 248.594 247.108 247.97 246.748 247.195C246 245.563 244.956 243.178 243.707 240.22C241.204 234.302 237.931 226.046 234.689 216.791C231.452 207.536 228.863 199.043 227.13 192.856C226.264 189.765 225.589 187.253 225.156 185.507C224.951 184.677 224.792 184.012 224.664 183.496C224.559 183.036 224.509 182.79 224.527 182.785" fill="white"/>
<path d="M272.109 148.159C272.109 148.196 271.494 148.269 270.372 148.374C269.251 148.478 267.628 148.597 265.622 148.716C261.605 148.957 256.048 149.176 249.907 149.203C243.766 149.226 238.204 149.053 234.187 148.843C232.177 148.738 230.554 148.633 229.432 148.538C228.311 148.447 227.691 148.378 227.695 148.342C227.695 148.305 228.32 148.301 229.446 148.333C230.663 148.369 232.263 148.41 234.206 148.465C238.222 148.579 243.775 148.688 249.907 148.665C256.039 148.638 261.587 148.483 265.603 148.337C267.541 148.269 269.146 148.209 270.363 148.164C271.489 148.127 272.109 148.123 272.114 148.164" fill="url(#colorOne)"/>
<path d="M273.213 117.247C270.865 117.863 268.95 119.011 267.305 120.789C268.203 118.528 270.792 116.978 273.213 117.247Z" fill="black"/>
<path d="M242.464 69.4431C242.186 68.7866 263.002 85.386 265.619 93.4737C268.236 101.561 268.678 124.885 268.678 124.885L270.142 139.862L228.577 142.793L227.46 139.862L224.387 131.519L217.686 120.791C217.686 120.791 211.877 110.105 210.596 103.07C205.869 77.0795 218.889 68.3125 218.889 68.3125L242.455 69.4477L242.464 69.4431Z" fill="url(#colorOne)"/>
<path d="M218.901 69.0754C218.901 69.0754 216.598 64.799 218.016 62.9344C219.147 61.4527 239.156 63.3082 243.241 64.1744C245.639 64.6805 243.195 70.0282 243.195 70.0282L218.901 69.0708V69.0754Z" fill="url(#colorOne)"/>
<path d="M243.246 69.5178C243.25 69.5543 242.913 69.6454 242.293 69.7822C241.673 69.9235 240.77 70.0785 239.649 70.229C237.406 70.5344 234.265 70.7487 230.804 70.5755C227.344 70.3977 224.239 69.8688 222.037 69.34C220.934 69.0756 220.05 68.8339 219.452 68.6333C218.851 68.4373 218.522 68.3096 218.531 68.2777C218.554 68.1957 219.908 68.5422 222.119 68.9707C224.326 69.3993 227.408 69.8643 230.832 70.0375C234.26 70.2062 237.365 70.0558 239.608 69.8506C241.851 69.6454 243.232 69.4357 243.246 69.5223" fill="black"/>
<path d="M240.079 102.625L240.225 101.476C240.225 101.476 246.786 93.4797 244.903 86.1443C244.009 82.6612 241.447 79.8118 239.003 77.7785C234.549 74.072 227.223 74.1951 224.237 79.1644C223.553 80.3042 222.824 82.0549 222.313 83.3861C221.862 84.5532 221.561 85.7704 221.406 87.0105C220.243 96.0784 215.105 137.16 216.728 141.632C218.506 146.528 245.149 152.514 263.937 157.908C264.297 158.528 264.675 159.084 265.049 159.444C266.426 160.762 267.743 159.731 269.439 159.877C271.135 160.023 271.6 160.62 272.07 161.568C272.54 162.517 275.188 169.196 276.583 169.82C277.559 170.258 278.69 169.601 278.489 168.603C278.288 167.6 275.234 158.988 275.234 158.988C275.234 158.988 278.425 163.479 278.858 165.266C279.287 167.053 280.199 170.764 281.831 170.641C282.715 170.573 283.258 170.481 283.203 168.899C283.148 167.254 282.715 164.071 282.337 162.895C281.958 161.723 280.326 158.095 280.326 158.095C280.326 158.095 283.764 162.398 283.914 163.479C284.065 164.559 283.226 165.562 284.051 166.228C284.881 166.893 286.344 166.251 286.809 165.462C287.274 164.673 287.589 161.765 287.347 160.912C287.106 160.059 284.872 156.207 284.872 156.207C284.872 156.207 287.63 158.783 288.072 159.941C288.514 161.099 289.221 165.786 290.078 166.237C290.935 166.688 292.348 166.82 292.357 165.152C292.367 163.483 291.728 159.289 291.514 158.222C291.218 156.745 286.358 151.881 285.41 150.964C284.461 150.048 280.458 150.162 279.483 149.802C278.731 149.524 273.871 148.078 271.705 147.436L236.592 131.429C236.592 131.429 236.646 130.549 236.747 129.035L240.079 102.63V102.625Z" fill="white"/>
<path d="M240.047 102.62C240.047 102.62 240.184 101.466 240.184 101.457C241.183 100.158 242.058 98.7582 242.806 97.2994C245.044 93.0595 246.184 87.6571 243.581 83.3443C241.953 80.5997 239.601 78.0786 236.765 76.5924C233.906 75.1836 230.36 74.9785 227.501 76.4647C225.276 77.5406 224.064 79.7882 223.188 81.9993C222.555 83.4947 222.003 85.0083 221.78 86.6222C221.556 88.1039 221.096 92.3528 220.886 93.9348C220.12 100.445 219.381 106.96 218.684 113.479C217.877 121.622 216.956 129.773 216.824 137.952C216.824 138.96 216.847 139.967 216.983 140.952C217.234 143.56 224.009 145.766 226.27 146.678C238.662 151.027 251.527 153.959 264.128 157.674C264.753 158.778 265.555 160.036 266.987 159.849C269.056 159.493 271.541 159.252 272.407 161.7C273.178 163.473 274.021 165.484 274.919 167.18C275.389 168.019 275.836 168.958 276.57 169.564C277.03 169.851 277.787 169.797 278.133 169.345C278.311 169.131 278.361 168.853 278.284 168.561C278.12 167.937 277.901 167.289 277.696 166.656C276.852 164.107 275.968 161.572 275.079 159.037L274.669 157.866C275.558 159.124 276.483 160.464 277.285 161.777C278.22 163.227 279.027 164.832 279.346 166.551C279.743 167.782 280.354 170.512 281.89 170.494C283.404 170.54 283.066 169.058 283.025 167.996C282.866 166.295 282.683 164.554 282.223 162.908C281.525 160.975 280.623 159.074 279.784 157.191C281.147 158.951 282.569 160.674 283.7 162.607C283.946 163.017 284.138 163.537 284.056 164.02C283.969 164.85 283.422 165.967 284.507 166.291C285.314 166.514 286.34 166.013 286.727 165.288C287.197 164.034 287.315 162.543 287.233 161.221C287.06 160.332 286.485 159.548 286.089 158.737C285.455 157.565 284.689 156.279 284.015 155.117C285.004 156.047 286.121 157.073 287.023 158.089C287.671 158.809 288.332 159.607 288.51 160.592L289.18 163.359C289.421 164.203 289.622 165.215 290.11 165.912C290.169 165.994 290.424 166.104 290.616 166.163C292.061 166.583 292.193 165.525 292.057 164.312C291.906 162.434 291.623 160.556 291.304 158.7C291.236 158.208 291.104 157.893 290.835 157.496C289.8 155.956 288.473 154.565 287.192 153.206C286.54 152.523 285.875 151.848 285.2 151.191C284.566 150.699 283.504 150.626 282.683 150.512C281.311 150.371 279.72 150.311 278.407 149.805L277.048 149.395L271.614 147.74C271.614 147.74 271.582 147.731 271.568 147.722C262.824 143.724 245.226 135.645 236.496 131.62L236.355 131.556V131.396C236.605 127.17 237.608 121.243 238.11 116.99L240.038 102.611C240.239 102.451 238.361 117.04 238.411 117.022C237.959 121.303 237.034 127.202 236.82 131.424L236.687 131.2C245.386 135.125 263.294 143.218 271.801 147.093C273.62 147.626 278.179 149.067 279.948 149.55C281.311 149.764 282.806 149.774 284.197 150.084C284.676 150.207 285.177 150.311 285.647 150.717C286.33 151.387 286.996 152.067 287.653 152.76C289.102 154.369 290.716 155.878 291.715 157.838C291.961 158.586 291.979 159.256 292.116 160.004C292.316 161.422 292.508 162.84 292.604 164.271C292.64 165.033 292.754 165.963 292.066 166.501C291.592 166.852 290.981 166.806 290.466 166.646C290.215 166.551 289.996 166.51 289.727 166.236C289.385 165.78 289.253 165.32 289.093 164.859C288.788 163.993 288.309 161.627 288.072 160.697C287.912 159.767 287.311 159.06 286.704 158.363C286.084 157.656 285.419 156.981 284.739 156.329L285.045 156.083C285.742 157.31 286.431 158.54 287.064 159.803C287.27 160.241 287.525 160.67 287.571 161.171C287.648 162.147 287.539 163.081 287.384 164.02C287.251 164.978 286.882 166.031 285.893 166.4C285.022 166.879 283.49 166.61 283.54 165.384C283.632 164.417 284.074 163.601 283.458 162.73C282.533 161.125 281.37 159.635 280.226 158.158L280.436 158.03C281.133 159.621 281.858 161.189 282.437 162.831C282.902 164.513 283.098 166.241 283.271 167.969C283.349 169.14 283.618 170.777 281.908 170.754C279.77 170.813 279.118 166.528 278.612 164.96C278.211 163.906 277.605 162.917 277.007 161.942C276.401 160.966 275.758 160.008 275.097 159.074L275.398 158.919C276.301 161.449 277.194 163.984 278.056 166.532C278.266 167.175 278.484 167.8 278.667 168.475C278.772 168.83 278.703 169.291 278.443 169.592C277.582 170.581 276.205 170.152 275.599 169.122C274.085 166.924 273.064 164.312 271.965 161.891C271.692 161.294 271.377 160.729 270.839 160.464C270.31 160.191 269.626 160.104 269.002 160.109C267.716 160.177 266.043 160.82 264.958 159.708C264.406 159.215 264.051 158.623 263.7 158.034L263.864 158.162C251.244 154.565 238.424 151.697 226.006 147.38C223.348 146.318 216.514 144.175 216.19 141.075C216.044 140.045 216.008 138.969 216.017 137.943C216.158 129.728 217.093 121.553 217.913 113.393C218.602 106.869 219.381 100.354 220.211 93.8482C220.653 91.0809 220.886 86.7635 221.752 84.0874C222.887 81.0237 224.118 77.5224 227.259 75.9997C230.287 74.4587 233.975 74.6958 236.961 76.1912C240.599 78.1196 244.447 82.5191 245.172 86.6586C246.134 92.0292 243.426 97.3267 240.262 101.498L240.271 101.475L240.116 102.624L240.043 102.615L240.047 102.62Z" fill="black"/>
<path d="M236.588 131.419C234.24 132.034 232.325 133.183 230.68 134.961C231.578 132.7 234.167 131.15 236.588 131.419Z" fill="black"/>
</g>
</g>
<defs>
<clipPath id="clip0_5018_9610">
<rect width="640" height="360" fill="white"/>
</clipPath>
</defs>
<script type="text/ecmascript" xlink:href="https://dev.w3.org/SVG/modules/ref/master/ref2.js"></script>
</svg>
