<svg width="640" height="360" viewBox="0 0 640 360" fill="none" 
xmlns="http://www.w3.org/2000/svg" 
xmlns:xlink="http://www.w3.org/1999/xlink">
<defs>
<ref id="colorOne" param="c1" default="#242C4F" />
<ref id="colorTwo" param="c2" default="#9296A7"/>
</defs>
<path d="M471.57 14.5449H150.672V268.214H471.57V14.5449Z" fill="white"/>
<path d="M471.348 268.681C471.348 266.912 471.258 167.794 471.127 14.7967L471.348 15.0087C379.594 15.022 269.379 15.0352 150.963 15.0485H150.935L151.198 14.7967C151.184 106.706 151.177 193.435 151.17 268.681L150.935 268.456C341.67 268.589 469.299 268.681 471.348 268.681C469.299 268.681 341.67 268.774 150.935 268.907H150.7V268.681C150.693 193.435 150.679 106.706 150.672 14.7967V14.5449H150.963C269.379 14.5582 379.594 14.5714 471.348 14.5847H471.57V14.7967C471.438 167.794 471.348 266.912 471.348 268.681Z" fill="black"/>
<path d="M472.596 20.0893H149.646C144.854 20.0893 140.969 17.8872 140.969 15.1708V13.9186C140.969 11.2022 144.854 9 149.646 9H472.596C477.388 9 481.273 11.2022 481.273 13.9186V15.1708C481.273 17.8872 477.388 20.0893 472.596 20.0893Z" fill="black"/>
<path d="M317.092 167.002C317.092 167.078 287.338 167.141 250.639 167.141C213.941 167.141 184.18 167.078 184.18 167.002C184.18 166.926 213.927 166.863 250.639 166.863C287.352 166.863 317.092 166.926 317.092 167.002Z" fill="url(#colorTwo)"/>
<path d="M317.092 181.682C317.092 181.758 287.338 181.82 250.639 181.82C213.941 181.82 184.18 181.758 184.18 181.682C184.18 181.605 213.927 181.543 250.639 181.543C287.352 181.543 317.092 181.605 317.092 181.682Z" fill="url(#colorTwo)"/>
<path d="M317.092 196.355C317.092 196.432 287.338 196.494 250.639 196.494C213.941 196.494 184.18 196.432 184.18 196.355C184.18 196.279 213.927 196.217 250.639 196.217C287.352 196.217 317.092 196.279 317.092 196.355Z" fill="url(#colorTwo)"/>
<path d="M317.092 211.033C317.092 211.109 287.338 211.172 250.639 211.172C213.941 211.172 184.18 211.109 184.18 211.033C184.18 210.957 213.927 210.895 250.639 210.895C287.352 210.895 317.092 210.957 317.092 211.033Z" fill="url(#colorTwo)"/>
<path d="M317.092 225.707C317.092 225.783 287.338 225.846 250.639 225.846C213.941 225.846 184.18 225.783 184.18 225.707C184.18 225.631 213.927 225.568 250.639 225.568C287.352 225.568 317.092 225.631 317.092 225.707Z" fill="url(#colorTwo)"/>
<path d="M209.331 220.293H196.086V240.247H209.331V220.293Z" fill="url(#colorOne)"/>
<path d="M231.245 214.334H218V240.248H231.245V214.334Z" fill="url(#colorOne)"/>
<path d="M253.94 206.799H240.695V240.247H253.94V206.799Z" fill="url(#colorOne)"/>
<path d="M318.312 240.269C318.312 240.269 318.104 240.276 317.702 240.283C317.293 240.283 316.697 240.289 315.914 240.296C314.334 240.296 312.019 240.31 309.039 240.317C303.064 240.324 294.429 240.338 283.762 240.352C262.415 240.359 232.931 240.373 200.37 240.387C194.722 240.387 189.17 240.387 183.889 240.387H183.75V240.269C183.771 215.567 183.785 193.742 183.799 178.085C183.812 170.26 183.826 163.981 183.84 159.656C183.854 157.501 183.861 155.823 183.861 154.687C183.861 154.125 183.868 153.696 183.875 153.398C183.875 153.106 183.889 152.961 183.889 152.961C183.889 152.961 183.896 153.106 183.902 153.398C183.902 153.689 183.902 154.118 183.916 154.687C183.916 155.823 183.93 157.494 183.937 159.656C183.944 163.988 183.958 170.267 183.979 178.085C183.993 193.742 184.006 215.567 184.02 240.269L183.889 240.151C189.17 240.151 194.722 240.151 200.37 240.151C232.931 240.165 262.415 240.179 283.762 240.186C294.429 240.199 303.064 240.213 309.039 240.22C312.019 240.227 314.334 240.241 315.914 240.241C316.697 240.241 317.293 240.248 317.702 240.255C318.104 240.255 318.312 240.269 318.312 240.269Z" fill="black"/>
<path d="M190.461 174.418C190.461 174.494 188.992 174.557 187.176 174.557C185.36 174.557 183.891 174.494 183.891 174.418C183.891 174.342 185.36 174.279 187.176 174.279C188.992 174.279 190.461 174.342 190.461 174.418Z" fill="black"/>
<path d="M190.461 188.377C190.461 188.453 188.992 188.516 187.176 188.516C185.36 188.516 183.891 188.453 183.891 188.377C183.891 188.301 185.36 188.238 187.176 188.238C188.992 188.238 190.461 188.301 190.461 188.377Z" fill="black"/>
<path d="M190.461 202.344C190.461 202.42 188.992 202.482 187.176 202.482C185.36 202.482 183.891 202.42 183.891 202.344C183.891 202.267 185.36 202.205 187.176 202.205C188.992 202.205 190.461 202.267 190.461 202.344Z" fill="black"/>
<path d="M190.461 216.303C190.461 216.379 188.992 216.441 187.176 216.441C185.36 216.441 183.891 216.379 183.891 216.303C183.891 216.226 185.36 216.164 187.176 216.164C188.992 216.164 190.461 216.226 190.461 216.303Z" fill="black"/>
<path d="M367.93 57.0461H269.353C266.712 57.0461 264.57 54.9045 264.57 52.2638V51.044C264.57 48.4033 266.712 46.2617 269.353 46.2617H367.93C370.571 46.2617 372.712 48.4033 372.712 51.044V52.2638C372.712 54.9045 370.571 57.0461 367.93 57.0461Z" fill="url(#colorTwo)"/>
<g opacity="0.41">
<mask id="mask0_5018_9014" style="mask-type:luminance" maskUnits="userSpaceOnUse" x="389" y="67" width="69" height="68">
<path d="M457.234 67.375H389.609V134.999H457.234V67.375Z" fill="white"/>
</mask>
<g mask="url(#mask0_5018_9014)">
<path d="M423.418 67.375C404.746 67.375 389.609 82.5119 389.609 101.184C389.609 119.855 404.746 134.992 423.418 134.992C442.09 134.992 457.227 119.855 457.227 101.184C457.227 82.5119 442.09 67.375 423.418 67.375ZM423.931 121.449C412.46 121.449 403.159 112.148 403.159 100.678C403.159 89.2071 412.46 79.9059 423.931 79.9059C435.401 79.9059 444.703 89.2071 444.703 100.678C444.703 112.148 435.401 121.449 423.931 121.449Z" fill="url(#colorTwo)"/>
<path d="M423.938 67.3887C423.938 70.9858 423.938 75.8374 423.938 79.9058C435.408 79.9058 444.702 89.2069 444.702 100.677C444.702 102.875 444.363 104.988 443.725 106.978L455.979 110.304C456.79 107.407 457.233 104.351 457.233 101.19C457.233 82.692 442.374 67.6659 423.938 67.3887Z" fill="url(#colorOne)"/>
<path d="M403.159 100.677C403.159 92.2218 408.219 84.9514 415.468 81.7078L410.27 70.0293C398.127 75.1581 389.609 87.1762 389.609 101.19C389.609 101.669 389.623 102.14 389.644 102.611H403.249C403.194 101.974 403.159 101.336 403.159 100.684" fill="url(#colorTwo)"/>
<path d="M423.931 121.45C422.42 121.45 420.951 121.284 419.537 120.979C419.017 123.994 418.026 129.829 417.25 134.432C419.253 134.799 421.311 135 423.418 135C438.937 135 452.001 124.548 455.98 110.298L443.726 106.979C441.057 115.372 433.205 121.45 423.931 121.45Z" fill="url(#colorOne)"/>
<path d="M423.931 121.45C422.42 121.45 420.951 121.284 419.537 120.979C419.017 123.994 418.026 129.829 417.25 134.432C419.253 134.799 421.311 135 423.418 135C438.937 135 452.001 124.548 455.98 110.298L443.726 106.979C441.057 115.372 433.205 121.45 423.931 121.45Z" fill="url(#colorOne)"/>
</g>
</g>
<path d="M187.422 81.3652H369.682" stroke="url(#colorTwo)" stroke-width="0.59" stroke-miterlimit="10"/>
<path d="M186.68 95.3633H368.933" stroke="url(#colorTwo)" stroke-width="0.59" stroke-miterlimit="10"/>
<path d="M185.93 109.359H368.19" stroke="url(#colorTwo)" stroke-width="0.59" stroke-miterlimit="10"/>
<path d="M187.422 109.359H369.682" stroke="url(#colorTwo)" stroke-width="0.59" stroke-miterlimit="10"/>
<path d="M186.68 123.352H368.933" stroke="url(#colorTwo)" stroke-width="0.59" stroke-miterlimit="10"/>
<path d="M185.93 137.346H368.19" stroke="url(#colorTwo)" stroke-width="0.59" stroke-miterlimit="10"/>
<path d="M279.027 197.609H265.789V240.248H279.027V197.609Z" fill="url(#colorOne)"/>
<path d="M304.035 183.525H290.797V240.247H304.035V183.525Z" fill="url(#colorTwo)"/>
<path d="M414.898 97.7647C414.898 95.3181 416.389 93.7656 418.502 93.7656C420.616 93.7656 422.086 95.2973 422.086 97.7647C422.086 100.232 420.616 101.764 418.502 101.764C416.389 101.764 414.898 100.211 414.898 97.7647ZM420.013 97.7647C420.013 96.2122 419.41 95.4637 418.502 95.4637C417.595 95.4637 416.992 96.233 416.992 97.7647C416.992 99.2964 417.615 100.066 418.502 100.066C419.39 100.066 420.013 99.3172 420.013 97.7647ZM427.145 93.932H429.613L419.708 108.438H417.241L427.145 93.932ZM424.761 104.605C424.761 102.159 426.251 100.606 428.344 100.606C430.437 100.606 431.948 102.159 431.948 104.605C431.948 107.052 430.458 108.605 428.344 108.605C426.23 108.605 424.761 107.052 424.761 104.605ZM429.855 104.605C429.855 103.074 429.252 102.304 428.344 102.304C427.436 102.304 426.833 103.053 426.833 104.605C426.833 106.158 427.457 106.906 428.344 106.906C429.231 106.906 429.855 106.137 429.855 104.605Z" fill="url(#colorTwo)"/>
<path d="M215.952 179C217.74 182.521 221.413 178.113 226.785 175.389C232.156 172.665 234.575 168.936 234.013 165.027C233.106 158.686 227.644 163.184 222.273 165.908C216.901 168.631 214.164 175.479 215.952 179Z" fill="url(#colorOne)"/>
<path d="M221.098 177.039C218.644 177.039 216.697 176.346 216.177 176.138L216.343 155.858C216.343 155.858 216.059 155.803 216.018 155.789L213.758 150.965C213.73 150.924 212.767 149.461 212.275 147.749C211.651 145.573 211.318 143.771 210.965 141.872C210.688 140.375 210.397 138.822 209.953 137.041C209.669 135.904 209.794 134.983 210.32 134.31C211.318 133.028 213.488 132.993 213.73 132.993H214.361L213.911 132.591C213.911 132.591 213.058 131.829 213.758 129.882C214.465 127.92 216.26 127.885 216.336 127.885H216.759L216.524 127.532C216.496 127.49 215.782 126.368 217.217 124.774C217.716 124.219 218.339 123.935 219.081 123.935C220.003 123.935 220.779 124.378 220.786 124.385L221.25 124.656L220.481 121.599C219.157 116.235 218.922 112.963 219.781 111.861C220.01 111.57 220.315 111.432 220.717 111.432C221.008 111.432 221.361 111.508 221.756 111.66C222.671 112.007 224.563 117.413 226.234 122.181C228.708 129.251 230.295 133.555 231.466 133.631H231.55C233.206 133.631 234.634 130.491 235.93 127.095C236.103 126.645 236.235 126.298 236.304 126.167C236.547 125.702 237.434 124.184 238.473 124.184C238.841 124.184 239.201 124.378 239.555 124.76C241.045 126.368 238.889 135.08 235.105 142.69C234.8 143.314 234.544 143.854 234.315 144.353C233.539 146.037 233.067 147.049 231.695 148.11L231.605 148.179L231.55 158.735L233.324 167.682C233.054 168.327 230.6 173.955 225.79 176.076C224.355 176.706 222.775 177.032 221.098 177.032" fill="white"/>
<path d="M220.707 111.675C220.971 111.675 221.296 111.744 221.664 111.89C222.495 112.23 224.526 118.038 226.009 122.272C228.809 130.271 230.168 133.791 231.443 133.875C231.478 133.875 231.505 133.875 231.54 133.875C233.335 133.875 234.805 130.666 236.128 127.193C236.288 126.77 236.426 126.403 236.489 126.285C236.967 125.384 237.729 124.421 238.457 124.421C238.755 124.421 239.067 124.587 239.372 124.927C240.786 126.445 238.561 135.198 234.888 142.601C234.576 143.224 234.319 143.779 234.098 144.264C233.307 145.969 232.871 146.911 231.54 147.937L231.367 148.069V148.291L231.311 158.736V158.784L231.318 158.833L233.079 167.669C232.711 168.529 230.293 173.852 225.69 175.882C224.283 176.499 222.738 176.818 221.088 176.818C218.864 176.818 217.055 176.236 216.389 175.993L216.556 156.06V155.686L216.195 155.61H216.167L213.957 150.883L213.943 150.855L213.922 150.827C213.922 150.827 212.965 149.379 212.487 147.702C211.87 145.532 211.531 143.737 211.177 141.845C210.9 140.341 210.609 138.789 210.165 137C209.902 135.933 210.006 135.081 210.491 134.464C211.42 133.272 213.478 133.237 213.749 133.237L214.948 133.251L214.054 132.44C214.054 132.44 213.326 131.754 213.963 129.973C214.615 128.164 216.265 128.129 216.327 128.129H217.145L216.701 127.429C216.673 127.387 216.064 126.396 217.367 124.948C217.817 124.442 218.392 124.185 219.058 124.185C219.917 124.185 220.645 124.601 220.652 124.601L221.58 125.142L221.317 124.095L220.679 121.565C219.37 116.27 219.12 113.061 219.938 112.022C220.118 111.786 220.361 111.675 220.693 111.675M220.707 111.225C218.787 111.225 218.372 114.045 220.257 121.669L220.901 124.206C220.901 124.206 220.083 123.728 219.085 123.728C218.427 123.728 217.685 123.936 217.055 124.636C215.474 126.389 216.348 127.671 216.348 127.671C216.348 127.671 214.331 127.671 213.555 129.813C212.778 131.955 213.769 132.773 213.769 132.773C213.769 132.773 213.756 132.773 213.735 132.773C213.277 132.773 208.689 132.877 209.743 137.097C210.741 141.103 210.942 143.876 212.071 147.819C212.577 149.594 213.568 151.07 213.568 151.07L215.876 155.998C215.953 156.012 216.043 156.026 216.126 156.046L215.96 176.291C215.96 176.291 218.171 177.262 221.109 177.262C222.579 177.262 224.235 177.019 225.891 176.291C231.117 173.99 233.564 167.711 233.564 167.711L231.776 158.736L231.831 148.291C233.654 146.884 233.924 145.574 235.304 142.795C238.817 135.711 241.396 126.431 239.712 124.615C239.282 124.151 238.859 123.97 238.464 123.97C237.32 123.97 236.399 125.502 236.094 126.077C235.692 126.847 233.668 133.424 231.54 133.424C231.519 133.424 231.499 133.424 231.471 133.424C229.322 133.285 223.923 112.264 221.823 111.467C221.407 111.308 221.033 111.225 220.707 111.225Z" fill="black"/>
<path d="M299.391 120.074C299.661 116.906 299.848 109.976 299.848 109.976C308.047 105.665 327.003 94.3812 335.119 90.0078L333.878 116.99C328.625 123.241 323.378 129.5 318.125 135.751" fill="white"/>
<path d="M299.391 120.074C299.661 116.906 299.848 109.976 299.848 109.976C308.047 105.665 327.003 94.3812 335.119 90.0078L333.878 116.99C328.625 123.241 323.378 129.5 318.125 135.751" stroke="black" stroke-width="1.08" stroke-miterlimit="10"/>
<path d="M303.741 110.103C299.458 110.103 295.001 108.03 291.827 104.565C289.096 101.592 287.689 98.0084 287.974 94.7371L289.096 63.1602C289.685 56.2917 295.563 50.8926 302.466 50.8926C302.854 50.8926 303.249 50.9064 303.637 50.9411L324.471 52.7362C331.853 53.3738 337.342 59.8957 336.704 67.2771L335.803 77.7634L336.489 77.202C337.085 76.7169 337.785 76.4604 338.52 76.4604C338.624 76.4604 338.728 76.4604 338.832 76.4743C342.173 76.807 343.795 79.0041 343.649 83.017C343.434 88.9567 339.428 89.8439 337.065 89.8439C336.205 89.8439 335.533 89.7261 335.207 89.6567L335.152 89.6429L332.456 89.83L332.428 90.1488C331.797 97.4747 308.517 110.075 303.817 110.096H303.755L303.741 110.103Z" fill="white"/>
<path d="M302.474 51.2721C302.848 51.2721 303.23 51.286 303.611 51.3207L324.445 53.1157C327.917 53.4138 331.071 55.0495 333.316 57.7178C335.562 60.3862 336.636 63.7685 336.331 67.2477L335.506 76.847L335.354 78.6212L336.733 77.4915C337.26 77.0618 337.877 76.8331 338.528 76.8331C338.618 76.8331 338.708 76.8331 338.799 76.847C341.904 77.1519 343.408 79.2242 343.276 83.0015C343.082 88.3452 339.79 89.468 337.066 89.468C336.234 89.468 335.597 89.3571 335.285 89.2878L335.181 89.267H335.077L332.755 89.4333L332.11 89.4749L332.055 90.1126C331.798 93.0998 327.099 97.7434 319.482 102.526C312.655 106.816 305.87 109.706 303.819 109.713H303.756C299.577 109.713 295.224 107.689 292.119 104.3C289.458 101.403 288.093 97.9236 288.363 94.7562V94.7354V94.7146L289.479 63.1724C290.061 56.4841 295.772 51.2513 302.474 51.2513M302.474 50.5167C295.384 50.5167 289.347 55.9505 288.73 63.1447L287.607 94.7008C286.956 102.283 294.989 110.468 303.749 110.468C303.77 110.468 303.798 110.468 303.819 110.468C308.656 110.448 332.152 97.7781 332.803 90.1819L335.125 90.0225C335.597 90.1264 336.283 90.2165 337.059 90.2165C339.817 90.2165 343.803 89.0591 344.018 83.0223C344.205 77.7895 341.398 76.341 338.868 76.0915C338.75 76.0776 338.639 76.0776 338.521 76.0776C337.669 76.0776 336.879 76.3895 336.255 76.9024L337.08 67.3032C337.731 59.7 332.103 53.0118 324.507 52.3603L303.673 50.5652C303.271 50.5305 302.869 50.5098 302.474 50.5098" fill="black"/>
<path d="M289.091 64.3298C288.862 66.215 287.74 58.4594 289.992 49.8859C293.069 38.1867 313.016 35.4421 327.183 38.4639C331.196 39.3164 342.14 45.1175 344.621 53.5038C346.513 59.901 345.522 71.1081 342.722 74.3171C341.696 75.4954 340.816 76.5766 339.326 77.0825C336.886 76.4033 334.356 79.0509 334.218 81.9549C334.107 84.2629 334.017 85.7877 333.081 85.85C331.258 85.9679 329.366 79.7994 328.535 62.7911C328.25 57.0039 323.787 53.8226 320.689 53.0464C317.078 52.1454 308.497 56.6573 304.436 57.5584C300.375 58.4594 297.055 57.3851 294.248 54.5504C294.248 54.5504 289.854 57.9395 289.084 64.3298" fill="black"/>
<path d="M336.995 86.1202C337.036 86.0925 337.154 86.2381 337.418 86.3767C337.681 86.5084 338.131 86.6123 338.624 86.446C339.615 86.1202 340.495 84.5954 340.606 82.9251C340.661 82.0795 340.509 81.2686 340.238 80.5963C339.982 79.9102 339.559 79.4181 339.067 79.3141C338.582 79.1825 338.222 79.4666 338.097 79.7231C337.965 79.9795 338.014 80.1666 337.965 80.1805C337.937 80.2013 337.771 80.0211 337.861 79.6399C337.91 79.4597 338.021 79.2448 338.249 79.0716C338.478 78.8983 338.811 78.8151 339.15 78.8706C339.864 78.9468 340.488 79.626 340.786 80.3676C341.126 81.1162 341.313 82.0241 341.25 82.9736C341.126 84.838 340.107 86.5569 338.748 86.8965C338.09 87.042 337.556 86.8272 337.279 86.5984C337.002 86.3559 336.96 86.1479 336.995 86.1341" fill="black"/>
<path d="M308.243 67.0053C308.444 67.5667 311.077 67.6013 314.113 68.2182C317.163 68.7865 319.561 69.736 320.018 69.3063C320.226 69.0984 319.852 68.5509 318.909 67.9202C317.974 67.2964 316.449 66.631 314.626 66.2706C312.803 65.9171 311.091 65.9449 309.941 66.1667C308.776 66.3815 308.167 66.735 308.25 67.0053" fill="black"/>
<path d="M288.336 65.1872C288.599 65.7209 291.219 65.4506 294.31 65.707C297.408 65.9219 299.896 66.5803 300.305 66.0952C300.485 65.8665 300.049 65.3605 299.037 64.8476C298.039 64.3347 296.445 63.8565 294.587 63.711C292.737 63.5723 291.039 63.801 289.916 64.1545C288.786 64.508 288.218 64.9308 288.336 65.1803" fill="black"/>
<path d="M301.065 68.4386C300.988 71.3703 300.178 74.2674 298.861 76.8803C297.807 78.9319 296.262 81.0042 299.873 81.0527C300.593 81.0804 301.314 81.0111 302.042 80.9487C301.335 81.1289 300.614 81.2537 299.88 81.3091C295.894 81.4477 297.121 79.0428 298.396 76.6447C299.748 74.0733 300.573 71.2941 301.065 68.4316" fill="black"/>
<path d="M357.764 249.598C357.764 249.598 361.596 264.451 360.21 282.547C359.67 289.547 348.55 344.107 348.55 344.107H317.014L312.163 309.106L309.55 309.674C309.55 309.674 304.573 331.534 303.153 344.107H261.914L266.679 272.927L270.754 242.598L357.764 249.591V249.598Z" fill="black"/>
<path d="M367.606 126.576C368.389 126.576 379.561 131.047 382.507 142.025C385.446 153.01 393.485 193.223 393.485 193.223L402.003 205.019C402.003 205.019 399.245 226.581 383.56 222.485C383.56 222.485 373.095 224.315 369.761 213.704C366.427 203.093 359.961 171.446 359.961 171.446L367.606 126.583V126.576Z" fill="url(#colorTwo)"/>
<path d="M334.986 108.168L340.905 117.13L367.616 126.576L359.972 204.021L362.827 244.615C363.208 250.015 358.849 254.561 353.436 254.416L269.496 251.934C267.396 251.879 266.412 249.217 266.066 246.348C265.754 243.777 266.024 241.164 266.738 238.669L271.16 223.137C270.501 232.798 273.398 165.514 273.509 163.06L267.043 128.434L295.404 118.952L298.564 112.181L314.817 120.311L334.979 108.168H334.986Z" fill="url(#colorTwo)"/>
<path d="M270.128 127.539C265.616 128.44 263.807 129.799 259.905 137.901C258.075 141.699 239.874 184.878 239.874 184.878L233.103 162.304C235.466 170.42 229.34 176.187 224.072 176.748C219.588 177.226 217.751 177.199 215.949 176.298C215.138 175.896 213.69 185.779 215.54 193.119C217.398 203.841 220.898 214.23 227.233 217.834C239.909 225.042 245.509 223.476 251.692 216.184C257.541 209.281 274.667 184.448 274.667 184.448V154.07C274.667 154.07 271.895 127.193 270.121 127.546" fill="url(#colorTwo)"/>
<path d="M240.297 184.656C240.297 184.802 241.628 184.691 243.596 185.322C245.558 185.925 248.087 187.429 250.118 189.841C252.149 192.26 253.396 194.907 254.27 196.806C255.136 198.719 255.642 199.932 255.76 199.89C255.857 199.856 255.538 198.58 254.803 196.591C254.055 194.616 252.87 191.858 250.742 189.321C248.607 186.784 245.863 185.259 243.756 184.774C241.628 184.254 240.276 184.587 240.297 184.663" fill="black"/>
<path d="M388.23 196.072L402.75 184.019C403.096 182.217 403.887 180.263 405.508 178.502C410.041 173.588 414.401 171.544 416.993 169.998C419.585 168.453 424.721 163.033 425.857 164.065C427.001 165.098 427.639 166.775 426.439 169.035C425.247 171.294 419.536 173.935 419.744 176.832C419.89 178.932 422.045 178.821 422.045 178.821C422.045 178.821 432.06 178.301 436.191 177.456C440.322 176.603 444.162 176.957 444.113 178.426C444.065 179.895 443.365 180.776 439.941 181.469C436.517 182.162 430.875 182.605 430.681 183.43C430.487 184.255 431.7 184.622 433.696 184.241C435.692 183.86 445.201 182.744 445.978 183.749C446.754 184.754 446.442 186.466 445.187 186.979L443.046 188.032C443.046 188.032 444.55 189.682 443.593 190.818C442.63 191.955 440.142 191.879 440.142 191.879L427.5 192.995C427.5 192.995 426.869 193.84 427.292 194.318C427.715 194.797 437.494 192.918 437.695 193.993C437.896 195.067 438.818 195.469 435.949 196.536C433.079 197.604 425.663 198.47 422.912 198.068C420.645 197.728 412.619 198.221 409.875 198.401L392.028 215.118C392.028 215.118 387.987 213.358 386.192 208.236C384.369 203.037 388.23 196.065 388.23 196.065" fill="white"/>
<path d="M365.888 147.111C365.833 147.104 365.68 147.687 365.458 148.754C365.23 149.821 364.945 151.374 364.64 153.294C364.017 157.14 363.365 162.484 362.818 168.396C362.27 174.308 361.868 179.666 361.57 183.547C361.438 185.349 361.328 186.881 361.237 188.142C361.168 189.23 361.161 189.833 361.217 189.84C361.272 189.84 361.39 189.251 361.549 188.177C361.716 187.102 361.917 185.536 362.138 183.602C362.589 179.735 363.074 174.384 363.622 168.472C364.169 162.567 364.731 157.23 365.209 153.377C365.431 151.589 365.618 150.064 365.77 148.809C365.902 147.728 365.95 147.125 365.895 147.118" fill="black"/>
<path d="M273.032 144.414C272.976 144.414 272.879 145.142 272.748 146.479C272.609 147.81 272.47 149.744 272.346 152.135C272.082 156.917 271.944 163.522 271.93 170.821V189.499C271.93 191.766 271.93 193.665 271.93 195.162C271.93 196.499 271.964 197.241 272.02 197.241C272.075 197.241 272.151 196.506 272.242 195.169C272.339 193.831 272.422 191.897 272.505 189.506C272.664 184.724 272.727 178.119 272.741 170.821C272.754 163.529 272.803 156.931 272.921 152.156C272.976 149.889 273.025 147.997 273.066 146.5C273.101 145.163 273.094 144.421 273.039 144.421" fill="black"/>
<path d="M377.935 212.892C378.059 212.906 378.267 211.312 378.753 208.782C379.245 206.266 380.049 202.759 381.92 199.349C383.798 195.946 386.536 193.548 388.781 192.39C391.034 191.191 392.67 191.046 392.635 190.893C392.635 190.845 392.219 190.838 391.491 190.942C390.764 191.046 389.724 191.323 388.518 191.878C386.106 192.952 383.167 195.405 381.206 198.961C379.258 202.509 378.538 206.134 378.177 208.699C377.831 211.284 377.824 212.892 377.921 212.906" fill="black"/>
<path d="M374.112 196.862C374.279 197.056 376.649 194.623 380.482 193.341C384.301 192.003 387.662 192.475 387.676 192.225C387.766 192.045 384.266 191.165 380.219 192.579C376.157 193.944 373.925 196.772 374.112 196.862Z" fill="black"/>
<path d="M313.896 252.011C313.896 252.011 313.951 251.554 313.979 250.688C314 249.745 314.035 248.477 314.069 246.883C314.139 243.5 314.229 238.739 314.346 232.896C314.624 221.017 315.005 204.729 315.428 186.744C315.837 168.717 316.086 152.388 316.065 140.564C316.065 134.652 316.003 129.869 315.927 126.57C315.878 124.976 315.844 123.708 315.816 122.765C315.781 121.892 315.746 121.441 315.719 121.441C315.691 121.441 315.67 121.899 315.649 122.772C315.643 123.715 315.629 124.983 315.608 126.577C315.58 129.959 315.539 134.721 315.49 140.564C315.365 152.374 315.026 168.696 314.617 186.723C314.208 204.743 313.861 221.065 313.771 232.889C313.716 238.794 313.716 243.584 313.75 246.883C313.778 248.477 313.799 249.745 313.813 250.688C313.834 251.554 313.861 252.011 313.889 252.011" fill="black"/>
<path d="M388.939 195.56C388.877 195.477 387.782 196.364 386.798 198.325C386.305 199.295 385.827 200.515 385.55 201.95C385.28 203.392 385.273 204.999 385.488 206.649C385.716 208.299 386.132 209.865 386.86 211.161C387.581 212.443 388.53 213.414 389.431 214.051C391.268 215.34 392.488 215.195 392.474 215.119C392.515 214.98 391.4 214.911 389.778 213.594C388.981 212.942 388.149 212.007 387.518 210.801C386.888 209.608 386.506 208.118 386.292 206.538C386.084 204.958 386.077 203.419 386.292 202.075C386.513 200.716 386.922 199.524 387.324 198.561C388.142 196.613 389.036 195.636 388.946 195.553" fill="black"/>
<path d="M215.438 176.263C215.418 176.312 215.723 176.513 216.326 176.776C216.929 177.046 217.844 177.344 219.008 177.524C221.316 177.913 224.809 177.649 227.935 175.681C231.047 173.692 232.766 170.642 233.396 168.39C233.729 167.253 233.847 166.297 233.861 165.638C233.875 164.98 233.826 164.619 233.778 164.619C233.632 164.605 233.632 166.068 232.856 168.209C232.114 170.323 230.409 173.137 227.498 174.995C224.58 176.838 221.309 177.185 219.077 176.956C216.811 176.741 215.487 176.124 215.438 176.263Z" fill="black"/>
<path d="M286.827 180.041C286.8 180.089 287.527 180.512 288.858 181.233C290.189 181.954 292.136 182.959 294.555 184.158C299.4 186.57 306.164 189.737 313.767 192.96C321.371 196.176 328.364 198.83 333.465 200.626C336.015 201.527 338.088 202.227 339.529 202.677C340.971 203.135 341.775 203.356 341.796 203.308C341.817 203.252 341.04 202.927 339.633 202.379C338.088 201.783 336.078 201.014 333.659 200.085C328.613 198.151 321.676 195.421 314.079 192.212C306.49 188.996 299.698 185.911 294.798 183.638C292.448 182.55 290.501 181.642 288.99 180.942C287.617 180.311 286.841 179.986 286.82 180.034" fill="black"/>
<path d="M216.345 127.671C216.297 127.748 217.399 128.302 218.473 129.924C219.028 130.707 219.596 131.726 220.441 132.752C220.857 133.244 221.335 133.812 222.056 134.138C222.417 134.297 222.826 134.387 223.255 134.332C223.685 134.283 224.101 134.055 224.385 133.736C224.974 133.091 225.092 132.197 224.988 131.469C224.884 130.721 224.655 130.083 224.441 129.46C223.997 128.226 223.442 127.172 222.881 126.355C222.32 125.53 221.765 124.948 221.356 124.58C220.947 124.213 220.684 124.053 220.656 124.081C220.58 124.157 221.53 124.934 222.535 126.583C223.034 127.401 223.533 128.434 223.935 129.64C224.129 130.243 224.343 130.887 224.42 131.539C224.503 132.183 224.392 132.869 223.955 133.341C223.539 133.826 222.86 133.868 222.292 133.611C221.724 133.362 221.273 132.876 220.857 132.398C220.039 131.442 219.43 130.444 218.813 129.674C218.21 128.891 217.607 128.337 217.135 128.032C216.664 127.727 216.366 127.644 216.352 127.671" fill="black"/>
<path d="M230.196 135.233C230.175 135.17 229.42 135.309 228.29 135.815C227.16 136.314 225.677 137.229 224.333 138.566C222.988 139.911 222.073 141.387 221.567 142.517C221.061 143.647 220.916 144.402 220.985 144.423C221.158 144.506 222.115 141.567 224.748 138.982C227.341 136.355 230.279 135.406 230.203 135.233" fill="black"/>
<path d="M213.759 132.779C213.69 132.821 214.009 133.452 214.688 134.36C215.028 134.81 215.45 135.337 215.991 135.871C216.511 136.404 217.246 136.973 218.153 137.167C219.048 137.382 220.011 137.257 220.69 136.758C221.383 136.266 221.654 135.489 221.674 134.9C221.716 133.639 220.988 133.119 220.974 133.188C220.884 133.237 221.404 133.812 221.265 134.859C221.196 135.365 220.933 135.961 220.385 136.314C219.845 136.682 219.061 136.779 218.292 136.591C217.509 136.418 216.899 135.968 216.365 135.476C215.832 134.99 215.388 134.498 215.014 134.089C214.272 133.265 213.836 132.724 213.766 132.773" fill="black"/>
<path d="M210.367 136.114C210.304 136.169 210.644 136.668 211.247 137.423C211.822 138.151 212.695 139.343 214.255 139.815C215.031 140.029 215.842 139.96 216.473 139.634C217.117 139.323 217.512 138.72 217.623 138.207C217.748 137.687 217.651 137.243 217.512 136.987C217.374 136.723 217.235 136.633 217.214 136.654C217.131 136.689 217.526 137.236 217.228 138.082C217.083 138.491 216.764 138.914 216.244 139.142C215.731 139.378 215.059 139.427 214.421 139.246C213.104 138.865 212.21 137.819 211.552 137.132C210.88 136.453 210.429 136.051 210.374 136.107" fill="black"/>
<path d="M425.562 188.94C425.562 189.161 429.52 189.369 434.392 189.134C439.272 188.905 443.188 188.323 443.167 188.108C443.146 187.879 439.209 188.101 434.358 188.33C429.506 188.565 425.569 188.718 425.569 188.947" fill="black"/>
<path d="M416.578 188.275C416.599 188.358 417.521 188.206 418.637 187.256C419.725 186.348 420.951 184.491 420.868 182.19C420.82 181.067 420.522 180.076 420.321 179.195C420.106 178.315 419.995 177.546 420.023 176.887C420.05 175.557 420.619 174.878 420.515 174.801C420.466 174.711 419.648 175.349 419.454 176.839C419.35 177.56 419.413 178.44 419.593 179.355C419.759 180.27 420.023 181.233 420.064 182.224C420.141 184.213 419.149 185.911 418.248 186.847C417.334 187.81 416.53 188.157 416.585 188.282" fill="black"/>
<path d="M387.983 196.148C387.983 196.218 402.857 183.631 402.6 183.992C403.016 181.739 404.146 179.611 405.775 178.017C407.341 176.368 409.067 174.871 410.917 173.561C413.655 171.523 416.871 170.289 419.435 168.016C421.224 166.609 422.818 164.946 424.904 163.955C425.174 163.864 425.5 163.754 425.826 163.92C426.533 164.481 426.99 165.271 427.143 166.152C427.545 168.612 425.618 170.476 423.843 171.814C422.166 173.263 418.257 175.869 420.565 178.26C420.988 178.579 421.549 178.717 422.076 178.703L425.465 178.489C428.848 178.232 432.237 177.989 435.577 177.428C437.795 176.985 440.11 176.631 442.377 177.026C442.938 177.144 443.534 177.289 443.998 177.747C444.234 177.969 444.31 178.371 444.262 178.655C444.241 179.584 443.596 180.401 442.792 180.769C440.36 181.898 437.088 182.065 434.462 182.536C433.262 182.779 431.925 182.827 430.892 183.437C430.837 183.493 430.844 183.603 430.851 183.68C430.878 183.867 431.072 184.012 431.315 184.096C432.361 184.414 433.505 184.075 434.586 183.929L436.27 183.707C439.091 183.402 441.933 183.049 444.775 183.222C445.371 183.278 446.119 183.361 446.355 184.04C446.895 185.163 446.452 186.695 445.253 187.187C445.315 187.159 443.118 188.24 443.125 188.233L443.187 187.921C444.768 189.716 444.262 191.47 441.864 191.934C441.378 192.004 428.508 193.154 427.51 193.237L427.662 193.154C427.448 193.459 427.26 193.91 427.399 194.145C427.413 194.173 427.427 194.18 427.441 194.208C427.441 194.201 427.413 194.187 427.413 194.187C427.406 194.187 427.461 194.201 427.496 194.201C430.442 194.173 433.325 193.48 436.291 193.466C436.783 193.508 437.636 193.383 437.892 193.951C437.92 194.097 437.975 194.263 438.024 194.409C438.086 194.61 438.19 194.818 438.204 195.109C438.218 195.414 438.031 195.691 437.844 195.843C435.799 197.236 433.214 197.479 430.851 197.895C429.111 198.144 427.364 198.311 425.604 198.373C423.857 198.477 422.118 198.117 420.357 198.165C416.864 198.186 413.364 198.359 409.871 198.567C410.224 198.345 392.322 215.111 392.384 215.083C392.294 215.167 392.156 215.16 392.072 215.076C391.989 214.986 391.996 214.848 392.086 214.765C392.121 214.73 409.767 198.331 409.802 198.297C413.316 198.061 416.823 197.819 420.35 197.798C422.097 197.742 423.83 198.096 425.59 197.985C429.035 197.798 432.583 197.424 435.862 196.356C436.451 196.086 437.657 195.781 437.754 195.116C437.733 194.818 437.511 194.402 437.456 194.062C437.463 194.076 437.463 194.076 437.449 194.062C437.158 193.903 436.652 193.917 436.291 193.91C433.463 193.937 430.636 194.526 427.794 194.644C427.565 194.63 427.309 194.672 427.115 194.492C426.879 194.222 426.886 193.813 426.983 193.542C427.073 193.279 427.205 193.043 427.371 192.821L427.468 192.815L440.11 191.706C442.695 191.733 445.107 190.617 442.716 187.998C442.931 187.908 444.858 186.93 445.1 186.826C446.195 186.397 446.528 184.802 445.807 183.888C445.01 183.458 443.957 183.597 443.063 183.562C440.81 183.603 438.558 183.818 436.312 184.082L434.635 184.303C433.526 184.414 431.01 185.198 430.483 183.756C430.462 183.562 430.469 183.347 430.622 183.201C431.745 182.467 433.152 182.467 434.392 182.203C436.34 181.905 439.181 181.559 441.067 181.06C442.065 180.762 443.278 180.415 443.749 179.41C443.901 178.981 444.095 178.336 443.749 177.976C443.402 177.622 442.834 177.456 442.307 177.352C438.946 176.749 435.598 177.927 432.251 178.197C428.993 178.551 425.375 178.793 422.083 178.981C420.87 179.071 419.629 178.19 419.609 176.922C419.512 175.709 420.33 174.697 421.113 173.873C422.672 172.237 424.738 171.1 426.124 169.333C427.039 167.981 427.344 166.048 426.255 164.71C425.902 164.259 425.604 163.885 424.98 164.19C421.958 165.701 419.754 168.522 416.843 170.255C412.879 172.431 409.053 174.891 405.969 178.232C404.312 179.826 403.307 181.961 402.829 184.158L388.378 196.654C388.247 196.765 388.053 196.751 387.942 196.62C387.831 196.488 387.845 196.287 387.976 196.176" fill="black"/>
<path d="M334.984 108.168C336.849 110.822 339.718 114.669 341.049 116.811C344.916 118.349 348.902 119.583 352.928 120.734C361.904 123.52 375.911 126.195 380.776 135.032C384.464 142.718 385.864 151.153 387.673 159.387C389.516 168.924 391.561 180.782 393.377 190.291C391.131 182.21 389.385 174.004 387.569 165.833C385.683 157.682 384.013 149.455 381.483 141.561C380.471 138.684 379.55 135.767 377.533 133.479C374.095 129.695 369.16 127.692 364.454 125.883C360.552 124.462 356.56 123.201 352.575 121.905C348.562 120.574 344.507 119.257 340.675 117.407C338.776 114.336 336.856 111.273 334.998 108.175" fill="black"/>
<path d="M314.372 121.774C313.616 123.929 312.805 126.064 311.932 128.164C311.475 129.862 309.582 130.922 308.002 129.758L307.274 129.307C302.929 126.604 298.632 123.818 294.508 120.762C299.061 123.132 303.456 125.794 307.794 128.524L308.515 128.982C309.09 129.411 309.79 129.467 310.386 129.058C310.781 128.795 310.969 128.393 311.225 127.845C312.209 125.794 313.263 123.77 314.372 121.767" fill="black"/>
<path d="M317.88 121.412C318.684 123.345 319.952 126.492 320.756 128.384C321.165 129.209 322.177 129.479 322.932 128.89L323.792 128.349L327.23 126.194L341.001 117.6L327.701 126.88L324.374 129.195C323.771 129.569 323.182 130.158 322.427 130.311C321.11 130.609 319.841 129.715 319.377 128.516C319.086 127.94 318.344 126.374 318.046 125.778L316.272 122.125C315.78 121.051 317.395 120.323 317.866 121.412" fill="black"/>
<path d="M139.183 199.946L139.149 193.799C139.412 191.283 137.527 188.774 134.914 188.767C132.155 188.739 126.971 188.719 124.164 188.705C121.62 188.698 119.028 188.684 116.478 188.635C114.191 188.351 111.959 189.509 111.612 191.9L111.245 194.922L110.871 197.978C110.711 199.163 110.143 200.293 109.284 201.118C107.676 202.76 105.236 202.615 103.157 203.114C101.161 203.509 99.1715 203.946 97.2031 204.472C93.2803 205.526 89.3505 206.78 85.8851 208.887C77.7483 213.787 84.991 218.528 90.7644 220.58C100.364 223.976 110.677 224.981 120.796 225.23C128.912 225.355 137.028 224.253 144.915 222.402C148.859 221.474 152.761 220.302 156.42 218.681C158.118 217.883 160.003 216.955 161.209 215.555C161.48 215.222 161.667 214.869 161.708 214.55C161.799 213.988 161.417 213.503 161.001 213.074C157.945 209.296 153.322 207.612 148.672 206.233C146.717 205.63 144.735 205.11 142.759 204.562C140.694 204.063 139.128 202.081 139.176 199.953M139.363 199.946C139.343 201.977 140.854 203.869 142.836 204.299C149.344 206.018 157.19 206.912 161.979 212.172C165.638 215.541 159.955 218.951 157.169 220.254C145.774 225.327 133.167 227.143 120.775 226.928C110.49 226.568 100.107 225.085 90.4941 221.3C84.2771 218.854 77.0482 213.774 85.5801 208.395C89.094 206.184 93.003 204.763 96.9328 203.509C98.9012 202.892 100.897 202.365 102.9 201.887C104.681 201.333 106.858 201.464 108.237 200.057C108.84 199.447 109.228 198.637 109.318 197.791L109.658 194.741L110.018 191.664C110.185 190.472 110.801 189.349 111.682 188.538C112.936 187.291 114.877 186.944 116.533 187.159L118.065 187.235C122.792 187.464 128.662 187.866 133.41 188.129L134.948 188.226C137.111 188.372 139.01 190.125 139.343 192.253C139.481 193.258 139.343 198.831 139.363 199.953" fill="black"/>
<path d="M160.701 283.511L156.141 253.978L172.892 243.506C173.017 244.137 173.35 245.55 173.96 248.129C176.192 257.555 181.417 279.616 181.417 287.891C181.417 297.504 173.087 305.745 171.603 307.138L160.694 283.504L160.701 283.511Z" fill="white"/>
<path d="M172.748 243.874C172.894 244.561 173.192 245.829 173.753 248.185C175.985 257.597 181.204 279.651 181.204 287.899C181.204 297.013 173.621 304.894 171.688 306.765L160.938 283.477L156.398 254.097L172.755 243.874H172.748ZM173.074 243.14L155.906 253.869L160.508 283.602L171.542 307.513C171.542 307.513 181.661 298.621 181.661 287.892C181.661 277.163 173.081 244.055 173.081 243.133" fill="black"/>
<path d="M70.1093 281.827C69.4994 268.478 68.4113 244.214 68.3281 240.457L82.5571 253.064L86.1958 280.337L70.1093 281.827Z" fill="white"/>
<path d="M68.5695 240.968L82.348 253.173L85.9452 280.134L70.33 281.583C69.7409 268.719 68.722 245.986 68.5765 240.968M68.1052 239.949C68.0082 240.892 69.8933 282.068 69.8933 282.068L86.4511 280.536L82.7708 252.945L68.1052 239.949Z" fill="black"/>
<path d="M90.7482 205.43C90.5749 205.52 90.0551 205.679 89.2927 205.943C84.7391 207.495 69.4636 212.693 67.5784 226.049L65.4922 245.039L82.7777 252.948L84.9263 274.1L159.731 275.632L157.894 257.855L183.289 252.268C183.289 252.268 178.5 229.341 169.212 217.073C166.225 213.123 161.852 210.455 156.993 209.484C156.993 209.484 135.431 214.135 119.636 211.875C103.834 209.616 90.7551 205.437 90.7551 205.437" fill="url(#colorTwo)"/>
<path d="M79.2457 229.686C79.3566 229.672 79.6546 231.398 80.0843 234.184C80.5487 237.219 81.1239 240.948 81.7546 245.072C82.4061 249.196 83.0022 252.925 83.4804 255.954C83.917 258.74 84.1596 260.472 84.0487 260.493C83.9448 260.514 83.5081 258.823 82.9259 256.057C82.3437 253.292 81.6299 249.459 80.9645 245.197C80.2992 240.941 79.814 237.067 79.5229 234.26C79.2318 231.453 79.1278 229.706 79.2387 229.693" fill="black"/>
<path d="M159.385 235.514C159.6 235.528 159.364 241.855 158.851 249.646C158.339 257.436 157.749 263.736 157.528 263.722C157.306 263.708 157.548 257.38 158.061 249.59C158.574 241.8 159.163 235.5 159.385 235.514Z" fill="black"/>
<path d="M65.9085 344.453C65.3449 327.988 64.0106 286.764 64.0315 275.711C64.0315 272.714 67.0931 270.293 70.8574 270.293H177.107C180.941 270.293 184.023 272.797 183.933 275.85C183.585 287.329 182.771 327.949 182.27 344.453H85.024H65.9085Z" fill="url(#colorOne)"/>
<g style="mix-blend-mode:multiply" opacity="0.32">
<mask id="mask1_5018_9014" style="mask-type:luminance" maskUnits="userSpaceOnUse" x="68" y="275" width="99" height="78">
<path d="M166.106 275.145H68.1875V352.999H166.106V275.145Z" fill="white"/>
</mask>
<g mask="url(#mask1_5018_9014)">
<path d="M69.5781 276.033C75.8505 280.94 67.7399 323.364 85.871 343.761L73.3955 344.801L69.5781 276.033Z" fill="url(#colorOne)"/>
</g>
</g>
<path d="M151.244 134.061C145.713 128.454 136.197 126.146 129.37 130.194C123.756 129.535 118.031 131.927 113.845 135.642C109.506 139.495 106.609 144.624 104.287 149.857C99.7615 160.045 97.1278 170.913 94.5149 181.711C93.4961 185.939 92.4703 190.173 91.5 194.415L91.8535 193.826C95.7347 193.992 154.668 196.494 154.661 196.376C154.751 190.832 155.139 185.024 156.04 178.786C157.163 171.079 158.937 163.406 158.902 155.623C158.868 147.84 156.788 139.703 151.23 134.061" fill="black"/>
<path d="M156.996 209.485C135.247 215.002 111.668 213.574 90.7578 205.438C112.216 211.745 134.935 213.138 156.996 209.485Z" fill="black"/>
<path d="M513.008 127.735C514.782 126.654 516.764 125.843 518.837 125.711C520.909 125.58 523.078 126.162 524.603 127.583C526.017 128.9 526.745 130.771 527.646 132.476C528.547 134.188 529.801 135.907 531.666 136.42C531.991 136.51 532.359 136.579 532.574 136.835C532.955 137.3 532.539 138.055 531.971 138.235C531.395 138.416 530.785 138.208 530.217 138C531.014 139.213 532.255 140.135 533.648 140.543C533.163 141.902 531.409 142.637 530.092 142.034C530.363 144.328 530.633 146.65 530.328 148.944C530.03 151.231 529.094 153.525 527.32 155.008C525.372 156.644 522.448 157.33 521.394 159.645" fill="black"/>
<path d="M487.252 205.553C496.304 206.378 509.091 207.737 517.976 208.679L517.574 209.047C517.491 201.166 517.422 190.257 517.463 182.501L517.762 182.169C517.976 182.044 518.295 181.697 518.468 181.399C520.014 178.69 520.485 175.508 521.061 172.466C522.197 165.348 523.265 158.209 524.29 151.07L525.808 140.355L525.912 140.577C513.111 133.043 496.456 133.764 484.119 141.887L484.355 141.45C485.415 161.522 486.462 185.461 487.252 205.546M487.19 205.616C485.88 185.537 484.445 161.605 483.412 141.506L483.398 141.214L483.648 141.069C496.269 132.863 513.243 132.322 526.141 140.203L526.266 140.279L526.245 140.424L524.602 151.119C523.667 157.287 522.377 166.262 521.504 172.535C521.088 174.905 520.18 181.912 517.824 182.827L518.122 182.495C518.281 190.382 518.274 201.464 518.302 209.449C509.181 208.478 496.401 206.732 487.19 205.609" fill="black"/>
<path d="M485.678 155.902C485.498 155.791 478.165 152.61 477.438 160.414C476.71 168.211 484.687 167.331 484.722 167.109C484.757 166.888 485.678 155.902 485.678 155.902Z" fill="white"/>
<path d="M485.678 155.902C485.498 155.791 478.165 152.61 477.438 160.414C476.71 168.211 484.687 167.331 484.722 167.109C484.757 166.888 485.678 155.902 485.678 155.902Z" stroke="black" stroke-width="1.3" stroke-miterlimit="10"/>
<path d="M522.375 158.862C522.576 158.8 529.736 157.809 528.516 165.544C527.289 173.278 519.776 170.451 519.797 170.229C519.818 170.007 522.375 158.862 522.375 158.862Z" fill="white"/>
<path d="M522.375 158.862C522.576 158.8 529.736 157.809 528.516 165.544C527.289 173.278 519.776 170.451 519.797 170.229C519.818 170.007 522.375 158.862 522.375 158.862Z" stroke="black" stroke-width="1.3" stroke-miterlimit="10"/>
<path d="M483.277 154.724C483.616 161.377 482.958 164.767 483.491 169.251C484.33 176.341 487.082 182.045 492.841 186.259C498.608 190.473 506.994 191.464 512.906 187.458C517.009 184.679 520.086 181.338 521.251 176.521C522.408 171.704 525.007 162.708 525.659 157.794C526.837 148.937 527.537 140.945 527.537 140.945L502.78 133.176L487.289 139.94L483.283 154.724H483.277Z" fill="black"/>
<path d="M505.164 191.792C505.178 191.979 503.127 192.221 500.673 191.625C498.219 191.05 496.501 189.899 496.598 189.74C496.695 189.553 498.497 190.378 500.839 190.925C503.182 191.493 505.157 191.577 505.164 191.785" fill="black"/>
<path d="M483.117 165.938C483.214 159.173 483.692 151.487 483.533 144.328C483.471 141.638 483.013 137.715 483.582 135.089C484.15 132.448 484.781 133.356 486.257 131.097C488.107 128.262 493.992 126.959 497.367 126.709C500.742 126.46 501.512 123.667 503.757 126.196C505.947 123.667 509.752 122.689 512.885 123.84C516.025 124.99 518.284 128.206 518.312 131.547C520.329 130.057 523.344 130.112 525.305 131.672C527.267 133.231 528.008 136.156 527.017 138.457C528.798 138.991 530.268 140.46 530.801 142.241C531.335 144.023 530.912 146.06 529.713 147.474C528.313 149.138 526.068 149.865 524.564 151.425C522.824 153.22 522.297 156.089 523.295 158.383" fill="black"/>
<path d="M491.516 132.56C493.824 129.774 496.797 127.39 500.304 126.482C503.811 125.574 507.879 126.364 510.319 129.039" fill="black"/>
<path d="M506.16 128.976C506.77 128.096 507.789 127.562 508.849 127.396C509.903 127.229 510.991 127.396 512.01 127.714C514.512 128.491 516.716 130.168 518.137 132.365C518.462 132.864 518.712 133.613 518.254 133.994C518.012 134.195 517.665 134.195 517.347 134.181C513.493 134.021 509.653 133.398 505.945 132.337" fill="black"/>
<path d="M479.707 207.114C479.707 207.114 447.887 215.223 442.585 223.644C437.283 232.065 434.164 251.402 434.164 254.839C434.164 258.277 433.541 297.263 440.09 310.051C446.64 322.838 557.374 319.095 557.374 319.095C557.374 319.095 565.795 314.729 567.978 301.63C570.161 288.53 566.107 244.859 563.924 235.191C561.74 225.522 559.869 228.329 549.577 222.091C539.284 215.854 523.371 209.304 523.371 209.304L517.757 198.7C517.757 198.7 499.98 189.031 485.938 197.14L479.7 207.121L479.707 207.114Z" fill="url(#colorTwo)"/>
<path d="M548.506 247.985C548.728 247.985 548.79 256.462 548.652 266.907C548.513 277.358 548.222 285.828 548 285.821C547.778 285.814 547.716 277.344 547.855 266.893C547.993 256.448 548.284 247.979 548.506 247.979" fill="black"/>
<path d="M450.474 241.643C450.529 241.643 450.529 242.211 450.494 243.23C450.446 244.422 450.384 245.857 450.307 247.527C450.148 251.152 449.995 256.163 450.037 261.694C450.079 267.231 450.307 272.235 450.522 275.86C450.619 277.531 450.702 278.965 450.772 280.15C450.827 281.162 450.827 281.731 450.772 281.738C450.716 281.738 450.612 281.19 450.46 280.185C450.307 279.18 450.134 277.718 449.961 275.902C449.607 272.277 449.288 267.252 449.247 261.7C449.205 256.142 449.448 251.117 449.753 247.492C449.905 245.676 450.051 244.214 450.189 243.202C450.321 242.19 450.418 241.636 450.474 241.643Z" fill="black"/>
<path d="M537.359 225.792C537.359 225.792 537.075 225.806 536.555 225.758C535.945 225.688 535.189 225.605 534.275 225.501C532.181 225.259 529.347 224.933 525.895 224.538C518.819 223.769 509.012 222.916 498.151 222.535C487.29 222.161 477.449 222.334 470.331 222.611C466.858 222.77 464.01 222.902 461.903 222.999C460.981 223.041 460.225 223.069 459.609 223.096C459.082 223.11 458.805 223.103 458.805 223.075C458.805 223.048 459.075 222.999 459.595 222.937C460.205 222.868 460.96 222.791 461.882 222.694C463.864 222.486 466.747 222.265 470.303 222.057C477.421 221.634 487.29 221.377 498.179 221.745C509.06 222.126 518.888 223.062 525.958 223.983C529.492 224.441 532.348 224.864 534.316 225.203C535.224 225.363 535.973 225.501 536.576 225.605C537.088 225.709 537.359 225.772 537.359 225.799" fill="url(#colorOne)"/>
<path d="M521.631 209.048C521.603 209.172 519.26 208.715 515.462 208.153C511.657 207.592 506.383 206.982 500.526 206.753C494.67 206.539 489.354 206.74 485.521 207.017C481.688 207.287 479.318 207.564 479.297 207.44C479.29 207.384 479.872 207.259 480.94 207.072C482 206.878 483.552 206.67 485.472 206.455C489.312 206.04 494.656 205.742 500.554 205.956C506.452 206.185 511.761 206.885 515.552 207.592C517.451 207.946 518.983 208.271 520.023 208.549C521.069 208.812 521.644 208.985 521.631 209.041" fill="black"/>
<path d="M442.955 344.455C442.392 327.99 441.057 286.766 441.078 275.713C441.078 272.716 444.14 270.295 447.904 270.295H554.154C557.988 270.295 561.07 272.799 560.98 275.852C560.632 287.331 559.818 327.951 559.317 344.455H462.071H442.955Z" fill="url(#colorOne)"/>
<g style="mix-blend-mode:multiply" opacity="0.32">
<mask id="mask2_5018_9014" style="mask-type:luminance" maskUnits="userSpaceOnUse" x="445" y="275" width="99" height="78">
<path d="M543.169 275.146H445.25V353.001H543.169V275.146Z" fill="white"/>
</mask>
<g mask="url(#mask2_5018_9014)">
<path d="M446.625 276.035C452.897 280.942 444.787 323.366 462.918 343.763L450.442 344.803L446.625 276.035Z" fill="url(#colorOne)"/>
</g>
</g>
<path d="M43.1241 342L584.98 342.883C586.1 342.883 587 343.61 587 344.507C587 345.397 586.1 346.124 584.98 346.124L43.1241 347C41.4007 347 40 345.886 40 344.507C40 343.121 41.4007 342 43.1241 342.007" fill="black"/>
<script type="text/ecmascript" xlink:href="https://dev.w3.org/SVG/modules/ref/master/ref2.js"></script></svg>
