<svg width="640" height="360" viewBox="0 0 640 360" fill="none" 
xmlns="http://www.w3.org/2000/svg" 
xmlns:xlink="http://www.w3.org/1999/xlink">
<defs>
<ref id="colorOne" param="c1" default="#242C4F" />
<ref id="colorTwo" param="c2" default="#9296A7"/>
</defs>
<path d="M418.703 76.4004H111.203V298.5H418.703V76.4004Z" fill="url(#colorTwo)"/>
<g opacity="0.64">
<path d="M347.904 290.8H193.604C190.004 290.8 187.104 288.1 186.704 284.5L174.104 144.6C172.804 129.3 184.904 116.1 200.304 116.1H301.304C314.904 116.1 326.304 126.5 327.504 140.1L347.904 290.8Z" fill="url(#colorOne)"/>
</g>
<path d="M360.905 164.701L336.505 152.601C336.505 152.601 321.505 144.901 306.305 154.601L352.405 204.701C352.405 204.701 394.905 219.401 402.405 215.601C409.905 211.801 415.805 205.101 418.105 201.301C420.405 197.501 453.605 138.701 453.605 138.701L454.505 137.101C457.205 136.101 465.005 133.101 467.305 132.801C470.205 132.401 477.205 129.201 479.805 127.301C482.305 125.401 481.305 125.201 480.805 124.201C480.305 123.201 471.105 128.101 470.605 127.701C470.005 127.401 470.405 126.301 470.405 126.301L482.605 121.301C482.605 121.301 485.105 120.601 485.705 119.201C486.305 117.801 484.305 116.601 484.305 116.601L486.105 114.901C487.205 114.001 487.005 112.201 485.905 111.501C484.805 110.701 475.705 114.801 473.905 115.801C472.005 116.801 470.705 116.801 470.705 115.901C470.605 115.001 476.105 112.801 479.305 111.101C482.505 109.401 482.905 108.301 482.505 106.801C482.105 105.301 478.205 106.201 474.305 108.301C470.505 110.401 460.705 114.001 460.705 114.001C460.705 114.001 458.605 114.801 457.805 112.701C456.705 109.901 461.605 105.501 462.005 102.901C462.505 100.301 461.305 98.8013 459.905 98.2013C458.405 97.5013 455.005 104.501 452.905 106.801C450.805 109.101 447.105 112.501 444.105 118.801C443.005 121.001 442.805 123.201 443.105 125.101L441.005 128.301L394.205 181.301L360.905 164.701Z" fill="white"/>
<path d="M398.603 216.801C385.703 216.801 353.703 205.801 352.203 205.301L352.003 205.201L351.903 205.101L305.203 154.401L305.903 154.001C313.903 148.901 321.903 148.601 327.203 149.201C332.903 149.901 336.703 151.801 336.803 151.901L393.803 180.201L440.303 127.601L442.203 124.701C442.003 122.401 442.403 120.301 443.303 118.301C445.903 112.901 448.903 109.701 451.103 107.301C451.503 106.901 451.803 106.501 452.203 106.201C452.903 105.401 453.903 104.001 454.803 102.501C457.203 98.8013 458.603 96.7013 460.003 97.4013C462.103 98.4013 463.003 100.401 462.503 102.901C462.303 104.101 461.403 105.401 460.403 106.801C459.103 108.701 457.703 110.901 458.203 112.301C458.703 113.601 460.003 113.301 460.203 113.201C460.303 113.201 470.003 109.601 473.703 107.501C476.503 105.901 480.203 104.701 481.903 105.401C482.503 105.701 482.703 106.101 482.803 106.401C483.403 108.401 482.403 109.701 479.303 111.501C478.203 112.101 476.903 112.701 475.703 113.301C474.103 114.101 471.903 115.101 471.203 115.701C471.503 115.701 472.203 115.601 473.303 115.001C474.203 114.501 477.003 113.201 479.703 112.201C485.103 110.101 485.703 110.601 486.103 110.801C486.803 111.301 487.303 112.201 487.303 113.101C487.303 114.001 487.003 114.801 486.403 115.301L485.203 116.401C486.003 117.101 486.703 118.101 486.203 119.301C485.503 120.901 483.103 121.701 482.703 121.801L470.903 126.701C470.903 126.801 470.903 126.801 470.903 126.901C471.503 126.701 472.903 126.101 474.103 125.601C479.303 123.301 480.803 122.801 481.403 123.801C481.503 123.901 481.603 124.101 481.703 124.201C482.603 125.401 482.203 126.201 480.303 127.701C477.703 129.701 470.503 132.901 467.503 133.401C465.303 133.701 457.703 136.601 455.003 137.601L454.503 138.501L454.303 138.901C454.003 139.501 421.103 197.801 418.803 201.601C416.603 205.301 410.503 212.301 402.803 216.201C401.703 216.601 400.303 216.801 398.603 216.801ZM352.803 204.101C364.703 208.201 396.203 218.001 402.103 215.001C409.603 211.201 415.403 204.501 417.503 200.901C419.603 197.301 449.503 144.301 452.703 138.701L453.003 138.201L454.003 136.401L454.203 136.301C457.303 135.101 464.803 132.301 467.203 131.901C470.003 131.501 476.903 128.401 479.403 126.501C480.603 125.501 480.703 125.201 480.803 125.201C480.803 125.201 480.703 125.001 480.603 124.901C480.503 124.801 480.403 124.701 480.303 124.501C479.403 124.601 476.503 125.901 474.603 126.701C471.203 128.201 470.703 128.401 470.203 128.101C469.403 127.601 469.503 126.601 469.703 125.901L469.803 125.601L482.403 120.501C483.003 120.301 484.703 119.701 485.103 118.801C485.503 118.001 484.003 117.101 484.003 117.001L483.203 116.501L485.703 114.201C486.103 113.801 486.203 113.301 486.203 113.101C486.203 112.601 486.003 112.101 485.603 111.901C484.403 111.701 476.603 114.901 474.203 116.201C473.303 116.701 471.603 117.401 470.603 116.801C470.203 116.601 470.003 116.201 469.903 115.701C469.803 114.701 471.203 114.001 475.303 112.001C476.503 111.401 477.803 110.801 478.903 110.201C482.003 108.501 482.003 107.701 481.803 106.701C481.803 106.701 481.803 106.601 481.603 106.601C480.703 106.201 477.803 106.901 474.603 108.601C470.803 110.701 461.303 114.201 460.903 114.401C460.003 114.701 458.003 114.801 457.203 112.701C456.403 110.701 458.003 108.301 459.503 106.001C460.303 104.701 461.203 103.401 461.403 102.601C461.903 100.201 460.703 99.1013 459.703 98.6013C459.003 98.8013 457.203 101.701 456.103 103.201C455.103 104.701 454.203 106.101 453.403 107.001C453.103 107.401 452.703 107.701 452.303 108.201C450.103 110.501 447.203 113.601 444.703 118.801C443.803 120.701 443.503 122.701 443.703 124.801V125.001L441.503 128.401L394.303 181.801L336.403 153.101C336.403 153.101 332.603 151.201 327.203 150.501C322.303 149.901 315.003 150.201 307.503 154.601L352.803 204.101Z" fill="black"/>
<path d="M318.102 149.902C318.102 149.902 327.002 144.502 341.902 151.502C355.302 157.802 383.802 171.502 383.802 171.502L367.302 214.002L340.102 205.402L318.102 149.902Z" fill="url(#colorOne)"/>
<path d="M467 122.801C467.1 123.001 471.1 122.001 475.8 120.301C480.6 118.601 484.3 116.801 484.2 116.601C484.1 116.401 480.3 117.801 475.5 119.501C470.8 121.201 467 122.601 467 122.801Z" fill="black"/>
<path d="M457.9 124.902C457.9 125.002 458.8 124.502 459.6 123.302C460.4 122.102 461 119.802 460.3 117.602C459.9 116.502 459.3 115.602 458.8 114.802C458.3 114.002 458 113.302 457.8 112.602C457.4 111.302 457.8 110.402 457.6 110.402C457.5 110.302 456.9 111.202 457.2 112.702C457.3 113.402 457.7 114.302 458.1 115.202C458.5 116.102 459.1 116.902 459.4 117.902C460.1 119.902 459.6 121.802 459 123.002C458.5 124.202 457.8 124.802 457.9 124.902Z" fill="black"/>
<path d="M307.004 86C307.504 82.2 308.104 79.4 309.804 75.9C310.704 74 319.504 65.5 320.304 63.5L322.304 66.8C323.304 69.7 324.204 74.3 326.704 75.2C332.404 77.3 331.204 84 330.204 87.9C329.804 89.3 330.304 90.9 331.404 91.9C337.204 97 327.604 106.4 326.404 107C325.404 96.9 320.304 98.5 317.504 97.4C316.204 98.5 316.504 99.2 315.604 101C314.604 103 313.004 104.9 311.904 105.7C309.304 107.6 309.004 104.7 308.204 102.3C306.504 97.4 306.304 91.4 307.004 86Z" fill="black"/>
<path d="M301.805 55.1992L313.105 67.2992L326.505 84.9992C326.505 56.5992 306.905 56.4992 301.805 55.1992Z" fill="black"/>
<path d="M332.808 118.1C331.708 109.6 328.108 92.4003 324.708 76.8003C321.108 60.3003 305.408 49.4003 288.708 51.7003L286.708 52.0003C268.908 55.6003 261.008 69.9003 265.008 87.7003L268.608 103.1C265.108 103.2 259.208 104.7 260.708 113.2C262.308 122.5 269.708 121.7 272.708 120.8L277.908 143.1C277.908 143.1 314.408 192.8 316.208 192.4C317.808 192 321.208 149.5 321.208 149.5C321.208 149.5 317.908 140.6 318.008 140.6C318.008 140.6 335.008 135.5 332.808 118.1Z" fill="white"/>
<path d="M316.205 193.1C315.405 193.1 313.405 191.4 295.905 168.3C286.705 156.1 277.505 143.6 277.405 143.5L277.305 143.4L272.205 121.6C270.405 122 267.105 122.4 264.305 120.7C262.005 119.3 260.605 116.8 260.005 113.3C259.405 109.9 259.905 107.3 261.405 105.4C263.105 103.4 265.605 102.7 267.705 102.5L264.305 87.8997C262.205 78.4997 263.305 69.9997 267.605 63.3997C271.605 57.1997 278.205 53.0997 286.705 51.3997L288.705 51.0997C296.905 49.9997 305.205 51.9997 312.105 56.6997C318.905 61.4997 323.705 68.4997 325.505 76.6997C330.005 96.9997 332.705 111 333.605 118C334.805 127.3 330.505 133.1 326.805 136.3C323.605 139 320.405 140.4 319.005 140.9C319.505 142.4 321.005 146.4 322.005 149.2L322.105 149.3V149.4C322.105 149.5 321.205 160.2 320.205 170.7C318.005 192.6 317.305 192.7 316.505 192.9C316.305 193.1 316.205 193.1 316.205 193.1ZM278.605 142.8C292.005 161.1 312.405 188.2 316.005 191.5C317.205 187.7 319.405 164.3 320.605 149.6C320.405 149.1 319.705 147.2 319.005 145.3C318.605 144.2 318.205 143.1 317.905 142.2C317.305 140.5 317.305 140.5 317.505 140.2L317.605 140L317.905 139.9C317.905 139.9 322.105 138.6 325.905 135.3C331.005 130.9 333.105 125.1 332.205 118.2C331.305 111.3 328.605 96.9997 324.105 76.9997C322.405 69.1997 317.805 62.3997 311.305 57.7997C304.805 53.1997 296.805 51.2997 288.905 52.3997L287.005 52.6997C278.905 54.2997 272.605 58.1997 268.805 64.0997C264.705 70.3997 263.605 78.4997 265.705 87.4997L269.505 103.7H268.705C266.805 103.8 264.105 104.2 262.605 106.2C261.305 107.8 260.905 110 261.405 113C261.905 116.1 263.205 118.3 265.105 119.5C268.005 121.3 271.605 120.4 272.605 120.1L273.305 119.9L278.605 142.8Z" fill="black"/>
<path d="M308.806 104.4C308.806 104.3 310.406 103.7 313.006 103C313.706 102.8 314.306 102.6 314.306 102.1C314.406 101.6 314.006 100.9 313.606 100.1C312.706 98.5001 311.806 96.9001 310.906 95.2001C307.106 88.2001 304.206 82.4001 304.506 82.3001C304.806 82.1001 308.106 87.7001 311.906 94.7001C312.806 96.4001 313.706 98.1001 314.506 99.7001C314.906 100.4 315.406 101.3 315.206 102.3C315.106 102.8 314.606 103.3 314.206 103.4C313.806 103.6 313.406 103.7 313.106 103.7C310.506 104.3 308.806 104.6 308.806 104.4Z" fill="black"/>
<path d="M296.6 82.7996C296.4 83.5996 293.7 83.5996 290.7 84.3996C287.6 85.1996 285.2 86.3996 284.7 85.7996C284.5 85.4996 284.8 84.7996 285.7 83.8996C286.6 83.0996 288.1 82.1996 290 81.6996C291.8 81.1996 293.6 81.2996 294.8 81.5996C296 81.9996 296.6 82.3996 296.6 82.7996Z" fill="black"/>
<g opacity="0.6">
<path d="M296.6 82.7996C296.4 83.5996 293.7 83.5996 290.7 84.3996C287.6 85.1996 285.2 86.3996 284.7 85.7996C284.5 85.4996 284.8 84.7996 285.7 83.8996C286.6 83.0996 288.1 82.1996 290 81.6996C291.8 81.1996 293.6 81.2996 294.8 81.5996C296 81.9996 296.6 82.3996 296.6 82.7996Z" fill="black"/>
</g>
<path d="M322.001 77.6995C321.601 78.3995 319.301 78.1995 316.801 78.7995C314.201 79.1995 312.201 80.1995 311.601 79.6995C311.301 79.3995 311.501 78.7995 312.301 77.9995C313.101 77.1995 314.501 76.3995 316.301 76.0995C318.101 75.7995 319.701 75.9995 320.701 76.3995C321.701 76.7995 322.101 77.3995 322.001 77.6995Z" fill="black"/>
<g opacity="0.6">
<path d="M322.001 77.6995C321.601 78.3995 319.301 78.1995 316.801 78.7995C314.201 79.1995 312.201 80.1995 311.601 79.6995C311.301 79.3995 311.501 78.7995 312.301 77.9995C313.101 77.1995 314.501 76.3995 316.301 76.0995C318.101 75.7995 319.701 75.9995 320.701 76.3995C321.701 76.7995 322.101 77.3995 322.001 77.6995Z" fill="black"/>
</g>
<path d="M269.502 116.399C269.402 116.399 269.302 116.599 269.002 116.799C268.702 116.999 268.102 117.199 267.502 117.099C266.202 116.899 264.802 115.099 264.402 112.899C264.202 111.799 264.202 110.799 264.502 109.899C264.702 108.999 265.202 108.299 265.802 108.099C266.402 107.799 266.902 108.199 267.102 108.499C267.302 108.799 267.302 109.099 267.302 109.099C267.302 109.099 267.502 108.899 267.302 108.399C267.202 108.199 267.002 107.899 266.702 107.699C266.402 107.499 265.902 107.499 265.502 107.599C264.602 107.799 263.902 108.799 263.702 109.799C263.402 110.799 263.302 111.999 263.502 113.199C264.002 115.599 265.602 117.599 267.402 117.799C268.302 117.899 268.902 117.499 269.202 117.199C269.602 116.699 269.602 116.399 269.502 116.399Z" fill="black"/>
<path d="M331.307 112.699C331.207 112.699 331.207 112.799 331.107 112.799C330.407 113.299 329.707 113.099 328.807 112.799C326.207 109.699 321.007 109.399 315.807 110.299C310.407 111.199 306.907 113.199 305.007 115.999C304.007 116.999 303.507 118.599 303.307 119.899C302.007 120.899 300.707 121.599 299.207 121.599C291.707 121.799 286.107 116.299 279.707 113.199C276.607 111.699 280.307 124.899 281.607 128.699C281.607 128.699 283.707 133.599 286.107 135.999C288.507 138.499 290.007 139.899 292.507 140.599C303.307 144.799 322.407 142.299 329.307 134.299C333.807 129.099 333.307 120.699 331.307 112.699Z" fill="black"/>
<path d="M310.703 121.298C310.703 121.298 315.803 121.198 320.903 118.398C320.903 118.398 321.303 121.398 317.003 122.598C312.203 123.998 310.703 121.298 310.703 121.298Z" fill="white"/>
<path d="M278.904 91.5C278.404 87.7 277.804 84.9 276.104 81.4C275.204 79.5 266.404 71 265.604 69L263.604 72.3C262.604 75.2 261.704 79.8 259.204 80.7C253.504 82.8 254.704 89.5 255.704 93.4C256.104 94.8 255.604 96.4 254.504 97.4C248.704 102.5 258.304 111.9 259.504 112.5C260.504 102.4 265.604 104 268.404 102.9C269.704 104 269.404 104.7 270.304 106.5C271.304 108.5 272.904 110.4 274.004 111.2C276.604 113.1 276.904 110.2 277.704 107.8C279.404 102.8 279.704 96.8 278.904 91.5Z" fill="black"/>
<path d="M303.202 102.8C300.702 103.3 298.102 104 295.602 104.6C294.302 104.9 292.802 105.4 291.502 104.9C289.902 104.4 288.602 103.1 288.202 101.5C288.002 100.6 287.802 98.9999 287.602 98.0999C287.302 96.4999 287.102 94.8999 286.802 93.2999C286.802 93.1999 286.802 92.8999 286.802 92.7999C286.702 90.5999 288.202 88.2999 290.502 87.7999C292.702 87.1999 295.802 86.3999 298.102 85.8999C298.702 85.7999 299.402 85.5999 300.002 85.4999C302.202 85.0999 304.602 86.3999 305.502 88.4999C305.802 89.0999 305.902 89.8999 306.002 90.4999C306.402 92.5999 306.802 94.5999 307.102 96.6999C307.602 99.5999 305.902 102.3 303.202 102.8ZM303.102 102.4C305.502 101.9 306.802 99.4999 306.102 97.1999C305.602 95.1999 305.102 93.0999 304.602 90.9999C304.502 90.4999 304.302 89.6999 304.102 89.1999C303.502 87.6999 301.702 86.6999 300.102 86.8999C299.602 86.8999 298.702 87.1999 298.202 87.2999C296.002 87.6999 292.802 88.2999 290.502 88.6999C288.702 88.9999 287.102 90.5999 287.102 92.4999C287.102 93.0999 287.202 93.6999 287.402 94.3999C287.802 96.1999 288.402 98.1999 288.802 100.1C288.902 100.6 289.102 101.4 289.302 101.9C290.202 103.9 292.402 104.6 294.402 104.1C297.402 103.4 300.302 103 303.102 102.4Z" fill="url(#colorOne)"/>
<path d="M329.703 96.8003C329.103 96.9003 321.603 98.7003 321.203 98.8003C318.503 99.7003 315.503 98.3003 314.703 95.4003C314.603 95.1003 314.503 94.3003 314.403 93.9003C314.203 92.7003 313.603 89.4002 313.403 88.1002C313.303 87.5002 313.203 86.8002 313.203 86.1002C313.203 84.0002 314.803 82.1002 316.903 81.6002C319.103 81.1002 322.303 80.3003 324.503 79.8003C325.103 79.7003 325.803 79.5003 326.403 79.4003C328.603 79.0003 331.003 80.3003 331.803 82.4003C332.103 83.0003 332.203 83.8003 332.303 84.4003C332.703 86.3003 333.003 88.2002 333.303 90.2002C333.403 90.6002 333.503 91.0003 333.503 91.4003C333.803 93.9003 332.103 96.3003 329.703 96.8003ZM329.503 96.0002C331.503 95.6002 333.003 93.6002 332.703 91.6002C332.703 91.3002 332.503 90.8002 332.403 90.5002C331.903 88.6002 331.403 86.7003 331.003 84.8003C330.903 84.3003 330.703 83.5003 330.503 83.0003C329.903 81.5003 328.103 80.5002 326.503 80.7002C326.003 80.8002 325.103 81.0002 324.603 81.1002C322.403 81.5002 319.203 82.1003 316.903 82.5003C315.103 82.8003 313.603 84.4002 313.503 86.2002C313.403 86.8002 313.603 87.4002 313.803 88.1002C314.103 89.4002 314.903 92.6003 315.203 93.8003C315.303 94.3003 315.503 95.1002 315.703 95.6002C316.603 97.6002 318.703 98.3002 320.803 97.7002C321.303 97.6002 328.903 96.1002 329.503 96.0002Z" fill="url(#colorOne)"/>
<path d="M305 90.2996L304 89.4996C305 88.3996 306.2 87.4996 307.5 86.8996C310.1 85.8996 312.5 86.3996 313.7 86.7996L313.3 87.9996C312.3 87.6996 310.2 87.1996 308 88.0996C306.8 88.5996 305.8 89.3996 305 90.2996Z" fill="url(#colorOne)"/>
<path d="M287.504 95.166L266.047 102.877L266.487 104.1L287.944 96.3894L287.504 95.166Z" fill="url(#colorOne)"/>
<path d="M345.403 290.601C345.503 272.501 349.403 221.201 349.403 221.201C349.403 221.201 361.603 172.401 359.103 170.901C342.003 160.501 320.903 148.101 320.903 148.101C320.903 148.101 319.003 159.001 309.503 160.501C300.003 162.001 276.603 141.701 276.603 141.701L247.503 150.701C247.503 150.701 240.303 157.001 236.303 165.001C232.303 173.001 229.703 279.301 229.703 279.301L230.803 290.601H345.403Z" fill="url(#colorOne)"/>
<path d="M336.702 149.801C323.002 146.101 320.902 148.101 320.902 148.101L323.902 188.701L276.602 141.801L247.402 149.501C247.402 149.501 246.802 150.101 245.902 151.101C245.802 151.101 245.702 151.101 245.602 151.101C244.702 151.201 244.302 151.301 244.302 151.401C244.302 151.501 244.802 151.401 245.602 151.401C243.202 154.201 239.002 159.501 236.202 165.001C232.202 173.001 229.602 279.301 229.602 279.301L230.702 290.601H345.402C345.502 272.501 351.202 230.601 351.102 216.801C350.702 171.901 339.502 150.601 336.702 149.801Z" fill="black"/>
<path d="M344.103 281.299C341.903 279.299 340.103 276.899 338.203 274.599C336.403 272.199 334.703 269.799 333.203 267.199C337.403 271.399 340.903 276.199 344.103 281.299Z" fill="black"/>
<path d="M220.906 218.799C221.206 236.699 223.206 281.699 234.406 283.299C244.306 284.699 283.006 285.099 303.606 280.499L308.106 279.799C308.106 279.799 316.406 280.599 320.406 278.299C326.106 275.099 327.406 272.399 327.406 272.399C327.406 272.399 339.406 283.799 342.006 283.099C344.606 282.399 344.206 281.299 344.206 281.299L343.206 280.099L333.706 267.499L339.206 268.899C339.206 268.899 346.506 281.499 349.906 281.999C353.306 282.599 354.606 280.699 354.606 280.699L349.406 270.999L357.306 278.499C358.206 279.299 359.606 278.799 359.806 277.599C359.906 276.899 359.806 276.199 359.506 275.499L358.106 272.199C358.106 272.199 359.106 272.999 359.006 270.999C358.906 268.899 358.806 266.899 358.806 266.899C358.606 262.799 356.406 260.799 356.406 260.799C356.406 260.799 349.806 252.899 346.706 251.999C343.606 251.099 304.806 263.999 304.806 263.999H303.006C284.106 260.599 256.406 254.899 254.806 253.499L260.306 194.799" fill="white"/>
<path d="M221.405 218.8C221.805 233.5 222.505 248.4 225.105 262.9C226.105 268.2 228.305 279.6 233.305 282.3C234.505 282.9 236.105 282.8 237.405 283C240.305 283.2 243.305 283.4 246.205 283.5C264.605 283.9 283.205 283.6 301.405 280.3L303.605 279.8L308.005 279.1H308.105H308.205C310.005 279.2 311.805 279.3 313.505 279.2C315.705 279.1 317.905 278.8 319.805 277.9C321.705 276.9 323.605 275.6 325.105 274.1C325.705 273.5 326.305 272.9 326.705 272.2L327.105 271.4C329.905 274 332.805 276.6 335.805 279C337.505 280.3 339.205 281.7 341.205 282.5C341.405 282.6 341.605 282.6 341.805 282.6C341.805 282.6 341.805 282.6 341.905 282.6L342.205 282.5C342.705 282.3 343.405 282.1 343.605 281.6L343.705 281.8L343.005 281C340.305 277.5 336.005 271.5 333.305 267.9L332.405 266.7L333.805 267.1L339.305 268.6L339.505 268.7L339.605 268.9C341.505 272.1 343.505 275.2 345.705 278.1C346.805 279.5 348.005 281 349.605 281.8C350.405 282.1 351.305 282.1 352.105 281.9C352.905 281.8 353.805 281.4 354.305 280.7V281C353.705 280 348.805 270.5 348.405 269.8L349.605 271C350.005 271.3 357.605 278.7 357.705 278.7C358.305 279.1 359.205 278.9 359.505 278.2C359.705 277.9 359.705 277.5 359.705 277.1C359.705 276.4 359.305 275.4 359.005 274.8C358.705 274.2 358.005 272.3 357.705 271.7L358.305 272.2C359.205 272.9 358.805 270.4 358.805 270C358.705 268.9 358.705 267.9 358.505 266.8C358.305 265 357.705 263.3 356.605 261.8C355.605 260.7 354.705 259.7 353.705 258.6C352.905 257.7 352.105 256.9 351.205 256.1C349.905 254.8 348.505 253.5 346.805 252.7C346.405 252.5 346.205 252.6 345.805 252.6C343.505 252.9 341.205 253.5 338.905 254.1C327.505 257.2 316.205 260.9 304.905 264.5H304.805H304.705L302.805 264.4C290.605 262.3 278.505 259.9 266.505 257.2C264.505 256.7 262.505 256.3 260.505 255.8C258.605 255.3 256.705 254.9 254.905 254.1C254.805 254.1 254.705 254 254.605 253.9L254.505 253.8L254.305 253.6V253.3L259.105 194.5C259.305 192.8 261.805 193 261.705 194.7L255.405 253.3L255.205 252.8C255.605 253 256.005 253.1 256.405 253.3C259.805 254.3 263.305 255.1 266.805 255.9C278.205 258.4 291.705 261 303.005 263.2L304.905 263.3H304.705C316.005 259.6 327.305 255.9 338.705 252.8C339.805 252.5 341.005 252.2 342.205 251.9C343.705 251.6 345.205 251.1 346.805 251.2C347.805 251.4 348.605 252 349.405 252.6C351.305 254.1 353.005 255.8 354.605 257.6C355.605 258.7 356.605 259.9 357.505 260.9C358.705 262.5 359.205 264.5 359.205 266.4C359.205 267.5 359.205 268.5 359.305 269.6V270.4C359.305 271 359.505 272 358.805 272.3C358.505 272.4 358.205 272.3 358.005 272.1L358.305 271.8C358.605 272.5 359.505 274.6 359.805 275.3C360.105 276.1 360.205 277.1 359.905 277.9C359.505 278.8 358.205 279.1 357.405 278.6C357.305 278.5 357.205 278.5 357.105 278.4L356.905 278.2L356.405 277.8L349.105 270.9L349.505 270.6L354.705 280.3L354.805 280.5C354.205 281.4 353.105 281.9 352.105 282.1C351.105 282.3 350.105 282.3 349.105 281.9C347.305 281.1 346.105 279.5 344.905 278C342.505 275.1 340.505 272 338.605 268.8L338.905 269L333.405 267.6L333.905 266.8L339.105 273.7C340.305 275.2 342.505 278.2 343.705 279.7L344.405 280.5L344.505 280.6V280.7C344.505 280.8 344.505 280.8 344.505 280.8C344.705 282.3 343.105 282.9 342.005 283.2C341.605 283.3 341.005 283.2 340.705 283.1C339.405 282.6 338.205 281.8 337.105 281C334.905 279.4 332.805 277.7 330.805 275.9C329.405 274.7 328.105 273.5 326.805 272.3L327.805 272.1C326.905 273.8 325.405 275.1 323.805 276.2C322.705 277 321.505 277.8 320.305 278.5C318.205 279.6 315.705 279.8 313.405 280C311.505 280.1 309.705 280.1 307.905 279.9H308.105C306.705 280.1 302.905 280.8 301.605 281.1C292.105 283 282.405 283.6 272.805 284.1C263.905 284.5 255.005 284.6 246.105 284.3C243.105 284.2 240.205 284.1 237.205 283.8C236.105 283.7 235.005 283.6 233.805 283.4C232.605 283.1 231.505 282.4 230.705 281.5C226.605 277 224.905 268.4 223.805 262.6C221.305 248 220.605 233.1 220.305 218.3C220.305 218 220.505 217.7 220.905 217.7C221.205 218.2 221.405 218.5 221.405 218.8Z" fill="black"/>
<path d="M337.102 262.899C340.002 262.899 343.902 262.799 346.202 264.899C346.402 265.099 346.602 265.399 346.802 265.699C347.302 266.699 347.902 267.699 348.402 268.599L350.002 271.499C351.602 274.499 353.102 277.399 354.502 280.499C351.302 275.899 348.502 270.999 346.002 265.999C344.702 263.699 339.602 263.399 337.102 262.899Z" fill="black"/>
<path d="M337.898 257.699C338.998 257.599 340.098 257.799 341.198 257.899C343.298 258.099 345.298 258.499 347.298 259.099C347.398 259.099 347.598 259.199 347.798 259.299C348.798 259.899 349.498 260.799 350.298 261.599C353.198 264.899 355.798 268.499 358.098 272.199C354.798 268.599 351.798 264.599 348.398 261.099C347.998 260.699 347.498 260.199 346.998 259.999C344.098 258.899 340.998 258.199 337.898 257.699Z" fill="black"/>
<path d="M262.6 156.2C256.1 151.3 248.5 149.4 243.2 151.8C237.9 154.2 222.9 166.1 221.2 186.9C219.6 207.7 218.5 223 218.5 223L270.2 223.2C270.7 208.1 271 176.6 271 176.6C271 176.6 269.6 161.6 262.6 156.2Z" fill="url(#colorOne)"/>
<path d="M258.301 115.401C244.301 117.001 228.601 116.601 214.401 116.601C208.301 116.601 202.301 116.601 196.301 117.201C195.101 117.301 193.901 117.501 192.901 117.801C191.801 118.101 190.601 118.601 189.501 118.901C187.301 119.601 185.101 120.301 183.401 121.801C179.301 125.601 178.101 132.401 177.301 137.801C176.401 145.001 176.201 152.301 176.301 159.501C176.401 174.101 177.401 188.701 178.601 203.201C180.601 227.501 183.301 251.701 185.801 275.901C182.001 251.801 178.901 227.601 176.501 203.401C174.801 183.901 173.101 164.401 174.201 144.801C174.701 138.601 175.301 132.401 177.501 126.501C178.901 122.801 181.401 119.401 185.201 117.901C187.001 117.101 188.701 116.701 190.501 116.201C191.701 115.801 193.001 115.401 194.201 115.301C198.501 114.701 202.801 114.701 207.101 114.701C224.201 114.901 241.201 116.201 258.301 115.401Z" fill="black"/>
<path d="M309.105 291.099H382.105V275.299H309.105C307.005 275.299 305.305 276.999 305.305 279.099V287.299C305.305 289.399 307.005 291.099 309.105 291.099Z" fill="black"/>
<path d="M373.906 291.1H459.506C462.806 291.1 465.706 289 466.606 285.9L487.606 214.8C489.006 210.2 485.406 205.6 480.506 205.6H399.806C396.306 205.6 393.306 207.9 392.506 211.2L373.906 291.1Z" fill="black"/>
<path d="M440.105 238.299C442.48 238.299 444.405 236.374 444.405 233.999C444.405 231.624 442.48 229.699 440.105 229.699C437.73 229.699 435.805 231.624 435.805 233.999C435.805 236.374 437.73 238.299 440.105 238.299Z" fill="white"/>
<path d="M271.007 186.9C271.207 186.9 271.207 194.9 270.907 204.8C270.607 214.7 270.207 222.7 270.007 222.7C269.807 222.7 269.807 214.7 270.107 204.8C270.407 194.9 270.807 186.9 271.007 186.9Z" fill="black"/>
<path d="M504.209 90.7H498.409C485.009 90.7 474.109 79.8 474.109 66.4V62.8C474.109 49.4 485.009 38.5 498.409 38.5H504.209C517.609 38.5 528.509 49.4 528.509 62.8V66.4C528.509 79.9 517.609 90.7 504.209 90.7Z" fill="white"/>
<path d="M521.806 92.0004H480.906C476.506 92.0004 472.906 88.4004 472.906 84.0004V45.4004C472.906 41.0004 476.506 37.4004 480.906 37.4004H521.806C526.206 37.4004 529.806 41.0004 529.806 45.4004V84.0004C529.806 88.4004 526.206 92.0004 521.806 92.0004ZM480.906 39.9004C477.906 39.9004 475.406 42.4004 475.406 45.4004V84.0004C475.406 87.0004 477.906 89.5004 480.906 89.5004H521.806C524.806 89.5004 527.306 87.0004 527.306 84.0004V45.4004C527.306 42.4004 524.806 39.9004 521.806 39.9004H480.906Z" fill="black"/>
<path d="M511.705 64.4992C512.105 63.3992 512.205 62.1992 512.205 60.9992C512.105 56.6992 510.405 53.2992 506.905 50.7992C504.205 48.8992 501.105 48.1992 497.905 48.6992C494.705 49.1992 492.105 50.7992 490.105 53.2992C489.905 53.4992 489.805 53.6992 489.605 53.9992C489.505 54.6992 489.305 55.2992 489.305 55.9992C489.205 57.1992 489.305 58.4992 489.505 59.6992C489.605 60.2992 489.805 60.9992 490.105 61.5992C490.705 62.9992 491.405 64.2992 492.405 65.3992C493.205 66.2992 494.105 67.0992 495.205 67.6992C496.705 68.5992 498.305 69.1992 500.005 69.3992C500.105 69.3992 500.305 69.4992 500.405 69.2992C500.405 69.1992 500.405 69.0992 500.305 68.9992C499.705 67.9992 499.105 66.8992 498.405 65.8992C498.305 65.6992 498.105 65.6992 497.905 65.6992C496.205 66.0992 494.705 65.6992 493.305 64.4992C492.805 64.0992 492.405 63.4992 492.205 62.8992C491.905 61.7992 492.705 60.7992 493.905 61.0992C494.605 61.1992 495.205 61.5992 495.805 61.9992C496.605 62.5992 497.305 63.2992 497.905 64.0992C498.005 64.2992 498.205 64.3992 498.305 64.5992C498.405 64.6992 498.505 64.7992 498.705 64.6992C499.105 64.4992 499.505 64.1992 499.805 63.8992C500.005 63.6992 500.005 63.5992 499.705 63.4992C498.405 62.7992 497.505 61.6992 497.105 60.1992C496.905 59.6992 496.905 59.0992 497.005 58.5992C497.205 57.7992 497.605 57.0992 498.505 56.8992C498.705 56.7992 498.805 56.6992 498.605 56.4992C497.905 55.8992 497.405 55.2992 497.005 54.4992C496.505 53.3992 496.805 52.2992 498.005 51.8992C499.005 51.5992 500.005 51.5992 501.005 51.7992C502.605 52.0992 504.005 52.7992 505.305 53.5992C506.205 54.1992 507.005 54.8992 507.505 55.7992C507.705 56.1992 507.905 56.4992 508.005 56.9992C508.105 57.6992 507.905 58.2992 507.305 58.6992C507.205 58.6992 507.205 58.7992 507.105 58.7992C507.005 58.8992 507.005 59.0992 507.005 59.2992C506.805 61.0992 506.005 62.4992 504.405 63.2992C504.005 63.4992 503.905 63.6992 503.905 64.1992C504.005 65.7992 504.205 67.3992 504.505 68.9992C504.505 69.0992 504.505 69.1992 504.605 69.1992C504.805 68.9992 505.105 68.8992 505.305 68.8992C505.805 68.7992 506.205 68.5992 506.705 68.3992C507.905 67.8992 509.005 67.0992 509.905 66.1992C510.705 65.6992 511.205 65.0992 511.705 64.4992Z" fill="url(#colorTwo)"/>
<path d="M500.406 69.2996C500.006 69.3996 499.606 69.1996 499.206 69.1996C498.006 68.9996 496.906 68.5996 495.906 67.9996C494.606 67.2996 493.506 66.3996 492.506 65.3996C491.906 64.6996 491.306 63.9996 490.906 63.1996C490.406 62.2996 490.006 61.3996 489.706 60.3996C489.306 59.0996 489.206 57.6996 489.306 56.2996C489.306 55.5996 489.506 54.8996 489.606 54.1996C489.606 54.0996 489.606 54.0996 489.606 54.0996C488.706 55.2996 488.106 56.6996 487.806 58.1996C487.106 60.8996 487.406 63.5996 488.506 66.0996C489.806 69.0996 492.006 71.2996 495.106 72.4996C497.606 73.5996 499.306 75.2996 500.206 77.7996C500.406 78.3996 500.606 78.8996 500.806 79.4996C500.906 79.5996 501.006 79.4996 501.106 79.4996C501.806 79.1996 502.506 78.9996 503.206 78.6996C503.506 78.5996 503.806 78.4996 504.106 78.3996C504.206 78.3996 504.306 78.2996 504.406 78.1996C504.406 78.0996 504.406 77.9996 504.406 77.8996C504.206 77.4996 504.106 77.1996 504.006 76.7996C503.506 75.5996 503.006 74.3996 502.506 73.1996C502.006 72.0996 501.506 70.8996 500.906 69.7996C500.606 69.5996 500.606 69.3996 500.406 69.2996Z" fill="url(#colorOne)"/>
<path d="M511.702 64.5C511.602 64.5 511.502 64.6 511.502 64.7C510.602 65.9 509.502 66.9 508.202 67.7C507.702 68 507.102 68.3 506.502 68.6C506.002 68.8 505.502 68.9 505.002 69.1C504.902 69.1 504.802 69.2 504.802 69.3C504.702 69.4 504.802 69.6 504.802 69.7C505.102 70.8 505.302 71.8 505.602 72.9C506.002 74.1 506.302 75.3 506.702 76.4C506.802 76.7 506.902 77 507.102 77.2C507.502 77.2 507.802 77 508.102 76.9C508.502 76.8 508.902 76.6 509.402 76.5C509.702 76.4 510.002 76.3 510.402 76.2C510.502 76.2 510.602 76.1 510.702 76C510.502 75.4 510.302 74.9 510.102 74.3C509.202 71.8 509.402 69.3 510.702 66.9C511.102 66.1 511.502 65.3 511.702 64.5Z" fill="url(#colorOne)"/>
<path d="M512.205 67.2C512.305 67.3 512.405 67.4 512.505 67.5C513.805 68.1 515.106 68.7 516.406 69.3C516.706 69.4 516.905 69.3 517.005 69.1C517.105 68.9 517.005 68.6 516.705 68.5C515.405 67.9 514.105 67.3 512.805 66.7C512.605 66.6 512.405 66.6 512.305 66.7C512.205 66.9 512.105 67.1 512.205 67.2Z" fill="url(#colorOne)"/>
<path d="M482.602 53.1004C482.702 53.2004 482.802 53.3004 482.902 53.4004C484.202 54.0004 485.502 54.6004 486.802 55.2004C487.102 55.3004 487.302 55.3004 487.502 55.0004C487.602 54.8004 487.502 54.5004 487.202 54.4004C485.902 53.8004 484.602 53.2004 483.302 52.6004C483.102 52.5004 482.902 52.5004 482.802 52.6004C482.602 52.8004 482.502 53.0004 482.602 53.1004Z" fill="url(#colorOne)"/>
<path d="M505.506 48.2994C505.606 48.4994 505.706 48.4994 505.806 48.5994C506.006 48.5994 506.106 48.5994 506.206 48.3994C506.206 48.2994 506.306 48.2994 506.306 48.1994C506.906 46.8994 507.506 45.6994 508.106 44.3994C508.206 44.1994 508.206 44.0994 508.106 43.8994C507.906 43.5994 507.506 43.5994 507.306 43.9994C506.906 44.8994 506.406 45.7994 506.006 46.6994C505.806 47.0994 505.606 47.4994 505.406 47.8994C505.506 48.0994 505.406 48.1994 505.506 48.2994Z" fill="url(#colorOne)"/>
<path d="M493.606 73.4004C493.506 73.5004 493.406 73.5004 493.306 73.7004C492.706 75.0004 492.106 76.3004 491.406 77.6004C491.306 77.9004 491.406 78.1004 491.606 78.2004C491.806 78.3004 492.106 78.2004 492.206 77.9004C492.806 76.6004 493.406 75.3004 494.106 74.0004C494.206 73.8004 494.206 73.6004 494.006 73.5004C493.906 73.4004 493.706 73.4004 493.606 73.4004Z" fill="url(#colorOne)"/>
<path d="M494.708 45.4C494.508 44.7 494.208 44.1 494.008 43.4C493.908 43.1 493.708 43 493.408 43.1C493.108 43.2 493.108 43.4 493.208 43.7C493.708 45.1 494.208 46.4 494.608 47.8C494.708 48.1 494.908 48.2 495.208 48.1C495.408 48 495.508 47.8 495.408 47.5C495.208 46.8 494.908 46.1 494.708 45.4Z" fill="url(#colorOne)"/>
<path d="M484.205 66.1006C483.505 66.3006 482.905 66.6006 482.205 66.8006C481.905 66.9006 481.805 67.1006 481.905 67.4006C482.005 67.6006 482.205 67.7006 482.505 67.6006C483.805 67.1006 485.205 66.7006 486.505 66.2006H486.605C486.805 66.1006 486.905 65.9006 486.805 65.6006C486.705 65.4006 486.505 65.3006 486.305 65.4006C485.605 65.6006 484.905 65.8006 484.205 66.1006Z" fill="url(#colorOne)"/>
<path d="M515.103 55.1009C514.403 55.3009 513.803 55.6009 513.103 55.8009C512.803 55.9009 512.703 56.1009 512.703 56.4009C512.803 56.7009 513.003 56.7009 513.303 56.6009C514.603 56.1009 516.003 55.7009 517.303 55.2009C517.603 55.1009 517.703 54.9009 517.603 54.6009C517.503 54.3009 517.303 54.2009 517.003 54.4009C516.403 54.6009 515.703 54.9009 515.103 55.1009Z" fill="url(#colorOne)"/>
<path d="M513.808 61.3008C513.608 61.4008 513.508 61.5008 513.508 61.7008C513.508 61.9008 513.708 62.1008 513.908 62.1008C514.708 62.2008 515.408 62.2008 516.208 62.2008C516.408 62.2008 516.608 62.0008 516.608 61.8008C516.608 61.6008 516.508 61.4008 516.308 61.4008C515.508 61.4008 514.708 61.3008 513.808 61.3008Z" fill="url(#colorOne)"/>
<path d="M487.203 72.0992C487.303 72.3992 487.603 72.4992 487.803 72.2992C488.403 71.7992 489.003 71.2992 489.503 70.6992C489.703 70.4992 489.603 70.2992 489.503 70.0992C489.303 69.8992 489.103 69.8992 488.903 70.0992C488.503 70.4992 488.103 70.8992 487.603 71.1992C487.503 71.2992 487.303 71.3992 487.203 71.4992C487.203 71.7992 487.203 71.9992 487.203 72.0992Z" fill="url(#colorOne)"/>
<path d="M509.906 51.6008C510.006 51.9008 510.306 52.0008 510.606 51.8008C511.206 51.3008 511.706 50.8008 512.306 50.3008C512.506 50.1008 512.506 49.9008 512.306 49.7008C512.206 49.5008 511.906 49.5008 511.706 49.6008C511.106 50.1008 510.606 50.6008 510.006 51.1008C509.906 51.3008 509.906 51.5008 509.906 51.6008Z" fill="url(#colorOne)"/>
<path d="M483.308 59.6992C483.108 59.7992 483.008 59.8992 483.008 60.0992C483.008 60.2992 483.208 60.4992 483.408 60.4992C483.908 60.4992 484.508 60.5992 485.008 60.5992C485.208 60.5992 485.408 60.5992 485.608 60.5992C485.808 60.5992 486.008 60.3992 486.008 60.1992C486.008 59.9992 485.908 59.7992 485.708 59.7992C484.908 59.6992 484.208 59.6992 483.408 59.6992H483.308Z" fill="url(#colorOne)"/>
<path d="M500.102 47.0008C500.202 47.2008 500.302 47.3008 500.502 47.3008C500.702 47.3008 500.902 47.2008 500.902 46.9008C500.902 46.4008 501.002 45.8008 501.002 45.3008C501.002 45.1008 501.002 44.9008 501.002 44.7008C501.002 44.5008 500.802 44.3008 500.602 44.3008C500.402 44.3008 500.202 44.5008 500.202 44.7008C500.202 45.4008 500.102 46.2008 500.102 46.9008C500.102 46.9008 500.102 46.9008 500.102 47.0008Z" fill="url(#colorOne)"/>
<path d="M488.401 49.0001L488.501 49.1001C489.001 49.6001 489.401 50.1001 489.901 50.6001C490.101 50.8001 490.401 50.9001 490.501 50.7001C490.701 50.5001 490.701 50.3001 490.501 50.0001C490.001 49.5001 489.601 49.0001 489.101 48.4001C488.901 48.2001 488.701 48.2001 488.501 48.3001C488.401 48.6001 488.301 48.8001 488.401 49.0001Z" fill="url(#colorOne)"/>
<path d="M507.203 77.1996C506.703 75.9996 506.303 74.6996 505.903 73.4996C505.503 72.0996 505.103 70.6996 504.803 69.2996C504.603 68.3996 504.403 67.3996 504.303 66.3996C504.203 65.5996 504.103 64.8996 504.103 64.0996C504.103 63.8996 504.103 63.6996 504.403 63.5996C506.103 62.6996 507.103 61.1996 507.203 59.2996C507.203 59.1996 507.203 59.0996 507.203 58.9996C507.303 58.8996 507.303 58.7996 507.203 58.5996C507.203 58.0996 507.003 57.4996 506.703 57.0996C506.303 56.5996 505.703 56.4996 505.103 56.7996C504.503 57.0996 504.203 57.6996 503.903 58.2996C503.803 58.5996 503.603 58.8996 503.503 59.2996C503.203 60.4996 503.003 61.6996 503.003 62.8996C503.003 63.0996 502.903 63.1996 502.703 63.2996C502.303 63.3996 501.903 63.3996 501.503 63.2996C501.303 63.2996 501.203 63.1996 501.303 62.9996C501.903 61.4996 501.803 60.0996 501.203 58.5996C501.203 58.4996 501.103 58.3996 501.003 58.2996C500.803 57.8996 500.503 57.5996 500.203 57.2996C499.803 56.9996 499.403 56.7996 498.803 56.6996C498.603 56.6996 498.403 56.7996 498.203 56.7996C497.003 57.0996 496.503 58.2996 496.603 59.4996C496.903 61.2996 497.803 62.5996 499.403 63.4996C499.503 63.4996 499.503 63.5996 499.603 63.5996C499.203 64.0996 498.803 64.3996 498.303 64.5996C498.203 64.6996 498.103 64.5996 498.103 64.4996C497.603 63.7996 497.003 63.1996 496.403 62.5996C495.703 61.9996 495.003 61.3996 494.203 61.1996C493.803 60.9996 493.303 60.9996 492.803 61.0996C492.103 61.2996 491.703 62.0996 491.903 62.8996C492.103 63.7996 492.703 64.3996 493.403 64.8996C494.703 65.7996 496.103 66.0996 497.703 65.6996C497.803 65.6996 497.903 65.6996 498.003 65.7996C498.803 66.8996 499.403 67.9996 500.103 69.1996C500.103 69.1996 500.103 69.1996 500.103 69.2996C500.503 69.8996 500.803 70.5996 501.103 71.2996C502.203 73.4996 503.103 75.8996 504.003 78.1996C504.303 78.2996 504.603 78.0996 504.803 77.8996C504.903 77.5996 504.703 77.3996 504.603 77.1996C504.503 76.9996 504.403 76.8996 504.403 76.6996C503.803 75.0996 503.203 73.5996 502.503 72.0996C502.103 71.1996 501.703 70.2996 501.203 69.3996C500.503 68.1996 499.903 66.9996 499.103 65.7996C499.003 65.6996 499.003 65.5996 498.903 65.5996C498.803 65.4996 498.803 65.3996 499.003 65.2996C499.503 64.9996 500.003 64.5996 500.403 64.0996C500.503 63.9996 500.603 63.8996 500.803 63.9996C501.403 64.0996 502.003 64.0996 502.603 63.9996C502.803 63.9996 502.803 64.0996 502.803 64.2996C502.803 65.2996 503.003 66.2996 503.103 67.2996C503.203 67.9996 503.303 68.5996 503.503 69.2996C503.803 70.4996 504.103 71.7996 504.403 72.9996C504.803 74.2996 505.203 75.4996 505.603 76.7996C505.703 76.9996 505.803 77.2996 506.003 77.3996C506.703 77.4996 507.003 77.3996 507.203 77.1996Z" fill="white"/>
<path d="M503.708 59.1993C503.908 58.3993 504.208 57.5993 504.808 56.9993C505.308 56.4993 505.808 56.3993 506.308 56.6993C506.508 56.7993 506.708 57.0993 506.808 57.2993C507.008 57.7993 507.108 58.2993 507.108 58.7993C507.908 58.3993 508.308 57.4993 508.008 56.5993C507.708 55.6993 507.108 54.9993 506.508 54.3993C504.708 52.7993 502.608 51.7993 500.208 51.4993C499.408 51.3993 498.608 51.3993 497.908 51.6993C496.608 52.1993 496.408 53.2993 496.908 54.3993C497.308 55.1993 497.908 55.8993 498.608 56.4993C498.808 56.6993 498.608 56.6993 498.508 56.6993C498.708 56.6993 498.908 56.5993 499.108 56.5993C499.808 56.6993 500.308 56.9993 500.708 57.4993C500.908 57.6993 501.008 57.8993 501.208 58.0993C501.608 58.3993 502.108 58.4993 502.608 58.6993C503.008 58.9993 503.308 59.0993 503.708 59.1993Z" fill="url(#colorTwo)"/>
<path d="M503.905 69.3C503.805 68.6 503.705 68 503.605 67.3C503.405 66.3 503.305 65.3 503.305 64.2C503.305 64 503.205 64 503.105 64C502.405 64.1 501.805 64.1 501.105 64C501.005 64 500.905 64 500.805 64.1C500.405 64.6 499.905 65.1 499.305 65.4C499.205 65.5 499.105 65.5 499.205 65.6C500.105 66.8 500.805 68.2 501.505 69.5C501.605 69.5 501.605 69.6 501.705 69.6C502.405 69.6 503.105 69.6 503.805 69.4C503.805 69.3 503.805 69.3 503.905 69.3Z" fill="url(#colorTwo)"/>
<path d="M503.908 69.3008C503.608 69.3008 503.308 69.4008 503.008 69.4008C502.508 69.5008 502.008 69.4008 501.508 69.5008C501.908 70.2008 502.208 71.0008 502.608 71.7008C503.108 72.7008 503.508 73.7008 503.908 74.8008C504.308 75.8008 504.708 76.9008 505.108 77.9008C505.508 77.7008 506.008 77.6008 506.408 77.4008C505.708 75.6008 505.108 73.7008 504.608 71.8008C504.308 71.0008 504.108 70.1008 503.908 69.3008Z" fill="url(#colorOne)"/>
<path d="M498.101 60.4991C498.501 61.3991 499.201 62.2991 500.301 62.8991C500.401 62.9991 500.501 62.9991 500.601 62.7991C501.301 61.1991 501.201 59.6991 500.201 58.2991C499.901 57.8991 499.501 57.5991 499.001 57.6991C498.501 57.6991 498.101 58.0991 497.901 58.6991C497.701 59.0991 497.801 59.6991 498.101 60.4991Z" fill="url(#colorTwo)"/>
<path d="M503.703 59.2008C503.703 59.1008 503.603 59.1008 503.503 59.1008C502.703 58.9008 501.903 58.7008 501.203 58.3008C502.003 59.9008 502.103 61.5008 501.303 63.2008C501.903 63.3008 502.503 63.3008 503.103 63.2008C503.303 63.2008 503.203 63.0008 503.203 62.9008C503.203 61.9008 503.303 61.0008 503.503 60.0008C503.603 59.7008 503.703 59.4008 503.703 59.2008Z" fill="url(#colorTwo)"/>
<path d="M493.108 62.9997C493.408 63.5997 493.908 64.0997 494.608 64.4997C495.508 64.9997 496.408 65.1997 497.408 64.9997C497.508 64.9997 497.608 64.9997 497.608 64.8997C497.608 64.7997 497.508 64.6997 497.508 64.6997C496.808 63.8997 496.108 62.9997 495.108 62.3997C494.708 62.1997 494.308 61.8997 493.908 61.8997C493.608 61.7997 493.308 61.7997 493.108 61.9997C492.908 62.3997 493.008 62.5997 493.108 62.9997Z" fill="url(#colorTwo)"/>
<path d="M504.602 59.3007C504.302 60.4007 504.102 61.5007 504.102 62.7007C504.302 62.7007 504.402 62.6007 504.502 62.5007C505.502 61.8007 506.102 60.7007 506.302 59.5007C506.302 59.4007 506.302 59.3007 506.302 59.2007C506.102 59.1007 505.902 59.2007 505.802 59.2007C505.502 59.2007 505.202 59.2007 505.002 59.2007C504.802 59.2007 504.702 59.1007 504.602 59.3007Z" fill="url(#colorTwo)"/>
<path d="M504.602 59.3003C505.002 59.3003 505.502 59.3003 505.902 59.3003C506.002 59.3003 506.102 59.3003 506.302 59.2003C506.402 58.7003 506.302 58.2003 506.102 57.7003C506.002 57.4003 505.802 57.4003 505.602 57.6003C505.102 58.0003 504.902 58.5003 504.702 59.0003C504.702 59.0003 504.602 59.1003 504.602 59.3003Z" fill="url(#colorTwo)"/>
<path d="M512.903 82.0004C512.203 80.0004 511.503 78.1004 510.803 76.1004C510.803 76.0004 510.703 76.0004 510.703 75.9004C510.303 76.0004 509.903 76.2004 509.503 76.3004C509.103 76.4004 508.703 76.6004 508.203 76.7004C507.903 76.8004 507.503 76.9004 507.203 77.0004C506.903 77.1004 506.703 77.2004 506.403 77.3004C506.303 77.3004 506.203 77.3004 506.103 77.3004C505.803 77.4004 505.403 77.5004 505.103 77.7004C504.803 77.8004 504.603 77.9004 504.303 78.0004C503.903 78.1004 503.503 78.3004 503.203 78.4004C502.403 78.7004 501.603 79.0004 500.703 79.3004C501.303 80.9004 501.803 82.6004 502.403 84.2004C502.503 84.6004 502.703 85.0004 502.803 85.4004C503.003 86.1004 503.603 86.6004 504.303 86.8004C505.103 87.1004 506.003 87.0004 506.903 86.8004C507.003 86.8004 507.103 86.7004 507.303 86.7004C507.403 86.7004 507.503 86.7004 507.603 86.8004C507.903 87.0004 508.103 86.9004 508.403 86.9004H508.503C509.103 86.8004 509.603 86.6004 510.003 86.2004C510.103 86.1004 510.203 86.0004 510.203 85.8004C510.303 85.8004 510.403 85.7004 510.403 85.7004H510.503C511.503 85.3004 512.303 84.6004 512.803 83.7004C513.103 83.1004 513.103 82.6004 512.903 82.0004Z" fill="black"/>
<path d="M501.703 81.7996V81.3996C503.103 81.3996 505.203 80.6996 506.903 80.0996C509.003 79.3996 510.403 78.7996 511.403 78.0996L511.603 78.3996C510.603 79.0996 509.203 79.6996 507.003 80.3996C505.303 81.0996 503.103 81.7996 501.703 81.7996Z" fill="white"/>
<path d="M502.406 83.6V83.2C504.206 83.2 505.906 82.9 507.606 82.3C509.206 81.8 510.706 81 512.106 80L512.306 80.3C510.906 81.3 509.406 82.1 507.706 82.7C506.006 83.3 504.206 83.6 502.406 83.6Z" fill="white"/>
<path d="M502.805 85.4008V85.0008C504.605 85.0008 506.305 84.7008 508.005 84.1008C509.605 83.6008 511.105 82.8008 512.505 81.8008L512.705 82.1008C511.305 83.1008 509.805 83.9008 508.105 84.5008C506.405 85.1008 504.605 85.4008 502.805 85.4008Z" fill="white"/>
<script type="text/ecmascript" xlink:href="https://dev.w3.org/SVG/modules/ref/master/ref2.js"></script></svg>
