<svg xmlns="http://www.w3.org/2000/svg" baseProfile="tiny-ps" version="1.2" viewBox="0 0 256 256" width="256" height="256"><path fill="#242c4f" d="M0 0h256v256H0z"/><path fill="#f4f6ff" d="M132.7 61.3a4 4 0 0 0-1.6 1.1l-.1.2v.1q1.3 1.4 2.8 1.2c1.7 0 3.3-1 3.4-1l.2-.2-.2-.2c-2-1.6-3.5-1.5-4.5-1.2Zm-1.1 1.3q.3-.4 1.3-.9-.2.8.1 1.7-.8-.2-1.4-.8m3 .7c.5-.4.4-1.2.3-1.6q.8.2 1.7.9zm-10.2-.6.2-.1-.2-.2s-.5-.7-1.6-1c-1-.4-2.5-.5-4.4 1l-.3.2.3.2s1.6 1 3.4 1q1.4.1 2.6-1.1Zm-5.5 0 1.7-1c-.1.4-.2 1.2.2 1.6zm3.6.8q.5-1 .2-1.7l1.3.8q-.8.7-1.5.9Z"/><path fill="#f4f6ff" d="M133.7 58.1q-5.4.2-5.6 5.4c0 3.6 1.4 4 2 4.1h.4q1 .1 1 1 0 .4-.5.6-.7.3-1.5-.4l-.2-.1-.2.1s-.4.5-1.3.5-1.4-.5-1.4-.5l-.2-.1-.1.1q-.7.6-1.6.4-.4-.2-.4-.6 0-.9 1-1h.3c.7-.2 2-.5 2-4.1s-2-5.3-5.6-5.3a8 8 0 0 0-5.5 2.7l.4.3s2-2.6 5.1-2.6q5 0 5.2 4.9c.2 4.9-1.2 3.5-1.7 3.7h-.3c-.5.1-1.3.3-1.3 1.4q0 .7.6 1a2 2 0 0 0 2-.3q.3.3 1.5.4c1.2.1 1.3-.3 1.5-.4q.6.3 1.3.4l.6-.1q.7-.3.7-1c0-1.1-.8-1.3-1.3-1.4h-.3c-.6-.2-1.7-.5-1.7-3.7s1.8-4.9 5.2-4.9c3 0 5 2.6 5 2.6l.4-.3c0-.1-2.2-2.8-5.4-2.8Zm-10.4 160q0 .1 0 0m10-.7c2.2-2 4-4.5 4.1-6.5v-.1q.2-2.3-1-4.1-.6-.6-1.5-.5a41 41 0 0 1-14 0c-.4 0-1.2 0-1.4.5-1 1.2-1 2.7-1 4v.2c0 2 1.9 4.5 4 6.5-3.6 1-11.3 4.7-14 9.2q-.1.3 0 .4.2.2.4.1a5 5 0 0 1 3.8-.3q1.8.8 2.7 3.1.1.2.4.2.2 0 .3-.2c1.6-4.2 6.5-9 8.7-10.5q.3.8 1.2 1h3.8a1.4 1.4 0 0 0 1.2-1 27 27 0 0 1 8.7 10.5q.1.2.3.2.3 0 .4-.2.9-2.3 2.7-3a5 5 0 0 1 3.8.2q.2.1.4 0 .2-.3 0-.5c-2.6-4.5-10.4-8.1-14-9.2Zm-13.6-9.2a36 36 0 0 0 16.6 0l.3 1.3a35 35 0 0 1-17.4 0zm-5.7 18.5a5 5 0 0 0-2-.8c3.2-3 7.5-5.7 11.3-7.7l.5.4c-2.9 1.8-7.9 5.3-9.8 8Zm10.6-9.2a19 19 0 0 1-4-5.4l1.6.4a12 12 0 0 0 2.5 3.9zm4.3 2.2h-2v-4.4h2zm1.8-4.6-.9-.4H126q-.5 0-.8.4-.5-1.1-.6-2.2c1 .2 5.6.2 6.6 0zm.4 1.3a12 12 0 0 0 2.6-4l1.6-.3a19 19 0 0 1-4.1 5.4zm10.8 10.3c-2-2.8-7-6.4-9.9-8.1l.5-.4c3.8 2 8.2 4.6 11.4 7.7-.5 0-1.9.7-2 .8m30.3-42.7v.3l.5-.2c1.5-.8 2.8-1.5 3.7-3.3l.6-2.5.2-1 .2-3.2v-.4l-.3.2-2.5 2.3-.7.7-1.5 2c-.9 1.8-.6 3.2-.2 5Zm7.6-75.5-.3-.5-.1.5c-.3 2-.7 5-.3 6.7.5 2 1.7 2.8 3 3.9l.4.3.2-.5c.7-1.6 1.2-2.9.7-4.8a20 20 0 0 0-3.6-5.6Zm-6.2-3.4a7 7 0 0 0 4 1.6 7 7 0 0 1-3.3-3.4q-.6-1.3-.7-3.1l-3.2-1.2-.4-.1v.2c1 2 2.3 4.8 3.6 6m8.5 54.2c1.3-1.3 2.2-2.3 2.5-4.3q.1-1-.1-2.6l-.2-1-.8-3v-.2l-.1-.3-.2.3-1.7 3-.4.8-.8 2.4c-.3 2 .4 3.2 1.3 4.8l.2.4z"/><path fill="#f4f6ff" d="m184.2 117.1-.5 1.3q1.5-1.3 2-3.6a21 21 0 0 0-1.1-6.8v-.3l-.3.4-1.7 2.8a10 10 0 0 1 1.5 3q.5 1.6 0 3.2M178 172v.3l.4-.1v-.1c1.5-1 2.6-1.9 3.2-3.8l.3-2.6v-1l-.3-3.1v-.5l-.2.2v.1q-1.2 1.2-2.3 2.7l-.5.7-1.2 2.2c-.6 2 0 3.3.5 5Zm7.7-33.2-.3-.9-1-3v-.2l-.2-.3-.2.4-1.4 3-.4 1-.5 2.4c-.1 2 .7 3.2 1.7 4.7l.2.3.3-.3c1.1-1.4 2-2.5 2.1-4.5zm-5.3-34.6q0 .7-.2 1.3a6 6 0 0 0 1.3-3.9 21 21 0 0 0-2.2-6.5l-.1-.3-.2.5-1.1 3q1.2 1.4 2 2.7.6 1.5.5 3.2Zm.2 47.1-2-2.6-.3-.4v.3c-.3 2.1-.7 5.1-.2 6.9a6 6 0 0 0 2.5 3.4 7 7 0 0 1-1-4.5q.2-1.5 1-3Zm3.6-18.3.3-.4c.9-1.5 1.6-2.8 1.3-4.8l-.8-2.4-.3-.8-1.6-3-.3-.3v.3l-1 3.3-.2.9-.1 2.5c.2 2 1.2 3 2.5 4.4zm-6.7-16a6 6 0 0 0 3.7 2.3 7 7 0 0 1-2.7-3.8q-.4-1.4-.2-3.3l-3-1.6-.4-.2v.2a21 21 0 0 0 2.6 6.5m-8.5 75.7 1.2-2.3.3-1 .8-3v-.1l.1-.4-.3.2-3 1.8-.7.5-1.9 1.6c-1.2 1.7-1.2 3-1.2 4.9v.4l.4-.1c1.7-.5 3-.9 4.3-2.5"/><path fill="#f4f6ff" d="M186.5 127.6a6 6 0 0 1-.4 3.3l-.6 1.2a6 6 0 0 0 2.4-3.3c.5-1.7.2-4.7 0-7l-.1-.2-.3.4-2 2.5q.8 1.7 1 3.1M173.7 176l-1.1-3.2-.2-.4-.1.2c-1 2-2.3 4.7-2.4 6.5q.1 2.5 1.4 4.1a7 7 0 0 1 .4-4.7q.7-1.2 2-2.5m6.9-47.7q-.1-1.4.2-3.2l-3-2.3v.2c.3 2.2.7 5.2 1.6 6.8s2 2.1 3.3 2.7a7 7 0 0 1-2.1-4.2m1 9.6-2.3-2.5-.3-.3v.3a21 21 0 0 0 .4 6.9 6 6 0 0 0 2.8 3.2 7 7 0 0 1-1.4-4.4q0-1.4.8-3.2Zm-6.7 29.6q.4 2.4 2 3.8a7 7 0 0 1-.3-4.6q.5-1.4 1.5-2.9l-1.5-3-.3-.4v.3c-.7 2.1-1.6 5-1.4 6.8Zm-33.5 42.3c1.8.4 3.1.8 5 0l2.2-1.5.7-.6 2.2-2.3.2-.2.2-.2h-.4l-3.4.1h-1l-2.4.6c-1.9.9-2.6 2-3.5 3.7l-.2.3zm39.5-33-3 1.1a11 11 0 0 1-.8 3.2 6 6 0 0 1-2 2.5l-1.3.8a6 6 0 0 0 3.9-1.5c1.3-1.2 2.7-4 3.6-6l.1-.2zm-6.8 13-3.2.3a11 11 0 0 1-1.4 3 6 6 0 0 1-2.6 2l-1.3.5q2 .3 4.1-.7c1.6-.9 3.4-3.3 4.8-5l.2-.2zm-9.6 11.3-3.2-.4a11 11 0 0 1-2 2.6 6 6 0 0 1-3 1.3l-1.4.2a6 6 0 0 0 4.1.3c1.8-.5 4.1-2.4 5.8-3.8l.2-.2h-.3zm-9-2.5q1.2-.8 2.9-1.4l.3-3.4v-.5l-.1.2c-1.8 1.4-4.1 3.3-5 4.9a6 6 0 0 0-.5 4.3 7 7 0 0 1 2.4-4"/><path fill="#f4f6ff" d="m160.4 200.7.5-.8 1.6-2.8v-.1l.2-.4-.3.1-3.3 1-.9.4-2.2 1.1c-1.6 1.3-2 2.7-2.4 4.4v.4h.4c1.7 0 3.2 0 4.7-1.4zm28.2-64.7-2.4 2.2q.6 1.8.5 3.2a6 6 0 0 1-1 3.1l-.7 1.2a6 6 0 0 0 3-2.9c.7-1.6.9-4.6 1-6.8v-.3zm-3.1 27.8-3 1.5q.1 1.8-.2 3.2a6 6 0 0 1-1.7 2.8l-1 1a6 6 0 0 0 3.5-2.1c1.2-1.4 2-4.3 2.7-6.4l.1-.2zm-11.2-64 .1.9q.2 1.4.6 2.4c.9 1.9 2.1 2.5 3.7 3.4l.4.2v-.4c.5-1.8.8-3.1 0-5l-1.6-2.1-3-3-.3-.2v.3zm13.4 50.2-2.5 1.9q.3 1.9.2 3.3a6 6 0 0 1-1.2 3q-.4.6-1 1a6 6 0 0 0 3.3-2.5c1-1.6 1.3-4.6 1.6-6.8v-.2zm-35.3 59.9-3-1.2q-1.4 1.3-2.7 1.9c-1.3.6-1.7.5-2.6.5h-.6l-1.4-.2a6 6 0 0 0 4 1.3c1.7 0 4.5-1.2 6.5-2l.3-.1zm-8-4.8q1.3-.5 3.2-.6l1.2-3.1.2-.5-.3.1c-2 .9-4.8 2-6 3.4a6 6 0 0 0-1.7 4 7 7 0 0 1 3.4-3.3m22.8-17.7q0-1.6-.4-3.3v-.5l-.2.3a21 21 0 0 0-3.7 5.9q-.4 2.4.5 4.2a7 7 0 0 1 1.4-4.4q1-1.2 2.4-2.2m1.6-103.2v.4l.3 4.6.2 1q0 .6.4 1c.8 1.9 2 2.5 3.5 3.4l.4.2c.3-1.5.7-3.6 0-5.3-.8-1.6-2.9-3.5-4.4-5z"/><path fill="#f4f6ff" d="M172.5 95a7 7 0 0 1-3.5-3.5l-.6-1.9-4.3-.9h-.5l.2.2c1.2 1.8 2.9 4.2 4.3 5.2 1.6 1 2.9 1 4.4.9M78.6 174l.2 3.2.2 1q0 1.5.6 2.5c.9 1.8 2.1 2.5 3.7 3.3l.4.2v-.4c.4-1.8.7-3.2-.2-5l-1.5-2-.6-.7-2.5-2.3-.3-.3zm-2-66.1-.4.5c-1.3 1.6-3.1 3.9-3.6 5.6-.5 2 0 3.2.7 4.8l.2.5.4-.3c1.4-1.1 2.5-2 3-4 .5-1.6 0-4.5-.3-6.6zm5.1-4.7a7 7 0 0 1-3.3 3.4q2.2-.1 4-1.6c1.4-1.2 2.6-4 3.5-6l.1-.2-.4.1-3.2 1.2a11 11 0 0 1-.7 3.1m-7.8 56 .3.3.2-.4c.9-1.5 1.6-2.8 1.3-4.8L75 152l-.4-.8-1.7-3-.2-.3v.5l-.9 3-.2 1-.1 2.6c.2 2 1.2 3 2.5 4.2"/><path fill="#f4f6ff" d="m72.3 118.4-.5-1.3a6 6 0 0 1 0-3.2q.5-1.5 1.6-3l-1.7-2.7-.2-.5-.1.3c-.6 2.1-1.4 5-1.1 6.8a6 6 0 0 0 2 3.6m5.4 53.6.3.2.1-.3c.7-1.7 1.1-3 .5-5l-1.1-2.2-.6-.8-2.1-2.6-.3-.3v.5q-.2 1.5-.3 3.1v1q0 1.5.3 2.6c.6 2 1.7 2.8 3.1 3.8ZM70 141.3c0 2 1 3.1 2 4.5h.1l.3.3.2-.3c1-1.5 1.8-2.7 1.7-4.7l-.6-2.5-.3-.8-1.4-3.1-.2-.4-.1.3v.2l-1.1 3-.3 1zm5.6-37.2a6 6 0 0 1 .6-3.2 11 11 0 0 1 2-2.7l-1.2-3-.2-.5-.1.3a21 21 0 0 0-2.2 6.5 6 6 0 0 0 1.3 4zm2.3 51.3c.5-1.8.1-4.7-.2-7v-.2l-.3.4-2 2.6a11 11 0 0 1 1 3 7 7 0 0 1-1 4.7c1.1-1 2-1.8 2.5-3.5Zm-7-30.1-.7 2.4c-.3 2 .4 3.3 1.3 4.8l.3.4.2-.3c1.3-1.3 2.3-2.3 2.5-4.4l-.1-2.5-.2-.9-.9-3.2v-.1l-.1-.3-.2.4-1.6 2.9zm4-6q2-.6 3.6-2.3a21 21 0 0 0 2.5-6.5v-.2l-.4.2q-1.5.7-2.9 1.7.1 1.7-.2 3.2a7 7 0 0 1-2.7 3.8m9.9 67.1.8 3 .3 1 1.2 2.3c1.3 1.6 2.6 2 4.3 2.5h.4v-.3c0-1.8 0-3.2-1.2-4.8l-2-1.7-.7-.5-3-1.8-.2-.2v.4z"/><path fill="#f4f6ff" d="m70.5 132.1-.6-1.2a6 6 0 0 1-.4-3.3q.2-1.4 1-3-1-1.4-2-2.6l-.3-.4v.3a21 21 0 0 0-.2 6.9 6 6 0 0 0 2.5 3.3Zm14.2 51.1a6 6 0 0 0 1.3-4c0-1.9-1.4-4.6-2.3-6.6l-.1-.2-.2.4-1.1 3.2q1.2 1.2 2 2.6a7 7 0 0 1 .4 4.6m-11.4-50.7a6 6 0 0 0 3.3-2.7c1-1.6 1.3-4.6 1.6-6.8v-.2l-.4.2-2.6 2.1q.3 1.8.2 3.2a7 7 0 0 1-2.1 4.2Zm3.3 9.8c.7-1.7.5-4.8.4-7v-.2l-.3.3-2.3 2.5q.7 1.7.8 3.1a7 7 0 0 1-1.4 4.5 6 6 0 0 0 2.8-3.3Zm4.5 25.2a21 21 0 0 0-1.4-6.8v-.2l-.3.4-1.6 3q1.1 1.4 1.6 2.8a7 7 0 0 1-.2 4.6c1-1 1.7-2 1.9-3.8m30.2 38.2-2.5-.5-.9-.1h-3.8l.2.1.2.2 2.2 2.2.7.7 2.2 1.4c1.9.8 3.2.5 5 0h.4l-.2-.4c-.9-1.5-1.6-2.8-3.5-3.6Zm-30.3-22a6 6 0 0 1-2-2.6 11 11 0 0 1-.9-3.2l-3-1-.5-.2v.3c1 2 2.4 4.7 3.7 5.9a6 6 0 0 0 3.9 1.4zm5.5 9.4a10 10 0 0 1-1.4-3l-3.2-.4h-.6l.2.2c1.3 1.7 3.2 4.1 4.8 5q2 1 4 .7L89 195a6 6 0 0 1-2.5-2m10.3 10.2a10 10 0 0 1-2.1-2.6l-3.2.4H91l.2.2c1.7 1.4 4 3.3 5.8 3.8a6 6 0 0 0 4.1-.3l-1.4-.2a6 6 0 0 1-3-1.3m.7-9.8-.2-.2v.5l.4 3.4q1.8.6 2.9 1.4a7 7 0 0 1 2.4 4c.2-1.4.3-2.6-.5-4.2a21 21 0 0 0-5-4.9"/><path fill="#f4f6ff" d="m100 199.3-2.2-1.2-.9-.4-3.3-1h-.3l.1.3q.8 1.5 1.7 2.9l.5.8 1.7 2c1.5 1.2 3 1.3 4.7 1.3h.5l-.1-.3c-.5-1.8-.8-3.1-2.4-4.4Zm-29-53.7-.8-1.2a6 6 0 0 1-1-3q0-1.6.6-3.3l-2.4-2.2-.4-.3v.3c.1 2.2.3 5.2 1 6.8a6 6 0 0 0 3 2.9m4.4 25.6a6 6 0 0 1-1.7-2.8q-.4-1.4-.3-3.2l-2.9-1.5-.4-.3v.3c.7 2.1 1.6 5 2.8 6.4a6 6 0 0 0 3.6 2q-.6-.4-1-.9m1.3-65 .1.4.4-.2c1.6-.9 2.8-1.5 3.7-3.4q.5-1 .6-2.4v-1q.3-1.7.2-3.4V96l-.2.2h-.1L79 98.5l-.6.7-1.5 2.1c-.9 1.9-.6 3.2-.2 5Zm-4 53-1-1.1a6 6 0 0 1-1.2-3q-.1-1.5.2-3.3l-2.5-2-.4-.2v.2a21 21 0 0 0 1.6 6.8 6 6 0 0 0 3.2 2.6m41 51.6-1.3.2a7 7 0 0 1-3.2-.5q-1.3-.6-2.7-2l-3 1.3-.5.2h.3c2 1 4.8 2.1 6.6 2.2q2.4-.1 3.9-1.4Zm-.4-6.5c-1.3-1.3-4-2.5-6.1-3.4l-.3-.1.2.5 1.3 3q1.8.3 3.1.7 2.5 1.3 3.5 3.2a6 6 0 0 0-1.7-4M93 189.8c-.5-1.8-2.3-4.2-3.7-6l-.1-.1-.1.4-.4 3.4q1.5 1 2.4 2a7 7 0 0 1 1.4 4.5q1-1.8.5-4.2ZM87 68.4l21 1-.8.4-.8.4-.7.3q-1.3.7-2.6 1t-2.7.2H97q-1.7.4-3 1.2l-.4.1q-1.2.8-2.6 1.2-1.3.4-2.7.2a1.2 1.2 0 0 0-1.3 1q0 .5.2.9t.8.5a9 9 0 0 0 3.6 0 15 15 0 0 0 3.3-1.3l1.4-.6.6-.2h2.3l1 .2q2 .1 3.7-.1t3.4-1l.7-.3.7-.3.6-.2-10.4 5.2q-.1 0-.2 0l-1.3.3c-2 .7-4.6 1.5-6 2.7-1.7 1.4-2 2.9-2.3 4.6l-.2.9.3.4h.9c1.8-.2 3.3-.3 5-1.7q1.3-1.4 2.5-3.8l10.4-3.8a63 63 0 0 0-23.7 36l-.1.3-.5 1.7-.2 1-.4 1.5-.5 2.4-.1 1.2-.3 1.7-.2 1.2-.3 2v.8l-.3 2.9v.8l-.2 2.3v8.9l.3 3.2v.8a84 84 0 0 0 6 24.2q.6 1.5 1 2a56 56 0 0 0 22 26h.1q1 .7 2.2 1.2l.7.3 1 .5 1.6.6.8.3 2 .6 1.8.5.6.1 1.7.3h.4l2.5.3h4.8l4.2-.6.5-.1 1.9-.5.7-.2 1.3-.4.7-.3 2.6-1 .8-.4 2-1.1.3-.2c9-5.1 16.7-14.2 22-25.6.2 0 .2 0 .5-1l.5-1.6a85 85 0 0 0 5.8-23.8l.1-.8.2-3.2.1-1v-8l-.1-2.4v-.7l-.4-3v-.4l-.3-2.5-.2-1-.3-2-.2-.9-.5-2.6-.3-1.2-.3-1.4-.4-1.4-.3-1-1.8-5.6v-.3a59 59 0 0 0-22.3-29.8l10.4 3.6.2.1c.9 1.7 1.8 3.4 2.9 4.3 1.6 1.4 3.1 1.5 4.9 1.6h1.2v-.4l-.1-.8c-.4-1.7-.7-3.2-2.4-4.6-1.3-1.2-4-2-6-2.7l-.8-.3h.1l-9.8-4.7h.5l.2-.1h.7q1.5-.2 2.8 0l2.6.7.8.4.6.3q.8.4 1.8.6 1.9.3 3.3 0h.4q1.5-.3 2.9-.2t2.5.8a1.2 1.2 0 0 0 1.2-2.1 9 9 0 0 0-3.4-1.3h-6.1l-1.7-.9-1-.5A13 13 0 0 0 153 70q-1.4-.3-3-.3h-4.4l23.3-1a1 1 0 0 0 .8-.9q0-.7-.8-.9l-21.2-1.4.7-.3.8-.4.6-.3q1.4-.7 2.6-1l2.8-.2h1l.5.1h2a10 10 0 0 0 3-1.2l.3-.2q1.4-.8 2.6-1.2a7 7 0 0 1 2.7-.2 1.2 1.2 0 0 0 1.3-1q.1-.4-.2-.9l-.7-.5a9 9 0 0 0-3.7 0q-1.7.5-3.2 1.3l-1.4.6-.6.2h-.3l-.3.1-1.7-.1-1.1-.2q-1.9-.1-3.6.1t-3.4 1l-.7.3h-.1l-.7.3-.5.2 19.5-9.6a1 1 0 0 0 .4-1.2 1 1 0 0 0-1.2-.5l-19.8 7.4 1.3-1.4.1-.2.3-.3 2-2q1.1-.7 2.5-1.2l.7-.3h.2l.5-.2 1.8-.8q1.4-1 2.3-2.3l.3-.3q.8-1.3 2-2.1 1-.9 2.3-1.3 1-.3.8-1.4l-.5-.7q-.5-.2-.9-.2-1.9.4-3.3 1.5-1.5 1.1-2.6 2.4l-1 1-.7.6-.2.2-1.7.6-1 .3q-1.8.4-3.4 1.5l-2.7 2.2-.5.6-.6.5-.4.4 14.1-16.5a1 1 0 0 0 0-1.2 1 1 0 0 0-1.3 0L140.4 52l.3-.9.2-.6v-.3l.3-.6q.4-1.5 1.1-2.6a10 10 0 0 1 2.3-2.6l.2-.2 1.7-1.8q1-1.5 1.2-3l.1-.3q.4-1.5 1-2.8a7 7 0 0 1 1.7-2q.8-.7.2-1.6l-.7-.5q-.5-.1-1 .2a9 9 0 0 0-2.4 2.7l-1.4 3.1-.5 1.4-.4.6v.2l-.1.1-.1.2q-.5.5-1.4 1.2l-.8.7q-1.5 1.2-2.5 2.6t-1.6 3.2l-.4.9-.2.5-.5 1.2 7.5-21.2a1 1 0 0 0-.5-1.1 1 1 0 0 0-1.2.4l-8.6 18.1v-.7l-.1-.7q-.2-1.5 0-2.8t.8-2.6l.3-.8.3-.6.7-1.8q.1-1.8 0-3.3v-.4q-.3-1.4-.3-2.8a7 7 0 0 1 .8-2.6 1.2 1.2 0 0 0-.4-1.6 1.2 1.2 0 0 0-1.7.4 9 9 0 0 0-1.2 3.4v5.9h-.1v.3L132 38l-.5 1a13 13 0 0 0-1.2 3.4Q130 44 130 46v3.4l-1.4-22.6c0-1.1-1.7-1.1-1.8 0l-1 21.1-.3-.8-.4-.9-.1-.1-.2-.5q-.7-1.3-1-2.6a9 9 0 0 1-.3-2.7v-1l.1-.6v-2a10 10 0 0 0-1.2-3l-.2-.3q-.8-1.4-1.2-2.6a7 7 0 0 1-.2-2.7 1.2 1.2 0 0 0-1-1.3q-.4-.1-.8.2-.4.2-.5.7a9 9 0 0 0 0 3.7q.5 1.8 1.2 3.2l.6 1.4.2.7v.2l.1.3-.1 1.8-.1 1q-.2 2 0 3.6t1 3.5l.4.7.3.7.2.5-9.7-19.4a1 1 0 0 0-1.1-.4 1 1 0 0 0-.5 1l7.3 20-.7-.7-.6-.6h-.1l-.5-.5-1.9-2-1.3-2.4-.2-.7-.1-.2-.2-.6-.8-1.8q-1-1.5-2.3-2.3l-.3-.3-2.1-1.9q-.8-1-1.2-2.4a1.2 1.2 0 0 0-2.3.6 9 9 0 0 0 1.4 3.4q1.1 1.4 2.4 2.5l1.1 1 .5.5v.2l.1.1.1.2q.4.6.6 1.7l.3 1a13 13 0 0 0 1.5 3.3q1 1.4 2.3 2.7l.5.5.6.6.4.5L99 38.4a1 1 0 0 0-1.3 0 1 1 0 0 0 0 1.3l14.6 15.4-1-.3-.6-.3h-.3l-.6-.2q-1.4-.5-2.5-1.1a10 10 0 0 1-2.2-1.8l-.5-.6-.5-.5q-.5-.8-1.4-1.3a9 9 0 0 0-3-1.3l-.4-.1q-1.5-.3-2.7-1t-2-1.7q-.8-.8-1.7-.2-.4.3-.5.8t.2.9q1 1.5 2.7 2.5 1.5.9 3.2 1.4l1.3.5.8.4h.1l.2.2 1.2 1.3.7.8q1.2 1.5 2.6 2.5t3.2 1.6l.8.3.6.3 1.2.5L90 51.2a.9.9 0 0 0-.7 1.7l18.1 8.6h-.7l-.7.1q-1.5.2-2.8 0a9 9 0 0 1-2.6-.7l-.8-.4-.6-.3-1.8-.6a10 10 0 0 0-3.3 0h-.4q-1.4.3-2.9.2a7 7 0 0 1-2.5-.8 1.2 1.2 0 0 0-1.6.4 1.2 1.2 0 0 0 .4 1.7 9 9 0 0 0 3.4 1.2q1.8.3 3.5 0h2.2l.2.1h.3l1.6.8 1 .5q1.6.9 3.4 1.2 1.4.3 3 .3h3.9L87 66.7a1 1 0 0 0-.8.9q0 .7.8.9Zm27.6 7.2.8-.3 1.3-.5 1-.4 1.2-.3 1.2-.3 1-.3 1.4-.3.8-.1 1.8-.2h5.7l1.8.2.8.1 1.4.3 1 .3 1.2.3 1.2.3 1 .4 1.3.5.8.3 1.4.7.7.3 1.5.8.5.3 1.6 1 .3.2 2 1.4c13.9 10.4 23.5 30.9 24.2 54.6h-43.9v-14.4h.2l4.8-.6q3.8-.7 8-2.4a2 2 0 0 0 1.5-1.7q.3-1 .2-2.6a13 13 0 0 0-1.5-4.9l-.1-.2c-2-4-5.8-11-7.6-13.2 0 0-4.4-5.3-9.2-4.5a14 14 0 0 0-4.3 1.2 38 38 0 0 0-8.3 5.2 5 5 0 0 0-1.6 5.8q.5 1.6 1.9 2 1 .3 2.3-.4v-.1h.2-.1v.2l-.8 1.2-1.8 3.2-.6 1.5a10 10 0 0 0-.2 3.5q0 1.4.5 2.6.5 1.5 1.7 1.9h.2l.3.1a38 38 0 0 0 10.8 2.2v14.3H82.5c.7-23.6 10.4-44 24.3-54.6h.1l1.8-1.3.3-.2 2.1-1.3 1.5-.8.7-.4zm58.9 66v.1q-.3 6-1.3 11.7a145 145 0 0 1-21.1-2.7c-5.2-1.7-15.2-4.4-17.1-4.5-1.1-.1-3-.1-4.4.2v-9.8h44v1zM148.9 195l-2.4 1.6-.2.1-1 .7-.7.3-1.6.9-1 .4-2.4 1-.6.3-1.4.4-.6.2-1.8.5h-.5l-1.7.4h-.4l-2 .3h-5.1l-2-.3h-.4l-1.7-.3-.5-.1-1.8-.5-.6-.2-1.6-.5-.3-.1-1.8-.7-.6-.3-2.3-1.2-1.1-.6-.8-.4-1.4-1-.9-.5-.7-.6-2.1-1.7-1-.8-.4-.4-2-1.8v-.2A61 61 0 0 1 90 173.2c2.4-1 10.5-4.8 14.9-7.3 2.2-1.3 5.7-3.1 7.3-3.7v.7q0 1 1 1.7.8.4 1.7.3.1.8.7 1.4.8.7 2 .7.6 0 1.2-.4.2.6.6 1 .7.7 1.8.7.7 0 1.4-.5l.3.5q1.3 1.3 3.4.2v19.9q.1 1.6 1.7 1.7c1.6.1 1.7-.8 1.7-1.7v-19.9q2.1.8 3.3-.5.6-.7.6-1.5l.2.2c2 1.2 3.5.7 4.1-.2q.6-.7.5-1.6c1.8 1 3.1.4 3.7-.4q.5-.5.5-1.3a3 3 0 0 0 3.2-.5l.5-.8 1.4 1.1 1.8 1.5c2.5 1.9 12.8 6.8 16.9 8.2a57 57 0 0 1-17.5 22.4Zm-66.4-53.6-.1-4v-.9h43.8v9.8l-3.6-.2c-1.8.1-11.9 2.8-17 4.5-4.7 1.5-19.7 2.6-21.7 2.8a92 92 0 0 1-1.4-11.8zm43.2-43h-.4c-1.6 0-7 1.2-8.4 2.9-.4.5-1.4 1.6-2.4 1.6q-.7 0-1.2-.8a4 4 0 0 1 .2-2.9 3 3 0 0 1 1-1.2 46 46 0 0 1 6.4-4.3 16 16 0 0 1 4.4-1.5c2.7-.5 6.5 0 11.6 8.6l1.4 3 .7 1.4a23 23 0 0 0-6.6-.4q-3 .5-6 1.7l-4.7 1.7c-1.6.4-3 .8-2.9 2.4l.1.6.4-.4q1.6-1.2 3.7-1.7l.5-.2 2.3-.8 3.8-1.2q7.2-1.7 10.8.5.2 0 .3.2a13 13 0 0 1 2 5.6q.2 1.3 0 2-.1.4-.3.5h-.4l-3.2-1-4.8-1a41 41 0 0 0-6-.2c-3 0-4.6.4-7.6 1.4l-3.2 1.2-.7.3q-.6.2-1 .1-.5 0-.8-.6l-.4-1.7a11 11 0 0 1 0-3l.5-1.8 2.4-4.1.1-.2.2-.4c.3-.5.6-1.5.8-2.1.5-1.7 3.7-2.6 5.8-3.2l1.5-.5.5-.2zm14 18.3a41 41 0 0 1-10 2.2v-3.7h.1q4.8 0 10 1.5M129.4 148c1-.5 3.3-.5 4.5-.4a167 167 0 0 1 16.8 4.5c4.5 1.5 17.6 2.5 21.2 2.8a80 80 0 0 1-5 16 95 95 0 0 1-16.7-7.6l-1.7-1.4c-2.4-2-4.8-4.2-6.2-5.6l-.3-.3-.7-.6c-1.3-1.2-7.5-4.4-10-4.1q-1.9.4-3.5 1.5l-2 1a12 12 0 0 1-4.5.3q-.4-.2-.4-.6.2-.5 2.7-1.5a20 20 0 0 0 3.3-2.3q1.6-1.4 2.5-1.7Zm-3.3-32.4v3.4a34 34 0 0 1-7.9-1.5q3.9-1.5 8-2m.7 32.4-.7.5-.2.2c-1 .8-2.3 1.7-3 2q-2.9 1.2-3.4 2.3-.5 1.3.9 2.4c.8.6 4 .3 5.6-.2q1.4-.4 2.4-1.1 1.5-1 3-1.3c1.7-.2 7.6 2.6 8.8 3.7l1 1 3.2 3c.6.7.3 1.1.1 1.3q-.8.8-2.3-.3l-.6-.6-.8-.7-3.5-3q-.7-.5-1-.1l-.3.3v.4l.3.3 2.2 2.1.3.3 1.6 1.5q.8 1.2.3 1.7-.4.8-2.2-.1l-1.1-.8-.3-.2-1.5-1.4-.5-.4-2.4-2q-.5-.4-.8-.1a.7.7 0 0 0-.1 1.1l2.8 2.8 1.6 1.4q.8 1.1.3 1.7-.4.8-2.2-.1l-.3-.1-1.7-1.3q-2.3-1.9-2.6-1.9a1 1 0 0 0-.7.4v.3q-.3.3 0 .5c.3.2 0 0 0 0l.3.2 1 1q1 .8 1 1c.8.8.4 1.4.3 1.5q-.5.7-2-.1l-1-.7q.4-.7.4-1.5.2-.7-1.2-1.6a3 3 0 0 0-2-.2q.2-1-1.5-1.7l-1.4-.2q0-1-1.7-1.9a3 3 0 0 0-2.7.1q0-.5-.4-1-1-1.3-2-1.2-1.7.2-3.5 3.3c-2 .7-8.2 3.8-8.4 4l-5.2 2.5q-7.2 3.7-10 4.7l-2-5.3a87 87 0 0 1-2.8-11.4c2.3-.1 17.1-1.3 21.5-2.8 5-1.6 15-4.3 16.8-4.4.8 0 2.7 0 4.2.3Zm-10.1 15.5.2-.3v-.1c.9-1.2 1.9-2.4 3-2.5h.1l.6.1q1 .5.8.7v.5q-1.4 1.2-2 2.1l-.2.3-.2.4-.3.2q-1.7 1-2.3.4t.3-1.8Zm-1-1.3-.3.4-.3.6q-.8.7-1.4.3t0-2q1.6-3 2.6-2.9.2-.1.7.5.2.3.2.7l-.1.7zm4.6 3 .3-.3q1.2-2 2.6-2.3h.1l.6.1q.7.3.6.6l-.2.7-1 1.1-.2.3-.5.6-.5.4q-1.5.9-2 .3-.4-.5.3-1.5Zm3.7 1.1.2-.2.1-.1q1.2-1.5 2.4-1.7l.6.1q.5.5.4.6c0 .3-.4 1.3-2.3 2.4q-1.2.7-1.7.2t.3-1.3M157.5 80 140.9 74a35 35 0 0 0-9-2.2l-1-.1-.8-.1h-4.9l-1.5.2-.7.1-1.7.3-.6.1-4.8 1.5-1 .4-.9.3-15.7 5.9.3-.6.2-.4 13.1-6.5.2-.1-.1-.4-.1-.5-.1-.4h-.6l-1.4.3-1.4.5-.8.3-.7.3q-1.6.7-3.2 1a12 12 0 0 1-3.3 0l-1.1-.1-2.3-.1h-.4l-.7.3-1.5.6q-1.4.8-3 1.2a8 8 0 0 1-3.2 0H88v-.2l.1-.1q1.6.2 3-.2 1.5-.5 3-1.3l.3-.2q1.1-.7 2.7-1l1.7-.1h1.6a10 10 0 0 0 3-.2q1.4-.3 2.8-1l.5-.3h.1l.8-.4 1.6-.7 1.7-.4.4-.1v-1l-21.7-1 21.4-1.3h.3v-.5l.1-.5V65l-.1-.3h-.1v-.1l-.6-.2-1.4-.2h-3.1q-1.7 0-3.3-.3t-3.1-1.1l-1-.5-2-1H94q-1.6.2-3.3 0a8 8 0 0 1-3-1.1V60h.1q1.4.7 3 .9 1.6 0 3.1-.2h.4q1.4-.4 3 0 .8.1 1.5.5l.7.3.7.4q1.5.6 3 .8 1.3.2 3 0h.7l.9-.1h4.2l-19.8-9.5 20.5 7.3h.3l.6-1.1-.2-.3-.4-.3-1.1-.8-2.2-1-.7-.2q-1.6-.6-3-1.5a12 12 0 0 1-2.4-2.3l-.7-.8-1.6-1.7-1-.5-1.5-.6q-1.5-.4-3-1.3a8 8 0 0 1-2.3-2.2v-.2h.3a8 8 0 0 0 2.3 2q1.5.7 3 1l.4.1q1.2.3 2.6 1.1.8.6 1.3 1.2l.4.4.6.8q1.1 1.1 2.4 1.8 1.2.8 2.7 1.3l.7.2.9.3 1.5.6q.9.3 1.6.9h.1l.4.4.7-.8-15-16 16.4 14.2.2.1 1-.7-.2-.4-.2-.4-.7-1.1-1-1.1-.6-.6-.1-.1-.5-.5-2.1-2.5a12 12 0 0 1-1.4-3l-.3-1.1q-.2-1-.6-1.9l-.2-.2v-.1l-.2-.3-.5-.6-1.2-1-2.2-2.4a8 8 0 0 1-1.3-3l.1-.2q.2 0 .2.2a8 8 0 0 0 1.4 2.7l2.3 2 .3.4a9 9 0 0 1 2 2q.5.7.8 1.6l.2.5v.1l.3.9q.5 1.5 1.4 2.6t2 2.2l.6.5.7.6 1.2 1.2q.6.6 1 1.3l.4.6.9-.5-7.6-20.5 9.6 19.4.1.2.4-.1.5-.2h.3V51l-.3-1.4-.7-2.1v-.1l-.3-.7a14 14 0 0 1-1-3.2 12 12 0 0 1 0-3.3v-1l.1-2.4v-.4l-.3-.7-.6-1.4q-.7-1.5-1.1-3a8 8 0 0 1 0-3.3v-.1h.1l.2.1a8 8 0 0 0 .2 3q.5 1.6 1.3 3l.2.3q.6 1.1 1 2.7v3.3q-.1 1.5.2 3l1 2.8.3.5v.1l1.1 2.4.5 1.7v.5h.6l.5-.1 1-21.7 1.3 21.4v.3h1l.4.1.1-.3.2-.5q.2-.6.2-1.4l.1-1.5V46q0-1.7.2-3.3t1.1-3.1l.5-1 .9-1.8v-.4l.1-.3v-2.3q-.1-1.6 0-3.3a8 8 0 0 1 1.1-3l.1-.1h.2v.2a8 8 0 0 0-.9 3q0 1.5.2 3v.5q.4 1.3 0 2.9l-.5 1.6-.3.6v.1l-.3.7a11 11 0 0 0-.9 3q-.2 1.3 0 3v.6l.1 1v4.2l9.5-19.9-7.2 20.5-.1.3.4.2.5.2.3.2.3-.3.2-.2.8-1.2.6-1.3.3-.8.1-.2.2-.5q.7-1.7 1.6-3a15 15 0 0 1 3-3.1L145 41l.2-.4.4-.6.5-1.5 1.3-3a8 8 0 0 1 2.2-2.3q0-.1.2 0t0 .2a8 8 0 0 0-2 2.4l-1 3v.3q-.4 1.3-1.2 2.7-.5.7-1.1 1.2l-.5.4-.7.7q-1.2 1-2 2.3l-1.1 2.8-.2.6v.2l-.3.7-.6 1.6-1 1.6-.2.4.8.6 15.8-15-14 16.4-.2.2.3.4.3.3.3.4.4-.2v-.1q.7-.3 1.3-.8l1-1 .5-.5h.2l.5-.6q1.2-1.3 2.6-2.2 1.4-.8 3-1.3l1-.3q1.1-.3 1.9-.7l.3-.1.3-.3.6-.5 1-1.1 2.4-2.3a8 8 0 0 1 3-1.3h.1l.1.2-.1.2q-1.5.4-2.8 1.4t-2 2.3l-.3.3q-.8 1-2.1 2l-1.5.7-.6.2-1 .3q-1.4.6-2.6 1.5a13 13 0 0 0-2.6 2.5l-.2.2-.5.5L144 58l-1.4 1-.4.3.3.4v.1l.2.4 20.3-7.5-19.1 9.5-.3.1.2.5.1.5.2.4h.4l1.3-.3 1.4-.5.8-.3h.1l.6-.3q1.6-.7 3.2-1 1.6-.2 3.3 0h1.1l2.3.2h.1l.3-.1.7-.2 1.5-.6q1.5-.8 3-1.2a8 8 0 0 1 3.3 0l.1.2q0 .1-.2.1a8 8 0 0 0-3 .2q-1.5.5-2.9 1.3l-.3.2q-1.2.7-2.8 1-.8.2-1.6.1H155q-1.5-.2-3 .2-1.3.3-2.8 1l-.6.3-.2.1-.6.3-1.6.7-1.4.4h-.5v.5l.1.5 21.7 1.4-21.4.9h-.3v.4l-.1.8v.5l.3.1h.2q.7.3 1.4.3h3.1q1.8 0 3.3.3 1.6.3 3.2 1l1 .6q.8.5 1.7.8l.3.1h.4l.7.1h1.6q1.6-.2 3.3 0t3 1l.1.2q.1.1 0 .1h-.2a8 8 0 0 0-3-.8q-1.6 0-3 .2h-.5q-1.4.3-3 0l-1.5-.5-.6-.3-.8-.4q-1.5-.6-3-.8-1.3-.2-3 0h-1.5l-1.7.1h-2.6l13.2 6.3h.3l.4 1Z"/><path fill="#f4f6ff" d="M82.8 94.5c1.5-.9 2.7-1.5 3.6-3.3l.3-1.2.2-1q.3-2.2.3-4.5v-.3l-.3.3c-1.6 1.4-3.7 3.3-4.4 5-.8 1.6-.4 3.7-.1 5.2z"/><path fill="#f4f6ff" d="m92.2 89 .2-.4-.5.1c-1.3.2-3 .5-4.3 1l-.5 1.8c-.9 1.9-2.2 2.7-3.6 3.5 1.5 0 2.8 0 4.4-.9 1.5-1 3.1-3.4 4.3-5.2Z"/></svg>
