<svg id="Layer_1" data-name="Layer 1" xmlns="http://www.w3.org/2000/svg" viewBox="0 0 337.89 46.93"><defs><style>.cls-1{fill:#31baec;}</style></defs><title>logo_argentina_unida</title><path d="M40.87,47.47,38,38.75a.73.73,0,0,0-.69-.5H25.2a.71.71,0,0,0-.69.5l-2.85,8.72A.73.73,0,0,1,21,48H16.53a.73.73,0,0,1-.69-1L26.72,14.69a.72.72,0,0,1,.69-.49h7.76a.73.73,0,0,1,.69.49L46.73,47A.73.73,0,0,1,46,48H41.56A.71.71,0,0,1,40.87,47.47ZM27.25,33.37h8a.74.74,0,0,0,.69-1l-4-12.26a.72.72,0,0,0-1.38,0l-4,12.26A.74.74,0,0,0,27.25,33.37Z" transform="translate(-15.8 -11.54)"/><path d="M51.18,23.08h3.57a.72.72,0,0,1,.72.62l.37,2.61h.32A7,7,0,0,1,59,23.67,8.8,8.8,0,0,1,63,22.78a12.16,12.16,0,0,1,1.34.07.73.73,0,0,1,.64.73v4a.71.71,0,0,1-.78.72c-.45,0-1-.06-1.54-.06a8.79,8.79,0,0,0-3.5.73,6.38,6.38,0,0,0-2.55,1.87.72.72,0,0,0-.16.47v16a.73.73,0,0,1-.73.73H51.18a.73.73,0,0,1-.73-.73V23.8A.73.73,0,0,1,51.18,23.08Z" transform="translate(-15.8 -11.54)"/><path d="M72.21,58.2a26,26,0,0,1-3.38-.64.73.73,0,0,1-.54-.71V53.61a.73.73,0,0,1,.92-.69,27.07,27.07,0,0,0,6.64.89A11.21,11.21,0,0,0,80,53.16a4.49,4.49,0,0,0,2.36-2.09,8.07,8.07,0,0,0,.77-3.79v-2h-.3A8,8,0,0,1,80,47.42a9.18,9.18,0,0,1-3.78.75,9.3,9.3,0,0,1-4.84-1.29,8.9,8.9,0,0,1-3.46-4A15.82,15.82,0,0,1,66.61,36q0-6.59,3.42-9.95t10.18-3.4a32.49,32.49,0,0,1,4.63.34,25.62,25.62,0,0,1,3.75.8.72.72,0,0,1,.51.7V46.21a15.16,15.16,0,0,1-1.4,7,8.65,8.65,0,0,1-4.23,4,17.75,17.75,0,0,1-7.19,1.26A31.68,31.68,0,0,1,72.21,58.2ZM81,42.77a5.5,5.5,0,0,0,1.94-1.29.77.77,0,0,0,.2-.52V28.29a.75.75,0,0,0-.6-.73,15.13,15.13,0,0,0-2.83-.26,6.76,6.76,0,0,0-5.3,2q-1.77,2-1.77,6.25t1.48,6a5.26,5.26,0,0,0,4.25,1.75A7.15,7.15,0,0,0,81,42.77Z" transform="translate(-15.8 -11.54)"/><path d="M114.52,37.31H100.63a.74.74,0,0,0-.72.83,8,8,0,0,0,.85,3,4.61,4.61,0,0,0,2.47,2.06,12.59,12.59,0,0,0,4.45.64A24.88,24.88,0,0,0,113,43.2a.74.74,0,0,1,.9.71v3a.75.75,0,0,1-.57.72,29.19,29.19,0,0,1-6.51.76,17.2,17.2,0,0,1-7.31-1.35,8.89,8.89,0,0,1-4.28-4.19,16.62,16.62,0,0,1-1.41-7.38,17,17,0,0,1,1.3-7,9.21,9.21,0,0,1,3.77-4.32,11.48,11.48,0,0,1,6-1.45q5.09,0,7.74,3.27t2.64,9.73v.9A.72.72,0,0,1,114.52,37.31Zm-13.37-9.08A8.74,8.74,0,0,0,99.85,33a.73.73,0,0,0,.73.76h8.33a.73.73,0,0,0,.73-.76,9.07,9.07,0,0,0-1.24-4.74,4.15,4.15,0,0,0-3.57-1.64A4.36,4.36,0,0,0,101.15,28.23Z" transform="translate(-15.8 -11.54)"/><path d="M120.43,23.08H124a.73.73,0,0,1,.72.61l.31,2h.32a9.72,9.72,0,0,1,3.35-2.24,11,11,0,0,1,4.11-.77,8.14,8.14,0,0,1,6.1,2.27q2.24,2.26,2.23,7.17V47.24a.73.73,0,0,1-.72.73h-4.53a.73.73,0,0,1-.72-.73V32.48a5,5,0,0,0-1-3.55,4.11,4.11,0,0,0-3.06-1.06,7.57,7.57,0,0,0-3,.62,6.1,6.1,0,0,0-2.27,1.68.74.74,0,0,0-.17.48V47.24A.73.73,0,0,1,125,48h-4.52a.73.73,0,0,1-.73-.73V23.8A.73.73,0,0,1,120.43,23.08Z" transform="translate(-15.8 -11.54)"/><path d="M161.73,44v3.33a.74.74,0,0,1-.58.72,19,19,0,0,1-3.73.38q-8.85,0-8.85-8.93V28.57a.73.73,0,0,0-.73-.73H145a.72.72,0,0,1-.72-.72V23.8a.72.72,0,0,1,.72-.72h2.92a.73.73,0,0,0,.72-.65l.9-7.59a.72.72,0,0,1,.72-.64h3.56a.72.72,0,0,1,.72.73v7.42a.73.73,0,0,0,.73.73h5.5a.72.72,0,0,1,.73.72v3.32a.72.72,0,0,1-.73.72h-5.5a.73.73,0,0,0-.73.73v10a7.38,7.38,0,0,0,.47,2.89A2.92,2.92,0,0,0,156.44,43a5.83,5.83,0,0,0,2.53.47,13.65,13.65,0,0,0,1.93-.17A.72.72,0,0,1,161.73,44Z" transform="translate(-15.8 -11.54)"/><path d="M165.69,18a3.05,3.05,0,0,1-.95-2.41,3.08,3.08,0,0,1,.95-2.42,5.22,5.22,0,0,1,5.68,0,3.08,3.08,0,0,1,.95,2.42,3.05,3.05,0,0,1-.95,2.41,5.27,5.27,0,0,1-5.68,0Zm-.17,29.26V23.8a.72.72,0,0,1,.73-.72h4.54a.73.73,0,0,1,.73.72V47.24a.73.73,0,0,1-.73.73h-4.54A.73.73,0,0,1,165.52,47.24Z" transform="translate(-15.8 -11.54)"/><path d="M178.18,23.08h3.6a.73.73,0,0,1,.72.61l.31,2h.32a9.77,9.77,0,0,1,3.34-2.24,11.09,11.09,0,0,1,4.12-.77,8.17,8.17,0,0,1,6.1,2.27q2.24,2.26,2.23,7.17V47.24a.73.73,0,0,1-.73.73h-4.52a.73.73,0,0,1-.73-.73V32.48a4.94,4.94,0,0,0-1.05-3.55,4.1,4.1,0,0,0-3-1.06,7.57,7.57,0,0,0-3,.62,6.1,6.1,0,0,0-2.27,1.68.74.74,0,0,0-.17.48V47.24a.73.73,0,0,1-.73.73h-4.52a.73.73,0,0,1-.73-.73V23.8A.73.73,0,0,1,178.18,23.08Z" transform="translate(-15.8 -11.54)"/><path d="M219.07,23.63a6.66,6.66,0,0,1,3.5,3.12,12.6,12.6,0,0,1,1.15,5.89v14.6A.73.73,0,0,1,223,48h-3.61a.74.74,0,0,1-.72-.61l-.31-2H218a7,7,0,0,1-2.88,2.25,9.79,9.79,0,0,1-3.92.76,9.55,9.55,0,0,1-4.22-.87,6.26,6.26,0,0,1-2.73-2.45,7.15,7.15,0,0,1-.94-3.73A6.46,6.46,0,0,1,205.72,36c1.58-1.26,4.09-2,7.51-2.3l4.65-.44v-1a6.22,6.22,0,0,0-.6-3,3.42,3.42,0,0,0-1.9-1.54,10.76,10.76,0,0,0-3.45-.45,23.91,23.91,0,0,0-5.81.77.72.72,0,0,1-.92-.69V24.31a.71.71,0,0,1,.52-.7A23.63,23.63,0,0,1,209,23a30.89,30.89,0,0,1,4-.27A16.71,16.71,0,0,1,219.07,23.63Zm-3.41,20a5.84,5.84,0,0,0,2-1.38.73.73,0,0,0,.21-.52v-4.2a.72.72,0,0,0-.79-.72l-3.29.29a6.35,6.35,0,0,0-3.44,1.13,3.1,3.1,0,0,0-1.08,2.52,3.18,3.18,0,0,0,1,2.51,4.12,4.12,0,0,0,2.84.87A6.91,6.91,0,0,0,215.66,43.66Z" transform="translate(-15.8 -11.54)"/><path class="cls-1" d="M237.12,45.78c-1.56-1.61-2.33-4.12-2.33-7.55V24.42A1.25,1.25,0,0,1,236,23.17H242a1.25,1.25,0,0,1,1.25,1.25V37.63a3.72,3.72,0,0,0,.71,2.58,2.68,2.68,0,0,0,2,.76,5.16,5.16,0,0,0,2-.42,4.12,4.12,0,0,0,1.64-1.15v-15a1.25,1.25,0,0,1,1.25-1.25h5.93A1.25,1.25,0,0,1,258,24.42V46.51a1.25,1.25,0,0,1-1.25,1.25h-5.68l-.56-2.4h-.34a9.25,9.25,0,0,1-6.74,2.83A8.4,8.4,0,0,1,237.12,45.78Z" transform="translate(-15.8 -11.54)"/><path class="cls-1" d="M263.06,24.42a1.25,1.25,0,0,1,1.25-1.25H270l.56,2.4h.38A8.66,8.66,0,0,1,274,23.48a10.69,10.69,0,0,1,3.93-.71,8.16,8.16,0,0,1,6.25,2.43q2.31,2.43,2.31,7.57V46.51a1.25,1.25,0,0,1-1.25,1.25h-5.93a1.25,1.25,0,0,1-1.25-1.25V33.3a3.64,3.64,0,0,0-.73-2.57,2.86,2.86,0,0,0-2.16-.74,5.3,5.3,0,0,0-2.06.41,4.34,4.34,0,0,0-1.66,1.15v15a1.25,1.25,0,0,1-1.25,1.25h-5.93a1.25,1.25,0,0,1-1.25-1.25Z" transform="translate(-15.8 -11.54)"/><path class="cls-1" d="M291.78,19.12A4,4,0,0,1,290.52,16a4,4,0,0,1,1.26-3.15,7.31,7.31,0,0,1,7.68,0A4,4,0,0,1,300.72,16a4,4,0,0,1-1.26,3.17,7.31,7.31,0,0,1-7.68,0Zm-.38,27.39V24.42a1.25,1.25,0,0,1,1.25-1.25h5.94a1.25,1.25,0,0,1,1.25,1.25V46.51a1.25,1.25,0,0,1-1.25,1.25h-5.94A1.25,1.25,0,0,1,291.4,46.51Z" transform="translate(-15.8 -11.54)"/><path class="cls-1" d="M308.88,46.91a9.1,9.1,0,0,1-3.67-4A15.26,15.26,0,0,1,303.84,36q0-6.39,3.5-9.81t10.24-3.42c.67,0,1.48.05,2.44.14V12.79a1.25,1.25,0,0,1,1.25-1.25h5.93a1.25,1.25,0,0,1,1.25,1.25V46.51a1.25,1.25,0,0,1-1.25,1.25h-5.81l-.52-2.55h-.36a7.3,7.3,0,0,1-2.71,2.2,8.32,8.32,0,0,1-3.74.8A10.32,10.32,0,0,1,308.88,46.91Zm9.61-5.84a4.27,4.27,0,0,0,1.53-.88V29.31a12.23,12.23,0,0,0-2.42-.22,5.08,5.08,0,0,0-4,1.46c-.87,1-1.3,2.56-1.3,4.79s.37,3.77,1.11,4.68a3.92,3.92,0,0,0,3.22,1.35A6,6,0,0,0,318.49,41.07Z" transform="translate(-15.8 -11.54)"/><path class="cls-1" d="M348.63,23.81a7.12,7.12,0,0,1,3.83,3.42,14.12,14.12,0,0,1,1.24,6.45V46.51a1.25,1.25,0,0,1-1.26,1.25h-5.65l-.58-2.33h-.38a6.17,6.17,0,0,1-2.65,2.12,9.19,9.19,0,0,1-3.66.68,9.68,9.68,0,0,1-4.38-.92,6.52,6.52,0,0,1-2.81-2.55,7.34,7.34,0,0,1-1-3.79,6.7,6.7,0,0,1,2.56-5.62C335.64,34,338.35,33.26,342,33l3.45-.22a4.26,4.26,0,0,0-.57-2.2,3,3,0,0,0-1.66-1.17,11,11,0,0,0-3.11-.35,23.62,23.62,0,0,0-3.3.25,21.76,21.76,0,0,0-3.37.71V23.8a29,29,0,0,1,4-.77,34.52,34.52,0,0,1,4.2-.26A18.86,18.86,0,0,1,348.63,23.81ZM344,42.22a4.3,4.3,0,0,0,1.48-.78V37.38l-2.56.18a4.4,4.4,0,0,0-2.5.77,2.26,2.26,0,0,0-.79,1.83,2.1,2.1,0,0,0,.71,1.72,3.08,3.08,0,0,0,2,.59A5.39,5.39,0,0,0,344,42.22Z" transform="translate(-15.8 -11.54)"/></svg>