<svg width="640" height="360" viewBox="0 0 640 360" fill="none" 
xmlns="http://www.w3.org/2000/svg" 
xmlns:xlink="http://www.w3.org/1999/xlink">
<defs>
<ref id="colorOne" param="c1" default="#242C4F" />
<ref id="colorTwo" param="c2" default="#9296A7"/>
</defs>
<path d="M374.998 262L281.398 258.5L278.398 291.2L277.898 301.6C313.698 302.5 344.698 299.5 378.898 300.4C378.998 298.8 379.098 297.7 379.098 297.3C379.798 277.8 374.998 262 374.998 262Z" fill="black"/>
<path d="M370.797 223.898L373.597 174.098L370.297 133.898L340.097 125.198C340.097 125.198 333.697 143.198 326.197 143.198C320.397 143.198 305.897 127.598 305.897 127.598L298.297 128.598L289.397 128.998L283.197 127.498L277.597 129.198L257.197 130.198L252.397 129.998L292.497 92.1984L285.797 75.8984L227.397 114.598C227.397 114.598 210.997 126.698 222.097 143.898C227.697 152.598 237.197 161.598 249.397 166.798C255.197 169.298 275.297 174.398 275.297 174.398L279.997 218.798L280.797 266.698C285.997 270.698 305.697 282.398 332.897 281.098C355.597 279.998 370.597 270.998 376.297 266.698C374.597 252.498 372.697 238.198 370.797 223.898Z" fill="url(#colorOne)"/>
<path d="M374.602 223.4C385.502 226.3 399.202 229.8 402.902 230.2C413.602 231.6 422.102 223 420.902 213.6C420.002 206.9 390.002 153.3 383.802 143.1C380.002 136.8 369.102 133.6 369.102 133.6V184.4L379.702 198.6L381.902 202.8L375.402 202" fill="url(#colorOne)"/>
<path d="M375.601 222.999C381.601 224.499 387.701 225.999 393.801 227.399C396.801 228.099 399.901 228.799 402.901 229.299C408.901 230.099 415.401 227.199 418.401 221.899C420.001 219.299 420.601 216.199 420.201 213.299C419.601 210.299 418.001 207.599 416.801 204.799C409.901 190.799 402.301 177.199 394.801 163.599C391.801 158.199 388.701 152.699 385.601 147.299L383.201 143.299C381.001 139.399 376.301 136.899 372.701 135.299L339.801 125.899L340.801 125.399C338.501 131.199 332.701 145.299 324.801 143.699C320.601 142.299 317.501 139.399 314.201 136.699C311.101 133.899 308.101 130.999 305.301 127.999L305.801 128.199L298.201 129.199L289.301 129.499H289.201H289.101L282.901 127.999H283.201L277.601 129.699H277.501H277.401L257.001 130.599L252.201 130.399H251.301L251.901 129.799C262.001 120.499 282.101 101.499 292.101 92.0992L292.001 92.4992L285.301 76.1992L285.901 76.3992C274.501 84.0992 245.201 103.699 234.101 111.099L229.801 113.999C228.601 114.799 226.801 115.999 225.801 117.099C210.501 132.699 223.701 148.299 237.301 158.999C241.401 161.999 245.901 164.599 250.601 166.499C258.901 169.399 267.601 171.599 276.101 173.799L276.201 174.499C276.201 174.599 281.001 218.899 281.001 218.999L281.801 266.899L281.401 266.099C309.701 285.499 347.601 285.899 376.001 266.399L375.801 266.999C374.401 256.299 371.701 234.799 370.301 224.099L371.801 200.799H372.001C372.001 200.699 370.901 224.299 370.901 224.099C372.401 234.699 375.501 256.299 376.901 266.999V267.299L376.601 267.499C369.601 272.299 361.901 276.099 353.701 278.699C329.201 286.599 301.401 282.299 280.201 267.899L279.801 267.599V267.099L279.001 219.199C279.001 219.699 274.301 174.799 274.301 174.899L275.101 175.799C265.901 173.199 256.401 171.199 247.601 167.499C235.801 161.899 225.101 152.699 219.201 140.899C214.401 130.599 219.801 118.699 229.101 113.099C231.801 111.399 247.701 100.799 250.801 98.7992L285.601 75.9992L286.001 75.6992L286.201 76.0992L292.801 92.3992L292.901 92.5992L292.701 92.7992C282.701 102.199 262.501 121.099 252.601 130.599L252.401 129.999L257.201 130.199C257.201 130.299 277.901 129.099 277.401 129.199L283.001 127.399H283.101H283.201L289.501 128.799H289.401C289.401 128.799 298.501 128.299 298.201 128.399L305.801 127.299H306.101L306.301 127.499C309.101 130.499 312.101 133.299 315.201 135.999C318.201 138.499 321.501 141.399 325.201 142.599C326.901 142.999 328.701 142.099 330.101 140.799C334.401 136.599 337.001 130.799 339.201 125.199L339.501 124.499L340.301 124.699C340.401 124.799 373.201 133.999 373.301 134.099C377.601 135.999 382.201 138.599 384.701 142.899L387.101 146.999C390.201 152.399 393.301 157.899 396.301 163.299C403.801 176.999 411.301 190.699 418.001 204.799C419.301 207.699 420.801 210.499 421.401 213.699C421.701 216.899 421.001 220.299 419.301 222.999C416.001 228.599 409.201 231.499 402.801 230.599C399.701 230.099 396.701 229.299 393.601 228.499C387.501 226.999 381.501 225.399 375.501 223.699C375.501 223.199 375.601 222.999 375.601 222.999Z" fill="black"/>
<path d="M372.698 188.6C374.398 189.7 375.798 191.2 376.798 192.9C377.298 193.8 377.598 194.7 378.198 195.6C378.798 196.4 379.498 197.1 380.198 197.9C381.598 199.6 382.798 201.7 383.898 203.7C380.998 203.5 378.098 203 375.498 201.7V201.5C377.698 201.1 379.898 201.1 382.098 201.4L380.998 203C379.698 200.6 379.398 198.1 377.698 196.1C376.398 194.7 374.698 193.5 373.798 191.7C373.298 190.8 372.898 190 372.598 188.9C372.498 188.8 372.698 188.6 372.698 188.6Z" fill="black"/>
<path d="M331.102 149.199L337.802 281.299L343.602 280.099L337.802 147.199L331.102 149.199Z" fill="url(#colorTwo)"/>
<path d="M337.403 281.699L330.703 148.999L338.103 146.699L343.903 280.399L337.403 281.699ZM331.503 149.499L338.103 280.799L343.203 279.799L337.403 147.699L331.503 149.499Z" fill="black"/>
<path d="M305.001 45.499C305.801 42.899 308.401 40.899 311.201 40.899C313.901 37.799 318.801 36.999 322.301 39.099C324.401 37.299 327.501 36.599 330.101 37.499C332.801 38.399 334.901 40.699 335.501 43.399C338.201 42.499 341.401 43.399 343.101 45.599C344.801 47.799 345.001 51.199 343.401 53.499C346.601 53.899 349.201 56.999 349.101 60.199C349.001 63.399 346.201 66.299 343.101 66.499L307.701 52.799C305.301 51.299 304.201 48.199 305.001 45.499Z" fill="black"/>
<path d="M310.202 136.5L307.102 130.8L295.602 80.8004C293.302 72.5004 294.002 64.2004 297.602 58.1004C300.502 53.1004 305.202 49.7004 311.202 48.2004L312.602 47.9004C314.202 47.6004 315.902 47.4004 317.502 47.4004C329.602 47.4004 340.302 55.6004 343.502 67.3004C348.002 83.9004 350.902 95.8004 351.902 101.6C352.802 107 349.802 110.8 347.402 113.9L347.102 114.2C343.702 118.5 340.602 120.4 340.502 120.4L340.102 120.6L341.202 136.2L334.002 147.1L310.202 136.5Z" fill="white"/>
<path d="M317.505 48.2008C329.305 48.2008 339.705 56.2008 342.805 67.6008C347.305 84.2008 350.205 96.0008 351.205 101.801C352.105 106.901 349.205 110.601 346.805 113.501L346.505 113.801C343.205 118.001 340.205 119.901 340.105 119.901L339.405 120.401L339.505 121.301L340.505 136.201L333.805 146.401L310.805 135.901L307.905 130.501L296.405 80.6008C294.205 72.5008 294.905 64.4008 298.305 58.5008C301.105 53.7008 305.605 50.4008 311.405 49.0008L312.805 48.7008C314.205 48.4008 315.905 48.2008 317.505 48.2008ZM317.505 46.8008C315.805 46.8008 314.105 47.0008 312.405 47.3008L311.005 47.6008C296.005 51.3008 290.805 66.1008 294.905 81.0008L306.505 131.101L309.805 137.101L334.405 148.301L342.105 136.601L341.105 121.201C341.105 121.201 344.305 119.301 347.805 114.801C350.205 111.701 353.705 107.601 352.705 101.601C351.505 94.5008 347.805 80.2008 344.305 67.3008C340.805 55.0008 329.705 46.8008 317.505 46.8008Z" fill="black"/>
<path d="M340.405 120.5C340.405 120.5 331.205 122.8 320.305 118.5C320.305 118.5 326.305 128.3 340.605 124.3L340.405 120.5Z" fill="black"/>
<path d="M331.605 94.4993C331.605 94.3993 332.905 93.8993 335.105 93.1993C335.705 92.9993 336.205 92.7993 336.205 92.3993C336.305 91.9993 335.905 91.3993 335.505 90.7993C334.705 89.4993 333.905 88.1993 333.005 86.7993C329.505 80.9993 326.905 76.1993 327.105 76.0993C327.305 75.9993 330.405 80.4993 333.905 86.2993C334.705 87.6993 335.605 89.0993 336.305 90.3993C336.605 90.9993 337.105 91.6993 337.005 92.5993C336.905 93.0993 336.605 93.3993 336.205 93.5993C335.905 93.7993 335.505 93.7993 335.305 93.8993C333.005 94.3993 331.605 94.6993 331.605 94.4993Z" fill="black"/>
<path d="M334.605 72.9996C335.105 72.5996 336.505 73.3996 338.405 73.7996C340.205 74.2996 341.905 74.1996 342.105 74.7996C342.205 75.0996 341.905 75.4996 341.105 75.8996C340.305 76.1996 339.105 76.3996 337.905 76.0996C336.605 75.7996 335.605 75.0996 335.105 74.4996C334.405 73.7996 334.305 73.1996 334.605 72.9996Z" fill="black"/>
<path d="M313.203 78.1996C313.503 77.5996 315.103 77.6996 316.903 77.2996C318.703 76.8996 320.203 76.0996 320.703 76.4996C320.903 76.6996 320.803 77.2996 320.303 77.8996C319.803 78.4996 318.803 79.1996 317.503 79.4996C316.203 79.7996 315.003 79.5996 314.303 79.2996C313.503 78.9996 313.103 78.4996 313.203 78.1996Z" fill="black"/>
<path d="M341.503 60.8003C341.503 60.8003 336.003 52.4003 331.203 51.1003C325.403 49.5003 324.203 55.8003 318.803 55.3003C313.503 54.8003 307.903 53.3003 303.403 58.2003C298.503 63.6003 301.703 66.1003 302.603 72.6003C306.003 99.1003 302.603 107.4 299.003 95.3003C298.603 94.0003 294.603 93.6003 293.003 88.0003C290.903 80.7003 288.903 71.8003 289.603 66.2003C290.203 61.5003 292.103 58.0003 296.003 53.8003C302.203 47.1003 312.003 45.2003 318.803 44.6003C325.703 43.9003 340.003 49.2003 341.503 60.8003Z" fill="black"/>
<path d="M299.806 94.701C299.306 92.501 297.006 91.001 294.806 91.701C292.106 92.501 289.406 94.601 290.606 100.201C292.806 110.101 302.306 105.901 302.206 105.601C302.306 105.301 300.806 98.801 299.806 94.701Z" fill="white"/>
<path d="M299.099 93.0989C298.099 91.7989 296.499 91.1989 294.899 91.6989C292.199 92.4989 289.499 94.5989 290.699 100.199C292.899 110.099 302.399 105.899 302.299 105.599C302.299 105.599 302.199 105.199 302.099 104.699" fill="white"/>
<path d="M297.801 107.4C295.101 107.4 291.301 106.3 289.901 100.3C288.501 93.7998 292.201 91.6998 294.601 90.9998C296.401 90.4998 298.401 91.0998 299.601 92.6998L298.501 93.5998C297.701 92.4998 296.301 91.9998 295.001 92.3998C291.701 93.3998 290.401 95.8998 291.301 99.9998C291.901 102.9 293.301 104.8 295.301 105.6C297.801 106.5 300.501 105.7 301.401 105.3C301.401 105.2 301.301 105 301.301 104.9L302.701 104.6C302.801 105.2 302.901 105.5 302.901 105.6C303.101 106.6 300.701 107.2 299.601 107.4C299.201 107.3 298.601 107.4 297.801 107.4Z" fill="black"/>
<path d="M299.302 102.3C299.202 102.3 299.202 102.5 298.902 102.7C298.602 102.9 298.202 103.1 297.602 103C296.502 102.8 295.202 101.4 294.802 99.5998C294.602 98.6998 294.602 97.7998 294.702 96.9998C294.802 96.1998 295.202 95.5998 295.702 95.3998C296.202 95.1998 296.602 95.3998 296.802 95.6998C297.002 95.8998 297.002 96.1998 297.002 96.1998C297.002 96.1998 297.202 95.9998 297.002 95.5998C296.902 95.3998 296.702 95.1998 296.502 95.0998C296.202 94.9998 295.802 94.8998 295.502 95.0998C294.702 95.2998 294.202 96.1998 294.002 96.9998C293.802 97.8998 293.802 98.8998 294.002 99.8998C294.502 101.9 295.902 103.5 297.502 103.6C298.202 103.6 298.802 103.3 299.002 103C299.402 102.5 299.402 102.3 299.302 102.3Z" fill="black"/>
<path d="M296.404 75.3C297.904 75.9 299.404 76.6 301.004 76.5C302.604 76.4 304.204 75.1 304.204 73.5C304.204 72.8 303.904 72 304.204 71.4C304.604 70.7 305.704 70.7 306.504 70.6C309.504 70.4 312.004 67.8 312.304 64.8C313.204 65.8 315.004 65.4 315.904 64.5C316.904 63.6 317.404 62.3 318.104 61.1C318.804 59.9 319.904 58.8 321.204 58.8C322.004 58.8 322.704 59.1 323.504 58.9C324.804 58.5 325.104 56.9 325.104 55.6C325.104 54.3 324.904 52.7 325.904 51.8C326.804 51 328.204 51.1 329.404 51C330.604 51 332.104 50.4 332.204 49.1C332.204 48.5 331.904 47.9 331.404 47.4C329.404 45.2 325.804 44.8 323.304 46.4C321.704 43.3 318.204 41.3 314.704 41.6C311.204 41.9 308.004 44.4 306.904 47.7C304.404 46.2 301.204 45.9 298.604 47.1C295.904 48.2 293.904 50.7 293.304 53.6C290.804 53.4 288.204 54.9 287.004 57.1C285.804 59.4 286.204 62.3 287.804 64.3C286.204 65.7 285.004 67.7 285.304 69.8C285.604 71.9 288.004 73.6 289.904 72.6C289.404 74.4 290.504 76.4 292.204 77C293.904 77.6 296.004 76.7 296.704 75" fill="black"/>
<path d="M289.406 72.6984C289.406 72.6984 289.406 73.5984 290.406 74.4984C290.906 74.8984 291.706 75.2984 292.606 75.2984C293.506 75.2984 294.606 74.8984 295.306 73.8984H294.906C295.606 74.6984 296.406 75.3984 297.406 75.9984C298.006 76.3984 298.706 76.6984 299.406 76.7984C300.106 76.8984 300.906 76.7984 301.406 76.5984C302.606 76.1984 303.606 75.2984 304.006 74.3984C304.406 73.4984 304.406 72.6984 304.406 72.1984C304.406 71.6984 304.406 71.3984 304.306 71.3984C304.306 71.3984 304.206 71.6984 304.106 72.1984C304.006 72.6984 303.906 73.4984 303.506 74.2984C302.806 75.8984 299.906 77.1984 297.506 75.5984C296.606 74.9984 295.806 74.2984 295.206 73.5984L295.006 73.2984L294.806 73.5984C294.206 74.3984 293.306 74.7984 292.506 74.7984C291.706 74.8984 291.006 74.4984 290.506 74.1984C289.606 73.3984 289.406 72.5984 289.406 72.6984Z" fill="url(#colorOne)"/>
<path d="M304.008 46.3998C304.008 46.3998 304.308 46.3998 304.808 46.4998C305.308 46.5998 306.008 46.8998 306.608 47.4998L306.808 47.6998L306.908 47.4998C307.608 46.0998 308.908 44.1998 311.008 42.6998C312.108 41.9998 313.308 41.3998 314.808 41.0998C316.208 40.7998 317.808 40.9998 319.208 41.4998C320.308 41.8998 321.408 42.5998 322.208 43.3998C323.008 44.1998 323.608 45.1998 323.908 46.1998L324.008 46.4998L324.308 46.3998C325.708 45.6998 327.308 45.6998 328.508 46.0998C329.808 46.4998 330.708 47.2998 331.208 48.0998C332.308 49.6998 332.308 50.9998 332.408 50.8998C332.408 50.8998 332.508 50.5998 332.408 50.0998C332.308 49.5998 332.108 48.7998 331.508 47.8998C330.908 47.0998 330.008 46.0998 328.708 45.6998C327.408 45.1998 325.708 45.1998 324.108 45.8998L324.508 46.0998C324.208 44.9998 323.608 43.8998 322.708 42.9998C321.808 42.0998 320.808 41.3998 319.508 40.8998C317.908 40.2998 316.308 40.1998 314.708 40.4998C313.208 40.7998 311.808 41.3998 310.708 42.1998C308.508 43.7998 307.308 45.7998 306.608 47.2998H306.908C306.208 46.5998 305.408 46.3998 304.908 46.2998C304.208 46.2998 304.008 46.3998 304.008 46.3998Z" fill="url(#colorOne)"/>
<path d="M368.402 97.6979L368.302 97.0979C368.202 95.9979 367.202 95.1979 366.102 95.3979L351.202 97.2979C349.502 97.4979 347.602 98.0979 347.602 98.0979L339.202 100.598L335.602 101.198L336.502 101.998L339.402 101.598L348.102 101.898C348.102 101.898 350.002 101.998 351.702 101.798L366.602 99.8979C367.802 99.7979 368.602 98.7979 368.402 97.6979Z" fill="url(#colorOne)"/>
<path d="M366.402 95.7988C367.102 95.7988 367.802 96.3988 367.902 97.0988L368.002 97.6988C368.102 98.0988 367.902 98.4988 367.702 98.7988C367.502 99.0988 367.102 99.2988 366.702 99.3988L351.802 101.299C350.902 101.399 350.002 101.399 349.402 101.399C348.702 101.399 348.302 101.399 348.302 101.399L339.602 101.099L337.402 101.399L339.602 100.999L348.002 98.4988C348.002 98.4988 349.802 97.8988 351.502 97.6988L366.402 95.7988C366.302 95.7988 366.302 95.7988 366.402 95.7988ZM366.402 95.2988C366.302 95.2988 366.202 95.2988 366.102 95.2988L351.202 97.1988C349.502 97.3988 347.602 97.9988 347.602 97.9988L339.202 100.499L335.602 101.099L336.502 101.899L339.402 101.499L348.102 101.799C348.102 101.799 348.602 101.799 349.202 101.799C349.902 101.799 350.802 101.799 351.702 101.699L366.602 99.7988C367.702 99.6988 368.502 98.6988 368.302 97.5988L368.202 96.9988C368.202 95.9988 367.402 95.2988 366.402 95.2988Z" fill="black"/>
<path d="M361.203 99.4984L354.203 100.398C353.603 100.498 353.003 99.9984 352.903 99.3984C352.803 98.7984 353.303 98.1984 353.903 98.0984L360.903 97.1984C361.503 97.0984 362.103 97.5984 362.203 98.1984C362.303 98.7984 361.803 99.3984 361.203 99.4984Z" fill="white"/>
<path d="M366.101 97.5993C366.001 97.5993 366.001 97.0993 365.401 96.7993C365.101 96.6993 364.701 96.5993 364.401 96.7993C364.001 96.9993 363.801 97.3993 363.801 97.8993C363.901 98.3993 364.201 98.6993 364.601 98.7993C365.001 98.8993 365.401 98.7993 365.601 98.4993C366.101 98.0993 366.001 97.5993 366.101 97.5993C366.101 97.5993 366.201 97.6993 366.201 97.8993C366.201 98.0993 366.101 98.3993 365.901 98.6993C365.701 98.9993 365.201 99.1993 364.701 99.0993C364.201 98.9993 363.701 98.5993 363.601 97.9993C363.501 97.3993 363.901 96.7993 364.301 96.5993C364.801 96.3993 365.301 96.4993 365.601 96.6993C365.901 96.8993 366.101 97.1993 366.101 97.3993C366.101 97.4993 366.101 97.5993 366.101 97.5993Z" fill="black"/>
<path d="M337.605 103.899C337.505 103.899 337.305 103.199 336.605 102.399C336.205 101.999 335.705 101.599 335.105 101.299C334.505 100.999 333.705 100.799 332.805 100.799C331.105 100.699 329.605 101.199 328.605 101.599C327.505 101.999 326.905 102.199 326.805 102.099C326.805 101.999 327.405 101.599 328.405 101.199C329.405 100.699 331.005 100.099 332.805 100.199C333.705 100.199 334.605 100.399 335.305 100.799C336.005 101.199 336.605 101.599 336.905 102.099C337.605 103.099 337.605 103.899 337.605 103.899Z" fill="black"/>
<path d="M373.3 155.1C373.5 155.1 373.2 169 372.7 186.2C372.2 203.4 371.7 217.3 371.5 217.3C371.3 217.3 371.6 203.4 372.1 186.2C372.6 169 373.1 155.1 373.3 155.1Z" fill="black"/>
<path d="M272.604 146.898C272.804 146.898 274.004 157.298 275.404 170.198C276.804 183.098 277.704 193.498 277.604 193.598C277.404 193.598 276.204 183.198 274.804 170.298C273.404 157.398 272.404 146.898 272.604 146.898Z" fill="black"/>
<path d="M280.302 149.899C280.202 149.899 280.102 148.799 280.002 147.099C279.902 145.299 279.702 142.899 279.602 140.299C279.402 137.699 279.202 135.299 279.102 133.499C279.002 131.799 278.902 130.699 279.002 130.699C279.102 130.699 279.302 131.799 279.502 133.499C279.702 135.199 280.002 137.599 280.202 140.299C280.402 142.999 280.502 145.399 280.502 147.099C280.502 148.799 280.402 149.899 280.302 149.899Z" fill="black"/>
<path d="M357.403 230.299C357.403 230.299 357.203 230.399 356.903 230.699C356.603 230.899 356.103 231.199 355.403 231.599C354.703 231.999 353.903 232.499 353.003 232.999C352.003 233.499 351.003 234.099 349.803 234.699C348.603 235.299 347.303 235.999 345.803 236.599C344.403 237.299 342.803 237.899 341.103 238.699C337.803 240.099 334.103 241.399 330.103 242.699C326.103 243.899 322.303 244.899 318.803 245.699C317.003 246.099 315.403 246.399 313.803 246.699C312.203 246.999 310.803 247.199 309.403 247.399C308.103 247.599 306.803 247.699 305.803 247.799C304.703 247.899 303.803 247.999 303.003 247.999C302.203 248.099 301.703 248.099 301.303 248.099C300.903 248.099 300.703 248.099 300.703 248.099C300.703 248.099 300.903 247.999 301.303 247.999C301.703 247.999 302.303 247.899 303.003 247.799C303.803 247.699 304.703 247.599 305.703 247.399C306.803 247.199 308.003 247.099 309.303 246.899C310.603 246.699 312.103 246.499 313.703 246.099C315.303 245.799 316.903 245.499 318.703 245.099C322.203 244.299 326.003 243.299 329.903 242.099C333.803 240.899 337.503 239.499 340.903 238.199C342.603 237.499 344.103 236.899 345.603 236.199C347.103 235.599 348.403 234.899 349.603 234.299C350.803 233.699 351.903 233.199 352.903 232.699C353.903 232.199 354.703 231.799 355.403 231.399C356.103 230.999 356.603 230.799 357.003 230.599C357.203 230.399 357.403 230.299 357.403 230.299Z" fill="black"/>
<g opacity="0.47">
<path d="M351.003 242.9C349.503 242.5 347.903 242.8 346.403 243.2C333.203 246.7 320.703 253 307.203 254.3C309.803 257.2 335.503 252 349.303 249.1C351.103 248.7 353.103 248 353.503 246.3C353.803 244.8 352.503 243.3 351.003 242.9Z" fill="url(#colorOne)"/>
</g>
<path d="M277.797 81.5004L285.397 76.5004C285.397 76.5004 285.097 66.0004 285.497 65.5004C285.797 65.0004 297.297 53.9004 297.297 53.9004C297.297 53.9004 298.997 56.2004 297.797 58.6004L311.397 52.4004L325.597 56.1004L325.697 57.3004L329.497 58.9004C329.497 58.9004 332.097 60.8004 329.797 62.1004C329.797 62.1004 331.297 63.8004 331.197 65.2004C330.997 66.6004 329.297 66.6004 329.297 66.6004C329.297 66.6004 330.397 67.6004 328.597 69.7004C326.797 71.8004 313.997 76.6004 313.997 76.6004C313.997 76.6004 310.097 82.1004 304.597 86.1004C299.097 90.0004 292.597 92.3004 292.597 92.3004L290.697 93.9004" fill="white"/>
<path d="M291.2 94.4996L290.3 93.3996L292.4 91.6996C292.5 91.6996 298.9 89.3996 304.2 85.5996C309.5 81.7996 313.4 76.2996 313.5 76.2996L313.6 76.0996L313.8 75.9996C318.9 74.0996 326.9 70.6996 328.1 69.2996C329.4 67.7996 328.8 67.1996 328.8 67.1996L327.8 65.9996L329.3 65.8996C329.3 65.8996 330.4 65.7996 330.5 65.0996C330.6 64.1996 329.6 62.8996 329.3 62.4996L328.7 61.8996L329.4 61.4996C329.8 61.2996 330 60.9996 330 60.7996C330 60.2996 329.4 59.7996 329.1 59.4996L325 57.7996L324.9 56.5996L311.5 53.0996L296.2 59.9996L297.2 58.0996C297.9 56.8996 297.5 55.5996 297.2 54.8996C292.9 58.9996 287 64.7996 286.2 65.6996C286 66.6996 286.1 72.4996 286.2 76.3996V76.7996L278.3 82.0996L277.5 80.8996L284.8 76.0996C284.6 65.7996 284.9 65.2996 285 65.0996C285.3 64.5996 292.6 57.4996 297 53.2996L297.6 52.6996L298.1 53.3996C298.2 53.4996 299.4 55.1996 299.2 57.1996L311.6 51.5996L326.5 55.4996L326.6 56.7996L330.1 58.2996C330.3 58.3996 331.7 59.4996 331.6 60.8996C331.6 61.2996 331.5 61.7996 331 62.2996C331.5 62.9996 332.2 64.1996 332.1 65.3996C332 66.4996 331.2 66.9996 330.5 67.2996C330.6 67.9996 330.5 68.9996 329.3 70.2996C327.5 72.3996 316.7 76.4996 314.6 77.2996C313.9 78.2996 310.2 83.1996 305.1 86.7996C299.9 90.4996 294 92.6996 293 93.0996L291.2 94.4996Z" fill="black"/>
<path d="M298.397 58.9004C298.397 58.9004 298.297 59.1004 298.097 59.3004C297.997 59.4004 297.897 59.6004 297.697 59.8004C297.497 60.0004 297.397 60.2004 297.097 60.4004C296.197 61.2004 294.797 62.1004 293.297 63.0004C292.497 63.5004 291.797 63.9004 291.197 64.3004C290.597 64.7004 289.997 65.2004 289.597 65.6004C288.697 66.4004 288.297 67.0004 288.297 67.0004C288.297 67.0004 288.397 66.8004 288.597 66.6004C288.697 66.5004 288.797 66.3004 288.997 66.1004C289.197 65.9004 289.297 65.7004 289.497 65.5004C289.897 65.1004 290.497 64.6004 291.097 64.2004C291.697 63.7004 292.497 63.3004 293.197 62.8004C294.797 61.9004 296.097 61.0004 296.997 60.3004C297.897 59.4004 298.397 58.9004 298.397 58.9004Z" fill="black"/>
<path d="M325.7 57.3001C325.7 57.3001 325.4 57.3001 324.9 57.4001C324.3 57.4001 323.6 57.4001 322.7 57.5001C320.8 57.5001 318.3 57.6001 315.5 57.6001C315 57.6001 314.5 57.6001 314 57.6001H314.1C309.6 59.6001 306 60.9001 306 60.7001C306 60.7001 306.2 60.6001 306.6 60.5001C307.1 60.3001 307.6 60.1001 308.3 59.8001C309.8 59.2001 311.8 58.3001 314 57.4001C314.5 57.4001 315 57.4001 315.5 57.4001C318.3 57.4001 320.9 57.4001 322.7 57.4001C323.6 57.4001 324.3 57.4001 324.9 57.4001C325.4 57.2001 325.7 57.2001 325.7 57.3001Z" fill="black"/>
<path d="M329.803 62.0996C329.803 62.0996 329.503 62.1996 329.003 62.1996C328.403 62.1996 327.703 62.2996 326.903 62.3996C325.103 62.4996 322.703 62.6996 320.003 62.8996C319.303 62.8996 318.703 62.9996 318.003 62.9996C315.903 63.7996 314.103 64.4996 312.803 64.9996C312.203 65.1996 311.703 65.3996 311.303 65.5996C310.903 65.6996 310.703 65.7996 310.703 65.7996C310.703 65.7996 310.903 65.6996 311.203 65.4996C311.603 65.2996 312.103 65.0996 312.703 64.8996C314.003 64.3996 315.803 63.5996 317.803 62.7996C318.403 62.7996 319.103 62.6996 319.803 62.6996C322.503 62.4996 324.903 62.3996 326.703 62.2996C327.503 62.2996 328.203 62.1996 328.803 62.1996C329.603 62.0996 329.803 62.0996 329.803 62.0996Z" fill="black"/>
<path d="M329.302 66.699C329.302 66.799 325.802 67.799 321.502 68.999C317.202 70.199 313.602 71.099 313.602 70.999C313.602 70.899 317.102 69.899 321.402 68.699C325.802 67.499 329.302 66.599 329.302 66.699Z" fill="black"/>
<path d="M303.002 62.8003C303.002 62.9003 302.702 62.9003 302.302 63.1003C301.902 63.3003 301.302 63.6003 300.902 64.1003C300.402 64.6003 300.202 65.2003 300.002 65.6003C299.902 66.0003 299.902 66.3003 299.802 66.3003C299.802 66.3003 299.702 66.0003 299.802 65.5003C299.902 65.0003 300.102 64.4003 300.602 63.8003C301.102 63.3003 301.702 62.9003 302.202 62.8003C302.702 62.7003 303.002 62.8003 303.002 62.8003Z" fill="black"/>
<path d="M305.298 66.8997C305.298 66.8997 304.998 66.9997 304.598 67.1997C304.198 67.3997 303.698 67.6997 303.298 68.1997C302.898 68.6997 302.798 69.2997 302.698 69.7997C302.698 70.1997 302.698 70.4997 302.598 70.4997C302.598 70.4997 302.398 70.1997 302.398 69.7997C302.398 69.2997 302.498 68.6997 302.998 68.0997C303.398 67.4997 303.998 67.1997 304.498 66.9997C304.998 66.7997 305.298 66.7997 305.298 66.8997Z" fill="black"/>
<path d="M307.6 72.0002C307.7 72.1002 307.2 72.4002 307 73.1002C306.8 73.7002 307 74.3002 306.9 74.3002C306.9 74.3002 306.8 74.2002 306.7 74.0002C306.6 73.8002 306.6 73.4002 306.7 73.0002C306.8 72.6002 307 72.3002 307.2 72.2002C307.5 72.0002 307.6 71.9002 307.6 72.0002Z" fill="black"/>
<path d="M413.6 210.599C413.6 210.599 413.6 210.199 413.3 209.499C413.1 208.799 412.5 207.899 411.5 206.999C410.5 206.099 409.1 205.499 407.4 205.099C405.7 204.699 403.8 204.299 401.9 203.999C397.9 203.399 394.3 203.099 391.7 202.899C390.4 202.799 389.3 202.799 388.6 202.799C389.3 202.799 390.4 202.799 391.7 202.799C394.3 202.899 398 203.099 402 203.799C404 204.099 405.9 204.499 407.6 204.899C409.3 205.299 410.8 205.999 411.8 206.899C412.8 207.799 413.3 208.799 413.5 209.499C413.6 209.899 413.7 210.099 413.7 210.299C413.6 210.499 413.6 210.599 413.6 210.599Z" fill="black"/>
<path d="M375.103 201.299L352.303 198.699L333.003 189.199L322.403 188.499C321.303 188.399 320.603 189.499 321.003 190.499C321.503 191.599 322.303 192.799 323.703 193.399C326.403 194.599 330.303 194.599 330.303 194.599L335.603 197.399L327.503 199.899L320.903 196.599C320.903 196.599 317.903 194.699 316.803 196.699C315.703 198.799 316.903 200.199 316.903 200.199C316.903 200.199 313.503 200.599 315.203 203.899C316.303 206.099 318.803 208.499 318.803 208.499C318.803 208.499 318.203 210.799 319.303 212.499C320.203 213.899 326.103 217.699 328.303 219.099C328.803 219.399 329.403 219.599 330.003 219.499L351.503 217.099L375.103 222.899V201.299Z" fill="white"/>
<path d="M322.301 189.998L332.601 190.598L351.701 199.998L351.901 200.098H352.101L373.601 202.498V221.098L351.801 215.798L351.601 215.698H351.301L329.801 218.098H329.701C329.501 218.098 329.201 217.998 329.001 217.898C323.701 214.498 320.901 212.298 320.501 211.698C319.901 210.798 320.101 209.298 320.201 208.898L320.401 208.098L319.801 207.498C319.101 206.898 317.301 204.898 316.501 203.298C316.201 202.598 316.201 202.198 316.201 202.098C316.301 201.898 316.801 201.698 317.101 201.698L319.801 201.398L318.001 199.298C318.001 199.298 317.401 198.598 318.001 197.398C318.101 197.298 318.101 197.198 318.401 197.198C319.001 197.198 319.801 197.598 320.101 197.798H320.201H320.301L326.901 201.098L327.401 201.398L328.001 201.198L336.101 198.698L339.401 197.698L336.401 196.098L331.101 193.298L330.801 193.098H330.401C330.401 193.098 326.801 193.098 324.301 191.998C323.501 191.798 322.801 190.998 322.301 189.998ZM322.301 188.498C321.301 188.498 320.601 189.598 321.001 190.498C321.501 191.598 322.301 192.798 323.701 193.398C326.401 194.598 330.301 194.598 330.301 194.598L335.601 197.398L327.501 199.898L320.901 196.598C320.901 196.598 319.601 195.798 318.401 195.798C317.801 195.798 317.101 195.998 316.701 196.798C315.601 198.898 316.801 200.298 316.801 200.298C316.801 200.298 313.401 200.698 315.101 203.998C316.201 206.198 318.701 208.598 318.701 208.598C318.701 208.598 318.101 210.898 319.201 212.598C320.101 213.998 326.001 217.798 328.201 219.198C328.601 219.498 329.101 219.598 329.601 219.598C329.701 219.598 329.801 219.598 329.901 219.598L351.401 217.198L375.001 222.998V201.298L352.201 198.698L332.901 189.198L322.301 188.498C322.401 188.498 322.401 188.498 322.301 188.498Z" fill="black"/>
<path d="M334.502 205.799C334.502 205.799 334.202 205.899 333.802 205.999C333.302 206.099 332.602 206.299 331.702 206.399C330.802 206.599 329.802 206.699 328.602 206.799C328.302 206.799 328.002 206.899 327.702 206.799C327.502 206.799 327.402 206.799 327.202 206.799C327.002 206.799 326.902 206.699 326.702 206.699C326.402 206.599 326.102 206.499 325.802 206.399C325.502 206.299 325.202 206.099 324.902 205.999C322.402 204.799 320.502 203.299 319.102 202.199C318.402 201.599 317.902 201.199 317.502 200.799C317.102 200.499 316.902 200.299 317.002 200.299C317.002 200.299 317.202 200.399 317.602 200.799C318.002 201.099 318.602 201.599 319.302 202.099C320.702 203.099 322.702 204.599 325.102 205.799C325.402 205.899 325.702 206.099 326.002 206.199C326.302 206.299 326.602 206.399 326.902 206.499C327.102 206.499 327.202 206.599 327.302 206.599C327.402 206.599 327.602 206.599 327.702 206.599C328.002 206.599 328.302 206.599 328.602 206.599C329.802 206.499 330.802 206.399 331.702 206.299C332.602 206.199 333.302 206.099 333.802 205.999C334.202 205.799 334.502 205.699 334.502 205.799Z" fill="black"/>
<path d="M334.498 212.598C334.498 212.598 334.298 212.698 333.798 212.898C333.298 213.098 332.698 213.298 331.798 213.498C330.898 213.698 329.898 213.898 328.798 213.898C328.198 213.998 327.598 213.898 326.998 213.698C326.698 213.598 326.398 213.498 326.098 213.398C325.798 213.298 325.498 213.098 325.198 212.998C322.798 211.798 320.898 210.298 319.498 209.198C318.798 208.698 318.298 208.198 317.898 207.898C317.498 207.598 317.398 207.398 317.398 207.398C317.398 207.398 317.598 207.498 317.998 207.798C318.398 208.098 318.998 208.598 319.598 208.998C320.998 209.998 322.898 211.498 325.298 212.598C326.498 213.198 327.698 213.598 328.798 213.498C329.898 213.398 330.998 213.298 331.798 213.098C332.598 212.898 333.298 212.798 333.798 212.598C334.198 212.598 334.498 212.498 334.498 212.598Z" fill="black"/>
<path d="M325.9 154.6C325.5 154.6 325.2 154.5 324.9 154.2C323.7 153.1 322.5 152 321.2 151C312.2 143.1 302.9 134.9 298.9 129.4C298.6 129 298.5 128.5 298.6 128C299.1 125.9 302.8 123.5 304.6 122.4C315.1 131.4 331.5 145.6 333.4 148.1C332.2 149.9 328.3 154.6 325.9 154.6Z" fill="url(#colorTwo)"/>
<path d="M304.5 123.3C314.5 131.8 329.5 144.9 332.5 148.2C332 148.9 331.1 150 330 151.1C327.5 153.7 326.2 153.9 325.8 153.9C325.6 153.9 325.4 153.8 325.3 153.7C324.1 152.6 322.9 151.5 321.6 150.5C312.6 142.6 303.4 134.5 299.4 129C299.2 128.7 299.2 128.5 299.2 128.2C299.7 126.6 302.3 124.6 304.5 123.3ZM304.7 121.6C304.7 121.6 295.7 126.3 298.3 129.9C302.9 136.3 314.5 146.1 324.4 154.9C324.8 155.3 325.3 155.5 325.9 155.5C329.2 155.5 333.7 149.2 334.3 148.4C334.9 147.2 304.7 121.6 304.7 121.6Z" fill="black"/>
<path d="M341.495 123.1C341.495 123.1 347.895 124.3 348.495 127.2C349.095 130.1 347.895 147.5 344.395 151C342.295 153.1 334.195 148.2 334.195 148.2L341.495 123.1Z" fill="url(#colorTwo)"/>
<path d="M342.898 152.199C339.798 152.199 334.998 149.499 333.898 148.799L333.398 148.499L340.998 122.299L341.598 122.399C342.298 122.499 348.498 123.699 349.098 126.999C349.698 129.899 348.698 147.599 344.798 151.399C344.398 151.999 343.698 152.199 342.898 152.199ZM335.098 147.799C338.198 149.599 342.898 151.499 343.898 150.399C347.098 147.199 348.298 130.099 347.798 127.299C347.398 125.499 343.898 124.399 341.998 123.899L335.098 147.799Z" fill="black"/>
<path d="M176.797 300.299H462.197C462.697 300.299 463.197 300.699 463.197 301.299V301.899C463.197 302.399 462.797 302.899 462.197 302.899H176.797C176.297 302.899 175.797 302.499 175.797 301.899V301.299C175.897 300.799 176.297 300.299 176.797 300.299Z" fill="black"/>
<script type="text/ecmascript" xlink:href="https://www.argentina.gob.ar/profiles/argentinagobar/themes/contrib/poncho/js/w3c/ref2.js"></script></svg>
