<svg width="640" height="360" viewBox="0 0 640 360" fill="none" 
xmlns="http://www.w3.org/2000/svg" 
xmlns:xlink="http://www.w3.org/1999/xlink">
<defs>
<ref id="colorOne" param="c1" default="#242C4F" />
<ref id="colorTwo" param="c2" default="#9296A7"/>
</defs>
<path d="M312.006 50.2969L275.172 301.675" stroke="black" stroke-width="10.41" stroke-miterlimit="10"/>
<path d="M113.617 38.9995L314.122 7L324.688 9.09308L506.517 81.9612L113.617 38.9995Z" fill="url(#colorOne)"/>
<path d="M217.648 51.5456L314.238 7L324.818 9.10338L379.849 68.3906L217.648 51.5456Z" fill="url(#colorTwo)"/>
<path d="M219.614 50.2969C219.614 50.2969 219.348 67.3831 220.738 71.5509C222.128 75.7187 227.114 84.244 237.454 85.5068C247.799 86.7756 354.469 97.4707 354.469 97.4707C354.469 97.4707 371.539 94.4412 375.485 83.3251C379.43 72.209 379.856 67.8692 379.856 67.8692L219.608 50.2969H219.614Z" fill="url(#colorTwo)"/>
<path d="M219.614 50.2969C219.614 50.2969 219.348 67.3831 220.738 71.5509C222.128 75.7187 227.114 84.244 237.454 85.5068C247.799 86.7756 354.469 97.4707 354.469 97.4707C354.469 97.4707 371.539 94.4412 375.485 83.3251C379.43 72.209 379.856 67.8692 379.856 67.8692L219.608 50.2969H219.614Z" fill="url(#colorTwo)"/>
<path d="M113.617 39.3164C113.617 39.3164 114.091 57.3629 114.749 60.4459C115.408 63.5289 117.986 72.0803 130.489 73.5222C142.986 74.964 200.828 80.0222 200.828 80.0222C200.828 80.0222 210.876 78.8383 215.228 66.0844C219.579 53.3363 219.597 50.775 219.597 50.775L113.617 39.3105V39.3164Z" fill="url(#colorOne)"/>
<path d="M379.852 68.3906L380.749 85.267C380.749 85.267 380.294 100.336 398.512 102.385C416.729 104.434 485.287 111.041 485.287 111.041C485.287 111.041 500.286 109.345 503.31 98.051C506.333 86.7568 506.51 82.205 506.51 82.205L379.857 68.3906H379.852Z" fill="url(#colorOne)"/>
<path d="M506.517 81.9583C506.5 82.1402 418.522 72.7437 310.041 60.9703C201.524 49.1909 113.599 39.4951 113.617 39.3131C113.635 39.1312 201.595 48.5277 310.112 60.307C418.593 72.0805 506.535 81.7763 506.517 81.9583Z" fill="black"/>
<path d="M219.6 50.2943C219.523 50.1298 240.581 40.2997 266.629 28.3485C292.688 16.3915 313.865 6.83757 313.941 7.00209C314.018 7.16661 292.965 16.9967 266.906 28.9537C240.858 40.9049 219.67 50.4647 219.594 50.2943" fill="black"/>
<path d="M379.857 68.3906C379.721 68.5157 367.315 55.3125 352.149 38.8978C336.976 22.4772 324.795 9.06546 324.931 8.94034C325.067 8.81521 337.472 22.0184 352.639 38.439C367.806 54.8537 379.993 68.2654 379.857 68.3906Z" fill="black"/>
<path d="M622.651 302.599C596.162 302.599 502.428 302.03 408.527 302.147C408.249 302.05 407.977 301.979 407.751 301.979C391.415 301.998 375.046 302.037 358.988 302.088C212.606 302.554 49.6175 303.82 7.63281 303.82C7.63281 303.82 84.5068 324.034 165.859 329.404C228.251 333.52 304.615 343.078 332.363 343.84C351.149 344.357 370.704 343.815 390.394 342.516L392.164 338.923L390.394 342.955C504.238 335.44 622.651 302.605 622.651 302.605" fill="url(#colorTwo)"/>
<path d="M409.845 305.243L401.968 291.285L381.295 287.692L357.547 283.834L347.698 292.823L325.604 299.918H299.419L281.829 294.593L248.859 306.691L409.845 305.243Z" fill="url(#colorTwo)"/>
<path d="M408.589 302.917C411.988 303.11 417.811 303.363 421.236 303.608V303.705C420.169 303.699 419.11 303.634 418.05 303.602C416.215 303.524 410.483 303.279 408.525 303.194H408.473L408.447 303.149L401.733 291.427L401.41 290.865L401.94 291.233L402.03 291.298L402.56 291.666L401.927 291.563L357.467 284.344L356.11 284.125C356.827 283.911 358.184 283.504 358.908 283.291L357.893 284.222C357.829 284.273 348.045 293.275 347.987 293.32C348 293.333 325.789 300.513 325.77 300.532C325.725 300.603 299.462 300.59 299.385 300.616H299.32L299.256 300.597L281.62 295.304L278.706 294.432L281.743 294.335H281.898L284.942 294.238C284.225 294.503 260.063 303.472 258.415 304.002C210.375 303.931 138.548 304.19 91.0703 303.867V302.548C94.618 302.477 98.0624 302.497 101.558 302.471C107.788 302.458 126.354 302.426 132.926 302.419C159.136 302.4 231.17 302.445 258.376 302.464L258.466 303.453L258.382 303.466L258.124 302.51C258.273 302.458 281.685 293.921 281.821 293.876C281.898 293.915 299.508 299.266 299.611 299.304L299.437 300.093L299.366 300.08L299.424 299.278L325.615 299.343L325.667 300.035L325.596 300.047L325.434 299.369L347.548 292.357L349.971 291.588C348.821 292.241 346.63 293.508 345.486 294.167C346.785 293.004 355.922 284.732 357.415 283.388C357.512 283.407 401.953 291.097 402.056 291.117C402.114 291.104 408.621 302.936 408.66 302.962L408.589 302.917C408.589 302.917 408.667 302.962 408.66 302.962L402.004 291.194C402.198 291.285 357.409 283.821 357.448 283.847L357.635 283.789L347.741 292.868L347.425 292.429L347.502 292.383L347.722 292.881L325.654 300.035L325.492 299.356L325.563 299.343L325.615 300.035L299.424 300.08L299.482 299.272L299.546 299.285L299.372 300.073L281.698 294.761H281.982L258.466 303.44L258.208 302.484L258.292 302.471L258.376 303.459C220.023 303.531 149.786 303.64 112.021 303.737C106.56 303.763 96.6859 303.763 91.1479 303.86V302.548C137.94 302.871 211.512 302.723 258.234 302.93L281.75 294.354L281.937 295.317H281.788L281.918 294.354L299.527 299.718C298.719 299.686 326.3 299.724 325.531 299.763C325.311 299.828 348.316 292.441 347.58 292.745L357.48 283.75L357.784 284.286L357.622 284.331L357.583 283.718L401.991 291.265L401.881 291.53L401.791 291.466L402.004 291.272L408.634 303.046L408.557 303.001C411.969 303.156 417.811 303.498 421.249 303.608V303.705C420.195 303.608 419.142 303.556 418.089 303.485C416.26 303.375 410.554 303.033 408.609 302.917" fill="url(#colorOne)"/>
<path d="M208.649 345.185C208.068 344.429 207.195 343.964 206.349 343.538C201.806 341.25 199.014 341.004 194.755 340.074C193.482 339.738 192.087 339.466 190.6 339.266C190.561 339.26 190.523 339.253 190.477 339.247L190.555 339.266C182.82 338.245 172.332 338.232 167.149 342.161C166.587 342.588 165.979 343.214 166.18 343.893C166.348 344.462 167.007 344.714 167.576 344.882C180.067 348.52 193.211 349.896 206.181 348.933C207.195 348.856 208.345 348.694 208.914 347.854C209.45 347.066 209.231 345.948 208.649 345.198" fill="url(#colorTwo)"/>
<path d="M475.737 308.764C476.002 308.647 476.345 308.873 476.351 309.164C476.351 309.455 476.015 309.688 475.75 309.584C475.479 309.481 475.395 309.074 475.595 308.867" fill="white"/>
<path d="M471.612 309.875C472.078 309.675 472.685 310.069 472.692 310.58C472.698 311.084 472.103 311.497 471.632 311.316C471.16 311.129 471.005 310.425 471.354 310.056" fill="white"/>
<path d="M481.878 304.532C481.878 304.668 475.403 304.771 467.415 304.771C459.428 304.771 452.953 304.661 452.953 304.532C452.953 304.403 459.428 304.293 467.415 304.293C475.403 304.293 481.878 304.403 481.878 304.532Z" fill="white"/>
<path d="M345.373 309.346C345.347 309.384 344.856 309.01 343.886 308.473C342.917 307.95 341.444 307.278 339.499 306.929C337.573 306.586 335.162 306.573 332.7 307.413C330.251 308.241 327.776 309.882 325.993 312.286C325.844 312.499 325.695 312.712 325.553 312.913L325.405 313.126L325.204 312.971C322.891 311.213 320.164 310.328 317.676 310.128C315.168 309.908 312.9 310.296 311.117 310.922C309.327 311.549 307.995 312.344 307.149 312.984C306.302 313.617 305.869 314.024 305.837 313.992C305.824 313.979 305.921 313.869 306.121 313.669C306.328 313.481 306.6 313.158 307.033 312.835C307.853 312.144 309.184 311.284 311 310.606C312.81 309.921 315.136 309.488 317.708 309.688C320.274 309.869 323.091 310.767 325.501 312.59L325.153 312.648C325.295 312.441 325.45 312.221 325.605 312.002C327.453 309.507 330.025 307.821 332.558 306.993C335.111 306.147 337.599 306.199 339.563 306.593C341.541 306.993 343.027 307.73 343.977 308.312C344.455 308.602 344.81 308.861 345.037 309.048C345.263 309.236 345.379 309.333 345.373 309.352" fill="url(#colorOne)"/>
<path d="M343.262 310.865C343.223 310.936 342.506 310.548 341.278 310.128C340.057 309.708 338.293 309.327 336.315 309.366C334.344 309.411 332.593 309.87 331.391 310.342C330.183 310.813 329.485 311.233 329.446 311.162C329.42 311.124 330.054 310.594 331.262 310.025C332.464 309.456 334.267 308.933 336.309 308.881C338.351 308.842 340.173 309.288 341.401 309.805C342.629 310.316 343.288 310.82 343.262 310.859" fill="white"/>
<path d="M310.643 314.84C310.908 314.723 311.251 314.95 311.257 315.24C311.257 315.531 310.921 315.764 310.656 315.66C310.385 315.557 310.301 315.15 310.501 314.943" fill="white"/>
<path d="M313.808 312.758C314.273 312.558 314.88 312.952 314.887 313.463C314.893 313.967 314.299 314.38 313.827 314.199C313.355 314.012 313.2 313.308 313.549 312.939" fill="white"/>
<path d="M282.627 309.061C282.627 309.197 275.215 309.191 266.084 309.042C256.946 308.9 249.54 308.674 249.547 308.544C249.547 308.409 256.953 308.415 266.09 308.564C275.228 308.706 282.627 308.932 282.627 309.061Z" fill="white"/>
<path d="M288.049 310.973C288.049 311.109 286.486 311.213 284.56 311.213C282.634 311.213 281.07 311.103 281.07 310.973C281.07 310.844 282.634 310.734 284.56 310.734C286.486 310.734 288.049 310.844 288.049 310.973Z" fill="white"/>
<path d="M60.2266 142.176L115.517 139.533L113.281 145.911L68.2397 148.897L60.2266 142.176Z" fill="black"/>
<path d="M196.548 264.659L190.125 222.164L105.264 145.91L60.2353 149.645V151.565C59.9768 153.232 113.71 212.787 127.61 228.529C141.51 244.264 185.653 272.026 201.86 271.134C218.067 270.242 235.528 257.673 235.528 257.673L196.555 264.659H196.548Z" fill="url(#colorTwo)"/>
<path d="M139.438 224.607C139.561 224.658 138.941 226.364 138.055 228.419C137.163 230.474 136.349 232.096 136.226 232.038C136.104 231.986 136.724 230.28 137.616 228.226C138.501 226.171 139.322 224.555 139.445 224.607" fill="black"/>
<path d="M139.912 233.44C139.776 233.434 139.783 231.825 139.912 229.86C140.048 227.889 140.267 226.3 140.403 226.313C140.539 226.319 140.532 227.928 140.403 229.893C140.267 231.864 140.048 233.453 139.918 233.44" fill="black"/>
<path d="M297.708 304.093L236.091 250.438L224 254.27L284.331 304.093H297.708Z" fill="black"/>
<path d="M270.075 238.178L272.601 246.895L75.8348 304.092H67.3047L72.4033 295.814L270.075 238.178Z" fill="black"/>
<path d="M60.2112 142.176C61.2452 142.176 245.882 304.092 245.882 304.092H229.54L56.0625 149.775L60.2112 142.176Z" fill="black"/>
<path d="M245.9 304.092C245.9 304.092 245.726 303.963 245.403 303.691C245.073 303.407 244.595 303.006 243.981 302.483C242.728 301.404 240.899 299.834 238.546 297.811C233.829 293.727 227.031 287.833 218.624 280.557C201.828 265.939 178.649 245.758 153.052 223.464C127.507 201.092 104.379 180.846 87.6289 166.176C79.3056 158.81 72.5656 152.851 67.8934 148.716C65.5799 146.635 63.7641 145.039 62.575 143.914C61.987 143.358 61.5346 142.938 61.218 142.641C60.9143 142.35 60.7656 142.195 60.7656 142.195C61.7608 143.068 71.2602 151.384 87.8615 165.918C104.637 180.561 127.791 200.768 153.381 223.095C178.946 245.429 202.093 265.649 218.863 280.292C227.218 287.62 233.991 293.552 238.682 297.662C241.009 299.711 242.811 301.307 244.052 302.405C244.653 302.942 245.118 303.355 245.442 303.646C245.752 303.931 245.907 304.079 245.907 304.079" fill="black"/>
<path d="M229.557 304.092C229.557 304.092 229.395 303.969 229.091 303.711C228.781 303.439 228.335 303.058 227.76 302.561C226.584 301.533 224.871 300.034 222.668 298.108C218.248 294.211 211.87 288.596 203.999 281.662C188.263 267.723 166.544 248.485 142.556 227.244C118.62 205.919 96.9527 186.623 81.2561 172.639C73.4563 165.621 67.1427 159.934 62.7614 155.992C60.5965 154.008 58.897 152.489 57.779 151.417C57.2297 150.893 56.8032 150.486 56.506 150.202C56.2216 149.924 56.0859 149.775 56.0859 149.775C58.0763 151.546 95.0658 184.406 142.879 226.882C166.835 248.168 188.522 267.445 204.231 281.41C212.063 288.395 218.403 294.05 222.797 297.972C224.975 299.924 226.668 301.449 227.831 302.496C228.393 303.006 228.826 303.401 229.13 303.678C229.421 303.95 229.563 304.092 229.563 304.092" fill="black"/>
<path d="M118.507 198.868L100.853 293.035C100.452 295.161 98.5975 296.706 96.4327 296.706C93.6087 296.706 91.4891 294.134 92.019 291.361L110.074 197.272C110.507 194.998 112.666 193.485 114.953 193.841C117.344 194.216 118.953 196.49 118.507 198.875" fill="black"/>
<path d="M118.501 198.87C118.437 198.876 118.753 198.081 118.288 196.692C118.042 196.02 117.564 195.212 116.685 194.618C115.832 194.023 114.559 193.668 113.235 194.017C111.929 194.34 110.617 195.451 110.23 197.073C109.913 198.727 109.571 200.53 109.202 202.463C108.472 206.333 107.638 210.747 106.714 215.613C102.998 235.109 97.8675 262.012 92.2002 291.725C91.9611 293.515 93.0144 295.356 94.6429 296.08C96.252 296.849 98.3005 296.442 99.496 295.156C100.11 294.529 100.491 293.715 100.633 292.849C100.801 291.951 100.969 291.053 101.137 290.161C101.473 288.377 101.803 286.607 102.133 284.855C103.451 277.844 104.724 271.078 105.939 264.635C108.375 251.75 110.566 240.15 112.407 230.399C114.262 220.673 115.768 212.789 116.808 207.329C117.338 204.621 117.745 202.508 118.029 201.06C118.172 200.356 118.282 199.82 118.359 199.432C118.437 199.064 118.488 198.883 118.488 198.883C118.488 198.883 118.469 199.076 118.411 199.445C118.346 199.832 118.249 200.375 118.126 201.08C117.868 202.534 117.48 204.647 116.996 207.367C115.987 212.841 114.533 220.725 112.743 230.47C110.928 240.228 108.769 251.834 106.372 264.726C105.17 271.168 103.903 277.941 102.591 284.952C102.262 286.703 101.932 288.474 101.596 290.258C101.428 291.149 101.26 292.048 101.092 292.946C100.937 293.876 100.511 294.807 99.8256 295.499C98.4943 296.927 96.2197 297.385 94.4296 296.526C92.6202 295.718 91.4441 293.676 91.7091 291.679C97.4281 261.96 102.611 235.058 106.365 215.561C107.309 210.695 108.168 206.295 108.924 202.424C109.306 200.492 109.661 198.689 109.991 197.034C110.411 195.328 111.806 194.172 113.176 193.849C114.566 193.506 115.884 193.894 116.756 194.514C117.655 195.141 118.133 195.981 118.366 196.672C118.598 197.377 118.605 197.952 118.572 198.327C118.54 198.702 118.482 198.889 118.482 198.889" fill="black"/>
<path d="M115.383 140.986C113.619 143.946 110.763 146.201 107.513 147.326C103.81 148.444 101.289 149.704 101.115 153.982C101.063 153.129 101.16 152.263 101.419 151.436C102.175 148.696 104.966 147.752 107.377 146.951C110.614 145.865 113.367 143.733 115.39 140.986" fill="white"/>
<path d="M113.429 138.447C111.871 142.376 107.535 144.257 103.522 144.341C102.947 144.36 102.372 144.347 101.797 144.36C102.941 144.192 104.084 144.121 105.196 143.882C108.556 143.294 111.729 141.491 113.429 138.454" fill="white"/>
<path d="M138.329 174.881L143.582 181.421C145.508 180.438 146.471 179.96 148.222 179.482C153.883 177.925 159.712 179.514 165.483 183.398C174.355 189.363 183.06 199.805 190.465 205.324C201.057 208.723 211.648 212.122 222.24 215.521L187.015 252.336L160.836 228.336L119.375 193.188L119.924 190.623L138.329 174.887V174.881Z" fill="white"/>
<path d="M286.3 223.515C284.516 230.229 282.112 240.452 282.203 246.462C282.267 250.694 283.327 258.714 284.458 266.314L287.528 299.833C287.689 302.372 289.776 304.356 292.323 304.382L320.601 304.699C322.359 304.718 323.154 302.521 321.79 301.403C315.858 296.531 301.066 290.359 301.066 290.359L303.819 265.008C303.819 265.008 309.001 230.965 309.131 227.45L310.662 215.437C311.767 206.778 306.333 198.467 297.854 196.412C296.232 196.018 294.558 195.876 292.878 196.096C291.198 196.315 282.022 199.184 270.648 202.881" fill="white"/>
<path d="M286.366 223.534C285.526 227.049 284.725 230.571 284.059 234.113C283.077 239.431 282.211 244.749 282.89 250.145C283.439 255.522 284.208 260.879 285.022 266.23L284.46 266.895L285.029 266.262L286.185 278.378C286.541 282.307 287.458 292.737 287.749 296.563L287.995 299.594C288.027 300.563 288.311 301.429 288.861 302.179C289.688 303.309 291.045 303.982 292.447 303.982L293.966 304.014L300.047 304.156C304.9 304.24 315.058 304.44 319.814 304.479C320.176 304.453 320.887 304.557 321.236 304.363C322.089 304.053 322.503 302.922 322.083 302.127C321.572 301.313 320.616 300.841 319.86 300.259C317.365 298.54 314.671 297.125 311.969 295.755C308.357 293.933 304.648 292.291 300.9 290.779H300.887L300.577 290.644L300.615 290.314C301.766 281.131 302.56 271.903 303.73 262.721C304.997 253.783 306.948 240.213 308.04 231.308C308.157 230.28 308.389 228.465 308.454 227.424V227.366L309.475 219.243C309.727 217.033 310.347 213.492 309.992 211.269C309.275 203.365 302.199 196.509 294.179 196.561C291.491 196.664 288.971 197.73 286.386 198.403C281.164 199.953 275.936 201.537 270.728 203.152L270.547 202.596C277.016 200.419 283.465 198.176 290.011 196.244C296.835 193.743 304.628 197.317 308.46 203.204C310.205 205.873 311.246 208.981 311.446 212.167C311.569 214.597 311.129 217.02 310.832 219.418L309.779 227.534V227.469L309.701 228.503C308.286 240.232 305.63 255.037 304.014 266.759C303.129 274.637 302.276 282.521 301.494 290.405L301.223 289.946H301.236C306.793 292.479 312.305 295.09 317.54 298.23C318.839 299.031 320.144 299.839 321.346 300.789C321.766 301.119 322.244 301.423 322.47 301.927C323.168 303.245 322.076 305.003 320.564 304.912H319.802C315.091 304.835 304.855 304.802 300.034 304.776H293.953H292.434C290.793 304.815 289.126 304.04 288.124 302.715C287.445 301.862 287.071 300.718 287.006 299.652L286.696 296.628L286.082 290.579C285.5 284.537 284.376 272.401 283.865 266.352L284.434 265.719L283.872 266.385C283.116 261.008 282.34 255.632 281.927 250.21C281.377 244.775 282.321 239.263 283.504 233.983C284.298 230.448 285.203 226.946 286.218 223.476L286.353 223.515L286.366 223.534Z" fill="black"/>
<path d="M268.547 237.455L286.563 232.796C287.746 232.492 288.961 233.125 289.387 234.269C291.016 238.657 294.945 249.048 297.187 253.378C298.35 255.627 302.661 260.783 306.984 266.457C313.349 274.819 320.141 283.983 320.147 283.989L328.451 296.939C329.821 299.078 332.619 299.802 334.855 298.587L359.722 285.12C361.266 284.286 360.891 281.973 359.166 281.663C353.382 280.609 342.7 281.417 338.002 281.85C336.619 281.979 335.314 281.184 334.791 279.899C329.608 267.129 310.396 219.128 309.433 217.106C305.775 209.441 300.897 207.083 296.056 205.894C294.396 205.487 284.592 207.277 272.431 209.81" fill="white"/>
<path d="M268.516 237.39C274.299 235.755 280.096 234.146 285.899 232.575L286.409 232.44C286.597 232.388 286.804 232.349 287.01 232.336C288.251 232.233 289.479 233.125 289.834 234.294L290.216 235.283L290.985 237.26C293.078 242.482 295.069 247.813 297.55 252.847C300.413 257.642 304.387 261.797 307.644 266.347C310.19 269.733 315.25 276.596 317.751 280.008C320.762 283.846 324.4 290.076 327.037 294.231L328.168 296.027C329.118 297.882 330.96 299.181 333.086 298.903C334.288 298.819 335.793 297.766 336.866 297.242C339.251 295.976 345.603 292.493 348.052 291.161C350.54 289.811 353.015 288.447 355.49 287.071L359.206 285.016C359.82 284.718 360.22 284.363 360.304 283.717C360.401 282.76 359.716 282.056 358.753 282.011C356.33 281.649 353.868 281.617 351.412 281.63C348.601 281.668 345.784 281.817 342.966 282.017C341.558 282.121 340.155 282.237 338.753 282.373C338.036 282.463 337.131 282.534 336.401 282.237C335.205 281.836 334.378 280.783 333.99 279.62C333.738 279.032 333.04 277.293 332.782 276.673C326.01 260.149 318.791 242.172 312.142 225.506C310.009 220.394 308.478 214.765 304.4 210.83C302.448 208.898 299.986 207.541 297.337 206.727C295.98 206.197 294.797 206.21 293.33 206.391C286.319 207.231 279.379 208.601 272.432 209.88L272.406 209.744C279.32 208.219 286.222 206.571 293.24 205.589C294.681 205.363 296.2 205.324 297.602 205.854C300.368 206.63 303.049 208.006 305.156 210.048C309.447 214.055 311.14 219.8 313.389 225.008C320.168 241.493 327.36 259.568 333.971 276.201C334.191 276.77 334.927 278.586 335.147 279.155C335.412 280.001 335.942 280.815 336.821 281.113C337.428 281.352 337.978 281.268 338.656 281.21C340.071 281.093 341.486 280.996 342.902 280.912C347.154 280.667 351.432 280.544 355.69 280.848C357.151 281.042 358.663 280.958 360.033 281.61C360.77 282.069 361.151 282.974 361.028 283.807C360.963 284.628 360.22 285.332 359.535 285.617L355.781 287.601C351.483 289.94 345.17 293.223 340.814 295.607L337.086 297.63L335.225 298.651C333.331 299.834 330.669 299.633 329.04 298.063C328.149 297.223 327.276 295.562 326.565 294.547L321.9 287.465C319.366 283.387 314.707 277.746 311.799 273.849C309.266 270.463 304.096 263.71 301.486 260.388C299.76 258.075 297.912 255.955 296.536 253.364C293.77 247.58 291.605 241.59 289.408 235.587L289.046 234.585C288.93 234.249 288.82 234.023 288.619 233.79C288.141 233.228 287.333 232.976 286.61 233.176L286.093 233.305C280.257 234.747 274.409 236.149 268.554 237.525L268.522 237.39H268.516Z" fill="black"/>
<path d="M221.775 215.527L186.078 251.883L195.041 260.11L268.335 238.604L272.994 209.724L274.849 209.227L270.713 201.395L226.816 215.45L221.775 215.527Z" fill="url(#colorOne)"/>
<path d="M269.086 233.55C269.086 233.55 269.086 233.376 269.125 233.046C269.177 232.672 269.241 232.193 269.325 231.599C269.526 230.287 269.797 228.465 270.139 226.203C270.495 223.883 270.921 221.124 271.406 218.002C271.645 216.439 271.891 214.778 272.156 213.052C272.278 212.186 272.408 211.301 272.537 210.396C272.647 209.518 272.808 208.522 272.847 207.689L273.151 207.889C270.178 208.697 266.979 209.569 263.664 210.468C254.074 213.033 245.396 215.359 239.05 217.059C235.935 217.867 233.396 218.526 231.573 218.998C230.727 219.204 230.048 219.372 229.538 219.502C229.072 219.612 228.82 219.663 228.82 219.644C228.82 219.624 229.053 219.547 229.512 219.405C230.022 219.256 230.688 219.056 231.528 218.81C233.337 218.3 235.864 217.589 238.959 216.716C245.292 214.978 253.958 212.606 263.535 209.983C266.85 209.091 270.049 208.225 273.022 207.424L273.338 207.34L273.325 207.624C273.287 208.684 273.119 209.537 273.002 210.461C272.866 211.366 272.731 212.251 272.602 213.117C272.324 214.849 272.065 216.503 271.813 218.067C271.29 221.175 270.831 223.935 270.443 226.248C270.043 228.497 269.719 230.313 269.487 231.618C269.37 232.206 269.28 232.678 269.209 233.053C269.138 233.376 269.099 233.544 269.086 233.544" fill="black"/>
<path d="M218.33 233.653C218.272 233.64 218.478 232.684 219.066 231.217C219.648 229.757 220.656 227.805 222.123 225.886C223.59 223.967 225.206 222.48 226.466 221.53C227.726 220.58 228.592 220.128 228.618 220.18C228.727 220.315 225.393 222.396 222.524 226.196C219.622 229.963 218.491 233.724 218.336 233.66" fill="black"/>
<path d="M182.5 248.563L219.651 249.642L223.115 250.824C225.474 251.632 228.058 251.451 230.281 250.327L232.666 249.118C232.666 249.118 245.338 247.212 247.354 246.327C249.371 245.441 247.955 243.651 247.955 243.651C247.955 243.651 249.028 243.845 252.214 243.05C255.406 242.256 255.607 241.506 255.607 241.506C258.592 241.247 258.334 239.755 258.334 239.755L245.784 236.698L235.781 236.369L225.797 240.155C217.952 238.637 190.636 233.357 183.883 232.155C177.052 230.94 163.566 228.168 163.566 228.168C163.566 228.168 145.11 207.534 129.129 196.161C125.685 193.712 130.68 187.191 130.68 187.191L118.156 192.393" fill="white"/>
<path d="M247.726 243.645C247.687 243.664 247.61 243.489 247.377 243.27C247.144 243.056 246.744 242.817 246.181 242.753C245.626 242.675 244.928 242.779 244.139 242.856C243.332 242.947 242.479 243.044 241.593 243.14C237.981 243.567 235.073 244.084 235.047 243.942C235.015 243.813 237.897 243.069 241.535 242.636C242.44 242.527 243.312 242.449 244.101 242.391C244.883 242.346 245.613 242.268 246.246 242.397C246.879 242.514 247.319 242.85 247.532 243.134C247.745 243.425 247.758 243.632 247.732 243.638" fill="black"/>
<path d="M255.215 241.003C255.202 241.074 254.169 240.893 252.508 240.544C250.847 240.195 248.566 239.684 246.052 239.09C245.768 239.025 245.49 238.954 245.225 238.896H245.302C242.918 239.077 240.798 239.206 239.273 239.271C237.748 239.342 236.811 239.348 236.805 239.284C236.805 239.219 237.722 239.09 239.247 238.928C240.766 238.767 242.886 238.579 245.27 238.398H245.309L245.348 238.405C245.613 238.47 245.891 238.534 246.175 238.599C248.689 239.193 250.957 239.762 252.592 240.195C254.227 240.628 255.235 240.932 255.215 241.003Z" fill="black"/>
<path d="M225.791 240.16C206.773 236.904 187.063 233.272 168.142 229.55L166.449 229.214C165.939 229.104 165.215 228.994 164.717 228.813C162.572 228.225 160.846 225.763 159.367 224.264C149.887 214.286 140.109 204.489 129.117 196.166C136.697 201.387 143.599 207.539 150.248 213.892C153.583 217.065 156.801 220.354 159.981 223.688L162.346 226.202C163.457 227.514 164.956 228.102 166.624 228.335C184.278 231.773 208.318 236.464 225.785 240.167" fill="black"/>
<path d="M182.516 247.871C194.504 248.298 207.68 248.918 219.655 249.629L220.262 249.855L219.642 249.661C211.092 249.681 200.384 249.577 191.764 249.435C188.668 249.396 185.567 249.338 182.471 249.261C181.573 249.228 181.579 247.858 182.51 247.871" fill="black"/>
<path d="M169.629 202.863C169.545 202.973 167.451 201.525 164.957 199.625C162.463 197.725 160.505 196.097 160.589 195.98C160.673 195.871 162.766 197.318 165.261 199.218C167.755 201.118 169.713 202.746 169.629 202.856" fill="black"/>
<path d="M206.747 217.531C206.715 217.667 205.804 217.57 204.718 217.311C203.633 217.053 202.773 216.736 202.806 216.6C202.838 216.465 203.749 216.562 204.835 216.82C205.927 217.079 206.78 217.395 206.747 217.531Z" fill="black"/>
<path d="M150.053 200.296C150.085 200.432 149.181 200.781 148.037 201.072C146.887 201.362 145.93 201.492 145.891 201.356C145.859 201.22 146.764 200.878 147.908 200.581C149.058 200.29 150.014 200.16 150.053 200.296Z" fill="black"/>
<path d="M220.933 215.734C220.881 215.708 190.315 205.608 190.276 205.562C183.555 199.333 173.054 190.06 166.198 183.927C161.81 180.883 153.002 178.279 147.774 179.643C147.884 179.578 138.844 183.649 138.85 183.63C135.871 184.967 132.905 186.331 129.939 187.707C129.603 187.863 129.202 187.72 129.047 187.378C128.885 187.029 129.047 186.609 129.409 186.467C132.446 185.271 135.483 184.056 138.508 182.828C138.533 182.816 147.574 179.1 147.6 179.093C152.957 177.73 162.017 180.405 166.502 183.526C173.397 189.866 183.523 199.223 190.451 205.362C190.244 205.272 221.223 214.881 221.204 214.874C221.443 214.945 221.579 215.204 221.501 215.437C221.424 215.676 221.165 215.811 220.926 215.734" fill="black"/>
<path d="M185.188 209.822C186.797 208.233 188.483 206.727 190.247 205.318C190.325 205.254 190.448 205.267 190.506 205.351C190.564 205.428 190.558 205.538 190.486 205.603C188.8 207.102 187.029 208.511 185.188 209.822Z" fill="black"/>
<path d="M97.5843 141.394C97.3064 139.559 98.3339 137.607 100.008 136.799C100.738 134.169 103.478 132.25 106.198 132.463C106.941 130.738 108.628 129.458 110.489 129.206C112.35 128.954 114.315 129.749 115.484 131.216C116.829 129.865 119.052 129.504 120.751 130.35C122.451 131.197 123.504 133.2 123.233 135.08C125.275 134.415 127.737 135.507 128.609 137.471C129.482 139.436 128.635 141.995 126.767 143.061L101.261 145.058C99.426 144.787 97.8557 143.229 97.5778 141.394" fill="black"/>
<path d="M132.865 155.325C131.869 155.39 115.908 178.415 112.683 179.306C108.509 180.457 102.027 178.499 98.9058 176.12C90.8539 169.994 84.0105 157.361 88.185 147.183C92.1528 137.509 103.171 129.955 114.253 131.79C119.63 132.682 124.095 136.585 127.423 140.669C130.745 144.74 131.243 150.853 132.871 155.332" fill="black"/>
<path d="M142.905 181.298C141.509 179.54 137.341 174.002 137.341 174.002C130.846 174.661 115.311 175.417 108.836 176.005L120.074 191.379" fill="white"/>
<path d="M142.905 181.298C141.509 179.54 137.341 174.002 137.341 174.002C130.846 174.661 115.311 175.417 108.836 176.005L120.074 191.379" stroke="black" stroke-width="0.82" stroke-miterlimit="10"/>
<path d="M121.081 179.338C127.737 179.804 133.353 177.038 135.194 175.836C140.377 172.437 141.921 164.469 138.58 160.256L125.63 142.149C122.283 137.935 113.753 134.09 109.546 137.431L99.2388 148.649C95.0254 151.99 95.4907 159.215 98.8381 163.422L103.064 168.74C102.418 168.676 101.753 168.844 101.21 169.283C99.8204 170.414 98.7347 172.366 100.88 175.364C104.06 179.804 107.749 177.115 108.835 176.01" fill="white"/>
<path d="M121.081 179.338C127.737 179.804 133.353 177.038 135.194 175.836C140.377 172.437 141.921 164.469 138.58 160.256L125.63 142.149C122.283 137.935 113.753 134.09 109.546 137.431L99.2388 148.649C95.0254 151.99 95.4907 159.215 98.8381 163.422L103.064 168.74C102.418 168.676 101.753 168.844 101.21 169.283C99.8204 170.414 98.7347 172.366 100.88 175.364C104.06 179.804 107.749 177.115 108.835 176.01" stroke="black" stroke-width="0.82" stroke-miterlimit="10"/>
<path d="M106.207 174.453C106.168 174.453 106.162 174.582 106.052 174.77C105.949 174.951 105.722 175.183 105.367 175.28C104.656 175.474 103.545 174.925 102.834 173.981C102.472 173.51 102.246 172.973 102.142 172.469C102.026 171.965 102.084 171.513 102.33 171.261C102.562 170.996 102.886 171.022 103.06 171.125C103.234 171.222 103.28 171.351 103.312 171.345C103.338 171.345 103.364 171.177 103.163 170.983C103.066 170.893 102.911 170.809 102.718 170.802C102.517 170.789 102.291 170.873 102.11 171.035C101.722 171.358 101.619 171.998 101.729 172.553C101.819 173.128 102.065 173.736 102.472 174.266C103.273 175.313 104.54 175.927 105.47 175.597C105.916 175.429 106.149 175.093 106.22 174.847C106.291 174.595 106.233 174.46 106.207 174.46" fill="black"/>
<path d="M115.657 152.017C115.761 152.424 114.223 153.471 112.678 155.016C111.108 156.541 110.068 158.027 109.628 157.956C109.428 157.911 109.434 157.445 109.745 156.709C110.048 155.978 110.688 154.996 111.619 154.072C112.549 153.155 113.57 152.508 114.333 152.185C115.102 151.856 115.599 151.83 115.651 152.017" fill="black"/>
<path d="M126.664 143.196C126.716 143.61 125.068 144.476 123.356 145.827C121.617 147.158 120.409 148.515 119.982 148.386C119.789 148.321 119.847 147.856 120.241 147.164C120.629 146.473 121.378 145.568 122.412 144.767C123.446 143.965 124.532 143.442 125.327 143.209C126.128 142.977 126.626 143.003 126.658 143.196" fill="black"/>
<path d="M120.438 150.066C121.84 151.553 123.41 152.865 125.207 153.853C126.887 154.758 128.541 155.714 126.15 157.168C125.691 157.42 125.226 157.627 124.735 157.802C125.187 157.556 125.64 157.317 126.053 157.02C128.147 155.592 126.46 154.978 125.019 154.176C123.229 153.149 121.62 151.766 120.438 150.073" fill="black"/>
<path d="M117.228 136.947C117.674 135.823 113.034 135.209 110.275 135.958C106.107 137.096 100.776 140.081 98.6366 143.183C96.0582 146.925 94.6495 150.912 95.496 155.377C96.3426 159.836 96.8854 168.676 101.396 169.193C103.619 169.452 102.016 168.702 106.96 169.833C108.666 170.221 104.64 160.547 102.178 157.445C99.593 154.195 99.5478 148.96 104.44 147.558C108.201 146.479 113.855 144.127 114.986 140.883C115.968 138.078 115.348 136.721 115.348 136.721L117.228 136.947Z" fill="black"/>
<path d="M114.336 179.133C114.336 179.133 127.053 186.228 139.454 176.38L137.483 173.898C137.483 173.898 131.978 179.96 123.364 179.042" fill="black"/>
<path d="M95.2462 160.476C96.3964 160.444 97.5984 160.392 98.5871 159.81C99.5758 159.229 100.248 157.93 99.7374 156.902C99.5112 156.444 99.0589 156.036 99.0976 155.526C99.1429 154.912 99.8214 154.595 100.358 154.292C102.206 153.225 103.078 150.731 102.296 148.741C103.214 149.077 104.209 148.301 104.565 147.397C104.914 146.485 105.146 143.558 104.92 144.508C104.849 144.812 105.321 142.673 106.206 142.02C106.645 141.697 107.285 141.723 107.692 141.367C108.416 140.734 108.132 139.551 107.692 138.698C107.246 137.845 106.684 136.883 107.04 135.984C107.363 135.151 108.319 134.802 109.108 134.388C109.896 133.975 110.697 133.134 110.368 132.301C110.193 131.868 109.76 131.596 109.321 131.422C107.35 130.647 104.875 131.461 103.757 133.264C101.76 131.739 98.8327 131.551 96.6549 132.811C94.4772 134.071 93.1847 136.708 93.5143 139.202C91.44 138.983 89.2816 139.829 87.9181 141.4C86.5481 142.97 86.0053 145.225 86.5093 147.248C84.7968 147.92 83.569 149.665 83.5173 151.5C83.4656 153.335 84.5901 155.151 86.2573 155.92C85.6369 157.297 85.5012 159.016 86.3672 160.25C87.2331 161.491 89.3139 161.839 90.2574 160.657C90.4771 161.956 91.8018 162.964 93.1137 162.822C94.419 162.68 95.5047 161.413 95.44 160.101" fill="black"/>
<path d="M527.263 343.531C527.263 347.325 508.878 350.401 486.203 350.401C463.527 350.401 445.148 347.325 445.148 343.531C445.148 339.738 463.533 336.662 486.203 336.662C508.872 336.662 527.263 339.738 527.263 343.531Z" fill="url(#colorTwo)"/>
<path d="M483.388 319.988C464.532 320.447 436.893 320.977 418.114 321.403C413.823 321.513 409.59 322.276 405.474 323.594C397.112 326.024 388.756 328.473 380.323 330.651C380.246 330.677 380.207 330.547 380.284 330.521C388.498 327.613 396.795 324.977 405.086 322.314C407.154 321.649 409.319 321.054 411.49 320.68C415.852 319.749 426.592 320.143 431.155 320.04C444.034 320.098 470.936 319.607 483.395 319.988" fill="url(#colorOne)"/>
<path d="M480.821 160.042C484.989 162.524 505.816 175.435 500.104 179.674C497.092 181.904 483.27 182.246 479.593 181.322C469.383 178.77 461.202 170.543 450.746 169.206C446.351 168.643 441.821 169.361 437.485 168.456C432.128 167.344 427.572 163.816 424.315 159.577C421.059 155.338 418.965 150.394 417.039 145.457L440.4 147.725L478.262 160.553L480.821 160.029V160.042Z" fill="url(#colorOne)"/>
<path d="M472.016 174.162C472.016 163.487 463.363 154.834 452.688 154.834C442.012 154.834 433.359 163.487 433.359 174.162C433.359 183.778 438.471 192.605 449.579 193.239V204.153H466.019V188.146C469.716 184.625 472.016 179.662 472.016 174.156" fill="white"/>
<path d="M449.141 193.491C449.141 193.491 456.049 193.963 462.201 190.131C462.201 190.131 458.472 197.937 449.141 196.6V193.491Z" fill="black"/>
<path d="M438.981 166.5C439.214 166.79 440.093 166.474 441.159 166.441C442.225 166.37 443.13 166.609 443.33 166.299C443.421 166.151 443.272 165.86 442.872 165.588C442.477 165.317 441.825 165.104 441.094 165.136C440.364 165.168 439.731 165.446 439.369 165.75C438.994 166.06 438.878 166.357 438.981 166.5Z" fill="black"/>
<path d="M446.398 170.68C446.366 172.592 445.855 174.492 445.009 176.205C444.75 176.89 443.788 177.988 444.408 178.615C445.151 179.106 446.243 178.893 447.109 178.841C446.65 178.964 446.179 179.048 445.7 179.093C443.109 179.216 443.884 177.62 444.705 176.056C445.571 174.383 446.088 172.554 446.398 170.68Z" fill="black"/>
<path d="M472.462 166.376C470.962 158.673 465.043 151.546 456.94 150.777C451.04 150.105 445.043 152.974 441.314 157.53C437.424 162.047 435.673 168.056 435.388 173.924C434.871 182.538 438.477 191.139 447.666 192.942C451.02 193.582 454.581 194.274 457.941 193.356L457.961 193.421C456.067 194.08 454.012 194.131 452.028 193.983C449.566 193.795 447.007 193.479 444.649 192.632C433.824 188.542 433.055 174.525 436.564 165.09C438.309 160.425 441.443 156.198 445.598 153.42C450.561 149.962 457.327 149.038 462.788 151.92C468.126 154.667 471.867 160.625 472.455 166.389" fill="black"/>
<path d="M466.281 178.745C466.281 178.745 466.391 178.829 466.572 178.92C466.753 179.01 467.063 179.081 467.399 178.971C468.078 178.751 468.685 177.705 468.763 176.561C468.801 175.986 468.705 175.43 468.511 174.965C468.336 174.493 468.045 174.157 467.709 174.086C467.373 173.995 467.128 174.189 467.044 174.364C466.953 174.538 466.986 174.667 466.953 174.674C466.934 174.687 466.818 174.564 466.882 174.299C466.914 174.176 466.992 174.028 467.147 173.911C467.302 173.795 467.528 173.737 467.768 173.776C468.259 173.827 468.679 174.299 468.885 174.803C469.118 175.314 469.241 175.94 469.202 176.587C469.112 177.866 468.414 179.036 467.483 179.268C467.031 179.365 466.662 179.217 466.475 179.062C466.288 178.9 466.255 178.752 466.281 178.745Z" fill="black"/>
<path d="M466.236 186.848C465.945 189.704 466.391 192.56 466.378 195.423C466.423 198.292 466.41 201.161 466.19 204.031C465.867 201.168 465.757 198.305 465.693 195.436C465.732 192.573 465.415 189.633 466.236 186.848Z" fill="black"/>
<path d="M451.156 166.927C451.253 167.289 452.546 167.237 454.032 167.554C455.525 167.845 456.701 168.394 456.927 168.097C457.03 167.954 456.849 167.605 456.391 167.224C455.932 166.843 455.189 166.455 454.297 166.268C453.405 166.087 452.565 166.158 451.996 166.332C451.421 166.507 451.124 166.752 451.163 166.927" fill="black"/>
<path d="M447.82 172.432C447.73 172.335 447.083 171.669 445.927 171.56C445.1 171.482 444.499 171.734 444.305 171.818" stroke="black" stroke-width="0.69" stroke-miterlimit="10"/>
<path d="M458.68 173.594L467.184 172.146" stroke="black" stroke-width="0.81" stroke-miterlimit="10"/>
<path d="M424.915 165.342C426.647 164.45 428.786 164.289 430.221 162.964C431.688 161.607 431.985 159.442 432.347 157.478C432.741 155.339 433.336 153.187 434.564 151.384C435.791 149.587 437.743 148.172 439.914 148.03C441.536 147.927 443.203 148.515 444.774 148.082C446.557 147.591 447.714 145.93 449.084 144.689C451.624 142.395 455.307 141.432 458.648 142.195C460.955 142.718 463.165 144.14 464.115 146.305C464.328 146.783 464.451 147.3 464.503 147.83C465.75 147.623 466.958 147.487 467.521 147.552C470.009 147.836 472.264 149.936 472.587 152.586C475.605 152.786 478.416 154.848 479.663 157.768C479.818 158.137 479.954 158.512 480.057 158.899C480.884 160.599 480.917 162.673 480.109 164.405C479.624 165.452 478.836 166.596 479.321 167.63C479.812 168.683 481.227 168.799 482.306 169.245C484.187 170.021 485.279 172.295 484.71 174.247C484.503 174.951 484.115 175.636 484.212 176.36C484.316 177.11 484.917 177.672 485.363 178.279C486.481 179.792 486.707 181.905 485.944 183.637C485.182 185.368 480.497 187.133 478.61 187.359C477.75 187.462 476.839 187.372 476.076 187.779C475.198 188.244 474.765 189.226 474.118 189.976C472.878 191.411 470.694 191.953 468.942 191.255C468.587 191.113 468.264 190.913 467.96 190.687C467.34 191.436 467.32 193.369 465.802 193.278L465.311 180.897C466.752 181.233 470.125 181.349 470.584 176.909C470.803 174.783 470.177 173.627 469.298 173.019C468.109 172.192 466.493 172.134 465.647 172.974C465.608 172.948 465.524 172.935 465.362 172.961C462.125 173.491 462.118 166.932 462.952 165.2C461.873 164.114 460.781 163.016 459.992 161.665C459.204 160.321 458.674 156.747 458.978 155.171C458.978 155.171 458.978 155.171 458.971 155.171C457.537 155.959 455.811 156.211 454.228 155.823C452.8 155.474 451.262 154.654 449.956 155.345C448.58 156.075 448.386 158.053 447.145 158.99C445.375 160.334 442.661 159.856 440.496 160.353C438.822 160.741 439.339 164.179 438.156 165.426C437.808 165.794 437.271 166.105 436.638 166.344C433.426 176.341 435.087 189.705 446.195 193C446.195 193.142 444.037 192.218 442.913 192.07C441.788 191.921 440.767 192.684 439.72 193.117C437.213 194.151 434.021 193.104 432.612 190.79C431.895 189.614 431.533 188.102 430.337 187.404C429.135 186.706 427.617 187.152 426.24 186.984C423.507 186.648 421.562 183.41 422.563 180.845C422.951 179.85 423.701 178.951 423.701 177.885C423.701 176.716 422.809 175.772 422.208 174.77C420.327 171.617 421.646 167.016 424.909 165.329" fill="black"/>
<path d="M438.625 178.318C441.74 178.532 444.441 176.173 444.654 173.058C444.868 169.937 442.509 167.242 439.394 167.029C436.273 166.816 433.578 169.174 433.365 172.289C433.152 175.404 435.51 178.105 438.625 178.318Z" fill="url(#colorTwo)"/>
<path d="M438.625 178.318C441.74 178.532 444.441 176.173 444.654 173.058C444.868 169.937 442.509 167.242 439.394 167.029C436.273 166.816 433.578 169.174 433.365 172.289C433.152 175.404 435.51 178.105 438.625 178.318Z" stroke="black" stroke-width="0.69" stroke-miterlimit="10"/>
<mask id="mask0_5018_10912" style="mask-type:luminance" maskUnits="userSpaceOnUse" x="433" y="167" width="12" height="12">
<path d="M433.614 172.302C433.414 175.274 435.662 177.846 438.635 178.046C441.608 178.247 444.18 175.998 444.38 173.025C444.58 170.053 442.331 167.481 439.359 167.281C439.236 167.274 439.113 167.268 438.991 167.268C436.179 167.268 433.808 169.452 433.614 172.302Z" fill="white"/>
</mask>
<g mask="url(#mask0_5018_10912)">
<g opacity="0.42">
<mask id="mask1_5018_10912" style="mask-type:luminance" maskUnits="userSpaceOnUse" x="431" y="166" width="14" height="15">
<path d="M444.547 166.143H431.727V180.14H444.547V166.143Z" fill="white"/>
</mask>
<g mask="url(#mask1_5018_10912)">
<g opacity="0.32">
<mask id="mask2_5018_10912" style="mask-type:luminance" maskUnits="userSpaceOnUse" x="431" y="166" width="13" height="11">
<path d="M443.165 166.143H431.727V176.553H443.165V166.143Z" fill="white"/>
</mask>
<g mask="url(#mask2_5018_10912)">
<path d="M431.727 172.398C431.727 172.398 443.165 165.813 443.165 166.155C443.165 166.498 434.15 176.553 434.15 176.553L431.727 172.392V172.398Z" fill="white"/>
</g>
</g>
<g opacity="0.32">
<mask id="mask3_5018_10912" style="mask-type:luminance" maskUnits="userSpaceOnUse" x="435" y="168" width="10" height="13">
<path d="M444.56 168.926H435.461V180.138H444.56V168.926Z" fill="white"/>
</mask>
<g mask="url(#mask3_5018_10912)">
<path d="M435.461 176.861C435.461 176.861 444.489 168.622 444.56 168.932C444.631 169.249 438.485 180.138 438.485 180.138L435.461 176.861Z" fill="white"/>
</g>
</g>
</g>
</g>
</g>
<path d="M452.828 178.758C455.943 178.971 458.644 176.612 458.858 173.498C459.071 170.376 456.712 167.682 453.597 167.468C450.476 167.255 447.781 169.614 447.568 172.729C447.355 175.843 449.714 178.545 452.828 178.758Z" fill="url(#colorTwo)"/>
<path d="M452.828 178.758C455.943 178.971 458.644 176.612 458.858 173.498C459.071 170.376 456.712 167.682 453.597 167.468C450.476 167.255 447.781 169.614 447.568 172.729C447.355 175.843 449.714 178.545 452.828 178.758Z" stroke="black" stroke-width="0.69" stroke-miterlimit="10"/>
<mask id="mask4_5018_10912" style="mask-type:luminance" maskUnits="userSpaceOnUse" x="447" y="167" width="12" height="12">
<path d="M447.841 172.749C447.64 175.721 449.889 178.293 452.862 178.494C455.834 178.694 458.406 176.452 458.606 173.473C458.807 170.5 456.564 167.928 453.585 167.728C453.463 167.721 453.34 167.715 453.217 167.715C450.406 167.715 448.034 169.899 447.841 172.749Z" fill="white"/>
</mask>
<g mask="url(#mask4_5018_10912)">
<g opacity="0.42">
<mask id="mask5_5018_10912" style="mask-type:luminance" maskUnits="userSpaceOnUse" x="445" y="166" width="14" height="15">
<path d="M458.751 166.59H445.93V180.587H458.751V166.59Z" fill="white"/>
</mask>
<g mask="url(#mask5_5018_10912)">
<g opacity="0.32">
<mask id="mask6_5018_10912" style="mask-type:luminance" maskUnits="userSpaceOnUse" x="445" y="166" width="13" height="11">
<path d="M457.36 166.59H445.922V177H457.36V166.59Z" fill="white"/>
</mask>
<g mask="url(#mask6_5018_10912)">
<path d="M445.922 172.839C445.922 172.839 457.36 166.254 457.36 166.597C457.36 166.939 448.345 176.995 448.345 176.995L445.922 172.833V172.839Z" fill="white"/>
</g>
</g>
<g opacity="0.32">
<mask id="mask7_5018_10912" style="mask-type:luminance" maskUnits="userSpaceOnUse" x="449" y="169" width="10" height="12">
<path d="M458.755 169.375H449.656V180.587H458.755V169.375Z" fill="white"/>
</mask>
<g mask="url(#mask7_5018_10912)">
<path d="M449.656 177.311C449.656 177.311 458.684 169.071 458.755 169.382C458.826 169.698 452.681 180.587 452.681 180.587L449.656 177.311Z" fill="white"/>
</g>
</g>
</g>
</g>
</g>
<path d="M439.359 151.888C439.359 151.888 448.245 130.925 467.483 138.867C484.485 145.885 480.284 165.136 480.284 165.136L439.359 151.882V151.888Z" fill="url(#colorOne)"/>
<path d="M416.578 145.026C416.578 145.026 440.598 155.734 448.624 158.125C456.644 160.516 465.368 160.458 469.633 164.419C473.898 168.38 480.444 166.842 488.017 170.642C495.591 174.442 498.777 174.164 498.777 174.164C498.777 174.164 491.998 167.482 489.013 165.117C486.027 162.752 479.403 159.049 479.403 159.049L442.659 146.887L416.585 145.02L416.578 145.026Z" fill="url(#colorOne)"/>
<path d="M498.771 174.17C498.771 174.17 498.693 174.189 498.544 174.195C498.396 174.202 498.17 174.195 497.879 174.17C497.291 174.124 496.438 173.982 495.358 173.698C494.279 173.414 492.987 172.987 491.52 172.392C490.783 172.095 490.014 171.753 489.2 171.378C488.392 170.984 487.539 170.583 486.641 170.182C484.832 169.4 482.744 168.799 480.463 168.341C478.188 167.85 475.694 167.578 473.167 166.725C471.914 166.286 470.673 165.633 469.626 164.69C468.618 163.778 467.435 163.068 466.13 162.531C463.519 161.446 460.592 160.916 457.626 160.347C454.647 159.791 451.726 159.255 448.967 158.454C446.207 157.646 443.642 156.618 441.193 155.668C436.301 153.743 431.958 151.875 428.307 150.305C424.662 148.728 421.728 147.423 419.706 146.505C418.724 146.053 417.942 145.697 417.379 145.439C417.134 145.322 416.94 145.226 416.778 145.148C416.643 145.083 416.578 145.045 416.578 145.038C416.578 145.032 416.656 145.057 416.791 145.109C416.953 145.174 417.16 145.258 417.412 145.361C417.98 145.6 418.769 145.936 419.77 146.356C421.845 147.235 424.798 148.489 428.43 150.027C432.094 151.558 436.449 153.394 441.341 155.294C443.79 156.231 446.356 157.245 449.083 158.04C451.816 158.828 454.724 159.365 457.703 159.914C460.676 160.483 463.616 161.019 466.292 162.131C467.623 162.68 468.876 163.436 469.904 164.373C470.899 165.278 472.082 165.904 473.303 166.344C475.759 167.184 478.253 167.481 480.541 167.985C482.835 168.463 484.941 169.084 486.77 169.898C487.681 170.318 488.534 170.732 489.329 171.126C490.137 171.507 490.9 171.856 491.623 172.16C493.071 172.774 494.35 173.22 495.417 173.53C496.476 173.84 497.323 174.008 497.898 174.079C498.189 174.118 498.409 174.137 498.557 174.15C498.706 174.163 498.783 174.163 498.783 174.17" fill="black"/>
<path d="M479.346 158.919C479.346 158.919 478.848 158.751 477.976 158.37C477.11 157.988 475.856 157.445 474.293 156.786C471.178 155.474 466.829 153.769 461.924 152.172C457.019 150.576 452.496 149.394 449.206 148.625C447.558 148.237 446.227 147.933 445.303 147.733C444.379 147.526 443.869 147.403 443.875 147.371C443.875 147.339 444.399 147.41 445.336 147.565C446.273 147.713 447.617 147.965 449.277 148.314C452.593 149.012 457.142 150.15 462.066 151.752C466.984 153.355 471.333 155.113 474.422 156.502C475.966 157.193 477.207 157.782 478.047 158.214C478.894 158.641 479.352 158.893 479.339 158.919" fill="black"/>
<path d="M399.36 225.977C394.675 223.153 380.516 220.846 374.151 237.913C369.421 250.578 359.973 281.784 355.411 297.041L350.493 308.008C350.493 308.008 339.249 312.738 332.128 316.441C330.661 317.203 330.493 319.653 332.166 319.678H362.997C364.4 319.698 365.524 318.554 365.44 317.203L365.065 311.362L376.264 293.862L392.271 267.141L421.079 304.35L436.698 285.849C436.698 285.849 404.052 228.807 399.367 225.977" fill="white"/>
<path d="M399.139 226.353C392.379 222.567 383.184 224.537 378.531 230.754C376.062 233.785 374.66 237.436 373.387 241.106C372.075 244.796 370.841 248.512 369.619 252.228C364.76 267.123 360.185 282.115 355.642 297.108C355.635 297.14 350.698 308.061 350.685 308.093L350.647 308.171C345.613 310.271 340.604 312.442 335.693 314.814C334.472 315.402 333.244 316.01 332.061 316.63C331.525 316.966 331.163 317.58 331.098 318.213C331.021 318.833 331.357 319.512 332.036 319.551L340.165 319.57C343.286 319.59 357.761 319.538 360.527 319.544C361.251 319.506 362.873 319.609 363.545 319.473C364.482 319.273 365.245 318.42 365.277 317.451C365.238 316.184 364.954 312.707 364.883 311.37V311.311L364.909 311.266C367.248 307.589 373.103 298.381 375.358 294.839C377.665 291.143 389.51 271.097 391.998 266.981L392.231 266.593L392.509 266.949L421.336 304.145L420.826 304.132L428.632 294.878C431.23 291.796 433.834 288.707 436.458 285.644L436.425 286.006C427.546 270.748 418.642 255.485 409.246 240.538C407.675 238.05 406.079 235.581 404.438 233.145C402.796 230.851 401.252 228.195 399.139 226.347M399.591 225.61C401.943 227.581 403.371 230.237 405.142 232.673C406.79 235.122 408.38 237.604 409.95 240.098C419.359 255.142 428.29 270.477 437.085 285.883C432.619 291.35 425.918 299.046 421.336 304.559L421.071 304.869L420.819 304.546L392.03 267.324L392.534 267.291C389.956 271.517 378.15 291.292 375.752 295.072C373.497 298.575 367.532 307.835 365.206 311.447L365.232 311.344C365.316 312.662 365.542 316.139 365.594 317.457C365.548 318.562 364.682 319.525 363.616 319.745C362.815 319.893 361.335 319.77 360.534 319.803C357.781 319.803 343.215 319.771 340.171 319.777H332.016C331.648 319.751 331.273 319.557 331.073 319.234C330.504 318.265 331.027 316.966 331.926 316.391C333.147 315.745 334.349 315.144 335.57 314.549C340.469 312.19 345.419 309.954 350.401 307.79C349.871 308.578 355.338 296.688 355.177 296.927C360.734 278.322 366.343 259.336 372.689 240.848C374.518 235.265 377.174 229.475 382.331 226.218C387.403 222.941 394.279 222.683 399.578 225.597" fill="black"/>
<path d="M411.837 243.909C408.812 239.341 405.769 234.766 402.499 230.391C401.252 228.917 400.218 227.024 398.454 226.19C393.051 223.948 386.479 224.639 381.768 228.129C375.054 233.124 373.426 241.855 370.266 249.144C372.863 241.389 374.091 232.342 380.754 226.836C385.743 222.584 393.303 221.932 399.022 225.079C400.916 226.1 402.008 228.213 403.236 229.874C406.292 234.455 409.071 239.179 411.843 243.909" fill="black"/>
<path d="M384.671 250.643C384.742 250.617 385.246 251.651 386.041 253.331C386.914 255.173 387.973 257.415 389.15 259.897C390.364 262.365 391.463 264.588 392.361 266.417C393.188 268.084 393.686 269.125 393.615 269.157C393.55 269.189 392.923 268.214 392.012 266.592C391.095 264.97 389.886 262.689 388.645 260.123C387.411 257.564 386.377 255.205 385.679 253.48C384.981 251.755 384.607 250.669 384.671 250.643Z" fill="black"/>
<path d="M484.684 297.023L440.903 271.316L440.464 271.497C438.758 274.341 437.052 277.184 435.346 280.027C434.79 281.811 434.234 283.601 433.672 285.385L469.272 320.073C469.35 320.073 469.427 320.054 469.505 320.048C469.485 320.08 469.466 320.112 469.466 320.112C474.371 319.699 478.571 317.463 481.124 313.249C485.576 305.895 484.691 297.01 484.691 297.01" fill="url(#colorOne)"/>
<path d="M440.441 271.418L446.923 263.58C446.923 263.58 443.155 257.912 441.178 253.525C441.178 253.525 432.576 239.993 433.526 231.747C434.476 223.501 443.207 207.973 444.034 206.596C445.1 204.819 447.769 202.377 448.79 201.472C449.055 201.239 449.21 200.91 449.223 200.561C449.391 196.742 449.423 195.973 449.378 193.478C449.094 193.433 449.217 193.452 448.357 193.252" fill="white"/>
<path d="M440.436 271.419C442.491 268.718 444.598 266.068 446.685 263.387L446.666 263.742C444.527 260.647 442.233 256.963 440.733 253.797C437.787 249.079 435.234 244.129 433.677 238.766C433.341 237.428 432.985 235.993 432.882 234.61C431.984 227.14 440.048 212.329 444.094 205.757C445.38 204.096 446.931 202.687 448.52 201.337C449.108 200.936 448.966 200.27 449.024 199.644C449.121 197.673 449.225 195.443 449.341 193.472L449.373 193.511C449.024 193.446 448.695 193.33 448.352 193.246C448.695 193.311 449.037 193.401 449.38 193.433C449.502 195.734 449.438 198.351 449.457 200.716C449.425 201.117 449.173 201.524 448.882 201.757C446.931 203.644 444.947 205.505 443.758 207.986C440.055 215.205 436.145 222.623 434.381 230.572C433.838 233.189 434.258 235.871 434.93 238.423C436.417 243.625 438.872 248.601 441.632 253.299C443.221 256.866 445.244 260.285 447.292 263.619C445.011 266.223 442.756 268.847 440.442 271.425" fill="black"/>
<path d="M440.382 252.161L480.991 248.924L480.461 242.442L457.591 244.93C457.591 244.93 445.72 218.183 445.106 218.771C444.492 219.359 432.828 234.235 432.828 234.235L440.389 252.161H440.382Z" fill="url(#colorOne)"/>
<path d="M466.516 200.802C466.516 200.802 459.873 199.929 451.763 207.005C443.653 214.081 435.071 225.707 435.071 225.707L433.469 230.864L449.411 236.163L452.293 225.688L452.06 213.377C452.06 213.377 456.636 203.193 462.413 203.542C468.19 203.891 471.318 205.61 473.806 210.947C476.287 216.285 477.741 243.659 477.741 243.659L480.475 242.444C480.475 242.444 478.29 217.196 477.741 214.501C477.192 211.807 473.967 203.936 466.523 200.802" fill="url(#colorOne)"/>
<path d="M472.371 208.078C472.307 208.142 471.525 207.115 469.838 205.977C468.184 204.846 465.495 203.69 462.407 203.761C459.311 203.832 456.681 205.105 455.078 206.307C453.443 207.515 452.713 208.575 452.642 208.517C452.623 208.504 452.784 208.226 453.146 207.774C453.502 207.321 454.083 206.708 454.891 206.055C456.481 204.756 459.188 203.386 462.4 203.315C465.612 203.25 468.378 204.491 470.025 205.719C470.865 206.333 471.466 206.921 471.841 207.36C472.223 207.793 472.397 208.065 472.378 208.078" fill="url(#colorTwo)"/>
<path d="M473.799 226.527C473.799 226.611 472.694 226.649 470.981 227.102C469.262 227.535 466.987 228.491 464.706 229.958C462.419 231.412 460.551 233.021 459.233 234.217C457.921 235.419 457.139 236.207 457.087 236.162C457.068 236.142 457.236 235.923 457.559 235.541C457.882 235.16 458.38 234.63 459.013 233.997C460.286 232.737 462.141 231.07 464.467 229.59C466.781 228.103 469.133 227.166 470.904 226.804C471.343 226.695 471.744 226.636 472.099 226.598C472.454 226.546 472.758 226.514 473.01 226.52C473.514 226.507 473.792 226.514 473.792 226.54" fill="black"/>
<path d="M465.602 301.178C461.751 291.724 442.868 287.097 440.548 286.561C440.387 286.522 440.232 286.477 440.083 286.412C436.6 285.016 394.822 268.286 377.477 261.404C372.857 259.568 367.616 260.273 363.642 263.258L326.685 292.803L305.935 308.028C305.65 308.235 305.334 308.397 304.991 308.5C302.245 309.347 289.055 313.476 282.91 316.791C281.488 317.554 281.333 320.003 282.942 320.029H317.586C318.943 320.048 320.029 318.904 319.945 317.547C319.861 316.151 320.701 314.859 322.019 314.387C329.14 311.822 348.191 304.868 355.745 301.237C362.446 298.012 368.514 292.59 371.435 289.76C372.521 288.7 374.207 288.571 375.442 289.45C383.326 295.033 410.312 314.141 418.079 319.512C418.609 319.88 419.229 320.067 419.869 320.067H466.041C467.864 320.067 469.311 318.529 469.188 316.707C468.956 313.23 468.155 307.44 465.602 301.165" fill="white"/>
<path d="M465.571 301.19C461.9 293.384 450.578 289.869 442.83 287.613C441.732 287.284 440.549 287.135 439.483 286.689C432.219 283.794 424.458 280.673 417.246 277.726C406.668 273.422 396.102 269.093 385.465 264.944C382.777 263.975 379.998 263.257 377.343 262.198C373.582 260.66 369.168 260.905 365.627 262.915C364.315 263.619 362.143 265.5 360.929 266.437L355.559 270.689C345.478 278.463 333.4 288.538 323.093 295.898C317.794 299.446 311.48 304.047 306.375 307.866C305.477 308.648 304.281 308.855 303.215 309.229C297.851 311.006 292.365 312.945 287.176 315.155C286.135 315.608 285.101 316.079 284.087 316.59C283.098 317.055 282.181 317.52 282.142 318.677C282.129 319.155 282.323 319.562 282.71 319.646C282.878 319.685 283.195 319.679 283.479 319.679H284.339C285.386 319.685 313.289 319.756 315.164 319.763C315.881 319.75 317.063 319.789 317.716 319.763C318.485 319.737 319.196 319.233 319.5 318.535C319.765 318.011 319.622 317.52 319.694 316.926C319.829 315.685 320.708 314.574 321.884 314.147L325.102 312.965C333.665 309.805 342.247 306.657 350.667 303.149C354.893 301.436 358.964 299.42 362.648 296.719C365.42 294.728 368.043 292.538 370.518 290.192C370.919 289.849 371.384 289.281 371.869 289.029C373.698 287.924 375.41 288.893 376.877 290.069C387.268 297.397 405.679 310.36 416.038 317.74L417.434 318.735L418.132 319.233C418.358 319.401 418.578 319.524 418.823 319.621C419.321 319.827 419.825 319.827 420.413 319.821H422.125C429.421 319.866 452.22 319.924 459.806 319.963L463.231 319.976H464.944C465.512 319.976 466.094 320.021 466.637 319.931C467.729 319.724 468.679 318.877 468.983 317.798C469.28 316.713 468.963 315.536 468.899 314.425C468.375 309.895 467.296 305.417 465.558 301.19M465.629 301.165C467.322 305.41 468.498 309.863 469.034 314.406C469.112 315.543 469.428 316.706 469.131 317.837C468.821 318.974 467.826 319.873 466.669 320.099C465.713 320.228 464.214 320.15 463.231 320.176L459.806 320.189C454.456 320.228 430.261 320.28 425.55 320.312L422.125 320.325C421.027 320.273 419.657 320.506 418.629 320.112C418.138 319.944 417.55 319.472 417.124 319.181L415.721 318.199C404.632 310.47 386.157 297.391 375.113 289.63C374.008 288.919 372.477 289.119 371.572 290.069L370.951 290.664C370.118 291.452 369.271 292.221 368.399 292.971C364.929 295.975 361.213 298.715 357.155 300.874C345.846 306.263 333.82 310.341 322.065 314.671C321.076 315.026 320.333 315.956 320.21 317.003C320.172 317.275 320.198 317.495 320.191 317.837C320.146 318.793 319.532 319.692 318.653 320.073C318.097 320.331 317.445 320.299 316.863 320.299H315.151C313.412 320.299 285.45 320.403 284.32 320.39H283.46C283.176 320.39 282.911 320.415 282.523 320.338C281.004 319.911 281.198 317.772 282.187 316.874C282.555 316.473 283.299 316.209 283.757 315.95C288.927 313.475 294.394 311.691 299.829 309.94L303.105 308.919L304.746 308.422C305.309 308.292 305.748 308.015 306.213 307.659C324.456 294.651 342.427 279.18 359.953 265.19C361.265 264.175 363.365 262.308 364.838 261.526C368.257 259.6 372.431 259.096 376.212 260.156C379.54 261.144 382.525 262.973 385.692 264.343C396.264 268.666 406.901 272.809 417.531 276.97C424.794 279.781 432.568 282.909 439.825 285.791C440.853 286.218 441.997 286.392 443.063 286.728C450.805 289.042 462.204 293.332 465.622 301.158" fill="black"/>
<path d="M474.27 214.972C474.018 204.6 466.463 203.715 466.463 203.715C466.463 203.715 458.017 200.161 450.308 210.649C448.305 213.369 440.472 222.455 434.172 230.009" fill="white"/>
<path d="M434.167 230.004C431.853 232.782 429.727 235.335 428.125 237.248C426.25 239.497 423.62 240.976 420.725 241.422L367.574 249.539C367.574 249.539 365.273 249.274 362.391 252.04C359.516 254.812 353.758 267.588 353.758 267.588C353.758 267.588 354.326 269.19 357.079 269.1C358.831 269.042 367.574 259.193 367.574 259.193L374.857 259.316C396.221 260.99 428.596 260.609 430.923 259.368C433.249 258.127 475.214 224.75 474.258 214.973" fill="white"/>
<path d="M434.226 230.049L428.617 237.073C426.801 239.516 423.99 241.261 420.94 241.784L412.067 243.251C397.346 245.597 382.347 247.962 367.594 249.959C363.543 250.023 361.119 253.901 359.297 257.106C357.391 260.318 355.445 264.718 353.959 267.523C354.47 268.635 356.053 268.996 357.19 268.867C358.696 268.169 359.853 266.825 361.093 265.694C363.303 263.523 365.404 261.222 367.446 258.883C372.764 258.819 378.082 259.103 383.381 259.361C393.889 259.762 404.409 259.891 414.93 259.84C418.865 259.794 422.807 259.717 426.736 259.465C427.977 259.361 429.36 259.297 430.529 258.999C430.723 258.967 430.982 258.754 431.247 258.573L432.029 257.991C443.686 248.537 455.564 238.857 465.923 227.975C467.706 226.049 469.445 224.078 471.008 221.978C472.462 219.89 474.201 217.629 474.201 214.986L474.33 214.973C474.576 221.706 460.288 234.876 455.318 239.71C448.113 246.45 440.61 252.99 432.623 258.799L431.809 259.381C430.42 260.415 428.442 260.253 426.801 260.473C422.852 260.764 418.891 260.867 414.936 260.951C404.396 261.177 393.85 260.97 383.323 260.35C378.063 259.975 372.842 259.555 367.568 259.51L367.801 259.407C366.761 260.544 365.714 261.662 364.648 262.767C362.47 264.964 360.441 267.277 357.862 269.035C357.158 269.5 356.247 269.332 355.471 269.151C354.676 268.932 353.894 268.447 353.539 267.601L353.578 267.517C355.213 263.904 356.919 260.337 358.832 256.854C359.807 255.122 360.744 253.377 362.134 251.833C363.458 250.411 365.869 249.048 367.51 249.138C379.323 247.148 391.162 245.306 403.02 243.587L411.912 242.275L420.804 241.022C423.679 240.595 426.348 239.038 428.216 236.744L434.116 229.965L434.219 230.049H434.226Z" fill="black"/>
<path d="M446.953 263.639C449.228 264.194 451.774 265.551 453.803 266.605C451.541 265.655 448.898 265.067 446.953 263.639Z" fill="black"/>
<path d="M481 248.924C481.407 254.087 481.646 257.564 481.646 257.564L484.819 297.946" fill="white"/>
<path d="M481.102 248.912C482.608 264.654 484.01 282.16 484.824 297.94C483.603 286.664 482.479 272.576 481.651 261.196C481.361 257.112 481.115 253.022 480.915 248.925C480.902 248.808 481.096 248.789 481.102 248.912Z" fill="black"/>
<script type="text/ecmascript" xlink:href="https://dev.w3.org/SVG/modules/ref/master/ref2.js"></script></svg>
