<svg width="640" height="360" viewBox="0 0 640 360" fill="none" 
xmlns="http://www.w3.org/2000/svg" 
xmlns:xlink="http://www.w3.org/1999/xlink">
<defs>
<ref id="colorOne" param="c1" default="#242C4F" />
<ref id="colorTwo" param="c2" default="#9296A7"/>
</defs>
<path d="M177.398 300.301H462.798C463.298 300.301 463.798 300.701 463.798 301.301V301.901C463.798 302.401 463.398 302.901 462.798 302.901H177.398C176.898 302.901 176.398 302.501 176.398 301.901V301.301C176.398 300.801 176.798 300.301 177.398 300.301Z" fill="black"/>
<path d="M348.218 46.3778C348.973 42.9812 344.384 39.0716 337.968 37.6455C331.552 36.2193 325.739 37.8166 324.984 41.2132C324.229 44.6098 328.818 48.5194 335.234 49.9456C341.65 51.3717 347.463 49.7744 348.218 46.3778Z" fill="url(#colorTwo)"/>
<path d="M348.218 46.3778C348.973 42.9812 344.384 39.0716 337.968 37.6455C331.552 36.2193 325.739 37.8166 324.984 41.2132C324.229 44.6098 328.818 48.5194 335.234 49.9456C341.65 51.3717 347.463 49.7744 348.218 46.3778Z" fill="url(#colorTwo)"/>
<path d="M339.796 51.3C338.296 51.3 336.696 51.1 334.996 50.8C327.996 49.3 323.296 45 324.096 41.1C324.496 39.1 326.296 37.6 329.096 36.9C331.696 36.2 334.896 36.2 338.096 36.9C345.096 38.4 349.796 42.7 348.996 46.6C348.396 49.5 344.696 51.3 339.796 51.3ZM333.396 38C331.996 38 330.796 38.2 329.596 38.5C327.496 39.1 326.196 40.1 325.896 41.4C325.296 44.3 329.596 47.8 335.396 49.1C341.196 50.4 346.596 49.1 347.296 46.2C347.896 43.3 343.596 39.8 337.796 38.5C336.296 38.2 334.796 38 333.396 38Z" fill="black"/>
<path d="M384.395 292.999C385.095 283.399 379.295 253.199 379.295 253.199H285.695C285.695 253.199 282.195 276.399 282.195 287.999C282.195 289.499 282.595 293.999 283.295 300.599C316.895 300.599 350.495 300.599 384.095 300.599C384.195 296.799 384.295 294.199 384.395 292.999Z" fill="black"/>
<path d="M393.792 195.5C393.792 195.5 396.992 233.6 396.692 246.1C396.392 258.7 393.392 285.1 393.392 285.1C393.392 285.1 395.492 309.4 395.092 313.1C394.792 316.7 384.492 325.6 381.792 325.4C379.092 325.2 378.592 324.8 379.292 322.2C379.292 322.2 376.892 321.7 377.492 319C378.092 316.3 382.892 313.2 382.892 313.2L386.192 311L387.392 299.9C387.392 299.9 385.092 311.3 382.592 311.9C380.092 312.5 378.792 311.8 378.992 307.3C379.192 303.4 380.292 293.4 380.292 288.2C380.292 286.4 380.392 284.8 380.492 283.3L370.492 199.4" fill="white"/>
<path d="M393.994 195.5C395.294 206.7 396.294 217.9 397.194 229.1C397.694 236.6 398.194 244.1 397.694 251.7C397.094 262.9 395.994 274.1 394.694 285.3C394.994 288.2 395.394 294.1 395.594 298C395.894 302.9 396.294 307.8 396.194 312.7C396.194 314.6 394.894 316.3 393.794 317.6C391.594 320.2 389.094 322.4 386.394 324.3C384.994 325.2 383.294 326.5 381.394 326.3C379.994 326.2 378.094 325.7 378.194 323.8C378.194 323.1 378.394 322.5 378.494 322L379.194 323.1C377.294 322.7 376.294 320.7 376.794 319C378.294 314.9 382.694 312.9 385.994 310.6L385.694 311C386.194 307.3 386.694 303.6 387.094 300L387.994 300.1C387.094 303.8 386.294 307.4 384.494 310.8C383.994 311.7 383.194 312.5 382.094 312.5C381.094 312.7 379.794 312.4 379.294 311.4C378.394 309.5 378.794 307.6 378.894 305.7C379.294 300.1 379.794 294.6 379.794 289C379.794 287.4 379.794 284.5 379.894 283.5C378.894 276.5 377.894 269.6 377.094 262.6C375.394 249.1 373.794 234.2 372.494 220.6C371.794 213.6 371.194 206.6 370.594 199.6H370.794C372.394 209.6 373.894 220.9 375.294 231C377.594 248.4 379.794 266 381.394 283.4C381.094 287.1 381.094 291 380.694 294.7L379.594 305.8C379.494 307.5 379.194 309.5 379.894 311.1C380.294 312.1 381.594 312 382.594 311.7C383.194 311.5 383.494 311 383.794 310.4C385.494 307.2 386.294 303.5 387.094 299.9L387.994 300C387.594 303.8 387.294 307.6 386.894 311.3C383.994 313.4 379.594 315.7 378.394 319.2C378.094 320.2 378.594 321.1 379.594 321.3L380.494 321.5C380.394 322.1 380.094 323.2 380.094 323.8C380.094 324 380.194 324.1 380.194 324.1C380.194 324.1 380.294 324.2 380.394 324.2C381.094 324.4 382.094 324.6 382.894 324.2C386.494 322.3 389.694 319.3 392.294 316.2C393.094 315.1 393.894 314.2 394.094 312.9C394.094 304.6 392.794 293.4 392.194 285.1C393.594 270.2 395.794 255.3 395.794 240.4C395.594 227.3 394.494 208.8 393.894 195.5C393.694 195.5 393.994 195.5 393.994 195.5Z" fill="black"/>
<path d="M288.995 93.2988C286.595 94.6988 305.095 125.699 310.195 123.899C312.795 122.999 315.695 121.799 316.795 119.299" fill="black"/>
<path d="M341.295 116.398L343.395 135.398L351.795 136.198L343.495 150.598C342.795 151.798 335.895 159.698 327.595 161.898C326.395 162.198 324.795 160.998 323.095 160.398C321.495 158.198 319.295 155.398 317.795 150.598C316.495 146.398 316.295 142.598 316.295 139.998C317.395 138.898 315.695 121.098 315.695 121.098L341.295 116.398Z" fill="white"/>
<path d="M316.398 128.099C316.398 128.099 331.698 128.799 339.398 121.699C339.398 121.699 332.198 132.999 317.098 133.699L316.398 128.099Z" fill="black"/>
<path d="M348.899 115.199C350.099 123.199 350.099 131.399 348.999 139.499C347.799 131.499 347.799 123.299 348.899 115.199Z" fill="black"/>
<path d="M317.494 143.698C316.294 138.498 315.894 133.198 316.494 127.898C317.994 132.998 318.294 138.398 317.494 143.698Z" fill="black"/>
<path d="M307.697 137.899C313.497 144.699 317.197 152.999 323.097 159.599C323.797 160.399 324.597 161.099 325.497 161.599C326.397 162.099 327.397 161.999 328.497 161.699C330.597 161.199 332.597 160.099 334.397 158.999C338.097 156.599 341.297 153.599 344.097 150.099C341.397 153.599 338.297 156.799 334.597 159.299C332.797 160.499 330.797 161.699 328.597 162.299C327.497 162.599 326.197 162.799 325.097 162.199C320.297 159.299 317.297 153.999 313.997 149.699C311.397 146.199 308.897 142.399 305.897 139.399C304.897 138.399 306.597 136.699 307.697 137.899Z" fill="black"/>
<path d="M318.496 89.3005C318.796 89.8005 320.696 88.9005 322.996 88.5005C325.296 88.0005 327.296 88.2005 327.496 87.6005C327.596 87.3005 327.096 86.9005 326.196 86.7005C325.296 86.4005 323.996 86.3005 322.596 86.5005C321.196 86.8005 319.996 87.3005 319.296 87.9005C318.696 88.5005 318.396 89.1005 318.496 89.3005Z" fill="black"/>
<path d="M299.596 91.8C300.096 92.1 301.296 91.3 302.796 90.8C304.396 90.2 305.796 90.2 305.996 89.7C306.096 89.4 305.696 89.1 304.996 88.8C304.296 88.6 303.196 88.5 302.096 88.9C300.996 89.3 300.196 89.9 299.796 90.6C299.496 91.1 299.396 91.6 299.596 91.8Z" fill="black"/>
<path d="M326.795 128C326.495 129 325.595 129.1 325.195 128.1C325.495 127 326.295 127 326.795 128Z" fill="black"/>
<path d="M322.898 59.6997C306.898 60.5997 294.698 76.5997 295.698 95.5997C296.698 114.6 306.898 130.6 325.798 127.9C330.498 127.2 335.498 124.5 339.298 121.9C340.898 124.6 342.398 125.9 343.598 125.7C347.698 125.2 349.798 109 349.898 77.1997C343.698 66.5997 333.398 59.1997 322.898 59.6997Z" fill="white"/>
<path d="M349.797 77.2997C335.497 50.7997 301.497 56.7997 296.697 86.2997C294.197 103.2 301.797 127.5 321.997 127.6C328.197 127.9 333.997 125.1 339.197 121.9L339.297 122C334.297 125.7 328.397 128.8 321.997 128.8C303.897 129.4 295.397 111.3 294.997 95.4997C294.697 86.0997 297.697 76.4996 303.797 69.1996C312.197 58.6996 326.497 55.3997 337.997 62.7997C343.397 66.1997 347.497 71.2996 349.997 77.0996L349.797 77.2997Z" fill="black"/>
<path d="M324.701 75.8996C324.701 75.8996 324.901 75.4996 324.801 74.8996C324.701 74.1996 324.401 73.2996 323.501 72.3996C322.601 71.4996 321.101 70.9996 319.401 71.2996C318.601 71.4996 317.701 71.8996 317.201 72.6996C316.901 73.0996 316.701 73.6996 316.901 74.1996C317.001 74.7996 317.501 75.1996 318.101 75.3996C319.101 75.6996 320.101 75.3996 320.901 74.8996C321.701 74.3996 322.301 73.7996 322.701 73.0996C323.601 71.6996 323.601 70.0996 323.201 68.8996C322.801 67.6996 322.101 66.9996 321.601 66.5996C321.101 66.1996 320.701 66.0996 320.701 66.0996C320.601 66.1996 322.101 66.8996 322.701 68.9996C323.001 69.9996 322.901 71.3996 322.101 72.5996C321.701 73.1996 321.201 73.6996 320.501 74.0996C319.801 74.4996 319.101 74.6996 318.401 74.4996C317.701 74.2996 317.601 73.5996 318.001 72.9996C318.401 72.3996 319.101 72.0996 319.701 71.8996C321.101 71.5996 322.401 71.9996 323.201 72.6996C324.001 73.3996 324.401 74.2996 324.601 74.7996C324.701 75.4996 324.701 75.8996 324.701 75.8996Z" fill="black"/>
<path d="M312.497 94.9004C313.397 97.8004 313.497 100.9 312.897 103.8C312.497 106 311.497 108.4 314.897 107.5C315.597 107.3 316.297 107.1 316.997 106.8C316.397 107.2 315.697 107.6 314.997 107.8C311.097 109.2 311.397 106.4 311.997 103.6C312.697 100.8 312.797 97.9004 312.497 94.9004Z" fill="black"/>
<path d="M271.594 116.199C271.194 116.799 257.894 136.699 257.894 136.699C257.894 136.699 245.394 156.199 243.594 161.699C240.894 169.699 240.294 183.599 248.994 187.299C257.594 190.999 260.594 191.099 270.994 187.099C281.394 183.099 288.994 176.799 288.994 176.799L286.994 140.499L278.594 144.799L285.794 125.399L271.594 116.199Z" fill="url(#colorOne)"/>
<path d="M278.495 144.899L285.395 125.399L285.495 125.799C280.695 122.799 275.995 119.699 271.195 116.699L271.895 116.599C266.895 124.399 259.595 135.099 254.795 142.899C252.095 147.399 249.395 151.799 246.895 156.399C244.295 160.799 242.795 165.799 242.595 170.999C242.395 175.899 242.995 181.499 246.595 184.999C249.495 187.299 253.395 188.499 256.995 189.299C260.795 189.899 264.495 188.799 268.095 187.499C275.395 184.899 282.395 181.199 288.595 176.499L288.395 176.999C287.895 167.999 287.095 149.799 286.795 140.699L286.995 140.799L278.495 144.899L286.795 140.399L286.995 140.299V140.599C287.595 149.599 288.895 167.799 289.495 176.799V177.099L289.295 177.299C283.095 182.299 276.095 186.099 268.595 188.799C266.095 189.699 263.595 190.499 260.795 190.799C256.695 191.299 252.695 189.799 249.095 188.299C242.195 185.699 240.595 177.399 240.995 170.899C241.195 165.499 242.795 160.299 245.595 155.699C248.095 151.099 250.895 146.599 253.595 142.199C258.295 134.499 265.995 123.599 271.095 116.099L271.395 115.699L271.795 115.999C276.595 119.199 281.295 122.299 286.095 125.599C286.095 125.599 278.595 144.599 278.495 144.899Z" fill="black"/>
<path d="M391.991 170.8C387.091 153 382.791 147.1 382.791 147.1C382.791 147.1 368.391 173.2 367.891 173.8C367.591 174.1 369.491 188.8 370.891 199.6H370.591L378.991 281.8H397.891C398.691 274.2 399.091 244 399.091 233.4C399.091 220.3 394.791 180.9 391.991 170.8Z" fill="url(#colorOne)"/>
<path d="M286.895 140.599L313.995 136.499C313.995 136.499 316.495 146.199 330.895 143.799C345.695 141.199 350.595 131.799 350.595 131.799C350.595 131.799 370.595 139.499 375.395 141.699C380.195 143.799 382.795 147.099 382.795 147.099C382.795 147.099 373.995 181.099 373.795 181.599C373.495 181.999 379.695 265.399 378.995 265.299C378.695 265.199 351.995 274.099 328.195 273.599C304.895 272.999 284.495 262.999 284.495 262.999L288.195 176.199L279.695 146.899L286.895 140.599Z" fill="url(#colorOne)"/>
<path d="M282.292 135.199C282.292 135.199 282.292 135.299 282.192 135.499C282.092 135.699 281.992 136.099 281.792 136.399C281.492 137.199 280.992 138.399 280.492 139.899C279.392 142.899 277.992 146.999 276.492 151.599C275.792 153.899 274.992 155.999 274.492 158.099C274.292 159.099 273.992 160.099 273.792 160.999C273.592 161.899 273.292 162.699 272.992 163.499C272.692 164.199 272.492 164.899 272.292 165.499C272.092 166.099 271.892 166.599 271.692 166.999C271.492 167.399 271.392 167.699 271.192 167.899C271.092 168.099 270.992 168.199 270.992 168.199C270.992 168.199 270.992 168.099 271.092 167.899C271.192 167.699 271.292 167.399 271.492 166.999C271.692 166.599 271.892 166.099 272.092 165.499C272.292 164.899 272.492 164.199 272.792 163.499C273.392 161.999 273.792 160.199 274.292 158.199C274.692 156.099 275.492 153.999 276.292 151.699C277.792 147.099 279.192 142.999 280.392 139.999C280.992 138.499 281.392 137.299 281.792 136.499C281.992 136.099 282.092 135.799 282.192 135.599C282.192 135.299 282.292 135.199 282.292 135.199Z" fill="black"/>
<path d="M289.194 190.098C289.194 190.098 289.194 189.998 289.194 189.898C289.194 189.698 289.194 189.498 289.094 189.198C289.094 188.598 288.994 187.698 288.894 186.598C288.694 184.398 288.494 181.198 288.194 177.598C287.694 175.298 287.094 172.798 286.394 170.198C284.994 164.798 283.294 159.998 281.694 156.798C280.894 155.098 280.094 153.898 279.594 153.098C279.294 152.698 279.094 152.398 278.894 152.198C278.794 152.098 278.794 151.998 278.694 151.998C278.694 151.898 278.594 151.898 278.594 151.898C278.594 151.898 278.594 151.898 278.694 151.998C278.794 152.098 278.794 152.098 278.894 152.198C279.094 152.398 279.294 152.698 279.594 153.098C280.194 153.898 280.994 155.198 281.794 156.798C283.494 160.098 285.194 164.798 286.594 170.198C287.294 172.798 287.894 175.298 288.394 177.598C288.594 181.298 288.794 184.398 288.994 186.598C289.094 187.698 289.094 188.598 289.094 189.198C289.094 189.498 289.094 189.698 289.094 189.898C289.194 189.998 289.194 190.098 289.194 190.098Z" fill="black"/>
<path d="M313.797 143.498C313.797 143.498 314.097 142.398 314.897 141.398C315.697 140.398 316.697 139.898 316.697 139.898C316.697 139.998 315.797 140.498 314.997 141.498C314.297 142.498 313.897 143.498 313.797 143.498Z" fill="black"/>
<path d="M317.998 146.099C317.898 146.099 317.898 145.099 318.398 143.999C318.898 142.899 319.698 142.299 319.698 142.299C319.698 142.299 318.998 142.999 318.598 144.099C318.098 145.199 318.098 146.099 317.998 146.099Z" fill="black"/>
<path d="M323.397 148.399C323.297 148.399 323.297 147.399 323.297 146.099C323.297 144.799 323.297 143.799 323.397 143.799C323.497 143.799 323.497 144.799 323.497 146.099C323.497 147.399 323.497 148.399 323.397 148.399Z" fill="black"/>
<path d="M329.996 148.2C329.996 148.2 329.396 147.4 328.996 146.2C328.596 145 328.596 144 328.696 144C328.796 144 328.896 145 329.196 146.1C329.596 147.3 330.096 148.1 329.996 148.2Z" fill="black"/>
<path d="M336.695 147.299C336.595 147.299 336.095 146.299 335.595 145.099C334.995 143.799 334.595 142.799 334.695 142.799C334.795 142.799 335.295 143.799 335.795 144.999C336.295 146.299 336.695 147.299 336.695 147.299Z" fill="black"/>
<path d="M343.097 144.4C342.997 144.4 342.397 143.5 341.497 142.4C340.597 141.3 339.797 140.6 339.797 140.5C339.797 140.5 340.697 141.2 341.597 142.2C342.597 143.4 343.197 144.4 343.097 144.4Z" fill="black"/>
<path d="M350.398 140.498C350.398 140.498 349.498 139.598 348.298 138.798C347.098 137.898 345.898 137.398 345.898 137.398C345.898 137.398 346.198 137.498 346.698 137.698C347.198 137.898 347.798 138.198 348.398 138.698C348.998 139.098 349.598 139.598 349.898 139.998C350.198 140.198 350.398 140.498 350.398 140.498Z" fill="black"/>
<path d="M310.594 139.4C310.594 139.4 311.394 138.6 312.694 138C313.894 137.4 315.094 137.2 315.094 137.3C315.094 137.4 313.994 137.6 312.794 138.2C311.594 138.8 310.694 139.4 310.594 139.4Z" fill="black"/>
<path d="M306.594 204.698C306.594 204.698 306.594 204.698 306.694 204.598C306.794 204.598 306.894 204.498 306.994 204.398C307.294 204.198 307.794 203.998 308.294 203.798C309.494 203.198 311.094 202.498 313.194 201.498C317.294 199.498 322.894 196.798 329.094 193.698C335.294 190.598 340.794 187.598 344.794 185.498C346.794 184.398 348.394 183.598 349.494 182.898C350.094 182.598 350.494 182.398 350.794 182.198C350.894 182.098 351.094 182.098 351.094 181.998C351.194 181.998 351.194 181.898 351.194 181.898C351.194 181.898 351.194 181.898 351.094 181.998C350.994 181.998 350.894 182.098 350.794 182.198C350.494 182.398 350.094 182.598 349.494 182.898C348.394 183.498 346.794 184.398 344.794 185.498C340.794 187.698 335.294 190.598 329.094 193.798C322.894 196.898 317.294 199.698 313.094 201.598C310.994 202.598 309.394 203.298 308.194 203.898C307.594 204.198 307.194 204.398 306.894 204.498C306.794 204.598 306.594 204.598 306.594 204.698Z" fill="black"/>
<path d="M355.392 135.6C355.392 135.7 354.392 134.7 352.892 134.2C351.392 133.6 349.992 133.8 349.992 133.7C349.992 133.7 350.292 133.6 350.892 133.6C351.392 133.6 352.192 133.7 352.992 134C353.792 134.3 354.392 134.7 354.792 135C355.192 135.3 355.392 135.6 355.392 135.6Z" fill="black"/>
<path d="M375.494 158.9C373.294 172.4 370.994 186 372.594 199.6C374.094 222.3 375.294 245.4 376.094 268.1C374.494 249.9 373.194 231.6 371.994 213.4C371.694 208.9 370.894 197.3 370.494 192.9C369.994 181.4 372.494 170 375.494 158.9Z" fill="black"/>
<path d="M350.695 131.699C360.795 134.899 371.495 137.199 380.295 143.199C388.795 150.399 391.695 161.699 393.795 172.099C394.995 178.999 395.695 186.099 395.495 193.099C393.095 179.599 390.595 165.599 384.195 153.499C382.095 149.899 379.795 146.499 376.295 144.499L374.095 143.199C366.495 138.999 358.195 136.199 350.695 131.699Z" fill="black"/>
<path d="M318.192 135.9C309.892 137.8 301.292 139 292.892 140.3C291.192 140.5 289.492 140.8 287.892 141.1C284.692 142 281.592 143.7 278.492 144.9C281.392 142.9 284.192 140.9 287.492 139.6C290.892 138.7 294.292 138.2 297.692 137.7C304.492 136.7 311.292 136 318.192 135.9Z" fill="black"/>
<path d="M360.997 91.9C362.597 93 359.097 101.3 353.997 108.6C352.297 111 351.197 112.1 348.397 117C346.697 106.9 347.997 97.1 346.297 87" fill="black"/>
<path d="M346.5 94.1995C346.7 94.0995 355.3 89.8995 356.5 99.1995C357.7 108.4 348.2 107.8 348.2 107.5C348.1 107.2 346.5 94.1995 346.5 94.1995Z" fill="white"/>
<path d="M349.698 103.699C349.698 103.699 349.898 103.799 350.198 103.899C350.498 103.999 350.898 103.999 351.398 103.799C352.298 103.299 352.898 101.699 352.798 99.9988C352.698 99.1988 352.398 98.3988 351.998 97.7988C351.598 97.1988 351.098 96.6988 350.598 96.6988C350.098 96.6988 349.798 96.9988 349.698 97.2988C349.598 97.5988 349.698 97.7988 349.598 97.7988C349.598 97.7988 349.398 97.6988 349.398 97.2988C349.398 97.0988 349.498 96.8988 349.698 96.6988C349.898 96.4988 350.198 96.3988 350.598 96.2988C351.298 96.2988 351.998 96.7988 352.498 97.4988C352.998 98.1988 353.298 99.0988 353.398 99.9988C353.598 101.899 352.898 103.699 351.598 104.299C350.998 104.599 350.398 104.399 350.098 104.299C349.698 103.899 349.598 103.699 349.698 103.699Z" fill="black"/>
<path d="M303.099 64.6992C303.499 61.0992 307.199 59.0992 310.399 57.8992C317.299 55.3992 324.599 53.5992 331.899 54.3992C339.199 55.1992 346.499 58.8992 350.599 65.3992C355.199 72.8992 354.899 82.4992 354.299 91.3992L349.599 91.9992C345.699 100.999 343.599 99.9992 340.799 91.1992C339.799 87.9992 333.999 84.3992 331.099 82.8992C329.399 81.9992 327.399 82.1992 325.499 82.2992C317.199 82.3992 302.599 79.1992 298.199 71.6992C297.299 70.0992 302.899 66.4992 303.099 64.6992Z" fill="black"/>
<path d="M357.997 61.3004C355.797 55.0004 352.897 50.6004 347.097 47.2004C343.497 45.1004 334.597 43.2004 330.397 43.0004C321.097 42.7004 315.497 45.0004 308.097 50.6004C300.697 56.3004 295.297 64.5004 293.097 73.6004C292.197 77.5004 291.797 81.6004 292.797 85.4004C292.397 83.6004 303.197 69.4004 319.197 72.2004C335.197 75.0004 360.997 96.1004 360.997 96.1004C364.297 84.6004 361.897 72.6004 357.997 61.3004Z" fill="url(#colorTwo)"/>
<path d="M361.498 97.5996L360.498 96.7996C360.198 96.5996 334.698 75.9996 319.098 73.2996C310.498 71.7996 303.798 75.2996 299.698 78.4996C295.598 81.6996 293.698 84.8996 293.698 85.4996L291.998 85.7996C291.098 82.2996 291.198 78.1996 292.298 73.5996C294.498 64.2996 299.998 55.8996 307.598 50.0996C315.698 43.8996 321.398 41.9996 330.498 42.2996C334.598 42.3996 343.698 44.3996 347.598 46.5996C353.098 49.7996 356.298 53.9996 358.898 61.0996C363.898 75.0996 364.798 86.2996 361.998 96.3996L361.498 97.5996ZM314.998 71.0996C316.398 71.0996 317.898 71.1996 319.398 71.4996C333.798 73.9996 355.498 90.5996 360.598 94.4996C362.898 85.0996 361.798 74.5996 357.198 61.5996C355.198 55.8996 352.598 51.3996 346.698 47.9996C343.098 45.8996 334.298 44.0996 330.398 43.8996C321.798 43.5996 316.398 45.4996 308.698 51.2996C301.498 56.7996 296.098 64.9996 293.998 73.7996C293.198 76.9996 292.998 79.8996 293.298 82.4996C293.998 81.3996 294.998 80.3996 295.698 79.5996C298.298 76.9996 305.098 71.0996 314.998 71.0996Z" fill="black"/>
<path d="M359.798 86.1002C359.798 86.1002 359.098 85.3002 357.898 83.8002C356.598 82.4002 354.698 80.4002 351.998 78.4002C349.298 76.4002 345.698 74.4002 341.498 72.8002C337.298 71.2002 332.498 70.0002 327.298 69.3002C322.198 68.6002 317.198 68.2002 312.698 68.6002C308.198 68.9002 304.298 70.0002 301.098 71.3002C297.998 72.6002 295.698 74.3002 294.398 75.6002C292.998 76.9002 292.398 77.8002 292.398 77.7002C292.398 77.7002 292.498 77.5002 292.798 77.1002C293.098 76.7002 293.598 76.1002 294.198 75.4002C295.498 74.0002 297.698 72.2002 300.898 70.9002C304.098 69.5002 308.098 68.4002 312.598 68.1002C317.098 67.7002 322.098 68.0002 327.298 68.8002C332.498 69.5002 337.398 70.7002 341.598 72.4002C345.798 74.0002 349.398 76.1002 352.098 78.2002C354.798 80.3002 356.798 82.3002 357.998 83.8002C358.598 84.5002 358.998 85.1002 359.298 85.6002C359.698 85.8002 359.798 86.1002 359.798 86.1002Z" fill="white"/>
<path d="M361.3 76.8995C361.3 76.8995 361.1 76.7995 360.7 76.4995C360.3 76.0995 359.8 75.6995 359.2 75.0995C357.9 73.8995 355.9 72.1995 353.4 70.3995C350.9 68.4995 347.7 66.3995 344 64.5995C342.1 63.6995 340.1 62.8995 338 62.0995C335.9 61.3995 333.6 60.7995 331.2 60.3995C321.7 58.5995 312.9 59.1995 306.8 60.5995C303.7 61.2995 301.3 61.9995 299.6 62.5995C298.8 62.8995 298.1 63.0995 297.7 63.2995C297.3 63.4995 297 63.4995 297 63.4995C297 63.4995 297.2 63.3995 297.6 63.1995C298 62.9995 298.7 62.6995 299.5 62.3995C301.1 61.6995 303.6 60.8995 306.7 60.1995C312.8 58.6995 321.8 57.9995 331.3 59.7995C333.7 60.2995 336 60.8995 338.2 61.5995C340.4 62.2995 342.4 63.1995 344.3 64.0995C348.1 65.9995 351.2 68.0995 353.7 70.0995C356.2 72.0995 358.1 73.7995 359.4 74.9995C360 75.5995 360.5 76.0995 360.8 76.3995C361.2 76.6995 361.3 76.8995 361.3 76.8995Z" fill="white"/>
<path d="M358.9 64.8988C358.9 64.8988 358.7 64.7988 358.4 64.5988C358 64.2988 357.6 63.9988 357.1 63.5988C356.6 63.0988 355.9 62.5988 355 61.9988C354.2 61.3988 353.3 60.6988 352.2 59.9988C351.7 59.6988 351.1 59.2988 350.5 58.8988C349.9 58.4988 349.3 58.1988 348.6 57.7988C347.3 56.9988 345.8 56.3988 344.3 55.6988C341.2 54.3988 337.7 53.0988 333.9 52.2988C330.1 51.4988 326.4 51.0988 323.1 50.8988C321.4 50.8988 319.8 50.7988 318.3 50.9988C317.6 51.0988 316.8 51.0988 316.1 51.0988C315.4 51.1988 314.8 51.2988 314.1 51.2988C312.8 51.3988 311.7 51.6988 310.7 51.7988C309.7 51.9988 308.9 52.1988 308.2 52.2988C307.6 52.3988 307 52.5988 306.6 52.6988C306.2 52.7988 306 52.7988 306 52.7988C306 52.7988 306.2 52.6988 306.5 52.5988C306.9 52.4988 307.5 52.2988 308.1 52.0988C308.8 51.8988 309.6 51.5988 310.6 51.3988C311.6 51.1988 312.7 50.8988 314 50.7988C314.6 50.6988 315.3 50.5988 316 50.4988C316.7 50.3988 317.4 50.3988 318.2 50.2988C319.7 50.0988 321.3 50.1988 323 50.1988C326.4 50.2988 330.1 50.6988 334 51.5988C337.8 52.4988 341.4 53.7988 344.5 55.0988C346 55.7988 347.5 56.4988 348.8 57.2988C349.5 57.6988 350.1 57.9988 350.7 58.3988C351.3 58.7988 351.8 59.1988 352.4 59.4988C353.5 60.1988 354.4 60.8988 355.2 61.5988C356 62.1988 356.7 62.7988 357.2 63.2988C357.7 63.6988 358.1 64.0988 358.4 64.3988C358.8 64.7988 358.9 64.8988 358.9 64.8988Z" fill="white"/>
<path d="M355.2 54.8002C355.1 54.9002 353.7 53.5002 351.1 51.6002C349.8 50.6002 348.2 49.6002 346.3 48.6002C344.4 47.6002 342.3 46.7002 340 45.9002C337.7 45.2002 335.4 44.7002 333.3 44.4002C331.2 44.1002 329.3 44.0002 327.7 44.0002C324.5 44.0002 322.5 44.4002 322.5 44.2002C322.5 44.2002 323 44.0002 323.9 43.9002C324.3 43.8002 324.9 43.7002 325.5 43.7002C326.1 43.6002 326.9 43.5002 327.7 43.5002C329.3 43.4002 331.3 43.5002 333.4 43.7002C335.5 44.0002 337.9 44.5002 340.2 45.2002C342.6 46.0002 344.7 46.9002 346.6 47.9002C348.5 48.9002 350.1 50.0002 351.4 51.0002C352.1 51.5002 352.6 52.0002 353.1 52.4002C353.6 52.8002 354 53.2002 354.3 53.5002C354.9 54.4002 355.3 54.8002 355.2 54.8002Z" fill="white"/>
<path d="M275.298 111.1C275.298 111.1 285.498 90.4004 286.198 89.5004C286.898 88.7004 290.598 80.0004 290.598 80.0004L295.798 73.8004C295.798 73.8004 298.198 74.2004 296.698 77.3004L294.498 81.5004L302.598 73.4004C302.598 73.4004 304.998 73.7004 304.098 76.2004C303.398 78.1004 300.898 81.0004 300.898 81.0004L308.198 74.7004C308.198 74.7004 311.198 75.2004 309.798 78.3004C308.898 80.4004 300.398 89.8004 300.398 89.8004C300.398 89.8004 304.598 87.2004 305.998 86.3004C307.298 85.4004 308.698 83.5004 309.698 83.7004C310.698 83.9004 312.398 85.4004 309.798 88.3004C307.198 91.2004 299.998 95.9004 298.898 96.5004C297.798 97.1004 297.798 97.1004 297.798 97.1004C297.798 97.1004 296.498 100.3 294.798 101.9C294.798 101.9 291.898 111.1 290.398 113.6C288.798 116.3 286.198 117.8 286.198 117.8L283.898 124L270.898 116.9L275.298 111.1Z" fill="white"/>
<path d="M275.192 111C277.692 106.1 283.592 93.2004 286.192 88.6004C287.592 85.7004 288.792 82.6004 290.092 79.6004C291.892 77.3004 293.792 75.1004 295.592 72.9004C300.792 73.8004 296.592 79.3004 295.392 81.9004L293.992 80.9004L302.092 72.7004L302.392 72.4004C303.692 72.5004 305.092 73.3004 305.292 74.7004C305.392 75.9004 304.992 76.8004 304.592 77.5004C303.792 79.0004 302.792 80.3004 301.692 81.6004L300.392 80.4004L307.692 74.1004L307.992 73.8004C310.692 74.1004 311.692 76.5004 310.392 78.8004C307.592 83.0004 304.092 86.5004 300.792 90.2004L299.892 89.1004C300.992 88.4004 303.892 86.6004 304.892 86.0004C306.692 85.2004 308.292 81.9004 310.492 83.4004C315.392 87.3004 302.492 94.5004 299.692 96.5004C299.092 96.9004 298.492 97.2004 297.892 97.5004L298.092 97.2004C297.692 98.1004 297.292 99.0004 296.792 99.8004C296.292 100.6 295.692 101.5 294.892 102.2L294.992 102C293.392 106.4 292.392 111.1 289.692 115C288.692 116.3 287.492 117.3 286.092 118.1L286.292 117.9L283.792 124L283.692 124.2L283.492 124.1L270.592 116.9H270.492L270.592 116.8L275.192 111ZM275.392 111.1L270.992 117C270.592 116.6 284.092 123.9 283.992 123.8L283.692 123.9L285.892 117.7V117.6C288.592 116 290.292 113.4 291.292 110.5C292.392 107.6 293.392 104.6 294.292 101.6C295.692 100.3 296.592 98.4004 297.292 96.7004C297.892 96.3004 298.592 96.0004 299.192 95.6004C302.892 93.1004 306.992 90.6004 309.792 87.1004C310.492 86.1004 310.792 84.5004 309.392 84.3004C308.092 84.9004 306.992 86.5004 305.692 87.1004C303.092 88.7004 299.092 91.3004 296.492 92.9004L299.792 89.2004C301.992 86.8004 304.092 84.3004 306.192 81.8004C307.092 80.4004 310.692 77.2004 308.892 75.7004C308.692 75.5004 308.292 75.4004 308.092 75.4004L308.792 75.2004L301.592 81.6004L300.292 80.4004C301.292 79.2004 302.192 77.9004 302.892 76.6004C303.492 75.6004 303.792 74.4004 302.492 74.2004L303.292 73.9004L295.192 82.0004L291.092 86.1004L293.792 80.9004C294.492 79.6004 295.192 78.2004 295.892 76.9004C296.292 76.1004 296.692 75.3004 296.292 74.7004C296.192 74.6004 295.892 74.4004 295.792 74.4004L296.492 74.1004C294.692 76.1004 292.992 78.2004 291.192 80.2004C290.392 82.2004 288.392 86.2004 287.092 88.9004C286.492 89.8004 285.992 90.7004 285.392 91.7004C282.092 97.8004 278.492 105.1 275.392 111.1Z" fill="black"/>
<path d="M303.297 120C303.297 120 294.097 125.4 296.097 134.7C298.197 144.4 295.797 152.2 297.397 157.7C300.097 167.4 310.997 171.901 320.197 171.601C329.397 171.301 375.297 170.2 366.197 137.9L365.497 130C364.897 123.3 359.097 118.101 352.397 118.301H352.297L348.197 118.5C344.797 145.4 312.497 146.4 310.697 123.7C308.197 123.3 305.797 121.9 303.297 120Z" fill="url(#colorTwo)"/>
<path d="M324.894 168.201C327.794 178.501 327.094 195.501 322.194 205.001C317.294 214.501 311.294 223.801 309.294 234.301C307.194 245.301 309.994 257.201 316.794 266.101C319.194 269.201 322.294 273.601 326.294 278.701C329.094 282.201 331.094 285.301 331.094 285.301C339.194 286.701 368.994 288.801 368.994 288.801C364.294 282.401 350.894 257.301 347.594 250.101C344.294 242.901 342.394 234.801 343.594 227.001C345.094 217.301 351.094 209.001 354.894 199.901C360.494 186.701 361.394 171.501 357.294 157.701L324.894 168.201Z" fill="url(#colorTwo)"/>
<path d="M324.894 168.201C327.794 178.501 327.094 195.501 322.194 205.001C317.294 214.501 311.294 223.801 309.294 234.301C307.194 245.301 309.994 257.201 316.794 266.101C319.194 269.201 322.294 273.601 326.294 278.701C329.094 282.201 331.094 285.301 331.094 285.301C339.194 286.701 368.994 288.801 368.994 288.801C364.294 282.401 350.894 257.301 347.594 250.101C344.294 242.901 342.394 234.801 343.594 227.001C345.094 217.301 351.094 209.001 354.894 199.901C360.494 186.701 361.394 171.501 357.294 157.701L324.894 168.201Z" fill="url(#colorTwo)"/>
<g opacity="0.25">
<path d="M358.494 162.4C347.994 167.4 337.094 169.7 325.594 171.3L325.794 172.3L326.394 177.4L359.694 170.5C359.394 167.4 358.994 164.6 358.494 162.4Z" fill="url(#colorOne)"/>
</g>
<path d="M300.898 145.1C300.998 145.1 300.499 146.3 300.099 148.3C299.899 149.3 299.699 150.5 299.599 151.8C299.499 153.1 299.599 154.6 299.699 156.1C299.899 157.6 300.199 159 300.599 160.3C300.999 161.6 301.498 162.7 301.898 163.6C302.798 165.4 303.498 166.4 303.498 166.5C303.498 166.5 303.298 166.3 302.998 165.8C302.798 165.6 302.598 165.3 302.398 164.9C302.198 164.6 301.899 164.2 301.699 163.7C301.199 162.8 300.698 161.7 300.298 160.4C299.898 159.1 299.498 157.7 299.298 156.1C299.098 154.6 299.099 153.1 299.199 151.7C299.299 150.4 299.499 149.2 299.699 148.2C299.799 147.7 299.999 147.3 300.099 146.9C300.199 146.5 300.298 146.2 300.398 145.9C300.698 145.4 300.898 145.1 300.898 145.1Z" fill="white"/>
<path d="M305.7 122.301C305.8 122.401 304.4 123.101 303.1 125.101C302.4 126.101 301.9 127.401 301.4 128.901C301 130.401 300.8 132.101 300.8 134.001C300.9 137.601 301.6 140.901 301.9 143.301C302.1 144.501 302.2 145.501 302.3 146.101C302.3 146.401 302.3 146.701 302.4 146.901C302.4 147.101 302.4 147.201 302.4 147.201C302.4 147.201 302.3 146.801 302.2 146.201C302.1 145.501 301.9 144.601 301.7 143.401C301.3 141.001 300.5 137.801 300.5 134.101C300.5 132.301 300.7 130.501 301.2 129.001C301.6 127.501 302.3 126.101 303 125.101C303.7 124.101 304.4 123.401 304.9 123.001C305.2 122.801 305.4 122.701 305.5 122.601C305.7 122.301 305.7 122.301 305.7 122.301Z" fill="white"/>
<path d="M312.099 152.7C312.099 152.7 311.899 152.4 311.699 151.9C311.499 151.4 311.099 150.7 310.799 149.7C310.499 148.8 310.099 147.6 309.899 146.4C309.599 145.1 309.399 143.7 309.299 142.2C309.199 140.7 309.299 139.3 309.399 138C309.499 136.7 309.699 135.5 309.999 134.6C310.199 133.6 310.499 132.9 310.599 132.4C310.799 131.9 310.899 131.6 310.899 131.6C310.899 131.6 310.899 131.9 310.699 132.4C310.499 132.9 310.399 133.7 310.199 134.6C309.999 135.6 309.799 136.7 309.699 138C309.599 139.3 309.599 140.7 309.599 142.2C309.699 143.7 309.899 145.1 310.099 146.4C310.399 147.7 310.699 148.8 310.999 149.7C311.299 150.6 311.599 151.4 311.799 151.9C311.999 152.4 312.099 152.7 312.099 152.7Z" fill="white"/>
<path d="M315.399 171.4C315.399 171.4 315.199 171.2 314.799 170.9C314.599 170.7 314.399 170.5 314.099 170.2C313.799 169.9 313.499 169.6 313.299 169.2C312.699 168.5 312.099 167.5 311.399 166.5C310.799 165.4 310.199 164.2 309.799 162.8C309.399 161.4 309.099 160.1 308.899 158.8C308.799 157.6 308.699 156.4 308.799 155.5C308.799 155 308.899 154.6 308.899 154.2C308.899 153.8 308.999 153.5 309.099 153.3C309.199 152.8 309.299 152.5 309.299 152.5C309.399 152.5 309.099 153.7 309.099 155.5C309.099 156.4 309.099 157.5 309.299 158.8C309.499 160 309.699 161.3 310.199 162.7C310.599 164 311.199 165.3 311.799 166.4C312.399 167.5 312.999 168.4 313.599 169.1C314.599 170.6 315.499 171.4 315.399 171.4Z" fill="white"/>
<path d="M325.598 170.501C325.498 170.501 324.598 168.101 323.598 165.201C322.598 162.201 321.898 159.801 321.898 159.801C321.998 159.801 322.898 162.201 323.898 165.101C324.898 168.001 325.698 170.401 325.598 170.501Z" fill="white"/>
<path d="M325.896 159.1C325.796 159.1 325.696 158.5 325.396 157.8C325.196 157.1 324.896 156.5 324.996 156.4C325.096 156.4 325.496 156.9 325.696 157.7C325.996 158.4 325.996 159.1 325.896 159.1Z" fill="white"/>
<path d="M319.1 140.5C319.2 140.5 318.8 141.3 318.5 142.7C318.2 144.1 318.2 146.1 318.6 148.2C319 150.3 319.7 152.2 320.3 153.5C320.8 154.8 321.1 155.6 321.1 155.7C321.1 155.7 321 155.5 320.8 155.2C320.6 154.8 320.4 154.3 320.1 153.7C319.5 152.4 318.8 150.5 318.3 148.4C317.9 146.2 317.9 144.2 318.3 142.8C318.5 142.1 318.7 141.5 318.8 141.2C319 140.7 319.1 140.5 319.1 140.5Z" fill="white"/>
<path d="M336.595 154.4C336.595 154.4 336.395 153.7 336.095 152.5C335.795 151.3 335.395 149.7 334.795 148C334.195 146.3 333.495 144.8 332.995 143.7C332.495 142.6 332.195 142 332.195 141.9C332.195 141.9 332.595 142.5 333.195 143.6C333.795 144.7 334.495 146.2 335.095 147.9C335.695 149.6 336.095 151.3 336.295 152.4C336.595 153.7 336.695 154.4 336.595 154.4Z" fill="white"/>
<path d="M340.594 155.701C340.494 155.701 340.394 155.301 340.094 154.701C339.794 154.201 339.594 153.801 339.594 153.701C339.694 153.601 340.094 153.901 340.394 154.501C340.694 155.201 340.694 155.701 340.594 155.701Z" fill="white"/>
<path d="M341.695 167.9C341.595 167.9 341.595 167.3 341.295 166.2C341.095 165.2 340.695 163.8 340.195 162.3C339.595 160.8 338.995 159.5 338.495 158.6C337.995 157.7 337.595 157.1 337.695 157.1C337.695 157.1 338.195 157.6 338.695 158.5C339.295 159.4 339.995 160.7 340.595 162.2C341.195 163.7 341.495 165.2 341.595 166.2C341.695 167.2 341.695 167.9 341.695 167.9Z" fill="white"/>
<path d="M350.8 148.001C350.8 148.001 350.5 147.501 350.2 146.601C349.8 145.701 349.3 144.501 348.7 143.101C348.1 141.801 347.4 140.601 347 139.701C346.5 138.801 346.2 138.301 346.3 138.301C346.3 138.301 346.7 138.801 347.2 139.601C347.7 140.401 348.4 141.601 349 143.001C349.6 144.301 350.1 145.601 350.4 146.501C350.7 147.401 350.8 148.001 350.8 148.001Z" fill="white"/>
<path d="M349.294 150.5C349.194 150.5 348.994 150.2 348.794 149.9C348.594 149.5 348.494 149.2 348.594 149.1C348.694 149.1 348.894 149.4 349.094 149.7C349.294 150.1 349.394 150.5 349.294 150.5Z" fill="white"/>
<path d="M354.997 162.201C354.897 162.201 354.897 161.401 354.797 160.201C354.697 159.001 354.397 157.301 353.897 155.501C353.397 153.701 352.697 152.101 352.197 151.001C351.697 149.901 351.297 149.201 351.297 149.201C351.297 149.201 351.397 149.301 351.597 149.601C351.797 149.901 351.997 150.301 352.297 150.901C352.897 152.001 353.597 153.601 354.097 155.401C354.597 157.201 354.897 158.901 354.897 160.201C354.897 160.801 354.997 161.301 354.897 161.701C355.097 162.001 355.097 162.201 354.997 162.201Z" fill="white"/>
<path d="M365.494 155.901C365.494 155.901 365.394 155.801 365.394 155.601C365.294 155.401 365.194 155.101 365.094 154.801C364.794 154.101 364.494 153.001 364.094 151.701C363.294 149.101 362.294 145.401 360.994 141.501C359.694 137.601 358.094 134.101 356.594 131.801C355.894 130.601 355.194 129.801 354.794 129.201C354.294 128.601 354.094 128.301 354.094 128.301C354.094 128.301 354.194 128.401 354.294 128.501C354.394 128.601 354.594 128.901 354.894 129.201C355.394 129.801 356.094 130.701 356.794 131.801C358.294 134.101 359.994 137.501 361.294 141.501C362.594 145.501 363.494 149.101 364.294 151.801C364.694 153.101 364.994 154.101 365.194 154.901C365.394 155.501 365.494 155.901 365.494 155.901Z" fill="white"/>
<path d="M361.295 122.1C361.295 122.1 360.895 121.9 360.195 121.7C359.495 121.5 358.495 121.3 357.395 121.4C356.295 121.5 355.395 121.9 354.695 122.2C354.095 122.5 353.695 122.8 353.695 122.8C353.695 122.8 353.995 122.4 354.595 122C355.195 121.6 356.195 121.2 357.295 121.1C358.395 121 359.495 121.2 360.195 121.5C360.995 121.8 361.395 122.1 361.295 122.1Z" fill="white"/>
<path d="M358.797 174.5C358.797 174.5 358.697 174.5 358.497 174.6C358.297 174.7 357.997 174.7 357.597 174.8C356.797 175 355.697 175.3 354.297 175.6C351.497 176.3 347.597 177.2 343.397 178.1C339.097 179 335.197 179.8 332.397 180.3C330.997 180.6 329.797 180.8 328.997 180.9C328.597 181 328.297 181 328.097 181C327.897 181 327.797 181 327.797 181C327.797 181 327.897 181 328.097 180.9C328.297 180.8 328.597 180.8 328.997 180.7C329.797 180.5 330.997 180.3 332.297 180C335.197 179.4 338.997 178.6 343.297 177.7C347.597 176.8 351.397 175.9 354.297 175.3C355.697 175 356.797 174.7 357.597 174.6C357.997 174.5 358.297 174.5 358.497 174.4C358.697 174.6 358.797 174.5 358.797 174.5Z" fill="white"/>
<path d="M358.3 185.701C358.3 185.701 358.2 185.701 358 185.801C357.7 185.801 357.4 185.901 357.1 186.001C356.2 186.101 355.1 186.301 353.6 186.601C350.7 187.101 346.7 187.801 342.3 188.701C337.9 189.601 333.9 190.601 331.1 191.301C329.7 191.701 328.6 192.001 327.7 192.201C327.3 192.301 327 192.401 326.8 192.401C327 192.301 327.3 192.201 327.7 192.101C328.5 191.901 329.6 191.501 331.1 191.101C333.9 190.301 337.9 189.301 342.3 188.401C346.7 187.501 350.7 186.801 353.7 186.401C355.2 186.201 356.3 186.001 357.2 185.901C357.6 185.901 357.9 185.801 358.1 185.801C358.2 185.701 358.3 185.701 358.3 185.701Z" fill="white"/>
<path d="M354.798 198.201C354.798 198.201 354.698 198.201 354.498 198.301C354.198 198.301 353.898 198.401 353.498 198.501C352.598 198.701 351.398 198.901 349.998 199.101C346.998 199.601 342.998 200.401 338.498 201.401C333.998 202.401 329.998 203.301 327.098 204.101C325.698 204.501 324.498 204.701 323.598 205.001C323.198 205.101 322.898 205.201 322.698 205.201C322.898 205.101 323.298 205.001 323.598 204.901C324.398 204.701 325.598 204.301 326.998 203.901C329.898 203.101 333.898 202.101 338.398 201.101C342.898 200.101 346.998 199.401 349.898 198.901C351.398 198.701 352.598 198.501 353.398 198.401C353.798 198.401 354.098 198.301 354.398 198.301C354.598 198.201 354.798 198.201 354.798 198.201Z" fill="white"/>
<path d="M347.498 212.801C347.498 212.801 347.398 212.801 347.198 212.901C346.898 213.001 346.598 213.001 346.198 213.101C345.298 213.301 343.998 213.501 342.498 213.801C339.398 214.401 335.098 215.301 330.298 216.501C325.598 217.701 321.398 219.001 318.298 220.001C316.798 220.501 315.598 220.901 314.698 221.201C314.298 221.301 313.998 221.401 313.698 221.501C313.498 221.601 313.398 221.601 313.398 221.601C313.398 221.601 313.498 221.501 313.698 221.401C313.998 221.301 314.298 221.201 314.698 221.001C315.498 220.701 316.698 220.201 318.298 219.701C321.298 218.701 325.498 217.301 330.298 216.101C334.998 214.901 339.298 214.001 342.498 213.501C344.098 213.201 345.298 213.001 346.198 212.901C346.598 212.801 346.998 212.801 347.198 212.801C347.398 212.801 347.498 212.801 347.498 212.801Z" fill="white"/>
<path d="M343.395 229.1C343.395 229.1 343.295 229.2 343.095 229.2C342.795 229.3 342.495 229.4 342.095 229.5C341.195 229.8 339.895 230.2 338.395 230.6C335.195 231.6 330.895 232.9 326.095 234.3C321.295 235.8 316.995 237.1 313.795 238.2C312.195 238.7 310.995 239.1 310.095 239.5C309.695 239.6 309.395 239.8 309.095 239.8C308.895 239.9 308.695 239.9 308.695 239.9C308.695 239.9 308.795 239.8 308.995 239.7C309.295 239.6 309.595 239.5 309.995 239.3C310.895 239 312.095 238.5 313.695 237.9C316.795 236.8 321.095 235.4 325.895 233.9C330.695 232.4 335.095 231.2 338.195 230.3C339.795 229.9 340.995 229.5 341.995 229.3C342.395 229.2 342.795 229.1 342.995 229C343.295 229.1 343.395 229.1 343.395 229.1Z" fill="white"/>
<path d="M345.4 244.4C345.4 244.4 345.3 244.5 345.1 244.5C344.8 244.6 344.5 244.7 344.1 244.8C343.2 245.1 341.9 245.4 340.4 245.9C337.3 246.8 333 248.2 328.3 249.8C323.6 251.4 319.4 253.1 316.4 254.3C314.9 254.9 313.7 255.4 312.8 255.7C312.4 255.9 312.1 256 311.8 256.1C311.6 256.2 311.5 256.2 311.5 256.2C311.5 256.2 311.6 256.1 311.8 256C312 255.9 312.4 255.7 312.7 255.6C313.5 255.2 314.7 254.7 316.2 254.1C319.2 252.8 323.4 251.2 328.1 249.5C332.8 247.9 337.1 246.5 340.2 245.7C341.8 245.3 343 244.9 343.9 244.7C344.3 244.6 344.6 244.5 344.9 244.5C345.3 244.4 345.4 244.4 345.4 244.4Z" fill="white"/>
<path d="M352.298 257.901C352.298 258.001 345.398 260.801 336.898 264.201C328.398 267.601 321.398 270.301 321.398 270.201C321.398 270.101 328.298 267.301 336.798 263.901C345.298 260.501 352.298 257.801 352.298 257.901Z" fill="white"/>
<path d="M345.997 185.301C345.997 185.301 345.997 185.501 345.897 185.701C345.797 186.001 345.697 186.401 345.497 186.901C345.297 187.401 345.097 188.101 344.897 188.801C344.597 189.501 344.297 190.401 343.997 191.301C343.597 192.201 343.197 193.201 342.697 194.301C342.197 195.401 341.697 196.501 341.097 197.701C339.897 200.001 338.497 202.601 336.797 205.101C335.097 207.601 333.397 210.001 331.697 212.001C330.897 213.001 330.097 214.001 329.297 214.801C328.497 215.701 327.797 216.501 327.097 217.201C326.397 217.901 325.697 218.501 325.197 219.101C324.597 219.601 324.097 220.101 323.697 220.501C323.297 220.801 322.997 221.101 322.697 221.301C322.497 221.501 322.397 221.601 322.297 221.601C322.297 221.601 322.397 221.501 322.597 221.301C322.797 221.101 323.097 220.801 323.497 220.401C323.897 220.001 324.397 219.601 324.997 219.001C325.597 218.401 326.197 217.801 326.897 217.101C327.597 216.401 328.297 215.601 329.097 214.701C329.897 213.801 330.697 212.901 331.497 211.901C333.097 209.901 334.897 207.501 336.497 205.001C338.097 202.501 339.597 200.001 340.797 197.601C341.397 196.401 341.997 195.301 342.397 194.301C342.897 193.201 343.297 192.201 343.697 191.301C344.097 190.401 344.397 189.501 344.697 188.801C344.997 188.101 345.197 187.401 345.397 186.901C345.597 186.401 345.697 186.001 345.797 185.701C345.897 185.401 345.997 185.301 345.997 185.301Z" fill="black"/>
<path d="M358.994 271.801C358.994 271.801 358.894 271.901 358.694 271.901C358.494 272.001 358.194 272.101 357.794 272.201C356.994 272.501 355.894 272.801 354.494 273.301C351.694 274.201 347.894 275.501 343.694 276.801C339.394 278.101 335.494 279.101 332.694 279.701C331.294 280.001 330.094 280.201 329.294 280.301C328.894 280.301 328.594 280.401 328.394 280.401C328.194 280.401 328.094 280.401 328.094 280.401C328.094 280.401 328.194 280.401 328.394 280.301C328.594 280.301 328.994 280.201 329.294 280.101C330.094 280.001 331.294 279.701 332.694 279.401C335.494 278.801 339.394 277.701 343.694 276.401C347.894 275.101 351.694 273.801 354.594 273.001C355.994 272.601 357.094 272.201 357.894 272.001C358.294 271.901 358.594 271.801 358.794 271.801C358.894 271.801 358.994 271.801 358.994 271.801Z" fill="white"/>
<path d="M364.394 282.9C364.394 282.9 364.194 283 363.794 283.2C363.394 283.4 362.794 283.6 362.094 283.9C360.694 284.4 358.594 285.1 356.394 285.7C354.094 286.3 352.094 286.8 350.594 287.1C349.794 287.3 349.194 287.4 348.794 287.4C348.394 287.5 348.094 287.5 348.094 287.5C348.094 287.5 348.294 287.4 348.694 287.3C349.194 287.2 349.794 287 350.494 286.9C351.994 286.5 353.994 286 356.294 285.4C358.594 284.8 360.594 284.1 361.994 283.7C362.694 283.5 363.294 283.3 363.694 283.1C364.194 282.9 364.394 282.9 364.394 282.9Z" fill="white"/>
<path d="M325.597 171.4C326.397 176.5 326.997 181.6 327.297 186.7C327.497 190.5 327.197 194.7 325.297 198.2C324.397 200.4 318.297 213.1 317.197 215.6C315.097 220.2 312.797 224.8 311.297 229.6C309.497 236.8 309.997 244.7 311.197 252C311.597 254.5 312.397 256.7 313.797 258.9C316.297 263.3 319.097 267.6 321.897 271.9L330.197 284.8C323.997 276.6 317.897 268.4 312.397 259.7C309.397 255.3 308.897 249.8 308.397 244.7C308.097 239.5 307.997 234.2 309.397 229.1C313.197 218.1 319.097 208.1 323.997 197.7C325.897 194.3 326.297 190.8 326.297 186.8C326.397 181.6 325.997 176.5 325.597 171.4Z" fill="black"/>
<path d="M365.995 134.1C366.595 135.4 366.695 136.8 366.995 138.1C368.395 142.1 369.095 146.4 368.095 150.6C365.395 162.2 352.895 167.9 342.295 170C336.795 171.1 331.295 171.5 325.695 171.4C331.195 170.7 336.595 169.9 341.895 168.5C351.895 165.9 363.395 161 366.595 150.3C367.795 146.4 367.395 142.2 366.495 138.3C366.195 136.8 366.295 135.4 365.995 134.1Z" fill="black"/>
<path d="M351.895 146.3C340.495 156.5 321.995 159.5 308.395 152C303.895 149.5 299.895 145.9 297.195 141.6C300.495 145.4 304.595 148.5 309.095 150.6C322.695 157 339.395 154.2 351.895 146.3Z" fill="black"/>
<path d="M311.992 158.9C319.192 158.2 326.592 158.2 333.692 157.1C340.892 156 346.992 151.6 352.892 147.5C351.492 148.7 350.192 149.9 348.692 151.1C344.392 154.5 339.392 157.4 333.892 158.2C326.592 159.3 319.292 159 311.992 158.9Z" fill="black"/>
<path d="M310.094 125C310.794 130.4 312.994 136.2 317.994 139C322.994 141.3 328.994 141.3 334.394 141C338.094 140.7 341.894 140 345.294 138.3C342.094 140.4 338.294 141.3 334.494 141.8C328.794 142.3 322.794 142.4 317.494 139.8C312.394 136.9 310.194 130.6 310.094 125Z" fill="black"/>
<script type="text/ecmascript" xlink:href="https://www.argentina.gob.ar/profiles/argentinagobar/themes/contrib/poncho/js/w3c/ref2.js"></script></svg>
