<svg width="640" height="360" viewBox="0 0 640 360" fill="none" xmlns="http://www.w3.org/2000/svg" xmlns:xlink="http://www.w3.org/1999/xlink">
	<defs>
        <ref id="colorOne" param="c1" default="#242C4F" />
        <ref id="colorTwo" param="c2" default="#9296A7" />
    </defs>
<path d="M419.136 146.978C426.246 100.684 428.351 61.28 428.351 61.28L441.318 61C441.318 61 443.352 109.317 447.813 147.739C451.104 176.084 457.396 210.47 459.753 222.784C464.24 246.2 482.558 291.541 497 312.873L468.653 312.828C468.653 312.828 459.966 275.601 430.718 275.254C401.467 274.906 389.948 313 389.948 313L361 312.955C361 312.955 395.092 256.838 408.525 201.695C412.442 185.62 415.635 168.881 418.224 152.795L419.139 146.981L419.136 146.978Z" stroke="black" stroke-width="1.5" stroke-miterlimit="10"/>
<path d="M444.622 233.233C441.606 219.214 437.017 197.877 435.113 187.011L427.477 187C427.477 187 414.646 252.611 414.008 253.562C413.371 254.513 449 253.619 449 253.619C449 253.619 447.002 244.704 444.445 232.91" stroke="black" stroke-width="1.5" stroke-miterlimit="10"/>
<path d="M437 186C437 186 446.85 237.137 451 249" stroke="black" stroke-width="1.5" stroke-miterlimit="10"/>
<path d="M401 240.428L413.293 249C415.468 243.987 426 186 426 186" stroke="black" stroke-width="1.5" stroke-miterlimit="10"/>
<path d="M416 183C416 183 402.933 237.106 396 251" stroke="black" stroke-width="1.5" stroke-miterlimit="10"/>
<path d="M438 59C438 59 440.581 131.925 446.633 173.235L447.184 176.835C447.69 180.021 449.473 190.165 449.473 190.165C449.473 190.165 458.492 236.106 465 254" stroke="black" stroke-width="1.5" stroke-miterlimit="10"/>
<path d="M432 59C432 59 425.326 158.241 415 186" stroke="black" stroke-width="1.5" stroke-miterlimit="10"/>
<path d="M475 315.762C475 315.762 469.245 290.476 454.268 279.716C439.287 268.956 422.591 267.544 407.236 278.945C391.881 290.347 384.691 311.806 384 317" stroke="black" stroke-width="1.5" stroke-miterlimit="10"/>
<path d="M495 315C495 315 476.208 284.89 466 257" stroke="black" stroke-width="1.5" stroke-miterlimit="10"/>
<path d="M396 256C396 256 370.787 305.674 362 318" stroke="black" stroke-width="1.5" stroke-miterlimit="10"/>
<path d="M416 182L446 170.258L421.416 158.535L443.157 147.722L424.22 138.388L441.195 128.508L425.977 120.968L440.19 109.376L428.782 100.477L439.18 90.926L430.194 83.0568L438.459 77.7046L430.907 70.7605L437.416 64" stroke="black" stroke-width="1.5" stroke-miterlimit="10"/>
<path d="M430.93 64L437.888 70.3154L430.063 77.6617L438.29 83.5588L428.986 90.6922L439.108 99.5361L427.474 110.027L440.556 119.719L425.335 128.521L442.005 137.798L423.061 147.079L443.87 158.612L419 170.078L447 183" stroke="black" stroke-width="1.5" stroke-miterlimit="10"/>
<path d="M450.602 194L442 204.761L454.367 212.452L445.758 223.634L459 230.93L448.44 239" stroke="black" stroke-width="1.5" stroke-miterlimit="10"/>
<path d="M448.916 186L439 192.843L452.927 203.515L443.297 214.759L456.9 222.286L447.058 232.981L461 242" stroke="black" stroke-width="1.5" stroke-miterlimit="10"/>
<path d="M398 248C398.302 248 414.74 240.867 414.74 240.867L404.544 230.483L417.323 223.253L409.158 212.172L421 204.456L413.566 193" stroke="black" stroke-width="1.5" stroke-miterlimit="10"/>
<path d="M414.428 187C415.038 187 423 193.34 423 193.34L410.074 203.299L419.539 214.647L406.092 222.18L416.085 232.99L400 241" stroke="black" stroke-width="1.5" stroke-miterlimit="10"/>
<path d="M473.626 311L483 296.15L464.312 289.139L470.799 270.235L430 262" stroke="black" stroke-width="1.5" stroke-miterlimit="10"/>
<path d="M461 257L446 274" stroke="black" stroke-width="1.5" stroke-miterlimit="10"/>
<path d="M493 314L471 305" stroke="black" stroke-width="1.5" stroke-miterlimit="10"/>
<path d="M385.499 311L376 296.058L395.058 289.077L388.239 270.383L430 262" stroke="black" stroke-width="1.5" stroke-miterlimit="10"/>
<path d="M398 257L414 275" stroke="black" stroke-width="1.5" stroke-miterlimit="10"/>
<path d="M366 313L388 305" stroke="black" stroke-width="1.5" stroke-miterlimit="10"/>
<path d="M407.898 200.525L407.891 205.438L456.751 205.514L456.758 200.602L407.898 200.525Z" fill="black"/>
<path d="M411.101 184.078L411.094 188.99L453.952 189.058L453.96 184.145L411.101 184.078Z" fill="black"/>
<path d="M405.719 198.66L405.711 203.572L458.953 203.656L458.961 198.744L405.719 198.66Z" fill="white"/>
<path d="M405.719 198.66L405.711 203.572L458.953 203.656L458.961 198.744L405.719 198.66Z" stroke="black" stroke-width="1.5" stroke-miterlimit="10"/>
<path d="M389.367 251.363L389.359 256.014L470.727 256.141L470.734 251.491L389.367 251.363Z" fill="black"/>
<path d="M460.559 238L451 247.541L464 255" stroke="black" stroke-width="1.5" stroke-miterlimit="10"/>
<path d="M455 251C455.41 250.701 462 245 462 245" stroke="black" stroke-width="1.5" stroke-miterlimit="10"/>
<path d="M426 186C424.998 186.312 414 191 414 191" stroke="black" stroke-width="1.5" stroke-miterlimit="10"/>
<path d="M437 272L424 254" stroke="black" stroke-width="1.5" stroke-miterlimit="10"/>
<path d="M422 272C422.49 272.103 437 253 437 253" stroke="black" stroke-width="1.5" stroke-miterlimit="10"/>
<path d="M404.758 182.162L404.75 187.406L459.803 187.493L459.811 182.248L404.758 182.162Z" fill="white"/>
<path d="M404.758 182.162L404.75 187.406L459.803 187.493L459.811 182.248L404.758 182.162Z" stroke="black" stroke-width="1.5" stroke-miterlimit="10"/>
<path d="M387.015 249.804L387.008 254.455L473.071 254.59L473.078 249.939L387.015 249.804Z" fill="white"/>
<path d="M387.015 249.804L387.008 254.455L473.071 254.59L473.078 249.939L387.015 249.804Z" stroke="black" stroke-width="1.5" stroke-miterlimit="10"/>
<path d="M465.732 314.188L465.719 322.941L502.877 323L502.891 314.247L465.732 314.188Z" fill="black"/>
<path d="M356.139 314.013L356.125 322.766L393.283 322.824L393.297 314.071L356.139 314.013Z" fill="black"/>
<path d="M465.732 312.636L465.719 320.766L502.877 320.824L502.89 312.694L465.732 312.636Z" fill="white"/>
<path d="M465.732 312.636L465.719 320.766L502.877 320.824L502.89 312.694L465.732 312.636Z" stroke="black" stroke-width="1.5" stroke-miterlimit="10"/>
<path d="M356.146 312.456L356.133 320.586L393.291 320.644L393.304 312.515L356.146 312.456Z" fill="white"/>
<path d="M356.146 312.456L356.133 320.586L393.291 320.644L393.304 312.515L356.146 312.456Z" stroke="black" stroke-width="1.5" stroke-miterlimit="10"/>
<path d="M433 42H436L434.599 21L433 42Z" fill="white"/>
<path d="M433 42H436L434.599 21L433 42Z" stroke="black" stroke-width="1.5" stroke-miterlimit="10"/>
<path d="M445 55H424V61H445V55Z" fill="white"/>
<path d="M445 55H424V61H445V55Z" stroke="black" stroke-width="1.5" stroke-miterlimit="10"/>
<path d="M444 50H425V54H444V50Z" fill="white"/>
<path d="M444 50H425V54H444V50Z" stroke="black" stroke-width="1.5" stroke-miterlimit="10"/>
<path d="M442 50C442 45.0288 438.864 41 435 41C431.136 41 428 45.0288 428 50" fill="white"/>
<path d="M442 50C442 45.0288 438.864 41 435 41C431.136 41 428 45.0288 428 50" stroke="black" stroke-width="1.5" stroke-miterlimit="10"/>
<path d="M435 40V2" stroke="black" stroke-width="1.5" stroke-miterlimit="10"/>
<path d="M373 289L96 289" stroke="black" stroke-width="4" stroke-miterlimit="10" stroke-linecap="round"/>
<path d="M532 289L485 289" stroke="black" stroke-width="4" stroke-miterlimit="10" stroke-linecap="round"/>
<path d="M455 289L405 289" stroke="black" stroke-width="4" stroke-miterlimit="10" stroke-linecap="round"/>
<path d="M218.257 331.796L217.607 345.853C217.607 345.853 231.677 351.235 231.81 353.846L204.508 353.563L204.624 331.617L218.261 331.796H218.257Z" fill="url(#colorOne)"/>
<path d="M191.797 323.258L180.755 331.988C180.755 331.988 185.92 346.141 184.037 347.953L166.344 327.157L182.987 312.85L191.797 323.258Z" fill="url(#colorOne)"/>
<path d="M222.398 272.315C222.398 272.315 221.67 238.74 222.398 238.74C223.127 238.74 228.305 235.783 228.305 235.783L234.773 285.685C234.773 285.685 235.356 291.287 228.425 295.236C221.495 299.184 186.616 332.871 186.616 332.871L173.18 318.127C173.18 318.127 200.403 292.712 208.733 285.685C215.251 280.187 222.398 272.315 222.398 272.315Z" fill="black"/>
<path d="M203.413 264.494L202.705 259.179C202.705 259.179 197.594 248.433 196.865 243.831C196.136 239.229 196.615 229.328 196.615 229.328H228.874C228.874 229.328 228.737 265.748 224.842 275.965C224.842 275.965 222.868 295.52 222.576 297.161C221.96 300.639 222.343 342.377 222.343 342.377L202.68 343.36C202.68 343.36 202.126 302.917 203.255 293.625C203.813 289.022 204.079 284.12 204.2 280.063C204.354 274.857 204.088 269.654 203.404 264.494" fill="black"/>
<path d="M232.008 167.625L254.324 163.544L271.647 148.57C271.647 148.57 277.87 141.831 278.311 141.51C278.653 141.265 284.334 138.645 286.924 137.454C287.953 136.983 288.728 138.478 287.745 139.032C287.716 139.049 287.682 139.065 287.649 139.082C286.221 139.794 283.268 141.827 283.268 141.827L286.121 144.697C286.412 144.988 286.466 145.446 286.246 145.796L283.093 150.886C282.114 151.902 280.668 152.319 279.302 151.986L262.3 171.52C260.755 173.19 258.714 174.319 256.482 174.744L237.943 178.255" fill="white"/>
<path d="M232.008 167.596C238.18 166.371 248.018 164.476 254.283 163.297C258.606 159.353 266.686 152.531 271.443 148.374C272.288 147.474 276.508 142.963 277.282 142.172C277.611 141.86 277.865 141.518 278.253 141.252C279.402 140.652 280.573 140.148 281.739 139.598C282.718 139.157 285.429 137.915 286.391 137.486L286.779 137.311C286.908 137.253 287.083 137.191 287.253 137.178C288.457 137.149 288.807 138.832 287.67 139.261C286.171 140.044 284.754 140.998 283.342 141.93L283.363 141.731L285.329 143.738L285.821 144.238C286.162 144.559 286.6 144.975 286.466 145.508C286.512 145.733 283.33 150.586 283.168 150.927C282.684 151.448 282.051 151.827 281.372 152.027C280.698 152.227 279.965 152.243 279.282 152.077L279.381 152.043C276.566 155.288 273.796 158.57 271.001 161.831C268.581 164.701 265.062 168.708 262.575 171.582C261.101 173.214 259.123 174.372 256.986 174.864C254.862 175.284 252.758 175.655 250.642 176.038C247.498 176.601 241.109 177.75 237.956 178.283L237.947 178.229C241.104 177.567 247.419 176.309 250.576 175.68L256.886 174.435C258.935 173.952 260.822 172.827 262.213 171.261C264.725 168.366 268.198 164.389 270.701 161.573C273.542 158.353 276.412 155.159 279.236 151.923L279.277 151.877C279.948 152.056 280.664 152.047 281.331 151.86C281.964 151.693 282.63 151.269 283.034 150.848C283.176 150.577 286.337 145.612 286.279 145.479C286.383 144.767 285.583 144.4 285.183 143.901L283.188 141.926L283.076 141.814C284.53 140.818 285.975 139.81 287.528 138.969C288.328 138.682 288.099 137.536 287.287 137.557C287.17 137.57 287.079 137.603 286.949 137.661L286.562 137.84L285.021 138.565C283.051 139.519 280.435 140.689 278.528 141.689C277.095 143.001 273.275 147.295 271.868 148.765C266.711 153.189 259.535 159.532 254.378 163.793C250.772 164.426 241.134 166.121 237.614 166.717L232.02 167.662L232.012 167.608L232.008 167.596Z" fill="black"/>
<path d="M286.223 144.89C286.339 145.593 285.323 147.53 284.153 147.993C283.899 148.093 283.603 148.126 283.349 148.022C283.095 147.918 282.891 147.663 282.907 147.384C282.916 147.205 283.011 147.043 283.099 146.885C283.703 145.86 284.303 144.835 284.906 143.807" fill="white"/>
<path d="M284.911 143.809C284.878 143.788 284.574 144.238 284.111 144.98C283.866 145.38 283.599 145.817 283.307 146.288C283.162 146.542 282.999 146.775 282.845 147.087C282.774 147.246 282.741 147.466 282.816 147.654C282.883 147.841 283.02 147.995 283.191 148.095C283.545 148.295 283.945 148.237 284.253 148.099C284.565 147.966 284.819 147.766 285.028 147.554C285.452 147.133 285.736 146.675 285.931 146.279C286.127 145.879 286.231 145.529 286.26 145.28C286.294 145.03 286.24 144.888 286.227 144.892C286.202 144.896 286.215 145.03 286.152 145.259C286.094 145.488 285.965 145.813 285.757 146.188C285.548 146.558 285.253 146.987 284.849 147.37C284.649 147.562 284.411 147.737 284.14 147.849C283.882 147.966 283.562 147.991 283.324 147.858C283.083 147.712 282.97 147.441 283.091 147.196C283.212 146.941 283.387 146.667 283.524 146.421C283.795 145.938 284.049 145.492 284.278 145.084C284.699 144.317 284.944 143.834 284.911 143.813" fill="black"/>
<path d="M280.812 149.358C280.841 149.371 280.95 149.2 281.012 148.892C281.075 148.584 281.075 148.13 280.916 147.667C280.754 147.205 280.479 146.847 280.238 146.643C279.996 146.439 279.809 146.372 279.792 146.401C279.742 146.464 280.375 146.905 280.658 147.759C280.962 148.604 280.737 149.342 280.816 149.358" fill="black"/>
<path d="M283.177 146.359C283.09 146.813 282.677 147.188 282.215 147.229C281.753 147.275 281.278 146.984 281.107 146.555C280.882 145.992 281.153 145.363 281.424 144.818C281.836 143.985 282.244 143.147 282.656 142.314" fill="white"/>
<path d="M282.653 142.319C282.62 142.302 282.403 142.656 282.087 143.248C281.916 143.577 281.733 143.922 281.541 144.285C281.35 144.681 281.091 145.097 280.95 145.622C280.883 145.88 280.854 146.159 280.921 146.422C280.979 146.684 281.137 146.917 281.325 147.067C281.708 147.384 282.216 147.409 282.545 147.246C282.878 147.092 283.053 146.834 283.124 146.655C283.199 146.471 283.186 146.359 283.174 146.359C283.153 146.355 283.128 146.455 283.028 146.605C282.936 146.755 282.757 146.955 282.466 147.063C282.187 147.175 281.787 147.134 281.487 146.871C281.175 146.617 281.079 146.151 281.212 145.688C281.337 145.226 281.583 144.797 281.766 144.397C281.937 144.022 282.103 143.668 282.258 143.331C282.528 142.723 282.682 142.336 282.649 142.319" fill="black"/>
<path d="M278.304 143.709C279.999 143.459 281.732 143.488 283.419 143.796C283.519 143.813 283.627 143.838 283.69 143.921C283.777 144.034 283.727 144.2 283.656 144.325C283.386 144.8 282.861 145.071 282.336 145.233C281.811 145.392 281.261 145.467 280.762 145.683C279.891 146.054 279.246 146.795 278.492 147.366C277.738 147.936 276.701 148.34 275.859 147.916" fill="white"/>
<path d="M275.856 147.912C275.856 147.912 275.894 147.949 275.985 147.999C276.077 148.045 276.214 148.099 276.406 148.128C276.785 148.199 277.372 148.124 277.98 147.803C278.605 147.499 279.184 146.912 279.867 146.375C280.213 146.108 280.596 145.862 281.033 145.717C281.475 145.567 281.971 145.492 282.475 145.329C282.97 145.163 283.466 144.892 283.745 144.43C283.812 144.317 283.882 144.18 283.862 144.001C283.849 143.913 283.795 143.817 283.72 143.767C283.649 143.713 283.574 143.692 283.508 143.676C283.266 143.63 283.049 143.596 282.824 143.567C281.937 143.447 281.133 143.422 280.459 143.438C279.784 143.455 279.242 143.517 278.868 143.576C278.497 143.634 278.293 143.684 278.297 143.701C278.301 143.746 279.126 143.621 280.459 143.634C281.125 143.642 281.921 143.688 282.787 143.817C283.004 143.851 283.233 143.888 283.445 143.93C283.549 143.955 283.582 143.984 283.591 144.038C283.599 144.096 283.566 144.196 283.508 144.284C283.278 144.659 282.845 144.904 282.379 145.063C281.908 145.217 281.408 145.292 280.938 145.458C280.459 145.621 280.05 145.891 279.701 146.171C279.001 146.737 278.459 147.32 277.876 147.628C277.306 147.953 276.768 148.049 276.406 148.016C276.04 147.991 275.856 147.878 275.844 147.903" fill="black"/>
<path d="M255.532 167.568C255.603 167.559 255.516 166.576 255.099 165.448C254.687 164.315 254.125 163.507 254.062 163.548C253.991 163.59 254.437 164.44 254.837 165.544C255.241 166.647 255.449 167.584 255.528 167.572" fill="black"/>
<path d="M223.102 164.768L237.567 165.53L242.74 180.724L229.499 183.56L223.102 164.768Z" fill="white"/>
<path d="M223.356 164.959L237.434 165.701L242.502 180.591L229.611 183.352L223.351 164.959H223.356ZM222.852 164.576L229.382 183.765L242.973 180.853L237.696 165.359L222.852 164.576Z" fill="black"/>
<path d="M240.19 181.006L242.873 180.656L237.658 165.578L234.359 165.295L240.19 181.006Z" fill="black"/>
<mask id="mask0_5018_10197" style="mask-type:luminance" maskUnits="userSpaceOnUse" x="194" y="158" width="37" height="78">
<path d="M199.989 169.38C198.119 174.291 197.898 189.764 197.898 189.764C197.898 189.764 197.419 212.76 196.249 217.204C195.078 221.648 194.633 228.766 194.633 231.569C194.633 234.372 230.977 235.501 230.977 235.501C230.977 235.501 230.453 186.999 229.345 180.164C228.628 175.736 225.7 165.294 225.7 165.294L207.232 158.355C207.232 158.355 201.859 164.466 199.985 169.376" fill="white"/>
</mask>
<g mask="url(#mask0_5018_10197)">
<path d="M235.079 152.148H223V246.646H235.079V152.148Z" fill="url(#colorOne)"/>
<path d="M223.344 152.148H211.266V246.646H223.344V152.148Z" fill="white"/>
<path d="M211.626 152.148H199.547V246.646H211.626V152.148Z" fill="url(#colorOne)"/>
<path d="M199.899 152.148H187.82V246.646H199.899V152.148Z" fill="white"/>
</g>
<path d="M196.199 232.548C195.716 232.406 195.216 232.273 194.799 231.948C194.704 231.864 194.604 231.752 194.587 231.602C194.57 231.365 194.579 230.707 194.57 230.457C194.629 225.646 195.049 220.819 196.132 216.125C197.798 201.805 196.536 187.248 198.606 172.945C198.76 172.079 198.956 171.154 199.177 170.3C200.11 167.193 201.988 164.494 203.875 161.92C204.487 161.104 205.116 160.308 205.766 159.521C206.112 159.096 206.499 158.596 207.053 158.43C207.611 158.222 208.24 158.326 208.765 158.571L214.421 160.775C218.178 162.283 221.947 163.753 225.696 165.29C220.177 163.37 214.05 161.216 208.528 159.2C207.803 158.855 207.032 158.996 206.582 159.696L206.349 159.992C205.729 160.783 205.12 161.587 204.537 162.403C202.784 164.948 200.976 167.576 200.118 170.554C198.644 177.302 198.61 184.295 198.377 191.197C198.102 199.302 197.919 207.415 196.89 215.471L196.774 216.229L196.611 216.991C195.495 221.393 194.991 225.925 194.729 230.457L194.695 231.215C194.695 231.34 194.683 231.473 194.687 231.59C194.687 231.698 194.766 231.802 194.854 231.881C195.224 232.206 195.724 232.373 196.199 232.539" fill="black"/>
<path d="M208.439 138.872C208.439 138.872 203.624 136.694 203.532 141.875C203.441 147.057 208.526 146.032 208.539 145.882C208.551 145.732 208.439 138.872 208.439 138.872Z" fill="white"/>
<path d="M209.632 147.396C209.599 151.724 209.228 156.027 208.516 160.296C208.549 155.968 208.924 151.666 209.632 147.396Z" fill="black"/>
<path d="M206.667 154.747C201.656 151.34 201.252 138.19 201.319 138.116C202.651 121.801 215.147 120.46 217.254 120.485C220.778 120.526 227.221 123.155 230.478 125.912C234.885 129.64 235.289 141.756 234.206 143.543C233.606 144.53 224.485 156.596 216.367 156.596C213.71 156.596 211.194 155.967 208.953 154.851C208.795 154.922 206.887 154.897 206.667 154.747Z" fill="black"/>
<path d="M221.943 126.549C215.524 126.549 210.272 132.672 209.802 140.44C208.431 140.098 206.29 140.123 205.795 143.305C205.141 147.483 208.898 147.779 209.785 147.699L208.939 158.845C208.173 159.187 210.331 162.798 211.555 163.268C214.371 163.339 217.207 163.86 220.018 164.193C220.61 164.147 221.197 164.143 221.772 164.193C221.572 162.602 220.831 161.24 219.502 160.132L220.185 156.434C220.76 156.538 221.347 156.592 221.943 156.592C228.669 156.592 233.184 149.465 233.184 141.164C233.184 132.863 228.665 126.545 221.943 126.545" fill="white"/>
<path d="M208.5 133.555C210.366 128.573 215.222 124.379 220.754 124.579C227.993 124.787 232.895 132.118 233.241 138.853C233.332 144.022 232.303 152.823 227.459 155.692C225.427 156.942 222.957 157.042 220.67 156.7C218.388 156.384 216.118 155.934 213.99 154.988C212.611 154.368 210.945 153.222 211.112 151.494C211.124 151.373 211.228 151.286 211.349 151.298C211.47 151.311 211.557 151.415 211.545 151.536C211.411 153.056 212.94 154.018 214.173 154.589C216.226 155.505 218.496 155.951 220.725 156.255C222.92 156.579 225.289 156.48 227.21 155.288C231.125 152.781 231.991 147.683 232.595 143.393C232.787 141.885 232.982 140.381 232.92 138.874C232.091 123.596 215.31 119.673 208.5 133.563" fill="black"/>
<path d="M209.547 146.262C209.547 146.262 209.459 146.304 209.314 146.337C209.172 146.371 208.943 146.371 208.722 146.242C208.277 145.979 208.018 145.146 208.147 144.326C208.214 143.913 208.372 143.538 208.581 143.239C208.781 142.935 209.039 142.743 209.284 142.747C209.534 142.735 209.676 142.914 209.709 143.047C209.747 143.184 209.701 143.268 209.722 143.28C209.73 143.293 209.834 143.222 209.83 143.03C209.83 142.939 209.797 142.822 209.705 142.714C209.614 142.606 209.464 142.531 209.293 142.518C208.939 142.476 208.568 142.739 208.339 143.064C208.093 143.389 207.906 143.805 207.831 144.272C207.689 145.188 207.997 146.125 208.614 146.437C208.918 146.579 209.197 146.533 209.355 146.454C209.518 146.371 209.559 146.271 209.543 146.262" fill="black"/>
<path d="M233.204 129.981C232.337 127.086 231.538 127.469 228.847 126.095C226.156 124.72 223.078 124.25 220.059 124.287C217.039 124.325 214.048 124.849 211.075 125.37C210.354 125.495 209.563 125.662 209.117 126.245C208.817 126.64 208.734 127.153 208.659 127.644C208.042 131.789 207.659 136.516 207.047 140.656C208.38 140.277 209.517 140.119 210.233 141.11C210.916 142.06 210.733 143.155 210.687 143.388C210.925 143.442 211.324 143.513 211.741 143.355C212.586 143.034 213.02 142.176 213.195 141.793C215.061 137.657 216.243 131.868 218.622 130.314C222.762 127.611 230.725 136.312 232.862 134.042C233.224 133.659 233.412 130.681 233.199 129.973" fill="black"/>
<path d="M222.857 161.543C222.757 159.852 223.015 158.153 223.557 156.553C223.636 156.566 223.665 156.578 223.748 156.516C223.927 156.395 224.157 156.395 224.357 156.408C224.169 156.449 223.973 156.491 223.836 156.624C223.803 156.666 223.707 156.741 223.615 156.737L223.703 156.666C223.565 158.319 223.336 159.948 222.857 161.543Z" fill="black"/>
<path d="M223.706 156.43C223.706 156.43 217.924 156.997 212.227 153.811C212.227 153.811 214.659 159.987 222.96 159.596L223.706 156.43Z" fill="black"/>
<path d="M226.116 141.094C226.225 142.46 226.495 143.801 227.02 145.063C227.52 146.238 227.982 147.433 226.125 147.191C225.783 147.133 225.45 147.041 225.125 146.929C225.462 146.992 225.8 147.054 226.141 147.071C227.832 147.204 227.212 146.175 226.795 145.155C226.291 143.872 226.033 142.472 226.125 141.094" fill="black"/>
<path d="M205.788 198.301C205.788 198.301 204.617 211.871 204.309 215.961C204.013 219.884 207.112 245.787 207.112 245.787L207.349 248.615V253.063C207.349 253.938 207.862 256.125 208.228 256.858C208.595 257.587 210.057 257.149 210.057 257.149C210.057 257.149 210.203 258.17 211.006 258.607C211.81 259.044 212.76 257.878 212.76 257.878C212.906 259.119 213.272 259.702 214.297 259.702C215.321 259.702 215.942 258.753 215.942 258.753C216.05 260.065 217.737 260.286 218.245 259.994C218.758 259.702 218.537 254.379 218.537 254.379C219.561 255.962 220.499 254.709 220.499 254.709L218.978 248.253L215.684 244.617L216.071 217.464L218.645 198.309" fill="white"/>
<path d="M205.814 198.301C205.464 203.528 204.922 210.43 204.527 215.619C204.393 218.235 204.764 220.851 204.968 223.462C205.368 227.652 205.797 231.838 206.263 236.02C206.659 239.669 207.33 245 207.588 248.607C207.588 249.444 207.58 251.672 207.575 252.485C207.53 253.747 207.834 255.021 208.2 256.225C208.338 256.583 208.379 256.958 208.817 257.037C209.246 257.133 209.762 257.029 210.204 256.904C210.274 257.516 210.587 258.228 211.178 258.482C211.857 258.674 212.474 257.949 212.882 257.479C212.94 257.953 212.986 258.507 213.186 258.928C213.482 259.615 214.406 259.678 215.006 259.378C215.452 259.174 215.785 258.757 216.051 258.362L216.076 258.741C216.126 259.703 217.343 260.194 218.167 259.898C218.392 259.599 218.367 259.099 218.421 258.707C218.53 257.166 218.488 255.608 218.438 254.063C218.896 254.871 219.638 255.575 220.429 254.659C219.954 252.939 219.346 250.127 218.909 248.311L215.597 244.688C215.543 238.64 215.685 230.314 215.747 224.245C215.747 224.241 215.864 217.44 215.868 217.431C216.743 211.046 217.667 204.669 218.621 198.297L218.671 198.305C217.909 204.703 217.114 211.096 216.272 217.485C216.21 225.861 215.997 236.145 215.793 244.613L215.764 244.538L219.042 248.19C219.575 250.344 220.046 252.526 220.579 254.688L220.587 254.725L220.562 254.755C220.15 255.317 219.35 255.438 218.859 254.909C218.705 254.763 218.575 254.596 218.463 254.421L218.625 254.371C218.646 256.187 218.83 258.024 218.48 259.824C218.446 259.907 218.413 260.036 218.276 260.107C217.301 260.502 215.876 259.898 215.806 258.761L216.056 258.824C215.585 259.511 214.752 259.978 213.911 259.819C212.978 259.711 212.669 258.678 212.594 257.895L212.89 257.983C211.678 259.469 210.27 258.986 209.866 257.175L210.112 257.333C209.466 257.495 208.538 257.67 208.079 257.004C207.6 255.987 207.392 254.913 207.196 253.817C207.076 253.093 207.138 251.947 207.121 251.202L207.113 248.615C206.976 246.903 206.697 244.167 206.455 242.363C205.722 236.087 205.035 229.81 204.493 223.512C204.327 220.888 203.985 218.239 204.156 215.599C204.414 212.687 204.893 207.531 205.16 204.59L205.768 198.305H205.818L205.814 198.301Z" fill="black"/>
<path d="M215.878 254.75C215.79 254.75 215.736 255.65 215.753 256.753C215.77 257.857 215.857 258.753 215.945 258.748C216.032 258.748 216.086 257.853 216.07 256.745C216.053 255.641 215.965 254.746 215.878 254.75Z" fill="black"/>
<path d="M212.686 254.613C212.598 254.613 212.531 255.334 212.54 256.217C212.548 257.104 212.623 257.82 212.711 257.82C212.798 257.82 212.865 257.1 212.856 256.217C212.852 255.33 212.773 254.613 212.686 254.613Z" fill="black"/>
<path d="M210.013 254.424C209.917 254.437 209.976 255.053 210.013 255.786C210.042 256.519 209.976 257.123 210.067 257.14C210.146 257.16 210.359 256.557 210.33 255.774C210.288 254.999 210.092 254.412 210.013 254.424Z" fill="black"/>
<path d="M218.621 250.76C218.534 250.76 218.488 251.643 218.455 252.726C218.422 253.809 218.409 254.692 218.496 254.7C218.58 254.708 218.738 253.829 218.771 252.738C218.809 251.643 218.709 250.76 218.621 250.76Z" fill="black"/>
<path d="M203.101 196.911C202.997 188.335 204.059 178.384 204.521 177.018C207.803 167.33 213.714 168.088 218.374 172.045C222.11 175.215 221.586 187.206 221.215 196.556C219.22 197.398 216.446 198.173 212.335 198.335C208.007 198.506 205.183 197.639 203.097 196.915" fill="white"/>
<path d="M202.348 197.515C204.547 198.206 207.854 198.972 211.915 198.914C216.222 198.852 219.675 197.877 221.899 197.061C221.907 196.369 221.915 195.678 221.92 194.986C219.421 195.682 215.734 196.398 211.27 196.186C207.625 196.011 204.601 195.27 202.394 194.545C202.377 195.532 202.36 196.523 202.344 197.51" fill="black"/>
<path d="M203.792 178.467C203.238 184.277 203.159 190.108 202.992 195.939C202.992 195.943 202.992 195.972 202.992 195.956C202.992 195.939 202.976 195.897 202.972 195.893C203.513 196.206 204.309 196.251 204.95 196.36C208.886 196.835 212.889 196.768 216.833 196.464C218.249 196.314 220.015 196.226 221.219 195.743C221.21 195.752 221.21 195.814 221.21 195.789L221.202 195.664C221.098 193.877 220.923 190.537 220.823 188.717C220.711 186.384 220.577 183.073 220.494 180.774C220.423 179.649 220.473 177.933 220.298 176.838C219.928 174.281 218.536 171.848 216.391 170.29L216.429 170.236C219.336 172.002 220.994 175.401 221.002 178.762C221.281 183.156 221.514 188.242 221.673 192.661C221.698 193.382 221.764 195.06 221.785 195.764C221.839 196.83 217.662 196.764 216.854 196.851C212.864 196.951 208.89 196.972 204.908 196.747C204.213 196.676 203.567 196.651 202.884 196.414C202.792 196.368 202.697 196.343 202.58 196.214C202.488 196.118 202.476 195.947 202.484 195.814C202.443 192.661 202.576 189.512 202.776 186.368C202.972 183.723 203.234 181.074 203.725 178.462L203.792 178.471V178.467Z" fill="black"/>
<path d="M225.719 165.506C225.744 165.498 225.898 165.918 226.152 166.685C226.41 167.451 226.76 168.563 227.151 169.954C227.943 172.728 228.876 176.623 229.388 181.009C229.913 185.39 230.009 189.385 230.009 192.267C230.009 193.708 229.988 194.878 229.955 195.682C229.925 196.486 229.9 196.932 229.871 196.932C229.846 196.932 229.825 196.486 229.809 195.678C229.792 194.812 229.771 193.662 229.746 192.267C229.68 189.389 229.542 185.407 229.022 181.046C228.513 176.685 227.622 172.803 226.897 170.017C226.539 168.622 226.227 167.501 226.01 166.722C225.798 165.943 225.689 165.51 225.714 165.502" fill="black"/>
<path d="M225.652 165.114L207.359 158.541L205.227 160.674L225.652 165.114Z" fill="black"/>
<path d="M233.198 137.59C232.956 137.894 232.031 137.569 230.915 137.544C229.799 137.482 228.853 137.732 228.637 137.411C228.541 137.253 228.695 136.949 229.108 136.666C229.516 136.382 230.199 136.149 230.965 136.178C231.732 136.207 232.394 136.491 232.781 136.807C233.173 137.124 233.298 137.44 233.193 137.59" fill="black"/>
<path d="M223.237 137.233C222.995 137.537 222.07 137.212 220.954 137.187C219.838 137.125 218.893 137.374 218.676 137.054C218.58 136.895 218.734 136.591 219.147 136.308C219.555 136.021 220.238 135.792 221.004 135.821C221.771 135.85 222.433 136.133 222.82 136.45C223.212 136.766 223.337 137.083 223.233 137.233" fill="black"/>
    <script type="text/ecmascript" xlink:href="https://www.argentina.gob.ar/profiles/argentinagobar/themes/contrib/poncho/js/w3c/ref2.js"></script>
</svg>
