<svg width="640" height="360" viewBox="0 0 640 360" fill="none" 
xmlns="http://www.w3.org/2000/svg" 
xmlns:xlink="http://www.w3.org/1999/xlink">
<defs>
<ref id="colorOne" param="c1" default="#242C4F" />
<ref id="colorTwo" param="c2" default="#9296A7"/>
</defs>
<path d="M177.898 300.301H463.298C463.798 300.301 464.298 300.701 464.298 301.301V301.901C464.298 302.401 463.898 302.901 463.298 302.901H177.898C177.398 302.901 176.898 302.501 176.898 301.901V301.301C176.898 300.801 177.298 300.301 177.898 300.301Z" fill="black"/>
<path d="M369.097 300.501V290.101L368.097 249.201L253.297 246.801C253.297 246.801 248.497 265.001 247.797 289.301C247.797 290.301 247.797 294.201 247.897 300.401C288.297 299.501 328.697 301.501 369.097 300.501Z" fill="black"/>
<path d="M248.895 175.799C248.995 176.899 249.295 177.799 249.395 178.699L249.095 178.299C250.995 178.599 252.895 179.099 254.795 179.699C256.595 180.399 258.595 180.599 260.495 180.899L260.195 181.699C256.295 180.199 252.495 177.899 248.895 175.799ZM248.895 175.699C251.795 176.799 254.895 177.899 257.695 179.399C259.495 180.299 262.095 181.899 263.895 182.899L260.395 181.699C256.595 180.199 252.495 180.299 248.695 178.999C248.595 177.899 248.695 176.699 248.895 175.699Z" fill="black"/>
<path d="M235.502 338.3C234.502 338.5 233.802 338.6 233.302 338.6C233.202 336.6 233.102 334.6 233.102 332.8C233.202 327.5 235.002 325.1 236.602 320.1C237.402 317.6 237.102 313.7 236.602 310.5H236.802C236.802 310.5 238.202 299.6 242.502 288.5C240.502 287.1 241.002 286.5 238.802 285.5C236.202 284.3 233.502 283.7 230.802 283C229.002 282.6 227.202 282.1 225.402 281.6L220.802 306H220.702C220.602 306.4 212.802 326.6 213.102 328.9C213.302 331.2 214.602 344.9 215.402 345.7C216.202 346.5 224.702 351.5 224.702 351.5H232.702C232.702 351.5 232.802 350.2 231.502 348.7L238.002 345.7C238.002 345.7 238.802 342.8 236.102 342L239.002 340.2C238.902 340.2 237.702 337.9 235.502 338.3Z" fill="white"/>
<path d="M235.498 338.3L233.298 338.7H233.198V338.6C232.798 333.8 232.798 328.9 234.798 324.4C235.598 322.2 236.598 320 236.698 317.6C236.798 315.1 236.498 312.5 236.098 310C236.198 310 236.798 310.1 236.898 310.1L236.398 310.5C236.898 307.2 237.698 304 238.598 300.8C239.498 297.6 240.498 294.4 241.798 291.4L241.898 291.9C237.098 287.7 230.798 285.8 225.198 282.9L225.398 282.8C224.098 289.7 222.398 299.6 221.098 306.6H220.798H220.698L220.998 306.3C218.398 313.7 215.398 321 213.598 328.6C213.598 328.9 213.598 328.9 213.598 329.3C214.098 334.1 214.498 339 215.298 343.8C215.398 344.4 215.598 345.1 215.698 345.5C215.998 345.7 216.298 345.9 216.598 346.1C218.398 347.3 222.998 350 224.898 351.2L224.598 351.1C227.298 351.1 229.898 351.2 232.598 351.2L232.198 351.5C232.198 350.4 231.598 349.4 230.798 348.6L231.198 348.4L237.798 345.5L237.698 345.6C238.098 343.9 237.398 342.4 235.698 341.9L235.898 341.8L238.798 340V340.1C238.198 339 236.898 338.1 235.498 338.3ZM235.498 338.2C236.998 337.9 238.298 339 238.998 340.2H238.898L235.998 342V341.8C237.698 342.2 238.498 344.1 238.098 345.8H237.998L231.498 348.9L231.598 348.4C232.398 349.2 232.998 350.3 232.998 351.4V351.7C230.198 351.8 227.298 351.8 224.498 351.8C221.398 350 218.198 348.3 215.298 346.2C214.998 346 214.598 345.6 214.598 345.3C213.398 340.5 213.198 335.5 212.598 330.6C212.598 329.9 212.298 328.7 212.498 328C213.198 324.5 214.498 321.2 215.698 317.8C217.198 313.6 218.798 309.5 220.398 305.4H220.598H220.698L220.298 305.7C221.698 298.8 223.698 288.9 224.998 282C229.398 284.1 233.898 286 238.198 288.1C239.798 288.8 240.998 290 242.398 291C240.098 297.3 238.398 303.8 237.198 310.3L237.098 310.8C236.998 310.8 236.598 310.7 236.498 310.7L236.998 310.2C237.298 312.6 237.598 315 237.298 317.4C237.098 319.8 235.998 322.1 235.098 324.3C232.898 328.7 232.898 333.5 233.198 338.3L233.098 338.2H235.498Z" fill="black"/>
<path d="M236.5 309.6C236.5 309.6 236.5 309.7 236.6 309.9C236.6 310.1 236.7 310.4 236.8 310.8C236.9 311.6 237.1 312.8 237.2 314.3C237.3 315 237.3 315.9 237.4 316.8C237.4 317.7 237.4 318.7 237.1 319.7C236.5 321.7 235.6 323.9 234.5 326.2C233.7 330.6 232.7 335.7 231.7 341.1C231.5 342.2 231.2 343.3 230.4 344.2C230 344.6 229.5 345 229 345.1C228.4 345.3 227.8 345.2 227.3 345C226.2 344.6 225.4 343.9 224.9 342.9C224.4 342 224.3 340.9 224.2 339.9C224.2 337.9 224.7 336.1 224.9 334.4C225.1 332.7 225.2 331.1 225.2 329.7C225.2 326.8 224.8 324.4 224.5 322.8C224.4 322 224.2 321.4 224.1 321C224 320.6 224 320.4 224 320.4C224 320.4 224.1 320.6 224.2 321C224.3 321.4 224.5 322 224.7 322.8C225.1 324.4 225.4 326.8 225.5 329.7C225.5 331.2 225.5 332.8 225.3 334.5C225.1 336.2 224.7 338 224.6 339.9C224.6 340.8 224.7 341.8 225.2 342.7C225.7 343.5 226.5 344.2 227.4 344.6C228.3 344.9 229.4 344.7 230.1 343.9C230.8 343.1 231 342 231.3 341C232.3 335.6 233.3 330.5 234.2 326.1C235.3 323.8 236.2 321.6 236.8 319.7C237.1 318.7 237.1 317.8 237.1 316.9C237.1 316 237 315.2 237 314.4C236.9 312.9 236.8 311.7 236.7 310.9C236.7 310.5 236.6 310.2 236.6 310C236.5 309.7 236.4 309.6 236.5 309.6Z" fill="black"/>
<path d="M232.3 350.7C232.2 350.7 231.6 349.7 230.3 348.3C229 346.9 226.9 345.2 224.1 344.1C223.4 343.8 222.7 343.6 222.1 343C221.6 342.4 221.5 341.6 221.4 341C221.2 339.8 221 338.6 220.9 337.6C220.8 336.6 220.6 335.9 220.6 335.3C220.5 334.8 220.5 334.5 220.5 334.5C220.5 334.5 220.6 334.8 220.7 335.3C220.8 335.8 221 336.6 221.2 337.6C221.4 338.6 221.6 339.7 221.8 341C221.9 341.6 222 342.3 222.4 342.8C222.8 343.3 223.5 343.5 224.2 343.8C227 344.9 229.2 346.7 230.4 348.2C231 348.9 231.5 349.6 231.8 350.1C232.2 350.4 232.4 350.7 232.3 350.7Z" fill="black"/>
<path d="M221.001 328.3C221.101 328.2 221.701 329.5 221.601 331.2C221.501 332.9 220.801 334.1 220.701 334.1C220.601 334.1 221.101 332.8 221.201 331.2C221.301 329.6 220.901 328.3 221.001 328.3Z" fill="black"/>
<path d="M275.892 124.801C279.292 125.401 260.592 123.601 250.492 148.101C245.092 161.101 217.992 299.801 217.992 299.801L241.292 309.001L275.192 184.101L275.892 124.801Z" fill="url(#colorOne)"/>
<path d="M241.895 310L217.195 300.3L217.295 299.7C218.395 294 244.395 160.8 249.795 147.9C253.595 138.8 260.995 127.4 275.095 124.5V124L275.995 124.2C276.395 124.3 276.995 124.4 276.995 125.1C276.995 125.5 276.795 125.7 276.595 125.8L275.895 184.4V184.5L241.895 310ZM218.895 299.3L240.795 307.9L274.395 183.9L275.095 125.9C261.795 128.7 254.795 139.6 251.195 148.3C246.095 160.8 220.895 289.2 218.895 299.3Z" fill="black"/>
<path d="M326.997 221.6C326.997 221.6 326.797 221.7 326.497 221.9C326.097 222.1 325.697 222.3 325.097 222.6C323.897 223.2 322.097 224 319.897 224.9C317.697 225.8 314.997 226.8 311.997 227.9C308.997 228.9 305.697 230 302.197 230.9C298.697 231.8 295.297 232.6 292.197 233.2C289.097 233.8 286.297 234.2 283.897 234.5C281.497 234.8 279.597 235 278.297 235.1C277.697 235.1 277.197 235.2 276.797 235.2C276.397 235.2 276.297 235.2 276.297 235.2C276.297 235.2 276.497 235.2 276.797 235.1C277.197 235.1 277.697 235 278.297 234.9C279.597 234.8 281.497 234.5 283.897 234.2C286.297 233.9 289.097 233.4 292.197 232.8C295.297 232.2 298.697 231.4 302.197 230.5C305.697 229.6 308.997 228.5 311.997 227.5C314.997 226.5 317.597 225.5 319.897 224.6C322.097 223.7 323.897 223 325.097 222.4C325.697 222.2 326.197 222 326.497 221.8C326.797 221.7 326.997 221.6 326.997 221.6Z" fill="black"/>
<path d="M332.994 267.9C332.994 267.9 329.494 269.9 323.494 272.3C322.694 272.6 321.894 272.9 321.094 273.2C320.294 273.5 319.394 273.8 318.494 274.1C316.694 274.7 314.694 275.2 312.694 275.8C308.494 276.8 303.894 277.7 298.994 278.3C294.094 278.8 289.394 278.9 285.094 278.8C282.994 278.7 280.894 278.6 278.994 278.4C278.094 278.3 277.094 278.2 276.294 278.1C275.394 278 274.594 277.8 273.794 277.7C267.394 276.7 263.594 275.4 263.594 275.4C263.594 275.4 263.694 275.4 263.794 275.4C263.894 275.4 264.094 275.5 264.294 275.5C264.794 275.6 265.494 275.8 266.294 276C266.694 276.1 267.194 276.2 267.794 276.3C268.294 276.4 268.894 276.5 269.594 276.6C270.894 276.8 272.294 277.1 273.894 277.3C274.694 277.4 275.494 277.5 276.394 277.6C277.294 277.7 278.194 277.8 279.094 277.9C280.994 278.1 282.994 278.2 285.194 278.3C289.494 278.4 294.194 278.3 299.094 277.8C303.994 277.3 308.594 276.4 312.794 275.4C314.894 274.8 316.794 274.4 318.594 273.7C319.494 273.4 320.394 273.2 321.194 272.9C321.994 272.6 322.794 272.3 323.594 272C325.094 271.5 326.494 270.9 327.694 270.4C328.294 270.2 328.794 269.9 329.394 269.7C329.894 269.5 330.394 269.3 330.794 269.1C331.594 268.7 332.194 268.4 332.694 268.2C332.894 268.1 333.094 268 333.194 268C332.894 267.9 332.994 267.9 332.994 267.9Z" fill="black"/>
<path d="M300.203 121.9L311.103 113.5L349.103 125.8L352.603 134.8L358.103 139.3L329.303 159.4L300.203 121.9Z" fill="white"/>
<path d="M329.202 160.4L299.102 121.7L311.002 112.5L349.702 125.1L353.302 134.2L359.402 139.2L329.202 160.4ZM301.302 122.1L329.502 158.3L356.802 139.2L352.002 135.3L348.502 126.5L311.302 114.4L301.302 122.1Z" fill="black"/>
<path d="M377.202 136.602C377.202 136.602 389.402 139.602 394.702 148.102C398.202 153.802 413.602 173.002 421.502 190.202C425.302 198.402 427.602 209.402 427.902 212.302C429.002 221.402 399.802 234.002 399.802 234.002C399.802 234.002 388.502 229.102 381.102 212.302C373.702 195.502 367.602 166.702 367.602 166.702L377.202 136.102" fill="url(#colorOne)"/>
<path d="M399.9 234.901L399.6 234.801C399.1 234.601 388 229.501 380.5 212.701C373.1 196.101 367.1 167.301 367 167.001V166.801L367.1 166.601L376.7 136.001L377.4 136.201L377.5 135.801C378 135.901 390.1 139.001 395.4 147.701C396.3 149.201 398.1 151.701 400.4 154.901C406.8 163.801 416.4 177.301 422.3 189.901C426.2 198.301 428.5 209.401 428.8 212.301C429.3 216.401 424.6 221.401 414.8 227.301C407.7 231.601 400.3 234.801 400.3 234.801L399.9 234.901ZM368.5 166.901C369 169.501 374.9 196.401 381.9 212.101C388.4 226.901 398.1 232.301 399.9 233.301C408.1 229.701 428 219.401 427.2 212.601C426.9 209.801 424.6 198.901 420.8 190.701C415 178.201 405.4 164.801 399.1 155.901C396.8 152.701 395 150.201 394 148.601C389.7 141.601 380.3 138.401 377.7 137.601L368.5 166.901Z" fill="black"/>
<path d="M269.897 185.9C266.397 206.7 259.697 226.5 259.297 231.1C258.297 242 249.797 269.6 249.797 269.6C249.797 269.6 278.497 285.7 302.497 287.1C347.797 289.8 368.297 275.3 368.297 275.3C368.297 275.3 372.897 257.3 372.897 245.3C372.897 237 370.297 222.7 370.297 222.7L376.497 170.6L376.397 143.7L353.097 134.9L340.197 146.6C335.197 151.2 327.397 151.1 322.497 146.4L322.397 146.3L300.097 122.1L274.797 125.3" fill="url(#colorOne)"/>
<path d="M313.298 288C309.898 288 306.298 287.9 302.498 287.7C278.598 286.3 249.698 270.3 249.398 270.1L248.898 269.8L249.098 269.2C249.198 269 256.598 244.8 257.498 234.1C257.698 232.3 258.898 227.7 260.498 221.4C263.098 211.6 266.598 198.1 268.798 185.4L270.298 185.7C268.098 198.4 264.598 212 261.998 221.8C260.398 227.8 259.198 232.6 258.998 234.3C258.098 244.4 251.898 265.2 250.698 269.1C254.798 271.3 280.798 284.9 302.598 286.2C325.798 287.6 342.298 284.3 352.098 281.3C361.398 278.5 366.498 275.4 367.698 274.6C368.198 272.2 371.798 255.7 371.798 244.7C371.798 236.5 369.598 222.8 369.598 222.6V222.5V222.4L375.798 170.3L375.598 144L353.298 135.6L340.798 147C335.498 151.8 327.298 151.7 322.098 146.8L321.998 146.7L299.898 122.7L274.998 125.9L274.798 124.4L300.498 121.1L323.098 145.7C327.698 150.1 334.998 150.2 339.698 145.9L352.898 133.9L377.098 143L377.298 170.5L371.098 222.6C371.298 223.9 373.298 236.9 373.298 244.8C373.298 256.7 369.098 275.1 368.998 275.3L368.898 275.6L368.698 275.8C368.498 276 363.298 279.5 352.598 282.8C344.298 285.3 331.198 288 313.298 288Z" fill="black"/>
<path d="M345.202 158.201C345.202 158.201 345.002 158.401 344.702 158.601C344.302 158.901 343.802 159.201 343.202 159.601C341.902 160.501 340.002 161.701 337.602 163.201C332.802 166.201 326.102 170.001 318.402 173.701C310.702 177.401 303.502 180.401 298.202 182.301C295.602 183.301 293.402 184.001 291.902 184.501C291.202 184.701 290.602 184.901 290.202 185.001C289.802 185.101 289.602 185.201 289.602 185.101C289.602 185.101 289.802 185.001 290.202 184.801C290.702 184.601 291.202 184.401 291.902 184.101C293.402 183.601 295.502 182.701 298.102 181.701C303.302 179.701 310.502 176.701 318.202 172.901C325.902 169.201 332.702 165.401 337.502 162.501C339.902 161.101 341.902 159.901 343.202 159.101C343.802 158.701 344.302 158.401 344.802 158.201C345.002 158.201 345.202 158.101 345.202 158.201Z" fill="black"/>
<g opacity="0.59">
<path d="M372.797 162.4C374.597 182.2 377.297 202.7 388.397 219.1C383.297 201.3 378.097 183.6 372.997 165.8" fill="url(#colorTwo)"/>
</g>
<path d="M356.9 221.699C356.9 221.699 356.6 221.699 356 221.499C355.4 221.299 354.6 221.099 353.6 220.799C352.6 220.499 351.3 220.099 349.8 219.799C348.3 219.499 346.6 218.999 344.7 218.699C343.7 218.499 342.8 218.299 341.7 218.099C340.7 217.899 339.6 217.799 338.4 217.599C336.2 217.199 333.7 216.999 331.2 216.799C326.1 216.399 320.5 216.299 314.6 216.699C308.7 217.099 303.2 217.999 298.2 218.999C295.7 219.599 293.3 220.099 291.2 220.699C290.1 220.999 289 221.299 288 221.599C287 221.899 286 222.199 285.1 222.599C283.3 223.199 281.6 223.799 280.2 224.399C278.8 224.899 277.5 225.399 276.6 225.899C275.7 226.299 274.9 226.599 274.3 226.899C273.8 227.099 273.5 227.199 273.5 227.199C273.5 227.199 273.8 226.999 274.3 226.799C274.9 226.499 275.6 226.199 276.5 225.699C277.5 225.199 278.7 224.699 280.1 224.099C281.5 223.499 283.1 222.799 285 222.199C285.9 221.899 286.9 221.499 287.9 221.199C288.9 220.899 290 220.599 291.1 220.299C293.3 219.599 295.7 219.099 298.2 218.499C303.2 217.399 308.8 216.599 314.7 216.099C320.6 215.699 326.3 215.899 331.4 216.299C334 216.599 336.4 216.799 338.6 217.199C339.7 217.399 340.8 217.499 341.9 217.699C342.9 217.899 343.9 218.099 344.9 218.299C346.8 218.699 348.5 219.199 350 219.499C351.5 219.899 352.8 220.299 353.8 220.599C354.8 220.899 355.6 221.199 356.2 221.399C356.6 221.599 356.9 221.699 356.9 221.699Z" fill="black"/>
<g opacity="0.43">
<path d="M306.7 211.699C299.2 212.299 291.9 214.199 285.1 217.299C284.2 217.699 283.3 218.199 282.7 218.899C282.1 219.699 281.9 220.799 282.6 221.599C283.5 222.599 285.1 222.099 286.4 221.699C308.8 214.099 334.7 214.399 357.4 221.899C358.1 222.099 358.9 222.399 359.5 221.899C360.1 221.399 359.9 220.499 359.6 219.799C357.8 216.099 353.1 214.899 349.1 214.299C335 212.299 320.8 211.999 306.5 211.699" fill="url(#colorTwo)"/>
</g>
<path d="M300.602 122.4C304.602 127.5 307.902 132.8 311.902 137.9C314.502 141.2 320.102 147.5 320.102 147.5C322.302 144.4 329.102 137.5 329.102 137.5C329.102 137.5 333.102 142.4 333.702 142.9" fill="white"/>
<path d="M320.2 148.801L319.5 148.001C319.4 147.901 313.9 141.701 311.3 138.301C309.3 135.701 307.4 133.101 305.6 130.501C303.8 128.001 302 125.301 300 122.801L301.3 121.801C303.3 124.401 305.2 127.001 307 129.601C308.8 132.101 310.6 134.801 312.6 137.301C314.7 139.901 318.6 144.401 320.1 146.201C322.7 142.801 328.4 137.201 328.6 136.901L329.2 136.301L329.8 137.001C331.4 138.901 333.9 142.001 334.4 142.401L333.3 143.601C332.8 143.101 330.3 140.201 329.2 138.801C327.5 140.601 322.6 145.601 320.9 148.101L320.2 148.801Z" fill="black"/>
<path d="M333.703 143.3C335.103 142 338.103 139.5 339.503 138.2L344.503 147.5L354.703 135.3L350.503 129.4" fill="white"/>
<path d="M344.402 148.9L339.302 139.5C338.702 140.1 337.902 140.7 337.102 141.4C336.002 142.3 334.902 143.3 334.202 143.9L333.102 142.7C333.802 142.1 334.902 141.1 336.002 140.1C337.102 139.2 338.202 138.2 338.902 137.6L339.702 136.9L344.702 146.1L353.702 135.3L349.802 129.9L351.102 129L355.702 135.4L344.402 148.9Z" fill="black"/>
<path d="M339.303 138.301L339.703 138.401C338.003 139.901 336.503 141.101 335.403 142.001C334.403 142.801 333.803 143.301 333.703 143.301C333.703 143.301 334.203 142.701 335.203 141.801C336.303 140.801 337.703 139.501 339.403 138.001L339.603 137.801L339.803 138.101C341.203 140.701 343.003 143.901 344.903 147.401L344.403 147.301C344.903 146.701 345.403 146.101 345.903 145.401C349.203 141.401 352.203 137.801 354.603 135.101V135.401C353.403 133.601 352.403 132.201 351.603 131.001C350.903 129.901 350.503 129.301 350.603 129.301C350.603 129.301 351.103 129.801 351.903 130.801C352.703 131.901 353.803 133.401 355.103 135.101L355.203 135.301L355.103 135.501C352.903 138.301 349.903 141.901 346.603 145.901C346.103 146.501 345.603 147.201 345.003 147.801L344.703 148.201L344.503 147.801" fill="black"/>
<path d="M332.097 149.7C332.097 149.7 332.197 149.8 332.197 150.1L331.897 150C331.897 149.4 332.097 148.1 332.397 146.6C332.797 144.6 333.297 142.9 333.497 143C333.697 143 333.497 144.7 332.997 146.8C332.697 148.3 332.297 149.6 332.097 150.1L331.797 150C331.897 149.8 331.997 149.7 332.097 149.7Z" fill="black"/>
<path d="M374.799 91.1004C374.899 91.4004 374.199 91.7004 373.299 91.6004C372.499 91.4004 371.999 90.9004 372.099 90.6004C372.299 90.3004 372.799 90.4004 373.499 90.5004C374.199 90.7004 374.699 90.8004 374.799 91.1004Z" fill="black"/>
<path d="M352.002 37.0996C354.102 34.9996 357.702 34.3996 360.402 35.8996C364.602 34.2996 369.702 36.0996 372.102 39.7996C375.102 39.0996 378.402 40.0996 380.502 42.2996C382.602 44.4996 383.502 47.7996 382.702 50.7996C385.802 51.2996 388.402 53.7996 388.902 56.8996C389.402 59.9996 387.802 63.2996 385.102 64.6996C387.902 66.6996 388.902 70.9996 387.102 74.0996C385.402 77.0996 381.202 78.4996 378.002 77.0996L350.802 45.4996C349.302 42.7996 349.902 39.1996 352.002 37.0996Z" fill="white"/>
<path d="M380.702 78.4004C379.702 78.4004 378.602 78.2004 377.702 77.8004L377.502 77.7003L350.002 45.8003C348.402 42.8003 349.002 38.9004 351.402 36.5004C353.702 34.2004 357.402 33.6004 360.402 35.0004C364.702 33.6004 369.802 35.2004 372.402 38.9004C375.502 38.4004 378.802 39.5004 381.002 41.7004C383.102 43.9004 384.102 47.1003 383.602 50.1003C386.602 50.9003 389.102 53.6004 389.602 56.7004C390.102 59.7004 388.802 62.9003 386.302 64.7003C388.802 67.2003 389.402 71.3004 387.702 74.4004C386.302 76.9004 383.502 78.4004 380.702 78.4004ZM378.402 76.3004C381.202 77.5004 384.802 76.2003 386.302 73.6003C387.802 70.9003 387.002 67.1004 384.502 65.3004L383.502 64.6003L384.602 64.0004C387.002 62.7004 388.502 59.8004 388.002 57.0004C387.502 54.3004 385.202 52.0003 382.502 51.6003L381.602 51.5004L381.802 50.6003C382.502 47.9003 381.702 44.9004 379.802 42.9004C377.902 40.9004 374.902 40.0003 372.102 40.6003L371.502 40.7004L371.202 40.2004C369.102 36.8004 364.302 35.1003 360.502 36.6003L360.202 36.7004L359.902 36.5004C357.502 35.3004 354.402 35.7003 352.502 37.6003C350.602 39.5003 350.102 42.6004 351.302 44.9004L378.402 76.3004Z" fill="black"/>
<path d="M378.6 78.2998C382.1 62.8998 360 51.4998 357.6 51.4998L349.6 46.5998C333.2 42.3998 327.6 49.5998 323.9 66.0998L310.5 114.3L333.8 143L345.9 132.9L349.4 124.9C349.4 124.9 364 131.3 369.2 115.9C371.5 108.4 375.3 92.5998 378.6 78.2998Z" fill="white"/>
<path d="M333.702 144.099L309.602 114.499L323.102 65.899C325.502 55.399 328.502 49.599 333.102 46.699C337.202 44.199 342.502 43.899 349.802 45.799L350.002 45.899L357.802 50.699C360.202 51.099 369.502 55.899 375.002 62.899C379.102 67.999 380.502 73.299 379.302 78.499C375.002 97.199 371.702 109.899 369.702 116.099C368.102 120.899 365.402 124.199 361.802 125.799C356.802 127.999 351.602 126.499 349.602 125.899L346.402 133.399L333.702 144.099ZM311.402 114.099L333.902 141.799L345.202 132.299L348.902 123.799L349.602 124.099C349.702 124.099 355.802 126.799 361.202 124.299C364.402 122.899 366.802 119.899 368.202 115.499C370.202 109.399 373.502 96.399 377.802 77.999C378.902 73.299 377.502 68.499 373.802 63.799C368.002 56.499 358.602 52.099 357.502 52.099H357.302L349.302 47.199C342.502 45.499 337.602 45.699 334.002 47.999C329.702 50.599 326.902 56.099 324.702 66.199L311.402 114.099Z" fill="black"/>
<path d="M348.902 125.198C348.902 125.198 338.902 123.298 330.602 113.398C330.602 113.398 331.102 126.298 347.102 129.798L348.902 125.198Z" fill="black"/>
<path d="M352.398 98.2C352.398 98.1 353.998 98.3 356.498 98.7C357.098 98.8 357.698 98.9 357.998 98.5C358.298 98.1 358.198 97.4 358.198 96.6C358.098 94.9 357.998 93.2 357.898 91.4C357.498 84 357.398 78 357.698 78C357.998 78 358.598 84 358.998 91.4C359.098 93.2 359.198 95 359.198 96.6C359.198 97.4 359.398 98.3 358.798 99.1C358.498 99.5 357.898 99.7 357.498 99.7C357.098 99.7 356.698 99.6 356.398 99.5C353.898 98.8 352.398 98.4 352.398 98.2Z" fill="black"/>
<path d="M342.703 71.2983C343.003 70.6983 345.202 71.2983 347.802 71.3983C350.402 71.4983 352.602 70.9983 352.902 71.5983C353.002 71.8983 352.602 72.4983 351.602 72.9983C350.702 73.4983 349.303 73.8983 347.703 73.8983C346.103 73.8983 344.802 73.3983 343.902 72.7983C343.002 72.1983 342.603 71.5983 342.703 71.2983Z" fill="black"/>
<path d="M368.297 75.5998C368.997 75.2998 370.197 76.6998 371.897 77.7998C373.597 78.8998 375.397 79.3998 375.397 80.0998C375.397 80.3998 374.897 80.7998 373.897 80.8998C372.997 80.9998 371.697 80.6998 370.497 79.9998C369.297 79.1998 368.497 78.1998 368.197 77.2998C367.897 76.3998 367.997 75.6998 368.297 75.5998Z" fill="black"/>
<path d="M321.596 79.7C321.196 78.1 319.996 76.8001 318.296 76.4001C315.296 75.8001 311.596 76.4001 309.896 82.4001C307.396 91.4001 314.996 93.4 317.596 93.7" fill="white"/>
<path d="M317.5 94.4994C316.7 94.3994 312.3 93.8994 310 90.4994C308.5 88.2994 308.2 85.5995 309.2 82.2995C311.2 75.1995 315.9 75.1994 318.6 75.6994C320.5 76.0994 322 77.5994 322.5 79.5994L320.9 79.9994C320.6 78.5994 319.5 77.5995 318.2 77.2995C314.5 76.4995 312 78.2995 310.7 82.7995C309.9 85.5995 310.1 87.9994 311.3 89.6994C313.3 92.5994 317.2 92.9994 317.7 92.9994L317.5 94.4994Z" fill="black"/>
<path d="M317.202 88.9984C317.202 88.9984 317.002 89.0984 316.602 89.0984C316.302 89.1984 315.702 89.0984 315.202 88.6984C314.202 87.9984 313.702 85.8984 314.202 83.9984C314.402 82.9984 314.902 82.0984 315.502 81.4984C316.002 80.7984 316.702 80.3984 317.302 80.4984C317.902 80.4984 318.202 80.9984 318.302 81.2984C318.402 81.5984 318.202 81.7984 318.302 81.8984C318.302 81.8984 318.602 81.7984 318.602 81.2984C318.602 81.0984 318.602 80.7984 318.402 80.4984C318.202 80.1984 317.902 79.9984 317.402 79.8984C316.602 79.6984 315.602 80.2984 315.002 80.9984C314.302 81.6984 313.802 82.6984 313.502 83.7984C313.002 85.9984 313.502 88.2984 314.902 89.1984C315.602 89.5984 316.302 89.5984 316.702 89.3984C317.102 89.2984 317.202 89.0984 317.202 88.9984Z" fill="black"/>
<path d="M351.297 38.1C350.897 39.2 347.497 35.5 345.197 35.3C341.997 35 338.797 36.4 336.797 38.8C334.397 37.3 331.197 37.4 328.897 39C326.597 40.6 325.397 43.6 325.897 46.4C323.597 46.9 321.397 48.3 320.697 50.4C319.997 52.5 321.197 55.1 323.297 55.5C321.297 60.5 319.697 66.5 318.597 71.9C317.297 78.2 320.897 80.6 320.597 82.1C317.997 95.1 324.897 89.9 334.597 65.3C335.597 65.2 336.497 64.7 336.897 63.8C337.297 63.1 337.397 62.2 337.997 61.8C338.797 61.3 339.797 61.9 340.697 62.2C343.697 63.5 347.497 62.3 349.297 59.6C349.697 61 351.597 61.6 352.997 61.2C354.397 60.8 355.597 59.8 356.897 59C358.197 58.2 359.797 57.7 361.097 58.3C361.797 58.7 362.397 59.4 363.197 59.5C364.597 59.8 365.797 58.4 366.497 57.1C366.997 56 367.597 54.7 368.597 54.1C369.497 54 370.497 53.9 371.497 54.2C371.997 54.4 372.597 54.7 373.097 55C373.297 55.1 373.597 55.2 373.797 55.3C374.097 55.5 374.397 55.7 374.597 56C378.597 59.8 379.797 71.1 379.797 71.1" fill="white"/>
<path d="M321 89.7997C320.9 89.7997 320.7 89.7997 320.6 89.6997C319.1 89.1997 318.8 86.7997 319.8 81.8997C319.8 81.6997 319.5 81.0997 319.2 80.5997C318.3 78.9997 316.8 76.1997 317.8 71.6997C318.7 67.3997 320.2 61.1997 322.3 55.8997C321.6 55.4997 320.9 54.9997 320.5 54.1997C319.8 52.8997 319.6 51.3997 320 50.0997C320.8 47.6997 323 46.2997 325.1 45.6997C324.8 42.8997 326.2 39.8997 328.5 38.2997C330.9 36.6997 334.1 36.4997 336.7 37.7997C338.9 35.4997 342.2 34.1997 345.4 34.4997C346.8 34.5997 348.2 35.5997 349.5 36.4997C350.1 36.8997 350.9 37.4997 351.1 37.4997C351 37.4997 350.7 37.5997 350.6 37.7997L352.1 38.2997C352 38.5997 351.7 38.8997 351.4 38.9997C350.6 39.1997 349.8 38.6997 348.5 37.7997C347.4 36.9997 346.1 36.0997 345.1 35.9997C342.2 35.7997 339.2 36.9997 337.3 39.2997L336.9 39.7997L336.3 39.3997C334.2 38.0997 331.3 38.0997 329.3 39.4997C327.3 40.8997 326.2 43.5997 326.7 45.9997L326.9 46.7997L326.1 46.9997C324.3 47.3997 322.1 48.4997 321.5 50.4997C321.2 51.3997 321.3 52.3997 321.8 53.2997C322.2 53.9997 322.8 54.4997 323.5 54.5997L324.5 54.7997L324.1 55.6997C322 61.0997 320.4 67.4997 319.4 71.9997C318.6 75.8997 319.8 78.0997 320.7 79.7997C321.2 80.6997 321.6 81.3997 321.4 82.1997C320.4 87.3997 321.1 88.1997 321.1 88.1997C322.2 88.1997 326.9 82.3997 333.8 64.9997L334 64.5997L334.5 64.4997C335 64.3997 335.8 64.1997 336.2 63.3997C336.3 63.1997 336.4 62.9997 336.4 62.7997C336.6 62.1997 336.9 61.4997 337.6 61.0997C338.7 60.3997 339.9 60.9997 340.7 61.3997L341 61.4997C343.6 62.6997 347 61.5997 348.6 59.1997L349.5 57.6997L350 59.3997C350.3 60.2997 351.7 60.6997 352.7 60.3997C353.6 60.1997 354.4 59.5997 355.3 58.9997C355.7 58.7997 356 58.4997 356.4 58.2997C358.2 57.1997 360 56.8997 361.4 57.5997C361.8 57.7997 362.1 57.9997 362.4 58.1997C362.8 58.4997 363.1 58.6997 363.4 58.7997C364.3 58.9997 365.3 57.8997 365.8 56.7997L365.9 56.5997C366.5 55.4997 367.1 54.1997 368.2 53.4997L368.3 53.3997H368.5C369.7 53.1997 370.7 53.2997 371.6 53.4997H371.7C372.1 53.6997 372.4 53.7997 372.8 53.9997C373 54.0997 373.2 54.1997 373.3 54.2997C373.5 54.3997 373.7 54.4997 373.9 54.4997L374.1 54.5997C374.4 54.7997 374.7 55.0997 375 55.3997C379.1 59.2997 380.4 70.4997 380.4 70.9997L378.8 71.1997C378.8 71.0997 377.6 60.0997 373.9 56.5997C373.7 56.3997 373.5 56.1997 373.2 56.0997C372.9 55.9997 372.7 55.8997 372.5 55.7997C372.3 55.6997 372.1 55.5997 371.9 55.4997C371.6 55.2997 371.3 55.1997 371 55.0997C370.3 54.9997 369.6 54.8997 368.7 55.0997C368 55.5997 367.6 56.4997 367.1 57.3997L367 57.5997C366 59.6997 364.4 60.7997 362.8 60.3997C362.2 60.2997 361.7 59.8997 361.2 59.5997C360.9 59.3997 360.7 59.1997 360.5 59.0997C359.3 58.4997 357.8 59.2997 357 59.6997C356.7 59.8997 356.3 60.0997 356 60.3997C355.1 60.9997 354.1 61.6997 352.9 61.9997C351.5 62.3997 349.9 61.9997 348.9 61.0997C346.7 63.4997 343 64.2997 340.1 62.9997L339.8 62.8997C339.2 62.5997 338.5 62.2997 338.2 62.4997C338 62.5997 337.8 62.9997 337.7 63.3997C337.6 63.6997 337.5 63.8997 337.4 64.1997C336.9 65.0997 336.1 65.7997 335 65.9997C332.6 72.1997 325.2 89.7997 321 89.7997Z" fill="black"/>
<path d="M359.402 71.0006C359.502 70.9006 359.802 71.1006 359.902 71.4006C360.102 71.7006 360.102 72.3006 359.902 72.8006C359.702 73.3006 359.302 73.7006 358.902 73.8006C358.502 73.9006 358.302 73.9006 358.302 73.7006C358.202 73.4006 358.702 73.0006 358.902 72.3006C359.202 71.8006 359.202 71.2006 359.402 71.0006Z" fill="black"/>
<path d="M361.696 76.5997C361.596 76.6997 361.296 76.4997 360.996 76.0997C360.696 75.6997 360.496 74.9997 360.596 74.2997C360.696 73.5997 360.996 72.8997 361.296 72.5997C361.596 72.1997 361.896 72.1997 361.996 72.2997C362.196 72.4997 361.696 73.2997 361.596 74.3997C361.596 75.5997 361.896 76.3997 361.696 76.5997Z" fill="black"/>
<path d="M386.803 112.201L389.603 94.7012L383.803 81.2012L378.103 82.6012L375.303 91.9012L369.403 115.801C369.103 117.201 369.403 118.601 370.203 119.701L371.403 121.301L374.203 143.601L395.003 134.101L386.803 112.201Z" fill="white"/>
<path d="M373.501 144.901L370.601 121.701L369.501 120.301C368.501 119.001 368.201 117.301 368.601 115.701L374.501 91.8008L377.501 82.0008L384.301 80.3008L390.501 94.7008L387.701 112.201L395.901 134.701L373.501 144.901ZM378.701 83.3008L376.001 92.2008L370.101 116.001C369.801 117.101 370.101 118.301 370.801 119.301L372.101 121.101L374.801 142.501L393.901 133.801L386.001 112.301L388.801 94.9008L383.401 82.2008L378.701 83.3008Z" fill="black"/>
<path d="M382.8 93.9008L380.8 87.9008L376.9 85.9008C376.9 85.9008 372.1 86.2008 371 83.0008C371 83.0008 366.9 81.9008 368 77.7008L373.2 77.9008C373.2 77.9008 368.5 75.4008 371.4 72.0008L376 73.6008L375.6 71.7008C375.2 70.5008 375.5 69.1008 376.5 68.3008L381.6 76.3008C381.6 76.3008 384 78.2008 385 80.5008C385.1 80.7008 385.2 80.9008 385.2 81.1008C386 83.6008 389.7 94.7008 389.7 94.7008" fill="white"/>
<path d="M389.599 94.7012C389.599 94.7012 389.399 94.2012 388.999 93.3012C388.599 92.3012 388.199 91.0012 387.599 89.4012C386.999 87.7012 386.299 85.6012 385.499 83.3012C385.099 82.1012 384.799 80.8012 383.999 79.7012C383.299 78.6012 382.299 77.5012 381.099 76.5012C379.999 74.8012 378.899 73.0012 377.699 71.1012C377.399 70.6012 377.098 70.2012 376.798 69.7012L376.298 69.0012L376.099 68.6012L375.999 68.5012C376.199 68.5012 375.499 68.4012 376.499 68.6012L376.399 68.7012C375.699 69.4012 375.399 70.6012 375.699 71.6012C375.799 72.2012 375.999 72.9012 376.099 73.5012L376.199 74.1012L375.599 73.9012C374.699 73.6012 373.699 73.2012 372.699 72.9012C372.099 72.7012 371.599 72.5012 370.999 72.3012L371.399 72.2012C370.599 73.1012 370.298 74.3012 370.798 75.3012C371.298 76.3012 372.199 77.1012 373.099 77.7012L374.199 78.4012L372.899 78.3012C371.099 78.2012 369.399 78.2012 367.699 78.1012L367.999 77.9012C367.699 79.0012 367.799 80.2012 368.399 81.0012C368.999 81.9012 369.898 82.5012 370.798 82.8012H370.899V82.9012C371.299 84.1012 372.298 84.8012 373.298 85.2012C374.398 85.6012 375.499 85.7012 376.499 85.7012H376.599H376.699C378.199 86.5012 379.499 87.2012 380.599 87.8012H380.699V87.9012C381.299 89.8012 381.699 91.2012 382.099 92.4012C382.399 93.4012 382.599 94.0012 382.499 94.0012C382.499 94.0012 382.299 93.5012 381.899 92.5012C381.499 91.4012 380.998 89.9012 380.298 88.1012L380.399 88.2012C379.199 87.6012 377.899 87.0012 376.399 86.2012H376.499C375.399 86.2012 374.299 86.1012 373.099 85.8012C371.999 85.4012 370.798 84.6012 370.298 83.2012L370.499 83.4012C369.399 83.1012 368.399 82.4012 367.699 81.4012C366.999 80.4012 366.899 79.0012 367.199 77.8012L367.298 77.6012H367.599C369.299 77.7012 370.998 77.7012 372.798 77.8012L372.599 78.4012C371.499 77.8012 370.599 77.0012 369.999 75.7012C369.699 75.1012 369.598 74.4012 369.798 73.7012C369.898 73.0012 370.299 72.4012 370.699 71.9012L370.798 71.7012L370.999 71.8012C371.499 72.0012 372.099 72.2012 372.699 72.4012C373.699 72.8012 374.699 73.1012 375.599 73.5012L375.199 73.9012C375.099 73.2012 374.898 72.6012 374.798 72.0012C374.398 70.8012 374.699 69.3012 375.599 68.4012L375.798 68.2012C376.798 68.3012 376.098 68.2012 376.298 68.3012L376.399 68.4012L376.599 68.8012L377.099 69.5012C377.399 70.0012 377.699 70.5012 377.999 70.9012C379.199 72.8012 380.299 74.6012 381.399 76.3012L381.298 76.2012C382.498 77.2012 383.499 78.3012 384.199 79.5012C384.599 80.1012 384.899 80.8012 385.099 81.4012C385.299 82.0012 385.499 82.6012 385.699 83.2012C386.499 85.5012 387.099 87.6012 387.699 89.4012C388.199 91.1012 388.599 92.4012 388.899 93.4012C389.499 94.2012 389.699 94.7012 389.599 94.7012Z" fill="black"/>
<path d="M382.2 92.9004C382.2 92.9004 382 92.5004 381.7 91.6004C381.4 90.6004 381 89.4004 380.6 88.0004L380.7 88.1004C379.5 87.5004 378.2 86.9004 376.7 86.1004H376.8C375.7 86.2004 374.5 86.1004 373.3 85.7004C372.1 85.3004 371 84.4004 370.5 83.0004V82.9004L370.6 82.8004C370.9 82.3004 371.2 81.7004 371.5 81.1004L371.6 80.9004H371.8C372.2 80.9004 372.7 81.0004 373.1 81.0004C376.1 81.2004 378.9 81.4004 381.4 81.6004H381.5L381.6 81.7004C383 82.8004 384.4 83.8004 385.6 84.7004H385.7V84.8004C386.4 86.6004 387 88.1004 387.4 89.3004C387.8 90.4004 388 91.0004 388 91.0004C388 91.0004 387.7 90.5004 387.2 89.4004C386.7 88.2004 386 86.8004 385.2 85.0004L385.3 85.1004C384.1 84.2004 382.7 83.3004 381.3 82.2004L381.5 82.3004C379 82.1004 376.1 81.9004 373.1 81.7004C372.6 81.7004 372.2 81.6004 371.8 81.6004L372.1 81.4004C371.8 82.0004 371.5 82.6004 371.2 83.1004V82.9004C371.5 84.0004 372.5 84.8004 373.6 85.2004C374.7 85.6004 375.8 85.6004 376.8 85.6004H376.9H377C378.4 86.4004 379.8 87.1004 380.9 87.7004H381V87.8004C381.4 89.3004 381.6 90.5004 381.9 91.5004C382.1 92.4004 382.2 92.9004 382.2 92.9004Z" fill="black"/>
<path d="M382.497 80.0009C382.397 80.2009 380.197 79.4009 377.397 78.8009C374.597 78.2009 372.297 78.1009 372.297 77.9009C372.297 77.7009 374.697 77.6009 377.497 78.2009C380.397 78.8009 382.597 79.9009 382.497 80.0009Z" fill="black"/>
<path d="M381.095 94.3008C381.295 94.3008 380.995 96.9008 382.195 100.501L382.295 100.701L382.095 100.801C380.795 101.801 379.395 103.201 378.095 104.801C376.095 107.401 374.995 110.301 374.495 112.401C373.995 114.501 373.895 115.901 373.795 115.901C373.795 115.901 373.695 115.601 373.695 114.901C373.695 114.301 373.795 113.401 373.995 112.301C374.395 110.101 375.495 107.201 377.495 104.401C378.795 102.701 380.295 101.301 381.695 100.301L381.595 100.601C381.095 98.7008 380.895 97.1008 380.895 96.0008C380.895 95.0008 380.995 94.3008 381.095 94.3008Z" fill="black"/>
<path d="M382.398 77.1012C382.298 77.3012 379.898 76.1012 376.898 74.8012C373.898 73.5012 371.398 72.5012 371.398 72.3012C371.498 72.1012 374.098 72.8012 377.098 74.2012C380.198 75.5012 382.498 76.9012 382.398 77.1012Z" fill="black"/>
<path d="M384.397 202.901L368.297 146.201L398.397 133.301L421.497 190.301L384.397 202.901Z" fill="url(#colorOne)"/>
<path d="M383.598 203.101L367.398 145.701L398.798 132.301L424.398 195.501L422.898 196.101L397.998 134.301L369.198 146.601L385.098 202.701L383.598 203.101Z" fill="black"/>
<script type="text/ecmascript" xlink:href="https://www.argentina.gob.ar/profiles/argentinagobar/themes/contrib/poncho/js/w3c/ref2.js"></script></svg>
