<svg width="640" height="360" viewBox="0 0 640 360" fill="none" 
xmlns="http://www.w3.org/2000/svg" 
xmlns:xlink="http://www.w3.org/1999/xlink">
<defs>
<ref id="colorOne" param="c1" default="#242C4F" />
<ref id="colorTwo" param="c2" default="#9296A7"/>
</defs>
<path d="M288.997 69.4004L109.797 304.2H527.297L359.397 70.1004" fill="url(#colorTwo)"/>
<path d="M390.8 236.301L404.5 299.301H350L359.9 236.401L390.8 236.301Z" fill="white"/>
<path d="M405 299.7H349.5L359.6 236L391.1 235.9L391.2 236.2L405 299.7ZM350.4 298.9H404L390.5 236.7L360.3 236.8L350.4 298.9Z" fill="black"/>
<path d="M355.302 190.101C355.202 186.801 355.502 177.701 355.502 177.701C347.202 172.801 327.802 158.301 319.602 153.301L319.802 185.301C324.002 190.901 330.902 197.501 338.302 202.101C341.102 203.801 344.702 203.201 346.802 200.601L355.302 190.101Z" fill="white"/>
<path d="M341.602 203.4C340.402 203.4 339.102 203.1 338.002 202.4C330.002 197.5 323.202 190.5 319.402 185.5L319.302 185.4L319.102 152.5L319.702 152.9C323.702 155.3 330.102 159.8 336.902 164.6C344.002 169.6 351.302 174.7 355.602 177.3L355.802 177.4V177.6C355.802 177.7 355.502 186.7 355.602 190V190.1L346.902 200.7C345.702 202.6 343.702 203.4 341.602 203.4ZM320.202 185.2C323.902 190.1 330.602 196.9 338.502 201.8C341.102 203.4 344.502 202.8 346.502 200.4L355.002 190C354.902 186.9 355.102 179.3 355.202 177.9C350.902 175.3 343.602 170.2 336.602 165.3C330.102 160.8 324.002 156.4 320.002 154L320.202 185.2Z" fill="black"/>
<path d="M346.902 182.7C346.602 182.7 346.202 182.7 345.902 182.6C341.402 182.1 332.102 174.7 325.902 166.9C322.302 162.3 320.502 158.4 320.802 155.9V155.6L318.102 154.8H318.002C317.302 154.8 313.902 154.7 312.002 152.3C310.702 150.8 310.302 148.7 310.802 146.1C311.502 142.3 313.302 140.4 316.302 140.4C316.602 140.4 316.802 140.4 317.102 140.4C318.002 140.5 318.802 140.9 319.402 141.7L320.002 142.4L321.302 131.4C322.202 124.3 328.202 119 335.302 119C335.902 119 336.502 119 337.002 119.1L358.802 121.7C362.502 122.2 365.902 124 368.202 127C370.502 130 371.602 133.7 371.102 137.4V137.5V137.6C372.702 147.6 371.002 158.9 366.302 168.4C365.802 169.5 365.102 170.6 364.202 171.5C361.402 174.9 353.802 182.7 346.902 182.7Z" fill="white"/>
<path d="M335.301 119.4C335.901 119.4 336.401 119.4 337.001 119.5L358.801 122.1C362.401 122.5 365.701 124.4 368.001 127.3C370.301 130.2 371.301 133.8 370.801 137.4V137.5V137.6C373.101 151.7 368.301 163.7 366.101 168.2C365.601 169.3 364.901 170.3 364.101 171.2C362.501 173 359.901 175.7 356.801 178C353.101 180.8 349.701 182.2 346.901 182.2C346.601 182.2 346.301 182.2 346.001 182.1C343.901 181.9 340.501 180 336.701 177C332.901 174 329.101 170.2 326.301 166.6C322.701 162.1 320.901 158.3 321.201 155.9L321.301 155.2L320.601 155L318.201 154.3H318.101H318.001C316.301 154.3 313.701 153.7 312.301 152C311.101 150.6 310.801 148.6 311.201 146.1C311.801 142.5 313.601 140.7 316.401 140.7C316.701 140.7 316.901 140.7 317.201 140.7C318.001 140.8 318.701 141.2 319.201 141.8L320.401 143.3L320.601 141.4L321.801 131.3C322.501 124.6 328.401 119.4 335.301 119.4ZM335.301 118.6C328.101 118.6 321.801 124 320.901 131.4L319.701 141.5C319.101 140.7 318.201 140.2 317.201 140.1C316.901 140.1 316.601 140.1 316.301 140.1C313.801 140.1 311.201 141.3 310.401 146.2C309.001 154.2 315.701 155.3 318.001 155.3L320.401 156C319.401 164 338.401 182.3 345.901 183.2C346.201 183.2 346.601 183.3 346.901 183.3C353.901 183.3 361.701 175.4 364.701 172C365.601 171 366.301 170 366.901 168.8C370.901 160.6 373.601 149.2 371.701 137.7C372.701 129.7 367.001 122.5 359.001 121.5L337.201 118.9C336.501 118.6 335.901 118.6 335.301 118.6Z" fill="black"/>
<path d="M316.9 150.8C316.9 150.8 316.7 150.9 316.4 151C316.1 151.1 315.6 151.1 315.1 150.8C314.1 150.3 313.6 148.5 313.8 146.7C313.9 145.8 314.3 145 314.7 144.4C315.1 143.7 315.7 143.3 316.2 143.3C316.7 143.3 317 143.6 317.1 143.9C317.2 144.2 317.1 144.4 317.1 144.4C317.1 144.4 317.3 144.3 317.3 143.9C317.3 143.7 317.2 143.5 317 143.2C316.8 143 316.5 142.8 316.1 142.8C315.3 142.7 314.6 143.3 314.1 144C313.6 144.7 313.2 145.6 313.1 146.6C312.8 148.6 313.5 150.5 314.8 151.2C315.4 151.5 316 151.4 316.4 151.2C316.9 151 317 150.8 316.9 150.8Z" fill="black"/>
<path d="M371.8 143C371.4 143.5 368.8 142.6 365.5 142.2C362.3 141.7 359.6 141.9 359.2 141.3C359.1 141 359.6 140.6 360.8 140.3C361.9 140 363.7 139.8 365.6 140.1C367.5 140.4 369.2 141 370.3 141.6C371.5 142.2 372 142.7 371.8 143Z" fill="black"/>
<path d="M348.404 139.999C348.104 140.499 345.404 139.899 342.104 139.699C338.804 139.499 336.204 139.799 335.804 139.299C335.604 138.999 336.204 138.599 337.304 138.199C338.404 137.799 340.104 137.499 342.104 137.599C344.104 137.699 345.804 138.199 346.904 138.699C348.004 139.199 348.504 139.699 348.404 139.999Z" fill="black"/>
<path d="M354.6 151.6C356.1 152.7 357.4 154.6 356.9 156.6C356.2 159 353.9 158.9 352 158.3C353.3 158.2 354.8 158.4 355.7 157.4C357.2 155.7 355.7 153.2 354.6 151.6Z" fill="black"/>
<path d="M343.505 104C349.105 103.3 357.605 105.2 362.505 107.7C365.905 109.4 378.505 124 380.505 126.2C380.505 126.2 380.505 126.2 380.405 126.2C380.505 126.2 380.505 126.3 380.605 126.3C382.205 128.1 383.205 135.8 382.105 137.8C380.905 139.5 376.205 146.3 375.805 146.8L371.105 154.4C371.405 150.3 371.705 143.9 371.605 139.5C364.905 138.4 360.505 134.7 356.505 129.5C354.405 126.8 352.905 123.5 349.905 121.6C346.005 119.2 336.705 120.7 336.705 120.7C336.105 120.9 335.605 121.1 335.005 121.3L332.505 140.8L322.805 150.5C322.005 151.6 322.305 145 319.105 141.6C318.105 140.5 316.105 140.4 313.405 141.4C313.205 139.8 312.405 128.8 314.205 122.7C318.805 107.1 337.905 104.7 343.505 104Z" fill="black"/>
<path d="M370.802 186.201C370.802 186.201 379.702 188.401 384.502 202.101C388.902 214.401 393.002 242.801 393.002 242.801L361.102 256.801L349.602 234.401L370.802 186.201Z" fill="url(#colorOne)"/>
<path d="M376.205 303.2C376.305 287.3 378.405 245.3 378.405 245.3L376.805 214.7L371.805 186.5L355.905 182.8C355.905 182.8 355.305 197.4 342.705 197.6C328.405 197.9 319.405 176.9 319.405 176.9L295.605 181.7C295.605 181.7 286.505 190.4 283.005 197.5C279.505 204.6 278.305 303.7 278.305 303.7L376.205 303.2Z" fill="url(#colorOne)"/>
<path d="M376 289.301C375.7 277.701 376.4 265.401 377.3 253.801C377.9 244.601 378.9 229.601 379.7 220.601L379.8 219.501L379.9 218.901C379.9 218.701 379.9 218.501 380 218.301L380.1 218.401C380 219.001 380 220.001 379.9 220.601C379.3 233.301 378.6 250.101 378.2 262.801C378 268.501 377.6 274.801 377.1 280.501C376.8 283.501 376.6 286.401 376.2 289.301H376Z" fill="black"/>
<path d="M383.397 299.302C381.497 297.602 379.797 295.402 378.197 293.402C376.597 291.302 375.097 289.202 373.797 286.902C377.497 290.602 380.597 294.902 383.397 299.302Z" fill="black"/>
<path d="M274.898 244.302C275.098 260.102 276.898 299.702 286.798 301.102C295.498 302.302 329.598 302.702 347.698 298.602L351.598 297.902C351.598 297.902 358.898 298.602 362.398 296.602C367.398 293.802 368.498 291.402 368.498 291.402C368.498 291.402 379.098 301.402 381.398 300.802C383.698 300.202 383.298 299.202 383.298 299.202L382.398 298.102L374.098 287.002L378.898 288.302C378.898 288.302 385.398 299.302 388.298 299.802C391.298 300.302 392.398 298.702 392.398 298.702L387.898 290.202L394.898 296.802C395.698 297.502 396.998 297.102 397.098 296.002C397.198 295.402 397.098 294.802 396.898 294.202L395.698 291.302C395.698 291.302 396.598 292.002 396.498 290.202C396.398 288.402 396.298 286.602 396.298 286.602C396.098 283.002 394.198 281.302 394.198 281.302C394.198 281.302 388.398 274.302 385.698 273.502C382.998 272.702 348.798 284.102 348.798 284.102L347.098 284.002C330.398 281.002 306.098 276.002 304.698 274.802L309.598 223.102" fill="white"/>
<path d="M275.4 244.302C275.7 257.302 276.4 270.302 278.6 283.102C279.5 287.802 281.4 297.802 285.8 300.202C286.9 300.702 288.2 300.602 289.4 300.802C292 301.002 294.6 301.102 297.2 301.202C313.4 301.502 329.8 301.302 345.7 298.402C346.9 298.102 350.2 297.602 351.5 297.402C353.1 297.502 354.7 297.602 356.4 297.502C358.3 297.402 360.3 297.202 362 296.302C363.7 295.402 365.3 294.302 366.7 292.902C367.2 292.402 367.7 291.802 368.1 291.202L368.5 290.502C370.9 292.802 373.5 295.102 376.1 297.202C377.3 298.202 378.6 299.102 379.9 299.802C380.4 300.002 380.8 300.302 381.3 300.302H381.4C381.4 300.302 381.4 300.302 381.5 300.302C382 300.202 382.6 300.002 382.9 299.602V299.502L383 299.602C382.2 298.602 381.4 297.602 380.7 296.602C378.8 294.102 375 288.902 373.1 286.402C374.1 286.702 378.3 287.802 379.3 288.102C381.4 291.602 383.6 295.202 386.4 298.202C386.9 298.702 387.5 299.302 388.2 299.602C389.3 299.902 390.5 299.902 391.5 299.402C391.8 299.202 392.1 299.002 392.4 298.702V299.002C391.9 298.102 387.5 289.802 387.2 289.102C388.5 290.302 394 295.702 395.4 296.902C395.9 297.302 396.7 297.002 397 296.502C397.3 295.902 397.2 295.102 396.9 294.502C396.7 293.902 395.9 292.102 395.6 291.502L395.3 290.802L395.9 291.202C396 291.302 396.2 291.402 396.3 291.302C396.5 291.002 396.5 290.502 396.4 290.102V289.402C396.3 288.502 396.3 287.502 396.2 286.602C396 284.802 395.3 283.002 394.1 281.802C392.7 280.202 391.3 278.702 389.8 277.202C389.1 276.502 388.3 275.802 387.5 275.202C386.9 274.802 386.3 274.302 385.7 274.202C384.5 274.202 383.2 274.502 382 274.802C381 275.002 380 275.302 379 275.602C368.9 278.302 359 281.602 349 284.802H348.9H347.2C336.5 283.002 325.8 280.802 315.2 278.502C311.8 277.702 308.3 277.002 304.9 275.702C304.8 275.702 304.7 275.602 304.6 275.502L304.5 275.402L304.3 275.302V275.002L308.5 223.302C308.7 221.802 310.9 221.902 310.8 223.502L305.3 275.102L305.1 274.702C305.4 274.902 305.8 275.002 306.2 275.102C309.2 276.002 312.3 276.702 315.4 277.402C325 279.602 337.7 282.002 347.2 283.802L348.9 283.902H348.7C356.6 281.302 364.6 278.702 372.6 276.402C376.7 275.302 380.6 274.002 384.8 273.302C385.1 273.302 385.3 273.202 385.7 273.302C386.1 273.402 386.3 273.502 386.6 273.602C388 274.402 389.2 275.502 390.4 276.602C391.9 278.002 393.5 279.902 394.6 281.202C396 282.702 396.6 284.702 396.6 286.702C396.6 287.902 396.6 289.102 396.7 290.202C396.7 290.702 396.8 291.202 396.5 291.702C396.3 292.002 395.9 291.902 395.6 291.702L395.9 291.502L396.8 293.502L397.2 294.502C397.4 295.002 397.5 295.602 397.4 296.202C397.2 297.702 395.5 298.102 394.6 297.002L394.2 296.602L387.8 290.602L388.2 290.302L392.8 298.802L392.9 299.002C392.3 299.802 391.4 300.202 390.5 300.402C389.6 300.502 388.7 300.602 387.9 300.302C387.1 299.902 386.5 299.402 385.8 298.802C384.1 297.002 382.6 295.002 381.2 293.002C380.3 291.602 379.4 290.302 378.5 288.902L378.8 289.102L374 287.902L374.5 287.202C377.2 290.702 381.1 296.002 383.8 299.502C384.2 300.802 382.6 301.502 381.6 301.702C380.8 301.902 380 301.402 379.3 301.102C377.9 300.302 376.6 299.402 375.3 298.402C372.8 296.402 370.5 294.402 368.1 292.202L369 292.002C368.8 292.402 368.5 292.702 368.2 293.102C366.6 295.002 364.5 296.402 362.4 297.602C360.5 298.502 358.4 298.802 356.4 298.902C354.8 299.002 353.2 299.002 351.5 298.802H351.7L347.9 299.402C344.1 300.202 340.1 300.802 336.3 301.302C323.3 302.702 310.2 303.002 297.2 302.602C294.6 302.502 292 302.402 289.4 302.202C288 302.002 286.6 302.102 285.4 301.502C280.5 298.902 278.6 288.702 277.6 283.602C275.4 270.702 274.7 257.602 274.5 244.602C274.5 244.302 274.7 244.102 275 244.102C275.2 243.802 275.4 244.002 275.4 244.302Z" fill="black"/>
<path d="M377.203 283.101C379.603 283.101 382.303 283.001 384.603 284.301C385.003 284.601 385.503 285.001 385.803 285.501C386.303 286.401 386.703 287.201 387.203 288.101L388.603 290.701C390.003 293.301 391.303 295.901 392.503 298.601C390.303 295.401 388.303 291.901 386.403 288.501C385.903 287.601 385.503 286.801 385.003 285.901C383.803 283.801 379.403 283.501 377.203 283.101Z" fill="black"/>
<path d="M377.906 278.502C380.706 278.502 383.506 278.902 386.206 279.702C386.306 279.702 386.506 279.802 386.606 279.902C387.506 280.402 388.106 281.202 388.806 281.902C391.406 284.802 393.706 287.902 395.706 291.302C392.806 288.102 390.106 284.602 387.206 281.502C386.806 281.102 386.406 280.702 385.906 280.502C383.306 279.602 380.606 279.002 377.906 278.502Z" fill="black"/>
<path d="M308.603 185.501C302.903 181.201 293.903 183.201 289.203 185.301C284.503 187.501 275.303 197.601 273.903 215.901C272.503 234.201 272.603 248.501 272.603 248.501L313.003 248.101C313.403 234.901 313.703 207.101 313.703 207.101C313.703 207.101 314.703 190.301 308.603 185.501Z" fill="url(#colorOne)"/>
<path d="M328.703 303.902H393.003V290.002H328.703C326.803 290.002 325.403 291.502 325.403 293.302V300.502C325.303 302.402 326.803 303.902 328.703 303.902Z" fill="black"/>
<path d="M385.703 303.901H461.003C463.903 303.901 466.503 302.001 467.303 299.301L485.703 236.801C486.903 232.701 483.803 228.701 479.403 228.701H408.303C405.203 228.701 402.603 230.801 401.903 233.601L385.703 303.901Z" fill="black"/>
<path d="M443.903 257.3C445.947 257.3 447.603 255.644 447.603 253.6C447.603 251.557 445.947 249.9 443.903 249.9C441.86 249.9 440.203 251.557 440.203 253.6C440.203 255.644 441.86 257.3 443.903 257.3Z" fill="white"/>
<path d="M313.703 216.201C313.903 216.201 313.903 223.201 313.603 231.901C313.403 240.601 313.003 247.601 312.803 247.601C312.603 247.601 312.603 240.601 312.903 231.901C313.203 223.301 313.503 216.201 313.703 216.201Z" fill="black"/>
<path d="M312.9 247.7C299.8 248.2 285.5 248.5 272.3 248.8H271.5C272.1 236.1 272.6 223.3 274.2 210.7C275.1 204.4 276 198 279.4 192.4C281.4 189.1 284.5 186.8 287.8 184.9C291.9 182.4 296.2 180.3 300.8 179.1C302.9 178.6 304.9 178.2 307 177.9C311.1 177.3 315.1 176.6 319.2 175.7L320.1 175.5L320.3 176.4C321.3 180.8 323.3 184.9 326.3 188.3C331.3 194 339.8 198.1 347.4 196.4C352.6 195.1 354.9 189.4 355.7 184.6C355.8 184 355.9 183.5 356 182.9C355.9 183.5 355.9 184.1 355.8 184.6C355.4 188.6 354.1 192.9 350.8 195.5C347 198.5 341.5 198 337.1 196.8C327.7 194.1 320.9 186.2 318.6 176.9L319.7 177.6C315.7 178.6 311.5 179.3 307.4 180C305.4 180.3 303.3 180.7 301.4 181.2C297.5 182.2 293.8 183.9 290.3 186C288.6 187 286.7 188.1 285.2 189.3C278.6 194.4 277.5 203.2 276.3 211C274.7 223.3 274 235.7 273.1 248.1L272.3 247.3C285.4 247.3 299.7 247.4 312.9 247.7Z" fill="black"/>
<g opacity="0.44">
<path d="M344.503 228.201C337.603 228.201 330.603 227.901 323.803 227.201C322.903 227.101 322.203 226.301 322.203 225.301C322.303 224.401 323.103 223.701 324.103 223.701C332.103 224.401 340.103 224.801 348.103 224.601C355.303 224.501 362.603 224.001 369.803 223.201C370.703 223.101 371.603 223.801 371.703 224.701C371.803 225.601 371.103 226.501 370.203 226.601C362.903 227.501 355.503 227.901 348.203 228.101C346.903 228.201 345.703 228.201 344.503 228.201Z" fill="url(#colorTwo)"/>
</g>
<g opacity="0.44">
<path d="M344.503 237.701C337.603 237.701 330.603 237.401 323.803 236.701C322.903 236.601 322.203 235.801 322.203 234.801C322.303 233.901 323.103 233.201 324.103 233.201C332.103 233.901 340.103 234.301 348.103 234.101C355.303 234.001 362.603 233.501 369.803 232.701C370.703 232.601 371.603 233.301 371.703 234.201C371.803 235.101 371.103 236.001 370.203 236.101C362.903 237.001 355.503 237.401 348.203 237.601C346.903 237.701 345.703 237.701 344.503 237.701Z" fill="url(#colorTwo)"/>
</g>
<g opacity="0.44">
<path d="M344.503 247C337.603 247 330.603 246.7 323.803 246C322.903 245.9 322.203 245.1 322.203 244.1C322.303 243.2 323.103 242.5 324.103 242.5C332.103 243.2 340.103 243.6 348.103 243.4C355.303 243.3 362.603 242.8 369.803 242C370.703 241.9 371.603 242.6 371.703 243.5C371.803 244.4 371.103 245.3 370.203 245.4C362.903 246.3 355.503 246.7 348.203 246.9C346.903 247 345.703 247 344.503 247Z" fill="url(#colorTwo)"/>
</g>
<path d="M323.591 86.9996C316.591 86.9996 310.891 81.2996 310.891 74.2996C310.891 67.2996 316.591 61.5996 323.591 61.5996C330.591 61.5996 336.291 67.2996 336.291 74.2996C336.291 81.1996 330.591 86.9996 323.591 86.9996ZM323.591 62.9996C317.391 62.9996 312.391 67.9996 312.391 74.1996C312.391 80.3996 317.391 85.3996 323.591 85.3996C329.791 85.3996 334.791 80.3996 334.791 74.1996C334.791 68.0996 329.691 62.9996 323.591 62.9996Z" fill="black"/>
<path d="M324.095 59.7H323.095C321.495 59.7 320.195 58.4 320.195 56.8V32.9C320.195 31.3 321.495 30 323.095 30H324.095C325.695 30 326.995 31.3 326.995 32.9V56.8C326.995 58.4 325.695 59.7 324.095 59.7Z" fill="black"/>
<path d="M322.994 51.3997C306.894 51.5997 292.194 60.6997 284.694 74.8997C284.194 75.8997 284.894 77.1997 286.094 77.1997H360.994C362.194 77.1997 362.894 75.8997 362.394 74.8997C354.694 60.3997 339.494 51.1997 322.994 51.3997Z" fill="black"/>
<script type="text/ecmascript" xlink:href="https://www.argentina.gob.ar/profiles/argentinagobar/themes/contrib/poncho/js/w3c/ref2.js"></script></svg>
