<svg width="640" height="360" viewBox="0 0 640 360" fill="none" 
xmlns="http://www.w3.org/2000/svg" 
xmlns:xlink="http://www.w3.org/1999/xlink">
<defs>
<ref id="colorOne" param="c1" default="#242C4F" />
<ref id="colorTwo" param="c2" default="#9296A7"/>
</defs>
<path d="M378.995 300.6C378.295 296.5 377.395 292.6 376.195 288.5C370.695 269.5 369.895 253.4 369.895 253.4C369.295 252.4 354.695 254.4 353.995 253.4C353.995 253.4 343.595 256.7 329.795 259.2L303.695 262.1C290.895 262.3 278.695 260.4 271.295 253.8C271.295 253.8 269.595 259.2 267.495 266.1C267.495 266.1 266.395 268.3 265.895 271.8C263.895 279.2 261.895 286.9 261.595 291.2C261.495 292.5 261.195 295.8 260.695 300.6C269.195 300.5 373.195 300.6 378.995 300.6Z" fill="black"/>
<path d="M314.096 265.6C314.096 265.6 314.396 265.5 314.896 265.7C315.396 265.9 316.096 266.3 316.596 267.1C317.096 267.9 317.296 269.2 316.596 270.4C315.996 271.5 314.496 272.4 312.996 272.2C311.396 271.9 310.396 270.6 310.196 269.3C309.896 268 310.596 266.8 311.296 266.2C311.996 265.6 312.796 265.4 313.296 265.4C313.796 265.5 313.996 265.6 314.096 265.6C314.096 265.7 312.796 265.5 311.596 266.6C310.996 267.2 310.596 268.1 310.796 269.1C310.996 270.1 311.896 271.1 312.996 271.3C314.096 271.5 315.296 270.8 315.796 270C316.396 269.1 316.296 268.1 315.896 267.4C315.196 265.9 313.996 265.8 314.096 265.6Z" fill="white"/>
<path d="M337.392 267.199C337.192 267.299 336.392 265.699 335.692 263.599C334.992 261.599 334.492 259.799 334.792 259.799C334.992 259.699 335.792 261.299 336.492 263.399C337.192 265.399 337.692 267.099 337.392 267.199Z" fill="white"/>
<path d="M341.497 266.199C341.297 266.299 340.697 264.599 340.097 262.599C339.497 260.599 339.297 258.899 339.497 258.799C339.697 258.699 340.297 260.399 340.897 262.399C341.397 264.399 341.697 266.099 341.497 266.199Z" fill="white"/>
<path d="M279.298 266.2C279.098 266.2 278.598 264.5 278.898 262.3C279.198 260.1 279.998 258.5 280.198 258.6C280.398 258.7 279.898 260.3 279.698 262.4C279.498 264.4 279.598 266.1 279.298 266.2Z" fill="white"/>
<path d="M283.798 267.7C283.598 267.7 283.598 266.1 283.798 264.1C283.998 262.2 284.398 260.6 284.598 260.6C284.798 260.6 284.798 262.2 284.598 264.2C284.298 266.2 283.998 267.7 283.798 267.7Z" fill="white"/>
<path d="M264.102 79.7997C266.902 78.0997 270.502 77.5997 272.702 75.1997C275.002 72.6997 275.302 69.0997 275.602 65.6997C276.002 62.0997 276.802 58.3997 278.602 55.1997C280.502 51.9997 283.602 49.3997 287.202 48.8997C289.902 48.4997 292.802 49.2997 295.402 48.3997C298.302 47.3997 300.102 44.3997 302.202 42.1997C306.202 37.9997 312.302 35.9997 318.002 36.8997C321.902 37.4997 325.802 39.5997 327.702 43.1997C328.102 43.9997 328.402 44.7997 328.502 45.6997C330.602 45.1997 332.602 44.7997 333.502 44.8997C337.702 45.0997 341.802 48.3997 342.602 52.7997C347.702 52.7997 352.702 55.8997 355.102 60.6997C355.402 61.2997 355.702 61.8997 355.902 62.5997C357.502 65.3997 357.802 68.7997 356.602 71.8997C355.902 73.6997 354.702 75.6997 355.702 77.3997C356.602 79.0997 359.002 79.0997 360.902 79.7997C364.202 80.8997 366.302 84.5997 365.502 87.8997C365.202 89.0997 364.702 90.2997 364.902 91.4997C365.202 92.6997 366.202 93.5997 367.102 94.5997C369.202 96.9997 369.802 100.5 368.702 103.5C367.602 106.5 359.902 110 356.802 110.6C355.402 110.9 353.802 110.8 352.602 111.6C351.202 112.5 350.602 114.2 349.602 115.5C347.702 118.1 344.102 119.2 341.002 118.3C340.402 118.1 339.802 117.8 339.302 117.5C338.302 118.8 338.502 122.1 336.002 122.1L333.702 101.3C336.202 101.7 338.102 100.5 338.402 92.9997C338.502 89.3997 341.102 88.4997 339.502 87.5997C337.402 86.3997 334.702 86.3997 333.402 87.9997C333.302 87.9997 333.202 87.8997 332.902 87.9997C327.502 89.2997 326.702 78.1997 327.902 75.1997C326.002 73.4997 324.002 71.7997 322.502 69.5997C321.002 67.3997 319.702 61.4997 320.002 58.7997C317.702 60.2997 314.802 60.8997 312.102 60.4997C309.702 60.0997 307.002 58.8997 304.902 60.1997C302.702 61.5997 302.602 64.8997 300.602 66.6997C297.802 69.1997 293.202 68.6997 289.602 69.7997C286.802 70.5997 288.102 76.3997 286.302 78.5997C285.802 79.2997 294.602 82.1997 293.602 82.6997C289.402 99.8997 284.002 119.8 303.102 124C303.102 124.2 299.402 122.9 297.502 122.8C295.602 122.7 294.002 124.1 292.302 124.9C288.202 126.9 282.702 125.6 280.102 121.8C278.802 119.9 278.002 117.4 275.902 116.4C273.802 115.4 271.302 116.3 269.002 116.2C264.402 116 260.702 110.7 262.102 106.3C262.602 104.6 263.802 103 263.702 101.2C263.602 99.1997 261.902 97.7997 260.802 96.0997C257.202 90.8997 258.902 82.9997 264.102 79.7997Z" fill="black"/>
<path d="M344.7 73.9997C346.4 69.9997 344.6 64.7997 340.8 62.6997C341.9 60.1997 340.5 57.0997 338.2 55.4997C336 53.8997 333.2 53.3997 330.5 52.8997C327.6 47.1997 319.6 44.6997 314 47.7997C309.6 43.9997 302.7 45.0997 297.8 48.0997C296.6 48.7997 295.4 49.6997 294 49.9997C293 50.2997 291.9 50.1997 290.9 50.3997C285.2 51.0997 280.8 56.3997 280.1 62.0997C280 62.9997 279.9 63.8997 279.6 64.7997C279.1 65.8997 278.2 66.6997 277.5 67.6997C275.9 69.7997 275.3 72.4997 275.9 74.9997C276.4 77.0997 277.6 79.1997 277.3 81.3997C277.1 82.4997 276.5 83.4997 276.4 84.5997C276.2 87.7997 280.2 89.8997 280.4 93.0997C280.4 93.6997 280.3 94.3997 280.3 94.9997C280.3 96.2997 280.8 97.6997 281.6 98.6997C282.3 99.4997 283.2 100.1 283.5 101.1C283.7 101.8 283.6 102.6 283.6 103.4C283.7 105.3 289.5 111.2 291.3 111.8L338 99.7997C341.3 98.0997 343.4 94.1997 342.7 90.4997C342.6 89.8997 342.4 89.1997 342.7 88.6997C342.9 88.1997 343.4 87.8997 343.8 87.4997C346.4 85.0997 345.6 80.8997 344.4 77.5997C344.2 77.0997 344.1 76.6997 344 76.1997C344 75.2997 344.4 74.5997 344.7 73.9997Z" fill="black"/>
<path d="M331.407 77.6003C329.307 69.3003 321.607 61.2003 312.407 59.3003C306.607 58.1003 302.507 59.2003 299.707 59.6003C293.407 60.5003 289.307 64.8003 289.307 64.8003C286.907 66.1003 283.107 77.1003 281.807 86.7003C280.107 98.8003 284.507 109.6 287.907 117C294.707 131.9 309.807 131 309.807 131L311.707 142.1L345.107 132.5L331.407 77.6003Z" fill="white"/>
<path d="M311.303 142.7L310.303 136.7C309.803 133.8 309.503 132.3 309.503 131.5C307.103 131.6 293.403 131.3 287.203 117.6C282.203 106.6 280.303 96.4998 281.403 86.7998C282.403 77.4998 286.403 66.1998 289.103 64.5998C289.603 64.0998 293.603 60.1998 299.703 59.2998C300.103 59.1998 300.603 59.1998 301.003 59.0998C303.703 58.5998 307.503 57.9998 312.503 58.9998C321.503 60.7998 329.703 68.5998 331.903 77.5998L345.603 132.9L311.303 142.7ZM310.103 130.5L310.203 130.9C310.203 131 311.703 139.3 312.003 141.5L344.503 132.1L331.003 77.6998C328.903 69.0998 321.003 61.4998 312.303 59.7998C307.403 58.7998 303.803 59.3998 301.103 59.8998C300.603 59.9998 300.203 60.0998 299.803 60.0998C293.803 60.9998 289.703 65.1998 289.703 65.1998L289.603 65.2998C287.403 66.4998 283.403 77.3998 282.303 86.8998C281.203 96.4998 283.103 106.4 288.003 117.3C294.603 131.7 309.603 130.7 309.803 130.7L310.103 130.5Z" fill="black"/>
<path d="M309.703 130.999C309.703 130.999 320.303 128.799 329.003 119.699C329.003 119.699 326.603 131.999 310.703 134.899L309.703 130.999Z" fill="black"/>
<path d="M288.206 102.5C288.506 102.7 289.706 101.2 291.906 100.6C294.006 100 295.906 100.6 296.106 100.3C296.206 100.2 295.806 99.8002 295.006 99.4002C294.206 99.1002 292.906 98.9002 291.606 99.3002C290.306 99.7002 289.306 100.5 288.806 101.2C288.206 101.9 288.106 102.4 288.206 102.5Z" fill="black"/>
<path d="M304.204 109C304.204 108.9 302.804 109 300.504 109.3C299.904 109.4 299.404 109.4 299.204 109.1C299.004 108.7 299.004 108.1 299.104 107.4C299.204 105.9 299.404 104.4 299.604 102.8C300.204 96.2004 300.504 90.9004 300.204 90.9004C299.904 90.9004 299.204 96.2004 298.604 102.7C298.504 104.3 298.304 105.9 298.204 107.3C298.204 108 298.004 108.8 298.504 109.5C298.804 109.9 299.204 110.1 299.604 110.1C300.004 110.1 300.304 110 300.604 110C302.904 109.5 304.204 109.2 304.204 109Z" fill="black"/>
<path d="M294.105 92.6992C293.705 92.1992 292.005 92.5992 290.005 92.5992C288.005 92.5992 286.305 92.0992 285.905 92.5992C285.705 92.7992 286.005 93.3992 286.705 93.8992C287.405 94.3992 288.605 94.7992 290.005 94.8992C291.405 94.8992 292.605 94.4992 293.305 93.9992C294.005 93.3992 294.205 92.8992 294.105 92.6992Z" fill="black"/>
<path d="M316.903 94.5999C316.703 94.8999 314.903 94.1999 312.803 94.6999C310.603 95.1999 309.303 96.6999 309.003 96.4999C308.903 96.3999 309.003 95.8999 309.603 95.1999C310.203 94.4999 311.203 93.7999 312.603 93.4999C314.003 93.1999 315.203 93.3999 316.003 93.7999C316.703 94.0999 317.003 94.4999 316.903 94.5999Z" fill="black"/>
<path d="M305.606 89.6998C305.906 88.9998 308.006 88.4998 310.406 87.2998C312.806 86.1998 314.606 84.7998 315.206 85.0998C315.506 85.1998 315.406 85.7998 314.806 86.6998C314.206 87.5998 312.906 88.5998 311.306 89.3998C309.706 90.1998 308.106 90.4998 307.006 90.3998C306.006 90.2998 305.506 89.9998 305.606 89.6998Z" fill="black"/>
<path d="M337.506 105L337.406 104.1C337.906 104.1 341.906 103.6 343.906 100.6C345.106 98.7995 345.306 96.3995 344.506 93.4995C343.706 90.7995 342.506 88.9995 340.706 88.1995C338.506 87.1995 336.106 87.8995 334.406 88.6995C334.006 88.8995 333.506 89.8995 333.306 91.0995L332.406 90.9995C332.506 90.3995 332.906 88.3995 334.006 87.8995C335.906 87.0995 338.606 86.2995 341.106 87.3995C343.106 88.2995 344.506 90.2995 345.406 93.2995C346.306 96.4995 346.106 99.0995 344.706 101.2C342.506 104.4 338.306 104.9 337.506 105Z" fill="black"/>
<path d="M279.397 87.6006C281.197 85.7006 281.997 83.5006 281.197 81.0006C282.697 81.0006 283.697 78.8006 284.197 77.3006C284.697 75.8006 285.497 74.9006 285.097 73.5006C284.997 73.2006 284.897 72.9006 284.997 72.6006C285.097 72.1006 285.597 71.9006 285.997 71.6006C288.097 70.3006 289.397 67.8006 289.297 65.4006C291.797 65.8006 294.497 65.5006 296.897 64.6006C298.397 65.9006 300.697 66.3006 302.597 65.7006C304.497 65.1006 305.997 63.4006 306.497 61.5006C307.497 62.6006 309.097 63.1006 310.597 63.1006C312.097 63.1006 313.597 62.6006 315.097 62.1006C315.297 65.1006 317.997 67.8006 320.997 67.9006C321.397 67.9006 321.897 67.9006 322.097 68.2006C322.397 68.5006 322.297 69.0006 322.297 69.4006C321.997 72.1006 324.497 74.7006 327.197 74.6006C325.797 76.4006 326.897 79.5006 329.097 80.1006C329.497 80.2006 330.097 80.4006 330.197 80.8006C330.197 81.0006 330.197 81.2006 330.097 81.3006C329.597 82.6006 329.097 83.9006 329.397 85.3006C329.697 86.6006 330.997 87.9006 332.297 87.6006C331.797 88.4006 331.397 89.4006 331.597 90.3006C331.797 91.2006 332.997 91.9006 333.797 91.3006C334.097 91.1006 339.097 88.6006 339.297 88.2006C341.197 83.3006 336.197 79.8006 334.497 74.9006C332.797 69.9006 329.697 65.5006 325.997 61.8006C324.397 60.3006 322.697 58.8006 320.797 57.7006C318.597 56.5006 316.197 55.7006 313.797 55.0006C310.697 54.1006 307.397 53.2006 304.197 53.3006C298.097 53.5006 292.697 57.3006 288.097 61.2006C286.297 62.7006 284.597 64.3006 283.297 66.2006C281.697 68.5006 280.897 71.2006 280.197 73.9006C279.197 77.8006 278.697 81.9006 279.397 85.8006" fill="black"/>
<path d="M278.803 92.7002C280.603 90.8002 281.403 88.6002 280.603 86.1002C282.103 86.1002 283.103 83.9002 283.603 82.4002C284.103 80.9002 284.903 80.0002 284.503 78.6002C284.403 78.3002 284.303 78.0002 284.403 77.7002C284.503 77.2002 285.003 77.0002 285.403 76.7002C287.503 75.4002 288.803 72.9002 288.703 70.5002C291.203 70.9002 293.903 70.6002 296.303 69.7002C297.803 71.0002 300.103 71.4002 302.003 70.8002C303.903 70.2002 305.403 68.5002 305.903 66.6002C306.903 67.7002 308.503 68.2002 310.003 68.2002C311.503 68.2002 313.003 67.7002 314.503 67.2002C314.703 70.2002 317.403 72.9002 320.403 73.0002C320.803 73.0002 321.303 73.0002 321.503 73.3002C321.803 73.6002 321.703 74.1002 321.703 74.5002C321.403 77.2002 323.903 79.8002 326.603 79.7002C325.203 81.5002 326.303 84.6002 328.503 85.2002C328.903 85.3002 329.503 85.5002 329.603 85.9002C329.603 86.1002 329.603 86.3002 329.503 86.4002C329.003 87.7002 328.503 89.0002 328.803 90.4002C329.103 91.7002 330.403 93.0002 331.703 92.7002C331.203 93.5002 330.803 94.5002 331.003 95.4002C331.203 96.3002 332.403 97.0002 333.203 96.4002C333.503 96.2002 338.503 93.7002 338.703 93.3002C340.603 88.4002 335.603 84.9002 333.903 80.0002C332.203 75.0002 329.103 70.6002 325.403 66.9002C323.803 65.4002 322.103 63.9002 320.203 62.8002C318.003 61.6002 315.603 60.8002 313.203 60.1002C310.103 59.2002 306.803 58.3002 303.603 58.4002C297.503 58.6002 292.103 62.4002 287.503 66.3002C285.703 67.8002 284.003 69.4002 282.703 71.3002C281.103 73.6002 280.303 76.3002 279.603 79.0002C278.603 82.9002 278.103 87.0002 278.803 90.9002" fill="black"/>
<path d="M308.298 46.8004C308.298 46.8004 307.998 46.7004 307.398 46.6004C306.798 46.5004 305.898 46.4004 304.898 46.6004C303.898 46.8004 302.598 47.2004 301.598 48.1004C300.498 49.0004 299.598 50.3004 299.198 51.8004C299.098 52.2004 298.998 52.7004 298.998 53.1004C298.998 53.5004 299.098 54.0004 299.398 54.2004L299.798 54.5004H299.298C297.998 54.5004 296.898 55.0004 296.098 55.8004C295.298 56.5004 294.998 57.5004 294.798 58.3004C294.698 59.1004 294.798 59.7004 294.898 60.2004C294.998 60.6004 295.098 60.9004 295.098 60.9004C295.098 60.9004 295.098 60.9004 294.998 60.7004C294.898 60.6004 294.898 60.4004 294.798 60.2004C294.698 59.8004 294.498 59.1004 294.598 58.3004C294.698 57.5004 295.098 56.5004 295.898 55.7004C296.698 54.9004 297.898 54.3004 299.298 54.3004L299.198 54.6004C298.798 54.3004 298.698 53.7004 298.698 53.3004C298.698 52.8004 298.798 52.3004 298.898 51.9004C299.298 50.3004 300.298 48.9004 301.398 48.0004C302.498 47.1004 303.798 46.7004 304.898 46.5004C305.998 46.4004 306.898 46.5004 307.498 46.6004C307.798 46.7004 307.998 46.7004 308.198 46.8004C308.298 46.7004 308.298 46.8004 308.298 46.8004Z" fill="url(#colorTwo)"/>
<path d="M328.902 54.1992C328.902 54.1992 328.802 54.3992 328.602 54.6992C328.402 54.9992 328.102 55.3992 327.602 55.8992C327.102 56.2992 326.502 56.7992 325.702 57.0992C324.902 57.3992 323.802 57.4992 322.802 56.9992L323.002 56.8992C322.902 57.0992 322.902 57.1992 322.802 57.3992C322.702 57.5992 322.602 57.6992 322.602 57.8992C322.002 58.8992 321.202 59.6992 320.402 60.2992C319.602 60.8992 318.702 61.1992 318.002 61.2992C317.302 61.3992 316.602 61.3992 316.202 61.3992C315.802 61.2992 315.602 61.2992 315.602 61.2992C315.602 61.1992 316.502 61.4992 318.002 61.0992C318.702 60.8992 319.502 60.5992 320.302 60.0992C321.102 59.5992 321.802 58.7992 322.402 57.7992C322.502 57.5992 322.602 57.4992 322.602 57.2992C322.702 57.0992 322.702 56.9992 322.802 56.7992L322.902 56.5992L323.102 56.6992C324.002 57.0992 324.902 56.9992 325.702 56.7992C326.502 56.5992 327.102 56.0992 327.602 55.6992C328.402 54.8992 328.902 54.1992 328.902 54.1992Z" fill="url(#colorTwo)"/>
<path d="M337.201 62.5C337.201 62.5 337.201 62.6 337.201 62.7C337.201 62.8 337.201 63 337.101 63.3C337.001 63.8 336.501 64.5 335.701 64.9C334.901 65.4 333.801 65.5 332.601 65.4C332.001 65.4 331.401 65.3 330.701 65.2C330.101 65.1 329.401 64.9 328.901 64.3C328.901 64.2 328.801 64.2 328.801 64.1H329.101C328.301 65.2 327.401 66.2 326.501 66.9C325.501 67.6 324.501 68 323.601 68C322.701 68.1 322.001 67.9 321.501 67.7C321.301 67.6 321.101 67.5 321.001 67.4C320.901 67.3 320.801 67.3 320.901 67.3C320.901 67.3 321.101 67.4 321.601 67.6C322.001 67.8 322.701 67.9 323.601 67.8C324.501 67.7 325.401 67.4 326.301 66.7C327.201 66 328.001 65.1 328.801 64L328.901 63.8L329.001 64L329.101 64.1C329.501 64.6 330.101 64.8 330.701 64.9C331.301 65 331.901 65.1 332.501 65.1C333.701 65.2 334.701 65.1 335.501 64.7C336.301 64.3 336.701 63.7 336.901 63.3C337.201 62.8 337.201 62.5 337.201 62.5Z" fill="url(#colorTwo)"/>
<path d="M300.8 85.1992C300.8 85.1992 300.6 85.6992 300.8 86.3992C300.9 87.0992 301.4 88.1992 302.3 88.8992C303.2 89.5992 304.3 89.7992 305.1 89.6992C305.9 89.5992 306.3 89.3992 306.3 89.3992C306.3 89.2992 305.8 89.4992 305.1 89.4992C304.4 89.4992 303.4 89.2992 302.6 88.5992C301.8 87.8992 301.3 86.9992 301.1 86.3992C300.8 85.5992 300.8 85.1992 300.8 85.1992Z" fill="black"/>
<path d="M332.897 92.9991C332.597 91.7991 333.197 88.6991 334.297 88.1991C337.197 86.8991 342.797 85.5991 344.997 93.2991C347.997 103.899 336.797 104.699 336.697 104.399C336.597 104.299 333.997 96.9991 332.897 92.9991Z" fill="white"/>
<path d="M338.494 99.7992C338.494 99.7992 338.694 99.8992 339.094 99.8992C339.394 99.9992 339.994 99.8992 340.494 99.4992C341.494 98.7992 341.894 96.6992 341.394 94.7992C341.194 93.7992 340.694 92.9992 340.094 92.2992C339.594 91.5992 338.894 91.1992 338.294 91.2992C337.694 91.2992 337.394 91.7992 337.394 92.0992C337.294 92.3992 337.494 92.5991 337.394 92.6991C337.394 92.6991 337.094 92.5992 337.094 92.0992C337.094 91.8992 337.094 91.5992 337.294 91.2992C337.494 90.9992 337.794 90.7991 338.194 90.6991C338.994 90.4991 339.994 91.0992 340.594 91.7992C341.294 92.4992 341.794 93.4992 342.094 94.5992C342.594 96.7992 342.094 99.0992 340.694 99.8992C339.994 100.299 339.294 100.299 338.894 100.099C338.494 100.099 338.394 99.7992 338.494 99.7992Z" fill="black"/>
<path d="M315.399 134.498C314.799 128.798 314.699 123.098 315.099 117.398C315.999 121.598 316.599 125.798 316.999 130.098C317.099 131.498 317.199 132.898 317.299 134.398C317.299 134.898 316.899 135.398 316.399 135.398C315.899 135.398 315.499 134.998 315.399 134.498Z" fill="black"/>
<path d="M262.797 179.4C265.097 167.1 268.297 159 270.497 154.6C274.497 143 279.397 131.5 284.097 128.9C290.897 126 300.997 127.3 300.997 127.3C304.197 142.8 318.697 143 331.497 137.2C338.697 133.9 341.097 129.6 343.897 124.8C344.997 124.5 366.697 130.7 371.197 134.6C383.497 145.1 382.497 192.8 382.497 192.8C381.497 201 380.197 211.8 378.897 216.5C377.097 223 369.797 236.3 369.797 236.3C371.097 238.3 373.097 258.9 373.097 265.4C373.097 265.4 347.697 280.4 312.597 277.8C277.497 275.2 270.297 266 270.297 266C267.397 263 277.697 235.5 281.297 233.5L283.297 225C278.697 229.6 273.597 236.9 265.997 231.5C265.297 231 264.697 230.5 264.197 230C253.997 222.9 258.997 199.6 262.797 179.4Z" fill="url(#colorOne)"/>
<path d="M307.398 169.7C301.698 187 291.698 218.7 278.398 230.6C273.598 234.8 268.298 234.7 263.898 230.4C253.998 223.3 257.998 202.8 259.498 192.3C260.698 185.8 261.698 179.3 263.198 172.9C264.698 166.6 266.898 159.6 269.598 154.2C271.198 149.5 272.998 144.9 274.998 140.4C277.198 135.9 279.298 130.9 283.698 128C289.398 125.8 295.598 125.8 301.598 126.5C305.798 139.5 324.998 141.1 335.298 134.5C338.998 132.2 341.998 128.7 343.698 124.7L343.798 124.6H343.898C344.198 124.6 344.298 124.7 344.498 124.7C349.698 126 355.098 127.7 360.198 129.4C355.298 127.9 349.898 126.5 344.898 125.2C344.698 125.1 344.098 125 343.998 125L344.098 124.9C342.398 129.1 339.498 132.7 335.698 135.2C325.098 142.5 305.198 140.9 300.198 127.5L300.898 128C295.398 127.5 289.598 127.5 284.498 129.6C283.098 130.5 281.198 132.8 280.098 134.7C276.398 141 273.898 147.9 271.498 154.8C268.698 160.7 266.598 166.9 265.098 173.3C263.598 179.7 262.498 186.2 261.298 192.6C259.798 202.7 255.298 222.6 264.598 229.6C268.698 233.8 273.698 233.8 278.098 230C291.198 218.5 301.498 186.8 307.398 169.7Z" fill="black"/>
<path d="M278.2 168.398C277.9 171.198 277.7 173.898 277.7 176.298C277.7 178.698 277.7 180.898 277.9 182.798C277.9 183.198 277.9 183.598 278 183.998C277.9 184.098 277.8 184.098 277.8 184.198C277.7 183.698 277.7 183.298 277.7 182.798C277.5 180.998 277.5 178.698 277.5 176.298C277.5 173.898 277.7 171.198 278 168.298C278.3 165.498 278.8 162.798 279.4 160.498C280 158.098 280.6 155.998 281.2 154.198C281.5 153.298 281.8 152.498 282 151.798C282.2 151.098 282.5 150.498 282.7 149.998C282.9 149.598 283 149.198 283.2 148.898C283.3 148.698 283.4 148.498 283.4 148.498C283.4 148.498 283.4 148.598 283.3 148.898C283.2 149.198 283.1 149.598 282.9 149.998C282.7 150.498 282.5 151.098 282.3 151.798C282.1 152.498 281.8 153.298 281.5 154.198C280.9 155.998 280.4 158.098 279.8 160.498C279 162.998 278.6 165.698 278.2 168.398Z" fill="black"/>
<path d="M338.602 239.799C338.602 239.799 338.402 239.799 338.102 239.799C337.702 239.799 337.302 239.899 336.702 239.999C336.102 240.099 335.302 240.199 334.502 240.199C333.602 240.299 332.602 240.399 331.502 240.499C329.302 240.699 326.702 240.799 323.702 240.899C320.802 240.899 317.602 240.899 314.202 240.699C310.802 240.499 307.602 240.099 304.702 239.699C301.802 239.299 299.202 238.799 297.102 238.299C296.002 238.099 295.002 237.799 294.202 237.699C293.302 237.499 292.602 237.299 292.002 237.199C291.402 237.099 291.002 236.899 290.602 236.899C290.302 236.799 290.102 236.799 290.102 236.799C290.102 236.799 290.302 236.899 290.602 236.999C291.002 237.099 291.402 237.199 292.002 237.399C292.602 237.599 293.302 237.799 294.202 237.999C295.102 238.199 296.002 238.499 297.102 238.699C299.302 239.199 301.902 239.699 304.802 240.099C307.702 240.499 310.902 240.899 314.302 241.099C317.702 241.299 320.902 241.299 323.802 241.299C326.702 241.199 329.402 241.099 331.602 240.799C332.702 240.699 333.702 240.599 334.602 240.499C335.502 240.399 336.202 240.299 336.802 240.199C337.402 240.099 337.802 239.999 338.202 239.999C338.502 239.899 338.602 239.799 338.602 239.799Z" fill="black"/>
<path d="M328.499 224.398C328.499 224.398 328.099 224.198 327.499 223.898C326.799 223.598 325.899 223.198 324.699 222.598C322.399 221.498 319.199 219.798 315.899 217.698C312.599 215.498 309.799 213.298 307.899 211.598C306.899 210.698 306.199 209.998 305.599 209.498C305.099 208.998 304.799 208.698 304.699 208.798C304.599 208.898 304.899 209.098 305.399 209.598C305.899 210.098 306.599 210.898 307.599 211.798C309.499 213.598 312.299 215.898 315.599 217.998C318.899 220.198 322.099 221.798 324.499 222.898C325.699 223.398 326.699 223.798 327.399 224.098C328.199 224.298 328.499 224.398 328.499 224.398Z" fill="black"/>
<path d="M335.1 135.399C335.1 135.399 316 112.499 314.1 111.199C310.3 108.499 302.8 107.999 300.4 109.999C299 111.199 283 125.399 283 125.399L287.8 135.299L305.7 148.999L335.1 135.399Z" fill="white"/>
<path d="M305.6 149.399L287.4 135.399L282.5 125.199L282.7 124.999C283.4 124.399 298.7 110.799 300.1 109.599C302.8 107.399 310.5 107.999 314.3 110.799C316.2 112.199 334.6 134.199 335.4 135.099L335.7 135.499L305.6 149.399ZM288 135.099L305.6 148.599L334.4 135.299C327.7 127.299 315.3 112.599 313.8 111.499C310.1 108.799 302.7 108.499 300.5 110.299C299.2 111.399 285.3 123.799 283.4 125.499L288 135.099Z" fill="black"/>
<path d="M356.305 203.098C358.005 205.398 359.305 207.198 360.305 208.398C360.805 208.998 361.105 209.498 361.405 209.798C361.705 210.098 361.805 210.298 361.805 210.298C361.805 210.298 361.705 210.098 361.505 209.798C361.205 209.398 360.905 208.898 360.505 208.298C359.605 206.998 358.305 205.198 356.605 202.898C353.305 198.298 348.905 191.998 344.005 184.998C339.105 177.998 334.705 171.598 331.505 166.998C329.905 164.698 328.605 162.898 327.705 161.498C327.305 160.898 326.905 160.398 326.705 159.998C326.505 159.698 326.305 159.498 326.305 159.498C326.305 159.498 326.405 159.698 326.605 159.998C326.805 160.398 327.205 160.898 327.605 161.498C328.505 162.798 329.805 164.698 331.305 166.998C334.405 171.698 338.805 178.098 343.705 185.098" fill="black"/>
<path d="M264.102 205.299C264.102 205.299 264.202 205.199 264.402 204.799C264.602 204.499 264.902 203.999 265.302 203.499C266.102 202.299 267.202 200.599 268.502 198.599C271.202 194.399 275.002 188.699 279.102 182.399C283.302 176.099 287.002 170.299 289.602 166.099C290.902 163.999 292.002 162.299 292.702 161.099C293.002 160.499 293.302 160.099 293.502 159.699C293.702 159.399 293.802 159.199 293.802 159.199C293.802 159.199 293.702 159.299 293.502 159.699C293.302 159.999 293.002 160.499 292.602 160.999C291.802 162.199 290.702 163.899 289.402 165.899C286.702 170.099 283.002 175.799 278.802 182.099C274.602 188.399 270.902 194.199 268.202 198.399C266.902 200.499 265.802 202.199 265.102 203.399C264.802 203.999 264.502 204.399 264.302 204.799C264.202 205.099 264.102 205.299 264.102 205.299Z" fill="black"/>
<path d="M351.803 160.297L350.805 160.348L352.784 199.297L353.783 199.246L351.803 160.297Z" fill="black"/>
<path d="M373.402 268.798L371.502 268.498C373.402 257.098 368.202 234.998 368.102 234.798L369.902 234.398C370.202 235.298 375.302 256.998 373.402 268.798Z" fill="black"/>
<path d="M299.596 117.2C298.696 117.1 297.796 117.6 297.296 118.4C294.996 122 286.596 135.2 286.096 138C285.396 141.3 287.996 142.2 287.996 142.2C287.996 142.2 287.196 146.9 290.696 148.9C290.696 148.9 289.896 152.3 293.396 154.2L294.896 163.4L307.396 169.7L308.596 163.9L306.496 158.2L303.596 146.8L304.496 130.3C304.496 130.3 304.696 126.5 301.996 127.3C301.996 127.3 304.096 124.4 302.796 122.4C301.996 121.2 300.496 121.6 300.496 121.6C300.496 121.6 301.896 119.5 300.996 118C300.596 117.5 300.096 117.2 299.596 117.2Z" fill="white"/>
<path d="M299.597 117.2C298.197 117 297.297 118.1 296.797 119.2C296.097 120.3 295.497 121.4 294.797 122.4C292.197 126.7 289.697 131.1 287.397 135.7C286.897 136.8 286.297 137.9 286.397 139.1C286.397 140.4 287.197 141.5 288.397 141.9C287.897 144.3 288.497 147.3 290.797 148.6L290.997 148.7V148.9C290.597 150.9 291.697 153 293.497 154L293.597 154.1V154.2C293.997 156.9 294.597 160.7 295.097 163.4C298.597 164.9 303.497 167.5 307.497 169.4L306.997 169.7L308.097 163.9V164.1L305.997 158.4C304.997 154.6 303.997 150.8 302.997 147C303.097 143.9 303.397 139.5 303.597 136.4L303.997 131.2C304.197 129.1 303.897 127.3 301.297 128.3C302.097 127 302.897 125.5 302.897 123.9C302.897 122.5 301.797 121.3 300.297 121.7L300.097 121.8C300.997 120.4 301.797 117.6 299.597 117.2ZM299.597 117.1C301.797 117.4 301.297 120.2 300.397 121.6L300.297 121.4C300.997 121.2 301.797 121.3 302.397 121.8C304.097 123.4 303.097 126.1 302.097 127.9L301.797 127.5C304.297 126.6 304.997 129.3 304.797 131.2L304.597 136.4C304.497 139.1 304.197 144.6 304.097 146.7C305.097 150.4 306.097 154.5 306.997 158L308.997 163.7V163.8V163.9L307.797 169.7L307.697 170.2L307.297 170C303.197 167.8 298.997 165.6 294.897 163.5C294.497 160.8 293.797 157 293.297 154.3L293.397 154.4C291.397 153.4 290.097 151.1 290.497 148.8L290.597 149.1C289.397 148.4 288.497 147.3 287.997 146C287.497 144.7 287.397 143.4 287.597 142L287.897 142.5C285.797 141.6 285.197 139 285.997 137.1C288.297 131.8 291.697 127.2 294.797 122.3L296.897 119.1C297.197 118.1 298.197 116.9 299.597 117.1Z" fill="black"/>
<path d="M290.898 138C290.898 138 291.098 137.8 291.298 137.4C291.598 137 291.898 136.4 292.398 135.6C293.298 134.1 294.498 132 295.898 129.6C297.198 127.3 298.398 125.1 299.298 123.6C299.698 122.8 300.098 122.2 300.298 121.8C300.498 121.4 300.598 121.1 300.598 121.1C300.598 121.1 300.398 121.3 300.198 121.7C299.898 122.1 299.598 122.7 299.098 123.5C298.198 125 296.998 127.1 295.598 129.5C294.298 131.8 293.098 134 292.198 135.5C291.798 136.3 291.398 136.9 291.198 137.3C290.998 137.8 290.898 138 290.898 138Z" fill="black"/>
<path d="M294.598 142C294.698 142 296.598 138.5 298.798 134.1C300.998 129.7 302.798 126 302.698 126C302.598 126 300.698 129.5 298.498 133.9C296.198 138.3 294.498 142 294.598 142Z" fill="black"/>
<path d="M299.101 145.1C299.201 145.1 300.401 142.3 301.901 138.8C303.301 135.3 304.401 132.4 304.301 132.4C304.201 132.4 303.001 135.2 301.501 138.7C300.001 142.2 299.001 145.1 299.101 145.1Z" fill="black"/>
<path d="M315.7 118.101C315.7 118.101 326.6 136.101 327.4 139.701C328.2 143.301 326.1 160.601 326.1 160.601L311.1 168.701C311.1 168.701 305.8 161.001 305.2 154.401C304.5 147.801 304.4 144.701 304.4 144.701C304.4 144.701 301.6 131.701 302.9 130.201C304.2 128.701 305 129.001 305 129.001C305 129.001 301.7 122.601 302.5 120.801C303.3 119.001 305.1 118.901 305.1 118.901C305.1 118.901 304.7 116.501 306.4 115.801C308.4 114.901 310 117.601 310 117.601C310 117.601 313.1 113.601 315.7 118.101Z" fill="white"/>
<path d="M315.8 118.1C319.2 123.9 324.4 131.8 327.2 137.9C328.8 141.4 327.8 145.6 327.7 149.4C327.3 153.2 326.9 157 326.3 160.7V160.8H326.2C321.2 163.4 316.1 166.2 311.2 168.9L311 169L310.9 168.8C308 164.4 305.3 159.5 304.7 154.2L304.4 151L303.8 144.7C303 140.9 302 136.1 302 131.9C302 131.1 302.1 130.1 302.8 129.6C303.5 129 304.2 128.4 305.2 128.6L304.6 129.3C303.4 126.7 302 124.1 302.1 121.2C302.4 119.8 303.8 118.8 305.2 118.7L304.9 119.1C304.5 115.1 308.4 114.3 310.3 117.6H310.1C312 115.1 314.3 115.5 315.8 118.1ZM315.7 118.1C314.2 115.6 312 115.2 310.1 117.6C308.4 114.8 304.9 115 305.4 118.7L305.5 119H305.2C303.9 119.2 302.6 120.3 302.9 121.7C303.3 124.1 304.5 126.4 305.6 128.6L305 129.3C304.6 129.3 304 129.7 303.7 130.1C303.2 130.6 303.3 131.1 303.2 131.7C303.3 136 304.3 140.2 305 144.4C305.2 146.4 305.6 151.9 305.7 153.9C306 157 307.1 160 308.4 162.8C309.3 164.7 310.3 166.6 311.4 168.3L311.1 168.2C316.1 165.6 321.2 162.8 326.1 160.1L326 160.3C326.4 156.5 326.7 152.7 327 149C327.1 145.4 328 141.4 326.6 137.9C323.3 131.3 319.6 124.6 315.7 118.1Z" fill="black"/>
<path d="M310.097 117.4C309.997 117.4 312.097 121.7 314.697 126.9C317.397 132.1 319.597 136.3 319.697 136.2C319.797 136.2 317.697 131.9 315.097 126.7C312.497 121.5 310.197 117.4 310.097 117.4Z" fill="black"/>
<path d="M305.203 118.801C305.203 118.801 305.303 119.101 305.603 119.601C305.903 120.201 306.203 120.901 306.703 121.801C307.703 123.701 308.903 126.201 310.303 129.001C311.703 131.801 313.003 134.301 314.003 136.101C314.503 137.001 314.903 137.701 315.203 138.201C315.503 138.701 315.703 139.001 315.703 139.001C315.703 139.001 315.603 138.701 315.403 138.201C315.103 137.601 314.803 136.901 314.303 136.001C313.403 134.101 312.103 131.601 310.703 128.801C309.303 126.001 308.003 123.501 307.003 121.701C306.503 120.801 306.103 120.101 305.803 119.601C305.303 119.101 305.203 118.801 305.203 118.801Z" fill="black"/>
<path d="M309.703 140.5C309.503 139.9 309.103 139 308.703 138C307.903 135.9 306.703 133.1 305.203 129.7C305.203 129.4 304.703 128.8 304.703 128.1C305.203 127.9 308.303 135.6 308.903 137.9C309.203 139 309.603 139.9 309.703 140.5C309.903 140.7 309.903 141 310.003 141.1C310.003 141.3 310.103 141.3 310.103 141.3C310.103 141.3 310.103 141.2 310.003 141.1C309.903 141 309.803 140.8 309.703 140.5Z" fill="black"/>
<path d="M323.195 141.2C323.195 141.2 323.295 141.5 323.695 141.7C324.095 141.9 324.695 142 325.295 141.8C325.895 141.6 326.295 141.1 326.495 140.7C326.695 140.3 326.595 140 326.595 140C326.495 140 326.495 140.2 326.295 140.5C326.095 140.8 325.795 141.2 325.195 141.4C324.695 141.6 324.195 141.5 323.795 141.4C323.395 141.3 323.195 141.1 323.195 141.2Z" fill="black"/>
<path d="M318.195 144.301C318.195 144.301 318.395 144.601 318.795 144.701C319.195 144.901 319.895 145.001 320.495 144.701C321.195 144.401 321.595 143.901 321.795 143.501C321.995 143.101 321.995 142.801 321.895 142.801C321.795 142.801 321.795 143.001 321.495 143.401C321.295 143.701 320.895 144.101 320.295 144.401C319.695 144.601 319.195 144.601 318.795 144.501C318.495 144.401 318.295 144.201 318.195 144.301Z" fill="black"/>
<path d="M313.297 146.4C313.297 146.4 313.397 146.7 313.797 146.9C314.197 147.1 314.797 147.3 315.497 147.1C316.197 146.9 316.697 146.5 316.897 146.1C317.097 145.7 317.197 145.4 317.097 145.4C316.997 145.4 316.897 145.6 316.697 145.9C316.397 146.2 315.997 146.6 315.397 146.7C314.797 146.8 314.297 146.7 313.897 146.6C313.597 146.5 313.297 146.4 313.297 146.4Z" fill="black"/>
<path d="M310 169.298C313.3 177.298 316.7 185.298 320.3 193.098C325.8 204.798 330.8 216.898 338.7 227.098C344.9 233.998 353.8 246.198 364 239.098C369.2 235.398 372.5 229.698 375 223.998C380.3 212.098 381 198.998 380.9 186.198C380.8 173.298 380.5 160.198 377.6 147.598C376.5 143.498 375.3 139.098 372.4 135.898C375.5 138.998 376.9 143.298 378.1 147.498C381.5 160.098 382 173.298 382.4 186.298C383 203.598 381.1 222.198 370 236.198C357.3 250.998 346.8 239.498 337.4 228.298C334.6 224.898 332.4 220.998 330.4 217.198C322.4 201.698 316 185.598 310 169.298Z" fill="black"/>
<path d="M177.297 300.299H462.697C463.197 300.299 463.697 300.699 463.697 301.299V301.899C463.697 302.399 463.297 302.899 462.697 302.899H177.297C176.797 302.899 176.297 302.499 176.297 301.899V301.299C176.297 300.799 176.797 300.299 177.297 300.299Z" fill="black"/>
<script type="text/ecmascript" xlink:href="https://www.argentina.gob.ar/profiles/argentinagobar/themes/contrib/poncho/js/w3c/ref2.js"></script></svg>
