<svg width="640" height="315" viewBox="0 0 640 315" fill="none" xmlns="http://www.w3.org/2000/svg" xmlns:xlink="http://www.w3.org/1999/xlink">
    <defs>
        <ref id="colorOne" param="c1" default="#242C4F" />
        <ref id="colorTwo" param="c2" default="#9296A7" />
    </defs>
    <g clip-path="url(#clip0_5018_6141)">
    <path d="M179.342 120.758C178.689 119.832 177.332 119.788 176.222 120.022C171.826 120.967 168.661 124.728 166.086 128.413C157.15 141.175 150.94 155.826 147.978 171.124L147.648 172.716C149.202 174.86 150.845 177.074 153.192 178.285C155.545 179.497 158.824 179.351 160.416 177.239C161.475 175.831 161.558 173.941 161.628 172.177C161.945 163.678 162.845 155.147 165.287 147.004C167.729 138.86 171.782 131.084 177.788 125.065C178.968 123.885 180.313 122.115 179.342 120.752" fill="url(#colorTwo)"/>
    <path d="M153.524 252.287C158.294 228.28 163.076 204.128 163.634 179.658C163.837 170.81 162.747 160.548 155.364 155.664C151.615 153.184 146.941 152.658 142.463 152.264C137.915 151.871 133.07 151.605 129.048 153.761C124.507 156.197 122.002 161.182 120.207 166.015C116.312 176.499 114.365 187.821 108.632 197.424C103.164 206.582 94.3987 213.883 91.1323 224.037C87.8849 234.109 90.8976 245.608 97.6144 253.784C104.338 261.96 114.353 267.008 124.735 269.076C131.141 270.351 138.144 270.484 143.833 267.268C150.271 263.634 152.376 259.949 153.524 252.287Z" fill="url(#colorTwo)"/>
    <path d="M134.117 158.548C133.654 158.783 132.126 156.988 130.451 153.614C130.033 152.77 129.614 151.831 129.208 150.804C129.005 150.29 128.802 149.751 128.606 149.193C128.447 148.667 128.117 148.051 128.117 146.884C128.117 146.313 128.339 145.565 128.751 145.032C129.151 144.493 129.614 144.157 130.026 143.916C130.87 143.447 131.441 143.269 132.164 143.009C133.559 142.546 135.056 142.241 136.623 142.153C138.196 142.064 139.857 142.21 141.424 142.831C143.01 143.447 144.329 144.614 145.147 145.844C146.815 148.337 147.031 151.001 146.86 152.96C146.682 154.952 146.194 156.417 145.807 157.4C145.401 158.383 145.039 158.884 144.779 158.84C144.513 158.789 144.373 158.187 144.316 157.147C144.246 156.113 144.291 154.648 144.113 152.973C143.948 151.318 143.447 149.434 142.255 147.956C141.659 147.227 140.955 146.694 140.06 146.383C139.16 146.066 138.043 145.958 136.838 146.028C135.62 146.098 134.415 146.313 133.299 146.637C132.773 146.789 132.107 147.017 131.834 147.151L131.688 147.227L131.663 147.239C131.637 147.214 131.53 147.119 131.485 147.087C131.384 147.011 131.295 146.979 131.371 147.011C131.409 147.024 131.466 147.043 131.542 147.055L131.682 147.075C131.713 147.075 131.694 147.075 131.694 147.075C131.644 147.132 131.739 147.652 131.885 148.216C132.018 148.755 132.145 149.282 132.272 149.795C132.538 150.798 132.785 151.743 133.02 152.624C133.971 156.087 134.612 158.288 134.117 158.536" fill="url(#colorTwo)"/>
    <path d="M125.753 269.759C125.753 269.759 125.467 269.436 124.985 268.776C124.522 268.104 123.894 267.07 123.285 265.637C122.03 262.795 121.129 258.222 121.763 252.672C122.302 247.097 124.706 240.837 127.56 234.133C128.956 230.759 130.433 227.226 131.537 223.433C132.66 219.646 133.402 215.606 133.82 211.433C134.651 203.067 134.245 195.031 133.935 187.737C133.624 180.437 133.231 173.859 133.56 168.303C133.884 162.753 135.368 158.333 137.163 155.764C138.019 154.451 138.901 153.607 139.51 153.062C140.15 152.548 140.493 152.294 140.505 152.313C140.607 152.409 139.047 153.309 137.417 155.922C135.736 158.485 134.366 162.836 134.112 168.329C133.858 173.815 134.296 180.398 134.651 187.692C135 194.98 135.431 203.054 134.594 211.496C134.169 215.708 133.414 219.799 132.273 223.636C131.144 227.48 129.641 231.031 128.226 234.399C125.334 241.091 122.917 247.243 122.315 252.723C121.624 258.178 122.423 262.675 123.571 265.51C124.693 268.377 125.854 269.69 125.759 269.747" fill="url(#colorOne)"/>
    <path d="M128.753 231.527C128.645 231.71 121.421 227.734 112.617 222.641C103.807 217.547 96.7606 213.266 96.8684 213.082C96.9762 212.898 104.2 216.875 113.004 221.968C121.807 227.061 128.86 231.343 128.753 231.527Z" fill="url(#colorOne)"/>
    <path d="M135.2 152.086C135.238 152.156 134.28 152.644 132.733 153.773C131.204 154.915 129.092 156.779 127.278 159.684C125.452 162.564 124.044 166.458 123.473 170.955C122.832 175.446 122.807 180.456 122.724 185.721C122.667 190.991 122.249 196.046 121.411 200.55C120.606 205.066 119.471 209.042 118.329 212.315C117.194 215.588 116.058 218.15 115.215 219.895C114.802 220.77 114.447 221.43 114.2 221.88C113.952 222.324 113.813 222.558 113.794 222.546C113.737 222.514 114.187 221.55 114.936 219.774C115.69 218.005 116.743 215.417 117.802 212.144C118.868 208.877 119.934 204.913 120.695 200.429C121.487 195.951 121.881 190.972 121.938 185.708C122.02 180.456 122.065 175.401 122.756 170.854C123.378 166.293 124.874 162.304 126.809 159.393C128.724 156.456 130.944 154.61 132.549 153.532C133.361 152.999 134.014 152.619 134.477 152.403C134.934 152.175 135.181 152.067 135.194 152.092" fill="white"/>
    <path d="M222.644 176.88C231.188 179.753 239.75 182.569 248.065 186.064C250.107 186.964 252.289 187.364 254.516 187.231C261.055 186.825 267.664 183.102 270.797 177.298C272.712 173.334 273.144 168.672 274.127 164.378C276.658 151.116 279.03 137.816 281.319 124.509L281.871 125.162L281.37 124.357L285.081 116.752C285.011 116.98 289.977 104.289 289.971 104.346C289.895 104.695 292.635 93.3541 292.628 93.4238L292.616 93.5697C292.616 93.519 292.565 93.3668 292.508 93.2906C292.451 93.2018 292.375 93.1384 292.267 93.0877C292.083 92.9735 291.683 92.9735 291.474 93.0052C291.341 93.0243 291.081 93.2653 290.89 93.5443C289.869 95.1236 289.387 97.0391 288.892 98.8658L287.199 103.103L287.174 103.166L287.136 103.217C286.381 104.111 285.74 105.139 284.738 105.849C284.459 106.008 284.047 105.849 283.983 105.526C283.958 104.606 284.307 103.832 284.497 102.963L285.29 100.128C285.892 98.1681 288.277 88.0517 288.829 85.8952L288.816 85.9713C288.81 85.6605 288.683 85.2736 288.461 85.0389C288.245 84.7852 287.903 84.6457 287.535 84.5886C286.894 84.4744 286.216 85.077 285.785 85.7303C284.44 87.9121 284.25 90.6014 283.495 93.0369C282.981 94.5718 281.567 98.8341 281.04 100.432L280.507 100.312L282.601 85.0136C282.886 83.7577 283.159 82.3243 282.784 81.0811C282.664 80.8021 282.512 80.5357 282.258 80.4279C280.114 79.7746 279.867 83.2693 279.398 84.6711C278.186 88.9269 277.768 93.3668 276.48 97.6226C276.201 98.6184 275.757 99.5825 275.129 100.426C274.761 100.997 274.197 101.016 274.273 100.223L274.996 96.1892C275.351 93.3414 277.406 86.9417 274.799 84.9311C274.584 84.836 274.336 85.3624 274.228 85.5336C273.245 87.6711 272.839 90.0432 272.37 92.3393C271.863 94.908 270.493 101.783 269.966 104.441L269.922 104.504L267.778 107.669L267.277 108.411C267.144 107.872 266.192 104.003 266.034 103.375L266.002 103.249L266.059 103.109C266.966 100.743 267.309 97.6036 265.342 95.6818C264.829 95.1236 264.061 94.9017 263.516 95.4471L263.63 95.1998C262.85 101.035 262.051 107.301 261.258 112.921C261.397 114.76 262.564 116.631 263.484 118.261C264.524 119.98 265.666 121.655 266.865 123.266L266.662 123.12L267.042 123.247L267.486 123.399L267.302 123.83C263.579 132.659 256.019 150.463 252.251 159.279L252.15 159.52L251.915 159.419L232.83 151.11L232.875 151.015L252.118 158.943L251.782 159.082C255.435 150.19 262.812 132.367 266.509 123.5L266.769 124.078L266.383 123.951L266.256 123.906C264.987 122.238 263.807 120.519 262.71 118.731C261.67 116.86 260.465 115.116 260.332 112.858C261.105 106.876 261.936 100.908 262.742 94.9334C263.205 94.426 263.839 94.1532 264.511 94.242C267.15 94.9524 267.949 98.2442 267.588 100.616C267.454 101.593 267.213 102.513 266.839 103.439L266.865 103.172L267.841 107.352L267.125 107.219L269.306 104.079C269.598 102.303 271.336 94.4894 271.786 92.2251C272.37 89.7261 272.731 87.0559 274.082 84.8296C274.888 83.7133 275.915 85.2482 276.169 86.0537C276.816 88.058 276.48 90.2208 276.125 92.2314L275.383 96.2463L274.641 100.255C274.641 100.325 274.634 100.401 274.641 100.458C274.641 100.489 274.653 100.502 274.653 100.502C274.653 100.477 274.577 100.458 274.577 100.47C275.357 99.7093 275.82 98.5613 276.15 97.5148C277.539 92.9672 277.989 88.1595 279.29 83.5801C279.645 82.2926 279.873 80.5357 281.294 79.9902C283.19 79.4448 283.527 81.6837 283.368 83.041C283.247 83.6626 281.186 99.1512 281.059 100.382L280.527 100.261C281.402 97.4197 282.949 93.2462 283.527 90.354C284.078 88.2483 284.376 85.7873 286.184 84.3095C287.472 83.2313 289.641 84.2842 289.571 86.022C289.368 86.8656 286.622 98.5867 286.539 98.9419C286.051 100.857 285.264 103.337 284.909 105.278C284.897 105.367 284.909 105.291 284.884 105.278C284.827 105.056 284.541 104.923 284.351 105.012C285.036 104.397 285.746 103.439 286.381 102.64L286.317 102.754L287.992 98.5106L287.973 98.5804C288.486 96.8488 289.451 92.0602 291.632 91.9777C292.571 91.8826 293.586 92.4915 293.649 93.519V93.5824L293.637 93.6649L291.005 104.663C291.005 104.663 290.985 104.714 290.985 104.733C290.979 104.752 286.133 117.202 286.127 117.221C286.127 117.247 282.404 124.813 282.391 124.839L281.89 124.033L282.442 124.686C280.901 133.56 279.321 142.427 277.679 151.287C276.436 157.934 275.148 164.569 273.664 171.165C273.252 172.808 272.934 174.514 272.275 176.1C269.021 183.996 259.45 188.95 251.135 187.605C247.805 186.869 244.843 185.1 241.627 183.996C235.342 181.522 228.999 179.214 222.625 176.975L222.657 176.873L222.644 176.88Z" fill="black"/>
    <path d="M277.917 118.921C277.803 118.965 277.391 117.849 276.592 116.155C275.793 114.513 274.435 112.115 271.829 111.075C270.687 110.606 269.469 110.51 268.454 110.815L268.08 110.923L267.985 110.51C267.573 108.69 267.002 107.009 266.735 105.861C266.431 104.701 266.349 103.971 266.444 103.965C266.513 103.959 266.735 104.605 267.16 105.734C267.56 106.889 268.188 108.392 268.702 110.428L268.239 110.124C269.412 109.737 270.839 109.832 272.114 110.358C273.535 110.929 274.67 111.918 275.45 112.952C276.237 113.986 276.738 115.045 277.093 115.933C277.784 117.728 278 118.889 277.917 118.921Z" fill="black"/>
    <path d="M216.008 135.76L242.076 153.119L235.004 186.875L219.744 179.492L216.008 135.76Z" fill="url(#colorOne)"/>
    <path d="M181.119 75.0364C181.119 75.0364 170.488 70.2224 170.292 81.6645C170.089 93.1065 181.322 90.8422 181.347 90.5124C181.372 90.1826 181.125 75.0364 181.125 75.0364" fill="white"/>
    <path d="M183.756 93.8535C183.68 103.405 182.862 112.907 181.289 122.325C181.359 112.773 182.19 103.279 183.756 93.8535Z" fill="black"/>
    <path d="M248.729 58.0122C248.729 55.4054 246.662 53.1601 244.27 52.1389C241.873 51.1178 239.19 51.0607 236.59 51.029C238.036 47.8704 239.514 44.6039 239.615 41.1345C239.716 37.6651 238.093 33.8977 234.896 32.5467C232.137 31.386 228.947 32.2422 226.251 33.5425C223.556 34.8364 221.019 36.5742 218.101 37.2529C210.522 39.0161 203.145 33.2507 195.363 33.1556C190.707 33.1048 185.938 35.6038 182.665 39.2762C167.094 44.8132 161.379 57.4921 160.986 73.4691C160.276 74.3126 159.451 75.042 158.481 75.5875C157.009 76.412 155.316 76.7545 153.793 77.4903C152.278 78.226 150.85 79.5707 150.806 81.2578C150.743 83.4206 152.912 84.9746 154.973 85.6088C157.041 86.2431 159.33 86.4333 161.043 87.7526C157.891 89.4778 156.641 93.962 158.449 97.0699C160.25 100.178 164.766 101.319 167.83 99.4357C165.971 102.74 167.335 107.269 170.373 109.546C173.411 111.823 177.661 112.038 181.231 110.751C181.587 110.624 181.942 110.478 182.284 110.32C187.238 112.787 192.788 114.176 198.655 114.176C216.572 114.176 231.56 101.262 235.391 83.9597C237.7 82.8878 239.704 81.1627 241.029 78.9871C243.421 75.0421 243.459 69.7904 241.131 65.8072C244.651 64.2406 248.736 61.8685 248.742 58.0185" fill="black"/>
    <path d="M210.961 47.8306C196.791 47.8306 185.197 61.3466 184.157 78.497C181.131 77.7422 176.412 77.793 175.309 84.8206C173.863 94.0427 182.159 94.696 184.119 94.5184L182.254 119.128C180.561 119.882 185.33 127.855 188.026 128.895C194.235 129.054 200.508 130.195 206.711 130.931C208.011 130.83 209.312 130.823 210.58 130.931C210.136 127.424 208.506 124.411 205.576 121.969L207.085 113.806C208.354 114.035 209.648 114.155 210.967 114.155C225.815 114.155 237.853 99.307 237.853 80.9896C237.853 62.6722 225.815 47.8242 210.967 47.8242" fill="white"/>
    <path d="M181.25 63.3032C188.056 45.4805 208.371 36.8482 224.196 49.4256C235.714 58.4765 239.881 74.2886 237.35 88.3564C235.707 99.3608 229.289 110.898 217.707 113.537C214.574 114.317 211.308 114.412 208.117 114.057C203.411 113.568 198.451 113.067 194.347 110.517L194.405 110.429C197.176 111.989 200.335 112.585 203.455 112.959C208.105 113.441 212.919 113.904 217.485 112.642C226.815 110.321 232.898 101.67 235.327 92.7836C237.35 85.2232 237.889 77.13 236.177 69.4555C233.621 57.265 223.834 45.8928 211.016 44.5735C197.525 43.0005 186.857 51.8865 181.256 63.3095" fill="black"/>
    <path d="M183.58 91.354C183.542 91.316 183.383 91.4428 183.066 91.5253C182.755 91.6014 182.248 91.6014 181.759 91.3096C180.776 90.7261 180.205 88.8867 180.491 87.0854C180.637 86.1721 180.986 85.3476 181.442 84.688C181.886 84.0156 182.451 83.597 182.996 83.6034C183.548 83.578 183.859 83.9649 183.935 84.2693C184.017 84.5738 183.916 84.7577 183.967 84.7894C183.992 84.8211 184.214 84.6626 184.208 84.2376C184.208 84.0347 184.132 83.7746 183.935 83.5399C183.732 83.2989 183.402 83.134 183.022 83.1087C182.241 83.0199 181.417 83.597 180.916 84.3137C180.37 85.0305 179.958 85.9565 179.793 86.9776C179.482 88.9946 180.161 91.0686 181.518 91.7536C182.184 92.0644 182.812 91.9629 183.155 91.7853C183.51 91.595 183.605 91.3857 183.573 91.3604" fill="black"/>
    <path d="M239.025 61.4457C237.115 55.0587 232.105 49.8704 226.168 46.8323C220.231 43.8006 213.439 42.7541 206.772 42.8365C200.106 42.919 193.504 44.0733 186.939 45.2277C185.347 45.5067 183.603 45.8746 182.62 47.1621C181.954 48.0311 181.77 49.1727 181.611 50.2573C180.254 59.4033 179.404 69.8433 178.047 78.9893C180.99 78.1457 183.502 77.8032 185.081 79.9914C186.59 82.0845 186.184 84.501 186.083 85.0147C186.609 85.1353 187.491 85.2875 188.404 84.945C189.686 84.4629 190.472 83.1564 191.607 81.5009C198.14 71.9553 200.956 64.8453 202.453 54.5069C203.094 55.8134 203.062 57.3293 203.259 58.7691C203.455 60.2089 204.001 61.7691 205.301 62.4224C207.47 63.507 209.931 61.3061 210.762 59.0291C211.599 56.7522 211.726 54.1136 213.305 52.2743C214.935 56.1179 217.453 59.5809 220.612 62.3209C222.096 63.6085 224.177 64.7882 225.933 63.9002C227.177 63.2723 227.766 61.7564 227.703 60.3674C227.646 58.9784 227.062 57.6655 226.492 56.397C228.648 60.0059 231.876 62.9552 235.663 64.7819C236.494 65.1815 237.496 65.524 238.308 65.0927C239.494 64.4584 239.405 62.7396 239.018 61.4457" fill="black"/>
    <g opacity="0.3">
    <mask id="mask0_5018_6141" style="mask-type:luminance" maskUnits="userSpaceOnUse" x="226" y="84" width="7" height="8">
    <path d="M232.846 84.0059H226.586V91.5218H232.846V84.0059Z" fill="white"/>
    </mask>
    <g mask="url(#mask0_5018_6141)">
    <path d="M227.06 85.7057C227.574 84.564 228.493 84.2405 229.28 84.0059C229.908 84.101 230.542 84.1961 231.138 84.5703C231.734 84.9446 232.299 85.6296 232.616 86.6571C232.933 87.6846 232.946 89.0799 232.546 89.9996C232.229 90.729 231.722 91.0525 231.233 91.2491C230.415 91.5662 229.572 91.6106 228.747 91.3696C227.999 91.154 227.206 90.6085 226.819 89.378C226.413 88.0905 226.54 86.8473 227.054 85.7057" fill="#E3E3E2"/>
    </g>
    </g>
    <path d="M212.954 124.337C212.732 120.602 213.296 116.853 214.495 113.32C214.666 113.346 214.73 113.377 214.92 113.238C215.313 112.972 215.821 112.972 216.258 112.997C215.846 113.092 215.408 113.174 215.11 113.479C215.015 113.599 214.793 113.733 214.622 113.726L214.812 113.568C214.514 117.208 214.007 120.836 212.947 124.337" fill="black"/>
    <path d="M214.124 114.035C214.124 114.035 202.06 115.044 189.477 108.01C189.477 108.01 194.849 121.646 213.172 120.777L214.124 114.035Z" fill="black"/>
    <path d="M204.552 85.3229C205.066 84.1812 205.985 83.8577 206.772 83.623C207.4 83.7182 208.034 83.8133 208.63 84.1875C209.227 84.5617 209.791 85.2467 210.108 86.2742C210.425 87.3017 210.438 88.6971 210.038 89.6168C209.721 90.3462 209.214 90.6697 208.725 90.8663C207.907 91.1834 207.064 91.2278 206.239 90.9868C205.491 90.7711 204.698 90.2257 204.311 88.9952C203.905 87.7077 204.032 86.4645 204.546 85.3229" fill="#E4E4E4"/>
    <path d="M211.981 74.179C211.772 74.7372 209.723 74.4517 207.313 74.7118C204.896 74.9274 202.949 75.6124 202.632 75.105C202.492 74.864 202.835 74.3439 203.628 73.8111C204.414 73.2784 205.657 72.7836 207.103 72.6378C208.55 72.4982 209.869 72.7392 210.744 73.1071C211.626 73.475 212.063 73.919 211.975 74.179" fill="#192E35"/>
    <path d="M232.565 74.9611C232.197 75.4241 230.789 74.9294 229.089 74.8913C227.39 74.7962 225.95 75.1767 225.62 74.6883C225.474 74.4473 225.709 73.9843 226.337 73.5467C226.958 73.109 227.998 72.7602 229.165 72.8046C230.333 72.849 231.341 73.2803 231.931 73.7623C232.527 74.2444 232.724 74.7264 232.559 74.9547" fill="#192E35"/>
    <path d="M220.155 79.938C220.39 82.9507 221.012 85.9064 222.147 88.7034C223.257 91.3166 224.291 93.9171 220.168 93.397C219.407 93.2638 218.671 93.0671 217.961 92.8134C218.709 92.9466 219.451 93.0862 220.2 93.1306C223.955 93.4223 222.521 91.1263 221.64 88.9001C220.504 86.0713 219.965 82.9761 220.155 79.9316" fill="black"/>
    <path d="M221.609 280.357C221.609 280.357 221.683 276.915 225.539 301.115H155.039C155.039 301.115 152.158 297.716 151.644 291.19C151.13 284.663 153.471 268.191 153.471 268.191L221.616 280.35L221.609 280.357Z" fill="black"/>
    <path d="M176.373 119.396L215.285 134.016C215.285 134.016 221.457 156.019 222.966 165.342C225.3 179.746 226.41 281.938 226.41 281.938C226.41 281.938 149.836 279.566 149.836 273.655C149.836 267.743 150.775 252.749 153.236 243.381C155.697 234.02 156.705 185.562 156.705 185.562C156.705 185.562 157.168 152.961 161.107 142.617C165.045 132.272 176.373 119.396 176.373 119.396Z" fill="url(#colorOne)"/>
    <path d="M216.812 139.211C218.798 145.154 220.726 152.277 222.071 160.433C223.377 168.393 223.84 175.598 223.878 181.744L224.512 181.63C228.172 167.264 225.286 151.37 216.812 139.211Z" fill="url(#colorOne)"/>
    <path d="M216.045 135.943C216.095 135.931 216.419 136.812 216.958 138.423C217.497 140.034 218.239 142.381 219.064 145.311C220.725 151.153 222.698 159.367 223.776 168.601C224.88 177.83 225.083 186.253 225.083 192.329C225.076 195.367 225.038 197.828 224.969 199.528C224.912 201.228 224.854 202.167 224.797 202.167C224.747 202.167 224.702 201.228 224.664 199.528C224.632 197.701 224.588 195.278 224.531 192.342C224.391 186.278 224.1 177.887 223.002 168.703C221.93 159.513 220.053 151.337 218.531 145.464C217.776 142.527 217.116 140.161 216.666 138.525C216.216 136.889 215.987 135.975 216.038 135.956" fill="black"/>
    <path d="M185.255 227.701L138.681 260.512L137.102 249.197L185.255 210.957V227.701Z" fill="url(#colorTwo)"/>
    <path d="M92.8069 298L548.481 299.06C549.423 299.06 550.18 299.932 550.18 301.008C550.18 302.076 549.423 302.948 548.481 302.948L92.8069 304C91.3576 304 90.1797 302.663 90.1797 301.008C90.1797 299.345 91.3576 298 92.8069 298.008" fill="black"/>
    <path d="M153.305 151.407C162.337 139.597 178.371 129.849 193.783 131.472C199.707 132.094 205.726 134.219 209.722 138.646C213.693 143.048 215.177 149.13 215.982 155.003C219.287 179.035 213.223 204.235 199.346 224.138C198.045 226.002 196.58 227.905 194.493 228.812C192.407 229.719 189.54 229.231 188.519 227.195C200.519 208.389 206.64 185.885 205.809 163.591C205.568 157.198 204.527 150.291 199.967 145.8C196.085 141.976 193.054 141.05 187.612 140.885C180.743 140.682 174.571 144.449 168.521 150.259C163.567 155.016 155.468 163.452 154.002 170.162" fill="url(#colorTwo)"/>
    <path d="M167.198 156.963L166.5 202.808L205.361 201.786C209.566 200.03 207.486 176.416 205.399 154.192C205.158 151.604 202.716 149.847 201.232 147.938C194.287 147.475 187.342 147.012 180.397 146.549L167.198 156.97V156.963Z" fill="url(#colorOne)"/>
    <path d="M163.366 146.453C162.713 145.527 161.355 145.483 160.245 145.718C155.85 146.663 152.685 150.424 150.11 154.109C141.173 166.87 134.964 181.521 132.002 196.82L131.672 198.412C133.226 200.556 134.869 202.769 137.215 203.981C139.568 205.192 142.848 205.046 144.44 202.934C145.499 201.526 145.581 199.636 145.651 197.873C145.968 189.374 146.869 180.843 149.311 172.699C151.753 164.555 155.805 156.779 161.812 150.76C162.992 149.58 164.336 147.811 163.366 146.447" fill="url(#colorTwo)"/>
    <g style="mix-blend-mode:multiply" opacity="0.33">
    <mask id="mask1_5018_6141" style="mask-type:luminance" maskUnits="userSpaceOnUse" x="184" y="200" width="25" height="81">
    <path d="M208.308 200.281H184.352V280.693H208.308V200.281Z" fill="white"/>
    </mask>
    <g mask="url(#mask1_5018_6141)">
    <path d="M206.789 200.718C205.4 202.107 193.591 203.496 186.645 202.107C182.561 229.019 184.4 253.78 188.491 280.686L194.694 280.286C198.132 274.831 199.14 268.248 200.073 261.867L206.77 216.029C207.405 211.704 209.878 197.629 206.789 200.718Z" fill="url(#colorOne)"/>
    </g>
    </g>
    <path d="M160.203 329.165V277.09H232.847V329.165H160.203Z" fill="url(#colorOne)" stroke="black"/>
    <path d="M174.836 202.807C174.836 202.807 172.368 231.393 171.721 240.019C171.1 248.289 177.626 302.861 177.626 302.861L178.127 308.817V318.191C178.127 320.037 179.206 324.648 179.979 326.183C180.747 327.718 183.829 326.798 183.829 326.798C183.829 326.798 184.14 328.948 185.834 329.874C187.527 330.794 189.531 328.339 189.531 328.339C189.842 330.952 190.61 332.183 192.766 332.183C194.923 332.183 196.229 330.185 196.229 330.185C196.458 332.95 200.009 333.413 201.088 332.798C202.166 332.183 201.703 320.963 201.703 320.963C203.866 324.293 205.832 321.66 205.832 321.66L202.629 308.056L195.684 300.394L196.502 243.184L201.931 202.819" fill="white"/>
    <path d="M174.893 202.808C174.158 213.825 173.016 228.362 172.179 239.303C171.9 244.815 172.68 250.32 173.105 255.826C173.942 264.648 174.855 273.477 175.838 282.287C176.333 286.702 177.576 297.858 178.071 302.12C178.299 304.359 178.452 306.579 178.635 308.812L178.623 314.26C178.623 315.097 178.604 317.508 178.616 318.332C178.75 320.533 179.289 322.753 179.929 324.859C180.069 325.265 180.227 325.715 180.399 326.038C181.109 326.977 182.657 326.635 183.716 326.4L184.154 326.286C184.306 327.573 184.959 329.076 186.202 329.609C187.629 330.015 188.936 328.487 189.786 327.491C189.906 328.493 190.001 329.66 190.426 330.542C191.048 331.988 193.001 332.121 194.264 331.487C195.202 331.055 195.9 330.18 196.464 329.343L196.515 330.136C196.623 332.165 199.179 333.199 200.923 332.578C201.386 332.026 201.348 330.833 201.456 330.066C201.684 326.825 201.602 323.539 201.494 320.279C202.477 321.998 204.019 323.463 205.693 321.535L205.661 321.681C204.868 318.281 203.264 311.469 202.446 308.076C202.744 308.495 195.424 300.414 195.507 300.528C195.431 300.452 195.45 300.465 195.45 300.37C195.519 287.05 195.621 270.775 195.824 257.456C195.824 257.45 196.071 243.115 196.078 243.103C197.917 229.65 199.864 216.216 201.875 202.789L201.983 202.802C200.384 216.191 198.678 229.986 196.927 243.166C196.718 261.135 196.464 282.902 195.856 300.218L202.769 307.911L202.801 307.949L202.813 307.994C203.594 311.425 205.211 318.256 206.029 321.681C205.141 322.911 203.479 323.216 202.388 322.068C202.065 321.763 201.792 321.408 201.551 321.047L201.894 320.939C202.002 323.996 202.084 327.047 201.919 330.104C201.837 330.967 201.837 331.893 201.456 332.73C201.412 332.85 201.247 332.977 201.152 333.022C199.097 333.852 196.097 332.584 195.944 330.186L196.477 330.32C195.963 331.043 195.323 331.626 194.536 332.032C193.35 332.635 191.809 332.673 190.686 331.899C189.589 331.074 189.354 329.59 189.177 328.36L189.798 328.537C189.329 329.089 188.809 329.565 188.181 329.945C185.929 331.48 183.76 329.038 183.424 326.838L183.938 327.167C182.574 327.503 180.621 327.884 179.65 326.47C179.39 325.994 179.251 325.575 179.092 325.131C178.388 322.918 177.811 320.679 177.646 318.351C177.627 315.909 177.621 311.292 177.614 308.799C176.948 300.319 175.591 291.015 174.728 282.401C173.783 273.579 172.832 264.756 172.096 255.908C171.741 250.378 171.031 244.79 171.386 239.234C171.931 233.1 172.933 222.235 173.498 216.039L174.779 202.789H174.887L174.893 202.808Z" fill="black"/>
    <path d="M196.09 321.752C195.906 321.752 195.785 323.642 195.83 325.97C195.868 328.298 196.052 330.181 196.235 330.175C196.419 330.175 196.534 328.285 196.496 325.957C196.457 323.629 196.274 321.746 196.09 321.752Z" fill="black"/>
    <path d="M189.351 321.451C189.167 321.451 189.027 322.967 189.04 324.832C189.053 326.697 189.211 328.212 189.395 328.212C189.579 328.212 189.719 326.697 189.706 324.832C189.693 322.967 189.535 321.451 189.351 321.451Z" fill="black"/>
    <path d="M183.71 321.065C183.514 321.097 183.628 322.397 183.71 323.938C183.774 325.479 183.634 326.754 183.824 326.792C183.989 326.83 184.44 325.562 184.376 323.913C184.287 322.276 183.869 321.039 183.704 321.065" fill="black"/>
    <path d="M201.863 313.34C201.672 313.34 201.584 315.205 201.507 317.482C201.438 319.765 201.406 321.623 201.596 321.642C201.774 321.661 202.104 319.809 202.173 317.507C202.25 315.198 202.04 313.334 201.863 313.34Z" fill="black"/>
    <path d="M171.137 161.015C169.976 173.199 169.85 185.428 169.488 197.643C169.456 198.328 169.526 198.944 169.786 199.546C170.389 201.068 171.987 202.115 173.649 202.09L174.727 202.115L176.884 202.166C184.044 202.299 191.332 202.223 198.486 202.071C199.203 202.032 203.18 202.026 203.814 201.906C205.901 201.601 207.512 199.584 207.334 197.479C206.928 190.153 206.516 182.688 206.199 175.368C206.04 171.201 205.856 166.603 205.749 162.417C205.704 161.237 205.692 159.328 205.52 158.154C204.873 152.522 201.924 147.188 197.326 143.782L197.402 143.668C202.381 146.763 205.723 152.218 206.592 158.009C206.827 159.226 206.859 161.11 206.954 162.366C207.207 166.565 207.474 171.138 207.677 175.305C208.026 182.624 208.279 190.096 208.539 197.428C208.685 200.079 206.611 202.616 203.954 202.895C203.193 202.997 199.324 202.838 198.486 202.838C191.338 202.692 184.044 202.61 176.884 202.743C176.243 202.743 174.283 202.813 173.642 202.819C171.676 202.927 169.716 201.772 168.892 199.946C168.207 198.531 168.448 196.977 168.391 195.474C168.384 189.709 168.594 183.937 168.974 178.184C169.393 172.432 169.926 166.673 170.991 160.996L171.131 161.015H171.137Z" fill="black"/>
    <path d="M154.594 168.627C158.704 159.151 165.75 150.995 174.408 145.382C175.657 144.595 176.92 143.84 178.226 143.168C168.319 149.466 160.137 158.289 154.594 168.633" fill="url(#colorOne)"/>
    <path d="M152.266 151.75C154.974 148.313 158.247 145.344 161.627 142.579C165.052 139.883 168.617 137.213 172.663 135.52C168.883 137.682 165.471 140.416 162.065 143.118C158.684 145.845 155.354 148.687 152.266 151.75Z" fill="url(#colorOne)"/>
    <path d="M383.564 284.093C376.689 285.66 337.219 290.582 330.185 290.112C323.151 289.643 315.946 286.821 311.779 281.138C308.474 276.634 307.428 270.894 306.831 265.338C304.738 245.892 307.085 226.243 306.394 206.695C306.064 197.251 305.024 187.743 306.419 178.4C307.815 169.058 312.064 159.626 320.005 154.501C327.198 149.865 336.21 149.408 344.76 149.091C354.591 148.73 360.078 148.501 369.909 148.812C373.283 148.92 379.181 156.88 384.655 162.855C389.165 167.783 401.97 166.051 402.04 172.73C402.351 203.06 400.296 233.365 398.235 263.626C397.911 268.402 397.537 273.343 395.266 277.56C392.996 281.772 388.258 285.064 383.57 284.093" fill="url(#colorTwo)"/>
    <path d="M340.477 202.167C340.477 203.397 351.265 260.728 351.265 260.728L343.539 299.498H435.039L437.341 256.028L427.675 153.278L419.049 152.511C419.049 152.511 420.488 166.052 409.084 167.206C397.801 168.348 378.665 150.475 378.665 150.475L351.576 156.5L340.477 202.16V202.167Z" fill="url(#colorOne)"/>
    <path d="M351.578 156.506C351.578 156.506 340.955 158.263 334.593 168.1C328.231 177.937 293.417 234.444 295.148 248.042C296.886 261.641 311.481 264.286 311.481 264.286L361.682 265.605L364.023 244.478C351.211 241.617 335.741 238.769 332.684 235.883L351.369 203.682C351.369 203.682 363.522 184.299 361.784 173.016C360.046 161.732 351.578 156.506 351.578 156.506Z" fill="url(#colorOne)"/>
    <path d="M402.696 231.765C403.705 231.41 404.758 231.112 405.823 231.105C406.895 231.105 408.005 231.416 408.773 232.165C409.54 232.907 409.895 234.125 409.464 235.101C409.166 235.774 408.563 236.256 407.98 236.706C406.052 238.203 404.123 239.693 402.195 241.19" fill="white"/>
    <path d="M351.576 156.506C351.576 156.506 355.914 153.753 361.889 153.106C367.864 152.459 373.407 150.918 373.407 150.918C373.407 150.918 403.382 181.197 404.993 207.031C406.611 232.864 407.511 252.241 395.143 263.861C385.04 273.349 340.477 289.586 340.477 289.586L343.711 273.045C343.711 273.045 352.984 271.218 361.68 265.598C370.16 260.118 378.037 250.972 380.327 240.609C384.976 219.621 385.046 221.879 380.327 206.06C375.608 190.236 359.181 161.193 351.57 156.506" fill="url(#colorTwo)"/>
    <path d="M362.719 262.549C365.985 262.574 376.089 262.416 379.267 259.479C379.267 259.479 380.256 259.194 380.256 257.786C380.256 256.695 380.174 253.339 380.135 251.862C380.123 251.475 380.44 251.164 380.827 251.183L383.675 251.291C383.84 251.291 383.998 251.335 384.144 251.411C385.038 251.862 388.432 253.523 389.288 253.276C390.277 252.997 390.842 251.722 390.981 251.018C391.121 250.314 388.019 247.206 386.465 246.787C384.911 246.363 382.374 245.659 382.374 245.659C382.374 245.659 382.089 244.105 383.364 244.244C383.954 244.308 384.728 244.409 385.387 244.491C386.275 244.606 387.112 244.954 387.823 245.5L392.389 249.039C392.389 249.039 394.362 249.039 394.508 246.921C394.647 244.802 393.239 243.109 393.239 243.109L389.884 239.754C389.497 239.367 388.996 239.119 388.451 239.056L383.503 238.453C383.503 238.453 383.364 237.045 384.493 236.76C385.622 236.474 387.88 236.899 387.88 236.899L394.52 240.851C394.52 240.851 395.783 240.286 395.783 238.593C395.783 236.899 391.552 230.271 388.869 229.846C386.186 229.421 383.529 230.157 383.529 230.157L383.649 223.777L386.047 222.368C386.047 222.368 389.713 222.654 390.842 221.944C391.971 221.24 390.981 219.546 390.981 219.546L384.347 217.916C384.347 217.916 378.138 220.536 377.719 221.24C377.294 221.944 377.719 223.497 377.719 223.497L377.529 229.986C377.529 229.986 373.622 234.077 373.343 235.491C373.057 236.899 373.343 239.018 373.343 239.018C373.343 239.018 372.214 241.84 372.214 242.544V244.238L370.806 245.367H363.588" fill="white"/>
    <path d="M362.719 262.512C365.567 262.486 368.414 262.328 371.224 261.941C373.977 261.528 377.002 261.04 379.203 259.264C380.44 258.687 379.901 257.038 379.964 255.934L379.856 252.002C379.787 251.609 380.04 251.069 380.484 250.943C380.789 250.847 381.245 250.911 381.569 250.911L383.535 250.968C384.125 250.93 384.797 251.412 385.476 251.691C386.592 252.173 387.873 252.807 389.047 252.934C389.301 252.934 389.497 252.788 389.7 252.636C390.176 252.211 390.499 251.558 390.626 250.936C390.607 250.936 390.626 250.943 390.594 250.873C389.764 249.427 388.33 248.222 386.909 247.353C386.421 247.048 382.875 246.198 382.267 245.995L382.038 245.932L382.007 245.704C381.797 244.505 382.457 243.617 383.681 243.896C384.994 244.061 386.453 244.105 387.601 244.892C389.091 245.97 391.121 247.632 392.592 248.754L392.377 248.685C392.871 248.666 393.43 248.437 393.74 248.044C394.736 246.674 393.836 244.454 392.998 243.332C392.326 242.653 390.645 240.966 390.005 240.306C389.523 239.773 389.072 239.412 388.387 239.336L387.683 239.247C386.795 239.133 384.379 238.822 383.459 238.701L383.243 238.676C383.199 238.086 383.25 237.484 383.656 236.989C383.998 236.564 384.588 236.462 385.089 236.443C386.072 236.418 387.036 236.513 387.975 236.716L394.59 240.706H394.432C396.043 239.767 395.707 238.01 394.914 236.615C394.172 235.175 393.265 233.811 392.224 232.562C391.438 231.655 390.594 230.729 389.51 230.19C387.569 229.505 385.343 229.885 383.377 230.329V230.164L383.459 223.784V223.688L383.541 223.638L385.926 222.204L385.977 222.173H386.04C387.271 222.236 388.539 222.255 389.738 222.052C391.286 221.868 391.387 220.866 390.74 219.68L390.905 219.8L384.265 218.208L384.455 218.196C382.311 219.173 379.977 220.048 378.023 221.354C377.636 221.862 377.897 222.877 378.004 223.505L377.795 229.993V230.101C376.324 231.712 374.732 233.31 373.685 235.213C373.273 236.386 373.444 237.801 373.546 239.044C373.133 240.097 372.696 241.156 372.423 242.247C372.328 242.729 372.391 243.82 372.366 244.315L372.302 244.365L370.875 245.475L370.837 245.507H370.793L363.575 245.406V245.336L370.793 245.228L370.704 245.26L372.099 244.112L372.036 244.238L372.023 242.888C372.023 241.505 372.702 240.224 373.133 238.936C372.975 238.181 372.81 236.158 373.235 235.016C374.256 233.031 375.842 231.439 377.313 229.79L377.237 229.974L377.402 223.486L377.415 223.574C377.25 222.705 376.958 221.703 377.567 220.929C379.628 219.439 382.019 218.652 384.309 217.6L384.404 217.625L391.026 219.287L391.14 219.318C391.324 219.655 391.47 219.991 391.552 220.365C391.888 221.646 391.007 222.382 389.821 222.502C388.539 222.693 387.277 222.648 386.015 222.56L386.129 222.534L383.719 223.923L383.802 223.784L383.643 230.164L383.478 230.037C385.463 229.625 387.658 229.276 389.605 229.999C392.129 231.426 393.778 234.014 395.18 236.481C396.1 238.042 396.373 240.059 394.501 241.048L394.419 240.997L387.753 237.084C387.239 237.046 385.901 236.818 385.121 236.906C384.131 236.894 383.675 237.503 383.744 238.429L383.522 238.2C384.823 238.353 387.182 238.619 388.457 238.765C389.719 238.841 390.588 240.103 391.444 240.877L393.461 242.875C393.893 243.408 394.197 243.978 394.444 244.594C395.282 246.541 394.914 249.357 392.275 249.382L392.174 249.306L389.687 247.391C388.495 246.547 387.328 245.291 385.882 244.955C385.425 244.835 384.892 244.803 384.379 244.733C384.062 244.708 383.243 244.543 383.002 244.632C382.692 244.74 382.692 245.279 382.736 245.583L382.476 245.298C383.237 245.545 386.611 246.344 387.265 246.725C388.742 247.6 389.992 248.748 391.007 250.137C391.172 250.41 391.368 250.676 391.337 251.063C391.089 252.186 390.334 253.575 389.047 253.638C387.207 253.397 385.571 252.395 383.922 251.64C383.7 251.532 381.842 251.532 381.563 251.494L381.074 251.475C380.871 251.45 380.579 251.444 380.472 251.659C380.421 251.754 380.415 251.799 380.421 251.995L380.472 255.941C380.415 257.241 380.909 259.061 379.336 259.689C377.503 261.287 373.958 261.934 371.275 262.251C368.478 262.499 365.395 262.778 362.731 262.518" fill="black"/>
    <path d="M378.516 244.535C378.497 244.642 377.939 244.547 377.095 244.509C376.252 244.439 375.142 244.731 374.38 245.746C373.607 246.723 373.385 247.909 373.213 248.752C373.061 249.609 372.953 250.154 372.852 250.141C372.757 250.135 372.687 249.59 372.719 248.695C372.763 247.82 372.915 246.475 373.829 245.308C374.279 244.738 374.869 244.306 375.49 244.103C376.112 243.894 376.702 243.938 377.152 244.014C378.053 244.198 378.541 244.458 378.522 244.541" fill="black"/>
    <path d="M389.567 239.398C389.528 239.537 384.975 238.554 381.34 238.579C379.533 238.586 377.864 238.573 376.704 238.611C375.53 238.656 374.852 238.909 374.807 238.82C374.757 238.738 375.429 238.294 376.653 238.116C377.871 237.945 379.507 237.882 381.347 237.875C385.013 237.85 389.624 239.163 389.567 239.404" fill="black"/>
    <path d="M387.46 229.565C387.434 229.711 385.176 230.314 382.582 230.796C380.001 231.246 377.838 231.487 377.813 231.253C377.8 231.1 379.849 230.555 382.468 230.105C383.775 229.889 384.986 229.781 385.868 229.8C386.749 229.813 387.472 229.483 387.46 229.572" fill="black"/>
    <path d="M368.942 258.845C368.751 258.902 367.87 255.801 368.371 251.9C368.859 247.987 370.641 245.247 370.806 245.367C371.035 245.475 369.658 248.272 369.202 252.001C368.72 255.725 369.208 258.807 368.948 258.839" fill="black"/>
    <path d="M452.01 219.031C448.927 195.709 440.86 165.975 436.591 158.624C432.322 151.273 427.914 152.573 427.68 153.283L436.616 247.826L436.832 273.425C440.936 268.103 448.693 257.777 448.693 257.777C448.693 257.777 455.099 242.359 452.016 219.037" fill="url(#colorTwo)"/>
    <path d="M454.155 215.702C454.434 215.125 454.986 214.123 456.489 213.729C457.993 213.336 459.781 213.615 460.771 214.814C461.855 216.127 461.659 218.15 460.771 219.596C459.883 221.049 458.995 222.793 457.593 223.763C461.64 223.491 461.836 227.861 460.371 230.689C461.424 230.119 462.857 230.74 463.384 231.818C463.91 232.897 463.657 234.229 462.997 235.231C462.337 236.233 461.335 236.95 460.295 237.558C458.177 238.795 455.842 239.664 453.432 240.108C452.551 240.267 451.548 240.343 450.863 239.766C450.178 239.188 450.356 237.761 451.25 237.717C450.077 237.736 448.847 237.742 447.794 237.21C446.747 236.677 445.961 235.421 446.367 234.317C446.576 233.753 447.045 233.328 447.496 232.935C450.014 230.727 452.259 228.298 454.777 226.091C452.944 226.751 451.238 227.639 449.354 227.138C447.47 226.636 445.935 224.423 446.874 222.717C447.591 221.41 449.176 220.535 450.42 219.71C452.094 218.607 453.128 216.863 454.295 215.524" fill="white"/>
    <path d="M454.125 215.682C454.988 213.386 458.14 212.808 460.132 213.988C461.578 214.819 462.047 216.709 461.622 218.25C461.457 219.03 461.007 219.747 460.633 220.375C459.865 221.669 459.098 223.071 457.766 224.028L457.563 223.458C461.844 223.16 462.187 227.897 460.55 230.802L460.259 230.517C462.491 229.515 464.381 232.026 463.646 234.094C462.599 237.494 457.195 239.378 454.03 240.189C452.857 240.456 451.201 240.811 450.396 239.606C449.939 238.857 450.199 237.538 451.22 237.468L451.239 238.014C450.06 238.046 448.747 238.065 447.637 237.506C446.47 236.91 445.569 235.566 446.058 234.189C446.419 233.308 447.148 232.832 447.688 232.312C449.99 230.206 452.153 227.923 454.531 225.842L454.893 226.451C454.049 226.749 453.212 227.117 452.305 227.371C451.411 227.637 450.402 227.745 449.444 227.517C447.554 227.067 445.874 225.119 446.432 223.102C447.148 221.238 449.045 220.464 450.542 219.436C452.02 218.428 453.047 216.874 454.265 215.529L454.316 215.574C453.174 216.969 452.254 218.593 450.738 219.715C449.368 220.724 447.529 221.606 446.939 223.255C446.502 224.878 448.03 226.566 449.584 226.87C451.335 227.238 453.003 226.356 454.645 225.766L456.421 225.119L455.001 226.375C452.667 228.437 450.516 230.739 448.144 232.826C447.554 233.358 446.907 233.821 446.673 234.424C446.191 235.8 447.605 237.107 448.943 237.304C449.673 237.462 450.447 237.462 451.227 237.456L451.246 238.001C450.922 238.001 450.688 238.363 450.681 238.781C450.795 241.686 457.975 238.693 459.402 237.919C461.051 237.05 462.884 235.933 463.385 234.024C463.639 233.13 463.512 232.077 462.878 231.418C462.269 230.752 461.21 230.46 460.455 230.897L459.859 231.24C460.671 229.737 461.178 227.91 460.772 226.255C460.259 224.041 458.394 223.965 456.491 224.155L457.398 223.521C458.571 222.703 459.352 221.377 460.132 220.096C460.963 218.878 461.502 217.47 461.115 216.018C460.525 213.773 457.576 213.246 455.692 214.153C455.026 214.477 454.512 215.054 454.17 215.726L454.106 215.694L454.125 215.682Z" fill="black"/>
    <path d="M460.459 231.108C460.612 231.267 458.734 233.297 455.905 235.168C453.083 237.051 450.476 237.99 450.394 237.787C450.292 237.565 452.69 236.316 455.449 234.476C458.214 232.65 460.301 230.931 460.466 231.108" fill="black"/>
    <path d="M430.315 73.8616C445.582 69.6438 451.88 72.2189 454.836 75.219C459.586 80.033 464.128 90.0353 458.407 102.124C453.84 111.771 446.692 109.704 454.271 122.795C450.548 125.262 442.176 124.33 439.112 119.351C433.601 110.395 437.013 89.604 430.848 83.7244C418.493 71.9398 432.148 76.0625 430.309 73.868" fill="black"/>
    <path d="M428.053 73.8121C431.979 72.5435 436.273 75.4675 437.415 79.3111C438.544 83.2181 437.485 88.7235 433.882 90.88C434.548 89.1928 434.618 87.5184 434.58 85.7805C434.51 84.1441 434.282 82.476 433.838 81.1314C432.556 78.1567 430.298 76.1905 428.047 73.8184" fill="url(#colorOne)"/>
    <path d="M380.123 131.059C381.499 123.479 382.552 118.754 381.69 115.773C379.958 109.792 380.142 100.855 381.005 101.331C383.421 102.676 390.36 97.0054 406.445 75.8909C412.933 77.7937 421.629 81.5358 427.762 89.6417C432.151 95.4388 433.318 100.957 434.638 100.646C436.471 100.215 436.693 89.0328 432.462 79.1003C431.359 76.5062 428.98 71.0832 423.354 66.2882C418.236 61.9245 413.092 60.3199 411.107 59.7744C404.973 58.1063 400.007 58.7913 397.153 59.2099C387.658 60.6053 380.846 65.21 377.282 68.0832C374.028 71.7365 368.465 79.0686 366.429 89.7114C362.294 111.295 378.087 128.712 380.123 131.059Z" fill="black"/>
    <path d="M381.784 118.236C381.708 127.699 380.896 137.15 379.336 146.48C379.406 137.017 380.23 127.566 381.784 118.236Z" fill="black"/>
    <path d="M408.759 72.581C394.711 72.581 383.205 85.9893 382.171 103C379.171 102.252 374.484 102.302 373.393 109.273C371.96 118.425 380.192 119.072 382.133 118.895L380.281 143.301C378.6 144.049 385.717 151.381 388.393 152.415C394.558 152.574 398.389 154.28 404.542 155.009C405.836 154.908 407.117 154.902 408.379 155.009C407.935 151.527 406.324 148.54 403.413 146.117L404.91 138.024C406.165 138.246 407.453 138.366 408.759 138.366C423.487 138.366 435.43 123.639 435.43 105.467C435.43 87.2959 423.487 72.5684 408.759 72.5684" fill="white"/>
    <path d="M379.288 87.9251C386.036 70.2483 406.187 61.6795 421.884 74.1617C433.307 83.1428 437.443 98.8217 434.931 112.782C433.301 123.697 426.939 135.139 415.447 137.759C412.339 138.533 409.104 138.621 405.933 138.273C401.265 137.791 396.349 137.296 392.271 134.759L392.328 134.67C395.074 136.218 398.208 136.814 401.303 137.182C405.914 137.657 410.69 138.12 415.218 136.865C424.479 134.562 430.51 125.981 432.914 117.164C434.918 109.668 435.458 101.638 433.758 94.0267C431.227 81.9314 421.517 70.6543 408.8 69.3477C395.417 67.7874 384.837 76.6036 379.281 87.9315" fill="black"/>
    <path d="M381.602 115.755C381.564 115.716 381.405 115.843 381.088 115.919C380.777 115.996 380.276 115.996 379.794 115.704C378.824 115.127 378.253 113.3 378.538 111.511C378.684 110.604 379.033 109.786 379.483 109.133C379.921 108.467 380.485 108.048 381.025 108.055C381.57 108.029 381.887 108.416 381.951 108.714C382.033 109.019 381.932 109.203 381.982 109.228C382.008 109.26 382.223 109.101 382.223 108.683C382.223 108.48 382.147 108.226 381.951 107.991C381.748 107.757 381.418 107.592 381.044 107.56C380.27 107.471 379.452 108.042 378.957 108.759C378.418 109.469 378.005 110.389 377.841 111.404C377.53 113.408 378.202 115.463 379.553 116.141C380.213 116.452 380.834 116.351 381.177 116.173C381.526 115.989 381.621 115.774 381.589 115.748" fill="black"/>
    <path d="M434.671 85.9136C432.857 79.5836 428.068 74.4525 422.379 71.4588C416.689 68.4651 410.175 67.4503 403.776 67.5518C397.376 67.6532 391.04 68.8203 384.735 69.981C383.207 70.26 381.532 70.6343 380.587 71.9091C379.947 72.7781 379.769 73.907 379.61 74.9789C378.279 84.0552 377.441 94.4063 376.109 103.476C378.932 102.633 381.348 102.284 382.858 104.453C384.304 106.527 383.904 108.924 383.809 109.432C384.317 109.546 385.16 109.698 386.036 109.356C387.266 108.874 388.027 107.58 389.118 105.931C395.41 96.4423 398.131 89.3893 399.602 79.1333C400.211 80.4272 400.18 81.9304 400.363 83.3575C400.547 84.7846 401.067 86.3322 402.317 86.9728C404.397 88.0447 406.757 85.8501 407.569 83.5922C408.38 81.3342 408.507 78.7147 410.023 76.8881C411.577 80.6936 413.987 84.1186 417 86.8269C418.421 88.1018 420.412 89.2625 422.099 88.3808C423.292 87.7529 423.863 86.2497 423.812 84.8734C423.761 83.4907 423.203 82.1968 422.658 80.941C424.713 84.5118 427.808 87.4294 431.429 89.2307C432.229 89.624 433.186 89.9665 433.966 89.5352C435.108 88.9073 435.026 87.1948 434.664 85.9199" fill="black"/>
    <path d="M410.735 148.471C410.513 144.767 411.077 141.05 412.264 137.543C412.435 137.568 412.498 137.6 412.682 137.461C413.069 137.194 413.57 137.194 414.014 137.22C413.602 137.308 413.171 137.397 412.872 137.695C412.777 137.816 412.562 137.949 412.39 137.943L412.581 137.784C412.283 141.393 411.781 144.996 410.735 148.465" fill="black"/>
    <path d="M411.897 138.246C411.897 138.246 399.935 139.242 387.453 132.271C387.453 132.271 392.781 145.794 410.959 144.938L411.897 138.246Z" fill="black"/>
    <path d="M402.401 109.775C402.908 108.646 403.821 108.323 404.601 108.088C405.223 108.183 405.851 108.272 406.447 108.646C407.037 109.014 407.601 109.699 407.912 110.72C408.223 111.741 408.236 113.124 407.842 114.037C407.532 114.76 407.024 115.084 406.542 115.274C405.737 115.591 404.893 115.629 404.081 115.395C403.339 115.179 402.553 114.64 402.166 113.422C401.766 112.147 401.893 110.91 402.401 109.781" fill="#E4E4E4"/>
    <path d="M409.772 98.7128C409.563 99.2646 407.533 98.9792 405.142 99.2456C402.744 99.4612 400.81 100.14 400.499 99.6388C400.36 99.3978 400.702 98.884 401.489 98.3576C402.269 97.8311 403.506 97.3364 404.939 97.1905C406.372 97.051 407.685 97.292 408.554 97.6536C409.43 98.0151 409.861 98.4591 409.772 98.7191" fill="#192E35"/>
    <path d="M430.193 99.4928C429.832 99.9495 428.43 99.4611 426.749 99.4231C425.062 99.3279 423.629 99.7085 423.305 99.2201C423.166 98.9854 423.394 98.5224 424.016 98.0911C424.637 97.6598 425.665 97.311 426.825 97.3554C427.986 97.3998 428.982 97.8311 429.565 98.3068C430.155 98.7888 430.352 99.2645 430.193 99.4865" fill="#192E35"/>
    <path d="M417.877 104.434C418.118 107.421 418.708 110.358 419.85 113.13C420.953 115.718 421.974 118.299 417.89 117.785C417.135 117.652 416.406 117.462 415.695 117.208C416.437 117.341 417.173 117.481 417.915 117.519C421.638 117.811 420.218 115.534 419.342 113.32C418.239 110.51 417.674 107.447 417.871 104.428" fill="black"/>
    <path d="M371.016 78.682C355.75 74.4641 349.452 77.0392 346.49 80.0393C341.739 84.8533 340.16 93.8534 342.919 106.945C344.308 113.547 354.633 114.524 347.054 127.615C350.777 130.082 359.149 129.15 362.213 124.171C367.725 115.215 364.312 94.4243 370.477 88.5447C382.833 76.7601 369.177 80.8828 371.016 78.6883" fill="black"/>
    <path d="M368.419 77.3188C372.51 77.8643 375.13 82.3485 374.508 86.3063C373.848 90.3212 370.525 94.8371 366.352 95.2303C367.677 93.9935 368.464 92.5093 369.174 90.9237C369.815 89.4142 370.328 87.8158 370.5 86.4078C370.62 83.1731 369.428 80.4267 368.413 77.3125" fill="url(#colorOne)"/>
    <path d="M359.51 190.662L333.334 235.168C333.106 235.561 333.068 235.884 333.264 236.182C333.81 236.925 334.913 237.121 335.827 237.368L337.387 237.781L343.622 239.443C347.028 240.343 357.537 243.147 360.791 243.952C361.318 244.104 361.825 244.18 362.383 244.396C363.474 244.846 364.146 246.102 363.975 247.25L363.715 250.466C363.373 254.754 363.024 259.041 362.719 263.335C362.7 263.57 362.497 263.754 362.256 263.735C362.015 263.716 361.831 263.5 361.857 263.259C362.326 258.978 362.745 254.696 363.17 250.415L363.493 247.206C363.664 246.21 363.125 245.183 362.212 244.777C361.419 244.491 359.992 244.193 359.136 243.958C352.698 242.328 342.042 239.772 335.63 238.206C334.254 237.895 332.186 237.451 332.18 235.643C332.199 235.269 332.332 234.939 332.484 234.667L357.683 189.596C358.381 188.423 360.195 189.38 359.51 190.643" fill="black"/>
    <path d="M332.638 236.334C327.741 236.1 322.8 237.318 318.659 239.962C318.05 240.324 317.466 240.743 316.883 241.161C320.263 237.318 325.433 235.174 330.538 235.256C331.274 235.282 332.004 235.332 332.727 235.446C332.968 235.485 333.133 235.713 333.094 235.96C333.056 236.182 332.86 236.341 332.638 236.334Z" fill="black"/>
    <path d="M380.079 256.249C379.718 254.162 379.597 252.037 379.756 249.931C379.775 249.754 379.927 249.627 380.105 249.64C380.263 249.652 380.384 249.779 380.397 249.931C380.555 252.043 380.441 254.168 380.079 256.249Z" fill="black"/>
    </g>
    <defs>
    <clipPath id="clip0_5018_6141">
    <rect width="640" height="360" fill="white"/>
    </clipPath>
    </defs>
    <script type="text/ecmascript" xlink:href="https://dev.w3.org/SVG/modules/ref/master/ref2.js"></script>
</svg>
