<svg width="640" height="360" viewBox="0 0 640 360" fill="none" 
xmlns="http://www.w3.org/2000/svg" 
xmlns:xlink="http://www.w3.org/1999/xlink">
<defs>
<ref id="colorOne" param="c1" default="#242C4F" />
<ref id="colorTwo" param="c2" default="#9296A7"/>
</defs>
<path d="M378.705 72.8995C379.605 71.7995 380.005 70.0995 379.205 68.9995C378.305 67.6995 376.305 67.5995 374.905 66.7995C372.705 65.4995 372.105 62.4995 372.505 59.9995C372.905 57.4995 374.005 55.0995 374.205 52.5995C374.705 46.7995 370.305 41.4995 365.105 39.0995C359.805 36.6995 353.805 36.6995 348.005 36.9995C343.905 37.2995 339.605 37.7995 336.405 40.1995C335.305 41.0995 334.305 42.0995 332.905 42.5995C331.405 43.0995 329.805 42.5995 328.305 42.4995C324.005 41.9995 319.405 43.5995 316.405 46.7995C314.305 48.9995 312.905 51.8995 312.505 54.8995C310.305 53.8995 307.505 53.9995 305.005 54.1995C303.005 54.3995 301.005 54.5995 299.205 55.3995C297.405 56.1995 295.705 57.5995 295.105 59.4995C294.205 62.3995 296.105 65.4995 295.405 68.4995C294.905 70.5995 293.305 72.1995 291.405 73.1995C289.505 74.1995 287.405 74.5995 285.305 74.8995C287.105 77.6995 290.005 79.5995 293.305 80.0995C293.005 81.1995 291.605 81.2995 290.505 81.3995C289.405 81.3995 288.005 81.8995 288.005 82.9995C288.005 83.4995 288.505 83.9995 288.905 84.3995C294.105 89.1995 301.105 91.9995 308.205 92.2995C311.505 92.3995 315.105 91.8995 317.605 89.5995C319.905 87.4995 320.705 84.1995 321.005 81.0995C321.605 74.1995 319.605 67.0995 315.605 61.3995C322.405 69.1995 330.505 75.8995 339.505 80.9995C348.505 86.0995 358.805 89.5995 369.005 88.0995C371.105 87.7995 373.305 87.1995 375.105 85.9995C376.905 84.7995 378.305 82.8995 378.505 80.6995C378.705 78.4995 377.405 76.1995 375.305 75.5995C376.505 74.5995 377.805 73.9995 378.705 72.8995ZM313.305 58.3995L314.405 57.9995C314.105 58.2995 313.905 58.4995 313.605 58.7995C313.505 58.5995 313.405 58.4995 313.305 58.3995Z" fill="white"/>
<path d="M378.602 72.7999C379.602 71.5999 379.902 69.6998 378.702 68.5998C377.502 67.4998 375.702 67.5998 374.402 66.5998C369.702 62.5998 374.102 56.2998 373.902 51.2998C373.802 49.1998 373.102 47.1998 371.902 45.4998C365.702 36.1998 353.002 36.8999 343.202 38.1999C341.202 38.5999 339.202 39.1999 337.502 40.1999C336.202 40.9999 335.002 42.3998 333.502 42.9998C331.902 43.6998 330.002 43.2998 328.402 42.9998C325.402 42.5998 322.202 43.1998 319.502 44.7998C315.702 46.8998 313.202 50.9998 312.702 55.2998C309.502 53.5998 305.702 54.2999 302.202 54.6999C299.002 55.0999 295.302 56.8999 295.002 60.3999C294.902 62.0999 295.402 63.6998 295.602 65.4998C296.702 71.7998 290.302 74.2999 285.202 74.9999L285.402 74.4999C287.202 77.2999 290.302 79.1999 293.602 79.4999C293.502 80.0999 293.202 80.7998 292.602 81.0998C291.602 81.6998 290.402 81.4999 289.302 81.7999C288.702 81.9999 288.202 82.3999 288.302 82.7999C288.302 83.1999 288.802 83.6998 289.402 84.0998C295.702 89.4998 304.902 92.5998 313.102 90.6998C319.002 89.2998 320.302 82.6999 320.002 77.3999C319.802 71.7999 317.902 66.1998 314.702 61.5998L316.102 60.4998C324.902 70.5998 335.902 78.9998 348.302 84.1998C355.602 87.3998 371.002 90.4998 376.802 83.5998C379.002 81.0998 378.502 76.3999 375.102 75.2999L374.802 75.1998C376.202 74.5998 377.602 73.9999 378.602 72.7999ZM378.702 72.9999C377.802 74.0999 376.402 74.7999 375.202 75.3999V75.1998C376.902 75.6998 378.102 77.2999 378.402 78.9999C379.302 84.6999 372.902 87.7998 368.002 88.1998C354.202 90.0998 340.802 83.4998 329.802 75.5998C324.302 71.5998 319.202 66.8998 314.702 61.6999L316.102 60.5998C321.102 67.8998 323.402 77.6999 320.302 86.2999C318.002 92.5999 310.202 93.4999 304.502 92.3999C298.602 91.4999 293.102 88.8999 288.702 84.8999C288.102 84.2999 287.402 83.7999 287.302 82.7999C287.302 81.1999 289.002 80.6998 290.302 80.6998C291.102 80.6998 292.502 80.5999 292.702 79.7999L293.102 80.3999C289.702 79.7999 286.702 77.7999 284.902 74.8999L284.602 74.4999L285.102 74.3999C289.902 73.8999 296.102 71.4998 295.102 65.5998C294.902 63.8998 294.402 62.1999 294.502 60.3999C294.802 56.5999 298.702 54.4998 302.102 54.0998C305.602 53.6998 309.202 52.9999 312.502 54.3999L311.902 54.6999C312.402 50.2998 315.002 46.1999 318.802 43.8999C321.602 42.1999 325.102 41.3999 328.402 41.6999C330.502 41.9999 332.302 42.3998 334.002 40.9998C338.002 37.0998 343.902 36.1998 349.302 36.0998C355.702 35.7998 362.702 36.1999 368.102 40.1999C371.602 42.7998 374.302 46.7998 374.402 51.2998C374.502 54.5998 372.802 57.4999 372.502 60.6999C372.202 64.4999 373.702 66.6998 377.402 67.5998C379.902 68.3998 380.402 71.0999 378.702 72.9999Z" fill="black"/>
<path d="M313.2 58.4C312.9 58.2 313 57.9 313.3 57.7C313.5 57.5 314.1 57.9 314.3 57.8L315.2 57L314.6 58.2C314.6 58.3 314.6 58.4 314.6 58.6C314.6 58.9 314.5 59.3 314.2 59.3H313.1C312.9 59 312.9 58.5 313.2 58.4ZM313.4 58.4C313.7 58.5 314.1 58.5 314.2 58.2L313.1 58.1C313.2 57.5 314 57.8 314.3 57.7L314.6 58.1C314.3 58.1 314.6 58.5 314.5 58.6C314.2 58.5 313.9 58.5 313.4 58.4Z" fill="black"/>
<path d="M347.902 126.901L347.702 129.501C347.702 129.501 347.302 141.801 337.502 143.801C327.602 145.801 311.402 140.801 308.102 138.701L308.602 102.301L347.902 126.901Z" fill="white"/>
<path d="M347.905 126.9C348.005 136.7 344.205 144.9 333.205 144.8C328.805 144.9 324.505 144.3 320.205 143.5C315.905 142.5 311.605 141.5 307.705 139.4L307.305 139.2V138.8C307.405 126.2 307.605 113.6 307.805 101C320.705 109.1 335.205 118.4 347.905 126.9ZM347.905 126.9C335.205 119.4 320.805 110.8 308.205 103L309.405 102.4C309.305 114.5 309.105 126.7 308.905 138.8L308.505 138.1C316.305 141.9 331.105 145.5 339.405 142.8C345.705 140.4 347.605 133 347.905 126.9Z" fill="black"/>
<path d="M308.107 94.8991C307.407 114.799 319.507 126.199 337.707 126.799C355.907 127.399 364.707 114.399 365.407 94.4991C366.107 74.5991 351.607 58.4991 333.407 57.8991C315.207 57.3991 308.707 74.9991 308.107 94.8991Z" fill="white"/>
<path d="M307.203 80.2986C310.803 68.2986 319.903 59.2986 331.503 57.9986C347.803 56.1986 362.903 70.2986 365.103 89.6986C367.303 108.999 359.903 127.999 340.403 128.499C335.503 128.599 330.003 128.599 325.703 126.599" fill="white"/>
<path d="M307.203 80.2992C312.503 58.9992 335.403 49.4992 352.603 64.5992C359.903 70.9992 364.603 80.1992 365.803 89.7992C368.003 105.499 362.703 125.899 344.703 128.699C341.503 129.199 338.203 129.099 335.003 128.899C331.803 128.699 328.503 128.099 325.603 126.699L325.703 126.499C328.703 127.699 331.903 127.999 335.003 127.999C341.203 128.099 347.803 127.499 352.903 123.799C365.503 114.599 366.803 94.5992 362.503 80.6992C356.503 61.1992 334.403 51.0992 317.703 64.7992C312.903 68.7992 309.403 74.2992 307.303 80.2992H307.203Z" fill="black"/>
<path d="M346.505 127.1C346.505 127.1 331.105 131 321.805 124.5C321.805 124.5 330.405 134.3 345.805 132.2L346.505 127.1Z" fill="black"/>
<path d="M338.703 72.3008C338.703 72.3008 345.303 75.2008 355.303 74.1008Z" fill="white"/>
<path d="M338.703 72.3008C344.103 73.8008 349.703 74.1008 355.303 74.1008C349.803 75.2008 343.703 74.8008 338.703 72.3008Z" fill="black"/>
<path d="M339.203 70.0996C339.203 70.0996 345.803 72.9996 355.803 71.8996Z" fill="white"/>
<path d="M339.203 70.0996C344.603 71.5996 350.203 71.8996 355.803 71.8996C350.303 73.0996 344.303 72.6996 339.203 70.0996Z" fill="black"/>
<path d="M339.703 68C339.703 68 346.303 70.9 356.303 69.8Z" fill="white"/>
<path d="M339.703 68C345.103 69.5 350.703 69.8 356.303 69.8C350.803 71 344.803 70.6 339.703 68Z" fill="black"/>
<path d="M346.703 99.9995C346.703 99.8995 348.103 99.7995 350.403 99.6995C351.003 99.6995 351.503 99.5995 351.703 99.2995C351.903 98.8995 351.703 98.2995 351.503 97.5995C351.103 96.1995 350.703 94.6995 350.303 93.0995C348.603 86.6995 347.503 81.4995 347.703 81.4995C348.003 81.3995 349.503 86.4995 351.203 92.8995C351.603 94.4995 352.003 95.9995 352.303 97.3995C352.403 98.0995 352.703 98.7995 352.403 99.5995C352.203 99.9995 351.803 100.299 351.403 100.299C351.003 100.399 350.703 100.299 350.403 100.299C348.003 100.299 346.703 100.199 346.703 99.9995Z" fill="black"/>
<path d="M333.801 79.3999C334.201 78.8999 336.201 79.8999 338.801 80.3999C341.401 80.9999 343.601 80.8999 343.801 81.4999C343.901 81.7999 343.301 82.1999 342.301 82.4999C341.301 82.7999 339.901 82.8999 338.301 82.5999C336.801 82.2999 335.502 81.5999 334.702 80.8999C334.002 80.1999 333.601 79.5999 333.801 79.3999Z" fill="black"/>
<path d="M353.803 81.9992C354.203 81.4992 355.703 81.8992 357.603 81.7992C359.403 81.6992 361.003 81.1992 361.403 81.6992C361.603 81.8992 361.403 82.4992 360.703 82.9992C360.103 83.4992 359.003 83.9992 357.703 84.0992C356.503 84.2992 355.703 84.1992 354.603 83.2992C353.903 82.7992 353.603 82.2992 353.803 81.9992Z" fill="black"/>
<path d="M330.703 114.3C330.703 114.3 331.003 114.4 331.703 114.3C332.303 114.3 333.203 114.2 334.303 113.9C335.403 113.6 336.703 113.1 337.903 112.2C339.103 111.3 340.303 110.1 341.203 108.6C342.103 107.1 342.403 105.4 342.503 103.9C342.503 102.4 342.303 101 341.803 100C341.403 98.9 340.903 98.2 340.503 97.7C340.303 97.4 340.103 97.3 340.003 97.2C339.903 97.1 339.803 97 339.803 97C339.703 97.1 340.803 98 341.603 100.1C342.003 101.1 342.203 102.5 342.203 103.9C342.103 105.4 341.803 107 340.903 108.4C340.103 109.9 338.903 111 337.703 111.9C336.503 112.7 335.303 113.3 334.203 113.6C332.203 114.3 330.703 114.2 330.703 114.3Z" fill="black"/>
<path d="M345 80.8992C345 80.8992 345.2 81.0992 345.6 81.0992C346 81.0992 346.6 80.9992 347.1 80.5992C347.6 80.1992 347.9 79.6992 347.9 79.2992C348 78.8992 347.9 78.6992 347.9 78.6992C347.8 78.6992 347.7 79.6992 346.8 80.2992C346 80.9992 345 80.7992 345 80.8992Z" fill="black"/>
<path d="M351.707 81.9995C351.807 81.8995 351.407 81.2995 351.307 80.3995C351.207 79.4995 351.407 78.7995 351.307 78.7995C351.207 78.6995 350.807 79.4995 350.907 80.4995C351.007 81.4995 351.607 82.0995 351.707 81.9995Z" fill="black"/>
<path d="M350.405 80.5992C350.505 80.4992 350.305 79.9992 350.205 79.2992C350.205 78.5992 350.405 77.9992 350.305 77.9992C350.205 77.8992 349.805 78.4992 349.805 79.2992C349.805 80.1992 350.305 80.6992 350.405 80.5992Z" fill="black"/>
<path d="M372.102 111.9C372.102 111.9 372.502 111.9 373.202 111.9C373.902 111.9 375.002 111.8 376.302 111.8C378.902 111.7 382.502 111.4 386.402 111.1C390.302 110.8 393.802 110.5 396.502 110.3C397.702 110.2 398.802 110.1 399.602 110.1C400.302 110 400.702 110 400.702 110C400.702 110 400.302 110 399.602 110C398.902 110 397.802 110.1 396.502 110.1C393.902 110.2 390.302 110.5 386.402 110.8C382.502 111.1 379.002 111.4 376.302 111.6C375.102 111.7 374.002 111.8 373.202 111.8C372.502 111.8 372.102 111.8 372.102 111.9Z" fill="black"/>
<path d="M372.799 108.1C372.799 108.2 377.199 106.2 382.599 103.7C387.999 101.2 392.299 99.0001 392.199 98.9001C392.199 98.8001 387.799 100.8 382.399 103.3C376.999 105.9 372.699 108 372.799 108.1Z" fill="black"/>
<path d="M372.703 116C372.703 116.1 375.103 117.4 378.203 118.9C381.303 120.4 383.803 121.6 383.903 121.5C383.903 121.4 381.503 120.1 378.403 118.6C375.303 117.1 372.803 115.9 372.703 116Z" fill="black"/>
<path d="M310.302 99.9C308.702 93.7 307.102 87.4 306.602 81Z" fill="white"/>
<path d="M310.502 86.7003C308.202 85.9003 300.902 84.1003 300.102 93.1003C299.402 101.8 306.602 102.4 309.102 102.2" fill="white"/>
<path d="M310.502 86.7003C308.202 85.9003 300.902 84.1003 300.102 93.1003C299.402 101.8 306.602 102.4 309.102 102.2" stroke="black" stroke-width="1.6693" stroke-miterlimit="10"/>
<path d="M307.1 97.8012C307.1 97.8012 306.9 97.9012 306.6 98.0012C306.3 98.1012 305.8 98.2012 305.2 97.9012C304.1 97.4012 303.3 95.6012 303.4 93.7012C303.5 92.7012 303.7 91.8012 304.1 91.1012C304.5 90.4012 305 89.9012 305.6 89.8012C306.2 89.7012 306.5 90.1012 306.6 90.4012C306.7 90.7012 306.6 90.9012 306.7 90.9012C306.7 90.9012 306.9 90.7012 306.9 90.3012C306.9 90.1012 306.8 89.8012 306.5 89.6012C306.3 89.4012 305.9 89.2012 305.5 89.2012C304.7 89.2012 303.9 89.9012 303.4 90.7012C302.9 91.5012 302.6 92.5012 302.5 93.6012C302.4 95.7012 303.3 97.8012 304.8 98.4012C305.5 98.7012 306.2 98.5012 306.5 98.3012C307.1 98.1012 307.1 97.8012 307.1 97.8012Z" fill="black"/>
<path d="M366.401 55.4007C365.201 54.2007 363.701 53.4007 362.201 52.7007C358.501 51.0007 354.501 49.9007 350.501 49.3007C344.401 46.4007 335.901 44.3007 330.401 45.4007C323.201 46.9007 317.101 49.9007 313.101 56.0007C313.001 56.2007 312.801 56.4006 312.701 56.6006C311.401 58.3006 309.601 61.5006 309.401 62.1006V63.4007C307.901 67.7007 307.001 72.2006 306.801 76.7006C306.701 78.9006 302.401 79.8007 303.401 81.8007C304.701 84.2007 304.401 83.1007 306.701 86.5007C307.301 87.4007 308.301 88.6007 309.001 89.5007C309.301 89.9007 309.701 90.2007 310.101 90.6007L310.301 99.8007C311.301 97.1007 312.201 94.5007 313.001 91.8007C314.701 92.2007 316.301 91.9007 317.001 91.0007C319.601 87.1007 321.101 83.7007 321.701 79.0007C322.101 75.8007 322.601 70.9006 322.001 67.7006C321.801 66.6006 321.701 65.6006 321.901 64.1006C322.001 63.2006 324.501 61.0007 327.201 59.3007C329.801 58.9007 332.501 59.2007 334.901 60.2007C337.901 61.5007 340.501 63.7007 343.401 65.3007C349.801 68.8007 358.201 68.5007 364.401 64.5007C366.101 63.4007 367.801 61.9007 368.101 59.9007C368.301 58.4007 367.501 56.7007 366.401 55.4007Z" fill="white"/>
<path d="M305.805 85.2C308.605 84.9 309.505 88.1 310.305 90.2C310.305 90.3 310.405 90.5 310.405 90.4L310.605 90.7C310.805 93.8 311.005 96.9 311.105 99.9L309.805 99.7C310.805 96.9 311.805 94 312.605 91.1C313.905 91.4 315.605 91.8 316.505 90.7C319.505 86.6 321.305 81.8 321.705 76.7C322.105 73.4 322.405 70.2 321.705 66.9C321.605 65.7 321.405 64.1 322.305 63.1C323.705 61.5 325.405 60.2 327.105 59.1C329.805 58.5 332.805 58.8 335.505 59.9C338.105 61 340.305 62.7 342.505 64C349.105 68.2 358.005 68 364.505 63.8C368.205 61.6 368.505 57.7 365.005 55C361.805 52.7 357.905 51.3 354.105 50.2V50C358.105 50.8 362.105 51.8 365.605 54.1C373.805 60.6 364.605 67.1 357.605 68.4C352.105 69.5 346.205 68.4 341.505 65.4C337.205 62.3 332.805 59.1 327.205 60C326.605 60.4 324.405 61.8 323.405 62.8C322.905 63.3 322.205 63.9 322.105 64.6C322.005 65.4 322.005 66.2 322.005 67C322.705 71.9 322.305 76.9 321.605 81.9C321.005 85.4 319.505 88.8 317.505 91.7C316.505 93.2 314.305 93.2 312.705 92.9L313.605 92.4C312.505 96.1 311.105 100 309.605 103.5C309.605 99.3 309.505 95 309.605 90.9L309.805 91.2C309.405 90.8 309.505 90.7 309.305 90.3C308.705 89.1 307.705 86.6 306.105 87C306.105 86.8 305.805 85.2 305.805 85.2Z" fill="black"/>
<path d="M399.105 300.4L398.205 293.4H289.805L288.305 300.5C325.105 300.2 362.405 299.8 399.105 300.4Z" fill="black"/>
<path d="M339.605 128.6L298.205 130.8L294.805 146.4C294.805 146.4 306.205 155.6 307.405 155.9C308.505 156.3 334.505 159.9 334.505 159.9C334.505 159.9 362.505 146.8 362.105 147C361.805 147.2 339.605 128.6 339.605 128.6Z" fill="white" stroke="black" stroke-width="1.6693" stroke-miterlimit="10"/>
<path d="M301.008 147.4C301.008 147.4 316.808 156.5 328.708 153.9C340.708 151.2 349.108 142.9 349.108 142.9L370.308 191.4L357.808 288.5L320.008 293.4L307.508 201.3L301.008 147.4Z" fill="white"/>
<path d="M266.602 300.399C266.602 300.499 266.602 300.499 266.602 300.399C291.002 300.499 315.602 300.199 340.202 300.099C315.702 299.099 291.302 297.899 266.602 300.399Z" fill="url(#colorTwo)"/>
<path d="M333.005 198.599C318.205 179.699 299.805 130.299 299.805 130.299C299.305 130.499 291.605 133.199 291.605 133.199L276.405 232.299C276.405 232.299 264.605 273.599 265.705 291.399C265.805 293.799 266.105 296.899 266.605 300.499C292.605 297.899 318.405 299.299 344.205 300.299L342.805 248.699C342.805 248.699 347.805 217.499 333.005 198.599Z" fill="url(#colorTwo)"/>
<path d="M406.608 300.5C406.308 295.3 405.708 290.4 404.708 286.4C399.708 265.4 392.408 240.5 392.408 240.5L387.608 167.2L356.808 128.1H339.508C340.508 129.5 352.908 187.3 351.308 199.4C349.708 211.5 343.608 236.7 343.608 236.7V300.1C364.708 300 385.708 300.1 406.608 300.5Z" fill="url(#colorTwo)"/>
<path d="M304.905 245.4C304.905 245.4 304.405 245.5 303.505 245.5C303.005 245.5 302.505 245.5 301.805 245.4C301.105 245.3 300.405 245.3 299.605 245.2C298.005 245 296.005 244.5 293.905 243.9C291.805 243.3 289.605 242.4 287.305 241.4C282.705 239.3 278.805 236.9 276.105 235.1C274.705 234.2 273.705 233.4 272.905 232.9C272.205 232.3 271.805 232 271.805 232C271.805 232 272.305 232.2 273.005 232.7C273.905 233.3 275.005 234 276.305 234.8C279.105 236.5 283.005 238.8 287.505 240.9C289.805 241.9 292.005 242.8 294.005 243.4C296.105 244 297.905 244.5 299.605 244.8C302.905 245.3 304.905 245.3 304.905 245.4Z" fill="black"/>
<path d="M318.208 262.6C318.208 262.6 317.408 262.5 316.008 262.2C315.308 262 314.508 261.8 313.508 261.5C312.508 261.2 311.408 260.9 310.208 260.4C307.808 259.6 305.008 258.3 302.008 256.8C299.008 255.2 295.808 253.4 292.608 251.2C286.208 246.8 280.908 242.1 277.308 238.6C275.508 236.8 274.008 235.4 273.108 234.3C272.108 233.3 271.608 232.7 271.708 232.6C271.708 232.6 272.308 233.1 273.308 234.1C274.308 235.1 275.808 236.5 277.708 238.2C281.408 241.6 286.708 246.2 293.108 250.6C296.308 252.8 299.508 254.6 302.408 256.2C305.408 257.7 308.108 259 310.508 259.9C311.708 260.4 312.808 260.7 313.708 261.1C314.608 261.4 315.508 261.7 316.208 261.9C317.508 262.3 318.208 262.6 318.208 262.6Z" fill="black"/>
<path d="M346.105 225.9C344.805 228.8 343.905 231.7 344.305 234.9L344.505 244.3C344.805 259.9 344.605 275.8 344.005 291.3C343.805 294.4 343.805 297.6 343.505 300.7C343.305 297.6 343.305 294.4 343.105 291.3C342.705 275.7 342.705 259.8 343.105 244.3C343.205 242.6 343.305 234.1 343.505 232.5C343.905 230.2 345.005 228 346.105 225.9Z" fill="black"/>
<path d="M315.005 123.399C311.805 122.099 308.405 121.599 305.005 121.299C300.605 120.999 295.705 121.199 292.705 124.399C289.905 127.399 289.605 132.299 286.305 134.899C283.805 136.899 280.305 136.899 277.205 137.399C270.305 138.599 264.005 142.599 259.705 148.199C255.405 153.699 253.005 160.599 252.505 167.599C251.905 175.799 253.605 184.599 249.705 191.799C246.305 198.299 239.205 201.999 232.305 204.199C237.005 211.099 262.305 225.099 270.205 227.899L274.805 166.899C274.805 166.899 301.705 132.999 311.805 132.999L315.005 123.399Z" fill="url(#colorOne)"/>
<path d="M314.903 123.399C309.803 121.699 303.903 120.999 298.603 121.899C289.103 123.399 292.003 132.899 285.003 136.499C282.403 137.699 279.403 137.699 276.703 138.299C270.003 139.599 264.103 143.799 260.003 149.199C246.703 166.799 258.703 183.799 247.003 196.299C243.003 200.399 237.803 202.899 232.503 204.699L232.703 204.199C233.803 205.699 235.203 206.899 236.603 208.099C241.003 211.599 245.803 214.499 250.603 217.399C257.003 221.099 263.703 224.699 270.603 227.399L269.603 227.999C270.803 212.599 272.603 181.899 274.303 166.599C282.503 156.799 290.903 147.099 300.703 138.899C304.103 136.299 307.503 133.299 312.003 132.899L311.703 133.099L314.903 123.399ZM315.103 123.399L312.103 133.299L312.003 133.499C307.803 133.899 304.303 137.099 301.103 139.699C291.603 148.099 283.303 157.899 275.403 167.699L275.603 167.199C274.503 182.899 272.103 213.499 270.803 229.099C263.403 226.199 256.603 222.299 249.903 218.299C243.603 214.299 236.803 210.399 232.003 204.599L231.703 204.299C237.103 202.599 242.503 200.199 246.403 195.999C258.003 183.399 245.203 166.499 258.703 148.399C262.903 142.599 269.303 138.399 276.303 137.099C279.003 136.599 281.803 136.599 284.303 135.499C288.303 133.699 288.703 129.099 291.003 125.599C294.303 120.399 301.303 120.599 306.703 121.399C309.703 121.599 312.403 122.199 315.103 123.399Z" fill="black"/>
<path d="M252.906 164.199C252.906 164.199 252.906 164.299 253.006 164.399C253.106 164.499 253.206 164.699 253.406 164.999C253.806 165.499 254.406 166.099 255.306 166.699C256.206 167.299 257.406 167.799 258.806 167.999C260.206 168.199 261.806 168.199 263.406 168.099C265.006 167.999 266.606 167.899 267.906 167.899C269.306 167.899 270.506 168.099 271.606 168.299C273.606 168.799 274.706 169.699 274.706 169.699C274.706 169.699 274.706 169.599 274.506 169.499C274.406 169.399 274.206 169.299 273.906 169.099C273.406 168.799 272.606 168.399 271.606 168.099C270.606 167.799 269.306 167.599 267.906 167.599C266.506 167.599 264.906 167.699 263.306 167.799C261.706 167.899 260.106 167.899 258.806 167.699C257.406 167.499 256.306 166.999 255.406 166.499C253.606 165.399 253.006 164.199 252.906 164.199Z" fill="white"/>
<path d="M252.305 182.599C252.305 182.599 252.605 182.799 253.105 183.099C253.305 183.299 253.705 183.399 254.005 183.599C254.405 183.799 254.805 183.999 255.305 184.199C256.305 184.599 257.405 185.099 258.805 185.399C260.105 185.799 261.605 185.999 263.205 186.199C264.805 186.299 266.305 186.299 267.705 186.199C269.105 186.099 270.305 185.799 271.305 185.599C271.805 185.499 272.305 185.299 272.705 185.199C273.105 185.099 273.405 184.999 273.705 184.799C274.205 184.599 274.505 184.499 274.505 184.399C274.505 184.299 273.305 184.799 271.205 185.199C270.205 185.399 269.005 185.599 267.605 185.699C266.205 185.799 264.705 185.799 263.205 185.699C261.605 185.599 260.205 185.299 258.805 184.999C257.505 184.699 256.305 184.299 255.405 183.899C253.405 183.199 252.305 182.499 252.305 182.599Z" fill="white"/>
<path d="M243.102 199.2C243.102 199.2 243.502 199.2 244.302 199.3C245.002 199.4 246.102 199.6 247.302 200.2C248.502 200.8 249.802 201.8 251.202 202.9C252.602 204 254.102 205.4 255.802 206.5C257.602 207.6 259.402 208.4 261.202 208.9C263.002 209.4 264.602 209.5 266.002 209.4C267.402 209.3 268.502 209.1 269.202 208.8C269.602 208.7 269.802 208.5 270.002 208.5C270.202 208.4 270.302 208.4 270.302 208.4C270.302 208.3 268.702 209.1 266.002 209.2C264.702 209.2 263.002 209.1 261.302 208.6C259.602 208.1 257.802 207.3 256.002 206.2C254.302 205.1 252.802 203.8 251.402 202.6C250.002 201.5 248.602 200.5 247.402 199.9C246.202 199.3 245.002 199.1 244.302 199C243.902 199 243.602 199 243.402 199C243.202 199.2 243.102 199.2 243.102 199.2Z" fill="white"/>
<path d="M259.703 148.199C259.703 148.199 259.703 148.299 259.803 148.499C259.903 148.699 260.003 148.899 260.103 149.199C260.403 149.799 261.003 150.599 262.003 151.199C263.003 151.899 264.303 152.499 265.803 152.799C267.303 153.199 269.003 153.299 270.803 153.399C272.603 153.499 274.303 153.499 275.803 153.699C277.303 153.899 278.703 154.299 279.703 154.799C281.803 155.699 282.703 156.999 282.803 156.899C282.803 156.899 282.803 156.799 282.703 156.699C282.603 156.599 282.403 156.399 282.203 156.099C281.703 155.599 281.003 154.999 279.903 154.499C278.803 153.999 277.503 153.599 275.903 153.299C274.403 153.099 272.603 152.999 270.903 152.899C269.103 152.799 267.403 152.699 265.903 152.399C264.403 152.099 263.103 151.599 262.103 150.899C261.103 150.299 260.503 149.499 260.203 148.999C259.903 148.599 259.703 148.199 259.703 148.199Z" fill="white"/>
<path d="M292.705 146.8C292.705 146.8 292.605 146.8 292.505 146.9C292.405 146.9 292.205 146.9 292.005 146.8C291.805 146.7 291.605 146.5 291.305 146.2C291.005 145.9 290.705 145.7 290.305 145.4C288.905 144.2 286.905 142.5 284.505 140.9C282.105 139.3 279.705 138.3 277.805 137.9C276.905 137.7 276.105 137.6 275.605 137.6C275.105 137.6 274.805 137.6 274.805 137.6C274.805 137.7 276.005 137.7 277.705 138.2C279.505 138.7 281.905 139.7 284.205 141.2C286.605 142.7 288.505 144.4 290.005 145.5C290.405 145.8 290.705 146 291.005 146.3C291.305 146.5 291.505 146.7 291.805 146.8C292.105 146.9 292.305 146.9 292.405 146.8C292.705 146.9 292.705 146.8 292.705 146.8Z" fill="white"/>
<path d="M292.102 126.599C292.102 126.599 292.302 126.899 292.602 127.299C293.002 127.699 293.602 128.299 294.502 128.899C295.402 129.499 296.502 129.999 297.802 130.299C299.202 130.599 300.702 130.399 302.202 130.099C303.702 129.799 305.102 129.399 306.502 129.399C307.802 129.299 309.002 129.399 310.002 129.499C312.002 129.799 313.202 130.199 313.202 130.199C313.202 130.199 312.902 129.999 312.402 129.799C311.902 129.599 311.102 129.399 310.102 129.199C309.102 128.999 307.902 128.899 306.502 128.999C305.102 129.099 303.702 129.399 302.202 129.699C300.702 129.999 299.202 130.199 297.902 129.999C296.602 129.799 295.502 129.299 294.702 128.799C293.002 127.499 292.202 126.499 292.102 126.599Z" fill="white"/>
<path d="M343.398 128.2C341.298 129.6 337.098 127.7 334.698 127C329.898 125.5 325.598 122.6 320.898 120.6C316.198 118.6 310.698 117.6 306.198 120.1C305.198 120.6 304.298 121.4 304.198 122.5C304.098 123.4 304.498 124.2 304.798 125C306.498 129.7 303.598 134.7 302.798 139.7C301.698 146.7 305.498 154.3 311.898 157.5C315.598 159.3 319.798 159.8 323.898 159.6C331.898 159.2 339.998 156.2 345.398 150.2C346.598 148.9 347.698 147.4 348.198 145.6C348.798 143.6 348.598 141.5 348.198 139.5C347.198 134.5 348.698 131.9 345.498 128.2" fill="url(#colorOne)"/>
<path d="M344 127.699C342.7 128.599 341.1 128.499 339.6 128.299C332.1 127.599 325.7 122.899 318.9 120.399C314.9 119.099 310.3 118.599 306.5 120.599C305.9 120.899 305.4 121.299 305.1 121.799C304.8 122.299 304.8 122.799 305 123.499C307.7 129.399 303.3 135.199 303 140.999C302.5 149.999 309.8 157.899 318.6 158.499C327.2 159.299 336.3 156.999 342.9 151.399C346.4 148.499 348.6 144.999 347.8 140.499C347.2 137.599 347.5 134.499 347.2 131.599C347 130.199 346.3 128.799 345.5 127.599L345.6 127.499C347.7 129.699 348.2 132.999 348.3 135.899C348.5 138.899 349.7 141.799 349.1 144.899C348.5 148.099 346.3 150.499 344 152.599C337.1 158.799 327.4 161.099 318.4 159.999C310.6 159.199 304 153.199 302.7 145.499C301.6 140.999 303.3 136.499 304.4 132.299C305.2 129.499 305.2 126.499 303.9 123.799C303.6 122.999 303.5 121.999 304 121.199C307.3 116.599 314.6 117.199 319.3 118.899C326.3 121.499 332.2 126.499 339.6 127.699C341 127.899 342.6 128.099 343.9 127.399C343.9 127.599 344 127.699 344 127.699Z" fill="black"/>
<path d="M309.203 128.5C309.203 128.5 309.503 128.8 310.203 129.3C310.903 129.8 311.803 130.5 313.003 131.3C315.503 132.9 319.003 134.9 323.203 136.5C327.403 138.1 331.303 139.1 334.203 139.6C335.703 139.8 336.903 139.8 337.703 139.7C338.103 139.7 338.403 139.6 338.603 139.5C338.803 139.4 338.903 139.4 338.903 139.4C338.903 139.4 338.503 139.5 337.603 139.5C336.803 139.6 335.603 139.5 334.203 139.2C331.403 138.6 327.403 137.6 323.303 136C319.203 134.4 315.603 132.5 313.103 130.9C311.903 130.1 310.903 129.5 310.203 129C309.603 128.7 309.203 128.4 309.203 128.5Z" fill="black"/>
<path d="M317.602 139.9C317.602 139.9 317.802 140.1 318.302 140.3C318.802 140.5 319.502 140.8 320.402 141.1C322.202 141.7 324.702 142.3 327.602 142.6C330.502 142.9 333.102 142.7 334.902 142.4C335.802 142.3 336.602 142.1 337.102 142C337.602 141.9 337.902 141.8 337.902 141.8C337.902 141.7 336.702 142 334.902 142.1C333.002 142.3 330.502 142.4 327.602 142.1C324.802 141.8 322.202 141.3 320.502 140.7C318.702 140.3 317.602 139.8 317.602 139.9Z" fill="black"/>
<path d="M331.003 158.7C331.003 158.7 331.203 158.5 331.403 158.2C331.703 157.9 332.003 157.3 332.403 156.6C332.803 155.9 333.103 155 333.403 154.1C333.703 153.1 333.903 152 333.903 150.8C333.903 149.6 333.803 148.5 333.703 147.5C333.503 146.5 333.203 145.6 332.903 144.9C332.603 144.2 332.303 143.6 332.103 143.2C331.903 142.8 331.703 142.6 331.703 142.6C331.603 142.6 332.103 143.5 332.603 144.9C332.903 145.6 333.103 146.5 333.303 147.5C333.503 148.5 333.503 149.6 333.503 150.8C333.403 152 333.303 153.1 333.003 154C332.703 155 332.403 155.8 332.103 156.5C331.503 157.9 330.903 158.6 331.003 158.7Z" fill="white"/>
<path d="M327.603 137.7C327.503 137.6 326.903 138.7 327.103 140.2C327.203 141.7 328.003 142.7 328.003 142.6C328.103 142.5 327.603 141.5 327.503 140.2C327.403 138.8 327.703 137.7 327.603 137.7Z" fill="white"/>
<path d="M335.199 127.299C335.099 127.299 335.699 127.799 336.099 128.899C336.499 129.899 336.699 131.499 336.699 133.199C336.799 136.699 335.699 139.299 335.799 139.399C335.799 139.399 336.199 138.799 336.499 137.699C336.799 136.599 337.099 134.999 337.099 133.299C337.099 131.499 336.799 129.999 336.299 128.899C335.899 127.699 335.199 127.299 335.199 127.299Z" fill="white"/>
<path d="M318.301 134C318.301 134 318.901 133.5 319.501 132.4C320.101 131.3 320.801 129.7 321.201 127.9C321.601 126 321.501 124.3 321.301 123C321.101 121.8 320.801 121 320.801 121.1C320.701 121.1 321.501 124.1 320.801 127.8C320.101 131.5 318.201 134 318.301 134Z" fill="white"/>
<path d="M315.699 139.6C315.799 139.6 315.199 138 315.199 136C315.099 134 315.699 132.4 315.499 132.4C315.399 132.4 314.699 133.9 314.799 136C314.799 138.1 315.599 139.7 315.699 139.6Z" fill="white"/>
<path d="M313.703 156.699C313.703 156.699 313.903 156.599 314.303 156.399C314.703 156.199 315.203 155.799 315.803 155.199C316.903 154.099 318.303 152.299 319.003 149.899C319.703 147.499 319.503 145.199 319.203 143.699C319.003 142.899 318.803 142.299 318.603 141.899C318.403 141.499 318.303 141.299 318.303 141.299C318.203 141.299 318.603 142.199 318.903 143.799C319.203 145.299 319.303 147.499 318.603 149.799C317.903 152.099 316.703 153.899 315.603 154.999C314.503 156.099 313.703 156.599 313.703 156.699Z" fill="white"/>
<path d="M307.599 128.5C307.499 128.5 308.199 129.9 307.799 132.2C307.599 133.3 307.199 134.6 306.599 136C305.999 137.4 305.399 139 305.099 140.8C304.499 144.4 305.199 147.6 306.099 149.8C306.499 150.9 306.999 151.7 307.399 152.3C307.799 152.8 307.999 153.1 307.999 153.1C308.099 153.1 307.199 151.9 306.399 149.7C305.599 147.6 304.999 144.3 305.499 140.9C305.799 139.2 306.399 137.6 306.899 136.2C307.499 134.8 307.899 133.4 308.099 132.3C308.299 131.1 308.099 130.2 307.999 129.5C307.899 129.2 307.799 128.9 307.699 128.8C307.699 128.6 307.699 128.5 307.599 128.5Z" fill="white"/>
<path d="M344.3 151.299C344.3 151.299 344.5 150.999 344.7 150.399C344.8 150.099 344.9 149.699 345 149.299C345.1 148.899 345.3 148.399 345.4 147.799C345.6 146.699 345.8 145.299 345.9 143.799C346 142.299 345.9 140.599 345.7 138.899C345.5 137.199 345.1 135.499 344.7 134.099C344.2 132.699 343.7 131.399 343.2 130.399C343 129.899 342.7 129.399 342.5 128.999C342.3 128.599 342 128.399 343 130.499C343.5 131.499 343.9 132.799 344.4 134.199C344.8 135.599 345.2 137.199 345.4 138.899C345.6 140.599 345.6 142.199 345.6 143.699C345.5 145.199 345.4 146.499 345.2 147.599C344.7 149.999 344.2 151.299 344.3 151.299Z" fill="white"/>
<path d="M304.602 200.601C304.602 200.601 304.602 192.701 306.802 189.001C309.002 185.401 321.202 169.301 321.202 169.301C321.202 169.301 323.202 168.101 325.002 169.601C326.802 171.101 325.102 173.901 323.702 176.801C322.302 179.801 320.402 183.101 320.402 183.101C320.402 183.101 340.902 158.401 343.502 159.401C346.102 160.301 345.702 161.601 344.802 162.901C344.002 164.201 337.002 173.601 337.002 173.601C337.002 173.601 347.302 159.301 350.202 160.701C353.202 162.101 351.502 163.201 350.602 165.101C349.702 167.101 343.602 175.601 343.602 175.601C343.602 175.601 350.802 166.401 352.702 168.001C354.602 169.601 354.002 170.301 352.302 172.801C350.602 175.301 346.802 180.801 346.802 180.801C346.802 180.801 350.502 179.001 351.602 180.501C352.702 182.101 351.802 183.001 349.602 184.901C347.402 186.801 338.102 194.401 334.602 198.401C331.002 202.401 322.702 211.401 322.702 211.401L302.602 204.701L304.602 200.601Z" fill="white"/>
<path d="M304.602 200.601C304.602 200.601 304.602 192.701 306.802 189.001C309.002 185.401 321.202 169.301 321.202 169.301C321.202 169.301 323.202 168.101 325.002 169.601C326.802 171.101 325.102 173.901 323.702 176.801C322.302 179.801 320.402 183.101 320.402 183.101C320.402 183.101 340.902 158.401 343.502 159.401C346.102 160.301 345.702 161.601 344.802 162.901C344.002 164.201 337.002 173.601 337.002 173.601C337.002 173.601 347.302 159.301 350.202 160.701C353.202 162.101 351.502 163.201 350.602 165.101C349.702 167.101 343.602 175.601 343.602 175.601C343.602 175.601 350.802 166.401 352.702 168.001C354.602 169.601 354.002 170.301 352.302 172.801C350.602 175.301 346.802 180.801 346.802 180.801C346.802 180.801 350.502 179.001 351.602 180.501C352.702 182.101 351.802 183.001 349.602 184.901C347.402 186.801 338.102 194.401 334.602 198.401C331.002 202.401 322.702 211.401 322.702 211.401L302.602 204.701L304.602 200.601Z" stroke="black" stroke-miterlimit="10"/>
<path d="M331.91 182.101C332.01 182.101 332.31 181.301 333.01 180.101C333.71 178.901 334.71 177.201 335.91 175.501C337.21 173.801 338.51 172.301 339.31 171.201C340.21 170.101 340.61 169.301 340.51 169.301C340.41 169.301 340.01 170.001 339.11 171.101C338.21 172.201 336.91 173.601 335.61 175.401C334.31 177.201 333.41 178.901 332.71 180.101C332.11 181.201 331.81 182.101 331.91 182.101Z" fill="black"/>
<path d="M337.109 184.602C337.209 184.602 337.609 184.002 338.209 183.002C338.909 182.002 339.809 180.702 340.909 179.202C342.009 177.802 342.609 177.102 343.409 176.202C344.209 175.302 345.009 174.102 345.009 174.102C345.009 174.102 344.409 174.602 343.609 175.402C342.809 176.302 341.709 177.502 340.609 179.002C339.509 180.502 338.609 181.802 338.009 182.902C337.409 183.902 337.109 184.602 337.109 184.602Z" fill="black"/>
<path d="M340.208 188.8C340.308 188.9 341.908 187.2 343.708 185C344.608 183.9 345.408 182.9 346.008 182.2C346.608 181.5 346.908 181.1 346.908 181C346.808 180.9 345.508 182 343.408 184.7C341.608 186.9 340.108 188.7 340.208 188.8Z" fill="black"/>
<g opacity="0.38">
<path d="M327.006 215C327.006 215 313.106 254.3 302.606 262.3C292.006 270.3 278.406 268.6 270.906 262.1C270.906 262.1 281.106 270.5 291.406 262C301.606 253.5 327.006 215 327.006 215Z" fill="url(#colorTwo)"/>
</g>
<g opacity="0.38">
<path d="M298.505 172.201C299.705 179.901 297.905 186.901 298.905 194.501C299.305 197.401 299.805 200.401 299.305 203.301C298.405 208.801 293.405 214.401 289.305 218.201C291.605 203.201 294.705 186.901 298.505 172.201Z" fill="url(#colorTwo)"/>
</g>
<path d="M277.106 138.8C278.306 137.5 280.206 136.6 282.506 136.1C292.106 134.2 303.506 139.9 301.306 156.4L294.706 190.8L289.306 218.1L303.106 204.2L328.506 212.7C328.506 212.7 302.406 252 293.806 259.9C285.206 267.9 278.806 266.6 270.806 262.1C270.806 262.1 261.006 258.1 259.906 230.7C259.006 207.1 261.906 155 277.106 138.8Z" fill="url(#colorTwo)"/>
<path d="M264.909 255.1C264.909 255.1 265.009 255.3 265.109 255.5C265.309 255.8 265.509 256.2 265.709 256.8C266.309 257.9 267.309 259.5 269.009 261.1C270.709 262.7 273.209 264.5 276.409 265.5C278.009 266 279.809 266.3 281.809 266.2C283.709 266.1 285.709 265.5 287.609 264.6C291.409 262.6 294.909 259.4 298.009 255.5C301.209 251.7 304.409 247.4 307.709 242.9C314.309 233.8 321.309 223.7 328.609 212.9L328.709 212.7L328.409 212.6C328.009 212.5 327.609 212.3 327.209 212.2C318.809 209.4 310.609 206.7 303.009 204.1H302.909L302.809 204.2C297.909 209.1 293.309 213.8 289.009 218.2L289.309 218.4C290.709 211.1 292.009 204.4 293.209 198.4C294.409 192.5 295.409 187.3 296.309 183C297.209 178.7 297.809 175.4 298.309 173C298.509 171.9 298.709 171 298.809 170.4C298.909 170.1 298.909 169.9 298.909 169.7C298.909 169.5 298.909 169.5 298.909 169.5C298.909 169.5 298.909 169.6 298.809 169.7C298.809 169.9 298.709 170.1 298.609 170.4C298.509 171 298.309 171.9 298.009 173C297.509 175.3 296.809 178.7 295.909 182.9C295.009 187.2 293.909 192.4 292.709 198.3C291.509 204.3 290.209 211 288.709 218.3L288.609 218.9L289.009 218.5C293.309 214.2 297.909 209.5 302.809 204.6H302.609C310.309 207.2 318.409 209.9 326.809 212.7C327.209 212.8 327.609 213 328.009 213.1L327.909 212.8C320.709 223.6 313.709 233.7 307.109 242.8C303.809 247.3 300.609 251.6 297.409 255.4C294.309 259.3 290.909 262.5 287.109 264.5C285.209 265.5 283.309 266 281.409 266.1C279.509 266.2 277.709 265.9 276.109 265.4C272.909 264.4 270.409 262.7 268.709 261.1C267.009 259.5 266.009 257.9 265.309 256.9C265.009 256.4 264.809 256 264.609 255.7C265.009 255.3 264.909 255.1 264.909 255.1Z" fill="black"/>
<path d="M282.406 139.8C282.406 139.9 283.806 139.8 286.006 140.2C287.106 140.4 288.406 140.7 289.806 141.1C291.206 141.6 292.706 142.2 294.006 143.2C295.306 144.2 296.306 145.5 297.006 146.8C297.706 148.1 298.106 149.3 298.406 150.4C298.706 151.5 299.006 152.3 299.106 152.9C299.306 153.5 299.406 153.8 299.406 153.8C299.406 153.8 299.406 153.5 299.306 152.8C299.206 152.2 299.006 151.3 298.706 150.2C298.406 149.1 298.006 147.8 297.306 146.5C296.606 145.2 295.606 143.8 294.306 142.7C292.906 141.6 291.406 141 290.006 140.6C288.606 140.1 287.306 139.9 286.206 139.7C285.106 139.6 284.206 139.5 283.506 139.5C282.706 139.8 282.406 139.8 282.406 139.8Z" fill="black"/>
<path d="M269.805 227.201C269.905 227.201 270.105 225.801 271.305 224.001C272.505 222.201 274.805 220.101 278.005 219.001C281.105 217.901 284.205 217.801 286.405 217.801C287.505 217.801 288.405 217.901 289.005 217.901C289.605 217.901 290.005 218.001 290.005 217.901C290.005 217.901 289.705 217.801 289.105 217.701C288.505 217.601 287.605 217.501 286.505 217.401C284.305 217.301 281.205 217.301 277.905 218.501C274.705 219.701 272.305 221.901 271.105 223.801C270.505 224.701 270.205 225.601 270.005 226.201C269.805 226.801 269.705 227.101 269.805 227.201Z" fill="black"/>
<path d="M281.902 229.8C282.002 229.8 282.202 229 282.702 227.8C283.202 226.6 284.002 224.9 285.102 223.3C286.302 221.7 287.602 220.4 288.602 219.5C289.602 218.7 290.302 218.2 290.302 218.1C290.302 218.1 289.502 218.4 288.502 219.2C287.402 220 286.102 221.3 284.802 223C283.602 224.7 282.802 226.4 282.402 227.7C281.902 228.9 281.802 229.8 281.902 229.8Z" fill="black"/>
<path d="M364.005 126.9C364.005 126.9 386.605 127.2 390.205 149.6C392.505 164.2 406.805 219.3 402.005 227.9C396.705 237.4 382.205 246.7 371.705 233.1C361.305 219.5 349.305 166.6 349.305 166.6L370.605 154.4L364.005 126.9Z" fill="url(#colorTwo)"/>
<path d="M365.108 141.8C365.108 141.8 371.108 132.1 371.108 130.2C371.108 128.3 370.708 124.2 370.108 124.1C370.108 124.1 370.608 122.5 369.908 121.7C369.108 120.9 367.508 119.5 367.508 119.5C367.508 119.5 367.908 117.1 366.908 116.5C365.908 115.9 359.408 110.8 359.408 110.8C359.408 110.8 356.508 105.5 355.108 105.5C353.708 105.4 351.108 105.4 350.208 106.2C349.308 107 345.408 110.6 345.408 110.6C345.408 110.6 344.108 110.6 343.508 110.7C342.908 110.7 341.108 114.4 341.108 114.4C341.108 114.4 339.108 114.7 338.608 115.8C338.208 116.9 340.208 130.2 340.208 130.2L345.608 145.2L350.408 166L369.608 154.601L365.108 141.8Z" fill="white"/>
<path d="M365.105 141.8C365.105 141.8 365.105 141.9 365.205 142C365.305 142.2 365.305 142.4 365.405 142.6C365.605 143.2 365.905 144 366.305 145.1C367.105 147.3 368.205 150.6 369.605 154.7V154.6C364.605 157.6 358.005 161.4 350.405 165.9L350.705 166C349.305 159.7 347.605 152.6 345.905 145.1C344.205 140.3 342.305 135.3 340.505 130.1C340.305 129 340.205 127.9 340.005 126.8C339.705 124.4 339.405 122.1 339.105 119.7C339.005 118.5 338.905 117.4 338.905 116.2C338.805 115.7 339.205 115.3 339.705 115C340.205 114.7 340.705 114.6 341.205 114.5H341.305V114.4C341.805 113.4 342.305 112.5 342.805 111.6C342.905 111.4 343.105 111.2 343.305 111L343.405 110.9L343.505 110.8C343.605 110.8 343.705 110.8 343.905 110.8C344.405 110.8 344.905 110.8 345.505 110.7H345.605H345.705C346.905 109.6 348.105 108.5 349.305 107.4L350.205 106.6C350.505 106.3 350.805 106.1 351.105 106C351.805 105.8 352.605 105.7 353.305 105.6C353.705 105.6 354.105 105.6 354.405 105.6C354.805 105.6 355.205 105.6 355.505 105.7C356.105 106 356.605 106.6 357.005 107.2C357.905 108.4 358.705 109.6 359.305 110.8C361.105 112.2 362.805 113.5 364.505 114.8C365.305 115.4 366.205 116.1 367.005 116.6C367.305 116.9 367.405 117.4 367.405 117.9C367.405 118.4 367.405 118.9 367.405 119.3V119.4L367.505 119.5C368.305 120.2 369.005 120.8 369.705 121.5C370.405 122.1 370.305 123.1 370.105 123.9V124.1H370.305C370.305 124.1 370.505 124.3 370.505 124.5C370.605 124.7 370.605 124.8 370.705 125C370.805 125.4 370.905 125.7 370.905 126.1C371.005 126.8 371.105 127.5 371.105 128.2C371.105 128.9 371.205 129.5 371.205 130.2C371.105 130.8 370.905 131.4 370.605 131.9C369.605 134.1 368.605 135.9 367.805 137.3C367.005 138.7 366.305 139.8 365.905 140.6C365.705 141 365.505 141.2 365.405 141.5C365.105 141.7 365.105 141.8 365.105 141.8C365.105 141.8 365.205 141.7 365.305 141.5C365.405 141.3 365.605 141 365.805 140.7C366.305 140 366.905 138.9 367.805 137.4C368.605 136 369.705 134.2 370.705 132C370.905 131.4 371.205 130.9 371.305 130.2C371.305 129.6 371.305 128.9 371.305 128.2C371.305 127.5 371.205 126.8 371.105 126.1C371.005 125.7 371.005 125.4 370.905 125C370.905 124.8 370.805 124.6 370.705 124.4C370.705 124.3 370.605 124.2 370.605 124.1C370.505 124 370.505 123.9 370.305 123.8L370.405 124C370.505 123.6 370.605 123.1 370.605 122.6C370.605 122.4 370.505 122.1 370.405 121.9C370.305 121.7 370.105 121.5 369.905 121.3C369.205 120.6 368.505 120 367.705 119.3L367.805 119.4C367.905 118.9 367.905 118.4 367.905 117.9C367.905 117.4 367.805 116.9 367.405 116.4C366.505 115.8 365.705 115.2 364.905 114.6C363.205 113.3 361.505 112 359.705 110.6V110.7C359.005 109.4 358.205 108.2 357.305 107C356.805 106.4 356.405 105.8 355.605 105.4C355.105 105.2 354.805 105.3 354.405 105.3C354.005 105.3 353.605 105.3 353.205 105.3C352.405 105.3 351.605 105.4 350.805 105.7C350.605 105.8 350.405 105.9 350.205 106C350.005 106.1 349.905 106.3 349.705 106.4L348.805 107.2C347.605 108.3 346.405 109.4 345.205 110.5L345.305 110.4C344.805 110.4 344.305 110.4 343.705 110.5C343.605 110.5 343.505 110.5 343.305 110.5C343.205 110.5 343.105 110.6 343.105 110.6C343.005 110.7 343.005 110.7 342.905 110.8C342.705 111 342.605 111.2 342.405 111.5C341.805 112.4 341.305 113.4 340.905 114.3L341.005 114.2C340.405 114.3 339.905 114.5 339.305 114.8C339.005 115 338.805 115.1 338.605 115.4C338.405 115.6 338.305 116 338.305 116.3C338.305 117.5 338.405 118.6 338.505 119.8C338.805 122.1 339.105 124.5 339.405 126.9C339.605 128 339.705 129.2 339.905 130.2C341.805 135.4 343.605 140.4 345.305 145.2C347.005 152.7 348.705 159.7 350.105 166L350.205 166.2L350.405 166.1C358.005 161.6 364.505 157.7 369.505 154.7H369.605V154.6C368.105 150.5 367.005 147.3 366.205 145.1C365.805 144 365.505 143.2 365.305 142.6C365.205 142.3 365.105 142.1 365.105 142C365.105 141.9 365.105 141.8 365.105 141.8Z" fill="black"/>
<path d="M342.704 120.801C342.704 120.801 343.504 121.001 344.504 120.301C345.004 120.001 345.504 119.401 345.904 118.801C346.304 118.201 346.804 117.501 347.104 116.601C347.404 115.701 347.304 114.801 347.204 114.101C347.104 113.301 347.004 112.601 346.804 112.101C346.504 111.601 346.204 111.201 345.904 111.001C345.604 110.801 345.404 110.801 345.404 110.801C345.404 110.801 346.104 111.101 346.504 112.101C346.704 112.601 346.804 113.301 346.804 114.001C346.804 114.801 346.904 115.601 346.604 116.401C346.304 117.201 345.804 117.901 345.504 118.501C345.104 119.101 344.704 119.701 344.304 120.001C343.404 120.801 342.604 120.701 342.704 120.801Z" fill="black"/>
<path d="M341.008 128.7C341.008 128.7 341.608 128.6 342.508 128.3C343.008 128.1 343.508 127.8 344.008 127.4C344.508 127 345.008 126.4 345.308 125.7C345.908 124.3 345.808 122.8 345.608 121.9C345.408 120.9 345.208 120.4 345.108 120.4C345.008 120.4 345.208 121 345.308 122C345.408 122.9 345.508 124.3 344.908 125.6C344.308 126.9 343.108 127.7 342.308 128.1C341.608 128.5 341.008 128.7 341.008 128.7Z" fill="black"/>
<path d="M347.602 141.2C347.702 141.3 348.602 138.9 350.502 136.5C352.402 134.1 354.402 132.7 354.302 132.6C354.302 132.6 353.702 132.9 352.902 133.5C352.102 134.1 351.102 135.1 350.102 136.3C349.202 137.5 348.502 138.7 348.102 139.7C347.702 140.6 347.602 141.2 347.602 141.2Z" fill="black"/>
<path d="M346.407 139.301C346.507 139.301 346.507 138.701 346.907 137.901C347.207 137.101 347.907 136.001 349.007 135.101C350.007 134.201 351.107 133.601 351.907 133.101C352.707 132.601 353.207 132.301 353.207 132.301C353.207 132.301 352.607 132.501 351.807 132.901C351.007 133.301 349.807 133.901 348.707 134.901C347.607 135.801 346.907 137.001 346.607 137.901C346.307 138.701 346.407 139.301 346.407 139.301Z" fill="black"/>
<path d="M349.602 145.4C349.602 145.4 349.802 145.9 350.402 146.4C351.002 146.9 352.002 147.5 353.202 147.6C354.402 147.7 355.502 147.4 356.202 147.1C356.902 146.7 357.202 146.4 357.202 146.4C357.202 146.3 356.802 146.6 356.102 146.9C355.402 147.2 354.402 147.4 353.302 147.3C352.202 147.2 351.302 146.7 350.702 146.3C349.902 145.7 349.602 145.3 349.602 145.4Z" fill="black"/>
<path d="M360.009 111.5C359.009 110.9 358.109 110.2 356.909 109.7C356.409 109.5 356.009 109.4 355.509 109.4C354.909 109.4 354.409 109.6 353.809 109.9C351.409 111 349.209 112.7 347.409 114.7C346.809 115.3 346.309 116.1 346.109 116.9C345.909 117.5 346.009 118.2 346.009 118.9C346.109 120.4 346.209 122 346.309 123.5C346.309 124 346.409 124.6 346.609 125.1C347.209 126.3 349.109 126.5 349.909 125.5" fill="white"/>
<path d="M349.907 125.4C349.907 125.4 349.607 125.7 348.907 125.9C348.607 126 348.107 126 347.607 125.8C347.107 125.6 346.707 125.2 346.507 124.6C346.307 124 346.407 123.2 346.307 122.5C346.307 121.7 346.207 120.9 346.207 120C346.207 119.1 346.007 118.2 346.207 117.3C346.307 116.4 346.907 115.6 347.607 114.9C348.907 113.4 350.507 112.2 351.907 111.3C352.607 110.8 353.407 110.4 354.107 110.1C354.807 109.8 355.507 109.6 356.107 109.8C357.407 110.1 358.307 110.7 358.907 111.1C359.507 111.5 359.907 111.7 359.907 111.7C359.907 111.7 359.607 111.4 359.007 111C358.407 110.6 357.507 109.9 356.207 109.6C355.907 109.5 355.507 109.5 355.107 109.5C354.707 109.6 354.307 109.7 354.007 109.8C353.307 110.1 352.507 110.5 351.807 111C350.307 111.9 348.707 113.2 347.307 114.7C346.607 115.5 346.007 116.3 345.807 117.4C345.707 118.4 345.807 119.3 345.907 120.2C346.007 121.1 346.007 121.9 346.107 122.7C346.207 123.5 346.207 124.2 346.307 124.9C346.507 125.6 347.007 126.1 347.607 126.3C348.107 126.5 348.607 126.5 349.007 126.4C349.407 126.3 349.607 126.1 349.807 126C349.807 125.5 349.907 125.4 349.907 125.4Z" fill="black"/>
<path d="M354.906 129.602C353.906 130.802 352.006 131.202 350.606 130.602C350.406 129.102 350.206 127.502 350.006 126.002C349.906 125.202 349.806 124.402 350.006 123.702C350.206 123.202 350.506 122.702 350.806 122.202C352.006 120.402 353.306 118.602 354.806 117.002C355.606 116.202 356.406 115.402 357.606 115.202C358.406 115.102 359.306 115.302 360.106 115.602C363.006 116.702 365.806 118.402 368.106 120.502" fill="white"/>
<path d="M368.103 120.401C368.103 120.401 368.003 120.301 367.903 120.101C367.703 119.901 367.503 119.701 367.103 119.401C366.403 118.801 365.403 118.001 364.003 117.201C363.303 116.801 362.503 116.401 361.703 116.001C360.803 115.601 359.903 115.201 358.803 115.001C358.303 114.901 357.703 114.901 357.103 115.101C356.503 115.301 356.003 115.601 355.603 116.001C354.703 116.801 353.903 117.701 353.203 118.601C352.403 119.601 351.703 120.601 351.003 121.601C350.703 122.101 350.303 122.601 350.003 123.101C349.703 123.701 349.703 124.301 349.703 124.801C349.903 127.001 350.203 128.901 350.403 130.501V130.601H350.503C351.903 131.201 353.203 130.801 353.903 130.401C354.303 130.201 354.503 130.001 354.603 129.801C354.703 129.601 354.803 129.501 354.803 129.501C354.803 129.501 354.503 129.801 353.803 130.201C353.103 130.601 351.903 130.901 350.603 130.301L350.703 130.401C350.503 128.801 350.303 126.901 350.103 124.701C350.103 124.201 350.103 123.601 350.403 123.101C350.603 122.601 351.003 122.101 351.303 121.601C352.003 120.601 352.703 119.601 353.503 118.601C354.303 117.701 355.003 116.701 355.903 116.001C356.303 115.601 356.803 115.301 357.303 115.201C357.803 115.001 358.303 115.001 358.803 115.101C359.803 115.301 360.703 115.701 361.603 116.101C362.503 116.501 363.203 116.901 363.903 117.301C365.303 118.101 366.303 118.801 367.003 119.401C367.703 120.101 368.103 120.501 368.103 120.401Z" fill="black"/>
<path d="M360.91 129.1C360.81 129.1 360.91 129.6 361.41 130.1C361.91 130.6 362.61 131.1 363.51 131.6C365.31 132.5 367.01 132.5 367.01 132.4C367.01 132.3 365.41 132.1 363.71 131.3C362.81 130.9 362.11 130.4 361.61 130C361.01 129.5 360.91 129.1 360.91 129.1Z" fill="black"/>
<path d="M361.51 127.5C361.31 128.2 360.61 128.8 359.91 129C360.01 130.1 359.61 131.2 358.81 132C358.51 132.3 358.11 132.5 357.71 132.6C356.91 132.7 356.21 131.9 355.71 131.2C355.21 130.4 354.61 129.5 354.21 128.6C354.01 128.2 353.71 127.6 353.91 127.2C354.01 126.9 354.21 126.7 354.41 126.5C355.41 125.4 356.41 124.3 357.41 123.2C357.91 122.7 358.31 122.2 359.01 121.9C359.81 121.5 360.81 121.6 361.71 121.8C364.71 122.2 367.41 122.7 370.01 124.3" fill="white"/>
<path d="M370.006 124.2C370.006 124.2 369.906 124.1 369.706 124C369.506 123.9 369.206 123.7 368.906 123.5C368.206 123.1 367.006 122.6 365.606 122.3C364.206 121.9 362.406 121.6 360.406 121.4C359.906 121.4 359.406 121.4 358.906 121.7C358.406 121.9 358.006 122.3 357.606 122.7C356.906 123.5 356.106 124.3 355.306 125.1C355.006 125.4 354.806 125.6 354.506 125.9C354.306 126.2 354.006 126.4 353.806 126.8C353.606 127.2 353.606 127.6 353.706 128C353.806 128.4 354.006 128.7 354.206 129C354.606 129.6 354.906 130.2 355.206 130.7C355.506 131.3 355.906 131.8 356.406 132.2C356.606 132.4 356.906 132.6 357.306 132.6C357.606 132.7 358.006 132.6 358.206 132.5C358.706 132.2 359.106 131.8 359.406 131.4C360.006 130.5 360.106 129.6 360.006 128.9L359.906 129C360.706 128.8 361.106 128.3 361.306 128C361.406 127.8 361.506 127.7 361.506 127.6C361.506 127.5 361.506 127.5 361.506 127.4C361.506 127.4 361.406 127.6 361.206 127.9C361.006 128.2 360.506 128.6 359.806 128.7H359.706V128.8C359.806 129.5 359.606 130.3 359.106 131.1C358.806 131.5 358.506 131.9 358.006 132.1C357.506 132.3 357.006 132.2 356.606 131.8C356.206 131.4 355.806 130.9 355.506 130.3C355.206 129.7 354.806 129.2 354.506 128.6C354.206 128 353.806 127.3 354.106 126.8C354.306 126.5 354.506 126.3 354.806 126C355.106 125.7 355.306 125.5 355.606 125.2C356.406 124.4 357.106 123.6 357.806 122.8C358.206 122.4 358.506 122.1 359.006 121.9C359.406 121.7 359.906 121.7 360.406 121.7C362.306 121.8 364.106 122.1 365.506 122.5C366.906 122.8 368.006 123.3 368.806 123.6C369.606 124 370.006 124.3 370.006 124.2Z" fill="black"/>
<path d="M361.109 129.301C361.109 129.301 361.309 129.501 361.809 129.601C362.309 129.701 362.909 129.601 363.609 129.401C364.909 128.901 365.709 128.101 365.709 128.101C365.609 128.001 364.709 128.601 363.509 129.101C362.909 129.301 362.309 129.401 361.909 129.401C361.409 129.301 361.109 129.201 361.109 129.301Z" fill="black"/>
<path d="M391.405 237.901C373.105 244.601 358.605 201.401 354.305 188.301C352.105 181.201 350.105 174.101 348.405 166.801L348.305 166.201L348.805 165.901C354.405 162.601 365.805 156.001 371.505 152.701L372.205 152.301L372.605 153.101C378.505 165.701 385.605 180.801 391.305 193.301C391.805 194.501 392.605 196.101 393.305 197.201C396.805 203.501 401.705 210.101 400.905 217.701C401.305 211.601 398.005 206.301 394.905 201.401C393.505 199.201 391.505 196.001 390.505 193.701C386.705 186.001 382.505 177.501 378.805 169.701L371.105 153.701L372.205 154.001C366.605 157.301 355.205 163.901 349.505 167.201L349.905 166.301C351.505 173.501 353.505 180.601 355.605 187.701C359.905 200.801 373.305 243.901 391.405 237.901Z" fill="black"/>
<path d="M370.805 127.801C378.405 129.601 386.305 134.201 388.905 142.101C391.105 149.701 392.705 157.401 394.405 165.101C397.605 180.001 401.005 196.301 403.705 211.301C405.605 222.301 402.805 233.701 391.405 237.901C396.005 235.601 399.905 231.701 401.505 226.701C403.105 221.801 402.805 216.601 401.905 211.601C399.705 201.401 397.405 191.201 395.305 180.901C394.105 175.301 388.605 147.601 387.305 142.601C385.205 135.001 378.005 130.401 370.805 127.801Z" fill="black"/>
<path d="M176.5 300.301H461.9C462.4 300.301 462.9 300.701 462.9 301.301V301.901C462.9 302.401 462.5 302.901 461.9 302.901H176.5C176 302.901 175.5 302.501 175.5 301.901V301.301C175.6 300.801 176 300.301 176.5 300.301Z" fill="black"/>
<script type="text/ecmascript" xlink:href="https://www.argentina.gob.ar/profiles/argentinagobar/themes/contrib/poncho/js/w3c/ref2.js"></script></svg>
