<svg width="640" height="360" viewBox="0 0 640 360" fill="none" 
xmlns="http://www.w3.org/2000/svg" 
xmlns:xlink="http://www.w3.org/1999/xlink">
<defs>
<ref id="colorOne" param="c1" default="#242C4F" />
<ref id="colorTwo" param="c2" default="#9296A7"/>
</defs>
<path d="M388.303 300.4C386.603 290.2 384.303 284.9 380.403 275C373.403 256.9 365.903 244.4 365.903 244.4L277.403 254.1C277.403 254.1 274.503 275.2 271.203 295.2C270.903 297.2 270.503 297.6 270.203 300.4" fill="black"/>
<path d="M302.699 61.6004C305.799 53.7004 312.799 49.7004 315.799 41.8004C315.799 41.8004 312.199 36.3004 307.799 35.9004C303.399 35.5004 295.399 39.0004 291.199 42.6004C284.999 46.5004 281.699 53.0004 279.999 60.2004C278.699 65.9004 279.199 71.9004 279.699 77.7004C280.999 92.8004 282.299 108 283.499 123.1C283.599 124.1 283.699 125.1 284.099 125.9C285.199 127.9 297.799 127.6 301.899 126.8C304.299 126.3 302.299 126.2 305.599 125C307.499 124.3 305.699 117.4 305.799 115.4C306.899 100.7 310.899 89.0004 308.599 74.4004L302.699 61.6004Z" fill="black"/>
<path d="M274.402 207.499C274.402 207.499 268.302 232.899 264.102 237.999L282.802 246.599L294.002 228.099L289.102 192.799L274.402 207.499Z" fill="url(#colorTwo)"/>
<path d="M284.205 230.098C284.205 230.098 284.005 230.098 283.605 229.998C283.205 229.898 282.705 229.798 282.005 229.598C280.705 229.198 278.805 228.598 276.805 227.798C274.805 226.998 273.105 226.198 271.805 225.598C271.205 225.298 270.705 224.998 270.305 224.798C270.005 224.598 269.805 224.498 269.805 224.498C269.805 224.498 270.005 224.598 270.405 224.698C270.805 224.898 271.305 225.098 271.905 225.398C273.205 225.998 274.905 226.698 276.905 227.498C278.905 228.298 280.705 228.898 282.005 229.398C282.605 229.598 283.105 229.798 283.605 229.898C284.005 229.898 284.205 229.998 284.205 230.098Z" fill="white"/>
<path d="M283.3 217.099C283.3 217.099 282.7 217.099 281.7 216.899C280.7 216.699 279.4 216.399 277.9 215.899C276.4 215.399 275.1 214.899 274.2 214.499C273.3 214.099 272.7 213.799 272.8 213.699C272.8 213.699 273.4 213.899 274.3 214.299C275.2 214.699 276.5 215.199 278 215.599C279.5 216.099 280.8 216.399 281.8 216.699C282.7 216.899 283.3 217.099 283.3 217.099Z" fill="white"/>
<path d="M281.102 242.799C281.102 242.799 280.902 242.799 280.502 242.599C280.102 242.499 279.502 242.299 278.802 241.999C277.402 241.499 275.402 240.599 273.302 239.599C271.202 238.599 269.302 237.499 268.002 236.699C267.302 236.299 266.802 235.999 266.502 235.699C266.102 235.499 265.902 235.299 266.002 235.299C266.102 235.299 266.202 235.399 266.602 235.599C267.002 235.799 267.602 236.099 268.202 236.499C269.502 237.299 271.402 238.299 273.502 239.299C275.602 240.299 277.602 241.199 279.002 241.799C279.702 242.099 280.202 242.299 280.702 242.499C280.902 242.699 281.102 242.799 281.102 242.799Z" fill="white"/>
<g opacity="0.26">
<path d="M272.5 214.899C274.3 214.299 276.3 213.799 278.1 213.199C278.1 222.599 278.1 231.999 278.1 241.499C278.1 242.299 278.1 243.099 278.4 243.899C278.7 244.599 279.4 245.299 280.2 245.199C281 245.199 281.6 244.499 282.1 243.899C285.5 239.799 287.5 234.699 288.7 229.599C289.8 224.399 290.1 219.099 289.9 213.799C289.8 209.999 289.6 206.099 288.5 202.399C288.1 200.999 287.6 199.699 286.6 198.699C285.2 197.499 283.3 197.399 281.5 197.799C278.2 198.699 276.8 201.499 275.5 204.699C274.3 207.799 272.5 214.899 272.5 214.899Z" fill="url(#colorTwo)"/>
</g>
<path d="M378.303 269.2L362.703 216.5L375.003 134C365.503 127.7 354.003 122.3 337.203 120.1C334.103 131.6 323.203 137 315.703 134.2C310.603 132.3 304.603 127.1 304.103 120.3C294.903 124.4 288.003 127.8 278.803 131.9L280.603 182.6L282.503 227.6L274.203 272.3C281.203 277.4 299.803 277 314.403 280.6C347.003 284.5 369.603 273.2 378.303 269.2Z" fill="url(#colorOne)"/>
<path d="M306.505 248.699C306.505 248.699 306.205 248.699 305.705 248.699C305.205 248.699 304.505 248.599 303.705 248.399C302.005 248.099 299.705 247.599 297.205 246.699C294.705 245.799 292.605 244.699 291.105 243.899C290.405 243.499 289.805 243.099 289.405 242.799C289.005 242.499 288.805 242.399 288.805 242.299C288.805 242.299 289.005 242.399 289.505 242.699C289.905 242.899 290.505 243.299 291.305 243.699C292.805 244.499 295.005 245.599 297.405 246.399C299.905 247.299 302.205 247.799 303.905 248.199C304.705 248.399 305.405 248.499 305.905 248.599C306.305 248.699 306.505 248.699 306.505 248.699Z" fill="black"/>
<path d="M284.202 166.9L262.502 184L271.402 134.9L256.102 130.9L253.602 135.8C250.402 136.6 231.902 183.4 235.502 205.8C238.102 221.6 265.302 224.5 283.402 199.9L284.202 166.9Z" fill="url(#colorOne)"/>
<path d="M364.102 179.4C364.102 179.4 390.602 178.6 390.902 176C391.402 171.7 381.402 137.5 374.602 133.8C367.802 130.3 364.102 179.4 364.102 179.4Z" fill="url(#colorOne)"/>
<path d="M279.202 131.9C279.202 131.9 269.502 134.7 266.502 150C263.502 165.4 260.602 186.4 260.602 186.4L266.102 213.9L282.202 201.4L279.202 131.9Z" fill="url(#colorOne)"/>
<path d="M375.898 135.299C375.898 135.299 375.498 135.399 374.798 135.499C374.098 135.599 373.098 135.899 371.898 136.299C369.498 137.099 366.398 138.699 363.598 141.399C360.798 144.099 359.098 147.199 358.098 149.499C357.598 150.699 357.298 151.699 357.198 152.299C356.998 152.999 356.898 153.399 356.898 153.399C356.898 153.399 356.898 153.299 356.898 153.099C356.898 152.899 356.998 152.599 357.098 152.299C357.198 151.599 357.498 150.599 357.998 149.399C358.898 146.999 360.598 143.899 363.398 141.199C366.198 138.499 369.498 136.899 371.898 136.099C373.098 135.699 374.098 135.499 374.798 135.399C375.098 135.299 375.398 135.299 375.598 135.299C375.798 135.299 375.898 135.299 375.898 135.299Z" fill="black"/>
<path d="M256.902 136.999C256.802 136.999 256.502 135.799 256.802 134.299C257.102 132.799 257.902 131.799 258.002 131.799C258.102 131.799 257.402 132.899 257.102 134.299C256.902 135.799 257.002 136.999 256.902 136.999Z" fill="black"/>
<path d="M262.6 132.6C262.7 132.6 262.6 134.1 262.1 135.8C261.6 137.6 260.8 138.8 260.8 138.8C260.7 138.8 261.3 137.4 261.8 135.7C262.3 134 262.5 132.6 262.6 132.6Z" fill="black"/>
<path d="M266.599 133.799C266.699 133.799 266.899 135.299 266.299 136.999C265.699 138.699 264.499 139.699 264.499 139.599C264.399 139.499 265.399 138.499 265.999 136.899C266.599 135.299 266.499 133.799 266.599 133.799Z" fill="black"/>
<path d="M269.402 134.5C269.502 134.5 269.802 135.8 269.402 137.5C269.002 139.1 268.102 140.2 268.102 140.2C268.002 140.2 268.802 139 269.102 137.5C269.502 135.8 269.302 134.5 269.402 134.5Z" fill="black"/>
<path d="M266.005 173.899C266.005 173.899 265.905 173.799 265.905 173.699C265.805 173.499 265.705 173.399 265.605 173.099C265.305 172.599 264.905 171.899 264.305 170.999C263.205 169.199 261.405 166.799 259.005 164.299H259.205C257.505 165.299 255.705 166.499 253.905 167.799C251.805 169.299 249.905 170.799 248.105 172.099L248.005 172.199L247.905 172.099C246.105 169.399 244.805 166.899 244.005 165.099C243.605 164.199 243.305 163.499 243.105 162.999C243.005 162.799 242.905 162.599 242.905 162.399C242.905 162.299 242.805 162.199 242.805 162.199C242.805 162.199 242.805 162.299 242.905 162.399C243.005 162.499 243.105 162.699 243.205 162.999C243.405 163.499 243.705 164.199 244.205 165.099C245.105 166.899 246.405 169.299 248.205 171.999H248.005C249.705 170.599 251.705 169.099 253.805 167.599C255.605 166.299 257.405 165.099 259.105 164.099L259.205 163.999L259.305 164.099C261.705 166.599 263.405 169.099 264.605 170.899C265.205 171.799 265.605 172.499 265.805 172.999C265.905 173.299 266.005 173.499 266.105 173.599C266.005 173.899 266.005 173.899 266.005 173.899Z" fill="white"/>
<path d="M266.902 185.6C266.902 185.6 266.802 185.5 266.602 185.3C266.402 185.1 266.202 184.8 265.802 184.4C265.102 183.6 264.202 182.4 262.902 181.1C262.302 180.4 261.602 179.7 260.802 178.9C260.402 178.5 260.002 178.1 259.602 177.7C259.202 177.3 258.702 176.9 258.202 176.6C257.702 176.3 257.102 176.3 256.502 176.5C255.902 176.7 255.402 177.1 254.902 177.5C253.802 178.3 252.802 179.2 251.602 180.1C250.102 181.3 248.602 182.5 247.202 183.5L247.102 183.6L247.002 183.5C244.102 180.2 242.002 177.1 240.602 174.8C239.902 173.7 239.402 172.7 239.102 172.1C238.902 171.8 238.802 171.5 238.702 171.4C238.602 171.2 238.602 171.1 238.602 171.1C238.602 171.1 238.702 171.2 238.802 171.3C238.902 171.5 239.002 171.7 239.202 172C239.602 172.6 240.102 173.5 240.802 174.7C242.202 177 244.302 180 247.202 183.3H247.002C248.402 182.2 249.902 181.1 251.402 179.9C252.502 179 253.602 178.2 254.702 177.3C255.202 176.9 255.802 176.5 256.402 176.2C257.002 175.9 257.802 176 258.302 176.3C258.902 176.6 259.302 177 259.702 177.4C260.102 177.8 260.502 178.2 260.902 178.6C261.702 179.4 262.302 180.1 263.002 180.8C264.202 182.2 265.202 183.4 265.802 184.2C266.102 184.6 266.402 184.9 266.502 185.2C266.902 185.5 266.902 185.6 266.902 185.6Z" fill="white"/>
<path d="M272.098 175.1C272.098 175.2 270.998 176.1 269.598 177.1C268.198 178.1 266.898 178.9 266.898 178.8C266.898 178.7 267.998 177.8 269.398 176.8C270.898 175.8 272.098 175 272.098 175.1Z" fill="white"/>
<path d="M281.598 163.7C281.598 163.7 281.398 163.8 281.198 164.1C280.898 164.4 280.598 164.8 280.298 165.4C279.998 166 279.498 166.7 278.698 167.1C278.298 167.3 277.798 167.5 277.298 167.4C276.798 167.3 276.398 166.9 275.998 166.6C274.398 165.3 272.998 164.2 271.998 163.3C271.498 162.9 271.098 162.5 270.798 162.3C270.498 162.1 270.398 161.9 270.398 161.9C270.398 161.9 270.598 162 270.898 162.2C271.198 162.4 271.598 162.7 272.198 163.1C273.298 163.9 274.698 165 276.298 166.3C276.698 166.6 277.098 166.9 277.498 167C277.898 167.1 278.398 167 278.698 166.8C279.398 166.4 279.898 165.7 280.298 165.2C280.698 164.7 280.998 164.2 281.298 164C281.398 163.7 281.598 163.7 281.598 163.7Z" fill="white"/>
<path d="M281.205 160.2C281.205 160.2 280.605 159.9 279.605 159.3C278.705 158.7 277.305 157.9 275.905 157.1C274.405 156.3 273.105 155.5 272.105 155C271.105 154.5 270.505 154.1 270.605 154.1C270.605 154.1 271.205 154.3 272.205 154.8C273.205 155.3 274.605 156 276.005 156.8C277.505 157.6 278.805 158.5 279.705 159.1C280.705 159.8 281.205 160.2 281.205 160.2Z" fill="white"/>
<path d="M316.298 183.5C316.298 183.5 316.298 183.5 316.198 183.4C316.098 183.3 315.998 183.2 315.798 183.1C315.498 182.8 314.998 182.5 314.398 182C313.198 181 311.498 179.6 309.398 177.9H309.598C306.798 180.7 303.298 184.2 299.398 188.1C298.798 188.7 298.298 189.3 297.598 189.7C296.898 190.2 296.098 190.4 295.298 190.2C294.498 190 293.798 189.6 293.298 189.2C292.698 188.8 292.198 188.3 291.598 187.9C289.398 186.1 287.498 184.6 285.898 183.2C284.298 181.9 282.998 180.8 281.998 180C281.598 179.6 281.198 179.3 280.998 179.1C280.798 178.9 280.598 178.8 280.698 178.8C280.698 178.8 280.798 178.9 281.098 179.1C281.398 179.3 281.698 179.6 282.198 179.9C283.098 180.6 284.498 181.7 286.098 183C287.798 184.3 289.698 185.9 291.898 187.6C292.398 188 292.998 188.5 293.598 188.9C294.198 189.3 294.798 189.7 295.498 189.8C296.198 189.9 296.998 189.7 297.598 189.3C298.198 188.9 298.798 188.3 299.398 187.7C303.298 183.8 306.898 180.3 309.698 177.5L309.798 177.4L309.898 177.5C311.898 179.2 313.598 180.7 314.798 181.7C315.398 182.2 315.798 182.6 316.098 182.9C316.198 183 316.298 183.1 316.398 183.2C316.298 183.5 316.298 183.5 316.298 183.5Z" fill="white"/>
<path d="M317.6 170.2C317.6 170.2 317.5 170.1 317.2 170C317 169.8 316.6 169.6 316.2 169.3C315.8 169 315.2 168.6 314.6 168.2C314 167.8 313.2 167.4 312.3 167.1C311.4 166.8 310.4 166.6 309.3 166.8C308.8 166.9 308.2 167.1 307.7 167.3C307.2 167.6 306.7 167.9 306.2 168.3C304.3 170 302.3 171.9 300.2 173.9C299.7 174.4 299.1 174.9 298.5 175.3C297.9 175.7 297.2 176 296.5 176.1C295.8 176.2 295.1 176 294.5 175.7C293.9 175.4 293.3 175.1 292.8 174.8C290.6 173.6 288.6 172.5 286.9 171.5C285.3 170.6 283.9 169.8 283 169.3C282.6 169 282.2 168.8 281.9 168.7C281.7 168.6 281.5 168.5 281.5 168.5C281.5 168.5 281.6 168.6 281.9 168.7C282.2 168.8 282.5 169 283 169.3C284 169.8 285.3 170.6 287 171.5C288.7 172.4 290.7 173.5 292.9 174.7C293.5 175 294 175.3 294.6 175.6C295.2 175.8 295.8 176 296.5 176C297.2 175.9 297.8 175.7 298.4 175.3C299 174.9 299.5 174.4 300 173.9C302.1 171.9 304.1 170 306 168.3C306.5 167.9 307 167.5 307.5 167.2C308 166.9 308.6 166.7 309.2 166.6C310.3 166.4 311.4 166.6 312.3 166.9C313.2 167.2 314 167.6 314.6 168C315.2 168.4 315.8 168.8 316.2 169.1C316.6 169.4 316.9 169.7 317.2 169.9C317.5 170.1 317.6 170.2 317.6 170.2Z" fill="white"/>
<path d="M359.902 175.199C359.902 175.199 359.702 175.499 359.302 175.899C358.902 176.399 358.302 176.999 357.702 177.799C356.302 179.399 354.402 181.499 352.202 183.799C351.102 184.999 350.102 186.099 349.102 187.099C348.602 187.599 348.202 188.099 347.702 188.499C347.202 188.899 346.702 189.199 346.102 189.199C345.502 189.199 345.102 189.099 344.702 188.899C344.302 188.699 344.002 188.499 343.802 188.399C343.602 188.199 343.402 188.099 343.302 187.999C343.202 187.899 343.102 187.799 343.102 187.799C343.102 187.799 343.402 187.999 343.902 188.299C344.202 188.399 344.502 188.599 344.802 188.799C345.202 188.999 345.602 189.099 346.102 188.999C346.602 188.999 347.102 188.699 347.502 188.299C347.902 187.899 348.402 187.399 348.802 186.899C349.702 185.899 350.802 184.799 351.802 183.599C354.002 181.299 355.902 179.099 357.402 177.599C358.102 176.899 358.702 176.299 359.102 175.799C359.702 175.399 359.902 175.199 359.902 175.199Z" fill="white"/>
<path d="M354.899 163.8C354.999 163.9 353.3 166 351.2 168.5C349.1 171.1 347.3 173.1 347.2 173C347.1 172.9 348.799 170.8 350.899 168.3C353.099 165.7 354.899 163.7 354.899 163.8Z" fill="white"/>
<path d="M297.4 111.1C297.4 111.1 289 116.1 290.8 124.6C292.8 133.5 290.6 140.7 291.9 145.6C294.4 154.5 304.4 158.6 312.8 158.3C321.2 158.1 363.3 157 355 127.4L354.3 120.2C353.7 114 348.5 109.3 342.3 109.5H342.2L338.4 109.7C335.3 134.4 305.7 135.3 304 114.4C301.8 114.1 299.6 112.8 297.4 111.1Z" fill="url(#colorTwo)"/>
<path d="M317.101 155.201C319.701 164.601 319.101 180.201 314.601 188.901C310.101 197.601 304.601 206.101 302.801 215.701C300.901 225.801 303.401 236.601 309.701 244.801C311.901 247.601 314.701 251.701 318.401 256.301C321.001 259.501 322.801 262.301 322.801 262.301C330.201 263.601 357.601 265.501 357.601 265.501C353.301 259.601 341.101 236.601 338.001 230.001C335.001 223.401 333.201 216.001 334.301 208.801C335.701 199.901 341.201 192.301 344.701 184.001C349.801 171.901 350.601 157.901 346.901 145.301L317.101 155.201Z" fill="url(#colorTwo)"/>
<path d="M317.101 155.201C319.701 164.601 319.101 180.201 314.601 188.901C310.101 197.601 304.601 206.101 302.801 215.701C300.901 225.801 303.401 236.601 309.701 244.801C311.901 247.601 314.701 251.701 318.401 256.301C321.001 259.501 322.801 262.301 322.801 262.301C330.201 263.601 357.601 265.501 357.601 265.501C353.301 259.601 341.101 236.601 338.001 230.001C335.001 223.401 333.201 216.001 334.301 208.801C335.701 199.901 341.201 192.301 344.701 184.001C349.801 171.901 350.601 157.901 346.901 145.301L317.101 155.201Z" fill="url(#colorTwo)"/>
<g opacity="0.25">
<path d="M347.897 149.9C338.297 154.5 328.297 156.6 317.797 158.1L317.997 159L318.597 163.7L349.097 157.3C348.797 154.4 348.397 151.9 347.897 149.9Z" fill="url(#colorTwo)"/>
</g>
<path d="M295.103 134C295.203 134 294.703 135.1 294.303 136.9C294.103 137.8 294.003 138.9 293.903 140.1C293.803 141.3 293.903 142.7 294.003 144.1C294.203 145.5 294.503 146.8 294.803 148C295.203 149.2 295.603 150.2 296.003 151C296.803 152.7 297.503 153.6 297.403 153.6C297.403 153.6 297.203 153.4 296.903 153C296.703 152.8 296.603 152.5 296.403 152.2C296.203 151.9 296.003 151.5 295.803 151.1C295.403 150.3 294.903 149.3 294.503 148.1C294.103 146.9 293.803 145.6 293.603 144.2C293.403 142.8 293.403 141.4 293.503 140.2C293.603 139 293.803 137.9 294.003 137C294.103 136.5 294.203 136.1 294.303 135.8C294.403 135.4 294.503 135.1 294.603 134.9C295.003 134.3 295.103 134 295.103 134Z" fill="white"/>
<path d="M299.597 113.1C299.697 113.2 298.397 113.8 297.197 115.7C296.597 116.6 296.097 117.8 295.697 119.2C295.297 120.6 295.097 122.2 295.097 123.8C295.197 127.1 295.797 130.1 296.097 132.3C296.297 133.4 296.397 134.3 296.397 134.9C296.397 135.2 296.397 135.4 296.497 135.6C296.497 135.8 296.497 135.8 296.497 135.8C296.497 135.8 296.397 135.5 296.297 134.9C296.197 134.3 296.097 133.4 295.897 132.3C295.497 130.1 294.797 127.2 294.797 123.8C294.797 122.1 294.997 120.5 295.397 119.1C295.797 117.7 296.397 116.5 296.997 115.6C297.597 114.7 298.297 114.1 298.797 113.7C298.997 113.5 299.197 113.4 299.397 113.3C299.497 113.2 299.597 113.1 299.597 113.1Z" fill="white"/>
<path d="M305.399 141.001C305.399 141.001 305.299 140.801 304.999 140.301C304.799 139.801 304.499 139.201 304.199 138.301C303.899 137.501 303.599 136.401 303.299 135.301C303.099 134.101 302.899 132.801 302.799 131.501C302.699 130.101 302.799 128.801 302.899 127.601C302.999 126.401 303.199 125.401 303.399 124.501C303.599 123.601 303.799 122.901 303.999 122.501C304.199 122.001 304.299 121.801 304.299 121.801C304.299 121.801 304.299 122.101 304.099 122.601C303.999 123.101 303.799 123.801 303.599 124.701C303.399 125.601 303.299 126.601 303.099 127.801C302.999 129.001 302.999 130.301 302.999 131.601C303.099 133.001 303.299 134.201 303.499 135.401C303.699 136.601 303.999 137.601 304.299 138.401C304.599 139.301 304.799 139.901 304.999 140.401C305.299 140.801 305.399 141.001 305.399 141.001Z" fill="white"/>
<path d="M308.397 158.2C308.397 158.2 308.197 158 307.797 157.7C307.597 157.5 307.397 157.3 307.197 157.1C306.997 156.8 306.697 156.6 306.397 156.2C305.797 155.5 305.297 154.7 304.697 153.7C304.097 152.7 303.597 151.6 303.197 150.3C302.797 149 302.597 147.8 302.397 146.7C302.297 145.6 302.297 144.5 302.297 143.7C302.297 143.3 302.397 142.9 302.397 142.5C302.397 142.2 302.497 141.9 302.497 141.6C302.597 141.1 302.697 140.9 302.697 140.9C302.797 140.9 302.497 142 302.497 143.7C302.497 144.6 302.497 145.6 302.697 146.7C302.897 147.8 303.097 149 303.497 150.3C303.897 151.5 304.397 152.7 304.897 153.7C305.397 154.7 305.997 155.5 306.497 156.2C307.697 157.4 308.497 158.1 308.397 158.2Z" fill="white"/>
<path d="M317.802 157.3C317.702 157.3 316.902 155.1 316.002 152.4C315.102 149.7 314.402 147.4 314.502 147.4C314.602 147.4 315.402 149.6 316.302 152.3C317.202 155 317.802 157.3 317.802 157.3Z" fill="white"/>
<path d="M318 146.8C317.9 146.8 317.8 146.2 317.6 145.6C317.4 144.9 317.1 144.4 317.2 144.4C317.3 144.4 317.6 144.8 317.9 145.6C318.1 146.2 318.1 146.8 318 146.8Z" fill="white"/>
<path d="M311.901 129.801C312.001 129.801 311.601 130.601 311.401 131.801C311.201 133.101 311.101 134.901 311.501 136.801C311.901 138.701 312.501 140.401 313.001 141.601C313.501 142.801 313.801 143.601 313.701 143.601C313.701 143.601 313.601 143.401 313.401 143.101C313.201 142.801 313.001 142.301 312.801 141.701C312.301 140.501 311.601 138.801 311.201 136.801C310.801 134.801 310.901 133.001 311.201 131.701C311.301 131.101 311.501 130.601 311.701 130.201C311.701 130.001 311.801 129.801 311.901 129.801Z" fill="white"/>
<path d="M327.904 142.601C327.904 142.601 327.704 141.901 327.504 140.901C327.204 139.801 326.804 138.401 326.304 136.801C325.704 135.201 325.104 133.801 324.704 132.801C324.204 131.801 323.904 131.201 324.004 131.201C324.004 131.201 324.404 131.801 324.904 132.701C325.404 133.701 326.104 135.101 326.604 136.601C327.204 138.201 327.504 139.701 327.704 140.801C327.804 141.901 327.904 142.601 327.904 142.601Z" fill="white"/>
<path d="M331.5 143.8C331.4 143.8 331.3 143.4 331.1 142.9C330.9 142.4 330.6 142.1 330.7 142C330.8 141.9 331.1 142.2 331.4 142.7C331.6 143.3 331.6 143.8 331.5 143.8Z" fill="white"/>
<path d="M332.497 154.9C332.497 154.9 332.397 154.3 332.197 153.4C331.997 152.5 331.697 151.2 331.197 149.8C330.697 148.4 330.097 147.2 329.597 146.4C329.097 145.6 328.797 145.1 328.797 145C328.797 145 329.197 145.4 329.697 146.3C330.197 147.1 330.897 148.3 331.397 149.7C331.897 151.1 332.197 152.4 332.397 153.4C332.497 154.3 332.497 154.9 332.497 154.9Z" fill="white"/>
<path d="M340.8 136.701C340.8 136.701 340.6 136.201 340.2 135.401C339.9 134.601 339.4 133.401 338.8 132.201C338.2 131.001 337.6 129.901 337.2 129.101C336.8 128.301 336.5 127.801 336.5 127.801C336.5 127.801 336.9 128.201 337.3 129.001C337.8 129.801 338.4 130.801 339 132.101C339.6 133.301 340 134.501 340.3 135.301C340.8 136.201 340.9 136.701 340.8 136.701Z" fill="white"/>
<path d="M339.498 139.001C339.398 139.001 339.198 138.801 339.098 138.401C338.898 138.001 338.898 137.701 338.898 137.701C338.998 137.701 339.198 137.901 339.298 138.301C339.498 138.701 339.498 139.001 339.498 139.001Z" fill="white"/>
<path d="M344.703 149.701C344.703 149.701 344.603 149.001 344.503 147.901C344.403 146.801 344.103 145.201 343.603 143.601C343.103 141.901 342.503 140.501 342.003 139.501C341.503 138.501 341.203 137.901 341.203 137.801C341.203 137.801 341.303 137.901 341.503 138.201C341.703 138.501 341.903 138.901 342.203 139.401C342.703 140.401 343.403 141.901 343.903 143.501C344.403 145.201 344.603 146.801 344.703 147.901C344.703 148.501 344.803 148.901 344.703 149.301C344.803 149.501 344.703 149.701 344.703 149.701Z" fill="white"/>
<path d="M354.297 144C354.297 144 354.197 143.9 354.197 143.7C354.097 143.5 353.997 143.3 353.897 142.9C353.697 142.2 353.397 141.3 352.997 140.1C352.297 137.7 351.397 134.4 350.197 130.7C348.997 127.1 347.497 123.9 346.197 121.8C345.497 120.7 344.897 119.9 344.497 119.4C344.097 118.8 343.797 118.5 343.797 118.5C343.797 118.5 343.897 118.6 343.997 118.7C344.097 118.8 344.297 119 344.497 119.3C344.997 119.8 345.597 120.6 346.297 121.7C347.697 123.8 349.197 126.9 350.397 130.6C351.597 134.2 352.397 137.6 353.097 140C353.397 141.2 353.697 142.1 353.897 142.8C354.197 143.6 354.297 143.9 354.297 144Z" fill="white"/>
<path d="M350.503 113.001C350.503 113.001 350.103 112.801 349.503 112.601C348.903 112.401 348.003 112.201 347.003 112.301C346.003 112.401 345.103 112.701 344.603 113.001C344.003 113.301 343.703 113.601 343.703 113.601C343.703 113.601 343.903 113.201 344.503 112.901C345.103 112.501 346.003 112.101 347.003 112.001C348.103 111.901 349.003 112.101 349.603 112.401C350.203 112.701 350.503 113.001 350.503 113.001Z" fill="white"/>
<path d="M348.197 161C348.197 161 348.097 161 347.897 161.1C347.697 161.2 347.397 161.2 347.097 161.3C346.397 161.5 345.397 161.8 344.097 162.1C341.497 162.7 337.997 163.6 334.097 164.4C330.197 165.3 326.597 166 323.997 166.4C322.697 166.6 321.697 166.8 320.897 166.9C320.597 167 320.297 167 320.097 167C319.897 167 319.797 167 319.797 167C319.797 167 319.897 167 320.097 166.9C320.297 166.8 320.597 166.8 320.897 166.7C321.697 166.5 322.697 166.3 323.997 166.1C326.597 165.5 330.197 164.8 334.097 164C337.997 163.1 341.497 162.4 344.097 161.8C345.397 161.5 346.397 161.3 347.097 161.1C347.397 161 347.697 161 347.897 160.9C348.097 161 348.197 161 348.197 161Z" fill="white"/>
<path d="M347.698 171.201C347.698 171.201 347.598 171.201 347.398 171.301C347.198 171.301 346.898 171.401 346.498 171.401C345.698 171.501 344.598 171.701 343.298 171.901C340.598 172.301 336.998 173.001 332.898 173.901C328.898 174.801 325.198 175.601 322.598 176.301C321.298 176.601 320.298 176.901 319.498 177.101C319.198 177.201 318.898 177.301 318.698 177.301C318.498 177.301 318.398 177.401 318.398 177.401C318.398 177.401 318.498 177.401 318.698 177.301C318.898 177.201 319.198 177.101 319.498 177.001C320.198 176.801 321.298 176.501 322.598 176.101C325.198 175.401 328.798 174.501 332.898 173.601C336.898 172.701 340.598 172.101 343.298 171.701C344.598 171.501 345.698 171.401 346.498 171.301C346.798 171.301 347.098 171.201 347.398 171.201C347.598 171.201 347.698 171.201 347.698 171.201Z" fill="white"/>
<path d="M344.502 182.7C344.502 182.7 344.402 182.7 344.202 182.8C344.002 182.8 343.702 182.9 343.302 183C342.502 183.1 341.402 183.3 340.102 183.6C337.402 184.1 333.702 184.8 329.502 185.7C325.402 186.6 321.702 187.5 319.002 188.1C317.702 188.4 316.602 188.7 315.802 188.9C315.502 189 315.202 189.1 314.902 189.1C314.702 189.1 314.602 189.2 314.602 189.2C314.602 189.2 314.702 189.2 314.902 189.1C315.102 189 315.402 188.9 315.702 188.8C316.402 188.6 317.502 188.3 318.802 187.9C321.502 187.2 325.202 186.3 329.302 185.4C333.402 184.5 337.202 183.8 339.902 183.4C341.302 183.2 342.402 183 343.102 182.9C343.502 182.9 343.702 182.8 344.002 182.8C344.402 182.7 344.502 182.6 344.502 182.7Z" fill="white"/>
<path d="M337.802 196C337.802 196 337.702 196 337.502 196.1C337.302 196.1 336.902 196.2 336.602 196.3C335.802 196.5 334.602 196.7 333.202 196.9C330.302 197.4 326.402 198.3 322.102 199.4C317.802 200.5 313.902 201.7 311.102 202.6C309.702 203 308.602 203.4 307.802 203.7C307.402 203.8 307.102 203.9 306.902 204C306.702 204.1 306.602 204.1 306.602 204.1C306.602 204.1 306.702 204 306.902 204C307.102 203.9 307.402 203.8 307.802 203.7C308.602 203.4 309.702 203 311.102 202.5C313.902 201.5 317.702 200.3 322.002 199.2C326.302 198.1 330.302 197.3 333.202 196.8C334.602 196.6 335.802 196.4 336.602 196.3C337.002 196.3 337.302 196.2 337.502 196.2C337.702 196 337.802 196 337.802 196Z" fill="white"/>
<path d="M334.098 211C334.098 211 333.998 211.1 333.798 211.1C333.598 211.2 333.198 211.3 332.898 211.4C332.098 211.7 330.898 212 329.498 212.4C326.598 213.3 322.598 214.5 318.198 215.8C313.798 217.1 309.798 218.4 306.998 219.3C305.598 219.8 304.398 220.2 303.598 220.4C303.198 220.5 302.898 220.6 302.698 220.7C302.498 220.8 302.398 220.8 302.398 220.8C302.398 220.8 302.498 220.7 302.698 220.7C302.898 220.6 303.198 220.5 303.598 220.3C304.398 220 305.498 219.6 306.898 219.1C309.698 218.1 313.698 216.8 318.098 215.5C322.498 214.2 326.498 213 329.398 212.2C330.798 211.8 331.998 211.5 332.798 211.3C333.198 211.2 333.498 211.1 333.698 211.1C333.898 211 334.098 211 334.098 211Z" fill="white"/>
<path d="M335.897 225C335.897 225 335.797 225.1 335.597 225.1C335.397 225.2 335.097 225.3 334.697 225.4C333.897 225.7 332.697 226 331.297 226.4C328.497 227.3 324.497 228.5 320.197 230C315.897 231.5 312.097 233 309.297 234.1C307.897 234.6 306.797 235.1 305.997 235.4C305.597 235.5 305.297 235.7 305.097 235.8C304.897 235.9 304.797 235.9 304.797 235.9C304.797 235.9 304.897 235.8 305.097 235.7C305.297 235.6 305.597 235.5 305.997 235.3C306.797 235 307.897 234.5 309.197 233.9C311.897 232.7 315.797 231.2 320.097 229.7C324.397 228.2 328.297 227 331.197 226.2C332.597 225.8 333.797 225.5 334.597 225.3C334.997 225.2 335.297 225.1 335.497 225.1C335.797 225 335.897 225 335.897 225Z" fill="white"/>
<path d="M342.198 237.301C342.198 237.401 335.898 240.001 328.098 243.101C320.298 246.201 313.898 248.701 313.898 248.601C313.898 248.501 320.198 245.901 327.998 242.801C335.798 239.701 342.198 237.301 342.198 237.301Z" fill="white"/>
<path d="M348.4 250.1C348.4 250.1 348.3 250.1 348.1 250.2C347.9 250.3 347.6 250.4 347.3 250.5C346.5 250.7 345.5 251.1 344.3 251.5C341.8 252.3 338.3 253.5 334.4 254.7C330.5 255.9 326.9 256.8 324.3 257.3C323 257.6 321.9 257.7 321.2 257.8C320.9 257.8 320.6 257.9 320.3 257.9C320.1 257.9 320 257.9 320 257.9C320 257.9 320.1 257.9 320.3 257.8C320.5 257.8 320.8 257.7 321.1 257.6C321.8 257.5 322.9 257.3 324.2 257C326.8 256.4 330.4 255.5 334.3 254.3C338.2 253.1 341.7 252 344.3 251.1C345.6 250.7 346.6 250.4 347.3 250.2C347.6 250.1 347.9 250 348.1 250C348.3 250.1 348.4 250.1 348.4 250.1Z" fill="white"/>
<path d="M353.297 260.301C353.297 260.301 353.097 260.401 352.697 260.601C352.297 260.801 351.797 261.001 351.097 261.201C349.797 261.701 347.897 262.301 345.897 262.901C343.797 263.501 341.897 263.901 340.497 264.201C339.797 264.301 339.197 264.401 338.897 264.501C338.497 264.601 338.297 264.601 338.297 264.601C338.297 264.601 338.497 264.501 338.897 264.401C339.297 264.301 339.897 264.201 340.497 264.001C341.897 263.701 343.797 263.201 345.797 262.601C347.897 262.001 349.697 261.401 351.097 261.001C351.697 260.801 352.197 260.601 352.697 260.501C353.097 260.301 353.297 260.301 353.297 260.301Z" fill="white"/>
<path d="M336.505 170.799C336.505 170.799 336.505 170.899 336.405 171.199C336.305 171.499 336.205 171.899 336.105 172.299C336.005 172.799 335.805 173.399 335.505 174.099C335.305 174.799 335.005 175.599 334.605 176.399C334.305 177.199 333.905 178.199 333.405 179.099C333.005 180.099 332.505 181.099 331.905 182.199C330.805 184.299 329.505 186.699 328.005 188.999C326.505 191.299 324.905 193.399 323.405 195.299C322.605 196.199 321.905 197.099 321.205 197.899C320.505 198.699 319.805 199.399 319.205 200.099C318.605 200.799 318.005 201.299 317.405 201.799C316.905 202.299 316.405 202.699 316.005 202.999C316.405 202.699 316.805 202.199 317.305 201.699C317.805 201.199 318.405 200.599 319.005 199.999C319.605 199.299 320.305 198.599 321.005 197.799C321.705 196.999 322.405 196.099 323.205 195.199C324.705 193.299 326.305 191.199 327.805 188.899C329.305 186.599 330.605 184.299 331.705 182.199C332.205 181.099 332.805 180.099 333.205 179.099C333.705 178.099 334.005 177.199 334.405 176.399C334.805 175.599 335.005 174.799 335.305 174.099C335.605 173.399 335.805 172.799 335.905 172.399C336.105 171.899 336.205 171.599 336.305 171.299C336.405 170.999 336.405 170.799 336.505 170.799Z" fill="black"/>
<path d="M317.803 158.1C318.603 162.7 319.103 167.4 319.303 172.1C319.303 174.5 319.403 176.8 318.803 179.3C316.403 185.9 313.003 192.2 310.103 198.6C308.203 202.8 306.103 207.1 304.703 211.4C303.003 218 303.503 225.2 304.603 231.9C305.003 234.2 305.703 236.2 307.003 238.2C309.303 242.2 311.903 246.2 314.403 250.1L322.003 261.9C316.303 254.4 310.803 246.9 305.703 238.9C303.003 234.9 302.403 229.8 302.003 225.1C301.703 220.3 301.603 215.5 302.903 210.8C306.403 200.8 311.703 191.6 316.303 182C318.103 178.9 318.403 175.6 318.403 172C318.503 167.4 318.103 162.8 317.803 158.1Z" fill="black"/>
<g opacity="0.26">
<path d="M349.7 248.901C346.4 243.101 340.3 239.201 333.8 237.801C327.3 236.401 320.4 237.401 314.3 239.901C312.6 240.601 310.2 242.101 310.3 243.901L314.6 249.601C323.9 254.301 335 256.401 345.4 255.601C347.5 255.401 350 254.801 350.7 252.801C351 251.601 350.4 250.201 349.7 248.901Z" fill="url(#colorTwo)"/>
</g>
<path d="M356.9 158L368.9 212.3L322.1 222.5C321.1 222.7 320.1 223.1 319.2 223.5L316.2 225L312 225.4L314.8 247.5L319.7 246.7C324.1 251.4 357.3 247.9 380.5 247.2C380.5 247.2 405.2 247.1 403.1 226C401.7 212.7 387 159.3 387 159.3L356.9 158Z" fill="url(#colorOne)"/>
<path d="M320.197 246.2C320.197 246.2 320.197 245.9 320.097 245.4C320.097 244.9 319.997 244.1 319.997 243.1C319.897 241.2 319.597 238.5 319.197 235.5C318.697 232.6 318.097 229.9 317.597 228.1C317.297 227.2 317.097 226.4 316.997 225.9C316.797 225.4 316.797 225.1 316.797 225.1C316.797 225.1 316.897 225.4 317.097 225.9C317.297 226.4 317.497 227.2 317.797 228.1C318.397 230 318.997 232.6 319.497 235.5C319.997 238.4 320.197 241.1 320.297 243.1C320.297 244.1 320.297 244.9 320.297 245.4C320.197 245.9 320.197 246.2 320.197 246.2Z" fill="black"/>
<path d="M368.9 212.3C368.9 212.3 368.8 212.1 368.8 211.8C368.7 211.5 368.6 211 368.4 210.5C368.1 209.3 367.7 207.6 367.1 205.5C366.1 201.3 364.7 195.5 363.3 189C361.9 182.6 360.6 176.7 359.6 172.5C359.1 170.4 358.7 168.7 358.4 167.5C358.3 166.9 358.2 166.5 358.1 166.1C358 165.8 358 165.6 358 165.6C358 165.6 358.1 165.8 358.1 166.1C358.2 166.4 358.3 166.9 358.5 167.4C358.8 168.6 359.2 170.3 359.8 172.4C360.8 176.6 362.2 182.4 363.6 188.9C365 195.3 366.3 201.2 367.3 205.4C367.8 207.5 368.2 209.2 368.5 210.4C368.6 211 368.7 211.4 368.8 211.8C368.9 212.2 368.9 212.3 368.9 212.3Z" fill="black"/>
<path d="M319.802 240.1C319.802 240.2 318.602 240.8 317.002 241.4C315.402 242 314.202 242.5 314.102 242.4C314.102 242.3 315.302 241.7 316.902 241.1C318.502 240.5 319.802 240.1 319.802 240.1Z" fill="black"/>
<path d="M319.098 235.4C319.098 235.5 317.798 235.6 316.198 236C314.598 236.4 313.398 236.9 313.398 236.8C313.398 236.7 314.598 236.1 316.198 235.7C317.798 235.4 319.098 235.4 319.098 235.4Z" fill="black"/>
<path d="M318.498 231.4C318.498 231.5 317.198 231.4 315.698 231.6C314.098 231.8 312.898 232.2 312.898 232.2C312.898 232.1 314.098 231.5 315.698 231.3C317.198 231.1 318.498 231.3 318.498 231.4Z" fill="black"/>
<path d="M316.803 228.3C316.803 228.4 315.803 228 314.503 228.1C313.203 228.1 312.203 228.5 312.203 228.5C312.203 228.4 313.103 227.9 314.503 227.8C315.803 227.7 316.803 228.2 316.803 228.3Z" fill="black"/>
<path d="M392.802 179.299C392.802 179.299 392.702 179.299 392.602 179.199C392.502 179.099 392.302 178.999 392.102 178.899C391.602 178.599 391.002 178.199 390.302 177.699C388.702 176.699 386.502 175.199 383.802 173.499L384.002 173.399C382.702 176.099 381.202 179.199 379.702 182.599C379.002 184.099 378.302 185.599 377.602 186.899L377.502 186.999H377.402C373.002 185.599 369.202 184.399 366.502 183.499C365.202 183.099 364.102 182.699 363.302 182.399C362.902 182.299 362.702 182.199 362.402 182.099C362.602 182.199 362.902 182.199 363.302 182.299C364.102 182.499 365.202 182.899 366.502 183.299C369.302 184.199 373.102 185.299 377.502 186.699L377.302 186.799C378.002 185.399 378.602 183.999 379.402 182.499C381.002 179.199 382.502 175.999 383.802 173.299L383.902 173.199L384.002 173.299C386.602 175.099 388.902 176.499 390.502 177.599C391.302 178.099 391.902 178.499 392.302 178.799C392.502 178.899 392.602 178.999 392.802 179.099C392.702 179.199 392.802 179.299 392.802 179.299Z" fill="white"/>
<path d="M388 165.2C388 165.2 387.8 164.7 387.3 164C386.8 163.3 385.7 162.5 384.2 162.3C383.4 162.2 382.6 162.3 381.8 162.7C381 163.1 380.3 163.8 379.7 164.6C379.1 165.4 378.6 166.4 378.1 167.4C377.6 168.4 376.9 169.4 376 170.2C375.5 170.6 375 170.9 374.4 171.1C373.8 171.3 373.2 171.3 372.6 171.2C371.4 171.1 370.4 170.8 369.4 170.7C367.4 170.3 365.5 170 364 169.7C362.5 169.4 361.2 169.2 360.3 169C359.9 168.9 359.6 168.8 359.3 168.8C359.1 168.7 359 168.7 359 168.7C359 168.7 359.1 168.7 359.4 168.7C359.7 168.7 360 168.8 360.4 168.8C361.3 168.9 362.6 169.2 364.1 169.4C365.7 169.7 367.5 170 369.6 170.3C370.6 170.5 371.7 170.7 372.8 170.8C373.4 170.8 373.9 170.8 374.5 170.7C375 170.5 375.6 170.3 376 169.9C376.9 169.1 377.5 168.1 378 167.1C378.5 166.1 379 165.1 379.6 164.2C380.2 163.3 380.9 162.6 381.8 162.2C382.7 161.8 383.6 161.7 384.4 161.8C386 162 387.1 162.9 387.6 163.6C387.9 164 388 164.3 388.1 164.5C388 165.1 388 165.2 388 165.2Z" fill="white"/>
<path d="M349.005 78.2982C349.705 98.4982 332.205 112.398 313.805 112.998C295.405 113.598 286.505 100.498 285.805 80.2982C285.105 60.0982 299.805 43.8982 318.205 43.2982C336.505 42.6982 348.305 58.0982 349.005 78.2982Z" fill="white"/>
<path d="M292.999 73.0984C293.399 73.4984 294.799 72.8984 296.499 72.5984C298.199 72.2984 299.699 72.4984 299.999 71.9984C300.099 71.6984 299.799 71.2984 299.099 70.8984C298.399 70.4984 297.299 70.2984 296.199 70.4984C294.999 70.6984 294.099 71.1984 293.499 71.7984C292.999 72.3984 292.799 72.8984 292.999 73.0984Z" fill="black"/>
<path d="M305.599 77.3984C305.999 80.4984 305.599 83.6984 304.499 86.5984C303.699 88.7984 302.299 90.9984 305.899 90.6984C306.699 90.6984 307.399 90.4984 308.199 90.3984C307.499 90.6984 306.799 90.8984 305.999 91.0984C301.799 91.8984 302.599 88.9984 303.699 86.2984C304.799 83.3984 305.399 80.4984 305.599 77.3984Z" fill="black"/>
<path d="M344.402 65.8989C334.202 36.2989 298.402 36.7989 288.602 66.2989C284.302 80.3989 285.602 100.699 298.302 109.899C303.502 113.699 310.202 114.299 316.402 114.199C319.602 114.099 322.802 113.899 325.802 112.699L325.902 112.899C320.702 115.399 314.702 115.399 309.102 115.199C289.102 113.899 282.902 92.4989 285.302 75.5989C286.502 65.8989 291.202 56.5989 298.602 50.0989C309.002 40.7989 324.002 39.7989 334.702 49.2989C339.702 53.6989 343.002 59.6989 344.602 65.9989L344.402 65.8989Z" fill="black"/>
<path d="M313.7 70.4985C313.9 71.0985 316 70.6985 318.4 70.9985C320.9 71.1985 322.8 71.8985 323.1 71.3985C323.2 71.1985 322.9 70.5985 322.1 70.0985C321.3 69.5985 320 69.0985 318.6 68.8985C317.1 68.7985 315.8 68.9985 314.9 69.3985C314.1 69.6985 313.6 70.1985 313.7 70.4985Z" fill="black"/>
<path d="M288 66.798C291.6 65.198 296.4 62.598 301.2 58.498C307.4 53.198 308.1 49.198 310.3 45.298C305 45.198 302.7 43.598 297.3 43.498L288 66.798Z" fill="black"/>
<path d="M330.605 65.2999C335.005 66.4999 335.105 99.3999 333.105 119.1C332.905 120.7 332.805 122.3 333.305 123.8C333.805 125.3 333.505 132.5 337.905 131.8C339.605 131.5 355.505 121.1 355.705 116.5C355.805 114.6 355.905 112.7 355.805 110.8C354.805 100.3 355.405 90.5999 354.405 80.0999C353.905 74.3999 353.305 68.5999 351.805 62.9999C350.305 57.3999 343.705 47.2999 339.705 43.1999C332.705 35.8999 319.705 30.9999 311.505 38.6999C311.505 38.6999 306.705 42.5999 308.005 45.8999C310.205 51.3999 322.105 62.9999 330.605 65.2999Z" fill="black"/>
<path d="M271.808 111.799C274.108 109.699 273.008 106.799 267.608 107.799C268.008 107.699 271.108 107.199 270.808 105.499C270.408 103.699 267.208 102.999 267.208 102.999L263.108 102.399C263.108 102.399 262.708 93.1992 261.108 92.9992C259.508 92.8992 258.208 94.2992 257.808 96.6992L256.608 96.8992C254.508 97.1992 252.508 98.0992 250.808 99.2992L250.008 99.9992C249.408 100.399 249.008 101.199 249.208 101.999L250.608 108.999C250.608 108.999 249.508 113.499 250.008 114.699C250.508 115.999 250.608 116.399 250.608 116.399C250.608 116.399 250.308 119.499 251.508 120.799C252.708 122.099 253.308 122.899 253.308 122.899C253.308 122.899 253.208 125.099 254.208 126.499C255.308 127.999 257.508 131.499 257.508 131.499L270.008 134.699L272.408 124.099L271.808 111.799Z" fill="white"/>
<path d="M271.705 111.8C273.805 109.7 272.505 107.8 269.705 107.9C269.005 107.9 268.305 108 267.605 108.1L267.505 107.5C272.105 106.6 270.405 104.3 267.105 103.4L263.005 102.8H262.605C262.405 100.2 262.305 97.5001 261.705 95.0001C261.605 94.5001 261.405 93.8001 261.005 93.5001C259.205 93.4001 258.305 95.3001 257.905 96.9001V97.1001H257.705C254.705 97.4001 251.905 98.5001 249.605 100.4C249.405 100.6 249.205 101 249.105 101.3C249.005 102 249.605 103.8 249.705 104.5L250.705 108.9C250.405 110.7 249.805 112.7 250.105 114.5C250.305 115.1 250.705 115.9 250.805 116.4C250.705 117.7 250.705 119.4 251.605 120.4C252.305 121.1 253.005 121.8 253.505 122.6C253.505 123.7 253.605 125 254.305 126L255.005 127L257.705 131.1L257.405 130.9L269.905 134.1L269.305 134.5L271.805 123.9C271.805 120.2 271.805 115.6 271.705 111.8ZM271.805 111.8C272.105 115.9 272.505 119.9 272.705 123.9L270.505 134.5L270.405 135L269.905 134.9L257.405 131.7H257.205L257.105 131.5L254.505 127.5C254.105 126.8 253.405 126 253.205 125.3C252.905 124.5 252.805 123.6 252.905 122.7L253.005 123C252.505 122.3 251.805 121.6 251.305 121C250.205 119.7 250.205 117.9 250.405 116.3V116.4C250.205 115.8 250.005 115.3 249.805 114.6C249.505 112.8 250.205 110.3 250.505 108.9L249.705 104.5L249.305 102.3C249.105 101.6 249.205 100.6 249.805 100.1C252.105 98.1001 255.005 97.0001 258.005 96.5001L257.805 96.7001C258.105 95.2001 258.905 93.2001 260.705 92.8001C261.105 92.7001 261.605 92.7001 261.905 92.9001C262.305 93.2001 262.405 93.5001 262.505 93.8001C263.505 96.6001 263.605 99.5001 263.805 102.4L263.405 102L267.405 102.6C268.205 102.8 268.905 103.1 269.605 103.5C272.905 105.6 270.905 107.7 267.805 108.1L267.705 107.5C268.405 107.4 269.205 107.3 270.005 107.3C272.605 107.3 274.305 109.7 271.805 111.8Z" fill="black"/>
<path d="M257.406 96.7998C257.406 96.7998 257.606 96.6998 258.106 96.5998C258.606 96.4998 259.306 96.3998 260.106 96.5998C260.506 96.6998 261.006 96.8998 261.406 97.2998C261.806 97.5998 262.106 98.1998 262.106 98.7998C262.106 99.3998 261.706 99.9998 261.306 100.4C260.806 100.8 260.206 101.1 259.706 101.4C257.406 102.6 255.306 103.5 253.606 103.9C252.806 104.1 252.106 104.2 251.606 104.2C251.106 104.2 250.906 104.2 250.906 104.2C250.906 104.1 251.906 104.2 253.606 103.8C255.206 103.4 257.306 102.5 259.606 101.3C260.206 101 260.706 100.7 261.206 100.4C261.606 99.9998 261.906 99.4998 262.006 98.9998C262.006 98.4998 261.806 97.9998 261.406 97.6998C261.106 97.3998 260.706 97.1998 260.306 97.0998C259.506 96.8998 258.806 96.9998 258.406 96.9998C257.606 96.7998 257.406 96.8998 257.406 96.7998Z" fill="black"/>
<path d="M264.506 102.699C264.506 102.699 264.306 102.799 263.906 102.799C263.506 102.899 262.906 102.899 262.206 102.999C261.406 103.099 260.606 103.199 259.606 103.299C258.606 103.399 257.606 103.499 256.506 103.699C255.406 103.899 254.406 104.299 253.706 104.899C253.006 105.499 252.506 106.199 252.106 106.799C251.406 107.999 251.006 108.899 250.906 108.899C250.906 108.899 251.006 108.699 251.106 108.299C251.306 107.899 251.506 107.399 251.906 106.699C252.306 106.099 252.806 105.299 253.506 104.699C253.906 104.399 254.306 104.099 254.806 103.899C255.306 103.699 255.806 103.599 256.406 103.499C257.506 103.299 258.606 103.199 259.506 103.099C260.406 102.999 261.306 102.899 262.106 102.899C262.806 102.799 263.406 102.799 263.806 102.799C264.206 102.699 264.506 102.699 264.506 102.699Z" fill="black"/>
<path d="M268.302 107.699C268.302 107.699 268.102 107.799 267.602 107.899C267.202 107.999 266.502 108.099 265.702 108.199C264.902 108.299 263.902 108.499 262.902 108.599C262.402 108.699 261.802 108.799 261.302 108.899C260.702 108.999 260.102 109.099 259.502 109.099C258.902 109.099 258.302 109.199 257.802 109.299C257.302 109.499 256.802 109.699 256.302 109.999C255.402 110.499 254.702 111.199 254.102 111.699C253.502 112.299 253.202 112.799 252.902 113.199C252.702 113.599 252.602 113.799 252.602 113.799C252.602 113.799 252.602 113.699 252.602 113.599C252.602 113.499 252.702 113.299 252.802 113.099C253.002 112.699 253.402 112.099 253.902 111.599C254.502 110.999 255.202 110.399 256.102 109.799C256.602 109.499 257.102 109.299 257.602 109.099C258.202 108.899 258.802 108.899 259.402 108.799C260.002 108.799 260.602 108.699 261.202 108.599C261.802 108.499 262.302 108.399 262.802 108.399C263.802 108.299 264.802 108.199 265.602 108.099C266.302 107.999 267.002 107.899 267.502 107.899C268.002 107.699 268.202 107.699 268.302 107.699Z" fill="black"/>
<path d="M271.803 111.8C271.803 111.8 271.603 112 271.203 112.3C270.803 112.6 270.103 113 269.303 113.4C268.503 113.8 267.403 114.1 266.203 114.4C265.003 114.7 263.703 114.9 262.303 115.1C261.603 115.2 260.903 115.3 260.303 115.3C259.703 115.4 259.103 115.7 258.703 116.1C258.203 116.5 257.803 116.8 257.403 117.2C257.003 117.6 256.603 117.9 256.403 118.2C255.803 118.9 255.403 119.5 255.103 119.9C254.803 120.3 254.703 120.6 254.703 120.6C254.703 120.6 254.703 120.5 254.703 120.4C254.703 120.3 254.803 120.1 254.903 119.9C255.103 119.4 255.503 118.8 256.103 118.1C256.403 117.7 256.703 117.4 257.103 117C257.503 116.6 257.903 116.3 258.403 115.9C258.903 115.5 259.503 115.2 260.103 115.1C260.803 115 261.403 114.9 262.103 114.8C264.903 114.5 267.303 113.9 269.003 113.2C270.803 112.5 271.703 111.7 271.803 111.8Z" fill="black"/>
<path d="M254.703 120.6C254.703 120.6 254.803 120.5 254.903 120.3C255.003 120.1 255.203 119.9 255.503 119.6C255.803 119.3 256.103 118.9 256.603 118.6C257.103 118.2 257.703 117.9 258.403 117.7C259.803 117.2 261.503 116.8 263.403 116.2C264.303 115.9 265.303 115.6 266.303 115.3C266.803 115.2 267.403 115 267.903 115C268.503 115 269.103 115.3 269.503 115.8C269.703 116 269.803 116.4 269.803 116.7C269.803 117 269.703 117.3 269.603 117.6C269.303 118.1 268.803 118.5 268.403 118.8C267.503 119.3 266.503 119.8 265.703 120.3C265.303 120.5 264.803 120.8 264.403 121C264.003 121.2 263.603 121.4 263.203 121.6C262.403 121.9 261.703 122.3 261.003 122.6C259.703 123.3 258.703 124 258.103 124.5C257.803 124.8 257.503 125 257.403 125.1C257.203 125.2 257.103 125.3 257.103 125.3C257.103 125.3 257.203 125.2 257.303 125.1C257.503 124.9 257.703 124.7 258.003 124.5C258.603 124 259.603 123.2 260.903 122.5C261.603 122.2 262.303 121.8 263.103 121.5C263.503 121.3 263.903 121.1 264.303 120.9C264.703 120.7 265.103 120.5 265.603 120.2C266.503 119.7 267.403 119.3 268.303 118.7C268.703 118.4 269.203 118.1 269.403 117.6C269.603 117.2 269.703 116.6 269.303 116.2C269.003 115.8 268.503 115.6 267.903 115.6C267.403 115.6 266.903 115.7 266.403 115.8C265.403 116.1 264.403 116.4 263.503 116.7C261.603 117.2 259.903 117.7 258.503 118.1C257.803 118.3 257.203 118.6 256.703 118.9C256.203 119.2 255.903 119.6 255.603 119.9C255.303 120.2 255.103 120.4 254.903 120.6C254.803 120.5 254.703 120.6 254.703 120.6Z" fill="black"/>
<path d="M270.705 122.801C270.605 122.901 269.805 121.901 268.405 121.101C267.105 120.301 265.805 120.101 265.805 120.001C265.805 119.901 267.105 120.001 268.505 120.801C270.005 121.601 270.805 122.701 270.705 122.801Z" fill="black"/>
<path d="M262.106 99.0992L300.506 96.1992C300.806 96.1992 301.006 96.3992 301.006 96.6992C301.006 96.9992 300.806 97.1992 300.606 97.1992C297.706 97.7992 282.006 99.4992 279.706 101.899C278.406 103.299 268.206 103.499 268.206 103.499H257.706L256.406 102.899C256.406 102.799 261.106 101.099 262.106 99.0992Z" fill="url(#colorTwo)"/>
<path d="M296.008 96.5992L296.308 97.5992L300.508 97.0992C300.808 96.9992 301.008 96.6992 300.908 96.4992C300.808 96.2992 300.608 96.1992 300.408 96.1992L296.008 96.5992Z" fill="white"/>
<g opacity="0.4">
<path d="M277.618 98.7361L265.453 99.6699L265.614 101.764L277.778 100.83L277.618 98.7361Z" fill="black"/>
</g>
<path d="M262.108 99.0996C262.108 99.0996 262.008 99.1996 261.908 99.4996C261.708 99.6996 261.408 100.1 261.008 100.5C260.108 101.2 258.608 102.1 256.508 103V102.9C256.908 103.1 257.308 103.3 257.808 103.5C259.908 103.5 262.308 103.5 265.008 103.5C266.408 103.5 267.808 103.5 269.308 103.5C270.808 103.4 272.308 103.4 273.908 103.2C275.508 103 277.208 102.9 278.808 102.4C279.208 102.3 279.608 102.1 279.908 101.8C280.208 101.5 280.608 101.3 281.108 101.1C281.908 100.7 282.808 100.5 283.708 100.2C287.208 99.1996 291.008 98.5996 294.808 98.0996C296.408 97.8996 297.908 97.5996 299.508 97.3996C299.908 97.2996 300.308 97.2996 300.608 97.1996C300.808 97.1996 300.908 97.0996 301.008 96.9996C301.108 96.8996 301.108 96.6996 301.008 96.5996C300.908 96.4996 300.808 96.3996 300.708 96.3996H300.108C299.708 96.3996 299.308 96.4996 299.008 96.4996C296.008 96.6996 293.108 96.8996 290.408 97.0996C284.908 97.4996 280.008 97.8996 275.808 98.1996C271.608 98.4996 268.308 98.6996 265.908 98.8996C264.708 98.9996 263.808 98.9996 263.208 99.0996C262.908 99.0996 262.708 99.0996 262.508 99.0996C262.208 99.0996 262.108 99.0996 262.108 99.0996C262.108 99.0996 262.208 99.0996 262.308 99.0996C262.508 99.0996 262.708 99.0996 263.008 98.9996C263.608 98.8996 264.508 98.8996 265.708 98.7996C268.008 98.5996 271.408 98.2996 275.508 97.9996C279.708 97.6996 284.608 97.2996 290.108 96.8996C292.908 96.6996 295.708 96.4996 298.708 96.1996C299.108 96.1996 299.508 96.0996 299.808 96.0996H300.408C300.608 96.0996 300.908 96.1996 301.008 96.3996C301.108 96.5996 301.108 96.8996 301.008 97.0996C300.908 97.1996 300.808 97.2996 300.708 97.2996C300.608 97.2996 300.508 97.3996 300.408 97.3996C300.008 97.4996 299.608 97.4996 299.308 97.5996C297.808 97.7996 296.208 98.0996 294.608 98.2996C290.708 98.8996 287.008 99.4996 283.508 100.4C282.608 100.6 281.808 100.9 281.008 101.3C280.608 101.5 280.208 101.7 279.908 102L279.608 102.2C279.508 102.3 279.408 102.3 279.308 102.4C279.108 102.5 278.908 102.6 278.708 102.6C277.008 103.1 275.308 103.2 273.708 103.4C272.108 103.5 270.508 103.6 269.008 103.7C267.508 103.7 266.108 103.7 264.708 103.7C262.008 103.7 259.608 103.7 257.508 103.7C257.008 103.5 256.608 103.3 256.208 103.1L256.008 103L256.208 102.9C258.208 102.1 259.808 101.2 260.708 100.5C261.208 100.1 261.508 99.7996 261.708 99.5996C261.908 99.2996 262.008 99.1996 262.108 99.0996Z" fill="black"/>
<path d="M378.598 218.799C377.398 217.199 375.998 215.799 374.198 214.999C372.298 214.399 370.498 213.799 368.898 212.399V212.199C371.098 211.699 373.198 212.299 374.998 213.599C376.798 214.799 377.998 216.599 378.798 218.599C378.798 218.699 378.598 218.799 378.598 218.799Z" fill="black"/>
<path d="M314.898 247.5C316.498 247.2 318.198 246.9 319.798 246.5L319.898 246.6C320.598 247.2 321.798 247.6 322.698 247.8C325.998 248.2 329.298 248.1 332.598 248.1C336.998 248.1 341.498 248 345.898 247.9C353.698 247.7 364.798 247.5 372.498 247.4C363.598 248.2 354.798 248.6 345.898 248.8C341.498 248.9 336.998 248.9 332.598 248.9C330.398 248.9 328.198 248.8 325.898 248.6C323.998 248.4 321.898 248.3 320.198 247.3C319.998 247.1 319.698 247 319.498 246.6L319.698 246.7C318.198 247.1 316.498 247.3 314.898 247.5Z" fill="black"/>
<path d="M280.802 151C281.702 156.2 282.102 161.6 282.002 166.9C281.902 170.1 280.902 173.2 280.702 176.4C280.202 180.6 279.902 184.8 280.002 189C280.002 193.1 281.402 197.2 283.002 200.8C283.102 201 283.102 201 283.102 201.2C283.702 214.6 284.502 228.2 281.802 241.5C280.802 245 279.102 248.3 278.302 251.9C277.702 254.3 277.202 256.6 277.102 259.1C277.102 256.7 277.402 254.2 277.902 251.8C278.802 247 281.102 242.6 281.402 237.7C282.502 225.6 281.802 213.4 281.202 201.3L281.302 201.7C279.502 197.6 278.102 193.5 278.202 189.1C278.302 182.6 279.102 176.3 280.502 170C281.702 163.8 281.402 157.3 280.802 151Z" fill="black"/>
<path d="M268.805 167.6C270.805 170.6 272.705 173.6 273.505 177.2C273.905 180.8 273.105 184.3 272.205 187.8C272.305 184.8 272.905 180.3 272.605 177.4C271.905 174.5 269.905 170.4 268.805 167.6Z" fill="black"/>
<path d="M261.098 203.501C263.998 200.301 267.198 196.701 267.598 192.301C268.298 187.801 267.198 183.601 266.598 179.101C265.998 174.701 266.598 170.001 267.998 165.801C269.398 160.101 270.298 154.201 270.598 148.401C270.598 146.901 270.698 145.501 270.398 144.101C269.798 141.101 270.398 138.001 271.298 135.201L271.498 135.601C268.898 134.901 266.298 134.201 263.698 133.501L255.898 131.301L263.798 133.101C266.498 133.701 269.298 134.401 271.998 135.001L271.898 135.301C271.098 138.101 270.598 141.101 271.198 143.901C271.798 146.901 271.398 149.901 271.198 152.901C270.698 157.301 270.098 161.801 268.898 166.101C267.498 170.301 266.898 174.601 267.398 179.101C267.898 183.501 268.798 188.001 268.098 192.401C267.598 196.801 264.198 200.401 261.098 203.501Z" fill="black"/>
<path d="M269.198 140.8C268.098 140.8 266.198 140.7 263.498 140.1C258.398 139 253.598 136.1 253.398 136L253.898 135.1C253.898 135.1 258.798 138.1 263.598 139.1C268.398 140.1 270.398 139.7 270.398 139.7L270.598 140.7C270.698 140.7 270.198 140.8 269.198 140.8Z" fill="black"/>
<path d="M353.102 117.1C353.702 118.9 354.702 121.9 355.102 123.7C355.102 123.8 355.102 123.9 355.102 123.9C355.102 124 355.102 123.9 355.102 124.2C355.002 124.5 354.202 124.4 354.402 124.3L354.302 124.2C354.302 124.2 354.202 124.1 354.302 123.8C354.302 123.6 354.502 123.5 354.702 123.5C354.902 123.5 354.902 123.5 355.002 123.5C358.102 124.5 360.902 126 363.802 127.2C367.602 129 371.402 130.8 375.102 132.9L376.002 133.4C377.102 134 377.902 135.2 378.502 136.2C384.102 146.1 387.502 156.9 391.102 167.6C394.502 178.3 397.502 189.1 399.802 200.1C401.002 205.6 402.002 211.1 402.702 216.7C403.202 222.2 404.202 228.1 402.402 233.5C403.502 228 401.902 222.4 401.002 217C399.902 211.5 398.502 206.1 397.102 200.7C394.202 189.9 391.102 179.2 387.702 168.6C385.202 160.6 382.502 152.7 379.502 145C378.102 141.8 377.002 138.4 374.902 135.8C371.002 133.3 367.002 130.9 363.002 128.6C360.302 127.1 357.602 125.4 354.802 124.1C354.802 124.1 354.702 124.1 354.902 124.1C355.002 124.1 355.202 124 355.202 123.8C355.202 123.6 355.202 123.5 355.202 123.5C355.202 123.5 355.202 123.5 355.202 123.4C355.402 123.3 354.602 123.2 354.502 123.5C354.402 123.7 354.502 123.6 354.502 123.6C354.102 122.1 353.402 118.8 353.102 117.1Z" fill="black"/>
<path d="M304.805 112.1C304.805 112.1 320.505 116.6 329.905 110C329.905 110 321.105 119.4 305.505 117.3L304.805 112.1Z" fill="black"/>
<path d="M354.705 123.9C355.205 125.1 355.305 126.4 355.605 127.6C356.905 131.2 357.505 135.2 356.605 139C356.105 140.9 355.405 142.9 354.305 144.4C353.705 145.4 352.705 146.7 351.905 147.5C351.505 148 350.905 148.5 350.505 148.9C341.505 156.5 329.105 158 317.805 158C321.405 157.5 325.405 156.9 329.005 156.2C339.305 153.8 351.805 149.8 355.205 138.6C356.005 135.7 356.105 132.5 355.505 129.5C355.005 127.8 355.105 125.8 354.705 123.9Z" fill="black"/>
<path d="M341.803 135.099C331.303 144.399 314.403 147.199 301.903 140.399C297.703 138.099 294.103 134.799 291.703 130.799C294.703 134.299 298.503 137.099 302.603 139.099C315.103 144.999 330.403 142.399 341.803 135.099Z" fill="black"/>
<path d="M305.305 146.699C311.905 145.999 318.605 146.099 325.205 145.099C331.805 144.099 337.305 139.999 342.705 136.299C341.405 137.399 340.205 138.499 338.905 139.599C334.905 142.699 330.405 145.399 325.305 146.099C318.705 147.099 312.005 146.699 305.305 146.699Z" fill="black"/>
<path d="M303.602 115.6C305.602 129.4 313.502 130.9 325.802 130.3C329.202 130 332.702 129.4 335.802 127.9C332.902 129.8 329.402 130.6 325.902 131.1C320.702 131.6 315.102 131.6 310.302 129.3C305.602 126.5 303.602 120.8 303.602 115.6Z" fill="black"/>
<path d="M312.495 229.099C312.495 229.099 305.695 226.999 302.795 226.099C301.895 225.799 301.095 225.199 300.095 224.899C295.595 223.299 290.195 219.799 288.995 218.399C286.995 215.999 284.995 219.199 286.995 222.199C288.995 225.199 290.595 226.299 290.595 226.299L280.895 227.899C280.395 227.999 279.895 228.299 279.595 228.699L271.295 239.599C270.495 240.499 270.495 241.799 271.295 242.699C271.695 243.099 272.195 243.299 272.795 242.999L271.695 244.499C269.895 246.999 273.495 249.899 275.395 247.499C275.395 247.499 275.395 247.399 275.495 247.399C275.295 249.399 276.295 250.499 278.695 250.399C278.695 250.399 279.195 254.199 282.195 252.899C284.595 251.799 291.495 245.099 291.495 245.099C291.495 245.099 313.395 247.599 314.795 244.399L312.495 229.099Z" fill="white"/>
<path d="M312.499 229.099C304.599 226.999 296.799 224.699 290.199 219.899C289.499 219.399 288.899 218.899 288.399 218.299C286.999 217.199 286.399 219.299 286.799 220.399C287.599 222.799 289.599 224.899 291.599 226.399C291.499 226.399 283.699 227.599 283.299 227.699L281.399 227.999C280.799 228.099 280.199 228.199 279.899 228.699L277.599 231.699C275.699 234.199 273.799 236.699 271.899 239.199C271.499 239.699 271.099 240.199 271.099 240.699C270.899 241.699 271.799 243.299 272.799 242.599L273.999 241.799C273.599 242.299 272.899 243.399 272.499 243.899C271.799 244.699 271.399 245.799 271.999 246.799C272.799 247.999 274.499 248.199 275.299 246.999L276.099 245.899C275.699 248.699 275.999 249.999 279.099 249.799L279.199 250.199C279.999 254.199 282.699 251.999 284.799 250.299C287.099 248.399 289.199 246.399 291.299 244.399C297.199 244.999 303.299 245.499 309.199 245.399C310.799 245.199 313.299 245.399 314.399 244.199V244.399C313.799 239.299 313.099 234.199 312.499 229.099ZM312.499 228.999C313.299 233.999 314.399 239.199 315.099 244.399C312.999 247.799 295.599 245.799 291.399 245.499L291.799 245.399C289.699 247.399 287.599 249.299 285.399 251.199C283.899 252.299 282.299 253.999 280.199 253.399C278.999 252.899 278.499 251.599 278.299 250.399L278.799 250.799C276.599 250.899 274.899 249.699 275.199 247.299L275.899 247.599C273.999 250.199 269.899 247.599 271.299 244.699C271.599 244.099 272.299 243.399 272.699 242.799L272.999 243.199C272.699 243.399 272.299 243.499 271.899 243.399C270.499 242.899 270.199 240.999 270.999 239.899C273.099 237.199 275.299 234.399 277.299 231.699L279.599 228.699C279.799 228.399 280.099 228.199 280.399 228.099C280.999 227.799 282.499 227.699 283.199 227.499L290.599 226.099L290.499 226.699C288.299 224.799 284.599 221.399 286.299 218.099C286.799 217.099 288.199 216.999 288.999 217.799C292.099 220.899 296.199 222.899 300.199 224.599C303.999 226.399 308.499 227.499 312.499 228.999Z" fill="black"/>
<path d="M290.498 231.199C290.498 231.199 290.398 231.199 290.298 231.299C290.198 231.399 289.998 231.399 289.698 231.499C289.098 231.599 288.298 231.699 287.298 231.799C286.298 231.899 285.098 231.899 283.798 232.199C282.498 232.499 281.398 233.499 280.398 234.599C278.298 236.899 276.498 238.899 275.098 240.399C274.398 241.099 273.898 241.699 273.498 242.099C273.098 242.499 272.898 242.699 272.898 242.699C272.898 242.699 273.098 242.399 273.398 241.999C273.798 241.499 274.298 240.899 274.998 240.199C276.298 238.699 278.198 236.599 280.198 234.299C280.698 233.699 281.298 233.199 281.898 232.699C282.498 232.299 283.198 231.899 283.798 231.799C285.098 231.399 286.298 231.499 287.298 231.399C288.298 231.399 289.098 231.299 289.698 231.199C290.198 231.299 290.498 231.199 290.498 231.199Z" fill="black"/>
<path d="M292.097 235.799C292.097 235.899 290.897 235.499 289.097 235.899C288.197 236.099 287.097 236.499 285.997 237.099C284.897 237.699 283.797 238.599 282.797 239.499C280.697 241.399 278.897 243.399 277.697 244.799C277.097 245.499 276.597 246.099 276.297 246.499C275.997 246.899 275.797 247.099 275.797 247.099C275.797 247.099 275.897 246.799 276.197 246.399C276.497 245.999 276.997 245.299 277.597 244.599C278.797 243.099 280.497 241.099 282.697 239.199C283.797 238.199 284.897 237.399 285.997 236.799C287.097 236.199 288.197 235.799 289.097 235.599C289.997 235.399 290.797 235.399 291.397 235.499C291.697 235.499 291.897 235.599 291.997 235.599C291.997 235.799 292.097 235.799 292.097 235.799Z" fill="black"/>
<path d="M299.698 226.7C299.698 226.7 299.198 226.8 298.298 226.8C297.498 226.8 296.298 226.8 294.998 226.7C293.698 226.6 292.598 226.5 291.698 226.4C290.898 226.3 290.398 226.2 290.398 226.1C290.398 226.1 290.898 226.1 291.798 226.1C292.698 226.2 293.798 226.2 295.098 226.3C296.298 226.4 297.398 226.5 298.398 226.5C299.198 226.7 299.698 226.7 299.698 226.7Z" fill="black"/>
<path d="M288.998 241.1C288.998 241.1 288.298 241.4 287.198 242C286.098 242.6 284.698 243.6 283.398 244.9C281.998 246.2 280.998 247.5 280.198 248.5C279.398 249.5 278.898 250.1 278.898 250C278.898 250 278.998 249.8 279.198 249.5C279.398 249.2 279.698 248.8 280.098 248.3C280.898 247.3 281.898 245.9 283.298 244.6C284.698 243.3 286.098 242.3 287.198 241.7C287.798 241.4 288.198 241.2 288.598 241.1C288.798 241.1 288.998 241.1 288.998 241.1Z" fill="black"/>
<path d="M358.305 166.199C362.405 180.899 366.405 197.199 369.905 212.099L370.105 212.999L369.205 213.199C360.005 214.999 338.905 219.099 330.005 220.999C326.205 221.799 322.405 222.599 318.705 223.699C318.205 223.899 317.505 223.999 317.305 224.499C317.505 223.999 318.205 223.799 318.605 223.599C322.205 222.099 326.005 221.099 329.705 220.099C342.605 216.699 355.605 213.899 368.705 211.399L368.005 212.499C364.605 197.599 361.105 181.299 358.305 166.199Z" fill="black"/>
<path d="M273.303 209.9C272.903 216.3 272.003 222.7 269.603 228.7C268.003 232.2 265.503 235.2 263.703 238.5L263.403 237.6C265.803 238.8 268.203 240 270.503 241.4C267.703 240.6 265.003 239.6 262.203 238.6C263.803 234.8 266.203 231.6 267.903 228C270.303 222.2 271.503 216 273.303 209.9Z" fill="black"/>
<path d="M176.602 300.301H462.002C462.502 300.301 463.002 300.701 463.002 301.301V301.901C463.002 302.401 462.602 302.901 462.002 302.901H176.602C176.102 302.901 175.602 302.501 175.602 301.901V301.301C175.602 300.801 176.002 300.301 176.602 300.301Z" fill="black"/>
<script type="text/ecmascript" xlink:href="https://dev.w3.org/SVG/modules/ref/master/ref2.js"></script></svg>
