<svg width="640" height="360" viewBox="0 0 640 360" fill="none" 
xmlns="http://www.w3.org/2000/svg" 
xmlns:xlink="http://www.w3.org/1999/xlink">
<defs>
<ref id="colorOne" param="c1" default="#242C4F" />
<ref id="colorTwo" param="c2" default="#9296A7"/>
</defs>
<path d="M212.508 72.5V58.5L214.008 57L223.508 49L228.508 37.5L238.008 32C241.508 34 239.341 37.1667 238.008 38L238.508 53.5L212.508 72.5Z" fill="white"/>
<path d="M197.906 325.584L198.673 344.05C198.673 344.05 179.107 350.923 178.898 354.346H216.766L216.817 325.539L197.906 325.584Z" fill="url(#colorOne)"/>
<path d="M218.5 326.047L219.266 344.513C219.266 344.513 199.701 351.386 199.492 354.809H237.36L237.411 326.002L218.5 326.047Z" fill="url(#colorOne)"/>
<path d="M237.105 37.5777C237.133 37.5551 237.229 37.6566 237.443 37.7412C237.652 37.8258 238.001 37.8709 238.356 37.713C239.084 37.4029 239.653 36.1963 239.619 34.9276C239.602 34.2848 239.439 33.6872 239.191 33.191C238.948 32.6891 238.599 32.3452 238.221 32.3001C237.843 32.2324 237.589 32.4692 237.516 32.6722C237.432 32.8752 237.482 33.0105 237.449 33.0274C237.432 33.0444 237.291 32.9147 237.336 32.6215C237.358 32.4805 237.432 32.3114 237.589 32.1704C237.753 32.0238 237.995 31.9449 238.255 31.9561C238.796 31.9674 239.309 32.4411 239.586 32.9823C239.89 33.5236 240.093 34.2003 240.11 34.922C240.132 36.3429 239.478 37.7017 238.475 38.0457C237.99 38.1979 237.567 38.0683 237.347 37.916C237.122 37.7525 237.076 37.6003 237.099 37.5833" fill="black"/>
<path d="M237.906 39.1543L238.673 58.4097" stroke="black" stroke-width="1.01" stroke-miterlimit="10"/>
<path d="M212.839 66.8003C212.839 64.3871 212.523 59.1489 212.523 59.1489C216.059 56.8823 222.34 52.4842 228.069 48.4922" fill="white"/>
<path d="M213.008 68C213.008 65.5867 212.523 59.1489 212.523 59.1489C216.059 56.8823 222.34 52.4842 228.069 48.4922" stroke="black" stroke-width="1.01" stroke-miterlimit="10"/>
<path d="M231.278 49.3155C225.983 54.2379 217.937 59.0476 215.546 59.2675C208.916 59.8708 202.285 54.1928 202.285 48.4134L201.078 24.5119C201.078 18.7324 205.764 14.0469 211.543 14.0469H227.387C233.167 14.0469 237.852 18.7324 237.852 24.5119V31.8137" fill="white"/>
<path d="M231.471 49.5256C227.823 52.8523 223.775 55.711 219.428 58.051C218.323 58.6092 217.229 59.1787 215.966 59.4888C214.68 59.703 213.451 59.5903 212.193 59.3535C207.356 58.316 202.805 54.4875 202.061 49.4185C201.672 42.985 201.148 31.0991 200.793 24.5923C200.646 19.1342 205.196 14.1498 210.643 13.8115C211.731 13.6987 213.248 13.8115 214.342 13.772H221.7C222.895 13.772 226.053 13.772 227.214 13.772C230.366 13.7156 233.513 15.1196 235.548 17.5329C237.2 19.4387 238.13 21.9478 238.13 24.4682V31.8264C238.119 32.2042 237.572 32.1986 237.561 31.8264V24.4682C237.555 22.0775 236.676 19.7093 235.114 17.8994C233.18 15.6102 230.208 14.2851 227.214 14.3359C226.064 14.3359 222.89 14.3359 221.7 14.3359C219.157 14.3641 213.146 14.2795 210.688 14.3753C205.856 14.6911 201.7 18.8523 201.39 23.6901C201.323 26.1034 202.151 39.3482 202.236 42.0264C202.366 44.4623 202.473 46.9545 202.619 49.3452C202.918 51.7077 204.266 53.8616 206.008 55.4911C208.602 57.91 212.284 59.4211 215.842 58.9306C219.287 57.8762 222.388 55.6997 225.371 53.6868C227.361 52.2772 229.289 50.7661 231.077 49.1084C231.342 48.849 231.742 49.2775 231.466 49.5256" fill="black"/>
<path d="M245.047 20.1145C244.697 19.5958 244.269 19.1391 243.801 18.7218C244.703 17.6674 245.3 16.4552 245.492 15.1188C246.298 9.64387 240.147 4.20274 231.751 2.96792C230.009 2.71419 228.312 2.6578 226.699 2.78185C225.385 2.57886 224.01 2.80441 222.848 3.45847C222.701 3.49794 222.555 3.54305 222.414 3.58815C221.264 1.98683 219.33 0.988818 217.373 1.00009C215.377 1.01137 213.409 2.06576 212.287 3.73475C210.827 2.52812 208.803 2.04885 206.959 2.47174C205.115 2.89462 203.497 4.21402 202.696 5.9394C202.33 6.73442 202.132 7.6253 202.194 8.48799C201.287 8.71353 200.514 9.02928 200.153 9.38451C199.099 10.422 198.896 12.2263 199.691 13.4724C197.599 13.5795 195.862 15.7842 196.229 17.8648C196.601 19.9454 198.986 21.4057 200.988 20.7686C200.305 22.0316 201.619 26.9427 201.67 25.5049C201.833 20.6333 204.687 17.6674 204.687 17.6674C206.987 19.6296 209.519 17.2051 210.742 16.021C211.83 17.1487 213.46 17.7069 215.005 17.4926C215.715 17.3911 216.392 17.1205 216.995 16.7314C219.363 19.7029 223.671 22.0485 228.836 22.8097C229.671 22.9338 230.494 23.0071 231.3 23.0409C231.351 34.3122 238.297 31.3971 240.181 31.7523C241.269 31.2731 242.182 30.5626 242.566 29.4406C242.791 28.7752 242.797 28.0479 243.039 27.3938C243.564 25.9729 245.114 25.1328 245.656 23.7175C246.107 22.5391 245.752 21.1689 245.041 20.1202" fill="black"/>
<path d="M212.555 59.0648C214.765 58.7152 217.759 57.9992 221.046 56.4655C224.672 54.7739 229.622 50.7932 231.365 49.2031C230.412 51.0413 225.585 55.9242 221.43 58.7547C219.146 60.3109 216.265 62.6396 212.639 63.3388L212.555 59.0592V59.0648Z" fill="black"/>
<path d="M211.125 31.1484C211.255 33.3644 210.843 35.6141 210.009 37.6665C209.36 39.2848 208.306 40.9481 211.041 40.7508C211.588 40.7226 212.129 40.6267 212.67 40.5309C212.146 40.7113 211.61 40.8523 211.058 40.9481C208.069 41.3146 208.814 39.4144 209.637 37.5256C210.477 35.4957 210.939 33.3474 211.12 31.1541" fill="black"/>
<path d="M171.066 189.157C172.712 189.055 173.112 188.277 173.473 186.969C174.195 184.358 175.542 177.519 175.542 177.519L187.231 168.824L192.65 160.947L207.862 137.113L198.096 122.859L185.585 154.965C185.415 155.438 185.167 155.878 184.84 156.262C182.613 158.906 173.496 169.743 172.515 171.232C171.398 172.929 170.445 189.168 170.445 189.168C170.445 189.168 171.02 189.269 171.68 189.049" fill="white"/>
<path d="M171.067 189.032C171.597 188.993 172.144 188.886 172.539 188.553C172.934 188.215 173.136 187.696 173.289 187.183C174.151 183.997 174.766 180.732 175.431 177.496C175.403 177.445 187.261 168.48 187.03 168.677C193.08 159.994 201.645 145.825 207.356 136.786L207.368 137.451C204.413 133.341 200.37 127.359 197.551 123.231L198.718 123.096C195.566 131.052 189.973 145.165 186.877 152.963L186.032 155.094C185.789 155.855 185.203 156.56 184.69 157.13C181.154 161.347 176.057 167.115 172.759 171.406C171.795 174.147 171.744 177.158 171.366 180.028C171.062 183.072 170.813 186.123 170.605 189.173L170.475 189.01C170.65 189.06 170.864 189.089 171.067 189.094C171.27 189.1 171.479 189.083 171.687 189.043C171.253 189.246 170.78 189.342 170.289 189.314C170.543 184.674 170.836 180.033 171.372 175.41C171.558 174.062 171.676 172.698 172.11 171.395C172.15 171.232 172.325 170.983 172.432 170.837C175.657 166.569 180.596 160.75 184.013 156.555C184.504 155.974 184.938 155.489 185.163 154.773L185.987 152.63C189.178 144.285 194.692 129.902 197.923 121.455C201.239 126.045 205.36 132.371 208.591 137.102C202.547 146.247 193.768 160.259 187.385 169.016C187.402 168.925 175.409 177.857 175.657 177.535C175.228 179.701 174.783 181.866 174.304 184.025C174.061 185.102 173.824 186.179 173.514 187.25C173.351 187.775 173.148 188.344 172.685 188.739C172.223 189.128 171.625 189.241 171.067 189.28C170.999 189.28 170.937 189.235 170.937 189.168C170.937 189.1 170.983 189.038 171.056 189.038" fill="black"/>
<path d="M184.391 169.404L106.159 357L104.391 356.059L180.595 168" fill="url(#colorTwo)"/>
<path d="M180.848 167.031L171.438 190.093L175.08 191.7L184.66 168.869" fill="black"/>
<path d="M181.227 179.961C181.266 180.096 182.304 181.669 184.051 180.868C185.799 180.068 186.121 176.166 185.777 175.54C185.433 174.92 184.66 174.48 183.826 175.382C182.991 176.284 182.151 179.476 182.151 179.476L181.232 179.961H181.227Z" fill="white"/>
<path d="M181.227 179.961C181.266 180.096 182.304 181.669 184.051 180.868C185.799 180.068 186.121 176.166 185.777 175.54C185.433 174.92 184.66 174.48 183.826 175.382C182.991 176.284 182.151 179.476 182.151 179.476L181.232 179.961H181.227Z" stroke="black" stroke-width="1.42" stroke-miterlimit="10" stroke-linecap="round"/>
<path d="M186.142 177.248C186.142 177.248 188.195 177.722 189.153 176.289C190.112 174.863 189.604 174.485 189.604 174.485C189.604 174.485 192.429 173.245 192.536 171.897C192.644 170.544 192.288 168.661 192.288 168.661C192.288 168.661 192.322 166.163 190.794 166.405C189.26 166.648 189.029 168.525 188.967 170.645L188.826 172.348C188.826 172.348 189.266 169.523 188.133 169.202C186.999 168.881 185.703 170.95 185.302 172.145C184.902 173.346 185.562 177.175 186.142 177.242" fill="white"/>
<path d="M186.142 177.248C186.142 177.248 188.195 177.722 189.153 176.289C190.112 174.863 189.604 174.485 189.604 174.485C189.604 174.485 192.429 173.245 192.536 171.897C192.644 170.544 192.288 168.661 192.288 168.661C192.288 168.661 192.322 166.163 190.794 166.405C189.26 166.648 189.029 168.525 188.967 170.645L188.826 172.348C188.826 172.348 189.266 169.523 188.133 169.202C186.999 168.881 185.703 170.95 185.302 172.145C184.902 173.346 185.562 177.175 186.142 177.242V177.248Z" stroke="black" stroke-width="1.42" stroke-miterlimit="10" stroke-linecap="round"/>
<path d="M178.144 164.984C177.067 166.495 174.716 170.194 174.349 172.144C173.892 174.575 177.078 184.425 178.352 184.532C179.632 184.639 181.781 183.912 181.696 181.414C181.611 178.916 180.557 175.009 180.557 175.009C180.557 175.009 185.496 173.616 186.934 169.731C187.616 167.887 187.583 165.999 187.363 164.516" fill="white"/>
<path d="M178.144 164.984C176.712 167.273 175.093 169.653 174.507 172.309C174.439 173.639 174.817 175.015 175.138 176.312C175.674 178.291 176.317 180.259 177.151 182.131C177.495 182.836 177.817 183.648 178.375 184.138C179.277 184.245 180.489 183.76 180.952 182.903C181.578 181.804 181.16 180.343 181.036 179.12C180.816 177.772 180.54 176.425 180.23 175.094L180.157 174.773L180.467 174.671C185.214 173.104 187.797 169.658 186.9 164.584C186.861 164.324 187.036 164.088 187.289 164.043C187.549 164.003 187.791 164.183 187.831 164.443C188 165.621 188.017 166.834 187.825 168.023C187.363 171.767 184.07 174.31 180.653 175.331L180.89 174.914C181.465 176.932 181.95 178.979 182.096 181.088C182.299 182.633 181.403 184.302 179.824 184.724C179.26 184.871 178.533 185.057 177.991 184.775C177.219 184.166 176.926 183.219 176.537 182.407C175.736 180.473 175.122 178.471 174.648 176.436C174.36 175.054 174.028 173.696 174.152 172.263C174.828 169.54 176.582 167.256 178.144 164.984Z" fill="black"/>
<path d="M262.302 188.598C262.218 182.221 260.391 172.264 260.391 172.264L198.102 179.566V247.487L197.11 271.444L197.843 285.8L195.633 346.504L215.751 345.545L215.666 347.891L239.399 346.763C239.399 346.763 243.216 306.437 244.58 300.64C245.945 294.844 244.496 274.123 244.496 274.123C244.496 274.123 262.686 216.763 262.302 188.604" fill="black"/>
<path d="M211.865 346.064C212.547 325.303 213.506 300.578 214.385 279.828C213.596 276.778 213.105 272.566 213.122 269.059C213.055 265.416 213.827 261.83 213.963 258.199C214.752 237.252 214.306 214.016 214.346 192.939C214.786 214.704 215.412 236.469 214.656 258.233C214.526 261.859 213.782 265.428 213.844 269.059C213.822 272.69 214.267 276.321 215.068 279.857C214.154 300.601 212.97 325.325 211.859 346.064" fill="#FAFAFA"/>
<path d="M212.78 72.343C212.78 72.343 203.093 85.7062 200.578 94.6206C198.057 103.529 195.734 133.357 195.734 133.357L195.926 191.467C201.818 193.491 209.12 195.397 217.6 196.339C234.364 198.194 255.965 195.899 264.986 193.283C264.738 177.112 259.957 162.012 261.163 153.537C261.552 150.825 258.485 105.08 258.102 97.7218C257.712 90.3636 255.198 77.7728 252.097 70.9897C248.995 64.2123 239.703 59.5605 239.703 59.5605L212.78 72.343Z" fill="url(#colorOne)"/>
<path d="M238.548 52.6707L213.682 67.2123C212.757 67.7536 212.205 68.7516 212.227 69.8173L212.379 76.0252L241.237 58.7884L239.85 53.2232C239.709 52.6481 239.055 52.3718 238.542 52.6707" fill="white"/>
<path d="M238.577 52.716C233.085 55.9186 227.897 59.6344 222.321 62.6961L213.953 67.2802C213.26 67.6128 212.747 68.2162 212.521 68.9379C212.279 69.575 212.465 70.5843 212.442 71.2553C212.487 72.8454 212.566 74.4298 212.645 76.0198L212.256 75.8055C219 71.4977 226.832 66.6599 233.756 62.6397C236.175 61.2245 238.656 59.9163 241.12 58.58L241.007 58.8507C240.753 57.644 240.516 56.4374 240.246 55.2364L239.834 53.4377C239.783 52.8175 239.124 52.4002 238.571 52.7216M238.52 52.6201C239.124 52.2424 239.913 52.716 239.969 53.3982L240.454 55.18C240.781 56.3641 241.142 57.5425 241.48 58.7266C241.509 58.8337 241.464 58.9465 241.368 58.9972C238.007 61.247 234.207 63.6546 230.717 65.7465C225.129 69.0788 218.182 73.1047 212.516 76.2453C212.352 76.3525 212.115 76.2284 212.127 76.0311C212.132 74.441 212.127 72.851 212.098 71.2609L212.076 70.0712C211.957 68.8251 212.64 67.5226 213.756 66.9475C218.538 63.9704 225.191 59.7133 230.153 57.2042C232.961 55.71 235.786 54.244 238.52 52.6258" fill="black"/>
<path d="M229.055 96.555C229.444 97.5248 243.782 121.55 244.358 124.832C244.933 128.119 244.358 134.13 244.358 134.13L245.13 139.554C245.13 139.554 264.306 142.266 265.079 141.877C265.851 141.488 269.584 125.852 268.242 116.656C265.947 100.987 260.512 86.9075 258.11 79.5099C254.439 68.1991 245.519 65.9493 242.807 65.3686C240.095 64.7878 235.449 65.1769 232.539 69.0505" fill="url(#colorOne)"/>
<path d="M229.055 96.5545C234.18 105.542 239.971 114.316 244.346 123.704C245.023 125.356 244.933 127.205 244.989 128.953C244.983 130.549 244.91 132.855 244.769 134.073L245.581 139.491L245.192 139.102C251.699 139.931 258.2 140.997 264.746 141.414C264.808 141.414 264.882 141.414 264.91 141.403C264.876 141.409 264.87 141.42 264.825 141.442C264.78 141.465 264.752 141.504 264.758 141.493C264.808 141.369 264.977 141.053 265.056 140.777C265.891 138.189 266.41 135.494 266.883 132.799C267.661 128.017 268.242 123.123 267.904 118.291C266.754 108.621 264.092 99.0974 261.126 89.8222C260.055 86.4334 258.775 82.7402 257.681 79.3459C255.883 73.5551 251.563 68.5707 245.824 66.4394C241.313 64.4885 235.686 64.9114 232.545 69.05C235.612 64.7366 241.307 64.2009 245.959 66.0729C251.902 68.1027 256.43 73.1999 258.352 79.1147C259.497 82.5203 260.827 86.1628 261.955 89.5515C265.062 98.9001 267.712 108.39 268.947 118.206C269.415 125.638 268.214 133.047 266.314 140.213C266.077 140.907 265.981 141.516 265.524 142.17C265.361 142.367 265.023 142.435 264.774 142.423C258.172 141.989 251.631 140.873 245.079 140.01C244.876 139.982 244.718 139.819 244.69 139.621L243.952 134.191C244.155 131.603 244.346 128.981 244.183 126.388C244.126 125.553 244.059 124.724 243.72 123.957C242.407 120.8 240.692 117.755 239.086 114.727C235.832 108.621 232.331 102.655 229.066 96.5601" fill="black"/>
<path d="M244.406 144.809C249.047 145.813 263.126 147.583 264.293 146.918C265.646 146.145 266.227 145.175 267.005 142.655C267.541 140.913 267.152 139.266 266.537 138.285" fill="white"/>
<path d="M244.406 144.809C248.787 145.243 254.888 145.897 259.196 146.275C260.775 146.399 262.365 146.602 263.921 146.489C264.045 146.478 264.062 146.461 264.18 146.394C265.787 145.491 266.396 143.495 266.904 141.838C267.163 140.687 267.067 139.419 266.537 138.291C267.298 139.295 267.586 140.637 267.462 141.928C267.107 143.929 266.503 146.241 264.609 147.329C264.491 147.408 264.271 147.487 264.124 147.51C262.444 147.747 260.758 147.521 259.1 147.42C254.144 146.918 249.199 146.219 244.406 144.815" fill="black"/>
<path d="M266.557 138.286C266.28 137.846 265.965 137.541 265.666 137.423C264.696 137.034 254.626 135.681 254.626 135.681C254.626 135.681 244.166 133.549 243.586 135.489C243.005 137.423 241.843 143.625 243.005 144.398C243.168 144.505 243.67 144.646 244.426 144.809" fill="white"/>
<path d="M246.867 129.867C249.754 127.713 259.345 122.543 262.751 123.671C261.341 123.603 260.039 124.432 258.736 124.9C254.919 126.563 250.797 128.525 246.867 129.867Z" fill="black"/>
<path d="M261.776 120.959C256.549 121.585 251.305 121.794 246.281 123.48C250.555 120.435 256.741 120.068 261.776 120.959Z" fill="black"/>
<path d="M223.031 31.2386L239.377 26.6602" stroke="black" stroke-width="2.69" stroke-miterlimit="10"/>
<path d="M207.281 29.2092C207.783 28.9103 209.514 27.9687 211.741 28.3521C213.157 28.5946 214.149 29.2656 214.645 29.6546" stroke="black" stroke-width="1.02" stroke-miterlimit="10"/>
<path d="M209.775 30.692C209.775 34.7573 206.476 38.0558 202.411 38.0558C198.345 38.0558 195.047 34.7573 195.047 30.692C195.047 26.6266 198.345 23.3281 202.411 23.3281C206.476 23.3281 209.775 26.6266 209.775 30.692Z" fill="black"/>
<path d="M226.876 30.7545C226.876 34.8198 223.578 38.1183 219.512 38.1183C215.447 38.1183 212.148 34.8198 212.148 30.7545C212.148 26.6891 215.447 23.3906 219.512 23.3906C223.578 23.3906 226.876 26.6891 226.876 30.7545Z" fill="black"/>
<path d="M232.5 29.332C233.013 32.7433 233.645 38.8836 234.411 38.8836C235.178 38.8836 234.242 36.0926 235.556 33.5327C235.985 32.6982 236.503 32.0441 236.971 31.5479C235.483 30.8093 233.989 30.0707 232.5 29.332Z" fill="black"/>
<path d="M253.521 191.586L253.684 203.433C253.69 203.861 253.605 204.29 253.436 204.684L251.231 209.855C251.231 209.855 238.94 216.587 237.552 216.587C236.165 216.587 235.63 216.48 235.844 215.307C236.058 214.134 240.332 207.188 240.332 207.188L240.761 200.241C240.761 200.241 239.689 197.247 238.41 197.569C237.13 197.89 234.88 202.057 234.564 202.592C234.243 203.128 231.999 205.587 229.969 205.102L231.142 200.241L235.342 193.278C235.675 192.725 236.103 192.235 236.605 191.829L240.721 188.508L244.353 143.434L264.301 146.918C264.301 146.918 253.526 180.67 253.526 191.75V191.586H253.521Z" fill="white"/>
<path d="M253.522 191.553C253.567 194.637 253.691 197.744 253.787 200.924L253.843 203.303C253.916 204.11 253.539 204.894 253.234 205.615L251.424 209.94L251.396 210.008L251.334 210.041C247.336 212.224 243.384 214.434 239.228 216.328C238.845 216.509 238.411 216.661 238.005 216.808C236.826 217.033 235.185 216.971 235.518 215.33C235.546 215.082 235.721 214.688 235.823 214.445C236.956 212.133 238.879 208.767 239.984 207.166L240.401 200.219L240.423 200.36C240.113 199.61 239.335 197.693 238.416 197.947C237.39 198.545 236.736 199.779 236.059 200.755C235.332 201.871 234.802 203.157 233.725 204.008C232.603 204.989 231.109 205.841 229.547 205.356L229.626 205.023L230.816 200.163L230.827 200.112C230.849 200.073 234.808 193.549 234.836 193.509C235.417 192.348 236.539 191.468 237.542 190.696L240.542 188.305C240.875 181.595 242.831 161.928 243.316 154.689L244.173 143.417L244.184 143.248C250.9 144.376 257.621 145.464 264.331 146.631L264.658 146.688L264.562 147.003C263.417 150.674 262.306 154.361 261.213 158.049C258.557 167.274 255.89 176.56 254.181 186.022C253.849 187.882 253.629 189.85 253.539 191.745C253.426 191.756 253.465 191.716 253.505 191.547M253.522 191.621C253.533 191.716 253.618 191.761 253.488 191.75C253.527 189.844 253.702 187.865 253.99 185.993C254.83 180.298 256.211 174.615 257.615 169.038C259.577 161.584 261.675 154.17 264.026 146.828L264.252 147.201C257.604 146.033 250.967 144.787 244.325 143.586L244.511 143.445L243.553 154.711C242.933 162.188 241.568 180.772 240.976 188.525V188.632L240.886 188.7C239.888 189.562 237.396 191.491 236.46 192.342C235.529 193.171 232.191 199.283 231.43 200.405L231.47 200.315L230.308 205.181L230.06 204.775C231.565 205.046 232.975 203.873 233.956 202.824C234.915 201.522 235.569 199.994 236.612 198.731C237.102 198.133 237.542 197.513 238.337 197.231C239.86 197.005 240.626 199.007 241.111 200.129L241.134 200.197V200.27L240.694 207.217V207.301L240.643 207.374C239.459 209.303 238.298 211.254 237.204 213.227C236.871 213.842 236.533 214.451 236.268 215.088C236.15 215.359 236.071 215.855 236.189 216.041C236.24 216.142 236.454 216.221 236.708 216.255C237.198 216.323 237.773 216.317 238.241 216.103C240.598 215.184 242.854 213.988 245.126 212.844C246.981 211.953 249.625 210.397 251.058 209.776L252.924 205.474C253.228 204.764 253.589 204.098 253.533 203.309C253.505 199.441 253.589 195.562 253.533 191.621" fill="black"/>
<path d="M237.947 216.503C237.987 216.549 238.714 216.019 239.729 214.981C240.744 213.944 242.013 212.365 243.084 210.42C244.155 208.469 244.815 206.557 245.148 205.148C245.486 203.732 245.542 202.836 245.486 202.825C245.317 202.785 244.764 206.349 242.627 210.171C240.535 214.011 237.818 216.391 237.942 216.509" fill="black"/>
<path d="M244.212 213.497C244.246 213.548 244.781 213.277 245.475 212.612C246.168 211.958 246.98 210.881 247.606 209.573C248.238 208.259 248.61 207.007 248.847 206.094C249.084 205.181 249.179 204.611 249.112 204.589C249.044 204.566 248.819 205.107 248.497 205.987C248.17 206.861 247.747 208.079 247.138 209.347C246.529 210.616 245.808 211.67 245.204 212.364C244.607 213.063 244.161 213.435 244.206 213.497" fill="black"/>
<path d="M243.149 198.572C243.149 198.719 243.898 198.809 244.553 199.395C245.224 199.959 245.421 200.692 245.567 200.67C245.635 200.658 245.68 200.45 245.601 200.117C245.522 199.785 245.291 199.35 244.891 199.006C244.49 198.662 244.028 198.493 243.69 198.465C243.352 198.431 243.143 198.51 243.149 198.578" fill="black"/>
<path d="M249.372 199.587C249.31 199.723 249.812 200.072 250.066 200.732C250.342 201.381 250.218 201.984 250.354 202.035C250.472 202.119 250.895 201.397 250.545 200.535C250.201 199.666 249.401 199.441 249.372 199.582" fill="black"/>
<path d="M375.48 188.525L371.64 210.837L348.438 217.219C347.344 216.96 345.951 216.684 344.513 216.554C341.378 216.272 336.011 216.554 334.736 217.219C333.541 217.851 330.141 220.01 329.002 220.743C328.748 220.907 328.534 221.11 328.354 221.352L325.016 225.948C325.016 225.948 325.732 227.718 327.26 225.857C328.788 223.997 330.028 222.875 330.028 222.875L334.156 221.093L330.66 224.093L327.688 231.107C327.688 231.107 328.991 232.455 330.141 231.022C331.291 229.59 333.332 226.991 333.332 226.991L331.686 231.891C331.686 231.891 332.52 233.12 333.507 232.139C334.488 231.152 335.08 230.368 335.08 230.368C335.08 230.368 335.672 231.896 336.603 230.616C337.533 229.336 338.644 228.4 338.644 228.4L342.608 226.822C342.608 226.822 344.468 226.991 346.278 226.895C346.34 226.895 375.739 226.297 380.628 224.143C385.522 221.99 387.496 209.698 387.496 209.698L387.704 191.339L375.48 188.52V188.525Z" fill="white"/>
<path d="M375.511 188.558C374.609 194.236 372.844 205.406 371.908 211.067C367.916 212.183 358.201 214.895 354.344 215.967L348.542 217.557C348.452 217.585 348.452 217.585 348.367 217.557C345.103 216.716 341.708 216.66 338.359 216.874C336.679 216.981 335.049 217.139 333.64 218.154L332.185 219.023C331.768 219.327 328.971 220.9 328.678 221.289C327.731 222.507 326.09 224.785 325.154 226.042L325.171 225.89C325.368 226.353 325.836 226.736 326.344 226.46C326.817 226.229 327.156 225.744 327.539 225.309C328.311 224.424 329.101 223.539 329.986 222.755L334.119 220.979L334.863 220.658L334.254 221.182L330.77 224.193L330.809 224.142L327.866 231.168L327.832 230.987C328.266 231.399 328.926 231.658 329.45 231.388C329.913 231.185 330.398 230.378 330.73 229.989C331.334 229.211 333.414 226.55 333.967 225.834C333.685 226.674 332.258 231.044 331.954 231.969L331.92 231.743C332.326 232.284 332.924 232.459 333.409 231.861C333.922 231.331 334.424 230.768 334.869 230.192L335.168 229.803C335.292 230.063 335.433 230.503 335.647 230.694C336.064 231.095 336.301 230.463 336.662 230.051C337.209 229.352 337.812 228.715 338.489 228.123C338.54 228.117 342.441 226.51 342.492 226.494L342.565 226.465C344.556 226.663 347.42 226.482 349.439 226.437C351.717 226.364 353.989 226.274 356.261 226.178C363.62 225.766 371.045 225.591 378.313 224.345C381.432 223.984 382.914 222.005 384.211 219.316C385.66 216.344 386.591 212.747 387.183 209.691L387.521 191.338L387.673 191.529C384.239 190.644 379.024 189.454 375.517 188.558M375.466 188.49C379.046 189.28 384.206 190.357 387.752 191.152L387.904 191.185V191.343C387.904 191.394 387.831 209.708 387.82 209.747C387.228 213.147 386.371 216.513 384.922 219.66C383.591 222.547 381.804 224.757 378.471 225.152C371.147 226.432 363.693 226.629 356.29 226.973C354.012 227.057 351.734 227.131 349.456 227.193C347.42 227.215 344.584 227.396 342.582 227.17L342.746 227.148L338.771 228.698L338.861 228.647C338.241 229.177 337.654 229.786 337.136 230.429C336.826 230.79 336.623 231.247 336.064 231.399C335.41 231.517 335.032 230.959 334.818 230.469L335.32 230.536C334.254 231.732 332.884 234.015 331.401 231.929L331.446 231.799L333.127 226.911L333.516 227.119L331.023 230.226L330.398 231.004C330.009 231.579 329.208 232.042 328.492 231.771C328.103 231.653 327.781 231.422 327.499 231.134L327.545 231.027L330.544 224.024L330.556 223.996L330.578 223.973L334.08 220.979L334.209 221.188L330.088 222.975C329.445 223.612 328.441 224.633 327.759 225.473C327.387 225.896 327.048 226.42 326.473 226.713C325.819 227.091 325.064 226.561 324.844 225.913L324.894 225.839C325.847 224.526 327.421 222.27 328.373 221.002C328.734 220.551 331.413 218.966 331.931 218.6C332.428 218.284 333.623 217.545 334.108 217.263C334.824 216.778 335.777 216.575 336.606 216.463C340.276 215.938 345.407 215.938 348.356 216.874L354.153 215.273C357.88 214.258 367.736 211.591 371.575 210.554L371.367 210.785C372.354 205.231 374.434 194.033 375.466 188.49Z" fill="black"/>
<path d="M375.864 215.218C375.949 215.218 375.56 213.701 374.207 212.432C372.865 211.147 371.337 210.837 371.337 210.921C371.297 211.023 372.701 211.462 373.97 212.68C375.255 213.881 375.769 215.263 375.87 215.218" fill="black"/>
<path d="M347.855 220.522C346.987 222.321 345.041 223.539 343.045 223.533C341.94 223.533 340.824 223.189 339.753 223.454C338.264 223.821 337.294 225.236 335.969 226.009C335.36 226.364 334.452 226.516 334.058 225.935C333.793 225.546 333.905 225.022 334.058 224.577C334.988 221.91 337.17 219.705 339.831 218.752" fill="white"/>
<path d="M339.826 218.746C339.826 218.746 339.735 218.757 339.566 218.808C339.397 218.859 339.16 218.949 338.861 219.079C338.258 219.349 337.418 219.823 336.533 220.612C335.653 221.396 334.74 222.524 334.114 223.967C333.973 224.334 333.798 224.7 333.742 225.14C333.713 225.354 333.719 225.597 333.809 225.828C333.899 226.054 334.08 226.257 334.305 226.364C334.768 226.578 335.264 226.488 335.693 226.324C336.132 226.144 336.493 225.873 336.848 225.597C337.559 225.033 338.168 224.413 338.873 224.001C339.566 223.567 340.35 223.465 341.111 223.533C341.867 223.584 342.605 223.719 343.316 223.668C344.026 223.629 344.663 223.432 345.205 223.189C346.298 222.687 346.986 221.96 347.364 221.424C347.556 221.154 347.68 220.928 347.753 220.77C347.827 220.612 347.855 220.528 347.843 220.522C347.815 220.505 347.657 220.838 347.257 221.345C346.857 221.842 346.163 222.518 345.103 222.969C344.579 223.189 343.964 223.358 343.293 223.387C342.628 223.426 341.906 223.285 341.122 223.217C340.728 223.184 340.316 223.184 339.899 223.257C339.482 223.336 339.07 223.494 338.692 223.714C337.931 224.153 337.311 224.785 336.623 225.332C336.279 225.602 335.924 225.867 335.552 226.014C335.179 226.161 334.751 226.217 334.441 226.07C334.119 225.93 334.001 225.557 334.057 225.191C334.102 224.824 334.26 224.458 334.396 224.103C334.982 222.699 335.845 221.594 336.685 220.799C338.388 219.208 339.859 218.825 339.814 218.746" fill="black"/>
<path d="M425.508 127.697C426.083 128.007 426.951 128.577 427.718 129.558C429.015 131.216 429.195 132.992 429.224 133.697" fill="black"/>
<path d="M425.508 127.697C426.083 128.007 426.951 128.577 427.718 129.558C429.015 131.216 429.195 132.992 429.224 133.697" stroke="black" stroke-width="1.02" stroke-miterlimit="10"/>
<path d="M380.457 295.543L321.039 294.438" stroke="black" stroke-width="3.2" stroke-miterlimit="10" stroke-linecap="round"/>
<path d="M372.184 323.308L330.07 263.658" stroke="black" stroke-width="3.55" stroke-miterlimit="10" stroke-linecap="round"/>
<path d="M328.688 329.526L370.333 262.439" stroke="black" stroke-width="3.69" stroke-miterlimit="10" stroke-linecap="round"/>
<path d="M350.047 340.419L352.184 250.654" stroke="black" stroke-width="3.94" stroke-miterlimit="10" stroke-linecap="round"/>
<path d="M349.811 304.13C345.768 303.978 342.656 299.23 342.87 293.552C343.084 287.874 346.546 283.375 350.589 283.527C354.632 283.679 357.744 288.427 357.53 294.105C357.316 299.783 353.854 304.282 349.811 304.13Z" fill="black"/>
<path d="M352.646 284.023C348.835 283.882 345.564 288.195 345.361 293.642C345.159 299.089 348.091 303.639 351.902 303.786C355.714 303.932 358.984 299.613 359.187 294.167C359.39 288.72 356.458 284.164 352.646 284.023Z" fill="#77787B"/>
<path d="M352.933 301.795C349.871 301.683 347.509 298.097 347.672 293.8C347.836 289.504 350.457 286.109 353.519 286.228C356.581 286.34 358.943 289.926 358.78 294.223C358.616 298.514 355.994 301.914 352.933 301.795Z" fill="black"/>
<path d="M352.933 301.795C349.871 301.683 347.509 298.097 347.672 293.8C347.836 289.504 350.457 286.109 353.519 286.228C356.581 286.34 358.943 289.926 358.78 294.223C358.616 298.514 355.994 301.914 352.933 301.795Z" stroke="black" stroke-width="0.1" stroke-miterlimit="10"/>
<path d="M358.562 294.217C358.421 297.922 356.188 300.843 353.578 300.741C350.967 300.645 348.96 297.561 349.101 293.862C349.242 290.158 351.475 287.237 354.085 287.339C356.696 287.434 358.703 290.519 358.562 294.217Z" fill="#77787B"/>
<path d="M317.362 294.325C316.358 320.837 330.72 342.907 349.428 343.611C368.137 344.316 384.116 323.397 385.12 296.885C386.123 270.373 371.762 248.304 353.054 247.599C334.345 246.895 318.366 267.813 317.362 294.325Z" stroke="#77787B" stroke-width="11.9" stroke-miterlimit="10"/>
<path d="M448.468 172.331C443.659 173.459 438.708 173.916 433.786 174.164C429.76 174.367 425.745 174.361 421.725 174.062C416.966 173.707 412.14 173.025 407.612 171.457C404.567 170.403 401.455 168.836 399.301 166.383H399.188L379.155 260.066C379.155 260.066 375.422 254.117 368.898 254.478C365.448 254.67 347.179 253.238 336.894 253.289C327.726 253.328 323.977 265.4 323.977 265.4C323.977 265.4 349.536 276.35 389.259 271.377C389.259 271.377 429.986 272.042 435.387 268.439C440.789 264.836 448.739 215.274 448.739 215.274L457.625 168.847C454.84 170.567 451.575 171.604 448.468 172.331Z" fill="url(#colorOne)"/>
<path d="M383.199 229.984C373.456 230.018 361.299 229.804 351.505 229.589C347.987 229.493 344.463 229.443 340.944 229.274C339.574 229.144 338.255 229.572 337.178 230.463C335.452 231.833 334.499 234.179 334.443 236.429L334.302 239.068C334.11 242.53 333.095 261.576 332.887 265.439L330.992 265.36L331.596 244.244C331.646 242.473 331.765 238.03 331.815 236.327C331.759 232.307 333.896 227.96 337.865 226.437C338.852 226.043 340.031 225.868 341.074 225.919C344.592 225.986 348.111 226.178 351.629 226.319L362.179 226.815C368.347 227.165 377.183 227.605 383.272 228.067L383.21 229.99" fill="black"/>
<path d="M288.042 332.142C287.67 342.06 293.037 350.309 300.035 350.574C307.032 350.839 313.009 343.013 313.381 333.101C313.753 323.188 308.385 314.934 301.388 314.669C294.391 314.404 288.414 322.23 288.042 332.142Z" stroke="black" stroke-width="5.16" stroke-miterlimit="10" stroke-linecap="round"/>
<path d="M312.747 332.847L290.531 332.436" stroke="black" stroke-width="1.2" stroke-miterlimit="10" stroke-linecap="round"/>
<path d="M309.655 343.234L293.906 320.928" stroke="black" stroke-width="1.33" stroke-miterlimit="10" stroke-linecap="round"/>
<path d="M293.391 345.556L308.964 320.471" stroke="black" stroke-width="1.38" stroke-miterlimit="10" stroke-linecap="round"/>
<path d="M301.391 349.632L302.186 316.061" stroke="black" stroke-width="1.47" stroke-miterlimit="10" stroke-linecap="round"/>
<path d="M301.293 336.061C299.782 336.004 298.615 334.228 298.7 332.103C298.779 329.977 300.075 328.297 301.587 328.353C303.098 328.409 304.265 330.185 304.18 332.306C304.101 334.431 302.804 336.111 301.293 336.055" fill="black"/>
<path d="M302.36 328.544C300.934 328.493 299.71 330.106 299.637 332.141C299.558 334.177 300.657 335.88 302.084 335.936C303.51 335.993 304.734 334.374 304.807 332.339C304.886 330.303 303.787 328.601 302.36 328.544Z" fill="#77787B"/>
<path d="M302.463 335.187C301.318 335.142 300.433 333.806 300.495 332.199C300.557 330.592 301.538 329.323 302.683 329.368C303.828 329.413 304.713 330.755 304.651 332.357C304.589 333.964 303.608 335.232 302.463 335.187Z" fill="black"/>
<path d="M302.463 335.187C301.318 335.142 300.433 333.806 300.495 332.199C300.557 330.592 301.538 329.323 302.683 329.368C303.828 329.413 304.713 330.755 304.651 332.357C304.589 333.964 303.608 335.232 302.463 335.187Z" stroke="black" stroke-width="0.04" stroke-miterlimit="10"/>
<path d="M304.567 332.351C304.516 333.738 303.682 334.827 302.7 334.793C301.725 334.753 300.975 333.603 301.026 332.222C301.077 330.84 301.911 329.746 302.887 329.78C303.862 329.82 304.612 330.97 304.561 332.351" fill="#77787B"/>
<path d="M289.167 332.396C288.795 342.314 294.162 350.563 301.16 350.828C308.157 351.093 314.134 343.267 314.506 333.355C314.878 323.442 309.51 315.188 302.513 314.923C295.516 314.658 289.539 322.484 289.167 332.396Z" stroke="#77787B" stroke-width="4.45" stroke-miterlimit="10"/>
<path d="M285.363 340.019L286.531 341.13L303.598 334.121L369.112 337.752L347.291 347.09C346.704 347.653 345.509 347.913 344.765 347.868L285.476 343.656C284.563 343.605 284.444 343.464 284.213 342.861C283.982 342.252 284.371 339.963 285.363 340.019Z" fill="black"/>
<path d="M400.344 265.607L367.258 337.227" stroke="black" stroke-width="3.53" stroke-miterlimit="10" stroke-linecap="round"/>
<path d="M334.487 260.996L302.945 331.612" stroke="black" stroke-width="3.53" stroke-miterlimit="10" stroke-linecap="round"/>
<path d="M365.018 337.296L345.853 345.5C345.751 345.545 345.638 345.562 345.531 345.556L284.833 341.248C284.094 341.198 284.427 340.233 285.369 339.889L305.284 332.199C305.38 332.165 305.476 332.148 305.577 332.153L364.787 335.965C365.514 336.01 365.689 337.008 365.018 337.296Z" fill="white"/>
<path d="M365.018 337.296L345.853 345.5C345.751 345.545 345.638 345.562 345.531 345.556L284.833 341.248C284.094 341.198 284.427 340.233 285.369 339.889L305.284 332.199C305.38 332.165 305.476 332.148 305.577 332.153L364.787 335.965C365.514 336.01 365.689 337.008 365.018 337.296Z" stroke="black" stroke-width="2.42" stroke-miterlimit="10" stroke-linecap="round"/>
<path d="M354.534 336.49C354.162 346.408 359.53 354.657 366.527 354.922C373.524 355.187 379.501 347.361 379.873 337.448C380.245 327.536 374.877 319.281 367.88 319.016C360.883 318.751 354.906 326.577 354.534 336.49Z" stroke="black" stroke-width="5.16" stroke-miterlimit="10" stroke-linecap="round"/>
<path d="M379.255 337.201L357.039 336.789" stroke="black" stroke-width="1.2" stroke-miterlimit="10" stroke-linecap="round"/>
<path d="M376.162 347.579L360.414 325.273" stroke="black" stroke-width="1.33" stroke-miterlimit="10" stroke-linecap="round"/>
<path d="M359.898 349.91L375.478 324.818" stroke="black" stroke-width="1.38" stroke-miterlimit="10" stroke-linecap="round"/>
<path d="M367.891 353.98L368.686 320.408" stroke="black" stroke-width="1.47" stroke-miterlimit="10" stroke-linecap="round"/>
<path d="M367.801 340.408C366.29 340.352 365.123 338.576 365.207 336.45C365.286 334.324 366.583 332.644 368.094 332.701C369.605 332.757 370.773 334.533 370.688 336.653C370.609 338.779 369.312 340.459 367.801 340.403" fill="black"/>
<path d="M368.86 332.892C367.434 332.841 366.21 334.454 366.137 336.489C366.058 338.525 367.157 340.227 368.584 340.284C370.01 340.34 371.234 338.722 371.307 336.686C371.386 334.651 370.287 332.948 368.86 332.892Z" fill="#77787B"/>
<path d="M368.955 339.533C367.811 339.488 366.925 338.152 366.987 336.545C367.049 334.938 368.031 333.669 369.175 333.714C370.32 333.759 371.205 335.101 371.143 336.702C371.081 338.309 370.1 339.578 368.955 339.533Z" fill="black"/>
<path d="M368.955 339.533C367.811 339.488 366.925 338.152 366.987 336.545C367.049 334.938 368.031 333.669 369.175 333.714C370.32 333.759 371.205 335.101 371.143 336.702C371.081 338.309 370.1 339.578 368.955 339.533Z" stroke="black" stroke-width="0.04" stroke-miterlimit="10"/>
<path d="M371.082 336.705C371.032 338.092 370.197 339.18 369.216 339.146C368.241 339.107 367.491 337.956 367.541 336.575C367.592 335.194 368.427 334.1 369.402 334.134C370.378 334.173 371.128 335.323 371.077 336.705" fill="#77787B"/>
<path d="M355.659 336.744C355.287 346.662 360.655 354.911 367.652 355.176C374.649 355.441 380.626 347.615 380.998 337.702C381.37 327.79 376.002 319.535 369.005 319.27C362.008 319.005 356.031 326.831 355.659 336.744Z" stroke="#77787B" stroke-width="4.45" stroke-miterlimit="10"/>
<path d="M413.777 149.682L414.673 162.678L420.43 164.223L419.398 184.978L395.728 191.248L392.227 165.278L397.414 163.259L397.273 152.85L413.777 149.682Z" fill="white"/>
<path d="M381.968 134.508C381.258 147.347 388.785 157.626 400.186 158.258C411.581 158.889 421.398 148.994 422.108 136.149C422.819 123.31 414.158 112.389 402.763 111.752C391.368 111.12 382.679 121.664 381.968 134.503" fill="white"/>
<path d="M446.979 202.835C446.308 212.28 444.724 221.69 444.104 224.042C442.361 230.639 440.636 234.76 400.975 227.329L387.911 226.054C387.578 226.765 387.178 227.289 386.811 227.673C385.294 229.263 378.838 230.244 377.169 233.582C376.278 235.364 375.416 237.546 375.286 237.754C374.547 238.938 373.961 236.429 373.854 237.123C373.403 240.094 373.307 241.008 371.694 240.788C370.905 240.681 370.612 233.999 370.595 233.993C370.533 233.988 370.194 238.138 368.858 239.621C368.373 240.162 366.981 240.179 366.823 239.88C366.806 239.846 366.8 239.812 366.806 239.784C366.857 239.305 366.919 235.516 367.494 231.761C367.697 230.453 368.289 229.483 369.033 228.242C369.321 227.757 366.659 230.312 366.422 231.276C364.46 239.277 362.126 237.343 361.607 236.57C361.269 236.063 363.378 229.951 363.378 229.951C364.263 228.287 368.525 223.027 368.525 223.027C368.525 223.027 374.846 219.339 376.51 218.95C378.173 218.561 426.579 215.606 427.436 214.935L426.393 186.416" fill="white"/>
<path d="M447.272 202.851C446.86 208.552 446.189 214.224 445.259 219.868C444.712 222.693 444.442 225.653 442.812 228.157C439.609 232.56 431.174 231.647 426.325 231.427C417.834 230.739 409.19 229.2 400.941 227.677L387.876 226.392L388.22 226.194C387.617 227.7 386.207 228.72 384.736 229.234C383.337 229.82 381.928 230.327 380.614 231.01C379.323 231.686 378.043 232.521 377.417 233.795C376.926 234.759 376.447 235.859 376.013 236.857C375.866 237.184 375.714 237.59 375.522 237.928C374.812 238.949 374.152 237.956 373.803 237.274C373.791 237.246 373.746 237.206 373.791 237.246C373.786 237.246 373.87 237.291 373.932 237.28C374 237.28 374.073 237.235 374.113 237.189L374.135 237.15C374.006 237.934 373.91 238.717 373.712 239.518C373.583 240.076 373.278 240.866 372.602 241.024C372.168 241.125 371.457 241.165 371.265 240.73C370.499 238.655 370.583 236.377 370.386 234.207L370.375 234.066V234.032C370.442 234.111 370.217 233.846 370.527 234.207C370.983 234.083 370.707 234.077 370.792 234.071L370.78 234.116C370.515 235.802 370.262 237.533 369.467 239.067C369.016 240.088 367.894 240.494 366.856 240.15C366.8 240.121 366.738 240.088 366.676 240.009C366.608 239.93 366.602 239.794 366.614 239.749C366.732 237.404 366.867 235.047 367.194 232.712C367.296 231.066 368.018 229.521 368.914 228.162C368.914 228.162 368.903 228.207 368.914 228.23C368.903 228.23 368.982 228.348 369.049 228.314C369.083 228.303 369.004 228.348 368.976 228.371C368.835 228.484 368.7 228.608 368.565 228.737C367.815 229.51 366.918 230.316 366.518 231.32C366.146 232.786 365.723 234.252 365.018 235.599C364.651 236.253 364.229 236.947 363.496 237.319C362.751 237.697 361.719 237.235 361.438 236.473C361.663 234.195 362.576 232.053 363.225 229.871C364.73 227.362 366.552 225.055 368.373 222.783C370.82 221.374 373.256 219.908 375.889 218.831C376.797 218.481 377.795 218.537 378.748 218.425C393.137 217.381 409.348 216.276 423.681 215.137C424.51 215.047 426.387 214.889 427.239 214.698C427.261 214.698 427.306 214.664 427.25 214.703L427.143 214.94C426.917 210.288 426.359 198.075 426.105 193.559L425.699 186.432C425.677 186.054 425.964 185.733 426.342 185.71C426.725 185.688 427.058 185.992 427.064 186.381L427.182 193.514C427.261 198.081 427.594 210.339 427.718 215.07C427.492 215.244 427.272 215.267 427.024 215.312C426.748 215.363 425.908 215.459 425.609 215.493C416.446 216.423 406.686 217.032 397.524 217.646L382.542 218.712L378.804 219C377.558 219.101 376.402 219.112 375.263 219.733C373.143 220.697 370.482 222.27 368.734 223.183C367.82 224.289 366.924 225.416 366.033 226.538C365.159 227.66 364.24 228.794 363.512 230.006C363.073 231.303 362.526 232.87 362.137 234.274C361.962 234.985 361.674 235.763 361.703 236.479C361.781 236.592 361.872 236.716 361.979 236.806C363.924 238.385 365.187 234.827 365.683 233.417C366.095 232.374 366.134 231.106 366.873 230.237C367.51 229.453 368.159 228.664 368.971 228.055C369.055 227.999 369.19 228.106 369.174 228.145C369.207 228.252 369.038 228.455 368.971 228.585C368.153 229.865 367.6 231.213 367.499 232.741C367.211 234.979 367.082 237.223 366.997 239.484L366.98 239.777C366.98 239.823 366.98 239.789 366.974 239.789C367.403 239.986 368.074 239.873 368.491 239.659C368.756 239.524 368.948 239.185 369.128 238.881C369.884 237.392 370.109 235.678 370.352 234.038C370.352 234.009 370.358 233.992 370.375 233.942C370.465 233.93 370.188 233.908 370.656 233.784C370.967 234.15 370.747 233.902 370.814 233.992V234.032L370.826 234.173C371.029 236.27 371 238.481 371.705 240.465C371.733 240.527 371.801 240.561 371.728 240.527C372.1 240.578 372.585 240.573 372.793 240.291C373.397 239.377 373.352 238.097 373.577 237.015C373.6 236.941 373.588 236.93 373.65 236.84C374.124 236.361 374.4 237.285 374.626 237.55C374.71 237.686 374.851 237.787 374.863 237.776C374.863 237.776 374.863 237.776 374.902 237.753C375.133 237.522 375.291 236.936 375.449 236.614C375.883 235.594 376.346 234.494 376.836 233.508C377.535 232.058 378.922 231.122 380.293 230.406C381.657 229.696 383.084 229.177 384.459 228.602C385.869 228.078 386.997 227.316 387.589 225.901L387.69 225.681L387.933 225.704L400.997 226.967C409.41 228.506 417.845 229.983 426.37 230.683C430.565 230.942 434.918 231.28 438.967 230.034C443.466 228.754 443.844 223.663 444.599 219.75C445.547 214.139 446.24 208.478 446.669 202.806C446.68 202.642 446.821 202.518 446.984 202.53C447.148 202.541 447.272 202.682 447.261 202.845" fill="black"/>
<path d="M366.938 230.356C368.122 228.45 369.588 226.781 371.336 225.377C370.157 227.283 368.685 228.946 366.938 230.356Z" fill="black"/>
<path d="M373.672 237.253C373.728 232.404 373.694 229.991 378.425 227.605C374.354 230.267 374.117 232.674 374.044 237.247C374.044 237.484 373.672 237.49 373.672 237.247" fill="black"/>
<path d="M370.372 234.992C370.349 233.233 370.163 231.513 370.592 229.76C371.342 228.096 372.718 226.94 374.178 225.965C373.524 226.529 372.921 227.143 372.391 227.814C371.923 228.395 371.556 229.038 371.15 229.658C370.535 231.299 370.789 233.233 370.75 234.986C370.755 235.229 370.378 235.234 370.378 234.986" fill="black"/>
<path d="M386.807 227.7C387.173 227.317 387.574 226.792 387.907 226.082L400.971 227.356C416.95 230.35 426.773 231.467 432.918 231.303C435.873 238.599 438.495 241.266 438.478 243.076L380.086 230.937C382.606 229.544 385.803 228.755 386.807 227.7Z" fill="url(#colorTwo)"/>
<path d="M385.954 179.746C385.954 179.746 385.745 180.017 385.44 180.541C385.13 181.065 384.713 181.844 384.251 182.825C383.315 184.781 382.221 187.606 381.702 190.871C381.15 194.135 381.33 197.152 381.618 199.289C381.781 200.355 381.933 201.217 382.086 201.804C382.226 202.39 382.317 202.712 382.345 202.712C382.418 202.7 382.142 201.392 381.905 199.261C381.696 197.135 381.561 194.158 382.108 190.933C382.621 187.708 383.664 184.905 384.521 182.932C384.95 181.945 385.322 181.15 385.587 180.609C385.852 180.062 385.982 179.757 385.959 179.746" fill="url(#colorOne)"/>
<path d="M428.347 166.043C428.347 166.043 440.193 167.261 443.418 177.32C446.339 186.432 448.081 202.372 448.081 202.372L427.574 202.225C427.574 202.225 423.03 186.426 423.458 176.835C423.701 171.383 427.405 166.894 428.352 166.049" fill="url(#colorTwo)"/>
<path d="M334.655 312.791L327.973 331.776L318.36 345.269C317.666 346.244 317.943 347.597 318.958 348.223C319.527 348.573 320.226 348.629 320.841 348.364C324.754 346.695 339.126 340.482 339.532 339.066C340.012 337.426 347.911 319.506 347.911 319.506L334.655 312.791Z" fill="black"/>
<path d="M318.953 348.222L340.013 337.797L339.714 338.592C339.455 339.28 338.958 339.861 338.316 340.216C336.59 341.169 331.764 343.695 320.898 348.386C320.267 348.657 319.534 348.6 318.959 348.222" fill="black"/>
<path d="M326.378 341.62C326.254 341.632 326.198 340.487 325.279 339.534C324.388 338.553 323.249 338.423 323.266 338.299C323.266 338.249 323.559 338.192 324.027 338.299C324.489 338.401 325.104 338.7 325.6 339.235C326.096 339.771 326.361 340.402 326.429 340.87C326.502 341.338 326.429 341.632 326.373 341.626" fill="white"/>
<path d="M324.081 343.639C323.963 343.69 323.585 342.844 322.717 342.202C321.86 341.536 320.952 341.395 320.969 341.271C320.952 341.153 322.006 341.096 322.988 341.852C323.974 342.596 324.2 343.628 324.081 343.645" fill="white"/>
<path d="M330.094 339.336C329.97 339.393 329.406 338.096 328.143 336.974C326.897 335.829 325.555 335.395 325.595 335.265C325.6 335.153 327.1 335.423 328.436 336.647C329.79 337.854 330.201 339.32 330.094 339.336Z" fill="white"/>
<path d="M332.606 333.733C332.51 333.828 331.636 333 330.3 332.441C328.975 331.861 327.768 331.799 327.774 331.669C327.757 331.556 329.048 331.415 330.474 332.035C331.907 332.639 332.696 333.671 332.606 333.738" fill="white"/>
<path d="M315.561 311.336L308.88 330.321L299.266 343.814C298.573 344.789 298.849 346.142 299.864 346.768C300.433 347.118 301.132 347.174 301.747 346.909C305.66 345.24 320.033 339.026 320.439 337.611C320.918 335.97 328.817 318.051 328.817 318.051L315.561 311.336Z" fill="black"/>
<path d="M299.875 346.767L320.935 336.342L320.636 337.137C320.377 337.825 319.88 338.406 319.238 338.761C317.512 339.714 312.686 342.24 301.82 346.931C301.189 347.202 300.456 347.145 299.881 346.767" fill="black"/>
<path d="M307.277 340.171C307.153 340.182 307.096 339.038 306.177 338.085C305.286 337.104 304.147 336.974 304.164 336.85C304.164 336.799 304.457 336.743 304.925 336.85C305.388 336.952 306.002 337.25 306.499 337.786C306.995 338.322 307.26 338.953 307.327 339.421C307.401 339.889 307.327 340.182 307.271 340.177" fill="white"/>
<path d="M304.988 342.184C304.869 342.235 304.491 341.389 303.623 340.746C302.766 340.081 301.858 339.94 301.875 339.816C301.858 339.698 302.913 339.641 303.894 340.397C304.881 341.141 305.106 342.173 304.988 342.19" fill="white"/>
<path d="M311.008 337.881C310.884 337.938 310.32 336.641 309.057 335.519C307.811 334.374 306.469 333.94 306.509 333.81C306.514 333.698 308.014 333.968 309.35 335.192C310.704 336.398 311.115 337.864 311.008 337.881Z" fill="white"/>
<path d="M313.512 332.277C313.416 332.373 312.542 331.544 311.206 330.986C309.881 330.405 308.674 330.343 308.68 330.214C308.663 330.101 309.954 329.96 311.381 330.58C312.813 331.184 313.602 332.215 313.512 332.283" fill="white"/>
<path d="M414.625 150.504C414.676 150.245 414.732 149.969 414.794 149.67Z" fill="black"/>
<path d="M375.743 172.348C377.587 171.136 381.302 169.602 383.417 168.384C389.224 165.041 394.925 164.528 394.925 164.528C394.446 165.548 396.893 180.817 400.349 181.59C410.07 183.772 420.067 165.458 419.159 163.891L430.16 166.558L437.501 181.398L435.353 192.551L426.399 186.411L427.442 214.93C426.794 215.443 398.906 217.253 384.663 218.279C383.541 210.318 382.599 204.127 381.934 199.949L382.12 205.283L367.781 199.706C367.781 199.706 369.907 176.183 375.743 172.354" fill="url(#colorTwo)"/>
<path d="M398.062 163.987C396.393 164.314 395.113 163.936 395.136 166.033C394.82 169.749 397.442 180.677 401.502 181.624C406.137 181.646 411.442 177.113 414.453 173.831C411.296 177.367 407.439 180.761 402.703 181.894C400.91 182.368 399.489 181.15 398.53 179.774C396.658 177.107 395.553 174.006 394.786 170.86C394.386 169.084 394.082 167.229 394.222 165.362C394.38 163.225 396.179 163.203 397.797 162.91C398.525 162.735 398.784 163.812 398.062 163.987Z" fill="black"/>
<path d="M384.547 218.475C384.468 216.321 383.785 213.215 383.424 211.061C382.973 208.597 382.5 206.138 382.105 203.657C381.327 198.718 380.509 193.581 381.62 188.631C381.964 193.548 382.46 198.65 382.906 203.545C383.408 207.931 384.597 214.111 384.547 218.475Z" fill="black"/>
<path d="M427.551 216.058C426.355 207.234 425.91 198.319 426.237 189.422C427.438 198.24 427.872 207.166 427.551 216.058Z" fill="black"/>
<path d="M351.008 227.374C350.805 227.521 350.551 227.713 350.371 227.876L350.213 228.006C350.174 228.04 350.1 228.107 350.061 228.141C346.621 231.265 347.371 235.274 346.165 239.695C346.052 240.14 356.269 251.321 356.167 251.766C354.329 259.266 348.33 262.615 346.638 270.142C342.472 288.806 336.647 274.997 326.052 321.548L308.742 320.872C308.742 320.872 323.549 248.395 324.271 243.314C325.714 233.193 330.625 226.828 337.329 225.852C338.457 225.689 342.111 225.322 347.157 226.151C348.696 226.405 350.055 226.76 351.256 227.205C351.166 227.262 351.081 227.324 351.008 227.38" fill="black"/>
<path d="M326.086 320.837C326.086 320.837 326.097 320.781 326.108 320.741C328.24 313.033 330.072 304.232 332.023 296.141C335.773 279.924 339.551 262.738 343.114 246.432C343.554 244.436 343.994 242.417 344.467 240.432C345.544 236.407 346.909 232.037 349.722 228.868L349.852 228.721L349.92 228.648L349.987 228.58L350.264 228.304L350.331 228.236L350.405 228.169L350.551 228.039C350.737 227.864 350.957 227.689 351.155 227.532L351.234 227.47C351.234 227.47 351.284 227.43 351.312 227.413L351.47 227.3C352.536 226.522 353.776 226.004 355.079 225.755C356.224 225.581 359.939 225.101 365.042 226.049C365.448 226.122 365.86 226.201 366.277 226.285C365.149 227.751 363.965 229.353 363.542 230.142C363.542 230.142 361.434 236.254 361.772 236.762C362.291 237.534 364.619 239.468 366.587 231.467C366.824 230.503 369.485 227.954 369.198 228.434C368.459 229.674 367.861 230.644 367.658 231.952C367.083 235.707 367.021 239.496 366.97 239.976C366.97 240.004 366.971 240.038 366.987 240.072C367.145 240.37 368.538 240.353 369.023 239.812C370.359 238.329 370.698 234.179 370.76 234.185C370.776 234.185 371.07 240.872 371.859 240.979C373.472 241.194 373.568 240.286 374.019 237.309C374.126 236.615 374.712 239.119 375.451 237.94C375.58 237.732 376.438 235.55 377.334 233.768C378.253 231.93 380.627 230.808 382.82 229.9C400.091 233.976 418.923 239.051 418.923 239.051L436.121 242.479C436.121 242.479 435.365 263.172 430.623 266.634L391.447 267.164L367.557 263.516L352.248 324.79L328.832 321.305C327.918 321.142 327.005 320.984 326.092 320.82" fill="black"/>
<path d="M398.295 171.27L412.825 172.077L413.986 151.152L397.984 150.555L398.295 171.27Z" fill="white"/>
<path d="M397.719 157.05C397.719 157.05 405.427 157.8 412.181 153.385C412.181 153.385 409.148 160.619 398.328 160.495L397.719 157.05Z" fill="black"/>
<path d="M399.291 129.343C399.449 129.726 400.869 129.49 402.555 129.631C404.247 129.738 405.617 130.177 405.826 129.822C405.922 129.653 405.668 129.292 405.11 128.937C404.551 128.582 403.672 128.255 402.662 128.181C401.648 128.108 400.734 128.305 400.131 128.576C399.522 128.847 399.223 129.163 399.291 129.349" fill="black"/>
<path d="M385.795 127.647C386.06 127.962 387.03 127.59 388.22 127.528C389.404 127.427 390.419 127.664 390.638 127.314C390.734 127.145 390.565 126.823 390.114 126.536C389.669 126.243 388.936 126.023 388.124 126.079C387.312 126.136 386.613 126.457 386.212 126.807C385.806 127.156 385.682 127.494 385.801 127.652" fill="black"/>
<path d="M416.211 145.277C416.245 145.254 416.335 145.367 416.538 145.463C416.741 145.559 417.091 145.632 417.457 145.497C418.207 145.237 418.861 144.059 418.918 142.785C418.946 142.142 418.822 141.527 418.602 141.014C418.393 140.495 418.066 140.123 417.694 140.05C417.322 139.954 417.051 140.18 416.961 140.377C416.865 140.574 416.905 140.715 416.871 140.726C416.848 140.743 416.719 140.608 416.781 140.315C416.815 140.174 416.899 140.01 417.068 139.875C417.243 139.74 417.491 139.672 417.751 139.706C418.298 139.751 418.777 140.264 419.019 140.828C419.29 141.392 419.448 142.085 419.414 142.807C419.346 144.234 418.591 145.553 417.565 145.829C417.063 145.948 416.651 145.795 416.442 145.621C416.228 145.44 416.194 145.282 416.217 145.271" fill="black"/>
<path d="M414.881 150.967C414.39 154.288 415.011 157.609 415.067 160.947C415.185 164.291 415.253 167.634 415.078 170.989C414.644 167.657 414.447 164.319 414.306 160.981C414.272 157.643 413.793 154.198 414.881 150.972" fill="black"/>
<path d="M398.146 168.795C397.779 165.04 397.745 161.273 397.892 157.507L398.011 157.636C397.667 157.569 397.215 157.388 396.883 157.275C397.306 157.298 397.723 157.371 398.146 157.371C398.625 161.16 398.687 165.011 398.146 168.795Z" fill="black"/>
<path d="M423.026 126.716C421.368 119.392 416.35 112.569 408.98 110.398C401.955 108.261 394.083 110.934 389.234 116.369C384.272 121.602 382.124 128.915 381.932 135.997C381.577 145.616 385.784 155.044 396.051 156.893C399.818 157.446 403.776 158.196 407.503 157.074L407.525 157.141C404.362 158.308 400.9 157.959 397.613 157.632C394.258 157.333 390.931 156.262 388.236 154.175C379.592 147.28 379.953 134.007 383.63 124.562C385.8 119.465 389.415 114.858 394.219 112.017C398.978 109.068 405.067 108.171 410.362 110.178C417.19 112.693 422.157 119.769 423.02 126.716" fill="black"/>
<path d="M405.977 121.213C406.005 121.224 406.152 120.993 406.202 120.514C406.259 120.046 406.214 119.302 405.746 118.546C405.295 117.791 404.325 117.108 403.129 117.063C402.549 117.041 401.878 117.153 401.336 117.61C401.077 117.83 400.829 118.18 400.829 118.608C400.812 119.025 401.088 119.431 401.415 119.623C402.064 120.035 402.819 119.99 403.428 119.815C404.048 119.64 404.59 119.313 405.007 118.907C405.87 118.095 406.18 116.973 406.095 116.11C406.028 115.236 405.678 114.599 405.385 114.227C405.086 113.855 404.849 113.72 404.832 113.748C404.731 113.798 405.633 114.537 405.678 116.133C405.695 116.905 405.396 117.836 404.635 118.512C404.263 118.851 403.795 119.121 403.27 119.262C402.752 119.409 402.171 119.409 401.737 119.132C401.308 118.873 401.325 118.371 401.714 118.056C402.081 117.729 402.616 117.61 403.112 117.616C404.116 117.627 404.962 118.157 405.39 118.783C405.836 119.414 405.949 120.074 405.966 120.508C405.982 120.954 405.92 121.202 405.966 121.219" fill="black"/>
<path d="M381.451 129.298C381.468 129.219 380.826 129.281 380.149 128.65C379.828 128.34 379.534 127.844 379.579 127.246C379.608 126.659 379.974 125.989 380.606 125.684L380.95 125.521L380.673 125.244C379.963 124.534 379.269 123.581 379.202 122.464C379.168 121.906 379.298 121.348 379.585 120.925C379.867 120.502 380.312 120.203 380.764 119.933C381.215 119.662 381.683 119.392 382.049 119.036C382.416 118.687 382.692 118.303 382.884 117.92C383.65 116.358 383.239 115.247 383.199 115.292C383.087 115.281 383.306 116.358 382.517 117.717C382.128 118.405 381.451 118.98 380.487 119.465C380.025 119.73 379.484 120.051 379.106 120.598C378.734 121.139 378.576 121.822 378.615 122.493C378.7 123.852 379.523 124.895 380.296 125.633L380.363 125.194C379.523 125.633 379.123 126.49 379.123 127.229C379.111 127.99 379.529 128.582 379.929 128.898C380.792 129.546 381.485 129.327 381.451 129.293" fill="black"/>
<path d="M381.475 133.414C380.95 135.235 380.623 136.25 381.695 138.782C382.411 134.423 383.076 130.166 383.696 125.757C383.719 125.588 386.459 121.455 386.031 120.118C387.502 120.615 390.152 117.243 390.265 115.478C390.992 115.207 391.646 114.762 392.171 114.192C393.096 114.525 394.319 113.972 394.409 113.076C395.588 113.521 396.845 113.747 398.103 113.741C399.456 116.222 403.273 116.369 404.807 113.989C405.63 116.008 408.116 116.307 410.045 116.335C408.759 120.778 413.941 120.902 412.881 122.548C412.109 124.161 413.044 126.354 414.747 126.913C413.479 127.742 413.434 129.89 414.657 130.775C416.112 131.688 413.484 132.839 413.648 134.096C413.507 134.993 414.037 136.047 414.933 136.16C414.003 136.718 413.321 138.269 414.578 138.815C415.785 136.554 419.185 137.428 420.431 139.746C422.055 143.557 418.976 147.927 415.666 147.082L414.46 153.273C416.648 156.035 421.282 156.329 423.978 154.293C426.154 158.454 433.98 157.62 434.544 152.748C435.768 153.955 438.023 154.107 439.579 153.278C442.866 151.468 442.472 147.335 440.487 144.668C444.203 142.864 443.605 137.818 439.793 136.515C444.028 132.275 439.602 129.518 436.382 127.037C435.559 125.853 435.847 124.37 435.852 122.994C436.016 117.417 429.999 113.837 424.355 115.777C419.923 113.019 420.194 106.248 412.684 107.201C410.817 103.84 406.273 102.927 402.501 103.665C396.558 104.41 392.351 101.353 388.28 108.345C387.034 111.243 381.937 111.807 382.664 115.41C383.307 118.59 381.131 118.105 380.663 121.071C380.33 123.169 381.948 125.661 381.351 127.696C380.059 129.698 380.894 131.423 381.48 133.414M422.393 141.251C425.68 137.733 427.417 133.008 427.575 128.232C427.665 125.379 427.315 122.447 426.182 119.808C427.592 122.306 428.077 125.402 428.037 128.249C427.947 133.104 426.086 138.02 422.393 141.257" fill="black"/>
<path d="M423.057 272.826C411.413 272.826 393.241 272.256 389.716 272.144C388.515 272.076 387.608 271.084 387.642 269.933C387.681 268.772 388.617 267.858 389.779 267.858H389.852C399.612 268.174 414.289 268.546 423.502 268.546C427.833 268.546 430.494 268.467 431.396 268.304C433.871 267.858 436.059 263.996 436.871 262.017C437.615 258.132 455.123 166.868 459.115 157.953C462.475 150.454 473.758 149.332 480.18 149.332C482.001 149.332 483.276 149.428 483.625 149.456C484.804 149.558 485.678 150.601 485.576 151.779C485.48 152.879 484.539 153.736 483.428 153.736C483.372 153.736 483.315 153.736 483.253 153.73C482.61 153.674 481.539 153.606 480.101 153.606C476.735 153.606 465.56 154.046 463.022 159.707C459.972 166.518 447.308 230.261 441.038 263.021C441.015 263.145 440.982 263.263 440.936 263.381C440.615 264.216 437.66 271.535 432.146 272.521C431.013 272.724 427.951 272.826 423.046 272.826" fill="black"/>
<path d="M480.189 149.361C482.01 149.361 483.284 149.456 483.628 149.485C484.79 149.586 485.652 150.612 485.551 151.774C485.455 152.856 484.53 153.702 483.437 153.702C483.38 153.702 483.324 153.702 483.267 153.697C482.625 153.64 481.553 153.573 480.115 153.573C476.744 153.573 465.551 154.012 463.008 159.69C459.958 166.502 447.294 230.25 441.024 263.01C441.001 263.134 440.967 263.252 440.922 263.371C440.601 264.199 437.658 271.507 432.155 272.494C431.021 272.697 427.96 272.798 423.06 272.798C411.456 272.798 393.249 272.229 389.719 272.116C389.708 272.116 389.691 272.116 389.669 272.116C388.53 272.054 387.639 271.073 387.673 269.939C387.712 268.795 388.637 267.893 389.781 267.893C389.804 267.893 389.827 267.893 389.855 267.893C399.615 268.208 414.286 268.575 423.505 268.575C427.841 268.575 430.502 268.49 431.405 268.332C433.891 267.887 436.09 264.013 436.908 262.012C437.652 258.132 455.165 166.862 459.152 157.965C460.64 154.65 463.86 152.242 468.72 150.815C472.808 149.614 477.212 149.361 480.189 149.361ZM480.189 149.299C474.263 149.299 462.518 150.297 459.095 157.937C455.137 166.784 438.024 255.877 436.851 262C436.175 263.653 433.965 267.814 431.399 268.27C430.429 268.445 427.514 268.513 423.505 268.513C414.568 268.513 400.201 268.163 389.855 267.831C389.832 267.831 389.804 267.831 389.781 267.831C388.614 267.831 387.65 268.761 387.611 269.934C387.571 271.118 388.485 272.11 389.663 272.172C389.68 272.172 389.697 272.172 389.714 272.172C392.522 272.262 411.275 272.855 423.054 272.855C427.469 272.855 430.908 272.77 432.16 272.544C437.697 271.552 440.652 264.216 440.973 263.382C441.018 263.263 441.052 263.139 441.075 263.015C447.345 230.261 460.009 166.519 463.059 159.713C465.298 154.712 474.353 153.629 480.11 153.629C481.345 153.629 482.427 153.68 483.256 153.747C483.312 153.747 483.374 153.753 483.431 153.753C484.547 153.753 485.511 152.902 485.607 151.768C485.709 150.573 484.824 149.518 483.628 149.417C483.425 149.4 482.117 149.293 480.183 149.293" fill="white"/>
<path d="M389.645 272.498C388.297 272.425 387.243 271.269 387.282 269.922C387.305 269.256 387.581 268.636 388.072 268.179C388.557 267.723 389.194 267.48 389.865 267.503C404.835 267.988 428.229 268.506 431.336 267.948C433.743 267.52 435.909 263.42 436.546 261.875C437.273 258.053 454.792 166.743 458.795 157.806C463.317 147.713 481.591 148.92 483.661 149.1C485.037 149.219 486.051 150.437 485.939 151.807C485.82 153.171 484.614 154.197 483.238 154.085C478.603 153.69 466.012 153.949 463.362 159.853C460.323 166.636 447.67 230.345 441.4 263.088C441.372 263.234 441.333 263.375 441.282 263.511C440.955 264.362 437.933 271.856 432.221 272.876C427.614 273.705 393.569 272.634 389.707 272.504H389.65L389.645 272.498Z" fill="black"/>
<path d="M444.076 233.458C428.897 233.435 412.996 233.058 397.84 232.607C396.244 232.55 394.485 232.274 392.985 232.984C390.426 234.044 388.717 236.864 388.649 239.66L388.57 241.104C388.362 244.887 387.268 265.738 387.042 269.962L384.984 269.883L385.599 246.776C385.695 244.628 385.678 240.016 385.898 237.941C386.473 233.108 390.719 228.733 395.788 228.868C404.217 229.105 412.641 229.59 421.065 229.985C427.814 230.368 437.484 230.87 444.143 231.377L444.07 233.469" fill="#77787B"/>
<path d="M471.128 299.535L406.883 298.346" stroke="black" stroke-width="3.46" stroke-miterlimit="10" stroke-linecap="round"/>
<path d="M462.177 329.559L416.641 265.066" stroke="black" stroke-width="3.84" stroke-miterlimit="10" stroke-linecap="round"/>
<path d="M415.148 336.287L460.183 263.748" stroke="black" stroke-width="3.99" stroke-miterlimit="10" stroke-linecap="round"/>
<path d="M438.242 348.059L440.548 251.004" stroke="black" stroke-width="4.26" stroke-miterlimit="10" stroke-linecap="round"/>
<path d="M437.993 308.827C433.623 308.664 430.257 303.532 430.488 297.392C430.719 291.252 434.463 286.386 438.833 286.555C443.203 286.719 446.569 291.85 446.338 297.996C446.106 304.136 442.362 309.002 437.993 308.833" fill="black"/>
<path d="M441.057 287.086C436.936 286.928 433.4 291.597 433.175 297.489C432.955 303.381 436.124 308.298 440.245 308.456C444.367 308.614 447.903 303.945 448.122 298.053C448.342 292.161 445.174 287.238 441.052 287.086" fill="#77787B"/>
<path d="M441.362 306.301C438.052 306.177 435.498 302.298 435.673 297.657C435.847 293.017 438.683 289.34 441.993 289.47C445.303 289.594 447.857 293.473 447.682 298.114C447.508 302.754 444.672 306.425 441.362 306.301Z" fill="black"/>
<path d="M441.362 306.301C438.052 306.177 435.498 302.298 435.673 297.657C435.847 293.017 438.683 289.34 441.993 289.47C445.303 289.594 447.857 293.473 447.682 298.114C447.508 302.754 444.672 306.425 441.362 306.301Z" stroke="black" stroke-width="0.11" stroke-miterlimit="10"/>
<path d="M447.452 298.102C447.3 302.105 444.886 305.263 442.061 305.155C439.237 305.048 437.071 301.716 437.218 297.713C437.365 293.709 439.783 290.552 442.608 290.659C445.433 290.766 447.598 294.098 447.452 298.102Z" fill="#77787B"/>
<path d="M402.905 298.221C401.822 326.887 417.345 350.749 437.576 351.51C457.807 352.271 475.083 329.655 476.166 300.984C477.248 272.318 461.726 248.456 441.495 247.694C421.264 246.933 403.988 269.549 402.905 298.221Z" stroke="#77787B" stroke-width="12.87" stroke-miterlimit="10"/>
<path d="M394.154 132.123C394.165 134.254 393.635 136.38 392.739 138.308C392.017 139.82 390.94 141.365 393.562 141.314C394.086 141.314 394.611 141.252 395.135 141.19C394.627 141.336 394.103 141.443 393.573 141.5C390.692 141.703 391.515 139.904 392.395 138.145C393.319 136.25 393.855 134.209 394.154 132.123Z" fill="black"/>
<path d="M415.641 163.49C423.506 164.663 431.981 164.657 438.922 169.084C444.295 173.279 445.818 181.432 446.979 187.702C447.746 192.568 448.124 197.485 448.056 202.39C447.504 197.518 446.805 192.681 445.835 187.91C444.825 183.225 443.664 178.427 441.363 174.22C440.258 172.14 438.725 170.392 436.616 169.326C430.177 165.83 422.621 165.407 415.641 163.49Z" fill="black"/>
<path d="M352.234 324.806C344.757 323.786 336.468 322.506 328.964 321.35L327.982 321.192C326.68 320.967 326.003 319.534 326.466 318.339C328.033 312.007 329.37 305.624 330.723 299.236C333.852 284.356 337.196 267.982 340.5 253.22C341.825 247.475 343.032 241.718 344.526 236.012C346.279 231.777 349.595 228.09 353.598 225.891C349.555 228.372 345.394 233.288 344.672 238.081C341.453 253.429 338.487 268.822 335.267 284.17C332.803 295.672 330.486 307.22 327.39 318.587C327.199 319.191 327.193 319.534 327.56 319.98C327.864 320.397 328.676 320.375 329.116 320.499C336.604 321.807 344.825 323.374 352.245 324.801" fill="white"/>
<path d="M326.649 320.746C321.269 320.667 315.873 320.543 310.494 320.402C308.797 320.486 307.472 318.733 307.963 317.12L309.293 310.45C312.953 292.678 316.59 274.894 321.467 257.403C323.609 249.803 326.716 238.729 328.955 231.252C327.128 238.836 324.28 249.955 322.301 257.634C317.728 275.17 314.092 292.943 310.139 310.63L308.656 317.267C308.346 318.242 308.825 319.308 309.778 319.663C310.167 319.838 310.928 319.793 311.368 319.838C316.46 320.126 321.563 320.413 326.649 320.752" fill="white"/>
<path d="M90.2216 353.969L556.868 354.753C557.663 354.753 558.305 355.401 558.305 356.19C558.305 356.985 557.663 357.628 556.868 357.628L90.2216 358.412C88.998 358.412 88 357.42 88 356.196C88 354.967 88.9924 353.969 90.2216 353.974" fill="black"/>
<script type="text/ecmascript" xlink:href="https://dev.w3.org/SVG/modules/ref/master/ref2.js"></script></svg>
