<svg width="640" height="360" viewBox="0 0 640 360" fill="none" 
xmlns="http://www.w3.org/2000/svg" 
xmlns:xlink="http://www.w3.org/1999/xlink">
<defs>
<ref id="colorOne" param="c1" default="#242C4F" />
<ref id="colorTwo" param="c2" default="#9296A7"/>
</defs>
<path d="M176.102 300.299H461.502C462.002 300.299 462.502 300.699 462.502 301.299V301.899C462.502 302.399 462.102 302.899 461.502 302.899H176.102C175.602 302.899 175.102 302.499 175.102 301.899V301.299C175.202 300.799 175.602 300.299 176.102 300.299Z" fill="black"/>
<path d="M393.703 300.4C393.803 298.3 393.903 296.9 393.903 296.4C394.303 276.6 388.803 260.7 388.803 260.7L287.303 259.4L284.603 292.7L284.203 300.6C321.003 301.5 357.003 299.5 393.703 300.4Z" fill="black"/>
<path d="M300.999 42.9004L295.599 57.4004L290.299 77.5004C280.099 53.0004 297.099 45.9004 300.999 42.9004Z" fill="black"/>
<path d="M300.999 42.9004L295.599 57.4004L290.299 77.5004C280.099 53.0004 297.099 45.9004 300.999 42.9004Z" fill="black"/>
<path d="M290.397 79.3004L289.797 77.8004C280.497 55.4004 293.497 47.1004 299.097 43.6004C299.797 43.2004 300.297 42.8004 300.697 42.5004L302.197 41.4004L296.097 57.7004L290.397 79.3004ZM299.897 44.3004C299.797 44.4004 299.697 44.4004 299.597 44.5004C293.997 48.1004 282.297 55.5004 290.197 75.9004L294.997 57.4004L299.897 44.3004Z" fill="black"/>
<path d="M325.195 130C324.095 130 320.895 127.9 318.995 126.5C318.095 122.2 318.095 122.2 317.695 122.2C317.595 122.2 317.095 122.3 316.295 122.3C311.695 122.3 300.695 121 297.295 108.5C295.495 102.1 292.895 89.0996 289.395 69.8996C286.695 54.6996 296.195 39.6996 311.095 35.7996L312.895 35.2996C315.095 34.8996 317.295 34.5996 319.295 34.5996C332.195 34.5996 341.495 43.2996 343.995 57.7996L353.495 117C342.695 122.2 326.495 129.7 325.195 130Z" fill="white"/>
<path d="M319.398 35.0996C332.098 35.0996 341.098 43.5996 343.598 57.8996L352.998 116.7C342.698 121.6 326.598 129.1 325.298 129.4C324.498 129.4 321.798 127.7 319.598 126.1C319.498 125.7 319.398 125.1 319.298 124.4C319.198 123.9 319.098 123.4 318.998 123C318.798 122.2 318.698 121.6 317.798 121.6H317.698H317.598C317.598 121.6 317.098 121.7 316.298 121.7C311.798 121.7 301.098 120.4 297.798 108.3C296.098 102 293.298 88.6996 289.898 69.6996C288.598 62.3996 290.098 54.9996 293.998 48.7996C297.998 42.5996 304.098 38.0996 311.198 36.1996L312.998 35.6996C315.198 35.2996 317.298 35.0996 319.398 35.0996ZM319.398 34.0996C317.298 34.0996 315.098 34.2996 312.798 34.7996L310.998 35.2996C295.698 39.2996 286.098 54.3996 288.898 69.9996C291.498 84.6996 294.698 101 296.798 108.7C300.398 121.7 312.198 122.9 316.298 122.9C317.198 122.9 317.698 122.8 317.698 122.8L318.498 126.9C318.498 126.9 323.398 130.6 325.098 130.6C325.198 130.6 325.198 130.6 325.298 130.6C326.898 130.3 353.998 117.5 353.998 117.5L344.498 57.8996C342.098 43.0996 332.698 34.0996 319.398 34.0996Z" fill="black"/>
<path d="M317.695 122.7C317.695 122.7 327.895 120.6 336.795 111.1C336.795 111.1 334.795 124 318.595 126.8L317.695 122.7Z" fill="black"/>
<path d="M314.302 93.4988C314.302 93.3988 312.702 93.4988 310.102 93.7988C309.502 93.8988 308.802 93.8988 308.602 93.4988C308.302 93.0988 308.402 92.2988 308.502 91.4988C308.702 89.7988 308.902 88.0988 309.102 86.2988C309.902 78.8988 310.302 72.7988 310.002 72.7988C309.702 72.7988 308.802 78.7988 308.102 86.1988C307.902 87.9988 307.802 89.7988 307.602 91.3988C307.602 92.1988 307.402 93.0988 307.902 93.8988C308.202 94.2988 308.702 94.4988 309.202 94.4988C309.602 94.4988 310.002 94.3988 310.302 94.3988C312.802 93.9988 314.302 93.5988 314.302 93.4988Z" fill="black"/>
<path d="M346.602 72.4985C349.602 71.2985 355.602 69.9985 357.502 78.1985C360.002 89.1985 348.502 89.3985 348.402 89.0985" fill="white"/>
<path d="M349.098 89.6993C348.498 89.6993 347.998 89.5993 347.898 89.2993L348.398 89.1993L348.598 88.6993C349.098 88.7993 352.998 88.5993 355.398 86.1993C357.198 84.3993 357.698 81.6993 356.998 78.3993C356.298 75.5993 355.098 73.6993 353.398 72.7993C351.098 71.5993 348.298 72.4993 346.798 73.0993L346.398 72.0993C348.398 71.2993 351.298 70.5993 353.898 71.8993C355.898 72.8993 357.298 75.0993 357.998 78.1993C359.898 86.2993 354.198 88.7993 351.698 89.3993C351.698 89.3993 350.198 89.6993 349.098 89.6993Z" fill="black"/>
<path d="M350.998 84.2004C350.998 84.2004 351.198 84.3004 351.598 84.4004C351.898 84.5004 352.498 84.4004 352.998 84.1004C354.098 83.4004 354.598 81.3004 354.198 79.4004C353.998 78.4004 353.598 77.5004 352.998 76.8004C352.498 76.1004 351.798 75.6004 351.198 75.7004C350.598 75.7004 350.298 76.1004 350.198 76.5004C350.098 76.8004 350.198 77.0004 350.198 77.1004C350.198 77.1004 349.898 77.0004 349.898 76.5004C349.898 76.3004 349.998 76.0004 350.198 75.7004C350.398 75.4004 350.798 75.2004 351.198 75.2004C352.098 75.1004 352.998 75.7004 353.598 76.4004C354.198 77.2004 354.698 78.2004 354.998 79.3004C355.398 81.5004 354.798 83.9004 353.298 84.7004C352.598 85.1004 351.898 85.0004 351.498 84.8004C351.098 84.5004 350.998 84.3004 350.998 84.2004Z" fill="black"/>
<path d="M323.402 86.0996C323.402 85.9996 322.802 86.1996 321.702 86.0996C320.702 86.0996 319.102 85.7996 317.502 84.7996C316.702 84.2996 315.902 83.5996 315.302 82.6996C315.102 82.4996 315.002 82.1996 314.902 81.9996C314.802 81.7996 314.602 81.3996 314.602 81.2996C314.602 81.0996 314.702 80.9996 314.802 80.8996C314.902 80.8996 315.402 80.7996 315.602 80.6996C318.102 80.0996 320.902 79.4996 323.702 78.7996C325.102 78.4996 326.502 78.0996 327.902 77.7996C328.602 77.5996 329.202 77.4996 329.902 77.2996L330.402 77.1996C330.602 77.1996 330.702 77.0996 330.802 77.0996C331.002 77.0996 331.102 77.1996 331.102 77.3996C331.202 79.6996 330.102 81.9996 328.802 83.1996C327.502 84.4996 326.002 85.0996 325.002 85.3996C323.902 85.7996 323.402 85.9996 323.402 86.0996C323.402 86.1996 324.002 86.0996 325.102 85.8996C326.202 85.6996 327.802 85.1996 329.302 83.8996C330.802 82.4996 332.102 80.2996 331.902 77.4996C331.802 76.9996 331.402 76.5996 330.902 76.5996C330.602 76.5996 330.502 76.6996 330.302 76.6996L329.802 76.7996C329.102 76.8996 328.502 77.0996 327.802 77.2996C326.402 77.5996 325.002 77.8996 323.602 78.2996C320.702 78.9996 318.002 79.5996 315.502 80.1996C315.202 80.2996 315.002 80.2996 314.502 80.4996C314.102 80.6996 313.802 81.1996 313.902 81.5996C314.202 82.3996 314.502 82.7996 314.802 83.2996C315.502 84.2996 316.402 84.9996 317.202 85.4996C318.902 86.4996 320.602 86.6996 321.702 86.5996C322.802 86.3996 323.402 86.0996 323.402 86.0996Z" fill="black"/>
<path d="M300.496 91.4004C300.496 91.3004 299.896 91.5004 298.796 91.4004C297.796 91.4004 296.196 91.1004 294.596 90.1004C293.796 89.6004 292.996 88.9004 292.396 88.0004C292.196 87.8004 292.096 87.5004 291.996 87.3004C291.896 87.1004 291.696 86.7004 291.696 86.6004C291.696 86.4004 291.796 86.3004 291.896 86.2004C291.996 86.2004 292.496 86.1004 292.696 86.0004C295.196 85.4004 297.996 84.8004 300.796 84.1004C302.196 83.8004 303.596 83.4004 304.996 83.1004C305.696 82.9004 306.296 82.8004 306.996 82.6004L307.496 82.5004C307.696 82.5004 307.796 82.4004 307.896 82.4004C308.096 82.4004 308.196 82.5004 308.196 82.7004C308.296 85.0004 307.196 87.3004 305.896 88.5004C304.596 89.8004 303.096 90.4004 302.096 90.7004C301.096 91.1004 300.496 91.3004 300.496 91.4004C300.496 91.5004 301.096 91.4004 302.196 91.2004C303.296 91.0004 304.896 90.5004 306.396 89.2004C307.896 87.8004 309.196 85.6004 308.996 82.8004C308.896 82.3004 308.496 81.9004 307.996 81.9004C307.696 81.9004 307.596 82.0004 307.396 82.0004L306.896 82.1004C306.196 82.2004 305.596 82.4004 304.896 82.6004C303.496 82.9004 302.096 83.2004 300.696 83.6004C297.796 84.3004 295.096 84.9004 292.596 85.5004C292.296 85.6004 292.096 85.6004 291.596 85.8004C291.196 86.0004 290.896 86.5004 290.996 86.9004C291.296 87.7004 291.596 88.1004 291.896 88.6004C292.596 89.6004 293.496 90.3004 294.296 90.8004C295.996 91.8004 297.696 92.0004 298.796 91.9004C299.896 91.6004 300.496 91.4004 300.496 91.4004Z" fill="black"/>
<path d="M307.802 81.9004C308.002 82.0004 309.002 80.7004 310.802 80.2004C312.702 79.7004 314.202 80.5004 314.302 80.3004C314.402 80.2004 314.102 79.9004 313.402 79.6004C312.802 79.3004 311.702 79.1004 310.602 79.4004C309.502 79.7004 308.702 80.3004 308.202 80.8004C307.802 81.4004 307.702 81.9004 307.802 81.9004Z" fill="black"/>
<path d="M348.002 72.599C347.902 72.399 344.002 73.199 339.202 74.399C334.402 75.599 330.602 76.799 330.602 76.999C330.702 77.199 334.602 76.399 339.402 75.199C344.202 73.999 348.002 72.799 348.002 72.599Z" fill="black"/>
<g opacity="0.6">
<path d="M304.898 61.2995C304.898 61.4995 306.798 61.8995 308.998 61.3995C311.298 60.9995 312.898 59.8995 312.798 59.6995C312.698 59.4995 311.098 60.2995 308.898 60.6995C306.698 61.1995 304.898 61.0995 304.898 61.2995Z" fill="black"/>
</g>
<g opacity="0.6">
<path d="M305.398 57.6996C305.398 57.8996 307.398 57.4996 309.698 57.3996C312.098 57.2996 313.998 57.3996 313.998 57.1996C314.598 56.8996 313.898 56.2996 309.598 56.6996C307.298 56.8996 305.398 57.4996 305.398 57.6996Z" fill="black"/>
</g>
<path d="M338.598 42.6004C344.498 48.0004 348.398 53.4004 349.798 61.1004C350.198 63.4004 351.198 69.0004 350.398 71.2004C349.398 74.0004 345.398 73.5004 346.298 76.8004C346.598 78.0004 346.498 79.3004 345.898 80.4004C344.398 83.0004 341.498 81.5004 339.898 79.8004C336.498 76.0004 335.098 71.0004 333.798 66.1004C332.898 62.6004 332.398 59.9004 332.598 56.4004C332.698 54.5004 337.298 43.8004 337.298 41.9004L338.598 42.6004Z" fill="black"/>
<path d="M343.698 82.4004C342.098 82.4004 340.498 81.3004 339.498 80.2004C335.998 76.3004 334.598 70.9004 333.298 66.3004C332.398 62.8004 331.898 60.0004 332.098 56.4004C332.198 55.4004 333.198 52.6004 334.398 49.4004C335.498 46.3004 336.798 42.8004 336.798 41.9004V40.9004L338.898 42.3004C345.498 48.4004 348.898 54.0004 350.298 61.1004C350.998 64.7004 351.598 69.4004 350.898 71.5004C350.398 72.9004 349.298 73.5004 348.398 74.1004C347.098 74.9004 346.498 75.4004 346.798 76.8004C347.198 78.3004 346.998 79.7004 346.298 80.8004C345.698 81.8004 344.898 82.3004 343.898 82.4004C343.898 82.4004 343.798 82.4004 343.698 82.4004ZM337.798 42.7004C337.498 44.1004 336.598 46.5004 335.498 49.7004C334.498 52.4004 333.398 55.5004 333.298 56.4004C333.098 59.9004 333.498 62.4004 334.498 66.0004C335.698 70.6004 337.098 75.8004 340.498 79.5004C341.398 80.5004 342.798 81.5004 344.098 81.4004C344.798 81.3004 345.298 81.0004 345.698 80.3004C346.198 79.4004 346.298 78.3004 345.998 77.1004C345.398 74.8004 346.798 74.0004 347.998 73.2004C348.898 72.7004 349.698 72.1004 350.098 71.1004C350.598 69.6004 350.398 66.1004 349.498 61.3004C348.198 54.5004 344.898 49.1004 338.498 43.2004L337.798 42.7004Z" fill="black"/>
<path d="M265.003 311.3C264.103 311.4 263.403 311.5 262.903 311.6C262.803 309.8 262.703 307.9 262.703 306.3C262.803 301.4 264.503 299.2 265.903 294.6C266.603 292.3 266.403 288.7 265.903 285.8H266.103C266.103 285.8 267.403 275.8 271.303 265.5C269.503 264.2 269.903 263.6 267.903 262.7C265.503 261.6 263.003 261 260.503 260.4C258.803 260 257.203 259.5 255.503 259.1L251.203 281.6H251.103C251.003 281.9 243.803 300.6 244.103 302.7C244.303 304.8 245.403 317.4 246.203 318.2C247.003 319 254.803 323.6 254.803 323.6H262.203C262.203 323.6 262.303 322.4 261.103 321L267.103 318.2C267.103 318.2 267.803 315.5 265.303 314.7L268.003 313C268.203 313.1 267.103 311 265.003 311.3Z" fill="white"/>
<path d="M265.1 311.399L263 311.699H262.9V311.599C262.8 309.399 262.6 307.199 262.8 304.999C262.9 300.499 265.7 296.699 266.1 292.299C266.2 289.899 265.9 287.499 265.5 285.199C265.6 285.199 266.2 285.299 266.3 285.299L265.8 285.699C266.8 279.599 268.5 273.699 270.7 267.999L270.8 268.499C266.4 264.599 260.6 262.899 255.4 260.199L255.7 260.099C254.5 266.399 252.9 275.599 251.8 282.099H251.5H251.4L251.7 281.799C249.4 288.599 246.6 295.299 244.9 302.399C245.3 306.999 245.8 311.899 246.5 316.399C246.6 316.899 246.7 317.399 246.8 317.799C246.7 317.899 247.3 318.199 247.6 318.499C248.4 318.999 249.3 319.599 250.1 320.099L255.2 323.199L254.9 323.099C257.4 323.099 259.8 323.199 262.3 323.199L261.9 323.599C261.9 322.599 261.3 321.699 260.6 320.899L261 320.699L267.1 317.999L267 318.099C267.4 316.499 266.7 315.099 265.1 314.699L265.3 314.599L268 312.899V312.999C267.5 312.099 266.3 311.199 265.1 311.399ZM265 311.299C266.4 310.999 267.6 311.999 268.3 313.199H268.2L265.5 314.899V314.699C267.1 315.099 267.8 316.899 267.4 318.399H267.3L261.3 321.299L261.4 320.799C261.9 321.399 262.4 321.999 262.6 322.799C262.7 323.199 262.7 323.599 262.7 323.999C260.1 324.099 257.4 324.099 254.8 324.099C251.9 322.399 249 320.799 246.3 318.899C246 318.699 245.7 318.299 245.6 317.999C244.5 313.499 244.3 308.999 243.8 304.499C243.8 303.899 243.6 302.699 243.7 302.099C244.3 298.799 245.6 295.799 246.6 292.699C248 288.899 249.4 285.199 250.9 281.499L251 281.199H251.2H251.3L250.9 281.499C252.2 275.099 254 265.999 255.3 259.699C260.7 262.499 266.7 264.199 271.5 267.999C269.4 273.799 267.8 279.799 266.7 285.899L266.6 286.399C266.5 286.399 266.1 286.299 266 286.299L266.5 285.699C266.8 287.899 267 290.099 266.8 292.399C266.6 294.699 265.6 296.699 264.7 298.799C262.7 302.799 262.7 307.299 263 311.699L262.9 311.599L265 311.299Z" fill="black"/>
<path d="M284.002 182.899C284.102 183.899 284.402 184.699 284.502 185.599L284.202 185.199C286.002 185.499 287.702 185.899 289.402 186.499C291.102 187.099 292.902 187.399 294.702 187.599L294.402 188.399C290.702 186.999 287.302 184.899 284.002 182.899ZM283.902 182.799C286.602 183.799 289.502 184.799 292.002 186.199C293.702 186.999 296.302 188.699 298.002 189.699C295.302 188.799 292.102 187.399 289.202 187.199C287.302 186.999 285.402 186.599 283.602 185.999C283.602 184.899 283.802 183.799 283.902 182.799Z" fill="black"/>
<path d="M265.903 284.898C265.903 284.898 265.903 284.998 266.003 285.198C266.003 285.398 266.103 285.698 266.103 285.998C266.203 286.698 266.403 287.798 266.503 289.198C266.603 289.898 266.603 290.698 266.603 291.498C266.603 292.298 266.603 293.298 266.303 294.198C265.803 296.098 264.903 298.098 263.903 300.198C263.103 304.298 262.303 308.998 261.303 313.998C261.103 314.998 260.803 316.098 260.103 316.898C259.803 317.298 259.303 317.598 258.803 317.798C258.303 317.898 257.703 317.898 257.203 317.698C256.203 317.398 255.403 316.598 255.003 315.798C254.503 314.898 254.403 313.998 254.403 313.098C254.403 311.298 254.903 309.598 255.003 308.098C255.203 306.498 255.303 305.098 255.303 303.698C255.303 300.998 255.003 298.798 254.703 297.398C254.603 296.698 254.403 296.098 254.303 295.698C254.203 295.298 254.203 295.098 254.203 295.098C254.203 295.098 254.303 295.298 254.403 295.698C254.503 296.098 254.703 296.598 254.803 297.398C255.103 298.898 255.503 300.998 255.503 303.798C255.503 305.198 255.503 306.598 255.303 308.198C255.203 309.798 254.703 311.398 254.703 313.198C254.703 314.098 254.803 314.998 255.303 315.798C255.703 316.598 256.503 317.198 257.303 317.498C258.203 317.798 259.203 317.598 259.803 316.798C260.403 316.098 260.703 315.098 260.903 314.098C261.903 309.098 262.803 304.398 263.503 300.298C264.503 298.198 265.403 296.198 265.903 294.398C266.203 293.498 266.203 292.598 266.203 291.798C266.203 290.998 266.103 290.198 266.103 289.498C266.003 288.098 265.903 286.998 265.803 286.298C265.803 285.998 265.703 285.698 265.703 285.498C265.903 284.998 265.903 284.898 265.903 284.898Z" fill="black"/>
<path d="M262.097 322.799C261.997 322.799 261.497 321.899 260.297 320.499C259.097 319.199 257.197 317.599 254.597 316.599C253.997 316.399 253.297 316.199 252.797 315.599C252.297 314.999 252.297 314.299 252.197 313.799C251.997 312.699 251.797 311.599 251.697 310.699C251.597 309.799 251.497 309.099 251.397 308.599C251.297 308.099 251.297 307.799 251.297 307.799C251.297 307.799 251.397 308.099 251.497 308.599C251.597 309.099 251.797 309.799 251.897 310.699C252.097 311.599 252.297 312.699 252.497 313.799C252.597 314.399 252.697 314.999 253.097 315.499C253.497 315.899 254.097 316.099 254.797 316.399C257.397 317.399 259.397 319.099 260.497 320.499C261.097 321.199 261.497 321.799 261.797 322.199C261.997 322.599 262.197 322.799 262.097 322.799Z" fill="black"/>
<path d="M251.698 302.1C251.798 302.1 252.398 303.2 252.298 304.8C252.198 306.4 251.598 307.5 251.498 307.5C251.398 307.5 251.898 306.3 251.898 304.8C251.998 303.3 251.598 302.1 251.698 302.1Z" fill="black"/>
<path d="M384.199 131.7C384.199 131.7 380.999 156.1 379.499 165C379.499 165 393.499 265.7 391.599 267.1C384.799 272.2 359.099 281.1 328.499 282.6C289.099 284.6 286.299 269.8 286.299 269.8L288.299 231.4C288.299 231.4 286.799 173.8 285.599 166.8C283.899 156.8 287.099 134.2 287.099 134.2L307.999 122.9L354.799 120.9L384.199 131.7Z" fill="url(#colorOne)"/>
<path d="M290.098 132.9C290.098 132.9 270.898 139.6 265.998 157.6C262.598 170.2 245.398 283.1 245.398 283.1L267.298 285.4L293.398 185.5L290.098 132.9Z" fill="url(#colorOne)"/>
<g opacity="0.46">
<path d="M295.398 129.4C295.398 129.4 304.098 147.1 319.298 152.3C332.498 156.9 342.898 155.8 342.898 155.8C342.898 155.8 337.798 161.6 340.198 163.2C342.598 164.8 365.998 161.7 373.098 153.2L367.998 145.5C367.998 145.5 339.098 153.8 323.098 145.4C307.098 137 295.398 129.4 295.398 129.4Z" fill="url(#colorOne)"/>
</g>
<path d="M355.997 225.201C355.997 225.201 355.897 225.301 355.597 225.401C355.297 225.601 354.797 225.801 354.297 226.001C353.197 226.501 351.597 227.301 349.497 228.101C347.497 228.901 344.997 229.901 342.297 230.801C339.497 231.701 336.497 232.701 333.197 233.601C329.897 234.501 326.797 235.201 323.997 235.701C321.097 236.201 318.497 236.701 316.397 236.901C314.197 237.201 312.397 237.401 311.197 237.501C310.597 237.501 310.097 237.601 309.797 237.601C309.497 237.601 309.297 237.601 309.297 237.601C309.297 237.601 309.497 237.601 309.797 237.501C310.197 237.501 310.597 237.401 311.197 237.301C312.397 237.201 314.197 236.901 316.397 236.601C318.597 236.301 321.197 235.801 323.997 235.301C326.897 234.701 329.997 234.001 333.197 233.201C336.397 232.301 339.497 231.401 342.297 230.501C345.097 229.601 347.497 228.701 349.597 227.801C351.597 227.001 353.297 226.301 354.397 225.801C354.897 225.601 355.397 225.401 355.697 225.201C355.797 225.201 355.997 225.201 355.997 225.201Z" fill="black"/>
<path d="M361.497 267.9C361.497 267.9 358.297 269.7 352.697 271.9C351.997 272.2 351.297 272.4 350.497 272.7C349.697 273 348.897 273.2 348.097 273.5C346.397 274.1 344.597 274.5 342.697 275.1C338.897 276 334.597 276.9 329.997 277.4C325.497 277.9 321.097 278 317.097 277.8C315.097 277.7 313.197 277.6 311.497 277.4C310.597 277.3 309.797 277.2 308.997 277.1C308.197 277 307.397 276.9 306.697 276.8C300.797 275.8 297.297 274.7 297.297 274.7C297.297 274.7 297.397 274.7 297.497 274.7C297.597 274.7 297.797 274.8 297.997 274.8C298.497 274.9 299.097 275 299.897 275.2C300.297 275.3 300.797 275.4 301.297 275.5C301.797 275.6 302.297 275.7 302.897 275.8C304.097 276 305.397 276.3 306.897 276.5C307.597 276.6 308.397 276.7 309.197 276.8C309.997 276.9 310.897 277 311.697 277.1C313.397 277.3 315.297 277.4 317.297 277.5C321.197 277.6 325.597 277.5 330.097 277C334.597 276.5 338.897 275.7 342.697 274.8C344.597 274.3 346.397 273.8 348.097 273.3C348.897 273 349.697 272.8 350.497 272.5C351.297 272.2 351.997 272 352.697 271.7C354.097 271.2 355.297 270.7 356.397 270.2C356.897 270 357.497 269.8 357.897 269.6C358.397 269.4 358.797 269.2 359.197 269C359.897 268.7 360.497 268.4 360.897 268.2C361.097 268.1 361.197 268.1 361.397 268C361.497 267.9 361.497 267.9 361.497 267.9Z" fill="black"/>
<path d="M373 113.901C368.8 111.901 358.8 115.601 357.5 116.701C356.2 117.801 340.9 122.401 340.9 122.401L290.7 103.801C289.4 103.301 288 102.901 286.7 102.601C284.5 102.101 281.1 101.501 279.7 101.501C277.5 101.501 263.9 98.3007 262.3 98.4007C260.7 98.6007 256.3 99.3007 256.3 99.3007C256.3 99.3007 250.9 106.701 251.5 110.201C252.1 113.701 252.6 114.401 252.6 114.401C252.6 114.401 252.7 116.101 255.1 117.001L257.9 118.201C257.9 118.201 256.9 118.901 257.3 120.001C257.7 121.101 258.2 122.301 262.1 121.901H265.4L266 121.201C266 121.201 270.9 121.101 271.5 120.801C272.1 120.601 279.3 119.901 281 115.801L282.7 116.601C282.7 116.601 299.3 132.901 306.8 138.901C314.3 145.001 326.6 149.801 335.6 151.601C344.5 153.401 376.5 142.701 377.1 142.501C377.1 142.501 381.9 140.701 383 135.301C384 130.101 380.2 117.401 373 113.901Z" fill="white"/>
<path d="M372.903 113.9C368.503 112.2 360.903 114.7 356.903 117.1C351.703 119.3 346.203 121.1 340.803 122.7C326.903 117.7 313.003 112.7 299.203 107.5C294.003 105.6 289.003 103.3 283.503 102.4C281.703 102 279.803 101.9 278.003 101.7C274.303 101.1 270.803 100.2 267.103 99.5001C265.303 99.2001 263.503 98.6001 261.703 98.8001L256.203 99.6001L256.303 99.5001C254.703 101.7 253.203 104.1 252.203 106.6C251.703 107.9 251.303 109.2 251.503 110.5C251.703 111.8 252.003 113.2 252.603 114.4C252.803 115.5 253.603 116.4 254.703 116.8L257.803 118.2L258.203 118.4L257.903 118.7C256.903 119.4 257.403 121 258.303 121.5C259.403 122.1 260.703 122 261.903 121.9H265.203L265.003 122L265.603 121.3L265.703 121.2H265.803C267.903 121.1 269.903 121.2 272.003 120.7C275.203 120.1 279.403 119.1 280.603 115.7C280.903 115.8 282.503 116.5 282.803 116.6C287.103 120.7 291.403 124.8 295.803 128.8C300.103 132.7 304.403 136.9 309.203 140.3C316.403 145.2 324.803 148.6 333.303 150.8C339.003 152.4 344.903 150.8 350.503 149.7C359.203 147.8 367.703 145.3 376.103 142.7C380.303 141.5 383.203 137.2 382.903 132.8C382.403 125.6 379.303 117.5 372.903 113.9ZM373.003 113.8C379.803 117.1 385.003 130 382.703 137.1C381.703 139.9 379.303 142.3 376.303 143.2C370.703 145.1 365.003 146.9 359.303 148.5C352.903 150.2 346.403 151.9 339.703 152.5C334.403 152.8 329.303 150.8 324.403 149.2C318.803 147.1 313.403 144.6 308.503 141.1C299.103 133.8 290.903 125.3 282.303 117L282.403 117.1L280.703 116.3L281.303 116.1C279.503 119.9 274.903 120.6 271.203 121.3C269.403 121.5 267.703 121.5 266.003 121.6L266.203 121.5L265.603 122.2L265.503 122.3H265.403H262.103C260.903 122.4 259.403 122.5 258.203 121.8C256.903 121 256.403 119 257.703 118.1V118.5C256.003 117.6 252.603 116.8 252.303 114.4C251.703 113.1 250.903 110.2 251.303 108.3C252.203 104.9 254.103 102 256.003 99.1001V99.0001H256.103L261.603 98.2001C263.403 98.0001 265.303 98.6001 267.103 98.9001C270.703 99.6001 274.303 100.3 278.003 100.9C281.703 101.2 285.303 101.7 289.003 102.7C292.103 103.7 296.403 105.4 299.403 106.4C313.003 111.4 327.903 116.8 340.703 122C346.003 120.4 351.503 118.9 356.703 116.8C359.103 115.3 361.803 114.4 364.503 113.8C367.403 113.3 370.303 112.7 373.003 113.8Z" fill="black"/>
<path d="M257.5 102.801C257.6 102.801 257.7 103.701 258.2 104.901C258.7 106.201 259.7 107.801 261.4 109.101C263.1 110.401 264.9 110.901 266.3 111.101C267.7 111.301 268.5 111.101 268.5 111.201C268.5 111.201 268.3 111.301 267.9 111.301C267.5 111.401 266.9 111.401 266.2 111.301C264.8 111.201 262.8 110.701 261.1 109.401C259.4 108.101 258.4 106.301 257.9 105.001C257.7 104.301 257.6 103.801 257.5 103.401C257.5 103.001 257.5 102.801 257.5 102.801Z" fill="black"/>
<path d="M267.605 119.1C267.605 119.1 267.305 118.8 267.005 118.1C266.705 117.4 266.505 116.3 266.805 115.2C267.005 114.1 267.605 113.2 268.105 112.6C268.605 112.1 269.005 111.9 269.105 111.9C269.105 111.9 268.805 112.2 268.305 112.8C267.905 113.3 267.305 114.2 267.105 115.3C266.905 116.4 267.005 117.3 267.205 118C267.505 118.7 267.705 119.1 267.605 119.1Z" fill="black"/>
<path d="M264.101 118.301C264.101 118.301 264.401 118.301 264.701 118.501C265.001 118.701 265.401 119.101 265.701 119.601C265.901 120.101 266.001 120.701 265.901 121.101C265.901 121.501 265.701 121.701 265.701 121.701C265.601 121.701 265.801 120.801 265.301 119.801C264.901 118.801 264.001 118.401 264.101 118.301Z" fill="black"/>
<path d="M257.602 118.201C257.602 118.101 258.202 118.301 259.202 118.301C260.202 118.401 261.602 118.401 263.102 118.001C263.802 117.801 264.502 117.501 265.002 117.101C265.502 116.701 265.902 116.301 266.202 115.801C266.702 115.001 266.702 114.301 266.802 114.301C266.802 114.301 267.002 115.001 266.502 115.901C266.302 116.401 265.902 116.901 265.302 117.301C264.802 117.701 264.002 118.101 263.302 118.301C261.802 118.701 260.302 118.601 259.302 118.501C258.202 118.501 257.602 118.201 257.602 118.201Z" fill="black"/>
<path d="M253.305 116.2C253.305 116.1 254.105 116.4 255.405 116.7C256.705 117 258.505 117.3 260.505 116.8C261.505 116.6 262.405 116.2 263.105 115.7C263.805 115.2 264.305 114.6 264.705 114C265.405 112.9 265.405 112 265.505 112C265.505 112 265.505 112.2 265.505 112.6C265.405 113 265.305 113.5 265.005 114.1C264.705 114.7 264.105 115.4 263.405 115.9C262.705 116.5 261.705 116.9 260.705 117.1C258.605 117.6 256.705 117.2 255.405 116.8C254.105 116.6 253.305 116.2 253.305 116.2Z" fill="black"/>
<path d="M252.406 113.4C252.406 113.4 252.506 113.6 252.706 113.8C252.906 114.1 253.306 114.3 253.906 114.5C254.506 114.6 255.206 114.7 256.006 114.9C256.806 115 257.706 115.2 258.506 115.3C258.906 115.3 259.406 115.3 259.706 115.1C260.006 114.9 260.306 114.6 260.506 114.3C260.906 113.7 261.306 113.1 261.706 112.5C262.406 111.5 262.806 110.9 262.906 110.9C262.906 110.9 262.606 111.6 262.006 112.6C261.706 113.1 261.306 113.8 260.906 114.4C260.706 114.7 260.406 115.1 260.006 115.4C259.606 115.7 259.106 115.7 258.606 115.6C257.706 115.5 256.806 115.3 256.006 115.1C255.206 114.9 254.506 114.8 253.906 114.6C253.306 114.4 252.906 114.1 252.706 113.8C252.406 113.6 252.406 113.4 252.406 113.4Z" fill="black"/>
<path d="M258.305 107C258.305 107 258.605 107.3 258.505 108C258.405 108.3 258.205 108.8 257.805 109C257.405 109.3 256.805 109.4 256.205 109.1L256.405 108.8C256.805 109.2 257.005 109.8 256.805 110.3L256.505 110.1C256.805 109.9 257.105 109.9 257.405 110C257.705 110.1 257.905 110.4 258.005 110.6C258.005 110.7 258.105 110.8 258.105 110.9H257.705C258.005 110 258.805 109.4 259.605 109.1C260.405 108.8 261.205 109 261.705 109.2C262.205 109.5 262.605 109.8 262.805 110.1C263.005 110.4 263.005 110.6 263.005 110.6C262.905 110.7 262.605 109.9 261.605 109.5C261.105 109.3 260.405 109.2 259.705 109.4C259.005 109.6 258.405 110.2 258.105 111L257.905 111.5L257.705 111C257.705 110.9 257.605 110.8 257.605 110.8C257.505 110.6 257.405 110.4 257.205 110.3C257.005 110.2 256.805 110.2 256.705 110.3L256.205 110.7L256.405 110.1C256.505 109.7 256.405 109.2 256.105 108.9L255.305 108.1L256.305 108.6C256.705 108.8 257.305 108.8 257.605 108.6C258.005 108.4 258.205 108.1 258.205 107.8C258.405 107.4 258.205 107 258.305 107Z" fill="black"/>
<path d="M253.402 106.501C253.502 106.401 254.202 106.901 255.002 107.601C255.802 108.301 256.402 108.901 256.302 109.001C256.202 109.101 255.502 108.601 254.702 107.901C253.902 107.201 253.302 106.601 253.402 106.501Z" fill="black"/>
<path d="M253.205 112.1C253.105 112 253.805 111.5 254.705 111C255.605 110.6 256.505 110.4 256.505 110.5C256.505 110.6 255.805 110.9 254.905 111.3C254.005 111.8 253.305 112.2 253.205 112.1Z" fill="black"/>
<path d="M257.602 113.699C257.502 113.699 257.402 112.999 257.502 112.199C257.502 111.399 257.602 110.699 257.802 110.699C257.902 110.699 258.002 111.399 257.902 112.199C257.802 113.099 257.702 113.699 257.602 113.699Z" fill="black"/>
<path d="M274.005 111C274.105 110.9 276.005 112.2 278.305 113.8C279.505 114.6 280.605 115.3 281.405 115.8C282.205 116.3 282.705 116.5 282.705 116.6C282.705 116.6 282.105 116.5 281.305 116C280.505 115.6 279.305 114.9 278.205 114.1C277.005 113.3 276.005 112.5 275.205 111.9C274.405 111.5 273.905 111.1 274.005 111Z" fill="black"/>
<path d="M296.803 129.199C289.403 134.199 281.803 138.599 274.603 143.899C272.203 145.799 271.303 149.299 270.203 152.099C268.203 157.799 266.803 163.899 265.403 169.899C259.103 198.199 254.003 232.599 249.203 261.399C251.803 230.499 255.603 199.599 262.103 169.199C263.503 163.099 265.003 157.099 267.103 151.099C268.503 147.699 269.603 143.699 272.803 141.299C280.203 136.199 288.303 132.299 296.803 129.199Z" fill="black"/>
<path d="M339.101 121.499C341.101 121.299 342.901 120.099 344.601 119.299L350.101 116.499C354.701 114.199 359.401 111.799 364.501 110.599C372.201 108.899 380.501 113.199 383.901 120.299C385.701 124.399 385.401 128.799 385.001 133.099C384.101 141.299 382.201 149.299 381.101 157.399L380.701 160.399C380.101 163.399 380.301 166.399 380.601 169.499C383.301 193.699 387.301 218.199 389.601 242.499C390.401 250.599 391.201 258.799 391.701 266.999C391.701 267.199 391.401 267.299 391.401 266.999C388.001 250.999 385.301 234.799 383.201 218.599C381.101 200.499 378.901 181.699 379.201 163.399C380.001 157.299 381.101 151.199 381.601 145.099C382.001 140.999 382.301 136.999 382.401 132.899C382.401 129.099 382.601 124.999 381.101 121.499C378.401 115.599 371.401 111.799 364.901 112.899C358.001 114.199 351.601 117.599 345.001 120.099C343.001 120.799 341.101 121.799 339.001 121.699C338.901 121.699 338.801 121.599 338.901 121.499C338.901 121.499 339.001 121.499 339.101 121.499Z" fill="black"/>
<path d="M285.6 166.799C286.9 177.499 287.8 188.199 288.6 198.899C289.2 205.199 289.6 211.999 289.8 218.299C290 224.699 290 231.299 289.2 237.699L288.6 244.099C287.9 252.699 287.1 261.199 286.2 269.799C286.1 261.199 286.2 252.599 286.6 243.999C287.1 235.399 287.6 226.899 287.2 218.399C286.6 201.199 285.4 183.999 285.6 166.799Z" fill="black"/>
<path d="M383.6 124.399C381.6 115.499 371.3 107.099 356.1 114.699C340.9 122.399 339.2 121.499 339.2 121.499L292.5 102.299L280.5 118.999L325.8 155.199C324.5 155.399 370.7 158.099 377.5 149.099C380.4 145.399 386 134.599 383.6 124.399Z" fill="url(#colorOne)"/>
<path d="M340.998 145.3C340.898 145.3 341.398 144.7 341.898 143.6C342.198 143.1 342.398 142.4 342.498 141.7C342.598 140.9 342.698 140.1 342.698 139.2C342.598 138.3 342.398 137.5 342.198 136.8C341.898 136.1 341.598 135.4 341.298 135C340.698 134 340.098 133.5 340.198 133.5C340.198 133.5 340.398 133.6 340.598 133.8C340.698 133.9 340.898 134 340.998 134.2C341.198 134.4 341.298 134.6 341.498 134.8C341.898 135.3 342.198 135.9 342.498 136.7C342.798 137.5 342.998 138.3 342.998 139.2C343.098 140.1 342.998 141 342.798 141.8C342.598 142.6 342.398 143.3 342.098 143.8C341.998 144.1 341.798 144.3 341.698 144.5C341.598 144.7 341.398 144.9 341.298 145C341.098 145.2 340.998 145.4 340.998 145.3Z" fill="black"/>
<path d="M280.203 118.6C291.103 126.4 300.503 136.1 311.603 143.6C317.503 147.6 323.203 152.3 329.803 155.1C335.803 156.2 341.903 155.4 348.003 155.2C352.403 154.9 356.903 154.5 361.303 154.1C365.703 153.7 370.203 153.2 374.603 152.6C366.403 154.2 356.803 155.1 348.103 155.9C342.003 156.3 335.703 157.1 329.603 156.1C322.703 153.6 317.003 148.7 311.203 144.3C301.003 135.6 289.103 128.1 280.203 118.6Z" fill="black"/>
<path d="M290 111.2C290 111.1 294.1 109.5 299.1 107.6C304.2 105.7 308.3 104.2 308.4 104.3C308.4 104.4 304.3 106 299.3 107.9C294.2 109.9 290 111.3 290 111.2Z" fill="black"/>
<path d="M296.799 118.7C296.699 118.6 299.799 116.1 303.699 113.1C307.599 110.1 310.699 107.7 310.799 107.8C310.899 107.9 307.799 110.4 303.899 113.4C300.099 116.4 296.899 118.7 296.799 118.7Z" fill="black"/>
<path d="M306.898 124.699C306.898 124.699 306.998 124.499 307.198 124.099C307.398 123.699 307.698 123.099 308.098 122.399C308.898 120.999 309.998 119.099 311.198 116.999C312.498 114.899 313.698 113.099 314.598 111.699C314.998 110.999 315.398 110.499 315.698 110.199C315.998 109.799 316.098 109.599 316.098 109.699C316.098 109.699 315.598 110.599 314.798 111.899C313.898 113.299 312.798 115.199 311.498 117.199C310.298 119.199 309.198 121.099 308.298 122.499C307.498 123.899 306.998 124.799 306.898 124.699Z" fill="black"/>
<path d="M336.203 63.6004C338.903 59.9004 343.203 56.8004 343.403 51.9004C344.903 56.9004 340.003 61.1004 336.203 63.6004Z" fill="white"/>
<path d="M338.203 67.4988C340.903 63.7988 345.203 60.6988 345.403 55.7988C346.803 60.7988 341.903 65.0988 338.203 67.4988Z" fill="white"/>
<path d="M338.602 70.2004C342.202 67.4004 347.202 65.6004 348.702 60.9004C348.802 66.1004 342.902 68.9004 338.602 70.2004Z" fill="white"/>
<path d="M304.998 70.4003C304.098 70.1003 301.999 71.9003 299.099 73.4003C296.199 74.9003 293.598 75.7003 293.298 76.5003C293.198 76.9003 293.899 77.3003 295.199 77.3003C296.499 77.3003 298.498 76.9003 300.498 75.8003C302.498 74.8003 303.999 73.4003 304.699 72.4003C305.399 71.3003 305.398 70.6003 304.998 70.4003Z" fill="black"/>
<path d="M328.996 68.5001C328.296 67.9001 325.596 68.6001 322.396 68.7001C319.196 68.9001 316.396 68.4001 315.796 69.1001C315.496 69.4001 315.996 70.0001 317.196 70.6001C318.396 71.2001 320.396 71.6001 322.596 71.5001C324.796 71.4001 326.696 70.8001 327.796 70.1001C328.896 69.4001 329.296 68.8001 328.996 68.5001Z" fill="black"/>
<script type="text/ecmascript" xlink:href="https://dev.w3.org/SVG/modules/ref/master/ref2.js"></script></svg>
