<svg width="640" height="360" viewBox="0 0 640 360" fill="none" 
xmlns="http://www.w3.org/2000/svg" 
xmlns:xlink="http://www.w3.org/1999/xlink">
<defs>
<ref id="colorOne" param="c1" default="#242C4F" />
<ref id="colorTwo" param="c2" default="#9296A7"/>
</defs>
<g opacity="0.78">
<path d="M488.102 38H166.102V305.5H488.102V38Z" fill="url(#colorTwo)"/>
</g>
<path d="M352.701 179.6C359.901 168.8 348.701 159.6 344.401 150.8C348.501 140.2 344.501 138.2 339.701 130.4C340.601 117.7 326.401 116.6 317.901 113.9C316.101 109.3 305.301 98.7996 301.801 101.5C295.601 85.6996 287.201 99.7996 281.601 108.4C281.301 111.1 285.601 174.7 282.501 177.8C283.201 183.3 310.901 189.7 316.801 191.4C321.101 192.6 321.301 212.8 325.901 213.3C337.001 214.9 334.801 200 345.101 200.1C354.201 196.5 347.201 185.4 352.701 179.6Z" fill="black"/>
<path d="M224.998 163.701C224.998 163.701 207.498 168.701 204.298 182.201C201.198 195.001 194.898 223.301 194.898 223.301C194.898 223.301 219.498 222.001 229.098 218.801L224.998 163.701Z" fill="url(#colorOne)"/>
<path d="M301.092 159.901C300.192 159.301 287.792 156.701 287.792 156.701L257.892 157.501L247.192 159.501C247.192 159.501 245.192 192.801 245.492 193.401C245.792 194.001 259.592 205.401 260.192 206.001C260.792 206.601 289.392 197.001 289.392 197.001L308.292 163.201L301.092 159.901Z" fill="url(#colorTwo)"/>
<path d="M297.495 158.6C298.995 158.6 318.995 163 325.795 168.8C332.995 174.9 354.395 201.5 354.395 201.5L322.995 223.9L319.695 219.4L315.995 264.8C315.995 264.8 322.995 286.7 327.995 300.7L214.695 302.2C214.695 302.2 223.595 276.2 224.895 265.4C226.295 254.1 220.895 227.4 220.995 219.3C221.095 206.3 220.995 183.4 220.995 183.4L225.195 163.7L255.395 155.9C255.395 155.9 257.695 174.4 273.595 174.4C292.095 174.5 297.495 158.6 297.495 158.6Z" fill="url(#colorOne)"/>
<path d="M294.202 258C294.202 258 294.002 258.1 293.802 258.1C293.502 258.2 293.002 258.3 292.502 258.4C291.402 258.7 289.702 259.1 287.702 259.5C283.602 260.4 277.902 261.3 271.602 262C265.302 262.6 259.502 262.8 255.302 262.8C253.202 262.8 251.502 262.7 250.402 262.7C249.802 262.7 249.402 262.6 249.102 262.6C249.402 262.6 249.902 262.6 250.402 262.6C251.602 262.6 253.302 262.6 255.302 262.6C259.502 262.6 265.202 262.3 271.502 261.7C277.802 261.1 283.502 260.1 287.602 259.3C289.602 258.9 291.302 258.6 292.402 258.3C292.902 258.2 293.402 258.1 293.702 258C294.002 258 294.202 258 294.202 258Z" fill="url(#colorOne)"/>
<path d="M255.898 263C255.698 263 255.398 263 255.198 263C253.198 263 251.498 263 250.298 262.9L248.998 262.8C248.498 262.8 248.398 262.8 248.398 262.6C248.398 262.4 248.498 262.4 248.998 262.4H250.298C251.598 262.4 253.298 262.4 255.198 262.4C258.898 262.4 264.698 262.2 271.398 261.5C278.098 260.8 283.898 259.8 287.498 259.1C289.398 258.7 291.098 258.4 292.298 258.1L293.598 257.8C294.098 257.7 294.198 257.7 294.298 257.8C294.298 258 294.198 258 293.698 258.1L292.398 258.4C291.198 258.7 289.498 259.1 287.598 259.5C284.698 260.1 278.798 261.2 271.498 262C264.698 262.9 258.998 263 255.898 263ZM282.098 260.4C279.098 260.9 275.398 261.4 271.498 261.8C267.498 262.2 263.898 262.4 260.798 262.6C263.798 262.5 267.398 262.3 271.498 261.9C275.598 261.4 279.198 260.9 282.098 260.4Z" fill="black"/>
<path d="M220.6 221.1L209.1 220.7C202.9 207.6 194.4 192.1 192.1 188L189.4 174.4C189.4 174.4 189.3 170.1 189.3 168.4C189.3 166.7 188 162.1 188 162.1C188 162.1 182.8 151.6 181.9 146.4C181 141.1 174.4 128 172.1 124.3C169.9 120.6 166.9 124.1 167.5 127.5C168.1 130.9 172 137.8 172.7 144.5C172.7 144.5 172.8 146.7 171.2 145.6C170.3 145 166.3 144.8 164.6 148.4C164.2 149.2 164.1 150 164.1 150.8C164.1 151.6 164 152.7 163.4 152.8C162.5 152.9 161.6 152.8 160.1 153.9C158.6 155 158.4 158.3 158.4 158.3C158.4 158.3 156.2 158.8 154.5 161.1C153.5 162.4 153.8 164.7 154 165.6C154.7 169.4 156.1 172.5 159.1 174.9L171.1 186.5L172.1 190.6C173.8 197.3 178.4 221.3 182.4 232.4C187.5 246.6 196.1 266.6 211.7 259.6C223.4 254.4 220.6 221.1 220.6 221.1Z" fill="white"/>
<path d="M205.399 261.6C203.699 261.6 201.999 261.3 200.299 260.6C191.499 256.9 185.799 243.7 181.899 232.7C178.999 224.7 175.799 209.9 173.699 200.1C172.799 196.2 172.099 192.8 171.599 190.9L171.499 190.4L170.599 186.8L158.699 175.3C155.899 173.1 154.299 170.1 153.399 165.8C153.299 165.3 152.799 162.5 153.999 160.9C155.399 159 157.199 158.2 157.899 158C157.999 157.1 158.399 154.6 159.799 153.6C161.199 152.6 162.099 152.6 162.899 152.5C162.999 152.5 163.199 152.5 163.299 152.5C163.399 152.5 163.599 152.1 163.599 151C163.599 150 163.799 149.1 164.099 148.4C165.099 146.3 166.799 145.5 167.999 145.2C169.499 144.8 170.899 145 171.399 145.4C171.699 145.6 171.899 145.6 171.899 145.6C171.999 145.5 172.199 145 172.099 144.6C171.699 140.6 170.099 136.4 168.699 133.1C167.899 131 167.099 129.1 166.899 127.7C166.499 125.5 167.499 123.1 169.099 122.6C169.599 122.4 171.099 122.1 172.399 124.2C174.799 128.1 181.399 141.3 182.199 146.5C183.099 151.6 188.199 162 188.299 162.1V162.2C188.399 162.4 189.599 166.9 189.599 168.6C189.599 170.2 189.699 174.1 189.699 174.5L192.399 188C194.899 192.4 203.099 207.5 209.299 220.4L220.899 220.8V221.2C220.999 222.6 223.599 254.9 211.699 260.2C209.599 261.1 207.399 261.6 205.399 261.6ZM172.599 191C173.099 193 173.699 196 174.599 199.8C176.699 209.6 179.899 224.4 182.799 232.3C186.699 243.2 192.299 256.1 200.699 259.7C203.999 261.1 207.699 261 211.399 259.3C222.099 254.5 220.399 225.3 220.099 221.5L208.799 221.2L208.699 221C202.499 207.9 194.099 192.7 191.699 188.3V188.2V188.1L188.999 174.4C188.999 174.4 188.899 170.1 188.899 168.4C188.899 166.9 187.799 162.7 187.599 162.3C187.199 161.5 182.299 151.6 181.499 146.5C180.599 141.4 174.199 128.4 171.799 124.5C171.399 123.9 170.599 122.8 169.599 123.2C168.599 123.6 167.699 125.4 167.999 127.4C168.199 128.7 168.899 130.5 169.699 132.6C170.999 136 172.699 140.3 173.099 144.4C173.099 144.6 173.099 145.8 172.399 146.2C171.999 146.4 171.499 146.3 170.999 145.9C170.699 145.7 169.599 145.5 168.299 145.8C167.299 146.1 165.899 146.8 164.999 148.5C164.699 149.1 164.499 149.9 164.499 150.7C164.499 151.3 164.499 153 163.399 153.1C163.299 153.1 163.099 153.1 162.999 153.1C162.199 153.2 161.499 153.2 160.299 154C159.199 154.8 158.799 157.2 158.699 158V158.3L158.399 158.4C158.399 158.4 156.299 158.9 154.699 161.1C153.999 162.1 153.999 164 154.199 165.3C154.999 169.5 156.499 172.2 159.199 174.3L171.299 186L172.599 191Z" fill="black"/>
<path d="M165.102 153.3C166.402 158.1 167.602 162.9 168.902 167.6C169.302 169 169.702 170.5 170.702 171.6C171.702 172.7 173.602 173.2 174.902 172.4C175.702 171.8 176.102 170.8 176.202 169.9C176.302 168.9 176.002 168 175.702 167.1C174.102 161 172.702 154.8 171.702 148.6" fill="white"/>
<path d="M171.7 148.6C171.7 148.6 171.8 148.8 171.8 149.1C171.9 149.5 172 149.9 172.1 150.5C172.4 151.8 172.7 153.5 173.1 155.6C173.6 157.8 174.1 160.3 174.8 163.1C175.2 164.5 175.5 166 175.9 167.5C176.1 168.3 176.3 169.1 176.2 170C176.1 170.9 175.8 171.8 175.2 172.4C174.5 173 173.5 173.3 172.7 173.1C171.8 173 171.1 172.5 170.5 172C169.3 170.8 168.9 169.2 168.6 167.8C167.9 165 167.2 162.5 166.7 160.3C166.2 158.2 165.8 156.5 165.4 155.2C165.3 154.6 165.2 154.2 165.1 153.8C165 153.5 165 153.3 165 153.3C165 153.3 165.1 153.5 165.2 153.8C165.3 154.2 165.4 154.6 165.6 155.2C165.9 156.5 166.4 158.2 167 160.2C167.6 162.3 168.3 164.9 169 167.7C169.4 169.1 169.8 170.6 170.9 171.7C171.4 172.2 172.1 172.6 172.9 172.7C173.7 172.8 174.5 172.6 175 172.1C175.6 171.6 175.8 170.8 175.9 170C175.9 169.2 175.8 168.4 175.6 167.7C175.2 166.2 174.8 164.7 174.5 163.3C173.8 160.5 173.3 157.9 172.9 155.7C172.5 153.5 172.2 151.8 172 150.6C171.9 150 171.8 149.5 171.8 149.2C171.7 148.8 171.7 148.6 171.7 148.6Z" fill="black"/>
<path d="M184.6 161.299C182.9 161.199 179.7 160.299 177.9 159.999C176.6 159.799 175 159.799 174.1 160.799C173.3 161.699 173.3 162.999 173.7 163.999C174.2 165.399 175.2 166.499 176.3 167.399C176.7 167.699 177.2 168.099 177.7 168.299C178.2 168.499 178.8 168.599 179.3 168.699C179.5 168.699 179.6 168.799 179.8 168.899C180.1 169.199 180.2 169.699 180.4 169.999C181 170.899 181.8 171.699 182.7 172.299C182.9 172.399 183.1 172.499 183.4 172.599" fill="white"/>
<path d="M183.502 172.699C183.502 172.699 183.402 172.699 183.202 172.599C183.002 172.499 182.802 172.399 182.502 172.199C181.902 171.799 181.002 171.199 180.302 170.099C180.102 169.799 180.002 169.499 179.802 169.199C179.702 169.099 179.602 168.999 179.502 168.899C179.402 168.899 179.202 168.799 179.002 168.799C178.302 168.699 177.402 168.399 176.702 167.899C175.302 166.999 173.802 165.599 173.302 163.599C173.002 162.599 173.102 161.499 173.602 160.699C174.202 159.899 175.202 159.499 176.002 159.499C176.902 159.399 177.702 159.599 178.402 159.799C179.102 159.999 179.802 160.099 180.402 160.299C181.602 160.599 182.602 160.799 183.302 160.999C184.002 161.099 184.402 161.199 184.402 161.199C184.402 161.199 184.002 161.299 183.302 161.199C182.602 161.099 181.602 160.899 180.402 160.699C179.802 160.599 179.102 160.399 178.402 160.299C177.702 160.199 176.902 159.999 176.102 160.099C175.302 160.199 174.502 160.499 174.002 161.099C173.502 161.799 173.502 162.699 173.702 163.599C174.202 165.399 175.602 166.699 176.902 167.599C177.602 168.099 178.302 168.299 179.002 168.499C179.202 168.499 179.402 168.499 179.602 168.599C179.802 168.699 180.002 168.899 180.102 168.999C180.302 169.299 180.402 169.599 180.502 169.899C181.102 170.999 181.902 171.599 182.502 171.999C183.202 172.499 183.602 172.599 183.502 172.699Z" fill="black"/>
<path d="M180.201 148.8C180.301 148.8 179.701 151.1 178.001 153.3C176.301 155.6 174.301 156.8 174.301 156.7C174.201 156.6 176.001 155.2 177.601 153C179.301 150.9 180.001 148.7 180.201 148.8Z" fill="black"/>
<path d="M172.998 173C172.998 173 173.098 173.1 173.198 173.2C173.298 173.3 173.498 173.6 173.698 173.9C173.898 174.2 174.098 174.7 174.098 175.2C174.098 175.8 173.698 176.4 173.098 176.7C171.798 177.4 169.998 177.2 168.498 176.3C166.898 175.5 165.598 174 164.398 172.3C163.198 170.7 162.098 169.1 161.298 167.5C160.498 165.9 159.998 164.4 159.698 163.1C159.398 161.8 159.398 160.7 159.398 160C159.398 159.3 159.498 158.9 159.498 158.9C159.598 158.9 159.298 160.6 159.998 163.1C160.298 164.4 160.898 165.8 161.698 167.4C162.498 168.9 163.598 170.5 164.798 172.1C165.998 173.7 167.298 175.2 168.798 176C170.298 176.8 171.898 177 173.098 176.4C173.698 176.1 173.998 175.6 173.998 175.1C173.998 174.6 173.798 174.2 173.698 173.9C173.298 173.4 172.998 173.1 172.998 173Z" fill="black"/>
<path d="M165 156.9C165.1 156.9 165.6 158.5 166.4 160.4C167.2 162.3 168 163.8 167.9 163.9C167.8 164 166.8 162.5 166 160.6C165.1 158.6 164.9 156.9 165 156.9Z" fill="black"/>
<path d="M167.601 175.599C167.601 175.599 167.401 175.999 166.801 176.299C166.201 176.699 165.301 176.999 164.201 176.899C163.101 176.799 162.301 176.399 161.701 175.999C161.101 175.599 160.901 175.199 161.001 175.199C161.101 175.099 161.401 175.399 161.901 175.699C162.501 175.999 163.301 176.299 164.201 176.399C165.201 176.499 166.001 176.299 166.601 175.999C167.201 175.799 167.601 175.599 167.601 175.599Z" fill="black"/>
<path d="M372.997 234.498C370.897 230.398 361.197 217.098 351.297 203.898L324.897 222.598L345.297 242.198C339.197 253.598 327.697 274.798 326.597 276.398C324.997 278.798 323.597 277.498 323.597 277.498C323.897 277.498 311.297 266.698 307.297 265.998C303.297 265.298 296.197 267.198 296.197 267.198C296.197 267.198 296.997 270.798 299.797 270.998C302.497 271.198 305.797 270.998 305.797 270.998L310.297 274.198L307.597 272.998C306.697 272.598 305.697 272.498 304.697 272.698C301.697 273.298 294.897 274.598 294.297 274.598C293.497 274.698 290.497 275.198 292.497 279.598C292.497 279.598 289.497 283.298 295.397 284.198C301.397 285.098 307.297 285.598 307.297 285.598L311.897 287.898C311.897 287.898 301.197 287.798 299.497 288.298C297.797 288.798 297.997 290.198 298.797 290.998C299.597 291.798 310.897 291.298 312.797 292.598C314.697 293.898 321.197 298.798 324.797 298.398C328.397 297.998 332.797 294.698 333.397 294.398C333.997 294.098 372.497 250.698 372.497 250.698C372.497 250.698 377.597 243.598 372.997 234.498Z" fill="white"/>
<path d="M324.298 298.999C320.898 298.999 315.698 295.399 313.198 293.599C312.898 293.399 312.698 293.299 312.498 293.099C311.498 292.399 307.298 292.299 304.198 292.099C300.298 291.899 298.798 291.799 298.398 291.399C297.798 290.799 297.498 289.999 297.698 289.299C297.798 288.799 298.198 288.199 299.298 287.899C300.598 287.499 306.798 287.499 309.998 287.499L307.098 285.999C306.398 285.899 300.898 285.399 295.298 284.599C293.098 284.299 291.798 283.499 291.398 282.399C290.998 281.199 291.598 279.999 291.998 279.599C291.298 277.999 291.198 276.699 291.698 275.699C291.998 275.099 292.698 274.399 294.298 274.199C294.698 274.099 298.498 273.399 304.698 272.299C305.398 272.199 306.198 272.199 306.898 272.399L305.698 271.499C304.998 271.499 302.198 271.599 299.798 271.499C296.798 271.299 295.898 267.499 295.798 267.399L295.698 266.999L296.098 266.899C296.398 266.799 303.298 264.999 307.398 265.699C309.598 266.099 313.898 269.199 317.198 271.699C319.298 273.299 321.098 274.799 321.898 275.499C323.198 276.599 323.698 277.099 323.898 277.299C323.998 277.399 324.298 277.499 324.698 277.499C325.198 277.399 325.698 276.999 326.198 276.299C327.298 274.699 338.198 254.499 344.698 242.399L324.198 222.599L351.398 203.299L351.698 203.599C364.398 220.499 371.698 230.799 373.498 234.299C378.198 243.599 372.998 251.099 372.998 251.199C361.398 264.299 334.398 294.699 333.798 294.999C333.698 294.999 333.498 295.199 333.198 295.399C331.698 296.399 328.098 298.699 324.998 298.999C324.698 298.999 324.498 298.999 324.298 298.999ZM309.798 288.399C306.198 288.399 300.698 288.499 299.598 288.799C299.198 288.899 298.698 289.099 298.598 289.599C298.498 289.999 298.698 290.499 299.098 290.799C299.498 290.999 302.198 291.199 304.298 291.199C308.698 291.399 311.898 291.599 312.998 292.299C313.198 292.399 313.398 292.599 313.698 292.799C316.098 294.499 321.598 298.399 324.698 297.999C327.498 297.699 330.998 295.499 332.498 294.499C332.798 294.299 332.998 294.199 333.098 294.099C334.298 292.999 359.098 265.199 372.098 250.499C372.398 250.099 376.898 243.099 372.598 234.499C370.898 231.099 363.698 220.899 351.098 204.299L325.498 222.499L345.698 241.999L345.498 242.299C338.998 254.399 327.898 274.899 326.798 276.599C326.098 277.599 325.398 278.199 324.598 278.199C323.698 278.299 323.098 277.799 323.098 277.699L322.298 276.899C319.598 274.499 310.298 266.899 307.098 266.299C303.798 265.699 298.198 266.999 296.698 267.399C296.998 268.299 297.898 270.299 299.698 270.399C302.398 270.599 305.598 270.399 305.598 270.399H305.798L313.898 276.199L307.298 273.199C306.498 272.799 305.598 272.699 304.698 272.899C301.098 273.599 294.898 274.799 294.298 274.899C293.398 274.999 292.698 275.399 292.398 275.899C291.998 276.599 292.098 277.799 292.798 279.199L292.898 279.499L292.698 279.699C292.698 279.699 291.698 280.899 292.098 281.899C292.398 282.699 293.498 283.299 295.398 283.599C301.298 284.499 307.198 284.999 307.198 284.999H307.298L313.598 288.199H311.698C311.298 288.399 310.598 288.399 309.798 288.399Z" fill="black"/>
<path d="M316.098 281.4C316.098 281.4 315.798 281.3 315.198 281.1C314.598 280.8 313.698 280.5 312.798 280.1C311.798 279.7 310.598 279.2 309.198 278.6C308.498 278.3 307.798 278.1 306.998 277.9C306.298 277.7 305.398 277.8 304.598 277.9C301.198 278.2 298.198 278.8 295.998 279.2C294.998 279.4 294.098 279.5 293.398 279.7C292.798 279.8 292.398 279.9 292.398 279.8C292.398 279.8 292.698 279.7 293.298 279.5C293.898 279.4 294.798 279.1 295.898 278.9C298.098 278.5 301.098 277.8 304.498 277.5C305.298 277.5 306.198 277.4 306.998 277.6C307.798 277.8 308.498 278.1 309.198 278.4C310.598 278.9 311.798 279.5 312.798 279.9C313.798 280.4 314.598 280.8 315.198 281C315.798 281.2 316.098 281.4 316.098 281.4Z" fill="black"/>
<path d="M360.798 238.6C360.798 238.7 359.798 238.4 358.198 238.4C357.398 238.4 356.398 238.4 355.398 238.5C354.298 238.6 353.198 238.9 351.998 239.2C350.798 239.6 349.798 240.1 348.798 240.5C347.898 241 347.098 241.5 346.398 242C345.098 243 344.398 243.7 344.398 243.7C344.398 243.7 344.498 243.5 344.798 243.1C344.898 242.9 345.098 242.7 345.398 242.5C345.598 242.3 345.898 242 346.198 241.8C346.798 241.3 347.598 240.7 348.598 240.2C349.598 239.7 350.598 239.2 351.798 238.8C352.998 238.4 354.198 238.2 355.298 238.1C356.398 238 357.398 238 358.198 238.1C358.598 238.1 358.998 238.2 359.298 238.2C359.598 238.2 359.898 238.3 360.098 238.4C360.598 238.5 360.798 238.6 360.798 238.6Z" fill="black"/>
<path d="M212.402 236.099C211.802 228.199 212.602 225.399 209.102 220.699Z" fill="white"/>
<path d="M212.3 236.1C212 233.5 211.9 230.8 211.5 228.1C211.2 225.8 210.5 223.7 209.4 221.6C209.2 221.3 209.1 221 209 220.7L209.1 220.6C210.2 221.6 211.1 223 211.6 224.4C212 225.5 212.1 226.8 212.2 227.9C212.3 229.3 212.3 230.6 212.3 231.9C212.4 233.5 212.4 234.8 212.3 236.1Z" fill="black"/>
<path d="M314.397 112.099C314.397 112.099 311.097 101.399 313.997 101.999C316.897 102.599 324.497 104.699 321.397 106.999C318.297 109.299 314.397 112.099 314.397 112.099Z" fill="url(#colorOne)"/>
<path d="M315.898 110.999C315.898 110.999 326.298 108.299 325.598 110.999C324.898 113.699 322.598 120.999 320.498 117.899C318.298 114.799 315.898 110.999 315.898 110.999Z" fill="url(#colorOne)"/>
<path d="M287.997 128.5L290.397 130.2L289.297 153L297.797 158.6L288.097 174.2C287.197 175.7 278.097 186.2 267.097 189.2C265.497 189.6 263.397 188 261.097 187.2C258.897 184.2 255.997 180.5 254.097 174.2C252.397 168.6 252.097 161.8 252.197 158.3C253.597 156.8 255.997 157.4 257.397 155.9V136.8L287.997 128.5Z" fill="white"/>
<path d="M256.797 156.499C255.497 156.899 253.997 156.899 253.197 157.899C252.497 158.899 252.597 160.499 252.597 161.799C252.997 168.999 255.697 176.999 259.397 183.199C260.797 185.499 262.897 188.599 265.697 189.099C267.097 189.199 268.697 188.799 270.097 188.399C275.897 186.499 281.297 183.099 285.397 178.599C287.397 176.299 289.097 173.699 290.197 170.799C289.197 173.699 287.497 176.399 285.497 178.699C281.397 183.299 276.097 186.799 270.297 188.899C268.797 189.399 267.297 189.799 265.697 189.699C262.597 189.199 260.297 185.999 258.697 183.599C256.197 179.699 254.297 175.399 252.897 170.899C251.897 167.499 250.997 164.099 250.897 160.499C250.797 158.699 251.197 156.599 252.797 155.599C253.897 154.899 255.197 154.699 256.297 154.299C257.497 154.199 258.097 156.099 256.797 156.499Z" fill="black"/>
<path d="M234.195 98.1C229.595 120.7 239.195 139.2 259.495 142.6C279.795 146 301.895 132 305.795 109.2C309.695 86.4 296.395 65 276.095 61.5C255.795 58 238.795 75.4 234.195 98.1Z" fill="white"/>
<path d="M258.497 142.5C258.497 142.5 271.497 144.7 284.597 138.1C284.597 138.1 277.697 150.5 258.297 148L258.497 142.5Z" fill="black"/>
<path d="M266.3 92.4006C266.5 93.1006 269.1 93.0006 272.1 93.6006C275.1 94.1006 277.5 95.2006 277.9 94.6006C278.1 94.3006 277.7 93.6006 276.8 92.9006C275.9 92.1006 274.4 91.4006 272.6 91.0006C270.8 90.7006 269.1 90.8006 268 91.2006C266.8 91.5006 266.2 92.1006 266.3 92.4006Z" fill="black"/>
<path d="M242.402 86.6C242.802 87.2 244.602 86.7 246.802 86.9C248.902 87 250.702 87.6 251.202 87C251.402 86.7 251.202 86.1 250.402 85.5C249.702 84.9 248.402 84.3 246.902 84.3C245.402 84.2 244.102 84.7 243.302 85.2C242.602 85.7 242.302 86.3 242.402 86.6Z" fill="black"/>
<path d="M293.395 124.4C293.495 124.4 293.595 124.6 293.995 124.8C294.295 125 294.995 125.2 295.595 125C296.995 124.7 298.395 122.7 298.795 120.4C298.995 119.3 298.895 118.1 298.595 117.2C298.295 116.2 297.795 115.5 297.195 115.3C296.595 115.1 295.995 115.4 295.795 115.7C295.595 116 295.595 116.3 295.595 116.3C295.595 116.3 295.395 116.1 295.495 115.5C295.595 115.3 295.795 115 296.095 114.8C296.395 114.6 296.895 114.5 297.395 114.6C298.395 114.8 299.095 115.8 299.395 116.9C299.795 118 299.895 119.2 299.695 120.5C299.295 123 297.695 125.3 295.795 125.5C294.895 125.6 294.195 125.3 293.795 124.9C293.395 124.7 293.295 124.4 293.395 124.4Z" fill="black"/>
<path d="M290.4 135.4C291.2 146.4 291 157.6 289.8 168.6C289 157.5 289.2 146.4 290.4 135.4Z" fill="black"/>
<path d="M256.195 162.9C256.195 157.8 256.695 152.7 257.295 147.7C257.495 146 257.695 144.3 257.995 142.6L258.195 142.9C257.495 142.7 256.895 142.3 256.295 142C256.995 142.1 257.695 142.3 258.395 142.4H258.595V142.6C258.595 149.5 257.895 156.3 256.195 162.9Z" fill="black"/>
<path d="M309.399 92.4996C308.199 82.4996 303.899 72.6996 296.299 65.8996C283.399 54.5996 264.999 55.4996 251.999 66.1996C244.099 72.4996 238.599 81.5996 235.899 91.3996C233.699 99.0996 232.499 107.3 233.599 115.3C235.399 128.7 243.599 138.3 256.699 141.8C260.099 142.6 263.699 142.5 267.199 142.3C271.299 142.1 275.299 141.6 279.299 140.8V140.9C275.299 141.9 271.299 142.5 267.199 142.8C264.099 143 260.999 143.2 257.999 142.8C252.899 141.9 247.999 139.8 243.899 136.6C229.999 126.1 229.899 106.1 234.799 90.8996C235.999 86.9996 237.599 83.1996 239.699 79.5996C251.199 59.3996 277.799 47.9996 296.999 64.9996C303.199 70.4996 307.099 78.1996 308.699 86.2996C309.099 88.2996 309.399 90.2996 309.499 92.3996L309.399 92.4996Z" fill="black"/>
<path d="M279.897 79.2C279.997 79.2 280.297 78.8 280.497 78C280.697 77.2 280.797 75.8 280.097 74.4C279.397 73 277.797 71.5 275.697 71.2C274.697 71 273.397 71.1 272.397 71.8C271.897 72.1 271.397 72.7 271.297 73.5C271.197 74.2 271.597 75 272.097 75.4C273.197 76.3 274.497 76.3 275.697 76.1C276.797 75.9 277.897 75.4 278.697 74.8C280.397 73.5 281.197 71.6 281.197 70C281.297 68.4 280.797 67.2 280.297 66.5C279.797 65.8 279.397 65.5 279.397 65.5C279.197 65.6 280.697 67.1 280.397 69.9C280.297 71.3 279.497 72.9 277.997 74C277.297 74.5 276.397 74.9 275.397 75.1C274.397 75.3 273.397 75.1 272.697 74.6C271.997 74 272.097 73.2 272.897 72.7C273.597 72.2 274.597 72.1 275.497 72.2C277.297 72.4 278.697 73.6 279.397 74.8C280.097 76 280.097 77.2 280.097 78C279.997 78.7 279.797 79.1 279.897 79.2Z" fill="black"/>
<path d="M234.299 88.6991C234.299 88.5991 233.199 88.4991 232.099 87.2991C231.599 86.6991 231.199 85.6991 231.399 84.6991C231.599 83.6991 232.399 82.4991 233.599 82.0991L234.299 81.8991L233.899 81.3991C232.799 79.9991 231.699 78.0991 231.799 76.0991C231.899 75.0991 232.199 74.0991 232.799 73.3991C233.399 72.6991 234.299 72.2991 235.099 71.8991C235.999 71.4991 236.899 71.0991 237.599 70.4991C238.299 69.8991 238.899 69.2991 239.299 68.6991C240.999 66.0991 240.499 63.9991 240.399 64.0991C240.199 64.0991 240.399 65.9991 238.699 68.2991C237.899 69.4991 236.499 70.2991 234.699 70.9991C233.799 71.3991 232.799 71.7991 231.999 72.7991C231.199 73.6991 230.799 74.8991 230.699 76.0991C230.599 78.5991 231.799 80.5991 233.099 82.0991L233.299 81.2991C231.699 81.8991 230.799 83.3991 230.699 84.6991C230.499 86.0991 231.199 87.1991 231.799 87.8991C233.099 88.9991 234.399 88.7991 234.299 88.6991Z" fill="black"/>
<path d="M291.802 112.5C295.602 107.2 304.002 113.6 302.402 119.4C309.002 116.4 312.402 109.3 314.002 102.8C321.102 93.7996 318.802 84.6996 314.702 72.1996C311.602 62.6996 306.902 55.2996 294.802 55.3996C292.102 48.9996 284.202 46.3996 277.302 46.9996C266.502 47.0996 259.602 40.7996 250.902 52.4996C248.102 57.3996 238.802 57.3996 239.402 63.9996C239.902 69.7996 236.102 68.4996 234.702 73.6996C233.702 77.3996 236.102 82.1996 234.602 85.6996C231.902 88.9996 233.002 92.2996 233.702 95.9996C232.402 99.1996 231.602 100.9 233.002 105.7C235.202 97.9996 237.202 90.4996 239.202 82.7996C239.302 82.4996 245.002 75.5996 244.502 73.1996C247.002 74.3996 252.502 68.8996 253.002 65.6996C255.402 63.7996 259.602 64.9996 260.902 62.1996C267.502 63.1996 272.902 72.7996 279.402 65.8996C280.502 69.6996 284.902 70.6996 288.302 71.1996C285.102 78.8996 294.402 80.1996 292.102 82.8996C290.402 85.5996 291.602 89.7996 294.602 91.0996C292.202 92.2996 291.602 96.1996 293.702 97.9996C296.502 100.2 286.802 104.3 293.102 107.7C291.202 108.6 289.602 111.3 291.802 112.5Z" fill="black"/>
<path d="M256.497 96.2988C256.097 100.099 254.697 103.799 252.697 107.099C251.097 109.799 248.797 112.099 253.597 112.699C254.497 112.799 255.497 112.799 256.397 112.799C255.497 112.999 254.497 113.099 253.497 112.999C252.097 112.999 249.797 112.499 250.097 110.699C250.397 109.199 251.397 107.999 252.097 106.799C254.197 103.599 255.597 99.9988 256.497 96.2988Z" fill="black"/>
<path d="M319.602 204C319.602 225.2 318.302 246.5 315.602 267.5C315.602 246.3 316.902 225.1 319.602 204Z" fill="black"/>
<path d="M220 204.6C223.1 225.9 224.9 247.5 225.3 269C222.1 247.7 220.4 226.2 220 204.6Z" fill="black"/>
<script type="text/ecmascript" xlink:href="https://www.argentina.gob.ar/profiles/argentinagobar/themes/contrib/poncho/js/w3c/ref2.js"></script></svg>
