<svg width="640" height="360" viewBox="0 0 640 360" fill="none" 
xmlns="http://www.w3.org/2000/svg" 
xmlns:xlink="http://www.w3.org/1999/xlink">
<defs>
<ref id="colorOne" param="c1" default="#242C4F" />
<ref id="colorTwo" param="c2" default="#9296A7"/>
</defs>
<path d="M176.703 300.301H462.103C462.603 300.301 463.103 300.701 463.103 301.301V301.901C463.103 302.401 462.703 302.901 462.103 302.901H176.703C176.203 302.901 175.703 302.501 175.703 301.901V301.301C175.803 300.801 176.203 300.301 176.703 300.301Z" fill="black"/>
<path d="M398.898 302.5C399.098 282.1 391.998 267.9 391.998 267.9L285.698 266.6L282.898 301.5V302.6C319.998 303.4 360.398 302.6 398.898 302.5Z" fill="black"/>
<path d="M262.302 320.901C261.302 321.001 260.602 321.201 260.102 321.201C260.002 319.301 259.902 317.301 259.902 315.601C260.002 310.501 261.802 308.101 263.302 303.301C264.102 300.901 263.802 297.201 263.302 294.001H263.502C263.502 294.001 264.902 283.501 269.002 272.801C267.102 271.501 267.502 270.801 265.402 269.901C262.902 268.701 260.302 268.101 257.602 267.501C255.902 267.101 254.102 266.601 252.402 266.201L247.902 289.701H247.802C247.702 290.101 240.202 309.601 240.402 311.801C240.602 314.001 241.802 327.201 242.602 328.101C243.402 328.901 251.602 333.701 251.602 333.701H259.302C259.302 333.701 259.402 332.401 258.102 331.001L264.402 328.101C264.402 328.101 265.202 325.301 262.502 324.501L265.302 322.701C265.602 322.801 264.502 320.601 262.302 320.901Z" fill="white"/>
<path d="M262.302 321L260.102 321.3H260.002V321.2C259.702 316.6 259.602 311.8 261.502 307.5C262.202 305.4 263.202 303.2 263.302 301C263.402 298.5 263.102 296 262.702 293.6C262.802 293.6 263.402 293.7 263.502 293.7L263.002 294.1C264.002 287.7 265.802 281.6 268.202 275.6L268.302 276.1C263.702 272 257.602 270.2 252.102 267.4L252.402 267.3C251.102 273.9 249.502 283.6 248.302 290.3H248.002H247.902L248.202 290C245.702 297.2 242.802 304.2 241.102 311.5C241.402 316.2 242.002 321.6 242.802 326.2C242.902 326.7 243.002 327.2 243.102 327.6C243.002 327.7 243.602 328.1 244.002 328.4C244.902 329 245.702 329.5 246.602 330.1L252.002 333.4L251.702 333.3C254.302 333.3 256.802 333.4 259.402 333.4L259.002 333.8C259.002 332.7 258.402 331.8 257.702 331L258.102 330.8L264.502 328L264.402 328.1C264.802 326.5 264.102 325 262.402 324.6L262.602 324.5L265.402 322.8V322.9C264.902 321.7 263.702 320.7 262.302 321ZM262.302 320.8C263.702 320.5 265.102 321.5 265.702 322.8H265.602L262.802 324.6V324.4C264.502 324.8 265.202 326.7 264.802 328.3H264.702L258.402 331.4L258.502 330.9C259.302 331.8 259.902 332.9 259.802 334.2C257.102 334.3 254.402 334.3 251.702 334.3H251.602L251.502 334.2C248.502 332.5 245.502 330.8 242.702 328.9C242.402 328.7 242.002 328.3 242.002 328C240.802 322.8 240.502 317.5 240.002 312.3C239.902 310.7 240.602 309 241.002 307.5C242.902 301.5 245.202 295.6 247.502 289.8L247.602 289.5H247.802H247.902L247.502 289.8L249.802 278.5C250.602 274.7 251.302 270.8 252.102 266.9C257.602 269.8 263.902 271.5 268.802 275.4L269.002 275.6L268.902 275.9C266.802 281.9 265.102 288.1 263.902 294.3L263.802 294.8C263.702 294.8 263.302 294.7 263.202 294.7L263.702 294.1C264.002 296.4 264.202 298.7 264.002 301.1C263.802 303.5 262.702 305.6 261.902 307.8C259.802 312 259.802 316.7 260.102 321.3L260.002 321.2L262.302 320.8Z" fill="black"/>
<path d="M282.103 186.301C282.203 187.301 282.503 188.201 282.603 189.101L282.303 188.701C284.203 189.001 286.003 189.401 287.803 190.101C289.603 190.801 291.503 191.001 293.303 191.301L293.003 192.101C289.203 190.701 285.603 188.401 282.103 186.301ZM282.103 186.201C284.903 187.201 287.903 188.301 290.603 189.801C292.403 190.701 295.003 192.301 296.703 193.301C293.903 192.401 290.603 191.001 287.603 190.701C285.603 190.501 283.603 190.101 281.703 189.501C281.803 188.401 281.903 187.201 282.103 186.201Z" fill="black"/>
<path d="M263.205 293.201C263.205 293.201 263.205 293.301 263.305 293.501C263.305 293.701 263.405 294.001 263.405 294.401C263.505 295.201 263.705 296.301 263.805 297.701C263.905 298.401 263.905 299.201 264.005 300.101C264.005 301.001 264.005 302.001 263.705 302.901C263.105 304.901 262.205 306.901 261.205 309.201C260.405 313.501 259.505 318.401 258.505 323.601C258.305 324.701 258.005 325.801 257.305 326.601C256.905 327.001 256.405 327.301 255.905 327.501C255.405 327.601 254.805 327.601 254.305 327.401C253.305 327.101 252.505 326.301 252.005 325.401C251.505 324.501 251.405 323.501 251.405 322.501C251.405 320.601 251.905 318.901 252.105 317.201C252.305 315.601 252.405 314.001 252.405 312.601C252.405 309.801 252.105 307.501 251.805 306.001C251.705 305.201 251.505 304.601 251.405 304.201C251.305 303.801 251.305 303.601 251.305 303.601C251.305 303.601 251.405 303.801 251.505 304.201C251.605 304.601 251.805 305.201 251.905 306.001C252.205 307.501 252.605 309.801 252.705 312.701C252.705 314.101 252.705 315.701 252.505 317.301C252.305 319.001 251.905 320.701 251.905 322.501C251.905 323.401 252.005 324.401 252.505 325.201C253.005 326.001 253.705 326.701 254.605 327.001C255.505 327.301 256.605 327.101 257.205 326.301C257.805 325.501 258.105 324.501 258.305 323.501C259.305 318.301 260.205 313.301 261.105 309.101C262.105 306.901 263.005 304.801 263.605 302.901C263.905 302.001 263.905 301.001 263.905 300.201C263.905 299.301 263.805 298.501 263.805 297.801C263.705 296.401 263.605 295.201 263.505 294.401C263.505 294.001 263.405 293.701 263.405 293.501C263.205 293.301 263.205 293.201 263.205 293.201Z" fill="black"/>
<path d="M259.3 333.001C259.2 333.001 258.7 332.001 257.4 330.601C256.1 329.201 254.1 327.601 251.4 326.501C250.8 326.201 250 326.001 249.5 325.401C249 324.801 249 324.101 248.9 323.501C248.7 322.301 248.5 321.201 248.4 320.201C248.3 319.301 248.1 318.501 248.1 318.001C248 317.501 248 317.201 248 317.201C248 317.201 248.1 317.501 248.2 318.001C248.3 318.501 248.5 319.301 248.6 320.201C248.8 321.201 249 322.301 249.2 323.501C249.3 324.101 249.4 324.801 249.8 325.201C250.2 325.701 250.9 325.901 251.5 326.101C254.2 327.101 256.3 328.901 257.5 330.301C258.1 331.001 258.6 331.701 258.8 332.101C259.2 332.701 259.3 333.001 259.3 333.001Z" fill="black"/>
<path d="M248.299 311.201C248.399 311.101 248.999 312.401 248.899 314.001C248.799 315.701 248.099 316.801 248.099 316.801C247.999 316.801 248.499 315.601 248.499 314.001C248.599 312.501 248.199 311.301 248.299 311.201Z" fill="black"/>
<path d="M387.103 132.7C387.103 132.7 383.703 158.3 382.103 167.6C382.103 167.6 396.803 273.1 394.803 274.5C387.703 279.8 360.803 289.2 328.703 290.8C287.403 292.9 284.503 277.4 284.503 277.4L286.603 237.2C286.603 237.2 285.003 176.8 283.803 169.5C282.103 159 290.603 132.1 290.603 132.1L307.203 123.6L356.303 121.5L387.103 132.7Z" fill="url(#colorOne)"/>
<path d="M288.603 133.9C288.603 133.9 268.503 141 263.303 159.8C259.703 173 241.703 291.3 241.703 291.3L264.603 293.7L292.003 189L288.603 133.9Z" fill="url(#colorOne)"/>
<g opacity="0.46">
<path d="M294.102 130.301C294.102 130.301 303.202 148.801 319.102 154.301C333.002 159.101 343.802 157.901 343.802 157.901C343.802 157.901 338.402 164.001 340.902 165.701C343.402 167.401 367.902 164.101 375.402 155.201L370.102 147.101C370.102 147.101 339.802 155.801 323.002 147.001C306.402 138.201 294.102 130.301 294.102 130.301Z" fill="url(#colorOne)"/>
</g>
<path d="M357.602 230.6C357.602 230.6 357.402 230.7 357.102 230.8C356.802 231 356.302 231.2 355.802 231.4C354.602 232 352.902 232.7 350.802 233.6C348.702 234.5 346.102 235.5 343.202 236.5C340.302 237.5 337.102 238.5 333.702 239.4C330.302 240.3 327.002 241 324.002 241.6C321.002 242.2 318.302 242.6 316.002 242.9C313.702 243.2 311.802 243.4 310.602 243.5C310.002 243.5 309.502 243.6 309.102 243.6C308.802 243.6 308.602 243.6 308.602 243.6C308.602 243.6 308.802 243.6 309.102 243.5C309.502 243.5 310.002 243.4 310.602 243.3C311.902 243.2 313.702 242.9 316.002 242.6C318.302 242.3 321.002 241.8 324.002 241.2C327.002 240.6 330.302 239.9 333.702 239C337.102 238.1 340.302 237.1 343.202 236.1C346.102 235.1 348.702 234.2 350.802 233.3C352.902 232.5 354.702 231.7 355.902 231.2C356.502 231 356.902 230.8 357.302 230.6C357.402 230.7 357.602 230.6 357.602 230.6Z" fill="black"/>
<path d="M363.402 275.4C363.402 275.4 360.002 277.3 354.202 279.6C353.502 279.9 352.702 280.2 351.902 280.5C351.102 280.8 350.202 281 349.402 281.3C347.702 281.9 345.702 282.4 343.802 282.9C339.802 283.9 335.302 284.8 330.502 285.3C325.702 285.8 321.202 285.9 317.002 285.8C314.902 285.7 313.002 285.6 311.102 285.4C310.202 285.3 309.302 285.2 308.402 285.1C307.602 285 306.702 284.9 306.002 284.7C299.802 283.7 296.102 282.5 296.102 282.5C296.102 282.5 296.202 282.5 296.302 282.5C296.402 282.5 296.602 282.6 296.802 282.6C297.302 282.7 297.902 282.9 298.802 283C299.202 283.1 299.702 283.2 300.202 283.3C300.702 283.4 301.302 283.5 301.902 283.6C303.102 283.8 304.502 284.1 306.102 284.3C306.902 284.4 307.702 284.5 308.502 284.6C309.302 284.7 310.202 284.8 311.102 284.9C312.902 285.1 314.902 285.2 316.902 285.3C321.002 285.4 325.602 285.3 330.302 284.8C335.002 284.3 339.502 283.4 343.502 282.5C345.502 282 347.402 281.5 349.102 280.9C350.002 280.6 350.802 280.4 351.602 280.1C352.402 279.8 353.202 279.5 353.902 279.3C355.402 278.8 356.702 278.2 357.802 277.7C358.402 277.5 358.902 277.2 359.402 277C359.902 276.8 360.302 276.6 360.702 276.4C361.502 276 362.102 275.8 362.502 275.6C362.702 275.5 362.902 275.4 363.002 275.4C363.302 275.4 363.402 275.4 363.402 275.4Z" fill="black"/>
<path d="M346.496 90.1005C348.196 90.2005 356.996 89.1005 354.896 79.7005C352.796 70.7005 345.496 73.7005 343.496 74.8005L341.296 63.6005C338.496 47.6005 326.896 35.8005 310.896 39.0005L309.396 39.4005C294.696 43.3005 285.496 57.7005 288.196 72.6005C290.696 86.5005 293.596 101.801 295.596 109.101C299.796 124.201 315.496 122.501 315.496 122.501C315.596 123.001 316.396 126.801 317.296 131.301C319.196 140.901 325.496 153.601 339.896 152.501C356.296 150.001 355.396 134.401 353.396 124.101L346.496 90.1005Z" fill="white"/>
<path d="M338.498 153.201C332.898 153.201 320.598 150.901 316.698 131.501C315.698 126.301 315.198 124.001 314.998 123.201C312.198 123.301 298.798 123.101 294.998 109.301C293.298 103.201 290.798 90.9009 287.598 72.8009C284.898 57.7009 294.398 42.8009 309.298 38.9009L310.798 38.5009C317.598 37.1009 323.898 38.3009 329.298 42.0009C335.698 46.4009 340.298 54.3009 341.998 63.6009L344.098 74.0009C345.798 73.2009 348.798 72.3009 351.498 73.5009C353.598 74.4009 354.998 76.5009 355.698 79.7009C356.498 83.0009 355.998 85.7009 354.298 87.7009C352.298 90.1009 349.098 90.7009 347.498 90.8009L354.198 124.201C356.198 134.301 355.498 141.701 351.998 146.701C349.498 150.301 345.498 152.501 340.198 153.301C339.498 153.201 338.998 153.201 338.498 153.201ZM315.898 121.901L315.998 122.401C316.098 122.801 316.698 125.801 317.798 131.301C318.798 136.501 323.498 153.301 339.798 152.001C344.698 151.201 348.398 149.201 350.798 145.901C354.098 141.201 354.698 134.201 352.798 124.401L345.798 89.6009H346.598C347.398 89.7009 351.098 89.3009 353.198 86.9009C354.598 85.2009 354.998 82.9009 354.298 79.9009C353.698 77.1009 352.498 75.3009 350.698 74.5009C347.998 73.3009 344.598 74.8009 343.698 75.3009L342.998 75.7009L340.598 63.7009C338.998 54.7009 334.598 47.1009 328.398 42.9009C323.298 39.4009 317.298 38.3009 310.898 39.6009L309.498 40.0009C295.198 43.8009 286.098 58.1009 288.698 72.6009C291.898 90.7009 294.398 103.001 296.098 109.001C300.098 123.401 314.698 122.101 315.398 122.001L315.898 121.901Z" fill="black"/>
<path d="M315.5 122.602C315.5 122.602 325.2 120.702 333.6 111.602C333.6 111.602 331.7 123.902 316.3 126.502L315.5 122.602Z" fill="black"/>
<path d="M312.4 93.1004C312.4 93.0004 310.9 93.1004 308.5 93.4004C307.9 93.5004 307.3 93.5004 307.1 93.1004C306.8 92.7004 306.9 92.0004 307 91.2004C307.2 89.6004 307.4 88.0004 307.6 86.2004C308.3 79.1004 308.7 73.4004 308.4 73.4004C308.1 73.4004 307.3 79.1004 306.5 86.1004C306.3 87.8004 306.2 89.5004 306 91.1004C306 91.8004 305.8 92.7004 306.3 93.5004C306.6 93.9004 307.1 94.1004 307.5 94.1004C307.9 94.1004 308.2 94.0004 308.5 94.0004C310.9 93.6004 312.4 93.2004 312.4 93.1004Z" fill="black"/>
<path d="M321.5 66.6007C321 66.2007 319.3 67.4007 317 68.3007C314.7 69.2007 312.6 69.5007 312.5 70.1007C312.5 70.4007 313.1 70.7007 314 70.9007C315 71.0007 316.4 70.9007 317.8 70.4007C319.2 69.8007 320.3 69.0007 320.9 68.2007C321.5 67.4007 321.7 66.8007 321.5 66.6007Z" fill="black"/>
<path d="M301.195 72.5008C300.895 72.0008 298.895 72.7008 296.395 72.9008C293.895 73.2008 291.895 72.9008 291.695 73.4008C291.595 73.6008 291.995 74.0008 292.895 74.4008C293.795 74.7008 295.095 74.9008 296.595 74.8008C298.095 74.6008 299.395 74.2008 300.195 73.7008C300.995 73.2008 301.295 72.7008 301.195 72.5008Z" fill="black"/>
<path d="M348.5 85.4006C348.5 85.4006 348.7 85.5006 349 85.6006C349.3 85.7006 349.9 85.6006 350.4 85.3006C351.4 84.6006 351.9 82.7006 351.6 80.8006C351.4 79.8006 351 79.0006 350.5 78.3006C350 77.6006 349.4 77.2006 348.8 77.2006C348.2 77.2006 347.9 77.6006 347.8 77.9006C347.7 78.2006 347.8 78.4006 347.8 78.4006C347.8 78.4006 347.5 78.3006 347.5 77.8006C347.5 77.6006 347.6 77.3006 347.8 77.1006C348 76.8006 348.3 76.7006 348.7 76.6006C349.5 76.5006 350.4 77.0006 351 77.8006C351.6 78.5006 352.1 79.5006 352.3 80.6006C352.7 82.7006 352.1 84.9006 350.7 85.7006C350 86.1006 349.3 86.0006 349 85.8006C348.6 85.7006 348.5 85.4006 348.5 85.4006Z" fill="black"/>
<path d="M308.302 71.7012C308.402 71.7012 308.402 72.0012 308.602 72.4012C308.802 72.8012 309.202 73.4012 309.702 73.8012C310.302 74.2012 310.902 74.4012 311.402 74.5012C311.902 74.6012 312.202 74.5012 312.202 74.6012C312.202 74.6012 311.902 74.8012 311.402 74.8012C310.902 74.8012 310.202 74.7012 309.502 74.2012C308.802 73.7012 308.502 73.1012 308.302 72.6012C308.202 72.0012 308.302 71.7012 308.302 71.7012Z" fill="black"/>
<path d="M303 75.1004C303 75.0004 303.3 75.0004 303.6 74.9004C304 74.8004 304.5 74.5004 304.9 74.0004C305.3 73.5004 305.4 73.0004 305.5 72.6004C305.6 72.2004 305.5 71.9004 305.6 71.9004C305.6 71.9004 305.8 72.1004 305.8 72.6004C305.8 73.0004 305.7 73.7004 305.2 74.2004C304.7 74.7004 304.1 75.0004 303.7 75.1004C303.3 75.3004 303 75.2004 303 75.1004Z" fill="black"/>
<path d="M297.398 68.0002C297.398 67.9002 298.398 67.9002 299.898 67.7002C301.498 67.5002 303.598 67.2002 305.898 66.5002C308.198 65.8002 310.198 65.0002 311.598 64.3002C312.998 63.6002 313.798 63.1002 313.898 63.2002C313.898 63.2002 313.698 63.4002 313.398 63.6002C312.998 63.9002 312.498 64.2002 311.798 64.6002C310.398 65.4002 308.398 66.3002 306.098 66.9002C303.798 67.6002 301.598 67.9002 299.998 68.0002C299.198 68.0002 298.598 68.1002 298.098 68.0002C297.698 68.0002 297.398 68.0002 297.398 68.0002Z" fill="black"/>
<path d="M375.402 114.001C371.002 111.901 360.502 115.801 359.202 116.901C357.902 118.001 341.902 122.901 341.902 122.901L289.302 103.401C287.902 102.901 286.502 102.501 285.102 102.201C282.802 101.701 279.302 101.001 277.802 101.001C275.502 101.001 261.202 97.6015 259.502 97.8015C257.802 98.0015 253.302 98.7015 253.302 98.7015C253.302 98.7015 247.602 106.501 248.302 110.201C248.902 113.901 249.502 114.601 249.502 114.601C249.502 114.601 249.602 116.301 252.102 117.401L255.002 118.701C255.002 118.701 254.002 119.401 254.402 120.501C254.802 121.601 255.302 122.901 259.502 122.501H262.902L263.502 121.801C263.502 121.801 268.602 121.701 269.302 121.401C269.902 121.101 277.502 120.501 279.202 116.201L281.002 117.001C281.002 117.001 298.402 134.001 306.302 140.401C314.202 146.801 327.102 151.801 336.502 153.701C345.902 155.601 379.402 144.301 380.002 144.101C380.002 144.101 385.102 142.201 386.202 136.601C387.002 131.001 383.002 117.701 375.402 114.001Z" fill="white"/>
<path d="M375.305 114.102C370.705 112.302 362.705 115.002 358.505 117.502C353.005 119.802 347.305 121.702 341.605 123.302C327.005 118.102 312.505 112.802 298.005 107.402C294.405 106.102 290.805 104.602 287.205 103.402C283.505 102.302 279.705 101.702 275.905 101.302C272.105 100.602 268.305 99.7016 264.505 99.0016C262.605 98.7016 260.705 98.1017 258.805 98.3017L253.105 99.1016C252.005 100.902 249.905 104.002 249.005 106.502C248.505 107.802 248.005 109.202 248.305 110.602C248.605 111.902 248.805 113.502 249.405 114.702C249.605 115.802 250.505 116.802 251.605 117.202C251.905 117.302 255.105 118.702 255.305 118.802C254.705 119.202 254.105 119.902 254.405 120.602C254.905 122.802 257.405 122.602 259.205 122.402H262.605L262.405 122.502C262.505 122.402 263.005 121.802 263.105 121.702C265.305 121.602 267.505 121.702 269.705 121.102C273.005 120.402 277.105 119.502 278.605 116.202L278.805 115.802L279.205 116.002L281.005 116.802L281.105 116.902C290.105 125.302 298.805 134.302 308.605 141.802C313.605 145.302 319.305 147.902 325.005 150.102C330.005 151.802 335.205 153.902 340.505 153.502C347.405 152.902 354.205 151.202 360.905 149.502C366.905 147.902 372.805 146.202 378.705 144.302C381.605 143.502 384.005 141.202 385.105 138.402C387.705 130.802 382.305 117.602 375.305 114.102ZM375.405 114.002C382.505 117.502 388.005 131.002 385.605 138.402C384.505 141.402 382.005 143.802 378.905 144.802C367.105 148.702 355.205 152.502 342.905 154.302C341.605 154.502 339.505 154.502 338.205 154.602C333.505 154.202 329.005 152.602 324.505 151.102C318.705 148.902 313.005 146.202 307.805 142.602C298.005 135.002 289.305 126.002 280.405 117.402L280.505 117.502L278.705 116.702L279.305 116.502C277.505 120.302 273.005 121.102 269.305 121.802C267.305 122.202 265.205 122.102 263.305 122.202L263.505 122.102L262.905 122.802L262.805 122.902H262.705H259.305C258.105 123.002 256.405 123.102 255.205 122.402C254.205 121.802 253.605 120.502 254.005 119.502C254.205 119.102 254.405 118.802 254.705 118.602V119.102C252.905 118.202 249.305 117.402 249.105 114.802V114.902C248.705 114.202 248.605 113.502 248.405 112.802C248.105 111.402 247.705 109.902 248.005 108.402C248.905 104.802 251.005 101.702 253.005 98.7016H253.105L258.805 97.8017C259.805 97.6017 260.805 97.9016 261.705 98.0016C266.505 98.8016 271.205 99.9016 275.905 100.602C279.805 100.902 283.605 101.502 287.405 102.502C290.605 103.502 295.105 105.302 298.305 106.402C312.805 111.702 327.305 117.102 341.705 122.702C343.405 122.002 347.505 121.002 349.905 120.102C353.405 118.902 357.005 118.002 360.105 116.102C362.105 115.202 364.205 114.502 366.405 114.002C369.505 113.402 372.605 112.802 375.405 114.002Z" fill="black"/>
<path d="M254.403 102.402C254.503 102.402 254.603 103.302 255.103 104.602C255.603 105.902 256.703 107.702 258.403 109.002C260.103 110.302 262.103 110.902 263.503 111.002C264.903 111.202 265.803 111.002 265.803 111.102C265.803 111.102 265.603 111.202 265.203 111.202C264.803 111.302 264.203 111.302 263.503 111.202C262.003 111.102 260.003 110.602 258.203 109.202C256.403 107.802 255.303 106.002 254.803 104.602C254.603 103.902 254.403 103.302 254.403 102.902C254.303 102.602 254.303 102.402 254.403 102.402Z" fill="black"/>
<path d="M265.002 119.501C265.002 119.501 264.602 119.201 264.302 118.401C264.002 117.701 263.802 116.601 264.002 115.401C264.202 114.201 264.902 113.301 265.402 112.701C266.002 112.101 266.402 111.901 266.402 112.001C266.402 112.101 266.102 112.301 265.602 112.901C265.102 113.501 264.602 114.401 264.402 115.501C264.202 116.601 264.302 117.601 264.502 118.401C264.802 119.101 265.102 119.501 265.002 119.501Z" fill="black"/>
<path d="M261.305 118.701C261.305 118.701 261.605 118.701 261.905 118.901C262.205 119.101 262.705 119.501 262.905 120.101C263.205 120.701 263.205 121.201 263.105 121.601C263.105 122.001 262.905 122.201 262.905 122.201C262.805 122.201 263.005 121.201 262.505 120.201C262.105 119.201 261.205 118.801 261.305 118.701Z" fill="black"/>
<path d="M254.508 118.601C254.508 118.501 255.208 118.701 256.208 118.801C257.208 118.901 258.708 118.901 260.308 118.501C261.108 118.301 261.808 118.001 262.308 117.601C262.808 117.201 263.208 116.701 263.508 116.301C264.008 115.401 264.008 114.701 264.108 114.701C264.108 114.701 264.308 115.401 263.808 116.401C263.508 116.901 263.108 117.401 262.608 117.901C262.008 118.401 261.308 118.701 260.508 118.901C258.908 119.301 257.408 119.201 256.308 119.101C255.108 118.801 254.508 118.601 254.508 118.601Z" fill="black"/>
<path d="M250.008 116.402C250.008 116.302 250.908 116.602 252.208 116.902C253.608 117.202 255.508 117.502 257.608 117.102C258.608 116.902 259.608 116.502 260.308 115.902C261.008 115.402 261.608 114.702 261.908 114.202C262.608 113.002 262.708 112.102 262.708 112.102C262.708 112.102 262.708 112.302 262.708 112.702C262.608 113.102 262.508 113.702 262.108 114.302C261.708 114.902 261.208 115.602 260.408 116.202C259.608 116.802 258.708 117.202 257.608 117.502C255.408 118.002 253.408 117.602 252.108 117.202C250.808 116.802 250.008 116.502 250.008 116.402Z" fill="black"/>
<path d="M249.105 113.502C249.105 113.502 249.205 113.702 249.405 113.902C249.605 114.202 250.005 114.402 250.605 114.602C251.205 114.702 252.005 114.802 252.805 115.002C253.605 115.102 254.505 115.302 255.505 115.502C256.005 115.502 256.405 115.502 256.805 115.302C257.105 115.102 257.405 114.802 257.605 114.402C258.005 113.702 258.505 113.102 258.805 112.602C259.505 111.602 260.005 110.902 260.005 111.002C260.005 111.102 259.705 111.702 259.005 112.802C258.605 113.402 258.305 114.002 257.805 114.702C257.605 115.002 257.305 115.502 256.905 115.702C256.405 116.002 255.905 116.002 255.405 115.902C254.405 115.802 253.505 115.602 252.705 115.402C251.905 115.202 251.105 115.102 250.505 114.902C249.905 114.702 249.405 114.402 249.205 114.002C249.005 113.702 249.005 113.502 249.105 113.502Z" fill="black"/>
<path d="M255.208 106.801C255.208 106.801 255.508 107.101 255.408 107.901C255.308 108.301 255.108 108.701 254.708 109.001C254.308 109.301 253.608 109.401 253.008 109.101L253.208 108.801C253.608 109.201 253.808 109.801 253.608 110.401L253.308 110.201C253.608 110.001 254.008 110.001 254.208 110.101C254.508 110.201 254.708 110.501 254.808 110.801C254.808 110.901 254.908 111.001 254.908 111.101H254.508C254.908 110.101 255.708 109.501 256.508 109.201C257.308 108.901 258.108 109.101 258.708 109.401C259.308 109.701 259.608 110.101 259.808 110.301C260.008 110.601 260.108 110.801 260.008 110.801C259.908 110.901 259.608 110.101 258.508 109.601C258.008 109.401 257.208 109.301 256.508 109.501C255.808 109.701 255.108 110.301 254.808 111.201L254.608 111.701L254.408 111.201C254.408 111.101 254.308 111.001 254.308 110.901C254.208 110.701 254.108 110.501 253.908 110.401C253.708 110.301 253.508 110.301 253.408 110.401L252.908 110.901L253.108 110.201C253.208 109.801 253.108 109.301 252.808 109.001L252.008 108.201L253.008 108.701C253.508 108.901 254.008 108.901 254.408 108.701C254.808 108.501 255.008 108.101 255.108 107.801C255.408 107.201 255.108 106.801 255.208 106.801Z" fill="black"/>
<path d="M250.105 106.302C250.205 106.202 250.905 106.702 251.705 107.402C252.505 108.102 253.105 108.802 253.105 108.802C253.005 108.902 252.305 108.402 251.505 107.702C250.605 107.102 250.005 106.402 250.105 106.302Z" fill="black"/>
<path d="M249.908 112.102C249.808 112.002 250.508 111.402 251.508 111.002C252.508 110.502 253.408 110.402 253.408 110.502C253.408 110.602 252.608 110.902 251.708 111.302C250.708 111.802 250.008 112.202 249.908 112.102Z" fill="black"/>
<path d="M254.501 113.902C254.401 113.902 254.301 113.202 254.401 112.402C254.401 111.602 254.601 110.902 254.701 110.902C254.801 110.902 254.901 111.602 254.801 112.402C254.701 113.202 254.601 113.902 254.501 113.902Z" fill="black"/>
<path d="M271.708 111.101C271.808 111.001 273.808 112.401 276.208 114.101C277.408 114.901 278.608 115.701 279.408 116.201C280.208 116.701 280.808 117.001 280.808 117.001C280.808 117.001 280.208 116.901 279.308 116.401C278.408 116.001 277.208 115.201 276.008 114.401C274.808 113.501 273.708 112.701 272.908 112.101C272.108 111.501 271.608 111.101 271.708 111.101Z" fill="black"/>
<path d="M295.5 130.1C287.8 135.2 279.6 140 272.2 145.5C269.7 147.5 268.7 151.2 267.5 154.2C265.4 160.2 263.9 166.5 262.4 172.8C255.5 204 250.7 237.1 245.5 268.7C247.1 249.3 249.3 229.9 252.2 210.6C254.1 197.7 256.3 184.9 259.1 172.1C260.5 165.7 262.1 159.4 264.3 153.1C265.6 149.8 266.6 146.7 269.1 143.9C269.7 143.2 270.6 142.7 271.3 142.2C278.9 137.1 287.1 133.2 295.5 130.1Z" fill="black"/>
<path d="M339.905 122C342.005 121.8 343.805 120.5 345.705 119.7L351.405 116.8C356.205 114.4 361.205 111.9 366.505 110.7C374.605 109 383.205 113.5 386.705 120.9C388.605 125.2 388.305 129.8 387.905 134.3C386.705 145 384.105 155.4 383.005 166.1C383.105 176.8 385.205 187.3 386.405 197.9C388.605 214.6 391.005 232.2 392.705 248.9C396.105 282.2 395.905 283.7 389.905 249.3C385.805 223.9 382.605 198.3 381.805 172.5C381.705 169.3 381.705 165.9 382.305 162.8C383.805 153.3 384.905 143.7 385.305 134.1C385.405 130.1 385.505 125.8 384.005 122.1C381.105 115.9 373.805 111.9 367.005 113.1C359.805 114.5 353.005 118 346.105 120.6C344.005 121.3 342.005 122.4 339.805 122.3C339.705 122.3 339.605 122.2 339.705 122.1C339.705 122 339.805 122 339.905 122Z" fill="black"/>
<path d="M283.805 169.5C285.105 180.6 286.005 192 286.905 203.1C287.605 209.8 288.005 216.6 288.205 223.4C288.405 230.2 288.405 237.1 287.605 243.8L287.005 250.5C286.205 259.5 285.505 268.4 284.505 277.4C284.405 268.4 284.605 259.4 284.905 250.4C285.405 241.4 286.005 232.5 285.505 223.5C285.405 217 284.905 209.8 284.605 203.3C284.205 192.1 283.805 180.7 283.805 169.5Z" fill="black"/>
<path d="M386.5 125C384.4 115.7 373.7 106.8 357.7 114.9C341.8 123 340 122.1 340 122.1L291.2 102L278.5 119.4L326 157.4C324.6 157.7 373.1 160.4 380.2 151C383.2 147 389 135.8 386.5 125Z" fill="url(#colorOne)"/>
<path d="M341.903 147C341.803 147 342.303 146.4 342.903 145.3C343.203 144.7 343.403 144.1 343.603 143.3C343.703 142.5 343.803 141.6 343.803 140.7C343.703 139.8 343.503 138.9 343.303 138.1C343.003 137.3 342.703 136.7 342.403 136.2C341.703 135.2 341.203 134.7 341.203 134.6C341.203 134.6 341.403 134.7 341.603 134.9C341.703 135 341.903 135.2 342.103 135.4C342.303 135.6 342.503 135.8 342.603 136.1C343.003 136.6 343.303 137.3 343.603 138.1C343.903 138.9 344.103 139.8 344.203 140.8C344.303 141.8 344.203 142.7 344.003 143.5C343.803 144.3 343.503 145 343.203 145.6C343.103 145.9 342.903 146.1 342.803 146.3C342.703 146.5 342.503 146.7 342.403 146.8C342.003 146.9 341.903 147 341.903 147Z" fill="black"/>
<path d="M278.203 119C289.603 127.3 299.503 137.3 311.103 145.2C317.303 149.4 323.203 154.3 330.103 157.2C336.403 158.3 342.803 157.5 349.203 157.3C353.903 157 358.503 156.6 363.203 156.1C367.803 155.6 372.503 155.2 377.103 154.6C368.503 156.3 358.403 157.2 349.303 158.1C344.603 158.5 340.003 158.8 335.303 158.7C332.903 158.6 330.403 158.6 328.203 157.6C321.803 154.6 316.203 150.1 310.703 145.9C299.903 136.8 287.603 128.8 278.203 119Z" fill="black"/>
<path d="M288.398 111.3C288.398 111.2 292.598 109.5 297.998 107.5C303.298 105.5 307.698 104 307.698 104.1C307.698 104.2 303.498 105.9 298.098 107.9C292.798 109.8 288.398 111.4 288.398 111.3Z" fill="black"/>
<path d="M295.596 119C295.496 118.9 298.796 116.3 302.796 113.2C306.796 110.1 310.196 107.6 310.296 107.7C310.396 107.8 307.096 110.4 303.096 113.5C298.996 116.6 295.596 119.1 295.596 119Z" fill="black"/>
<path d="M306.195 125.4C306.195 125.4 306.295 125.1 306.495 124.7C306.695 124.3 306.995 123.7 307.395 122.9C308.195 121.4 309.295 119.4 310.695 117.2C311.995 115 313.295 113.1 314.195 111.7C314.695 111 315.095 110.5 315.295 110.1C315.595 109.7 315.695 109.5 315.795 109.5C315.795 109.5 315.295 110.4 314.395 111.8C313.495 113.3 312.295 115.2 310.995 117.4C309.695 119.5 308.595 121.5 307.595 123C306.795 124.6 306.195 125.4 306.195 125.4Z" fill="black"/>
<path d="M288.803 76.7005C289.203 78.8005 283.303 75.1005 284.003 56.2005C284.503 42.4005 305.003 33.4005 321.503 32.4005C326.203 32.1005 340.003 35.2005 345.203 43.7005C349.203 50.2005 354.203 69.1005 352.103 73.5005C351.303 75.1005 348.003 72.5005 346.603 73.5005C343.703 73.5005 342.703 75.8005 343.403 79.0005C344.003 81.6005 343.203 82.4005 342.203 82.7005C340.203 83.4005 336.303 77.2005 330.303 58.7005C328.203 52.4005 322.403 50.3005 318.703 50.3005C314.503 50.4005 306.403 57.9005 302.203 60.2005C298.003 62.4005 294.003 62.2005 290.103 60.0005C290.103 60.0005 287.203 68.0005 288.803 76.7005Z" fill="black"/>
<script type="text/ecmascript" xlink:href="https://www.argentina.gob.ar/profiles/argentinagobar/themes/contrib/poncho/js/w3c/ref2.js"></script></svg>
