<?xml version="1.0" encoding="utf-8"?>
<!-- Generator: Adobe Illustrator 24.2.1, SVG Export Plug-In . SVG Version: 6.00 Build 0)  -->
<svg version="1.1" id="Layer_1" xmlns="http://www.w3.org/2000/svg" xmlns:xlink="http://www.w3.org/1999/xlink" x="0px" y="0px"
	 viewBox="0 0 337.9 46.9" style="enable-background:new 0 0 337.9 46.9;" xml:space="preserve">
<style type="text/css">
	.st0{fill:#FFFFFF;}
</style>
<path d="M25.1,35.9l-2.9-8.7c-0.1-0.3-0.4-0.5-0.7-0.5H9.4c-0.3,0-0.6,0.2-0.7,0.5l-2.9,8.7c-0.1,0.3-0.3,0.5-0.7,0.5H0.7
	c-0.4,0-0.7-0.3-0.7-0.7c0-0.1,0-0.2,0.1-0.3L10.9,3.1c0.1-0.3,0.4-0.5,0.7-0.5h7.8c0.3,0,0.6,0.2,0.7,0.5l10.9,32.3
	c0.2,0.4,0,0.8-0.4,0.9c-0.1,0-0.2,0.1-0.3,0.1h-4.4C25.4,36.5,25.2,36.2,25.1,35.9z M11.4,21.8h8c0.4,0,0.7-0.3,0.7-0.7
	c0-0.1,0-0.2,0-0.3l-4-12.3C16,8.2,15.6,8,15.2,8.1c-0.2,0.1-0.4,0.3-0.5,0.5l-4,12.3c-0.1,0.4,0.1,0.8,0.4,1
	C11.3,21.8,11.4,21.8,11.4,21.8z"/>
<path d="M35.4,11.5H39c0.4,0,0.7,0.3,0.7,0.6l0.4,2.6h0.3c0.7-1.1,1.7-2,2.8-2.6c1.2-0.6,2.6-0.9,4-0.9c0.4,0,0.9,0,1.3,0.1
	c0.4,0,0.6,0.4,0.6,0.7v4c0,0.4-0.3,0.7-0.7,0.7c0,0-0.1,0-0.1,0c-0.5,0-1-0.1-1.5-0.1c-1.2,0-2.4,0.2-3.5,0.7c-1,0.4-1.9,1-2.5,1.9
	c-0.1,0.1-0.2,0.3-0.2,0.5v16c0,0.4-0.3,0.7-0.7,0.7h-4.5c-0.4,0-0.7-0.3-0.7-0.7V12.3C34.7,11.9,35,11.5,35.4,11.5z"/>
<path d="M56.4,46.7c-1.1-0.1-2.3-0.4-3.4-0.6c-0.3-0.1-0.5-0.4-0.5-0.7v-3.2c0-0.4,0.3-0.7,0.7-0.7c0.1,0,0.1,0,0.2,0
	c2.2,0.6,4.4,0.9,6.6,0.9c1.4,0,2.8-0.2,4.1-0.7c1-0.4,1.9-1.1,2.4-2.1c0.6-1.2,0.8-2.5,0.8-3.8v-2H67c-0.8,0.9-1.7,1.6-2.8,2.1
	c-1.2,0.5-2.5,0.8-3.8,0.8c-1.7,0-3.4-0.4-4.8-1.3c-1.5-1-2.7-2.3-3.5-4c-0.9-2.2-1.4-4.5-1.3-6.9c0-4.4,1.1-7.7,3.4-10
	s5.7-3.4,10.2-3.4c1.5,0,3.1,0.1,4.6,0.3c1.3,0.2,2.5,0.4,3.8,0.8c0.3,0.1,0.5,0.4,0.5,0.7v21.7c0.1,2.4-0.4,4.8-1.4,7
	c-0.9,1.8-2.4,3.2-4.2,4c-2.3,0.9-4.7,1.3-7.2,1.3C59.1,46.9,57.8,46.8,56.4,46.7z M65.2,31.2c0.7-0.3,1.4-0.7,1.9-1.3
	c0.1-0.1,0.2-0.3,0.2-0.5V16.8c0-0.4-0.3-0.7-0.6-0.7c-0.9-0.2-1.9-0.3-2.8-0.3c-2-0.1-3.9,0.6-5.3,2c-1.2,1.3-1.8,3.4-1.8,6.3
	s0.5,4.8,1.5,6c1.1,1.2,2.6,1.8,4.2,1.8C63.5,31.8,64.4,31.6,65.2,31.2z"/>
<path d="M98.7,25.8H84.8c-0.4,0-0.7,0.3-0.7,0.8c0,0,0,0.1,0,0.1c0.1,1,0.4,2.1,0.8,3c0.5,1,1.4,1.7,2.5,2.1
	c1.4,0.5,2.9,0.7,4.4,0.6c1.8,0,3.6-0.2,5.3-0.6c0.4-0.1,0.8,0.2,0.9,0.6c0,0,0,0.1,0,0.1v3c0,0.3-0.2,0.6-0.6,0.7
	c-2.1,0.5-4.3,0.8-6.5,0.8c-2.5,0.1-5-0.4-7.3-1.3c-1.9-0.9-3.4-2.3-4.3-4.2c-1-2.3-1.5-4.8-1.4-7.4c-0.1-2.4,0.4-4.8,1.3-7
	c0.8-1.8,2.1-3.3,3.8-4.3c1.8-1,3.9-1.5,6-1.5c3.4,0,6,1.1,7.7,3.3c1.8,2.2,2.6,5.4,2.6,9.7v0.9C99.5,25.5,99.1,25.8,98.7,25.8
	C98.7,25.8,98.7,25.8,98.7,25.8z M85.3,16.7c-0.9,1.4-1.3,3.1-1.3,4.8c0,0.4,0.3,0.7,0.7,0.8c0,0,0,0,0,0h8.3c0.4,0,0.7-0.3,0.7-0.7
	c0,0,0,0,0,0c0-1.7-0.4-3.3-1.2-4.7c-0.8-1.1-2.2-1.7-3.6-1.6C87.6,15,86.2,15.6,85.3,16.7z"/>
<path d="M104.6,11.5h3.6c0.4,0,0.7,0.3,0.7,0.6l0.3,2h0.3c0.9-1,2.1-1.7,3.3-2.2c1.3-0.5,2.7-0.8,4.1-0.8c2.3-0.1,4.5,0.7,6.1,2.3
	c1.5,1.5,2.2,3.9,2.2,7.2v15.1c0,0.4-0.3,0.7-0.7,0.7h-4.5c-0.4,0-0.7-0.3-0.7-0.7V20.9c0.1-1.3-0.2-2.5-1-3.5
	c-0.8-0.8-1.9-1.1-3.1-1.1c-1,0-2.1,0.2-3,0.6c-0.9,0.4-1.7,1-2.3,1.7c-0.1,0.1-0.2,0.3-0.2,0.5v16.6c0,0.4-0.3,0.7-0.7,0.8h-4.5
	c-0.4,0-0.7-0.3-0.7-0.7c0,0,0,0,0,0V12.3C104,11.9,104.3,11.6,104.6,11.5z"/>
<path d="M145.9,32.5v3.3c0,0.3-0.2,0.6-0.6,0.7c-1.2,0.2-2.5,0.4-3.7,0.4c-5.9,0-8.9-3-8.9-8.9V17c0-0.4-0.3-0.7-0.7-0.7h-2.8
	c-0.4,0-0.7-0.3-0.7-0.7l0,0v-3.3c0-0.4,0.3-0.7,0.7-0.7l0,0h2.9c0.4,0,0.7-0.3,0.7-0.6l0.9-7.6c0-0.4,0.4-0.6,0.7-0.6h3.6
	c0.4,0,0.7,0.3,0.7,0.7c0,0,0,0,0,0v7.4c0,0.4,0.3,0.7,0.7,0.7h5.5c0.4,0,0.7,0.3,0.7,0.7c0,0,0,0,0,0v3.3c0,0.4-0.3,0.7-0.7,0.7
	c0,0,0,0,0,0h-5.5c-0.4,0-0.7,0.3-0.7,0.7v10c0,1,0.1,2,0.5,2.9c0.3,0.7,0.8,1.2,1.4,1.5c0.8,0.3,1.7,0.5,2.5,0.5
	c0.6,0,1.3-0.1,1.9-0.2C145.5,31.7,145.9,32,145.9,32.5C145.9,32.4,145.9,32.4,145.9,32.5z"/>
<path d="M149.9,6.5c-0.7-0.6-1-1.5-0.9-2.4c-0.1-0.9,0.3-1.8,0.9-2.4c1.7-1.1,4-1.1,5.7,0c0.7,0.6,1,1.5,0.9,2.4
	c0.1,0.9-0.3,1.8-0.9,2.4C153.8,7.6,151.6,7.6,149.9,6.5z M149.7,35.7V12.3c0-0.4,0.3-0.7,0.7-0.7c0,0,0,0,0,0h4.5
	c0.4,0,0.7,0.3,0.7,0.7v23.4c0,0.4-0.3,0.7-0.7,0.7h-4.5C150,36.4,149.7,36.1,149.7,35.7L149.7,35.7z"/>
<path d="M162.4,11.5h3.6c0.4,0,0.7,0.3,0.7,0.6l0.3,2h0.3c0.9-1,2.1-1.7,3.3-2.2c1.3-0.5,2.7-0.8,4.1-0.8c2.3-0.1,4.5,0.7,6.1,2.3
	c1.5,1.5,2.2,3.9,2.2,7.2v15.1c0,0.4-0.3,0.7-0.7,0.7h-4.5c-0.4,0-0.7-0.3-0.7-0.7V20.9c0.1-1.3-0.3-2.5-1.1-3.5
	c-0.8-0.7-1.9-1.1-3-1.1c-1,0-2.1,0.2-3,0.6c-0.9,0.4-1.7,1-2.3,1.7c-0.1,0.1-0.2,0.3-0.2,0.5v16.6c0,0.4-0.3,0.7-0.7,0.7h-4.5
	c-0.4,0-0.7-0.3-0.7-0.7V12.3C161.7,11.9,162,11.6,162.4,11.5z"/>
<path d="M203.3,12.1c1.5,0.6,2.8,1.7,3.5,3.1c0.9,1.8,1.2,3.9,1.1,5.9v14.6c0,0.4-0.3,0.7-0.7,0.8c0,0,0,0,0,0h-3.6
	c-0.4,0-0.7-0.3-0.7-0.6l-0.3-2h-0.4c-0.7,1-1.7,1.8-2.9,2.2c-1.2,0.5-2.6,0.8-3.9,0.8c-1.5,0-2.9-0.3-4.2-0.9
	c-1.1-0.5-2.1-1.4-2.7-2.5c-0.6-1.1-1-2.4-0.9-3.7c-0.1-2.1,0.8-4.1,2.4-5.3c1.6-1.3,4.1-2,7.5-2.3l4.6-0.4v-1c0.1-1-0.2-2.1-0.6-3
	c-0.4-0.7-1.1-1.3-1.9-1.5c-1.1-0.3-2.3-0.5-3.4-0.5c-2,0-3.9,0.3-5.8,0.8c-0.4,0.1-0.8-0.1-0.9-0.5c0-0.1,0-0.1,0-0.2v-3
	c0-0.3,0.2-0.6,0.5-0.7c1.1-0.3,2.2-0.5,3.3-0.6c1.3-0.2,2.7-0.3,4-0.3C199.3,11.1,201.3,11.4,203.3,12.1z M199.9,32.1
	c0.8-0.3,1.4-0.8,2-1.4c0.1-0.1,0.2-0.3,0.2-0.5V26c0-0.4-0.3-0.7-0.7-0.7c0,0,0,0-0.1,0l-3.3,0.3c-1.2,0-2.4,0.4-3.4,1.1
	c-0.7,0.6-1.1,1.6-1.1,2.5c-0.1,0.9,0.3,1.9,1,2.5c0.8,0.6,1.8,0.9,2.8,0.9C198.2,32.6,199,32.4,199.9,32.1L199.9,32.1z"/>
<path class="st0" d="M221.3,34.2c-1.6-1.6-2.3-4.1-2.3-7.5V12.9c0-0.7,0.5-1.2,1.2-1.2h6c0.7,0,1.2,0.6,1.2,1.2v13.2
	c-0.1,0.9,0.2,1.8,0.7,2.6c0.5,0.5,1.3,0.8,2,0.8c0.7,0,1.4-0.1,2-0.4c0.6-0.2,1.2-0.6,1.6-1.2v-15c0-0.7,0.6-1.2,1.2-1.2h5.9
	c0.7,0,1.2,0.6,1.2,1.3V35c0,0.7-0.6,1.2-1.2,1.2h-5.7l-0.6-2.4h-0.3c-1.8,1.8-4.2,2.9-6.7,2.8C225.3,36.8,223,35.9,221.3,34.2z"/>
<path class="st0" d="M247.3,12.9c0-0.7,0.6-1.2,1.2-1.2h5.7l0.6,2.4h0.4c0.9-0.9,1.9-1.6,3.1-2.1c1.3-0.5,2.6-0.7,3.9-0.7
	c2.3-0.1,4.6,0.8,6.2,2.4c1.5,1.6,2.3,4.1,2.3,7.6V35c0,0.7-0.6,1.2-1.2,1.2h-5.9c-0.7,0-1.2-0.6-1.2-1.2V21.8
	c0.1-0.9-0.2-1.8-0.7-2.6c-0.6-0.5-1.4-0.8-2.2-0.7c-0.7,0-1.4,0.1-2.1,0.4c-0.6,0.2-1.2,0.6-1.7,1.1v15c0,0.7-0.6,1.2-1.2,1.2h-5.9
	c-0.7,0-1.2-0.6-1.2-1.2L247.3,12.9z"/>
<path class="st0" d="M276,7.6c-0.9-0.8-1.3-1.9-1.3-3.1c-0.1-1.2,0.4-2.3,1.3-3.1c2.4-1.5,5.3-1.5,7.7,0c0.9,0.8,1.3,2,1.3,3.1
	c0.1,1.2-0.4,2.4-1.3,3.2C281.3,9.1,278.3,9.1,276,7.6L276,7.6z M275.6,35V12.9c0-0.7,0.6-1.2,1.2-1.2h5.9c0.7,0,1.2,0.6,1.2,1.2V35
	c0,0.7-0.6,1.2-1.2,1.2h-5.9C276.2,36.2,275.6,35.7,275.6,35z"/>
<path class="st0" d="M293.1,35.4c-1.6-0.9-2.9-2.3-3.7-4c-1-2.2-1.5-4.5-1.4-6.9c0-4.3,1.2-7.5,3.5-9.8c2.3-2.3,5.7-3.4,10.2-3.4
	c0.7,0,1.5,0,2.4,0.1V1.2c0-0.7,0.6-1.2,1.2-1.2h5.9c0.7,0,1.2,0.6,1.2,1.2V35c0,0.7-0.6,1.2-1.2,1.2h-5.8l-0.5-2.5h-0.4
	c-0.7,0.9-1.6,1.7-2.7,2.2c-1.2,0.6-2.4,0.8-3.7,0.8C296.4,36.7,294.7,36.3,293.1,35.4z M302.7,29.5c0.6-0.2,1.1-0.5,1.5-0.9V17.8
	c-0.8-0.2-1.6-0.2-2.4-0.2c-1.5-0.1-2.9,0.4-4,1.5c-0.9,1-1.3,2.6-1.3,4.8s0.4,3.8,1.1,4.7c0.8,0.9,2,1.4,3.2,1.3
	C301.5,29.8,302.1,29.7,302.7,29.5z"/>
<path class="st0" d="M332.8,12.3c1.7,0.6,3,1.8,3.8,3.4c0.9,2,1.3,4.2,1.2,6.5V35c0,0.7-0.6,1.3-1.2,1.3c0,0,0,0,0,0H331l-0.6-2.3
	H330c-0.7,0.9-1.6,1.7-2.6,2.1c-1.2,0.5-2.4,0.7-3.7,0.7c-1.5,0-3-0.3-4.4-0.9c-1.2-0.6-2.1-1.4-2.8-2.5c-0.7-1.1-1-2.5-1-3.8
	c-0.1-2.2,0.8-4.3,2.6-5.6c1.8-1.4,4.5-2.1,8.1-2.4l3.5-0.2c0-0.8-0.2-1.5-0.6-2.2c-0.4-0.6-1-1-1.7-1.2c-1-0.3-2.1-0.4-3.1-0.4
	c-1.1,0-2.2,0.1-3.3,0.2c-1.1,0.1-2.3,0.4-3.4,0.7v-6.2c1.3-0.4,2.7-0.6,4-0.8c1.4-0.2,2.8-0.3,4.2-0.3
	C328.2,11.1,330.6,11.5,332.8,12.3z M328.2,30.7c0.5-0.2,1-0.4,1.5-0.8v-4.1l-2.6,0.2c-0.9,0-1.8,0.3-2.5,0.8
	c-0.5,0.5-0.8,1.1-0.8,1.8c0,0.7,0.2,1.3,0.7,1.7c0.6,0.4,1.3,0.6,2,0.6C327.1,30.9,327.7,30.8,328.2,30.7z"/>
</svg>
