<svg id="Layer_1" xmlns="http://www.w3.org/2000/svg" viewBox="0 0 369.5 70"><style>.st1{fill:#0090d1}.st2{fill:#fff}.st3{fill:#1d1d1b}.st5{fill:#289b38}.st7{fill:#f9c081}</style><path d="M73.7 23.3h4.2l11.3 25.8h-4.8L81.8 43H69.7l-2.6 6.2h-4.6l11.2-25.9zM80.2 39l-4.4-10.3L71.4 39h8.8zm12.1-9.2h4.4v4.4c1.2-2.9 3.4-4.9 6.9-4.7v4.7h-.3c-3.9 0-6.6 2.5-6.6 7.7v7.4h-4.4V29.8zm14.4 23l1.6-3.3c2.1 1.3 4.2 2.1 6.9 2.1 4 0 6.1-2.1 6.1-5.9v-1.5a8 8 0 0 1-6.8 3.6 8.7 8.7 0 0 1-8.8-9v-.1c0-5.7 4.3-9.1 8.8-9.1 3.3 0 5.3 1.5 6.8 3.3V30h4.4v15.4c0 3.3-.8 5.7-2.5 7.3-1.8 1.8-4.5 2.6-7.9 2.6-3.1-.2-6.1-1-8.6-2.5zm14.7-14.2c0-3.2-2.6-5.4-5.7-5.4s-5.5 2.1-5.5 5.3v.1c0 3.2 2.5 5.3 5.5 5.3 3.1 0 5.7-2.2 5.7-5.3zm8.2 1c0-5.6 3.9-10.1 9.5-10.1 6.2 0 9.3 4.8 9.3 10.4l-.1 1.2H134c.5 3.2 2.7 4.9 5.6 4.9 2.2 0 3.7-.8 5.2-2.3l2.6 2.3a9.8 9.8 0 0 1-7.9 3.6 9.6 9.6 0 0 1-9.9-10zm14.3-1.5c-.3-2.9-2-5.1-4.9-5.1-2.7 0-4.6 2.1-5 5.1h9.9zm8.2-8.3h4.4v3c1.2-1.8 3-3.4 6-3.4 4.4 0 6.9 2.9 6.9 7.4v12.3H165v-11c0-3-1.5-4.7-4.1-4.7s-4.4 1.8-4.4 4.8v10.9h-4.4V29.8zm22.9 14V33.6h-2.5v-3.8h2.5v-5.3h4.4v5.3h5.2v3.8h-5.2v9.5c0 1.7.9 2.4 2.4 2.4a5 5 0 0 0 2.7-.7v3.6c-1.1.6-2.3 1-4 1-3.2.1-5.5-1.3-5.5-5.6zm13.5-21.1h4.8v4.2h-4.8v-4.2zm.2 7.1h4.4v19.3h-4.4V29.8zm9.5 0h4.4v3c1.2-1.8 3-3.4 6-3.4 4.4 0 6.9 2.9 6.9 7.4v12.3h-4.4v-11c0-3-1.5-4.7-4.1-4.7s-4.4 1.8-4.4 4.8v10.9h-4.4V29.8zm20.7 13.8c0-4.2 3.3-6.3 8-6.3 2.2 0 3.7.3 5.2.8v-.5c0-2.7-1.7-4.2-4.8-4.2-2.2 0-3.8.5-5.5 1.2l-1.2-3.5c2.1-1 4.2-1.6 7.3-1.6 2.9 0 5.1.8 6.4 2.2 1.4 1.4 2.1 3.4 2.1 6v11.5H232v-2.4a7.7 7.7 0 0 1-6.3 2.8c-3.6 0-6.8-2.1-6.8-6zm13.2-1.4v-1.3c-1.1-.4-2.6-.8-4.4-.8-2.9 0-4.5 1.2-4.5 3.2v.1c0 1.9 1.6 2.9 3.8 2.9 2.9.1 5.1-1.6 5.1-4.1zm8.6 1.9h4.9v5.1h-4.9v-5.1zm9.4 8.7l1.6-3.3c2.1 1.3 4.2 2.1 6.9 2.1 4 0 6.1-2.1 6.1-5.9v-1.5a8 8 0 0 1-6.8 3.6 8.7 8.7 0 0 1-8.8-9v-.1c0-5.7 4.3-9.1 8.8-9.1 3.3 0 5.3 1.5 6.8 3.3V30h4.4v15.4c0 3.3-.8 5.7-2.5 7.3-1.8 1.8-4.5 2.6-7.9 2.6-3.1-.2-6.1-1-8.6-2.5zm14.7-14.2c0-3.2-2.6-5.4-5.7-5.4s-5.5 2.1-5.5 5.3v.1c0 3.2 2.5 5.3 5.5 5.3 3.1 0 5.7-2.2 5.7-5.3zm8.1 1c0-5.6 4.4-10.2 10.3-10.2s10.3 4.5 10.3 10v.1c0 5.5-4.4 10.1-10.4 10.1a10 10 0 0 1-10.2-10zm16.2 0c0-3.5-2.5-6.3-5.9-6.3-3.6 0-5.8 2.8-5.8 6.2v.1c0 3.4 2.5 6.2 5.9 6.2 3.5-.1 5.8-2.9 5.8-6.2zm12.7 6.6v3h-4.4V22.4h4.4V33c1.4-2 3.4-3.6 6.6-3.6 4.5 0 9 3.6 9 10v.1c0 6.4-4.4 10-9 10a7.4 7.4 0 0 1-6.6-3.3zm11-6.7c0-3.8-2.5-6.3-5.5-6.3s-5.6 2.5-5.6 6.2v.1c0 3.7 2.6 6.2 5.6 6.2s5.5-2.4 5.5-6.2zm8.1 4.6h4.9v5.1h-4.9v-5.1zm8.2-.5c0-4.2 3.3-6.3 8-6.3 2.2 0 3.7.3 5.2.8v-.5c0-2.7-1.7-4.2-4.8-4.2-2.2 0-3.8.5-5.5 1.2l-1.2-3.5c2.1-1 4.2-1.6 7.3-1.6 2.9 0 5.1.8 6.4 2.2 1.4 1.4 2.1 3.4 2.1 6v11.5h-4.3v-2.4a7.7 7.7 0 0 1-6.3 2.8c-3.7 0-6.9-2.1-6.9-6zm13.2-1.4v-1.3c-1.1-.4-2.6-.8-4.4-.8-2.9 0-4.5 1.2-4.5 3.2v.1c0 1.9 1.6 2.9 3.8 2.9 2.9.1 5.1-1.6 5.1-4.1zm8.8-12.4h4.4v4.4c1.2-2.9 3.4-4.9 6.9-4.7v4.7h-.3c-3.9 0-6.6 2.5-6.6 7.7v7.4h-4.4V29.8z" fill="#0094d4"/><path class="st1" d="M22.4 34.6h-3.5c-.8 0-1.2-.3-1.4-.6-.2-.2-.3-.5-.4-.9V33l.1-1.1c.5-2.3 1.4-3.8 2.1-4.7l-.2-.1c-.5-.3-.7-.8-.6-1.4.1-.8.8-1.5 1-1.7 1.2-1.4 3-1.5 3.2-1.5.3 0 2.6-.1 3.9 2.3 1.5 2.9 1.9 5.4 2.2 7.3v1.1c-.1.3-.2.5-.4.6-.3.3-.8.6-1.4.7h-3.4v4.9h15.5a25.3 25.3 0 0 0-4.8-15.1 16.6 16.6 0 0 0-5.1-4.5c-2-1.1-4.1-1.7-6.2-1.7-2.2 0-4.2.6-6.2 1.7a18 18 0 0 0-5.1 4.5 24.3 24.3 0 0 0-4.8 15.1h15.5v-4.8z"/><path class="st2" d="M6.9 39.5c0 2.2.2 4.3.7 6.4 6.9-.8 11.1-1.6 12.3-2.4.9-.6 1.6-1 2.5-.9v-3H6.9zm16.5 3.2l1.6.5h.2c.9 0 1.6.2 2.7.6l1 .3c.2 0 5.1 1.6 9.4 1.9.5-2.1.8-4.2.8-6.5H23.4v3.2z"/><path class="st3" d="M18.6 16.1zm0 0"/><path class="st2" d="M29.7 49.4l-.3.4c-.3.3-.6.4-1 .4l-.3.4c-.2.3-.7.6-1.4.5l-.3.4c-.3.4-.8.5-1.3.4l-.5.3c-.3.1-.7.2-1.2.1v4.1c0 .3-.2.5-.5.5s-.5-.2-.5-.5v-3.9l-.7.1h-.3c-.3-.1-.5-.2-.7-.5-.3.1-1 .1-1.4-.2l-.4-.5-.5-.1c-.5-.1-.8-.4-.9-.8h-.4c-.4-.1-.9-.2-1.1-.7l-.1-.3-5.9 2.8 1.4 2.2a16.6 16.6 0 0 0 7.8 5.7l.4-.4c.9-.6 2.6-.2 3.1 0 .5-.1 2.2-.6 3.1 0l.4.4a13 13 0 0 0 2.7-1.2 18 18 0 0 0 5.1-4.5l1.4-2c-1.1-.5-3.9-1.7-5.7-3.1"/><path class="st1" d="M24.3 63.5v-.7c.5-.1 1.4-.4 1.8-.9.3-.3.4-.7.3-1.2a1 1 0 0 0-.5-.9c-.9-.6-2.6-.2-3.1 0-.5-.1-2.2-.6-3.1 0a1 1 0 0 0-.5.9l.3 1.2c.5.6 1.3.8 1.9.9v.6c-.4.4-1.6 1.4-3.4 1.6l.5.6c1.6-.3 2.7-1.2 3.2-1.6l.2.2c-.1.4-.6 1.5-2.5 2 .3.1.7.3 1.2.3a3.5 3.5 0 0 0 2-2.1h.6c.2.5.6 1.5 2 2.1l1.2-.3c-1.9-.5-2.4-1.6-2.5-2l.2-.2c.5.5 1.6 1.3 3.2 1.6l.5-.6a5 5 0 0 1-3.5-1.5"/><path class="st2" d="M25.6 60.4l.2.4c0 .3 0 .5-.2.7a2 2 0 0 1-.9.5c.2-.3.2-.7.1-1-.1-.3-.3-.6-.6-.7.6-.1 1.1-.1 1.4.1m-4 .8c.3-.7 1.2-.7 1.3-.7l.6.1c.4.1.6.3.7.6.1.3-.1.6-.3.8-.3-.2-.6-.4-1-.4s-.7.1-1 .4c-.2-.1-.4-.5-.3-.8m-.5.8l-.9-.5c-.2-.2-.2-.4-.2-.7l.2-.4.9-.2h.4l-.6.7c-.1.5 0 .8.2 1.1m1 1.2c0-.4.3-.8.8-.8.4 0 .8.3.8.8 0 .4-.3.8-.8.8-.4-.1-.8-.4-.8-.8m5.1 2.6c-1.6-.3-2.7-1.2-3.2-1.6l-.2.2c.1.4.6 1.5 2.5 2l.9-.6m-5.4-1.7c-.5.5-1.6 1.3-3.2 1.6l.9.6c1.9-.5 2.4-1.6 2.5-2l-.2-.2"/><path class="st3" d="M42.3 43.7l-.1-.3-.2-.1.2-.4c.2-.7.4-1.4.4-2.3l-.1-.3-.2-.1.1-.4c.2-.7.2-1.4.2-2.3l-.2-.3h-.2l.1-.5a6 6 0 0 0-.1-2.3l-.2-.2h-.2l.1-.4c.1-.7 0-1.5-.2-2.3l-.2-.2h-.3v-.6c0-.7-.2-1.5-.5-2.2l-.2-.2h-.3v-.5a7 7 0 0 0-.7-2.2c-.1-.1-.1-.2-.3-.2l-.2.1-.1-.5c-.2-.7-.5-1.4-1-2.1l-.3-.1-.3.1-.2-.5c-.3-.6-.7-1.3-1.3-1.9l-.3-.1-.2.1-.3-.5c-.4-.6-.9-1.1-1.6-1.7l-.3-.1-.2.2c-.4-.6-1-1-1.8-1.3h.4c.9.1 1.6-.1 1.6-.1.2-.1.3-.3.3-.5s-.2-.4-.4-.4c-1 0-1.4-.3-1.9-.5l-.3-.2 2.4-.4c.2 0 .4-.2.4-.4s-.2-.4-.4-.4l-2.3-.3.9-.3c.9-.3 1.4-.7 1.4-.7.2-.1.2-.4.1-.5s-.3-.3-.5-.2c-.9.3-1.4.3-1.9.2h-.3l2-1.2c.2-.1.3-.3.2-.5-.1-.2-.3-.3-.5-.2l-2.3.6.7-.6c.7-.6 1-1.2 1-1.2.1-.2 0-.4-.1-.5h-.5c-.7.7-1.2.8-1.7 1l-.3.1L30.4 8v-.5c-.1-.1-.4-.2-.5 0L28 8.9l.5-.9c.4-.8.5-1.5.5-1.5 0-.2-.1-.4-.3-.4-.2-.1-.4 0-.5.2-.4.9-.8 1.2-1.2 1.5l-.2.2.6-2.3c.1-.2-.1-.4-.2-.5-.2-.1-.4 0-.5.2l-1.2 2.1.1-1c.1-.9-.1-1.6-.2-1.6-.1-.2-.3-.3-.5-.3s-.6.1-.6.4c0 1-.3 1.4-.5 1.9l-.1.3-.3-2.3c0-.2-.2-.4-.4-.4s-.4.2-.4.4l-.3 2.3-.3-.9c-.3-.9-.7-1.4-.7-1.4-.1-.2-.4-.2-.5-.1-.2.1-.3.3-.2.5.3.9.3 1.4.2 1.9v.3l-1.2-2.1c-.1-.2-.3-.3-.5-.2-.2.1-.3.3-.2.5l.3 2.3-.6-.7c-.6-.7-1.2-1-1.2-1-.2-.1-.4 0-.5.1v.5c.7.7.8 1.2 1 1.7l.1.3-2-1.5h-.5c-.1.1-.2.4 0 .5l1.4 1.9-.8-.4a10 10 0 0 0-1.7-.4c-.2 0-.4.1-.4.3-.1.2 0 .4.2.5.9.4 1.2.8 1.5 1.2l.2.2-2.3-.6c-.2-.1-.4.1-.5.2-.1.2 0 .4.2.5l2 1.2-1-.1c-.9-.1-1.6.1-1.6.2-.2.1-.3.3-.3.5s.2.4.4.4c1 0 1.4.3 1.9.5l.3.1-2.4.3c-.2 0-.4.2-.4.4s.2.4.4.4l2.4.3-.9.3c-.9.3-1.4.7-1.4.8-.2.1-.2.4-.1.5.1.2.3.3.5.2l1.2-.3-1.1 1-.3.4-.2-.1-.3.1c-.7.5-1.2 1.1-1.6 1.7l-.3.5-.2-.1-.3.1c-.6.6-1 1.3-1.3 1.9l-.2.5c.1 0 .1 0 0 0l-.3.1a8 8 0 0 0-1.1 2l-.1.6-.3-.1-.3.2c-.4.7-.6 1.5-.7 2.2v.5l-.3-.1-.2.2c-.3.8-.4 1.5-.5 2.2v.5h-.3l-.2.2c-.2.8-.2 1.6-.2 2.3l.1.4H4l-.2.2a6 6 0 0 0-.1 2.3l.1.5h-.1c-.1 0-.2.1-.2.3-.1.8-.1 1.6.1 2.3l.1.4h-.2l-.2.3c0 .8.1 1.6.3 2.3l.2.6-.3.1-.1.3c.1.8.4 1.6.7 2.2l.2.3-.2.1-.1.3c.2.8.5 1.5.9 2.1l.3.5-.2.1v.3c.3.8.7 1.5 1.1 2l.3.3-.2.2v.3a7 7 0 0 0 1.3 1.9l.3.3-.2.2v.3a8.6 8.6 0 0 0 2 2.1h-.1l-.2.2.1.3a7.3 7.3 0 0 0 3.3 2H14a17.4 17.4 0 0 0 6.2 2.7l.6.1-1.1-.7-.1-.2a15.9 15.9 0 0 1-5.1-2.4l-.1-1c.7.6 1.4 1 2.1 1.4 1 .5 1.9.9 2.9 1.2v-.2l.1-.5a13 13 0 0 1-2.7-1.2 18 18 0 0 1-5.1-4.5l-1.4-2.2c1.1-.5 3.7-1.6 5.9-2.8l.1.3c.2.4.7.6 1.1.7h.4c.1.4.5.6.9.8l.5.1.4.5c.4.3 1 .3 1.4.2l.7.5h.3l.7-.1v3.9c0 .3.2.5.5.5s.5-.2.5-.5v-4.1c.5.1 1 0 1.2-.1l.5-.3c.5.1 1 0 1.3-.4l.3-.4c.7 0 1.1-.3 1.4-.5l.3-.4c.4 0 .8-.2 1-.4l.3-.4a28 28 0 0 0 5.8 3.1l-1.4 2a16.6 16.6 0 0 1-7.8 5.7l.1.5v.2a13.7 13.7 0 0 0 5-2.7l-.1 1c-.3.2-1.1.8-2.3 1.4-.9.4-1.8.8-2.7 1h-.1l-.1.2c-.3.4-.7.6-1.1.7l1.5-.3a17.2 17.2 0 0 0 5.3-2.6h1.2l1.5-.6c.6-.3 1.2-.8 1.8-1.4l.1-.3-.2-.2h-.1l.5-.4a5 5 0 0 0 1.5-1.7v-.3l-.2-.2.3-.3c.5-.5 1-1.1 1.3-1.9V52l-.2-.2.3-.4c.4-.5.8-1.2 1.1-2v-.3l-.3-.1.3-.4c.4-.6.7-1.3.9-2.1l-.1-.3-.3-.1.3-.5c.2-.4.4-1.1.5-1.9m-.4-2.6c0 .6-.1 1.1-.3 1.6-.2.5-.4.9-.7 1.2-.3.4-.7.6-.8.7-.5-.6-.7-1.4-.7-2.3l.1-.9c.4.5.6 1.2.6 1.2l.2.2.2-.1c.5-.9 1-1.4 1.4-1.6m0-3l-.1 1.6c-.1.5-.3.9-.6 1.3a3 3 0 0 1-.8.8c-.8-.9-.9-2.3-.9-3l.7 1.1.2.1.2-.2c.4-.9.9-1.4 1.3-1.7m-.4-3.1c.1 0 .1 0 0 0a5 5 0 0 1-.4 2.9c-.3.5-.6.7-.7.8-.8-.7-1-2.1-1.1-2.9.5.4.8 1 .8 1l.2.1.2-.2c.3-.8.7-1.3 1-1.7m-.4-2.8c.1.6.2 1.1.1 1.6l-.4 1.4c-.2.5-.5.8-.6.9-.7-.6-1-1.4-1.1-2l-.1-.8c.5.4.9.9.9 1l.3.1.2-.2c0-1.1.4-1.7.7-2m-23 .1v-.1a9.9 9.9 0 0 1 2.8-5.2l.2-.1c.2-.2.2-.4.1-.6-.2-.2-.4-.2-.6-.1l-.2.2c-.4.3-.7.2-.8.2a.8.8 0 0 1-.2-.5c.1-.4.6-1 .7-1.2a4 4 0 0 1 2.5-1.2l1.1.2c.8.3 1.5.8 1.9 1.7.6 1.2 1.1 2.4 1.4 3.7-.9-.3-1.6-.9-1.6-.9-.1-.4-.4-.4-.5-.2l-.1.3.2.3s1.1.9 2.4 1.2l.3 1.4-1.3-.4-.7-.2c-.9-.4-1.6-.9-1.6-1-.2-.2-.5-.1-.7.1-.2.2-.1.5.1.7 0 0 .9.7 1.9 1.1l.8.3c1.1.3 1.6.5 1.7 1.1l-.1.2c-.4.4-1.1.4-1.4.4h-1.1c-.2 0-1.3 0-2.2-.6-2.6-1.6-3.7-1.3-5-.8m4 1.4h-3.2l-.7-.2-.1-.1c1.4-.7 2.1-.9 4 .3m1.3 5.8v-4.9h3.4c.6-.1 1.1-.3 1.4-.7l.4-.6v-1.1c-.3-1.9-.6-4.4-2.2-7.3-1.3-2.5-3.6-2.4-3.9-2.3a4.6 4.6 0 0 0-4.2 3.2c-.1.6.1 1.2.6 1.4l.2.1c-.8.9-1.7 2.5-2.1 4.7l-.1 1.1v.1l.4.9c.2.3.6.6 1.4.6h3.5v7.9a42.8 42.8 0 0 1-14.8 3.3 27.3 27.3 0 0 1 4.1-21.5c1.5-1.9 3.2-3.5 5.1-4.5 2-1.1 4.1-1.7 6.2-1.7 2.2 0 4.2.6 6.2 1.7a18 18 0 0 1 5.1 4.5 24.3 24.3 0 0 1 4.8 15.1c0 2.2-.3 4.4-.8 6.5-4.2-.2-9.2-1.8-9.4-1.9l-1-.3c-1-.4-1.8-.7-2.7-.6h-.2l-1.6-.5v-3.2zM30 17.3l-1.1.3-.8.1c-.6 0-1.1-.2-1.6-.4l.9-.4h1.3c.5 0 .9.2 1.3.4m.6 1.7s0 .1 0 0l-.8.2h-.1c-.7 0-1.4-.3-2.1-.8l.9-.2c.8 0 1.5.2 2.1.8m-3.3-2.6l-1.5.4-.2.2.1.3s.6.4 1 .9c-.7 0-2-.2-2.9-1.3l.8-.5c.6-.4 1.6-.4 2.7 0 0-.1 0-.1 0 0m-3.1-.5c-.2.2-.7.5-1.4.7l-.2.2.2.2s.6.2 1.1.7h-.6c-.7 0-1.7-.1-2.5-.7.1-.2.3-.4.7-.6.6-.5 1.5-.6 2.7-.5 0-.1 0-.1 0 0 0-.1 0 0 0 0m-3.2 0c-.2.2-.6.6-1.3 1-.1 0-.2.2-.1.3l.2.2s.7.1 1.2.4l-.8.2-.9.1a4 4 0 0 1-1.5-.3l.5-.8c.6-.6 1.5-1 2.7-1.1m-4.1 2l-.1.3.2.2h.6l.7.1-.8.3a5 5 0 0 1-1.5.3l-.9-.1c.1-.5.6-1.8 2.8-2.6 0 .4-.4.9-1 1.5m22.6 13.2c.1-.9.4-1.5.6-1.9.2.5.3 1.1.3 1.6s0 1-.2 1.4a3 3 0 0 1-.5.9c-.6-.4-1.1-1-1.4-1.9l-.2-.8c.6.3 1 .8 1 .8l.3.1.1-.2m-1-2.7c0-.9.2-1.5.4-2l.5 1.5a3.3 3.3 0 0 1-.4 2.4c-.7-.3-1.2-.9-1.6-1.7l-.3-.8a7 7 0 0 1 1.1.7h.3v-.1m-1.3-2.3l.1-.3c-.1-.9 0-1.6.2-2l.6 1.5c.1.5.2 1 .1 1.4a3 3 0 0 1-.3 1c-.7-.3-1.4-.8-1.9-1.5l-.4-.8 1.2.6.4.1m-1.9-2.4h.3l.1-.3c-.2-.8-.2-1.5-.1-2 .4.4.6.9.8 1.3.2.5.3.9.3 1.4l-.1 1.1c-.7-.1-1.4-.5-2-1.2l-.6-.7c.7 0 1.3.4 1.3.4m-1.9-2.1l.3-.1v-.3c-.4-.8-.5-1.5-.5-1.9.4.4.8.8 1 1.2a3.8 3.8 0 0 1 .7 2.4c-.8 0-1.6-.5-2.1-.8l-.7-.6h.1c.7-.2 1.2 0 1.2.1m-.7-2c.2.5.2 1 .2 1.2h-.1c-1 0-2.2-.7-2.8-1.1a5 5 0 0 1 1.3 0l.3-.1v-.3c-.4-.5-.7-1.1-.8-1.5.9.4 1.6 1 1.9 1.8m-18.5-3l.1-.1 1.5-.4c.7-.1 1.1-.4 1.1-.5l.1-.2-.1-.1-2.9-.4 2.9-.4.1-.2-.1-.2-1.3-.4-.5-.3-.8-.4h.2l1.5.2h1.2l.1-.1-.1-.2-2.6-1.5 2.9.7.2-.1-.1-.2s-.6-.3-1-.9l-.4-.4-.6-.7.1.1 1.3.7c.6.4 1.1.5 1.1.5l.2-.1v-.2l-1.8-2.4 2.4 1.8h.2c.1-.1.1-.2 0-.2 0-.1-.4-.5-.6-1.2l-.2-.6-.3-.9.1.1.9 1.2.9.9h.2l.1-.2-.7-2.9L21 9.2l.2.1.1-.2s-.2-.6-.1-1.4V6.2l.1.1.4 1.5c.1.6.4 1.1.4 1.1l.2.1.1-.1.5-2.9.4 2.9.2.1.2-.1.4-1.3.3-.5.4-.8v.2L24.6 8a4 4 0 0 0 0 1.2l.1.1.2-.1 1.5-2.6-.7 2.9.1.2.2-.1c0-.1.4-.6.9-1l.4-.4.7-.6-.1.1-.7 1.3c-.4.6-.5 1.1-.5 1.1l.1.2h.2l2.4-1.8-1.9 2.5c-.1.1 0 .2 0 .2.1.1.2.1.2 0 0 0 .5-.4 1.2-.6l.6-.2.9-.3-.1.1-1.2.9c-.6.4-.9.8-.9.9v.2l.2.1 2.9-.7-2.7 1.4-.1.2.2.1c.1 0 .7-.2 1.4-.1h1.5l-.1.1-1.5.4c-.7.1-1.1.4-1.1.5l-.1.2.1.1 2.9.4-2.9.4-.1.2.1.2c.1 0 .7.1 1.3.4l.5.3.8.4h-.2l-1.5-.2h-.1c-.5-.2-1.1-.4-1.6-.4l-.2-.2a6 6 0 0 0-2.2-.4H25v-.1c0-.1-.1-.2-.3-.2h-2.3l-.8.2-.1-.2-.3-.1c-.8.1-1.6.2-2.2.5l-.5.2-.1-.2-.3-.1c-.8.2-1.5.5-2.1.9h-1.1l-.7.1m.8.9c0 .5-.1 1.2-.6 1.9v.3l.3.1 1.3-.1c-.6.4-1.6 1.2-2.8 1.2h-.1c-.2-.6 0-2.1 1.9-3.4m-4.1 4.2c.1-.4.3-.9.6-1.3l1.1-1.2c0 .5-.1 1.2-.5 1.9v.3l.3.1 1.2-.2-.7.6c-.5.4-1.2.8-2 .8h-.1l.1-1m-.6-.3c.1.5.2 1.2-.1 2l.1.3h.3s.5-.4 1.2-.4c-.4.6-1.4 1.7-2.6 1.9-.2-.6-.4-2 1.1-3.8m-2.6 3.9c.1-.5.4-1 .7-1.4.1.4.3 1.1.1 2l.1.3h.3s.5-.5 1.2-.6l-.5.8c-.5.7-1.2 1.2-1.9 1.4a3 3 0 0 1-.3-1l.3-1.5M6.3 28c.1-.5.2-1 .5-1.5.2.4.4 1.1.4 2l.1.2h.3s.5-.5 1.2-.7l-.3.7a4 4 0 0 1-1.8 1.8l-.4-1V28m-.8 1.2c.1 0 .1 0 0 0 .3.4.6 1 .7 1.9l.2.2.3-.1s.4-.5 1.1-.9l-.2.8c-.3.8-.8 1.5-1.5 2-.1-.1-.4-.4-.5-.9l-.2-1.4c-.1-.5 0-1 .1-1.6m-.8 2.9c.3.3.7.9.9 1.8l.2.2.3-.1s.4-.6.9-1l-.1.8a4 4 0 0 1-1.2 2.1c-.1-.1-.4-.4-.6-.9l-.4-1.4v-1.5M4.2 35c.1 0 .1 0 0 0 .3.3.8.9 1 1.7l.2.2.2-.1s.3-.6.8-1l-.1.9c-.1.9-.5 1.6-1 2.1l-.7-.8c-.2-.4-.4-.8-.4-1.3V35M4 38.1l.2.2c.3.3.6.8.9 1.5 0 .1.1.2.3.2l.2-.2s.1-.6.6-1.1v1.4c-.1.7-.4 1.2-.9 1.7-.4-.3-1.4-1.3-1.3-3.7m-.1 3l.2.2c.3.3.7.7 1 1.4l.2.1.2-.2.7-1.2a4 4 0 0 1-.7 3.1c-.4-.2-1.5-1.1-1.6-3.4m.1 3.1s.1 0 0 0c.4.2 1 .6 1.5 1.3l.3.1.2-.2.5-1.3.3.8c.2.8 0 1.7-.4 2.4-.1-.1-.5-.2-.9-.6l-.9-1.1c-.3-.3-.4-.8-.6-1.4m.7 2.9c0-.1.1-.1 0 0l.3.1c.4.2.9.5 1.4 1.1l.3.1.2-.2s.1-.7.4-1.3c.3.6.7 1.9.1 3.2-.6-.2-2-.8-2.7-3m1.8 4.2c-.3-.4-.6-.8-.8-1.4l.2.1c.4.1.9.4 1.5 1h.3l.2-.2s0-.7.2-1.3l.4.8c.3.8.4 1.6.1 2.4-.2 0-.6-.1-1-.4-.5-.3-.8-.6-1.1-1m.4 1.4a4 4 0 0 1 1.8.8H9l.1-.2s-.1-.6.1-1.3l.4.7c.3.6.6 1.4.4 2.3l-1-.2-1.2-.8-.9-1.3m5.7 5l-.3-1.3c.6.5 1.5 1.5 1.5 2.8h-.4l-.6-.1c-.8-.2-1.7-.7-2.5-1.5a3 3 0 0 1 2 .3l.3-.1v-.1m-2.2-1.8h.3l.1-.3s-.2-.6-.1-1.3c.5.6 1.3 1.7 1.2 2.9h-.1c-.2 0-.6 0-1-.2-.4-.1-.8-.4-1.2-.7-.4-.3-.8-.7-1.1-1.2.4.2 1.1.3 1.9.8m9.7-6.5l-.2.2c-.5.4-.9.8-1 1.2l-.2-.1c-.4-.1-.4-.3-.4-.4 0-.2.1-.4.4-.7l.9-.5.3.1c.1-.1.1 0 .2.2 0-.1 0-.1 0 0m.5 2c-.2 0-.6.1-.8-.1l-.1-.2c0-.3.4-.7.7-.9l.9-.5.3.1.1.2-.3.4c-.4.3-.7.6-.8 1m2.1.1c-.2.1-.7.5-1.1.4l-.2-.1c.2-.4.6-.6.9-.8.5-.3.7-.1.7-.1l.1.2-.4.4m-4.4-2.7l-.2.2a2 2 0 0 0-.6.9h-.2c-.3 0-.4-.1-.4-.2 0 0-.1-.2.1-.4.2-.3.7-.5 1.1-.5h.1c-.1-.1 0-.1.1 0m10.6.5l-.6.2a7 7 0 0 0-2.3-2.2h-.3l-.2.2v.3l.2.2c1 .5 1.8 1.4 2.1 1.9l-.1.2a1 1 0 0 1-.7.3l-.6-.8a11 11 0 0 0-1.1-.9l-.3-.1-.3.2-.1.3.2.3.9.8.4.6-.2.3-.6.2c-.1-.2-.3-.7-.8-1.1-.2-.2-.4-.2-.6 0l-.1.3.1.3.6.8-.2.1-.7.1.2-.5c0-.2 0-.6-.4-.9-.2-.2-.5-.3-1-.3 0-.3-.2-.5-.4-.7-.4-.3-.8-.4-1.3-.3-.1-.2-.2-.4-.6-.6-.3-.2-.7-.2-1.1-.1-.3-.3-.8-.3-.9-.3-.5-.1-1.3.2-1.7.6C14 50 11 51.3 9.8 51.9c-.6-1.2-1.2-2.5-1.6-3.9l-.3-1.1c3.5-.4 6.3-.8 8.3-1.2 2.1-.4 3.5-.9 4.2-1.3.8-.6 1.4-.9 2.1-.8l.5.1-.4.2-.7.5-.5.4-.6.3c-.5.2-.9.4-1 .8-.1.4-.1.7.2 1 .4.5 1 .5 1.5.5s1.2-.2 1.7-.5l.5-.3.5-.3c.4-.1.9-.1 1.4.1l1.5.8a8 8 0 0 1 2.1 2c-.1-.2-.2 0-.3.1m1.5-.3a6 6 0 0 1-.7-.6l-.1-.1c-.4-.4-1.2-1.3-2.2-2-.8-.5-2.2-1.4-3.6-1a3 3 0 0 0-.8.4l-.4.3-1.3.4-.7-.1-.1-.2.6-.3.7-.4.6-.5.7-.5c.4-.3.9-.3 1.5-.3h.6c.7 0 1.4.2 2.4.6l1 .3 3.2.9c1.6.4 3.9.9 6.1 1l-.3 1.1c-.5 1.4-1 2.8-1.7 4-1.1-.6-3.7-1.8-5.5-3m5.1 8.8c-1.1 1-2 1.3-2.5 1.5l-.6.1H32c0-.8.3-1.5.9-2.2l.6-.6-.3 1.2.1.3.3.1c.8-.5 1.5-.5 1.9-.4 0-.1 0-.1 0 0 0-.1 0-.1 0 0m1.9-2.5c-.3.5-.7.9-1.1 1.2l-1.2.7-1 .2H34c-.1-.7.2-1.5.7-2.2l.5-.7c.1.6-.1 1.3-.1 1.3l.1.3h.3c.7-.7 1.4-.8 1.9-.8 0-.1 0-.1 0 0 0-.1 0 0 0 0M38 54l-1.2.8-1 .2c-.1-.7 0-1.5.4-2.3l.4-.7.1 1.3.1.2h.3a3 3 0 0 1 1.8-.8c-.2.5-.6.9-.9 1.3m1.4-2.7c-.3.4-.7.7-1.1.9-.4.3-.8.4-1 .4a4 4 0 0 1 .1-2.4l.3-.7c.2.6.2 1.3.2 1.3l.2.2.3-.1a3 3 0 0 1 1.5-1l.3-.1c-.2.6-.5 1.1-.8 1.5m1-2.8c-.3.4-.6.8-1 1l-1 .5c-.4-.9-.2-1.8-.1-2.4l.3-.8c.3.6.4 1.3.4 1.3l.2.2.3-.1c.6-.7 1.2-1 1.6-1.2-.2.6-.4 1.1-.7 1.5m.8-2.9l-.8 1.1-.9.6c-.4-.7-.5-1.5-.4-2.4l.2-.8.5 1.3.2.2.2-.1c.5-.7 1-1.2 1.4-1.4 0 .5-.2 1-.4 1.5"/><path d="M28.2 16.2c.5 0 1.1.1 1.6.4h.1l1.5.2h.2l-.8-.4-.5-.3a4 4 0 0 0-1.3-.4l-.1-.2.1-.2 2.9-.4-2.9-.4-.1-.1.1-.2 1.1-.5 1.5-.4.1-.1h-1.5l-1.4.1-.2-.1.1-.2 2.5-1.5-2.9.7-.2-.1v-.2s.3-.5.9-.9l1.2-.9.1-.1-.9.3-.6.2-1.2.6h-.2c-.1-.1-.1-.2 0-.2l1.8-2.4-2.4 1.8h-.2l-.1-.2s.1-.6.5-1.1l.7-1.3.1-.1-.7.6-.4.4-.9 1-.2.1-.1-.2.7-2.9-1.5 2.6-.2.1-.1-.1V8l.2-1.5v-.2l-.4.8-.3.5-.4 1.3-.2.1-.2-.1-.2-2.9-.4 2.9-.1.1-.2-.1s-.3-.5-.4-1.1l-.4-1.5-.1-.1v1.5l.1 1.4-.1.2-.2-.1-1.5-2.5.7 2.9-.1.2H20l-.9-.9-.9-1.2-.1-.1.3.9.2.6c.2.7.6 1.1.6 1.2v.2c-.1.1-.2.1-.2 0l-2.4-1.8 1.8 2.4v.2l-.2.1s-.6-.1-1.1-.5c-.2-.2-.7-.5-1.3-.7l-.1-.1.6.7.4.4 1 .9.1.2-.2.1-2.9-.7 2.6 1.5.1.2-.1.1h-1.2l-1.5-.2h-.2l.8.4.5.3 1.3.4.1.2-.1.2-2.9.4 2.9.4.1.1-.1.2-1.1.5-1.5.4-.1.1h2c.6-.4 1.3-.7 2.1-.9l.3.1.1.2.5-.2c.6-.3 1.4-.4 2.2-.5l.3.1.1.2.8-.2H25l.3.2v.1h.7a6 6 0 0 1 2.2.4c-.1-.4 0-.3 0-.2" fill="#fcc200"/><path class="st3" d="M23.9 12.5c2.9-.5 3.2.4 3.2.4s.1.2.3.1c0 0 .2 0 .1-.3 0 0-.3-.9-1.8-1.1 0 0-.8-.1-1.6 0-.3 0-.3.6-.3.6-.1.3.1.3.1.3m-2.4.5c-.4-.2-1.1-.1-1.1-.1-1.3 0-1.6.8-1.6.8-.1.3.1.3.1.3.3.1.4-.2.4-.2s.1-.2.6-.4v.2c0 .4.3.7.7.7.4 0 .7-.3.7-.7l-.1-.3.5.4.4.1c.3 0 .2-.2.2-.2l-.8-.6m2.4 1.1l.4-.1c.1-.2.3-.4.5-.4l-.1.3c0 .4.3.7.7.7.4 0 .7-.3.7-.7v-.2c.5.1.6.4.6.4s.1.2.4.2c0 0 .2 0 .1-.3 0 0-.3-.8-1.6-.8l-1.1.1s-.4.2-.6.9c-.2-.3-.3-.1 0-.1M18.4 13c.2.1.3-.1.3-.1s.3-.8 3.2-.4c0 0 .3.1.2-.2 0 0-.1-.6-.3-.6-.9-.2-1.6 0-1.6 0-1.5.2-1.8 1.1-1.8 1.1-.2.2 0 .2 0 .2"/><path class="st5" d="M35.5 57.7a3 3 0 0 0-2 .3l-.3-.1-.1-.3.3-1.2-.6.6c-.6.7-.9 1.4-.9 2.2h.4l.6-.1c.7 0 1.6-.4 2.6-1.4m-23.2-1.3c0 .7.3 1.3.3 1.3l-.1.3h-.2c-.8-.3-1.5-.3-2-.3.9.8 1.7 1.3 2.5 1.5l.6.1h.4c.1-1.4-.9-2.4-1.5-2.9"/><path class="st5" d="M37.4 55.2c-.5 0-1.2.2-1.9.6h-.3l-.1-.3.1-1.3-.5.7a4 4 0 0 0-.7 2.2h.1c.2 0 .6 0 1-.2.4-.1.8-.4 1.2-.7.4-.1.8-.5 1.1-1 0 .1 0 0 0 0"/><path class="st5" d="M38.9 52.7c-.5.1-1.1.3-1.8.8h-.3l-.1-.2s.1-.7-.1-1.3l-.4.7c-.4.8-.5 1.6-.4 2.3.2 0 .6 0 1.1-.3l1.2-.8c.2-.3.6-.7.8-1.2.1 0 .1 0 0 0"/><path class="st5" d="M40.2 49.9l-.3.1c-.4.1-.9.4-1.5 1h-.2a.2.2 0 0 1-.2-.2s0-.7-.2-1.3l-.3.7c-.3.8-.4 1.6-.1 2.4.2 0 .6-.1 1-.4l1.1-.9.7-1.4"/><path class="st5" d="M41.1 47c-.4.2-1.1.5-1.6 1.2l-.3.1a.2.2 0 0 1-.2-.2s-.1-.7-.4-1.3l-.3.8c-.1.6-.3 1.5.1 2.4l1-.5 1-1c.3-.4.5-.9.7-1.5"/><path class="st5" d="M41.6 44a3 3 0 0 0-1.4 1.4l-.2.1a.2.2 0 0 1-.2-.2l-.5-1.3-.2.8c-.1.9 0 1.7.4 2.4.2-.1.5-.2.9-.6l.8-1.1c.2-.4.4-.9.4-1.5.1.1.1.1 0 0 .1 0 0 0 0 0"/><path class="st5" d="M40.6 42.6l-.2.1a.2.2 0 0 1-.2-.2s-.2-.7-.6-1.2l-.1.9c0 .9.2 1.7.7 2.3.1-.1.5-.3.8-.7.3-.3.5-.8.7-1.2.2-.5.3-1 .3-1.6-.5.3-1 .8-1.4 1.6"/><path class="st5" d="M40.5 39.9l-.2-.1-.7-1.1c0 .7.1 2.1.9 3 .1-.1.5-.3.8-.8.3-.4.4-.8.6-1.3l.2-1.6c-.3.3-.8.8-1.1 1.7l-.5.2"/><path class="st5" d="M40.4 37l-.2-.1-.8-1c.1.8.3 2.2 1.1 2.9l.7-.8c.2-.4.4-.8.4-1.3.1-.5.1-1 0-1.6-.3.3-.7.9-1 1.8l-.2.1"/><path class="st5" d="M40 34.2l-.3-.1-.9-.9.1.8a5 5 0 0 0 1.1 2c.1-.1.4-.4.6-.9l.4-1.4c.1-.5 0-1-.1-1.6-.3.3-.7.9-.9 1.8.2.2.1.2 0 .3"/><path class="st5" d="M39.4 31.4l-.3-.1-1-.8.2.8a4 4 0 0 0 1.4 1.9l.5-.9.2-1.4-.3-1.6c-.2.4-.6 1-.6 1.9l-.1.2"/><path class="st5" d="M38.1 28.6l-1.1-.7.3.8c.4.8 1 1.4 1.6 1.7l.4-1V28c-.1-.5-.2-1-.5-1.5-.2.4-.4 1.1-.4 2l-.1.2-.2-.1"/><path class="st5" d="M35.7 25.4l.4.8c.5.7 1.1 1.3 1.9 1.5l.3-1-.1-1.4-.6-1.5c-.2.4-.3 1.1-.2 2l-.1.3H37c-.1-.1-.7-.5-1.3-.7"/><path class="st5" d="M34 23.3l.6.7c.6.7 1.3 1.1 2 1.2.1-.2.2-.6.1-1.1a4 4 0 0 0-.3-1.4l-.8-1.3c-.1.5-.1 1.2.1 2l-.1.3h-.3s-.6-.4-1.3-.4c0-.1 0-.1 0 0"/><path class="st5" d="M33.7 21.5l-.3.1-1.2-.2h-.1l.7.6c.5.4 1.3.8 2.1.8 0-.2.1-.6-.1-1.1-.1-.4-.3-.9-.6-1.3l-1-1.2c0 .5.1 1.2.5 1.9.1.2.1.3 0 .4m-22 35.8h.1c.1-1.2-.7-2.3-1.2-2.9-.1.7.1 1.3.1 1.3l-.1.3h-.3c-.8-.5-1.5-.6-1.9-.6.3.5.7.9 1.1 1.2l1.2.7h1"/><path class="st5" d="M10.1 55c.2-.9-.1-1.7-.4-2.3l-.4-.7-.1 1.3-.1.2h-.3a3 3 0 0 0-1.8-.8L8 54l1.2.8c.3.2.7.2.9.2"/><path class="st5" d="M8.5 52.6c.1 0 .1 0 0 0a4 4 0 0 0-.5-3.2c-.2.6-.2 1.3-.2 1.3l-.2.2-.3-.1c-.5-.5-1.1-.8-1.5-1l-.2-.1.8 1.4c.3.4.7.7 1.1.9.5.5.9.6 1 .6"/><path class="st5" d="M7.3 50.1c.6-1.3.2-2.5-.1-3.2-.3.6-.4 1.3-.4 1.3l-.2.2-.3-.1c-.5-.6-1-.9-1.4-1.1l-.2-.1c.7 2.2 2.1 2.8 2.6 3"/><path class="st5" d="M5.4 46.8c.4.4.8.5.9.6a3 3 0 0 0 .4-2.4l-.3-.8-.4 1.2-.2.2-.3-.1A4.2 4.2 0 0 0 4 44.2l.5 1.5.9 1.1"/><path class="st5" d="M5.6 44.6c1-1.3.9-2.5.7-3.1l-.7 1.2-.2.2-.2-.1c-.3-.7-.7-1.2-1-1.4l-.3-.3c.1 2.3 1.2 3.2 1.7 3.5"/><path class="st5" d="M5.4 41.8c.5-.4.8-1 .9-1.7v-1.4c-.5.5-.6 1.1-.6 1.1l-.2.2-.3-.2c-.2-.7-.6-1.2-.9-1.5l-.2-.2c-.2 2.4.8 3.4 1.3 3.7"/><path class="st5" d="M4.7 38c.3.5.6.7.7.8.5-.5.9-1.2 1-2.1l.1-.9c-.5.4-.8 1-.8 1 0 .1-.1.2-.2.1a.2.2 0 0 1-.2-.2c-.2-.9-.6-1.4-1-1.8-.1.6-.1 1.1 0 1.6 0 .6.2 1.1.4 1.5"/><path class="st5" d="M5 35.1l.6.9c.6-.6 1-1.3 1.2-2.1L7 33c-.6.4-1 1-1 1l-.3.1a.2.2 0 0 1-.2-.2c-.2-.9-.6-1.5-.9-1.8l-.1 1.6.5 1.4"/><path class="st5" d="M6 33.1c.8-.5 1.3-1.1 1.6-2l.2-.8c-.6.3-1.1.9-1.1.9l-.3.1a.2.2 0 0 1-.2-.2c-.1-.9-.4-1.5-.6-1.9a5 5 0 0 0-.3 1.6l.2 1.4.5.9"/><path class="st5" d="M6.7 30.4c.8-.4 1.4-1 1.8-1.7l.3-.7-1.2.7h-.3l-.1-.2c0-.9-.2-1.6-.4-2L6.3 28v1.4l.4 1"/><path class="st5" d="M7.8 27.7c.7-.2 1.4-.7 1.9-1.4l.5-.8c-.7.1-1.2.6-1.2.6h-.3l-.1-.3c.2-.9 0-1.6-.1-2l-.7 1.4-.2 1.4c-.1.6.1 1 .2 1.1"/><path class="st5" d="M9.2 25.2c1.2-.2 2.1-1.3 2.6-1.9-.7.1-1.2.4-1.2.4h-.3l-.1-.3c.3-.8.2-1.5.1-2-1.5 1.8-1.3 3.2-1.1 3.8"/><path class="st5" d="M10.9 22.8s.1 0 0 0c.8 0 1.5-.5 2-.8l.7-.6-1.2.2-.3-.1v-.3c.4-.8.5-1.5.5-1.9l-1.1 1.2c-.3.4-.5.9-.6 1.3v1"/><path class="st5" d="M15.9 19.7l-1.3.1-.3-.1v-.3c.5-.7.6-1.4.6-1.9-1.9 1.4-2 2.8-2 3.4h.1c1.3 0 2.4-.8 2.9-1.2"/><path class="st5" d="M18.3 18.5l-.7-.1H17a.2.2 0 0 1-.2-.2l.1-.3c.7-.6 1-1.1 1.1-1.4-2.2.8-2.7 2-2.8 2.6l.9.1a5 5 0 0 0 1.5-.3l.7-.4c.1 0 .1 0 0 0 .1 0 .1 0 0 0"/><path class="st5" d="M21 17.8l-1.2-.4a.2.2 0 0 1-.2-.2l.1-.3c.7-.4 1.1-.7 1.3-1-1.1.2-2 .5-2.6 1.1l-.5.8 1.5.3.9-.1.7-.2"/><path class="st5" d="M22.7 17a.2.2 0 0 1-.2-.2l.2-.2c.7-.2 1.2-.5 1.4-.7-1.1-.1-2.1.1-2.7.5-.4.2-.6.5-.7.6a4 4 0 0 0 2.5.7h.6c-.4-.4-1.1-.7-1.1-.7"/><path class="st5" d="M25.7 17.2l-.1-.3.2-.2 1.5-.4c-1.1-.3-2-.3-2.8 0-.4.1-.7.3-.8.5a3.8 3.8 0 0 0 2.9 1.3l-.9-.9m7.2 3.6c0-.3 0-.7-.2-1.2-.3-.9-1-1.5-2-1.8.1.4.4 1 .8 1.5v.3l-.3.1h-1.3c.6.4 1.8 1.1 2.8 1.1h.2"/><path class="st5" d="M30.6 19c-.6-.6-1.3-.9-2.1-.8l-.9.2c.7.5 1.4.8 2.1.8h.1l.8-.2c0 .1 0 0 0 0m-4.1-1.7c.4.3 1 .5 1.6.5l.8-.1 1.1-.3c-.4-.2-.8-.4-1.2-.4h-1.3c-.5 0-.8.1-1 .3 0-.1 0-.1 0 0"/><path d="M18.2 33.5c.1.2.4.2.7.2h3.2c-1.9-1.2-2.6-1-4-.4l.1.2m7.9-1.5l-.8-.3c-1-.4-1.8-1.1-1.9-1.1a.6.6 0 0 1-.1-.7c.2-.2.5-.2.7-.1l1.6 1 .7.2 1.3.4-.3-1.4c-1.3-.3-2.4-1.2-2.4-1.2l-.2-.3.1-.3c.2-.2.5-.2.7-.1 0 0 .7.6 1.6.9-.3-1.3-.8-2.5-1.4-3.7a3.5 3.5 0 0 0-1.9-1.7l-1.1-.2s-1.6 0-2.5 1.2c-.2.2-.7.8-.7 1.2 0 .2 0 .4.2.5.1 0 .3.1.8-.2l.2-.2c.2-.1.5-.1.6.1.2.2.1.5-.1.6l-.2.1c-.2.2-.6.5-1 1.1-.6.8-1.4 2.1-1.8 4.1v.1c1.3-.6 2.4-.8 4.8.7.9.6 2 .6 2.2.6h1.1c.3 0 1.1 0 1.4-.4l.1-.2c-.1-.2-.6-.4-1.7-.7" fill="#e53212"/><path class="st7" d="M21.4 50.4l.3-.4-.1-.2-.3-.1-.9.5c-.3.2-.7.6-.7.9l.1.2.8.1c.1-.4.4-.7.8-1m1.7.6l-.1-.2s-.2-.2-.7.1c-.4.2-.8.5-.9.8l.2.1c.4.1.9-.3 1.1-.4.1 0 .4-.2.4-.4m-5-2.3c-.1 0-.1 0 0 0-.4 0-.9.2-1.2.5-.2.2-.1.3-.1.4l.4.2h.2c.1-.4.4-.7.6-.9l.2-.2h-.1m.1 1.5c0 .1 0 .3.4.4l.2.1c.1-.4.5-.8 1-1.2l.2-.2v-.1l-.2-.2-.3-.1c-.3 0-.6.2-.9.5l-.4.8"/><path class="st7" d="M28.4 49.5l.6-.2.2-.4c-.2-.3-1-1.2-2.1-2l-1.4-.8c-.6-.2-1-.3-1.4-.1l-.5.3-.5.3c-.5.3-1.1.5-1.7.5-.5 0-1.1.1-1.5-.5-.2-.3-.3-.7-.2-1 .1-.3.5-.5 1-.8l.6-.3.5-.4.7-.5.4-.2-.5-.1c-.8-.1-1.3.2-2.1.8-.7.5-2.1.9-4.2 1.3-2 .4-4.8.8-8.3 1.2l.3 1.1c.4 1.4 1 2.7 1.6 3.9 1.2-.5 4.3-1.9 6.6-3.2.5-.4 1.2-.7 1.7-.6l.9.3c.4-.1.8-.1 1.1.1.4.2.6.4.6.6.5-.1.9-.1 1.3.3.2.2.4.4.4.7.5-.1.8.1 1 .3.3.3.4.7.4.9l-.2.5.7-.1.2-.1-.6-.8-.1-.3.1-.3c.2-.2.4-.1.6 0l.8 1.1c.2 0 .4 0 .6-.2l.2-.3-.4-.6-.9-.8-.2-.3.1-.3.3-.2.3.1 1.1.9.6.8c.3 0 .5-.1.7-.3l.1-.2a6.7 6.7 0 0 0-2.1-1.9.2.2 0 0 1-.2-.2v-.3l.2-.2h.3c1 .9 1.9 2 2.3 2.5"/><path class="st7" d="M23.1 45.6l.8-.4c1.4-.4 2.8.6 3.6 1 1 .7 1.8 1.5 2.2 2l.1.1.7.6c1.7 1.3 4.4 2.5 5.5 2.9a20 20 0 0 0 2-5.1c-2.2-.1-4.5-.6-6.1-1-1.8-.4-3.2-.9-3.2-.9l-1-.3c-1-.4-1.7-.6-2.4-.6h-.6c-.7 0-1.1 0-1.5.3l-.7.5-.6.5-.7.4-.6.3.1.2.7.1c.3 0 .9-.1 1.3-.4l.4-.2"/></svg>