<?xml version="1.0" encoding="utf-8"?>
<!-- Generator: Adobe Illustrator 19.2.1, SVG Export Plug-In . SVG Version: 6.00 Build 0)  -->
<svg version="1.1" id="Layer_1" xmlns="http://www.w3.org/2000/svg" xmlns:xlink="http://www.w3.org/1999/xlink" x="0px" y="0px"
	 viewBox="0 0 155 50" style="enable-background:new 0 0 155 50;" xml:space="preserve">
<style type="text/css">
	.st0{fill:#0086FF;}
	.st1{fill:#0D8CFF;}
	.st2{fill:#1992FF;}
	.st3{fill:#2698FF;}
	.st4{fill:#339EFF;}
	.st5{fill:#40A4FF;}
	.st6{fill:#4CAAFF;}
	.st7{fill:#59B0FF;}
	.st8{fill:#66B6FF;}
	.st9{fill:#73BCFF;}
	.st10{fill:#7FC2FF;}
	.st11{fill:#8CC9FF;}
	.st12{fill:#99CFFF;}
	.st13{fill:#A6D5FF;}
	.st14{fill:#B2DBFF;}
	.st15{fill:#BFE1FF;}
	.st16{fill:#CCE7FF;}
	.st17{fill:#D9EDFF;}
	.st18{fill:#E6F3FF;}
	.st19{fill:#F2F9FF;}
	.st20{fill:#FFFFFF;}
</style>
<g>
	<g>
		<g>
			<path class="st0" d="M24,0c2.6,0,4.7,2.6,7,3.4c2.4,0.8,5.7-0.1,7.7,1.4c2,1.5,2.2,4.8,3.7,6.9c1.5,2,4.6,3.2,5.4,5.6
				c0.8,2.3-1.1,5.2-1.1,7.7c0,2.6,1.8,5.4,1.1,7.7c-0.8,2.4-3.9,3.6-5.4,5.6c-1.5,2-1.7,5.4-3.7,6.9c-2,1.5-5.3,0.6-7.7,1.4
				c-2.3,0.8-4.5,3.4-7,3.4c-2.6,0-4.7-2.6-7-3.4c-2.4-0.8-5.7,0.1-7.7-1.4c-2-1.5-2.2-4.8-3.7-6.9c-1.5-2-4.6-3.2-5.4-5.6
				c-0.8-2.3,1.1-5.2,1.1-7.7c0-2.6-1.8-5.4-1.1-7.7c0.8-2.4,3.9-3.6,5.4-5.6c1.5-2,1.7-5.4,3.7-6.9c2-1.5,5.3-0.6,7.7-1.4
				C19.3,2.6,21.4,0,24,0"/>
		</g>
		<path class="st1" d="M24,0.6c2.5,0,4.6,2.6,6.9,3.3c2.3,0.8,5.5-0.1,7.5,1.4c2,1.4,2.2,4.7,3.6,6.7c1.4,2,4.5,3.1,5.3,5.5
			c0.7,2.3-1,5-1,7.5c0,2.5,1.8,5.3,1,7.5c-0.8,2.3-3.8,3.5-5.3,5.5c-1.4,2-1.6,5.3-3.6,6.7c-2,1.4-5.1,0.6-7.5,1.4
			c-2.3,0.7-4.3,3.3-6.9,3.3c-2.5,0-4.6-2.6-6.9-3.3c-2.3-0.8-5.5,0.1-7.5-1.4C7.7,43.3,7.5,40,6,38c-1.4-2-4.5-3.1-5.3-5.5
			c-0.7-2.3,1-5,1-7.5c0-2.5-1.8-5.3-1-7.5C1.5,15.1,4.6,13.9,6,12c1.4-2,1.6-5.3,3.6-6.7c2-1.4,5.1-0.6,7.5-1.4
			C19.4,3.2,21.5,0.6,24,0.6"/>
		<path class="st2" d="M24,1.2c2.4,0,4.5,2.5,6.7,3.2c2.3,0.7,5.4-0.1,7.3,1.3c1.9,1.4,2.1,4.6,3.5,6.5c1.4,1.9,4.4,3.1,5.1,5.4
			c0.7,2.2-1,4.9-1,7.3c0,2.4,1.7,5.1,1,7.3c-0.7,2.3-3.7,3.5-5.1,5.4c-1.4,1.9-1.6,5.1-3.5,6.5c-1.9,1.4-5,0.6-7.3,1.3
			c-2.2,0.7-4.2,3.2-6.7,3.2c-2.4,0-4.5-2.5-6.7-3.2c-2.3-0.7-5.4,0.1-7.3-1.3c-1.9-1.4-2.1-4.6-3.5-6.5c-1.4-1.9-4.4-3.1-5.1-5.4
			c-0.7-2.2,1-4.9,1-7.3c0-2.4-1.7-5.1-1-7.3c0.7-2.3,3.7-3.5,5.1-5.4c1.4-1.9,1.6-5.1,3.5-6.5c1.9-1.4,5-0.6,7.3-1.3
			C19.5,3.7,21.5,1.2,24,1.2"/>
		<path class="st3" d="M24,1.9c2.4,0,4.4,2.4,6.5,3.1c2.2,0.7,5.2-0.1,7.1,1.3c1.9,1.4,2.1,4.5,3.4,6.3c1.3,1.9,4.3,3,5,5.2
			c0.7,2.1-1,4.8-1,7.1c0,2.4,1.7,5,1,7.1c-0.7,2.2-3.6,3.4-5,5.2c-1.4,1.9-1.5,5-3.4,6.3c-1.9,1.3-4.9,0.6-7.1,1.3
			c-2.1,0.7-4.1,3.1-6.5,3.1c-2.4,0-4.4-2.4-6.5-3.1c-2.2-0.7-5.2,0.1-7.1-1.3c-1.9-1.4-2.1-4.5-3.4-6.3c-1.3-1.9-4.3-3-5-5.2
			c-0.7-2.1,1-4.8,1-7.1c0-2.4-1.7-5-1-7.1c0.7-2.2,3.6-3.4,5-5.2c1.4-1.9,1.6-5,3.4-6.3c1.9-1.4,4.9-0.6,7.1-1.3
			C19.6,4.3,21.6,1.9,24,1.9"/>
		<path class="st4" d="M24,2.5c2.3,0,4.2,2.4,6.3,3c2.2,0.7,5.1-0.1,6.9,1.3c1.8,1.3,2,4.4,3.3,6.2c1.3,1.8,4.1,2.9,4.8,5.1
			c0.7,2.1-0.9,4.6-0.9,7c0,2.3,1.6,4.9,0.9,7c-0.7,2.2-3.5,3.3-4.8,5.1c-1.3,1.8-1.5,4.9-3.3,6.2c-1.8,1.3-4.7,0.6-6.9,1.3
			c-2.1,0.7-4,3-6.3,3c-2.3,0-4.2-2.4-6.3-3c-2.2-0.7-5.1,0.1-6.9-1.3c-1.8-1.3-2-4.4-3.3-6.2c-1.3-1.8-4.1-2.9-4.8-5.1
			c-0.7-2.1,0.9-4.6,0.9-7c0-2.3-1.6-4.9-0.9-7c0.7-2.2,3.5-3.3,4.8-5.1c1.3-1.8,1.5-4.9,3.3-6.2c1.8-1.3,4.7-0.6,6.9-1.3
			C19.7,4.9,21.7,2.5,24,2.5"/>
		<path class="st5" d="M24,3.1c2.3,0,4.1,2.3,6.2,2.9c2.1,0.7,5,0,6.7,1.2c1.8,1.3,1.9,4.2,3.2,6c1.3,1.8,4,2.8,4.7,4.9
			c0.7,2-0.9,4.5-0.9,6.8c0,2.3,1.6,4.7,0.9,6.8c-0.7,2.1-3.4,3.2-4.7,4.9c-1.3,1.8-1.5,4.7-3.2,6c-1.8,1.3-4.6,0.5-6.7,1.2
			c-2,0.7-3.9,2.9-6.2,2.9c-2.3,0-4.1-2.3-6.1-2.9c-2.1-0.7-5,0-6.7-1.2c-1.8-1.3-1.9-4.2-3.2-6c-1.3-1.8-4-2.8-4.7-4.9
			c-0.7-2,0.9-4.5,0.9-6.8c0-2.3-1.6-4.7-0.9-6.8c0.7-2.1,3.4-3.2,4.7-4.9c1.3-1.8,1.5-4.7,3.2-6c1.8-1.3,4.6-0.5,6.7-1.2
			C19.9,5.4,21.7,3.1,24,3.1"/>
		<path class="st6" d="M24,3.8c2.2,0,4,2.2,6,2.9c2,0.7,4.8,0,6.5,1.2c1.7,1.3,1.9,4.1,3.1,5.8c1.2,1.7,3.9,2.7,4.6,4.8
			c0.6,2-0.9,4.4-0.9,6.6c0,2.2,1.5,4.6,0.9,6.6c-0.7,2-3.3,3.1-4.6,4.8c-1.3,1.7-1.4,4.6-3.1,5.8c-1.7,1.2-4.5,0.5-6.5,1.2
			c-2,0.6-3.8,2.9-6,2.9c-2.2,0-4-2.2-6-2.9c-2-0.7-4.8,0-6.5-1.2c-1.7-1.3-1.9-4.1-3.1-5.8c-1.2-1.7-3.9-2.7-4.6-4.8
			c-0.6-2,0.9-4.4,0.9-6.6c0-2.2-1.5-4.6-0.9-6.6c0.7-2,3.3-3.1,4.6-4.8c1.3-1.7,1.4-4.6,3.1-5.8C13.2,6.6,16,7.3,18,6.6
			C20,6,21.8,3.8,24,3.8"/>
		<path class="st7" d="M24,4.4c2.1,0,3.9,2.2,5.8,2.8c2,0.6,4.7,0,6.3,1.2c1.7,1.2,1.8,4,3.1,5.7c1.2,1.7,3.8,2.7,4.4,4.7
			c0.6,1.9-0.9,4.3-0.9,6.4c0,2.1,1.5,4.5,0.9,6.4c-0.6,2-3.2,3-4.4,4.6c-1.2,1.7-1.4,4.4-3.1,5.7c-1.7,1.2-4.3,0.5-6.3,1.2
			c-1.9,0.6-3.7,2.8-5.8,2.8c-2.1,0-3.9-2.2-5.8-2.8c-2-0.6-4.7,0-6.3-1.2c-1.7-1.2-1.8-4-3.1-5.7c-1.2-1.7-3.8-2.7-4.4-4.6
			c-0.6-1.9,0.9-4.3,0.9-6.4c0-2.1-1.5-4.5-0.9-6.4c0.6-2,3.2-3,4.4-4.7c1.2-1.7,1.4-4.4,3.1-5.7c1.7-1.2,4.3-0.5,6.3-1.2
			C20.1,6.5,21.8,4.4,24,4.4"/>
		<path class="st8" d="M24,5c2.1,0,3.8,2.1,5.6,2.7c1.9,0.6,4.5,0,6.1,1.1c1.6,1.2,1.8,3.9,3,5.5c1.2,1.6,3.7,2.6,4.3,4.5
			c0.6,1.9-0.8,4.1-0.8,6.2c0,2.1,1.4,4.3,0.8,6.2c-0.6,1.9-3.1,2.9-4.3,4.5c-1.2,1.6-1.3,4.3-3,5.5c-1.6,1.2-4.2,0.5-6.1,1.1
			C27.7,42.9,26,45,24,45c-2.1,0-3.8-2.1-5.6-2.7c-1.9-0.6-4.5,0-6.1-1.1c-1.6-1.2-1.8-3.9-3-5.5c-1.2-1.6-3.7-2.6-4.3-4.5
			c-0.6-1.9,0.8-4.1,0.8-6.2c0-2.1-1.4-4.3-0.8-6.2c0.6-1.9,3.1-2.9,4.3-4.5c1.2-1.6,1.3-4.3,3-5.5c1.6-1.2,4.2-0.5,6.1-1.1
			C20.2,7.1,21.9,5,24,5"/>
		<path class="st9" d="M24,5.6c2,0,3.6,2,5.4,2.6c1.9,0.6,4.4,0,5.9,1.1c1.6,1.1,1.7,3.7,2.9,5.3c1.1,1.6,3.6,2.5,4.2,4.4
			c0.6,1.8-0.8,4-0.8,6c0,2,1.4,4.2,0.8,6c-0.6,1.9-3,2.8-4.2,4.4c-1.1,1.6-1.3,4.2-2.9,5.3c-1.6,1.1-4.1,0.5-5.9,1.1
			c-1.8,0.6-3.5,2.6-5.4,2.6c-2,0-3.6-2-5.4-2.6c-1.9-0.6-4.4,0-5.9-1.1c-1.6-1.1-1.7-3.8-2.9-5.3c-1.1-1.6-3.6-2.5-4.2-4.4
			c-0.6-1.8,0.8-4,0.8-6c0-2-1.4-4.2-0.8-6c0.6-1.9,3-2.8,4.2-4.4c1.1-1.6,1.3-4.2,2.9-5.3c1.6-1.1,4.1-0.5,5.9-1.1
			C20.3,7.7,22,5.6,24,5.6"/>
		<path class="st10" d="M24,6.3c1.9,0,3.5,2,5.3,2.5c1.8,0.6,4.2,0,5.8,1.1c1.5,1.1,1.7,3.6,2.8,5.1c1.1,1.5,3.5,2.4,4,4.2
			c0.6,1.7-0.8,3.9-0.8,5.8c0,1.9,1.4,4.1,0.8,5.8c-0.6,1.8-2.9,2.7-4,4.2c-1.1,1.5-1.3,4-2.8,5.1c-1.5,1.1-3.9,0.5-5.8,1.1
			c-1.7,0.6-3.3,2.5-5.3,2.5c-1.9,0-3.5-2-5.3-2.5c-1.8-0.6-4.2,0-5.8-1.1c-1.5-1.1-1.7-3.6-2.8-5.1c-1.1-1.5-3.5-2.4-4-4.2
			c-0.6-1.7,0.8-3.9,0.8-5.8c0-1.9-1.4-4.1-0.8-5.8c0.6-1.8,2.9-2.7,4-4.2c1.1-1.5,1.3-4,2.8-5.1c1.5-1.1,3.9-0.5,5.8-1.1
			C20.4,8.2,22,6.3,24,6.3"/>
		<path class="st11" d="M24,6.9c1.9,0,3.4,1.9,5.1,2.4c1.7,0.6,4.1,0,5.6,1c1.5,1.1,1.6,3.5,2.7,5c1.1,1.5,3.3,2.3,3.9,4.1
			c0.5,1.7-0.8,3.7-0.8,5.6c0,1.9,1.3,3.9,0.8,5.6c-0.6,1.7-2.9,2.6-3.9,4.1c-1.1,1.5-1.2,3.9-2.7,5c-1.5,1.1-3.8,0.4-5.6,1
			c-1.7,0.5-3.2,2.4-5.1,2.4c-1.9,0-3.4-1.9-5.1-2.4c-1.7-0.6-4.1,0-5.6-1c-1.5-1.1-1.6-3.5-2.7-5c-1.1-1.5-3.3-2.3-3.9-4.1
			c-0.5-1.7,0.8-3.7,0.8-5.6c0-1.9-1.3-3.9-0.8-5.6c0.6-1.7,2.9-2.6,3.9-4.1c1.1-1.5,1.2-3.9,2.7-5c1.5-1.1,3.8-0.4,5.6-1
			C20.6,8.8,22.1,6.9,24,6.9"/>
		<path class="st12" d="M24,7.5c1.8,0,3.3,1.8,4.9,2.4c1.7,0.5,4,0,5.4,1c1.4,1,1.6,3.4,2.6,4.8c1,1.4,3.2,2.3,3.8,3.9
			c0.5,1.6-0.7,3.6-0.7,5.4c0,1.8,1.3,3.8,0.7,5.4c-0.5,1.7-2.8,2.5-3.8,3.9c-1,1.4-1.2,3.8-2.6,4.8c-1.4,1-3.7,0.4-5.4,1
			c-1.6,0.5-3.1,2.4-4.9,2.4c-1.8,0-3.3-1.8-4.9-2.4c-1.7-0.5-4,0-5.4-1c-1.4-1-1.6-3.4-2.6-4.8c-1-1.4-3.2-2.3-3.8-3.9
			c-0.5-1.6,0.7-3.6,0.7-5.4c0-1.8-1.3-3.8-0.7-5.4c0.5-1.7,2.8-2.5,3.8-3.9c1-1.4,1.2-3.8,2.6-4.8c1.4-1,3.7-0.4,5.4-1
			C20.7,9.3,22.2,7.5,24,7.5"/>
		<path class="st13" d="M24,8.1c1.7,0,3.2,1.8,4.7,2.3c1.6,0.5,3.8,0,5.2,0.9c1.4,1,1.5,3.3,2.5,4.6c1,1.4,3.1,2.2,3.6,3.8
			c0.5,1.6-0.7,3.5-0.7,5.2c0,1.7,1.2,3.6,0.7,5.2c-0.5,1.6-2.7,2.5-3.6,3.8c-1,1.4-1.1,3.6-2.5,4.6c-1.4,1-3.6,0.4-5.2,0.9
			c-1.6,0.5-3,2.3-4.7,2.3c-1.7,0-3.2-1.8-4.7-2.3c-1.6-0.5-3.8,0-5.2-0.9c-1.4-1-1.5-3.3-2.5-4.6c-1-1.4-3.1-2.2-3.6-3.8
			c-0.5-1.6,0.7-3.5,0.7-5.2c0-1.7-1.2-3.6-0.7-5.2c0.5-1.6,2.7-2.5,3.6-3.8c1-1.4,1.1-3.6,2.5-4.6c1.4-1,3.6-0.4,5.2-0.9
			C20.8,9.9,22.2,8.1,24,8.1"/>
		<path class="st14" d="M24,8.8c1.7,0,3.1,1.7,4.6,2.2c1.6,0.5,3.7,0,5,0.9c1.3,1,1.4,3.1,2.4,4.5c0.9,1.3,3,2.1,3.5,3.7
			c0.5,1.5-0.7,3.3-0.7,5c0,1.7,1.2,3.5,0.7,5c-0.5,1.6-2.6,2.4-3.5,3.7c-1,1.3-1.1,3.5-2.4,4.5c-1.3,0.9-3.4,0.4-5,0.9
			c-1.5,0.5-2.9,2.2-4.6,2.2c-1.7,0-3.1-1.7-4.6-2.2c-1.6-0.5-3.7,0-5-0.9c-1.3-1-1.4-3.1-2.4-4.5c-0.9-1.3-3-2.1-3.5-3.7
			c-0.5-1.5,0.7-3.3,0.7-5c0-1.7-1.2-3.5-0.7-5c0.5-1.6,2.6-2.4,3.5-3.7c1-1.3,1.1-3.5,2.4-4.5c1.3-0.9,3.4-0.4,5-0.9
			C20.9,10.5,22.3,8.8,24,8.8"/>
		<path class="st15" d="M24,9.4c1.6,0,2.9,1.6,4.4,2.1c1.5,0.5,3.5,0,4.8,0.9c1.3,0.9,1.4,3,2.3,4.3c0.9,1.3,2.9,2,3.4,3.5
			c0.5,1.5-0.7,3.2-0.7,4.8c0,1.6,1.1,3.4,0.7,4.8c-0.5,1.5-2.5,2.3-3.4,3.5c-0.9,1.3-1,3.4-2.3,4.3c-1.3,0.9-3.3,0.4-4.8,0.9
			c-1.5,0.5-2.8,2.1-4.4,2.1c-1.6,0-2.9-1.6-4.4-2.1c-1.5-0.5-3.5,0-4.8-0.9c-1.3-0.9-1.4-3-2.3-4.3c-0.9-1.3-2.9-2-3.4-3.5
			c-0.5-1.5,0.7-3.2,0.7-4.8c0-1.6-1.1-3.4-0.7-4.8c0.5-1.5,2.5-2.3,3.4-3.5c0.9-1.3,1-3.4,2.3-4.3c1.3-0.9,3.3-0.4,4.8-0.9
			C21,11,22.4,9.4,24,9.4"/>
		<path class="st16" d="M24,10c1.5,0,2.8,1.6,4.2,2c1.4,0.5,3.4,0,4.6,0.8c1.2,0.9,1.3,2.9,2.2,4.1c0.9,1.2,2.8,1.9,3.2,3.4
			c0.5,1.4-0.6,3.1-0.6,4.6c0,1.5,1.1,3.2,0.6,4.6c-0.5,1.4-2.4,2.2-3.2,3.4c-0.9,1.2-1,3.2-2.2,4.1c-1.2,0.9-3.2,0.4-4.6,0.8
			c-1.4,0.5-2.7,2-4.2,2c-1.5,0-2.8-1.6-4.2-2c-1.4-0.5-3.4,0-4.6-0.8c-1.2-0.9-1.3-2.9-2.2-4.1c-0.9-1.2-2.8-1.9-3.2-3.4
			c-0.5-1.4,0.6-3.1,0.6-4.6c0-1.5-1.1-3.2-0.6-4.6c0.5-1.4,2.4-2.2,3.2-3.4c0.9-1.2,1-3.2,2.2-4.1c1.2-0.9,3.2-0.4,4.6-0.8
			C21.1,11.6,22.4,10,24,10"/>
		<path class="st17" d="M24,10.6c1.5,0,2.7,1.5,4,1.9c1.4,0.5,3.3,0,4.4,0.8c1.2,0.8,1.3,2.8,2.1,3.9c0.8,1.2,2.6,1.9,3.1,3.2
			c0.4,1.3-0.6,3-0.6,4.4c0,1.5,1,3.1,0.6,4.4c-0.4,1.4-2.3,2.1-3.1,3.2c-0.8,1.2-1,3.1-2.1,3.9c-1.2,0.8-3,0.4-4.4,0.8
			c-1.3,0.4-2.6,1.9-4,1.9c-1.5,0-2.7-1.5-4-1.9c-1.4-0.4-3.3,0-4.4-0.8c-1.2-0.8-1.3-2.8-2.1-3.9c-0.8-1.2-2.6-1.9-3.1-3.2
			c-0.4-1.3,0.6-3,0.6-4.4c0-1.5-1-3.1-0.6-4.4c0.4-1.4,2.3-2.1,3.1-3.2c0.8-1.2,1-3.1,2.1-3.9c1.2-0.8,3-0.4,4.4-0.8
			C21.3,12.1,22.5,10.6,24,10.6"/>
		<path class="st18" d="M24,11.3c1.4,0,2.6,1.4,3.9,1.9c1.3,0.4,3.1,0,4.2,0.8c1.1,0.8,1.2,2.7,2,3.8c0.8,1.1,2.5,1.8,3,3.1
			c0.4,1.3-0.6,2.8-0.6,4.2c0,1.4,1,3,0.6,4.3c-0.4,1.3-2.2,2-3,3.1c-0.8,1.1-0.9,3-2,3.8c-1.1,0.8-2.9,0.3-4.2,0.8
			c-1.3,0.4-2.4,1.9-3.9,1.9c-1.4,0-2.6-1.4-3.9-1.9c-1.3-0.4-3.1,0-4.2-0.8c-1.1-0.8-1.2-2.7-2-3.8c-0.8-1.1-2.5-1.8-3-3.1
			c-0.4-1.3,0.6-2.8,0.6-4.3c0-1.4-1-3-0.6-4.2c0.4-1.3,2.2-2,3-3.1c0.8-1.1,0.9-3,2-3.8c1.1-0.8,2.9-0.3,4.2-0.8
			C21.4,12.7,22.6,11.3,24,11.3"/>
		<path class="st19" d="M24,11.9c1.4,0,2.5,1.4,3.7,1.8c1.3,0.4,3,0,4,0.7c1.1,0.8,1.2,2.5,1.9,3.6c0.8,1.1,2.4,1.7,2.8,3
			c0.4,1.2-0.6,2.7-0.6,4.1c0,1.4,0.9,2.8,0.6,4.1c-0.4,1.3-2.1,1.9-2.8,3c-0.8,1.1-0.9,2.8-1.9,3.6c-1.1,0.8-2.8,0.3-4,0.7
			c-1.2,0.4-2.3,1.8-3.7,1.8c-1.4,0-2.5-1.4-3.7-1.8c-1.3-0.4-3,0-4-0.7c-1.1-0.8-1.2-2.5-1.9-3.6c-0.8-1.1-2.4-1.7-2.8-3
			C11.1,27.8,12,26.4,12,25c0-1.4-0.9-2.8-0.5-4.1c0.4-1.3,2.1-1.9,2.8-3c0.8-1.1,0.9-2.8,1.9-3.6c1.1-0.8,2.8-0.3,4-0.7
			C21.5,13.2,22.6,11.9,24,11.9"/>
		<g>
			<path class="st20" d="M24,12.5c1.3,0,2.4,1.3,3.5,1.7c1.2,0.4,2.8,0,3.8,0.7c1,0.7,1.1,2.4,1.9,3.4c0.7,1,2.3,1.6,2.7,2.8
				c0.4,1.2-0.5,2.6-0.5,3.9c0,1.3,0.9,2.7,0.5,3.9c-0.4,1.2-2,1.8-2.7,2.8c-0.7,1-0.8,2.7-1.9,3.4c-1,0.7-2.6,0.3-3.8,0.7
				c-1.2,0.4-2.2,1.7-3.5,1.7c-1.3,0-2.4-1.3-3.5-1.7c-1.2-0.4-2.8,0-3.8-0.7c-1-0.7-1.1-2.4-1.9-3.4c-0.7-1-2.3-1.6-2.7-2.8
				c-0.4-1.2,0.5-2.6,0.5-3.9c0-1.3-0.9-2.7-0.5-3.9c0.4-1.2,2-1.8,2.7-2.8c0.7-1,0.8-2.7,1.9-3.4c1-0.7,2.6-0.3,3.8-0.7
				C21.6,13.8,22.7,12.5,24,12.5"/>
		</g>
	</g>
	<g>
		<g>
			<path class="st0" d="M57.9,15.5l2.9-6.3C60.9,9,61,8.9,61.3,8.9h0c0.2,0,0.4,0.1,0.5,0.4l2.9,6.3c0,0.1,0.1,0.1,0.1,0.2
				c0,0.2-0.2,0.4-0.4,0.4c-0.2,0-0.3-0.1-0.4-0.3l-0.7-1.6h-3.9l-0.7,1.7c-0.1,0.2-0.2,0.3-0.4,0.3c-0.2,0-0.4-0.2-0.4-0.4
				C57.8,15.7,57.8,15.6,57.9,15.5z M62.9,13.4l-1.6-3.6l-1.6,3.6H62.9z"/>
		</g>
		<g>
			<path class="st0" d="M67,9.3c0-0.2,0.2-0.4,0.4-0.4h2.7c0.9,0,1.6,0.3,2,0.7c0.3,0.3,0.5,0.8,0.5,1.4v0c0,1.2-0.8,1.9-1.9,2.1
				l1.8,2.3c0.1,0.1,0.1,0.2,0.1,0.3c0,0.2-0.2,0.4-0.4,0.4c-0.2,0-0.3-0.1-0.4-0.2l-2-2.6h-2v2.4c0,0.2-0.2,0.4-0.4,0.4
				c-0.2,0-0.4-0.2-0.4-0.4V9.3z M70,12.6c1.1,0,1.8-0.5,1.8-1.5v0c0-0.9-0.7-1.4-1.8-1.4h-2.2v2.9H70z"/>
		</g>
		<g>
			<path class="st0" d="M74.8,12.5L74.8,12.5c0-2,1.4-3.7,3.6-3.7c1.1,0,1.8,0.3,2.4,0.8C80.9,9.7,81,9.8,81,9.9
				c0,0.2-0.2,0.4-0.4,0.4c-0.1,0-0.2,0-0.3-0.1c-0.5-0.4-1.1-0.7-2-0.7c-1.6,0-2.7,1.3-2.7,2.9v0c0,1.7,1.1,3,2.8,3
				c0.8,0,1.6-0.3,2.1-0.7V13h-1.9c-0.2,0-0.4-0.2-0.4-0.4c0-0.2,0.2-0.4,0.4-0.4h2.3c0.2,0,0.4,0.2,0.4,0.4v2.2
				c0,0.2-0.1,0.4-0.3,0.5c-0.7,0.5-1.5,0.9-2.6,0.9C76.2,16.2,74.8,14.6,74.8,12.5z"/>
		</g>
		<g>
			<path class="st0" d="M83.9,15.6V9.3c0-0.2,0.2-0.4,0.4-0.4h4.4c0.2,0,0.4,0.2,0.4,0.4c0,0.2-0.2,0.4-0.4,0.4h-4v2.4h3.6
				c0.2,0,0.4,0.2,0.4,0.4c0,0.2-0.2,0.4-0.4,0.4h-3.6v2.5h4.1c0.2,0,0.4,0.2,0.4,0.4s-0.2,0.4-0.4,0.4h-4.5
				C84,16.1,83.9,15.9,83.9,15.6z"/>
		</g>
		<g>
			<path class="st0" d="M91.4,9.3c0-0.2,0.2-0.4,0.4-0.4h0.1c0.2,0,0.3,0.1,0.4,0.2l4.3,5.5V9.3c0-0.2,0.2-0.4,0.4-0.4
				c0.2,0,0.4,0.2,0.4,0.4v6.4c0,0.2-0.2,0.4-0.4,0.4h0c-0.2,0-0.3-0.1-0.4-0.2l-4.4-5.6v5.5c0,0.2-0.2,0.4-0.4,0.4
				c-0.2,0-0.4-0.2-0.4-0.4V9.3z"/>
		</g>
		<g>
			<path class="st0" d="M102.1,9.7H100c-0.2,0-0.4-0.2-0.4-0.4c0-0.2,0.2-0.4,0.4-0.4h4.9c0.2,0,0.4,0.2,0.4,0.4
				c0,0.2-0.2,0.4-0.4,0.4h-2.1v6c0,0.2-0.2,0.4-0.4,0.4c-0.2,0-0.4-0.2-0.4-0.4V9.7z"/>
		</g>
		<g>
			<path class="st0" d="M107.6,9.3c0-0.2,0.2-0.4,0.4-0.4c0.2,0,0.4,0.2,0.4,0.4v6.4c0,0.2-0.2,0.4-0.4,0.4c-0.2,0-0.4-0.2-0.4-0.4
				V9.3z"/>
		</g>
		<g>
			<path class="st0" d="M111.3,9.3c0-0.2,0.2-0.4,0.4-0.4h0.1c0.2,0,0.3,0.1,0.4,0.2l4.3,5.5V9.3c0-0.2,0.2-0.4,0.4-0.4
				c0.2,0,0.4,0.2,0.4,0.4v6.4c0,0.2-0.2,0.4-0.4,0.4h0c-0.2,0-0.3-0.1-0.4-0.2l-4.4-5.6v5.5c0,0.2-0.2,0.4-0.4,0.4
				c-0.2,0-0.4-0.2-0.4-0.4V9.3z"/>
		</g>
		<g>
			<path class="st0" d="M119.6,15.5l2.9-6.3c0.1-0.2,0.3-0.4,0.5-0.4h0c0.2,0,0.4,0.1,0.5,0.4l2.9,6.3c0,0.1,0.1,0.1,0.1,0.2
				c0,0.2-0.2,0.4-0.4,0.4c-0.2,0-0.3-0.1-0.4-0.3l-0.7-1.6h-3.9l-0.7,1.7c-0.1,0.2-0.2,0.3-0.4,0.3c-0.2,0-0.4-0.2-0.4-0.4
				C119.6,15.7,119.6,15.6,119.6,15.5z M124.7,13.4L123,9.8l-1.6,3.6H124.7z"/>
		</g>
		<g>
			<path class="st0" d="M58.1,27.3l2.2-1.9c1-0.8,1.3-1.3,1.3-1.9c0-0.7-0.5-1.1-1.1-1.1c-0.6,0-1,0.3-1.4,0.8
				c-0.1,0.1-0.2,0.2-0.4,0.2c-0.3,0-0.6-0.3-0.6-0.6c0-0.1,0.1-0.3,0.1-0.4c0.6-0.7,1.2-1.1,2.4-1.1c1.4,0,2.3,0.9,2.3,2.1v0
				c0,1.1-0.6,1.7-1.8,2.8l-1.5,1.2h2.9c0.3,0,0.5,0.2,0.5,0.5c0,0.3-0.2,0.5-0.5,0.5h-4c-0.4,0-0.7-0.2-0.7-0.6
				C57.7,27.7,57.9,27.5,58.1,27.3z"/>
		</g>
		<g>
			<path class="st0" d="M64.9,25L64.9,25c0-2.1,1.2-3.7,3.1-3.7c1.9,0,3.1,1.6,3.1,3.7v0c0,2-1.2,3.7-3.1,3.7
				C66.1,28.7,64.9,27.1,64.9,25z M69.8,25L69.8,25c0-1.4-0.7-2.6-1.8-2.6s-1.8,1.1-1.8,2.5v0c0,1.4,0.7,2.5,1.8,2.5
				C69.1,27.6,69.8,26.4,69.8,25z"/>
		</g>
		<g>
			<path class="st0" d="M73,25L73,25c0-2.1,1.2-3.7,3.1-3.7c1.9,0,3.1,1.6,3.1,3.7v0c0,2-1.2,3.7-3.1,3.7C74.2,28.7,73,27.1,73,25z
				 M77.9,25L77.9,25c0-1.4-0.7-2.6-1.8-2.6c-1.1,0-1.8,1.1-1.8,2.5v0c0,1.4,0.7,2.5,1.8,2.5C77.2,27.6,77.9,26.4,77.9,25z"/>
		</g>
		<g>
			<path class="st0" d="M84.8,27.7l2.6-5.9c0.1-0.3,0.4-0.5,0.8-0.5h0.1c0.4,0,0.6,0.2,0.7,0.5l2.6,5.9c0.1,0.1,0.1,0.2,0.1,0.3
				c0,0.3-0.3,0.6-0.6,0.6c-0.3,0-0.5-0.2-0.6-0.4L90,26.8h-3.5l-0.6,1.4c-0.1,0.3-0.3,0.4-0.6,0.4c-0.3,0-0.6-0.3-0.6-0.6
				C84.8,27.9,84.8,27.8,84.8,27.7z M89.5,25.7l-1.2-2.9L87,25.7H89.5z"/>
		</g>
		<g>
			<path class="st0" d="M93.9,22c0-0.3,0.3-0.6,0.6-0.6h0.1c0.3,0,0.5,0.2,0.7,0.4l3.6,4.6V22c0-0.3,0.3-0.6,0.6-0.6
				c0.3,0,0.6,0.3,0.6,0.6v6c0,0.3-0.3,0.6-0.6,0.6h-0.1c-0.3,0-0.5-0.2-0.7-0.4l-3.7-4.7V28c0,0.3-0.3,0.6-0.6,0.6
				c-0.3,0-0.6-0.3-0.6-0.6V22z M95.5,21c-0.2,0-0.4-0.2-0.4-0.3c0-0.1,0-0.2,0-0.2c0.2-0.6,0.5-0.9,1-0.9c0.6,0,1.1,0.4,1.5,0.4
				c0.2,0,0.3-0.1,0.5-0.3c0.1-0.1,0.2-0.2,0.3-0.2c0.2,0,0.4,0.2,0.4,0.3c0,0.1,0,0.2,0,0.2c-0.2,0.6-0.5,0.9-1,0.9
				c-0.6,0-1.1-0.4-1.5-0.4c-0.2,0-0.3,0.1-0.5,0.3C95.8,20.9,95.7,21,95.5,21z"/>
		</g>
		<g>
			<path class="st0" d="M102.3,25L102.3,25c0-2,1.5-3.7,3.7-3.7c2.2,0,3.7,1.7,3.7,3.7v0c0,2-1.5,3.7-3.7,3.7
				C103.9,28.7,102.3,27,102.3,25z M108.5,25L108.5,25c0-1.4-1-2.5-2.4-2.5c-1.4,0-2.4,1.1-2.4,2.5v0c0,1.4,1,2.5,2.4,2.5
				C107.5,27.5,108.5,26.4,108.5,25z"/>
		</g>
		<g>
			<path class="st0" d="M111.8,27.8c-0.1-0.1-0.2-0.3-0.2-0.5c0-0.3,0.3-0.6,0.6-0.6c0.2,0,0.3,0,0.4,0.1c0.6,0.5,1.2,0.7,2,0.7
				c0.8,0,1.3-0.4,1.3-0.9v0c0-0.5-0.3-0.8-1.6-1.1c-1.5-0.4-2.4-0.8-2.4-2.1v0c0-1.2,1-2.1,2.4-2.1c0.9,0,1.6,0.2,2.3,0.7
				c0.1,0.1,0.3,0.3,0.3,0.5c0,0.3-0.3,0.6-0.6,0.6c-0.1,0-0.2,0-0.3-0.1c-0.5-0.4-1.1-0.5-1.6-0.5c-0.7,0-1.2,0.4-1.2,0.8v0
				c0,0.5,0.3,0.8,1.7,1.1c1.5,0.4,2.3,0.9,2.3,2.1v0c0,1.3-1,2.1-2.5,2.1C113.5,28.7,112.6,28.4,111.8,27.8z"/>
		</g>
		<g>
			<path class="st0" d="M123.1,22.1c0-0.4,0.3-0.6,0.6-0.6h2c2.2,0,3.8,1.5,3.8,3.5v0c0,2-1.5,3.6-3.8,3.6h-2
				c-0.4,0-0.6-0.3-0.6-0.6V22.1z M125.7,27.4c1.5,0,2.5-1,2.5-2.4v0c0-1.4-1-2.4-2.5-2.4h-1.4v4.8H125.7z"/>
		</g>
		<g>
			<path class="st0" d="M131.8,27.9v-5.9c0-0.4,0.3-0.6,0.6-0.6h4.1c0.3,0,0.6,0.3,0.6,0.6c0,0.3-0.3,0.6-0.6,0.6H133v1.9h3.1
				c0.3,0,0.6,0.3,0.6,0.6c0,0.3-0.3,0.5-0.6,0.5H133v1.9h3.6c0.3,0,0.6,0.3,0.6,0.6c0,0.3-0.3,0.6-0.6,0.6h-4.2
				C132,28.6,131.8,28.3,131.8,27.9z"/>
		</g>
		<g>
			<path class="st0" d="M58.3,34.5c0-0.3,0.3-0.6,0.6-0.6c0.3,0,0.6,0.3,0.6,0.6v6c0,0.3-0.3,0.6-0.6,0.6c-0.4,0-0.6-0.3-0.6-0.6
				V34.5z"/>
		</g>
		<g>
			<path class="st0" d="M62.2,34.5c0-0.3,0.3-0.6,0.6-0.6H63c0.3,0,0.5,0.2,0.7,0.4l3.6,4.6v-4.4c0-0.3,0.3-0.6,0.6-0.6
				c0.3,0,0.6,0.3,0.6,0.6v6c0,0.3-0.3,0.6-0.6,0.6h-0.1c-0.3,0-0.5-0.2-0.7-0.4L63.4,36v4.5c0,0.3-0.3,0.6-0.6,0.6
				c-0.3,0-0.6-0.3-0.6-0.6V34.5z"/>
		</g>
		<g>
			<path class="st0" d="M71,34.6c0-0.4,0.3-0.6,0.6-0.6h2c2.2,0,3.8,1.5,3.8,3.5v0c0,2-1.5,3.6-3.8,3.6h-2c-0.4,0-0.6-0.3-0.6-0.6
				V34.6z M73.6,39.9c1.5,0,2.5-1,2.5-2.4v0c0-1.4-1-2.4-2.5-2.4h-1.4v4.8H73.6z"/>
		</g>
		<g>
			<path class="st0" d="M79.7,40.4v-5.9c0-0.4,0.3-0.6,0.6-0.6h4.1c0.3,0,0.6,0.3,0.6,0.6c0,0.3-0.3,0.6-0.6,0.6h-3.5v1.8H84
				c0.3,0,0.6,0.3,0.6,0.6c0,0.3-0.3,0.5-0.6,0.5h-3.1v1.9h3.6c0.3,0,0.6,0.3,0.6,0.6c0,0.3-0.3,0.6-0.6,0.6h-4.2
				C80,41.1,79.7,40.8,79.7,40.4z"/>
		</g>
		<g>
			<path class="st0" d="M87.3,34.6c0-0.4,0.3-0.6,0.6-0.6h2.2c1.7,0,2.7,0.9,2.7,2.4v0c0,1.6-1.3,2.4-2.8,2.4h-1.4v1.7
				c0,0.3-0.3,0.6-0.6,0.6c-0.4,0-0.6-0.3-0.6-0.6V34.6z M90,37.6c0.9,0,1.5-0.5,1.5-1.3v0c0-0.8-0.6-1.3-1.5-1.3h-1.5v2.6H90z"/>
		</g>
		<g>
			<path class="st0" d="M94.8,40.4v-5.9c0-0.4,0.3-0.6,0.6-0.6h4.1c0.3,0,0.6,0.3,0.6,0.6c0,0.3-0.3,0.6-0.6,0.6h-3.5v1.8h3.1
				c0.3,0,0.6,0.3,0.6,0.6c0,0.3-0.3,0.5-0.6,0.5h-3.1v1.9h3.6c0.3,0,0.6,0.3,0.6,0.6c0,0.3-0.3,0.6-0.6,0.6h-4.2
				C95.1,41.1,94.8,40.8,94.8,40.4z"/>
		</g>
		<g>
			<path class="st0" d="M102.4,34.5c0-0.3,0.3-0.6,0.6-0.6h0.1c0.3,0,0.5,0.2,0.7,0.4l3.6,4.6v-4.4c0-0.3,0.3-0.6,0.6-0.6
				c0.3,0,0.6,0.3,0.6,0.6v6c0,0.3-0.3,0.6-0.6,0.6h-0.1c-0.3,0-0.5-0.2-0.7-0.4l-3.7-4.7v4.5c0,0.3-0.3,0.6-0.6,0.6
				c-0.3,0-0.6-0.3-0.6-0.6V34.5z"/>
		</g>
		<g>
			<path class="st0" d="M111.2,34.6c0-0.4,0.3-0.6,0.6-0.6h2c2.2,0,3.8,1.5,3.8,3.5v0c0,2-1.5,3.6-3.8,3.6h-2
				c-0.4,0-0.6-0.3-0.6-0.6V34.6z M113.8,39.9c1.5,0,2.5-1,2.5-2.4v0c0-1.4-1-2.4-2.5-2.4h-1.4v4.8H113.8z"/>
		</g>
		<g>
			<path class="st0" d="M119.9,40.4v-5.9c0-0.4,0.3-0.6,0.6-0.6h4.1c0.3,0,0.6,0.3,0.6,0.6c0,0.3-0.3,0.6-0.6,0.6h-3.5v1.8h3.1
				c0.3,0,0.6,0.3,0.6,0.6c0,0.3-0.3,0.5-0.6,0.5h-3.1v1.9h3.6c0.3,0,0.6,0.3,0.6,0.6c0,0.3-0.3,0.6-0.6,0.6h-4.2
				C120.1,41.1,119.9,40.8,119.9,40.4z"/>
		</g>
		<g>
			<path class="st0" d="M127.4,34.5c0-0.3,0.3-0.6,0.6-0.6h0.1c0.3,0,0.5,0.2,0.7,0.4l3.6,4.6v-4.4c0-0.3,0.3-0.6,0.6-0.6
				c0.3,0,0.6,0.3,0.6,0.6v6c0,0.3-0.3,0.6-0.6,0.6H133c-0.3,0-0.5-0.2-0.7-0.4l-3.7-4.7v4.5c0,0.3-0.3,0.6-0.6,0.6
				c-0.3,0-0.6-0.3-0.6-0.6V34.5z"/>
		</g>
		<g>
			<path class="st0" d="M135.9,37.5L135.9,37.5c0-2,1.5-3.7,3.7-3.7c1.1,0,1.8,0.3,2.4,0.8c0.1,0.1,0.2,0.3,0.2,0.5
				c0,0.3-0.3,0.6-0.6,0.6c-0.2,0-0.3-0.1-0.4-0.1c-0.5-0.4-1-0.6-1.7-0.6c-1.4,0-2.3,1.1-2.3,2.5v0c0,1.4,1,2.5,2.3,2.5
				c0.8,0,1.3-0.2,1.8-0.7c0.1-0.1,0.2-0.1,0.4-0.1c0.3,0,0.6,0.3,0.6,0.6c0,0.2-0.1,0.3-0.2,0.4c-0.7,0.6-1.4,1-2.6,1
				C137.4,41.2,135.9,39.6,135.9,37.5z"/>
		</g>
		<g>
			<path class="st0" d="M144.5,34.5c0-0.3,0.3-0.6,0.6-0.6c0.3,0,0.6,0.3,0.6,0.6v6c0,0.3-0.3,0.6-0.6,0.6c-0.4,0-0.6-0.3-0.6-0.6
				V34.5z"/>
		</g>
		<g>
			<path class="st0" d="M148,40.2l2.6-5.9c0.1-0.3,0.4-0.5,0.8-0.5h0.1c0.4,0,0.6,0.2,0.7,0.5l2.6,5.9c0.1,0.1,0.1,0.2,0.1,0.3
				c0,0.3-0.3,0.6-0.6,0.6c-0.3,0-0.5-0.2-0.6-0.4l-0.6-1.3h-3.5l-0.6,1.4c-0.1,0.3-0.3,0.4-0.6,0.4c-0.3,0-0.6-0.3-0.6-0.6
				C148,40.4,148,40.3,148,40.2z M152.7,38.2l-1.2-2.9l-1.2,2.9H152.7z"/>
		</g>
	</g>
</g>
</svg>
