<?xml version="1.0" encoding="utf-8"?>
<!-- Generator: Adobe Illustrator 27.9.0, SVG Export Plug-In . SVG Version: 6.00 Build 0)  -->
<svg version="1.1" id="Layer_1" xmlns="http://www.w3.org/2000/svg" xmlns:xlink="http://www.w3.org/1999/xlink" x="0px" y="0px"
	 viewBox="0 0 50.5 50.5" style="enable-background:new 0 0 50.5 50.5;" xml:space="preserve">
<g>
	<polygon points="28.202,31.346 29.475,31.346 28.843,29.732 	"/>
	<path d="M34.632,29.302h-0.641v2.887h0.641c0.941,0,1.565-0.519,1.565-1.435v-0.016C36.197,29.83,35.573,29.302,34.632,29.302z"/>
	<path d="M45.583,2.119H4.917c-1.545,0-2.798,1.253-2.798,2.798v40.665c0,1.545,1.253,2.798,2.798,2.798h40.665
		c1.545,0,2.798-1.253,2.798-2.798V4.917C48.381,3.372,47.128,2.119,45.583,2.119z M30.702,16.802c2.007,0,3.479,1.04,3.479,2.59
		c0,1.55-1.367,2.069-1.367,2.069c0.521,0.209,1.732,0.927,1.732,2.204c0,1.277-1.316,2.762-3.896,2.762
		c-2.58,0-3.537-1.44-3.537-1.44l1.251-1.671c0,0,1.085,0.909,2.238,0.909c0.957,0,1.221-0.391,1.221-0.782
		c0-1.049-2.466-0.952-2.466-0.952v-1.881c1.739,0,2.121-0.452,2.121-0.824c0-0.155,0.039-0.746-0.962-0.746
		c-1,0-1.829,0.776-1.829,0.776l-1.439-1.739C27.247,18.078,28.694,16.802,30.702,16.802z M22.622,16.809
		c2.605,0,4.821,2.208,4.821,4.813s-2.216,4.812-4.821,4.812s-4.781-2.207-4.781-4.812S20.016,16.809,22.622,16.809z M5.967,23.047
		l2.167-1.432l-2.167-1.432v-1.849l4.965,3.281l-4.965,3.281V23.047z M9.961,24.198l4.07-3.202c0.277-0.217,0.439-0.549,0.44-0.901
		c0.002-0.448-0.361-0.812-0.809-0.812c-1.074,0-1.803,1.195-1.803,1.195l-1.86-1.59c0,0,1.356-2.083,3.738-2.083
		c2.098,0,3.54,1.274,3.54,3.046c0,1.551-1.012,2.327-1.012,2.327l-2.318,1.803h3.361v2.258H9.961V24.198z M14.344,33.584h-4.322
		v-5.677h1.573v4.298h2.749V33.584z M19.461,33.584h-4.606v-5.677h4.565v1.338h-3.008v0.859h2.725v1.24h-2.725v0.9h3.049V33.584z
		 M25.42,32.822c-0.6,0.495-1.435,0.876-2.465,0.876c-1.767,0-3.089-1.217-3.089-2.935v-0.016c0-1.655,1.298-2.952,3.057-2.952
		c0.998,0,1.703,0.308,2.303,0.827l-0.924,1.111c-0.406-0.341-0.811-0.536-1.371-0.536c-0.819,0-1.452,0.69-1.452,1.557v0.016
		c0,0.916,0.641,1.573,1.54,1.573c0.381,0,0.673-0.081,0.908-0.235v-0.689h-1.119v-1.152h2.612V32.822z M30.343,33.584l-0.414-1.014
		H27.74l-0.405,1.014H25.68l2.417-5.717h1.516l2.417,5.717H30.343z M37.811,30.73c0,1.638-1.192,2.854-3.236,2.854h-2.157l0-5.677
		h2.189c2.027,0,3.203,1.168,3.203,2.806V30.73z M44.38,30.746c0,1.63-1.314,2.952-3.065,2.952s-3.049-1.306-3.049-2.936v-0.016
		c0-1.63,1.314-2.952,3.065-2.952S44.38,29.1,44.38,30.73V30.746z M39.713,26.434c-2.605,0-4.781-2.207-4.781-4.812
		s2.176-4.813,4.781-4.813s4.821,2.208,4.821,4.813S42.318,26.434,39.713,26.434z"/>
	<path d="M41.314,29.213c-0.859,0-1.435,0.698-1.435,1.516v0.016c0,0.819,0.592,1.533,1.452,1.533
		c0.868-0.001,1.443-0.697,1.443-1.516v-0.016C42.774,29.927,42.182,29.213,41.314,29.213z"/>
	<path d="M39.715,19.299c-1.273,0-2.309,1.036-2.309,2.309s1.063,2.336,2.336,2.336s2.316-1.063,2.316-2.336
		S40.988,19.299,39.715,19.299z"/>
	<path d="M22.651,23.944c1.273,0,2.316-1.063,2.316-2.336s-1.07-2.309-2.343-2.309s-2.309,1.036-2.309,2.309
		S21.378,23.944,22.651,23.944z"/>
</g>
</svg>
