<?xml version="1.0" encoding="utf-8"?>
<!-- Generator: Adobe Illustrator 27.9.0, SVG Export Plug-In . SVG Version: 6.00 Build 0)  -->
<svg version="1.1" id="Layer_1" xmlns="http://www.w3.org/2000/svg" xmlns:xlink="http://www.w3.org/1999/xlink" x="0px" y="0px"
	 viewBox="0 0 50.5 50.5" style="enable-background:new 0 0 50.5 50.5;" xml:space="preserve">
<path d="M39.71,16.81c-2.6,0-4.78,2.21-4.78,4.81c0,2.61,2.18,4.81,4.78,4.81c2.61,0,4.82-2.2,4.82-4.81
	C44.53,19.02,42.32,16.81,39.71,16.81z M39.74,23.94c-1.27,0-2.33-1.06-2.33-2.33c0-1.28,1.03-2.31,2.3-2.31
	c1.28,0,2.35,1.03,2.35,2.31C42.06,22.88,41.02,23.94,39.74,23.94z M41.33,27.79c-1.75,0-3.06,1.33-3.06,2.96v0.01
	c0,1.63,1.29,2.94,3.04,2.94c1.76,0,3.07-1.32,3.07-2.95v-0.02C44.38,29.1,43.08,27.79,41.33,27.79z M42.77,30.76
	c0,0.82-0.57,1.52-1.44,1.52c-0.86,0-1.45-0.72-1.45-1.53v-0.02c0-0.82,0.57-1.52,1.43-1.52c0.87,0,1.46,0.72,1.46,1.54V30.76z
	 M34.61,27.91h-2.19v5.67h2.15c2.05,0,3.24-1.21,3.24-2.85v-0.02C37.81,29.08,36.63,27.91,34.61,27.91z M36.2,30.75
	c0,0.92-0.63,1.44-1.57,1.44h-0.64V29.3h0.64c0.94,0,1.57,0.53,1.57,1.44V30.75z M29.61,27.87H28.1l-2.42,5.71h1.65l0.41-1.01h2.19
	l0.41,1.01h1.69L29.61,27.87z M28.2,31.35l0.64-1.62l0.64,1.62H28.2z M22.81,30.27v1.15h1.12v0.69c-0.24,0.15-0.53,0.23-0.91,0.23
	c-0.9,0-1.54-0.65-1.54-1.57v-0.02c0-0.86,0.63-1.55,1.45-1.55c0.56,0,0.97,0.19,1.37,0.53l0.93-1.11c-0.6-0.52-1.31-0.83-2.31-0.83
	c-1.76,0-3.05,1.3-3.05,2.96v0.01c0,1.72,1.32,2.94,3.08,2.94c1.03,0,1.87-0.38,2.47-0.88v-2.55H22.81z M16.41,32.25v-0.9h2.73
	v-1.24h-2.73v-0.86h3.01v-1.34h-4.56v5.67h4.6v-1.33H16.41z M11.59,32.21v-4.3h-1.57v5.67h4.32v-1.37H11.59z M13.95,23.98l2.31-1.8
	c0,0,1.02-0.78,1.02-2.33c0-1.77-1.45-3.05-3.54-3.05c-2.39,0-3.74,2.09-3.74,2.09l1.86,1.59c0,0,0.73-1.2,1.8-1.2
	c0.45,0,0.81,0.37,0.81,0.81c0,0.36-0.16,0.69-0.44,0.91l-4.07,3.2v2.04h7.35v-2.26H13.95z M5.97,18.33v1.85l2.16,1.43l-2.16,1.44
	v1.85l4.96-3.29L5.97,18.33z M22.62,16.81c-2.6,0-4.78,2.21-4.78,4.81c0,2.61,2.18,4.81,4.78,4.81c2.61,0,4.82-2.2,4.82-4.81
	C27.44,19.02,25.23,16.81,22.62,16.81z M22.65,23.94c-1.27,0-2.33-1.06-2.33-2.33c0-1.28,1.03-2.31,2.3-2.31
	c1.28,0,2.35,1.03,2.35,2.31C24.97,22.88,23.92,23.94,22.65,23.94z M32.81,21.46c0,0,1.37-0.52,1.37-2.07s-1.47-2.59-3.48-2.59
	s-3.45,1.28-3.45,1.28l1.44,1.74c0,0,0.82-0.78,1.82-0.78c1.01,0,0.97,0.59,0.97,0.75c0,0.37-0.39,0.82-2.12,0.82v1.88
	c0,0,2.46-0.1,2.46,0.95c0,0.39-0.26,0.79-1.22,0.79c-1.15,0-2.24-0.91-2.24-0.91l-1.25,1.67c0,0,0.96,1.44,3.54,1.44
	c2.58,0,3.9-1.49,3.9-2.76C34.55,22.39,33.33,21.67,32.81,21.46z"/>
</svg>
