<?xml version="1.0" encoding="utf-8"?>
<!-- Generator: Adobe Illustrator 24.0.1, SVG Export Plug-In . SVG Version: 6.00 Build 0)  -->
<!DOCTYPE svg PUBLIC "-//W3C//DTD SVG 1.1//EN" "http://www.w3.org/Graphics/SVG/1.1/DTD/svg11.dtd" [
	<!ENTITY ns_extend "http://ns.adobe.com/Extensibility/1.0/">
	<!ENTITY ns_ai "http://ns.adobe.com/AdobeIllustrator/10.0/">
	<!ENTITY ns_graphs "http://ns.adobe.com/Graphs/1.0/">
	<!ENTITY ns_vars "http://ns.adobe.com/Variables/1.0/">
	<!ENTITY ns_imrep "http://ns.adobe.com/ImageReplacement/1.0/">
	<!ENTITY ns_sfw "http://ns.adobe.com/SaveForWeb/1.0/">
	<!ENTITY ns_custom "http://ns.adobe.com/GenericCustomNamespace/1.0/">
	<!ENTITY ns_adobe_xpath "http://ns.adobe.com/XPath/1.0/">
]>
<svg version="1.1" xmlns:x="&ns_extend;" xmlns:i="&ns_ai;" xmlns:graph="&ns_graphs;"
	 xmlns="http://www.w3.org/2000/svg" xmlns:xlink="http://www.w3.org/1999/xlink" x="0px" y="0px" viewBox="0 0 50.46 50.46"
	 enable-background="new 0 0 50.46 50.46" xml:space="preserve">
<metadata>
	<sfw  xmlns="&ns_sfw;">
		<slices></slices>
		<sliceSourceBounds  bottomLeftOrigin="true" height="50.646" width="50.646" x="-0.073" y="-0.073"></sliceSourceBounds>
	</sfw>
</metadata>
<g id="fondo" display="none">
	<rect display="inline" fill="#D7D6D4" width="50.46" height="50.46"/>
</g>
<g id="linea_expandida" display="none">
	<g display="inline">
		<path d="M39.626,7.61H28.28c-1.06,0-1.922,0.862-1.922,1.921v1.697h-4.001c-1.285,0-2.329,1.018-2.388,2.289h-7.036
			c-2.217,0-4.02,1.803-4.02,4.02v21.294c0,2.215,1.802,4.017,4.017,4.017h26.698c1.06,0,1.922-0.861,1.922-1.921v-6.319v-6.441
			v-7.409V9.532C41.548,8.472,40.686,7.61,39.626,7.61z M27.958,9.532c0-0.177,0.145-0.322,0.322-0.322h11.347
			c0.178,0,0.322,0.144,0.322,0.322v10.427h-4.802v-6.411c0-1.279-1.04-2.319-2.319-2.319h-4.87V9.532z M32.828,12.829
			c0.396,0,0.72,0.323,0.72,0.719v6.411h-2.716v-7.13H32.828z M21.557,13.629c0-0.441,0.359-0.8,0.8-0.8h6.875v7.13h-7.675V13.629z
			 M12.932,15.118h7.025v4.841h-6.25h-0.775c-1.334,0-2.42-1.086-2.42-2.42C10.512,16.204,11.598,15.118,12.932,15.118z
			 M39.626,41.25H12.929c-1.333,0-2.417-1.084-2.417-2.417V20.727c0.675,0.514,1.508,0.831,2.42,0.831h0.775h7.049h13.59h5.602v5.81
			H25.101c-2.217,0-4.02,1.804-4.02,4.021s1.803,4.02,4.02,4.02h14.848v5.52C39.949,41.105,39.804,41.25,39.626,41.25z
			 M39.949,33.809H25.101c-1.334,0-2.42-1.086-2.42-2.421s1.086-2.421,2.42-2.421h14.848V33.809z"/>
		<path d="M25.718,18.028c0.442,0,0.8-0.358,0.8-0.8v-2.04c0-0.442-0.358-0.8-0.8-0.8s-0.8,0.358-0.8,0.8v2.04
			C24.918,17.67,25.276,18.028,25.718,18.028z"/>
		<path d="M25.923,33.208c0.441,0,0.8-0.358,0.8-0.8v-2.041c0-0.441-0.358-0.8-0.8-0.8c-0.442,0-0.8,0.358-0.8,0.8v2.041
			C25.124,32.85,25.482,33.208,25.923,33.208z"/>
	</g>
</g>
<g id="stroke_1_x2C_6">
	<path d="M26.566,44.152h0.129c2.656,0,3.832-2.028,3.832-4.085v-9.529V17.107v-5.685c-0.018-0.486,0.118-1.162-0.652-1.259h-0.129
		c-2.656,0-3.832,2.027-3.832,4.085v2.859v13.432v12.354C25.931,43.379,25.796,44.055,26.566,44.152"/>
	<path d="M23.504,6.308h-0.129c-2.656,0-3.832,2.027-3.832,4.085v1.942v4.234v-4.893v2.595v3.31v1.349v17.508
		c0,2.058,1.176,4.085,3.832,4.085h0.129c0.77-0.098,0.634-0.774,0.652-1.26V21.359v-7.088v-3.513v8.636v-7.06V7.567
		C24.138,7.081,24.273,6.405,23.504,6.308"/>
	<path d="M32.978,40.368h0.129c2.656,0,3.832-2.028,3.832-4.085v-1.9v-9.129v-3.571c-0.018-0.486,0.118-1.162-0.652-1.259h-0.129
		c-2.656,0-3.832,2.027-3.832,4.085v0.745v9.129v4.725C32.343,39.594,32.208,40.27,32.978,40.368"/>
	<path d="M32.326,12.337V7.569c0.018-0.486-0.118-1.162,0.652-1.259h0.129c2.656,0,3.832,2.027,3.832,4.085v1.942V9.982v1.696v2.595
		v-3.278v2.669v1.279c0,2.058-1.176,4.085-3.832,4.085h-0.129c-0.77-0.098-0.634-0.774-0.652-1.26v-4.405V7.685v3.076"/>
	<path d="M17.12,12.806h-0.129c-2.656,0-3.832,2.027-3.832,4.085v3.79v-1.001v5.685v-2.358v3.31v1.35v2.325
		c0,2.058,1.176,4.085,3.832,4.085h0.129c0.77-0.097,0.634-0.773,0.652-1.259v-4.132v0.192v-3.512v-2.859v-7.242v-1.199
		C17.754,13.58,17.89,12.904,17.12,12.806"/>
</g>
</svg>
