<svg id="Layer_1" data-name="Layer 1" xmlns="http://www.w3.org/2000/svg" viewBox="0 0 50.46 50.46"><defs><style>.cls-1{fill:#12b5e1;}</style></defs><title>abeja</title><path class="cls-1" d="M18.06,27.18a.54.54,0,0,0-.63.38.58.58,0,0,1-.34.31.78.78,0,0,1-.56,0,.68.68,0,0,1-.45-.81.5.5,0,0,0-.32-.63.49.49,0,0,0-.63.32,1.67,1.67,0,0,0,1,2,1.83,1.83,0,0,0,1.22.07l.07,0a1.55,1.55,0,0,0,.93-.86l.06-.18A.49.49,0,0,0,18.06,27.18Z"/><path class="cls-1" d="M41.5,42.63a4.21,4.21,0,0,1-3.69,0,3.3,3.3,0,0,1-1.36-2,11.46,11.46,0,0,0-.53-22.33c2.46-.69,4.85-1.61,6-2.8A7.43,7.43,0,0,0,32.29,4.29,6.45,6.45,0,0,0,28.47,3a6.27,6.27,0,0,0-6.19,6.32c0,2.41,2.93,6.57,4.61,8.77H21.14A11.3,11.3,0,0,0,16,19.32a3.29,3.29,0,0,1-.48-2.4,3.52,3.52,0,0,1,1.53-2s0,0,0,0a1.6,1.6,0,1,0-.32-1,4.57,4.57,0,0,0-2.2,2.73,4.34,4.34,0,0,0,.57,3.12c-.13.08-.27.15-.4.24a5.88,5.88,0,0,1-2.12-3.27,4,4,0,0,1,.75-2.93,1.46,1.46,0,0,0,1.48-.67,1.48,1.48,0,1,0-2.37.17,5,5,0,0,0-.85,3.59,6.78,6.78,0,0,0,2.29,3.73,11.53,11.53,0,0,0-3.13,4L6.17,23.9c-.78-.15-1.08.54-.44,1l4,3.74c0,.3,0,.61,0,.92A11.48,11.48,0,0,0,21.14,41H33.61c.14,0,.27,0,.41,0a6.82,6.82,0,0,0,1,4.4,5.19,5.19,0,0,0,3.82,2.05h0a.5.5,0,0,0,.06-1,4.24,4.24,0,0,1-3.11-1.64A6,6,0,0,1,35,40.94l.44-.07a4.26,4.26,0,0,0,1.81,2.64,3.91,3.91,0,0,0,2.09.55,7.2,7.2,0,0,0,2.47-.49.49.49,0,0,0,.3-.64A.5.5,0,0,0,41.5,42.63Zm1.78-13.06a9.66,9.66,0,0,1-4,7.79V21.78A9.65,9.65,0,0,1,43.28,29.57Zm-11.06-23a4.5,4.5,0,0,1,.9,2.65c0,1.63-2,4.89-3.64,7.22C29.93,13,30.82,8.18,32.22,6.56Zm4.1-1.89h.17a5.75,5.75,0,0,1,4.18,9.71C39.18,16,34,17.18,30.57,17.81c1.64-2.29,4.25-6.29,4.23-8.61a6.23,6.23,0,0,0-1.26-3.69A5.62,5.62,0,0,1,36.32,4.67ZM25.26,6.06a4.63,4.63,0,0,1,3.23-1.38A4.5,4.5,0,0,1,31,5.41c-1.88,2.1-2.82,7.74-3.23,11.08C26.09,14.19,24,11,24,9.32A4.6,4.6,0,0,1,25.26,6.06ZM11.47,29.57a9.67,9.67,0,0,1,9.67-9.67h6.23V39.24H21.14A9.68,9.68,0,0,1,11.47,29.57Zm19.86,9.67V19.9h2.28a10.05,10.05,0,0,1,1.74.16v19a10.06,10.06,0,0,1-1.74.17Z"/></svg>