<?xml version="1.0" encoding="utf-8"?>
<!-- Generator: Adobe Illustrator 24.2.1, SVG Export Plug-In . SVG Version: 6.00 Build 0)  -->
<svg version="1.1" id="Layer_1" xmlns="http://www.w3.org/2000/svg" xmlns:xlink="http://www.w3.org/1999/xlink" x="0px" y="0px"
	 viewBox="0 0 50.5 50.5" style="enable-background:new 0 0 50.5 50.5;" xml:space="preserve">
<path d="M37.7,13.2c-0.72,0-1.3,0.58-1.3,1.3s0.58,1.3,1.3,1.3c0.72,0,1.3-0.58,1.3-1.3S38.42,13.2,37.7,13.2z M22.7,27.8
	c-0.6,0-1,0.5-1,1v4.9c0,0.5,0.4,1,1,1c0.6,0,1-0.4,1-1v-4.9C23.7,28.3,23.3,27.8,22.7,27.8z M17.1,22.3c-0.6,0-1,0.4-1,1v10.4
	c0,0.6,0.4,1,1,1c0.5,0,1-0.4,1-1V23.3C18.1,22.8,17.7,22.3,17.1,22.3z M11.6,25.8c-0.6,0-1,0.5-1,1v6.9c0,0.5,0.4,1,1,1
	c0.6,0,1-0.4,1-1v-6.9C12.6,26.3,12.2,25.8,11.6,25.8z M16.1,15.5h-4.6c-0.4,0-0.8,0.4-0.8,0.8c0,0.4,0.4,0.8,0.8,0.8h4.6
	c0.4,0,0.8-0.4,0.8-0.8C16.9,15.9,16.5,15.5,16.1,15.5z M39.5,9.4H8.7c-1.9,0-3.4,1.5-3.4,3.4v24.5c0,1.9,1.5,3.4,3.4,3.4h26.4
	c0.4,0,0.8-0.4,0.8-0.8c0-0.4-0.3-0.8-0.8-0.8H8.7c-1,0-1.8-0.8-1.8-1.8V12.8c0-1,0.8-1.8,1.8-1.8h30.8c1,0,1.8,0.8,1.8,1.8v8.7
	c0,0.4,0.4,0.8,0.8,0.8c0.4,0,0.8-0.4,0.8-0.8v-8.7C42.9,10.9,41.4,9.4,39.5,9.4z M45.8,38.2l-6.2-6.1c0.7-1,1.1-2.3,1.1-3.6
	c0-3.6-2.9-6.5-6.5-6.5c-3.6,0-6.5,2.9-6.5,6.5s2.9,6.5,6.5,6.5c1.6,0,3-0.6,4.2-1.5l6,6c0.2,0.2,0.4,0.3,0.7,0.3
	c0.3,0,0.5-0.1,0.7-0.3C46.2,39.1,46.2,38.5,45.8,38.2z M38.78,28.86c-0.18,2.34-2.11,4.24-4.58,4.24c-2.47,0-4.4-1.9-4.58-4.24
	c-0.02-0.12-0.02-0.24-0.02-0.36c0-0.16,0.01-0.31,0.02-0.46c0.24-2.29,2.24-4.14,4.58-4.14c2.34,0,4.34,1.85,4.58,4.14
	c0.01,0.15,0.02,0.3,0.02,0.46C38.8,28.62,38.8,28.74,38.78,28.86z M34.2,23.8c-2.47,0-4.4,1.9-4.58,4.24
	c0.24-2.29,2.24-4.14,4.58-4.14c2.34,0,4.34,1.85,4.58,4.14C38.6,25.7,36.67,23.8,34.2,23.8z"/>
</svg>
