<?xml version="1.0" encoding="utf-8"?>
<!-- Generator: Adobe Illustrator 24.2.1, SVG Export Plug-In . SVG Version: 6.00 Build 0)  -->
<svg version="1.1" id="Layer_1" xmlns="http://www.w3.org/2000/svg" xmlns:xlink="http://www.w3.org/1999/xlink" x="0px" y="0px"
	 viewBox="0 0 50.46 50.46" style="enable-background:new 0 0 50.46 50.46;" xml:space="preserve">
<path d="M12.514,22.788c-0.197-0.194-0.199-0.511-0.005-0.707c1.181-1.197,2.074-2.777,2.938-4.305
	c1.746-3.087,3.55-6.28,7.759-6.28c3.168,0,4.974,1.234,7.26,2.796c1.916,1.309,4.297,2.919,8.258,4.378l-0.342-1.021
	c-0.087-0.262,0.054-0.545,0.316-0.633c0.258-0.086,0.545,0.054,0.633,0.315l0.698,2.086c0.087,0.262-0.054,0.545-0.315,0.633
	l-2.086,0.699c-0.053,0.018-0.106,0.026-0.159,0.026c-0.209,0-0.404-0.132-0.474-0.341c-0.088-0.262,0.053-0.545,0.314-0.633
	l0.836-0.28c-3.936-1.477-6.319-3.089-8.243-4.404c-2.229-1.522-3.838-2.622-6.696-2.622c-3.625,0-5.21,2.804-6.889,5.771
	c-0.896,1.585-1.822,3.224-3.096,4.515c-0.098,0.099-0.227,0.149-0.356,0.149C12.738,22.932,12.611,22.884,12.514,22.788z
	 M44.702,40.1c-0.05-0.005-0.101-0.003-0.152,0h-0.04H10.55V6.41c0-0.503-0.407-0.91-0.909-0.911S8.73,5.906,8.73,6.409
	c0,0,0,0.001,0,0.001V40.1H5.91c-0.505-0.053-0.958,0.314-1.011,0.819c-0.053,0.505,0.314,0.958,0.819,1.011
	c0.064,0.007,0.128,0.007,0.192,0h2.78v2.12c0,0.503,0.407,0.91,0.909,0.911c0.503,0,0.91-0.407,0.911-0.909c0,0,0-0.001,0-0.001
	v-2.12h34c0.505,0.053,0.958-0.314,1.011-0.819C45.574,40.605,45.207,40.153,44.702,40.1z M12.87,26.923
	c-0.007,0.099-0.007,0.198,0,0.297v10.92h4.41V27.22c0.082-1.218-0.839-2.272-2.056-2.354C14.006,24.784,12.952,25.705,12.87,26.923
	z M20.43,18.405c0,0.003,0,0.007,0,0.01V38.14h4.41V18.416c0-1.221-0.99-2.21-2.21-2.21C21.415,16.205,20.43,17.19,20.43,18.405z
	 M27.98,22.077V38.14h4.42V22.077c0-1.221-0.99-2.21-2.21-2.21S27.98,20.856,27.98,22.077z M37.788,24.126
	c-1.219,0.001-2.207,0.989-2.208,2.208V38.14H40V26.334C39.999,25.113,39.009,24.125,37.788,24.126z"/>
</svg>
