<?xml version="1.0" encoding="utf-8"?>
<!-- Generator: Adobe Illustrator 24.0.3, SVG Export Plug-In . SVG Version: 6.00 Build 0)  -->
<svg version="1.1" id="Layer_1" xmlns="http://www.w3.org/2000/svg" xmlns:xlink="http://www.w3.org/1999/xlink" x="0px" y="0px"
	 viewBox="0 0 50.5 50.5" style="enable-background:new 0 0 50.5 50.5;" xml:space="preserve">
<title>acrobat</title>
<g>
	<path d="M45.3,8.2C45.3,8.2,45.3,8.2,45.3,8.2c0-0.1,0-0.1-0.1-0.1c0-0.1-0.1-0.1-0.1-0.2c0,0,0,0,0,0l-7.4-7.2c0,0-0.1,0-0.1-0.1
		c0,0-0.1-0.1-0.1-0.1c-0.1,0-0.1,0-0.2,0c0,0-0.1,0-0.1,0L5.9,0.4c0,0,0,0,0,0c-0.2,0-0.4,0.1-0.6,0.2C5.2,0.8,5.1,1,5.1,1.2v44.7
		c0,2.3,1.8,4.1,4.1,4.1h32.1c2.3,0,4.1-1.8,4.1-4.1V8.5c0,0,0,0,0,0C45.4,8.4,45.4,8.3,45.3,8.2z M37.9,3.2l4.7,4.5h-4.8L37.9,3.2z
		 M43.8,45.9c0,1.4-1.1,2.5-2.5,2.5H9.2c-1.4,0-2.5-1.1-2.5-2.5V2l29.7,0.1l-0.1,6.3c0,0.2,0.1,0.4,0.2,0.6s0.4,0.2,0.6,0.2h6.8
		V45.9z"/>
	<path d="M28.4,28.2c-0.8-0.8-1.5-1.6-2-2.1h0c-0.6-0.6-1.3-1.6-2.1-2.7c0.6-2.2,1-4.8,0.5-7.2c-0.4-2-1.2-3.4-2.4-3.8
		c-0.7-0.2-1.4-0.1-1.9,0.4c-1,0.9-1.2,2.7-0.8,4.9c0.4,2,1.6,4.1,2.8,6c-0.4,1.2-0.8,2.3-1,2.9L21.3,27c-0.3,0.8-0.7,1.7-1.2,2.7
		c-2.1,0.6-4.4,1.6-6,2.9c-1.6,1.3-2.4,2.9-2.2,4.1c0.1,0.7,0.6,1.2,1.2,1.4c0.2,0.1,0.5,0.1,0.7,0.1c1.1,0,2.4-0.7,3.7-1.9
		c1.5-1.4,2.7-3.4,3.6-5.2c1-0.3,2-0.5,2.8-0.6c1-0.2,2.3-0.4,3.7-0.5c1.5,1.4,3.3,2.8,5.2,3.6c2.1,0.9,3.8,0.9,4.8,0.1
		c0.5-0.4,0.8-1.1,0.7-1.7c-0.2-1.2-1.5-2.4-3.5-3.1C33.1,28.1,30.7,28,28.4,28.2z M16.6,35.1c-1.5,1.4-2.5,1.6-2.9,1.5
		c-0.1,0-0.1-0.1-0.2-0.2c-0.1-0.3,0.2-1.3,1.6-2.5c1-0.9,2.5-1.6,3.9-2.1C18.4,33,17.6,34.1,16.6,35.1z M21.3,17.3
		c-0.5-2.1-0.1-3.1,0.3-3.4c0.1-0.1,0.1-0.1,0.2-0.1c0,0,0.1,0,0.1,0c0.3,0.1,1,0.8,1.3,2.6c0.3,1.6,0.1,3.3-0.2,5
		C22.3,20.1,21.6,18.7,21.3,17.3z M23.8,28.8c-0.5,0.1-1,0.2-1.6,0.3c0.2-0.6,0.5-1.1,0.6-1.6l0.2-0.4c0.2-0.5,0.5-1.2,0.7-1.9
		c0.6,0.7,1.1,1.4,1.5,1.8c0.3,0.3,0.7,0.8,1.2,1.2C25.4,28.5,24.5,28.7,23.8,28.8z M36.9,32.1c0,0.1,0,0.2-0.1,0.2
		c-0.3,0.2-1.3,0.4-3.2-0.4c-1.2-0.5-2.5-1.4-3.5-2.3c1.6,0,3.2,0.1,4.4,0.6C36.3,31,36.8,31.8,36.9,32.1z"/>
</g>
</svg>
