<svg id="Layer_1" data-name="Layer 1" xmlns="http://www.w3.org/2000/svg" viewBox="0 0 50.46 50.46"><defs><style>.cls-1{fill:#65b4e1;}</style></defs><title>acrobat</title><path class="cls-1" d="M40,31.93l-.06-17.56v-.08L33.66,7.6l-.06-.06H14.35a3.91,3.91,0,0,0-3.9,3.9V39a3.91,3.91,0,0,0,3.9,3.9H36.11A3.91,3.91,0,0,0,40,39V31.93Zm-3-18H34.35l0-2.89ZM38.3,31.87h0V39a2.18,2.18,0,0,1-2.18,2.18H14.35A2.18,2.18,0,0,1,12.17,39V11.44a2.18,2.18,0,0,1,2.18-2.18h18l0,5.65a1,1,0,0,0,1,1c.35,0,2.75,0,4.89,0Z"/><path class="cls-1" d="M30.81,27.13a15.12,15.12,0,0,0-3.33-.2c-.48-.47-1-1-1.42-1.54s-.89-1.11-1.27-1.67a15.12,15.12,0,0,0,.38-3.31c0-2.59-1-3.49-1.74-3.78a1.4,1.4,0,0,0-1.46.26c-.64.54-1.21,1.71-.35,4.15a15.12,15.12,0,0,0,1.49,3c-.17.65-.37,1.33-.62,2s-.52,1.32-.81,1.93a15.12,15.12,0,0,0-3.06,1.33c-2.25,1.33-2.55,2.59-2.4,3.42v0a1.5,1.5,0,0,0,.89,1.07h0a2.05,2.05,0,0,0,.71.12c.78,0,1.82-.42,3.08-1.89a15.12,15.12,0,0,0,1.84-2.78c.65-.18,1.33-.34,2-.46s1.4-.21,2.08-.26a15.12,15.12,0,0,0,2.68,2c2.26,1.28,3.51.91,4.15.38a1.41,1.41,0,0,0,.5-1.38C34.08,28.68,33.37,27.6,30.81,27.13ZM19.75,31c-.93,1.09-1.63,1.4-2,1.33,0-.36.43-1,1.66-1.73a11,11,0,0,1,1-.54A11,11,0,0,1,19.75,31Zm3.8-9.42a11,11,0,0,1-.45-1.08c-.48-1.35-.39-2.11-.16-2.39.31.18.65.87.67,2.3A11,11,0,0,1,23.56,21.59Zm1,5.66-.92.18q.18-.43.34-.87t.3-.89l.59.73.62.71Zm5.8,1.9a11,11,0,0,1-1-.63,11,11,0,0,1,1.16.15c1.41.26,2,.72,2.15,1.05C32.36,29.9,31.6,29.85,30.35,29.15Z"/></svg>