<?xml version="1.0" encoding="utf-8"?>
<!-- Generator: Adobe Illustrator 24.2.1, SVG Export Plug-In . SVG Version: 6.00 Build 0)  -->
<svg version="1.1" id="Layer_1" xmlns="http://www.w3.org/2000/svg" xmlns:xlink="http://www.w3.org/1999/xlink" x="0px" y="0px"
	 viewBox="0 0 50.5 50.5" style="enable-background:new 0 0 50.5 50.5;" xml:space="preserve">
<g>
	<path d="M48.3,41.3c-0.5-2.4-3-8.4-7.6-11.3c-0.3-0.2-0.6-0.2-0.8,0c-1.6,0.9-3.5,1.4-5.3,1.4c-1.9,0-3.7-0.5-5.4-1.4
		c-0.3-0.1-0.5-0.1-0.8,0c-0.5,0.3-0.9,0.6-1.3,1c-1.3-2.4-3.2-5.1-5.9-6.8c-0.2-0.2-0.6-0.2-0.8,0c-1.6,0.9-3.5,1.4-5.3,1.4
		c-1.9,0-3.7-0.5-5.4-1.4c-0.3-0.1-0.6-0.1-0.8,0C4.3,27,1.8,32.9,1.3,35.4c-0.1,0.3,0.1,0.7,0.4,0.8C3,37,4.4,37.7,5.8,38.2v7
		c0,0.3,0.3,0.6,0.6,0.6h2c0.2,0,0.3-0.1,0.4-0.2C9,45.5,9.2,45.4,9,39.3c2,0.5,4,0.8,6,0.9c2.2,0,4.3-0.3,6.4-0.9
		c-0.3,0.8-0.5,1.4-0.6,1.9c-0.1,0.3,0.1,0.7,0.4,0.8c4,2.4,8.6,3.8,13.4,4c4.7,0,9.4-1.4,13.4-4C48.3,41.9,48.4,41.6,48.3,41.3z
		 M28.9,31.6c1.8,0.9,3.7,1.4,5.7,1.4c2,0,3.9-0.5,5.7-1.4c0.7,0.5,1.4,1.1,2,1.7c-0.2,0.1-0.4,0.3-0.6,0.3c-0.4,0.1-1,0.1-1.4-0.1
		c-0.3-0.1-0.6-0.1-0.8,0.2c-0.3,0.4-0.7,0.7-1.2,0.8c-0.5,0.1-0.9,0-1.3-0.3c-0.3-0.2-0.6-0.1-0.8,0.1c-0.3,0.4-0.8,0.6-1.3,0.6
		c-0.5,0-0.9-0.2-1.3-0.6c-0.2-0.2-0.5-0.3-0.8-0.1c-0.4,0.3-0.9,0.4-1.4,0.3c-0.5-0.1-0.9-0.4-1.2-0.8c-0.2-0.3-0.5-0.3-0.8-0.2
		c-0.4,0.2-1,0.2-1.4,0.1c-0.4-0.1-0.7-0.4-0.9-0.7C27.8,32.5,28.3,32,28.9,31.6z M20.8,25.8c0.1,0.1,0.2,0.2,0.3,0.3l-0.4,2.6
		c-0.7-0.4-1.8-1-3.3-1.8C18.5,26.7,19.7,26.3,20.8,25.8z M9.4,25.8c1.1,0.5,2.2,0.9,3.4,1.1c-1.5,0.7-2.6,1.4-3.3,1.8L9.1,26
		C9.2,25.9,9.3,25.8,9.4,25.8z M7.9,44.7H7v-7.3c0.1,0,0.1,0,0.2,0c0.2,0,0.4,0,0.6,0C7.9,40.3,7.9,43.5,7.9,44.7z M8.8,35.6
		c-0.9,0.7-2.1,0.8-2.5,0.2c-0.3-0.4-0.2-0.8-0.1-1c0.2-0.5,0.5-0.9,1-1.3c0.5-0.4,1.1-0.6,1.6-0.6c0.4,0,0.7,0.1,0.9,0.4
		c0.3,0.4,0.2,0.8,0.1,1C9.7,34.8,9.3,35.2,8.8,35.6z M15.1,38.6c-2-0.1-4.1-0.4-6.1-1c0-0.3,0-0.5,0-0.7c0,0,0,0,0,0
		c0.2-0.1,0.4-0.2,0.5-0.3c0.5-0.3,0.8-0.8,1.1-1.2c0.6,0,1.2,0.4,1.4,1.1c0.2,0.7,0.8,1.1,1.4,1.1h0.2c0.5,0,0.9-0.2,1.2-0.6
		c0.3-0.4,0.4-0.9,0.2-1.3c-0.6-2-2.5-3.4-4.5-3.4c-0.1,0-0.1,0-0.2,0c-0.9-0.8-2.5-0.7-3.9,0.3c-0.7,0.5-1.2,1.2-1.4,1.9
		c-0.2,0.7-0.2,1.3,0.1,1.9c-0.8-0.4-1.5-0.7-2.2-1.1c0.5-2.1,2.2-5.8,5-8.3l0.5,2.9c0,0.2,0.2,0.4,0.4,0.5c0.1,0,0.2,0.1,0.3,0.1
		c0.1,0,0.2,0,0.3-0.1c0,0,2.2-1.4,5.7-3c0,0,0,0,0,0h0.1c3.5,1.6,5.6,3,5.7,3c0.1,0.1,0.2,0.1,0.3,0.1c0.1,0,0.2,0,0.2-0.1
		c0.2-0.1,0.3-0.3,0.4-0.5l0.4-2.8c1.6,1.5,2.9,3.4,3.7,5.2c-1.6,1.6-2.8,3.6-3.7,5.3C19.9,38.2,17.5,38.6,15.1,38.6z M11,33.4
		c1.4,0.2,2.5,1.2,2.9,2.5c0,0.1,0,0.2,0,0.3c0,0-0.1,0.1-0.2,0.1h-0.2c-0.2,0-0.3-0.1-0.3-0.3c-0.3-1-1.1-1.7-2.1-1.8
		C11.1,33.9,11.1,33.7,11,33.4z M34.6,44.1c-0.2,0-0.3-0.1-0.3-0.3c0-0.2,0.1-0.3,0.3-0.3c0.2,0,0.3,0.1,0.3,0.3
		C34.9,44,34.8,44.1,34.6,44.1z M36,44.4c0.1-0.2,0.1-0.4,0.1-0.6c0-0.8-0.7-1.5-1.5-1.5c-0.8,0-1.5,0.7-1.5,1.5
		c0,0.2,0,0.4,0.1,0.5c-3.8-0.4-7.4-1.5-10.7-3.4c0.5-1.8,1.8-4.8,3.9-7.2c0.3,0.4,0.8,0.8,1.3,1c0.6,0.2,1.3,0.2,1.9,0
		c0.5,0.5,1,0.8,1.6,0.9c0.6,0.1,1.3,0,1.8-0.3c0.5,0.4,1.2,0.6,1.9,0.6c0.7,0,1.3-0.2,1.8-0.6c0.6,0.3,1.3,0.4,1.8,0.3
		c0.6-0.1,1.2-0.4,1.7-0.9c0.6,0.2,1.3,0.2,1.9,0c0.4-0.1,0.7-0.3,1-0.6c1.9,2.4,3.1,5.1,3.6,6.8C43.4,43,39.7,44.2,36,44.4z"/>
	<path d="M15.1,24.2c4.8,0,8.7-3.5,9.3-8.1c1.5-2.5,1.6-4.8,0.3-7.2c-0.9-1.6-2.4-2.7-3.8-2.8c-0.5,0-1,0.1-1.4,0.4
		c-1.3-0.7-2.9-1.2-4.5-1.2c-1.6,0-3.1,0.4-4.5,1.1c-0.4-0.3-0.8-0.4-1.4-0.3C7.8,6.2,6.4,7.3,5.5,8.9c-1.3,2.3-1.2,4.5,0.2,7
		C6.3,20.6,10.3,24.2,15.1,24.2z M20,7.7c0.2-0.2,0.4-0.4,0.8-0.4c0,0,0.1,0,0.1,0c0.8,0,2,0.8,2.8,2.2c0.8,1.5,1,2.9,0.4,4.4
		c-0.3-0.8-1-1.6-2.1-2.1c-1.1-0.5-1.9-1.3-2.2-2.4C19.7,8.7,19.7,8.1,20,7.7z M11.6,9.7c0.2-0.7,0.2-1.4,0-2
		c1.1-0.5,2.3-0.8,3.5-0.8c1.3,0,2.5,0.3,3.6,0.9c-0.2,0.6-0.2,1.3,0,2c0.4,1.4,1.5,2.6,2.9,3.2c0.7,0.3,1.1,0.7,1.3,1.2
		c0,0.2,0,0.4,0,0.6c0,4.3-3.5,7.9-7.8,7.9c-4.3,0-7.8-3.5-7.8-7.9c0-0.2,0-0.3,0-0.5c0.2-0.5,0.6-1,1.4-1.4
		C10.1,12.4,11.2,11.2,11.6,9.7z M6.5,9.5c0.8-1.5,2-2.2,2.8-2.2c0,0,0.1,0,0.1,0c0.3,0,0.6,0.1,0.8,0.4c0.3,0.4,0.4,1.1,0.2,1.8
		c-0.3,1.1-1.1,2-2.2,2.4c-1.1,0.5-1.8,1.3-2.1,2.1C5.6,12.4,5.7,11,6.5,9.5z"/>
	<path d="M34.6,37.8c-0.8,0-1.5,0.7-1.5,1.5c0,0.8,0.7,1.5,1.5,1.5s1.5-0.7,1.5-1.5C36.1,38.5,35.4,37.8,34.6,37.8z M34.6,39.6
		c-0.2,0-0.3-0.1-0.3-0.3s0.1-0.3,0.3-0.3c0.2,0,0.3,0.1,0.3,0.3C34.9,39.5,34.8,39.6,34.6,39.6z"/>
	<path d="M25.4,20.1c0,0.3,0,0.5,0,0.8c0,5.2,4.2,9.5,9.5,9.5c5.2,0,9.5-4.2,9.5-9.5c0-0.3,0-0.7,0-1c-0.3-2.8-1.9-5.3-4.2-6.8
		c0-0.2,0.1-0.5,0.1-0.8c0-2.7-2.4-4.8-5.2-4.8s-5.2,2.2-5.2,4.8c0,0.3,0,0.5,0.1,0.8C27.2,14.5,25.6,17.2,25.4,20.1z M42.7,20.8
		c0,4.3-3.5,7.9-7.9,7.9S27,25.1,27,20.8c0,0,0-0.1,0-0.1c0.1,0,0.3-0.1,0.4-0.2c0.9-0.3,1.9-0.6,2.9-0.8c0.2,0,0.4-0.2,0.5-0.4
		l0.5-1.6l0.6,1.3c0.1,0.2,0.4,0.4,0.6,0.3c1.5-0.2,3-0.2,4.7-0.1c0.3,0,0.5-0.1,0.6-0.3l0.5-1.2l0.5,1.4c0.1,0.2,0.3,0.4,0.5,0.4
		c1.1,0.2,2.2,0.5,3.4,0.8C42.6,20.5,42.7,20.7,42.7,20.8z M30.8,12.2c0-2,1.8-3.6,4-3.6c2.2,0,4,1.6,4,3.6v0.1
		C36.3,11.1,33.3,11.1,30.8,12.2L30.8,12.2z M30.8,14.1c0.2-0.1,0.4-0.2,0.6-0.3c1.1-0.5,2.2-0.8,3.4-0.8c1.2,0,2.4,0.3,3.4,0.8
		c0.2,0.1,0.4,0.2,0.6,0.3c1.9,1.1,3.2,3,3.6,5c-0.9-0.3-1.8-0.5-2.7-0.6L39,15.9c-0.1-0.2-0.3-0.4-0.5-0.4c-0.3,0-0.5,0.1-0.6,0.4
		l-1,2.2c-1.5-0.1-2.8-0.1-4.1,0l-1-2.3c-0.1-0.2-0.3-0.4-0.6-0.4c-0.3,0-0.5,0.2-0.5,0.4l-0.9,2.7c-0.9,0.2-1.8,0.4-2.6,0.7
		C27.5,17.2,28.8,15.2,30.8,14.1z"/>
</g>
</svg>
