<svg id="Layer_1" data-name="Layer 1" xmlns="http://www.w3.org/2000/svg" viewBox="0 0 50.46 50.46"><defs><style>.cls-1{fill:#12b5e1;}</style></defs><title>aeropuerto</title><path class="cls-1" d="M16.21,14c2.52,1.57,3.68,2.34,3.68,2.34l1.77-.81S20,14.47,18.45,13.5c.28,0,.71.08,1.4.19.45.07,4.58.61,4.58.61l2.8-1.3s-6.68-.86-7.13-.93c-1.78-.27-2.23-.26-2.6-.13a4.68,4.68,0,0,0-1.51.9A.83.83,0,0,0,16.21,14Z"/><path class="cls-1" d="M25.46,19.74h0a.81.81,0,0,0-.95.66c-.38,2.07-1.62,8.85-1.65,9a.83.83,0,0,0,.28.74.79.79,0,0,0,.38.18.74.74,0,0,0,.39,0l.55-.18a5.32,5.32,0,0,0,2.27-1.39.39.39,0,0,0,.08-.1l6.64-10.11a.82.82,0,0,0-.23-1.13.83.83,0,0,0-1.14.24l-6.59,10a3.81,3.81,0,0,1-.75.55c.38-2.06,1.06-5.79,1.38-7.52A.82.82,0,0,0,25.46,19.74Z"/><path class="cls-1" d="M45.59,10.48C45.06,9,42.7,7.88,39,9.32l-24,11c-.61-.15-2.14-.54-4.13-.92a7.72,7.72,0,0,0-1-.13c-1.57-.08-2.72.37-3.1,1.2a1.66,1.66,0,0,0,.51,1.9c1.19,1.2,6.25,6.48,6.3,6.54a.84.84,0,0,0,.92.18l.23-.11,6.73-3.18a.83.83,0,0,0-.71-1.49l-6.39,3c-1.24-1.29-4.9-5.11-5.92-6.14l-.1-.11a2.93,2.93,0,0,1,1.44-.2,6.24,6.24,0,0,1,.84.11c1.93.36,3.47.76,4,.9a2.51,2.51,0,0,0,.42.09.87.87,0,0,0,.39-.07L39.67,10.83c2.86-1.12,4-.37,4.42.3.64,1.47-1.48,2.84-2,3.1l-6.66,3.13a.81.81,0,1,0,.7,1.47l6.66-3.12C44.39,14.94,46.45,12.91,45.59,10.48Z"/><path class="cls-1" d="M42.82,35.42h-1a.9.9,0,1,0,0,1.8h1a.9.9,0,0,0,0-1.8Z"/><path class="cls-1" d="M37.49,35.42H5.57a.9.9,0,1,0,0,1.8H37.49a.9.9,0,0,0,0-1.8Z"/><path class="cls-1" d="M27,40H8.7a.9.9,0,0,0,0,1.8H27A.9.9,0,1,0,27,40Z"/></svg>