<?xml version="1.0" encoding="utf-8"?>
<!-- Generator: Adobe Illustrator 26.5.1, SVG Export Plug-In . SVG Version: 6.00 Build 0)  -->
<svg version="1.1" id="Layer_1" xmlns="http://www.w3.org/2000/svg" xmlns:xlink="http://www.w3.org/1999/xlink" x="0px" y="0px"
	 viewBox="0 0 50.5 50.5" style="enable-background:new 0 0 50.5 50.5;" xml:space="preserve">
<style type="text/css">
	.st0{fill:#1D1D1B;}
</style>
<g>
	<g>
		<path class="st0" d="M17.549,19.195c0,0.574-0.465,1.039-1.039,1.039c-0.574,0-1.04-0.465-1.04-1.039
			c0-0.574,0.465-1.039,1.04-1.039C17.084,18.156,17.549,18.622,17.549,19.195"/>
		<path class="st0" d="M20.149,15.773c0,0.861-0.698,1.559-1.559,1.559c-0.861,0-1.559-0.698-1.559-1.559
			c0-0.86,0.698-1.558,1.559-1.558C19.451,14.215,20.149,14.913,20.149,15.773"/>
		<path class="st0" d="M24.645,12.612c0,1.148-0.931,2.079-2.078,2.079c-1.148,0-2.079-0.931-2.079-2.079
			c0-1.149,0.93-2.079,2.079-2.079C23.714,10.533,24.645,11.464,24.645,12.612"/>
		<path class="st0" d="M31.06,11.19c0,1.435-1.164,2.598-2.599,2.598c-1.435,0-2.598-1.163-2.598-2.598
			c0-1.435,1.163-2.599,2.598-2.599C29.897,8.592,31.06,9.755,31.06,11.19"/>
		<path class="st0" d="M39.375,19.195c0,0.574,0.465,1.039,1.039,1.039c0.574,0,1.039-0.465,1.039-1.039
			c0-0.574-0.465-1.039-1.039-1.039C39.84,18.156,39.375,18.622,39.375,19.195"/>
		<path class="st0" d="M36.775,15.773c0,0.861,0.698,1.559,1.559,1.559c0.861,0,1.559-0.698,1.559-1.559
			c0-0.86-0.698-1.558-1.559-1.558C37.473,14.215,36.775,14.913,36.775,15.773"/>
		<path class="st0" d="M32.279,12.612c0,1.148,0.931,2.079,2.079,2.079c1.148,0,2.079-0.931,2.079-2.079
			c0-1.149-0.93-2.079-2.079-2.079C33.21,10.533,32.279,11.464,32.279,12.612"/>
		<path class="st0" d="M11.125,31.305c0-0.574-0.465-1.039-1.039-1.039c-0.574,0-1.04,0.465-1.04,1.039
			c0,0.574,0.466,1.039,1.04,1.039C10.66,32.343,11.125,31.878,11.125,31.305"/>
		<path class="st0" d="M13.725,34.727c0-0.861-0.698-1.559-1.559-1.559c-0.861,0-1.559,0.699-1.559,1.559
			c0,0.86,0.698,1.558,1.559,1.558C13.027,36.285,13.725,35.587,13.725,34.727"/>
		<path class="st0" d="M18.221,37.888c0-1.147-0.93-2.079-2.078-2.079c-1.148,0-2.079,0.931-2.079,2.079
			c0,1.149,0.931,2.079,2.079,2.079C17.29,39.967,18.221,39.036,18.221,37.888"/>
		<path class="st0" d="M24.636,39.31c0-1.435-1.163-2.598-2.598-2.598c-1.435,0-2.598,1.163-2.598,2.598
			c0,1.435,1.164,2.598,2.598,2.598C23.473,41.908,24.636,40.746,24.636,39.31"/>
		<path class="st0" d="M32.951,31.305c0-0.574,0.465-1.039,1.039-1.039c0.574,0,1.04,0.465,1.04,1.039
			c0,0.574-0.465,1.039-1.04,1.039C33.416,32.343,32.951,31.878,32.951,31.305"/>
		<path class="st0" d="M30.351,34.727c0-0.861,0.698-1.559,1.559-1.559c0.861,0,1.559,0.699,1.559,1.559
			c0,0.86-0.698,1.558-1.559,1.558C31.049,36.285,30.351,35.587,30.351,34.727"/>
		<path class="st0" d="M25.855,37.888c0-1.147,0.93-2.079,2.078-2.079c1.148,0,2.079,0.931,2.079,2.079
			c0,1.149-0.93,2.079-2.079,2.079C26.786,39.967,25.855,39.036,25.855,37.888"/>
		<path class="st0" d="M31.304,17.55c-0.574,0-1.039-0.466-1.039-1.039c0-0.574,0.465-1.039,1.039-1.039
			c0.574,0,1.039,0.465,1.039,1.039C32.344,17.084,31.879,17.55,31.304,17.55"/>
		<path class="st0" d="M34.727,20.149c-0.861,0-1.559-0.698-1.559-1.559c0-0.861,0.698-1.559,1.559-1.559
			c0.861,0,1.558,0.698,1.558,1.559C36.285,19.451,35.588,20.149,34.727,20.149"/>
		<path class="st0" d="M37.888,24.645c-1.148,0-2.079-0.93-2.079-2.079c0-1.148,0.93-2.079,2.079-2.079
			c1.148,0,2.078,0.931,2.078,2.079C39.967,23.715,39.036,24.645,37.888,24.645"/>
		<path class="st0" d="M39.31,31.06c-1.435,0-2.598-1.163-2.598-2.599c0-1.434,1.164-2.598,2.598-2.598
			c1.435,0,2.598,1.164,2.598,2.598C41.908,29.898,40.745,31.06,39.31,31.06"/>
		<path class="st0" d="M31.304,39.375c-0.574,0-1.039,0.465-1.039,1.039s0.465,1.039,1.039,1.039c0.574,0,1.039-0.465,1.039-1.039
			S31.879,39.375,31.304,39.375"/>
		<path class="st0" d="M34.727,36.775c-0.861,0-1.559,0.699-1.559,1.559c0,0.86,0.698,1.558,1.559,1.558
			c0.861,0,1.558-0.698,1.558-1.558C36.285,37.474,35.588,36.775,34.727,36.775"/>
		<path class="st0" d="M37.888,32.28c-1.148,0-2.079,0.93-2.079,2.078c0,1.149,0.93,2.079,2.079,2.079
			c1.148,0,2.078-0.93,2.078-2.079C39.967,33.21,39.036,32.28,37.888,32.28"/>
		<path class="st0" d="M19.195,11.125c0.574,0,1.039-0.465,1.039-1.039c0-0.573-0.465-1.039-1.039-1.039s-1.039,0.466-1.039,1.039
			C18.156,10.66,18.621,11.125,19.195,11.125"/>
		<path class="st0" d="M15.774,13.726c0.861,0,1.559-0.699,1.559-1.56c0-0.86-0.698-1.558-1.559-1.558
			c-0.861,0-1.559,0.698-1.559,1.558C14.215,13.027,14.912,13.726,15.774,13.726"/>
		<path class="st0" d="M12.612,18.221c1.148,0,2.078-0.93,2.078-2.079c0-1.148-0.93-2.078-2.078-2.078
			c-1.148,0-2.079,0.93-2.079,2.078C10.533,17.291,11.464,18.221,12.612,18.221"/>
		<path class="st0" d="M11.19,24.636c1.435,0,2.598-1.163,2.598-2.598c0-1.435-1.163-2.599-2.598-2.599
			c-1.435,0-2.598,1.163-2.598,2.599C8.592,23.473,9.755,24.636,11.19,24.636"/>
		<path class="st0" d="M19.195,32.95c0.574,0,1.039,0.466,1.039,1.04s-0.465,1.039-1.039,1.039s-1.039-0.465-1.039-1.039
			S18.621,32.95,19.195,32.95"/>
		<path class="st0" d="M15.774,30.351c0.861,0,1.559,0.698,1.559,1.559c0,0.86-0.698,1.558-1.559,1.558
			c-0.861,0-1.559-0.698-1.559-1.558C14.215,31.049,14.912,30.351,15.774,30.351"/>
		<path class="st0" d="M12.612,25.855c1.148,0,2.078,0.93,2.078,2.078c0,1.149-0.93,2.079-2.078,2.079
			c-1.148,0-2.079-0.93-2.079-2.079C10.533,26.785,11.464,25.855,12.612,25.855"/>
		<path class="st0" d="M25.459,18.675l0.847,2.471c0.05,0.145,0.227,0.197,0.347,0.102l2.048-1.62
			c0.166-0.132,0.403,0.021,0.352,0.226l-0.624,2.536c-0.036,0.149,0.085,0.288,0.237,0.273l2.599-0.256
			c0.21-0.02,0.327,0.236,0.174,0.381l-1.896,1.797c-0.11,0.106-0.084,0.289,0.052,0.357l2.325,1.191
			c0.188,0.096,0.147,0.375-0.06,0.414l-2.567,0.488c-0.15,0.027-0.226,0.196-0.15,0.328l1.313,2.257
			c0.106,0.183-0.079,0.395-0.274,0.318l-2.422-0.979c-0.141-0.057-0.297,0.044-0.304,0.196l-0.117,2.609
			c-0.009,0.21-0.28,0.29-0.402,0.118l-1.509-2.132c-0.089-0.125-0.274-0.125-0.361,0l-1.509,2.132
			c-0.122,0.172-0.392,0.092-0.401-0.118l-0.117-2.609c-0.007-0.152-0.162-0.253-0.304-0.196l-2.422,0.979
			c-0.195,0.078-0.38-0.135-0.274-0.318l1.313-2.257c0.076-0.132,0-0.301-0.151-0.328l-2.566-0.488
			c-0.207-0.039-0.247-0.319-0.059-0.414l2.325-1.191c0.136-0.068,0.163-0.251,0.052-0.357l-1.895-1.797
			c-0.153-0.145-0.036-0.401,0.174-0.381l2.6,0.256c0.152,0.015,0.273-0.124,0.236-0.273l-0.623-2.536
			c-0.05-0.205,0.187-0.358,0.352-0.226l2.048,1.62c0.12,0.095,0.297,0.043,0.346-0.102l0.847-2.471
			C25.109,18.476,25.391,18.476,25.459,18.675"/>
	</g>
</g>
</svg>
