<svg id="Layer_1" data-name="Layer 1" xmlns="http://www.w3.org/2000/svg" viewBox="0 0 50.46 50.46"><defs><style>.cls-1{fill:#65b4e1;}</style></defs><title>agua</title><path class="cls-1" d="M24.49,34.51l-.45-.2a.65.65,0,0,0-.56,1.17l.54.24a.65.65,0,1,0,.48-1.21Z"/><path class="cls-1" d="M20.2,28.63a.65.65,0,0,0-1.3,0,7.24,7.24,0,0,0,2.52,5.42.65.65,0,1,0,.86-1A5.86,5.86,0,0,1,20.2,28.63Z"/><path class="cls-1" d="M32.55,17.95a77.49,77.49,0,0,0-5.94-8.36,1.84,1.84,0,0,0-2.76,0,77.39,77.39,0,0,0-5.93,8.36c-2.9,4.79-4.37,8.78-4.37,11.87a11.68,11.68,0,0,0,23.36,0C36.91,26.73,35.44,22.73,32.55,17.95ZM25.23,39.7a9.89,9.89,0,0,1-9.88-9.88c0-2.75,1.38-6.43,4.11-10.94a79.93,79.93,0,0,1,5.76-8.15A75.72,75.72,0,0,1,31,18.88c2.72,4.5,4.1,8.18,4.1,10.94A9.89,9.89,0,0,1,25.23,39.7Z"/></svg>