<svg id="Layer_1" data-name="Layer 1" xmlns="http://www.w3.org/2000/svg" viewBox="0 0 50.46 50.46"><defs><style>.cls-1{fill:#12b5e1;}</style></defs><title>agua contaminada</title><path class="cls-1" d="M30.41,33.27a.9.9,0,0,1-.61.5.89.89,0,0,1,0,.78.91.91,0,0,1-1.21.45.9.9,0,0,1-.45-1.2l0,0-3-1.34-3,1.26,0,0a.91.91,0,1,1-1.62-.08.86.86,0,0,1-.6-.5.91.91,0,1,1,1.68-.71.13.13,0,0,0,0,.06l1.9-.8-1.88-.85s0,0,0,.06a.91.91,0,0,1-1.65-.75.91.91,0,0,1,.62-.5.86.86,0,0,1,0-.78.92.92,0,0,1,1.21-.46.91.91,0,0,1,.45,1.21s0,0,0,.05l3,1.34,3-1.25,0-.05a.91.91,0,1,1,1.62.08.83.83,0,0,1,.6.51.91.91,0,1,1-1.67.7s0,0,0-.06l-1.9.8,1.88.85s0,0,0-.06a.91.91,0,1,1,1.65.75Zm-2.12-7.88a1.15,1.15,0,0,1,.39.85,1.2,1.2,0,0,1-.95,1.13v.41a1.3,1.3,0,0,1-1.3,1.3H24a1.3,1.3,0,0,1-1.3-1.3v-.41a1.2,1.2,0,0,1-.95-1.13,1.12,1.12,0,0,1,.39-.85,3.19,3.19,0,0,1-.59-1.86,3.66,3.66,0,0,1,7.31,0,3.2,3.2,0,0,1-.6,1.86Zm-3.66-1.61a1,1,0,1,0-1,1,1,1,0,0,0,1-1Zm1.66,2.88L25.3,25l-1,1.69,1-.49Zm1.56-2.88a1,1,0,1,0-1,1,1,1,0,0,0,1-1Zm0,0"/><path class="cls-1" d="M33.76,16.74A90.76,90.76,0,0,0,26.84,7a2.15,2.15,0,0,0-3.22,0,91.16,91.16,0,0,0-6.92,9.74C13.33,22.32,11.61,27,11.61,30.58a13.62,13.62,0,0,0,27.24,0C38.85,27,37.13,22.32,33.76,16.74ZM25.23,42.09A11.53,11.53,0,0,1,13.71,30.58c0-3.21,1.61-7.5,4.79-12.75a92.48,92.48,0,0,1,6.71-9.5A86.72,86.72,0,0,1,32,17.83c3.18,5.24,4.79,9.53,4.79,12.75A11.53,11.53,0,0,1,25.23,42.09Z"/></svg>