<svg id="Layer_1" data-name="Layer 1" xmlns="http://www.w3.org/2000/svg" viewBox="0 0 50.46 50.46"><defs><style>.cls-1{fill:#12b5e1;}</style></defs><title>ahorro</title><path class="cls-1" d="M48.63,13.26A4.65,4.65,0,0,0,43.75,10a3.36,3.36,0,0,0-2.86,3.78,2.86,2.86,0,0,0,3.22,2.43,2.45,2.45,0,0,0,2.1-2.77.88.88,0,0,0-1-.76.89.89,0,0,0-.76,1,.72.72,0,0,1-.13.51.67.67,0,0,1-.45.26,1.07,1.07,0,0,1-1.21-.92A1.56,1.56,0,0,1,44,11.72a2.83,2.83,0,0,1,2.92,2c.65,2.39-.32,4-3.46,5.7a19.8,19.8,0,0,0-11-6.94,6.18,6.18,0,0,0,.65-2.78A6.33,6.33,0,1,0,20.8,11.9c-.4.06-.84.15-1.39.25-.2-.36-.42-.75-.68-1.13a7.79,7.79,0,0,0-6.56-3.78h0a1.07,1.07,0,0,0-.92.49c-.35.58-.05,1.16.33,1.91A5.49,5.49,0,0,1,12.1,11c.54,3-.16,4.43-3,6.06a10.12,10.12,0,0,1-4.34,1.27.88.88,0,0,0-.84.64l-2.34,8a.91.91,0,0,0,0,.61C1.82,27.91,6,37.07,13,40.88a2.87,2.87,0,0,1,1.61,2.49v2.82a.88.88,0,0,0,.89.89h6.8a.89.89,0,0,0,.88-.71l.44-2.17a.32.32,0,0,1,.33-.24,26,26,0,0,0,4.23,0,.3.3,0,0,1,.32.25l.4,2.18a.87.87,0,0,0,.87.73h6.38a.89.89,0,0,0,.89-.89V43a2.71,2.71,0,0,1,1.32-2.33c5.08-3.09,8-7.77,8-12.83a13.7,13.7,0,0,0-1.89-6.92C47.06,19.48,49.73,17.31,48.63,13.26ZM26.74,4.77a4.94,4.94,0,0,1,.18,9.87h-.33a4.94,4.94,0,0,1,.15-9.87ZM37.43,39.14A4.51,4.51,0,0,0,35.25,43V45.3H30.51l-.27-1.45A2.08,2.08,0,0,0,28,42.14a23.45,23.45,0,0,1-3.93,0,2.09,2.09,0,0,0-2.2,1.66l-.3,1.46H16.38V43.37a4.62,4.62,0,0,0-2.54-4.06,15.54,15.54,0,0,1-2.42-1.63,8.86,8.86,0,0,0,6-5,.89.89,0,0,0-1.62-.73,7,7,0,0,1-6.16,4.21,36.11,36.11,0,0,1-6.27-9L5.48,20A11.82,11.82,0,0,0,10,18.56c2.93-1.7,4.6-3.61,3.84-7.9a5.85,5.85,0,0,0-.56-1.53c2.64.54,4.12,2.87,4.84,4.47l0,0a11.45,11.45,0,0,1,.55,1.49.89.89,0,1,0,1.72-.44,8.79,8.79,0,0,0-.28-.86c.64-.12,1.12-.2,1.57-.26a6.28,6.28,0,0,0,1.45,1.37c-.77.12-1.27.24-1.34.26a.89.89,0,1,0,.4,1.73c.06,0,5.72-1.31,9.44.35a.8.8,0,0,0,.37.08.88.88,0,0,0,.81-.53.89.89,0,0,0-.45-1.17A10,10,0,0,0,30.27,15a6.14,6.14,0,0,0,1.06-.91c7.93,1.8,13.23,7.3,13.23,13.77C44.56,32.26,42,36.38,37.43,39.14Z"/><path class="cls-1" d="M15.48,22.1a.85.85,0,1,0,.84.85A.84.84,0,0,0,15.48,22.1Z"/><path class="cls-1" d="M26.46,12.57v.5a.36.36,0,0,0,.36.35.34.34,0,0,0,.35-.35v-.48c1-.1,1.74-.7,1.74-1.59s-.53-1.37-1.77-1.68V7.76a2.88,2.88,0,0,1,.84.36.44.44,0,0,0,.24.07.44.44,0,0,0,.21-.84,3.06,3.06,0,0,0-1.26-.45V6.72a.35.35,0,0,0-.35-.35.36.36,0,0,0-.36.35V6.9a1.64,1.64,0,0,0-1.71,1.55c0,.92.56,1.37,1.75,1.68v1.6a2.93,2.93,0,0,1-1.21-.54A.42.42,0,0,0,25,11.1a.43.43,0,0,0-.44.44.42.42,0,0,0,.22.39A3.42,3.42,0,0,0,26.46,12.57Zm.68-2.29c.63.2.81.42.81.78s-.29.65-.81.7ZM25.71,8.39c0-.35.27-.63.79-.68V9.15C25.87,9,25.71,8.74,25.71,8.39Z"/></svg>