<svg id="Layer_1" data-name="Layer 1" xmlns="http://www.w3.org/2000/svg" viewBox="0 0 50.46 50.46"><title>ahora12</title><path d="M17.192,4.71a1.374,1.374,0,0,1,.733.65,2.643,2.643,0,0,1,.238,1.225V9.509H16.976l-.1-.486H16.81a1.31,1.31,0,0,1-.553.434,2.114,2.114,0,0,1-1.606-.036,1.292,1.292,0,0,1-.551-.5,1.434,1.434,0,0,1-.191-.749A1.31,1.31,0,0,1,14.4,7.08a2.819,2.819,0,0,1,1.554-.454l.8-.068V6.5a1.091,1.091,0,0,0-.11-.535.623.623,0,0,0-.351-.277,2.1,2.1,0,0,0-.659-.083,4.832,4.832,0,0,0-.659.05A4.265,4.265,0,0,0,14.3,5.8V4.719a5.334,5.334,0,0,1,.778-.153,6.5,6.5,0,0,1,.814-.054,3.557,3.557,0,0,1,1.3.2m-.8,3.816a1,1,0,0,0,.365-.236V7.368l-.657.049a1.034,1.034,0,0,0-.589.187.535.535,0,0,0-.184.434.522.522,0,0,0,.166.418.723.723,0,0,0,.486.144,1.2,1.2,0,0,0,.413-.074"/><path d="M18.923,2.241h1.44V5.083h.067a1.677,1.677,0,0,1,.594-.425,1.918,1.918,0,0,1,.76-.146,1.53,1.53,0,0,1,1.169.468,2.078,2.078,0,0,1,.441,1.466V9.508H21.955V6.54a.862.862,0,0,0-.176-.612.694.694,0,0,0-.517-.179,1.265,1.265,0,0,0-.5.1,1,1,0,0,0-.4.3V9.508h-1.44Z"/><path d="M25.047,9.32a1.92,1.92,0,0,1-.828-.853,3.074,3.074,0,0,1-.29-1.405,2.629,2.629,0,0,1,.625-1.909,2.367,2.367,0,0,1,1.777-.641,2.364,2.364,0,0,1,1.774.643,2.614,2.614,0,0,1,.627,1.9,3.1,3.1,0,0,1-.29,1.412,1.918,1.918,0,0,1-.827.855,3.054,3.054,0,0,1-2.568,0m1.81-.945a.847.847,0,0,0,.317-.452,2.7,2.7,0,0,0,.11-.857,2.805,2.805,0,0,0-.11-.872.845.845,0,0,0-.32-.459,1.083,1.083,0,0,0-1.047,0,.844.844,0,0,0-.32.452,2.725,2.725,0,0,0-.11.861,2.79,2.79,0,0,0,.11.871.852.852,0,0,0,.318.456,1.092,1.092,0,0,0,1.052,0"/><path d="M29.3,4.588h1.174l.112.634h.068a1.3,1.3,0,0,1,.539-.528,1.657,1.657,0,0,1,.765-.173,2.023,2.023,0,0,1,.4.036v1.3a2.564,2.564,0,0,0-.486-.04,1.716,1.716,0,0,0-.643.126,1.126,1.126,0,0,0-.486.346v3.22H29.3Z"/><path d="M35.9,4.71a1.374,1.374,0,0,1,.733.65,2.642,2.642,0,0,1,.239,1.225V9.509H35.685l-.1-.486h-.067a1.3,1.3,0,0,1-.553.434,2.114,2.114,0,0,1-1.606-.036,1.284,1.284,0,0,1-.55-.5,1.435,1.435,0,0,1-.192-.749,1.311,1.311,0,0,1,.493-1.093,2.814,2.814,0,0,1,1.554-.454l.8-.068V6.5a1.091,1.091,0,0,0-.11-.535A.616.616,0,0,0,35,5.683a2.1,2.1,0,0,0-.659-.083,4.855,4.855,0,0,0-.659.05,4.229,4.229,0,0,0-.676.148V4.719a5.334,5.334,0,0,1,.778-.153,6.5,6.5,0,0,1,.814-.054,3.551,3.551,0,0,1,1.3.2m-.8,3.816a1,1,0,0,0,.364-.236V7.368l-.657.049a1.037,1.037,0,0,0-.589.187.535.535,0,0,0-.184.434.522.522,0,0,0,.166.418.723.723,0,0,0,.486.144,1.205,1.205,0,0,0,.414-.074"/><polygon points="19.039 13.299 22.325 13.299 22.325 30.675 17.239 30.675 17.239 19.204 13.543 21.707 13.543 17.018 19.039 13.299"/><path d="M36.871,26.513v4.162H24.628V27.963l4.666-5.532a11.474,11.474,0,0,0,1.4-1.993,3.355,3.355,0,0,0,.416-1.514,1.468,1.468,0,0,0-.649-1.31,4.045,4.045,0,0,0-2.158-.433,12.1,12.1,0,0,0-2.052.181,9.864,9.864,0,0,0-1.841.486V13.779a12.677,12.677,0,0,1,2.1-.456,16.484,16.484,0,0,1,2.362-.188,9.4,9.4,0,0,1,5.444,1.281,4.572,4.572,0,0,1,1.8,3.993,6.805,6.805,0,0,1-.544,2.637,10.351,10.351,0,0,1-1.83,2.765l-2.386,2.7Z"/><path d="M24.146,47.638l-9.47-9.77a1.747,1.747,0,0,1,1.4-2.933H35.022a1.747,1.747,0,0,1,1.405,2.933l-9.47,9.77a1.99,1.99,0,0,1-2.811,0"/></svg>