<svg id="Layer_1" data-name="Layer 1" xmlns="http://www.w3.org/2000/svg" viewBox="0 0 50.46 50.46"><defs><style>.cls-1{fill:#65b4e1;}</style></defs><title>aire acondicionado</title><path class="cls-1" d="M45.44,8.35H5a2.87,2.87,0,0,0-2.86,2.86V26.38A2.87,2.87,0,0,0,5,29.24H45.44a2.87,2.87,0,0,0,2.86-2.86V11.22A2.89,2.89,0,0,0,45.44,8.35Zm.93,18a1,1,0,0,1-1,1H5a1,1,0,0,1-1-1V11.18a1,1,0,0,1,1-1H45.4a1,1,0,0,1,1,1Z"/><path class="cls-1" d="M29.13,33a.77.77,0,1,0-1.33-.79,5.12,5.12,0,0,0-.14,5.2c.48,1.2.85,2.12.1,3.55a.74.74,0,0,0,.31,1,.69.69,0,0,0,.38.1.75.75,0,0,0,.68-.41c1.09-2.05.48-3.52,0-4.85A3.66,3.66,0,0,1,29.13,33Z"/><path class="cls-1" d="M35.45,33a.77.77,0,0,0-1.33-.79,5.12,5.12,0,0,0-.14,5.2c.48,1.2.85,2.12.1,3.55a.74.74,0,0,0,.31,1,.69.69,0,0,0,.38.1.75.75,0,0,0,.68-.41c1.09-2.05.48-3.52,0-4.85S34.49,34.59,35.45,33Z"/><path class="cls-1" d="M16.51,33a.77.77,0,1,0-1.33-.79,5.12,5.12,0,0,0-.14,5.2c.48,1.2.85,2.12.1,3.55a.74.74,0,0,0,.31,1,.69.69,0,0,0,.38.1.75.75,0,0,0,.68-.41c1.09-2.05.48-3.52,0-4.85S15.56,34.59,16.51,33Z"/><path class="cls-1" d="M22.8,33a.77.77,0,1,0-1.33-.79,5.12,5.12,0,0,0-.14,5.2c.48,1.2.85,2.12.1,3.55a.74.74,0,0,0,.31,1,.69.69,0,0,0,.38.1.75.75,0,0,0,.68-.41c1.09-2.05.48-3.52,0-4.85S21.88,34.59,22.8,33Z"/><path class="cls-1" d="M44.18,18.12H6.28a.63.63,0,1,0,0,1.26h37.9a.63.63,0,0,0,0-1.26Z"/><path class="cls-1" d="M44.18,13.7H6.28a.63.63,0,1,0,0,1.26h37.9a.63.63,0,0,0,0-1.26Z"/><circle class="cls-1" cx="43.21" cy="24.06" r="0.97"/><circle class="cls-1" cx="38.79" cy="24.06" r="0.97"/></svg>