<svg id="Layer_1" data-name="Layer 1" xmlns="http://www.w3.org/2000/svg" viewBox="0 0 50.46 50.46"><defs><style>.cls-1{fill:#65b4e1;}</style></defs><title>alarma</title><path class="cls-1" d="M15,10.06a1,1,0,0,0,.12-1.69A7.67,7.67,0,0,0,4.79,19.54a1,1,0,0,0,.76.35H5.7a1,1,0,0,0,.77-.59A19.24,19.24,0,0,1,15,10.06Z"/><path class="cls-1" d="M39.69,6.89a7.62,7.62,0,0,0-4.51,1.47,1,1,0,0,0,.12,1.69,19.24,19.24,0,0,1,8.56,9.23,1,1,0,0,0,.77.59h.15a1,1,0,0,0,.76-.35A7.67,7.67,0,0,0,39.69,6.89Z"/><polygon class="cls-1" points="24.05 16.24 23.44 26.45 16.63 27.14 16.66 29.62 27.05 30.12 27.21 30.11 27.57 30.14 26.54 16.19 24.05 16.24"/><path class="cls-1" d="M25.23,10.51a17.67,17.67,0,0,0-12.69,30L8.32,43.94a1.5,1.5,0,0,0,1.9,2.32l4.37-3.57a1.5,1.5,0,0,0,.23-.24,17.6,17.6,0,0,0,20.62.16l.08.08,4.37,3.57a1.5,1.5,0,1,0,1.9-2.32l-4-3.29A17.68,17.68,0,0,0,25.23,10.51Zm0,33.36A15.68,15.68,0,1,1,40.91,28.19,15.7,15.7,0,0,1,25.23,43.87Z"/></svg>