<svg id="Layer_1" data-name="Layer 1" xmlns="http://www.w3.org/2000/svg" viewBox="0 0 50.46 50.46"><defs><style>.cls-1{fill:#12b5e1;}</style></defs><title>alimentos-irradiados</title><path class="cls-1" d="M23.23,8.48V1.71a23.37,23.37,0,0,0-13,5.3c1.58,1.61,3.17,3.21,4.76,4.82A16.72,16.72,0,0,1,23.23,8.48Z"/><path class="cls-1" d="M39.94,6.79A23.45,23.45,0,0,0,27.23,1.71V8.48a16.62,16.62,0,0,1,7.9,3.11Z"/><path class="cls-1" d="M12.14,14.61,7.39,9.81A23.46,23.46,0,0,0,1.81,22.57H8.62A16.69,16.69,0,0,1,12.14,14.61Z"/><path class="cls-1" d="M42,26.57a16.83,16.83,0,0,1-33.54,0H1.7a23.57,23.57,0,0,0,47.06,0Z"/><path class="cls-1" d="M41.84,22.57h6.81a23.46,23.46,0,0,0-5.81-13l-4.77,4.77A16.73,16.73,0,0,1,41.84,22.57Z"/><path class="cls-1" d="M19.53,17.46,12.9,27.94a2.11,2.11,0,0,0,3,2.94l10.4-6.75a3.94,3.94,0,0,0,1.83-3.85,3.14,3.14,0,0,0-.34-1,.55.55,0,0,0-1,.54,1.9,1.9,0,0,1,.21.62,2.85,2.85,0,0,1-1.34,2.76L20.6,26.5a5.05,5.05,0,0,1-1.79-1.32.4.4,0,0,0-.58,0,.41.41,0,0,0,0,.58,3.46,3.46,0,0,0,.33.35,5.87,5.87,0,0,0,1.26,1L15.28,30a1,1,0,0,1-1.45-1.43L19,20.3a9.76,9.76,0,0,0,1.61,2.08h0a.42.42,0,0,0,.58,0,.4.4,0,0,0,0-.58,7.89,7.89,0,0,1-1.67-2.32L20.46,18a2.83,2.83,0,0,1,2.83-1.35A1.83,1.83,0,0,1,24,17a.54.54,0,0,0,.76-.15.55.55,0,0,0-.14-.76,3,3,0,0,0-1.1-.45A4,4,0,0,0,19.53,17.46Z"/><path class="cls-1" d="M25.91,17.64a.5.5,0,0,0,.1.19.36.36,0,0,0,.12.08c4.13,1.95,5.74-1.1,5.76-1.13a.41.41,0,0,0-.14-.52,4.18,4.18,0,0,0-2-.71A5.19,5.19,0,0,0,30,11.46a.39.39,0,0,0-.48-.24,5.13,5.13,0,0,0-3.47,2.5,5.18,5.18,0,0,0-.14,3.9ZM31,16.73c-.45.56-1.64,1.58-4,.68A3.36,3.36,0,0,1,31,16.73Zm-4.2-2.66a4.13,4.13,0,0,1,2.58-2,4.05,4.05,0,0,1-.68,3.53,5,5,0,0,0-2.17,1.15A4.17,4.17,0,0,1,26.77,14.07Z"/><path class="cls-1" d="M20,38.32a3.11,3.11,0,0,0,4.39.06L34.9,28.1l.45.46a.59.59,0,0,0,.85,0,.58.58,0,0,0,0-.84L31,22.36a.6.6,0,0,0-.85,0,.61.61,0,0,0,0,.85l.46.46L20.06,33.94A3.11,3.11,0,0,0,20,38.32Zm.9-3.52L31.41,24.52l2.66,2.72-1,.92a6.14,6.14,0,0,1-.68-.62.4.4,0,0,0-.58,0,.41.41,0,0,0,0,.58c.1.11.21.23.34.35a2.72,2.72,0,0,0,.35.32l-9,8.77A1.9,1.9,0,1,1,20.9,34.8Z"/><path class="cls-1" d="M37.41,22a1.92,1.92,0,1,0,0,2.72A1.92,1.92,0,0,0,37.41,22Zm-.59,2.15a1.12,1.12,0,1,1,0-1.59A1.12,1.12,0,0,1,36.82,24.14Z"/><path class="cls-1" d="M37.55,19.77a1.13,1.13,0,0,0,0-1.6A1.14,1.14,0,0,0,36,19.75,1.13,1.13,0,0,0,37.55,19.77Zm-1.16-1.19a.55.55,0,0,1,.76,0,.53.53,0,1,1-.76,0Z"/><path class="cls-1" d="M17.4,24.55a.43.43,0,1,0,.42-.43A.42.42,0,0,0,17.4,24.55Z"/><path class="cls-1" d="M31.19,27.3a.43.43,0,1,0,0-.85.43.43,0,0,0,0,.85Z"/><path class="cls-1" d="M21.41,22.88a.43.43,0,1,0,.43-.43A.42.42,0,0,0,21.41,22.88Z"/></svg>