<?xml version="1.0" encoding="utf-8"?>
<!-- Generator: Adobe Illustrator 22.1.0, SVG Export Plug-In . SVG Version: 6.00 Build 0)  -->
<svg version="1.1" id="Layer_1" xmlns="http://www.w3.org/2000/svg" xmlns:xlink="http://www.w3.org/1999/xlink" x="0px" y="0px"
	 viewBox="0 0 50.5 50.5" style="enable-background:new 0 0 50.5 50.5;" xml:space="preserve">
<style type="text/css">
	.st0{fill:#12B5E1;}
</style>
<title>ambiente</title>
<g>
	<path class="st0" d="M16.4,25.7c2.8,0,5.6-0.7,7.7-1.4c0.3-0.1,0.5-0.4,0.6-0.7c0,0,0-0.1,0-0.2c0,0,0,0,0,0c0,0,0,0,0,0
		c0-1.5-0.5-7-2.5-9.4c-2.4-2.8-5.5-2.8-7.4-2.9c-0.4,0-0.8,0-1,0c-0.7-0.2-1.1-0.4-1.2-0.8c-0.2-0.6,0.2-1.4,0.6-1.8
		c0.3-0.3,0.3-0.7,0.1-1.1s-0.6-0.5-1-0.4C11,7.2,7.6,9.6,6.1,13.1c-1.1,2.6-1,5.2,0.3,7.5C8.5,24.5,12.5,25.7,16.4,25.7z M7.7,13.8
		c0.7-1.6,1.9-3,2.9-3.9c0,0.3,0,0.5,0.1,0.8c0.2,0.7,0.9,1.6,2.6,2c0.4,0.1,0.8,0.1,1.3,0.1c1.7,0,4.2,0.1,6.1,2.2
		c1.3,1.5,1.9,5.3,2,7.3c-5.7-0.3-9.4-2.2-10.9-5.6c-0.2-0.5-0.7-0.6-1.2-0.4c-0.5,0.2-0.6,0.7-0.4,1.2c1.5,3.2,4.4,5.3,8.8,6.2
		c-3.7,0.5-8.7,0.3-11.1-4C6.9,17.8,6.8,15.9,7.7,13.8z"/>
	<path class="st0" d="M47.5,22.4h-8.3c-0.5,0-0.8,0.4-0.8,0.8v2c-1.6-0.5-6.8-1.7-10.6,1.5c-0.9,0.8-1.6,1.5-2.2,2.1
		c-1.7,1.7-2.6,2.6-5.1,2.5c-3.2-0.1-5-0.2-6.2,0.9c-0.5,0.5-0.9,1.4-1.1,2.3c-1.2-0.5-2.2-1.3-3.3-2.2c-0.5-0.4-1-0.8-1.4-1.2
		c-1.8-1.6-2.7-2.3-4.6-1.5c-1.3,0.6-1.6,1.4-1.7,2.1C2,33.2,3,35,5.4,37.1c5.3,4.6,9.2,6.1,17.2,6.3l1.8,0.1
		c1.7,0.1,3.2,0.1,4.6,0.1c3.9,0,6.5-0.5,9.3-2.5v1.4c0,0.5,0.4,0.8,0.8,0.8h8.3c0.5,0,0.8-0.4,0.8-0.8V23.2
		C48.3,22.8,47.9,22.4,47.5,22.4z M38.3,38.9c-0.1,0-0.1,0.1-0.2,0.1c-3.8,3.1-6.7,3-13.7,2.7l-1.8-0.1c-7.6-0.3-11-1.5-16.1-5.9
		C4,33.4,3.9,32.3,3.9,32c0-0.1,0.1-0.4,0.7-0.7C5.4,31,5.5,31,7.3,32.6c0.4,0.3,0.8,0.7,1.4,1.2c3.1,2.6,5,3.6,12.1,4
		c7.3,0.4,9.9-3.2,10.1-3.6c0.3-0.4,0.2-1-0.2-1.2c-0.4-0.3-1-0.2-1.2,0.2c-0.1,0.1-2.2,3.1-8.6,2.8c-2.7-0.1-4.6-0.4-6-0.8
		c0.1-0.9,0.4-1.5,0.6-1.7c0.6-0.6,2.2-0.5,4.9-0.4c3.2,0.1,4.5-1.2,6.3-3c0.6-0.6,1.3-1.3,2.1-2c3.6-3.1,9.2-1.1,9.3-1.1
		c0.1,0,0.1,0,0.2,0V38.9z M46.6,41.7H40V24.1h6.6V41.7z"/>
	<path class="st0" d="M43.3,36.4c0.5,0,0.9-0.4,0.9-0.9v-9c0-0.5-0.4-0.9-0.9-0.9c-0.5,0-0.9,0.4-0.9,0.9v9
		C42.4,36,42.8,36.4,43.3,36.4z"/>
	<circle class="st0" cx="43.2" cy="38.8" r="1.1"/>
</g>
</svg>
