<?xml version="1.0" encoding="utf-8"?>
<!-- Generator: Adobe Illustrator 24.0.2, SVG Export Plug-In . SVG Version: 6.00 Build 0)  -->
<svg version="1.1" id="Layer_1" xmlns="http://www.w3.org/2000/svg" xmlns:xlink="http://www.w3.org/1999/xlink" x="0px" y="0px"
	 viewBox="0 0 50.5 50.5" style="enable-background:new 0 0 50.5 50.5;" xml:space="preserve">
<g>
	<path d="M43.4,31.2V9c0-2.5-2-4.6-4.6-4.6c-2.5,0-4.6,2-4.6,4.6v3.1c-2.7-2.4-6.1-4-9.6-4.5c-4.9-0.7-9.8,0.5-13.8,3.5
		c-4,3-6.5,7.3-7.2,12.2c-1.5,10.1,5.6,19.6,15.7,21c0.9,0.1,1.8,0.2,2.7,0.2c3.4,0,6.8-1,9.7-2.8c1.4,2.5,4.1,4.3,7.1,4.3
		c4.5,0,8.1-3.7,8.1-8.1C47,35.2,45.6,32.7,43.4,31.2z M32.2,33.3c-0.1,0.2-0.3,0.4-0.4,0.7c0,0,0,0,0,0.1c0,0,0,0,0,0
		c0.1-2.2,0.2-4.3-1.4-5c-0.6,0.2-1.2,0.2-1.6,0.2c-4.6,0-2.9-7.3,1.3-7.3c0,0,0.1,0,0.1,0c0.5,0,0.9-0.1,1.2-0.1
		c3,0-0.2,1.4,2.9,1.6c0,0,0.1,0,0.1,0v7.6C33.5,31.7,32.8,32.4,32.2,33.3C32.2,33.3,32.2,33.3,32.2,33.3z M33.4,17.7
		c0.1,0.6-0.2,0.9-0.6,0.9c-0.5,0-1-0.4-0.2-0.8c-0.7-0.7-1-1-1.3-1c-0.4,0-0.8,0.5-1.9,1.1c-0.2,0.1-0.5,0.1-0.7,0.1
		c-0.5,0-1-0.2-0.9-0.9c0-0.5,0.3-0.7,0.6-0.7c0.3,0,0.8,0.2,1,0.2c0.2,0,0.3-0.1,0.2-0.5c-0.3-1.3,2.5-1.4,2.9-2
		c-0.5-0.2-2.2-1.3-0.5-1.8c0,0,0.1,0,0.1,0c0.7,0.6,1.4,1.2,2.1,1.9v4.3c0,0-0.1,0-0.1,0.1c-0.1,0-0.1,0-0.1,0
		c-0.7,0,0-2.3-1.1-2.3c-0.1,0-0.3,0-0.4,0.1C31.8,17,33.1,16.8,33.4,17.7z M15.8,12.4c0.3,0,0.2-0.2-0.8-0.7c-0.4-0.8,0-1,0.6-1
		c0.9,0,2.2,0.5,2.2,0.5c0,0,0,0-0.1,0c1.3,0.4-0.7,0.9-0.7,1c-0.3,0.4,0.3,0.7,0.7,0.7c0.3,0,0.6-0.1,0.6-0.4
		c0.1-0.6,0.4-0.8,0.7-0.8c0.3,0,0.6,0.1,0.9,0.2c0.2,0.1,0.4,0.1,0.6,0.1c0.2,0,0.3,0,0.5-0.1c0.3-0.1,0.6-0.2,0.9-0.2
		c1.8,0,2.7,1.7,0.8,1.9c-0.4,0.3-0.8,0.4-1.1,0.4c-0.5,0-0.8-0.3-0.5-0.7c0.1-0.1,0-0.3-0.1-0.3c0,0,0,0,0,0
		c-1.3,0.1-3.9,0.4-4.5,1.2c-0.2,0.2,0,0.6,0.3,0.6c0.7,0.1,0.5,1.2,0.8,1.2c0.1,0,0.2-0.1,0.4-0.3c1.5-0.1,1-1.6,2.3-1.6
		c0,0,0.1,0,0.1,0c0.8,0,0.3,0.8,0.5,1c0.4-0.1,0.6-0.1,0.7-0.1c0.3,0,0,0.3,0.3,0.8c1.3,0.7,0.3,1-0.6,1c-0.4,0-0.8-0.1-1-0.2
		c-1.9,1.1-4.8,3.3-6,4.9c-0.3-1-0.8-1.3-1.4-1.3c-1.6,0-3.5,2.3-1.9,2.3c0.3,0,0.8-0.1,1.4-0.3c0,0,0,0,0,0c0.7,0-0.4,1.1-0.1,1.2
		c0.9,0.5,0.9,2,1.7,2c0.3,0,0.7-0.2,1.4-0.8c1.1,0.1,0.5,1,1.4,1c0.1,0,0.3,0,0.6-0.1c2.2,1,2,2.5,3.2,3.4c2.1,0.2,3.4,1.4,1.6,2.8
		c-0.5,3.4-1.3,0.5-3.9,5.2c-0.3,0.4-0.7,0.5-1.1,0.5c-0.3,0-0.6-0.1-0.7-0.1c-0.2,0-0.2,0.1,0.1,0.4c-0.6,1.1,0.3,0.7-0.1,2.1
		c0.7,0.8,0.6,1.2,0.2,1.2c-0.4,0-1.2-0.4-1.5-1.2c-1.1-2.3-0.9-4.7-0.4-7.5c-2.1-2.1-2.5-3.5-1.6-5.7c0.2-0.4,0-1-0.5-1.1
		c-1.3-0.3-1.2-1.6-2.3-2.2c-0.3,0.1-0.5,0.2-0.7,0.2c-1.5,0-0.7-3.5-1.5-4.1c-0.2-0.1-0.3-0.2-0.3-0.2c-0.4,0,0,1.5-0.9,1.5
		c-0.1,0-0.1,0-0.2,0c-1.1-0.5,0.2-1.7-0.2-2.3c1.2-2.4,2.9-4.4,5-6c0.5-0.4,1.1-0.7,1.6-1.1C13.9,11.8,15.4,12.4,15.8,12.4z
		 M5.2,23.6c0.1-0.6,0.2-1.2,0.4-1.8c0.2,0.2,0.5,0.4,0.8,0.5c0.1,0.1,0.2,0.1,0.4,0.1c0.2,0,0.3,0,0.5,0c0.1,0,0.1,0,0.2,0
		c0.2,1.3,0.7,2.9,2.6,2.9c0.1,0,0.1,0,0.2,0c0,0,0.1,0.1,0.1,0.1c0.3,0.4,0.7,1.1,1.4,1.5c-0.7,2.5,0,4.2,1.6,6
		c-0.4,2.4-0.5,5,0.7,7.7c0.1,0.1,0.1,0.3,0.2,0.4C8,37.7,4.2,30.9,5.2,23.6z M15,23.2c0.3-0.1,0.6-0.3,0.8-0.6
		c0.9-1.2,3.2-3.1,4.9-4.1c0.3,0,0.6,0.1,0.8,0.1c2.1,0,2.7-1,2.8-1.6c0.1-0.4,0.1-1.1-0.6-1.8c1.2-0.4,1.7-1.4,1.7-2.3
		c-0.1-1.5-1.6-2.7-3.4-2.7c-0.5,0-1,0.1-1.4,0.2c-0.4-0.2-0.9-0.4-1.5-0.4c0,0,0,0,0,0c-0.2-0.2-0.5-0.3-0.8-0.4
		c-0.1,0-0.2-0.1-0.3-0.1C19.3,9.2,20.7,9,22,9c0.8,0,1.6,0.1,2.4,0.2c2.2,0.3,4.3,1.1,6.2,2.2c-0.7,0.5-0.8,1.2-0.9,1.6
		c0,0.2,0,0.4,0.1,0.6c-0.6,0.3-1.2,0.7-1.6,1.3c-1.2,0-2.1,0.9-2.1,2.2c0,0.9,0.3,1.5,0.6,1.9c0.3,0.3,0.9,0.8,1.9,0.8
		c0.3,0,0.7,0,1.1-0.1c0.2,0,0.3-0.1,0.5-0.2c0.2-0.1,0.3-0.2,0.5-0.3c0.3,0.7,1.1,1.2,2,1.2c0.2,0,0.3,0,0.5-0.1
		c0.2,0.1,0.5,0.1,0.7,0.1c0.1,0,0.2,0,0.2,0V22c0,0,0,0,0,0c0,0,0,0,0,0c-0.1-0.2-0.2-0.5-0.4-0.8c-0.6-0.7-1.6-0.8-2.5-0.8
		c-0.4,0-0.8,0-1.3,0.1l0,0h0c-1.9,0-3.7,1.1-4.8,2.9c-1.1,1.8-1.2,4-0.3,5.5c0.7,1.3,2.1,2,3.8,2c0.4,0,0.8,0,1.3-0.1
		c0.3,0.6,0.2,2.2,0.2,3.5c-0.1,1.5-0.2,3.1,0.1,4.5c0,0.5,0.1,0.9,0.4,1.3c0.1,0.1,0.2,0.2,0.3,0.3c-3.4,2.1-7.4,3-11.4,2.4
		c-0.6-0.1-1.2-0.2-1.7-0.3c0.3-0.2,0.6-0.5,0.7-0.8c0.3-0.6,0.2-1.4-0.3-2.1c0-0.2,0-0.4,0-0.5c0.6-0.2,1.1-0.6,1.3-1
		c0-0.1,0.1-0.1,0.1-0.2c1.1-1.9,1.7-2.2,2-2.4c1.1-0.5,1.6-1.2,1.9-2.7c1.1-1.1,1-2.2,0.9-2.8c-0.3-1.2-1.5-2-3.2-2.3
		c-0.1-0.1-0.2-0.3-0.3-0.5c-0.5-0.8-1.1-2-2.9-2.8c-0.2-0.1-0.4-0.2-0.7-0.2c0,0,0,0-0.1,0c-0.4-0.5-1-0.8-1.7-0.9c0,0-0.1,0-0.1,0
		C15.3,23.1,15.2,23.1,15,23.2L15,23.2z M38.9,44.4c-2.8,0-5.3-1.8-6.2-4.4c0-0.1-0.1-0.2-0.1-0.3c0-0.2-0.1-0.3-0.1-0.5
		c0,0,0-0.1,0-0.1c-0.1-0.4-0.1-0.9-0.1-1.3c0-0.6,0.1-1.1,0.2-1.7c0.1-0.5,0.3-1,0.6-1.5c0.3-0.6,0.7-1.1,1.2-1.6
		c0.3-0.3,0.7-0.6,1.1-0.9c0.2-0.1,0.4-0.4,0.4-0.7V9c0-1.6,1.3-3,3-3s3,1.3,3,3v6.2h-0.5c-0.4,0-0.8,0.4-0.8,0.8s0.4,0.8,0.8,0.8
		h0.5v2.1h-0.5c-0.4,0-0.8,0.4-0.8,0.8s0.4,0.8,0.8,0.8h0.5v2.1h-0.5c-0.4,0-0.8,0.4-0.8,0.8s0.4,0.8,0.8,0.8h0.5v7.4
		c0,0.3,0.1,0.5,0.4,0.7c2,1.2,3.2,3.3,3.2,5.6C45.4,41.5,42.5,44.4,38.9,44.4z"/>
	<path d="M39.7,34.4V13.7c0-0.4-0.4-0.8-0.8-0.8s-0.8,0.4-0.8,0.8v20.7c-1.5,0.4-2.6,1.7-2.6,3.3c0,1.9,1.5,3.4,3.4,3.4
		c1.9,0,3.4-1.5,3.4-3.4C42.3,36.1,41.2,34.8,39.7,34.4z M38.9,39.6c-1,0-1.8-0.8-1.8-1.8c0-1,0.8-1.8,1.8-1.8c1,0,1.8,0.8,1.8,1.8
		C40.7,38.8,39.9,39.6,38.9,39.6z"/>
</g>
</svg>
