<?xml version="1.0" encoding="utf-8"?>
<!-- Generator: Adobe Illustrator 24.0.2, SVG Export Plug-In . SVG Version: 6.00 Build 0)  -->
<svg version="1.1" id="Layer_1" xmlns="http://www.w3.org/2000/svg" xmlns:xlink="http://www.w3.org/1999/xlink" x="0px" y="0px"
	 viewBox="0 0 50.5 50.5" style="enable-background:new 0 0 50.5 50.5;" xml:space="preserve">
<g>
	<path d="M43.1,32.6c-0.2-0.2-0.4-0.4-0.4-0.7v-7.8h-0.6c-0.4,0-0.8-0.4-0.8-0.8c0-0.4,0.4-0.8,0.8-0.8h0.6v-2.3h-0.6
		c-0.4,0-0.8-0.4-0.8-0.8s0.4-0.8,0.8-0.8h0.6v-2.3h-0.6c-0.4,0-0.8-0.4-0.8-0.8s0.4-0.8,0.8-0.8h0.6V8.2c0-1.7-1.4-3.2-3.1-3.2
		s-3.1,1.4-3.1,3.2v23.7c0,0.3-0.1,0.5-0.4,0.7c-2.1,1.2-3.4,3.5-3.4,5.9c0,3.8,3.1,6.9,6.9,6.9c3.8,0,6.9-3.1,6.9-6.9
		C46.4,36.1,45.2,33.9,43.1,32.6z M39.5,42c-2,0-3.6-1.6-3.6-3.6c0-1.7,1.2-3.1,2.8-3.5V13.1c0-0.4,0.4-0.8,0.8-0.8s0.8,0.4,0.8,0.8
		v21.7c1.6,0.4,2.8,1.8,2.8,3.5C43.1,40.4,41.5,42,39.5,42z"/>
	<path d="M30.6,29.1c-0.1,0-0.1,0-0.2,0c-1.9,0.5-3.3,0.2-3.9-0.9c-0.6-1-0.4-2.5,0.3-3.9c0.8-1.3,2-2.1,3.3-2.1c0,0,0,0,0,0l0.1,0
		c2-0.1,2.4,0,2.5,0.1c0,0,0,0.1,0,0.3c0,0.2,0,0.5,0.2,0.7c0.2,0.3,0.7,0.4,1.6,0.5c0,0,0.1,0,0.1,0c0.1,0,0.2,0,0.2,0
		c0.1,0,0.1-0.1,0.1-0.2v-3.8c0-0.2-0.2-0.3-0.4-0.2c0,0-0.1,0-0.1,0c-0.2,0-0.2-0.6-0.2-1c0-0.8,0.2-2-0.9-2c-0.1,0-0.4,0-0.7,0.1
		c-0.2,0.1-0.5,0.3-0.5,0.6c0,0.3,0.3,0.4,0.5,0.5c0.3,0.2,0.8,0.4,0.9,0.8c0,0.2,0.1,0.5-0.1,0.7c-0.1,0.2-0.6,0.2-0.7,0.2
		c-0.6,0-0.6-0.1-0.7-0.2c0,0,0.1-0.2,0.4-0.3c0.1,0,0.1-0.1,0.1-0.2c0-0.1,0-0.2-0.1-0.2c-0.9-0.9-1.4-1.3-1.9-1.3
		c-0.4,0-0.7,0.3-1.3,0.7c-0.3,0.2-0.7,0.5-1.1,0.8c-0.7,0.2-1.4,0.1-1.7-0.1c-0.1-0.2-0.2-0.4-0.2-0.7c0-0.6,0.3-0.6,0.5-0.6
		c0.2,0,0.5,0.1,0.7,0.1c0.5,0.1,0.9,0.2,1.1-0.1c0.2-0.2,0.1-0.5,0.1-0.7c-0.2-0.8,0.8-1.2,2.2-1.6c0.8-0.2,1.4-0.4,1.6-0.8
		c0-0.1,0.1-0.1,0-0.2c0-0.1-0.1-0.1-0.2-0.2c-0.5-0.2-1.4-0.8-1.4-1.3c0-0.3,0.5-0.4,0.8-0.5c0,0,0,0,0,0c0.1,0,0.2,0,0.3-0.1
		c0-0.1,0-0.2-0.1-0.3c-0.5-0.3-0.9-0.6-1.4-0.9c-0.3-0.2-0.5-0.3-0.8-0.4c-2.6-1.3-5.3-2-8.3-2c-3.2,0-6.3,0.8-9,2.4
		c-0.1,0-0.1,0.1-0.1,0.2s0,0.2,0.1,0.2c0.6,0.6,2,1.1,2.6,1.1c0.3,0,0.4-0.2,0.4-0.2c0.1-0.2-0.1-0.4-1-1c-0.1-0.2-0.2-0.4-0.1-0.5
		c0.1-0.1,0.3-0.1,0.5-0.1c0.7,0,1.8,0.3,2.1,0.5c0.1,0,0.2,0.1,0.3,0.1c-0.1,0.1-0.4,0.2-0.8,0.4c-0.2,0.1-0.3,0.1-0.3,0.2
		c-0.1,0.2-0.2,0.5-0.1,0.7c0.2,0.3,0.7,0.5,1,0.5c0.5,0,0.8-0.2,0.9-0.6c0.1-0.6,0.4-0.6,0.5-0.6c0.3,0,0.6,0.1,0.8,0.2
		c0.4,0.2,0.8,0.2,1.4,0.1c0.3-0.1,0.6-0.1,0.9-0.1c1,0,1.7,0.6,1.7,1c0,0.3-0.3,0.5-0.9,0.6c0,0-0.1,0-0.1,0
		c-0.3,0.2-0.7,0.4-1,0.4c-0.2,0-0.3-0.1-0.4-0.1c0-0.1,0-0.2,0.1-0.2c0.1-0.1,0.1-0.3,0-0.5c-0.1-0.1-0.2-0.2-0.4-0.2c0,0,0,0,0,0
		c-2.1,0.2-4.3,0.5-4.9,1.3c-0.1,0.2-0.1,0.4-0.1,0.6c0.1,0.2,0.3,0.4,0.5,0.5c0.2,0.1,0.3,0.3,0.4,0.6c0.1,0.3,0.2,0.6,0.5,0.6
		c0.2,0,0.3-0.1,0.5-0.3c0.9-0.1,1.2-0.6,1.4-1.1c0.2-0.4,0.4-0.6,0.9-0.6h0.1c0.1,0,0.2,0,0.2,0.1c0.1,0.1,0,0.2,0,0.4
		c0,0.2,0,0.5,0.2,0.6C20.8,15,20.9,15,21,15c0.2,0,0.4-0.1,0.6-0.1c0,0.2,0,0.4,0.2,0.7c0,0,0.1,0.1,0.1,0.1
		c0.5,0.2,0.5,0.4,0.5,0.4c-0.1,0.1-0.4,0.2-1.1,0.2c-0.4,0-0.8-0.1-1-0.2c-0.1,0-0.2,0-0.2,0c-1.9,1-4.7,3.1-6.1,4.8
		c-0.4-0.9-1.1-1.1-1.6-1.1c-1.3,0-2.8,1.4-2.8,2.2c0,0.2,0.1,0.4,0.3,0.5c0.4,0.3,2-0.3,2.1-0.1c0,0.1-0.1,0.3-0.2,0.4
		c-0.2,0.3-0.3,0.5-0.2,0.6c0,0.1,0.1,0.1,0.2,0.2c0.4,0.2,0.6,0.6,0.8,1.1c0.2,0.5,0.5,1.1,1.1,1.1c0.4,0,0.9-0.3,1.5-0.8
		c0.4,0.1,0.4,0.2,0.5,0.4c0.1,0.2,0.2,0.6,0.9,0.6c0.2,0,0.3,0,0.6-0.1c1.3,0.6,1.7,1.4,2.1,2.1c0.3,0.5,0.6,1,1.1,1.4
		c0,0,0.1,0,0.1,0.1c1.2,0.1,2.1,0.6,2.3,1.2c0.1,0.5-0.3,1-0.8,1.4c0,0-0.1,0.1-0.1,0.2c-0.2,1.6-0.5,1.8-1,2
		c-0.6,0.3-1.6,0.7-3,3.3c-0.2,0.3-0.5,0.4-0.9,0.4c-0.2,0-0.3,0-0.5,0c-0.5-0.1-0.6,0.1-0.6,0.2c-0.1,0.2,0,0.3,0.2,0.5
		c-0.2,0.5-0.2,0.8,0,1.1c0.1,0.2,0.2,0.4,0,1c0,0.1,0,0.2,0.1,0.2c0.4,0.5,0.5,0.8,0.5,0.8c0,0,0,0-0.1,0c-0.3,0-1-0.4-1.3-1.1
		c-1-2.1-1.1-4.3-0.4-7.7c0-0.1,0-0.2-0.1-0.2c-2.1-2.2-2.5-3.5-1.6-5.7c0.1-0.3,0.1-0.7-0.1-0.9c-0.1-0.3-0.4-0.4-0.7-0.5
		c-0.6-0.1-0.9-0.6-1.2-1.1c-0.3-0.4-0.5-0.9-1.1-1.2c-0.1,0-0.2,0-0.2,0c-0.2,0.1-0.4,0.2-0.6,0.2c-0.6,0-0.8-0.9-0.9-2.2
		c-0.1-0.9-0.1-1.7-0.6-2c-0.2-0.2-0.4-0.3-0.5-0.3c-0.4,0-0.4,0.4-0.5,0.8c-0.1,0.6-0.2,0.8-0.5,0.8c0,0-0.1,0-0.1,0
		c-0.4-0.2-0.4-0.5-0.1-1.1c0.1-0.4,0.3-0.7,0.1-1.1C6.2,18,6.1,18,6,18c-0.1,0-0.2,0-0.2,0.1c-1.2,2.5-1.8,5.1-1.8,7.9
		c0,9.9,8.1,18,18,18c3.4,0,6.7-0.9,9.5-2.7l0.2-0.1c0.1-0.1,0.1-0.2,0.1-0.3c-0.2-0.8-0.3-1.5-0.3-2.3c0-1.3,0.3-2.6,0.9-3.8
		c0,0,0-0.1,0-0.1C32.4,32.4,32.6,29.9,30.6,29.1z"/>
</g>
</svg>
