<svg id="Layer_1" data-name="Layer 1" xmlns="http://www.w3.org/2000/svg" viewBox="0 0 50.46 50.46"><defs><style>.cls-1{fill:#65b4e1;}</style></defs><title>animales exp imp</title><path class="cls-1" d="M21.9,41.87l0-.06H36.59A2.44,2.44,0,0,0,39,39.38l-.09-25.92,1.76-.84V39.38a4.11,4.11,0,0,1-4.1,4.1H19l.79-.24A4.74,4.74,0,0,0,21.9,41.87Z"/><path class="cls-1" d="M9.07,36.95V9.72a4.1,4.1,0,0,1,4.1-4.1H31L29.88,7.23l0,.05H13.17a2.44,2.44,0,0,0-2.43,2.43v26Z"/><path class="cls-1" d="M12,38.45v1.82a.42.42,0,0,0,.12.29.4.4,0,0,0,.29.12c2.24,0,4.55,0,6.66-2.62l.26-.32-.06.4c-.51,3.66-2.76,5.54-6.88,5.75a.4.4,0,0,0-.38.4v1.82L6.68,42.29l5.17-3.71Z"/><path class="cls-1" d="M32,12.28l6.42-1.44L37,9.63a.42.42,0,0,1-.14-.28.4.4,0,0,1,.1-.29c1.49-1.67,3-3.4,6.39-3.23l.41,0-.34-.23c-3.07-2.05-6-1.62-8.87,1.32h0A.4.4,0,0,1,34,7L32.65,5.74Z"/><path class="cls-1" d="M21.77,22.16a1.7,1.7,0,0,0,1,.34,1.46,1.46,0,0,0,.41-.06,2,2,0,0,0,1.09-2.61,2.5,2.5,0,0,0-.92-1.35,1.61,1.61,0,0,0-1.4-.28,2,2,0,0,0-1.09,2.61A2.5,2.5,0,0,0,21.77,22.16Z"/><path class="cls-1" d="M18,22.86a1.61,1.61,0,0,0-.44,1.35,2.61,2.61,0,0,0,2.17,2.21l.25,0A1.56,1.56,0,0,0,21.07,26a1.61,1.61,0,0,0,.44-1.35,2.49,2.49,0,0,0-.72-1.46A2,2,0,0,0,18,22.86Z"/><path class="cls-1" d="M22.26,30.22a1.81,1.81,0,0,0,.46-.05,12.43,12.43,0,0,1,2.13-.22,12.45,12.45,0,0,1,2.13.22,2.08,2.08,0,0,0,1.81-.42,1.34,1.34,0,0,0,.35-1.34,2.69,2.69,0,0,0-1-1.48A3.21,3.21,0,0,1,27,25a2.17,2.17,0,0,0-4.32,0,3.22,3.22,0,0,1-1.16,1.94,2.69,2.69,0,0,0-1,1.48,1.34,1.34,0,0,0,.35,1.34A2,2,0,0,0,22.26,30.22Z"/><path class="cls-1" d="M26.77,22.44a1.47,1.47,0,0,0,.41.06,1.71,1.71,0,0,0,1-.34,2.5,2.5,0,0,0,.92-1.35A2,2,0,0,0,28,18.2a1.6,1.6,0,0,0-1.4.28,2.61,2.61,0,0,0-.86,3A1.61,1.61,0,0,0,26.77,22.44Z"/><path class="cls-1" d="M30,26.42a2.61,2.61,0,0,0,2.17-2.21,1.54,1.54,0,0,0-1.8-1.77,2.61,2.61,0,0,0-2.17,2.21A1.61,1.61,0,0,0,28.64,26a1.56,1.56,0,0,0,1.11.43Z"/></svg>