<?xml version="1.0" encoding="utf-8"?>
<!-- Generator: Adobe Illustrator 24.2.1, SVG Export Plug-In . SVG Version: 6.00 Build 0)  -->
<svg version="1.1" id="Capa_1" xmlns="http://www.w3.org/2000/svg" xmlns:xlink="http://www.w3.org/1999/xlink" x="0px" y="0px"
	 viewBox="0 0 50.5 50.5" style="enable-background:new 0 0 50.5 50.5;" xml:space="preserve">
<g>
	<path d="M31.833,24.909c0.001,0.014,0.004,0.028,0.009,0.042l0.065,0.159c0.095,0.003,0.187,0.013,0.279,0.022l-0.103-0.255
		l-0.125-2.982c-0.003-0.065-0.055-0.117-0.12-0.12l-0.682-0.026c-0.029,0-0.068,0.012-0.093,0.036
		c-0.024,0.024-0.038,0.058-0.037,0.092l0.082,3.28c0.08-0.013,0.167-0.014,0.249-0.022l-0.078-3.131l0.434,0.017L31.833,24.909z"/>
	<path d="M19.965,29.14v0.651c0,0.069,0.056,0.125,0.125,0.125h8.219c-0.014-0.081-0.023-0.166-0.033-0.25h-8.061v-0.401h8.031
		c-0.004-0.085-0.019-0.162-0.019-0.25H20.09C20.021,29.015,19.965,29.07,19.965,29.14z"/>
	<path d="M18.446,23.683c-0.069,0-0.125,0.056-0.125,0.125v9.442c0,0.069,0.056,0.125,0.125,0.125h0.767
		c0.069,0,0.125-0.056,0.125-0.125v-9.442c0-0.069-0.056-0.125-0.125-0.125H18.446z M19.087,33.125h-0.517v-9.192h0.517V33.125z"/>
	<path d="M20.644,25.378v-2.345c-0.056-0.039-0.11-0.081-0.147-0.141l-0.103-0.167v2.527H20.08l-0.018-3.065l-0.253-0.409
		l0.022,3.599c0,0.068,0.056,0.124,0.125,0.124h0.563C20.588,25.503,20.644,25.447,20.644,25.378z"/>
	<path d="M17.478,25.829c0.069,0,0.125-0.056,0.125-0.125v-0.652c0-0.069-0.056-0.125-0.125-0.125h-2.707v-1.12
		c0-0.069-0.056-0.125-0.125-0.125h-1.304c-0.069,0-0.125,0.056-0.125,0.125v1.12h-0.646c-0.069,0-0.125,0.056-0.125,0.125v0.652
		c0,0.069,0.056,0.125,0.125,0.125h0.646v0.787h-0.646c-0.069,0-0.125,0.056-0.125,0.125v0.651c0,0.069,0.056,0.125,0.125,0.125
		h0.646v0.787h-0.646c-0.069,0-0.125,0.056-0.125,0.125v0.652c0,0.069,0.056,0.125,0.125,0.125h0.646v0.787h-0.646
		c-0.069,0-0.125,0.056-0.125,0.125v0.651c0,0.069,0.056,0.125,0.125,0.125h0.646v2.354c0,0.069,0.056,0.125,0.125,0.125h1.304
		c0.069,0,0.125-0.056,0.125-0.125v-2.354h2.707c0.069,0,0.125-0.056,0.125-0.125v-0.651c0-0.069-0.056-0.125-0.125-0.125h-2.707
		v-0.787h2.707c0.069,0,0.125-0.056,0.125-0.125V28.43c0-0.069-0.056-0.125-0.125-0.125h-2.707v-0.787h2.707
		c0.069,0,0.125-0.056,0.125-0.125v-0.651c0-0.069-0.056-0.125-0.125-0.125h-2.707v-0.787H17.478z M14.646,26.866h2.707v0.401
		h-2.707c-0.069,0-0.125,0.056-0.125,0.125v1.037c0,0.069,0.056,0.125,0.125,0.125h2.707v0.402h-2.707
		c-0.069,0-0.125,0.056-0.125,0.125v1.037c0,0.069,0.056,0.125,0.125,0.125h2.707v0.401h-2.707c-0.069,0-0.125,0.056-0.125,0.125
		v2.354h-1.054v-2.354c0-0.069-0.056-0.125-0.125-0.125h-0.646v-0.401h0.646c0.069,0,0.125-0.056,0.125-0.125v-1.037
		c0-0.069-0.056-0.125-0.125-0.125h-0.646v-0.402h0.646c0.069,0,0.125-0.056,0.125-0.125v-1.037c0-0.069-0.056-0.125-0.125-0.125
		h-0.646v-0.401h0.646c0.069,0,0.125-0.056,0.125-0.125v-1.037c0-0.069-0.056-0.125-0.125-0.125h-0.646v-0.402h0.646
		c0.069,0,0.125-0.056,0.125-0.125v-1.12h1.054v1.12c0,0.069,0.056,0.125,0.125,0.125h2.707v0.402h-2.707
		c-0.069,0-0.125,0.056-0.125,0.125v1.037C14.521,26.811,14.578,26.866,14.646,26.866z"/>
	<path d="M22.016,26.138c-0.032-0.112-0.062-0.226-0.086-0.345c-0.054,0.09-0.114,0.184-0.158,0.266
		c-0.414,0.77-0.876,2.008-0.896,2.06c-0.014,0.039-0.009,0.082,0.015,0.115s0.062,0.054,0.103,0.054h1.748
		c0.058,0,0.108-0.04,0.122-0.096c0.001-0.005,0.048-0.194,0.128-0.461c-0.064-0.058-0.134-0.105-0.195-0.169
		c-0.005-0.005-0.007-0.011-0.012-0.016c-0.065,0.213-0.114,0.39-0.14,0.491h-1.469c0.143-0.371,0.5-1.271,0.817-1.859
		C21.998,26.166,22.009,26.151,22.016,26.138z"/>
	<path d="M21.118,31.821c-0.346-0.217-0.503-1.14-0.534-1.478c-0.006-0.061-0.055-0.108-0.116-0.113
		c-0.058-0.001-0.116,0.036-0.13,0.096c-0.014,0.058-0.333,1.409-0.083,2.032c0.139,0.346,0.499,0.434,0.83,0.434
		c0.33,0,0.63-0.087,0.655-0.094c0.036-0.011,0.064-0.036,0.079-0.07s0.014-0.072-0.003-0.105
		C21.808,32.507,21.616,32.132,21.118,31.821z M20.487,32.266C20.487,32.265,20.487,32.265,20.487,32.266
		c-0.115-0.287-0.085-0.784-0.03-1.195c0.095,0.376,0.258,0.793,0.528,0.963c0.259,0.161,0.424,0.343,0.516,0.464
		C21.209,32.554,20.628,32.618,20.487,32.266z"/>
	<path d="M28.905,31.387c-0.054-0.077-0.112-0.15-0.159-0.232c-0.46,0.853-1.289,1.428-1.303,1.437
		c-0.042,0.028-0.063,0.078-0.054,0.127c0.01,0.05,0.047,0.089,0.096,0.1c0.011,0.002,0.126,0.027,0.3,0.027
		c0.257,0,0.643-0.055,1.014-0.313c0.221-0.155,0.408-0.366,0.568-0.614c-0.056-0.052-0.118-0.092-0.172-0.149
		c-0.005-0.006-0.009-0.013-0.014-0.018c-0.147,0.234-0.32,0.433-0.525,0.576c-0.285,0.199-0.585,0.256-0.802,0.266
		C28.139,32.358,28.583,31.931,28.905,31.387z"/>
	<path d="M22.607,15.03v0.745h0.25v-0.797c0-0.033-0.013-0.065-0.037-0.088l-0.201-0.201h1.804c0.025,0,0.048-0.007,0.068-0.021
		c0.02,0.013,0.044,0.021,0.069,0.021h1.824l-0.512,0.409c-0.03,0.023-0.047,0.06-0.047,0.098l0.002,5.733
		c0.083,0.009,0.168,0.014,0.248,0.029v-5.702l0.744-0.594c0.041-0.033,0.058-0.089,0.04-0.139c-0.018-0.05-0.065-0.083-0.118-0.083
		h-2.087c-0.131-0.468-0.32-1.151-0.53-1.923c-0.506-1.865,0.167-2.974,0.818-4.046c0.142-0.233,0.275-0.454,0.396-0.682
		c0.696-1.307-0.227-3.083-0.267-3.159l-0.008,0.005c-0.017-0.034-0.037-0.056-0.06-0.064c-0.047-0.016-0.102-0.003-0.137,0.036
		c-0.034,0.039-0.04,0.094-0.016,0.14c0,0.001,0.005,0.01,0.013,0.026c0.057,0.242,0.063,1.662-0.142,2.411
		c-0.093,0.341-0.388,0.77-0.7,1.225c-0.476,0.693-1.016,1.479-1.16,2.343c-0.151,0.905,0.609,2.311,1.164,3.337
		c0.067,0.125,0.131,0.243,0.189,0.351h-1.901c-0.051,0-0.096,0.03-0.116,0.077c-0.019,0.047-0.008,0.101,0.027,0.136L22.607,15.03z
		 M23.112,10.791c0.134-0.809,0.657-1.57,1.119-2.242c0.339-0.493,0.631-0.919,0.735-1.301c0.085-0.314,0.175-1.108,0.186-1.751
		c0.189,0.61,0.337,1.481-0.031,2.173c-0.118,0.221-0.25,0.438-0.39,0.669c-0.647,1.065-1.38,2.273-0.846,4.242
		c0.147,0.542,0.284,1.039,0.398,1.449c-0.011-0.02-0.022-0.041-0.034-0.062C23.741,13.03,22.975,11.612,23.112,10.791z"/>
	<path d="M9.523,33.632h2.759c0.045,0,0.087-0.024,0.109-0.064c0.022-0.039,0.021-0.088-0.002-0.126l-0.297-0.483v-9.584
		c0-0.031-0.011-0.061-0.032-0.083l-0.485-0.542h0.984c0.045,0,0.087-0.025,0.109-0.065s0.021-0.088-0.004-0.127
		c-0.053-0.084-1.31-2.063-1.702-2.613c-0.204-0.286-0.355-0.488-0.492-0.67c-0.128-0.171-0.244-0.324-0.377-0.515
		c-0.063-0.09-0.057-0.122-0.057-0.123c0.011-0.032,0.16-0.076,0.232-0.097c0.097-0.028,0.206-0.061,0.298-0.113
		c0.032-0.019,0.061-0.024,0.096-0.013c0.109,0.031,0.216,0.188,0.235,0.216c0.005,0.017,0.124,0.411,0.479,1.238
		c0.359,0.839,2.121,2.76,2.196,2.841c0.024,0.026,0.046,0.036,0.095,0.041l2.93-0.073c-0.001-0.015-0.009-0.029-0.009-0.044v-0.206
		l-2.871,0.072c-0.262-0.289-1.797-1.993-2.112-2.729c-0.348-0.811-0.468-1.207-0.479-1.234c-0.017-0.03-0.167-0.296-0.396-0.361
		c-0.097-0.028-0.197-0.017-0.289,0.037c-0.066,0.038-0.157,0.064-0.245,0.09c-0.169,0.05-0.344,0.101-0.397,0.254
		c-0.035,0.101-0.006,0.214,0.087,0.349c0.136,0.193,0.252,0.348,0.382,0.521c0.136,0.181,0.286,0.381,0.488,0.665
		c0.317,0.445,1.239,1.886,1.572,2.41h-1.036c-0.049,0-0.094,0.029-0.114,0.074c-0.02,0.045-0.012,0.098,0.021,0.135l0.64,0.715
		v9.572c0,0.023,0.006,0.046,0.019,0.065l0.199,0.323H9.398c-0.069,0-0.125,0.056-0.125,0.125v0.651
		c0,0.069,0.056,0.125,0.125,0.125h25.107v-0.25H9.523V33.632z"/>
	<path d="M29.376,25.655c0.034,0.09,0.067,0.18,0.092,0.265c0.028-0.025,0.056-0.05,0.085-0.074l0.497-0.828
		c0.012-0.02,0.018-0.042,0.018-0.064v-3.792c0-0.028-0.01-0.055-0.026-0.077l-0.276-0.352h3.112l-0.317,0.205
		c-0.035,0.023-0.057,0.063-0.057,0.105v3.674c0,0.015,0.003,0.031,0.009,0.045c0.056,0.146,0.117,0.305,0.176,0.458
		c0.1,0.025,0.203,0.045,0.298,0.078c-0.107-0.28-0.189-0.493-0.232-0.605v-3.583l0.616-0.398c0.046-0.03,0.067-0.087,0.052-0.14
		c-0.016-0.053-0.064-0.09-0.12-0.09h-3.793c-0.048,0-0.092,0.027-0.112,0.07c-0.021,0.043-0.016,0.094,0.014,0.132l0.408,0.52
		v3.715L29.376,25.655z"/>
	<path d="M31.685,32.811c-0.119,0-0.228-0.021-0.343-0.031h-1.275v-0.364c-0.084-0.044-0.17-0.086-0.25-0.138v0.627
		c0,0.069,0.056,0.125,0.125,0.125h4.564v-0.25h-2.355C31.999,32.796,31.846,32.811,31.685,32.811z"/>
	<path d="M24.87,15.38c-0.02-0.044-0.065-0.073-0.114-0.073h-0.417c-0.012,0-0.023,0.001-0.034,0.004
		c-0.011-0.003-0.022-0.004-0.034-0.004h-0.493c-0.069,0-0.125,0.056-0.125,0.125v5.876c0.084-0.045,0.162-0.099,0.25-0.136v-5.615
		h0.368c0.012,0,0.023-0.001,0.034-0.004c0.011,0.003,0.022,0.004,0.034,0.004h0.142l-0.233,0.267
		c-0.02,0.023-0.031,0.053-0.031,0.083l0.018,5.161c0.082-0.025,0.163-0.053,0.249-0.073l-0.017-5.042l0.384-0.438
		C24.882,15.478,24.89,15.425,24.87,15.38z"/>
	<path d="M25.23,3.66c-13.233,0-24,9.676-24,21.57s10.767,21.57,24,21.57c13.233,0,24-9.676,24-21.57S38.463,3.66,25.23,3.66z
		 M25.23,46.326c-12.972,0-23.526-9.464-23.526-21.096c0-11.632,10.554-21.096,23.526-21.096s23.526,9.464,23.526,21.096
		C48.756,36.862,38.202,46.326,25.23,46.326z"/>
	<polygon points="18.307,18.397 20.923,22.63 22.238,22.63 22.238,20.134 22.238,16.139 21.87,16.139 21.021,16.139 21.021,20.473 
		18.364,16.139 17.089,16.139 17.089,22.63 18.307,22.63 	"/>
	<path d="M13.373,17.377c0.696,0,1.271-0.171,1.724-0.516c0.453-0.344,0.777-0.87,0.972-1.578l-1.271-0.404
		c-0.109,0.476-0.289,0.824-0.54,1.044c-0.251,0.222-0.55,0.333-0.899,0.333c-0.472,0-0.856-0.174-1.151-0.523
		c-0.295-0.348-0.443-0.932-0.443-1.753c0-0.774,0.15-1.333,0.449-1.678c0.3-0.346,0.691-0.518,1.171-0.518
		c0.348,0,0.644,0.098,0.888,0.293c0.244,0.194,0.404,0.46,0.481,0.796l1.297-0.309c-0.148-0.52-0.369-0.919-0.665-1.196
		c-0.495-0.468-1.141-0.704-1.934-0.704c-0.909,0-1.643,0.299-2.201,0.896c-0.557,0.598-0.836,1.437-0.836,2.518
		c0,1.021,0.277,1.826,0.832,2.415C11.803,17.083,12.511,17.377,13.373,17.377z"/>
	<path d="M23.163,22.287c-0.557,0.598-0.836,1.437-0.836,2.518c0,1.021,0.277,1.826,0.832,2.415
		c0.555,0.589,1.263,0.883,2.125,0.883c0.696,0,1.271-0.171,1.724-0.516c0.453-0.344,0.777-0.87,0.972-1.578l-1.271-0.404
		c-0.109,0.476-0.289,0.824-0.54,1.044c-0.251,0.222-0.55,0.333-0.899,0.333c-0.472,0-0.856-0.174-1.151-0.523
		c-0.295-0.348-0.443-0.932-0.443-1.753c0-0.774,0.15-1.333,0.449-1.678c0.3-0.346,0.691-0.518,1.171-0.518
		c0.348,0,0.644,0.098,0.888,0.293c0.244,0.194,0.404,0.46,0.481,0.796l1.297-0.309c-0.148-0.52-0.369-0.918-0.665-1.196
		c-0.495-0.469-1.141-0.704-1.934-0.704C24.455,21.391,23.722,21.69,23.163,22.287z"/>
	<path d="M31.685,32.31c0.696,0,1.271-0.171,1.724-0.516c0.453-0.344,0.777-0.87,0.972-1.578l-1.271-0.404
		c-0.109,0.476-0.289,0.824-0.54,1.044c-0.251,0.222-0.55,0.333-0.899,0.333c-0.472,0-0.856-0.174-1.151-0.523
		c-0.295-0.348-0.443-0.932-0.443-1.753c0-0.774,0.15-1.333,0.449-1.678c0.3-0.346,0.691-0.518,1.171-0.518
		c0.348,0,0.645,0.098,0.888,0.293c0.244,0.194,0.404,0.46,0.481,0.796l1.297-0.309c-0.148-0.52-0.369-0.918-0.665-1.196
		c-0.495-0.468-1.141-0.704-1.934-0.704c-0.909,0-1.643,0.299-2.201,0.896c-0.557,0.598-0.836,1.437-0.836,2.518
		c0,1.021,0.277,1.826,0.832,2.415C30.114,32.016,30.823,32.31,31.685,32.31z"/>
	<path d="M39.212,33.67c0.28-0.127,0.502-0.318,0.666-0.571c0.164-0.254,0.246-0.533,0.246-0.837c0-0.28-0.067-0.533-0.2-0.759
		c-0.132-0.226-0.298-0.406-0.498-0.543c-0.199-0.135-0.425-0.224-0.677-0.267c-0.253-0.044-0.635-0.065-1.149-0.065h-2.594v6.491
		h2.209c0.835-0.006,1.362-0.021,1.581-0.044c0.348-0.039,0.642-0.141,0.879-0.307c0.238-0.167,0.425-0.391,0.562-0.669
		c0.138-0.28,0.206-0.567,0.206-0.861c0-0.376-0.106-0.702-0.318-0.98C39.911,33.981,39.608,33.785,39.212,33.67z M36.317,31.708
		h0.752c0.618,0,0.991,0.007,1.12,0.022c0.218,0.027,0.383,0.104,0.494,0.229c0.111,0.125,0.166,0.288,0.166,0.489
		c0,0.21-0.064,0.379-0.193,0.506c-0.128,0.129-0.305,0.206-0.529,0.233c-0.124,0.015-0.441,0.022-0.952,0.022h-0.858V31.708z
		 M38.904,35.726c-0.122,0.137-0.281,0.223-0.476,0.259c-0.127,0.026-0.426,0.039-0.898,0.039h-1.213v-1.735h1.057
		c0.596,0,0.983,0.031,1.162,0.093c0.179,0.063,0.316,0.161,0.41,0.297c0.094,0.136,0.142,0.301,0.142,0.495
		C39.088,35.405,39.026,35.589,38.904,35.726z"/>
</g>
</svg>
