<?xml version="1.0" encoding="utf-8"?>
<!-- Generator: Adobe Illustrator 24.2.1, SVG Export Plug-In . SVG Version: 6.00 Build 0)  -->
<svg version="1.1" id="Capa_1" xmlns="http://www.w3.org/2000/svg" xmlns:xlink="http://www.w3.org/1999/xlink" x="0px" y="0px"
	 viewBox="0 0 50.5 50.5" style="enable-background:new 0 0 50.5 50.5;" xml:space="preserve">
<g>
	<path d="M31.624,16.062c-0.188,0.03-0.387,0.026-0.525,0.044c-0.081,0.251-0.244,0.596-0.605,1.087
		c-0.748,1.015-1.172,1.238-1.172,1.238l-0.065,0.071c-0.093,0.054-0.184,0.155-0.271,0.293l-0.028,0.031
		c0,0-0.01,0.024-0.027,0.065c-0.162,0.29-0.309,0.683-0.43,1.06c-0.126,0.314-0.231,0.584-0.243,0.632
		c-0.028,0.13-0.188,0.749-0.522,0.745c-0.142-0.045-0.336-0.17-0.609-0.435c0,0-0.276-0.24-0.555-0.32
		c-0.268-0.077-0.276-0.283-0.276-0.301c0.001,0,0.002,0.002,0.002,0.002c0.028-0.214,0.301-0.281,0.301-0.281
		c-0.153-0.139-0.487,0.081-0.304,0.278c-0.005,0.007-0.069,0.106-0.044,0.23c0.001,0.005-0.001,0.007,0.001,0.012
		c0,0.001,0.001,0.001,0.002,0.002c0.027,0.229,0.595,0.39,0.723,0.525c0.025,0.033,0.051,0.063,0.073,0.104l-0.597,0.454
		c-0.124-0.134-0.378-0.286-0.862-0.429c0,0-0.663-0.107-0.979,0.095c0,0,0.626-0.004,0.906,0.123
		c0.542,0.223,0.422,0.459,0.676,0.595c-0.033,0.05-0.068,0.094-0.104,0.13c-0.217-0.006-0.528-0.074-0.809-0.37
		c0,0,0.15,0.326,0.408,0.472c-0.272,0.03-0.661,0.198-0.649,0.919c0,0-0.217,2.011-2.623-0.4c0,0-0.711-0.632-0.746-0.874
		c0,0-0.155,0.15,0.7,1.195c0.489,0.599,0.995,1,1.451,1.163c-0.017,0.332-0.004,1.026,0.334,1.623c0,0,0.127,0.186,0.322,0.379
		l0.386,0.282c0,0,0.008,0.006,0.026,0.02c-0.607,6.103-7.792,6.385-8.8,0.169l0.385-0.356c0,0,0.658-0.456,0.721-1.944
		c-0.141-0.053-0.295-0.114-0.458-0.181c-0.233-0.029-0.43-0.131-0.588-0.254c-0.443-0.218-1.188-0.573-1.62-0.921
		c-0.25-0.111-0.572-0.402-0.697-0.727c-1.022-1.461-1.621-3.025-0.887-5.009c0.204-0.754,0.653-1.294,1.107-1.631
		c0.987-0.991,1.994-1.247,2.389-1.265c0.135-0.888,1.154-5.123,5.331-6.229H9.716v20.657c0.207,0.012,0.409,0.019,0.603,0.021
		c0.655-0.038,1.237-0.128,1.237-0.128c1.512-0.18,2.365-0.548,2.93-0.876l1.202-0.82c0.194,1.067,1.131,4.847,4.699,4.847
		c0,0,4.478,0.453,4.875-5.081c0.479,0.314,1.238,1.234,3.925,1.583c0,0,4.236,0.359,5.377,1.49
		c0.026-0.698,0.272-1.759,1.099-2.528c1.625-1.51,4.633-4.77,5.041-5.213V8.171H26.9c3.582,0.707,4.87,2.586,5.333,3.546
		c0.171,0.345,1.568,4.04-0.289,4.297L31.624,16.062z"/>
	<path d="M20.556,16.683c-0.228,0.235-0.537,0.424-0.597-0.098c-0.049-0.222-0.167-0.429-0.167-0.429s-0.122-0.299-0.089-0.727
		c0.36-0.552,0.845-0.919,1.472-0.91c0.665-0.342,1.334,0.172,1.935,0.014c0.299-0.151,0.474-0.445,0.616-0.93
		c0.157-0.541,0.583-0.704,0.956-0.738c0.243-0.119,0.748-0.072,1.069-0.078c0.129-0.242,0-0.659,0.327-0.793
		c0.203-0.196,0.513-0.135,0.513-0.135c0.92,0.013,1.078,2.76,4.567,3.711c1.901,0.518,0.715-2.846,0.715-2.846
		c-1.223-3.721-6.01-4.401-6.987-4.324c-4.935-0.27-7.024,2.579-7.883,6.344c-0.227,0.801-0.969,1.15-1.525,1.3L15.453,16
		c0.732-0.265,1.062-0.731,1.202-1.018c-0.493-0.062-1.04,0.097-1.641,0.474c-2.52,1.697-2.264,5.231-0.35,7.07
		c0.564,0.379,1.051,0.571,1.051,0.571c0.097,0.101,0.192,0.185,0.286,0.262c0.455,0.215,0.858,0.384,1.199,0.516
		c0-0.011,0-0.021,0-0.033l0.029-3.954c0,0,1.507-0.468,1.716-2.143c0.076-0.612,0.23-1.239,0.467-1.777
		c0.048,0.316,0.365,0.687,0.371,0.801c0.021,0.406,0.408,0.772,0.74,0.113c0.025-0.049,0.053-0.103,0.082-0.157L20.556,16.683z"/>
	<path d="M27.4,17.745c0,0-0.587,0.142-0.778-0.303c-0.192-0.443-0.102,0.009-0.102,0.009S26.477,18.179,27.4,17.745z"/>
	<path d="M20.975,15.533c-0.066,0.086-0.304,0.21-0.304,0.21c0.162,0.075,0.42-0.149,0.42-0.149c0.475-0.305,0.043-0.943-0.42-0.726
		c0.001,0,0.001-0.001,0.002-0.002c0,0-0.183,0.057-0.349,0.195c-0.021,0.016-0.037,0.028-0.037,0.028
		c0.003-0.002,0.005-0.002,0.007-0.004c-0.118,0.107-0.222,0.256-0.233,0.462c0,0-0.04,0.279,0.174,0.401
		c0,0,0.357,0.076,0.356,0.206c0,0,0.048-0.123-0.149-0.292c-0.2-0.169-0.09-0.468-0.09-0.468s0.045-0.135,0.124-0.278
		c0.014-0.019,0.141-0.194,0.31-0.187C21.16,14.97,21.085,15.415,20.975,15.533z"/>
	<path d="M38.296,38.156c0.13,0.063,1.026,0.228,1.026-0.264c0-0.494-0.32-0.462-0.489-0.487c-0.103-0.019-0.44,0.033-0.44,0.033
		C38.036,37.416,38.092,38.027,38.296,38.156z"/>
	<path d="M7.806,44.22h34.868V6.265H7.806V44.22z M8.885,7.341h32.669v35.802h-8.802c0.64-0.857,0.483-2.154,0.402-2.397
		c0.16-1.08,1.563-0.429,2.622-0.452l0.054,1.995h4.873V25.761c-0.424,0.372-3.613,3.185-3.904,3.81
		c-0.313,0.665-0.325,1.229-0.325,1.229s0.074,0.652,0.331,0.878c0.206,0.181,1.524,0.624,2.098,1.844
		c-0.059,0.213-0.063,0.45-0.061,0.668c-0.189-0.583-0.523-1.081-0.916-1.474c-0.316-0.314-0.777-0.576-1.056-0.661
		c-0.945-0.292-0.896-2.194-0.529-2.845c0.356-0.636,3.923-3.784,4.362-4.189v-2.049c-0.493,0.506-4.869,4.767-5.407,5.798
		c-0.595,0.911-0.342,2.362-0.342,2.717c0,0.357-0.734,1.417-1.282,0.029c-0.443-1.122-1.983-1.105-1.983-1.105
		c-2.622,0.259-2.337,2.722-2.36,4.246c-0.024,1.524-0.71,1.33-0.71,1.33h-8.634l0.054,0.745l8.677,0.225
		c1.821-0.03,1.533-2.752,1.456-3.401c-0.081-0.646,0.137-2.422,1.582-2.272c1.442,0.148,1.875,0.813,1.021,1.501
		c-1.88,1.526-0.963,3.642-0.702,4.151c-0.597,0.25-1.24,0.677-1.587,1.273c-0.001-0.001-0.002-0.002-0.002-0.002
		c-0.101-0.163-0.219-0.353-0.246-0.436c0,0-2.849,3.451-3.139,5.323c0,0,2.576-4.188,3.163-4.696
		c0.296,0.5,0.806,1.198,1.302,1.739c0.281,0.426,0.573,0.775,1.051,0.922c0,0,0.228,0.054,0.384-0.035
		c-0.168,0.463-0.455,1.767-0.593,2.118H17.739c-0.1-0.16-3.746-6.529-5.556-8.372l4.761,8.372H8.885V7.341z M40.16,33.056
		c-0.978,0.17-0.864,1.186-0.853,1.701c0.009,0.562-0.416,2.052-0.416,2.052h0.086c0.387-0.167,0.611-1.886,0.611-1.886
		c-0.053-0.972-0.132-1.538,0.601-1.785c-0.088,0.236-0.325,1.003,0.221,1.175c0,0,0.013,0.208,0.007,0.545
		c-0.059,0.759-0.148,1.618-0.281,2.241c-0.054,0.216-0.119,0.433-0.195,0.647c-0.391,0.836-0.818,1.857-1.83,2.133
		c-0.135,0.026-0.309,0.052-0.528,0.072c-0.487,0.009-0.854,0.026-1.195,0.031c-0.523-0.014-1.161-0.061-1.932-0.161
		c0,0-0.8-0.254-1.227,0.211l0-0.003c0,0-0.001,0.003-0.002,0.004c-0.072,0.079-0.135,0.176-0.18,0.301c0,0-0.108,0.171-0.283,0.238
		c-0.139,0.026-0.304-0.047-0.489-0.323c-0.433-0.641-1.14-1.389-1.541-1.794c0.371-0.391,1.048-1.024,1.717-1.348l1.551,0.278
		l2.902-0.048l0.569-0.188c0.302-0.025,0.56-0.051,0.708-0.043c0.384,0.023,1.474,0.032,1.437,0.884c0,0-0.025,0.568-1.414,0.436
		c-1.391-0.131-2.778-0.576-3.165,0.349c0,0,0.433-0.34,1.105-0.361c0.67-0.023,1.988,0.29,2.038,0.281
		c1.875,0.156,2.371-1.733-0.107-1.755l0.333-0.276c0.529-0.724,0.605-1.849,0.605-1.849c-0.101-0.983,0.192-1.863,0.882-1.862
		c0,0,0.093,0.026,0.199,0.081L40.16,33.056z"/>
	<path d="M27.864,17.661c0.937-0.132,0.14-0.943-0.125-1.078c0.611,0.936,0.107,0.628,0.107,0.628s-0.868-1.41-1.33-1.045
		c-0.355,0.282,0.01,0.587,0.01,0.587c-0.121-0.405,0.169-0.152,0.169-0.152l0.448,0.586c-0.483,0.332-0.204,0.673,0.256,0.302
		C27.4,17.489,27.743,17.666,27.864,17.661z"/>
</g>
</svg>
