<?xml version="1.0" encoding="utf-8"?>
<!-- Generator: Adobe Illustrator 24.2.1, SVG Export Plug-In . SVG Version: 6.00 Build 0)  -->
<svg version="1.1" id="Capa_1" xmlns="http://www.w3.org/2000/svg" xmlns:xlink="http://www.w3.org/1999/xlink" x="0px" y="0px"
	 viewBox="0 0 50.5 50.5" style="enable-background:new 0 0 50.5 50.5;" xml:space="preserve">
<g>
	<path d="M11.9,12H4.1c-0.2,0-0.4,0.2-0.4,0.4v5c0,0.2,0.2,0.4,0.4,0.4h7.7c0.2,0,0.4-0.2,0.4-0.4v-5C12.3,12.2,12.1,12,11.9,12z"/>
	<path d="M28.5,20.1h-9.8L29,32.3V20.6C29,20.3,28.8,20.1,28.5,20.1z"/>
	<path d="M11.9,20.1H4.1c-0.2,0-0.4,0.2-0.4,0.4v17.5c0,0.2,0.2,0.4,0.4,0.4h7.7c0.2,0,0.4-0.2,0.4-0.4V20.6
		C12.3,20.3,12.1,20.1,11.9,20.1z"/>
	<path d="M46.6,30.7c-0.4,0.4-0.9,0.7-1.3,1c-0.4,0.2-1.8,0.2-1.8,0.2h-8.1c0,0-0.4,0-0.6,0.1c-0.2,0.1-0.3,0.3-0.3,0.5v5.5
		c0,0.2,0.2,0.4,0.4,0.4h11.4c0.2,0,0.4-0.2,0.4-0.4v-7.5C46.7,30.6,46.6,30.7,46.6,30.7z"/>
	<path d="M17.6,38.1c0,0.2,0.2,0.4,0.4,0.4h10.3L17.6,25.6V38.1z"/>
	<path d="M35,28.8h4.8h1.3c0,0,1.7-0.2,2.3-1.6c0.7-1.4,0.2-2.4,0-2.7c-0.2-0.4-0.8-1.3-1.9-1.4c-1.1-0.1-7.1,0-7.1,0v5.2
		c0,0,0,0.2,0.1,0.3C34.8,28.9,35,28.8,35,28.8z"/>
</g>
</svg>
