<?xml version="1.0" encoding="utf-8"?>
<!-- Generator: Adobe Illustrator 24.2.1, SVG Export Plug-In . SVG Version: 6.00 Build 0)  -->
<svg version="1.1" id="Capa_1" xmlns="http://www.w3.org/2000/svg" xmlns:xlink="http://www.w3.org/1999/xlink" x="0px" y="0px"
	 viewBox="0 0 50.5 50.5" style="enable-background:new 0 0 50.5 50.5;" xml:space="preserve">
<g>
	<path d="M19.7,29.5c0-2.5-2-4.5-4.5-4.5s-4.5,2-4.5,4.5c0,2.5,2,4.5,4.5,4.5S19.7,32,19.7,29.5z"/>
	<path d="M14.8,20c0,1.7,1.4,3,3,3c1.7,0,3-1.4,3-3c0-1.7-1.4-3-3-3C16.1,17,14.8,18.3,14.8,20z"/>
	<path d="M21.2,25c0,2.1,1.7,3.7,3.7,3.7c2.1,0,3.7-1.7,3.7-3.7c0-2.1-1.7-3.7-3.7-3.7C22.9,21.2,21.2,22.9,21.2,25z"/>
	<path d="M28.7,31.8c0,1.9,1.5,3.4,3.4,3.4c1.9,0,3.4-1.5,3.4-3.4c0-1.9-1.5-3.4-3.4-3.4C30.2,28.4,28.7,29.9,28.7,31.8z"/>
	<path d="M23.5,29.7c-2,0-3.6,1.6-3.6,3.6c0,2,1.6,3.6,3.6,3.6c2,0,3.6-1.6,3.6-3.6C27.2,31.3,25.5,29.7,23.5,29.7z"/>
	<path d="M28.6,40.6c1.4,0,2.5-1.1,2.5-2.5c0-1.4-1.1-2.5-2.5-2.5c-1.4,0-2.5,1.1-2.5,2.5C26.1,39.5,27.2,40.6,28.6,40.6z"/>
	<path d="M34.8,36.4c-1.1,0-2,0.9-2,2c0,1.1,0.9,2,2,2c1.1,0,2-0.9,2-2C36.8,37.3,36,36.4,34.8,36.4z"/>
	<path d="M34.9,23.8c0-1-0.8-1.8-1.8-1.8c-1,0-1.8,0.8-1.8,1.8c0,1,0.8,1.8,1.8,1.8C34.1,25.5,34.9,24.7,34.9,23.8z"/>
	<path d="M28.8,20.7c5.4,0,9.7-4.2,10.1-9.5c-3.5-3.2-8.2-5.2-13.3-5.2c-2.1,0-4.2,0.3-6.1,1c-0.4,1.1-0.7,2.4-0.7,3.7
		C18.7,16.1,23.2,20.7,28.8,20.7z"/>
	<path d="M14.4,14.1c1.7,0,3.1-1.4,3.1-3.1c0-1.1-0.6-2.1-1.5-2.6c-1.7,0.9-3.3,2.1-4.6,3.5C11.8,13.2,13,14.1,14.4,14.1z"/>
	<path d="M13.1,20c0-2.5-1.4-4.7-3.5-5.8c-2.3,3.2-3.6,7.1-3.6,11.4c0,0.3,0,0.7,0,1c0.2,0,0.3,0,0.5,0C10.1,26.6,13.1,23.6,13.1,20
		z"/>
	<path d="M18,37.2c-2.3,0-4.3,1.2-5.5,3c3.2,2.8,7.3,4.6,11.9,4.9c0.1-0.4,0.1-0.9,0.1-1.4C24.6,40.1,21.7,37.2,18,37.2z"/>
	<path d="M6.4,29.8c0.8,3.3,2.3,6.3,4.6,8.8c0.4-0.8,0.6-1.7,0.6-2.6C11.5,32.9,9.3,30.4,6.4,29.8z"/>
	<path d="M44.1,19.4c-0.6-0.2-1.1-0.2-1.8-0.2c-3.6,0-6.5,2.9-6.5,6.5c0,3.6,2.9,6.5,6.5,6.5c0.6,0,1.1-0.1,1.6-0.2
		c0.7-2,1.1-4.2,1.1-6.5C45.1,23.4,44.7,21.3,44.1,19.4z"/>
	<path d="M30.9,41c-2.3,0-4.2,1.8-4.5,4c2.9-0.1,5.7-0.9,8.1-2.2C33.7,41.8,32.4,41,30.9,41z"/>
	<path d="M38,37.8c0,0.8,0.2,1.6,0.6,2.3c2.1-1.9,3.8-4.2,4.9-6.8c-0.3-0.1-0.6-0.1-0.8-0.1C40.1,33.2,38,35.2,38,37.8z"/>
	<path d="M42.1,17.8c0.5,0,0.9-0.1,1.2-0.4c-0.6-1.4-1.4-2.6-2.3-3.8c-0.7,0.4-1.2,1.1-1.2,1.9C39.9,16.8,40.9,17.8,42.1,17.8z"/>
</g>
</svg>
