<?xml version="1.0" encoding="utf-8"?>
<!-- Generator: Adobe Illustrator 24.2.1, SVG Export Plug-In . SVG Version: 6.00 Build 0)  -->
<svg version="1.1" id="Capa_1" xmlns="http://www.w3.org/2000/svg" xmlns:xlink="http://www.w3.org/1999/xlink" x="0px" y="0px"
	 viewBox="0 0 50.5 50.5" style="enable-background:new 0 0 50.5 50.5;" xml:space="preserve">
<g>
	<path d="M11.634,24.314h3.878c0.022,0.26,0.128,0.515,0.327,0.713c0.218,0.217,0.505,0.337,0.813,0.337
		c0.307,0,0.595-0.12,0.813-0.337c0.448-0.448,0.448-1.177,0-1.627c-0.217-0.217-0.506-0.336-0.813-0.336
		c-0.307,0-0.596,0.119-0.813,0.337c-0.118,0.118-0.203,0.256-0.259,0.403h-3.964c-0.153-0.967-0.99-1.709-2-1.709
		c-1.118,0-2.027,0.909-2.027,2.027c0,1.117,0.909,2.027,2.027,2.027C10.67,26.15,11.537,25.342,11.634,24.314z"/>
	<path d="M11.632,20.023c0.736,0,1.38-0.396,1.735-0.984l3.478,1.43c-0.079,0.368,0.023,0.768,0.309,1.054
		c0.218,0.218,0.507,0.337,0.813,0.337c0.308,0,0.596-0.119,0.813-0.336c0.217-0.218,0.337-0.507,0.337-0.813
		c0-0.308-0.12-0.597-0.337-0.813c-0.217-0.217-0.505-0.336-0.813-0.336c-0.307,0-0.596,0.119-0.813,0.337
		c-0.034,0.034-0.061,0.073-0.09,0.11l-3.49-1.434c0.055-0.184,0.086-0.378,0.086-0.58c0-1.117-0.91-2.026-2.028-2.026
		c-1.118,0-2.027,0.909-2.027,2.026C9.605,19.113,10.514,20.023,11.632,20.023z"/>
	<path d="M15.94,15.162c1.118,0,2.028-0.909,2.028-2.027c0-1.118-0.91-2.028-2.028-2.028c-1.117,0-2.027,0.91-2.027,2.028
		C13.913,14.253,14.823,15.162,15.94,15.162z"/>
	<path d="M21.948,12.434c1.119,0,2.027-0.908,2.028-2.027c0.388-0.029,0.779-0.049,1.174-0.049c4.993,0,9.429,2.369,12.251,6.045
		c-0.393,0.37-0.641,0.893-0.641,1.475c0,0.33,0.081,0.641,0.221,0.917l-2.853,1.841c-0.211-0.19-0.479-0.297-0.766-0.297
		c-0.307,0-0.595,0.119-0.812,0.336c-0.448,0.449-0.448,1.179-0.001,1.627c0.218,0.217,0.507,0.337,0.813,0.337
		c0.308,0,0.597-0.12,0.813-0.337c0.338-0.338,0.42-0.835,0.25-1.252l2.842-1.834c0.372,0.422,0.914,0.69,1.519,0.69
		c1.118,0,2.027-0.91,2.027-2.028c0-1.118-0.909-2.027-2.027-2.027c-0.354,0-0.687,0.092-0.977,0.252
		c-2.914-3.801-7.5-6.254-12.66-6.254c-0.418,0-0.831,0.018-1.241,0.05c-0.226-0.872-1.018-1.518-1.961-1.518
		c-1.117,0-2.026,0.909-2.026,2.026C19.922,11.525,20.831,12.434,21.948,12.434z"/>
	<path d="M40.843,21.977c-1.118,0-2.028,0.909-2.028,2.027c0,0.031,0.003,0.061,0.005,0.091l-3.438,0.496
		c-0.057-0.128-0.135-0.247-0.237-0.349c-0.217-0.218-0.506-0.337-0.814-0.337c-0.307,0-0.595,0.12-0.813,0.337
		c-0.217,0.217-0.337,0.505-0.337,0.813c0,0.307,0.12,0.595,0.337,0.812c0.218,0.218,0.507,0.337,0.813,0.337
		c0.308,0,0.597-0.119,0.814-0.337c0.208-0.208,0.324-0.483,0.333-0.777l3.426-0.494c0.254,0.83,1.027,1.435,1.939,1.435
		c1.118,0,2.028-0.91,2.028-2.028C42.87,22.886,41.96,21.977,40.843,21.977z"/>
	<path d="M40.171,28.539c-0.918,0-1.694,0.613-1.942,1.451l-3.327-1.202c0.002-0.029,0.008-0.057,0.008-0.086
		c0.001-0.307-0.119-0.596-0.336-0.813c-0.217-0.217-0.506-0.336-0.813-0.336c-0.307,0-0.596,0.119-0.814,0.337
		c-0.448,0.447-0.448,1.177,0,1.626c0.218,0.217,0.507,0.337,0.814,0.337c0.307,0,0.595-0.12,0.813-0.337
		c0.072-0.072,0.129-0.154,0.178-0.24l3.395,1.226c-0.001,0.022-0.003,0.043-0.003,0.064c0,1.118,0.909,2.027,2.027,2.027
		c1.118,0,2.028-0.909,2.028-2.027S41.289,28.539,40.171,28.539z"/>
	<path d="M36.929,34.192c-1.118,0-2.027,0.909-2.027,2.027c0,1.118,0.909,2.028,2.027,2.028c1.118,0,2.028-0.91,2.028-2.028
		C38.957,35.101,38.047,34.192,36.929,34.192z"/>
	<path d="M31.672,38.025c-1.118,0-2.028,0.909-2.028,2.027c0,0.171,0.024,0.337,0.064,0.496c-1.44,0.445-2.971,0.685-4.558,0.685
		c-6.144,0-11.45-3.59-13.935-8.787c0.653-0.337,1.101-1.017,1.101-1.801c0-0.12-0.012-0.237-0.032-0.351l3.658-1.734
		c0.036,0.051,0.075,0.101,0.12,0.146c0.217,0.217,0.505,0.337,0.813,0.337c0.307,0,0.596-0.12,0.812-0.337
		c0.218-0.217,0.337-0.506,0.337-0.813c0-0.307-0.119-0.597-0.337-0.813c-0.217-0.217-0.505-0.336-0.812-0.336
		c-0.308,0-0.597,0.12-0.813,0.336c-0.217,0.217-0.337,0.507-0.337,0.813c0,0.068,0.008,0.134,0.019,0.199l-3.612,1.713
		c-0.32-0.699-1.025-1.186-1.844-1.186c-1.117,0-2.027,0.909-2.027,2.027s0.91,2.027,2.027,2.027c0.155,0,0.305-0.019,0.45-0.052
		c2.558,5.391,8.049,9.12,14.412,9.121c1.651,0,3.243-0.255,4.741-0.722c0.344,0.631,1.014,1.06,1.782,1.06
		c1.118,0,2.028-0.91,2.028-2.028C33.7,38.934,32.79,38.025,31.672,38.025z"/>
	<path d="M20.595,32.693c-0.217,0.218-0.336,0.507-0.336,0.813c0,0.307,0.119,0.597,0.337,0.814
		c0.217,0.217,0.506,0.337,0.814,0.337c0.307,0,0.595-0.12,0.812-0.337c0.449-0.448,0.449-1.179,0-1.627
		c-0.217-0.217-0.505-0.337-0.812-0.337C21.102,32.356,20.813,32.476,20.595,32.693z"/>
	<path d="M17.709,30.345c-0.217,0.218-0.336,0.507-0.336,0.814c0,0.308,0.119,0.596,0.336,0.813
		c0.218,0.217,0.507,0.337,0.813,0.337c0.308,0,0.597-0.12,0.814-0.337c0.448-0.448,0.448-1.178,0-1.627
		c-0.218-0.217-0.506-0.336-0.814-0.336C18.216,30.01,17.927,30.129,17.709,30.345z"/>
	<path d="M26.906,16.14c-0.448,0.448-0.448,1.178,0,1.626c0.217,0.217,0.507,0.337,0.813,0.337c0.308,0,0.595-0.12,0.813-0.337
		c0.217-0.217,0.336-0.506,0.336-0.813c0-0.307-0.119-0.596-0.337-0.812c-0.217-0.218-0.506-0.337-0.812-0.337
		C27.411,15.803,27.123,15.922,26.906,16.14z"/>
	<path d="M30.188,17.774c-0.217,0.217-0.337,0.505-0.337,0.812c0,0.307,0.12,0.597,0.337,0.814c0.217,0.217,0.506,0.337,0.813,0.337
		c0.307,0,0.596-0.12,0.813-0.337c0.448-0.449,0.448-1.179,0-1.627c-0.218-0.217-0.507-0.337-0.813-0.337
		C30.693,17.436,30.405,17.556,30.188,17.774z"/>
</g>
</svg>
