<?xml version="1.0" encoding="utf-8"?>
<!-- Generator: Adobe Illustrator 24.2.1, SVG Export Plug-In . SVG Version: 6.00 Build 0)  -->
<svg version="1.1" id="Capa_1" xmlns="http://www.w3.org/2000/svg" xmlns:xlink="http://www.w3.org/1999/xlink" x="0px" y="0px"
	 viewBox="0 0 50.5 50.5" style="enable-background:new 0 0 50.5 50.5;" xml:space="preserve">
<g>
	<path d="M10.9,23.579h3.739v2.37H10.9v0.648c0,0.086-0.026,0.167-0.074,0.236c-0.06,0.165-0.215,0.28-0.396,0.28
		c-0.271,0-0.492,0.274-0.492,0.612c0,0.144-0.072,0.272-0.183,0.349l-0.496,4.323H15.5v-9.42h-4.6V23.579z M14.638,31.165h-3.847
		v-2.328h3.847V31.165z"/>
	<path d="M22.02,17.877v1.228h1.43v-1.228c0-0.679-0.32-1.231-0.714-1.231C22.355,16.646,22.02,17.221,22.02,17.877z"/>
	<polygon points="17.352,19.677 12.167,19.677 10.518,22.126 14.948,22.126 	"/>
	<path d="M21.284,22.978h-4.932v9.374h5.078l0.574-9.246H21.16L21.284,22.978z M21.007,31.165H17.17v-2.328h3.836V31.165z
		 M21.007,25.949H17.17v-2.37h3.836V25.949z"/>
	<polygon points="18.545,19.677 16.142,22.126 22.106,22.126 24.468,19.677 	"/>
	<polygon points="25.206,19.737 22.508,22.533 27.806,22.533 27.909,22.533 27.786,22.405 27.786,22.405 	"/>
	<path d="M26.968,17.877v1.228h1.422v-1.228c0-0.679-0.318-1.231-0.708-1.231C27.289,16.646,26.968,17.198,26.968,17.877z"/>
	<path d="M25.231,16.6c-0.378,0-0.697,0.563-0.697,1.23v1.275h0.061h1.324V17.83C25.919,17.106,25.557,16.6,25.231,16.6z"/>
	<polygon points="39.808,22.126 38.163,19.677 33.064,19.677 35.468,22.126 	"/>
	<path d="M25.231,28.999c-0.914,0-1.657,0.761-1.657,1.696v1.738l0.408,0.244h2.488l0.412-0.244v-1.738
		C26.882,29.76,26.141,28.999,25.231,28.999z"/>
	<path d="M21.448,17.877c0-1.011,0.566-1.804,1.288-1.804c0.616,0,1.119,0.579,1.252,1.378c0.116-0.834,0.612-1.423,1.243-1.423
		c0.59,0,1.072,0.551,1.217,1.319c0.154-0.754,0.633-1.274,1.234-1.274c0.73,0,1.281,0.775,1.281,1.804v0.949h2.071l-5.827-5.934
		l-5.825,5.934h2.066V17.877z"/>
	<path d="M40.561,27.725c0-0.338-0.26-0.612-0.579-0.612c-0.188,0-0.346-0.121-0.401-0.294c-0.041-0.067-0.064-0.144-0.064-0.223
		v-0.648h-3.781v-2.37h3.781v-0.601h-4.598v9.42h6.318l-0.532-4.358C40.615,27.963,40.561,27.85,40.561,27.725z M39.579,31.207
		h-3.844v-2.369h3.844V31.207z"/>
	<polygon points="25.945,19.677 28.312,22.126 34.274,22.126 31.87,19.677 	"/>
	<path d="M25.23,5.835c-10.694,0-19.395,8.701-19.395,19.395s8.701,19.395,19.395,19.395c10.694,0,19.395-8.701,19.395-19.395
		S35.924,5.835,25.23,5.835z M41.659,33.249h-32.9c-0.235,0-0.426-0.191-0.426-0.426c0-0.062,0.014-0.122,0.04-0.177l0.001-0.003
		l0.589-5.128c0.016-0.141,0.103-0.26,0.222-0.325c0.151-0.417,0.472-0.735,0.864-0.862v-3.35h-0.33
		c-0.158,0-0.302-0.087-0.377-0.226c-0.074-0.138-0.065-0.306,0.023-0.438l2.222-3.299c0.077-0.117,0.209-0.188,0.353-0.188h6.247
		l6.715-6.84c0.077-0.079,0.188-0.126,0.303-0.126c0,0,0,0,0.001,0c0.115,0,0.226,0.046,0.305,0.127l6.716,6.839h6.163
		c0.143,0,0.275,0.071,0.354,0.19l2.216,3.298c0.088,0.131,0.096,0.299,0.023,0.438c-0.074,0.139-0.218,0.226-0.376,0.226h-0.239
		v3.344c0.438,0.126,0.795,0.461,0.953,0.901c0.096,0.065,0.162,0.168,0.177,0.287l0.627,5.135c0.01,0.082-0.006,0.164-0.044,0.236
		C42.052,33.089,41.873,33.249,41.659,33.249z"/>
	<path d="M29.26,23.106h-0.845l0.569,9.246h5.083v-9.374h-4.931L29.26,23.106z M29.366,23.579h3.883v2.37h-3.883V23.579z
		 M29.366,28.838h3.883v2.328h-3.883V28.838z"/>
	<path d="M22.856,23.106l-0.574,9.246h0.718v-1.657c0-1.251,1-2.268,2.23-2.268c1.226,0,2.223,1.018,2.223,2.268v1.657h0.676
		l-0.569-9.246H22.856z M27.131,25.949h-3.844v-2.37h3.844V25.949z"/>
</g>
</svg>
