<?xml version="1.0" encoding="utf-8"?>
<!-- Generator: Adobe Illustrator 24.2.1, SVG Export Plug-In . SVG Version: 6.00 Build 0)  -->
<svg version="1.1" id="Capa_1" xmlns="http://www.w3.org/2000/svg" xmlns:xlink="http://www.w3.org/1999/xlink" x="0px" y="0px"
	 viewBox="0 0 50.5 50.5" style="enable-background:new 0 0 50.5 50.5;" xml:space="preserve">
<style type="text/css">
	.st0{fill-rule:evenodd;clip-rule:evenodd;}
</style>
<g>
	<path class="st0" d="M8.731,44.509c0,0.681,0.384,1.44,0.768,1.746c0.662,0.526,0.983,0.445,1.831,0.683
		c0.694,0.194,3.91,0.086,4.943,0.086c1.676,0,3.353,0,5.029,0c1.03,0,1.385,0.075,2.044,0.471c0.4,0.24,1.096,0.813,1.109,1.385
		h0.039V29.542H8.731V44.509z M13.221,41.037c0-0.431,0.782-1.521,0.999-1.874c0.253-0.413,0.801-1.498,1.376-1.498h0.179
		c0.228,0,0.357,0.142,0.518,0.179l0.838-1.346l-0.019-0.011c-0.181-0.191-0.399-0.296-0.399-0.699v-0.14
		c0-0.285,0.574-1.718,0.699-2.014c0.228-0.537,0.434-1.558,1.157-1.558h0.2c0.096,0,0.28,0.06,0.339,0.1l-0.201,0.618
		c-0.106-0.008-0.144-0.059-0.257-0.059c-0.306,0-0.606,1.076-0.716,1.36c-0.06,0.155-0.562,1.449-0.562,1.494v0.16
		c0,0.094,0.05,0.152,0.14,0.16c0.022-0.095,0.231-0.419,0.339-0.419h0.08c0.147,0,0.34,0.144,0.34,0.279v0.059
		c0,0.2-0.186,0.287-0.2,0.46c0.044,0.023,0.096,0.06,0.159,0.06h0.06c0.158,0,0.996-0.988,1.162-1.153
		c0.196-0.193,0.362-0.403,0.559-0.598c0.165-0.164,0.454-0.382,0.454-0.685c0-0.091-0.118-0.177-0.16-0.24l-0.015-0.014
		l0.457-0.481l0.018,0.016c0.151,0.102,0.379,0.435,0.379,0.699v0.199c0,0.376-1.045,1.324-1.289,1.626
		c-0.291,0.36-1.059,1.289-1.625,1.289h-0.08c-0.195,0-0.364-0.151-0.479-0.16l-0.821,1.356c0.132,0.179,0.462,0.314,0.462,0.719
		v0.1c0,0.413-0.772,1.524-0.978,1.876c-0.23,0.389-0.819,1.516-1.337,1.516h-0.159l-0.22-0.023
		c-0.107,0.459-0.178,0.911-0.276,1.384c-0.058,0.278-0.167,1.214-0.443,1.214h-0.119c-0.173,0-0.3-0.134-0.3-0.319
		c0-0.192,0.214-1.052,0.271-1.306c0.051-0.232,0.248-1.147,0.248-1.308c-0.242-0.162-0.778-0.467-0.778-0.839V41.037z"/>
	<path class="st0" d="M39.867,17.136v-2.714h-1.716v-2.095H25.559v16.245h15.785V17.136H39.867z M36.135,17.975
		c0,0.324-0.829,1.569-1.017,1.856c-0.284,0.431-0.768,1.477-1.397,1.477h-0.14c-0.162,0-0.405-0.169-0.519-0.2l-0.847,1.372
		c0.215,0.06,0.428,0.391,0.428,0.663v0.12c0,0.294-0.553,1.748-0.679,2.016c-0.212,0.452-0.473,1.596-1.078,1.596h-0.379
		c-0.061,0-0.193-0.064-0.259-0.08l0.201-0.618c0.11,0.002,0.109,0.039,0.217,0.039h0.04c0.313,0,0.62-1.098,0.738-1.377
		c0.051-0.12,0.559-1.522,0.559-1.537v-0.1c0-0.055-0.082-0.135-0.119-0.16c-0.103,0.069-0.226,0.42-0.36,0.42h-0.119
		c-0.146,0-0.32-0.149-0.32-0.3v-0.02c0-0.221,0.196-0.302,0.2-0.479c-0.071-0.016-0.093-0.04-0.179-0.04h-0.02
		c-0.187,0-1.037,0.963-1.177,1.137c-0.225,0.28-1.018,0.909-1.018,1.297c0,0.104,0.139,0.179,0.179,0.239l-0.452,0.465
		c-0.117-0.021-0.406-0.462-0.406-0.625v-0.18c0-0.469,0.985-1.407,1.283-1.71c0.387-0.394,0.973-1.303,1.67-1.303h0.041
		c0.2,0,0.328,0.156,0.479,0.16l0.823-1.354c-0.245-0.163-0.443-0.356-0.443-0.762V19.93c0-0.46,0.75-1.538,0.978-1.896
		c0.261-0.409,0.779-1.496,1.356-1.496h0.2c0.069,0,0.03,0.04,0.1,0.04h0.061c0-0.338,0.188-1.053,0.261-1.395
		c0.057-0.272,0.156-1.199,0.437-1.199h0.161c0.156,0,0.259,0.145,0.259,0.3c0,0.185-0.208,1.083-0.264,1.313
		c-0.078,0.328-0.227,0.96-0.256,1.301c0.269,0.179,0.779,0.473,0.779,0.898V17.975z"/>
	<path class="st0" d="M39.329,34.052l0.09-0.11l-1.166-0.552c0.078-0.116,0.677-0.75,0.677-0.814v-0.02
		c0-0.341-0.317-0.053,0.03-0.488c0.118-0.147,0.232-0.281,0.354-0.425c0.242-0.285,0.482-0.575,0.713-0.863
		c0.327-0.409,0.476-0.442-0.083-0.855c-0.259-0.19-0.746-0.362-1.193-0.362h-0.061c-0.036,0-1.506,1.786-1.596,1.956
		c-0.452,0-0.427,0.116-0.645,0.392c-0.153,0.192-0.3,0.377-0.457,0.562c-0.313,0.37-0.616,0.753-0.921,1.135
		c-0.305,0.383-0.628,0.746-0.919,1.137c-0.283,0.377-0.655,0.744-0.91,1.125l0.317,0.262l-0.376,0.436l0.117,0.221l-0.562,0.713
		l0.079,0.073l-0.498,0.585l0.091,0.079l-0.399,0.473l0.02,0.004l0.691,0.393l0.41-0.478l0.132,0.036
		c0.083-0.125,0.191-0.234,0.289-0.353c0.132-0.161,0.129-0.249,0.389-0.249c0.01-0.037,0.452-0.615,0.506-0.672
		c0.147-0.152,0.136,0.114,0.377-0.22c0.048-0.066,0.208-0.292,0.254-0.325l0.255,0.111l0.94-1.111l0.013-0.018l1.159,0.595
		c0.08-0.29,0.785,0.068,0.95,0.139c0.202,0.087,0.753,0.348,0.753,0.584v0.339c0,1.176-0.52,2.184-1.093,2.799
		c-0.63,0.676-1.419,1.153-2.719,1.153h-0.019c-0.372,0-0.867-0.014-1.018-0.24l0.211-0.32l-0.031-0.019
		c-0.29-0.195-5.295-2.514-5.408-2.514h-0.039c-0.119,0-0.575,0.569-0.599,0.658l5.541,2.588l0.118-0.16l0.564,0.312l0.024,0.008
		l-0.689,0.955l-0.248-0.095l0.066-0.113l-0.023,0.016l-0.199-0.155l0.034-0.042l-0.235-0.091l-0.068,0.146l-0.433-0.142l0.086-0.17
		c-0.415-0.277-0.834-0.456-1.285-0.683c-0.215-0.108-1.193-0.457-1.457-0.479l-0.792,0.987c0.314,0.46,2.003,1.229,2.788,1.229
		l0.124-0.178l0.415,0.179l-0.024,0.117l0.005,0.033l0.32-0.007l-0.005-0.026l0.419,0.083l-0.222,0.231l-0.014,0.026l0.976,0.117
		l0.301-0.017l0.699-0.058v1.475h-9.36c-0.393,0-0.359,0.291-0.359,0.679c0,0.346,0,0.692,0,1.037c0,0.692,0,1.384,0,2.076
		c0.008-0.006,0.398-0.707,0.486-0.812c0.188-0.225,0.426-0.461,0.677-0.619c0.708-0.443,1.022-0.445,2.129-0.445
		c1.716,0,3.432,0,5.149,0c1.548,0,3.695,0.105,5.038-0.111c1.614-0.261,2.286-1.006,2.286-2.862v-6.206
		C41.264,36.208,40.361,34.6,39.329,34.052z"/>
	<path class="st0" d="M15.763,25.17c0.098,0.136,0.905,1.211,0.909,1.225h0.1c0.019-0.07,1.64-2.254,1.791-2.4
		c0.362-0.351,0.732-0.649,1.21-0.886c0.267-0.132,0.402-0.225,0.713-0.324c0.257-0.083,0.615-0.115,0.831-0.222l0.026-10.317h-0.26
		c-1.285,0-2.102,0.701-2.788,1.322c-0.364,0.329-0.677,0.684-0.956,1.101c-0.156,0.235-0.244,0.382-0.368,0.649
		c-0.057,0.121-0.251,0.768-0.258,0.779c0-0.83-1.154-2.167-1.656-2.574c-0.85-0.692-1.428-1.277-2.974-1.277h-0.08v10.337
		c1.086,0.091,2.22,0.812,2.819,1.412C15.212,24.387,15.439,24.717,15.763,25.17z"/>
	<path class="st0" d="M33.282,11.2c0-0.113-0.998-1.191-0.998-2.195c0-0.862,0.12-1.251-0.384-1.711
		c-0.394-0.36-0.988-0.388-1.465-0.671c-0.487-0.288-0.823-0.544-1.144-0.99c-0.3-0.415-0.631-0.818-1.337-0.818l-0.198,0.008
		l-1.318,0.151h-0.359c-0.997,0-1.354-0.419-2.176-0.419h-0.119c-1.091,0-1.28,0.783-1.909,1.104
		c-0.377,0.193-0.594,0.313-1.093,0.424c-0.474,0.105-0.825,0.09-1.183,0.333c-0.958,0.651-0.479,1.133-0.914,2.099
		c-0.139,0.308-0.432,0.652-0.69,0.828c-0.246,0.167-0.617,0.498-0.617,0.9v0.06c0,0.273,0.356,0.958,0.479,0.958h15.425V11.2z
		 M22.546,10.781h-0.539V7.887c0-0.046,0.014-0.06,0.06-0.06h0.479V10.781z M22.566,7.308l-0.578-0.006l-0.002-0.613h0.58V7.308z
		 M25.918,10.801h-0.559V8.785c0-0.317-0.235-0.579-0.518-0.579h-0.26c-0.406,0-0.679,0.405-0.679,0.818v1.776h-0.559V7.867
		c0-0.047,0.014-0.06,0.06-0.06h0.459v0.339c0.212-0.05,0.318-0.399,0.958-0.399c0.641,0,1.098,0.339,1.098,0.978V10.801z
		 M29.45,9.384c0,0.046-0.014,0.06-0.059,0.06h-2.275c0,0.58,0.376,0.977,0.958,0.977c0.351,0,0.772-0.299,0.778-0.598l0.56,0.05
		c-0.001,0.46-0.654,0.967-1.119,0.967h-0.46c-0.684,0-1.296-0.66-1.296-1.357v-0.2c0-0.883,0.578-1.537,1.457-1.537h0.059
		c0.84,0,1.396,0.643,1.396,1.497V9.384z"/>
	<path class="st0" d="M14.484,11.26h2.335c0.019-0.082,0.059-0.252,0.059-0.339v-0.339c0-0.661-0.459-1.1-0.459-1.597v-0.14
		c0-1.038,1.231-1.339,1.758-1.835c0.334-0.314,0.629-0.508,0.794-1.002c0.16-0.477,0.279-0.87,0.656-1.141
		C20.66,4.124,21.359,4.566,22.65,4.3c0.923-0.19,1.623-1.022,2.57-1.022h0.399c0.478,0,0.915,0.378,1.23,0.547
		c0.531,0.285,0.663,0.306,1.305,0.471c1.103,0.285,2.187-0.178,2.969,0.603c0.398,0.397,0.352,0.703,0.599,1.177
		c0.206,0.395,0.465,0.71,0.787,0.989c0.628,0.544,1.752,0.64,1.752,1.82v0.1c0,0.752-0.479,1.142-0.479,1.836v0.159
		c0,0.198,0.015,0.287,0.237,0.282c0.181-0.004,0.36-0.002,0.542-0.002c0.359,0,0.718,0,1.077,0
		c0.068-0.256,0.639-0.715,0.639-1.337v-0.3c0-0.604-0.45-1.023-0.791-1.305c-0.443-0.365-0.742-0.545-1.061-1.054
		c-0.688-1.097-0.15-2.104-1.385-2.846c-0.352-0.211-1.087-0.458-1.613-0.482c-0.65-0.029-1.214-0.225-1.659-0.456
		C28.929,3.047,28.289,2,27.016,2h-0.041c-1.31,0-2.134,0.759-3.312,0.759h-0.339l-0.003,0.023l-1.793-0.183
		c-0.796-0.087-1.587,0.413-1.922,0.812c-0.222,0.263-0.325,0.561-0.545,0.832c-0.199,0.245-0.432,0.506-0.696,0.683
		c-0.308,0.206-0.496,0.337-0.855,0.501c-0.327,0.15-0.685,0.234-0.993,0.384c-0.577,0.283-1.197,0.708-1.197,1.558
		c0,0.597,0.219,0.916,0.219,1.556v0.26C15.541,9.867,14.495,10.765,14.484,11.26z"/>
	<path class="st0" d="M11.205,25.717c0.885,0,2.359,0.583,3.053,0.838c0.377,0.139,0.956,0.462,1.222,0.714
		c0.186,0.178,0.318,0.289,0.489,0.489c0.079,0.093,0.132,0.183,0.203,0.275c0.028,0.036,0.261,0.281,0.261,0.079v-0.379
		c0-0.948-1.296-2.482-1.831-2.998c-0.536-0.518-2.151-1.731-3.285-1.731v-8.601h-1.11v8.821l0.02,2.494H11.205z"/>
	<path class="st0" d="M18.703,24.774c-0.609,0.561-1.731,2.032-1.731,3.158v0.06c0,0.078,0.015,0.148,0.041,0.2
		c0.156-0.014,0.344-0.358,0.452-0.487c0.146-0.176,0.296-0.321,0.47-0.468c0.344-0.29,0.754-0.514,1.194-0.702
		c0.582-0.248,2.189-0.819,2.953-0.819h0.954l0.025-1.736v-9.58h-1.126v8.601C20.817,23.003,19.268,24.253,18.703,24.774z"/>
	<path class="st0" d="M15.994,28.491c0-0.48-2.188-1.267-2.696-1.474c-0.813-0.332-2.338-0.701-3.47-0.701h-0.2v-9.18H8.75v11.435
		h7.244V28.491z"/>
	<path class="st0" d="M23.637,26.256c0,0.08-0.828,0.096-0.948,0.109c-0.334,0.037-0.635,0.08-0.929,0.148
		c-0.591,0.138-1.148,0.282-1.676,0.481c-0.556,0.211-2.713,1.021-2.713,1.577h7.124V17.116h-0.858V26.256z"/>
	<path class="st0" d="M35.198,17.615c-0.02,0.247-0.07,0.519-0.339,0.519c-0.163,0-0.36-0.108-0.36-0.259
		c0-0.168,0.154-0.659,0.041-0.659h-0.12c-0.166,0-0.772,1.077-0.883,1.271c-0.095,0.162-0.812,1.279-0.812,1.344v0.179
		c0,0.06,0.079,0.153,0.159,0.16c0.031-0.112,0.229-0.42,0.379-0.42h0.061c0.127,0,0.318,0.15,0.318,0.28v0.059
		c0,0.201-0.186,0.3-0.199,0.46c0.067,0.035,0.14,0.08,0.24,0.08h0.02c0.239,0,0.77-1.026,0.927-1.248
		c0.098-0.14,0.828-1.291,0.828-1.366v-0.14C35.457,17.752,35.302,17.639,35.198,17.615z"/>
	<path class="st0" d="M14.159,41.356c0.003-0.188,0.104-0.538,0.279-0.538h0.119c0.128,0,0.3,0.144,0.3,0.279
		c0,0.239-0.096,0.452-0.1,0.639c0.045,0.01,0.046,0.019,0.1,0.019h0.04c0.23,0,0.797-1.063,0.926-1.29
		c0.113-0.2,0.811-1.245,0.811-1.385v-0.1c0-0.107-0.068-0.178-0.16-0.2c-0.145,0.54-0.758,0.493-0.758,0.16v-0.04
		c0-0.271,0.185-0.322,0.199-0.499c-0.178-0.041-0.278-0.192-0.472,0.046c-0.083,0.101-0.195,0.306-0.262,0.417
		c-0.173,0.284-0.349,0.551-0.526,0.831c-0.177,0.281-0.348,0.55-0.522,0.835C13.889,40.93,13.687,41.041,14.159,41.356z"/>
	<path class="st0" d="M27.994,8.186h-0.1c-0.384,0-0.739,0.397-0.739,0.818h1.696C28.852,8.485,28.516,8.186,27.994,8.186z"/>
</g>
</svg>
