<?xml version="1.0" encoding="utf-8"?>
<!-- Generator: Adobe Illustrator 24.2.1, SVG Export Plug-In . SVG Version: 6.00 Build 0)  -->
<svg version="1.1" id="Capa_1" xmlns="http://www.w3.org/2000/svg" xmlns:xlink="http://www.w3.org/1999/xlink" x="0px" y="0px"
	 viewBox="0 0 50.5 50.5" style="enable-background:new 0 0 50.5 50.5;" xml:space="preserve">
<g>
	<path d="M1.68,22.842c-0.26-0.046-0.267-0.207-0.263-0.453v-1.948c-0.002-0.245,0.005-0.409,0.263-0.453v-0.11H0.73v0.11
		c0.26,0.05,0.266,0.204,0.263,0.453c0,0,0,1.948,0,1.948c-0.003,0.252,0.008,0.398-0.263,0.453v0.11h0.95V22.842z"/>
	<path d="M2.802,22.39v-0.84c-0.004-0.343,0.467-0.664,0.758-0.445c0.278,0.291,0.123,0.915,0.163,1.294
		c0,0.234-0.004,0.394-0.245,0.444v0.11h0.887v-0.11c-0.262-0.05-0.256-0.205-0.254-0.453v-0.849c0.075-0.889-0.805-1.003-1.3-0.385
		l-0.032-0.009l0.025-0.367H2.667L2.14,20.8v0.119c0.294,0.019,0.279,0.248,0.275,0.495v0.982c-0.001,0.236-0.001,0.395-0.243,0.446
		v0.11h0.883v-0.11C2.796,22.787,2.804,22.652,2.802,22.39z"/>
	<path d="M6.209,22.084C6.06,21.824,5.573,21.7,5.34,21.552c-0.629-0.524,0.538-0.937,0.698-0.259h0.216v-0.459
		c-0.593-0.19-1.767-0.055-1.398,0.79c0.147,0.258,0.638,0.378,0.857,0.519c0.68,0.581-0.603,1.025-0.754,0.274H4.739v0.471
		C5.348,23.12,6.605,23.005,6.209,22.084z"/>
	<path d="M7.998,22.572c-0.926,0.653-0.643-0.947-0.685-1.545h0.728V20.8H7.313v-0.557h-0.32c-0.043,0.318-0.048,0.621-0.401,0.669
		v0.115h0.333c0.037,0.353-0.109,1.528,0.142,1.789c0.264,0.301,0.77,0.176,1.031-0.123L7.998,22.572z"/>
	<rect x="8.518" y="19.917" width="0.415" height="0.437"/>
	<path d="M8.532,21.414l0,0.982c-0.001,0.236-0.001,0.395-0.243,0.446v0.11h0.883v-0.11c-0.258-0.056-0.25-0.191-0.252-0.453v-1.611
		H8.782L8.257,20.8v0.119C8.551,20.938,8.537,21.167,8.532,21.414z"/>
	<path d="M10.942,22.694l-0.102-0.122c-0.925,0.652-0.643-0.941-0.685-1.545h0.727V20.8h-0.727v-0.557h-0.32
		c-0.043,0.318-0.048,0.621-0.401,0.669v0.115h0.333c0.037,0.353-0.109,1.528,0.142,1.789C10.174,23.118,10.68,22.992,10.942,22.694
		z"/>
	<path d="M12.787,22.975l0.516-0.022v-0.117c-0.302-0.037-0.273-0.229-0.275-0.498V20.8h-0.642v0.11
		c0.253,0.04,0.258,0.222,0.255,0.451v0.845c0.018,0.391-0.611,0.725-0.84,0.349c-0.155-0.341-0.052-1.359-0.081-1.755h-0.642v0.11
		c0.274,0.061,0.245,0.185,0.252,0.451c0,0,0,0.851,0,0.851c-0.084,0.885,0.827,1,1.3,0.385l0.034,0.009l-0.014,0.369H12.787z"/>
	<path d="M14.949,22.572c-0.925,0.652-0.643-0.941-0.685-1.545h0.727V20.8h-0.727v-0.557h-0.32
		c-0.043,0.318-0.048,0.621-0.401,0.669v0.115h0.333c0.037,0.353-0.109,1.528,0.142,1.789c0.264,0.301,0.77,0.175,1.032-0.123
		L14.949,22.572z"/>
	<path d="M16.179,22.989c1.317,0.101,1.395-2.324,0.036-2.228C14.923,20.678,14.839,23.082,16.179,22.989z M16.767,21.912
		c0.056,1.218-1.198,1.194-1.124-0.063C15.602,20.562,16.855,20.699,16.767,21.912z"/>
	<path d="M19.53,22.842c-0.261-0.046-0.267-0.207-0.263-0.453c-0.002-0.583,0.007-1.463-0.029-1.991h0.038
		c0.147,0.31,1.317,2.224,1.514,2.568h0.282v-2.525c-0.001-0.251,0.003-0.406,0.263-0.453v-0.11h-0.811v0.11
		c0.262,0.049,0.253,0.207,0.252,0.453c-0.001,0.49-0.001,1.296,0.029,1.757h-0.029c-0.085-0.181-0.144-0.287-0.25-0.464
		l-1.112-1.856h-0.705v0.11c0.26,0.049,0.267,0.204,0.263,0.453c0,0,0,1.948,0,1.948c-0.003,0.253,0.008,0.399-0.263,0.453v0.11
		h0.822V22.842z"/>
	<path d="M23.452,22.275c-0.014-0.264,0.045-1.014-0.067-1.225c-0.308-0.526-1.051-0.24-1.502-0.009v0.293h0.295
		c0.064-0.423,0.712-0.522,0.845-0.108c0.043,0.111,0.048,0.354,0.045,0.516c-0.637,0.055-1.244,0.102-1.302,0.716
		c0.023,0.715,0.954,0.634,1.306,0.164l0.034,0.009l-0.011,0.322h0.617v-0.11C23.399,22.787,23.46,22.546,23.452,22.275z
		 M22.337,22.706c-0.492-0.348,0.008-0.836,0.73-0.781C23.139,22.408,22.876,22.853,22.337,22.706z"/>
	<path d="M25.751,22.59l-0.128-0.149c-1.029,0.981-1.477-0.766-0.865-1.401c0.269-0.221,0.642-0.073,0.689,0.281h0.286v-0.471
		C23.266,20.009,23.774,24.313,25.751,22.59z"/>
	<rect x="26.319" y="19.917" width="0.414" height="0.437"/>
	<path d="M26.332,21.414v0.982c-0.001,0.236-0.001,0.395-0.243,0.446v0.11h0.883v-0.11c-0.259-0.056-0.25-0.191-0.252-0.453v-1.611
		h-0.137l-0.525,0.02v0.119C26.352,20.938,26.337,21.167,26.332,21.414z"/>
	<path d="M28.387,20.761c-1.292-0.083-1.376,2.321-0.036,2.228C29.668,23.09,29.745,20.664,28.387,20.761z M27.815,21.849
		c-0.041-1.288,1.212-1.151,1.124,0.063C28.994,23.13,27.74,23.106,27.815,21.849z"/>
	<path d="M30.062,22.397c-0.001,0.236-0.001,0.395-0.243,0.446v0.11h0.883v-0.11c-0.258-0.056-0.25-0.19-0.252-0.453v-0.84
		c-0.004-0.343,0.467-0.664,0.758-0.445c0.278,0.291,0.123,0.916,0.163,1.294c0,0.234-0.004,0.394-0.246,0.444v0.11h0.887v-0.11
		c-0.262-0.05-0.256-0.205-0.255-0.453v-0.849c0.075-0.889-0.805-1.003-1.3-0.385l-0.031-0.009l0.025-0.367h-0.137l-0.527,0.02
		v0.119c0.294,0.019,0.279,0.248,0.275,0.495V22.397z"/>
	<path d="M34.301,22.953v-0.11c-0.312-0.056-0.251-0.296-0.259-0.567c-0.014-0.264,0.045-1.014-0.068-1.225
		c-0.307-0.526-1.051-0.24-1.502-0.009v0.293h0.295c0.064-0.423,0.712-0.522,0.845-0.108c0.044,0.111,0.048,0.354,0.045,0.516
		c-0.637,0.055-1.243,0.102-1.302,0.716c0.023,0.715,0.954,0.634,1.306,0.164l0.034,0.009l-0.011,0.322H34.301z M32.927,22.706
		c-0.492-0.348,0.008-0.836,0.73-0.781C33.729,22.408,33.467,22.852,32.927,22.706z"/>
	<path d="M34.86,20.504c0,0,0,1.885,0,1.885c0,0.226,0.006,0.41-0.255,0.453v0.11h0.894v-0.11c-0.259-0.055-0.25-0.191-0.252-0.453
		v-2.66h-0.135l-0.543,0.022v0.117C34.936,19.904,34.844,20.191,34.86,20.504z"/>
	<path d="M38.459,22.606l-0.027,0.369h0.135l0.532-0.022v-0.117c-0.304-0.037-0.276-0.225-0.277-0.498V19.73h-0.133l-0.545,0.022
		v0.117c0.367,0.034,0.275,0.322,0.291,0.635v0.358c-2.157-0.881-1.838,3.424-0.009,1.734L38.459,22.606z M38.02,22.702
		c-0.779,0.2-0.774-1.103-0.514-1.53c0.377-0.487,1.028-0.183,0.928,0.445C38.438,22.008,38.513,22.581,38.02,22.702z"/>
	<path d="M41.272,22.57l-0.137-0.146c-0.551,0.599-1.336,0.241-1.237-0.581h1.419c0.132-1.124-1.214-1.5-1.708-0.545
		C39.063,22.534,40.257,23.644,41.272,22.57z M40.894,21.655H39.91C39.927,20.722,40.94,20.688,40.894,21.655z"/>
	<path d="M0.73,25.414v0.11c0.26,0.05,0.266,0.204,0.263,0.453v1.948c-0.003,0.252,0.008,0.398-0.263,0.453v0.11h0.989v-0.11
		c-0.268-0.032-0.311-0.212-0.304-0.459V27.17c0.34,0.02,0.874,0.037,1.164-0.214c0.38-0.289,0.433-1.056,0.053-1.341
		C2.298,25.305,1.192,25.443,0.73,25.414z M2.349,26.696c-0.176,0.322-0.598,0.286-0.935,0.287v-1.363
		C2.185,25.494,2.661,25.919,2.349,26.696z"/>
	<path d="M3.935,26.715l-0.031-0.007l0.025-0.394H3.791l-0.527,0.022v0.117c0.294,0.019,0.279,0.248,0.275,0.495v0.982
		c0,0.236,0,0.393-0.241,0.446v0.11h0.908v-0.11c-0.268-0.037-0.28-0.179-0.279-0.453c0,0,0-0.788,0-0.788
		c-0.039-0.384,0.556-0.809,0.727-0.309h0.255V26.31C4.516,26.238,4.174,26.385,3.935,26.715z"/>
	<path d="M6.151,26.296c-1.292-0.083-1.376,2.321-0.036,2.228C7.432,28.625,7.51,26.2,6.151,26.296z M5.579,27.385
		c-0.041-1.288,1.212-1.151,1.124,0.063C6.759,28.665,5.505,28.641,5.579,27.385z"/>
	<path d="M9.492,27.873v-2.608H9.359l-0.545,0.022v0.117c0.367,0.034,0.275,0.322,0.291,0.635v0.358
		c-2.157-0.881-1.838,3.424-0.009,1.734l0.034,0.009l-0.027,0.369h0.135l0.532-0.023v-0.117C9.465,28.334,9.493,28.146,9.492,27.873
		z M8.69,28.237c-0.779,0.2-0.774-1.103-0.514-1.529c0.377-0.487,1.028-0.183,0.928,0.445C9.108,27.544,9.183,28.116,8.69,28.237z"
		/>
	<path d="M12.039,27.873v-1.538h-0.642v0.11c0.253,0.039,0.258,0.222,0.255,0.451v0.845c0.018,0.391-0.611,0.725-0.84,0.349
		c-0.155-0.341-0.052-1.359-0.081-1.755h-0.642v0.11c0.274,0.061,0.245,0.185,0.252,0.451c0,0,0,0.851,0,0.851
		c-0.084,0.885,0.827,1,1.3,0.385l0.034,0.009l-0.014,0.369h0.138l0.516-0.023v-0.117C12.011,28.334,12.041,28.143,12.039,27.873z"
		/>
	<path d="M13.393,26.576c0.269-0.221,0.641-0.073,0.689,0.281h0.286v-0.471c-2.468-0.842-1.959,3.462,0.018,1.739l-0.128-0.149
		C13.229,28.957,12.781,27.211,13.393,26.576z"/>
	<path d="M15.427,26.576c0.269-0.221,0.642-0.073,0.689,0.281h0.286v-0.471c-2.467-0.842-1.959,3.462,0.018,1.739l-0.128-0.149
		C15.263,28.957,14.815,27.211,15.427,26.576z"/>
	<rect x="16.987" y="25.452" width="0.414" height="0.437"/>
	<path d="M17.388,27.925v-1.61h-0.137l-0.525,0.02v0.119c0.294,0.019,0.279,0.248,0.275,0.495v0.982
		C17,28.167,17,28.326,16.758,28.378v0.11h0.883v-0.11C17.382,28.322,17.391,28.187,17.388,27.925z"/>
	<path d="M19.055,26.296c-1.292-0.083-1.376,2.321-0.036,2.228C20.336,28.625,20.414,26.2,19.055,26.296z M18.483,27.385
		c-0.041-1.288,1.212-1.151,1.124,0.063C19.663,28.665,18.409,28.641,18.483,27.385z"/>
	<polygon points="18.753,25.961 18.9,26.078 19.614,25.353 19.614,25.24 19.219,25.24 	"/>
	<path d="M22.427,27.925c0,0,0-0.849,0-0.849c0.075-0.889-0.805-1.003-1.3-0.385l-0.031-0.009l0.025-0.367h-0.137l-0.527,0.02v0.119
		c0.294,0.019,0.279,0.248,0.275,0.495v0.982c-0.001,0.236-0.001,0.395-0.243,0.446v0.11h0.883v-0.11
		c-0.258-0.056-0.25-0.19-0.252-0.453c0,0,0-0.84,0-0.84c-0.004-0.343,0.467-0.664,0.758-0.445c0.278,0.291,0.123,0.915,0.163,1.294
		c0,0.234-0.004,0.394-0.246,0.444v0.11h0.887v-0.11C22.419,28.327,22.426,28.172,22.427,27.925z"/>
	<path d="M25.986,27.873v-2.608h-0.133l-0.545,0.022v0.117c0.367,0.034,0.274,0.322,0.291,0.635v0.358
		c-2.157-0.881-1.838,3.424-0.009,1.734l0.034,0.009l-0.027,0.369h0.135l0.532-0.023v-0.117
		C25.959,28.334,25.987,28.146,25.986,27.873z M25.582,27.837c-0.083,0.403-0.727,0.603-0.939,0.191
		c-0.166-0.274-0.173-1.054,0.027-1.321c0.377-0.487,1.027-0.183,0.928,0.445C25.593,27.275,25.613,27.729,25.582,27.837z"/>
	<path d="M26.773,26.833c-0.546,1.236,0.649,2.347,1.663,1.273l-0.137-0.147c-0.55,0.599-1.336,0.24-1.237-0.581h1.419
		C28.612,26.254,27.268,25.878,26.773,26.833z M27.074,27.191c0.017-0.933,1.03-0.968,0.984,0H27.074z"/>
	<path d="M31.607,26.878v-0.02c0.635-0.162,0.85-1.143,0.156-1.367c-0.328-0.134-1.426-0.057-1.807-0.077v0.11
		c0.26,0.05,0.266,0.204,0.263,0.453v1.948c-0.003,0.252,0.008,0.398-0.263,0.453v0.11c0.391-0.019,1.409,0.06,1.755-0.087
		C32.441,28.173,32.387,27.029,31.607,26.878z M30.641,25.625c0.285-0.005,0.662-0.065,0.909,0.099
		c0.441,0.383,0.092,1.145-0.515,1.068h-0.394V25.625z M31.467,28.216c-0.184,0.093-0.596,0.081-0.825,0.058V26.99
		c0.362,0.007,0.866-0.06,1.055,0.282C31.842,27.561,31.812,28.076,31.467,28.216z"/>
	<rect x="32.952" y="25.452" width="0.415" height="0.437"/>
	<path d="M33.353,27.925v-1.61h-0.138l-0.525,0.02v0.119c0.294,0.019,0.279,0.248,0.275,0.495v0.982
		c-0.001,0.236-0.001,0.395-0.243,0.446v0.11h0.883v-0.11C33.347,28.322,33.355,28.187,33.353,27.925z"/>
	<path d="M35.02,26.296c-1.292-0.083-1.376,2.321-0.036,2.228C36.301,28.625,36.378,26.2,35.02,26.296z M34.448,27.385
		c-0.041-1.288,1.213-1.151,1.124,0.063C35.628,28.665,34.374,28.641,34.448,27.385z"/>
	<path d="M37.054,27.925v-2.66h-0.135l-0.543,0.022v0.117c0.367,0.035,0.274,0.322,0.291,0.635v1.885
		c0,0.226,0.006,0.41-0.255,0.453v0.11h0.894v-0.11C37.047,28.322,37.056,28.187,37.054,27.925z"/>
	<path d="M38.72,26.296c-1.292-0.083-1.376,2.321-0.036,2.228C40.002,28.625,40.079,26.2,38.72,26.296z M38.148,27.385
		c-0.041-1.288,1.212-1.151,1.124,0.063C39.328,28.665,38.074,28.641,38.148,27.385z"/>
	<polygon points="38.419,25.961 38.565,26.078 39.279,25.353 39.279,25.24 38.885,25.24 	"/>
	<path d="M40.538,27.682c-0.322,0.192-0.489,0.629-0.099,0.802c-1.29,0.893,1.061,1.402,1.543,0.661
		c0.195-0.264,0.171-0.72-0.158-0.868c-0.193-0.113-0.697-0.064-0.93-0.074c-0.362,0.048-0.516-0.227-0.198-0.462
		c0.763,0.277,1.554-0.452,1.041-1.169l0.02-0.025l0.417,0.016v-0.227h-0.798C40.461,26.041,39.735,27.061,40.538,27.682z
		 M40.666,28.524c0.292,0.074,0.921-0.137,1.054,0.224C41.909,29.723,39.7,29.341,40.666,28.524z M40.61,27.019
		c-0.049-0.766,0.946-0.703,0.872,0.036C41.522,27.808,40.555,27.784,40.61,27.019z"/>
	<path d="M43.063,27.925v-1.61h-0.138l-0.525,0.02v0.119c0.294,0.019,0.279,0.248,0.275,0.495v0.982
		c-0.001,0.236-0.001,0.395-0.243,0.446v0.11h0.883v-0.11C43.057,28.322,43.065,28.187,43.063,27.925z"/>
	<rect x="42.662" y="25.452" width="0.415" height="0.437"/>
	<path d="M44.417,26.576c0.269-0.221,0.641-0.073,0.69,0.281h0.286v-0.471c-2.467-0.842-1.959,3.462,0.018,1.739l-0.128-0.149
		C44.253,28.957,43.805,27.211,44.417,26.576z"/>
	<path d="M46.764,26.296c-1.292-0.083-1.376,2.321-0.036,2.228C48.045,28.625,48.122,26.2,46.764,26.296z M46.192,27.385
		c-0.041-1.288,1.212-1.151,1.124,0.063C47.371,28.665,46.117,28.641,46.192,27.385z"/>
	<path d="M49.659,27.619c-0.148-0.259-0.636-0.384-0.868-0.532c-0.629-0.524,0.538-0.937,0.698-0.259h0.216v-0.459
		c-0.593-0.19-1.767-0.055-1.398,0.791c0.147,0.257,0.638,0.378,0.857,0.519c0.68,0.581-0.603,1.025-0.754,0.274h-0.221v0.471
		C48.798,28.655,50.055,28.54,49.659,27.619z"/>
</g>
</svg>
