<?xml version="1.0" encoding="utf-8"?>
<!-- Generator: Adobe Illustrator 24.2.1, SVG Export Plug-In . SVG Version: 6.00 Build 0)  -->
<svg version="1.1" id="Capa_1" xmlns="http://www.w3.org/2000/svg" xmlns:xlink="http://www.w3.org/1999/xlink" x="0px" y="0px"
	 viewBox="0 0 50.5 50.5" style="enable-background:new 0 0 50.5 50.5;" xml:space="preserve">
<g>
	<path d="M26.178,34.133l0.506-0.225c1.638-0.731,3.174-1.566,4.595-2.506c2.139-1.964,2.802-3.285,3.007-3.898l0.059-0.175
		l-0.15-0.109c-0.532-0.384-1.767-1.087-4.069-1.484l-0.034-0.006l-0.035,0.004c-0.518,0.055-1.168,0.113-1.987,0.169l-0.219,0.015
		l-0.015,0.219c-0.149,2.21-0.652,4.723-1.495,7.468L26.178,34.133z"/>
	<path d="M24.775,14.172l0.469,0.186l-0.134-0.487c-0.423-1.537-0.816-2.778-1.072-3.548l-0.03-0.09h-4.986
		c-0.131,0.38-0.375,1.115-0.666,2.071l0.215,0.042C20.679,12.762,22.766,13.376,24.775,14.172z"/>
	<path d="M16.014,24.727c-0.005,0.209-0.006,0.415-0.004,0.62l0.248-0.002c4.219-0.032,7.737-0.121,10.454-0.264l0.241-0.012
		l-0.002-0.241c-0.02-2.436-0.464-5.448-1.319-8.953l-0.03-0.121l-0.114-0.05c-1.902-0.833-3.875-1.483-5.879-1.958
		c-0.525-0.12-1.05-0.238-1.581-0.332c-0.816,2.838-1.809,6.957-1.995,10.631C16.023,24.274,16.016,24.501,16.014,24.727z"/>
	<path d="M26.547,14.824l0.029,0.116l0.108,0.05c2.234,1.038,4.398,2.321,6.444,3.824c0.829,0.531,2.334,1.485,3.141,1.997
		l0.336,0.213l0.049-0.395c0.06-0.478,0.02-1.077-0.117-1.778c-0.065-0.342-0.157-0.723-0.265-1.135
		c-1.045-3.12-2.883-5.912-4.922-7.482h-6.135l0.079,0.246C25.608,11.453,26.08,12.997,26.547,14.824z"/>
	<path d="M16.334,26.49l-0.274,0.002l0.025,0.273c0.319,3.563,1.512,7.294,2.458,9.795l0.076,0.203l0.212-0.045
		c2.11-0.446,4.147-1.036,6.056-1.754l0.112-0.042l0.038-0.113c1.043-3.081,1.666-5.876,1.854-8.306l0.022-0.286l-0.286,0.015
		C23.915,26.371,20.452,26.459,16.334,26.49z"/>
	<path d="M16.948,12.062l0.215,0.032l0.063-0.208c0.164-0.543,0.314-1.017,0.44-1.406l0.08-0.247h-5.971v1.442l0.224,0.002
		C13.666,11.692,15.331,11.822,16.948,12.062z"/>
	<path d="M28.095,25l0.266-0.019c1.447-0.102,2.3-0.205,2.785-0.278c1.678-0.419,2.715-0.959,3.185-1.244l0.193-0.118l-0.096-0.205
		c-0.315-0.669-1.316-2.463-3.832-4.682c-1.039-0.67-2.114-1.291-3.194-1.845l-0.478-0.245l0.117,0.523
		c0.67,3.009,1.024,5.649,1.051,7.845L28.095,25z"/>
	<path d="M36.68,32.085c0.071-0.75-0.004-1.406-0.08-1.825l-0.064-0.356l-0.311,0.183c-0.705,0.415-1.945,1.14-3.154,1.836
		c-2.027,1.475-4.401,2.761-7.056,3.824l-0.106,0.042l-0.038,0.108c-0.599,1.692-1.191,3.096-1.582,3.975l-0.157,0.354h7.336
		l0.059-0.034c2.104-1.229,3.747-3.408,4.894-6.509C36.545,33.1,36.635,32.547,36.68,32.085z"/>
	<path d="M37.634,33.663c-0.891,2.587-2.136,4.649-3.701,6.129l-0.46,0.435h5.211v-9.241l-0.487,1.27
		C37.998,32.778,37.813,33.234,37.634,33.663z"/>
	<path d="M36.664,15.514c0.748,1.378,1.264,2.43,1.535,3.125l0.487,1.254v-9.66h-5.598l0.327,0.343
		C34.685,11.907,35.806,13.609,36.664,15.514z"/>
	<path d="M24.504,36.316l-0.508,0.172c-1.493,0.505-3.06,0.938-4.659,1.287l-0.294,0.064l0.115,0.278
		c0.281,0.682,0.578,1.361,0.859,1.963l0.068,0.146h2.783l0.068-0.146c0.262-0.561,0.788-1.731,1.376-3.264L24.504,36.316z"/>
	<path d="M17.179,37.03l0.298-0.052l-0.105-0.283c-0.944-2.541-2.133-6.332-2.438-9.964l-0.019-0.232l-0.233,0.001
		c-0.659,0.003-1.338,0.005-2.048,0.005l-0.859-0.001v11.17l0.244-0.018C13.782,37.53,15.518,37.319,17.179,37.03z"/>
	<path d="M18.666,39.873c-0.198-0.445-0.432-0.989-0.689-1.621l-0.077-0.19l-0.201,0.036c-1.834,0.333-3.756,0.571-5.715,0.708
		l-0.209,0.014v1.407h7.048L18.666,39.873z"/>
	<path d="M12.79,25.36c0.626,0,1.231-0.002,1.819-0.005l0.252-0.001l-0.002-0.252c-0.02-3.873,1.026-8.461,1.906-11.627l0.069-0.247
		c-1.664-0.236-3.352-0.356-5.06-0.345v12.475l0.226,0.001C12.268,25.359,12.531,25.36,12.79,25.36z"/>
	<path d="M9.913,8.514v33.431h30.634v-0.555V8.514H9.913z M39.436,40.836H11.024V9.623h28.413V40.836z"/>
</g>
</svg>
