<?xml version="1.0" encoding="utf-8"?>
<!-- Generator: Adobe Illustrator 24.2.1, SVG Export Plug-In . SVG Version: 6.00 Build 0)  -->
<svg version="1.1" id="Capa_1" xmlns="http://www.w3.org/2000/svg" xmlns:xlink="http://www.w3.org/1999/xlink" x="0px" y="0px"
	 viewBox="0 0 50.5 50.5" style="enable-background:new 0 0 50.5 50.5;" xml:space="preserve">
<g>
	<path d="M14.297,21.207c-1.3-1.924-3.46-3.073-5.781-3.073c-3.845,0-6.972,3.127-6.972,6.971c0,3.845,3.127,6.972,6.972,6.972
		c2.32,0,4.481-1.148,5.781-3.073l-1.734-1.172c-0.91,1.347-2.422,2.152-4.046,2.152c-2.691,0-4.879-2.189-4.879-4.879
		c0-2.69,2.189-4.879,4.879-4.879c1.624,0,3.136,0.805,4.046,2.152L14.297,21.207z"/>
	<path d="M8.517,21.273c-2.117,0-3.833,1.716-3.833,3.833s1.716,3.833,3.833,3.833c2.117,0,3.833-1.716,3.833-3.833
		S10.634,21.273,8.517,21.273z"/>
	<path d="M22.467,18.134c-3.845,0-6.972,3.127-6.972,6.971v7.169h2.093v-7.169c0-2.69,2.189-4.879,4.879-4.879
		s4.879,2.189,4.879,4.879v7.086h2.093v-7.086C29.439,21.261,26.312,18.134,22.467,18.134z"/>
	<path d="M41.943,18.134c-3.845,0-6.972,3.127-6.972,6.971v7.169h2.093v-7.169c0-2.69,2.189-4.879,4.879-4.879
		s4.879,2.189,4.879,4.879v7.086h2.093v-7.086C48.915,21.261,45.788,18.134,41.943,18.134z"/>
	<rect x="31.255" y="18.103" width="2.093" height="14.254"/>
</g>
</svg>
