<?xml version="1.0" encoding="utf-8"?>
<!-- Generator: Adobe Illustrator 24.2.1, SVG Export Plug-In . SVG Version: 6.00 Build 0)  -->
<svg version="1.1" id="Capa_1" xmlns="http://www.w3.org/2000/svg" xmlns:xlink="http://www.w3.org/1999/xlink" x="0px" y="0px"
	 viewBox="0 0 50.5 50.5" style="enable-background:new 0 0 50.5 50.5;" xml:space="preserve">
<g>
	<path d="M12.515,30.573c0.893-0.059,0.392-0.924,0.373-1.427c-0.104-2.783,1.3-4.855,3.047-7.068
		c0.377,1.323-0.268,2.057-0.724,2.801c-0.556,0.907-0.949,1.838-1.064,2.899c-0.346,3.187,0.516,6.192,1.376,9.195
		c0.105,0.366,0.311,0.719,0.538,1.029c0.231,0.315,0.584,0.68,0.983,0.46c0.469-0.259,0.127-0.653-0.016-1.009
		c-0.45-1.121-0.866-2.255-1.463-3.826c1.533,1.155,2.483,2.333,3.837,2.947c0.904,0.41,1.292,0.824,0.443,1.803
		c-1.056,1.216-0.539,1.773,0.974,2.187c2.302,0.63,4.859,0.333,6.925,1.856c0.224,0.165,0.753,0.29,0.86-0.039
		c0.098-0.3-0.161-0.717-0.263-1.083c0.48-0.382,0.97,0.023,1.455-0.017c0.466-0.038,0.999-0.118,0.924-0.693
		c-0.09-0.692-0.563-0.442-1.004-0.255c-0.596,0.252-1.152,0.309-1.074-0.636c0,0,0,0,0,0c0,0,0,0,0,0
		c0.213-0.311,0.694-0.589,0.466-0.99c-0.204-0.359-0.602-0.101-0.833,0.113c-1.704,1.581-3.71,1.165-5.708,0.919
		c-0.656-0.081-1.517-0.166-1.512-0.83c0.006-0.801,0.667-1.402,1.64-1.236c2.159,0.368,4.132-0.344,6.074-1.099
		c1.279-0.497,2.492-1.166,3.75-1.766c0.309,0.826-0.195,1.851,0.875,2.141c0.711,0.193,1.164-0.393,1.365-0.894
		c0.901-2.239,2.459-3.969,4.132-5.624c0.271-0.268,0.726-0.732,0.151-0.842c-1.565-0.302-0.537-1.117-0.424-1.709
		c0.1-0.52,0.65-0.992,0.117-1.547c-0.344,0.031-0.439,0.248-0.56,0.497c-0.243,0.498-0.382,1.304-1.155,1.036
		c-0.825-0.285-0.448-1.112-0.436-1.713c0.016-0.769,0.711-1.352,0.601-2.203c-0.422-3.273-1.919-5.926-4.577-7.865
		c-1.417-1.033-2.926-1.949-4.655-2.418c-0.506-0.137-1.082-0.326-0.821-1.052c0.236-0.657,0.674-0.387,1.114-0.193
		c0.276,0.121,0.627,0.227,0.831-0.172c0.106-0.632-0.943-0.787-0.574-1.62c0.492-0.193,0.994,0.718,1.536,0.156
		c-0.523-1.051-3.176-2.915-4.221-2.964c-1.377-0.064-3.082,1.944-2.924,3.31c0.281,2.424,2.169,3.046,4.02,3.69
		c4.164,1.45,7.694,3.536,8.722,8.284c0.181,0.836,0.561,1.96-0.37,2.243c-0.725,0.22-0.657-1.062-1.007-1.637
		c-0.032-0.052-0.025-0.127-0.036-0.192c-0.546-3.172-2.667-4.814-5.457-6.073c-2.526-1.14-5.188-1.329-7.744-1.113
		c-2.753,0.232-5.499,1.177-7.444,3.53c2.949-0.591,5.472-2.77,9.153-2.487c-1.001,0.753-1.69,0.861-2.35,1.089
		c-5.958,2.06-7.962,5.401-8.61,10.607C11.702,29.647,11.56,30.637,12.515,30.573z M25.358,11.912
		c-0.849-0.058-1.362-0.676-1.269-1.428c0.098-0.794,0.381-1.74,1.562-1.565c0.794,0.118,1.534,0.361,1.579,1.384
		C26.935,11.222,26.48,11.988,25.358,11.912z M34.205,32.323c0.481-1.365,0.968-2.729,1.452-4.093
		c0.774,1.636,0.378,3.082-0.184,4.526c-0.209,0.538-0.567,0.766-1.033,0.584C34.018,33.176,34.068,32.712,34.205,32.323z
		 M20.278,20.24c4.031-1.943,8.31-2.018,11.894,1.701c1.471,1.527,1.979,3.836,1.842,5.805c-0.381,5.471-5.219,9.6-10.196,9.147
		c-4.656-0.424-8.685-4.769-8.373-9.029C15.605,25.686,18.809,20.107,20.278,20.24z"/>
	<path d="M24.631,34.923c3.098,0.2,6.839-4.042,6.862-7.377c0.024-3.446-3.583-6.919-7.219-6.676
		c-3.696,0.247-6.606,3.438-6.528,6.966C17.846,32.362,20.628,34.665,24.631,34.923z M18.882,27.633
		c0.15-2.465,3.324-5.96,6.204-5.624c2.624,0.306,5.313,3.113,5.173,5.729c-0.175,3.267-3.594,6.647-6.469,6.395
		C20.885,33.878,18.673,31.052,18.882,27.633z"/>
	<path d="M24.56,32.174c1.855-0.021,3.388-1.695,3.385-3.696c-0.004-2.443-1.375-4.041-3.482-4.06
		c-1.923-0.017-3.63,1.799-3.615,3.845C20.862,30.119,22.831,32.193,24.56,32.174z M23.841,25.509
		c1.853-0.076,3.267,1.133,3.302,2.824c0.036,1.768-0.816,2.898-2.175,2.881c-1.471-0.018-3.339-1.5-3.422-2.717
		C21.471,27.414,22.905,25.547,23.841,25.509z"/>
	<path d="M24.106,29.463c0.951-0.08,1.54-0.709,1.615-1.605c0.049-0.588-0.333-1.115-1.207-1.125
		c-0.682,0.317-1.405,0.737-1.373,1.743C23.16,29.041,23.465,29.517,24.106,29.463z"/>
	<path d="M7.113,4.661v41.137h36.233V4.661H7.113z M42.204,44.656H8.256V5.804h33.947V44.656z"/>
	<path d="M25.628,9.826c-0.246,0-0.446,0.2-0.446,0.446c0,0.246,0.2,0.446,0.446,0.446c0.246,0,0.446-0.2,0.446-0.446
		C26.074,10.026,25.875,9.826,25.628,9.826z"/>
</g>
</svg>
