<?xml version="1.0" encoding="utf-8"?>
<!-- Generator: Adobe Illustrator 24.2.1, SVG Export Plug-In . SVG Version: 6.00 Build 0)  -->
<svg version="1.1" id="Capa_1" xmlns="http://www.w3.org/2000/svg" xmlns:xlink="http://www.w3.org/1999/xlink" x="0px" y="0px"
	 viewBox="0 0 50.5 50.5" style="enable-background:new 0 0 50.5 50.5;" xml:space="preserve">
<g>
	<path d="M15.88,12.693c3.974-0.099,8.644-0.795,12.22,1.59c3.577,2.384,3.775,4.57,3.875,6.756c0.099,2.186,0,5.663,0,5.663
		s3.279-5.961,2.285-10.035c-0.993-4.073-2.881-6.259-8.445-7.451s-12.121-2.682-15.4-0.994c-3.279,1.689,0.397,11.724,0.397,11.724
		S11.906,12.792,15.88,12.693z"/>
	<path d="M36.176,13.397c0.099,3.974,0.795,8.644-1.59,12.22c-2.384,3.577-4.57,3.775-6.756,3.875c-2.186,0.099-5.663,0-5.663,0
		s5.961,3.279,10.035,2.285c4.073-0.994,6.259-2.881,7.451-8.445c1.192-5.564,2.683-12.121,0.994-15.4
		C38.957,4.654,28.923,8.33,28.923,8.33S36.076,9.423,36.176,13.397z"/>
	<path d="M39.647,30.514c0,0-1.093,7.153-5.067,7.253c-3.974,0.099-8.644,0.795-12.22-1.59c-3.577-2.384-3.775-4.57-3.875-6.756
		s0-5.663,0-5.663s-3.279,5.961-2.285,10.035c0.994,4.074,2.881,6.259,8.445,7.452c5.564,1.192,12.121,2.682,15.4,0.993
		C43.323,40.549,39.647,30.514,39.647,30.514z"/>
	<path d="M14.284,37.063c-0.099-3.974-0.795-8.644,1.59-12.221c2.385-3.577,4.57-3.775,6.756-3.875c2.186-0.099,5.663,0,5.663,0
		s-5.961-3.279-10.035-2.285c-4.074,0.993-6.259,2.881-7.452,8.445c-1.192,5.564-2.682,12.121-0.993,15.4
		c1.689,3.279,11.724-0.397,11.724-0.397S14.384,41.037,14.284,37.063z"/>
</g>
</svg>
