<?xml version="1.0" encoding="utf-8"?>
<!-- Generator: Adobe Illustrator 24.2.1, SVG Export Plug-In . SVG Version: 6.00 Build 0)  -->
<svg version="1.1" id="Capa_1" xmlns="http://www.w3.org/2000/svg" xmlns:xlink="http://www.w3.org/1999/xlink" x="0px" y="0px"
	 viewBox="0 0 50.5 50.5" style="enable-background:new 0 0 50.5 50.5;" xml:space="preserve">
<g>
	<path d="M33.818,34.786H9.297c0.114,0.191,0.226,0.384,0.347,0.571h24.174h2.847h4.192c0.121-0.186,0.232-0.38,0.347-0.571h-4.539
		H33.818z"/>
	<path d="M8.831,28.541H7.118v0.824c0.202,0.895,0.472,1.763,0.799,2.604h0.914V28.541z"/>
	<rect x="7.118" y="22.783" width="1.712" height="3.427"/>
	<path d="M32.689,22.994h-0.002c0-0.008,0.002-0.015,0.002-0.023c0-0.474-0.384-0.857-0.857-0.857c-0.473,0-0.856,0.383-0.856,0.857
		c0,0.008,0.002,0.015,0.002,0.023h-0.002v3.216h1.713V22.994z"/>
	<rect x="36.741" y="28.541" width="1.712" height="3.428"/>
	<rect x="36.741" y="22.783" width="1.712" height="3.427"/>
	<rect x="12.046" y="22.783" width="1.713" height="3.427"/>
	<path d="M41.669,31.969h0.914c0.326-0.841,0.596-1.709,0.799-2.604v-0.824h-1.713V31.969z"/>
	<path d="M25.25,1.996c-12.822,0-23.254,10.431-23.254,23.254S12.428,48.504,25.25,48.504S48.504,38.072,48.504,25.25
		S38.073,1.996,25.25,1.996z M25.25,47.613c-12.331,0-22.363-10.032-22.363-22.363c0-12.331,10.032-22.362,22.363-22.362
		c12.331,0,22.362,10.032,22.362,22.362C47.613,37.581,37.581,47.613,25.25,47.613z"/>
	<rect x="41.669" y="22.783" width="1.713" height="3.427"/>
	<path d="M35.86,20.558h7.373c-0.049-0.19-0.091-0.383-0.147-0.571h-6.823l0.179-0.178c0.072-0.073,0.096-0.176,0.072-0.273h6.437
		c-0.063-0.194-0.141-0.381-0.209-0.572h-7.465v-2.628c0.103-0.018,0.19-0.087,0.235-0.185c0.091-0.203-0.036-0.412-0.187-0.609
		c-0.415-0.538-1.086-0.5-1.224-0.487h-4.38c-0.071-0.08-0.173-0.168-0.309-0.266c-0.38-0.275-0.998-0.257-1.103-0.251h-0.987
		c-0.113-0.245-0.333-0.713-0.538-1.098c-0.364-0.683-0.792-1.041-1.12-1.23c0,0-0.291-0.196-0.439-0.182
		c-0.148,0.014-0.393,0.184-0.393,0.184c-0.328,0.189-0.753,0.547-1.116,1.228c-0.206,0.385-0.425,0.852-0.538,1.098h-0.987
		c-0.105-0.005-0.724-0.023-1.103,0.251c-0.136,0.098-0.238,0.186-0.309,0.266h-4.38c-0.138-0.014-0.809-0.052-1.224,0.487
		c-0.152,0.197-0.278,0.406-0.187,0.609c0.044,0.099,0.133,0.168,0.235,0.185v2.628H7.758c-0.069,0.191-0.147,0.378-0.209,0.572
		h6.437c-0.025,0.097-0.001,0.201,0.071,0.273l0.18,0.178H7.413c-0.055,0.188-0.097,0.381-0.147,0.571h7.374v13.217H8.726
		c0.099,0.192,0.198,0.383,0.304,0.571h5.716h1.936h17.135h1.905h5.748c0.106-0.188,0.204-0.379,0.304-0.571H35.86V20.558z
		 M34.117,15.626c0.014,0,0.028-0.001,0.04-0.002c0.004-0.001,0.356-0.041,0.611,0.164h-4.262c-0.002-0.045-0.014-0.088-0.037-0.128
		c-0.007-0.012-0.016-0.022-0.025-0.033H34.117z M21.202,15.44c0.018-0.022,0.074-0.083,0.22-0.188
		c0.172-0.125,0.548-0.154,0.744-0.143c0.006,0,0.012,0,0.017,0h1.178c0.112,0,0.214-0.065,0.26-0.168
		c0.003-0.008,0.32-0.711,0.599-1.232c0.369-0.693,0.791-0.967,1.029-1.073c0.239,0.106,0.661,0.381,1.03,1.073
		c0.278,0.521,0.595,1.224,0.599,1.232c0.047,0.103,0.148,0.168,0.261,0.168h1.178c0.005,0,0.011,0,0.016,0
		c0.165-0.01,0.564,0.012,0.744,0.143c0.146,0.104,0.202,0.166,0.22,0.188c0.01,0.027,0.024,0.052,0.041,0.074h-3.991h-0.197h-3.991
		C21.178,15.492,21.192,15.467,21.202,15.44z M20.898,16.085h4.253h0.197h4.253v2.618h-0.687l-0.993-0.773
		c-0.843-0.656-1.641-0.707-2.034-0.681c-0.135-0.317-0.524-0.39-0.569-0.398c-0.023-0.004-0.045,0-0.068,0.002
		c-0.023-0.002-0.044-0.006-0.068-0.002c-0.045,0.008-0.434,0.081-0.568,0.398c-0.395-0.025-1.191,0.026-2.034,0.681l-0.993,0.773
		h-0.688V16.085z M25.25,19.273l-0.002,0v0l-3.54,0.048v-0.052c0.055-0.005,0.108-0.022,0.151-0.055l1.071-0.833
		c0.938-0.73,1.771-0.551,1.803-0.543c0.141,0.034,0.285-0.042,0.336-0.178l0.068-0.184c0.013-0.017,0.066-0.042,0.114-0.055
		c0.042,0.012,0.098,0.035,0.11,0.05l0.071,0.19c0.05,0.135,0.193,0.211,0.333,0.178c0.035-0.008,0.867-0.187,1.805,0.543
		l1.071,0.833c0.043,0.033,0.096,0.05,0.151,0.055v0.052l-3.54-0.048v0L25.25,19.273z M20.542,21.15v-0.853l0-0.001l0.095,0.001
		v-0.012c0.106,0.117,0.273,0.193,0.463,0.193l1.19-0.1h1.19h1.19h1.16h1.19h1.189l1.19,0.1c0.19,0,0.357-0.076,0.463-0.193v0.012
		v0.853c0,0.079,0.064,0.142,0.143,0.142h0.238v0.271c-0.072-0.014-0.152-0.015-0.223,0.017c-0.065,0.03-0.108,0.088-0.134,0.159
		c-0.047,0.063-0.068,0.12-0.072,0.131c-0.004,0.014-0.006,0.028-0.006,0.043l0.071,8.094c0,0.011,0.002,0.022,0.005,0.031
		c0.028,0.121,0.084,0.271,0.193,0.322c0.006,0.016,0.012,0.043,0.015,0.057c0.002,0.011,0.004,0.02,0.005,0.028
		c0.019,0.074,0.077,0.116,0.139,0.139v0.017H28.93v-0.083c0.018-0.021,0.036-0.043,0.043-0.073
		c0.002-0.008,0.004-0.017,0.006-0.028c0.003-0.014,0.009-0.042,0.015-0.057c0.108-0.05,0.165-0.2,0.193-0.322
		c0.002-0.009,0.004-0.02,0.004-0.031l0.071-8.094c0-0.015-0.002-0.029-0.005-0.043c-0.005-0.018-0.058-0.18-0.227-0.265h-0.58
		c-0.169,0.085-0.222,0.247-0.227,0.265c-0.004,0.014-0.007,0.028-0.006,0.043l0.072,8.094c0,0.011,0.001,0.022,0.003,0.031
		c0.029,0.121,0.085,0.271,0.193,0.322c0.006,0.016,0.012,0.043,0.015,0.057c0.002,0.011,0.004,0.02,0.006,0.028
		c0.007,0.03,0.025,0.052,0.043,0.073v0.083H27.24v-0.017c0.062-0.023,0.12-0.066,0.138-0.139c0.002-0.008,0.004-0.017,0.006-0.028
		c0.003-0.014,0.009-0.042,0.015-0.057c0.109-0.05,0.165-0.2,0.193-0.322c0.003-0.009,0.004-0.02,0.004-0.031l0.072-8.094
		c0-0.015-0.002-0.029-0.006-0.043c-0.006-0.018-0.059-0.18-0.227-0.265c-0.028-0.013-0.053-0.021-0.077-0.027
		c0.035-0.038,0.046-0.094,0.026-0.146c-0.014-0.036-0.041-0.063-0.074-0.078c-0.016-0.062-0.069-0.109-0.137-0.109H25.7
		c-0.079,0-0.143,0.065-0.143,0.143v0.025h-0.708v-0.025c0-0.078-0.063-0.143-0.142-0.143H23.23c-0.067,0-0.12,0.047-0.135,0.109
		c-0.033,0.015-0.061,0.042-0.075,0.078c-0.02,0.052-0.008,0.108,0.026,0.146c-0.024,0.006-0.05,0.014-0.076,0.027
		c-0.169,0.085-0.222,0.247-0.228,0.265c-0.004,0.014-0.005,0.028-0.005,0.043l0.071,8.094c0,0.011,0.001,0.022,0.003,0.031
		c0.03,0.121,0.085,0.271,0.193,0.322c0.006,0.016,0.012,0.043,0.015,0.057c0.002,0.011,0.005,0.02,0.006,0.029
		c0.019,0.073,0.077,0.115,0.138,0.139v0.017h-1.308v-0.084c0.018-0.02,0.035-0.042,0.042-0.071
		c0.002-0.009,0.004-0.018,0.006-0.029c0.004-0.014,0.009-0.042,0.016-0.057c0.109-0.05,0.165-0.2,0.193-0.322
		c0.002-0.009,0.004-0.02,0.004-0.031l0.071-8.094c0-0.015-0.001-0.029-0.006-0.043c-0.005-0.018-0.059-0.18-0.227-0.265h-0.58
		c-0.168,0.085-0.221,0.247-0.227,0.265c-0.004,0.014-0.006,0.028-0.006,0.043l0.072,8.094c0,0.011,0.001,0.022,0.004,0.031
		c0.028,0.121,0.084,0.271,0.193,0.322c0.006,0.016,0.012,0.043,0.015,0.057c0.002,0.011,0.003,0.02,0.005,0.029
		c0.007,0.03,0.025,0.052,0.043,0.072v0.083h-1.308v-0.017c0.062-0.023,0.119-0.066,0.138-0.139
		c0.002-0.009,0.005-0.018,0.006-0.029c0.003-0.014,0.009-0.042,0.016-0.057c0.108-0.05,0.165-0.2,0.193-0.322
		c0.001-0.009,0.004-0.02,0.004-0.031l0.071-8.094c0.001-0.015-0.002-0.029-0.005-0.043c-0.004-0.011-0.026-0.068-0.072-0.131
		c-0.026-0.07-0.069-0.13-0.135-0.159c-0.07-0.032-0.15-0.031-0.221-0.017v-0.271h0.238C20.478,21.292,20.542,21.229,20.542,21.15z
		 M28.906,29.987c-0.012,0.042-0.031,0.095-0.045,0.118c-0.062,0.028-0.098,0.078-0.122,0.129c-0.023-0.05-0.059-0.1-0.121-0.129
		c-0.014-0.022-0.033-0.073-0.046-0.118l-0.071-8.049c0.011-0.021,0.034-0.056,0.076-0.077c0.012-0.006,0.022-0.006,0.053-0.002
		h0.22c0.031-0.004,0.04-0.004,0.053,0.002c0.042,0.021,0.065,0.057,0.075,0.077L28.906,29.987z M21.832,29.987
		c-0.012,0.046-0.031,0.096-0.045,0.118c-0.062,0.028-0.098,0.078-0.121,0.129c-0.024-0.05-0.059-0.1-0.121-0.129
		c-0.014-0.023-0.034-0.076-0.045-0.118l-0.071-8.049c0.01-0.02,0.034-0.056,0.076-0.077h0.323c0.042,0.021,0.066,0.056,0.076,0.078
		L21.832,29.987z M16.342,15.624c0.013,0.002,0.027,0.002,0.041,0.002h3.673c-0.009,0.011-0.018,0.021-0.025,0.033
		c-0.023,0.04-0.035,0.084-0.037,0.128h-4.261C15.988,15.584,16.34,15.624,16.342,15.624z M16.639,33.716h-1.428V20.274l1.428,0.006
		V33.716z M15.779,19.321c0.006-0.023,0.015-0.046,0.015-0.071v-2.891h4.534v2.344H19.78c-0.158,0-0.285,0.128-0.285,0.285v0.334
		H15.779z M19.881,30.47v0.131h-0.048c-0.079,0-0.142,0.063-0.142,0.143v2.973h-2.481V20.282l3.047,0.013l0,0.002v0.71h-0.238
		c-0.078,0-0.143,0.064-0.143,0.143v0.619c0,0.051,0.028,0.097,0.071,0.124c0.045,0.024,0.099,0.024,0.143,0
		c0.023-0.013,0.049-0.024,0.074-0.034c0.006,0,0.011,0.001,0.018,0c0.031-0.004,0.041-0.004,0.053,0.002
		c0.042,0.021,0.065,0.056,0.076,0.078l-0.071,8.048c-0.012,0.046-0.032,0.096-0.046,0.118c-0.1,0.046-0.136,0.148-0.153,0.217
		c-0.01,0.002-0.02,0.004-0.029,0.005C19.937,30.334,19.881,30.396,19.881,30.47z M23.402,33.716h-3.426v-2.83h0.043
		c0.001,0,0.002,0.001,0.004,0.001l0.004-0.001h1.587c0,0,0.002,0.001,0.004,0.001c0.001,0,0.002-0.001,0.002-0.001h0.088
		l0.004,0.001c0.002,0,0.003-0.001,0.004-0.001h1.587l0.004,0.001c0.002,0,0.003-0.001,0.004-0.001h0.091V33.716z M26.954,30.469
		v0.132c-0.079,0-0.142,0.063-0.142,0.143v2.973h-3.123v-2.973c0-0.08-0.064-0.143-0.143-0.143H23.45V30.47
		c0-0.074-0.056-0.136-0.13-0.142c-0.009-0.001-0.019-0.003-0.029-0.005c-0.016-0.07-0.053-0.172-0.152-0.217
		c-0.016-0.023-0.034-0.076-0.047-0.118l-0.069-7.899c0.003-0.001,0.006,0,0.009-0.002c0.059-0.029,0.089-0.094,0.077-0.156
		l0.05-0.023c0.052,0.008,0.107-0.022,0.168-0.065c0.046-0.052,0.063-0.078,0.081-0.14c0.019-0.063,0.014-0.121-0.007-0.172h1.162
		v0.024c0,0.079,0.064,0.143,0.143,0.143H25.7c0.079,0,0.142-0.064,0.142-0.143V21.53h1.162c-0.021,0.051-0.026,0.109-0.007,0.172
		c0.019,0.062,0.029,0.086,0.083,0.141c0.062,0.057,0.114,0.072,0.166,0.064l0.051,0.023c-0.012,0.062,0.017,0.127,0.077,0.156
		c0.003,0.002,0.006,0.001,0.009,0.002l-0.07,7.899c-0.011,0.042-0.031,0.095-0.045,0.118c-0.101,0.046-0.136,0.148-0.153,0.217
		c-0.009,0.002-0.02,0.004-0.029,0.005C27.011,30.334,26.954,30.396,26.954,30.469z M30.524,33.716h-3.427v-2.83h3.427V33.716z
		 M33.291,33.716h-2.481v-2.973c0-0.08-0.064-0.143-0.142-0.143h-0.143v-0.132c0-0.073-0.057-0.135-0.129-0.141
		c-0.009-0.001-0.02-0.003-0.029-0.005c-0.017-0.07-0.053-0.172-0.153-0.217c-0.014-0.022-0.033-0.073-0.046-0.118l-0.07-8.049
		c0.011-0.021,0.034-0.056,0.075-0.077c0.012-0.006,0.021-0.006,0.052-0.002c0.006,0.001,0.011,0,0.017,0
		c0.026,0.009,0.052,0.02,0.075,0.034c0.045,0.024,0.099,0.024,0.142-0.001c0.045-0.026,0.071-0.072,0.071-0.123V21.15
		c0-0.079-0.064-0.143-0.142-0.143h-0.238v-0.71l0-0.001l3.142-0.013V33.716z M31.006,19.321v-0.334
		c0-0.158-0.128-0.285-0.285-0.285h-0.548v-2.344h4.534v2.891c0,0.025,0.008,0.048,0.014,0.071H31.006z M35.289,33.716h-1.428V20.28
		l1.428-0.006V33.716z"/>
	<path d="M26.617,23.61c0-0.651-0.624-1.193-1.383-1.193c-0.758,0-1.382,0.542-1.382,1.193v3.224h2.765V23.61z"/>
	<path d="M18.668,22.113c-0.473,0-0.856,0.383-0.856,0.857c0,0.008,0.002,0.015,0.002,0.023h-0.002v3.216h1.713v-3.216h-0.002
		c0-0.008,0.002-0.015,0.002-0.023C19.524,22.496,19.14,22.113,18.668,22.113z"/>
	<rect x="23.843" y="28.541" width="2.784" height="3.428"/>
	<rect x="12.046" y="28.541" width="1.713" height="3.428"/>
	<rect x="17.811" y="28.541" width="1.713" height="3.428"/>
	<rect x="30.976" y="28.541" width="1.713" height="3.428"/>
</g>
</svg>
