<?xml version="1.0" encoding="utf-8"?>
<!-- Generator: Adobe Illustrator 25.4.1, SVG Export Plug-In . SVG Version: 6.00 Build 0)  -->
<svg version="1.1" id="Layer_1" xmlns="http://www.w3.org/2000/svg" xmlns:xlink="http://www.w3.org/1999/xlink" x="0px" y="0px"
	 viewBox="0 0 50.46 50.46" enable-background="new 0 0 50.46 50.46" xml:space="preserve">
<path d="M37.91,8.92H12.55C10.059,8.898,8.022,10.899,8,13.39c0,0.013,0,0.027,0,0.04v23.94c0,3.568,2.892,6.46,6.46,6.46H36
	c3.568,0,6.46-2.892,6.46-6.46V13.43c0-2.491-2.019-4.51-4.51-4.51C37.937,8.92,37.923,8.92,37.91,8.92z M40.74,37.37
	c0,2.624-2.116,4.758-4.74,4.78H14.5c-2.64,0-4.78-2.14-4.78-4.78V13.43c0-1.563,1.267-2.83,2.83-2.83h25.36
	c1.563,0,2.83,1.267,2.83,2.83V37.37z"/>
<path fill-rule="evenodd" clip-rule="evenodd" d="M28.48,19.511c-0.174-0.411-0.345-0.824-0.521-1.238
	c-0.129-0.301-0.259-0.607-0.407-0.903c-0.179-0.358-0.402-0.755-0.744-0.988c-0.336-0.226-0.776-0.289-1.171-0.315
	c-0.322-0.026-0.651-0.029-0.974-0.034c-0.401-0.001-0.802,0-1.206,0l-7.825,18.393c0.405,0,0.807,0,1.212-0.004
	c0.361-0.007,0.727-0.014,1.087-0.044c0.447-0.04,0.937-0.116,1.308-0.38c0.383-0.272,0.629-0.744,0.822-1.162
	c0.162-0.342,0.304-0.697,0.446-1.049c0.191-0.475,0.377-0.953,0.571-1.425l0.046-0.112h8.105l1.702,4.175h3.896L28.48,19.511z
	 M22.442,26.988l2.734-6.674l2.734,6.674H22.442z"/>
</svg>
