<?xml version="1.0" encoding="utf-8"?>
<!-- Generator: Adobe Illustrator 25.4.1, SVG Export Plug-In . SVG Version: 6.00 Build 0)  -->
<svg version="1.1" id="Layer_1" xmlns="http://www.w3.org/2000/svg" xmlns:xlink="http://www.w3.org/1999/xlink" x="0px" y="0px"
	 viewBox="0 0 50.46 50.46" enable-background="new 0 0 50.46 50.46" xml:space="preserve">
<g>
	<polygon points="22.442,26.988 27.911,26.988 25.177,20.314 	"/>
	<path d="M37.95,8.92c-0.013,0-0.027,0-0.04,0H12.55C10.059,8.898,8.022,10.899,8,13.39c0,0.013,0,0.027,0,0.04v23.94
		c0,3.568,2.892,6.46,6.46,6.46H36c3.568,0,6.46-2.892,6.46-6.46V13.43C42.46,10.939,40.441,8.92,37.95,8.92z M30.932,34.427
		l-1.702-4.175h-8.105l-0.046,0.112c-0.193,0.472-0.38,0.95-0.571,1.425c-0.142,0.352-0.284,0.707-0.446,1.049
		c-0.192,0.418-0.438,0.89-0.822,1.162c-0.371,0.264-0.862,0.34-1.308,0.38c-0.36,0.03-0.726,0.037-1.087,0.044
		c-0.406,0.004-0.808,0.004-1.212,0.004l7.825-18.393c0.403,0,0.805-0.001,1.206,0c0.323,0.005,0.652,0.008,0.974,0.034
		c0.395,0.027,0.835,0.089,1.171,0.315c0.342,0.232,0.565,0.63,0.744,0.988c0.148,0.296,0.278,0.602,0.407,0.903
		c0.176,0.414,0.347,0.826,0.521,1.238l6.347,14.915H30.932z"/>
</g>
</svg>
