<svg id="Layer_1" data-name="Layer 1" xmlns="http://www.w3.org/2000/svg" viewBox="0 0 50.46 50.46"><defs><style>.cls-1{fill:#a7a9ac;}</style></defs><title>anses</title><path class="cls-1" d="M37.91,8.92H12.55A4.51,4.51,0,0,0,8,13.43V37.37a6.46,6.46,0,0,0,6.46,6.46H36a6.46,6.46,0,0,0,6.46-6.46V13.43A4.51,4.51,0,0,0,37.91,8.92Zm2.83,28.45A4.78,4.78,0,0,1,36,42.15H14.5a4.78,4.78,0,0,1-4.78-4.78V13.43a2.83,2.83,0,0,1,2.83-2.83H37.91a2.83,2.83,0,0,1,2.83,2.83Z"/><path class="cls-1" d="M29.53,18.22c-4.08-2.18-9.62-.09-11.12.82a.33.33,0,0,0-.1.46l.65,1a3.36,3.36,0,0,0,4.11,1.15,5.53,5.53,0,0,1,3-.22A3.25,3.25,0,0,1,29,24.18c-1.35-.05-2.78-.05-3.94-.05-4,0-7.47,2.33-7.47,6,0,3.46,2.34,5.84,6.71,5.84a7,7,0,0,0,4.87-2.29,2.76,2.76,0,0,0,2.41,1.7H33a.3.3,0,0,0,.3-.3V24.55A6.89,6.89,0,0,0,29.53,18.22ZM27,31.9a3.68,3.68,0,0,1-4,.18,2.27,2.27,0,0,1-.65-3.35c1.69-2.31,6.7-1.5,6.7-1.5A4.74,4.74,0,0,1,27,31.9Z"/></svg>