<svg id="Layer_1" data-name="Layer 1" xmlns="http://www.w3.org/2000/svg" viewBox="0 0 50.46 50.46"><defs><style>.cls-1{fill:#65b4e1;}</style></defs><title>anticorrupcion</title><path class="cls-1" d="M39.54,38,32.65,30.4A9,9,0,0,1,29.82,33l6.89,7.55A1.91,1.91,0,1,0,39.54,38Z"/><path class="cls-1" d="M25.58,17.37a7.63,7.63,0,1,0,7.23,8A7.63,7.63,0,0,0,25.58,17.37Zm5.32,7.91a5.72,5.72,0,1,1-5.42-6A5.73,5.73,0,0,1,30.91,25.28Z"/><path class="cls-1" d="M25.39,21.2a3.8,3.8,0,0,0-4,3.6.62.62,0,1,0,1.23.06,2.57,2.57,0,0,1,2.69-2.43.62.62,0,1,0,.06-1.23Z"/><path class="cls-1" d="M34.77,42.3l-1.07-1.17H14.31A2.17,2.17,0,0,1,12.15,39V11.5a2.17,2.17,0,0,1,2.17-2.17h18l0,5.62a1,1,0,0,0,1,1c.35,0,2.74,0,4.86,0l0,17,1.72,1.88L39.8,14.42v-.08L33.54,7.68l-.06-.06H14.31a3.89,3.89,0,0,0-3.88,3.88V39a3.89,3.89,0,0,0,3.88,3.88H35.37A4.44,4.44,0,0,1,34.77,42.3ZM36.9,14H34.23l0-2.94Z"/></svg>