<svg id="Layer_1" data-name="Layer 1" xmlns="http://www.w3.org/2000/svg" viewBox="0 0 50.46 50.46"><defs><style>.cls-1{fill:#35a3d0;}</style></defs><title>apagado</title><path class="cls-1" d="M13.38,29.65h.77l.32-.77h1.46l.32.77H17l-1.48-3.47h-.7Zm2.27-1.44h-.92l.46-1.12Z"/><path class="cls-1" d="M18,28.62h.58a1.23,1.23,0,0,0,1.39-1.21h0a1.18,1.18,0,0,0-1.32-1.19H17.2v3.45H18Zm0-1.73h.59c.38,0,.62.18.62.52h0a.53.53,0,0,1-.6.52H18Z"/><path class="cls-1" d="M20.57,28.88H22l.32.77h.79l-1.48-3.47H21l-1.48,3.47h.77Zm.73-1.79.46,1.12h-.92Z"/><path class="cls-1" d="M24.7,26.85a1.27,1.27,0,0,1,.9.35l.48-.58a1.89,1.89,0,0,0-1.35-.47,1.77,1.77,0,0,0-1.81,1.78h0a1.73,1.73,0,0,0,1.81,1.77,2.24,2.24,0,0,0,1.47-.55v-1.5h-1.5v.65h.76v.49a1.21,1.21,0,0,1-.71.21,1,1,0,0,1-1-1.09h0A1,1,0,0,1,24.7,26.85Z"/><path class="cls-1" d="M27.75,26.18l-1.48,3.47H27l.32-.77h1.46l.32.77h.79l-1.48-3.47Zm-.12,2,.46-1.12.46,1.12Z"/><path class="cls-1" d="M30.09,26.21v3.45h1.34a1.73,1.73,0,0,0,1.83-1.72h0a1.72,1.72,0,0,0-1.83-1.71Zm2.38,1.72h0a1,1,0,0,1-1,1h-.59V26.89h.59A1,1,0,0,1,32.47,27.93Z"/><path class="cls-1" d="M33.42,27.93h0a1.83,1.83,0,0,0,3.66,0h0a1.83,1.83,0,0,0-3.66,0Zm2.87,0h0a1,1,0,0,1-1,1.07,1,1,0,0,1-1-1.08h0a1,1,0,0,1,1-1.07A1,1,0,0,1,36.29,27.93Z"/><path class="cls-1" d="M24.1,10.39,25,17.45h.28a5.52,5.52,0,0,1,2.53.61l3.59-6.14a12.59,12.59,0,0,0-6.12-1.58C24.85,10.33,24.47,10.35,24.1,10.39Z"/><path class="cls-1" d="M32,12.31l-3.59,6.14a5.54,5.54,0,0,1,2.33,4.14h7.11A12.64,12.64,0,0,0,32,12.31Z"/><path class="cls-1" d="M17.9,12.68l4.35,5.64a5.51,5.51,0,0,1,1.94-.77l-.85-7.07A12.58,12.58,0,0,0,17.9,12.68Z"/><path class="cls-1" d="M19.75,22.11l-6.94-1.54a12.69,12.69,0,0,0-.22,2H19.7C19.71,22.43,19.73,22.27,19.75,22.11Z"/><path class="cls-1" d="M14.42,16.41l6.22,3.47a5.57,5.57,0,0,1,1-1.11l-4.34-5.63A12.72,12.72,0,0,0,14.42,16.41Z"/><path class="cls-1" d="M13,19.82l7,1.54a5.51,5.51,0,0,1,.32-.8L14,17.09A12.56,12.56,0,0,0,13,19.82Z"/><polygon class="cls-1" points="27.11 38.61 25.84 36.66 24.51 38.71 23.15 40.82 19.74 46.07 31.95 46.07 28.68 41.04 27.11 38.61"/><path class="cls-1" d="M25.23,4.39a18.49,18.49,0,0,0-6,36l1.49-2.29a15.85,15.85,0,1,1,10-.33L32.19,40a18.48,18.48,0,0,0-7-35.61Z"/></svg>