<svg id="Layer_1" data-name="Layer 1" xmlns="http://www.w3.org/2000/svg" viewBox="0 0 50.46 50.46"><defs><style>.cls-1{fill:#12b5e1;}</style></defs><title>araucaria</title><path class="cls-1" d="M44.29,13.82a2.92,2.92,0,0,0-1,.16,3.32,3.32,0,0,0,.16-1A3,3,0,0,0,40.56,9.9a2.77,2.77,0,0,0-1.22.28,4.85,4.85,0,0,0,.18-1.33,4.59,4.59,0,0,0-4.45-4.72,4.3,4.3,0,0,0-1.89.44,3.7,3.7,0,0,0-3-1.51,3.58,3.58,0,0,0-1.91.55,3.38,3.38,0,0,0-3.07-2.08h0a3.38,3.38,0,0,0-3.07,2.08,3.58,3.58,0,0,0-1.91-.55,3.7,3.7,0,0,0-3,1.51,4.3,4.3,0,0,0-1.89-.44,4.59,4.59,0,0,0-4.45,4.72,4.85,4.85,0,0,0,.18,1.33A2.77,2.77,0,0,0,9.9,9.9,3,3,0,0,0,7,13a3.32,3.32,0,0,0,.16,1,2.92,2.92,0,0,0-1-.16,3.34,3.34,0,0,0-3.24,3.43,3.34,3.34,0,0,0,3.24,3.44,3.11,3.11,0,0,0,2.06-.79,6.21,6.21,0,0,0,1.95,1.37,11.45,11.45,0,0,0,2.65.85,1.75,1.75,0,0,0,1.24,1.08,4.66,4.66,0,0,0,1.65,2.33,6.58,6.58,0,0,0,4,1.25,6.92,6.92,0,0,0,4.13-1.28,6,6,0,0,0,.47-.38v19.1H15.14a.91.91,0,0,0,0,1.81h9.19v2a.9.9,0,1,0,1.8,0V46h9.19a.91.91,0,0,0,0-1.81H26.13V25.12a6,6,0,0,0,.47.38,6.92,6.92,0,0,0,4.13,1.28,6.58,6.58,0,0,0,4-1.25,4.66,4.66,0,0,0,1.65-2.33,1.8,1.8,0,0,0,1.27-1.14,13,13,0,0,0,2.49-.81,6.94,6.94,0,0,0,2-1.38,3.12,3.12,0,0,0,2.1.82,3.34,3.34,0,0,0,3.24-3.44A3.34,3.34,0,0,0,44.29,13.82Zm-5.67,1.46a3.51,3.51,0,0,1-1.73,2,9,9,0,0,1-4.46,1,9.67,9.67,0,0,1-4.64-1.08,4.06,4.06,0,0,1-1.66-1.61v-.56c.1.1.21.19.32.28a6.17,6.17,0,0,0,3.86,1.29,5.84,5.84,0,0,0,3.75-1.27,4.65,4.65,0,0,0,1.35-1.82,4.21,4.21,0,0,0,2.25-.86,2.62,2.62,0,0,0,0,.28A3.13,3.13,0,0,0,38.62,15.28ZM17.2,13.17a5.67,5.67,0,0,0,3.43,1.11A5.36,5.36,0,0,0,24.2,13l.13-.12v.21a3.47,3.47,0,0,1-1,1.36,4.65,4.65,0,0,1-3,1,5,5,0,0,1-3.11-1,3.63,3.63,0,0,1-.84-1A4.59,4.59,0,0,0,17.2,13.17Zm16.91.3a3.45,3.45,0,0,1-.81,1,4.7,4.7,0,0,1-3,1,5,5,0,0,1-3.11-1A3.63,3.63,0,0,1,26.13,13v-.23l.21.19A5.63,5.63,0,0,0,30,14.28a5.41,5.41,0,0,0,3.32-1.08A3.6,3.6,0,0,0,34.11,13.47Zm-3-2.45a4.83,4.83,0,0,0,1.12,1.48,4.42,4.42,0,0,1-2.22.58,4.49,4.49,0,0,1-2.87-1l.21,0A2.24,2.24,0,0,0,29.18,11a3.58,3.58,0,0,0,1,.15A3.8,3.8,0,0,0,31.11,11Zm-3-.58a1,1,0,0,1-.74.45c-.4,0-.9-.41-1.22-1.31v-1a2.5,2.5,0,0,0,.48-.18A4,4,0,0,0,28.09,10.44Zm-4.24-2a2.5,2.5,0,0,0,.48.18V9.66a3.39,3.39,0,0,1-.25.56,1.14,1.14,0,0,1-.89.67,1.06,1.06,0,0,1-.78-.48A4.05,4.05,0,0,0,23.85,8.4ZM19.35,11a3.8,3.8,0,0,0,.89.11A3.49,3.49,0,0,0,21.32,11a2.32,2.32,0,0,0,1.87,1.13l.23,0,0,0a4.18,4.18,0,0,1-2.77,1,4.69,4.69,0,0,1-2.35-.63A4.59,4.59,0,0,0,19.35,11Zm-6.54,2a2.62,2.62,0,0,0,0-.28,4.32,4.32,0,0,0,2.28.87,4.91,4.91,0,0,0,1.4,1.79,6.17,6.17,0,0,0,3.86,1.29,5.86,5.86,0,0,0,3.75-1.27l.24-.21v.54a3.81,3.81,0,0,1-1.56,1.58,9,9,0,0,1-4.46,1,9.68,9.68,0,0,1-4.65-1.08,3.78,3.78,0,0,1-1.8-2A3.18,3.18,0,0,0,12.81,13ZM9,19a3.66,3.66,0,0,0,.19-3,2.84,2.84,0,0,0,.72.1,2.72,2.72,0,0,0,.91-.16,5.08,5.08,0,0,0,2.26,2.39,10.74,10.74,0,0,0,5.24,1.23,10.25,10.25,0,0,0,5.07-1.21,5.6,5.6,0,0,0,.95-.68v.72c-1,1.89-4.6,2.9-8,2.9h-.09a1.77,1.77,0,0,0-3.42-.36,9.67,9.67,0,0,1-2.11-.71A4.84,4.84,0,0,1,9,19Zm14.16,5.59a5.87,5.87,0,0,1-3.42,1,5.38,5.38,0,0,1-3.28-1,3.44,3.44,0,0,1-1.16-1.52,1.81,1.81,0,0,0,.66-.6h.37a15.67,15.67,0,0,0,6.35-1.21,7.58,7.58,0,0,0,1.66-1v2.87A3.76,3.76,0,0,1,23.15,24.54Zm10.86,0a5.38,5.38,0,0,1-3.28,1,5.87,5.87,0,0,1-3.42-1,3.76,3.76,0,0,1-1.18-1.45V20.31a6.67,6.67,0,0,0,1.53,1,14.67,14.67,0,0,0,6.14,1.19h.7a1.84,1.84,0,0,0,.67.6A3.44,3.44,0,0,1,34,24.57Zm3.62-3.75a1.77,1.77,0,0,0-3.4.43H33.8a13.42,13.42,0,0,1-5.63-1.08,4.14,4.14,0,0,1-2-1.74v-.89a6.65,6.65,0,0,0,1.06.75,10.79,10.79,0,0,0,5.24,1.23,10.22,10.22,0,0,0,5.07-1.21,4.8,4.8,0,0,0,2.17-2.4,2.64,2.64,0,0,0,.89.15,2.84,2.84,0,0,0,.72-.1,3.59,3.59,0,0,0-.23,1.28,3.54,3.54,0,0,0,.39,1.64A7.34,7.34,0,0,1,37.63,20.82Z"/></svg>