<svg id="Layer_1" data-name="Layer 1" xmlns="http://www.w3.org/2000/svg" viewBox="0 0 50.46 50.46"><defs><style>.cls-1{fill:#65b4e1;}</style></defs><title>arbol</title><path class="cls-1" d="M38.51,16.65a5.46,5.46,0,0,0-7.4-6,6.15,6.15,0,0,0-11.75,0,5.4,5.4,0,0,0-2-.39A5.46,5.46,0,0,0,12,16.65a5.46,5.46,0,0,0,.83,10.86,5.39,5.39,0,0,0,2-.39,4.13,4.13,0,0,0,5.77.64.9.9,0,1,0-1.12-1.41,2.33,2.33,0,0,1-3.53-.79.9.9,0,0,0-1.27-.37,3.65,3.65,0,1,1-1.57-6.78.91.91,0,0,0,.8-.38.9.9,0,0,0,.09-.88,3.65,3.65,0,0,1,5.5-4.42.9.9,0,0,0,1.43-.66,4.33,4.33,0,0,1,4.25-4h.11a4.34,4.34,0,0,1,4.3,4,.9.9,0,0,0,1.43.66,3.65,3.65,0,0,1,5.5,4.42.9.9,0,0,0,.9,1.26l.29,0a3.66,3.66,0,1,1,0,7.32,3.63,3.63,0,0,1-2.31-.83.9.9,0,0,0-1.43.45A2.34,2.34,0,0,1,31.68,27a2.31,2.31,0,0,1-1.44-.5.9.9,0,0,0-1.12,1.41,4.09,4.09,0,0,0,2.56.89,4.15,4.15,0,0,0,3.49-1.92,5.46,5.46,0,1,0,3.34-10.24Z"/><path class="cls-1" d="M32.45,42.4c-6.48-1.61-6.2-7-6-11.77l0-.79a6.16,6.16,0,0,1,5.58-6.25A.9.9,0,0,0,32,21.8a8.22,8.22,0,0,0-6.44,4.44V19a.9.9,0,0,0-1.8,0v7.19A8.22,8.22,0,0,0,17.3,21.8a.9.9,0,1,0-.12,1.8,6.12,6.12,0,0,1,5.58,6.25c.38,8.34-1.44,12.33-5.75,12.54a.9.9,0,0,0,0,1.8h0l14.92,0,.22,0a.9.9,0,0,0,.22-1.77Z"/></svg>