<svg id="Layer_1" data-name="Layer 1" xmlns="http://www.w3.org/2000/svg" viewBox="0 0 50.46 50.46"><defs><style>.cls-1{fill:#65b4e1;}</style></defs><title>archivo consulta</title><path class="cls-1" d="M41.81,10.37H32.48a1.23,1.23,0,0,0-1.19,1.26v3c0,.5-.28,1-.6,1H19.24c-.31,0-.6-.45-.6-1v-3a1.23,1.23,0,0,0-1.19-1.26H8.12a.9.9,0,0,0-.9.9V42.35a3.37,3.37,0,0,0,3.08,3.6H39.62a3.37,3.37,0,0,0,3.08-3.6V11.27A.9.9,0,0,0,41.81,10.37Zm-.9,32c0,1-.59,1.8-1.28,1.8H10.3c-.69,0-1.28-.82-1.28-1.8V12.17h7.83v2.46a2.59,2.59,0,0,0,2.39,2.75H30.69a2.59,2.59,0,0,0,2.39-2.75V12.17h7.83Z"/><path class="cls-1" d="M14.13,9.09a.8.8,0,0,0,.8-.8V6.11H35V8.29a.8.8,0,0,0,1.6,0v-3a.8.8,0,0,0-.8-.8H14.13a.8.8,0,0,0-.8.8v3A.8.8,0,0,0,14.13,9.09Z"/><path class="cls-1" d="M24.78,36.62a1.94,1.94,0,0,0-1.39.52,1.86,1.86,0,0,0,0,2.62,2.18,2.18,0,0,0,2.81,0,1.86,1.86,0,0,0,0-2.62A1.94,1.94,0,0,0,24.78,36.62Z"/><path class="cls-1" d="M25,22.47a5.75,5.75,0,0,0-4,1.29,4.61,4.61,0,0,0-1.48,3.58H23a2.14,2.14,0,0,1,.56-1.5A1.89,1.89,0,0,1,25,25.3q1.87,0,1.87,2a2.47,2.47,0,0,1-.36,1.28,7.64,7.64,0,0,1-1.44,1.57,5.47,5.47,0,0,0-1.49,2,7.2,7.2,0,0,0-.41,2.67h3.06l0-.73a3.29,3.29,0,0,1,1-2l1-.92a7.91,7.91,0,0,0,1.59-2,4.22,4.22,0,0,0,.45-1.92A4.36,4.36,0,0,0,29,23.7,5.77,5.77,0,0,0,25,22.47Z"/></svg>