<svg id="Layer_1" data-name="Layer 1" xmlns="http://www.w3.org/2000/svg" viewBox="0 0 50.46 50.46"><defs><style>.cls-1{fill:#65b4e1;}</style></defs><title>areas vacantes</title><path class="cls-1" d="M15.61,18.64H7.82A1.86,1.86,0,0,1,6,16.78V10.61A1.86,1.86,0,0,1,7.82,8.75h7.79a1.86,1.86,0,0,1,1.86,1.86v6.17A1.86,1.86,0,0,1,15.61,18.64ZM7.82,10.43a.18.18,0,0,0-.18.18v6.17a.18.18,0,0,0,.18.18h7.79a.18.18,0,0,0,.18-.18V10.61a.18.18,0,0,0-.18-.18Z"/><path class="cls-1" d="M29.13,18.64H21.33a1.86,1.86,0,0,1-1.86-1.86V10.61a1.86,1.86,0,0,1,1.86-1.86h7.79A1.86,1.86,0,0,1,31,10.61v6.17A1.86,1.86,0,0,1,29.13,18.64Zm-7.79-8.21a.18.18,0,0,0-.18.18v6.17a.18.18,0,0,0,.18.18h7.79a.18.18,0,0,0,.18-.18V10.61a.18.18,0,0,0-.18-.18Z"/><path class="cls-1" d="M42.64,18.64H34.85A1.86,1.86,0,0,1,33,16.78V10.61a1.86,1.86,0,0,1,1.86-1.86h7.79a1.86,1.86,0,0,1,1.86,1.86v6.17A1.86,1.86,0,0,1,42.64,18.64Zm-7.79-8.21a.18.18,0,0,0-.18.18v6.17a.18.18,0,0,0,.18.18h7.79a.18.18,0,0,0,.18-.18V10.61a.18.18,0,0,0-.18-.18Z"/><path class="cls-1" d="M29.13,30.18H21.33a1.86,1.86,0,0,1-1.86-1.86V22.14a1.86,1.86,0,0,1,1.86-1.86h7.79A1.86,1.86,0,0,1,31,22.14v6.17A1.86,1.86,0,0,1,29.13,30.18ZM21.33,22a.18.18,0,0,0-.18.18v6.17a.18.18,0,0,0,.18.18h7.79a.18.18,0,0,0,.18-.18V22.14a.18.18,0,0,0-.18-.18Z"/><path class="cls-1" d="M42.64,30.18H34.85A1.86,1.86,0,0,1,33,28.32V22.14a1.86,1.86,0,0,1,1.86-1.86h7.79a1.86,1.86,0,0,1,1.86,1.86v6.17A1.86,1.86,0,0,1,42.64,30.18ZM34.85,22a.18.18,0,0,0-.18.18v6.17a.18.18,0,0,0,.18.18h7.79a.18.18,0,0,0,.18-.18V22.14a.18.18,0,0,0-.18-.18Z"/><path class="cls-1" d="M15.61,41.71H7.82A1.86,1.86,0,0,1,6,39.85V33.68a1.86,1.86,0,0,1,1.86-1.86h7.79a1.86,1.86,0,0,1,1.86,1.86v6.17A1.86,1.86,0,0,1,15.61,41.71ZM7.82,33.5a.18.18,0,0,0-.18.18v6.17a.18.18,0,0,0,.18.18h7.79a.18.18,0,0,0,.18-.18V33.68a.18.18,0,0,0-.18-.18Z"/><path class="cls-1" d="M42.64,41.71H34.85A1.86,1.86,0,0,1,33,39.85V33.68a1.86,1.86,0,0,1,1.86-1.86h7.79a1.86,1.86,0,0,1,1.86,1.86v6.17A1.86,1.86,0,0,1,42.64,41.71ZM34.85,33.5a.18.18,0,0,0-.18.18v6.17a.18.18,0,0,0,.18.18h7.79a.18.18,0,0,0,.18-.18V33.68a.18.18,0,0,0-.18-.18Z"/></svg>