<?xml version="1.0" encoding="utf-8"?>
<!-- Generator: Adobe Illustrator 25.4.1, SVG Export Plug-In . SVG Version: 6.00 Build 0)  -->
<!DOCTYPE svg PUBLIC "-//W3C//DTD SVG 1.1//EN" "http://www.w3.org/Graphics/SVG/1.1/DTD/svg11.dtd" [
	<!ENTITY ns_extend "http://ns.adobe.com/Extensibility/1.0/">
	<!ENTITY ns_ai "http://ns.adobe.com/AdobeIllustrator/10.0/">
	<!ENTITY ns_graphs "http://ns.adobe.com/Graphs/1.0/">
	<!ENTITY ns_vars "http://ns.adobe.com/Variables/1.0/">
	<!ENTITY ns_imrep "http://ns.adobe.com/ImageReplacement/1.0/">
	<!ENTITY ns_sfw "http://ns.adobe.com/SaveForWeb/1.0/">
	<!ENTITY ns_custom "http://ns.adobe.com/GenericCustomNamespace/1.0/">
	<!ENTITY ns_adobe_xpath "http://ns.adobe.com/XPath/1.0/">
]>
<svg version="1.1" id="icono" xmlns:x="&ns_extend;" xmlns:i="&ns_ai;" xmlns:graph="&ns_graphs;"
	 xmlns="http://www.w3.org/2000/svg" xmlns:xlink="http://www.w3.org/1999/xlink" x="0px" y="0px" viewBox="0 0 50.46 50.46"
	 enable-background="new 0 0 50.46 50.46" xml:space="preserve">
<metadata>
	<sfw  xmlns="&ns_sfw;">
		<slices></slices>
		<sliceSourceBounds  bottomLeftOrigin="true" height="16.274" width="43.541" x="3.479" y="17.113"></sliceSourceBounds>
	</sfw>
</metadata>
<g>
	<path d="M8.299,22.662H5.456l-0.54,1.313H3.459l2.735-6.126h1.403l2.744,6.126H8.857l-0.54-1.313H8.299z M7.849,21.582
		l-0.972-2.348l-0.972,2.348H7.849z"/>
	<path d="M12.599,19.369c0.279-0.117,0.594-0.171,0.963-0.171v1.259c-0.153-0.009-0.252-0.018-0.306-0.018
		c-0.387,0-0.702,0.108-0.918,0.324c-0.225,0.216-0.333,0.549-0.333,0.981v2.222h-1.367v-4.714h1.304v0.621
		c0.162-0.225,0.387-0.396,0.657-0.513L12.599,19.369z"/>
	<path d="M18.942,19.261v3.922c0,0.864-0.225,1.502-0.675,1.925c-0.45,0.423-1.107,0.63-1.97,0.63s-0.891-0.054-1.295-0.162
		c-0.405-0.108-0.747-0.27-1.017-0.486l0.54-0.981c0.198,0.162,0.45,0.297,0.756,0.387c0.306,0.099,0.603,0.144,0.909,0.144
		c0.477,0,0.819-0.108,1.044-0.324c0.225-0.216,0.333-0.54,0.333-0.972v-0.198c-0.36,0.387-0.855,0.585-1.484,0.585
		s-0.828-0.099-1.187-0.288c-0.36-0.189-0.648-0.459-0.855-0.801s-0.315-0.738-0.315-1.187c0-0.45,0.108-0.846,0.315-1.187
		s0.495-0.612,0.855-0.801c0.36-0.189,0.756-0.288,1.187-0.288c0.684,0,1.205,0.225,1.556,0.675v-0.603h1.295L18.942,19.261z
		 M17.25,22.302c0.234-0.216,0.342-0.495,0.342-0.837c0-0.342-0.117-0.621-0.342-0.837c-0.234-0.216-0.531-0.324-0.891-0.324
		c-0.36,0-0.657,0.108-0.891,0.324c-0.234,0.216-0.351,0.495-0.351,0.837c0,0.342,0.117,0.621,0.351,0.837
		c0.234,0.216,0.531,0.324,0.891,0.324C16.72,22.626,17.017,22.518,17.25,22.302z"/>
	<path d="M24.483,22.005h-3.562c0.063,0.288,0.216,0.522,0.459,0.693c0.243,0.171,0.54,0.252,0.891,0.252s0.459-0.036,0.648-0.108
		c0.189-0.072,0.369-0.189,0.531-0.342l0.729,0.792c-0.441,0.504-1.089,0.765-1.943,0.765s-0.999-0.108-1.412-0.315
		c-0.405-0.207-0.72-0.495-0.945-0.864s-0.333-0.783-0.333-1.25s0.108-0.873,0.324-1.25c0.216-0.369,0.522-0.657,0.9-0.864
		c0.378-0.207,0.81-0.315,1.286-0.315s0.882,0.099,1.25,0.297c0.378,0.198,0.666,0.486,0.882,0.855
		c0.216,0.369,0.324,0.801,0.324,1.295s0,0.144-0.027,0.369L24.483,22.005z M21.29,20.485c-0.207,0.171-0.342,0.414-0.387,0.72
		h2.321c-0.045-0.297-0.171-0.54-0.387-0.711s-0.468-0.27-0.774-0.27c-0.306,0-0.567,0.09-0.783,0.261H21.29z"/>
	<path d="M29.368,19.72c0.36,0.351,0.54,0.873,0.54,1.556v2.699h-1.367v-2.483c0-0.378-0.081-0.657-0.243-0.837
		c-0.162-0.18-0.396-0.279-0.711-0.279s-0.621,0.108-0.819,0.324c-0.207,0.216-0.306,0.531-0.306,0.954v2.33h-1.367V19.27h1.304
		v0.549c0.18-0.198,0.405-0.351,0.675-0.459s0.567-0.162,0.882-0.162C28.541,19.198,29.008,19.369,29.368,19.72L29.368,19.72z"/>
	<path d="M33.803,23.741c-0.135,0.099-0.297,0.171-0.495,0.225c-0.198,0.054-0.405,0.072-0.621,0.072
		c-0.558,0-0.99-0.144-1.304-0.432c-0.306-0.288-0.459-0.702-0.459-1.259v-1.934h-0.729V19.36h0.729v-1.143h1.367v1.143h1.169v1.053
		h-1.169v1.916c0,0.198,0.054,0.351,0.153,0.459c0.099,0.108,0.243,0.162,0.432,0.162c0.189,0,0.396-0.054,0.549-0.171l0.369,0.963
		H33.803z"/>
	<path d="M34.307,18.388c-0.162-0.144-0.234-0.324-0.234-0.54s0.081-0.396,0.234-0.54s0.36-0.216,0.612-0.216
		c0.252,0,0.459,0.072,0.612,0.207c0.162,0.144,0.234,0.315,0.234,0.522c0,0.207-0.081,0.414-0.234,0.567
		c-0.162,0.153-0.36,0.225-0.612,0.225c-0.252,0-0.459-0.072-0.612-0.216V18.388z M34.235,19.261h1.367v4.714h-1.367V19.261z"/>
	<path d="M40.802,19.72c0.36,0.351,0.54,0.873,0.54,1.556v2.699h-1.367v-2.483c0-0.378-0.081-0.657-0.243-0.837
		c-0.162-0.18-0.396-0.279-0.711-0.279S38.4,20.485,38.202,20.7c-0.207,0.216-0.306,0.531-0.306,0.954v2.33h-1.367V19.27h1.304
		v0.549c0.18-0.198,0.405-0.351,0.675-0.459c0.27-0.108,0.567-0.162,0.882-0.162C39.975,19.198,40.442,19.369,40.802,19.72
		L40.802,19.72z"/>
	<path d="M45.804,17.768c0.387,0.351,0.585,0.873,0.585,1.574v2.69h-1.277v-0.585c-0.261,0.441-0.738,0.657-1.439,0.657
		s-0.675-0.063-0.945-0.18c-0.27-0.126-0.468-0.288-0.612-0.504s-0.207-0.459-0.207-0.738c0-0.441,0.162-0.783,0.495-1.035
		s0.837-0.378,1.529-0.378h1.089c0-0.297-0.09-0.531-0.27-0.684c-0.18-0.162-0.45-0.243-0.819-0.243
		c-0.369,0-0.495,0.036-0.738,0.117s-0.45,0.189-0.621,0.324l-0.495-0.954c0.261-0.18,0.567-0.324,0.927-0.423
		c0.36-0.099,0.729-0.153,1.107-0.153c0.729,0,1.286,0.171,1.682,0.522L45.804,17.768z M44.635,21.015
		c0.18-0.108,0.306-0.27,0.387-0.477v-0.486h-0.936c-0.558,0-0.837,0.18-0.837,0.549s0.072,0.315,0.207,0.414
		c0.135,0.099,0.324,0.153,0.567,0.153s0.441-0.054,0.621-0.162L44.635,21.015z"/>
	<path d="M8.677,29.625H5.115c0.063,0.288,0.216,0.522,0.459,0.693c0.243,0.171,0.54,0.252,0.891,0.252s0.459-0.036,0.657-0.108
		c0.189-0.072,0.369-0.189,0.531-0.342l0.729,0.792c-0.441,0.504-1.089,0.765-1.943,0.765s-0.999-0.108-1.412-0.315
		c-0.405-0.207-0.72-0.495-0.945-0.864c-0.225-0.369-0.333-0.783-0.333-1.25c0-0.468,0.108-0.873,0.333-1.25
		c0.216-0.369,0.522-0.657,0.9-0.864c0.378-0.207,0.81-0.315,1.286-0.315c0.477,0,0.882,0.099,1.25,0.297
		c0.378,0.198,0.666,0.486,0.882,0.855c0.216,0.369,0.324,0.801,0.324,1.295c0,0.495,0,0.144-0.027,0.369L8.677,29.625z
		 M5.483,28.113c-0.207,0.171-0.342,0.414-0.387,0.72h2.321c-0.045-0.297-0.171-0.54-0.387-0.711
		c-0.216-0.171-0.468-0.27-0.774-0.27c-0.306,0-0.567,0.09-0.783,0.261H5.483z"/>
	<path d="M16.72,27.34c0.351,0.351,0.522,0.864,0.522,1.565v2.699h-1.367v-2.483c0-0.378-0.081-0.657-0.234-0.837
		c-0.153-0.18-0.378-0.279-0.657-0.279s-0.576,0.108-0.765,0.315c-0.189,0.207-0.279,0.513-0.279,0.927v2.366h-1.367V29.13
		c0-0.738-0.297-1.116-0.891-1.116s-0.567,0.108-0.756,0.315c-0.189,0.207-0.279,0.513-0.279,0.927v2.366H9.28v-4.714h1.304v0.54
		c0.171-0.198,0.387-0.351,0.648-0.459c0.252-0.108,0.531-0.162,0.837-0.162s0.63,0.063,0.9,0.198
		c0.27,0.135,0.486,0.324,0.648,0.576c0.189-0.243,0.432-0.432,0.729-0.567c0.297-0.135,0.621-0.198,0.972-0.198
		c0.594,0,1.062,0.171,1.403,0.522V27.34z"/>
	<path d="M22.72,29.625h-3.562c0.063,0.288,0.216,0.522,0.459,0.693c0.243,0.171,0.54,0.252,0.891,0.252
		c0.351,0,0.459-0.036,0.657-0.108c0.189-0.072,0.369-0.189,0.531-0.342l0.729,0.792c-0.441,0.504-1.089,0.765-1.943,0.765
		s-0.999-0.108-1.412-0.315c-0.405-0.207-0.72-0.495-0.945-0.864c-0.225-0.369-0.333-0.783-0.333-1.25
		c0-0.468,0.108-0.873,0.333-1.25c0.216-0.369,0.522-0.657,0.9-0.864c0.378-0.207,0.81-0.315,1.286-0.315s0.882,0.099,1.25,0.297
		c0.378,0.198,0.666,0.486,0.882,0.855c0.216,0.369,0.324,0.801,0.324,1.295c0,0.495,0,0.144-0.027,0.369L22.72,29.625z
		 M19.526,28.113c-0.207,0.171-0.342,0.414-0.387,0.72h2.321c-0.045-0.297-0.171-0.54-0.387-0.711
		c-0.216-0.171-0.468-0.27-0.774-0.27c-0.306,0-0.567,0.09-0.783,0.261H19.526z"/>
	<path d="M25.293,26.998c0.279-0.117,0.594-0.171,0.963-0.171v1.259c-0.153-0.009-0.252-0.018-0.306-0.018
		c-0.387,0-0.702,0.108-0.918,0.324c-0.225,0.216-0.333,0.549-0.333,0.981v2.222h-1.367v-4.714h1.304v0.621
		c0.162-0.225,0.387-0.396,0.657-0.513L25.293,26.998z"/>
	<path d="M31.635,26.89v3.922c0,0.864-0.225,1.502-0.675,1.925c-0.45,0.423-1.107,0.63-1.97,0.63s-0.891-0.054-1.295-0.162
		c-0.405-0.108-0.747-0.27-1.017-0.486l0.54-0.981c0.198,0.162,0.45,0.297,0.756,0.387c0.306,0.099,0.603,0.144,0.909,0.144
		c0.477,0,0.819-0.108,1.044-0.324c0.225-0.216,0.333-0.54,0.333-0.972v-0.198c-0.36,0.387-0.855,0.585-1.484,0.585
		s-0.828-0.099-1.187-0.288c-0.36-0.189-0.648-0.459-0.855-0.801c-0.207-0.342-0.315-0.738-0.315-1.187
		c0-0.45,0.108-0.846,0.315-1.187c0.207-0.342,0.495-0.612,0.855-0.801c0.36-0.189,0.756-0.288,1.187-0.288
		c0.684,0,1.205,0.225,1.556,0.675v-0.603h1.295L31.635,26.89z M29.944,29.93c0.234-0.216,0.342-0.495,0.342-0.837
		s-0.117-0.621-0.342-0.837c-0.225-0.216-0.531-0.324-0.891-0.324c-0.36,0-0.657,0.108-0.891,0.324
		c-0.234,0.216-0.351,0.495-0.351,0.837s0.117,0.621,0.351,0.837c0.234,0.216,0.531,0.324,0.891,0.324
		C29.413,30.254,29.71,30.146,29.944,29.93z"/>
	<path d="M37.177,29.625h-3.562c0.063,0.288,0.216,0.522,0.459,0.693c0.243,0.171,0.54,0.252,0.891,0.252s0.459-0.036,0.657-0.108
		c0.189-0.072,0.369-0.189,0.531-0.342l0.729,0.792c-0.441,0.504-1.089,0.765-1.943,0.765s-0.999-0.108-1.412-0.315
		c-0.405-0.207-0.72-0.495-0.945-0.864c-0.225-0.369-0.333-0.783-0.333-1.25c0-0.468,0.108-0.873,0.333-1.25
		c0.216-0.369,0.522-0.657,0.9-0.864c0.378-0.207,0.81-0.315,1.286-0.315s0.882,0.099,1.25,0.297
		c0.378,0.198,0.666,0.486,0.882,0.855c0.216,0.369,0.324,0.801,0.324,1.295c0,0.495,0,0.144-0.027,0.369L37.177,29.625z
		 M33.983,28.113c-0.207,0.171-0.342,0.414-0.387,0.72h2.321c-0.045-0.297-0.171-0.54-0.387-0.711
		c-0.216-0.171-0.468-0.27-0.774-0.27c-0.306,0-0.567,0.09-0.783,0.261H33.983z"/>
	<path d="M45.678,28.59l-1.349-3.239l-1.349,3.239h-1.322l1.988-4.597h1.376l1.979,4.597H45.678L45.678,28.59z"/>
</g>
</svg>
