<svg id="Layer_1" data-name="Layer 1" xmlns="http://www.w3.org/2000/svg" viewBox="0 0 50.46 50.46"><defs><style>.cls-1{fill:#65b4e1;}</style></defs><title>arma imp</title><path class="cls-1" d="M13.54,38.72v0h8.33v0a4.42,4.42,0,0,0-4.17-4.64A4.42,4.42,0,0,0,13.54,38.72Z"/><ellipse class="cls-1" cx="17.71" cy="30.91" rx="2.43" ry="2.45"/><path class="cls-1" d="M10.74,42.06A1.33,1.33,0,0,1,9.4,40.72V9.25a1.33,1.33,0,0,1,1.33-1.33H26.24A2.9,2.9,0,0,1,27.7,6.15h-17A3.11,3.11,0,0,0,7.63,9.25V40.72a3.11,3.11,0,0,0,3.11,3.11H30.41a6.64,6.64,0,0,1-1.28-1.78Z"/><path class="cls-1" d="M42.34,34.55,41.25,33.5,40.78,33l-.49.44-.55.49V12.61a6.79,6.79,0,0,1-1.78,1v19.6a6.69,6.69,0,0,1,1.5,1l-.24.21-.52.46-.31.28A5.1,5.1,0,0,0,35,33.93a5.19,5.19,0,1,0,5.19,5.19A5.09,5.09,0,0,0,40.11,38l.29-.33L41,37l1.33-1.49.46-.51Zm-1.83,2-.63.7L35,42.67l-3.83-4.76,1.35-1.19L35,39.15l4.22-3.74.52-.46L40.76,34l1.09,1.05Z"/><path class="cls-1" d="M33.91,14l-1.23-1.29a.58.58,0,0,1-.16-.41.57.57,0,0,1,.18-.4c1.83-1.74,3.71-3.52,7.47-3-2.34-1.86-5.58-3-9.78.63a.57.57,0,0,1-.79,0L28.37,8.21,27.07,15Z"/><path class="cls-1" d="M13.92,15.6H21.5a.81.81,0,0,0,0-1.62H13.92a.81.81,0,1,0,0,1.62Z"/><path class="cls-1" d="M30,18.56H13.92a.81.81,0,1,0,0,1.62H30a.81.81,0,0,0,0-1.62Z"/><path class="cls-1" d="M30.84,24a.81.81,0,0,0-.81-.81H13.92a.81.81,0,1,0,0,1.62H30A.81.81,0,0,0,30.84,24Z"/></svg>