<svg id="Layer_1" data-name="Layer 1" xmlns="http://www.w3.org/2000/svg" viewBox="0 0 50.46 50.46"><defs><style>.cls-1{fill:#12b5e1;}</style></defs><title>arma antigua</title><path class="cls-1" d="M46.14,22.13a.26.26,0,0,0-.29.25h0l-2.39-.16v-.38a.29.29,0,0,0-.3-.3.3.3,0,0,0-.3.3v.34c-2.93-.2-5.86-.41-8.79-.58l-5.88-.33c0,.28,0,.58,0,.91a4.26,4.26,0,0,1-1.59,3.31c2.44-.12,4.52-.27,7.42-.37q5.91-.24,11.8-.57h0a.27.27,0,0,0,.27.26h0c.6,0,.94-.45,1-1.23S46.81,22.18,46.14,22.13Z"/><path class="cls-1" d="M27.07,19.71l-7.18.45a3.83,3.83,0,0,0,.41-2.06c-.08-1.43-.74-2.56-1.5-2.56l.26,4.68-2.66.16c0-.2-.18-.4-.61-.53-.74-.24-1.1-.29-1.18-.6A9.13,9.13,0,0,0,17,17.46a5.09,5.09,0,0,0-3.18-1,4.23,4.23,0,0,0-.74.07.18.18,0,0,0,.1-.2l-.1-.29a.15.15,0,0,0-.17-.11.89.89,0,0,0,.05-.52c-.08-.24-.43-.35-.78-.23s-.58.4-.5.65a.89.89,0,0,0,.35.39.17.17,0,0,0-.08.18l.1.3a.14.14,0,0,0,.15.1A1.36,1.36,0,0,0,11.28,18v0a.83.83,0,0,0,0,.22c0,.05,0,.09,0,.14l.07.13a.33.33,0,0,0,.06.1,1.62,1.62,0,0,0,.76.6c.83.34,1.31.68,1.15,1.38-.22,0-.45,0-.71,0s-.35,0-.53.06H12a11.26,11.26,0,0,0-3.13.88A9.89,9.89,0,0,0,5.52,24a8.39,8.39,0,0,0-2,4,8,8,0,0,0-.12,2.29,6.34,6.34,0,0,0,.71,2.5,4.76,4.76,0,0,0,2.6,2.33A4.74,4.74,0,0,0,10,35a2.6,2.6,0,0,0-.79-5h0a2.85,2.85,0,0,1,0-.91,4,4,0,0,1,2.08-2.53,6,6,0,0,1,1.14-.47s0,.06-.06.11a.41.41,0,0,0,.25.51.39.39,0,0,0,.43-.13A3,3,0,0,0,16.17,29a3.07,3.07,0,0,0,3-2.67.42.42,0,0,0,.44-.16.46.46,0,0,0,0-.48l3.73-.06a3.63,3.63,0,0,0,3.77-3.42C27.14,21.27,27.07,19.71,27.07,19.71Zm-8.69,6.48a2.15,2.15,0,0,1-2.23,2,2.18,2.18,0,0,1-2.32-1.88,1.89,1.89,0,0,0-.11-.49c.5,0,1.16,0,1.79-.07a1.86,1.86,0,0,0,.07,1.81.37.37,0,0,0,.36.19.4.4,0,0,0,.33-.6,1.16,1.16,0,0,1,.21-1.42l2,0A1.36,1.36,0,0,0,18.38,26.19Z"/></svg>