<svg id="Layer_1" data-name="Layer 1" xmlns="http://www.w3.org/2000/svg" viewBox="0 0 50.46 50.46"><defs><style>.cls-1{fill:#65b4e1;}</style></defs><title>arma portacion</title><path class="cls-1" d="M6.2,29.74s0,0,0,0H16.77s0,0,0,0a5.59,5.59,0,0,0-5.28-5.86A5.59,5.59,0,0,0,6.2,29.74Z"/><circle class="cls-1" cx="11.49" cy="19.89" r="3.09"/><path class="cls-1" d="M20.62,20.29h7.59a.81.81,0,1,0,0-1.62H20.62a.81.81,0,0,0,0,1.62Z"/><path class="cls-1" d="M20.62,24.87H36.73a.81.81,0,0,0,0-1.62H20.62a.81.81,0,0,0,0,1.62Z"/><path class="cls-1" d="M20.62,29.46H36.73a.81.81,0,0,0,0-1.62H20.62a.81.81,0,0,0,0,1.62Z"/><path class="cls-1" d="M48.46,31.22l-1.09-1.05-.47-.46-.49.44-.55.49v-18a3.11,3.11,0,0,0-3.11-3.11H4.61a3.11,3.11,0,0,0-3.11,3.11V37.39A3.11,3.11,0,0,0,4.61,40.5H36.53a6.64,6.64,0,0,1-1.28-1.78H4.61a1.33,1.33,0,0,1-1.33-1.33V12.59a1.33,1.33,0,0,1,1.33-1.33H42.75a1.33,1.33,0,0,1,1.33,1.33V29.86a6.69,6.69,0,0,1,1.5,1l-.24.21-.52.46-.31.28a5.19,5.19,0,0,0-7.63,6.9A5.22,5.22,0,0,0,39,40.5a5.15,5.15,0,0,0,4.57-.11,5.23,5.23,0,0,0,2.16-2.13,5.16,5.16,0,0,0,.63-2.47,5.08,5.08,0,0,0-.12-1.07l.29-.33.63-.7,1.33-1.49.46-.51Zm-1.83,2-.63.7-4.87,5.42-3.83-4.76,1.35-1.19,2.42,2.44h0l4.22-3.74.52-.46,1.07-.95L48,31.73Z"/></svg>