<svg id="Layer_1" data-name="Layer 1" xmlns="http://www.w3.org/2000/svg" viewBox="0 0 50.46 50.46"><defs><style>.cls-1{fill:#12b5e1;}</style></defs><title>armeria</title><polygon class="cls-1" points="13.25 40.03 14.29 40.03 13.77 38.76 13.25 40.03"/><path class="cls-1" d="M18.16,38.53h-.85v1.12h.86c.42,0,.66-.22.66-.55h0C18.83,38.72,18.58,38.53,18.16,38.53Z"/><path class="cls-1" d="M45.33,20.05a1,1,0,0,0,0-.16L40.92,8.55A.89.89,0,0,0,40.08,8H11.85a.89.89,0,0,0-.8.49L5.19,19.8a.06.06,0,0,1,0,0,.85.85,0,0,0,0,.17.53.53,0,0,0,0,.17s0,0,0,0A6.12,6.12,0,0,0,9,25.65V45.59a.9.9,0,0,0,.9.9H40.56a.9.9,0,0,0,.9-.9V25.65a6.1,6.1,0,0,0,3.9-5.4h0v0A1,1,0,0,0,45.33,20.05ZM39.47,9.77l3.68,9.55H32.45L31.37,9.77Zm-9.91,0,1.07,9.55H20l2.27-9.55Zm1.06,11.35c-.53,2-2.74,3.44-5.39,3.44s-4.86-1.48-5.39-3.44ZM12.4,9.77h8l-2.27,9.55H7.47ZM7,21.12H17.8c-.53,2-2.75,3.44-5.39,3.44S7.54,23.08,7,21.12ZM15,41.66l-.36-.87H12.94l-.36.87h-.87l1.67-3.93h.79l1.68,3.93Zm3.87,0L18,40.41h-.67v1.25h-.86v-3.9h1.78a1.59,1.59,0,0,1,1.14.39,1.27,1.27,0,0,1,.33.9h0a1.22,1.22,0,0,1-.83,1.21l.95,1.39Zm5.56,0h-.86V39.11l-1.09,1.67h0l-1.08-1.65v2.53h-.84v-3.9h.92l1,1.65,1-1.65h.93Zm3.9,0h-3v-3.9h3v.76H26.17v.79H28v.77H26.17v.82h2.11Zm3.14,0-.84-1.25h-.67v1.25h-.86v-3.9h1.78a1.59,1.59,0,0,1,1.14.39,1.27,1.27,0,0,1,.33.9h0a1.22,1.22,0,0,1-.83,1.21l1,1.39Zm2.55,0h-.85v-3.9H34Zm3.88,0-.35-.87H35.85l-.36.87h-.88l1.68-3.93h.79l1.67,3.93Zm1.81-7.91H10.8V26.21a9.35,9.35,0,0,0,1.61.15,7.63,7.63,0,0,0,6.41-3.19,7.61,7.61,0,0,0,6.41,3.19,7.61,7.61,0,0,0,6.41-3.19,7.63,7.63,0,0,0,6.41,3.19,9.35,9.35,0,0,0,1.61-.15Zm-1.61-9.19c-2.64,0-4.86-1.48-5.39-3.44H43.45C42.92,23.08,40.7,24.56,38.05,24.56Z"/><polygon class="cls-1" points="36.15 40.03 37.19 40.03 36.67 38.76 36.15 40.03"/><path class="cls-1" d="M30.76,38.53h-.85v1.12h.86c.42,0,.66-.22.66-.55h0C31.43,38.72,31.18,38.53,30.76,38.53Z"/></svg>