<?xml version="1.0" encoding="utf-8"?>
<!-- Generator: Adobe Illustrator 24.2.1, SVG Export Plug-In . SVG Version: 6.00 Build 0)  -->
<svg version="1.1" id="Layer_1" xmlns="http://www.w3.org/2000/svg" xmlns:xlink="http://www.w3.org/1999/xlink" x="0px" y="0px"
	 viewBox="0 0 50.5 50.5" style="enable-background:new 0 0 50.5 50.5;" xml:space="preserve">
<path d="M28.5,20.7c0,3.1-1.5,5.7-2.8,8c-1.1,1.9-2.1,3.6-2.1,5.3c0.1,4.7-3.7,8.6-8.5,8.6c-4.8,0-8.6-3.9-8.6-8.6c0-0.5,0.4-1,1-1
	s1,0.4,1,1c0,3.7,3,6.7,6.7,6.7s6.7-3,6.7-6.7c0-2.2,1.1-4.2,2.3-6.3c1.3-2.2,2.5-4.4,2.5-7c0-5-4.2-9.2-9.2-9.2s-9.2,4.1-9.2,9.2
	c0,0.5-0.4,1-1,1c-0.6,0-1-0.4-1-1c0-6.1,5-11.1,11.1-11.1C23.4,9.6,28.5,14.7,28.5,20.7z M10,30.9v2.9c0,0.6,0.5,1,1,1s1-0.4,1-1
	v-2.6c1.7-2.4,1.7-6,0-8.4v-2.6c0-0.6-0.4-1-1-1s-1,0.5-1,1v2.9c0,0.2,0.1,0.4,0.2,0.6c1.4,1.7,1.4,4.8,0,6.6
	C10.1,30.5,10,30.7,10,30.9z M18.3,32.2c0,0.6,0.5,1,1,1s0.9-0.4,1-1.1c0-2,1.1-3.7,2.2-5.6s2.3-3.8,2.3-6.1c0-4.6-3-7.6-7.6-7.6
	c-0.6,0-1,0.4-1,1c0,0.6,0.5,1,1,1c3.6,0,5.7,2.1,5.7,5.7c0,1.7-1,3.3-2.1,5.1C19.6,27.6,18.3,29.7,18.3,32.2z M42.7,13.7
	c-0.2-0.5-0.7-0.7-1.2-0.5s-0.7,0.7-0.5,1.2c1.1,3,1.7,6.1,1.7,9.4s-0.6,6.4-1.8,9.4c-0.2,0.5,0,1,0.5,1.2c0.2,0.1,0.3,0.1,0.4,0.1
	c0.4,0,0.7-0.2,0.9-0.6c1.2-3.2,1.9-6.6,1.9-10.1S44,16.9,42.7,13.7z M32.1,18.7c-0.5,0.2-0.8,0.7-0.7,1.2c0.3,1.3,0.5,2.6,0.5,3.9
	c0,1.4-0.2,2.7-0.5,3.9c-0.1,0.5,0.2,1.1,0.7,1.2c0.1,0,0.2,0,0.3,0c0.4,0,0.8-0.3,0.9-0.7c0.4-1.4,0.6-2.9,0.6-4.4s-0.2-3-0.6-4.4
	C33.1,18.9,32.6,18.6,32.1,18.7z M36.8,16c-0.5,0.2-0.8,0.7-0.6,1.2c0.7,2.1,1.1,4.3,1.1,6.6c0,2.2-0.4,4.5-1.1,6.6
	c-0.2,0.5,0.1,1,0.6,1.2c0.1,0.1,0.2,0.1,0.3,0.1c0.4,0,0.8-0.2,0.9-0.6c0.8-2.4,1.2-4.8,1.2-7.3c0-2.4-0.4-4.9-1.2-7.2
	C37.8,16.1,37.3,15.8,36.8,16z"/>
</svg>
