<?xml version="1.0" encoding="utf-8"?>
<!-- Generator: Adobe Illustrator 24.2.1, SVG Export Plug-In . SVG Version: 6.00 Build 0)  -->
<svg version="1.1" id="Layer_1" xmlns="http://www.w3.org/2000/svg" xmlns:xlink="http://www.w3.org/1999/xlink" x="0px" y="0px"
	 viewBox="0 0 50.5 50.5" style="enable-background:new 0 0 50.5 50.5;" xml:space="preserve">
<path d="M42.3,22.9v-0.7c0-9.3-7.7-16.9-17.2-16.9C15.7,5.3,8,12.9,8,22.2v0.7c-3,0.2-5.3,2.7-5.3,5.7v8.6c0,3.1,2.6,5.7,5.7,5.7
	h5.4c1.1,0,1.9-0.9,1.9-1.9V24.8c0-1.1-0.9-1.9-1.9-1.9h-1v-0.7c0-6.8,5.6-12.2,12.4-12.2s12.4,5.5,12.4,12.2v0.7h-1
	c-1.1,0-1.9,0.9-1.9,1.9V41c0,1.1,0.9,1.9,1.9,1.9H42c3.1,0,5.7-2.6,5.7-5.7v-8.6C47.6,25.5,45.3,23.1,42.3,22.9z M10.2,40.9H8.3
	c-2.1,0-3.8-1.7-3.8-3.8v-8.6c0-2.1,1.7-3.8,3.8-3.8h1.9V40.9z M13.7,24.8V41h-1.9V24.8H13.7z M38.5,40.9h-1.9V24.7h1.9V40.9z
	 M25.1,8.3c-7.7,0-14,6.2-14,13.8v0.7H9.6v-0.7c0-8.5,7-15.3,15.6-15.3s15.6,6.9,15.6,15.3v0.7h-1.5v-0.7
	C39.1,14.5,32.9,8.3,25.1,8.3z M45.7,37.1c0,2.1-1.7,3.8-3.8,3.8H40V24.8h1.9c2.1,0,3.8,1.7,3.8,3.8V37.1z"/>
</svg>
