<svg id="Layer_1" data-name="Layer 1" xmlns="http://www.w3.org/2000/svg" viewBox="0 0 50.46 50.46"><defs><style>.cls-1{fill:#a7a9ac;}</style></defs><title>automor-negativo</title><path class="cls-1" d="M31.81,28a1.34,1.34,0,0,0-1,.42,1.38,1.38,0,0,0,0,2,1.39,1.39,0,0,0,2,0h0a1.38,1.38,0,0,0,0-2A1.33,1.33,0,0,0,31.81,28Z"/><path class="cls-1" d="M19,28a1.34,1.34,0,0,0-1,.42,1.38,1.38,0,0,0,0,2,1.39,1.39,0,0,0,2,0h0a1.35,1.35,0,0,0,.42-1A1.43,1.43,0,0,0,19,28Z"/><path class="cls-1" d="M21.27,23.59l5.8,0V19.64C24.64,20,23.06,21.54,21.27,23.59Z"/><path class="cls-1" d="M37.91,7.77H12.55A4.52,4.52,0,0,0,8,12.28V36.23a6.47,6.47,0,0,0,6.46,6.46H36a6.47,6.47,0,0,0,6.46-6.46V12.28A4.52,4.52,0,0,0,37.91,7.77Zm-1,22.64a.42.42,0,0,1-.31.12l-.85,0a3.88,3.88,0,0,1-1.06,1.82,4.09,4.09,0,0,1-6.63-1.22H22.69A4.09,4.09,0,0,1,19,33.52a4,4,0,0,1-2.9-1.2,3.92,3.92,0,0,1-.84-1.22h-.9a.42.42,0,0,1-.39-.26,6.6,6.6,0,0,1-.09-4.79,5.44,5.44,0,0,1,3.42-2.87,7.18,7.18,0,0,0,2.56-2.07c1.65-1.74,3.69-3.9,7.66-4.15a8.72,8.72,0,0,1,6.77,2.09,9.46,9.46,0,0,1,2.69,6.36v.08c.11,1.74.11,4.59.11,4.62A.43.43,0,0,1,36.92,30.41Z"/><path class="cls-1" d="M29,19.63v3.9l4.75,0A5.16,5.16,0,0,0,29,19.63Z"/></svg>