<svg id="Layer_1" data-name="Layer 1" xmlns="http://www.w3.org/2000/svg" viewBox="0 0 50.46 50.46"><defs><style>.cls-1{fill:#a7a9ac;}</style></defs><title>automotor</title><path class="cls-1" d="M37.91,7.77H12.55A4.52,4.52,0,0,0,8,12.28V36.23a6.47,6.47,0,0,0,6.46,6.46H36a6.47,6.47,0,0,0,6.46-6.46V12.28A4.52,4.52,0,0,0,37.91,7.77Zm2.83,28.46A4.79,4.79,0,0,1,36,41H14.5a4.79,4.79,0,0,1-4.78-4.78V12.28a2.83,2.83,0,0,1,2.83-2.83H37.91a2.83,2.83,0,0,1,2.83,2.83Z"/><path class="cls-1" d="M36.94,25.41a9.46,9.46,0,0,0-2.69-6.36A8.72,8.72,0,0,0,27.48,17c-4,.25-6,2.41-7.66,4.15a7.18,7.18,0,0,1-2.56,2.07,5.44,5.44,0,0,0-3.42,2.87,6.6,6.6,0,0,0,.09,4.79.42.42,0,0,0,.39.26h.9a3.92,3.92,0,0,0,.84,1.22,4.09,4.09,0,0,0,5.79,0,3.92,3.92,0,0,0,.84-1.22h5.38a3.92,3.92,0,0,0,.84,1.22,4.09,4.09,0,0,0,5.79,0,3.88,3.88,0,0,0,1.06-1.82l.85,0a.42.42,0,0,0,.31-.12.43.43,0,0,0,.13-.3s0-2.88-.11-4.62Zm-17,5h0a1.39,1.39,0,0,1-2,0,1.38,1.38,0,0,1,0-2,1.42,1.42,0,0,1,2.41,1A1.35,1.35,0,0,1,20,30.42Zm7.12-6.87-5.8,0c1.79-2.05,3.37-3.62,5.8-3.95Zm5.73,6.87h0a1.39,1.39,0,0,1-2,0,1.38,1.38,0,0,1,0-2,1.39,1.39,0,0,1,2,0,1.38,1.38,0,0,1,0,2ZM29,23.53v-3.9a5.16,5.16,0,0,1,4.75,3.87Z"/></svg>