<svg id="Layer_1" data-name="Layer 1" xmlns="http://www.w3.org/2000/svg" viewBox="0 0 50.46 50.46"><defs><style>.cls-1{fill:#65b4e1;}</style></defs><title>auto informe</title><path class="cls-1" d="M33.29,30H17.17a.81.81,0,0,0,0,1.62H33.29a.81.81,0,1,0,0-1.62Z"/><path class="cls-1" d="M33.29,34.63H17.17a.81.81,0,0,0,0,1.62H33.29a.81.81,0,1,0,0-1.62Z"/><path class="cls-1" d="M41,13.55v0L34.21,6.34l0,0H13.52a4.11,4.11,0,0,0-4.1,4.1V40.06a4.11,4.11,0,0,0,4.1,4.1H36.94a4.1,4.1,0,0,0,4.1-4.1Zm-2.87-.37H34.94l0-3.45Zm1.29,26.87a2.44,2.44,0,0,1-2.43,2.43H13.52a2.44,2.44,0,0,1-2.44-2.43V10.4A2.44,2.44,0,0,1,13.52,8H33l0,6.17a1,1,0,0,0,.94.94h0c.38,0,3,0,5.35,0Z"/><path class="cls-1" d="M18,24.68a2.67,2.67,0,0,0,.64,1,2.73,2.73,0,0,0,3.86,0,2.67,2.67,0,0,0,.64-1h4.43a2.67,2.67,0,0,0,.64,1,2.73,2.73,0,0,0,4.62-1.46l.9,0s0-2.12-.08-3.43v-.07a5.93,5.93,0,0,0-6.71-6c-4.45.28-5.5,3.92-7.52,4.61-4,1.37-2.29,5.28-2.29,5.28Zm13.1,0a1.34,1.34,0,1,1,.41-1A1.31,1.31,0,0,1,31.09,24.71Zm-3.37-8.59A4.27,4.27,0,0,1,32,19.65l-4.27,0Zm-.8,0v3.57l-5.33,0C23.23,17.82,24.58,16.28,26.92,16.12ZM19.6,22.79a1.34,1.34,0,1,1-.41,1A1.31,1.31,0,0,1,19.6,22.79Z"/></svg>