<?xml version="1.0" encoding="utf-8"?>
<!-- Generator: Adobe Illustrator 24.0.1, SVG Export Plug-In . SVG Version: 6.00 Build 0)  -->
<!DOCTYPE svg PUBLIC "-//W3C//DTD SVG 1.1//EN" "http://www.w3.org/Graphics/SVG/1.1/DTD/svg11.dtd" [
	<!ENTITY ns_extend "http://ns.adobe.com/Extensibility/1.0/">
	<!ENTITY ns_ai "http://ns.adobe.com/AdobeIllustrator/10.0/">
	<!ENTITY ns_graphs "http://ns.adobe.com/Graphs/1.0/">
	<!ENTITY ns_vars "http://ns.adobe.com/Variables/1.0/">
	<!ENTITY ns_imrep "http://ns.adobe.com/ImageReplacement/1.0/">
	<!ENTITY ns_sfw "http://ns.adobe.com/SaveForWeb/1.0/">
	<!ENTITY ns_custom "http://ns.adobe.com/GenericCustomNamespace/1.0/">
	<!ENTITY ns_adobe_xpath "http://ns.adobe.com/XPath/1.0/">
]>
<svg version="1.1" id="Layer_1" xmlns:x="&ns_extend;" xmlns:i="&ns_ai;" xmlns:graph="&ns_graphs;"
	 xmlns="http://www.w3.org/2000/svg" xmlns:xlink="http://www.w3.org/1999/xlink" x="0px" y="0px" viewBox="0 0 50.46 50.46"
	 enable-background="new 0 0 50.46 50.46" xml:space="preserve">
<metadata>
	<sfw  xmlns="&ns_sfw;">
		<slices></slices>
		<sliceSourceBounds  bottomLeftOrigin="true" height="17.113" width="45.178" x="660.411" y="269.944"></sliceSourceBounds>
	</sfw>
</metadata>
<g>
	<path d="M40.598,26.264c-2.078,0-3.757,1.684-3.757,3.761c0,2.078,1.68,3.761,3.757,3.761s3.761-1.684,3.761-3.761
		C44.359,27.948,42.675,26.264,40.598,26.264z M40.598,31.946c-1.06,0-1.921-0.861-1.921-1.921c0-1.064,0.861-1.92,1.921-1.92
		c1.06,0,1.923,0.861,1.923,1.92C42.52,31.087,41.658,31.946,40.598,31.946z"/>
	<path d="M46.64,26.293c-0.346-0.985-0.618-2.049-1.053-2.394c-2.352-0.989-6.306-1.913-9.717-2.314
		c-2.568-1.709-3.657-2.904-6.691-3.902c-1.066-0.349-2.297-0.633-3.968-0.825c-1-0.116-6.145-0.436-9.882,0.193
		c-2.244,0.372-4.211,1.819-8.088,3.755l-3.129,0.452c-0.092,0.102-0.578,0.429-0.606,0.742c-0.035,0.378,0.084,3.817,0.047,3.817
		l-0.328-0.002c-0.256,0.029-0.583,0.398-0.583,0.641v2.262c0,0.239,1.204,2.27,1.47,2.27l1.197-0.004
		c-0.058-0.306-0.09-0.626-0.09-0.951c0-2.752,2.232-4.981,4.982-4.981c2.751,0,4.983,2.234,4.983,4.981
		c0,0.316-0.029,0.628-0.088,0.928l20.629-0.054c-0.048-0.283-0.078-0.576-0.078-0.873c0-2.752,2.233-4.981,4.984-4.981
		s4.98,2.234,4.98,4.981c0,0.289-0.025,0.574-0.071,0.848l1.567-0.004c0.212-0.392,0.624-0.871,0.712-1.456v-2.337
		C47.819,26.712,46.902,26.398,46.64,26.293z M14.234,22.166l0.01-2.1l0.959-1.77c1.902-0.321,4.756-0.467,6.755-0.457l0.433,4.703
		C19.943,22.439,16.692,22.322,14.234,22.166z M33.574,22.906l-9.387-0.274l-0.792-4.784c1.087,0.035,2.199,0.191,3.194,0.296
		c0.544,0.082,1.701,0.358,2.222,0.52c1.445,0.45,2.572,1.101,3.807,2.003c0.176,0.131,0.32,0.233,0.436,0.315
		c0.147,0.104,0.637,0.524,0.618,0.759L33.574,22.906z"/>
	<path d="M10.151,26.264c-2.078,0-3.762,1.684-3.762,3.761c0,2.078,1.684,3.761,3.762,3.761c2.073,0,3.759-1.684,3.759-3.761
		C13.91,27.948,12.227,26.264,10.151,26.264z M10.151,31.946c-1.06,0-1.922-0.861-1.922-1.921c0-1.06,0.86-1.92,1.922-1.92
		c1.061,0,1.922,0.861,1.922,1.92C12.073,31.087,11.21,31.946,10.151,31.946z"/>
</g>
</svg>
