<svg id="Layer_1" data-name="Layer 1" xmlns="http://www.w3.org/2000/svg" viewBox="0 0 50.46 50.46"><defs><style>.cls-1{fill:#12b5e1;}</style></defs><title>aviacion</title><path class="cls-1" d="M26.4,24.48h0a.68.68,0,1,0,0,1.35h.08a.71.71,0,0,0,.68-.68A.72.72,0,0,0,26.4,24.48Z"/><path class="cls-1" d="M50,16.38a.69.69,0,0,0,0-.67.69.69,0,0,0-.58-.31l-1.31,0a11.76,11.76,0,0,0-4.77,1.13l-.07,0-.21.09L32.54,21.79H13A8.14,8.14,0,0,0,5.44,26C.79,27.09.39,28.52.39,29a1.65,1.65,0,0,0,.49,1.2c.77.77,2.44,1.12,5.41,1.12H17.91a3.22,3.22,0,0,0,2.59,1.35,1.2,1.2,0,0,0-.33.82c0,.91,1,1.57,2.45,1.6l4,0c2.44,0,4.9,0,6.27,0s2.4-.69,2.4-1.59a1.23,1.23,0,0,0-.32-.81,3.3,3.3,0,0,0,2.85-1.36h5.37a2.65,2.65,0,0,0,2.65-2.65V25.16a.71.71,0,0,0,0-.26l0,0Zm-6,1.35a10.53,10.53,0,0,1,4.09-.94h.2L47.1,19.21H43.28ZM13,23.15h2.11l-.79,1.62a65.11,65.11,0,0,0-7,.81A6.87,6.87,0,0,1,13,23.15Zm10.08,11h-.45c-.93,0-1.56-.39-1.56-.69s.65-.69,1.6-.7h.41Zm8.29,0-4.73,0H24.11V32.73H27l4.38,0Zm1.53,0h-.52V32.74h.48c.92,0,1.54.38,1.54.69S33.8,34.11,32.91,34.12Zm1.91-2.71c-2,0-5.42,0-8.42,0l-5.38,0c-1.24,0-2.09-.52-2.09-.93s.88-.93,2.15-.94l5.8,0c2.84,0,5.85,0,7.89,0,1.23,0,2.06.52,2.06.93S36,31.4,34.82,31.41Zm9.69-2.79a1.29,1.29,0,0,1-1.29,1.29H37.93c-.37-.92-1.57-1.55-3.15-1.57-2,0-4.91,0-7.9,0l-5.81,0c-1.62,0-2.86.65-3.24,1.58H6.29c-3.36,0-4.23-.5-4.44-.72a.31.31,0,0,1-.1-.16c.21-.29,2-2.21,13-2.93h0c2.57-.16,5.65-.26,9.32-.26a.68.68,0,0,0,0-1.36c-3.13,0-5.84.07-8.2.2l.74-1.53h20a.68.68,0,0,0,0-1.36h-1L42,18.67l-2.79,5.79s0,0,0,0h-6.9a.68.68,0,0,0,0,1.36H44.51Zm.11-4.34a.65.65,0,0,0,0,.2H40.74l.64-1.33h3.79ZM42,21.79l.59-1.22h3.81l-.59,1.22Z"/><path class="cls-1" d="M24.31,16.73h7.4a.61.61,0,0,0,.61-.61.61.61,0,0,0-.61-.62h-7.4a.62.62,0,0,0-.62.62A.61.61,0,0,0,24.31,16.73Z"/><path class="cls-1" d="M20.61,19.82H28a.62.62,0,0,0,0-1.24h-7.4a.62.62,0,0,0,0,1.24Z"/></svg>