<svg id="Layer_1" data-name="Layer 1" xmlns="http://www.w3.org/2000/svg" viewBox="0 0 50.46 50.46"><defs><style>.cls-1{fill:#65b4e1;}</style></defs><title>avion</title><path class="cls-1" d="M18.37,24.29S17,23.7,13.91,22.53a.9.9,0,0,1-.49-1.24A5.1,5.1,0,0,1,14.86,20c.37-.22.85-.33,2.84-.4.49,0,7.89-.5,7.89-.5l-2.75,2s-4.58.29-5.08.3c-.77,0-1.25.06-1.55.1,1.86.72,3.9,1.55,3.9,1.55Z"/><path class="cls-1" d="M25.22,38.58a.9.9,0,0,1-.9-.86c0-.16-.1-7.74-.12-10.06a.9.9,0,0,1,.89-.91h0a.9.9,0,0,1,.9.89c0,1.94.07,6.11.1,8.41a4.17,4.17,0,0,0,.69-.75l5-12.24a.9.9,0,1,1,1.67.68l-5,12.32-.06.12a6,6,0,0,1-2.16,2h0l-.56.31A.9.9,0,0,1,25.22,38.58Z"/><path class="cls-1" d="M44.88,12.5c-.89-1.51-3.67-2.2-7.32.13L14,29.59c-.7,0-2.43-.14-4.65-.13a8.71,8.71,0,0,0-1.17.08c-1.71.24-2.86,1-3.09,1.94A1.82,1.82,0,0,0,6,33.44c1.54,1,8.11,5.69,8.18,5.73a.9.9,0,0,0,1,0l.23-.16,7.08-5.21,0-2.24-7.81,5.77C13.12,36.2,8.36,32.84,7,31.95l-.13-.1a3.33,3.33,0,0,1,1.51-.52,6.92,6.92,0,0,1,.93-.07c2.16,0,3.91.09,4.56.13a4,4,0,0,0,.47,0,.9.9,0,0,0,.4-.16L38.57,14.13c2.85-1.81,4.23-1.24,4.83-.6,1,1.45-1,3.38-1.55,3.78L36,21.61l-1.3,3.18,8.21-6C44.53,17.58,46.33,14.95,44.88,12.5Z"/></svg>