<svg id="Layer_1" data-name="Layer 1" xmlns="http://www.w3.org/2000/svg" viewBox="0 0 50.46 50.46"><defs><style>.cls-1{fill:#12b5e1;}</style></defs><title>avion negativo</title><path class="cls-1" d="M12.86,33.06,4.31,38.52a.82.82,0,0,0-.25,1.13.81.81,0,0,0,.69.38.78.78,0,0,0,.44-.13l8.55-5.46a.82.82,0,0,0-.88-1.38Z"/><path class="cls-1" d="M5,36.27a.8.8,0,0,0,.44-.13l6.11-3.9a.82.82,0,0,0,.25-1.13.81.81,0,0,0-1.13-.25l-6.11,3.9a.82.82,0,0,0-.25,1.13A.81.81,0,0,0,5,36.27Z"/><path class="cls-1" d="M5.25,32.48a.76.76,0,0,0,.44-.13L9.33,30a.82.82,0,1,0-.88-1.38L4.81,31a.8.8,0,0,0-.24,1.12A.78.78,0,0,0,5.25,32.48Z"/><path class="cls-1" d="M18.85,17c2.32,1.13,4.22,2.1,4.81,2.41l4.43-2.7c-2.08,0-7.7-.35-8.63-.09A1.16,1.16,0,0,0,18.85,17Z"/><path class="cls-1" d="M43.72,10.32a8.56,8.56,0,0,0-3.17.91L17.78,24.88a.36.36,0,0,1-.2.06s-1.18,0-4.16-.2a7,7,0,0,0-1,0c-1.26.07-2,.46-2.15.81s.2.51.38.65c1.34,1.09,5.75,5.07,6.78,6h0c1-.57,4.46-2.55,8.88-5.25l.3-3.92a1,1,0,0,1,.86-.95h.09a.87.87,0,0,1,.83.74c0,.11,0,.15-.47,7.22-.09,1.24-.16,2.23-.18,2.53v.19h0a3.12,3.12,0,0,0,1.84-1.4L36,18.61a.91.91,0,0,1,1.23-.4.93.93,0,0,1,.4,1.24l-.28.58,6.77-4.35c1-.67,3.14-2.61,2.1-4.44A2.58,2.58,0,0,0,43.72,10.32Z"/></svg>