<svg id="Layer_1" data-name="Layer 1" xmlns="http://www.w3.org/2000/svg" viewBox="0 0 50.46 50.46"><defs><style>.cls-1{fill:#12b5e1;}</style></defs><title>azafata</title><path class="cls-1" d="M36.62,34.77h0a17.83,17.83,0,0,0-2.11-3.68,4.79,4.79,0,0,0,2.32-5,9.18,9.18,0,0,0-2.38-4.36C33.62,20.72,33,19.93,33,19c0-5.21-.35-6.84-3.39-8.46-.45-1.05-1.71-3.25-4.33-3.25-2.42,0-3.79,2.2-4.29,3.23h0c-3.06,1.61-3.4,3.25-3.41,8.47,0,1-.67,1.77-1.51,2.77a9.18,9.18,0,0,0-2.38,4.36,4.78,4.78,0,0,0,2.34,5c-2.38,3.17-3.33,6.86-3,7.82a1,1,0,0,0,.33.47,21.38,21.38,0,0,0,12,3.84,19.31,19.31,0,0,0,4.07-.51v0a20.58,20.58,0,0,0,7.87-3.37,1,1,0,0,0,.33-.48A8,8,0,0,0,36.62,34.77ZM25.23,8.67a2.7,2.7,0,0,1,1.3.34,12.41,12.41,0,0,1-1.3.7A10.63,10.63,0,0,1,24,9,2.38,2.38,0,0,1,25.23,8.67ZM22.89,10a11.94,11.94,0,0,0,2.05,1.12.75.75,0,0,0,.29.06.72.72,0,0,0,.29-.06A12.2,12.2,0,0,0,27.63,10a5.85,5.85,0,0,1,.66,1.15c-.57.77-1.81,2.09-3.06,2.09s-2.46-1.29-3-2.06A6.26,6.26,0,0,1,22.89,10ZM15.1,26.34a7.75,7.75,0,0,1,2-3.65C18.06,21.6,19,20.48,19,19c0-4.68.33-5.66,2.11-6.85.66.85,2.21,2.54,4.11,2.54s3.45-1.69,4.11-2.54c1.78,1.19,2.1,2.17,2.11,6.84,0,1.53.95,2.65,1.86,3.74a7.75,7.75,0,0,1,2,3.65,3.26,3.26,0,0,1-1.82,3.55,12,12,0,0,0-3.47-2.67l-.06,0a.91.91,0,0,0-.93.07,7.33,7.33,0,0,1-3.84,1.23,7.13,7.13,0,0,1-3.78-1.19,1,1,0,0,0-1-.11,12.35,12.35,0,0,0-3.54,2.71A3.26,3.26,0,0,1,15.1,26.34Zm16,3.69-2.63,2.86-1.88-2.71a9.46,9.46,0,0,0,3.09-1.13A9.19,9.19,0,0,1,31.07,30Zm-7.14.15-1.88,2.71L19.42,30a9.28,9.28,0,0,1,1.43-1A9.29,9.29,0,0,0,23.93,30.18Zm9.37,9.35-.7.3-.3.11a21.18,21.18,0,0,1-7.06,1.47,19.58,19.58,0,0,1-10.55-3.25A15.33,15.33,0,0,1,18.5,30.9l3.16,3.43a.63.63,0,0,0,.46.2h.05a.61.61,0,0,0,.47-.27l2.6-3.76,2.61,3.76a.61.61,0,0,0,.47.27h.05a.63.63,0,0,0,.46-.2L32,30.9a14.23,14.23,0,0,1,1.94,2.59l.31.56c.16.29.31.57.44.85s.18.38.26.56.19.45.27.66a8.5,8.5,0,0,1,.56,2A15,15,0,0,1,33.3,39.53Z"/><path class="cls-1" d="M25.23,27.1c3.12,0,5.64-3.76,5.64-6.87,0-1.34-1.37-1.45-2.47-1.55-1.84-.16-4.13-.35-4.91-3.81a.75.75,0,0,0-.61-.56.74.74,0,0,0-.74.36c-.95,1.69-2.55,4.66-2.55,5.56C19.59,23.34,22.11,27.1,25.23,27.1ZM22.62,16.85c1.35,2.92,4,3.15,5.67,3.29a6.82,6.82,0,0,1,1.13.16c-.05,2.37-2,5.34-4.19,5.34s-4.18-3-4.18-5.4A18.63,18.63,0,0,1,22.62,16.85Z"/></svg>