<svg id="Layer_1" data-name="Layer 1" xmlns="http://www.w3.org/2000/svg" viewBox="0 0 50.46 50.46"><defs><style>.cls-1{fill:#12b5e1;}</style></defs><title>bacteria</title><path class="cls-1" d="M41.25,34.14l-3-.21a6.39,6.39,0,0,0-.27-1.5l2.91-.93a.58.58,0,0,0,.38-.76.6.6,0,0,0-.3-.36.59.59,0,0,0-.45,0l-2.93.95h0a7.16,7.16,0,0,0-.76-1.23l2-1.63A.66.66,0,0,0,39,28a.55.55,0,0,0-.15-.45.59.59,0,0,0-.84-.08l-2,1.67a7,7,0,0,0-1.18-.89l1.44-2.39a.56.56,0,0,0,.07-.45.54.54,0,0,0-.27-.37.67.67,0,0,0-.46-.08.64.64,0,0,0-.37.28l-1.49,2.47a14.43,14.43,0,0,0-1.39-.5l1-2.49a.55.55,0,0,0,0-.46h0A.59.59,0,0,0,33,24a.58.58,0,0,0-.78.32l-1,2.57a9.85,9.85,0,0,1-2-1l1.86-2.32a.62.62,0,0,0,.14-.45.61.61,0,0,0-.23-.4.58.58,0,0,0-.84.09l-1.86,2.31a5.54,5.54,0,0,1-1.44-2.38L29.63,22a.57.57,0,0,0,.37-.27h0a.59.59,0,0,0,.06-.45.56.56,0,0,0-.27-.37.58.58,0,0,0-.47-.06l-2.7.7a7.34,7.34,0,0,1,.28-2.41l2.9.36h.09a.58.58,0,0,0,.36-.12.63.63,0,0,0,.11-.85.59.59,0,0,0-.41-.23L27.21,18a7.52,7.52,0,0,0,.22-1.54l2.93-.23a.57.57,0,0,0,.41-.21.61.61,0,0,0,.14-.44.6.6,0,0,0-.64-.55h0l-2.88.23a7.2,7.2,0,0,0-.33-1.41.58.58,0,0,0,.18,0L30,12.48a.64.64,0,0,0,.31-.34.61.61,0,0,0-.83-.75l-2.78,1.32a.39.39,0,0,0-.1.08,7.19,7.19,0,0,0-.84-1.25l.1-.07L28,9.22a.63.63,0,0,0,.17-.43.58.58,0,0,0-.2-.42.59.59,0,0,0-.85,0L25,10.64l-.05.07a7.93,7.93,0,0,0-1.28-.89s0,0,0-.06L24.85,6.9a.59.59,0,0,0-.33-.78.59.59,0,0,0-.78.34L22.6,9.31a.06.06,0,0,0,0,0A6.76,6.76,0,0,0,21.06,9L21,6a.6.6,0,0,0-.17-.43.62.62,0,0,0-.43-.16.59.59,0,0,0-.6.6l0,3c-.23,0-.46,0-.69.08a8.19,8.19,0,0,0-.85.23L17.15,6.54a.61.61,0,0,0-.32-.33.64.64,0,0,0-.47,0,.63.63,0,0,0-.33.33A.61.61,0,0,0,16,7L17.2,9.75a7.43,7.43,0,0,0-1.34.89l-2-2.18a.59.59,0,0,0-.85,0,.66.66,0,0,0-.2.42.58.58,0,0,0,.17.43l2,2.18a10.39,10.39,0,0,0-1.06,1.37L11.34,11.4a.54.54,0,0,0-.46-.06.57.57,0,0,0-.35.28.61.61,0,0,0-.07.47.68.68,0,0,0,.3.36l2.59,1.44a9.55,9.55,0,0,0-.49,1.23c0,.08,0,.16-.07.24l-2.87-.75a.62.62,0,0,0-.46.05.58.58,0,0,0-.28.37.59.59,0,0,0,.43.74l2.89.76a15,15,0,0,0-.23,1.54l-3-.19h0a.64.64,0,0,0-.42.14.62.62,0,0,0-.2.42.6.6,0,0,0,.56.64l3,.19c0,.49,0,1,0,1.53l-3,.25a.59.59,0,0,0-.55.65.6.6,0,0,0,.64.55h0l3-.25c.05.5.13,1,.22,1.53l-3,.57a.58.58,0,0,0-.48.71.58.58,0,0,0,.58.48h.12l3-.57c.11.51.21,1,.35,1.52l-2.89.84a.6.6,0,0,0,.15,1.18.55.55,0,0,0,.18,0l2.92-.86c.16.49.31,1,.49,1.45L11.22,30a.58.58,0,0,0-.32.78.53.53,0,0,0,.32.33.42.42,0,0,0,.22.05.69.69,0,0,0,.24-.05l2.81-1.15c.21.47.43.94.66,1.39l-2.66,1.46a.61.61,0,0,0-.29.36.54.54,0,0,0,.06.46.6.6,0,0,0,.36.3l.15,0a.61.61,0,0,0,.3-.08l2.65-1.46.15.29c.21.35.44.69.67,1l-2.42,1.79a.56.56,0,0,0-.24.39.62.62,0,0,0,.11.45.61.61,0,0,0,.48.25.6.6,0,0,0,.36-.12l2.43-1.79q.46.6,1,1.17l-2.16,2.09a.61.61,0,0,0,.42,1,.58.58,0,0,0,.42-.18l2.15-2.09c.37.36.76.71,1.15,1l-1.84,2.37a.56.56,0,0,0-.12.45.59.59,0,0,0,.23.39.58.58,0,0,0,.84-.11l1.84-2.36c.42.31.85.61,1.3.88L21,42a.59.59,0,0,0,.24.82.64.64,0,0,0,.3.08.61.61,0,0,0,.52-.31L23.52,40a15,15,0,0,0,1.41.66l-1,2.78a.61.61,0,0,0,0,.46.6.6,0,0,0,.35.31.78.78,0,0,0,.21,0,.59.59,0,0,0,.56-.41l1-2.78a15.61,15.61,0,0,0,1.53.4l-.42,2.89a.6.6,0,0,0,.51.68h.1a.59.59,0,0,0,.59-.52l.41-2.88c.44,0,.88.07,1.32.07h.24l.21,2.89a.66.66,0,0,0,.2.42.59.59,0,0,0,.44.14h0a.62.62,0,0,0,.42-.2.58.58,0,0,0,.13-.44l-.21-2.89a8.64,8.64,0,0,0,1.56-.35l1.1,2.67a.59.59,0,0,0,.55.37.67.67,0,0,0,.24,0,.63.63,0,0,0,.33-.33.61.61,0,0,0,0-.46l-1.11-2.68a7.29,7.29,0,0,0,1.36-.86l2,2.15a.66.66,0,0,0,.45.21.6.6,0,0,0,.41-.17.62.62,0,0,0,.2-.41.62.62,0,0,0-.16-.44l-2-2.17a7,7,0,0,0,.93-1.3L40,39.05a.71.71,0,0,0,.28.06.61.61,0,0,0,.56-.8.59.59,0,0,0-.3-.34l-2.67-1.31a7.08,7.08,0,0,0,.34-1.53l3,.21a.58.58,0,0,0,.6-.56A.6.6,0,0,0,41.25,34.14ZM30.93,39.83c-5.71.44-10.91-3.74-13.51-8.09a24.28,24.28,0,0,1-3-8.23,16,16,0,0,1,.17-7.84c.66-2,2.29-4.35,4.91-4.83a5.1,5.1,0,0,1,.87-.07,5.42,5.42,0,0,1,5,7.09A8.8,8.8,0,0,0,25,22.75c.73,3,2.9,5.06,6.63,6.16A7,7,0,0,1,35.25,31a5.32,5.32,0,0,1,1.2,3.52A5.69,5.69,0,0,1,30.93,39.83Z"/><path class="cls-1" d="M20,13.31a3.26,3.26,0,1,0,3.25,3.26A3.26,3.26,0,0,0,20,13.31Zm0,5.11a1.86,1.86,0,1,1,1.85-1.85A1.85,1.85,0,0,1,20,18.42Z"/><path class="cls-1" d="M28.52,29.26a4,4,0,1,0,4,4A4,4,0,0,0,28.52,29.26Zm0,6.59a2.6,2.6,0,1,1,2.6-2.59A2.59,2.59,0,0,1,28.52,35.85Z"/><path class="cls-1" d="M19.68,23.09a2.64,2.64,0,1,0,2.63,2.64A2.65,2.65,0,0,0,19.68,23.09Zm0,3.87a1.23,1.23,0,1,1,1.23-1.23A1.24,1.24,0,0,1,19.68,27Z"/></svg>