<svg id="Layer_1" data-name="Layer 1" xmlns="http://www.w3.org/2000/svg" viewBox="0 0 50.46 50.46"><defs><style>.cls-1{fill:#12b5e1;}</style></defs><title>bailar</title><path class="cls-1" d="M27,16a3.69,3.69,0,1,0-3.69-3.69A3.69,3.69,0,0,0,27,16Z"/><path class="cls-1" d="M36.91,42.57,31.56,34s-5.3-9.84-2.91-13.07c0,0,0,0,0-.06a7,7,0,0,1,2.14,2.39,8.84,8.84,0,0,1,1.1,4.4,1.53,1.53,0,1,0,3.06,0,12,12,0,0,0-1.51-5.89,9.66,9.66,0,0,0-7.81-5h-.08c-5.28-.41-6.83-5.33-7.2-9.86a1.77,1.77,0,0,0-.62-1.43,1.53,1.53,0,0,0-2.45,1.5l0,.18c.52,6.37,2.86,10.07,6.66,11.81a5.81,5.81,0,0,0-.4,1.24A18.32,18.32,0,0,0,22.34,27a1.67,1.67,0,0,1-.57,1.79,15,15,0,0,0-4.63,6.13,1.54,1.54,0,0,0-.09.6l.48,8.5a1.52,1.52,0,0,0,1.52,1.44h.14a1.55,1.55,0,0,0,1.39-1.63l-.45-8.12a12.35,12.35,0,0,1,4.5-5.19,1,1,0,0,1,1.4.32l2.81,4.59c0,.05.05.1.07.14l5.45,8.76a1.53,1.53,0,0,0,2.26.38A1.61,1.61,0,0,0,36.91,42.57Z"/><path class="cls-1" d="M16.2,25.44,18,21.75l.09-.16h0l.29-.59.22-.42L14.51,20l0,.08h0c-.12.25-.28.58-.46.93h0l-.1.22h0l-1.48,3a1.38,1.38,0,0,0-1.12-.54c-.7,0-1.28.33-1.3.79s.53.87,1.23.9A1.43,1.43,0,0,0,12.38,25h0a.68.68,0,0,0,.13-.27c.32-.63,1.11-2.22,1.72-3.44l3.45.5c-.54,1.09-1.22,2.46-1.57,3.2A1.4,1.4,0,0,0,15,24.44c-.69,0-1.27.32-1.29.79s.53.86,1.22.89A1.2,1.2,0,0,0,16.2,25.44Z"/><path class="cls-1" d="M40.46,7.76s-.92,1.71-1.63.62c-1.09-1.66-1.69,0-1.69,0s.48,4.16.75,6a1.84,1.84,0,0,0-1.6.24c-.79.49-1.16,1.3-.84,1.82s1.22.55,2,.07a1.55,1.55,0,0,0,.89-1.69c-.17-1.27-.66-5.76-.66-5.76a1.59,1.59,0,0,0,1.57.87C40.51,9.61,40.46,7.76,40.46,7.76Z"/></svg>