<svg id="Layer_1" data-name="Layer 1" xmlns="http://www.w3.org/2000/svg" viewBox="0 0 50.46 50.46"><defs><style>.cls-1{fill:#65b4e1;}</style></defs><title>bandera</title><path class="cls-1" d="M10.74,3.76a.85.85,0,0,0,.85-.85V2.59a.85.85,0,0,0-1.7,0v.31A.85.85,0,0,0,10.74,3.76Z"/><path class="cls-1" d="M40.2,8.82a.85.85,0,0,0-.87,0,14.38,14.38,0,0,1-6.67,2.19.42.42,0,0,0-.32,0,8.8,8.8,0,0,1-6-2.16A12.07,12.07,0,0,0,19.28,6H16.81a17.38,17.38,0,0,0-5.22,1.36V5.56a.85.85,0,0,0-1.7,0V47.27a.85.85,0,1,0,1.7,0v-19c.55-.25,7.6-3.35,13,.64a.84.84,0,0,0,.16.12c.15.11.3.21.45.33A10.36,10.36,0,0,0,32.15,32a16.43,16.43,0,0,0,8.13-2.46.85.85,0,0,0,.37-.7V9.57A.85.85,0,0,0,40.2,8.82ZM29.72,25.24a10.83,10.83,0,0,0,1.94.26v4.76a9.08,9.08,0,0,1-2-.33.82.82,0,0,0,0-.21Zm3.64.21a14.3,14.3,0,0,0,1.94-.33v4.54a.81.81,0,0,0,0,.17,12.75,12.75,0,0,1-2,.37Zm-.81-1.61h-.07a8.82,8.82,0,0,1-6.14-2.16,12.07,12.07,0,0,0-7.05-2.86H16.81A19,19,0,0,0,11.59,20V15.54c.57-.26,8.15-3.61,13.64,1.1a10.35,10.35,0,0,0,6.92,2.55A15.8,15.8,0,0,0,39,17.47v4.41A14.19,14.19,0,0,1,32.54,23.84ZM16.88,20.51h.24v4.72a17.46,17.46,0,0,0-1.94.23V20.76A15.49,15.49,0,0,1,16.88,20.51Zm1.93,0h.4a11.69,11.69,0,0,1,1.57.25.8.8,0,0,0,0,.11v4.59a13.67,13.67,0,0,0-1.94-.24Zm3.64.76a10,10,0,0,1,2,1.13.84.84,0,0,0-.06.3v4.1a11.88,11.88,0,0,0-1.94-.89ZM24.39,9.89V14a11.89,11.89,0,0,0-1.94-.89V8.49a10,10,0,0,1,2,1.12A.83.83,0,0,0,24.39,9.89Zm5.33,2.57a10.83,10.83,0,0,0,1.94.26v4.79a9,9,0,0,1-2-.34.83.83,0,0,0,.05-.25Zm3.64.21a14.3,14.3,0,0,0,1.94-.33v4.52a.82.82,0,0,0,0,.22,12.47,12.47,0,0,1-2,.38ZM39,15.56a15.35,15.35,0,0,1-2,1V11.84A18.21,18.21,0,0,0,39,11ZM28,11.92v4.56a9.11,9.11,0,0,1-1.69-1.14l-.25-.19V10.84A10.34,10.34,0,0,0,28,11.92ZM20.77,8a.8.8,0,0,0,0,.09v4.61a13.68,13.68,0,0,0-1.94-.24V7.73h.4A11.68,11.68,0,0,1,20.77,8Zm-3.89-.24h.24v4.72a17.48,17.48,0,0,0-1.94.23V8A12.23,12.23,0,0,1,16.88,7.73Zm-3.4.76v4.24a.84.84,0,0,0,.07.33,18.8,18.8,0,0,0-2,.64V9.27A18.4,18.4,0,0,1,13.48,8.49ZM11.59,21.86a15.7,15.7,0,0,1,1.89-.69v4.36a.84.84,0,0,0,.06.3,18.82,18.82,0,0,0-1.95.64Zm14.49,6.08V23.62A10.34,10.34,0,0,0,28,24.7v4.57a9,9,0,0,1-1.69-1.14ZM39,28.33a15.43,15.43,0,0,1-2,1V24.62a18.21,18.21,0,0,0,2-.83v4.54Z"/></svg>