<?xml version="1.0" encoding="utf-8"?>
<!-- Generator: Adobe Illustrator 24.0.1, SVG Export Plug-In . SVG Version: 6.00 Build 0)  -->
<svg version="1.1" id="Layer_1" xmlns="http://www.w3.org/2000/svg" xmlns:xlink="http://www.w3.org/1999/xlink" x="0px" y="0px"
	 viewBox="0 0 50.5 50.5" style="enable-background:new 0 0 50.5 50.5;" xml:space="preserve">
<path d="M22.5,10.8c0,2.1,1.7,3.9,3.9,3.9c2.1,0,3.9-1.7,3.9-3.9c0-0.3-0.1-0.7-0.1-1c0.5-0.7,0.8-1.6,0.8-2.5
	c0-0.3-0.2-0.6-0.5-0.8V3.5c0-0.5-0.4-0.9-0.9-0.9h-6.3c-0.5,0-0.9,0.4-0.9,0.9v3.1C22.2,6.7,22,7,22,7.3c0,0.9,0.3,1.7,0.7,2.3
	C22.6,10,22.5,10.4,22.5,10.8z M24.2,4.3h4.6v2.1h-4.6V4.3z M29.1,8.2c-0.4,1.1-1.4,1.9-2.6,1.9h-0.1c-1.2,0-2.2-0.8-2.6-1.9H29.1z"
	/>
<path d="M36.1,13.6L29.2,16h-4l0.7,1.5l2.2,4.4l-1.4,0.4c-0.4,0.1-0.7,0.6-0.5,1c0.1,0.3,0.4,0.6,0.8,0.6c0.1,0,0.2,0,0.2,0l1.6-0.5
	l0.8,1.6h-3.3l-3.6-7.5l-0.5-1.1C22,16.2,22,16.1,21.9,16h-3.3l-3.2-4.4L19.6,5c0.2-0.4,0.1-0.9-0.2-1.1c-0.4-0.2-0.9-0.1-1.1,0.2
	l-4.2,6.6c-0.5-0.1-1.1,0-1.5,0.4c-0.9,0.6-1.1,1.9-0.4,2.8l3.9,5.3c0.4,0.5,1,0.8,1.6,0.8h4.6v5h-2.8c-0.5,0-0.9,0.4-0.9,0.9V34
	c0,0.5,0.4,0.9,0.9,0.9h2.2l-0.6,10.9c-0.1,1.1,0.8,2,1.9,2.1c0,0,0.1,0,0.1,0c1,0,1.9-0.8,2-1.9l0.6-11.1h1.5l0.6,11
	c0.1,1.1,0.9,1.9,2,1.9c0,0,0.1,0,0.1,0c1.1-0.1,1.9-1,1.9-2.1l-0.6-10.8h1.8c0.5,0,0.9-0.4,0.9-0.9v-8.2c0-0.5-0.4-0.9-0.9-0.9
	h-2.4v-2.1l3.5-1.1c0.3,0.4,0.6,0.6,1.1,0.7c0.2,0,0.3,0.1,0.5,0.1c0.9,0,1.7-0.6,1.9-1.5l1.2-5c0.2-0.7-0.1-1.4-0.6-1.9
	C37.5,13.6,36.8,13.4,36.1,13.6z M32,26.7v6.4H20.3v-6.4H32z M33.6,20C33.6,20.1,33.6,20.1,33.6,20l-3.1,1.1v-1.4l3.5-1.2L33.6,20z"
	/>
<path d="M22.8,31.4c0.4,0,0.8-0.4,0.8-0.8v-1.4c0-0.4-0.4-0.8-0.8-0.8S22,28.7,22,29.2v1.4C22,31,22.4,31.4,22.8,31.4z"/>
<path d="M26.2,31.4c0.4,0,0.8-0.4,0.8-0.8v-1.4c0-0.4-0.4-0.8-0.8-0.8s-0.8,0.4-0.8,0.8v1.4C25.4,31,25.7,31.4,26.2,31.4z"/>
<path d="M29.5,31.4c0.4,0,0.8-0.4,0.8-0.8v-1.4c0-0.4-0.4-0.8-0.8-0.8s-0.8,0.4-0.8,0.8v1.4C28.7,31,29.1,31.4,29.5,31.4z"/>
</svg>
