<?xml version="1.0" encoding="utf-8"?>
<!-- Generator: Adobe Illustrator 24.2.1, SVG Export Plug-In . SVG Version: 6.00 Build 0)  -->
<svg version="1.1" id="Layer_1" xmlns="http://www.w3.org/2000/svg" xmlns:xlink="http://www.w3.org/1999/xlink" x="0px" y="0px"
	 viewBox="0 0 50.5 50.5" style="enable-background:new 0 0 50.5 50.5;" xml:space="preserve">
<path d="M45.847,12.156c-0.269-0.175-0.605-0.204-0.9-0.076c-7.003,3.055-13.045,1.242-19.443-0.677
	c-6.445-1.933-13.109-3.932-20.749-0.598c-0.346,0.151-0.57,0.493-0.57,0.871v27.772c0,0.32,0.162,0.619,0.43,0.795
	c0.269,0.176,0.608,0.204,0.9,0.076c7-3.058,13.044-1.243,19.443,0.676c3.937,1.181,7.954,2.386,12.226,2.386
	c2.723,0,5.55-0.489,8.523-1.787c0.347-0.151,0.57-0.493,0.57-0.871V12.951C46.276,12.631,46.114,12.332,45.847,12.156z
	 M6.084,21.471c6.784-2.704,12.684-0.948,18.917,0.921c3.923,1.177,7.928,2.378,12.183,2.378c2.314,0,4.703-0.36,7.192-1.269v7.591
	c-6.781,2.704-12.683,0.95-18.916-0.921c-6.059-1.817-12.313-3.687-19.376-1.108V21.471z M24.957,13.224
	c6.067,1.82,12.333,3.698,19.419,1.129v7.428c-6.781,2.704-12.683,0.95-18.916-0.921c-6.059-1.817-12.313-3.686-19.376-1.108v-7.444
	C12.844,9.591,18.732,11.357,24.957,13.224z M25.503,39.176c-3.936-1.181-7.954-2.386-12.226-2.386
	c-2.314,0-4.703,0.354-7.193,1.257v-7.263C12.868,28.08,18.768,29.835,25,31.705c3.923,1.177,7.928,2.378,12.183,2.378
	c2.314,0,4.703-0.36,7.192-1.269v7.277C37.617,42.809,31.727,41.042,25.503,39.176z M22.878,27.049l0.042,0.126
	c0.1,0.277,0.331,0.45,0.598,0.49c-0.017,0.278,0.112,0.557,0.363,0.72l0.124,0.076c0.253,0.147,0.542,0.132,0.771-0.006
	c0.147,0.198,0.384,0.323,0.642,0.323c0.034,0,0.068-0.002,0.103-0.007l0.137-0.02c0.289-0.05,0.5-0.246,0.587-0.5
	c0.27,0.064,0.561-0.012,0.765-0.223c0.037-0.039,0.072-0.079,0.106-0.12c0.187-0.223,0.224-0.509,0.132-0.759
	c0.246-0.125,0.421-0.374,0.438-0.669l0.004-0.168c0-0.295-0.16-0.535-0.397-0.662c0.11-0.258,0.082-0.567-0.103-0.805l-0.089-0.111
	c-0.188-0.222-0.464-0.306-0.727-0.251c-0.081-0.265-0.298-0.481-0.587-0.547l-0.15-0.03c-0.293-0.048-0.551,0.066-0.719,0.272
	c-0.229-0.147-0.53-0.174-0.791-0.043l-0.137,0.074c-0.253,0.146-0.384,0.404-0.381,0.671c-0.274,0.034-0.524,0.209-0.64,0.482
	l-0.056,0.145c-0.097,0.273-0.032,0.552,0.142,0.754C22.864,26.465,22.786,26.764,22.878,27.049z M24.441,25.987
	c0.044-0.103,0.064-0.209,0.063-0.313c0.116-0.011,0.231-0.047,0.336-0.108c0.103-0.051,0.189-0.121,0.258-0.204
	c0.098,0.066,0.21,0.113,0.33,0.133c0.11,0.025,0.221,0.027,0.324,0.007c0.032,0.116,0.089,0.226,0.17,0.321
	c0.068,0.089,0.152,0.16,0.244,0.211c-0.051,0.11-0.08,0.232-0.08,0.357c-0.006,0.11,0.011,0.216,0.045,0.314
	c-0.104,0.05-0.199,0.122-0.277,0.214c-0.08,0.084-0.139,0.181-0.176,0.284c-0.116-0.032-0.239-0.04-0.361-0.018
	c-0.11,0.014-0.212,0.05-0.301,0.102c-0.068-0.097-0.158-0.181-0.265-0.243c-0.096-0.062-0.199-0.101-0.306-0.119
	c0.012-0.121-0.002-0.245-0.045-0.362c-0.032-0.103-0.084-0.194-0.149-0.272C24.335,26.206,24.4,26.103,24.441,25.987z"/>
</svg>
