<svg id="Layer_1" data-name="Layer 1" xmlns="http://www.w3.org/2000/svg" viewBox="0 0 50.46 50.46"><defs><style>.cls-1{fill:#65b4e1;}</style></defs><title>banio quimico</title><path class="cls-1" d="M28.84,24.69v2.46a2.07,2.07,0,1,0,4.14,0V24.69a2.07,2.07,0,1,0-4.14,0Zm1.63,0a.44.44,0,0,1,.87,0v2.46a.44.44,0,1,1-.87,0Z"/><path class="cls-1" d="M23,17.15h4.52a2.73,2.73,0,0,0,2.72-2.72v-.51a2.73,2.73,0,0,0-2.72-2.72H23a2.73,2.73,0,0,0-2.72,2.72v.51A2.73,2.73,0,0,0,23,17.15Zm-1.09-3.23A1.1,1.1,0,0,1,23,12.83h4.52a1.1,1.1,0,0,1,1.09,1.09v.51a1.1,1.1,0,0,1-1.09,1.09H23a1.1,1.1,0,0,1-1.09-1.09Z"/><path class="cls-1" d="M38.7,41.68h-.9V12.37a7.86,7.86,0,0,0-7.85-7.85H20.52a7.86,7.86,0,0,0-7.85,7.85V41.68h-.9a.82.82,0,0,0-.82.82v2.62a.82.82,0,0,0,.82.82H38.7a.82.82,0,0,0,.82-.82V42.5A.82.82,0,0,0,38.7,41.68ZM14.3,12.37a6.22,6.22,0,0,1,6.22-6.22h9.42a6.23,6.23,0,0,1,6.22,6.22V20.3H34.77V12.9a4.56,4.56,0,0,0-4.56-4.56h-10a4.56,4.56,0,0,0-4.56,4.56V40.51H34.77V21.94h1.39V41.68H14.3ZM33.44,29.85a.8.8,0,0,0-.24,0h-3a1.91,1.91,0,0,1-1.91-1.91V23.84a1.91,1.91,0,0,1,1.91-1.91h3.28ZM30.16,20.3a3.54,3.54,0,0,0-3.54,3.54v4.05a3.54,3.54,0,0,0,3.54,3.54h3a.8.8,0,0,0,.24,0v7.8H17V12.9a3.23,3.23,0,0,1,3.23-3.23h10a3.23,3.23,0,0,1,3.23,3.23v7.4Zm7.72,24H12.58v-1h25.3Z"/></svg>