<svg id="Layer_1" data-name="Layer 1" xmlns="http://www.w3.org/2000/svg" viewBox="0 0 50.46 50.46"><defs><style>.cls-1{fill:#65b4e1;}</style></defs><title>barbijo</title><path class="cls-1" d="M31.37,32.79a39.38,39.38,0,0,1-6.42.67,40.22,40.22,0,0,1-5.87-.57.52.52,0,0,0-.61.41.51.51,0,0,0,.42.59,41.32,41.32,0,0,0,6,.59h0a40.48,40.48,0,0,0,6.61-.69.51.51,0,0,0,.41-.6A.52.52,0,0,0,31.37,32.79Z"/><path class="cls-1" d="M30.91,35.47a40.12,40.12,0,0,1-6,.59,40.84,40.84,0,0,1-5.46-.5.52.52,0,0,0-.61.42.51.51,0,0,0,.43.59,41.92,41.92,0,0,0,5.62.52h0a41.21,41.21,0,0,0,6.13-.6.51.51,0,0,0,.42-.59A.52.52,0,0,0,30.91,35.47Z"/><path class="cls-1" d="M30.48,38.15a40.74,40.74,0,0,1-5.52.51,41.53,41.53,0,0,1-5-.43.52.52,0,0,0-.6.42.51.51,0,0,0,.44.58,42.63,42.63,0,0,0,5.15.44h0a41.84,41.84,0,0,0,5.69-.53.51.51,0,0,0,.43-.59A.52.52,0,0,0,30.48,38.15Z"/><path class="cls-1" d="M39.72,23.51c.6-2.14,1.37-5.46,1.07-7.63-.39-2.77-4.24-5-6.08-4-1.28-7.72-16.4-6.37-21.26-3.61-4.58,2.6-3.17,12.45-2.58,15.18h0a3.12,3.12,0,0,0-1.89,4,3.5,3.5,0,0,0,2.64,2.65c1.72,11.82,11.17,14.24,13.61,14.24s11.89-2.42,13.61-14.24a3.51,3.51,0,0,0,2.64-2.65A3.15,3.15,0,0,0,39.72,23.51ZM11.78,28.76a2.2,2.2,0,0,1-1.44-1.64c-.29-1.08.12-2.15.88-2.35a1,1,0,0,1,.29,0,10.8,10.8,0,0,0,.05,1.66A8.2,8.2,0,0,0,12,28.36,2.31,2.31,0,0,0,11.78,28.76ZM31.55,40.52A12.25,12.25,0,0,1,25.23,43a12.25,12.25,0,0,1-6.32-2.48A15.42,15.42,0,0,1,13,30.18a5.46,5.46,0,0,0,1.28,1.12.71.71,0,0,0,.38.11.7.7,0,0,0,.59-.31.66.66,0,0,0-.21-.94,4.14,4.14,0,0,1-1.37-1.42l.19,0a.89.89,0,0,1,.27,0,40.2,40.2,0,0,0,11,1.69h0a40.2,40.2,0,0,0,11-1.69.87.87,0,0,1,.67.06,4.78,4.78,0,0,1-1.54,1.33.67.67,0,0,0-.26.92.7.7,0,0,0,.61.34.71.71,0,0,0,.34-.09,6.37,6.37,0,0,0,1.28-.93A15.36,15.36,0,0,1,31.55,40.52Zm6.05-12.9a2.31,2.31,0,0,0-1.77-.15A38.74,38.74,0,0,1,25.23,29.1a38.74,38.74,0,0,1-10.61-1.62,2.31,2.31,0,0,0-1.43,0,8.44,8.44,0,0,1-.29-2.55h0s.2-5.36,6.47-4.2,11.89-3.56,14.21-6a8.45,8.45,0,0,0,1.79,6.07A11.63,11.63,0,0,1,38,25.09,7,7,0,0,1,37.6,27.62Zm2.52-.5a2.21,2.21,0,0,1-1.44,1.64l0-.07a7.26,7.26,0,0,0,.7-2.28,9.25,9.25,0,0,0,.08-1.56A2,2,0,0,1,40.12,27.12Z"/><ellipse class="cls-1" cx="18.39" cy="24.78" rx="0.83" ry="0.8"/><ellipse class="cls-1" cx="32.07" cy="24.93" rx="0.83" ry="0.8"/></svg>