<svg id="Layer_1" data-name="Layer 1" xmlns="http://www.w3.org/2000/svg" viewBox="0 0 50.46 50.46"><defs><style>.cls-1{fill:#65b4e1;}</style></defs><title>barrio</title><path class="cls-1" d="M27.5,19.14H23a.58.58,0,0,0-.58.58v2.15l1.16.84V20.3h3.39v2.41l1.16-.84V19.72A.58.58,0,0,0,27.5,19.14Z"/><path class="cls-1" d="M17.05,15.2l8.18-5.93,8.18,5.93V18l1.16-.84V14.91a.58.58,0,0,0-.24-.47L25.57,8.09a.58.58,0,0,0-.68,0l-8.76,6.35a.58.58,0,0,0-.24.47v2.26l1.16.84Z"/><path class="cls-1" d="M14.66,13.79,25.23,6.13,35.8,13.79a.64.64,0,1,0,.76-1L25.61,4.81a.64.64,0,0,0-.76,0L13.91,12.75a.64.64,0,1,0,.76,1Z"/><path class="cls-1" d="M13.31,21.47a.58.58,0,0,0-.68,0L3.87,27.82a.58.58,0,0,0-.24.47V41a.58.58,0,0,0,.58.58H21.73a.58.58,0,0,0,.58-.58V28.29a.58.58,0,0,0-.24-.47Zm1.35,18.92H11.28V33.68h3.39Zm6.48,0H15.83V33.1a.58.58,0,0,0-.58-.58H10.7a.58.58,0,0,0-.58.58v7.29H4.8V28.58L13,22.65l8.18,5.93Z"/><path class="cls-1" d="M24.29,26.13,13.35,18.19a.64.64,0,0,0-.76,0L1.65,26.13a.64.64,0,0,0,.76,1L13,19.51l10.57,7.66a.64.64,0,0,0,.76-1Z"/><path class="cls-1" d="M37.83,21.47a.58.58,0,0,0-.68,0l-8.76,6.35a.58.58,0,0,0-.24.47V41a.58.58,0,0,0,.58.58H46.24a.58.58,0,0,0,.58-.58V28.29a.58.58,0,0,0-.24-.47Zm1.35,18.92H35.79V33.68h3.39Zm6.48,0H40.34V33.1a.58.58,0,0,0-.58-.58H35.21a.58.58,0,0,0-.58.58v7.29H29.31V28.58l8.18-5.93,8.18,5.93Z"/><path class="cls-1" d="M48.81,26.13,37.87,18.19a.64.64,0,0,0-.76,0L26.17,26.13a.64.64,0,0,0,.76,1l10.57-7.66,10.57,7.66a.64.64,0,0,0,.76-1Z"/></svg>