<svg id="Layer_1" data-name="Layer 1" xmlns="http://www.w3.org/2000/svg" viewBox="0 0 50.46 50.46"><defs><style>.cls-1{fill:#65b4e1;}</style></defs><title>barrilete</title><path class="cls-1" d="M40.48,19.54a1,1,0,0,0,.16-.3,1.48,1.48,0,0,0,0-.33s0,0,0,0L39,6.73a.92.92,0,0,0-.86-.79L25.82,5.25h0l-.13,0-.2,0-.11.06a.89.89,0,0,0-.18.13l-.06,0,0,0a.9.9,0,0,0-.11.19.9.9,0,0,0-.05.11l0,0-5.12,19.7s0,0,0,.07a2.94,2.94,0,0,1-1,1.07l-.09-2.09a1.28,1.28,0,0,0-.29-.73.82.82,0,0,0-.59-.34c-.13,0-.2,0-2.87,1.42a.6.6,0,0,0-.22.67,1.26,1.26,0,0,0,.13.36,1.22,1.22,0,0,0,.36.42l1.42,1h-.05c-2.86.23-5,1.47-5.78,3.39s-.24,4.21,1.52,6.38c.09.11.15.22.23.34H10.87a1.27,1.27,0,0,0-.74.26.79.79,0,0,0-.35.57c0,.13,0,.2,1.38,2.91a.63.63,0,0,0,.67.25,1.26,1.26,0,0,0,.37-.11,1.18,1.18,0,0,0,.43-.34l1-1.27a3.27,3.27,0,0,1,0,1.34,3.49,3.49,0,0,1-2.21,2.32A.86.86,0,0,0,11,44.68a.9.9,0,0,0,1,.51l.16-.05a4.91,4.91,0,0,0,3-6.33l2.26.07a1.2,1.2,0,0,0,.54-.12,1.25,1.25,0,0,0,.32-.21.6.6,0,0,0,.22-.67C17.2,35.12,17.15,35.08,17,35a.82.82,0,0,0-.67-.09,1.25,1.25,0,0,0-.67.41L14.31,37a9.59,9.59,0,0,0-.62-.86c-1.34-1.64-1.79-3.32-1.25-4.59s2.13-2.17,4.32-2.34a7.38,7.38,0,0,0,.93-.15l0,2.11a1.2,1.2,0,0,0,.15.54,1.28,1.28,0,0,0,.23.31.62.62,0,0,0,.69.21c2.71-1.34,2.75-1.39,2.83-1.5a.79.79,0,0,0,.06-.67,1.28,1.28,0,0,0-.44-.66l-1.54-1.16a4.92,4.92,0,0,0,1.17-1,4.57,4.57,0,0,0,.41-.63l18.82-6.77,0,0,.1-.06a.9.9,0,0,0,.18-.13l0,0Zm-3-10.62,1.05,7.66-4.4-4ZM36.12,7.67l-3.35,3.65L28.29,7.23Zm-4.6,5-9.05,9.85L26.27,7.87ZM23.86,23.73l9-9.82L38,18.63Z"/></svg>