<?xml version="1.0" encoding="utf-8"?>
<!-- Generator: Adobe Illustrator 22.1.0, SVG Export Plug-In . SVG Version: 6.00 Build 0)  -->
<svg version="1.1" id="Layer_1" xmlns="http://www.w3.org/2000/svg" xmlns:xlink="http://www.w3.org/1999/xlink" x="0px" y="0px"
	 viewBox="0 0 50.5 50.5" style="enable-background:new 0 0 50.5 50.5;" xml:space="preserve">
<style type="text/css">
	.st0{fill:#12B5E1;}
</style>
<title>estetoscopio</title>
<g>
	<path class="st0" d="M36.1,23.9c0.1,0,0.1,0,0.2,0c0.8,0.1,1.5-0.2,2.1-0.6c0.6-0.5,1-1.2,1-1.9c0-0.2-0.1-0.4-0.3-0.4
		c-0.2,0-0.4,0.1-0.4,0.3c-0.1,0.6-0.3,1.1-0.8,1.4c-0.4,0.4-1,0.5-1.5,0.5c-1.2-0.1-2-1.1-1.9-2.3c0-0.2-0.1-0.4-0.3-0.4
		c-0.2,0-0.4,0.1-0.4,0.3c-0.1,0.8,0.2,1.5,0.6,2.1C34.8,23.4,35.4,23.8,36.1,23.9z"/>
	<path class="st0" d="M31.1,19.8c0.4,0.1,0.7-0.2,0.8-0.6c0.1-0.4-0.2-0.7-0.6-0.8c-0.4-0.1-0.7,0.2-0.8,0.6
		C30.5,19.4,30.7,19.8,31.1,19.8z"/>
	<path class="st0" d="M41.8,20.4c0.4,0.1,0.7-0.2,0.8-0.6c0.1-0.4-0.2-0.7-0.6-0.8c-0.4-0.1-0.7,0.2-0.8,0.6
		C41.2,20,41.4,20.3,41.8,20.4z"/>
	<path class="st0" d="M49.8,36.6c-0.6-1.7-2.5-2.6-4.2-2c-3.2,1.2-6.1,0.9-8.5-0.9c0,0,0,0-0.1-0.1c0.4-1.1,0.6-1.9,0.8-2.9
		c2.3-0.2,4.5-1.1,6.3-2.5c2.6-2,4.2-4.9,4.6-8.1c0.4-3.2-0.5-6.4-2.5-9c-2-2.6-4.9-4.2-8.1-4.6c-3.2-0.4-6.4,0.5-9,2.5
		c-2.6,2-4.2,4.9-4.6,8.1c-0.4,3.2,0.5,6.4,2.5,9c0.3,0.4,0.7,0.8,1.1,1.2c-0.8,0-1.5-0.1-2.3-0.4c0,0,0,0,0,0
		c-0.8-0.3-1.5-0.8-2.4-1.4c-2.3-1.5-5.1-1.6-7.2-0.1c-1.7,1.2-2.8,3.4-2.9,5.7c0,0.4,0,0.7,0,1.1c-0.2,0.3-0.3,0.6-0.5,0.9
		c-0.1,0.2-0.2,0.4-0.3,0.6c0,0-0.1,0.1-0.1,0.2c-0.2,0.4-0.4,0.8-0.6,1c-0.2-0.4-0.3-0.8-0.5-1.3l-0.1-0.3
		c-0.3-0.9-0.6-1.8-1.2-2.5c-1-1.3-2.7-1.9-4.5-1.8C4,29.3,2,30.1,1,31.7c-1,1.5-0.7,3.5,0.6,4.6c0.8,0.7,1.8,1,2.8,0.9
		c0.2,0.6,0.4,1.3,0.7,2c0.2,0.6,0.5,1.2,1,2c1.2,1.7,3.2,2.7,5.5,2.7c0,0,0,0,0,0c2.6,0,5.1-1.2,7.3-3.6c1.6,0.7,3.5,0.8,4.8,0.8
		c0.4,0,0.7,0,1,0c0,0,0,0,0,0c0.8,0,1.5-0.1,2.2-0.3c2.5-0.5,4.3-1.1,5.8-2.1c0.1,0.1,0.1,0.1,0.2,0.2c2.7,2,5.8,3.1,8.9,3.1
		c1.9,0,3.9-0.4,5.9-1.1C49.6,40.2,50.4,38.3,49.8,36.6z M11.7,42.5C11.6,42.5,11.6,42.5,11.7,42.5c-1.8,0-3.4-0.8-4.3-2.1
		c-0.4-0.6-0.7-1.2-0.9-1.7c-0.4-0.9-0.6-1.7-0.8-2.5c-0.1-0.2-0.2-0.4-0.4-0.5c-0.1-0.1-0.2-0.1-0.3-0.1c-0.1,0-0.2,0-0.2,0
		c-0.7,0.3-1.6,0.1-2.1-0.4c-0.8-0.7-0.9-1.9-0.4-2.8c0.6-1,2.1-1.8,3.4-1.9c1.2-0.1,2.5,0.4,3.2,1.2c0.5,0.6,0.7,1.3,1,2.1l0.1,0.3
		c0.3,0.8,0.6,1.6,0.9,2.4c0.1,0.3,0.4,0.5,0.7,0.5c0.6,0,1-0.4,2-2.4c0.1-0.1,0.1-0.2,0.1-0.2c0.1-0.2,0.2-0.4,0.4-0.6
		c0.5-0.8,0.8-1.4,1.4-2.1c0.8-0.9,2.3-1.7,3.9-1.1l0,0c0,0,0,0,0,0c0.9,0.4,1.6,1.3,1.8,2.3c0.2,1.2-0.4,2.3-1.1,3.4
		C17.6,40.5,14.8,42.5,11.7,42.5z M24.7,28.1c-1,3.8-1.3,7.7-0.8,11.6c-1.5,0-2.8-0.2-3.9-0.5c0.5-0.6,1-1.3,1.4-2
		c0.9-1.3,1.6-2.8,1.3-4.5c-0.3-1.5-1.3-2.8-2.7-3.4l-0.1,0c-2-0.8-4,0-5.1,1.1c0.3-1.5,1.1-2.9,2.2-3.7c1.6-1.2,3.7-1.1,5.6,0.1
		c0.7,0.5,1.3,0.9,2,1.2C24.7,28,24.7,28.1,24.7,28.1z M26,17.4c0.3-2.8,1.8-5.4,4-7.1c1.6-1.3,3.5-2,5.5-2.2c0.4,0,0.6,0,0.8,0.1
		c1.1,0.3,2.4,1,2.8,2.2c0.3,0.8,0,1.7-0.5,2.3c-0.3,0.3-0.6,0.6-1,0.8c-0.4,0.2-0.8,0.3-1.2,0.2c-0.2,0-0.4-0.1-0.6-0.1
		c-0.2-0.1-0.4-0.2-0.6-0.3c-0.3-0.3-0.6-0.6-0.7-1c-0.1-0.2-0.1-0.4-0.1-0.6c0-0.2,0-0.4,0.1-0.6c0.1-0.4,0.4-0.8,0.8-1
		c0.4-0.2,0.8-0.3,1.2-0.2c0.4,0.1,0.7,0.4,0.9,0.8c0.2,0.4,0.1,0.8-0.1,1.1c-0.2,0.3-0.6,0.5-1,0.4c0,0,0,0,0,0
		c-0.1,0-0.3,0.1-0.3,0.2c0,0.1,0.1,0.3,0.2,0.3l0,0c0.3,0,0.6,0,0.8-0.1c0.3-0.1,0.5-0.3,0.6-0.5c0.2-0.2,0.2-0.5,0.2-0.8
		c0-0.3,0-0.5-0.2-0.8c-0.1-0.2-0.3-0.5-0.5-0.6c-0.2-0.2-0.5-0.3-0.7-0.3c-0.5-0.1-1.1,0-1.5,0.2c-0.5,0.3-0.8,0.7-1,1.2
		c-0.2,0.5-0.1,1,0,1.5c0.2,0.5,0.5,0.9,0.9,1.3c0.2,0.2,0.4,0.3,0.7,0.4c0.2,0.1,0.5,0.2,0.8,0.2c0.3,0,0.5,0,0.8,0
		c0.3,0,0.5-0.1,0.8-0.2c0.5-0.2,0.9-0.5,1.3-0.9c0.7-0.8,1-1.9,0.9-3C40,9.5,39.8,9,39.5,8.5c0-0.1-0.1-0.1-0.1-0.2
		c2.2,0.6,4.2,1.9,5.6,3.7c1.8,2.3,2.5,5.1,2.2,7.9c-0.3,2.8-1.8,5.4-4,7.1c-2.3,1.8-5.1,2.5-7.9,2.2c-1.9-0.2-3.6-0.9-5.1-2
		c0,0-0.1-0.1-0.1-0.1c-0.7-0.5-1.4-1.2-1.9-1.9C26.4,23,25.7,20.2,26,17.4z M36.3,30.8c-0.1,0.6-0.3,1.2-0.5,1.9
		c-0.9-0.9-1.5-1.7-1.7-2.1c0.3,0.1,0.7,0.1,1,0.2C35.5,30.8,35.9,30.8,36.3,30.8z M26.8,39.4c-0.4,0.1-0.9,0.1-1.4,0.2
		c0,0,0,0,0-0.1c-0.6-3.7-0.3-7.4,0.7-11c0,0,0,0,0,0c0.9,0.3,1.8,0.3,2.8,0.2c0.2,0,0.5-0.1,0.7-0.2c0.1,0.1,0.2,0.1,0.3,0.2
		c-0.1,0-0.3,0.1-0.4,0.2c-1.6,0.8-2.2,2.8-1.4,4.4c0.1,0.3,1.3,2.3,3.4,4.3C30.4,38.5,28.9,39.1,26.8,39.4z M47.4,39.6
		c-1.9,0.7-3.7,1-5.5,1c-2.9,0-5.7-0.9-8.1-2.8c-2.9-2.2-4.3-4.7-4.4-5c-0.5-1-0.1-2.1,0.8-2.6c0.3-0.2,0.6-0.2,0.9-0.2
		c0.7,0,1.4,0.4,1.7,1c0,0.1,1.2,2.2,3.5,3.8c2.8,2.1,6.1,2.4,9.8,1.1c1-0.4,2.1,0.1,2.5,1.2C48.9,38.1,48.4,39.2,47.4,39.6z"/>
</g>
</svg>
