<?xml version="1.0" encoding="utf-8"?>
<!-- Generator: Adobe Illustrator 24.2.1, SVG Export Plug-In . SVG Version: 6.00 Build 0)  -->
<svg version="1.1" id="Layer_1" xmlns="http://www.w3.org/2000/svg" xmlns:xlink="http://www.w3.org/1999/xlink" x="0px" y="0px"
	 viewBox="0 0 50.46 50.46" style="enable-background:new 0 0 50.46 50.46;" xml:space="preserve">
<path d="M35.16,30.59h-4.27c-1.04,0-1.88-0.41-1.9-0.43c-0.4-0.2-0.88-0.04-1.08,0.35c-0.2,0.4-0.04,0.88,0.35,1.08
	c0.05,0.03,1.18,0.6,2.63,0.6h4.27c0.44,0,0.8-0.36,0.8-0.8C35.96,30.94,35.6,30.59,35.16,30.59z M33.66,18.31
	c-0.17-0.41-0.64-0.6-1.05-0.42c-0.4,0.17-0.59,0.64-0.42,1.05c0.87,2.03,2.2,5.41,2.31,6.36c-0.01,0.17-0.23,0.57-0.39,0.71
	c-0.46,0.02-1.31-0.25-2.01-0.47c-0.36-0.11-0.72-0.23-1.07-0.32c-0.43-0.12-0.86,0.13-0.98,0.56c-0.12,0.42,0.13,0.86,0.56,0.98
	c0.33,0.09,0.66,0.2,1,0.3c0.88,0.29,1.73,0.55,2.45,0.55c0.13,0,0.27-0.01,0.39-0.03c0.89-0.14,1.74-1.58,1.64-2.44
	C35.91,23.63,33.89,18.85,33.66,18.31z M26.2,18.62c-0.38,0-0.69,0.31-0.69,0.69S25.82,20,26.2,20s0.69-0.31,0.69-0.69
	S26.58,18.62,26.2,18.62z M37.37,18.62c-0.38,0-0.69,0.31-0.69,0.69S36.99,20,37.37,20s0.69-0.31,0.69-0.69S37.75,18.62,37.37,18.62
	z M37.37,18.62c-0.38,0-0.69,0.31-0.69,0.69S36.99,20,37.37,20s0.69-0.31,0.69-0.69S37.75,18.62,37.37,18.62z M32.61,17.89
	c-0.4,0.17-0.59,0.64-0.42,1.05c0.87,2.03,2.2,5.41,2.31,6.36c-0.01,0.17-0.23,0.57-0.39,0.71c-0.46,0.02-1.31-0.25-2.01-0.47
	c-0.36-0.11-0.72-0.23-1.07-0.32c-0.43-0.12-0.86,0.13-0.98,0.56c-0.12,0.42,0.13,0.86,0.56,0.98c0.33,0.09,0.66,0.2,1,0.3
	c0.88,0.29,1.73,0.55,2.45,0.55c0.13,0,0.27-0.01,0.39-0.03c0.89-0.14,1.74-1.58,1.64-2.44c-0.18-1.51-2.2-6.29-2.43-6.83
	C33.49,17.9,33.02,17.71,32.61,17.89z M35.16,30.59h-4.27c-1.04,0-1.88-0.41-1.9-0.43c-0.4-0.2-0.88-0.04-1.08,0.35
	c-0.2,0.4-0.04,0.88,0.35,1.08c0.05,0.03,1.18,0.6,2.63,0.6h4.27c0.44,0,0.8-0.36,0.8-0.8C35.96,30.94,35.6,30.59,35.16,30.59z
	 M26.2,18.62c-0.38,0-0.69,0.31-0.69,0.69S25.82,20,26.2,20s0.69-0.31,0.69-0.69S26.58,18.62,26.2,18.62z M41.32,34.07l0.9-2.91
	c0.09-0.29,0.01-0.61-0.21-0.82c-0.22-0.2-0.54-0.27-0.82-0.17l-0.55,0.19c0.82-3.19,1.17-6.82,1.17-9.38
	c0-3.65-1.21-7.01-3.22-9.74c-0.04-0.11-0.11-0.2-0.2-0.28c0-0.01-0.01-0.01-0.02-0.02c-3.01-3.91-7.74-6.45-13.05-6.45
	c-9.09,0-16.48,7.4-16.48,16.49c0,0,0,0,0,0.01c0,0.05,0.01,0.42,0.05,0.97c0.04,0.46,0.1,1.05,0.21,1.7c0,0.05,0.01,0.11,0.02,0.17
	c0.04,0.22,0.08,0.44,0.13,0.67c0.18,0.89,0.45,1.82,0.84,2.61c0.01,0.01,0.02,0.03,0.02,0.05c0.21,0.49,0.44,0.98,0.69,1.46
	l0.4,7.4c-3.45,0.09-6.96,1.05-6.96,3.04c0,0.47,0.2,0.87,0.53,1.22c0.01,0.04,0.01,0.08,0.03,0.11c0.17,0.39,0.27,1.1,0.38,1.79
	c0.17,1.14,0.35,2.32,0.89,3.06c0.63,0.87,1.55,0.8,2.17,0.76c0.31-0.02,0.6-0.04,0.74,0.05c0.19,0.14,0.49,0.66,0.72,1.04
	c0.54,0.91,1.1,1.85,2.07,1.85c0.96,0,1.52-0.94,2.06-1.85c0.23-0.38,0.54-0.9,0.73-1.04c0.13-0.09,0.42-0.07,0.74-0.05
	c0.61,0.04,1.53,0.11,2.16-0.76c0.54-0.74,0.72-1.92,0.89-3.06c0.08-0.48,0.15-0.97,0.25-1.35c2.32,0.43,4.56,0.54,6.13,0.54
	c1.27,0,2.11-0.07,2.22-0.08c0.26-0.02,0.49-0.16,0.62-0.38c0.13-0.22,0.15-0.49,0.05-0.72l-0.7-1.68c0.61,0.01,1.22,0.02,1.81,0.05
	c0.76,0.03,1.51,0.06,2.25,0.06c1.17,0,2.29-0.09,3.36-0.37l-0.69,1.88c-0.1,0.27-0.04,0.58,0.15,0.8c0.16,0.18,0.38,0.27,0.6,0.27
	c0.06,0,0.12,0,0.18-0.02l2.71-0.62c0.03-0.01,0.06-0.01,0.09-0.02l1.45-0.34c0.28-0.06,0.5-0.27,0.59-0.54l0.37-1.22l0.97-2.68
	l0.04-0.11c2.06,0.08,3.28,0.58,3.59,0.87c-0.15,0.14-0.57,0.39-1.43,0.6c-0.28,0.07-0.59,0.13-0.91,0.17
	c-0.11,0.02-0.21,0.05-0.3,0.11c-0.27,0.16-0.43,0.47-0.38,0.8c0.06,0.39,0.4,0.68,0.79,0.68c0.04,0,0.08,0,0.12-0.01
	c0.37-0.05,0.73-0.12,1.05-0.2c0.26-0.06,0.49-0.13,0.71-0.2c-0.01,0.17-0.03,0.35-0.04,0.54c-0.04,0.76-0.12,2.05-0.31,2.35
	c-0.06,0.02-0.25,0.01-0.37,0c-0.4-0.04-0.98-0.08-1.5,0.33c-0.38,0.3-0.65,0.8-0.93,1.33c-0.14,0.25-0.35,0.67-0.49,0.82
	c-0.36,0.07-0.64,0.4-0.64,0.78c0,0.44,0.36,0.8,0.8,0.8c0.87,0,1.33-0.88,1.74-1.65c0.15-0.27,0.39-0.72,0.5-0.82
	c0.06-0.02,0.26-0.01,0.39,0c0.45,0.04,1.29,0.11,1.83-0.72c0.4-0.61,0.49-1.63,0.58-3.12c0.04-0.66,0.09-1.46,0.2-1.8
	c0.18-0.27,0.24-0.55,0.24-0.79C46.04,35.02,43.82,34.25,41.32,34.07z M25.32,6.09c4.62,0,8.74,2.11,11.48,5.42
	c-1.49,1.51-2.12,1.41-2.19,1.39c-0.23-0.06-0.37-0.48-0.4-0.59c-0.06-0.9-0.35-1.51-0.86-1.85c-0.82-0.54-1.85-0.19-2.94,0.18
	c-0.45,0.15-0.91,0.3-1.37,0.41c-1.12,0.27-1.41-0.1-2.17-1.08c-0.27-0.35-0.58-0.75-0.98-1.15c-2.63-2.7-6.69-0.23-6.89-0.1
	c-0.07,0.05-1.64,1.14-1.89,2.83c-0.14,0.94,0.14,1.85,0.82,2.71c0.66,0.82,1.34,1.32,1.99,1.61c-0.57-0.03-1.32-0.17-2.27-0.53
	c-0.69-0.25-1.97-0.72-2.47,0.16c-0.25,0.44-0.61,1.08,2.63,3.89c-0.5,0.11-0.99,0.31-1.36,0.66c-0.32,0.3-0.69,0.85-0.6,1.74
	c0.16,1.46,0.83,2.96,1.33,3.92c-0.22,0-0.45-0.04-0.68-0.14c-0.45-0.21-0.8-0.65-1.03-1.3c-0.09-0.26-0.18-0.53-0.26-0.8
	c-0.5-1.51-1.06-3.23-2.46-3.94c-0.64-0.32-1.38-0.38-2.22-0.2C11.36,11.9,17.67,6.09,25.32,6.09z M16.77,41.94
	c-0.13,0.86-0.29,1.93-0.6,2.36c-0.09,0.12-0.19,0.15-0.76,0.11c-0.52-0.04-1.17-0.09-1.77,0.33c-0.47,0.33-0.82,0.91-1.18,1.53
	c-0.19,0.32-0.49,0.82-0.69,1.02c-0.2-0.2-0.5-0.7-0.69-1.02c-0.37-0.62-0.71-1.2-1.18-1.53c-0.6-0.42-1.25-0.37-1.78-0.33
	c-0.56,0.04-0.67,0.01-0.76-0.11c-0.31-0.43-0.47-1.5-0.6-2.36c-0.03-0.19-0.06-0.37-0.09-0.55c1.43,0.5,3.3,0.73,5.1,0.73
	c1.8,0,3.66-0.23,5.09-0.73C16.83,41.57,16.8,41.75,16.77,41.94z M11.77,40.52c-3.74,0-5.85-1.02-5.93-1.45
	c0.08-0.44,2.2-1.46,5.93-1.46c3.72,0,5.83,1.02,5.92,1.45C17.6,39.5,15.49,40.52,11.77,40.52z M19.26,39.32
	c0.01-0.09,0.03-0.17,0.03-0.26c0-1.9-3.19-2.86-6.48-3.02l-0.35-6.33c2.21,1.02,6.94,3.05,10.58,3.63l2.67,6.41
	C24.34,39.79,21.86,39.76,19.26,39.32z M28.79,36.96c-0.82-0.03-1.67-0.07-2.54-0.07l-1.91-4.58c-0.11-0.27-0.35-0.45-0.63-0.49
	c-4.15-0.53-10.38-3.46-11.56-4.02c-0.21-0.42-0.41-0.84-0.58-1.27c-0.01-0.03-0.01-0.07-0.03-0.1c-0.03-0.07-0.06-0.15-0.1-0.22
	c-0.24-0.65-0.46-1.3-0.61-1.98c-0.21-0.99-0.31-1.95-0.35-2.58c-0.01-0.14-0.02-0.28-0.03-0.42l0.25-0.31
	c0.55-0.15,0.99-0.13,1.33,0.04c0.8,0.41,1.24,1.73,1.66,3.01c0.09,0.28,0.18,0.56,0.27,0.83c0.39,1.09,1.03,1.84,1.9,2.23
	c1.37,0.61,2.73,0.07,2.89,0.01c0.21-0.1,0.38-0.28,0.45-0.51c0.07-0.22,0.04-0.47-0.09-0.67c-0.02-0.02-1.45-2.26-1.66-4.24
	c-0.03-0.28,0.06-0.37,0.1-0.41c0.39-0.37,1.61-0.37,2.31-0.25c0.37,0.06,0.72-0.13,0.87-0.46c0.14-0.34,0.05-0.73-0.23-0.96
	c-1.01-0.8-2.1-1.76-2.87-2.51c1.81,0.58,3.28,0.59,4.37,0.03s1.36-1.49,1.39-1.59c0.08-0.3-0.02-0.61-0.25-0.81
	c-0.22-0.2-0.55-0.25-0.83-0.14c-0.16,0.07-1.64,0.6-3.13-1.26c-0.4-0.5-0.56-0.98-0.49-1.46c0.14-1,1.18-1.74,1.18-1.74
	c0.05-0.03,3.15-1.89,4.88-0.12c0.33,0.34,0.6,0.68,0.86,1.02c0.82,1.05,1.67,2.15,3.79,1.65c0.55-0.13,1.06-0.3,1.52-0.46
	c0.51-0.17,1.36-0.45,1.54-0.35c0,0,0.12,0.11,0.17,0.7c0.02,0.16,0.28,1.57,1.52,1.93c1.01,0.3,2.19-0.23,3.6-1.62
	c1.55,2.35,2.46,5.15,2.46,8.17c0,4.34-1.07,11.58-3.42,14.07C34.74,37.21,32.12,37.1,28.79,36.96z M39.56,34.35l-1.29,3.59
	l-0.25,0.81l-0.95,0.22c-0.02,0-0.05,0.01-0.07,0.02l-1.33,0.3l0.68-1.86c0.56-0.33,1.09-0.75,1.6-1.28
	c0.87-0.93,1.57-2.3,2.12-3.89l0.15-0.05L39.56,34.35z M37.37,20c0.38,0,0.69-0.31,0.69-0.69s-0.31-0.69-0.69-0.69
	s-0.69,0.31-0.69,0.69S36.99,20,37.37,20z M32.61,17.89c-0.4,0.17-0.59,0.64-0.42,1.05c0.87,2.03,2.2,5.41,2.31,6.36
	c-0.01,0.17-0.23,0.57-0.39,0.71c-0.46,0.02-1.31-0.25-2.01-0.47c-0.36-0.11-0.72-0.23-1.07-0.32c-0.43-0.12-0.86,0.13-0.98,0.56
	c-0.12,0.42,0.13,0.86,0.56,0.98c0.33,0.09,0.66,0.2,1,0.3c0.88,0.29,1.73,0.55,2.45,0.55c0.13,0,0.27-0.01,0.39-0.03
	c0.89-0.14,1.74-1.58,1.64-2.44c-0.18-1.51-2.2-6.29-2.43-6.83C33.49,17.9,33.02,17.71,32.61,17.89z M35.16,30.59h-4.27
	c-1.04,0-1.88-0.41-1.9-0.43c-0.4-0.2-0.88-0.04-1.08,0.35c-0.2,0.4-0.04,0.88,0.35,1.08c0.05,0.03,1.18,0.6,2.63,0.6h4.27
	c0.44,0,0.8-0.36,0.8-0.8C35.96,30.94,35.6,30.59,35.16,30.59z M26.2,18.62c-0.38,0-0.69,0.31-0.69,0.69S25.82,20,26.2,20
	s0.69-0.31,0.69-0.69S26.58,18.62,26.2,18.62z"/>
</svg>
