<?xml version="1.0" encoding="utf-8"?>
<!-- Generator: Adobe Illustrator 22.1.0, SVG Export Plug-In . SVG Version: 6.00 Build 0)  -->
<svg version="1.1" id="Layer_1" xmlns="http://www.w3.org/2000/svg" xmlns:xlink="http://www.w3.org/1999/xlink" x="0px" y="0px"
	 viewBox="0 0 50.5 50.5" style="enable-background:new 0 0 50.5 50.5;" xml:space="preserve">
<style type="text/css">
	.st0{fill:#12B5E1;}
</style>
<g>
	<path class="st0" d="M46.7,39.2l-8.2-29c-0.1-0.2-0.2-0.4-0.4-0.5c-0.2-0.1-0.5-0.1-0.7-0.1l-7.3,2.1V7.4c0-0.5-0.4-0.9-0.9-0.9
		h-8.1v-3c0-0.5-0.4-0.9-0.9-0.9h-5.6c-0.5,0-0.9,0.4-0.9,0.9v3H4.6c-0.5,0-0.9,0.4-0.9,0.9v34.5c0,0.5,0.4,0.9,0.9,0.9h9.9
		c0,0,0,0,0,0c0,0,0,0,0,0h5.6c0,0,0,0,0,0c0,0,0,0,0,0h8.9c0.5,0,0.9-0.4,0.9-0.9V18.8l5.2,18.2c0,0,0,0,0,0c0,0,0,0,0,0l1.5,5.1
		c0.1,0.2,0.2,0.4,0.4,0.5c0.1,0.1,0.3,0.1,0.4,0.1c0.1,0,0.2,0,0.2,0l8.3-2.4C46.6,40.2,46.9,39.7,46.7,39.2z M31.9,18.8l6.6-1.9
		l4.8,16.8l-6.6,1.9L31.9,18.8z M37,11.6l1,3.6l-6.6,1.9l-1-3.6L37,11.6z M13.6,15.8H5.5v-1.2h8.1V15.8z M5.5,17.6h8.1v17.2H5.5
		V17.6z M15.5,11.1h3.8v21.6h-3.8V11.1z M21.2,14.6h7.1v20.2h-7.1V14.6z M28.3,8.3v4.6h-7.1V8.3H28.3z M19.3,4.3v5h-3.8v-5H19.3z
		 M13.6,8.3v4.6H5.5V8.3H13.6z M5.5,41v-4.3h8.1V41H5.5z M15.5,41v-6.5h3.8V41H15.5z M21.2,41v-4.3h7.1V41H21.2z M38.2,40.7l-1-3.4
		l6.6-1.9l1,3.4L38.2,40.7z"/>
	<path class="st0" d="M26.4,20.8h-3.3c-0.5,0-0.9,0.4-0.9,0.9v5.8c0,0.5,0.4,0.9,0.9,0.9h3.3c0.5,0,0.9-0.4,0.9-0.9v-5.8
		C27.3,21.2,26.9,20.8,26.4,20.8z M25.5,26.6H24v-4h1.5V26.6z"/>
</g>
</svg>
