<?xml version="1.0" encoding="utf-8"?>
<!-- Generator: Adobe Illustrator 22.1.0, SVG Export Plug-In . SVG Version: 6.00 Build 0)  -->
<svg version="1.1" id="Layer_1" xmlns="http://www.w3.org/2000/svg" xmlns:xlink="http://www.w3.org/1999/xlink" x="0px" y="0px"
	 viewBox="0 0 50.5 50.5" style="enable-background:new 0 0 50.5 50.5;" xml:space="preserve">
<style type="text/css">
	.st0{fill:#10B4E0;}
</style>
<title>declaración jurada declaracion-jurada-rectificativa</title>
<g>
	<path class="st0" d="M37.2,2.6H23.7c-1.4,0-2.6,0.7-3.2,1.9c0,0.1-0.1,0.1-0.1,0.2l-1.7,6l-1.6,0.9L16.6,11l1.4-0.8
		c0.4-0.3,0.6-0.8,0.3-1.2l-1.6-2.7c-0.3-0.5-0.7-0.8-1.3-1c-0.5-0.1-1.1-0.1-1.6,0.2L8.1,8.9c-1,0.6-1.3,1.9-0.7,2.9L9,14.5
		c0.1,0.2,0.3,0.4,0.6,0.4c0.1,0,0.1,0,0.2,0c0.2,0,0.3,0,0.5-0.1l1.4-0.9l0.4,0.7l-1.3,0.8c-2.1,1.4-2.1,3.3-2.1,5.2v23.6
		c0,2.1,1.7,3.9,3.9,3.9h26.8c2.1,0,3.9-1.7,3.9-3.9V8.5C43.1,5.2,40.5,2.6,37.2,2.6z M10.1,12.8L9,10.9c-0.1-0.1,0-0.3,0.1-0.4
		l5.7-3.4c0.1,0,0.1,0,0.1,0c0,0,0.1,0,0.1,0c0,0,0.1,0,0.2,0.1l1.1,1.9L10.1,12.8z M41.3,44.2c0,1.1-0.9,2.1-2.1,2.1H12.5
		c-1.1,0-2.1-0.9-2.1-2.1V20.6c0-2,0.1-2.8,1.3-3.6l2.1-1.2c0.4-0.3,0.6-0.8,0.3-1.2L13.2,13l1.8-1.1l0.9,1.4
		c0.3,0.4,0.8,0.5,1.2,0.3l2.6-1.6c0.2-0.1,0.3-0.3,0.4-0.5L22,5.3c0.3-0.6,0.9-0.9,1.6-0.9h13.6c2.3,0,4.1,1.8,4.1,4.1V44.2z"/>
	<path class="st0" d="M36,6.2H24.7c-0.4,0-0.7,0.3-0.9,0.6l-1.3,4c-0.1,0.3,0,0.6,0.1,0.8c0.2,0.2,0.4,0.4,0.7,0.4h14.4
		c0.5,0,0.9-0.4,0.9-0.9V8.9C38.7,7.4,37.5,6.2,36,6.2z M36.9,10.2H24.6L25.4,8H36c0.5,0,0.9,0.4,0.9,0.9V10.2z"/>
	<path class="st0" d="M34.6,20.3c-0.4-0.3-1-0.2-1.3,0.2l-2.6,3.5c-0.6-0.3-1.2-0.5-1.9-0.5h-6c-0.7,0-1.3,0.2-1.9,0.5l-2.6-3.5
		c-0.3-0.4-0.9-0.5-1.3-0.2c-0.4,0.3-0.5,0.9-0.2,1.3l2.7,3.7c-0.4,0.6-0.6,1.3-0.6,2.1v6.8c0,0.8,0.2,1.5,0.6,2.1L17,39.9
		c-0.3,0.4-0.2,1,0.2,1.3c0.2,0.1,0.3,0.2,0.5,0.2c0.3,0,0.5-0.1,0.7-0.4l2.6-3.6c0.5,0.3,1.2,0.5,1.8,0.5h6c0.7,0,1.3-0.2,1.8-0.5
		l2.6,3.6c0.2,0.2,0.4,0.4,0.7,0.4c0.2,0,0.4-0.1,0.5-0.2c0.4-0.3,0.5-0.9,0.2-1.3l-2.7-3.7c0.4-0.6,0.6-1.3,0.6-2.1v-6.8
		c0-0.8-0.2-1.5-0.6-2.1l2.7-3.7C35.1,21.2,35,20.6,34.6,20.3z M28.9,36.1h-6c-1.1,0-2-0.9-2-2v-6.8c0-1.1,0.9-2,2-2h6
		c1.1,0,2,0.9,2,2v6.8C30.9,35.2,30,36.1,28.9,36.1z"/>
</g>
</svg>
