<?xml version="1.0" encoding="utf-8"?>
<!-- Generator: Adobe Illustrator 22.1.0, SVG Export Plug-In . SVG Version: 6.00 Build 0)  -->
<svg version="1.1" id="Layer_1" xmlns="http://www.w3.org/2000/svg" xmlns:xlink="http://www.w3.org/1999/xlink" x="0px" y="0px"
	 viewBox="0 0 50.5 50.5" style="enable-background:new 0 0 50.5 50.5;" xml:space="preserve">
<style type="text/css">
	.st0{fill:#12B5E1;}
</style>
<title>energia solar casa</title>
<g>
	<g>
		<path class="st0" d="M29.3,33c0,2.8,2.3,5.1,5.1,5.1h12.1V27.9H34.4C31.6,27.9,29.3,30.2,29.3,33z M36.5,33c0,1.1-0.9,2-2,2
			s-2-0.9-2-2c0-1.1,0.9-2,2-2S36.5,31.9,36.5,33z"/>
		<path class="st0" d="M31.9,4.3C31.3,3.5,30.4,3,29.5,3c-0.6,0-1.2,0.2-1.7,0.5L11.6,15.1L35.3,9L31.9,4.3z"/>
		<path class="st0" d="M43.5,16.4c0.1,0,0.2,0,0.3,0l-1.1-4.2c-0.3-1.3-1.5-2.2-2.9-2.2c-0.2,0-0.5,0-0.7,0.1l-24.4,6.3H43.5z"/>
		<path class="st0" d="M43.5,18.5H6.9c-0.1,0-0.2,0-0.3,0l-0.2,0c0,0,0,0,0,0C5.1,18.8,4,20,4,21.5v23c0,1.6,1.3,2.9,2.9,2.9h36.6
			c1.6,0,2.9-1.3,2.9-2.9v-4.4H34.4c-3.9,0-7.1-3.2-7.1-7.1c0-3.9,3.2-7.1,7.1-7.1h12.1v-4.4C46.5,19.9,45.1,18.5,43.5,18.5z"/>
	</g>
</g>
</svg>
