<?xml version="1.0" encoding="utf-8"?>
<!-- Generator: Adobe Illustrator 22.1.0, SVG Export Plug-In . SVG Version: 6.00 Build 0)  -->
<svg version="1.1" id="Layer_1" xmlns="http://www.w3.org/2000/svg" xmlns:xlink="http://www.w3.org/1999/xlink" x="0px" y="0px"
	 viewBox="0 0 50.5 50.5" style="enable-background:new 0 0 50.5 50.5;" xml:space="preserve">
<style type="text/css">
	.st0{fill:#12B5E1;}
</style>
<title>energia solar casa</title>
<g>
	<path class="st0" d="M31.5,32.3c0,1.1,0.9,2.1,2.1,2.1c1.1,0,2.1-0.9,2.1-2.1c0-1.1-0.9-2.1-2.1-2.1C32.5,30.2,31.5,31.2,31.5,32.3
		z"/>
	<path class="st0" d="M44.2,18C44.2,18,44.2,18,44.2,18l-1.3-5c-0.5-2-2.3-3.4-4.4-3.4h0c-0.4,0-0.8,0-1.1,0.1l-1.1,0.3l-3.5-4.9
		c-0.8-1.2-2.2-1.9-3.7-1.9h0c-1,0-1.9,0.3-2.6,0.8L7.9,17.4c-2.1,0.4-3.7,2.2-3.7,4.5v20.8c0,2.5,2,4.5,4.5,4.5h33
		c2.5,0,4.5-2,4.5-4.5v-3.9v-1.9v-9.1v-1.9v-3.9C46.3,20.2,45.4,18.8,44.2,18z M37.8,11.6c0.2-0.1,0.4-0.1,0.7-0.1
		c1.2,0,2.3,0.8,2.6,2l1,3.8c-0.1,0-0.2,0-0.3,0h-26L37.8,11.6z M27.5,5.7c0.5-0.3,1-0.5,1.5-0.5c0.8,0,1.7,0.4,2.2,1.1l3,4.3
		L13,16.1L27.5,5.7z M44.4,36.8H33.5c-2.5,0-4.6-2-4.6-4.6c0-2.5,2-4.6,4.6-4.6h10.9V36.8z M44.4,25.8H33.5c-3.6,0-6.5,2.9-6.5,6.5
		c0,3.6,2.9,6.5,6.5,6.5h10.9v3.9c0,1.5-1.2,2.7-2.7,2.7h-33c-1.5,0-2.7-1.2-2.7-2.7V21.8c0-1.3,1-2.4,2.3-2.6c0,0,0,0,0,0l0.1,0
		c0.1,0,0.2,0,0.3,0h33c1.5,0,2.7,1.2,2.7,2.7V25.8z"/>
</g>
</svg>
