<?xml version="1.0" encoding="utf-8"?>
<!-- Generator: Adobe Illustrator 24.0.1, SVG Export Plug-In . SVG Version: 6.00 Build 0)  -->
<svg version="1.1" id="Layer_1" xmlns="http://www.w3.org/2000/svg" xmlns:xlink="http://www.w3.org/1999/xlink" x="0px" y="0px"
	 viewBox="0 0 50.5 50.5" style="enable-background:new 0 0 50.5 50.5;" xml:space="preserve">
<style type="text/css">
	.st0{fill:#1D1D1B;}
</style>
<g>
	<path d="M43.771,17.996c-0.939,0-1.723,0.654-1.935,1.528h-5.42v-2.569h1.472c0.212,0.874,0.997,1.528,1.936,1.528
		c1.101,0,1.997-0.896,1.997-1.996c0-1.101-0.896-1.997-1.997-1.997c-0.939,0-1.724,0.654-1.936,1.528h-1.471v-2.595h5.42
		c0.212,0.875,0.996,1.528,1.935,1.528c1.101,0,1.997-0.896,1.997-1.997c0-1.101-0.896-1.996-1.997-1.996
		c-0.939,0-1.723,0.654-1.935,1.528h-5.42v-1.554c0-0.286-0.152-0.55-0.399-0.693L26.42,4.699c-0.249-0.143-0.554-0.142-0.8,0
		l-9.597,5.541c-0.248,0.143-0.4,0.407-0.4,0.693v1.554h-5.551c-0.212-0.874-0.996-1.528-1.935-1.528
		c-1.101,0-1.996,0.896-1.996,1.996c0,1.101,0.896,1.997,1.996,1.997c0.939,0,1.723-0.654,1.935-1.528h5.551v2.595h-1.603
		c-0.212-0.875-0.996-1.528-1.935-1.528c-1.101,0-1.996,0.896-1.996,1.997c0,1.101,0.896,1.996,1.996,1.996
		c0.939,0,1.723-0.654,1.935-1.528h1.603v2.569h-5.551c-0.212-0.874-0.996-1.528-1.935-1.528c-1.101,0-1.996,0.896-1.996,1.996
		s0.896,1.996,1.996,1.996c0.939,0,1.723-0.654,1.935-1.528h5.551v1.101l-9.197,5.311c-0.248,0.143-0.4,0.406-0.4,0.692v11.081
		c0,0.286,0.152,0.55,0.4,0.692l9.597,5.541c0.124,0.072,0.262,0.107,0.4,0.107s0.276-0.035,0.4-0.107l9.598-5.541
		c0.247-0.143,0.399-0.406,0.399-0.692v-1.554h5.419c0.212,0.874,0.997,1.528,1.936,1.528c1.101,0,1.996-0.896,1.996-1.997
		s-0.896-1.996-1.996-1.996c-0.938,0-1.723,0.653-1.936,1.527h-5.419v-2.568h1.472c0.212,0.874,0.997,1.528,1.936,1.528
		c1.101,0,1.996-0.896,1.996-1.997s-0.896-1.997-1.996-1.997c-0.938,0-1.723,0.654-1.936,1.528h-1.472v-2.594h5.419
		c0.212,0.874,0.997,1.528,1.936,1.528c1.101,0,1.996-0.896,1.996-1.997s-0.896-1.996-1.996-1.996c-0.938,0-1.723,0.653-1.936,1.527
		h-5.419v-1.1l9.197-5.31c0.247-0.143,0.399-0.407,0.399-0.693V20.46h5.42c0.212,0.874,0.996,1.528,1.935,1.528
		c1.101,0,1.997-0.896,1.997-1.996S44.871,17.996,43.771,17.996z M39.823,15.426c0.585,0,1.06,0.476,1.06,1.06
		s-0.475,1.06-1.06,1.06s-1.06-0.475-1.06-1.06S39.238,15.426,39.823,15.426z M43.771,11.896c0.585,0,1.06,0.475,1.06,1.06
		s-0.475,1.06-1.06,1.06c-0.584,0-1.059-0.476-1.059-1.06S43.187,11.896,43.771,11.896z M8.137,14.015
		c-0.584,0-1.06-0.476-1.06-1.06s0.475-1.06,1.06-1.06s1.06,0.475,1.06,1.06S8.721,14.015,8.137,14.015z M12.084,17.546
		c-0.584,0-1.06-0.475-1.06-1.06s0.475-1.06,1.06-1.06s1.06,0.476,1.06,1.06S12.668,17.546,12.084,17.546z M8.137,21.052
		c-0.584,0-1.06-0.475-1.06-1.06s0.475-1.06,1.06-1.06s1.06,0.475,1.06,1.06S8.721,21.052,8.137,21.052z M34.174,35.564
		c0.584,0,1.059,0.475,1.059,1.059c0,0.585-0.475,1.06-1.059,1.06c-0.585,0-1.06-0.475-1.06-1.06
		C33.114,36.039,33.589,35.564,34.174,35.564z M30.227,32.058c0.584,0,1.059,0.475,1.059,1.06s-0.475,1.06-1.059,1.06
		c-0.585,0-1.06-0.475-1.06-1.06S29.642,32.058,30.227,32.058z M34.174,28.527c0.584,0,1.059,0.475,1.059,1.059
		c0,0.585-0.475,1.06-1.059,1.06c-0.585,0-1.06-0.475-1.06-1.06C33.114,29.002,33.589,28.527,34.174,28.527z M25.22,38.184
		l-8.797,5.079l-8.797-5.079V28.026l8.797-5.08l8.797,5.08V38.184z M34.816,21.553l-8.797,5.079l-8.797-5.079V11.395l8.797-5.079
		l8.797,5.079V21.553z M43.771,21.052c-0.584,0-1.059-0.475-1.059-1.06s0.475-1.06,1.059-1.06c0.585,0,1.06,0.475,1.06,1.06
		S44.355,21.052,43.771,21.052z"/>
	<path d="M23.368,16.474c0,1.462,1.189,2.652,2.652,2.652c1.462,0,2.651-1.189,2.651-2.652c0-1.462-1.189-2.651-2.651-2.651
		C24.557,13.822,23.368,15.012,23.368,16.474z M27.733,16.474c0,0.946-0.769,1.715-1.714,1.715c-0.946,0-1.715-0.77-1.715-1.715
		c0-0.945,0.77-1.715,1.715-1.715C26.965,14.759,27.733,15.528,27.733,16.474z"/>
	<path d="M14.777,27.035c0,1.069,0.871,1.94,1.94,1.94s1.94-0.871,1.94-1.94c0-1.07-0.87-1.94-1.94-1.94
		S14.777,25.965,14.777,27.035z M16.717,26.032c0.553,0,1.003,0.449,1.003,1.003s-0.45,1.003-1.003,1.003
		c-0.554,0-1.004-0.449-1.004-1.003S16.164,26.032,16.717,26.032z"/>
	<path d="M12.769,33.512c0.016,0.001,0.031,0.001,0.046,0.001c0.479,0,0.933-0.182,1.281-0.514c0.359-0.342,0.564-0.804,0.576-1.3
		s-0.17-0.968-0.512-1.328l-1.746-1.833c-0.706-0.742-1.885-0.771-2.627-0.063c-0.36,0.342-0.564,0.804-0.577,1.301
		c-0.012,0.496,0.17,0.968,0.512,1.327l1.745,1.833C11.81,33.295,12.272,33.5,12.769,33.512z M10.146,29.798
		c0.006-0.246,0.107-0.476,0.286-0.646c0.178-0.169,0.408-0.254,0.636-0.254c0.244,0,0.487,0.096,0.667,0.286l1.746,1.833
		c0.17,0.179,0.261,0.412,0.254,0.658c-0.006,0.246-0.107,0.476-0.286,0.646h0c-0.178,0.17-0.419,0.281-0.658,0.254
		c-0.247-0.006-0.476-0.107-0.646-0.286L10.4,30.456C10.23,30.278,10.14,30.044,10.146,29.798z"/>
	<path d="M13.695,35.456c-0.738-0.696-2.259-1.612-3.299-0.641c-0.509,0.479-0.754,1.11-0.671,1.733
		c0.071,0.534,0.382,0.996,0.831,1.235c0.574,0.305,0.85,0.494,1.076,1.028c0.241,0.571,0.8,0.91,1.428,0.91
		c0.171,0,0.347-0.025,0.523-0.078c0.728-0.216,1.374-0.927,1.177-2.028C14.515,36.251,13.788,35.542,13.695,35.456z M13.316,38.747
		c-0.305,0.089-0.688,0.017-0.822-0.3c-0.352-0.832-0.843-1.143-1.499-1.49c-0.183-0.098-0.311-0.296-0.342-0.532
		c-0.025-0.188-0.008-0.558,0.384-0.926c0.125-0.118,0.279-0.165,0.444-0.165c0.678,0,1.562,0.795,1.572,0.805
		c0.001,0.001,0.006,0.006,0.007,0.007c0.023,0.021,0.581,0.545,0.776,1.637C13.965,38.496,13.471,38.701,13.316,38.747z"/>
	<path d="M18.003,34.26c-1.526,0.694-1.453,1.977-1.205,2.547c0.026,0.065,0.639,1.539,2.106,1.539c0.066,0,0.135-0.003,0.205-0.009
		c1.6-0.145,2.854-1.585,3.46-2.431c0.97-1.354,1.321-2.417,1.338-4.06c0.011-0.97-0.755-1.791-1.781-1.911
		c-0.876-0.108-2.028,0.351-2.393,1.965c-0.421,1.868-1.629,2.322-1.688,2.343C18.032,34.248,18.018,34.254,18.003,34.26z
		 M21.37,35.913l-1.844-1.612c0.266-0.28,0.529-0.653,0.752-1.132l2.245,0.938c-0.177,0.405-0.397,0.809-0.716,1.253
		C21.666,35.56,21.519,35.741,21.37,35.913z M22.019,30.865c0.467,0.055,0.959,0.414,0.953,0.972
		c-0.006,0.522-0.065,0.961-0.157,1.378l-2.221-0.928c0.017-0.063,0.04-0.115,0.055-0.181
		C20.841,31.251,21.355,30.783,22.019,30.865z M18.795,34.907l1.914,1.672c-0.566,0.484-1.146,0.776-1.684,0.824
		c-0.92,0.097-1.342-0.907-1.361-0.954c-0.057-0.141-0.291-0.865,0.711-1.329C18.439,35.096,18.595,35.029,18.795,34.907z"/>
	<path class="st0" d="M13.263,28.119c0.38,0,0.692-0.311,0.692-0.692c0-0.38-0.311-0.692-0.692-0.692
		c-0.381,0-0.692,0.311-0.692,0.692C12.571,27.808,12.882,28.119,13.263,28.119z"/>
	<path class="st0" d="M20.572,28.811c0.38,0,0.692-0.311,0.692-0.692c0-0.381-0.311-0.692-0.692-0.692
		c-0.381,0-0.692,0.311-0.692,0.692C19.88,28.499,20.192,28.811,20.572,28.811z"/>
	<path class="st0" d="M17.828,31.589c0-0.38-0.311-0.692-0.692-0.692c-0.381,0-0.692,0.311-0.692,0.692
		c0,0.381,0.311,0.692,0.692,0.692C17.517,32.281,17.828,31.97,17.828,31.589z"/>
	<path class="st0" d="M8.973,32.281c-0.38,0-0.692,0.311-0.692,0.692c0,0.381,0.311,0.692,0.692,0.692
		c0.381,0,0.692-0.311,0.692-0.692C9.665,32.592,9.353,32.281,8.973,32.281z"/>
	<path class="st0" d="M23.212,36.964c-0.38,0-0.692,0.311-0.692,0.692c0,0.38,0.311,0.692,0.692,0.692
		c0.381,0,0.692-0.311,0.692-0.692C23.903,37.275,23.592,36.964,23.212,36.964z"/>
	<path class="st0" d="M16.717,39.456c-0.381,0-0.692,0.311-0.692,0.692c0,0.38,0.311,0.692,0.692,0.692
		c0.38,0,0.692-0.311,0.692-0.692C17.409,39.767,17.098,39.456,16.717,39.456z"/>
	<path d="M24.041,10.671c0,0.158,0.024,0.309,0.06,0.455l-1.841,1.063c-0.351-0.347-0.832-0.562-1.363-0.562
		c-1.07,0-1.94,0.87-1.94,1.94c0,0.908,0.63,1.667,1.474,1.877v2.069c-0.844,0.21-1.474,0.969-1.474,1.877
		c0,1.07,0.871,1.94,1.94,1.94c0.535,0,1.02-0.217,1.371-0.569l1.834,1.059c-0.036,0.147-0.06,0.298-0.06,0.456
		c0,1.07,0.87,1.94,1.94,1.94s1.941-0.871,1.941-1.94c0-0.144-0.018-0.283-0.048-0.419l1.898-1.096
		c0.351,0.351,0.836,0.568,1.371,0.568c1.069,0,1.94-0.87,1.94-1.94c0-0.908-0.63-1.667-1.474-1.877v-2.069
		c0.844-0.21,1.474-0.969,1.474-1.877c0-1.07-0.871-1.94-1.94-1.94c-0.531,0-1.013,0.215-1.363,0.562l-1.905-1.1
		c0.03-0.135,0.048-0.274,0.048-0.418c0-1.07-0.871-1.94-1.941-1.94S24.041,9.602,24.041,10.671z M26.984,10.671
		c0,0.553-0.45,1.003-1.003,1.003s-1.003-0.45-1.003-1.003c0-0.554,0.45-1.004,1.003-1.004S26.984,10.118,26.984,10.671z
		 M19.892,13.567c0-0.553,0.45-1.003,1.004-1.003c0.553,0,1.003,0.45,1.003,1.003s-0.45,1.003-1.003,1.003
		C20.342,14.571,19.892,14.121,19.892,13.567z M20.896,20.394c-0.554,0-1.004-0.45-1.004-1.003c0-0.554,0.45-1.004,1.004-1.004
		c0.553,0,1.003,0.45,1.003,1.004C21.899,19.944,21.449,20.394,20.896,20.394z M26.984,22.276c0,0.554-0.45,1.004-1.003,1.004
		s-1.003-0.45-1.003-1.004c0-0.553,0.45-1.003,1.003-1.003S26.984,21.723,26.984,22.276z M32.146,19.391
		c0,0.553-0.449,1.003-1.003,1.003s-1.003-0.45-1.003-1.003c0-0.554,0.449-1.004,1.003-1.004S32.146,18.837,32.146,19.391z
		 M31.143,12.564c0.554,0,1.003,0.45,1.003,1.003s-0.449,1.003-1.003,1.003s-1.003-0.45-1.003-1.003S30.589,12.564,31.143,12.564z
		 M29.298,12.994c-0.057,0.182-0.096,0.372-0.096,0.573c0,0.907,0.628,1.664,1.47,1.875v2.072c-0.842,0.212-1.47,0.969-1.47,1.876
		c0,0.198,0.038,0.385,0.094,0.564l-1.847,1.067c-0.356-0.416-0.879-0.685-1.468-0.685c-0.575,0-1.087,0.256-1.442,0.655
		l-1.796-1.037c0.055-0.18,0.093-0.367,0.093-0.564c0-0.907-0.628-1.664-1.47-1.876v-2.071c0.842-0.212,1.47-0.969,1.47-1.876
		c0-0.201-0.039-0.391-0.096-0.573l1.799-1.039c0.356,0.399,0.867,0.655,1.443,0.655c0.589,0,1.112-0.269,1.468-0.685L29.298,12.994
		z"/>
</g>
</svg>
