<svg id="Layer_1" data-name="Layer 1" xmlns="http://www.w3.org/2000/svg" viewBox="0 0 50.46 50.46"><defs><style>.cls-1{fill:#12b5e1;}</style></defs><title>bolsa_dinero</title><path class="cls-1" d="M10.62,17.48V17h.47a.64.64,0,1,0,0-1.27h-.47v-.47a.64.64,0,1,0-1.27,0v.47H8.88a.64.64,0,1,0,0,1.27h.47v.47a.64.64,0,1,0,1.27,0Z"/><path class="cls-1" d="M41.58,5.84h-.47V5.37a.64.64,0,1,0-1.27,0v.47h-.47a.64.64,0,0,0,0,1.28h.47v.47a.64.64,0,1,0,1.27,0V7.12h.47a.64.64,0,1,0,0-1.28Z"/><circle class="cls-1" cx="12.46" cy="5.1" r="0.73"/><circle class="cls-1" cx="39.74" cy="26.26" r="0.73"/><path class="cls-1" d="M25.08,33.12V29.84a6,6,0,0,1,1.76.75,1,1,0,0,0,.51.15.94.94,0,0,0,1-.94A.93.93,0,0,0,27.8,29,6.32,6.32,0,0,0,25.15,28v-.37a.73.73,0,0,0-.73-.74.76.76,0,0,0-.76.74V28c-2.13.17-3.58,1.43-3.58,3.26s1.16,2.87,3.65,3.52v3.36A6.09,6.09,0,0,1,21.2,37a.9.9,0,0,0-.56-.19.93.93,0,0,0-.94.94.94.94,0,0,0,.46.82,7.25,7.25,0,0,0,3.5,1.33V41a.76.76,0,0,0,.76.74.73.73,0,0,0,.73-.74V40c2.17-.21,3.64-1.45,3.64-3.33S27.68,33.77,25.08,33.12Zm-1.35-.36c-1.31-.43-1.64-.87-1.64-1.59s.55-1.33,1.64-1.43Zm1.35,5.48V35.13c1.32.41,1.69.87,1.69,1.63S26.17,38.12,25.08,38.24Z"/><path class="cls-1" d="M31.38,21.77a2.39,2.39,0,0,0-.56-3.87L33.68,15l0-.05a2.52,2.52,0,0,0,.2-3,2.3,2.3,0,0,0-2.57-1l-2.17.65a.85.85,0,0,0,.49,1.63l2.13-.63a.6.6,0,0,1,.68.29.85.85,0,0,1,0,1l-3.72,3.82H19.78L16.06,13.8a.83.83,0,0,1,0-1,.57.57,0,0,1,.67-.29l1.94.5c1.87.48,3.3-1.6,4.21-3.21l.42-.75a1.31,1.31,0,0,1,1.15-.61.86.86,0,0,1,.77.38l.08.14a36.14,36.14,0,0,1,1.37,5,.85.85,0,0,0,1,.66.84.84,0,0,0,.66-1,32.57,32.57,0,0,0-1.55-5.54L26.67,8a2.54,2.54,0,0,0-2.26-1.25,3,3,0,0,0-2.64,1.48L21.35,9c-1.36,2.42-2.1,2.45-2.29,2.4l-1.95-.5a2.28,2.28,0,0,0-2.54,1,2.54,2.54,0,0,0,.2,3l0,.05,2.86,2.93a2.39,2.39,0,0,0-.56,3.87L10.65,35.08a8.08,8.08,0,0,0,.55,7.63,7.06,7.06,0,0,0,5.88,3.38H31.43a7,7,0,0,0,5.86-3.38,8.1,8.1,0,0,0,.54-7.66Zm4.47,20a5.38,5.38,0,0,1-4.44,2.6H17.1a5.38,5.38,0,0,1-4.46-2.6,6.37,6.37,0,0,1-.44-6l6.49-13.37h5.39a.86.86,0,1,0,0-1.71H18.77a.7.7,0,0,1-.7-.7.7.7,0,0,1,.7-.71h11a.71.71,0,0,1,.71.71.7.7,0,0,1-.71.7h-.93a.86.86,0,0,0,0,1.71h1l6.48,13.34A6.4,6.4,0,0,1,35.85,41.79Z"/><path class="cls-1" d="M26.09,22.44h.1a.86.86,0,0,0,0-1.71h-.1a.86.86,0,0,0,0,1.71Z"/></svg>