<?xml version="1.0" encoding="utf-8"?>
<!-- Generator: Adobe Illustrator 24.2.1, SVG Export Plug-In . SVG Version: 6.00 Build 0)  -->
<svg version="1.1" id="Capa_1" xmlns="http://www.w3.org/2000/svg" xmlns:xlink="http://www.w3.org/1999/xlink" x="0px" y="0px"
	 viewBox="0 0 50.5 50.5" style="enable-background:new 0 0 50.5 50.5;" xml:space="preserve">
<g>
	<path d="M13.381,24.095c-0.691,1.832-1.411,3.251-2.466,5.329c-0.142,0.279-0.107,0.615,0.087,0.86
		c0.154,0.193,0.386,0.302,0.626,0.302c0.064,0,0.129-0.008,0.193-0.023c0.04-0.01,4.047-0.982,8.01-0.347
		c1.598,0.868,3.397,1.34,5.263,1.34c1.893,0,3.718-0.487,5.334-1.381c3.874-0.547,7.686,0.378,7.725,0.388
		c0.059,0.014,0.117,0.021,0.174,0.021c0.244,0,0.476-0.123,0.634-0.321c0.195-0.245,0.219-0.603,0.077-0.882
		c-1.02-2.009-1.727-3.403-2.403-5.178c0.368-0.225,0.714-0.484,1.022-0.784c1.097-1.072,1.701-2.501,1.701-4.024
		c0-3.184-1.794-5.962-4.442-7.425c-0.015-4.029-2.735-7.425-6.435-8.478l-0.32-1.597c-0.075-0.374-0.403-0.643-0.784-0.643H22.81
		c-0.381,0-0.709,0.269-0.784,0.643l-0.32,1.597c-3.696,1.053-6.416,4.445-6.434,8.47c-0.684,0.378-1.322,0.844-1.89,1.403
		c-1.646,1.598-2.553,3.74-2.553,6.03C10.829,21.31,11.824,23.059,13.381,24.095z M13.076,28.696
		c0.672-1.344,1.219-2.519,1.753-3.917c0.053,0.017,0.103,0.042,0.157,0.057c0.535,1.323,1.343,2.532,2.399,3.566
		C15.691,28.369,14.16,28.529,13.076,28.696z M25.096,29.956c-2.412,0-4.7-0.902-6.443-2.542c-1.557-1.459-2.512-3.354-2.763-5.419
		c0.068-0.639,0.226-1.258,0.466-1.844c0.411,0.16,0.916,0.25,1.505,0.25c0.023,0,0.046,0,0.069,0
		c2.398-0.027,5.203-1.467,6.127-4.607h0.269c0.063,0.301,0.23,0.622,0.532,0.974c1.149,1.338,4.137,3.243,7.677,3.243
		c0.369,0,0.745-0.021,1.125-0.065c0.026-0.003,0.046-0.018,0.07-0.023c0.295,0.648,0.494,1.346,0.572,2.08
		c-0.254,2.072-1.215,3.971-2.782,5.431C29.779,29.06,27.497,29.956,25.096,29.956z M17.153,18.73
		c0.229-0.315,0.481-0.617,0.766-0.895c1.202-1.176,2.758-1.875,4.43-2.012c-0.734,1.823-2.228,2.525-3.109,2.777
		C18.333,18.861,17.586,18.827,17.153,18.73z M26.126,15.794h1.113c2.242,0,4.242,1.022,5.544,2.61
		C29.528,18.505,26.937,16.681,26.126,15.794z M36.901,28.696c-1.037-0.159-2.483-0.315-4.091-0.299
		c1.03-1.014,1.832-2.218,2.371-3.533C35.703,26.221,36.242,27.375,36.901,28.696z M33.282,11.268
		c-0.828-0.257-1.709-0.398-2.623-0.398h-0.697l-1.116-5.568C31.254,6.307,33.01,8.571,33.282,11.268z M23.466,2.851h3.257
		l1.608,8.02h-6.473L23.466,2.851z M21.342,5.303l-1.116,5.567h-0.707c-0.901,0-1.779,0.137-2.613,0.393
		C17.18,8.569,18.936,6.306,21.342,5.303z M14.501,14.508c1.334-1.314,3.117-2.038,5.019-2.038h11.14c3.915,0,7.1,3.106,7.1,6.924
		c0,1.089-0.433,2.111-1.219,2.879c-0.184,0.18-0.385,0.342-0.601,0.486c0-0.014,0-0.027,0-0.041c0-4.701-3.902-8.524-8.7-8.524
		h-4.29c-2.319,0-4.503,0.886-6.149,2.496c-1.645,1.608-2.551,3.749-2.551,6.028c0,0.012,0,0.025,0,0.037
		c-1.113-0.747-1.82-1.997-1.82-3.362C12.429,17.54,13.163,15.807,14.501,14.508z"/>
	<path d="M26.866,7.412c-0.072-0.225-0.239-0.407-0.457-0.497l-0.841-0.347c-0.195-0.081-0.415-0.081-0.61,0l-0.841,0.347
		c-0.218,0.09-0.385,0.272-0.457,0.497c-0.072,0.225-0.041,0.47,0.085,0.669l0.841,1.333c0.146,0.232,0.402,0.373,0.677,0.373
		c0.275,0,0.53-0.141,0.677-0.373l0.841-1.333C26.906,7.882,26.937,7.637,26.866,7.412z"/>
	<path d="M31.741,31.446c-0.256-0.168-0.584-0.178-0.848-0.022c-1.728,1.019-3.685,1.567-5.634,1.585
		c-1.945-0.042-3.877-0.582-5.591-1.563c-0.263-0.189-0.623-0.207-0.909-0.017c-4.839,3.205-7.451,9.836-7.957,12.546
		c-0.059,0.314,0.075,0.633,0.34,0.811c4.174,2.807,8.985,4.341,13.923,4.443c0.057,0.013,0.116,0.02,0.177,0.02
		c0.003,0,0.007,0,0.011,0c5.001-0.067,9.879-1.604,14.105-4.446c0.265-0.178,0.399-0.497,0.34-0.811
		C39.192,41.283,36.581,34.653,31.741,31.446z M12.486,43.755c0.643-2.646,2.871-7.897,6.758-10.715
		c1.642,0.872,3.448,1.373,5.295,1.512c0.06,0.4,0.124,0.83,0.187,1.265h-1.172c-0.442,0-0.8,0.358-0.8,0.8v1.333
		c0,0.442,0.358,0.8,0.8,0.8h1.548c0.004,0.042,0.005,0.07,0.01,0.119c0.051,0.484,0.141,1.364,0.109,3.388
		c-2.075-0.032-4.134-0.349-6.138-0.916c0.361-0.752,0.641-1.18,0.647-1.19c0.245-0.367,0.147-0.863-0.219-1.109
		c-0.367-0.246-0.863-0.149-1.109,0.217c-0.041,0.061-0.575,0.871-1.146,2.241c-0.019,0.037-0.047,0.066-0.06,0.107
		c-0.006,0.017-0.002,0.035-0.006,0.052c-0.425,1.048-0.858,2.4-1.119,3.991C14.837,45.116,13.635,44.492,12.486,43.755z
		 M17.601,46.247c0.189-1.319,0.515-2.479,0.858-3.422c2.155,0.627,4.371,0.983,6.606,1.029c0.036,0.008,0.075,0.009,0.112,0.012
		c-0.038,1.026-0.103,2.264-0.201,3.751C22.455,47.553,19.973,47.085,17.601,46.247z M26.582,47.581
		c0.098-1.499,0.161-2.748,0.199-3.787c1.877-0.138,3.731-0.489,5.544-1.038c0.344,0.933,0.674,2.086,0.87,3.407
		C31.065,46.945,28.843,47.422,26.582,47.581z M33.404,41.154c-0.512-1.161-0.961-1.841-0.999-1.897
		c-0.246-0.367-0.744-0.464-1.11-0.217c-0.366,0.247-0.463,0.744-0.217,1.11c0.007,0.01,0.271,0.412,0.618,1.124
		c-1.595,0.472-3.225,0.78-4.873,0.913c0.028-2.003-0.06-2.925-0.113-3.439h0.236c0.442,0,0.8-0.358,0.8-0.8v-1.333
		c0-0.442-0.358-0.8-0.8-0.8h-0.601c-0.068-0.473-0.135-0.92-0.187-1.272c1.772-0.144,3.513-0.636,5.099-1.489
		c3.888,2.819,6.116,8.07,6.758,10.716c-1.059,0.68-2.162,1.264-3.295,1.769c-0.248-1.459-0.641-2.713-1.033-3.711L33.404,41.154z"
		/>
</g>
</svg>
