<?xml version="1.0" encoding="utf-8"?>
<!-- Generator: Adobe Illustrator 24.2.1, SVG Export Plug-In . SVG Version: 6.00 Build 0)  -->
<svg version="1.1" id="Capa_1" xmlns="http://www.w3.org/2000/svg" xmlns:xlink="http://www.w3.org/1999/xlink" x="0px" y="0px"
	 viewBox="0 0 50.5 50.5" style="enable-background:new 0 0 50.5 50.5;" xml:space="preserve">
<g>
	<path d="M43.378,13.668h-9.85c0.002-0.074,0.011-0.147,0.011-0.221c0-4.571-3.719-8.29-8.29-8.29s-8.29,3.719-8.29,8.29
		c0,0.075,0.009,0.147,0.011,0.221h-9.85c-0.442,0-0.8,0.358-0.8,0.8v30.075c0,0.442,0.358,0.8,0.8,0.8h5.96h24.336h5.96
		c0.442,0,0.8-0.358,0.8-0.8V14.468C44.178,14.026,43.82,13.668,43.378,13.668z M25.25,6.757c3.689,0,6.69,3.001,6.69,6.69
		s-3.001,6.69-6.69,6.69s-6.69-3.001-6.69-6.69S21.561,6.757,25.25,6.757z M28.981,31.049v4.255h-9.395v-4.255H28.981z
		 M19.587,40.444v-3.54h9.395v3.54H19.587z M20.798,43.743c0.029-0.082,0.052-0.168,0.052-0.26v-1.439h7.032v1.439
		c0,0.092,0.024,0.178,0.052,0.26H20.798z M36.618,43.743h-6.76c0.029-0.082,0.052-0.168,0.052-0.26v-1.465
		c0.378-0.064,0.67-0.378,0.67-0.774V30.249c0-0.442-0.358-0.8-0.8-0.8h-1.152c-0.03-0.414-0.366-0.744-0.789-0.744h-7.113
		c-0.422,0-0.759,0.33-0.789,0.744h-1.152c-0.442,0-0.8,0.358-0.8,0.8v10.995c0,0.442,0.358,0.8,0.8,0.8h0.034v1.439
		c0,0.092,0.024,0.178,0.052,0.26h-4.992V27.57h22.736V43.743z M36.618,25.97H13.882v-1.205h22.736V25.97z M42.578,43.743h-4.36
		V26.77v-2.805c0-0.442-0.358-0.8-0.8-0.8H13.082c-0.442,0-0.8,0.358-0.8,0.8v2.805v16.973h-4.36V15.268h9.247
		c0.833,3.697,4.137,6.469,8.082,6.469s7.249-2.772,8.082-6.469h9.247V43.743z"/>
	<path d="M21.836,14.887c0.034,0.004,0.069,0.006,0.103,0.006c0.24,0,0.47-0.108,0.623-0.298l0.592-0.735l1.064,1.215l-1.235,1.409
		c-0.292,0.333-0.258,0.838,0.074,1.129c0.152,0.133,0.34,0.198,0.527,0.198c0.223,0,0.444-0.092,0.602-0.272l1.095-1.25l1.095,1.25
		c0.158,0.18,0.379,0.272,0.602,0.272c0.187,0,0.375-0.065,0.527-0.198c0.332-0.291,0.366-0.796,0.074-1.129l-1.235-1.409
		l1.064-1.215l0.592,0.735c0.153,0.19,0.383,0.298,0.623,0.298c0.034,0,0.069-0.002,0.103-0.006
		c1.119-0.146,1.785-0.906,1.781-2.033c0-0.279-0.146-0.537-0.384-0.682l-0.811-0.493c0.271-0.332,0.237-0.82-0.088-1.105
		c-0.333-0.293-0.838-0.258-1.129,0.074l-0.189,0.216c-0.295-0.091-0.623-0.014-0.834,0.227l-0.544,0.621
		c-0.212,0.242-0.245,0.576-0.116,0.857l-1.132,1.292l-1.132-1.292c0.129-0.281,0.096-0.615-0.115-0.857l-0.543-0.621
		c-0.212-0.242-0.54-0.319-0.835-0.228l-0.189-0.216c-0.291-0.332-0.796-0.366-1.129-0.074c-0.325,0.285-0.359,0.772-0.088,1.105
		l-0.811,0.493c-0.238,0.145-0.384,0.403-0.384,0.682C20.052,13.981,20.718,14.741,21.836,14.887z"/>
	<path d="M24.732,11.323c0.149,0.127,0.334,0.19,0.518,0.19c0.188,0,0.375-0.065,0.525-0.196l1.111-0.967
		c0.333-0.291,0.368-0.796,0.078-1.129c-0.233-0.268-0.604-0.332-0.915-0.2V8.888c0-0.442-0.358-0.8-0.8-0.8s-0.8,0.358-0.8,0.8
		v0.15c-0.319-0.152-0.708-0.091-0.948,0.191c-0.286,0.337-0.246,0.841,0.091,1.127L24.732,11.323z"/>
	<path d="M21.509,37.501c-0.692,0-1.255,0.563-1.255,1.255s0.563,1.255,1.255,1.255c0.692,0,1.255-0.563,1.255-1.255
		S22.201,37.501,21.509,37.501z M21.509,39.1c-0.19,0-0.344-0.154-0.344-0.344s0.154-0.344,0.344-0.344
		c0.19,0,0.345,0.154,0.345,0.344S21.699,39.1,21.509,39.1z"/>
	<path d="M26.984,37.501c-0.692,0-1.255,0.563-1.255,1.255s0.563,1.255,1.255,1.255c0.692,0,1.255-0.563,1.255-1.255
		S27.676,37.501,26.984,37.501z M26.984,39.1c-0.19,0-0.345-0.154-0.345-0.344s0.154-0.344,0.345-0.344
		c0.19,0,0.344,0.154,0.344,0.344S27.174,39.1,26.984,39.1z"/>
</g>
</svg>
