<?xml version="1.0" encoding="utf-8"?>
<!-- Generator: Adobe Illustrator 24.2.1, SVG Export Plug-In . SVG Version: 6.00 Build 0)  -->
<svg version="1.1" id="Capa_1" xmlns="http://www.w3.org/2000/svg" xmlns:xlink="http://www.w3.org/1999/xlink" x="0px" y="0px"
	 viewBox="0 0 50.5 50.5" style="enable-background:new 0 0 50.5 50.5;" xml:space="preserve">
<g>
	<path d="M33.039,31.43c-0.243-0.148-0.547-0.157-0.797-0.02c-1.896,1.028-4.046,1.581-6.193,1.6
		c-2.139-0.042-4.262-0.588-6.145-1.578c-0.251-0.168-0.586-0.185-0.861-0.019c-5.26,3.202-8.1,9.838-8.652,12.55
		c-0.066,0.328,0.079,0.664,0.364,0.84c4.53,2.799,9.748,4.328,15.102,4.427c0.057,0.013,0.116,0.019,0.176,0.019
		c0.003,0,0.006,0,0.01,0c5.417-0.066,10.703-1.598,15.285-4.429c0.285-0.176,0.43-0.512,0.364-0.84
		C41.139,41.268,38.299,34.632,33.039,31.43z M12.088,43.739c0.712-2.664,3.153-7.917,7.408-10.72
		c1.809,0.894,3.804,1.405,5.842,1.537c0.064,0.393,0.134,0.823,0.203,1.26h-1.442c-0.442,0-0.8,0.358-0.8,0.8v1.333
		c0,0.442,0.358,0.8,0.8,0.8h1.851c0.005,0.044,0.006,0.075,0.012,0.126c0.055,0.483,0.153,1.362,0.119,3.385
		c-0.007,0-0.014-0.002-0.022-0.002c-2.294-0.028-4.57-0.351-6.786-0.929c0.383-0.729,0.678-1.144,0.685-1.154
		c0.259-0.357,0.181-0.857-0.175-1.117c-0.357-0.261-0.856-0.183-1.117,0.173c-0.045,0.061-0.626,0.872-1.248,2.243
		c-0.027,0.049-0.063,0.093-0.079,0.149c-0.003,0.011,0,0.022-0.003,0.033c-0.464,1.057-0.937,2.423-1.218,4.026
		C14.729,45.14,13.378,44.5,12.088,43.739z M17.649,46.233c0.209-1.324,0.568-2.486,0.944-3.427c2.369,0.642,4.805,1.005,7.263,1.05
		c0.057,0.013,0.115,0.019,0.175,0.019h0c-0.042,1.025-0.112,2.262-0.219,3.747C23.021,47.563,20.273,47.087,17.649,46.233z
		 M27.42,47.584c0.107-1.499,0.175-2.748,0.216-3.787c2.086-0.137,4.147-0.495,6.16-1.063c0.377,0.932,0.74,2.087,0.957,3.413
		C32.393,46.947,29.928,47.43,27.42,47.584z M36.281,45.576c-0.268-1.473-0.698-2.739-1.127-3.747c0.01-0.104,0-0.211-0.033-0.316
		c-0.051-0.163-0.158-0.287-0.284-0.384c-0.558-1.162-1.047-1.842-1.088-1.898c-0.261-0.356-0.762-0.435-1.118-0.173
		c-0.356,0.261-0.434,0.762-0.173,1.118c0.007,0.01,0.286,0.398,0.653,1.088c-1.777,0.484-3.593,0.797-5.431,0.927
		c0.03-2.001-0.064-2.926-0.123-3.443h0.231c0.442,0,0.8-0.358,0.8-0.8v-1.333c0-0.442-0.358-0.8-0.8-0.8h-0.628
		c-0.074-0.47-0.146-0.916-0.203-1.268c1.957-0.138,3.879-0.638,5.626-1.513c4.256,2.803,6.698,8.056,7.41,10.72
		C38.801,44.458,37.557,45.059,36.281,45.576z"/>
	<path d="M15.776,24.836c0.566,1.397,1.427,2.673,2.572,3.745c2.04,1.918,4.717,2.974,7.538,2.974c2.809,0,5.479-1.049,7.516-2.952
		c1.135-1.057,2.003-2.348,2.577-3.757c0.935-0.27,1.789-0.762,2.47-1.429c1.097-1.072,1.701-2.501,1.701-4.023
		c0-3.185-1.795-5.963-4.442-7.426c-0.015-4.029-2.735-7.424-6.434-8.478l-0.32-1.597c-0.075-0.374-0.403-0.643-0.784-0.643h-4.568
		c-0.381,0-0.709,0.269-0.784,0.643l-0.32,1.597c-3.697,1.052-6.416,4.445-6.434,8.47c-0.684,0.378-1.322,0.844-1.89,1.403
		c-1.646,1.599-2.552,3.74-2.552,6.03C11.62,21.905,13.327,24.131,15.776,24.836z M32.31,27.434
		c-1.74,1.626-4.022,2.522-6.424,2.522c-2.412,0-4.699-0.902-6.443-2.542c-1.557-1.459-2.512-3.354-2.763-5.419
		c0.166-1.572,0.871-3.029,2.03-4.161c1.345-1.315,3.132-2.041,5.03-2.041h4.29c3.667,0,6.693,2.726,7.062,6.209
		C34.838,24.074,33.877,25.974,32.31,27.434z M34.072,11.268c-0.828-0.257-1.709-0.398-2.622-0.398h-0.697l-1.116-5.567
		C32.044,6.307,33.8,8.571,34.072,11.268z M24.256,2.851h3.257l1.608,8.02h-6.473L24.256,2.851z M22.133,5.303l-1.116,5.568H20.31
		c-0.901,0-1.778,0.137-2.613,0.393C17.97,8.568,19.726,6.306,22.133,5.303z M15.291,14.509c1.335-1.314,3.118-2.039,5.019-2.039
		h11.14c3.915,0,7.1,3.106,7.1,6.924c0,1.088-0.433,2.111-1.219,2.879c-0.184,0.18-0.385,0.342-0.601,0.486c0-0.014,0-0.027,0-0.041
		c0-4.701-3.902-8.524-8.7-8.524h-4.29c-2.319,0-4.503,0.886-6.149,2.496c-1.645,1.608-2.551,3.749-2.551,6.028
		c0,0.012,0,0.025,0,0.037c-1.113-0.747-1.82-1.997-1.82-3.362C13.22,17.541,13.954,15.807,15.291,14.509z"/>
	<path d="M27.656,7.412c-0.072-0.225-0.239-0.407-0.457-0.497l-0.841-0.347c-0.196-0.081-0.416-0.08-0.61,0l-0.841,0.347
		c-0.218,0.09-0.385,0.271-0.457,0.497c-0.072,0.225-0.041,0.47,0.085,0.669l0.841,1.333c0.146,0.232,0.402,0.373,0.677,0.373
		c0.274,0,0.53-0.141,0.677-0.373l0.841-1.333C27.697,7.882,27.728,7.637,27.656,7.412z"/>
</g>
</svg>
