<?xml version="1.0" encoding="utf-8"?>
<!-- Generator: Adobe Illustrator 24.2.1, SVG Export Plug-In . SVG Version: 6.00 Build 0)  -->
<svg version="1.1" id="Capa_1" xmlns="http://www.w3.org/2000/svg" xmlns:xlink="http://www.w3.org/1999/xlink" x="0px" y="0px"
	 viewBox="0 0 50.5 50.5" style="enable-background:new 0 0 50.5 50.5;" xml:space="preserve">
<g>
	<path d="M42.104,14.013c-0.15-0.158-0.358-0.248-0.577-0.249l-0.989-0.004l-0.663-2.019c-0.107-0.329-0.414-0.55-0.76-0.55h-2.222
		c-0.361,0-0.679,0.243-0.772,0.592l-0.527,1.958l-0.865-0.003c-0.001,0-0.002,0-0.003,0c-0.212,0-0.415,0.083-0.564,0.233
		c-0.15,0.15-0.235,0.354-0.235,0.567v14.585c0,0.442,0.358,0.8,0.8,0.8c0.32,0,0.591-0.191,0.719-0.462
		c0.049-0.103,0.081-0.216,0.081-0.338V15.341l5.653,0.023l4.972,5.229v6.186h-1.096c-1.152,0-2.089,0.937-2.089,2.089
		s0.937,2.089,2.089,2.089h1.096v1.901l-1.776-0.004c-0.001,0-0.001,0-0.002,0c-0.32,0-0.591,0.191-0.719,0.462
		c-0.048,0.103-0.08,0.215-0.08,0.336c-0.001,0.442,0.356,0.801,0.798,0.802l2.578,0.006c0.001,0,0.001,0,0.002,0
		c0.212,0,0.415-0.084,0.565-0.233c0.15-0.15,0.234-0.354,0.234-0.566V20.273c0-0.205-0.079-0.402-0.22-0.551L42.104,14.013z
		 M37.248,13.748l0.258-0.956h1.029l0.316,0.963L37.248,13.748z M45.055,29.357c-0.27,0-0.489-0.22-0.489-0.489
		s0.22-0.489,0.489-0.489h1.096v0.979H45.055z"/>
	<path d="M31.803,32.859H22.8c-0.441,0-0.8,0.358-0.8,0.8s0.358,0.8,0.8,0.8h9.003c0.441,0,0.8-0.358,0.8-0.8
		S32.244,32.859,31.803,32.859z"/>
	<path d="M32.703,30.069l-0.168-0.005V17.981c0-0.442-0.358-0.8-0.8-0.8h-1.311v-1.882c0-0.442-0.358-0.8-0.8-0.8H6.876
		c-0.441,0-0.8,0.358-0.8,0.8s0.358,0.8,0.8,0.8h21.949v1.083H3.55c-0.441,0-0.8,0.358-0.8,0.8v15.678c0,0.442,0.358,0.8,0.8,0.8
		h6.572c0.441,0,0.8-0.358,0.8-0.8c0-0.034-0.015-0.063-0.019-0.096c-0.05-0.394-0.373-0.703-0.78-0.703H4.35V18.781h26.586v12.06
		c0,0.084,0.023,0.161,0.047,0.238c0.1,0.316,0.381,0.552,0.729,0.562l0.944,0.028c0.444,0.012,0.811-0.334,0.823-0.776
		C33.492,30.451,33.145,30.082,32.703,30.069z"/>
	<path d="M29.149,31.621c0.292,0,0.537-0.165,0.677-0.399c0.071-0.12,0.123-0.251,0.123-0.401V20.766c0-0.442-0.358-0.8-0.8-0.8
		H6.181c-0.441,0-0.8,0.358-0.8,0.8v10.055c0,0.442,0.358,0.8,0.8,0.8h4.926c0.441,0,0.8-0.358,0.8-0.8c0,0,0,0,0,0
		c0-0.442-0.358-0.8-0.8-0.8H6.98v-8.456H28.35v8.456h-6.493c-0.441,0-0.8,0.358-0.8,0.8c0,0,0,0,0,0c0,0.442,0.358,0.8,0.8,0.8
		h4.743H29.149z"/>
	<path d="M43.587,22.421c0.276,0,0.5-0.224,0.5-0.5v-0.45c-0.004-0.254-0.104-0.497-0.28-0.68l-2.92-2.95
		c-0.183-0.176-0.426-0.276-0.68-0.28h-2.36c-0.276,0-0.5,0.224-0.5,0.5v3.83c0,0.276,0.224,0.5,0.5,0.5L43.587,22.421z"/>
	<path d="M15.091,25.794c0-1.717-1.396-3.113-3.113-3.113s-3.113,1.396-3.113,3.113c0,1.716,1.396,3.113,3.113,3.113
		S15.091,27.51,15.091,25.794z M11.978,27.307c-0.835,0-1.514-0.679-1.514-1.513s0.679-1.514,1.514-1.514s1.514,0.679,1.514,1.514
		S12.813,27.307,11.978,27.307z"/>
	<path d="M26.017,25.244c0.441,0,0.8-0.358,0.8-0.8s-0.358-0.8-0.8-0.8h-4.867c-0.441,0-0.8,0.358-0.8,0.8s0.358,0.8,0.8,0.8H26.017
		z"/>
	<path d="M17.45,27.149c0,0.442,0.358,0.8,0.8,0.8h7.767c0.441,0,0.8-0.358,0.8-0.8s-0.358-0.8-0.8-0.8H18.25
		C17.809,26.349,17.45,26.707,17.45,27.149z"/>
	<path d="M42.77,34.665c0-0.711-0.174-1.378-0.461-1.981c-0.746-1.568-2.334-2.663-4.183-2.663c-0.398,0-0.777,0.066-1.146,0.16
		c-2.006,0.514-3.499,2.32-3.499,4.484c0,2.561,2.083,4.644,4.645,4.644C40.687,39.308,42.77,37.225,42.77,34.665z M35.081,34.665
		c0-1.678,1.366-3.044,3.045-3.044s3.044,1.366,3.044,3.044s-1.365,3.044-3.044,3.044S35.081,36.343,35.081,34.665z"/>
	<path d="M18.991,30.821c-0.743-0.504-1.638-0.8-2.601-0.8s-1.859,0.295-2.601,0.8c-0.901,0.612-1.559,1.539-1.856,2.614
		c-0.109,0.394-0.186,0.801-0.186,1.23c0,2.561,2.083,4.644,4.644,4.644s4.644-2.083,4.644-4.644c0-0.832-0.238-1.602-0.622-2.278
		C20.057,31.764,19.581,31.221,18.991,30.821z M16.39,37.709c-1.679,0-3.044-1.366-3.044-3.044c0-0.529,0.148-1.018,0.385-1.452
		c0.518-0.943,1.508-1.592,2.658-1.592c0.883,0,1.673,0.384,2.229,0.987c0.501,0.543,0.814,1.262,0.814,2.057
		C19.434,36.343,18.068,37.709,16.39,37.709z"/>
</g>
</svg>
