<svg id="Layer_1" data-name="Layer 1" xmlns="http://www.w3.org/2000/svg" viewBox="0 0 50.46 50.46"><defs><style>.cls-1{fill:#65b4e1;}</style></defs><title>bosques</title><path class="cls-1" d="M45.69,44.33,44.36,44a22.78,22.78,0,0,0-6.86-1.11h-.15V39.41A7.17,7.17,0,0,0,40,38.64a6.39,6.39,0,0,0,3.44-5.56c.21-5-3-12.51-5.14-14.78A2,2,0,0,0,37,17.55c-1.23,0-2.61,2-3.78,4.77C32,13.84,28.61,4,26,4S20.63,11.7,19.2,19.65a18.57,18.57,0,0,0-2.85-4.59,2.32,2.32,0,0,0-1.58-.89c-3.24,0-7.4,12-7.68,18.36A6.91,6.91,0,0,0,10.17,39a7.75,7.75,0,0,0,3.65,1.13v3.11a33.19,33.19,0,0,0-5,1,29.46,29.46,0,0,1-3.88.92A.67.67,0,0,0,5,46.49h.1a30.31,30.31,0,0,0,4-1,25.43,25.43,0,0,1,6.21-1.08,24.43,24.43,0,0,1,7.76,1.27l1.59.44a.67.67,0,0,0,.35-1.29l-1.57-.44c-.89-.25-1.76-.5-2.67-.71,1-.32,2.09-.64,2.39-.71a16.11,16.11,0,0,1,3.42-.37,22.16,22.16,0,0,1,6.09,1l-1,.24a.62.62,0,0,0,.38,1.06,33.78,33.78,0,0,1,5.42-1,20.86,20.86,0,0,1,6.54,1.07l1.34.37a.56.56,0,0,0,.29-1.09ZM14.49,29.43a.67.67,0,0,0-.67.67V32.8a.88.88,0,0,1-.57-.17,1.13,1.13,0,0,1-.15-.91.67.67,0,0,0-1.33-.19,2.26,2.26,0,0,0,.55,2.07,2.18,2.18,0,0,0,1.49.54v4.64a6.38,6.38,0,0,1-2.93-.93,5.51,5.51,0,0,1-2.47-5.26c.32-7.4,4.84-17.08,6.34-17.08,1.46.19,6.63,10.12,6.35,17h0A6.2,6.2,0,0,1,17.74,38a7.2,7.2,0,0,1-2.57.77v-2.2a2.44,2.44,0,0,0,1.59-.66,2,2,0,0,0,.46-1.84.67.67,0,1,0-1.32.23.78.78,0,0,1-.1.68,1.08,1.08,0,0,1-.63.24V30.1A.67.67,0,0,0,14.49,29.43Zm11,11.86a27,27,0,0,0-5.12,1c-.2.05-1.47.48-2.79.94-.69-.06-1.43-.09-2.23-.08h-.18v-3a8.5,8.5,0,0,0,3.19-.91,7.47,7.47,0,0,0,2.92-2.69,7.51,7.51,0,0,0,4.22,1.66Zm.8-18.17a.8.8,0,0,0-.8.8v6.74a1.43,1.43,0,0,1-.87-.31,1.18,1.18,0,0,1-.21-1,.8.8,0,1,0-1.59-.21,2.65,2.65,0,0,0,.69,2.38,3,3,0,0,0,2,.75v4.28A5.9,5.9,0,0,1,22,35a8.33,8.33,0,0,0,.46-2.39,28.17,28.17,0,0,0-2.17-10.45C21.61,13.27,24.82,6.06,26,5.58c1.41.88,5.27,11.2,6,20A31.25,31.25,0,0,0,30.54,33a7.48,7.48,0,0,0,.08,1.42,5.66,5.66,0,0,1-2.68,1.84,6.3,6.3,0,0,1-.85.2V29a2.9,2.9,0,0,0,1.69-.69,3.12,3.12,0,0,0,1-2.46.8.8,0,0,0-1.6,0,1.63,1.63,0,0,1-.41,1.25,1.26,1.26,0,0,1-.64.28v-3.5A.8.8,0,0,0,26.29,23.13Zm7.35,19.31a24.39,24.39,0,0,0-6.55-1.18V38.11a7.91,7.91,0,0,0,1.34-.3,9.4,9.4,0,0,0,2.74-1.54,5.42,5.42,0,0,0,2,2.19,6.53,6.53,0,0,0,3.08,1v3.52l-.69.1C34.62,42.77,33.79,42.48,33.64,42.44Zm3.15-12a.56.56,0,0,0-.56.56v2.27a.73.73,0,0,1-.48-.15,1,1,0,0,1-.12-.76.56.56,0,1,0-1.12-.16A1.9,1.9,0,0,0,35,33.93a1.84,1.84,0,0,0,1.25.46v3.91a5.39,5.39,0,0,1-2.47-.78,4.65,4.65,0,0,1-2.08-4.43c.27-6.24,4.08-14.4,5.34-14.4,1.23.16,5.59,8.53,5.35,14.35a5.22,5.22,0,0,1-2.84,4.61,6.06,6.06,0,0,1-2.17.65V36.44a2.05,2.05,0,0,0,1.34-.55,1.69,1.69,0,0,0,.39-1.55.56.56,0,1,0-1.11.2.66.66,0,0,1-.09.57.9.9,0,0,1-.53.2V31A.56.56,0,0,0,36.79,30.42Z"/></svg>