<svg id="Layer_1" data-name="Layer 1" xmlns="http://www.w3.org/2000/svg" viewBox="0 0 50.46 50.46"><defs><style>.cls-1{fill:#65b4e1;}</style></defs><title>buceo</title><path class="cls-1" d="M28.43,35.14a6.75,6.75,0,1,0,0-13.5h-13a6.75,6.75,0,1,0,6.48,8.65A6.75,6.75,0,0,0,28.43,35.14Zm-9-5.58a4.16,4.16,0,1,1-4-5.34h13a4.16,4.16,0,1,1-4,5.34,2.59,2.59,0,0,0-5,0Z"/><path class="cls-1" d="M39.15,18.45V38.3a4.21,4.21,0,0,1-4.2,4.2h-7.5a4.21,4.21,0,0,1-4.2-4.2V36a1.29,1.29,0,0,0-2.59,0V38.3a6.8,6.8,0,0,0,6.79,6.79h7.5a6.8,6.8,0,0,0,6.79-6.79V18.45Z"/><path class="cls-1" d="M35.86,15.12a1.69,1.69,0,1,0,1.69-1.69A1.69,1.69,0,0,0,35.86,15.12Zm1.69-.59a.59.59,0,1,1-.59.59A.59.59,0,0,1,37.56,14.53Z"/><path class="cls-1" d="M35.49,8a1.31,1.31,0,1,0-1.31-1.31A1.31,1.31,0,0,0,35.49,8Zm0-1.77a.46.46,0,1,1-.46.46A.46.46,0,0,1,35.49,6.22Z"/><path class="cls-1" d="M33,14.17a2.45,2.45,0,1,0-2.45-2.45A2.45,2.45,0,0,0,33,14.17Zm0-3.81a1.35,1.35,0,1,1-1.35,1.35A1.36,1.36,0,0,1,33,10.37Z"/></svg>