<svg id="Layer_1" data-name="Layer 1" xmlns="http://www.w3.org/2000/svg" viewBox="0 0 50.46 50.46"><defs><style>.cls-1{fill:#12b5e1;}</style></defs><title>buque-guerra</title><path class="cls-1" d="M7.52,31.34a.65.65,0,0,0-.19.45.7.7,0,0,0,.19.47.67.67,0,0,0,.46.18.64.64,0,0,0,.45-.18.71.71,0,0,0,.2-.47.67.67,0,0,0-.2-.45A.65.65,0,0,0,7.52,31.34Z"/><path class="cls-1" d="M24,24.57H21.72a.65.65,0,0,0,0,1.3H24a.65.65,0,0,0,0-1.3Z"/><path class="cls-1" d="M26.39,25.87h2.32a.65.65,0,0,0,0-1.3H26.39a.65.65,0,0,0,0,1.3Z"/><path class="cls-1" d="M47.13,40.15a5.55,5.55,0,0,0-1.45-.43h-.26l2-4.66a.66.66,0,0,0-.06-.61.65.65,0,0,0-.54-.29H44.37a3.81,3.81,0,0,0-1-2.05l3.86-3.86a.65.65,0,1,0-.92-.91l-4,4a3.81,3.81,0,0,0-1.77-.45,3.86,3.86,0,0,0-3.81,3.29H31.89V21.72a.65.65,0,0,0-.65-.65H29.67V17.16a.65.65,0,0,0-.65-.65H25.86V13.63h1.89a.65.65,0,0,0,0-1.3H25.86V11H27a.65.65,0,0,0,0-1.3H25.86V8.77a.65.65,0,1,0-1.3,0v.91H23.48a.65.65,0,0,0,0,1.3h1.08v1.35H22.67a.65.65,0,0,0,0,1.3h1.89v2.88H21.4a.65.65,0,0,0-.64.65v3.91H19.19a.65.65,0,0,0-.65.65v6.54H14.83A3.85,3.85,0,0,0,11,24.8a3.78,3.78,0,0,0-1.77.45L5.07,21.08a.65.65,0,1,0-.92.91l4,4a3.88,3.88,0,0,0-1,2.23H3.68a.65.65,0,0,0-.54.28.66.66,0,0,0-.06.61L8.05,41a3.14,3.14,0,0,1-.68-.37l-.26-.2a3.08,3.08,0,0,0-2.26-.75,3.36,3.36,0,0,0-1.53.46.6.6,0,0,0-.26.81.61.61,0,0,0,.54.33.71.71,0,0,0,.28-.06,2.17,2.17,0,0,1,1-.33,1.92,1.92,0,0,1,1.5.49l.34.25a3,3,0,0,0,3.8,0,3.56,3.56,0,0,1,2.29-.76,4,4,0,0,1,2.36.76,3.33,3.33,0,0,0,1.84.67h0a3,3,0,0,0,1.9-.67,3.83,3.83,0,0,1,4.58,0,3,3,0,0,0,1.74.65h.37a3.25,3.25,0,0,0,1.64-.66,3.83,3.83,0,0,1,4.58,0,3,3,0,0,0,3.79,0,3.85,3.85,0,0,1,4.59,0,3,3,0,0,0,1.9.67,2.6,2.6,0,0,0,1.68-.62l.29-.19a2.45,2.45,0,0,1,1.43-.6h.1a4.91,4.91,0,0,1,1,.3.58.58,0,0,0,.26.06.6.6,0,0,0,.27-1.14Zm-6.56-8a2.56,2.56,0,0,1,2.49,2h-5A2.56,2.56,0,0,1,40.57,32.18ZM22.05,17.8h6.32v3.27H22.05Zm-2.22,4.56H30.59v11l-5.17-4.88a.64.64,0,0,0-.44-.17H19.83ZM11,26.09a2.57,2.57,0,0,1,2.53,2.17H8.48A2.57,2.57,0,0,1,11,26.09ZM43.82,40.18s0,0,0,.07l-.43.28-.1.07-.19.13a1.5,1.5,0,0,1-1,.4,1.86,1.86,0,0,1-1.22-.46,5,5,0,0,0-5.94,0,1.85,1.85,0,0,1-2.44,0,5,5,0,0,0-5.94,0,1.84,1.84,0,0,1-1.2.45,1.79,1.79,0,0,1-1.19-.45,5,5,0,0,0-5.94,0,1.86,1.86,0,0,1-1.22.46h0a2.21,2.21,0,0,1-1.19-.49,5.15,5.15,0,0,0-3-.94,4.73,4.73,0,0,0-3,1l-.41.25L4.65,29.55H24.72l1.69,1.6H10.33a.65.65,0,1,0,0,1.29H27.78l1.83,1.72H22.17a.65.65,0,1,0,0,1.3H45.8Z"/></svg>