<svg id="Layer_1" data-name="Layer 1" xmlns="http://www.w3.org/2000/svg" viewBox="0 0 50.46 50.46"><defs><style>.cls-1{fill:#12b5e1;}</style></defs><title>busqueda-rescate</title><path class="cls-1" d="M15.93,17v.6a10.17,10.17,0,0,0,10,10.15v2H19.47a.58.58,0,1,0,0,1.16H42.72A2.32,2.32,0,0,0,45,28.61a.58.58,0,0,0-.58-.58.59.59,0,0,0-.59.58,1.16,1.16,0,0,1-1.15,1.16H36.81v-2h4.38a4.37,4.37,0,0,0,4.37-4.37A13.26,13.26,0,0,0,32.31,10.16h-.83V9.91c0-1.5-1.14-2.47-2.92-2.47h-.39V6.68H45a.59.59,0,0,0,0-1.17H28.17V5A.58.58,0,1,0,27,5v.56H10.11a.59.59,0,0,0,0,1.17H27v.76h-.65c-1.77,0-2.92,1-2.92,2.47v.25H9.79L7.66,6.56a.61.61,0,0,0-.49-.29H5.49a.77.77,0,0,0-.42.17.55.55,0,0,0-.17.43l.2,4.38a2.47,2.47,0,0,0,1.83,2.33l8,2.14A1.38,1.38,0,0,1,15.93,17ZM35.65,29.77H27.1v-2h8.55Zm8.59-8.2H33.72a1.19,1.19,0,0,1-1.18-1.17l-.07-9.07A12.09,12.09,0,0,1,44.24,21.57ZM24.61,9.91c0-1.18,1.23-1.31,1.75-1.31h2.2c.53,0,1.76.13,1.76,1.31v.25H24.61ZM6.26,11.2,6.09,7.43h.73L9,11a.58.58,0,0,0,.5.28H31.3l.08,9.08a2.36,2.36,0,0,0,2.33,2.34H44.36c0,.22,0,.44,0,.66a3.2,3.2,0,0,1-3.2,3.2H26.09a9,9,0,0,1-9-9V17a2.5,2.5,0,0,0-1.86-2.42l-8-2.15A1.31,1.31,0,0,1,6.26,11.2Z"/><path class="cls-1" d="M37,15a10.37,10.37,0,0,1,3.58,3.6.57.57,0,0,0,.48.27.51.51,0,0,0,.29-.08.55.55,0,0,0,.19-.76,11.63,11.63,0,0,0-4-4A.56.56,0,1,0,37,15Z"/><path class="cls-1" d="M35.23,14.19l.14.05a.48.48,0,0,0,.2,0,.56.56,0,0,0,.52-.36.55.55,0,0,0-.32-.72l-.15-.06a.56.56,0,1,0-.39,1Z"/><path class="cls-1" d="M23.94,18.24v2a.58.58,0,0,0,.58.58.59.59,0,0,0,.59-.58v-2h2a.58.58,0,1,0,0-1.16h-2v-2a.59.59,0,0,0-.59-.58.58.58,0,0,0-.58.58v2H22a.58.58,0,0,0,0,1.16Z"/><path class="cls-1" d="M24.52,22.74a5.08,5.08,0,1,0-5.08-5.08A5.09,5.09,0,0,0,24.52,22.74Zm0-9a3.91,3.91,0,1,1-3.91,3.91A3.92,3.92,0,0,1,24.52,13.75Z"/><path class="cls-1" d="M27.65,37.92a2.52,2.52,0,1,0-2.59,2.45A2.52,2.52,0,0,0,27.65,37.92Z"/><path class="cls-1" d="M21.49,42.43a5.54,5.54,0,0,1,3.09,1.1,2.5,2.5,0,0,0,.39.23,1.14,1.14,0,0,0,.33.08.74.74,0,0,0,.41-.13,2.68,2.68,0,0,0,.28-.18,7,7,0,0,1,1.28-.72c.28-.1.57-.15.85-.23a5.76,5.76,0,0,0,.73-.27,4,4,0,0,0,1-.58,2.82,2.82,0,0,0,.36-.33,4,4,0,0,0,.86-3.06c0-.19-.05-3-.05-3.1a1,1,0,1,0-2.08.06c0,.55,0,2.87,0,3.09,0,.82.07,1.32-.29,1.59a2.65,2.65,0,0,1-1.71.69,12.2,12.2,0,0,1-2,.08,4.2,4.2,0,0,0-3.2,1.32A3.26,3.26,0,0,0,21.49,42.43Z"/><path class="cls-1" d="M47.13,43.9a6,6,0,0,0-1.45-.43H45.5a3.64,3.64,0,0,0-2.12.81l-.1.07-.19.13a1.45,1.45,0,0,1-1,.4,1.81,1.81,0,0,1-1.22-.46,5.07,5.07,0,0,0-5.94,0,1.85,1.85,0,0,1-2.44,0,5.07,5.07,0,0,0-5.94,0,1.78,1.78,0,0,1-2.39,0,4.73,4.73,0,0,0-3-1,4.73,4.73,0,0,0-3,1,1.81,1.81,0,0,1-1.22.46h0a2.18,2.18,0,0,1-1.19-.48,5.15,5.15,0,0,0-3-.94,4.74,4.74,0,0,0-3,1,1.85,1.85,0,0,1-2.44,0l-.26-.2a3.12,3.12,0,0,0-2.26-.75,3.36,3.36,0,0,0-1.53.46.61.61,0,0,0,.28,1.15A.72.72,0,0,0,3.88,45a2.14,2.14,0,0,1,1-.32,1.92,1.92,0,0,1,1.5.48l.34.25a3,3,0,0,0,3.8,0,3.56,3.56,0,0,1,2.29-.75,3.93,3.93,0,0,1,2.36.76,3.4,3.4,0,0,0,1.84.66h0a3,3,0,0,0,1.9-.67,3.87,3.87,0,0,1,4.58,0,3.08,3.08,0,0,0,1.74.66h.37a3.25,3.25,0,0,0,1.64-.66,3.87,3.87,0,0,1,4.58,0,3,3,0,0,0,3.79,0,3.89,3.89,0,0,1,4.59,0,2.92,2.92,0,0,0,1.9.67,2.65,2.65,0,0,0,1.68-.61l.29-.2a2.52,2.52,0,0,1,1.43-.6h.1a5.68,5.68,0,0,1,1,.31.58.58,0,0,0,.26.06.59.59,0,0,0,.54-.34A.6.6,0,0,0,47.13,43.9Z"/></svg>