<svg id="Layer_1" data-name="Layer 1" xmlns="http://www.w3.org/2000/svg" viewBox="0 0 50.46 50.46"><defs><style>.cls-1{fill:#12b5e1;}</style></defs><title>caja exp 02</title><path class="cls-1" d="M23.77,17.35a11.83,11.83,0,0,1,1.83-2.16V7H33l2.68,3.55v-3l-1.77-2.3,0,0H14.79l-8,10.41,0,0V38.73a4.57,4.57,0,0,0,4.54,4.59H37.41A4.58,4.58,0,0,0,42,38.73v-16l-1.82,1.3V38.73a2.75,2.75,0,0,1-2.73,2.76H11.32a2.75,2.75,0,0,1-2.73-2.76V17.35ZM15.7,7h8.08v8.54H9.34Z"/><path class="cls-1" d="M37.7,12.2a1,1,0,0,1-1,1c-9.86.49-12.68,5.91-13.42,11.19,4.25-5.27,8.87-5.27,13.36-5.27a1,1,0,0,1,.73.3,1,1,0,0,1,.3.72v3.18l10-7.17L37.7,9Z"/></svg>