<svg id="Layer_1" data-name="Layer 1" xmlns="http://www.w3.org/2000/svg" viewBox="0 0 50.46 50.46"><defs><style>.cls-1{fill:#65b4e1;}</style></defs><title>calendario 2</title><path class="cls-1" d="M36.55,11.58H33V9.21a1.5,1.5,0,1,0-3,0v2.37H20.44V9.21a1.5,1.5,0,1,0-3,0v2.37H13.91a4,4,0,0,0-4,4V37a5.78,5.78,0,0,0,5.77,5.77H34.81A5.77,5.77,0,0,0,40.58,37V15.61A4,4,0,0,0,36.55,11.58Zm-22.64,1.5h3.53v2a1.5,1.5,0,1,0,3,0v-2H30v2a1.5,1.5,0,1,0,3,0v-2h3.53a2.53,2.53,0,0,1,2.53,2.53V18H11.38v-2.4A2.53,2.53,0,0,1,13.91,13.08Zm20.9,28.17H15.65A4.27,4.27,0,0,1,11.38,37V19.5h27.7V37A4.27,4.27,0,0,1,34.81,41.25Z"/><rect class="cls-1" x="16.19" y="21.86" width="4.89" height="4.89" rx="1.64" ry="1.64"/><rect class="cls-1" x="22.78" y="21.86" width="4.89" height="4.89" rx="1.64" ry="1.64"/><rect class="cls-1" x="29.38" y="21.86" width="4.89" height="4.89" rx="1.64" ry="1.64"/><rect class="cls-1" x="16.19" y="27.82" width="4.89" height="4.89" rx="1.64" ry="1.64"/><rect class="cls-1" x="22.78" y="27.82" width="4.89" height="4.89" rx="1.64" ry="1.64"/><rect class="cls-1" x="29.38" y="27.82" width="4.89" height="4.89" rx="1.64" ry="1.64"/><rect class="cls-1" x="16.19" y="33.78" width="4.89" height="4.89" rx="1.64" ry="1.64"/><rect class="cls-1" x="22.78" y="33.78" width="4.89" height="4.89" rx="1.64" ry="1.64"/><rect class="cls-1" x="29.38" y="33.78" width="4.89" height="4.89" rx="1.64" ry="1.64"/></svg>