<svg id="Layer_1" data-name="Layer 1" xmlns="http://www.w3.org/2000/svg" viewBox="0 0 50.46 50.46"><defs><style>.cls-1{fill:#65b4e1;}</style></defs><title>calendario 2 negativo</title><path class="cls-1" d="M36.55,11.58H33V9.21a1.5,1.5,0,0,0-3,0v2.37H20.44V9.21a1.5,1.5,0,0,0-3,0v2.37H13.91a4,4,0,0,0-4,4V37a5.78,5.78,0,0,0,5.77,5.77H34.81A5.77,5.77,0,0,0,40.58,37V15.61A4,4,0,0,0,36.55,11.58ZM21.08,37a1.64,1.64,0,0,1-1.64,1.64H17.83A1.64,1.64,0,0,1,16.19,37V35.42a1.64,1.64,0,0,1,1.64-1.64h1.62a1.64,1.64,0,0,1,1.64,1.64Zm0-6a1.64,1.64,0,0,1-1.64,1.64H17.83a1.64,1.64,0,0,1-1.64-1.64V29.46a1.64,1.64,0,0,1,1.64-1.64h1.62a1.64,1.64,0,0,1,1.64,1.64Zm0-6a1.64,1.64,0,0,1-1.64,1.64H17.83a1.64,1.64,0,0,1-1.64-1.64V23.5a1.64,1.64,0,0,1,1.64-1.64h1.62a1.64,1.64,0,0,1,1.64,1.64ZM27.68,37A1.64,1.64,0,0,1,26,38.67H24.42A1.64,1.64,0,0,1,22.78,37V35.42a1.64,1.64,0,0,1,1.64-1.64H26a1.64,1.64,0,0,1,1.64,1.64Zm0-6A1.64,1.64,0,0,1,26,32.71H24.42a1.64,1.64,0,0,1-1.64-1.64V29.46a1.64,1.64,0,0,1,1.64-1.64H26a1.64,1.64,0,0,1,1.64,1.64Zm0-6A1.64,1.64,0,0,1,26,26.75H24.42a1.64,1.64,0,0,1-1.64-1.64V23.5a1.64,1.64,0,0,1,1.64-1.64H26a1.64,1.64,0,0,1,1.64,1.64ZM34.27,37a1.64,1.64,0,0,1-1.64,1.64H31A1.64,1.64,0,0,1,29.38,37V35.42A1.64,1.64,0,0,1,31,33.78h1.62a1.64,1.64,0,0,1,1.64,1.64Zm0-6a1.64,1.64,0,0,1-1.64,1.64H31a1.64,1.64,0,0,1-1.64-1.64V29.46A1.64,1.64,0,0,1,31,27.82h1.62a1.64,1.64,0,0,1,1.64,1.64Zm0-6a1.64,1.64,0,0,1-1.64,1.64H31a1.64,1.64,0,0,1-1.64-1.64V23.5A1.64,1.64,0,0,1,31,21.86h1.62a1.64,1.64,0,0,1,1.64,1.64ZM39.08,18H11.38v-2.4a2.53,2.53,0,0,1,2.53-2.53h3.53v2a1.5,1.5,0,1,0,3,0v-2H30v2a1.5,1.5,0,1,0,3,0v-2h3.53a2.53,2.53,0,0,1,2.53,2.53Z"/></svg>