<svg id="Layer_1" data-name="Layer 1" xmlns="http://www.w3.org/2000/svg" viewBox="0 0 50.46 50.46"><defs><style>.cls-1{fill:#12b5e1;}</style></defs><title>calibracion dosimetros</title><path class="cls-1" d="M42.13,3.78H8.33A4.55,4.55,0,0,0,3.78,8.33v33.8a4.55,4.55,0,0,0,4.55,4.55h33.8a4.55,4.55,0,0,0,4.55-4.55V8.33A4.55,4.55,0,0,0,42.13,3.78Zm2.6,38.35a2.61,2.61,0,0,1-2.6,2.6H8.33a2.61,2.61,0,0,1-2.6-2.6V8.33a2.61,2.61,0,0,1,2.6-2.6h33.8a2.61,2.61,0,0,1,2.6,2.6Z"/><path class="cls-1" d="M25.23,8.65A17.25,17.25,0,0,0,8,25.88a2,2,0,0,0,2,2,1,1,0,0,0,.24,0c.89,0,7.11-.06,15-.06s14.14,0,15,.06a1,1,0,0,0,.24,0,2,2,0,0,0,2-2A17.25,17.25,0,0,0,25.23,8.65ZM22,25.8a3.3,3.3,0,0,1,6.52,0H22Zm8.06,0a4.82,4.82,0,0,0-4.15-4.27V17.68a.76.76,0,1,0-1.52,0v3.89a4.82,4.82,0,0,0-3.93,4.24c-5.74,0-10.47,0-10.47.07a15.21,15.21,0,0,1,1.36-6.29l2.39.72.22,0a.76.76,0,0,0,.22-1.49L12,18.21a15.39,15.39,0,0,1,4-4.49l1.45,1.85a.77.77,0,0,0,.6.29.74.74,0,0,0,.47-.16.76.76,0,0,0,.13-1.07l-1.39-1.78a15.13,15.13,0,0,1,7.1-2.21v2.23a.76.76,0,0,0,1.52,0V10.63a15.12,15.12,0,0,1,7.44,2.3L32,14.63a.76.76,0,0,0,.13,1.07.74.74,0,0,0,.47.16.77.77,0,0,0,.6-.29l1.38-1.76a15.24,15.24,0,0,1,3.89,4.45l-2,.59a.76.76,0,0,0,.21,1.49.91.91,0,0,0,.23,0l2.24-.67a15.27,15.27,0,0,1,1.33,6.24S35.77,25.82,30,25.81Z"/><path class="cls-1" d="M13,35.28A2.06,2.06,0,1,0,14.7,37,2.07,2.07,0,0,0,13,35.28Z"/><circle class="cls-1" cx="21.29" cy="37.42" r="2.06"/><path class="cls-1" d="M30.25,35.28A2.06,2.06,0,1,0,32,37,2.07,2.07,0,0,0,30.25,35.28Z"/><path class="cls-1" d="M38.88,35.39a2.06,2.06,0,1,0,1.71,1.71A2.07,2.07,0,0,0,38.88,35.39Z"/></svg>