<?xml version="1.0" encoding="utf-8"?>
<!-- Generator: Adobe Illustrator 25.4.1, SVG Export Plug-In . SVG Version: 6.00 Build 0)  -->
<svg version="1.1" id="Capa_2" xmlns="http://www.w3.org/2000/svg" xmlns:xlink="http://www.w3.org/1999/xlink" x="0px" y="0px"
	 viewBox="0 0 50.5 50.5" enable-background="new 0 0 50.5 50.5" xml:space="preserve">
<g>
	<g>
		<path fill="none" stroke="#000000" stroke-width="1.6571" stroke-linejoin="round" stroke-miterlimit="10" d="M15.771,9.925
			c-3.034,1.225-6.214,4.366-7.311,6.989c-1.639,1.931-2.622,2.188-3.277,4.475C4.64,24.04,34.117,38.452,34.117,38.452
			s8.634,4.573,11.055,0.296c1.419-3.592-7.445-3.843-11.948-21.623c-0.927-2.63-2.234-3.745-3.806-4.309
			c-3.105,2.289-3.656,3.584-7.105,3.014C18.95,15.061,18.733,14.249,15.771,9.925z"/>
		<path fill="none" stroke="#000000" stroke-width="1.2428" stroke-linejoin="round" stroke-miterlimit="10" d="M8.124,17.125
			c7.526,4.65,10.089,6.209,18.793,13.414c3.743,2.957,12.442,8.38,18.086,7.482"/>
		<path fill="none" stroke="#000000" stroke-width="1.2428" stroke-linejoin="round" stroke-miterlimit="10" d="M13.722,10.998
			c-0.506,0.011,4.495,8.617,10.273,12.723c5.596,3.977,9.245,7.673,10.602,11.683"/>
		<path fill="none" stroke="#000000" stroke-width="1.2428" stroke-linejoin="round" stroke-miterlimit="10" d="M28.328,27.273
			c0,0,4.399-1.912,9.383,1.126"/>
		<g>
			<path d="M44.351,35.678c-0.242-0.431-0.865-1.107-1.681-1.967c-6.378-0.111-10.105-3.069-10.123-3.084
				c2.223,2.822,2.232,4.41,2.204,4.745c4.175,2.135,7.654,3.114,9.396,2.627C44.7,37.253,44.722,36.338,44.351,35.678z"/>
			<path d="M30.198,13.514c-2.826-1.539-3.501,3.41-7.291,2.336c-3.344-0.948-4.691-3.164-5.829-5.098
				c-0.251-0.426-0.8-0.561-1.222-0.303c-0.394,0.241-0.911,0.574-1.478,0.975c0.004,0.01,0.16,1.639,3.987,5.871
				c8.518,5.656,14.177-0.946,14.181-0.95C31.749,14.338,31.441,14.191,30.198,13.514z"/>
		</g>
	</g>
	
		<line fill="none" stroke="#000000" stroke-width="1.6571" stroke-linecap="round" stroke-linejoin="round" stroke-miterlimit="10" x1="9.561" y1="21.48" x2="12.872" y2="23.633"/>
</g>
</svg>
