<svg id="Layer_1" data-name="Layer 1" xmlns="http://www.w3.org/2000/svg" viewBox="0 0 50.46 50.46"><defs><style>.cls-1{fill:#65b4e1;}</style></defs><title>cambio tecnologico</title><path class="cls-1" d="M10,34.79H40.44a2.33,2.33,0,0,0,2.33-2.33V11.19a2.33,2.33,0,0,0-2.33-2.33H29.27a1,1,0,1,0,0,2H40.44a.35.35,0,0,1,.35.35V30.24H9.67V11.19a.35.35,0,0,1,.35-.35h6.61a1,1,0,1,0,0-2H10a2.33,2.33,0,0,0-2.33,2.33V32.47A2.33,2.33,0,0,0,10,34.79Z"/><path class="cls-1" d="M44.27,40.22l-2.64-2.49a1.62,1.62,0,0,0-1.11-.46H9.94a1.62,1.62,0,0,0-1.11.46L6.19,40.22a2.82,2.82,0,0,0-.52,3A1.78,1.78,0,0,0,7.3,44.44H43.16a1.78,1.78,0,0,0,1.63-1.24A2.82,2.82,0,0,0,44.27,40.22Z"/><path class="cls-1" d="M21.32,15.41l-1.09.36a3.64,3.64,0,0,0-.45-.52l.52-1a.14.14,0,0,0-.06-.19l-1.69-.85a.14.14,0,0,0-.19.06l-.52,1a3.64,3.64,0,0,0-.68-.05l-.36-1.09a.14.14,0,0,0-.18-.09l-1.8.59a.14.14,0,0,0-.09.18l.36,1.09a3.64,3.64,0,0,0-.52.44l-1-.52a.14.14,0,0,0-.19.06l-.85,1.69a.14.14,0,0,0,.06.19l1,.52a3.64,3.64,0,0,0-.05.68l-1.09.36a.14.14,0,0,0-.09.18l.59,1.8a.14.14,0,0,0,.18.09L14.23,20a3.64,3.64,0,0,0,.44.52l-.52,1a.14.14,0,0,0,.06.19l1.69.85a.14.14,0,0,0,.19-.06l.52-1a3.65,3.65,0,0,0,.68.05l.36,1.09a.14.14,0,0,0,.18.09l1.8-.59a.14.14,0,0,0,.09-.18l-.36-1.09a3.64,3.64,0,0,0,.52-.44l1,.52a.14.14,0,0,0,.19-.06l.85-1.69a.14.14,0,0,0-.06-.19l-1-.52a3.63,3.63,0,0,0,.05-.68L22,17.47a.14.14,0,0,0,.09-.18l-.59-1.8A.14.14,0,0,0,21.32,15.41Zm-3.43,4.48a2.1,2.1,0,1,1,1.34-2.65A2.1,2.1,0,0,1,17.89,19.89Z"/><path class="cls-1" d="M35.51,21.35l-1.36-.52a4.63,4.63,0,0,0,0-.87l1.33-.59a.18.18,0,0,0,.09-.23l-1-2.2a.18.18,0,0,0-.23-.09L33,17.44a4.63,4.63,0,0,0-.63-.6l.52-1.36a.18.18,0,0,0-.1-.23l-2.25-.86a.18.18,0,0,0-.23.1l-.52,1.36a4.63,4.63,0,0,0-.87,0l-.59-1.33a.18.18,0,0,0-.23-.09l-2.2,1a.18.18,0,0,0-.09.23L26.41,17a4.63,4.63,0,0,0-.6.63l-1.36-.52a.18.18,0,0,0-.23.1l-.86,2.25a.18.18,0,0,0,.1.23l1.36.52a4.63,4.63,0,0,0,0,.87l-1.33.59a.18.18,0,0,0-.09.23l1,2.2a.18.18,0,0,0,.23.09L26,23.59a4.64,4.64,0,0,0,.63.6l-.52,1.36a.18.18,0,0,0,.1.23l2.25.86a.18.18,0,0,0,.23-.1l.52-1.36a4.63,4.63,0,0,0,.87,0l.59,1.33a.18.18,0,0,0,.23.09l2.2-1a.18.18,0,0,0,.09-.23L32.56,24a4.62,4.62,0,0,0,.6-.63l1.36.52a.18.18,0,0,0,.23-.1l.86-2.25A.18.18,0,0,0,35.51,21.35Zm-7,1.66A2.67,2.67,0,1,1,32,21.47,2.67,2.67,0,0,1,28.52,23Z"/><path class="cls-1" d="M26.72,9.06h-.94a3,3,0,0,0-.21-.52l.67-.67a.11.11,0,0,0,0-.16l-1.1-1.1a.11.11,0,0,0-.16,0l-.67.67a3,3,0,0,0-.52-.21V6.13A.11.11,0,0,0,23.67,6H22.12a.11.11,0,0,0-.11.11v.94a3,3,0,0,0-.52.21l-.67-.67a.11.11,0,0,0-.16,0l-1.1,1.1a.11.11,0,0,0,0,.16l.67.67a3,3,0,0,0-.21.52h-.94a.11.11,0,0,0-.11.11v1.55a.11.11,0,0,0,.11.11H20a3,3,0,0,0,.21.52l-.67.67a.11.11,0,0,0,0,.16l1.1,1.1a.11.11,0,0,0,.16,0l.67-.67a3,3,0,0,0,.52.21v.94a.11.11,0,0,0,.11.11h1.55a.11.11,0,0,0,.11-.11v-.94a3,3,0,0,0,.52-.21l.67.67a.11.11,0,0,0,.16,0l1.1-1.1a.11.11,0,0,0,0-.16l-.67-.67a3,3,0,0,0,.21-.52h.94a.11.11,0,0,0,.11-.11V9.18A.11.11,0,0,0,26.72,9.06ZM22.9,11.68A1.72,1.72,0,1,1,24.62,10,1.72,1.72,0,0,1,22.9,11.68Z"/></svg>