<?xml version="1.0" encoding="utf-8"?>
<!-- Generator: Adobe Illustrator 24.0.1, SVG Export Plug-In . SVG Version: 6.00 Build 0)  -->
<!DOCTYPE svg PUBLIC "-//W3C//DTD SVG 1.1//EN" "http://www.w3.org/Graphics/SVG/1.1/DTD/svg11.dtd" [
	<!ENTITY ns_extend "http://ns.adobe.com/Extensibility/1.0/">
	<!ENTITY ns_ai "http://ns.adobe.com/AdobeIllustrator/10.0/">
	<!ENTITY ns_graphs "http://ns.adobe.com/Graphs/1.0/">
	<!ENTITY ns_vars "http://ns.adobe.com/Variables/1.0/">
	<!ENTITY ns_imrep "http://ns.adobe.com/ImageReplacement/1.0/">
	<!ENTITY ns_sfw "http://ns.adobe.com/SaveForWeb/1.0/">
	<!ENTITY ns_custom "http://ns.adobe.com/GenericCustomNamespace/1.0/">
	<!ENTITY ns_adobe_xpath "http://ns.adobe.com/XPath/1.0/">
]>
<svg version="1.1" id="Layer_1" xmlns:x="&ns_extend;" xmlns:i="&ns_ai;" xmlns:graph="&ns_graphs;"
	 xmlns="http://www.w3.org/2000/svg" xmlns:xlink="http://www.w3.org/1999/xlink" x="0px" y="0px" viewBox="0 0 50.46 50.46"
	 enable-background="new 0 0 50.46 50.46" xml:space="preserve">
<metadata>
	<sfw  xmlns="&ns_sfw;">
		<slices></slices>
		<sliceSourceBounds  bottomLeftOrigin="true" height="17.237" width="45.178" x="660.411" y="269.881"></sliceSourceBounds>
	</sfw>
</metadata>
<g>
	<path d="M47.439,28.568c-0.006-1.54,0.016-1.747,0.005-3.269c-0.001-0.16,0.021-0.128-0.021-0.262l-1.519-4.335
		c-0.099-0.288-0.346-0.483-0.813-0.534c-1.763-0.191-2.303-0.221-4.085-0.262l-0.02-1.068l-1.675,0.018l0.024,7.394H23.908
		l-0.063,2.877l-0.461,0.042l0.007,1.764l0.916-0.002c0.007-0.206,0.017-0.406,0.034-0.603c0.333-1.647,1.832-2.85,3.579-2.846
		c1.879,0.004,3.787,0.004,5.667,0c1.952-0.004,3.502,1.509,3.568,3.446c0.978,0,0.852,0.004,1.834,0.004
		c0.063-1.939,1.653-3.491,3.608-3.491c1.949,0,3.536,1.543,3.608,3.475h1.562l0.052-2.274L47.439,28.568z M44.352,24.359
		l-2.926-0.696c-0.173,0-0.321-0.146-0.321-0.323v-1.953c0-0.177,0.148-0.379,0.321-0.379c1.051,0,1.877-0.004,2.926,0.009V24.359z
		 M46.467,25.692c0,0.146-0.177,0.321-0.348,0.321l-0.745-0.016c-0.17,0-0.32-0.166-0.32-0.321c0-2.033,0.002-2.551,0.002-4.616
		c0.076,0.002,0.154,0.002,0.231,0.002c0.175,0,0.198,0.169,0.236,0.321l0.958,3.765L46.467,25.692z"/>
	<path d="M38.225,20.998c0-2.419-1.859-4.387-4.145-4.387H6.786c-2.285,0-4.145,1.968-4.145,4.387c0,1.788,1.018,3.327,2.472,4.009
		H3.801l-0.073,5.92h1.082c0.066-1.937,1.655-3.491,3.61-3.488l5.653,0.014c1.967-0.193,3.685,1.571,3.75,3.473h2.736l1.997-5.544
		H34.08C36.365,25.384,38.225,23.417,38.225,20.998z"/>
	<path d="M8.27,28.242c-1.55,0-2.804,1.256-2.804,2.804c0,1.549,1.255,2.803,2.804,2.803c1.549,0,2.803-1.254,2.803-2.803
		C11.073,29.497,9.819,28.242,8.27,28.242z M8.27,32.436c-0.768,0-1.39-0.623-1.39-1.39c0-0.769,0.622-1.392,1.39-1.392
		c0.768,0,1.389,0.623,1.389,1.392C9.659,31.813,9.038,32.436,8.27,32.436z"/>
	<path d="M14.216,28.242c-1.55,0-2.804,1.256-2.804,2.804c0,1.549,1.255,2.803,2.804,2.803c1.549,0,2.803-1.254,2.803-2.803
		C17.018,29.497,15.765,28.242,14.216,28.242z M14.216,32.436c-0.768,0-1.39-0.623-1.39-1.39c0-0.769,0.622-1.392,1.39-1.392
		c0.769,0,1.389,0.623,1.389,1.392C15.605,31.813,14.985,32.436,14.216,32.436z"/>
	<path d="M42.695,28.242c-1.55,0-2.804,1.256-2.804,2.804c0,1.549,1.255,2.803,2.804,2.803c1.549,0,2.803-1.254,2.803-2.803
		C45.498,29.497,44.244,28.242,42.695,28.242z M42.695,32.436c-0.768,0-1.391-0.623-1.391-1.39c0-0.769,0.623-1.392,1.391-1.392
		c0.768,0,1.389,0.623,1.389,1.392C44.084,31.813,43.463,32.436,42.695,32.436z"/>
	<path d="M27.762,28.242c-1.55,0-2.803,1.256-2.803,2.804c0,1.549,1.254,2.803,2.803,2.803c1.549,0,2.803-1.254,2.803-2.803
		C30.566,29.497,29.311,28.242,27.762,28.242z M27.762,32.436c-0.768,0-1.39-0.623-1.39-1.39c0-0.769,0.622-1.392,1.39-1.392
		c0.769,0,1.389,0.623,1.389,1.392C29.151,31.813,28.531,32.436,27.762,32.436z"/>
	<path d="M33.708,28.242c-1.549,0-2.804,1.256-2.804,2.804c0,1.549,1.255,2.803,2.804,2.803c1.549,0,2.804-1.254,2.804-2.803
		C36.512,29.497,35.257,28.242,33.708,28.242z M33.708,32.436c-0.768,0-1.39-0.623-1.39-1.39c0-0.769,0.622-1.392,1.39-1.392
		c0.769,0,1.39,0.623,1.39,1.392C35.098,31.813,34.477,32.436,33.708,32.436z"/>
</g>
</svg>
