<?xml version="1.0" encoding="utf-8"?>
<!-- Generator: Adobe Illustrator 24.0.1, SVG Export Plug-In . SVG Version: 6.00 Build 0)  -->
<!DOCTYPE svg PUBLIC "-//W3C//DTD SVG 1.1//EN" "http://www.w3.org/Graphics/SVG/1.1/DTD/svg11.dtd" [
	<!ENTITY ns_extend "http://ns.adobe.com/Extensibility/1.0/">
	<!ENTITY ns_ai "http://ns.adobe.com/AdobeIllustrator/10.0/">
	<!ENTITY ns_graphs "http://ns.adobe.com/Graphs/1.0/">
	<!ENTITY ns_vars "http://ns.adobe.com/Variables/1.0/">
	<!ENTITY ns_imrep "http://ns.adobe.com/ImageReplacement/1.0/">
	<!ENTITY ns_sfw "http://ns.adobe.com/SaveForWeb/1.0/">
	<!ENTITY ns_custom "http://ns.adobe.com/GenericCustomNamespace/1.0/">
	<!ENTITY ns_adobe_xpath "http://ns.adobe.com/XPath/1.0/">
]>
<svg version="1.1" id="Layer_1" xmlns:x="&ns_extend;" xmlns:i="&ns_ai;" xmlns:graph="&ns_graphs;"
	 xmlns="http://www.w3.org/2000/svg" xmlns:xlink="http://www.w3.org/1999/xlink" x="0px" y="0px" viewBox="0 0 50.46 50.46"
	 enable-background="new 0 0 50.46 50.46" xml:space="preserve">
<metadata>
	<sfw  xmlns="&ns_sfw;">
		<slices></slices>
		<sliceSourceBounds  bottomLeftOrigin="true" height="18.79" width="45.178" x="660.411" y="269.105"></sliceSourceBounds>
	</sfw>
</metadata>
<g>
	<path d="M47.43,28.936c-0.008-1.42,0.008-2.282,0.008-3.45c0-0.187-1.707-0.934-1.715-0.968l-1.57-3.881
		c-0.106-0.297-0.358-0.539-0.842-0.551c-0.067-1.009-2.435-2.605-5.284-3.38l-0.102,0.858l-0.358,0.028v2.789l-0.236,0.641
		l-0.016,6.438l-1.79,0.002V15.835h-9.309l-1.306,1.464H2.641v10.365h1.704l-0.024,1.851l-0.472,0.043l0.004,1.81l0.948,0.012
		c0.063-2.007,1.711-3.61,3.73-3.61c1.291,0,2.431,0.655,3.1,1.652c0.7-1.003,1.865-1.658,3.183-1.658
		c2.058,0,3.738,1.595,3.875,3.616h9.081v0.755c0,0.191,0.153,0.346,0.346,0.346h5.626c0.193,0,0.346-0.155,0.346-0.346v-0.755H37
		c0.067-2.007,1.707-3.61,3.73-3.61c2.014,0,3.659,1.595,3.73,3.592l3.309-0.037l0.051-2.313L47.43,28.936z M42.209,24.49
		l-3.226-0.767c-0.193,0-0.354-0.159-0.354-0.354v-2.154c0-0.195,0.161-0.419,0.354-0.419c1.157,0,2.066-0.004,3.226,0.012V24.49z
		 M44.502,25.962c0,0.159-0.161,0.352-0.35,0.352l-0.818-0.018c-0.189,0-0.354-0.183-0.354-0.352c0-2.243,0-2.813,0-5.087
		c0.086,0.002,0.173,0.002,0.256,0.002c0.193,0,0.22,0.185,0.26,0.352l1.058,4.149L44.502,25.962z"/>
	<path d="M8.578,28.669c-1.644,0-2.978,1.334-2.978,2.978c0,1.645,1.334,2.978,2.978,2.978c1.645,0,2.979-1.334,2.979-2.978
		C11.556,30.002,10.222,28.669,8.578,28.669z M8.578,33.124c-0.814,0-1.475-0.661-1.475-1.477c0-0.816,0.661-1.477,1.475-1.477
		c0.818,0,1.476,0.661,1.476,1.477C10.053,32.463,9.396,33.124,8.578,33.124z"/>
	<path d="M40.812,28.669c-1.648,0-2.978,1.334-2.978,2.978c0,1.645,1.33,2.978,2.978,2.978c1.645,0,2.978-1.334,2.978-2.978
		C43.79,30.002,42.457,28.669,40.812,28.669z M40.812,33.124c-0.818,0-1.479-0.661-1.479-1.477c0-0.816,0.661-1.477,1.479-1.477
		c0.815,0,1.476,0.661,1.476,1.477C42.287,32.463,41.626,33.124,40.812,33.124z"/>
	<path d="M14.861,28.669c-1.645,0-2.978,1.334-2.978,2.978c0,1.645,1.334,2.978,2.978,2.978c1.644,0,2.978-1.334,2.978-2.978
		C17.839,30.002,16.506,28.669,14.861,28.669z M14.861,33.124c-0.814,0-1.475-0.661-1.475-1.477c0-0.816,0.661-1.477,1.475-1.477
		c0.818,0,1.475,0.661,1.475,1.477C16.336,32.463,15.679,33.124,14.861,33.124z"/>
</g>
</svg>
