<?xml version="1.0" encoding="utf-8"?>
<!-- Generator: Adobe Illustrator 24.0.1, SVG Export Plug-In . SVG Version: 6.00 Build 0)  -->
<!DOCTYPE svg PUBLIC "-//W3C//DTD SVG 1.1//EN" "http://www.w3.org/Graphics/SVG/1.1/DTD/svg11.dtd" [
	<!ENTITY ns_extend "http://ns.adobe.com/Extensibility/1.0/">
	<!ENTITY ns_ai "http://ns.adobe.com/AdobeIllustrator/10.0/">
	<!ENTITY ns_graphs "http://ns.adobe.com/Graphs/1.0/">
	<!ENTITY ns_vars "http://ns.adobe.com/Variables/1.0/">
	<!ENTITY ns_imrep "http://ns.adobe.com/ImageReplacement/1.0/">
	<!ENTITY ns_sfw "http://ns.adobe.com/SaveForWeb/1.0/">
	<!ENTITY ns_custom "http://ns.adobe.com/GenericCustomNamespace/1.0/">
	<!ENTITY ns_adobe_xpath "http://ns.adobe.com/XPath/1.0/">
]>
<svg version="1.1" id="Layer_1" xmlns:x="&ns_extend;" xmlns:i="&ns_ai;" xmlns:graph="&ns_graphs;"
	 xmlns="http://www.w3.org/2000/svg" xmlns:xlink="http://www.w3.org/1999/xlink" x="0px" y="0px" viewBox="0 0 50.46 50.46"
	 enable-background="new 0 0 50.46 50.46" xml:space="preserve">
<metadata>
	<sfw  xmlns="&ns_sfw;">
		<slices></slices>
		<sliceSourceBounds  bottomLeftOrigin="true" height="20.625" width="45.178" x="660.411" y="268.187"></sliceSourceBounds>
	</sfw>
</metadata>
<g>
	<path d="M47.389,29.298c-0.005-1.56,0.014-2.504,0.009-3.788c0-0.153-0.338-0.324-0.338-0.511c-0.005-0.183-1.12-0.398-1.166-0.551
		l-1.726-4.26c-0.097-0.287-0.324-0.527-0.74-0.59l-5.803,0.014c-0.671,0.003-0.865,0.451-0.939,1l-0.019,7.068h-1.49V14.917H2.641
		V27.9h1.872l-0.026,2.032L3.966,29.98l0.007,1.987l1.039,0.012c0.072-2.2,1.878-3.961,4.095-3.961c1.417,0,2.667,0.72,3.402,1.812
		c0.77-1.099,2.048-1.818,3.495-1.818c2.255,0,4.101,1.749,4.252,3.968h5.934v0.828c0,0.208,0.171,0.382,0.379,0.382h6.178
		c0.208,0,0.38-0.171,0.38-0.382v-0.828h3.198c0.069-2.201,1.874-3.961,4.091-3.961c2.212,0,4.012,1.751,4.095,3.943l3.253-0.042
		l0.056-2.541L47.389,29.298z M42.034,24.61l-3.54-0.842c-0.208,0-0.384-0.176-0.384-0.391v-2.073c0-0.215,0.176-0.461,0.384-0.461
		c1.272,0,2.272-0.005,3.54,0.012V24.61z M44.557,26.225c0,0.174-0.176,0.387-0.384,0.387l-0.902-0.019
		c-0.204,0-0.384-0.201-0.384-0.389c0-2.462,0-2.8,0-5.294c0.093,0,0.19,0,0.282,0c0.208,0,0.241,0.206,0.282,0.389l1.162,4.266
		L44.557,26.225z"/>
	<path d="M9.159,29.004c-1.807,0-3.269,1.462-3.269,3.269c0,1.805,1.462,3.269,3.269,3.269c1.805,0,3.269-1.465,3.269-3.269
		C12.428,30.466,10.964,29.004,9.159,29.004z M9.159,33.893c-0.896,0-1.622-0.724-1.622-1.62c0-0.898,0.727-1.622,1.622-1.622
		s1.62,0.724,1.62,1.622C10.779,33.169,10.055,33.893,9.159,33.893z"/>
	<path d="M40.503,29.004c-1.805,0-3.267,1.462-3.267,3.269c0,1.805,1.462,3.269,3.267,3.269c1.809,0,3.272-1.465,3.272-3.269
		C43.774,30.466,42.312,29.004,40.503,29.004z M40.503,33.893c-0.893,0-1.62-0.724-1.62-1.62c0-0.898,0.727-1.622,1.62-1.622
		c0.898,0,1.62,0.724,1.62,1.622C42.122,33.169,41.4,33.893,40.503,33.893z"/>
	<path d="M16.056,29.004c-1.808,0-3.27,1.462-3.271,3.269c0,1.805,1.462,3.269,3.271,3.269c1.805,0,3.268-1.465,3.268-3.269
		C19.325,30.466,17.861,29.004,16.056,29.004z M16.056,33.893c-0.896,0-1.623-0.724-1.623-1.62c0-0.898,0.728-1.622,1.623-1.622
		s1.62,0.724,1.62,1.622C17.676,33.169,16.952,33.893,16.056,33.893z"/>
</g>
</svg>
