<?xml version="1.0" encoding="utf-8"?>
<!-- Generator: Adobe Illustrator 24.0.1, SVG Export Plug-In . SVG Version: 6.00 Build 0)  -->
<!DOCTYPE svg PUBLIC "-//W3C//DTD SVG 1.1//EN" "http://www.w3.org/Graphics/SVG/1.1/DTD/svg11.dtd" [
	<!ENTITY ns_extend "http://ns.adobe.com/Extensibility/1.0/">
	<!ENTITY ns_ai "http://ns.adobe.com/AdobeIllustrator/10.0/">
	<!ENTITY ns_graphs "http://ns.adobe.com/Graphs/1.0/">
	<!ENTITY ns_vars "http://ns.adobe.com/Variables/1.0/">
	<!ENTITY ns_imrep "http://ns.adobe.com/ImageReplacement/1.0/">
	<!ENTITY ns_sfw "http://ns.adobe.com/SaveForWeb/1.0/">
	<!ENTITY ns_custom "http://ns.adobe.com/GenericCustomNamespace/1.0/">
	<!ENTITY ns_adobe_xpath "http://ns.adobe.com/XPath/1.0/">
]>
<svg version="1.1" id="Layer_1" xmlns:x="&ns_extend;" xmlns:i="&ns_ai;" xmlns:graph="&ns_graphs;"
	 xmlns="http://www.w3.org/2000/svg" xmlns:xlink="http://www.w3.org/1999/xlink" x="0px" y="0px" viewBox="0 0 50.46 50.46"
	 enable-background="new 0 0 50.46 50.46" xml:space="preserve">
<metadata>
	<sfw  xmlns="&ns_sfw;">
		<slices></slices>
		<sliceSourceBounds  bottomLeftOrigin="true" height="20.501" width="46.449" x="659.776" y="268.25"></sliceSourceBounds>
	</sfw>
</metadata>
<g>
	<path fill="none" d="M33.832,17.364c-0.165-0.096-0.366-0.162-0.55-0.212l-3.064-0.212c-0.168-0.013-0.425-0.009-0.552,0.124
		c-0.087,0.093-0.097,0.236-0.087,0.356l0.323,3.439c0.073,0.334,0.196,0.719,0.469,0.946c0.142,0.119,0.314,0.184,0.495,0.219
		l7.431,0.459l0.085-1.123l-4.352-3.853C33.969,17.457,33.9,17.403,33.832,17.364z"/>
	<path d="M40.434,28.418c-1.953,0-3.534,1.58-3.534,3.531c0,1.951,1.58,3.531,3.534,3.531c1.948,0,3.529-1.58,3.529-3.531
		C43.963,29.998,42.383,28.418,40.434,28.418z M40.434,33.702c-0.967,0-1.753-0.783-1.753-1.753c0-0.967,0.786-1.753,1.753-1.753
		s1.75,0.785,1.75,1.753C42.184,32.919,41.401,33.702,40.434,33.702z"/>
	<path d="M47.36,27.203l-0.632-2.918c-0.076-0.343-0.217-0.592-0.354-0.684c-1.078-0.651-3.562-1.226-5.086-1.396
		c-2.026-1.767-7.025-6.795-9.035-6.891l-7.592-0.334c-0.479,0.15-0.639,0.281-0.718,0.832l-0.754,5.766L3.437,20.877
		c-0.747,3.097-0.994,1.746-0.968,5.066c0.004,0.167-0.465,0.225-0.464,0.388c0.007,0.445,0.052,2.347,0.084,3.461
		c0.024,0.795,0.54,0.849,1.17,0.962l3.928,0.722c0.239-2.477,2.322-4.41,4.863-4.41c2.602,0,4.728,2.032,4.877,4.599
		c5.526,0.005,13.077,0.08,18.502,0.208l0.21-0.002c0.042-2.663,2.21-4.804,4.885-4.804c2.616,0,4.751,2.056,4.878,4.639
		l2.392-0.229c0.198-0.368,0.58-0.814,0.661-1.359v-2.177C48.454,27.592,47.603,27.301,47.36,27.203z M27.956,21.604
		c0,0.171-0.153,0.328-0.336,0.317l-1.302-0.074c-0.18-0.011-0.341-0.143-0.336-0.318l0.123-4.442
		c0.006-0.176,0.152-0.33,0.336-0.318l1.179,0.081c0.185,0.013,0.336,0.146,0.336,0.318V21.604z M38.297,22.483l-7.431-0.459
		c-0.182-0.035-0.354-0.1-0.495-0.219c-0.274-0.226-0.396-0.612-0.469-0.946l-0.323-3.439c-0.01-0.12,0-0.263,0.087-0.356
		c0.127-0.133,0.384-0.137,0.552-0.124l3.064,0.212c0.184,0.051,0.385,0.117,0.55,0.212c0.068,0.039,0.137,0.093,0.198,0.143
		l4.352,3.853L38.297,22.483z"/>
	<path d="M12.05,28.418c-1.952,0-3.532,1.58-3.532,3.531c0,1.951,1.581,3.531,3.532,3.531c1.951,0,3.531-1.58,3.531-3.531
		C15.581,29.998,14.001,28.418,12.05,28.418z M12.05,33.702c-0.968,0-1.751-0.783-1.751-1.753c0-0.967,0.783-1.753,1.751-1.753
		c0.967,0,1.749,0.785,1.749,1.753C13.799,32.919,13.017,33.702,12.05,33.702z"/>
</g>
</svg>
