<svg id="Layer_1" data-name="Layer 1" xmlns="http://www.w3.org/2000/svg" viewBox="0 0 50.46 50.46"><defs><style>.cls-1{fill:#12b5e1;}</style></defs><title>candado cerrado</title><path class="cls-1" d="M33,20.11V14.37a7.8,7.8,0,1,0-15.6,0v5.74a5,5,0,0,0-4.45,5v17.1a1.74,1.74,0,0,0,1.73,1.73h21a1.74,1.74,0,0,0,1.73-1.73V25.07A5,5,0,0,0,33,20.11ZM25.23,8.37a6,6,0,0,1,6,6v5.68h-12V14.37A6,6,0,0,1,25.23,8.37Zm10.66,33.8a.14.14,0,0,1-.14.14h-21a.14.14,0,0,1-.14-.14V40H32.13a.9.9,0,0,0,0-1.8H14.57V25.07A3.44,3.44,0,0,1,18,21.64H32.46a3.44,3.44,0,0,1,3.43,3.43Z"/><path class="cls-1" d="M27.86,27.48a2.63,2.63,0,1,0-4,2.22l-1,4.18a.77.77,0,0,0,.14.64.75.75,0,0,0,.59.29H26.9a.75.75,0,0,0,.59-.29.77.77,0,0,0,.14-.64l-1-4.18A2.64,2.64,0,0,0,27.86,27.48Z"/></svg>