<svg id="Layer_1" data-name="Layer 1" xmlns="http://www.w3.org/2000/svg" viewBox="0 0 50.46 50.46"><defs><style>.cls-1{fill:#12b5e1;}</style></defs><title>canilla 02</title><path class="cls-1" d="M37.28,21a1,1,0,0,0-1,1v.33H29.81V18.43h3.33a3.45,3.45,0,1,0-.4-4.24H25.37A3.45,3.45,0,1,0,25,18.43h3.33v3.95H21.59A10.23,10.23,0,0,0,11.37,32.6v4.5a.75.75,0,0,0,.75.75h5.7a.75.75,0,0,0,.75-.75V32.6a3,3,0,0,1,3-3H36.27a1,1,0,0,0,2,0V22.05A1,1,0,0,0,37.28,21Zm-1.64-6.93a2,2,0,1,1-2,1.95A2,2,0,0,1,35.64,14.11ZM22.48,18a1.95,1.95,0,1,1,1.95-2A2,2,0,0,1,22.48,18Zm3.33-1.08a3.58,3.58,0,0,0,.12-.87,2.09,2.09,0,0,0,0-.36h6.33c0,.12,0,.23,0,.36a3.58,3.58,0,0,0,.12.87ZM36.27,28.07H21.59a4.53,4.53,0,0,0-4.52,4.53v3.75h-4.2V32.6a8.73,8.73,0,0,1,8.72-8.72H36.27Z"/></svg>