<svg id="Layer_1" data-name="Layer 1" xmlns="http://www.w3.org/2000/svg" viewBox="0 0 50.46 50.46"><defs><style>.cls-1{fill:#65b4e1;}</style></defs><title>cannabis medicinal 2</title><path class="cls-1" d="M43.55,16.4H34.06V6.91a3,3,0,0,0-3-3H19.44a3,3,0,0,0-3,3V16.4H6.91a3,3,0,0,0-3,3V31a3,3,0,0,0,3,3H16.4v9.49a3,3,0,0,0,3,3H31a3,3,0,0,0,3-3V34.06h9.49a3,3,0,0,0,3-3V19.44A3,3,0,0,0,43.55,16.4ZM44.87,31a1.32,1.32,0,0,1-1.32,1.32h-9.9a1.32,1.32,0,0,0-1.32,1.32v9.9A1.32,1.32,0,0,1,31,44.87H19.44a1.32,1.32,0,0,1-1.32-1.32v-9.9a1.32,1.32,0,0,0-1.32-1.32H6.91A1.32,1.32,0,0,1,5.59,31V19.44a1.32,1.32,0,0,1,1.32-1.32h9.9a1.32,1.32,0,0,0,1.32-1.32V6.91a1.32,1.32,0,0,1,1.32-1.32H31a1.32,1.32,0,0,1,1.32,1.32v9.9a1.32,1.32,0,0,0,1.32,1.32h9.9a1.32,1.32,0,0,1,1.32,1.32Z"/><path class="cls-1" d="M35.79,21.55c-5.69-.2-9.4,5.44-9.4,5.44a16.37,16.37,0,0,0,1.41-5.92c.19-3.5-2.57-7.42-2.57-7.42s-2.77,3.92-2.57,7.42A16.37,16.37,0,0,0,24.07,27s-3.71-5.64-9.4-5.44c0,0,1.5,4.71,8.55,7.35a10,10,0,0,0-6.91,1,6.76,6.76,0,0,0,6.69.46A3.27,3.27,0,0,0,22,32s1.54.33,3-1.86l-.23,2.37h.93l-.23-2.37c1.45,2.19,3,1.86,3,1.86a3.27,3.27,0,0,0-1-1.66,6.76,6.76,0,0,0,6.69-.46,10,10,0,0,0-6.91-1C34.28,26.26,35.79,21.55,35.79,21.55Z"/></svg>