<svg id="Layer_1" data-name="Layer 1" xmlns="http://www.w3.org/2000/svg" viewBox="0 0 50.46 50.46"><defs><style>.cls-1{fill:#65b4e1;}</style></defs><title>cannabis medicinal 1</title><path class="cls-1" d="M11.37,17.59C11,15.9,9.5,14.75,9,13.14A1.55,1.55,0,0,0,8.87,13c-.62,1.51-1.87,2.67-2.4,4.27a2.58,2.58,0,1,0,4.9.36Z"/><path class="cls-1" d="M19.5,41.74H11.89A2.48,2.48,0,0,1,10,40.55a4.79,4.79,0,0,1-.42-3.68c.44-1.09,3.46-8.22,5.88-13.8l0,.15h12.1l.67,1.55v0l.21.49a1,1,0,0,0,1.39.47,1,1,0,0,0,.41-1.3l-1.32-3h0c-1.26-2.88-2.31-5.24-2.71-6l.05-9.38a1.38,1.38,0,0,0-1.38-1.39H11.63a4.11,4.11,0,0,0-4.1,4.1v2a1,1,0,0,0,1,1h.69a1,1,0,0,0,1-1v-2a1.34,1.34,0,0,1,1.34-1.34h5.14v8c-1.18,2.17-8.31,19-9,20.66a6.66,6.66,0,0,0,.61,5.53,4.4,4.4,0,0,0,3.5,2.06h7.66a1,1,0,0,0,1-1.09A1,1,0,0,0,19.5,41.74Z"/><path class="cls-1" d="M34.52,41.67c7.95-3,9.64-8.3,9.64-8.3-6.42-.22-10.61,6.14-10.61,6.14a18.47,18.47,0,0,0,1.59-6.68c.22-4-2.9-8.38-2.9-8.38s-3.12,4.42-2.9,8.38a18.47,18.47,0,0,0,1.59,6.68s-4.19-6.36-10.61-6.14c0,0,1.7,5.32,9.64,8.3a11.34,11.34,0,0,0-7.8,1.13,7.63,7.63,0,0,0,7.55.52,3.69,3.69,0,0,0-1.12,1.87s1.74.37,3.37-2.1l-.26,2.67h1.05l-.26-2.67c1.63,2.47,3.37,2.1,3.37,2.1a3.69,3.69,0,0,0-1.12-1.87,7.63,7.63,0,0,0,7.55-.52A11.34,11.34,0,0,0,34.52,41.67Z"/></svg>