<svg id="Layer_1" data-name="Layer 1" xmlns="http://www.w3.org/2000/svg" viewBox="0 0 50.46 50.46"><defs><style>.cls-1{fill:#65b4e1;}</style></defs><title>capacitacion</title><circle class="cls-1" cx="10.42" cy="31.09" r="2.86" transform="translate(-22.37 31.49) rotate(-72.16)"/><circle class="cls-1" cx="40.23" cy="31.09" r="2.86" transform="translate(-1.7 59.86) rotate(-72.16)"/><path class="cls-1" d="M43.45,35.4H36.81a5,5,0,0,0-4.13,2.16,5,5,0,0,0-4.13-2.16H21.91a5,5,0,0,0-4.13,2.16,5,5,0,0,0-4.13-2.16H7a5.05,5.05,0,0,0-5,5v3.75a1,1,0,0,0,1.93,0V40.45A3.12,3.12,0,0,1,7,37.34h6.65a3.12,3.12,0,0,1,3.11,3.11v3.75a1,1,0,0,0,1,1h.1a1,1,0,0,0,1-1V40.45a3.12,3.12,0,0,1,3.11-3.11h6.65a3.12,3.12,0,0,1,3.11,3.11v3.75a1,1,0,0,0,1,1h.1a1,1,0,0,0,1-1V40.45a3.12,3.12,0,0,1,3.11-3.11h6.65a3.12,3.12,0,0,1,3.11,3.11v3.75a1,1,0,0,0,1.93,0V40.45A5.05,5.05,0,0,0,43.45,35.4Z"/><circle class="cls-1" cx="25.27" cy="8.16" r="2.86" transform="translate(9.75 29.71) rotate(-72.16)"/><path class="cls-1" d="M28.55,18a6.21,6.21,0,0,1,2.6.57V16.44c0-4.23-4.4-4.26-5.78-4.38H25c-1.38.11-5.66.14-5.66,4.38v2A6.21,6.21,0,0,1,21.91,18Z"/><circle class="cls-1" cx="25.33" cy="31.09" r="2.86" transform="translate(-12.03 45.67) rotate(-72.16)"/><path class="cls-1" d="M17.83,29.46a1,1,0,0,0,1-1V24.75a3.12,3.12,0,0,1,3.11-3.11h6.65a3.12,3.12,0,0,1,3.11,3.11V28.5a1,1,0,0,0,1.93,0V24.75a5.05,5.05,0,0,0-5-5H21.91a5.05,5.05,0,0,0-5,5V28.5A1,1,0,0,0,17.83,29.46Z"/></svg>