<svg id="Layer_1" data-name="Layer 1" xmlns="http://www.w3.org/2000/svg" viewBox="0 0 50.46 50.46"><defs><style>.cls-1{fill:#65b4e1;}</style></defs><title>carrito</title><path class="cls-1" d="M44.09,13.86a1,1,0,0,0-.77-.38H13.71L12,8.34a1,1,0,0,0-.93-.67H7.14a1,1,0,0,0,0,2h3.23l6,17.91L13.7,32a1,1,0,0,0,.84,1.47H39.66a1,1,0,0,0,0-2H16.24l1.74-3,22.59-1.8a1,1,0,0,0,.87-.74L44.27,14.7A1,1,0,0,0,44.09,13.86Zm-3.17,6.2H33.17V15.44h8.9ZM18.08,26.61l-1.75-5.25h7.86v4.76Zm7.41-5.25h6.37v4.15L25.49,26Zm0-1.3V15.44h6.37v4.62Zm-1.3-4.62v4.62H15.9l-1.54-4.62Zm15.52,9.45-6.54.52V21.36h7.43Z"/><path class="cls-1" d="M20.63,34.42a4.18,4.18,0,1,0,4.19,4.18A4.19,4.19,0,0,0,20.63,34.42Zm0,6.41a2.23,2.23,0,1,1,2.23-2.23A2.23,2.23,0,0,1,20.63,40.83Z"/><path class="cls-1" d="M33.49,34.42a4.18,4.18,0,1,0,4.18,4.18A4.19,4.19,0,0,0,33.49,34.42Zm0,6.41a2.23,2.23,0,1,1,2.23-2.23A2.23,2.23,0,0,1,33.49,40.83Z"/></svg>