<svg id="Layer_1" data-name="Layer 1" xmlns="http://www.w3.org/2000/svg" viewBox="0 0 50.46 50.46"><defs><style>.cls-1{fill:#65b4e1;}</style></defs><title>carrito mas</title><path class="cls-1" d="M18.43,34.42a4.18,4.18,0,1,0,4.19,4.18A4.19,4.19,0,0,0,18.43,34.42Zm0,6.41a2.23,2.23,0,1,1,2.23-2.23A2.23,2.23,0,0,1,18.43,40.83Z"/><path class="cls-1" d="M31.29,34.42a4.18,4.18,0,1,0,4.18,4.18A4.19,4.19,0,0,0,31.29,34.42Zm0,6.41a2.23,2.23,0,1,1,2.23-2.23A2.23,2.23,0,0,1,31.29,40.83Z"/><path class="cls-1" d="M46.5,14.57a6.63,6.63,0,0,0-13.18-1.08H11.51L9.8,8.34a1,1,0,0,0-.93-.67H4.93a1,1,0,0,0,0,2H8.17l6,17.91L11.49,32a1,1,0,0,0,.84,1.47H37.45a1,1,0,0,0,0-2H14l1.74-3,22.59-1.8a1,1,0,0,0,.87-.74l1.22-4.87A6.64,6.64,0,0,0,46.5,14.57ZM31,15.44h2.33a6.64,6.64,0,0,0,2.85,4.62H31ZM22,26.13l-6.11.49-1.75-5.25H22Zm0-6.07H13.7l-1.54-4.62H22Zm7.67,5.46L23.29,26V21.36h6.37Zm0-5.46H23.29V15.44h6.37Zm7.85,4.83L31,25.41V21.36h7.43Zm2.36-5a5.28,5.28,0,1,1,5.28-5.28A5.28,5.28,0,0,1,39.87,19.85Z"/><path class="cls-1" d="M43.14,13.59H40.84V11.3a1,1,0,1,0-2,0v2.29H36.6a1,1,0,1,0,0,2h2.29v2.29a1,1,0,0,0,2,0V15.54h2.29a1,1,0,1,0,0-2Z"/></svg>