<?xml version="1.0" encoding="utf-8"?>
<!-- Generator: Adobe Illustrator 24.0.1, SVG Export Plug-In . SVG Version: 6.00 Build 0)  -->
<svg version="1.1" id="Layer_1" xmlns="http://www.w3.org/2000/svg" xmlns:xlink="http://www.w3.org/1999/xlink" x="0px" y="0px"
	 viewBox="0 0 50.5 50.5" style="enable-background:new 0 0 50.5 50.5;" xml:space="preserve">
<path d="M46.5,40.8h-7.4v-7.3h7.4c0.3,0,0.6-0.3,0.6-0.6s-0.3-0.6-0.6-0.6h-7.4v-8.4h7.4c0.3,0,0.6-0.3,0.6-0.6s-0.3-0.6-0.6-0.6
	h-7.4v-1.8h5.1c0.3,0,0.6-0.3,0.6-0.6s-0.3-0.6-0.6-0.6h-5.1v-1.7c0-0.4-0.4-0.8-0.8-0.8h-8.4v-2h-1.1c0,0,0,0,0,0
	c0-1.7-1.2-3.1-2.8-3.4h-0.1v-1.4c0.4,0,0.8,0.1,1.2,0.3c0.5,0.2,1,0.3,1.6,0.3c0.2,0,0.5,0,0.7-0.1c0.3-0.1,0.5-0.3,0.5-0.6V7.7
	c0-0.2-0.1-0.4-0.2-0.5c-0.1-0.1-0.3-0.2-0.5-0.1c-0.6,0.1-1.1,0-1.7-0.2c-0.5-0.2-1-0.4-1.6-0.3c-0.1-0.2-0.3-0.4-0.6-0.4
	c-0.3,0-0.6,0.3-0.6,0.6v0.5c0,0,0,0,0,0v2.8c0,0,0,0,0,0v1.9c-1.6,0.3-2.8,1.7-2.8,3.4c0,0,0,0,0,0h-1.2v2h-8.4
	c-0.4,0-0.8,0.4-0.8,0.8v1.7h-5c-0.3,0-0.6,0.3-0.6,0.6s0.3,0.6,0.6,0.6h5v1.8H4.1c-0.3,0-0.6,0.3-0.6,0.6s0.3,0.6,0.6,0.6h7.4v8.4
	H4c-0.3,0-0.6,0.3-0.6,0.6s0.3,0.6,0.6,0.6h7.5v7.2H4.1c-0.4,0-0.8,0.4-0.8,0.8s0.4,0.8,0.8,0.8h8.2h25.9c0.1,0,0.1,0,0.2,0
	s0.1,0,0.2,0h8.1c0.4,0,0.8-0.4,0.8-0.8S46.9,40.8,46.5,40.8z M28.7,8.3C28.7,8.3,28.7,8.3,28.7,8.3l0,1.6c0,0,0,0,0,0
	c-0.4,0-0.8-0.1-1.2-0.3c-0.5-0.2-1-0.3-1.6-0.3c0,0,0,0,0,0V7.7c0.4,0,0.8,0.1,1.2,0.3C27.6,8.1,28.1,8.3,28.7,8.3z M25.4,13.3
	c1.1,0,1.9,0.9,1.9,1.9c0,0,0,0,0,0c0,1.1-0.9,1.9-1.9,1.9s-1.9-0.8-1.9-1.9c0,0,0,0,0,0C23.4,14.2,24.3,13.3,25.4,13.3z M20,18.9
	h10.7v3.8H20V18.9z M13.1,18.9h5.7v3.8h-5.7V18.9z M20,40.8h-6.9v-7.2H20V40.8z M29.4,40.8h-8.2v-8.7v-1.3c0-2.3,1.8-4.1,4.1-4.1
	s4.1,1.8,4.1,4.1V40.8z M37.5,40.8h-6.9v-7.3h6.9V40.8z M37.5,32.3h-6.9v-1.5c0-2.9-2.4-5.3-5.3-5.3c-2.9,0-5.3,2.4-5.3,5.3v1.5
	h-6.9v-8.4h6.3h11.9h6.2V32.3z M37.5,22.7h-5.6v-3.8h5.6V22.7z"/>
<path d="M40.7,27.1v3.5h4v-3.5c0-1.1-0.9-2-2-2S40.7,26,40.7,27.1z"/>
<path d="M40.7,36.4v3.5h4v-3.5c0-1.1-0.9-2-2-2S40.7,35.3,40.7,36.4z"/>
<path d="M35.7,37.1c0-1-0.8-1.8-1.8-1.8s-1.8,0.8-1.8,1.8v2.8h3.6V37.1z"/>
<path d="M35.7,27.5c0-1-0.8-1.8-1.8-1.8s-1.8,0.8-1.8,1.8v2.8h3.6V27.5z"/>
<path d="M7.6,34.4c-1.1,0-2,0.9-2,2v3.5h4v-3.5C9.6,35.3,8.7,34.4,7.6,34.4z"/>
<path d="M7.6,25.1c-1.1,0-2,0.9-2,2v3.5h4v-3.5C9.6,26,8.7,25.1,7.6,25.1z"/>
<path d="M18.3,37.1c0-1-0.8-1.8-1.8-1.8h0c-1,0-1.8,0.8-1.8,1.8v2.8h3.6V37.1z"/>
<path d="M16.5,25.7L16.5,25.7c-1,0-1.8,0.8-1.8,1.8v2.8h3.6v-2.8C18.3,26.6,17.5,25.7,16.5,25.7z"/>
<path d="M14.8,19.7c-0.4,0-0.8,0.4-0.8,0.8v0.6c0,0.4,0.4,0.8,0.8,0.8s0.8-0.4,0.8-0.8v-0.6C15.6,20.1,15.2,19.7,14.8,19.7z"/>
<path d="M17,19.7c-0.4,0-0.8,0.4-0.8,0.8v0.6c0,0.4,0.4,0.8,0.8,0.8s0.8-0.4,0.8-0.8v-0.6C17.8,20.1,17.5,19.7,17,19.7z"/>
<path d="M33.6,21.9c0.4,0,0.8-0.4,0.8-0.8v-0.6c0-0.4-0.4-0.8-0.8-0.8s-0.8,0.4-0.8,0.8v0.6C32.8,21.6,33.1,21.9,33.6,21.9z"/>
<path d="M35.8,21.9c0.4,0,0.8-0.4,0.8-0.8v-0.6c0-0.4-0.4-0.8-0.8-0.8c-0.4,0-0.8,0.4-0.8,0.8v0.6C35,21.6,35.4,21.9,35.8,21.9z"/>
<path d="M22.4,19.7c-0.4,0-0.8,0.4-0.8,0.8v0.6c0,0.4,0.4,0.8,0.8,0.8c0.4,0,0.8-0.4,0.8-0.8v-0.6C23.2,20.1,22.8,19.7,22.4,19.7z"
	/>
<path d="M25.4,19.7c-0.4,0-0.8,0.4-0.8,0.8v0.6c0,0.4,0.4,0.8,0.8,0.8c0.4,0,0.8-0.4,0.8-0.8v-0.6C26.2,20.1,25.8,19.7,25.4,19.7z"
	/>
<path d="M28.3,19.7c-0.4,0-0.8,0.4-0.8,0.8v0.6c0,0.4,0.4,0.8,0.8,0.8c0.4,0,0.8-0.4,0.8-0.8v-0.6C29.1,20.1,28.8,19.7,28.3,19.7z"
	/>
</svg>
