<svg id="Layer_1" data-name="Layer 1" xmlns="http://www.w3.org/2000/svg" viewBox="0 0 50.46 50.46"><defs><style>.cls-1{fill:#65b4e1;}</style></defs><title>casco urbano</title><path class="cls-1" d="M14.74,35.47H11.45a.58.58,0,0,0-.58.58v1.21a2.67,2.67,0,0,0,2.66,2.66h1.21a.58.58,0,0,0,.58-.58V36A.58.58,0,0,0,14.74,35.47Zm-.58,3.29h-.62a1.5,1.5,0,0,1-1.5-1.5v-.62h2.12Z"/><path class="cls-1" d="M26.84,28.69H25.44a.58.58,0,0,0-.58.58v3.29a.58.58,0,0,0,.58.58h2.39a.58.58,0,0,0,.56-.75l-1-3.29A.58.58,0,0,0,26.84,28.69ZM26,32V29.85h.39L27.05,32Z"/><path class="cls-1" d="M36.89,29.5l2.58,5.84a.58.58,0,0,0,.53.35h.12a.58.58,0,0,0,.46-.57V29.27a.58.58,0,0,0-.58-.58H37.42a.58.58,0,0,0-.53.82Zm2.54.35v2.51l-1.11-2.51Z"/><path class="cls-1" d="M14.74,28.69H11.45a.58.58,0,0,0-.58.58v3.29a.58.58,0,0,0,.58.58h3.29a.58.58,0,0,0,.58-.58V29.27A.58.58,0,0,0,14.74,28.69ZM14.16,32H12V29.85h2.12Z"/><path class="cls-1" d="M30.92,14.54h7.8A.58.58,0,0,0,39.3,14V11a.58.58,0,0,0-.58-.58h-7.8a.58.58,0,0,0-.58.58V14A.58.58,0,0,0,30.92,14.54Zm.58-2.92h6.63v1.76H31.5Z"/><path class="cls-1" d="M24.86,36.17v3a.58.58,0,0,0,.58.58h5.08A.58.58,0,0,0,31,39l-1.51-3a.58.58,0,0,0-.52-.32H25.44A.58.58,0,0,0,24.86,36.17Zm1.16.58h2.62l.93,1.87H26Z"/><path class="cls-1" d="M14.74,10.45H11.81a.58.58,0,0,0-.58.58v8.41a.58.58,0,0,0,.58.58h2.93a.58.58,0,0,0,.58-.58V11A.58.58,0,0,0,14.74,10.45Zm-.58,8.41H12.39V11.62h1.77Z"/><path class="cls-1" d="M27.44,19.63H38.89a.58.58,0,0,0,.58-.58V16.27a.58.58,0,0,0-.58-.58h0l-9.7,0V12.28a.58.58,0,0,0-.58-.58H25.66a.58.58,0,0,0-.58.58v5A2.36,2.36,0,0,0,27.44,19.63Zm-1.19-6.77H28v3.43a.58.58,0,0,0,.58.58h0l9.7,0v1.61H27.44a1.19,1.19,0,0,1-1.19-1.19Z"/><path class="cls-1" d="M37.87,6.83H12.59a5.76,5.76,0,0,0-5.76,5.76V37.87a5.76,5.76,0,0,0,5.76,5.76H37.87a5.76,5.76,0,0,0,5.76-5.76V12.59A5.76,5.76,0,0,0,37.87,6.83ZM23.38,8.58H37.87a4,4,0,0,1,3.88,3v9.58H24.41a1,1,0,0,1-1-1Zm-14.8,4a4,4,0,0,1,4-4h4.55v11.6a1,1,0,0,1-1,1H8.58Zm8.56,29.29H12.59a4,4,0,0,1-4-4V27.27h7.53a1,1,0,0,1,1,1Zm6.24,0V28.3a1,1,0,0,1,1-1h2.91a1,1,0,0,1,1,.63l5.85,14Zm18.5-4a4,4,0,0,1-.21,1.26.93.93,0,0,1-1.73.1l-5.36-12h7.3Zm0-12.35H34.15a1.47,1.47,0,0,0-1.34,2.06l6.3,14.07a4,4,0,0,1-1.24.22H36L29.89,27.23a2.77,2.77,0,0,0-2.56-1.7H24.41a2.78,2.78,0,0,0-2.78,2.78V41.88H18.89V28.3a2.78,2.78,0,0,0-2.78-2.78H8.58V23h7.53a2.78,2.78,0,0,0,2.78-2.78V8.58h2.75v11.6A2.78,2.78,0,0,0,24.41,23H41.88Z"/></svg>