<?xml version="1.0" encoding="utf-8"?>
<!-- Generator: Adobe Illustrator 24.0.1, SVG Export Plug-In . SVG Version: 6.00 Build 0)  -->
<!DOCTYPE svg PUBLIC "-//W3C//DTD SVG 1.1//EN" "http://www.w3.org/Graphics/SVG/1.1/DTD/svg11.dtd" [
	<!ENTITY ns_extend "http://ns.adobe.com/Extensibility/1.0/">
	<!ENTITY ns_ai "http://ns.adobe.com/AdobeIllustrator/10.0/">
	<!ENTITY ns_graphs "http://ns.adobe.com/Graphs/1.0/">
	<!ENTITY ns_vars "http://ns.adobe.com/Variables/1.0/">
	<!ENTITY ns_imrep "http://ns.adobe.com/ImageReplacement/1.0/">
	<!ENTITY ns_sfw "http://ns.adobe.com/SaveForWeb/1.0/">
	<!ENTITY ns_custom "http://ns.adobe.com/GenericCustomNamespace/1.0/">
	<!ENTITY ns_adobe_xpath "http://ns.adobe.com/XPath/1.0/">
]>
<svg version="1.1" id="Layer_1" xmlns:x="&ns_extend;" xmlns:i="&ns_ai;" xmlns:graph="&ns_graphs;"
	 xmlns="http://www.w3.org/2000/svg" xmlns:xlink="http://www.w3.org/1999/xlink" x="0px" y="0px" viewBox="0 0 50.46 50.46"
	 enable-background="new 0 0 50.46 50.46" xml:space="preserve">
<metadata>
	<sfw  xmlns="&ns_sfw;">
		<slices></slices>
		<sliceSourceBounds  bottomLeftOrigin="true" height="21.841" width="46.449" x="659.776" y="267.58"></sliceSourceBounds>
	</sfw>
</metadata>
<g>
	<path d="M17.612,29.321c-1.889,0-3.417,1.528-3.417,3.415c0,1.887,1.528,3.414,3.417,3.414c1.885,0,3.412-1.528,3.412-3.414
		C21.024,30.849,19.497,29.321,17.612,29.321z M17.612,34.428c-0.938,0-1.692-0.757-1.692-1.692c0-0.935,0.755-1.695,1.692-1.695
		c0.933,0,1.692,0.759,1.692,1.695C19.304,33.671,18.545,34.428,17.612,34.428z"/>
	<path d="M41.818,29.321c-1.889,0-3.417,1.528-3.417,3.415c0,1.887,1.528,3.414,3.417,3.414c1.885,0,3.412-1.528,3.412-3.414
		C45.23,30.849,43.702,29.321,41.818,29.321z M41.818,34.428c-0.938,0-1.697-0.757-1.697-1.692c0-0.935,0.759-1.695,1.697-1.695
		c0.933,0,1.688,0.759,1.688,1.695C43.506,33.671,42.751,34.428,41.818,34.428z"/>
	<path d="M9.434,29.321c-1.889,0-3.417,1.528-3.417,3.415c0,1.887,1.528,3.414,3.417,3.414c1.885,0,3.412-1.528,3.412-3.414
		C12.846,30.849,11.318,29.321,9.434,29.321z M9.434,34.428c-0.933,0-1.692-0.757-1.692-1.692c0-0.935,0.759-1.695,1.692-1.695
		s1.692,0.759,1.692,1.695C11.126,33.671,10.367,34.428,9.434,34.428z"/>
	<path d="M47.572,28.242c-0.261-0.741-0.467-3.117-0.796-3.378l-3.097-0.268l-3.376-5.799l0.357-0.498l0.224-0.568
		c-2.328-1.345-6.111-2.161-8.864-2.383l-0.297-0.002v-1.002c-13.69-0.009-13.791-0.028-27.147-0.034
		c-0.695,0.04-1.619,0.447-1.912,1.669L2.381,28.974c0,0.135-0.375,0.18-0.375,0.313c0.005,0.357,0.041,1.228,0.069,2.127
		c0.009,0.352,0.741,1.265,3.06,1.45c0-0.043,0-0.087,0-0.128c0-2.369,1.917-4.286,4.286-4.286c1.912,0,3.536,1.256,4.085,2.987
		c0.549-1.731,2.168-2.987,4.085-2.987c2.776,0,4.053,1.869,4.386,4.16c7.149,0,8.306,0.037,15.556,0.037
		c0.046-2.326,1.944-4.197,4.286-4.197c2.337,0,4.235,1.871,4.281,4.197h2.273c0.037-0.096,0.069-0.199,0.082-0.304v-3.506
		C48.454,28.558,47.769,28.322,47.572,28.242z M15.961,23.647c0,0.165-0.142,0.304-0.306,0.304h-3.581
		c-0.165,0-0.307-0.135-0.307-0.304v-4.261c0-0.168,0.137-0.305,0.307-0.305h3.581c0.169,0,0.306,0.141,0.306,0.305V23.647z
		 M20.887,23.647c0,0.165-0.142,0.304-0.306,0.304h-3.581c-0.165,0-0.302-0.135-0.302-0.304v-4.261c0-0.168,0.137-0.305,0.302-0.305
		h3.581c0.169,0,0.306,0.141,0.306,0.305V23.647z M29.664,23.647c0,0.167-0.137,0.304-0.302,0.304h-3.581
		c-0.169,0-0.306-0.135-0.306-0.304v-4.261c0-0.168,0.137-0.305,0.306-0.305h3.581c0.165,0,0.302,0.139,0.302,0.305V23.647z
		 M34.586,23.668c0,0.167-0.137,0.306-0.302,0.306h-1.048c-0.169,0-0.307-0.137-0.307-0.306V19.41c0-0.169,0.137-0.307,0.307-0.307
		h1.048c0.165,0,0.302,0.14,0.302,0.307V23.668z M41.008,23.999v-0.912c0-0.197-0.256-0.362-0.572-0.362h-0.407l0,1.709
		l-3.517-0.345c-0.146-0.025-0.288-0.073-0.402-0.165c-0.229-0.176-0.334-0.485-0.403-0.752l-0.188-3.603
		c-0.014-0.096-0.009-0.212,0.059-0.288c0.101-0.112,0.307-0.12,0.444-0.114l2.891,0.093c0.151,0.037,0.316,0.085,0.448,0.158
		c0.055,0.03,0.114,0.071,0.165,0.11l2.287,3.405l0.005,0.476L41.008,23.999z"/>
</g>
</svg>
