<?xml version="1.0" encoding="utf-8"?>
<!-- Generator: Adobe Illustrator 24.0.1, SVG Export Plug-In . SVG Version: 6.00 Build 0)  -->
<!DOCTYPE svg PUBLIC "-//W3C//DTD SVG 1.1//EN" "http://www.w3.org/Graphics/SVG/1.1/DTD/svg11.dtd" [
	<!ENTITY ns_extend "http://ns.adobe.com/Extensibility/1.0/">
	<!ENTITY ns_ai "http://ns.adobe.com/AdobeIllustrator/10.0/">
	<!ENTITY ns_graphs "http://ns.adobe.com/Graphs/1.0/">
	<!ENTITY ns_vars "http://ns.adobe.com/Variables/1.0/">
	<!ENTITY ns_imrep "http://ns.adobe.com/ImageReplacement/1.0/">
	<!ENTITY ns_sfw "http://ns.adobe.com/SaveForWeb/1.0/">
	<!ENTITY ns_custom "http://ns.adobe.com/GenericCustomNamespace/1.0/">
	<!ENTITY ns_adobe_xpath "http://ns.adobe.com/XPath/1.0/">
]>
<svg version="1.1" id="Layer_1" xmlns:x="&ns_extend;" xmlns:i="&ns_ai;" xmlns:graph="&ns_graphs;"
	 xmlns="http://www.w3.org/2000/svg" xmlns:xlink="http://www.w3.org/1999/xlink" x="0px" y="0px" viewBox="0 0 50.46 50.46"
	 enable-background="new 0 0 50.46 50.46" xml:space="preserve">
<metadata>
	<sfw  xmlns="&ns_sfw;">
		<slices></slices>
		<sliceSourceBounds  bottomLeftOrigin="true" height="19.59" width="46.449" x="659.776" y="268.705"></sliceSourceBounds>
	</sfw>
</metadata>
<g>
	<path d="M20.044,29.37c-1.565,0-2.832,1.265-2.832,2.828c0,1.561,1.267,2.827,2.832,2.827c1.561,0,2.827-1.267,2.827-2.827
		C22.871,30.634,21.604,29.37,20.044,29.37z M20.044,33.599c-0.774,0-1.406-0.629-1.406-1.402c0-0.776,0.631-1.404,1.406-1.404
		c0.774,0,1.398,0.627,1.398,1.404C21.441,32.97,20.818,33.599,20.044,33.599z"/>
	<path d="M43.649,29.37c-1.561,0-2.828,1.265-2.828,2.828c0,1.561,1.267,2.827,2.828,2.827c1.565,0,2.828-1.267,2.828-2.827
		C46.477,30.634,45.214,29.37,43.649,29.37z M43.649,33.599c-0.774,0-1.402-0.629-1.402-1.402c0-0.776,0.627-1.404,1.402-1.404
		c0.775,0,1.402,0.627,1.402,1.404C45.051,32.97,44.424,33.599,43.649,33.599z"/>
	<path d="M13.268,29.37c-1.565,0-2.828,1.265-2.828,2.828c0,1.561,1.263,2.827,2.828,2.827c1.561,0,2.828-1.267,2.828-2.827
		C16.096,30.634,14.829,29.37,13.268,29.37z M13.268,33.599c-0.774,0-1.402-0.629-1.402-1.402c0-0.776,0.628-1.404,1.402-1.404
		c0.774,0,1.402,0.627,1.402,1.404C14.67,32.97,14.043,33.599,13.268,33.599z"/>
	<path d="M47.72,28.474l-0.163-1.821l-0.365-0.276l-0.131-0.624l-1.557-0.3l-3.106-4.337l0.298-0.413l-0.083-0.651l-0.159-0.231
		h-6.918v9.341h-0.592v-9.908h6.723v-1.506l-1.561-1.506H26.191v-0.807h-4.357v0.807h-4.158v-0.807h-4.361v0.806
		c-0.639,0-8.284-0.007-8.284,0.009c-0.56,0.086-1.247,0.578-1.473,1.525c-0.036,1.694-0.071,3.382-0.107,5.069
		c-0.079-0.151-0.242-0.254-0.425-0.254H2.49c-0.266,0-0.485,0.218-0.485,0.484v4.375c0,0.266,0.219,0.484,0.485,0.484h0.536
		c0.123,0,0.238-0.048,0.322-0.125L3.324,29.08c0,0.113-0.31,0.151-0.31,0.26c0.004,0.298,0.036,1.016,0.056,1.761
		c0.008,0.294,4.714,1.048,6.636,1.201c0-0.036,0-0.071,0-0.105c0-1.962,1.589-3.55,3.55-3.55c1.585,0,2.927,1.038,3.384,2.474
		c0.457-1.436,1.799-2.474,3.384-2.474c2.299,0,3.356,1.549,3.634,3.447h5.036v0.897c2.442,0.014,4.075,0.034,6.394,0.057
		l0.139-0.927h4.877c0.036-1.926,1.608-3.475,3.546-3.475c1.938,0,3.511,1.549,3.55,3.475h1.183
		c0.032-0.079,0.056-0.163,0.072-0.252v-2.903C48.454,28.734,47.883,28.54,47.72,28.474z M7.18,24.67
		c0,0.137-0.115,0.252-0.25,0.252H6.06c-0.135,0-0.25-0.113-0.25-0.252v-3.53c0-0.14,0.111-0.253,0.25-0.253h0.87
		c0.139,0,0.25,0.115,0.25,0.253V24.67z M14.67,24.67c0,0.137-0.115,0.252-0.254,0.252h-2.967c-0.135,0-0.25-0.113-0.25-0.252v-3.53
		c0-0.14,0.111-0.253,0.25-0.253h2.967c0.139,0,0.254,0.115,0.254,0.253V24.67z M18.673,24.67c0,0.137-0.115,0.252-0.254,0.252
		h-2.967c-0.135,0-0.25-0.113-0.25-0.252v-3.53c0-0.14,0.111-0.253,0.25-0.253h2.967c0.139,0,0.254,0.115,0.254,0.253V24.67z
		 M22.756,24.67c0,0.137-0.115,0.252-0.254,0.252h-2.967c-0.139,0-0.254-0.113-0.254-0.252v-3.53c0-0.14,0.115-0.253,0.254-0.253
		h2.967c0.139,0,0.254,0.115,0.254,0.253V24.67z M33.586,24.67c0,0.137-0.111,0.252-0.25,0.252h-2.967
		c-0.139,0-0.254-0.113-0.254-0.252v-3.53c0-0.14,0.115-0.253,0.254-0.253h2.967c0.139,0,0.25,0.115,0.25,0.253V24.67z
		 M37.664,25.152c0,0.137-0.115,0.252-0.254,0.252h-0.866c-0.139,0-0.254-0.113-0.254-0.252v-3.529c0-0.141,0.115-0.254,0.254-0.254
		h0.866c0.139,0,0.254,0.115,0.254,0.254V25.152z M42.982,25.424v-1.451c0-0.165-0.215-0.3-0.473-0.3h-0.342l0,2.111L39.257,25.5
		c-0.119-0.022-0.234-0.062-0.334-0.137c-0.187-0.147-0.278-0.401-0.334-0.624l-0.155-2.984c-0.012-0.08-0.008-0.175,0.052-0.238
		c0.079-0.093,0.254-0.099,0.365-0.095l2.395,0.077c0.123,0.03,0.258,0.07,0.373,0.131c0.044,0.024,0.091,0.058,0.135,0.091
		l1.894,2.82l0.004,0.393L42.982,25.424z"/>
</g>
</svg>
