<svg id="Layer_1" data-name="Layer 1" xmlns="http://www.w3.org/2000/svg" viewBox="0 0 50.46 50.46"><defs><style>.cls-1{fill:#12b5e1;}</style></defs><title>cataratas</title><path class="cls-1" d="M20.7,36.46a.8.8,0,0,0,.8-.81V12.81a.81.81,0,0,0-1.61,0V35.65A.81.81,0,0,0,20.7,36.46Z"/><path class="cls-1" d="M26.72,36.6a.81.81,0,0,0,.81-.81V31.72a.81.81,0,0,0-1.61,0v4.07A.8.8,0,0,0,26.72,36.6Z"/><path class="cls-1" d="M26.72,30.23a.8.8,0,0,0,.81-.8V10.32a.81.81,0,0,0-1.61,0V29.43A.8.8,0,0,0,26.72,30.23Z"/><path class="cls-1" d="M23.71,21.86a.8.8,0,0,0,.8-.8V8.88a.8.8,0,0,0-1.6,0V21.06A.8.8,0,0,0,23.71,21.86Z"/><path class="cls-1" d="M23.71,38.12a.8.8,0,0,0,.8-.8V24.05a.8.8,0,1,0-1.6,0V37.32A.8.8,0,0,0,23.71,38.12Z"/><path class="cls-1" d="M29.74,25.89a.8.8,0,0,0,.8-.8v-12a.8.8,0,0,0-1.6,0v12A.8.8,0,0,0,29.74,25.89Z"/><path class="cls-1" d="M29.74,32.63a.8.8,0,0,0,.8-.8V28.07a.8.8,0,0,0-1.6,0v3.76A.8.8,0,0,0,29.74,32.63Z"/><path class="cls-1" d="M29.74,38.37a.8.8,0,0,0,.8-.81V34.81a.8.8,0,0,0-1.6,0v2.75A.8.8,0,0,0,29.74,38.37Z"/><path class="cls-1" d="M17.68,24.17a.8.8,0,0,0,.81-.8v-15a.81.81,0,0,0-1.61,0v15A.8.8,0,0,0,17.68,24.17Z"/><path class="cls-1" d="M17.68,32.11a.81.81,0,0,0,.81-.81V27.23a.81.81,0,0,0-1.61,0V31.3A.8.8,0,0,0,17.68,32.11Z"/><path class="cls-1" d="M17.68,39a.81.81,0,0,0,.81-.81V34.81a.81.81,0,0,0-1.61,0v3.37A.8.8,0,0,0,17.68,39Z"/><path class="cls-1" d="M32.73,21.3a.8.8,0,0,0,.8-.8V8.35a.8.8,0,1,0-1.6,0V20.5A.8.8,0,0,0,32.73,21.3Z"/><path class="cls-1" d="M32.78,24.29a.8.8,0,0,0-.81.8V36.78a.81.81,0,0,0,1.61,0V25.09A.8.8,0,0,0,32.78,24.29Z"/><path class="cls-1" d="M48.66,5.11V5a.24.24,0,0,0,0-.08h0l0-.09h0l0-.06v0l0,0h0l0-.05,0,0s0,0,0,0h0l-.07,0h0l-.06,0h0l-.06,0H2.31l-.06,0h0l-.06,0h0l-.07,0h0L2,4.58l0,0,0,.05H2l0,0v0l0,.06h0l0,.09h0a.24.24,0,0,0,0,.08V45.32a.8.8,0,0,0,.81.8H47.86a.8.8,0,0,0,.81-.8V5.11ZM13.53,39.73,3.67,5.94h10.2V39.72h-.34ZM15.47,5.94H35.13V40a4.73,4.73,0,0,0-2.46,2,4.35,4.35,0,0,0-7.61-.07,4.35,4.35,0,0,0-7.57,0,4.74,4.74,0,0,0-2-1.83ZM36.73,39.73V5.94H46.79l-9.86,33.8ZM12,40.13A4.68,4.68,0,0,0,10,41.91a4.41,4.41,0,0,0-3.72-2.19,4.23,4.23,0,0,0-2.92,1.2V10.75ZM6.32,41.32a3.19,3.19,0,0,1,2.91,3.2H3.41A3.19,3.19,0,0,1,6.32,41.32Zm7.44,0a3.19,3.19,0,0,1,2.91,3.2H10.85A3.19,3.19,0,0,1,13.76,41.32Zm7.51,0a3.22,3.22,0,0,1,3,3.2H18.3A3.21,3.21,0,0,1,21.27,41.32Zm7.58,0a3.21,3.21,0,0,1,3,3.2H25.87A3.22,3.22,0,0,1,28.85,41.32Zm7.65,0a3.23,3.23,0,0,1,3,3.2H33.53A3.21,3.21,0,0,1,36.5,41.32Zm7.58-1.6a4.5,4.5,0,0,0-3.79,2.21,4.71,4.71,0,0,0-1.83-1.72l8.6-29.46V40.94A4.31,4.31,0,0,0,44.08,39.72Zm3,4.8H41.1a3.22,3.22,0,0,1,3-3.2A3.21,3.21,0,0,1,47.05,44.52Z"/></svg>