<svg id="Layer_1" data-name="Layer 1" xmlns="http://www.w3.org/2000/svg" viewBox="0 0 50.46 50.46"><defs><style>.cls-1{fill:#12b5e1;}</style></defs><title>caza</title><path class="cls-1" d="M31.31,13.51h1.8a3.27,3.27,0,0,0-.07.62,3.73,3.73,0,0,0,7.45,0,3.8,3.8,0,0,0-.06-.59h1.79a.55.55,0,0,0,0-1.09H40.74L40.13,10a2.11,2.11,0,0,0-2-1.6H36a2.13,2.13,0,0,0-2,1.29l-1.18,2.77H31.31a.55.55,0,0,0,0,1.09Z"/><path class="cls-1" d="M20.49,37l-.71-.63a10.66,10.66,0,0,0,1.4,3.08l-.75,1.44c-.22.45-.25.85.2,1.07A.78.78,0,0,0,21,42a.91.91,0,0,0,.82-.5l1-1.89a.89.89,0,0,0,.05-.66A30.26,30.26,0,0,1,20.49,37Z"/><path class="cls-1" d="M12.48,37.53l-1.08-.67-.26-.15.58-.44c-.31-.32-.8-.76-1.1-1l-1,1.18a.68.68,0,0,0-.16.53.65.65,0,0,0,.31.46l2,1.23a.67.67,0,0,0,.34.09.68.68,0,0,0,.56-.31.65.65,0,0,0,.08-.49A.64.64,0,0,0,12.48,37.53Z"/><path class="cls-1" d="M26.32,38.23,25,37.2a5.13,5.13,0,0,1-.72-.68c-1.15-1.36-.34-3.44-1.6-4.86a3.58,3.58,0,0,0,1.45-2.24c.1-.37.05-.73-.21-.79s-.47.07-.61.36-.72,1.85-2.09,2c-2.06-.43-5.85-.05-9-.52-1.54-.23-2.34-1-3.07-1.15-1.55-.31-1.89.43-2.52.86a4.19,4.19,0,0,1-2.21.29c-.25,0-.3.2-.31.52,0,1.15.91,1.56,2.17,1.38a4.25,4.25,0,0,1,1.47,0c.09.69.31,1.41.8,1.45s.74-.32.94-.79a16.22,16.22,0,0,1,3.39,2.91,2.75,2.75,0,0,1,.69,1.65l.23,3.65a.91.91,0,0,0,.89.85h.06a.89.89,0,0,0,.85-1l-.22-3.36a2.06,2.06,0,0,1,1-1.87,7.77,7.77,0,0,1,2.55-1.07c.92-.17,2.46,2,5.07,3.81l1,.8.31,1.89a.92.92,0,0,0,.88.77h.14a.91.91,0,0,0,.76-1l-.36-2.25A.89.89,0,0,0,26.32,38.23Z"/><path class="cls-1" d="M44.84,39,37.9,39a8.76,8.76,0,0,1,.54-2.59c.52-.9,1.39-1.17,2.76-1.53s2.85-.74,3.71-2.23h0a5.19,5.19,0,0,0,.76-3.28,17.73,17.73,0,0,0-3.94-9.77c-2.19-2.5-7.37.48-8.68,1.29l-1.19.58c-1.09.5-2.59-.52-3.68-1.27l-2.41-2.07,4,1.49a.7.7,0,0,0,.94-.67l-.06-2.41a.7.7,0,0,0-.7-.68L7.71,15.77a.5.5,0,0,0-.5.5.5.5,0,0,0,.5.5h6.38c.33.58,1.05,1.32,3.48,1.32h3.59a1.39,1.39,0,0,0,.29.35l4.29,3.65a15.69,15.69,0,0,0,1.82,1.33,7.27,7.27,0,0,0,3.66,1.2,4.7,4.7,0,0,0,2-.42l2.27-1.12a11.71,11.71,0,0,1,2.77,7.5l-1.78-.45A3.35,3.35,0,0,0,32.37,32l-1.61,4.44L29.46,40A1.58,1.58,0,0,0,30,41.81a1.61,1.61,0,0,0,.87.27,1.53,1.53,0,0,0,1.44-1l2.88-7.94a.58.58,0,0,1,.43,0l1.36.35a5.23,5.23,0,0,0-1.21,1.43c-1,1.77-1,5.52-1,5.67a1.54,1.54,0,0,0,1.53,1.53h.08l.79,0,7.73,0h0a1.54,1.54,0,0,0,1.48-1.91A1.58,1.58,0,0,0,44.84,39Z"/></svg>