<svg id="Layer_1" data-name="Layer 1" xmlns="http://www.w3.org/2000/svg" viewBox="0 0 50.46 50.46"><defs><style>.cls-1{fill:#12b5e1;}</style></defs><title>cedula azul</title><path class="cls-1" d="M21.24,22.41a1.14,1.14,0,0,0,.82-.35,1.14,1.14,0,0,0,0-1.64,1.14,1.14,0,0,0-.82-.35,1.17,1.17,0,0,0,0,2.34Z"/><polygon class="cls-1" points="13.43 33.55 15.56 33.55 14.49 30.36 13.43 33.55"/><path class="cls-1" d="M26.67,14.72c-2,.13-3.15,1.45-4.56,3.08l4.56,0Z"/><path class="cls-1" d="M29.41,20.07a1.14,1.14,0,0,0-.82.35,1.14,1.14,0,0,0,0,1.64,1.14,1.14,0,0,0,.82.35,1.17,1.17,0,0,0,0-2.34Z"/><path class="cls-1" d="M27.36,14.72v3l3.65,0A3.64,3.64,0,0,0,27.36,14.72Z"/><path class="cls-1" d="M42.22,10.3h-34a5,5,0,0,0-5,5V35.2a5,5,0,0,0,5,5h34a5,5,0,0,0,5-5V15.26A5,5,0,0,0,42.22,10.3Zm-22,7.22c1.73-.59,2.63-3.71,6.43-3.94a5.05,5.05,0,0,1,5.73,5.1v.06c.07,1.12.07,2.93.07,2.93l-.77,0a2.27,2.27,0,0,1-.65,1.25,2.21,2.21,0,0,1-1.65.68,2.24,2.24,0,0,1-1.65-.68,2.31,2.31,0,0,1-.54-.86H23.43a2.19,2.19,0,0,1-.54.86,2.24,2.24,0,0,1-1.65.68,2.21,2.21,0,0,1-1.65-.68A2.34,2.34,0,0,1,19,22h-.75S16.84,18.69,20.25,17.52ZM16.63,36.74,16,35H13l-.59,1.76H10.5l3.18-8.53h1.63l3.19,8.53Zm8.83,0H19v-1l4.22-6.08H19V28.21h6.4v1l-4.21,6.11h4.3ZM33,33.82A2.89,2.89,0,0,1,32.15,36a3.38,3.38,0,0,1-2.39.81,3.42,3.42,0,0,1-2.38-.79,2.82,2.82,0,0,1-.89-2.17V28.21h1.75v5.63a1.63,1.63,0,0,0,.41,1.22,1.54,1.54,0,0,0,1.11.38c1,0,1.49-.52,1.5-1.56V28.21H33ZM40,36.74H34.47V28.21h1.76v7.11H40Z"/></svg>