<svg id="Layer_1" data-name="Layer 1" xmlns="http://www.w3.org/2000/svg" viewBox="0 0 50.46 50.46"><defs><style>.cls-1{fill:#12b5e1;}</style></defs><title>cedula verde</title><path class="cls-1" d="M22.11,17.8l4.56,0v-3C24.68,14.85,23.52,16.17,22.11,17.8Z"/><path class="cls-1" d="M27.36,14.72v3l3.65,0A3.64,3.64,0,0,0,27.36,14.72Z"/><path class="cls-1" d="M29.41,20.07a1.14,1.14,0,0,0-.82.35,1.14,1.14,0,0,0,0,1.64,1.14,1.14,0,0,0,.82.35,1.17,1.17,0,0,0,0-2.34Z"/><path class="cls-1" d="M25.47,29.63H24.06v2.56h1.42a1.41,1.41,0,0,0,1-.34,1.2,1.2,0,0,0,.36-.93,1.3,1.3,0,0,0-.34-1A1.43,1.43,0,0,0,25.47,29.63Z"/><path class="cls-1" d="M21.24,20.07a1.17,1.17,0,0,0,0,2.34,1.14,1.14,0,0,0,.82-.35,1.14,1.14,0,0,0,0-1.64A1.14,1.14,0,0,0,21.24,20.07Z"/><path class="cls-1" d="M32.58,29.63h-.86v5.69h.85a1.9,1.9,0,0,0,1.57-.67,3,3,0,0,0,.56-1.93v-.45a3.08,3.08,0,0,0-.54-2A1.9,1.9,0,0,0,32.58,29.63Z"/><path class="cls-1" d="M42.22,10.3h-34a5,5,0,0,0-5,5V35.2a5,5,0,0,0,5,5h34a5,5,0,0,0,5-5V15.26A5,5,0,0,0,42.22,10.3ZM11.78,36.74H9.94L7,28.21h2l1.92,6.41,1.93-6.41h2Zm9.49,0H15.55V28.21h5.71v1.42h-4v2h3.37V33H17.31v2.29h4Zm7.67,0H27.06l-1.6-3.13h-1.4v3.13H22.3V28.21h3.17a3.56,3.56,0,0,1,2.33.67,2.31,2.31,0,0,1,.82,1.9,2.4,2.4,0,0,1-1.52,2.39l1.84,3.48ZM27.76,22.89a2.31,2.31,0,0,1-.54-.86H23.43a2.19,2.19,0,0,1-.54.86,2.24,2.24,0,0,1-1.65.68,2.21,2.21,0,0,1-1.65-.68A2.34,2.34,0,0,1,19,22h-.75s-1.45-3.34,2-4.51c1.73-.59,2.63-3.71,6.43-3.94a5.05,5.05,0,0,1,5.73,5.1v.06c.07,1.12.07,2.93.07,2.93l-.77,0a2.27,2.27,0,0,1-.65,1.25,2.21,2.21,0,0,1-1.65.68A2.24,2.24,0,0,1,27.76,22.89Zm8.72,9.78A4.45,4.45,0,0,1,36,34.79a3.58,3.58,0,0,1-1.38,1.43,4.06,4.06,0,0,1-2,.52H30V28.21h2.62a4,4,0,0,1,2,.5A3.55,3.55,0,0,1,36,30.15a4.49,4.49,0,0,1,.5,2.13Zm7,4.07H37.76V28.21h5.7v1.42H39.52v2h3.37V33H39.52v2.29h4Z"/></svg>