<svg id="Layer_1" data-name="Layer 1" xmlns="http://www.w3.org/2000/svg" viewBox="0 0 50.46 50.46"><defs><style>.cls-1{fill:#12b5e1;}</style></defs><title>celular</title><path class="cls-1" d="M32.69,3.68H19.57A5.28,5.28,0,0,0,14.3,9V42.28a5.27,5.27,0,0,0,5.27,5.26H32.69A5.27,5.27,0,0,0,38,42.28V9A5.27,5.27,0,0,0,32.69,3.68Zm3.67,38.6a3.66,3.66,0,0,1-3.67,3.66H19.57a3.67,3.67,0,0,1-3.67-3.66V40.19H36.36Zm0-3.69H15.9V12H36.36Zm0-28.24H15.9V9a3.67,3.67,0,0,1,3.67-3.67H32.69A3.67,3.67,0,0,1,36.36,9Z"/><path class="cls-1" d="M28.94,7.48H23.33a.8.8,0,1,0,0,1.6h5.61a.8.8,0,0,0,0-1.6Z"/><path class="cls-1" d="M19.91,7.71a.78.78,0,0,0-.26-.17.81.81,0,0,0-.61,0,.9.9,0,0,0-.26.17.79.79,0,0,0-.23.57.77.77,0,0,0,.06.3.78.78,0,0,0,.17.26.79.79,0,0,0,1.13,0,.68.68,0,0,0,.18-.26.77.77,0,0,0,.06-.3A.81.81,0,0,0,20.09,8,.68.68,0,0,0,19.91,7.71Z"/><path class="cls-1" d="M26.13,45.24A2.22,2.22,0,1,0,23.92,43,2.22,2.22,0,0,0,26.13,45.24Zm0-3.43A1.22,1.22,0,1,1,24.92,43,1.22,1.22,0,0,1,26.13,41.81Z"/></svg>