<?xml version="1.0" encoding="utf-8"?>
<!-- Generator: Adobe Illustrator 24.2.1, SVG Export Plug-In . SVG Version: 6.00 Build 0)  -->
<svg version="1.1" id="Layer_1" xmlns="http://www.w3.org/2000/svg" xmlns:xlink="http://www.w3.org/1999/xlink" x="0px" y="0px"
	 viewBox="0 0 50.5 50.5" style="enable-background:new 0 0 50.5 50.5;" xml:space="preserve">
<path d="M24.3,5.8H9.4c-2,0-3.6,1.6-3.6,3.6v31.7c0,2,1.6,3.6,3.6,3.6h14.9c2,0,3.6-1.6,3.6-3.6V9.4C27.8,7.4,26.2,5.8,24.3,5.8z
	 M12.9,7.7h7.5v1.6c0,0.9-0.5,1.5-0.9,1.5h-5.7c-0.4,0-0.9-0.6-0.9-1.5V7.7z M26,41.1h-0.1c0,0.9-0.7,1.7-1.7,1.7H9.4
	c-0.9,0-1.7-0.7-1.7-1.7V9.4c0-0.9,0.7-1.7,1.7-1.7h2v1.6c0,1.7,1.1,3.1,2.5,3.1h5.7c1.4,0,2.5-1.3,2.5-3.1V7.7h2.2
	c0.9,0,1.7,0.7,1.7,1.7V41.1z"/>
<path d="M17.9,40.3c0,0.608-0.492,1.1-1.1,1.1c-0.607,0-1.1-0.492-1.1-1.1c0-0.607,0.492-1.1,1.1-1.1
	C17.408,39.2,17.9,39.693,17.9,40.3z M42.4,13.1c-0.2-0.5-0.7-0.7-1.2-0.5c-0.5,0.2-0.7,0.7-0.5,1.2c1.2,3,1.8,6.1,1.7,9.4
	c0,3.3-0.6,6.4-1.8,9.4c-0.2,0.5,0,1,0.5,1.2c0.1,0,0.2,0.1,0.4,0.1c0.4,0,0.7-0.2,0.9-0.6c1.3-3.2,1.9-6.6,1.9-10.1
	S43.7,16.3,42.4,13.1z M31.8,18.1c-0.5,0.1-0.8,0.7-0.7,1.2c0.3,1.2,0.5,2.5,0.5,3.9c0,1.3-0.2,2.6-0.5,3.9c-0.1,0.5,0.2,1,0.7,1.2
	c0.1,0,0.2,0,0.2,0c0.4,0,0.8-0.3,0.9-0.7c0.4-1.4,0.6-2.9,0.6-4.4s-0.2-3-0.6-4.4C32.9,18.3,32.3,18,31.8,18.1z M36.5,15.4
	c-0.5,0.2-0.8,0.7-0.6,1.2c0.7,2.1,1.1,4.4,1.1,6.6c0,2.3-0.4,4.5-1.1,6.6c-0.2,0.5,0.1,1,0.6,1.2c0.1,0,0.2,0.1,0.3,0.1
	c0.4,0,0.8-0.2,0.9-0.6c0.8-2.3,1.2-4.8,1.2-7.3s-0.4-4.9-1.2-7.2C37.6,15.5,37,15.2,36.5,15.4z"/>
</svg>
