<?xml version="1.0" encoding="utf-8"?>
<!-- Generator: Adobe Illustrator 24.2.1, SVG Export Plug-In . SVG Version: 6.00 Build 0)  -->
<svg version="1.1" id="Layer_1" xmlns="http://www.w3.org/2000/svg" xmlns:xlink="http://www.w3.org/1999/xlink" x="0px" y="0px"
	 viewBox="0 0 50.5 50.5" style="enable-background:new 0 0 50.5 50.5;" xml:space="preserve">
<path d="M33.4,4.3H16.6c-2,0-3.6,1.6-3.6,3.6v35.2c0,2,1.6,3.6,3.6,3.6h16.8c2,0,3.6-1.6,3.6-3.6V7.9C37,5.9,35.4,4.3,33.4,4.3z
	 M20.6,6.2h0.1h8.4v1.9c0,1-0.6,1.7-1.1,1.7h-6.3c-0.5,0-1.1-0.7-1.1-1.7V6.2z M35.1,43.1c0,0.9-0.7,1.7-1.7,1.7H16.6
	c-0.9,0-1.7-0.7-1.7-1.7V7.9c0-0.9,0.7-1.7,1.7-1.7h2.5v1.9c0,1.8,1.2,3.3,2.7,3.3H28c1.5,0,2.7-1.5,2.7-3.3V6.2h2.7
	c0.9,0,1.7,0.7,1.7,1.7C35.1,7.9,35.1,43.1,35.1,43.1z M26.4,41.6c0,0.8-0.6,1.4-1.4,1.4s-1.4-0.6-1.4-1.4c0-0.8,0.6-1.4,1.4-1.4
	S26.4,40.8,26.4,41.6z M22,7.9c0-0.4,0.4-0.8,0.8-0.8h1.3c0.4,0,0.8,0.4,0.8,0.8s-0.4,0.8-0.8,0.8h-1.3C22.4,8.7,22,8.3,22,7.9z
	 M25.6,7.9c0-0.4,0.4-0.8,0.8-0.8h0.7c0.4,0,0.8,0.4,0.8,0.8s-0.4,0.8-0.8,0.8h-0.7C26,8.7,25.6,8.3,25.6,7.9z"/>
</svg>
