<svg id="Layer_1" data-name="Layer 1" xmlns="http://www.w3.org/2000/svg" viewBox="0 0 50.46 50.46"><defs><style>.cls-1{fill:#12b5e1;}</style></defs><title>celular qr</title><path class="cls-1" d="M18.07,23.08v2.15H16.6v3h1.47v1.45a.17.17,0,0,1-.1,0H16.6v3h1.48V31.21h1.48v1.47h1.52V31.2h2.23v1.48H31.5V27.47H26.28v3.7H24.79V26h1.49V24.5h2.23V26h3V24.47h-3V23h3V17.78H26.29v6.69H24.8v-2.2H23.31V24.5h1.47V26H23.3v.71s0,0,0,0H21.8v1.51h1.49v1.48H21.07V31.2H19.6V26.72h2.2V25.23H19.59V23h2.2V17.78H16.58V23h1.49ZM30,29v2.22H27.79V29Zm-2.23-9.69H30v2.22H27.78Zm-9.68,0h2.22v2.21H18.1Zm0,5.95h1.48V26.7H18.08Z"/><rect class="cls-1" x="22.53" y="17.77" width="1.51" height="2.98"/><path class="cls-1" d="M33.88,1.77H14.19a3.75,3.75,0,0,0-3.73,3.74V45a3.75,3.75,0,0,0,3.73,3.74H33.88A3.75,3.75,0,0,0,37.62,45V5.51A3.75,3.75,0,0,0,33.88,1.77Zm2,43.18a2,2,0,0,1-2,2H14.19a2.05,2.05,0,0,1-2-2V42.47H35.92Zm0-3.48H12.15V9H35.92ZM35.92,8H12.15V5.51a2.05,2.05,0,0,1,2-2H33.88a2,2,0,0,1,2,2.05Z"/><path class="cls-1" d="M19.7,45.25h8.67a.53.53,0,0,0,0-1.06H19.7a.53.53,0,0,0,0,1.06Z"/><path class="cls-1" d="M28.37,5.32H19.7a.53.53,0,1,0,0,1h8.67a.53.53,0,1,0,0-1Z"/><path class="cls-1" d="M16.81,5.21h-.12l-.12,0a.3.3,0,0,0-.11.06l-.09.08a.34.34,0,0,0-.08.09.3.3,0,0,0-.06.11.56.56,0,0,0,0,.12.63.63,0,0,0,.18.57l.09.08.11.06.12,0h.12a.62.62,0,0,0,.45-.19.64.64,0,0,0,.19-.45.65.65,0,0,0-.64-.63Z"/></svg>