<?xml version="1.0" encoding="utf-8"?>
<!-- Generator: Adobe Illustrator 24.2.1, SVG Export Plug-In . SVG Version: 6.00 Build 0)  -->
<svg version="1.1" id="Layer_1" xmlns="http://www.w3.org/2000/svg" xmlns:xlink="http://www.w3.org/1999/xlink" x="0px" y="0px"
	 viewBox="0 0 50.5 50.5" style="enable-background:new 0 0 50.5 50.5;" xml:space="preserve">
<g>
	<path d="M32.6,32.7v3.7c0,0,0,0.1,0,0.1c0,0.3,0.2,0.5,0.5,0.6c0,0,0.1,0,0.1,0c0,0,0.1,0,0.2,0h3.2c0.4,0,0.8-0.4,0.8-0.8v-3.7
		c0-0.4-0.4-0.8-0.8-0.8h-3.2C33,31.9,32.6,32.3,32.6,32.7z M34.2,33.5h1.6v2.1h-1.6V33.5z"/>
	<path d="M43.9,42h-2.6V24.4c0-0.4-0.4-0.8-0.8-0.8h-6v-5.8c0-0.3-0.1-0.5-0.3-0.7l-7.6-5.3v-1.5H31c0.4,0,0.8-0.4,0.8-0.8V6.2
		c0-0.4-0.4-0.8-0.8-0.8h-5.2c-0.4,0-0.8,0.4-0.8,0.8v5.2L17,17c-0.2,0.1-0.3,0.4-0.3,0.7v5.8h-6c-0.4,0-0.8,0.4-0.8,0.8V42h-3
		C6.4,42,6,42.4,6,42.8c0,0.4,0.4,0.8,0.8,0.8h37.1c0.4,0,0.8-0.4,0.8-0.8C44.7,42.4,44.4,42,43.9,42z M26.6,7h3.6v1.6h-3.6V7z
		 M24.8,42h-3V31.7h3V42z M29.5,42h-3.1V31.7h3.1V42z M39.8,42h-8.7V30.9c0-0.4-0.4-0.8-0.8-0.8H21c-0.4,0-0.8,0.4-0.8,0.8V42h-8.7
		V25.2h6c0.4,0,0.8-0.4,0.8-0.8v-0.1v-6.1l7.3-5.1l7.4,5.1v6.2c0,0.4,0.4,0.8,0.8,0.8h6V42z"/>
	<path d="M26.9,21.6h-0.5v-0.4c0-0.4-0.4-0.8-0.8-0.8c-0.4,0-0.8,0.4-0.8,0.8v1.2c0,0,0,0.1,0,0.1c0,0,0,0.1,0,0.1
		c0.1,0.3,0.3,0.5,0.6,0.5c0,0,0.1,0,0.1,0h1.3c0.4,0,0.8-0.4,0.8-0.8C27.7,22,27.3,21.6,26.9,21.6z"/>
	<path d="M25.7,17.9c-2.4,0-4.4,2-4.4,4.4v0c0.1,2.5,2,4.4,4.4,4.4c2.3,0,4.1-1.8,4.4-4c0-0.1,0-0.3,0-0.4c0-0.1,0-0.2,0-0.3
		C29.9,19.7,28,17.9,25.7,17.9z M28.5,22.6c-0.1,1.4-1.3,2.6-2.8,2.6c-1.4,0-2.4-1-2.7-2.3c0-0.2,0-0.4,0-0.5s0-0.4,0-0.6
		c0.3-1.3,1.3-2.2,2.7-2.2c1.4,0,2.6,1.1,2.8,2.5c0,0.1,0,0.2,0,0.3C28.5,22.5,28.5,22.5,28.5,22.6z"/>
	<path d="M18.6,32.4c-0.1-0.3-0.3-0.5-0.6-0.5c0,0-0.1,0-0.1,0h-3.2c-0.4,0-0.8,0.4-0.8,0.8v3.7c0,0.4,0.4,0.8,0.8,0.8h3.2
		c0.4,0,0.8-0.4,0.8-0.8v-3.7c0,0,0-0.1,0-0.2C18.7,32.5,18.7,32.5,18.6,32.4z M17.1,35.6h-1.6v-2.1h1.6V35.6z"/>
</g>
</svg>
