<?xml version="1.0" encoding="utf-8"?>
<!-- Generator: Adobe Illustrator 25.4.1, SVG Export Plug-In . SVG Version: 6.00 Build 0)  -->
<!DOCTYPE svg PUBLIC "-//W3C//DTD SVG 1.1//EN" "http://www.w3.org/Graphics/SVG/1.1/DTD/svg11.dtd" [
	<!ENTITY ns_extend "http://ns.adobe.com/Extensibility/1.0/">
	<!ENTITY ns_ai "http://ns.adobe.com/AdobeIllustrator/10.0/">
	<!ENTITY ns_graphs "http://ns.adobe.com/Graphs/1.0/">
	<!ENTITY ns_vars "http://ns.adobe.com/Variables/1.0/">
	<!ENTITY ns_imrep "http://ns.adobe.com/ImageReplacement/1.0/">
	<!ENTITY ns_sfw "http://ns.adobe.com/SaveForWeb/1.0/">
	<!ENTITY ns_custom "http://ns.adobe.com/GenericCustomNamespace/1.0/">
	<!ENTITY ns_adobe_xpath "http://ns.adobe.com/XPath/1.0/">
]>
<svg version="1.1" id="stroke_1_x2C_6" xmlns:x="&ns_extend;" xmlns:i="&ns_ai;" xmlns:graph="&ns_graphs;"
	 xmlns="http://www.w3.org/2000/svg" xmlns:xlink="http://www.w3.org/1999/xlink" x="0px" y="0px" viewBox="0 0 50.46 50.46"
	 enable-background="new 0 0 50.46 50.46" xml:space="preserve">
<metadata>
	<sfw  xmlns="&ns_sfw;">
		<slices></slices>
		<sliceSourceBounds  bottomLeftOrigin="true" height="25.697" width="42.051" x="4.225" y="12.402"></sliceSourceBounds>
	</sfw>
</metadata>
<g>
	<path fill="#1D1D1B" d="M29.564,30.914l0.026-0.044h-0.05c-0.14-0.222-0.386-0.359-0.649-0.359H15.375l-3.048-5.281l3.048-5.279
		h13.517c0.26,0,0.505-0.135,0.647-0.359h0.052l-0.026-0.045c0.124-0.233,0.12-0.516-0.012-0.741l-3.49-6.046
		c-0.137-0.233-0.389-0.378-0.659-0.378l-12.234,0c-0.364,0.008-1.293,0.083-2.068,0.623c-0.785,0.557-1.166,1.223-1.226,1.335
		l-5.14,8.904c-0.089,0.143-0.53,0.912-0.53,1.986c0,1.163,0.526,1.982,0.527,1.983l5.132,8.889c0.067,0.127,0.443,0.791,1.24,1.356
		c0.777,0.541,1.706,0.614,2.093,0.621h12.205c0.27,0,0.522-0.144,0.661-0.381l3.487-6.039
		C29.684,31.431,29.688,31.147,29.564,30.914z M9.278,32.036h18.291l-2.607,4.519h-11.78c-0.007,0-0.739-0.016-1.2-0.347
		c-0.283-0.2-0.483-0.423-0.604-0.578c-0.063-0.08-0.107-0.148-0.182-0.272L9.278,32.036z M10.884,14.923l0.008-0.013l0.323,0.158
		c0.002-0.005,0.244-0.447,0.77-0.818c0.397-0.284,1.045-0.343,1.212-0.343h11.765l2.607,4.518H9.278l1.917-3.322L10.884,14.923z"/>
	<path fill="#1D1D1B" d="M46.25,31.155l-0.083-0.24l0.026-0.045l-3.308-5.64l3.257-5.64h0.051l-0.026-0.046
		c0.058-0.11,0.088-0.233,0.088-0.358l-0.024-0.246l-2.654-4.6c-0.131-0.233-0.514-0.83-1.232-1.339
		c-0.771-0.537-1.7-0.613-2.095-0.621H28.049c-0.263,0-0.51,0.138-0.648,0.358h-0.052l0.026,0.046
		c-0.122,0.23-0.119,0.511,0.013,0.74l3.488,6.041c0.135,0.237,0.389,0.385,0.663,0.385h5.656l-1.901,3.293
		c-0.088,0.143-0.529,0.912-0.531,1.987c0.002,1.111,0.482,1.911,0.527,1.98l1.905,3.3h-5.656c-0.271,0-0.524,0.144-0.662,0.38
		l-3.488,6.045c-0.131,0.227-0.136,0.506-0.012,0.74l-0.027,0.046h0.053c0.139,0.222,0.385,0.358,0.647,0.358h6.979h5.251
		c0.364-0.007,1.292-0.08,2.072-0.624c0.749-0.531,1.133-1.163,1.227-1.334l2.565-4.444h0.051l-0.026-0.045
		c0.058-0.11,0.088-0.234,0.088-0.359L46.25,31.155z M41.464,36.211c-0.389,0.28-1.008,0.344-1.213,0.344H29.369l2.609-4.519h12.194
		l-1.918,3.322l-0.009,0.018C42.2,35.455,41.954,35.866,41.464,36.211z M44.172,18.424H38.54h-6.561l-2.609-4.517l10.899,0
		c0.152,0,0.8,0.059,1.2,0.347c0.283,0.198,0.483,0.423,0.603,0.576c0.063,0.08,0.109,0.15,0.182,0.274L44.172,18.424z
		 M38.957,30.511l-2.364-4.092c-0.003-0.006-0.305-0.515-0.305-1.188c0-0.367,0.088-0.679,0.164-0.882
		c0.037-0.104,0.077-0.186,0.105-0.242l1.958-3.394l5.657,9.797H38.957z"/>
</g>
</svg>
