<svg id="Layer_1" data-name="Layer 1" xmlns="http://www.w3.org/2000/svg" viewBox="0 0 50.46 50.46"><defs><style>.cls-1{fill:#65b4e1;}</style></defs><title>central nuclear</title><path class="cls-1" d="M22.8,29.81a.69.69,0,0,0,0-.08,2.91,2.91,0,0,1,1.43-2.49l.34-.2-2.68-4.64-.35.2a8.38,8.38,0,0,0-4.2,7.21v.4h5.47Z"/><path class="cls-1" d="M29.87,22.61l-.35-.2L26.86,27l.34.2a2.9,2.9,0,0,1,1.46,2.51.65.65,0,0,0,0,.08v.41h5.43v-.4A8.39,8.39,0,0,0,29.87,22.61Z"/><path class="cls-1" d="M27.13,32.31a2.84,2.84,0,0,1-2.86,0l-.35-.2-2.76,4.75.34.2a8.13,8.13,0,0,0,8.33,0l.35-.2-2.72-4.74Z"/><circle class="cls-1" cx="25.73" cy="29.75" r="1.31"/><path class="cls-1" d="M41.32,38.22c0-.08-2.84-8.21-5.25-16.89a25.6,25.6,0,0,1-1-9,10.38,10.38,0,0,1,.67-3,1.88,1.88,0,0,0-.07-1.86A1.92,1.92,0,0,0,34,6.54h0l-7.24,0h-.25l-.24,0H24.16l-.25,0h-.23l-7.24,0h0a1.92,1.92,0,0,0-1.65.91,1.88,1.88,0,0,0-.07,1.86,10.38,10.38,0,0,1,.67,3,24.74,24.74,0,0,1-1,9C12,30,9.17,38.14,9.14,38.22a1.92,1.92,0,0,0,.75,2.23c2.89,1.93,8.77,3.26,12.55,3.39,1.52.05,2.61.08,3.41.08s1.35,0,1.85-.06l.35,0c4.77-.26,9.91-1.66,12.51-3.39A1.92,1.92,0,0,0,41.32,38.22ZM28,41.92c-.67,0-1.09.08-2.09.08-.72,0-1.73,0-3.35-.08-3.87-.13-9.21-1.51-11.55-3.07,0,0,2.83-8.16,5.28-17s.19-13.38.19-13.38l7.25,0h.48v0H26.3v0h.48l7.25,0s-2.27,4.54.19,13.38,5.28,17,5.28,17C37.16,40.41,32.31,41.68,28,41.92Z"/></svg>