<svg id="Layer_1" data-name="Layer 1" xmlns="http://www.w3.org/2000/svg" viewBox="0 0 50.46 50.46"><defs><style>.cls-1{fill:#12b5e1;}</style></defs><title>centro atomico neg</title><path class="cls-1" d="M39.14,10h-.08V5.58h.08a.9.9,0,0,0,0-1.8H11.32a.9.9,0,1,0,0,1.8h.08V10h-.08a.9.9,0,0,0,0,1.8H15v34a.9.9,0,0,0,.9.9H34.56a.9.9,0,0,0,.9-.9v-34h3.68a.9.9,0,1,0,0-1.8ZM24.52,5.58h1.42V10H24.52ZM13.82,10H12.4V5.58h1.42Zm2.43,0H14.82V5.58h1.43Zm2.42,0H17.25V5.58h1.42Zm2.42,0H19.67V5.58h1.42Zm1-4.39h1.43V10H22.09ZM27.5,38.15a.54.54,0,0,1-.54.54H23.5a.54.54,0,0,1-.54-.54V34.5A.54.54,0,0,1,23.5,34H27a.54.54,0,0,1,.54.54ZM28.37,10H26.94V5.58h1.43Zm2.42,0H29.37V5.58h1.42Zm2.42,0H31.79V5.58h1.42Zm2.43,0H34.21V5.58h1.43Zm2.42,0H36.64V5.58h1.42Z"/></svg>