<?xml version="1.0" encoding="utf-8"?>
<!-- Generator: Adobe Illustrator 26.5.1, SVG Export Plug-In . SVG Version: 6.00 Build 0)  -->
<svg version="1.1" id="Layer_1" xmlns="http://www.w3.org/2000/svg" xmlns:xlink="http://www.w3.org/1999/xlink" x="0px" y="0px"
	 viewBox="0 0 50.5 50.5" style="enable-background:new 0 0 50.5 50.5;" xml:space="preserve">
<g>
	<path d="M47.822,38.619h-2.517c0.002-0.024,0.014-0.045,0.014-0.069v-2.056c1.354-0.526,2.332-2.34,2.332-4.579
		c0-2.662-1.376-4.747-3.132-4.747s-3.132,2.085-3.132,4.747c0,2.239,0.978,4.053,2.332,4.579v2.056
		c0,0.025,0.012,0.045,0.014,0.069h-3.94v-5.48c0-0.005-0.003-0.009-0.003-0.014c0-0.005,0.003-0.009,0.003-0.014v-4.28
		c0-0.441-0.358-0.8-0.8-0.8h-3.146v-2.536c0.208,0.05,0.415,0.129,0.646,0.218c0.447,0.173,0.984,0.38,1.653,0.38
		c0.155,0,0.317-0.011,0.486-0.036c0.393-0.058,0.683-0.395,0.683-0.791v-2.191c0-0.232-0.101-0.454-0.277-0.606
		c-0.177-0.152-0.412-0.221-0.64-0.186c-0.482,0.074-0.857-0.071-1.329-0.254c-0.344-0.133-0.752-0.275-1.223-0.339v-0.114
		c0-0.442-0.358-0.8-0.8-0.8s-0.8,0.358-0.8,0.8v0.9v2.192v3.362h-2.866c-0.441,0-0.8,0.358-0.8,0.8v4.28
		c0,0.005,0.003,0.009,0.003,0.014c0,0.005-0.003,0.009-0.003,0.014v5.48h-1.637v-7.797v-8.597c0-0.442-0.358-0.8-0.8-0.8h-6.217
		v-3.99c0-0.442-0.358-0.8-0.8-0.8h-2.992v-2.096c0.153-0.1,0.308-0.198,0.451-0.32c1.822-1.558,2.037-4.309,0.479-6.131
		c-0.287-0.335-0.792-0.376-1.128-0.088l-2.213,1.892l-0.034-0.034c-0.312-0.312-0.818-0.313-1.131,0
		c-0.294,0.294-0.301,0.754-0.043,1.068l-1.973,1.686c-0.161,0.138-0.261,0.334-0.277,0.545c-0.017,0.212,0.051,0.421,0.189,0.583
		c0.859,1.004,2.08,1.521,3.308,1.521c0.258,0,0.517-0.025,0.772-0.071v1.445h-2.408c-0.442,0-0.8,0.358-0.8,0.8v3.99H6.516
		c-0.442,0-0.8,0.358-0.8,0.8v8.597v7.797H2.677c-0.442,0-0.8,0.358-0.8,0.8s0.358,0.8,0.8,0.8h3.839h6.667h8.296h6.667h3.236h3.314
		h0.983h3.314h8.828c0.441,0,0.8-0.358,0.8-0.8S48.264,38.619,47.822,38.619z M44.52,28.768c0.724,0,1.532,1.346,1.532,3.147
		s-0.809,3.148-1.532,3.148s-1.532-1.347-1.532-3.148S43.796,28.768,44.52,28.768z M36.494,23.521
		c0.348,0.134,0.748,0.289,1.223,0.352v0.566c-0.208-0.05-0.415-0.13-0.646-0.219c-0.347-0.134-0.748-0.289-1.223-0.352v-0.567
		C36.056,23.352,36.264,23.432,36.494,23.521z M14.283,13.232l3.998-3.418c0.471,1.079,0.208,2.386-0.733,3.19
		C16.607,13.808,15.276,13.864,14.283,13.232z M32.182,29.63h6.013v2.681h-6.013V29.63z M14.929,18.235h5.4v3.19h-5.4V18.235z
		 M7.316,23.025h6.813h7h6.217v6.997H7.316V23.025z M13.982,38.619v-4.142h2.548v4.142H13.982z M18.13,38.619v-4.142h2.548v4.142
		H18.13z M22.278,38.619v-4.941c0-0.441-0.358-0.8-0.8-0.8h-8.296c-0.442,0-0.8,0.358-0.8,0.8v4.941H7.316v-6.997h20.03v6.997
		H22.278z M36.479,38.619v-2.887c0-0.441-0.358-0.8-0.8-0.8h-0.983c-0.441,0-0.8,0.358-0.8,0.8v2.887h-1.715v-4.681h6.013v4.681
		H36.479z"/>
	<path d="M10.65,25.369c-0.442,0-0.8,0.358-0.8,0.8v0.71c0,0.441,0.358,0.8,0.8,0.8s0.8-0.358,0.8-0.8v-0.71
		C11.45,25.727,11.092,25.369,10.65,25.369z"/>
	<path d="M15.104,25.369c-0.442,0-0.8,0.358-0.8,0.8v0.71c0,0.441,0.358,0.8,0.8,0.8s0.8-0.358,0.8-0.8v-0.71
		C15.903,25.727,15.545,25.369,15.104,25.369z"/>
	<path d="M19.558,25.369c-0.442,0-0.8,0.358-0.8,0.8v0.71c0,0.441,0.358,0.8,0.8,0.8s0.8-0.358,0.8-0.8v-0.71
		C20.357,25.727,20,25.369,19.558,25.369z"/>
	<path d="M24.011,25.369c-0.442,0-0.8,0.358-0.8,0.8v0.71c0,0.441,0.358,0.8,0.8,0.8s0.8-0.358,0.8-0.8v-0.71
		C24.811,25.727,24.453,25.369,24.011,25.369z"/>
</g>
</svg>
