<svg id="Layer_1" data-name="Layer 1" xmlns="http://www.w3.org/2000/svg" viewBox="0 0 50.46 50.46"><defs><style>.cls-1{fill:#12b5e1;}</style></defs><title>centro atomico lineal</title><path class="cls-1" d="M34.56,12.36a.9.9,0,0,0-.9.9V44.88H16.8V13.26a.9.9,0,0,0-1.8,0V45.78a.9.9,0,0,0,.9.9H34.56a.9.9,0,0,0,.9-.9V13.26A.9.9,0,0,0,34.56,12.36Z"/><rect class="cls-1" x="22.96" y="33.96" width="4.55" height="4.73" rx="0.54" ry="0.54"/><path class="cls-1" d="M39.14,10h-.08V5.58h.08a.9.9,0,0,0,0-1.8H11.32a.9.9,0,1,0,0,1.8h.08V10h-.08a.9.9,0,0,0,0,1.8H39.14a.9.9,0,1,0,0-1.8ZM13.82,10H12.4V5.58h1.42Zm2.43,0H14.82V5.58h1.43Zm2.42,0H17.25V5.58h1.42Zm2.42,0H19.67V5.58h1.42Zm2.43,0H22.09V5.58h1.43Zm2.42,0H24.52V5.58h1.42Zm2.43,0H26.94V5.58h1.43Zm2.42,0H29.37V5.58h1.42Zm2.42,0H31.79V5.58h1.42Zm2.43,0H34.21V5.58h1.43Zm2.42,0H36.64V5.58h1.42Z"/></svg>