<?xml version="1.0" encoding="utf-8"?>
<!-- Generator: Adobe Illustrator 22.0.0, SVG Export Plug-In . SVG Version: 6.00 Build 0)  -->
<svg version="1.1" id="Capa_1" xmlns="http://www.w3.org/2000/svg" xmlns:xlink="http://www.w3.org/1999/xlink" x="0px" y="0px"
	 viewBox="0 0 50.5 50.5" style="enable-background:new 0 0 50.5 50.5;" xml:space="preserve">
<g>
	<path d="M19.015,29.4c-0.311,0.023-0.599,0.035-0.863,0.035c-1.225,0-2.132-0.292-2.721-0.877
		c-0.589-0.584-0.884-1.517-0.884-2.797c0-0.905,0.139-1.634,0.417-2.189c0.278-0.554,0.693-0.957,1.246-1.207
		c0.552-0.251,1.255-0.376,2.108-0.376c0.733,0,1.452,0.09,2.157,0.271v-1.545c-0.738-0.186-1.505-0.278-2.303-0.278
		c-1.805,0-3.184,0.438-4.137,1.315c-0.953,0.877-1.43,2.206-1.43,3.987c0.005,1.786,0.477,3.105,1.416,3.956
		c0.939,0.851,2.36,1.277,4.262,1.277c0.779,0,1.603-0.072,2.47-0.216v-4.899h-1.74V29.4z"/>
	<polygon points="28.722,22.121 32.034,22.121 32.034,30.868 33.892,30.868 33.892,22.121 37.205,22.121 37.205,20.569 
		28.722,20.569 	"/>
	<polygon points="26.825,23.293 25.35,23.293 25.35,25.568 23.185,25.568 23.185,26.974 25.35,26.974 25.35,29.25 26.825,29.25 
		26.825,26.974 28.996,26.974 28.996,25.568 26.825,25.568 	"/>
	<path d="M45.194,31.652c-0.752,0.415-1.025,1.361-0.61,2.112c0.159,0.288,0.396,0.504,0.669,0.639
		c-1.874,4.495-5.229,8.261-9.506,10.622c-5.062,2.794-10.91,3.449-16.464,1.846C13.728,45.267,9.13,41.596,6.336,36.533
		C3.542,31.471,2.887,25.624,4.491,20.07C6.095,14.515,9.766,9.917,14.828,7.123c0.445-0.246,0.901-0.45,1.355-0.661
		c0.792,0.941,2.162,1.225,3.28,0.608c0.827-0.456,1.303-1.292,1.348-2.17c9.07-1.912,18.721,2.187,23.428,10.715l0.553-0.305
		C39.961,6.559,30.071,2.334,20.76,4.261c-0.051-0.26-0.13-0.518-0.265-0.763c-0.702-1.272-2.301-1.733-3.573-1.031
		c-1.229,0.678-1.691,2.193-1.087,3.441c-0.441,0.207-0.879,0.424-1.312,0.662c-5.21,2.875-8.988,7.607-10.638,13.324
		c-1.651,5.717-0.976,11.734,1.899,16.944s7.607,8.988,13.324,10.638c2.049,0.592,4.136,0.885,6.212,0.885
		c3.715,0,7.39-0.939,10.733-2.783c4.429-2.445,7.9-6.352,9.821-11.017c0.278,0.013,0.562-0.043,0.823-0.187
		c0.752-0.415,1.025-1.361,0.61-2.112C46.891,31.51,45.945,31.237,45.194,31.652z"/>
	<path d="M12.913,13.945c-3.292,3.292-5.105,7.669-5.105,12.325c0,4.655,1.813,9.032,5.105,12.324
		c3.292,3.292,7.669,5.105,12.324,5.105s9.032-1.813,12.324-5.105c6.795-6.795,6.795-17.853,0-24.648
		C30.766,7.149,19.709,7.149,12.913,13.945z M37.227,38.258c-3.202,3.203-7.46,4.966-11.989,4.966
		c-4.529,0-8.787-1.764-11.989-4.966c-3.203-3.202-4.966-7.46-4.966-11.989c0-4.529,1.764-8.787,4.966-11.99
		c3.306-3.306,7.647-4.958,11.989-4.958c4.341,0,8.684,1.653,11.989,4.958C43.838,20.891,43.838,31.648,37.227,38.258z"/>
</g>
</svg>
