<svg id="Layer_1" data-name="Layer 1" xmlns="http://www.w3.org/2000/svg" viewBox="0 0 50.46 50.46"><defs><style>.cls-1{fill:#12b5e1;}</style></defs><title>cerdo</title><circle class="cls-1" cx="36.62" cy="22.86" r="1.03"/><circle class="cls-1" cx="14.21" cy="23.16" r="1.03"/><path class="cls-1" d="M23.89,24.37c-.51-.19-1.26.57-1.47,1.12A1,1,0,0,0,23,26.83a1,1,0,0,0,1.29-.65C24.48,25.63,24.4,24.56,23.89,24.37Z"/><path class="cls-1" d="M26.75,24.34c.51-.21,1.29.53,1.5,1.07a1,1,0,1,1-1.83.74C26.2,25.61,26.25,24.54,26.75,24.34Z"/><path class="cls-1" d="M25.38,20.22c-4.24.05-8.51,4.2-8.46,8.21s3.95,7.38,8.67,7.32,8.52-3.45,8.46-7.55S29.62,20.16,25.38,20.22ZM25.57,34c-3.78,0-6.88-2.47-6.92-5.62s3.62-6.43,6.76-6.47,6.88,3.13,6.92,6.28S29.34,34,25.57,34Z"/><path class="cls-1" d="M48.82,10l-.64-.6A10.41,10.41,0,0,0,38.9,6.83a9.85,9.85,0,0,0-6.74,5,18.35,18.35,0,0,0-6.91-1.22A18.63,18.63,0,0,0,18.33,12a9.88,9.88,0,0,0-6.87-4.81A10.45,10.45,0,0,0,2.25,10l-.63.62a1,1,0,0,0-.27.78.9.9,0,0,0,.42.7,7.32,7.32,0,0,1,3.06,5.55A9,9,0,0,0,8,24.49a16.13,16.13,0,0,0-.26,3C7.89,36.63,15.93,44,25.7,43.86S43.31,36.16,43.19,27a15.57,15.57,0,0,0-.35-3,9.08,9.08,0,0,0,3-6.88,7.4,7.4,0,0,1,2.91-5.62A1,1,0,0,0,48.82,10ZM6.75,17.61a9,9,0,0,0-3-6.37,8.52,8.52,0,0,1,7.38-2.17,8,8,0,0,1,5.5,3.77,17.46,17.46,0,0,0-3.15,2.21A4.53,4.53,0,0,0,13.29,14a3.5,3.5,0,0,0-1.92-2.24,3,3,0,0,0-2.46,0,2.22,2.22,0,0,0-1.2,1.4,2.06,2.06,0,0,0,1.42,2.55.72.72,0,1,0,.39-1.38.63.63,0,0,1-.43-.78.83.83,0,0,1,.44-.5,1.58,1.58,0,0,1,1.29.05,2.07,2.07,0,0,1,1.1,1.32A3.58,3.58,0,0,1,11.57,17a16.35,16.35,0,0,0-3,5.45A7.6,7.6,0,0,1,6.75,17.61ZM25.67,41.94c-8.71.12-15.88-6.39-16-14.51s6.89-14.82,15.6-14.94,15.88,6.4,16,14.52S34.38,41.83,25.67,41.94ZM43.88,17.12a7.59,7.59,0,0,1-1.62,4.78A16.33,16.33,0,0,0,39,16.41,3.4,3.4,0,0,1,38.63,14a2.09,2.09,0,0,1,1.06-1.36A1.57,1.57,0,0,1,41,12.59a.82.82,0,0,1,.46.49.62.62,0,0,1-.41.79.72.72,0,1,0,.43,1.37,2.07,2.07,0,0,0,1.35-2.59,2.24,2.24,0,0,0-1.24-1.37,3,3,0,0,0-2.45.08,3.48,3.48,0,0,0-1.87,2.29,3.91,3.91,0,0,0-.13,1,18.21,18.21,0,0,0-3.2-2.1A8,8,0,0,1,39.3,8.7a8.48,8.48,0,0,1,7.42,2A9,9,0,0,0,43.88,17.12Z"/></svg>