<svg id="Layer_1" data-name="Layer 1" xmlns="http://www.w3.org/2000/svg" viewBox="0 0 50.46 50.46"><defs><style>.cls-1{fill:#12b5e1;}</style></defs><title>chat crecer</title><path class="cls-1" d="M25.23,1.74A22.63,22.63,0,0,0,9.29,40.44a5.36,5.36,0,0,0,.48.55v5.08a2.65,2.65,0,0,0,2.65,2.65,2.68,2.68,0,0,0,1.41-.4l4-2.51a24.16,24.16,0,0,0,3.3.84l.2,0a22.2,22.2,0,0,0,3.88.34,22.64,22.64,0,1,0,0-45.27Zm0,43.47a21.23,21.23,0,0,1-3.77-.34h0a22.09,22.09,0,0,1-3.82-1.06l-4.76,3a.94.94,0,0,1-.46.13.85.85,0,0,1-.85-.85V40.19a6.64,6.64,0,0,1-.89-.91,20.83,20.83,0,1,1,14.55,5.93Z"/><path class="cls-1" d="M31.87,24.59h0a.88.88,0,0,1,.05-.15h0a4,4,0,0,0,.26-1.36c0-2.26-1.16-3.58-3.27-3.58a3.41,3.41,0,0,0-3.23,2.87.84.84,0,0,0,0,.1.41.41,0,0,1,0-.1,3.42,3.42,0,0,0-3.23-2.87c-2.11,0-3.27,1.32-3.27,3.58a4.36,4.36,0,0,0,.31,1.49h0s.24.55.32.72h0c1.55,2.9,5.48,5.53,5.87,5.79h.05c.39-.26,4.32-2.89,5.87-5.79h0v0Z"/><path class="cls-1" d="M35.23,32.27a2.57,2.57,0,0,0-1.69.64,11.54,11.54,0,0,1-8,3.08c-6.15,0-10.6-5.1-10.6-11.38v-.09c0-6.29,4.5-11.33,10.6-11.33a11.64,11.64,0,0,1,7.66,2.89,2.81,2.81,0,0,0,1.7.55,2.73,2.73,0,0,0,2.79-2.75,2.81,2.81,0,0,0-1.1-2.25A16.79,16.79,0,0,0,25.55,8,16.24,16.24,0,0,0,9,24.61v.09A16.14,16.14,0,0,0,25.33,41.21,16.41,16.41,0,0,0,37,36.9a2.71,2.71,0,0,0,.91-2A2.68,2.68,0,0,0,35.23,32.27Z"/></svg>