<?xml version="1.0" encoding="utf-8"?>
<!-- Generator: Adobe Illustrator 22.1.0, SVG Export Plug-In . SVG Version: 6.00 Build 0)  -->
<svg version="1.1" id="Layer_1" xmlns="http://www.w3.org/2000/svg" xmlns:xlink="http://www.w3.org/1999/xlink" x="0px" y="0px"
	 viewBox="0 0 50.5 50.5" style="enable-background:new 0 0 50.5 50.5;" xml:space="preserve">
<style type="text/css">
	.st0{fill:#12B5E1;}
</style>
<title>chat crecer</title>
<path class="st0" d="M25.9,4.1c-0.3,0-0.5,0-0.9,0c-11.2,0-20.3,9.2-20.3,20.4c0,5.4,2.2,10.6,6,14.5c0.1,0.2,0.3,0.3,0.4,0.4l0,6.4
	c0,1.1,1.2,1.8,2.2,1.2l5-3.2c1,0.4,3.1,0.7,3.1,0.7c1.2,0.2,2.3,0.3,3.5,0.3c11.2,0.3,20.5-8.7,20.8-19.9S37.1,4.4,25.9,4.1z
	 M35.6,35.7c-2.9,2.6-6.6,4-10.5,3.9c-0.2,0-0.4,0-0.5,0c-7.9-0.2-14.3-6.8-14.1-14.8v-0.1c0-0.2,0-0.4,0-0.6
	c0.2-8,6.8-14.5,14.8-14.3c3.6-0.1,7.1,1,9.9,3.2c0.6,0.4,1,1.3,1,2v0.1c0,1.3-1.2,2.4-2.5,2.4c-0.5,0-1.1-0.2-1.5-0.4
	c-1.9-1.7-4.3-2.6-6.9-2.6c-5.5,0-9.5,4.5-9.5,10.2v0.1c0,5.7,4,10.2,9.5,10.2c2.7,0,5.2-1,7.2-2.8c0.4-0.4,1-0.5,1.5-0.5
	c1.3,0,2.4,1.1,2.4,2.3C36.4,34.6,36.2,35.3,35.6,35.7z M31.3,23.3c0,0.9-0.5,2.1-0.5,2.1c-1.3,2.6-4.9,4.9-5.3,5.2
	c-0.4-0.3-3.9-2.6-5.3-5.2c-0.1-0.2-0.3-0.6-0.3-0.6c-0.2-0.4-0.3-0.9-0.3-1.3c0-2.1,1.1-3.2,3-3.2c1.4,0.1,2.7,1.2,2.9,2.6
	c0.3-1.4,1.4-2.5,2.9-2.6C30.2,20.1,31.3,21.3,31.3,23.3z"/>
</svg>
