<svg id="Layer_1" data-name="Layer 1" xmlns="http://www.w3.org/2000/svg" viewBox="0 0 50.46 50.46"><defs><style>.cls-1{fill:#12b5e1;}</style></defs><title>chat</title><path class="cls-1" d="M42.42,7.33H8a2,2,0,0,0-2,2V33.81a2,2,0,0,0,2,2H21.5v3.38a2.42,2.42,0,0,1-2.41,2.42h-.45a.76.76,0,0,0,0,1.52H31.82a.76.76,0,0,0,0-1.52h-.45A2.42,2.42,0,0,1,29,39.19V35.81H42.42a2,2,0,0,0,2-2V9.32A2,2,0,0,0,42.42,7.33ZM22.2,41.61A3.94,3.94,0,0,0,23,39.19V35.81h4.4v3.38a3.94,3.94,0,0,0,.83,2.42Zm20.69-7.8a.47.47,0,0,1-.47.47H8a.47.47,0,0,1-.47-.47v-3H42.89Zm0-4.55H7.57V9.32A.47.47,0,0,1,8,8.85H42.42a.47.47,0,0,1,.47.47Z"/><path class="cls-1" d="M39.35,19.45H34.42A1.59,1.59,0,0,0,32.84,21V26a1.58,1.58,0,0,0,1.58,1.58h4.93A1.58,1.58,0,0,0,40.93,26V21A1.59,1.59,0,0,0,39.35,19.45Zm-2.46.94a1.44,1.44,0,1,1-1.44,1.44A1.43,1.43,0,0,1,36.89,20.39Zm2.4,5.37a.18.18,0,0,1-.06.09,4,4,0,0,1-1.55.66h0a3.8,3.8,0,0,1-3.15-.66.15.15,0,0,1-.06-.09A2.86,2.86,0,0,1,36,23.46a.24.24,0,0,1,.2,0,1.32,1.32,0,0,0,.74.24,1.53,1.53,0,0,0,.75-.24.17.17,0,0,1,.18,0h0A2.86,2.86,0,0,1,39.12,25h0A1.51,1.51,0,0,1,39.29,25.76Z"/><path class="cls-1" d="M30.73,19.45H13.07a1.88,1.88,0,0,0-1.88,1.88v4.34a1.88,1.88,0,0,0,1.88,1.88h14a1,1,0,0,0,.6-.14,1.88,1.88,0,0,0,1.18-1.74V22L31,20A.32.32,0,0,0,30.73,19.45Zm-4.35,5.31a.47.47,0,0,1-.47.47H20.36a.47.47,0,0,1-.47-.47v-.22a.47.47,0,0,1,.47-.47h5.55a.47.47,0,0,1,.47.47Zm0-2.3a.47.47,0,0,1-.47.47H15.23a.47.47,0,0,1-.47-.47v-.22a.47.47,0,0,1,.47-.47H25.91a.47.47,0,0,1,.47.47Z"/><path class="cls-1" d="M39.05,10.26H9.47a.32.32,0,0,0-.27.47L11,12.82v3.65a1.89,1.89,0,0,0,1.18,1.75,1,1,0,0,0,.6.13H39.05a1.88,1.88,0,0,0,1.88-1.88V12.14A1.88,1.88,0,0,0,39.05,10.26Zm-10.5,5.3a.47.47,0,0,1-.47.47H14.43a.47.47,0,0,1-.47-.47v-.21a.47.47,0,0,1,.47-.47H28.08a.47.47,0,0,1,.47.47ZM38,13.26a.47.47,0,0,1-.47.47H14.43a.47.47,0,0,1-.47-.47v-.21a.48.48,0,0,1,.47-.48H37.5a.48.48,0,0,1,.47.48Z"/></svg>