<svg id="Layer_1" data-name="Layer 1" xmlns="http://www.w3.org/2000/svg" viewBox="0 0 50.46 50.46"><defs><style>.cls-1{fill:#65b4e1;}</style></defs><title>chequeado</title><path class="cls-1" d="M17.23,41.45H30.81A9.44,9.44,0,0,0,40.24,32V19.16l-2,2.24V32a7.43,7.43,0,0,1-7.42,7.42H17.23A7.43,7.43,0,0,1,9.81,32V18.44A7.43,7.43,0,0,1,17.23,11H30.81a7.37,7.37,0,0,1,3.92,1.13l1.55-1.38A9.37,9.37,0,0,0,30.81,9H17.23A9.44,9.44,0,0,0,7.8,18.44V32A9.44,9.44,0,0,0,17.23,41.45Z"/><polygon class="cls-1" points="23.98 24.15 16.99 17.1 13.09 20.55 24.15 34.31 24.15 34.31 24.15 34.31 38.23 18.63 40.06 16.6 43.92 12.3 40.77 9.26 37.68 12 36.18 13.33 23.98 24.15"/></svg>