<?xml version="1.0" encoding="utf-8"?>
<!-- Generator: Adobe Illustrator 24.0.1, SVG Export Plug-In . SVG Version: 6.00 Build 0)  -->
<svg version="1.1" id="Layer_1" xmlns="http://www.w3.org/2000/svg" xmlns:xlink="http://www.w3.org/1999/xlink" x="0px" y="0px"
	 viewBox="0 0 50.5 50.5" style="enable-background:new 0 0 50.5 50.5;" xml:space="preserve">
<style type="text/css">
	.st0{fill:#1D1D1B;}
</style>
<g>
	<path d="M43.597,27.789c-0.976,0-1.791,0.683-2.005,1.595h-7.241v-3.683h2.516c0.213,0.912,1.029,1.595,2.004,1.595
		c1.138,0,2.063-0.926,2.063-2.063s-0.926-2.063-2.063-2.063c-0.975,0-1.791,0.683-2.004,1.595h-2.516v-3.71h7.241
		c0.213,0.912,1.029,1.595,2.005,1.595c1.138,0,2.063-0.925,2.063-2.063c0-1.137-0.926-2.062-2.063-2.062
		c-0.976,0-1.792,0.683-2.005,1.594h-7.241v-0.371c0-1.971-1.579-3.572-3.537-3.625v-4.1c0-0.628,0.511-1.139,1.139-1.139h4.932
		c0.213,0.912,1.029,1.595,2.005,1.595c1.138,0,2.063-0.925,2.063-2.063s-0.926-2.063-2.063-2.063c-0.976,0-1.792,0.683-2.005,1.595
		h-4.932c-1.145,0-2.076,0.931-2.076,2.075v4.09h-2.344v-3.06c0.912-0.213,1.595-1.029,1.595-2.004c0-1.138-0.926-2.063-2.063-2.063
		S25,9.91,25,11.048c0,0.976,0.683,1.791,1.594,2.004v3.06h-2.529V8.547c0.911-0.213,1.594-1.029,1.594-2.004
		c0-1.138-0.925-2.063-2.062-2.063c-1.138,0-2.063,0.925-2.063,2.063c0,0.976,0.683,1.791,1.595,2.005v7.564h-2.272v-4.09
		c0-1.144-0.931-2.075-2.075-2.075h-4.932c-0.213-0.912-1.029-1.595-2.005-1.595c-1.137,0-2.062,0.925-2.062,2.063
		s0.925,2.063,2.062,2.063c0.976,0,1.791-0.683,2.005-1.595h4.932c0.628,0,1.139,0.511,1.139,1.139v4.09h-0.176
		c-2.004,0-3.635,1.63-3.635,3.635v0.371H8.868c-0.213-0.911-1.029-1.594-2.004-1.594c-1.138,0-2.063,0.925-2.063,2.062
		c0,1.138,0.925,2.063,2.063,2.063c0.976,0,1.791-0.683,2.005-1.595h7.242v3.71h-2.516c-0.213-0.912-1.029-1.595-2.005-1.595
		c-1.137,0-2.062,0.925-2.062,2.063s0.925,2.063,2.062,2.063c0.976,0,1.791-0.683,2.005-1.595h2.516v3.683H8.868
		c-0.213-0.912-1.029-1.595-2.004-1.595c-1.138,0-2.063,0.926-2.063,2.063s0.925,2.063,2.063,2.063c0.976,0,1.791-0.683,2.004-1.595
		h7.242v0.396c0,2.004,1.63,3.635,3.635,3.635h0.176v4.202c0,0.628-0.511,1.139-1.139,1.139h-4.933
		c-0.213-0.912-1.029-1.595-2.004-1.595c-1.137,0-2.062,0.926-2.062,2.063c0,1.137,0.925,2.062,2.062,2.062
		c0.976,0,1.791-0.683,2.004-1.594h4.933c1.144,0,2.075-0.932,2.075-2.076v-4.202h2.272v7.676c-0.912,0.213-1.595,1.029-1.595,2.005
		c0,1.138,0.925,2.063,2.063,2.063c1.137,0,2.062-0.926,2.062-2.063c0-0.976-0.683-1.792-1.594-2.005v-7.676h2.529v3.171
		C25.683,37.737,25,38.552,25,39.528c0,1.138,0.925,2.063,2.063,2.063s2.063-0.926,2.063-2.063c0-0.976-0.683-1.791-1.595-2.005
		v-3.171h2.344v4.202c0,1.145,0.932,2.076,2.076,2.076h4.932c0.214,0.911,1.029,1.594,2.005,1.594c1.138,0,2.063-0.926,2.063-2.062
		c0-1.138-0.926-2.063-2.063-2.063c-0.976,0-1.791,0.683-2.005,1.595h-4.932c-0.628,0-1.139-0.511-1.139-1.139v-4.212
		c1.958-0.053,3.537-1.654,3.537-3.625v-0.396h7.241c0.214,0.912,1.029,1.595,2.005,1.595c1.138,0,2.063-0.926,2.063-2.063
		S44.734,27.789,43.597,27.789z M38.871,24.106c0.621,0,1.126,0.505,1.126,1.126s-0.505,1.126-1.126,1.126
		c-0.62,0-1.125-0.505-1.125-1.126S38.251,24.106,38.871,24.106z M43.597,19.46c0.621,0,1.126,0.505,1.126,1.126
		s-0.505,1.126-1.126,1.126s-1.126-0.505-1.126-1.126S42.976,19.46,43.597,19.46z M38.889,9.288c0.621,0,1.126,0.505,1.126,1.126
		s-0.505,1.126-1.126,1.126s-1.126-0.505-1.126-1.126S38.268,9.288,38.889,9.288z M25.937,11.048c0-0.621,0.505-1.126,1.126-1.126
		s1.126,0.505,1.126,1.126s-0.505,1.126-1.126,1.126S25.937,11.669,25.937,11.048z M22.471,6.543c0-0.621,0.505-1.126,1.126-1.126
		s1.126,0.505,1.126,1.126s-0.505,1.126-1.126,1.126S22.471,7.164,22.471,6.543z M11.845,11.541c-0.621,0-1.126-0.505-1.126-1.126
		s0.505-1.126,1.126-1.126s1.126,0.505,1.126,1.126S12.466,11.541,11.845,11.541z M6.863,21.712c-0.621,0-1.126-0.505-1.126-1.126
		s0.505-1.126,1.126-1.126s1.126,0.505,1.126,1.126S7.484,21.712,6.863,21.712z M11.588,26.358c-0.621,0-1.126-0.505-1.126-1.126
		s0.505-1.126,1.126-1.126s1.126,0.505,1.126,1.126S12.209,26.358,11.588,26.358z M6.863,30.979c-0.621,0-1.126-0.505-1.126-1.126
		s0.505-1.126,1.126-1.126s1.126,0.505,1.126,1.126S7.484,30.979,6.863,30.979z M11.845,41.287c-0.621,0-1.126-0.505-1.126-1.125
		c0-0.621,0.505-1.126,1.126-1.126s1.126,0.505,1.126,1.126C12.971,40.782,12.466,41.287,11.845,41.287z M24.723,44.033
		c0,0.621-0.505,1.126-1.126,1.126s-1.126-0.505-1.126-1.126s0.505-1.126,1.126-1.126S24.723,43.412,24.723,44.033z M28.189,39.528
		c0,0.621-0.505,1.126-1.126,1.126s-1.126-0.505-1.126-1.126s0.505-1.126,1.126-1.126S28.189,38.907,28.189,39.528z M38.889,39.036
		c0.621,0,1.126,0.505,1.126,1.126c0,0.62-0.505,1.125-1.126,1.125s-1.126-0.505-1.126-1.125
		C37.763,39.541,38.268,39.036,38.889,39.036z M32.751,30.718c0,1.122-0.913,2.035-2.035,2.035H19.744
		c-1.122,0-2.035-0.913-2.035-2.035V19.747c0-1.122,0.913-2.035,2.035-2.035h10.972c1.122,0,2.035,0.913,2.035,2.035V30.718z
		 M43.597,30.979c-0.621,0-1.126-0.505-1.126-1.126s0.505-1.126,1.126-1.126s1.126,0.505,1.126,1.126S44.218,30.979,43.597,30.979z"
		/>
	<path class="st0" d="M23.104,22.921c0.264,0,0.479-0.205,0.479-0.458c0-0.269-0.21-0.479-0.479-0.479h-2.46
		c-0.261,0-0.457,0.206-0.457,0.479c0,0.257,0.201,0.458,0.457,0.458h0.777v4.622h-0.777c-0.261,0-0.457,0.206-0.457,0.479
		c0,0.257,0.201,0.458,0.457,0.458h2.46c0.264,0,0.479-0.206,0.479-0.458c0-0.269-0.21-0.479-0.479-0.479h-0.748v-4.622H23.104z"/>
	<path class="st0" d="M28.74,22.333l-0.009-0.045l-0.016-0.026c-0.021-0.037-0.05-0.084-0.097-0.116
		c-0.034-0.049-0.08-0.075-0.128-0.103l-0.051-0.015h-0.004c-0.058-0.024-0.115-0.024-0.156-0.024c-0.04,0-0.082,0-0.135,0.025
		l-0.058,0.017c-0.042,0.021-0.093,0.046-0.131,0.1c-0.062,0.043-0.092,0.115-0.104,0.145l-2.195,5.513
		c-0.054,0.128-0.053,0.271,0.002,0.393c0.051,0.111,0.143,0.195,0.247,0.229c0.072,0.034,0.131,0.034,0.178,0.034
		c0.189,0,0.361-0.107,0.452-0.288l0.663-1.671h2.177l0.663,1.669c0.085,0.227,0.359,0.347,0.621,0.259
		c0.225-0.086,0.344-0.369,0.261-0.618L28.74,22.333z M29.004,25.549h-1.432l0.709-1.79L29.004,25.549z"/>
</g>
</svg>
