<svg id="Layer_1" data-name="Layer 1" xmlns="http://www.w3.org/2000/svg" viewBox="0 0 50.46 50.46"><defs><style>.cls-1{fill:#65b4e1;}</style></defs><title>chupete</title><path class="cls-1" d="M27.15,35.93a6.83,6.83,0,0,1-4.37,3,7.42,7.42,0,0,1-7.85-11.07,6.78,6.78,0,0,1,2.78-2.44c-.66-.52-1.28-1-1.86-1.57A9,9,0,0,0,13,26.61a9.7,9.7,0,0,0,9.43,14.66c.26,0,.53-.08.79-.13a9.11,9.11,0,0,0,7.23-8.09q-1.09-.45-2.23-1A6.9,6.9,0,0,1,27.15,35.93Z"/><path class="cls-1" d="M25.79,18.66a7.39,7.39,0,0,1-.37,1.92,6,6,0,0,1-.51,1.12c-.19.32-.68.71-.79,1C23.76,23.84,26,25,26.89,25c.33,0,.3,0,.49-.22s.39-.76.61-1.07a6.72,6.72,0,0,1,2.17-1.86,19.57,19.57,0,0,1,3.13-1.09A6,6,0,0,0,36.56,12a6.08,6.08,0,0,0-8.62-1.8,5.92,5.92,0,0,0-2.43,5.26A29.58,29.58,0,0,1,25.79,18.66Z"/><path class="cls-1" d="M30.4,23a5.12,5.12,0,0,0-1.73,1.73l-.16.3,0,0c0,.1-.08.18-.11.25a1.2,1.2,0,0,1-.84.72l-.21,0h-.11a3.87,3.87,0,0,1-2.39-.57l-.17-.12-.07,0a3.86,3.86,0,0,1-1.59-2,2.63,2.63,0,0,1-.09-.31A1.16,1.16,0,0,1,23.24,22l.18-.2,0,0,.22-.27a5,5,0,0,0,.87-2.11c-6-3.23-11-4.57-12.05-3-1.18,1.88,3.74,7.09,11,11.65s14.08,6.73,15.26,4.85C39.75,31.26,36.14,27.08,30.4,23Z"/></svg>