<?xml version="1.0" encoding="utf-8"?>
<!-- Generator: Adobe Illustrator 22.1.0, SVG Export Plug-In . SVG Version: 6.00 Build 0)  -->
<svg version="1.1" id="Layer_1" xmlns="http://www.w3.org/2000/svg" xmlns:xlink="http://www.w3.org/1999/xlink" x="0px" y="0px"
	 viewBox="0 0 50.5 50.5" style="enable-background:new 0 0 50.5 50.5;" xml:space="preserve">
<style type="text/css">
	.st0{fill:#12B5E1;}
</style>
<title>educacion</title>
<g>
	<path class="st0" d="M21.8,23.6H26c0.3,0,0.5-0.2,0.5-0.5c0-0.3-0.2-0.5-0.5-0.5h-4.1c-0.3,0-0.5,0.2-0.5,0.5
		C21.3,23.4,21.6,23.6,21.8,23.6z"/>
	<path class="st0" d="M26,26.5h-4.1c-0.3,0-0.5,0.2-0.5,0.5c0,0.3,0.2,0.5,0.5,0.5H26c0.3,0,0.5-0.2,0.5-0.5
		C26.5,26.8,26.2,26.5,26,26.5z"/>
	<path class="st0" d="M37.7,27.4c1.3,0,2.4-1.1,2.4-2.4c0-1.3-1.1-2.4-2.4-2.4c-0.7,0-1.3,0.3-1.7,0.8l-4.6-8c0,0,0,0,0.1,0
		c0.6-0.2,1.1-0.5,1.4-1.1c0.7-1.1,0.3-2.6-0.9-3.2c-1.1-0.7-2.6-0.3-3.2,0.9c-0.3,0.5-0.4,1.2-0.2,1.8c0,0,0,0,0,0.1h-9.3
		c0.2-0.6,0.1-1.3-0.2-1.9c-0.3-0.5-0.8-0.9-1.4-1.1c-0.6-0.2-1.2-0.1-1.8,0.2c-1.1,0.7-1.5,2.1-0.9,3.2c0.3,0.5,0.8,0.9,1.4,1.1
		c0,0,0.1,0,0.1,0l-4.6,8c-0.4-0.5-1-0.8-1.7-0.8c-1.3,0-2.4,1.1-2.4,2.4c0,1.3,1.1,2.4,2.4,2.4c0.7,0,1.3-0.3,1.7-0.8l4.6,8
		c0,0,0,0,0,0c-0.6,0.2-1.1,0.5-1.4,1.1c-0.3,0.5-0.4,1.2-0.2,1.8c0.2,0.6,0.5,1.1,1.1,1.4c0.4,0.2,0.8,0.3,1.2,0.3
		c0.2,0,0.4,0,0.6-0.1c0.6-0.2,1.1-0.5,1.4-1.1c0.3-0.5,0.4-1.2,0.2-1.8c0,0,0,0,0-0.1h9.3c-0.2,0.6-0.1,1.3,0.2,1.8
		c0.3,0.5,0.8,0.9,1.4,1.1c0.2,0.1,0.4,0.1,0.6,0.1c0.4,0,0.8-0.1,1.2-0.3c0.5-0.3,0.9-0.8,1.1-1.4c0.2-0.6,0.1-1.2-0.2-1.8
		c-0.3-0.6-0.9-1-1.5-1.1l4.6-8C36.4,27.1,37,27.4,37.7,27.4z M30.2,15.4l5.2,9.1c0,0,0,0,0,0.1h-2l-4.3-7.4L30.2,15.4
		C30.1,15.4,30.1,15.4,30.2,15.4z M27.9,29.3c0-0.1-0.1-0.1-0.2-0.2l1.5-2.7c0.1,0,0.2,0.1,0.3,0.1c0.6,0,1.1-0.4,1.3-0.9h1.4
		L28.5,32l-0.7-1.2c0.1-0.1,0.2-0.3,0.3-0.5C28.2,29.9,28.1,29.6,27.9,29.3z M26.8,28.6c-0.3,0-0.5,0-0.8,0.2
		c-0.2,0.1-0.4,0.4-0.5,0.6h-3.2c-0.1-0.2-0.3-0.5-0.5-0.6c-0.2-0.1-0.5-0.2-0.8-0.2l-1.6-2.8c0.1-0.1,0.1-0.2,0.2-0.3h8.8
		c0,0.1,0.1,0.2,0.2,0.3L26.8,28.6z M27.6,32.5h-7.5l0.7-1.2c0.1,0,0.1,0,0.2,0c0.1,0,0.2,0,0.4,0c0.4-0.1,0.6-0.3,0.8-0.6
		c0-0.1,0.1-0.2,0.1-0.3h3.1c0,0.1,0,0.2,0.1,0.3c0.2,0.3,0.5,0.5,0.8,0.6c0.1,0,0.2,0,0.4,0c0.1,0,0.1,0,0.2,0L27.6,32.5z
		 M19.8,30.3c0,0.2,0.1,0.3,0.2,0.5L19.3,32l-3.7-6.4H17c0.2,0.5,0.7,0.9,1.3,0.9c0.1,0,0.2,0,0.3-0.1l1.5,2.7
		c-0.1,0.1-0.1,0.1-0.2,0.2C19.7,29.6,19.7,29.9,19.8,30.3z M19.9,20.9c0.1,0.1,0.1,0.2,0.2,0.2l-1.5,2.6c-0.1,0-0.2-0.1-0.3-0.1
		c-0.6,0-1.1,0.4-1.3,0.9h-1.4l3.7-6.4l0.7,1.2C19.7,19.8,19.6,20.4,19.9,20.9z M21,21.5C21,21.5,21,21.5,21,21.5
		c0.3,0,0.6,0,0.8-0.2c0.2-0.1,0.4-0.4,0.5-0.6h3.2c0.1,0.2,0.3,0.5,0.5,0.6c0.2,0.1,0.4,0.2,0.7,0.2c0,0,0.1,0,0.1,0l1.6,2.8
		c-0.1,0.1-0.1,0.2-0.2,0.3h-8.8c0-0.1-0.1-0.2-0.2-0.3L21,21.5z M20.2,17.6h7.5l-0.7,1.2c-0.2,0-0.4,0-0.6,0
		c-0.4,0.1-0.6,0.3-0.8,0.6c-0.1,0.1-0.1,0.2-0.1,0.3h-3.1c0-0.1,0-0.2-0.1-0.3c-0.3-0.5-0.8-0.7-1.4-0.7L20.2,17.6z M30.8,24.6
		c-0.2-0.5-0.7-0.9-1.3-0.9c-0.1,0-0.2,0-0.3,0.1l-1.5-2.7c0.1-0.1,0.1-0.1,0.2-0.2c0.3-0.5,0.2-1.1-0.1-1.5l0.7-1.2l3.7,6.4H30.8z
		 M18.6,14.8h10.5c0,0,0,0,0.1,0.1l-1,1.7h-8.6L18.6,14.8C18.6,14.9,18.6,14.8,18.6,14.8z M17.6,15.4C17.7,15.4,17.7,15.4,17.6,15.4
		l1.1,1.7l-4.3,7.4h-2c0,0,0,0,0-0.1L17.6,15.4z M17.6,34.7l-5.2-9.1c0,0,0,0,0-0.1h2l4.3,7.4L17.6,34.7
		C17.7,34.7,17.7,34.7,17.6,34.7z M29.1,35.3H18.7c0,0-0.1-0.1-0.1-0.1l1-1.7h8.6L29.1,35.3C29.2,35.3,29.2,35.3,29.1,35.3z
		 M30.2,34.7c0,0-0.1,0-0.1,0l-1-1.7l4.3-7.4h2c0,0,0,0,0,0.1L30.2,34.7z"/>
	<path class="st0" d="M40.9,20.7c-0.1,0.2-0.1,0.4,0.1,0.5l3.1,4.1c0.1,0.1,0.2,0.2,0.4,0.2c0.2,0,0.3-0.1,0.4-0.2l3.1-4.1
		c0.1-0.2,0.1-0.4,0.1-0.5c-0.1-0.2-0.3-0.3-0.5-0.3h-2.5C42.9,10.8,34.1,3.6,24,3.6c-11.9,0-21.6,9.7-21.6,21.6S12.1,46.9,24,46.9
		c10.7,0,19.7-7.6,21.3-18.2c0.1-0.5-0.3-1-0.8-1.1c-0.5-0.1-1,0.3-1.1,0.8C42,38,33.8,45,24,45C13.1,45,4.2,36.1,4.2,25.2
		S13.1,5.5,24,5.5c9.1,0,17,6.3,19.2,15h-1.8C41.2,20.5,41,20.6,40.9,20.7z"/>
</g>
</svg>
