<svg id="Layer_1" data-name="Layer 1" xmlns="http://www.w3.org/2000/svg" viewBox="0 0 50.46 50.46"><defs><style>.cls-1{fill:#65b4e1;}</style></defs><title>ciencia publicacion</title><path class="cls-1" d="M13,16.93h9.79a.81.81,0,1,0,0-1.62H13a.81.81,0,1,0,0,1.62Z"/><path class="cls-1" d="M13,21.51H31.32a.81.81,0,1,0,0-1.62H13a.81.81,0,1,0,0,1.62Z"/><path class="cls-1" d="M13,26.1H31.32a.81.81,0,1,0,0-1.62H13a.81.81,0,1,0,0,1.62Z"/><path class="cls-1" d="M37.88,16.5,31.11,9.3H10.45a4.11,4.11,0,0,0-4.1,4.1V43.06a4.11,4.11,0,0,0,4.1,4.1H33.88a4.1,4.1,0,0,0,4.1-4.1l-.09-26.51ZM35,16.19H31.87l0-3.45Zm1.29,26.87a2.44,2.44,0,0,1-2.43,2.44H10.45A2.44,2.44,0,0,1,8,43.06V13.4A2.44,2.44,0,0,1,10.45,11H29.94l0,6.17a1,1,0,0,0,.94.94h0c.38,0,3,0,5.35,0Z"/><path class="cls-1" d="M31.75,34a1.53,1.53,0,0,0-1.69-.1l-3.25-2.43a1.53,1.53,0,0,0-.57-1.59,1.55,1.55,0,0,0-2.17.31,1.51,1.51,0,0,0-.23,1.35l-3.32,2.34a.64.64,0,0,0-.12-.12,1.54,1.54,0,0,0-2,.14L15,32.2a1.54,1.54,0,0,0-2.72-1.33A1.55,1.55,0,0,0,12.57,33a1.54,1.54,0,0,0,1.9-.07L18,34.65a1.54,1.54,0,0,0,.58,1.55,1.51,1.51,0,0,0,1.14.28l1.22,3.94a1.46,1.46,0,0,0-.43.38A1.55,1.55,0,0,0,23,42.67a1.48,1.48,0,0,0,.25-.52l4,.06a1.55,1.55,0,0,0,1.51,1.21l.22,0a1.55,1.55,0,0,0,.72-2.77L31,36.73a1.52,1.52,0,0,0,1.11-.59A1.55,1.55,0,0,0,31.75,34Zm-3,6.37a1.53,1.53,0,0,0-1.32.6,1.4,1.4,0,0,0-.18.36l-4.11-.06a1.43,1.43,0,0,0-1.37-1l-1.27-4.12a1,1,0,0,0,.21-.19A1.52,1.52,0,0,0,21,34.64l3.36-2.37.05,0a1.54,1.54,0,0,0,2-.11l3.11,2.33a1.54,1.54,0,0,0,.45,1.91.7.7,0,0,0,.17.09Z"/><path class="cls-1" d="M40,3.3H16.58a4.1,4.1,0,0,0-4.1,4.1V8h1.66V7.4A2.44,2.44,0,0,1,16.58,5H40A2.44,2.44,0,0,1,42.44,7.4V37.06A2.44,2.44,0,0,1,40,39.5h-.54v1.67H40a4.11,4.11,0,0,0,4.1-4.1V7.4A4.11,4.11,0,0,0,40,3.3Z"/></svg>