<?xml version="1.0" encoding="utf-8"?>
<!-- Generator: Adobe Illustrator 26.5.1, SVG Export Plug-In . SVG Version: 6.00 Build 0)  -->
<svg version="1.1" id="Layer_1" xmlns="http://www.w3.org/2000/svg" xmlns:xlink="http://www.w3.org/1999/xlink" x="0px" y="0px"
	 viewBox="0 0 50.5 50.5" style="enable-background:new 0 0 50.5 50.5;" xml:space="preserve">
<path d="M42.977,19.399c-1.443,0-2.613,1.17-2.613,2.613c0,0.1,0.018,0.194,0.029,0.291l-6.714,3.037
	c-0.478-0.526-1.161-0.863-1.928-0.863c-0.414,0-0.801,0.105-1.149,0.277l-6.795-4.937c0.022-0.137,0.042-0.274,0.042-0.417
	c0-1.443-1.17-2.613-2.613-2.613c-0.429,0-0.828,0.113-1.185,0.296l-4.338-4.338c0.183-0.357,0.296-0.756,0.296-1.185
	c0-1.443-1.17-2.613-2.613-2.613c-1.443,0-2.613,1.17-2.613,2.613c0,1.443,1.17,2.613,2.613,2.613c0.429,0,0.828-0.113,1.185-0.296
	l4.338,4.338c-0.183,0.357-0.296,0.756-0.296,1.185c0,0.256,0.048,0.498,0.117,0.732l-6.552,4.76
	c-0.406-0.26-0.886-0.416-1.404-0.416c-1.443,0-2.613,1.17-2.613,2.613c0,1.443,1.17,2.613,2.613,2.613
	c0.023,0,0.044-0.006,0.067-0.007l2.49,7.664c-0.667,0.473-1.105,1.248-1.105,2.128c0,1.443,1.17,2.613,2.613,2.613
	c1.162,0,2.135-0.764,2.475-1.813h7.916c0.301,1.111,1.306,1.932,2.512,1.932c1.443,0,2.613-1.17,2.613-2.613
	c0-0.754-0.324-1.428-0.835-1.905l2.612-8.039c1.257-0.189,2.223-1.264,2.223-2.574c0-0.099-0.018-0.194-0.029-0.29l6.714-3.036
	c0.478,0.526,1.161,0.862,1.928,0.862c1.443,0,2.613-1.17,2.613-2.613S44.42,19.399,42.977,19.399z M27.751,36.994
	c-1.118,0-2.065,0.706-2.438,1.694h-7.99c-0.338-1.044-1.303-1.804-2.458-1.812l-2.506-7.715c0.627-0.477,1.037-1.224,1.037-2.072
	c0-0.34-0.07-0.663-0.188-0.961l6.432-4.673c0.443,0.344,0.992,0.557,1.596,0.557c0.715,0,1.362-0.289,1.834-0.754l6.373,4.631
	c-0.188,0.361-0.305,0.765-0.305,1.2c0,1.006,0.575,1.869,1.408,2.305l-2.48,7.632C27.962,37.013,27.859,36.994,27.751,36.994z"/>
</svg>
