<?xml version="1.0" encoding="utf-8"?>
<!-- Generator: Adobe Illustrator 26.5.1, SVG Export Plug-In . SVG Version: 6.00 Build 0)  -->
<svg version="1.1" id="Layer_1" xmlns="http://www.w3.org/2000/svg" xmlns:xlink="http://www.w3.org/1999/xlink" x="0px" y="0px"
	 viewBox="0 0 50.5 50.5" style="enable-background:new 0 0 50.5 50.5;" xml:space="preserve">
<g>
	<path d="M11.708,33.544c-0.351-0.268-0.869-0.181-1.139,0.17c-1.536,2.003-1.157,4.882,0.845,6.419
		c0.052,0.04,0.112,0.072,0.176,0.098c0.801,0.564,1.734,0.839,2.663,0.839c1.376,0,2.743-0.602,3.66-1.753l0.034-0.044
		c0.267-0.348,0.187-0.824-0.159-1.095c-0.347-0.271-0.862-0.188-1.135,0.153c-1.025,1.286-2.923,1.522-4.23,0.525
		c-0.044-0.033-0.094-0.062-0.147-0.085c-1.202-1.02-1.404-2.821-0.402-4.128C12.142,34.293,12.058,33.813,11.708,33.544z"/>
	<path d="M22.69,37.791l-2.101-0.089c-0.342-0.037-0.673,0.202-0.789,0.535c-0.12,0.343-0.271,0.673-0.449,0.983
		c-0.18,0.312-0.129,0.705,0.124,0.961l0.885,0.896l-1.573,1.533l-1.095-1.109c-0.244-0.246-0.62-0.31-0.928-0.152
		c-0.325,0.162-0.668,0.296-1.021,0.396c-0.333,0.094-0.567,0.391-0.582,0.735l-0.064,1.516l-2.389-0.102l0.054-1.267
		c0.016-0.364-0.217-0.693-0.566-0.8s-0.691-0.247-1.017-0.42c-0.305-0.158-0.68-0.107-0.929,0.132l-1.09,1.053l-1.628-1.671
		l1.096-1.057c0.252-0.243,0.317-0.622,0.16-0.935c-0.163-0.325-0.296-0.668-0.396-1.021c-0.094-0.332-0.391-0.567-0.736-0.581
		l-1.479-0.063l0.097-2.282l1.409,0.06c0.353,0.024,0.674-0.203,0.79-0.537c0.118-0.339,0.269-0.67,0.449-0.982
		c0.18-0.312,0.129-0.705-0.124-0.962l-1.076-1.09L9.539,29.7c0.204,0.015,0.414-0.055,0.579-0.203
		c0.329-0.294,0.357-0.8,0.062-1.129c-0.188-0.21-0.446-0.333-0.727-0.349c-0.263-0.012-0.526,0.074-0.731,0.246
		c-0.019,0.015-0.036,0.03-0.053,0.047l-2.435,2.373c-0.428,0.387-0.463,1.052-0.127,1.418c0.024,0.032,0.051,0.064,0.08,0.093
		l1.062,1.075c-0.023,0.05-0.046,0.1-0.068,0.149l-1.532-0.065c-0.136-0.012-0.269,0.022-0.39,0.082
		c-0.416,0.206-0.639,0.664-0.569,1.107l-0.147,3.452c-0.019,0.441,0.323,0.814,0.764,0.833l1.726,0.073
		c0.025,0.067,0.051,0.135,0.078,0.201l-1.064,1.026c-0.427,0.386-0.462,1.05-0.123,1.426C5.948,41.586,5.973,41.614,6,41.642
		l2.366,2.428c0.188,0.21,0.446,0.333,0.727,0.349c0.261,0.009,0.527-0.074,0.731-0.246c0.017-0.015,0.034-0.029,0.05-0.044
		l1.088-1.051c0.059,0.025,0.117,0.05,0.177,0.073l-0.063,1.475c-0.019,0.441,0.323,0.814,0.764,0.833l3.74,0.159
		c0.015,0.001,0.03,0.001,0.045,0.001c0.558,0,1.024-0.441,1.048-1.004l0.064-1.512c0.069-0.025,0.138-0.053,0.207-0.08l1.054,1.066
		c0.188,0.209,0.446,0.332,0.727,0.347c0.236,0.013,0.46-0.053,0.668-0.201l0,0.001c0.041-0.027,0.079-0.059,0.114-0.093
		l2.365-2.304c0.08-0.048,0.153-0.105,0.218-0.172c0.302-0.312,0.3-0.81-0.005-1.118l-1.062-1.076
		c0.023-0.049,0.045-0.099,0.067-0.148l1.533,0.064c0.429,0.041,0.814-0.324,0.833-0.765C23.475,38.183,23.132,37.81,22.69,37.791z"
		/>
	<path d="M42.805,15.333c-1.737,0-3.151,1.414-3.151,3.151c0,0.179,0.024,0.352,0.053,0.523l-5.694,2.576
		c-0.578-0.71-1.448-1.173-2.433-1.173c-0.598,0-1.152,0.177-1.628,0.467l-5.839-4.242c0.062-0.246,0.104-0.499,0.104-0.763
		c0-1.738-1.414-3.151-3.151-3.151c-0.578,0-1.113,0.168-1.579,0.44l-3.549-3.549c0.273-0.466,0.44-1.001,0.44-1.579
		c0-1.738-1.414-3.151-3.151-3.151s-3.151,1.414-3.151,3.151c0,1.738,1.414,3.152,3.151,3.152c0.578,0,1.113-0.168,1.58-0.44
		l3.549,3.549c-0.273,0.466-0.44,1.001-0.44,1.579c0,0.375,0.077,0.73,0.198,1.064l-5.638,4.096
		c-0.523-0.386-1.163-0.622-1.862-0.622c-1.738,0-3.151,1.414-3.151,3.151s1.414,3.152,3.151,3.152c0.081,0,0.157-0.018,0.236-0.024
		l2.617,8.053c-0.313,0.311-0.506,0.742-0.506,1.218c0,0.949,0.769,1.718,1.718,1.718c0.658,0,1.223-0.374,1.512-0.918h8.318
		c0.313,1.411,1.569,2.471,3.073,2.471c1.737,0,3.151-1.414,3.151-3.151c0-0.995-0.473-1.874-1.196-2.452l2.254-6.936
		c1.638-0.11,2.942-1.465,2.942-3.131c0-0.179-0.024-0.352-0.053-0.523l5.694-2.575c0.578,0.71,1.448,1.173,2.433,1.173
		c1.737,0,3.151-1.414,3.151-3.152C45.956,16.747,44.542,15.333,42.805,15.333z M27.579,32.929c-1.416,0-2.602,0.945-2.999,2.232
		h-8.392c-0.241-0.454-0.673-0.789-1.194-0.887l-2.63-8.095c0.843-0.566,1.399-1.528,1.399-2.617c0-0.459-0.104-0.892-0.281-1.285
		l5.539-4.025c0.552,0.474,1.26,0.771,2.042,0.771c0.893,0,1.696-0.377,2.27-0.975l5.5,3.996c-0.251,0.452-0.407,0.965-0.407,1.517
		c0,1.243,0.73,2.311,1.778,2.823l-2.142,6.592C27.905,32.953,27.745,32.929,27.579,32.929z"/>
</g>
</svg>
