<svg id="Layer_1" data-name="Layer 1" xmlns="http://www.w3.org/2000/svg" viewBox="0 0 50.46 50.46"><defs><style>.cls-1{fill:#12b5e1;}</style></defs><title>cine</title><path class="cls-1" d="M14.46,19.92A5.56,5.56,0,1,0,8.9,14.36,5.56,5.56,0,0,0,14.46,19.92Zm0-9.32a3.76,3.76,0,1,1-3.76,3.76A3.76,3.76,0,0,1,14.46,10.6Z"/><path class="cls-1" d="M28,19.92a8,8,0,1,0-8-8A8,8,0,0,0,28,19.92ZM28,5.74a6.19,6.19,0,1,1-6.19,6.19A6.2,6.2,0,0,1,28,5.74Z"/><path class="cls-1" d="M44.4,21.51a.87.87,0,0,0-.88,0l-3.82,2V21.19a3,3,0,0,0-3-3H34.45a.92.92,0,0,0,0,1.84h2.23a1.19,1.19,0,0,1,1.18,1.19V37.83A1.18,1.18,0,0,1,36.68,39h-28a1.18,1.18,0,0,1-1.18-1.18V21.19A1.19,1.19,0,0,1,8.65,20h.49a.92.92,0,0,0,0-1.84H8.65a3,3,0,0,0-3,3V37.83a3,3,0,0,0,3,3H20.41L18,45.13a.92.92,0,0,0,.33,1.26.93.93,0,0,0,1.27-.33l3.08-5.3,3.09,5.3a.93.93,0,0,0,.8.46.84.84,0,0,0,.46-.13.93.93,0,0,0,.34-1.26l-2.43-4.27H36.68a3,3,0,0,0,3-3V35.54l3.82,2a.87.87,0,0,0,.42.1.84.84,0,0,0,.46-.13.89.89,0,0,0,.44-.77V22.28A.89.89,0,0,0,44.4,21.51ZM43,35.25,39.7,33.51v-8L43,23.76Z"/><circle class="cls-1" cx="12.28" cy="27.01" r="1.29"/><path class="cls-1" d="M12.28,30.72A1.29,1.29,0,1,0,13.57,32,1.29,1.29,0,0,0,12.28,30.72Z"/><path class="cls-1" d="M15.45,25.68a.93.93,0,0,0-.93.92v5.82a.93.93,0,0,0,.93.92H30.11a.92.92,0,0,0,.92-.92V26.6a.92.92,0,0,0-.92-.92ZM29.18,31.5H16.37v-4H29.18Z"/></svg>