<svg id="Layer_1" data-name="Layer 1" xmlns="http://www.w3.org/2000/svg" viewBox="0 0 50.46 50.46"><defs><style>.cls-1{fill:#12b5e1;}</style></defs><title>cinturon seguridad</title><path class="cls-1" d="M16.57,25.21a.89.89,0,0,0-1.28,0L9,31.53a.92.92,0,0,0,0,1.28l1.06,1L1.68,42a.9.9,0,0,0,1.26,1.29l8.35-8.2,3.46,3.46.72.72-8.15,8A.9.9,0,0,0,8,48.85a.85.85,0,0,0,.63-.26l8.16-8,1.07,1.06a.88.88,0,0,0,1.27,0l6.33-6.33a.9.9,0,0,0,0-1.27Zm4.54,7.09-1.62,1.62L16.7,31.13l1.62-1.63Zm-2.66,7.44-1.06-1.05h0l-5.46-5.45h0l-1.06-1.06,5.06-5.06,1.12,1.12-2.26,2.26a.9.9,0,0,0,0,1.27l4.07,4.07a.85.85,0,0,0,.63.26.89.89,0,0,0,.64-.26l2.26-2.26,1.11,1.12Z"/><path class="cls-1" d="M11.77,39.69l.12-.11a.6.6,0,0,0-.84-.86l-.13.12a.61.61,0,0,0,0,.85.59.59,0,0,0,.85,0Z"/><path class="cls-1" d="M10.18,41.28a.6.6,0,0,0-.84-.85l-3,3a.59.59,0,0,0,0,.85.58.58,0,0,0,.84,0Z"/><path class="cls-1" d="M48.79,7.52a.9.9,0,0,0-1.28,0L33,21.81l-4.18-4.18L43.51,3.15a.9.9,0,1,0-1.26-1.28L27.55,16.35l0,0-1-1a.9.9,0,0,0-1.27,0l-4.57,4.57a.89.89,0,0,0-.19,1L21.78,24l-1.5,1.5a.9.9,0,0,0,0,1.27l3.55,3.55a.89.89,0,0,0,.64.26.85.85,0,0,0,.63-.26l1.5-1.49,3.16,1.36a.91.91,0,0,0,1-.19l4.57-4.57a.91.91,0,0,0,0-1.28l-1.06-1.05L48.78,8.79A.9.9,0,0,0,48.79,7.52ZM29.92,28.27l-3.17-1.36a.91.91,0,0,0-1,.19l-1.29,1.29-2.28-2.27,1.29-1.3a.88.88,0,0,0,.19-1L22.34,20.7l3.51-3.5.39.39.67.67,5.45,5.45.35.35.71.71Z"/><path class="cls-1" d="M32.56,17.21l-.12.12a.61.61,0,0,0,0,.85.63.63,0,0,0,.43.17.59.59,0,0,0,.42-.18l.12-.12a.6.6,0,0,0-.85-.84Z"/><path class="cls-1" d="M38.62,11.15l-4.47,4.47a.61.61,0,0,0,0,.85.62.62,0,0,0,.85,0L39.47,12a.61.61,0,0,0,0-.85A.59.59,0,0,0,38.62,11.15Z"/><path class="cls-1" d="M27,19.64a.91.91,0,0,0-1.28,0,.9.9,0,0,0,0,1.27l4,4a.86.86,0,0,0,.63.27A.91.91,0,0,0,31,23.65Z"/></svg>