<?xml version="1.0" encoding="utf-8"?>
<!-- Generator: Adobe Illustrator 24.0.1, SVG Export Plug-In . SVG Version: 6.00 Build 0)  -->
<svg version="1.1" id="Layer_1" xmlns="http://www.w3.org/2000/svg" xmlns:xlink="http://www.w3.org/1999/xlink" x="0px" y="0px"
	 viewBox="0 0 50.5 50.5" style="enable-background:new 0 0 50.5 50.5;" xml:space="preserve">
<g>
	<path d="M42.389,17.245c0.045-0.312,0.067-0.613,0.067-0.908c0-3.717-3.024-6.741-6.742-6.741c-2.362,0-4.555,1.255-5.752,3.246
		c-0.478-0.103-0.964-0.155-1.452-0.155c-2.607,0-4.969,1.515-6.069,3.83c-1.648-0.225-3.367,0.188-4.722,1.127
		c-0.543-0.2-1.117-0.305-1.712-0.305c-2.772,0-5.027,2.255-5.027,5.027c0,0.173,0.01,0.348,0.031,0.528
		c-1.555,0.875-2.53,2.522-2.53,4.351c0,2.772,2.251,5.027,5.018,5.027c0.054,0,0.114,0,0.18-0.004
		c0.025,0.003,0.05,0.004,0.076,0.004h10.462l-0.605,1.203c-0.12,0.238-0.108,0.521,0.032,0.749c0.14,0.227,0.387,0.365,0.654,0.365
		h1.524l-2.508,5.22c-0.158,0.329-0.063,0.723,0.227,0.944c0.138,0.105,0.301,0.157,0.465,0.157c0.18,0,0.361-0.064,0.505-0.189
		l9.293-8.107c0.241-0.21,0.327-0.548,0.214-0.848c-0.112-0.299-0.399-0.498-0.719-0.498h-2.481l0.889-1.338h7.165
		c0.031,0,0.062-0.002,0.093-0.006c0.088,0.005,0.178,0.006,0.272,0.006c3.712,0,6.732-3.024,6.732-6.741
		C45.968,20.672,44.582,18.404,42.389,17.245z M13.815,30.736c-0.073-0.011-0.146-0.01-0.215-0.002
		c-0.032,0.004-0.066,0.002-0.101,0.002c-1.92,0-3.482-1.567-3.482-3.491c0-1.414,0.84-2.67,2.14-3.201
		c0.348-0.142,0.542-0.516,0.458-0.883c-0.067-0.292-0.099-0.551-0.099-0.795c0-1.925,1.566-3.491,3.491-3.491
		c0.524,0,1.022,0.113,1.489,0.338c0.713,0.335,1.295,0.915,1.64,1.634c0.165,0.344,0.555,0.515,0.921,0.402
		c1.8-0.561,3.738,0.419,4.348,2.124c0.134,0.374,0.528,0.582,0.915,0.486c0.244-0.063,0.514-0.095,0.802-0.095
		c0.195,0,0.386,0.021,0.574,0.053c0.059,0.01,0.116,0.026,0.175,0.04c0.128,0.029,0.254,0.063,0.377,0.105
		c0.063,0.022,0.125,0.046,0.186,0.071c0.117,0.048,0.231,0.104,0.341,0.164c0.054,0.03,0.11,0.058,0.162,0.09
		c0.129,0.079,0.251,0.168,0.368,0.263c0.027,0.022,0.057,0.04,0.083,0.063c0.141,0.121,0.271,0.254,0.391,0.395
		c0.031,0.037,0.058,0.078,0.087,0.116c0.085,0.109,0.165,0.221,0.236,0.339c0.033,0.055,0.063,0.113,0.093,0.17
		c0.029,0.055,0.052,0.113,0.078,0.169h-1.329c-0.29,0-0.555,0.163-0.686,0.423l-2.27,4.511H13.815z M30.653,28.734
		c-0.002,0.004-0.003,0.008-0.006,0.011l-1.901,2.863c-0.157,0.236-0.171,0.538-0.037,0.788c0.134,0.249,0.394,0.405,0.677,0.405
		h1.864l-4.934,4.305l1.419-2.953c0.114-0.238,0.098-0.518-0.042-0.742c-0.141-0.224-0.386-0.359-0.65-0.359h-1.498l0.602-1.197
		c0.001-0.002,0.003-0.004,0.005-0.007l2.267-4.511h1.898h1.266L30.653,28.734z M39.236,28.392c-0.088,0-0.169,0.003-0.251-0.009
		c-0.035-0.006-0.07-0.008-0.105-0.008c-0.053,0-0.106,0.007-0.158,0.018h-5.995l0.928-1.397c0.157-0.236,0.171-0.539,0.037-0.788
		s-0.394-0.405-0.677-0.405h-2.089c-0.013-0.042-0.034-0.079-0.048-0.121c-0.037-0.111-0.083-0.216-0.128-0.324
		c-0.064-0.155-0.13-0.307-0.208-0.454c-0.056-0.105-0.118-0.204-0.181-0.305c-0.087-0.138-0.178-0.27-0.277-0.399
		c-0.073-0.094-0.148-0.185-0.228-0.273c-0.108-0.12-0.221-0.233-0.339-0.343c-0.087-0.08-0.174-0.16-0.266-0.234
		c-0.127-0.102-0.26-0.194-0.397-0.284c-0.097-0.064-0.192-0.129-0.294-0.186c-0.148-0.083-0.302-0.152-0.458-0.221
		c-0.101-0.044-0.199-0.094-0.303-0.131c-0.177-0.064-0.361-0.109-0.546-0.153c-0.092-0.022-0.18-0.053-0.273-0.069
		c-0.281-0.05-0.568-0.079-0.861-0.079c-0.181,0-0.359,0.009-0.531,0.027c-0.984-1.91-3.193-3.027-5.378-2.624
		c-0.131-0.203-0.277-0.394-0.435-0.576c-0.049-0.056-0.106-0.105-0.157-0.158c-0.115-0.12-0.23-0.241-0.356-0.349
		c-0.011-0.01-0.02-0.021-0.031-0.031c1.051-0.524,2.33-0.665,3.499-0.384c0.379,0.09,0.771-0.119,0.902-0.487
		c0.734-2.047,2.694-3.422,4.877-3.422c0.552,0,1.08,0.081,1.613,0.248c0.365,0.113,0.759-0.058,0.923-0.404
		c0.847-1.784,2.679-2.936,4.669-2.936c2.871,0,5.206,2.335,5.206,5.205c0,0.368-0.047,0.754-0.145,1.178
		c-0.083,0.365,0.108,0.737,0.454,0.881c1.945,0.808,3.202,2.688,3.202,4.79C44.432,26.056,42.101,28.392,39.236,28.392z"/>
	<path d="M6.14,37.505l-1.37,1.642c-0.272,0.325-0.228,0.81,0.097,1.082c0.144,0.12,0.318,0.178,0.492,0.178
		c0.22,0,0.438-0.094,0.59-0.276l1.37-1.642c0.272-0.325,0.228-0.81-0.098-1.082C6.896,37.136,6.412,37.18,6.14,37.505z"/>
	<path d="M10.701,33.241c-0.325-0.272-0.81-0.228-1.082,0.097L7.472,35.91c-0.272,0.325-0.228,0.81,0.098,1.082
		c0.144,0.12,0.318,0.178,0.492,0.178c0.22,0,0.438-0.094,0.59-0.276l2.146-2.571C11.07,33.998,11.027,33.513,10.701,33.241z"/>
	<path d="M14.456,33.242c-0.326-0.271-0.809-0.231-1.082,0.096L9.88,37.504c-0.273,0.324-0.23,0.809,0.095,1.082
		c0.144,0.12,0.319,0.179,0.493,0.179c0.219,0,0.437-0.093,0.589-0.275l3.494-4.166C14.823,34,14.781,33.515,14.456,33.242z"/>
	<path d="M14.464,36.497l-3.003,3.602c-0.272,0.326-0.228,0.811,0.098,1.082c0.144,0.12,0.318,0.178,0.491,0.178
		c0.22,0,0.438-0.094,0.59-0.276l3.003-3.602c0.272-0.326,0.228-0.811-0.098-1.082C15.22,36.128,14.736,36.172,14.464,36.497z"/>
	<path d="M18.179,33.241c-0.325-0.272-0.809-0.228-1.081,0.097l-1.311,1.572c-0.272,0.326-0.228,0.811,0.098,1.082
		c0.143,0.12,0.318,0.178,0.491,0.178c0.22,0,0.438-0.094,0.59-0.276l1.311-1.572C18.549,33.997,18.504,33.512,18.179,33.241z"/>
	<path d="M20.823,33.338l-3.495,4.166c-0.273,0.324-0.23,0.809,0.095,1.082c0.144,0.12,0.319,0.179,0.493,0.179
		c0.219,0,0.437-0.093,0.589-0.275L22,34.324c0.273-0.324,0.23-0.809-0.095-1.082C21.58,32.971,21.096,33.012,20.823,33.338z"/>
</g>
</svg>
