<?xml version="1.0" encoding="utf-8"?>
<!-- Generator: Adobe Illustrator 24.0.1, SVG Export Plug-In . SVG Version: 6.00 Build 0)  -->
<svg version="1.1" id="Layer_1" xmlns="http://www.w3.org/2000/svg" xmlns:xlink="http://www.w3.org/1999/xlink" x="0px" y="0px"
	 viewBox="0 0 50.5 50.5" style="enable-background:new 0 0 50.5 50.5;" xml:space="preserve">
<g>
	<path d="M25.548,36.645c6.294,0,11.415-5.121,11.415-11.415s-5.121-11.415-11.415-11.415c-6.294,0-11.415,5.121-11.415,11.415
		S19.253,36.645,25.548,36.645z M25.548,15.351c5.447,0,9.879,4.432,9.879,9.879c0,5.448-4.432,9.879-9.879,9.879
		c-5.447,0-9.879-4.432-9.879-9.879C15.668,19.783,20.1,15.351,25.548,15.351z"/>
	<path d="M25.23,11.035c0.424,0,0.768-0.344,0.768-0.768V6.377c0-0.424-0.344-0.768-0.768-0.768s-0.768,0.344-0.768,0.768v3.891
		C24.462,10.692,24.806,11.035,25.23,11.035z"/>
	<path d="M25.23,39.425c-0.424,0-0.768,0.344-0.768,0.768v3.891c0,0.424,0.344,0.768,0.768,0.768s0.768-0.344,0.768-0.768v-3.891
		C25.998,39.769,25.654,39.425,25.23,39.425z"/>
	<path d="M17.304,12.516c0.14,0.253,0.402,0.396,0.672,0.396c0.126,0,0.254-0.031,0.372-0.097c0.371-0.206,0.505-0.673,0.3-1.044
		l-1.886-3.402c-0.206-0.371-0.674-0.505-1.044-0.3c-0.371,0.206-0.505,0.673-0.3,1.044L17.304,12.516z"/>
	<path d="M33.156,37.944c-0.206-0.371-0.675-0.505-1.044-0.299c-0.371,0.205-0.505,0.673-0.3,1.043l1.886,3.402
		c0.14,0.253,0.402,0.396,0.672,0.396c0.126,0,0.254-0.031,0.372-0.097c0.371-0.205,0.505-0.673,0.299-1.043L33.156,37.944z"/>
	<path d="M13.855,15.478l-3.079-2.377c-0.336-0.26-0.817-0.197-1.077,0.139c-0.259,0.336-0.197,0.818,0.139,1.077l3.079,2.378
		c0.14,0.108,0.305,0.16,0.469,0.16c0.23,0,0.457-0.103,0.608-0.299C14.253,16.22,14.191,15.737,13.855,15.478z"/>
	<path d="M37.543,33.766c-0.335-0.26-0.817-0.198-1.077,0.139c-0.259,0.337-0.197,0.818,0.139,1.078l3.079,2.377
		c0.14,0.108,0.305,0.159,0.469,0.159c0.23,0,0.457-0.102,0.608-0.298c0.259-0.337,0.197-0.818-0.139-1.078L37.543,33.766z"/>
	<path d="M10.268,25.869c0.421,0,0.765-0.339,0.768-0.761c0.004-0.424-0.337-0.771-0.761-0.774L6.384,24.3
		c-0.407,0.026-0.771,0.337-0.774,0.761c-0.004,0.424,0.337,0.771,0.761,0.774l3.89,0.034
		C10.264,25.869,10.266,25.869,10.268,25.869z"/>
	<path d="M44.089,24.624l-3.89-0.033c-0.42-0.007-0.771,0.337-0.774,0.761c-0.004,0.424,0.337,0.771,0.761,0.775l3.89,0.033
		c0.002,0,0.004,0,0.007,0c0.421,0,0.765-0.339,0.768-0.761C44.854,24.975,44.513,24.628,44.089,24.624z"/>
	<path d="M11.792,31.856l-3.396,1.898c-0.37,0.207-0.503,0.675-0.296,1.045c0.141,0.251,0.402,0.393,0.671,0.393
		c0.127,0,0.255-0.031,0.374-0.097l3.396-1.898c0.37-0.207,0.503-0.675,0.296-1.045C12.631,31.781,12.163,31.649,11.792,31.856z"/>
	<path d="M38.294,18.702c0.127,0,0.255-0.031,0.374-0.098l3.396-1.897c0.37-0.207,0.503-0.675,0.296-1.045
		c-0.207-0.37-0.675-0.503-1.045-0.296l-3.396,1.897c-0.37,0.207-0.503,0.674-0.296,1.045C37.763,18.56,38.025,18.702,38.294,18.702
		z"/>
	<path d="M18.018,37.456c-0.366-0.216-0.836-0.093-1.051,0.272l-1.976,3.351c-0.216,0.366-0.094,0.836,0.271,1.052
		c0.122,0.072,0.257,0.106,0.389,0.106c0.263,0,0.519-0.135,0.662-0.378l1.976-3.351C18.505,38.142,18.383,37.672,18.018,37.456z"/>
	<path d="M32.442,13.004c0.122,0.072,0.257,0.107,0.389,0.107c0.263,0,0.519-0.135,0.662-0.378l1.976-3.351
		c0.216-0.365,0.094-0.836-0.271-1.051c-0.366-0.216-0.837-0.093-1.051,0.271l-1.976,3.351
		C31.955,12.317,32.077,12.788,32.442,13.004z"/>
</g>
</svg>
