<?xml version="1.0" encoding="utf-8"?>
<!-- Generator: Adobe Illustrator 24.0.1, SVG Export Plug-In . SVG Version: 6.00 Build 0)  -->
<svg version="1.1" id="Layer_1" xmlns="http://www.w3.org/2000/svg" xmlns:xlink="http://www.w3.org/1999/xlink" x="0px" y="0px"
	 viewBox="0 0 50.5 50.5" style="enable-background:new 0 0 50.5 50.5;" xml:space="preserve">
<g>
	<path d="M25.23,11.455c-7.596,0-13.775,6.179-13.775,13.775s6.179,13.775,13.775,13.775c7.596,0,13.775-6.179,13.775-13.775
		S32.826,11.455,25.23,11.455z M25.23,37.469c-6.749,0-12.239-5.491-12.239-12.239c0-6.749,5.49-12.239,12.239-12.239
		s12.239,5.49,12.239,12.239C37.469,31.978,31.979,37.469,25.23,37.469z"/>
	<path d="M21.039,21.395c0.176,0.041,0.353,0.061,0.529,0.061c0.425,0,0.842-0.118,1.212-0.348c0.36-0.224,0.471-0.697,0.247-1.057
		c-0.223-0.36-0.697-0.471-1.057-0.247c-0.174,0.108-0.381,0.143-0.581,0.096c-0.2-0.047-0.37-0.169-0.479-0.344
		c-0.108-0.174-0.142-0.381-0.096-0.581c0.047-0.2,0.169-0.37,0.344-0.478c0.36-0.224,0.471-0.697,0.247-1.058
		c-0.224-0.36-0.696-0.471-1.058-0.247c-0.523,0.325-0.888,0.834-1.028,1.434c-0.14,0.6-0.038,1.218,0.287,1.741
		C19.931,20.889,20.44,21.255,21.039,21.395z"/>
	<path d="M34.486,23.98c-0.424,0-0.768,0.344-0.768,0.768c0,1.585-1.29,2.874-2.874,2.874c-1.584,0-2.873-1.289-2.873-2.874
		c0-1.584,1.289-2.874,2.873-2.874c0.424,0,0.768-0.344,0.768-0.768c0-0.424-0.344-0.768-0.768-0.768
		c-2.431,0-4.409,1.978-4.409,4.409c0,2.431,1.978,4.41,4.409,4.41s4.41-1.978,4.41-4.41C35.254,24.323,34.91,23.98,34.486,23.98z"
		/>
	<path d="M20.411,26.382c-0.409,0.113-0.648,0.536-0.535,0.945c0.113,0.409,0.533,0.651,0.945,0.534
		c0.803-0.219,1.638,0.249,1.861,1.053c0.223,0.803-0.249,1.638-1.052,1.862c-0.803,0.219-1.638-0.25-1.861-1.053
		c-0.114-0.41-0.538-0.652-0.946-0.534c-0.408,0.113-0.648,0.536-0.534,0.945c0.375,1.348,1.603,2.233,2.939,2.233
		c0.269,0,0.543-0.036,0.814-0.112c1.619-0.45,2.571-2.134,2.121-3.752C23.713,26.884,22.027,25.929,20.411,26.382z"/>
	<path d="M16.832,22.702c-0.618,0-1.121,0.503-1.121,1.122s0.503,1.122,1.121,1.122c0.619,0,1.122-0.503,1.122-1.122
		S17.451,22.702,16.832,22.702z"/>
	<path d="M27.797,31.91c-0.619,0-1.122,0.503-1.122,1.122c0,0.619,0.503,1.121,1.122,1.121s1.122-0.502,1.122-1.121
		C28.919,32.413,28.416,31.91,27.797,31.91z"/>
	<path d="M27.606,17.844c0-0.619-0.503-1.122-1.122-1.122s-1.122,0.503-1.122,1.122s0.503,1.122,1.122,1.122
		S27.606,18.463,27.606,17.844z"/>
</g>
</svg>
