<?xml version="1.0" encoding="utf-8"?>
<!-- Generator: Adobe Illustrator 24.0.1, SVG Export Plug-In . SVG Version: 6.00 Build 0)  -->
<svg version="1.1" id="Capa_1" xmlns="http://www.w3.org/2000/svg" xmlns:xlink="http://www.w3.org/1999/xlink" x="0px" y="0px"
	 viewBox="0 0 50.5 50.5" style="enable-background:new 0 0 50.5 50.5;" xml:space="preserve">
<g>
	<path d="M20.431,16.186l0.593,0.372l-0.593,0.372c-0.374,0.235-0.487,0.729-0.252,1.103c0.152,0.242,0.412,0.375,0.679,0.375
		c0.145,0,0.292-0.04,0.424-0.123l0.448-0.281v0.529c0,0.442,0.358,0.8,0.8,0.8s0.8-0.358,0.8-0.8v-0.529l0.448,0.281
		c0.132,0.083,0.279,0.123,0.424,0.123c0.267,0,0.527-0.133,0.679-0.375c0.235-0.375,0.122-0.868-0.252-1.103l-0.593-0.372
		l0.593-0.372c0.374-0.235,0.487-0.729,0.252-1.103c-0.234-0.374-0.728-0.489-1.103-0.252l-0.448,0.281v-0.529
		c0-0.442-0.358-0.8-0.8-0.8s-0.8,0.358-0.8,0.8v0.529l-0.448-0.281c-0.376-0.236-0.869-0.122-1.103,0.252
		C19.943,15.457,20.057,15.951,20.431,16.186z"/>
	<path d="M24.88,26.651c-0.234-0.372-0.728-0.488-1.103-0.252l-0.448,0.281v-0.528c0-0.442-0.358-0.8-0.8-0.8s-0.8,0.358-0.8,0.8
		v0.528l-0.448-0.281c-0.375-0.234-0.868-0.12-1.103,0.252c-0.235,0.375-0.122,0.868,0.252,1.104l0.594,0.373L20.431,28.5
		c-0.374,0.235-0.487,0.729-0.252,1.104c0.152,0.241,0.412,0.374,0.679,0.374c0.145,0,0.292-0.039,0.424-0.122l0.448-0.281v0.529
		c0,0.441,0.358,0.8,0.8,0.8s0.8-0.358,0.8-0.8v-0.529l0.448,0.281c0.132,0.083,0.279,0.122,0.424,0.122
		c0.266,0,0.527-0.133,0.679-0.374c0.235-0.375,0.122-0.868-0.252-1.104l-0.594-0.373l0.594-0.373
		C25.002,27.52,25.115,27.026,24.88,26.651z"/>
	<path d="M24.88,38.222c-0.234-0.372-0.728-0.487-1.103-0.252l-0.448,0.281v-0.529c0-0.441-0.358-0.8-0.8-0.8s-0.8,0.358-0.8,0.8
		v0.529l-0.448-0.281c-0.375-0.235-0.868-0.121-1.103,0.252c-0.235,0.375-0.122,0.868,0.252,1.104l0.594,0.373l-0.594,0.373
		c-0.374,0.235-0.487,0.729-0.252,1.104c0.152,0.241,0.412,0.374,0.679,0.374c0.145,0,0.292-0.039,0.424-0.122l0.448-0.281v0.528
		c0,0.441,0.358,0.8,0.8,0.8s0.8-0.358,0.8-0.8v-0.528l0.448,0.281c0.132,0.083,0.279,0.122,0.424,0.122
		c0.266,0,0.527-0.133,0.679-0.374c0.235-0.375,0.122-0.868-0.252-1.104l-0.594-0.373l0.594-0.373
		C25.002,39.09,25.115,38.597,24.88,38.222z"/>
	<path d="M13.696,20.867c-0.234-0.374-0.728-0.488-1.103-0.252l-0.448,0.281v-0.529c0-0.442-0.358-0.8-0.8-0.8s-0.8,0.358-0.8,0.8
		v0.529l-0.448-0.281c-0.375-0.235-0.868-0.122-1.103,0.252s-0.122,0.868,0.252,1.103l0.594,0.373l-0.594,0.373
		c-0.374,0.235-0.487,0.729-0.252,1.103c0.152,0.242,0.412,0.375,0.679,0.375c0.145,0,0.292-0.04,0.424-0.123l0.448-0.281v0.529
		c0,0.442,0.358,0.8,0.8,0.8s0.8-0.358,0.8-0.8V23.79l0.448,0.281c0.132,0.083,0.279,0.123,0.424,0.123
		c0.266,0,0.527-0.133,0.679-0.375c0.235-0.374,0.122-0.868-0.252-1.103l-0.594-0.373l0.594-0.373
		C13.817,21.735,13.931,21.241,13.696,20.867z"/>
	<path d="M13.696,32.437c-0.234-0.372-0.728-0.488-1.103-0.252l-0.448,0.281v-0.528c0-0.441-0.358-0.8-0.8-0.8s-0.8,0.358-0.8,0.8
		v0.528l-0.448-0.281c-0.375-0.235-0.868-0.121-1.103,0.252c-0.235,0.375-0.122,0.868,0.252,1.104l0.594,0.373l-0.594,0.373
		c-0.374,0.235-0.487,0.729-0.252,1.104c0.152,0.241,0.412,0.374,0.679,0.374c0.145,0,0.292-0.039,0.424-0.122l0.448-0.281v0.528
		c0,0.441,0.358,0.8,0.8,0.8s0.8-0.358,0.8-0.8v-0.528l0.448,0.281c0.132,0.083,0.279,0.122,0.424,0.122
		c0.266,0,0.527-0.133,0.679-0.374c0.235-0.375,0.122-0.868-0.252-1.104l-0.594-0.373l0.594-0.373
		C13.817,33.305,13.931,32.812,13.696,32.437z"/>
	<path d="M36.064,20.867c-0.235-0.375-0.727-0.487-1.104-0.252l-0.447,0.281v-0.528c0-0.442-0.358-0.8-0.8-0.8s-0.8,0.358-0.8,0.8
		v0.528l-0.447-0.281c-0.376-0.235-0.868-0.123-1.104,0.252c-0.234,0.374-0.122,0.868,0.252,1.103l0.593,0.373l-0.593,0.373
		c-0.374,0.235-0.486,0.729-0.252,1.103c0.152,0.242,0.412,0.375,0.679,0.375c0.146,0,0.292-0.04,0.425-0.123l0.447-0.281v0.528
		c0,0.442,0.358,0.8,0.8,0.8s0.8-0.358,0.8-0.8V23.79l0.447,0.281c0.133,0.083,0.279,0.123,0.425,0.123
		c0.267,0,0.526-0.133,0.679-0.375c0.234-0.374,0.122-0.868-0.252-1.103l-0.593-0.373l0.593-0.373
		C36.187,21.735,36.299,21.241,36.064,20.867z"/>
	<path d="M36.064,32.437c-0.235-0.373-0.727-0.487-1.104-0.252l-0.447,0.281v-0.528c0-0.441-0.358-0.8-0.8-0.8s-0.8,0.358-0.8,0.8
		v0.528l-0.447-0.281c-0.376-0.235-0.868-0.121-1.104,0.252c-0.234,0.375-0.122,0.868,0.252,1.104l0.593,0.373l-0.593,0.373
		c-0.374,0.235-0.486,0.729-0.252,1.104c0.152,0.241,0.412,0.374,0.679,0.374c0.146,0,0.292-0.039,0.425-0.122l0.447-0.281v0.528
		c0,0.441,0.358,0.8,0.8,0.8s0.8-0.358,0.8-0.8v-0.53l0.447,0.281c0.133,0.083,0.279,0.122,0.425,0.122
		c0.267,0,0.526-0.133,0.679-0.374c0.234-0.375,0.122-0.868-0.252-1.104l-0.593-0.373l0.593-0.373
		C36.187,33.305,36.299,32.812,36.064,32.437z"/>
	<path d="M25.996,13.067c0.118,0,0.236-0.026,0.348-0.081c5.118-2.482,6.463-2.787,8.748-2.603c1.97,0.157,4.056,1.053,5.244,1.772
		c0.376,0.229,0.869,0.107,1.099-0.27c0.229-0.378,0.107-0.87-0.271-1.099c-1.337-0.81-3.696-1.82-5.945-1.999
		c-2.739-0.222-4.442,0.27-9.573,2.758c-0.397,0.193-0.563,0.671-0.371,1.069C25.414,12.901,25.699,13.067,25.996,13.067z"/>
	<path d="M19.073,13.938c0.07,0.019,0.141,0.028,0.21,0.028c0.352,0,0.675-0.234,0.771-0.591c0.116-0.426-0.136-0.866-0.562-0.981
		c-1.293-0.351-2.01-0.972-2.022-0.982c-0.326-0.292-0.83-0.267-1.126,0.059c-0.297,0.327-0.272,0.833,0.056,1.13
		C16.439,12.636,17.383,13.479,19.073,13.938z"/>
	<path d="M41.164,15.055c-0.484-0.293-3.048-1.768-5.945-1.999c-2.461-0.2-4.052,0.188-7.712,1.875
		c-0.401,0.185-0.576,0.66-0.392,1.062c0.185,0.4,0.659,0.576,1.062,0.392c3.613-1.666,4.89-1.892,6.915-1.733
		c1.968,0.157,4.055,1.053,5.244,1.773c0.129,0.078,0.272,0.116,0.413,0.116c0.271,0,0.535-0.138,0.686-0.386
		C41.663,15.776,41.542,15.284,41.164,15.055z"/>
	<path d="M17.47,15.679c-0.329-0.294-0.832-0.268-1.126,0.06c-0.296,0.328-0.271,0.833,0.057,1.13
		c0.033,0.03,0.339,0.301,0.893,0.613c0.124,0.07,0.259,0.104,0.392,0.104c0.28,0,0.551-0.147,0.698-0.408
		c0.217-0.385,0.081-0.873-0.304-1.089C17.692,15.871,17.482,15.689,17.47,15.679z"/>
	<path d="M41.165,19.323c-0.423-0.256-1.957-1.132-3.962-1.654c-0.422-0.109-0.863,0.145-0.976,0.573
		c-0.111,0.428,0.146,0.865,0.573,0.976c1.426,0.371,2.761,1.004,3.534,1.474c0.13,0.079,0.273,0.116,0.414,0.116
		c0.271,0,0.535-0.137,0.686-0.386C41.663,20.044,41.543,19.552,41.165,19.323z"/>
	<path d="M31.44,18.467c-0.147-0.417-0.609-0.634-1.021-0.486c-1.154,0.41-2.581,1.039-4.773,2.102
		c-5.11,2.479-8.043-0.019-8.175-0.134c-0.326-0.292-0.83-0.268-1.126,0.059c-0.297,0.328-0.272,0.833,0.056,1.13
		c0.105,0.095,1.862,1.641,4.936,1.641c1.405,0,3.086-0.323,5.009-1.255c2.136-1.036,3.514-1.644,4.609-2.033
		C31.37,19.34,31.588,18.883,31.44,18.467z"/>
</g>
</svg>
