<?xml version="1.0" encoding="utf-8"?>
<!-- Generator: Adobe Illustrator 24.0.1, SVG Export Plug-In . SVG Version: 6.00 Build 0)  -->
<svg version="1.1" id="Layer_1" xmlns="http://www.w3.org/2000/svg" xmlns:xlink="http://www.w3.org/1999/xlink" x="0px" y="0px"
	 viewBox="0 0 50.5 50.5" style="enable-background:new 0 0 50.5 50.5;" xml:space="preserve">
<g>
	<path d="M40.874,28.425c0.003-0.055,0.004-0.111,0.004-0.165c0-0.975-0.436-1.869-1.155-2.5c0.008-0.177,0.021-0.353,0.021-0.535
		c0-7.804-6.349-14.153-14.152-14.153c-6.993,0-12.929,5.128-13.978,11.985c-1.066,0.718-1.718,1.914-1.718,3.214
		c0,0.095,0.003,0.188,0.009,0.278c-1.14,0.7-1.849,1.944-1.849,3.314c0,2.144,1.745,3.889,3.89,3.889c0.042,0,0.087,0,0.132-0.002
		c0.02,0.001,0.039,0.002,0.06,0.002h2.172c2.676,3.527,6.854,5.633,11.283,5.633c4.074,0,7.904-1.748,10.587-4.787h2.711
		c0.018,0,0.036,0,0.053-0.002c0.035,0.002,0.069,0.002,0.104,0.002c1.852,0,3.358-1.507,3.358-3.358
		C42.404,30.084,41.819,29.033,40.874,28.425z M14.674,32.218h-2.507c-0.076-0.01-0.152-0.01-0.222,0
		c-1.298,0-2.354-1.056-2.354-2.353c0-0.956,0.571-1.81,1.454-2.177c0.356-0.148,0.547-0.537,0.447-0.909
		c-0.041-0.152-0.061-0.318-0.061-0.506c0-0.866,0.476-1.66,1.256-2.078c0.323-0.181,0.703-0.277,1.098-0.277
		c0.9,0,1.73,0.523,2.114,1.332c0.165,0.346,0.558,0.518,0.924,0.403c0.256-0.081,0.501-0.122,0.728-0.122
		c0.99,0,1.876,0.625,2.206,1.556c0.133,0.375,0.531,0.588,0.916,0.487c0.163-0.042,0.34-0.063,0.541-0.063
		c1.298,0,2.354,1.057,2.354,2.354s-1.056,2.353-2.354,2.353c-0.103,0-0.205-0.007-0.301-0.015
		c-0.018-0.001-0.035-0.002-0.052-0.002c-0.052,0-0.104,0.006-0.155,0.017H14.674z M25.592,37.852c-3.548,0-6.927-1.508-9.307-4.098
		h4.572c0.037,0,0.073-0.003,0.108-0.008c0.082,0.005,0.165,0.008,0.249,0.008c2.145,0,3.89-1.745,3.89-3.889
		c0-2.145-1.745-3.89-3.89-3.89c-0.094,0-0.186,0.003-0.276,0.008c-0.766-1.373-2.307-2.21-3.97-1.94
		c-0.098-0.14-0.207-0.273-0.322-0.398c-0.018-0.02-0.039-0.037-0.057-0.057c-0.104-0.109-0.214-0.211-0.329-0.307
		c-0.011-0.008-0.021-0.016-0.032-0.025c-0.664-0.538-1.499-0.857-2.38-0.871c-0.013,0-0.025-0.002-0.038-0.002
		c-0.009,0-0.017-0.002-0.025-0.002c-0.167,0-0.332,0.011-0.495,0.032c-0.002,0-0.003,0-0.005,0
		c1.283-5.668,6.373-9.806,12.307-9.806c6.872,0,12.479,5.524,12.614,12.365c-0.032-0.007-0.064-0.007-0.096-0.013
		c-0.086-0.016-0.174-0.026-0.262-0.034c-0.065-0.006-0.129-0.012-0.194-0.014c-0.045-0.002-0.088-0.01-0.133-0.01
		c-0.041,0-0.079,0.013-0.119,0.014c-0.174,0.008-0.346,0.028-0.516,0.062c-0.125,0.024-0.244,0.059-0.365,0.097
		c-0.113,0.036-0.223,0.076-0.332,0.123c-0.095,0.041-0.189,0.08-0.28,0.13c-0.169,0.092-0.328,0.2-0.479,0.319
		c-0.054,0.043-0.105,0.09-0.157,0.136c-0.166,0.148-0.323,0.307-0.455,0.488c-1.33-0.168-2.642,0.491-3.308,1.608
		c-1.903-0.102-3.52,1.456-3.52,3.363c0,1.852,1.51,3.358,3.367,3.358c0.059,0,0.12-0.003,0.19-0.007
		c0.035,0.006,0.07,0.007,0.106,0.007h2.393C31.745,36.683,28.748,37.852,25.592,37.852z M39.025,33.068
		c-0.043-0.008-0.087-0.012-0.13-0.012c-0.039,0-0.077,0.004-0.115,0.009h-2.933H31.76c-0.072-0.014-0.146-0.018-0.218-0.011
		c-0.065,0.005-0.126,0.011-0.186,0.011c-1.01,0-1.831-0.818-1.831-1.823c0-1.01,0.821-1.831,1.831-1.831
		c0.136,0,0.277,0.019,0.398,0.052c0.386,0.107,0.792-0.104,0.926-0.483c0.324-0.908,1.327-1.404,2.287-1.111
		c0.36,0.112,0.756-0.061,0.919-0.405c0.361-0.759,1.276-1.133,2.082-0.948c0.19,0.044,0.374,0.11,0.543,0.219
		c0.003,0.002,0.007,0.003,0.011,0.005c0.514,0.336,0.821,0.904,0.821,1.52c0,0.134-0.017,0.277-0.051,0.424
		c-0.083,0.366,0.11,0.738,0.457,0.88c0.68,0.279,1.12,0.938,1.12,1.678C40.869,32.247,40.051,33.065,39.025,33.068z"/>
	<path d="M19.887,21.225c-0.174,0.109-0.381,0.143-0.581,0.096c-0.2-0.047-0.37-0.169-0.479-0.344
		c-0.224-0.36-0.113-0.835,0.248-1.059c0.36-0.224,0.471-0.697,0.247-1.058c-0.224-0.359-0.697-0.471-1.058-0.247
		c-1.079,0.671-1.412,2.095-0.742,3.174c0.437,0.702,1.191,1.088,1.962,1.088c0.415,0,0.835-0.112,1.213-0.346
		c0.36-0.224,0.471-0.698,0.247-1.058C20.721,21.112,20.249,21.001,19.887,21.225z"/>
	<path d="M34.071,21.352c0-0.424-0.344-0.768-0.768-0.768c-0.424,0-0.768,0.344-0.768,0.768c0,1.584-1.29,2.874-2.874,2.874
		s-2.874-1.29-2.874-2.874c0-1.584,1.289-2.873,2.874-2.873c0.424,0,0.768-0.344,0.768-0.768c0-0.424-0.344-0.768-0.768-0.768
		c-2.431,0-4.409,1.978-4.409,4.409c0,2.431,1.978,4.41,4.409,4.41C32.093,25.761,34.071,23.783,34.071,21.352z"/>
	<path d="M25.231,34.744c-0.619,0-1.122,0.503-1.122,1.121c0,0.619,0.503,1.122,1.122,1.122s1.122-0.503,1.122-1.122
		C26.352,35.246,25.849,34.744,25.231,34.744z"/>
	<path d="M23.765,14.954c-0.619,0-1.122,0.503-1.122,1.122c0,0.619,0.503,1.122,1.122,1.122c0.619,0,1.122-0.503,1.122-1.122
		C24.886,15.457,24.383,14.954,23.765,14.954z"/>
</g>
</svg>
