<?xml version="1.0" encoding="utf-8"?>
<!-- Generator: Adobe Illustrator 24.0.1, SVG Export Plug-In . SVG Version: 6.00 Build 0)  -->
<svg version="1.1" id="Layer_1" xmlns="http://www.w3.org/2000/svg" xmlns:xlink="http://www.w3.org/1999/xlink" x="0px" y="0px"
	 viewBox="0 0 50.5 50.5" style="enable-background:new 0 0 50.5 50.5;" xml:space="preserve">
<g>
	<path d="M40.353,17.943c0.046-0.325,0.068-0.649,0.068-0.977c0-3.891-3.165-7.056-7.056-7.056c-2.468,0-4.77,1.324-6.031,3.422
		c-0.504-0.112-1.021-0.167-1.543-0.167c-2.157,0-4.193,1.003-5.515,2.666c-0.914-1.296-2.549-2.025-4.158-1.767
		c-0.778-1.14-2.092-1.85-3.498-1.85c-2.34,0-4.243,1.899-4.243,4.233c0,0.124,0.005,0.243,0.014,0.359
		c-1.268,0.762-2.059,2.13-2.059,3.635c0,2.34,1.903,4.243,4.243,4.243c0.049,0,0.097,0,0.148-0.002
		c0.021,0.002,0.042,0.002,0.063,0.002h0.611c0.258,3.652,3.309,6.547,7.031,6.547c0.182,0,0.364-0.005,0.542-0.018
		c0.054,0.011,0.11,0.018,0.168,0.018h17.549c0.033,0,0.066-0.002,0.098-0.007c0.096,0.006,0.193,0.007,0.285,0.007
		c3.891,0,7.056-3.161,7.056-7.046C44.127,21.537,42.665,19.151,40.353,17.943z M10.906,23.148
		c-0.069-0.011-0.141-0.012-0.213-0.004c-0.041,0.006-0.079,0.004-0.117,0.004c-1.493,0-2.707-1.215-2.707-2.707
		c0-1.092,0.656-2.072,1.671-2.498c0.354-0.149,0.544-0.537,0.444-0.908c-0.047-0.175-0.07-0.367-0.07-0.588
		c0-1.487,1.215-2.698,2.707-2.698c1.031,0,1.984,0.598,2.428,1.522c0.165,0.345,0.558,0.517,0.923,0.401
		c0.27-0.085,0.55-0.128,0.834-0.128c1.138,0,2.159,0.714,2.542,1.778c0.127,0.353,0.49,0.563,0.861,0.495l0.12-0.024
		c0.042-0.009,0.085-0.02,0.211-0.035c0.108-0.021,0.223-0.025,0.337-0.025c1.493,0,2.708,1.215,2.708,2.708
		c0,1.492-1.215,2.707-2.708,2.707c-0.112,0-0.216-0.008-0.337-0.017c-0.074-0.006-0.146,0-0.215,0.017H12.15H10.906z
		 M37.072,29.695c-0.087,0-0.179,0.003-0.264-0.01c-0.037-0.006-0.074-0.008-0.111-0.008c-0.056,0-0.111,0.007-0.165,0.019H19.379
		c-0.107-0.035-0.223-0.046-0.336-0.033c-0.199,0.025-0.406,0.033-0.614,0.033c-2.875,0-5.244-2.206-5.498-5.012h7.552
		c0.04,0,0.079-0.003,0.117-0.009c0.091,0.006,0.182,0.009,0.277,0.009c2.34,0,4.243-1.903,4.243-4.243
		c0-0.273-0.031-0.539-0.081-0.798c-0.016-0.084-0.044-0.164-0.065-0.246c-0.044-0.172-0.092-0.34-0.156-0.503
		c-0.036-0.091-0.078-0.177-0.12-0.266c-0.07-0.146-0.145-0.287-0.23-0.423c-0.052-0.084-0.106-0.165-0.164-0.245
		c-0.095-0.131-0.199-0.254-0.308-0.374c-0.063-0.069-0.123-0.139-0.191-0.203c-0.132-0.126-0.274-0.239-0.422-0.348
		c-0.057-0.042-0.109-0.091-0.169-0.13c-0.212-0.141-0.436-0.264-0.673-0.366c-0.041-0.018-0.086-0.027-0.127-0.043
		c-0.171-0.067-0.342-0.132-0.523-0.177c1.42-1.423,3.661-1.974,5.597-1.359c0.363,0.116,0.758-0.054,0.924-0.398
		c0.912-1.894,2.857-3.118,4.953-3.118c3.044,0,5.52,2.476,5.52,5.52c0,0.418-0.047,0.827-0.144,1.249
		c-0.083,0.365,0.108,0.737,0.454,0.881c2.062,0.856,3.395,2.854,3.395,5.089C42.592,27.223,40.115,29.695,37.072,29.695z"/>
	<path d="M12.543,36.739l-1.442,1.728c-0.272,0.325-0.228,0.81,0.097,1.082c0.144,0.12,0.318,0.178,0.492,0.178
		c0.22,0,0.438-0.094,0.59-0.276l1.442-1.728c0.272-0.325,0.228-0.81-0.097-1.082C13.298,36.369,12.815,36.413,12.543,36.739z"/>
	<path d="M17.287,32.255c-0.326-0.272-0.81-0.228-1.082,0.097l-2.259,2.706c-0.272,0.325-0.228,0.81,0.097,1.082
		c0.143,0.12,0.318,0.178,0.492,0.178c0.22,0,0.438-0.094,0.59-0.276l2.259-2.706C17.656,33.012,17.613,32.527,17.287,32.255z"/>
	<path d="M21.24,32.256c-0.325-0.271-0.809-0.231-1.082,0.096l-3.678,4.386c-0.273,0.324-0.23,0.809,0.095,1.082
		c0.144,0.12,0.319,0.179,0.493,0.179c0.219,0,0.437-0.093,0.589-0.275l3.678-4.386C21.607,33.014,21.565,32.529,21.24,32.256z"/>
	<path d="M21.305,35.678l-3.161,3.791c-0.272,0.326-0.228,0.81,0.098,1.082c0.143,0.12,0.318,0.178,0.491,0.178
		c0.22,0,0.438-0.094,0.59-0.276l3.161-3.791c0.272-0.326,0.228-0.81-0.098-1.082C22.061,35.308,21.576,35.353,21.305,35.678z"/>
	<path d="M25.158,32.255c-0.325-0.272-0.81-0.228-1.081,0.097l-1.38,1.655c-0.272,0.326-0.228,0.81,0.098,1.082
		c0.143,0.12,0.318,0.178,0.491,0.178c0.22,0,0.438-0.094,0.59-0.276l1.38-1.655C25.528,33.011,25.484,32.527,25.158,32.255z"/>
	<path d="M29.081,32.256c-0.325-0.271-0.81-0.231-1.082,0.096l-3.678,4.386c-0.273,0.324-0.23,0.809,0.095,1.082
		c0.144,0.12,0.319,0.179,0.493,0.179c0.219,0,0.437-0.093,0.589-0.275l3.678-4.386C29.448,33.014,29.406,32.529,29.081,32.256z"/>
	<path d="M28.577,36.739l-1.442,1.728c-0.272,0.325-0.228,0.81,0.097,1.082c0.144,0.12,0.318,0.178,0.492,0.178
		c0.22,0,0.438-0.094,0.59-0.276l1.442-1.728c0.272-0.325,0.228-0.81-0.097-1.082C29.333,36.369,28.848,36.413,28.577,36.739z"/>
	<path d="M33.321,32.255c-0.325-0.272-0.81-0.228-1.082,0.097l-2.259,2.706c-0.272,0.325-0.228,0.81,0.097,1.082
		c0.143,0.12,0.318,0.178,0.492,0.178c0.22,0,0.438-0.094,0.59-0.276l2.259-2.706C33.69,33.012,33.647,32.527,33.321,32.255z"/>
	<path d="M36.192,32.352l-3.678,4.386c-0.273,0.324-0.23,0.809,0.095,1.082c0.144,0.12,0.319,0.179,0.493,0.179
		c0.219,0,0.437-0.093,0.589-0.275l3.678-4.386c0.273-0.324,0.23-0.809-0.095-1.082C36.949,31.985,36.464,32.026,36.192,32.352z"/>
</g>
</svg>
