<?xml version="1.0" encoding="utf-8"?>
<!-- Generator: Adobe Illustrator 24.0.1, SVG Export Plug-In . SVG Version: 6.00 Build 0)  -->
<svg version="1.1" id="Layer_1" xmlns="http://www.w3.org/2000/svg" xmlns:xlink="http://www.w3.org/1999/xlink" x="0px" y="0px"
	 viewBox="0 0 50.5 50.5" style="enable-background:new 0 0 50.5 50.5;" xml:space="preserve">
<g>
	<path d="M40.179,24.265c0.052-0.353,0.078-0.703,0.078-1.059c0-4.08-3.319-7.4-7.4-7.4c-0.975,0-1.906,0.192-2.779,0.552
		c-1.862-2.471-4.75-3.941-7.874-3.941c-4.851,0-8.984,3.589-9.743,8.303c-0.01,0-0.018-0.003-0.029-0.003
		c-2.286,0-4.146,1.855-4.146,4.136c0,0.114,0.004,0.226,0.014,0.337c-1.234,0.741-2.003,2.072-2.003,3.539
		c0,2.122,1.608,3.857,3.667,4.098c0.883,3.159,3.786,5.395,7.122,5.395c0.198,0,0.39-0.006,0.581-0.02
		c0.057,0.013,0.115,0.02,0.176,0.02h18.518c0.034,0,0.068-0.002,0.101-0.007c0.101,0.006,0.202,0.007,0.303,0.007
		c4.08,0,7.4-3.32,7.4-7.4C44.163,28.039,42.619,25.529,40.179,24.265z M22.204,13.953c2.557,0,4.937,1.155,6.513,3.126
		c-0.023,0.016-0.043,0.034-0.066,0.05c-0.069,0.048-0.133,0.102-0.2,0.153c-0.185,0.138-0.364,0.283-0.536,0.439
		c-0.079,0.072-0.156,0.146-0.232,0.221c-0.157,0.155-0.306,0.317-0.448,0.486c-0.063,0.074-0.128,0.146-0.188,0.223
		c-0.193,0.247-0.375,0.502-0.536,0.773c-0.542-0.124-1.096-0.187-1.655-0.187c-0.357,0-0.709,0.029-1.055,0.078
		c-0.115,0.016-0.224,0.046-0.337,0.068c-0.229,0.044-0.456,0.089-0.678,0.154c-0.129,0.038-0.253,0.086-0.38,0.13
		c-0.198,0.069-0.394,0.141-0.584,0.226c-0.129,0.058-0.252,0.123-0.377,0.188c-0.178,0.093-0.353,0.191-0.523,0.298
		c-0.121,0.076-0.238,0.155-0.354,0.238c-0.163,0.117-0.32,0.24-0.473,0.37c-0.108,0.091-0.215,0.183-0.317,0.28
		c-0.149,0.142-0.288,0.293-0.425,0.447c-0.091,0.102-0.184,0.202-0.269,0.309c-0.137,0.174-0.261,0.359-0.383,0.546
		c-0.068,0.104-0.141,0.202-0.204,0.309c-0.015,0.025-0.033,0.046-0.047,0.071c-0.023-0.013-0.048-0.021-0.072-0.033
		c-0.115-0.06-0.232-0.115-0.352-0.163c-0.032-0.013-0.065-0.024-0.098-0.036c-0.122-0.045-0.246-0.086-0.373-0.119
		c-0.033-0.009-0.066-0.016-0.099-0.024c-0.126-0.03-0.254-0.054-0.383-0.072c-0.038-0.005-0.077-0.01-0.115-0.014
		c-0.12-0.013-0.24-0.02-0.362-0.022c-0.03-0.001-0.06-0.006-0.091-0.006c-0.018,0-0.037,0.004-0.055,0.005
		c-0.202,0.003-0.405,0.017-0.61,0.051c-0.133-0.195-0.287-0.373-0.45-0.542c-0.054-0.056-0.114-0.106-0.171-0.159
		c-0.118-0.108-0.24-0.209-0.37-0.303c-0.07-0.051-0.14-0.1-0.214-0.147c-0.141-0.089-0.289-0.167-0.441-0.239
		c-0.064-0.03-0.124-0.065-0.189-0.092c-0.014-0.006-0.027-0.015-0.041-0.02C14.583,17.007,18.09,13.953,22.204,13.953z
		 M10.706,31.331c-0.015-0.003-0.032,0.003-0.047,0.002c-0.015,0-0.024-0.004-0.042-0.002c-0.015-0.001-0.029,0.005-0.044,0.005
		c-0.043,0.001-0.082-0.008-0.13,0.004c-1.44,0-2.61-1.171-2.61-2.611c0-1.052,0.632-1.993,1.61-2.399
		c0.352-0.145,0.543-0.527,0.45-0.896c-0.048-0.191-0.07-0.376-0.07-0.58c0-1.433,1.171-2.6,2.61-2.6
		c0.197,0,0.364,0.017,0.536,0.056c0.592,0.125,1.117,0.451,1.483,0.909c0.122,0.153,0.227,0.32,0.31,0.498
		c0.163,0.349,0.557,0.523,0.925,0.409c0.521-0.163,1.028-0.158,1.49-0.033c0.391,0.107,0.755,0.299,1.069,0.59
		c0.314,0.266,0.559,0.624,0.709,1.035c0.136,0.37,0.526,0.58,0.908,0.481c0.183-0.046,0.387-0.07,0.59-0.07
		c1.44,0,2.61,1.166,2.61,2.6c0,0.817-0.367,1.565-1.023,2.068c-0.43,0.35-0.994,0.543-1.588,0.543
		c-0.085,0-0.173,0.003-0.267-0.012c-0.036-0.006-0.071-0.008-0.106-0.008c-0.057,0-0.114,0.007-0.169,0.02h-9.134
		C10.753,31.336,10.73,31.333,10.706,31.331z M36.763,36.686c-0.095,0.002-0.192,0.003-0.288-0.012
		c-0.036-0.006-0.071-0.007-0.106-0.007c-0.057,0-0.114,0.007-0.169,0.02H18.09c-0.109-0.037-0.227-0.051-0.343-0.036
		c-0.218,0.027-0.435,0.036-0.662,0.036c-2.478,0-4.656-1.555-5.495-3.811h8.479c0.034,0,0.067-0.002,0.1-0.007
		c0.096,0.006,0.19,0.007,0.284,0.007c0.092,0,0.182-0.017,0.273-0.023c0.109-0.007,0.219-0.012,0.326-0.027
		c0.138-0.02,0.271-0.053,0.404-0.085c0.103-0.025,0.207-0.045,0.307-0.078c0.134-0.044,0.26-0.103,0.387-0.161
		c0.087-0.04,0.179-0.071,0.263-0.116c0.205-0.111,0.4-0.238,0.579-0.384c1.021-0.782,1.607-1.974,1.607-3.273
		c0-2.088-1.579-3.818-3.587-4.096c-0.287-0.04-0.581-0.05-0.881-0.027c-0.127-0.231-0.278-0.442-0.442-0.637
		c-0.006-0.007-0.01-0.015-0.015-0.022c0.032-0.063,0.061-0.129,0.095-0.191c0.06-0.108,0.125-0.213,0.191-0.316
		c0.085-0.132,0.175-0.26,0.27-0.384c0.074-0.097,0.15-0.191,0.229-0.283c0.102-0.117,0.21-0.229,0.321-0.337
		c0.086-0.084,0.171-0.167,0.261-0.245c0.118-0.102,0.243-0.196,0.369-0.288c0.095-0.069,0.189-0.14,0.288-0.204
		c0.134-0.086,0.274-0.161,0.414-0.235c0.101-0.054,0.201-0.111,0.306-0.159c0.151-0.069,0.308-0.124,0.464-0.18
		c0.103-0.037,0.203-0.08,0.309-0.111c0.177-0.052,0.36-0.087,0.542-0.123c0.092-0.018,0.181-0.044,0.274-0.057
		c0.278-0.04,0.562-0.063,0.85-0.063c0.614,0,1.222,0.096,1.806,0.284c0.365,0.12,0.762-0.052,0.928-0.398
		c0.549-1.144,1.47-2.09,2.596-2.667c0.823-0.43,1.721-0.648,2.67-0.648c3.233,0,5.864,2.631,5.864,5.864
		c0,0.444-0.051,0.878-0.156,1.328c-0.086,0.366,0.106,0.74,0.453,0.884c2.193,0.911,3.61,3.033,3.61,5.405
		C42.628,34.055,39.997,36.686,36.763,36.686z"/>
	<path d="M18.658,17.901c0.351,0.169,0.731,0.253,1.119,0.253c0.355,0,0.717-0.071,1.07-0.213c0.802-0.322,1.451-0.969,1.738-1.733
		c0.15-0.397-0.051-0.84-0.448-0.989c-0.397-0.149-0.84,0.051-0.989,0.448c-0.137,0.362-0.471,0.687-0.873,0.848
		c-0.237,0.095-0.594,0.172-0.952,0c-0.381-0.184-0.841-0.022-1.024,0.36C18.114,17.26,18.276,17.718,18.658,17.901z"/>
	<path d="M16.721,20.255c0.025,0,0.065-0.001,0.091-0.004c0.407-0.041,0.705-0.393,0.684-0.803
		c-0.021-0.409-0.364-0.729-0.773-0.729c0,0,0,0-0.001,0c-0.424,0-0.768,0.344-0.768,0.768
		C15.953,19.911,16.296,20.255,16.721,20.255z"/>
</g>
</svg>
