<?xml version="1.0" encoding="utf-8"?>
<!-- Generator: Adobe Illustrator 24.0.1, SVG Export Plug-In . SVG Version: 6.00 Build 0)  -->
<svg version="1.1" id="Layer_1" xmlns="http://www.w3.org/2000/svg" xmlns:xlink="http://www.w3.org/1999/xlink" x="0px" y="0px"
	 viewBox="0 0 50.5 50.5" style="enable-background:new 0 0 50.5 50.5;" xml:space="preserve">
<g>
	<path d="M41.122,23.41c0.057-0.367,0.085-0.738,0.085-1.121c0-4.234-3.444-7.679-7.679-7.679c-2.715,0-5.235,1.462-6.592,3.775
		c-0.561-0.132-1.141-0.198-1.733-0.198c-2.756,0-5.282,1.501-6.628,3.832c-0.927-0.815-2.199-1.216-3.512-0.998
		c-0.784-1.155-2.111-1.874-3.534-1.874c-2.355,0-4.271,1.916-4.271,4.271c0,0.125,0.005,0.247,0.016,0.369
		c-1.283,0.76-2.084,2.14-2.084,3.662c0,2.398,1.998,4.362,4.384,4.275c0.711,3.561,3.833,6.168,7.525,6.168
		c0.21,0,0.414-0.006,0.613-0.021c0.058,0.014,0.117,0.021,0.179,0.021h19.287c0.035,0,0.071-0.003,0.105-0.007
		c0.106,0.007,0.214,0.007,0.317,0.007c4.228,0,7.668-3.44,7.668-7.669C45.269,27.332,43.661,24.723,41.122,23.41z M9.809,30.194
		c-0.076-0.012-0.155-0.015-0.231-0.003c-0.02,0.003-0.041,0.003-0.061,0.003c-1.502,0.004-2.79-1.213-2.79-2.745
		c0-1.106,0.663-2.095,1.688-2.519c0.349-0.144,0.541-0.521,0.453-0.889c-0.049-0.206-0.074-0.41-0.074-0.623
		c0-1.508,1.227-2.735,2.735-2.735c1.047,0,2.013,0.608,2.461,1.547c0.165,0.345,0.557,0.516,0.922,0.402
		c1.26-0.396,2.562,0.133,3.194,1.196c0.11,0.174,0.18,0.315,0.227,0.456c0.094,0.284,0.34,0.478,0.621,0.518
		c0.093,0.013,0.191,0.009,0.287-0.014c0.204-0.049,0.417-0.074,0.633-0.074c1.514,0,2.746,1.227,2.746,2.736
		c0,1.513-1.232,2.745-2.746,2.745c-0.097,0-0.188,0.002-0.286-0.012c-0.091-0.015-0.185-0.009-0.274,0.012h-9.083H9.809z
		 M37.601,36.356c-0.099,0.001-0.204,0.002-0.302-0.012c-0.037-0.006-0.073-0.008-0.109-0.008c-0.058,0-0.116,0.007-0.173,0.021
		H18.143c-0.111-0.038-0.228-0.051-0.347-0.037c-0.222,0.028-0.454,0.037-0.695,0.037c-2.847,0-5.27-1.937-5.952-4.627h8.326
		c0.034,0,0.068-0.002,0.101-0.007c0.099,0.006,0.197,0.007,0.3,0.007c2.361,0,4.281-1.92,4.281-4.281
		c0-2.355-1.92-4.271-4.281-4.271c-0.061,0-0.123,0.001-0.184,0.004c1.004-2.089,3.154-3.458,5.512-3.458
		c0.652,0,1.283,0.1,1.878,0.299c0.367,0.12,0.77-0.049,0.936-0.399c1.003-2.111,3.166-3.476,5.51-3.476
		c3.387,0,6.143,2.756,6.143,6.143c0,0.476-0.055,0.925-0.167,1.375c-0.092,0.368,0.099,0.749,0.449,0.895
		c2.296,0.959,3.78,3.182,3.78,5.663C43.734,33.604,40.982,36.356,37.601,36.356z"/>
</g>
</svg>
