<?xml version="1.0" encoding="utf-8"?>
<!-- Generator: Adobe Illustrator 24.0.1, SVG Export Plug-In . SVG Version: 6.00 Build 0)  -->
<svg version="1.1" id="Capa_1" xmlns="http://www.w3.org/2000/svg" xmlns:xlink="http://www.w3.org/1999/xlink" x="0px" y="0px"
	 viewBox="0 0 50.5 50.5" style="enable-background:new 0 0 50.5 50.5;" xml:space="preserve">
<g>
	<path d="M14.255,35.39L14.255,35.39c-0.442,0-0.8,0.358-0.8,0.8v1.354c0,0.442,0.358,0.8,0.8,0.8l0,0c0.441,0,0.8-0.358,0.799-0.8
		V36.19C15.055,35.747,14.697,35.39,14.255,35.39z"/>
	<path d="M14.255,34.579c0.442,0,0.8-0.358,0.8-0.8v-2.121c0-0.441-0.358-0.8-0.8-0.8s-0.8,0.358-0.8,0.8v2.121
		C13.456,34.221,13.813,34.579,14.255,34.579z"/>
	<path d="M14.255,39.154c-0.442,0-0.8,0.358-0.8,0.8v2.121c0,0.441,0.358,0.8,0.8,0.8s0.8-0.358,0.8-0.8v-2.121
		C15.055,39.513,14.697,39.154,14.255,39.154z"/>
	<path d="M19.001,31.076c-0.002,0-0.004,0-0.006,0c-0.439,0-0.796,0.354-0.8,0.793l-0.024,2.956
		c-0.004,0.442,0.352,0.804,0.793,0.807c0.002,0,0.004,0,0.006,0c0.439,0,0.796-0.354,0.8-0.793l0.024-2.956
		C19.798,31.44,19.443,31.079,19.001,31.076z"/>
	<path d="M19.006,36.639c-0.459-0.034-0.806,0.347-0.812,0.788l-0.024,1.659c-0.006,0.442,0.347,0.806,0.788,0.812
		c0.004,0,0.008,0,0.012,0c0.436,0,0.793-0.351,0.799-0.788l0.024-1.659C19.801,37.008,19.448,36.645,19.006,36.639z"/>
	<path d="M23.721,33.505c0,0-0.001,0-0.002,0c-0.442,0.001-0.799,0.36-0.798,0.802l0.006,2.557c0.001,0.441,0.359,0.798,0.8,0.798
		c0,0,0.001,0,0.002,0c0.442-0.001,0.799-0.36,0.798-0.802l-0.006-2.557C24.52,33.861,24.162,33.505,23.721,33.505z"/>
	<path d="M23.718,32.897c0,0,0.001,0,0.002,0c0.442-0.001,0.799-0.36,0.798-0.802l-0.003-1.115c-0.001-0.441-0.359-0.798-0.8-0.798
		c0,0-0.001,0-0.002,0c-0.442,0.001-0.799,0.36-0.798,0.802l0.003,1.115C22.919,32.541,23.277,32.897,23.718,32.897z"/>
	<path d="M23.709,38.269c0,0-0.001,0-0.002,0c-0.442,0.001-0.799,0.36-0.798,0.802l0.003,1.115c0.001,0.441,0.359,0.798,0.8,0.798
		c0,0,0.001,0,0.002,0c0.442-0.001,0.799-0.36,0.798-0.802l-0.003-1.115C24.508,38.625,24.15,38.269,23.709,38.269z"/>
	<path d="M28.469,31.56c-0.002,0-0.005,0-0.007,0c-0.438,0-0.796,0.354-0.8,0.793l-0.02,2.241c-0.004,0.441,0.351,0.803,0.793,0.807
		c0.002,0,0.005,0,0.007,0c0.438,0,0.796-0.354,0.8-0.793l0.02-2.241C29.266,31.925,28.911,31.563,28.469,31.56z"/>
	<path d="M28.465,36.467c-0.001,0-0.002,0-0.003,0c-0.44,0-0.798,0.355-0.8,0.797l-0.02,4.596c-0.002,0.441,0.354,0.801,0.797,0.803
		c0.001,0,0.002,0,0.003,0c0.44,0,0.798-0.355,0.8-0.797l0.02-4.596C29.264,36.828,28.907,36.469,28.465,36.467z"/>
	<path d="M33.177,35.39c-0.441,0-0.8,0.358-0.8,0.8v1.354c0,0.441,0.358,0.8,0.8,0.8s0.8-0.358,0.8-0.8V36.19
		C33.977,35.748,33.618,35.39,33.177,35.39z"/>
	<path d="M33.177,30.858c-0.441,0-0.8,0.358-0.8,0.8v2.121c0,0.441,0.358,0.8,0.8,0.8s0.8-0.358,0.8-0.8v-2.121
		C33.977,31.217,33.618,30.858,33.177,30.858z"/>
	<path d="M33.177,39.154c-0.441,0-0.8,0.358-0.8,0.8v2.121c0,0.441,0.358,0.8,0.8,0.8s0.8-0.358,0.8-0.8v-2.121
		C33.977,39.513,33.618,39.154,33.177,39.154z"/>
	<path d="M37.923,31.076c-0.003,0-0.005,0-0.007,0c-0.438,0-0.796,0.354-0.8,0.793l-0.024,2.956
		c-0.004,0.442,0.352,0.803,0.793,0.807c0.003,0,0.005,0,0.007,0c0.438,0,0.796-0.354,0.8-0.793l0.024-2.956
		C38.72,31.44,38.364,31.08,37.923,31.076z"/>
	<path d="M37.92,36.639c-0.001,0-0.003,0-0.004,0c-0.44,0-0.798,0.355-0.8,0.796l-0.024,4.906c-0.002,0.441,0.354,0.802,0.796,0.804
		c0.001,0,0.003,0,0.004,0c0.44,0,0.798-0.355,0.8-0.796l0.024-4.906C38.718,37.001,38.362,36.641,37.92,36.639z"/>
	<path d="M39.214,15.683c0.048-0.338,0.071-0.675,0.071-1.018c0-4.053-3.297-7.35-7.35-7.35c-2.571,0-4.97,1.379-6.283,3.564
		c-0.526-0.116-1.064-0.174-1.607-0.174c-2.246,0-4.368,1.045-5.745,2.778c-0.952-1.35-2.657-2.107-4.33-1.841
		c-0.811-1.188-2.179-1.926-3.645-1.926c-2.438,0-4.42,1.978-4.42,4.41c0,0.129,0.005,0.253,0.015,0.374
		c-1.321,0.794-2.145,2.22-2.145,3.786c0,2.437,1.982,4.419,4.419,4.419c0.051,0,0.102,0,0.155-0.002
		c0.021,0.002,0.043,0.002,0.065,0.002h0.637c0.269,3.805,3.446,6.82,7.323,6.82c0.189,0,0.379-0.005,0.565-0.019
		c0.056,0.012,0.115,0.019,0.175,0.019h18.28c0.034,0,0.068-0.002,0.102-0.007c0.101,0.006,0.201,0.007,0.299,0.007
		c4.053,0,7.35-3.292,7.35-7.339C43.146,19.428,41.622,16.941,39.214,15.683z M8.319,21.101c-0.044,0.005-0.083,0.003-0.124,0.004
		c-1.555,0-2.82-1.265-2.82-2.82c0-1.137,0.683-2.159,1.74-2.603c0.369-0.155,0.567-0.56,0.462-0.947
		c-0.048-0.18-0.072-0.379-0.072-0.611c0-1.549,1.265-2.81,2.82-2.81c1.074,0,2.067,0.623,2.529,1.585
		c0.172,0.359,0.583,0.537,0.961,0.417c0.281-0.088,0.574-0.133,0.87-0.133c1.185,0,2.249,0.744,2.647,1.852
		c0.132,0.368,0.508,0.587,0.896,0.516l0.125-0.025c0.044-0.01,0.089-0.021,0.22-0.036c0.113-0.021,0.232-0.026,0.352-0.026
		c1.555,0,2.82,1.265,2.82,2.82s-1.265,2.82-2.82,2.82c-0.117,0-0.227-0.009-0.351-0.018c-0.075-0.006-0.152,0-0.224,0.018H9.835
		H8.54C8.468,21.093,8.394,21.093,8.319,21.101z M35.796,27.925c-0.091,0.001-0.19,0.004-0.281-0.011
		c-0.037-0.006-0.073-0.008-0.11-0.008c-0.057,0-0.113,0.006-0.168,0.019H17.366c-0.111-0.036-0.23-0.047-0.35-0.034
		c-0.208,0.026-0.424,0.034-0.64,0.034c-2.995,0-5.462-2.298-5.727-5.22h7.867c0.042,0,0.082-0.003,0.122-0.01
		c0.095,0.006,0.189,0.01,0.288,0.01c2.438,0,4.42-1.982,4.42-4.419c0-0.285-0.032-0.561-0.084-0.831
		c-0.017-0.088-0.045-0.17-0.067-0.256c-0.046-0.179-0.096-0.354-0.163-0.524c-0.037-0.095-0.081-0.185-0.125-0.276
		c-0.073-0.152-0.151-0.299-0.24-0.442c-0.054-0.087-0.11-0.172-0.17-0.255c-0.1-0.137-0.208-0.266-0.322-0.39
		c-0.065-0.071-0.128-0.144-0.197-0.211c-0.138-0.132-0.288-0.251-0.442-0.365c-0.059-0.043-0.112-0.093-0.173-0.133
		c-0.221-0.147-0.455-0.276-0.702-0.382c-0.041-0.018-0.086-0.027-0.128-0.043c-0.179-0.07-0.359-0.139-0.549-0.185
		c1.48-1.481,3.811-2.059,5.831-1.415c0.378,0.121,0.791-0.056,0.963-0.416c0.95-1.973,2.975-3.248,5.159-3.248
		c3.171,0,5.75,2.58,5.75,5.75c0,0.438-0.049,0.863-0.149,1.301c-0.088,0.38,0.112,0.769,0.473,0.918
		c2.148,0.892,3.537,2.973,3.537,5.301C41.546,25.35,38.967,27.925,35.796,27.925z"/>
</g>
</svg>
