<?xml version="1.0" encoding="utf-8"?>
<!-- Generator: Adobe Illustrator 24.0.1, SVG Export Plug-In . SVG Version: 6.00 Build 0)  -->
<svg version="1.1" id="Layer_1" xmlns="http://www.w3.org/2000/svg" xmlns:xlink="http://www.w3.org/1999/xlink" x="0px" y="0px"
	 viewBox="0 0 50.5 50.5" style="enable-background:new 0 0 50.5 50.5;" xml:space="preserve">
<g>
	<path d="M39.99,24.658c0.051-0.346,0.076-0.69,0.076-1.041c0-4.035-3.283-7.318-7.318-7.318c-1.873,0-3.653,0.717-5.005,1.99
		c-1.675-1.622-3.919-2.543-6.284-2.543c-4.978,0-9.027,4.05-9.027,9.027c0,0.241,0.016,0.508,0.039,0.794
		c-1.642,1.369-2.618,3.415-2.618,5.572c0,4.035,3.283,7.318,7.317,7.318c0.195,0,0.385-0.006,0.573-0.02
		c0.056,0.013,0.115,0.02,0.175,0.02h18.289c0.034,0,0.068-0.002,0.101-0.007c0.1,0.006,0.199,0.007,0.299,0.007
		c4.035,0,7.318-3.283,7.318-7.318C43.925,28.389,42.4,25.909,39.99,24.658z M21.459,17.281c1.994,0,3.887,0.784,5.284,2.169
		c-0.094,0.137-0.183,0.276-0.268,0.419c-0.534-0.122-1.08-0.183-1.629-0.183c-2.854,0-5.437,1.667-6.621,4.212
		c-0.315-0.047-0.634-0.063-0.953-0.067c-0.089-0.001-0.177-0.001-0.265,0.001c-0.306,0.008-0.612,0.028-0.915,0.074
		c-0.074,0.011-0.145,0.031-0.218,0.044c-0.233,0.043-0.465,0.097-0.693,0.162c-0.117,0.033-0.232,0.067-0.347,0.106
		c-0.273,0.093-0.543,0.198-0.804,0.323c-0.019,0.009-0.04,0.015-0.06,0.024C14.081,20.53,17.398,17.281,21.459,17.281z
		 M36.607,36.922c-0.093,0-0.188,0.003-0.282-0.012c-0.036-0.005-0.072-0.007-0.108-0.007c-0.057,0-0.114,0.007-0.169,0.02H18.167
		c-0.11-0.037-0.226-0.048-0.345-0.036c-0.214,0.027-0.428,0.036-0.652,0.036c-3.188,0-5.782-2.594-5.782-5.782
		c0-1.822,0.874-3.548,2.347-4.628c0.998-0.756,2.186-1.155,3.435-1.155c0.46,0,0.911,0.054,1.339,0.161
		c0.38,0.097,0.776-0.114,0.909-0.486c0.815-2.279,2.996-3.81,5.428-3.81c0.604,0,1.203,0.095,1.781,0.281
		c0.365,0.117,0.762-0.053,0.928-0.399c0.206-0.429,0.468-0.838,0.778-1.213c1.102-1.307,2.711-2.056,4.414-2.056
		c3.189,0,5.782,2.594,5.782,5.783c0,0.439-0.051,0.867-0.154,1.309c-0.086,0.366,0.106,0.74,0.453,0.884
		c2.162,0.899,3.56,2.99,3.56,5.329C42.389,34.327,39.795,36.922,36.607,36.922z"/>
	<path d="M21.217,13.93c0.424,0,0.768-0.344,0.768-0.768v-3.018c0-0.424-0.344-0.768-0.768-0.768c-0.424,0-0.768,0.344-0.768,0.768
		v3.018C20.45,13.587,20.793,13.93,21.217,13.93z"/>
	<path d="M25.932,14.909c0.123,0.073,0.258,0.108,0.391,0.108c0.262,0,0.518-0.134,0.662-0.376l1.541-2.595
		c0.217-0.365,0.096-0.836-0.268-1.053c-0.367-0.217-0.836-0.096-1.053,0.268l-1.541,2.595
		C25.447,14.221,25.567,14.693,25.932,14.909z"/>
	<path d="M15.25,14.852c0.144,0.241,0.399,0.376,0.662,0.376c0.133,0,0.268-0.035,0.391-0.108c0.365-0.217,0.485-0.688,0.268-1.053
		l-1.541-2.595c-0.217-0.364-0.687-0.484-1.053-0.268c-0.365,0.217-0.485,0.688-0.268,1.053L15.25,14.852z"/>
	<path d="M8.675,17.748l2.672,1.404c0.114,0.06,0.236,0.089,0.357,0.089c0.276,0,0.543-0.15,0.68-0.411
		c0.197-0.375,0.053-0.84-0.323-1.037l-2.671-1.404c-0.374-0.196-0.839-0.053-1.037,0.322C8.155,17.087,8.299,17.551,8.675,17.748z"
		/>
	<path d="M11.089,23.098c-0.001-0.424-0.345-0.766-0.768-0.766c0,0-0.001,0-0.002,0l-3.018,0.008
		c-0.424,0.001-0.767,0.345-0.766,0.77c0.001,0.424,0.345,0.766,0.768,0.766c0.001,0,0.001,0,0.002,0l3.018-0.007
		C10.747,23.866,11.09,23.522,11.089,23.098z"/>
</g>
</svg>
