<?xml version="1.0" encoding="utf-8"?>
<!-- Generator: Adobe Illustrator 24.0.1, SVG Export Plug-In . SVG Version: 6.00 Build 0)  -->
<svg version="1.1" id="Capa_1" xmlns="http://www.w3.org/2000/svg" xmlns:xlink="http://www.w3.org/1999/xlink" x="0px" y="0px"
	 viewBox="0 0 50.5 50.5" style="enable-background:new 0 0 50.5 50.5;" xml:space="preserve">
<g>
	<path d="M25.489,30.623H22.23c-0.442,0-0.8,0.358-0.8,0.8s0.358,0.8,0.8,0.8h3.259c0.442,0,0.8-0.358,0.8-0.8
		S25.931,30.623,25.489,30.623z"/>
	<path d="M19.483,30.623l-5.104,0.001c-0.442,0-0.8,0.358-0.8,0.8s0.358,0.8,0.8,0.8l5.104-0.001c0.442,0,0.8-0.358,0.8-0.8
		C20.283,30.98,19.925,30.623,19.483,30.623z"/>
	<path d="M14.906,25.909c0,0-0.001,0-0.002,0c-0.44,0-0.798,0.356-0.8,0.797c-0.001,0.442,0.355,0.802,0.797,0.803l7.112,0.023
		c0,0,0.001,0,0.002,0c0.44,0,0.798-0.356,0.8-0.797c0.001-0.442-0.355-0.801-0.797-0.803L14.906,25.909z"/>
	<path d="M25.179,27.532c0.442,0,0.8-0.358,0.8-0.8v-0.023c0-0.441-0.358-0.788-0.8-0.788s-0.8,0.37-0.8,0.812
		S24.737,27.532,25.179,27.532z"/>
	<path d="M25.291,22.019c0-0.441-0.358-0.799-0.8-0.799c0,0,0,0-0.001,0l-6.148,0.006c-0.441,0-0.799,0.359-0.799,0.801
		c0,0.441,0.358,0.799,0.8,0.799c0,0,0,0,0.001,0l6.148-0.006C24.933,22.82,25.291,22.461,25.291,22.019z"/>
	<path d="M16.238,22.028c0-0.441-0.358-0.799-0.8-0.799c0,0,0,0-0.001,0l-2.684,0.003c-0.442,0-0.799,0.359-0.799,0.801
		c0,0.441,0.358,0.799,0.8,0.799c0,0,0,0,0.001,0l2.684-0.003C15.881,22.828,16.239,22.47,16.238,22.028z"/>
	<path d="M39.131,21.226L39.131,21.226l-6.149,0.006c-0.441,0-0.8,0.359-0.799,0.801c0,0.441,0.358,0.799,0.8,0.799h0.001
		l6.148-0.006c0.441,0,0.8-0.359,0.799-0.801C39.931,21.583,39.572,21.226,39.131,21.226z"/>
	<path d="M30.878,22.034c0-0.441-0.358-0.799-0.8-0.799h-0.001l-2.684,0.003c-0.441,0-0.8,0.359-0.799,0.801
		c0,0.441,0.358,0.799,0.8,0.799h0.001l2.684-0.003C30.521,22.834,30.879,22.476,30.878,22.034z"/>
	<path d="M16.063,18.154l5.392,0.019c0.001,0,0.002,0,0.003,0c0.44,0,0.798-0.356,0.8-0.797c0.002-0.442-0.355-0.801-0.797-0.803
		l-5.392-0.019c-0.001,0-0.002,0-0.003,0c-0.44,0-0.798,0.356-0.8,0.797C15.265,17.793,15.622,18.152,16.063,18.154z"/>
	<path d="M24.765,18.154l11.054,0.019h0.001c0.441,0,0.799-0.357,0.8-0.798c0.001-0.442-0.356-0.801-0.799-0.801l-11.053-0.019
		h-0.001c-0.441,0-0.799,0.357-0.8,0.798C23.965,17.794,24.323,18.153,24.765,18.154z"/>
	<path d="M38.471,24.793h-9.255c-0.29,0-0.557,0.157-0.698,0.41s-0.135,0.563,0.017,0.81l4.627,7.514
		c0.146,0.236,0.404,0.38,0.682,0.38s0.535-0.144,0.682-0.38l4.628-7.514c0.151-0.247,0.158-0.557,0.017-0.81
		S38.761,24.793,38.471,24.793z M33.843,31.581l-3.194-5.188h6.39L33.843,31.581z"/>
</g>
</svg>
