<?xml version="1.0" encoding="utf-8"?>
<!-- Generator: Adobe Illustrator 24.0.1, SVG Export Plug-In . SVG Version: 6.00 Build 0)  -->
<svg version="1.1" id="Layer_1" xmlns="http://www.w3.org/2000/svg" xmlns:xlink="http://www.w3.org/1999/xlink" x="0px" y="0px"
	 viewBox="0 0 50.5 50.5" style="enable-background:new 0 0 50.5 50.5;" xml:space="preserve">
<g>
	<path d="M25.413,31.215h-3.128c-0.424,0-0.768,0.344-0.768,0.768c0,0.424,0.344,0.768,0.768,0.768h3.128
		c0.424,0,0.768-0.344,0.768-0.768C26.181,31.559,25.838,31.215,25.413,31.215z"/>
	<path d="M19.029,31.215l-4.9,0.001c-0.424,0-0.768,0.344-0.768,0.768c0,0.425,0.344,0.768,0.768,0.768l4.9-0.001
		c0.424,0,0.768-0.344,0.768-0.768C19.797,31.558,19.453,31.215,19.029,31.215z"/>
	<path d="M33.569,31.215l-4.9,0.001c-0.424,0-0.768,0.344-0.768,0.768c0,0.425,0.344,0.768,0.768,0.768l4.9-0.001
		c0.424,0,0.768-0.344,0.768-0.768C34.337,31.558,33.993,31.215,33.569,31.215z"/>
	<path d="M22.228,27.483c0.001-0.425-0.341-0.77-0.766-0.771l-6.828-0.023c0,0-0.001,0-0.002,0c-0.423,0-0.766,0.342-0.768,0.765
		c-0.001,0.425,0.341,0.77,0.765,0.771l6.828,0.022c0.001,0,0.001,0,0.002,0C21.883,28.248,22.227,27.906,22.228,27.483z"/>
	<path d="M35.829,26.712L24.498,26.69c0,0-0.001,0-0.001,0c-0.423,0-0.767,0.342-0.768,0.766c-0.001,0.425,0.342,0.769,0.766,0.77
		l11.331,0.022c0.001,0,0.001,0,0.001,0c0.423,0,0.767-0.342,0.768-0.766C36.596,27.057,36.253,26.713,35.829,26.712z"/>
	<path d="M23.835,22.188l-5.903,0.006c-0.424,0-0.767,0.345-0.767,0.769c0,0.424,0.344,0.767,0.768,0.767c0,0,0,0,0.001,0
		l5.902-0.006c0.424,0,0.767-0.345,0.767-0.769C24.604,22.531,24.26,22.188,23.835,22.188
		C23.836,22.188,23.835,22.188,23.835,22.188z"/>
	<path d="M15.914,22.964c0-0.424-0.344-0.767-0.768-0.767c0,0,0,0-0.001,0L12.569,22.2c-0.424,0-0.767,0.345-0.767,0.769
		c0,0.424,0.344,0.767,0.768,0.767c0,0,0,0,0.001,0l2.576-0.003C15.571,23.732,15.914,23.388,15.914,22.964z"/>
	<path d="M37.89,22.194C37.89,22.194,37.89,22.194,37.89,22.194L31.987,22.2c-0.424,0-0.767,0.345-0.767,0.769
		c0,0.424,0.344,0.767,0.768,0.767c0,0,0,0,0.001,0l5.903-0.006c0.424,0,0.767-0.345,0.767-0.769
		C38.658,22.537,38.314,22.194,37.89,22.194z"/>
	<path d="M29.199,22.202l-2.576,0.003c-0.424,0-0.767,0.345-0.767,0.769c0,0.424,0.344,0.767,0.768,0.767c0,0,0,0,0.001,0
		l2.576-0.003c0.424-0.001,0.767-0.345,0.767-0.769C29.967,22.545,29.624,22.202,29.199,22.202
		C29.199,22.202,29.199,22.202,29.199,22.202z"/>
	<path d="M15.746,19.245l5.176,0.018c0.001,0,0.002,0,0.003,0c0.423,0,0.766-0.342,0.768-0.765c0.002-0.424-0.341-0.769-0.765-0.771
		l-5.176-0.018c-0.001,0-0.002,0-0.003,0c-0.423,0-0.766,0.342-0.768,0.765C14.979,18.898,15.322,19.243,15.746,19.245z"/>
	<path d="M24.099,19.245l10.611,0.018c0,0,0.001,0,0.001,0c0.424,0,0.767-0.343,0.768-0.766c0.001-0.424-0.342-0.769-0.766-0.769
		l-10.611-0.018c0,0-0.001,0-0.001,0c-0.424,0-0.767,0.343-0.768,0.766C23.332,18.9,23.675,19.244,24.099,19.245z"/>
</g>
</svg>
