<?xml version="1.0" encoding="utf-8"?>
<!-- Generator: Adobe Illustrator 24.0.1, SVG Export Plug-In . SVG Version: 6.00 Build 0)  -->
<svg version="1.1" id="Layer_1" xmlns="http://www.w3.org/2000/svg" xmlns:xlink="http://www.w3.org/1999/xlink" x="0px" y="0px"
	 viewBox="0 0 50.5 50.5" style="enable-background:new 0 0 50.5 50.5;" xml:space="preserve">
<g>
	<path d="M40.388,23.65c0.035-0.266,0.053-0.53,0.053-0.799c0-3.259-2.48-5.927-5.645-6.198c-2.767-3.176-6.737-5.002-10.963-5.002
		c-8.037,0-14.575,6.542-14.575,14.584c0,8.036,6.538,14.574,14.575,14.574c4.463,0,8.566-1.987,11.341-5.442h1.92
		c0.03,0,0.059-0.002,0.088-0.005c0.082,0.004,0.163,0.005,0.245,0.005c3.439,0,6.236-2.797,6.236-6.236
		C43.661,26.818,42.395,24.729,40.388,23.65z M23.832,39.273c-7.19,0-13.039-5.849-13.039-13.039
		c0-7.195,5.849-13.048,13.039-13.048c3.373,0,6.57,1.292,8.977,3.588c-0.038,0.009-0.075,0.023-0.112,0.032
		c-0.072,0.018-0.143,0.04-0.214,0.061c-0.164,0.048-0.326,0.102-0.485,0.163c-0.073,0.028-0.145,0.055-0.217,0.086
		c-0.173,0.074-0.342,0.156-0.507,0.244c-0.046,0.025-0.094,0.046-0.139,0.071c-0.207,0.117-0.405,0.247-0.597,0.386
		c-0.048,0.035-0.093,0.075-0.141,0.112c-0.142,0.11-0.28,0.225-0.412,0.347c-0.059,0.054-0.116,0.111-0.173,0.168
		c-0.12,0.119-0.233,0.244-0.343,0.373c-0.048,0.057-0.098,0.112-0.145,0.171c-0.149,0.188-0.29,0.383-0.417,0.59
		c-0.426-0.09-0.86-0.136-1.297-0.136c-2.4,0-4.575,1.384-5.602,3.504c-0.264-0.035-0.534-0.053-0.806-0.053
		c-3.439,0-6.236,2.797-6.236,6.236c0,3.439,2.798,6.236,6.236,6.236c0.159,0,0.315-0.004,0.468-0.016
		c0.05,0.01,0.102,0.016,0.155,0.016h11.323C30.711,37.867,27.396,39.273,23.832,39.273z M37.425,33.831
		c-0.073,0.001-0.145,0.004-0.218-0.008c-0.035-0.006-0.072-0.008-0.107-0.008c-0.052,0-0.103,0.006-0.154,0.017H34.82H22.052
		c-0.105-0.034-0.217-0.043-0.326-0.029c-0.173,0.022-0.346,0.029-0.526,0.029c-2.592,0-4.701-2.108-4.701-4.701
		c0-2.591,2.109-4.7,4.701-4.7c0.374,0,0.74,0.044,1.086,0.131c0.381,0.098,0.777-0.114,0.91-0.486
		c0.663-1.852,2.436-3.097,4.412-3.097c0.491,0,0.978,0.077,1.448,0.228c0.364,0.118,0.763-0.053,0.929-0.4
		c0.769-1.613,2.425-2.655,4.219-2.655c0.042,0,0.085,0,0.127,0.004c0.023,0.001,0.041,0.002,0.072,0.004
		c2.524,0.104,4.501,2.165,4.501,4.692c0,0.356-0.041,0.704-0.125,1.064c-0.086,0.366,0.106,0.74,0.453,0.884
		c1.758,0.73,2.893,2.43,2.893,4.332C42.126,31.723,40.017,33.831,37.425,33.831z"/>
	<path d="M18.495,20.546c1.324,0,2.4-1.077,2.4-2.4c0-1.324-1.077-2.401-2.4-2.401c-1.323,0-2.4,1.077-2.4,2.401
		C16.095,19.469,17.172,20.546,18.495,20.546z M18.495,17.281c0.477,0,0.865,0.388,0.865,0.865c0,0.477-0.388,0.864-0.865,0.864
		s-0.864-0.388-0.864-0.864C17.631,17.669,18.019,17.281,18.495,17.281z"/>
	<path d="M16.06,22.134c0-0.631-0.513-1.144-1.144-1.144c-0.63,0-1.143,0.513-1.143,1.144c0,0.63,0.513,1.143,1.143,1.143
		C15.547,23.277,16.06,22.765,16.06,22.134z"/>
	<circle cx="23.121" cy="17.381" r="1.144"/>
</g>
</svg>
