<?xml version="1.0" encoding="utf-8"?>
<!-- Generator: Adobe Illustrator 24.0.1, SVG Export Plug-In . SVG Version: 6.00 Build 0)  -->
<svg version="1.1" id="Layer_1" xmlns="http://www.w3.org/2000/svg" xmlns:xlink="http://www.w3.org/1999/xlink" x="0px" y="0px"
	 viewBox="0 0 50.5 50.5" style="enable-background:new 0 0 50.5 50.5;" xml:space="preserve">
<g>
	<path d="M37.835,15.442c0.047-0.326,0.07-0.652,0.07-0.982c0-3.889-3.164-7.052-7.052-7.052c-2.478,0-4.78,1.324-6.034,3.421
		c-0.507-0.114-1.025-0.171-1.547-0.171c-2.743,0-5.225,1.598-6.371,4.038c-0.326-0.047-0.658-0.071-0.994-0.071
		c-3.889,0-7.052,3.164-7.052,7.052c0,3.889,3.164,7.052,7.052,7.052c0.186,0,0.368-0.005,0.547-0.019
		c0.054,0.012,0.111,0.019,0.169,0.019h17.547c0.033,0,0.066-0.002,0.098-0.007c0.095,0.006,0.19,0.007,0.285,0.007
		c3.889,0,7.052-3.163,7.052-7.052C41.606,19.035,40.145,16.651,37.835,15.442z M34.554,27.194c-0.088,0-0.177,0.004-0.266-0.011
		c-0.036-0.006-0.072-0.008-0.107-0.008c-0.056,0-0.112,0.007-0.165,0.019H16.867c-0.108-0.037-0.225-0.048-0.34-0.034
		c-0.204,0.026-0.408,0.034-0.62,0.034c-3.042,0-5.517-2.474-5.517-5.516c0-3.042,2.475-5.517,5.517-5.517
		c0.439,0,0.868,0.052,1.277,0.154c0.382,0.095,0.776-0.115,0.909-0.487c0.777-2.174,2.858-3.635,5.178-3.635
		c0.577,0,1.149,0.09,1.699,0.267c0.364,0.118,0.763-0.053,0.929-0.4c0.902-1.894,2.846-3.117,4.953-3.117
		c3.042,0,5.517,2.475,5.517,5.517c0,0.418-0.048,0.826-0.147,1.249c-0.086,0.366,0.106,0.74,0.453,0.884
		c2.062,0.857,3.396,2.853,3.396,5.084C40.071,24.72,37.596,27.194,34.554,27.194z"/>
	<path d="M13.874,34.527C13.874,34.527,13.874,34.527,13.874,34.527c-0.424,0-0.768,0.344-0.768,0.768l0,1.3
		c0,0.425,0.344,0.768,0.768,0.768c0,0,0,0,0.001,0c0.424,0,0.768-0.344,0.767-0.768l-0.001-1.3
		C14.642,34.87,14.298,34.527,13.874,34.527z"/>
	<path d="M13.874,33.75c0.424,0,0.768-0.344,0.768-0.768v-2.037c0-0.424-0.344-0.768-0.768-0.768c-0.424,0-0.768,0.344-0.768,0.768
		v2.037C13.106,33.406,13.45,33.75,13.874,33.75z"/>
	<path d="M13.874,38.141c-0.424,0-0.768,0.344-0.768,0.768v2.037c0,0.424,0.344,0.768,0.768,0.768c0.424,0,0.768-0.344,0.768-0.768
		v-2.037C14.642,38.485,14.298,38.141,13.874,38.141z"/>
	<path d="M18.43,30.386c-0.002,0-0.004,0-0.006,0c-0.421,0-0.765,0.339-0.768,0.761l-0.023,2.839
		c-0.004,0.425,0.337,0.772,0.762,0.774c0.002,0,0.004,0,0.006,0c0.421,0,0.765-0.339,0.768-0.761l0.023-2.839
		C19.195,30.736,18.854,30.389,18.43,30.386z"/>
	<path d="M18.435,35.727c-0.421-0.041-0.773,0.333-0.779,0.757l-0.023,1.593c-0.006,0.425,0.333,0.773,0.757,0.779
		c0.004,0,0.008,0,0.012,0c0.419,0,0.761-0.337,0.767-0.757l0.023-1.593C19.197,36.082,18.858,35.733,18.435,35.727z"/>
	<path d="M22.961,32.719c0,0-0.001,0-0.002,0c-0.424,0.001-0.767,0.346-0.766,0.77l0.006,2.453c0.001,0.424,0.345,0.766,0.768,0.766
		c0,0,0.001,0,0.002,0c0.424-0.001,0.767-0.346,0.766-0.77l-0.006-2.453C23.728,33.061,23.384,32.719,22.961,32.719z"/>
	<path d="M22.958,32.136c0,0,0.001,0,0.002,0c0.424-0.001,0.767-0.346,0.766-0.77l-0.003-1.071
		c-0.001-0.424-0.345-0.766-0.768-0.766c-0.001,0-0.001,0-0.002,0c-0.424,0.001-0.767,0.346-0.766,0.77l0.003,1.071
		C22.191,31.793,22.535,32.136,22.958,32.136z"/>
	<path d="M22.95,37.291c-0.001,0-0.001,0-0.002,0c-0.424,0.001-0.767,0.346-0.766,0.77l0.003,1.071
		c0.001,0.424,0.345,0.766,0.768,0.766c0.001,0,0.001,0,0.002,0c0.424-0.001,0.767-0.346,0.766-0.77l-0.003-1.071
		C23.717,37.633,23.373,37.291,22.95,37.291z"/>
	<path d="M27.518,30.85c-0.002,0-0.005,0-0.007,0c-0.421,0-0.765,0.339-0.768,0.761l-0.018,2.152
		c-0.004,0.424,0.337,0.771,0.761,0.774c0.002,0,0.005,0,0.007,0c0.421,0,0.765-0.339,0.768-0.761l0.018-2.152
		C28.283,31.201,27.942,30.854,27.518,30.85z"/>
	<path d="M27.515,35.562c-0.001,0-0.002,0-0.003,0c-0.423,0-0.766,0.341-0.768,0.765l-0.018,4.411
		c-0.002,0.424,0.34,0.769,0.765,0.771c0.001,0,0.002,0,0.003,0c0.423,0,0.766-0.341,0.768-0.765l0.018-4.411
		C28.281,35.909,27.939,35.564,27.515,35.562z"/>
	<path d="M32.038,34.527c-0.424,0-0.768,0.344-0.768,0.768v1.3c0,0.424,0.344,0.768,0.768,0.768c0.424,0,0.768-0.344,0.768-0.768
		v-1.3C32.806,34.871,32.462,34.527,32.038,34.527z"/>
	<path d="M32.038,30.177c-0.424,0-0.768,0.344-0.768,0.768l0,2.037c0,0.425,0.344,0.768,0.768,0.768
		c0.424,0,0.768-0.344,0.768-0.768l-0.001-2.037C32.806,30.52,32.462,30.177,32.038,30.177z"/>
	<path d="M32.038,38.141c-0.424,0-0.768,0.344-0.768,0.768l0,2.037c0,0.425,0.344,0.768,0.768,0.768
		c0.424,0,0.768-0.344,0.768-0.768l-0.001-2.037C32.806,38.484,32.462,38.141,32.038,38.141z"/>
	<path d="M36.594,30.386c-0.428,0.029-0.771,0.337-0.774,0.761l-0.023,2.839c-0.004,0.425,0.338,0.772,0.762,0.774
		c0.002,0,0.004,0,0.006,0c0.421,0,0.765-0.339,0.768-0.761l0.023-2.839C37.359,30.736,37.018,30.389,36.594,30.386z"/>
	<path d="M36.591,35.727c-0.001,0-0.002,0-0.004,0c-0.422,0-0.766,0.341-0.768,0.764l-0.023,4.71
		c-0.002,0.424,0.34,0.77,0.764,0.772c0.001,0,0.002,0,0.004,0c0.422,0,0.766-0.341,0.768-0.764l0.023-4.71
		C37.358,36.075,37.015,35.729,36.591,35.727z"/>
</g>
</svg>
