<?xml version="1.0" encoding="utf-8"?>
<!-- Generator: Adobe Illustrator 24.0.1, SVG Export Plug-In . SVG Version: 6.00 Build 0)  -->
<svg version="1.1" id="Layer_1" xmlns="http://www.w3.org/2000/svg" xmlns:xlink="http://www.w3.org/1999/xlink" x="0px" y="0px"
	 viewBox="0 0 50.5 50.5" style="enable-background:new 0 0 50.5 50.5;" xml:space="preserve">
<g>
	<path d="M37.834,15.976c0.047-0.326,0.07-0.651,0.07-0.982c0-3.889-3.164-7.052-7.052-7.052c-2.477,0-4.78,1.324-6.034,3.421
		c-0.507-0.114-1.025-0.171-1.547-0.171c-2.742,0-5.225,1.598-6.37,4.038c-0.326-0.047-0.659-0.071-0.994-0.071
		c-3.889,0-7.052,3.164-7.052,7.052s3.164,7.052,7.052,7.052c0.187,0,0.368-0.005,0.547-0.019c0.054,0.012,0.111,0.019,0.169,0.019
		h17.548c0.033,0,0.066-0.002,0.098-0.007c0.095,0.006,0.19,0.007,0.285,0.007c3.889,0,7.052-3.163,7.052-7.052
		C41.606,19.569,40.145,17.185,37.834,15.976z M34.554,27.728c-0.087,0-0.177,0.004-0.266-0.011
		c-0.036-0.006-0.072-0.008-0.108-0.008c-0.056,0-0.111,0.007-0.166,0.019H16.866c-0.108-0.037-0.225-0.048-0.34-0.034
		c-0.203,0.026-0.407,0.034-0.62,0.034c-3.042,0-5.517-2.474-5.517-5.516s2.475-5.517,5.517-5.517c0.438,0,0.868,0.052,1.277,0.154
		c0.382,0.094,0.776-0.115,0.909-0.487c0.777-2.174,2.858-3.635,5.178-3.635c0.578,0,1.149,0.09,1.699,0.267
		c0.368,0.119,0.764-0.053,0.929-0.4c0.903-1.893,2.847-3.117,4.953-3.117c3.042,0,5.517,2.475,5.517,5.517
		c0,0.42-0.048,0.828-0.147,1.248c-0.086,0.366,0.106,0.74,0.453,0.885c2.063,0.857,3.396,2.853,3.396,5.085
		C40.07,25.253,37.595,27.728,34.554,27.728z"/>
	<path d="M27.026,36.728c-0.424,0-0.768,0.344-0.768,0.768l0,2.348c0,0.425,0.344,0.768,0.768,0.768s0.768-0.344,0.768-0.768
		l-0.001-2.348C27.794,37.071,27.451,36.728,27.026,36.728z"/>
	<path d="M27.026,35.98c0.424,0,0.768-0.344,0.768-0.768v-3.678c0-0.424-0.344-0.768-0.768-0.768s-0.768,0.344-0.768,0.768v3.678
		C26.259,35.636,26.602,35.98,27.026,35.98z"/>
	<path d="M30.979,30.766c0,0-0.001,0-0.002,0c-0.423,0-0.767,0.342-0.768,0.766l-0.016,5.962c-0.001,0.424,0.342,0.769,0.766,0.77
		c0,0,0.001,0,0.002,0c0.423,0,0.767-0.342,0.768-0.766l0.015-5.962C31.747,31.112,31.404,30.767,30.979,30.766z"/>
	<path d="M34.903,35.286C34.902,35.286,34.902,35.286,34.903,35.286c-0.425,0-0.768,0.344-0.768,0.769l0.005,5.153
		c0,0.424,0.344,0.767,0.768,0.767c0,0,0,0,0.001,0c0.424,0,0.767-0.344,0.767-0.769l-0.005-5.153
		C35.671,35.629,35.327,35.286,34.903,35.286z"/>
	<path d="M34.9,34.551c0.389,0.001,0.768-0.343,0.768-0.769l-0.002-2.249c-0.001-0.424-0.344-0.767-0.768-0.767c0,0,0,0-0.001,0
		c-0.424,0-0.767,0.344-0.767,0.769l0.002,2.249C34.133,34.208,34.477,34.551,34.9,34.551z"/>
	<path d="M38.821,30.766c-0.001,0-0.001,0-0.002,0c-0.423,0-0.767,0.342-0.768,0.766l-0.015,5.962
		c-0.001,0.424,0.342,0.769,0.766,0.77c0.001,0,0.001,0,0.002,0c0.423,0,0.767-0.342,0.768-0.766l0.015-5.962
		C39.588,31.112,39.245,30.767,38.821,30.766z"/>
	<path d="M11.512,30.474c-0.669,0-1.213,0.544-1.213,1.213c0,0.669,0.544,1.213,1.213,1.213c0.669,0,1.213-0.544,1.213-1.213
		C12.724,31.018,12.181,30.474,11.512,30.474z"/>
	<path d="M11.512,35.807c-0.669,0-1.213,0.544-1.213,1.213s0.544,1.213,1.213,1.213c0.669,0,1.213-0.544,1.213-1.213
		S12.181,35.807,11.512,35.807z"/>
	<path d="M16.6,32.696c-0.669,0-1.213,0.544-1.213,1.213c0,0.668,0.544,1.212,1.213,1.212s1.213-0.544,1.213-1.212
		C17.813,33.239,17.269,32.696,16.6,32.696z"/>
	<path d="M16.6,38.029c-0.669,0-1.213,0.544-1.213,1.213c0,0.669,0.544,1.213,1.213,1.213s1.213-0.544,1.213-1.213
		C17.813,38.573,17.269,38.029,16.6,38.029z"/>
	<path d="M22.254,30.474c-0.669,0-1.213,0.544-1.213,1.213c0,0.669,0.544,1.213,1.213,1.213s1.213-0.544,1.213-1.213
		C23.467,31.018,22.923,30.474,22.254,30.474z"/>
	<path d="M22.254,35.807c-0.669,0-1.213,0.544-1.213,1.213s0.544,1.213,1.213,1.213s1.213-0.544,1.213-1.213
		S22.923,35.807,22.254,35.807z"/>
</g>
</svg>
