<?xml version="1.0" encoding="utf-8"?>
<!-- Generator: Adobe Illustrator 24.0.1, SVG Export Plug-In . SVG Version: 6.00 Build 0)  -->
<svg version="1.1" id="Layer_1" xmlns="http://www.w3.org/2000/svg" xmlns:xlink="http://www.w3.org/1999/xlink" x="0px" y="0px"
	 viewBox="0 0 50.5 50.5" style="enable-background:new 0 0 50.5 50.5;" xml:space="preserve">
<g>
	<path d="M42.306,17.358c0.046-0.325,0.068-0.649,0.068-0.977c0-3.891-3.161-7.056-7.046-7.056c-2.482,0-4.786,1.324-6.036,3.422
		c-0.51-0.112-1.028-0.168-1.549-0.168c-2.744,0-5.228,1.596-6.374,4.034c-1.73-0.245-3.524,0.181-4.985,1.191
		c-0.573-0.215-1.176-0.329-1.802-0.329c-2.895,0-5.251,2.355-5.251,5.251c0,0.188,0.012,0.38,0.036,0.578
		c-1.644,0.912-2.676,2.64-2.676,4.558c0,2.896,2.355,5.251,5.251,5.251c0.054,0,0.118,0,0.189-0.004
		c0.026,0.003,0.053,0.004,0.08,0.004h12.499c0.047,0,0.092-0.005,0.137-0.013c0.124,0.009,0.248,0.013,0.382,0.013
		c1.83,0,3.482-0.939,4.43-2.467h8.981c0.033,0,0.066-0.002,0.098-0.007c0.097,0.006,0.191,0.007,0.285,0.007
		c3.891,0,7.056-3.165,7.056-7.056C46.08,20.948,44.618,18.565,42.306,17.358z M25.229,31.577c-0.152,0-0.288-0.007-0.432-0.024
		c-0.092-0.009-0.185-0.001-0.275,0.024H12.3c-0.081-0.011-0.164-0.012-0.243-0.003c-0.038,0.005-0.077,0.003-0.114,0.003
		c-2.048,0-3.715-1.667-3.715-3.715c0-1.503,0.898-2.84,2.287-3.407c0.348-0.142,0.542-0.515,0.459-0.882
		c-0.071-0.312-0.106-0.589-0.106-0.847c0-2.048,1.667-3.715,3.715-3.715c0.552,0,1.079,0.12,1.578,0.361
		c0.763,0.354,1.385,0.971,1.752,1.738c0.165,0.344,0.558,0.515,0.921,0.401c1.911-0.594,3.978,0.445,4.626,2.261
		c0.134,0.374,0.529,0.583,0.914,0.486c0.26-0.067,0.548-0.101,0.856-0.101c2.043,0,3.705,1.662,3.705,3.705
		c0,0.589-0.134,1.15-0.399,1.673C27.906,30.794,26.639,31.577,25.229,31.577z M39.024,29.111c-0.09,0-0.177,0.003-0.273-0.012
		c-0.034-0.005-0.068-0.007-0.102-0.007c-0.056,0-0.111,0.006-0.165,0.019h-8.162c0.001-0.005,0.002-0.011,0.003-0.016
		c0.031-0.129,0.05-0.262,0.071-0.394c0.012-0.072,0.029-0.142,0.038-0.214c0.024-0.206,0.037-0.414,0.037-0.624
		c0-2.89-2.351-5.241-5.241-5.241c-0.199,0-0.394,0.01-0.584,0.031c-1.026-2.018-3.36-3.196-5.656-2.761
		c-0.141-0.221-0.3-0.428-0.472-0.624c-0.053-0.06-0.113-0.113-0.168-0.17c-0.125-0.13-0.252-0.259-0.39-0.375
		c-0.019-0.016-0.035-0.036-0.055-0.053c1.145-0.582,2.529-0.738,3.753-0.438c0.381,0.091,0.772-0.117,0.905-0.487
		c0.778-2.17,2.86-3.629,5.181-3.629c0.585,0,1.145,0.086,1.711,0.263c0.366,0.116,0.758-0.058,0.922-0.404
		c0.898-1.891,2.841-3.113,4.951-3.113c3.038,0,5.511,2.476,5.511,5.52c0,0.418-0.047,0.827-0.144,1.249
		c-0.083,0.365,0.108,0.737,0.454,0.881c2.062,0.856,3.395,2.85,3.395,5.08C44.544,26.634,42.068,29.111,39.024,29.111z"/>
	<path d="M8.621,38.664l-1.442,1.728c-0.272,0.325-0.228,0.81,0.098,1.082c0.144,0.12,0.318,0.178,0.492,0.178
		c0.22,0,0.438-0.094,0.59-0.276l1.442-1.728c0.272-0.325,0.228-0.81-0.098-1.082C9.377,38.294,8.892,38.338,8.621,38.664z"/>
	<path d="M13.365,34.181c-0.325-0.272-0.81-0.228-1.082,0.097l-2.259,2.706c-0.272,0.325-0.228,0.81,0.098,1.082
		c0.143,0.12,0.318,0.178,0.492,0.178c0.22,0,0.438-0.094,0.59-0.276l2.259-2.706C13.735,34.937,13.691,34.453,13.365,34.181z"/>
	<path d="M17.318,34.182c-0.325-0.271-0.809-0.231-1.082,0.096l-3.678,4.386c-0.273,0.324-0.23,0.809,0.095,1.082
		c0.144,0.12,0.319,0.179,0.493,0.179c0.219,0,0.437-0.093,0.589-0.275l3.678-4.386C17.685,34.939,17.643,34.454,17.318,34.182z"/>
	<path d="M17.384,37.603l-3.161,3.791c-0.272,0.326-0.228,0.81,0.098,1.082c0.143,0.12,0.318,0.178,0.491,0.178
		c0.22,0,0.438-0.094,0.59-0.276l3.161-3.791c0.272-0.326,0.228-0.81-0.098-1.082C18.139,37.232,17.655,37.277,17.384,37.603z"/>
	<path d="M21.237,34.181c-0.325-0.272-0.809-0.228-1.081,0.097l-1.38,1.655c-0.272,0.326-0.228,0.81,0.098,1.082
		c0.143,0.12,0.318,0.178,0.491,0.178c0.22,0,0.438-0.094,0.59-0.276l1.38-1.655C21.607,34.936,21.562,34.453,21.237,34.181z"/>
	<path d="M24.077,34.277l-3.678,4.386c-0.273,0.324-0.23,0.809,0.095,1.082c0.144,0.12,0.319,0.179,0.493,0.179
		c0.219,0,0.437-0.093,0.589-0.275l3.678-4.386c0.273-0.324,0.23-0.809-0.095-1.082C24.834,33.911,24.35,33.951,24.077,34.277z"/>
</g>
</svg>
