<?xml version="1.0" encoding="utf-8"?>
<!-- Generator: Adobe Illustrator 24.0.1, SVG Export Plug-In . SVG Version: 6.00 Build 0)  -->
<svg version="1.1" id="Layer_1" xmlns="http://www.w3.org/2000/svg" xmlns:xlink="http://www.w3.org/1999/xlink" x="0px" y="0px"
	 viewBox="0 0 50.5 50.5" style="enable-background:new 0 0 50.5 50.5;" xml:space="preserve">
<g>
	<path d="M39.639,16.405c0.041-0.304,0.062-0.61,0.062-0.915c0-3.712-3.024-6.732-6.741-6.732c-2.351,0-4.541,1.253-5.746,3.24
		c-0.47-0.105-0.955-0.157-1.449-0.157c-2.503,0-4.726,1.349-5.894,3.496c-0.811-0.38-1.745-0.517-2.596-0.374
		c-0.798-1.177-2.146-1.909-3.585-1.909c-2.395,0-4.343,1.948-4.343,4.343c0,0.13,0.005,0.255,0.015,0.378
		c-1.306,0.775-2.122,2.18-2.122,3.726c0,2.446,2.061,4.43,4.499,4.34c0.021,0.002,0.042,0.002,0.063,0.002h1.228
		c1.216,2.008,3.366,3.247,5.739,3.247c0.172,0,0.344-0.005,0.512-0.017c0.052,0.011,0.107,0.017,0.163,0.017h10.642l-1.95,4.383
		c-0.105,0.237-0.084,0.512,0.058,0.73c0.142,0.218,0.384,0.35,0.644,0.35h1.584l-2.583,6.082c-0.143,0.338-0.028,0.729,0.275,0.936
		c0.131,0.089,0.282,0.132,0.431,0.132c0.196,0,0.391-0.075,0.54-0.221l9.294-9.166c0.222-0.218,0.289-0.549,0.171-0.838
		c-0.118-0.288-0.399-0.476-0.711-0.476h-2.571l1.123-1.913c0.03,0,0.06,0.002,0.089,0.002c3.717,0,6.741-3.024,6.741-6.742
		C43.221,19.833,41.834,17.563,39.639,16.405z M13.461,24.307h-1.543c-0.068-0.011-0.139-0.012-0.209-0.003
		c-0.042,0.005-0.084,0.003-0.126,0.003c-1.548,0-2.807-1.259-2.807-2.807c0-1.131,0.678-2.145,1.727-2.584
		c0.347-0.145,0.538-0.522,0.45-0.888c-0.048-0.198-0.07-0.399-0.07-0.631c0-1.548,1.26-2.807,2.807-2.807
		c1.065,0,2.054,0.624,2.518,1.59c0.169,0.351,0.574,0.519,0.941,0.394c0.79-0.269,1.856-0.108,2.576,0.46
		c0.413,0.326,0.737,0.772,0.913,1.255c0.133,0.367,0.522,0.575,0.902,0.485c1.786-0.431,3.457,0.97,3.457,2.728
		c0,1.548-1.259,2.807-2.807,2.807c-0.12,0-0.225-0.007-0.36-0.016c-0.069-0.005-0.137,0.001-0.204,0.016H13.461z M33.264,31.38
		c-0.139,0.237-0.141,0.532-0.004,0.771c0.137,0.239,0.391,0.386,0.667,0.386h2.04l-5.197,5.125l1.52-3.578
		c0.101-0.237,0.076-0.509-0.067-0.724c-0.142-0.215-0.382-0.344-0.64-0.344H30.02l1.942-4.366c0.003-0.006,0.008-0.011,0.011-0.018
		l1.011-2.279h3.23L33.264,31.38z M37.332,27.484l0.885-1.509c0.139-0.238,0.141-0.532,0.004-0.77
		c-0.137-0.239-0.391-0.386-0.667-0.386h-5.07c-0.304,0-0.579,0.179-0.702,0.457l-1.014,2.28H19.678
		c-0.105-0.034-0.217-0.043-0.329-0.031c-0.188,0.023-0.384,0.031-0.58,0.031c-1.497,0-2.886-0.634-3.855-1.711h6.865
		c0.039,0,0.078-0.003,0.116-0.009c0.095,0.005,0.191,0.009,0.294,0.009c2.395,0,4.343-1.948,4.343-4.343
		c0-2.519-2.178-4.54-4.717-4.327c-0.125-0.23-0.278-0.442-0.443-0.647c-0.04-0.05-0.082-0.099-0.124-0.147
		c-0.042-0.048-0.079-0.1-0.123-0.147c0.875-1.751,2.644-2.857,4.639-2.857c0.553,0,1.088,0.085,1.59,0.253
		c0.366,0.121,0.769-0.048,0.935-0.397c0.855-1.785,2.689-2.939,4.67-2.939c2.87,0,5.205,2.331,5.205,5.197
		c0,0.396-0.046,0.795-0.135,1.187c-0.083,0.365,0.108,0.737,0.454,0.881c1.945,0.808,3.202,2.688,3.202,4.79
		C41.685,24.928,39.798,27.076,37.332,27.484z"/>
	<path d="M11.323,34.378l-1.37,1.642c-0.272,0.325-0.228,0.81,0.097,1.082c0.144,0.12,0.318,0.178,0.492,0.178
		c0.22,0,0.438-0.094,0.59-0.276l1.37-1.642c0.272-0.325,0.228-0.81-0.098-1.082C12.079,34.008,11.595,34.053,11.323,34.378z"/>
	<path d="M15.884,30.114c-0.325-0.272-0.81-0.228-1.082,0.097l-2.146,2.571c-0.272,0.325-0.228,0.81,0.098,1.082
		c0.143,0.12,0.318,0.178,0.492,0.178c0.22,0,0.438-0.094,0.59-0.276l2.146-2.571C16.254,30.871,16.21,30.386,15.884,30.114z"/>
	<path d="M19.639,30.115c-0.325-0.272-0.81-0.23-1.082,0.096l-3.494,4.166c-0.273,0.324-0.23,0.809,0.095,1.082
		c0.144,0.12,0.319,0.179,0.493,0.179c0.219,0,0.437-0.093,0.589-0.275l3.494-4.166C20.007,30.873,19.964,30.388,19.639,30.115z"/>
	<path d="M19.647,33.37l-3.003,3.602c-0.272,0.326-0.228,0.811,0.098,1.082c0.143,0.12,0.318,0.178,0.491,0.178
		c0.22,0,0.438-0.094,0.59-0.276l3.003-3.602c0.272-0.326,0.228-0.811-0.098-1.082C20.403,33,19.919,33.045,19.647,33.37z"/>
	<path d="M23.362,30.114c-0.326-0.273-0.81-0.229-1.082,0.098l-1.31,1.572c-0.271,0.325-0.227,0.81,0.098,1.081
		c0.143,0.12,0.318,0.178,0.491,0.178c0.22,0,0.439-0.094,0.591-0.277l1.31-1.572C23.732,30.87,23.688,30.385,23.362,30.114z"/>
	<path d="M26.007,30.211l-3.495,4.166c-0.273,0.324-0.23,0.809,0.095,1.082c0.144,0.12,0.319,0.179,0.493,0.179
		c0.219,0,0.437-0.093,0.589-0.275l3.495-4.166c0.273-0.324,0.23-0.809-0.095-1.082C26.763,29.843,26.279,29.886,26.007,30.211z"/>
</g>
</svg>
