<?xml version="1.0" encoding="utf-8"?>
<!-- Generator: Adobe Illustrator 24.0.1, SVG Export Plug-In . SVG Version: 6.00 Build 0)  -->
<svg version="1.1" id="Capa_1" xmlns="http://www.w3.org/2000/svg" xmlns:xlink="http://www.w3.org/1999/xlink" x="0px" y="0px"
	 viewBox="0 0 50.5 50.5" style="enable-background:new 0 0 50.5 50.5;" xml:space="preserve">
<g>
	<path d="M24.88,32.426c-0.234-0.372-0.728-0.487-1.103-0.252l-0.448,0.281v-0.528c0-0.441-0.358-0.8-0.8-0.8s-0.8,0.358-0.8,0.8
		v0.528l-0.448-0.281c-0.375-0.235-0.868-0.121-1.103,0.252c-0.235,0.375-0.122,0.868,0.252,1.104l0.594,0.373l-0.594,0.373
		c-0.374,0.235-0.487,0.729-0.252,1.104c0.152,0.241,0.412,0.374,0.679,0.374c0.145,0,0.292-0.039,0.424-0.122l0.448-0.281v0.529
		c0,0.441,0.358,0.8,0.8,0.8s0.8-0.358,0.8-0.8v-0.529l0.448,0.281c0.132,0.083,0.279,0.122,0.424,0.122
		c0.266,0,0.527-0.133,0.679-0.374c0.235-0.375,0.122-0.868-0.252-1.104l-0.594-0.373l0.594-0.373
		C25.002,33.294,25.115,32.801,24.88,32.426z"/>
	<path d="M20.178,23.808c0.152,0.242,0.412,0.375,0.679,0.375c0.145,0,0.292-0.04,0.424-0.123l0.448-0.281v0.529
		c0,0.442,0.358,0.8,0.8,0.8s0.8-0.358,0.8-0.8v-0.529l0.448,0.281c0.132,0.083,0.279,0.123,0.424,0.123
		c0.267,0,0.527-0.133,0.679-0.375c0.235-0.375,0.122-0.868-0.252-1.103l-0.593-0.372l0.593-0.372
		c0.374-0.235,0.487-0.729,0.252-1.103c-0.234-0.374-0.728-0.488-1.103-0.252l-0.448,0.281v-0.529c0-0.442-0.358-0.8-0.8-0.8
		s-0.8,0.358-0.8,0.8v0.529l-0.448-0.281c-0.376-0.235-0.869-0.122-1.103,0.252c-0.235,0.375-0.122,0.868,0.252,1.103l0.593,0.372
		l-0.593,0.372C20.057,22.939,19.943,23.433,20.178,23.808z"/>
	<path d="M20.178,12.238c0.152,0.242,0.412,0.375,0.679,0.375c0.145,0,0.292-0.04,0.424-0.123l0.448-0.281v0.529
		c0,0.442,0.358,0.8,0.8,0.8s0.8-0.358,0.8-0.8v-0.529l0.448,0.281c0.132,0.083,0.279,0.123,0.424,0.123
		c0.267,0,0.527-0.133,0.679-0.375c0.235-0.375,0.122-0.868-0.252-1.103l-0.593-0.372l0.593-0.372
		c0.374-0.235,0.487-0.729,0.252-1.103c-0.234-0.374-0.728-0.488-1.103-0.252l-0.448,0.281v-0.53c0-0.442-0.358-0.8-0.8-0.8
		s-0.8,0.358-0.8,0.8v0.529l-0.448-0.281c-0.376-0.235-0.869-0.122-1.103,0.252c-0.235,0.375-0.122,0.868,0.252,1.103l0.593,0.372
		l-0.593,0.372C20.057,11.37,19.943,11.863,20.178,12.238z"/>
	<path d="M13.696,26.643c-0.234-0.374-0.728-0.488-1.103-0.253l-0.448,0.281v-0.529c0-0.442-0.358-0.8-0.8-0.8s-0.8,0.358-0.8,0.8
		v0.529l-0.448-0.281c-0.376-0.235-0.869-0.121-1.103,0.253c-0.235,0.374-0.122,0.867,0.252,1.103l0.593,0.372L9.246,28.49
		c-0.374,0.235-0.487,0.729-0.252,1.103c0.152,0.242,0.412,0.375,0.679,0.375c0.145,0,0.292-0.039,0.424-0.122l0.448-0.281v0.529
		c0,0.441,0.358,0.8,0.8,0.8s0.8-0.358,0.8-0.8v-0.529l0.448,0.281c0.132,0.083,0.279,0.122,0.424,0.122
		c0.267,0,0.527-0.133,0.679-0.375c0.235-0.374,0.122-0.867-0.252-1.103l-0.593-0.372l0.593-0.372
		C13.817,27.51,13.931,27.017,13.696,26.643z"/>
	<path d="M13.696,15.072c-0.234-0.374-0.728-0.488-1.103-0.252l-0.448,0.281v-0.529c0-0.442-0.358-0.8-0.8-0.8s-0.8,0.358-0.8,0.8
		v0.529l-0.448-0.281c-0.375-0.235-0.868-0.122-1.103,0.252s-0.122,0.868,0.252,1.103l0.594,0.373L9.246,16.92
		c-0.374,0.235-0.487,0.729-0.252,1.103c0.152,0.242,0.412,0.375,0.679,0.375c0.145,0,0.292-0.04,0.424-0.123l0.448-0.281v0.529
		c0,0.442,0.358,0.8,0.8,0.8s0.8-0.358,0.8-0.8v-0.529l0.448,0.281c0.132,0.083,0.279,0.123,0.424,0.123
		c0.266,0,0.527-0.133,0.679-0.375c0.235-0.374,0.122-0.868-0.252-1.103l-0.594-0.373l0.594-0.373
		C13.817,15.94,13.931,15.446,13.696,15.072z"/>
	<path d="M36.064,26.643c-0.235-0.375-0.729-0.487-1.103-0.253l-0.448,0.281v-0.529c0-0.442-0.358-0.8-0.8-0.8s-0.8,0.358-0.8,0.8
		v0.529l-0.448-0.281c-0.374-0.234-0.867-0.122-1.103,0.253c-0.234,0.374-0.122,0.867,0.253,1.103l0.593,0.372l-0.593,0.372
		c-0.375,0.235-0.487,0.729-0.253,1.103c0.152,0.242,0.412,0.375,0.679,0.375c0.146,0,0.292-0.039,0.424-0.122l0.448-0.281v0.529
		c0,0.441,0.358,0.8,0.8,0.8s0.8-0.358,0.8-0.8v-0.529l0.448,0.281c0.132,0.083,0.278,0.122,0.424,0.122
		c0.267,0,0.526-0.133,0.679-0.375c0.234-0.374,0.122-0.867-0.253-1.103l-0.593-0.372l0.593-0.372
		C36.187,27.51,36.299,27.017,36.064,26.643z"/>
	<path d="M31.363,18.023c0.152,0.242,0.412,0.375,0.679,0.375c0.146,0,0.292-0.04,0.425-0.123l0.447-0.281v0.528
		c0,0.442,0.358,0.8,0.8,0.8s0.8-0.358,0.8-0.8v-0.528l0.447,0.281c0.133,0.083,0.279,0.123,0.425,0.123
		c0.267,0,0.526-0.133,0.679-0.375c0.234-0.374,0.122-0.868-0.252-1.103l-0.593-0.373l0.593-0.373
		c0.374-0.235,0.486-0.729,0.252-1.103c-0.235-0.375-0.727-0.488-1.104-0.252L34.514,15.1v-0.528c0-0.442-0.358-0.8-0.8-0.8
		s-0.8,0.358-0.8,0.8V15.1l-0.447-0.281c-0.376-0.235-0.868-0.122-1.104,0.252c-0.234,0.374-0.122,0.868,0.252,1.103l0.593,0.373
		l-0.593,0.373C31.241,17.155,31.129,17.649,31.363,18.023z"/>
	<path d="M40.375,38.03c-1.188,0.72-3.274,1.616-5.244,1.772c-2.288,0.184-3.631-0.12-8.748-2.602
		c-0.396-0.193-0.875-0.026-1.068,0.371s-0.027,0.876,0.371,1.068c4.423,2.146,6.296,2.805,8.489,2.805
		c0.35,0,0.707-0.018,1.084-0.047c2.249-0.18,4.608-1.189,5.945-1.999c0.378-0.229,0.499-0.721,0.271-1.099
		C41.245,37.922,40.752,37.802,40.375,38.03z"/>
	<path d="M18.62,36.4c-1.356,0.461-2.101,1.112-2.181,1.186c-0.326,0.295-0.351,0.796-0.058,1.124
		c0.158,0.176,0.376,0.266,0.596,0.266c0.189,0,0.379-0.065,0.531-0.2c0.006-0.005,0.58-0.505,1.627-0.861
		c0.418-0.142,0.642-0.597,0.5-1.015C19.493,36.48,19.039,36.255,18.62,36.4z"/>
	<path d="M40.375,33.763c-1.188,0.72-3.274,1.616-5.244,1.772c-2.104,0.174-3.396-0.079-7.395-1.956
		c-0.399-0.185-0.877-0.015-1.064,0.385c-0.188,0.4-0.016,0.876,0.385,1.064c3.432,1.61,5.109,2.149,7.104,2.149
		c0.352,0,0.714-0.017,1.097-0.047c2.249-0.18,4.608-1.189,5.945-1.999c0.378-0.229,0.499-0.721,0.271-1.099
		S40.752,33.534,40.375,33.763z"/>
	<path d="M17.994,32.376c-0.968,0.424-1.498,0.891-1.555,0.942c-0.326,0.295-0.351,0.796-0.058,1.124
		c0.158,0.176,0.376,0.266,0.596,0.266c0.189,0,0.379-0.065,0.531-0.2c0.004-0.004,0.399-0.348,1.127-0.667
		c0.405-0.177,0.589-0.648,0.412-1.054C18.87,32.383,18.397,32.196,17.994,32.376z"/>
	<path d="M37.049,32.542c0.067,0,0.136-0.008,0.203-0.025c1.998-0.523,3.529-1.397,3.951-1.652c0.378-0.229,0.499-0.721,0.271-1.099
		c-0.229-0.379-0.722-0.499-1.099-0.271c-0.773,0.469-2.106,1.102-3.527,1.473c-0.428,0.112-0.684,0.55-0.572,0.977
		C36.37,32.305,36.694,32.542,37.049,32.542z"/>
	<path d="M17.513,30.236c0.03-0.026,3.003-2.639,8.172-0.131c1.763,0.854,2.997,1.413,4.001,1.811
		c0.097,0.038,0.195,0.056,0.294,0.056c0.318,0,0.619-0.191,0.744-0.506c0.162-0.41-0.039-0.875-0.45-1.038
		c-0.966-0.382-2.166-0.926-3.892-1.762c-6.128-2.973-9.791,0.246-9.944,0.385c-0.328,0.297-0.353,0.803-0.056,1.13
		C16.681,30.508,17.186,30.532,17.513,30.236z"/>
</g>
</svg>
