<?xml version="1.0" encoding="utf-8"?>
<!-- Generator: Adobe Illustrator 24.0.1, SVG Export Plug-In . SVG Version: 6.00 Build 0)  -->
<svg version="1.1" id="Layer_1" xmlns="http://www.w3.org/2000/svg" xmlns:xlink="http://www.w3.org/1999/xlink" x="0px" y="0px"
	 viewBox="0 0 50.5 50.5" style="enable-background:new 0 0 50.5 50.5;" xml:space="preserve">
<g>
	<path d="M41.274,27.955c0.009-0.113,0.014-0.229,0.014-0.346c0-1.139-0.467-2.239-1.269-3.006
		c-0.279-0.278-0.596-0.497-0.932-0.688c-0.667-7.753-7.172-13.768-15.018-13.768c-8.318,0-15.084,6.766-15.084,15.083
		c0,8.322,6.766,15.093,15.084,15.093c4.085,0,7.871-1.6,10.717-4.495h4.094c0.021,0,0.041-0.001,0.061-0.002
		c0.054,0.002,0.105,0.002,0.153,0.002c2.337,0,4.237-1.905,4.237-4.246C43.33,30.083,42.54,28.717,41.274,27.955z M24.069,38.787
		c-7.471,0-13.548-6.082-13.548-13.557c0-7.47,6.078-13.548,13.548-13.548c6.827,0,12.537,5.066,13.431,11.713
		c-0.094-0.01-0.187-0.007-0.281-0.011c-0.017-0.001-0.034-0.001-0.051-0.002c-0.958-0.029-1.869,0.263-2.609,0.803
		c-0.02,0.015-0.04,0.029-0.059,0.044c-0.152,0.115-0.296,0.24-0.431,0.376c-0.031,0.031-0.065,0.061-0.095,0.093
		c-0.151,0.161-0.293,0.331-0.417,0.517c-1.88-0.335-3.573,0.614-4.407,2.151c-0.111-0.008-0.225-0.012-0.342-0.012
		c-2.337,0-4.237,1.897-4.237,4.228c0,2.341,1.901,4.246,4.237,4.246c0.098,0,0.188-0.003,0.277-0.008
		c0.038,0.006,0.076,0.008,0.115,0.008h3.324C30.14,37.748,27.199,38.787,24.069,38.787z M39.093,34.292
		c-0.038,0-0.083,0.001-0.128-0.004c-0.028-0.003-0.055-0.005-0.083-0.005c-0.037,0-0.074,0.003-0.111,0.008h-4.295h-5.115
		c-0.071-0.016-0.143-0.023-0.22-0.016c-0.112,0.008-0.216,0.016-0.336,0.016c-1.49,0-2.702-1.216-2.702-2.71
		c0-1.485,1.212-2.693,2.702-2.693c0.228,0,0.423,0.023,0.615,0.07c0.38,0.097,0.777-0.113,0.91-0.487
		c0.381-1.067,1.402-1.784,2.541-1.784c0.251,0,0.517,0.045,0.84,0.143c0.366,0.11,0.755-0.062,0.918-0.407
		c0.068-0.144,0.151-0.277,0.241-0.404c0.018-0.026,0.038-0.05,0.058-0.075c0.086-0.111,0.178-0.216,0.279-0.311
		c0.008-0.008,0.017-0.016,0.025-0.024c0.728-0.663,1.812-0.903,2.844-0.507c0.311,0.134,0.599,0.33,0.867,0.597
		c0.513,0.491,0.807,1.185,0.807,1.907c0,0.211-0.023,0.406-0.069,0.581c-0.096,0.368,0.093,0.753,0.445,0.901
		c1.013,0.428,1.667,1.405,1.667,2.491C41.795,33.076,40.583,34.292,39.093,34.292z"/>
	<path d="M18.113,21.163c0.425,0,0.842-0.118,1.212-0.348c0.36-0.224,0.471-0.697,0.247-1.057c-0.223-0.36-0.697-0.47-1.058-0.247
		c-0.36,0.224-0.835,0.113-1.059-0.248c-0.109-0.174-0.143-0.381-0.096-0.581c0.047-0.2,0.169-0.37,0.343-0.478
		c0.36-0.224,0.471-0.697,0.248-1.057c-0.223-0.36-0.696-0.471-1.058-0.248c-0.523,0.325-0.889,0.834-1.029,1.433
		c-0.14,0.599-0.038,1.218,0.287,1.741c0.325,0.523,0.834,0.888,1.433,1.028C17.76,21.143,17.937,21.163,18.113,21.163z"/>
	<path d="M29.013,24.284c2.431,0,4.409-1.978,4.409-4.409c0-0.424-0.344-0.768-0.768-0.768s-0.768,0.344-0.768,0.768
		c0,1.584-1.29,2.874-2.874,2.874s-2.874-1.29-2.874-2.874s1.29-2.873,2.874-2.873c0.424,0,0.768-0.344,0.768-0.768
		s-0.344-0.768-0.768-0.768c-2.431,0-4.409,1.978-4.409,4.409C24.604,22.306,26.582,24.284,29.013,24.284z"/>
	<path d="M18.579,25.083c-0.408,0.114-0.648,0.537-0.534,0.945c0.113,0.409,0.534,0.652,0.946,0.534
		c0.801-0.223,1.637,0.248,1.861,1.052c0.108,0.389,0.059,0.798-0.14,1.149c-0.199,0.352-0.522,0.605-0.912,0.712
		c-0.389,0.109-0.796,0.059-1.148-0.141c-0.352-0.199-0.605-0.522-0.712-0.911c-0.114-0.409-0.537-0.652-0.946-0.534
		c-0.408,0.113-0.648,0.536-0.534,0.945c0.218,0.785,0.728,1.437,1.437,1.837c0.464,0.263,0.976,0.397,1.494,0.397
		c0.274,0,0.55-0.038,0.821-0.113c0.785-0.217,1.437-0.727,1.838-1.436c0.4-0.709,0.501-1.532,0.283-2.316
		C21.882,25.585,20.199,24.633,18.579,25.083z"/>
	<path d="M14.093,23.018c-0.619,0-1.122,0.503-1.122,1.121c0,0.619,0.503,1.122,1.122,1.122c0.619,0,1.122-0.503,1.122-1.122
		C15.214,23.521,14.711,23.018,14.093,23.018z"/>
	<path d="M20.544,34.2c-0.619,0-1.122,0.503-1.122,1.121c0,0.619,0.503,1.122,1.122,1.122s1.122-0.503,1.122-1.122
		C21.666,34.703,21.163,34.2,20.544,34.2z"/>
	<path d="M21.676,14.686c-0.619,0-1.122,0.503-1.122,1.122s0.503,1.122,1.122,1.122c0.619,0,1.122-0.503,1.122-1.122
		S22.294,14.686,21.676,14.686z"/>
</g>
</svg>
