<?xml version="1.0" encoding="utf-8"?>
<!-- Generator: Adobe Illustrator 24.0.1, SVG Export Plug-In . SVG Version: 6.00 Build 0)  -->
<svg version="1.1" id="Layer_1" xmlns="http://www.w3.org/2000/svg" xmlns:xlink="http://www.w3.org/1999/xlink" x="0px" y="0px"
	 viewBox="0 0 50.5 50.5" style="enable-background:new 0 0 50.5 50.5;" xml:space="preserve">
<g>
	<path d="M25.742,36.955c6.361,0,11.536-5.18,11.536-11.547c0-6.361-5.175-11.536-11.536-11.536c-3.953,0-7.595,2.014-9.713,5.308
		c-0.891-1.108-2.254-1.789-3.708-1.789c-2.624,0-4.758,2.138-4.758,4.768c0,0.16,0.007,0.315,0.022,0.466
		c-1.464,0.848-2.382,2.406-2.382,4.119c0,2.63,2.139,4.768,4.768,4.768c0.06,0,0.117,0,0.173-0.003
		c0.022,0.002,0.045,0.003,0.068,0.003h5.762C18.071,34.873,21.761,36.955,25.742,36.955z M25.742,15.408c5.514,0,10,4.486,10,10
		c0,5.52-4.486,10.011-10,10.011c-3.123,0-6.052-1.468-7.927-3.907h3.562c0.043,0,0.085-0.004,0.126-0.01
		c0.108,0.006,0.219,0.01,0.323,0.01c2.629,0,4.768-2.138,4.768-4.768c0-2.623-2.139-4.757-4.768-4.757
		c-0.157,0-0.313,0.007-0.464,0.021c-0.096-0.184-0.205-0.36-0.323-0.528c-0.039-0.055-0.083-0.105-0.124-0.158
		c-0.084-0.109-0.169-0.218-0.262-0.319c-0.053-0.058-0.111-0.111-0.167-0.166c-0.09-0.088-0.18-0.175-0.276-0.256
		c-0.063-0.053-0.129-0.102-0.195-0.151c-0.097-0.073-0.196-0.144-0.298-0.21c-0.071-0.045-0.143-0.088-0.216-0.129
		c-0.105-0.06-0.213-0.116-0.323-0.168c-0.076-0.036-0.152-0.07-0.23-0.102c-0.114-0.047-0.231-0.087-0.349-0.125
		c-0.079-0.025-0.157-0.051-0.237-0.072c-0.125-0.033-0.253-0.057-0.382-0.08c-0.077-0.014-0.152-0.03-0.23-0.04
		c-0.025-0.003-0.049-0.01-0.074-0.013C19.55,16.942,22.528,15.408,25.742,15.408z M10.117,29.973
		c-0.051,0.006-0.095,0.004-0.146,0.005c-1.782,0-3.232-1.45-3.232-3.232c0-1.3,0.783-2.469,1.995-2.978
		c0.349-0.147,0.54-0.526,0.447-0.894c-0.055-0.223-0.082-0.449-0.082-0.712c0-1.782,1.446-3.232,3.222-3.232
		c1.23,0,2.369,0.715,2.901,1.821c0.163,0.339,0.549,0.511,0.911,0.403c0.082-0.024,0.174-0.05,0.266-0.068
		c0.274-0.059,0.518-0.088,0.748-0.088c1.361,0,2.577,0.852,3.025,2.121c0.132,0.371,0.525,0.583,0.905,0.49
		c0.228-0.055,0.48-0.083,0.749-0.083c1.782,0,3.233,1.445,3.233,3.222c0,1.782-1.45,3.232-3.233,3.232
		c-0.128,0-0.266-0.009-0.395-0.019c-0.075-0.007-0.147,0.002-0.218,0.019h-4.828h-6.047C10.266,29.966,10.191,29.964,10.117,29.973
		z"/>
	<path d="M25.42,39.781c-0.424,0-0.768,0.344-0.768,0.768v3.935c0,0.424,0.344,0.768,0.768,0.768s0.768-0.344,0.768-0.768v-3.935
		C26.187,40.125,25.844,39.781,25.42,39.781z"/>
	<path d="M25.42,10.68c0.424,0,0.768-0.344,0.768-0.768V5.977c0-0.424-0.344-0.768-0.768-0.768s-0.768,0.344-0.768,0.768v3.935
		C24.652,10.336,24.995,10.68,25.42,10.68z"/>
	<path d="M17.41,12.549c0.14,0.253,0.402,0.396,0.672,0.396c0.126,0,0.254-0.031,0.372-0.097c0.371-0.206,0.505-0.673,0.299-1.044
		l-1.908-3.442c-0.206-0.372-0.675-0.504-1.044-0.3c-0.371,0.206-0.505,0.673-0.3,1.044L17.41,12.549z"/>
	<path d="M33.429,38.278c-0.206-0.372-0.675-0.506-1.044-0.299c-0.371,0.205-0.505,0.672-0.299,1.043l1.908,3.442
		c0.14,0.253,0.402,0.396,0.672,0.396c0.126,0,0.254-0.031,0.372-0.097c0.371-0.205,0.505-0.672,0.299-1.043L33.429,38.278z"/>
	<path d="M37.869,34.056c-0.336-0.262-0.818-0.199-1.077,0.138c-0.259,0.337-0.197,0.818,0.139,1.077l3.115,2.405
		c0.14,0.109,0.305,0.16,0.469,0.16c0.23,0,0.457-0.102,0.608-0.298c0.259-0.337,0.197-0.818-0.139-1.077L37.869,34.056z"/>
	<path d="M44.495,24.81l-3.935-0.034c-0.452-0.022-0.771,0.337-0.774,0.761c-0.004,0.424,0.337,0.771,0.761,0.774l3.935,0.034
		c0.002,0,0.005,0,0.007,0c0.421,0,0.764-0.339,0.768-0.761C45.26,25.16,44.92,24.813,44.495,24.81z"/>
	<path d="M38.633,18.802c0.127,0,0.255-0.031,0.374-0.098l3.436-1.919c0.37-0.207,0.503-0.674,0.296-1.045
		c-0.207-0.371-0.675-0.503-1.045-0.296l-3.435,1.919c-0.37,0.207-0.503,0.674-0.296,1.045
		C38.103,18.66,38.364,18.802,38.633,18.802z"/>
	<path d="M18.121,37.788c-0.366-0.215-0.836-0.093-1.052,0.272l-2,3.389c-0.216,0.365-0.094,0.836,0.271,1.052
		c0.123,0.072,0.257,0.106,0.39,0.106c0.263,0,0.519-0.135,0.662-0.378l2-3.389C18.607,38.475,18.486,38.003,18.121,37.788z"/>
	<path d="M32.719,13.039c0.122,0.072,0.257,0.107,0.389,0.107c0.263,0,0.519-0.135,0.662-0.378l1.999-3.39
		c0.216-0.365,0.094-0.836-0.271-1.051c-0.366-0.217-0.837-0.093-1.051,0.271l-1.999,3.39
		C32.232,12.353,32.353,12.824,32.719,13.039z"/>
</g>
</svg>
