<?xml version="1.0" encoding="utf-8"?>
<!-- Generator: Adobe Illustrator 24.0.1, SVG Export Plug-In . SVG Version: 6.00 Build 0)  -->
<svg version="1.1" id="Layer_1" xmlns="http://www.w3.org/2000/svg" xmlns:xlink="http://www.w3.org/1999/xlink" x="0px" y="0px"
	 viewBox="0 0 50.5 50.5" style="enable-background:new 0 0 50.5 50.5;" xml:space="preserve">
<g>
	<g>
		<path d="M25.541,24.877H6.861c-0.441,0-0.8-0.358-0.8-0.8c0-0.442,0.358-0.8,0.8-0.8h18.68c2.324,0,4.215-1.891,4.215-4.215
			c0-2.307-1.863-4.187-4.164-4.214c-2.3,0.028-4.163,1.908-4.163,4.214c0,0.442-0.358,0.8-0.8,0.8s-0.8-0.358-0.8-0.8
			c0-3.152,2.521-5.726,5.651-5.812c0.02-0.001,0.04-0.002,0.061-0.002h0.103c0.021,0,0.041,0,0.061,0.002
			c3.131,0.087,5.651,2.661,5.651,5.812C31.355,22.268,28.747,24.877,25.541,24.877z"/>
	</g>
	<g>
		<g>
			<circle cx="33.536" cy="13.248" r="1.134"/>
		</g>
		<g>
			<circle cx="34.67" cy="21.808" r="1.134"/>
		</g>
		<g>
			<circle cx="39.304" cy="17" r="1.134"/>
		</g>
	</g>
	<g>
		<g>
			<circle cx="37.536" cy="28.283" r="1.134"/>
		</g>
		<g>
			<circle cx="38.67" cy="36.844" r="1.134"/>
		</g>
		<g>
			<circle cx="43.304" cy="32.036" r="1.134"/>
		</g>
	</g>
	<g>
		<path d="M29.541,26.757h-18.68c-0.441,0-0.8,0.358-0.8,0.8c0,0.442,0.358,0.8,0.8,0.8h18.68c2.324,0,4.215,1.891,4.215,4.215
			c0,2.307-1.863,4.187-4.164,4.214c-2.3-0.028-4.163-1.908-4.163-4.214c0-0.442-0.358-0.8-0.8-0.8s-0.8,0.358-0.8,0.8
			c0,3.152,2.521,5.726,5.651,5.812c0.02,0.001,0.04,0.002,0.061,0.002h0.103c0.021,0,0.041,0,0.061-0.002
			c3.131-0.087,5.651-2.661,5.651-5.812C35.355,29.366,32.747,26.757,29.541,26.757z"/>
	</g>
</g>
</svg>
