<?xml version="1.0" encoding="utf-8"?>
<!-- Generator: Adobe Illustrator 24.0.1, SVG Export Plug-In . SVG Version: 6.00 Build 0)  -->
<svg version="1.1" id="Layer_1" xmlns="http://www.w3.org/2000/svg" xmlns:xlink="http://www.w3.org/1999/xlink" x="0px" y="0px"
	 viewBox="0 0 50.5 50.5" style="enable-background:new 0 0 50.5 50.5;" xml:space="preserve">
<path d="M19.665,13.705c0.152,0.242,0.412,0.375,0.679,0.375c0.146,0,0.292-0.04,0.424-0.123l0.575-0.361v0.678
	c0,0.442,0.358,0.8,0.8,0.8s0.8-0.358,0.8-0.8v-0.678l0.574,0.36c0.132,0.083,0.278,0.123,0.424,0.123
	c0.267,0,0.526-0.133,0.679-0.375c0.234-0.375,0.122-0.868-0.253-1.103l-0.719-0.451l0.719-0.451
	c0.375-0.235,0.487-0.729,0.253-1.103c-0.235-0.375-0.729-0.487-1.103-0.252l-0.574,0.36v-0.678c0-0.442-0.358-0.8-0.8-0.8
	s-0.8,0.358-0.8,0.8v0.678l-0.575-0.361c-0.374-0.235-0.867-0.122-1.103,0.252c-0.234,0.375-0.122,0.868,0.253,1.103l0.719,0.451
	l-0.719,0.451C19.543,12.836,19.43,13.33,19.665,13.705z"/>
<path d="M19.665,26.145c0.152,0.242,0.412,0.375,0.679,0.375c0.146,0,0.292-0.039,0.424-0.122l0.575-0.361v0.678
	c0,0.441,0.358,0.8,0.8,0.8s0.8-0.358,0.8-0.8v-0.678l0.574,0.36c0.132,0.083,0.278,0.122,0.424,0.122
	c0.267,0,0.526-0.133,0.679-0.375c0.234-0.374,0.122-0.868-0.253-1.103l-0.719-0.451l0.719-0.451
	c0.375-0.235,0.487-0.729,0.253-1.103c-0.235-0.374-0.729-0.488-1.103-0.252l-0.574,0.36v-0.678c0-0.442-0.358-0.8-0.8-0.8
	s-0.8,0.358-0.8,0.8v0.678l-0.575-0.361c-0.374-0.235-0.867-0.122-1.103,0.252c-0.234,0.375-0.122,0.868,0.253,1.103l0.719,0.451
	l-0.719,0.451C19.543,25.277,19.43,25.771,19.665,26.145z"/>
<path d="M24.619,35.478c-0.235-0.374-0.729-0.488-1.103-0.253l-0.574,0.36v-0.678c0-0.441-0.358-0.8-0.8-0.8s-0.8,0.358-0.8,0.8
	v0.678l-0.575-0.361c-0.374-0.235-0.867-0.121-1.103,0.253c-0.234,0.374-0.122,0.867,0.253,1.103l0.719,0.451l-0.719,0.451
	c-0.375,0.235-0.487,0.729-0.253,1.103c0.152,0.242,0.412,0.375,0.679,0.375c0.146,0,0.292-0.039,0.424-0.122l0.575-0.361v0.678
	c0,0.441,0.358,0.8,0.8,0.8s0.8-0.358,0.8-0.8v-0.678l0.574,0.36c0.132,0.083,0.278,0.122,0.424,0.122
	c0.267,0,0.526-0.133,0.679-0.375c0.234-0.374,0.122-0.867-0.253-1.103l-0.719-0.451l0.719-0.451
	C24.741,36.345,24.853,35.852,24.619,35.478z"/>
<path d="M12.592,16.816c-0.235-0.375-0.729-0.488-1.103-0.252l-0.575,0.361v-0.678c0-0.442-0.358-0.8-0.8-0.8s-0.8,0.358-0.8,0.8
	v0.678l-0.574-0.36c-0.373-0.235-0.866-0.122-1.103,0.252c-0.234,0.375-0.122,0.868,0.253,1.103l0.719,0.451l-0.719,0.451
	c-0.375,0.235-0.487,0.729-0.253,1.103C7.791,20.167,8.05,20.3,8.317,20.3c0.146,0,0.292-0.04,0.424-0.123l0.574-0.36v0.677
	c0,0.442,0.358,0.8,0.8,0.8s0.8-0.358,0.8-0.8v-0.678l0.575,0.361c0.132,0.083,0.278,0.123,0.424,0.123
	c0.267,0,0.526-0.133,0.679-0.375c0.234-0.375,0.122-0.868-0.253-1.103l-0.719-0.451l0.719-0.451
	C12.714,17.685,12.827,17.191,12.592,16.816z"/>
<path d="M12.592,29.256c-0.235-0.373-0.728-0.487-1.104-0.252l-0.574,0.36v-0.678c0-0.441-0.358-0.8-0.8-0.8s-0.8,0.358-0.8,0.8
	v0.677l-0.573-0.36c-0.377-0.235-0.867-0.121-1.104,0.252c-0.234,0.375-0.122,0.868,0.252,1.104l0.72,0.452l-0.72,0.452
	c-0.374,0.235-0.486,0.729-0.252,1.104c0.152,0.241,0.412,0.374,0.679,0.374c0.146,0,0.292-0.039,0.425-0.122l0.573-0.36v0.676
	c0,0.441,0.358,0.8,0.8,0.8s0.8-0.358,0.8-0.8v-0.677l0.574,0.36c0.133,0.083,0.279,0.122,0.425,0.122
	c0.267,0,0.526-0.133,0.679-0.374c0.234-0.375,0.122-0.868-0.252-1.104l-0.72-0.452l0.72-0.452
	C12.714,30.125,12.827,29.631,12.592,29.256z"/>
<path d="M31.691,19.925c0.152,0.242,0.412,0.375,0.679,0.375c0.146,0,0.292-0.04,0.424-0.123l0.575-0.361v0.678
	c0,0.442,0.358,0.8,0.8,0.8s0.8-0.358,0.8-0.8v-0.677l0.574,0.36c0.132,0.083,0.278,0.123,0.424,0.123
	c0.267,0,0.526-0.133,0.679-0.375c0.234-0.375,0.122-0.868-0.253-1.103l-0.719-0.451l0.719-0.451
	c0.375-0.235,0.487-0.729,0.253-1.103c-0.235-0.375-0.729-0.488-1.103-0.252l-0.574,0.36v-0.678c0-0.442-0.358-0.8-0.8-0.8
	s-0.8,0.358-0.8,0.8v0.678l-0.575-0.361c-0.373-0.235-0.867-0.122-1.103,0.252c-0.234,0.375-0.122,0.868,0.253,1.103l0.719,0.451
	l-0.719,0.451C31.569,19.057,31.457,19.551,31.691,19.925z"/>
<path d="M36.645,29.256c-0.235-0.373-0.727-0.487-1.104-0.252l-0.573,0.36v-0.677c0-0.441-0.358-0.8-0.8-0.8s-0.8,0.358-0.8,0.8
	v0.678l-0.574-0.36c-0.376-0.235-0.868-0.121-1.104,0.252c-0.234,0.375-0.122,0.868,0.252,1.104l0.72,0.452l-0.72,0.452
	c-0.374,0.235-0.486,0.729-0.252,1.104c0.152,0.241,0.412,0.374,0.679,0.374c0.146,0,0.292-0.039,0.425-0.122l0.574-0.36v0.677
	c0,0.441,0.358,0.8,0.8,0.8s0.8-0.358,0.8-0.8v-0.676l0.573,0.36c0.133,0.083,0.279,0.122,0.425,0.122
	c0.267,0,0.526-0.133,0.679-0.374c0.234-0.375,0.122-0.868-0.252-1.104l-0.72-0.452l0.72-0.452
	C36.767,30.125,36.88,29.631,36.645,29.256z"/>
<path d="M42.503,28.285c-1.492-0.748-2.885-1.245-4.256-1.521c-0.428-0.086-0.854,0.193-0.941,0.627
	c-0.087,0.433,0.193,0.854,0.627,0.941c1.229,0.247,2.49,0.699,3.854,1.382c0.115,0.058,0.237,0.085,0.357,0.085
	c0.294,0,0.576-0.161,0.716-0.441C43.057,28.962,42.897,28.482,42.503,28.285z"/>
<path d="M29.227,28.276c-0.476,0.226-0.95,0.46-1.426,0.696c-0.983,0.487-1.999,0.99-3.047,1.408
	c-4.68,1.872-7.849-1.745-7.981-1.899c-0.286-0.335-0.789-0.378-1.126-0.092c-0.338,0.285-0.38,0.79-0.094,1.127
	c0.031,0.038,2.592,2.994,6.568,2.994c0.993,0,2.074-0.184,3.227-0.644c1.106-0.441,2.152-0.96,3.163-1.461
	c0.468-0.231,0.933-0.462,1.399-0.683c0.399-0.189,0.57-0.666,0.382-1.065C30.103,28.258,29.627,28.087,29.227,28.276z"/>
<path d="M42.503,23.682c-6.618-3.317-10.726-1.282-14.698,0.687l-0.553,0.273c-0.396,0.195-0.56,0.675-0.364,1.071
	c0.14,0.282,0.423,0.446,0.719,0.446c0.118,0,0.238-0.026,0.353-0.082l0.557-0.275c3.951-1.958,7.362-3.649,13.271-0.689
	c0.398,0.2,0.877,0.038,1.073-0.357C43.057,24.361,42.898,23.88,42.503,23.682z"/>
<path d="M16.48,25.683c0.13,0.078,0.272,0.116,0.413,0.116c0.271,0,0.535-0.138,0.686-0.386c0.229-0.378,0.107-0.87-0.271-1.099
	c-0.426-0.257-0.672-0.461-0.681-0.468c-0.334-0.281-0.84-0.242-1.126,0.096c-0.285,0.337-0.242,0.842,0.095,1.127
	C15.631,25.098,15.942,25.357,16.48,25.683z"/>
<path d="M38.363,19.225c1.083,0.258,2.234,0.691,3.423,1.287c0.115,0.058,0.237,0.085,0.357,0.085c0.294,0,0.576-0.162,0.716-0.442
	c0.198-0.395,0.039-0.875-0.356-1.074c-1.298-0.65-2.565-1.125-3.769-1.413c-0.428-0.102-0.86,0.163-0.964,0.593
	C37.668,18.69,37.933,19.122,38.363,19.225z"/>
<path d="M26.339,22.165c0.111,0,0.226-0.024,0.333-0.074c0.628-0.289,1.241-0.592,1.851-0.895c0.464-0.23,0.925-0.458,1.389-0.678
	c0.398-0.189,0.569-0.666,0.38-1.065c-0.188-0.399-0.661-0.571-1.065-0.381c-0.472,0.224-0.941,0.457-1.414,0.691
	c-0.596,0.295-1.195,0.592-1.808,0.875c-0.401,0.185-0.577,0.66-0.393,1.061C25.747,21.992,26.036,22.165,26.339,22.165z"/>
<path d="M17.91,22.177c0.124,0.07,0.259,0.104,0.392,0.104c0.279,0,0.551-0.147,0.698-0.408c0.217-0.385,0.08-0.873-0.305-1.089
	c-0.396-0.223-0.776-0.481-1.13-0.768c-0.346-0.277-0.848-0.224-1.125,0.12c-0.278,0.343-0.225,0.847,0.119,1.125
	C16.982,21.603,17.437,21.911,17.91,22.177z"/>
</svg>
