<?xml version="1.0" encoding="utf-8"?>
<!-- Generator: Adobe Illustrator 24.0.1, SVG Export Plug-In . SVG Version: 6.00 Build 0)  -->
<svg version="1.1" id="Layer_1" xmlns="http://www.w3.org/2000/svg" xmlns:xlink="http://www.w3.org/1999/xlink" x="0px" y="0px"
	 viewBox="0 0 50.5 50.5" style="enable-background:new 0 0 50.5 50.5;" xml:space="preserve">
<g>
	<path d="M39.84,24.246c0.05-0.34,0.074-0.679,0.074-1.023c0-3.993-3.248-7.241-7.241-7.241c-1.737,0-3.362,0.605-4.665,1.712
		c-1.203-1.323-2.916-2.096-4.741-2.096c-3.541,0-6.421,2.88-6.421,6.421c0,0.158,0.018,0.311,0.03,0.466
		c-0.265-0.01-0.532-0.002-0.798,0.041c-0.747-1.08-1.998-1.75-3.339-1.75c-2.242,0-4.065,1.819-4.065,4.055
		c0,0.108,0.004,0.214,0.013,0.319c-1.204,0.728-1.954,2.03-1.954,3.464c0,2.076,1.57,3.774,3.582,4.016
		c0.868,3.086,3.706,5.268,6.966,5.268c0.192,0,0.38-0.006,0.565-0.02c0.056,0.013,0.114,0.02,0.173,0.02h18.073
		c0.034,0,0.068-0.002,0.1-0.007c0.098,0.006,0.196,0.007,0.294,0.007c3.992,0,7.24-3.248,7.24-7.241
		C43.727,27.937,42.221,25.485,39.84,24.246z M23.268,17.133c1.423,0,2.76,0.614,3.676,1.666c-0.01,0.012-0.017,0.027-0.026,0.039
		c-0.163,0.215-0.315,0.437-0.452,0.67c-0.525-0.119-1.06-0.178-1.6-0.178c-0.35,0-0.693,0.028-1.032,0.076
		c-0.112,0.016-0.219,0.045-0.33,0.066c-0.223,0.042-0.445,0.087-0.662,0.15c-0.127,0.037-0.249,0.084-0.373,0.128
		c-0.193,0.067-0.383,0.137-0.569,0.22c-0.126,0.056-0.247,0.12-0.37,0.183c-0.174,0.09-0.345,0.186-0.511,0.29
		c-0.118,0.074-0.233,0.151-0.347,0.232c-0.159,0.114-0.313,0.234-0.462,0.36c-0.105,0.089-0.21,0.178-0.31,0.272
		c-0.147,0.139-0.284,0.288-0.419,0.439c-0.088,0.098-0.177,0.193-0.26,0.297c-0.139,0.174-0.263,0.36-0.386,0.548
		c-0.062,0.095-0.131,0.185-0.189,0.284c-0.013,0.022-0.029,0.041-0.042,0.063c-0.049-0.026-0.098-0.051-0.149-0.074
		c-0.049-0.271-0.074-0.555-0.074-0.846C18.382,19.325,20.574,17.133,23.268,17.133z M11.067,31.135
		c-0.015-0.003-0.031,0.003-0.046,0.001c-0.018-0.001-0.031-0.005-0.053-0.003c-0.017-0.001-0.034,0.006-0.05,0.006
		c-0.04,0.002-0.076-0.008-0.12,0.003c-1.395,0-2.529-1.134-2.529-2.529c0-1.018,0.612-1.931,1.559-2.325
		c0.351-0.145,0.542-0.525,0.451-0.894c-0.047-0.187-0.069-0.366-0.069-0.563c0-1.389,1.135-2.519,2.529-2.519
		c0.967,0,1.858,0.559,2.27,1.424c0.165,0.347,0.564,0.519,0.929,0.4c0.543-0.175,1.104-0.162,1.609,0.016
		c0.315,0.107,0.592,0.273,0.845,0.509c0.32,0.28,0.559,0.629,0.691,1.009c0.131,0.376,0.528,0.592,0.913,0.493
		c0.177-0.045,0.378-0.068,0.581-0.068c1.098,0,2.085,0.735,2.407,1.811c0.076,0.227,0.113,0.458,0.113,0.708
		c0,1.395-1.13,2.529-2.52,2.529c-0.09,0-0.178,0.003-0.271-0.011c-0.035-0.006-0.07-0.008-0.104-0.008
		c-0.056,0-0.111,0.007-0.165,0.019h-8.911C11.106,31.139,11.087,31.137,11.067,31.135z M36.487,36.362
		c-0.093,0-0.184,0.002-0.276-0.011c-0.036-0.006-0.073-0.008-0.109-0.008c-0.057,0-0.114,0.007-0.169,0.02H18.265
		c-0.108-0.038-0.226-0.049-0.34-0.035c-0.212,0.026-0.424,0.035-0.644,0.035c-2.401,0-4.514-1.502-5.336-3.683h8.249
		c0.033,0,0.066-0.002,0.098-0.007c0.094,0.006,0.188,0.007,0.286,0.007c2.236,0,4.055-1.823,4.055-4.065
		c0-0.417-0.062-0.807-0.184-1.17c-0.067-0.223-0.154-0.436-0.256-0.639c-0.008-0.016-0.019-0.03-0.027-0.045
		c-0.521-1.007-1.449-1.747-2.535-2.045c-0.007-0.002-0.014-0.003-0.021-0.005c-0.19-0.051-0.383-0.089-0.581-0.112
		c-0.065-0.008-0.131-0.011-0.197-0.016c-0.085-0.005-0.168-0.021-0.255-0.021c-0.104,0-0.207,0.004-0.309,0.011
		c-0.12-0.217-0.265-0.42-0.424-0.61c-0.006-0.007-0.01-0.015-0.015-0.022c0.03-0.059,0.057-0.121,0.09-0.179
		c0.059-0.105,0.122-0.207,0.187-0.308c0.082-0.127,0.169-0.25,0.261-0.369c0.073-0.095,0.148-0.188,0.226-0.277
		c0.098-0.112,0.202-0.219,0.308-0.323c0.084-0.082,0.169-0.164,0.258-0.241c0.114-0.098,0.233-0.188,0.354-0.276
		c0.093-0.068,0.186-0.138,0.284-0.2c0.129-0.082,0.264-0.154,0.399-0.226c0.1-0.053,0.197-0.109,0.3-0.156
		c0.146-0.066,0.298-0.12,0.45-0.174c0.101-0.036,0.199-0.077,0.302-0.108c0.172-0.051,0.349-0.085,0.527-0.119
		c0.089-0.017,0.176-0.043,0.267-0.056c0.271-0.039,0.546-0.061,0.826-0.061c0.597,0,1.188,0.093,1.757,0.276
		c0.368,0.12,0.767-0.055,0.931-0.406c0.238-0.51,0.553-0.977,0.939-1.389c1.095-1.179,2.579-1.828,4.18-1.828
		c3.146,0,5.705,2.559,5.705,5.705c0,0.432-0.05,0.854-0.152,1.291c-0.086,0.366,0.106,0.74,0.453,0.884
		c2.133,0.886,3.512,2.95,3.512,5.257C42.192,33.802,39.632,36.362,36.487,36.362z"/>
	<path d="M23.103,14.837c0.424,0,0.768-0.344,0.768-0.768v-2.067c0-0.424-0.344-0.768-0.768-0.768c-0.424,0-0.768,0.344-0.768,0.768
		v2.067C22.335,14.493,22.679,14.837,23.103,14.837z"/>
	<path d="M26.21,15.473c0.123,0.073,0.258,0.108,0.391,0.108c0.262,0,0.518-0.135,0.662-0.376l1.056-1.777
		c0.217-0.365,0.097-0.836-0.268-1.053c-0.366-0.217-0.836-0.096-1.053,0.268l-1.056,1.778
		C25.725,14.785,25.845,15.257,26.21,15.473z"/>
	<path d="M18.808,15.35c0.143,0.242,0.399,0.376,0.661,0.376c0.133,0,0.268-0.035,0.391-0.108c0.365-0.217,0.485-0.688,0.269-1.052
		l-1.056-1.778c-0.217-0.365-0.688-0.486-1.052-0.269c-0.365,0.217-0.485,0.688-0.269,1.052L18.808,15.35z"/>
	<path d="M14.398,17.424l1.83,0.962c0.114,0.06,0.236,0.089,0.357,0.089c0.276,0,0.543-0.15,0.68-0.411
		c0.197-0.375,0.053-0.84-0.322-1.037l-1.83-0.962c-0.374-0.197-0.839-0.053-1.037,0.323C13.879,16.763,14.023,17.227,14.398,17.424
		z"/>
</g>
</svg>
