<?xml version="1.0" encoding="utf-8"?>
<!-- Generator: Adobe Illustrator 24.0.1, SVG Export Plug-In . SVG Version: 6.00 Build 0)  -->
<svg version="1.1" id="Layer_1" xmlns="http://www.w3.org/2000/svg" xmlns:xlink="http://www.w3.org/1999/xlink" x="0px" y="0px"
	 viewBox="0 0 50.5 50.5" style="enable-background:new 0 0 50.5 50.5;" xml:space="preserve">
<g>
	<path d="M39.641,18.128c0.044-0.303,0.065-0.607,0.065-0.918c0-3.712-3.024-6.732-6.742-6.732c-2.267,0-4.368,1.164-5.593,3.015
		c-1.098-1.173-2.647-1.858-4.275-1.858c-3.094,0-5.63,2.414-5.845,5.459c-0.803-1.155-2.139-1.874-3.567-1.874
		c-2.395,0-4.343,1.948-4.343,4.343c0,0.127,0.006,0.254,0.018,0.381c-1.302,0.773-2.115,2.176-2.115,3.723
		c0,2.394,1.948,4.343,4.343,4.343c0.052,0,0.1,0,0.149-0.002c0.02,0.001,0.041,0.002,0.061,0.002h1.924h8.062
		c0.033,0,0.065-0.002,0.097-0.007c0.101,0.006,0.203,0.007,0.313,0.007c2.395,0,4.343-1.948,4.343-4.343
		c0-0.678-0.161-1.354-0.466-1.953c-0.807-1.588-2.488-2.531-4.256-2.373c-0.112-0.208-0.242-0.404-0.386-0.59
		c-0.047-0.06-0.103-0.112-0.153-0.17c-0.091-0.105-0.178-0.213-0.278-0.309c0.03-0.071,0.061-0.14,0.094-0.208
		c0.073-0.154,0.15-0.305,0.237-0.449c0.069-0.114,0.141-0.225,0.217-0.333c0.079-0.111,0.162-0.216,0.249-0.32
		c0.104-0.124,0.21-0.248,0.325-0.362c0.061-0.061,0.127-0.115,0.19-0.172c0.695-0.621,1.551-1.05,2.485-1.229
		c0.068-0.013,0.135-0.032,0.204-0.042c0.152-0.023,0.309-0.027,0.465-0.036c0.166-0.009,0.331-0.019,0.5-0.012
		c0.076,0.003,0.151,0.008,0.226,0.014c0.287,0.025,0.577,0.065,0.87,0.139c0.095,0.021,0.191,0.048,0.286,0.082
		c0.369,0.13,0.782-0.038,0.951-0.394c0.847-1.784,2.679-2.936,4.669-2.936c2.871,0,5.206,2.331,5.206,5.197
		c0,0.401-0.047,0.785-0.142,1.176c-0.091,0.368,0.102,0.748,0.452,0.892c1.944,0.804,3.201,2.684,3.201,4.79
		c0,2.871-2.331,5.206-5.197,5.206c-0.081-0.001-0.165,0.003-0.245-0.009c-0.092-0.014-0.184-0.011-0.272,0.009h-10.92
		c-0.424,0-0.768,0.344-0.768,0.768s0.344,0.768,0.768,0.768h11.072c0.032,0,0.064-0.002,0.095-0.006
		c0.091,0.005,0.182,0.006,0.27,0.006c3.712,0,6.732-3.024,6.732-6.742C43.216,21.552,41.832,19.284,39.641,18.128z M21.529,20.94
		c1.376-0.322,2.586,0.316,3.172,1.47C24.897,22.795,25,23.23,25,23.667c0,1.548-1.26,2.807-2.807,2.807
		c-0.111,0-0.208,0.003-0.311-0.011c-0.084-0.013-0.168-0.007-0.249,0.011h-7.912h-1.805c-0.071-0.012-0.144-0.012-0.217-0.004
		c-0.04,0.007-0.073,0.004-0.112,0.004c-1.548,0-2.807-1.259-2.807-2.807c0-1.134,0.677-2.148,1.725-2.583
		c0.349-0.145,0.54-0.522,0.452-0.889c-0.054-0.223-0.079-0.424-0.079-0.632c0-1.548,1.26-2.807,2.807-2.807
		c1.087,0,2.056,0.609,2.527,1.59c0.166,0.344,0.559,0.512,0.923,0.4c0.115-0.037,0.228-0.066,0.342-0.087
		c0.009,0.01,0.024,0.013,0.034,0.023c0.022,0.021,0.041,0.044,0.065,0.063c0.025,0.019,0.054,0.03,0.081,0.046
		c0.031,0.019,0.061,0.04,0.095,0.054c0.008,0.003,0.014,0.01,0.023,0.013c0.013,0.005,0.028,0.006,0.042,0.01
		c0.035,0.011,0.071,0.013,0.108,0.019c0.04,0.006,0.078,0.021,0.119,0.021c0.03,0,0.059-0.002,0.089-0.005
		c0.218-0.025,0.44-0.036,0.667-0.035c0.028,0.001,0.056,0.002,0.085,0.003c0.104,0.002,0.21,0.007,0.318,0.017
		c0.082,0.038,0.158,0.084,0.235,0.13c0.068,0.04,0.139,0.076,0.203,0.121c0.091,0.065,0.171,0.143,0.254,0.219
		c0.053,0.049,0.112,0.093,0.161,0.146c0.084,0.091,0.154,0.194,0.226,0.295c0.035,0.05,0.077,0.094,0.109,0.146
		c0.097,0.159,0.178,0.327,0.242,0.504C20.762,20.818,21.15,21.028,21.529,20.94z M24.886,13.624
		c-0.117,0.016-0.231,0.042-0.346,0.063c-0.184,0.034-0.366,0.07-0.545,0.119c-0.12,0.033-0.236,0.073-0.353,0.112
		c-0.169,0.056-0.335,0.116-0.498,0.185c-0.116,0.049-0.228,0.103-0.341,0.158c-0.157,0.077-0.31,0.159-0.46,0.248
		c-0.108,0.064-0.214,0.129-0.318,0.199c-0.146,0.098-0.285,0.202-0.423,0.311c-0.097,0.076-0.193,0.151-0.286,0.233
		c-0.136,0.12-0.263,0.249-0.39,0.38c-0.081,0.084-0.165,0.165-0.242,0.253c-0.131,0.151-0.25,0.313-0.368,0.476
		c-0.058,0.08-0.122,0.156-0.177,0.239c-0.165,0.252-0.317,0.515-0.448,0.791c-0.046-0.006-0.09-0.011-0.135-0.016
		c-0.252-0.097-0.505-0.175-0.763-0.224c0.185-2.223,2.036-3.98,4.301-3.98c0.661,0,1.305,0.153,1.886,0.435
		C24.95,13.61,24.919,13.62,24.886,13.624z"/>
	<path d="M11.155,34.533c-0.424,0-0.768,0.344-0.768,0.768v2.231c0,0.424,0.344,0.768,0.768,0.768c0.424,0,0.768-0.344,0.768-0.768
		v-2.231C11.923,34.877,11.579,34.533,11.155,34.533z"/>
	<path d="M11.154,33.9c0.424,0,0.768-0.344,0.768-0.768v-3.494c0-0.424-0.344-0.768-0.768-0.768c-0.424,0-0.768,0.344-0.768,0.768
		v3.494C10.386,33.556,10.73,33.9,11.154,33.9z"/>
	<path d="M14.91,28.87c-0.001,0-0.001,0-0.002,0c-0.423,0-0.767,0.342-0.768,0.766l-0.015,5.663
		c-0.001,0.424,0.342,0.769,0.766,0.77c0,0,0.001,0,0.002,0c0.423,0,0.767-0.342,0.768-0.766l0.015-5.663
		C15.677,29.216,15.334,28.871,14.91,28.87z"/>
	<path d="M18.637,33.163C18.637,33.163,18.636,33.163,18.637,33.163c-0.425,0-0.768,0.344-0.768,0.769l0.005,4.896
		c0.001,0.424,0.344,0.767,0.768,0.767c0,0,0,0,0.001,0c0.424,0,0.767-0.344,0.767-0.769l-0.005-4.896
		C19.404,33.506,19.061,33.163,18.637,33.163z"/>
	<path d="M18.635,32.542L18.635,32.542c0.425,0,0.768-0.344,0.768-0.769l-0.002-2.136c0-0.424-0.344-0.767-0.768-0.767h-0.001
		c-0.424,0-0.768,0.344-0.767,0.769l0.002,2.136C17.867,32.198,18.211,32.542,18.635,32.542z"/>
	<path d="M22.359,28.87c0,0-0.001,0-0.002,0c-0.423,0-0.767,0.342-0.768,0.766l-0.015,5.663c-0.001,0.424,0.342,0.769,0.766,0.77
		c0,0,0.001,0,0.002,0c0.423,0,0.767-0.342,0.768-0.766l0.015-5.663C23.126,29.216,22.783,28.871,22.359,28.87z"/>
	<path d="M26.664,37.365c-0.424,0-0.768,0.344-0.768,0.768l0,2.23c0,0.425,0.344,0.768,0.768,0.768c0.424,0,0.768-0.344,0.768-0.768
		l-0.001-2.23C27.432,37.708,27.088,37.365,26.664,37.365z"/>
	<path d="M26.664,36.731c0.424,0,0.768-0.344,0.768-0.768v-3.494c0-0.424-0.344-0.768-0.768-0.768c-0.424,0-0.768,0.344-0.768,0.768
		v3.494C25.896,36.387,26.24,36.731,26.664,36.731z"/>
	<path d="M30.42,31.702c0,0-0.001,0-0.002,0c-0.423,0-0.767,0.342-0.768,0.766l-0.015,5.663c-0.001,0.424,0.342,0.769,0.766,0.77
		c0,0,0.001,0,0.002,0c0.423,0,0.767-0.342,0.768-0.766l0.015-5.663C31.187,32.047,30.844,31.702,30.42,31.702z"/>
	<path d="M34.147,35.994C34.147,35.994,34.146,35.994,34.147,35.994c-0.425,0-0.768,0.344-0.768,0.769l0.005,4.897
		c0,0.424,0.344,0.767,0.768,0.767c0,0,0.001,0,0.001,0c0.424,0,0.767-0.344,0.767-0.769l-0.005-4.897
		C34.915,36.337,34.571,35.994,34.147,35.994z"/>
	<path d="M34.145,35.374C34.145,35.374,34.145,35.374,34.145,35.374c0.425,0,0.768-0.344,0.768-0.769l-0.002-2.137
		c-0.001-0.424-0.344-0.767-0.768-0.767c0,0,0,0-0.001,0c-0.424,0-0.767,0.344-0.767,0.769l0.002,2.137
		C33.377,35.031,33.721,35.374,34.145,35.374z"/>
	<path d="M37.869,31.702c0,0-0.001,0-0.002,0c-0.423,0-0.767,0.342-0.768,0.766l-0.015,5.663c-0.001,0.424,0.342,0.769,0.766,0.77
		c0.001,0,0.001,0,0.002,0c0.423,0,0.767-0.342,0.768-0.766l0.015-5.663C38.636,32.047,38.293,31.702,37.869,31.702z"/>
	<path d="M22.944,11.104c0.424,0,0.768-0.344,0.768-0.768V8.472c0-0.424-0.344-0.768-0.768-0.768c-0.424,0-0.768,0.344-0.768,0.768
		v1.864C22.176,10.76,22.52,11.104,22.944,11.104z"/>
	<path d="M25.707,11.667c0.123,0.073,0.258,0.108,0.391,0.108c0.263,0,0.518-0.135,0.661-0.376l0.952-1.603
		c0.217-0.365,0.097-0.836-0.268-1.053c-0.366-0.217-0.837-0.096-1.053,0.268l-0.952,1.603
		C25.222,10.979,25.342,11.451,25.707,11.667z"/>
	<path d="M19.006,11.53c0.144,0.241,0.399,0.376,0.661,0.376c0.133,0,0.268-0.035,0.391-0.108c0.365-0.217,0.485-0.688,0.268-1.053
		l-0.952-1.603c-0.217-0.364-0.686-0.483-1.053-0.268c-0.365,0.217-0.485,0.688-0.268,1.053L19.006,11.53z"/>
	<path d="M15.06,13.429l1.65,0.867c0.114,0.06,0.236,0.089,0.357,0.089c0.276,0,0.543-0.15,0.68-0.411
		c0.197-0.375,0.053-0.84-0.322-1.037l-1.651-0.867c-0.374-0.196-0.839-0.053-1.037,0.322C14.54,12.767,14.684,13.232,15.06,13.429z
		"/>
</g>
</svg>
