<?xml version="1.0" encoding="utf-8"?>
<!-- Generator: Adobe Illustrator 24.0.1, SVG Export Plug-In . SVG Version: 6.00 Build 0)  -->
<svg version="1.1" id="Layer_1" xmlns="http://www.w3.org/2000/svg" xmlns:xlink="http://www.w3.org/1999/xlink" x="0px" y="0px"
	 viewBox="0 0 50.5 50.5" style="enable-background:new 0 0 50.5 50.5;" xml:space="preserve">
<g>
	<path d="M37.8,17c0-0.3,0.1-0.7,0.1-1c0-3.9-3.2-7.1-7.1-7.1c-2.5,0-4.8,1.3-6,3.4c-0.5-0.1-1-0.2-1.5-0.2c-2.7,0-5.2,1.6-6.4,4
		c-0.3,0-0.7-0.1-1-0.1c-3.9,0-7.1,3.2-7.1,7.1c0,3.9,3.2,7.1,7.1,7.1c0.2,0,0.4,0,0.5,0c0.1,0,0.1,0,0.2,0h17.5c0,0,0.1,0,0.1,0
		c0.1,0,0.2,0,0.3,0c3.9,0,7.1-3.2,7.1-7.1C41.6,20.6,40.1,18.2,37.8,17z M34.6,28.8c-0.1,0-0.2,0-0.3,0c0,0-0.1,0-0.1,0
		c-0.1,0-0.1,0-0.2,0H16.9c-0.1,0-0.2,0-0.3,0c-0.2,0-0.4,0-0.6,0c-3,0-5.5-2.5-5.5-5.5c0-3,2.5-5.5,5.5-5.5c0.4,0,0.9,0.1,1.3,0.2
		c0.4,0.1,0.8-0.1,0.9-0.5c0.8-2.2,2.9-3.6,5.2-3.6c0.6,0,1.1,0.1,1.7,0.3c0.4,0.1,0.8-0.1,0.9-0.4c0.9-1.9,2.8-3.1,5-3.1
		c3,0,5.5,2.5,5.5,5.5c0,0.4,0,0.8-0.1,1.2c-0.1,0.4,0.1,0.7,0.5,0.9c2.1,0.9,3.4,2.9,3.4,5.1C40.1,26.3,37.6,28.8,34.6,28.8z"/>
	<path d="M20.6,31.5c-0.7,0-1.2,0.5-1.2,1.2c0,0.7,0.5,1.2,1.2,1.2c0.7,0,1.2-0.5,1.2-1.2C21.9,32,21.3,31.5,20.6,31.5z"/>
	<path d="M20.6,36.8c-0.7,0-1.2,0.5-1.2,1.2c0,0.7,0.5,1.2,1.2,1.2c0.7,0,1.2-0.5,1.2-1.2C21.9,37.4,21.3,36.8,20.6,36.8z"/>
	<path d="M25.7,33.7c-0.7,0-1.2,0.5-1.2,1.2c0,0.7,0.5,1.2,1.2,1.2c0.7,0,1.2-0.5,1.2-1.2C26.9,34.3,26.4,33.7,25.7,33.7z"/>
	<path d="M25.7,39.1c-0.7,0-1.2,0.5-1.2,1.2c0,0.7,0.5,1.2,1.2,1.2c0.7,0,1.2-0.5,1.2-1.2C26.9,39.6,26.4,39.1,25.7,39.1z"/>
	<path d="M31.4,31.5c-0.7,0-1.2,0.5-1.2,1.2c0,0.7,0.5,1.2,1.2,1.2c0.7,0,1.2-0.5,1.2-1.2C32.6,32,32.1,31.5,31.4,31.5z M31.4,33
		c-0.2,0-0.3-0.1-0.3-0.3c0-0.2,0.1-0.3,0.3-0.3s0.3,0.1,0.3,0.3C31.7,32.9,31.6,33,31.4,33z"/>
	<path d="M31.4,36.8c-0.7,0-1.2,0.5-1.2,1.2c0,0.7,0.5,1.2,1.2,1.2c0.7,0,1.2-0.5,1.2-1.2C32.6,37.4,32.1,36.8,31.4,36.8z"/>
</g>
</svg>
