<?xml version="1.0" encoding="utf-8"?>
<!-- Generator: Adobe Illustrator 24.0.1, SVG Export Plug-In . SVG Version: 6.00 Build 0)  -->
<svg version="1.1" id="Layer_1" xmlns="http://www.w3.org/2000/svg" xmlns:xlink="http://www.w3.org/1999/xlink" x="0px" y="0px"
	 viewBox="0 0 50.5 50.5" style="enable-background:new 0 0 50.5 50.5;" xml:space="preserve">
<g>
	<path d="M20.423,27.345h9.192c0.441,0,0.8-0.358,0.8-0.8s-0.358-0.8-0.8-0.8h-9.192c-0.442,0-0.8,0.358-0.8,0.8
		S19.981,27.345,20.423,27.345z"/>
	<path d="M40.841,14.499c0.041-0.3,0.061-0.6,0.061-0.906c0-3.766-3.062-6.829-6.828-6.829c-2.384,0-4.601,1.266-5.819,3.274
		c-0.478-0.104-0.964-0.156-1.453-0.156c-2.498,0-4.768,1.375-5.956,3.531c-0.796-0.379-1.704-0.531-2.602-0.383
		c-0.808-1.188-2.174-1.926-3.637-1.926c-2.432,0-4.41,1.978-4.41,4.41c0,0.122,0.005,0.245,0.016,0.367
		c-1.319,0.787-2.142,2.21-2.142,3.779c0,2.432,1.978,4.41,4.41,4.41c0.442,0,0.8-0.358,0.8-0.8s-0.358-0.8-0.8-0.8
		c-1.549,0-2.81-1.261-2.81-2.81c0-1.136,0.679-2.153,1.729-2.589c0.361-0.15,0.561-0.54,0.472-0.921
		c-0.05-0.214-0.075-0.422-0.075-0.635c0-1.549,1.261-2.81,2.81-2.81c1.072,0,2.062,0.623,2.521,1.586
		c0.172,0.361,0.586,0.542,0.968,0.417c1.407-0.452,3.008,0.332,3.502,1.714c0.139,0.387,0.547,0.606,0.948,0.506
		c0.206-0.051,0.423-0.078,0.646-0.078c1.55,0,2.811,1.261,2.811,2.81s-1.261,2.81-2.811,2.81c-0.106,0-0.209-0.003-0.312-0.016
		c-0.092-0.012-0.184-0.006-0.271,0.016h-2.77c-0.442,0-0.8,0.358-0.8,0.8s0.358,0.8,0.8,0.8h2.94c0.039,0,0.077-0.003,0.115-0.008
		c0.098,0.006,0.196,0.008,0.297,0.008c2.432,0,4.41-1.978,4.41-4.41s-1.979-4.41-4.41-4.41c-0.122,0-0.243,0.005-0.363,0.015
		c-0.183-0.335-0.418-0.633-0.679-0.905c0.878-1.752,2.672-2.879,4.653-2.879c0.546,0,1.088,0.085,1.609,0.254
		c0.384,0.125,0.795-0.054,0.969-0.417c0.854-1.795,2.697-2.955,4.694-2.955c2.883,0,5.229,2.346,5.229,5.229
		c0,0.399-0.045,0.786-0.139,1.184c-0.089,0.381,0.11,0.771,0.472,0.921c1.955,0.813,3.219,2.705,3.219,4.819
		c0,2.2-1.39,4.177-3.458,4.921c-0.416,0.15-0.632,0.608-0.482,1.023c0.117,0.326,0.425,0.529,0.753,0.529
		c0.09,0,0.182-0.015,0.271-0.047c2.702-0.972,4.517-3.555,4.517-6.427C44.453,17.972,43.055,15.676,40.841,14.499z"/>
	<path d="M39,29.231h-2.554l2.959-5.042c0.145-0.247,0.146-0.553,0.004-0.802s-0.407-0.402-0.694-0.402h-5.121
		c-0.316,0-0.603,0.186-0.73,0.475l-3.684,8.281c-0.11,0.247-0.088,0.534,0.06,0.761c0.147,0.228,0.4,0.364,0.671,0.364h1.563
		l-2.595,6.109c-0.149,0.352-0.029,0.76,0.286,0.975c0.137,0.093,0.294,0.138,0.45,0.138c0.204,0,0.407-0.078,0.562-0.23
		l9.385-9.257c0.231-0.228,0.302-0.572,0.179-0.873C39.617,29.428,39.324,29.231,39,29.231z M31.933,35.879l1.486-3.5
		c0.104-0.247,0.079-0.53-0.069-0.754s-0.398-0.358-0.667-0.358h-1.541l2.972-6.682h3.204l-2.958,5.041
		c-0.146,0.248-0.147,0.554-0.005,0.803s0.407,0.402,0.694,0.402h2.001L31.933,35.879z"/>
	<path d="M6.959,33.256c0.238,0,0.474-0.105,0.632-0.309l3.343-4.295c0.271-0.349,0.208-0.852-0.14-1.122
		c-0.35-0.273-0.851-0.211-1.123,0.14l-3.343,4.295c-0.271,0.349-0.208,0.852,0.14,1.122C6.615,33.201,6.788,33.256,6.959,33.256z"
		/>
	<path d="M15.941,33.362c-0.272,0.349-0.21,0.852,0.138,1.123c0.146,0.114,0.32,0.17,0.492,0.17c0.238,0,0.473-0.105,0.631-0.307
		l3.382-4.326c0.272-0.349,0.21-0.852-0.138-1.123c-0.349-0.272-0.851-0.21-1.123,0.137L15.941,33.362z"/>
	<path d="M15.732,34.941c-0.349-0.275-0.852-0.212-1.123,0.138l-4.727,6.048c-0.272,0.348-0.21,0.851,0.138,1.122
		c0.146,0.115,0.32,0.17,0.492,0.17c0.238,0,0.473-0.105,0.631-0.308l4.727-6.048C16.142,35.716,16.08,35.213,15.732,34.941z"/>
	<path d="M11.311,32.682c0.272-0.349,0.21-0.852-0.138-1.123c-0.349-0.272-0.852-0.211-1.123,0.137L6.176,36.65
		c-0.272,0.349-0.21,0.852,0.138,1.123c0.146,0.114,0.32,0.17,0.492,0.17c0.238,0,0.473-0.105,0.631-0.307L11.311,32.682z"/>
	<path d="M9.667,38.073c0.146,0.114,0.319,0.169,0.491,0.169c0.238,0,0.474-0.105,0.632-0.309l4.41-5.666
		c0.271-0.349,0.208-0.852-0.14-1.122c-0.349-0.273-0.852-0.21-1.123,0.14l-4.41,5.666C9.256,37.3,9.319,37.803,9.667,38.073z"/>
	<path d="M9.462,38.33c-0.349-0.271-0.852-0.209-1.123,0.141L6.98,40.219c-0.271,0.349-0.208,0.852,0.141,1.123
		c0.146,0.113,0.319,0.168,0.491,0.168c0.238,0,0.475-0.105,0.632-0.309l1.359-1.748C9.874,39.104,9.811,38.602,9.462,38.33z"/>
	<path d="M21.771,33.15c0.271-0.35,0.208-0.852-0.141-1.123c-0.35-0.271-0.852-0.207-1.123,0.141l-2.906,3.739
		c-0.271,0.35-0.208,0.852,0.141,1.123c0.146,0.113,0.319,0.168,0.49,0.168c0.238,0,0.475-0.106,0.632-0.309L21.771,33.15z"/>
	<path d="M16.315,37.58l-1.359,1.748c-0.271,0.349-0.208,0.852,0.141,1.123c0.146,0.113,0.319,0.168,0.491,0.168
		c0.238,0,0.475-0.105,0.632-0.309l1.359-1.748c0.271-0.349,0.208-0.852-0.141-1.123C17.089,37.168,16.586,37.23,16.315,37.58z"/>
	<path d="M22.122,34.981l-3.614,4.651c-0.271,0.35-0.208,0.852,0.141,1.123c0.146,0.113,0.319,0.168,0.49,0.168
		c0.238,0,0.475-0.106,0.632-0.309l3.614-4.651c0.271-0.35,0.208-0.852-0.141-1.123C22.895,34.569,22.393,34.634,22.122,34.981z"/>
	<path d="M26.817,28.759l-3.383,4.327c-0.272,0.348-0.21,0.851,0.138,1.122c0.146,0.115,0.32,0.17,0.492,0.17
		c0.238,0,0.473-0.105,0.631-0.307l3.382-4.327c0.272-0.349,0.211-0.852-0.138-1.123C27.591,28.345,27.088,28.41,26.817,28.759z"/>
	<path d="M13.247,29.848c0.1,0.061,0.21,0.089,0.319,0.089c0.188,0,0.373-0.085,0.493-0.245l3.828-5.062
		c0.141-0.187,0.165-0.438,0.06-0.647c-0.104-0.209-0.316-0.341-0.55-0.343l1.376-2.501c0.105-0.191,0.102-0.424-0.009-0.612
		c-0.111-0.188-0.313-0.303-0.532-0.303h-1.35c-0.237,0-0.454,0.136-0.557,0.35l-2.182,4.53c-0.092,0.191-0.079,0.417,0.034,0.597
		c0.072,0.114,0.177,0.199,0.299,0.247l-1.469,3.111C12.874,29.342,12.977,29.684,13.247,29.848z"/>
</g>
</svg>
