<?xml version="1.0" encoding="utf-8"?>
<!-- Generator: Adobe Illustrator 24.0.1, SVG Export Plug-In . SVG Version: 6.00 Build 0)  -->
<svg version="1.1" id="Layer_1" xmlns="http://www.w3.org/2000/svg" xmlns:xlink="http://www.w3.org/1999/xlink" x="0px" y="0px"
	 viewBox="0 0 50.5 50.5" style="enable-background:new 0 0 50.5 50.5;" xml:space="preserve">
<path d="M34.912,11.284c-0.021-0.002-0.042-0.002-0.064-0.002h-0.126c-0.022,0-0.043,0-0.064,0.002
	c-3.772,0.102-6.81,3.202-6.81,6.998c0,0.442,0.358,0.8,0.8,0.8s0.8-0.358,0.8-0.8c0-2.957,2.389-5.366,5.337-5.4
	c2.949,0.034,5.337,2.443,5.337,5.4c0,2.978-2.423,5.401-5.4,5.401H6.679c-0.442,0-0.8,0.358-0.8,0.8s0.358,0.8,0.8,0.8h28.042
	c3.86,0,7-3.14,7-7C41.721,14.485,38.684,11.385,34.912,11.284z"/>
<path d="M6.679,21.208h12.406c3.86,0,7-3.14,7-7c0-3.796-3.037-6.896-6.81-6.998c-0.021-0.002-0.042-0.002-0.064-0.002h-0.126
	c-0.022,0-0.043,0-0.064,0.002c-3.772,0.102-6.81,3.202-6.81,6.998c0,0.442,0.358,0.8,0.8,0.8s0.8-0.358,0.8-0.8
	c0-2.957,2.389-5.366,5.337-5.4c2.949,0.034,5.338,2.443,5.338,5.4c0,2.978-2.423,5.401-5.401,5.401H6.679
	c-0.442,0-0.8,0.358-0.8,0.8S6.237,21.208,6.679,21.208z"/>
<path d="M34.721,27.974H6.679c-0.442,0-0.8,0.358-0.8,0.8s0.358,0.8,0.8,0.8h28.042c2.978,0,5.4,2.423,5.4,5.4s-2.422,5.4-5.399,5.4
	c-2.978,0-5.401-2.423-5.401-5.4c0-0.441-0.358-0.8-0.8-0.8s-0.8,0.358-0.8,0.8c0,3.86,3.14,7,6.999,7c3.86,0,7-3.14,7-7
	S38.581,27.974,34.721,27.974z"/>
</svg>
