<?xml version="1.0" encoding="utf-8"?>
<!-- Generator: Adobe Illustrator 24.0.1, SVG Export Plug-In . SVG Version: 6.00 Build 0)  -->
<svg version="1.1" id="Layer_1" xmlns="http://www.w3.org/2000/svg" xmlns:xlink="http://www.w3.org/1999/xlink" x="0px" y="0px"
	 viewBox="0 0 50.5 50.5" style="enable-background:new 0 0 50.5 50.5;" xml:space="preserve">
<g>
	<path d="M11.284,32.755c-0.424,0-0.768,0.344-0.768,0.768v2.231c0,0.424,0.344,0.768,0.768,0.768c0.424,0,0.768-0.344,0.768-0.768
		v-2.231C12.052,33.099,11.708,32.755,11.284,32.755z"/>
	<path d="M11.284,27.091c-0.424,0-0.768,0.344-0.768,0.768l0.001,3.495c0,0.425,0.344,0.768,0.768,0.768
		c0.424,0,0.768-0.344,0.768-0.768l0-3.495C12.052,27.435,11.708,27.091,11.284,27.091z"/>
	<path d="M15.039,27.091c0,0-0.001,0-0.002,0c-0.423,0-0.767,0.342-0.768,0.766l-0.015,5.663c-0.001,0.424,0.342,0.769,0.766,0.77
		c0.001,0,0.001,0,0.002,0c0.423,0,0.767-0.342,0.768-0.766l0.015-5.663C15.807,27.437,15.464,27.092,15.039,27.091z"/>
	<path d="M18.766,31.385C18.766,31.385,18.766,31.385,18.766,31.385c-0.425,0-0.768,0.344-0.768,0.769l0.005,4.896
		c0,0.424,0.344,0.767,0.768,0.767c0,0,0,0,0.001,0c0.424,0,0.767-0.344,0.767-0.769l-0.005-4.896
		C19.534,31.728,19.19,31.385,18.766,31.385z"/>
	<path d="M18.764,30.764C18.765,30.764,18.765,30.764,18.764,30.764c0.425,0,0.768-0.344,0.768-0.769l-0.002-2.137
		c0-0.424-0.344-0.767-0.768-0.767c0,0,0,0-0.001,0c-0.424,0-0.767,0.344-0.767,0.769l0.002,2.137
		C17.997,30.421,18.341,30.764,18.764,30.764z"/>
	<path d="M22.489,27.091c0,0-0.001,0-0.002,0c-0.423,0-0.767,0.342-0.768,0.766l-0.015,5.663c-0.001,0.424,0.342,0.769,0.766,0.77
		c0,0,0.001,0,0.002,0c0.423,0,0.767-0.342,0.768-0.766l0.015-5.663C23.256,27.437,22.913,27.092,22.489,27.091z"/>
	<path d="M25.764,36.054c-0.424,0-0.768,0.344-0.768,0.768v2.231c0,0.424,0.344,0.768,0.768,0.768c0.424,0,0.768-0.344,0.768-0.768
		v-2.231C26.532,36.398,26.189,36.054,25.764,36.054z"/>
	<path d="M25.764,30.391c-0.424,0-0.768,0.344-0.768,0.768l0,3.494c0,0.425,0.344,0.768,0.768,0.768
		c0.424,0,0.768-0.344,0.768-0.768l0-3.494C26.532,30.735,26.188,30.391,25.764,30.391z"/>
	<path d="M29.519,30.391c-0.001,0-0.001,0-0.002,0c-0.423,0-0.767,0.342-0.768,0.766l-0.015,5.663
		c-0.001,0.424,0.342,0.769,0.766,0.77c0,0,0.001,0,0.002,0c0.423,0,0.767-0.342,0.768-0.766l0.015-5.662
		C30.287,30.737,29.944,30.392,29.519,30.391z"/>
	<path d="M33.246,34.684C33.246,34.684,33.246,34.684,33.246,34.684c-0.425,0-0.768,0.344-0.768,0.769l0.005,4.896
		c0.001,0.424,0.344,0.767,0.768,0.767c0,0,0.001,0,0.001,0c0.424,0,0.767-0.344,0.767-0.769l-0.005-4.896
		C34.014,35.027,33.67,34.684,33.246,34.684z"/>
	<path d="M33.245,34.064C33.245,34.064,33.245,34.064,33.245,34.064c0.425,0,0.768-0.344,0.768-0.769l-0.002-2.137
		c-0.001-0.424-0.344-0.767-0.768-0.767c0,0,0,0-0.001,0c-0.424,0-0.767,0.344-0.767,0.769l0.002,2.137
		C32.477,33.721,32.821,34.064,33.245,34.064z"/>
	<path d="M36.969,30.391c0,0-0.001,0-0.002,0c-0.423,0-0.767,0.342-0.768,0.766l-0.015,5.663c-0.001,0.424,0.342,0.769,0.766,0.77
		c0.001,0,0.001,0,0.002,0c0.423,0,0.767-0.342,0.768-0.766l0.015-5.662C37.736,30.737,37.393,30.392,36.969,30.391z"/>
	<path d="M39.639,16.966c0.041-0.301,0.061-0.601,0.061-0.907c0-3.717-3.02-6.742-6.732-6.742c-1.603,0-3.139,0.581-4.348,1.605
		c-1.238-1.609-3.159-2.581-5.219-2.581c-3.641,0-6.604,2.958-6.613,6.597c-0.805-0.827-1.919-1.326-3.1-1.326
		c-2.395,0-4.343,1.948-4.343,4.343c0,0.124,0.006,0.249,0.017,0.377c-1.307,0.775-2.124,2.18-2.124,3.727
		c0,2.446,2.063,4.434,4.498,4.341c0.021,0.002,0.042,0.003,0.064,0.003h1.651h8.326c0.033,0,0.067-0.003,0.099-0.007
		c0.104,0.006,0.208,0.007,0.312,0.007c2.394,0,4.343-1.949,4.343-4.343c0-0.7-0.166-1.386-0.476-1.973
		c-0.705-1.377-2.063-2.266-3.583-2.361c-0.217-0.014-0.436-0.011-0.658,0.008c-0.124-0.226-0.275-0.435-0.438-0.637
		c-0.042-0.052-0.085-0.103-0.13-0.154c-0.038-0.043-0.071-0.089-0.111-0.131c0.023-0.046,0.042-0.096,0.067-0.141
		c0.052-0.096,0.109-0.188,0.166-0.28c0.075-0.12,0.154-0.238,0.238-0.352c0.066-0.088,0.134-0.172,0.205-0.255
		c0.091-0.107,0.186-0.209,0.285-0.308c0.077-0.077,0.155-0.152,0.237-0.224c0.105-0.093,0.216-0.179,0.328-0.263
		c0.086-0.064,0.172-0.129,0.262-0.188c0.12-0.078,0.245-0.148,0.371-0.216c0.092-0.05,0.182-0.102,0.277-0.147
		c0.135-0.063,0.276-0.115,0.417-0.166c0.093-0.034,0.184-0.073,0.28-0.102c0.159-0.048,0.323-0.081,0.488-0.114
		c0.083-0.017,0.163-0.04,0.246-0.053c0.25-0.037,0.505-0.059,0.762-0.059c0.547,0,1.085,0.083,1.601,0.247
		c0.364,0.115,0.758-0.055,0.924-0.399c0.208-0.432,0.469-0.826,0.778-1.175c0.99-1.122,2.412-1.765,3.902-1.765
		c2.865,0,5.197,2.335,5.197,5.206c0,0.394-0.045,0.78-0.136,1.178c-0.084,0.365,0.108,0.737,0.454,0.881
		c1.945,0.808,3.202,2.688,3.202,4.79c0,2.871-2.335,5.206-5.206,5.206c-0.083,0-0.164,0.003-0.253-0.01
		c-0.088-0.014-0.178-0.008-0.265,0.01H24.915c-0.424,0-0.768,0.344-0.768,0.768c0,0.424,0.344,0.768,0.768,0.768h11.199
		c0.032,0,0.064-0.002,0.095-0.006c0.091,0.005,0.18,0.006,0.27,0.006c3.717,0,6.742-3.024,6.742-6.742
		C43.221,20.393,41.834,18.123,39.639,16.966z M21.539,19.332c1.284-0.309,2.567,0.318,3.154,1.463
		c0.198,0.376,0.303,0.813,0.303,1.265c0,1.548-1.259,2.807-2.807,2.807c-0.104,0.001-0.206,0.002-0.309-0.012
		c-0.086-0.011-0.172-0.007-0.254,0.012h-8.175H11.92c-0.071-0.012-0.145-0.012-0.218-0.003c-0.022,0.003-0.044,0.004-0.066,0.004
		c-1.561,0.016-2.862-1.242-2.862-2.808c0-1.131,0.678-2.145,1.727-2.584c0.338-0.142,0.53-0.503,0.456-0.863
		c-0.052-0.253-0.076-0.456-0.076-0.657c0-1.548,1.26-2.807,2.807-2.807c1.065,0,2.053,0.624,2.518,1.59
		c0.166,0.346,0.562,0.516,0.927,0.398c0.207-0.067,0.417-0.109,0.636-0.13C17.829,17.001,17.89,17,17.95,17
		c0.662-0.007,1.27,0.196,1.775,0.601c0.422,0.333,0.737,0.764,0.912,1.245C20.769,19.214,21.156,19.423,21.539,19.332z
		 M27.209,12.563c-0.473-0.102-0.958-0.154-1.446-0.154c-0.329,0-0.654,0.028-0.974,0.076c-0.106,0.016-0.207,0.044-0.312,0.065
		c-0.212,0.042-0.422,0.086-0.628,0.147c-0.12,0.036-0.235,0.082-0.353,0.124c-0.183,0.066-0.364,0.135-0.54,0.216
		c-0.119,0.055-0.234,0.116-0.35,0.178c-0.166,0.088-0.327,0.181-0.485,0.283c-0.112,0.072-0.22,0.146-0.327,0.224
		c-0.151,0.11-0.296,0.228-0.437,0.351c-0.099,0.085-0.198,0.171-0.291,0.262c-0.139,0.135-0.267,0.279-0.394,0.426
		c-0.081,0.094-0.166,0.185-0.242,0.284c-0.132,0.171-0.248,0.352-0.363,0.536c-0.055,0.088-0.117,0.171-0.168,0.262
		c-0.009,0.016-0.021,0.03-0.03,0.046c-0.048-0.023-0.101-0.035-0.15-0.056c-0.188-0.083-0.377-0.159-0.576-0.214
		c-0.027-0.007-0.056-0.01-0.083-0.017c-0.227-0.058-0.458-0.102-0.696-0.121c-0.005,0-0.01-0.002-0.015-0.003
		c-0.017-0.167-0.025-0.341-0.025-0.523c0-2.8,2.278-5.078,5.078-5.078c1.661,0,3.209,0.822,4.149,2.175
		C27.429,12.216,27.316,12.387,27.209,12.563z"/>
</g>
</svg>
