<?xml version="1.0" encoding="utf-8"?>
<!-- Generator: Adobe Illustrator 24.0.1, SVG Export Plug-In . SVG Version: 6.00 Build 0)  -->
<svg version="1.1" id="Layer_1" xmlns="http://www.w3.org/2000/svg" xmlns:xlink="http://www.w3.org/1999/xlink" x="0px" y="0px"
	 viewBox="0 0 50.5 50.5" style="enable-background:new 0 0 50.5 50.5;" xml:space="preserve">
<g>
	<path d="M22.6,33.5c-0.7,0-1.3,0.6-1.3,1.3s0.6,1.3,1.3,1.3s1.3-0.6,1.3-1.3S23.3,33.5,22.6,33.5z"/>
	<path d="M22.6,38.1c-0.7,0-1.3,0.6-1.3,1.3s0.6,1.3,1.3,1.3s1.3-0.6,1.3-1.3S23.3,38.1,22.6,38.1z"/>
	<path d="M27.1,35.8c-0.7,0-1.3,0.6-1.3,1.3c0,0.7,0.6,1.3,1.3,1.3s1.3-0.6,1.3-1.3C28.3,36.4,27.8,35.8,27.1,35.8z"/>
	<path d="M27.1,31.2c-0.7,0-1.3,0.6-1.3,1.3s0.6,1.3,1.3,1.3s1.3-0.6,1.3-1.3S27.8,31.2,27.1,31.2z"/>
	<path d="M27.1,40.5c-0.7,0-1.3,0.6-1.3,1.3s0.6,1.3,1.3,1.3s1.3-0.6,1.3-1.3S27.8,40.5,27.1,40.5z"/>
	<path d="M31.6,33.5c-0.7,0-1.3,0.6-1.3,1.3s0.6,1.3,1.3,1.3s1.3-0.6,1.3-1.3S32.3,33.5,31.6,33.5z"/>
	<path d="M31.6,38.1c-0.7,0-1.3,0.6-1.3,1.3s0.6,1.3,1.3,1.3s1.3-0.6,1.3-1.3S32.3,38.1,31.6,38.1z"/>
	<path d="M9.5,25.8c-0.7,0-1.3,0.6-1.3,1.3c0,0.7,0.6,1.3,1.3,1.3s1.3-0.6,1.3-1.3C10.7,26.3,10.2,25.8,9.5,25.8z"/>
	<path d="M9.5,30.4c-0.7,0-1.3,0.6-1.3,1.3s0.6,1.3,1.3,1.3s1.3-0.6,1.3-1.3S10.2,30.4,9.5,30.4z"/>
	<path d="M14,28.1c-0.7,0-1.3,0.6-1.3,1.3s0.6,1.3,1.3,1.3s1.3-0.6,1.3-1.3S14.7,28.1,14,28.1z"/>
	<path d="M14,23.5c-0.7,0-1.3,0.6-1.3,1.3S13.3,26,14,26s1.3-0.6,1.3-1.3S14.7,23.5,14,23.5z"/>
	<path d="M14,32.7c-0.7,0-1.3,0.6-1.3,1.3s0.6,1.3,1.3,1.3s1.3-0.6,1.3-1.3S14.7,32.7,14,32.7z"/>
	<path d="M18.5,25.8c-0.7,0-1.3,0.6-1.3,1.3c0,0.7,0.6,1.3,1.3,1.3s1.3-0.6,1.3-1.3C19.7,26.3,19.2,25.8,18.5,25.8z"/>
	<path d="M18.5,30.4c-0.7,0-1.3,0.6-1.3,1.3s0.6,1.3,1.3,1.3s1.3-0.6,1.3-1.3S19.2,30.4,18.5,30.4z"/>
	<path d="M35.7,25.8c-0.7,0-1.3,0.6-1.3,1.3c0,0.7,0.6,1.3,1.3,1.3S37,27.7,37,27C37,26.3,36.4,25.8,35.7,25.8z"/>
	<path d="M35.7,30.4c-0.7,0-1.3,0.6-1.3,1.3s0.6,1.3,1.3,1.3s1.3-0.6,1.3-1.3S36.4,30.4,35.7,30.4z"/>
	<path d="M40.2,28.1c-0.7,0-1.3,0.6-1.3,1.3s0.6,1.3,1.3,1.3s1.3-0.6,1.3-1.3S40.9,28.1,40.2,28.1z"/>
	<path d="M40.2,23.5c-0.7,0-1.3,0.6-1.3,1.3s0.6,1.3,1.3,1.3s1.3-0.6,1.3-1.3S40.9,23.5,40.2,23.5z"/>
	<path d="M40.2,32.7c-0.7,0-1.3,0.6-1.3,1.3s0.6,1.3,1.3,1.3s1.3-0.6,1.3-1.3S40.9,32.7,40.2,32.7z"/>
	<path d="M44.7,25.8c-0.7,0-1.3,0.6-1.3,1.3c0,0.7,0.6,1.3,1.3,1.3s1.3-0.6,1.3-1.3C45.9,26.3,45.4,25.8,44.7,25.8z"/>
	<path d="M44.7,30.4c-0.7,0-1.3,0.6-1.3,1.3s0.6,1.3,1.3,1.3s1.3-0.6,1.3-1.3S45.4,30.4,44.7,30.4z"/>
	<path d="M31.8,29.3c0.4,0,0.8-0.4,0.8-0.8s-0.4-0.8-0.8-0.8h-9.2c-0.4,0-0.8,0.4-0.8,0.8s0.4,0.8,0.8,0.8H31.8z"/>
	<path d="M44,22.1c0-2.7-1.5-5.1-3.8-6.4c0-0.3,0.1-0.7,0.1-1c0-4-3.2-7.2-7.2-7.2c-2.5,0-4.9,1.3-6.1,3.5c-0.5-0.1-1-0.2-1.6-0.2
		c-2.4,0-4.6,1.2-5.9,3.1c0,0-0.1,0-0.1,0c-0.1,0-0.2,0-0.3,0c-0.9-1.6-2.7-2.5-4.5-2.2c-0.8-1.2-2.1-1.9-3.6-1.9
		c-2.4,0-4.3,1.9-4.3,4.3c0,0.1,0,0.2,0,0.4c-1.3,0.8-2.1,2.2-2.1,3.7c0,2.4,1.9,4.3,4.3,4.3h10.5c2.4,0,4.3-1.9,4.3-4.3
		c0-1.7-1-3.2-2.5-3.9c1-1.2,2.6-1.9,4.2-1.9c0.6,0,1.2,0.1,1.7,0.3c0.4,0.1,0.8-0.1,1-0.4c0.9-1.9,2.9-3.2,5-3.2
		c3.1,0,5.6,2.5,5.6,5.6c0,0.4,0,0.8-0.1,1.3c-0.1,0.4,0.1,0.8,0.5,0.9c2.1,0.9,3.4,2.9,3.4,5.2c0,0.4,0.4,0.8,0.8,0.8
		S44,22.5,44,22.1z M22.1,18.3c0,1.5-1.2,2.7-2.7,2.7H8.9c-1.5,0-2.7-1.2-2.7-2.7c0-1.1,0.7-2.1,1.7-2.5c0.4-0.2,0.6-0.6,0.5-0.9
		c0-0.2-0.1-0.4-0.1-0.6c0-1.5,1.2-2.7,2.7-2.7c1,0,2,0.6,2.5,1.5c0.2,0.4,0.6,0.5,1,0.4c0.3-0.1,0.6-0.1,0.8-0.1
		c1.2,0,2.2,0.7,2.6,1.8c0.1,0.4,0.5,0.6,0.9,0.5l0.1,0c0,0,0.1,0,0.2,0c0.1,0,0.2,0,0.3,0C20.9,15.5,22.1,16.8,22.1,18.3z"/>
</g>
</svg>
