<?xml version="1.0" encoding="utf-8"?>
<!-- Generator: Adobe Illustrator 24.2.1, SVG Export Plug-In . SVG Version: 6.00 Build 0)  -->
<svg version="1.1" id="Capa_1" xmlns="http://www.w3.org/2000/svg" xmlns:xlink="http://www.w3.org/1999/xlink" x="0px" y="0px"
	 viewBox="0 0 50.5 50.5" style="enable-background:new 0 0 50.5 50.5;" xml:space="preserve">
<g>
	<path d="M16.662,11.642c0.402,0.183,0.876,0.007,1.06-0.395c1.527-3.341,2.64-5.736,2.663-5.789
		c0.316-0.827,0.863-1.705,1.069-1.799c0.156,0.002,0.204,0.03,0.205,0.03c0.012,0.011,0.119,0.126,0.183,0.8
		c0.122,1.266,0.274,2.842,1.762,3.165c0.945,0.2,1.85-0.485,2.206-1.675l0.044-0.149c0.276-0.933,0.404-1.174,0.622-1.174
		c0.066,0,0.222,0,0.487,1.008c0.178,0.679,0.307,1.295,0.421,1.835c0.37,1.767,0.73,3.433,2.542,3.121
		c1.773-0.306,1.385-3.017,1.072-5.195c-0.049-0.342-0.095-0.657-0.124-0.92c-0.046-0.417-0.169-1.526,0.055-1.579
		c0.118,0.043,0.558,0.486,1.014,1.91c1.044,3.264,5.297,15.265,5.34,15.385c0.116,0.328,0.425,0.533,0.754,0.533
		c0.089,0,0.179-0.015,0.268-0.046c0.416-0.147,0.634-0.605,0.486-1.021c-0.043-0.121-4.287-12.098-5.324-15.338
		c-0.701-2.193-1.626-3.201-2.773-2.995c-1.741,0.318-1.524,2.275-1.408,3.327c0.031,0.279,0.078,0.61,0.13,0.971
		c0.115,0.799,0.412,2.873,0.155,3.401c-0.032,0.001-0.052,0-0.056,0c-0.198-0.139-0.41-1.146-0.564-1.882
		c-0.118-0.563-0.253-1.206-0.439-1.913c-0.188-0.715-0.578-2.202-2.034-2.202c-1.469,0-1.866,1.34-2.156,2.319L24.276,5.52
		c-0.115,0.382-0.303,0.554-0.335,0.57c-0.252-0.055-0.389-0.53-0.507-1.754c-0.065-0.673-0.216-2.251-1.958-2.276
		c-0.007,0-0.013,0-0.02,0c-1.345,0-2.243,1.976-2.545,2.777c0,0-1.115,2.399-2.645,5.746C16.083,10.984,16.26,11.458,16.662,11.642
		z"/>
	<path d="M33.504,34.208c0-0.441-0.358-0.8-0.8-0.8H9.958c-0.019-0.001-0.459-0.02-0.717-0.359c-0.274-0.36-0.306-1.016-0.092-1.893
		c0.163-0.67,0.923-2.754,3.614-8.879c0.178-0.404-0.006-0.876-0.411-1.054c-0.403-0.177-0.876,0.006-1.054,0.411
		c-2.229,5.073-3.44,8.063-3.704,9.144c-0.341,1.4-0.208,2.501,0.396,3.271c0.732,0.933,1.831,0.96,1.955,0.96h22.759
		C33.146,35.008,33.504,34.649,33.504,34.208z"/>
	<path d="M6.205,21.503c0.201,0,0.402-0.075,0.558-0.226c0.018-0.017,1.784-1.707,4.196-1.707c0.001,0,0.001,0,0.002,0
		c1.744,0,2.674,0.47,3.574,0.924c0.292,0.147,0.576,0.29,0.871,0.414c1.863,0.781,3.527,0.672,5.089-0.332
		c0.372-0.239,0.479-0.734,0.24-1.105c-0.238-0.372-0.732-0.479-1.105-0.24c-1.117,0.718-2.228,0.78-3.604,0.203
		c-0.262-0.11-0.512-0.237-0.771-0.368c-0.967-0.488-2.17-1.095-4.294-1.095c-0.001,0-0.002,0-0.002,0
		c-3.055,0-5.221,2.071-5.312,2.159c-0.317,0.308-0.324,0.814-0.016,1.131C5.788,21.422,5.996,21.503,6.205,21.503z"/>
	<path d="M12.951,40.886c1.453-2.289,2.681-2.807,4.531-3.386c0.421-0.133,0.656-0.581,0.524-1.003
		c-0.132-0.421-0.582-0.655-1.002-0.524c-2.001,0.627-3.669,1.324-5.403,4.056c-0.981,1.545-2.084,3.048-4.779,4.445
		c-2.265,1.173-4.002,1.112-4.053,1.115c-0.432-0.027-0.815,0.314-0.841,0.754c-0.025,0.44,0.313,0.818,0.753,0.844
		c0.013,0.001,0.065,0.003,0.154,0.003c0.539,0,2.405-0.096,4.722-1.296C10.604,44.314,11.893,42.554,12.951,40.886z"/>
	<path d="M32.64,36.286c-2.639,0.855-3.257,3.779-3.46,4.739c-0.266,1.253-0.885,2.716-1.657,3.915
		c-0.57,0.886-1.904,1.84-2.371,2.133c-0.374,0.235-0.487,0.729-0.252,1.103c0.152,0.242,0.412,0.375,0.678,0.375
		c0.145,0,0.292-0.039,0.424-0.122c0.081-0.051,1.984-1.253,2.866-2.621c0.872-1.354,1.573-3.019,1.876-4.45
		c0.431-2.033,1.189-3.16,2.39-3.55c0.42-0.136,0.65-0.587,0.514-1.008C33.512,36.38,33.06,36.151,32.64,36.286z"/>
	<path d="M17.637,43.073c-0.175-0.499-0.772-1.344-1.903-1.344c-1.095,0-1.705,0.798-1.892,1.27
		c-0.164,0.41,0.037,0.876,0.447,1.039c0.411,0.165,0.876-0.036,1.039-0.447c0.001-0.003,0.117-0.262,0.406-0.262
		c0.254,0,0.364,0.202,0.394,0.273c0.115,0.329,0.424,0.535,0.755,0.535c0.088,0,0.177-0.014,0.265-0.045
		C17.563,43.947,17.783,43.49,17.637,43.073z"/>
	<path d="M24.806,43.073c-0.175-0.499-0.773-1.344-1.904-1.344c-1.095,0-1.705,0.798-1.892,1.27
		c-0.164,0.41,0.037,0.876,0.447,1.039c0.412,0.165,0.876-0.036,1.039-0.447c0.001-0.003,0.117-0.262,0.406-0.262
		c0.255,0,0.365,0.203,0.394,0.273c0.116,0.329,0.425,0.535,0.755,0.535c0.088,0,0.177-0.015,0.265-0.045
		C24.732,43.946,24.952,43.49,24.806,43.073z"/>
	<path d="M11.801,45.375c-1.094,0-1.704,0.798-1.892,1.27c-0.164,0.41,0.037,0.875,0.447,1.039c0.411,0.165,0.876-0.036,1.04-0.447
		c0.001-0.002,0.117-0.262,0.406-0.262c0.255,0,0.365,0.203,0.394,0.273c0.116,0.329,0.425,0.535,0.755,0.535
		c0.088,0,0.177-0.015,0.265-0.045c0.417-0.146,0.637-0.603,0.49-1.02C13.529,46.22,12.932,45.375,11.801,45.375z"/>
	<path d="M19.066,45.375c-1.095,0-1.705,0.798-1.892,1.27c-0.164,0.41,0.037,0.876,0.447,1.039c0.411,0.165,0.876-0.036,1.039-0.447
		c0.001-0.003,0.117-0.262,0.406-0.262c0.255,0,0.365,0.203,0.394,0.273c0.116,0.329,0.425,0.535,0.755,0.535
		c0.088,0,0.177-0.015,0.265-0.045c0.417-0.146,0.637-0.603,0.49-1.02C20.794,46.22,20.197,45.375,19.066,45.375z"/>
	<path d="M19.844,38.084c-1.094,0-1.704,0.798-1.892,1.27c-0.164,0.41,0.037,0.875,0.447,1.039c0.41,0.164,0.875-0.036,1.04-0.447
		c0.001-0.002,0.117-0.262,0.406-0.262c0.255,0,0.365,0.202,0.394,0.273c0.115,0.329,0.424,0.535,0.755,0.535
		c0.088,0,0.177-0.014,0.265-0.045c0.417-0.146,0.636-0.603,0.49-1.02C21.573,38.929,20.975,38.084,19.844,38.084z"/>
	<path d="M26.229,38.084c-1.094,0-1.704,0.798-1.892,1.27c-0.164,0.41,0.037,0.876,0.447,1.039c0.411,0.165,0.876-0.036,1.039-0.447
		c0.001-0.003,0.117-0.262,0.405-0.262c0.255,0,0.365,0.203,0.395,0.274c0.116,0.329,0.425,0.534,0.755,0.534
		c0.088,0,0.178-0.015,0.266-0.045c0.416-0.146,0.636-0.604,0.489-1.021C27.957,38.928,27.359,38.084,26.229,38.084z"/>
	<path d="M6.205,15.01c0.201,0,0.402-0.075,0.558-0.226c0.018-0.017,1.784-1.707,4.196-1.707c0.001,0,0.001,0,0.002,0
		c1.744,0,2.674,0.47,3.574,0.924c0.292,0.147,0.576,0.29,0.871,0.414c1.863,0.781,3.527,0.672,5.089-0.332
		c0.372-0.239,0.479-0.734,0.24-1.105c-0.238-0.371-0.732-0.479-1.105-0.24c-1.117,0.718-2.228,0.78-3.604,0.203
		c-0.262-0.11-0.512-0.237-0.771-0.368c-0.967-0.488-2.17-1.095-4.294-1.095c-0.001,0-0.002,0-0.002,0
		c-3.055,0-5.221,2.071-5.312,2.159c-0.317,0.308-0.324,0.814-0.016,1.131C5.788,14.929,5.996,15.01,6.205,15.01z"/>
	<path d="M19.628,15.983c-1.116,0.717-2.227,0.78-3.603,0.203c-0.262-0.11-0.512-0.237-0.771-0.368
		c-0.967-0.488-2.17-1.095-4.294-1.095c0,0-0.001,0-0.002,0c-3.055,0-5.221,2.072-5.312,2.16c-0.316,0.307-0.323,0.812-0.017,1.129
		c0.157,0.162,0.365,0.244,0.575,0.244c0.2,0,0.4-0.074,0.555-0.224c0.018-0.017,1.807-1.708,4.198-1.709c0.001,0,0.001,0,0.002,0
		c1.743,0,2.673,0.47,3.573,0.924c0.292,0.147,0.576,0.29,0.872,0.415c1.861,0.781,3.525,0.674,5.089-0.333
		c0.372-0.239,0.479-0.734,0.24-1.106C20.495,15.853,20.002,15.746,19.628,15.983z"/>
	<path d="M47.88,30.238l-1.27-0.214c0.003-0.304-0.05-0.609-0.139-0.912l1.075-0.988c0.325-0.299,0.347-0.805,0.048-1.13
		c-0.299-0.326-0.806-0.348-1.13-0.048l-0.829,0.762c-0.266-0.255-0.581-0.457-0.927-0.608l0.183-1.142
		c0.069-0.436-0.228-0.847-0.664-0.917c-0.427-0.073-0.846,0.227-0.916,0.664l-0.184,1.148c-0.321,0.032-0.641,0.099-0.945,0.231
		c-0.422,0.181-0.561,0.204-0.971-0.008c-0.296-0.151-0.453-0.423-0.531-0.594l1.332-0.908c0.365-0.249,0.46-0.747,0.211-1.112
		c-0.25-0.365-0.747-0.46-1.111-0.21l-1.129,0.77c-0.206-0.259-0.442-0.489-0.716-0.67l0.543-1.197
		c0.183-0.402,0.004-0.876-0.398-1.059c-0.396-0.183-0.876-0.005-1.059,0.398l-0.615,1.356c-0.272-0.019-0.549-0.015-0.831,0.039
		l-0.54-1.389c-0.16-0.413-0.625-0.616-1.036-0.456c-0.411,0.16-0.615,0.624-0.456,1.035l0.589,1.517
		c-0.202,0.172-0.385,0.362-0.537,0.576c-0.081-0.055-0.172-0.099-0.273-0.122l-1.592-0.355c-0.428-0.095-0.857,0.176-0.955,0.606
		c-0.096,0.432,0.176,0.859,0.607,0.955l1.592,0.355c0.022,0.005,0.044,0.004,0.066,0.007c-0.032,0.261-0.033,0.528,0.003,0.799
		c-0.018,0.003-0.036-0.003-0.054,0l-1.598,0.33c-0.433,0.089-0.711,0.513-0.621,0.945c0.078,0.378,0.411,0.638,0.782,0.638
		c0.054,0,0.108-0.005,0.163-0.017l1.598-0.33c0.062-0.013,0.113-0.046,0.168-0.072c0.112,0.263,0.252,0.551,0.424,0.853
		c-0.007,0.004-0.016,0.004-0.023,0.009l-1.365,0.892c-0.37,0.242-0.474,0.737-0.232,1.107c0.153,0.235,0.409,0.362,0.671,0.362
		c0.149,0,0.302-0.042,0.437-0.13l1.365-0.892c0.027-0.018,0.042-0.045,0.067-0.066c0.177,0.2,0.368,0.398,0.579,0.59l-0.96,1.222
		c-0.273,0.348-0.213,0.851,0.135,1.123c0.146,0.115,0.32,0.171,0.493,0.171c0.237,0,0.473-0.104,0.63-0.306l1.002-1.276
		c0.095,0.054,0.186,0.111,0.286,0.162c0.183,0.094,0.369,0.168,0.553,0.246l-0.534,1.398c-0.158,0.412,0.049,0.875,0.462,1.032
		c0.094,0.036,0.19,0.053,0.285,0.053c0.322,0,0.626-0.195,0.747-0.515l0.574-1.503c0.326,0.061,0.651,0.1,0.978,0.114l0.035,1.232
		c0.013,0.434,0.368,0.777,0.8,0.777c0.007,0,0.015,0,0.022,0c0.441-0.013,0.79-0.381,0.777-0.822l-0.037-1.305
		c0.396-0.076,0.794-0.187,1.193-0.331l0.422,1.124c0.12,0.321,0.426,0.519,0.749,0.519c0.094,0,0.188-0.016,0.281-0.051
		c0.413-0.155,0.623-0.616,0.468-1.03l-0.509-1.355c0.236-0.22,0.435-0.47,0.592-0.745l1.432,0.241
		c0.045,0.008,0.09,0.011,0.134,0.011c0.384,0,0.723-0.276,0.788-0.667C48.609,30.725,48.315,30.312,47.88,30.238z M35.966,27.314
		c-0.17-0.853,0.386-1.685,1.235-1.854c0.105-0.021,0.211-0.031,0.314-0.031c0.73,0,1.376,0.502,1.542,1.264
		c0.032,0.127,0.342,1.256,1.425,1.809c0.933,0.478,1.583,0.374,2.333,0.052c0.385-0.165,0.813-0.172,1.203-0.017
		c0.393,0.156,0.7,0.455,0.866,0.843c0.344,0.798-0.026,1.728-0.825,2.07c-1.758,0.756-3.341,0.713-5.01-0.14
		C36.571,30.046,36.021,27.591,35.966,27.314z"/>
</g>
</svg>
