<svg id="Layer_1" data-name="Layer 1" xmlns="http://www.w3.org/2000/svg" viewBox="0 0 50.46 50.46"><defs><style>.cls-1{fill:#12b5e1;}</style></defs><title>cobro_pago</title><path class="cls-1" d="M23.45,17.34H23v-.47a.64.64,0,0,0-1.28,0v.47h-.47a.64.64,0,1,0,0,1.27h.47v.47a.64.64,0,0,0,1.28,0v-.47h.47a.64.64,0,1,0,0-1.27Z"/><circle class="cls-1" cx="39.4" cy="4.15" r="0.73"/><circle class="cls-1" cx="46.46" cy="27.11" r="0.73"/><path class="cls-1" d="M8.83,38.46a.89.89,0,0,0-.89.89v.35a.89.89,0,0,0,1.78,0v-.35A.89.89,0,0,0,8.83,38.46Z"/><path class="cls-1" d="M8.83,26.75a.89.89,0,0,0-.89.89v9a.89.89,0,0,0,1.78,0v-9A.89.89,0,0,0,8.83,26.75Z"/><path class="cls-1" d="M44.32,9.84a.91.91,0,0,0-.56-.4L31,6.44a.89.89,0,0,0-1.07.67L28.49,13H26.58a.89.89,0,0,0-.89.89l0,7.56a11,11,0,0,0-6.21,2.43A9.36,9.36,0,0,1,14.39,26v-1.7a.85.85,0,0,0-.85-.85H4.12a.85.85,0,0,0-.85.85v19.3a.85.85,0,0,0,.85.85h9.42a.85.85,0,0,0,.85-.85V42.42C18.21,46.36,25.29,47,29.7,47c2.06,0,3.55-.15,3.84-.18,2.52-.1,4.29-.62,4.76-2.8A2.61,2.61,0,0,0,38,42.14a3.5,3.5,0,0,0,2.73-3.41,3.26,3.26,0,0,0-.5-1.86A4.16,4.16,0,0,0,42,33.59a3.45,3.45,0,0,0-.77-2.18,3.54,3.54,0,0,0,2.06-3,3.5,3.5,0,0,0-2.52-3.35l3.61-14.57A.9.9,0,0,0,44.32,9.84Zm-5.47,5,0,10.34-1.43.32,0-6.48a.55.55,0,0,0-.56-.56.17.17,0,0,1-.09,0,.9.9,0,0,1-.35-.93.54.54,0,0,0-.13-.45.55.55,0,0,0-.42-.19H30.44a.55.55,0,0,0-.42.19.54.54,0,0,0-.13.45,1.07,1.07,0,0,1,0,.44c-.08.33-.27.51-.42.51a.55.55,0,0,0-.56.55l0,7.55a7.94,7.94,0,0,1-1.43-.13l0-11.59ZM36.31,25.71a47.17,47.17,0,0,1-6.34.82l0-7.09a1.75,1.75,0,0,0,1-1.24c0-.08,0-.15,0-.22h4.33a1.81,1.81,0,0,0,1,1.46l0,6.13A.35.35,0,0,0,36.31,25.71ZM5,42.74V25.14h7.72v14.3a.92.92,0,0,0,0,.52v2.78Zm36.58-14.3c0,.88-1.28,1.71-2.27,1.71H39.1a.9.9,0,0,0-.19,1.77,1.71,1.71,0,0,1,1.35,1.67,2.28,2.28,0,0,1-1.9,2.11h-.25a.9.9,0,0,0-.88.8.88.88,0,0,0,.7,1c.76.17,1,.45,1,1.27a1.72,1.72,0,0,1-1.71,1.71H35.38a.89.89,0,0,0-.89.8.88.88,0,0,0,.7,1,2,2,0,0,1,1.08.63,1,1,0,0,1,.29.85c-.16.76-.48,1.3-3.12,1.4h-.06c-.15,0-15.26,1.61-19-5.69V27.77a10.86,10.86,0,0,0,6.07-2.37,9.47,9.47,0,0,1,5.2-2.11v1.12a1.76,1.76,0,0,0-.75.73,2.07,2.07,0,0,0,.35,2.08c2.1,2.39,11.61.28,14.68-.48A1.7,1.7,0,0,1,41.55,28.44Zm-.93-10V13.94a.86.86,0,0,0-.26-.63.89.89,0,0,0-.63-.27H30.32l1.09-4.66L42.48,11Z"/></svg>