<svg id="Layer_1" data-name="Layer 1" xmlns="http://www.w3.org/2000/svg" viewBox="0 0 50.46 50.46"><defs><style>.cls-1{fill:#65b4e1;}</style></defs><title>tener un hijo</title><path class="cls-1" d="M13.2,29.22a4.89,4.89,0,0,0,4.88,4.88H35.76a4.89,4.89,0,0,0,4.88-4.88V21.62H13.2ZM15,23.42H38.84v5.81a3.08,3.08,0,0,1-3.08,3.08H18.08A3.08,3.08,0,0,1,15,29.22Z"/><path class="cls-1" d="M15.41,20.1v-11a3.69,3.69,0,0,0-3.68-3.68H11a1.13,1.13,0,0,0,0,2.25h.78a1.43,1.43,0,0,1,1.43,1.43v11Z"/><path class="cls-1" d="M25.8,5.41V20.1H40.64A14.91,14.91,0,0,0,25.8,5.41Z"/><path class="cls-1" d="M20.83,35.1a5,5,0,1,0,5,5A5,5,0,0,0,20.83,35.1Zm0,8.15A3.18,3.18,0,1,1,24,40.08,3.18,3.18,0,0,1,20.83,43.25Z"/><path class="cls-1" d="M33,35.1a5,5,0,1,0,5,5A5,5,0,0,0,33,35.1Zm0,8.15a3.18,3.18,0,1,1,3.18-3.18A3.18,3.18,0,0,1,33,43.25Z"/></svg>