<svg id="Layer_1" data-name="Layer 1" xmlns="http://www.w3.org/2000/svg" viewBox="0 0 50.46 50.46"><defs><style>.cls-1{fill:#65b4e1;}</style></defs><title>cocina negativo</title><path class="cls-1" d="M39.84,41.1a.46.46,0,0,1-.45.45H12.77L11,43.07H39.38a2,2,0,0,0,2-2V16.84l-1.52,1.31Z"/><polygon class="cls-1" points="9.59 14.74 36.07 14.74 37.83 13.22 9.59 13.22 9.59 8.35 39.84 8.35 39.84 11.49 41.35 10.17 41.35 6.83 8.07 6.83 8.07 38.95 9.59 37.64 9.59 14.74"/><path class="cls-1" d="M15.82,38.92H34.16a3.18,3.18,0,0,0,3.18-3.18V20.32l-1.52,1.31V35.75a1.66,1.66,0,0,1-1.66,1.66H17.57Z"/><polygon class="cls-1" points="33.2 17.23 12.1 17.23 12.1 35.48 13.61 34.16 13.61 18.75 31.44 18.75 33.2 17.23"/><path class="cls-1" d="M27.71,22H17.35v-.2a.76.76,0,0,0-1.52,0v1a.76.76,0,0,0,.76.76H26Z"/><path class="cls-1" d="M18.35,28.08a.63.63,0,0,0,.63.63h1l1.45-1.25H19A.63.63,0,0,0,18.35,28.08Z"/><path class="cls-1" d="M31.07,28.08a.63.63,0,0,0-.63-.63H29.08L27.63,28.7h2.81A.63.63,0,0,0,31.07,28.08Z"/><path class="cls-1" d="M24.75,31.19h5.7a.63.63,0,0,0,0-1.25H26.2Z"/><path class="cls-1" d="M21.87,33.69h8.58a.63.63,0,1,0,0-1.25H23.32Z"/><circle class="cls-1" cx="15.55" cy="10.95" r="1.19"/><circle class="cls-1" cx="20.13" cy="10.95" r="1.19"/><circle class="cls-1" cx="24.71" cy="10.95" r="1.19"/><circle class="cls-1" cx="29.3" cy="10.95" r="1.19"/><circle class="cls-1" cx="33.88" cy="10.95" r="1.19"/><path class="cls-1" d="M47,8.65a1.17,1.17,0,0,0-1.65-.12L3.61,44.6a1.17,1.17,0,0,0,1.53,1.77L46.85,10.3A1.17,1.17,0,0,0,47,8.65Z"/></svg>