<svg id="Layer_1" data-name="Layer 1" xmlns="http://www.w3.org/2000/svg" viewBox="0 0 50.46 50.46"><defs><style>.cls-1{fill:#12b5e1;fill-rule:evenodd;}</style></defs><title>codigo QR</title><path class="cls-1" d="M44.6,44.26c0-.84,0-1.68,0-2.52,0-.41,0-.81,0-1.27H40.82V36.68h3.77V32.81H40.8V27.1h3.79V6.2H31.28c0,.07,0,.15,0,.22V19.2c0,.09,0,.19,0,.32h.49c1.92,0,3.84,0,5.75,0h3.21c0,.27,0,.52,0,.61v3.2H27.49v-3.8h-3.8v-5.7h3.78c0-.2,0-.34,0-.49,0-2.38,0-4.75,0-7.13H23.62v7.56H19.83V6.2H6.53V19.5l4.45,0H23.61V23.3H18v3.82h5.69V23.37h3.78v3.77h1.83c0,.05.07.07.07.09,0,1.24,0,2.49,0,3.73h0l3.84,0V27.17H37v5.66l3.79,0V36.6H29.36V31.37c0-.13,0-.27,0-.4H25.56v5.65h-5.7V31l-.33,0H6.78l-.25,0v13.3h13.3V40.5l.25,0h5.28l.2,0h0V36.69h3.75v3.79H25.56v3.77h7.65V40.49h3.72a2.42,2.42,0,0,1,0,.25l0,3.52ZM16,15.69H10.35V10H16Zm19.07,0V10h5.67v5.66ZM16,40.43H10.36V34.76H16Z"/><path class="cls-1" d="M14.12,26H6.52v3.86h7.6Z"/></svg>