<svg id="Layer_1" data-name="Layer 1" xmlns="http://www.w3.org/2000/svg" viewBox="0 0 50.46 50.46"><defs><style>.cls-1{fill:#12b5e1;}</style></defs><title>codigo alimentario argentino</title><polygon class="cls-1" points="28.92 23.75 28.37 25.32 29.45 25.32 28.92 23.75"/><polygon class="cls-1" points="24.74 23.75 24.2 25.32 25.27 25.32 24.74 23.75"/><path class="cls-1" d="M25.23,14.05A11.18,11.18,0,1,0,36.41,25.23,11.2,11.2,0,0,0,25.23,14.05Zm3.34,8.42h.66l1.58,4.33h-.88L29.67,26H28.14l-.26.77H27Zm-4.18,0h.66l1.58,4.33h-.88L25.5,26H24l-.26.77h-.88Zm-5.17,1.09a1.23,1.23,0,0,1,.35-.65,1.61,1.61,0,0,1,1.17-.47,1.52,1.52,0,0,1,1.59,1.36h-.86a.71.71,0,0,0-.73-.61.65.65,0,0,0-.54.23c-.18.18-.21.38-.21,1.22s0,1,.21,1.22a.67.67,0,0,0,.54.22.71.71,0,0,0,.73-.61h.86a1.53,1.53,0,0,1-1.59,1.36,1.57,1.57,0,0,1-1.17-.47,1.26,1.26,0,0,1-.35-.65,7.26,7.26,0,0,1,0-2.15Zm6,11.1a9.36,9.36,0,0,1-7.49-3.72l1-.73a8.21,8.21,0,0,0,14.75-5,8.07,8.07,0,0,0-1.58-4.83l1-.71a9.3,9.3,0,0,1,1.81,5.54A9.43,9.43,0,0,1,25.23,34.66Z"/><path class="cls-1" d="M25.23,10.9A14.33,14.33,0,1,0,39.56,25.23,14.35,14.35,0,0,0,25.23,10.9Zm0,27A12.68,12.68,0,1,1,37.91,25.23,12.7,12.7,0,0,1,25.23,37.91Z"/><path class="cls-1" d="M25.23,4.42A20.81,20.81,0,1,0,46,25.23,20.81,20.81,0,0,0,25.23,4.42Zm0,36.95A16.14,16.14,0,1,1,41.36,25.23,16.15,16.15,0,0,1,25.23,41.37Z"/></svg>