<?xml version="1.0" encoding="utf-8"?>
<!-- Generator: Adobe Illustrator 24.0.3, SVG Export Plug-In . SVG Version: 6.00 Build 0)  -->
<svg version="1.1" id="Capa_1" xmlns="http://www.w3.org/2000/svg" xmlns:xlink="http://www.w3.org/1999/xlink" x="0px" y="0px"
	 viewBox="0 0 50.5 50.5" style="enable-background:new 0 0 50.5 50.5;" xml:space="preserve">
<g>
	<path d="M41.652,13.148c2.237,0,4.057-1.82,4.057-4.057s-1.819-4.057-4.057-4.057s-4.057,1.82-4.057,4.057
		S39.415,13.148,41.652,13.148z M44.109,9.092c0,1.354-1.103,2.457-2.457,2.457s-2.457-1.103-2.457-2.457s1.103-2.457,2.457-2.457
		S44.109,7.737,44.109,9.092z"/>
	<path d="M49.229,18.525c0-1.904-0.974-2.562-1.86-3.16c-0.09-0.057-2.253-1.402-5.716-1.402c-3.461,0-5.652,1.342-5.755,1.407
		c-1.178,0.762-1.853,1.913-1.853,3.159v0.047c-0.717-0.376-2.63-1.222-5.391-1.222c-3.461,0-5.652,1.342-5.755,1.406
		c-1.177,0.762-1.853,1.914-1.853,3.159v0.046c-0.717-0.376-2.63-1.221-5.391-1.221c-3.46,0-5.651,1.342-5.754,1.406
		c-1.178,0.762-1.853,1.914-1.853,3.159v8.951c0,1.24,1.094,2.288,2.388,2.288c0.288,0,0.568-0.053,0.829-0.148v10.239
		c0,1.262,1.188,2.288,2.647,2.288c0.614,0,1.263-0.247,1.75-0.67c0.45,0.372,1.048,0.6,1.704,0.6c1.833,0,2.654-1.148,2.654-2.287
		V36.416c0.248,0.087,0.514,0.134,0.788,0.134c0.001,0,0.101,0,0.102,0c1.279-0.004,2.356-1.055,2.354-2.295l-0.004-1.113
		c0.059,0.004,0.115,0.017,0.175,0.017c0.288,0,0.568-0.053,0.829-0.148V43.25c0,1.262,1.187,2.288,2.646,2.288
		c0.613,0,1.264-0.247,1.751-0.671c0.449,0.373,1.048,0.601,1.704,0.601c1.833,0,2.653-1.148,2.653-2.287V33.025
		c0.248,0.087,0.514,0.134,0.788,0.134c0.001,0,0.101,0,0.102,0c1.278-0.004,2.356-1.055,2.354-2.295l-0.004-1.113
		c0.059,0.004,0.115,0.017,0.175,0.017c0.288,0,0.567-0.053,0.829-0.148v10.239c0,1.262,1.188,2.288,2.647,2.288
		c0.613,0,1.263-0.247,1.75-0.67c0.449,0.372,1.048,0.6,1.704,0.6c1.833,0,2.653-1.148,2.653-2.287V29.635
		c0.248,0.087,0.514,0.134,0.788,0.134c0.001,0,0.101,0,0.102,0c1.278-0.004,2.356-1.055,2.354-2.295L49.229,18.525z M46.017,27.484
		v-7.467c0-0.442-0.358-0.8-0.8-0.8s-0.8,0.358-0.8,0.8V39.79c0,0.598-0.66,0.688-1.054,0.688c-0.493,0-0.927-0.321-0.927-0.688
		V27.938c0-0.441-0.358-0.8-0.8-0.8s-0.8,0.358-0.8,0.8v11.922c0,0.321-0.494,0.688-0.928,0.688c-0.617,0-1.048-0.363-1.048-0.688
		V27.48v-7.463c0-0.442-0.358-0.8-0.8-0.8s-0.8,0.358-0.8,0.8v7.463c0,0.341-0.419,0.688-0.829,0.688
		c-0.062,0-0.121-0.021-0.18-0.036l-0.022-6.217c0-0.941-0.239-1.576-0.586-2.051v-1.336c0-0.949,0.703-1.545,1.108-1.808
		c0.019-0.012,1.922-1.159,4.899-1.159c2.973,0,4.844,1.145,4.848,1.146c0.775,0.523,1.129,0.762,1.129,1.819l0.031,8.95
		c0.001,0.359-0.361,0.688-0.855,0.69C46.401,28.169,46.018,27.835,46.017,27.484z M33.019,30.875v-7.467c0-0.442-0.358-0.8-0.8-0.8
		s-0.8,0.358-0.8,0.8v19.773c0,0.598-0.66,0.688-1.054,0.688c-0.493,0-0.927-0.321-0.927-0.688V31.328c0-0.441-0.358-0.8-0.8-0.8
		s-0.8,0.358-0.8,0.8V43.25c0,0.321-0.495,0.688-0.929,0.688c-0.617,0-1.047-0.363-1.047-0.688V30.871v-7.463
		c0-0.442-0.358-0.8-0.8-0.8s-0.8,0.358-0.8,0.8v7.463c0,0.341-0.418,0.688-0.829,0.688c-0.062,0-0.121-0.021-0.181-0.036
		l-0.022-6.217c0-0.941-0.239-1.576-0.586-2.051V21.92c0-0.948,0.704-1.545,1.109-1.808c0.019-0.011,1.922-1.158,4.899-1.158
		c2.973,0,4.844,1.144,4.848,1.146c0.775,0.523,1.129,0.762,1.129,1.819l0.031,8.95c0.001,0.359-0.361,0.688-0.855,0.69
		C33.403,31.56,33.02,31.226,33.019,30.875z M20.021,34.266v-7.467c0-0.441-0.358-0.8-0.8-0.8s-0.8,0.358-0.8,0.8v19.772
		c0,0.598-0.661,0.688-1.054,0.688c-0.493,0-0.926-0.321-0.926-0.688V34.719c0-0.441-0.358-0.8-0.8-0.8s-0.8,0.358-0.8,0.8v11.922
		c0,0.321-0.495,0.688-0.928,0.688c-0.617,0-1.047-0.363-1.047-0.688V34.262v-7.463c0-0.441-0.358-0.8-0.8-0.8s-0.8,0.358-0.8,0.8
		v7.463c0,0.341-0.418,0.688-0.829,0.688c-0.405,0-0.789-0.335-0.789-0.688v-8.951c0-0.948,0.704-1.545,1.109-1.808
		c0.019-0.011,1.922-1.158,4.899-1.158c2.973,0,4.845,1.144,4.849,1.146c0.774,0.523,1.128,0.761,1.128,1.818l0.032,8.95
		c0,0.359-0.361,0.688-0.855,0.69C20.405,34.95,20.022,34.616,20.021,34.266z"/>
	<path d="M28.654,16.54c2.237,0,4.057-1.82,4.057-4.057c0-2.237-1.819-4.057-4.057-4.057s-4.057,1.82-4.057,4.057
		C24.597,14.72,26.417,16.54,28.654,16.54z M31.111,12.482c0,1.355-1.103,2.458-2.457,2.458s-2.457-1.103-2.457-2.458
		c0-1.354,1.103-2.457,2.457-2.457S31.111,11.128,31.111,12.482z"/>
	<path d="M10.384,17.576c0-0.221-0.089-0.421-0.234-0.566s-0.345-0.234-0.566-0.234c-3.741,0-6.785-3.043-6.785-6.785
		s3.043-6.785,6.785-6.785s6.785,3.044,6.785,6.785c0,0.221,0.089,0.421,0.234,0.566s0.345,0.234,0.566,0.234
		c0.442,0,0.8-0.358,0.8-0.8c0-4.624-3.761-8.385-8.384-8.385S1.2,5.368,1.2,9.992c0,4.623,3.761,8.384,8.384,8.384
		C10.026,18.376,10.384,18.018,10.384,17.576z"/>
	<path d="M9.584,4.932c-0.442,0-0.8,0.358-0.8,0.8v3.46H7.118c-0.442,0-0.8,0.358-0.8,0.8s0.358,0.8,0.8,0.8h2.466
		c0.442,0,0.8-0.358,0.8-0.8v-4.26C10.384,5.29,10.026,4.932,9.584,4.932z"/>
	<path d="M11.634,15.526c-0.01,0.116-0.035,0.228-0.035,0.347c0,2.237,1.82,4.057,4.057,4.057c2.237,0,4.057-1.82,4.057-4.057
		c0-2.237-1.82-4.057-4.057-4.057c-0.119,0-0.23,0.025-0.347,0.035C13.353,12.021,11.803,13.57,11.634,15.526z M13.199,15.873
		c0-1.354,1.103-2.457,2.457-2.457c1.355,0,2.458,1.103,2.458,2.457c0,1.355-1.103,2.458-2.458,2.458
		C14.301,18.331,13.199,17.228,13.199,15.873z"/>
</g>
</svg>
