<?xml version="1.0" encoding="utf-8"?>
<!-- Generator: Adobe Illustrator 22.1.0, SVG Export Plug-In . SVG Version: 6.00 Build 0)  -->
<svg version="1.1" id="Layer_1" xmlns="http://www.w3.org/2000/svg" xmlns:xlink="http://www.w3.org/1999/xlink" x="0px" y="0px"
	 viewBox="0 0 50.5 50.5" style="enable-background:new 0 0 50.5 50.5;" xml:space="preserve">
<style type="text/css">
	.st0{fill:#12B5E1;}
</style>
<title>declaración jurada declaracion-jurada-rectificativa</title>
<g>
	<path class="st0" d="M21.8,16.2c0.7-1.9,0.1-3.7-0.5-5.3c-0.6-1.8-0.9-2.9-0.1-4c0.2-0.3,0.3-0.7,0.1-1s-0.5-0.5-0.9-0.5
		c-0.7,0-6.6,3.8-8,7.5c-0.6,1.6-0.3,3.6,0,4.6L5.1,42.1c0,0,0,0,0,0c-0.3,1.2,0.3,2.3,1.4,2.7C6.8,45,7,45,7.3,45
		c0.9,0,1.7-0.5,2-1.4l9.6-23.8C19.9,19.2,21.3,17.7,21.8,16.2z M14.2,13.5c0.7-1.9,3-3.9,4.8-5.1c0,1.1,0.4,2.1,0.7,3.1
		c0.5,1.4,0.9,2.7,0.5,4.1c-0.3,1-1.3,2.1-2.1,2.6l-3.9-1.4C14,15.9,13.8,14.5,14.2,13.5z M14.1,18.7l2.9,1l-0.6,1.5l-2.8-1
		L14.1,18.7z M7.7,42.9c-0.1,0.3-0.4,0.3-0.6,0.2C7,43.1,6.7,43,6.8,42.6l6.4-21.2l2.7,1L7.7,42.9z"/>
	<path class="st0" d="M30.4,40.7c-0.3-0.2-0.6-0.4-0.7-0.7c-0.2-0.2-0.3-0.5-0.5-0.9l-6.6-17.1h-1.1c-0.9,2.4-2,5.2-3.2,8.3
		c-1.2,3.1-2.3,5.9-3.3,8.4c-0.2,0.5-0.4,0.9-0.6,1.1c-0.2,0.3-0.5,0.5-0.9,0.8c-0.2,0.1-0.5,0.3-0.9,0.4s-0.7,0.1-0.9,0.2v1h7.5v-1
		c-0.7,0-1.4-0.2-2-0.4c-0.6-0.2-0.9-0.5-0.9-0.9c0-0.2,0-0.4,0.1-0.6s0.1-0.6,0.3-1c0.1-0.4,0.3-0.9,0.4-1.3
		c0.2-0.5,0.4-1.1,0.6-1.7h7l1.6,4.4c0,0.1,0.1,0.2,0.1,0.3c0,0.1,0,0.2,0,0.3c0,0.2-0.2,0.4-0.7,0.5c-0.5,0.1-1.1,0.2-1.8,0.3v1
		h8.2v-1c-0.2,0-0.5-0.1-0.9-0.1C30.9,41,30.6,40.9,30.4,40.7z M18.2,34.1l3-7.7l3,7.7H18.2z"/>
	<path class="st0" d="M44.5,41c-0.3,0-0.5-0.1-0.7-0.1c-0.3-0.1-0.5-0.3-0.6-0.5s-0.2-0.5-0.2-0.9c0-1.2,0-2.3,0-3.4
		c0-1,0-2.2,0-3.5c0-0.9-0.1-1.7-0.4-2.3c-0.2-0.6-0.6-1.1-1.1-1.4c-0.5-0.4-1-0.6-1.6-0.7s-1.3-0.2-2-0.2c-0.6,0-1.1,0.1-1.7,0.3
		c-0.6,0.2-1.1,0.4-1.5,0.7c-0.5,0.3-0.9,0.7-1.2,1c-0.3,0.4-0.5,0.8-0.5,1.2c0,0.4,0.1,0.8,0.3,1.1c0.2,0.3,0.6,0.5,1,0.5
		c0.5,0,0.9-0.1,1.2-0.4s0.4-0.6,0.4-0.9c0-0.3,0-0.6-0.1-1C36,30.2,36,29.9,36,29.7c0.1-0.2,0.4-0.3,0.8-0.5
		c0.4-0.1,0.8-0.2,1.2-0.2c0.6,0,1.1,0.1,1.4,0.4s0.6,0.6,0.8,0.9c0.2,0.3,0.3,0.6,0.3,1c0.1,0.3,0.1,0.6,0.1,0.7v1.4
		c-0.4,0.2-1.3,0.6-2.6,1c-1.3,0.4-2.1,0.7-2.5,0.9c-0.3,0.1-0.7,0.3-1.1,0.5c-0.4,0.2-0.7,0.5-0.9,0.7c-0.3,0.3-0.5,0.7-0.7,1.1
		c-0.1,0.4-0.2,0.9-0.2,1.4c0,1,0.3,1.9,1,2.5c0.7,0.6,1.5,0.9,2.5,0.9c1,0,1.8-0.2,2.5-0.5c0.7-0.4,1.3-0.9,1.9-1.5h0.1
		c0.1,0.7,0.4,1.1,0.8,1.5s1,0.5,1.7,0.5c0.4,0,0.8,0,1.1-0.1s0.7-0.2,1.2-0.4V41C45.1,41,44.8,41,44.5,41z M40.5,39.4
		c-0.3,0.4-0.8,0.8-1.3,1.1c-0.5,0.3-1.1,0.5-1.7,0.5c-0.6,0-1.1-0.2-1.5-0.5c-0.4-0.4-0.6-0.9-0.6-1.7c0-0.6,0.1-1.1,0.4-1.5
		c0.3-0.4,0.6-0.8,1.1-1.1c0.5-0.3,1.1-0.6,1.7-0.8c0.6-0.2,1.3-0.5,2.1-0.7L40.5,39.4z"/>
</g>
</svg>
