<?xml version="1.0" encoding="utf-8"?>
<!-- Generator: Adobe Illustrator 24.0.1, SVG Export Plug-In . SVG Version: 6.00 Build 0)  -->
<!DOCTYPE svg PUBLIC "-//W3C//DTD SVG 1.1//EN" "http://www.w3.org/Graphics/SVG/1.1/DTD/svg11.dtd" [
	<!ENTITY ns_extend "http://ns.adobe.com/Extensibility/1.0/">
	<!ENTITY ns_ai "http://ns.adobe.com/AdobeIllustrator/10.0/">
	<!ENTITY ns_graphs "http://ns.adobe.com/Graphs/1.0/">
	<!ENTITY ns_vars "http://ns.adobe.com/Variables/1.0/">
	<!ENTITY ns_imrep "http://ns.adobe.com/ImageReplacement/1.0/">
	<!ENTITY ns_sfw "http://ns.adobe.com/SaveForWeb/1.0/">
	<!ENTITY ns_custom "http://ns.adobe.com/GenericCustomNamespace/1.0/">
	<!ENTITY ns_adobe_xpath "http://ns.adobe.com/XPath/1.0/">
]>
<svg version="1.1" id="Layer_1" xmlns:x="&ns_extend;" xmlns:i="&ns_ai;" xmlns:graph="&ns_graphs;"
	 xmlns="http://www.w3.org/2000/svg" xmlns:xlink="http://www.w3.org/1999/xlink" x="0px" y="0px" viewBox="0 0 50.46 50.46"
	 enable-background="new 0 0 50.46 50.46" xml:space="preserve">
<metadata>
	<sfw  xmlns="&ns_sfw;">
		<slices></slices>
		<sliceSourceBounds  bottomLeftOrigin="true" height="23.495" width="46.116" x="659.942" y="266.752"></sliceSourceBounds>
	</sfw>
</metadata>
<g>
	<path d="M9.833,30.647c-1.751,0-3.166,1.415-3.166,3.165c0,1.747,1.416,3.165,3.166,3.165c1.749,0,3.165-1.418,3.165-3.165
		C12.999,32.063,11.582,30.647,9.833,30.647z M9.833,35.382c-0.868,0-1.57-0.702-1.57-1.569c0-0.867,0.702-1.571,1.57-1.571
		c0.867,0,1.569,0.705,1.569,1.571C11.402,34.679,10.7,35.382,9.833,35.382z"/>
	<path d="M41.375,30.647c-1.747,0-3.165,1.415-3.165,3.165c0,1.747,1.418,3.165,3.165,3.165c1.747,0,3.165-1.418,3.165-3.165
		C44.54,32.063,43.122,30.647,41.375,30.647z M41.375,35.382c-0.867,0-1.571-0.702-1.571-1.569c0-0.867,0.704-1.571,1.571-1.571
		c0.867,0,1.571,0.705,1.571,1.571C42.946,34.679,42.242,35.382,41.375,35.382z"/>
	<path d="M47.353,28.679c-0.271-0.781-0.488-1.623-0.835-1.897l-3.26-1.944L39.7,19.321l0.379-0.525l0.235-0.598
		c-2.696-1.557-5.834-1.809-8.76-1.814l-0.018-1.843l-7.014-0.007v-1.051h-5.541v1.043l-5.289-0.009v-1.034H8.149v1.027
		l-3.268-0.004c-0.733,0.042-1.707,0.667-2.016,1.955l-0.299,12.99c0.001,0.14-0.395,0.19-0.394,0.327
		c0.004,0.379,0.044,1.996,0.071,2.942c0.027,0.951,2.35,1.176,3.236,1.411c-0.015-0.142-0.021-0.289-0.021-0.436
		c0-2.411,1.955-4.366,4.366-4.366c2.411,0,4.366,1.955,4.366,4.366c0,0.21-0.016,0.415-0.044,0.616
		c4.6,0.009,18.27,0.07,22.817,0.174c-0.045-0.257-0.068-0.521-0.068-0.79c0-2.411,1.951-4.366,4.362-4.366
		c2.416,0,4.371,1.955,4.371,4.366c0,0.226-0.018,0.447-0.054,0.664l2.149-0.208c0.172-0.312,0.497-0.691,0.564-1.154v-3.691
		C48.288,29.011,47.561,28.764,47.353,28.679z M7.67,23.838c0,0.176-0.146,0.321-0.322,0.321H6.246
		c-0.176,0-0.322-0.142-0.322-0.321V19.35c0-0.177,0.145-0.322,0.322-0.322h1.103c0.177,0,0.322,0.146,0.322,0.322V23.838z
		 M17.732,23.838c0,0.176-0.146,0.321-0.322,0.321h-3.771c-0.176,0-0.323-0.142-0.323-0.321V19.35c0-0.177,0.145-0.322,0.323-0.322
		h3.771c0.177,0,0.322,0.147,0.322,0.322V23.838z M22.823,23.838c0,0.176-0.144,0.321-0.321,0.321H18.73
		c-0.175,0-0.322-0.142-0.322-0.321V19.35c0-0.177,0.145-0.322,0.322-0.322h3.773c0.176,0,0.321,0.147,0.321,0.322V23.838z
		 M33.505,24.452c0,0.176-0.149,0.321-0.325,0.321h-1.102c-0.176,0-0.32-0.142-0.32-0.321v-4.488c0-0.177,0.144-0.322,0.32-0.322
		h1.102c0.18,0,0.325,0.146,0.325,0.322V24.452z M39.772,25.292l-4.24-0.397c-0.153-0.027-0.302-0.077-0.424-0.176
		c-0.239-0.185-0.357-0.508-0.425-0.79l-0.198-3.796c-0.013-0.1-0.009-0.222,0.063-0.304c0.104-0.117,0.325-0.126,0.465-0.121
		l3.224,0.098c0.158,0.037,0.33,0.089,0.474,0.166c0.059,0.032,0.117,0.075,0.172,0.117l2.407,3.587l0.005,0.499L39.772,25.292z"/>
</g>
</svg>
