<?xml version="1.0" encoding="utf-8"?>
<!-- Generator: Adobe Illustrator 24.0.1, SVG Export Plug-In . SVG Version: 6.00 Build 0)  -->
<!DOCTYPE svg PUBLIC "-//W3C//DTD SVG 1.1//EN" "http://www.w3.org/Graphics/SVG/1.1/DTD/svg11.dtd" [
	<!ENTITY ns_extend "http://ns.adobe.com/Extensibility/1.0/">
	<!ENTITY ns_ai "http://ns.adobe.com/AdobeIllustrator/10.0/">
	<!ENTITY ns_graphs "http://ns.adobe.com/Graphs/1.0/">
	<!ENTITY ns_vars "http://ns.adobe.com/Variables/1.0/">
	<!ENTITY ns_imrep "http://ns.adobe.com/ImageReplacement/1.0/">
	<!ENTITY ns_sfw "http://ns.adobe.com/SaveForWeb/1.0/">
	<!ENTITY ns_custom "http://ns.adobe.com/GenericCustomNamespace/1.0/">
	<!ENTITY ns_adobe_xpath "http://ns.adobe.com/XPath/1.0/">
]>
<svg version="1.1" id="Layer_1" xmlns:x="&ns_extend;" xmlns:i="&ns_ai;" xmlns:graph="&ns_graphs;"
	 xmlns="http://www.w3.org/2000/svg" xmlns:xlink="http://www.w3.org/1999/xlink" x="0px" y="0px" viewBox="0 0 50.46 50.46"
	 enable-background="new 0 0 50.46 50.46" xml:space="preserve">
<metadata>
	<sfw  xmlns="&ns_sfw;">
		<slices></slices>
		<sliceSourceBounds  bottomLeftOrigin="true" height="20.114" width="46.116" x="659.942" y="268.443"></sliceSourceBounds>
	</sfw>
</metadata>
<g>
	<path d="M47.789,30.173l-0.133-2.005l-0.687-1.189c-0.388-0.478-0.91-1.143-2.488-2.384c-0.311-0.767-3.406-4.197-4.308-5.363
		c-0.819-1.061-1.731-2.698-3.357-3.177c-1.037-0.305-2.126-0.48-3.129-0.481h-0.676v-0.362l-5.185-0.04v0.395l-4.637-0.005v-0.35
		H11.998l-0.037,0.339l-5.824-0.005c-0.812,0-1.431,0.41-1.824,1.219c-1.227,2.529-1.309,9.081-1.309,12.059
		c0,0.76,0.032,0.855,0.196,1.126l-1.028,0.004v0.278c0.055,0.168,0.228,1.759,1.085,1.759l5.146,0.267
		c-0.001-0.037-0.002-0.073-0.002-0.11c0-2.227,1.803-4.031,4.031-4.031c2.225,0,4.031,1.805,4.031,4.031
		c0,0.049-0.002,0.099-0.003,0.151l5.84-0.028H37.69c0.063-2.132,1.793-4.083,3.939-4.083c2.145,0,3.904,1.951,3.966,4.083h0.184
		h0.126c0.107,0.02,2.448,0.043,2.38-0.086v-2.013H47.789z M10.354,23.543c0,0.23-0.206,0.435-0.436,0.435H7.409
		c-0.232,0-0.436-0.196-0.436-0.435v-3.6c0-0.24,0.196-0.437,0.436-0.437h2.509c0.24,0,0.436,0.206,0.436,0.437V23.543z
		 M21.944,23.543c0,0.23-0.204,0.435-0.436,0.435h-9.093c-0.231,0-0.436-0.196-0.436-0.435v-3.6c0-0.24,0.197-0.437,0.436-0.437
		h9.093c0.24,0,0.436,0.206,0.436,0.437V23.543z M32.909,23.543c0,0.233-0.202,0.435-0.437,0.435h-8.891
		c-0.234,0-0.437-0.196-0.437-0.435v-3.6c0-0.24,0.197-0.437,0.437-0.437h8.891c0.24,0,0.437,0.203,0.437,0.437V23.543z
		 M36.38,24.714c-0.238-0.013-0.417-0.2-0.436-0.437l-0.361-4.292c-0.019-0.239,0.197-0.452,0.437-0.437l2.565,0.163l1.297,5.208
		L36.38,24.714z M42.482,25.158l-1.754-0.114l-1.297-5.212c0.279,0.105,0.49,0.312,0.627,0.593l3.032,3.893
		C43.522,24.876,43.003,25.192,42.482,25.158z"/>
	<path d="M41.642,29.012c-1.735,0-3.137,1.404-3.137,3.137s1.403,3.137,3.137,3.137c1.733,0,3.138-1.404,3.138-3.137
		S43.376,29.012,41.642,29.012z M41.642,33.704c-0.859,0-1.556-0.695-1.556-1.554c0-0.859,0.697-1.557,1.556-1.557
		c0.86,0,1.555,0.698,1.555,1.557C43.197,33.009,42.503,33.704,41.642,33.704z"/>
	<path d="M12.432,29.012c-1.734,0-3.138,1.404-3.138,3.137s1.404,3.137,3.138,3.137c1.733,0,3.138-1.404,3.138-3.137
		S14.166,29.012,12.432,29.012z M12.432,33.704c-0.86,0-1.556-0.695-1.556-1.554c0-0.859,0.696-1.557,1.556-1.557
		c0.86,0,1.556,0.698,1.556,1.557C13.988,33.009,13.292,33.704,12.432,33.704z"/>
</g>
</svg>
