<?xml version="1.0" encoding="utf-8"?>
<!-- Generator: Adobe Illustrator 24.0.1, SVG Export Plug-In . SVG Version: 6.00 Build 0)  -->
<!DOCTYPE svg PUBLIC "-//W3C//DTD SVG 1.1//EN" "http://www.w3.org/Graphics/SVG/1.1/DTD/svg11.dtd" [
	<!ENTITY ns_extend "http://ns.adobe.com/Extensibility/1.0/">
	<!ENTITY ns_ai "http://ns.adobe.com/AdobeIllustrator/10.0/">
	<!ENTITY ns_graphs "http://ns.adobe.com/Graphs/1.0/">
	<!ENTITY ns_vars "http://ns.adobe.com/Variables/1.0/">
	<!ENTITY ns_imrep "http://ns.adobe.com/ImageReplacement/1.0/">
	<!ENTITY ns_sfw "http://ns.adobe.com/SaveForWeb/1.0/">
	<!ENTITY ns_custom "http://ns.adobe.com/GenericCustomNamespace/1.0/">
	<!ENTITY ns_adobe_xpath "http://ns.adobe.com/XPath/1.0/">
]>
<svg version="1.1" id="Layer_1" xmlns:x="&ns_extend;" xmlns:i="&ns_ai;" xmlns:graph="&ns_graphs;"
	 xmlns="http://www.w3.org/2000/svg" xmlns:xlink="http://www.w3.org/1999/xlink" x="0px" y="0px" viewBox="0 0 50.46 50.46"
	 enable-background="new 0 0 50.46 50.46" xml:space="preserve">
<metadata>
	<sfw  xmlns="&ns_sfw;">
		<slices></slices>
		<sliceSourceBounds  bottomLeftOrigin="true" height="21.386" width="46.116" x="659.942" y="267.807"></sliceSourceBounds>
	</sfw>
</metadata>
<g>
	<path d="M47.46,28.835c0.116-1.202-0.251-3.199-0.251-3.442c-0.878-1.089-3.683-2.34-4.731-2.658
		c-0.004-0.001-5.421-5.121-5.807-5.561c-0.574-0.658-1.147-1.072-1.904-1.41c-1.568-0.7-3.741-1.192-5.444-1.195
		c-8.244-0.007-13.298-0.025-21.771-0.031c-1.582-0.001-2.209,0.325-2.706,1.196c-1.931,3.376-1.716,8.312-1.716,12.054
		c0,0.873,0.152,0.98,0.341,1.292c-1.174,0-0.591,0.008-1.299,0.008v0.319c0.063,0.195,0.26,2.026,1.25,2.026h5.13
		c0.229-2.3,2.169-4.094,4.53-4.094c2.469,0,4.476,1.964,4.548,4.413h19.808c0.072-2.45,2.079-4.413,4.548-4.413
		c2.469,0,4.48,1.964,4.552,4.413h0.21h0.143c0.121,0.025,1.47-0.774,1.394-0.924v-1.993H47.46z M21.653,25.176l-0.161,0.16H9.515
		l-0.161-0.16v-0.8h12.299V25.176z M29.785,22.429c-0.273-0.009-0.497-0.237-0.502-0.503l-0.036-4.06
		c-0.005-0.264,0.349-0.519,0.627-0.502l4.454,0.187l0.542,5.048L29.785,22.429z M38.419,22.751l-2.446-0.12l-0.668-4.942
		c0.47,0.182,3.271,3.497,3.813,4.095C39.66,22.385,39.019,22.779,38.419,22.751z"/>
	<path d="M13.001,28.702c-1.998,0-3.611,1.616-3.611,3.609c0,1.996,1.613,3.612,3.611,3.612c1.994,0,3.607-1.616,3.607-3.612
		C16.608,30.318,14.995,28.702,13.001,28.702z M13.001,34.102c-0.99,0-1.792-0.801-1.792-1.791c0-0.988,0.802-1.79,1.792-1.79
		c0.986,0,1.788,0.802,1.788,1.79C14.789,33.301,13.987,34.102,13.001,34.102z"/>
	<path d="M41.985,28.702c-1.994,0-3.611,1.616-3.611,3.609c0,1.996,1.618,3.612,3.611,3.612c1.994,0,3.611-1.616,3.611-3.612
		C45.596,30.318,43.979,28.702,41.985,28.702z M41.985,34.102c-0.986,0-1.788-0.801-1.788-1.791c0-0.988,0.802-1.79,1.788-1.79
		c0.99,0,1.792,0.802,1.792,1.79C43.777,33.301,42.976,34.102,41.985,34.102z"/>
</g>
</svg>
