<?xml version="1.0" encoding="utf-8"?>
<!-- Generator: Adobe Illustrator 24.2.1, SVG Export Plug-In . SVG Version: 6.00 Build 0)  -->
<svg version="1.1" id="Layer_1" xmlns="http://www.w3.org/2000/svg" xmlns:xlink="http://www.w3.org/1999/xlink" x="0px" y="0px"
	 viewBox="0 0 50.46 50.46" style="enable-background:new 0 0 50.46 50.46;" xml:space="preserve">
<path d="M41.46,25.65c2.255-0.869,3.784-2.986,3.9-5.4l0,0l0,0c-0.003-0.068-0.013-0.135-0.03-0.2c0.004-0.053,0.004-0.107,0-0.16
	L40.92,8.55C40.78,8.211,40.447,7.993,40.08,8H11.85c-0.338-0.002-0.648,0.188-0.8,0.49L5.19,19.8l0,0
	c-0.006,0.057-0.006,0.113,0,0.17c-0.009,0.056-0.009,0.114,0,0.17l0,0c0.063,2.43,1.558,4.593,3.81,5.51v19.94
	c0,0.497,0.403,0.9,0.9,0.9l0,0h30.66c0.497,0,0.9-0.403,0.9-0.9l0,0V25.65z M39.47,9.77l3.68,9.55h-10.7l-1.08-9.55
	C31.37,9.77,39.47,9.77,39.47,9.77z M29.56,9.77l1.07,9.55H20l2.27-9.55L29.56,9.77z M30.62,21.12c-0.53,2-2.74,3.44-5.39,3.44
	s-4.86-1.48-5.39-3.44H30.62z M12.4,9.77h8l-2.27,9.55H7.47L12.4,9.77z M7,21.12h10.8c-0.53,2-2.75,3.44-5.39,3.44
	S7.54,23.08,7,21.12z M39.71,33.75H10.8v-7.54c0.531,0.096,1.07,0.147,1.61,0.15c2.534,0.067,4.936-1.128,6.41-3.19
	c1.472,2.065,3.875,3.261,6.41,3.19c2.535,0.071,4.938-1.125,6.41-3.19c1.474,2.062,3.876,3.257,6.41,3.19
	c0.54-0.003,1.079-0.054,1.61-0.15L39.71,33.75z M38.1,24.56c-2.64,0-4.86-1.48-5.39-3.44h10.74c-0.53,1.96-2.75,3.44-5.4,3.44H38.1
	z"/>
</svg>
