<?xml version="1.0" encoding="utf-8"?>
<!-- Generator: Adobe Illustrator 24.0.2, SVG Export Plug-In . SVG Version: 6.00 Build 0)  -->
<svg version="1.1" id="Layer_1" xmlns="http://www.w3.org/2000/svg" xmlns:xlink="http://www.w3.org/1999/xlink" x="0px" y="0px"
	 viewBox="0 0 50.5 50.5" style="enable-background:new 0 0 50.5 50.5;" xml:space="preserve">
<path d="M28.029,19.653h-5.598c-0.386,0-0.7,0.313-0.7,0.7v19.592c0,0.386,0.313,0.7,0.7,0.7h5.598c0.386,0,0.7-0.313,0.7-0.7
	V20.352C28.729,19.966,28.415,19.653,28.029,19.653z M27.329,39.245h-4.198V21.052h4.198V39.245z M44.822,16.854h-5.598
	c-0.386,0-0.7,0.313-0.7,0.7v22.391c0,0.386,0.313,0.7,0.7,0.7h5.598c0.386,0,0.7-0.313,0.7-0.7V17.553
	C45.522,17.167,45.208,16.854,44.822,16.854z M44.122,39.245h-4.198V18.253h4.198V39.245z M36.425,32.247h-5.598
	c-0.386,0-0.7,0.313-0.7,0.7v6.997c0,0.386,0.313,0.7,0.7,0.7h5.598c0.386,0,0.7-0.313,0.7-0.7v-6.997
	C37.125,32.561,36.812,32.247,36.425,32.247z M35.726,39.245h-4.198v-5.598h4.198V39.245z M11.236,22.451H5.638
	c-0.386,0-0.7,0.313-0.7,0.7v16.793c0,0.386,0.313,0.7,0.7,0.7h5.598c0.386,0,0.7-0.313,0.7-0.7V23.151
	C11.935,22.765,11.622,22.451,11.236,22.451z M10.536,39.245H6.338V23.851h4.198V39.245z M19.632,26.65h-5.598
	c-0.386,0-0.7,0.313-0.7,0.7v12.595c0,0.386,0.313,0.7,0.7,0.7h5.598c0.386,0,0.7-0.313,0.7-0.7V27.349
	C20.332,26.963,20.019,26.65,19.632,26.65z M18.933,39.245h-4.198V28.049h4.198V39.245z M41.258,4.918
	c-1.4-0.01-2.544,1.117-2.554,2.517c-0.005,0.707,0.285,1.384,0.801,1.868l-5.224,9.581c-0.473-0.131-0.976-0.108-1.435,0.066
	l-4.859-7.292c0.931-1.033,0.849-2.624-0.184-3.555c-1.033-0.931-2.624-0.849-3.555,0.184c-0.684,0.759-0.842,1.856-0.399,2.776
	l-3.821,3.18c-1.048-0.765-2.508-0.593-3.351,0.393l-3.204-1.602c0.291-1.36-0.576-2.697-1.936-2.988
	c-1.36-0.291-2.697,0.576-2.988,1.936c-0.291,1.36,0.576,2.697,1.936,2.988c0.173,0.037,0.35,0.056,0.528,0.056
	c0.726-0.002,1.415-0.32,1.888-0.87l3.204,1.602c-0.302,1.357,0.553,2.702,1.91,3.005c1.357,0.302,2.702-0.553,3.005-1.91
	c0.123-0.552,0.057-1.129-0.189-1.639l3.821-3.18c0.659,0.487,1.518,0.61,2.287,0.327l4.858,7.292
	c-0.929,1.035-0.842,2.626,0.193,3.555c1.035,0.928,2.626,0.842,3.555-0.193c0.917-1.022,0.846-2.591-0.16-3.525l5.224-9.581
	c0.201,0.052,0.407,0.079,0.614,0.081c1.4,0.01,2.544-1.117,2.554-2.517C43.785,6.072,42.658,4.928,41.258,4.918z M11.013,13.765
	c-0.695,0-1.259-0.563-1.259-1.259c0-0.695,0.564-1.259,1.259-1.259c0.695,0,1.259,0.564,1.259,1.259
	C12.271,13.202,11.708,13.765,11.013,13.765z M18.565,17.541c-0.695,0-1.259-0.564-1.259-1.259c0-0.695,0.563-1.259,1.259-1.259
	c0.695,0,1.259,0.563,1.259,1.259C19.824,16.978,19.26,17.541,18.565,17.541z M26.117,11.248c-0.695,0-1.259-0.564-1.259-1.259
	c0-0.695,0.564-1.259,1.259-1.259c0.695,0,1.259,0.563,1.259,1.259C27.376,10.684,26.812,11.248,26.117,11.248z M33.669,22.576
	c-0.695,0-1.259-0.564-1.259-1.259c0-0.695,0.563-1.259,1.259-1.259c0.695,0,1.259,0.564,1.259,1.259
	C34.928,22.013,34.364,22.576,33.669,22.576z M41.221,8.731c-0.695,0-1.259-0.564-1.259-1.259c0-0.695,0.564-1.259,1.259-1.259
	c0.695,0,1.259,0.564,1.259,1.259C42.48,8.167,41.916,8.731,41.221,8.731z M45.522,41.344H4.938c-0.386,0-0.7,0.313-0.7,0.7v2.799
	c0,0.386,0.313,0.7,0.7,0.7h40.583c0.386,0,0.7-0.313,0.7-0.7v-2.799C46.221,41.657,45.908,41.344,45.522,41.344z M44.822,44.143
	H5.638v-1.399h39.184V44.143z"/>
</svg>
