<?xml version="1.0" encoding="utf-8"?>
<!-- Generator: Adobe Illustrator 24.0.2, SVG Export Plug-In . SVG Version: 6.00 Build 0)  -->
<svg version="1.1" id="Layer_1" xmlns="http://www.w3.org/2000/svg" xmlns:xlink="http://www.w3.org/1999/xlink" x="0px" y="0px"
	 viewBox="0 0 50.5 50.5" style="enable-background:new 0 0 50.5 50.5;" xml:space="preserve">
<path d="M15.675,34.785h3.822v1.911h-7.644v-1.911h1.911v-3.822H5.165c-1.583,0-2.866-1.283-2.866-2.866V5.165
	c0-1.583,1.283-2.866,2.866-2.866h32.486c1.583,0,2.866,1.283,2.866,2.866v17.198h-1.911V5.165c0-0.528-0.428-0.955-0.955-0.955
	H5.165c-0.528,0-0.956,0.428-0.956,0.955v22.931c0,0.528,0.428,0.956,0.956,0.956h12.421v1.911h-1.911V34.785z M6.121,24.274
	c0,1.583,1.283,2.866,2.866,2.866h1.911V25.23H8.987c-0.528,0-0.956-0.428-0.956-0.956v-1.911H6.121V24.274z M8.032,18.542H6.121
	v1.911h1.911V18.542z M47.881,45.213l-2.666,2.666c-0.179,0.18-0.422,0.282-0.675,0.283c-0.253,0-0.496-0.101-0.676-0.28
	l-5.997-5.998c-0.373-0.373-0.373-0.978,0-1.351l0.657-0.657l-2.015-2.015c-1.856,1.542-4.199,2.399-6.632,2.399
	c-5.733,0-10.381-4.647-10.382-10.381c0-5.733,4.647-10.381,10.381-10.382c2.754,0,5.395,1.094,7.342,3.041
	c3.825,3.826,4.036,9.892,0.641,13.97l2.016,2.016l0.658-0.658c0.179-0.179,0.422-0.28,0.675-0.28c0.253,0,0.496,0.101,0.675,0.28
	l5.997,5.996C48.254,44.235,48.254,44.84,47.881,45.213z M38.345,29.881c0.001-2.246-0.891-4.4-2.478-5.989
	c-1.584-1.596-3.741-2.49-5.99-2.484c-4.678-0.002-8.471,3.789-8.473,8.467s3.789,8.471,8.467,8.473
	C34.55,38.35,38.343,34.559,38.345,29.881z M45.855,44.54l-4.646-4.647l-1.315,1.315l4.646,4.647L45.855,44.54z M30.007,23.319
	v1.911c2.637,0.003,4.774,2.14,4.777,4.777h1.911C36.691,26.315,33.699,23.323,30.007,23.319z M28.781,11.568L25.9,14.449
	c0.178,0.373,0.286,0.786,0.286,1.227c0,1.583-1.283,2.866-2.866,2.866s-2.866-1.283-2.866-2.866c0-0.44,0.107-0.852,0.284-1.224
	l-2.882-2.882c-0.372,0.177-0.784,0.284-1.224,0.284c-0.442,0-0.855-0.108-1.229-0.286l-3.829,3.829l-1.351-1.351l3.829-3.829
	c-0.178-0.374-0.287-0.787-0.287-1.229c0-1.583,1.283-2.866,2.866-2.866s2.866,1.283,2.866,2.866c0,0.443-0.109,0.858-0.289,1.233
	l2.878,2.878c0.375-0.18,0.79-0.289,1.233-0.289c0.442,0,0.856,0.109,1.231,0.288l2.879-2.879c-0.179-0.374-0.288-0.788-0.288-1.231
	c0-1.583,1.283-2.866,2.866-2.866c1.583,0,2.867,1.283,2.866,2.866c0,1.583-1.283,2.866-2.866,2.866
	C29.567,11.854,29.154,11.746,28.781,11.568z M29.052,8.987c0,0.528,0.428,0.956,0.956,0.956c0.528,0,0.956-0.428,0.956-0.956
	c0-0.528-0.428-0.956-0.956-0.956C29.48,8.031,29.052,8.459,29.052,8.987z M16.631,9.942c0.528,0,0.956-0.428,0.956-0.956
	c0-0.528-0.428-0.956-0.956-0.956c-0.528,0-0.955,0.428-0.955,0.956S16.103,9.942,16.631,9.942z M24.275,15.675
	c0-0.528-0.428-0.956-0.956-0.956s-0.956,0.428-0.956,0.956s0.428,0.956,0.956,0.956S24.275,16.203,24.275,15.675z"/>
</svg>
