<?xml version="1.0" encoding="utf-8"?>
<!-- Generator: Adobe Illustrator 24.0.2, SVG Export Plug-In . SVG Version: 6.00 Build 0)  -->
<svg version="1.1" id="Layer_1" xmlns="http://www.w3.org/2000/svg" xmlns:xlink="http://www.w3.org/1999/xlink" x="0px" y="0px"
	 viewBox="0 0 50.5 50.5" style="enable-background:new 0 0 50.5 50.5;" xml:space="preserve">
<path d="M16.279,38.86h14.3v2.463h-14.3V38.86z M46.249,11.779v16.903c0,2.037-1.658,3.695-3.695,3.695l-4.834,0v10.178
	c0,2.037-1.658,3.695-3.695,3.695c0,0-26.187-0.001-26.222-0.002c-1.981-0.054-3.592-1.734-3.592-3.745v-24.42h8.528V4.21h12.17
	l3.368,2.642h15.508v4.926H46.249z M15.203,6.674v21.957c0,0.684,0.529,1.256,1.182,1.282h0.036
	c0.328,0.003,0.637-0.119,0.872-0.348c0.24-0.234,0.373-0.548,0.373-0.883V11.779h23.656V9.316H27.427l-3.368-2.642H15.203z
	 M9.138,25.652h3.602v-5.105H6.674v21.957c0,0.689,0.537,1.264,1.196,1.282c0.338,0.008,0.654-0.114,0.894-0.348
	c0.24-0.234,0.373-0.548,0.373-0.883V25.652z M35.257,32.376l-18.925-0.001c-1.981-0.054-3.592-1.734-3.592-3.745v-0.516h-1.139
	v14.44c0,0.427-0.072,0.842-0.209,1.232h22.633c0.679,0,1.232-0.552,1.232-1.232h0V32.376z M43.785,28.682L43.785,28.682l0-14.44
	H20.129v14.44c0,0.427-0.072,0.841-0.209,1.231l22.634,0.001C43.233,29.913,43.785,29.361,43.785,28.682z M24.807,27.45h14.3v-2.463
	h-14.3V27.45z"/>
</svg>
