<?xml version="1.0" encoding="utf-8"?>
<!-- Generator: Adobe Illustrator 24.0.2, SVG Export Plug-In . SVG Version: 6.00 Build 0)  -->
<svg version="1.1" id="Layer_1" xmlns="http://www.w3.org/2000/svg" xmlns:xlink="http://www.w3.org/1999/xlink" x="0px" y="0px"
	 viewBox="0 0 50.5 50.5" style="enable-background:new 0 0 50.5 50.5;" xml:space="preserve">
<path d="M45.051,24.95l-1.443-0.204c0.01-0.25,0.015-0.497,0.015-0.737c0-5.233-2.038-10.153-5.738-13.854
	c-3.7-3.7-8.62-5.738-13.854-5.738c-7.88,0-14.962,4.688-18.042,11.942c-0.132,0.31,0.013,0.668,0.323,0.799
	c0.31,0.132,0.668-0.013,0.799-0.323c0.172-0.404,0.357-0.8,0.555-1.187c1.099-0.818,2.334-1.542,3.678-2.163
	c-0.581,1.726-1.017,3.568-1.296,5.484c-1.48,0.319-2.815,0.691-3.968,1.111c0.056-0.258,0.118-0.516,0.185-0.771
	c0.086-0.326-0.108-0.659-0.434-0.745c-0.326-0.086-0.659,0.108-0.745,0.434c-0.43,1.63-0.648,3.315-0.648,5.011
	c0,5.233,2.038,10.153,5.738,13.854c3.7,3.701,8.621,5.738,13.854,5.738c1.986,0,3.944-0.297,5.826-0.882
	c1.044,0.958,2.253,1.755,3.598,2.341l2.135,0.931c0.078,0.034,0.161,0.051,0.244,0.051c0.083,0,0.166-0.017,0.244-0.051
	l2.135-0.931c1.037-0.452,2.013-1.039,2.899-1.744c0.264-0.209,0.307-0.593,0.098-0.857c-0.21-0.263-0.593-0.307-0.857-0.098
	c-0.803,0.639-1.687,1.171-2.627,1.581l-1.891,0.825l-1.891-0.825c-1.324-0.577-2.504-1.38-3.503-2.351
	c-0.005-0.005-0.01-0.01-0.015-0.014c-2.235-2.179-3.56-5.203-3.56-8.441v-6.991l1.661-0.234c2.383-0.337,4.653-1.288,6.563-2.753
	l0.593-0.454c0.089-0.068,0.214-0.068,0.303,0l0.593,0.455c1.91,1.464,4.18,2.416,6.563,2.753l1.661,0.234v6.991
	c0,2.726-0.955,5.388-2.689,7.494c-0.214,0.26-0.177,0.644,0.083,0.858c0.26,0.214,0.644,0.177,0.858-0.083
	c1.913-2.324,2.966-5.26,2.966-8.268v-7.071C46.021,25.508,45.604,25.028,45.051,24.95z M37.023,11.018
	c0.7,0.7,1.335,1.446,1.905,2.232h0c-0.88-0.496-1.816-0.944-2.799-1.343c-0.399-0.982-0.847-1.917-1.341-2.796
	C35.574,9.681,36.322,10.317,37.023,11.018z M32.387,7.637c0.817,1.096,1.541,2.334,2.162,3.684
	c-1.724-0.58-3.565-1.016-5.479-1.294c-0.319-1.481-0.691-2.818-1.111-3.971C29.502,6.39,30.988,6.922,32.387,7.637z M28.919,17.805
	c-1.581-0.093-3.218-0.142-4.887-0.142c-1.669,0-3.306,0.048-4.887,0.141c0.19-2.408,0.487-4.673,0.877-6.686
	c1.309-0.155,2.651-0.236,4.011-0.236c1.36,0,2.701,0.081,4.011,0.236C28.432,13.132,28.729,15.397,28.919,17.805z M21.504,5.81
	c0.829-0.114,1.673-0.174,2.527-0.174c0.853,0,1.696,0.059,2.527,0.173c0.461,1.126,0.871,2.498,1.222,4.055
	c-1.228-0.131-2.481-0.199-3.748-0.199c-1.267,0-2.52,0.068-3.748,0.2C20.634,8.307,21.044,6.936,21.504,5.81z M15.673,7.641
	c1.392-0.71,2.879-1.245,4.43-1.582c-0.42,1.152-0.792,2.487-1.11,3.967c-1.916,0.279-3.758,0.715-5.484,1.296
	C14.13,9.978,14.854,8.741,15.673,7.641z M9.129,13.253c1.16-1.609,2.563-3.005,4.147-4.147c-0.497,0.881-0.946,1.818-1.346,2.802
	C10.947,12.307,10.01,12.756,9.129,13.253z M12.867,12.845c1.819-0.697,3.797-1.219,5.872-1.549
	c-0.371,2.002-0.651,4.225-0.829,6.592c-2.367,0.178-4.59,0.458-6.592,0.829C11.648,16.642,12.17,14.663,12.867,12.845z
	 M18.739,36.723c-2.076-0.33-4.054-0.852-5.872-1.549c-0.697-1.818-1.219-3.797-1.549-5.872c2.002,0.371,4.225,0.651,6.592,0.829
	C18.088,32.498,18.368,34.722,18.739,36.723z M11.141,19.999c2.013-0.39,4.278-0.687,6.686-0.877
	c-0.093,1.581-0.142,3.218-0.142,4.887c0,1.67,0.048,3.306,0.142,4.887c-2.408-0.19-4.673-0.487-6.686-0.877
	c-0.155-1.309-0.236-2.651-0.236-4.011C10.905,22.65,10.986,21.308,11.141,19.999z M5.658,24.01c0-0.847,0.059-1.692,0.174-2.527
	c1.126-0.461,2.497-0.87,4.053-1.221c-0.131,1.228-0.199,2.481-0.199,3.748s0.068,2.52,0.199,3.748
	c-1.557-0.351-2.928-0.761-4.054-1.222C5.717,25.706,5.658,24.862,5.658,24.01z M6.078,27.937c1.153,0.42,2.489,0.793,3.971,1.112
	c0.279,1.916,0.715,3.758,1.296,5.484c-1.347-0.622-2.585-1.348-3.686-2.168C6.943,30.966,6.412,29.48,6.078,27.937z M11.04,37.001
	c-0.7-0.699-1.334-1.446-1.904-2.231c0.879,0.495,1.814,0.943,2.794,1.342c0.398,0.981,0.846,1.915,1.342,2.794
	C12.486,38.336,11.739,37.701,11.04,37.001z M15.676,40.382c-0.82-1.1-1.546-2.338-2.168-3.685c1.726,0.581,3.568,1.017,5.484,1.296
	c0.319,1.481,0.691,2.817,1.112,3.97C18.561,41.629,17.075,41.098,15.676,40.382z M26.253,37.062
	c-0.738,0.048-1.482,0.074-2.222,0.074c-1.36,0-2.701-0.081-4.011-0.236c-0.389-2.013-0.687-4.277-0.877-6.686
	c1.581,0.093,3.218,0.142,4.887,0.142c0.536,0,1.077-0.005,1.615-0.016v2.797C25.646,34.492,25.858,35.812,26.253,37.062z
	 M28.285,40.992c0.192,0.254,0.393,0.501,0.604,0.74c-0.308,0.084-0.619,0.161-0.931,0.229
	C28.07,41.652,28.179,41.329,28.285,40.992z M27.404,39.665c-0.262,0.955-0.546,1.809-0.846,2.544
	c-0.834,0.115-1.678,0.173-2.527,0.173c-0.853,0-1.696-0.059-2.526-0.173c-0.461-1.126-0.871-2.498-1.222-4.055
	c1.228,0.131,2.481,0.2,3.748,0.2c0.887,0,1.781-0.036,2.663-0.102C26.902,38.739,27.14,39.21,27.404,39.665z M29.156,24.565
	c-0.265,0.055-0.532,0.102-0.801,0.14l-1.74,0.246c-0.553,0.078-0.969,0.558-0.969,1.116v3.055c-0.537,0.01-1.078,0.016-1.615,0.016
	c-1.691,0-3.359-0.053-4.974-0.153c-0.1-1.614-0.153-3.283-0.153-4.974s0.053-3.359,0.153-4.974c1.614-0.1,3.283-0.153,4.974-0.153
	c1.691,0,3.36,0.053,4.974,0.153c0.1,1.614,0.153,3.283,0.153,4.974C29.158,24.187,29.158,24.369,29.156,24.565z M29.324,11.296
	c2.073,0.329,4.048,0.85,5.865,1.546c0.696,1.819,1.22,3.799,1.551,5.874c-2-0.37-4.222-0.65-6.587-0.828
	C29.975,15.521,29.695,13.298,29.324,11.296z M36.727,21.737c-0.526-0.403-1.26-0.403-1.787,0l-0.593,0.454
	c-1.194,0.915-2.541,1.61-3.97,2.057c0-0.081,0-0.16,0-0.239c0-1.67-0.048-3.306-0.142-4.887c2.407,0.19,4.671,0.487,6.682,0.876
	c0.079,0.667,0.139,1.342,0.179,2.023L36.727,21.737z M36.712,13.484c1.35,0.623,2.59,1.349,3.692,2.171
	c0.716,1.399,1.247,2.885,1.581,4.428c-1.154-0.42-2.49-0.793-3.973-1.112C37.732,17.056,37.294,15.211,36.712,13.484z
	 M42.396,24.539c-1.428-0.309-2.796-0.862-4.038-1.631c-0.027-0.892-0.089-1.775-0.182-2.647c1.558,0.351,2.93,0.761,4.056,1.222
	c0.114,0.831,0.173,1.674,0.173,2.527C42.404,24.183,42.401,24.36,42.396,24.539z M39.928,28.993
	c-1.125-1.014-2.579-1.572-4.094-1.572c-3.375,0-6.12,2.745-6.12,6.12c0,3.375,2.745,6.12,6.12,6.12c3.375,0,6.12-2.745,6.12-6.12
	c0-0.932-0.204-1.826-0.606-2.658c-0.146-0.303-0.019-0.668,0.284-0.814c0.303-0.146,0.668-0.019,0.814,0.284
	c0.483,0.999,0.727,2.072,0.727,3.189c0,4.047-3.292,7.339-7.339,7.339c-4.047,0-7.339-3.292-7.339-7.339
	c0-4.047,3.292-7.339,7.339-7.339c1.817,0,3.561,0.67,4.91,1.885c0.25,0.225,0.27,0.611,0.045,0.861
	C40.563,29.198,40.178,29.218,39.928,28.993z M39.173,30.438c0.269,0.203,0.322,0.585,0.118,0.854l-3.9,5.155
	c-0.099,0.131-0.247,0.217-0.411,0.237c-0.025,0.003-0.05,0.005-0.076,0.005c-0.138,0-0.272-0.047-0.381-0.134l-1.322-1.057
	c-0.263-0.21-0.306-0.594-0.095-0.857c0.21-0.263,0.594-0.305,0.857-0.095l0.833,0.666l3.522-4.656
	C38.522,30.288,38.904,30.235,39.173,30.438z"/>
</svg>
