<?xml version="1.0" encoding="utf-8"?>
<!-- Generator: Adobe Illustrator 24.0.2, SVG Export Plug-In . SVG Version: 6.00 Build 0)  -->
<svg version="1.1" id="Layer_1" xmlns="http://www.w3.org/2000/svg" xmlns:xlink="http://www.w3.org/1999/xlink" x="0px" y="0px"
	 viewBox="0 0 50.5 50.5" style="enable-background:new 0 0 50.5 50.5;" xml:space="preserve">
<path d="M42.714,38.48c0.453-0.65,0.72-1.44,0.72-2.291V35.4c0-2.215-1.802-4.018-4.018-4.018c-2.215,0-4.018,1.802-4.018,4.018
	v0.788c0,0.851,0.267,1.641,0.72,2.291c-1.57,0.047-2.952,0.849-3.796,2.056c-0.844-1.207-2.226-2.009-3.796-2.056
	c0.453-0.65,0.72-1.44,0.72-2.291V35.4c0-2.215-1.802-4.018-4.018-4.018c-2.215,0-4.018,1.802-4.018,4.018v0.788
	c0,0.851,0.267,1.641,0.72,2.291c-1.57,0.047-2.952,0.849-3.796,2.056c-0.844-1.207-2.226-2.009-3.796-2.056
	c0.453-0.65,0.72-1.44,0.72-2.291V35.4c0-2.215-1.802-4.018-4.018-4.018c-2.215,0-4.018,1.802-4.018,4.018v0.788
	c0,0.851,0.267,1.641,0.72,2.291c-2.583,0.077-4.661,2.201-4.661,4.802v3.228c0,0.478,0.387,0.865,0.865,0.865h14.186h14.186H46.51
	c0.478,0,0.865-0.387,0.865-0.865v-3.228C47.375,40.68,45.297,38.557,42.714,38.48z M8.756,35.4c0-1.261,1.026-2.287,2.288-2.287
	c1.261,0,2.287,1.026,2.287,2.287v0.788c0,1.261-1.026,2.287-2.287,2.287c-1.261,0-2.288-1.026-2.288-2.287V35.4z M17.272,45.645
	H4.815v-2.363c0-1.696,1.38-3.076,3.076-3.076h2.288v3.457c0,0.478,0.387,0.865,0.865,0.865c0.478,0,0.865-0.387,0.865-0.865v-3.457
	h2.287c1.696,0,3.076,1.38,3.076,3.076V45.645z M22.942,35.4c0-1.261,1.026-2.287,2.287-2.287c1.261,0,2.287,1.026,2.287,2.287
	v0.788c0,1.261-1.026,2.287-2.287,2.287c-1.261,0-2.287-1.026-2.287-2.287V35.4z M31.458,45.645H19.002v-2.363
	c0-1.696,1.38-3.076,3.076-3.076h2.298v3.457c0,0.478,0.387,0.865,0.865,0.865c0.478,0,0.865-0.387,0.865-0.865v-3.457h2.276
	c1.696,0,3.076,1.38,3.076,3.076V45.645z M37.129,35.4c0-1.261,1.026-2.287,2.287-2.287c1.261,0,2.288,1.026,2.288,2.287v0.788
	c0,1.261-1.026,2.287-2.288,2.287c-1.261,0-2.287-1.026-2.287-2.287V35.4z M45.645,45.645H33.188v-2.363
	c0-1.696,1.38-3.076,3.076-3.076h2.309v3.457c0,0.478,0.387,0.865,0.865,0.865c0.478,0,0.865-0.387,0.865-0.865v-3.457h2.266
	c1.696,0,3.076,1.38,3.076,3.076V45.645z M25.841,19.861c0.161,0.161,0.254,0.384,0.254,0.612s-0.093,0.451-0.254,0.612
	c-0.161,0.161-0.384,0.253-0.612,0.253c-0.227,0-0.451-0.093-0.612-0.253c-0.161-0.161-0.253-0.384-0.253-0.612
	s0.093-0.451,0.253-0.612s0.384-0.253,0.612-0.253C25.458,19.607,25.681,19.7,25.841,19.861z M11.044,30.166
	c0.478,0,0.865-0.387,0.865-0.865v-1.13h12.456v1.13c0,0.478,0.387,0.865,0.865,0.865c0.478,0,0.865-0.387,0.865-0.865v-1.13h2.948
	c0.478,0,0.865-0.387,0.865-0.865c0-0.478-0.387-0.865-0.865-0.865h-2.948v-2.076h8.873c0.478,0,0.865-0.387,0.865-0.865v-2.593
	c0-3.53-2.872-6.401-6.401-6.401h-0.356c0.81-0.91,1.304-2.108,1.304-3.42V8.425V8.235c0-2.84-2.31-5.15-5.15-5.15
	c-2.84,0-5.15,2.31-5.15,5.15v2.851c0,1.312,0.494,2.51,1.304,3.42h-0.356c-3.53,0-6.401,2.872-6.401,6.401V23.5
	c0,0.478,0.387,0.865,0.865,0.865h8.873v2.076H11.044c-0.478,0-0.865,0.387-0.865,0.865v1.995
	C10.179,29.779,10.566,30.166,11.044,30.166z M21.81,8.235c0-1.886,1.534-3.42,3.42-3.42c1.715,0,3.14,1.269,3.383,2.918
	l-1.526-0.897c-0.364-0.214-0.83-0.134-1.101,0.19c-0.732,0.874-1.805,1.375-2.945,1.375h-1.23V8.235z M21.81,10.132h1.23
	c1.404,0,2.738-0.524,3.758-1.458l1.851,1.088v1.325c0,1.886-1.534,3.42-3.42,3.42c-1.886,0-3.42-1.534-3.42-3.42V10.132z
	 M16.357,22.635v-1.728c0-2.576,2.096-4.671,4.671-4.671h3.337v0.949c0,0.478,0.387,0.865,0.865,0.865
	c0.478,0,0.865-0.387,0.865-0.865v-0.949h3.337c2.576,0,4.671,2.095,4.671,4.671v1.728H16.357z M32.156,26.441
	c0.228,0,0.452,0.093,0.612,0.253c0.161,0.161,0.254,0.384,0.254,0.612c0,0.228-0.093,0.451-0.254,0.612
	c-0.162,0.161-0.384,0.254-0.612,0.254c-0.227,0-0.45-0.093-0.611-0.254c-0.162-0.161-0.253-0.384-0.253-0.612
	c0-0.227,0.092-0.451,0.253-0.612C31.706,26.533,31.929,26.441,32.156,26.441z M34.968,26.441h4.47c0.478,0,0.865,0.387,0.865,0.865
	v1.995c0,0.478-0.387,0.865-0.865,0.865c-0.478,0-0.865-0.387-0.865-0.865v-1.13h-3.605c-0.478,0-0.865-0.387-0.865-0.865
	C34.103,26.828,34.49,26.441,34.968,26.441z"/>
</svg>
