<?xml version="1.0" encoding="utf-8"?>
<!-- Generator: Adobe Illustrator 24.0.2, SVG Export Plug-In . SVG Version: 6.00 Build 0)  -->
<svg version="1.1" id="Layer_1" xmlns="http://www.w3.org/2000/svg" xmlns:xlink="http://www.w3.org/1999/xlink" x="0px" y="0px"
	 viewBox="0 0 50.5 50.5" style="enable-background:new 0 0 50.5 50.5;" xml:space="preserve">
<path d="M13.118,45.134c0.265,0.373,0.177,0.89-0.196,1.155c-0.146,0.103-0.313,0.153-0.479,0.153c-0.259,0-0.515-0.121-0.676-0.349
	l-1.247-1.757c-0.265-0.373-0.177-0.89,0.196-1.155c0.373-0.265,0.891-0.177,1.155,0.196L13.118,45.134z M21.321,38.973
	c-0.66-3.146-2.493-5.867-5.161-7.661l-2.899-1.949c-1.162-0.781-2.725-0.613-3.696,0.377v-9.985c0-1.311-0.893-2.424-2.173-2.708
	c-0.826-0.183-1.677,0.015-2.337,0.544c-0.66,0.529-1.038,1.318-1.038,2.164v12.848c0,1.683,0.515,3.298,1.489,4.671l1.478,2.082
	c0.162,0.228,0.417,0.349,0.676,0.349c0.166,0,0.333-0.05,0.479-0.153c0.373-0.265,0.461-0.782,0.196-1.155l-1.478-2.082
	c-0.774-1.091-1.184-2.374-1.184-3.712V19.756c0-0.34,0.152-0.658,0.418-0.871c0.265-0.213,0.608-0.293,0.941-0.219
	c0.515,0.114,0.875,0.563,0.875,1.09v10.193c0,1.443,0.53,2.818,1.493,3.887c0.041,0.049,0.084,0.098,0.129,0.146
	c0.55,0.583,1.197,1.27,1.807,1.918l0.853,0.908c0.003,0.003,0.006,0.005,0.009,0.008c0.73,0.776,1.268,1.349,1.279,1.361
	c0.313,0.333,0.838,0.35,1.171,0.037c0.334-0.313,0.35-0.838,0.037-1.171c-0.015-0.016-0.985-1.049-2.093-2.226l-1.9-2.022
	c-0.005-0.005-0.009-0.01-0.014-0.016c-0.445-0.533-0.44-1.305,0.027-1.833c0.413-0.466,1.114-0.556,1.631-0.208l2.898,1.949
	c2.308,1.552,3.893,3.905,4.464,6.626l1.358,6.471c0.082,0.391,0.426,0.659,0.81,0.659c0.056,0,0.114-0.006,0.171-0.018
	c0.448-0.094,0.735-0.533,0.641-0.981L21.321,38.973z M10.151,40.955c-0.266-0.373-0.783-0.459-1.156-0.193
	c-0.372,0.266-0.459,0.783-0.193,1.156l0.005,0.007c0.162,0.227,0.417,0.347,0.675,0.347c0.167,0,0.335-0.05,0.481-0.154
	c0.372-0.266,0.459-0.783,0.193-1.156L10.151,40.955z M45.405,17.592c-0.66-0.529-1.512-0.728-2.337-0.544
	c-1.279,0.284-2.173,1.398-2.173,2.708v9.985c-0.971-0.991-2.534-1.159-3.696-0.377L34.3,31.312
	c-2.668,1.794-4.501,4.515-5.161,7.661l-1.358,6.471c-0.094,0.448,0.193,0.887,0.641,0.981c0.057,0.012,0.115,0.018,0.171,0.018
	c0.384,0,0.728-0.268,0.81-0.659l1.358-6.471c0.571-2.721,2.156-5.075,4.464-6.626l2.899-1.949c0.517-0.347,1.218-0.258,1.631,0.208
	c0.466,0.526,0.473,1.298,0.029,1.831c-0.005,0.006-0.01,0.012-0.016,0.018c0,0-3.978,4.233-3.993,4.248
	c-0.313,0.334-0.297,0.858,0.037,1.171c0.334,0.313,0.858,0.297,1.171-0.037c0.011-0.012,3.397-3.612,3.947-4.195
	c0.045-0.047,0.087-0.096,0.129-0.146c0.963-1.07,1.493-2.444,1.493-3.887V19.756c0-0.528,0.36-0.976,0.875-1.09
	c0.333-0.074,0.675,0.006,0.941,0.219c0.266,0.213,0.418,0.531,0.418,0.871v12.848c0,1.338-0.409,2.621-1.184,3.712l-6.26,8.819
	c-0.265,0.373-0.177,0.89,0.196,1.155c0.146,0.103,0.313,0.153,0.479,0.153c0.259,0,0.515-0.122,0.676-0.349l6.26-8.819
	c0.974-1.373,1.489-2.988,1.489-4.671V19.756C46.443,18.91,46.065,18.122,45.405,17.592z M28.185,30.174
	c-0.458,0-0.829-0.371-0.829-0.829s0.371-0.829,0.829-0.829h0.939v-1.713c0-0.458,0.371-0.829,0.829-0.829s0.829,0.371,0.829,0.829
	v1.713h1.639v-2.149c0-1.599-1.086-2.976-2.642-3.347l-2.267-0.542l-1.52,3.457c-0.132,0.301-0.43,0.495-0.759,0.495h0
	c-0.328,0-0.626-0.194-0.758-0.495l-1.522-3.462l-2.274,0.545c-1.554,0.372-2.64,1.749-2.64,3.347v2.151h1.639v-1.713
	c0-0.458,0.371-0.829,0.829-0.829c0.458,0,0.829,0.371,0.829,0.829v1.712h0.856c0.458,0,0.829,0.371,0.829,0.829
	s-0.371,0.829-0.829,0.829h-4.981c-0.458,0-0.829-0.371-0.829-0.829v-2.98c0-0.102,0.004-0.203,0.01-0.303h-3.808
	c-0.458,0-0.829-0.371-0.829-0.829v-1.548c0-1.81,1.229-3.367,2.99-3.788l1.474-0.352v-0.264c-0.958-0.671-1.586-1.783-1.586-3.039
	v-1.789v-0.127c0-2.045,1.664-3.709,3.709-3.709c0.921,0,1.765,0.339,2.414,0.897c0.72-1.771,2.459-3.023,4.485-3.023
	c2.024,0,3.76,1.249,4.482,3.017c0.648-0.554,1.488-0.89,2.406-0.89c2.045,0,3.709,1.664,3.709,3.709v1.917
	c0,1.256-0.628,2.367-1.586,3.039v0.264l1.474,0.352c1.76,0.42,2.99,1.978,2.99,3.788v1.548c0,0.458-0.371,0.829-0.829,0.829h-3.819
	c0.006,0.101,0.01,0.203,0.01,0.306v2.977c0,0.458-0.371,0.829-0.829,0.829H28.185z M30.245,13.514
	c0.857,0.444,1.81,0.677,2.778,0.677h1.152c-0.07-1.068-0.961-1.916-2.047-1.916C31.286,12.275,30.56,12.786,30.245,13.514z
	 M30.077,16.243c0,1.131,0.92,2.051,2.051,2.051s2.051-0.92,2.051-2.051v-0.395h-1.157c-1.013,0-2.013-0.201-2.943-0.586v0.738
	c0,0.041-0.002,0.081-0.003,0.121V16.243z M22.058,13.469h1.133c1.061,0,2.061-0.467,2.743-1.28c0.26-0.31,0.706-0.387,1.055-0.182
	l1.395,0.82c-0.243-1.515-1.56-2.677-3.143-2.677c-1.755,0-3.183,1.428-3.183,3.183V13.469z M16.295,14.191h1.152
	c0.968,0,1.922-0.233,2.778-0.677c-0.315-0.728-1.041-1.239-1.883-1.239C17.256,12.275,16.365,13.123,16.295,14.191z M16.29,16.243
	c0,1.131,0.92,2.051,2.051,2.051s2.051-0.92,2.051-2.051v-0.981c-0.931,0.386-1.932,0.587-2.946,0.587H16.29V16.243z M20.712,21.307
	l-1.236-0.296c-0.102-0.019-0.202-0.058-0.294-0.118c-0.245-0.159-0.379-0.425-0.379-0.697c0-0.012,0-0.025,0.001-0.037v-0.236
	c-0.151,0.019-0.305,0.03-0.462,0.03c-0.158,0-0.312-0.011-0.465-0.03V20.2c0,0.384-0.263,0.717-0.636,0.806l-2.11,0.504
	c-1.011,0.242-1.717,1.136-1.717,2.176v0.719h3.359c0.61-1.471,1.891-2.607,3.521-2.998L20.712,21.307z M22.604,20.057
	c-0.569-0.371-1.056-0.859-1.426-1.429c-0.209,0.249-0.451,0.469-0.718,0.656v0.258l1.48,0.355c0.229,0.055,0.451,0.13,0.664,0.224
	V20.057z M26.203,20.745c-0.311,0.063-0.633,0.096-0.963,0.096c-0.335,0-0.663-0.034-0.979-0.1v0.591l0.972,2.211l0.97-2.205V20.745
	z M28.42,16.122V14.77l-1.709-1.004c-0.958,0.872-2.207,1.36-3.521,1.36h-1.133v0.875c0,1.755,1.428,3.183,3.183,3.183
	C26.955,19.184,28.356,17.821,28.42,16.122z M28.529,19.897l1.48-0.355v-0.258c-0.265-0.185-0.504-0.403-0.712-0.649
	c-0.373,0.573-0.864,1.061-1.437,1.432v0.056C28.075,20.029,28.299,19.953,28.529,19.897z M33.687,24.405h3.37v-0.719
	c0-1.04-0.706-1.934-1.717-2.176l-2.11-0.504c-0.373-0.089-0.636-0.422-0.636-0.806v-0.279c-0.152,0.019-0.307,0.03-0.465,0.03
	c-0.156,0-0.31-0.011-0.461-0.03v0.254c0,0.006,0,0.013,0,0.019c0,0.272-0.133,0.538-0.378,0.697
	c-0.094,0.061-0.195,0.1-0.299,0.119l-1.243,0.298l0.416,0.099C31.795,21.799,33.077,22.935,33.687,24.405z M25.23,28.517
	c-0.219,0-0.432,0.088-0.586,0.242c-0.155,0.155-0.243,0.368-0.243,0.587c0,0.218,0.088,0.431,0.243,0.586
	c0.154,0.154,0.367,0.243,0.586,0.243c0.218,0,0.431-0.089,0.586-0.243c0.154-0.155,0.243-0.368,0.243-0.586
	c0-0.219-0.089-0.432-0.243-0.587C25.661,28.605,25.448,28.517,25.23,28.517z M25.229,6.914c0.458,0,0.829-0.371,0.829-0.829v-1.24
	c0-0.458-0.371-0.829-0.829-0.829c-0.458,0-0.829,0.371-0.829,0.829v1.24C24.401,6.543,24.772,6.914,25.229,6.914z M21.006,7.892
	c0.162,0.162,0.374,0.242,0.586,0.242c0.212,0,0.424-0.081,0.586-0.243c0.323-0.324,0.323-0.848-0.001-1.172l-0.869-0.868
	c-0.324-0.324-0.848-0.323-1.172,0c-0.324,0.324-0.323,0.848,0.001,1.172L21.006,7.892z M28.855,8.151
	c0.212,0,0.424-0.081,0.586-0.243l0.863-0.863c0.323-0.324,0.323-0.848-0.001-1.172c-0.324-0.323-0.849-0.323-1.172,0.001
	l-0.862,0.863c-0.323,0.324-0.323,0.848,0.001,1.172C28.431,8.07,28.643,8.151,28.855,8.151z"/>
</svg>
