<?xml version="1.0" encoding="utf-8"?>
<!-- Generator: Adobe Illustrator 22.1.0, SVG Export Plug-In . SVG Version: 6.00 Build 0)  -->
<svg version="1.1" id="Layer_1" xmlns="http://www.w3.org/2000/svg" xmlns:xlink="http://www.w3.org/1999/xlink" x="0px" y="0px"
	 viewBox="0 0 50.5 50.5" style="enable-background:new 0 0 50.5 50.5;" xml:space="preserve">
<style type="text/css">
	.st0{fill:#12B5E1;}
</style>
<title>chat</title>
<g>
	<path class="st0" d="M42.4,7.3H8c-1.1,0-2,0.9-2,2v24.5c0,1.1,0.9,2,2,2h13.5v3.4c0,1.3-1.1,2.4-2.4,2.4h-0.5
		c-0.4,0-0.8,0.3-0.8,0.8s0.3,0.8,0.8,0.8h13.2c0.4,0,0.8-0.3,0.8-0.8s-0.3-0.8-0.8-0.8h-0.5c-1.3,0-2.4-1.1-2.4-2.4v-3.4h13.4
		c1.1,0,2-0.9,2-2V9.3C44.4,8.2,43.5,7.3,42.4,7.3z M22.2,41.6c0.5-0.7,0.8-1.5,0.8-2.4v-3.4h4.4v3.4c0,0.9,0.3,1.7,0.8,2.4H22.2z
		 M42.9,33.8c0,0.3-0.2,0.5-0.5,0.5H8c-0.3,0-0.5-0.2-0.5-0.5v-3h35.4V33.8z M42.9,29.3H7.6V9.3c0-0.2,0.2-0.4,0.4-0.5h34.4
		c0.3,0,0.5,0.2,0.5,0.5V29.3z"/>
	<path class="st0" d="M38.4,21.6H12c-0.6,0-1,0.4-1,1v2.7c0,0.6,0.4,1,1,1h26.4c0.6,0,1-0.4,1-1v-2.7C39.4,22.1,39,21.6,38.4,21.6z"
		/>
	<path class="st0" d="M38.4,13.3H20.4c-0.6,0-1,0.4-1,1V17c0,0.6,0.4,1,1,1h18.1c0.6,0,1-0.4,1-1v-2.7C39.4,13.7,39,13.3,38.4,13.3z
		"/>
</g>
<g>
	<g>
		<path class="st0" d="M14.4,16c-1,0-1.8,0.7-2,1.7c0,0.2,0.1,0.3,0.2,0.3h3.5c0.2,0,0.3-0.1,0.2-0.3C16.1,16.7,15.3,16,14.4,16z"/>
		<path class="st0" d="M14.4,15.7c0.7,0,1.2-0.5,1.2-1.2s-0.5-1.2-1.2-1.2s-1.2,0.5-1.2,1.2S13.7,15.7,14.4,15.7z"/>
	</g>
</g>
</svg>
