<?xml version="1.0" encoding="utf-8"?>
<!-- Generator: Adobe Illustrator 24.2.1, SVG Export Plug-In . SVG Version: 6.00 Build 0)  -->
<svg version="1.1" id="Layer_1" xmlns="http://www.w3.org/2000/svg" xmlns:xlink="http://www.w3.org/1999/xlink" x="0px" y="0px"
	 viewBox="0 0 50.5 50.5" style="enable-background:new 0 0 50.5 50.5;" xml:space="preserve">
<path d="M42.8,6.2H7.7C6.1,6.2,4.9,7.5,4.9,9v25.4c0,1.6,1.3,2.8,2.8,2.8h12.7v5h-5.3c-0.5,0-1,0.4-1,1c0,0.6,0.4,1,1,1h20.3
	c0.5,0,1-0.4,1-1c0-0.6-0.4-1-1-1h-5.3v-5h12.7c1.6,0,2.8-1.3,2.8-2.8V9.1C45.6,7.5,44.4,6.2,42.8,6.2z M28.6,42.3L28.6,42.3H22v-5
	h6.6V42.3z M43.6,27.7h-3.2c-0.4,0-0.8,0.4-0.8,0.8s0.4,0.8,0.8,0.8h3.2v5.3c0.1,0.4-0.3,0.9-0.8,0.9H7.7c-0.5,0-0.9-0.4-0.9-0.9
	v-5.3h29.8c0.4,0,0.8-0.4,0.8-0.8s-0.4-0.8-0.8-0.8H6.7V9.1c0-0.5,0.4-0.9,0.9-0.9h35.1c0.5,0,0.9,0.4,0.9,0.9V27.7z"/>
</svg>
