<svg id="Layer_1" data-name="Layer 1" xmlns="http://www.w3.org/2000/svg" viewBox="0 0 50.46 50.46"><defs><style>.cls-1{fill:#65b4e1;}</style></defs><title>computadora</title><path class="cls-1" d="M10.86,28.68a2.49,2.49,0,1,0,2.49,2.49A2.5,2.5,0,0,0,10.86,28.68Zm0,3.74a1.25,1.25,0,1,1,1.25-1.25A1.22,1.22,0,0,1,10.86,32.42Z"/><path class="cls-1" d="M16.81,8.69H5a2.83,2.83,0,0,0-2.83,2.83V38.94A2.83,2.83,0,0,0,5,41.77H16.81a2.88,2.88,0,0,0,2.83-2.83V11.52A2.83,2.83,0,0,0,16.81,8.69Zm1,30.3a1,1,0,0,1-1,1H5a1,1,0,0,1-1-1V11.56a1,1,0,0,1,1-1H16.81a1,1,0,0,1,1,1Z"/><path class="cls-1" d="M45.5,16.79H24.3a2.83,2.83,0,0,0-2.83,2.83v15a2.83,2.83,0,0,0,2.83,2.83h7.15v2.45H28.67a.94.94,0,0,0-1,1,1,1,0,0,0,1,1H41.13a.94.94,0,0,0,1-1,1,1,0,0,0-1-1H38.35V37.41H45.5a2.86,2.86,0,0,0,2.83-2.83v-15A2.83,2.83,0,0,0,45.5,16.79ZM24.3,18.71H45.5a1,1,0,0,1,1,1V30.84H23.35V19.66A1,1,0,0,1,24.3,18.71ZM36.44,39.86H33.36V37.41h3.08Zm9.06-4.28H24.3a1,1,0,0,1-1-1V32.09H46.45v2.54A1,1,0,0,1,45.5,35.58Z"/><path class="cls-1" d="M15.56,13.68H6.21a.94.94,0,0,0-1,1,1,1,0,0,0,1,1h9.35a1,1,0,0,0,0-1.91Z"/><path class="cls-1" d="M15.56,18H6.21a.94.94,0,0,0-1,1,1,1,0,0,0,1,1h9.35a1,1,0,1,0,0-1.91Z"/></svg>