<svg id="Layer_1" data-name="Layer 1" xmlns="http://www.w3.org/2000/svg" viewBox="0 0 50.46 50.46"><defs><style>.cls-1{fill:#12b5e1;}</style></defs><title>computadora - celular - tablet</title><path class="cls-1" d="M8.41,7.41A.41.41,0,0,1,8.82,7H38.44a.4.4,0,0,1,.4.41v7.23h1.32V7.41a1.73,1.73,0,0,0-1.72-1.73H8.82A1.73,1.73,0,0,0,7.1,7.41V17.89H8.41Z"/><rect class="cls-1" x="18.6" y="24.58" width="10.07" height="1.32"/><path class="cls-1" d="M11,21.7H8.89a.44.44,0,0,0-.43.44.43.43,0,0,0,.43.43H11a.43.43,0,0,0,.43-.43A.44.44,0,0,0,11,21.7Z"/><path class="cls-1" d="M9.94,41.84A.92.92,0,1,0,9,40.93.91.91,0,0,0,9.94,41.84Z"/><path class="cls-1" d="M13.7,19.52H6.17a3,3,0,0,0-2.16.9,4.07,4.07,0,0,0-1,2.94v18a2.3,2.3,0,0,0,.73,1.58A3.49,3.49,0,0,0,6.17,44H13.7A3.27,3.27,0,0,0,17,41.33v-18C16.94,21.1,15.59,19.52,13.7,19.52ZM4.29,22.76a1.89,1.89,0,0,1,1.88-1.89H13.7a1.89,1.89,0,0,1,1.88,1.89v.59H4.29ZM15.58,40.94a1.71,1.71,0,0,1-1.88,1.67H6.17a1.71,1.71,0,0,1-1.88-1.67l0-1.67h11.3Zm-11.26-3,0-13.22H15.58l0,13.22Z"/><path class="cls-1" d="M39.48,41.84a.92.92,0,1,0-.92-.91A.91.91,0,0,0,39.48,41.84Z"/><path class="cls-1" d="M45.42,16.27H33.54a3.3,3.3,0,0,0-3.24,3.49V41a3.21,3.21,0,0,0,3.24,3H45.42a3.21,3.21,0,0,0,3.24-3V19.76A3.3,3.3,0,0,0,45.42,16.27ZM47.3,40.73a1.88,1.88,0,0,1-1.88,1.88H33.54a1.89,1.89,0,0,1-1.89-1.88v-1.4H47.3Zm0-2.75H31.65V19.51a1.89,1.89,0,0,1,1.89-1.89H45.42a1.89,1.89,0,0,1,1.88,1.89Z"/><path class="cls-1" d="M29.31,35.22h-.39a1.9,1.9,0,0,1-.25,0,2.07,2.07,0,0,1-1.83-2V30.22h1.83V28.91H18.6v1.31h1.82v2.92a2.08,2.08,0,0,1-1.82,2l-.27,0H18a.66.66,0,1,0,0,1.31H29.31a.66.66,0,0,0,0-1.31Zm-8.29,0a3.44,3.44,0,0,0,.71-2.08V30.22h3.79v2.92a3.38,3.38,0,0,0,.72,2.08Z"/></svg>