<svg id="Layer_1" data-name="Layer 1" xmlns="http://www.w3.org/2000/svg" viewBox="0 0 50.46 50.46"><defs><style>.cls-1{fill:#12b5e1;}</style></defs><title>comunidad</title><path class="cls-1" d="M28.78,29l-.05,0a.85.85,0,0,0-.8.09,5.77,5.77,0,0,1-3.09,1,6.06,6.06,0,0,1-3.14-1,.8.8,0,0,0-.79,0c-4.59,2.27-6.5,8.38-6.09,9.57a.83.83,0,0,0,.27.37,18.62,18.62,0,0,0,9.75,3.13,17.41,17.41,0,0,0,9.77-3.15.86.86,0,0,0,.27-.38C35.27,37.36,33.37,31.25,28.78,29Zm-.34,1.49a7.75,7.75,0,0,1,1.21.85l-1.84,2.29L26,31.39A7.81,7.81,0,0,0,28.44,30.47Zm-2.1,3-1.47,1.78s0,.05,0,.07,0,0,0-.07l-1.46-1.78,1.49-1.82Zm-5.09-3a7.7,7.7,0,0,0,2.45.91l-1.83,2.23L20,31.32A8.74,8.74,0,0,1,21.25,30.47Zm-5,7.44A12.33,12.33,0,0,1,19.29,32l2.17,2.72a.62.62,0,0,0,.41.19.53.53,0,0,0,.4-.19l.41-.5,1.1,1.33L21.08,40A15.4,15.4,0,0,1,16.23,37.91Zm8.61,2.65a14.73,14.73,0,0,1-2.7-.3l2.7-4.42,2.72,4.45A15.1,15.1,0,0,1,24.84,40.56Zm3.79-.51L25.9,35.59,27,34.26l.42.5a.5.5,0,0,0,.4.19h0a.53.53,0,0,0,.4-.19L30.4,32a12.47,12.47,0,0,1,3.06,5.88A14.89,14.89,0,0,1,28.63,40.05Z"/><path class="cls-1" d="M24.85,28.9c3.84,0,6.93-4.65,6.93-8.49a6.94,6.94,0,1,0-13.87,0C17.91,24.25,21,28.9,24.85,28.9Zm5.45-8.49c0,.11,0,.22,0,.33-1.54-.56-2.15-3.41-2.36-4.83A5.45,5.45,0,0,1,30.3,20.41Zm-10.91,0A5.47,5.47,0,0,1,24.85,15a5.36,5.36,0,0,1,1.88.35,7.68,7.68,0,0,1-3.77,5,5.08,5.08,0,0,1-3.55.6C19.4,20.73,19.39,20.57,19.39,20.41Zm.89,1.65a6.82,6.82,0,0,0,3.16-.85,8.47,8.47,0,0,0,3.69-3.92c.4,1.75,1.26,4,3,4.5-.59,2.76-2.82,5.63-5.29,5.63S20.26,24.7,19.6,22A5.06,5.06,0,0,0,20.28,22.06Z"/><path class="cls-1" d="M35.53,21.11l.08.27a1.94,1.94,0,0,1,.08.45v0q-.07.15-.36.63l-.09.15a.6.6,0,0,0,.08.71,4,4,0,0,0,2,1.1.39.39,0,0,0,.15,0,.6.6,0,0,0,.15-1.19,3.31,3.31,0,0,1-1.09-.46,3.06,3.06,0,0,0,.32-.7,1.53,1.53,0,0,0,0-.3,2.9,2.9,0,0,0-.12-.77l-.08-.29c0-.11-.07-.22-.1-.33l0-.1a4.94,4.94,0,0,1-.43-2A4.67,4.67,0,1,1,45,20.41l-.18.63a2.89,2.89,0,0,0-.13.79,1.53,1.53,0,0,0,0,.3.29.29,0,0,0,0,.09,3.43,3.43,0,0,0,.31.61,2.91,2.91,0,0,1-.81.38.61.61,0,1,0,.36,1.16,3.66,3.66,0,0,0,1.67-1,.62.62,0,0,0,.09-.71l-.09-.15c-.08-.13-.29-.48-.36-.62v-.05a1.38,1.38,0,0,1,.08-.45c.05-.21.11-.41.15-.54a5.88,5.88,0,1,0-10.72-.06Z"/><path class="cls-1" d="M44,25.23a.69.69,0,0,0-.65.07,4.71,4.71,0,0,1-2.54.8,5,5,0,0,1-2.57-.82.6.6,0,0,0-.62-.05l0,0a9.93,9.93,0,0,0-4.39,5.05c.31.36.6.73.87,1.1a10.8,10.8,0,0,1,2.24-3.68L38.41,30a.41.41,0,0,0,.31.14h0a.44.44,0,0,0,.32-.18l1.74-2.52L42.55,30a.48.48,0,0,0,.32.18h0a.45.45,0,0,0,.32-.14l2.11-2.3a10.18,10.18,0,0,1,2.55,4.87,13.16,13.16,0,0,1-7.07,2.17,14.43,14.43,0,0,1-5.52-1.31A16.59,16.59,0,0,1,36,35a15.49,15.49,0,0,0,4.86,1,14.35,14.35,0,0,0,8-2.57.71.71,0,0,0,.22-.32C49.36,32.12,47.8,27.11,44,25.23Zm-5.32,3.82-1.77-1.92a7.6,7.6,0,0,1,1-.65,6.35,6.35,0,0,0,2.07.75Zm4.27,0-1.26-1.81a6.45,6.45,0,0,0,2.07-.76,6.37,6.37,0,0,1,1,.65Z"/><path class="cls-1" d="M42.81,16.18a.41.41,0,0,0-.75.12c-.53,2.37-2.1,2.5-3.36,2.61-.74.06-1.58.14-1.58.95,0,2.05,1.65,4.52,3.69,4.52s3.7-2.47,3.7-4.52A16.38,16.38,0,0,0,42.81,16.18Zm-2,7.39c-1.52,0-2.88-2.07-2.89-3.7a2.49,2.49,0,0,1,.85-.15c1.12-.1,2.92-.25,3.79-2.31a12.81,12.81,0,0,1,1.13,2.46C43.69,21.5,42.34,23.57,40.81,23.57Z"/><path class="cls-1" d="M16.14,30.77c.28-.34.58-.67.89-1a9.63,9.63,0,0,0-4.16-4.53l0,0a.71.71,0,0,0-.66.07,4.63,4.63,0,0,1-2.53.8,4.9,4.9,0,0,1-2.56-.82.68.68,0,0,0-.66,0c-3.77,1.87-5.33,6.87-5,7.85a.7.7,0,0,0,.23.31,15.26,15.26,0,0,0,8,2.56,14.08,14.08,0,0,0,4-.65,13.78,13.78,0,0,1,.57-1.47,13.47,13.47,0,0,1-3.83.87l2.12-4.37a.42.42,0,0,0-.17-.55l-.86-.5L13.32,27A9.72,9.72,0,0,1,16.14,30.77ZM2.58,32.58A10,10,0,0,1,6,27l1.8,2.33-.86.5a.42.42,0,0,0-.16.55l2.11,4.37A14.31,14.31,0,0,1,2.58,32.58Zm6.65,1-1.55-3.2.93-.55a.43.43,0,0,0,.21-.28.46.46,0,0,0-.08-.34L6.68,26.49h0a6.29,6.29,0,0,0,2.5.8C9.22,29.21,9.24,32,9.23,33.54Zm1.32-4.37a.42.42,0,0,0,.12.62l.93.55-1.52,3.25c0-1.06,0-3,0-6.29a6.37,6.37,0,0,0,2.54-.82h0Z"/><path class="cls-1" d="M4.85,21.63c.44.88,2,3.52,4.81,3.52s4.37-2.64,4.81-3.52A2.32,2.32,0,0,0,15.7,20a2.93,2.93,0,0,0-.23-2.62,2,2,0,0,0-.39-.38A5.59,5.59,0,0,0,4.25,17a1.64,1.64,0,0,0-.43.4A2.93,2.93,0,0,0,3.59,20,2.27,2.27,0,0,0,4.85,21.63Zm0-3.47a.52.52,0,0,1,.35-.2h0a.12.12,0,0,0,.14-.1,4.29,4.29,0,0,1,8.52,0,.13.13,0,0,0,.15.1.49.49,0,0,1,.36.2c.14.19.26.6,0,1.47-.12.42-.36.91-.75.8a.12.12,0,0,0-.15.07c-.65,1.66-2.11,3.33-3.88,3.33s-3.24-1.68-3.89-3.35a.13.13,0,0,0-.12-.08h0c-.39.13-.64-.37-.76-.79C4.6,18.76,4.72,18.35,4.86,18.16Z"/></svg>