<svg id="Layer_1" data-name="Layer 1" xmlns="http://www.w3.org/2000/svg" viewBox="0 0 50.46 50.46"><defs><style>.cls-1{fill:#65b4e1;}</style></defs><title>conexion</title><path class="cls-1" d="M44.49,13.29A4.76,4.76,0,1,0,39.9,9.82a.85.85,0,0,0,1.63-.46,3.07,3.07,0,1,1,3,2.24,3,3,0,0,1-1.89-.65l-.08,0a.82.82,0,0,0-.17-.09l-.14,0H42l-.15,0-.16.05-.14.09-.09.06L37,15.44a14.27,14.27,0,0,0-24.25,6.42h0l-.07.31a.85.85,0,0,0,.65,1l.18,0a.85.85,0,0,0,.83-.67l.06-.27h0a12.61,12.61,0,1,1-.35,3.54.82.82,0,0,0-.52-.74h0a.93.93,0,0,0-.2,0l-.13,0L9.86,25h0l-.11,0-.16,0-.15.07-.12.08a.82.82,0,0,0-.12.13l-.08.11a.82.82,0,0,0-.07.19.8.8,0,0,0,0,.08,3,3,0,0,1-.91,1.78,3,3,0,0,1-2.19.86,3.07,3.07,0,1,1,2.76-4.52.85.85,0,1,0,1.49-.8,4.76,4.76,0,1,0-4.28,7H6a4.76,4.76,0,0,0,4.55-3.36l1.91,0a14.26,14.26,0,0,0,23.43,9.47l2.77,3.22a4.71,4.71,0,0,0-.74,2.26,4.77,4.77,0,0,0,4.45,5.06h.31a4.76,4.76,0,0,0,.3-9.52,4.83,4.83,0,0,0-1.3.1A.85.85,0,0,0,42,38.93a3.11,3.11,0,0,1,.84-.06,3.07,3.07,0,1,1-3.26,2.87,3,3,0,0,1,.77-1.84.79.79,0,0,0,0-.08.82.82,0,0,0,.1-.17.8.8,0,0,0,0-.13.66.66,0,0,0,0-.32.81.81,0,0,0,0-.17.82.82,0,0,0-.08-.14.79.79,0,0,0-.05-.1L37.09,35a14.2,14.2,0,0,0,1-18.23l4.1-4A4.72,4.72,0,0,0,44.49,13.29Z"/><circle class="cls-1" cx="44.49" cy="8.53" r="1.64"/><circle class="cls-1" cx="42.65" cy="41.93" r="1.64" transform="translate(-1.91 81.83) rotate(-86.35)"/><circle class="cls-1" cx="5.97" cy="25.26" r="1.64" transform="translate(-15.87 11.24) rotate(-44)"/><path class="cls-1" d="M18.84,32.38c0,2.3,5.76,2.54,8.24,2.54a23.43,23.43,0,0,0,4.82-.43c.68-.15,2.74-.61,2.74-2.11a8.19,8.19,0,0,0-3.87-6.63,5.48,5.48,0,1,0-8,0A8.17,8.17,0,0,0,18.84,32.38Zm7.9-14.14A3.79,3.79,0,1,1,23,22,3.8,3.8,0,0,1,26.74,18.25ZM24,27a.81.81,0,0,0,.17-.11,5.45,5.45,0,0,0,5.08,0,6.38,6.38,0,0,1,3.7,5.4c-.23.23-1.44.78-4.64.91-3.92.16-7.17-.46-7.77-1A6.28,6.28,0,0,1,24,27Z"/></svg>