<?xml version="1.0" encoding="utf-8"?>
<!-- Generator: Adobe Illustrator 25.4.1, SVG Export Plug-In . SVG Version: 6.00 Build 0)  -->
<svg version="1.1" id="stroke_1_x2C_6" xmlns="http://www.w3.org/2000/svg" xmlns:xlink="http://www.w3.org/1999/xlink" x="0px"
	 y="0px" viewBox="0 0 50.46 50.46" enable-background="new 0 0 50.46 50.46" xml:space="preserve">
<g>
	<path d="M45.315,30.712c-0.149-0.217-0.396-0.347-0.659-0.347h-1.027v-3.453c0-2.121-0.687-4.197-1.931-5.908
		c0.14-0.246,0.228-0.52,0.241-0.812c0.021-0.482-0.147-0.942-0.473-1.296l-1.919-2.089c-0.324-0.354-0.77-0.56-1.252-0.58
		c-0.477-0.016-0.941,0.148-1.293,0.472c-0.354,0.325-0.561,0.769-0.581,1.251s0.147,0.942,0.473,1.295l1.918,2.089
		c0.325,0.354,0.77,0.56,1.251,0.58c0.026,0.001,0.053,0.002,0.079,0.002c0.226,0,0.445-0.042,0.65-0.121
		c1.055,1.49,1.638,3.284,1.638,5.117v3.453h-4.016c-0.03-6.313-1.17-12.941-12.963-12.941c-12.222,0-12.43,7.682-12.433,12.941
		H8.886v-3.174c0-1.831,0.582-3.627,1.638-5.117c0.21,0.081,0.431,0.122,0.652,0.122c0.487,0,0.973-0.196,1.328-0.582l1.918-2.089
		c0.325-0.354,0.493-0.814,0.472-1.296s-0.227-0.926-0.58-1.251c-0.732-0.672-1.875-0.623-2.547,0.108l-1.918,2.088
		c-0.325,0.354-0.493,0.814-0.473,1.296c0.012,0.292,0.1,0.566,0.24,0.812c-1.244,1.711-1.931,3.788-1.931,5.908v3.174h-0.91
		c-0.261,0-0.505,0.127-0.655,0.341c-0.15,0.213-0.186,0.486-0.098,0.731l3.468,9.578c0.115,0.316,0.416,0.527,0.752,0.527h6.688
		l0.865,5.921c0.064,0.438,0.471,0.731,0.907,0.677c0.437-0.064,0.74-0.471,0.676-0.907l-1.49-10.204h15.649l-1.54,10.2
		c-0.066,0.437,0.234,0.844,0.672,0.91c0.04,0.006,0.08,0.009,0.12,0.009c0.389,0,0.73-0.284,0.79-0.681l0.932-6.173h6.566
		c0.331,0,0.628-0.204,0.747-0.514l3.578-9.33C45.497,31.206,45.464,30.929,45.315,30.712z M40.114,20.716
		c-0.162-0.007-0.311-0.075-0.419-0.193l-1.919-2.089c-0.107-0.118-0.163-0.271-0.156-0.433s0.075-0.31,0.193-0.418
		c0.11-0.102,0.254-0.157,0.405-0.157c0.009,0,0.018,0,0.026,0c0.162,0.007,0.311,0.076,0.419,0.193l1.918,2.089
		c0.226,0.245,0.209,0.627-0.035,0.852c-0.001,0-0.001,0-0.001,0C40.428,20.667,40.28,20.723,40.114,20.716z M10.732,19.988
		l1.918-2.089c0.224-0.244,0.606-0.261,0.852-0.036c0.117,0.108,0.186,0.256,0.193,0.418c0.007,0.162-0.049,0.316-0.157,0.434
		l-1.918,2.088c-0.225,0.244-0.607,0.261-0.852,0.036c-0.117-0.108-0.186-0.256-0.193-0.418S10.624,20.105,10.732,19.988z
		 M25.45,19.024c10.358,0,11.336,5.111,11.362,11.341H14.616C14.619,25.24,14.805,19.024,25.45,19.024z M40.528,39.696h-5.775
		l0.505-3.347c0.035-0.23-0.032-0.464-0.185-0.641s-0.373-0.278-0.606-0.278H16.963c-0.232,0-0.453,0.101-0.605,0.276
		c-0.152,0.176-0.22,0.409-0.187,0.639l0.525,3.599h-5.893l-2.888-7.979h35.576L40.528,39.696z"/>
	<path d="M25.715,16.8c3.992,0,7.24-3.248,7.24-7.24s-3.248-7.24-7.24-7.24s-7.24,3.248-7.24,7.24S21.723,16.8,25.715,16.8z
		 M25.715,3.919c3.11,0,5.641,2.53,5.641,5.64c0,3.11-2.53,5.641-5.641,5.641s-5.641-2.53-5.641-5.641
		C20.075,6.45,22.605,3.919,25.715,3.919z"/>
</g>
</svg>
