<?xml version="1.0" encoding="utf-8"?>
<!-- Generator: Adobe Illustrator 26.5.0, SVG Export Plug-In . SVG Version: 6.00 Build 0)  -->
<svg version="1.1" id="Layer_1" xmlns="http://www.w3.org/2000/svg" xmlns:xlink="http://www.w3.org/1999/xlink" x="0px" y="0px"
	 viewBox="0 0 50.5 50.5" style="enable-background:new 0 0 50.5 50.5;" xml:space="preserve">
<g>
	<path d="M4.557,31.65h41.347c0.441,0,0.8-0.358,0.8-0.8s-0.358-0.8-0.8-0.8H4.557c-0.442,0-0.8,0.358-0.8,0.8
		S4.115,31.65,4.557,31.65z"/>
	<path d="M21.47,43.696c0,0.441,0.358,0.8,0.8,0.8h5.92c0.441,0,0.8-0.358,0.8-0.8s-0.358-0.8-0.8-0.8h-5.92
		C21.828,42.896,21.47,43.255,21.47,43.696z"/>
	<path d="M17.395,42.896H4.557c-0.442,0-0.8,0.358-0.8,0.8s0.358,0.8,0.8,0.8h12.838c0.442,0,0.8-0.358,0.8-0.8
		S17.836,42.896,17.395,42.896z"/>
	<path d="M45.903,42.896H33.065c-0.441,0-0.8,0.358-0.8,0.8s0.358,0.8,0.8,0.8h12.838c0.441,0,0.8-0.358,0.8-0.8
		S46.345,42.896,45.903,42.896z"/>
	<path d="M45.903,45.515H34.811c-0.441,0-0.8,0.358-0.8,0.8s0.358,0.8,0.8,0.8h11.093c0.441,0,0.8-0.358,0.8-0.8
		S46.345,45.515,45.903,45.515z"/>
	<path d="M30.253,45.515H20.207c-0.442,0-0.8,0.358-0.8,0.8s0.358,0.8,0.8,0.8h10.046c0.441,0,0.8-0.358,0.8-0.8
		S30.694,45.515,30.253,45.515z"/>
	<path d="M18.528,26.03c0.442,0,0.8-0.358,0.8-0.8v-4.065h11.804v4.065c0,0.442,0.358,0.8,0.8,0.8s0.8-0.358,0.8-0.8v-4.865
		c0-0.442-0.358-0.8-0.8-0.8H18.528c-0.442,0-0.8,0.358-0.8,0.8v4.865C17.729,25.672,18.086,26.03,18.528,26.03z"/>
	<path d="M18.528,18.75h2.059c0.442,0,0.8-0.358,0.8-0.8s-0.358-0.8-0.8-0.8h-1.259v-0.508c0-3.412,2.758-9.056,5.902-9.056
		c3.143,0,5.902,5.644,5.902,9.056v0.508h-1.259c-0.441,0-0.8,0.358-0.8,0.8s0.358,0.8,0.8,0.8h2.059c0.441,0,0.8-0.358,0.8-0.8
		v-1.308c0-3.271-2.364-8.964-5.903-10.346c0.094-0.131,0.161-0.284,0.161-0.458c0-0.442-0.358-0.8-0.8-0.8h-0.16V2.858
		c0-0.442-0.358-0.8-0.8-0.8s-0.8,0.358-0.8,0.8v2.181h-0.16c-0.442,0-0.8,0.358-0.8,0.8c0,0.174,0.067,0.326,0.161,0.457
		c-3.539,1.382-5.903,7.074-5.903,10.346v1.308C17.729,18.392,18.086,18.75,18.528,18.75z"/>
	<path d="M19.788,33.241v7.632c0,0.441,0.358,0.8,0.8,0.8s0.8-0.358,0.8-0.8v-7.632c0-0.441-0.358-0.8-0.8-0.8
		S19.788,32.8,19.788,33.241z"/>
	<path d="M5.557,36.492c-0.442,0-0.8,0.358-0.8,0.8v2.581c0,0.441,0.358,0.8,0.8,0.8s0.8-0.358,0.8-0.8v-2.581
		C6.356,36.851,5.999,36.492,5.557,36.492z"/>
	<path d="M10.2,36.492c-0.442,0-0.8,0.358-0.8,0.8v2.581c0,0.441,0.358,0.8,0.8,0.8s0.8-0.358,0.8-0.8v-2.581
		C11,36.851,10.642,36.492,10.2,36.492z"/>
	<path d="M14.842,36.492c-0.442,0-0.8,0.358-0.8,0.8v2.581c0,0.441,0.358,0.8,0.8,0.8s0.8-0.358,0.8-0.8v-2.581
		C15.642,36.851,15.284,36.492,14.842,36.492z"/>
	<path d="M35.618,36.492c-0.441,0-0.8,0.358-0.8,0.8v2.581c0,0.441,0.358,0.8,0.8,0.8s0.8-0.358,0.8-0.8v-2.581
		C36.418,36.851,36.06,36.492,35.618,36.492z"/>
	<path d="M40.261,36.492c-0.441,0-0.8,0.358-0.8,0.8v2.581c0,0.441,0.358,0.8,0.8,0.8s0.8-0.358,0.8-0.8v-2.581
		C41.061,36.851,40.702,36.492,40.261,36.492z"/>
	<path d="M44.903,36.492c-0.441,0-0.8,0.358-0.8,0.8v2.581c0,0.441,0.358,0.8,0.8,0.8s0.8-0.358,0.8-0.8v-2.581
		C45.703,36.851,45.345,36.492,44.903,36.492z"/>
	<path d="M6.356,33.241c0-0.441-0.358-0.8-0.8-0.8s-0.8,0.358-0.8,0.8v1.58c0,0.441,0.358,0.8,0.8,0.8s0.8-0.358,0.8-0.8V33.241z"/>
	<path d="M11,33.241c0-0.441-0.358-0.8-0.8-0.8s-0.8,0.358-0.8,0.8v1.58c0,0.441,0.358,0.8,0.8,0.8s0.8-0.358,0.8-0.8V33.241z"/>
	<path d="M15.642,33.241c0-0.441-0.358-0.8-0.8-0.8s-0.8,0.358-0.8,0.8v1.58c0,0.441,0.358,0.8,0.8,0.8s0.8-0.358,0.8-0.8V33.241z"
		/>
	<path d="M36.418,33.241c0-0.441-0.358-0.8-0.8-0.8s-0.8,0.358-0.8,0.8v1.58c0,0.441,0.358,0.8,0.8,0.8s0.8-0.358,0.8-0.8V33.241z"
		/>
	<path d="M41.061,33.241c0-0.441-0.358-0.8-0.8-0.8s-0.8,0.358-0.8,0.8v1.58c0,0.441,0.358,0.8,0.8,0.8s0.8-0.358,0.8-0.8V33.241z"
		/>
	<path d="M45.703,33.241c0-0.441-0.358-0.8-0.8-0.8s-0.8,0.358-0.8,0.8v1.58c0,0.441,0.358,0.8,0.8,0.8s0.8-0.358,0.8-0.8V33.241z"
		/>
	<path d="M26.03,40.873v-7.632c0-0.441-0.358-0.8-0.8-0.8s-0.8,0.358-0.8,0.8v7.632c0,0.441,0.358,0.8,0.8,0.8
		S26.03,41.314,26.03,40.873z"/>
	<path d="M29.073,33.241v7.632c0,0.441,0.358,0.8,0.8,0.8s0.8-0.358,0.8-0.8v-7.632c0-0.441-0.358-0.8-0.8-0.8
		S29.073,32.8,29.073,33.241z"/>
	<path d="M18.599,29.292l6.631-3.655l6.63,3.655c0.123,0.068,0.256,0.1,0.386,0.1c0.282,0,0.556-0.149,0.701-0.413
		c0.214-0.388,0.073-0.874-0.313-1.087l-7.018-3.869c-0.24-0.133-0.532-0.133-0.772,0l-7.017,3.869
		c-0.387,0.213-0.528,0.699-0.314,1.087C17.726,29.365,18.213,29.507,18.599,29.292z"/>
	<path d="M25.686,15.807c-0.274-0.19-0.638-0.19-0.912,0l-2.142,1.486c-0.363,0.252-0.453,0.75-0.201,1.113
		c0.252,0.364,0.75,0.454,1.113,0.201l1.686-1.17l1.686,1.17c0.139,0.097,0.298,0.143,0.455,0.143c0.254,0,0.503-0.12,0.658-0.344
		c0.252-0.363,0.162-0.861-0.201-1.113L25.686,15.807z"/>
	<path d="M5.843,29.339l4.153-1.592l4.153,1.592c0.094,0.036,0.191,0.053,0.286,0.053c0.322,0,0.625-0.195,0.747-0.514
		c0.158-0.412-0.048-0.875-0.461-1.033l-4.439-1.701c-0.184-0.07-0.389-0.07-0.572,0l-4.439,1.701
		c-0.413,0.158-0.619,0.621-0.461,1.033C4.967,29.29,5.431,29.496,5.843,29.339z"/>
	<path d="M36.311,29.339l4.153-1.592l4.153,1.592c0.094,0.036,0.19,0.053,0.286,0.053c0.321,0,0.625-0.195,0.747-0.514
		c0.158-0.412-0.048-0.875-0.461-1.033l-4.439-1.701c-0.184-0.07-0.389-0.07-0.572,0l-4.439,1.701
		c-0.413,0.158-0.619,0.621-0.461,1.033C35.436,29.291,35.902,29.496,36.311,29.339z"/>
	<path d="M15.65,45.515H4.557c-0.442,0-0.8,0.358-0.8,0.8s0.358,0.8,0.8,0.8H15.65c0.442,0,0.8-0.358,0.8-0.8
		S16.092,45.515,15.65,45.515z"/>
</g>
</svg>
