<svg id="Layer_1" data-name="Layer 1" xmlns="http://www.w3.org/2000/svg" viewBox="0 0 50.46 50.46"><defs><style>.cls-1{fill:#65b4e1;}</style></defs><title>construccion</title><path class="cls-1" d="M40.48,8.09a.77.77,0,0,0-.77-.77H7.79A.77.77,0,0,0,7,8.09V26.23l-2.67,2.6a2.65,2.65,0,0,0-.09,3.68l0,0A2.63,2.63,0,0,0,7,33.2v5.65a.77.77,0,0,0,.77.77H39.71a.77.77,0,0,0,.77-.77V33.75h0V28.62h0V23.48h0V18.35h0V13.22h0Zm-8,.77A5.86,5.86,0,0,1,33.65,13C33.36,14.85,32,16.51,29.52,18c-3.36,2-4.69,5.77-6,9.44-1.59,4.52-3,8.42-7.76,8.42S9.16,33,8.67,32l3.5-3.41a1.53,1.53,0,0,0,.05-2.14l0,0L12,26.17l1.32-1.28a4.51,4.51,0,0,0,6.17-.1,11.13,11.13,0,0,0,2.2-4.19c1-3.4.13-4.36-.16-4.68h0l0,0c-1.82-1.87-7.42.27-9,1.76a4.46,4.46,0,0,0-.28,6.13l-1.33,1.29-.25-.25a1.52,1.52,0,0,0-2.11-.07V8.86ZM31,19.12v3.57h-3.8a8.89,8.89,0,0,1,3.13-3.41l.25-.16ZM24.45,29.38H31V33H22.89A25.08,25.08,0,0,0,24.45,29.38Zm-8.9-7.71h0a.77.77,0,0,0-1.08,0l-1.11,1.08a3,3,0,0,1,.25-4C15,17.42,19.54,16.08,20.39,17h0c.8.86-.63,5.41-2,6.73a3,3,0,0,1-4,.12l1.11-1.07A.77.77,0,0,0,15.56,21.67ZM5.4,31.48l0,0a1.1,1.1,0,0,1,0-1.54l4.15-4,1.53,1.58L7,31.5A1.1,1.1,0,0,1,5.4,31.48ZM23,38.09H8.56V34.51h0a9.28,9.28,0,0,0,7.19,2.84,7.26,7.26,0,0,0,6.08-2.84H23Zm16,0H24.52V34.51H38.95Zm0-5.13H32.5V29.38h6.45Zm0-5.13H25c.43-1.21.86-2.43,1.37-3.57H38.95Zm0-5.13H32.5V19.12h6.45Zm0-5.13h-6.3A7.75,7.75,0,0,0,35,14h3.95Zm0-5.13H35.24a7.23,7.23,0,0,0-.92-3.57h4.63Z"/></svg>