<?xml version="1.0" encoding="utf-8"?>
<!-- Generator: Adobe Illustrator 24.2.1, SVG Export Plug-In . SVG Version: 6.00 Build 0)  -->
<svg version="1.1" id="Layer_1" xmlns="http://www.w3.org/2000/svg" xmlns:xlink="http://www.w3.org/1999/xlink" x="0px" y="0px"
	 viewBox="0 0 50.5 50.5" style="enable-background:new 0 0 50.5 50.5;" xml:space="preserve">
<path d="M31.4,29.2c0,0.3-0.2,0.6-0.6,0.6h-1.6v1.7c0,0.3-0.3,0.6-0.6,0.6c-0.3,0-0.6-0.2-0.6-0.6v-1.6h-1.7c-0.1,0-0.2-0.1-0.3-0.1
	c-0.2-0.1-0.4-0.3-0.4-0.6s0.2-0.5,0.4-0.6c0.1-0.1,0.2-0.1,0.3-0.1H28v-1.7c0-0.3,0.3-0.6,0.6-0.6c0.3,0,0.6,0.3,0.6,0.6v1.7h1.6
	C31.1,28.5,31.4,28.8,31.4,29.2z M37.2,26.9c-0.6,0-1.2,0.5-1.2,1.2c0,0.6,0.5,1.2,1.2,1.2c0.6,0,1.2-0.5,1.2-1.2
	C38.3,27.4,37.8,26.9,37.2,26.9z M39.6,29.2c-0.6,0-1.2,0.5-1.2,1.1c0,0.6,0.5,1.2,1.2,1.2c0.6,0,1.1-0.5,1.1-1.2
	C40.8,29.7,40.3,29.2,39.6,29.2z M16.3,10.4c-0.4,0-0.8,0.4-0.8,0.8v28c0,0.4,0.4,0.8,0.8,0.8c0.4,0,0.8-0.4,0.8-0.8v-28
	C17.1,10.8,16.7,10.4,16.3,10.4z M22.3,9c0-0.7-0.6-1.3-1.3-1.3S19.7,8.3,19.7,9s0.6,1.3,1.3,1.3S22.3,9.7,22.3,9z M44.4,35.9
	c0.1,1-0.3,2-1,2.8c-0.7,0.8-1.8,1.3-2.9,1.3s-2.1-0.4-2.9-1.2l-2.1-2.2l-0.2-0.2c-1.3-0.9-3-0.9-4.3,0.1l-1.7,2
	c-0.8,0.9-2,1.5-3.3,1.5v5.4c0,0.5-0.4,0.8-0.8,0.8H8.3c-0.4,0-0.8-0.4-0.8-0.8V4.6c0-0.5,0.4-0.8,0.8-0.8h16.9
	c0.4,0,0.8,0.3,0.8,0.8v18.3c0.1,0,0.1,0,0.2,0h13.6c2.1,0,3.9,1.6,4,3.6L44.4,35.9z M24.4,39.8c-0.7-0.2-1.3-0.6-1.8-1.1
	c-0.8-0.9-1.2-2-1.1-3.1l0.7-9c0.1-1.4,1-2.6,2.2-3.2v-18H9.1v39.2h15.3V39.8z M42.9,36l-0.7-9.5c-0.1-1.2-1.1-2.1-2.4-2.1H26.2
	c-0.1,0-0.1,0-0.2,0c-0.6,0.1-1.2,0.4-1.6,0.8c-0.3,0.3-0.6,0.8-0.6,1.3l-0.7,9c0,0.7,0.2,1.4,0.7,1.9c0.2,0.2,0.4,0.4,0.6,0.5
	c0.5,0.3,1,0.4,1.5,0.4H26c0.9,0,1.6-0.4,2.1-1l1.7-2l0.1-0.1c1-0.7,2.1-1.1,3.3-1.1c1,0,2.1,0.4,3,1l0.3,0.2l0.1,0.1l2.2,2.3
	c0.9,0.9,2.6,0.9,3.5-0.1C42.7,37.1,42.9,36.6,42.9,36z"/>
</svg>
