<?xml version="1.0" encoding="utf-8"?>
<!-- Generator: Adobe Illustrator 24.2.1, SVG Export Plug-In . SVG Version: 6.00 Build 0)  -->
<svg version="1.1" id="Capa_1" xmlns="http://www.w3.org/2000/svg" xmlns:xlink="http://www.w3.org/1999/xlink" x="0px" y="0px"
	 viewBox="0 0 50.5 50.5" style="enable-background:new 0 0 50.5 50.5;" xml:space="preserve">
<g>
	<path d="M6.805,29.172h10.788c0.156-3.137-2.253-5.811-5.389-5.981C9.063,23.356,6.648,26.031,6.805,29.172z"/>
	<path d="M15.357,19.119c0-1.742-1.412-3.154-3.154-3.154S9.05,17.377,9.05,19.119s1.412,3.154,3.154,3.154
		S15.357,20.861,15.357,19.119z"/>
	<path d="M21.241,27.233c-0.457,0-0.827,0.37-0.827,0.827c0,0.457,0.37,0.827,0.827,0.827h14.077c0.457,0,0.827-0.37,0.827-0.827
		c0-0.457-0.37-0.827-0.827-0.827H21.241z"/>
	<path d="M38.144,23.385c0-0.457-0.37-0.827-0.827-0.827H21.241c-0.457,0-0.827,0.37-0.827,0.827s0.37,0.827,0.827,0.827h16.077
		C37.774,24.212,38.144,23.842,38.144,23.385z"/>
	<path d="M21.241,19.527h7.625c0.457,0,0.827-0.37,0.827-0.827c0-0.457-0.37-0.827-0.827-0.827h-7.625
		c-0.457,0-0.827,0.37-0.827,0.827S20.785,19.527,21.241,19.527z"/>
	<path d="M5.277,38.254c-0.868,0-1.575-0.707-1.575-1.575V12.062c0-0.868,0.707-1.574,1.575-1.574h37.915
		c0.868,0,1.575,0.707,1.575,1.574v16.761c0.568,0.182,1.102,0.437,1.6,0.745V12.062c0-1.75-1.424-3.174-3.174-3.174H5.277
		c-1.75,0-3.174,1.424-3.174,3.174V36.68c0,1.75,1.424,3.174,3.174,3.174h31.245c-0.336-0.492-0.607-1.031-0.815-1.6H5.277z"/>
	<path d="M46.157,31.152c-0.176-0.61-0.51-1.131-1.02-1.515c-0.718-0.54-1.703-0.803-3.01-0.803c-0.431,0-0.884,0.035-1.349,0.103
		c-0.468,0.069-0.881,0.163-1.226,0.277l-0.514,0.171v1.679c-1.429,1.068-2.358,2.768-2.358,4.689c0,3.235,2.623,5.858,5.858,5.858
		s5.858-2.623,5.858-5.858C48.397,33.885,47.519,32.225,46.157,31.152z M39.789,29.927c0.304-0.101,0.67-0.184,1.099-0.247
		s0.841-0.095,1.239-0.095c1.127,0,1.98,0.217,2.559,0.652s0.868,1.062,0.868,1.881c0,0.664-0.201,1.212-0.602,1.647
		s-0.997,0.775-1.787,1.02l-0.146,1.362h-1.242l-0.349-2.331c0.549-0.11,0.98-0.238,1.292-0.383
		c0.312-0.146,0.533-0.312,0.662-0.498c0.129-0.186,0.193-0.401,0.193-0.646c0-0.372-0.136-0.651-0.409-0.839
		s-0.698-0.282-1.276-0.282c-0.351,0-0.71,0.031-1.077,0.092c-0.368,0.062-0.709,0.147-1.026,0.257v-1.59H39.789z M41.087,38.023
		c0-0.359,0.117-0.644,0.352-0.855c0.234-0.211,0.554-0.317,0.959-0.317c0.406,0,0.727,0.107,0.963,0.32s0.354,0.498,0.354,0.852
		c0,0.351-0.119,0.633-0.358,0.846c-0.239,0.213-0.559,0.32-0.96,0.32c-0.397,0-0.715-0.106-0.953-0.317
		C41.206,38.66,41.087,38.378,41.087,38.023z"/>
</g>
</svg>
