<?xml version="1.0" encoding="utf-8"?>
<!-- Generator: Adobe Illustrator 24.0.1, SVG Export Plug-In . SVG Version: 6.00 Build 0)  -->
<!DOCTYPE svg PUBLIC "-//W3C//DTD SVG 1.1//EN" "http://www.w3.org/Graphics/SVG/1.1/DTD/svg11.dtd" [
	<!ENTITY ns_extend "http://ns.adobe.com/Extensibility/1.0/">
	<!ENTITY ns_ai "http://ns.adobe.com/AdobeIllustrator/10.0/">
	<!ENTITY ns_graphs "http://ns.adobe.com/Graphs/1.0/">
	<!ENTITY ns_vars "http://ns.adobe.com/Variables/1.0/">
	<!ENTITY ns_imrep "http://ns.adobe.com/ImageReplacement/1.0/">
	<!ENTITY ns_sfw "http://ns.adobe.com/SaveForWeb/1.0/">
	<!ENTITY ns_custom "http://ns.adobe.com/GenericCustomNamespace/1.0/">
	<!ENTITY ns_adobe_xpath "http://ns.adobe.com/XPath/1.0/">
]>
<svg version="1.1" id="Layer_1" xmlns:x="&ns_extend;" xmlns:i="&ns_ai;" xmlns:graph="&ns_graphs;"
	 xmlns="http://www.w3.org/2000/svg" xmlns:xlink="http://www.w3.org/1999/xlink" x="0px" y="0px" viewBox="0 0 50.5 50.5"
	 enable-background="new 0 0 50.5 50.5" xml:space="preserve">
<metadata>
	<sfw  xmlns="&ns_sfw;">
		<slices></slices>
		<sliceSourceBounds  bottomLeftOrigin="true" height="29.937" width="37.914" x="6.308" y="8.042"></sliceSourceBounds>
	</sfw>
</metadata>
<g>
	<path d="M9.98,20.669c0.292,0,0.581-0.022,0.865-0.065c0.284-0.043,0.549-0.105,0.795-0.184v-1.106
		c-0.528,0.163-1.043,0.244-1.545,0.244c-0.535,0-0.978-0.086-1.328-0.259c-0.351-0.173-0.616-0.456-0.795-0.85
		s-0.269-0.916-0.269-1.567c0-0.638,0.091-1.152,0.272-1.542c0.181-0.39,0.451-0.675,0.81-0.855
		c0.359-0.179,0.814-0.269,1.365-0.269c0.515,0,1.012,0.062,1.49,0.185v-1.106c-0.512-0.126-1.04-0.189-1.585-0.189
		c-1.213,0-2.14,0.316-2.783,0.947c-0.643,0.631-0.964,1.581-0.964,2.851c0,1.306,0.314,2.26,0.942,2.863
		C7.877,20.367,8.787,20.669,9.98,20.669z"/>
	<path d="M14.385,20.674c0.521,0,0.972-0.103,1.35-0.309c0.379-0.206,0.67-0.518,0.875-0.937c0.204-0.419,0.307-0.94,0.307-1.565
		c0-0.937-0.22-1.64-0.66-2.108c-0.44-0.469-1.064-0.703-1.871-0.703s-1.431,0.234-1.871,0.703c-0.44,0.468-0.66,1.173-0.66,2.113
		c0,0.934,0.224,1.635,0.67,2.103C12.971,20.439,13.591,20.674,14.385,20.674z M13.476,16.468c0.204-0.272,0.507-0.409,0.91-0.409
		c0.402,0,0.705,0.137,0.909,0.411s0.307,0.742,0.307,1.403c0,0.651-0.102,1.113-0.307,1.385c-0.204,0.272-0.508,0.409-0.909,0.409
		c-0.266,0-0.488-0.057-0.665-0.172c-0.178-0.115-0.314-0.305-0.409-0.571c-0.095-0.266-0.142-0.623-0.142-1.071
		C13.169,17.202,13.272,16.74,13.476,16.468z"/>
	<path d="M19.08,16.732c0.143-0.183,0.321-0.32,0.533-0.411c0.213-0.091,0.429-0.137,0.648-0.137c0.292,0,0.515,0.077,0.668,0.232
		c0.153,0.154,0.229,0.413,0.229,0.775v3.384h1.306v-3.458c0-0.714-0.163-1.237-0.488-1.567c-0.326-0.331-0.769-0.496-1.331-0.496
		c-0.319,0-0.619,0.056-0.899,0.169c-0.281,0.113-0.524,0.276-0.73,0.488h-0.07l-0.09-0.573h-1.081v5.437h1.306L19.08,16.732
		L19.08,16.732z"/>
	<path d="M24.681,18.267l0.827,0.154c0.226,0.047,0.385,0.116,0.478,0.209s0.14,0.228,0.14,0.404c0,0.219-0.089,0.386-0.267,0.501
		s-0.459,0.172-0.845,0.172c-0.568,0-1.116-0.08-1.644-0.239v0.977c0.488,0.153,1.042,0.229,1.659,0.229
		c0.492,0,0.911-0.068,1.258-0.204s0.61-0.331,0.79-0.583c0.179-0.252,0.269-0.553,0.269-0.902c0-0.445-0.117-0.788-0.351-1.029
		s-0.601-0.411-1.099-0.511L25.07,17.29c-0.219-0.047-0.375-0.117-0.466-0.212s-0.137-0.222-0.137-0.381
		c0-0.452,0.41-0.678,1.231-0.678c0.475,0,0.927,0.058,1.356,0.175v-0.972c-0.425-0.113-0.889-0.169-1.39-0.169
		c-0.535,0-0.983,0.07-1.346,0.209c-0.362,0.139-0.632,0.335-0.81,0.586s-0.267,0.546-0.267,0.885c0,0.422,0.115,0.758,0.344,1.009
		C23.814,17.992,24.179,18.167,24.681,18.267z"/>
	<path d="M29.874,20.669c0.302,0,0.588-0.056,0.857-0.167c0.269-0.111,0.51-0.275,0.723-0.491h0.06l0.09,0.563h1.081v-5.437h-1.306
		v3.847c-0.14,0.183-0.315,0.321-0.526,0.414s-0.421,0.14-0.63,0.14c-0.279,0-0.494-0.077-0.645-0.232
		c-0.151-0.154-0.227-0.413-0.227-0.775v-3.394h-1.306v3.473c0,0.711,0.164,1.232,0.491,1.562
		C28.863,20.504,29.309,20.669,29.874,20.669z"/>
	<rect x="33.795" y="12.521" width="1.306" height="8.053"/>
	<path d="M36.576,18.725c0,1.299,0.644,1.949,1.934,1.949c0.312,0,0.626-0.037,0.942-0.11v-1.047
		c-0.243,0.047-0.443,0.07-0.603,0.07c-0.229,0-0.414-0.034-0.553-0.102c-0.14-0.068-0.244-0.18-0.312-0.336
		s-0.102-0.367-0.102-0.633v-2.337h1.52v-1.042h-1.52v-1.939h-1.077l-0.229,1.939h-0.937v1.042h0.937V18.725z"/>
	<path d="M43.969,15.94c-0.168-0.316-0.423-0.542-0.765-0.68c-0.342-0.138-0.789-0.207-1.341-0.207c-0.272,0-0.561,0.02-0.865,0.06
		s-0.579,0.098-0.825,0.174v1.002c0.239-0.076,0.488-0.134,0.747-0.172c0.259-0.038,0.5-0.057,0.723-0.057
		c0.316,0,0.567,0.033,0.755,0.1s0.326,0.179,0.414,0.336c0.088,0.158,0.132,0.375,0.132,0.65v0.214l-1.017,0.095
		c-0.748,0.06-1.294,0.228-1.639,0.503c-0.346,0.276-0.518,0.666-0.518,1.171c0,0.312,0.069,0.584,0.207,0.815
		s0.336,0.409,0.596,0.536c0.259,0.126,0.566,0.189,0.922,0.189c0.312,0,0.597-0.056,0.855-0.167
		c0.257-0.111,0.468-0.275,0.631-0.491h0.07l0.09,0.563h1.081v-3.349C44.221,16.684,44.137,16.255,43.969,15.94z M42.945,19.283
		c-0.143,0.159-0.305,0.276-0.486,0.349c-0.181,0.073-0.368,0.11-0.561,0.11c-0.272,0-0.479-0.063-0.62-0.189
		s-0.212-0.309-0.212-0.548c0-0.236,0.079-0.419,0.237-0.551c0.158-0.131,0.408-0.213,0.75-0.247l0.892-0.08
		C42.945,18.127,42.945,19.283,42.945,19.283z"/>
	<path d="M8.141,28.383c0.326,0.013,0.563,0.02,0.713,0.02c1.057,0,1.854-0.224,2.392-0.673c0.538-0.448,0.807-1.111,0.807-1.988
		c0-0.914-0.273-1.586-0.82-2.018s-1.375-0.648-2.484-0.648c-0.734,0-1.479,0.073-2.233,0.219v7.246h1.625
		C8.141,30.541,8.141,28.383,8.141,28.383z M8.141,24.351c0.232-0.04,0.485-0.06,0.757-0.06c0.538,0,0.935,0.116,1.191,0.349
		c0.256,0.232,0.384,0.603,0.384,1.111c0,0.505-0.128,0.871-0.384,1.096c-0.256,0.226-0.663,0.339-1.221,0.339
		c-0.243,0-0.485-0.015-0.728-0.045L8.141,24.351L8.141,24.351z"/>
	<path d="M12.781,25.089v3.409c0,0.738,0.169,1.278,0.506,1.622s0.796,0.516,1.378,0.516c0.296,0,0.574-0.054,0.835-0.162
		s0.496-0.268,0.705-0.481h0.065l0.11,0.548h1.316v-5.452H16.1v3.727c-0.12,0.143-0.269,0.253-0.449,0.329
		c-0.179,0.076-0.357,0.115-0.533,0.115c-0.239,0-0.423-0.066-0.551-0.199c-0.128-0.133-0.192-0.355-0.192-0.668v-3.304H12.781z"/>
	<polygon points="14.505,24.396 15.965,24.396 17.321,22.488 15.626,22.488 	"/>
	<path d="M20.954,25.164c-0.239,0.106-0.439,0.257-0.598,0.453h-0.075v-3.13h-1.595v7.849c0.306,0.1,0.643,0.175,1.012,0.227
		c0.369,0.051,0.737,0.077,1.106,0.077c1.027,0,1.797-0.247,2.31-0.743c0.513-0.495,0.77-1.226,0.77-2.193
		c0-0.608-0.095-1.114-0.284-1.517c-0.189-0.404-0.443-0.702-0.762-0.894c-0.319-0.193-0.676-0.289-1.072-0.289
		C21.464,25.004,21.193,25.057,20.954,25.164z M22.279,27.83c0,0.565-0.111,0.973-0.334,1.226s-0.563,0.379-1.022,0.379
		c-0.229,0-0.443-0.026-0.643-0.08v-2.721c0.11-0.11,0.242-0.192,0.396-0.247s0.316-0.082,0.486-0.082
		c0.362,0,0.639,0.114,0.83,0.341C22.184,26.874,22.279,27.268,22.279,27.83z"/>
	<rect x="24.631" y="22.488" width="1.595" height="8.053"/>
	<rect x="27.217" y="25.089" width="1.595" height="5.452"/>
	<path d="M27.028,23.469c0,0.266,0.082,0.47,0.247,0.613c0.164,0.143,0.411,0.214,0.74,0.214s0.575-0.071,0.737-0.214
		c0.163-0.143,0.244-0.347,0.244-0.613c0-0.269-0.082-0.475-0.244-0.618c-0.163-0.143-0.409-0.214-0.737-0.214
		c-0.332,0-0.58,0.071-0.743,0.214C27.109,22.994,27.028,23.2,27.028,23.469z"/>
	<path d="M31.889,26.439c0.231-0.103,0.531-0.155,0.899-0.155c0.319,0,0.653,0.035,1.002,0.105v-1.261
		c-0.362-0.083-0.769-0.125-1.221-0.125c-0.973,0-1.717,0.233-2.23,0.7c-0.513,0.467-0.77,1.174-0.77,2.12
		c0,0.94,0.242,1.645,0.725,2.115c0.484,0.47,1.187,0.705,2.111,0.705c0.505,0,0.967-0.068,1.385-0.204V29.18
		c-0.236,0.063-0.442,0.109-0.618,0.137s-0.349,0.042-0.518,0.042c-0.488,0-0.851-0.121-1.086-0.364
		c-0.236-0.242-0.354-0.638-0.354-1.186c0-0.362,0.055-0.655,0.164-0.88C31.488,26.706,31.658,26.542,31.889,26.439z"/>
	<path d="M34.583,26.43c0.236-0.073,0.486-0.128,0.75-0.164s0.508-0.055,0.73-0.055c0.309,0,0.552,0.031,0.73,0.092
		c0.178,0.062,0.307,0.164,0.389,0.307c0.081,0.143,0.122,0.34,0.122,0.593v0.07l-0.887,0.075c-0.784,0.05-1.358,0.218-1.722,0.503
		c-0.364,0.286-0.546,0.689-0.546,1.211c0,0.316,0.07,0.592,0.212,0.83c0.141,0.238,0.345,0.422,0.61,0.553
		c0.266,0.131,0.581,0.197,0.947,0.197c0.306,0,0.583-0.052,0.832-0.157s0.454-0.265,0.613-0.481h0.075l0.11,0.538h1.316v-3.239
		c0-0.571-0.088-1.024-0.264-1.358s-0.447-0.574-0.812-0.72c-0.366-0.146-0.846-0.219-1.44-0.219c-0.286,0-0.586,0.02-0.902,0.06
		c-0.316,0.04-0.603,0.096-0.862,0.169L34.583,26.43L34.583,26.43z M37.304,29.19c-0.12,0.12-0.254,0.207-0.404,0.262
		c-0.149,0.055-0.302,0.082-0.458,0.082c-0.236,0-0.415-0.053-0.538-0.16c-0.123-0.106-0.185-0.261-0.185-0.464
		c0-0.206,0.068-0.366,0.204-0.481c0.136-0.115,0.354-0.184,0.653-0.207l0.727-0.055L37.304,29.19L37.304,29.19z"/>
	<polygon points="43.429,35.113 13.48,35.113 7.307,40.722 7.307,35.087 6.539,35.087 6.539,42.458 13.777,35.881 44.197,35.881 
		44.197,25.078 43.429,25.078 	"/>
</g>
</svg>
