<?xml version="1.0" encoding="utf-8"?>
<!-- Generator: Adobe Illustrator 22.1.0, SVG Export Plug-In . SVG Version: 6.00 Build 0)  -->
<svg version="1.1" id="Layer_1" xmlns="http://www.w3.org/2000/svg" xmlns:xlink="http://www.w3.org/1999/xlink" x="0px" y="0px"
	 viewBox="0 0 50.5 50.5" style="enable-background:new 0 0 50.5 50.5;" xml:space="preserve">
<style type="text/css">
	.st0{fill-rule:evenodd;clip-rule:evenodd;fill:#12B5E1;}
</style>
<title>fragata</title>
<g>
	<path class="st0" d="M34.9,38.9c-10.4,3.4-21.7-2.3-25.1-12.7c-1.6-4.8-1.2-9.7,0.6-14c-4.5,5.1-6.3,12.4-4,19.4
		C9.8,42,21.1,47.7,31.5,44.3c5.7-1.8,9.9-6,12.1-11C41.3,35.8,38.4,37.8,34.9,38.9z"/>
	<path class="st0" d="M42.7,13.6c0.6,2.7,0.6,5.5-0.3,8.3c-2.6,8.4-11.5,13.2-20,10.6c-3.9-1.2-7-3.7-8.9-6.9
		c1.3,5.3,5.2,9.9,10.9,11.6c8.4,2.6,17.4-2.1,20-10.6C45.7,22.1,45,17.3,42.7,13.6z"/>
	<path class="st0" d="M33.4,8.9c4.8,5.4,4.4,13.7-1,18.5c-2.5,2.2-5.5,3.3-8.6,3.3c4.3,1.4,9.2,0.5,12.7-2.7
		c5.4-4.8,5.8-13.1,1-18.5c-2.6-2.9-6.2-4.4-9.9-4.4C29.8,5.9,31.8,7.1,33.4,8.9z"/>
	<path class="st0" d="M31.5,19.2c0.3,3-0.5,5.8-2.1,8.1c3.3-2.4,5.2-6.4,4.8-10.8C33.5,10,27.7,5.3,21.2,6c-3.5,0.4-6.5,2.2-8.4,4.9
		c1.6-1.2,3.6-2,5.8-2.2C25,8,30.8,12.7,31.5,19.2z"/>
	<path class="st0" d="M10.8,22.8c-0.1-1.5,0.1-3.2,0.8-4.7c2.1-4.5,7.6-6.4,12.1-4.3c2.1,1,3.6,2.7,4.4,4.6c-0.3-3.1-2.1-6-5.1-7.4
		c-4.5-2.1-9.9-0.2-12.1,4.3C9.8,17.8,9.8,20.5,10.8,22.8z"/>
	<path class="st0" d="M18.1,16.5c1.4-0.5,2.8-0.4,4.1,0.1c-1.5-1.3-3.6-1.7-5.7-1c-3,1.1-4.6,4.4-3.5,7.4c0.6,1.6,1.8,2.8,3.3,3.4
		c-0.8-0.6-1.4-1.5-1.7-2.5C13.5,20.8,15.1,17.5,18.1,16.5z"/>
</g>
</svg>
