<?xml version="1.0" encoding="utf-8"?>
<!-- Generator: Adobe Illustrator 24.2.1, SVG Export Plug-In . SVG Version: 6.00 Build 0)  -->
<svg version="1.1" id="Layer_1" xmlns="http://www.w3.org/2000/svg" xmlns:xlink="http://www.w3.org/1999/xlink" x="0px" y="0px"
	 viewBox="0 0 50.5 50.5" style="enable-background:new 0 0 50.5 50.5;" xml:space="preserve">
<path d="M33.1,8.8c-2.9,0-5.5,0.7-7.9,2c-2.3-1.3-5-2-7.9-2c-9.1,0-16.5,7.4-16.5,16.5c0,9.1,7.4,16.5,16.5,16.5
	c2.9,0,5.5-0.7,7.9-2c2.3,1.3,5,2,7.9,2c9.1,0,16.5-7.4,16.5-16.5C49.6,16.2,42.2,8.8,33.1,8.8z M20,35.2c-0.9,0.2-1.7,0.4-2.7,0.4
	C11.7,35.5,7,30.9,7,25.2s4.6-10.3,10.3-10.3c0.9,0,1.8,0.1,2.7,0.4c-2.1,2.8-3.4,6.2-3.4,9.9C16.7,29,17.9,32.4,20,35.2z
	 M25.2,31.8c-1.5-1.8-2.4-4.1-2.4-6.6s0.9-4.8,2.4-6.6c1.5,1.8,2.4,4.1,2.4,6.6C27.6,27.7,26.7,30.1,25.2,31.8z M33.1,35.5
	c-0.9,0-1.8-0.1-2.7-0.4h0c0.1-0.2,0.3-0.4,0.4-0.5c0.3-0.4,0.5-0.7,0.7-1.1c1.4-2.4,2.3-5.3,2.3-8.3c0-3-0.8-5.9-2.3-8.3
	c-0.2-0.4-0.5-0.7-0.7-1.1c-0.1-0.2-0.3-0.4-0.4-0.5c0.8-0.2,1.7-0.4,2.7-0.4c5.7,0,10.3,4.6,10.3,10.3S38.8,35.5,33.1,35.5z
	 M30.5,15.3L30.5,15.3c0.1,0.2,0.3,0.3,0.4,0.5C30.7,15.6,30.6,15.5,30.5,15.3z"/>
</svg>
