<?xml version="1.0" encoding="utf-8"?>
<!-- Generator: Adobe Illustrator 24.2.1, SVG Export Plug-In . SVG Version: 6.00 Build 0)  -->
<svg version="1.1" id="Layer_1" xmlns="http://www.w3.org/2000/svg" xmlns:xlink="http://www.w3.org/1999/xlink" x="0px" y="0px"
	 viewBox="0 0 50.5 50.5" style="enable-background:new 0 0 50.5 50.5;" xml:space="preserve">
<path d="M31.4,30.6H25V20c0-0.1,0-0.1,0-0.2c2.8-1.5,4.5-4.4,4.5-7.5c0-4.7-3.9-8.6-8.6-8.6c-4.7,0-8.6,3.8-8.6,8.6
	c0,3.2,1.7,6,4.5,7.5c0,0.1,0,0.1,0,0.2v10.6h-6.4c-3,0-5.5,2.5-5.5,5.5v8.3c0,0.5,0.4,1,1,1h30.2c0.5,0,1-0.4,1-1v-8.3
	C36.9,33.1,34.4,30.6,31.4,30.6z M14.1,12.4c0-3.7,3-6.7,6.7-6.7s6.7,3,6.7,6.7c0,2.5-1.4,4.8-3.6,5.9c-1.9,1-4.3,1-6.2,0
	C15.5,17.1,14.1,14.9,14.1,12.4z M23.4,20.6v10.1h-5.1V20.6c0.8,0.3,1.7,0.4,2.5,0.4C21.7,21,22.5,20.9,23.4,20.6z M35,43.5H6.7
	v-7.3c0-2,1.6-3.6,3.6-3.6h21.1c2,0,3.6,1.6,3.6,3.6V43.5z M25.2,36.6c0.8,0.7,0.7,1.9,0,2.7s-1.9,0.8-2.7,0c-0.8-0.7-0.8-1.9,0-2.7
	C23.3,35.9,24.4,35.9,25.2,36.6z M29,36.6c-0.8,0.8-0.8,2,0,2.7s2,0.8,2.7,0c0.8-0.8,0.8-2,0-2.7C31,35.9,29.8,35.9,29,36.6z
	 M23.7,11.7c0,0.2,0.1,0.4,0.1,0.7c0,0.4,0.4,0.8,0.8,0.8c0.4,0,0.8-0.4,0.8-0.8c0-0.3,0-0.7-0.1-1c-0.1-0.4-0.5-0.7-1-0.6
	C23.8,10.9,23.6,11.3,23.7,11.7z M23.1,10.3c0.2,0,0.5-0.1,0.6-0.3C24,9.6,24,9.1,23.6,8.8c-0.8-0.6-1.8-1-2.8-1
	c-0.4,0-0.8,0.4-0.8,0.8c0,0.4,0.4,0.9,0.8,0.9c0.7,0,1.3,0.2,1.8,0.6C22.7,10.2,22.9,10.3,23.1,10.3z M46.3,25.4
	c-1.4-1.8-3.1-3.3-5.1-4.6c-2.5-1.6-5.2-2.6-8-3c-0.5-0.1-1,0.3-1.1,0.8c-0.1,0.5,0.3,1,0.8,1.1c2.6,0.4,5.1,1.3,7.3,2.8
	c1.8,1.1,3.3,2.5,4.6,4.2c0.2,0.2,0.5,0.4,0.7,0.4s0.4-0.1,0.6-0.2C46.6,26.4,46.7,25.8,46.3,25.4z M37,27.6c-1-0.6-2.1-1.1-3.1-1.4
	c-0.5-0.2-1,0.1-1.2,0.6s0.1,1,0.6,1.2c0.9,0.3,1.8,0.7,2.7,1.2c0.8,0.5,1.5,1.1,2.1,1.8c0.2,0.2,0.4,0.3,0.7,0.3
	c0.2,0,0.5-0.1,0.6-0.3c0.4-0.4,0.4-1,0-1.3C38.8,28.9,37.9,28.2,37,27.6z M39.1,24.2c-1.7-1.1-3.6-1.9-5.6-2.3
	c-0.5-0.1-1,0.2-1.1,0.7c-0.1,0.5,0.2,1,0.7,1.1c1.8,0.4,3.4,1.1,5,2c1.3,0.8,2.4,1.8,3.3,2.9c0.2,0.3,0.5,0.4,0.8,0.4
	c0.1,0,0.1,0,0.2,0c0.5-0.1,0.9-0.6,0.8-1.1c0-0.2-0.1-0.3-0.2-0.4C41.8,26.3,40.6,25.1,39.1,24.2z"/>
</svg>
