<?xml version="1.0" encoding="utf-8"?>
<!-- Generator: Adobe Illustrator 22.0.0, SVG Export Plug-In . SVG Version: 6.00 Build 0)  -->
<svg version="1.1" id="Layer_1" xmlns="http://www.w3.org/2000/svg" xmlns:xlink="http://www.w3.org/1999/xlink" x="0px" y="0px"
	 viewBox="0 0 50.46 50.46" style="enable-background:new 0 0 50.46 50.46;" xml:space="preserve">
<g>
	<path d="M40.003,13.278c-1.97-2.102-4.901-4.308-8.251-6.212c-6.531-3.711-14.064-5.842-15.831-2.738
		c-0.151,0.266-0.229,0.555-0.275,0.852c-0.099,0.08-0.193,0.169-0.263,0.283c-0.386,0.628-9.33,15.47-4.917,34.129l-2.545,4.713
		l0.002,0.297c0.004,0.366,0.088,2.224,1.438,2.844c0.263,0.121,0.537,0.18,0.823,0.18c0.669,0,1.398-0.33,2.177-0.989l0.148-0.124
		l2.633-4.405c15.943-3.592,26.293-21.404,26.731-22.168c0.066-0.115,0.096-0.238,0.12-0.361c0.082-0.104,0.155-0.209,0.215-0.314
		C42.795,18.233,42.888,16.355,40.003,13.278z M17.814,5.403c0.155-0.273,0.663-0.428,1.463-0.428c2.131,0,6.327,1.099,11.401,3.983
		c3.165,1.798,5.914,3.861,7.738,5.808c1.757,1.874,2.099,3.075,1.899,3.424v0c-0.198,0.349-1.404,0.672-3.914,0.12
		c-2.606-0.571-5.785-1.877-8.95-3.676C20.473,10.668,17.245,6.403,17.814,5.403z M14.177,39.955l-0.499,0.102l-2.949,4.933
		c-0.169,0.132-0.296,0.21-0.387,0.258c-0.037-0.112-0.069-0.257-0.089-0.404l2.665-4.938l-0.107-0.432
		c-3.589-14.536,1.587-27.003,3.705-31.251c1.707,2.749,5.596,5.881,9.86,8.304c3.349,1.903,6.744,3.292,9.558,3.909
		c1.05,0.23,1.929,0.331,2.673,0.341C35.41,25.545,26.345,37.46,14.177,39.955z"/>
	<path d="M14.959,21.325c-0.397-0.055-0.764,0.217-0.823,0.613c-0.232,1.594-0.763,8.13-0.416,10.765
		c0.075,0.58,0.165,1.148,0.267,1.694c0.065,0.349,0.37,0.592,0.712,0.592c0.045,0,0.09-0.004,0.135-0.013
		c0.394-0.074,0.653-0.453,0.579-0.847c-0.097-0.52-0.182-1.061-0.255-1.615c-0.315-2.401,0.173-8.719,0.414-10.367
		C15.63,21.75,15.355,21.382,14.959,21.325z"/>
</g>
</svg>
