<?xml version="1.0" encoding="utf-8"?>
<!-- Generator: Adobe Illustrator 22.1.0, SVG Export Plug-In . SVG Version: 6.00 Build 0)  -->
<svg version="1.1" id="Layer_1" xmlns="http://www.w3.org/2000/svg" xmlns:xlink="http://www.w3.org/1999/xlink" x="0px" y="0px"
	 viewBox="0 0 50.5 50.5" style="enable-background:new 0 0 50.5 50.5;" xml:space="preserve">
<style type="text/css">
	.st0{fill:#12B5E1;}
</style>
<title>chat crecer</title>
<g>
	<path class="st0" d="M36,6.1c7,0,10.8,4.4,10.8,11.8c0,3.2-2.1,7.3-2.1,7.3c-5.1,9.6-19.5,19.2-19.5,19.2S10.9,34.8,5.8,25.2
		c0,0-2.1-4.1-2.1-7.3c0-7.5,3.8-11.8,10.8-11.8c5.7,0,8.7,5,10,7.9c0.3,0.6,1.2,0.6,1.5,0C27.3,11.1,30.3,6.1,36,6.1 M36,3.9
		c-5.3,0-8.8,3.6-10.8,6.8c-1.9-3.2-5.3-6.8-10.7-6.8c-8.1,0-12.9,5.2-12.9,14c0,3.6,2.1,7.8,2.3,8.3c5.3,10,19.6,19.6,20.2,20
		c0.4,0.2,0.8,0.4,1.2,0.4c0.4,0,0.8-0.1,1.2-0.4c0.6-0.4,14.9-10,20.2-20c0.3-0.5,2.3-4.7,2.3-8.3C49,9.2,44.1,3.9,36,3.9L36,3.9z"
		/>
	<path class="st0" d="M8.2,19.1c-0.6,0-1.1-0.5-1.1-1.1h0c0,0,0-0.1,0-0.1c0-0.6,0.5-1.1,1.1-1.1c0.6,0,1.1,0.5,1.1,1.1h0
		c0,0,0,0,0,0.1C9.2,18.6,8.8,19.1,8.2,19.1z M8.2,17.9L8.2,17.9L8.2,17.9L8.2,17.9z"/>
	<path class="st0" d="M8.5,15.7c-0.1,0-0.1,0-0.2,0c-0.6-0.1-1-0.7-0.9-1.3c0.6-3.2,2.7-5.3,5.7-5.7c0.6-0.1,1.1,0.3,1.2,0.9
		c0.1,0.6-0.3,1.1-0.9,1.2c-2.1,0.3-3.5,1.7-3.9,4C9.4,15.4,9,15.7,8.5,15.7z"/>
</g>
</svg>
