<svg id="Layer_1" data-name="Layer 1" xmlns="http://www.w3.org/2000/svg" viewBox="0 0 50.46 50.46"><defs><style>.cls-1{fill:#65b4e1;}</style></defs><title>corazon cruz</title><path class="cls-1" d="M37,10.46A9.44,9.44,0,0,0,25.66,11.9a9.28,9.28,0,0,0-8.14-2.52,9.24,9.24,0,0,0-7.33,6.07,9.53,9.53,0,0,0,2,9.52c2,2.26,9.49,10.93,11.28,13a3.2,3.2,0,0,0,2.25,1.33,2.23,2.23,0,0,0,1-.26c.51-.26,2-1.9,10.15-11.42l2.06-2.4a9.7,9.7,0,0,0,2.5-4.56,1.58,1.58,0,0,0,0-.22A9.5,9.5,0,0,0,37,10.46Zm2.49,9.75v.05a7.89,7.89,0,0,1-2,3.66l-2.08,2.43c-2.61,3.06-8.67,10.17-9.6,11-.12,0-.28,0-.82-.62-1.79-2.08-9.32-10.76-11.29-13a7.58,7.58,0,0,1-1.6-7.56,7.28,7.28,0,0,1,5.79-4.77,7.92,7.92,0,0,1,1.3-.11A7.24,7.24,0,0,1,24.88,14a1,1,0,0,0,1.55,0,7.41,7.41,0,0,1,13.06,6.21Z"/><path class="cls-1" d="M30.94,22.16H26.64V17.87a1,1,0,0,0-2,0v4.29H20.37a1,1,0,1,0,0,2h4.29v4.29a1,1,0,0,0,2,0V24.14h4.29a1,1,0,1,0,0-2Z"/></svg>