<?xml version="1.0" encoding="utf-8"?>
<!-- Generator: Adobe Illustrator 24.1.0, SVG Export Plug-In . SVG Version: 6.00 Build 0)  -->
<svg version="1.1" id="Layer_1" xmlns="http://www.w3.org/2000/svg" xmlns:xlink="http://www.w3.org/1999/xlink" x="0px" y="0px"
	 viewBox="0 0 50.5 50.5" style="enable-background:new 0 0 50.5 50.5;" xml:space="preserve">
<g>
	<path d="M45,30c-1.5-0.7-3.3-0.2-4.3,1.1l-2.2-1c0.5-1.3,0.7-2.7,0.7-4.2c0-0.7-0.1-1.3-0.2-2l2.5-0.8c0.3,0.6,0.8,1,1.4,1.4
		c0.5,0.3,1.1,0.4,1.7,0.4c0.4,0,0.7-0.1,1.1-0.2c1.9-0.6,2.9-2.6,2.4-4.4c-0.6-1.9-2.6-2.9-4.4-2.4c-1.6,0.5-2.6,2-2.5,3.7
		l-2.4,0.7c-0.5-1.8-1.4-3.3-2.6-4.7l3.4-3.4c0.6,0.3,1.2,0.5,1.8,0.5c0,0,0,0,0,0c1,0,1.8-0.4,2.5-1.1c1.4-1.4,1.3-3.7-0.1-5
		c-1.4-1.4-3.7-1.3-5,0.1c-0.7,0.7-1,1.6-1,2.5c0,0.7,0.2,1.3,0.6,1.9l-3.3,3.4c-2-1.8-4.6-3-7.5-3.1l0-4.7c1.6-0.3,2.8-1.7,2.8-3.4
		c0-0.9-0.3-1.8-1-2.5c-0.7-0.7-1.6-1.1-2.5-1.1c0,0,0,0,0,0c-0.9,0-1.8,0.4-2.5,1c-0.7,0.7-1.1,1.6-1.1,2.5c0,0.9,0.3,1.8,1,2.5
		c0.5,0.5,1.1,0.8,1.7,1l0,4.8c-2.1,0.1-4.1,0.8-5.9,1.9l-1.3-2.2c1.2-1.1,1.4-2.9,0.5-4.4c-0.5-0.8-1.3-1.4-2.2-1.6
		C16,6.9,15.1,7,14.3,7.5c-0.8,0.5-1.4,1.3-1.6,2.2c-0.2,0.9-0.1,1.9,0.4,2.7c0.7,1.1,1.8,1.7,3,1.7c0.4,0,0.7-0.1,1.1-0.2l1.4,2.3
		c-1.7,1.4-3,3.2-3.8,5.3l-5.4-1.7c0.1-1.6-0.9-3.2-2.5-3.7c-1.9-0.6-3.9,0.5-4.4,2.4c-0.3,0.9-0.2,1.9,0.3,2.7
		C3.2,22.1,4,22.7,4.9,23c0.3,0.1,0.7,0.2,1.1,0.2c0.6,0,1.1-0.1,1.7-0.4c0.6-0.3,1.1-0.8,1.4-1.4l5.4,1.7C14.2,24,14,24.9,14,25.9
		c0,1.7,0.3,3.2,0.9,4.7l-2.1,0.9c-1-1.3-2.7-1.8-4.3-1.1c-1.8,0.8-2.6,2.9-1.8,4.7c0.4,0.9,1.1,1.5,2,1.9c0.4,0.2,0.8,0.2,1.3,0.2
		c0.5,0,1-0.1,1.5-0.3c0.9-0.4,1.5-1.1,1.9-2c0.2-0.6,0.3-1.3,0.2-2l2.1-0.9c1.3,2.2,3.2,4,5.5,5.2l-1.5,4.6
		c-1.6-0.1-3.2,0.8-3.7,2.4c-0.3,0.9-0.2,1.9,0.2,2.7c0.4,0.8,1.2,1.5,2.1,1.8c0.4,0.1,0.7,0.2,1.1,0.2c0.6,0,1.1-0.1,1.6-0.4
		c0.8-0.4,1.5-1.2,1.8-2.1s0.2-1.9-0.2-2.7c-0.3-0.6-0.8-1.1-1.3-1.4l1.4-4.4c1.2,0.4,2.6,0.7,4,0.7c1.7,0,3.3-0.3,4.7-0.9l0.9,2
		c-1.3,1-1.8,2.7-1.1,4.3c0.6,1.3,1.9,2.1,3.3,2.1c0.5,0,1-0.1,1.4-0.3c1.8-0.8,2.6-2.9,1.8-4.7c-0.4-0.9-1.1-1.5-2-1.9
		c-0.6-0.2-1.3-0.3-2-0.2l-0.9-2.1c2.2-1.2,3.9-3.1,5-5.3l2.2,1c-0.1,0.6-0.1,1.3,0.2,1.9c0.3,0.9,1,1.6,1.9,2
		c0.5,0.2,1,0.3,1.5,0.3c1.4,0,2.7-0.8,3.2-2.1c0.4-0.9,0.4-1.8,0.1-2.7C46.5,31.1,45.8,30.4,45,30z M44,19.5
		c0.2-0.1,0.4-0.1,0.6-0.1c0.8,0,1.6,0.5,1.9,1.4c0.3,1-0.3,2.1-1.3,2.4c-1,0.3-2.1-0.3-2.4-1.3C42.4,20.9,42.9,19.8,44,19.5z
		 M14.5,11.6c-0.3-0.4-0.4-1-0.2-1.5s0.4-0.9,0.9-1.2c0.3-0.2,0.7-0.3,1-0.3c0.2,0,0.3,0,0.5,0.1c0.5,0.1,0.9,0.4,1.2,0.9
		c0.6,0.9,0.3,2.1-0.6,2.7C16.2,12.8,15,12.5,14.5,11.6z M7.8,20.2c-0.2,0.5-0.5,0.9-1,1.2c-0.5,0.2-1,0.3-1.5,0.1
		c-0.5-0.2-0.9-0.5-1.2-1S3.9,19.5,4,19c0.3-0.8,1-1.4,1.9-1.4c0.2,0,0.4,0,0.6,0.1C7.5,18,8.1,19.1,7.8,20.2z M11.9,34.4
		c-0.2,0.5-0.5,0.9-1,1.1c-0.5,0.2-1,0.2-1.5,0c-0.5-0.2-0.9-0.5-1.1-1c-0.4-1,0-2.1,1-2.6c0.3-0.1,0.5-0.2,0.8-0.2
		c0.7,0,1.5,0.4,1.8,1.2C12.1,33.3,12.1,33.9,11.9,34.4z M21.2,45.9c-0.2,0.5-0.5,0.9-1,1.1c-0.5,0.2-1,0.3-1.5,0.1
		c-0.5-0.2-0.9-0.5-1.1-1c-0.2-0.5-0.3-1-0.1-1.5c0.3-0.8,1-1.4,1.9-1.4c0.2,0,0.4,0,0.6,0.1c0.5,0.2,0.9,0.5,1.1,1
		C21.4,44.9,21.4,45.4,21.2,45.9z M34.4,40.4c0.2,0,0.5,0,0.7,0.1c0.5,0.2,0.9,0.6,1.1,1c0.4,1,0,2.1-1,2.6c-1,0.4-2.1,0-2.6-1
		c-0.4-1,0-2.1,1-2.6v0C33.8,40.5,34.1,40.4,34.4,40.4z M39.8,9.8c0.4-0.4,0.9-0.6,1.4-0.6c0.5,0,1,0.2,1.4,0.6c0.8,0.8,0.8,2,0,2.8
		c-0.4,0.4-0.9,0.6-1.4,0.6c-0.5,0-1-0.2-1.4-0.6C39.1,11.8,39.1,10.6,39.8,9.8z M24.7,5.1c0-0.5,0.2-1,0.6-1.4
		c0.4-0.4,0.9-0.6,1.4-0.6c0,0,0,0,0,0c0.5,0,1,0.2,1.4,0.6s0.6,0.9,0.6,1.4c0,1.1-0.9,1.9-2,1.9c0,0,0,0,0,0c-0.5,0-1-0.2-1.4-0.6
		C24.9,6.2,24.7,5.7,24.7,5.1z M26.6,36.9c-6,0-11-4.9-11-11s4.9-11,11-11s11,4.9,11,11S32.6,36.9,26.6,36.9z M45.3,34
		c-0.4,1-1.6,1.4-2.6,1c-0.5-0.2-0.8-0.6-1-1.1c-0.2-0.5-0.2-1,0-1.5c0.2-0.5,0.6-0.8,1.1-1c0.2-0.1,0.5-0.1,0.7-0.1
		c0.3,0,0.5,0.1,0.8,0.2c0.5,0.2,0.8,0.6,1,1.1C45.5,33,45.5,33.6,45.3,34z"/>
	<path d="M27.9,21.9c0-2-1.7-3.7-3.7-3.7c-2,0-3.7,1.7-3.7,3.7s1.7,3.7,3.7,3.7C26.2,25.7,27.9,24,27.9,21.9z M22.1,21.9
		c0-1.2,0.9-2.1,2.1-2.1s2.1,0.9,2.1,2.1s-0.9,2.1-2.1,2.1S22.1,23.1,22.1,21.9z"/>
	<path d="M25.6,27.3c-1.8,0-3.3,1.5-3.3,3.3s1.5,3.3,3.3,3.3c1.8,0,3.3-1.5,3.3-3.3S27.4,27.3,25.6,27.3z M25.6,32.3
		c-0.9,0-1.7-0.8-1.7-1.7s0.8-1.7,1.7-1.7s1.7,0.8,1.7,1.7S26.5,32.3,25.6,32.3z"/>
	<path d="M31.3,24.3c-1.4,0-2.5,1.1-2.5,2.5s1.1,2.5,2.5,2.5c1.4,0,2.5-1.1,2.5-2.5S32.7,24.3,31.3,24.3z M31.3,27.7
		c-0.5,0-0.9-0.4-0.9-0.9c0-0.5,0.4-0.9,0.9-0.9s0.9,0.4,0.9,0.9C32.2,27.3,31.8,27.7,31.3,27.7z"/>
</g>
</svg>
