<svg id="Layer_1" data-name="Layer 1" xmlns="http://www.w3.org/2000/svg" viewBox="0 0 50.46 50.46"><defs><style>.cls-1{fill:#12b5e1;}</style></defs><title>cosmetovigilancia</title><path class="cls-1" d="M44.83,44.36l-8.34-9.23A11,11,0,0,1,33,38.22l8.33,9.24a2.33,2.33,0,0,0,3.47-3.1Z"/><path class="cls-1" d="M36.72,29a9.29,9.29,0,1,0-9.8,8.75A9.29,9.29,0,0,0,36.72,29Zm-9.67,6.43a7,7,0,1,1,7.35-6.56A7,7,0,0,1,27.05,35.44Z"/><path class="cls-1" d="M27.71,23.87a4.63,4.63,0,0,0-4.88,4.35.77.77,0,0,0,.71.8.76.76,0,0,0,.79-.71,3.12,3.12,0,0,1,3.29-2.94.75.75,0,0,0,.09-1.5Z"/><path class="cls-1" d="M26.82,39.33l-.41,0V44.9a2.62,2.62,0,0,1-2.62,2.61H16.16a2.62,2.62,0,0,1-2.62-2.61v-14h3.14A11,11,0,0,1,16.4,29H16V15.54h7.91v2.24a9.9,9.9,0,0,1,1.95-.47V14.57a1,1,0,0,0-1-1h-.68V4.24a3.48,3.48,0,0,0-1.89-3.17A1.91,1.91,0,0,0,20,1.68L15.92,7a.87.87,0,0,0-.19.54v6.06h-.68a1,1,0,0,0-1,1V29H11.64V44.9a4.53,4.53,0,0,0,4.52,4.52h7.63a4.53,4.53,0,0,0,4.52-4.52V39.31c-.28,0-.57,0-.85,0ZM17.51,7.83l3.86-5.07s.1-.13.19-.08a1.71,1.71,0,0,1,.88,1.56v9.35H17.51Z"/><path class="cls-1" d="M16.15,35.51a.77.77,0,0,0,.77-.77v-.46a.77.77,0,1,0-1.54,0v.46A.77.77,0,0,0,16.15,35.51Z"/><path class="cls-1" d="M16.15,43.34a.76.76,0,0,0,.77-.77V36.81a.77.77,0,1,0-1.54,0v5.76A.76.76,0,0,0,16.15,43.34Z"/></svg>