<?xml version="1.0" encoding="utf-8"?>
<!-- Generator: Adobe Illustrator 25.4.1, SVG Export Plug-In . SVG Version: 6.00 Build 0)  -->
<svg version="1.1" id="Capa_2" xmlns="http://www.w3.org/2000/svg" xmlns:xlink="http://www.w3.org/1999/xlink" x="0px" y="0px"
	 viewBox="0 0 50.46 50.46" enable-background="new 0 0 50.46 50.46" xml:space="preserve">
<g>
	<path d="M36.709,5.453H13.751c-0.428,0-0.774,0.347-0.774,0.774v38.005c0,0.428,0.347,0.774,0.774,0.774h22.959
		c0.428,0,0.774-0.347,0.774-0.774V6.227C37.484,5.8,37.137,5.453,36.709,5.453z M19.98,25.489c0.332,0,0.6,0.269,0.6,0.6
		c0,0.331-0.269,0.6-0.6,0.6h-2.389c0.003,0.037,0.022,0.07,0.022,0.108c0,0.722-0.585,1.307-1.307,1.307
		c-0.722,0-1.307-0.585-1.307-1.307c0-0.639,0.467-1.146,1.074-1.26c0.072-0.03,0.151-0.047,0.234-0.047H19.98z M16.718,18.876
		v-7.829c0-0.552,0.447-0.999,0.999-0.999h14.888c0.551,0,0.999,0.447,0.999,0.999v7.829c0,0.551-0.447,0.999-0.999,0.999H17.716
		C17.165,19.874,16.718,19.427,16.718,18.876z"/>
	<path d="M20.893,17.606c0.189,0,0.383-0.014,0.577-0.04c0.195-0.026,0.37-0.062,0.525-0.106v-1.168
		c-0.355,0.091-0.675,0.136-0.957,0.136c-0.333,0-0.604-0.046-0.812-0.137c-0.209-0.091-0.362-0.235-0.462-0.43
		s-0.149-0.452-0.149-0.77c0-0.311,0.052-0.564,0.154-0.761s0.26-0.341,0.473-0.435s0.489-0.141,0.829-0.141
		c0.3,0,0.607,0.031,0.924,0.093v-1.168c-0.322-0.068-0.672-0.103-1.05-0.103c-0.608,0-1.124,0.098-1.547,0.293
		c-0.422,0.195-0.742,0.481-0.961,0.859c-0.218,0.377-0.327,0.836-0.327,1.376C18.11,16.772,19.038,17.606,20.893,17.606z"/>
	<path d="M23.444,17.322c0.373,0.189,0.813,0.285,1.323,0.285s0.951-0.096,1.326-0.287c0.374-0.19,0.662-0.474,0.865-0.85
		s0.305-0.835,0.305-1.378c0-0.542-0.102-1.002-0.305-1.378s-0.491-0.66-0.865-0.85c-0.375-0.191-0.816-0.287-1.326-0.287
		s-0.95,0.095-1.323,0.285c-0.373,0.19-0.661,0.473-0.864,0.849c-0.202,0.376-0.304,0.837-0.304,1.381
		c0,0.545,0.102,1.005,0.304,1.382C22.783,16.849,23.071,17.132,23.444,17.322z M24.009,14.051c0.173-0.217,0.426-0.326,0.759-0.326
		c0.335,0,0.59,0.112,0.763,0.336c0.173,0.224,0.26,0.576,0.26,1.057c0,0.457-0.086,0.794-0.258,1.012s-0.427,0.328-0.765,0.328
		c-0.337,0-0.592-0.111-0.763-0.333s-0.256-0.575-0.256-1.061C23.749,14.606,23.835,14.268,24.009,14.051z"/>
	<path d="M29.083,16.418h1.621l0.312,1.122h1.406l-1.463-4.897h-2.114l-1.462,4.897h1.393L29.083,16.418z M29.89,13.483l0.503,1.81
		h-0.999L29.89,13.483z"/>
</g>
</svg>
