<?xml version="1.0" encoding="utf-8"?>
<!-- Generator: Adobe Illustrator 24.0.2, SVG Export Plug-In . SVG Version: 6.00 Build 0)  -->
<svg version="1.1" id="Layer_1" xmlns="http://www.w3.org/2000/svg" xmlns:xlink="http://www.w3.org/1999/xlink" x="0px" y="0px"
	 viewBox="0 0 50.5 50.5" style="enable-background:new 0 0 50.5 50.5;" xml:space="preserve">
<path d="M33.274,26.763c-0.14-0.121-0.21-0.297-0.21-0.527c0-0.234,0.077-0.417,0.232-0.547s0.403-0.209,0.743-0.235l0.615-0.046
	c0.115-0.009,0.213,0.082,0.213,0.198v0.863c0,0.055-0.022,0.109-0.063,0.145c-0.12,0.106-0.252,0.186-0.397,0.239
	c-0.17,0.062-0.344,0.094-0.522,0.094C33.618,26.945,33.413,26.884,33.274,26.763z M28.147,23.2
	c-0.171-0.025-0.352-0.038-0.544-0.038c-0.529,0-0.922,0.143-1.177,0.428c-0.255,0.286-0.383,0.748-0.383,1.387
	c0,0.639,0.108,1.089,0.323,1.35c0.216,0.261,0.526,0.391,0.93,0.391c0.196,0,0.386-0.035,0.567-0.105
	c0.156-0.06,0.289-0.146,0.4-0.257c0.036-0.036,0.053-0.086,0.053-0.136v-2.823C28.317,23.298,28.245,23.214,28.147,23.2z
	 M46.255,12.03V38.43c0,4.322-3.503,7.825-7.825,7.825H12.03c-4.322,0-7.825-3.503-7.825-7.825V12.03
	c0-4.322,3.503-7.825,7.825-7.825H38.43C42.751,4.205,46.255,7.709,46.255,12.03z M13.171,22.093c0-0.094-0.065-0.176-0.157-0.194
	c-0.372-0.072-0.782-0.109-1.232-0.109c-1.108,0-1.954,0.266-2.538,0.797c-0.584,0.531-0.876,1.336-0.876,2.413
	c0,1.07,0.275,1.872,0.825,2.407c0.55,0.535,1.351,0.802,2.402,0.802c0.519,0,0.997-0.063,1.436-0.189
	c0.084-0.024,0.141-0.103,0.141-0.19v-1.033c0-0.129-0.121-0.222-0.246-0.192c-0.168,0.04-0.321,0.071-0.457,0.093
	c-0.2,0.032-0.397,0.048-0.59,0.048c-0.556,0-0.968-0.138-1.236-0.414c-0.268-0.276-0.403-0.726-0.403-1.35
	c0-0.412,0.062-0.746,0.187-1.001s0.318-0.441,0.581-0.559c0.263-0.117,0.604-0.176,1.024-0.176c0.293,0,0.597,0.026,0.911,0.077
	c0.12,0.02,0.228-0.074,0.228-0.195V22.093z M19.879,22.084c0-0.109-0.089-0.198-0.198-0.198h-1.418
	c-0.109,0-0.198,0.089-0.198,0.198v3.967c0,0.049-0.017,0.098-0.051,0.134c-0.127,0.135-0.28,0.241-0.46,0.317
	c-0.204,0.087-0.406,0.13-0.607,0.13c-0.272,0-0.481-0.076-0.627-0.227c-0.146-0.151-0.218-0.404-0.218-0.76v-3.562
	c0-0.109-0.089-0.198-0.198-0.198h-1.418c-0.109,0-0.198,0.089-0.198,0.198v3.681c0,0.839,0.192,1.455,0.576,1.846
	c0.384,0.391,0.906,0.587,1.568,0.587c0.336,0,0.653-0.062,0.95-0.184c0.297-0.123,0.564-0.305,0.802-0.547h0.074l0.093,0.464
	c0.019,0.093,0.1,0.159,0.194,0.159h1.136c0.109,0,0.198-0.089,0.198-0.198V22.084z M23.038,22.084c0-0.109-0.089-0.198-0.198-0.198
	h-1.418c-0.109,0-0.198,0.089-0.198,0.198v5.807c0,0.109,0.089,0.198,0.198,0.198h1.418c0.109,0,0.198-0.089,0.198-0.198V22.084z
	 M23.248,20.043c0-0.306-0.093-0.541-0.278-0.703c-0.185-0.163-0.465-0.244-0.839-0.244c-0.378,0-0.66,0.081-0.845,0.244
	c-0.185,0.163-0.278,0.397-0.278,0.703c0,0.303,0.094,0.535,0.281,0.698c0.187,0.163,0.468,0.244,0.842,0.244
	s0.654-0.081,0.839-0.244C23.155,20.578,23.248,20.346,23.248,20.043z M30.132,19.124c0-0.109-0.089-0.198-0.198-0.198h-1.418
	c-0.109,0-0.198,0.089-0.198,0.198v2.484c0,0.116-0.098,0.207-0.214,0.197c-0.161-0.014-0.33-0.022-0.507-0.022
	c-1.1,0-1.939,0.285-2.515,0.854c-0.577,0.569-0.865,1.396-0.865,2.481c0,0.703,0.113,1.284,0.34,1.744
	c0.227,0.459,0.531,0.797,0.913,1.012c0.382,0.216,0.813,0.323,1.293,0.323c0.355,0,0.674-0.067,0.956-0.201
	c0.282-0.134,0.513-0.318,0.695-0.553h0.085l0.085,0.482c0.017,0.095,0.099,0.164,0.195,0.164h1.155
	c0.109,0,0.198-0.089,0.198-0.198V19.124z M31.278,26.406c0,0.359,0.08,0.674,0.241,0.944c0.161,0.27,0.392,0.48,0.695,0.63
	c0.302,0.149,0.661,0.224,1.077,0.224c0.348,0,0.664-0.06,0.947-0.179c0.284-0.119,0.516-0.302,0.698-0.547h0.085l0.092,0.454
	c0.019,0.092,0.1,0.159,0.194,0.159h1.137c0.109,0,0.198-0.089,0.198-0.198v-3.488c0-0.65-0.1-1.165-0.301-1.545
	c-0.2-0.38-0.509-0.653-0.924-0.819c-0.416-0.166-0.962-0.25-1.639-0.25c-0.325,0-0.667,0.023-1.026,0.068
	c-0.3,0.038-0.578,0.089-0.834,0.154c-0.087,0.022-0.147,0.102-0.147,0.192v0.947c0,0.129,0.121,0.223,0.247,0.191
	c0.194-0.049,0.397-0.089,0.607-0.118c0.301-0.042,0.577-0.062,0.831-0.062c0.352,0,0.628,0.035,0.831,0.105
	c0.202,0.07,0.35,0.186,0.442,0.349c0.093,0.163,0.139,0.388,0.139,0.675v0.079l-1.009,0.085c-0.892,0.057-1.545,0.248-1.959,0.573
	S31.278,25.812,31.278,26.406z M41.76,30.862c0-0.371-0.302-0.672-0.672-0.672h-9.011c-0.371,0-0.672,0.302-0.672,0.672
	s0.302,0.672,0.672,0.672h9.011C41.458,31.534,41.76,31.232,41.76,30.862z M41.905,22.017c0-0.101-0.075-0.186-0.175-0.198
	c-0.102-0.012-0.21-0.018-0.324-0.018c-0.359,0-0.68,0.073-0.964,0.218c-0.284,0.146-0.51,0.368-0.68,0.666h-0.085l-0.113-0.636
	c-0.017-0.095-0.099-0.164-0.195-0.164h-1.116c-0.109,0-0.198,0.089-0.198,0.198v5.807c0,0.109,0.089,0.198,0.198,0.198h1.418
	c0.109,0,0.198-0.089,0.198-0.198v-3.789c0-0.047,0.015-0.093,0.046-0.129c0.14-0.159,0.329-0.286,0.566-0.381
	c0.265-0.106,0.535-0.159,0.811-0.159c0.145,0,0.277,0.006,0.395,0.018c0.117,0.012,0.217-0.08,0.217-0.197V22.017z"/>
</svg>
