<?xml version="1.0" encoding="utf-8"?>
<!-- Generator: Adobe Illustrator 24.0.2, SVG Export Plug-In . SVG Version: 6.00 Build 0)  -->
<svg version="1.1" id="Layer_1" xmlns="http://www.w3.org/2000/svg" xmlns:xlink="http://www.w3.org/1999/xlink" x="0px" y="0px"
	 viewBox="0 0 50.5 50.5" style="enable-background:new 0 0 50.5 50.5;" xml:space="preserve">
<path d="M8.466,27.506c-0.575-0.559-0.863-1.398-0.863-2.517c0-1.127,0.305-1.968,0.916-2.523c0.611-0.555,1.495-0.833,2.653-0.833
	c0.47,0,0.9,0.038,1.288,0.113c0.096,0.019,0.164,0.105,0.164,0.203l0,1.084c0,0.127-0.114,0.225-0.239,0.204
	c-0.329-0.054-0.647-0.081-0.953-0.081c-0.439,0-0.796,0.061-1.07,0.184c-0.275,0.123-0.477,0.317-0.608,0.584
	c-0.13,0.267-0.196,0.616-0.196,1.047c0,0.652,0.14,1.123,0.421,1.411c0.281,0.289,0.712,0.433,1.293,0.433
	c0.202,0,0.407-0.017,0.617-0.05c0.143-0.023,0.302-0.055,0.478-0.098c0.131-0.031,0.257,0.067,0.257,0.201l0,1.08
	c0,0.091-0.059,0.174-0.147,0.199c-0.459,0.132-0.959,0.198-1.501,0.198C9.878,28.345,9.041,28.065,8.466,27.506z M14.395,27.719
	c-0.401-0.409-0.602-1.052-0.602-1.93v-3.848c0-0.114,0.093-0.207,0.207-0.207h1.483c0.114,0,0.207,0.093,0.207,0.207v3.724
	c0,0.372,0.076,0.636,0.228,0.795c0.152,0.158,0.371,0.237,0.655,0.237c0.209,0,0.421-0.045,0.634-0.136
	c0.188-0.08,0.348-0.19,0.48-0.331c0.035-0.038,0.053-0.088,0.053-0.14l0-4.148c0-0.114,0.093-0.207,0.207-0.207h1.483
	c0.114,0,0.207,0.093,0.207,0.207v6.072c0,0.114-0.093,0.207-0.207,0.207h-1.188c-0.099,0-0.184-0.07-0.203-0.167l-0.097-0.486
	h-0.077c-0.249,0.253-0.529,0.444-0.839,0.572c-0.31,0.128-0.641,0.193-0.993,0.193C15.343,28.333,14.796,28.128,14.395,27.719z
	 M21.113,20.536c-0.196-0.17-0.293-0.413-0.293-0.729c0-0.32,0.097-0.565,0.291-0.735c0.194-0.17,0.488-0.255,0.883-0.255
	c0.391,0,0.684,0.085,0.878,0.255c0.194,0.17,0.291,0.415,0.291,0.735c0,0.316-0.097,0.559-0.291,0.729
	c-0.194,0.17-0.486,0.255-0.878,0.255C21.602,20.791,21.309,20.706,21.113,20.536z M21.045,28.013v-6.072
	c0-0.114,0.093-0.207,0.207-0.207h1.483c0.114,0,0.207,0.093,0.207,0.207v6.072c0,0.114-0.093,0.207-0.207,0.207h-1.483
	C21.138,28.22,21.045,28.128,21.045,28.013z M25.486,27.995c-0.399-0.225-0.717-0.578-0.955-1.058
	c-0.237-0.48-0.356-1.088-0.356-1.823c0-1.134,0.301-1.999,0.904-2.594c0.603-0.595,1.479-0.892,2.63-0.892
	c0.185,0,0.362,0.008,0.53,0.022c0.121,0.011,0.223-0.085,0.223-0.206l0-2.598c0-0.114,0.093-0.207,0.207-0.207h1.483
	c0.114,0,0.207,0.093,0.207,0.207v9.167c0,0.114-0.093,0.207-0.207,0.207h-1.208c-0.101,0-0.187-0.072-0.204-0.171l-0.088-0.504
	h-0.089c-0.19,0.245-0.432,0.438-0.726,0.578c-0.295,0.14-0.628,0.21-0.999,0.21C26.336,28.333,25.885,28.22,25.486,27.995z
	 M27.988,26.676c0.163-0.063,0.302-0.152,0.418-0.269c0.037-0.037,0.056-0.09,0.056-0.142l0-2.951c0-0.104-0.076-0.191-0.179-0.206
	c-0.179-0.026-0.368-0.04-0.569-0.04c-0.553,0-0.964,0.149-1.23,0.448c-0.267,0.298-0.4,0.782-0.4,1.45
	c0,0.668,0.113,1.138,0.338,1.411c0.225,0.273,0.549,0.409,0.972,0.409C27.601,26.785,27.798,26.749,27.988,26.676z M35.886,21.894
	c0.435,0.174,0.757,0.46,0.967,0.857c0.209,0.397,0.314,0.936,0.314,1.616v3.647c0,0.114-0.093,0.207-0.207,0.207h-1.189
	c-0.099,0-0.183-0.069-0.203-0.166l-0.097-0.474h-0.089c-0.19,0.257-0.433,0.448-0.729,0.572c-0.296,0.124-0.627,0.187-0.99,0.187
	c-0.435,0-0.81-0.078-1.127-0.234c-0.316-0.156-0.558-0.376-0.726-0.658c-0.168-0.283-0.252-0.612-0.252-0.987
	c0-0.621,0.216-1.101,0.649-1.441c0.433-0.34,1.116-0.54,2.049-0.599l1.055-0.089v-0.083c0-0.3-0.048-0.536-0.145-0.706
	c-0.097-0.17-0.251-0.291-0.463-0.365c-0.212-0.073-0.501-0.11-0.869-0.11c-0.265,0-0.554,0.022-0.869,0.065
	c-0.22,0.03-0.431,0.072-0.635,0.123c-0.131,0.033-0.258-0.065-0.258-0.2l0-0.991c0-0.094,0.063-0.178,0.154-0.201
	c0.267-0.067,0.558-0.121,0.872-0.161c0.376-0.047,0.733-0.071,1.073-0.071C34.88,21.633,35.451,21.72,35.886,21.894z M34.83,26.925
	c0.151-0.055,0.289-0.139,0.415-0.25c0.043-0.038,0.066-0.094,0.066-0.152v-0.902c0-0.121-0.103-0.216-0.223-0.207l-0.643,0.048
	c-0.356,0.028-0.615,0.11-0.777,0.246c-0.162,0.136-0.243,0.327-0.243,0.572c0,0.241,0.073,0.425,0.219,0.551
	c0.146,0.127,0.36,0.19,0.64,0.19C34.471,27.023,34.653,26.99,34.83,26.925z M38.85,21.734h1.167c0.101,0,0.187,0.072,0.204,0.171
	l0.118,0.665h0.089c0.178-0.312,0.415-0.544,0.711-0.697c0.296-0.152,0.632-0.228,1.008-0.228c0.119,0,0.232,0.006,0.339,0.019
	c0.104,0.012,0.183,0.101,0.183,0.207v1.296c0,0.123-0.105,0.219-0.227,0.206c-0.123-0.013-0.261-0.019-0.413-0.019
	c-0.289,0-0.571,0.055-0.848,0.166c-0.248,0.099-0.446,0.232-0.592,0.398c-0.032,0.037-0.048,0.085-0.048,0.135l0,3.962
	c0,0.114-0.093,0.207-0.207,0.207H38.85c-0.114,0-0.207-0.093-0.207-0.207v-6.072C38.643,21.826,38.736,21.734,38.85,21.734z
	 M41.814,30.415h-9.422c-0.388,0-0.703,0.315-0.703,0.703c0,0.388,0.315,0.703,0.703,0.703h9.422c0.388,0,0.703-0.315,0.703-0.703
	C42.517,30.731,42.202,30.415,41.814,30.415 M38.429,47.055H12.03c-4.756,0-8.625-3.869-8.625-8.625v-26.4
	c0-4.756,3.869-8.625,8.625-8.625h26.399c4.756,0,8.625,3.869,8.625,8.625v26.4C47.054,43.186,43.185,47.055,38.429,47.055z
	 M12.03,5.005c-3.874,0-7.025,3.152-7.025,7.025v26.4c0,3.874,3.152,7.025,7.025,7.025h26.399c3.874,0,7.025-3.151,7.025-7.025
	v-26.4c0-3.874-3.151-7.025-7.025-7.025H12.03z"/>
</svg>
