<svg id="Layer_1" data-name="Layer 1" xmlns="http://www.w3.org/2000/svg" viewBox="0 0 50.46 50.46"><defs><style>.cls-1{fill:#65b4e1;}</style></defs><title>cultura exp</title><path class="cls-1" d="M26.71,15.52l-2.23-2.23a.28.28,0,0,0-.39,0l-2.23,2.23H14.81a.55.55,0,0,0-.55.55V31.72a.55.55,0,0,0,.55.55H33.76a.55.55,0,0,0,.55-.55V16.07a.55.55,0,0,0-.55-.55Zm-2.42-1.65,1.65,1.65H22.64Zm8.92,17.3H15.36V16.62H33.21Z"/><path class="cls-1" d="M32.39,17.37H16.18v13H32.39Zm-9.86,7.15a2,2,0,0,1,1.92-1.22,2.08,2.08,0,0,1,1.74.86c-.2.27-.38.55-.56.81l-.25.38,0,0a13.08,13.08,0,0,1-2.82-.81Zm9.3,5.34H16.73v-3.3c.34-.42,2.32-2.72,4.24-2,.59.21,1,.37,1.31.5a13,13,0,0,0,2.75.81l-.1.12a10.15,10.15,0,0,1-5.07,2.62l-.08,0a.27.27,0,0,0-.16.35.28.28,0,0,0,.27.19H20a10.49,10.49,0,0,0,5.37-2.79,9.76,9.76,0,0,0,.75-1c.64-1,1.44-2.17,2.38-2.11S30,24,30.53,24.85a3.51,3.51,0,0,0,1.31,1.37Z"/><path class="cls-1" d="M27.17,41.5l0-.06H12.48A2.44,2.44,0,0,1,10,39V9.35a2.44,2.44,0,0,1,2.43-2.44H35.9a2.44,2.44,0,0,1,2.43,2.44v26L40,36.58V9.35a4.1,4.1,0,0,0-4.1-4.1H12.47a4.1,4.1,0,0,0-4.1,4.1V39a4.11,4.11,0,0,0,4.1,4.1H30l-.79-.24A4.76,4.76,0,0,1,27.17,41.5Z"/><path class="cls-1" d="M42.09,41l-5.94-4.27v2A.46.46,0,0,1,36,39a.45.45,0,0,1-.32.13c-2.49,0-5.06,0-7.4-2.91L28,35.91l.06.45c.57,4.07,3.07,6.16,7.65,6.39a.45.45,0,0,1,.42.45v2Z"/></svg>