<svg id="Layer_1" data-name="Layer 1" xmlns="http://www.w3.org/2000/svg" viewBox="0 0 50.46 50.46"><defs><style>.cls-1{fill:#65b4e1;}</style></defs><title>cultura</title><path class="cls-1" d="M8,42.54H42.44a1,1,0,0,0,1-1V13.11a1,1,0,0,0-1-1H29.63l-4-4a.5.5,0,0,0-.71,0l-4.05,4H8a1,1,0,0,0-1,1V41.54A1,1,0,0,0,8,42.54ZM25.23,9.13l3,3h-6ZM9,14.11H41.44V40.54H9Z"/><path class="cls-1" d="M10.51,39.17H40V15.48H10.51Zm1-22.69H39V30.4a8.43,8.43,0,0,1-1.55-1.89c-1.08-1.58-2.3-3.38-4.5-3.5a4.54,4.54,0,0,0-3.55,2,4.86,4.86,0,0,0-3.81-1.75,4.61,4.61,0,0,0-4.42,2.86c-.44-.17-.94-.36-1.58-.59-3.33-1.17-6.53,1.55-8,3.14ZM28.72,27.82c-.36.49-.7,1-1,1.47l-.46.69-.07,0A23.76,23.76,0,0,1,22,28.48h0a3.6,3.6,0,0,1,3.5-2.22A3.78,3.78,0,0,1,28.72,27.82ZM11.51,32.17c.62-.76,4.22-4.94,7.71-3.71,1.07.38,1.78.67,2.39.91a23.68,23.68,0,0,0,5,1.47l-.18.22c-2.86,3.19-7.77,4.44-9.21,4.75l-.15,0a.49.49,0,0,0-.3.63.51.51,0,0,0,.49.34l.16,0c1.94-.41,6.77-1.74,9.75-5.06a17.74,17.74,0,0,0,1.37-1.89c1.17-1.75,2.61-3.94,4.32-3.84s2.74,1.61,3.73,3.07A6.37,6.37,0,0,0,39,31.56v6.61H11.51Z"/></svg>