<?xml version="1.0" encoding="utf-8"?>
<!-- Generator: Adobe Illustrator 24.0.1, SVG Export Plug-In . SVG Version: 6.00 Build 0)  -->
<svg version="1.1" id="Layer_1" xmlns="http://www.w3.org/2000/svg" xmlns:xlink="http://www.w3.org/1999/xlink" x="0px" y="0px"
	 viewBox="0 0 50.5 50.5" style="enable-background:new 0 0 50.5 50.5;" xml:space="preserve">
<g>
	<path d="M27.2,40.3l-1.4,1.4c-0.5,0.5-1.3,0.5-1.8,0l-18-18c-0.5-0.5-0.5-1.3,0-1.8l1.4-1.4L27.2,40.3z"/>
	<path d="M16.3,20c-0.5,0.5-0.7,1.1-0.7,1.8c0,0.1,0,0.3,0,0.4l-5-5l7.7-7.7c0.5-0.5,1.3-0.5,1.8,0l3.3,3.3L16.3,20z"/>
	<path d="M37.7,29.8L30.5,37L18.2,24.7c1.3,0.7,2.7,1,4.2,1c2.4,0,4.7-0.9,6.5-2.7l1-1L37.7,29.8z"/>
	<path d="M41.9,25.7l-2.8,2.8l-9.2-9.2l-2.4,2.4c-1.4,1.4-3.2,2.1-5.1,2.1c-1.7,0-3.4-0.6-4.7-1.8c-0.2-0.2-0.2-0.5,0-0.7l7.2-7.1
		l2.9-2.9c2-2,4.5-3,7.1-3c2.7,0,5.3,1,7.3,3.1C46,15.5,45.7,21.8,41.9,25.7"/>
</g>
</svg>
