<svg id="Layer_1" data-name="Layer 1" xmlns="http://www.w3.org/2000/svg" viewBox="0 0 50.46 50.46"><defs><style>.cls-1{fill:#65b4e1;}</style></defs><title>curita</title><path class="cls-1" d="M38.94,29l-4.21-4.21L38.47,21a3,3,0,0,0,0-4.19L33.63,12a3,3,0,0,0-4.19,0L25.7,15.73l-4.21-4.21a3.62,3.62,0,0,0-5.12,0l-4.85,4.85a3.62,3.62,0,0,0,0,5.12l4.21,4.21L12,29.44a3,3,0,0,0,0,4.19l4.85,4.85a3,3,0,0,0,4.19,0l3.74-3.74L29,38.94a3.62,3.62,0,0,0,5.12,0l4.85-4.85a3.62,3.62,0,0,0,0-5.12ZM30.72,13.26a1.16,1.16,0,0,1,1.63,0l4.85,4.85a1.15,1.15,0,0,1,0,1.63l-3.74,3.74L27,17Zm-11,23.93a1.16,1.16,0,0,1-1.63,0l-4.85-4.85a1.15,1.15,0,0,1,0-1.63L17,27l6.48,6.48Zm17.92-4.38-4.85,4.85a1.82,1.82,0,0,1-2.56,0L12.8,20.21a1.81,1.81,0,0,1,0-2.56l4.85-4.85a1.81,1.81,0,0,1,2.56,0L37.66,30.25a1.81,1.81,0,0,1,0,2.56Z"/><path class="cls-1" d="M20.87,22.4a1.37,1.37,0,1,0,1,.4A1.37,1.37,0,0,0,20.87,22.4Z"/><path class="cls-1" d="M23.78,19.5a1.37,1.37,0,1,0,1,.4A1.37,1.37,0,0,0,23.78,19.5Z"/><path class="cls-1" d="M23.78,25.31a1.37,1.37,0,1,0,1,.4A1.37,1.37,0,0,0,23.78,25.31Z"/><path class="cls-1" d="M26.68,22.4a1.37,1.37,0,1,0,1,.4A1.37,1.37,0,0,0,26.68,22.4Z"/><path class="cls-1" d="M26.68,28.22a1.37,1.37,0,1,0,1,.4A1.37,1.37,0,0,0,26.68,28.22Z"/><path class="cls-1" d="M29.59,25.31a1.37,1.37,0,1,0,1,.4A1.37,1.37,0,0,0,29.59,25.31Z"/></svg>