<?xml version="1.0" encoding="utf-8"?>
<!-- Generator: Adobe Illustrator 24.2.1, SVG Export Plug-In . SVG Version: 6.00 Build 0)  -->
<svg version="1.1" id="Layer_1" xmlns="http://www.w3.org/2000/svg" xmlns:xlink="http://www.w3.org/1999/xlink" x="0px" y="0px"
	 viewBox="0 0 50.5 50.5" style="enable-background:new 0 0 50.5 50.5;" xml:space="preserve">
<path d="M38.3,8.7H11.2c-1.7,0-3,1.3-3,3v27.1c0,1.7,1.3,3,3,3h27.1c1.7,0,3-1.4,3-3V11.7C41.3,10,40,8.7,38.3,8.7z M39.7,38.8
	c0,0.8-0.6,1.4-1.4,1.4H11.2c-0.8,0-1.4-0.6-1.4-1.4V11.7c0-0.8,0.6-1.4,1.4-1.4h27.1c0.8,0,1.4,0.6,1.4,1.4V38.8z M19.1,17.1
	c0,1.4-1.1,2.5-2.5,2.5c-1.4,0-2.5-1.1-2.5-2.5c0-1.4,1.1-2.5,2.5-2.5C18,14.6,19.1,15.7,19.1,17.1z M27.3,25.2
	c0,1.4-1.1,2.5-2.5,2.5c-1.4,0-2.5-1.1-2.5-2.5c0-1.4,1.1-2.5,2.5-2.5C26.2,22.7,27.3,23.8,27.3,25.2z M35.4,33.4
	c0,1.4-1.1,2.5-2.5,2.5c-1.4,0-2.5-1.1-2.5-2.5c0-1.4,1.1-2.5,2.5-2.5C34.3,30.9,35.4,32,35.4,33.4z M37.4,18.1v1.2
	c0,0.5-0.4,0.8-0.8,0.8c-0.4,0-0.8-0.4-0.8-0.8v-1.2c0-0.4,0.4-0.8,0.8-0.8C37,17.3,37.4,17.7,37.4,18.1z M37.4,14.8v0.4
	c0,0.4-0.4,0.8-0.8,0.8c-0.4,0-0.8-0.4-0.8-0.8v-0.4c0-0.3-0.2-0.5-0.5-0.5h-4.5c-0.4,0-0.8-0.4-0.8-0.8s0.4-0.8,0.8-0.8h4.5
	C36.5,12.7,37.4,13.7,37.4,14.8z"/>
</svg>
