<svg id="Layer_1" data-name="Layer 1" xmlns="http://www.w3.org/2000/svg" viewBox="0 0 50.46 50.46"><defs><style>.cls-1{fill:#65b4e1;}</style></defs><title>database</title><path class="cls-1" d="M40.36,13.87c-.93-3.64-8.49-5.3-15.13-5.3S11,10.24,10.12,13.85a.9.9,0,0,0-.06.44V36.17a.79.79,0,0,0,.08.37c.88,3.67,8.44,5.35,15.1,5.35s14.19-1.67,15.07-5.27a1,1,0,0,0,.11-.45V14.24A.85.85,0,0,0,40.36,13.87Zm-1.92,18V36c-.3,1.84-5.79,3.9-13.19,3.9S12.34,37.85,12,36V31.89c2.59,1.77,7.68,2.9,13.2,2.9S35.84,33.66,38.43,31.89Zm-13.2.93c-8.18,0-13.2-2.35-13.2-4V24.84c2.59,1.78,7.68,2.91,13.2,2.91s10.61-1.13,13.2-2.91v3.94C38.43,30.46,33.41,32.82,25.23,32.82Zm13.2-18.25c0,.05,0,.11,0,.16-.3,1.84-5.79,3.89-13.17,3.89s-12.87-2-13.17-3.89c0-.08,0-.15,0-.23v-.06c.3-1.84,5.79-3.9,13.19-3.9s12.88,2.06,13.19,3.91v.11ZM25.23,25.77c-8.18,0-13.2-2.35-13.2-4v-4c2.59,1.78,7.67,2.92,13.2,2.92s10.61-1.14,13.2-2.92v4C38.43,23.41,33.41,25.77,25.23,25.77Z"/></svg>