<svg id="Layer_1" data-name="Layer 1" xmlns="http://www.w3.org/2000/svg" viewBox="0 0 50.46 50.46"><defs><style>.cls-1{fill:#12b5e1;}</style></defs><title>datos abiertos 2</title><path class="cls-1" d="M42.4,24.34H40V20.76a1.9,1.9,0,0,0-1.9-1.9H36.62l0-6.45v-.08L30.3,5.64l-.06-.07H14a3.91,3.91,0,0,0-3.9,3.91V14.6H8.55a1.9,1.9,0,0,0-1.9,1.9V43.12A1.81,1.81,0,0,0,7,44.18a1.77,1.77,0,0,0,1.42.71H35.68a1.77,1.77,0,0,0,1.71-1.26l6.33-17.39A1.41,1.41,0,0,0,42.4,24.34Zm-4.32-3.79a.21.21,0,0,1,.21.21v3.58H36.65l0-3.79ZM33.63,12H31l0-2.89ZM14,7.3H29l0,5.65a1,1,0,0,0,1,1c.35,0,2.75,0,4.88,0V24.34H14.63a1.37,1.37,0,0,0-.29,0,1.54,1.54,0,0,0-1.26.83l-1.27,3.44V9.48A2.19,2.19,0,0,1,14,7.3ZM8.34,16.5a.21.21,0,0,1,.21-.22h1.54v17L8.34,38.1Zm33.59,9.8L35.79,43.12l-.12.08H8.53A.14.14,0,0,1,8.4,43l6.13-16.93.1-.07h27.1A.21.21,0,0,1,41.93,26.3Z"/><path class="cls-1" d="M16.11,16.49h7.36a.87.87,0,1,0,0-1.73H16.11a.87.87,0,0,0,0,1.73Z"/><path class="cls-1" d="M16.11,20.14h13.8a.86.86,0,0,0,0-1.72H16.11a.86.86,0,0,0,0,1.72Z"/></svg>