<svg id="Layer_1" data-name="Layer 1" xmlns="http://www.w3.org/2000/svg" viewBox="0 0 50.46 50.46"><defs><style>.cls-1{fill:#65b4e1;}</style></defs><title>declaracion jurada</title><path class="cls-1" d="M41,13.55v0L34.21,6.34l0,0H13.52a4.11,4.11,0,0,0-4.1,4.1V40.06a4.11,4.11,0,0,0,4.1,4.1H36.94a4.1,4.1,0,0,0,4.1-4.1Zm-2.87-.37H34.94l0-3.45Zm1.29,26.87a2.44,2.44,0,0,1-2.43,2.43H13.52a2.44,2.44,0,0,1-2.44-2.43V10.4A2.44,2.44,0,0,1,13.52,8H33l0,6.17a1,1,0,0,0,.94.94h0c.38,0,3,0,5.35,0Z"/><path class="cls-1" d="M33.16,25.75c-.38-.86-1.07-2.38-2.12-4.64a4.82,4.82,0,0,0,1.38-1.44.5.5,0,0,0,.07-.38.5.5,0,0,0-.22-.32.51.51,0,0,0-.38-.07.5.5,0,0,0-.32.22l-.23.32-.36.36-.13.12a.87.87,0,0,0-1.31.16c-.63-.24-1.54-.66-2.53-1.15a1.49,1.49,0,0,0-1.48-1.46h0A1.48,1.48,0,0,0,24,18.93c-1,.5-1.9.91-2.53,1.15a.87.87,0,0,0-1.31-.16L20,19.81l-.35-.35-.24-.33a.5.5,0,0,0-.32-.22.52.52,0,0,0-.38.07.5.5,0,0,0-.15.69A4.82,4.82,0,0,0,20,21.1c-1,2.27-1.74,3.79-2.11,4.64l-.06.14H17V26a3.91,3.91,0,0,0,3.78,3.82h.07A3.79,3.79,0,0,0,24.58,26v-.12h-.84l-2.29-4.73a26.29,26.29,0,0,0,2.93-1.25,1.49,1.49,0,0,0,.63.44v10.1a2.36,2.36,0,0,0-.47.2A2.27,2.27,0,0,0,23.45,32h-1a.5.5,0,0,0,0,1h6.14a.5.5,0,0,0,0-1h-1a2.28,2.28,0,0,0-1.1-1.35,2.37,2.37,0,0,0-.46-.19V20.35a1.49,1.49,0,0,0,.63-.44,26.29,26.29,0,0,0,2.93,1.25L27.3,25.89h-.84V26a3.79,3.79,0,0,0,3.71,3.82h.07A3.91,3.91,0,0,0,34,26v-.13h-.8Zm-10.53.14H18.91c.25-.52.58-1.26.92-2l.87-1.92Zm5.77,0,1.92-4,.87,1.92c.35.77.68,1.51.92,2Z"/></svg>