<svg id="Layer_1" data-name="Layer 1" xmlns="http://www.w3.org/2000/svg" viewBox="0 0 50.46 50.46"><defs><style>.cls-1{fill:#12b5e1;}</style></defs><title>declaración jurada declaracion-jurada-rectificativa</title><path class="cls-1" d="M38,16.44,31.3,9.27l0,0H10.61a4.1,4.1,0,0,0-4.1,4.1V43a4.1,4.1,0,0,0,4.1,4.1H34a4.11,4.11,0,0,0,4.1-4.1L38,16.49Zm-2.87-.32H32l0-3.46ZM36.46,43A2.44,2.44,0,0,1,34,45.43H10.61A2.44,2.44,0,0,1,8.17,43V13.33a2.43,2.43,0,0,1,2.44-2.43H30.09l0,6.16a1,1,0,0,0,.94,1h.05c.38,0,3,0,5.34,0Z"/><path class="cls-1" d="M30.25,28.68c-.38-.86-1.07-2.38-2.12-4.65a4.68,4.68,0,0,0,1.38-1.43.56.56,0,0,0,.07-.38.55.55,0,0,0-.22-.32.57.57,0,0,0-.38-.07.55.55,0,0,0-.32.22,3.29,3.29,0,0,1-.23.33l-.36.36-.13.12a.87.87,0,0,0-.59-.24.84.84,0,0,0-.72.4c-.63-.25-1.54-.66-2.53-1.16a1.5,1.5,0,0,0-1.48-1.46h0a1.48,1.48,0,0,0-1.05.44,1.44,1.44,0,0,0-.43,1c-1,.5-1.9.91-2.53,1.16a.86.86,0,0,0-.72-.4.87.87,0,0,0-.6.24l-.13-.12-.35-.35c-.09-.12-.17-.23-.24-.34a.5.5,0,0,0-.31-.22.55.55,0,0,0-.38.07.5.5,0,0,0-.15.7A4.68,4.68,0,0,0,17.08,24c-1,2.27-1.74,3.79-2.12,4.64l-.06.15h-.8V29a3.91,3.91,0,0,0,3.78,3.82H18a3.8,3.8,0,0,0,3.72-3.83v-.12h-.84l-2.29-4.73a25.42,25.42,0,0,0,2.93-1.25,1.5,1.5,0,0,0,.64.44v10.1a2.14,2.14,0,0,0-.47.2,2.28,2.28,0,0,0-1.09,1.33h-1a.51.51,0,0,0,0,1h6.14a.51.51,0,0,0,0-1h-1a2.24,2.24,0,0,0-1.1-1.34,2.77,2.77,0,0,0-.46-.2V23.28a1.42,1.42,0,0,0,.63-.44,25.67,25.67,0,0,0,2.94,1.25l-2.3,4.73h-.84v.12a3.79,3.79,0,0,0,3.71,3.83h.07A3.91,3.91,0,0,0,31.1,29v-.13h-.79Zm-10.53.14H16c.25-.52.58-1.26.92-2s.58-1.29.87-1.92Zm5.77,0,1.92-3.95c.29.63.59,1.29.87,1.92l.92,2Z"/><path class="cls-1" d="M43.86,10.62v0L37.13,3.41l0,0H16.43a4.11,4.11,0,0,0-4.1,4.1v.75H14V7.47A2.44,2.44,0,0,1,16.43,5H35.92l0,6.17a1,1,0,0,0,.94,1h0c.38,0,3,0,5.35,0v25a2.43,2.43,0,0,1-2.43,2.43h-.58l0,1.67h.56A4.1,4.1,0,0,0,44,37.13Zm-6-.37,0-3.45L41,10.26C39.6,10.27,38.36,10.26,37.85,10.25Z"/></svg>