<svg id="Layer_1" data-name="Layer 1" xmlns="http://www.w3.org/2000/svg" viewBox="0 0 50.46 50.46"><title>defensa</title><path d="M25.2,24.7a7.5,7.5,0,0,0-7.737-6.968c-.092,0-.184.007-.276.015a7.583,7.583,0,0,0-.806.1,7.494,7.494,0,0,0-5.062,11.292l-.941,3.567,3.732-.9a7.457,7.457,0,0,0,3.881.921c.084,0,.169-.007.255-.014A7.5,7.5,0,0,0,25.2,24.7"/><path d="M40.121,27.549A22.387,22.387,0,0,0,20.172,2.956c-.39-.043-.779-.072-1.166-.092a22.25,22.25,0,0,0-2.623.021V9.963a15.409,15.409,0,0,1,2.258-.051q.281.013.564.038a15.313,15.313,0,0,1,11.6,23.471l1.8,7.319-7.592-1.974a15.124,15.124,0,0,1-7.958,1.75c-.171-.009-.346-.022-.52-.038-.052,0-.1-.011-.156-.016V47.57c.1.007.208.019.309.024A22.4,22.4,0,0,0,40.121,27.549"/></svg>