<svg id="Layer_1" data-name="Layer 1" xmlns="http://www.w3.org/2000/svg" viewBox="0 0 50.46 50.46"><defs><style>.cls-1{fill:#15b5e0;}</style></defs><title>denuncia_1</title><path class="cls-1" d="M17.58,17H30.69a.81.81,0,0,0,0-1.62H17.58a.81.81,0,1,0,0,1.62Z"/><path class="cls-1" d="M14.69,21.59h16A.81.81,0,0,0,30.87,20a.54.54,0,0,0-.18,0h-16a.79.79,0,0,0-.81.79h0A.81.81,0,0,0,14.69,21.59Z"/><path class="cls-1" d="M31.58,25.48a.81.81,0,0,0-.71-.89.54.54,0,0,0-.18,0h-16a.78.78,0,0,0-.81.79h0a.81.81,0,0,0,.81.81h16A.81.81,0,0,0,31.58,25.48Z"/><path class="cls-1" d="M48.08,38.08,39.32,23.26a2,2,0,0,0-.93-.82v-11a4.08,4.08,0,0,0-4.07-4.07H15a2.78,2.78,0,0,0-2,.87L7.82,13.7a2.77,2.77,0,0,0-.75,1.89L7,40.91a4.06,4.06,0,0,0,4.07,4H34.32a4.07,4.07,0,0,0,4-3.67h7.93a2.09,2.09,0,0,0,1.8-3.16Zm-35-27.33v3.43H9.93ZM34.32,43.32H11.06a2.41,2.41,0,0,1-2.42-2.41V16.06H14a1,1,0,0,0,.93-.94V9H34.32a2.43,2.43,0,0,1,2.42,2.41v11a2,2,0,0,0-1.06.92L27.6,38.14a2.09,2.09,0,0,0,1.84,3.1H36.7A2.42,2.42,0,0,1,34.32,43.32Zm12.39-3.93a.47.47,0,0,1-.43.25H29.44A.49.49,0,0,1,29,39.4a.5.5,0,0,1,0-.49l8.09-14.82a.48.48,0,0,1,.42-.26h0a.51.51,0,0,1,.43.24l8.76,14.82A.5.5,0,0,1,46.71,39.39Z"/><path class="cls-1" d="M38.33,27.86H36.91a.59.59,0,0,0-.57.74L37,34a.66.66,0,0,0,1.32,0l.62-5.42A.59.59,0,0,0,38.33,27.86Z"/><path class="cls-1" d="M37.62,35.61a1.21,1.21,0,0,0-1.25,1.22v0a1.25,1.25,0,0,0,2.5,0v0A1.21,1.21,0,0,0,37.62,35.61Z"/></svg>