<svg id="Layer_1" data-name="Layer 1" xmlns="http://www.w3.org/2000/svg" viewBox="0 0 50.46 50.46"><defs><style>.cls-1{fill:#15b5e0;}</style></defs><title>denuncia</title><path class="cls-1" d="M37.54,36a.74.74,0,1,0,.74.73A.73.73,0,0,0,37.54,36Z"/><path class="cls-1" d="M30.67,17.4a.8.8,0,0,0,.81-.8.82.82,0,0,0-.81-.82H17.57a.82.82,0,0,0-.81.82.8.8,0,0,0,.81.8Z"/><path class="cls-1" d="M13.86,21.13h0a.81.81,0,0,0,.81.81h16a.81.81,0,0,0,.89-.71.82.82,0,0,0-.71-.9H14.67A.81.81,0,0,0,13.86,21.13Z"/><path class="cls-1" d="M47.67,7.24l0,0-.71-.48a3,3,0,0,0-4.16.85l0,0-4.37,6.52V11.77A4.09,4.09,0,0,0,34.3,7.7H15a2.75,2.75,0,0,0-2,.88L7.81,14.07A2.77,2.77,0,0,0,7.06,16L7,41.27a4.06,4.06,0,0,0,4.07,4H34.3a4.07,4.07,0,0,0,4.07-4v-2a.83.83,0,0,0-1.65,0v2a2.42,2.42,0,0,1-2.42,2.41H11a2.41,2.41,0,0,1-2.42-2.41V16.42H14a1,1,0,0,0,.93-.94V9.36H34.3a2.43,2.43,0,0,1,2.42,2.41v4.86l-5,7.48a1.37,1.37,0,0,0-.15.38l.14,4.32-.29.43a.93.93,0,0,0,1.53,1.07v0l.3-.42,3.48-1.54v5.9a.83.83,0,1,0,1.65,0V26.36l10-14.94A3,3,0,0,0,47.67,7.24Zm-34.62,7.3H9.91l3.14-3.43ZM33.32,27.93l0-2.22,2,1.33ZM46.91,10.27a.76.76,0,0,1-.08.11L36.59,25.69l-2.53-1.75L44.29,8.66a1.11,1.11,0,0,1,1.5-.44l.09.06.71.48A1.09,1.09,0,0,1,46.91,10.27Z"/><path class="cls-1" d="M18.75,40.21a1,1,0,0,0,.75.4c.42,0,1.35.11,2.53-3.28.4,2.29.92,2.41,1.28,2.49a1.12,1.12,0,0,0,1.25-.64A5.42,5.42,0,0,0,25.05,38a2.16,2.16,0,0,0,1.43.93,1.77,1.77,0,0,0,.82-.07c1.63-.51,2.93-3.52,3.43-4.66s1.18-2.36.38-2.71-1.18.7-1.6,1.57c-.73,1.51-1.27,2.41-1.51,2.82-1.41,2.43-2.11.89-2-.29.05-.46.05-1.33.05-1.75,0-.95-.35-1.2-.79-1.2a.87.87,0,0,0-.88.74,15.09,15.09,0,0,1-.66,3.34,23.93,23.93,0,0,1-.37-4.23.84.84,0,0,0-.78-.78.87.87,0,0,0-.9.67,29.19,29.19,0,0,1-1.19,4.52c-.19-.1.13-1.67.29-2.56.65-3.85.82-5.2.23-5.85a1.05,1.05,0,0,0-.81-.34c-2.5.13-4.5,11-4.5,11.13v0a.81.81,0,0,0,.83.81c.43,0,.75-.58.94-1.13.39-1.24,1.11-4.94,2-7.38-.12.82-.27,1.74-.4,2.48C18.37,38,18.17,39.49,18.75,40.21Z"/></svg>