<?xml version="1.0" encoding="utf-8"?>
<!-- Generator: Adobe Illustrator 24.2.1, SVG Export Plug-In . SVG Version: 6.00 Build 0)  -->
<svg version="1.1" id="Layer_1" xmlns="http://www.w3.org/2000/svg" xmlns:xlink="http://www.w3.org/1999/xlink" x="0px" y="0px"
	 viewBox="0 0 50.5 50.5" style="enable-background:new 0 0 50.5 50.5;" xml:space="preserve">
<g>
	<path d="M42.073,5.142C34.091,1.782,25.591,1.73,25.229,1.73c-0.357,0-8.856,0.052-16.842,3.412
		C6.962,5.74,6.042,7.142,6.042,8.709V34.79c0,1.312,0.656,2.525,1.753,3.247l15.304,10.055c0.635,0.418,1.373,0.638,2.133,0.638
		s1.497-0.221,2.133-0.638l15.304-10.055c1.097-0.72,1.75-1.935,1.75-3.247V8.709C44.418,7.142,43.498,5.743,42.073,5.142z
		 M42.398,8.709V34.79c0,0.63-0.313,1.213-0.842,1.558L26.253,46.403c-0.621,0.409-1.425,0.409-2.049,0L8.903,36.348
		c-0.525-0.345-0.842-0.929-0.842-1.558V8.709c0-0.752,0.435-1.422,1.108-1.706C16.706,3.831,25.086,3.75,25.229,3.75
		c0.142,0,8.525,0.084,16.058,3.253C41.963,7.287,42.398,7.957,42.398,8.709z"/>
</g>
</svg>
