<svg id="Layer_1" data-name="Layer 1" xmlns="http://www.w3.org/2000/svg" viewBox="0 0 50.46 50.46"><defs><style>.cls-1{fill:none;}.cls-2{fill:#12b5e1;}</style></defs><title>derechos de autor</title><path class="cls-1" d="M24.52,27l.46-.68c.32-.48.65-1,1-1.47a3.76,3.76,0,0,0-3.16-1.57,3.6,3.6,0,0,0-3.5,2.22h0A23.3,23.3,0,0,0,24.45,27Z"/><polygon class="cls-1" points="22.51 6.2 19.52 9.18 25.5 9.18 22.51 6.2"/><path class="cls-2" d="M6.3,37.61V11.18H38.72v15h0a8.89,8.89,0,0,1,2,.23V10.18a1,1,0,0,0-1-1H26.91l-4.05-4a.51.51,0,0,0-.71,0l-4,4.05H5.3a1,1,0,0,0-1,1V38.61a1,1,0,0,0,1,1H30.64a9.3,9.3,0,0,1-.77-2ZM22.51,6.19l3,3h-6Z"/><path class="cls-2" d="M29.57,35.24H8.78v-6c.62-.76,4.22-4.94,7.71-3.71,1.07.38,1.78.67,2.39.91a23.34,23.34,0,0,0,5,1.47l-.18.22c-2.86,3.19-7.78,4.44-9.21,4.75l-.15,0a.49.49,0,0,0-.3.63.52.52,0,0,0,.49.34.41.41,0,0,0,.16,0c1.94-.41,6.78-1.74,9.75-5.06a17.64,17.64,0,0,0,1.37-1.89C27,25.16,28.43,23,30.13,23.08s2.74,1.6,3.73,3.06q.36.54.72,1a7.35,7.35,0,0,1,1-.41c-.28-.35-.56-.75-.84-1.17-1.08-1.58-2.3-3.38-4.5-3.5a4.54,4.54,0,0,0-3.55,2,4.86,4.86,0,0,0-3.81-1.75,4.62,4.62,0,0,0-4.43,2.86c-.44-.18-.94-.37-1.58-.59-3.33-1.17-6.53,1.55-8,3.14V13.55H36.23v13c.33-.09.66-.16,1-.22V12.55H7.78V36.24H29.61c0-.3-.05-.61-.05-.93C29.56,35.29,29.57,35.27,29.57,35.24Zm-10.24-9.7a3.6,3.6,0,0,1,3.5-2.22A3.76,3.76,0,0,1,26,24.89c-.36.49-.69,1-1,1.47l-.46.68-.07,0a23.3,23.3,0,0,1-5.12-1.48Z"/><path class="cls-2" d="M38.72,27.65a7.66,7.66,0,1,0,7.66,7.66A7.66,7.66,0,0,0,38.72,27.65Zm-1.34,10.2a1.76,1.76,0,0,0,1.54.73,1.89,1.89,0,0,0,1.3-.44A1.57,1.57,0,0,0,40.74,37h2.69a3.67,3.67,0,0,1-.6,2,3.85,3.85,0,0,1-1.6,1.41,5,5,0,0,1-2.26.5,4.71,4.71,0,0,1-3.64-1.46A5.81,5.81,0,0,1,34,35.37v-.19a5.77,5.77,0,0,1,1.32-4A4.67,4.67,0,0,1,39,29.73a4.51,4.51,0,0,1,3.24,1.15,4,4,0,0,1,1.24,3.06H40.74a2,2,0,0,0-.52-1.36,1.73,1.73,0,0,0-1.32-.53,1.71,1.71,0,0,0-1.51.73,4.27,4.27,0,0,0-.51,2.38v.3A4.3,4.3,0,0,0,37.38,37.85Z"/></svg>