<svg id="Layer_1" data-name="Layer 1" xmlns="http://www.w3.org/2000/svg" viewBox="0 0 50.46 50.46"><defs><style>.cls-1{fill:#65b4e1;}</style></defs><title>derrumbes</title><path class="cls-1" d="M38.47,33.86a1.1,1.1,0,0,0-.87-.5l-3.1-.15,1-7a1.1,1.1,0,0,0-.32-.93A1.12,1.12,0,0,0,34.2,25L31,25.47l.72-6.6a1.1,1.1,0,0,0-.18-.74l-3.34-4.93a1.1,1.1,0,0,0-.88-.48,1.16,1.16,0,0,0-.91.43l-1.52,2L23.36,7.94a1.1,1.1,0,0,0-.94-.86,1.08,1.08,0,0,0-1.12.61C4.16,43.26,4.16,43.26,4.16,43.52a1.1,1.1,0,0,0,1.1,1.1H43.48a1.1,1.1,0,0,0,.92-1.7ZM7,42.42,21.88,11.55l1.35,6.36a1.1,1.1,0,0,0,1.95.44l2-2.65L29.48,19l-.83,7.61a1.1,1.1,0,0,0,.33.91,1.12,1.12,0,0,0,.92.3l3.17-.46-.92,6.72a1.1,1.1,0,0,0,1,1.25l3.74.17,4.51,6.89Z"/><path class="cls-1" d="M30,11.53a.75.75,0,0,0,.05.73l2,3.05a.75.75,0,0,0,.63.34h.1a.75.75,0,0,0,.61-.52l1.05-3.43a.75.75,0,0,0-.81-1l-3,.38A.75.75,0,0,0,30,11.53Zm2.67.82-.24.79L32,12.44Z"/><path class="cls-1" d="M35.48,21.55h7.16a.75.75,0,0,0,.75-.78l-.13-3.43a.75.75,0,0,0-.25-.53.76.76,0,0,0-.55-.19l-2.3.16-.2-2.9a.75.75,0,0,0-1.07-.62l-2.25,1.08a.75.75,0,0,0-.4.49l-1.48,5.79a.75.75,0,0,0,.73.94Zm2.12-6,.94-.45.17,2.54a.75.75,0,0,0,.26.51.76.76,0,0,0,.54.18l2.28-.16.07,1.88H36.44Z"/><path class="cls-1" d="M42.22,25l-3.62.16a.75.75,0,0,0-.71.63l-.66,4a.75.75,0,0,0,.74.87h.14l4.37-.84a.75.75,0,0,0,.61-.76L43,25.75a.75.75,0,0,0-.24-.53A.69.69,0,0,0,42.22,25Zm-3.33,4,.39-2.36,2.25-.1.05,1.94Z"/><path class="cls-1" d="M44.41,32.65c-.06,0-.21,0-3.19.42a.75.75,0,0,0-.49,1.2l2.16,2.8a.75.75,0,0,0,.59.29h.14a.75.75,0,0,0,.58-.53l.92-3.22a.75.75,0,0,0-.71-1ZM43.17,35l-.47-.6.66-.09Z"/><circle class="cls-1" cx="43.04" cy="12.88" r="1.36"/><circle class="cls-1" cx="46.64" cy="26.31" r="0.88"/><circle class="cls-1" cx="29.49" cy="7.83" r="0.95"/><circle class="cls-1" cx="28.01" cy="4.9" r="0.53"/><circle class="cls-1" cx="47.43" cy="39.4" r="0.53"/></svg>