<svg id="Layer_1" data-name="Layer 1" xmlns="http://www.w3.org/2000/svg" viewBox="0 0 50.46 50.46"><defs><style>.cls-1{fill:none;}.cls-2{fill:#65b4e1;}</style></defs><title>desarrollo</title><path class="cls-1" d="M24.31,33a3.4,3.4,0,0,0,.85.48v-.77C24.89,32.75,24.56,32.85,24.31,33Z"/><path class="cls-2" d="M23.63,15.73H19V28.24a34.49,34.49,0,0,0,4.63-1.07Z"/><path class="cls-2" d="M27.14,24.77a5.25,5.25,0,0,0,.49-1.36,12.32,12.32,0,0,1,1.16.78,4.74,4.74,0,0,1,1,1V12.49H25.16V26.56A4.49,4.49,0,0,0,27.14,24.77Z"/><path class="cls-2" d="M25.16,32.66h0v.77a7.12,7.12,0,0,0,2.66.48,8.73,8.73,0,0,0,2-.23v-4l-.13.19A8.25,8.25,0,0,1,25.16,32.66Z"/><path class="cls-2" d="M35.94,29.06V8.63H31.31V33.17a8.5,8.5,0,0,0,1-.53A9.59,9.59,0,0,0,35.94,29.06Z"/><path class="cls-2" d="M10,36.9c.92-3.31,3.77-6.47,8.78-7.32s8.63-1.93,9.4-4.31a3,3,0,0,1,.39,3.85c-1.77,2.46-5.52,2.18-5.78,3.47-.4,2,5.38,4.09,10.17,1.16,6.39-3.93,4.16-8.4,6.86-9.17h1.08s.39,10.94-8.78,15.56c-6.46,3.26-15.79-1.69-22.44,1.69C9.71,41.83,9.12,40.21,10,36.9Z"/></svg>