<svg id="Layer_1" data-name="Layer 1" xmlns="http://www.w3.org/2000/svg" viewBox="0 0 50.46 50.46"><defs><style>.cls-1{fill:#65b4e1;}</style></defs><title>desierto</title><path class="cls-1" d="M47,36.95a.8.8,0,0,0-1-.49c-.1,0-9.79,3.27-21-6.2C13.59,20.6,4.22,25.8,3.82,26a.8.8,0,0,0,.79,1.39c.36-.2,8.84-4.84,19.35,4.07,7,5.92,13.38,7.18,17.56,7.18a15.92,15.92,0,0,0,5-.69A.8.8,0,0,0,47,36.95Z"/><path class="cls-1" d="M40.88,40.05h-.1a.7.7,0,1,0,0,1.4h.1a.7.7,0,1,0,0-1.4Z"/><path class="cls-1" d="M28.12,30a.8.8,0,0,0,1.08.35c11.21-5.73,16.75-4.15,16.8-4.13a.8.8,0,1,0,.49-1.52c-.24-.08-6.13-1.85-18,4.23A.8.8,0,0,0,28.12,30Z"/><path class="cls-1" d="M36.4,41.12l-.78,0,0,.69a.71.71,0,0,0,.79.67h0l.83-.07,0-.69A.73.73,0,0,0,36.4,41.12Z"/><path class="cls-1" d="M10.44,27.25l-.78,0,0,.69a.71.71,0,0,0,.79.67h0l.83-.07,0-.69A.74.74,0,0,0,10.44,27.25Z"/><path class="cls-1" d="M12.17,31.45l-.78,0,0,.69a.71.71,0,0,0,.79.67h0l.83-.07,0-.69A.73.73,0,0,0,12.17,31.45Z"/><path class="cls-1" d="M8.84,33.35l-.78,0,0,.69a.71.71,0,0,0,.79.67h0l.83-.08,0-.69A.73.73,0,0,0,8.84,33.35Z"/><path class="cls-1" d="M6.73,29.28l-.78,0L6,30a.71.71,0,0,0,.79.67h0l.83-.08,0-.69A.74.74,0,0,0,6.73,29.28Z"/><path class="cls-1" d="M15.09,28.62l-.78,0,0,.69a.71.71,0,0,0,.79.67h0l.83-.07,0-.69C15.94,29.19,15.88,28.59,15.09,28.62Z"/><path class="cls-1" d="M19.25,31.88l-.78,0,0,.69a.71.71,0,0,0,.8.67h0l.83-.08,0-.69A.7.7,0,0,0,19.25,31.88Z"/><path class="cls-1" d="M23,34.94l-.78,0,0,.69a.71.71,0,0,0,.79.67h0l.83-.07,0-.69A.73.73,0,0,0,23,34.94Z"/><path class="cls-1" d="M44,27.6l0,.7,1.53.08,0-.69-.07-.7-.69,0C44.05,26.93,44,27.53,44,27.6Z"/><path class="cls-1" d="M38.91,28.55l0,.7,1.53.08,0-.69-.07-.7-.69,0A.74.74,0,0,0,38.91,28.55Z"/><path class="cls-1" d="M35.75,31.49l0,.7,1.53.08,0-.69-.07-.7-.69,0A.73.73,0,0,0,35.75,31.49Z"/><path class="cls-1" d="M25.23,21.39a6.73,6.73,0,1,0-6.73-6.73A6.74,6.74,0,0,0,25.23,21.39Zm0-11.86a5.13,5.13,0,1,1-5.13,5.13A5.14,5.14,0,0,1,25.23,9.53Z"/></svg>