<?xml version="1.0" encoding="utf-8"?>
<!-- Generator: Adobe Illustrator 24.0.1, SVG Export Plug-In . SVG Version: 6.00 Build 0)  -->
<!DOCTYPE svg PUBLIC "-//W3C//DTD SVG 1.1//EN" "http://www.w3.org/Graphics/SVG/1.1/DTD/svg11.dtd" [
	<!ENTITY ns_extend "http://ns.adobe.com/Extensibility/1.0/">
	<!ENTITY ns_ai "http://ns.adobe.com/AdobeIllustrator/10.0/">
	<!ENTITY ns_graphs "http://ns.adobe.com/Graphs/1.0/">
	<!ENTITY ns_vars "http://ns.adobe.com/Variables/1.0/">
	<!ENTITY ns_imrep "http://ns.adobe.com/ImageReplacement/1.0/">
	<!ENTITY ns_sfw "http://ns.adobe.com/SaveForWeb/1.0/">
	<!ENTITY ns_custom "http://ns.adobe.com/GenericCustomNamespace/1.0/">
	<!ENTITY ns_adobe_xpath "http://ns.adobe.com/XPath/1.0/">
]>
<svg version="1.1" id="Capa_1" xmlns:x="&ns_extend;" xmlns:i="&ns_ai;" xmlns:graph="&ns_graphs;"
	 xmlns="http://www.w3.org/2000/svg" xmlns:xlink="http://www.w3.org/1999/xlink" x="0px" y="0px" viewBox="0 0 50.46 50.46"
	 enable-background="new 0 0 50.46 50.46" xml:space="preserve">
<metadata>
	<sfw  xmlns="&ns_sfw;">
		<slices></slices>
		<sliceSourceBounds  bottomLeftOrigin="true" height="40.94" width="40.938" x="4.761" y="-45.7"></sliceSourceBounds>
	</sfw>
</metadata>
<g>
	<path d="M45.69,28.557c-0.008-1.758-0.051-3.516-0.116-5.273c-0.057-1.533-0.432-3.013-0.902-4.464
		c-0.545-1.683-1.323-3.258-2.287-4.743c-1.564-2.409-3.549-4.398-5.949-5.972c-1.826-1.198-3.792-2.079-5.909-2.645
		c-1.341-0.358-2.699-0.585-4.077-0.665c-2.21-0.128-4.387,0.09-6.529,0.683c-1.227,0.339-2.414,0.774-3.553,1.332
		c-1.75,0.857-3.343,1.946-4.786,3.26c-2.456,2.237-4.264,4.911-5.458,8.004c-0.785,2.035-1.235,4.152-1.318,6.325
		c-0.03,0.794-0.038,1.588-0.037,2.379H4.761v6.875h0.01c0.002,2.115-0.006,4.231,0.024,6.345c0.008,0.553,0.177,1.15,0.433,1.643
		c0.747,1.442,1.994,2.128,3.613,2.13c3.465,0.003,6.93,0.001,10.395,0.002c0.148,0,0.296,0.013,0.479,0.022
		c-0.062,0.179-0.112,0.312-0.154,0.447C19.326,45,19.348,45.713,20.559,45.7c3.155-0.035,6.31-0.011,9.465-0.012
		c0.825,0,1.128-0.367,0.959-1.172c-0.05-0.24-0.138-0.472-0.219-0.744c0.185,0,0.363-0.001,0.536-0.002v0.003h0.66
		c0.037,0.001,0.074,0.002,0.111,0.003c0.043,0.001,0.082,0,0.118-0.003h1.49c0.032,0.003,0.065,0.005,0.099,0.005
		c2.657-0.011,5.314,0.007,7.971-0.018c0.487-0.005,1.001-0.093,1.454-0.269c1.576-0.611,2.488-2.008,2.489-3.708
		C45.695,36.041,45.707,32.299,45.69,28.557z M21.099,44.273c0.213-0.336,0.462-0.473,0.898-0.495
		c1.02-0.052,1.842-0.468,2.317-1.39c0.185-0.359,0.29-0.791,0.313-1.196c0.047-0.826,0.014-1.656,0.014-2.509
		c0.391,0,0.76,0,1.16,0c0.006,0.107,0.018,0.214,0.018,0.32c0.002,0.641,0.001,1.283,0.001,1.924
		c0.001,1.675,1.022,2.763,2.689,2.849c0.37,0.019,0.644,0.172,0.906,0.498C26.614,44.273,23.861,44.273,21.099,44.273z
		 M32.911,24.587c-0.309-2.914-1.792-5.054-4.448-6.348c-1.266-0.616-2.612-0.848-3.995-0.684c-2.686,0.32-4.708,1.681-6.022,4.055
		c-0.673,1.216-0.967,2.536-0.905,3.919c0.056,1.251,0.376,2.44,1.035,3.518c0.125,0.205,0.125,0.379,0.03,0.585
		c-0.548,1.191-1.098,2.38-1.628,3.579c-0.085,0.193-0.071,0.429-0.101,0.637c-0.638-0.338-2.378-2.615-3.083-4.763
		c-0.62-1.891-0.796-3.822-0.484-5.76c0.894-5.563,5.371-9.573,10.652-10.107c6.076-0.614,10.687,3.128,12.41,7.311
		c1.141,2.77,1.247,5.603,0.337,8.453c-0.597,1.87-1.613,3.496-2.989,4.821c-0.279-0.662-0.532-1.29-0.807-1.907
		c-0.35-0.784-0.726-1.556-1.07-2.342c-0.052-0.118-0.037-0.315,0.029-0.427C32.698,27.721,33.082,26.195,32.911,24.587z
		 M20.115,29.587c0.301-0.661,0.601-1.322,0.902-1.983c0.292-0.64,0.796-1.023,1.49-1.034c1.814-0.028,3.628-0.028,5.442-0.003
		c0.842,0.012,1.316,0.559,1.64,1.285c0.717,1.607,1.45,3.207,2.175,4.811c0.012,0.028,0.007,0.063,0.014,0.129
		c-4.377,0-8.729,0-13.122,0C19.153,31.702,19.634,30.644,20.115,29.587z M21.088,20.431c2.424-2.067,5.864-2.071,8.251-0.042
		c2.312,1.965,2.742,5.135,1.688,7.324c-0.177-0.363-0.31-0.73-0.519-1.046c-0.656-0.993-1.597-1.489-2.79-1.491
		c-1.66-0.003-3.321-0.017-4.981,0.005c-1.505,0.02-2.535,0.762-3.101,2.154c-0.045,0.11-0.106,0.212-0.185,0.367
		C18.399,25.519,18.833,22.355,21.088,20.431z M18.264,34.223c0.163-0.007,0.283-0.017,0.402-0.017
		c4.371-0.001,8.742,0.003,13.113-0.007c0.325-0.001,0.448,0.07,0.429,0.419c-0.031,0.574-0.005,1.15-0.01,1.726
		c-0.005,0.575-0.348,0.918-0.929,0.932c-0.321,0.008-0.642,0.002-0.963,0.002c-3.629,0-7.259-0.013-10.888,0.011
		c-0.736,0.005-1.209-0.381-1.161-1.163C18.294,35.509,18.264,34.889,18.264,34.223z M42.433,42.315
		c-0.23,0.062-0.481,0.062-0.722,0.063c-1.178,0.003-2.357,0.004-3.535,0.006v-0.009h-3.58c-0.04-0.014-0.081-0.015-0.124,0h-3.024
		c-0.985-0.004-1.971-0.005-2.956,0.015c-0.697,0.014-1.31-0.558-1.288-1.247c0.024-0.741,0.013-1.484-0.001-2.225
		c-0.005-0.247,0.101-0.295,0.317-0.293c1.229,0.006,2.46-0.04,3.686,0.014c1.384,0.06,2.436-1.114,2.372-2.405
		c-0.018-0.358,0.106-0.584,0.377-0.81c1.686-1.415,2.934-3.16,3.754-5.198c0.504-1.253,0.797-2.556,0.916-3.914
		c0.091-1.049,0.05-2.081-0.105-3.107c-0.428-2.829-1.653-5.274-3.64-7.336c-1.447-1.501-3.147-2.631-5.117-3.292
		c-1.059-0.355-2.172-0.6-3.28-0.747c-1.284-0.17-2.574-0.043-3.858,0.214c-2.853,0.571-5.252,1.929-7.231,4.037
		c-1.226,1.306-2.138,2.81-2.764,4.499c-0.545,1.47-0.827,2.98-0.822,4.536c0.012,4.249,1.679,7.74,4.912,10.484
		c0.204,0.173,0.19,0.36,0.181,0.562c-0.033,0.736,0.189,1.371,0.732,1.877c0.392,0.365,0.845,0.588,1.398,0.586
		c1.273-0.004,2.547,0.012,3.82-0.003c0.325-0.004,0.453,0.072,0.438,0.422c-0.027,0.663-0.021,1.329-0.006,1.993
		c0.019,0.85-0.613,1.36-1.361,1.356c-4.395-0.022-8.791-0.023-13.187-0.003c-1.497,0.007-2.604-1.096-2.611-2.647
		c-0.009-2.029-0.008-4.058-0.008-6.087h0v-5.64c0.038-1.337,0.043-2.675,0.105-4.01c0.088-1.888,0.526-3.707,1.197-5.471
		c1.226-3.222,3.174-5.926,5.836-8.114c1.508-1.239,3.17-2.217,4.983-2.946c1.317-0.529,2.676-0.912,4.071-1.125
		c1.71-0.261,3.431-0.309,5.159-0.091c1.886,0.238,3.705,0.71,5.44,1.474c2.385,1.05,4.501,2.507,6.25,4.444
		c0.8,0.886,1.505,1.864,2.201,2.838c1.089,1.524,1.732,3.259,2.25,5.042c0.508,1.752,0.728,3.547,0.73,5.368
		c0.004,4.75-0.004,9.5,0.005,14.25C44.349,40.971,43.651,41.988,42.433,42.315z"/>
	<path d="M29.269,7.504c-1.307-0.444-2.65-0.668-4.058-0.653c-1.195-0.016-2.391,0.168-3.563,0.509
		c-0.158,0.046-0.315,0.096-0.469,0.155c-0.288,0.11-0.515,0.453-0.446,0.736c0.222,0.909,0.456,1.816,0.704,2.719
		c0.079,0.287,0.44,0.477,0.712,0.413c0.257-0.06,0.508-0.162,0.767-0.197c0.816-0.111,1.639-0.297,2.453-0.272
		c0.917,0.029,1.83,0.238,2.739,0.404c0.599,0.11,0.881-0.032,1.033-0.628c0.198-0.778,0.392-1.558,0.584-2.338
		C29.816,7.982,29.62,7.624,29.269,7.504z M27.929,9.857c-1.807-0.44-3.566-0.444-5.375,0c-0.098-0.367-0.21-0.731-0.28-1.103
		c-0.011-0.058,0.158-0.197,0.262-0.223c1.468-0.358,2.955-0.39,4.448-0.202c0.328,0.041,0.654,0.113,0.97,0.208
		c0.101,0.03,0.245,0.196,0.232,0.277C28.131,9.157,28.024,9.493,27.929,9.857z"/>
	<path d="M9.304,37.288c-1.107-0.008-1.963,0.897-1.965,1.948c-0.002,1.081,0.868,1.962,1.947,1.964
		c1.074,0.002,1.981-0.878,1.973-1.947C11.25,38.191,10.419,37.296,9.304,37.288z M9.289,39.835
		c-0.321-0.001-0.586-0.262-0.589-0.579c-0.003-0.328,0.285-0.609,0.612-0.596c0.33,0.013,0.567,0.266,0.562,0.603
		C9.87,39.592,9.621,39.836,9.289,39.835z"/>
	<path d="M42.461,37.769c-0.202-0.177-0.441-0.313-0.708-0.394c-0.248-0.086-0.504-0.118-0.769-0.078
		c-0.663,0.061-1.217,0.453-1.519,0.995c-0.015-0.006-0.031-0.011-0.047-0.015c0.008,0.022,0.015,0.043,0.021,0.063
		c-0.142,0.271-0.222,0.577-0.222,0.896c0,0.073,0.004,0.144,0.011,0.215c0.002,0.042,0.009,0.085,0.018,0.129
		c0.128,0.733,0.66,1.326,1.359,1.537c0.013,0.004,0.026,0.009,0.04,0.014c0.891,0.275,1.942-0.208,2.305-1.037
		c0.023-0.052,0.043-0.105,0.062-0.158c0.077-0.201,0.12-0.417,0.123-0.643c0-0.005,0-0.009,0-0.013c0-0.009,0.001-0.017,0-0.026
		c0-0.002,0-0.004,0-0.005C43.142,38.677,42.907,38.139,42.461,37.769z M41.176,39.834c-0.01,0-0.02,0-0.03-0.001
		c-0.006,0-0.012-0.001-0.018-0.001c-0.303-0.027-0.543-0.284-0.539-0.594c0.004-0.311,0.282-0.581,0.596-0.578
		c0.009,0,0.017,0.001,0.026,0.001c0.319,0.023,0.546,0.272,0.541,0.601C41.748,39.589,41.503,39.832,41.176,39.834z"/>
	<path d="M42.407,35.39c-0.817-0.004-1.634-0.004-2.45,0c-0.422,0.002-0.714,0.268-0.727,0.648
		c-0.013,0.393,0.282,0.693,0.713,0.703c0.408,0.01,0.817,0.002,1.225,0.002c0.419,0,0.839,0.008,1.258-0.002
		c0.399-0.009,0.715-0.314,0.719-0.673C43.15,35.688,42.834,35.392,42.407,35.39z"/>
	<path d="M7.964,36.733c0.883,0.018,1.766,0.016,2.649,0.001c0.35-0.006,0.645-0.345,0.644-0.677
		c-0.002-0.353-0.308-0.66-0.682-0.667c-0.419-0.008-0.839-0.002-1.258-0.002c-0.43,0-0.861-0.005-1.291,0.002
		c-0.392,0.006-0.677,0.286-0.685,0.656C7.333,36.402,7.599,36.726,7.964,36.733z"/>
	<path d="M42.445,33.468c-0.839-0.01-1.678-0.01-2.517,0c-0.413,0.005-0.702,0.302-0.698,0.682c0.004,0.384,0.294,0.665,0.708,0.672
		c0.408,0.007,0.817,0.001,1.225,0.001c0.419,0,0.839,0.005,1.259-0.001c0.401-0.006,0.716-0.3,0.724-0.664
		C43.154,33.801,42.835,33.472,42.445,33.468z"/>
	<path d="M8.037,34.821c0.42,0.007,0.839,0.001,1.259,0.002c0.398,0,0.795,0,1.193,0c0.022,0,0.044,0,0.066-0.001
		c0.392-0.015,0.708-0.325,0.702-0.688c-0.006-0.344-0.317-0.662-0.69-0.666c-0.85-0.01-1.701-0.011-2.551,0
		c-0.405,0.006-0.688,0.32-0.675,0.704C7.353,34.542,7.64,34.815,8.037,34.821z"/>
</g>
</svg>
