<?xml version="1.0" encoding="utf-8"?>
<!-- Generator: Adobe Illustrator 22.1.0, SVG Export Plug-In . SVG Version: 6.00 Build 0)  -->
<svg version="1.1" id="Layer_1" xmlns="http://www.w3.org/2000/svg" xmlns:xlink="http://www.w3.org/1999/xlink" x="0px" y="0px"
	 viewBox="0 0 50.5 50.5" style="enable-background:new 0 0 50.5 50.5;" xml:space="preserve">
<style type="text/css">
	.st0{fill:#12B5E1;}
</style>
<title>dialogo 2</title>
<g>
	<path class="st0" d="M48.7,20.8c0-6.6-7.4-11.9-16.4-11.9c-9.2,0-16.4,5.2-16.4,11.9c0,6.6,7.4,11.9,16.4,11.9h1.3
		c2,1.3,4.4,2.1,6.9,2.3c0,0,0.1,0,0.1,0c0.8,0,1.5-0.5,1.7-1.2c0.3-0.8,0-1.6-0.7-2.1c-0.3-0.2-0.5-0.5-0.5-0.8
		C45.8,28.7,48.7,25,48.7,20.8z M39.9,29.4c-0.4,0.2-0.7,0.6-0.7,1c-0.1,1.1,0.5,2.1,1.4,2.8c-2.1-0.1-4.2-0.8-6-2
		c-0.2-0.2-0.5-0.3-0.8-0.3c0,0-0.1,0-0.1,0c-0.4,0-0.9,0-1.4,0c-8.1,0-14.6-4.6-14.6-10.1c0-5.6,6.5-10.1,14.6-10.1
		s14.6,4.6,14.6,10.1C46.9,24.3,44.3,27.5,39.9,29.4z"/>
	<path class="st0" d="M29.8,36c-10.2-1.2-18-7.7-18-15.6c0-0.5,0-1,0.1-1.6c0-0.1,0-0.2,0-0.3c-0.1-0.4-0.5-0.6-0.9-0.4
		c-5.6,2-9.3,6.1-9.3,10.8c0,3.9,2.5,7.4,6.8,9.7c0.1,0,0.2,0.1,0.2,0.2c0.2,0.3,0.2,0.7-0.1,1c-1.2,0.8-2.4,1.5-3.7,2
		c0,0-0.6,0.2-0.6,0.8c0,0.4,0.4,0.6,0.8,0.7c1,0.1,1.4,0.1,2.6,0.1c3.3,0,6.4-0.7,9.1-2.4h1.4c4.3,0.1,8.4-1.2,11.9-3.7
		c0.1-0.1,0.2-0.3,0.3-0.5C30.5,36.4,30.2,36,29.8,36z"/>
	<path class="st0" d="M27.3,19.3c-1,0-1.8,0.8-1.8,1.8c0,1,0.8,1.8,1.8,1.8c1,0,1.8-0.8,1.8-1.8C29.1,20,28.3,19.3,27.3,19.3z"/>
	<path class="st0" d="M32.3,19.3c-1,0-1.8,0.8-1.8,1.8c0,1,0.8,1.8,1.8,1.8c1,0,1.8-0.8,1.8-1.8C34,20,33.2,19.3,32.3,19.3z"/>
	<path class="st0" d="M37.2,19.3c-1,0-1.8,0.8-1.8,1.8c0,1,0.8,1.8,1.8,1.8c1,0,1.8-0.8,1.8-1.8C39,20,38.2,19.3,37.2,19.3z"/>
</g>
</svg>
