<svg id="Layer_1" data-name="Layer 1" xmlns="http://www.w3.org/2000/svg" viewBox="0 0 50.46 50.46"><defs><style>.cls-1{fill:#65b4e1;}</style></defs><title>dialogo 2</title><path class="cls-1" d="M31,30.81l-.84,0c-6.83,0-12.38-4.1-12.38-9.13s5.55-9.13,12.38-9.13,12.38,4.1,12.38,9.13c0,3-2,5.77-5.27,7.47a11.81,11.81,0,0,0,2.66,1.5.91.91,0,0,1-.26,1.74c-.69.07-1.33.1-1.93.1A12.08,12.08,0,0,1,31,30.81ZM19.56,21.7c0,4,4.74,7.32,10.57,7.32.35,0,.7,0,1,0a.93.93,0,0,1,.65.21,8.7,8.7,0,0,0,4.32,1.43,2.27,2.27,0,0,1-1-2,.91.91,0,0,1,.54-.72c3.16-1.36,5.05-3.68,5.05-6.22,0-4-4.74-7.32-10.57-7.32S19.56,17.66,19.56,21.7Z"/><path class="cls-1" d="M10.31,36.83A12.57,12.57,0,0,0,13,35.37a.5.5,0,0,0-.1-.84c-3.09-1.64-4.9-4.21-4.9-7,0-3.38,2.64-6.39,6.7-7.83a.5.5,0,0,1,.65.55,7.83,7.83,0,0,0-.08,1.13c0,5.72,5.66,10.45,13.06,11.31a.51.51,0,0,1,.24.91,14.44,14.44,0,0,1-8.6,2.67l-1,0a11.35,11.35,0,0,1-6.61,1.71c-.59,0-1.23,0-1.91-.1a.5.5,0,0,1-.14-1Z"/><circle class="cls-1" cx="26.5" cy="21.85" r="1.27"/><circle class="cls-1" cx="30.08" cy="21.85" r="1.27"/><circle class="cls-1" cx="33.66" cy="21.85" r="1.27"/></svg>