<svg id="Layer_1" data-name="Layer 1" xmlns="http://www.w3.org/2000/svg" viewBox="0 0 50.46 50.46"><defs><style>.cls-1{fill:#65b4e1;}</style></defs><title>dialogo</title><path class="cls-1" d="M11,33.53c-.69,0-1.42,0-2.21-.11a1,1,0,0,1-.3-2,13.46,13.46,0,0,0,3-1.71c-3.78-1.94-6-5.07-6-8.52,0-5.74,6.33-10.41,14.11-10.41S33.76,15.47,33.76,21.2,27.43,31.61,19.65,31.61l-1,0A13.77,13.77,0,0,1,11,33.53Zm8.64-20.66c-6.64,0-12,3.74-12,8.34,0,2.9,2.15,5.55,5.76,7.09a1,1,0,0,1,.62.82,2.58,2.58,0,0,1-1.19,2.25,9.91,9.91,0,0,0,4.92-1.63,1.06,1.06,0,0,1,.74-.24c.39,0,.79,0,1.2,0,6.64,0,12-3.74,12-8.34S26.29,12.86,19.65,12.86Z"/><path class="cls-1" d="M42.23,38.45a14.32,14.32,0,0,1-3-1.67.58.58,0,0,1,.11-1c3.52-1.87,5.59-4.8,5.59-8,0-3.85-3-7.28-7.64-8.93a.57.57,0,0,0-.75.62,8.92,8.92,0,0,1,.1,1.28c0,6.52-6.45,11.91-14.89,12.89a.58.58,0,0,0-.27,1,16.46,16.46,0,0,0,9.8,3c.37,0,.73,0,1.09,0,.68.49,3.09,2,7.53,2,.68,0,1.4,0,2.18-.11a.57.57,0,0,0,.16-1.1Z"/></svg>