<?xml version="1.0" encoding="utf-8"?>
<!-- Generator: Adobe Illustrator 22.1.0, SVG Export Plug-In . SVG Version: 6.00 Build 0)  -->
<svg version="1.1" id="Layer_1" xmlns="http://www.w3.org/2000/svg" xmlns:xlink="http://www.w3.org/1999/xlink" x="0px" y="0px"
	 viewBox="0 0 50.5 50.5" style="enable-background:new 0 0 50.5 50.5;" xml:space="preserve">
<style type="text/css">
	.st0{fill:#12B5E1;}
</style>
<title>chat crecer</title>
<path class="st0" d="M25.2,1.9C12.8,1.9,2.7,12,2.7,24.4c0,6,2.4,11.7,6.6,16c0.1,0.2,0.3,0.3,0.4,0.5v4.9c0,1.6,1.3,2.8,2.8,2.8
	c0.6,0,1.1-0.1,1.5-0.4l3.9-2.4c1,0.3,2,0.6,3.2,0.8l0.2,0c1.3,0.2,2.6,0.4,3.8,0.4c12.4,0,22.5-10.1,22.5-22.5
	C47.8,12,37.7,1.9,25.2,1.9z M25.2,44.7c-1.4,0-2.6-0.1-3.7-0.4c-1.4-0.2-2.6-0.6-3.8-1c-0.1,0-0.2,0-0.2,0l-4.8,3c0,0-0.2,0-0.3,0
	c-0.3,0-0.6-0.3-0.6-0.6V40c0-0.1,0-0.2-0.1-0.2c-0.3-0.2-0.6-0.6-0.7-0.8c0-0.1,0-0.1-0.1-0.1c-4-3.9-6.1-9-6.1-14.5
	C5,13.3,14.1,4.1,25.2,4.1c11.2,0,20.2,9.1,20.2,20.2C45.5,35.6,36.4,44.7,25.2,44.7z"/>
<path class="st0" d="M31.8,15.5c-4.4,0-6,5.4-6,5.5l0,0c0,0-1.6-5.5-6-5.5c-3.9,0-6,2.4-6,6.6c0,1.8,1.2,4.1,1.2,4.1
	c2.8,5.3,10.8,10.7,10.8,10.7s8-5.3,10.8-10.7c0,0,1.2-2.3,1.2-4.1C37.8,17.9,35.6,15.5,31.8,15.5z"/>
</svg>
