<svg id="Layer_1" data-name="Layer 1" xmlns="http://www.w3.org/2000/svg" viewBox="0 0 50.46 50.46"><defs><style>.cls-1{fill:#65b4e1;}</style></defs><title>digital</title><path class="cls-1" d="M32.79,45.46H23.43a1,1,0,1,0,0,2h9.37a1,1,0,1,0,0-2Z"/><path class="cls-1" d="M29.7,15.69a.44.44,0,0,0,.58-.22,5.05,5.05,0,1,0-9.24,0,.44.44,0,1,0,.8-.35,4.18,4.18,0,1,1,7.64,0A.44.44,0,0,0,29.7,15.69Z"/><path class="cls-1" d="M19.57,21.87a.94.94,0,0,0,1.09-1.52,8.56,8.56,0,1,1,10,0,.94.94,0,1,0,1.1,1.52,10.43,10.43,0,1,0-12.2,0Z"/><path class="cls-1" d="M35.63,30.25c-1.3-5-7.89-5.73-7.91-6.07-.12-1.89-.34-7.15-.39-9.62,0-.66-1.39-.6-2-.3-2.09,1-1.6,3.17-1.95,7.51-.33,4.15.21,8.58-2.3,8.4-1.12-.08-1.21-2.85-3.41-4.23a2.88,2.88,0,0,0-2.79,0,.93.93,0,0,0-.23,1.55,11.15,11.15,0,0,1,3.49,6.06C18.82,36.3,21,37.3,22.4,40.2a7.65,7.65,0,0,1,.47,2.41.91.91,0,0,0,.89.91s2.54,0,4.08,0H28c1.53,0,4.6,0,4.6,0a.94.94,0,0,0,.89-.91,18.48,18.48,0,0,1,.75-3.13l0-.06h0C35.49,35.53,36.28,32.73,35.63,30.25Z"/></svg>