<svg id="Layer_1" data-name="Layer 1" xmlns="http://www.w3.org/2000/svg" viewBox="0 0 50.46 50.46"><defs><style>.cls-1{fill:#a7a9ac;}</style></defs><title>diploma</title><path class="cls-1" d="M12.4,14.35H38.06a.89.89,0,0,0,0-1.78H12.4a.89.89,0,1,0,0,1.78Z"/><path class="cls-1" d="M12.4,18.61H38.06a.89.89,0,0,0,0-1.78H12.4a.89.89,0,1,0,0,1.78Z"/><path class="cls-1" d="M43.18,6.63H7.28A2.56,2.56,0,0,0,4.72,9.19V34.75a2.56,2.56,0,0,0,2.56,2.56H18.14V35.52H7.28a.78.78,0,0,1-.78-.77V9.19a.78.78,0,0,1,.78-.77h35.9a.78.78,0,0,1,.78.77V34.75a.78.78,0,0,1-.78.77H32.33v1.79H43.18a2.56,2.56,0,0,0,2.56-2.56V9.19A2.56,2.56,0,0,0,43.18,6.63Z"/><path class="cls-1" d="M32.49,29.77a1.47,1.47,0,0,0,0-2.73,1.44,1.44,0,0,1-.58-1.8A1.47,1.47,0,0,0,30.3,23a1.45,1.45,0,0,1-1.53-1.11A1.45,1.45,0,0,0,26.23,21a1.58,1.58,0,0,1-1.31.34,1.31,1.31,0,0,1-.64-.3,1.46,1.46,0,0,0-2.59.85A1.46,1.46,0,0,1,20.16,23a1.47,1.47,0,0,0-1.61,2.21A1.44,1.44,0,0,1,18,27a1.47,1.47,0,0,0,0,2.73,1.43,1.43,0,0,1,.58,1.8,1.6,1.6,0,0,0,.05,1.63,1.49,1.49,0,0,0,1.07.58V42.2a1.58,1.58,0,0,0,.84,1.41,1.6,1.6,0,0,0,1.65-.08l3-2.06a.09.09,0,0,1,.1,0l3,2.07a1.56,1.56,0,0,0,.91.29,1.72,1.72,0,0,0,.74-.18,1.6,1.6,0,0,0,.86-1.42l0-8.47a1.46,1.46,0,0,0,1.05-.56l0,0a1.61,1.61,0,0,0,0-1.61A1.43,1.43,0,0,1,32.49,29.77ZM29.27,42.23a.09.09,0,0,1-.05.08.09.09,0,0,1-.09,0l-3-2.07a1.61,1.61,0,0,0-1.81,0l-3,2.05a.07.07,0,0,1-.09,0,.08.08,0,0,1,0-.08V34.09a1.4,1.4,0,0,1,.51.79,1.45,1.45,0,0,0,2.54.88,1.42,1.42,0,0,1,1-.4,1.39,1.39,0,0,1,1,.36.08.08,0,0,0,0,0,1.57,1.57,0,0,0,1.52.42,1.6,1.6,0,0,0,1-1.3,1.36,1.36,0,0,1,.52-.8Zm-4-9.09A4.75,4.75,0,1,1,30,28.4,4.74,4.74,0,0,1,25.23,33.14Z"/><polygon class="cls-1" points="26.11 27.47 25.23 25.69 24.35 27.47 22.38 27.76 23.81 29.14 23.47 31.1 25.23 30.18 26.99 31.1 26.65 29.14 28.08 27.76 26.11 27.47"/></svg>