<?xml version="1.0" encoding="utf-8"?>
<!-- Generator: Adobe Illustrator 24.1.0, SVG Export Plug-In . SVG Version: 6.00 Build 0)  -->
<svg version="1.1" id="Layer_1" xmlns="http://www.w3.org/2000/svg" xmlns:xlink="http://www.w3.org/1999/xlink" x="0px" y="0px"
	 viewBox="0 0 50.5 50.5" style="enable-background:new 0 0 50.5 50.5;" xml:space="preserve">
<g>
	<path d="M13.4,23.1l3-0.8c0.7-0.2,1.1-0.9,0.9-1.6l-2.1-7.8C15,12.4,14.5,12,13.9,12c-0.1,0-0.2,0-0.3,0l-3,0.8
		c-0.7,0.2-1.1,0.9-0.9,1.6l0,0l0,0l2.1,7.7c0.2,0.5,0.7,0.9,1.3,0.9C13.1,23.1,13.3,23.1,13.4,23.1z"/>
	<path d="M18.5,20.4c0.2,0.5,0.7,0.9,1.3,0.9c0.1,0,0.2,0,0.3,0l3-0.8c0.7-0.2,1.1-0.9,0.9-1.6L20.9,7.3c-0.2-0.6-0.7-0.9-1.2-0.9
		c-0.1,0-0.2,0-0.3,0l-3,0.8c-0.7,0.2-1.1,0.9-0.9,1.6L18.5,20.4z"/>
	<path d="M24.6,15.9c0.1,0.6,0.7,0.9,1.3,0.9c0.1,0,0.2,0,0.3,0l3-0.8c0.7-0.2,1.1-0.9,0.9-1.6l-3-11c-0.1-0.5-0.7-0.9-1.3-0.9
		c-0.1,0-0.2,0-0.3,0l-3,0.8c-0.7,0.2-1.1,0.9-0.9,1.6L24.6,15.9z"/>
	<path d="M31.4,14.2c0.1,0.3,0.3,0.6,0.6,0.8c0.2,0.1,0.4,0.2,0.6,0.2c0.1,0,0.2,0,0.3,0l3-0.8c0.7-0.2,1.1-0.9,0.9-1.6l-2.3-8.4
		c-0.2-0.6-0.7-0.9-1.2-0.9c-0.1,0-0.2,0-0.3,0l-3,0.8c-0.7,0.2-1.1,0.9-0.9,1.6L31.4,14.2z"/>
	<path d="M40.8,26.7c0,0,0-0.1,0-0.1l-2.8-9.6c-0.2-0.7-1-1.2-1.6-1l-7.4,2c-0.8,0.2-1.1,0.5-1.1,1.7l0,0.9c0,0.4,0.1,0.7,0.5,0.6
		l3.7-1c0.4-0.1,0.9,0.1,1,0.5l1,3.9c0.1,0.4-0.1,0.9-0.6,1c-0.1,0-0.1,0-0.2,0c-0.4,0-0.7-0.2-0.8-0.6l-0.8-3.1l-2.9,0.7
		c-0.6,0.2-1.2,0.2-1.7-0.1c-0.3-0.2-0.6-0.6-0.6-1.4l-13.1,3.5c-0.3,0.1-0.6,0.3-0.8,0.6c-0.2,0.3-0.2,0.7-0.1,1l2.1,7.7
		c0.5,2,2,3.1,3.6,3.7v9.6c0,0.4,0.3,0.7,0.7,0.7h15.3c0.4,0,0.7-0.3,0.7-0.7V36.8C39.2,35.3,41.8,30.7,40.8,26.7z"/>
</g>
</svg>
