<?xml version="1.0" encoding="utf-8"?>
<!-- Generator: Adobe Illustrator 24.1.0, SVG Export Plug-In . SVG Version: 6.00 Build 0)  -->
<svg version="1.1" id="Layer_1" xmlns="http://www.w3.org/2000/svg" xmlns:xlink="http://www.w3.org/1999/xlink" x="0px" y="0px"
	 viewBox="0 0 50.5 50.5" style="enable-background:new 0 0 50.5 50.5;" xml:space="preserve">
<g>
	<path d="M13,23.8c0.2,0,0.3,0,0.5-0.1l3-0.8c0,0,0,0,0,0c0.4-0.1,0.8-0.4,1-0.8c0.2-0.4,0.3-0.9,0.2-1.3l-2.1-7.8
		c-0.1-0.4-0.4-0.8-0.8-1c-0.4-0.2-0.9-0.3-1.3-0.2l-3,0.8c-0.4,0.1-0.8,0.4-1,0.8c-0.2,0.4-0.3,0.9-0.2,1.3l2.1,7.8
		c0.1,0.4,0.4,0.8,0.8,1C12.4,23.7,12.7,23.8,13,23.8z M10.8,14.4c0-0.1,0-0.1,0.1-0.2l3-0.8c0,0,0,0,0,0c0.1,0,0.1,0,0.1,0.1
		l2.1,7.8c0,0.1,0,0.1-0.1,0.2l-3,0.8c-0.1,0-0.1,0-0.2-0.1L10.8,14.4z"/>
	<path d="M18.1,20.7c0.1,0.4,0.4,0.8,0.8,1c0.3,0.2,0.6,0.2,0.9,0.2c0.2,0,0.3,0,0.5-0.1l3-0.8c0.4-0.1,0.8-0.4,1-0.8
		c0.2-0.4,0.3-0.9,0.2-1.3L21.3,7.4c-0.1-0.4-0.4-0.8-0.8-1c-0.4-0.2-0.9-0.3-1.3-0.2l-3,0.8c-0.9,0.2-1.5,1.2-1.2,2.1L18.1,20.7z
		 M16.6,8.5l3-0.8c0,0,0,0,0,0c0.1,0,0.1,0,0.1,0.1l3.1,11.6c0,0.1,0,0.1-0.1,0.2l-3,0.8c-0.1,0-0.1,0-0.2-0.1L16.5,8.7
		C16.5,8.6,16.5,8.6,16.6,8.5z"/>
	<path d="M24.2,16.3c0.2,0.8,0.9,1.3,1.7,1.3c0.1,0,0.3,0,0.5-0.1l3-0.8c0,0,0,0,0,0c0.9-0.2,1.5-1.2,1.2-2.1l-3-11
		c-0.2-0.9-1.2-1.5-2.1-1.2l-3,0.8c-0.9,0.2-1.5,1.2-1.2,2.1L24.2,16.3z M22.8,4.7l3-0.8c0,0,0,0,0,0C26,3.9,26,3.9,26,4l3,11
		c0,0.1,0,0.1-0.1,0.2l-3,0.8c-0.1,0-0.1,0-0.2-0.1l-3-11C22.7,4.8,22.8,4.7,22.8,4.7z"/>
	<path d="M31,14.5c0.1,0.4,0.4,0.8,0.8,1c0.3,0.2,0.6,0.2,0.9,0.2c0.2,0,0.3,0,0.5-0.1l3-0.8v0c0.4-0.1,0.8-0.4,1-0.8
		c0.2-0.4,0.3-0.9,0.2-1.3l-2.3-8.4c-0.2-0.9-1.2-1.5-2.1-1.2l-3,0.8c-0.9,0.2-1.5,1.2-1.2,2.1L31,14.5z M30.3,5.5l3-0.8
		c0,0,0,0,0,0c0.1,0,0.1,0,0.1,0.1l2.3,8.4c0,0.1,0,0.1-0.1,0.2c0,0,0,0,0,0l-3,0.8c-0.1,0-0.1,0-0.2-0.1l-2.3-8.4
		C30.2,5.6,30.3,5.6,30.3,5.5z"/>
	<path d="M41,26.5L41,26.5C41,26.4,41,26.4,41,26.5l-2.9-10.9c-0.1-0.4-0.5-0.7-1-0.6l-9.4,2.5c-0.9,0.2-1.5,1.1-1.5,2l0,0.4
		c0,0,0,0,0,0l-0.1,0.9c0,0,0,0,0,0l0,0c0,0,0,0,0,0l-13.5,3.6c-0.2,0.1-0.4,0.2-0.5,0.4c-0.1,0.2-0.1,0.4-0.1,0.6l2.3,8.4
		c0.5,1.9,1.9,3,3.5,3.7v9.2c0,0.8,0.7,1.5,1.5,1.5h15.3c0.8,0,1.5-0.7,1.5-1.5V36.4C39.8,34.6,42,30.3,41,26.5z M34.6,46.6H19.5V38
		c0.6,0.1,1.2,0.2,1.8,0.2c0.4,0,0.8,0,1.2-0.1l11.8-0.9c0,0,0.1,0,0.1,0c0.1,0,0.1,0,0.2-0.1V46.6z M34.1,35.6l-11.8,0.9
		c-1.7,0.3-5.6-0.1-6.4-3.1l-2.1-7.6l13-3.5c0,0,0.1,0.1,0.1,0.1c0.5,0.4,1.1,0.5,1.7,0.3l3-0.8l0.8,3.1c0.1,0.4,0.4,0.6,0.8,0.6
		c0.1,0,0.1,0,0.2,0c0.4-0.1,0.7-0.5,0.6-1l-1-3.8c-0.1-0.2-0.2-0.4-0.4-0.5c-0.2-0.1-0.4-0.1-0.6-0.1l-3.7,1c-0.2,0-0.3,0-0.4-0.1
		c0,0-0.1-0.1-0.1-0.1c0,0,0,0,0,0c0-0.1-0.1-0.1-0.1-0.1l0.1-0.9c0,0,0,0,0,0l0-0.4c0-0.2,0.1-0.4,0.3-0.4l8.6-2.3l2.7,10
		c0,0,0,0.1,0,0.1C40.4,30.4,37.8,34.5,34.1,35.6z"/>
</g>
</svg>
