<?xml version="1.0" encoding="utf-8"?>
<!-- Generator: Adobe Illustrator 24.2.1, SVG Export Plug-In . SVG Version: 6.00 Build 0)  -->
<svg version="1.1" id="Capa_1" xmlns="http://www.w3.org/2000/svg" xmlns:xlink="http://www.w3.org/1999/xlink" x="0px" y="0px"
	 viewBox="0 0 50.5 50.5" style="enable-background:new 0 0 50.5 50.5;" xml:space="preserve">
<g>
	<path d="M42.698,23.972h-6.143h-1.192v-3.563c0-3.042-2.476-5.528-5.52-5.541L25.24,14.85c-1.481,0.008-2.881,0.567-3.932,1.614
		c-1.052,1.047-1.631,2.442-1.631,3.927v3.581h-2.942v-6.314l4.156-4.156c0.333-0.334,0.333-0.875,0-1.209
		c-0.334-0.333-0.875-0.333-1.209,0l-4.406,4.407c-0.16,0.161-0.25,0.378-0.25,0.604v6.668h-1.438H7.802
		c-0.472,0-0.854,0.382-0.854,0.854s0.382,0.854,0.854,0.854h4.932v21.4c0,0.472,0.382,0.854,0.854,0.854h22.968
		c0.472,0,0.854-0.383,0.854-0.854v-21.4h5.288c0.472,0,0.854-0.382,0.854-0.854S43.17,23.972,42.698,23.972z M21.386,20.391
		c0-1.027,0.401-1.991,1.128-2.716c0.723-0.72,1.683-1.116,2.703-1.116c0.005,0,0.011,0,0.016,0l4.604,0.018
		c2.105,0.009,3.817,1.728,3.817,3.832v3.563H21.386V20.391z M35.701,46.227H14.442V25.681h21.259V46.227z"/>
	<path d="M27.492,13.632c3.051,0,5.533-2.482,5.533-5.534s-2.482-5.533-5.533-5.533c-3.051,0-5.533,2.482-5.533,5.533
		S24.441,13.632,27.492,13.632z M27.492,4.274c2.108,0,3.824,1.716,3.824,3.824c0,2.109-1.716,3.825-3.824,3.825
		s-3.824-1.716-3.824-3.825C23.668,5.99,25.384,4.274,27.492,4.274z"/>
</g>
</svg>
