<svg id="Layer_1" data-name="Layer 1" xmlns="http://www.w3.org/2000/svg" viewBox="0 0 50.46 50.46"><defs><style>.cls-1{fill:#a7a9ac;}</style></defs><title>discapacidad 2-negativo</title><path class="cls-1" d="M37.91,7.77H12.55A4.52,4.52,0,0,0,8,12.28V36.23a6.47,6.47,0,0,0,6.46,6.46H36a6.47,6.47,0,0,0,6.46-6.46V12.28A4.52,4.52,0,0,0,37.91,7.77Zm-14.48,5a2.54,2.54,0,1,1-2.54,2.54A2.54,2.54,0,0,1,23.43,12.81ZM29.25,33a7.68,7.68,0,1,1-9.15-10.4,1.37,1.37,0,0,1,1,.12,1.38,1.38,0,0,1,.62.8,1.3,1.3,0,0,1-.13,1,1.33,1.33,0,0,1-.79.62,5.05,5.05,0,1,0,6,6.83,1.33,1.33,0,0,1,.71-.71,1.31,1.31,0,0,1,1,0,1.29,1.29,0,0,1,.71.72A1.31,1.31,0,0,1,29.25,33ZM34.8,36.8l-1.71.2H33a1.31,1.31,0,0,1-1.27-1L30,29.84l-5.29-.24a1.3,1.3,0,0,1-1.24-1.18l-.84-8.13A1.31,1.31,0,0,1,23.23,19a1.33,1.33,0,0,1,1.41,0L31,23.14A1.32,1.32,0,0,1,31.34,25a1.35,1.35,0,0,1-.83.57,1.3,1.3,0,0,1-1-.18l-4-2.59L26,27l5.1.24a1.32,1.32,0,0,1,1.21,1l1.66,6,.59-.06a1.28,1.28,0,0,1,1,.27,1.25,1.25,0,0,1,.49.89A1.3,1.3,0,0,1,34.8,36.8Z"/></svg>