<?xml version="1.0" encoding="utf-8"?>
<!-- Generator: Adobe Illustrator 24.2.1, SVG Export Plug-In . SVG Version: 6.00 Build 0)  -->
<svg version="1.1" id="Layer_1" xmlns="http://www.w3.org/2000/svg" xmlns:xlink="http://www.w3.org/1999/xlink" x="0px" y="0px"
	 viewBox="0 0 50.5 50.5" style="enable-background:new 0 0 50.5 50.5;" xml:space="preserve">
<path d="M23.7,25.7c0,1.2-0.9,2.2-2,2.2s-2-1-2-2.2s0.9-2.2,2-2.2S23.7,24.5,23.7,25.7z M28.8,23.5c-1.1,0-2,1-2,2.2s0.9,2.2,2,2.2
	s2-1,2-2.2S29.9,23.5,28.8,23.5z M42.5,11.1v35.1l-4.2-3.7l-2.4-2.2L33.4,38l1,3.6H12.1c-2.2,0-4-1.8-4-4V11c0-2.2,1.8-4,4-4h26.3
	C40.6,7,42.4,8.8,42.5,11.1z M36.7,29.8c0-6.4-2.8-11.5-2.8-11.5c-2.8-2.2-5.5-2.1-5.5-2.1l-0.3,0.3c3.3,1,4.9,2.5,4.9,2.5
	c-2-1.1-4-1.7-5.9-1.9c-1.4-0.2-2.8-0.2-4,0c-0.1,0-0.2,0-0.3,0c-0.7,0-2.4,0.3-4.5,1.2c-0.8,0.4-1.2,0.6-1.2,0.6s1.7-1.6,5.2-2.6
	l-0.2-0.2c0,0-2.7,0-5.5,2.1c0,0-2.8,5.2-2.8,11.5c0,0,1.7,2.9,6,3c0,0,0.7-0.9,1.3-1.6c-2.5-0.7-3.4-2.3-3.4-2.3s0.2,0.1,0.6,0.3
	c0,0.1,0.1,0.1,0.1,0.1c0.1,0,0.1,0.1,0.2,0.1c0.5,0.3,0.9,0.5,1.4,0.7c0.8,0.3,1.8,0.6,2.9,0.8c1.5,0.3,3.2,0.4,5.1,0
	c0.9-0.1,1.8-0.4,2.8-0.8c0.7-0.3,1.5-0.7,2.3-1.2c0,0-1,1.6-3.6,2.3c0.6,0.8,1.3,1.6,1.3,1.6C35.2,32.5,36.8,29.7,36.7,29.8z"/>
</svg>
