<?xml version="1.0" encoding="utf-8"?>
<!-- Generator: Adobe Illustrator 24.2.1, SVG Export Plug-In . SVG Version: 6.00 Build 0)  -->
<svg version="1.1" id="Layer_1" xmlns="http://www.w3.org/2000/svg" xmlns:xlink="http://www.w3.org/1999/xlink" x="0px" y="0px"
	 viewBox="0 0 50.5 50.5" style="enable-background:new 0 0 50.5 50.5;" xml:space="preserve">
<path d="M42.1,26.4c0,0.6-0.5,1-1,1h-5.8c-0.6,0-1-0.5-1-1c0-0.6,0.5-1,1-1h1.9v-3.6c-0.8-0.4-1.3-1.2-1.3-2.1c0-1.3,1-2.3,2.3-2.3
	s2.3,1,2.3,2.3c0,1-0.5,1.7-1.3,2.1v3.6h1.9C41.6,25.4,42.1,25.8,42.1,26.4z M30,33.9c-1-0.4-2.1,0-2.5,1c-1.6,3.7-5.9,5.4-9.6,3.8
	c-3.7-1.6-5.4-5.9-3.8-9.6c0.9-2,2.6-3.6,4.8-4.2c1-0.2,1.7-1.2,1.5-2.3c-0.2-1-1.2-1.7-2.3-1.5c-0.1,0-0.1,0-0.2,0.1
	c-6,1.8-9.4,7.9-7.8,13.8c1.3,4.8,5.7,8.2,10.7,8.1c4.4,0,8.5-2.7,10.2-6.8C31.4,35.4,30.9,34.3,30,33.9z M22.6,14.6
	c2,0,3.7-1.6,3.7-3.7c0-2.1-1.6-3.7-3.7-3.7c-2.1,0-3.7,1.8-3.7,3.8S20.6,14.6,22.6,14.6z M38.7,38.1c-0.1,0-0.1,0-0.2,0l-0.8,0.1
	l-2.4-8.7c-0.2-0.8-0.9-1.4-1.7-1.4l-7.4-0.3l-0.6-6.1l5.8,2.6c0.9,0.5,2.1,0.2,2.6-0.7c0.5-0.9,0.3-2-0.5-2.5l-9.1-4.3
	c-0.9-0.6-2.1-0.3-2.6,0.6c-0.2,0.4-0.3,0.8-0.3,1.2l1.2,11.2c0.1,0.9,0.9,1.7,1.8,1.7l7.6,0.4l2.5,8.9c0.2,0.8,1,1.4,1.8,1.4h0.2
	l2.4-0.3c1-0.1,1.8-1,1.8-2S39.8,38.1,38.7,38.1z"/>
</svg>
