<svg id="Layer_1" data-name="Layer 1" xmlns="http://www.w3.org/2000/svg" viewBox="0 0 50.46 50.46"><defs><style>.cls-1{fill:#12b5e1;}</style></defs><title>discapacitadi lineal</title><path class="cls-1" d="M28.16,43.06A11.69,11.69,0,0,1,12,26.74a.9.9,0,1,0-1.47-1A13.48,13.48,0,0,0,29.16,44.55a.9.9,0,1,0-1-1.49Z"/><path class="cls-1" d="M14.88,28.81a.91.91,0,0,0-1.22.38,9,9,0,0,0,8,13.17,9.55,9.55,0,0,0,1.92-.2.91.91,0,0,0,.69-1.07.9.9,0,0,0-1.08-.69,7.22,7.22,0,0,1-8.73-7A7,7,0,0,1,15.26,30,.91.91,0,0,0,14.88,28.81Z"/><path class="cls-1" d="M41.36,22.67a3.35,3.35,0,0,0-2.59-1L32.32,22l3.31-3.77a3.74,3.74,0,0,0,.81-3.49A3.31,3.31,0,0,0,35,12.67c-.05,0-.05,0-11.37-6.61a3.33,3.33,0,0,0-3.92.39l-5.51,4.92a3.36,3.36,0,0,0,2,5.86,3.38,3.38,0,0,0,2.43-.84l3.69-3.3,1.94,1.13L19.1,20.14a13.44,13.44,0,0,0-6.4,3.14.9.9,0,1,0,1.19,1.35,11.63,11.63,0,0,1,5.78-2.76,1.39,1.39,0,0,0,.32-.12,1.48,1.48,0,0,0,.29-.22l6.09-6.94a.92.92,0,0,0,.21-.74.89.89,0,0,0-.44-.64l-3.45-2a.89.89,0,0,0-1.05.11L17.46,15a1.55,1.55,0,0,1-2.2-.12,1.57,1.57,0,0,1,.12-2.21L20.89,7.8a1.57,1.57,0,0,1,1.83-.19L34,14.16a1.62,1.62,0,0,1,.71,1,2,2,0,0,1-.42,1.86l-4.72,5.38a.9.9,0,0,0-.14,1,.88.88,0,0,0,.86.5l8.59-.47a1.59,1.59,0,0,1,1.2.47,1.52,1.52,0,0,1,.44,1.21l-1,12.74a1.56,1.56,0,0,1-1.55,1.43h-.13a1.57,1.57,0,0,1-1.43-1.69l.81-9.91a.93.93,0,0,0-1-1l-3.32.19a.9.9,0,0,0-.82,1.15,1,1,0,0,0,.08.29,11.59,11.59,0,0,1-1.81,12.77.9.9,0,0,0,.08,1.27.85.85,0,0,0,.6.23.89.89,0,0,0,.67-.3A13.48,13.48,0,0,0,34.6,37l0,.44a3.37,3.37,0,0,0,3.08,3.62A3.4,3.4,0,0,0,41.27,38l1-12.73A3.35,3.35,0,0,0,41.36,22.67ZM35,31.86a12.76,12.76,0,0,0-.78-3.21l1-.06Z"/><path class="cls-1" d="M25.18,39.57l-.1,0a.9.9,0,0,0,.4,1.71.89.89,0,0,0,.39-.09A1,1,0,0,0,26.38,40,.93.93,0,0,0,25.18,39.57Z"/><path class="cls-1" d="M27.21,39.3a.92.92,0,0,0,.58.21.9.9,0,0,0,.69-.32A9,9,0,0,0,16,26.35a.9.9,0,1,0,1.12,1.4,7.12,7.12,0,0,1,4.5-1.57A7.19,7.19,0,0,1,27.11,38,.9.9,0,0,0,27.21,39.3Z"/><path class="cls-1" d="M37.16,12.65a5,5,0,1,0-5-5A5,5,0,0,0,37.16,12.65Zm0-8.24a3.22,3.22,0,1,1-3.23,3.22A3.22,3.22,0,0,1,37.16,4.41Z"/></svg>