<svg id="Layer_1" data-name="Layer 1" xmlns="http://www.w3.org/2000/svg" viewBox="0 0 50.46 50.46"><defs><style>.cls-1{fill:#65b4e1;}</style></defs><title>discapacidad</title><path class="cls-1" d="M20.82,43.14A11.07,11.07,0,0,0,31,36.37a1.9,1.9,0,0,0-3.5-1.48A7.29,7.29,0,1,1,18.86,25a1.9,1.9,0,1,0-1-3.66,11.08,11.08,0,0,0,3,21.76Z"/><circle class="cls-1" cx="22.63" cy="10.98" r="3.66"/><path class="cls-1" d="M24.46,31.53l7.62.36,2.46,8.93a1.9,1.9,0,0,0,1.83,1.39h.21L39,41.92a1.9,1.9,0,1,0-.43-3.77l-.85.1-2.39-8.7a1.89,1.89,0,0,0-1.74-1.39l-7.36-.34-.63-6.15,5.78,3.74a1.9,1.9,0,0,0,2.06-3.19l-9.1-5.89a1.9,1.9,0,0,0-2.92,1.79l1.2,11.72A1.89,1.89,0,0,0,24.46,31.53Z"/></svg>