<?xml version="1.0" encoding="utf-8"?>
<!-- Generator: Adobe Illustrator 24.2.1, SVG Export Plug-In . SVG Version: 6.00 Build 0)  -->
<svg version="1.1" id="Layer_1" xmlns="http://www.w3.org/2000/svg" xmlns:xlink="http://www.w3.org/1999/xlink" x="0px" y="0px"
	 viewBox="0 0 50.5 50.5" style="enable-background:new 0 0 50.5 50.5;" xml:space="preserve">
<path d="M45.1,22.6c-0.3-0.9-0.9-1.7-1.7-2.2l-3.9-3c-0.9-0.8-2.1-1.4-3.3-1.6c0,0,0-0.1-0.1-0.1c-2.4-2.3-7-3.7-12-3.7
	s-9.5,1.4-11.9,3.7c-1.6,0.1-3,0.7-4.2,1.7l-3.2,3c-1,0.7-1.7,1.8-1.7,3.1v10.2c0,2,1.7,3.7,3.7,3.7h34.7c2,0,3.7-1.7,3.7-3.7v-5.4
	c1.3-0.3,2.2-1.5,2.2-2.8C47.4,24.1,46.4,22.9,45.1,22.6z M24.2,13.7c3.6,0,6.8,0.7,9.1,2H15C17.3,14.4,20.6,13.7,24.2,13.7z
	 M9.1,18.6c0.9-0.8,2.2-1.3,3.5-1.3h22.2c1.3,0,2.6,0.5,3.6,1.4l1.6,1.2H7.8L9.1,18.6z M43.6,33.8c0,1.2-0.9,2.1-2.1,2.1H6.8
	c-1.2,0-2.1-0.9-2.1-2.1V23.6c0-1.2,0.9-2.1,2.1-2.1h34.7c0.3,0,0.6,0.1,0.9,0.2c0.1,0,0.1,0.1,0.2,0.1c0.6,0.4,1,1,1,1.8V33.8z
	 M45.2,26.6v-2.2c0.3,0.3,0.6,0.7,0.6,1.1S45.5,26.4,45.2,26.6z M21.8,27.2l-1.6,3.7c-0.1,0.3-0.4,0.5-0.7,0.5s-0.6-0.2-0.7-0.5
	l-1.7-3.7c-0.2-0.4,0-0.9,0.4-1.1c0.4-0.2,0.9,0,1.1,0.4l0.9,2l0.9-2c0.1-0.4,0.6-0.6,1-0.4C21.8,26.3,22,26.7,21.8,27.2z
	 M31.6,29.5c0.7-0.9,0.6-2.3-0.2-3.1c-0.1-0.1-0.3-0.2-0.5-0.2h-2.4c-0.4,0-0.8,0.4-0.8,0.8v3.6c0,0.4,0.4,0.8,0.8,0.8
	s0.8-0.4,0.8-0.8v-0.7h0.6l0.7,1.1c0.1,0.3,0.4,0.4,0.7,0.4c0.1,0,0.3,0,0.4-0.1c0.4-0.2,0.5-0.7,0.3-1.1L31.6,29.5z M30.4,28.2
	h-1.2v-0.4h1.2C30.5,27.9,30.5,28.1,30.4,28.2z M25.1,28.2c0.1,0.2,0.2,0.3,0.2,0.6s-0.1,0.5-0.2,0.6c-0.2,0.1-0.4,0.2-0.6,0.2
	s-0.5,0-0.6-0.2c-0.1-0.2-0.2-0.4-0.2-0.6s0.1-0.4,0.2-0.6C24.2,27.9,24.8,27.9,25.1,28.2z M15.3,28.2c0.1,0.2,0.2,0.4,0.2,0.6
	c0,0.1-0.1,0.2-0.1,0.3c-0.1,0.1-0.1,0.2-0.2,0.3c-0.1,0.1-0.2,0.1-0.3,0.2c-0.1,0.1-0.2,0.1-0.3,0.1c-0.1,0-0.2-0.1-0.3-0.1
	c-0.1-0.1-0.2-0.1-0.3-0.2c-0.1-0.1-0.2-0.2-0.2-0.3c-0.1-0.1-0.1-0.2-0.1-0.3c0-0.2,0.1-0.4,0.2-0.6c0.3-0.2,0.6-0.3,0.9-0.2
	C14.9,28,15,28.1,15.3,28.2z M35.2,28.2c0.1,0.2,0.2,0.3,0.2,0.6s0,0.5-0.2,0.6c-0.1,0.1-0.2,0.2-0.3,0.2c-0.1,0.1-0.2,0.1-0.3,0.1
	c-0.1,0-0.2-0.1-0.3-0.1c-0.1-0.1-0.2-0.1-0.3-0.2c-0.1-0.1-0.2-0.2-0.2-0.3c-0.1-0.1-0.1-0.2-0.1-0.3c0-0.2,0.1-0.4,0.2-0.6
	c0.2-0.2,0.6-0.3,0.9-0.2C34.9,28,35,28.1,35.2,28.2z"/>
</svg>
