<svg id="Layer_1" data-name="Layer 1" xmlns="http://www.w3.org/2000/svg" viewBox="0 0 50.46 50.46"><defs><style>.cls-1{fill:#65b4e1;}</style></defs><title>diversidad sexual</title><path class="cls-1" d="M45.29,6.94a1.2,1.2,0,0,0-.93-.48l-4.48-.1h0a1.2,1.2,0,0,0,0,2.4l1,0L33.5,14.16a1.15,1.15,0,0,0-.16.18,10.86,10.86,0,0,0-16,.1l-2.85-2.08,1.18-1.56a1.2,1.2,0,1,0-1.91-1.45l-1.2,1.59L9.6,8.79l1,0a1.2,1.2,0,0,0,0-2.4h0l-4.48.1A1.2,1.2,0,0,0,5,8l1.13,4.25a1.2,1.2,0,0,0,2.32-.62l-.23-.87,2.9,2.12L9.91,14.42a1.2,1.2,0,1,0,1.91,1.45L13,14.27l2.89,2.11A10.89,10.89,0,0,0,24.18,32.6V37H22.05a1.2,1.2,0,1,0,0,2.4h2.13v3.5a1.2,1.2,0,0,0,2.4,0V39.4h2.13a1.2,1.2,0,1,0,0-2.4H26.58V32.6a10.88,10.88,0,0,0,8.15-16.4,1.17,1.17,0,0,0,.18-.09l7.35-5.37-.23.87a1.2,1.2,0,1,0,2.32.62L45.49,8A1.2,1.2,0,0,0,45.29,6.94ZM25.38,30.27a8.5,8.5,0,1,1,8.5-8.5A8.51,8.51,0,0,1,25.38,30.27Z"/></svg>