<svg id="Layer_1" data-name="Layer 1" xmlns="http://www.w3.org/2000/svg" viewBox="0 0 50.46 50.46"><defs><style>.cls-1{fill:#12b5e1;}</style></defs><title>dni negativo</title><path class="cls-1" d="M44.16,9.72H6.32a3.1,3.1,0,0,0-3.1,3.08V37.66a3.1,3.1,0,0,0,3.09,3.08H44.16a3.1,3.1,0,0,0,3.08-3.08V12.8A3.1,3.1,0,0,0,44.16,9.72Zm-6.37,6.86a.85.85,0,0,1,1.69,0v6.13a.85.85,0,1,1-1.69,0Zm-8.21,0a.84.84,0,0,1,.85-.84h.17a1.06,1.06,0,0,1,.88.49l3.27,4.29v-4a.83.83,0,0,1,.83-.83.84.84,0,0,1,.84.83v6.12a.85.85,0,0,1-.85.85h0a1,1,0,0,1-.88-.5L31.25,18.6v4.12a.84.84,0,0,1-.83.84.85.85,0,0,1-.84-.84ZM13.75,21.91A3.08,3.08,0,1,1,10.68,25,3.08,3.08,0,0,1,13.75,21.91Zm4.56,12.28H9.2a.6.6,0,0,1-.58-.72A5.42,5.42,0,0,1,13.75,29a5.42,5.42,0,0,1,5.13,4.5A.59.59,0,0,1,18.31,34.19Zm3.23-11.54v-6a.84.84,0,0,1,.84-.85h2.16a3.83,3.83,0,0,1,4.09,3.82v0a3.85,3.85,0,0,1-4.09,3.84H22.38A.83.83,0,0,1,21.54,22.65Zm1.36,4.86H40.14a.87.87,0,0,1,0,1.74H22.89a.87.87,0,1,1,0-1.74Zm17.24,6.68H22.9a.87.87,0,0,1,0-1.74H40.14a.87.87,0,1,1,0,1.74Z"/><path class="cls-1" d="M26.86,19.67v0a2.21,2.21,0,0,0-2.32-2.32H23.23V22h1.31A2.19,2.19,0,0,0,26.86,19.67Z"/></svg>