<svg id="Layer_1" data-name="Layer 1" xmlns="http://www.w3.org/2000/svg" viewBox="0 0 50.46 50.46"><defs><style>.cls-1{fill:#12b5e1;}.cls-2{fill:#fff;}</style></defs><title>dni digital 01</title><rect class="cls-1" x="11.51" y="16.23" width="28.33" height="18" rx="2.05" ry="2.05"/><path class="cls-1" d="M45.4,11.65H6a3.74,3.74,0,0,0-3.73,3.74V35.07A3.74,3.74,0,0,0,6,38.81H45.4a3.74,3.74,0,0,0,3.73-3.74V15.39A3.74,3.74,0,0,0,45.4,11.65Zm-3.49,1.7V37.11H9.44V13.35Zm-38,21.72V15.39a2,2,0,0,1,2-2H8.44V37.11H6A2,2,0,0,1,3.91,35.07Zm43.53,0a2,2,0,0,1-2,2H42.91V13.35H45.4a2,2,0,0,1,2,2Z"/><path class="cls-1" d="M6.19,20.37a.52.52,0,0,0-.53.52v8.68a.53.53,0,0,0,1.06,0V20.89A.52.52,0,0,0,6.19,20.37Z"/><path class="cls-1" d="M45.06,20.37a.52.52,0,0,0-.53.52v8.68a.53.53,0,0,0,1.06,0V20.89A.52.52,0,0,0,45.06,20.37Z"/><path class="cls-1" d="M45.65,17.76l-.06-.11-.08-.09a.72.72,0,0,0-.21-.14l-.11,0a.65.65,0,0,0-.58.18l-.08.09a.54.54,0,0,0-.05.11.56.56,0,0,0,0,.12.49.49,0,0,0,0,.12.62.62,0,0,0,.63.64.67.67,0,0,0,.45-.18A.66.66,0,0,0,45.7,18a.5.5,0,0,0,0-.12A.53.53,0,0,0,45.65,17.76Z"/><path class="cls-2" d="M18.09,22.69A.7.7,0,0,1,18.8,22h1.82a3.24,3.24,0,0,1,3.46,3.23v0a3.25,3.25,0,0,1-3.46,3.25H18.8a.7.7,0,0,1-.71-.71Zm2.53,4.5a1.86,1.86,0,0,0,2-1.94v0a1.87,1.87,0,0,0-2-2h-1.1v3.92Z"/><path class="cls-2" d="M24.89,22.66a.72.72,0,0,1,.72-.72h.15a.9.9,0,0,1,.74.42L29.26,26V22.63a.7.7,0,0,1,.7-.71.71.71,0,0,1,.71.71V27.8a.71.71,0,0,1-.71.72h-.05a.87.87,0,0,1-.74-.42L26.3,24.35v3.48a.7.7,0,0,1-.7.71.71.71,0,0,1-.71-.71Z"/><path class="cls-2" d="M31.83,22.64a.72.72,0,0,1,.72-.72.71.71,0,0,1,.71.72v5.18a.71.71,0,0,1-.71.72.72.72,0,0,1-.72-.72Z"/></svg>