<svg id="Layer_1" data-name="Layer 1" xmlns="http://www.w3.org/2000/svg" viewBox="0 0 50.46 50.46"><defs><style>.cls-1{fill:#12b5e1;}</style></defs><title>dni digital 02</title><path class="cls-1" d="M46,11.65H6.5a3.74,3.74,0,0,0-3.73,3.74V35.07A3.74,3.74,0,0,0,6.5,38.81H46a3.74,3.74,0,0,0,3.73-3.74V15.39A3.74,3.74,0,0,0,46,11.65Zm-3.49,1.7V37.11H10V13.35Zm-38,21.72V15.39a2,2,0,0,1,2-2H9V37.11H6.5A2,2,0,0,1,4.46,35.07Zm43.53,0a2,2,0,0,1-2,2H43.46V13.35H46a2,2,0,0,1,2,2Z"/><path class="cls-1" d="M6.74,20.37a.52.52,0,0,0-.53.52v8.68a.53.53,0,0,0,1.06,0V20.89A.52.52,0,0,0,6.74,20.37Z"/><path class="cls-1" d="M45.61,20.37a.52.52,0,0,0-.53.52v8.68a.53.53,0,0,0,1.06,0V20.89A.52.52,0,0,0,45.61,20.37Z"/><path class="cls-1" d="M46.2,17.76l-.06-.11-.08-.09a.72.72,0,0,0-.21-.14l-.11,0a.65.65,0,0,0-.58.18l-.08.09a.54.54,0,0,0,0,.11.56.56,0,0,0,0,.12A.49.49,0,0,0,45,18a.62.62,0,0,0,.63.64.67.67,0,0,0,.45-.18.65.65,0,0,0,.18-.46.49.49,0,0,0,0-.12A.53.53,0,0,0,46.2,17.76Z"/><path class="cls-1" d="M14.11,34.73H38.34a2.55,2.55,0,0,0,2.55-2.55V18.28a2.55,2.55,0,0,0-2.55-2.55H14.11a2.55,2.55,0,0,0-2.55,2.55v13.9A2.55,2.55,0,0,0,14.11,34.73ZM12.56,18.28a1.56,1.56,0,0,1,1.55-1.55H38.34a1.55,1.55,0,0,1,1.55,1.55v13.9a1.55,1.55,0,0,1-1.55,1.55H14.11a1.56,1.56,0,0,1-1.55-1.55Z"/><path class="cls-1" d="M24.29,27.8h1.44a2.57,2.57,0,0,0,2.72-2.57h0a2.56,2.56,0,0,0-2.72-2.56H24.29a.56.56,0,0,0-.56.57v4A.56.56,0,0,0,24.29,27.8Zm.57-4.12h.87a1.47,1.47,0,0,1,1.54,1.55h0a1.46,1.46,0,0,1-1.54,1.54h-.87Z"/><path class="cls-1" d="M29.65,27.84a.56.56,0,0,0,.56-.56V24.53l2.25,3a.71.71,0,0,0,.59.33h0a.55.55,0,0,0,.56-.56V23.18a.56.56,0,1,0-1.11,0v2.64L30.36,23a.68.68,0,0,0-.59-.33h-.11a.56.56,0,0,0-.57.56v4.08A.56.56,0,0,0,29.65,27.84Z"/><path class="cls-1" d="M35.13,27.84a.56.56,0,0,0,.57-.57V23.19a.57.57,0,1,0-1.13,0v4.08A.56.56,0,0,0,35.13,27.84Z"/><path class="cls-1" d="M15.49,29.32h6.08a.38.38,0,0,0,.38-.47,3.61,3.61,0,0,0-3.42-3,3.62,3.62,0,0,0-3.42,3A.39.39,0,0,0,15.49,29.32Z"/><circle class="cls-1" cx="18.53" cy="23.19" r="2.05"/></svg>