<svg id="Layer_1" data-name="Layer 1" xmlns="http://www.w3.org/2000/svg" viewBox="0 0 50.46 50.46"><defs><style>.cls-1{fill:#65b4e1;}</style></defs><title>documento</title><path class="cls-1" d="M40,31.93l-.06-17.56v-.08L33.66,7.6l-.06-.06H14.35a3.91,3.91,0,0,0-3.9,3.9V39a3.91,3.91,0,0,0,3.9,3.9H36.11A3.91,3.91,0,0,0,40,39V31.93Zm-3-18H34.35l0-2.89ZM38.3,31.87h0V39a2.18,2.18,0,0,1-2.18,2.18H14.35A2.18,2.18,0,0,1,12.17,39V11.44a2.18,2.18,0,0,1,2.18-2.18h18l0,5.65a1,1,0,0,0,1,1c.35,0,2.75,0,4.89,0Z"/><path class="cls-1" d="M33,20.25H17.51a.86.86,0,1,0,0,1.73H33a.86.86,0,0,0,0-1.73Z"/><path class="cls-1" d="M33,23.9H17.51a.86.86,0,1,0,0,1.73H33a.86.86,0,0,0,0-1.73Z"/><path class="cls-1" d="M33,27.55H17.51a.86.86,0,0,0,0,1.73H33a.86.86,0,0,0,0-1.73Z"/><path class="cls-1" d="M33,31.21H17.51a.86.86,0,1,0,0,1.73H33a.86.86,0,0,0,0-1.73Z"/></svg>