<?xml version="1.0" encoding="utf-8"?>
<!-- Generator: Adobe Illustrator 22.1.0, SVG Export Plug-In . SVG Version: 6.00 Build 0)  -->
<svg version="1.1" id="Layer_1" xmlns="http://www.w3.org/2000/svg" xmlns:xlink="http://www.w3.org/1999/xlink" x="0px" y="0px"
	 viewBox="0 0 50.5 50.5" style="enable-background:new 0 0 50.5 50.5;" xml:space="preserve">
<style type="text/css">
	.st0{fill:#12B5E1;}
</style>
<g>
	<path class="st0" d="M46,8.7c-0.2-0.3-0.6-0.5-1-0.4v0c-9,1.1-14.8,4.4-19.7,11.3c0,0-0.6,0.8-0.6,0.9c-2.1,3-2.1,6.4,0,8.5
		l-1.7,2.3c-0.3,0.4-0.2,1,0.2,1.3c0.2,0.1,0.3,0.2,0.5,0.2c0.3,0,0.6-0.1,0.7-0.4l1.7-2.3c0.7,0.4,1.5,0.5,2.3,0.5
		c2.1,0,4.3-1.2,5.9-3.4l0.1-0.2v0l0,0c0,0,0,0,0,0c0.1-0.1,0.1-0.1,0.2-0.2l0.2-0.3c0,0,0,0,0,0l0.1-0.2l0,0c2.8-4,3-5.1,2.8-7
		c0.6,0.2,1,0.3,1.3,0.3c0.3,0,0.5-0.1,0.7-0.3c0.2-0.2,0.3-0.4,0.2-0.7c-0.2-3.6,2.1-5.5,5.5-8.5l0.3-0.3C46.2,9.6,46.3,9.1,46,8.7
		z M38.2,17.5c-0.2-0.1-0.4-0.2-0.6-0.2C37.3,17.2,37,17,36.8,17c-0.4-0.1-0.7,0-1,0.3c-0.2,0.3-0.3,0.7-0.1,1c0,0,0,0.1,0.1,0.3
		l0.1,0.6c0.3,1.8,0.4,2.2-2.8,6.7C33,25.9,33,26,32.9,26.2c-1.6,2.2-3.8,3.2-5.6,2.5l4.5-6.4c0.3-0.4,0.2-1-0.2-1.3
		c-0.4-0.3-1-0.2-1.3,0.2l-4.5,6.4c-1.3-1.5-1.1-3.8,0.4-6c0.1-0.1,0.6-0.9,0.6-0.9c4.1-5.8,8.6-8.8,15.5-10.1
		C40.1,12.6,38.5,14.6,38.2,17.5z"/>
	<path class="st0" d="M32.6,20.5c0.3,0,0.6-0.1,0.7-0.4l0.1-0.1c0.3-0.4,0.2-1-0.2-1.3c-0.4-0.3-1-0.2-1.3,0.2l-0.1,0.1
		c-0.3,0.4-0.2,1,0.2,1.3C32.2,20.5,32.4,20.5,32.6,20.5z"/>
	<path class="st0" d="M41.6,36.3c0-0.1,0-0.1,0-0.2c0-0.1-0.1-0.1-0.1-0.2c0,0-0.1-0.1-0.1-0.1c-0.1,0-0.1-0.1-0.2-0.1
		c0,0-0.1-0.1-0.1-0.1c-0.1,0-0.2-0.1-0.3-0.1H39l-1-8.9c-0.1-0.5-0.5-0.9-1-0.8c-0.5,0.1-0.8,0.5-0.8,1l1,8.7h-0.4H19.1
		c-0.2,0-0.5,0.1-0.7,0.3c-0.2,0.2-0.3,0.4-0.2,0.7l0.1,2.1c0,0.7-0.2,1.4-0.6,1.8c-0.4,0.4-0.8,0.6-1.3,0.6c-1.2,0-2.2-1.1-2.2-2.5
		l-2-24.7c-0.1-2.1-0.5-3.5-1.1-4.4h20.6c0.6,0,1.3,0.3,1.7,0.9c0.2,0.2,0.4,0.3,0.7,0.3c0.2,0,0.4-0.1,0.6-0.2
		c0.4-0.3,0.5-0.9,0.2-1.3c-0.8-1-1.9-1.6-3.1-1.6H8.1c-1,0-1.9,0.4-2.6,1.1c-0.8,0.8-1.2,2-1.1,3.1c0.1,1.7,1.4,3,2.9,3l0.8,0
		c0.5,0,0.9-0.4,0.9-0.9c0-0.5-0.4-0.9-0.9-0.9l-0.8,0c-0.6,0-1.1-0.6-1.1-1.3c0-0.7,0.2-1.4,0.6-1.8c0.4-0.4,0.8-0.6,1.3-0.6
		c1.8,0,2.2,2.8,2.2,4.5l2,24.7c0.1,2.3,1.9,4.2,4,4.2c0.1,0,0.2,0,0.3,0c0,0,0.1,0,0.1,0H38c1,0,1.9-0.4,2.6-1.1
		c0.8-0.8,1.2-2,1.1-3.1l-0.1-2.1C41.6,36.4,41.6,36.4,41.6,36.3z M39.3,40.5c-0.2,0.3-0.7,0.6-1.3,0.6H19.4
		c0.4-0.7,0.7-1.6,0.6-2.5L20,37.4h16.8h3l0.1,1.3C39.9,39.4,39.7,40.1,39.3,40.5z"/>
</g>
</svg>
