<?xml version="1.0" encoding="utf-8"?>
<!-- Generator: Adobe Illustrator 24.2.1, SVG Export Plug-In . SVG Version: 6.00 Build 0)  -->
<svg version="1.1" id="Capa_1" xmlns="http://www.w3.org/2000/svg" xmlns:xlink="http://www.w3.org/1999/xlink" x="0px" y="0px"
	 viewBox="0 0 50.5 50.5" style="enable-background:new 0 0 50.5 50.5;" xml:space="preserve">
<g>
	<path d="M35.6,32h2.6c0.4,0,0.8-0.4,0.8-0.8c0-0.4-0.4-0.8-0.8-0.8h-2.6c-0.4,0-0.8,0.4-0.8,0.8C34.8,31.6,35.2,32,35.6,32z"/>
	<path d="M46.8,39.7c-1.6,0-2.5,0.4-3.2,0.8c-0.7,0.3-1.3,0.6-2.6,0.6s-1.9-0.3-2.6-0.6c-0.8-0.4-1.6-0.8-3.2-0.8
		c-1.6,0-2.5,0.4-3.2,0.8c-0.7,0.3-1.3,0.6-2.6,0.6c-1.3,0-1.9-0.3-2.6-0.6c-0.8-0.4-1.6-0.8-3.2-0.8c-1.6,0-2.5,0.4-3.2,0.8
		c-0.7,0.3-1.3,0.6-2.6,0.6s-1.9-0.3-2.6-0.6c-0.8-0.4-1.6-0.8-3.2-0.8c-0.4,0-0.8,0.4-0.8,0.8s0.4,0.8,0.8,0.8
		c1.3,0,1.9,0.3,2.6,0.6c0.8,0.4,1.6,0.8,3.2,0.8c1.6,0,2.5-0.4,3.2-0.8c0.7-0.3,1.3-0.6,2.6-0.6c1.3,0,1.9,0.3,2.6,0.6
		c0.8,0.4,1.6,0.8,3.2,0.8c1.6,0,2.5-0.4,3.2-0.8c0.7-0.3,1.3-0.6,2.6-0.6s1.9,0.3,2.6,0.6c0.8,0.4,1.6,0.8,3.2,0.8s2.5-0.4,3.2-0.8
		c0.7-0.3,1.3-0.6,2.6-0.6c0.4,0,0.8-0.4,0.8-0.8S47.3,39.7,46.8,39.7z"/>
	<path d="M11.7,26.1c-0.1-0.2-0.3-0.4-0.6-0.4l-2-0.3l-3.2-3l0.6-3.6c1.2-0.2,2.2-1.3,2.1-2.6c0-0.1,0-0.3-0.1-0.4l2.8-2.1
		c0.4,0.4,0.9,0.6,1.5,0.6c0.1,0,0.1,0,0.2,0c0.6,0,1.2-0.2,1.7-0.6c0.1-0.1,0.1-0.1,0.2-0.2l3,1.8c0,0.1,0,0.3,0,0.4
		c0,0.6,0.2,1.2,0.6,1.6l-0.3,4.2H16c-0.6,0-1.1,0.5-1.1,1.1v2.8c0,0.6,0.4,1,0.9,1.1v3.2h-2.4c-0.3,0-0.5,0.1-0.7,0.4
		c-0.1,0.2-0.2,0.5,0,0.8l2.7,5.2h-0.1c-0.8-0.4-1.6-0.8-3.2-0.8c-0.4,0-0.8,0.4-0.8,0.8c0,0.4,0.4,0.8,0.8,0.8
		c1.3,0,1.9,0.3,2.6,0.6c0.8,0.4,1.6,0.8,3.2,0.8c1.6,0,2.5-0.4,3.2-0.8c0.7-0.3,1.3-0.6,2.6-0.6s1.9,0.3,2.6,0.6
		c0.8,0.4,1.6,0.8,3.2,0.8s2.5-0.4,3.2-0.8c0.7-0.3,1.3-0.6,2.6-0.6s1.9,0.3,2.6,0.6c0.8,0.4,1.6,0.8,3.2,0.8c1.6,0,2.5-0.4,3.2-0.8
		c0.7-0.3,1.3-0.6,2.6-0.6c0.4,0,0.8-0.4,0.8-0.8c0-0.4-0.4-0.8-0.8-0.8c-1.5,0-2.3,0.3-3,0.7l2.8-7.3c0.1-0.2,0.1-0.5-0.1-0.7
		c-0.1-0.2-0.4-0.3-0.7-0.3h-0.3v-7.4c0-0.5-0.4-1-1-1H31.9c-0.5,0-1,0.4-1,1v7.4H30c-0.1,0-0.3,0-0.4,0.1l-3.3,2.1h-1.2v-3.2
		c0.5-0.1,0.9-0.5,0.9-1.1v-2.8c0-0.6-0.5-1.1-1.1-1.1h-2.5l-0.3-4c0.5-0.5,0.8-1.1,0.8-1.8c0-1.4-1.1-2.6-2.6-2.6
		c-0.6,0-1.1,0.2-1.5,0.5l-3.3-2c0-1.3-1-2.4-2.3-2.5c-0.7-0.1-1.3,0.2-1.9,0.6c-0.5,0.4-0.8,1.1-0.9,1.7c0,0.1,0,0.3,0,0.4l-3,2.2
		c-0.4-0.3-1-0.5-1.5-0.4c-1.4,0.1-2.5,1.3-2.4,2.7c0,0.8,0.5,1.6,1.1,2L4,22.1c-0.5,0.4-0.9,0.8-1.2,1.3c-0.2,0.4-0.1,0.9,0.3,1.1
		c0.4,0.2,0.9,0.1,1.1-0.3c0.2-0.3,0.4-0.5,0.6-0.7l3.3,3.2c0.1,0.1,0.3,0.2,0.4,0.2l1.2,0.2l-0.1,0.2c-0.5,1-1.5,1.6-2.6,1.6H6.8
		c-1.6,0-3-1.2-3.1-2.8c0-0.4-0.4-0.8-0.9-0.7c-0.4,0-0.8,0.4-0.7,0.9c0.2,2.4,2.3,4.3,4.7,4.3c0.1,0,0.2,0,0.2,0
		c1.7-0.1,3.1-1,3.9-2.5l0.6-1.2C11.8,26.6,11.8,26.4,11.7,26.1z M39,20.7h4.9v2.5H39V20.7z M39,24.8h4.9v2.7H39V24.8z M32.5,20.7
		h4.9v2.5h-4.9V20.7z M26.5,31.2L26.5,31.2c0.1,0.1,0.3,0.1,0.4,0l3.3-2.1h3.4c0.4,0,0.8-0.4,0.8-0.8c0-0.4-0.4-0.8-0.8-0.8h-1.1
		v-2.7h4.9v2.7h-1.3c-0.4,0-0.8,0.4-0.8,0.8c0,0.4,0.4,0.8,0.8,0.8h8.6l-0.5,1.3h-3.4c-0.4,0-0.8,0.4-0.8,0.8c0,0.4,0.4,0.8,0.8,0.8
		h2.8l-1.7,4.4v0.1c-0.3,0-0.5,0.1-0.9,0.1c-1.3,0-1.9-0.3-2.6-0.6c-0.8-0.4-1.6-0.8-3.2-0.8c-1.6,0-2.5,0.4-3.2,0.8
		c-0.7,0.3-1.3,0.6-2.6,0.6c-1.3,0-1.9-0.3-2.6-0.6c-0.8-0.4-1.6-0.8-3.2-0.8c-1.6,0-2.5,0.4-3.2,0.8c-0.7,0.3-1.3,0.6-2.6,0.6
		c-0.1,0-0.2,0-0.4,0l-1.3-2.4h2.5c0.4,0,0.8-0.4,0.8-0.8c0-0.4-0.4-0.8-0.8-0.8h-3.4l-0.7-1.4H26.5z M20.3,14.8c0.6,0,1,0.4,1,1
		c0,0.5-0.4,1-1,1c-0.5,0-1-0.4-1-1C19.3,15.3,19.7,14.8,20.3,14.8z M20.8,21.6h-1.1l0.2-3.3c0.1,0,0.3,0,0.4,0c0.1,0,0.1,0,0.2,0
		L20.8,21.6z M24.5,23.1v1.8h-0.1h-1.5c-0.4,0-0.8,0.4-0.8,0.8c0,0.4,0.4,0.8,0.8,0.8h0.6v3.1h-6.1v-3.1H20c0.4,0,0.8-0.4,0.8-0.8
		c0-0.4-0.4-0.8-0.8-0.8h-3.5v-1.8H24.5z M12.4,11c0.2-0.1,0.4-0.2,0.6-0.2h0.1c0.5,0,0.9,0.5,0.9,1c-0.1,0.2-0.2,0.5-0.4,0.6
		c-0.2,0.2-0.4,0.2-0.7,0.2c-0.3,0-0.5-0.1-0.6-0.3c-0.2-0.2-0.2-0.4-0.2-0.7C12.1,11.3,12.2,11.1,12.4,11z M5.1,16.3
		c0-0.5,0.4-1,0.9-1c0.6,0,1,0.4,1,0.9s-0.4,1-0.9,1S5.1,16.8,5.1,16.3z"/>
</g>
</svg>
