<?xml version="1.0" encoding="utf-8"?>
<!-- Generator: Adobe Illustrator 24.2.1, SVG Export Plug-In . SVG Version: 6.00 Build 0)  -->
<svg version="1.1" id="Layer_1" xmlns="http://www.w3.org/2000/svg" xmlns:xlink="http://www.w3.org/1999/xlink" x="0px" y="0px"
	 viewBox="0 0 50.46 50.46" style="enable-background:new 0 0 50.46 50.46;" xml:space="preserve">
<path d="M44.587,34.94l-3.253,3.253c-0.323-0.169-0.685-0.274-1.075-0.274c-0.131,0-0.258,0.018-0.384,0.039
	c-0.036-0.094-0.082-0.185-0.138-0.272c-1.858-2.871-4.005-5.494-5.86-7.682c-0.001-0.001-0.003-0.003-0.004-0.005
	c-0.09-0.104-0.183-0.207-0.276-0.309l-0.007-0.008c0.161-2.979,0.161-5.995,0-8.974l0.008-0.009
	c0.093-0.102,0.186-0.204,0.279-0.313c1.855-2.187,4.001-4.809,5.861-7.683c0.042-0.065,0.063-0.137,0.094-0.206
	c0.139,0.026,0.281,0.043,0.427,0.043c0.39,0,0.752-0.105,1.075-0.274l3.253,3.253c0.137,0.137,0.316,0.205,0.495,0.205
	s0.358-0.068,0.495-0.205c0.273-0.273,0.273-0.717,0-0.99l-3.253-3.253c0.169-0.323,0.274-0.685,0.274-1.075
	c0-1.29-1.049-2.339-2.339-2.339c-0.39,0-0.752,0.105-1.075,0.274L35.93,4.882c-0.273-0.273-0.717-0.273-0.99,0s-0.273,0.717,0,0.99
	l3.253,3.253c-0.169,0.323-0.274,0.686-0.274,1.075c0,0.109,0.018,0.212,0.032,0.317c-0.091,0.036-0.18,0.081-0.265,0.135
	c-2.873,1.859-5.495,4.006-7.686,5.864c-0.106,0.091-0.209,0.186-0.313,0.28l-0.005,0.004c-2.978-0.161-5.991-0.16-8.966,0
	l-0.007-0.006c-0.104-0.095-0.208-0.189-0.318-0.285c-2.179-1.85-4.795-3.993-7.688-5.859c-0.062-0.04-0.132-0.06-0.198-0.09
	c0.019-0.118,0.036-0.237,0.036-0.361c0-0.39-0.105-0.752-0.274-1.075l3.253-3.253c0.273-0.273,0.273-0.717,0-0.99
	s-0.717-0.273-0.99,0l-3.253,3.253c-0.323-0.169-0.685-0.274-1.075-0.274c-1.29,0-2.339,1.049-2.339,2.339
	c0,0.39,0.105,0.752,0.274,1.075L4.882,14.53c-0.273,0.273-0.273,0.717,0,0.99c0.137,0.137,0.316,0.205,0.495,0.205
	s0.358-0.068,0.495-0.205l3.253-3.253c0.323,0.169,0.685,0.274,1.075,0.274c0.12,0,0.235-0.018,0.35-0.035
	c0.031,0.068,0.062,0.135,0.102,0.198c1.866,2.893,4.008,5.509,5.861,7.691c0.092,0.106,0.187,0.21,0.281,0.314l0.006,0.007
	c-0.161,2.975-0.161,5.985,0,8.959l-0.01,0.011c-0.093,0.103-0.187,0.206-0.281,0.314c-1.849,2.177-3.99,4.792-5.858,7.688
	c-0.054,0.083-0.085,0.175-0.12,0.265c-0.109-0.016-0.218-0.034-0.331-0.034c-0.39,0-0.752,0.105-1.075,0.274L5.873,34.94
	c-0.273-0.273-0.717-0.273-0.99,0s-0.273,0.717,0,0.99l3.253,3.253c-0.169,0.323-0.274,0.686-0.274,1.075
	c0,1.29,1.049,2.339,2.339,2.339c0.39,0,0.752-0.105,1.075-0.274l3.253,3.253c0.137,0.137,0.316,0.205,0.495,0.205
	s0.358-0.068,0.495-0.205c0.273-0.273,0.273-0.717,0-0.99l-3.253-3.253c0.169-0.323,0.274-0.685,0.274-1.075
	c0-0.143-0.018-0.281-0.042-0.416c0.07-0.031,0.139-0.062,0.205-0.105c2.896-1.868,5.51-4.009,7.691-5.861
	c0.106-0.092,0.211-0.187,0.314-0.281l0.007-0.006c2.978,0.161,5.992,0.16,8.967,0l0.008,0.007c0.102,0.093,0.204,0.186,0.313,0.28
	c2.188,1.855,4.811,4.002,7.683,5.861c0.086,0.055,0.18,0.088,0.273,0.124c-0.022,0.13-0.04,0.261-0.04,0.397
	c0,0.39,0.105,0.752,0.274,1.075l-3.253,3.253c-0.273,0.273-0.273,0.717,0,0.99c0.137,0.137,0.316,0.205,0.495,0.205
	s0.358-0.068,0.495-0.205l3.253-3.253c0.323,0.169,0.685,0.274,1.075,0.274c1.29,0,2.339-1.049,2.339-2.339
	c0-0.39-0.105-0.752-0.274-1.075l3.253-3.253c0.273-0.273,0.273-0.717,0-0.99S44.861,34.667,44.587,34.94z M40.259,9.461
	c0.408,0,0.74,0.332,0.74,0.74s-0.332,0.74-0.74,0.74s-0.74-0.332-0.74-0.74S39.851,9.461,40.259,9.461z M9.461,10.201
	c0-0.408,0.332-0.74,0.74-0.74s0.74,0.332,0.74,0.74s-0.332,0.74-0.74,0.74S9.461,10.609,9.461,10.201z M10.201,40.999
	c-0.408,0-0.74-0.332-0.74-0.74s0.332-0.74,0.74-0.74s0.74,0.332,0.74,0.74S10.609,40.999,10.201,40.999z M31.044,32.661
	l-0.549-0.492c-0.158-0.138-0.36-0.202-0.572-0.196c-3.132,0.183-6.312,0.183-9.448,0c-0.213-0.009-0.415,0.058-0.572,0.196
	l-0.27,0.242c-0.093,0.085-0.187,0.169-0.278,0.249c-2.018,1.714-4.418,3.684-7.052,5.428c1.744-2.633,3.713-5.033,5.424-7.048
	c0.081-0.094,0.165-0.186,0.248-0.277l0.247-0.276c0.137-0.157,0.207-0.363,0.195-0.571c-0.182-3.132-0.182-6.308,0-9.44
	c0.012-0.209-0.058-0.415-0.196-0.572l-0.243-0.271c-0.085-0.093-0.169-0.186-0.248-0.277c-1.715-2.019-3.684-4.419-5.428-7.052
	c2.631,1.743,5.032,3.712,7.048,5.425c0.096,0.082,0.188,0.167,0.281,0.251l0.271,0.243c0.158,0.138,0.368,0.206,0.572,0.196
	c3.131-0.182,6.311-0.182,9.448,0c0.213,0.011,0.414-0.058,0.572-0.196l0.269-0.242c0.092-0.084,0.185-0.168,0.275-0.246
	c2.027-1.719,4.432-3.692,7.046-5.43c-1.738,2.614-3.71,5.02-5.426,7.042c-0.081,0.094-0.164,0.185-0.246,0.275l-0.246,0.274
	c-0.137,0.158-0.207,0.363-0.195,0.571c0.182,3.137,0.182,6.317,0,9.455c-0.012,0.209,0.058,0.415,0.196,0.572l0.491,0.548
	c1.718,2.027,3.69,4.431,5.426,7.042C35.473,36.349,33.067,34.376,31.044,32.661z M40.259,40.999c-0.408,0-0.74-0.332-0.74-0.74
	s0.332-0.74,0.74-0.74s0.74,0.332,0.74,0.74S40.667,40.999,40.259,40.999z M21.397,25.268c0.005,0.474-0.375,0.861-0.849,0.866
	c-0.474,0.005-0.861-0.375-0.866-0.849s0.375-0.861,0.849-0.866S21.392,24.795,21.397,25.268z M30.778,25.174
	c0.005,0.474-0.375,0.861-0.849,0.866c-0.474,0.005-0.861-0.375-0.866-0.849s0.375-0.861,0.849-0.866S30.774,24.701,30.778,25.174z
	 M24.326,20.548c-0.005-0.474,0.375-0.861,0.849-0.866c0.474-0.005,0.861,0.375,0.866,0.849c0.005,0.474-0.375,0.861-0.849,0.866
	S24.33,21.021,24.326,20.548z M26.135,29.912c0.005,0.474-0.375,0.861-0.849,0.866s-0.861-0.375-0.866-0.849
	s0.375-0.861,0.849-0.866C25.742,29.059,26.13,29.439,26.135,29.912z M26.275,25.22c0.006,0.577-0.457,1.049-1.034,1.055
	s-1.049-0.457-1.055-1.034s0.457-1.049,1.034-1.055S26.269,24.643,26.275,25.22z"/>
</svg>
