<?xml version="1.0" encoding="utf-8"?>
<!-- Generator: Adobe Illustrator 24.2.1, SVG Export Plug-In . SVG Version: 6.00 Build 0)  -->
<svg version="1.1" id="Layer_1" xmlns="http://www.w3.org/2000/svg" xmlns:xlink="http://www.w3.org/1999/xlink" x="0px" y="0px"
	 viewBox="0 0 50.46 50.46" style="enable-background:new 0 0 50.46 50.46;" xml:space="preserve">
<path d="M38.079,26.132c0,0.387-0.313,0.7-0.7,0.7h-0.1c-0.387,0-0.7-0.313-0.7-0.7s0.313-0.7,0.7-0.7h0.1
	C37.765,25.432,38.079,25.746,38.079,26.132z M32.278,25.432h-0.1c-0.387,0-0.7,0.313-0.7,0.7s0.313,0.7,0.7,0.7h0.1
	c0.387,0,0.7-0.313,0.7-0.7S32.665,25.432,32.278,25.432z M18.798,25.432h-0.1c-0.387,0-0.7,0.313-0.7,0.7s0.313,0.7,0.7,0.7h0.1
	c0.387,0,0.7-0.313,0.7-0.7S19.185,25.432,18.798,25.432z M13.698,25.432h-0.1c-0.387,0-0.7,0.313-0.7,0.7s0.313,0.7,0.7,0.7h0.1
	c0.387,0,0.7-0.313,0.7-0.7S14.084,25.432,13.698,25.432z M48.586,25.731c0,1.369-1.017,1.992-1.962,1.992h-3.556
	c-0.672,0-1.318,0.336-1.819,0.947c-0.76,0.929-1.817,1.461-2.901,1.461h-2.705l1.944,5.512c0.128,0.365-0.063,0.765-0.427,0.893
	c-0.077,0.027-0.156,0.04-0.233,0.04c-0.289,0-0.559-0.18-0.66-0.467l-2.109-5.978H31.61l-0.16,0.542
	c-0.42,2.843-3.109,2.843-4.257,2.843h-3.927c-1.148,0-3.837,0-4.278-2.937l-0.135-0.448h-2.552l-2.109,5.978
	c-0.102,0.288-0.372,0.467-0.66,0.467c-0.077,0-0.156-0.013-0.233-0.04c-0.365-0.128-0.556-0.528-0.427-0.893l1.945-5.512h-2.705
	c-1.099,0-2.129-0.519-2.901-1.461c-0.5-0.611-1.146-0.947-1.818-0.947H3.835c-0.945,0-1.962-0.624-1.962-1.992
	c0-0.981,0.626-1.702,1.674-1.928l2.169-0.285v-1.334c0-1.13,0.721-2.088,1.724-2.459c-0.017-0.072-0.044-0.14-0.044-0.217v-0.344
	H3.054c-0.387,0-0.7-0.313-0.7-0.7s0.313-0.7,0.7-0.7h4.343V17.75c0-0.525,0.425-0.95,0.95-0.95s0.95,0.425,0.95,0.95v0.013h4.343
	c0.387,0,0.7,0.313,0.7,0.7s-0.313,0.7-0.7,0.7H9.297v0.344c0,0.077-0.026,0.145-0.044,0.217c1.003,0.371,1.723,1.329,1.723,2.459
	v0.643l4.576-0.602c0.323-0.072,1.13-0.314,1.985-0.569c2.262-0.677,4.058-1.194,4.883-1.194h5.617c0.825,0,2.621,0.518,4.883,1.194
	c0.855,0.255,1.662,0.497,2.042,0.579l4.52,0.592v-0.644c0-1.13,0.72-2.088,1.723-2.459c-0.017-0.072-0.044-0.14-0.044-0.217v-0.344
	H36.82c-0.387,0-0.7-0.313-0.7-0.7s0.313-0.7,0.7-0.7h4.343V17.75c0-0.525,0.425-0.95,0.95-0.95s0.95,0.425,0.95,0.95v0.013h4.343
	c0.387,0,0.7,0.313,0.7,0.7s-0.313,0.7-0.7,0.7h-4.343v0.344c0,0.077-0.026,0.145-0.044,0.217c1.003,0.371,1.723,1.329,1.723,2.459
	v1.333l2.113,0.277c0.019,0.002,0.038,0.005,0.057,0.01C47.96,24.029,48.586,24.75,48.586,25.731z M40.884,23.01l2.459,0.322v-1.149
	c0-0.678-0.551-1.229-1.229-1.229s-1.229,0.551-1.229,1.229V23.01z M7.117,23.333l2.459-0.323v-0.827
	c0-0.678-0.551-1.229-1.229-1.229s-1.23,0.551-1.23,1.229V23.333z M47.186,25.731c0-0.15,0-0.428-0.543-0.554l-11.918-1.564
	c-0.49-0.103-1.284-0.341-2.204-0.616c-1.512-0.452-3.796-1.135-4.482-1.135h-5.617c-0.686,0-2.97,0.683-4.482,1.135
	c-0.919,0.275-1.714,0.513-2.147,0.606L3.787,25.181c-0.513,0.113-0.513,0.397-0.513,0.55c0,0.146,0,0.592,0.562,0.592h3.557
	c1.1,0,2.13,0.519,2.901,1.461c0.501,0.611,1.146,0.948,1.818,0.948h7.262c0.311,0,0.584,0.205,0.671,0.503l0.307,1.044
	c0.219,1.414,0.922,1.838,2.915,1.838h3.927c1.992,0,2.695-0.424,2.894-1.745l0.329-1.138c0.087-0.298,0.361-0.502,0.671-0.502
	h7.261c0.672,0,1.318-0.336,1.818-0.948c0.771-0.942,1.802-1.461,2.902-1.461h3.556C47.186,26.323,47.186,25.877,47.186,25.731z
	 M27.54,25.54c0.13,0,0.26-0.03,0.37-0.1c0.16-0.1,0.27-0.25,0.31-0.44c0.04-0.18,0.01-0.37-0.09-0.52
	c-0.19-0.32-0.64-0.43-0.96-0.23c-0.16,0.1-0.27,0.25-0.31,0.43c-0.05,0.19-0.01,0.37,0.08,0.53
	C27.07,25.42,27.29,25.54,27.54,25.54z M28.03,26.35c-0.36-0.1-0.76,0.13-0.86,0.49l-0.01,0.02c-0.31,1.03-1.48,1.66-2.51,1.35
	c-0.85-0.26-1.44-1.05-1.44-1.93c0-0.2,0.03-0.39,0.09-0.58c0.29-0.97,1.33-1.58,2.29-1.41c0.37,0.07,0.74-0.19,0.81-0.56
	c0.07-0.38-0.18-0.75-0.56-0.82c-0.2-0.03-0.4-0.05-0.61-0.05c-1.52,0-2.83,0.97-3.27,2.43c-0.1,0.31-0.15,0.64-0.15,0.99
	c0,1.49,1,2.83,2.44,3.27c0.32,0.09,0.65,0.14,0.98,0.14c1.52,0,2.83-0.98,3.27-2.43c0.01-0.01,0.01-0.03,0.01-0.04
	C28.62,26.85,28.4,26.46,28.03,26.35z"/>
</svg>
