<svg id="Layer_1" data-name="Layer 1" xmlns="http://www.w3.org/2000/svg" viewBox="0 0 50.46 50.46"><defs><style>.cls-1{fill:#65b4e1;}</style></defs><title>ducha </title><path class="cls-1" d="M24.11,25.15a9.31,9.31,0,0,0-.72-1,.22.22,0,0,0-.33,0,9.3,9.3,0,0,0-.71,1,3,3,0,0,0-.52,1.43,1.4,1.4,0,0,0,2.81,0A3,3,0,0,0,24.11,25.15Z"/><path class="cls-1" d="M29.39,25.12a9.31,9.31,0,0,0-.72-1,.22.22,0,0,0-.33,0,9.3,9.3,0,0,0-.71,1,3,3,0,0,0-.52,1.43,1.4,1.4,0,0,0,2.81,0A3,3,0,0,0,29.39,25.12Z"/><path class="cls-1" d="M33.95,24.1a.22.22,0,0,0-.33,0,9.3,9.3,0,0,0-.71,1,3,3,0,0,0-.52,1.43,1.4,1.4,0,0,0,2.81,0,3,3,0,0,0-.53-1.42A9.31,9.31,0,0,0,33.95,24.1Z"/><path class="cls-1" d="M26,29.26a.22.22,0,0,0-.33,0,9.3,9.3,0,0,0-.71,1,3,3,0,0,0-.52,1.43,1.4,1.4,0,0,0,2.81,0,3,3,0,0,0-.53-1.42A9.31,9.31,0,0,0,26,29.26Z"/><path class="cls-1" d="M31.31,29.24a.22.22,0,0,0-.33,0,9.3,9.3,0,0,0-.71,1,3,3,0,0,0-.52,1.43,1.4,1.4,0,0,0,2.81,0A3,3,0,0,0,32,30.24,9.31,9.31,0,0,0,31.31,29.24Z"/><path class="cls-1" d="M39.13,20a2.42,2.42,0,0,0-2.42-2.41h-.14a7.81,7.81,0,0,0-7.24-6.22V10a4.1,4.1,0,0,0-4.1-4.1H15.43a4.1,4.1,0,0,0-4.1,4.1V43.47a1.08,1.08,0,0,0,2.16,0V10a1.94,1.94,0,0,1,1.94-1.94h9.81A1.94,1.94,0,0,1,27.17,10v1.44a7.79,7.79,0,0,0-6.71,6.22h-.16a2.42,2.42,0,0,0-2.41,2.43v.23a2.42,2.42,0,0,0,2.42,2.41h0l16.39-.07a2.42,2.42,0,0,0,2.41-2.43ZM28.5,13.15h0a6.17,6.17,0,0,1,6.21,4.46l-12.44.05A6.19,6.19,0,0,1,28.5,13.15Zm8.22,7.57-16.39.07h0a.48.48,0,0,1-.47-.47v-.23a.48.48,0,0,1,.47-.47l16.39-.07h0a.48.48,0,0,1,.47.47v.23A.48.48,0,0,1,36.71,20.72Z"/></svg>