<svg id="Layer_1" data-name="Layer 1" xmlns="http://www.w3.org/2000/svg" viewBox="0 0 50.46 50.46"><defs><style>.cls-1{fill:#65b4e1;}</style></defs><title>ducha negativo</title><path class="cls-1" d="M29.39,25.12l-.06-.1L27.16,26.9a1.4,1.4,0,0,0,2.76-.35A3,3,0,0,0,29.39,25.12Z"/><path class="cls-1" d="M33.95,24.1a.22.22,0,0,0-.33,0,9.3,9.3,0,0,0-.71,1,3,3,0,0,0-.52,1.43,1.4,1.4,0,0,0,2.81,0,3,3,0,0,0-.53-1.42A9.31,9.31,0,0,0,33.95,24.1Z"/><path class="cls-1" d="M26,29.26a.22.22,0,0,0-.33,0,9.3,9.3,0,0,0-.71,1,3,3,0,0,0-.52,1.43,1.4,1.4,0,0,0,2.81,0,3,3,0,0,0-.53-1.42A9.31,9.31,0,0,0,26,29.26Z"/><path class="cls-1" d="M31.31,29.24a.22.22,0,0,0-.33,0,9.3,9.3,0,0,0-.71,1,3,3,0,0,0-.52,1.43,1.4,1.4,0,0,0,2.81,0A3,3,0,0,0,32,30.24,9.31,9.31,0,0,0,31.31,29.24Z"/><path class="cls-1" d="M38.41,18.3a2.4,2.4,0,0,0-.72-.49l-2,1.74h1a.48.48,0,0,1,.47.47v.23a.48.48,0,0,1-.47.47h-2.4l-2.27,2,4.68,0a2.42,2.42,0,0,0,2.41-2.43V20A2.4,2.4,0,0,0,38.41,18.3Z"/><path class="cls-1" d="M13.49,10a1.94,1.94,0,0,1,1.94-1.94h9.81A1.94,1.94,0,0,1,27.17,10v1.44a7.79,7.79,0,0,0-6.71,6.22h-.16a2.42,2.42,0,0,0-2.41,2.43v.23a2.42,2.42,0,0,0,2.42,2.41h0l4,0,2.27-2-6.24,0h0a.48.48,0,0,1-.47-.47v-.23a.48.48,0,0,1,.47-.47l7.61,0,2.27-2-7.89,0a6.19,6.19,0,0,1,6.2-4.51h0A6.74,6.74,0,0,1,33.25,15l1.37-1.18a8.43,8.43,0,0,0-5.28-2.43V10a4.1,4.1,0,0,0-4.1-4.1H15.43a4.1,4.1,0,0,0-4.1,4.1V33.88L13.49,32Z"/><path class="cls-1" d="M11.33,43.47a1.08,1.08,0,0,0,2.16,0V38.68l-2.16,1.86Z"/><path class="cls-1" d="M43.24,9.71a1.17,1.17,0,0,0-1.65-.12L7.35,39.1a1.17,1.17,0,1,0,1.53,1.77L43.11,11.36A1.17,1.17,0,0,0,43.24,9.71Z"/></svg>