<svg id="Layer_1" data-name="Layer 1" xmlns="http://www.w3.org/2000/svg" viewBox="0 0 50.46 50.46"><defs><style>.cls-1{fill:#12b5e1;}</style></defs><title>dut</title><path class="cls-1" d="M18.78,16.15h13.1a.81.81,0,0,0,0-1.62H18.78a.81.81,0,1,0,0,1.62Z"/><path class="cls-1" d="M32.06,19.09a.54.54,0,0,0-.18,0h-16a.8.8,0,0,0-.81.79h0a.81.81,0,0,0,.81.81h16a.81.81,0,0,0,.18-1.61Z"/><path class="cls-1" d="M35.51,6.45H16.19a2.76,2.76,0,0,0-2,.87L9,12.81a2.77,2.77,0,0,0-.75,1.89L8.18,40a4.07,4.07,0,0,0,4.07,4H35.51a4.08,4.08,0,0,0,4.07-4V10.52A4.07,4.07,0,0,0,35.51,6.45ZM14.26,9.86v3.43H11.12ZM37.93,40a2.43,2.43,0,0,1-2.42,2.41H12.25A2.43,2.43,0,0,1,9.83,40V15.17h5.36a1,1,0,0,0,.93-.94V8.11H35.51a2.42,2.42,0,0,1,2.42,2.41Z"/><path class="cls-1" d="M26.13,25.63v4.95H24.64v-2.2H23.15v2.23h1.47v1.48H23.14v.72s0,0,0,0H21.64v1.5h1.49v1.49H20.91v1.48H19.44V32.83h2.2V31.34H19.43V29.11h2.2V23.89H16.42V29.1h1.49v2.24H16.44v3h1.47V35.8H16.44v3h1.48V37.32h1.49V38.8h1.51V37.31h2.24V38.8h8.18V33.58H26.12v3.71H24.63V32.1h1.49V30.61h2.23v1.48h3V30.58h-3V29.1h3V23.89H26.13ZM19.4,32.81H17.92V31.34H19.4ZM17.94,27.6V25.39h2.22V27.6Zm11.91,7.47v2.22H27.63V35.07Zm-2.23-9.68h2.23V27.6H27.62Z"/><rect class="cls-1" x="22.37" y="23.89" width="1.51" height="2.98"/></svg>