<?xml version="1.0" encoding="utf-8"?>
<!-- Generator: Adobe Illustrator 24.0.2, SVG Export Plug-In . SVG Version: 6.00 Build 0)  -->
<svg version="1.1" id="Layer_1" xmlns="http://www.w3.org/2000/svg" xmlns:xlink="http://www.w3.org/1999/xlink" x="0px" y="0px"
	 viewBox="0 0 50.5 50.5" style="enable-background:new 0 0 50.5 50.5;" xml:space="preserve">
<path d="M12.8,38c-6.1,0-11.1-5-11.1-11c0-6.1,5-11,11.1-11c2.7,0,5.2,0.9,7.2,2.7l0.7-0.6c0.4-0.3,0.9-0.4,1.4-0.2
	c0.5,0.2,0.8,0.6,0.8,1.1l0.2,5.3c0,0.4-0.1,0.7-0.4,1c-0.3,0.3-0.6,0.4-1,0.4L16.1,25c-0.5,0-1-0.4-1.1-0.9c-0.2-0.5,0-1,0.4-1.4
	l0.6-0.5c-0.9-0.6-2-0.9-3.1-0.9c-1.6,0-3,0.6-4.1,1.8c-1.1,1.1-1.6,2.6-1.5,4.2c0.1,2.8,2.5,5.2,5.4,5.3c1.6,0.1,3.2-0.5,4.3-1.6
	l5.1-4.5c0,0,0,0,0.1-0.1l8.2-7.3c2-2,4.8-3.1,7.7-3.1c6.1,0,11.1,5,11.1,11c0,6.1-5,11-11.1,11c-3,0-5.7-1.1-7.8-3.2l-2.8-2.5
	c-0.3-0.3-0.5-0.6-0.5-1c0-0.4,0.2-0.8,0.5-1l2.1-1.7c0.5-0.4,1.3-0.4,1.8,0l2.7,2.3c1.2,1.2,2.6,1.8,4.1,1.8c1.6,0,3-0.6,4.1-1.8
	c1.1-1.1,1.6-2.6,1.5-4.2c-0.1-2.8-2.5-5.2-5.4-5.3c-1.6-0.1-3.2,0.5-4.3,1.6l-5.1,4.5c0,0,0,0-0.1,0.1l-8.2,7.3
	C18.6,36.8,15.7,38,12.8,38z M12.8,17.5c-5.2,0-9.5,4.2-9.5,9.4c0,5.2,4.3,9.4,9.5,9.4c2.5,0,4.9-1,6.6-2.7l8.2-7.3c0,0,0,0,0.1-0.1
	l5.1-4.6c1.4-1.4,3.4-2.2,5.5-2.1c3.7,0.2,6.7,3.2,6.9,6.9c0.1,2-0.6,3.9-2,5.3c-1.4,1.4-3.3,2.3-5.3,2.3c-1.9,0-3.8-0.8-5.2-2.2
	l-2.5-2.2l-1.7,1.4l2.6,2.3c1.8,1.8,4.2,2.8,6.7,2.8c5.2,0,9.5-4.2,9.5-9.4c0-5.2-4.3-9.4-9.5-9.4c-2.5,0-4.9,1-6.6,2.7l-8.2,7.3
	c0,0,0,0-0.1,0.1l-5.1,4.5c-1.4,1.4-3.4,2.2-5.5,2.1C8.8,34,5.7,31,5.6,27.3c-0.1-2,0.6-3.9,2-5.3c1.4-1.4,3.3-2.3,5.3-2.3
	c1.8,0,3.5,0.6,4.9,1.9c0.2,0.2,0.3,0.4,0.3,0.6c0,0.2-0.1,0.4-0.3,0.6l-0.8,0.7l4.6,0.4l-0.2-4.3l-0.8,0.7c-0.3,0.3-0.8,0.3-1.1,0
	C17.7,18.4,15.3,17.5,12.8,17.5z"/>
</svg>
