<?xml version="1.0" encoding="utf-8"?>
<!-- Generator: Adobe Illustrator 24.0.2, SVG Export Plug-In . SVG Version: 6.00 Build 0)  -->
<svg version="1.1" id="Layer_1" xmlns="http://www.w3.org/2000/svg" xmlns:xlink="http://www.w3.org/1999/xlink" x="0px" y="0px"
	 viewBox="0 0 50.5 50.5" style="enable-background:new 0 0 50.5 50.5;" xml:space="preserve">
<path d="M38,16.4c-2.8,0-5.5,1.1-7.3,3l-8.2,7.3c0,0,0,0,0,0l-5.1,4.5c-1.3,1.3-2.9,1.9-4.7,1.8c-3.1-0.2-5.7-2.7-5.9-5.9
	c-0.1-1.7,0.5-3.3,1.7-4.6c1.2-1.2,2.8-1.9,4.5-1.9c1.5,0,2.8,0.5,3.9,1.4l-1.1,1c-0.2,0.2-0.3,0.5-0.2,0.8c0.1,0.3,0.3,0.5,0.6,0.5
	l5.6,0.5c0.2,0,0.4-0.1,0.6-0.2c0.2-0.1,0.2-0.4,0.2-0.6l-0.2-5.3c0-0.3-0.2-0.5-0.5-0.7c-0.3-0.1-0.6-0.1-0.8,0.1l-1.1,1
	c-2-1.8-4.5-2.8-7.2-2.8C7,16.4,2.3,21.1,2.3,26.9c0,5.8,4.7,10.5,10.5,10.5c2.8,0,5.5-1.1,7.3-3l8.2-7.3c0,0,0,0,0,0l5.1-4.5
	c1.3-1.3,2.9-1.9,4.7-1.8c3.1,0.2,5.7,2.7,5.9,5.9c0.1,1.7-0.5,3.3-1.7,4.6c-1.2,1.2-2.8,1.9-4.5,1.9c-1.7,0-3.2-0.7-4.5-1.9
	l-2.7-2.3c-0.3-0.3-0.8-0.3-1.1,0l-2.1,1.7c-0.2,0.2-0.3,0.4-0.3,0.6c0,0.2,0.1,0.5,0.3,0.6l2.8,2.5c2,2,4.6,3.1,7.4,3.1
	c5.8,0,10.5-4.7,10.5-10.5C48.5,21.1,43.8,16.4,38,16.4z"/>
</svg>
