<?xml version="1.0" encoding="utf-8"?>
<!-- Generator: Adobe Illustrator 24.2.1, SVG Export Plug-In . SVG Version: 6.00 Build 0)  -->
<svg version="1.1" id="Capa_1" xmlns="http://www.w3.org/2000/svg" xmlns:xlink="http://www.w3.org/1999/xlink" x="0px" y="0px"
	 viewBox="0 0 50.5 50.5" style="enable-background:new 0 0 50.5 50.5;" xml:space="preserve">
<g>
	<path d="M17.683,36.006c-0.909-0.928-2.197-1.46-3.542-1.462c-1.448,0.044-2.819,0.57-3.888,1.487
		c-1.077-0.892-2.444-1.417-3.89-1.488c-1.336,0.003-2.624,0.535-3.537,1.468c-1.278,1.37-1.913,3.201-1.742,5.012
		c0.173,3.397,3.063,7.5,6.393,7.5c0.759-0.004,1.519-0.175,2.196-0.495c0.327-0.154,0.718-0.153,1.043-0.001
		c0.682,0.324,1.443,0.496,2.203,0.496c0.002,0,0.004,0,0.007,0c3.336,0,6.225-4.104,6.391-7.483
		c0.203-1.806-0.39-3.638-1.625-5.023C17.689,36.012,17.686,36.009,17.683,36.006z M10.782,37.643l0.08-0.067
		c0.798-0.655,1.792-1.471,3.283-1.471c0.896,0.001,1.762,0.355,2.367,0.963c0.973,1.062,1.452,2.471,1.314,3.867
		c0,0.005-0.001,0.009-0.001,0.014c-0.137,2.669-2.431,6.055-4.816,6.055c-0.006,0-0.012,0-0.018,0c-0.515,0-1.031-0.114-1.489-0.33
		c-0.771-0.376-1.693-0.378-2.463-0.001c-0.463,0.22-0.982,0.339-1.5,0.342c-2.427,0-4.675-3.33-4.815-6.071
		c-0.147-1.396,0.324-2.809,1.284-3.866c0.613-0.616,1.479-0.971,2.374-0.972c1.381,0,2.462,0.796,3.366,1.541
		C10.041,37.892,10.484,37.893,10.782,37.643z"/>
	<path d="M9.745,34.569c0.013,0.005,0.027,0.008,0.041,0.01c0.042,0.007,0.084,0.01,0.12,0.01c0.031,0,0.056-0.002,0.073-0.006
		c0.304,0,0.58-0.186,0.682-0.453c0.008-0.02,0.808-2.032-0.081-3.783c-0.784-1.546-2.623-2.289-3.055-2.383l0-0.001
		c-0.369-0.097-0.743,0.085-0.889,0.442c-0.125,0.349-0.712,2.169,0.095,3.758C7.596,33.871,9.657,34.542,9.745,34.569z
		 M7.804,29.627c0.613,0.323,1.113,0.789,1.448,1.341c0.261,0.615,0.337,1.273,0.227,1.922c-0.613-0.325-1.112-0.796-1.444-1.353
		C7.775,30.926,7.697,30.271,7.804,29.627z"/>
	<path d="M20.319,19.161h-2.836c-0.442,0-0.8,0.358-0.8,0.8v10.95c0,0.441,0.358,0.8,0.8,0.8h1.878c0.442,0,0.8-0.358,0.8-0.8
		s-0.358-0.8-0.8-0.8h-1.079v-9.35h2.036c0.442,0,0.8-0.358,0.8-0.8S20.761,19.161,20.319,19.161z"/>
	<path d="M13.701,33.104c0.021,0,0.041-0.001,0.061-0.002c0.441-0.033,0.771-0.418,0.738-0.858l-0.902-11.944
		c-0.113-2.53,1.411-4.812,3.792-5.68c0.316-0.115,0.526-0.415,0.526-0.751V6.083h1.055h0.391h1.055v7.785
		c0,0.336,0.21,0.637,0.526,0.751c0.568,0.207,1.099,0.502,1.578,0.876c0.146,0.114,0.32,0.169,0.492,0.169
		c0.238,0,0.473-0.105,0.631-0.307c0.272-0.348,0.21-0.851-0.138-1.123c-0.461-0.36-0.96-0.663-1.489-0.904V6.074
		c0.431-0.012,0.778-0.361,0.778-0.795V3.025c0-0.889-0.723-1.612-1.612-1.612h-1.821h-0.391H17.15
		c-0.889,0-1.612,0.723-1.612,1.612v2.254c0,0.434,0.347,0.783,0.778,0.795v7.257c-2.737,1.238-4.453,4-4.316,7.064l0.904,11.969
		C12.936,32.784,13.287,33.104,13.701,33.104z M17.15,3.013h1.821l2.224,0.012v1.454h-1.833h-0.391h-1.829L17.15,3.013z"/>
	<path d="M48.321,26.1c-0.021-0.279-0.188-0.527-0.438-0.654c-0.25-0.125-0.549-0.112-0.785,0.037l-4.757,2.985V26.16
		c0-0.289-0.155-0.555-0.406-0.697c-0.251-0.141-0.56-0.138-0.807,0.012l-5.017,3.023v-2.62c0-0.44-0.355-0.797-0.795-0.8
		c-0.001,0-0.003,0-0.005,0c-0.188,0-0.359,0.064-0.496,0.172c-0.307,0.206-2.707,1.69-4.708,2.923l-0.657-10.512
		c-0.026-0.422-0.376-0.75-0.799-0.75h-4.564c-0.426,0-0.777,0.333-0.799,0.758l-1.542,29.726c-0.011,0.219,0.068,0.433,0.219,0.592
		s0.361,0.249,0.58,0.249h26.581c0.223,0,0.436-0.093,0.587-0.256s0.228-0.382,0.211-0.604L48.321,26.1z M23.389,46.637
		l1.459-28.126H27.9l0.693,11.091c0.018,0.28,0.181,0.531,0.431,0.66c0.248,0.131,0.549,0.119,0.787-0.028
		c2.311-1.421,3.774-2.32,4.701-2.913v2.594c0,0.288,0.155,0.555,0.406,0.696c0.251,0.143,0.56,0.139,0.807-0.011l5.017-3.023v2.338
		c0,0.291,0.158,0.56,0.413,0.7c0.254,0.14,0.567,0.131,0.812-0.022l4.858-3.049l1.439,19.094H23.389z"/>
	<path d="M33.257,35.166h-2.468c-0.441,0-0.8,0.358-0.8,0.8s0.358,0.8,0.8,0.8h2.468c0.441,0,0.8-0.358,0.8-0.8
		S33.698,35.166,33.257,35.166z"/>
	<path d="M38.854,35.166h-2.469c-0.441,0-0.8,0.358-0.8,0.8s0.358,0.8,0.8,0.8h2.469c0.441,0,0.8-0.358,0.8-0.8
		S39.295,35.166,38.854,35.166z"/>
	<path d="M44.45,35.166h-2.469c-0.441,0-0.8,0.358-0.8,0.8s0.358,0.8,0.8,0.8h2.469c0.441,0,0.8-0.358,0.8-0.8
		S44.892,35.166,44.45,35.166z"/>
	<path d="M5.876,40.217c0.199-0.394,0.041-0.875-0.353-1.074c-0.395-0.199-0.876-0.042-1.075,0.354
		c-1.001,1.98,0.468,4.132,0.531,4.223c0.155,0.223,0.403,0.342,0.656,0.342c0.157,0,0.315-0.046,0.454-0.142
		c0.363-0.25,0.454-0.748,0.206-1.111C6.284,42.793,5.308,41.343,5.876,40.217z"/>
	<path d="M5.601,37.401l-0.004,0.005c-0.295,0.328-0.267,0.832,0.062,1.127c0.152,0.138,0.343,0.205,0.534,0.205
		c0.22,0,0.44-0.091,0.599-0.267c0.295-0.328,0.269-0.834-0.06-1.13C6.402,37.045,5.896,37.073,5.601,37.401z"/>
</g>
</svg>
