<?xml version="1.0" encoding="utf-8"?>
<!-- Generator: Adobe Illustrator 24.0.2, SVG Export Plug-In . SVG Version: 6.00 Build 0)  -->
<svg version="1.1" id="Layer_1" xmlns="http://www.w3.org/2000/svg" xmlns:xlink="http://www.w3.org/1999/xlink" x="0px" y="0px"
	 viewBox="0 0 50.5 50.5" style="enable-background:new 0 0 50.5 50.5;" xml:space="preserve">
<path d="M49.476,30.397c0,3.483-2.834,6.317-6.317,6.317H25.73v-2.951h17.297c1.856,0,3.366-1.51,3.366-3.366
	c0-1.856-1.51-3.366-3.366-3.366H25.73v-0.29V24.08v-0.29h17.297c1.856,0,3.366-1.51,3.366-3.366c0-1.856-1.51-3.366-3.366-3.366
	H25.73v-2.951h17.428c3.483,0,6.317,2.834,6.317,6.317c0,2.027-0.964,3.83-2.453,4.987C48.512,26.567,49.476,28.37,49.476,30.397z
	 M17.275,13.538c-2.027,0-3.83,0.964-4.987,2.453c-1.157-1.489-2.959-2.453-4.987-2.453c-3.483,0-6.317,2.834-6.317,6.317v16.784
	h2.951V19.986c0-1.856,1.51-3.366,3.366-3.366c1.856,0,3.366,1.51,3.366,3.366v16.653h0.29h2.661h0.29V19.986
	c0-1.856,1.51-3.366,3.366-3.366c1.856,0,3.366,1.51,3.366,3.366v16.653h2.951V19.855C23.592,16.372,20.758,13.538,17.275,13.538z
	 M6.317,19.348H6.052c-0.044,0-0.08,0.036-0.08,0.08v17.193c0,0.044,0.036,0.08,0.08,0.08h0.265c0.044,0,0.08-0.036,0.08-0.08
	V19.428C6.397,19.384,6.361,19.348,6.317,19.348z M8.551,19.348H8.286c-0.044,0-0.08,0.036-0.08,0.08v17.193
	c0,0.044,0.036,0.08,0.08,0.08h0.265c0.044,0,0.08-0.036,0.08-0.08V19.428C8.631,19.384,8.595,19.348,8.551,19.348z M16.291,19.348
	h-0.265c-0.044,0-0.08,0.036-0.08,0.08v17.193c0,0.044,0.036,0.08,0.08,0.08h0.265c0.044,0,0.08-0.036,0.08-0.08V19.428
	C16.371,19.384,16.335,19.348,16.291,19.348z M18.524,19.348h-0.265c-0.044,0-0.08,0.036-0.08,0.08v17.193
	c0,0.044,0.036,0.08,0.08,0.08h0.265c0.044,0,0.08-0.036,0.08-0.08V19.428C18.604,19.384,18.568,19.348,18.524,19.348z
	 M25.891,19.606h17.234c0.044,0,0.08-0.036,0.08-0.08v-0.265c0-0.044-0.036-0.08-0.08-0.08H25.891c-0.044,0-0.08,0.036-0.08,0.08
	v0.265C25.811,19.57,25.847,19.606,25.891,19.606z M25.811,21.76c0,0.044,0.036,0.08,0.08,0.08h17.234c0.044,0,0.08-0.036,0.08-0.08
	v-0.265c0-0.044-0.036-0.08-0.08-0.08H25.891c-0.044,0-0.08,0.036-0.08,0.08V21.76z M25.891,29.712h17.234
	c0.044,0,0.08-0.036,0.08-0.08v-0.265c0-0.044-0.036-0.08-0.08-0.08H25.891c-0.044,0-0.08,0.036-0.08,0.08v0.265
	C25.811,29.676,25.847,29.712,25.891,29.712z M25.811,31.865c0,0.044,0.036,0.08,0.08,0.08h17.234c0.044,0,0.08-0.036,0.08-0.08
	V31.6c0-0.044-0.036-0.08-0.08-0.08H25.891c-0.044,0-0.08,0.036-0.08,0.08V31.865z"/>
</svg>
