<svg id="Layer_1" data-name="Layer 1" xmlns="http://www.w3.org/2000/svg" viewBox="0 0 50.46 50.46"><defs><style>.cls-1{fill:#65b4e1;}</style></defs><title>educacion</title><path class="cls-1" d="M14.57,11.3a1,1,0,1,0,0,1.92H33.74a1,1,0,1,0,0-1.92Z"/><path class="cls-1" d="M36.37,15.19H14.3a3,3,0,0,1,0-6H36.37a1,1,0,0,0,0-1.92H14.3a4.94,4.94,0,0,0-4.93,4.93V38.28a4.94,4.94,0,0,0,4.93,4.93H36.37a1,1,0,0,0,1-1V26.63l-.22.23-1.68,1.75,0,0V41.28H14.3a3,3,0,0,1-3-3V16.09a4.94,4.94,0,0,0,3,1h21.1v1.59l.21-.21c.57-.56,1.13-1.09,1.68-1.59l0,0v-.73A1,1,0,0,0,36.37,15.19Z"/><path class="cls-1" d="M27.79,32.62c.46.43,1.1.16,1.53-.3l1.09-1.16-2.08-2-1.09,1.16c-.43.46-.7,1.07-.24,1.5l.11.1a2.28,2.28,0,0,1-2.88-.06s-2.65,1.17-2.37,3.76A5,5,0,0,1,20.75,39l3-3.24a.79.79,0,0,1,.1-1.16,1,1,0,0,1,1.42,1.33.91.91,0,0,1-1.16.17l-3.09,3.19A7.08,7.08,0,0,1,24.29,38c2.61.12,3.64-2.58,3.64-2.58a2.28,2.28,0,0,1-.24-2.87Z"/><path class="cls-1" d="M46.17,12.28c-.76-.71-5.52,3.13-10.77,8.72-1.53,1.63-4.34,4.73-6.59,7.31l2.46,2.31c2.44-2.41,5.32-5.37,6.84-7C43.36,18,46.93,13,46.17,12.28Z"/></svg>