<?xml version="1.0" encoding="utf-8"?>
<!-- Generator: Adobe Illustrator 22.1.0, SVG Export Plug-In . SVG Version: 6.00 Build 0)  -->
<svg version="1.1" id="Layer_1" xmlns="http://www.w3.org/2000/svg" xmlns:xlink="http://www.w3.org/1999/xlink" x="0px" y="0px"
	 viewBox="0 0 50.5 50.5" style="enable-background:new 0 0 50.5 50.5;" xml:space="preserve">
<style type="text/css">
	.st0{fill:#12B5E1;}
</style>
<title>educacion</title>
<g>
	<path class="st0" d="M35.7,33.6c-0.5,0-1,0.4-1,1v8.2c0,0,0,0,0,0H13.6c-1.7,0-3-1.4-3-3V14.6c0,0,0,0,0,0c0.9,0.6,1.7,1,3,1h21.1
		c0,0,0,0,0,0v3.3c0,0.5,0.4,0.9,0.9,0.9h0c0.5,0,0.9-0.4,0.9-0.9v-4.3c0-0.5-0.4-0.9-0.9-1H13.8c-1.6,0-3.1-1.2-3.2-2.9
		c-0.1-1.7,1.3-3.1,3-3.1h22.1c0.5-0.2,0.8-0.7,0.7-1.2c-0.1-0.3-0.4-0.6-0.7-0.7H13.6c-2.7,0-4.9,2.2-4.9,4.9v29.1
		c0,2.7,2.2,4.9,4.9,4.9h22c0.6,0,1-0.5,1-1v-9.1C36.6,34.1,36.2,33.6,35.7,33.6z"/>
	<path class="st0" d="M45.3,19.6l-1.1-1.4c-0.4-0.5-1-0.8-1.7-0.9c-0.7-0.1-1.3,0.1-1.8,0.5L24.3,31.2c0,0,0,0-0.1,0.1
		c0,0-0.1,0.1-0.1,0.1c0,0-0.1,0.1-0.1,0.2c0,0,0,0.1,0,0.1l-1.2,4L22,36.4c-0.4,0.3-0.4,0.9-0.1,1.3c0.2,0.2,0.4,0.3,0.7,0.3
		c0.2,0,0.4-0.1,0.6-0.2L24,37l4.1-0.4c0,0,0,0,0.1,0c0.1,0,0.1,0,0.2-0.1c0,0,0.1,0,0.1-0.1c0,0,0.1,0,0.1,0l16.3-13.3
		c0.5-0.4,0.8-1,0.9-1.7C45.9,20.7,45.7,20.1,45.3,19.6z M25.3,33.7l1,1.2l-1.4,0.2L25.3,33.7z M43.8,21.7L28.2,34.4l-2-2.4
		l15.6-12.8c0.1-0.1,0.3-0.2,0.5-0.1c0.2,0,0.3,0.1,0.4,0.2l1.1,1.4C44,20.9,44,21,44,21.2C44,21.4,43.9,21.6,43.8,21.7z"/>
	<path class="st0" d="M15,9.9c-0.5,0-0.9,0.4-0.9,0.9s0.4,0.9,0.9,0.9h17.5c0.5,0,0.9-0.4,0.9-0.9s-0.4-0.9-0.9-0.9H15z"/>
</g>
</svg>
