<svg id="Layer_1" data-name="Layer 1" xmlns="http://www.w3.org/2000/svg" viewBox="0 0 50.46 50.46"><defs><style>.cls-1{fill:#65b4e1;}</style></defs><title>electrodependientes 1</title><path class="cls-1" d="M34.37,4.78a10.34,10.34,0,0,0-7.13,2.91q-.31-.3-.65-.58a10.24,10.24,0,0,0-14,14.82c.44.49,12.52,14.43,12.63,14.57l.06.06a2.81,2.81,0,0,0,2,.91h0a2.81,2.81,0,0,0,2-.92l.06-.06,1.07-1.23.08-.1,2.54-3,0-.05s1.79-2.29,3.79-2.35a3.43,3.43,0,0,1,2.69,1.48A3.16,3.16,0,0,1,40.3,34c-.48,2.47-3.48,5.36-8,7.72-7.27,3.8-11.6.07-16.12-4.8l-.41-.45A3.78,3.78,0,0,0,15.49,32l-1.37-1.6.32-.27a1.05,1.05,0,0,0-1.37-1.6l-1.12,1-1.79-2.1a.81.81,0,0,0-1.22,1l1.79,2.1L9.06,31.94l-1.79-2.1a.81.81,0,0,0-1.22,1L7.84,33,6.71,34a1.05,1.05,0,1,0,1.37,1.6l.32-.27,1.37,1.6a3.75,3.75,0,0,0,2.57,1.3h.3A3.76,3.76,0,0,0,13.92,38l.54.6c2.78,3,6.6,7.11,12.19,7.11a14.48,14.48,0,0,0,6.73-1.83c5.23-2.73,8.59-6.14,9.22-9.35a5.51,5.51,0,0,0-1.29-4.75,5.69,5.69,0,0,0-4.54-2.3c-3,.08-5.29,2.89-5.56,3.24l-3.05,3.58-.58.66a.63.63,0,0,1-.33.21.62.62,0,0,1-.32-.2c-.7-.81-12.18-14.07-12.64-14.58A7.89,7.89,0,0,1,25.11,8.93a8,8,0,0,1,1.21,1.23,1.17,1.17,0,0,0,1.84,0A7.9,7.9,0,0,1,42.27,15s0,0,0,.07c0,.24-.15,1.46-.2,1.7h0a7.9,7.9,0,0,1-1.86,3.57l-2,2.32A1.17,1.17,0,1,0,40,24.2l2-2.27a10.26,10.26,0,0,0,2.42-4.66h0l0-.08v0a1.19,1.19,0,0,0,0-.17c.08-.54.19-1.48.2-1.84,0,0,0-.06,0-.09A10.26,10.26,0,0,0,34.37,4.78ZM12.49,36.24a1.81,1.81,0,0,1-1.25-.63L9.87,34l2.78-2.38L14,33.23a1.82,1.82,0,0,1-1.53,3Z"/></svg>