<svg id="Layer_1" data-name="Layer 1" xmlns="http://www.w3.org/2000/svg" viewBox="0 0 50.46 50.46"><defs><style>.cls-1{fill:#65b4e1;}</style></defs><title>electrodependiente 2</title><path class="cls-1" d="M33.55,6.33a11.88,11.88,0,0,0-8.32,3.47q-.42-.42-.88-.8A11.76,11.76,0,0,0,8.21,26c.52.57,14.63,16.87,14.76,17l.06.06a3.08,3.08,0,0,0,2.2,1h0a3.1,3.1,0,0,0,2.21-1L27.5,43c.13-.15,14.4-16.62,14.76-17A11.77,11.77,0,0,0,45,20.73V20.6l0-.1a1.19,1.19,0,0,0,0-.16c.1-.62.22-1.72.23-2.14,0,0,0-.07,0-.1A11.78,11.78,0,0,0,33.55,6.33ZM43,18.15c0,.27-.17,1.75-.24,2h0a9.43,9.43,0,0,1-2.22,4.27c-.28.31-14,16.16-14.77,17a.9.9,0,0,1-.53.3h0a.89.89,0,0,1-.52-.3c-.75-.87-14.21-16.42-14.77-17A9.42,9.42,0,0,1,22.86,10.82a9.54,9.54,0,0,1,1.45,1.47,1.17,1.17,0,0,0,.92.44h0a1.17,1.17,0,0,0,.92-.44A9.42,9.42,0,0,1,43,18.07S43,18.12,43,18.15Z"/><path class="cls-1" d="M25.23,14a10,10,0,1,0,10,10A10,10,0,0,0,25.23,14Zm0,17.64a7.65,7.65,0,1,1,7.65-7.65A7.66,7.66,0,0,1,25.23,31.59Z"/><path class="cls-1" d="M23.82,20.46a1.17,1.17,0,0,0-1.59.47l-1.33,2.45A1.17,1.17,0,1,0,23,24.5L24.3,22A1.17,1.17,0,0,0,23.82,20.46Z"/><path class="cls-1" d="M28.22,20.94A1.17,1.17,0,0,0,26.16,22l1.33,2.45a1.17,1.17,0,0,0,2.06-1.11Z"/><path class="cls-1" d="M25.23,24.45a1.17,1.17,0,0,0-1.17,1.17v2.45a1.17,1.17,0,0,0,2.34,0V25.62A1.17,1.17,0,0,0,25.23,24.45Z"/></svg>