<?xml version="1.0" encoding="utf-8"?>
<!-- Generator: Adobe Illustrator 24.2.1, SVG Export Plug-In . SVG Version: 6.00 Build 0)  -->
<svg version="1.1" id="Layer_1" xmlns="http://www.w3.org/2000/svg" xmlns:xlink="http://www.w3.org/1999/xlink" x="0px" y="0px"
	 viewBox="0 0 50.5 50.5" style="enable-background:new 0 0 50.5 50.5;" xml:space="preserve">
<path d="M22.517,10.567H10.932c-2.999,0-5.438,2.44-5.438,5.439v15.279c0,1.465,1.192,2.657,2.657,2.657h2.546l-5.084,9.172
	c-0.254,0.459-0.088,1.037,0.371,1.292c0.146,0.081,0.304,0.119,0.459,0.119c0.334,0,0.658-0.177,0.832-0.49l0.82-1.48h16.924
	l0.82,1.48c0.174,0.313,0.498,0.49,0.832,0.49c0.156,0,0.313-0.039,0.459-0.119c0.459-0.254,0.625-0.833,0.371-1.292l-5.085-9.172
	h2.882c1.465,0,2.658-1.192,2.658-2.657V16.006C27.956,13.007,25.516,10.567,22.517,10.567z M8.981,40.957l1.605-2.896h11.94
	l1.605,2.896H8.981z M21.64,36.461H11.473l1.396-2.518h7.375L21.64,36.461z M26.056,31.286c0,0.417-0.34,0.757-0.757,0.757H8.15
	c-0.417,0-0.757-0.339-0.757-0.757V16.006c0-1.951,1.587-3.539,3.538-3.539h11.585c1.951,0,3.539,1.587,3.539,3.539V31.286z
	 M11.85,25.208c-1.528,0-2.771,1.243-2.771,2.771s1.243,2.771,2.771,2.771s2.771-1.243,2.771-2.771S13.377,25.208,11.85,25.208z
	 M11.85,29.15c-0.646,0-1.171-0.525-1.171-1.171c0-0.646,0.525-1.171,1.171-1.171c0.646,0,1.171,0.525,1.171,1.171
	C13.021,28.625,12.495,29.15,11.85,29.15z M21.6,25.208c-1.528,0-2.771,1.243-2.771,2.771s1.243,2.771,2.771,2.771
	s2.771-1.243,2.771-2.771S23.127,25.208,21.6,25.208z M21.6,29.15c-0.646,0-1.171-0.525-1.171-1.171
	c0-0.646,0.525-1.171,1.171-1.171c0.646,0,1.171,0.525,1.171,1.171C22.771,28.625,22.245,29.15,21.6,29.15z M21.897,13.735H11.552
	c-1.436,0-2.604,1.168-2.604,2.604v6.68c0,0.442,0.358,0.8,0.8,0.8h13.955c0.442,0,0.8-0.358,0.8-0.8v-6.68
	C24.502,14.903,23.333,13.735,21.897,13.735z M10.547,16.339c0-0.554,0.451-1.005,1.005-1.005h4.365v6.885h-5.37V16.339z
	 M22.902,22.22h-5.386v-6.885h4.381c0.554,0,1.005,0.451,1.005,1.005V22.22z M44.017,5.934H20.447c-0.525,0-0.95,0.425-0.95,0.95
	s0.425,0.95,0.95,0.95h22.619v23.272H30.224c-0.442,0-0.8,0.358-0.8,0.8v5.397c0,0.442,0.358,0.8,0.8,0.8h2.072v4.354h-2.072
	c-0.525,0-0.95,0.425-0.95,0.95s0.425,0.95,0.95,0.95h13.793c0.525,0,0.95-0.425,0.95-0.95V6.884
	C44.967,6.359,44.542,5.934,44.017,5.934z M31.023,32.706h12.043v3.798H31.023V32.706z M33.895,42.457v-4.354h9.171v4.354H33.895z"
	/>
</svg>
