<svg id="Layer_1" data-name="Layer 1" xmlns="http://www.w3.org/2000/svg" viewBox="0 0 50.46 50.46"><defs><style>.cls-1{fill:#65b4e1;}</style></defs><title>embarcacion pago</title><path class="cls-1" d="M23.67,10.13a.73.73,0,0,0-1.46,0v1.66h1.46Z"/><path class="cls-1" d="M19.25,12.47v6.24L21.7,17A2.07,2.07,0,0,1,24,17l2.55,1.73V12.47H19.25Zm5.35.84a.73.73,0,0,1,0,1.46H21.29a.73.73,0,0,1,0-1.46H24.6Z"/><path class="cls-1" d="M25.56,31.11a3.19,3.19,0,0,0,.29.29h.08a2.68,2.68,0,0,0,.3-.29,4.52,4.52,0,0,1,.94-.81h0l.17-.4.3-.69.35-.82.42-1,1.34-3.15.33-.77a.71.71,0,0,0-.25-.86l-2.57-1.74-.34-.23-.34-.23-3.2-2.17V29.88A3.43,3.43,0,0,1,25.56,31.11ZM25.34,23a.55.55,0,0,1,1.1,0s0,0,0,0a.56.56,0,0,1-1.11,0S25.34,23,25.34,23Z"/><path class="cls-1" d="M19.74,31.11a3.19,3.19,0,0,0,.29.29h.08a2.61,2.61,0,0,0,.3-.29,3.52,3.52,0,0,1,1.94-1.19V18.26l-3.1,2.1-.34.23-.34.23-2.68,1.82a.71.71,0,0,0-.25.86l.33.77,1.34,3.15.42,1,.35.82.3.69.1.23A4,4,0,0,1,19.74,31.11ZM19.12,23s0,0,0,0a.55.55,0,0,1,1.1,0s0,0,0,0a.56.56,0,0,1-1.11,0Z"/><path class="cls-1" d="M17.31,30.88h-.15a2.34,2.34,0,0,0-1.83.94l-.17.18a2.93,2.93,0,0,1,.89.56l0,0c.37-.39.6-.61,1.08-.61a1.05,1.05,0,0,1,.73.27l.27.25a2.74,2.74,0,0,1,.94-.51l-.1-.11A2.39,2.39,0,0,0,17.31,30.88Z"/><path class="cls-1" d="M27.7,32.54l0,0c.37-.39.6-.61,1.08-.61a1.28,1.28,0,0,1,1,.53,2.75,2.75,0,0,1,.94-.51l-.11-.11a2.35,2.35,0,0,0-1.83-.94,2.26,2.26,0,0,0-.41,0,2.52,2.52,0,0,0-1.42.9l-.17.18a2.9,2.9,0,0,1,.86.53Z"/><path class="cls-1" d="M31.83,33.44l.11-.08.09-.1a.49.49,0,0,0,.08-.27.51.51,0,0,0-.51-.51h0a2,2,0,0,0-1.3.43,4.41,4.41,0,0,0-.53.5l-.21.21-.19.17a1,1,0,0,1-.42.2l-.26,0h0a1.07,1.07,0,0,1-.75-.29h0a4.23,4.23,0,0,1-.33-.32c-.1-.1-.2-.22-.32-.32L27.2,33a2.07,2.07,0,0,0-1.43-.54h0a2.14,2.14,0,0,0-.74.13,2.09,2.09,0,0,0-.55.31,4.42,4.42,0,0,0-.54.5l-.21.21-.06.06a1.15,1.15,0,0,1-.57.32l-.25,0h0a1.06,1.06,0,0,1-.75-.29h0L22,33.68l-.27-.27a5.46,5.46,0,0,0-.4-.4,2.08,2.08,0,0,0-1-.5,2.28,2.28,0,0,0-.45,0h0a2,2,0,0,0-1.29.43l-.21.17c-.12.11-.23.22-.33.33l-.21.2a1.5,1.5,0,0,1-.47.33l-.09,0A1.17,1.17,0,0,1,17,34h0a1.07,1.07,0,0,1-.75-.29,4.23,4.23,0,0,1-.33-.32,5.44,5.44,0,0,0-.41-.4,2.13,2.13,0,0,0-.88-.47,2.17,2.17,0,0,0-.54-.07.51.51,0,0,0-.51.51.5.5,0,0,0,.24.42l.13.07.11,0h0a1,1,0,0,1,.56.15h0a2.65,2.65,0,0,1,.52.46l.15.16h0A2.2,2.2,0,0,0,17,35h0a2.24,2.24,0,0,0,.41,0l.13,0,.26-.09.08,0h0a2.82,2.82,0,0,0,.84-.65h0l.08-.09a2.52,2.52,0,0,1,.54-.47,1,1,0,0,1,.25-.1,1.13,1.13,0,0,1,.3,0,1,1,0,0,1,.64.2,3.11,3.11,0,0,1,.44.41l.15.16a2.2,2.2,0,0,0,1.68.77,2.25,2.25,0,0,0,1.75-.85h0l.08-.09a3.1,3.1,0,0,1,.45-.41,1.08,1.08,0,0,1,.29-.15,1.1,1.1,0,0,1,.35-.05,1,1,0,0,1,.54.14,2.51,2.51,0,0,1,.54.47l.15.16a3.8,3.8,0,0,0,.3.28,2.06,2.06,0,0,0,1.38.49h0a2.25,2.25,0,0,0,1.75-.85l.08-.09c.37-.39.6-.61,1.09-.61A.5.5,0,0,0,31.83,33.44Z"/><path class="cls-1" d="M21.87,32.54l0,0,.2-.2a1.16,1.16,0,0,1,1.78,0l.11.11.14-.1a2.68,2.68,0,0,1,.8-.4l-.1-.11a2.48,2.48,0,0,0-1.47-.91,2.32,2.32,0,0,0-.36,0,2.19,2.19,0,0,0-.6.08,2.65,2.65,0,0,0-1.23.86L21,32a2.74,2.74,0,0,1,.61.33Z"/><path class="cls-1" d="M29.32,40.26H11.26a2.34,2.34,0,0,1-2.34-2.34V8.26a2.34,2.34,0,0,1,2.34-2.34H30.65l0,6.07a1.06,1.06,0,0,0,1.08,1c.38,0,3,0,5.25,0v19.3h.25a8,8,0,0,1,1.58.16l-.07-21.06v-.09L32,4.13,32,4.06H11.26a4.2,4.2,0,0,0-4.2,4.2V37.92a4.2,4.2,0,0,0,4.2,4.2H29.54a7.92,7.92,0,0,1-.23-1.85ZM35.61,11H32.77l0-3.11Z"/><path class="cls-1" d="M37.27,34.14a6.13,6.13,0,1,0,6.13,6.13A6.13,6.13,0,0,0,37.27,34.14Zm-.5,5.13a2.31,2.31,0,0,0,.78.45,8.61,8.61,0,0,1,.93.43,2.69,2.69,0,0,1,.62.46,1.76,1.76,0,0,1,.38.58,2,2,0,0,1,.13.76,1.77,1.77,0,0,1-.5,1.31,2.21,2.21,0,0,1-1.39.59v.95H37v-.94a2.29,2.29,0,0,1-1.51-.69,2.23,2.23,0,0,1-.53-1.56H36.3a1.26,1.26,0,0,0,.27.87,1,1,0,0,0,.77.3.94.94,0,0,0,.66-.22.77.77,0,0,0,.24-.6.87.87,0,0,0-.22-.62,2,2,0,0,0-.73-.43,8.65,8.65,0,0,1-.89-.39,2.85,2.85,0,0,1-.64-.44,1.78,1.78,0,0,1-.42-.59,2,2,0,0,1-.15-.8,1.78,1.78,0,0,1,.51-1.32,2.17,2.17,0,0,1,1.36-.6v-1h.76v1a2,2,0,0,1,1.32.7A2.31,2.31,0,0,1,39.62,39H38.24a1.31,1.31,0,0,0-.24-.85.78.78,0,0,0-.63-.28.8.8,0,0,0-.6.22.84.84,0,0,0-.21.61A.8.8,0,0,0,36.77,39.26Z"/></svg>