<?xml version="1.0" encoding="utf-8"?>
<!-- Generator: Adobe Illustrator 24.0.1, SVG Export Plug-In . SVG Version: 6.00 Build 0)  -->
<!DOCTYPE svg PUBLIC "-//W3C//DTD SVG 1.1//EN" "http://www.w3.org/Graphics/SVG/1.1/DTD/svg11.dtd" [
	<!ENTITY ns_extend "http://ns.adobe.com/Extensibility/1.0/">
	<!ENTITY ns_ai "http://ns.adobe.com/AdobeIllustrator/10.0/">
	<!ENTITY ns_graphs "http://ns.adobe.com/Graphs/1.0/">
	<!ENTITY ns_vars "http://ns.adobe.com/Variables/1.0/">
	<!ENTITY ns_imrep "http://ns.adobe.com/ImageReplacement/1.0/">
	<!ENTITY ns_sfw "http://ns.adobe.com/SaveForWeb/1.0/">
	<!ENTITY ns_custom "http://ns.adobe.com/GenericCustomNamespace/1.0/">
	<!ENTITY ns_adobe_xpath "http://ns.adobe.com/XPath/1.0/">
]>
<svg version="1.1" id="Layer_1" xmlns:x="&ns_extend;" xmlns:i="&ns_ai;" xmlns:graph="&ns_graphs;"
	 xmlns="http://www.w3.org/2000/svg" xmlns:xlink="http://www.w3.org/1999/xlink" x="0px" y="0px" viewBox="0 0 50.46 50.46"
	 enable-background="new 0 0 50.46 50.46" xml:space="preserve">
<metadata>
	<sfw  xmlns="&ns_sfw;">
		<slices></slices>
		<sliceSourceBounds  bottomLeftOrigin="true" height="22.345" width="46.116" x="659.942" y="267.328"></sliceSourceBounds>
	</sfw>
</metadata>
<g>
	<path d="M14.786,29.504c-1.907,0-3.449,1.544-3.449,3.449c0,1.906,1.543,3.449,3.449,3.449s3.449-1.544,3.449-3.449
		S16.693,29.504,14.786,29.504z M14.786,34.665c-0.946,0-1.711-0.77-1.711-1.712c0-0.947,0.765-1.712,1.711-1.712
		c0.944,0,1.711,0.765,1.711,1.712C16.497,33.896,15.732,34.665,14.786,34.665z"/>
	<path d="M41.009,29.504c-1.908,0-3.449,1.544-3.449,3.449c0,1.906,1.542,3.449,3.449,3.449s3.449-1.544,3.449-3.449
		S42.917,29.504,41.009,29.504z M41.009,34.665c-0.945,0-1.714-0.77-1.714-1.712c0-0.947,0.77-1.712,1.714-1.712
		c0.945,0,1.71,0.765,1.71,1.712C42.719,33.896,41.958,34.665,41.009,34.665z"/>
	<path d="M47.272,29.365c-0.297-0.848-0.535-1.77-0.913-2.065c-0.454-0.276-4.687-3.25-4.892-3.457
		c-2.108-2.154-7.514-7.202-10.703-7.202l-1.737-0.002v-0.423h0.046c1.346,0,1.134-2.159,0.083-2.159H25.7
		c-0.915,0-1.016,2.159,0.251,2.159h0.044v0.418L5.792,16.597c-0.797,0.045-1.86,0.727-2.197,2.13
		c-0.691,2.868-1.02,6.398-0.993,9.473c0.002,0.154-0.432,0.207-0.43,0.359c0.005,0.41,0.047,2.175,0.076,3.205
		c0.021,0.735,0.502,0.786,1.085,0.892l6.455,0.645c-0.016-0.157-0.023-0.313-0.023-0.475c0-2.627,2.126-4.76,4.754-4.76
		c2.629,0,4.759,2.131,4.759,4.76c0,0.228-0.016,0.452-0.05,0.673c5.015,0.005,11.762,0.072,16.72,0.184
		c-0.053-0.277-0.078-0.562-0.078-0.857c0-2.629,2.129-4.76,4.758-4.76c2.629,0,4.758,2.131,4.758,4.76
		c0,0.244-0.014,0.484-0.053,0.721l2.341-0.228c0.182-0.339,0.542-0.751,0.613-1.253v-2.018
		C48.288,29.727,47.498,29.458,47.272,29.365z M11.459,19.881c0,0.075-0.05,0.132-0.113,0.132H8.382
		c-0.061,0-0.113-0.057-0.113-0.132v-1.81c0-0.07,0.049-0.129,0.113-0.129h2.964c0.061,0,0.113,0.056,0.113,0.129V19.881z
		 M20.203,24.116h-2.411v2.41h-2.067v-2.412h-2.411V22.05h2.411v-2.411h2.067v2.411h2.411V24.116z M25.449,19.881
		c0,0.075-0.053,0.132-0.118,0.132h-2.962c-0.061,0-0.113-0.057-0.113-0.132v-1.81c0-0.07,0.049-0.129,0.113-0.129h2.962
		c0.062,0,0.118,0.056,0.118,0.129V19.881z M32.377,23.907c-0.166-0.031-0.325-0.085-0.461-0.191
		c-0.258-0.201-0.383-0.554-0.461-0.862c-0.244-0.937-0.094-1.84-0.214-2.798c-0.016-0.113-0.012-0.244,0.067-0.332
		c0.115-0.13,0.355-0.139,0.507-0.132l2.843,0.106c0.173,0.04,0.362,0.095,0.518,0.18c0.062,0.036,0.127,0.082,0.187,0.127
		l4.115,3.872l0.005,0.543L32.377,23.907z"/>
</g>
</svg>
