<svg id="Layer_1" data-name="Layer 1" xmlns="http://www.w3.org/2000/svg" viewBox="0 0 50.46 50.46"><defs><style>.cls-1{fill:#65b4e1;}</style></defs><title>empleo 2</title><path class="cls-1" d="M38.68,30.23A5.31,5.31,0,0,0,44,25c.45-1,1.07-2.92.17-4.25a2.55,2.55,0,0,0-3-.72,4.89,4.89,0,0,0-2.94-2.23,4.4,4.4,0,0,0-3.61,1.12c-2.43,1.92-1.54,5.16-1.2,6.14A5.32,5.32,0,0,0,38.68,30.23Zm-4.19-5a11.31,11.31,0,0,0,6.31-3.9h0a10,10,0,0,0,2.06,3.43v.07a.81.81,0,0,1,0,.12,4.21,4.21,0,0,1-8.41.28Z"/><path class="cls-1" d="M11.78,30.23A5.31,5.31,0,0,0,17.07,25c.45-1,1.07-2.92.17-4.25a2.55,2.55,0,0,0-3-.72,4.89,4.89,0,0,0-2.94-2.23,4.4,4.4,0,0,0-3.61,1.12c-2.43,1.92-1.54,5.16-1.2,6.14A5.32,5.32,0,0,0,11.78,30.23Zm-4.19-5a11.31,11.31,0,0,0,6.31-3.9h0A10,10,0,0,0,16,24.75v.07a.81.81,0,0,1,0,.11,4.21,4.21,0,0,1-8.41.28Z"/><path class="cls-1" d="M16.31,33.09l5.47.11a6.35,6.35,0,0,0,7.08,0l5.49-.11a14.5,14.5,0,0,1-1.86-7.71C32.6,19.23,27.67,17.55,25,18a5.89,5.89,0,0,0-2.77,1.15c-2-.07-4.12,1.49-4,6.21A14.5,14.5,0,0,1,16.31,33.09Zm6.86-10a12.16,12.16,0,0,0,7.44,4.69s0,.09,0,.14a5.3,5.3,0,1,1-7.45-4.83Z"/><path class="cls-1" d="M42,30.13l-.06,0-.05,0a6,6,0,0,1-3.23,1,6.16,6.16,0,0,1-3.23-1l-.05,0-.06,0a7.64,7.64,0,0,0-1.28.81L34,31l.08.15c.13.23.26.47.4.69l.06.1.09-.07a7,7,0,0,1,.74-.52,7.18,7.18,0,0,0,3.31.89A6.91,6.91,0,0,0,42,31.35a10.63,10.63,0,0,1,4.23,6.25,14.4,14.4,0,0,1-7.54,2.25,12.62,12.62,0,0,1-2.44-.28l-.21,0,.09.19c.15.31.28.64.41,1l0,.06h.06a12.8,12.8,0,0,0,2.06.19,15.37,15.37,0,0,0,8.59-2.75l0,0v0C47.56,37.39,45.95,32.07,42,30.13Z"/><path class="cls-1" d="M11.78,39.84a15.81,15.81,0,0,1-7.54-2.25,10.64,10.64,0,0,1,4.23-6.25,7.18,7.18,0,0,0,3.31.89,6.91,6.91,0,0,0,3.32-.88A5.29,5.29,0,0,1,16,32l.1.09.06-.11a7.2,7.2,0,0,0,.41-.81l0-.07L16.54,31a6.49,6.49,0,0,0-1.43-.9l-.06,0-.05,0a6,6,0,0,1-3.23,1,6.16,6.16,0,0,1-3.23-1l-.05,0-.06,0c-3.93,1.94-5.54,7.26-5.29,8v0l0,0a16.4,16.4,0,0,0,8.59,2.75,13.93,13.93,0,0,0,2.12-.17H14l0-.06c.12-.31.26-.63.4-.94l.09-.19-.2,0A13.23,13.23,0,0,1,11.78,39.84Z"/><path class="cls-1" d="M29.39,34.11l-.06,0-.05,0a7.46,7.46,0,0,1-4,1.27,7.67,7.67,0,0,1-4-1.27l-.05,0-.06,0c-4.86,2.41-6.86,9-6.55,9.89v0l0,0a20.31,20.31,0,0,0,10.64,3.4,19,19,0,0,0,10.64-3.4l0,0v0C36.25,43.09,34.25,36.52,29.39,34.11Zm5.26,9.26a17.88,17.88,0,0,1-9.39,2.8,19.63,19.63,0,0,1-9.39-2.8c.26-1.46,1.93-5.79,5.28-7.79a8.88,8.88,0,0,0,4.11,1.1,8.55,8.55,0,0,0,4.11-1.1C32.72,37.58,34.39,41.91,34.65,43.37Z"/><path class="cls-1" d="M30.52,12l-1.16-.47a3.92,3.92,0,0,0,0-.74l1.16-.48a.15.15,0,0,0,.08-.2l-.79-1.89a.15.15,0,0,0-.2-.08l-1.16.48a4,4,0,0,0-.53-.52L28.41,7a.15.15,0,0,0-.08-.2L26.41,6a.15.15,0,0,0-.2.08l-.48,1.15a4,4,0,0,0-.75,0l-.48-1.15a.15.15,0,0,0-.2-.08l-1.91.79a.15.15,0,0,0-.08.2l.48,1.15a4,4,0,0,0-.53.52l-1.16-.47a.15.15,0,0,0-.2.08l-.79,1.89a.15.15,0,0,0,.08.2l1.16.47a3.91,3.91,0,0,0,0,.74L20.22,12a.15.15,0,0,0-.08.2l.79,1.89a.15.15,0,0,0,.08.08.15.15,0,0,0,.12,0l1.16-.48a4,4,0,0,0,.53.52l-.48,1.15a.15.15,0,0,0,.08.2l1.91.78a.15.15,0,0,0,.2-.08L25,15.15a4,4,0,0,0,.75,0l.48,1.15a.15.15,0,0,0,.08.08.15.15,0,0,0,.12,0l1.91-.79a.15.15,0,0,0,.08-.2l-.48-1.15a4,4,0,0,0,.53-.52l1.16.47a.15.15,0,0,0,.2-.08l.79-1.89A.15.15,0,0,0,30.52,12Zm-6,1.26a2.27,2.27,0,0,1-1.25-3,2.3,2.3,0,0,1,3-1.24,2.27,2.27,0,0,1,1.25,3A2.3,2.3,0,0,1,24.49,13.29Z"/><path class="cls-1" d="M21.67,6.67l-.43-.4a1.84,1.84,0,0,0,.13-.32l.59,0A.07.07,0,0,0,22,5.86l0-1a.07.07,0,0,0-.07-.07l-.59,0a1.84,1.84,0,0,0-.14-.32l.4-.42a.07.07,0,0,0,0-.1l-.7-.66a.07.07,0,0,0-.1,0l-.4.42a1.87,1.87,0,0,0-.33-.12l0-.58A.07.07,0,0,0,20,3L19,3a.07.07,0,0,0-.07.07l0,.58a1.87,1.87,0,0,0-.32.14l-.43-.4a.07.07,0,0,0-.1,0l-.66.7a.07.07,0,0,0,0,.1l.43.4a1.83,1.83,0,0,0-.13.32l-.59,0A.07.07,0,0,0,17.1,5l0,1a.07.07,0,0,0,0,0l.05,0,.59,0a1.84,1.84,0,0,0,.14.32l-.4.42a.07.07,0,0,0,0,.1l.7.66a.07.07,0,0,0,.1,0l.4-.42a1.87,1.87,0,0,0,.33.12l0,.58a.07.07,0,0,0,0,0l.05,0,1,0a.07.07,0,0,0,.07-.07l0-.58a1.86,1.86,0,0,0,.32-.14l.43.4a.07.07,0,0,0,.1,0l.66-.7A.07.07,0,0,0,21.67,6.67Zm-2.85-.45a1.06,1.06,0,0,1,0-1.51,1.08,1.08,0,0,1,1.52,0,1.06,1.06,0,0,1,0,1.51A1.08,1.08,0,0,1,18.83,6.22Z"/></svg>