<svg id="Layer_1" data-name="Layer 1" xmlns="http://www.w3.org/2000/svg" viewBox="0 0 50.46 50.46"><defs><style>.cls-1{fill:#12b5e1;}</style></defs><title>empresas e industria</title><path class="cls-1" d="M10,11.06V35.45a.7.7,0,0,0,1.4,0V11.06a.7.7,0,1,0-1.4,0Z"/><path class="cls-1" d="M13,11.06V35.45a.71.71,0,0,0,.71.7.7.7,0,0,0,.7-.7V11.06a.7.7,0,0,0-.7-.7A.71.71,0,0,0,13,11.06Z"/><path class="cls-1" d="M16.06,11.06V35.45a.71.71,0,0,0,1.41,0V11.06a.71.71,0,0,0-1.41,0Z"/><path class="cls-1" d="M28.51,36.35H26.69a.83.83,0,0,0,0,1.66h1.82a.83.83,0,0,0,0-1.66Z"/><path class="cls-1" d="M36.12,36.35H34.3a.83.83,0,0,0,0,1.66h1.82a.83.83,0,0,0,0-1.66Z"/><path class="cls-1" d="M48.88,22.39h0a.72.72,0,0,0-1-.16,6.67,6.67,0,0,1-1.53.88c-3.59,1.39-7.35-.86-8.92-3.84-2.12-4-5.64-5.88-9.42-4.94a7.19,7.19,0,0,0-4.59,3.39.83.83,0,0,0,.73,1.23.79.79,0,0,0,.71-.41,5.56,5.56,0,0,1,3.56-2.6c3-.75,5.8.79,7.55,4.1a9.57,9.57,0,0,0,8.14,5.15,7.77,7.77,0,0,0,2.84-.54,7.35,7.35,0,0,0,1.77-1A.92.92,0,0,0,48.88,22.39Z"/><path class="cls-1" d="M42.43,30.94l-.15-2.61h0l0-.27a.83.83,0,0,0-1.2-.71l-6.14,3L34.79,28a.85.85,0,0,0-.4-.69.87.87,0,0,0-.8,0l-6.2,3.1-.55-8.76a1.36,1.36,0,0,0-1.33-1.33H22.12a1.37,1.37,0,0,0-1.34,1.32L19.62,40.29H7.35V8.63H9v-4h8.67v4H19.4v8.72a.92.92,0,0,0,1.83,0V8.11a1.31,1.31,0,0,0-1.31-1.3h-.38V4.09a1.3,1.3,0,0,0-1.3-1.3H8.51A1.29,1.29,0,0,0,7.22,4.08V6.81h-.4A1.29,1.29,0,0,0,5.53,8.1V41.2a.91.91,0,0,0,.91.92H19.51l-.25,4.09a1.42,1.42,0,0,0,.33,1,1.31,1.31,0,0,0,1,.47H42a1.31,1.31,0,0,0,1-.47,1.47,1.47,0,0,0,.34-1l-.94-15.27ZM40.51,46H20.93l1.49-24H25.2l.61,9.78a.84.84,0,0,0,.41.67.88.88,0,0,0,.79,0l6.17-3.08.12,2.33a.82.82,0,0,0,.4.68.84.84,0,0,0,.8,0l6.14-3,1,16.59Z"/></svg>