<?xml version="1.0" encoding="utf-8"?>
<!-- Generator: Adobe Illustrator 24.2.1, SVG Export Plug-In . SVG Version: 6.00 Build 0)  -->
<svg version="1.1" id="Layer_1" xmlns="http://www.w3.org/2000/svg" xmlns:xlink="http://www.w3.org/1999/xlink" x="0px" y="0px"
	 viewBox="0 0 50.46 50.46" style="enable-background:new 0 0 50.46 50.46;" xml:space="preserve">
<path d="M10.003,32.87h30.44c1.287,0,2.33-1.043,2.33-2.33V9.27c0-1.287-1.043-2.33-2.33-2.33h-30.44
	c-1.279,0.011-2.31,1.051-2.31,2.33v21.27C7.693,31.819,8.724,32.859,10.003,32.87z M9.673,9.27c0-0.186,0.145-0.339,0.33-0.35
	h30.44c0.193,0,0.35,0.157,0.35,0.35v19.05H9.673V9.27z M45.793,42.28c-0.227,0.716-0.879,1.212-1.63,1.24H6.303
	c-0.745-0.025-1.396-0.512-1.63-1.22c-0.428-1.016-0.225-2.188,0.52-3l3.64-3.5c0.297-0.29,0.695-0.455,1.11-0.46h30.58
	c0.415,0.005,0.813,0.17,1.11,0.46l3.64,3.5C46.009,40.108,46.212,41.27,45.793,42.28z M31.358,26.35
	c0.181,0.229,0.024,0.566-0.268,0.566H19.377c-0.292,0-0.449-0.337-0.268-0.566c0.648-0.819,1.429-1.578,2.353-2.142
	c1.16,0.634,2.455,0.979,3.776,1.006c1.322-0.013,2.62-0.355,3.776-0.997C29.935,24.777,30.713,25.533,31.358,26.35z M32.418,11.039
	c-0.349,1.923-1.58,2.761-2.522,3.126c-1.117-1.266-2.747-2.071-4.564-2.071c-1.857,0-3.521,0.838-4.639,2.153
	c-0.958-0.311-2.379-1.115-2.759-3.208c-0.093-0.511-0.812-0.558-0.989-0.07c-0.666,1.834-0.934,4.614,2.361,6.37
	c-0.039,0.278-0.066,0.56-0.066,0.849c0,3.359,2.733,6.092,6.093,6.092c3.359,0,6.092-2.733,6.092-6.092
	c0-0.344-0.036-0.68-0.091-1.008c2.992-1.761,2.719-4.431,2.073-6.21C33.23,10.481,32.511,10.529,32.418,11.039z M25.333,23.28
	c-2.808,0-5.093-2.284-5.093-5.092s2.285-5.093,5.093-5.093s5.092,2.285,5.092,5.093S28.141,23.28,25.333,23.28z"/>
</svg>
