<svg id="Layer_1" data-name="Layer 1" xmlns="http://www.w3.org/2000/svg" viewBox="0 0 50.46 50.46"><defs><style>.cls-1{fill:#12b5e1;}</style></defs><title>energia solar industria</title><path class="cls-1" d="M25.54,25.39H22a.89.89,0,0,0,0,1.77h3.53a.89.89,0,1,0,0-1.77Z"/><path class="cls-1" d="M16.35,25.39H12.84a.89.89,0,0,0,0,1.77h3.53a.89.89,0,1,0,0-1.77Z"/><path class="cls-1" d="M11.51,6.82a.85.85,0,0,0,.76-.44,5.89,5.89,0,0,1,3.79-2.77c3.19-.8,6.2.84,8.05,4.38a10.24,10.24,0,0,0,8.7,5.48,8.36,8.36,0,0,0,3-.57,8.14,8.14,0,0,0,1.89-1.05,1,1,0,0,0,.22-1.35h0a.77.77,0,0,0-1.11-.17,6.3,6.3,0,0,1-1.63.93c-3.83,1.49-7.84-.91-9.51-4.09-2.26-4.3-6-6.27-10-5.27a7.71,7.71,0,0,0-4.9,3.61A.89.89,0,0,0,11.51,6.82Z"/><path class="cls-1" d="M9.72,10h3l.65,10.43a.85.85,0,0,0,.44.71.87.87,0,0,0,.83,0l6.58-3.28.13,2.47a.86.86,0,0,0,.43.73.89.89,0,0,0,.85,0L29.15,18l.72,11.32h1.79l-.79-12.76a.88.88,0,0,0-.43-.73.86.86,0,0,0-.85,0L23,19l-.12-2.48a.88.88,0,0,0-1.28-.76L15,19l-.58-9.34A1.47,1.47,0,0,0,13,8.27H9.39A1.46,1.46,0,0,0,8,9.68L6.34,35.9A1.58,1.58,0,0,0,6.7,37a1.43,1.43,0,0,0,1.07.5h9.68l.27-1.77H8.13Z"/><path class="cls-1" d="M34.53,46.17a.76.76,0,0,0-1-.43.76.76,0,0,0-.44,1l.24.56H28.79l.21-.53a.77.77,0,0,0-1.43-.56L27,47.78a.73.73,0,0,0,.08.71.77.77,0,0,0,.63.34h6.81a.77.77,0,0,0,.63-.34.73.73,0,0,0,.08-.71Z"/><path class="cls-1" d="M42.45,31.38a.87.87,0,0,0-.86-.75H20.54a.87.87,0,0,0-.86.75L17.87,44.14a.88.88,0,0,0,.86,1H43.4a.88.88,0,0,0,.86-1Zm-13.85,1h4.92l.13,2.34H28.48Zm-.25,4.08h5.42L34,39H28.17ZM26.11,43.4H19.74l.39-2.63H26.3ZM26.42,39h-6l.38-2.58h5.84Zm.32-4.32H21l.26-2.34h5.57ZM31,43.4H27.85L28,40.77h6.05l.19,2.63Zm4.26-11h5.57l.26,2.34H35.39Zm.25,4.08h5.84L41.74,39h-6ZM36,43.4l-.19-2.63H42l.39,2.63Z"/></svg>