<svg id="Layer_1" data-name="Layer 1" xmlns="http://www.w3.org/2000/svg" viewBox="0 0 50.46 50.46"><defs><style>.cls-1{fill:#65b4e1;}</style></defs><title>energia nuclear</title><path class="cls-1" d="M25.23,7.13a18.1,18.1,0,1,0,18.1,18.1A18.12,18.12,0,0,0,25.23,7.13Zm0,34.28A16.18,16.18,0,1,1,41.41,25.23,16.18,16.18,0,0,1,25.23,41.41Z"/><path class="cls-1" d="M19.9,25.11a5.35,5.35,0,0,1,2.61-4.59l-3.68-6.36A12.78,12.78,0,0,0,12.4,25.23h7.51S19.9,25.15,19.9,25.11Z"/><path class="cls-1" d="M31.62,14.17,28,20.5a5.35,5.35,0,0,1,2.67,4.62s0,.08,0,.12h7.44A12.78,12.78,0,0,0,31.62,14.17Z"/><path class="cls-1" d="M25.27,30.48a5.31,5.31,0,0,1-2.68-.74L18.8,36.28a12.45,12.45,0,0,0,12.77,0L27.83,29.8A5.31,5.31,0,0,1,25.27,30.48Z"/><circle class="cls-1" cx="25.27" cy="25.11" r="3.07"/></svg>