<svg id="Layer_1" data-name="Layer 1" xmlns="http://www.w3.org/2000/svg" viewBox="0 0 50.46 50.46"><defs><style>.cls-1{fill:#65b4e1;}</style></defs><title>energia sustentable 2</title><path class="cls-1" d="M18.69,32.94a4.85,4.85,0,0,1-1.8.89,3.68,3.68,0,0,1-3.64-1.18l-.07-.07c-1.36-1.36-2.76-2.77-4.73-3.06.87-1.66,2.92-4.54,6.75-4.68,1.93-.07,4.82,1.29,5.2,4a.9.9,0,1,0,1.77-.25c-.51-3.58-4.05-5.68-7-5.57-6.61.24-8.81,6.8-8.9,7.07a.9.9,0,0,0,1,1.16c1.93-.24,3.16,1,4.72,2.55l.07.07a5.52,5.52,0,0,0,4,1.81,6.57,6.57,0,0,0,3.89-1.45.9.9,0,0,0-1.18-1.35Z"/><path class="cls-1" d="M44.23,22.17c-.09-.28-2.29-6.83-8.9-7.07-3-.11-6.54,2-7,5.57a.9.9,0,0,0,1.77.25c.39-2.74,3.27-4.1,5.2-4A8,8,0,0,1,42,21.57c-2,.29-3.38,1.69-4.74,3.06l-.07.07a3.68,3.68,0,0,1-3.64,1.18,4.85,4.85,0,0,1-1.8-.89.9.9,0,0,0-1.18,1.35,6.57,6.57,0,0,0,3.89,1.45,5.52,5.52,0,0,0,4-1.81l.07-.07c1.56-1.56,2.79-2.79,4.72-2.55a.9.9,0,0,0,1-1.16Z"/><path class="cls-1" d="M36,21.49A.9.9,0,0,0,36,19.7,11.15,11.15,0,0,0,30.13,22a13.15,13.15,0,0,0-4,5.19v-10A4.25,4.25,0,0,0,29.46,13V10.71h.37a1.16,1.16,0,1,0,0-2.33H28.2v-3a.89.89,0,0,0-1.77,0v3H24v-3a.89.89,0,0,0-1.77,0v3H20.6a1.16,1.16,0,1,0,0,2.33H21V13a4.26,4.26,0,0,0,3.37,4.16v18a13.15,13.15,0,0,0-4-5.19,11.15,11.15,0,0,0-5.84-2.32.9.9,0,1,0-.07,1.79,9.39,9.39,0,0,1,4.82,2c3.27,2.5,5,6.21,5.09,12.28V45.1a.9.9,0,0,0,1.79,0V36.53c.06-6,1.79-10.52,5-13A9.55,9.55,0,0,1,36,21.49ZM23.29,13V10.71h3.84V13a1.92,1.92,0,0,1-3.84,0Z"/></svg>