<svg id="Layer_1" data-name="Layer 1" xmlns="http://www.w3.org/2000/svg" viewBox="0 0 50.46 50.46"><defs><style>.cls-1{fill:#12b5e1;}</style></defs><title>energia solar</title><path class="cls-1" d="M31,40.53a.86.86,0,0,0-1.1-.47.84.84,0,0,0-.47,1.09l1.72,4.34H19.35l1.74-4.4a.84.84,0,1,0-1.56-.62L17.33,46a.85.85,0,0,0,.78,1.15H32.35A.85.85,0,0,0,33.13,46Z"/><path class="cls-1" d="M47.2,37.78,41,23.08a.83.83,0,0,0-.77-.51h-30a.83.83,0,0,0-.77.51L3.26,37.78A.84.84,0,0,0,4,39H46.42a.84.84,0,0,0,.78-1.17ZM33.41,24.25h6.24l1.14,2.69H34l-.54-2.6Zm-7.62,0h5.88l.56,2.69H25.79Zm0,4.38h6.79l.67,3.2H25.79Zm-15-4.38h5.7L16,26.94H9.67Zm3,13H5.3l1.59-3.76h7.69ZM7.6,31.83,9,28.63H15.6l-.67,3.2Zm16.51,5.44H15.52l.78-3.76h7.81Zm0-5.44H16.65l.67-3.2h6.79Zm0-4.89H17.67l.56-2.69h5.88Zm1.68,10.33V33.51H33.6l.78,3.76Zm8.51-8.64h7.2l1.36,3.2H35Zm1.79,8.64-.78-3.76h8.26l1.59,3.76Z"/><path class="cls-1" d="M25.23,14.34a8.85,8.85,0,0,0-8.45,6.25h2a7,7,0,0,1,13,0h2A8.85,8.85,0,0,0,25.23,14.34Z"/><path class="cls-1" d="M25.21,11.79h0a.9.9,0,0,0,.9-.91V4.19a.91.91,0,0,0-1.81,0v6.69A.91.91,0,0,0,25.21,11.79Z"/><path class="cls-1" d="M33.8,15.34a.93.93,0,0,0,.64-.26l3.64-3.64,1.09-1.09a.91.91,0,0,0-1.28-1.28L36.8,10.16l-3.64,3.63a.91.91,0,0,0,.64,1.55Z"/><path class="cls-1" d="M11.29,10.4c.13.12.91.89,4.47,4.45a.92.92,0,0,0,1.28,0,.91.91,0,0,0,0-1.28l-3.27-3.26-.92-.92c-.37-.36-1-1-1.61-.32a.89.89,0,0,0,0,1.28Z"/><path class="cls-1" d="M29.61,12.55a.78.78,0,0,0,1-.41l1.59-3.78a.78.78,0,0,0-1.43-.61l-1.6,3.78A.78.78,0,0,0,29.61,12.55Z"/><path class="cls-1" d="M9.84,17.42l.09,0,.55.23,2.93,1.23a.8.8,0,0,0,.3.06.76.76,0,0,0,.72-.47.78.78,0,0,0-.41-1l-2.93-1.23L10.53,16a.78.78,0,1,0-.69,1.4Z"/><path class="cls-1" d="M35.73,18.73a.78.78,0,0,0,.72.49.72.72,0,0,0,.29-.06l3.86-1.57h0a.77.77,0,0,0,.43-1,.78.78,0,0,0-1-.43l-3.85,1.57A.78.78,0,0,0,35.73,18.73Z"/><path class="cls-1" d="M18.38,8.34l.15.36c.18.44.53,1.32,1.25,3.08a.79.79,0,0,0,.72.49.8.8,0,0,0,.3-.06.79.79,0,0,0,.42-1C20.5,9.44,20.15,8.56,20,8.11S19.5,7,18.77,7.25a.77.77,0,0,0-.43,1S18.37,8.31,18.38,8.34Z"/></svg>