<svg id="Layer_1" data-name="Layer 1" xmlns="http://www.w3.org/2000/svg" viewBox="0 0 50.46 50.46"><defs><style>.cls-1{fill:#12b5e1;}</style></defs><title>envio maritimo</title><path class="cls-1" d="M9.41,43.27h15.3a13.7,13.7,0,0,1-.81-1.84H9.41a2.77,2.77,0,0,1-2.75-2.78V17.19H38.35v7.14a12.43,12.43,0,0,1,1.82.46V15.41L32.11,5l0,0H12.89l-8,10.46,0,0V38.65A4.6,4.6,0,0,0,9.41,43.27ZM23.74,6.77H31.2l6.47,8.58H23.74Zm-9.93,0h8.11v8.58H7.42Z"/><path class="cls-1" d="M38.69,36.41a.42.42,0,0,0-.64,0,.47.47,0,0,0-.11.27v0A.46.46,0,0,0,38,37a.43.43,0,0,0,.35.19.42.42,0,0,0,.35-.19.48.48,0,0,0,.09-.25v0A.42.42,0,0,0,38.69,36.41Z"/><path class="cls-1" d="M36.05,25.47A11.57,11.57,0,1,0,47.62,37,11.58,11.58,0,0,0,36.05,25.47Zm6.07,18.18.09.09a2.18,2.18,0,0,0-.74.4,1,1,0,0,0-.79-.42c-.38,0-.56.18-.85.49l0,0,0,0a2.25,2.25,0,0,0-.68-.42l.14-.14a2,2,0,0,1,1.12-.7,1.58,1.58,0,0,1,.32,0A1.83,1.83,0,0,1,42.12,43.65Zm-2.66-8.6,2,1.37a.56.56,0,0,1,.24.49.65.65,0,0,1,0,.19l-.26.6c-.41,1-.76,1.8-1.06,2.48-.12.28-.22.53-.33.77l-.28.65c-.08.2-.16.38-.23.54l-.14.32h0a3.51,3.51,0,0,0-.74.64,2.49,2.49,0,0,1-.24.23h-.06a2.47,2.47,0,0,1-.23-.23,2.74,2.74,0,0,0-1.73-1V33l2.53,1.71.27.18Zm-1.85,8.69a2,2,0,0,0-.63.32l-.11.08-.08-.09a.91.91,0,0,0-1.4,0l-.16.16,0,0a1.84,1.84,0,0,0-.22-.17,2.73,2.73,0,0,0-.48-.27,1.84,1.84,0,0,0,.14-.14,2.05,2.05,0,0,1,1-.67,1.68,1.68,0,0,1,.47-.06,1.27,1.27,0,0,1,.28,0,2,2,0,0,1,1.16.71ZM35.48,27.8a.58.58,0,0,1,1.15,0v1.31H35.48Zm-2.34,1.85h5.78v3.73l-2-1.37a1.66,1.66,0,0,0-.92-.28,1.59,1.59,0,0,0-.92.29l-1.93,1.3Zm-2.65,6.77L32.6,35l.27-.18.27-.18L35.59,33v9.19a2.76,2.76,0,0,0-1.53.94,2.49,2.49,0,0,1-.24.23h-.06a1.66,1.66,0,0,1-.23-.23,3.31,3.31,0,0,0-1-.78l-.08-.18-.24-.54L31.94,41c-.11-.24-.21-.49-.33-.77-.3-.68-.65-1.5-1.06-2.48l-.26-.6a.65.65,0,0,1,0-.19A.56.56,0,0,1,30.49,36.42Zm-.44,7.23a1.86,1.86,0,0,1,1.45-.73h.11a1.93,1.93,0,0,1,1.33.73l.08.09a2.18,2.18,0,0,0-.74.4,1.29,1.29,0,0,0-.21-.2.81.81,0,0,0-.57-.22c-.39,0-.57.18-.86.49l0,0a2.8,2.8,0,0,0-.7-.44Zm13.17,1.14a.31.31,0,0,1-.07.09l-.09.06a.35.35,0,0,1-.18.05,1.08,1.08,0,0,0-.86.48l-.06.07a1.8,1.8,0,0,1-1.38.67h0a1.66,1.66,0,0,1-1.09-.39l-.23-.22-.12-.13a1.94,1.94,0,0,0-.43-.37.81.81,0,0,0-.43-.11A.82.82,0,0,0,38,45a.94.94,0,0,0-.22.12,2,2,0,0,0-.35.32l-.07.07a1.8,1.8,0,0,1-1.38.67,1.73,1.73,0,0,1-1.32-.61l-.12-.13a2.42,2.42,0,0,0-.35-.32.81.81,0,0,0-.5-.16.88.88,0,0,0-.24,0,.64.64,0,0,0-.19.08,1.94,1.94,0,0,0-.43.37l-.06.07h0a2.53,2.53,0,0,1-.66.52h0l-.07,0-.2.07-.11,0-.32,0h0a1.76,1.76,0,0,1-1.32-.61h0L30,45.47a1.85,1.85,0,0,0-.41-.36h0A.84.84,0,0,0,29.1,45H29l-.1,0a.42.42,0,0,1-.18-.34.4.4,0,0,1,.4-.4,1.88,1.88,0,0,1,.43,0,1.75,1.75,0,0,1,.69.37,3.22,3.22,0,0,1,.32.32l.26.25a.87.87,0,0,0,.6.23h0a.88.88,0,0,0,.24,0l.07,0a1.25,1.25,0,0,0,.37-.26l.17-.16a2,2,0,0,1,.25-.26l.17-.14a1.62,1.62,0,0,1,1-.34h0a1.83,1.83,0,0,1,.35,0,1.7,1.7,0,0,1,.77.39l.32.32.21.21,0,0a.82.82,0,0,0,.59.23l.2,0a.88.88,0,0,0,.45-.25l0-.05.17-.16a3.22,3.22,0,0,1,.42-.4,1.64,1.64,0,0,1,.43-.24,1.73,1.73,0,0,1,.59-.1h0a1.6,1.6,0,0,1,1.12.42l.07.06a3,3,0,0,1,.25.26,3,3,0,0,0,.27.25.81.81,0,0,0,.59.23h0l.21,0a.84.84,0,0,0,.33-.16l.15-.14.17-.16a3.25,3.25,0,0,1,.42-.4,1.62,1.62,0,0,1,1-.34h0a.4.4,0,0,1,.4.4A.37.37,0,0,1,43.22,44.79Z"/><path class="cls-1" d="M33.47,37.14a.45.45,0,0,0,.36-.19.46.46,0,0,0,.08-.25v0a.47.47,0,0,0-.11-.27.45.45,0,0,0-.33-.15.44.44,0,0,0-.32.15.47.47,0,0,0-.11.27v0a.46.46,0,0,0,.08.25A.45.45,0,0,0,33.47,37.14Z"/></svg>