<svg id="Layer_1" data-name="Layer 1" xmlns="http://www.w3.org/2000/svg" viewBox="0 0 50.46 50.46"><defs><style>.cls-1{fill:#12b5e1;}</style></defs><title>envio terrestre</title><path class="cls-1" d="M9.41,43.27h15.3a13.7,13.7,0,0,1-.81-1.84H9.41a2.77,2.77,0,0,1-2.75-2.78V17.19H38.35v7.14a12.43,12.43,0,0,1,1.82.46V15.41L32.11,5l0,0H12.89l-8,10.46,0,0V38.65A4.6,4.6,0,0,0,9.41,43.27ZM23.74,6.77H31.2l6.47,8.58H23.74Zm-9.93,0h8.11v8.58H7.42Z"/><path class="cls-1" d="M47.62,37A11.57,11.57,0,1,0,36.05,48.61,11.58,11.58,0,0,0,47.62,37ZM43,40.36a.26.26,0,0,1-.11.14l-.14.09a.56.56,0,0,1-.18,0h-1a2.18,2.18,0,0,1-2.14,2A1.75,1.75,0,0,1,38,42a1.82,1.82,0,0,1-.45-1.39H33.93a2.18,2.18,0,0,1-2.14,2,1.76,1.76,0,0,1-1.79-2h-.54a.56.56,0,0,1-.18,0l-.12-.09a.28.28,0,0,1-.09-.14.66.66,0,0,1,0-.2l.71-7.86A.52.52,0,0,1,30,32a.54.54,0,0,1,.36-.14h8.56a.46.46,0,0,1,.34.14.45.45,0,0,1,.11.35l-.13,1.47h1.23a1.11,1.11,0,0,1,.44.1,1.1,1.1,0,0,1,.36.25l1.38,1.52a1,1,0,0,1,.16.23,1.27,1.27,0,0,1,.08.23,1,1,0,0,1,0,.28c0,.12,0,.21,0,.27a2.32,2.32,0,0,1,0,.29c0,.14,0,.23,0,.27l-.23,2.45a.43.43,0,0,1,.34.15.48.48,0,0,1,.11.35A.65.65,0,0,1,43,40.36Z"/><path class="cls-1" d="M40.47,34.82a.22.22,0,0,0-.16-.07H39.1l-.18,2h2.95l0-.23a.21.21,0,0,0,0-.17Z"/><path class="cls-1" d="M39.64,39.66a1.12,1.12,0,0,0-1.07,1,.89.89,0,0,0,.89,1,1.07,1.07,0,0,0,.72-.29,1.05,1.05,0,0,0,.35-.69A.83.83,0,0,0,40.3,40,.84.84,0,0,0,39.64,39.66Z"/><path class="cls-1" d="M32.05,39.66a1,1,0,0,0-.71.3,1,1,0,0,0-.36.69.89.89,0,0,0,.9,1,1,1,0,0,0,.71-.29,1.11,1.11,0,0,0,.36-.69.9.9,0,0,0-.23-.69A.86.86,0,0,0,32.05,39.66Z"/></svg>