<svg id="Layer_1" data-name="Layer 1" xmlns="http://www.w3.org/2000/svg" viewBox="0 0 50.46 50.46"><defs><style>.cls-1{fill:#12b5e1;}</style></defs><title>envio terrestre_1</title><path class="cls-1" d="M11.3,35.15H3.88a.76.76,0,0,0-.76.76.75.75,0,0,0,.76.75H11.3a.75.75,0,0,0,.76-.75A.76.76,0,0,0,11.3,35.15Z"/><path class="cls-1" d="M11.55,32.38H6.74a.76.76,0,0,0,0,1.51h4.81a.76.76,0,1,0,0-1.51Z"/><path class="cls-1" d="M11.66,29.61H9.31a.76.76,0,0,0,0,1.51h2.35a.76.76,0,0,0,0-1.51Z"/><path class="cls-1" d="M46.24,35.43l.54-6c0-.1,0-.32.07-.66s.06-.58.07-.71,0-.36,0-.65a3.24,3.24,0,0,0-.06-.7,3.14,3.14,0,0,0-.21-.57,2.18,2.18,0,0,0-.37-.56l-3.38-3.72a2.53,2.53,0,0,0-.9-.6A2.78,2.78,0,0,0,40.94,21h-3l.33-3.61a1.08,1.08,0,0,0-1.1-1.2h-21a1.29,1.29,0,0,0-.88.35,1.28,1.28,0,0,0-.43.85L13.15,36.63a1.35,1.35,0,0,0,0,.5.62.62,0,0,0,.22.34l.29.22a.83.83,0,0,0,.43.11l.42,0h.9a4.32,4.32,0,0,0,4.38,4.81,5.38,5.38,0,0,0,5.24-4.81H34a4.34,4.34,0,0,0,4.38,4.81,5.38,5.38,0,0,0,5.24-4.81h2.1l.43,0a.92.92,0,0,0,.45-.11l.33-.22a.72.72,0,0,0,.28-.34,1.31,1.31,0,0,0,.12-.5,1.08,1.08,0,0,0-1.09-1.2ZM21.79,39.52a2.53,2.53,0,0,1-1.76.72,2.2,2.2,0,0,1-2.18-2.41,2.7,2.7,0,0,1,2.62-2.4,2.18,2.18,0,0,1,2.18,2.4A2.49,2.49,0,0,1,21.79,39.52ZM32,31.08A2.07,2.07,0,0,1,30,33H20.93a1.68,1.68,0,0,1-1.69-1.87L20,23l3.26-3.61h6.91l2.54,3.52.06.12Zm8.34,8.44a2.51,2.51,0,0,1-1.75.72A2.09,2.09,0,0,1,37,39.52a2.12,2.12,0,0,1-.56-1.69,2.6,2.6,0,0,1,.86-1.69A2.57,2.57,0,0,1,39,35.43a2.18,2.18,0,0,1,2.19,2.4A2.54,2.54,0,0,1,40.35,39.52Zm4.14-11.3H37.28l.43-4.81h3a.53.53,0,0,1,.4.17l3.33,3.66a.5.5,0,0,1,.13.41Z"/><polygon class="cls-1" points="25.57 20.33 23.73 20.33 21.68 22.75 24.31 22.75 25.57 20.33"/><polygon class="cls-1" points="31.06 22.75 29.48 20.33 27.66 20.33 28.48 22.75 31.06 22.75"/><path class="cls-1" d="M28.15,27.35l-2.1-.87-2.27.87.3-3.33h-3l-.64,7.06a.62.62,0,0,0,.61.69H30.1a.77.77,0,0,0,.74-.69L31.48,24h-3Z"/></svg>