<?xml version="1.0" encoding="utf-8"?>
<!-- Generator: Adobe Illustrator 26.5.1, SVG Export Plug-In . SVG Version: 6.00 Build 0)  -->
<svg version="1.1" id="Layer_1" xmlns="http://www.w3.org/2000/svg" xmlns:xlink="http://www.w3.org/1999/xlink" x="0px" y="0px"
	 viewBox="0 0 50.5 50.5" style="enable-background:new 0 0 50.5 50.5;" xml:space="preserve">
<g>
	<path d="M30.613,31.469c-0.244-0.147-0.547-0.155-0.798-0.02c-1.299,0.705-2.773,1.084-4.239,1.097
		c-1.466-0.029-2.92-0.402-4.209-1.078c-0.249-0.159-0.578-0.175-0.849-0.011c-4.07,2.478-5.882,7.442-6.197,8.986
		c-0.066,0.328,0.079,0.663,0.364,0.84c3.216,1.987,6.921,3.075,10.725,3.149c0.049,0.009,0.099,0.014,0.15,0.014
		c0.003,0,0.006,0,0.01,0c3.857-0.048,7.618-1.138,10.877-3.151c0.285-0.177,0.43-0.512,0.363-0.84
		C36.496,38.911,34.684,33.946,30.613,31.469z M25.695,42.844c-0.037-0.005-0.075-0.009-0.113-0.009
		c-3.371-0.042-6.662-0.944-9.557-2.615c0.539-1.859,2.173-5.265,4.955-7.157c1.417,0.679,2.987,1.052,4.587,1.083
		c1.589-0.014,3.163-0.383,4.585-1.071c2.781,1.893,4.416,5.298,4.954,7.157C32.254,41.879,29.016,42.779,25.695,42.844z"/>
	<path d="M20.792,29.876c1.304,0.877,2.843,1.355,4.45,1.355c1.593,0,3.121-0.471,4.419-1.335l5.602-0.112
		c-1.471-2.608-2.187-5.574-2.066-8.566c0.122-6.833-5.355-8.699-8.321-8.199c-1.119,0.153-2.179,0.593-3.077,1.278
		c-2.222-0.078-4.577,1.655-4.444,6.899c0.105,3.006-0.634,5.98-2.133,8.588L20.792,29.876z M20.87,27.907
		c-0.204-0.191-0.387-0.397-0.56-0.609c-0.613-0.926-0.975-2.032-0.979-3.226c-0.006-2.334,1.366-4.451,3.5-5.398h0.011
		c2.009,2.707,4.957,4.566,8.266,5.21c0,0,0,0.1,0,0.156c0.004,1.316-0.425,2.531-1.152,3.514c-0.114,0.125-0.23,0.249-0.356,0.367
		c-1.181,1.104-2.729,1.711-4.358,1.711C23.605,29.632,22.053,29.02,20.87,27.907z"/>
	<path d="M49.737,33.421c-0.252-1.235-1.705-5.208-4.962-7.191c-0.244-0.147-0.546-0.155-0.797-0.02
		c-1.001,0.542-2.136,0.834-3.258,0.844c-1.144-0.021-2.279-0.317-3.285-0.854c-0.027-0.014-0.057-0.014-0.084-0.025
		c-0.054-0.022-0.107-0.04-0.165-0.049c-0.049-0.008-0.096-0.009-0.145-0.007c-0.052,0.001-0.101,0.004-0.152,0.016
		c-0.055,0.012-0.105,0.033-0.157,0.056c-0.028,0.013-0.058,0.014-0.085,0.03c-0.167,0.101-0.328,0.207-0.486,0.319
		c-0.361,0.254-0.447,0.754-0.192,1.114c0.155,0.221,0.402,0.339,0.654,0.339c0.159,0,0.32-0.047,0.46-0.146
		c0.015-0.01,0.03-0.019,0.045-0.03c1.115,0.517,2.334,0.814,3.584,0.837c1.243-0.011,2.477-0.292,3.596-0.818
		c2.021,1.422,3.27,3.941,3.718,5.365c-2.192,1.239-4.669,1.917-7.206,1.969c-0.031-0.004-0.062-0.007-0.095-0.007
		c-0.979-0.012-1.962-0.118-2.919-0.316c-0.433-0.091-0.855,0.188-0.945,0.621s0.188,0.856,0.621,0.945
		c1.015,0.21,2.054,0.327,3.091,0.348c0.044,0.007,0.088,0.011,0.133,0.011c0.003,0,0.007,0,0.01,0
		c3.069-0.038,6.063-0.905,8.659-2.509C49.659,34.085,49.804,33.75,49.737,33.421z"/>
	<path d="M36.2,24.104c1.198,1.126,2.77,1.746,4.424,1.746c1.648,0,3.215-0.615,4.411-1.733c1.257-1.171,1.978-2.823,1.978-4.532
		c0-0.064-0.008-0.126-0.01-0.189c0.504-1.247,1.024-3.253,0.052-4.689c-0.861-1.053-2.318-1.402-3.563-0.855
		c-0.773-1.305-2.027-2.256-3.492-2.649c-1.557-0.224-3.131,0.264-4.288,1.33c-2.783,2.199-1.901,5.849-1.472,7.15
		C34.267,21.373,34.958,22.94,36.2,24.104z M43.943,22.948c-0.899,0.84-2.078,1.303-3.319,1.303c-1.246,0-2.428-0.466-3.329-1.312
		c-0.875-0.821-1.366-1.911-1.433-3.088c2.668-0.728,5.309-2.229,7.071-4.321c0.071,0.038,0.144,0.071,0.213,0.112
		c0.455,1.212,1.196,2.622,2.213,3.417c0.021,0.175,0.055,0.347,0.055,0.527C45.413,20.87,44.892,22.064,43.943,22.948z"/>
	<path d="M6.192,27.835c1.12,0.526,2.355,0.808,3.618,0.818c1.23-0.023,2.447-0.32,3.561-0.837c0.014,0.01,0.03,0.019,0.044,0.029
		c0.141,0.099,0.302,0.146,0.462,0.146c0.25,0,0.498-0.117,0.653-0.338c0.255-0.36,0.17-0.859-0.19-1.115
		c-0.158-0.111-0.32-0.219-0.486-0.319c-0.03-0.018-0.064-0.021-0.096-0.034c-0.046-0.02-0.09-0.039-0.139-0.05
		c-0.058-0.013-0.114-0.017-0.172-0.018c-0.043,0-0.083,0-0.126,0.006c-0.063,0.009-0.12,0.029-0.179,0.053
		c-0.025,0.01-0.052,0.01-0.077,0.023c-1.006,0.537-2.143,0.833-3.263,0.854c-1.146-0.01-2.279-0.302-3.28-0.844
		c-0.25-0.136-0.555-0.128-0.797,0.02c-3.26,1.985-4.71,5.957-4.961,7.192c-0.066,0.328,0.079,0.663,0.364,0.84
		c2.595,1.604,5.589,2.471,8.658,2.509c0.003,0,0.006,0,0.01,0c0.044,0,0.088-0.004,0.13-0.011c1.038-0.021,2.078-0.138,3.093-0.348
		c0.433-0.089,0.711-0.513,0.621-0.945s-0.512-0.713-0.945-0.621c-0.958,0.198-1.939,0.305-2.919,0.316
		c-0.032,0-0.063,0.003-0.094,0.007c-2.538-0.052-5.015-0.729-7.207-1.969C2.922,31.777,4.17,29.259,6.192,27.835z"/>
	<path d="M5.336,24.104C6.534,25.23,8.105,25.85,9.76,25.85c1.648,0,3.214-0.615,4.41-1.733c1.257-1.172,1.979-2.824,1.979-4.532
		c0-0.064-0.008-0.126-0.01-0.19c0.504-1.247,1.023-3.253,0.052-4.688c-0.861-1.053-2.318-1.402-3.563-0.855
		c-0.773-1.305-2.027-2.256-3.492-2.649c-1.557-0.224-3.131,0.264-4.288,1.33c-2.783,2.199-1.901,5.847-1.472,7.15
		C3.402,21.373,4.094,22.94,5.336,24.104z M13.079,22.948c-0.899,0.84-2.077,1.303-3.318,1.303c-1.246,0-2.428-0.466-3.329-1.313
		c-0.875-0.82-1.366-1.911-1.433-3.088c2.668-0.728,5.309-2.229,7.071-4.321c0.07,0.038,0.144,0.071,0.213,0.112
		c0.455,1.212,1.196,2.623,2.213,3.417c0.021,0.175,0.055,0.347,0.055,0.527C14.549,20.87,14.027,22.063,13.079,22.948z"/>
</g>
</svg>
