<svg id="Layer_1" data-name="Layer 1" xmlns="http://www.w3.org/2000/svg" viewBox="0 0 50.46 50.46"><defs><style>.cls-1{fill:#12b5e1;}</style></defs><title>escarapela</title><path class="cls-1" d="M36.65,29a6.42,6.42,0,0,0,.78-2.23,5.84,5.84,0,0,0,2-7.08,5.58,5.58,0,0,0-1.74-6.84,6.17,6.17,0,0,0-5.35-5.41,5.65,5.65,0,0,0-6.9-1.83,6.4,6.4,0,0,0-7.66,2.25,5.94,5.94,0,0,0-4.91,5.46,5,5,0,0,0-1.49,6.28,6.22,6.22,0,0,0,2.14,7.48A6.94,6.94,0,0,0,14,28.69l-5.52,11,7,.38,4.3,5.32,5.45-11,5.45,11L35,40l7-.38Zm.09-3.15L33.36,24a3.8,3.8,0,0,0,1.11-4h3.8A4.71,4.71,0,0,1,36.74,25.84Zm-9.46-2.78a1.87,1.87,0,0,0,1.2-.83L32,24.11a2.77,2.77,0,0,1-2.62,2.29h0Zm1.43,3.84a2.55,2.55,0,0,1-3,.65V23.64a1.86,1.86,0,0,0,.94-.13ZM29.35,20h3.91a2.75,2.75,0,0,1-1,3.4l-3.44-1.87A1.81,1.81,0,0,0,29.35,20Zm3.93-.76H29.36a1.85,1.85,0,0,0-.19-1l3.39-2A2.56,2.56,0,0,1,33.28,19.25Zm-4.54-1.68a1.9,1.9,0,0,0-1-1.22l1.89-3.42a2.89,2.89,0,0,1,2.53,2.64ZM33,24.68l3.32,1.79a4.81,4.81,0,0,1-4.37,4.3l-2-3.3A3.88,3.88,0,0,0,33,24.68Zm5.32-5.43H34.49a3.61,3.61,0,0,0-.9-3.66l3.24-1.92A4.46,4.46,0,0,1,38.31,19.25ZM32,8.55A5,5,0,0,1,36.49,13l-3.32,2a4,4,0,0,0-3-3.08ZM25.74,6.71a4.5,4.5,0,0,1,5.62,1.41l-1.84,3.35a3.66,3.66,0,0,0-3.79-1Zm0,5a2.63,2.63,0,0,1,3.2.82L27,16a1.73,1.73,0,0,0-1.3-.35Zm-.76-5v3.83a4.22,4.22,0,0,0-4.4,1.42l-2-3.29A5.3,5.3,0,0,1,25,6.68ZM21.33,19.24H17.44A2.2,2.2,0,0,1,18,16.53l3.5,1.89A1.63,1.63,0,0,0,21.33,19.24Zm-3.9.77h3.92a1.94,1.94,0,0,0,.56,1.61l-3.35,2A3,3,0,0,1,17.43,20Zm3.26,7.46L18.86,30.8a4.49,4.49,0,0,1-4.26-4l3.25-1.93A3.69,3.69,0,0,0,20.69,27.47Zm-1.81-3.16,3.39-2a1.79,1.79,0,0,0,.89.71l-1.88,3.4A2.57,2.57,0,0,1,18.88,24.31Zm3-6.54-3.43-1.86h0a2.72,2.72,0,0,1,2-2.64l2.06,3.42A1.85,1.85,0,0,0,21.86,17.77ZM21.21,13l.05-.08A3.07,3.07,0,0,1,25,11.71v3.93a2,2,0,0,0-1.74.69ZM17.9,9l2,3.24a3.86,3.86,0,0,0-2.52,3.08L14,13.49A4.76,4.76,0,0,1,17.9,9Zm-4.3,5.17L16.9,16a3.27,3.27,0,0,0-.69,3.29H12.44A3.91,3.91,0,0,1,13.6,14.17ZM12.41,20h3.82a4.09,4.09,0,0,0,1.28,4.22l-3.3,1.95A5.13,5.13,0,0,1,12.41,20ZM10.26,38.59l4.4-8.74a5.48,5.48,0,0,0,2.59,1.78l-3.66,7.14Zm5.79.31-1.62-.09,3.58-7a4.09,4.09,0,0,0,.61.1,5.89,5.89,0,0,0,1.85,1.59l-3.4,6.63Zm3.5,4.32-2-2.42,3.58-7a5.49,5.49,0,0,0,2.94.17Zm5.39-10.67a4.32,4.32,0,0,1-5.43-1.35l1.83-3.32a3.53,3.53,0,0,0,3.6.88Zm0-5a2.5,2.5,0,0,1-3-.72l1.89-3.44a1.73,1.73,0,0,0,.94.28H25Zm-1-5.37a1.08,1.08,0,0,1-1.05-1,1.2,1.2,0,0,1-.43-1.51,1,1,0,0,1,.29-1.26,1.12,1.12,0,0,1,1-1.11,1.23,1.23,0,0,1,1.54-.46,1.2,1.2,0,0,1,.66-.1.77.77,0,0,1,.26.07,1.16,1.16,0,0,1,.47.39,1.35,1.35,0,0,1,.63.25l.11.09,0,.05s0,0,0,0a1.27,1.27,0,0,1,.28.67,1.09,1.09,0,0,1,.36,1.38,1.14,1.14,0,0,1-.39,1.43,1.13,1.13,0,0,1-1.07,1,1.06,1.06,0,0,1-1.37.35A1,1,0,0,1,24,22.17Zm1.73,6.59a3.85,3.85,0,0,0,1.14.17,3.51,3.51,0,0,0,2.47-1l1.94,3.21a4.41,4.41,0,0,1-5.55,1.43Zm5.2,14.46L26.33,34a6.31,6.31,0,0,0,1.41.17,5.28,5.28,0,0,0,1.59-.24l3.54,6.89Zm3.5-4.32-1,1.25L30,33.62a5.78,5.78,0,0,0,2.08-1.71l.34-.05,3.57,7Zm-1.18-7.23A5.88,5.88,0,0,0,35.89,30l4.31,8.56-3.33.18Z"/></svg>