<svg id="Layer_1" data-name="Layer 1" xmlns="http://www.w3.org/2000/svg" viewBox="0 0 50.46 50.46"><defs><style>.cls-1{fill:#65b4e1;}</style></defs><title>escritura</title><path class="cls-1" d="M2.24,36h0a.49.49,0,0,0-.49.51.53.53,0,0,0,.54.51.51.51,0,0,0,0-1Z"/><path class="cls-1" d="M15.38,41.57c-2.49,3.05-6.08,3.89-7.86,2.76a3.65,3.65,0,0,1-1.72-2.8l.37,0c3.7-.36,4.85-2.43,5.17-3.3a2.93,2.93,0,0,0-.39-3,2.53,2.53,0,0,0-2.33-.65A4.64,4.64,0,0,0,5.37,37.5a9.64,9.64,0,0,0-.71,2.65A3.36,3.36,0,0,1,3.12,38h0A.56.56,0,0,0,2,38.27a4.19,4.19,0,0,0,2.61,3.08,4.86,4.86,0,0,0,2.28,3.92,4.64,4.64,0,0,0,2.49.65,9.19,9.19,0,0,0,6.85-3.65.56.56,0,1,0-.87-.71Zm-9-3.63a3.54,3.54,0,0,1,2.41-2.27,2,2,0,0,1,.36,0,1.3,1.3,0,0,1,1,.36,1.85,1.85,0,0,1,.14,1.82c-.25.67-1.15,2.27-4.22,2.57H5.79A8.65,8.65,0,0,1,6.41,37.93Z"/><path class="cls-1" d="M38,14.47a.56.56,0,0,0-.8.07L24.83,29.16a.56.56,0,1,0,.86.73L38.1,15.26A.56.56,0,0,0,38,14.47Z"/><path class="cls-1" d="M27.47,31.4,39.88,16.77A.56.56,0,0,0,39,16L26.61,30.67a.56.56,0,1,0,.86.73Z"/><path class="cls-1" d="M47.19,6.12l-.63-.54a4.44,4.44,0,0,0-6.25.51L38.42,8.31a.85.85,0,0,0,.1,1.19L44,14.14,27.21,33.91l-4.82-4.09L37.1,12.49l3,2.57a.85.85,0,1,0,1.09-1.29l-3.67-3.12a.85.85,0,0,0-1.19.1L20.56,29.37a.85.85,0,0,0,.1,1.19l6.11,5.18a.85.85,0,0,0,1.19-.1L45.82,14.59a.85.85,0,0,0-.1-1.19L40.26,8.76l1.33-1.57a2.75,2.75,0,0,1,3.87-.32l.63.54a2.75,2.75,0,0,1,.32,3.87l-.16.18a.85.85,0,1,0,1.29,1.09l.16-.18A4.44,4.44,0,0,0,47.19,6.12Z"/><path class="cls-1" d="M23.43,34.54a.85.85,0,1,0-1.09,1.29l1.2,1L20,37.57l.09-4.26a.85.85,0,0,0-1.69,0l-.1,5-1.18,1.39a.85.85,0,1,0,1.29,1.09l1.18-1.39,6-1.21A.85.85,0,0,0,26,36.69Z"/></svg>