<?xml version="1.0" encoding="utf-8"?>
<!-- Generator: Adobe Illustrator 24.2.1, SVG Export Plug-In . SVG Version: 6.00 Build 0)  -->
<svg version="1.1" id="Layer_1" xmlns="http://www.w3.org/2000/svg" xmlns:xlink="http://www.w3.org/1999/xlink" x="0px" y="0px"
	 viewBox="0 0 50.46 50.46" style="enable-background:new 0 0 50.46 50.46;" xml:space="preserve">
<path d="M47.314,21.618l-3.783-5.309c-0.15-0.21-0.393-0.335-0.651-0.335H27.917l-2.082-2.414c-0.029-0.034-0.071-0.049-0.105-0.076
	v-2.027c1.574-0.573,3.275-0.541,4.831,0.111c0.155,0.065,0.331,0.047,0.47-0.044c0.14-0.093,0.224-0.249,0.224-0.417v-0.809
	c0,0,0-0.001,0-0.001V8.108c0,0,0-0.001,0-0.001V7.237c0-0.201-0.121-0.383-0.307-0.461c-1.906-0.8-4.006-0.8-5.911,0
	c-0.186,0.078-0.307,0.259-0.307,0.461v0.31v3.559v2.377c-0.034,0.027-0.076,0.042-0.105,0.076l-2.082,2.414H7.58
	c-0.259,0-0.501,0.125-0.651,0.335l-3.784,5.309c-0.174,0.244-0.197,0.564-0.06,0.831c0.137,0.267,0.412,0.434,0.711,0.434H6.63
	v18.271c0,0.005,0.003,0.009,0.003,0.015H3.796c-0.276,0-0.5,0.224-0.5,0.5s0.224,0.5,0.5,0.5h42.867c0.276,0,0.5-0.224,0.5-0.5
	s-0.224-0.5-0.5-0.5h-2.836c0-0.005,0.003-0.009,0.003-0.015V22.882h2.833c0.3,0,0.574-0.167,0.711-0.433
	C47.512,22.182,47.488,21.862,47.314,21.618z M25.73,9.585V8.459c1.463-0.535,3.045-0.534,4.524,0.002v1.128
	C28.767,9.125,27.203,9.124,25.73,9.585z M7.992,17.573h13.171l-3.199,3.709H7.43H5.349L7.992,17.573z M27.751,41.167h-5.042v-7.809
	c0-1.588,1.131-2.88,2.521-2.88c1.39,0,2.521,1.292,2.521,2.88V41.167z M42.233,41.167H28.751v-7.809c0-2.14-1.579-3.88-3.521-3.88
	c-1.941,0-3.521,1.74-3.521,3.88v7.809H8.227c0-0.005,0.003-0.009,0.003-0.015V22.882h10.1c0.115,0,0.223-0.026,0.322-0.07
	c0.029-0.013,0.05-0.036,0.077-0.052c0.067-0.04,0.131-0.081,0.184-0.138c0.007-0.007,0.016-0.01,0.023-0.017l6.294-7.298
	l6.294,7.298c0.006,0.007,0.016,0.01,0.022,0.017c0.053,0.057,0.118,0.099,0.185,0.139c0.027,0.016,0.048,0.039,0.076,0.051
	c0.099,0.044,0.207,0.07,0.322,0.07H42.23v18.271C42.23,41.158,42.233,41.162,42.233,41.167z M43.03,21.282H32.496l-3.199-3.709
	h13.171l2.643,3.709H43.03z M14.665,27.817h-2.301c-0.276,0-0.5,0.224-0.5,0.5v4.18c0,0.276,0.224,0.5,0.5,0.5h2.301
	c0.276,0,0.5-0.224,0.5-0.5v-4.18C15.165,28.04,14.941,27.817,14.665,27.817z M14.165,31.996h-1.301v-3.18h1.301V31.996z
	 M19.275,27.817h-2.3c-0.276,0-0.5,0.224-0.5,0.5v4.18c0,0.276,0.224,0.5,0.5,0.5h2.3c0.276,0,0.5-0.224,0.5-0.5v-4.18
	C19.775,28.04,19.552,27.817,19.275,27.817z M18.775,31.996h-1.3v-3.18h1.3V31.996z M14.665,34.227h-2.301
	c-0.276,0-0.5,0.224-0.5,0.5v4.18c0,0.276,0.224,0.5,0.5,0.5h2.301c0.276,0,0.5-0.224,0.5-0.5v-4.18
	C15.165,34.45,14.941,34.227,14.665,34.227z M14.165,38.406h-1.301v-3.18h1.301V38.406z M19.275,34.227h-2.3
	c-0.276,0-0.5,0.224-0.5,0.5v4.18c0,0.276,0.224,0.5,0.5,0.5h2.3c0.276,0,0.5-0.224,0.5-0.5v-4.18
	C19.775,34.45,19.552,34.227,19.275,34.227z M18.775,38.406h-1.3v-3.18h1.3V38.406z M33.485,27.817h-2.301
	c-0.276,0-0.5,0.224-0.5,0.5v4.18c0,0.276,0.224,0.5,0.5,0.5h2.301c0.276,0,0.5-0.224,0.5-0.5v-4.18
	C33.985,28.04,33.762,27.817,33.485,27.817z M32.985,31.996h-1.301v-3.18h1.301V31.996z M38.097,27.817h-2.301
	c-0.276,0-0.5,0.224-0.5,0.5v4.18c0,0.276,0.224,0.5,0.5,0.5h2.301c0.276,0,0.5-0.224,0.5-0.5v-4.18
	C38.597,28.04,38.373,27.817,38.097,27.817z M37.597,31.996h-1.301v-3.18h1.301V31.996z M33.485,34.227h-2.301
	c-0.276,0-0.5,0.224-0.5,0.5v4.18c0,0.276,0.224,0.5,0.5,0.5h2.301c0.276,0,0.5-0.224,0.5-0.5v-4.18
	C33.985,34.45,33.762,34.227,33.485,34.227z M32.985,38.406h-1.301v-3.18h1.301V38.406z M38.097,34.227h-2.301
	c-0.276,0-0.5,0.224-0.5,0.5v4.18c0,0.276,0.224,0.5,0.5,0.5h2.301c0.276,0,0.5-0.224,0.5-0.5v-4.18
	C38.597,34.45,38.373,34.227,38.097,34.227z M37.597,38.406h-1.301v-3.18h1.301V38.406z M25.23,21.259
	c-1.195,0-2.132,1.305-2.132,2.972c0,1.666,0.937,2.972,2.132,2.972c1.196,0,2.132-1.306,2.132-2.972
	C27.362,22.564,26.426,21.259,25.23,21.259z M25.23,26.202c-0.535,0-1.132-0.81-1.132-1.972s0.597-1.972,1.132-1.972
	c0.536,0,1.132,0.81,1.132,1.972S25.766,26.202,25.23,26.202z"/>
</svg>
