<svg id="Layer_1" data-name="Layer 1" xmlns="http://www.w3.org/2000/svg" viewBox="0 0 50.46 50.46"><defs><style>.cls-1{fill:#12b5e1;}</style></defs><title>escudo nacional</title><path class="cls-1" d="M40.06,31.14a1.67,1.67,0,0,0,.08-.2,5.44,5.44,0,0,0,.3-1.78.38.38,0,0,0-.17-.33l-.08,0,.06-.19a5.31,5.31,0,0,0,.12-1.81.4.4,0,0,0-.21-.31l-.07,0c0-.08,0-.16,0-.24a5.3,5.3,0,0,0-.05-1.81.39.39,0,0,0-.24-.29h0c0-.05,0-.09,0-.14a5.47,5.47,0,0,0-.14-1.81.36.36,0,0,0-.25-.27.32.32,0,0,0-.14,0v-.24a5.4,5.4,0,0,0-.39-1.77.35.35,0,0,0-.28-.24h-.1a1.94,1.94,0,0,0,0-.24,5.6,5.6,0,0,0-.57-1.72.41.41,0,0,0-.31-.21h-.1a1.6,1.6,0,0,0-.05-.21,5.17,5.17,0,0,0-.76-1.65.39.39,0,0,0-.33-.17.35.35,0,0,0-.14,0,2,2,0,0,0-.1-.26,5.33,5.33,0,0,0-1-1.5.39.39,0,0,0-.37-.12l-.08,0c0-.09-.1-.19-.16-.28A5.33,5.33,0,0,0,33.3,12a.4.4,0,0,0-.37-.06l-.09.05a3,3,0,0,0-.66-.57,3.27,3.27,0,0,0,.85-.13.5.5,0,0,0,.36-.55.51.51,0,0,0-.48-.45,2.57,2.57,0,0,1-1.07-.22l1.25-.19a.52.52,0,0,0,.43-.51.52.52,0,0,0-.43-.51l-1-.14a3.71,3.71,0,0,0,1.07-.58.51.51,0,0,0,.12-.64.5.5,0,0,0-.62-.23,2.65,2.65,0,0,1-1.07.2l1.08-.65a.51.51,0,0,0,.21-.64.52.52,0,0,0-.6-.3l-1,.25a3.76,3.76,0,0,0,.76-1A.52.52,0,0,0,32,4.52a.51.51,0,0,0-.66,0,2.67,2.67,0,0,1-.91.6l.75-1a.52.52,0,0,0-.05-.67.5.5,0,0,0-.66-.05L29.62,4A4.15,4.15,0,0,0,30,2.85a.52.52,0,0,0-.37-.55.51.51,0,0,0-.6.28,2.61,2.61,0,0,1-.61.9l.31-1.22a.53.53,0,0,0-.3-.6.52.52,0,0,0-.63.21l-.52.88a3.79,3.79,0,0,0-.13-1.23.51.51,0,0,0-1,.13,2.65,2.65,0,0,1-.21,1.05l-.18-1.23A.52.52,0,0,0,25.22,1a.51.51,0,0,0-.5.44l-.14,1a4,4,0,0,0-.57-1,.51.51,0,0,0-.87.49A2.73,2.73,0,0,1,23.34,3l-.66-1.1a.51.51,0,0,0-.93.4l.24,1a4,4,0,0,0-.93-.76.51.51,0,0,0-.64.14.5.5,0,0,0,0,.66,2.6,2.6,0,0,1,.6.92l-1-.76a.52.52,0,0,0-.67.05.53.53,0,0,0,0,.67l.6.8a3.83,3.83,0,0,0-1.17-.34A.51.51,0,0,0,18.2,5a.52.52,0,0,0,.28.6,2.69,2.69,0,0,1,.89.61l-1.22-.3a.51.51,0,0,0-.38.93l.87.52a3.77,3.77,0,0,0-1.22.13.5.5,0,0,0-.36.55.52.52,0,0,0,.49.45,2.46,2.46,0,0,1,1.05.22l-1.24.18a.51.51,0,0,0-.43.51.5.5,0,0,0,.43.5l1,.15a3.73,3.73,0,0,0-1.08.59.52.52,0,0,0-.12.65.51.51,0,0,0,.62.22l.4-.12a5,5,0,0,0-.42.44l-.12.16-.07,0a.41.41,0,0,0-.37.06A5.46,5.46,0,0,0,16,13.31c-.06.09-.11.18-.16.27l-.1,0a.39.39,0,0,0-.36.12,5.55,5.55,0,0,0-1,1.5c0,.09-.07.17-.1.26h-.08a.36.36,0,0,0-.33.16A5.09,5.09,0,0,0,13,17.19l-.06.24a.33.33,0,0,0-.14,0,.4.4,0,0,0-.31.21,5.5,5.5,0,0,0-.58,1.71,1.79,1.79,0,0,0,0,.23.28.28,0,0,0-.13,0,.4.4,0,0,0-.28.24,5.42,5.42,0,0,0-.36,1.78v.22a.2.2,0,0,0-.11,0,.36.36,0,0,0-.25.27,5.47,5.47,0,0,0-.14,1.81,1.1,1.1,0,0,0,0,.18h0a.38.38,0,0,0-.23.29,5.59,5.59,0,0,0-.06,1.81l.06.29h0a.4.4,0,0,0-.22.3,5.39,5.39,0,0,0,.06,1.81l0,.2-.07,0a.41.41,0,0,0-.18.33A5.27,5.27,0,0,0,10.27,31l.09.26a.37.37,0,0,0-.15.08.41.41,0,0,0-.12.35,5.18,5.18,0,0,0,.56,1.73l.08.15,0,0a.4.4,0,0,0-.1.36,5.33,5.33,0,0,0,.68,1.68l.13.18a.27.27,0,0,0-.07.08.4.4,0,0,0-.06.37,5.51,5.51,0,0,0,.88,1.59l.13.15-.06.07a.39.39,0,0,0,0,.38,5.37,5.37,0,0,0,1,1.47l.14.13,0,.08a.4.4,0,0,0,0,.37,5.36,5.36,0,0,0,1.2,1.36,1.88,1.88,0,0,0,.23.16.38.38,0,0,0,0,.54,6.61,6.61,0,0,0,1.4,1.12,3.77,3.77,0,0,0,1.16.44,2.64,2.64,0,0,0,.88,0,14.1,14.1,0,0,0,2.54,1.41,11.86,11.86,0,0,0,2.26.72l.33.07.24,0,.29.08v.12a.75.75,0,0,0,0,.21,4.44,4.44,0,0,1-2.39,1.16h-.08a.2.2,0,0,0-.12.08.17.17,0,0,0,0,.14l0,.07a2.15,2.15,0,0,0,.4.46l0,0a.16.16,0,0,0,.12,0h0a5.16,5.16,0,0,0,2.27-1.08,2.32,2.32,0,0,1-1.62,1.16l-.15,0a.14.14,0,0,0-.1.13.14.14,0,0,0,.09.15l.13.06a4.41,4.41,0,0,0,.85.23h.11a2.84,2.84,0,0,0,1.55-1.56h.21a2.83,2.83,0,0,0,1.56,1.56H27a4.12,4.12,0,0,0,.84-.23l.14-.06a.14.14,0,0,0,.09-.14.14.14,0,0,0-.1-.14l-.15,0a2.4,2.4,0,0,1-1.63-1.16,5.26,5.26,0,0,0,2.28,1.08h0a.17.17,0,0,0,.12,0l0,0a2.15,2.15,0,0,0,.4-.46l0-.07a.17.17,0,0,0,0-.14.2.2,0,0,0-.12-.08h-.08a4.37,4.37,0,0,1-2.38-1.15,1.5,1.5,0,0,0,0-.22.49.49,0,0,0,0-.12l.26-.07.28,0c.36-.06.71-.14,1.05-.23a12.37,12.37,0,0,0,4.08-2,2.63,2.63,0,0,0,.88,0,3.77,3.77,0,0,0,1.16-.44,6.37,6.37,0,0,0,1.4-1.12.4.4,0,0,0,.1-.36.56.56,0,0,0-.09-.17,2.07,2.07,0,0,0,.24-.17,5.39,5.39,0,0,0,1.21-1.36.38.38,0,0,0,0-.37.3.3,0,0,0,0-.08l.14-.13a5.17,5.17,0,0,0,1-1.47.39.39,0,0,0,0-.38.34.34,0,0,0-.08-.09l.14-.16a5.51,5.51,0,0,0,.88-1.59.42.42,0,0,0,0-.36.43.43,0,0,0-.09-.1l.11-.15a5.65,5.65,0,0,0,.71-1.67.42.42,0,0,0-.09-.36l-.1-.08.11-.2a5.36,5.36,0,0,0,.49-1.74h0a.38.38,0,0,0-.13-.35Zm-.27-3.94h0s0,0,0,0a4,4,0,0,1-.12,1.23,3.07,3.07,0,0,1-.43,1,2.37,2.37,0,0,1-.59.59h0A3.42,3.42,0,0,1,38,27.69s0,0,0,0,0,0,0,0a4.23,4.23,0,0,1,.56.83.19.19,0,0,0,.17.1.17.17,0,0,0,.16-.12A3,3,0,0,1,39.79,27.2Zm-.25-2.34h0s0,0,0,0a5.05,5.05,0,0,1,0,1.23,3.29,3.29,0,0,1-.34,1,2.32,2.32,0,0,1-.54.66h0a3.62,3.62,0,0,1-.86-2.25v0h0a4.46,4.46,0,0,1,.62.75.18.18,0,0,0,.19.08.17.17,0,0,0,.14-.13A3,3,0,0,1,39.54,24.86Zm-.37-2.22h0v0a4.34,4.34,0,0,1,.06,1.23,3.14,3.14,0,0,1-.29,1,2.41,2.41,0,0,1-.5.68h0A3.07,3.07,0,0,1,37.57,24a4.54,4.54,0,0,1-.11-.66s0,0,0,0h0a3.93,3.93,0,0,1,.67.74.18.18,0,0,0,.19.07A.17.17,0,0,0,38.5,24,3.09,3.09,0,0,1,39.17,22.64ZM27.33,34.89A5.06,5.06,0,0,1,29,36.35h0a.54.54,0,0,1-.11.18.67.67,0,0,1-.54.21h0a2.61,2.61,0,0,0-.43-.63,5.66,5.66,0,0,0-.83-.71.28.28,0,0,0-.38.07.28.28,0,0,0,.07.39,5.14,5.14,0,0,1,.73.62,1.89,1.89,0,0,1,.34.49h0a.88.88,0,0,1-.16.23.54.54,0,0,1-.48.14h0a3.93,3.93,0,0,0-.58-.88.27.27,0,0,0-.39,0,.25.25,0,0,0-.09.19.27.27,0,0,0,.06.2,3.1,3.1,0,0,1,.46.68h0l-.2.11a1.06,1.06,0,0,1-.59,0h0a.84.84,0,0,0,.16-.41.78.78,0,0,0-.27-.67.83.83,0,0,0-.76-.19h0a.77.77,0,0,0-.29-.54,1,1,0,0,0-1-.19h0a0,0,0,0,1,0,0,.91.91,0,0,0-.48-.49,1,1,0,0,0-.83-.06h0a1.29,1.29,0,0,0-.69-.27,1.73,1.73,0,0,0-1.3.48h0c-1.83,1-4.2,2-5.13,2.47h0a18.44,18.44,0,0,1-1.27-3.05c-.1-.3-.19-.61-.28-.92h0c2.69-.31,4.85-.63,6.42-.94a10.42,10.42,0,0,0,3.22-1h0a2.37,2.37,0,0,1,1.68-.61,3.58,3.58,0,0,1,.51.06h0a0,0,0,0,1,0,0,1.59,1.59,0,0,0-.43.22l-.54.41a3.56,3.56,0,0,1-.42.32c-.12.08-.29.16-.44.24-.37.18-.65.32-.74.55h0a.73.73,0,0,0,.12.74,1.12,1.12,0,0,0,1.08.34,3,3,0,0,0,1.27-.39,3.56,3.56,0,0,0,.35-.22,1.53,1.53,0,0,1,.41-.22h0a1.81,1.81,0,0,1,1.14.12,6.08,6.08,0,0,1,1.12.61A7.5,7.5,0,0,1,30,35.54h0a.53.53,0,0,1-.16.33.64.64,0,0,1-.46.15h0a5.61,5.61,0,0,0-1.83-1.64.27.27,0,0,0-.37.13.26.26,0,0,0,0,.21A.27.27,0,0,0,27.33,34.89Zm-2.22,2.68h0a1.49,1.49,0,0,1-.77.32h-.1a.42.42,0,0,1-.23-.14h0a1.74,1.74,0,0,1,.74-.68c.38-.22.55-.09.57-.08s.12.19.11.22-.2.31-.29.37h0ZM21.92,36c.39-.38.7-.49,1-.36a.44.44,0,0,1,.2.18.33.33,0,0,1,0,.1h0l-.18.13a1.81,1.81,0,0,0-.75.91s0,0,0,0h0L22,36.94c-.34-.11-.36-.29-.37-.35S21.67,36.26,21.92,36Zm-.38-.4a1.58,1.58,0,0,0-.47.7h0l-.16,0c-.2,0-.34-.1-.37-.17s-.07-.15.07-.33a1.19,1.19,0,0,1,.93-.42h0a.49.49,0,0,1,.18,0h0Zm1.67.91c.51-.36.78-.48,1-.26a.29.29,0,0,1,.11.19.62.62,0,0,1-.23.32,1.78,1.78,0,0,0-.66.75h0a1.07,1.07,0,0,1-.29,0,.67.67,0,0,1-.38-.09.26.26,0,0,1-.12-.21C22.64,37,23,36.68,23.21,36.53ZM30.67,11.2a4,4,0,0,1-.85.25,3.34,3.34,0,0,1-.62.06,2,2,0,0,1-1.2-.35v0h0a2.48,2.48,0,0,1,.71-.28,2.45,2.45,0,0,1,1,0,3.08,3.08,0,0,1,1,.34v0Zm.47,1.31s0,0,0,0h0a2,2,0,0,1-.61.12h-.09a2.58,2.58,0,0,1-1.62-.61s0,0,0,0l0,0a3.35,3.35,0,0,1,.69-.13A2,2,0,0,1,31.14,12.51Zm-2.55-2a4,4,0,0,1-1.16.31.18.18,0,0,0-.16.13.22.22,0,0,0,.08.2,3.85,3.85,0,0,1,.76.71v0h0a3,3,0,0,1-2.25-1,0,0,0,0,1,0,0,1.9,1.9,0,0,1,.62-.38,3.51,3.51,0,0,1,2.13,0v0S28.6,10.47,28.59,10.47Zm-2.38-.39a3.49,3.49,0,0,1-1.09.53.18.18,0,0,0,0,.34,3.56,3.56,0,0,1,.86.51v0l0,0a3.85,3.85,0,0,1-.48,0A3.14,3.14,0,0,1,23.57,11s0,0,0,0a1.84,1.84,0,0,1,.53-.49A3.57,3.57,0,0,1,26.2,10l0,0A0,0,0,0,1,26.21,10.08Zm-2.45,0a2.54,2.54,0,0,1-1,.76.18.18,0,0,0-.1.19.17.17,0,0,0,.14.15,4.28,4.28,0,0,1,1,.32v0l0,0a4.85,4.85,0,0,1-.63.16,3.77,3.77,0,0,1-.66.06,2.69,2.69,0,0,1-1.15-.24s0,0,0,0a1.91,1.91,0,0,1,.41-.59,3.5,3.5,0,0,1,2-.86h0S23.77,10.11,23.76,10.11Zm-2.29.41a3.18,3.18,0,0,1-.86,1.11.18.18,0,0,0,.12.31h0l.49,0a2.4,2.4,0,0,1,.51.11l0,0v0a5.32,5.32,0,0,1-.61.26A3.52,3.52,0,0,1,20,12.6a2.48,2.48,0,0,1-.68-.09,0,0,0,0,1,0,0c.08-.4.45-1.41,2.16-2h0a0,0,0,0,1,0,0ZM20.88,13a9.46,9.46,0,0,1,8.7,0l1,.58a12.26,12.26,0,0,1,1.37,1l.63.59a13.2,13.2,0,0,1,.94,1l.46.59c.25.33.48.68.71,1l.35.59c.19.34.37.68.54,1l.27.59c.15.34.29.68.42,1l.21.59a2.58,2.58,0,0,1,.08.26c.09.25.16.51.23.77l.16.59c.08.34.15.68.22,1l.1.59c.05.34.1.69.14,1l0,.59c0,.37.06.74.07,1.11H25.62V24.91h2.61a1.68,1.68,0,0,0,1.1-.53,1.51,1.51,0,0,0,.27-.52s0,0,0-.06a1.71,1.71,0,0,0,0-.51l-.08-.59c0-.33-.11-.67-.17-1l-.12-.59c-.08-.33-.16-.67-.27-1l-.18-.59c-.12-.33-.25-.68-.4-1l-.26-.59c-.06-.13-.13-.27-.2-.4a2.56,2.56,0,0,0-.4-.63,7.65,7.65,0,0,0-.61-.59A3.15,3.15,0,0,0,25,15.64a3.67,3.67,0,0,0-1.83.58,7,7,0,0,0-.66.59,3.15,3.15,0,0,0-.65,1,2.08,2.08,0,0,0-.06.59.92.92,0,0,0,.47.72.75.75,0,0,0,.18.08h0l-.16.22-.39.59a7.59,7.59,0,0,0-.52,1l-.22.59a9,9,0,0,0-.29,1l-.09.59a1.93,1.93,0,0,0,0,.42s0,0,0,.06a1.34,1.34,0,0,0,.2.55,1.18,1.18,0,0,0,1,.59h2.86v2.74H12.91c0-.37,0-.74.07-1.11L13,26c0-.35.09-.7.14-1l.1-.59c.07-.35.14-.69.22-1l.16-.59c.07-.26.14-.52.23-.77a2.58,2.58,0,0,1,.08-.26l.21-.59c.13-.35.27-.69.42-1l.27-.59c.17-.35.35-.69.54-1l.35-.59c.23-.35.46-.7.71-1l.46-.59a13.2,13.2,0,0,1,.94-1l.63-.59a12.26,12.26,0,0,1,1.37-1Zm2.19,9.84a3.18,3.18,0,0,0-1.6.36h0l0-.15a7.91,7.91,0,0,1,1.35-3.2,5.28,5.28,0,0,1,.8-.87l.14-.11a.34.34,0,0,0,.05-.45.33.33,0,0,0-.44-.06l-.15.12a.61.61,0,0,1-.63.13.4.4,0,0,1-.14-.44,2.21,2.21,0,0,1,.57-.93l0,0a2.88,2.88,0,0,1,2-.92,2.64,2.64,0,0,1,.89.12,2.59,2.59,0,0,1,1.49,1.33,14.57,14.57,0,0,1,1.11,2.9h0a4.29,4.29,0,0,1-1.26-.7.33.33,0,0,0-.45,0,.32.32,0,0,0,0,.46,5.11,5.11,0,0,0,1.85.92h0c.08.35.15.73.22,1.18h0a4.25,4.25,0,0,0-1.05-.37c-.21-.06-.41-.11-.57-.17A6.21,6.21,0,0,1,26,21.28a.32.32,0,1,0-.4.5,6.54,6.54,0,0,0,1.44.83,4.83,4.83,0,0,0,.64.2c.87.23,1.29.42,1.3.88h0a.34.34,0,0,1-.12.2,1.5,1.5,0,0,1-1,.34h-.92a3.41,3.41,0,0,1-1.73-.5A4.8,4.8,0,0,0,23.07,22.83Zm1.68,1.39H22.16a.69.69,0,0,1-.57-.2.64.64,0,0,1-.08-.14h0c1.16-.53,1.71-.63,3.23.34C24.75,24.21,24.76,24.21,24.75,24.22Zm.09,4v2.4h-.08a3,3,0,0,0-1.82.72c-1,.63-4.13,1.26-9.47,1.87h0a21.64,21.64,0,0,1-.56-4.92v-.08Zm3.84,5.3a3.55,3.55,0,0,0-2.7-.8,1.74,1.74,0,0,0-.59.3l-.32.2a2.58,2.58,0,0,1-1,.32c-.32,0-.52,0-.6-.11s-.08-.15-.06-.21h0a2.19,2.19,0,0,1,.47-.26c.17-.09.35-.18.5-.28a4.1,4.1,0,0,0,.47-.35c.13-.1.27-.22.51-.39a2,2,0,0,1,1.21-.24H27a4.9,4.9,0,0,1,1.85.44l.76.27h0s1,.33,2.48.67a29.21,29.21,0,0,0,4.75.78h0c-.07.29-.16.58-.25.85a17.83,17.83,0,0,1-1.33,3.16h0A21.77,21.77,0,0,1,31,35.63a3.41,3.41,0,0,1-.56-.5h0l0-.06A7.92,7.92,0,0,0,28.68,33.55Zm1.09-1.66L29,31.63A5.25,5.25,0,0,0,27,31.16h-.13a4.41,4.41,0,0,0-1.21-.41s0,0,0,0V28.25H37.56v.08a21.7,21.7,0,0,1-.58,5h0A34.44,34.44,0,0,1,29.77,31.89Zm8.7-11.5s0,0,0,0,0,0,0,0a4.63,4.63,0,0,1,.22,1.21,2.92,2.92,0,0,1-.14,1.08,2.17,2.17,0,0,1-.4.73,0,0,0,0,1,0,0h0A3,3,0,0,1,37.05,22a4.19,4.19,0,0,1-.19-.63s0,0,0,0h0a4.1,4.1,0,0,1,.78.64.2.2,0,0,0,.19.05.18.18,0,0,0,.12-.16A3.11,3.11,0,0,1,38.47,20.39Zm-1.34-.48h0a.16.16,0,0,0,.1-.17,3.11,3.11,0,0,1,.32-1.51s0,0,0,0a0,0,0,0,1,0,0,4.36,4.36,0,0,1,.35,1.18,2.83,2.83,0,0,1,0,1.09,2.28,2.28,0,0,1-.32.76h0A2.87,2.87,0,0,1,36.31,20a4,4,0,0,1-.25-.6,0,0,0,0,1,0,0h0a4.43,4.43,0,0,1,.84.56A.19.19,0,0,0,37.13,19.91Zm-1-2a.18.18,0,0,0,.08-.19,3.12,3.12,0,0,1,.14-1.53s0,0,0,0h0l0,0a4.73,4.73,0,0,1,.48,1.13A2.9,2.9,0,0,1,37,18.42a2.42,2.42,0,0,1-.22.8s0,0,0,0h0a2.85,2.85,0,0,1-1.44-1.17,4.25,4.25,0,0,1-.31-.6v0h0a2.77,2.77,0,0,1,.92.49A.2.2,0,0,0,36.18,17.93Zm-1.42-1.84a.17.17,0,0,0,.21,0,.18.18,0,0,0,.06-.2,3.42,3.42,0,0,1-.09-1.52v0h0a4.53,4.53,0,0,1,.64,1,3,3,0,0,1,.27,1,2.31,2.31,0,0,1-.09.83h0a2.89,2.89,0,0,1-1.57-.93,4.82,4.82,0,0,1-.44-.55v0h0A2.22,2.22,0,0,1,34.76,16.09ZM33.55,14.2a3.08,3.08,0,0,1-.35-1.5v0h0a4.68,4.68,0,0,1,.79.91,3.25,3.25,0,0,1,.44,1,2.45,2.45,0,0,1,.05.85l0,0h0a2.8,2.8,0,0,1-1.61-.64,5.17,5.17,0,0,1-.55-.5,0,0,0,0,1,0,0h0a3,3,0,0,1,1,.17.17.17,0,0,0,.2,0A.16.16,0,0,0,33.55,14.2ZM32.77,13a2.35,2.35,0,0,1,.16.93s0,0,0,0h-.1a4.55,4.55,0,0,1-2.19-.86s0,0,0,0a0,0,0,0,1,0,0,2.57,2.57,0,0,1,1,0A.18.18,0,0,0,31.8,13a.18.18,0,0,0,0-.21,4,4,0,0,1-.61-1.15,0,0,0,0,1,0,0h0A2.35,2.35,0,0,1,32.77,13Zm-14.63-2.2h0a2.71,2.71,0,0,1,.49-.22,11.06,11.06,0,0,1,1.13-.32,2.91,2.91,0,0,0,.86-.34.06.06,0,0,0,0-.07.06.06,0,0,0-.06-.05L18,9.37h0L20.59,9a.07.07,0,0,0,.06-.07.06.06,0,0,0-.06-.06,4.49,4.49,0,0,1-1-.31l-.4-.21a3,3,0,0,0-1-.38h0a3.25,3.25,0,0,1,.54,0,10.71,10.71,0,0,1,1.17.14,3,3,0,0,0,.92,0,.07.07,0,0,0,0-.13L18.52,6.58h0a0,0,0,0,1,0,0l2.58.65a.07.07,0,0,0,.08,0,.07.07,0,0,0,0-.08,4,4,0,0,1-.82-.68L20,6.07a2.83,2.83,0,0,0-.81-.75s0,0,0,0h0a3.07,3.07,0,0,1,.5.2,9.85,9.85,0,0,1,1,.58,3.27,3.27,0,0,0,.85.37.08.08,0,0,0,.07,0s0,0,0-.08L20.09,4.21h0l2.14,1.58a.06.06,0,0,0,.08,0,.07.07,0,0,0,0-.09,4.13,4.13,0,0,1-.5-.94,4.28,4.28,0,0,1-.14-.43,3,3,0,0,0-.46-1h0a4.54,4.54,0,0,1,.38.38,9.81,9.81,0,0,1,.73.93,3,3,0,0,0,.64.67h.07a.07.07,0,0,0,0-.08l-.66-2.57h0s0,0,0,0L23.83,4.9a.07.07,0,0,0,.08,0,.06.06,0,0,0,0-.08,4.61,4.61,0,0,1-.1-1.06c0-.16,0-.31,0-.45a3.22,3.22,0,0,0,0-1.1v0h0a4.4,4.4,0,0,1,.21.5,10.46,10.46,0,0,1,.31,1.13,3.18,3.18,0,0,0,.34.87.08.08,0,0,0,.07,0,.06.06,0,0,0,.05-.06l.37-2.62s0,0,0,0a0,0,0,0,1,0,0l.38,2.62a.07.07,0,0,0,.07.06.06.06,0,0,0,.06-.06,4.8,4.8,0,0,1,.31-1c.07-.15.14-.28.2-.4a2.79,2.79,0,0,0,.39-1,0,0,0,0,1,0,0h0a4.86,4.86,0,0,1,0,.54A11,11,0,0,1,26.54,4a3.07,3.07,0,0,0,0,.93s0,0,.05.06a.08.08,0,0,0,.07,0L28,2.62a0,0,0,0,1,0,0v0l-.65,2.58a.07.07,0,0,0,0,.08.07.07,0,0,0,.08,0,4.08,4.08,0,0,1,.68-.82,4.31,4.31,0,0,1,.34-.3,3,3,0,0,0,.75-.81s0,0,0,0,0,0,0,0a3.07,3.07,0,0,1-.2.5,10.62,10.62,0,0,1-.57,1,3.27,3.27,0,0,0-.37.85.08.08,0,0,0,0,.07.06.06,0,0,0,.08,0L30.36,4.2h0L28.79,6.35a.08.08,0,0,0,0,.09.07.07,0,0,0,.09,0,4.2,4.2,0,0,1,.93-.5l.43-.14a2.92,2.92,0,0,0,1-.46h0v0a4.4,4.4,0,0,1-.37.38,11.56,11.56,0,0,1-.92.73,2.93,2.93,0,0,0-.67.65,0,0,0,0,0,0,.07.06.06,0,0,0,.07,0l2.57-.66a0,0,0,0,1,0,0h0L29.67,8a.07.07,0,0,0,0,.08.07.07,0,0,0,.08,0A4.61,4.61,0,0,1,30.78,8l.45,0a3.22,3.22,0,0,0,1.1,0h0s0,0,0,0a3.06,3.06,0,0,1-.49.22,11.12,11.12,0,0,1-1.13.31,3.09,3.09,0,0,0-.86.34.06.06,0,0,0,0,.07.06.06,0,0,0,.05.06l2.62.37h0l-2.62.4a.06.06,0,0,0-.06.06.07.07,0,0,0,.06.07,4.49,4.49,0,0,1,1,.31l.4.21a3.15,3.15,0,0,0,1,.38h0l-.31,0h-.23a11,11,0,0,1-1.17-.14h-.06a3,3,0,0,0-1.26-.28h0a.11.11,0,0,0,0-.05.19.19,0,0,0-.12-.14,5.87,5.87,0,0,0-1.38-.31h-.34a3.48,3.48,0,0,0-.57,0h0a.19.19,0,0,0,0-.08v0a.21.21,0,0,0-.15-.11h-.37a5.33,5.33,0,0,0-1.35.07l-.33.08h0l-.05,0h0l-.08,0h0l-.15.06h0v0h0a.22.22,0,0,0-.05-.17h0a.19.19,0,0,0-.14-.05,5.32,5.32,0,0,0-1.68.39,3.21,3.21,0,0,0-.45.24h0a.22.22,0,0,1,0-.06h0a.26.26,0,0,0-.07-.17h-.05a.15.15,0,0,0-.13,0,5.18,5.18,0,0,0-1.59.71l0,0h-.39l-.45,0A3.22,3.22,0,0,0,18.14,10.77Zm1,.52h0a0,0,0,0,0,0,0,3,3,0,0,1-.5,1.46.2.2,0,0,0,0,.21.18.18,0,0,0,.19.07,4,4,0,0,1,1-.06l0,0a0,0,0,0,1,0,0,3.72,3.72,0,0,1-2.16.9h-.1l0,0A3.11,3.11,0,0,1,19.14,11.29ZM16,14.61a3.12,3.12,0,0,1,.43-1,5,5,0,0,1,.82-.93h0s0,0,0,0A3,3,0,0,1,17,14.2a.17.17,0,0,0,0,.2.17.17,0,0,0,.2,0,4.16,4.16,0,0,1,1-.17h0a0,0,0,0,1,0,0,6.47,6.47,0,0,1-.56.5,2.79,2.79,0,0,1-1.52.65H16a0,0,0,0,1,0,0A2.23,2.23,0,0,1,16,14.61Zm-.5-.27h0v0a3,3,0,0,1-.11,1.54.19.19,0,0,0,.06.2.18.18,0,0,0,.22,0,2.15,2.15,0,0,1,1-.33h0a0,0,0,0,1,0,0,3.46,3.46,0,0,1-2,1.48h0l0,0A3,3,0,0,1,15.53,14.34Zm-2,3a4.48,4.48,0,0,1,.53-1.11h0a0,0,0,0,1,0,0,3.05,3.05,0,0,1,.08,1.54.16.16,0,0,0,.09.19.17.17,0,0,0,.21,0,2,2,0,0,1,.94-.46h0a0,0,0,0,1,0,0,4.91,4.91,0,0,1-.37.63,2.77,2.77,0,0,1-1.46,1.09h0a2.47,2.47,0,0,1-.19-.81A3.15,3.15,0,0,1,13.54,17.33ZM12.47,19.4a4.47,4.47,0,0,1,.35-1.18h0a3.19,3.19,0,0,1,.3,1.52.19.19,0,0,0,.1.17.18.18,0,0,0,.2,0,4.67,4.67,0,0,1,.9-.57h0s0,0,0,0a3,3,0,0,1-1.57,1.92h0a0,0,0,0,1,0,0,2.2,2.2,0,0,1-.31-.76A3.05,3.05,0,0,1,12.47,19.4Zm-.59,1,0,0h0a3.26,3.26,0,0,1,.49,1.47.17.17,0,0,0,.12.16.19.19,0,0,0,.2-.06,3.37,3.37,0,0,1,.81-.68h0v0a3.15,3.15,0,0,1-.13.61,2.74,2.74,0,0,1-1.19,1.51h0a2.29,2.29,0,0,1-.4-.73,2.89,2.89,0,0,1-.16-1.07A4.25,4.25,0,0,1,11.88,20.37Zm-.66,2.25h0l0,0h0A3.09,3.09,0,0,1,11.94,24a.17.17,0,0,0,.14.14.16.16,0,0,0,.18-.07,3.82,3.82,0,0,1,.71-.76h0a0,0,0,0,1,0,0,3.11,3.11,0,0,1-.09.6A3,3,0,0,1,12,25.56h0a2.23,2.23,0,0,1-.49-.67,3.14,3.14,0,0,1-.29-1A4.71,4.71,0,0,1,11.22,22.62Zm-.33,2.25s0,0,0,0h0a3.14,3.14,0,0,1,.73,1.36.19.19,0,0,0,.16.14.19.19,0,0,0,.18-.11,2.84,2.84,0,0,1,.6-.79h0a0,0,0,0,1,0,0,3.82,3.82,0,0,1-.06.68,2.72,2.72,0,0,1-.8,1.62h0a2.27,2.27,0,0,1-.52-.65,3,3,0,0,1-.34-1A4.22,4.22,0,0,1,10.89,24.87Zm-.19,2.37h0l0,0h0l.14.15a3.07,3.07,0,0,1,.68,1.17.17.17,0,0,0,.17.12h0a.17.17,0,0,0,.17-.15,1.72,1.72,0,0,1,.49-.86h0a0,0,0,0,1,0,0,3.46,3.46,0,0,1,0,1.12,2.26,2.26,0,0,1-.66,1.3,0,0,0,0,1,0,0h0A3.06,3.06,0,0,1,10.7,27.24Zm-.1,2.31a0,0,0,0,1,0,0,0,0,0,0,1,0,0l.16.13a3.12,3.12,0,0,1,.79,1.09.18.18,0,0,0,.17.11h0a.18.18,0,0,0,.16-.11,4.06,4.06,0,0,1,.55-.91h0a0,0,0,0,1,0,0A3,3,0,0,1,12,32.27h0A3.07,3.07,0,0,1,10.6,29.55Zm.13,2.38h0s0,0,0,0,0,0,0,0a3,3,0,0,1,1.15,1,.19.19,0,0,0,.19.08.18.18,0,0,0,.14-.14h0a4.1,4.1,0,0,1,.39-1l0,0h0l0,0a3.14,3.14,0,0,1,.21.61,2.63,2.63,0,0,1-.32,1.89h0a2.68,2.68,0,0,1-.72-.44,3.25,3.25,0,0,1-.67-.86A4.41,4.41,0,0,1,10.73,31.93Zm.54,2.22h0v0h0l.18.08a3.13,3.13,0,0,1,1,.87.2.2,0,0,0,.19.07.21.21,0,0,0,.14-.15,3.92,3.92,0,0,1,.29-1h0a3,3,0,0,1,.09,2.46l0,0h0A3.07,3.07,0,0,1,11.27,34.15Zm.7,2.23a0,0,0,0,1,0,0h0l.19.06a3.21,3.21,0,0,1,1.14.74.17.17,0,0,0,.19,0,.19.19,0,0,0,.12-.16,3.84,3.84,0,0,1,.17-1s0,0,0,0,0,0,0,0a4.53,4.53,0,0,1,.28.59,2.84,2.84,0,0,1,.1,1.83h0a2.46,2.46,0,0,1-.78-.29,3.08,3.08,0,0,1-.82-.72A5,5,0,0,1,12,36.38Zm1.7,3.09a5.16,5.16,0,0,1-.75-1v0h0a3.15,3.15,0,0,1,1.41.65.18.18,0,0,0,.2,0,.19.19,0,0,0,.09-.18,3.84,3.84,0,0,1,0-1l0,0h0a4.88,4.88,0,0,1,.34.58,2.94,2.94,0,0,1,.32,1.76l0,0a2.34,2.34,0,0,1-.81-.2A3.09,3.09,0,0,1,13.67,39.47Zm.44,1v0l0,0a3.21,3.21,0,0,1,1.47.5.18.18,0,0,0,.2,0,.19.19,0,0,0,.07-.2,3.07,3.07,0,0,1-.06-1s0,0,0,0h0A3.56,3.56,0,0,1,16.76,42l0,0h-.09a2.41,2.41,0,0,1-.74-.12,3.23,3.23,0,0,1-1-.52A4.56,4.56,0,0,1,14.11,40.47Zm4.13,3.07a1.53,1.53,0,0,1-.3,0,2.49,2.49,0,0,1-.46,0,4.15,4.15,0,0,1-2-1.12,0,0,0,0,1,0,0h0a3.06,3.06,0,0,1,1.54.2.19.19,0,0,0,.2,0,.18.18,0,0,0,0-.2,3.62,3.62,0,0,1-.23-1s0,0,0,0h0a2.89,2.89,0,0,1,1.14,2.19Zm4.35,1.91a11.71,11.71,0,0,1-1.51-.52,12.6,12.6,0,0,1-2.44-1.38h0a2.42,2.42,0,0,0-.13-.92v0h0a11.55,11.55,0,0,0,1.7,1.22,10.86,10.86,0,0,0,2.08.89h0l.18.05a1.2,1.2,0,0,0,.18.7Zm1.2-.56a.91.91,0,0,0,.05.77.06.06,0,0,1,0,0h0a1.53,1.53,0,0,1-.7-.43.69.69,0,0,1-.15-.52.45.45,0,0,1,.2-.34,1.78,1.78,0,0,1,1-.13s0,0,0,0a0,0,0,0,1,0,0A1.18,1.18,0,0,0,23.79,44.89Zm1.44,2.3a.63.63,0,1,1,.63-.63A.63.63,0,0,1,25.23,47.19ZM26,45.74h0a1.09,1.09,0,0,0-.73-.28,1.07,1.07,0,0,0-.73.29h0a.69.69,0,0,1-.23-.69c.2-.55,1-.56,1-.56h0a1.68,1.68,0,0,1,.43.07.84.84,0,0,1,.57.49A.71.71,0,0,1,26,45.74Zm1.36-.47a1.48,1.48,0,0,1-.7.43h0s0,0,0,0,0,0,0,0a1,1,0,0,0,.05-.77,1.18,1.18,0,0,0-.41-.55s0,0,0,0,0,0,0,0a1.87,1.87,0,0,1,1,.13.45.45,0,0,1,.2.34A.69.69,0,0,1,27.36,45.27Zm4.48-1.72h0A11.14,11.14,0,0,1,30,44.67a12,12,0,0,1-2.11.79l-.14,0a1.13,1.13,0,0,0,.2-.72l.21-.06h0a10.92,10.92,0,0,0,2-.88A11.57,11.57,0,0,0,32,42.6h0A2.53,2.53,0,0,0,31.84,43.55ZM30,43.45a10.64,10.64,0,0,1-2.07.88l-.07,0a.82.82,0,0,0-.31-.33,3.41,3.41,0,0,0-2.32,0h0a3.44,3.44,0,0,0-2.33,0,.86.86,0,0,0-.3.33l-.11,0a10.26,10.26,0,0,1-2-.87A12.9,12.9,0,0,1,16.53,40a17.68,17.68,0,0,1-1.1-1.66h0c.78-.34,2.78-1.25,4.51-2.14h0a.9.9,0,0,0,.06.22,1,1,0,0,0,.8.5l.28,0h0a1,1,0,0,0,.69.59,2.14,2.14,0,0,0,.38.07h0a.78.78,0,0,0,.3.37,1.52,1.52,0,0,0,1.06.15h0a.92.92,0,0,0,.56.34,1.33,1.33,0,0,0,.72-.08h0v3a.38.38,0,0,0,.39.39.39.39,0,0,0,.39-.39V38.23h0a1.69,1.69,0,0,0,.95-.08A1.33,1.33,0,0,0,27,37.9h0a1.07,1.07,0,0,0,1-.31,1,1,0,0,0,.21-.28h.09a1.22,1.22,0,0,0,1-.41,1.27,1.27,0,0,0,.2-.31h0a1.13,1.13,0,0,0,.79-.31,1.11,1.11,0,0,0,.22-.3h0A21.84,21.84,0,0,0,35,38.38h0a16.91,16.91,0,0,1-1,1.56A12.9,12.9,0,0,1,30,43.45Zm4.93-1.05h0A4,4,0,0,1,33,43.52a2.49,2.49,0,0,1-.46,0,1.15,1.15,0,0,1-.3,0l0,0a2.45,2.45,0,0,1,.67-1.7,3.19,3.19,0,0,1,.49-.48h0s0,0,0,0a4,4,0,0,1-.24,1,.18.18,0,0,0,.23.24,3.06,3.06,0,0,1,1.54-.2h0A0,0,0,0,1,34.94,42.4Zm1.45-1.93a4.6,4.6,0,0,1-.85.9,3.11,3.11,0,0,1-1,.52,2.4,2.4,0,0,1-.73.12h-.09s0,0,0,0a2.82,2.82,0,0,1,.51-1.74,3.88,3.88,0,0,1,.4-.53h0s0,0,0,0a4,4,0,0,1-.06,1,.2.2,0,0,0,.08.19.18.18,0,0,0,.2,0,3.14,3.14,0,0,1,1.47-.5l0,0Zm.43-1a3.09,3.09,0,0,1-.9.62,2.3,2.3,0,0,1-.81.2l0,0a2.86,2.86,0,0,1,.32-1.78,3.64,3.64,0,0,1,.34-.56h0l0,0a3.84,3.84,0,0,1,.05,1,.18.18,0,0,0,.1.18.17.17,0,0,0,.19,0,3.27,3.27,0,0,1,1.41-.65h0v0A4.45,4.45,0,0,1,36.82,39.47Zm1.06-2.06a3.24,3.24,0,0,1-.82.72,2.17,2.17,0,0,1-.78.29h0a2.91,2.91,0,0,1,.11-1.83,4.29,4.29,0,0,1,.26-.58h0v0a4.08,4.08,0,0,1,.18,1,.2.2,0,0,0,.12.17.21.21,0,0,0,.2-.05h0a2.61,2.61,0,0,1,1.13-.77l.2-.06h0v0A5,5,0,0,1,37.88,37.41Zm1.32-3.27a4.36,4.36,0,0,1-.51,1.11,3.21,3.21,0,0,1-.75.8,2.39,2.39,0,0,1-.74.37h0s0,0,0,0a3.09,3.09,0,0,1-.08-1.84,4.75,4.75,0,0,1,.2-.64l0,0,0,0a4.09,4.09,0,0,1,.27,1,.18.18,0,0,0,.13.15.17.17,0,0,0,.19-.06,3.12,3.12,0,0,1,1.24-.93h0s0,0,0,0ZM39.28,33a3.22,3.22,0,0,1-.64.88,2.4,2.4,0,0,1-.69.46h0a3,3,0,0,1-.32-1.86,4.84,4.84,0,0,1,.13-.64l0,0h0a5.16,5.16,0,0,1,.4,1,.17.17,0,0,0,.14.14.19.19,0,0,0,.19-.08l1.11-1.08h0s0,0,0,0A4.53,4.53,0,0,1,39.28,33Zm.34-2.28L38.44,32.2h0a2.9,2.9,0,0,1-.52-1.77,3.72,3.72,0,0,1,.08-.66s0,0,0,0h0a3.57,3.57,0,0,1,.49.91.17.17,0,0,0,.16.12h0a.18.18,0,0,0,.16-.1,3.11,3.11,0,0,1,1-1.19,0,0,0,0,1,0,0h0v0A4.9,4.9,0,0,1,39.62,30.73Z"/><path class="cls-1" d="M26,7.45v0a7.72,7.72,0,0,1,1.17-.11c1.11,0,1.27.37,1.29.41a.17.17,0,0,0,.15.09h.06s.06,0,.07,0a.17.17,0,0,0,0-.12,1.55,1.55,0,0,0-1.39-.83,4.56,4.56,0,0,0-1.26,0c-.17,0-.23.44-.23.44s0,.09,0,.11S26,7.45,26,7.45Z"/><path class="cls-1" d="M24.15,7.92h0a2.61,2.61,0,0,0-.87-.09,1.32,1.32,0,0,0-1.23.63.16.16,0,0,0,0,.15.11.11,0,0,0,.07.05.2.2,0,0,0,.26-.11s.06-.18.48-.28h0a0,0,0,0,1,0,0,.34.34,0,0,0,0,.18.49.49,0,0,0,1,0,.48.48,0,0,0,0-.2v0h0a.69.69,0,0,1,.38.35c0,.05.08.09.28.09a.16.16,0,0,0,.12,0,.07.07,0,0,0,0-.06A1,1,0,0,0,24.15,7.92Z"/><path class="cls-1" d="M26,8.69c.19,0,.25,0,.28-.09a.67.67,0,0,1,.37-.35h0s0,0,0,0a.71.71,0,0,0,0,.2.48.48,0,0,0,.49.48.47.47,0,0,0,.48-.48.48.48,0,0,0,0-.18v0h0c.4.1.47.27.48.29a.19.19,0,0,0,.24.1.13.13,0,0,0,.09-.05s0-.08,0-.15a1.37,1.37,0,0,0-1.24-.63,2.5,2.5,0,0,0-.87.09,1,1,0,0,0-.43.66.08.08,0,0,0,0,.07S25.94,8.69,26,8.69Z"/><path class="cls-1" d="M21.74,7.83h.06A.17.17,0,0,0,22,7.75s.28-.65,2.46-.3c0,0,.09,0,.13,0a.12.12,0,0,0,0-.11s-.06-.41-.23-.44a3.64,3.64,0,0,0-.76-.07,4,4,0,0,0-.49,0c-1.14.12-1.39.82-1.39.83s0,.1,0,.13.05,0,.06,0Z"/></svg>