<svg id="Layer_1" data-name="Layer 1" xmlns="http://www.w3.org/2000/svg" viewBox="0 0 50.46 50.46"><defs><style>.cls-1{fill:#65b4e1;}</style></defs><title>espacio publico</title><path class="cls-1" d="M49.2,27.2c0-2.39-2.3-6.51-4.24-9.54a1.83,1.83,0,0,0-3,0l-.52.84a54,54,0,0,0-5-9.49,2.42,2.42,0,0,0-4.09,0c-2.65,4.16-5.81,9.81-5.81,13.09,0,4.74,3.15,8.64,7.15,9.05v4.12a4.73,4.73,0,0,0-.57.88,3.2,3.2,0,0,0-3.37,4.37h-4L24.4,38.39h3.85a1,1,0,0,0,0-2h-4.4c0-.61,0-1.47,0-2.7H26a.68.68,0,0,0,0-1.36H23.81c0-.4,0-.82,0-1.28H26a.68.68,0,1,0,0-1.36H13.57a.68.68,0,0,0,0,1.36h2.19c0,.46,0,.88,0,1.28H13.57a.68.68,0,0,0,0,1.36h2.15c0,1.22,0,2.08,0,2.7h-4.4a1,1,0,1,0,0,2h3.84l-1.41,2.14H9.3V21.35h1.55a.57.57,0,0,0,.48-.26l1-1.55,0,0a3.41,3.41,0,0,0,.34,0,3.53,3.53,0,1,0-1.49-.35l-.67,1H6.92l-.67-1a3.47,3.47,0,1,0-1.49.35,3.41,3.41,0,0,0,.34,0l0,0,1,1.55a.57.57,0,0,0,.48.26H8.16V40.53H5.7a1,1,0,0,0,0,2h39.6a1,1,0,1,0,0-2h-.13a3.78,3.78,0,0,0-1.07-5l-.16-.09V33.8C46.88,33.52,49.2,30.67,49.2,27.2ZM10.36,16a2.35,2.35,0,1,1,2.35,2.35A2.35,2.35,0,0,1,10.36,16Zm-5.6,2.35A2.35,2.35,0,1,1,7.11,16,2.35,2.35,0,0,1,4.76,18.39Zm38-.23a.85.85,0,0,1,1.44,0c2.6,4.08,4.09,7.38,4.09,9,0,3-1.91,5.37-4.34,5.66V31.52a2.05,2.05,0,0,0,1.56-2,.49.49,0,0,0-1,0,1.06,1.06,0,0,1-.57.93V28.23a.49.49,0,1,0-1,0v2.23a1.06,1.06,0,0,1-.57-.93.49.49,0,0,0-1,0,2.05,2.05,0,0,0,1.56,2v1.33c-2.41-.31-4.29-2.71-4.29-5.65C38.66,25.53,40.15,22.24,42.75,18.16Zm-14.95,4c0-2.29,2-6.81,5.62-12.42a1.17,1.17,0,0,1,2,0,45.32,45.32,0,0,1,5.2,10.25c-1.5,2.59-2.85,5.43-2.85,7.26a7.59,7.59,0,0,0,.16,1.51,5.87,5.87,0,0,1-2.85,1.17V28A2.82,2.82,0,0,0,37.2,25.3a.68.68,0,0,0-1.36,0,1.45,1.45,0,0,1-.79,1.28V23.52a.68.68,0,1,0-1.36,0v3.06a1.45,1.45,0,0,1-.79-1.28.68.68,0,0,0-1.36,0A2.82,2.82,0,0,0,33.7,28V29.9C30.39,29.48,27.81,26.15,27.81,22.11ZM16.61,31h6.33c0,.41,0,.84,0,1.28H16.59C16.6,31.86,16.6,31.43,16.61,31Zm0,2.63H23c0,1,0,2,0,2.7H16.57C16.56,35.65,16.57,34.68,16.58,33.66Zm-.43,4.73H23.4c.29.46.73,1.15,1.39,2.14h-10C15.42,39.53,15.86,38.85,16.15,38.39Zm28.37-.18a2.54,2.54,0,0,1-.76,2.32H31a2.08,2.08,0,0,1,2.28-3.18A.57.57,0,0,0,34,37a3.58,3.58,0,0,1,6.2-1,.57.57,0,0,0,.65.17,2.68,2.68,0,0,1,3.67,2.05ZM40.82,35a4.66,4.66,0,0,0-5.77-.86v-3A7,7,0,0,0,38.29,30,5.84,5.84,0,0,0,43,33.8V35A3.78,3.78,0,0,0,40.82,35Z"/></svg>