<svg id="Layer_1" data-name="Layer 1" xmlns="http://www.w3.org/2000/svg" viewBox="0 0 50.46 50.46"><defs><style>.cls-1{fill:#65b4e1;}</style></defs><title>espacios</title><path class="cls-1" d="M43.51,9.73H16.83l-.56-.6a.88.88,0,0,0-1.24,0l-.56.6H4.6a.87.87,0,0,0-.86.86V21.1l-.26.3a.83.83,0,0,0-.23.56V24.4a.87.87,0,0,0,.53.79,1.16,1.16,0,0,0,.3.08.75.75,0,0,0,.6-.26l.26-.26V39.31a.87.87,0,0,0,.86.86H42.27a.87.87,0,0,0,.86-.86V21.21h.38a.87.87,0,0,0,.86-.86V10.63A.91.91,0,0,0,43.51,9.73Zm-38,9.57V11.42h7.43ZM18.77,38.37H12.35V26.65h6.42Zm6.13,0H20.5V25.79a.87.87,0,0,0-.86-.86H11.53a.87.87,0,0,0-.86.86V38.37H6.59V22.9h.08l9-9.53L24.9,23.2Zm16.55,0H26.63V25a.86.86,0,0,0,.9.19.81.81,0,0,0,.53-.79V22a.76.76,0,0,0-.23-.56l-.23-.23H41.45Zm1.2-19H26l-7.58-8H42.65Z"/><path class="cls-1" d="M30.15,34.76h8.11a.87.87,0,0,0,.86-.86V25.8a.87.87,0,0,0-.86-.86H30.15a.87.87,0,0,0-.86.86V33.9A.85.85,0,0,0,30.15,34.76ZM31,26.66H37.4v6.42H31Z"/></svg>