<?xml version="1.0" encoding="utf-8"?>
<!-- Generator: Adobe Illustrator 24.2.1, SVG Export Plug-In . SVG Version: 6.00 Build 0)  -->
<svg version="1.1" id="Capa_1" xmlns="http://www.w3.org/2000/svg" xmlns:xlink="http://www.w3.org/1999/xlink" x="0px" y="0px"
	 viewBox="0 0 50.5 50.5" style="enable-background:new 0 0 50.5 50.5;" xml:space="preserve">
<path d="M48.92,17.145l-10.586,1.957l0.194-2.039c0.016-0.17-0.056-0.336-0.19-0.441c-0.134-0.105-0.312-0.136-0.475-0.077
	l-6.657,2.358l0.485-4.527c0.02-0.177-0.058-0.351-0.201-0.456c-0.143-0.106-0.333-0.127-0.495-0.056l-7.586,3.304l0.823-6.616
	c0.02-0.158-0.037-0.316-0.153-0.425c-0.115-0.109-0.28-0.154-0.433-0.128L2.205,13.934c-0.24,0.044-0.413,0.254-0.41,0.498
	l0.311,24.86c0.002,0.157,0.077,0.304,0.204,0.397c0.087,0.063,0.19,0.097,0.296,0.097c0.048,0,0.097-0.007,0.145-0.021
	l13.102-3.945l4.199,3.5c0.029,0.024,0.062,0.037,0.094,0.053c0.008,0.004,0.01,0.013,0.018,0.017
	c0.006,0.003,0.012,0.002,0.018,0.004c0.061,0.026,0.126,0.041,0.19,0.041c0.07,0,0.139-0.016,0.203-0.044
	c0.022-0.01,0.038-0.029,0.058-0.042c0.037-0.023,0.076-0.043,0.107-0.076l5.234-5.708l2.757,3.36
	c0.051,0.062,0.115,0.107,0.184,0.138c0.001,0.001,0.002,0.002,0.003,0.003c0.064,0.028,0.133,0.042,0.2,0.042
	c0.064,0,0.126-0.015,0.185-0.039c0.019-0.008,0.035-0.02,0.053-0.03c0.027-0.015,0.055-0.025,0.08-0.045
	c0.01-0.009,0.015-0.021,0.025-0.03c0.009-0.008,0.021-0.012,0.029-0.021l4.244-4.694c0.802,0.946,1.613,1.9,2.279,2.684
	c0.054,0.064,0.121,0.106,0.194,0.136c0.004,0.001,0.005,0.006,0.008,0.007c0.059,0.022,0.119,0.033,0.179,0.033
	c0.069,0,0.136-0.019,0.2-0.047c0.019-0.008,0.035-0.02,0.054-0.031c0.024-0.014,0.049-0.023,0.071-0.041
	c0.018-0.015,0.026-0.036,0.041-0.052c0.011-0.012,0.026-0.017,0.036-0.03l12.62-16.971c0.122-0.165,0.132-0.388,0.023-0.563
	C49.327,17.197,49.123,17.109,48.92,17.145z M3.096,38.615L2.799,14.841l20.357-3.737L20.38,33.411L3.096,38.615z M19.98,37.958
	L17,35.473l3.388-1.02L19.98,37.958z M21.045,37.458l2.224-19.14l7.337-3.196l-1.444,13.483L21.045,37.458z M28.726,35.343
	l-2.071-2.524l2.541-2.772L28.726,35.343z M29.746,35.164l1.349-15.162l6.364-2.254l-0.945,9.931L29.746,35.164z M36.003,33.378
	c-0.516-0.607-1.06-1.248-1.595-1.879l1.972-2.181L36.003,33.378z M37.054,32.878l1.183-12.742l9.613-1.777L37.054,32.878z"/>
<polygon points="9.457,20.743 11.136,15.974 9.767,15.974 8.631,19.489 7.495,15.974 6.043,15.974 7.717,20.743 "/>
<path d="M12.396,20.578c0.387,0.172,0.879,0.257,1.478,0.257c0.224,0,0.45-0.012,0.678-0.037c0.228-0.025,0.469-0.066,0.722-0.124
	v-1.042c-0.206,0.047-0.412,0.084-0.617,0.111c-0.205,0.028-0.4,0.041-0.586,0.041c-0.366,0-0.653-0.038-0.861-0.113
	c-0.208-0.076-0.355-0.2-0.44-0.373c-0.068-0.138-0.102-0.324-0.115-0.538h2.886v-0.362c0-0.541-0.079-0.997-0.235-1.369
	c-0.157-0.372-0.39-0.653-0.698-0.844c-0.308-0.19-0.688-0.286-1.138-0.286c-0.471,0-0.871,0.094-1.201,0.283
	c-0.33,0.189-0.581,0.466-0.754,0.833c-0.173,0.366-0.26,0.812-0.26,1.338c0,0.578,0.094,1.051,0.281,1.417
	C11.722,20.137,12.009,20.406,12.396,20.578z M12.734,17.292c0.062-0.185,0.154-0.316,0.275-0.395
	c0.121-0.078,0.269-0.118,0.447-0.118c0.174,0,0.32,0.039,0.438,0.118c0.118,0.078,0.206,0.211,0.264,0.397
	c0.052,0.168,0.078,0.395,0.083,0.667h-1.596C12.649,17.688,12.677,17.46,12.734,17.292z"/>
<path d="M9.139,21.922c-0.265,0-0.507,0.054-0.728,0.163c-0.221,0.109-0.398,0.281-0.532,0.517h-0.07l-0.105-0.615H6.566v4.77h1.386
	v-3.126c0.081-0.099,0.182-0.182,0.301-0.251c0.119-0.068,0.249-0.119,0.388-0.153c0.14-0.033,0.278-0.05,0.414-0.05
	c0.076,0,0.155,0.002,0.238,0.006c0.083,0.004,0.161,0.014,0.233,0.028v-1.256c-0.052-0.012-0.112-0.02-0.179-0.026
	C9.281,21.925,9.211,21.922,9.139,21.922z"/>
<path d="M12.588,26.282h0.065l0.096,0.475h1.142v-2.838c0-0.503-0.077-0.9-0.231-1.192c-0.154-0.292-0.393-0.501-0.717-0.626
	c-0.324-0.125-0.739-0.188-1.245-0.188c-0.238,0-0.496,0.017-0.774,0.05c-0.278,0.034-0.533,0.084-0.765,0.15v1.046
	c0.212-0.067,0.435-0.116,0.667-0.146c0.233-0.031,0.44-0.046,0.624-0.046c0.264,0,0.476,0.027,0.634,0.081
	c0.158,0.054,0.273,0.143,0.344,0.268c0.071,0.125,0.107,0.296,0.107,0.514v0.067l-0.776,0.064
	c-0.698,0.047-1.203,0.196-1.515,0.449c-0.313,0.253-0.469,0.605-0.469,1.055c0,0.41,0.136,0.742,0.408,0.996
	c0.272,0.254,0.652,0.381,1.14,0.381c0.259,0,0.498-0.045,0.719-0.135C12.263,26.619,12.445,26.476,12.588,26.282z M11.306,25.734
	c-0.108-0.094-0.161-0.229-0.161-0.403c0-0.177,0.059-0.317,0.177-0.419c0.118-0.102,0.31-0.163,0.578-0.183l0.637-0.052v0.898
	c-0.11,0.11-0.233,0.188-0.366,0.233c-0.134,0.045-0.265,0.068-0.392,0.068C11.57,25.876,11.413,25.829,11.306,25.734z"/>
<path d="M10.109,28.188c-0.246-0.123-0.525-0.185-0.839-0.185c-0.279,0-0.538,0.048-0.776,0.144
	C8.255,28.242,8.047,28.38,7.87,28.56H7.804l-0.091-0.484H6.566v4.77h1.386v-3.261c0.076-0.087,0.162-0.16,0.259-0.218
	c0.097-0.058,0.199-0.101,0.305-0.129s0.211-0.041,0.316-0.041c0.209,0,0.374,0.055,0.493,0.166c0.119,0.11,0.179,0.31,0.179,0.597
	v2.886h1.391v-2.974c0-0.451-0.07-0.813-0.209-1.088C10.547,28.51,10.354,28.311,10.109,28.188z"/>
<path d="M15.162,28.275c-0.347-0.182-0.764-0.272-1.249-0.272c-0.486,0-0.902,0.09-1.249,0.27c-0.347,0.18-0.613,0.453-0.798,0.82
	c-0.185,0.366-0.277,0.827-0.277,1.382c0,0.549,0.094,1.006,0.284,1.371c0.189,0.365,0.457,0.638,0.804,0.82
	c0.347,0.182,0.759,0.273,1.236,0.273c0.477,0,0.889-0.091,1.236-0.273c0.347-0.182,0.615-0.456,0.805-0.822
	c0.189-0.366,0.283-0.825,0.283-1.378c0-0.549-0.092-1.006-0.277-1.371C15.775,28.73,15.509,28.456,15.162,28.275z M14.728,31.322
	c-0.073,0.205-0.178,0.35-0.316,0.434c-0.138,0.084-0.304,0.126-0.499,0.126c-0.195,0-0.361-0.042-0.499-0.126
	c-0.138-0.084-0.244-0.23-0.316-0.436c-0.073-0.206-0.109-0.493-0.109-0.859c0-0.36,0.036-0.643,0.109-0.848
	c0.073-0.205,0.178-0.349,0.316-0.434c0.138-0.084,0.304-0.126,0.499-0.126c0.195,0,0.361,0.043,0.499,0.129
	c0.138,0.086,0.244,0.232,0.316,0.438c0.073,0.206,0.109,0.493,0.109,0.859C14.837,30.836,14.801,31.117,14.728,31.322z"/>
</svg>
