<svg id="Layer_1" data-name="Layer 1" xmlns="http://www.w3.org/2000/svg" viewBox="0 0 50.46 50.46"><defs><style>.cls-1{fill:#65b4e1;}</style></defs><title>estetoscopio</title><path class="cls-1" d="M35.64,18.27a5.64,5.64,0,0,0-3,10.4,1,1,0,0,0,1-1.61,3.73,3.73,0,1,1,3.85.1,1,1,0,1,0,.95,1.67,5.64,5.64,0,0,0-2.79-10.55Z"/><path class="cls-1" d="M38.48,24a2.8,2.8,0,0,0-5.61,0,3,3,0,0,0,1.79,2.6v3.67c0,5.19-3.58,9.41-8,9.41s-8-4.22-8-9.41V28.78a3.73,3.73,0,0,0,2.5-2.15l0,0,4.73-11.67A4,4,0,0,0,23,9.33a1.32,1.32,0,1,0-.16,1.93,2.08,2.08,0,0,1,1.31,2.88l0,0L19.44,25.87a2.05,2.05,0,0,1-1.87,1.21h0a2,2,0,0,1-1.87-1.25L11.29,14.15l0-.05a2.08,2.08,0,0,1,1.55-2.88,1.32,1.32,0,1,0-.05-1.93A4,4,0,0,0,9.5,14.83L13.89,26.5s.08,0,.08,0a3.71,3.71,0,0,0,2.94,2.32v1.37a12.09,12.09,0,0,0,2.79,8,9.2,9.2,0,0,0,7,3.37,9.37,9.37,0,0,0,7.1-3.37,12.19,12.19,0,0,0,2.91-8V26.56A3,3,0,0,0,38.48,24Z"/></svg>