<?xml version="1.0" encoding="utf-8"?>
<!-- Generator: Adobe Illustrator 22.1.0, SVG Export Plug-In . SVG Version: 6.00 Build 0)  -->
<svg version="1.1" id="Layer_1" xmlns="http://www.w3.org/2000/svg" xmlns:xlink="http://www.w3.org/1999/xlink" x="0px" y="0px"
	 viewBox="0 0 50.5 50.5" style="enable-background:new 0 0 50.5 50.5;" xml:space="preserve">
<style type="text/css">
	.st0{fill:#12B5E1;}
</style>
<title>estetoscopio</title>
<g>
	<g>
		<path class="st0" d="M39.1,16.2c-1.4,0-2.6,1.1-2.6,2.6c0,1.4,1.1,2.6,2.6,2.6c1.4,0,2.6-1.1,2.6-2.6
			C41.6,17.3,40.5,16.2,39.1,16.2z M39.1,19.6c-0.5,0-0.9-0.4-0.9-0.9c0-0.5,0.4-0.9,0.9-0.9s0.9,0.4,0.9,0.9
			C39.9,19.2,39.5,19.6,39.1,19.6z"/>
		<path class="st0" d="M45.1,17.9c-0.2-1.5-0.9-2.8-2.1-3.7c-1.1-0.9-2.5-1.5-4-1.5c-0.4,0-0.7,0-1.1,0.1c-1.5,0.3-2.8,1.1-3.7,2.2
			c-0.9,1.2-1.4,2.7-1.3,4.1c0.1,1.3,0.6,2.6,1.5,3.6c0.9,1,2.1,1.7,3.3,1.9c0,0,0.1,0,0.1,0V38c0,5.3-4,9.6-8.9,9.6
			s-8.9-4.3-8.9-9.6v-4.9c1.3,0,2.6-1,2.6-3.5v-0.6c2.9-1.2,5.5-3.9,7.4-7.9c0.3-0.5,0.3-1.1,0.1-1.6c-0.1-0.2-0.2-0.4-0.3-0.5
			c1.1-2.4,1.8-4.7,2.3-6.3l0.1-0.4c1.1-3.4,0.9-6-0.5-7.7c-1.1-1.4-2.8-1.8-4-2c0,0,0,0,0-0.1l0,0l0,0c-0.3-0.7-0.8-1.2-1.5-1.5
			c-0.3-0.1-0.6-0.2-1-0.2c-1.1,0-2.1,0.7-2.5,1.8C22.4,4,23.1,5.5,24.4,6c0.3,0.1,0.7,0.2,1,0.2c1.1,0,2.1-0.7,2.5-1.7l0,0
			c0.8,0.1,1.9,0.4,2.6,1.3c1,1.2,1,3.2,0.2,6l-0.1,0.4c-0.5,1.5-1.1,3.7-2.1,5.9c0,0-0.1,0-0.1,0c-0.8,0-1.5,0.5-1.9,1.2
			c-1,2.1-2.2,3.6-3.4,4.7c-1.1,1-2.3,1.5-3.4,1.5c0,0-0.1,0-0.1,0c-1.2,0-2.4-0.5-3.6-1.5c-1.3-1.1-2.6-2.7-3.8-4.7
			c-0.4-0.7-1.1-1.1-1.8-1.1c-1.1-2.4-1.9-4.9-2.4-6.3l-0.1-0.2C6.9,9,7,7.1,8,5.9C8.7,5,9.8,4.7,10.6,4.5l0,0
			c0.4,1,1.4,1.7,2.5,1.7c0.4,0,0.7-0.1,1-0.2c1.3-0.5,1.9-2,1.5-3.4c-0.4-1.1-1.4-1.8-2.5-1.8c-0.3,0-0.7,0.1-1,0.2
			c-0.7,0.3-1.2,0.8-1.5,1.5l0,0l0,0c0,0,0,0,0,0.1c0,0,0,0,0,0c-1.2,0.1-2.9,0.6-4.1,2C5.1,6.4,5,9,6,12.3l0.1,0.2
			c0.5,1.5,1.3,4,2.5,6.5c-0.2,0.2-0.3,0.5-0.4,0.8c-0.2,0.5-0.1,1.1,0.2,1.6c1.5,2.6,3.1,4.7,5,6.1c0.8,0.6,1.6,1.1,2.4,1.5v0.7
			c0,2.5,1.3,3.5,2.6,3.5V38c0,6.4,4.8,11.5,10.8,11.5S39.8,44.4,39.8,38V24.7c0,0,0.1,0,0.1,0c1.6-0.2,3-1.1,4-2.4
			C44.9,21,45.3,19.5,45.1,17.9z M25.4,4.3c-0.4,0-0.8-0.3-0.8-0.8c0-0.4,0.3-0.8,0.8-0.8c0.4,0,0.8,0.3,0.8,0.8
			C26.2,4,25.8,4.3,25.4,4.3z M13.1,2.8c0.4,0,0.8,0.3,0.8,0.8c0,0.4-0.3,0.8-0.8,0.8c-0.4,0-0.8-0.3-0.8-0.8
			C12.3,3.1,12.7,2.8,13.1,2.8z M9.8,20.6c-0.1-0.1-0.1-0.2,0-0.3c0-0.1,0.1-0.2,0.2-0.3c0.1,0,0.1-0.1,0.2-0.1
			c0.2,0,0.3,0.1,0.4,0.2c2.6,4.5,5.7,7.1,8.8,7.1c0,0,0.1,0,0.1,0c3.1-0.1,6.1-2.6,8.4-7.2c0.1-0.1,0.2-0.2,0.4-0.2
			c0.1,0,0.1,0,0.2,0c0.1,0.1,0.2,0.1,0.2,0.2c0,0.1,0,0.2,0,0.3c-2.4,4.8-5.6,7.6-9.1,7.6c-0.1,0-0.1,0-0.2,0
			C15.9,28.1,12.5,25.4,9.8,20.6z M18.4,31.3c-0.7,0-0.8-1.2-0.8-1.6v-0.1c0.6,0.1,1.2,0.2,1.8,0.2c0.1,0,0.1,0,0.2,0
			c0.4,0,0.8-0.1,1.3-0.1v0c0,0.4-0.1,1.6-0.8,1.6H18.4z M39.1,22.9c-2.3,0-4.2-1.9-4.2-4.2c0-2.3,1.9-4.2,4.2-4.2
			c2.3,0,4.2,1.9,4.2,4.2S41.4,22.9,39.1,22.9z"/>
	</g>
</g>
</svg>
