<svg id="Layer_1" data-name="Layer 1" xmlns="http://www.w3.org/2000/svg" viewBox="0 0 50.46 50.46"><defs><style>.cls-1{fill:#65b4e1;}</style></defs><title>estereo</title><g id="Capa_6" data-name="Capa 6"><path class="cls-1" d="M45.7,11.1H34.91a2.58,2.58,0,0,0-2.57,2.57v9a2.22,2.22,0,0,0-.87-.15H19.07a3.5,3.5,0,0,0-.87.15v-9a2.58,2.58,0,0,0-2.57-2.57H4.84a2.58,2.58,0,0,0-2.57,2.57v25a2.58,2.58,0,0,0,2.57,2.57H15.62a2.54,2.54,0,0,0,1.7-.68,2.54,2.54,0,0,0,1.7.68h12.4a2.54,2.54,0,0,0,1.7-.68,2.54,2.54,0,0,0,1.7.68H45.62a2.58,2.58,0,0,0,2.57-2.57v-25A2.48,2.48,0,0,0,45.7,11.1Zm-30,28.38H4.91A.88.88,0,0,1,4,38.61v-25a.88.88,0,0,1,.87-.87H15.7a.88.88,0,0,1,.87.87v25A.94.94,0,0,1,15.7,39.48Zm15.8,0H19.11a.88.88,0,0,1-.87-.87V25a.88.88,0,0,1,.87-.87H31.5a.88.88,0,0,1,.87.87V38.61A.94.94,0,0,1,31.5,39.48Zm15-.87a.88.88,0,0,1-.87.87H34.91a.88.88,0,0,1-.87-.87v-25a.88.88,0,0,1,.87-.87H45.7a.88.88,0,0,1,.87.87v25Z"/><path class="cls-1" d="M30.37,35.77H20.24a.57.57,0,1,0,0,1.14H30.37a.57.57,0,1,0,0-1.14Z"/><path class="cls-1" d="M30.37,33.23H20.24a.57.57,0,1,0,0,1.14H30.37a.57.57,0,0,0,0-1.14Z"/><path class="cls-1" d="M21.64,31.3h7.29a.58.58,0,0,0,.57-.57V26.19a.58.58,0,0,0-.57-.57H21.64a.58.58,0,0,0-.57.57v4.54A.58.58,0,0,0,21.64,31.3Zm.57-4.54h6.15v3.41H22.21Z"/></g><path class="cls-1" d="M10.16,35.38a4.7,4.7,0,1,1,4.7-4.7A4.71,4.71,0,0,1,10.16,35.38Zm0-7.83a3.13,3.13,0,1,0,3.13,3.13A3.13,3.13,0,0,0,10.16,27.55Z"/><path class="cls-1" d="M10.16,18A1.67,1.67,0,1,1,8.5,19.65,1.67,1.67,0,0,1,10.16,18m0-1.4a3.07,3.07,0,1,0,3.07,3.07,3.07,3.07,0,0,0-3.07-3.07Z"/><path class="cls-1" d="M40.3,35.38a4.7,4.7,0,1,1,4.7-4.7A4.71,4.71,0,0,1,40.3,35.38Zm0-7.83a3.13,3.13,0,1,0,3.13,3.13A3.13,3.13,0,0,0,40.3,27.55Z"/><path class="cls-1" d="M40.3,18a1.67,1.67,0,1,1-1.67,1.67A1.67,1.67,0,0,1,40.3,18m0-1.4a3.07,3.07,0,1,0,3.07,3.07,3.07,3.07,0,0,0-3.07-3.07Z"/></svg>