<?xml version="1.0" encoding="utf-8"?>
<!-- Generator: Adobe Illustrator 25.4.1, SVG Export Plug-In . SVG Version: 6.00 Build 0)  -->
<svg version="1.1" id="Capa_1" xmlns="http://www.w3.org/2000/svg" xmlns:xlink="http://www.w3.org/1999/xlink" x="0px" y="0px"
	 viewBox="0 0 50.46 50.46" enable-background="new 0 0 50.46 50.46" xml:space="preserve">
<g>
	<path d="M34.103,37.31c-1.463,0-2.655,1.191-2.655,2.655c0,1.463,1.191,2.655,2.655,2.655s2.655-1.191,2.655-2.655
		C36.758,38.501,35.566,37.31,34.103,37.31z M34.103,41.557c-0.878,0-1.592-0.714-1.592-1.592c0-0.878,0.714-1.592,1.592-1.592
		c0.878,0,1.592,0.714,1.592,1.592C35.695,40.843,34.981,41.557,34.103,41.557z"/>
	<path d="M32.888,21.914c0.375,0.154,0.785,0.242,1.215,0.242c1.772,0,3.213-1.442,3.213-3.213c0-1.772-1.442-3.213-3.213-3.213
		c-0.871,0-1.66,0.351-2.239,0.916l-8.591-5.663c0.312-0.676,0.499-1.422,0.499-2.214c0-2.93-2.384-5.314-5.314-5.314
		s-5.314,2.384-5.314,5.314c0,2.711,2.049,4.93,4.676,5.249v25.715c-1.746,0.304-3.081,1.822-3.081,3.653
		c0,2.051,1.668,3.719,3.719,3.719s3.719-1.668,3.719-3.719c0-0.766-0.234-1.478-0.632-2.071L32.888,21.914z M34.103,17.005
		c1.069,0,1.939,0.869,1.939,1.938s-0.87,1.938-1.939,1.938c-1.069,0-1.939-0.869-1.939-1.938S33.034,17.005,34.103,17.005z
		 M31.142,17.697c-0.162,0.383-0.252,0.804-0.252,1.246c0,0.882,0.358,1.682,0.936,2.263L20.618,40.373
		c-0.445-0.32-0.961-0.542-1.522-0.64V14.018c1.416-0.172,2.651-0.893,3.499-1.955L31.142,17.697z M14.419,8.769
		c0-2.227,1.812-4.038,4.038-4.038s4.038,1.812,4.038,4.038s-1.812,4.038-4.038,4.038S14.419,10.996,14.419,8.769z M18.458,45.831
		c-1.347,0-2.443-1.097-2.443-2.444c0-1.347,1.096-2.443,2.443-2.443s2.443,1.096,2.443,2.443
		C20.901,44.734,19.805,45.831,18.458,45.831z"/>
</g>
</svg>
