<?xml version="1.0" encoding="utf-8"?>
<!-- Generator: Adobe Illustrator 22.0.0, SVG Export Plug-In . SVG Version: 6.00 Build 0)  -->
<svg version="1.1" id="Layer_1" xmlns="http://www.w3.org/2000/svg" xmlns:xlink="http://www.w3.org/1999/xlink" x="0px" y="0px"
	 viewBox="0 0 50.46 50.46" style="enable-background:new 0 0 50.46 50.46;" xml:space="preserve">
<g>
	<path d="M12.185,42.47c-1.519-0.006-2.745-1.241-2.74-2.76c0,0,0,0,0,0V18.33h31.55v5.411c0.653,0.469,1.13,1.149,1.341,1.932
		c0.066-0.004,0.132-0.006,0.198-0.006c0.095,0,0.188,0.011,0.282,0.019V16.56l-8.03-10.4h-19.14l-8,10.41v23.14
		c-0.006,2.522,2.028,4.573,4.55,4.59h17.939v-1.83H12.185z M26.455,7.98h7.43l6.44,8.54h-13.87V7.98z M16.565,7.98h8.08v8.54
		h-14.44L16.565,7.98z"/>
</g>
<g>
	<polygon points="40.004,32.386 39.867,32.367 37.967,32.097 37.061,30.256 36.155,32.097 34.127,32.386 35.594,33.816 
		35.305,35.509 35.248,35.843 35.591,35.663 37.061,34.89 38.433,35.612 38.873,35.843 38.793,35.371 38.528,33.816 39.893,32.494 	
		"/>
</g>
<g>
	<path d="M41.966,40.889c-0.674,0.335-1.131,0.99-1.215,1.738v0.913v2.095c0.01,0.021,0.01,0.045,0,0.065
		c-0.025,0.017-0.059,0.017-0.084,0l-2.099-1.433l-0.638-0.436c-0.503-0.337-1.16-0.337-1.663,0L35.564,44.3l-2.1,1.4
		c-0.025,0.017-0.059,0.017-0.084,0c-0.01-0.021-0.01-0.045,0-0.065V44.3v-1.72c-0.005-0.038-0.022-0.072-0.029-0.11
		c-0.128-0.674-0.56-1.252-1.185-1.544l-0.168-0.075v1.619v1.83v1.316c0.031,0.81,0.712,1.441,1.522,1.409
		c0.244-0.009,0.482-0.08,0.692-0.204l2.803-1.869c0.028-0.019,0.065-0.019,0.093,0l2.738,1.869c0.244,0.17,0.534,0.261,0.832,0.262
		c0.234-0.002,0.465-0.06,0.673-0.168c0.481-0.25,0.783-0.747,0.785-1.289v-3.53v-1.292L41.966,40.889z"/>
</g>
<g>
	<path d="M45.378,32.501c-0.154-0.363-0.443-0.651-0.805-0.805l0.047-0.065c-0.637-0.386-0.896-1.181-0.607-1.869
		c0.438-0.718,0.212-1.655-0.506-2.093c-0.211-0.129-0.449-0.196-0.691-0.213c-0.158-0.011-0.318-0.004-0.475,0.036
		c-0.547,0.042-1.048-0.221-1.345-0.648c-0.113-0.162-0.201-0.343-0.244-0.548c-0.076-0.609-0.477-1.128-1.046-1.355
		c-0.57-0.147-1.175,0.021-1.588,0.439c-0.382,0.316-0.886,0.446-1.373,0.355c-0.245-0.041-0.474-0.147-0.663-0.308
		c-0.532-0.651-1.491-0.748-2.143-0.216c-0.331,0.27-0.533,0.668-0.557,1.095c-0.157,0.742-0.842,1.25-1.598,1.187
		c-0.813-0.217-1.647,0.265-1.865,1.077c-0.111,0.416-0.041,0.859,0.193,1.221c0.289,0.687,0.03,1.482-0.607,1.869
		c-0.774,0.329-1.135,1.223-0.805,1.997c0.154,0.363,0.443,0.651,0.805,0.805c0.637,0.386,0.896,1.181,0.607,1.869
		c-0.304,0.523-0.304,1.168,0,1.691c0.389,0.479,1.009,0.709,1.616,0.598c0.745-0.071,1.428,0.42,1.598,1.149
		c0.076,0.609,0.477,1.128,1.046,1.355c0.57,0.147,1.175-0.021,1.588-0.439c0.132-0.133,0.296-0.229,0.477-0.28h0.103h0.047
		c0.269-0.074,0.553-0.074,0.822,0l0.14,0.047c0.169,0.052,0.323,0.145,0.448,0.271c0.414,0.419,1.018,0.586,1.588,0.439
		c0.622-0.193,1.078-0.728,1.168-1.373c0.046-0.196,0.133-0.371,0.244-0.527c0.302-0.424,0.808-0.68,1.354-0.632
		c0.156,0.03,0.312,0.035,0.466,0.022c0.442-0.039,0.858-0.25,1.15-0.601c0.3-0.52,0.3-1.161,0-1.682
		c-0.289-0.687-0.03-1.482,0.607-1.869C45.347,34.169,45.707,33.275,45.378,32.501z M40.995,35.939
		c-0.891,1.211-2.315,2.006-3.934,2.006c-2.704,0-4.896-2.192-4.896-4.896s2.192-4.896,4.896-4.896c1.619,0,3.043,0.795,3.934,2.006
		c0.597,0.812,0.962,1.804,0.962,2.889S41.592,35.128,40.995,35.939z"/>
</g>
</svg>
