<svg id="Layer_1" data-name="Layer 1" xmlns="http://www.w3.org/2000/svg" viewBox="0 0 50.46 50.46"><defs><style>.cls-1{fill:#65b4e1;}</style></defs><title>exterior</title><path class="cls-1" d="M16.17,32.91h0A14.33,14.33,0,0,0,35.86,12.19l2.68-2.7a.84.84,0,0,0,0-1.19.83.83,0,0,0-1.18,0L34.67,11a14.2,14.2,0,0,0-4.26-2.56,5.64,5.64,0,0,1,.3,1.77,6,6,0,0,1-.29,1.71,5,5,0,0,1,3.08.4l-.29.29-.1.07-3,3-.07-.07-.9-.9c-.29.51-.59,1-.9,1.46l.6.6.09.09-3.76,3.77L25,20.43l-3.61-3.61c.22-.21.45-.4.67-.59-.29-.46-.58-1-.85-1.48-.34.29-.67.58-1,.89l-3.37-3.36a12.59,12.59,0,0,1,2.92-1.9c0-.1,0-.2,0-.3a5.3,5.3,0,0,1,.28-1.63,14.3,14.3,0,0,0-5.92,22.42h0l.39.46-3.11,3.11a.85.85,0,0,0,0,1.19.83.83,0,0,0,1.18,0l.59-.59A17.38,17.38,0,0,0,25.92,40.2v1.42H23.32a3.24,3.24,0,0,0-3,2.13H33.22a3.27,3.27,0,0,0-.17-.39h0a3.24,3.24,0,0,0-2.86-1.73H27.59V38.87a.42.42,0,0,0-.46-.42,15.74,15.74,0,0,1-12.76-4.6l1.34-1.34Zm1.24-1.43h0l0,0L17,31.27l3.32-3.33,2.83,2.82C20.9,31.73,18.86,32,17.41,31.47Zm2.64,1.88A13.57,13.57,0,0,0,24.39,32l2.34,2.33A12.78,12.78,0,0,1,20.05,33.35ZM28.7,34,25.93,31.2a24.37,24.37,0,0,0,4.28-3.26l3.37,3.36A12.66,12.66,0,0,1,28.7,34Zm6.06-3.84-3.37-3.36a24.44,24.44,0,0,0,3.25-4.28l2.77,2.76A12.65,12.65,0,0,1,34.76,30.12Zm2-13.53a12.71,12.71,0,0,1,1,6.66l-2.33-2.32A13.76,13.76,0,0,0,36.77,16.6Zm-2.45-2.71.07-.1.29-.29c.81,1.45.58,3.7-.49,6.17l-2.76-2.75-.07-.07ZM30.18,18l.09.09,3.13,3.12a22.72,22.72,0,0,1-3.19,4.34L26.6,22l-.18-.18Zm-4.94,5,.2.2L29,26.77A22.3,22.3,0,0,1,24.69,30L21.76,27l-.29-.29Zm-5-5,3.58,3.57.2.2-3.76,3.77L20,25.28l-2.93-2.92A22.3,22.3,0,0,1,20.25,18ZM15.7,13.48l3.37,3.36a24.39,24.39,0,0,0-3.25,4.28l-2.77-2.76A12.66,12.66,0,0,1,15.7,13.48ZM13.69,27a12.78,12.78,0,0,1-1-6.67L15,22.66A13.57,13.57,0,0,0,13.69,27Zm1.9,2.68v0c-.55-1.45-.27-3.49.7-5.71l2.83,2.82-3.32,3.33a3.31,3.31,0,0,1-.17-.36Z"/><circle class="cls-1" cx="25.25" cy="10.26" r="0.9" transform="translate(14.56 35.33) rotate(-89.04)"/><path class="cls-1" d="M28.89,10.42a3.66,3.66,0,0,0-3.58-3.7,3.62,3.62,0,0,0-3.7,3.58c0,2.79,3.51,7.15,3.51,7.15S28.89,13.05,28.89,10.42Zm-5.83-.1a2.19,2.19,0,1,1,2.15,2.22A2.19,2.19,0,0,1,23.06,10.32Z"/></svg>