<?xml version="1.0" encoding="utf-8"?>
<!-- Generator: Adobe Illustrator 24.2.1, SVG Export Plug-In . SVG Version: 6.00 Build 0)  -->
<svg version="1.1" id="Capa_1" xmlns="http://www.w3.org/2000/svg" xmlns:xlink="http://www.w3.org/1999/xlink" x="0px" y="0px"
	 viewBox="0 0 50.5 50.5" style="enable-background:new 0 0 50.5 50.5;" xml:space="preserve">
<g>
	<path d="M38.177,13.733h-6.78h-2.756c-0.687-0.773-1.53-1.402-2.483-1.836V9.12c0-0.442-0.358-0.8-0.8-0.8h-1.604V7.246l0.71-0.207
		l6.061,1.756c0.074,0.021,0.149,0.032,0.223,0.032c0.348,0,0.667-0.228,0.769-0.578c0.123-0.424-0.122-0.868-0.546-0.991
		l-3.639-1.054l4.073-1.187c0.425-0.124,0.668-0.568,0.545-0.992c-0.124-0.423-0.564-0.67-0.992-0.544l-8.228,2.397
		c-0.342,0.1-0.576,0.413-0.576,0.768V8.32h-1.002c-0.441,0-0.8,0.358-0.8,0.8v0.657c-3.068-0.02-5.475,0.78-7.009,2.309
		c-1.229,1.227-1.842,2.878-1.821,4.909c0.021,2.157,0.906,3.985,1.762,5.754c1.5,3.1,2.685,5.548-1.328,8.892
		c-0.34,0.283-0.386,0.788-0.103,1.127c0.158,0.19,0.386,0.288,0.614,0.288c0.181,0,0.362-0.061,0.512-0.185
		c1.318-1.098,2.156-2.153,2.663-3.171v11.003c0,0.442,0.358,0.8,0.8,0.8h8.113v4.75c0,0.442,0.358,0.8,0.8,0.8h10.33h2.49
		c0.441,0,0.8-0.358,0.8-0.8v-6.81v-8.83v-9.3v-6.78C38.977,14.09,38.618,13.733,38.177,13.733z M37.377,15.332v4.049l-4.049-4.049
		H37.377z M31.066,15.332l6.312,6.312v7.037l-6.852-6.851v-2.881v-0.284c0-1.199-0.292-2.328-0.797-3.333H31.066z M28.926,32.942
		h-7.507V19.749h7.507V32.942z M21.953,9.92h2.605v1.452c-0.477-0.096-0.97-0.148-1.475-0.148c-0.385,0-0.761,0.039-1.131,0.095
		V9.92z M15.644,18.665v5.429c-0.273-0.7-0.598-1.381-0.918-2.042c-0.779-1.609-1.585-3.274-1.603-5.072
		c-0.016-1.584,0.439-2.85,1.352-3.761c1.208-1.206,3.305-1.849,5.879-1.842v0.373C17.6,12.841,15.644,15.526,15.644,18.665z
		 M17.243,39.903V18.665c0-3.221,2.62-5.841,5.841-5.841c3.047,0,5.553,2.346,5.816,5.326h-8.281c-0.441,0-0.8,0.358-0.8,0.8v14.793
		c0,0.442,0.358,0.8,0.8,0.8h8.307v5.361H17.243z M26.156,45.453v-3.95h3.569c0.023,0,0.043-0.011,0.066-0.013l3.964,3.964H26.156z
		 M37.377,45.453h-1.359l-5.492-5.492v-6.219v-0.819l6.852,6.852V45.453z M30.526,30.66v-6.567l6.852,6.851v6.567L30.526,30.66z"/>
</g>
</svg>
