<?xml version="1.0" encoding="utf-8"?>
<!-- Generator: Adobe Illustrator 24.2.1, SVG Export Plug-In . SVG Version: 6.00 Build 0)  -->
<svg version="1.1" id="Layer_1" xmlns="http://www.w3.org/2000/svg" xmlns:xlink="http://www.w3.org/1999/xlink" x="0px" y="0px"
	 viewBox="0 0 50.5 50.5" style="enable-background:new 0 0 50.5 50.5;" xml:space="preserve">
<path d="M21.6,43.8V30.1h-5.2v-6h5.2v-4.5c0-5.2,3.2-8,7.8-8c2.2,0,4.1,0.2,4.7,0.2v5.4l-3.2,0c-2.5,0-3,1.2-3,2.9v3.9h6l-0.8,6
	h-5.2v13.8c-0.9,0.1-1.7,0.2-2.6,0.2C24,44.1,22.8,44,21.6,43.8 M25.2,3.8c-11.8,0-21.4,9.6-21.4,21.4s9.6,21.4,21.4,21.4
	c11.8,0,21.4-9.6,21.4-21.4S37,3.8,25.2,3.8"/>
</svg>
