<svg id="Layer_1" data-name="Layer 1" xmlns="http://www.w3.org/2000/svg" viewBox="0 0 50.46 50.46"><defs><style>.cls-1{fill:#65b4e1;}</style></defs><title>fallecimiento</title><circle class="cls-1" cx="25.21" cy="17.31" r="2.01"/><path class="cls-1" d="M25.23,11.89c-2.84,0-5.15,2.93-5.15,6.52s2.31,6.52,5.15,6.52,5.15-2.93,5.15-6.52S28.07,11.89,25.23,11.89Zm3.21,9.81a4.28,4.28,0,0,0-1.82-2A2.44,2.44,0,0,1,26,20l-.05,0-.28.07h-.07l-.35,0-.35,0h-.07L24.52,20l-.05,0a2.44,2.44,0,0,1-.63-.31,4.28,4.28,0,0,0-1.82,2,6.64,6.64,0,0,1-.84-3.29c0-3,1.82-5.42,4-5.42s4,2.43,4,5.42A6.64,6.64,0,0,1,28.44,21.71Z"/><path class="cls-1" d="M45,43.26H39.43V18.15A14.23,14.23,0,0,0,32.18,5.78c-4.69-2.65-10.27-2.41-15.31.63A12.46,12.46,0,0,0,11,17.09V43.26H5.5a1.63,1.63,0,0,0,0,3.25H45a1.63,1.63,0,1,0,0-3.25Zm-7.7,0H13.2V17.09A10.28,10.28,0,0,1,18,8.26c4.35-2.63,9.13-2.85,13.12-.6a12.06,12.06,0,0,1,6.14,10.49Z"/></svg>