<svg id="Layer_1" data-name="Layer 1" xmlns="http://www.w3.org/2000/svg" viewBox="0 0 50.46 50.46"><defs><style>.cls-1{fill:#65b4e1;}</style></defs><title>famila</title><path class="cls-1" d="M16,14.87h.06a3.26,3.26,0,0,0,0-6.51H16a3.26,3.26,0,0,0,0,6.51Z"/><circle class="cls-1" cx="34.39" cy="11.61" r="3.26"/><path class="cls-1" d="M25,26.95h.13a2,2,0,0,0,0-3.92H25a2,2,0,0,0,0,3.92Z"/><path class="cls-1" d="M36.8,15.9a5.48,5.48,0,0,0-2.47-.51,4.21,4.21,0,0,0-2.43.64c-2.47,1.59-3.28,3.88-4.43,9.12a1.26,1.26,0,0,0,.41,1.22c.12.8.05,1.39-.2,1.57-.47.33-1.1-.2-1.32-.36a2.22,2.22,0,0,0-.84-.41h0l-.47,0-.47,0h0a2.22,2.22,0,0,0-.84.41c-.22.16-.85.7-1.32.36-.26-.18-.32-.79-.2-1.6a1.26,1.26,0,0,0,.44-.94c.34-7.68-3.89-9.33-3.89-9.33a5.33,5.33,0,0,0-2.67-.69,5.65,5.65,0,0,0-2.66.57c-.69.36-4.24,1.77-3.89,9.44a1.26,1.26,0,0,0,1.26,1.25h0A1.26,1.26,0,0,0,12,25.36,13.75,13.75,0,0,1,12.34,22,9.08,9.08,0,0,1,12.91,20L13,23.13c-.36,1.54-2.08,8-2.09,9,0,.46.71.8,1.9,1V40.7a1.41,1.41,0,0,0,2.81,0V33.38h.94V40.7a1.41,1.41,0,0,0,2.81,0V33.12c1.14-.21,1.9-.54,1.9-1,0-1-1.73-7.47-2.09-9l.08-3.22A9.67,9.67,0,0,1,19.81,22a13.75,13.75,0,0,1,.29,3.31,1.26,1.26,0,0,0,.65,1.12,2.72,2.72,0,0,0,.77,2.57,2.06,2.06,0,0,0,1.29.41H23c0,.05,0,7.32,0,11.22h0v.59a.84.84,0,0,0,1.68,0V35.16h.56v6.11a.84.84,0,1,0,1.68,0v-.8h0c0-3.92,0-11,0-11h.21a2.06,2.06,0,0,0,1.29-.41,2.71,2.71,0,0,0,.77-2.56,1.15,1.15,0,0,0,.22-.13,1.26,1.26,0,0,0,.4-.67c.36-1.62.8-3.17,1.18-4.34V40.7a1.41,1.41,0,1,0,2.81,0V30.47h.94V40.7a1.41,1.41,0,1,0,2.81,0V21.41a7.42,7.42,0,0,1,.69,4.15,1.26,1.26,0,0,0,1.13,1.38h.13a1.26,1.26,0,0,0,1.26-1.14C41.46,20.12,38.8,17,36.8,15.9Z"/></svg>