<?xml version="1.0" encoding="utf-8"?>
<!-- Generator: Adobe Illustrator 24.2.1, SVG Export Plug-In . SVG Version: 6.00 Build 0)  -->
<svg version="1.1" id="Layer_1" xmlns="http://www.w3.org/2000/svg" xmlns:xlink="http://www.w3.org/1999/xlink" x="0px" y="0px"
	 viewBox="0 0 50.5 50.5" style="enable-background:new 0 0 50.5 50.5;" xml:space="preserve">
<path d="M45.7,21.1c-1-0.7-2.6-0.2-4.3,1.3c-0.9,0.8-1.9,0.9-2.5,0.9v-4.5c0-7.8-6.3-14.1-14.1-14.1S10.7,11,10.7,18.8v4.5
	c-0.6,0-1.6-0.1-2.5-0.9c-1.7-1.5-3.3-2-4.3-1.3c-0.6,0.4-1.2,1.4-0.4,3.7c1.6,4.4,5.6,5.7,7.2,6V45c0,0.4,0.4,0.8,0.8,0.8
	c0.2,0,0.4-0.1,0.5-0.2c1.2-0.2,1.9-1.4,2.4-2.4c0.6-1.1,0.9-1.6,1.5-1.6c0.6,0,0.9,0.5,1.5,1.6c0.6,1.1,1.3,2.4,2.9,2.4
	c1.6,0,2.3-1.3,2.9-2.4c0.6-1.1,0.9-1.6,1.5-1.6c0.6,0,0.9,0.5,1.5,1.6c0.6,1.1,1.3,2.4,2.9,2.4c1.6,0,2.3-1.3,2.9-2.4
	c0.6-1.1,0.9-1.6,1.5-1.6s0.9,0.5,1.5,1.6c0.5,1,1.2,2.1,2.4,2.4c0.1,0.1,0.3,0.2,0.5,0.2c0.4,0,0.8-0.4,0.8-0.8V30.8
	c1.6-0.4,5.6-1.7,7.2-6C46.9,22.5,46.3,21.5,45.7,21.1z M10.7,29.1c-1.5-0.3-4.5-1.5-5.7-4.9c-0.5-1.3-0.3-1.8-0.2-1.8
	c0.2-0.1,1,0,2.4,1.1c1.3,1.1,2.6,1.3,3.5,1.3V29.1z M37.4,43.6c-0.2-0.3-0.4-0.6-0.7-1.1c-0.7-1.1-1.5-2.4-3.1-2.4
	c-1.6,0-2.3,1.3-2.9,2.4c-0.6,1.1-0.9,1.6-1.5,1.6c-0.6,0-0.9-0.5-1.5-1.6c-0.6-1.1-1.3-2.4-2.9-2.4c-1.6,0-2.3,1.3-2.9,2.4
	c-0.6,1.1-0.9,1.6-1.5,1.6c-0.6,0-0.9-0.5-1.5-1.6c-0.6-1.1-1.3-2.4-2.9-2.4s-2.3,1.3-2.9,2.4c-0.3,0.5-0.5,0.9-0.7,1.1V18.8
	c0-6.9,5.6-12.5,12.5-12.5c6.9,0,12.5,5.6,12.5,12.5V43.6z M44.5,24.2c-1.2,3.4-4.2,4.5-5.7,4.9v-4.3c0.9,0,2.3-0.2,3.5-1.3
	c1.3-1.2,2.2-1.2,2.4-1.1C44.8,22.5,45,22.9,44.5,24.2z M19.8,19.8c0,0.5-0.4,0.9-0.9,0.9S18,20.3,18,19.8s0.4-0.9,0.9-0.9
	S19.8,19.3,19.8,19.8z M31.7,19.8c0,0.5-0.4,0.9-0.9,0.9s-0.9-0.4-0.9-0.9s0.4-0.9,0.9-0.9S31.7,19.3,31.7,19.8z M29.3,28.6
	c0,1.3-1,2.3-2.3,2.3s-2.3-1-2.3-2.3c0-1.3,1.1-2.3,2.3-2.3C28.3,26.3,29.3,27.3,29.3,28.6z M22.8,15c0.2,0.4,0,0.9-0.4,1.1
	c-0.1,0.1-0.2,0.1-0.3,0.1c-0.3,0-0.6-0.2-0.7-0.5c-0.2-0.4-0.6-0.7-1-0.8c-0.4-0.1-0.9-0.1-1.3,0.1c-0.4,0.2-0.9,0-1.1-0.4
	c-0.2-0.4,0-0.9,0.4-1.1C20,12.7,22,13.4,22.8,15z M30.3,15.1c-0.4-0.2-0.9-0.2-1.3-0.1c-0.5,0.1-0.8,0.4-1,0.8
	c-0.1,0.3-0.4,0.5-0.7,0.5c-0.1,0-0.2,0-0.3-0.1c-0.4-0.2-0.6-0.7-0.4-1.1c0.4-0.8,1.1-1.4,1.9-1.7c0.8-0.3,1.7-0.3,2.5,0.1
	c0.4,0.2,0.6,0.7,0.4,1.1C31.2,15,30.7,15.1,30.3,15.1z"/>
</svg>
