<svg id="Layer_1" data-name="Layer 1" xmlns="http://www.w3.org/2000/svg" viewBox="0 0 50.46 50.46"><defs><style>.cls-1{fill:#12b5e1;}</style></defs><title>farmacovigilancia</title><path class="cls-1" d="M43.18,6.72,33.45,15.5a11.49,11.49,0,0,1,3.25,3.65l9.74-8.79a2.44,2.44,0,1,0-3.26-3.64Z"/><path class="cls-1" d="M16.68,24.48A9.79,9.79,0,1,0,27,15.26,9.79,9.79,0,0,0,16.68,24.48ZM26.86,17.7a7.34,7.34,0,1,1-7.74,6.91A7.36,7.36,0,0,1,26.86,17.7Z"/><path class="cls-1" d="M21.59,24.75a4.87,4.87,0,0,0,4.58,5.14.79.79,0,1,0,.09-1.58,3.28,3.28,0,0,1-3.09-3.47.79.79,0,0,0-.75-.83A.78.78,0,0,0,21.59,24.75Z"/><path class="cls-1" d="M30,38.12H10.17v-12h4.49a10.27,10.27,0,0,1,0-1.36c0-.25,0-.5.08-.75H10.17v-.68c0-1.32.41-1.64,1.63-2.6A21,21,0,0,0,14,18.77,9.55,9.55,0,0,0,16.65,13h6.92a8.77,8.77,0,0,0,.2,1.14,11.23,11.23,0,0,1,2.4-.23A7,7,0,0,1,26,13h2.5a1.59,1.59,0,0,0,1.59-1.58V6.22A3.09,3.09,0,0,0,27,3.13H13.23a3.09,3.09,0,0,0-3.09,3.09v5.23A1.58,1.58,0,0,0,11.72,13h2.5a7.06,7.06,0,0,1-1.94,4.09,18.63,18.63,0,0,1-1.94,1.7C9,19.89,7.8,20.82,7.8,23.29V40.82a5.28,5.28,0,0,0,5.28,5.29H27.13a5.28,5.28,0,0,0,5.28-5.29V34.88A11.31,11.31,0,0,1,30,36.1ZM25.87,5.27H27a1,1,0,0,1,.95,1v4.67H25.87Zm-3.45,0h2.26v5.62H22.42ZM19,5.27h2.25v5.62H19Zm-3.45,0h2.26v5.62H15.53Zm-3.25,5.62V6.22a1,1,0,0,1,1-1h1.11v5.62ZM30,40.82a2.92,2.92,0,0,1-2.91,2.91h-14a2.92,2.92,0,0,1-2.91-2.91v-.59H30Z"/></svg>