<?xml version="1.0" encoding="utf-8"?>
<!-- Generator: Adobe Illustrator 24.0.1, SVG Export Plug-In . SVG Version: 6.00 Build 0)  -->
<svg version="1.1" id="Layer_1" xmlns="http://www.w3.org/2000/svg" xmlns:xlink="http://www.w3.org/1999/xlink" x="0px" y="0px"
	 viewBox="0 0 50.5 50.5" style="enable-background:new 0 0 50.5 50.5;" xml:space="preserve">
<path d="M8.1,45.2c0,0,4.8-3.9,17.2-3.9c12.3,0,17.1,3.9,17.2,3.9c0.2,0.1,0.3,0.2,0.5,0.2c0.2,0,0.4-0.1,0.6-0.3
	c0.3-0.3,0.2-0.8-0.1-1.1c-0.2-0.1-3.6-3-11.9-4l-1.7-24.1h1.2c0.4,0,0.8-0.4,0.8-0.8s-0.4-0.8-0.8-0.8h-1.3l-0.3-3.8h1.2
	c0.3,0,0.7-0.2,0.8-0.6s0-0.7-0.3-0.9l-5.4-3.8C25.4,5,25,5,24.8,5.2L19.3,9C19,9.3,18.9,9.6,19,9.9s0.4,0.6,0.8,0.6H21l-0.3,3.8
	h-1.3c-0.4,0-0.8,0.4-0.8,0.8s0.4,0.8,0.8,0.8h1.2L19,40C10.6,41,7.2,43.8,7,44c-0.3,0.3-0.4,0.8-0.1,1.1
	C7.2,45.4,7.7,45.5,8.1,45.2z M23.7,39.7v-2.9c0-0.9,0.7-1.6,1.6-1.6s1.6,0.7,1.6,1.6v2.9c-0.5,0-1.1,0-1.6,0
	C24.7,39.6,24.2,39.7,23.7,39.7z M21.8,21.8h6.9l0.5,7.8h-7.9L21.8,21.8z M28.2,14.3h-2.3l0-3.8h2.1L28.2,14.3z M25.2,6.9l2.9,2.1
	h-5.8L25.2,6.9z M22.6,10.5h2.1l0,3.8h-2.4L22.6,10.5z M28.3,15.9l0.3,4.6h-6.7l0.3-4.6H28.3z M21.2,30.7h8.1l0.6,9.1
	c-0.6-0.1-1.2-0.1-1.9-0.1v-3c0-1.5-1.2-2.8-2.8-2.8c-1.5,0-2.8,1.2-2.8,2.8v3c-0.6,0-1.3,0.1-1.9,0.1L21.2,30.7z"/>
</svg>
