<?xml version="1.0" encoding="utf-8"?>
<!-- Generator: Adobe Illustrator 24.2.1, SVG Export Plug-In . SVG Version: 6.00 Build 0)  -->
<svg version="1.1" id="Capa_1" xmlns="http://www.w3.org/2000/svg" xmlns:xlink="http://www.w3.org/1999/xlink" x="0px" y="0px"
	 viewBox="0 0 50.5 50.5" style="enable-background:new 0 0 50.5 50.5;" xml:space="preserve">
<path d="M28.761,24.949c-0.352-0.27-0.854-0.201-1.121,0.149c-0.269,0.351-0.202,0.853,0.148,1.122
	c0.729,0.558,1.146,1.403,1.146,2.317l0.003,0.274c-0.135,1.644-1.248,3.204-3.308,4.639c-1.244,0.869-2.438,1.399-2.927,1.6
	c-1.134-0.474-5.932-2.683-6.238-6.173v-0.34c0-1.608,1.309-2.917,2.916-2.917c1.104,0,2.1,0.629,2.602,1.642
	c0.27,0.545,1.164,0.545,1.434,0c0.502-1.013,1.498-1.642,2.602-1.642c0.441,0,0.8-0.358,0.8-0.8s-0.358-0.8-0.8-0.8
	c-1.286,0-2.477,0.545-3.318,1.476c-0.842-0.931-2.032-1.476-3.318-1.476c-2.49,0-4.516,2.026-4.516,4.517l0.003,0.409
	c0.448,5.156,7.465,7.681,7.474,7.681c0.106,0.054,0.228,0.079,0.35,0.079c0.103,0,0.206-0.019,0.302-0.053
	c0.381-0.131,1.972-0.787,3.552-1.891c2.47-1.72,3.812-3.678,3.989-5.885v-0.34C30.535,27.12,29.888,25.812,28.761,24.949z"/>
<path d="M44.037,18.92c-0.387-0.45-0.928-0.722-1.522-0.767c-0.588-0.044-1.17,0.144-1.62,0.532
	c-0.782,0.674-0.973,1.774-0.541,2.662l-6.128,3.518l-0.398-5.909c0-1.2-0.847-2.176-1.887-2.176h-8.734
	c0.004-0.072,0.012-0.144-0.004-0.219c-1.047-4.718-5.319-8.143-10.159-8.143c-5.737,0-10.404,4.667-10.404,10.405
	c0,4.713,3.178,8.849,7.728,10.058c0.068,0.018,0.138,0.027,0.206,0.027c0.05,0,0.097-0.015,0.145-0.024L9.862,41.606
	c0,1.128,0.918,2.045,2.046,2.045h21.396c1.128,0,2.046-0.917,2.044-2.099l-0.248-3.677l8.771-12.471
	c0.366,0.237,0.785,0.368,1.21,0.368c0.516,0,1.032-0.177,1.452-0.538c0,0,0.001,0,0.001,0c0.449-0.387,0.722-0.928,0.766-1.523
	c0.045-0.595-0.145-1.17-0.532-1.62L44.037,18.92z M10.819,27.355c-0.016-0.005-0.027-0.017-0.043-0.021
	c-3.85-1.022-6.538-4.521-6.538-8.511c0-4.855,3.95-8.805,8.805-8.805c4.051,0,7.628,2.837,8.562,6.762h-2.199
	c-0.862-2.775-3.461-4.748-6.406-4.748c-3.711,0-6.73,3.019-6.73,6.729c0,2.94,1.921,5.515,4.698,6.398L10.819,27.355z
	 M11.078,23.505c-1.914-0.774-3.209-2.636-3.209-4.744c0-2.829,2.302-5.13,5.131-5.13c2.078,0,3.941,1.281,4.729,3.148h-4.457
	c-1.04,0-1.887,0.976-1.885,2.123L11.078,23.505z M33.304,42.052H11.908c-0.246,0-0.446-0.2-0.448-0.392l1.525-22.705
	c0-0.352,0.188-0.577,0.287-0.577H31.94c0.099,0,0.287,0.225,0.289,0.63l0.472,7.017c-0.02,0.08-0.03,0.162-0.024,0.247
	l0.807,11.432c0.001,0.009,0.005,0.016,0.006,0.024l0.261,3.876C33.751,41.852,33.551,42.052,33.304,42.052z M34.93,35.337
	l-0.586-8.696l6.87-3.943l1.435,1.665L34.93,35.337z M45.585,24.13c-0.322,0.276-0.813,0.242-1.09-0.082l-2.73-3.171
	c-0.278-0.323-0.241-0.811,0.081-1.088c0.14-0.121,0.315-0.185,0.501-0.185c0.02,0,0.039,0,0.06,0.002
	c0.206,0.016,0.394,0.109,0.527,0.265l2.731,3.172c0.134,0.155,0.198,0.354,0.184,0.561C45.833,23.81,45.739,23.997,45.585,24.13z"
	/>
</svg>
