<?xml version="1.0" encoding="utf-8"?>
<!-- Generator: Adobe Illustrator 24.2.1, SVG Export Plug-In . SVG Version: 6.00 Build 0)  -->
<svg version="1.1" id="Capa_1" xmlns="http://www.w3.org/2000/svg" xmlns:xlink="http://www.w3.org/1999/xlink" x="0px" y="0px"
	 viewBox="0 0 50.5 50.5" style="enable-background:new 0 0 50.5 50.5;" xml:space="preserve">
<g>
	<path d="M16.307,18.423c-0.313,1.335-0.507,2.378-0.614,2.765l1.175-0.176C16.601,20.41,16.509,19.25,16.307,18.423z"/>
	<path d="M22.59,12.279c-0.867-1.22-1.537,1.282-1.617,2.284c0.576-0.145,1.035-0.247,1.612-0.252
		C22.794,13.275,22.831,12.667,22.59,12.279z"/>
	<path d="M36.957,8.525c-0.474-0.444-1.124-0.23-1.638,0.018c0.003-0.001,0.005-0.002,0.007-0.003
		c-0.239,0.109-0.776,0.224-0.893,0.233c-0.433,0.047-0.889,0.07-1.304-0.082c-0.035-0.02-0.064-0.037-0.097-0.057
		c-0.003-0.003-0.006-0.007-0.01-0.01c0,0.002,0.001,0.003,0.001,0.005c-0.001,0-0.001-0.001-0.002-0.001
		c-0.003-0.005-0.008-0.011-0.011-0.017c0,0,0,0-0.001-0.001c0.001,0.003,0.001,0.007,0.002,0.011c0,0.001,0.001,0.002,0.001,0.003
		c0,0,0,0-0.001,0c0-0.001,0-0.002,0-0.002c-0.002-0.005-0.004-0.01-0.006-0.015c0.001,0.001,0.003,0.003,0.004,0.004
		c-0.001-0.002-0.001-0.004-0.001-0.006c0.001,0.001,0.002,0.002,0.004,0.004c0,0,0,0,0,0c-0.002-0.005-0.004-0.01-0.006-0.015
		c0-0.001,0-0.003-0.001-0.004c0,0,0,0,0,0c0,0,0,0,0-0.001c-0.104-0.314-0.108-0.65-0.127-0.979
		c0.189-0.513,0.24-0.818,0.348-1.008c0.296-0.187-0.613-1.244-1.33-1.083c-0.6,0.417-0.773-0.706-2.298-0.427
		c-0.42,0.077-0.629-0.609-1.105-0.81c-1.117-0.366-1.985-1.298-3.187-1.47c-1.157-0.132-2.004-0.987-3.084-1.352
		C20.613,0.76,19.054,1.924,17.41,1.49c-1.191-0.419-2.431,0.814-1.951,2.004c0.077,0.601-0.031,0.94-0.511,1.322
		c-0.979,0.675-0.497,2.015-0.337,2.981c0.235,0.679-0.653,0.898-0.544,1.539c0.074,0.487,0.026,0.986-0.237,1.403
		c-0.676,1.022,0.257,2.185-0.055,3.304c-0.226,0.971,0.492,1.978,1.003,2.625c0.193,0.271,0.126,0.44-0.107,0.657
		c-0.071,0.066-0.172,0.769-0.228,0.855c-0.287,0.443-0.471,0.818-0.526,1.364c-0.011,0.108-0.254,1.996-0.319,2.291
		c-0.086,0.385-0.236,1.579,0.066,1.701c-0.375,1.284,0.264,2.369,0.046,3.683c-0.003,0.155-0.015,0.283-0.148,0.437
		c-0.578,0.669-0.28,2.382,0.094,3.002c0.28,0.464,0.313,0.581,0.444,1.113c0.077,0.312,0.564,2.274,0.47,2.651
		c-0.382,0.625-0.335,1.117-0.271,1.852c0.003,0.118-0.087,0.248-0.124,0.36c-0.234,0.465,0.132,1.028,0.291,1.472
		c0.368,0.666,0.297,1.393-0.112,1.996c-0.573,0.834-0.026,1.768,0.22,2.606c0.131,0.352,0.435,0.437,0.775,0.474
		c0.17,0.019,0.19,0.063,0.21,0.221c-0.039,1.21,0.397,1.979,1.755,1.923c1.217-0.062,2.454,0.272,3.645,0.015
		c-0.057,0.048-0.136,0.074-0.241,0.09c-0.294,1.005-0.63,3.44-0.588,3.561c0.165,0.475,2.68,0.077,3.568,0.134
		c0.171,0.011,0.602-0.086,0.266-0.353c-0.647-0.513-1.546-0.328-2.936-3.527c-0.002,0.018-0.019,0.02-0.025,0.034
		c0.075-0.213-0.052-0.584-0.068-0.683c0.079-1.187-0.344-2.536,0.492-3.519c0.513-0.435,0.552-1.031,0.526-1.664
		c-0.022-0.749,0.773-0.998,1.202-1.46c0.365-0.405,0.666-0.849,0.694-1.371c0.172-1.124-0.984-1.263-1.393-2.069
		c-0.48-0.909-0.088-2.076-0.078-3.016c0.063-0.846,0.423-1.5,1.145-1.808c0.128-0.036,2.008,0.007,2.105,0.024
		c0.337,0.06,0.751-0.007,0.835-0.276c0.084-0.269-0.107-1.62,0.055-1.721c0.46-0.286,1.32,0.542,1.692,0.026
		c0.423-0.572,0.147-1.16,0.264-1.801c0.029-0.189,0.14-0.983,0.234-1.025c0.625-0.274,2.181-0.468,3.005-1.684
		c0.336-0.496,0.621-1.131,0.796-1.741c0.288-0.733-0.908-0.783-0.687-1.524c0.088-0.433,0.023-0.661-0.31-0.994
		c-0.86-0.513-1.482-1.914-1.381-2.951c0,0,0.046-1.105,0.675-1.66s2.77-2.844,4.519-3.695C36.291,10.45,37.852,9.703,36.957,8.525z
		 M21.577,47.539c0.049,0.478-0.302,0.472,0.047,0.386c0.495-0.122,0.949,0.501,0.237,0.808c-0.27,0.117-1.177-0.053-1.177-0.053
		s-0.14-0.725,0.065-1.197C20.916,47.097,21.531,47.084,21.577,47.539z M26.124,3.885l0.042,0.015l0,0.001
		c0.991,0.394,2.197,0.928,2.584,1.177c-0.432,0.683-1.185,1.944-1.185,1.944s-1.095-0.605-2.37-1.127
		c-0.07,0.142-0.142,0.299-0.215,0.468c0.755,0.331,1.643,0.73,1.643,0.73l-0.458,0.969c0,0-0.905-0.186-1.701-0.353
		c-0.055,0.158-0.11,0.315-0.162,0.469c1.066,0.259,2.389,0.589,2.389,0.589l-0.725,1.598c0,0-1.916-0.284-3.314-0.527
		c0.115-1.078,0.895-2.8,1.315-3.904c0.001,0,0.006,0.003,0.008,0.003l0.195-0.427c-0.005-0.002-0.009-0.003-0.014-0.005
		c0.049-0.045,0.876-1.889,0.932-2.004C25.344,3.585,25.716,3.724,26.124,3.885z M27.647,13.155c0.493,0.343,0.538-0.296,0.055-0.82
		c-0.487-0.402-1.41-0.245-1.376,0.391c0.275,1.707,2.612,0.705,3.244,2.133c1.292,2.918-4.36,4.625-5.262,1.674
		c-0.605-1.98,2.124-2.663,3.176-1.536c0.783,0.736,0.221,1.799-1.134,1.552c-0.469-0.173-0.568-0.786-0.33-0.932
		c0,0,0.311-0.163,0.394-0.021c0.119,0.201,0.13,0.303,0.13,0.303c0.075,0.446,0.556,0.233,0.498-0.111
		c-0.151-0.898-1.88-0.739-1.652,0.274c0.262,1.157,2.146,1.168,2.621,0.262c0.729-1.39-1.029-1.959-2.201-2.247
		c-1.382-0.34-1.419-2.172,0-2.731c1.105-0.435,3.359,0.01,3.413,1.273c0.023,0.538-0.579,1.067-1.283,1.021
		c-1.447,0.066-1.755-1.616-0.454-1.025C27.315,12.649,27.389,12.964,27.647,13.155z M21.123,22.612
		c0.389,0.381,0.942,0.561,0.942,0.561l-0.133,0.444c-0.299,0.097-1.139-0.268-1.523-0.303c-0.304,0.007-0.973,0.227-0.973,0.227
		l-0.079-0.281c0,0,0.281-0.13,0.323-0.525c0.043-0.394-0.361-3.665-0.585-4.138c-0.224-0.474-0.733-0.864-0.733-0.864l0.404-0.477
		c1.079,1.359,4.546-0.995,5.421,0.778c0.451,1.141-0.379,1.832-1.134,2.031c0.316,0.199,0.501,0.451,0.526,1.094
		c0.025,0.643,0.595,2.286,2.232,2.78c-3.286,0.001-3.078-0.962-3.615-3.402c-0.414-0.683-1.537-0.087-1.537-0.087
		S20.734,22.231,21.123,22.612z M20.706,15.943c-0.104,0.654-0.175,1.148-0.175,1.148l-0.925-0.204
		c0.066-1.311,0.253-6.403,2.959-6.219c3.135,0.213,1.102,4.743,0.861,5.924l-1.398,0.07c0,0,0.135-0.487,0.285-1.139
		C21.871,15.52,21.41,15.593,20.706,15.943z M21.044,3.683l0.267-1.262c0.582,0.212,2.587,0.817,3.359,0.997l-0.223,0.627
		c-0.956-0.19-1.606,1.028-1.888,2.018c-0.231,0.874-1.401,3.073-0.167,3.369l-0.053,0.434l-2.996-0.369l0.099-0.488
		c0,0,0.402,0.031,0.772-0.235c0.371-0.266,1.107-3.319,1.237-4.009C21.582,4.075,21.405,3.774,21.044,3.683z M16.52,2.732
		c0,0,3.259-0.248,4.352-0.23l-0.401,1.783c0,0-1.784,0.062-2.688,0.102c-0.062,0.11-0.2,0.685-0.359,1.415
		c0.299-0.02,1.198-0.021,2.218,0.126c0,0-0.163,0.761-0.243,1.138c-0.335-0.018-1.901-0.031-2.234-0.034
		c-0.267,1.299-0.514,2.585-0.514,2.585l-1.592,0.017C15.145,7.909,16.52,2.732,16.52,2.732z M14.508,13.759
		c0.035-0.894,0.112-2.849,0.305-3.774c1.442-0.049,4.327,0.146,5.318,0.333c-0.188,1.148-0.584,3.538-0.584,3.538l-0.678-0.103
		c0.176-0.696-0.156-0.656-1.091-0.72c-0.03,1.148-0.384,3.002,0.796,2.918l-0.003,0.481l-3.09,0.161l0.061-0.497
		c0,0,0.537-0.286,0.724-0.498c0.159-0.18,0.201-1.648,0.26-2.604c-0.989-0.074-1.466,0.125-1.446,0.767L14.508,13.759z
		 M15.387,17.821c-0.003-0.001-0.006-0.003-0.009-0.003c0-0.001,0.004,0,0.009,0.002c0.002,0.001,0.003,0.001,0.004,0.002
		C15.389,17.822,15.388,17.821,15.387,17.821z M15.408,17.83c-0.002-0.001-0.007-0.003-0.012-0.006
		c0.002,0.001,0.004,0.001,0.006,0.002c0,0-0.001,0-0.001-0.001c0.003,0.001,0.006,0.001,0.008,0.003
		c0.144-0.575,0.242-0.941,0.242-0.941l2.113-0.144c0.094,1.656,1.258,6.325,1.258,6.325s-0.171,0.563-1.682-0.042
		c-0.07-0.168-0.171-0.495-0.288-0.912c-0.546,0.044-1,0.137-1.492,0.24c-0.053,0.424-0.066,0.636-0.066,0.636
		s-0.472,0.105-1.186,0.131C14.529,21.457,15.085,19.118,15.408,17.83z M14.56,28.321c-0.075-1.719,0.045-3.952,0.045-3.952
		l-0.443-0.055c0,0,0-0.101,0.062-0.511c0.862-0.281,3.539-0.153,4.351-0.03l-0.208,1.744L17.9,25.465c0,0-0.15-0.495-0.338-0.812
		c-0.188-0.317-1.549-0.196-1.549-0.196s-0.219,0.296-0.301,1.456c0.987,0.184,1.016-0.244,1.061-0.864l0.433,0.053L16.9,27.287
		l-0.448-0.055c0.211-0.455-0.265-0.66-0.764-0.622c0,0.944,0.322,1.393,0.322,1.393c0.876-0.042,1.905,0.003,1.768-1.376
		l0.456,0.056c0,0-0.089,1.407-0.093,2.121c-1.612-0.076-4.206,0.203-4.206,0.203l-0.058-0.592
		C13.877,28.414,13.949,28.398,14.56,28.321z M18.596,33.521c0,0,0.005,0.527,0.009,1.005c-0.374-0.05-0.703,0.021-0.927,0.105
		c-0.136-1.027-0.529-4.007-0.683-5.243c0.99-0.068,1.863,0.015,2.178,0.052l1.207,2.059l0.782-1.788l0.654,0.116
		c-0.059,0.725-0.301,3.184-0.36,4.095c-0.954-0.073-1.514,0.086-1.797,0.212l-1.07-1.371L18.596,33.521z M14.709,30.408
		c-0.249,0.013-0.466,0.027-0.605,0.037c-0.057-0.194-0.202-0.95-0.202-0.95s1.61-0.177,2.53-0.203c0,0,0.1,0.742,0.131,1.095
		c-0.129-0.018-0.345-0.023-0.597-0.022c0.119,1.325,0.723,3.566,0.906,4.226c0.152-0.016,0.246-0.023,0.246-0.023
		s0.177,0.275-0.049,0.881c-0.527,0.028-1.998,0.522-1.998,0.522s-0.129-0.252-0.22-0.956c0.176-0.08,0.399-0.147,0.635-0.203
		L14.709,30.408z M20.095,41.811l-0.425-0.092c-0.061-0.97-2.416-0.44-2.19,0.058c0.013,0.379,2.358-0.001,2.591,1.188
		c0.232,1.189-1.832,1.67-2.886,1.727c-0.537-0.503-0.703-1.178-0.703-1.178l0.272-0.197c0,0,0.317,0.376,0.807,0.424
		c0.491,0.048,1.15-0.307,0.887-0.801c-0.263-0.494-0.927,0.235-2.044-0.015c-1.117-0.25-1.49-1.755-0.023-2.747
		c1.467-0.992,3.298-0.72,4.357-0.142C20.436,40.525,20.095,41.811,20.095,41.811z M22.32,36.401c0.68,0.959-0.076,2.15-1.496,2.172
		l-0.087,0.862l-1.194-0.208c0.002-0.086,0.049-0.225,0.113-0.697c-0.532-0.102-0.809-0.27-1.185-0.501
		c-1.185,2.971-4.521,0.843-3.054-1.191c0.55-0.763,1.613-0.339,1.882,0.313c0.301,1.02-1.194,1.307-0.876,0.203
		c0.134,0.31,0.484,0.133,0.35-0.093c-0.406-0.689-0.993-0.203-0.801,0.688c0.127,0.589,1.023,0.779,1.354,0.113
		c0.144-0.29,0.206-0.381,0.38-0.77c-0.363-0.529-0.487-1.165-0.481-1.541c0.29,0.316,0.541,0.634,0.861,0.823
		c0.591-1.428,1.679-2.55,3.159-2.194c-0.007,0.081-0.317,3.19-0.324,3.266c0.894,0.023,1.482-0.352,1.077-0.805
		c-0.212-0.237-0.427,0.261-0.134,0.388c-0.573,0.35-0.855,0.128-0.707-0.491C21.296,36.143,21.897,35.863,22.32,36.401z
		 M22.16,29.412c-0.285-0.035-0.789-0.167-0.789-0.167l-1.723-1.979l0.037,1.576l-0.82-0.06c0,0,0.016-3.537,0.428-4.872
		c0.431-0.005,0.431-0.005,0.431-0.005l1.56,2.177l0.458-1.877l0.713,0.058C22.237,25.621,22.138,28.652,22.16,29.412z
		 M27.328,26.883l-1.563-0.061c-0.042,1.09-0.118,2.216-0.118,2.216l-1.72-0.024c0,0-0.02-1.078,0.024-2.286l-1.032-0.057
		c0.047-0.845,0.236-2.352,0.236-2.352s2.353-0.045,4.481,0.356C27.543,25.462,27.328,26.883,27.328,26.883z M30.444,19.833
		c-0.936,0.083-1.639,0.221-1.639,0.221s-1.865-0.641-2.501,0.625c-0.636,1.266,1.816,2.509,3.286,1.129
		c0.033-0.18,0.042-0.399,0.042-0.399l-2.154,0.215l-0.1-0.854l3.243-0.354l0.274,2.16l-0.479-0.056
		c-1.309,1.852-6.005,1.766-5.799-1.847C24.98,18.11,29.046,17.602,30.444,19.833z M28.909,11.274
		c-1.042-0.215-1.537-0.885-1.537-0.885L27.071,10.6l-0.402-0.224l0.598-1.656c0,0,0.289,0.047,0.451,0.063
		c-0.372,1.209,0.969,1.992,1.555,1.166c0.291-0.516-1.018-1.141-1.215-1.361c-0.197-0.22-0.456-0.519-0.115-1.401
		c0.383-1.404,2.789-1.244,3.326-0.567l0.995-0.432l0.356,0.208l-1.377,2.082c0,0-0.27-0.138-0.277-0.145
		c0.124-0.386,0.083-0.756-0.172-1.07c-0.323-0.397-1.336-0.468-1.262,0.348c0.03,0.337,0.569,0.574,1.035,0.827
		C32.285,9.642,30.905,11.681,28.909,11.274z M31.779,12.597c-0.467,0.112-0.919-0.76-0.193-0.978
		C32.298,11.406,32.47,12.547,31.779,12.597z M33.96,10.729c-0.146,0.031-0.217,0.144-0.24,0.336
		c-0.186-0.076-0.312,0.027-0.436,0.158c-0.185-0.226-0.395-0.175-0.549-0.12c-0.025-0.267-0.244-0.29-0.388-0.304
		c0.203-0.328,0.029-0.431-0.137-0.537c0.394-0.102,0.311-0.352,0.285-0.501c0.223,0.072,0.359-0.11,0.404-0.247
		c0.144,0.184,0.48,0.161,0.59,0.044c0.031,0.357,0.22,0.344,0.432,0.333c-0.149,0.217-0.009,0.372,0.175,0.428
		C33.879,10.361,33.876,10.613,33.96,10.729z M35.387,10.082c-0.467,0.112-0.919-0.76-0.193-0.978
		C35.906,8.891,36.079,10.032,35.387,10.082z"/>
	<path d="M19.51,36.04c-0.271,0.36-0.402,0.511-0.635,0.957c0.247,0.17,0.457,0.381,0.99,0.486c0.11-0.666,0.203-1.505,0.309-2.069
		C20.032,35.428,19.926,35.512,19.51,36.04z"/>
	<path d="M22.078,19c0.167-0.574,0.019-0.794-0.264-0.889c-0.584-0.196-1.148,0.396-1.148,0.396l-0.006,1.284
		C20.66,19.791,21.911,19.573,22.078,19z"/>
	<path d="M28.785,42.722c0.306,0.344,0.896,0.129,0.701-0.203C29.258,42.128,28.452,42.347,28.785,42.722z"/>
	<path d="M26.931,42.368c0.293-0.563,0.799-1.067,0.965-1.205c0.362,0.124,0.395-0.385,0.029-0.375
		c-0.104,0.006-0.291,0.094-0.183,0.3C27.046,41.842,26.88,42.456,26.931,42.368z"/>
	<path d="M27.078,41.185c0.32-0.167-0.158-0.584-0.31-0.257c-0.103,0.222,0.133,0.255,0.136,0.296
		c0.052,0.816-0.232,1.332-0.164,1.342C26.769,42.512,27.01,41.93,27.078,41.185z"/>
	<path d="M27.477,43.43c0.106,0.198,0.478,0.137,0.524-0.142C28.049,42.833,27.232,43.036,27.477,43.43z"/>
	<path d="M27.975,42.373c-0.182-0.128-0.712-0.209-0.818,0.009c-0.069,0.142,0.029,0.205-0.148,0.335
		c-0.326,0.239-0.347,0.599-0.153,0.777c-0.368-0.016-0.469,0.037-0.644,0.221c-0.55,0.578-0.535,0.645-0.095,1.333
		c0.095,0.148,0.231,0.276,0.369,0.184c0.118-0.079,0.08-0.262,0.095-0.372c0.044-0.316,0.838-0.13,1.12-0.524
		c0.144-0.201,0.097-0.268,0.36-0.258c0.488,0.018,1.361-0.525,1.295-0.686c-0.039-0.097-0.337-0.116-0.556-0.169
		C28.174,43.069,28.429,42.695,27.975,42.373z M26.602,44.461c-0.486-0.053-0.273-0.741,0.346-0.579
		C27.308,44.015,27.078,44.522,26.602,44.461z M27.403,43.748c-0.554-0.306-0.235-1.175,0.499-0.98
		C28.826,43.021,28.155,44.163,27.403,43.748z"/>
	<path d="M26.734,44.023c-0.205-0.013-0.312,0.212-0.101,0.268C26.92,44.321,26.994,44.039,26.734,44.023z"/>
	<path d="M26.496,42.675c-0.128-0.263-0.767,0.028-1.024,0.084c-0.635,0.137-1.469-0.271-1.042,0.494
		c-0.063,0.076-0.217,0.283-0.188,0.377c0.005,0.016,0.221,0.336-0.046,0.346c-0.591,0.022-0.851,0.407-0.465,0.619
		C24.799,45.178,26.646,42.983,26.496,42.675z M24.506,44.368c-0.241-0.058-0.289-0.526,0.258-0.564
		C25.457,43.755,24.926,44.469,24.506,44.368z M25.295,43.68c-0.734,0.018-0.515-0.797,0.214-0.807
		C26.398,42.938,25.703,43.672,25.295,43.68z"/>
	<path d="M24.742,43.957c-0.386,0.054-0.094,0.464,0.09,0.126C24.846,44.017,24.812,43.961,24.742,43.957z"/>
	<path d="M25.111,43.347c0.107,0.284,0.663,0.029,0.468-0.175C25.407,42.993,25.09,43.126,25.111,43.347z"/>
</g>
</svg>
