<svg id="Layer_1" data-name="Layer 1" xmlns="http://www.w3.org/2000/svg" viewBox="0 0 50.46 50.46"><defs><style>.cls-1{fill:#12b5e1;}</style></defs><title>financiamiento</title><path class="cls-1" d="M9.58,18.11a.74.74,0,1,0,0,1.48h5.88c.38-.51.79-1,1.22-1.48Z"/><path class="cls-1" d="M9.58,15a.74.74,0,0,0,0,1.48h8.8a17.46,17.46,0,0,1,2-1.48Z"/><path class="cls-1" d="M22.88,11.85H9.58a.74.74,0,0,0,0,1.48h13.3a.74.74,0,1,0,0-1.48Z"/><path class="cls-1" d="M22.88,8.72H9.58a.74.74,0,1,0,0,1.48h13.3a.74.74,0,0,0,0-1.48Z"/><path class="cls-1" d="M6.87,32.14A1.87,1.87,0,0,1,5,30.27V6.63A1.87,1.87,0,0,1,6.87,4.77H25.52a1.86,1.86,0,0,1,1.86,1.86V12.3c.49-.07,1-.14,1.48-.18V6.63a3.35,3.35,0,0,0-3.34-3.34H6.87A3.35,3.35,0,0,0,3.52,6.63V30.27a3.35,3.35,0,0,0,3.35,3.35H12c-.08-.49-.15-1-.19-1.48Z"/><path class="cls-1" d="M30.3,31.43a1,1,0,0,1,.78.35,1.59,1.59,0,0,1,.29,1h1.7A2.86,2.86,0,0,0,32.48,31a2.44,2.44,0,0,0-1.62-.86V28.84h-.94v1.25a2.67,2.67,0,0,0-1.68.74,2.16,2.16,0,0,0-.64,1.62,2.27,2.27,0,0,0,.19,1,2.19,2.19,0,0,0,.51.73,3.4,3.4,0,0,0,.8.54,10,10,0,0,0,1.1.48,2.42,2.42,0,0,1,.91.53,1.09,1.09,0,0,1,.26.76,1,1,0,0,1-.3.74,1.17,1.17,0,0,1-.81.27,1.19,1.19,0,0,1-1-.37A1.53,1.53,0,0,1,29,36.05H27.28A2.73,2.73,0,0,0,27.94,38a2.81,2.81,0,0,0,1.86.86V40h.93V38.82a2.7,2.7,0,0,0,1.71-.73,2.19,2.19,0,0,0,.63-1.62,2.46,2.46,0,0,0-.17-.94,2.37,2.37,0,0,0-.47-.71,3.19,3.19,0,0,0-.76-.56,9.38,9.38,0,0,0-1.16-.53,3,3,0,0,1-1-.56,1,1,0,0,1-.25-.71,1,1,0,0,1,.26-.75A1,1,0,0,1,30.3,31.43Z"/><path class="cls-1" d="M30.17,13.64A16.77,16.77,0,1,0,46.94,30.4,16.76,16.76,0,0,0,30.17,13.64ZM25.35,18.8c1.18-.76,2.92-.48,4.2,1.5,1.76,2.73,2.52-1.42,4.78-1,2.83.48-.86,5.65-.86,5.65H27.14S22.27,20.81,25.35,18.8Zm8.77,23.6h-7.9a4.85,4.85,0,0,1-4.76-6.18c1.4-4.47,5.37-9.77,5.43-9.8h6.56c.07,0,4,5.33,5.44,9.8A4.86,4.86,0,0,1,34.12,42.4Z"/></svg>