<svg id="Layer_1" data-name="Layer 1" xmlns="http://www.w3.org/2000/svg" viewBox="0 0 50.46 50.46"><defs><style>.cls-1{fill:#12b5e1;}</style></defs><title>firma digital con token</title><path class="cls-1" d="M26.71,37.23a2.11,2.11,0,1,0,2.1,2.11A2.11,2.11,0,0,0,26.71,37.23Zm0,2.69a.58.58,0,1,1,.57-.58A.58.58,0,0,1,26.71,39.92Z"/><path class="cls-1" d="M26.71,34.3a5.24,5.24,0,0,0-3.7,9v5.45a.77.77,0,0,0,.48.71.92.92,0,0,0,.28,0,.79.79,0,0,0,.56-.23l2.38-2.48,2.38,2.48a.76.76,0,0,0,1.31-.53V43.25A5.19,5.19,0,0,0,32,39.54,5.25,5.25,0,0,0,26.71,34.3Zm2.16,12.51-1.61-1.69a.79.79,0,0,0-.56-.22h0a.78.78,0,0,0-.55.22L24.54,46.8V44.3a5.05,5.05,0,0,0,4.33,0Zm-2.16-3.55a3.72,3.72,0,1,1,3.71-3.72A3.73,3.73,0,0,1,26.71,43.26Z"/><path class="cls-1" d="M13.61,28.69H25a.77.77,0,0,0,.77-.77.76.76,0,0,0-.77-.76H13.61a.77.77,0,0,0-.77.76A.78.78,0,0,0,13.61,28.69Z"/><path class="cls-1" d="M16.82,5.24a2.49,2.49,0,0,0-2.48,2.48v.94h-.48a.77.77,0,0,0-.76.69l-.65,6.24a.76.76,0,0,0,.76.84h7.21a.75.75,0,0,0,.56-.25.74.74,0,0,0,.2-.58l-.57-6.24a.76.76,0,0,0-.76-.7H19.3V7.72A2.49,2.49,0,0,0,16.82,5.24Zm-.94,2.48a.95.95,0,1,1,1.89,0v.94H15.88Zm3.71,7.18H14.06l.5-4.71h4.59Z"/><path class="cls-1" d="M34.22,19.26H13.61a.77.77,0,0,0-.77.76.78.78,0,0,0,.77.77H34.22A.77.77,0,0,0,35,20,.76.76,0,0,0,34.22,19.26Z"/><path class="cls-1" d="M34.22,23.21H13.61a.77.77,0,0,0-.77.76.78.78,0,0,0,.77.77H34.22A.77.77,0,0,0,35,24,.76.76,0,0,0,34.22,23.21Z"/><path class="cls-1" d="M45.1,30.37H43.78V26.46a.86.86,0,0,0-.86-.86H40.74V8.76a.78.78,0,0,0,0-.22V8.47a.92.92,0,0,0,0-.09.47.47,0,0,0-.06-.09l0,0,0,0a.73.73,0,0,0-.09-.13L34.24,2.23l-.09-.06,0,0,0,0A.53.53,0,0,0,33.93,2,.71.71,0,0,0,33.68,2h0l-.08,0H8.44a1,1,0,0,0-1,1V42.54a1,1,0,0,0,1,1H19.18a1,1,0,1,0,0-2H9.42V3.94H32.58V8.73a1,1,0,0,0,1,1l5.21,0V25.6H36.4a.86.86,0,0,0-.86.86v3.91h-1.3a.86.86,0,0,0-.86.86V44.48a5,5,0,0,0,5,5H41a5,5,0,0,0,5-5V31.23A.87.87,0,0,0,45.1,30.37ZM34.55,7.75V5.23l2.7,2.54Zm2.71,19.57h4.8v3.05h-4.8Zm7,17.16A3.28,3.28,0,0,1,41,47.75H38.37a3.28,3.28,0,0,1-3.27-3.27V35.69h9.14Zm0-10.51H35.1V32.09h9.14Z"/><path class="cls-1" d="M38.6,27.83a.78.78,0,0,0-.79.78V29a.79.79,0,0,0,1.57,0v-.39A.78.78,0,0,0,38.6,27.83Z"/><path class="cls-1" d="M40.72,27.83a.78.78,0,0,0-.78.78V29a.79.79,0,0,0,1.57,0v-.39A.78.78,0,0,0,40.72,27.83Z"/></svg>