<svg id="Layer_1" data-name="Layer 1" xmlns="http://www.w3.org/2000/svg" viewBox="0 0 50.46 50.46"><defs><style>.cls-1{fill:#12b5e1;}</style></defs><title>firma digital</title><path class="cls-1" d="M33.47,12.68H8.1a3.87,3.87,0,0,0-3.87,3.87v25A3.87,3.87,0,0,0,8.1,45.44H41.31a3.87,3.87,0,0,0,3.87-3.87V25a.94.94,0,0,0-.94-.93h0a.93.93,0,0,0-.93.93V41.57a2,2,0,0,1-2,2H16.56v-29H33.47a.94.94,0,1,0,0-1.87ZM6.1,20.13V16.55a2,2,0,0,1,2-2h6.59v5.58Zm0,16V22h8.59V36.14Zm2,7.44a2,2,0,0,1-2-2V38h8.59v5.59Z"/><path class="cls-1" d="M10.39,26.23a2.83,2.83,0,1,0,2.83,2.83,2.83,2.83,0,0,0-2.83-2.83Zm0,3.8a1,1,0,1,1,1-1,1,1,0,0,1-1,1Z"/><path class="cls-1" d="M33.48,24.41l1.3,4.12-.17.49a.94.94,0,0,0,.59,1.18.92.92,0,0,0,1.18-.59l.17-.49,3.19-2.63a.8.8,0,0,0,.23-.37L46.15,7.28A3,3,0,0,0,44.3,3.43l-.81-.27a3,3,0,0,0-3.79,2L33.52,24A1,1,0,0,0,33.48,24.41Zm2.63,2.83-.63-2.13,2.25.75ZM42.9,4.93l.81.27a1.09,1.09,0,0,1,.67,1.49L38.65,24.2l-2.91-1L41.47,5.72A1.1,1.1,0,0,1,42.9,4.93Z"/><path class="cls-1" d="M32.25,36a1.87,1.87,0,0,1-.82.07A2.19,2.19,0,0,1,30,35.14a5.64,5.64,0,0,1-.49,1.19,1.13,1.13,0,0,1-1.25.64c-.36-.08-.88-.2-1.28-2.49-1.18,3.39-2.11,3.31-2.53,3.28a1,1,0,0,1-.75-.4c-.58-.72-.38-2.26.28-6.13.13-.74.28-1.66.4-2.48-.89,2.44-1.61,6.14-2,7.38-.19.55-.51,1.14-.94,1.13a.82.82,0,0,1-.83-.84c0-.11,2-11,4.5-11.13a1,1,0,0,1,.81.34c.59.65.42,2-.23,5.85-.16.89-.48,2.46-.29,2.56a28.63,28.63,0,0,0,1.19-4.52.87.87,0,0,1,.9-.67.83.83,0,0,1,.78.78,24.56,24.56,0,0,0,.37,4.23,14.9,14.9,0,0,0,.66-3.34.87.87,0,0,1,.88-.74c.44,0,.79.25.79,1.2,0,.42,0,1.29-.05,1.75-.09,1.37.93,3.25,2.81-1.31a.87.87,0,0,1,1.1-.49A.82.82,0,0,1,35.27,32C34.9,32.93,33.88,35.49,32.25,36Z"/></svg>