<?xml version="1.0" encoding="utf-8"?>
<!-- Generator: Adobe Illustrator 22.1.0, SVG Export Plug-In . SVG Version: 6.00 Build 0)  -->
<svg version="1.1" id="Layer_1" xmlns="http://www.w3.org/2000/svg" xmlns:xlink="http://www.w3.org/1999/xlink" x="0px" y="0px"
	 viewBox="0 0 50.5 50.5" style="enable-background:new 0 0 50.5 50.5;" xml:space="preserve">
<style type="text/css">
	.st0{fill:#12B5E1;}
</style>
<title>firma digital remota</title>
<g>
	<g>
		<path class="st0" d="M25.8,32.4c-0.6,0-1.1,0.5-1.1,1.1s0.5,1.1,1.1,1.1s1.1-0.5,1.1-1.1S26.5,32.4,25.8,32.4z M25.8,33.9
			c-0.2,0-0.4-0.2-0.4-0.4s0.2-0.4,0.4-0.4s0.4,0.2,0.4,0.4S26.1,33.9,25.8,33.9z"/>
		<path class="st0" d="M25.8,30.8c-1.6,0-2.9,1.3-2.9,2.9c0,0.8,0.3,1.5,0.9,2.1v3.1c0,0.2,0.1,0.3,0.2,0.3c0,0,0.1,0,0.1,0
			c0.1,0,0.2,0,0.3-0.1l1.4-1.4l1.4,1.4c0.1,0.1,0.3,0.1,0.4,0.1c0.1-0.1,0.2-0.2,0.2-0.3v-3.1c0.5-0.5,0.9-1.3,0.9-2.1
			C28.7,32.1,27.4,30.8,25.8,30.8z M27.1,37.9l-1-1c-0.1-0.1-0.4-0.1-0.5,0l-1,1v-1.6c0.4,0.2,0.8,0.3,1.3,0.3
			c0.5,0,0.9-0.1,1.3-0.3V37.9z M25.8,35.8c-1.2,0-2.2-1-2.2-2.1s1-2.2,2.2-2.2s2.2,1,2.2,2.2S27,35.8,25.8,35.8z"/>
		<path class="st0" d="M25.8,27.1c0-0.2-0.2-0.4-0.4-0.4h-6.4c-0.2,0-0.4,0.2-0.4,0.4s0.2,0.4,0.4,0.4h6.4
			C25.7,27.5,25.8,27.3,25.8,27.1z"/>
		<path class="st0" d="M28.5,5.6h-6.7c-0.5,0-0.9,0.4-0.9,0.9s0.4,0.9,0.9,0.9h6.7c0.5,0,0.9-0.4,0.9-0.9S29,5.6,28.5,5.6z"/>
		<path class="st0" d="M28.5,42.8h-6.7c-0.5,0-0.9,0.4-0.9,0.9s0.4,0.9,0.9,0.9h6.7c0.5,0,0.9-0.4,0.9-0.9S29,42.8,28.5,42.8z"/>
		<path class="st0" d="M19.3,5.9c-0.3-0.3-0.9-0.3-1.3,0c-0.1,0.1-0.1,0.2-0.2,0.3c0,0.1-0.1,0.2-0.1,0.3c0,0.2,0.1,0.5,0.3,0.6
			s0.4,0.3,0.6,0.3c0.2,0,0.5-0.1,0.6-0.3s0.3-0.4,0.3-0.6c0-0.1,0-0.2-0.1-0.3C19.4,6.1,19.4,6,19.3,5.9z"/>
		<path class="st0" d="M22.9,20.6c0.1,0,0.2,0,0.3-0.1c0.1-0.1,0.1-0.2,0.1-0.3l-0.3-3.5c0-0.2-0.2-0.3-0.4-0.3h-0.4v-0.6
			c0-0.7-0.6-1.3-1.3-1.3s-1.3,0.6-1.3,1.3v0.6h-0.3c-0.2,0-0.4,0.1-0.4,0.3l-0.4,3.5c0,0.1,0,0.2,0.1,0.3c0.1,0.1,0.2,0.1,0.3,0.1
			H22.9z M20.3,15.7c0-0.3,0.3-0.6,0.6-0.6s0.6,0.3,0.6,0.6v0.6h-1.2V15.7z M19.5,17.1h2.7l0.3,2.8h-3.2L19.5,17.1z"/>
		<path class="st0" d="M18.7,22.7c0,0.2,0.2,0.4,0.4,0.4h11.6c0.2,0,0.4-0.2,0.4-0.4s-0.2-0.4-0.4-0.4H19.1
			C18.8,22.3,18.7,22.5,18.7,22.7z"/>
		<path class="st0" d="M30.7,24.5H19.1c-0.2,0-0.4,0.2-0.4,0.4s0.2,0.4,0.4,0.4h11.6c0.2,0,0.4-0.2,0.4-0.4S30.9,24.5,30.7,24.5z"/>
		<path class="st0" d="M38.3,31.7V8.2c0-3.5-2.8-6.3-6.3-6.3H18.3c-3.5,0-6.3,2.8-6.3,6.3v34c0,3.5,2.8,6.3,6.3,6.3h13.6
			c3.4,0,6.2-2.7,6.3-6.1c2.4-0.6,4.2-2.8,4.2-5.4C42.5,34.5,40.7,32.3,38.3,31.7z M13.8,8.2c0-2.5,2-4.5,4.5-4.5h13.6
			c2.5,0,4.5,2,4.5,4.5v1.3H13.8V8.2z M13.8,11.3h22.7v20.2c-0.8,0.1-1.5,0.3-2.2,0.7V16.3c0,0,0,0,0,0c0,0,0-0.1,0-0.1
			c0,0,0,0,0-0.1c0,0,0,0,0-0.1c0,0,0-0.1-0.1-0.1c0,0,0,0,0,0l-3.5-3.3c0,0,0,0-0.1,0c0,0-0.1,0-0.1-0.1c0,0-0.1,0-0.1,0
			c0,0,0,0-0.1,0h0c0,0,0,0,0,0H16.1c-0.3,0-0.5,0.2-0.5,0.5v22.3c0,0.3,0.2,0.5,0.5,0.5h6.1c0.3,0,0.5-0.2,0.5-0.5
			s-0.2-0.5-0.5-0.5h-5.6V13.5h13.2v2.8c0,0.3,0.2,0.5,0.5,0.5l3,0v16.1c-0.6,0.5-1.1,1.2-1.4,1.9h-2.2c-0.3,0-0.5,0.2-0.5,0.5
			s0.2,0.5,0.5,0.5h1.9c-0.1,0.4-0.1,0.8-0.1,1.2c0,0.9,0.2,1.7,0.6,2.5H13.8V11.3z M32.5,15.8l-1.7,0v-1.6L32.5,15.8z M31.9,46.8
			H18.3c-2.5,0-4.5-2-4.5-4.5v-0.9h19.6c0.8,0.7,1.9,1.1,3,1.3C36.3,44.9,34.3,46.8,31.9,46.8z M40.5,35.9L37,39.7
			c-0.2,0.2-0.4,0.3-0.6,0.3c-0.2,0-0.4-0.1-0.5-0.2l-2.7-2.1c-0.4-0.3-0.4-0.8-0.1-1.2c0.3-0.4,0.8-0.4,1.2-0.1l2,1.6l3-3.2
			c0.3-0.4,0.9-0.4,1.2,0C40.8,35,40.8,35.5,40.5,35.9z"/>
	</g>
</g>
</svg>
