<?xml version="1.0" encoding="utf-8"?>
<!-- Generator: Adobe Illustrator 24.2.1, SVG Export Plug-In . SVG Version: 6.00 Build 0)  -->
<svg version="1.1" id="Layer_1" xmlns="http://www.w3.org/2000/svg" xmlns:xlink="http://www.w3.org/1999/xlink" x="0px" y="0px"
	 viewBox="0 0 50.5 50.5" style="enable-background:new 0 0 50.5 50.5;" xml:space="preserve">
<path d="M39.5,7H10.9C8.7,7,7,8.7,7,10.9v28.8c0,2.2,1.8,3.9,3.9,3.9h28.8c2.2,0,3.9-1.8,3.9-3.9V10.9C43.5,8.7,41.8,7,39.5,7z
	 M18.8,30.4c-2.9,0-5.2-2.3-5.2-5.2s2.3-5.2,5.2-5.2s5.2,2.3,5.2,5.2S21.6,30.4,18.8,30.4z M31.7,30.4c-2.9,0-5.2-2.3-5.2-5.2
	s2.3-5.2,5.2-5.2s5.2,2.3,5.2,5.2S34.5,30.4,31.7,30.4z"/>
</svg>
