<?xml version="1.0" encoding="utf-8"?>
<!-- Generator: Adobe Illustrator 24.2.1, SVG Export Plug-In . SVG Version: 6.00 Build 0)  -->
<svg version="1.1" id="Layer_1" xmlns="http://www.w3.org/2000/svg" xmlns:xlink="http://www.w3.org/1999/xlink" x="0px" y="0px"
	 viewBox="0 0 50.5 50.5" style="enable-background:new 0 0 50.5 50.5;" xml:space="preserve">
<path d="M10.652,21.429c0.234,0.234,0.235,0.614,0.001,0.849c-0.22,0.221-0.42,0.453-0.596,0.689
	c-0.118,0.159-0.299,0.244-0.483,0.244c-0.124,0-0.249-0.038-0.356-0.118c-0.267-0.197-0.323-0.573-0.126-0.839
	c0.21-0.284,0.449-0.562,0.711-0.824C10.038,21.196,10.418,21.196,10.652,21.429z M20.763,16.075
	c-0.292-0.139-0.645-0.011-0.793,0.274c-0.007,0.013-0.714,1.29-4.647,2.241c-1.064,0.257-2.042,0.601-2.904,1.021
	c-0.298,0.145-0.422,0.504-0.277,0.802c0.104,0.214,0.317,0.338,0.54,0.338c0.088,0,0.177-0.02,0.262-0.061
	c0.786-0.382,1.682-0.696,2.662-0.934c4.568-1.105,5.381-2.733,5.458-2.915C21.19,16.545,21.055,16.213,20.763,16.075z
	 M48.197,28.904c-0.604,5.449-2.988,9.226-7.087,11.225c-0.567,0.277-1.127,0.514-1.662,0.738c-2.12,0.894-3.237,1.439-3.473,3.137
	c-0.055,0.396-0.393,0.69-0.792,0.69s-0.737-0.294-0.792-0.69c-0.235-1.697-1.353-2.243-3.473-3.137
	c-0.535-0.225-1.095-0.461-1.662-0.738c-4.098-1.999-6.483-5.775-7.087-11.225c-0.574-5.167,2.72-6.29,5.125-7.11l0.202-0.069
	c0.922-0.316,1.916-1.022,2.764-1.736c-0.169-0.412-0.264-0.855-0.264-1.322c0-1.522,1.159-2.83,2.833-3.482
	c0.081-0.606,0.126-1.269,0.06-1.872l-0.142-1.129c-0.538-0.054-1.611-0.024-2.778,0.777c-0.111,0.678-0.978,4.672-6.365,8.615
	c-2.842,2.08-4.986,2.447-6.878,2.771c-1.998,0.342-3.723,0.638-6.179,2.794c-1.302,1.144-2.287,2.306-2.928,3.453
	c-0.144,0.258-0.414,0.41-0.699,0.41c-0.07,0-0.141-0.009-0.211-0.028c-0.355-0.098-0.598-0.425-0.588-0.793
	c0.014-0.527-0.033-2.098-0.41-3.024c-0.787-1.939-1.092-8.096,4.88-10.791c3.68-1.66,4.6-2.212,5.34-3.002
	c-1.905-0.019-3.751,0.087-5.433,0.187l-0.842,0.049l-0.462,0.09c-1.039,0.317-2.466,0.87-3.639,1.688
	c0.018,0.229-0.009,0.461-0.094,0.682c-0.149,0.391-0.442,0.699-0.824,0.87C4.437,17.025,4.22,17.07,4.003,17.07
	c-0.189,0-0.378-0.035-0.56-0.104c-0.391-0.149-0.7-0.442-0.87-0.825c-0.352-0.788,0.003-1.716,0.792-2.067
	c0.564-0.253,1.197-0.137,1.642,0.236c1.046-0.702,2.21-1.209,3.204-1.55c-0.027-0.079-0.048-0.159-0.059-0.243
	c-0.75-0.037-1.544-0.127-2.009-0.186c-0.192,0.272-0.443,0.494-0.765,0.601c-0.162,0.054-0.329,0.081-0.495,0.081
	c-0.241,0-0.479-0.056-0.701-0.167c-0.374-0.188-0.652-0.51-0.784-0.907c-0.131-0.396-0.101-0.821,0.087-1.195
	c0.188-0.374,0.51-0.652,0.907-0.783c0.821-0.275,1.708,0.174,1.979,0.994c0.022,0.066,0.033,0.134,0.046,0.201
	C6.946,11.22,7.79,11.31,8.5,11.328c1.618-2.527,5.616-4.852,10.234-4.476c1.501,0.104,2.829,0.474,3.99,0.982
	c1.073-0.405,2.381-0.117,3.647,0.271c0.909,0.279,1.688,0.754,2.28,1.339c1.087-0.438,2.473-0.711,3.859-0.595l-0.372-2.141
	c-0.057-0.327,0.161-0.637,0.488-0.694c0.322-0.056,0.637,0.162,0.693,0.488l0.514,2.954c0.034,0.196-0.03,0.396-0.174,0.534
	c-0.142,0.137-0.341,0.195-0.539,0.156c-1.402-0.29-2.732-0.058-3.723,0.293c0.218,0.389,0.366,0.794,0.427,1.21
	c1.914-1.044,3.564-0.573,3.642-0.548c0.226,0.069,0.391,0.265,0.42,0.499l0.197,1.574c0.059,0.542,0.043,1.113-0.006,1.658
	c0.357-0.059,0.726-0.095,1.107-0.095c0.222,0,0.433,0.029,0.647,0.05c-0.244-0.915-0.368-1.696-0.39-1.837
	c-0.528-3.523-0.896-6.266-0.896-6.266c-0.044-0.329,0.187-0.63,0.516-0.674c0.319-0.043,0.63,0.187,0.674,0.515
	c0,0.002,0.366,2.736,0.894,6.246c0.079,0.532,0.258,1.418,0.522,2.264c1.887,0.589,3.22,1.993,3.22,3.632
	c0,0.471-0.089,0.919-0.251,1.333c0.845,0.71,1.833,1.411,2.751,1.725l0.202,0.069C45.478,22.615,48.771,23.738,48.197,28.904z
	 M5.232,11.331c-0.051-0.154-0.194-0.251-0.348-0.251c-0.038,0-0.077,0.006-0.115,0.019c-0.191,0.063-0.296,0.271-0.232,0.462
	c0.031,0.093,0.096,0.168,0.183,0.212c0.086,0.043,0.187,0.05,0.279,0.021l0,0c0.093-0.03,0.168-0.096,0.212-0.183
	C5.255,11.523,5.263,11.424,5.232,11.331z M4.344,15.634c0.035-0.091,0.032-0.19-0.008-0.28c-0.061-0.136-0.194-0.217-0.334-0.217
	c-0.05,0-0.101,0.01-0.149,0.032c-0.184,0.082-0.267,0.299-0.185,0.483c0.04,0.089,0.112,0.157,0.203,0.192
	c0.091,0.035,0.191,0.031,0.28-0.007c0,0,0,0,0,0C4.241,15.798,4.31,15.726,4.344,15.634z M16.918,12.198
	c0.339,0.012,0.677,0.021,1.019,0.042c0.082,0.005,0.163,0.004,0.246,0.01c0.261,0.016,0.511,0.045,0.768,0.066
	c0.573,0.047,1.137,0.1,1.688,0.165c0.055-0.03,0.109-0.063,0.172-0.075c2.073-0.365,3.027-1.131,3.84-1.918
	c0.012-0.012,0.025-0.024,0.038-0.036c-0.477-0.4-1.02-0.774-1.629-1.106c-0.446-0.244-0.925-0.459-1.433-0.646
	c-0.912-0.335-1.906-0.577-2.984-0.652c-3.931-0.328-7.425,1.578-8.944,3.649c-0.091,0.124-0.177,0.248-0.253,0.372
	c-0.114,0.179-0.121,0.281-0.115,0.303c0.004,0.001,0.068,0.021,0.165,0.028c0.031,0.002,0.051,0.008,0.093,0.005l0.841-0.049
	C12.414,12.239,14.626,12.12,16.918,12.198z M27.229,15.504c-0.516,0.178-1.08,0.282-1.692,0.282c-0.331,0-0.672-0.027-1.023-0.083
	c-1.754-0.277-3.13-1-3.869-2.012c-0.826-0.1-1.667-0.189-2.539-0.243c-0.001,0-0.003,0-0.004,0
	c-0.046-0.003-0.091-0.003-0.136-0.006c-0.074,0.09-0.152,0.185-0.22,0.267c-1.242,1.523-1.717,1.965-6.494,4.119
	c-5.307,2.395-4.445,7.771-4.056,8.73c0.167,0.411,0.282,0.883,0.361,1.348c0.554-0.662,1.201-1.318,1.937-1.965
	c2.796-2.456,4.915-2.818,6.965-3.169c1.884-0.323,3.665-0.628,6.203-2.485C25.014,18.564,26.404,16.862,27.229,15.504z
	 M28.66,12.182c0.021-0.415-0.11-0.84-0.355-1.242c-0.197-0.323-0.467-0.625-0.8-0.893c-0.416-0.335-0.915-0.618-1.487-0.793
	c-0.169-0.052-0.343-0.095-0.515-0.143c-0.132-0.036-0.262-0.078-0.394-0.109c0.292,0.253,0.515,0.523,0.663,0.8
	c0.069,0.129,0.116,0.26,0.15,0.392c0.042,0.162,0.063,0.325,0.047,0.487c-0.004,0.045-0.022,0.086-0.036,0.129
	c-0.028,0.084-0.069,0.163-0.131,0.227c-0.003,0.003-0.005,0.008-0.008,0.012l-0.035-0.035l0.029,0.042
	c-0.075,0.074-0.154,0.152-0.233,0.229c-0.545,0.533-1.198,1.112-2.188,1.582c-0.335,0.159-0.716,0.302-1.137,0.43
	c-0.088,0.027-0.168,0.057-0.261,0.082c0.277,0.249,0.634,0.464,1.041,0.647c0.49,0.221,1.056,0.393,1.689,0.493
	c1.406,0.22,2.572-0.112,3.286-0.876c0.096-0.102,0.179-0.215,0.258-0.333c0.145-0.218,0.271-0.452,0.354-0.72
	c0.022-0.072,0.021-0.147,0.033-0.221c0.003-0.019,0.006-0.038,0.009-0.057C28.646,12.268,28.658,12.225,28.66,12.182z
	 M31.597,18.668c0,0.029,0.007,0.055,0.008,0.083c0.013,0.318,0.101,0.608,0.257,0.87c0.057,0.096,0.123,0.187,0.199,0.274
	c0.044,0.051,0.083,0.106,0.134,0.154c0.011-0.014,0.023-0.026,0.034-0.04c0.424-0.549,0.926-1.014,1.487-1.408
	c0.025-0.017,0.05-0.035,0.075-0.052c0.018-0.012,0.035-0.025,0.053-0.037c0.274-0.183,0.56-0.35,0.863-0.496
	c0.05-0.024,0.095-0.054,0.146-0.077c0.011-0.005,0.023-0.003,0.033-0.007c0.19-0.076,0.399-0.075,0.589-0.001
	c0.013,0.005,0.027,0.003,0.04,0.009c0.03,0.014,0.056,0.031,0.086,0.045c0.334,0.157,0.647,0.336,0.946,0.527c0,0,0,0,0,0
	c0.034,0.022,0.067,0.045,0.101,0.068c0.526,0.348,0.99,0.745,1.379,1.18c0.077,0.086,0.163,0.168,0.234,0.257
	c0.026-0.028,0.039-0.058,0.062-0.087c0.077-0.095,0.15-0.191,0.203-0.288c0.178-0.329,0.228-0.648,0.237-0.889
	c0.001-0.027,0.006-0.061,0.006-0.086c0-0.619-0.398-1.19-1.031-1.612c-0.37-0.247-0.823-0.438-1.323-0.562
	c-0.388-0.096-0.801-0.156-1.233-0.156c-0.482,0-0.945,0.066-1.369,0.184c-0.553,0.153-1.028,0.401-1.403,0.703
	C31.912,17.626,31.597,18.126,31.597,18.668z M37.818,25.133c0-1.397-0.244-2.749-0.702-3.961c-0.454-0.627-1.113-1.186-1.931-1.613
	c-0.85,0.454-1.535,1.111-2.047,1.952c-0.383,1.124-0.591,2.353-0.591,3.622c0,2.602,0.851,5.041,2.332,6.691
	c0.103,0.113,0.235,0.13,0.306,0.13c0.001,0,0.001,0,0.001,0c0.12,0,0.232-0.048,0.308-0.131
	C36.971,30.173,37.818,27.736,37.818,25.133z M35.184,36.705c-0.202,0-0.366,0.164-0.366,0.366s0.164,0.366,0.366,0.366
	s0.366-0.164,0.366-0.366S35.386,36.705,35.184,36.705z M42.557,23.309l-0.205-0.07c-1.081-0.371-2.195-1.137-3.14-1.914
	c-0.091,0.084-0.186,0.167-0.287,0.244c0.321,1.128,0.493,2.332,0.493,3.564c0,2.801-0.882,5.447-2.418,7.365
	c0.25,0.469,0.602,0.832,0.934,1.1c0.234-0.14,0.505-0.225,0.797-0.225c0.863,0,1.565,0.702,1.565,1.565s-0.702,1.565-1.565,1.565
	s-1.565-0.702-1.565-1.565c0-0.129,0.02-0.253,0.05-0.374c-0.382-0.303-0.782-0.72-1.109-1.24c-0.104,0.053-0.211,0.094-0.323,0.129
	v2.173c0.566,0.236,0.966,0.794,0.966,1.445c0,0.863-0.702,1.565-1.565,1.565s-1.565-0.702-1.565-1.565
	c0-0.651,0.4-1.209,0.966-1.445v-2.175c-0.113-0.035-0.222-0.078-0.327-0.133c-0.309,0.51-0.672,0.96-1.019,1.32
	c0.054,0.158,0.09,0.325,0.09,0.501c0,0.863-0.702,1.565-1.565,1.565s-1.564-0.702-1.564-1.565s0.701-1.564,1.564-1.564
	c0.243,0,0.47,0.06,0.676,0.159c0.328-0.347,0.666-0.773,0.922-1.253c-1.532-1.918-2.411-4.558-2.411-7.349
	c0-1.253,0.177-2.478,0.51-3.624c-0.092-0.069-0.184-0.138-0.267-0.213c-0.952,0.788-2.081,1.569-3.177,1.944l-0.203,0.069
	c-2.406,0.821-4.484,1.529-4.052,5.42c0.541,4.868,2.626,8.22,6.199,9.963c0.54,0.264,1.073,0.487,1.582,0.702
	c1.426,0.601,2.798,1.179,3.644,2.335c0.846-1.156,2.218-1.734,3.644-2.335c0.509-0.215,1.042-0.438,1.582-0.702
	c3.573-1.743,5.658-5.095,6.198-9.963C47.039,24.838,44.962,24.13,42.557,23.309z M31.762,34.775c-0.201,0-0.365,0.164-0.365,0.365
	c0,0.202,0.164,0.366,0.365,0.366c0.202,0,0.366-0.164,0.366-0.366C32.128,34.939,31.964,34.775,31.762,34.775z M38.71,35.3
	c0.007,0,0.014,0.004,0.021,0.004c0.079,0,0.148-0.03,0.208-0.073c0.005-0.003,0.01-0.006,0.015-0.01
	c0.046-0.031,0.071-0.086,0.107-0.129c0.022-0.047,0.037-0.099,0.037-0.155c0-0.202-0.164-0.366-0.366-0.366
	s-0.366,0.164-0.366,0.366C38.364,35.132,38.518,35.288,38.71,35.3z"/>
</svg>
