<?xml version="1.0" encoding="utf-8"?>
<!-- Generator: Adobe Illustrator 22.1.0, SVG Export Plug-In . SVG Version: 6.00 Build 0)  -->
<svg version="1.1" id="Layer_1" xmlns="http://www.w3.org/2000/svg" xmlns:xlink="http://www.w3.org/1999/xlink" x="0px" y="0px"
	 viewBox="0 0 50.5 50.5" style="enable-background:new 0 0 50.5 50.5;" xml:space="preserve">
<style type="text/css">
	.st0{fill:#12B5E1;}
</style>
<g>
	<path class="st0" d="M34.6,33.9c-0.4-0.3-0.9-0.3-1.3,0c-0.3,0.4-0.3,0.9,0,1.3l0.1,0.1c0.2,0.2,0.4,0.3,0.6,0.3
		c0.2,0,0.5-0.1,0.6-0.3c0.3-0.4,0.3-0.9,0-1.3L34.6,33.9z"/>
	<path class="st0" d="M27.2,23.3c1.8,0,3.3-1.5,3.3-3.3s-1.5-3.3-3.3-3.3c-1.8,0-3.3,1.5-3.3,3.3S25.4,23.3,27.2,23.3z M27.2,18.5
		c0.8,0,1.5,0.7,1.5,1.5s-0.7,1.5-1.5,1.5s-1.5-0.7-1.5-1.5S26.4,18.5,27.2,18.5z"/>
	<path class="st0" d="M38.7,11.8h-27v27h27V11.8z M36.9,13.6v15.9l-5.1-5.1c-0.2-0.2-0.4-0.3-0.6-0.3c-0.2,0-0.5,0.1-0.6,0.3
		l-2.8,2.9l-6.6-6.5c-0.3-0.3-0.9-0.3-1.3,0L13.6,27V13.6H36.9z M13.6,36.9v-7.5l7-6.8l10.8,10.6c0.2,0.2,0.4,0.3,0.6,0.3
		c0.2,0,0.5-0.1,0.6-0.3c0.3-0.4,0.3-0.9,0-1.3L29,28.5l2.2-2.3l5.7,5.7c0,0,0,0,0,0v4.9H13.6z"/>
	<path class="st0" d="M41.9,7.5H8.6c-0.5,0-0.9,0.4-0.9,0.9v33.7c0,0.5,0.4,0.9,0.9,0.9h33.2c0.5,0,0.9-0.4,0.9-0.9V8.4
		C42.8,7.9,42.4,7.5,41.9,7.5z M41,41.2H9.5V9.3H41V41.2z"/>
</g>
</svg>
