<svg id="Layer_1" data-name="Layer 1" xmlns="http://www.w3.org/2000/svg" viewBox="0 0 50.46 50.46"><defs><style>.cls-1{fill:#12b5e1;}</style></defs><title>fragata</title><path class="cls-1" d="M1.1,34.73a7.24,7.24,0,0,0,1.37,5.59.63.63,0,0,0,.45.27H3a.61.61,0,0,0,.42-.19,12.85,12.85,0,0,1,7-3.16,9.25,9.25,0,0,0,1.09,2.07.61.61,0,0,0,.44.27H12a.56.56,0,0,0,.4-.17,17.63,17.63,0,0,1,7.75-3.78,11,11,0,0,0,1.29,2.52.63.63,0,0,0,.41.26H22a.61.61,0,0,0,.34-.12A36.41,36.41,0,0,1,33.4,33.06c6.35-1.65,7.51-.22,7.52-.22a.63.63,0,0,0,.58.35h0a.62.62,0,0,0,.55-.41c1.59-4.15.85-6.6.55-7.32a7.72,7.72,0,0,0-1.82-6.64,7.33,7.33,0,0,0,0-1.14h0a5.74,5.74,0,0,0-2-4.2A5.71,5.71,0,0,0,37,8.3c.21-2.23-1.86-4.73-2-4.84a.54.54,0,0,0-.28-.19,10.11,10.11,0,0,0-4.68,0L30,1.12a.63.63,0,0,0-.65-.61.62.62,0,0,0-.6.66l.09,2.4a14.76,14.76,0,0,0-5,2.6.62.62,0,0,0-.15.21C23.5,6.76,22,10,22.57,12a7.36,7.36,0,0,0-1,5.93,7.94,7.94,0,0,0-1.29,5,6.81,6.81,0,0,0,.22,1.11,10,10,0,0,0-.75,7.28,7.6,7.6,0,0,0,0,3.07A19.1,19.1,0,0,0,12.13,38a6.41,6.41,0,0,1-1-4.54h0a10.83,10.83,0,0,1,5.58-3.15.64.64,0,0,0,.46-.77.62.62,0,0,0-.75-.47A12.52,12.52,0,0,0,11,31.89a8.16,8.16,0,0,1,.85-4.82A12.85,12.85,0,0,1,17.36,24a.65.65,0,0,0,.43-.79.63.63,0,0,0-.78-.44,14.13,14.13,0,0,0-5.32,2.73v0a6,6,0,0,1,1.07-3.88,15.08,15.08,0,0,1,6.15-3.07.62.62,0,0,0,.48-.75.61.61,0,0,0-.74-.49,16.48,16.48,0,0,0-6,2.77,5.43,5.43,0,0,1,1-3.81l0,0A9,9,0,0,1,18,13.86a.64.64,0,0,0-.29-1.24,10.77,10.77,0,0,0-4.13,1.94,11,11,0,0,1,.92-3.23,12.44,12.44,0,0,1,4.28-2.1,10.42,10.42,0,0,1,2.36-.37h0a.64.64,0,0,0,0-1.28h0a11.72,11.72,0,0,0-2.08.3L19,6a.63.63,0,0,0-.65-.6h0a.62.62,0,0,0-.59.66l.1,2.12a13.18,13.18,0,0,0-4.18,2.23.65.65,0,0,0-.16.21c-.16.35-1.48,3.26-1,5.06a6.71,6.71,0,0,0-.87,5.34,7.26,7.26,0,0,0-1.16,4.55,6.55,6.55,0,0,0,.2,1A9.05,9.05,0,0,0,10,33.14,7,7,0,0,0,10,36a14.45,14.45,0,0,0-6.91,3,5.76,5.76,0,0,1-.81-3.91h0A14.76,14.76,0,0,1,7,32.12a.63.63,0,0,0,.37-.82.6.6,0,0,0-.8-.37,15.63,15.63,0,0,0-4.49,2.64,7.33,7.33,0,0,1,.74-4.25,15.35,15.35,0,0,1,5-2.77.63.63,0,0,0,.42-.79.62.62,0,0,0-.78-.43,15.83,15.83,0,0,0-4.76,2.45,5.34,5.34,0,0,1,1-3.41A13.49,13.49,0,0,1,9.2,21.63a.63.63,0,0,0,.48-.76.64.64,0,0,0-.74-.49,15.1,15.1,0,0,0-5.31,2.45,4.83,4.83,0,0,1,.87-3.26l0,0a9.43,9.43,0,0,1,3.93-2.08.64.64,0,0,0,.45-.78.63.63,0,0,0-.77-.45,10.91,10.91,0,0,0-3.62,1.69,9.84,9.84,0,0,1,.81-2.78,11.09,11.09,0,0,1,3.81-1.87,8.57,8.57,0,0,1,2.15-.33h0a.64.64,0,0,0,0-1.28h0a10.38,10.38,0,0,0-1.8.25l-.06-1.44a.62.62,0,1,0-1.24,0l.06,1.73a11.92,11.92,0,0,0-3.74,2,.65.65,0,0,0-.16.21c-.15.31-1.33,2.92-.91,4.57a6.08,6.08,0,0,0-.79,4.81,6.53,6.53,0,0,0-1,4.1,5.26,5.26,0,0,0,.17.88A8.19,8.19,0,0,0,1.1,34.73ZM27.74,20.58a.61.61,0,0,0-.78-.41A18.61,18.61,0,0,0,21.59,23l0-.22a6.75,6.75,0,0,1,1.21-4.37,14.71,14.71,0,0,1,4.76-2.66.64.64,0,0,0-.38-1.22,16.35,16.35,0,0,0-4.49,2.35,6.11,6.11,0,0,1,1.07-4.39h0a12.86,12.86,0,0,1,3.48-2.06.63.63,0,0,0,.35-.82.62.62,0,0,0-.81-.36,14.66,14.66,0,0,0-3.08,1.67,11.65,11.65,0,0,1,1-3.88A13.86,13.86,0,0,1,29.53,4.7a10.1,10.1,0,0,1,4.71-.26,7.33,7.33,0,0,1,1.54,3.31,9.5,9.5,0,0,0-3.18.1.64.64,0,0,0-.5.74.62.62,0,0,0,.72.52,5.93,5.93,0,0,1,3.2,0h0A4.16,4.16,0,0,1,37.63,13a7.54,7.54,0,0,0-3.8,0,.63.63,0,0,0-.47.76.61.61,0,0,0,.74.48,6.69,6.69,0,0,1,3.61.11l.19,0a4.44,4.44,0,0,1,1.68,3.4h0c0,.18,0,.36,0,.54a12,12,0,0,0-4.54,0,.64.64,0,0,0,.22,1.26,10.55,10.55,0,0,1,4.56.08,6.43,6.43,0,0,1,1.64,5,11.5,11.5,0,0,0-5.82-.11.65.65,0,0,0-.5.75.63.63,0,0,0,.73.5c3.38-.65,5.13,0,5.6.22.2.5.74,2.32-.29,5.49-1-.54-3.31-.92-8.1.33a37.1,37.1,0,0,0-11,5.06A7.27,7.27,0,0,1,21,31.67l0,0A18,18,0,0,1,27,28a.66.66,0,0,0,.38-.82.62.62,0,0,0-.8-.39,19.59,19.59,0,0,0-5.83,3.35,9.06,9.06,0,0,1,.91-5.61,17.84,17.84,0,0,1,5.65-3.18A.63.63,0,0,0,27.74,20.58Z"/><path class="cls-1" d="M49.92,29.76a.65.65,0,0,0-.91-.05h0c-.65.49-6.8,5.81-24.48,9.19-15,2.88-21.19,2.15-23.43,2a.68.68,0,0,0-.62.3.64.64,0,0,0,0,.69L3.6,46.7a2.09,2.09,0,0,1-.36,0h-.1a6.2,6.2,0,0,1-1-.3.58.58,0,0,0-.26-.06.6.6,0,0,0-.27,1.13,5.45,5.45,0,0,0,1.44.43h.17a3.64,3.64,0,0,0,2.11-.8l.1-.08.19-.12a1.47,1.47,0,0,1,1-.4A1.79,1.79,0,0,1,7.83,47a4.73,4.73,0,0,0,2.95,1,4.75,4.75,0,0,0,3-1,1.76,1.76,0,0,1,1.2-.46,1.79,1.79,0,0,1,1.21.46,4.75,4.75,0,0,0,2.95,1A4.75,4.75,0,0,0,22,47a1.86,1.86,0,0,1,1.18-.46A1.84,1.84,0,0,1,24.4,47a5.06,5.06,0,0,0,5.9,0,1.79,1.79,0,0,1,1.21-.46h0a2.26,2.26,0,0,1,1.19.48,5.06,5.06,0,0,0,3,.93,4.75,4.75,0,0,0,2.95-1,1.81,1.81,0,0,1,2.41,0l.27.2a3.07,3.07,0,0,0,2.24.74,3.35,3.35,0,0,0,1.52-.46.59.59,0,0,0,.25-.8.58.58,0,0,0-.53-.33.67.67,0,0,0-.28.06,2.07,2.07,0,0,1-1,.32,1.91,1.91,0,0,1-1.49-.48L41.73,46a3,3,0,0,0-1.88-.66H39.7A26.3,26.3,0,0,1,41,41.86a41.19,41.19,0,0,1,8.56-10.92l.27-.27A.66.66,0,0,0,49.92,29.76Zm-10,11.53a37.08,37.08,0,0,0-1.78,4.63L38,46a3.5,3.5,0,0,1-2.27.75A3.93,3.93,0,0,1,33.35,46a3.33,3.33,0,0,0-1.82-.66h0a3,3,0,0,0-1.88.66,3.55,3.55,0,0,1-2.28.75A3.5,3.5,0,0,1,25.07,46a3.12,3.12,0,0,0-1.72-.65H23a3.33,3.33,0,0,0-1.63.65,3.5,3.5,0,0,1-2.27.75A3.5,3.5,0,0,1,16.81,46,3,3,0,0,0,13,46a3.5,3.5,0,0,1-2.27.75A3.5,3.5,0,0,1,8.5,46a3,3,0,0,0-1.89-.66A2.64,2.64,0,0,0,4.94,46l-.22.15a.42.42,0,0,0,0-.1l-.84-1.29a108.32,108.32,0,0,0,32.65-4.9l.93-.28a.64.64,0,0,0-.37-1.23l-.93.28A107.25,107.25,0,0,1,3.28,43.44H3l-.74-1.13c2.91.13,10.54.14,22.5-2.15,10-1.91,16.52-4.53,20.4-6.54A37.44,37.44,0,0,0,39.88,41.29Z"/><path class="cls-1" d="M29.35,19.28a.65.65,0,1,0,.65.65A.65.65,0,0,0,29.35,19.28Z"/><circle class="cls-1" cx="28.92" cy="26.53" r="0.65"/><circle class="cls-1" cx="39.37" cy="38.1" r="0.65"/><circle class="cls-1" cx="29.57" cy="14.46" r="0.65"/><path class="cls-1" d="M29.35,9.64A.65.65,0,1,0,28.7,9,.65.65,0,0,0,29.35,9.64Z"/></svg>