<svg id="Layer_1" data-name="Layer 1" xmlns="http://www.w3.org/2000/svg" viewBox="0 0 50.46 50.46"><defs><style>.cls-1{fill:#65b4e1;}</style></defs><title>frio calor</title><path class="cls-1" d="M15.26,27.38h0A1,1,0,0,0,16,26.22a1,1,0,0,0-.95-.77l-.22,0L9.38,26.75a1,1,0,0,0,.44,1.89l5.37-1.24Z"/><path class="cls-1" d="M11.23,16.22h0l4.67,2.92.09.06a1,1,0,0,0,1.33-.32l0-.08A1,1,0,0,0,17,17.54l-4.75-3a1,1,0,0,0-1,1.64Z"/><path class="cls-1" d="M22.24,13.81a1,1,0,0,0,0,.14,1,1,0,0,0,1.88-.5L22.89,8a1,1,0,0,0-.94-.75l-.22,0A1,1,0,0,0,21,8.44Z"/><path class="cls-1" d="M30.76,15.94a1,1,0,0,0,1.33-.31l3-4.75a1,1,0,0,0-.82-1.49,1,1,0,0,0-.82.46L30.5,14.52l-.07.11A1,1,0,0,0,30.76,15.94Z"/><path class="cls-1" d="M18.81,27.29l12.32-7.93a7.38,7.38,0,0,0-12.85,6.38A7.44,7.44,0,0,0,18.81,27.29Z"/><path class="cls-1" d="M41.8,29.14h0a1,1,0,0,0-1.17-.71l-5.37,1.31-.05,0-6.56-4.22-.2-.13L35.24,21l.06,0,5.32,1.31a1,1,0,1,0,.46-1.88l-3.6-.89,3.87-2.49a1,1,0,0,0,.29-1.34,1,1,0,0,0-1.34-.29l-5.85,3.76c-21.75,14-22.61,14.55-22.74,14.71a1,1,0,0,0,1.33,1.38L16.59,33l.29-.19-.69,3.66a1,1,0,1,0,1.9.36l1-5.46.05,0,6.29-4,.23-.15V35l0,0-4,3.77A1,1,0,1,0,23,40.18l2.7-2.55V38c0,2.57,0,3.94,0,4.18a1,1,0,0,0,.66,1,.94.94,0,0,0,.73,0,1,1,0,0,0,.49-.57A38.69,38.69,0,0,0,27.63,38v-.35l2.69,2.55a1,1,0,0,0,1.37,0,1,1,0,0,0,0-1.37l-4-3.81V27.14l6.56,4.22,1,5.46a1,1,0,0,0,1.13.77,1,1,0,0,0,.77-1.13l-.69-3.66.29.19,3.52,2.28a1,1,0,0,0,1.34-1.38,39.25,39.25,0,0,0-3.8-2.52l-.29-.19,3.59-.88A1,1,0,0,0,41.8,29.14Z"/></svg>