<svg id="Layer_1" data-name="Layer 1" xmlns="http://www.w3.org/2000/svg" viewBox="0 0 50.46 50.46"><defs><style>.cls-1{fill:#65b4e1;}</style></defs><title>frio</title><path class="cls-1" d="M42.45,17.77a1,1,0,0,0-1.12-.91,41.39,41.39,0,0,0-4.41,1.93l-.34.15,1.27-3.69a1,1,0,0,0-.63-1.3h0a1,1,0,0,0-1.3.63L34,20.1l-.06,0-7.49,3.4-.22.1q0-1.38,0-2.9V15.11l0,0,4.2-4A1,1,0,1,0,29.1,9.61L26.26,12.3V7.44a1,1,0,0,0-1-1h0a1,1,0,0,0-1,1V12.3L21.36,9.61A1,1,0,1,0,20,11.1l4.2,4,0,0v5.62q0,1.52,0,2.9l-.22-.1-7.49-3.4-.06,0-1.9-5.52a1,1,0,0,0-1.3-.63h0a1,1,0,0,0-.63,1.3l1.27,3.69-.34-.15a41.39,41.39,0,0,0-4.41-1.93,1,1,0,0,0-.46,2l4,1.82.33.15L9.4,22.29a1,1,0,0,0-.56,1.33,1,1,0,0,0,1.33.56L15.6,22l7.49,3.41-6.94,4.46-5.68-1.39a1,1,0,0,0-1.24.75A1,1,0,0,0,10,30.44l3.8.93-.31.2a40.81,40.81,0,0,0-4,2.67,1,1,0,0,0-.22.76,1,1,0,0,0,.38.68,1,1,0,0,0,1.26,0l3.7-2.4.31-.2-.72,3.86a1,1,0,1,0,2,.38l1.07-5.69v-.07L24.2,27.1c0,3.43,0,6.13,0,8.25l-4.25,4a1,1,0,0,0-.32.71,1,1,0,0,0,1.73.77l2.84-2.69c0,1.07,0,1.91,0,2.58,0,1.3,0,2,0,2.21a1,1,0,1,0,2.06,0c0-.18,0-.91,0-2.21,0-.67,0-1.51,0-2.58l2.84,2.69a1,1,0,1,0,1.41-1.48l-4.25-4c0-2.13,0-4.82,0-8.25l6.93,4.46v.07l1.07,5.69a1,1,0,1,0,2-.38l-.72-3.86.31.2,3.7,2.4a1,1,0,0,0,1.26,0,1,1,0,0,0,.38-.68,1,1,0,0,0-.22-.76,40.81,40.81,0,0,0-4-2.67l-.31-.2,3.8-.93a1,1,0,0,0,.75-1.24A1,1,0,0,0,40,28.45L34.3,29.84l-6.94-4.46L34.86,22l5.43,2.21a1,1,0,0,0,1.33-.56,1,1,0,0,0-.56-1.33l-3.64-1.48.33-.15,4-1.82A1,1,0,0,0,42.45,17.77Z"/></svg>