<svg id="Layer_1" data-name="Layer 1" xmlns="http://www.w3.org/2000/svg" viewBox="0 0 50.46 50.46"><defs><style>.cls-1{fill:#12b5e1;}</style></defs><title>frio 02</title><path class="cls-1" d="M25.22,12.79a.59.59,0,0,0-.46-.14,10.6,10.6,0,0,0-1.78.77l.43-1.25a.63.63,0,0,0-.39-.8.64.64,0,0,0-.81.39l-.82,2.38-3.12,1.42V12.13L20.1,10.4a.63.63,0,0,0,0-.89.62.62,0,0,0-.89,0l-1,.91V8.65a.64.64,0,0,0-1.27,0v1.74l-1-.91a.63.63,0,1,0-.87.92L17,12.13v3.43l-3.13-1.42-.82-2.38a.63.63,0,1,0-1.19.41l.43,1.25a11.85,11.85,0,0,0-1.78-.77.63.63,0,0,0-.3,1.22l1.56.7-1.23.5a.63.63,0,0,0-.35.83.62.62,0,0,0,.83.34l2.34-.95,2.95,1.35L13.57,18.4l-2.44-.6a.62.62,0,0,0-.48.08.61.61,0,0,0-.29.39.64.64,0,0,0,.47.76l1.28.31a11.57,11.57,0,0,0-1.61,1.09.61.61,0,0,0-.14.47.65.65,0,0,0,.24.42.63.63,0,0,0,.77,0l1.43-.93-.25,1.31a.63.63,0,0,0,1,.64.64.64,0,0,0,.27-.41l.46-2.48L17,17.7V21l-1.83,1.73a.59.59,0,0,0-.2.44.62.62,0,0,0,.17.45.6.6,0,0,0,.44.2.69.69,0,0,0,.46-.17l1-.91v1.7a.62.62,0,0,0,.43.64.63.63,0,0,0,.19,0h0a.69.69,0,0,0,.2,0,.62.62,0,0,0,.43-.63c0-.08,0-.41,0-1V22.7l1,.91a.64.64,0,0,0,1.07-.48.67.67,0,0,0-.2-.44L18.27,21V17.7L21,19.46l.46,2.48a.63.63,0,0,0,.26.41.67.67,0,0,0,.48.1.62.62,0,0,0,.4-.27.61.61,0,0,0,.1-.47l-.24-1.31,1.42.93a.65.65,0,0,0,.78,0,.64.64,0,0,0,.1-.89,12.82,12.82,0,0,0-1.62-1.09L24.44,19a.64.64,0,0,0,.46-.77.6.6,0,0,0-.28-.38.63.63,0,0,0-.48-.08l-2.45.6L19,16.64l3-1.35,2.34.95a.63.63,0,0,0,.82-.34.64.64,0,0,0-.34-.83l-1.23-.5,1.54-.7a.63.63,0,0,0,.42-.66h0A.61.61,0,0,0,25.22,12.79Z"/><path class="cls-1" d="M34,33.09v-3a.41.41,0,0,0-.41-.41h-.91a.41.41,0,0,0-.41.41v3a3.5,3.5,0,1,0,1.73,0Z"/><path class="cls-1" d="M37.08,29.93V8.37a1.8,1.8,0,0,0-1.8-1.8H31a1.8,1.8,0,0,0-1.8,1.8V29.93a7.58,7.58,0,0,0-2.89,3.27,7.74,7.74,0,0,0-.19,5.91,7.12,7.12,0,0,0,4.16,4.23,8.13,8.13,0,0,0,2.88.55,7.55,7.55,0,0,0,4-14Zm-4,12.16a6.25,6.25,0,0,1-2.23-.43,5.34,5.34,0,0,1-3.12-3.17A5.78,5.78,0,0,1,31,31V8.37h4.33V31a5.74,5.74,0,0,1-2.17,11.06Z"/><path class="cls-1" d="M32.32,19.49h1.59a.45.45,0,1,0,0-.9H32.32a.45.45,0,0,0,0,.9Z"/><path class="cls-1" d="M32.32,11.62h1.59a.45.45,0,1,0,0-.9H32.32a.45.45,0,1,0,0,.9Z"/><path class="cls-1" d="M32.32,15.55h1.59a.45.45,0,1,0,0-.9H32.32a.45.45,0,0,0,0,.9Z"/><path class="cls-1" d="M32.32,27.36h1.59a.45.45,0,1,0,0-.9H32.32a.45.45,0,1,0,0,.9Z"/><path class="cls-1" d="M32.32,23.42h1.59a.45.45,0,1,0,0-.9H32.32a.45.45,0,1,0,0,.9Z"/></svg>