<svg id="Layer_1" data-name="Layer 1" xmlns="http://www.w3.org/2000/svg" viewBox="0 0 50.46 50.46"><defs><style>.cls-1{fill:#12b5e1;}</style></defs><title>frutas y verduras</title><path class="cls-1" d="M32.15,31.12c-.7-.3-1,.15-1,.3a.68.68,0,0,0,.31.89l.13.07c.69.32,1-.13,1-.27a.7.7,0,0,0-.42-1Z"/><path class="cls-1" d="M25.45,34.8a.7.7,0,0,0-1,.06.71.71,0,0,0,.12,1l.11.09a.68.68,0,0,0,.84-.14.74.74,0,0,0,0-1Z"/><path class="cls-1" d="M40.33,24.58a5.15,5.15,0,0,0-.93-1.48A.92.92,0,0,0,38,24.34a3.28,3.28,0,0,1,.6.94,4.8,4.8,0,0,1-1.14,5l-7,7.31A8.3,8.3,0,0,1,27,36.13a.69.69,0,0,0-1,.16.7.7,0,0,0,.17,1l.67.44a9.39,9.39,0,0,0,2.43,1.08l-6.25,6.5a1.7,1.7,0,0,1-2.9-1.78l5.34-15.42a16,16,0,0,0,3.42,2.79h0a.69.69,0,0,0,.94-.23.68.68,0,0,0-.22-.95,13.25,13.25,0,0,1-3.62-3.15L27,23.86a4.75,4.75,0,0,1,4.11-3.3,3,3,0,0,1,1.23.2.92.92,0,0,0,1.19-.53A.91.91,0,0,0,33,19,4.91,4.91,0,0,0,31,18.72a6.63,6.63,0,0,0-5.79,4.54L18.43,42.9a3.54,3.54,0,0,0,6,3.66l14.41-15A6.63,6.63,0,0,0,40.33,24.58Z"/><path class="cls-1" d="M43.54,13.86c.24-.26.41-.44.5-.52a4.59,4.59,0,0,0,1.78-3.71,3,3,0,0,0-1.38-2.19,2.93,2.93,0,0,0-3.07,0h0A4.55,4.55,0,0,0,39.73,9.5a2.43,2.43,0,0,0-1.82-1,2.39,2.39,0,0,0-1.8.64,3.49,3.49,0,0,0-.8,2.74c.11,2,.34,7.08.41,8.51l-.09.22a.59.59,0,0,0-1.05-.07c-.33.54,0,1.28.76,1.75s1.58.43,1.91-.12a.58.58,0,0,0-.19-.81.69.69,0,0,0-.3-.09c.57-.6,1.71-1.86,3-3.29l1.85-2A2.56,2.56,0,0,1,43.38,15a1,1,0,0,1,.7.47.9.9,0,0,1,.08.74,1.67,1.67,0,0,1-1.07.88h0l-.41.14-1.18.34a.6.6,0,0,0-.4.74.63.63,0,0,0,.26.34.61.61,0,0,0,.48.06L43,18.41a5.3,5.3,0,0,0,.52-.17h0a2.72,2.72,0,0,0,1.76-1.6,2.11,2.11,0,0,0-.17-1.74A2.2,2.2,0,0,0,43.54,13.86Zm-7-2A2.39,2.39,0,0,1,37,10a1.16,1.16,0,0,1,.88-.3,1.24,1.24,0,0,1,.93.49,2.31,2.31,0,0,1,.12,1.76c-.63,1.85-1.44,4-2.1,5.71C36.69,15.62,36.57,13.13,36.5,11.81Zm6.71.67c-.39.38-2.39,2.58-4.33,4.7l-1,1.13c.7-1.77,1.54-3.95,2-5.49a4.48,4.48,0,0,0,.12-.46c.18-.54.35-1.06.5-1.53A4.36,4.36,0,0,1,42,8.43h0a1.72,1.72,0,0,1,1.81,0,1.78,1.78,0,0,1,.82,1.3A3.54,3.54,0,0,1,43.21,12.48Z"/><path class="cls-1" d="M27,11.81a6.4,6.4,0,0,0-4.66-2A8.11,8.11,0,0,0,17,12,8.48,8.48,0,0,0,11.6,9.77a6.38,6.38,0,0,0-4.66,2,9.45,9.45,0,0,0-2.3,7.09c.24,4.93,4,10.66,8.55,10.66A6.76,6.76,0,0,0,17,28.37a6.6,6.6,0,0,0,3.77,1.19,6.4,6.4,0,0,0,.88-.07l.65-1.88a4.11,4.11,0,0,1-1.53.32,4.86,4.86,0,0,1-3.19-1.17.78.78,0,0,0-.57-.24.79.79,0,0,0-.56.22,5.18,5.18,0,0,1-3.21,1.19c-3.49,0-6.73-5-6.93-9.1a7.88,7.88,0,0,1,1.86-5.9A4.78,4.78,0,0,1,11.6,11.4a7.42,7.42,0,0,1,4.82,2.32.81.81,0,0,0,1.07,0l.1-.08a7.09,7.09,0,0,1,4.73-2.24,4.78,4.78,0,0,1,3.48,1.53,7.57,7.57,0,0,1,1.86,5.16,7.92,7.92,0,0,1,1.59-.74A8.91,8.91,0,0,0,27,11.81Z"/><path class="cls-1" d="M10.93,15.47a.64.64,0,0,0,.39-.81.63.63,0,0,0-.81-.38c-1.71.6-2.15,2.69-1.91,4a.64.64,0,0,0,.62.51h.12A.63.63,0,0,0,9.85,18C9.72,17.34,9.91,15.83,10.93,15.47Z"/><path class="cls-1" d="M12.25,13.53a.62.62,0,0,0-.43.78.62.62,0,0,0,.6.46l.17,0,.06,0a.6.6,0,0,0,.41-.77A.67.67,0,0,0,12.25,13.53Z"/><path class="cls-1" d="M16.7,10.61l.18,0a.57.57,0,0,0,.54-.37,6.63,6.63,0,0,0-.1-4.65,6.7,6.7,0,0,0-3.56-3A.59.59,0,0,0,13,3a6.67,6.67,0,0,0,.1,4.64A6.59,6.59,0,0,0,16.7,10.61ZM14,4A5.13,5.13,0,0,1,16.3,6.11a5,5,0,0,1,.21,3.18,5.07,5.07,0,0,1-2.35-2.15A5.11,5.11,0,0,1,14,4Z"/></svg>