<svg id="Layer_1" data-name="Layer 1" xmlns="http://www.w3.org/2000/svg" viewBox="0 0 50.46 50.46"><defs><style>.cls-1{fill:#12b5e1;}</style></defs><title>frutilla</title><path class="cls-1" d="M16.74,8.16c.28,0,6.59.43,7,5a6.5,6.5,0,0,0-6.33,6.08.79.79,0,0,0,.48.84c.14.06,3.32,1.37,5.65.08A4,4,0,0,0,24.9,19a4.88,4.88,0,0,0,2.69,1.8c1.62.48,1.7,1.55,1.71,1.66a.78.78,0,0,0,.8.79.78.78,0,0,0,.61-.29c.09-.1,2.1-2.57,1.43-5a3.7,3.7,0,0,0-.93-1.61C33,16,35,15.19,35.43,13a.76.76,0,0,0-.23-.73S31.15,8.5,26.48,13a.8.8,0,1,0,1.11,1.15c2.88-2.78,5.23-1.66,6.14-1-.93,2.05-5,1.77-5.07,1.77a.79.79,0,0,0-.84.63.81.81,0,0,0,.51.92,3.17,3.17,0,0,1,2.27,1.92,3.49,3.49,0,0,1-.35,2.3,4.17,4.17,0,0,0-2.2-1.43c-2.32-.69-2.33-2.35-2.32-2.53a.8.8,0,0,0-1.58-.18,2.93,2.93,0,0,1-1.35,2.25,5.11,5.11,0,0,1-3.67.05,5,5,0,0,1,5.37-4.05.74.74,0,0,0,.6-.19.76.76,0,0,0,.28-.56c.25-5.5-5.48-7.28-8.55-7.46a.8.8,0,0,0-.09,1.6Z"/><path class="cls-1" d="M35.58,18.55a1.05,1.05,0,0,0-1.29,1.66,7.24,7.24,0,0,1,2.8,5.72c.22,5.44-7.44,15-11.63,15.81l-.23,0-.23,0C20.81,41,13.15,31.37,13.37,25.93a7.29,7.29,0,0,1,2.26-5.25,1.05,1.05,0,0,0-1.45-1.53,9.46,9.46,0,0,0-2.91,6.69c-.26,6.6,8.09,16.89,13.27,18a3.35,3.35,0,0,0,.62.11,4.48,4.48,0,0,0,.76-.11c5.18-1.06,13.53-11.35,13.27-17.95A9.34,9.34,0,0,0,35.58,18.55Z"/><path class="cls-1" d="M25.23,26a1.13,1.13,0,0,0-1,1.22c0,.68,1,1.23,1,1.23s1-.55,1-1.23A1.13,1.13,0,0,0,25.23,26Z"/><path class="cls-1" d="M32.36,27.24c0,.68,1,1.23,1,1.23s1-.55,1-1.23a1,1,0,1,0-2,0Z"/><path class="cls-1" d="M16.12,27.37c0,.67,1,1.22,1,1.22s1-.55,1-1.22a1.13,1.13,0,0,0-1-1.23A1.13,1.13,0,0,0,16.12,27.37Z"/><path class="cls-1" d="M20.18,32.58c0,.68,1,1.23,1,1.23s1-.55,1-1.23a1.13,1.13,0,0,0-1-1.23A1.13,1.13,0,0,0,20.18,32.58Z"/><path class="cls-1" d="M29.29,31.35a1.13,1.13,0,0,0-1,1.23c0,.68,1,1.23,1,1.23s1-.55,1-1.23A1.13,1.13,0,0,0,29.29,31.35Z"/><path class="cls-1" d="M24.24,37.86c0,.68,1,1.23,1,1.23s1-.55,1-1.23a1.13,1.13,0,0,0-1-1.23A1.13,1.13,0,0,0,24.24,37.86Z"/></svg>