<?xml version="1.0" encoding="utf-8"?>
<!-- Generator: Adobe Illustrator 22.1.0, SVG Export Plug-In . SVG Version: 6.00 Build 0)  -->
<svg version="1.1" id="Layer_1" xmlns="http://www.w3.org/2000/svg" xmlns:xlink="http://www.w3.org/1999/xlink" x="0px" y="0px"
	 viewBox="0 0 50.5 50.5" style="enable-background:new 0 0 50.5 50.5;" xml:space="preserve">
<style type="text/css">
	.st0{fill:#12B5E1;}
</style>
<title>fuego</title>
<path class="st0" d="M25.2,41.9c-3.1-0.3-5.4-3.1-5-6.2c0,0,0,0,0,0c0-0.4,0.1-0.9,0.3-1.3c0.1-0.3,0.3-0.5,0.6-0.6
	c0.3-0.1,0.6-0.1,0.8,0.1c1,0.6,2.3,0.5,3.2-0.4c0.5-0.6,0.8-1.3,0.7-2.1l0-0.4c-0.1-1.1,0-2.1,0.3-3.2c0.1-0.4,0.5-0.7,0.9-0.7
	c0.4,0,0.8,0.3,0.9,0.7c0.1,0.3,0.2,0.6,0.4,0.9c0.5,1.1,1,2,1.5,2.7c0.5,0.8,1,1.7,1.3,2.6c0.4,0.9,0.5,1.8,0.4,2.8l0,0.2l0,0
	C30.9,40.1,28.2,42.2,25.2,41.9z M22,36c0,2.1,1.6,3.8,3.7,3.8c1.8,0,3.4-1.3,3.8-3.1l0-0.2c0.1-0.6,0-1.2-0.3-1.8l0,0l-0.1-0.1
	c-0.3-0.8-0.7-1.6-1.2-2.3l-0.3-0.6c0,1.1-0.5,2.2-1.3,3C25.2,36,23.6,36.5,22,36L22,36z M30.4,36.9L30.4,36.9z"/>
<g>
	<polygon class="st0" points="12.2,29.9 12.2,29.9 12.2,29.9 	"/>
</g>
<path class="st0" d="M38.6,24.9c-1-2.1-2.4-4-3.9-6.2c-1.3-1.8-2.6-3.6-3.9-5.8c-2.5-4.1-1.9-7.7-0.9-9.9c0.2-0.4,0-0.7-0.2-0.9
	c-0.1-0.1-0.4-0.3-0.8-0.1c-3.7,1.9-6.4,4.2-7.8,9.4c-1,3.7-0.5,6.8-0.1,9.1c0.1,0.3,0.1,0.6,0.1,0.9c0.2,1.5-0.3,2.5-0.7,3.1
	c-0.5,0.7-1.3,1.2-2.2,1.3c-1,0.1-2-0.2-2.7-0.9c-0.5-0.5-1-1.4-1-2.9c0-0.8,0.1-1.6,0.3-2.6c0.1-0.4-0.2-0.6-0.4-0.7
	c-0.2-0.1-0.6-0.1-0.8,0.3c-1.9,3.3-3,6.2-3.5,8.1c-0.2,0.6-0.4,1.3-0.6,2c0,0.1,0,0.1,0,0.2l0,0.1c-0.2,1-0.3,2-0.3,2.9
	c0,8.6,7,15.7,15.7,15.7c8.3,0,15.2-6.6,15.6-15l0-0.1l0,0c0-0.2,0-0.4,0-0.6C40.5,29.8,39.8,27.2,38.6,24.9z M38.2,32.8l0,0.2
	c-0.4,7.2-6.2,12.8-13.4,12.8c-7.4,0-13.4-6-13.4-13.4c0-0.8,0.1-1.7,0.2-2.5l0-0.2c0.1-0.6,0.3-1.2,0.5-1.7
	c0.2-0.5,0.3-0.9,0.5-1.4l0.3-1l0.7,0.8c0.1,0.1,0.1,0.1,0.2,0.2c1.2,1.2,2.9,1.8,4.6,1.6c1.4-0.2,2.8-1,3.7-2.2
	c1-1.3,1.4-3,1.1-4.8c0-0.3-0.1-0.6-0.1-1c-0.3-2.2-0.8-5,0.1-8.2c0.6-2.2,1.4-3.7,2.5-5l1-1.1l0,1.5c0.1,2.3,0.8,4.5,2.1,6.7
	c1.4,2.3,2.8,4.2,4,5.9c1.5,2.1,2.8,3.9,3.7,5.9l0.1,0.1c1,1.9,1.6,4.1,1.6,6.4C38.2,32.5,38.2,32.6,38.2,32.8z"/>
</svg>
