<svg id="Layer_1" data-name="Layer 1" xmlns="http://www.w3.org/2000/svg" viewBox="0 0 50.46 50.46"><defs><style>.cls-1{fill:#12b5e1;}</style></defs><title>fuga material radioactivo</title><path class="cls-1" d="M23.39,21.75a1.9,1.9,0,0,1,.92-1.61L23,17.9a4.49,4.49,0,0,0-2.27,3.89H23.4S23.39,21.77,23.39,21.75Z"/><path class="cls-1" d="M27.18,21.75s0,0,0,0H29.8a4.51,4.51,0,0,0-2.27-3.89l-1.29,2.23A1.88,1.88,0,0,1,27.18,21.75Z"/><path class="cls-1" d="M25.29,23.65a1.9,1.9,0,0,1-.95-.26L23,25.69a4.36,4.36,0,0,0,4.5,0l-1.32-2.29A2,2,0,0,1,25.29,23.65Z"/><path class="cls-1" d="M24.2,21.75a1.09,1.09,0,1,0,1.09-1.08A1.09,1.09,0,0,0,24.2,21.75Z"/><path class="cls-1" d="M34.92,38.45c-5.71,0-.55-.92-.73-1.7-.4-1.71-13.2-.29-9-2.27.05,0-5.5.79-3.65,1.64,2.49,1.14,3.25,1.92-2.12,2.14-3.31.14-9,1.18-7.68,2.94,1.52,2.08,12.77,1.75,20,1.49C40.59,42.37,40.64,38.43,34.92,38.45Z"/><path class="cls-1" d="M14.76,31.87c0,.86.94,1.3,3.49,1.63a56.17,56.17,0,0,0,7,.39,56.06,56.06,0,0,0,7-.39c2.55-.33,3.5-.77,3.5-1.63a.71.71,0,0,0-.58-.7V29.25a1,1,0,0,0,.58-.9.71.71,0,0,0-.58-.7V14a1,1,0,0,0,.58-.9.71.71,0,0,0-.58-.7V10.49a1,1,0,0,0,.58-.9c0-.85-.95-1.29-3.5-1.63a58.25,58.25,0,0,0-7-.38,58.37,58.37,0,0,0-7,.38c-2.55.34-3.49.78-3.49,1.63a1,1,0,0,0,.58.9v1.92a.7.7,0,0,0-.58.71,1,1,0,0,0,.58.89V27.65a.71.71,0,0,0-.58.7,1,1,0,0,0,.58.9v1.92A.71.71,0,0,0,14.76,31.87ZM25.27,9a45.48,45.48,0,0,1,8.07.57,44.23,44.23,0,0,1-8.07.58,44.18,44.18,0,0,1-8.06-.58A45.43,45.43,0,0,1,25.27,9Zm-8.49,2c.42.09.9.17,1.47.24a56.17,56.17,0,0,0,7,.39,56.06,56.06,0,0,0,7-.39q.85-.11,1.47-.24v2a40.74,40.74,0,0,1-8.49.67A40.89,40.89,0,0,1,16.78,13ZM32.14,22a6.87,6.87,0,1,1-6.87-6.87A6.88,6.88,0,0,1,32.14,22Zm-15.36,7.7c.42.09.9.17,1.47.24a56.17,56.17,0,0,0,7,.39,56.06,56.06,0,0,0,7-.39q.85-.11,1.47-.24v2a40.74,40.74,0,0,1-8.49.67,40.89,40.89,0,0,1-8.49-.67Z"/></svg>