<svg id="Layer_1" data-name="Layer 1" xmlns="http://www.w3.org/2000/svg" viewBox="0 0 50.46 50.46"><defs><style>.cls-1{fill:#12b5e1;}</style></defs><title>gallina</title><circle class="cls-1" cx="17.77" cy="12.82" r="1"/><path class="cls-1" d="M19.39,24.21a.59.59,0,0,0-.59.6,8.18,8.18,0,0,0,6.3,7.85,8.7,8.7,0,0,0,1.89.22,8.18,8.18,0,0,0,8-9.82.63.63,0,0,0-.4-.45.61.61,0,0,0-.59.14,7,7,0,0,1-11-1.94.6.6,0,0,0-1.07.54,8.18,8.18,0,0,0,12,3,7,7,0,1,1-14,.47A.6.6,0,0,0,19.39,24.21Z"/><path class="cls-1" d="M42.52,30.94a8,8,0,0,0-3.64-1.85c.12-.39.25-.78.34-1.19a17.42,17.42,0,0,0-.2-8.2,26,26,0,0,0-1.42-4c-.94-2.09-1.81-2.09-2.1-2.09h0a1.46,1.46,0,0,0-1.33,1q-.18.4-.36.84a8.13,8.13,0,0,1-1.51,2.67,4,4,0,0,1-4.2.79,4.11,4.11,0,0,1-2.63-3.2l-.08-.57a6.48,6.48,0,0,1,2.69-5.6c.6-.47,2.2-1.43,1.7-2.54s-1.59-.88-2.55-.57l.15-.14A1.58,1.58,0,0,0,27.72,4c-.65-.73-2.11-.8-3.64.47L22.82,5.53a1.11,1.11,0,0,0-.24-.39c-.55-.58-1.8-.71-3,.28a13.41,13.41,0,0,0-1.93,2.39,8.58,8.58,0,0,0-2.19.84,7.6,7.6,0,0,0-1.39.95l-2.2-1a.77.77,0,0,0-.81.09.79.79,0,0,0-.29.77l.76,3.72A20.43,20.43,0,0,0,9.65,23.69a16.34,16.34,0,0,0,1.42,5.56A7.5,7.5,0,0,0,7.94,31a5.38,5.38,0,0,0-1.55,4c0,6.63,8.45,12,18.84,12s18.84-5.4,18.84-12A5.43,5.43,0,0,0,42.52,30.94ZM14,12.43a5.91,5.91,0,0,1,4-2.75,5.31,5.31,0,0,1,.68,0,4.66,4.66,0,0,1,3,1.17c1.43,1.22,1.63,2.62,1.92,4.56l.09.59a5.91,5.91,0,0,0,9.85,3.4,9.67,9.67,0,0,0,1.9-3.25c0-.13.11-.25.16-.38a5.77,5.77,0,0,1,.35.67,24.43,24.43,0,0,1,1.32,3.76,15.72,15.72,0,0,1,.19,7.36,12.54,12.54,0,0,1-2.82,5.64A28.52,28.52,0,0,1,25,35a27.57,27.57,0,0,1-8.34-1.35,14.16,14.16,0,0,1-5.21-10A18.06,18.06,0,0,1,14,12.43ZM25.23,45.26a25.41,25.41,0,0,1-9.7-1.83l.61,0a28,28,0,0,0,5.28-.53l.71-.16c.31.12.61.25.92.36a36.69,36.69,0,0,0,6.57,1.79A28.28,28.28,0,0,1,25.23,45.26Zm7.84-1.16a30.82,30.82,0,0,1-9-1.84,20,20,0,0,0,7.09-3.55.56.56,0,0,0,.07-.81.6.6,0,0,0-.83-.07,20.18,20.18,0,0,1-8.18,3.73,26.62,26.62,0,0,1-8.78-5.51.6.6,0,0,0-.83,0,.58.58,0,0,0,0,.82A26.16,26.16,0,0,0,20.25,42a22.71,22.71,0,0,1-7.44.06A10.34,10.34,0,0,1,8.7,37.52a10.06,10.06,0,0,0,1.78,1.16.73.73,0,0,0,.21.06.58.58,0,0,0,.57-.32.57.57,0,0,0-.26-.77,9.38,9.38,0,0,1-2.82-2.19c0-.17,0-.33,0-.5a3.7,3.7,0,0,1,1-2.78,6.2,6.2,0,0,1,2.7-1.38c.27.45.56.89.87,1.31l-.82-.36a1,1,0,0,0-1.28.45,1,1,0,0,0,.45,1.29A32.28,32.28,0,0,0,25,36.88a32.52,32.52,0,0,0,14.39-3.64,1,1,0,1,0-.86-1.73l-.81.37a12.14,12.14,0,0,0,.59-1.2,5.43,5.43,0,0,1,2.57,1.13,6.41,6.41,0,0,1-1.47,4.28,9.63,9.63,0,0,1-3.82,2.82.56.56,0,0,0-.32.74.58.58,0,0,0,.54.37A.52.52,0,0,0,36,40a10.76,10.76,0,0,0,4.3-3.17,7.79,7.79,0,0,0,1.64-3.68A4.29,4.29,0,0,1,42.32,35C42.32,38.94,38.56,42.39,33.07,44.1Z"/><ellipse class="cls-1" cx="33.94" cy="41.34" rx="0.62" ry="0.61"/><path class="cls-1" d="M11.94,40.17a.61.61,0,0,0,.56.66.61.61,0,1,0-.56-.66Z"/></svg>