<svg id="Layer_1" data-name="Layer 1" xmlns="http://www.w3.org/2000/svg" viewBox="0 0 50.46 50.46"><defs><style>.cls-1{fill:#65b4e1;}</style></defs><title>garrafa</title><path class="cls-1" d="M38.61,35.68l0-3.88c0-1.7,0-7.65,0-12.84a7.36,7.36,0,0,0-5.46-7V7a6.65,6.65,0,0,0,0-.78v-.1a1.33,1.33,0,0,0-.25-.78l-.09-.28-.09,0c-.86-.93-2.87-1.35-4.45-1.54a25.42,25.42,0,0,0-3-.18c-.76,0-7.38.07-7.87,2.45a.44.44,0,0,0,0,.23v5.87a7.36,7.36,0,0,0-5.46,7c0,5.2,0,11.14,0,12.84l0,3.87A5.93,5.93,0,0,0,13.68,40v2A3.55,3.55,0,0,0,15.6,45a18.9,18.9,0,0,0,9.14,2h.94a19,19,0,0,0,9.18-2A3.55,3.55,0,0,0,36.79,42V40A5.92,5.92,0,0,0,38.61,35.68ZM25.23,5.11a23.53,23.53,0,0,1,2.83.16,9.13,9.13,0,0,1,3.24.84c-.53.36-2.63,1-6.07,1a14.46,14.46,0,0,1-6-1C19.79,5.73,21.89,5.11,25.23,5.11Zm0,3.74a18.86,18.86,0,0,0,6.19-.9v4.47c-.77.88-3.06,1.42-6.17,1.45s-5.42-.57-6.19-1.45V7.91A19.48,19.48,0,0,0,25.23,8.84ZM34,43.55c-1.43.82-4,1.79-8.41,1.8h-.73c-4.36,0-7-1-8.41-1.8A1.86,1.86,0,0,1,15.39,42v-.74a17.8,17.8,0,0,0,9.25,2.36h1.13a18.16,18.16,0,0,0,9.29-2.36V42A1.86,1.86,0,0,1,34,43.55Zm1.45-4.66c-2.39,2-5.78,3-9.8,3H24.8c-4,0-7.4-1.06-9.79-3a4.12,4.12,0,0,1-1.43-3.2l0-3.79s0-6.91,0-12.92a5.54,5.54,0,0,1,4.19-5.38c1.45,1.61,4.84,2,7.46,2s6-.39,7.44-2A5.52,5.52,0,0,1,36.87,19c0,5.95,0,12.88,0,12.93l0,3.78A4.12,4.12,0,0,1,35.45,38.89Z"/><path class="cls-1" d="M23.2,11.85l1.72.07h.74l1.65-.06c.84,0,1.28-.41,1.28-.92S28.14,10,27.3,10l-1.68.06h-.74L23.2,10c-.84,0-1.33.41-1.33.92S22.36,11.85,23.2,11.85Z"/><path class="cls-1" d="M25.23,23.25a6.52,6.52,0,1,0,6.52,6.52A6.52,6.52,0,0,0,25.23,23.25Zm-.75,10.3a1.36,1.36,0,0,1-.24.46,1.23,1.23,0,0,1-.3.27l0,0,0,0,0,0a1.55,1.55,0,0,1-.52.17,1,1,0,0,0,.18-.42h0a1,1,0,0,0,0-.11,1.49,1.49,0,0,0,0-.27,1,1,0,0,0-.06-.26,1.24,1.24,0,0,0-.11-.22L23.18,33l-.2-.25h0l0,0,0,0,0,0h0l-.07-.08a2.07,2.07,0,0,1-.17-.24,1.87,1.87,0,0,1-.24-.58,1.55,1.55,0,0,1,0-.61,1.3,1.3,0,0,1,.2-.49,1.25,1.25,0,0,1,.18-.21h0a1.33,1.33,0,0,1,.68-.36,1.57,1.57,0,0,0-.09.38s0,.07,0,.1h0v.06a1.52,1.52,0,0,0,0,.27.91.91,0,0,0,.09.24,1.36,1.36,0,0,0,.13.2l.17.2h0l0,0,0,0h0l0,0h0l0,0,0,0,.09.1a2.3,2.3,0,0,1,.31.5,1.9,1.9,0,0,1,.16.6A1.57,1.57,0,0,1,24.48,33.54Zm3.45-1.07a3,3,0,0,1-.53,1,2.84,2.84,0,0,1-.3.32h0l-.16.14-.07,0-.07,0-.07,0-.19.11a3.29,3.29,0,0,1-1.15.38,2.06,2.06,0,0,0,.31-.65c0-.08,0-.18,0-.29h0c0-.07,0-.14,0-.22a3.36,3.36,0,0,0,0-.6,2.23,2.23,0,0,0-.13-.56,2.75,2.75,0,0,0-.24-.48c-.1-.16-.21-.32-.33-.49s-.25-.32-.44-.55h0l-.05-.06-.07-.08,0,0-.14-.17a4.55,4.55,0,0,1-.38-.53,4.09,4.09,0,0,1-.52-1.26,3.4,3.4,0,0,1,0-1.34,2.88,2.88,0,0,1,.43-1.07,2.83,2.83,0,0,1,.26-.33h0l0,0h0l.09-.09.23-.2.25-.17a2.56,2.56,0,0,1,.93-.36,2.43,2.43,0,0,0-.08.33c0,.08,0,.17,0,.27a5,5,0,0,0,0,.54,3.25,3.25,0,0,0,.07.59,2,2,0,0,0,.19.53,2.92,2.92,0,0,0,.28.44c.11.14.23.28.37.44h0l.06.07,0,0h0l.09.1,0,0,.06.07.09.1.2.23a5,5,0,0,1,.69,1.09,4.15,4.15,0,0,1,.36,1.31A3.38,3.38,0,0,1,27.93,32.48Z"/></svg>