<svg id="Layer_1" data-name="Layer 1" xmlns="http://www.w3.org/2000/svg" viewBox="0 0 50.46 50.46"><defs><style>.cls-1{fill:#12b5e1;}</style></defs><title>gaseosa prohibida</title><path class="cls-1" d="M32.54,36.88c-.46-1.42-1.15-3.58-.55-5.45a20.55,20.55,0,0,0,.61-9.78L19.27,35c-.16.7-.36,1.36-.54,1.9a7.67,7.67,0,0,0-.4,1.57c-.25,2.56,1.08,4.19,3.94,4.86l.07,0a22.78,22.78,0,0,0,3.18.36h.23a22.78,22.78,0,0,0,3.18-.36l.07,0c2.86-.67,4.19-2.3,3.94-4.86A7.67,7.67,0,0,0,32.54,36.88Z"/><path class="cls-1" d="M29.36,9.08h.9l-.52-1.56A1.82,1.82,0,0,0,28,6H23.16a1.83,1.83,0,0,0-1.75,1.48L20.9,9.08h1a20.91,20.91,0,0,1-1.81,8.2,18.94,18.94,0,0,0-1.56,10.85l6.2-6.2c-2.36-.88-3.77-.61-4.65,0a15.89,15.89,0,0,1,1.3-4,22.33,22.33,0,0,0,2-8.89h4.56a23.29,23.29,0,0,0,1.62,8.06L30.64,16A21.78,21.78,0,0,1,29.36,9.08Z"/><path class="cls-1" d="M25.23,2.65A22.58,22.58,0,1,0,47.81,25.23,22.61,22.61,0,0,0,25.23,2.65ZM5,25.23A20.18,20.18,0,0,1,38.64,10.14L10.15,38.65A20.1,20.1,0,0,1,5,25.23ZM25.23,45.45a20.06,20.06,0,0,1-13.41-5.14l28.49-28.5A20.18,20.18,0,0,1,25.23,45.45Z"/></svg>