<svg id="Layer_1" data-name="Layer 1" xmlns="http://www.w3.org/2000/svg" viewBox="0 0 50.46 50.46"><defs><style>.cls-1{fill:#12b5e1;}</style></defs><title>gaseosa</title><path class="cls-1" d="M33.33,40.28a9.33,9.33,0,0,0-.45-1.74c-.51-1.58-1.27-4-.61-6a21.77,21.77,0,0,0-.91-15.68,23.11,23.11,0,0,1-2-9.08h1L29.78,6a2,2,0,0,0-1.94-1.64H22.49A2,2,0,0,0,20.55,6L20,7.74H21.1a23.11,23.11,0,0,1-2,9.08,21.77,21.77,0,0,0-.91,15.68c.66,2.08-.1,4.46-.61,6a9.33,9.33,0,0,0-.45,1.74c-.27,2.83,1.2,4.65,4.38,5.39l.07,0a25.8,25.8,0,0,0,3.53.4h.24a25.8,25.8,0,0,0,3.53-.4l.07,0C32.13,44.93,33.6,43.11,33.33,40.28ZM20.7,26a.41.41,0,1,1,.81,0,.41.41,0,1,1-.81,0Zm.56,3.66a.51.51,0,0,1,.5-.53.54.54,0,0,1,0,1.07A.52.52,0,0,1,21.26,29.61Zm1.1,3.49a.32.32,0,0,1-.32-.33.33.33,0,0,1,.32-.33.32.32,0,0,1,.31.33A.32.32,0,0,1,22.36,33.1Zm0-9.22a.33.33,0,0,1-.32-.33.32.32,0,0,1,.32-.33.32.32,0,0,1,.31.33A.32.32,0,0,1,22.36,23.88Zm1.07,4.17a.54.54,0,1,1,.5-.54A.53.53,0,0,1,23.43,28.05Zm1.88-5.64C22,20.92,20.18,21.2,19.09,22a18.21,18.21,0,0,1,1.43-4.42A24.78,24.78,0,0,0,22.7,7.74h5.06a24.78,24.78,0,0,0,2.18,9.84,18.17,18.17,0,0,1,1.55,5.15A7.94,7.94,0,0,1,25.31,22.41Z"/></svg>