<?xml version="1.0" encoding="utf-8"?>
<!-- Generator: Adobe Illustrator 25.4.1, SVG Export Plug-In . SVG Version: 6.00 Build 0)  -->
<svg version="1.1" id="linea_expandida" xmlns="http://www.w3.org/2000/svg" xmlns:xlink="http://www.w3.org/1999/xlink" x="0px"
	 y="0px" viewBox="0 0 50.46 50.46" enable-background="new 0 0 50.46 50.46" xml:space="preserve">
<g>
	<path d="M26.895,14.897c3.442,0,6.243-2.801,6.243-6.243s-2.801-6.243-6.243-6.243s-6.243,2.8-6.243,6.243
		S23.453,14.897,26.895,14.897z"/>
	<circle cx="13.578" cy="14.391" r="5.464"/>
	<circle cx="8.631" cy="26.727" r="4.942"/>
	<path d="M13.137,33.362c-2.466,0-4.473,2.007-4.473,4.474s2.007,4.474,4.473,4.474c2.467,0,4.474-2.007,4.474-4.474
		S15.604,33.362,13.137,33.362z"/>
	<path d="M22.854,39.525c-2.35,0-4.262,1.912-4.262,4.262c0,2.351,1.912,4.263,4.262,4.263s4.262-1.912,4.262-4.263
		C27.116,41.437,25.204,39.525,22.854,39.525z"/>
	<path d="M33.967,37.921c-2.35,0-4.262,1.912-4.262,4.262c0,2.351,1.912,4.263,4.262,4.263c2.351,0,4.263-1.912,4.263-4.263
		C38.229,39.834,36.317,37.921,33.967,37.921z"/>
	<path d="M41.152,31.953c-1.966,0-3.565,1.6-3.565,3.566s1.6,3.566,3.565,3.566c1.967,0,3.566-1.6,3.566-3.566
		S43.119,31.953,41.152,31.953z"/>
	<path d="M43.595,23.581c-1.752,0-3.177,1.425-3.177,3.177s1.425,3.177,3.177,3.177s3.177-1.425,3.177-3.177
		S45.346,23.581,43.595,23.581z"/>
	<path d="M28.558,20.341c0,1.751,1.425,3.177,3.177,3.177s3.177-1.425,3.177-3.177c0-1.752-1.425-3.177-3.177-3.177
		S28.558,18.589,28.558,20.341z"/>
	<path d="M27.781,19.453c0-1.562-1.271-2.832-2.832-2.832s-2.832,1.27-2.832,2.832s1.27,2.832,2.832,2.832
		S27.781,21.015,27.781,19.453z"/>
	<path d="M17.335,23.449c0,1.431,1.165,2.596,2.596,2.596c1.431,0,2.596-1.165,2.596-2.596c0-1.432-1.165-2.596-2.596-2.596
		C18.5,20.853,17.335,22.017,17.335,23.449z"/>
	<path d="M27.603,30.34c1.432,0,2.597-1.164,2.597-2.596s-1.165-2.596-2.597-2.596s-2.596,1.165-2.596,2.596
		S26.172,30.34,27.603,30.34z"/>
	<path d="M21.351,29.275c0-1.32-1.074-2.395-2.395-2.395c-1.321,0-2.395,1.074-2.395,2.395s1.074,2.395,2.395,2.395
		C20.277,31.669,21.351,30.595,21.351,29.275z"/>
	<circle cx="21.525" cy="33.856" r="2.188"/>
	<path d="M26.258,33.907c-1.152,0-2.089,0.938-2.089,2.09c0,1.151,0.938,2.089,2.089,2.089c1.151,0,2.089-0.938,2.089-2.089
		C28.346,34.844,27.409,33.907,26.258,33.907z"/>
	<path d="M32.843,35.104c0-1.047-0.853-1.899-1.899-1.899c-1.048,0-1.9,0.853-1.9,1.899c0,1.048,0.853,1.9,1.9,1.9
		C31.99,37.004,32.843,36.152,32.843,35.104z"/>
	<path d="M34.034,30.512c-0.933,0-1.691,0.759-1.691,1.69c0,0.933,0.759,1.691,1.691,1.691c0.932,0,1.69-0.759,1.69-1.691
		C35.724,31.271,34.966,30.512,34.034,30.512z"/>
	<path d="M36.669,28.371c0-0.745-0.605-1.352-1.351-1.352s-1.351,0.606-1.351,1.352s0.605,1.351,1.351,1.351
		S36.669,29.116,36.669,28.371z"/>
	<path d="M34.906,25.948c0.579,0,1.05-0.471,1.05-1.05c0-0.579-0.471-1.049-1.05-1.049s-1.05,0.471-1.05,1.049
		C33.856,25.477,34.327,25.948,34.906,25.948z"/>
	<path d="M41.977,21.326c1.344,0,2.437-1.093,2.437-2.437c0-1.344-1.093-2.438-2.437-2.438s-2.438,1.093-2.438,2.438
		C39.54,20.232,40.634,21.326,41.977,21.326z"/>
	<circle cx="37.292" cy="13.252" r="1.925"/>
</g>
</svg>
