<svg id="Layer_1" data-name="Layer 1" xmlns="http://www.w3.org/2000/svg" viewBox="0 0 50.46 50.46"><defs><style>.cls-1{fill:#12b5e1;}</style></defs><title>gastos</title><path class="cls-1" d="M31.23,39.26a4,4,0,1,0,4,4A4,4,0,0,0,31.23,39.26Zm0,6.16a2.14,2.14,0,1,1,2.14-2.14A2.14,2.14,0,0,1,31.23,45.42Z"/><path class="cls-1" d="M18.89,39.26a4,4,0,1,0,4,4A4,4,0,0,0,18.89,39.26Zm0,6.16A2.14,2.14,0,1,1,21,43.28,2.14,2.14,0,0,1,18.89,45.42Z"/><path class="cls-1" d="M25.73,22.29c0-.5-.21-.82-1.07-1.13l-.1,2.06C25.29,23.17,25.7,22.83,25.73,22.29Z"/><path class="cls-1" d="M23.94,17.55c-.73,0-1.11.4-1.13.89s.18.78,1,1.11Z"/><path class="cls-1" d="M20.29,10.13h.1l8.43.43h.11l1.8-1.94,0,0a2.29,2.29,0,0,0,.5-2.51,1.52,1.52,0,0,0-1.65-.76l-1.3.26h0a1,1,0,0,1-.52,0h0a1.81,1.81,0,0,1-1-.85l-.24-.49a1.78,1.78,0,0,0-1.5-1,1.76,1.76,0,0,0-1.58.85l-.31.48a1.44,1.44,0,0,1-1.65.66l-1.27-.39a1.51,1.51,0,0,0-1.71.61,1.68,1.68,0,0,0,0,2Z"/><path class="cls-1" d="M19.09,28.15l1.79.09,6.94.34.69,0a4.09,4.09,0,0,0,.78-.05,4.63,4.63,0,0,0,2.92-2,5.65,5.65,0,0,0,.6-5.13L31.58,18l-2.64-6.19-8.74-.43-4.87,9.15a5.69,5.69,0,0,0,.09,5.16A4.54,4.54,0,0,0,19.09,28.15Zm2.58-6a.6.6,0,0,1,.37.14,4.1,4.1,0,0,0,1.63.84l.11-2.23c-1.63-.51-2.37-1.17-2.31-2.44A2.28,2.28,0,0,1,24,16.41v-.23a.51.51,0,0,1,.52-.47.5.5,0,0,1,.47.51l0,.25a4.08,4.08,0,0,1,1.72.71.61.61,0,0,1,.32.56.63.63,0,0,1-.67.59.74.74,0,0,1-.33-.12,4,4,0,0,0-1.14-.55l-.1,2.17c1.69.51,2.39,1.23,2.34,2.44s-1.08,2-2.52,2.09l0,.68a.49.49,0,0,1-1-.05l0-.7a4.84,4.84,0,0,1-2.27-1,.63.63,0,0,1-.28-.56A.61.61,0,0,1,21.67,22.15Z"/><path class="cls-1" d="M44.18,13.6H40.4a.94.94,0,0,0-.89.64l-1.64,4.94H33.24l.65,1.8,0,0a.08.08,0,0,0,0,0h3.32l-1.47,4.43H34a7.26,7.26,0,0,1-.54,1.25h1.88l-1.67,5-5.86-.46V29.82l-1.25-.07v1.46l-6.12-.49v-1.3l-1.25-.06v1.26l-6.28-.5-.84-3.38H14.7c-.1-.16-.21-.32-.3-.49a7.43,7.43,0,0,1-.35-.76H11.76l-1.1-4.43h3.22A7.16,7.16,0,0,1,14.29,20l0,0,.4-.76H9.46a.93.93,0,0,0-.74.36.92.92,0,0,0-.17.8l2.71,10.89a1,1,0,0,0,.84.71l21.67,1.72,1.67,2.86H13a.94.94,0,0,0,0,1.88h24.1A.93.93,0,0,0,37.88,37l-2.52-4.33,5.72-17.18h3.1a.94.94,0,0,0,0-1.88Z"/></svg>