<svg id="Layer_1" data-name="Layer 1" xmlns="http://www.w3.org/2000/svg" viewBox="0 0 50.46 50.46"><defs><style>.cls-1{fill:#12b5e1;}</style></defs><title>gastos_recursos</title><path class="cls-1" d="M48.28,33.77a2.67,2.67,0,0,0-1.73-2.07c-1.88-.86-2.77-.07-4.56,1.49-.38.34-.83.73-1.36,1.17a13.76,13.76,0,0,1-3.33,2.23,4.18,4.18,0,0,0-1.06-2.34c-1.17-1.15-3-1-6.18-.92-2.47,0-3.33-.82-5.07-2.52-.62-.61-1.32-1.3-2.22-2.07-3.81-3.25-9-2-10.61-1.54v-2a.85.85,0,0,0-.85-.85H3a.85.85,0,0,0-.85.85V44.5a.85.85,0,0,0,.85.85h8.31a.85.85,0,0,0,.85-.85V43.05c2.87,2.06,5.45,2.53,9.33,2.53,1.36,0,2.87-.06,4.6-.13l1.76-.06c8-.27,11.82-1.7,17.17-6.34C47.42,37,48.49,35.22,48.28,33.77ZM10.46,43.65H3.85V26.05h6.61ZM43.85,37.7c-5,4.38-8.49,5.65-16.06,5.91L26,43.67c-7,.27-9.91.37-13.7-2.72a.62.62,0,0,0-.17-.11V29.07l.15-.05c.06,0,5.67-2,9.3,1.07.85.73,1.54,1.4,2.14,2,1.82,1.79,3.14,3.1,6.33,3,2.69,0,4.26-.22,4.91.41a2.71,2.71,0,0,1,.58,1.67,30.8,30.8,0,0,1-6,.76c-6.41.32-8.49-2.68-8.57-2.81a.89.89,0,0,0-1.24-.24.88.88,0,0,0-.24,1.23c.27.41,2.86,4,10.14,3.6s9.08-1.45,12.14-4c.54-.45,1-.85,1.39-1.2C44.94,33,45,33,45.81,33.32s.69.6.71.7C46.56,34.31,46.49,35.4,43.85,37.7Z"/><path class="cls-1" d="M7.15,38.39a.89.89,0,0,0,.9-.89V28.55a.9.9,0,0,0-1.79,0v9A.89.89,0,0,0,7.15,38.39Z"/><path class="cls-1" d="M30.22,28.84a11.95,11.95,0,1,1,12-11.95A12,12,0,0,1,30.22,28.84Zm0-22.11A10.17,10.17,0,1,0,40.39,16.89,10.17,10.17,0,0,0,30.22,6.73Z"/><path class="cls-1" d="M30.4,9.5a.73.73,0,0,1,.73.73v.38a6.18,6.18,0,0,1,2.65.94.91.91,0,0,1,.51.82.94.94,0,0,1-1,.94.93.93,0,0,1-.51-.16,6.61,6.61,0,0,0-1.76-.75v3.28c2.6.65,3.71,1.69,3.71,3.52s-1.47,3.13-3.64,3.33v1a.73.73,0,0,1-.73.73.75.75,0,0,1-.76-.73V22.5a7.37,7.37,0,0,1-3.5-1.34.94.94,0,0,1,.48-1.75.89.89,0,0,1,.56.18,6.11,6.11,0,0,0,2.53,1.15V17.37c-2.49-.65-3.65-1.59-3.65-3.52s1.45-3.09,3.58-3.26v-.36A.75.75,0,0,1,30.4,9.5Zm-.69,5.82v-3c-1.09.1-1.64.68-1.64,1.43S28.4,14.9,29.71,15.32Zm1.35,2.38v3.11c1.09-.12,1.69-.67,1.69-1.49S32.38,18.11,31.06,17.7Z"/><circle class="cls-1" cx="7.22" cy="40.8" r="1.08"/><path class="cls-1" d="M15,16.26h-.47v-.47a.64.64,0,1,0-1.28,0v.47h-.47a.64.64,0,1,0,0,1.27h.47V18a.64.64,0,0,0,1.28,0v-.47H15a.64.64,0,1,0,0-1.27Z"/><path class="cls-1" d="M45.44,6.36H45V5.89a.64.64,0,0,0-1.28,0v.47h-.47a.64.64,0,0,0-.64.64.64.64,0,0,0,.64.64h.47v.47a.64.64,0,0,0,1.28,0V7.64h.47A.64.64,0,0,0,46.08,7,.64.64,0,0,0,45.44,6.36Z"/><circle class="cls-1" cx="16.32" cy="5.62" r="0.73"/><circle class="cls-1" cx="43.6" cy="26.78" r="0.73"/></svg>