<?xml version="1.0" encoding="utf-8"?>
<!-- Generator: Adobe Illustrator 24.0.1, SVG Export Plug-In . SVG Version: 6.00 Build 0)  -->
<svg version="1.1" id="Layer_1" xmlns="http://www.w3.org/2000/svg" xmlns:xlink="http://www.w3.org/1999/xlink" x="0px" y="0px"
	 viewBox="0 0 50.5 50.5" style="enable-background:new 0 0 50.5 50.5;" xml:space="preserve">
<path d="M17.7,33.6c-0.1-0.4-0.6-0.6-0.9-0.4c-4.2,1.6-9,1.2-12.9-0.8c0.3-2.8,1.8-5.2,4-6.4c2.1,0.9,4.6,0.9,6.7,0
	c0.6,0.4,1.2,0.8,1.7,1.4c0.3,0.3,0.7,0.3,1,0s0.3-0.7,0-1c-0.7-0.8-1.5-1.4-2.4-1.8c-0.2-0.1-0.5-0.1-0.7,0c-1.9,1-4.2,1-6.1,0
	c-0.2-0.1-0.5-0.1-0.7,0c-3,1.5-4.9,4.7-5.2,8.3c0,0.3,0.1,0.5,0.4,0.7c2.6,1.5,5.5,2.2,8.5,2.2c2.1,0,4.1-0.4,6-1.1
	C17.6,34.4,17.8,33.9,17.7,33.6z"/>
<path d="M28.9,32.6c-0.2-0.1-0.5-0.1-0.7,0c-1.9,0.9-4.3,0.9-6.1,0c-0.2-0.1-0.5-0.1-0.7,0c-3,1.5-4.9,4.7-5.2,8.3
	c0,0.3,0.1,0.5,0.4,0.7c2.6,1.5,5.5,2.2,8.5,2.2s5.9-0.8,8.5-2.2c0.2-0.1,0.4-0.4,0.4-0.7C33.8,37.3,31.8,34.1,28.9,32.6z
	 M17.8,40.5c0.3-2.8,1.8-5.2,4-6.4c2.1,0.9,4.6,0.9,6.7,0c2.2,1.3,3.7,3.7,4,6.4C28,42.9,22.3,42.9,17.8,40.5z"/>
<path d="M43,24.4c-0.2-0.1-0.5-0.1-0.7,0c-1.9,0.9-4.3,0.9-6.1,0c-0.2-0.1-0.5-0.1-0.7,0c-0.9,0.5-1.8,1.1-2.5,1.9
	c-0.3,0.3-0.3,0.8,0,1c0.3,0.3,0.8,0.3,1,0c0.5-0.6,1.1-1,1.8-1.4c2.1,0.9,4.6,0.9,6.7,0c2.2,1.3,3.7,3.7,4,6.4
	c-3.9,2.1-8.7,2.4-12.9,0.8c-0.4-0.1-0.8,0.1-0.9,0.4c-0.1,0.4,0.1,0.8,0.4,0.9c1.9,0.7,4,1.1,6,1.1c3,0,5.9-0.8,8.5-2.2
	c0.2-0.1,0.4-0.4,0.4-0.7C47.9,29.1,45.9,25.9,43,24.4z"/>
<path d="M32,15.9h0.4h0.3h0.5c0.1,1.3,0.5,4.6,2.4,6.5c1,1,2.2,1.5,3.7,1.5c1.7,0,3-0.6,4.1-1.7c1.8-1.9,2-5,2.1-6.3H46h0.3h0.5
	c0.4,0,0.7-0.3,0.7-0.7s-0.3-0.7-0.7-0.7l0,0c-0.1-2.8-1.8-5.2-4.2-6.3V8c0.1-0.4-0.1-0.7-0.5-0.8c-1.6-0.6-3.5-0.6-5.1,0
	c-0.3,0.1-0.6,0.5-0.5,0.8v0.2c-2.5,1.1-4.2,3.5-4.3,6.4l0,0c-0.4,0-0.7,0.3-0.7,0.7C31.2,15.6,31.6,15.9,32,15.9z M42.1,21.2
	c-0.7,0.8-1.7,1.2-2.9,1.2c-1,0-1.9-0.3-2.5-1c-1.5-1.5-1.8-4.2-1.9-5.4h0.8h7.3h0.9C43.8,17.1,43.6,19.7,42.1,21.2z M36.6,9.6
	l0.3,1.7c0.1,0.4,0.5,0.7,0.9,0.6c0.4-0.1,0.7-0.5,0.6-0.9l-0.5-2.7c1-0.2,2-0.2,3,0L40.3,11c-0.1,0.4,0.2,0.8,0.6,0.9H41
	c0.3,0,0.6-0.2,0.7-0.6L42,9.6c1.7,0.9,3,2.8,3.1,4.8H33.4C33.5,12.4,34.8,10.5,36.6,9.6z"/>
<path d="M17.8,22.6L17.8,22.6c-0.4,0-0.7,0.3-0.7,0.7c0,0.4,0.3,0.7,0.7,0.7h0.4h0.3H19c0.1,1.3,0.5,4.6,2.4,6.5
	c1,1,2.2,1.5,3.7,1.5c1.7,0,3-0.6,4.1-1.7c1.8-1.9,2-5,2.1-6.3h0.5H32h0.5c0.4,0,0.7-0.3,0.7-0.7c0-0.4-0.3-0.7-0.7-0.7l0,0
	c-0.1-2.8-1.8-5.2-4.2-6.3v-0.2c0.1-0.4-0.1-0.7-0.5-0.8c-1.6-0.6-3.5-0.6-5.1,0c-0.3,0.1-0.6,0.5-0.5,0.8v0.2
	C19.7,17.4,17.9,19.8,17.8,22.6z M28,29.3c-0.7,0.8-1.7,1.2-2.9,1.2c-1,0-1.9-0.3-2.5-1c-1.5-1.5-1.8-4.2-1.9-5.4h0.8h7.3h0.9
	C29.6,25.2,29.4,27.8,28,29.3z M22.4,17.7l0.3,1.7c0.1,0.4,0.5,0.7,0.9,0.6s0.7-0.5,0.6-0.9l-0.5-2.7c1-0.2,2-0.2,3,0l-0.5,2.7
	c-0.1,0.4,0.2,0.8,0.6,0.9h0.1c0.3,0,0.6-0.2,0.7-0.6l0.3-1.6c1.7,0.9,3,2.8,3.1,4.8H19.3C19.4,20.5,20.6,18.7,22.4,17.7z"/>
<path d="M3.9,15.9h0.4h0.3h0.5c0.1,1.3,0.5,4.6,2.4,6.5c1,1,2.2,1.5,3.7,1.5c1.7,0,3-0.6,4.1-1.7c1.8-1.9,2-5,2.1-6.3h0.5h0.3h0.5
	c0.4,0,0.7-0.3,0.7-0.7s-0.3-0.7-0.7-0.7l0,0c-0.1-2.8-1.8-5.2-4.2-6.3V8c0.1-0.4-0.1-0.7-0.5-0.8c-1.6-0.6-3.5-0.6-5.1,0
	c-0.5,0-0.7,0.3-0.7,0.7v0.2C5.7,9.2,4,11.6,3.9,14.5l0,0c-0.4,0-0.7,0.3-0.7,0.7C3.2,15.6,3.5,15.9,3.9,15.9z M14.1,21.2
	c-0.7,0.8-1.7,1.2-2.9,1.2c-1,0-1.9-0.3-2.5-1c-1.5-1.5-1.8-4.2-1.9-5.4h0.8h7.3h0.9C15.7,17.1,15.5,19.7,14.1,21.2z M8.6,9.6
	l0.3,1.7C9,11.7,9.4,12,9.8,11.9c0.4-0.1,0.7-0.5,0.6-0.9L9.8,8.3c1-0.2,2-0.2,3,0L12.2,11c-0.1,0.4,0.2,0.8,0.6,0.9h0.1
	c0.3,0,0.6-0.2,0.7-0.6L14,9.6c1.7,0.9,3,2.8,3.1,4.8H5.4C5.5,12.4,6.8,10.5,8.6,9.6z"/>
</svg>
