<?xml version="1.0" encoding="utf-8"?>
<!-- Generator: Adobe Illustrator 24.2.1, SVG Export Plug-In . SVG Version: 6.00 Build 0)  -->
<svg version="1.1" id="Capa_1" xmlns="http://www.w3.org/2000/svg" xmlns:xlink="http://www.w3.org/1999/xlink" x="0px" y="0px"
	 viewBox="0 0 50.5 50.5" style="enable-background:new 0 0 50.5 50.5;" xml:space="preserve">
<g>
	<path d="M16.979,34.357c-0.155-0.413-0.616-0.626-1.03-0.469C11.4,35.588,6.126,35.25,1.834,32.98
		c0.329-3.02,1.968-5.655,4.383-7.044c2.297,1.021,5.066,1.025,7.372,0c0.688,0.396,1.323,0.9,1.89,1.503
		c0.304,0.324,0.809,0.336,1.131,0.035c0.322-0.303,0.337-0.81,0.034-1.131c-0.785-0.835-1.682-1.513-2.666-2.016
		c-0.228-0.117-0.497-0.117-0.724-0.002c-2.076,1.045-4.637,1.041-6.701,0c-0.228-0.115-0.497-0.113-0.724,0.002
		c-3.239,1.657-5.398,5.126-5.634,9.056c-0.019,0.305,0.138,0.593,0.403,0.743c2.822,1.602,6.041,2.448,9.31,2.448
		c2.271,0,4.492-0.399,6.602-1.188C16.923,35.232,17.133,34.771,16.979,34.357z"/>
	<path d="M1.92,15.099h0.643c0.089,0.54,0.292,1.322,0.771,2.072c0.067,0.105,0.16,0.183,0.262,0.245
		c-0.01,1.63,0.603,3.263,1.844,4.504c1.193,1.192,2.778,1.849,4.464,1.849c1.687,0,3.272-0.657,4.464-1.849
		c1.324-1.324,1.929-3.096,1.828-4.833c0.293-0.336,0.67-0.957,0.737-1.988h0.982c0.442,0,0.8-0.358,0.8-0.8s-0.358-0.8-0.8-0.8
		h-0.039c-0.126-3.067-1.999-5.695-4.643-6.921l0.053-0.273c0.077-0.393-0.149-0.783-0.529-0.911
		c-1.795-0.607-3.79-0.619-5.595-0.037C6.779,5.48,6.548,5.868,6.621,6.264l0.05,0.268c-2.695,1.206-4.612,3.863-4.739,6.967H1.92
		c-0.442,0-0.8,0.358-0.8,0.8S1.478,15.099,1.92,15.099z M7.312,9.989c0.081,0.434,0.496,0.723,0.933,0.641
		c0.434-0.081,0.721-0.498,0.641-0.933L8.329,6.696c1.062-0.232,2.188-0.225,3.246,0.022L10.993,9.69
		c-0.085,0.434,0.198,0.854,0.632,0.938c0.052,0.01,0.104,0.015,0.154,0.015c0.375,0,0.709-0.265,0.784-0.647l0.352-1.799
		c1.912,1.032,3.241,3.013,3.359,5.302H3.532c0.119-2.32,1.486-4.321,3.44-5.341L7.312,9.989z M13.236,20.789
		c-0.89,0.89-2.073,1.38-3.333,1.38c-1.259,0-2.442-0.49-3.333-1.381c-0.956-0.955-1.403-2.222-1.365-3.476
		c1.176-0.291,3.12-0.926,4.948-2.213h2.538c0.329,0.423,0.971,1.178,1.886,1.978C14.685,18.407,14.252,19.773,13.236,20.789z"/>
	<path d="M29.214,33.324c-0.227-0.116-0.496-0.117-0.725-0.003c-2.059,1.039-4.649,1.035-6.701,0
		c-0.228-0.113-0.497-0.114-0.724,0.003c-3.239,1.656-5.398,5.126-5.634,9.056c-0.019,0.305,0.138,0.593,0.403,0.743
		c2.822,1.602,6.041,2.448,9.31,2.448c3.263,0,6.479-0.847,9.301-2.448c0.266-0.15,0.422-0.438,0.404-0.743
		C34.612,38.45,32.453,34.979,29.214,33.324z M17.07,41.976c0.329-3.02,1.968-5.655,4.383-7.044c2.297,1.021,5.065,1.024,7.372,0
		c2.415,1.389,4.055,4.024,4.384,7.044C28.262,44.592,22.009,44.589,17.07,41.976z"/>
	<path d="M17.168,22.495h-0.012c-0.442,0-0.8,0.358-0.8,0.8s0.358,0.8,0.8,0.8h1.394c0.107,1.327,0.18,4.808-1.777,6.292
		c-0.274,0.208-0.384,0.567-0.275,0.893c0.109,0.326,0.415,0.545,0.758,0.545h4.579c1.01,0.621,2.155,0.938,3.304,0.938
		c1.148,0,2.293-0.317,3.303-0.938h4.965c0.344,0,0.648-0.219,0.758-0.545c0.11-0.325-0.001-0.685-0.274-0.893
		c-1.212-0.919-1.645-2.605-1.774-4.071c0.009-0.048,0.03-0.092,0.03-0.142v-2.08h1.004c0.441,0,0.8-0.358,0.8-0.8
		s-0.358-0.8-0.8-0.8h-0.04c-0.126-3.067-2-5.695-4.643-6.921l0.053-0.273c0.077-0.393-0.149-0.783-0.529-0.911
		c-1.794-0.606-3.79-0.62-5.594-0.037c-0.382,0.124-0.614,0.512-0.541,0.907l0.05,0.268C19.212,16.734,17.296,19.391,17.168,22.495z
		 M22.548,18.985c0.081,0.434,0.498,0.722,0.933,0.641c0.434-0.081,0.721-0.498,0.641-0.933l-0.556-3.001
		c1.062-0.232,2.189-0.226,3.246,0.022l-0.581,2.972c-0.085,0.434,0.198,0.854,0.632,0.938c0.052,0.01,0.104,0.015,0.154,0.015
		c0.375,0,0.71-0.265,0.784-0.647l0.352-1.799c1.912,1.032,3.241,3.013,3.359,5.302H18.769c0.119-2.32,1.486-4.321,3.44-5.341
		L22.548,18.985z M21.807,29.785c-0.89-0.891-1.38-2.073-1.38-3.333c0-0.844,0.238-1.646,0.652-2.357h3.393
		c0.626,0.562,2.429,1.966,5.356,2.624c-0.065,1.158-0.529,2.24-1.355,3.066C26.635,31.623,23.645,31.623,21.807,29.785z"/>
	<path d="M44.672,24.327c-0.228-0.116-0.496-0.117-0.725-0.002c-2.06,1.038-4.649,1.033-6.7,0c-0.229-0.115-0.498-0.114-0.725,0.002
		c-1.006,0.514-1.922,1.212-2.721,2.075c-0.3,0.324-0.281,0.83,0.043,1.131c0.324,0.3,0.83,0.28,1.131-0.043
		c0.579-0.626,1.229-1.146,1.936-1.554c2.296,1.021,5.066,1.024,7.372,0c2.416,1.389,4.055,4.024,4.383,7.044
		c-4.293,2.27-9.56,2.604-14.095,0.915c-0.417-0.152-0.875,0.057-1.029,0.471s0.057,0.875,0.471,1.029
		c2.104,0.783,4.321,1.18,6.589,1.18c3.264,0,6.479-0.847,9.3-2.448c0.266-0.15,0.422-0.438,0.404-0.743
		C50.07,29.454,47.911,25.984,44.672,24.327z"/>
	<path d="M32.614,15.099h0.783c-0.088,0.849-0.058,2.313,0.962,3.283c0.195,1.334,0.804,2.567,1.775,3.538
		c1.23,1.23,2.847,1.846,4.464,1.846c1.616,0,3.233-0.615,4.464-1.846c0.971-0.971,1.579-2.204,1.775-3.538
		c1.02-0.97,1.049-2.434,0.962-3.283h0.811c0.441,0,0.8-0.358,0.8-0.8s-0.358-0.8-0.8-0.8h-0.04c-0.126-3.067-2-5.695-4.643-6.921
		l0.053-0.273c0.077-0.393-0.149-0.783-0.529-0.911c-1.793-0.607-3.788-0.619-5.594-0.037c-0.382,0.124-0.613,0.512-0.54,0.907
		l0.05,0.268c-2.695,1.206-4.613,3.863-4.74,6.967h-0.012c-0.441,0-0.8,0.358-0.8,0.8S32.173,15.099,32.614,15.099z M38.007,9.989
		c0.08,0.435,0.504,0.721,0.932,0.641c0.435-0.081,0.722-0.498,0.641-0.933l-0.556-3.001c1.063-0.232,2.188-0.226,3.245,0.022
		L41.688,9.69c-0.085,0.434,0.198,0.854,0.632,0.938c0.052,0.01,0.104,0.015,0.154,0.015c0.375,0,0.71-0.265,0.784-0.647
		l0.352-1.799c1.912,1.032,3.241,3.013,3.359,5.302H34.227c0.119-2.32,1.487-4.321,3.441-5.341L38.007,9.989z M43.931,20.788
		c-1.838,1.838-4.828,1.838-6.666,0c-0.655-0.656-1.09-1.471-1.276-2.358l0.27-0.056c0.252-0.052,0.462-0.223,0.567-0.458
		c0.104-0.235,0.09-0.507-0.039-0.729c-0.008-0.014-0.736-1.311-0.199-2.088h8.019c0.537,0.777-0.19,2.074-0.197,2.085
		c-0.131,0.223-0.146,0.495-0.042,0.73c0.104,0.236,0.316,0.407,0.569,0.459l0.269,0.056C45.021,19.317,44.586,20.133,43.931,20.788
		z"/>
</g>
</svg>
