<svg id="Layer_1" data-name="Layer 1" xmlns="http://www.w3.org/2000/svg" viewBox="0 0 50.46 50.46"><defs><style>.cls-1{fill:#12b5e1;}</style></defs><title>gente de campo</title><path class="cls-1" d="M30,17a6.37,6.37,0,0,0-4.74-2h0a6.37,6.37,0,0,0-4.74,2c-3.34,3.45-3.23,9.3-3.2,10.05a1.62,1.62,0,0,0,1.62,1.57H19a1.63,1.63,0,0,0,1.57-1.67,18.84,18.84,0,0,1,.79-5.77l0,6.79s-4.2,7.24,0,14.47l0,.81c-.82.44-1.59,1.11-1.59,1.66s2.1.29,3.1.29,1.79.11,1.79-1c0-.14-.05-1.63-.05-1.63a24,24,0,0,0,.64-6,25.44,25.44,0,0,0,.69,6s-.12,1.49-.12,1.7c0,1.16.8,1,1.79,1s3.09.19,3.09-.29-.71-1.17-1.51-1.62l.07-.85c4.19-7.23,0-14.47,0-14.47l-.08-6.78a19.43,19.43,0,0,1,.79,5.76,1.63,1.63,0,0,0,1.58,1.67h.05A1.62,1.62,0,0,0,33.19,27C33.22,26.25,33.33,20.4,30,17Z"/><path class="cls-1" d="M21.28,10.39s0,.06,0,.09a4,4,0,0,0,7.92,0s0-.07,0-.1c.92-.3,1.49-.69,1.49-1.13s-.68-.9-1.75-1.2l-.74-2.18a.87.87,0,0,0-.83-.6H23.07a.88.88,0,0,0-.84.6l-.74,2.18c-1.07.3-1.75.73-1.75,1.2S20.33,10.1,21.28,10.39Z"/><path class="cls-1" d="M27.94,14.55h0s0,0,0,0h0s0,0,0,0,.34.32,1.44,1.23a3.89,3.89,0,0,0,3.39.9c-.7-2.3-3.54-2.27-4.51-2.19l1.54-.33a3.91,3.91,0,0,0,2.79-2.13C29.93,11,28,14.39,27.94,14.55Z"/></svg>