<svg id="Layer_1" data-name="Layer 1" xmlns="http://www.w3.org/2000/svg" viewBox="0 0 50.46 50.46"><defs><style>.cls-1{fill:#12b5e1;}</style></defs><title>geolocalizacion automotores</title><path class="cls-1" d="M27.13,5.79A7.69,7.69,0,0,0,21.53,8a7.51,7.51,0,0,0-2.27,5.38c0,5.61,6.74,14.05,7,14.4l.44.54.45-.52c.31-.36,7.56-8.85,7.56-14.18A7.74,7.74,0,0,0,27.13,5.79ZM27,18.1a4.62,4.62,0,1,1,4.62-4.62A4.62,4.62,0,0,1,27,18.1Z"/><circle class="cls-1" cx="27" cy="13.48" r="1.77"/><path class="cls-1" d="M36.08,36.56a3.09,3.09,0,0,1-1.75-1.71c-.8-2.35-2.84-5.28-8-5-5.62.35-6.95,5-9.5,5.83-5,1.74-3.36,6.67-3.36,6.67H15a3.4,3.4,0,0,0,.81,1.27,3.43,3.43,0,0,0,4.88,0,3.4,3.4,0,0,0,.81-1.27h6.69A3.4,3.4,0,0,0,29,43.66a3.43,3.43,0,0,0,4.88,0,3.23,3.23,0,0,0,.84-1.37h2.5v-4A1.94,1.94,0,0,0,36.08,36.56ZM19.5,42.44a1.65,1.65,0,0,1-1.21.51,1.74,1.74,0,0,1-1.73-1.73A1.65,1.65,0,0,1,17.07,40a1.7,1.7,0,0,1,1.22-.52A1.78,1.78,0,0,1,20,41.22,1.7,1.7,0,0,1,19.5,42.44Zm6.82-6.36-6.74.05c2.08-2.4,3.8-4.35,6.74-4.55Zm6.37,6.36a1.65,1.65,0,0,1-1.21.51,1.74,1.74,0,0,1-1.73-1.73A1.65,1.65,0,0,1,30.26,40a1.7,1.7,0,0,1,1.22-.52,1.66,1.66,0,0,1,1.21.52,1.62,1.62,0,0,1,.52,1.21A1.66,1.66,0,0,1,32.69,42.44Zm-5.35-6.37V31.58A5.39,5.39,0,0,1,32.74,36Z"/></svg>