<svg id="Layer_1" data-name="Layer 1" xmlns="http://www.w3.org/2000/svg" viewBox="0 0 50.46 50.46"><defs><style>.cls-1{fill:#12b5e1;}</style></defs><title>glaciar 2</title><path class="cls-1" d="M48.64,36.86l-6-16.62a.81.81,0,0,0-.36-.43l-6.15-3.47L32.8,9.9v0a.82.82,0,0,0-.19-.22L29.71,7.13A.92.92,0,0,0,29.42,7l-.09,0a.84.84,0,0,0-.5.06h0l-.07,0-4,2.42L24.4,7.88v0l-.1-.44a.8.8,0,0,0-.45-.56.81.81,0,0,0-.71,0L17.32,10a.82.82,0,0,0-.37.43l-2.73,7.38L9.37,20a.82.82,0,0,0-.41.41L1.83,36.79a.81.81,0,0,0,.74,1.12l2.79,0L3.31,42.56A.8.8,0,0,0,4,43.69H46.18a.79.79,0,0,0,.65-.33.83.83,0,0,0,.11-.73l-1.61-4.71h2.56a.78.78,0,0,0,.65-.34A.76.76,0,0,0,48.64,36.86ZM29.64,9.2l1.56,1.36L27.55,26.45l-.82-5.05ZM28,9.4l-1.88,7.88-1-6.15ZM3.79,36.31l6.52-15,3.14-1.37L9.29,29l0,0L6.06,36.33Zm1.48,5.78,2.05-4.64h0l2.29-5.17L11,42.09Zm6.52-5.88-.95-6.71,2.08-4.56ZM17,42.09H12.81L15,20.37l3.36-9.08L22.65,9Zm6.93,0H18.65l5-29.6,2.92,18.12Zm6.66,0h-5l2.59-11.25v0l3.89-16.91,1.49,6.65Zm1.62,0,2.14-15.66,2.14,15.66Zm4.4-11L35.18,20.42a.43.43,0,0,0,0-.11l-.95-4.25,2.43,4.64Zm1.6,11V22.44l.19.2,6.63,19.45Zm6.55-5.78-4.9-14.37a.84.84,0,0,0-.19-.31L38.09,20,37.53,19l3.74,2.11,5.48,15.26Z"/></svg>