<svg id="Layer_1" data-name="Layer 1" xmlns="http://www.w3.org/2000/svg" viewBox="0 0 50.46 50.46"><defs><style>.cls-1{fill:#65b4e1;}</style></defs><title>glaciar</title><path class="cls-1" d="M49,22.81a.66.66,0,0,0-.15-.23.73.73,0,0,0-.76-.15.92.92,0,0,0-.23.15.74.74,0,0,0-.2.5.68.68,0,0,0,.2.49.73.73,0,0,0,.23.16.8.8,0,0,0,.27,0,.85.85,0,0,0,.27,0,.76.76,0,0,0,.43-.65A.66.66,0,0,0,49,22.81Z"/><path class="cls-1" d="M46.26,22.38H45.4a.7.7,0,0,0,0,1.4h.86a.7.7,0,1,0,0-1.4Z"/><path class="cls-1" d="M43.6,22.38H41.11L37.54,14.8a.75.75,0,0,0-1.21-.15l-.67.76-4-6.67a1.13,1.13,0,0,0-1.85,0l-.95,1.37s-1.56-2.9-2.62-4.81a1.06,1.06,0,0,0-1.79,0l-2,3.42-.77-1.16a.6.6,0,0,0-1,.09l-2.22,5.53L17,12.43a.79.79,0,0,0-1.11.47L14.95,17l-2-.51a.94.94,0,0,0-1.15.57l-1.75,5.36H6.74a.7.7,0,0,0,0,1.4H9.92l1.79,9a.92.92,0,0,0,1.15.69l2-.63.95,4.94a.76.76,0,0,0,1.11.57l1.43-.82,2.22,6.72a.55.55,0,0,0,1,.11L22.33,43l2,4.15a1,1,0,0,0,1.79,0c1.06-2.32,2.62-5.85,2.62-5.85l.95,1.66a1,1,0,0,0,1.85-.06l4-8.1.67.92a.68.68,0,0,0,1.21-.18l3.83-11.72H43.6a.7.7,0,0,0,0-1.4ZM12.78,18.09l3,1.18.91-3.72,1.06,1.15.79.86,2-6.85,1.2,3L24.5,7.34,26,12.87l-.69-.61a1.11,1.11,0,0,0-1.74.36l-2.89,7.26a.55.55,0,0,0,.37.72.64.64,0,0,0,.79-.34l2.45-6.14,2.88,3.14L30.46,11l4.41,7.82,2.29-2.51,2.62,6.09H11.35Z"/><path class="cls-1" d="M5,22.38H4.12a.7.7,0,0,0,0,1.4H5a.7.7,0,0,0,0-1.4Z"/><path class="cls-1" d="M2.23,22.38h0a.7.7,0,0,0,0,1.4h0a.7.7,0,0,0,0-1.4Z"/></svg>