<svg id="Layer_1" data-name="Layer 1" xmlns="http://www.w3.org/2000/svg" viewBox="0 0 50.46 50.46"><defs><style>.cls-1{fill:#65b4e1;}</style></defs><title>globo terraqueo</title><path class="cls-1" d="M36.06,8.76A15.33,15.33,0,0,0,15.14,8l-2.88-2.9a.89.89,0,0,0-1.26,0,.9.9,0,0,0,0,1.27L13.86,9.3a15.32,15.32,0,0,0,21,22.14h0l.49-.42,1.43,1.43A16.82,16.82,0,0,1,23.2,37.37a.45.45,0,0,0-.49.45v2.94H19.94a3.46,3.46,0,0,0-3.06,1.85h0a3.49,3.49,0,0,0-.19.42v0l-.07.2v0c0,.07,0,.14-.05.21h-.18a3.46,3.46,0,0,0-3,1.8h0a3.49,3.49,0,0,0-.19.41v0l-.07.2v0l-.06.21H34.21c0-.07,0-.14-.06-.21v0l-.07-.2v0a3.47,3.47,0,0,0-3.22-2.22h-.18c0-.07,0-.14-.05-.21v0L30.52,43h0a3.47,3.47,0,0,0-3.25-2.27H24.49V39.24a18.58,18.58,0,0,0,13.6-5.52l.63.63a.89.89,0,0,0,1.26,0,.9.9,0,0,0,0-1.27l-3.33-3.32.42-.49h0A15.35,15.35,0,0,0,36.06,8.76Zm2.18,7.13-3,3a26.06,26.06,0,0,0-3.47-4.58l3.6-3.59A13.53,13.53,0,0,1,38.24,15.89ZM28.94,6.56A13.53,13.53,0,0,1,34.15,9.4L30.55,13A26.13,26.13,0,0,0,26,9.51Zm-2.11-.42L24.33,8.63A14.72,14.72,0,0,0,19.7,7.22,13.59,13.59,0,0,1,26.82,6.14Zm-1.4,12-.19.19-4-4,.1-.1,3.35-3.34a24.29,24.29,0,0,1,4.63,3.43Zm5.12-2.58A23.84,23.84,0,0,1,34,20.16l-3.13,3.13-.31.31-4-4,.22-.22ZM23,10l-3,2.94L20,13,16.8,9.83l-.1-.07-.31-.31C17.94,8.6,20.35,8.84,23,10ZM12.9,14a14.72,14.72,0,0,0,1.4,4.64L11.8,21.13A13.59,13.59,0,0,1,12.9,14Zm-.68,9.24,3-3a26.13,26.13,0,0,0,3.47,4.58L15,28.46A13.53,13.53,0,0,1,12.22,23.24Zm9.31,9.33a13.53,13.53,0,0,1-5.22-2.84l3.6-3.59a26.06,26.06,0,0,0,4.57,3.48Zm2.11.43,2.5-2.49a14.51,14.51,0,0,0,4.64,1.41A13.66,13.66,0,0,1,23.63,33Zm10.42-3.3-.39.18,0,0h0c-1.55.58-3.73.28-6.1-.76l3-3Zm-4.81-4.82-.31.31L25.8,28.3a23.84,23.84,0,0,1-4.63-3.43L25,21.05l.22-.22ZM24,19.57l-.19.19-3.86,3.85A24.29,24.29,0,0,1,16.49,19l3.35-3.34.1-.1ZM15.44,11l.07.1,3.16,3.17-.07.07-3,2.94c-1.14-2.63-1.38-5-.52-6.59ZM35.55,27.95v0l0,0a3.54,3.54,0,0,1-.18.39l-3.55-3.56,3-3C35.84,24.22,36.14,26.4,35.55,27.95Zm2-2.82a14.51,14.51,0,0,0-1.4-4.64L38.66,18A13.66,13.66,0,0,1,37.57,25.13Z"/></svg>