<?xml version="1.0" encoding="utf-8"?>
<!-- Generator: Adobe Illustrator 24.0.1, SVG Export Plug-In . SVG Version: 6.00 Build 0)  -->
<!DOCTYPE svg PUBLIC "-//W3C//DTD SVG 1.1//EN" "http://www.w3.org/Graphics/SVG/1.1/DTD/svg11.dtd" [
	<!ENTITY ns_extend "http://ns.adobe.com/Extensibility/1.0/">
	<!ENTITY ns_ai "http://ns.adobe.com/AdobeIllustrator/10.0/">
	<!ENTITY ns_graphs "http://ns.adobe.com/Graphs/1.0/">
	<!ENTITY ns_vars "http://ns.adobe.com/Variables/1.0/">
	<!ENTITY ns_imrep "http://ns.adobe.com/ImageReplacement/1.0/">
	<!ENTITY ns_sfw "http://ns.adobe.com/SaveForWeb/1.0/">
	<!ENTITY ns_custom "http://ns.adobe.com/GenericCustomNamespace/1.0/">
	<!ENTITY ns_adobe_xpath "http://ns.adobe.com/XPath/1.0/">
]>
<svg version="1.1" id="Layer_1" xmlns:x="&ns_extend;" xmlns:i="&ns_ai;" xmlns:graph="&ns_graphs;"
	 xmlns="http://www.w3.org/2000/svg" xmlns:xlink="http://www.w3.org/1999/xlink" x="0px" y="0px" viewBox="0 0 50.5 50.5"
	 enable-background="new 0 0 50.5 50.5" xml:space="preserve">
<metadata>
	<sfw  xmlns="&ns_sfw;">
		<slices></slices>
		<sliceSourceBounds  bottomLeftOrigin="true" height="19.644" width="45.905" x="2.297" y="15.428"></sliceSourceBounds>
	</sfw>
</metadata>
<g>
	<g>
		<path d="M8.881,20.504v3.987c-0.68,0.113-1.327,0.17-1.943,0.17c-1.484,0-2.597-0.345-3.336-1.036
			c-0.74-0.691-1.11-1.764-1.11-3.218c-0.004-1.462,0.367-2.547,1.112-3.255c0.746-0.708,1.809-1.062,3.188-1.062
			c0.634,0,1.263,0.079,1.886,0.237v1.02C8.085,17.19,7.486,17.11,6.881,17.11c-0.688,0-1.262,0.109-1.725,0.328
			c-0.463,0.22-0.814,0.571-1.054,1.057c-0.24,0.485-0.359,1.125-0.359,1.918c0,0.759,0.114,1.376,0.345,1.853
			c0.23,0.476,0.574,0.825,1.031,1.048s1.035,0.334,1.733,0.334c0.31,0,0.612-0.015,0.906-0.045v-3.099H8.881z"/>
		<path d="M10.907,23.905c-0.481-0.526-0.723-1.324-0.723-2.394c0-1.072,0.239-1.872,0.717-2.399c0.478-0.526,1.15-0.79,2.02-0.79
			c0.868,0,1.542,0.263,2.02,0.787c0.478,0.525,0.717,1.324,0.717,2.396c0,1.065-0.241,1.863-0.723,2.394
			c-0.481,0.531-1.152,0.796-2.014,0.796S11.388,24.433,10.907,23.905z M14.071,23.251c0.26-0.344,0.391-0.92,0.391-1.728
			c0-0.823-0.131-1.408-0.391-1.754c-0.261-0.346-0.645-0.519-1.15-0.519c-0.502,0-0.884,0.172-1.145,0.513
			c-0.261,0.343-0.391,0.919-0.391,1.731c0,0.823,0.129,1.407,0.388,1.753s0.642,0.519,1.147,0.519S13.81,23.595,14.071,23.251z"/>
		<path d="M17.906,24.613c-0.359-0.051-0.689-0.125-0.991-0.224v-8.962h1.178v3.62h0.062c0.188-0.227,0.427-0.404,0.714-0.533
			c0.287-0.128,0.606-0.192,0.957-0.192c0.453,0,0.856,0.105,1.21,0.317c0.353,0.212,0.635,0.545,0.844,1
			c0.21,0.455,0.314,1.036,0.314,1.742c0,1.099-0.27,1.925-0.81,2.479c-0.54,0.553-1.343,0.829-2.408,0.829
			C18.622,24.69,18.264,24.664,17.906,24.613z M20.517,23.22c0.321-0.36,0.481-0.939,0.481-1.736c0-0.793-0.137-1.352-0.41-1.677
			c-0.274-0.325-0.66-0.487-1.159-0.487c-0.261,0-0.508,0.05-0.742,0.15c-0.233,0.1-0.432,0.25-0.595,0.45v3.716
			c0.313,0.084,0.635,0.125,0.963,0.125C19.709,23.761,20.196,23.58,20.517,23.22z"/>
		<path d="M23.469,17.042c-0.133-0.117-0.198-0.285-0.198-0.504s0.065-0.389,0.198-0.51c0.132-0.121,0.324-0.182,0.577-0.182
			s0.446,0.061,0.578,0.182c0.132,0.121,0.198,0.291,0.198,0.51s-0.066,0.387-0.198,0.504s-0.325,0.176-0.578,0.176
			S23.601,17.159,23.469,17.042z M23.452,24.582v-6.163h1.185v6.163H23.452z"/>
		<path d="M30.993,21.869h-3.875c0.015,0.46,0.096,0.829,0.24,1.104c0.146,0.275,0.362,0.476,0.649,0.601
			c0.287,0.124,0.662,0.187,1.127,0.187c0.442,0,0.957-0.077,1.547-0.232v0.93c-0.597,0.158-1.161,0.237-1.694,0.237
			c-1.038,0-1.809-0.255-2.312-0.765c-0.502-0.51-0.753-1.321-0.753-2.436c0-1.043,0.228-1.832,0.683-2.368s1.096-0.805,1.923-0.805
			c0.801,0,1.412,0.268,1.833,0.802s0.632,1.336,0.632,2.405V21.869z M27.489,19.594c-0.236,0.309-0.361,0.817-0.377,1.527h2.771
			c-0.016-0.71-0.136-1.219-0.36-1.527c-0.225-0.308-0.56-0.461-1.005-0.461C28.067,19.133,27.725,19.286,27.489,19.594z"/>
		<path d="M32.199,18.419h0.98l0.09,0.821h0.068c0.192-0.291,0.443-0.512,0.753-0.663c0.311-0.15,0.643-0.227,0.997-0.227
			c0.17,0,0.337,0.016,0.499,0.046v1.082c-0.17-0.026-0.357-0.04-0.561-0.04c-0.311,0-0.617,0.068-0.921,0.204
			s-0.547,0.328-0.728,0.577v4.362h-1.179V18.419z"/>
		<path d="M36.454,18.419h0.985l0.085,0.68h0.062c0.245-0.249,0.531-0.441,0.858-0.575c0.326-0.134,0.673-0.201,1.039-0.201
			c0.627,0,1.12,0.181,1.479,0.541c0.358,0.36,0.538,0.932,0.538,1.714v4.005h-1.179V20.64c0-0.457-0.099-0.785-0.298-0.983
			c-0.198-0.198-0.485-0.297-0.863-0.297c-0.276,0-0.553,0.06-0.83,0.178c-0.277,0.119-0.511,0.3-0.699,0.541v4.504h-1.179V18.419z"
			/>
		<path d="M43.453,23.905c-0.482-0.526-0.723-1.324-0.723-2.394c0-1.072,0.238-1.872,0.717-2.399c0.478-0.526,1.15-0.79,2.02-0.79
			c0.868,0,1.542,0.263,2.02,0.787c0.478,0.525,0.717,1.324,0.717,2.396c0,1.065-0.241,1.863-0.723,2.394
			c-0.481,0.531-1.152,0.796-2.014,0.796S43.934,24.433,43.453,23.905z M46.616,23.251c0.261-0.344,0.392-0.92,0.392-1.728
			c0-0.823-0.131-1.408-0.392-1.754c-0.26-0.346-0.644-0.519-1.149-0.519c-0.503,0-0.884,0.172-1.145,0.513
			c-0.261,0.343-0.391,0.919-0.391,1.731c0,0.823,0.129,1.407,0.388,1.753s0.641,0.519,1.147,0.519
			C45.972,23.767,46.356,23.595,46.616,23.251z"/>
	</g>
	<g>
		<path d="M8.438,34.956l-0.674-2.183H4.73l-0.675,2.183H2.297l2.642-8.181h2.632l2.642,8.181H8.438z M5.166,31.341h2.156
			l-1.079-3.487L5.166,31.341z"/>
		<path d="M12.071,34.981c-0.41-0.057-0.783-0.141-1.122-0.252v-8.705h1.768v3.471h0.083c0.177-0.218,0.398-0.385,0.664-0.503
			c0.265-0.118,0.565-0.177,0.9-0.177c0.438,0,0.835,0.107,1.188,0.321c0.354,0.213,0.636,0.544,0.846,0.992
			c0.21,0.448,0.315,1.008,0.315,1.683c0,1.073-0.285,1.883-0.855,2.433c-0.569,0.549-1.423,0.823-2.561,0.823
			C12.888,35.066,12.479,35.038,12.071,34.981z M14.563,33.308c0.247-0.28,0.371-0.733,0.371-1.36c0-0.622-0.107-1.061-0.318-1.312
			c-0.212-0.253-0.518-0.379-0.92-0.379c-0.188,0-0.368,0.03-0.538,0.091c-0.172,0.061-0.318,0.152-0.44,0.273v3.018
			c0.221,0.059,0.459,0.089,0.714,0.089C13.938,33.729,14.316,33.589,14.563,33.308z"/>
		<path d="M17.767,27.792c-0.183-0.158-0.273-0.385-0.273-0.68c0-0.298,0.09-0.527,0.271-0.685c0.18-0.158,0.455-0.237,0.823-0.237
			c0.365,0,0.637,0.079,0.818,0.237c0.18,0.158,0.271,0.387,0.271,0.685c0,0.295-0.091,0.522-0.271,0.68
			c-0.181,0.158-0.454,0.237-0.818,0.237C18.222,28.03,17.949,27.951,17.767,27.792z M17.703,34.956v-6.047h1.768v6.047H17.703z"/>
		<path d="M25.95,32.446h-3.67c0.018,0.325,0.088,0.58,0.207,0.766c0.12,0.186,0.307,0.32,0.561,0.403s0.601,0.125,1.04,0.125
			c0.46,0,0.969-0.065,1.525-0.193v1.321c-0.59,0.136-1.182,0.205-1.774,0.205c-0.771,0-1.4-0.11-1.888-0.329
			c-0.489-0.219-0.851-0.559-1.086-1.02c-0.236-0.46-0.354-1.059-0.354-1.796c0-0.663,0.11-1.228,0.329-1.694
			c0.219-0.466,0.538-0.818,0.959-1.059c0.42-0.239,0.929-0.359,1.525-0.359c0.855,0,1.506,0.27,1.954,0.81
			c0.448,0.54,0.672,1.325,0.672,2.357V32.446z M22.544,30.275c-0.17,0.228-0.259,0.612-0.271,1.149h2.029
			c-0.011-0.541-0.097-0.926-0.26-1.152c-0.162-0.227-0.409-0.34-0.74-0.34C22.966,29.932,22.714,30.046,22.544,30.275z"/>
		<path d="M26.922,28.909h1.443l0.138,0.779h0.083c0.166-0.292,0.387-0.508,0.664-0.65c0.276-0.142,0.589-0.212,0.94-0.212
			c0.176,0,0.338,0.014,0.486,0.044v1.598c-0.162-0.033-0.361-0.051-0.596-0.051c-0.27,0-0.533,0.052-0.791,0.155
			c-0.258,0.103-0.456,0.245-0.596,0.425v3.958h-1.769V28.909z"/>
		<path d="M35.385,33.541v1.399c-0.372,0.085-0.744,0.127-1.117,0.127c-0.744,0-1.309-0.184-1.694-0.553
			c-0.385-0.369-0.577-0.939-0.577-1.713v-2.498h-0.983v-1.393h0.983l0.321-2.134h1.448v2.134h1.586v1.393h-1.586v2.222
			c0,0.273,0.033,0.488,0.102,0.646c0.068,0.159,0.173,0.273,0.314,0.34c0.142,0.069,0.332,0.102,0.567,0.102
			C34.904,33.612,35.116,33.589,35.385,33.541z"/>
		<path d="M37.267,34.723c-0.44-0.232-0.779-0.581-1.018-1.047c-0.237-0.466-0.356-1.041-0.356-1.728
			c0-1.039,0.256-1.821,0.769-2.346c0.512-0.525,1.24-0.788,2.183-0.788c0.939,0,1.667,0.264,2.181,0.791
			c0.514,0.527,0.771,1.304,0.771,2.333c0,0.689-0.119,1.267-0.356,1.735c-0.238,0.468-0.577,0.818-1.018,1.05
			c-0.44,0.232-0.966,0.349-1.578,0.349S37.708,34.956,37.267,34.723z M39.492,33.563c0.17-0.111,0.299-0.295,0.39-0.556
			c0.09-0.26,0.135-0.611,0.135-1.053c0-0.45-0.046-0.807-0.135-1.072c-0.091-0.266-0.221-0.454-0.393-0.564
			s-0.386-0.166-0.644-0.166s-0.473,0.055-0.644,0.166c-0.172,0.111-0.302,0.295-0.393,0.556c-0.09,0.26-0.135,0.613-0.135,1.059
			c0,0.45,0.046,0.806,0.135,1.069c0.091,0.264,0.22,0.451,0.39,0.561c0.17,0.111,0.385,0.166,0.647,0.166
			S39.323,33.673,39.492,33.563z"/>
	</g>
</g>
</svg>
