<svg id="Layer_1" data-name="Layer 1" xmlns="http://www.w3.org/2000/svg" viewBox="0 0 50.46 50.46"><defs><style>.cls-1{fill:#12b5e1;}</style></defs><title>gratis</title><path class="cls-1" d="M47.85,24.87a.93.93,0,0,0-1.18-.54,2.89,2.89,0,1,1-2-5.42.92.92,0,0,0,.53-1.18l-1.82-4.85a4,4,0,0,0-3.81-2.56,3.21,3.21,0,0,1,.74-.78.9.9,0,0,0,.21-1.27l-3-4.22A4,4,0,0,0,32,3.12L2.68,23.85a3.62,3.62,0,0,0-.42.36,4,4,0,0,0-1.41,4.6l1.82,4.85a.91.91,0,0,0,1.18.54,2.9,2.9,0,1,1,2,5.43.9.9,0,0,0-.53,1.17l1.81,4.86A4,4,0,0,0,12.27,48L47.35,34.83a4,4,0,0,0,2.32-5.11ZM33,4.61a2.13,2.13,0,0,1,3,.5l2.54,3.55a4.61,4.61,0,0,0-1.15,2.22L9.29,21.41Zm13.69,28.5-4.27,1.6-1-2.66a.91.91,0,1,0-1.71.64l1,2.66L11.63,46.26A2.12,2.12,0,0,1,8.88,45L7.35,40.93a4.72,4.72,0,0,0-3.26-8.68L2.56,28.17a2.14,2.14,0,0,1,1.25-2.75l29.1-10.91,4.2,11.19a.91.91,0,1,0,1.71-.65L34.63,13.87l4.26-1.6a2.14,2.14,0,0,1,2.75,1.25l1.53,4.08a4.72,4.72,0,0,0,3.26,8.68L48,30.36A2.13,2.13,0,0,1,46.71,33.11Z"/><path class="cls-1" d="M14,32.44,13,29.93a5.22,5.22,0,0,1,1.56.07.76.76,0,1,0,.27-1.5,5.07,5.07,0,0,0-2.29,0l-.11-.29a.6.6,0,0,0-.77-.35.61.61,0,0,0-.37.78l.1.27c-1.58.75-2.33,2.13-1.8,3.53s1.71,1.86,3.8,1.64l1,2.57a4.84,4.84,0,0,1-2.26-.15.79.79,0,0,0-.48,0A.77.77,0,0,0,11.78,38a6,6,0,0,0,3.06,0l.3.81a.62.62,0,0,0,.79.35.6.6,0,0,0,.35-.78l-.3-.78c1.6-.78,2.37-2.15,1.83-3.59S16.14,32.19,14,32.44Zm-2.85-.63c-.21-.58,0-1.18.85-1.57l.86,2.31C11.7,32.6,11.33,32.36,11.12,31.81Zm4.32,4.55L14.54,34c1.13-.06,1.55.18,1.76.76S16.24,36,15.44,36.36Z"/><path class="cls-1" d="M39.11,28.43a.93.93,0,0,0-.54,1.18l.13.34a.91.91,0,1,0,1.71-.65L40.29,29A.91.91,0,0,0,39.11,28.43Z"/><path class="cls-1" d="M25.61,29.1C24.43,26,22,24,19.8,24.83S17,28.77,18.21,31.91v0C19.4,35.08,21.8,37,24,36.2s2.76-3.93,1.59-7.07ZM23.4,34.45c-1.32.5-2.83-1-3.65-3.12v0c-.82-2.18-.62-4.22.69-4.71s2.83.95,3.65,3.12v0C24.89,31.89,24.73,34,23.4,34.45Z"/><path class="cls-1" d="M29.35,24.67c-.65-1.74-2-2.68-3.1-2.25s-1.52,2-.87,3.75v0c.65,1.73,2,2.68,3.1,2.25S30,26.42,29.35,24.67Zm-3,1.12c-.41-1.1-.29-2.05.29-2.27S28,24,28.38,25.05v0c.41,1.09.29,2-.29,2.26S26.78,26.91,26.36,25.79Z"/><path class="cls-1" d="M30.52,20.82c-1.16.43-1.52,2-.87,3.75v0c.65,1.73,1.95,2.68,3.1,2.25s1.52-2,.86-3.77S31.67,20.39,30.52,20.82Zm2.13,2.65c.41,1.09.29,2-.29,2.26s-1.31-.42-1.73-1.54-.29-2.05.29-2.26,1.32.43,1.73,1.52Z"/><path class="cls-1" d="M33.45,27.31l-5.2,2a.61.61,0,0,0,.43,1.14l5.2-1.95a.61.61,0,0,0-.43-1.14Z"/></svg>