<?xml version="1.0" encoding="utf-8"?>
<!-- Generator: Adobe Illustrator 24.2.1, SVG Export Plug-In . SVG Version: 6.00 Build 0)  -->
<svg version="1.1" id="Layer_1" xmlns="http://www.w3.org/2000/svg" xmlns:xlink="http://www.w3.org/1999/xlink" x="0px" y="0px"
	 viewBox="0 0 50.46 50.46" style="enable-background:new 0 0 50.46 50.46;" xml:space="preserve">
<path d="M10.003,32.87h30.44c1.287,0,2.33-1.043,2.33-2.33V9.27c0-1.287-1.043-2.33-2.33-2.33h-30.44
	c-1.279,0.011-2.31,1.051-2.31,2.33v21.27C7.693,31.819,8.724,32.859,10.003,32.87z M9.673,9.27c0-0.186,0.145-0.339,0.33-0.35
	h30.44c0.193,0,0.35,0.157,0.35,0.35v19.05H9.673V9.27z M45.793,42.28c-0.227,0.716-0.879,1.212-1.63,1.24H6.303
	c-0.745-0.025-1.396-0.512-1.63-1.22c-0.428-1.016-0.225-2.188,0.52-3l3.64-3.5c0.297-0.29,0.695-0.455,1.11-0.46h30.58
	c0.415,0.005,0.813,0.17,1.11,0.46l3.64,3.5C46.009,40.108,46.212,41.27,45.793,42.28z M26.737,12.088
	c-0.795-1.377-2.783-1.377-3.578,0L16.71,23.257c-0.795,1.377,0.199,3.099,1.789,3.099h12.897c1.59,0,2.584-1.721,1.789-3.099
	L26.737,12.088z M26.211,23.745c0,0.146-0.119,0.265-0.265,0.265H24.29c-0.146,0-0.265-0.119-0.265-0.265v-1.683
	c0-0.146,0.119-0.265,0.265-0.265h1.656c0.146,0,0.265,0.119,0.265,0.265V23.745z M26.086,20.354
	c-0.005,0.129-0.108,0.231-0.233,0.231h-1.47c-0.125,0-0.228-0.102-0.233-0.231l-0.189-4.556c-0.006-0.137,0.1-0.252,0.233-0.252
	h1.848c0.133,0,0.239,0.114,0.233,0.252L26.086,20.354z"/>
</svg>
