<svg id="Layer_1" data-name="Layer 1" xmlns="http://www.w3.org/2000/svg" viewBox="0 0 50.46 50.46"><defs><style>.cls-1{fill:#65b4e1;}</style></defs><title>habitat</title><circle class="cls-1" cx="24.84" cy="22.63" r="1.69"/><path class="cls-1" d="M49.63,21.64a6.83,6.83,0,1,0-7.44,6.79v7.2a3.51,3.51,0,0,0-.69,0,3.38,3.38,0,0,0-1.13.31,5.16,5.16,0,0,0-6.16-2.84c-.09,0-.17.07-.26.1V20.92a.83.83,0,0,0-.34-.66l-8.48-6.2a.81.81,0,0,0-1,0l-8.48,6.2a.82.82,0,0,0-.34.66V33a5.14,5.14,0,0,0-5.61,2.93,3.39,3.39,0,0,0-1.13-.31,3.48,3.48,0,0,0-.52,0V27.4H9.51a.52.52,0,0,0,.43-.23l.92-1.4,0,0c.1,0,.2,0,.31,0a3.19,3.19,0,1,0-1.35-.31l-.61.92H5.94l-.61-.92A3.14,3.14,0,1,0,4,25.76c.11,0,.2,0,.31,0l0,0,.92,1.4a.52.52,0,0,0,.43.23H7.07v8.44a3.47,3.47,0,0,0-2.3,3A3.85,3.85,0,0,0,4.86,40H3.71a.77.77,0,0,0,0,1.54h43a.77.77,0,1,0,0-1.54h-1.4a7.22,7.22,0,0,0,0-1.21,3.5,3.5,0,0,0-1.27-2.38,3.55,3.55,0,0,0-.66-.42V28.43A6.83,6.83,0,0,0,49.63,21.64Zm-40.57,1a2.13,2.13,0,1,1,2.13,2.13A2.13,2.13,0,0,1,9.06,22.6ZM4,24.72A2.13,2.13,0,1,1,6.12,22.6,2.13,2.13,0,0,1,4,24.72ZM15.36,40H5.92a2.85,2.85,0,0,1-.13-1.11,2.48,2.48,0,0,1,3.92-1.8l.57.4.21-.67A4.15,4.15,0,0,1,15.36,34Zm9.72,0h-.45c0-2,0-4.67,0-6.51h.44C25.11,35.34,25,38,25.08,40Zm7.24,0H27c-.09-3.3-.16-11.11-.15-12.23a6.12,6.12,0,0,1,.53,3.42c-.11,1.08,1.58,1.07,1.69,0,.26-2.53-.69-5.87-3.64-6.07a3.07,3.07,0,0,0-1.29,0c-2.81.33-3.72,3.58-3.46,6.06.11,1.07,1.8,1.08,1.69,0A6.45,6.45,0,0,1,22.79,28s0,8.62-.09,12H17V21.34l7.66-5.61,7.66,5.61Zm11.11-2.8a2.49,2.49,0,0,1,.9,1.69,5.67,5.67,0,0,1,0,1.11H34V34.3a4.09,4.09,0,0,1,.54-.22,4.16,4.16,0,0,1,5.13,2.76l.21.67.57-.4a2.45,2.45,0,0,1,1.19-.45A2.48,2.48,0,0,1,43.43,37.21ZM42.81,21a.61.61,0,0,0-.61.61v2.9A2,2,0,0,1,41,22.65a.61.61,0,1,0-1.23,0,3.21,3.21,0,0,0,2.44,3.18v1.56a5.79,5.79,0,1,1,1.23,0V25.83a3.21,3.21,0,0,0,2.44-3.18.61.61,0,1,0-1.23,0,2,2,0,0,1-1.22,1.89v-2.9A.61.61,0,0,0,42.81,21Z"/><path class="cls-1" d="M14.71,18.91h.14a.87.87,0,0,0,.52-.17l9.3-6.88,9.48,6.89a.91.91,0,0,0,1.23-.2.89.89,0,0,0-.2-1.23l-10-7.27a.87.87,0,0,0-1,0l-4.6,3.37V10.77a.88.88,0,1,0-1.76,0v4l-3.45,2.59a.89.89,0,0,0-.19,1.23A.87.87,0,0,0,14.71,18.91Z"/></svg>