<?xml version="1.0" encoding="utf-8"?>
<!-- Generator: Adobe Illustrator 24.2.1, SVG Export Plug-In . SVG Version: 6.00 Build 0)  -->
<svg version="1.1" id="Capa_1" xmlns="http://www.w3.org/2000/svg" xmlns:xlink="http://www.w3.org/1999/xlink" x="0px" y="0px"
	 viewBox="0 0 50.5 50.5" style="enable-background:new 0 0 50.5 50.5;" xml:space="preserve">
<g>
	<g>
		<path d="M34.223,27.165c-0.245,5.069-4.178,9.099-8.996,9.099s-8.751-4.031-8.996-9.099h3.173c0,3.366,2.606,6.096,5.823,6.096
			c3.216,0,5.823-2.73,5.823-6.096H34.223z"/>
	</g>
	<g>
		<path d="M39.74,43.571H25.273c-0.015,0-0.03,0-0.045,0H10.76c-0.754,0-1.366-0.612-1.366-1.366V29.832H5.745
			c-0.548,0-1.043-0.328-1.258-0.832c-0.214-0.505-0.106-1.088,0.275-1.483L24.245,7.346c0.257-0.267,0.612-0.417,0.983-0.417h0.045
			c0.371,0,0.725,0.151,0.983,0.417l19.482,20.171c0.381,0.394,0.489,0.978,0.275,1.483c-0.214,0.505-0.709,0.832-1.258,0.832
			h-3.649v12.373C41.106,42.96,40.494,43.571,39.74,43.571z M12.126,40.839h13.101c0.008,0,0.015,0,0.023,0c0.008,0,0.015,0,0.023,0
			h13.101V28.466c0-0.754,0.612-1.366,1.366-1.366h1.797L25.25,10.238L8.964,27.1h1.797c0.754,0,1.366,0.612,1.366,1.366V40.839z"/>
	</g>
</g>
</svg>
