<?xml version="1.0" encoding="utf-8"?>
<!-- Generator: Adobe Illustrator 24.2.1, SVG Export Plug-In . SVG Version: 6.00 Build 0)  -->
<svg version="1.1" id="Capa_1" xmlns="http://www.w3.org/2000/svg" xmlns:xlink="http://www.w3.org/1999/xlink" x="0px" y="0px"
	 viewBox="0 0 50.5 50.5" style="enable-background:new 0 0 50.5 50.5;" xml:space="preserve">
<g>
	<path d="M38.45,4.225h-26.4c-4.322,0-7.825,3.503-7.825,7.825v26.4c0,4.322,3.503,7.825,7.825,7.825h26.4
		c4.322,0,7.825-3.503,7.825-7.825v-26.4C46.275,7.729,42.771,4.225,38.45,4.225z M40.842,28.066
		c-0.161,0.379-0.533,0.625-0.944,0.625h-2.74v9.292c0,0.567-0.459,1.026-1.026,1.026H25.267c-0.011,0-0.023,0-0.034,0H14.369
		c-0.567,0-1.026-0.459-1.026-1.026v-9.292h-2.74c-0.412,0-0.784-0.246-0.944-0.625c-0.161-0.379-0.079-0.817,0.206-1.114
		l14.631-15.148c0.193-0.2,0.46-0.313,0.738-0.313h0.034c0.278,0,0.545,0.113,0.738,0.313l14.631,15.148
		C40.922,27.249,41.003,27.687,40.842,28.066z"/>
	<path d="M13.019,26.639h1.349c0.567,0,1.026,0.459,1.026,1.026v9.292h9.839c0.006,0,0.011,0,0.017,0c0.006,0,0.011,0,0.017,0h9.839
		v-9.292c0-0.567,0.459-1.026,1.026-1.026h1.349L25.25,13.976L13.019,26.639z M29.606,26.688h2.383
		c-0.184,3.807-3.137,6.833-6.756,6.833s-6.572-3.027-6.756-6.833h2.383c0,2.528,1.957,4.578,4.373,4.578
		C27.648,31.266,29.606,29.216,29.606,26.688z"/>
</g>
</svg>
