<?xml version="1.0" encoding="utf-8"?>
<!-- Generator: Adobe Illustrator 24.2.1, SVG Export Plug-In . SVG Version: 6.00 Build 0)  -->
<svg version="1.1" id="Capa_1" xmlns="http://www.w3.org/2000/svg" xmlns:xlink="http://www.w3.org/1999/xlink" x="0px" y="0px"
	 viewBox="0 0 50.5 50.5" style="enable-background:new 0 0 50.5 50.5;" xml:space="preserve">
<g>
	<g>
		<g>
			<g>
				<path d="M35.395,15.14L23.902,3.647c-0.416-0.416-1.128-0.121-1.128,0.467V23.96c0,0.317-0.226,0.59-0.537,0.649l-0.52,0.099
					l-8.64,1.642l-0.784,0.149c-0.312,0.059-0.537,0.332-0.537,0.649v19.239c0,0.365,0.296,0.661,0.661,0.661h9.697
					c0.365,0,0.661-0.296,0.661-0.661l0,0c0-0.365-0.296-0.661-0.661-0.661h-8.376c-0.365,0-0.661-0.296-0.661-0.661V27.742
					c0-0.317,0.226-0.59,0.537-0.649l8.376-1.592c0.407-0.077,0.784,0.235,0.784,0.649v10.829c0,0.414,0.377,0.726,0.784,0.649
					l0.537-0.102l4.697-0.893l0.784-0.149c0.312-0.059,0.537-0.332,0.537-0.649V23.91c0-0.414-0.377-0.726-0.784-0.649l-0.537,0.102
					v0.023h-0.059c-0.041,0-0.083,0.004-0.123,0.012l-3.73,0.709c-0.407,0.077-0.784-0.235-0.784-0.649V10.825
					c0-0.589,0.712-0.883,1.128-0.467l4.89,4.89l5.088,5.088c0.124,0.124,0.194,0.292,0.194,0.467v25.585
					c0,0.365,0.296,0.661,0.661,0.661h2.027c0.365,0,0.661-0.296,0.661-0.661V18.762c0-0.175-0.07-0.343-0.194-0.467L35.395,15.14z
					 M26.161,24.708l1.848-0.351c0.407-0.077,0.784,0.235,0.784,0.649v10.236c0,0.317-0.226,0.59-0.537,0.649l-3.376,0.642
					c-0.407,0.077-0.784-0.235-0.784-0.649V25.647c0-0.317,0.226-0.59,0.537-0.649L26.161,24.708z"/>
			</g>
		</g>
		<g>
			<g>
				<g>
					<path d="M26.989,17.043h-0.898c-0.3,0-0.542-0.243-0.542-0.542v-0.898c0-0.3,0.243-0.542,0.542-0.542h0.898
						c0.3,0,0.542,0.243,0.542,0.542v0.898C27.531,16.8,27.288,17.043,26.989,17.043z"/>
				</g>
			</g>
		</g>
		<g>
			<g>
				<g>
					<path d="M26.989,20.513h-0.898c-0.3,0-0.542-0.243-0.542-0.542v-0.898c0-0.3,0.243-0.542,0.542-0.542h0.898
						c0.3,0,0.542,0.243,0.542,0.542v0.898C27.531,20.27,27.288,20.513,26.989,20.513z"/>
				</g>
			</g>
		</g>
	</g>
</g>
</svg>
