<?xml version="1.0" encoding="utf-8"?>
<!-- Generator: Adobe Illustrator 24.2.1, SVG Export Plug-In . SVG Version: 6.00 Build 0)  -->
<svg version="1.1" id="Capa_1" xmlns="http://www.w3.org/2000/svg" xmlns:xlink="http://www.w3.org/1999/xlink" x="0px" y="0px"
	 viewBox="0 0 50.5 50.5" style="enable-background:new 0 0 50.5 50.5;" xml:space="preserve">
<g>
	<path d="M24.328,33.744c0,0.331,0.301,0.58,0.626,0.518l2.696-0.512c0.249-0.047,0.43-0.265,0.43-0.518v-8.177
		c0-0.331-0.301-0.58-0.626-0.518l-1.476,0.28l-1.22,0.232c-0.249,0.047-0.43,0.265-0.43,0.518v8.177H24.328z"/>
	<path d="M38.45,4.225h-26.4c-4.322,0-7.825,3.503-7.825,7.825v26.4c0,4.322,3.503,7.825,7.825,7.825h26.4
		c4.322,0,7.825-3.503,7.825-7.825v-26.4C46.275,7.729,42.771,4.225,38.45,4.225z M36.029,42.134c0,0.292-0.237,0.528-0.528,0.528
		h-1.619c-0.292,0-0.528-0.237-0.528-0.528V21.698c0-0.14-0.055-0.274-0.155-0.373l-4.064-4.064l-3.907-3.906
		c-0.332-0.332-0.9-0.096-0.9,0.373v10.091c0,0.331,0.301,0.58,0.626,0.518l2.98-0.566c0.032-0.006,0.065-0.009,0.099-0.009h0.047
		v-0.018l0.43-0.082c0.325-0.062,0.626,0.187,0.626,0.518v9.525c0,0.254-0.18,0.471-0.43,0.518l-0.626,0.119l-3.752,0.713
		l-0.43,0.082c-0.325,0.062-0.626-0.187-0.626-0.518v-8.65c0-0.331-0.301-0.58-0.626-0.518l-6.691,1.271
		c-0.249,0.047-0.43,0.265-0.43,0.518v13.838c0,0.292,0.237,0.527,0.528,0.527h6.691c0.292,0,0.528,0.237,0.528,0.528
		c0,0.292-0.237,0.528-0.528,0.528h-7.746c-0.292,0-0.528-0.237-0.528-0.528V26.766c0-0.254,0.18-0.471,0.43-0.518l0.626-0.118
		l6.902-1.311l0.416-0.079c0.249-0.047,0.43-0.265,0.43-0.518V8.367c0-0.47,0.568-0.705,0.9-0.373l9.18,9.18l2.521,2.521
		c0.099,0.099,0.155,0.233,0.155,0.373V42.134z M26.638,18.695h-0.717c-0.239,0-0.433-0.194-0.433-0.433v-0.718
		c0-0.239,0.194-0.433,0.433-0.433h0.717c0.239,0,0.433,0.194,0.433,0.433v0.717C27.073,18.501,26.879,18.695,26.638,18.695z
		 M27.073,20.316v0.717c0,0.239-0.194,0.433-0.433,0.433h-0.717c-0.239,0-0.433-0.194-0.433-0.433v-0.717
		c0-0.239,0.194-0.433,0.433-0.433h0.717C26.879,19.882,27.073,20.076,27.073,20.316z"/>
</g>
</svg>
