<?xml version="1.0" encoding="utf-8"?>
<!-- Generator: Adobe Illustrator 22.1.0, SVG Export Plug-In . SVG Version: 6.00 Build 0)  -->
<svg version="1.1" id="Layer_1" xmlns="http://www.w3.org/2000/svg" xmlns:xlink="http://www.w3.org/1999/xlink" x="0px" y="0px"
	 viewBox="0 0 50.5 50.5" style="enable-background:new 0 0 50.5 50.5;" xml:space="preserve">
<style type="text/css">
	.st0{fill:#12B5E1;}
</style>
<path class="st0" d="M43.7,25.2c1-1.1,1.8-2.4,2.4-3.8c0.7-1.6,1.2-3.9,1.1-5.7C47,11.8,44.9,8.2,41.8,6c-0.2-0.1-0.3-0.2-0.5-0.4
	c-0.1,0-0.1-0.1-0.2-0.1c-1.9-1.3-4.1-2-6.4-2.1c-1.8-0.1-4.1,0.4-5.7,1.1c-1.4,0.6-2.7,1.4-3.8,2.4c-1.1-1-2.4-1.8-3.8-2.4
	c-1.6-0.7-3.9-1.2-5.7-1.1c-3.1,0.1-6,1.5-8.2,3.5C7.4,7,7.3,7.1,7.2,7.2C7.1,7.3,7,7.4,6.9,7.5c-2.1,2.2-3.4,5.1-3.5,8.2
	c-0.1,1.8,0.4,4.1,1.1,5.7c0.6,1.4,1.4,2.7,2.4,3.8c-1,1.1-1.8,2.4-2.4,3.8c-0.7,1.6-1.2,3.9-1.1,5.7c0.1,2.7,1.1,5.2,2.7,7.2
	c0.1,0.2,0.2,0.3,0.4,0.5c0,0.1,0.1,0.1,0.1,0.2c2.3,2.6,5.5,4.4,9.1,4.5c1.8,0.1,4.1-0.4,5.7-1.1c1.4-0.6,2.7-1.4,3.8-2.4
	c1.1,1,2.4,1.8,3.8,2.4c1.6,0.7,3.9,1.2,5.7,1.1c3.1-0.1,5.9-1.4,8.1-3.4c2.5-2.3,4.1-5.4,4.3-8.9c0.1-1.8-0.4-4.1-1.1-5.7
	C45.5,27.6,44.7,26.3,43.7,25.2z M36.4,42.5c-2,0.5-4.1,0.3-5.9-0.6l0,0c-0.9-0.4-1.7-0.9-2.4-1.6c-0.1-0.1-0.1-0.1-0.2-0.2
	c1.2-2.3,1.6-5,1.2-8c-0.1-0.5-0.1-1-0.2-1.6c-0.4-1.7-1.4-2.4-2.3-2.6c-0.3-0.1-0.7-0.2-1.1-0.2c-0.1,0-0.4,0-0.5,0
	c-0.5,0-1,0.1-1.4,0.3c-0.8,0.3-1.6,1-2,2.5c0,0.1,0,0.2,0,0.3c-0.1,0.2-0.1,0.4-0.1,0.6c-0.6,3.3-0.1,6.3,1.1,8.7
	c-0.2,0.2-0.3,0.4-0.5,0.5c0,0,0,0,0,0c0,0,0,0,0,0c-0.6,0.5-1.2,0.9-1.9,1.2l0,0c-1.8,0.9-4,1.1-5.9,0.6c-2-0.5-3.7-1.7-4.9-3.3
	c0-0.1-0.1-0.1-0.1-0.2c0-0.1-0.1-0.1-0.1-0.2c-0.5-0.7-0.8-1.6-1.1-2.4c-0.5-2-0.3-4.1,0.6-5.9l0,0c0.3-0.7,0.7-1.3,1.1-1.9
	c0.2-0.2,0.4-0.5,0.6-0.7c2.3,1.2,5,1.6,8.1,1.2c0.5-0.1,1-0.1,1.5-0.2c1.4-0.4,2.1-1.1,2.5-1.9c0.2-0.4,0.3-0.9,0.3-1.5
	c0-0.1,0-0.4,0-0.5c0-0.7-0.2-1.3-0.5-1.7c-0.4-0.7-1.1-1.3-2.4-1.7c-0.1,0-0.2,0-0.3-0.1c-0.2,0-0.3-0.1-0.5-0.1
	c-3.3-0.6-6.3-0.1-8.7,1.1C10,22.3,9.7,22,9.5,21.7c-0.4-0.5-0.7-1-0.9-1.6l0,0c-0.9-1.8-1.1-4-0.6-5.9c0.4-1.4,1-2.6,1.9-3.6
	c0,0,0,0,0-0.1c0.1-0.1,0.2-0.2,0.3-0.3c0.1-0.1,0.2-0.2,0.3-0.3c0,0,0,0,0.1,0c1-0.9,2.2-1.6,3.6-1.9c2-0.5,4.1-0.3,5.9,0.6l0,0
	c0.6,0.3,1.1,0.6,1.6,0.9c0.3,0.3,0.6,0.5,0.9,0.8c-1.2,2.4-1.7,5.4-1.1,8.7c0,0.2,0.1,0.4,0.1,0.6c0,0.1,0,0.1,0,0.2
	c0.3,1.2,0.9,1.9,1.6,2.3c0.5,0.3,1,0.5,1.8,0.5c0.1,0,0.4,0,0.5,0c0.6,0,1.1-0.1,1.5-0.3c0.8-0.3,1.5-1.1,1.9-2.5
	c0.1-0.5,0.2-1,0.2-1.5c0.4-3.1,0-5.8-1.2-8.1c0.1-0.2,0.3-0.3,0.5-0.4c0.6-0.5,1.3-1,2.1-1.3l0,0c1.8-0.9,4-1.1,5.9-0.6
	c0.7,0.2,1.3,0.4,1.9,0.8c0,0,0,0,0,0c0.1,0.1,0.2,0.1,0.3,0.2c1.8,1.1,3.3,3,3.8,5.2c0.5,2,0.3,4.1-0.6,5.9l0,0
	c-0.3,0.8-0.8,1.5-1.3,2.1c-0.1,0.1-0.3,0.3-0.4,0.4c-2.4-1.2-5.4-1.7-8.7-1.1c-0.1,0-0.2,0-0.3,0.1c-0.2,0-0.3,0.1-0.5,0.1
	C28.9,22,28.2,23,28,24c-0.1,0.3-0.1,0.6-0.1,1c0,0.1,0,0.4,0,0.5c0,0.3,0,0.5,0.1,0.8c0.2,1.1,0.9,2.1,2.7,2.6
	c0.5,0.1,1.1,0.2,1.6,0.2c3,0.4,5.7-0.1,8-1.2c0.1,0.1,0.1,0.1,0.2,0.2c0.6,0.7,1.2,1.5,1.6,2.4l0,0c0.9,1.8,1.1,4,0.6,5.9
	c-0.5,1.7-1.4,3.2-2.7,4.3C38.9,41.6,37.7,42.2,36.4,42.5z"/>
</svg>
