<svg id="Layer_1" data-name="Layer 1" xmlns="http://www.w3.org/2000/svg" viewBox="0 0 50.46 50.46"><defs><style>.cls-1{fill:#65b4e1;}</style></defs><title>heladera</title><g id="Capa_8" data-name="Capa 8"><path class="cls-1" d="M34.1,3.66H16.36a2.81,2.81,0,0,0-2.81,2.81V44a2.81,2.81,0,0,0,2.81,2.81H34.1A2.81,2.81,0,0,0,36.9,44V6.46A2.84,2.84,0,0,0,34.1,3.66ZM16.36,5.51H34.1a1,1,0,0,1,.95.95V17.22H15.46V6.46A.9.9,0,0,1,16.36,5.51ZM34.1,44.91H16.36a1,1,0,0,1-.95-.95V19.12H35V44A1,1,0,0,1,34.1,44.91Z"/><path class="cls-1" d="M18.35,15.27h4.72a.74.74,0,0,0,0-1.49H18.35a.74.74,0,0,0,0,1.49Z"/><path class="cls-1" d="M23.07,21H18.35a.74.74,0,0,0,0,1.49h4.72a.74.74,0,0,0,0-1.49Z"/></g></svg>