<svg id="Layer_1" data-name="Layer 1" xmlns="http://www.w3.org/2000/svg" viewBox="0 0 50.46 50.46"><defs><style>.cls-1{fill:#12b5e1;}</style></defs><title>herramientas - colaborativas</title><path class="cls-1" d="M30.77,13.47,29.59,13a4.82,4.82,0,0,0,0-.76l1.18-.49a.14.14,0,0,0,.08-.2L30,9.61a.16.16,0,0,0-.2-.09L28.66,10a3.87,3.87,0,0,0-.54-.53l.49-1.18a.16.16,0,0,0-.09-.2l-1.95-.8a.16.16,0,0,0-.2.09l-.49,1.17a4.82,4.82,0,0,0-.76,0l-.49-1.17a.15.15,0,0,0-.2-.08l-1.95.8a.16.16,0,0,0-.09.2l.49,1.17a4.51,4.51,0,0,0-.53.54l-1.19-.48a.14.14,0,0,0-.2.08l-.8,1.94a.15.15,0,0,0,.08.2l1.18.48a4.82,4.82,0,0,0,0,.76l-1.18.49a.14.14,0,0,0-.08.2L21,15.62a.11.11,0,0,0,.08.08.13.13,0,0,0,.12,0l1.18-.48a3.87,3.87,0,0,0,.54.53l-.49,1.18a.16.16,0,0,0,.09.2l2,.8a.16.16,0,0,0,.2-.09l.49-1.17a4.82,4.82,0,0,0,.76,0l.49,1.17a.14.14,0,0,0,.09.08.13.13,0,0,0,.12,0l1.94-.8a.16.16,0,0,0,.09-.2l-.49-1.18a3.79,3.79,0,0,0,.53-.53l1.19.48a.14.14,0,0,0,.2-.08l.81-1.94A.16.16,0,0,0,30.77,13.47Zm-6.16,1.3a2.32,2.32,0,0,1-1.27-3,2.35,2.35,0,0,1,3.06-1.27,2.31,2.31,0,0,1,1.27,3A2.35,2.35,0,0,1,24.61,14.77Z"/><path class="cls-1" d="M21.73,8l-.44-.41a1.33,1.33,0,0,0,.13-.33H22a.08.08,0,0,0,.07-.08l0-1A.07.07,0,0,0,22,6.12l-.6,0a3.09,3.09,0,0,0-.14-.32l.41-.44s0-.07,0-.1l-.72-.67a.07.07,0,0,0-.1,0L20.42,5a1.61,1.61,0,0,0-.33-.12v-.6A.08.08,0,0,0,20,4.25l-1,0a.08.08,0,0,0-.08.07L19,5a1.3,1.3,0,0,0-.32.14l-.44-.41a.07.07,0,0,0-.1,0l-.68.71a.08.08,0,0,0,0,.11l.44.4a1.4,1.4,0,0,0-.13.34h-.6a.07.07,0,0,0-.07.07l0,1s0,0,0,0,0,0,.05,0h.6a1.83,1.83,0,0,0,.14.32l-.41.43a.08.08,0,0,0,0,.1l.72.68a.08.08,0,0,0,.1,0l.42-.44a1.2,1.2,0,0,0,.33.13v.59a.09.09,0,0,0,0,.06,0,0,0,0,0,0,0l1,0s.08,0,.07-.07v-.6a1.83,1.83,0,0,0,.32-.14l.44.41a.08.08,0,0,0,.1,0l.68-.71A.07.07,0,0,0,21.73,8Zm-2.91-.46a1.08,1.08,0,0,1,0-1.54,1.1,1.1,0,0,1,1.55,0,1.08,1.08,0,0,1,0,1.54A1.11,1.11,0,0,1,18.82,7.54Z"/><path class="cls-1" d="M28.51,34.13l-.05,0a.76.76,0,0,0-.73.08,5.34,5.34,0,0,1-2.86.9,5.57,5.57,0,0,1-2.9-.93.75.75,0,0,0-.74,0c-4.24,2.1-6,7.74-5.63,8.85a.8.8,0,0,0,.26.34,17.18,17.18,0,0,0,9,2.89,16.14,16.14,0,0,0,9-2.91.88.88,0,0,0,.24-.35C34.51,41.87,32.75,36.23,28.51,34.13Zm-.32,1.38a6.39,6.39,0,0,1,1.12.78l-1.69,2.12-1.69-2.06A6.92,6.92,0,0,0,28.19,35.51Zm-1.94,2.74L24.9,39.9s0,0,0,.06,0-.05,0-.06l-1.35-1.65,1.38-1.68Zm-4.7-2.74a7.23,7.23,0,0,0,2.27.84l-1.69,2.06-1.7-2.12A8,8,0,0,1,21.55,35.51Zm-4.64,6.88A11.37,11.37,0,0,1,19.74,37l2,2.51a.56.56,0,0,0,.37.18.48.48,0,0,0,.37-.17l.38-.47,1,1.23-2.5,4.09A14.52,14.52,0,0,1,16.91,42.39Zm8,2.45a13.24,13.24,0,0,1-2.49-.29l2.49-4.08,2.51,4.11A13.72,13.72,0,0,1,24.87,44.84Zm3.5-.48-2.52-4.12,1-1.23.38.47a.48.48,0,0,0,.37.17h0a.47.47,0,0,0,.37-.18L30,37a11.56,11.56,0,0,1,2.83,5.44A13.8,13.8,0,0,1,28.37,44.36Z"/><path class="cls-1" d="M24.87,34.05c3.56,0,6.42-4.29,6.42-7.85a6.42,6.42,0,0,0-12.83,0C18.46,29.76,21.32,34.05,24.87,34.05Zm5.05-7.85c0,.1,0,.2,0,.31-1.42-.52-2-3.15-2.19-4.47A5,5,0,0,1,29.92,26.2Zm-10.09,0a5.05,5.05,0,0,1,5-5.05,5,5,0,0,1,1.74.33,7.15,7.15,0,0,1-3.48,4.63,4.68,4.68,0,0,1-3.28.54C19.84,26.5,19.83,26.35,19.83,26.2Zm.83,1.53A6.42,6.42,0,0,0,23.58,27,7.86,7.86,0,0,0,27,23.32c.37,1.62,1.17,3.72,2.79,4.16-.55,2.55-2.61,5.2-4.9,5.2s-4.23-2.51-4.85-5A4.48,4.48,0,0,0,20.66,27.73Z"/><path class="cls-1" d="M34.75,26.85l.07.25a1.67,1.67,0,0,1,.08.42v0c0,.08-.15.28-.33.58l-.09.13a.56.56,0,0,0,.08.66,3.69,3.69,0,0,0,1.87,1l.13,0a.56.56,0,0,0,.14-1.1,3.23,3.23,0,0,1-1-.43A3.23,3.23,0,0,0,36,27.8c0-.1,0-.19,0-.28a3,3,0,0,0-.11-.72l-.08-.26c0-.11-.06-.21-.08-.31l0-.09a4.38,4.38,0,0,1-.4-1.83,4.32,4.32,0,1,1,8.21,1.89l-.17.58a2.54,2.54,0,0,0-.12.74,1.24,1.24,0,0,0,0,.27s0,.06,0,.08a3.79,3.79,0,0,0,.29.57,2.55,2.55,0,0,1-.74.35.56.56,0,0,0,.33,1.07,3.35,3.35,0,0,0,1.55-.93.57.57,0,0,0,.07-.66l-.08-.14c-.07-.11-.27-.44-.33-.57v0a1.41,1.41,0,0,1,.07-.42c.05-.19.11-.38.14-.5a5.46,5.46,0,0,0,.5-2.29,5.44,5.44,0,1,0-10.88,0,5.7,5.7,0,0,0,.47,2.24C34.7,26.65,34.72,26.75,34.75,26.85Z"/><path class="cls-1" d="M42.59,30.66a.64.64,0,0,0-.61.07,4.39,4.39,0,0,1-2.34.74,4.65,4.65,0,0,1-2.38-.76.56.56,0,0,0-.57-.05l0,0a9.14,9.14,0,0,0-4.06,4.67,12.93,12.93,0,0,1,.81,1A9.85,9.85,0,0,1,35.46,33l2,2.12a.35.35,0,0,0,.28.13h0A.4.4,0,0,0,38,35l1.61-2.32L41.25,35a.39.39,0,0,0,.29.17h0a.37.37,0,0,0,.29-.13l2-2.12a9.46,9.46,0,0,1,2.36,4.49,12.08,12.08,0,0,1-6.53,2,13.3,13.3,0,0,1-5.11-1.22,12.23,12.23,0,0,1,.61,1.45,14.14,14.14,0,0,0,4.5.89A13.2,13.2,0,0,0,47,38.21a.59.59,0,0,0,.2-.29C47.54,37,46.1,32.4,42.59,30.66Zm-4.93,3.53L36,32.42a7.66,7.66,0,0,1,.88-.61,5.77,5.77,0,0,0,1.91.7Zm4,0-1.16-1.67a5.71,5.71,0,0,0,1.91-.71,5.51,5.51,0,0,1,.88.61Z"/><path class="cls-1" d="M41.48,22.3a.36.36,0,0,0-.38-.19.37.37,0,0,0-.31.29c-.49,2.19-1.94,2.32-3.11,2.42-.68.06-1.46.12-1.46.88,0,1.89,1.53,4.17,3.42,4.17s3.41-2.28,3.41-4.17A14.85,14.85,0,0,0,41.48,22.3Zm-1.84,6.82c-1.41,0-2.67-1.91-2.68-3.42a2.55,2.55,0,0,1,.79-.13,3.62,3.62,0,0,0,3.5-2.14,12.55,12.55,0,0,1,1,2.27C42.3,27.21,41.05,29.12,39.64,29.12Z"/><path class="cls-1" d="M16.83,35.78a11.61,11.61,0,0,1,.82-.91,8.91,8.91,0,0,0-3.85-4.19l0,0a.62.62,0,0,0-.6.07,4.39,4.39,0,0,1-2.34.74,4.57,4.57,0,0,1-2.37-.76.65.65,0,0,0-.62,0C4.35,32.4,2.91,37,3.22,37.94a.63.63,0,0,0,.21.28,14.11,14.11,0,0,0,7.39,2.37,12.91,12.91,0,0,0,3.73-.6,11.83,11.83,0,0,1,.53-1.36,12.52,12.52,0,0,1-3.54.8l2-4a.4.4,0,0,0-.16-.51l-.79-.46,1.66-2.17A9,9,0,0,1,16.83,35.78ZM4.29,37.46a9.2,9.2,0,0,1,3.14-5.19l1.66,2.16-.79.46a.39.39,0,0,0-.16.51l1.95,4A13.11,13.11,0,0,1,4.29,37.46Zm6.15.88L9,35.38l.87-.5a.4.4,0,0,0,.18-.26A.37.37,0,0,0,10,34.3L8.07,31.83h0a5.87,5.87,0,0,0,2.32.73C10.43,34.34,10.44,36.91,10.44,38.34Zm1.21-4a.45.45,0,0,0-.07.32.38.38,0,0,0,.19.26l.86.5-1.41,3c0-1,0-2.8,0-5.82a5.5,5.5,0,0,0,2.34-.76l0,0Z"/><path class="cls-1" d="M6.38,27.33c.41.82,1.86,3.26,4.45,3.26s4-2.45,4.45-3.26a2.14,2.14,0,0,0,1.13-1.5,2.7,2.7,0,0,0-.2-2.43,2.38,2.38,0,0,0-.36-.35,5.18,5.18,0,0,0-10,0,1.56,1.56,0,0,0-.39.38,2.64,2.64,0,0,0-.21,2.42A2.07,2.07,0,0,0,6.38,27.33Zm0-3.2a.42.42,0,0,1,.32-.19h0a.1.1,0,0,0,.12-.09,4,4,0,0,1,7.88,0,.13.13,0,0,0,.14.1.44.44,0,0,1,.33.18c.13.18.24.56,0,1.37-.11.38-.33.83-.69.73a.11.11,0,0,0-.14.07c-.6,1.53-1.95,3.08-3.59,3.08s-3-1.56-3.59-3.1a.12.12,0,0,0-.11-.07h0c-.36.13-.59-.34-.7-.72C6.16,24.68,6.27,24.3,6.4,24.13Z"/></svg>