<svg id="Layer_1" data-name="Layer 1" xmlns="http://www.w3.org/2000/svg" viewBox="0 0 50.46 50.46"><defs><style>.cls-1{fill:#12b5e1;}</style></defs><title>herramientas</title><path class="cls-1" d="M16.39,23.27a3.26,3.26,0,0,1,2.73.93l1.8,1.8,1.7-1.7-2.46-2.45a1,1,0,0,1,1.39-1.39L24,22.92l1.7-1.7-1.81-1.8A3.26,3.26,0,0,1,23,16.69a7.66,7.66,0,0,0-8.73-8.58.46.46,0,0,0-.25.78l2.32,2.31a2.82,2.82,0,0,1,0,4l-1.43,1.42a2.81,2.81,0,0,1-4,0L8.58,14.29a.46.46,0,0,0-.77.26,7.65,7.65,0,0,0,8.58,8.72Zm0,0"/><path class="cls-1" d="M30.81,26.33,29.11,28,39.22,38.13a1,1,0,0,1-1.39,1.39L27.72,29.41,26,31.1,36.44,41.52a3.38,3.38,0,0,0,4.78-4.78Zm0,0"/><path class="cls-1" d="M34.72,19.57h4.49l4.49-9L41.46,8.35l-9,4.49v4.49L20.26,29.51l-2.19-2.19L9.21,36.17a4.72,4.72,0,0,0,6.68,6.67L24.74,34,22.5,31.75Zm0,0"/></svg>