<svg id="Layer_1" data-name="Layer 1" xmlns="http://www.w3.org/2000/svg" viewBox="0 0 50.46 50.46"><defs><style>.cls-1{fill:#65b4e1;}</style></defs><title>hojas</title><path class="cls-1" d="M18.68,32.52a5,5,0,0,1-1.85.92,3.8,3.8,0,0,1-3.76-1.21L13,32.15c-1.4-1.41-2.85-2.86-4.89-3.16.9-1.72,3-4.69,7-4.83,2-.07,5,1.33,5.38,4.16a.92.92,0,0,0,1.83-.26c-.52-3.7-4.18-5.87-7.27-5.75-6.83.25-9.1,7-9.19,7.31a.92.92,0,0,0,1,1.2c2-.25,3.26,1,4.87,2.63l.07.07a5.71,5.71,0,0,0,4.12,1.87,6.79,6.79,0,0,0,4-1.49.92.92,0,0,0-1.21-1.39Z"/><path class="cls-1" d="M45.06,21.39c-.09-.29-2.37-7.06-9.19-7.31-3.09-.11-6.75,2.05-7.27,5.75a.92.92,0,1,0,1.83.26c.4-2.83,3.38-4.23,5.38-4.16a8.27,8.27,0,0,1,7,4.83c-2,.3-3.49,1.75-4.9,3.16l-.07.07a3.8,3.8,0,0,1-3.76,1.21,5,5,0,0,1-1.85-.92A.92.92,0,0,0,31,25.68a6.79,6.79,0,0,0,4,1.49,5.71,5.71,0,0,0,4.12-1.87l.07-.07c1.61-1.61,2.88-2.89,4.87-2.63a.92.92,0,0,0,1-1.2Z"/><path class="cls-1" d="M36.53,18.84a11.52,11.52,0,0,0-6,2.4,13.58,13.58,0,0,0-4.13,5.36,22.45,22.45,0,0,0-1.12,3.53,34,34,0,0,0-.73,4.7,13.58,13.58,0,0,0-4.13-5.36,11.52,11.52,0,0,0-6-2.4.92.92,0,0,0-.07,1.85,9.69,9.69,0,0,1,5,2c3.38,2.58,5.19,6.42,5.25,12.69v1.46a.92.92,0,0,0,1.85,0V36.22c.06-6.21,1.85-10.87,5.17-13.46a9.87,9.87,0,0,1,5.06-2.08.92.92,0,0,0-.07-1.85Z"/></svg>