<svg id="Layer_1" data-name="Layer 1" xmlns="http://www.w3.org/2000/svg" viewBox="0 0 50.46 50.46"><defs><style>.cls-1{fill:#12b5e1;}</style></defs><title>hombre</title><path class="cls-1" d="M30.75,14a7.38,7.38,0,0,0-5.5-2.31h0A7.4,7.4,0,0,0,19.71,14C15.84,18,16,25.73,16,26.6a1.88,1.88,0,0,0,1.88,1.83H18a1.89,1.89,0,0,0,1.82-1.95,22.27,22.27,0,0,1,.91-6.67v13h0V47a1.89,1.89,0,0,0,3.77,0V32.76H26V47a1.88,1.88,0,1,0,3.76,0V19.82a22.57,22.57,0,0,1,.91,6.67,1.89,1.89,0,0,0,1.82,1.94h.06a1.88,1.88,0,0,0,1.88-1.83C34.48,25.73,34.62,18,30.75,14Z"/><path class="cls-1" d="M25.23,10.72a4.59,4.59,0,1,0-4.59-4.58A4.59,4.59,0,0,0,25.23,10.72Z"/></svg>