<svg id="Layer_1" data-name="Layer 1" xmlns="http://www.w3.org/2000/svg" viewBox="0 0 50.46 50.46"><defs><style>.cls-1{fill:#65b4e1;}</style></defs><title>hospital</title><rect class="cls-1" x="5.98" y="30.42" width="2.39" height="3.07"/><rect class="cls-1" x="10.41" y="30.42" width="2.39" height="3.07"/><rect class="cls-1" x="5.98" y="36.55" width="2.39" height="3.07"/><rect class="cls-1" x="10.41" y="36.55" width="2.39" height="3.07"/><path class="cls-1" d="M47.16,26H35.28V12.19a.91.91,0,0,0-.41-.77L25.72,5.51a.92.92,0,0,0-1,0l-9.14,5.91a.9.9,0,0,0-.41.77V26H3.29a.75.75,0,0,0-.72.66V44.42a.77.77,0,0,0,.72.68H47.16a.78.78,0,0,0,.73-.68V26.65A.77.77,0,0,0,47.16,26Zm-32,17.72H3.93V27.35H15.18Zm18.4,0H28.47V36.55H22v7.16H16.88v-31l8.35-5.31,8.35,5.31Zm12.95,0H35.28V27.35H46.53Z"/><rect class="cls-1" x="42.1" y="30.42" width="2.39" height="3.07"/><rect class="cls-1" x="37.67" y="30.42" width="2.39" height="3.07"/><rect class="cls-1" x="42.1" y="36.55" width="2.39" height="3.07"/><rect class="cls-1" x="37.67" y="36.55" width="2.39" height="3.07"/><rect class="cls-1" x="21.99" y="30.42" width="2.04" height="3.07"/><rect class="cls-1" x="26.42" y="30.42" width="2.04" height="3.07"/><path class="cls-1" d="M24.38,16.45v1.36H22.93a.85.85,0,1,0,0,1.7h1.45V21a.85.85,0,1,0,1.7,0V19.52h1.44a.85.85,0,1,0,0-1.7H26.08V16.45a.85.85,0,1,0-1.7,0Z"/><path class="cls-1" d="M19.24,18.83a6,6,0,1,0,6-6A6,6,0,0,0,19.24,18.83Zm10.74,0a4.76,4.76,0,1,1-4.76-4.76A4.76,4.76,0,0,1,30,18.83Z"/></svg>