<?xml version="1.0" encoding="utf-8"?>
<!-- Generator: Adobe Illustrator 24.0.1, SVG Export Plug-In . SVG Version: 6.00 Build 0)  -->
<!DOCTYPE svg PUBLIC "-//W3C//DTD SVG 1.1//EN" "http://www.w3.org/Graphics/SVG/1.1/DTD/svg11.dtd" [
	<!ENTITY ns_extend "http://ns.adobe.com/Extensibility/1.0/">
	<!ENTITY ns_ai "http://ns.adobe.com/AdobeIllustrator/10.0/">
	<!ENTITY ns_graphs "http://ns.adobe.com/Graphs/1.0/">
	<!ENTITY ns_vars "http://ns.adobe.com/Variables/1.0/">
	<!ENTITY ns_imrep "http://ns.adobe.com/ImageReplacement/1.0/">
	<!ENTITY ns_sfw "http://ns.adobe.com/SaveForWeb/1.0/">
	<!ENTITY ns_custom "http://ns.adobe.com/GenericCustomNamespace/1.0/">
	<!ENTITY ns_adobe_xpath "http://ns.adobe.com/XPath/1.0/">
]>
<svg version="1.1" id="Capa_2_1_" xmlns:x="&ns_extend;" xmlns:i="&ns_ai;" xmlns:graph="&ns_graphs;"
	 xmlns="http://www.w3.org/2000/svg" xmlns:xlink="http://www.w3.org/1999/xlink" x="0px" y="0px" viewBox="0 0 50.5 50.5"
	 enable-background="new 0 0 50.5 50.5" xml:space="preserve">
<metadata>
	<sfw  xmlns="&ns_sfw;">
		<slices></slices>
		<sliceSourceBounds  bottomLeftOrigin="true" height="41.944" width="41.944" x="4.278" y="4.278"></sliceSourceBounds>
	</sfw>
</metadata>
<g>
	<path d="M36.795,31.555c-3.747,3.681-8.734,6.099-14.27,6.565c3.033,2.258,6.666,3.751,10.612,4.199
		C35.226,39.2,36.536,35.519,36.795,31.555z"/>
	<path d="M12.458,20.473c0-4.527,1.31-8.752,3.563-12.325c-0.386-0.02-0.774-0.031-1.165-0.031c-0.6,0-1.192,0.031-1.779,0.078
		C7.757,11.999,4.278,18.212,4.278,25.25c0,1.827,0.258,3.59,0.697,5.279c0.201,0.774,0.441,1.531,0.726,2.268
		c0.349,0.903,0.746,1.781,1.211,2.618c0.005-0.544,0.032-1.083,0.075-1.618c0.036-0.459,0.085-0.915,0.148-1.367
		c0.624-4.471,2.526-8.535,5.327-11.813C12.461,20.569,12.458,20.522,12.458,20.473z"/>
	<path d="M45.538,20.02c-0.196-0.764-0.432-1.51-0.709-2.238c-0.32-0.839-0.676-1.66-1.097-2.444
		c-0.007,0.519-0.032,1.034-0.073,1.544c-0.036,0.459-0.085,0.915-0.148,1.367c-0.635,4.553-2.598,8.685-5.483,11.994
		c-0.026,4.476-1.329,8.653-3.56,12.191c0.386,0.02,0.774,0.031,1.165,0.031c0.563,0,1.118-0.028,1.671-0.07
		c5.389-3.796,8.918-10.053,8.918-17.145C46.222,23.441,45.969,21.695,45.538,20.02z"/>
	<path d="M17.352,8.263c-2.138,3.19-3.464,6.968-3.679,11.035c3.76-3.774,8.81-6.256,14.424-6.735
		C25.036,10.248,21.355,8.717,17.352,8.263z"/>
	<path d="M42.42,17.452c-3.235-2.201-7.085-3.563-11.234-3.769c3.859,3.836,6.372,9.019,6.78,14.775
		C40.375,25.342,41.968,21.567,42.42,17.452z"/>
	<path d="M8.225,33.228c3.22,2.191,7.049,3.55,11.177,3.767c-3.853-3.786-6.388-8.903-6.858-14.599
		C10.209,25.477,8.669,29.189,8.225,33.228z"/>
	<path d="M32.352,43.412c-4.387-0.625-8.38-2.48-11.62-5.207c-0.056,0-0.112,0.004-0.168,0.004c-4.579,0-8.849-1.341-12.448-3.642
		c-0.017,0.358-0.027,0.718-0.027,1.08c0,0.585,0.03,1.162,0.075,1.735c3.801,5.343,10.029,8.84,17.086,8.84
		c1.823,0,3.582-0.257,5.268-0.694c0.763-0.198,1.509-0.434,2.236-0.713c0.886-0.34,1.751-0.722,2.575-1.174
		c-0.545-0.007-1.085-0.034-1.62-0.078C33.253,43.525,32.8,43.476,32.352,43.412z"/>
	<path d="M18.135,7.17c4.439,0.632,8.475,2.526,11.736,5.307c0.07-0.001,0.14-0.005,0.21-0.005c4.579,0,8.849,1.34,12.447,3.641
		c0.017-0.358,0.027-0.718,0.027-1.08c0-0.58-0.029-1.152-0.074-1.721C38.695,7.857,32.394,4.278,25.25,4.278
		c-1.791,0-3.521,0.249-5.18,0.671c-0.764,0.195-1.511,0.428-2.239,0.704c-0.965,0.366-1.9,0.787-2.791,1.285
		c0.586,0.005,1.165,0.034,1.74,0.081C17.235,7.058,17.687,7.107,18.135,7.17z"/>
</g>
</svg>
