<?xml version="1.0" encoding="utf-8"?>
<!-- Generator: Adobe Illustrator 24.0.1, SVG Export Plug-In . SVG Version: 6.00 Build 0)  -->
<!DOCTYPE svg PUBLIC "-//W3C//DTD SVG 1.1//EN" "http://www.w3.org/Graphics/SVG/1.1/DTD/svg11.dtd" [
	<!ENTITY ns_extend "http://ns.adobe.com/Extensibility/1.0/">
	<!ENTITY ns_ai "http://ns.adobe.com/AdobeIllustrator/10.0/">
	<!ENTITY ns_graphs "http://ns.adobe.com/Graphs/1.0/">
	<!ENTITY ns_vars "http://ns.adobe.com/Variables/1.0/">
	<!ENTITY ns_imrep "http://ns.adobe.com/ImageReplacement/1.0/">
	<!ENTITY ns_sfw "http://ns.adobe.com/SaveForWeb/1.0/">
	<!ENTITY ns_custom "http://ns.adobe.com/GenericCustomNamespace/1.0/">
	<!ENTITY ns_adobe_xpath "http://ns.adobe.com/XPath/1.0/">
]>
<svg version="1.1" id="stroke_1_x2C_6" xmlns:x="&ns_extend;" xmlns:i="&ns_ai;" xmlns:graph="&ns_graphs;"
	 xmlns="http://www.w3.org/2000/svg" xmlns:xlink="http://www.w3.org/1999/xlink" x="0px" y="0px" viewBox="0 0 50.46 50.46"
	 enable-background="new 0 0 50.46 50.46" xml:space="preserve">
<metadata>
	<sfw  xmlns="&ns_sfw;">
		<slices></slices>
		<sliceSourceBounds  bottomLeftOrigin="true" height="40.681" width="40.846" x="4.827" y="4.909"></sliceSourceBounds>
	</sfw>
</metadata>
<g>
	<path d="M39.636,37.704c-2.583,0-4.883-1.238-6.337-3.152c-2.591,1.867-5.768,2.968-9.197,2.968
		c-7.658,0-14.058-5.489-15.474-12.739c-0.069-0.352-0.126-0.707-0.171-1.067c-2.36,1.565-3.797,4.429-3.637,7.256
		c0.161,2.845,1.933,5.545,4.479,6.825c4.093,2.057,9.214,0.419,13.482,2.083c2.835,1.106,4.964,3.546,7.733,4.81
		c3.965,1.809,9.046,0.76,11.969-2.472c1.642-1.815,2.531-4.238,2.605-6.681c-0.32,0.302-0.665,0.578-1.032,0.824
		C42.791,37.208,41.27,37.704,39.636,37.704z"/>
	<path d="M38.617,15.598c0.219,0.514,0.41,1.042,0.574,1.582c0.286-1.116,0.631-2.229,0.9-3.33c0.722-2.962,0.577-6.702-2.026-8.287
		c-2.421-1.475-5.523-0.243-8.07,1.001c-0.187,0.091-0.395,0.204-0.618,0.332c0.4,0.142,0.793,0.3,1.177,0.473
		C34.168,8.995,37.063,11.945,38.617,15.598z"/>
	<path d="M10.414,23.733c0.964,6.691,6.734,11.85,13.688,11.85c3.075,0,5.919-1.009,8.218-2.713c-0.41-0.959-0.638-2.013-0.638-3.12
		c0-3.743,2.599-6.89,6.088-7.732c0.053-0.013,0.106-0.025,0.16-0.037c0.001-0.076,0.003-0.151,0.003-0.228
		c0-0.759-0.062-1.504-0.181-2.23c-0.836-5.135-4.509-9.329-9.352-10.916c-0.427-0.14-0.863-0.259-1.307-0.358
		c-0.522-0.116-1.055-0.202-1.598-0.257c-0.458-0.046-0.922-0.07-1.392-0.07c-0.544,0-1.081,0.033-1.61,0.094
		c-0.556,0.065-1.102,0.162-1.636,0.291c-1.937,0.468-3.716,1.343-5.241,2.532c-0.491,0.383-0.955,0.798-1.39,1.242
		c-2.423,2.475-3.927,5.853-3.952,9.576c0,0.032-0.001,0.063-0.001,0.095c0,0.322,0.012,0.642,0.034,0.959
		C10.329,23.056,10.365,23.396,10.414,23.733z"/>
	<path d="M40.362,23.778c-0.203-0.025-0.409-0.039-0.617-0.043c-0.036-0.001-0.072-0.003-0.109-0.003
		c-0.123,0-0.245,0.005-0.366,0.012c-0.172,0.01-0.342,0.028-0.51,0.052c-0.162,0.024-0.322,0.055-0.48,0.092
		c-0.182,0.042-0.362,0.093-0.537,0.151c-2.393,0.796-4.123,3.054-4.123,5.71c0,0.616,0.093,1.21,0.266,1.77
		c0.104,0.338,0.239,0.663,0.398,0.973c0.15,0.292,0.322,0.57,0.516,0.832c1.097,1.48,2.857,2.442,4.837,2.442
		c1.733,0,3.295-0.737,4.394-1.913c0.3-0.321,0.566-0.675,0.791-1.056c0.257-0.436,0.46-0.906,0.602-1.403
		c0.149-0.523,0.231-1.075,0.231-1.645C45.653,26.678,43.339,24.138,40.362,23.778z"/>
</g>
</svg>
