<svg id="Layer_1" data-name="Layer 1" xmlns="http://www.w3.org/2000/svg" viewBox="0 0 50.46 50.46"><defs><style>.cls-1{fill:#12b5e1;}</style></defs><title>hotel neg</title><path class="cls-1" d="M43.28,29.89H11V18.43a3,3,0,0,0-2.42-3,3,3,0,0,0-2.36.65,2.91,2.91,0,0,0-1,2.21v22a3,3,0,0,0,2.42,3A2.9,2.9,0,0,0,11,40.45V35.69h29.7v4.65a3,3,0,0,0,2.42,3,2.59,2.59,0,0,0,.48,0,2.9,2.9,0,0,0,2.9-2.9V33.1A3.21,3.21,0,0,0,43.28,29.89Z"/><path class="cls-1" d="M17,28.18a4.85,4.85,0,1,0-4.85-4.84A4.84,4.84,0,0,0,17,28.18Z"/><path class="cls-1" d="M23.57,28.18H43.84a.9.9,0,0,0,.9-.9V23.67a4.51,4.51,0,0,0-4.5-4.5H23.57a.9.9,0,0,0-.9.9v7.21A.9.9,0,0,0,23.57,28.18Z"/></svg>