<svg id="Layer_1" data-name="Layer 1" xmlns="http://www.w3.org/2000/svg" viewBox="0 0 50.46 50.46"><defs><style>.cls-1{fill:#12b5e1;}</style></defs><title>hotel lineal</title><path class="cls-1" d="M43.44,29.89H11.15V18.43a3,3,0,0,0-2.42-3,2.9,2.9,0,0,0-3.38,2.86v22a3,3,0,0,0,2.42,3,2.9,2.9,0,0,0,3.38-2.86V35.69H40.86v4.65a3,3,0,0,0,2.41,3,2.59,2.59,0,0,0,.48,0,2.87,2.87,0,0,0,1.88-.69,2.9,2.9,0,0,0,1-2.21V33.1A3.22,3.22,0,0,0,43.44,29.89Zm1.42,10.56a1.12,1.12,0,0,1-.39.84,1.13,1.13,0,0,1-.91.25,1.19,1.19,0,0,1-.9-1.2V34.79a.9.9,0,0,0-.9-.9H10.25a.9.9,0,0,0-.9.9v5.66a1.08,1.08,0,0,1-.39.84,1.11,1.11,0,0,1-.9.25,1.2,1.2,0,0,1-.91-1.2v-22a1.1,1.1,0,0,1,.39-.84,1.08,1.08,0,0,1,.9-.24,1.19,1.19,0,0,1,.91,1.19V30.79a.91.91,0,0,0,.9.9H43.44a1.42,1.42,0,0,1,1.42,1.41Z"/><path class="cls-1" d="M17.19,28.18a4.85,4.85,0,1,0-4.84-4.84A4.84,4.84,0,0,0,17.19,28.18Zm0-7.89a3,3,0,1,1-3.05,3.05A3,3,0,0,1,17.19,20.29Z"/><path class="cls-1" d="M23.73,28.18H34a.9.9,0,1,0,0-1.8H24.63V21H40.4a2.71,2.71,0,0,1,2.71,2.7v2.71H39.74a.9.9,0,0,0,0,1.8H44a.9.9,0,0,0,.9-.9V23.67a4.52,4.52,0,0,0-4.51-4.5H23.73a.9.9,0,0,0-.9.9v7.21A.9.9,0,0,0,23.73,28.18Z"/><path class="cls-1" d="M36.16,26.38a.9.9,0,1,0,0,1.8h.23a.9.9,0,1,0,0-1.8Z"/></svg>