<svg id="Layer_1" data-name="Layer 1" xmlns="http://www.w3.org/2000/svg" viewBox="0 0 50.46 50.46"><defs><style>.cls-1{fill:#12b5e1;}</style></defs><title>huevos</title><path class="cls-1" d="M44.53,21.27c-1.38-1.46-3.48-2.24-6.1-2.67-.09-2.75-.9-5.38-2.88-6.23-1.64-.71-3.63,0-5.45,1.36C28.86,11.61,27.18,10,25.23,10s-3.63,1.61-4.87,3.73c-1.82-1.33-3.81-2.07-5.46-1.36-2,.85-2.78,3.48-2.87,6.24-2.62.43-4.72,1.22-6.11,2.68a6.73,6.73,0,0,0-1.73,4.78c0,7.94,9.44,14.39,21,14.39s21-6.45,21-14.39A6.74,6.74,0,0,0,44.53,21.27ZM34.16,13.65a2,2,0,0,1,.78.15c2.34,1,2.38,7.22,1.08,10.26l0,.08a35.55,35.55,0,0,1-4.67,1.36,8.25,8.25,0,0,0,1.07-4.07,16.44,16.44,0,0,0-1.54-6.3A6,6,0,0,1,34.16,13.65Zm-8.93-2c2.76,0,5.46,6.16,5.46,9.74a6.4,6.4,0,0,1-1.79,4.51,28,28,0,0,1-3.95.29A26.51,26.51,0,0,1,21.64,26a6.41,6.41,0,0,1-1.87-4.59C19.77,17.85,22.47,11.69,25.23,11.69ZM15.52,13.8a2,2,0,0,1,.78-.15,6,6,0,0,1,3.32,1.48,16.44,16.44,0,0,0-1.54,6.3,8.24,8.24,0,0,0,1.15,4.21,33.82,33.82,0,0,1-4.62-1.26c-.06-.11-.12-.21-.17-.32C13.14,21,13.18,14.81,15.52,13.8Zm9.71,24.59A26.77,26.77,0,0,1,14.39,36.2l.69,0A29,29,0,0,0,21,35.59l.8-.19c.34.15.68.3,1,.43A38.45,38.45,0,0,0,30.14,38,28.93,28.93,0,0,1,25.23,38.39ZM34,37A32.45,32.45,0,0,1,24,34.8a21.74,21.74,0,0,0,7.91-4.24.71.71,0,0,0,.08-1,.63.63,0,0,0-.92-.08A22,22,0,0,1,21.88,34a29.62,29.62,0,0,1-9.81-6.58.62.62,0,0,0-.92,0,.71.71,0,0,0,0,1,29.12,29.12,0,0,0,8.54,6.1,23.74,23.74,0,0,1-8.31.08,12.1,12.1,0,0,1-4.59-5.38,10.5,10.5,0,0,0,2,1.39.62.62,0,0,0,.23.07.64.64,0,0,0,.64-.38.7.7,0,0,0-.29-.92A10.51,10.51,0,0,1,6.2,26.67a5.82,5.82,0,0,1,0-.6A4.64,4.64,0,0,1,7.3,22.75a8.55,8.55,0,0,1,4.79-2.05,15.68,15.68,0,0,0,.55,2.94c-.75-.31-1.5-.63-2.26-1a1.07,1.07,0,1,0-.92,1.94A35.92,35.92,0,0,0,25,28.38,36.32,36.32,0,0,0,41,24.31a1.08,1.08,0,0,0-1-1.93c-.72.36-1.45.69-2.17,1a16.22,16.22,0,0,0,.47-2.68,9.58,9.58,0,0,1,4.32,1.61A8,8,0,0,1,41,27.43a10.79,10.79,0,0,1-4.26,3.36.71.71,0,0,0-.37.9.65.65,0,0,0,.61.43.52.52,0,0,0,.24,0,12.07,12.07,0,0,0,4.8-3.78,9.88,9.88,0,0,0,1.83-4.4,5.4,5.4,0,0,1,.42,2.18C44.31,30.83,40.11,35,34,37Z"/><ellipse class="cls-1" cx="35.08" cy="32.4" rx="0.7" ry="0.74"/><path class="cls-1" d="M10.2,31a.73.73,0,0,0,.64.8.71.71,0,0,0,.76-.67.73.73,0,0,0-.64-.8A.72.72,0,0,0,10.2,31Z"/></svg>