<svg id="Layer_1" data-name="Layer 1" xmlns="http://www.w3.org/2000/svg" viewBox="0 0 50.46 50.46"><defs><style>.cls-1{fill:#12b5e1;}</style></defs><title>identidad</title><path class="cls-1" d="M26.13,21a.9.9,0,0,0-1.8.07c0,.08.26,7-3.64,11.12A9.53,9.53,0,0,1,14.84,35a11.61,11.61,0,0,0,1,1.67A11.12,11.12,0,0,0,22,33.38C26.42,28.76,26.15,21.26,26.13,21Z"/><path class="cls-1" d="M29.73,20.79a4.51,4.51,0,0,0-4.53-4.3H25A4.49,4.49,0,0,0,21.91,18a4.42,4.42,0,0,0-1.17,3.23s.12,5.57-2.65,8.47a6.28,6.28,0,0,1-4.41,1.79,11.87,11.87,0,0,0,.44,1.78,7.88,7.88,0,0,0,5.27-2.33c3.33-3.48,3.15-9.73,3.15-9.79a2.62,2.62,0,0,1,.7-1.94,2.68,2.68,0,0,1,1.88-.87h.08a2.7,2.7,0,0,1,2.73,2.58c0,.34.32,8.57-4.64,13.76a12.65,12.65,0,0,1-6,3.52A12.4,12.4,0,0,0,19,39.49a14.29,14.29,0,0,0,5.58-3.62C30.08,30.14,29.74,21.16,29.73,20.79Z"/><path class="cls-1" d="M36.93,27.81a3.28,3.28,0,0,1-2.41-.9,5.08,5.08,0,0,1-1.12-3.44c0-.6-.07-1.3-.07-2.13v-.13c0-.34,0-.55,0-.59a8.09,8.09,0,0,0-8.11-7.73h-.33a8.09,8.09,0,0,0-5.62,2.62,8.5,8.5,0,0,0-2.12,5.83c0,.81,0,1.5-.08,2.09a5.12,5.12,0,0,1-1.12,3.48,3.28,3.28,0,0,1-2.41.9c0,.41,0,.79,0,1.11h0a1,1,0,0,0,0,.15c0,.19,0,.38,0,.57a4.66,4.66,0,0,0,3.24-1.24c1.84-1.92,2.15-4,2.15-7.14a6.57,6.57,0,0,1,1.65-4.53,6.24,6.24,0,0,1,4.37-2h.24a6.3,6.3,0,0,1,6.11,4.65c0,.12.06.23.08.35v0a9.18,9.18,0,0,1,.14,1.54c0,3.12.19,5.22,2,7.14a4.71,4.71,0,0,0,3.35,1.24c0-.22,0-.51,0-.86h0Z"/><path class="cls-1" d="M14.73,25.71a3.51,3.51,0,0,0,.63-2.21c0-1.05,0-1.93,0-2.08a9.91,9.91,0,0,1,9.48-10.33h.39a9.89,9.89,0,0,1,9.91,9.45c0,.15,0,1.3,0,3.39a3,3,0,0,0,.6,1.78,1.58,1.58,0,0,0,1.2.4c0-2.42,0-5.53,0-5.65A11.69,11.69,0,0,0,25.21,9.29h-.45A11.7,11.7,0,0,0,13.54,21.5c0,.3,0,2.51,0,4.61A1.58,1.58,0,0,0,14.73,25.71Z"/><path class="cls-1" d="M29.45,31.63c-.26.59-.54,1.18-.86,1.77a11,11,0,0,0,6,3.19,11.75,11.75,0,0,0,1-1.65,9.52,9.52,0,0,1-5.75-2.8C29.72,32,29.59,31.8,29.45,31.63Z"/><path class="cls-1" d="M30.89,27.08c-.18.82-.41,1.68-.69,2.56a9,9,0,0,0,1,1.25,7.86,7.86,0,0,0,5.17,2.32,11.43,11.43,0,0,0,.43-1.77,6.28,6.28,0,0,1-4.3-1.79A8,8,0,0,1,30.89,27.08Z"/><path class="cls-1" d="M26.52,36.39a14.33,14.33,0,0,0,5,3.07,12.25,12.25,0,0,0,1.73-1.33A12.7,12.7,0,0,1,27.63,35Q27.12,35.68,26.52,36.39Z"/><path class="cls-1" d="M25.25,37.68l-.26.25a17.66,17.66,0,0,1-3.81,2.62,10.86,10.86,0,0,0,2.48.62A19.45,19.45,0,0,0,25.27,40a16.69,16.69,0,0,0,1.58,1.11,11.73,11.73,0,0,0,2.53-.64,16.52,16.52,0,0,1-3.83-2.58Z"/></svg>