<?xml version="1.0" encoding="utf-8"?>
<!-- Generator: Adobe Illustrator 26.5.0, SVG Export Plug-In . SVG Version: 6.00 Build 0)  -->
<svg version="1.1" id="Layer_1" xmlns="http://www.w3.org/2000/svg" xmlns:xlink="http://www.w3.org/1999/xlink" x="0px" y="0px"
	 viewBox="0 0 50.46 50.46" style="enable-background:new 0 0 50.46 50.46;" xml:space="preserve">
<path d="M26.463,12.727c-0.025-0.041-0.051-0.081-0.08-0.12c-0.197-0.286-0.53-0.45-0.877-0.431c-0.277,0.011-0.529,0.162-0.67,0.4
	c-0.084,0.155-0.134,0.325-0.147,0.5c-0.007,0.06-0.02,0.12-0.04,0.177c-0.044,0.089-0.111,0.165-0.194,0.219
	c-0.2,0.156-1.406,0.772-1.586,0.39c-0.054-0.107,0.341-0.708,0.394-0.821c0.128-0.298,0.128-0.636,0-0.934
	c-0.178-0.281-0.44-0.5-0.749-0.623c-0.896-0.417-1.73-0.958-2.477-1.606c-0.426-0.485-0.912-0.915-1.446-1.278
	c-0.554-0.356-1.287-0.237-1.7,0.276c-0.725-0.572-1.776-0.447-2.348,0.278c-0.027,0.034-0.052,0.068-0.076,0.104
	c-0.232,0.334-0.351,0.733-0.34,1.139c0.018,0.17-0.012,0.341-0.087,0.495c-0.101,0.076-0.217,0.127-0.341,0.149
	c-0.398,0.189-0.657,0.585-0.67,1.025c-0.04,0.432,0,0.871,0,1.3c-0.092,0.64-0.279,1.262-0.555,1.847
	c-0.632,1.381-0.801,2.93-0.482,4.415c0.146,0.387,0.247,0.79,0.3,1.2c0.011,0.283-0.018,0.567-0.087,0.842
	c-0.114,0.559-0.248,1.118-0.4,1.663c-0.122,0.355-0.191,0.725-0.207,1.1c0.025,0.351,0.069,0.701,0.134,1.047
	c0.022,0.34-0.029,0.681-0.148,1c-0.172,0.843-0.149,1.714,0.067,2.547c-0.15,0.205-0.223,0.455-0.207,0.708
	c0.022,0.245,0.085,0.484,0.187,0.707c0.244,0.686,0.405,1.399,0.482,2.123c0.022,0.762-0.022,1.524-0.134,2.278
	c0.008,0.366-0.06,0.73-0.2,1.069c-0.117,0.255-0.194,0.527-0.228,0.806c-0.143,0.601,0.052,1.233,0.509,1.649
	c0.133,0.074,0.283,0.111,0.435,0.106c0.033,0.286,0.169,0.549,0.381,0.743c0.257,0.207,0.592,0.292,0.917,0.233
	c0.337-0.057,0.681-0.057,1.018,0c0.04,0.318,0.087,0.637,0.127,0.955s0,1,0.261,1.3c0.219,0.2,0.516,0.294,0.81,0.255
	c0.746,0.001,1.491-0.072,2.222-0.22c0.064-0.007,0.125-0.034,0.174-0.077c0.107-0.107,0.054-0.291,0-0.425
	c-0.114-0.308-0.342-0.561-0.636-0.707c-0.142-0.042-0.288-0.073-0.435-0.092c-0.622-0.149-0.977-0.828-1.252-1.415
	c-0.16-0.347-0.314-0.708-0.475-1.048c-0.096-0.151-0.121-0.338-0.067-0.509c0.148-0.29,0.556-0.269,0.67-0.63
	s-0.074-0.75,0.22-1.082c0.181-0.2,0.456-0.283,0.63-0.488c0.164-0.26,0.243-0.564,0.227-0.871c0-0.41,0-0.912-0.368-1.089
	c-0.193-0.057-0.39-0.1-0.589-0.127c-0.194-0.064-0.368-0.3-0.248-0.474s0.248-0.114,0.389-0.128c0.89-0.085,0.97-1.132,1.01-1.861
	c0.017-0.148,0.017-0.297,0-0.445h0.1c0.358,0.146,0.766-0.027,0.912-0.385c0.006-0.014,0.011-0.029,0.016-0.043l0.009-0.025
	c0.142-0.424,0.07-0.891-0.194-1.252c0.114,0.169,0.91-0.524,0.977-0.637c0.281-0.467,0-1.069,0.221-1.585
	c0.753,0.086,1.514-0.039,2.2-0.361c0.702-0.332,1.273-0.89,1.62-1.585c0.233-0.415,0.3-0.903,0.187-1.365
	c-0.049-0.132-0.109-0.26-0.181-0.382l-0.562-1.076c-0.318-0.789-0.339-1.666-0.06-2.469c0.171-0.848,0.54-1.643,1.078-2.32
	c0.419-0.582,0.96-1.065,1.586-1.415l0.147-0.071c0.341-0.127,0.635-0.354,0.844-0.651c0.117-0.202,0.191-0.426,0.22-0.658
	C26.694,13.566,26.646,13.122,26.463,12.727z"/>
<path d="M19.7,39.181c-0.185-0.11-0.415-0.11-0.6,0c-0.187,0.135-0.238,0.392-0.117,0.588c0.065,0.107,0.176,0.177,0.3,0.19
	c0.027,0.135,0.038,0.273,0.033,0.411c-0.006,0.224,0.171,0.41,0.395,0.417h0.007c0.214,0,0.321-0.431,0.321-0.665
	C20.037,39.733,20.071,39.415,19.7,39.181z"/>
<path d="M21,39.11h-0.087c-0.669-0.049-0.823,0.956-0.549,1.415c0.097,0.207,0.327,0.317,0.549,0.262
	c0.186-0.087,0.276-0.301,0.208-0.495c-0.054-0.122-0.054-0.26,0-0.382c0.046-0.078,0.14-0.113,0.2-0.191
	c0.07-0.113,0.07-0.255,0-0.368C21.25,39.231,21.135,39.145,21,39.11z"/>
<path d="M29.265,21.356h8.6c0.508,0,0.919-0.412,0.918-0.92c0-0.507-0.411-0.918-0.918-0.918h-8.6c-0.508,0-0.919,0.411-0.92,0.918
	s0.411,0.919,0.918,0.92C29.264,21.356,29.264,21.356,29.265,21.356z"/>
<path d="M29.087,25.159h6.934c0.507-0.11,0.829-0.611,0.719-1.118c-0.078-0.36-0.359-0.64-0.719-0.719h-6.934
	c-0.507,0.11-0.829,0.611-0.719,1.118C28.447,24.8,28.727,25.081,29.087,25.159z"/>
<path d="M29.087,28.963h6.934c0.508-0.109,0.831-0.609,0.721-1.117c-0.078-0.361-0.36-0.644-0.721-0.721h-6.934
	c-0.508,0.109-0.831,0.609-0.721,1.117C28.443,28.603,28.726,28.885,29.087,28.963z"/>
<path d="M32.061,7.292l-1.41-1.513l-1.491,7.785L37,12.417l-1.411-1.479c-0.12-0.127-0.186-0.295-0.183-0.47
	c0.005-0.174,0.079-0.339,0.206-0.458c2.1-1.995,4.254-4.036,8.565-3.44c-2.683-2.133-6.4-3.44-11.213,0.722
	C32.711,7.533,32.314,7.533,32.061,7.292z"/>
<path d="M32.8,5.438c1.14-0.874,2.413-1.56,3.771-2.03H30.2l2.225,2.03H32.8z"/>
<path d="M10.436,44.591c-0.842,0.006-1.53-0.672-1.536-1.514c0,0,0,0,0,0V6.971c0-0.842,0.683-1.525,1.525-1.525h17.783V5.438h1
	l0.482-2.03H16.965l0.015,0.009h-6.589C8.444,3.442,6.877,5.024,6.87,6.971v36.083c0,1.969,1.597,3.566,3.566,3.566c0,0,0,0,0,0
	H32.99c-0.599-0.594-1.095-1.284-1.468-2.041L10.436,44.591z"/>
<path d="M46.669,35.98l-1.25-1.2L44.88,34.2l-0.562,0.505l-1.227,1.124l-0.6,0.527l-0.355,0.321
	c-1.081-0.928-2.463-1.429-3.887-1.41c-3.287,0-5.951,2.664-5.951,5.951s2.664,5.951,5.951,5.951c3.286,0,5.95-2.663,5.951-5.949
	c0.017-0.43-0.014-0.861-0.091-1.285l0.332-0.378l0.688-0.768l1.525-1.709l0.528-0.584L46.669,35.98z M44.569,38.273l-0.722,0.8
	l-5.594,6.217l-4.392-5.458l1.548-1.364l2.844,2.786l4.838-4.288l0.6-0.528l1.17-1.089l1.25,1.2L44.569,38.273z"/>
<path d="M43.687,32.939v-6.818h0.006V8.353c-0.664-0.128-1.349-0.1-2,0.081l-0.03,0.007v3.73l-0.017,0.008v22.4
	c0.081,0.041,0.162,0.083,0.241,0.127L43.687,32.939z"/>
</svg>
