<?xml version="1.0" encoding="UTF-8"?>
<svg id="Layer_1" data-name="Layer 1" xmlns="http://www.w3.org/2000/svg" version="1.1" viewBox="0 0 50.5 50.5">
  <defs>
    <style>
      .cls-1 {
        fill: #000;
        stroke-width: 0px;
      }
    </style>
  </defs>
  <g>
    <g>
      <path class="cls-1" d="M2.184,37.462v-.741c.172-.007.316-.03.433-.067.116-.037.206-.124.27-.258.064-.135.095-.352.095-.652v-4.303c0-.202.006-.397.017-.584.011-.187.02-.329.028-.427-.12.007-.27.013-.449.017-.18.004-.311.009-.393.017v-.865h5.618l.067,2.18h-.741c0-.412-.071-.723-.213-.932-.142-.21-.318-.35-.528-.421-.21-.071-.416-.103-.618-.096l-.404.011c-.157,0-.292.021-.405.062-.112.041-.199.131-.258.27-.06.139-.09.354-.09.646v1.955h1.157l-.045-.966h.865v2.73h-.741c0-.315-.049-.543-.146-.685-.097-.142-.23-.23-.399-.264-.169-.034-.354-.047-.556-.039h-.135v1.573c0,.202-.004.397-.011.584-.007.187-.019.33-.034.427.082-.007.191-.013.326-.017.135-.004.268-.007.399-.011.131-.004.223-.006.275-.006v.865h-3.382Z"/>
      <path class="cls-1" d="M11.554,30.339c-.165.007-.307.03-.427.067-.12.038-.212.122-.275.253-.064.131-.096.35-.096.657v3.09c0,.472.051.86.152,1.163.101.303.236.543.404.719.169.176.36.302.573.376.213.075.433.116.657.124.412.015.764-.064,1.056-.236.292-.172.517-.438.674-.798s.236-.816.236-1.371v-2.944c0-.202.004-.397.011-.584.007-.187.019-.329.034-.427-.12.007-.272.013-.455.017-.184.004-.316.009-.399.017v-.865h2.607v.742c-.165.007-.307.03-.427.067-.12.038-.212.122-.275.253-.064.131-.096.35-.096.657v2.809c0,.644-.079,1.191-.236,1.64-.157.449-.378.813-.663,1.09-.285.277-.618.477-1,.601-.382.124-.798.185-1.247.185-.629,0-1.154-.09-1.573-.27-.42-.18-.751-.431-.994-.753-.244-.322-.416-.693-.517-1.112-.101-.419-.152-.869-.152-1.348v-2.719c0-.202.006-.397.017-.584.011-.187.02-.329.028-.427-.12.007-.27.013-.449.017-.18.004-.311.009-.393.017v-.865h3.224v.742Z"/>
      <path class="cls-1" d="M22.947,32.136c0-.404-.056-.74-.169-1.006-.112-.266-.271-.464-.477-.595-.206-.131-.451-.193-.736-.185h-.539v5.269c0,.202-.004.397-.011.584-.007.187-.019.33-.034.427.127-.015.29-.024.489-.028.198-.004.335-.006.41-.006v.865h-3.281v-.741c.172-.007.316-.03.433-.067.116-.037.206-.124.27-.258.064-.135.096-.352.096-.652v-5.382h-.517c-.427.007-.764.154-1.011.438-.247.285-.371.73-.371,1.337h-.741l.056-2.539h6.808l.067,2.539h-.741Z"/>
      <path class="cls-1" d="M32.98,37.462v-.741c.172-.007.316-.03.433-.067.116-.037.206-.124.27-.258.064-.135.095-.352.095-.652v-4.303c0-.202.006-.397.017-.584.011-.187.02-.329.028-.427-.12.007-.27.013-.449.017-.18.004-.311.009-.393.017v-.865c.532-.007,1.063-.011,1.595-.011s1.063-.004,1.595-.011c.659-.007,1.232.067,1.719.225.487.157.861.412,1.123.764.262.352.386.828.371,1.427-.008.315-.084.614-.23.899-.146.285-.363.536-.652.753-.288.217-.654.39-1.095.517.142.06.283.157.421.292.138.135.256.277.354.427l.528.786c.165.255.311.457.438.607.127.15.255.26.382.331.127.071.273.111.438.118v.741h-1.854c-.135-.097-.268-.238-.399-.421-.131-.183-.272-.395-.421-.635l-.831-1.348c-.097-.15-.182-.277-.253-.382-.071-.105-.144-.195-.219-.27h-.584v1.202c0,.21-.004.408-.011.595-.007.187-.019.33-.034.427.082-.007.187-.013.315-.017.127-.004.253-.007.376-.011.124-.004.212-.006.264-.006v.865h-3.337ZM35.946,33.597c.419,0,.756-.062,1.011-.185.255-.124.44-.311.556-.562.116-.251.174-.567.174-.949,0-.36-.056-.642-.169-.848s-.253-.36-.421-.461c-.168-.101-.339-.165-.511-.191-.172-.026-.315-.039-.427-.039-.157,0-.292.019-.405.056-.112.038-.199.12-.258.247-.06.127-.09.322-.09.584v2.303c.082.007.168.017.258.028s.183.017.281.017Z"/>
      <path class="cls-1" d="M44.372,37.641c-.712,0-1.316-.12-1.814-.36-.498-.24-.901-.56-1.208-.961-.307-.401-.532-.844-.674-1.331-.142-.487-.213-.974-.213-1.461,0-.472.08-.949.242-1.432.161-.483.404-.927.73-1.331.326-.404.736-.73,1.23-.977.494-.247,1.075-.371,1.741-.371.681,0,1.27.124,1.764.371.494.247.899.575,1.213.983.315.408.549.852.702,1.331.153.479.23.955.23,1.427,0,.465-.081.936-.242,1.416-.161.479-.405.923-.73,1.331-.326.408-.736.738-1.23.989-.494.251-1.075.376-1.741.376ZM44.496,36.821c.389,0,.715-.095.977-.286.262-.191.472-.44.629-.747.157-.307.27-.642.337-1.006.067-.363.101-.717.101-1.062,0-.517-.045-.989-.135-1.416-.09-.427-.229-.796-.416-1.107-.187-.311-.425-.551-.713-.719-.289-.168-.627-.249-1.017-.242-.382.007-.704.111-.966.309-.262.199-.472.453-.629.764-.157.311-.27.65-.337,1.017-.067.367-.101.723-.101,1.067,0,.352.039.727.118,1.124.079.397.204.772.376,1.123.172.352.405.637.697.854.292.217.652.326,1.079.326Z"/>
    </g>
    <path class="cls-1" d="M31.155,29.566v4.964c0,1.12-.251,1.944-.752,2.474-.502.529-1.289.793-2.361.793s-1.868-.264-2.375-.793c-.507-.529-.76-1.353-.76-2.474v-4.964h1.159v5.084c0,.754.159,1.303.478,1.647.318.344.818.516,1.499.516s1.18-.172,1.499-.516c.319-.344.478-.893.478-1.647v-5.084h-.957l1.525-1.785,1.509,1.785h-.941Z"/>
  </g>
  <g>
    <path class="cls-1" d="M8.069,14.311c-.281.013-.523.051-.727.115-.204.064-.36.207-.469.43-.109.223-.163.596-.163,1.119v7.326c0,.344-.007.676-.019.995-.013.319-.032.561-.057.727.204-.025.462-.041.775-.048.312-.006.532-.01.66-.01v1.473H2.579v-1.263c.293-.012.539-.051.737-.115.198-.064.351-.21.459-.44.108-.229.163-.599.163-1.109v-7.326c0-.344.01-.676.029-.995.019-.319.035-.561.048-.727-.204.013-.459.022-.765.029-.306.007-.529.016-.67.029v-1.473h5.49v1.263Z"/>
    <path class="cls-1" d="M20.159,26.63l-6.121-7.824c-.166-.217-.338-.446-.516-.689-.179-.242-.357-.491-.536-.746h-.019l.038,5.93c0,.344-.007.676-.019.995-.013.319-.032.561-.057.727.204-.025.462-.041.775-.048.312-.006.532-.01.66-.01v1.473h-4.361v-1.263c.293-.012.539-.051.737-.115.197-.064.351-.21.459-.44.108-.229.163-.599.163-1.109l-.038-7.326c0-.344.006-.676.019-.995.013-.319.032-.561.057-.727-.204.013-.462.022-.775.029-.313.007-.539.016-.679.029v-1.473h3.003l5.854,7.384c.319.408.583.759.794,1.052.21.294.392.548.545.765h.019v-6.064c0-.344.006-.676.019-.995.013-.319.025-.561.038-.727-.204.013-.459.022-.765.029-.306.007-.529.016-.669.029v-1.473h4.361v1.263c-.281.013-.523.051-.727.115-.204.064-.36.207-.469.43-.109.223-.163.596-.163,1.119v10.655h-1.626Z"/>
    <path class="cls-1" d="M23.583,26.438v-1.32c.357,0,.644-.102.861-.306.217-.204.399-.472.545-.803.146-.331.29-.689.43-1.071l3.73-10.234h1.339l4.074,10.425c.076.191.178.482.306.87.127.389.204.73.229,1.023.217-.025.424-.041.622-.048.198-.006.36-.01.488-.01v1.473h-5.146v-1.263c.357,0,.603-.073.736-.22.134-.146.194-.347.182-.603-.013-.255-.083-.542-.21-.861l-.383-1.052-4.151.076-.306.899c-.064.166-.156.411-.277.737-.121.325-.233.596-.335.813.204-.025.45-.041.737-.048.287-.006.494-.01.622-.01v1.53h-4.094ZM27.715,21.082h3.194l-.88-2.391c-.166-.459-.313-.921-.44-1.387-.128-.465-.223-.877-.287-1.234h-.019c-.051.217-.128.542-.23.976-.102.434-.262.95-.478,1.549l-.861,2.487Z"/>
    <path class="cls-1" d="M37.241,25.176c.293-.012.539-.051.737-.115.198-.064.351-.21.459-.44.108-.229.163-.599.163-1.109v-7.326c0-.344.01-.676.029-.995.019-.319.035-.561.048-.727-.204.013-.459.022-.765.029-.306.007-.529.016-.67.029v-1.473c.905-.013,1.811-.019,2.716-.019s1.811-.006,2.716-.019c1.122-.012,2.101.134,2.936.44.835.306,1.479.778,1.932,1.416.453.638.666,1.467.641,2.487-.013.51-.134,1.011-.363,1.502-.23.491-.568.937-1.014,1.339-.447.402-1.007.73-1.683.985-.676.255-1.467.395-2.372.421-.281.013-.526.019-.737.019s-.424-.006-.641-.019v1.683c0,.357-.007.695-.019,1.014-.013.319-.032.561-.057.727.14-.013.319-.022.536-.029.217-.006.431-.012.641-.019.21-.006.36-.01.45-.01v1.473h-5.681v-1.263ZM41.373,20.164c.14.013.28.026.421.038.14.013.287.019.44.019.701,0,1.272-.118,1.712-.354.44-.236.762-.58.966-1.033.204-.453.306-1.004.306-1.655,0-.637-.086-1.148-.258-1.53-.172-.383-.392-.666-.66-.851-.268-.185-.548-.306-.842-.363-.294-.057-.561-.086-.803-.086-.268,0-.497.032-.689.096-.191.064-.338.204-.44.421-.102.217-.153.548-.153.995v4.304Z"/>
  </g>
</svg>