<svg id="Layer_1" data-name="Layer 1" xmlns="http://www.w3.org/2000/svg" viewBox="0 0 50.46 50.46"><defs><style>.cls-1{fill:#12b5e1;}</style></defs><title>incendios urbanos</title><path class="cls-1" d="M44.3,25.37A38.59,38.59,0,0,0,40.9,20c-1-1.45-2.1-2.95-3.17-4.73a7.37,7.37,0,0,1,1.13-9.45A1.1,1.1,0,0,0,37.73,4c-5.24,2-9.38,4.09-11,10.48a19.18,19.18,0,0,0-.14,8.21c0,.27.08.53.12.77a1.87,1.87,0,0,1-.28,1.41,1.14,1.14,0,0,1-.76.46,1.05,1.05,0,0,1-.9-.28,1.68,1.68,0,0,1-.35-1.24,38.91,38.91,0,0,1,1.47-7.4,1.1,1.1,0,0,0-.55-1.29,1.11,1.11,0,0,0-1.38.31,39.57,39.57,0,0,0-6.36,12A13.89,13.89,0,0,0,17,29.26l-.06.29s0,.07,0,.1a14.84,14.84,0,0,0-.24,2.65A14.65,14.65,0,0,0,46,33.07a.92.92,0,0,0,0-.16v-.13c0-.16,0-.31,0-.47A14.41,14.41,0,0,0,44.3,25.37Zm-.5,7.38v.1a12.45,12.45,0,0,1-24.89-.55A13.21,13.21,0,0,1,19.13,30a.13.13,0,0,0,0-.06l0-.18a12.81,12.81,0,0,1,.45-1.61,36.57,36.57,0,0,1,2.73-6.32c-.09.66-.16,1.31-.19,1.91a3.69,3.69,0,0,0,1,2.85,3.23,3.23,0,0,0,2.77.94,3.4,3.4,0,0,0,2.22-1.3,4,4,0,0,0,.71-3.05c0-.26-.08-.52-.12-.8A17,17,0,0,1,28.81,15a10.69,10.69,0,0,1,6.25-7.5,9.46,9.46,0,0,0,.78,8.9c1.12,1.86,2.26,3.46,3.27,4.87a37.33,37.33,0,0,1,3.24,5.09,12.23,12.23,0,0,1,1.46,5.91C43.81,32.43,43.81,32.56,43.8,32.75Z"/><path class="cls-1" d="M36.53,28.46c-.69-1-1.46-2-2.22-3.3a6.93,6.93,0,0,1-1.06-3.43A1.1,1.1,0,0,0,31.34,21a7.2,7.2,0,0,0-1.61,3.17,11.48,11.48,0,0,0-.07,4.91l.08.54a2.8,2.8,0,0,1-.49,2.13,2.34,2.34,0,0,1-1.56.92,2.27,2.27,0,0,1-2-.66l-.09-.1a1.13,1.13,0,0,0-1-.36,1.09,1.09,0,0,0-.83.71c-.1.28-.19.54-.27.79a7.41,7.41,0,0,0-.3,1.11s0,.09,0,.11A9,9,0,0,0,23,35.85a8.32,8.32,0,0,0,16.64.28v-.29a8.2,8.2,0,0,0-1-4A24.13,24.13,0,0,0,36.53,28.46Zm.95,7.64a6.12,6.12,0,1,1-12.14-1.39l0-.13,0-.12a4.57,4.57,0,0,0,2.57.42,4.64,4.64,0,0,0,3-1.77,5,5,0,0,0,.92-3.78l-.08-.57a9.71,9.71,0,0,1-.06-3.71,12.44,12.44,0,0,0,.65,1.25c.8,1.33,1.6,2.45,2.3,3.44a22.91,22.91,0,0,1,2,3.07,1.34,1.34,0,0,0,.06.12,5.93,5.93,0,0,1,.72,2.89Z"/><path class="cls-1" d="M20.52,6.71c0-.19-.23-.35-.51-.35h-.34c-.28,0-.51.16-.51.35V7.78c0,.2.23.35.51.35H20c.28,0,.51-.15.51-.35Z"/><path class="cls-1" d="M22.89,6.71c0-.19-.23-.35-.51-.35H22c-.29,0-.52.16-.52.35V7.78c0,.2.23.35.52.35h.34c.28,0,.51-.15.51-.35Z"/><path class="cls-1" d="M20,9.24h-.34c-.28,0-.51.16-.51.35v1.07c0,.19.23.35.51.35H20c.28,0,.51-.16.51-.35V9.59C20.52,9.4,20.29,9.24,20,9.24Z"/><path class="cls-1" d="M22.35,9.21H22c-.28,0-.51.16-.51.36v1.06c0,.2.23.36.51.36h.34c.29,0,.52-.16.52-.36V9.57C22.87,9.37,22.64,9.21,22.35,9.21Z"/><path class="cls-1" d="M23.35,3.51H18.7a2.4,2.4,0,0,0-2.41,2.41v8.25h-5a2.52,2.52,0,0,0-2.52,2.52V29.91H5.26a.81.81,0,1,0,0,1.62H9.62a.79.79,0,0,0,.79-.79v-14a.9.9,0,0,1,.9-.9h5v6.83a.81.81,0,0,0,1.62,0V5.92a.79.79,0,0,1,.79-.79h4.65a.79.79,0,0,1,.79.79v5a.81.81,0,0,0,1.62,0v-5A2.41,2.41,0,0,0,23.35,3.51Z"/><path class="cls-1" d="M12.85,17.34c0-.19-.23-.35-.52-.35H12c-.28,0-.51.16-.51.35v1.07c0,.19.23.35.51.35h.34c.29,0,.52-.16.52-.35Z"/><path class="cls-1" d="M15.21,17.34c0-.19-.23-.35-.51-.35h-.34c-.28,0-.51.16-.51.35v1.07c0,.19.23.35.51.35h.34c.28,0,.51-.16.51-.35Z"/><path class="cls-1" d="M12.33,19.86H12c-.28,0-.51.16-.51.36v1.06c0,.2.23.36.51.36h.34c.29,0,.52-.16.52-.36V20.22C12.85,20,12.62,19.86,12.33,19.86Z"/><path class="cls-1" d="M14.68,19.84h-.34c-.28,0-.51.16-.51.36v1.06c0,.2.23.35.51.35h.34c.28,0,.51-.15.51-.35V20.2C15.19,20,15,19.84,14.68,19.84Z"/></svg>