<svg id="Layer_1" data-name="Layer 1" xmlns="http://www.w3.org/2000/svg" viewBox="0 0 50.46 50.46"><defs><style>.cls-1{fill:#65b4e1;}</style></defs><title>incendios forestales</title><path class="cls-1" d="M17.77,41.21a13.14,13.14,0,0,0-4.06-.32V37.77a7.87,7.87,0,0,0,1.81-.42A.72.72,0,1,0,15,36a6.33,6.33,0,0,1-1.31.32V27.83a.75.75,0,0,0-1.5,0v4.41l-.75-.57a.75.75,0,1,0-.9,1.2l1.65,1.25v2.22a5.27,5.27,0,0,1-2.62-.93A3.91,3.91,0,0,1,8,31.9c.28-5.94,3.83-15.11,5.05-15.8.7.48,2.46,3.85,3.83,8.42a.72.72,0,1,0,1.39-.42c-.1-.34-.5-1.63-1.07-3.15.06-.45.12-.9.19-1.35,1.21-8.12,3.29-15.42,4.38-16.74.62.9,1.89,4.44,3.22,10.57a.72.72,0,1,0,1.42-.31C23.87,1.28,22.35,1.28,21.85,1.28c-2.68,0-5.06,13.21-5.69,17.07-.92-2-2-3.72-3-3.72-.48,0-1.94,0-4.23,6.81a43.71,43.71,0,0,0-2.29,10.4,5.36,5.36,0,0,0,2.15,4.75,6.73,6.73,0,0,0,3.48,1.2v3.3A30.83,30.83,0,0,0,9,41.84c-1.93.54-3.59,1-5.26.57a.72.72,0,0,0-.37,1.4A6.79,6.79,0,0,0,5.19,44a15.87,15.87,0,0,0,4.25-.8c2.38-.67,4.83-1.37,8-.61a.72.72,0,0,0,.33-1.41Z"/><path class="cls-1" d="M45.2,26a38.92,38.92,0,0,0-3.41-5.36c-1-1.45-2.1-2.95-3.17-4.73a7.38,7.38,0,0,1,1.13-9.45A1.1,1.1,0,0,0,38.62,4.6c-5.24,2-9.38,4.09-11,10.48a19,19,0,0,0-.14,8.22c0,.27.08.52.11.77a1.86,1.86,0,0,1-.27,1.41,1.18,1.18,0,0,1-.76.46,1,1,0,0,1-.89-.28,1.66,1.66,0,0,1-.35-1.24A39.23,39.23,0,0,1,26.73,17a1.1,1.1,0,0,0-1.92-1,39.78,39.78,0,0,0-6.37,12,14.63,14.63,0,0,0-.51,1.84l-.06.3a.89.89,0,0,0,0,.1,14.65,14.65,0,1,0,29,3.42,1.12,1.12,0,0,0,0-.16v-.12c0-.16,0-.31,0-.47A14.47,14.47,0,0,0,45.2,26Zm-.5,7.38a.6.6,0,0,0,0,.06v0A12.45,12.45,0,1,1,20,30.58v-.06l0-.18a12.75,12.75,0,0,1,.45-1.61,35.87,35.87,0,0,1,2.73-6.32,18.81,18.81,0,0,0-.19,1.91,3.74,3.74,0,0,0,1,2.85,3.25,3.25,0,0,0,2.77.94A3.38,3.38,0,0,0,29,26.8a4,4,0,0,0,.7-3c0-.25-.08-.52-.12-.8a16.92,16.92,0,0,1,.1-7.33A10.66,10.66,0,0,1,36,8.13a9.46,9.46,0,0,0,.78,8.9C37.85,18.89,39,20.49,40,21.9A36.89,36.89,0,0,1,43.24,27a12.33,12.33,0,0,1,1.47,5.92C44.7,33,44.7,33.16,44.69,33.36Z"/><path class="cls-1" d="M37.42,29.07c-.68-1-1.45-2-2.21-3.3a7,7,0,0,1-1.06-3.43,1.1,1.1,0,0,0-1.91-.71,7.24,7.24,0,0,0-1.61,3.17,11.53,11.53,0,0,0-.06,4.92l.08.54a2.83,2.83,0,0,1-.49,2.13,2.38,2.38,0,0,1-1.56.92,2.29,2.29,0,0,1-2-.66l-.09-.09a1.1,1.1,0,0,0-1.87.34c-.1.28-.19.54-.27.79a8.78,8.78,0,0,0-.3,1.1l0,.11a8.43,8.43,0,0,0-.15,1.56,8.32,8.32,0,0,0,16.64.28v-.29a8.25,8.25,0,0,0-1-4A24.76,24.76,0,0,0,37.42,29.07Zm1,7.65a6.12,6.12,0,0,1-12.24-.26,6.36,6.36,0,0,1,.1-1.13l0-.13,0-.11a4.55,4.55,0,0,0,5.61-1.36,5,5,0,0,0,.92-3.77l-.09-.57a9.74,9.74,0,0,1-.05-3.71,10.57,10.57,0,0,0,.64,1.25c.81,1.33,1.6,2.45,2.31,3.44a23.34,23.34,0,0,1,2,3.08l.06.12a6,6,0,0,1,.72,2.89Z"/></svg>