<svg id="Layer_1" data-name="Layer 1" xmlns="http://www.w3.org/2000/svg" viewBox="0 0 50.46 50.46"><defs><style>.cls-1{fill:#65b4e1;}</style></defs><title>inclusion digital</title><path class="cls-1" d="M18.68,22.21a.73.73,0,0,0,.91,1.14,9.15,9.15,0,0,1,11.37,0,.73.73,0,0,0,.91-1.14,10.61,10.61,0,0,0-13.18,0Z"/><path class="cls-1" d="M25.23,23.42A7.33,7.33,0,0,0,20.71,25a.49.49,0,0,0,.59.77,6.43,6.43,0,0,1,7.94.06.49.49,0,0,0,.61-.76A7.32,7.32,0,0,0,25.23,23.42Z"/><path class="cls-1" d="M22.62,27.14a.36.36,0,1,0,.41.6,4,4,0,0,1,4.48.09.36.36,0,0,0,.43-.59A4.7,4.7,0,0,0,22.62,27.14Z"/><circle class="cls-1" cx="25.27" cy="30.11" r="1.36"/><path class="cls-1" d="M42.53,30.73a5.18,5.18,0,0,0-4,2l-3.66-2.32a10.83,10.83,0,0,0-1.69-12.66L37,13.51a4.33,4.33,0,1,0-1.07-1.06L32,16.69a10.82,10.82,0,0,0-13.72.17l-2.24-2.33a5.91,5.91,0,1,0-1.08,1l2.25,2.34a10.82,10.82,0,0,0-2,11.49l-4.71,2.37a3.38,3.38,0,1,0,.65,1.35l4.75-2.4a10.89,10.89,0,0,0,7,5.07l-.58,4a4.14,4.14,0,1,0,1.48.21l.58-4c.27,0,.54,0,.81,0A10.84,10.84,0,0,0,34,31.63L37.7,34a5.2,5.2,0,1,0,4.82-3.25ZM39.36,7.5a1.15,1.15,0,1,1-1.15,1.15A1.15,1.15,0,0,1,39.36,7.5Zm-.78,2.42a1.35,1.35,0,0,0,1.56,0,2.58,2.58,0,0,1,1.26,1.9,3.26,3.26,0,0,1-2,.66h-.14a3.26,3.26,0,0,1-2-.66A2.58,2.58,0,0,1,38.58,9.92ZM11.5,7.44A1.58,1.58,0,1,1,9.93,9,1.58,1.58,0,0,1,11.5,7.44Zm2.81,5.94a4.48,4.48,0,0,1-2.71.91h-.2a4.48,4.48,0,0,1-2.71-.91,3.55,3.55,0,0,1,1.74-2.61,1.86,1.86,0,0,0,2.15,0A3.55,3.55,0,0,1,14.31,13.38ZM7.88,31.87a.92.92,0,1,1-.92.92A.92.92,0,0,1,7.88,31.87Zm1.63,3.45a2.61,2.61,0,0,1-1.58.53H7.82a2.61,2.61,0,0,1-1.58-.53,2.06,2.06,0,0,1,1-1.52,1.08,1.08,0,0,0,1.25,0A2.06,2.06,0,0,1,9.51,35.32Zm13.06,6.19a1.11,1.11,0,1,1-1.11,1.11A1.11,1.11,0,0,1,22.57,41.51Zm2,4.18a3.16,3.16,0,0,1-1.91.64H22.5a3.16,3.16,0,0,1-1.91-.64,2.5,2.5,0,0,1,1.22-1.83,1.31,1.31,0,0,0,1.51,0A2.5,2.5,0,0,1,24.54,45.69Zm.73-12.12h0a8.38,8.38,0,0,1,0-16.75h0a8.38,8.38,0,0,1,0,16.75Zm17.25-.67a1.4,1.4,0,1,1-1.4,1.4A1.4,1.4,0,0,1,42.53,32.89ZM45,38.17a4,4,0,0,1-2.41.81h-.18A4,4,0,0,1,40,38.17a3.16,3.16,0,0,1,1.54-2.32,1.65,1.65,0,0,0,1.91,0A3.16,3.16,0,0,1,45,38.17Z"/></svg>