<?xml version="1.0" encoding="utf-8"?>
<!-- Generator: Adobe Illustrator 24.2.1, SVG Export Plug-In . SVG Version: 6.00 Build 0)  -->
<svg version="1.1" id="Layer_1" xmlns="http://www.w3.org/2000/svg" xmlns:xlink="http://www.w3.org/1999/xlink" x="0px" y="0px"
	 viewBox="0 0 50.46 50.46" style="enable-background:new 0 0 50.46 50.46;" xml:space="preserve">
<path d="M45.744,35.105c-0.374,0-0.708-0.263-0.783-0.644c-0.343-1.721-2.046-5.834-5.179-8.015
	c-1.444,0.715-3.044,1.098-4.655,1.111c-1.624-0.031-3.22-0.419-4.661-1.125c-3.108,2.127-4.857,6.32-5.187,7.979
	c-0.086,0.434-0.505,0.718-0.941,0.628c-0.433-0.086-0.714-0.507-0.628-0.94c0.401-2.019,2.469-6.941,6.296-9.273
	c0.243-0.148,0.549-0.156,0.8-0.019c1.325,0.724,2.822,1.122,4.33,1.151c1.487-0.013,2.983-0.406,4.305-1.139
	c0.254-0.14,0.564-0.134,0.811,0.021c4.125,2.569,5.961,7.71,6.278,9.309c0.087,0.434-0.194,0.854-0.628,0.94
	C45.848,35.1,45.795,35.105,45.744,35.105z M42.834,16.459c0-4.349-3.538-7.887-7.887-7.887s-7.887,3.538-7.887,7.887
	s3.538,7.887,7.887,7.887S42.834,20.808,42.834,16.459z M41.235,16.459c0,3.467-2.82,6.287-6.287,6.287s-6.287-2.82-6.287-6.287
	s2.82-6.287,6.287-6.287S41.235,12.992,41.235,16.459z M26.122,44.015c0.434-0.086,0.715-0.507,0.629-0.94
	c-0.318-1.599-2.154-6.741-6.279-9.309c-0.247-0.155-0.557-0.162-0.811-0.021c-1.322,0.733-2.818,1.127-4.304,1.14
	c-1.508-0.03-3.006-0.429-4.331-1.151c-0.25-0.137-0.555-0.129-0.799,0.019c-3.827,2.332-5.895,7.255-6.296,9.273
	c-0.086,0.434,0.195,0.854,0.628,0.94c0.435,0.091,0.855-0.194,0.941-0.628c0.33-1.658,2.079-5.852,5.187-7.979
	c1.441,0.705,3.036,1.093,4.661,1.125c1.611-0.014,3.21-0.396,4.654-1.111c3.134,2.179,4.837,6.293,5.179,8.015
	c0.076,0.381,0.41,0.644,0.784,0.644C26.017,44.031,26.069,44.026,26.122,44.015z M23.056,25.384c0-4.349-3.538-7.887-7.887-7.887
	s-7.887,3.538-7.887,7.887s3.538,7.887,7.887,7.887S23.056,29.733,23.056,25.384z M21.457,25.384c0,3.467-2.82,6.287-6.287,6.287
	s-6.287-2.82-6.287-6.287s2.82-6.287,6.287-6.287S21.457,21.917,21.457,25.384z M41.697,40.533h-3.161
	c-0.164,0-0.298-0.134-0.298-0.298v-3.326c0-0.522-0.425-0.947-0.947-0.947h-0.192c-0.522,0-0.947,0.425-0.947,0.947v3.326
	c0,0.164-0.134,0.298-0.298,0.298h-3.149c-0.522,0-0.947,0.425-0.947,0.947v0.082c0,0.522,0.425,0.947,0.947,0.947h3.149
	c0.164,0,0.298,0.134,0.298,0.298v3.326c0,0.522,0.425,0.947,0.947,0.947h0.192c0.522,0,0.947-0.425,0.947-0.947v-3.326
	c0-0.164,0.134-0.298,0.298-0.298h3.161c0.522,0,0.947-0.425,0.947-0.947V41.48C42.644,40.958,42.219,40.533,41.697,40.533z
	 M22.697,9.005l-0.765-0.191c-0.338-0.092-0.605-0.191-0.794-0.294c-0.195-0.105-0.337-0.235-0.422-0.384
	c-0.083-0.147-0.125-0.332-0.125-0.549c0-0.4,0.182-0.712,0.541-0.927c0.347-0.209,0.931-0.315,1.735-0.315
	c0.36,0,0.742,0.027,1.135,0.08c0.211,0.028,0.419,0.062,0.618,0.102c0.091,0.021,0.185-0.003,0.258-0.063
	c0.071-0.059,0.111-0.145,0.111-0.236V5.196c0-0.143-0.098-0.269-0.233-0.298c-0.491-0.107-1.051-0.172-1.665-0.193L22.97,4.7V3.796
	c0-0.527-0.429-0.957-0.956-0.957c-0.528,0-0.957,0.429-0.957,0.957v1.057L20.96,4.875c-0.804,0.188-1.418,0.524-1.827,1
	c-0.412,0.481-0.621,1.096-0.621,1.827c0,0.744,0.219,1.354,0.65,1.815c0.435,0.464,1.104,0.81,1.988,1.029l0.762,0.198
	c0.378,0.1,0.68,0.207,0.896,0.317c0.221,0.113,0.382,0.249,0.478,0.403c0.096,0.155,0.145,0.348,0.145,0.576
	c0,0.412-0.162,0.728-0.481,0.939c-0.487,0.324-1.489,0.404-2.896,0.196c-0.323-0.048-0.632-0.109-0.918-0.179
	c-0.026-0.007-0.053-0.01-0.079-0.01c-0.068,0-0.134,0.022-0.188,0.065c-0.075,0.058-0.117,0.146-0.117,0.24v1.03
	c0,0.138,0.095,0.26,0.231,0.297c0.261,0.071,0.537,0.131,0.82,0.177c0.377,0.063,0.76,0.104,1.136,0.124l0.119,0.006v0.944
	c0,0.528,0.429,0.957,0.957,0.957c0.527,0,0.956-0.429,0.956-0.957v-1.089l0.094-0.024c0.779-0.198,1.387-0.544,1.806-1.028
	c0.424-0.49,0.639-1.109,0.639-1.841c0-0.751-0.227-1.365-0.674-1.824C24.383,9.603,23.664,9.246,22.697,9.005z"/>
</svg>
