<svg id="Layer_1" data-name="Layer 1" xmlns="http://www.w3.org/2000/svg" viewBox="0 0 50.46 50.46"><defs><style>.cls-1{fill:#12b5e1;}</style></defs><title>incucai</title><path class="cls-1" d="M40.26,8.29H11A2.32,2.32,0,0,0,8.7,10.61V39.85A2.32,2.32,0,0,0,11,42.17H40.26a2.32,2.32,0,0,0,2.32-2.32V10.61A2.32,2.32,0,0,0,40.26,8.29ZM15.77,13.05a3.28,3.28,0,0,1,2-2.08,3.14,3.14,0,0,1,4.06,2.35A3,3,0,0,1,18.45,17,3.06,3.06,0,0,1,15.77,13.05ZM35.63,39a.66.66,0,0,1-.66.66H31.61a.67.67,0,0,1-.67-.66V28.58A4.21,4.21,0,0,0,26.54,24c-1.43,0-3,.1-4.79.27a.66.66,0,0,0-.6.66V37.16h0V39a.67.67,0,0,1-.67.66H17.12a.67.67,0,0,1-.66-.66V21a.66.66,0,0,1,.66-.66h3.37a.66.66,0,0,1,.66.66.66.66,0,0,0,1.05.54,9,9,0,0,1,5.36-1.82c4.89,0,8.07,2.94,8.07,7.51Z"/></svg>