<svg id="Layer_1" data-name="Layer 1" xmlns="http://www.w3.org/2000/svg" viewBox="0 0 50.46 50.46"><defs><style>.cls-1{fill:#65b4e1;}</style></defs><title>industria</title><path class="cls-1" d="M38.53,24.65a.88.88,0,0,0-.83,0l-6.07,3-.08-2.27a.88.88,0,0,0-1.28-.76l-6.07,3-.08-2.27a.88.88,0,0,0-1.28-.76l-5.35,2.66-.58-9.34a1.46,1.46,0,0,0-1.42-1.42H10.88a1.45,1.45,0,0,0-1.42,1.41L7.83,44.73a1.53,1.53,0,0,0,.35,1.06,1.4,1.4,0,0,0,1.07.5l29.77,0a1.4,1.4,0,0,0,1.07-.5,1.52,1.52,0,0,0,.35-1.07C40,36.1,39,25.48,39,25.35A.89.89,0,0,0,38.53,24.65ZM9.62,44.52,11.21,18.3h4l.65,10.43a.88.88,0,0,0,1.28.74l5.32-2.64.08,2.28a.88.88,0,0,0,1.28.76l6.07-3,.08,2.27a.88.88,0,0,0,1.28.76l6.13-3.06c.26,3.41,1,10.78,1.35,17.7Z"/><path class="cls-1" d="M41.74,7.37c-1.26-2.21-4-4-6.62-2.87A3.85,3.85,0,0,0,32.85,8a2.76,2.76,0,0,0,1.86,2.62.88.88,0,0,0,.64-1.65,1,1,0,0,1-.73-1,2.1,2.1,0,0,1,1.19-1.82c1.62-.68,3.5.55,4.4,2.12a5.11,5.11,0,0,1,.32,4.33,7,7,0,0,1-4,4.1c-3.82,1.48-7.84-.91-9.51-4.09-2.26-4.31-6-6.28-10-5.27-3.16.79-5.54,3.35-5.53,5.94a.88.88,0,0,0,.88.88h0a.88.88,0,0,0,.88-.89c0-1.78,1.83-3.63,4.19-4.22,3.19-.79,6.2.84,8.05,4.38a10.23,10.23,0,0,0,8.69,5.49,8.3,8.3,0,0,0,3-.57,8.86,8.86,0,0,0,5-5.16A6.89,6.89,0,0,0,41.74,7.37Z"/><path class="cls-1" d="M21.32,33.65H17.82a.88.88,0,1,0,0,1.77h3.51a.88.88,0,1,0,0-1.77Z"/><path class="cls-1" d="M28.23,33.65H24.72a.88.88,0,1,0,0,1.77h3.51a.88.88,0,1,0,0-1.77Z"/><path class="cls-1" d="M35.14,33.65H31.63a.88.88,0,1,0,0,1.77h3.51a.88.88,0,0,0,0-1.77Z"/></svg>