<?xml version="1.0" encoding="utf-8"?>
<!-- Generator: Adobe Illustrator 22.1.0, SVG Export Plug-In . SVG Version: 6.00 Build 0)  -->
<svg version="1.1" id="Layer_1" xmlns="http://www.w3.org/2000/svg" xmlns:xlink="http://www.w3.org/1999/xlink" x="0px" y="0px"
	 viewBox="0 0 50.5 50.5" style="enable-background:new 0 0 50.5 50.5;" xml:space="preserve">
<style type="text/css">
	.st0{fill:#12B5E1;}
</style>
<g>
	<path class="st0" d="M46.1,40c-0.2-0.7-0.8-1.1-1.5-1.1l-6.9,0c0.1-1.1,0.3-2.2,0.5-2.6c0.5-0.9,1.4-1.2,2.8-1.5
		c1.3-0.3,2.9-0.7,3.7-2.2c0,0,0,0,0,0c0.6-0.8,0.9-2,0.8-3.3c-0.3-3.9-2.1-7.7-3.9-9.8c-2.2-2.5-7.4,0.5-8.7,1.3l-1.2,0.6
		c-1.1,0.5-2.6-0.5-3.7-1.3l-1.2-1.1l3.8,0c1,0,1.8-0.8,1.8-1.8l0-0.4c0-0.5-0.5-0.9-1-0.9L5,15.7c-0.4,0-0.7,0.3-0.7,0.7
		c0,0.4,0.3,0.7,0.7,0.7h8.8c0.5,0.8,1.5,1.8,4.8,1.8l3.3,0l3.5,3c0.6,0.5,1.2,0.9,1.8,1.3c1,0.6,2.3,1.2,3.7,1.2
		c0.6,0,1.3-0.1,1.9-0.4l2.3-1.1c2.3,2.5,2.7,5.7,2.8,7.5L36.2,30c-1.7-0.5-3.5,0.4-4.1,1.9l-1.6,4.4l-1.3,3.6
		c-0.2,0.7,0,1.4,0.6,1.8c0.3,0.2,0.6,0.3,0.9,0.3c0.6,0,1.2-0.4,1.4-1l2.9-7.9c0.1,0,0.2-0.1,0.4,0l1.4,0.4
		c-0.4,0.4-0.9,0.8-1.2,1.4c-1,1.8-1,5.5-1,5.7c0,0.4,0.2,0.8,0.5,1.1c0.3,0.3,0.7,0.4,1.1,0.4c0,0,0.1,0,0.1,0l0.8,0l7.7,0
		c0,0,0,0,0,0C45.6,41.9,46.4,41,46.1,40z"/>
	<path class="st0" d="M31.2,11.5l1.4,0.9c-0.2,0.5-0.4,1.1-0.4,1.6c0,2.3,1.8,4.1,4.1,4.1c1.2,0,2.3-0.6,3.1-1.4l0.7,0.4
		c0,0,0.3,0.1,0.4,0.2c0.7,0.2,0.2-0.7,0.2-1c0-0.1,0.3-0.5,0.3-0.6c0.2-0.4,0.4-0.8,0.5-1.2c0.6-2.6-1-5.1-3.6-5.7
		c-1.8-0.4-3.5,0.3-4.6,1.5c-0.2,0.2-0.4,0.5-0.5,0.8c-0.2,0-1.7-0.6-1.9-0.3C30.6,11,31.2,11.5,31.2,11.5z"/>
	<path class="st0" d="M14.4,15.2h14.5c0.3,0,0.6-0.3,0.6-0.6S29.2,14,28.9,14H14.4c-0.3,0-0.6,0.3-0.6,0.6S14.1,15.2,14.4,15.2z"/>
	<path class="st0" d="M18.1,13.5h3.5c0.3,0,0.6-0.3,0.6-0.6s-0.3-0.6-0.6-0.6h-3.5c-0.3,0-0.6,0.3-0.6,0.6S17.8,13.5,18.1,13.5z"/>
</g>
</svg>
