<svg id="Layer_1" data-name="Layer 1" xmlns="http://www.w3.org/2000/svg" viewBox="0 0 50.46 50.46"><defs><style>.cls-1{fill:#12b5e1;}</style></defs><title>infanteria</title><path class="cls-1" d="M32.77,27.28a.71.71,0,0,0-.79,0,11.66,11.66,0,0,1-13.35.12.67.67,0,0,0-.67-.06.75.75,0,0,0-.36.2A17.83,17.83,0,0,0,9.48,42.22c0,.33,0,.66,0,1v.14a.67.67,0,0,0,.27.51,25.8,25.8,0,0,0,15.42,4.94,25.8,25.8,0,0,0,15.42-4.94.67.67,0,0,0,.27-.51V43.2c0-.32,0-.65,0-1A17.79,17.79,0,0,0,32.77,27.28Zm-1.45,2.1c-1,2.5-4.28,6.1-6.09,7.91-1.8-1.81-5.06-5.41-6.09-7.9a13.15,13.15,0,0,0,12.18,0ZM10.88,42.22A15.76,15.76,0,0,1,13,34.52c2.31,2.8,1.72,8.12,1.24,10.37a22.2,22.2,0,0,1-3.29-2C10.89,42.69,10.88,42.45,10.88,42.22Zm12.35,5.09A26.59,26.59,0,0,1,19,46.63V42.38l4.21.87Zm1.4.06V42.68a.7.7,0,0,0-.56-.68l-5.61-1.17a.71.71,0,0,0-.58.14.7.7,0,0,0-.26.54v4.74c-.72-.23-1.42-.49-2.11-.78.64-2.66,1.33-8.91-1.79-12.17a16.63,16.63,0,0,1,3.9-4c1.11,3.64,6.45,8.87,7.13,9.52a.68.68,0,0,0,.48.19.7.7,0,0,0,.49-.19c.68-.66,6.19-6.06,7.17-9.71a15.65,15.65,0,0,1,3.94,4.13C33.61,36.44,34.3,42.78,35,45.47c-.69.29-1.39.55-2.11.78V41.51a.67.67,0,0,0-.26-.54.71.71,0,0,0-.58-.14L26.39,42a.69.69,0,0,0-.55.68v4.69l-.61,0Zm6.81-.74a26.59,26.59,0,0,1-4.21.68V43.25l4.21-.87Zm8.11-3.71a22.2,22.2,0,0,1-3.29,2c-.48-2.27-1.08-7.68,1.32-10.45a16.4,16.4,0,0,1,2,7.78C39.58,42.45,39.57,42.69,39.55,42.92Z"/><path class="cls-1" d="M15.86,23a1.87,1.87,0,0,0,.39,0,1.94,1.94,0,0,0,.66-.28,9.34,9.34,0,0,0,8.32,5.45c3.48,0,6.47-2.15,8.19-5.57a1.8,1.8,0,0,0,.79.4,1.87,1.87,0,0,0,.39,0c.6,0,1.59-.26,2.27-1.8a12.55,12.55,0,0,0,1.38-6,13.78,13.78,0,0,0-4.17-9.91,12.69,12.69,0,0,0-8.35-3.55h-1a12.67,12.67,0,0,0-8.36,3.55,13.8,13.8,0,0,0-4.17,9.91,12.55,12.55,0,0,0,1.38,6C14.27,22.72,15.26,23,15.86,23Zm1.28-7.91a20.3,20.3,0,0,0,8.05,1.69A20.22,20.22,0,0,0,33,15.19l.47-.19v2.72c0,.26-.08.51-.12.76a1.94,1.94,0,0,1-.61.92,1.54,1.54,0,0,1-1.32.34c-.95-.19-5.91-1.48-6-1.49a.69.69,0,0,0-.35,0s-5,1.3-6,1.49a1.51,1.51,0,0,1-1.31-.34,2,2,0,0,1-.67-1.09c0-.19-.05-.37-.07-.57V15Zm8.09,11.64a8,8,0,0,1-7.45-5.54h0a.58.58,0,0,0,0-.18,3.14,3.14,0,0,0,1.05.19,2.86,2.86,0,0,0,.58-.06c.89-.18,4.95-1.22,5.86-1.46.91.24,5,1.28,5.86,1.46A3,3,0,0,0,32.57,21C31.18,24.48,28.44,26.71,25.23,26.71ZM17.35,6.24a11.38,11.38,0,0,1,15.76,0,12.35,12.35,0,0,1,3.74,8.9,11.26,11.26,0,0,1-1.25,5.47c-.31.68-.72,1-1.1,1a.51.51,0,0,1-.42-.41s0-.06,0-.09a15,15,0,0,0,.61-2.31A3.61,3.61,0,0,0,34.8,18s0-.05,0-.08v0s0,0,0-.06V14.67a.64.64,0,0,0,0-.23l.61-.25a.7.7,0,1,0-.53-1.29l-2.43,1a18.7,18.7,0,0,1-14.73-.11l-2.07-.89a.7.7,0,0,0-.55,1.29l.62.26a.54.54,0,0,0,0,.22v3.11s0,0,0,0h0a2.3,2.3,0,0,1,0,.26,4.46,4.46,0,0,0,.07.51,13.85,13.85,0,0,0,.59,2.66.5.5,0,0,1-.37.31c-.38.08-.79-.28-1.09-1a11.15,11.15,0,0,1-1.26-5.47A12.35,12.35,0,0,1,17.35,6.24Z"/><path class="cls-1" d="M16.2,12.08a35.28,35.28,0,0,0,9.13,1.13,35.64,35.64,0,0,0,8.92-1.07.7.7,0,1,0-.36-1.35,34.17,34.17,0,0,1-8.56,1,33.73,33.73,0,0,1-8.76-1.08.7.7,0,1,0-.37,1.35Z"/><path class="cls-1" d="M21.87,10.8c1,.08,2.08.12,3.13.12a33.88,33.88,0,0,0,3.61-.16.7.7,0,0,0,.62-.77.68.68,0,0,0-.76-.63A31.22,31.22,0,0,1,25,9.52c-1,0-2,0-3-.12a.72.72,0,0,0-.76.64A.71.71,0,0,0,21.87,10.8Z"/></svg>