<?xml version="1.0" encoding="utf-8"?>
<!-- Generator: Adobe Illustrator 22.1.0, SVG Export Plug-In . SVG Version: 6.00 Build 0)  -->
<svg version="1.1" id="Layer_1" xmlns="http://www.w3.org/2000/svg" xmlns:xlink="http://www.w3.org/1999/xlink" x="0px" y="0px"
	 viewBox="0 0 50.5 50.5" style="enable-background:new 0 0 50.5 50.5;" xml:space="preserve">
<style type="text/css">
	.st0{fill:#12B5E1;}
</style>
<g>
	<g>
		<path class="st0" d="M45.4,15H34.5c0,0,0-0.1,0-0.1c0-0.2-0.2-0.4-0.4-0.4h-2.9c0-0.1,0-0.1,0-0.2c0-0.2-0.2-0.4-0.4-0.4h-1.3
			c-0.2,0-0.4,0.2-0.4,0.4c0,0.1,0,0.1,0,0.2h-0.8c-0.2,0-0.4,0.2-0.4,0.4c0,0,0,0.1,0,0.1h-1.9c0,0-0.1,0-0.1,0l-1,0.4
			c0.7-0.8,1.1-1.9,0.9-3c0.7-0.3,1.6-0.8,1.4-1.3c-0.1-0.3-0.7-0.3-0.9-0.4c-0.6-1.9-2.3-3.2-4.3-3.2c-2.5,0-4.5,2-4.5,4.5
			c0,0.4,0.1,0.8,0.2,1.2c0,0.2,0,0.3,0,0.4c-0.1,0.3-0.5,1.5,0.8,1.1c0.1,0.1,0.1,0.1,0.2,0.2L4.9,40.6c-0.4,0.8-0.1,1.7,0.6,2.2
			C5.8,42.9,6,43,6.3,43c0.6,0,1.1-0.3,1.4-0.8l7.6-13.9l7.5,5.4l-0.2,7.7c0,0.9,0.7,1.6,1.6,1.6c0,0,0,0,0,0c0.9,0,1.6-0.7,1.6-1.6
			l0.2-8.5c0-0.5-0.2-1-0.7-1.3l-6-4.4l3.4-6.2l3.4,1.8c0.7,0.4,1.5,0.2,2-0.3l4.6-5.1c0.1-0.1,0.2-0.3,0.3-0.4h5.2
			c0.4,0,0.7-0.3,0.7-0.7c0-0.2-0.1-0.4-0.3-0.6h7c0.2,0,0.4-0.2,0.4-0.4S45.6,15,45.4,15z M26.5,19.4l-2.3-1.2h2.2
			c0.4,0,0.7-0.3,0.7-0.7c0-0.2-0.1-0.4-0.3-0.6h1.9L26.5,19.4z"/>
	</g>
</g>
</svg>
