<svg id="Layer_1" data-name="Layer 1" xmlns="http://www.w3.org/2000/svg" viewBox="0 0 50.46 50.46"><defs><style>.cls-1{fill:#12b5e1;}</style></defs><title>informacion envio</title><path class="cls-1" d="M34.23,5.14H15.12l-8,10.41,0,0V38.73a4.58,4.58,0,0,0,4.55,4.59H37.75a4.57,4.57,0,0,0,4.54-4.59V15.58l-8-10.4ZM16,7h8.08v8.54H9.68ZM40.48,38.73a2.75,2.75,0,0,1-2.73,2.76H11.66a2.75,2.75,0,0,1-2.74-2.76V17.35H40.48ZM25.93,15.52V7h7.43l6.44,8.54Z"/><path class="cls-1" d="M24.7,38.42a9,9,0,1,0-9-9A9,9,0,0,0,24.7,38.42Zm2-15.5a1.07,1.07,0,0,1,1.13,1.19,1.54,1.54,0,0,1-1.53,1.62,1.11,1.11,0,0,1-1.19-1.14A1.62,1.62,0,0,1,26.68,22.92Zm-2.79,6a5.73,5.73,0,0,0-1.79,1.14.39.39,0,0,1-.32-.48,6.47,6.47,0,0,1,4-2.31,1,1,0,0,1,.92.89,3.22,3.22,0,0,1-.26.88L24.39,34c-.08.18-.06.3.08.3a6.12,6.12,0,0,0,1.89-1.26.39.39,0,0,1,.38.48,6.12,6.12,0,0,1-4.22,2.39,1,1,0,0,1-.92-.8,2.49,2.49,0,0,1,.24-.87l2.09-5C24,29.09,24,29,23.89,29Z"/></svg>