<svg id="Layer_1" data-name="Layer 1" xmlns="http://www.w3.org/2000/svg" viewBox="0 0 50.46 50.46"><defs><style>.cls-1{fill:#12b5e1;}</style></defs><title>informes y estadisticas</title><path class="cls-1" d="M12.87,27.22V38.14h4.41V27.22a2.21,2.21,0,1,0-4.41,0Z"/><path class="cls-1" d="M22.63,15.58a2.2,2.2,0,0,0-2.2,2.21V38.14h4.41V17.79A2.21,2.21,0,0,0,22.63,15.58Z"/><path class="cls-1" d="M32.4,9.54a2.21,2.21,0,1,0-4.42,0v28.6H32.4Z"/><path class="cls-1" d="M40,20.49a2.21,2.21,0,0,0-4.42,0V38.14H40Z"/><path class="cls-1" d="M44.55,40.1h-34V6.41a.91.91,0,1,0-1.82,0V40.1H5.91a.92.92,0,1,0,0,1.83H8.69v2.12a.91.91,0,1,0,1.82,0V41.93h34a.92.92,0,1,0,0-1.83Z"/><path class="cls-1" d="M12.87,23.51a.56.56,0,0,0,.45-.22L24.72,8.65V9.89a.56.56,0,0,0,.56.57h0a.57.57,0,0,0,.57-.57V7s0,0,0,0a.53.53,0,0,0,0-.17s0,0,0-.06a.7.7,0,0,0-.15-.19h0a.78.78,0,0,0-.21-.09h-.27l-2.76.75a.56.56,0,0,0-.41.69.57.57,0,0,0,.7.41L23.8,8,12.42,22.59a.56.56,0,0,0,.1.8A.55.55,0,0,0,12.87,23.51Z"/></svg>