<?xml version="1.0" encoding="utf-8"?>
<!-- Generator: Adobe Illustrator 28.0.0, SVG Export Plug-In . SVG Version: 6.00 Build 0)  -->
<svg version="1.1" id="Layer_1" xmlns="http://www.w3.org/2000/svg" xmlns:xlink="http://www.w3.org/1999/xlink" x="0px" y="0px"
	 viewBox="0 0 50.5 50.5" style="enable-background:new 0 0 50.5 50.5;" xml:space="preserve">
<g>
	<polygon points="38.65,50.46 50.46,50.46 50.46,0.993 	"/>
	<polygon points="0,49.596 11.982,0 0,0 	"/>
	<polygon points="26.851,2.053 28.904,0 26.641,0 26.428,0.213 	"/>
	<polygon points="27.728,5.864 33.592,0 31.329,0 27.305,4.024 	"/>
	<polygon points="28.605,9.675 36.522,1.758 37.008,0 36.017,0 28.182,7.835 	"/>
	<polygon points="29.482,13.486 34.733,8.235 35.597,5.109 29.059,11.647 	"/>
	<polygon points="33.808,11.585 29.936,15.458 30.359,17.297 32.945,14.712 	"/>
	<polygon points="31.21,20.995 32.02,18.062 30.813,19.269 	"/>
	<polygon points="19.035,29.401 18.421,32.076 19.438,31.059 	"/>
	<polygon points="17.026,38.161 20.356,34.831 19.913,33.01 17.699,35.224 	"/>
	<polygon points="15.63,44.244 21.273,38.602 20.83,36.781 16.304,41.307 	"/>
	<polygon points="21.747,40.552 14.908,47.391 14.234,50.328 22.19,42.373 	"/>
	<polygon points="18.791,50.46 23.107,46.144 22.664,44.323 16.528,50.46 	"/>
	<polygon points="23.479,50.46 24.024,49.915 23.581,48.094 21.216,50.46 	"/>
</g>
</svg>
