<?xml version="1.0" encoding="utf-8"?>
<!-- Generator: Adobe Illustrator 24.2.1, SVG Export Plug-In . SVG Version: 6.00 Build 0)  -->
<svg version="1.1" id="Capa_1" xmlns="http://www.w3.org/2000/svg" xmlns:xlink="http://www.w3.org/1999/xlink" x="0px" y="0px"
	 viewBox="0 0 50.5 50.5" style="enable-background:new 0 0 50.5 50.5;" xml:space="preserve">
<style type="text/css">
	.st0{fill:#1D1D1B;}
</style>
<g>
	<g>
		<path class="st0" d="M28.792,16.109c0-1.445,0-2.83,0-4.216c0-1.143-0.001-2.286,0.002-3.429c0.001-0.495,0.343-0.84,0.816-0.838
			c0.466,0.002,0.821,0.356,0.824,0.84c0.005,0.76,0.001,1.52,0.001,2.342c0.245-0.332,0.446-0.621,0.664-0.896
			c0.987-1.246,2.278-1.892,3.863-2.006c0.907-0.065,1.786,0.049,2.661,0.251c0.655,0.152,0.91,0.601,0.717,1.246
			c-0.423,1.416-1.048,2.726-2.122,3.772c-0.89,0.866-1.976,1.307-3.209,1.441c-0.866,0.094-1.709,0.005-2.563-0.187v1.627
			c0.403-0.235,0.781-0.489,1.186-0.686c1.43-0.693,2.928-0.753,4.445-0.379c1.43,0.353,2.75,0.948,3.899,1.893
			c1.385,1.139,2.28,2.576,2.582,4.343c0.09,0.523,0.248,0.801,0.776,1.031c1.759,0.765,2.79,2.168,3.099,4.053
			c0.235,1.439-0.134,2.785-0.867,4.026c-0.706,1.195-1.649,2.198-2.672,3.124c-1.432,1.297-2.969,2.46-4.589,3.514
			c-0.528,0.344-0.786,0.349-1.309-0.002c-0.516-0.348-1.029-0.701-1.544-1.051c-0.452,0.253-0.901,0.523-1.366,0.76
			c-0.863,0.441-1.784,0.71-2.755,0.602c-0.51-0.056-1.001-0.275-1.504-0.411c-0.119-0.033-0.276-0.081-0.37-0.033
			c-1.273,0.655-2.556,0.555-3.843,0.066c-1.22-0.463-2.259-1.214-3.205-2.094c-2.13-1.981-3.708-4.347-4.827-7.025
			c-0.508-1.216-0.88-2.473-1.034-3.781c-0.187-1.582-0.041-3.131,0.652-4.593c0.645-1.362,1.649-2.398,2.927-3.176
			c1.15-0.699,2.383-1.196,3.715-1.391c1.749-0.257,3.369,0.091,4.803,1.165C28.679,16.037,28.711,16.055,28.792,16.109
			 M40.993,21.79c-0.115-0.8-0.365-1.529-0.789-2.189c-0.89-1.387-2.189-2.238-3.72-2.765c-0.968-0.334-1.957-0.517-2.983-0.329
			c-1.302,0.239-2.299,0.954-3.086,1.994c-0.51,0.676-1.071,0.668-1.605,0.02c-0.308-0.374-0.638-0.74-1.008-1.052
			c-0.912-0.767-1.992-1.087-3.171-1.027c-0.981,0.05-1.908,0.341-2.797,0.752c-2.531,1.171-3.81,3.205-3.704,5.939
			c0.045,1.154,0.333,2.265,0.725,3.348c0.726,2.003,1.781,3.817,3.128,5.465c0.938,1.147,1.971,2.195,3.261,2.944
			c0.854,0.496,1.751,0.933,2.784,0.703c0.349-0.077,0.686-0.26,0.998-0.445c0.469-0.279,0.725-0.295,1.175,0.015
			c0.104,0.071,0.207,0.144,0.317,0.206c1.022,0.574,2.461,0.187,3.484-0.537c-0.383-0.331-0.769-0.659-1.148-0.994
			c-1.16-1.022-2.248-2.113-3.065-3.438c-0.762-1.236-1.135-2.585-0.925-4.038c0.189-1.314,0.784-2.432,1.816-3.296
			c1.694-1.42,3.58-1.632,5.598-0.849c0.499,0.194,0.949,0.516,1.431,0.785C38.635,22.233,39.745,21.85,40.993,21.79 M37.654,35.418
			c0.019-0.011,0.046-0.021,0.068-0.038c1.211-0.933,2.445-1.837,3.625-2.807c1.079-0.887,2.079-1.87,2.79-3.09
			c0.671-1.151,0.962-2.383,0.463-3.682c-0.789-2.056-3.03-2.881-4.949-2.053c-0.556,0.24-1.011,0.611-1.426,1.046
			c-0.324,0.34-0.772,0.34-1.121,0.028c-0.109-0.098-0.207-0.207-0.311-0.312c-1.461-1.477-3.815-1.488-5.26,0.004
			c-1.096,1.131-1.309,2.476-0.832,3.946c0.378,1.163,1.167,2.056,1.991,2.917C34.177,32.926,35.877,34.213,37.654,35.418
			 M31.293,12.892c2.199,0.417,4.157-0.29,5.217-3.255C34.27,9.253,32.462,9.878,31.293,12.892"/>
	</g>
	<g>
		<path class="st0" d="M6.293,42.874c-0.489,0-0.898-0.138-1.288-0.434C1.26,39.604,1.26,39.584,1.26,39.074
			c0-0.07,0-0.103-0.001-0.123c-0.006-0.059-0.008-0.11-0.008-0.253c0-0.456,0.369-0.825,0.825-0.825h2.442v-8.526
			c0-0.456,0.369-0.825,0.825-0.825h2.249c0.456,0,0.825,0.369,0.825,0.825v3.688h0.653v-1.099c0-0.456,0.369-0.825,0.825-0.825
			h0.909v-4.862c0-0.456,0.369-0.825,0.825-0.825H13.9c0.456,0,0.825,0.369,0.825,0.825v4.827h1.473
			c0.456,0,0.825,0.369,0.825,0.825v2.639c0,0.456-0.369,0.825-0.825,0.825h-0.361v2.458h32.588c0.314,0,0.601,0.179,0.74,0.46
			c0.139,0.282,0.106,0.618-0.086,0.867l-0.444,0.578c-0.3,0.391-0.585,0.763-0.872,1.134c-1.408,1.824-4.255,2.016-5.425,2.011
			h-0.021c-11.254-0.009-23.711-0.008-36.024,0C6.294,42.874,6.293,42.874,6.293,42.874z M3.911,39.523
			c0.524,0.409,1.22,0.943,2.091,1.603c0.101,0.077,0.166,0.099,0.291,0.099c0,0,0,0,0.001,0c12.313-0.009,24.771-0.009,36.026,0
			h0.024c0.007,0,0.013,0,0.02,0c0.74,0,3.117-0.103,4.095-1.37c0.098-0.127,0.196-0.254,0.294-0.382h-31.74
			c-0.456,0-0.825-0.369-0.825-0.825V34.54c0-0.456,0.369-0.825,0.825-0.825h0.361v-0.99H13.9c-0.456,0-0.825-0.369-0.825-0.825
			v-4.827h-0.622v4.862c0,0.456-0.369,0.825-0.825,0.825h-0.909v1.099c0,0.456-0.369,0.825-0.825,0.825H7.591
			c-0.456,0-0.825-0.369-0.825-0.825v-3.688h-0.6v8.526c0,0.456-0.369,0.825-0.825,0.825H3.911z"/>
	</g>
</g>
</svg>
