<svg id="Layer_1" data-name="Layer 1" xmlns="http://www.w3.org/2000/svg" viewBox="0 0 50.46 50.46"><defs><style>.cls-1{fill:#12b5e1;}</style></defs><title>instructor de tiro</title><path class="cls-1" d="M28.29,15.91a2.53,2.53,0,0,0-2.53-2.53H22.18L20.94,12a.36.36,0,0,0-.24-.09H5l-.11-.3a.39.39,0,0,0-.37-.29h-.2v.58H3.78c-.24,0-.26.2-.26.41s0,.43.25.44H9.25a.6.6,0,0,0-.06.27.69.69,0,0,0,.69.69h1.39a1.68,1.68,0,0,0,.41,1.07L16,19.58a1.66,1.66,0,0,0,1.22.54,1.6,1.6,0,0,0,.79-.2l.1-.06,2.29-1.28,0,25.41a1.64,1.64,0,1,0,3.27,0V31.61H25V44a1.64,1.64,0,1,0,3.27,0Zm-10.41.33a.49.49,0,0,1-.58-.1L15.11,13.7h4v.14A1.11,1.11,0,0,0,20.2,15C19.42,15.38,18.64,15.81,17.88,16.24Z"/><circle class="cls-1" cx="24.82" cy="8.81" r="3.98" transform="translate(7.18 28.37) rotate(-67.5)"/><path class="cls-1" d="M13.52,11.44h6.06c.21,0,.23-.17.23-.38s0-.38-.23-.38H13.52c-.21,0-.25.17-.25.38S13.31,11.44,13.52,11.44Z"/><path class="cls-1" d="M43.72,15.32a6.4,6.4,0,0,0-4.77-2h0a6.4,6.4,0,0,0-4.77,2c-3.36,3.47-3.24,10.19-3.22,11a1.64,1.64,0,0,0,1.64,1.58h0a1.64,1.64,0,0,0,1.58-1.69A19.55,19.55,0,0,1,35,20.38V31.61h0V44a1.64,1.64,0,1,0,3.27,0V31.61h1.33V44a1.64,1.64,0,1,0,3.27,0V26.75a.25.25,0,0,0,0-.08V20.38a19.29,19.29,0,0,1,.8,5.78,1.64,1.64,0,0,0,1.58,1.69h0a1.64,1.64,0,0,0,1.64-1.58C47,25.51,47.08,18.79,43.72,15.32Z"/><path class="cls-1" d="M38.93,12.8a4,4,0,1,0-4-4A4,4,0,0,0,38.93,12.8Z"/></svg>