<?xml version="1.0" encoding="utf-8"?>
<!-- Generator: Adobe Illustrator 24.2.1, SVG Export Plug-In . SVG Version: 6.00 Build 0)  -->
<svg version="1.1" id="Layer_1" xmlns="http://www.w3.org/2000/svg" xmlns:xlink="http://www.w3.org/1999/xlink" x="0px" y="0px"
	 viewBox="0 0 50.5 50.5" style="enable-background:new 0 0 50.5 50.5;" xml:space="preserve">
<g>
	<path d="M33.2,15.8c-1,0-1.8,0.8-1.8,1.8c0,1,0.8,1.8,1.8,1.8c1,0,1.8-0.8,1.8-1.8C35,16.6,34.2,15.8,33.2,15.8"/>
	<path d="M25.2,30.5c-2.8,0-5-2.2-5-5c0-2.8,2.2-5,5-5c2.8,0,5,2.2,5,5C30.2,28.3,28,30.5,25.2,30.5 M25.2,17.9
		c-4.2,0-7.7,3.4-7.7,7.7c0,4.2,3.4,7.7,7.7,7.7c4.2,0,7.7-3.4,7.7-7.7C32.9,21.3,29.5,17.9,25.2,17.9"/>
	<path d="M37.4,31.6c-0.1,1.5-0.3,2.3-0.5,2.8c-0.3,0.7-0.6,1.2-1.1,1.7c-0.5,0.5-1,0.9-1.7,1.1c-0.5,0.2-1.3,0.5-2.8,0.5
		c-1.6,0.1-2.1,0.1-6,0.1c-4,0-4.5,0-6-0.1c-1.5-0.1-2.3-0.3-2.8-0.5c-0.7-0.3-1.2-0.6-1.7-1.1c-0.5-0.5-0.8-1-1.1-1.7
		c-0.2-0.5-0.4-1.3-0.5-2.8c-0.1-1.6-0.1-2-0.1-6c0-4,0-4.5,0.1-6c0.1-1.5,0.3-2.3,0.5-2.8c0.3-0.7,0.6-1.2,1.1-1.7
		c0.5-0.5,1-0.9,1.7-1.1c0.5-0.2,1.3-0.5,2.8-0.5c1.6-0.1,2-0.1,6-0.1c4,0,4.5,0,6,0.1c1.5,0.1,2.3,0.3,2.8,0.5
		c0.7,0.3,1.2,0.6,1.7,1.1c0.5,0.5,0.9,1,1.1,1.7c0.2,0.5,0.4,1.3,0.5,2.8c0.1,1.6,0.1,2.1,0.1,6C37.5,29.5,37.5,30,37.4,31.6
		 M25.2,3.8c-11.8,0-21.4,9.6-21.4,21.4s9.6,21.4,21.4,21.4c11.8,0,21.4-9.6,21.4-21.4S37,3.8,25.2,3.8"/>
</g>
</svg>
