<?xml version="1.0" encoding="utf-8"?>
<!-- Generator: Adobe Illustrator 24.2.1, SVG Export Plug-In . SVG Version: 6.00 Build 0)  -->
<svg version="1.1" id="Layer_1" xmlns="http://www.w3.org/2000/svg" xmlns:xlink="http://www.w3.org/1999/xlink" x="0px" y="0px"
	 viewBox="0 0 50.5 50.5" style="enable-background:new 0 0 50.5 50.5;" xml:space="preserve">
<path d="M25.3,14.3c-6.1,0-10.9,4.9-10.9,10.9s4.9,10.9,10.9,10.9s10.9-4.9,10.9-10.9S31.3,14.3,25.3,14.3z M25.3,32.4
	c-3.9,0-7.1-3.2-7.1-7.1s3.2-7.1,7.1-7.1s7.1,3.2,7.1,7.1S29.2,32.4,25.3,32.4L25.3,32.4z M39.2,13.9c0,1.4-1.1,2.6-2.6,2.6
	c-1.4,0-2.6-1.1-2.6-2.6s1.1-2.6,2.6-2.6C38.1,11.3,39.2,12.5,39.2,13.9z M46.4,16.5c-0.1-3.5-0.9-6.5-3.4-9s-5.5-3.3-8.9-3.4
	c-3.5-0.2-14.1-0.2-17.6,0C13,4.2,10,5,7.5,7.5S4.2,13,4.1,16.4C3.9,20,3.9,30.5,4.1,34c0.1,3.5,0.9,6.5,3.4,9s5.5,3.3,8.9,3.4
	c3.5,0.2,14.1,0.2,17.6,0c3.4-0.2,6.4-0.9,8.9-3.4s3.3-5.5,3.4-8.9C46.6,30.5,46.6,20,46.4,16.5L46.4,16.5z M41.9,37.8
	c-0.7,1.9-2.2,3.3-4.1,4.1c-2.8,1.1-9.5,0.9-12.6,0.9s-9.8,0.2-12.6-0.9c-1.9-0.7-3.3-2.2-4.1-4.1c-1-2.8-0.7-9.4-0.7-12.5
	s-0.2-9.8,0.9-12.6c0.7-1.9,2.2-3.3,4.1-4.1c2.8-1.1,9.5-0.9,12.6-0.9S35,7.5,37.8,8.6c1.9,0.7,3.3,2.2,4.1,4.1
	c1.1,2.8,0.9,9.5,0.9,12.6S43,35,41.9,37.8z"/>
</svg>
