<svg id="Layer_1" data-name="Layer 1" xmlns="http://www.w3.org/2000/svg" viewBox="0 0 50.46 50.46"><defs><style>.cls-1{fill:#65b4e1;}</style></defs><title>interes cultural</title><path class="cls-1" d="M32.72,44.94a.55.55,0,0,1-.87.45l-5.26-3.65a2.43,2.43,0,0,0-2.73,0l-5.33,3.62a.54.54,0,0,1-.57,0,.54.54,0,0,1-.29-.49l0-8.73L15.86,33.4l0,11.48a2.41,2.41,0,0,0,3.77,2l5.33-3.62a.55.55,0,0,1,.62,0l5.26,3.65a2.4,2.4,0,0,0,1.37.43,2.43,2.43,0,0,0,1.12-.27A2.4,2.4,0,0,0,34.58,45l0-11.54L32.77,36.1Z"/><path class="cls-1" d="M40,16.13a2.36,2.36,0,0,1-1-2.95A3.73,3.73,0,0,0,39,9.53a3.64,3.64,0,0,0-3.67-1.46A2.36,2.36,0,0,1,32.8,6.24c-.46-2.31-2-3.13-3.31-3.13a4,4,0,0,0-2.71,1.18,2.43,2.43,0,0,1-3.1,0A4,4,0,0,0,21,3.11c-1.29,0-2.84.82-3.31,3.13a2.34,2.34,0,0,1-2.51,1.82,3.63,3.63,0,0,0-3.67,1.46,3.73,3.73,0,0,0-.05,3.66,2.36,2.36,0,0,1-1,2.95A3.71,3.71,0,0,0,8.36,19.3a3.71,3.71,0,0,0,2.11,3.16,2.36,2.36,0,0,1,1,3,3.73,3.73,0,0,0,.05,3.66,3.64,3.64,0,0,0,3.67,1.46,2.35,2.35,0,0,1,2.51,1.82c.46,2.31,2,3.14,3.31,3.14a4,4,0,0,0,2.71-1.18,2.43,2.43,0,0,1,3.1,0,4,4,0,0,0,2.71,1.18c1.29,0,2.84-.82,3.31-3.14a2.35,2.35,0,0,1,2.51-1.82A3.65,3.65,0,0,0,39,29.07,3.73,3.73,0,0,0,39,25.41a2.36,2.36,0,0,1,1-3A3.71,3.71,0,0,0,42.1,19.3,3.71,3.71,0,0,0,40,16.13Zm-.91,4.71a4.23,4.23,0,0,0-1.74,5.35,2,2,0,0,1,.07,1.88,1.86,1.86,0,0,1-1.89.62A4.23,4.23,0,0,0,31,32c-.21,1-.76,1.64-1.48,1.64A2.23,2.23,0,0,1,28,32.94a4.23,4.23,0,0,0-5.62,0,2.23,2.23,0,0,1-1.45.69c-.72,0-1.28-.61-1.48-1.64a4.23,4.23,0,0,0-4.55-3.3,1.87,1.87,0,0,1-1.89-.62,2,2,0,0,1,.07-1.88,4.23,4.23,0,0,0-1.74-5.35,1.91,1.91,0,0,1-1.16-1.54,1.91,1.91,0,0,1,1.16-1.54,4.23,4.23,0,0,0,1.74-5.35,2,2,0,0,1-.07-1.88,1.87,1.87,0,0,1,1.89-.62,4.23,4.23,0,0,0,4.55-3.3C19.69,5.58,20.25,5,21,5a2.23,2.23,0,0,1,1.45.69,4.23,4.23,0,0,0,5.62,0A2.23,2.23,0,0,1,29.49,5c.72,0,1.28.61,1.48,1.64a4.23,4.23,0,0,0,4.55,3.3,1.86,1.86,0,0,1,1.89.62,2,2,0,0,1-.07,1.88,4.23,4.23,0,0,0,1.74,5.35,1.91,1.91,0,0,1,1.16,1.54A1.91,1.91,0,0,1,39.07,20.84Z"/><path class="cls-1" d="M25.23,9A10.33,10.33,0,1,0,35.56,19.3,10.34,10.34,0,0,0,25.23,9Zm0,18.8A8.47,8.47,0,1,1,33.7,19.3,8.48,8.48,0,0,1,25.23,27.77Z"/><path class="cls-1" d="M26.56,21.79a1.71,1.71,0,0,1-1.18.43,1.88,1.88,0,0,1-1.51-.68,3.56,3.56,0,0,1-.58-2.29,3.32,3.32,0,0,1,.59-2.2,1.93,1.93,0,0,1,1.53-.68,1.75,1.75,0,0,1,1.79,1.43l1.7-.41A3.35,3.35,0,0,0,28,15.83a3.53,3.53,0,0,0-2.53-.92,3.75,3.75,0,0,0-2.88,1.17,4.64,4.64,0,0,0-1.1,3.29,4.42,4.42,0,0,0,1.09,3.16,3.66,3.66,0,0,0,2.78,1.16A3.63,3.63,0,0,0,27.66,23a3.73,3.73,0,0,0,1.27-2.07l-1.66-.53A2.52,2.52,0,0,1,26.56,21.79Z"/></svg>