<?xml version="1.0" encoding="utf-8"?>
<!-- Generator: Adobe Illustrator 24.2.1, SVG Export Plug-In . SVG Version: 6.00 Build 0)  -->
<svg version="1.1" id="Capa_1" xmlns="http://www.w3.org/2000/svg" xmlns:xlink="http://www.w3.org/1999/xlink" x="0px" y="0px"
	 viewBox="0 0 50.5 50.5" style="enable-background:new 0 0 50.5 50.5;" xml:space="preserve">
<style type="text/css">
	.st0{fill:#1D1D1B;}
</style>
<path d="M44.2,15.1h-3.3c-0.5,0-1,0.4-1,1s0.4,1,1,1h2.9v23.7c0,1.2-1,2.2-2.2,2.2H8.4c-1.2,0-2.2-1-2.2-2.2V17h2.9c0.5,0,1-0.4,1-1
	s-0.4-1-1-1H5.8c-0.8,0-1.5,0.7-1.5,1.5v24.1c0,2.2,1.8,4.1,4.1,4.1h33.1c2.2,0,4.1-1.8,4.1-4.1V16.5C45.6,15.7,45,15.1,44.2,15.1z"
	/>
<path d="M9.4,11.2c4.3,2.3,4.6,10,4.6,12.3c0,0.1,0,0.2-0.1,0.2c0,0-0.1,0.1-0.2,0.1h-2.9c-0.3,0-0.6,0.2-0.7,0.4S10,24.7,10.2,25
	l6.9,9.8c0.2,0.2,0.4,0.3,0.7,0.3h0c0.3,0,0.5-0.1,0.7-0.3l6.7-9.6c0.2-0.2,0.2-0.6,0.1-0.8c-0.1-0.3-0.4-0.4-0.7-0.4h-2.8
	c-0.2,0-0.3-0.1-0.3-0.3C21.2,9.9,9.9,9.7,9.8,9.7c0,0,0,0,0,0c-0.4,0-0.7,0.2-0.8,0.6C8.9,10.6,9.1,11,9.4,11.2z M19.7,23.6
	c0,1,0.8,1.9,1.9,1.9h1.3l-5.2,7.4l-5.3-7.6h1.4c0.5,0,1-0.2,1.3-0.6c0.4-0.4,0.5-0.8,0.5-1.3c0-2.6-0.4-8.2-3.1-11.7
	C15.5,12.8,19.6,15.6,19.7,23.6z"/>
<path d="M29.9,24.9c0.1,0,0.2,0.1,0.3,0.1s0.2,0,0.3-0.1c8.6-4,8.8-16.1,8.8-16.6c0-0.4-0.3-0.8-0.7-0.8c-2.7-0.2-7.9-3.2-8-3.2
	c-0.2-0.1-0.5-0.1-0.8,0c-0.1,0-5.3,3-8,3.2c-0.4,0-0.7,0.4-0.7,0.8C21.1,8.8,21.3,20.9,29.9,24.9z M30.2,5.9
	C31.4,6.6,35,8.5,37.7,9c-0.2,2.5-1.2,11.1-7.5,14.3c-6.3-3.2-7.3-11.8-7.5-14.3C25.3,8.5,29,6.6,30.2,5.9z"/>
<path d="M32.7,18.7c0.7,0,1.2-0.6,1.2-1.2v-4.1c0-0.7-0.5-1.4-1.2-1.6v-0.7c0-1.5-1.1-2.7-2.4-2.7s-2.4,1.2-2.4,2.7v0.7
	c-0.7,0.2-1.2,0.9-1.2,1.6v4.1c0,0.7,0.6,1.2,1.2,1.2H32.7z M28.3,13.3C28.3,13.2,28.4,13.2,28.3,13.3l0.4-0.1
	c0.4,0,0.8-0.4,0.8-0.8v-1.5c0-0.6,0.4-1.1,0.8-1.1c0.5,0,0.8,0.5,0.8,1.1v1.5c0,0.4,0.4,0.8,0.8,0.8h0.3c0,0,0.1,0,0.1,0.1v3.8h-4
	V13.3z"/>
<path class="st0" d="M30.3,13.7c-0.4,0-0.8,0.4-0.8,0.8c0,0.3,0.1,0.5,0.3,0.6v0.4c0,0.3,0.2,0.5,0.5,0.5s0.5-0.2,0.5-0.5v-0.4
	c0.2-0.1,0.3-0.4,0.3-0.6C31.1,14.1,30.8,13.7,30.3,13.7z"/>
</svg>
