<?xml version="1.0" encoding="utf-8"?>
<!-- Generator: Adobe Illustrator 24.2.1, SVG Export Plug-In . SVG Version: 6.00 Build 0)  -->
<svg version="1.1" id="Capa_1" xmlns="http://www.w3.org/2000/svg" xmlns:xlink="http://www.w3.org/1999/xlink" x="0px" y="0px"
	 viewBox="0 0 50.5 50.5" style="enable-background:new 0 0 50.5 50.5;" xml:space="preserve">
<path d="M20.7,24.9C20.9,25,21,25,21.1,25s0.2,0,0.3-0.1c8.6-4,8.8-16.1,8.8-16.6c0-0.4-0.3-0.8-0.7-0.8c-2.7-0.2-7.9-3.2-8-3.2
	c-0.2-0.1-0.5-0.1-0.8,0c-0.1,0-5.3,3-8,3.2c-0.4,0-0.7,0.4-0.7,0.8C12,8.8,12.2,20.9,20.7,24.9z M21.1,5.9c1.2,0.7,4.9,2.6,7.5,3.1
	c-0.2,2.5-1.2,11.1-7.5,14.3c-6.3-3.2-7.3-11.8-7.5-14.3C16.2,8.5,19.9,6.6,21.1,5.9z"/>
<path d="M23.6,18.7c0.7,0,1.2-0.6,1.2-1.2v-4.1c0-0.7-0.5-1.4-1.2-1.6v-0.7c0-1.5-1.1-2.7-2.4-2.7s-2.4,1.2-2.4,2.7v0.7
	c-0.7,0.2-1.2,0.9-1.2,1.6v4.1c0,0.7,0.6,1.2,1.2,1.2H23.6z M19.2,13.3C19.2,13.2,19.3,13.2,19.2,13.3l0.4-0.1
	c0.4,0,0.8-0.4,0.8-0.8v-1.5c0-0.6,0.4-1.1,0.8-1.1s0.8,0.5,0.8,1.1v1.5c0,0.4,0.4,0.8,0.8,0.8h0.3c0,0,0.1,0,0.1,0.1v3.8h-4V13.3z"
	/>
<path d="M21.2,13.7c-0.4,0-0.8,0.4-0.8,0.8c0,0.3,0.1,0.5,0.3,0.6v0.4c0,0.3,0.2,0.5,0.5,0.5c0.3,0,0.5-0.2,0.5-0.5v-0.4
	c0.2-0.1,0.3-0.4,0.3-0.6C22,14.1,21.7,13.7,21.2,13.7z"/>
<path d="M44.2,15.1h-3.3c-0.5,0-1,0.4-1,1s0.4,1,1,1h2.9v23.7c0,1.2-1,2.2-2.2,2.2H8.4c-1.2,0-2.2-1-2.2-2.2V17h3.4c0.5,0,1-0.4,1-1
	s-0.4-1-1-1H5.8c-0.8,0-1.5,0.7-1.5,1.5v24.1c0,2.2,1.8,4.1,4.1,4.1h33.1c2.2,0,4.1-1.8,4.1-4.1V16.5C45.6,15.7,45,15.1,44.2,15.1z"
	/>
<path d="M27,26.8c0.1,0.3,0.4,0.4,0.7,0.4h2.7c0.1,0,0.1,0,0.1,0.1c0,0,0.1,0.1,0.1,0.1c0,2.1-0.3,9-4.2,11.1
	c-0.3,0.2-0.5,0.5-0.4,0.9c0.1,0.4,0.4,0.6,0.8,0.6c0,0,0,0,0,0c0.1,0,10.4-0.2,10.5-12.7c0-0.1,0.1-0.2,0.2-0.2h2.6
	c0.3,0,0.6-0.2,0.7-0.4s0.1-0.6-0.1-0.8l-6.1-8.7c-0.1-0.2-0.4-0.3-0.7-0.3h0c-0.3,0-0.5,0.1-0.7,0.3L27,26
	C26.9,26.3,26.8,26.6,27,26.8z M33.9,19l4.5,6.5h-1c-1,0-1.8,0.8-1.8,1.8c0,7-3.6,9.6-6.2,10.6c2.3-3.2,2.7-8.1,2.7-10.4
	c0-0.5-0.2-0.9-0.5-1.3s-0.8-0.5-1.3-0.5h-1.1L33.9,19z"/>
</svg>
