<?xml version="1.0" encoding="utf-8"?>
<!-- Generator: Adobe Illustrator 24.2.1, SVG Export Plug-In . SVG Version: 6.00 Build 0)  -->
<svg version="1.1" id="Capa_1" xmlns="http://www.w3.org/2000/svg" xmlns:xlink="http://www.w3.org/1999/xlink" x="0px" y="0px"
	 viewBox="0 0 50.5 50.5" style="enable-background:new 0 0 50.5 50.5;" xml:space="preserve">
<path d="M39.4,16.3c-0.2-3.9-3.5-7-7.6-7c-2,0-4,0.8-5.4,2.2c-2.1-2.6-5.2-4.1-8.5-4.1c-6.1,0-11,5.1-11,11.3c0,0.2,0,0.4,0,0.6
	c-2.8,1.3-4.6,4-4.6,7.1v0.4c0,4.3,3.6,7.8,7.9,7.8h2.9c0.5,0,1-0.4,1-1s-0.4-1-1-1h-2.9c-3.3,0-6-2.7-6-5.9v-0.4
	c0-2.5,1.6-4.7,4-5.6c0.4-0.1,0.7-0.6,0.6-1c0-0.4-0.1-0.8-0.1-1.1c0-5.2,4.1-9.4,9.1-9.4c3.1,0,5.9,1.6,7.6,4.2
	c0.2,0.3,0.5,0.4,0.8,0.4c0.3,0,0.6-0.1,0.8-0.4c1.1-1.5,2.8-2.4,4.7-2.4c3.1,0,5.7,2.5,5.7,5.5c0,0.2,0,0.3,0,0.5
	c0,0.3,0.1,0.5,0.2,0.7c0.2,0.2,0.4,0.3,0.7,0.3h0.4c4,0,7.2,3.2,7.2,7.1v0.3c0,3.9-3.2,7.1-7.2,7.1H37c-0.5,0-1,0.4-1,1s0.4,1,1,1
	h1.8c5,0,9.1-4,9.1-9v-0.3C47.9,20.5,44.1,16.6,39.4,16.3z"/>
<path d="M28.9,23.4h-4.7v-0.7c0-0.4-0.4-0.8-0.8-0.8h-3c-0.4,0-0.8,0.4-0.8,0.8v3c0,0.4,0.4,0.8,0.8,0.8h3c0.4,0,0.8-0.4,0.8-0.8V25
	h4.7c0.4,0,0.8-0.4,0.8-0.8S29.3,23.4,28.9,23.4z M22.6,24.9h-1.4v-1.4h1.4V24.9z"/>
<path d="M29.9,26.6h-3c-0.4,0-0.8,0.4-0.8,0.8v0.7h-4.7c-0.4,0-0.8,0.4-0.8,0.8s0.4,0.8,0.8,0.8h4.7v0.7c0,0.4,0.4,0.8,0.8,0.8h3
	c0.4,0,0.8-0.4,0.8-0.8v-3C30.7,27,30.3,26.6,29.9,26.6z M29.1,29.6h-1.4v-1.4h1.4V29.6z"/>
<path d="M39.6,38.4H27.9c-0.3-1-1-1.7-2-2v-2.3h7.4c0.4,0,0.8-0.4,0.8-0.8V19.8c0-0.4-0.4-0.8-0.8-0.8H16.9c-0.4,0-0.8,0.4-0.8,0.8
	v13.5c0,0.4,0.4,0.8,0.8,0.8h7.4v2.3c-1,0.3-1.7,1-2,2H10.6c-0.4,0-0.8,0.4-0.8,0.8s0.4,0.8,0.8,0.8h11.7c0.3,1,1,1.7,2,2v1.5
	c0,0.4,0.4,0.8,0.8,0.8c0.4,0,0.8-0.4,0.8-0.8V42c1-0.3,1.7-1,2-2h11.7c0.4,0,0.8-0.4,0.8-0.8S40,38.4,39.6,38.4z M17.7,32.5V20.6
	h14.8v11.9H17.7z M25.1,40.5c-0.7,0-1.3-0.6-1.3-1.3s0.6-1.3,1.3-1.3c0.7,0,1.3,0.6,1.3,1.3S25.8,40.5,25.1,40.5z"/>
</svg>
