<svg id="Layer_1" data-name="Layer 1" xmlns="http://www.w3.org/2000/svg" viewBox="0 0 50.46 50.46"><defs><style>.cls-1{fill:#65b4e1;}</style></defs><title>inundaciones</title><path class="cls-1" d="M38.12,29.67V19a.8.8,0,0,0-.33-.65L25.72,9.62a.8.8,0,0,0-.94,0L12.71,18.38a.8.8,0,0,0-.33.65V29.74a9.7,9.7,0,0,1,1.6-.27v-10l11.27-8.18,11.27,8.18v10A10,10,0,0,1,38.12,29.67Z"/><path class="cls-1" d="M10.68,17.49,25.25,6.93,39.82,17.49a.89.89,0,0,0,1-1.44L25.77,5.11a.89.89,0,0,0-1,0l-7.13,5.17V5.83a.89.89,0,0,0-1.78,0v5.76L9.64,16.05a.89.89,0,0,0,1,1.44Z"/><path class="cls-1" d="M30.61,30.91V21.84a.75.75,0,0,0-.75-.75H20.79a.75.75,0,0,0-.75.75V31l.14-.09a9.72,9.72,0,0,1,1.35-.73V22.59h7.58v7.54A9.49,9.49,0,0,1,30.61,30.91Z"/><path class="cls-1" d="M3.78,33.29A2.71,2.71,0,0,1,5,32.9a2.33,2.33,0,0,1,1.83.59c.12.1.27.21.43.32a3.89,3.89,0,0,0,4.86,0,4.37,4.37,0,0,1,2.81-.93,4.9,4.9,0,0,1,2.9.94,4.24,4.24,0,0,0,2.35.85h0a3.81,3.81,0,0,0,2.43-.85,4.73,4.73,0,0,1,5.63,0,3.88,3.88,0,0,0,4.86,0,4.72,4.72,0,0,1,5.63,0,3.81,3.81,0,0,0,2.43.85,3.37,3.37,0,0,0,2.16-.78l.22-.15.14-.09a2.89,2.89,0,0,1,1.86-.73,6.3,6.3,0,0,1,1.2.37.85.85,0,0,0,.76-1.53,7.25,7.25,0,0,0-1.84-.54,4.46,4.46,0,0,0-2.94,1l-.13.09-.23.16a1.76,1.76,0,0,1-1.19.48,2.18,2.18,0,0,1-1.47-.56,6.42,6.42,0,0,0-7.54,0,2.22,2.22,0,0,1-2.94,0,6,6,0,0,0-3.77-1.22,6,6,0,0,0-3.77,1.22,2.18,2.18,0,0,1-1.47.56h0a2.72,2.72,0,0,1-1.45-.59,6.5,6.5,0,0,0-3.81-1.19,6,6,0,0,0-3.77,1.22,2.22,2.22,0,0,1-2.94,0l-.33-.25a4,4,0,0,0-2.88-1,4.29,4.29,0,0,0-2,.58.85.85,0,1,0,.78,1.52Z"/><path class="cls-1" d="M47.49,37.37a7.25,7.25,0,0,0-1.84-.54,4.46,4.46,0,0,0-2.94,1l-.13.09-.23.16a1.76,1.76,0,0,1-1.19.48A2.18,2.18,0,0,1,39.68,38a6.42,6.42,0,0,0-7.54,0,2.22,2.22,0,0,1-2.94,0,6,6,0,0,0-3.77-1.22A6,6,0,0,0,21.65,38a2.18,2.18,0,0,1-1.47.56h0A2.72,2.72,0,0,1,18.7,38,6.5,6.5,0,0,0,14.9,36.8,6,6,0,0,0,11.12,38a2.22,2.22,0,0,1-2.94,0l-.33-.25a4,4,0,0,0-2.88-1,4.29,4.29,0,0,0-2,.58.85.85,0,1,0,.78,1.52A2.71,2.71,0,0,1,5,38.53a2.33,2.33,0,0,1,1.83.59c.12.1.27.21.43.32a3.89,3.89,0,0,0,4.86,0,4.37,4.37,0,0,1,2.81-.93,4.9,4.9,0,0,1,2.9.94,4.24,4.24,0,0,0,2.35.85h0a3.81,3.81,0,0,0,2.43-.85,4.73,4.73,0,0,1,5.63,0,3.89,3.89,0,0,0,4.86,0,4.72,4.72,0,0,1,5.63,0,3.81,3.81,0,0,0,2.43.85,3.37,3.37,0,0,0,2.16-.78l.22-.15.14-.09a2.89,2.89,0,0,1,1.86-.73,6.3,6.3,0,0,1,1.2.37.85.85,0,0,0,.76-1.53Z"/><path class="cls-1" d="M47.49,43a7.25,7.25,0,0,0-1.84-.54,4.46,4.46,0,0,0-2.94,1l-.13.09-.23.16a1.76,1.76,0,0,1-1.19.48,2.18,2.18,0,0,1-1.47-.56,6.42,6.42,0,0,0-7.54,0,2.22,2.22,0,0,1-2.94,0,6,6,0,0,0-3.77-1.22,6,6,0,0,0-3.77,1.22,2.18,2.18,0,0,1-1.47.56h0a2.72,2.72,0,0,1-1.45-.59,6.5,6.5,0,0,0-3.81-1.19,6,6,0,0,0-3.77,1.22,2.22,2.22,0,0,1-2.94,0l-.33-.25a4,4,0,0,0-2.88-1A4.29,4.29,0,0,0,3,43a.85.85,0,1,0,.78,1.52A2.71,2.71,0,0,1,5,44.16a2.33,2.33,0,0,1,1.83.59c.12.1.27.21.43.32a3.89,3.89,0,0,0,4.86,0,4.37,4.37,0,0,1,2.81-.93,4.9,4.9,0,0,1,2.9.94,4.24,4.24,0,0,0,2.35.85h0a3.81,3.81,0,0,0,2.43-.85,4.73,4.73,0,0,1,5.63,0,3.89,3.89,0,0,0,4.86,0,4.72,4.72,0,0,1,5.63,0,3.81,3.81,0,0,0,2.43.85,3.37,3.37,0,0,0,2.16-.78l.22-.15.14-.09a2.89,2.89,0,0,1,1.86-.73,6.3,6.3,0,0,1,1.2.37A.85.85,0,0,0,47.49,43Z"/></svg>