<svg id="Layer_1" data-name="Layer 1" xmlns="http://www.w3.org/2000/svg" viewBox="0 0 50.46 50.46"><defs><style>.cls-1{fill:#65b4e1;}</style></defs><title>jaguarete</title><path class="cls-1" d="M49.1,26a1.38,1.38,0,0,0-1-.62,1.08,1.08,0,0,0-.79.35A1.85,1.85,0,0,0,47,27a1.61,1.61,0,0,1-.53,1.35,3.44,3.44,0,0,1-2.78.49c-.75-.14-2-1.6-3.14-3C39.12,24,37.45,22,35.83,21.44c-4.83-1.77-9.92-.42-13.3.47a11.37,11.37,0,0,1-3.66.65c-2.44-.49-3.12-.26-4.09.06a2.74,2.74,0,0,1-.84.15,28.71,28.71,0,0,0-3.7.53c-.31.06-.88.21-1.31.33l-.31.08a3.12,3.12,0,0,0-.33-.34,2,2,0,0,0-1.38-.52.67.67,0,0,0-.59.39,1.42,1.42,0,0,0,.14,1.1,3.88,3.88,0,0,0-1.53,2,3.15,3.15,0,0,1-.58,1,4.48,4.48,0,0,0-.56.92,1.37,1.37,0,0,0,.15,1.37A.9.9,0,0,1,4,29.9c.11.41,1,2,2.23,1.85.95-.1,4-2.23,4.59-2.63.05,0,1.32-.65,2,.3,1,1.3.93,1.52.33,2-.31.26-.84.62-1.46,1a22.2,22.2,0,0,0-3.54,2.75c-.78.83-1.21,1.42-1.13,2s.53.83,1,1.09a1.32,1.32,0,0,0,.7.21c.82,0,1.62-.76,2.29-1.4.23-.22.46-.43.67-.61a11.57,11.57,0,0,1,2.28-1c1.54-.6,3.14-1.22,3.78-2a5.88,5.88,0,0,0,.52-.76h1c1,1,1.87,2.21,1.8,2.51s-.23.31-.52.39a2,2,0,0,0-.83.4,1.09,1.09,0,0,0-.41,1.2,1.14,1.14,0,0,0,1.14.69h.36c.88,0,2.22-.1,2.56-1.08l.1-.29a3.7,3.7,0,0,0,.31-2c-.1-.52-.35-1.39-.49-1.87.81,0,1.61-.1,2.26-.18a38.81,38.81,0,0,0,5.35-1.15,27,27,0,0,0,1.78,2.94l.26.39a.42.42,0,0,1,0,.45,1.87,1.87,0,0,1-1.48.7,1.61,1.61,0,0,0-1.24.65A2.17,2.17,0,0,0,30,38.11a.39.39,0,0,0,.32.28,9.66,9.66,0,0,0,1.23.07c.29,0,.63,0,1,0,1.41-.11,4.23-2.76,4.3-3.54a5.39,5.39,0,0,0-.43-1.65c-.14-.42-.31-.92-.43-1.35.53.33,1.31.79,2.34,1.38s2,1.18,2.41,1.44a2.46,2.46,0,0,1,.46,1.16c.22.88.51,2.07,1.68,2.07l.27,0a1.29,1.29,0,0,0,1-.64c.58-1-.1-3-.77-4.56a3.11,3.11,0,0,0-1.46-1.36,3.8,3.8,0,0,1-1.83-1.86,7.79,7.79,0,0,0,4.75,1.79h.24a4.56,4.56,0,0,0,4.14-2.54A2.72,2.72,0,0,0,49.1,26ZM6.62,27.53A.55.55,0,1,1,7.16,27,.55.55,0,0,1,6.62,27.53Z"/></svg>