<svg id="Layer_1" data-name="Layer 1" xmlns="http://www.w3.org/2000/svg" viewBox="0 0 50.46 50.46"><defs><style>.cls-1{fill:#65b4e1;}</style></defs><title>jubilado</title><path class="cls-1" d="M16.46,22.54h0v-.05l0-.12h-.13c-2.76,0-3.49,2.73-3.49,4.16a.89.89,0,0,0,1.77,0c0-.1,0-2.39,1.76-2.39h.08l.1,0h.19L16.68,24A2.65,2.65,0,0,1,16.46,22.54Z"/><path class="cls-1" d="M19.79,25.53l0-.12-.21,0a2.2,2.2,0,0,1-.81,0,2.63,2.63,0,0,1-.66-.18l-.2-.08.05.21a4.67,4.67,0,0,1,.14,1.34l.07,19.81a.89.89,0,0,0,1.78,0l-.08-19.73A6,6,0,0,0,19.79,25.53Z"/><path class="cls-1" d="M37.37,24.23,30.85,11.14A2,2,0,0,0,29.05,10a2.17,2.17,0,0,0-1.8,1.07L23.6,18l-5.08,2.78a2,2,0,0,0,1.94,3.54l5.62-3.07a2,2,0,0,0,.81-.82l2.1-4,4.24,8.5-5.51,7.77a2,2,0,0,0-.33,1.59L29.9,46a2,2,0,0,0,2,1.59,2,2,0,0,0,.43,0,2,2,0,0,0,1.55-2.4L31.52,34.33l5.7-8A2,2,0,0,0,37.37,24.23Z"/><path class="cls-1" d="M25.4,9.94a3.54,3.54,0,1,0-2.5-1A3.53,3.53,0,0,0,25.4,9.94Z"/></svg>