<?xml version="1.0" encoding="utf-8"?>
<!-- Generator: Adobe Illustrator 24.2.1, SVG Export Plug-In . SVG Version: 6.00 Build 0)  -->
<svg version="1.1" id="Layer_1" xmlns="http://www.w3.org/2000/svg" xmlns:xlink="http://www.w3.org/1999/xlink" x="0px" y="0px"
	 viewBox="0 0 50.5 50.5" style="enable-background:new 0 0 50.5 50.5;" xml:space="preserve">
<path d="M19.7,25.2l-1.8,3.1c-0.4,0.7-1,1-1.7,1c-0.3,0-0.7-0.1-1-0.3l-3-1.8c-1-0.5-1.3-1.8-0.7-2.7c0.5-1,1.8-1.3,2.7-0.7l1.3,0.8
	l0.8-1.3c0.5-1,1.8-1.3,2.7-0.7C19.9,23.1,20.2,24.4,19.7,25.2z M47.8,18l-9.4,23.3c-0.5,1.1-1.4,2-2.5,2.5
	c-0.6,0.3-1.2,0.4-1.8,0.4c-0.6,0-1.1-0.1-1.7-0.3l-7-2.8L14,43.9C13.6,44,13.3,44,12.9,44c-0.8,0-1.6-0.3-2.3-0.7
	c-1.1-0.6-1.8-1.6-2.1-2.8L2.4,16.1c-0.3-1.2-0.1-2.4,0.5-3.5c0.6-1.1,1.6-1.8,2.8-2.1l11.6-2.9c2.5-0.7,5,0.8,5.6,3.3l1.8,7.4
	l3.4-8.3c0.5-1.1,1.4-2,2.5-2.5C31.7,7,33,7,34.1,7.4l11.2,4.5C47.6,12.9,48.7,15.5,47.8,18z M27.2,37.9c0.4-0.6,0.5-1.4,0.3-2.2
	l-6.1-24.4C21.1,9.9,19.8,9,18.5,9c-0.2,0-0.5,0-0.8,0L6,11.9c-0.7,0.2-1.4,0.7-1.8,1.4c-0.4,0.7-0.5,1.5-0.3,2.3L10,40.1
	c0.2,0.7,0.7,1.4,1.4,1.8c0.6,0.4,1.4,0.5,2.2,0.3l11.7-2.9C26.1,39.1,26.8,38.6,27.2,37.9z M44.7,13.4L33.5,8.9
	c-0.8-0.3-1.6-0.3-2.3,0c-0.7,0.3-1.3,0.9-1.6,1.6l-4.2,10.3L29,35.2c0.3,1.2,0.1,2.5-0.5,3.5c-0.1,0.3-0.3,0.5-0.5,0.7
	c-0.1,0.1-0.1,0.1-0.2,0.2c-0.1,0.2-0.3,0.3-0.4,0.4l5.6,2.2c0.8,0.3,1.6,0.3,2.3,0c0.7-0.3,1.3-0.9,1.6-1.6l9.4-23.3
	C46.9,15.8,46.2,14,44.7,13.4z M43.4,15.4c-0.3-0.2-0.6-0.1-0.9,0.1l-2.3,1.7c-0.4,0.3-0.4,0.8-0.2,1.1c0.3,0.4,0.8,0.4,1.1,0.2
	l0.8-0.6l-0.1,1c0,0.4,0.3,0.8,0.7,0.9c0,0,0,0,0.1,0c0.4,0,0.8-0.3,0.8-0.7l0.3-2.8C43.8,15.8,43.6,15.5,43.4,15.4z"/>
</svg>
