<svg id="Layer_1" data-name="Layer 1" xmlns="http://www.w3.org/2000/svg" viewBox="0 0 50.46 50.46"><defs><style>.cls-1{fill:#65b4e1;}</style></defs><title>lampara</title><path class="cls-1" d="M20.52,17.19a.84.84,0,0,1-.84-.84,5.21,5.21,0,0,1,5.2-5.2.84.84,0,1,1,0,1.69,3.52,3.52,0,0,0-3.51,3.51A.84.84,0,0,1,20.52,17.19Z"/><path class="cls-1" d="M29.46,36H21a.91.91,0,0,0,0,1.83h8.46a.91.91,0,1,0,0-1.83Z"/><path class="cls-1" d="M29.46,39.38H21a.91.91,0,0,0,0,1.83h8.46a.91.91,0,1,0,0-1.83Z"/><path class="cls-1" d="M27.57,42.75H22.89a.91.91,0,0,0,0,1.83h4.68a.91.91,0,0,0,0-1.83Z"/><path class="cls-1" d="M26.68,6a7.68,7.68,0,0,0-1.33-.11h-.06A6.14,6.14,0,0,0,23.8,6a10.91,10.91,0,0,0-9.37,10.76c0,3,1.6,6,3.14,8.83,1.33,2.45,2.58,4.77,2.58,6.7a1.2,1.2,0,0,0,1.17,1.19s2.4,0,3.85,0h.15c1.44,0,3.84,0,3.84,0a1.2,1.2,0,0,0,1.17-1.19c0-1.88,1.21-4.06,2.49-6.39C34.4,23,36,20.06,36,16.77A10.92,10.92,0,0,0,26.68,6ZM25.35,8.26a5.55,5.55,0,0,1,1,.09,8.54,8.54,0,0,1,7.32,8.42c0,2.68-1.49,5.39-2.94,8A20.65,20.65,0,0,0,28,31.15l-2.74,0h-.14l-2.75,0a22.19,22.19,0,0,0-2.77-6.67c-1.4-2.6-2.86-5.29-2.86-7.71a8.58,8.58,0,0,1,7.4-8.43A5.05,5.05,0,0,1,25,8.25h.37Zm-.07-.34h0Z"/></svg>