<svg id="Layer_1" data-name="Layer 1" xmlns="http://www.w3.org/2000/svg" viewBox="0 0 50.46 50.46"><defs><style>.cls-1{fill:#65b4e1;}</style></defs><title>lampara bajo consumo</title><path class="cls-1" d="M31.34,24H19.12a1.29,1.29,0,1,0,0,2.59H20a1.42,1.42,0,0,1,1.25.48A3.26,3.26,0,0,1,21.75,29h-1a1.62,1.62,0,0,0-1.62,1.62V34a5.05,5.05,0,0,0,5,5h2.15a5.05,5.05,0,0,0,5-5V30.66A1.62,1.62,0,0,0,29.73,29h-1a3.26,3.26,0,0,1,.47-1.94,1.42,1.42,0,0,1,1.25-.48h.91a1.29,1.29,0,1,0,0-2.59Zm-5.22,5H24.34a6.87,6.87,0,0,0-.41-2.42h2.59A6.87,6.87,0,0,0,26.12,29Z"/><path class="cls-1" d="M31.34,19.85H19.12a1.29,1.29,0,1,0,0,2.59H31.34a1.29,1.29,0,1,0,0-2.59Z"/><path class="cls-1" d="M31.34,15.66H19.12a1.29,1.29,0,1,0,0,2.59H31.34a1.29,1.29,0,1,0,0-2.59Z"/><path class="cls-1" d="M19.12,14.07H31.34a1.29,1.29,0,1,0,0-2.59H19.12a1.29,1.29,0,1,0,0,2.59Z"/><path class="cls-1" d="M23,9.88h4.36a1.29,1.29,0,1,0,0-2.59H23a1.29,1.29,0,1,0,0,2.59Z"/><path class="cls-1" d="M26.56,40.71H23.9a1.23,1.23,0,0,0,0,2.46h2.67a1.23,1.23,0,0,0,0-2.46Z"/></svg>