<svg id="Capa_1" data-name="Capa 1" xmlns="http://www.w3.org/2000/svg" viewBox="0 0 50.46 50.46"><defs><style>.cls-1{fill:#010101;}</style></defs><title>latiendo-imagen</title><path class="cls-1" d="M20,29h2.74l-3.26,8h0a.62.62,0,0,0,1,.63L30.94,25.07a.64.64,0,0,0,.15-.4.61.61,0,0,0-.61-.62H27.17L31,19a.61.61,0,0,0-.48-1H24.78a.61.61,0,0,0-.55.34l-4.82,9.83a.64.64,0,0,0-.07.28A.61.61,0,0,0,20,29Z"/><path class="cls-1" d="M35.34,10H29.46V6.54a.8.8,0,0,0-.8-.8H21.8a.8.8,0,0,0-.8.8V10H15.12a1,1,0,0,0-.95,1V43.77a.94.94,0,0,0,.95.95H35.34a.94.94,0,0,0,.95-.95V11A1,1,0,0,0,35.34,10Zm-1,32.78H16.07V11.94H34.39Z"/></svg>