<svg id="b9e395bf-dea9-4194-ba70-dfdf1e991e07" data-name="stroke 1,6" xmlns="http://www.w3.org/2000/svg" viewBox="0 0 50.46 50.46"><defs><style>.b8283aa3-ab1d-4781-981b-51ff8a2a85c8{fill:#081418;}</style></defs><title>latir-texto</title><path class="b8283aa3-ab1d-4781-981b-51ff8a2a85c8" d="M29.82,20.43a2.28,2.28,0,0,0,1.94-2.18,1.66,1.66,0,0,0-1.94-1.67,2.27,2.27,0,0,0-1.91,2.2A1.63,1.63,0,0,0,29.82,20.43Z"/><path class="b8283aa3-ab1d-4781-981b-51ff8a2a85c8" d="M40.93,22a1.44,1.44,0,0,0-1.67-1.58,5.52,5.52,0,0,0-2.93,1.9l.32-1.55-3.49.48-2,9.75a2,2,0,0,1-1.09.57c-.67.09-1-.08-1-.76a3.2,3.2,0,0,1,.1-.79l1.74-8.46-3.48.47-1.65,8a8.31,8.31,0,0,0-.19,1.59,2.19,2.19,0,0,1-1.26.74c-.68.09-1-.08-1-.76a3.66,3.66,0,0,1,.09-.79L25,23.36l1.45-.2.2-1-1.46.2L26,18.43l-3.58,1-.73,3.44-.8.11-.19,1,.8-.11-1.46,7a8.32,8.32,0,0,0-.19,1.6c0,.06,0,.11,0,.17a1.71,1.71,0,0,1-1.05.67c-.68.09-1-.23-1-.91a3.58,3.58,0,0,1,.09-.78l1.75-8.47-3.49.47-.26,1.32v-.17c0-.7-.59-1.15-2-1-4.22.57-6.22,6-6.22,9.32a6.11,6.11,0,0,0,.07,1,2.14,2.14,0,0,1-1.21.7c-.68.09-1-.08-1-.76a3.66,3.66,0,0,1,.09-.79L8.48,19.8l-3.59,1L2.3,33.25a8.41,8.41,0,0,0-.19,1.6c0,2,1.14,2.75,2.59,2.56A5.37,5.37,0,0,0,8.2,35.3a2.52,2.52,0,0,0,2.74,1.25,5.22,5.22,0,0,0,3.61-2.71,1.91,1.91,0,0,0,2.37,1.9,4.88,4.88,0,0,0,3.19-1.9A2,2,0,0,0,22.44,35a5.3,5.3,0,0,0,3.38-2,2,2,0,0,0,2.36,1.19,5.07,5.07,0,0,0,2.55-1.14l-.13.67,3.48-.48L36,23.79a3,3,0,0,1,1.76-1.16c.73-.1,0,1.59,1.41,1.41A2,2,0,0,0,40.93,22Zm-26.4,9.56a2.91,2.91,0,0,1-2,2.4c-.44.06-1.21.14-1.21-1.72,0-2.28,1.33-6.81,3.39-7.09a.8.8,0,0,1,1,.78Z"/><polygon class="b8283aa3-ab1d-4781-981b-51ff8a2a85c8" points="48.35 13.02 43.41 13.7 41.38 27.36 44.64 26.91 48.35 13.02"/><path class="b8283aa3-ab1d-4781-981b-51ff8a2a85c8" d="M42.34,28.24a3,3,0,0,0-2.55,2.87,2.31,2.31,0,0,0,2.34,2.36l.35,0A3,3,0,0,0,45,30.54a2.28,2.28,0,0,0-2.67-2.3Z"/></svg>