<svg id="b1abeda8-54eb-430e-b305-9264c162078f" data-name="Capa 1" xmlns="http://www.w3.org/2000/svg" viewBox="0 0 50.46 50.46"><defs><style>.bffa6aa8-9832-4a9f-a37e-684a55b694d8{fill:#010101;}</style></defs><title>latiendo-texto</title><path class="bffa6aa8-9832-4a9f-a37e-684a55b694d8" d="M17.61,24.41a1.29,1.29,0,0,0,1.09-1.23.93.93,0,0,0-1.09-.94,1.28,1.28,0,0,0-1.08,1.24A.92.92,0,0,0,17.61,24.41Z"/><path class="bffa6aa8-9832-4a9f-a37e-684a55b694d8" d="M42.84,22.48c-.15.28-.49.91-1,1.07-.08-1.2-.65-1.75-1.73-1.6-2.81.38-3.7,3.78-3.7,5.35a3.58,3.58,0,0,0,.06.6,1,1,0,0,1-.56.33c-.38.05-.56-.05-.56-.43a2,2,0,0,1,0-.45L37,19.77l-2,.55-.67,3.23v-.06c0-.39-.32-.65-1.1-.54-2.38.32-3.51,3.41-3.51,5.25a3.64,3.64,0,0,0,.05.6,1,1,0,0,1-.61.35c-.41.06-.54-.16-.54-.5,0-.76.65-2.5.65-3.61a1.19,1.19,0,0,0-1.51-1.33,2.37,2.37,0,0,0-1.6,1l.15-.73-2,.27-1,5.08a3.08,3.08,0,0,1-1.89,1.08c-.65.09-1-.09-1-1,0-.16,0-.35,0-.55a3.75,3.75,0,0,0,3.13-3.3c0-.68-.28-1.27-1.5-1.11-2.79.38-3.68,3.79-3.68,5.36a3,3,0,0,0,0,.54,1.27,1.27,0,0,1-.68.4c-.38.05-.56-.05-.56-.43a2,2,0,0,1,0-.45l1-4.77-2,.27-.93,4.5a6.91,6.91,0,0,0-.11.89,1.25,1.25,0,0,1-.71.43c-.38.05-.56,0-.56-.43a2.23,2.23,0,0,1,.06-.45l.87-4.21L15.7,26l.11-.56L15,25.5l.47-2.22-2,.55L13,25.77l-.45.06-.11.56.45-.06-.82,4a4.49,4.49,0,0,0-.11.9.22.22,0,0,0,0,.08,1,1,0,0,1-.6.39c-.38.06-.56-.13-.56-.51a2.07,2.07,0,0,1,.06-.44l1-4.77-2,.26-.15.75v-.1c0-.39-.32-.65-1.1-.54-2.37.32-3.51,3.41-3.51,5.25a4.6,4.6,0,0,0,0,.56,1.13,1.13,0,0,1-.68.4c-.38.05-.56,0-.56-.43A2.07,2.07,0,0,1,4,31.64l1.57-7.58-2,.54-1.46,7a4.57,4.57,0,0,0-.11.9c0,1.15.64,1.55,1.46,1.44a3.07,3.07,0,0,0,2-1.2A1.42,1.42,0,0,0,7,33.5,2.94,2.94,0,0,0,9,32,1.08,1.08,0,0,0,10.34,33,2.72,2.72,0,0,0,12.13,32a1.15,1.15,0,0,0,1.32.66,3,3,0,0,0,1.91-1.12,1.11,1.11,0,0,0,1.32.67,3,3,0,0,0,2-1.2,1.68,1.68,0,0,0,1.86.68,4.33,4.33,0,0,0,2.57-1.4l-.21,1,2-.27.93-4.51c.21-.71.57-1.33,1.07-1.4.32,0,.49.18.49.63,0,.88-.62,2.64-.62,3.57a1.25,1.25,0,0,0,1.61,1.32A2.45,2.45,0,0,0,30,29.5a1.43,1.43,0,0,0,1.52.65,2.9,2.9,0,0,0,2-1.53,1.07,1.07,0,0,0,1.33,1,2.78,2.78,0,0,0,1.87-1.11,1.77,1.77,0,0,0,1.89.66c1.72-.24,3.08-2.08,3.24-4.72a4.5,4.5,0,0,0,1.41-2ZM22.18,25.12c.26,0,.34.17.34.51a2.72,2.72,0,0,1-2,2.53C20.82,26.77,21.49,25.22,22.18,25.12ZM9,30.7a1.67,1.67,0,0,1-1.14,1.36c-.24,0-.68.07-.68-1,0-1.28.75-3.84,1.91-4a.45.45,0,0,1,.56.45Zm24.53-3.35v.07a1.6,1.6,0,0,1-1.12,1.29c-.24,0-.68.08-.68-1,0-1.29.75-3.84,1.91-4a.46.46,0,0,1,.56.4Zm7.19-2.55c-.2,1.64-.87,3-1.54,3.05s-.69-.11-.69-1c0-1.33.8-3.94,1.77-4.07.34-.05.49.13.52.7a.84.84,0,0,0-.38.76C40.39,24.58,40.5,24.75,40.71,24.8Z"/><polygon class="bffa6aa8-9832-4a9f-a37e-684a55b694d8" points="48.47 16.46 45.4 16.88 44.14 25.39 46.16 25.11 48.47 16.46"/><path class="bffa6aa8-9832-4a9f-a37e-684a55b694d8" d="M44.73,25.94a1.84,1.84,0,0,0-1.58,1.79,1.43,1.43,0,0,0,1.45,1.46h.22a1.86,1.86,0,0,0,1.57-1.81,1.41,1.41,0,0,0-1.66-1.43Z"/></svg>