<svg id="Layer_1" data-name="Layer 1" xmlns="http://www.w3.org/2000/svg" viewBox="0 0 50.46 50.46"><defs><style>.cls-1{fill:#65b4e1;}</style></defs><title>lavar manos</title><path class="cls-1" d="M41.25,37.24C40.33,34,37.5,30.82,32.53,30S24,28.07,23.2,25.7a3,3,0,0,0-.38,3.82C24.58,32,28.3,31.68,28.55,33c.39,2-5.34,4.07-10.09,1.15-6.35-3.9-4.13-8.34-6.81-9.1H10.58S10.2,35.87,19.3,40.46c6.41,3.23,15.68-1.68,22.28,1.68C41.58,42.14,42.17,40.53,41.25,37.24Z"/><path class="cls-1" d="M25.86,15a6.79,6.79,0,0,0-1.19-3.24A21.17,21.17,0,0,0,23,9.46a.5.5,0,0,0-.76,0,21.15,21.15,0,0,0-1.62,2.28A11.84,11.84,0,0,0,20,13c.24.33.48.69.73,1.07a9.13,9.13,0,0,1,.84-1.72c.36-.6.75-1.15,1.07-1.57.32.42.71,1,1.07,1.57a5.63,5.63,0,0,1,1,2.68,2.11,2.11,0,0,1-2.1,2.1,2.08,2.08,0,0,1-.32,0,8.16,8.16,0,0,1,.33,1.12A3.19,3.19,0,0,0,25.86,15Z"/><path class="cls-1" d="M17.64,13.78c.42.56.93,1.27,1.4,2.05a7.39,7.39,0,0,1,1.36,3.52,2.76,2.76,0,0,1-5.52,0,7.39,7.39,0,0,1,1.36-3.52c.48-.79,1-1.5,1.4-2.06m0-1.91a.64.64,0,0,0-.5.23,27.76,27.76,0,0,0-2.13,3,8.91,8.91,0,0,0-1.57,4.26,4.19,4.19,0,0,0,8.38,0,8.9,8.9,0,0,0-1.57-4.26,27.79,27.79,0,0,0-2.13-3,.64.64,0,0,0-.49-.22Z"/></svg>