<svg id="Layer_1" data-name="Layer 1" xmlns="http://www.w3.org/2000/svg" viewBox="0 0 50.46 50.46"><defs><style>.cls-1{fill:#65b4e1;}</style></defs><title>lavarropas</title><g id="Capa_2" data-name="Capa 2"><path class="cls-1" d="M36,8.09H14.47a2.28,2.28,0,0,0-2.28,2.28V40.08a2.28,2.28,0,0,0,2.28,2.28H36a2.28,2.28,0,0,0,2.28-2.28V10.38A2.31,2.31,0,0,0,36,8.09ZM14.44,9.61H36a.78.78,0,0,1,.77.77v4.85h-23V10.38A.75.75,0,0,1,14.44,9.61ZM36,40.82H14.47A.78.78,0,0,1,13.7,40V16.6h23V40A.75.75,0,0,1,36,40.82Z"/><path class="cls-1" d="M27.76,14a1.54,1.54,0,1,0-1.54-1.54A1.5,1.5,0,0,0,27.76,14Zm0-2.11a.54.54,0,1,1-.54.54A.51.51,0,0,1,27.76,11.85Z"/><path class="cls-1" d="M32.8,14a1.54,1.54,0,1,0-1.54-1.54A1.54,1.54,0,0,0,32.8,14Zm0-2.11a.54.54,0,1,1-.54.54A.55.55,0,0,1,32.8,11.85Z"/><path class="cls-1" d="M25,19.07a7.59,7.59,0,1,0,7.59,7.59A7.6,7.6,0,0,0,25,19.07ZM25,32.7a6.08,6.08,0,1,1,6.08-6.08A6.07,6.07,0,0,1,25,32.7Z"/><path class="cls-1" d="M20,26.76a5.07,5.07,0,0,0,10.14,0H30c-3.22,0-5.34-1.48-7.22-1.48A3.52,3.52,0,0,0,20,26.76Z"/></g></svg>