<svg id="Layer_1" data-name="Layer 1" xmlns="http://www.w3.org/2000/svg" viewBox="0 0 50.46 50.46"><defs><style>.cls-1{fill:#12b5e1;}</style></defs><title>lazo lineal</title><path class="cls-1" d="M40.29,36.25,24.86,17.66a1.82,1.82,0,0,1-.19-1.95,1.85,1.85,0,0,1,1.67-1.05,1.81,1.81,0,0,1,1.61.9,1.92,1.92,0,0,1,0,1.9,9.77,9.77,0,0,1-.51.86.9.9,0,0,0,1.48,1,9.68,9.68,0,0,0,.62-1.05,3.7,3.7,0,0,0-.09-3.67,3.64,3.64,0,0,0-3.14-1.76h0a3.67,3.67,0,0,0-2.87,5.92L38.57,37l-2.3,6.15L18.76,22.2a9.37,9.37,0,1,1,16-1.83,14.21,14.21,0,0,1-2.43,3.48A.9.9,0,0,0,33.73,25,14.38,14.38,0,0,0,36.48,21a11.17,11.17,0,1,0-19.16,2.32s.06.09,18.56,22.2a.87.87,0,0,0,.69.32h.15a.9.9,0,0,0,.69-.57l3-8.08A.88.88,0,0,0,40.29,36.25Z"/><path class="cls-1" d="M23.3,34.33l-.17.25a.89.89,0,0,0,.21,1.25.92.92,0,0,0,.52.17.94.94,0,0,0,.74-.38l.17-.25a.9.9,0,1,0-1.47-1Z"/><path class="cls-1" d="M21.33,36.7l-5.39,6.44L13.64,37,20,29.32a.89.89,0,0,0-.12-1.26.9.9,0,0,0-1.27.11l-6.7,8.08a.9.9,0,0,0-.15.89l3,8.08a.91.91,0,0,0,.69.57h.15a.87.87,0,0,0,.69-.32l6.38-7.62a.91.91,0,0,0-.12-1.27A.89.89,0,0,0,21.33,36.7Z"/></svg>