<svg id="Layer_1" data-name="Layer 1" xmlns="http://www.w3.org/2000/svg" viewBox="0 0 50.46 50.46"><defs><style>.cls-1{fill:#12b5e1;}</style></defs><title>lechuga</title><path class="cls-1" d="M16,32.79a7.24,7.24,0,0,0-5.77-.89,7.64,7.64,0,0,0-1,.32A8.51,8.51,0,0,1,8,32.6c-2.47.58-2.51-1.13-1.94-2.19,1.1-2-1.52-2-1.52-3.45,0-1.95,2-1.51,1.88-2.65S5.24,22,6.08,21.14c1-1,1.67-.58,2.28-1.27s-.09-2.14,1.25-3a2,2,0,0,1,.54-.23,1.47,1.47,0,0,1,.86.07.79.79,0,0,0,.91-.18l.11-.12a.83.83,0,0,0-.25-1.31,3.08,3.08,0,0,0-2-.2h0a4,4,0,0,0-1.06.44,3.87,3.87,0,0,0-1.79,3.23v0a4.21,4.21,0,0,0-2.12,1.26,3.43,3.43,0,0,0-.33,3.89l0,.1a3.36,3.36,0,0,0-.08,5.79l0,0a3.49,3.49,0,0,0,.16,3.64c.46.6,1.57,1.52,3.86,1a9.39,9.39,0,0,0,1.39-.46,6.08,6.08,0,0,1,.79-.24c1.72-.41,5.52-.47,8.47,4.17C19.17,36.61,17.84,34,16,32.79Z"/><path class="cls-1" d="M47.67,27A3.38,3.38,0,0,0,46,23.9l0-.1a3.43,3.43,0,0,0-.33-3.89,4.21,4.21,0,0,0-2.12-1.26v0a3.87,3.87,0,0,0-1.79-3.23,4,4,0,0,0-1.06-.44h0a3.08,3.08,0,0,0-2,.2.83.83,0,0,0-.25,1.31l.11.12a.79.79,0,0,0,.91.18,1.47,1.47,0,0,1,.86-.07,2,2,0,0,1,.54.23c1.34.82.65,2.26,1.25,3s1.32.24,2.28,1.27c.84.88-.27,2-.38,3.17s1.88.7,1.88,2.65c0,1.47-2.62,1.42-1.52,3.45.57,1.06.53,2.77-1.94,2.19a8.51,8.51,0,0,1-1.15-.38,7.64,7.64,0,0,0-1-.32,7.24,7.24,0,0,0-5.77.89c-1.84,1.21-3.17,3.82-3.11,5,2.95-4.64,6.75-4.58,8.47-4.17a6.08,6.08,0,0,1,.79.24,9.39,9.39,0,0,0,1.39.46c2.29.54,3.4-.38,3.86-1A3.49,3.49,0,0,0,46,29.72l0,0A3.39,3.39,0,0,0,47.67,27Z"/><path class="cls-1" d="M19.9,18.47a.87.87,0,0,0-.15,1.16.72.72,0,0,0,.23.23l.08.08a.88.88,0,0,0,1.23,0,.87.87,0,0,0,0-1.23C21.09,18.53,20.52,18,19.9,18.47Z"/><path class="cls-1" d="M22.18,21a.85.85,0,0,0-.32,1.18,19.55,19.55,0,0,1,2.07,9,.87.87,0,0,0,1.74,0,21.07,21.07,0,0,0-2.31-9.9A.86.86,0,0,0,22.18,21Z"/><path class="cls-1" d="M35.68,26.28c.38-.21.74-.42,1.09-.64,2.79-1.81,3.22-3.72,3.08-5a5.37,5.37,0,0,0-3.49-4.12,5.76,5.76,0,0,0-.87-2.11A4.26,4.26,0,0,0,32,12.6c0-.15,0-.31,0-.43-.11-1.33-.37-4.45-3.65-4.88a3.77,3.77,0,0,0-.58,0A4.54,4.54,0,0,0,24.25,9h0a4.92,4.92,0,0,0-2-.45,5.62,5.62,0,0,0-.81.06C19.15,9,18.58,11,18.27,12.05c0,0,0,.1,0,.16a5.1,5.1,0,0,0-.57,0,4,4,0,0,0-3.22,1.69,3.93,3.93,0,0,0-.75,3l-.1,0c-1.49.67-3.06,2.06-3,4,0,1.16.7,2.78,3.66,3.87,4.45,1.64,6.86,7.18,7.15,16.46a2.09,2.09,0,0,0,2,2s.63,0,1.45,0h.23l2,0a2.09,2.09,0,0,0,2.05-2C29.5,29.75,33.22,27.66,35.68,26.28ZM27.05,41.1l-2,0h-.23c-.77,0-1.37,0-1.37,0C23,26.9,17.83,23.81,15,22.75c-3.86-1.42-2-3.32-.53-4,2.48-1.09.6-2.25,1.66-3.65a1.87,1.87,0,0,1,1.56-.86c.5,0,1,.17,1.36.17a.77.77,0,0,0,.73-.41c.72-1.17.55-3.11,2-3.32a3,3,0,0,1,.5,0c1.07,0,1.48.59,2.22.59l.28,0c1-.19,1.42-1.88,3-1.88a1.67,1.67,0,0,1,.31,0c2.43.32,1.47,3.49,2.19,4.66s2.59.09,3.57,1.55.12,2.23,1.78,2.88,4.15,2.8.09,5.44C33.07,25.55,27.5,26.9,27.05,41.1Z"/></svg>