<?xml version="1.0" encoding="utf-8"?>
<!-- Generator: Adobe Illustrator 25.4.1, SVG Export Plug-In . SVG Version: 6.00 Build 0)  -->
<svg version="1.1" id="Capa_2" xmlns="http://www.w3.org/2000/svg" xmlns:xlink="http://www.w3.org/1999/xlink" x="0px" y="0px"
	 viewBox="0 0 50.46 50.46" enable-background="new 0 0 50.46 50.46" xml:space="preserve">
<g id="jUAt4t_00000097465787619506864180000003238061528897836422_">
	<g>
		<path d="M44.518,12.511c-2.105,1.129-2.989,1.46-5.214,2.662c-0.286,0.154-0.788,0.324-1.109,0.377
			c-2.277,0.381-4.479,1.039-6.669,1.76c-2.924,0.962-4.538,3.055-5.272,5.939c-0.072,0.284-0.116,0.597-0.077,0.884
			c0.088,0.652,0.653,1.109,1.283,1.105c0.643-0.004,1.152-0.456,1.292-1.17c0.003-0.016,0.006-0.033,0.01-0.049
			c0.651-3.203,5.555-2.841,5.668,0.425c0.007,0.21,0.003,0.424-0.012,0.642c-0.031,0.439-0.14,0.952-0.403,1.28
			c-0.568,0.709-1.256,1.323-1.9,1.971c-0.635,0.64-1.373,0.608-2.075,0.192c-0.441-0.261-0.824-0.647-1.172-1.032
			c-0.229-0.253-0.343-0.608-0.52-0.911c-0.338-0.581-1.044-0.817-1.642-0.557c-0.608,0.264-0.915,0.931-0.724,1.573
			c0.577,1.936,2.643,3.596,4.653,3.805c1.054,0.11,1.958-0.207,2.808-0.788c-1.196,1.555-3.043,1.764-4.72,0.604
			c-0.315-0.218-0.719-0.4-1.091-0.418c-0.555-0.026-0.944,0.334-1.132,0.867c-0.188,0.535-0.025,1.072,0.453,1.459
			c1.748,1.412,4.641,2.29,7.416,0.283c0.034,0.037,0.068,0.074,0.102,0.111c-0.601,0.442-1.17,0.939-1.811,1.314
			c-1.159,0.68-2.472,0.872-3.782,1.052c-0.72,0.099-1.201,0.685-1.155,1.339c0.051,0.728,0.63,1.288,1.385,1.224
			c2.038-0.173,4.012-0.615,5.674-1.887c0.895-0.685,1.696-1.492,2.496-2.206c0.001-0.003-0.02,0.08-0.07,0.137
			c-0.795,0.911-1.577,1.835-2.399,2.722c-0.46,0.496-0.553,1.044-0.157,1.499c0.393,0.451,0.989,0.476,1.493,0.014
			c0.53-0.487,1.067-0.977,1.53-1.526c2.285-2.706,3.514-5.898,4.156-9.333c0.232-1.241,0.184-2.546,0.508-3.756
			c0.571-2.13,1.83-3.753,4.06-4.397c0.361-0.104,0.459-0.255,0.457-0.613c-0.013-2.074-1.35-5.342-1.819-6.427
			C44.951,12.482,44.708,12.409,44.518,12.511z"/>
		<path d="M5.942,37.949c2.105-1.129,2.989-1.46,5.214-2.662c0.286-0.154,0.788-0.324,1.109-0.377
			c2.277-0.381,4.479-1.039,6.669-1.76c2.924-0.962,4.538-3.055,5.272-5.939c0.072-0.284,0.116-0.597,0.077-0.884
			c-0.088-0.652-0.653-1.109-1.283-1.105c-0.643,0.004-1.152,0.456-1.292,1.17c-0.003,0.016-0.006,0.033-0.01,0.049
			c-0.651,3.203-5.555,2.841-5.668-0.425c-0.007-0.21-0.003-0.424,0.012-0.642c0.031-0.439,0.14-0.952,0.403-1.28
			c0.568-0.709,1.256-1.323,1.9-1.971c0.635-0.64,1.373-0.608,2.075-0.192c0.441,0.261,0.824,0.647,1.172,1.032
			c0.229,0.253,0.343,0.608,0.52,0.911c0.338,0.581,1.044,0.817,1.642,0.557c0.608-0.264,0.915-0.931,0.724-1.573
			c-0.577-1.936-2.643-3.596-4.653-3.805c-1.054-0.11-1.958,0.207-2.808,0.788c1.196-1.555,3.043-1.764,4.72-0.604
			c0.315,0.218,0.719,0.4,1.091,0.418c0.555,0.026,0.944-0.334,1.132-0.867c0.188-0.535,0.025-1.072-0.453-1.459
			c-1.748-1.412-4.641-2.29-7.416-0.283c-0.034-0.037-0.068-0.074-0.102-0.111c0.601-0.442,1.17-0.939,1.811-1.314
			c1.159-0.68,2.472-0.872,3.782-1.052c0.72-0.099,1.201-0.685,1.155-1.339c-0.051-0.728-0.63-1.288-1.385-1.224
			c-2.038,0.173-4.012,0.615-5.674,1.887c-0.895,0.685-1.696,1.492-2.496,2.206c-0.001,0.003,0.02-0.08,0.07-0.137
			c0.795-0.911,1.577-1.835,2.399-2.722c0.46-0.496,0.553-1.044,0.157-1.499c-0.393-0.451-0.989-0.476-1.493-0.014
			c-0.53,0.487-1.067,0.977-1.53,1.526c-2.285,2.706-3.514,5.898-4.156,9.333c-0.232,1.241-0.184,2.546-0.508,3.756
			c-0.571,2.13-1.83,3.753-4.06,4.397c-0.361,0.104-0.459,0.255-0.457,0.613c0.013,2.074,1.35,5.342,1.819,6.427
			C5.509,37.978,5.752,38.051,5.942,37.949z"/>
	</g>
</g>
</svg>
