<svg id="Layer_1" data-name="Layer 1" xmlns="http://www.w3.org/2000/svg" viewBox="0 0 50.46 50.46"><defs><style>.cls-1{fill:#12b5e1;}</style></defs><title>libre de glutem</title><polygon class="cls-1" points="27.19 26.06 27.18 26.07 27.14 27.83 28.02 27.39 27.19 26.06"/><path class="cls-1" d="M31.77,10.38a3.71,3.71,0,0,0-.18-2.27C29.49,8.44,29,9.38,29,9.38a4.75,4.75,0,0,0-1.7-5.67,5.11,5.11,0,0,0-1.21,5.52H26a6,6,0,0,0-2.37-.71,5.69,5.69,0,0,0-.12.78A18.7,18.7,0,0,0,17.19,11,4.24,4.24,0,0,0,15,9.82a5.61,5.61,0,0,0-.3,2.61,18.77,18.77,0,0,0-5,5.05,2.39,2.39,0,0,0-1,0,5.41,5.41,0,0,0,.12,1.41,18.77,18.77,0,1,0,23-8.51ZM36.6,20a1.55,1.55,0,0,1,2.35.68l-1,.5a.61.61,0,0,0-.95-.34c-.76.37-.62,1.4-.31,2s.58.81,1.15.53a.93.93,0,0,0,.49-1.09l1-.5a2,2,0,0,1-1.23,2.49,1.72,1.72,0,0,1-2.45-1A2.34,2.34,0,0,1,36.6,20Zm-.93,5.37-.74.36L34.72,25l.75-.36Zm-4-9.6a13.9,13.9,0,0,1,3.73,2.65l-3.69,1.82a3.93,3.93,0,0,0,.3-4,3.91,3.91,0,0,0-.75.24A5,5,0,0,0,31.64,15.81Zm-3.49,6c-3.56-.41-3.49-4.43-3.49-4.43A4,4,0,0,1,28.15,21.86Zm-3.7-8.53A4,4,0,0,1,28,17.76C24.38,17.35,24.45,13.33,24.45,13.33Zm.74,10.16a4.56,4.56,0,0,0,.07-2.36,6,6,0,0,0,2,1.31Zm.54,6.8-.75.37-.2-.79.75-.37Zm.63-5.11,1-.5,2.56,3.57-1,.5-.44-.65-1.36.67-.05.89L26,30.18ZM31.62,17s.59,4-2.89,4.84A4,4,0,0,1,31.62,17Zm-1.7,10.32.75-.37.2.8-.75.36Zm.7-1.52a2.35,2.35,0,0,1,1-3.32,1.56,1.56,0,0,1,2.35.68l-1,.5a.62.62,0,0,0-1-.34c-.77.38-.62,1.41-.31,2s.58.81,1.15.53a.91.91,0,0,0,.48-1.09l1-.5a2,2,0,0,1-1.23,2.49A1.71,1.71,0,0,1,30.62,25.83Zm-2.1-8.06a4,4,0,0,1,2.89-4.84S32,16.9,28.52,17.77Zm2.57-8.89s.59,4-2.89,4.85A4,4,0,0,1,31.09,8.88Zm-3.8-4.25a4,4,0,0,1,.36,5.63C25,7.9,27.29,4.63,27.29,4.63Zm.34,9.09c-3.57-.42-3.5-4.43-3.5-4.43A4,4,0,0,1,27.63,13.72Zm-3.8.81a4.67,4.67,0,0,0,1.11,2.39l-.81,0A8,8,0,0,0,24.08,19l-.65,0a5,5,0,0,0-1.31-4.18A11,11,0,0,1,23.83,14.53Zm.29,16.58-1,.5-.85-3.33-1.15.56-.25-.95,3.3-1.63.25,1-1.14.56Zm-6.28,1.6L18.18,34l-.92.45-.81-3.11.93-.46.09.38h0a1.35,1.35,0,0,1,.77-.91.83.83,0,0,1,1.2.4,3.08,3.08,0,0,1,.2.66l.41,1.66-.93.46-.42-1.66a1.89,1.89,0,0,0-.12-.38.36.36,0,0,0-.51-.18C17.51,31.63,17.71,32.2,17.84,32.71ZM21,21.49C17.79,22.51,16.3,19,16.3,19A3.8,3.8,0,0,1,21,21.49ZM22.15,16s2,3.19-.63,5.28A3.79,3.79,0,0,1,22.15,16Zm-4,5.95-.76.26A4.53,4.53,0,0,0,16,20.61l-.44.46A4.24,4.24,0,0,0,15,19.33a6,6,0,0,1,.53-.59l0,.09A5.43,5.43,0,0,0,18.18,22Zm-2.13-.57s2.41,2.24.63,4.58A3.31,3.31,0,0,1,16.05,21.38Zm.26,4.86c-2.5,1.56-4.5-1-4.5-1A3.3,3.3,0,0,1,16.31,26.24Zm-4.46,0a4.24,4.24,0,0,0,1.23.8,4.87,4.87,0,0,0,1.23,1.83l-2.49,1.23a13.38,13.38,0,0,1-.12-1.8A14,14,0,0,1,11.85,26.23Zm2.09,1.42a3.31,3.31,0,0,1,4.45,1.26C15.83,30.35,13.94,27.65,13.94,27.65ZM18.14,24s2.4,2.24.62,4.57A3.29,3.29,0,0,1,18.14,24Zm-2.6,6.49.2.78-.93.45-.2-.77Zm.3,1.17.8,3.12-.93.45-.8-3.11Zm2.22-9.2A3.8,3.8,0,0,1,22.78,25C19.55,26,18.06,22.48,18.06,22.48Zm5.22,2.26a3.81,3.81,0,0,1,.62-5.29S25.94,22.65,23.28,24.74Zm-3-12.11s2,3.2-.62,5.29A3.81,3.81,0,0,1,20.31,12.63Zm-5-2.05a3.8,3.8,0,0,1,2.48,4.71C14.57,14.29,15.33,10.58,15.33,10.58Zm3.86,7.55c-3.23,1-4.72-2.47-4.72-2.47A3.81,3.81,0,0,1,19.19,18.13ZM13.78,19s2.41,2.24.63,4.58A3.31,3.31,0,0,1,13.78,19Zm-1.5,2.64c-2.93-.13-3.11-3.42-3.11-3.42A3.3,3.3,0,0,1,12.28,21.6ZM9.54,22.77A3.29,3.29,0,0,1,14,23.82C11.54,25.38,9.54,22.77,9.54,22.77Zm4.27,13.52a1.51,1.51,0,0,1-2.25-.62l1-.5c.2.42.5.44,1,.21s.49-.46.39-.67c-.19-.39-.8-.14-1.27-.09a1.18,1.18,0,0,1-1.37-.57c-.44-.88.18-1.65,1-2s1.68-.45,2.12.51l-1,.5a.39.39,0,0,0-.29-.25.77.77,0,0,0-.46.1c-.25.12-.46.35-.34.6s.29.18.91.06a1.43,1.43,0,0,1,1.75.61C15.28,34.85,15,35.73,13.81,36.29Zm11.76,5.87-.78,0L25.91,39l3,2.77A13.91,13.91,0,0,1,25.57,42.16Zm.57-4.1a.44.44,0,0,0-.5-.19l-1.26,0c-.44,0-.42.35-.42.35L23.79,42a13.86,13.86,0,0,1-8.58-4.53L23,33.72a36.85,36.85,0,0,1,6.77,7.55Zm4.12,2.35c-1.06-1.79-5.21-6.25-6.14-7.25l2.23-1.09c.56,1,4,8.3,4,8.3Zm.64-.88-3.6-7.92L29,30.77a64.24,64.24,0,0,0,2,8.86Zm1.91.6-.06-7.24s2.16,2.79,2.52,3.28.63.33.63.33a.27.27,0,0,0,.1-.4l-2.2-5.38c-.15-.4-.45-.29-.45-.29L32,31.18a.39.39,0,0,0-.18.42v8.23a90.47,90.47,0,0,1-1.74-9.57l9.15-4.47a13.85,13.85,0,0,1-6.41,14.34Zm6.85-17.68.75-.37.2.79-.75.37Z"/></svg>