<?xml version="1.0" encoding="utf-8"?>
<!-- Generator: Adobe Illustrator 25.4.1, SVG Export Plug-In . SVG Version: 6.00 Build 0)  -->
<!DOCTYPE svg PUBLIC "-//W3C//DTD SVG 1.1//EN" "http://www.w3.org/Graphics/SVG/1.1/DTD/svg11.dtd" [
	<!ENTITY ns_extend "http://ns.adobe.com/Extensibility/1.0/">
	<!ENTITY ns_ai "http://ns.adobe.com/AdobeIllustrator/10.0/">
	<!ENTITY ns_graphs "http://ns.adobe.com/Graphs/1.0/">
	<!ENTITY ns_vars "http://ns.adobe.com/Variables/1.0/">
	<!ENTITY ns_imrep "http://ns.adobe.com/ImageReplacement/1.0/">
	<!ENTITY ns_sfw "http://ns.adobe.com/SaveForWeb/1.0/">
	<!ENTITY ns_custom "http://ns.adobe.com/GenericCustomNamespace/1.0/">
	<!ENTITY ns_adobe_xpath "http://ns.adobe.com/XPath/1.0/">
]>
<svg version="1.1" id="stroke_1_x2C_6" xmlns:x="&ns_extend;" xmlns:i="&ns_ai;" xmlns:graph="&ns_graphs;"
	 xmlns="http://www.w3.org/2000/svg" xmlns:xlink="http://www.w3.org/1999/xlink" x="0px" y="0px" viewBox="0 0 50.46 50.46"
	 enable-background="new 0 0 50.46 50.46" xml:space="preserve">
<metadata><?xpacket begin="﻿" id="W5M0MpCehiHzreSzNTczkc9d"?>
<x:xmpmeta xmlns:x="adobe:ns:meta/" x:xmptk="Adobe XMP Core 7.0-c000 79.217bca6, 2021/06/14-18:28:11        ">
   <rdf:RDF xmlns:rdf="http://www.w3.org/1999/02/22-rdf-syntax-ns#">
      <rdf:Description rdf:about=""
            xmlns:xmp="http://ns.adobe.com/xap/1.0/"
            xmlns:xmpGImg="http://ns.adobe.com/xap/1.0/g/img/"
            xmlns:xmpTPg="http://ns.adobe.com/xap/1.0/t/pg/"
            xmlns:stDim="http://ns.adobe.com/xap/1.0/sType/Dimensions#"
            xmlns:xmpG="http://ns.adobe.com/xap/1.0/g/"
            xmlns:illustrator="http://ns.adobe.com/illustrator/1.0/"
            xmlns:dc="http://purl.org/dc/elements/1.1/"
            xmlns:xmpMM="http://ns.adobe.com/xap/1.0/mm/"
            xmlns:stRef="http://ns.adobe.com/xap/1.0/sType/ResourceRef#"
            xmlns:stEvt="http://ns.adobe.com/xap/1.0/sType/ResourceEvent#"
            xmlns:pdf="http://ns.adobe.com/pdf/1.3/">
         <xmp:CreatorTool>Adobe Illustrator 25.4 (Macintosh)</xmp:CreatorTool>
         <xmp:CreateDate>2023-12-21T10:24:43-03:00</xmp:CreateDate>
         <xmp:ModifyDate>2023-12-21T10:24:43-03:00</xmp:ModifyDate>
         <xmp:MetadataDate>2023-12-21T10:24:43-03:00</xmp:MetadataDate>
         <xmp:Thumbnails>
            <rdf:Alt>
               <rdf:li rdf:parseType="Resource">
                  <xmpGImg:width>232</xmpGImg:width>
                  <xmpGImg:height>256</xmpGImg:height>
                  <xmpGImg:format>JPEG</xmpGImg:format>
                  <xmpGImg:image>/9j/4AAQSkZJRgABAgEASABIAAD/7QAsUGhvdG9zaG9wIDMuMAA4QklNA+0AAAAAABAASAAAAAEA&#xA;AQBIAAAAAQAB/+4ADkFkb2JlAGTAAAAAAf/bAIQABgQEBAUEBgUFBgkGBQYJCwgGBggLDAoKCwoK&#xA;DBAMDAwMDAwQDA4PEA8ODBMTFBQTExwbGxscHx8fHx8fHx8fHwEHBwcNDA0YEBAYGhURFRofHx8f&#xA;Hx8fHx8fHx8fHx8fHx8fHx8fHx8fHx8fHx8fHx8fHx8fHx8fHx8fHx8fHx8f/8AAEQgBAADoAwER&#xA;AAIRAQMRAf/EAaIAAAAHAQEBAQEAAAAAAAAAAAQFAwIGAQAHCAkKCwEAAgIDAQEBAQEAAAAAAAAA&#xA;AQACAwQFBgcICQoLEAACAQMDAgQCBgcDBAIGAnMBAgMRBAAFIRIxQVEGE2EicYEUMpGhBxWxQiPB&#xA;UtHhMxZi8CRygvElQzRTkqKyY3PCNUQnk6OzNhdUZHTD0uIIJoMJChgZhJRFRqS0VtNVKBry4/PE&#xA;1OT0ZXWFlaW1xdXl9WZ2hpamtsbW5vY3R1dnd4eXp7fH1+f3OEhYaHiImKi4yNjo+Ck5SVlpeYmZ&#xA;qbnJ2en5KjpKWmp6ipqqusra6voRAAICAQIDBQUEBQYECAMDbQEAAhEDBCESMUEFURNhIgZxgZEy&#xA;obHwFMHR4SNCFVJicvEzJDRDghaSUyWiY7LCB3PSNeJEgxdUkwgJChgZJjZFGidkdFU38qOzwygp&#xA;0+PzhJSktMTU5PRldYWVpbXF1eX1RlZmdoaWprbG1ub2R1dnd4eXp7fH1+f3OEhYaHiImKi4yNjo&#xA;+DlJWWl5iZmpucnZ6fkqOkpaanqKmqq6ytrq+v/aAAwDAQACEQMRAD8A9U4q7FXYq7FXYq7FXYq7&#xA;FXYq7FXYq7FXYq7FXYq7FXYq7FXYq7FXYqwL83vzh8uflroQvL//AErVbkFdM0pGAkmYdWY78I1/&#xA;aensKnFXyn5y1P8A5yA89+Wrj8xtSeez8raZLFc2VvCxt4VpKoSW3gB5y+k5B9V607Ntsq+tfyd8&#xA;+jz1+Xmk+YX4i9ljMOoouwW6hPCWg7BiOYHgRirNMVdirsVdirsVdirsVdirsVdirsVdirsVdirs&#xA;VdirF/zK/MHR/IPlG88xap8awjhaWoIV7i4cH04VO/WlSabKCe2KvJfyW/5yqsPNupR+X/NsEOk6&#xA;zcvx0+7hJFrOzH4Ym5ljHJ2Xchj4GgKr6CxV2KuxV2KuxV2KuxVAeYNc0/QdDv8AWtRf07HToJLm&#xA;4YbnhEpYgDuTSgHjir5M/KfylqP55/mbqfn3zghl8uafMFisWJMbMPigsl6D04kIaT+Ynf7ZOKvq&#xA;/X9Cs9X8t6hoMkaraX9pLZGMCiqksZjoAOlAdqYq+ev+cIdUnfQPNWjSEhLG7trkIduLXUbxt/1C&#xA;jFX0xirsVdirsVdirsVdirsVdirsVdirsVdirsVdirsVfJv/ADkTcX/5h/nl5e/LKylZLSzMS3XH&#xA;fjLcqJ7ianRvStQpFffxxV6F+eX/ADjxoPmPybHL5YsUs/MWg2qR6asI4m5t7dAotpP5m4r+7Y78&#xA;tq0JxVb/AM42fnVB5l8mPpvma/ig13QmS3luLqRY2uIGB9GQlytXXgUf5An7WKvXf8WeVf8Aq82P&#xA;/STD/wA1YqiLXXNFuyBaahbXBJ4gRTRv8Xh8JO+Ko3FXYqw781vzL0r8uvKM3mG/iN0/qJb2diri&#xA;Np5pN+AchuNEVmJp0GKpV+WP59eQPzCK2umXLWWtcSz6ReARzEKKsYiCUlA6/Ca03IGKsM/5zI8y&#xA;y6Z+WNtpEDlZNcvo4pgO9vbqZn/5KLHirPPyK8qQ+WPyp8u6esfCea1S9vKijGe7HrPy915hPkMV&#xA;Znquo2+maXeajcHjb2UElxMx2ASJC7H7lxV82/8AOENncnTfOGrS1K3lzZw8z0MkCzSP/wBRAxV9&#xA;OYq7FXYq7FXYq7FXYq7FXYq7FXYq7FXYq7FWA+dfz2/K7yc0kGra3FLfx1DafZ/6VcBh+y6x1WM/&#xA;8ZCuKvEPNX/Obs5LReU/LqoN+F3qkhYnwrbwFaf8jTirG/8AnG3XdQ84/wDOQ1x5l1l4zqc1pdXT&#xA;8F4pzKJAFQVNAI399sVfaOKvz6/5yS8pw+Wvzf1qC2QR2eoMmpW6AUAF0OUgAG1BNzp7Yq8wxV2K&#xA;pppfmnzNpJU6Vq97p5WnE2txLDSm4p6bLirOdB/5yR/ObRioi8xzXsS9Yr9I7rl83lUy/c+Ko/zB&#xA;+ZXm388PNflDy7rMVvaAXa2v+hB0Q/WpEWWdlkeT4kjTx8adcVe2/m//AM4saZcQf4i/LdP0Nr1j&#xA;SZdOhdkimMXxKYCDWGao+Gh4k+B3xV4L+Z/5v6v558oaBo/mKJ18yeXri5ivLhl4evG6xqrOu3GV&#xA;WjZZBTwPcgKvvfQXhfQ9OeGnotawtHQUHExgig7bYq8a/wCcsvzJg8ueQ38s2ko/TXmQGAxruyWQ&#xA;P79yO3qf3Qr1q1Ps4qy3/nH3yLL5M/K3SdOuo/S1O7DahqSEUKzXNCEYfzRxBEPuuKvRsVdirsVd&#xA;irsVdirsVdirsVdirsVdiryT80P+clvIHkZpbCGT9O68lVOn2brwiYdp5/iRPdQGYd1xV8qfmH/z&#xA;kT+ZnnZpYJ9QOlaRJUDS9PLQxlT2lcH1Ja9wzcf8kYq8xxV2KvSv+cdPM8Pl384fL93csEtbuVrC&#xA;diaAC7QxIST0AlZCfbFX6FYq+Jf+czp4JPzYs0ipzh0e3SelPtm4uHFaf5Dr1xV4Tb29xczx29vE&#xA;808rBIoo1LuzHYKqipJOKorWdE1fRNQk03V7OWw1CJUaW1uEMcqCVFkTkrbiqODQ4qgcVdir03/n&#xA;GsW5/O/ysLgVj9acrSn2xaTGPr/l0xV+g+KvjX/nMP8ALS30XzHaec9NiEdnrrNFqKKKKt8g5c/D&#xA;99Hv/rKx74qzfyf/AM5R+UPL/wCS+itfOb3zTZW/6OTR4tnZrQCOOWV9wkbR8CWO5NaA0xV88L5z&#xA;89ecvzKj8zGw/wAQ+Y2lE1ppwgkuIU9L+6RLeM19OLYgHau7cqmqr26PRf8AnNTXh9bnv20tW+KO&#xA;FpbK2ND29OBWYf7PfFUP+W/nn88tM/PTTPy980+YGvOUhOp2tILhSn1RroASmPmvwAH4WxV9aYq7&#xA;FXYq7FXYq7FXYq7FXYq+bvz8/Przx5a/MjT/ACv5HVbi4srf1tTszB9Z9eWZfVWIoB6gEcKh6owP&#xA;xe2KvJPzK/5ym8/+cNOTS7JV8u2LRhL9LJ2M07kUesxCskZ/kX/ZM2KvF8VdirsVe1+Xf+cVPO/m&#xA;XyVpvmjRNS0+ZdRg+sJYztLFIBUjiHCOhao7kD3xV5r5w8g+cvJeoLZ+ZNLn02cmsMjgNFJTvFMh&#xA;aN6f5LbYq+0/yA/PLSvO/lRbXVrtIPM+jwV1RZWC+tDEKfXFJoCpH95/K3sRir5O876jq/5s/nHf&#xA;y6FC91PrN4LfSoT8P+jwqIomauyARR838NycVfZP5QfkZ5T/AC506N4Ilv8AzFIv+mazKoMlSKMk&#xA;Ff7qP2G5/aJxV8z/APOY9pDB+bscsfHndaXbTTcevMSSxfF78Y1+jFXheKuxVPPI/mR/LPnHRfMC&#xA;gsNMvIbmRB1aONwZE/2SVGKv0zs7u2vLSC8tZFmtbmNZoJl3V45FDKw9iDXFXlX/ADlPpEOo/kpr&#xA;UjgGXT5LW8tyezrcJG3/ACTlcYq+TvyT/JXWPzM1x4ldrLQLIg6nqfGtK7rDEDs0rfco3PYFV91e&#xA;Sfy/8peStJTTPLmnx2cIA9aYDlPMw/bmlPxO3z2HagxVNtW1Ww0jS7vVNRmW3sLGF7i6mbokcalm&#xA;P3DFXzD/AM40Wl/53/N7zX+Z97Ey2qNLHZ8/2ZrphwRTvX0bZeB/1hir6pxV2KuxV2KuxV2KuxV2&#xA;KsJ/Nb82vLP5caD+kdWf1r2fkum6ZGQJriRR7/ZjXbm56e5oCq+bP+cbNWu/PH/OQ+p+a9USNb76&#xA;ld6hwSvCNnaK1VU5cjRY5+IqemKvRP8AnJT/AJx+03X9IvfOPlm0EHmSzUz39tCKLewoCZG4D/d6&#xA;j4gRu1KGppir4wxV2KuxV9wf84f+cbfV/wAsf0Czj695duJImjr8Rt7l2nic+3JpEH+rir2DzN5X&#xA;0DzPo0+ja9ZR3+nXIpJBKOh7OjD4kdf2WUgjFXwd+eH5P6p+WHmcR20sk2gakJDpV9WjlCKS28pW&#xA;nxqHoezKa+ICr2T/AJws8hQJYat54uo63Msh03TSw+zGgV53X/XYqlf8lh3xV9Q4q+CPz6vdW8/f&#xA;nNr/APh2xudWj0pVtFSyikuWWK0pHLIREHpH67N8XTceOKvK77TtQsJvQvrWa0mH+6p42jb/AIFg&#xA;DiqhHG8kixxqXkchUUbkkmgAxV9X+fP+cO7P/CFndeUZXXzNZWkYv7KZ+UN7MiD1WjZv7qRmrQV4&#xA;dB8PXFVb/nF386lto0/LPzc7Wep2UjW+iy3NUJoxBspedCskbbR16j4NiFDKvSv+cmLpl/KPUdMg&#xA;X1L/AFy4s9M0+HvJPNcowUe/CNqYqyz8tfImneRvJmm+XLEKTaxhru4UUM1y+80p7/E3SvRaDtir&#xA;Ib29s7G0mvL2eO2tLdTJPcTMEjRF3LMzEAAe+KvjH/nJH/nIaPzizeVPK0rDyzC4a9vd1N7IhqoU&#xA;GhEKEVFftHfsMVe4f84ueZ/IF9+XNnovls/VtS09S+sWEzKbg3DkepcGlOcbmnFh0FFPTFXsmKux&#xA;V2KuxV2KuxV2KsL/ADY/NPQvy58ryavqJE15LWPS9ODcZLmYD7I2PFFrV2psPcgFV+fvnfzv5i86&#xA;eYrnXteuTPezmiIKiOGME8YolqeKLXYfSakk4qz3/nFvzRBoH5w6WLh/Tt9Xjl0x3PTlOA0I/wBl&#xA;NGi/Tir75xV+cf52+VYPKv5qeY9Gtk9O0juvXtYwKKsN0i3CIvsiy8foxVJ/JvkLzb5zv5bHy3p0&#xA;uoTwRtNOUoEjRQT8btRQW40UVqx2GKpZpOjatrGoRadpVnNfX8x4xWtvG0kjH2VQTt3xV6x5esfz&#xA;S/IHzFo/mrWNMaLTtVVoL2zEiuskVatBIyFljmAX1I9/+Nhir7V8necvL3nDQLbXdBulurG5HbZ4&#xA;3H2opU6o69wf1b4qx787vItt50/LXWNKaMPewwteaW9PiW7t1Lx8f9feM+zHFUq/5xltoYPyQ8si&#xA;If3iXMjnuXe7lJr+rFUs/wCciPzxsPIWgTaRpc4k836jEVtI0IJtY3+E3MngR/usHq2/QHFXyb5F&#xA;8w/mt5U8u615i8qwT2emTelHqnmEWyyBR6nBYlnmV1Wskg5cPirSvbFX3J+XOv2Xn/8ALXQ9a1G2&#xA;hul1G1U3kEsavEbiImGeiNyFPVRqe2KvnL84/J3lXSv+cmPIumaZp1tpenXx0ua6trWJYonkfUZY&#xA;z+7QKoLrGq7DFX19ir5O/wCcx/ywt7WW0/MDTIvTNzItnrSoKAy8SYLg07kKUY/6vfFXkFj+eXnU&#xA;3nlZ9fuG12x8qXgvrG1uHKvJIoX0/VmAZn9Pj8DNUipxV6hqX/Obfm6eL09L8t2NrO2yvPLNcip8&#xA;FX0P14qxbzBpX/OTv5qIsup6ZqdxpxPOCzaNdPs6V+FljkMCvSuztyPvirzPzl5F81+S9Uj0vzNY&#xA;HTr+WIXEcLSRS8oizIHDRPItC0bDr2xVDeVvNOu+Vddtdc0O6a01G0blHIvQj9pHXoyMNmU9cVff&#xA;35M/m/o35leWhfQcbbWbQKmr6aCSYpGrR0ruY5OJKn6DuMVegYq7FXYq7FXYqlXmrzPo/lfy/fa/&#xA;rM3oadYRmWZ9ix7KiAkcndiFUdycVfnf+aX5la3+Yfmu413Uz6cO8WnWINUt7cElYx4nerN3PtQB&#xA;ViGKr4ZpYZUmhdo5Y2DxyISrKymoZSNwQcVfeP5Afnxpn5gaNFpepzJb+cLKMLdW7EL9aVB/vRCO&#xA;9aVdR9k/5NMVfNP/ADkWZfMn5/6tp2kx/WbqWez023jQ1MlwIYoig8D6pK/Rir7I/K38t9G/L/yj&#xA;a6Fp6K04USaleAUa4uSPjkY9adkHZaDFXgf5RWzeW/8AnLHzdolqoSzvFvT6IoFVJHjvI+IFfs14&#xA;j2xVg+teQtW/Mz/nILzf5ZGrDT2juby4gadWkjIt3VEQIGWlVbqMVTRfyX/5yF/KO8k1vyjcDUrY&#xA;AG5TTGM3qIvaaylVWk9uCsR2IxVP9A/5zcvoYxB5l8rpJcp8Ms9jOYdxsR6EyyEb/wDFmKvOvLX/&#xA;ADkv5w8q+QE8oeXLWC09Ga5e31OX97JFDcSGUJFER6YZXdvibkN+mKsx/ID8hbnz9cv5+8/STXmm&#xA;zys9rbzu5lv5VNGmmcnl6QYUArViP5R8Sr6D/OrStNj/ACV802ENvHb2Vvpkpgt4lWONPRHOMKqg&#xA;KAGUbDFWG/8AOJmqRwfkibi+cW9lp15elp5DRFhQLM71IFFXk1fliryj/nJPz15U8yX3lDz95M1a&#xA;G9n06QwXEJrHPBJFILi2LwuFkAZhJvSm2xxV9c+Xtcsde0HT9bsG52epW8V1Ae/GVAwB9xWhHjir&#xA;Gfzs0OHW/wApvNdhIvOmnT3MS/8AFtov1iLr/lxDFXwJ5B8g+Y/PPmODQdBg9W4l+KaZqiKCIEBp&#xA;ZWAPFVr8ydhUnFX3R+Vf5CeRvy9tYpba2XUtfCj19aukBl5U39BTyWBfZd6faZsVekkgCp2A6nFX&#xA;54f85Aed7fzl+aer6nZuJNNtmWx0+QbhobYcC4PdZJObr7HFXnWKsk/L7z5rvkXzRaeYdGkpPbnj&#xA;PA393PCxHqQyD+VgPoNCNxir9EvIvnXRPOnley8xaPJztLxKtGac4ZV2khkA6Mjbe/UbEYqn2Kux&#xA;V2KuxV8S/wDOVn5vt5o8znynpM9dA0KQrcMh+C5vV+F291h3RffkdwRirwXFU98i3Hl2Dzjo8nmW&#xA;2F3oAuo11OBmdQYGPF2qhVvgB5bHemKvuDUP+cYPyQ1G04xaF9VLLWO6tLq4VgG7jlI6N7clOKvD&#xA;PzN/5xP80eU1PmDyJfT6ta2Z9b6sPg1KDhuHiaLiJitK/AFbwU4qxj/nGLT5fMH552F9qTPdz2wu&#xA;9TuZZSXd5+DASSMakt6soap/axV944q+FtG/ObRNA/PfzV5/uLebULeVr2LSbeBlX1S0ixQGR2rw&#xA;QwoSSA1DQAHFUzfz9pOmf85B6B+ZdkTD5d80LFNcqxH7j1o/qV7HKRT4oJlMh9uLdCMVfawIIqNw&#xA;ehxV4b/zkH/zjzpnnPTrjzD5dt0tvN1upkdIwFS/UCpjkGw9X+R+/RtqFVXx35K8rXHmTzppHlsc&#xA;opNRvYrWY0o0as4ErEH+RORp7Yq/S7TdOstM0+206xiWCys4kgtoE2VI41Cqo+QGKvIv+csPNkGi&#xA;flHe2HqBb3XpYrG3T9rgHEszU/l9OPiT4sMVeRec9QvPIn/OKvlfy2rGDU/Nzvc3QHwt9UdzcsPH&#xA;dHgRh4E4qhtZ/wCcRNbb8vNJ1/y9dNda/JZR3Wp6LMFHN5V9QrbP8NGQMF4P9qmzdiqnf/OKX5zQ&#xA;6Sx/LfzRL9UpMw0OW4qnCZ3Pq2b8qcS0hLJX9olepUYq+gvzd1WDSvyu813sxAVNLu40r0Mk0TRR&#xA;L2+1I6jFWMf844fllbeSfy8s5Z4VXXdaRL3U5SPjAkHKGCvWkSNuP5ixxV6rir5r/wCclf8AnImx&#xA;0/T7zyV5Qu1n1a4DW+r6jCeSW0ZFHhidTvM32WI+xuPtfZVfH+KuxV2KvZf+cZ/zfbyN5uXStTn4&#xA;+WNcdYrvmfgt7g/DFc77Afsyf5O5+yMVfd+KuxV2KvLv+ci/zObyH+XtxLZS8Nd1Ymy0qh+JGZf3&#xA;s4/4xJ0/yiuKvz9JJNTuTirWKuxV9Wf843/85Jadb6daeSvOt0Lb6sFg0fWZiBF6QFEguHOycBsj&#xA;namxpSpVfU6OjorowZGAKsDUEHcEEYq8L8yeUtI8gfn35b88WaLZ6P5rkm0fVwvwRpf3EZaBwBQf&#xA;6Q8Y5e4LdTirf/OTX53WXlLy9c+VtFuVfzTqkRil9MgmztpBR5Hp9mR0NIx1H2vCqrE/yK/5xc0S&#xA;fyude89WzT32r27Cx01iUFrDMhVZmHeYq3Ja/Y2/a6KvKfJ35a6p5lh86flujCTzF5Yml1LR1NFD&#xA;y2sv1O9hBJ+EXA9Eiu3JF3pXFXtv/ONn582+oWVv5C83TGz8x6fS006a5qhuUj+EQOWpxnj48aNu&#xA;3+tXFX0Tir5p1TyFaaB/zmF5b1C2iC2PmGO81HgBRVuksrgT0+bqsh92xV9G6nqenaVp9xqOpXEd&#xA;pYWiGW5uZmCoiLuSxOKvgf8AOn80778zvzChm021kutIsH+raFppR2aZSwLu0aEPynKioXfjQdRX&#xA;FUD5s81efvPPnrSND89SmGa1vI7GPT3hS0SzS5kjWROCKrLsF+1U7Yq/Q5VVVCqAqqKKo2AA7DFX&#xA;yb/zmD+VFtZSwfmDo8AiW5kW312OMUX1m/urmg6F6cHPjxPUnFXkl1+e3njVfJtr5N1+4Gp6LBdW&#xA;08sko/0qS3t25fVpJa/Ghbi1WBaoG9NsVe33/wDznDpCQ007ynPLLSiie7SJQe32I5CfwxV5t5q/&#xA;Pn88fzHhl0/RrS4tdMk+CS00K3nd3B24yTr6kprWhClQe4xV5PrPlfzNoc8VvrWkXul3E4rBDe28&#xA;tu7itKosqqW38MVSvFXYq7FXYq+7f+cWvzObzh5BXS7+Xnrfl3ha3BY1aW2IP1eU+/FSje6174q9&#xA;nxV2KvgX/nJr8wm83/mbeQ28vPSdB5adYgGqlo2/0iUU2+OWoB7qq4q8lxV2KuxVOPKPlbVPNfmK&#xA;y8v6V6X6Qv2ZLcTuI0LKjPQuelQtB74q980j8rP+csvINoU8tah69nFutlbXUNxEBTfhb3oCf8Ct&#xA;cVec/md+bn5x6zat5X87u1t6E0dy1nNZRWsyyR14OCI0cdTQjriqG/JDyy3nn83tHs9VZr2GS4e/&#xA;1SScmQypbqZmErMeTeq6hGJ/mxV+h+Kvzq/OHV54Pzi833WlXElo36SuYWkgkaNiUk4yfEpBoXSu&#xA;Ks2H/OKP5k6v5fsPNGk6pZaqdVtYNQSKSWWK5YXESyqOUq8C3xdWcYqi9K/P788/ytuk8v8AnGwa&#xA;/ih2jh1ZWE/prt+5vENJV/yj6gxVS86f85Rrr3nDyd5ps/Lxs7vys160lrJciRJxeRRx8RIsSEBe&#xA;Dfs98VY7rXnz82Pz0802PlwSKI7iSttpVsGisoQoq0827s3Bdyzk0/ZG9MVfXn5Ufkv5R/LnSki0&#xA;+BbrWZEpfa1Ko9eVj1CVr6Ufgi/TU74q+Sv+coD+j/z41a7tB6U6ixuQw/36ttFRv+FGKvuHyvr9&#xA;p5h8uaZrtmQbbU7WK6jp2EqBuJ91JoffFUp/NTy/D5h/LjzJpEq8jc6fOYRStJo0MkLU/wAmVFOK&#xA;vzg0fR9U1nVLbStKtpLzUbyQRW1tEKu7nsP1knYDc4q+yPyk/wCcTfK/l+3h1Pzmkeua4aP9SNWs&#xA;YD148DT1m8S/w+C98Ve92tra2lultawpb28Q4xQxKERR4KqgAYq+VPzDuF/MX/nKzQNAsv3+n+W5&#xA;II70j4oybRzd3dfDekJ/yhirE/8AnKn8nk8peY180aPBw8v65I3rRoKJbXpBZkFOiygF19+Q6AYq&#xA;8HxV2KuxV6L+Qn5hN5G/MrTdRml9PSrxvqOrAmi/V5yBzav++n4yfRir9D8VYd+b/nP/AAb+XGua&#xA;+jcbuC3MVj4/WZyIoTTvxdwx9gcVfm6SSSSak7knrXFWsVdiqJ07T7zUtQttPsYmnvLyVILaFftP&#xA;JIwVFHzY4q+hvzn/ACXu/wAsdC8m+cPLArd+XxDFrV0gJBvFl9eO6buVeV2j36DguKvpn8sfzH0P&#xA;8wPKdrrumSKJWUJqFnUF7a4A+ONh1pXdT+0tDiq78xPyz8pef9FbTNftBIwB+qX0YC3Nu5/aikoS&#xA;PdT8J7jFXzV+RPknUvy5/wCcj5fLOt0aabT7pdMuQKJcRGkqSx18UhcEdiCO2Kvpj8yvPem+RvJm&#xA;o+Y75lrbRlbOBjQz3LgiGFe/xN1p0Wp7Yq+A/Ln5defvPcOt6/ptlJd29ik97qV+/wAKvIAZnjQn&#xA;+8lbrwX6aVGKvsr/AJxf842/mL8pNLtxIDfaGDpt5H3URf3Bp4GErv4g+GKs886eR/LPnPQ5tF8w&#xA;2a3dnKCUY7SxPTaSF+qOPEfI1G2KvgL84Pyo1j8tvNLaTeN9Z0+4Bm0rUAOKzw1puP2ZE6Ov09CM&#xA;VfR//OGv5fwad5Su/OlzGDf61I9tYyEbpZ278X4nt6k6ty/1FxV9F4q+KV8pr+eP54eeZraYixgt&#xA;pzp97U+l6lsqWlkSV/ZkKc6d1r3xVm3/ADix+Zs2iXd1+VHmytjqNncSro4nPEiQsTNZmuwPOrx/&#xA;zVI/lxV9G+aL6HT/ACzq9/OaQWllcTyk7AJHEzt+AxV4d/ziT+U9tonldfO2pQg6zraH6hzG8FlX&#xA;4Svg09ORP8vH3xV9CYq8k/P3889M/LzQpLHT5o5/N97GVsbQEMbdWFPrMy70C/sKftH2BxVIv+cW&#xA;vym1Hy3o915x8xI3+I/MShkSapmhtWb1P3hO/qTtR3B3AC13qMVerfmF5T0fzb5N1Ty/qzLHaX0J&#xA;QXD0HoyggwygkjdJArDx6Yq/NvW9IvNG1i+0m8AF3YTyW0/E8lLxMVJU91NKg9xiqBxV2KuxV+h3&#xA;/OPnnQ+bvyp0W+lfnfWUf6OvyTU+ta0QMx8Xj4Of9bFXk/8Azm35pMWl+XvK0T0NzLJqN2oNPhhX&#xA;0oa+ILSP/wADir5JxV2KuxV71/zh95FXXPzBn8xXMfOz8twiSOoqDd3HJIf+BQSN7EDFX2jqWm2G&#xA;p6fcadqFul1Y3cbQ3NtKAyPG4oysD44q+T/N35T/AJm/kr5juPOH5azS3vlxjyubIAzvHFuxiuoe&#xA;ssS78ZF+Je/E/EVWX+T/APnNDyXe28cXmnTbrSL2gEk9sBdWpPdtisq+PHi3zxVjf5zfnx+WWrX/&#xA;AJT80eVLuS68yeWtTSb02t5oPVsXB+sRF3VR8RVR17mmKvN/NPnvzj+fP5jaPoYpYWFxc+hpmnIS&#xA;8dvG3xS3Ep+H1JFiUsx22FABir7O8uQ+RPJnl2x0DT72zsdNsouESyTxKWpu8jkkcmdiWY+JxV8Z&#xA;fl/+aCflP+buuCxb675Slv7myvILdg6yWsM7rBPCQeLNGN07FSR3rir6xk/5yG/JeOFJW81WnFwr&#xA;BVErsOQ5CqqhYHxqNu+KvIf+ch/za/JLz15Bn03T9b+ta9ZSLc6Sy2l2oEqHi8ZkkiReMkZYdaVo&#xA;e2Koj8u/+cofyr8o/l7oGgzQ6jNeafYxR3SWtuhT16VlCtLLFX4yTXpiqW/mZ/zmHo2r+U9Q0jyh&#xA;p9/aajfx/Vxf3ohj9KKQUlZBFJKefH4V32ry7UxV51+TP5/6f+WGg3tlaeWf0lqmoyiW71GS89Ec&#xA;YwVijEQgk+FAzH7e5Y4qxz82fzUt/wAwNeh1+PQotD1aMKs13bTu7zBAPTMlVQc0p8Lihpsa0FFU&#xA;31b/AJyY/M7V/Idx5O1KW1uba6hFtcao0cgv3i5AlWkEgjPJRwYmOpHU13xVE2//ADlX+bdnp1tp&#xA;2nz2NjaWcUdvbRw2iHhFCgRVHqGT9lcVQN1/zk5+eNyTy8zNGtSQsVrZx0r2qsIb7zirzi41fVbn&#xA;U21W4vJpdTeUTtfPIxnMoPISeoTy5A71riqPuvOvnK7FLrXtRuBQikt3O+x6j4nPXFUpmnnnfnNI&#xA;0r0pydixp8ziqnirsVdirsVfUP8AzhH5pKaj5i8qyv8ABPFHqdqh7NEwhnp7sJI/uxVgH/OWGvHV&#xA;fzm1G3DcotIt7axjPbaP13H0STsMVeO4q7FXYq9L/Lb8/vOX5d6BcaN5fs9OMV1cm7nurmGWSdnK&#xA;KnGolROACbDj44qnV1/zlt+dM393qFpbdf7qzhPXp/eCTpiqT3f/ADkp+d90CJfNMy1HH91BaQ7d&#xA;f91Qpv74q8/1jWNR1jUZtR1Kb6xeznlNOVVS7dOTcAoJ98VQWKuxV2KuxV2KuxV2KuxV2KuxV2Ku&#xA;xV2KuxV2KuxV2KuxV2KuxV6b/wA4269+hvzn8uSs1Ib2V7CUfzfWo2ijH/I0ocVY1+aOqNqv5k+a&#xA;NQLcluNUvGjJ3/didljG/ggAxVi+KuxV2KuxV2KuxV2KuxV2KuxV2KuxV2KpzbeTfN91ZfX7bQ9Q&#xA;nsfTab61FazvF6aKWZ+aoV4qoJJrSmKpNirM/JP5O/mR530+bUfK+jNqFlbzG3ln9e2gUSqquU/f&#xA;yRVIWRTt44qxzW9C1PRNbvNE1GL09SsZmtrmFWElJUPFlDISG38MVem+dP8AnGL8wfJ/lLUPNGs3&#xA;emLYad6frQxTTPM3qypCvAegE+3IOrDFWT+U/wDnDrzPr2gaXrMuv2dlDqlrDeJD6MskkaXESyqr&#xA;g+mOQ5UYVxVk9p/zg0Pha785ePOOLT/uo7XP/GuKsP1X/nHDRdN/Ory3+Xf6Xurq21awkv76+WNI&#xA;njVFuCAg/eLubam9euKvWk/5w3/KKzj53mp6s4NAXmubaNeXtxt16+5OKpH5+/JD/nHry75J1/UL&#xA;W5SXV7axuX02OTUgz/Wkib0gsaunP95Sq0OKo7/nHv8AIz8tNb/KvRdd1/Qor/Vr5riWSeV5vspc&#xA;yRxjisnCnCMfs4q+a/zf8gy+RPzA1Xy9RjZxSetpsrV+O0m+OI1PUqPgY/zKcVfT/wCenlHyr5W/&#xA;5x6uEtNFsLTVBb6fZi7jtoY5+ZmhMx58A/J1RuXfeuKvi3FU08r6odJ8zaRqgbgbC9t7oONiDDKs&#xA;lf8AhcVQV7ctdXk901Q08jysCeRq7Ftz364qoYqzH8vfyl89ef7iWPy3p/rW9uQtzfTMIreIncBp&#xA;G6tTfioLe2KvTrj/AJwt/NCOzMsepaRPcCpNsk1wCfZXeBVr86D3xV5TB+XPmZfzAs/I2p250zWr&#xA;q8gsnSehEfrsoElVJDpxblVTuOmKverX/nBu+Yf6V5wiiNBURWDSjl3HxXEW3virC/zu/wCcd9P/&#xA;AC18u6df2+tTatfajfLaR27QJAoX0ndm2eRieSqB88VejebP+cMvLlj5Q1O70HU9RvfMNtA01jBM&#xA;YPRlaMBmj4LEH5OAQvx9SK4q+ffye8qWHmv8zNB8vajG0tje3DC7iVmRjFFG8rjkvxDZO2KvRP8A&#xA;nKX8tfIXkO48tWPlbTzZzXcd3LfyPPNO0iq0Sw1EruF4/H9kCuKvCMVfXf8Azjf+QXli28q23nrz&#xA;jaQ3t3ex/W9PtrsBra2tQOSTOjfAzuvxgtsq0pvir0Hyz/zkT+UPmPzJF5O0uSVmuWa3s3ktvTs5&#xA;iASESu45U+HkgrirxT/nLz8qfLvlybS/NWgWkenxanNJa6jaQgJEZwvqRypGNlLKHD8dtgepNVXu&#xA;PmOvl/8A5xouYN1e08qraAioIdrIQA1AG/Jq1xV+fuKvuj/nEHT/AKr+TkM9KfXr+6uK7b8SsH/M&#xA;nFXye9PMX53N0cax5lPShDfWr/tSg354q+s/+cu9QNr+TV1ADT6/fWluffi5n8R/vnFXiv5E/nN+&#xA;a2v/AJj+VfK11rjPoqsYTZJb2sam3trd34ExxI2yRda1xV6T/wA5h+evM3lrT/LNroGq3WlTX8l4&#xA;9xJZyvA7JCsIALRlW6y7Yq81/wCcU77W/Mv51HVNa1C51S9sNKuJBdXsz3EoTnHCFDyszUHrnbFX&#xA;tf54f849X35n+ZNO1NdfTSrSxtBa+g1s1wxYyu7SD97Eu4ZRT264q+fPzu/5x6tPyw8t6fqf+IG1&#xA;a7vrz6sIPqq2yhBE7s/99MxoVUfTir6U8r64fIn/ADjbpGurEsz6dolterAxoHadVl4E/DSplp/X&#xA;FWNf85AeQtN/Mnyp5Y866CBcvHLaVdQOUunX8iKQwr1idw1CfhHPFXf85oX5g/K7T7VSQbzVoVcb&#xA;0KRwTOen+UFxV8UYq7FXYq7FX6C/kjpwsfyF0RfLYiF/PpslxA7UKNfyhmJkPekx4mvQCnbFXjuh&#xA;fml/zkN+X/mC6v8A8ytK1TVdAMUnrJFbwPCku3B1ubdfSjAoduVKdu+KvOfzb/PVfNvnrRfN/lqw&#xA;k0TVNGhEUVzMYp3ZldnRuLIyfBzalQcVfVX/ADj75m8w67+Uen+YvMt89/e3T3cj3Lqin0oZ3iA4&#xA;xqo29I9sVfGuk+bPOHnrz95bsNe1i81KG41e0SC2uZ5JYozNcIh4I5KjZqVp0xV9+6z5t0nR9c0T&#xA;R75/TuNfkmgsGJAUywR+rxNT+0Nh77d8VeDaJ+VLeWP+csob+2i46NqNrfaxYkLRUeSMwXEQ6AcJ&#xA;LioAGysoxVgP/OauoGb8ydKsgapa6TGxG+zy3ExP/CouKvAIIXnnjhSnOVlRa9KsaDFX6BfnvMvl&#xA;v8hvMENhWKG3sIdOhC9RFNJFacdv8iSmKvAvya/5xos/NflbR/NcvmubSdQvHllt7O1iUTxCCZ41&#xA;ZZDKrcj6XMEL0P04qhf+chvyj/whF5btz5m1XXtQ1u6kiC6jL6qqIhGoZEJLcv3wHXFXvf8Azk/d&#xA;Rad+ReuQR0QTfU7WBSa7G6iJG5qfgQ4q+BcVfoR/zjxbNY/kZ5aS3USSfVZ50SvV5riWbjU/5T0x&#xA;V8gf84/aJfax+dPlyL0nke1vDfXZINUFqDKWeo2+NQN+5p1xV7z/AM5u6xHF5S8uaNy/eXd/JeBN&#xA;q8bWEx16f8vWKvJf+cRbAXX5zWc5AJsbK7uBWmxaP0Nq/wDGbFWUf85uahz85+XdPr/vPpz3HHw9&#xA;edkr/wAkMVVv+cILAv5n8zahTa3soLflvt68penSn+6MVZx+b3lT/nJTWvP15J5Mv59P8sKsKWRj&#xA;vorZCRChlYorep/ell+IdvDFXiX5t/lb+dWheWbfXfPmtvqdilwtvBBPqFxeyRyyhiCqyBkWoQ1I&#xA;bFX0P/zkL/uD/wCcb59LHwMLfTNPUbgj05YSw3r+zERvirEf+cNPzJ+t6Ve+Qr+Ws+n8r3SOR628&#xA;jfv4h/qSNzH+sfDFUP8A85x3/Gw8o6eCD6st7cMNqj0lhRa99/UOKvk3FXYqiNQtWtL+5tGryt5X&#xA;iPIUNUYruPoxVSiikmlSKMcpJGCIuwqWNAN8VfSflqD/AJyQ/JLyhfalc2llL5UsWSWbTruaO44N&#xA;cSrETB6D80+OQFhy496dcVeufkT/AM5Ar+Z91f6Zc6K2m39hAs8kscvrW8iMwQ/aVGRqnZfiqK74&#xA;q+ff+cl/y6S2/OGWx8oaVNcyajYQ6lc6dp8Dy+nLJK8MhWOJTQMUVjt9pvfFX0n5C0HWtG/5x3td&#xA;KWymTWo9DuSmnsjJP9ZmjklWIxycCH5vTiab4q+V/wApPIHmbQ/z28n6R5h06XT755xqEdvLTn6U&#xA;KyyByEJoOVu3Xw8MVep/85peYLzT9a8j/UJjBeWDXV/DKh+JZQ8HpONv2WjNMVe8/lr5v0rz35Q0&#xA;fzbBFH9amgaOYAAtBPVVuYgTuB6kY+Y4nFXxt/zlbqAu/wA7dZiB5LZQ2luCKEf7zJKRt4NIRiry&#xA;WCZ4J45kpziZXWvSqmoxV+jt9beWvzY/K94En5aR5js1ZZoiGeF6h167c4ZUFVPcUxV5F5F/I3y1&#xA;+UnnrQr26179OeZdXuDZaJafV1tREjIWvLgr6s7Nxtw6A1ABam5IxVS/5yRkiv8A86vyu0aVgIY7&#xA;qKeYMQFEc97Erk8vh+zbnFXtXmu9/LHWdPOmeZ7/AEq5sfVVmtby5hCerGaioZxuPDFXm3nC6/5x&#xA;m0nyhrUmlJ5Sl1RLC7ewS2Gnz3BuFgb01QrzcMXoFFeuKvPP+ccv+ckfLPlryzD5P84SSWdvZPId&#xA;N1RUeaMRSuZDFMqB5AVdjxYAihoaU3Veu3//ADkL+QmhpPf22rW013MvN00+1keeYkk0LLGq1r/O&#xA;wxV8ifnT+a97+ZPnBtXeJrXTLaMW2lWTEFo4QeRZyNi8jHk1PZd6VxVG/kL+aulflp5ov9cv7CbU&#xA;PrVi1lFHAyoV5zRysSW2/wB04qgvzt/NCP8AMnzmuvxWT2EEVpHZw28kglYLG7vWoCgVMh2GKo78&#xA;nPzy1P8AK+HVk0/SrfUH1ZoDLJO7oVFuJAgATr/enFWbXP8Azmt+Zjgi30nRoQVIq0Vy7A+I/wBI&#xA;UfeMVYJ+Y35+effzA0y20vXvqYsbW5S8jht4OAM0aPGpYu0hI4ytUdMVQXnb87/zN866WdJ8xauL&#xA;rTPVScWqW1tCokjBCnlFGkn7R2LYqxLRdb1jQ9Si1PR72bT9Qg5ejd27tHIvNSjUZaHdWIOKq+ve&#xA;a/NHmGWKXXtXvdWkg5CBr24luPTDkFgnqM3EGg2GKpVirsVZX+a+mHS/zN81WPHgkOq3npL0/dtO&#xA;zR9AP2GGKsVVmVgykqymqsNiCMVfaPkT/nK78ttd8tw2Hnp/0dqbRC31BJrd7mzuTQKXHpJLRX6s&#xA;rqAOlSN8VV7r/nI//nHzyZp9wPKFpFPcSbtZaPp/1FJJF2UySPHbpT/KHL5HFXjf5f8A/OR1tpn5&#xA;oeYfPnmqxuLq51i1Fpa21lwKwRK6MsdZWT4VWJRt1NScVeh3X/OcOiqD9V8qXMp4mnq3ccfxdh8M&#xA;cm3viryjVf8AnIm7vPzitPzKh0OOOextDZ22mS3BlVeUUkZf1ViiP+7mNOPtXFWNfm9+bmrfmZrl&#xA;nqmoWUNh9St/q0MEDOy05s5Ylz1JbsMVX/l1+eHn38vtMvNN8vTwLaXky3Dx3EXqhJAvBilSAOa8&#xA;eX+qMVYt5q8zav5o8wXuv6vIsuo6hJ6lw6KEWoUKAqjoAqgYqlOKp75d89ec/Lcckega5faXFMeU&#xA;sVrcSRIzbfEUUhSdutK4qgtT8w69quoHUtT1K6vtQO31u4mkllp4c3Jam+KoKSWSVzJK7PI32nYk&#xA;k/MnFVmKuxV2KuxV2KuxV2KuxV2KuxV2KuxV2KuxVN/KOl/pbzXoulU5fpC/tbXjsa+tMsdNwf5s&#xA;Veo/85caC2mfnHd3YXjHrNpbXqU6VVPqzfTyt6n54q8XxV2KuxV2KuxV2KuxV2KuxV2KuxV2KuxV&#xA;2KuxV2KuxVfFFLNII4kaSRvsogLE0FdgMVTS18n+bbun1TRL+45DkvpWsz1HiOKnFU4tfyf/ADWu&#xA;hWHyhrFKAhnsbiMEHoQXRQcVTm1/5xz/ADruiBH5VuVqeP72S3h3/wCekibe+Kpxaf8AOJ/52z09&#xA;XR4LWta+reWxpTx9J5OuKpxa/wDOGf5tTAGS60i22rSW5mO/h+7gk3xVJPzP/wCccte/Lryt+nta&#xA;1qxn9S4jtba0thMzySSBmPxOqAcVRjiryLFXYq7FXqf/ADjJoDaz+c+ggryg08y385/lEETGM/8A&#xA;I4oMVe0/85teVTPoOgeaIkq1jcSWF0wH+67hfUjLeyvEw/2WKvkPFXYq7FWwCSABUnYAda4qmVp5&#xA;X8zXhAtNIvbgk8R6VvK/xdafCp3xVObT8pfzSuwDB5R1hlYVVzY3KoQNtmZAv44qnNp/zjx+dN0K&#xA;xeVLten960MP2un966fT4YqnNp/zij+d85Al0WG1qaVmvbU7UrX91JJiqcWn/OGv5tzgercaTa1F&#xA;SJbmU09v3UMmKpzaf84R+dWH+l+YdNhO390s8v8ArfaSLp2xVKPzO/5xS1jyR5Ju/M8WuJq31B0N&#xA;1Zx2rRFbdyEMocyyV4swqvH7NTXbFUl/5x9/KLyj+Zd9qmnavqt1YahYxpcQQWwi/ewseDtV1anp&#xA;vxrt+0MVe9W3/OF35VxAGbUNZuG4gNynt1WvcgLbg/icVfMX5h+UtG8sfm9f+W4Y3bRrK/hiETOW&#xA;ka3cRuQXHE1Kv7Yq+z7T/nG78kbSnpeVoGpWnrTXU3X/AIyyvir46/NfR9Ivfzr1Py95Ys4rGxGo&#xA;Q6RZWtugCLLGEtn2HUmYMT3rir7z03yL5M02CKGy0OwhEIUK620IclAArFgtS23XFXlvm7/nKv8A&#xA;LLyjrt/5djsL+8udNmaC4eyit1tvVXaRVZ5UYlGqp+DqMVS/y1/zmH5P1zzPpuiLot7apqV1FaRX&#xA;krxEI0zBEZ0UnbkwrvsMVe/Yq7FXYq7FXxh/zmT57XVvOtl5VtJOVpoERe64nY3lyAxU02PpxBPk&#xA;WYYq+esVdirsVfVH/OEXlYmTzH5rkTYCPS7V/GpE9wPwhxV9A/mr5OXzl+XuueXQAZ7y2Y2ZPQXM&#xA;REsBr2HqItfbFX5sSRyRSNHIpSRCVdGBDBgaEEHoRiq3FXYqrWl3c2d1Dd2sjQ3NvIssEyGjJIhD&#xA;KynxBFcVfo3+UP5iWnn/AMiafr8RVbwr9X1SBf8AdV3EAJV+TVDr/ksMVZnirsVdirsVdiqE1fS7&#xA;HVtKvNKv4xNZX8MltcxH9qOVSjj7jir4C8o6lqH5P/nfGl87LHo9+9jqTAUEtlIeDScd6gxMJVHj&#xA;TFX6Do6OiujBkYAqwNQQdwQRir4G/wCcp7YQfnjr7oaesllLQClD9ThU/eVrir7vXUYV0kalORHC&#xA;IPrMprUKvDm2/sMVfBv5D2k3m38/dIvbpOTPfXGsXR6hXiD3Kkn/AIzcRir7e8/ea7fyl5L1nzHP&#xA;QrptrJNGjdHmpxhj2/nlZV+nFX5n3V1cXd1NdXLmW4uHaWaRurO5LMx+ZOKp3+XlP8f+Wa9P0rY1&#xA;/wCklMVfppirsVdirGfzJ886f5H8l6l5kvaN9UjItYCaetcv8MMQ7/E5FadFqe2Kvzd1fVb7V9Vv&#xA;NVv5PWvr+eS5upT+1LKxdz95xVB4q7FXYq/Rj8jfJX+Dvyv0TSJY/Tvnh+uaiDs31i5/eOre8YIj&#xA;/wBjirPMVfBn/OUn5fHyn+ZtzfW0fDSvMXLULUgEKszN/pMfzEh50HQOMVePYq7FXYq9Z/5x0/N4&#xA;/l75xEWoSH/DWsFINUHUQsCRFcgf8Vljyp+yT1IGKvvmKWKWJJYnWSKRQ0cikMrKwqCCNiCMVXYq&#xA;7FXYq7FXYq+P/wDnNLyP9T8xaV5xto6Q6rH9Sv2A2FxbisTMfF4jxHsmKvb/APnGvzr/AIr/ACm0&#xA;qSaTnf6RXS72vXlbAekTXrygZCT41xV82f8AOYcHpfnAX5V9fTbWSlKUoZEp/wAJXFX0f578w/o7&#xA;/nGy81U/u2n8uwQrv9l76CO3Wh8Q022KvDf+cJtE+sedtd1llJTT9PW3U9g93KGB+fG3b8cVZZ/z&#xA;mr54+r6Ro/ku2kpLfOdR1BQdxDCSkCn2eQs3zQYq8d1n8pJNO/5x+0jz1JERqF5qbtLtuthMnpQl&#xA;v+esPIezjFWEfl7/AMp95a/7atj/ANRKYq/TTFXYq4kAVOwHU4q+FP8AnJr84x5580jR9In5+V9E&#xA;dkt3U/Dc3P2ZLjbYqPsx+1T+1irxbFXYq7FXqH/OOf5enzp+Zunw3EZfSdJI1HUiRVSkLAxxNXb9&#xA;7LxUj+Xl4Yq/QTFXYq82/P78sV8//l/dWVtGG1zT63mjt3MqD4oa+EyVXw5cSemKvz2dHR2R1Kup&#xA;IZSKEEdQRiq3FXYq7FX1D/zi7+f6WX1XyD5quONqxEeg6lK1BGT0tZWP7JP90e32elKKvrPFXYq7&#xA;FXgf/OUX53a55Gj0rQ/Kt4tpr17W7u5/TimaK1WqIOEyyJ+9flvx/ZPjirB/Iv8AzmrqEPC287aO&#xA;t3GKA6lptI5aeL28h4MfdXX5Yq9b/Naz0T81/wAir++8vyrexPB+k9Jl4kN61mSzx8TushVZIiPE&#xA;4q8P/wCcL/OR0/znqflaZv3Gt2/r2w8Lmzq1AP8AKhdyf9UYqh/+c1rdl/M3SJ6ALLo0S7dSyXVw&#xA;TX6GGKst/OrzAsH/ADil5Js42+LVLfSLZ1PUpb2nqOfokhX78VTn/nCjSFtvIeu6w4CtfaiIOR7x&#xA;2sKsD8uU7Yq8F87alffm7+eUsdgxaLVb9NP0xhuEs4m9NZaV6emplb5nFX2b+Y/kSy1T8odX8oWE&#xA;NIYtM9HTIB2ks0D2q/8ABxJir4D/AC9/5T7y1/21bH/qJTFX6aYq7FXy/wD85R/n8ltFd+QPK1xW&#xA;6kBh1/UIjtGh+1aRsp+23SU9h8PWtFXyXirsVdirsVfff/ONn5XHyL5AikvofT1/W+N5qYI+KNaH&#xA;0ID/AMY0arDszNir1nFXYq7FXxn/AM5afk+2g66fPGjw/wC4fWJKanGg2gvW3LnwSfr/AK9f5lGK&#xA;vnfFXYq7FXYq+ofyA/5yi+pJb+VfP10WtV4xabr0hqYwNliuj1K+Evb9rbcKvrGGaKaJJoXWSKRQ&#xA;8ciEMrKwqGUjYgjFVl5d21naT3l1IsNrbRtNPM2ypHGpZmPsAK4q/Nr80PPFz5389at5jm5CK7mI&#xA;soX6x20fwQpttUIByp3qcVUvKf5d+bPNdhrOoaLZtPZ6FateX8xqFCoK+mhoeUhUFgvcA4q91/5w&#xA;0/MgWuqX3kLUJf8AR9R5XukBjsLhF/fxCv8AvyNeYH+SfHFXmOtRzflR+fcrwgpBoWrLcQou3Kxl&#xA;YSBP9lbS8Tir0b/nNlYpPMvle9iAaO40+UJOOjqsoYUP/PSv04qxb86ddef8pvyn0nn8UemTXMyD&#xA;uKxwQmnsI3xV6VaeYf8AlX3/ADh/ZSRP6WreYUmgtCNmL380hZxTccLVSQfGmKsf/wCcLvI/13zL&#xA;qnnG5jrBpMX1OwYg0Nzcj94ynxSH4T/r4q+wcVfn3rnlceVv+cik0RE4QW3mK1e1Twt57mOeAfRF&#xA;IuKv0DZlVSzEKqirMdgAO5xV8vfn7/zlJHAlz5W8gXXO5NY7/wAwREFUG4aO0bu3Yyjp+zv8QVfJ&#xA;zMzMWYlmY1ZjuSTirWKuxV2Kvdv+cWPyebzZ5nHmjVoOXl3QpVaJXHwXN6tGSPfZli2d/wDYjoTi&#xA;r7exV2KuxV2Kpf5g0HSvMGi3mi6tbrdabfxNDcwt3Vu4PZlO6sNwdxir89fzg/KnWPy481y6VdBp&#xA;tMn5S6RqJHwzwV7kbCROjr9PQjFWC4q7FXYq7FXrH5Qf85FecPy9MenyV1jy1y+LS53IaIHqbaUh&#xA;jHvvxoVPgCa4q9X/AD0/5yS8qeY/ypGneU7p/wBIa9J9X1G1lUxz21sgDyhwKr+8PFAQSCpbfbFX&#xA;zv8Al1+X2veffNFtoGjR/vJTzurpgTHbwAjnNIfBew7mgG5xV+hfkLyHoHkjyta+XdGhC2sC1nlY&#xA;D1J5WH7yaU92c/cKAbAYq+Ifzf8AKOpflP8Am+Z9GrbWyTpq3l+UD4VjL8hF7iKRWjI7rSvXFWQ/&#xA;85Ozad5nh8n/AJlaUgW08x6ebe6Qb+ndWjfGjn+ZfUMf+wxVJPzb8xyeYvyv/K+/lbnNa2l/pc5r&#xA;VvUsXgjHL3MRjbfxxVhvnPVxfab5Utlfkum6MtsQDUBmvLmY/T+9APyxVnf/ADkV5jpJ5U8h27j6&#xA;r5Q0e0t7pVpQ30tvGZaldjxRU/2RbFX1p+Rnkf8AwZ+WOjaRLH6d/LF9c1LYBvrNz+8dWp3jUrH/&#xA;ALHFWe4q+a/+cifKHk+w/MjQPzA1XzHbaWbM20l5pHBpr66+pTepG1tEh35j92Wcqq0Br2xV5H+c&#xA;H/OS/mzz4sulaaG0TyyxKtaROTPcL0/0mUU+E/77X4fHl1xV43irsVdirsVZf+Vv5a63+Yfmu30L&#xA;TB6cO0uo3xFUt7cEBpD4neir3PtUhV+h/lTyto3lXy9ZaBo0Ig0+wjEcS/tMerO57u7VZj44qm2K&#xA;uxV2KuxV2KsW/Mn8ufL/AJ/8sXGg6xHQN8dneKAZbacCiyx18OjD9obYq/Pz8xfy68yeQfMk2h65&#xA;Dxdava3SA+jcQ1ossTHqD3HUHY4qxfFXYq7FXYq7FXqP5M/nzq35Y/Wbe20iz1GxvpFkvOYMN03A&#xA;UVVuF5fCN6KyMASfE4q+mPKf/OXH5T60scepzXGgXbbMl5EZIeX+TNB6gp7uFxVLv+cidG8p/mb+&#xA;XL6n5X1Sy1bWvL3O+tVs54p5Ht+P+lRcUZm+wvOlK1QDvir5b0fzIt7+Wms+T716/VLmLW9DqdxM&#xA;n7i7hX2eCT1adP3Z7nFWNTavdS6HaaO3+8tnc3N3F/r3ccEcn4Wq4qhbV4EuYnnQyQK6mWMGhZAf&#xA;iAPuMVeg/lvJp3m784bfWfOGoW1np73kmsaxc3kqRRMEczekDIVr6knGMKN6HbFX1P5p/wCctPyj&#xA;0UMljdXGu3I29OxhIjDdqyz+klPdOWKvCvPX/OX/AOYeurJa+X4ofLdi9Rzh/f3ZB8ZnAVf9ggI8&#xA;cVeH31/fahdyXl/cy3d3MeU1xO7SSO3izuSxPzxVD4q7FXYq7FU+8keSPMXnTzFbaDoNsZ72c1dz&#xA;URwxgjlLK1DxRa7n6BUkDFX6B/lR+V2g/lz5Xi0fTQJbuTjJqeoEUe5nAoWO54ovRE7D3JJVZnir&#xA;sVdirsVdirsVdirF/wAxPy38sefvL8mja9b813a0vEAE9tIf92QuQaHbcdG6HFXwf+a35OebPy41&#xA;c22qRG40uZj+j9XiU+hMvUA9fTkA+0jfRUb4qwPFXYq7FXYq7FXYq7FXYq7FXYq7FXYq7FXYq7FX&#xA;Yq7FWX/lr+Vvmv8AMPWxpmhW/wC5job7UZQRb26HvIwB3P7Kjc/KpCr7y/K78qfLH5daCumaPF6l&#xA;3LRtQ1SRQJ7mQd2I+yi1+BBsvzJJVZnirsVdirsVdirsVdirsVdiqB1vQtH13S59K1izivtOul4T&#xA;20y8kYfwI6gjcdsVfIn5w/8AOJWtaIZ9Y8iiTVtJFXk0k/HewD/iun9+o9vj9m64q+dpI5IpGjkU&#xA;pIhKujAhgwNCCD0IxVbirsVdirsVdirsVdirsVdirsVdirsVdirYBJoNycVe8/k//wA4qeZvNLQa&#xA;t5sEuhaASHW3ZeN7cr1+BGH7lT/M4r4KeuKvsXyx5W8v+V9Gg0bQbKOw063HwQxDqT1d2NWd2puz&#xA;Ek4qmuKuxV2KuxV2KuxV2KuxV2KuxV2KuxV5z+Zv5Cfl/wDmAj3GoWn1HWSPg1iy4xzkjp6ooUlH&#xA;+sK+BGKvlX8wv+cWPzL8qtLc6bb/AOI9JSpW4sFJuFUf78td5K/6nMe+KvHpYpIpGilRo5EJV0YE&#xA;MCOoIPTFVmKuxV2KuxV2KuxV2KuxV2KtgEkACpOwA61xV6x+Xv8AzjN+ZvnBoriayOg6Q+5v9RVo&#xA;2K+MVvtK9R0JCqf5sVfVP5Zf845/l55EaK9jtzq+ux0I1S+CsUbxgi+xF7Hdv8rFXqWKuxV2KuxV&#xA;2KuxV2KuxV2KuxV2KuxV2KuxV2KuxVivnH8rPy+85If8RaHbXs5FBdhTFcgDoBPEUloPDlTFXiPm&#xA;r/nCXy/cc5fK+v3Fg+5W1v41uYyf5RJH6LoPmrHFXlWv/wDOJP5x6WxNpZ2usxD9uyuUBp/qXP1d&#xA;vuBxVgeq/lT+ZmlE/X/K2qQou5l+qTPH/wAjEVk7eOKscutPv7RuN3bS27VK0lRkNR1HxAYqh8VV&#xA;7Wxvbt+FrbyXD1A4xIzmrbAUUHrirIdM/K38ytUK/UPK2qzq3SRbOcR7+MhUIPvxVnWg/wDOJ/5z&#xA;aqVNxp1vpETdJL65jG3ukHryD6VxV6p5W/5wk0uIpL5p8wy3JFC1pp0awrt29aX1GIP+ouKvbPJn&#xA;5P8A5b+TeD6DoVvBdp0vpQZ7mvciaUu618FIGKsyxV2KuxV2KuxV2KuxV2KuxV//2Q==</xmpGImg:image>
               </rdf:li>
            </rdf:Alt>
         </xmp:Thumbnails>
         <xmpTPg:NPages>1</xmpTPg:NPages>
         <xmpTPg:HasVisibleTransparency>False</xmpTPg:HasVisibleTransparency>
         <xmpTPg:HasVisibleOverprint>False</xmpTPg:HasVisibleOverprint>
         <xmpTPg:MaxPageSize rdf:parseType="Resource">
            <stDim:w>50.460000</stDim:w>
            <stDim:h>50.460000</stDim:h>
            <stDim:unit>Pixels</stDim:unit>
         </xmpTPg:MaxPageSize>
         <xmpTPg:PlateNames>
            <rdf:Seq>
               <rdf:li>Cyan</rdf:li>
               <rdf:li>Magenta</rdf:li>
               <rdf:li>Yellow</rdf:li>
               <rdf:li>Black</rdf:li>
            </rdf:Seq>
         </xmpTPg:PlateNames>
         <xmpTPg:SwatchGroups>
            <rdf:Seq>
               <rdf:li rdf:parseType="Resource">
                  <xmpG:groupName>Grupo de muestras por defecto</xmpG:groupName>
                  <xmpG:groupType>0</xmpG:groupType>
               </rdf:li>
            </rdf:Seq>
         </xmpTPg:SwatchGroups>
         <illustrator:CreatorSubTool>AIRobin</illustrator:CreatorSubTool>
         <dc:format>image/svg+xml</dc:format>
         <dc:title>
            <rdf:Alt>
               <rdf:li xml:lang="x-default">base-iconos</rdf:li>
            </rdf:Alt>
         </dc:title>
         <xmpMM:RenditionClass>proof:pdf</xmpMM:RenditionClass>
         <xmpMM:DocumentID>xmp.did:409e41f1-74e2-412c-a0cf-2d973d1d0639</xmpMM:DocumentID>
         <xmpMM:InstanceID>xmp.iid:409e41f1-74e2-412c-a0cf-2d973d1d0639</xmpMM:InstanceID>
         <xmpMM:OriginalDocumentID>uuid:0c98a2d9-d530-8e4e-817a-b9d69da31db5</xmpMM:OriginalDocumentID>
         <xmpMM:DerivedFrom rdf:parseType="Resource">
            <stRef:instanceID>xmp.iid:77cffe78-17dc-47e5-aaee-51795cea4819</stRef:instanceID>
            <stRef:documentID>xmp.did:77cffe78-17dc-47e5-aaee-51795cea4819</stRef:documentID>
            <stRef:originalDocumentID>uuid:0c98a2d9-d530-8e4e-817a-b9d69da31db5</stRef:originalDocumentID>
            <stRef:renditionClass>proof:pdf</stRef:renditionClass>
         </xmpMM:DerivedFrom>
         <xmpMM:History>
            <rdf:Seq>
               <rdf:li rdf:parseType="Resource">
                  <stEvt:action>saved</stEvt:action>
                  <stEvt:instanceID>xmp.iid:f9fcf314-fb0d-4bb9-9bc6-695ecaa19dea</stEvt:instanceID>
                  <stEvt:when>2020-03-11T13:16:27-03:00</stEvt:when>
                  <stEvt:softwareAgent>Adobe Illustrator 24.0 (Macintosh)</stEvt:softwareAgent>
                  <stEvt:changed>/</stEvt:changed>
               </rdf:li>
               <rdf:li rdf:parseType="Resource">
                  <stEvt:action>saved</stEvt:action>
                  <stEvt:instanceID>xmp.iid:409e41f1-74e2-412c-a0cf-2d973d1d0639</stEvt:instanceID>
                  <stEvt:when>2023-12-21T10:24:43-03:00</stEvt:when>
                  <stEvt:softwareAgent>Adobe Illustrator 25.4 (Macintosh)</stEvt:softwareAgent>
                  <stEvt:changed>/</stEvt:changed>
               </rdf:li>
            </rdf:Seq>
         </xmpMM:History>
         <pdf:Producer>Adobe PDF library 16.07</pdf:Producer>
      </rdf:Description>
   </rdf:RDF>
</x:xmpmeta>
                                                                                                    
                                                                                                    
                                                                                                    
                                                                                                    
                                                                                                    
                                                                                                    
                                                                                                    
                                                                                                    
                                                                                                    
                                                                                                    
                                                                                                    
                                                                                                    
                                                                                                    
                                                                                                    
                                                                                                    
                                                                                                    
                                                                                                    
                                                                                                    
                                                                                                    
                                                                                                    
                           
<?xpacket end="w"?>
	</metadata>
<path d="M44.962,24.495V24.48l-0.073-0.477c-0.791-4.755-3.198-8.836-6.563-11.763l0,0c0,0-0.032-0.032-0.063-0.06
	c0.165-0.216,0.315-0.438,0.44-0.671c0.333-0.62,0.521-1.285,0.563-1.949l0.029-0.376L38.92,9.114
	c-0.664-0.115-1.357-0.087-2.036,0.101c-0.188,0.044-0.361,0.102-0.549,0.174c0.418-0.506,0.751-1.098,0.953-1.791
	c0.216-0.693,0.26-1.4,0.188-2.064c-0.087-0.693-0.303-1.357-0.664-1.921l-0.188-0.317l-0.346,0.159
	c-0.607,0.275-1.155,0.707-1.618,1.242c-0.433,0.506-0.765,1.127-0.982,1.82c-0.202,0.664-0.26,1.329-0.188,1.979
	c-0.101-0.144-0.216-0.275-0.332-0.418c-0.462-0.519-1.026-0.923-1.632-1.198l-0.347-0.144l-0.188,0.317
	c-0.182,0.312-0.322,0.645-0.426,0.992c-2.081-0.578-4.273-0.807-6.534-0.678L24.03,7.362l-0.066,0.006
	c-0.018,0.001-0.035,0-0.053,0.001c0,0.001,0.001,0.002,0.001,0.004L23.89,7.375c-0.095-0.225-0.201-0.442-0.331-0.641
	c-0.346-0.563-0.808-1.04-1.328-1.387l-0.317-0.202l-0.246,0.289c-0.404,0.477-0.707,1.07-0.881,1.704
	c-0.06,0.228-0.097,0.469-0.122,0.714c-2.499,0.59-4.768,1.623-6.767,3.014l-0.001,0c0,0-0.005,0.004-0.007,0.005
	c-0.005,0.003-0.01,0.007-0.015,0.01c0,0,0.001,0.001,0.001,0.001c-0.002,0.002-0.006,0.005-0.009,0.007
	c-0.177-0.103-0.359-0.191-0.546-0.264l-0.361-0.144l-0.174,0.346c-0.177,0.355-0.307,0.748-0.378,1.157
	c-1.268,1.081-2.406,2.307-3.372,3.661c-2.874,4.014-4.26,9.083-3.538,14.338l-0.014,0.014l0.087,0.491l0.014,0.043
	c0.895,5.399,3.898,9.934,8.043,12.894c4.014,2.888,9.083,4.274,14.338,3.553h0.014l0.491-0.073
	c5.415-0.895,9.978-3.913,12.938-8.057C44.298,34.834,45.683,29.75,44.962,24.495z M37.722,25.839l-0.101,0.923l-1.71,0.117
	l-0.074,0.712l1.96-0.133l-0.104,0.96l-2.994,0.205l0.001-0.003l0.448-4.218l2.948-0.201l-0.096,0.918l-1.913,0.131l-0.075,0.706
	L37.722,25.839z M31.423,25.614l0.104-0.965l3.174-0.216l-0.104,0.965l-1.07,0.073l-0.344,3.253l-1.058,0.073l0.344-3.253
	L31.423,25.614z M32.616,17.536c0.028-0.174,0.057-0.347,0.115-0.521c0.404-1.416,1.704-2.585,3.119-2.961
	c0.434-0.115,0.895-0.159,1.343-0.129l0.232,0.014l-0.043,0.218c-0.073,0.447-0.216,0.881-0.433,1.285
	c-0.289,0.535-0.693,1.011-1.169,1.387c-0.477,0.376-1.024,0.664-1.616,0.808c-0.434,0.115-0.895,0.174-1.343,0.145l-0.231-0.014
	l0.028-0.231L32.616,17.536z M32.948,19.155c0.477-0.376,1.024-0.664,1.616-0.824c0.434-0.115,0.895-0.159,1.343-0.129l0.231,0.014
	l-0.043,0.232c-0.073,0.447-0.216,0.881-0.433,1.285c-0.289,0.535-0.693,1.011-1.17,1.387c-0.115,0.09-0.245,0.18-0.373,0.27
	c-0.006,0.004-0.011,0.008-0.017,0.012c-0.01,0.007-0.019,0.014-0.029,0.021l-2.7,0.188l-0.001-0.003l0.003-0.011l0.003-0.01
	l0.009-0.036c0.129-0.635,0.434-1.198,0.838-1.689C32.442,19.602,32.688,19.356,32.948,19.155z M35.208,21.311
	c0.412-0.387,0.754-0.828,0.997-1.285c0.305-0.568,0.482-1.174,0.543-1.793h0.029c0.663,0.865,1.254,1.817,1.729,2.84L35.208,21.311
	z M37.063,9.825c0.434-0.115,0.895-0.159,1.343-0.129l0.231,0.014L38.594,9.94c-0.073,0.448-0.216,0.866-0.433,1.271
	c-0.174,0.323-0.395,0.62-0.644,0.891c-0.163,0.178-0.337,0.346-0.526,0.495c-0.477,0.376-1.026,0.664-1.618,0.809
	c-0.434,0.129-0.895,0.174-1.343,0.144l-0.232-0.014l0.029-0.232l0.001,0.001c0.144-1.04,0.793-2.021,1.617-2.671
	c0,0,0.001-0.001,0.001-0.001C35.923,10.257,36.471,9.984,37.063,9.825z M34.306,6.692c0.174-0.578,0.462-1.127,0.852-1.589
	c0.303-0.346,0.649-0.649,1.04-0.881l0.188-0.115l0.101,0.202l-0.001,0c0.202,0.404,0.317,0.852,0.376,1.3
	c0.073,0.606,0.014,1.228-0.158,1.805c-0.172,0.578-0.477,1.127-0.866,1.602c-0.289,0.347-0.635,0.65-1.026,0.881l-0.202,0.131
	L34.508,9.81c-0.188-0.404-0.317-0.852-0.361-1.313C34.075,7.891,34.132,7.269,34.306,6.692z M31.028,9.059
	c0.012-0.133,0.042-0.261,0.064-0.391c0.056-0.321,0.134-0.635,0.267-0.923L31.46,7.53l0.188,0.115
	c0.404,0.232,0.751,0.521,1.054,0.852c0.273,0.322,0.496,0.673,0.672,1.043c0.084,0.177,0.162,0.358,0.222,0.545
	c0.332,0.996,0.346,2.165-0.13,3.119l-0.087,0.202l-0.202-0.115c-0.39-0.216-0.751-0.521-1.054-0.852
	c-0.404-0.462-0.707-0.996-0.895-1.574C31.042,10.287,30.969,9.667,31.028,9.059z M29.814,13.276
	c0.087-0.434,0.159-0.881,0.332-1.285l0.101-0.218l0.188,0.115c0.404,0.216,0.751,0.521,1.054,0.852
	c1.097,1.228,1.502,3.177,0.765,4.692l-0.087,0.202l-0.202-0.115v0.001c-0.39-0.231-0.751-0.519-1.054-0.852
	c-0.404-0.462-0.707-0.996-0.895-1.574S29.685,13.882,29.814,13.276z M27.508,27.305l0.256-2.401l1.11-0.075l-0.254,2.36
	c-0.076,0.671,0.096,0.892,0.491,0.866c0.407-0.027,0.548-0.271,0.614-0.942l0.254-2.36l1.11-0.075l-0.256,2.401
	c-0.045,0.447-0.137,0.821-0.263,1.105c-0.253,0.578-0.701,0.854-1.457,0.905c-0.367,0.025-0.673-0.018-0.933-0.141v-0.001
	C27.662,28.714,27.409,28.182,27.508,27.305z M22.273,26.154c-0.453,0.031-0.705,0.369-0.794,1.211l-0.008,0.065
	c-0.031,0.317-0.032,0.563,0.01,0.747c0.089,0.368,0.303,0.499,0.616,0.478c0.43-0.03,0.633-0.306,0.681-0.724l-0.738,0.051
	l0.079-0.729l1.814-0.124l-0.238,2.242l-0.895,0.061l0.061-0.991c-0.038,0.212-0.113,0.405-0.201,0.569h-0.003
	c-0.181,0.334-0.488,0.541-0.995,0.576c-0.948,0.065-1.476-0.588-1.324-2.024l0.022-0.194c0.054-0.495,0.167-0.899,0.333-1.208
	c0.343-0.619,0.896-0.908,1.611-0.957c1.1-0.075,1.726,0.478,1.662,1.487v0.012l-1.087,0.074l0.004-0.03
	C22.899,26.357,22.756,26.121,22.273,26.154z M18.798,22.504l-0.175,0.012l0.005-0.012l0.024-0.059
	c0.115-0.376,0.303-0.737,0.549-1.054c0.202-0.26,0.448-0.491,0.721-0.693l0.202-0.145l0.101,0.216l0.001,0.001
	c0.159,0.303,0.26,0.636,0.317,0.967c0.027,0.195,0.04,0.404,0.041,0.626c0,0.004,0.001,0.008,0.001,0.012
	c0,0.004,0.001,0.007,0.001,0.012l-1.537,0.101l-0.209,0.015c0,0,0,0.001-0.001,0.001v-0.001l0.001,0c0-0.001,0-0.001,0.001-0.001
	L18.798,22.504z M21.928,22.287c-0.002-0.002-0.004-0.004-0.006-0.006c-0.005-0.004-0.009-0.009-0.014-0.013
	c-0.094-0.083-0.188-0.175-0.269-0.256c-0.39-0.418-0.693-0.909-0.895-1.444c-0.145-0.39-0.216-0.808-0.232-1.212l-0.014-0.246
	l0.246,0.029h0.001c0.404,0.028,0.808,0.145,1.198,0.303c1.083,0.462,2.022,1.488,2.367,2.629l0.008,0.024l0.002,0.006l0.004,0.013
	L21.928,22.287z M21.02,17.855c-0.39-0.418-0.693-0.909-0.881-1.444c-0.144-0.39-0.231-0.809-0.246-1.212v-0.246l0.232,0.028v-0.001
	c0.418,0.029,0.824,0.131,1.198,0.303c1.386,0.592,2.541,2.094,2.527,3.654l-0.014,0.218l-0.216-0.014
	c-0.418-0.028-0.824-0.144-1.198-0.303C21.887,18.62,21.426,18.273,21.02,17.855z M25.583,14.647
	c0.317-0.26,0.679-0.477,1.054-0.635l0.216-0.087l0.073,0.232c0.101,0.39,0.145,0.808,0.129,1.228
	c-0.043,0.563-0.188,1.127-0.448,1.646c-0.245,0.505-0.606,0.982-1.039,1.343c-0.317,0.26-0.693,0.491-1.083,0.635L24.24,19.11
	l-0.043-0.26C23.995,17.145,24.211,15.789,25.583,14.647z M24.695,25.112v0.001l1.093-0.075l-0.339,3.165l1.745-0.119l-0.109,1.053
	l-2.838,0.193L24.695,25.112z M26.754,21.919c-0.004,0.005-0.008,0.011-0.012,0.016c-0.001,0.002-0.002,0.004-0.004,0.005
	l-2.066,0.145v-0.011v-0.003l0.001-0.001c0,0,0-0.001,0-0.001c-0.014-1.213,0.592-2.483,1.516-3.262
	c0.317-0.26,0.679-0.477,1.069-0.635l0.216-0.087l0.058,0.231c0.115,0.39,0.158,0.809,0.129,1.228
	c-0.028,0.563-0.188,1.127-0.434,1.646C27.103,21.442,26.935,21.694,26.754,21.919z M27.787,21.454
	c0.246-0.492,0.39-1.012,0.462-1.517c0.216,0.535,0.535,1.011,0.895,1.43c0.113,0.127,0.228,0.255,0.354,0.355l-1.938,0.139
	C27.633,21.734,27.717,21.594,27.787,21.454z M31.021,21.613c-0.001,0.003-0.002,0.006-0.003,0.01
	c-0.002,0.005-0.003,0.01-0.005,0.014l-0.549,0.028c-0.002-0.001-0.003-0.002-0.005-0.003c-0.004-0.002-0.007-0.005-0.01-0.008
	c-0.297-0.2-0.581-0.428-0.823-0.712c-0.404-0.447-0.707-0.982-0.895-1.559c-0.188-0.578-0.332-1.228-0.202-1.834v-0.014
	c0.087-0.434,0.158-0.866,0.332-1.285l0.101-0.202l0.188,0.115l0.001,0.001c0.404,0.216,0.751,0.505,1.054,0.852
	c0.404,0.448,0.707,0.996,0.909,1.588c0.101,0.317,0.174,0.65,0.202,0.982C31.387,20.285,31.301,20.97,31.021,21.613z
	 M26.504,13.231c0.092-0.181,0.166-0.363,0.231-0.546c0.021,0.001,0.04,0.003,0.056,0.004c0.803,0.087,1.606,0.242,2.383,0.452
	c-0.004,0.03-0.011,0.06-0.014,0.09c-0.057,0.68,0.014,1.373,0.246,2.066c0.043,0.115,0.087,0.246,0.13,0.361
	c-0.159-0.101-0.332-0.188-0.505-0.26l-0.347-0.158l-0.188,0.332c-0.332,0.563-0.534,1.198-0.606,1.862l-0.043-0.115l-0.376,0.101
	c-0.144,0.043-0.289,0.087-0.433,0.144c0.043-0.087,0.087-0.174,0.13-0.26c0.303-0.606,0.477-1.256,0.505-1.877
	c0.028-0.664-0.073-1.315-0.303-1.906l-0.145-0.346l-0.36,0.101c-0.159,0.043-0.304,0.087-0.462,0.144
	C26.447,13.362,26.475,13.289,26.504,13.231z M24.904,10.575c0.317-0.275,0.693-0.491,1.083-0.636l0.216-0.101l0.057,0.232
	c0.101,0.404,0.145,0.822,0.13,1.228c-0.029,0.578-0.188,1.141-0.433,1.646c-0.26,0.505-0.62,0.967-1.069,1.328
	c-0.317,0.275-0.679,0.491-1.068,0.65l-0.202,0.073l-0.073-0.202h0.001c-0.289-0.939-0.115-2.022,0.317-2.888
	C24.11,11.397,24.47,10.936,24.904,10.575z M21.411,7.298c0.115-0.404,0.289-0.78,0.505-1.127l0.13-0.202l0.188,0.159
	c0.317,0.26,0.592,0.578,0.808,0.939c0.164,0.259,0.292,0.539,0.391,0.831c0.083,0.246,0.147,0.499,0.187,0.757
	c0.087,0.578,0.057,1.155-0.101,1.704c-0.101,0.404-0.275,0.794-0.491,1.141l-0.131,0.188l-0.188-0.144l0.001-0.001
	c-0.317-0.275-0.592-0.592-0.808-0.939c-0.303-0.491-0.491-1.024-0.578-1.588c-0.039-0.257-0.051-0.517-0.044-0.775
	C21.29,7.921,21.331,7.603,21.411,7.298z M19.463,10.893c0.418,0.043,0.824,0.145,1.199,0.303c1.372,0.592,2.555,2.123,2.527,3.639
	v0.231l-0.231-0.014h-0.004c-0.404-0.043-0.824-0.144-1.198-0.303c-0.519-0.232-0.996-0.563-1.386-0.982
	c-0.39-0.418-0.707-0.909-0.895-1.444c-0.144-0.39-0.216-0.794-0.231-1.212l-0.014-0.232L19.463,10.893z M18.408,14.287
	c0.358-0.187,0.731-0.372,1.117-0.53c0.113,0.152,0.234,0.301,0.367,0.442c0.044,0.057,0.087,0.101,0.131,0.144
	c-0.115-0.014-0.232-0.014-0.347-0.014L19.3,14.342l-0.028,0.376c-0.057,0.636,0.028,1.286,0.26,1.906
	c0.216,0.592,0.548,1.169,1.024,1.675c0.058,0.073,0.129,0.145,0.202,0.202c-0.159-0.014-0.317-0.014-0.462-0.014l-0.39,0.014v0.13
	c-0.016-0.144-0.03-0.275-0.058-0.404c-0.086-0.592-0.303-1.14-0.62-1.602l-0.216-0.303l-0.332,0.174
	c-0.071,0.043-0.159,0.087-0.231,0.129v-0.043c0.159-0.592,0.174-1.17,0.087-1.719c-0.034-0.195-0.086-0.382-0.146-0.567
	L18.408,14.287z M18.624,17.276l0.202-0.144l0.101,0.216c0.159,0.303,0.26,0.65,0.317,0.967c0.073,0.491,0.057,0.996-0.073,1.473
	c-0.115,0.477-0.332,0.923-0.635,1.313c-0.202,0.275-0.448,0.505-0.721,0.707l-0.232,0.159l-0.087-0.26v0.001
	c-0.202-0.578-0.361-0.967-0.346-1.588c0.014-0.275,0.043-0.549,0.115-0.809c0.115-0.477,0.332-0.938,0.636-1.329
	C18.105,17.708,18.35,17.463,18.624,17.276z M15.46,29.932l-0.001,0.001l0-0.001l-0.987,0.067l0.448-4.218l0.995-0.067l1.203,2.476
	l0.28-2.577l0.988-0.067l-0.455,4.22l-0.971,0.066l-1.226-2.475l-0.274,2.576L15.46,29.932z M14.638,21.521
	c-0.418-0.289-0.765-0.635-1.024-1.054c-0.188-0.289-0.317-0.592-0.404-0.923l-0.073-0.232l0.246-0.029
	c0.332-0.028,0.679-0.014,0.996,0.043c0.491,0.087,0.953,0.289,1.357,0.563c0.231,0.159,0.433,0.332,0.62,0.535
	c0.376,0.404,0.707,0.909,0.822,1.444l0.043,0.231l-0.231,0.029c-0.332,0.028-0.679,0.014-1.01-0.043
	C15.504,21.983,15.042,21.796,14.638,21.521z M15.937,15.949v-0.001c0.131-0.477,0.332-0.925,0.636-1.329
	c0.216-0.26,0.447-0.491,0.721-0.693l0.202-0.144l0.115,0.231c0.144,0.289,0.246,0.62,0.303,0.953
	c0.073,0.477,0.057,0.982-0.073,1.458c-0.115,0.477-0.332,0.939-0.635,1.329c-0.275,0.376-0.549,0.592-0.909,0.838
	C15.807,17.899,15.664,17.046,15.937,15.949z M13.006,12.497c0.004-0.088,0.019-0.175,0.03-0.262
	c0.028-0.244,0.073-0.486,0.158-0.72l0.087-0.231l0.216,0.115c0.114,0.063,0.224,0.138,0.332,0.215
	c0.165,0.117,0.323,0.244,0.462,0.392c0.346,0.361,0.606,0.78,0.78,1.242c0.188,0.462,0.26,0.953,0.246,1.444
	c-0.014,0.332-0.087,0.664-0.202,0.982l-0.073,0.232l-0.216-0.115v-0.001c-0.303-0.159-0.563-0.361-0.794-0.606
	c-0.347-0.36-0.62-0.78-0.794-1.242C13.064,13.478,12.977,12.987,13.006,12.497z M12.054,15.918
	c0.332-0.029,0.679-0.014,1.011,0.043c0.477,0.101,0.938,0.289,1.357,0.563c0.923,0.636,1.315,1.285,1.473,2.224
	c-0.433,0.043-0.78,0.073-1.228-0.014h-0.001c-0.491-0.087-0.953-0.289-1.357-0.563c-0.404-0.289-0.765-0.65-1.024-1.068
	c-0.174-0.289-0.317-0.592-0.404-0.909l-0.057-0.246L12.054,15.918z M12.613,19.793c0.104,0.348,0.252,0.686,0.446,1.01
	c0.303,0.462,0.707,0.896,1.198,1.228l0.101,0.057c0.393,0.317,0.817,0.513,1.241,0.634l-4.398,0.316l-0.001-0.001
	C11.547,21.898,12.023,20.801,12.613,19.793z M10.361,27.429c0.027-0.37-0.137-0.557-0.574-0.527
	c-0.313,0.022-0.469,0.154-0.483,0.36c-0.01,0.1,0.013,0.192,0.063,0.241c0.119,0.114,0.361,0.162,0.741,0.247
	c0.332,0.071,0.654,0.171,0.89,0.365c0.236,0.206,0.367,0.501,0.312,0.983c-0.082,0.771-0.616,1.246-1.616,1.313
	c-0.436,0.03-0.784-0.017-1.043-0.122H8.65c-0.518-0.233-0.707-0.688-0.68-1.326l1.123-0.076l-0.005,0.018
	c-0.027,0.376,0.136,0.622,0.596,0.591c0.325-0.022,0.505-0.14,0.532-0.411c0.043-0.324-0.278-0.401-0.817-0.505
	c-0.307-0.054-0.613-0.157-0.847-0.351c-0.224-0.196-0.35-0.496-0.306-0.966c0.071-0.664,0.552-1.154,1.553-1.221
	c1.116-0.076,1.663,0.407,1.632,1.315L10.361,27.429z M11.636,29.199h0.001l0.703-0.048l0.238-2.235l-0.703,0.048l0.102-0.983
	l2.441-0.167l-0.102,0.983l-0.698,0.048l-0.238,2.235l0.698-0.048l-0.107,1l-2.443,0.167L11.636,29.199z M19.422,40.685l2.002-2.339
	l1.715,3.391C21.843,41.549,20.603,41.189,19.422,40.685z M22.045,37.406c-0.028-0.057-0.057-0.13-0.115-0.174
	c-0.043-0.028-0.087-0.057-0.13-0.071l-0.028-0.014h-0.014l-1.43-0.578c-0.174-0.071-0.376,0.014-0.448,0.188v0.014l-1.557,3.378
	c-0.563-0.303-1.111-0.635-1.632-1.01c-2.007-1.444-3.668-3.407-4.736-5.718l9.299-0.679l0.004,0
	c0.301,0.688,0.602,1.391,0.874,2.107c0.962,2.418,1.727,4.945,2.193,7.003h-0.026l0.056,0.128c0,0.001,0,0.002,0.001,0.003
	L22.045,37.406z M23.044,34.489c-0.244-0.616-0.501-1.219-0.76-1.82l2.477-0.173l0.001,0c0.115,1.368,0.215,2.894,0.288,4.448
	c0.101,1.502,0.145,3.018,0.174,4.405C24.719,39.283,23.968,36.843,23.044,34.489z M37.123,35.775
	c-2.094,2.93-5.27,5.082-9.053,5.819c0.269-0.696,0.552-1.424,0.835-2.15c0.635-1.632,1.271-3.264,1.747-4.549l1.256,4.563
	c0.043,0.158,0.174,0.275,0.346,0.275c0.188,0,0.346-0.159,0.346-0.36l-0.043-5.3c-0.014-0.303,0.145-1.198-0.317-1.212
	l-1.618,0.101c-0.043-0.014-0.087,0-0.129,0c-0.26,0.071-0.347,0.519-0.418,0.736c-0.491,1.357-1.285,3.365-2.08,5.401
	c-0.303,0.794-0.62,1.602-0.909,2.353c0.303-2.367,0.78-5.3,1.357-8.087c0.087-0.39,0.159-0.78,0.246-1.155l-1.01,0.071
	c-0.057,0.289-0.13,0.592-0.188,0.881c-0.535,2.614-0.996,5.371-1.3,7.667c-0.028-1.256-0.087-2.599-0.158-3.942
	c-0.072-1.555-0.173-3.081-0.288-4.463l1.934-0.145l1.01-0.071l10.555-0.751l0.001,0.003C38.783,33.018,38.062,34.476,37.123,35.775
	z M41.602,28.151l-0.971,0.066l-1.226-2.475l-0.274,2.576l0.001,0l-0.001,0.001l0-0.001l-0.987,0.067l0.448-4.218l0.995-0.067
	l1.203,2.476l0.28-2.577l0.988-0.067L41.602,28.151z"/>
</svg>
