<?xml version="1.0" encoding="utf-8"?>
<!-- Generator: Adobe Illustrator 22.1.0, SVG Export Plug-In . SVG Version: 6.00 Build 0)  -->
<svg version="1.1" id="Layer_1" xmlns="http://www.w3.org/2000/svg" xmlns:xlink="http://www.w3.org/1999/xlink" x="0px" y="0px"
	 viewBox="0 0 50.5 50.5" style="enable-background:new 0 0 50.5 50.5;" xml:space="preserve">
<style type="text/css">
	.st0{fill:#12B5E1;}
</style>
<g>
	<title>dni</title>
	<g>
		<g>
			<g>
				<g>
					<g>
						<g>
							<g>
								<g>
									<path class="st0" d="M44.1,9.8H6.4c-1.7,0-3.1,1.4-3.1,3.1v24.8c0,1.7,1.4,3.1,3.1,3.1h37.8c1.7,0,3.1-1.4,3.1-3.1V12.9
										C47.2,11.2,45.8,9.8,44.1,9.8z M45.4,37.6c0,0.7-0.6,1.3-1.3,1.3H6.4C5.6,39,5,38.4,5,37.6V12.9c0-0.7,0.6-1.3,1.3-1.3
										h37.8c0.7,0,1.3,0.6,1.3,1.3V37.6L45.4,37.6z"/>
								</g>
							</g>
						</g>
					</g>
				</g>
			</g>
		</g>
	</g>
	<g>
		<g>
			<path class="st0" d="M42.3,21.5c-3-1.5-6.4-2.4-9.9-2.4l-4.6-2.8c-0.1-0.1-0.3-0.1-0.4-0.1c-3.6,0.9-8.1,3.3-10.6,5.8
				c-0.1,0.1-0.1,0.2-0.1,0.3l-6.3,1.3c-0.6,0.1-1,0.5-1.3,1c-0.3,0.5-0.2,1.1,0,1.6l0.7,1.6c-0.4-0.2-0.9-0.2-1.5-0.2
				c-0.3,0-0.5,0.2-0.5,0.5c0,0.3,0.2,0.5,0.5,0.5c0.9,0,1.4,0.2,2.1,0.8c0.7,0.4,1.5,1,3.1,1c1.6,0,2.4-0.6,3.1-1
				c0.8-0.5,1.2-0.8,2.1-0.8c0.9,0,1.4,0.2,2.1,0.8c0.7,0.4,1.5,1,3.1,1c1.6,0,2.4-0.6,3.1-1c0.8-0.5,1.2-0.8,2.2-0.8
				c0.8,0,1.4,0.4,2,0.8c0.8,0.5,1.6,1,3.2,1c1.6,0,2.4-0.6,3.1-1c0.8-0.5,1.2-0.8,2.1-0.8c0.3,0,0.5-0.2,0.5-0.5
				c0-0.3-0.2-0.5-0.5-0.5c-0.7,0-1.2,0.1-1.7,0.3l4.5-5.6c0.1-0.1,0.1-0.3,0.1-0.4C42.6,21.7,42.5,21.6,42.3,21.5z M27.5,17.3
				l3.3,2l-3.1,0.7l-2.8-1.7C25.8,17.8,26.7,17.5,27.5,17.3z M23.7,18.7l2.5,1.5l-7.6,1.6C20,20.7,21.9,19.6,23.7,18.7z M35.6,29.1
				C35.6,29.2,35.6,29.2,35.6,29.1c-0.3,0.1-0.7,0.2-1.1,0.2c-1.2,0-1.9-0.4-2.6-0.9c-0.7-0.4-1.5-0.9-2.6-0.9
				c-1.2,0-1.9,0.4-2.7,0.9c-0.6,0.4-1.2,0.8-2.5,0.8c-1.3,0-1.9-0.4-2.5-0.8c-0.8-0.5-1.5-0.9-2.7-0.9s-1.9,0.4-2.7,0.9
				c-0.6,0.4-1.2,0.8-2.5,0.8c-1,0-1.6-0.3-2.2-0.6l-1.4-3c-0.1-0.2-0.1-0.5,0-0.7c0.1-0.2,0.3-0.4,0.5-0.4L32,20.1
				c0.1,0,0.1,0,0.2,0c2.8,0,5.6,0.6,8.2,1.6l-17.7,2c-0.3,0-0.5,0.3-0.5,0.6c0,0.3,0.3,0.5,0.5,0.5c0,0,0,0,0.1,0l18-2L35.6,29.1z"
				/>
			<path class="st0" d="M37.4,31.9c-0.1,0-0.3,0-0.4,0.1L36.9,32c-0.6,0.4-1.1,0.8-2.4,0.8c-1.2,0-1.9-0.4-2.6-0.8
				c-0.7-0.4-1.5-0.9-2.6-0.9c-1.2,0-1.9,0.4-2.7,0.9c-0.6,0.4-1.2,0.8-2.5,0.8c-1.3,0-1.9-0.4-2.5-0.8c-0.8-0.5-1.5-0.9-2.7-0.9
				c-1.2,0-1.9,0.4-2.7,0.9c-0.6,0.4-1.2,0.8-2.5,0.8c-1.3,0-1.9-0.4-2.5-0.8c-0.1-0.1-0.3-0.1-0.4-0.1c-0.1,0-0.3,0.1-0.3,0.2
				c-0.1,0.1-0.1,0.3-0.1,0.4c0,0.1,0.1,0.3,0.2,0.3c0.7,0.5,1.5,1,3.1,1c1.6,0,2.4-0.6,3.1-1c0.8-0.5,1.2-0.8,2.1-0.8
				c0.9,0,1.4,0.3,2.1,0.8c0.7,0.5,1.5,1,3.1,1c1.6,0,2.4-0.6,3.1-1c0.8-0.5,1.2-0.8,2.2-0.8c0.8,0,1.4,0.4,2,0.8
				c0.8,0.5,1.6,1,3.2,1c1.6,0,2.4-0.6,3.1-1c0.1-0.1,0.2-0.2,0.2-0.3c0-0.1,0-0.3-0.1-0.4C37.6,32,37.5,31.9,37.4,31.9z"/>
			<path class="st0" d="M21,24c-0.3,0-0.5,0.3-0.5,0.6c0,0.3,0.3,0.5,0.6,0.5c0.3,0,0.5-0.3,0.5-0.6C21.6,24.2,21.3,24,21,24z"/>
		</g>
	</g>
</g>
</svg>
