<?xml version="1.0" encoding="utf-8"?>
<!-- Generator: Adobe Illustrator 24.2.1, SVG Export Plug-In . SVG Version: 6.00 Build 0)  -->
<svg version="1.1" id="Layer_1" xmlns="http://www.w3.org/2000/svg" xmlns:xlink="http://www.w3.org/1999/xlink" x="0px" y="0px"
	 viewBox="0 0 50.5 50.5" style="enable-background:new 0 0 50.5 50.5;" xml:space="preserve">
<path d="M13.5,46.5H4.7V18.1h8.8V46.5z M9.1,14.3C6.3,14.3,4,11.9,4,9.1C4,6.3,6.3,4,9.1,4c2.8,0,5.1,2.3,5.1,5.1
	C14.2,11.9,11.9,14.3,9.1,14.3z M46.5,46.5h-8.8V32.7c0-3.3-0.1-7.5-4.6-7.5c-4.6,0-5.3,3.6-5.3,7.3v14H19V18.1h8.4V22h0.1
	c1.2-2.2,4-4.6,8.3-4.6c8.9,0,10.5,5.9,10.5,13.5L46.5,46.5L46.5,46.5z"/>
</svg>
