<svg id="Layer_1" data-name="Layer 1" xmlns="http://www.w3.org/2000/svg" viewBox="0 0 50.46 50.46"><defs><style>.cls-1{fill:#12b5e1;}</style></defs><title>login</title><path class="cls-1" d="M10.93,41.19a1.49,1.49,0,0,1-1.39-2,21.83,21.83,0,0,1,4.33-6.85,14.68,14.68,0,0,1,10.93-4.6h.1a16,16,0,0,1,3.77.44,1,1,0,0,0,1.19-.66l0-.1a1,1,0,0,0-.7-1.16,18.14,18.14,0,0,0-4.29-.5h-.1a16.62,16.62,0,0,0-12.36,5.2,23.85,23.85,0,0,0-4.69,7.37,3.54,3.54,0,0,0-.09,2.62,3.5,3.5,0,0,0,3.27,2.27h7.19a1,1,0,0,0,1-1h0a1,1,0,0,0-1-1Z"/><path class="cls-1" d="M25.4,7.29a8.14,8.14,0,1,0,8.14,8.14A8.15,8.15,0,0,0,25.4,7.29Zm6.3,8.14a6.3,6.3,0,1,1-6.3-6.3A6.31,6.31,0,0,1,31.7,15.43Z"/><path class="cls-1" d="M18.25,35.87l2.69-2.67a.85.85,0,0,1,.6-.24.83.83,0,0,1,.59.28l.87,1,1-1a.79.79,0,0,1,.59-.26h0a.83.83,0,0,1,.6.26l1,1.12,1.21-1.15A.8.8,0,0,1,28,33a.77.77,0,0,1,.57.25.82.82,0,0,1,0,1.16L26.74,36.1a.81.81,0,0,1-.59.23.8.8,0,0,1-.58-.26l-1-1.09-1,1a.79.79,0,0,1-.6.26h0a.85.85,0,0,1-.61-.28l-.89-1L20,36.43l1.81,1.66H31.91a.78.78,0,0,1,.78.59l.63,1.85a1.44,1.44,0,0,0,1.37,1h4a1.44,1.44,0,0,0,1.37-1l1.24-3.73a1.42,1.42,0,0,0,0-.91l-1.24-3.74a1.45,1.45,0,0,0-1.37-1h-4a1.45,1.45,0,0,0-1.37,1l-.77,2.32a.82.82,0,0,1-1,.52.81.81,0,0,1-.56-.78A.78.78,0,0,1,31,34l.77-2.32a3.09,3.09,0,0,1,2.93-2.11h4a3.09,3.09,0,0,1,2.93,2.11h0l1.24,3.74a3.1,3.1,0,0,1,0,2l-1.24,3.73a3.08,3.08,0,0,1-2.93,2.12h-4a3.08,3.08,0,0,1-2.93-2.12l-.44-1.32H21.51a.82.82,0,0,1-.55-.22l-2.69-2.45a.87.87,0,0,1-.27-.61A.83.83,0,0,1,18.25,35.87Z"/><circle class="cls-1" cx="38.68" cy="36.3" r="1.07"/></svg>