<?xml version="1.0" encoding="utf-8"?>
<!-- Generator: Adobe Illustrator 24.2.1, SVG Export Plug-In . SVG Version: 6.00 Build 0)  -->
<svg version="1.1" id="Capa_1" xmlns="http://www.w3.org/2000/svg" xmlns:xlink="http://www.w3.org/1999/xlink" x="0px" y="0px"
	 viewBox="0 0 50.5 50.5" style="enable-background:new 0 0 50.5 50.5;" xml:space="preserve">
<g>
	<path d="M48.093,32.294l-8.741-8.741l0.081-0.081c0.313-0.313,0.313-0.819,0-1.131l-2.369-2.37c0.539-1.333,0.827-2.74,0.827-4.201
		c0-6.215-5.035-11.271-11.224-11.271S15.444,9.554,15.444,15.769c0,0.431,0.03,0.856,0.077,1.275
		c-0.558,0.085-1.114,0.192-1.658,0.349l-0.824-1.421c-0.437-0.758-1.409-1.019-2.176-0.579L8.108,17
		c-0.362,0.213-0.623,0.556-0.732,0.964c-0.111,0.415-0.054,0.844,0.159,1.204l0.826,1.433c-0.934,0.904-1.726,1.941-2.363,3.097
		L4.417,23.28c-0.413-0.113-0.842-0.054-1.214,0.163c-0.362,0.213-0.623,0.555-0.735,0.968l-0.811,3.08
		c-0.112,0.41-0.057,0.839,0.155,1.206c0.21,0.366,0.552,0.63,0.967,0.742l1.584,0.419c-0.024,1.311,0.147,2.605,0.512,3.866
		L3.446,34.56c-0.755,0.445-1.011,1.417-0.574,2.159l1.6,2.778c0.443,0.749,1.415,0.998,2.159,0.563l1.43-0.825
		c0.9,0.938,1.933,1.727,3.081,2.355l-0.418,1.598c-0.112,0.408-0.058,0.836,0.152,1.203c0.21,0.368,0.553,0.633,0.969,0.746
		l3.07,0.812c0.137,0.037,0.276,0.056,0.415,0.056c0.275,0,0.547-0.073,0.792-0.217c0.37-0.217,0.631-0.565,0.732-0.969l0.426-1.597
		c1.297,0.039,2.588-0.15,3.848-0.519l0.823,1.42c0.213,0.371,0.557,0.635,0.968,0.743c0.411,0.108,0.836,0.049,1.197-0.165
		l2.767-1.607c0.745-0.439,0.997-1.412,0.563-2.167l-0.819-1.426c0.944-0.918,1.735-1.958,2.36-3.104l1.583,0.416
		c0.401,0.114,0.826,0.06,1.193-0.148c0.371-0.211,0.637-0.555,0.75-0.972l0.822-3.095c0.11-0.412,0.054-0.842-0.162-1.209
		c-0.214-0.366-0.56-0.625-0.96-0.725l-1.596-0.427c0.024-1.271-0.143-2.527-0.486-3.752c0.259-0.084,0.513-0.187,0.767-0.29
		l2.34,2.34c0.149,0.15,0.354,0.234,0.565,0.234s0.416-0.084,0.565-0.234l0.083-0.083l8.706,8.706
		c0.607,0.61,1.401,0.915,2.208,0.915c0.833,0,1.681-0.324,2.353-0.971C49.12,35.751,49.298,33.556,48.093,32.294z M31.79,32.183
		l0.772,0.21l-0.772-0.205C31.79,32.186,31.79,32.185,31.79,32.183z M28.587,26.873c0.361,1.274,0.497,2.589,0.406,3.917
		c-0.026,0.382,0.222,0.729,0.592,0.827l2.2,0.588l-0.797,3.063l-2.217-0.583c-0.368-0.101-0.758,0.082-0.924,0.427
		c-0.665,1.384-1.594,2.606-2.761,3.636c-0.285,0.251-0.354,0.669-0.164,0.998l1.151,1.968l-2.737,1.608l-1.146-1.978
		c-0.192-0.331-0.592-0.482-0.954-0.354c-1.467,0.509-2.982,0.712-4.508,0.607c-0.374-0.038-0.728,0.222-0.828,0.591l-0.571,2.214
		l-3.061-0.802l0.583-2.226c0.097-0.369-0.082-0.756-0.425-0.922c-1.39-0.674-2.603-1.602-3.604-2.757
		c-0.156-0.181-0.379-0.276-0.605-0.276c-0.136,0-0.274,0.035-0.399,0.106L5.854,38.69l-1.598-2.751l1.978-1.156
		c0.329-0.192,0.477-0.59,0.353-0.95c-0.503-1.464-0.704-2.987-0.598-4.529c0.026-0.383-0.223-0.73-0.594-0.828l-2.192-0.571
		l0.799-3.079l2.207,0.583c0.368,0.097,0.755-0.08,0.922-0.421c0.688-1.403,1.62-2.624,2.77-3.629
		c0.288-0.251,0.357-0.671,0.167-1.002l-1.149-1.976l2.735-1.608L12.8,18.75c0.192,0.331,0.591,0.481,0.953,0.355
		c0.667-0.229,1.354-0.397,2.049-0.5c0.024,0.094,0.061,0.184,0.088,0.278c0.049,0.171,0.103,0.339,0.16,0.507
		c0.064,0.188,0.13,0.375,0.204,0.56c0.066,0.165,0.138,0.327,0.211,0.489c0.083,0.182,0.167,0.362,0.259,0.539
		c0.076,0.145,0.157,0.286,0.239,0.427c-3.637,0.233-6.849,2.782-7.806,6.426c-0.596,2.239-0.288,4.573,0.867,6.572
		c1.155,2,3.021,3.428,5.251,4.019c0.734,0.194,1.473,0.288,2.2,0.288c3.819,0,7.328-2.569,8.361-6.445c0,0,0-0.001,0-0.001
		c0.464-1.749,0.357-3.603-0.271-5.28c0.12,0.012,0.242,0.01,0.363,0.018c0.174,0.011,0.347,0.023,0.523,0.027
		c0.073,0.001,0.144,0.011,0.217,0.011c0.128,0,0.254-0.016,0.382-0.021c0.2-0.007,0.398-0.015,0.597-0.032
		c0.21-0.018,0.419-0.045,0.627-0.075C28.378,26.896,28.483,26.891,28.587,26.873z M18.923,23.912
		c0.086,0.082,0.17,0.167,0.258,0.246c0.089,0.08,0.181,0.155,0.272,0.232c0.061,0.051,0.123,0.101,0.185,0.152
		c0.076,0.061,0.149,0.126,0.227,0.186c0.125,0.096,0.256,0.183,0.385,0.274c0.076,0.053,0.151,0.108,0.228,0.16
		c0.018,0.012,0.035,0.026,0.054,0.038c0.041,0.027,0.081,0.053,0.122,0.079c0.2,0.128,0.403,0.249,0.611,0.364
		c0.033,0.018,0.065,0.037,0.098,0.055c0.094,0.051,0.191,0.093,0.287,0.141c0.163,0.082,0.325,0.164,0.491,0.238
		c0.036,0.016,0.072,0.034,0.109,0.05c0.099,0.043,0.202,0.078,0.303,0.118c0.137,0.054,0.273,0.109,0.411,0.158
		c0.078,0.028,0.157,0.055,0.236,0.081c0.103,0.034,0.207,0.065,0.312,0.096c0.047,0.014,0.093,0.032,0.14,0.045
		c0.872,1.585,1.106,3.474,0.64,5.23c-1.002,3.762-4.863,6.015-8.604,5.021c-1.817-0.481-3.335-1.643-4.276-3.271
		c-0.941-1.63-1.192-3.534-0.706-5.363c0.82-3.118,3.655-5.255,6.799-5.255c0.187,0,0.375,0.007,0.564,0.023
		c0.072,0.086,0.15,0.165,0.225,0.249c0.083,0.094,0.165,0.188,0.251,0.279c0.06,0.064,0.121,0.127,0.183,0.189
		c0.014,0.014,0.029,0.027,0.043,0.041C18.819,23.815,18.871,23.863,18.923,23.912z M30.752,24.531
		c-0.562,0.263-1.143,0.459-1.735,0.608c-0.286,0.072-0.574,0.127-0.864,0.173c-0.091,0.014-0.182,0.034-0.274,0.045
		c-0.328,0.042-0.658,0.063-0.988,0.071c-0.056,0.001-0.112,0.009-0.168,0.009c-0.379,0.002-0.756-0.019-1.131-0.061
		c-0.072-0.008-0.141-0.023-0.213-0.033c-0.303-0.041-0.604-0.095-0.901-0.165c-0.126-0.03-0.25-0.062-0.374-0.097
		c-0.142-0.039-0.284-0.078-0.424-0.124c-0.148-0.049-0.293-0.106-0.438-0.161c-0.125-0.048-0.251-0.091-0.374-0.144
		c-0.253-0.11-0.501-0.229-0.742-0.36c-0.092-0.049-0.179-0.107-0.269-0.159c-0.164-0.096-0.328-0.192-0.487-0.297
		c-0.088-0.058-0.172-0.121-0.257-0.182c-0.158-0.113-0.314-0.228-0.465-0.349c-0.073-0.059-0.145-0.121-0.217-0.182
		c-0.159-0.137-0.314-0.278-0.464-0.424c-0.058-0.056-0.116-0.113-0.172-0.17c-0.158-0.162-0.31-0.331-0.456-0.505
		c-0.044-0.052-0.09-0.103-0.133-0.156c-0.094-0.116-0.179-0.239-0.268-0.359c-0.128-0.173-0.252-0.349-0.367-0.529
		c-0.08-0.126-0.157-0.254-0.232-0.383c-0.106-0.185-0.205-0.373-0.298-0.564c-0.062-0.126-0.126-0.252-0.183-0.381
		c-0.101-0.231-0.188-0.467-0.271-0.705c-0.033-0.096-0.074-0.189-0.104-0.286c-0.103-0.33-0.186-0.665-0.253-1.004
		c-0.12-0.61-0.186-1.239-0.186-1.884c0-5.333,4.317-9.671,9.624-9.671c5.307,0,9.624,4.339,9.624,9.671
		c0,1.412-0.297,2.769-0.883,4.039c-0.016,0.032-0.034,0.061-0.045,0.094C34.416,21.924,32.783,23.568,30.752,24.531z
		 M33.804,26.837l-1.39-1.389c1.617-0.973,2.965-2.334,3.914-3.952l1.409,1.409L33.804,26.837z M46.609,35.949
		c-0.699,0.671-1.694,0.704-2.318,0.078l-8.707-8.707l2.636-2.636l8.728,8.728C47.534,34.025,47.375,35.211,46.609,35.949z"/>
	<path d="M26.668,22.287c-3.578,0-6.489-2.924-6.489-6.519c0-0.442-0.358-0.8-0.8-0.8s-0.8,0.358-0.8,0.8
		c0,4.477,3.628,8.119,8.088,8.119c0.441,0,0.8-0.358,0.8-0.8S27.109,22.287,26.668,22.287z"/>
</g>
</svg>
