<svg id="Layer_1" data-name="Layer 1" xmlns="http://www.w3.org/2000/svg" viewBox="0 0 50.46 50.46"><defs><style>.cls-1{fill:#65b4e1;}</style></defs><title>lupa</title><path class="cls-1" d="M40.85,36.69l-8.73-8.61a13.66,13.66,0,0,1-4.1,4.1l8.73,8.61a2.9,2.9,0,1,0,4.1-4.1Z"/><path class="cls-1" d="M32,20.43A11.6,11.6,0,1,0,20.37,32,11.6,11.6,0,0,0,32,20.43Zm-11.6,8.7a8.7,8.7,0,1,1,8.7-8.7A8.71,8.71,0,0,1,20.37,29.13Z"/><path class="cls-1" d="M20.37,14.65a5.78,5.78,0,0,0-5.77,5.77.94.94,0,1,0,1.87,0,3.9,3.9,0,0,1,3.9-3.9.94.94,0,0,0,0-1.87Z"/></svg>