<?xml version="1.0" encoding="utf-8"?>
<!-- Generator: Adobe Illustrator 24.2.1, SVG Export Plug-In . SVG Version: 6.00 Build 0)  -->
<svg version="1.1" id="Capa_1" xmlns="http://www.w3.org/2000/svg" xmlns:xlink="http://www.w3.org/1999/xlink" x="0px" y="0px"
	 viewBox="0 0 50.5 50.5" style="enable-background:new 0 0 50.5 50.5;" xml:space="preserve">
<path d="M47.728,48.222c0,0-2.26-7.068-3.882-9.791c-1.622-2.723-5.041-4.606-5.041-4.606s5.127-4.606,5.736-15.382
	c0,0,0.753-12.746-5.214-14.948c-5.967-2.202-17.091-1.912-23.348,4.403c-6.257,6.315-8.922,14.368-9.965,17.033
	c-1.043,2.665-1.912,5.041-2.26,5.736c-0.348,0.695-1.275,1.854-0.927,1.97c0.348,0.116,1.532-0.371,2.539-0.444
	c2.131-0.154,3.729-0.556,11.319,0.487c7.59,1.043,8.31,1.01,12.04,1.144c4.054,0.147,5.156,0.319,5.156,0.319
	s-2.474,1.172-4.53,4.417c-2.056,3.244-3.986,8.677-3.986,8.677s1.729,0.104,5.345-2.451c2.969-2.097,4.377-4.796,5.026-6.182
	c0.405-0.865,0.753-2.26,0.753-2.26c0.29-0.116,0.811,2.317,2.028,4.287c1.217,1.97,3.596,4.405,4.678,5.185
	C45.015,47.13,48.04,48.464,47.728,48.222z M36.546,30.913c-1.999,0.174-3.922-2.902-4.742-8.459
	c-0.474-3.216-0.31-8.007,0.918-11.095c1.521-3.824,2.543-4.592,3.433-5.345c0.984-0.833,3.52,0.217,4.432,3.998
	c0.913,3.78,1.608,8.691,0.652,12.514C40.199,26.686,38.545,30.739,36.546,30.913z"/>
</svg>
