<svg id="Layer_1" data-name="Layer 1" xmlns="http://www.w3.org/2000/svg" viewBox="0 0 50.46 50.46"><defs><style>.cls-1{fill:#12b5e1;}</style></defs><title>mail-03</title><path class="cls-1" d="M28.39,26.29a.6.6,0,0,0,.33-.56.62.62,0,0,0-.62-.62.82.82,0,0,0-.33.08,8,8,0,0,1-3,.61c-3.47,0-5.9-2.25-5.9-5.47a7.06,7.06,0,0,1,7.08-7c3.74,0,5.7,2.38,5.7,4.73,0,2.59-1.4,4-2.4,4a.75.75,0,0,1-.65-.26,1.32,1.32,0,0,1,0-1.14l1.1-3.44A1.3,1.3,0,0,0,29.5,16a1.17,1.17,0,0,0-1-.47,1.29,1.29,0,0,0-1.12.61l-.09.12-.1-.1a2.67,2.67,0,0,0-2-.75,4.75,4.75,0,0,0-4.47,4.88,2.91,2.91,0,0,0,3,3.11,3.68,3.68,0,0,0,2.48-1l.1-.08.08.1a2.84,2.84,0,0,0,2.29,1c2.11,0,4.24-1.67,4.24-5.38,0-2.92-2.46-6-7-6a8.35,8.35,0,0,0-8.38,8.29c0,4,3,6.74,7.2,6.74A8.63,8.63,0,0,0,28.39,26.29Zm-3.82-5.14A1,1,0,0,1,23.49,20a2.2,2.2,0,0,1,1.92-2.28,1,1,0,0,1,1.13,1.07A2.28,2.28,0,0,1,24.57,21.15Z"/><path class="cls-1" d="M43.18,18l-3.64-3.38V8.41a.8.8,0,0,0-.8-.8H32L27.28,3.23a3.07,3.07,0,0,0-4.19,0L18.41,7.61H11.72a.8.8,0,0,0-.8.8v6.22L7.28,18a.79.79,0,0,0-.25.58V42.13a3,3,0,0,0,3,3h30.4a3,3,0,0,0,3-3V18.61A.79.79,0,0,0,43.18,18Zm-3.64-1.2,1.92,1.78-1.92,1.77ZM24.18,4.4a1.48,1.48,0,0,1,2,0l3.45,3.21H20.75ZM12.52,9.21H37.94V21.87L26.19,32.77a1.48,1.48,0,0,1-2,0L12.52,21.85Zm-1.6,7.61v3.53L9,18.58ZM8.63,20.4l10.5,9.84-10.5,9.9Zm31.8,23.13H10a1.39,1.39,0,0,1-1.38-1.21l11.65-11,2.79,2.61a3.09,3.09,0,0,0,4.19,0l2.81-2.61,11.72,11A1.39,1.39,0,0,1,40.43,43.53Zm1.4-3.38L31.27,30.24l10.56-9.8Z"/></svg>