<svg id="Layer_1" data-name="Layer 1" xmlns="http://www.w3.org/2000/svg" viewBox="0 0 50.46 50.46"><defs><style>.cls-1{fill:#12b5e1;}</style></defs><title>mail 2</title><path class="cls-1" d="M42.24,18.21l-1.77,1.48v-3ZM25.1,5.3a.82.82,0,0,1,1.14.1l2.13,1.88H23Zm13.37,4V21.37L26.52,31.22a.76.76,0,0,1-1.09,0l-12-10.06V9.28Zm-27,7.47v2.73L9.83,18.12Zm-2,3.65,11.06,9.27L9.47,38.94ZM41.29,43.28H10c-.61,0-.79-.88-.83-1.51L21.79,31.09l2.12,1.72a2.8,2.8,0,0,0,1.85.67,2.94,2.94,0,0,0,1.86-.71l2-1.69L42.15,41.79C42.1,42.42,41.9,43.28,41.29,43.28ZM42.47,39l-11-9.2,11-9.2Z"/></svg>