<svg id="Layer_1" data-name="Layer 1" xmlns="http://www.w3.org/2000/svg" viewBox="0 0 50.46 50.46"><defs><style>.cls-1{fill:#12b5e1;}.cls-2{fill:none;stroke:#12b5e1;stroke-linecap:round;stroke-linejoin:round;stroke-width:2px;}</style></defs><title>mail 1</title><path class="cls-1" d="M45.1,18.49A1.09,1.09,0,0,0,45,18a1,1,0,0,0-.32-.82l-3.58-3V7.89c0-.55-.49-.61-1-.61H32.45l-4-3.51a2.82,2.82,0,0,0-3.71.09l-4,3.42H13.15c-.55,0-1.05.06-1.05.61v6.25l-3.56,3a1,1,0,0,0-.28.46,1,1,0,0,0-.13.88s0,.06,0,.1V41.26c0,1.81,1.06,4,2.87,4H42.26c1.81,0,2.84-2.21,2.84-4V18.49Zm-2.23-.28L41.1,19.69v-3ZM26.07,5.3a.82.82,0,0,1,1.14.1l2.13,1.88h-5.4Zm13,4V21.37L27.32,31.22a.86.86,0,0,1-1.17,0l-12-10.06V9.28Zm-27,7.47v2.73l-1.64-1.36Zm-2,3.65,11.07,9.27L10.1,38.94ZM42.26,43.28H11c-.61,0-.8-.88-.83-1.51L22.75,31.09l2.13,1.72a2.8,2.8,0,0,0,1.85.67,2.94,2.94,0,0,0,1.86-.71l2-1.69L43.12,41.79C43.07,42.42,42.86,43.28,42.26,43.28ZM43.1,39l-11-9.2,11-9.2Z"/><line class="cls-2" x1="18.51" y1="14.61" x2="34.67" y2="14.61"/><line class="cls-2" x1="18.51" y1="18.8" x2="34.67" y2="18.8"/><line class="cls-2" x1="31.08" y1="22.99" x2="31.49" y2="22.99"/><line class="cls-2" x1="18.51" y1="22.99" x2="27.5" y2="22.99"/></svg>