<?xml version="1.0" encoding="utf-8"?>
<!-- Generator: Adobe Illustrator 24.2.1, SVG Export Plug-In . SVG Version: 6.00 Build 0)  -->
<svg version="1.1" id="Layer_1" xmlns="http://www.w3.org/2000/svg" xmlns:xlink="http://www.w3.org/1999/xlink" x="0px" y="0px"
	 viewBox="0 0 50.5 50.5" style="enable-background:new 0 0 50.5 50.5;" xml:space="preserve">
<style type="text/css">
	.st0{fill:#65B4E1;}
</style>
<path class="st0" d="M34.8,18h-3.3v-2.8c0-1.8-1.4-3.3-3.1-3.3H22c-1.8,0.1-3.2,1.5-3.1,3.3V18h-3.2c-2.4,0-4.3,2-4.3,4.4v12
	c0,2.4,2,4.2,4.3,4.2c0,0,0,0,0,0h19.2c2.4,0,4.3-1.8,4.3-4.2c0,0,0,0,0,0v-12C39.2,20,37.2,18,34.8,18z M20.6,15.2
	c0-0.8,0.7-1.4,1.4-1.3h6.4c0.8,0,1.4,0.6,1.5,1.4V18h-9.3L20.6,15.2z M25.2,36.4c-4.4,0-8-3.6-8-8s3.6-8,8-8s8,3.6,8,8
	S29.6,36.4,25.2,36.4z"/>
<path class="st0" d="M29.9,25.9h-2v-2.2c0-0.5-0.5-0.9-1-0.9h-3.3c-0.5,0-0.8,0.4-0.8,0.9c0,0,0,0,0,0.1v2.2h-2.2
	c-0.5,0-0.8,0.3-0.9,0.8c0,0,0,0,0,0.1V30c0,0.5,0.4,1,0.9,1h2.2v2c0,0.5,0.3,1.1,0.8,1.1h3.2c0.5-0.1,1-0.5,1-1.1v-2h2
	c0.5,0,0.9-0.5,0.8-1c0,0,0,0,0,0v-3.2C30.7,26.4,30.4,26,29.9,25.9C30,25.9,29.9,25.9,29.9,25.9z M29,29.3h-3.1v2.8h-1.4v-2.8h-3.1
	v-1.4h3.1v-3.1h1.4v3.1H29V29.3z"/>
</svg>
