<svg id="Layer_1" data-name="Layer 1" xmlns="http://www.w3.org/2000/svg" viewBox="0 0 50.46 50.46"><defs><style>.cls-1{fill:#65b4e1;}</style></defs><title>maletin medico 2</title><path class="cls-1" d="M34.83,18H31.71V15.16a3.36,3.36,0,0,0-3.29-3.32H22a3.37,3.37,0,0,0-3.29,3.32V18H15.64a4.29,4.29,0,0,0-4.22,4.35v12a4.17,4.17,0,0,0,4.22,4.21H34.83A4.17,4.17,0,0,0,39,34.41v-12A4.28,4.28,0,0,0,34.83,18ZM20.72,15.16A1.29,1.29,0,0,1,22,13.81h6.39a1.29,1.29,0,0,1,1.31,1.35V18h-9ZM37.35,34.41a2.57,2.57,0,0,1-2.52,2.52H15.64a2.57,2.57,0,0,1-2.53-2.52v-12a2.37,2.37,0,0,1,.76-1.69A2.47,2.47,0,0,1,15.64,20H34.83a2.47,2.47,0,0,1,1.77.68,2.37,2.37,0,0,1,.75,1.69Z"/><path class="cls-1" d="M29.91,25.93H27.77V23.75a.89.89,0,0,0-.88-.92H23.65a1,1,0,0,0-1,.92v2.19H20.62a1,1,0,0,0-1,.84V30a1.09,1.09,0,0,0,1,1h2.07v2a1.09,1.09,0,0,0,1,1.07h3.24A1,1,0,0,0,27.77,33V31h2.14a1,1,0,0,0,1-1V26.78A.89.89,0,0,0,29.91,25.93Zm-1,3.38H26.08v2.82H24.67V29.32h-3.1V27.63h3.1V24.81h1.41v2.82h2.82Z"/></svg>