<svg id="Layer_1" data-name="Layer 1" xmlns="http://www.w3.org/2000/svg" viewBox="0 0 50.46 50.46"><defs><style>.cls-1{fill:#65b4e1;}</style></defs><title>maletin medico 1</title><path class="cls-1" d="M34.83,18H31.57V15.16a3.25,3.25,0,0,0-3.15-3.32H22a3.24,3.24,0,0,0-3.14,3.32V18H15.62a4.38,4.38,0,0,0-4.34,4.35v12a4.27,4.27,0,0,0,4.34,4.22H34.83a4.28,4.28,0,0,0,4.35-4.22v-12A4.39,4.39,0,0,0,34.83,18ZM20.58,15.16A1.4,1.4,0,0,1,22,13.81h6.39a1.41,1.41,0,0,1,1.46,1.35V18h-9.3ZM25.23,36.4a8,8,0,1,1,8-8A8,8,0,0,1,25.23,36.4Z"/><path class="cls-1" d="M29.9,25.93h-2V23.76a1,1,0,0,0-1-.93H23.63a.84.84,0,0,0-.8.93v2.17H20.61a.83.83,0,0,0-.87.85V30a.94.94,0,0,0,.87,1h2.23v2c0,.5.3,1.06.8,1.06h3.24a1.16,1.16,0,0,0,1-1.06V31h2a.91.91,0,0,0,.83-1V26.79A.79.79,0,0,0,29.9,25.93ZM29,29.32h-3.1v2.82H24.53V29.32h-3.1V27.91h3.1v-3.1h1.41v3.1H29Z"/></svg>