<?xml version="1.0" encoding="utf-8"?>
<!-- Generator: Adobe Illustrator 22.1.0, SVG Export Plug-In . SVG Version: 6.00 Build 0)  -->
<svg version="1.1" id="Layer_1" xmlns="http://www.w3.org/2000/svg" xmlns:xlink="http://www.w3.org/1999/xlink" x="0px" y="0px"
	 viewBox="0 0 50.5 50.5" style="enable-background:new 0 0 50.5 50.5;" xml:space="preserve">
<style type="text/css">
	.st0{fill:#12B5E1;}
</style>
<g>
	<path class="st0" d="M45.6,22.6c0.2-0.7-0.6-1.3-1.1-1.5c0.5-0.2,0.9-0.9,0.7-1.5c-0.2-0.6-0.6-0.6-0.9-1c-0.3-0.4-0.3-0.9-0.5-1.4
		c-0.3-0.5-0.7-0.8-1.3-0.9c-1-0.1-2,0.6-3.1,0.4c-0.6-0.1,0,0.2-0.5-0.2c-0.2-0.2-0.3-0.5-0.5-0.7c-0.2-0.2-0.7-0.6-1-0.7
		c-0.2-0.1-0.4,0.1-0.6,0c-0.5,0-0.8-0.3-1.2,0c-0.2,0.1-0.4,0.4-0.6,0.5c-0.3,0-0.9-0.3-1.1-0.4c-0.5-0.2-0.8-0.5-1.2-1
		c-0.3-0.3-0.5-0.5-0.9-0.4c-1.2,0.4-0.1,2.2,0.3,2.8c-0.5-0.1-0.7,0.3-1.1,0.4c-0.3,0.1-0.7,0-1,0.4c-0.7,0.8-0.3,1.3-0.3,2.2
		c0,0.9-0.9,0.5-1,1.4c-0.1,1.1,1,0.8,1.5,1.4c-0.4,0.3-0.9,0.4-1.4,0.7c-0.3,0.1-0.5,0.3-0.7,0.5c-0.1,0.1-0.4,0.3-0.5,0.4
		c-0.1,0.1-0.2,0.5-0.3,0.6c-0.2,0.2-0.7,0.2-0.9,0.4c-0.6,0.4-0.7,1.2-1,1.6c-0.5,0.6-0.9,0.6-1.2,1.5c-0.2,0.5-0.2,0.8-0.5,1.2
		c-0.2,0.3-0.4,0.5-0.4,0.8c-0.1,0.4,0,0.5-0.1,0.8c-0.1,0.2-0.3,0.4-0.4,0.6c-0.3,0.7,0,1.1,0.5,1.5c-0.2,0.4-0.1,0.7-0.1,1.1
		c0,0.5-0.2,0.5-0.4,0.9c-0.5,1,0.2,1.6,1,1.9c0.6,0.2,1.1,0,1.5-0.5c0.3-0.4,0.3-0.7,0.2-1.3c0-0.1-0.3-0.2-0.3-0.4
		c0-0.2,0.2-0.3,0.3-0.2c0.1,0.1,0.3,0.1,0.4,0.2c0.1,0.1,0.1,0.3,0.2,0.4c0.3,0.3,0.6,0.2,0.9,0.3c0.3,0.2,0.4,0.5,0.6,0.6
		c0.6,0.4,1.6-0.2,1.7-1c0.1-0.5-0.1-0.5-0.3-0.8c-0.1-0.2-0.1-0.1-0.2-0.5c0-0.1,0-0.2,0-0.3c0-0.1,0.1-0.1,0.1-0.1
		c0.2,0.2,0.5,0.1,0.8,0.2c0.3,0,0.7,0.1,1.1,0.3c0.6,0.3,0.7,0.3,1.3,0.1c0.6-0.2,1.3-0.2,1.7-0.7c0.3-0.4,0.3-0.7,0.4-1.1
		c0-0.2,0.2-0.3,0.3-0.2c0.2,0.1,0.5-0.1,0.8,0c0.4,0.1,0.5,0.4,0.9,0.3c0.4-0.2,0.6-0.6,0.5-1.1c0-0.4,0.5,0.1,0.9,0.2
		c0.7,0.1,1.1-0.6,0.9-1.3c0-0.1,0.1-0.3,0.2-0.3c1-0.2,0.6-1.9-0.4-2c0.5-0.3,0.5-0.5,1.1-0.6c0.6-0.1,0.9-0.3,1.2-0.8
		c0.1-0.2,0.2-0.6,0.4-0.7c0.2-0.1,0.6,0.1,0.9-0.1c0.2-0.1,0.3-0.4,0.4-0.5c0.2-0.2,0.4-0.2,0.7-0.3c0.4,0,0.6,0,0.9-0.3
		C44.3,24.3,46.1,23.6,45.6,22.6z"/>
	<path class="st0" d="M5.2,22.4c0.2,0.4,0,0.9,0.4,1.2c0.3,0.3,0.7,0.3,1,0.1c0.2-0.2,0.2-0.4,0.4-0.6c0.1-0.2,0.4-0.5,0.5-0.7
		c0.3-0.5,0.1-0.7,0-1.2c-0.1-0.4-0.1-0.8-0.5-1c-0.6-0.2-0.6,0.3-0.9,0.6C5.7,21.2,4.7,21.4,5.2,22.4z"/>
	<path class="st0" d="M22.4,26.3c0.3-0.7,1.7,0.2,2.2-0.7c0.1-0.2,0-0.4,0.1-0.6c0.1-0.2,0.3-0.4,0.4-0.6c0.1-0.3,0.2-0.7,0.1-1
		c-0.2-0.3-0.4-0.2-0.6-0.5c0.3-0.1,0.5,0.1,0.8,0c0.5-0.1,0.8-0.6,1-1.1c0.3-0.6,0.4-1.2,0.8-1.7c0.2-0.3,0.6-0.5,0.8-0.9
		c0.5-0.8,0.8-2.2-0.2-2.7c-0.7-0.3-1.4-0.3-2.1-1c-0.3-0.3-0.3-0.7-0.6-0.9c-0.3-0.2-0.6,0-0.9-0.1c-0.3-0.1-0.6-0.3-1-0.2
		c-0.3,0-0.4,0-0.6-0.1c-0.1,0-0.3-0.2-0.4-0.2c-0.2-0.1-0.4,0.1-0.6,0.1c-0.4-0.1-0.2,0-0.5-0.3c-0.3-0.3-0.5-0.7-0.9-0.5
		c-0.6,0.2-0.7,0.9-0.4,1.4c-0.2,0-0.4,0.3-0.7,0.3c-0.3,0.1-0.6,0-0.9,0.1c-0.7,0.1-0.4,0.2-1-0.4c-1-1.2-2.5,0.8-1.1,1.8
		c-0.2,0.2-0.4,0.5-0.5,0.9c-0.9-0.9-2.5-1.9-3.7-1.8c-0.7,0.1-0.8,0.7-0.6,1.4c0.2,0.7,0.5,0.7,0.8,1.1c0.3,0.3,0.3,0.6,0.7,0.9
		c0.1,0.1,0.4,0.1,0.5,0.2c0,0,0.2,1,0.2,1.1c0.1,0.5,0.1,1,0.5,1.3c0.4,0.3,0.5-0.2,0.8-0.1c0.4,0.1,0.4,0.7,0.2,0.9
		c-0.2,0.2-0.5,0.3-0.7,0.3c-0.4,0-0.7-0.2-1-0.5c-0.3-0.4-0.5-0.9-0.9-1.3c-0.4-0.5-1-0.7-1.5-0.8c-0.2-0.1-0.5-0.1-0.8-0.1
		c-0.3,0-0.5,0.2-0.6,0.5c-0.2,0.4,0.1,1,0.5,1.2c0.4,0.2,0.8,0.2,1.2,0.3c0.1,0,0.1,0,0.2,0.1c0,0.1,0.1,0.1,0.1,0.2
		c0.2,1.6,1.1,2.9,2.1,4.1c0.1,0.1,0.2,0.2,0.1,0.4c0,0-0.1,0.1-0.1,0.1c-0.3,0.2-0.8-0.1-1.1,0.1c-0.1,0.1-0.2,0.4-0.3,0.5
		c-0.2,0.2-0.4,0.1-0.6,0.1c-0.1,0-0.3-0.1-0.4-0.2c-0.1-0.2-0.1-0.4-0.1-0.6c0-0.5,0.1-0.9,0.1-1.4c0-0.3,0-0.5-0.1-0.8
		c-0.1-0.2-0.3-0.3-0.6-0.4c-0.2,0-0.4,0-0.7,0c-0.9,0.1-1.8-0.3-2.7,0c-0.3,0.1-0.6,0.3-0.9,0.4c-0.5,0.1-0.9,0-1.2,0.5
		c-0.6,0.8-0.2,1.4,0.5,1.9c0.4,0.3,0.4,0.3,0.6,0.8c0.2,0.4,0.4,0.6,0.7,0.8c0.4,0.4,0.9,0.7,1.1,1.3c0.1,0.2-0.1,0.5,0,0.7
		C8.1,31,8.4,31,8.7,31.2c0.2,0.1,0.2-0.1,0.4,0.2c0.3,0.4,0.1,0.3,0.1,0.7c0,1,0.5,0.9,1.2,0.9c0.4,0-0.1-0.1,0.4,0.1
		c0.1,0,0.2,0.1,0.3,0.2c0.2,0.1,0.5,0.1,0.7,0.2c0.6,0.5,0.9,1.5,1.8,0.9c0.1-0.1,0.1-0.2,0.2-0.2c0.3-0.1,0.2,0,0.5,0
		c0.4,0,0.6-0.1,1-0.3c0.3-0.3,0.4-0.6,0.6-0.9c0.2-0.2,0.5-0.3,0.7-0.6c0.3-0.3,0.5-0.7,0.7-1.1c0.2-0.4,0.2-0.9,0.3-1.2
		c0.1-0.2,0-0.1,0.2-0.2c0.2-0.1,0.7,0,0.9,0c0.7,0,1.1,0.1,1.7-0.3c0.5-0.3,1-0.4,1.3-1.1c0.1-0.3,0.1-0.7,0.2-1
		C21.9,27,22.2,26.7,22.4,26.3z M24.3,15.1C24.3,15.1,24.3,15.1,24.3,15.1C24.3,15.1,24.3,15.1,24.3,15.1
		C24.3,15.1,24.3,15.1,24.3,15.1z"/>
</g>
</svg>
