<?xml version="1.0" encoding="utf-8"?>
<!-- Generator: Adobe Illustrator 24.2.1, SVG Export Plug-In . SVG Version: 6.00 Build 0)  -->
<svg version="1.1" id="Capa_1" xmlns="http://www.w3.org/2000/svg" xmlns:xlink="http://www.w3.org/1999/xlink" x="0px" y="0px"
	 viewBox="0 0 50.5 50.5" style="enable-background:new 0 0 50.5 50.5;" xml:space="preserve">
<g>
	<path d="M31.917,24.934c0-5.375-4.372-9.747-9.747-9.747s-9.747,4.373-9.747,9.747s4.372,9.747,9.747,9.747
		S31.917,30.309,31.917,24.934z M14.022,24.934c0-4.492,3.655-8.147,8.147-8.147s8.147,3.655,8.147,8.147s-3.655,8.147-8.147,8.147
		S14.022,29.426,14.022,24.934z"/>
	<path d="M28.285,24.934c0-3.373-2.743-6.116-6.115-6.116s-6.115,2.743-6.115,6.116c0,3.372,2.743,6.115,6.115,6.115
		S28.285,28.306,28.285,24.934z M17.654,24.934c0-2.49,2.025-4.516,4.516-4.516s4.516,2.026,4.516,4.516
		c0,2.49-2.025,4.516-4.516,4.516S17.654,27.424,17.654,24.934z"/>
	<path d="M44.099,36.953l-8.613-0.385c-0.079-0.359-0.384-0.633-0.766-0.633h-0.245c2.618-2.926,4.226-6.774,4.226-11
		c0-9.116-7.416-16.532-16.532-16.532S5.637,15.818,5.637,24.934c0,9.082,7.363,16.473,16.433,16.527
		c0.009,0,0.016,0.005,0.025,0.005h8.256c0.079,0.359,0.384,0.632,0.766,0.632h3.604c0.382,0,0.688-0.274,0.766-0.633l8.618-0.442
		c0.425-0.021,0.759-0.373,0.759-0.799v-2.472C44.863,37.325,44.526,36.972,44.099,36.953z M10.559,24.934
		c0-6.402,5.208-11.611,11.61-11.611s11.61,5.208,11.61,11.611c0,6.402-5.208,11.61-11.61,11.61S10.559,31.336,10.559,24.934z
		 M35.379,24.934c0-7.284-5.926-13.21-13.21-13.21s-13.21,5.926-13.21,13.21c0,7.201,5.793,13.064,12.962,13.197
		c0.057,0.013,0.112,0.035,0.173,0.035c0,0,0,0,0,0h8.222v1.7h-8.222c0,0,0,0,0,0v-0.004c-8.199-0.041-14.858-6.72-14.858-14.928
		c0-8.234,6.699-14.933,14.933-14.933S37.102,16.7,37.102,24.934c0,4.355-1.886,8.268-4.87,11h-1.115
		c-0.382,0-0.687,0.274-0.766,0.632h-1.93C32.56,34.334,35.379,29.958,35.379,24.934z M33.92,40.499h-2.004v-2.964h2.004V40.499z
		 M43.263,39.464l-7.743,0.397v-1.69l7.743,0.346V39.464z"/>
</g>
</svg>
