<svg id="Layer_1" data-name="Layer 1" xmlns="http://www.w3.org/2000/svg" viewBox="0 0 50.46 50.46"><defs><style>.cls-1{fill:#12b5e1;}</style></defs><title>manzana</title><path class="cls-1" d="M38.18,20.63a8.2,8.2,0,0,0-6-2.62,10.46,10.46,0,0,0-7,3,11,11,0,0,0-7-3,8.2,8.2,0,0,0-6,2.62,12.18,12.18,0,0,0-3,9.14c.3,6.23,5.28,13.75,11,13.75a8.43,8.43,0,0,0,3.74-.89,2.58,2.58,0,0,1,2.3,0,8.35,8.35,0,0,0,3.76.89c5.73,0,10.71-7.52,11-13.75A12.18,12.18,0,0,0,38.18,20.63Zm1.1,9.05c-.26,5.39-4.54,12-9.15,12A6.51,6.51,0,0,1,27.2,41a4.36,4.36,0,0,0-4,0,6.59,6.59,0,0,1-2.91.7c-4.61,0-8.89-6.59-9.15-12a10.34,10.34,0,0,1,2.45-7.77,6.36,6.36,0,0,1,4.62-2c2.65,0,4.67,1.57,6.37,3.05a.92.92,0,0,0,1.22,0l.12-.11c1.43-1.24,3.37-2.94,6.25-2.94a6.36,6.36,0,0,1,4.62,2A10.34,10.34,0,0,1,39.28,29.68Z"/><path class="cls-1" d="M16.84,23.75c-2.24.79-2.8,3.51-2.49,5.19a.83.83,0,0,0,.81.67l.15,0a.81.81,0,0,0,.66-1c-.16-.89.08-2.85,1.41-3.32a.83.83,0,1,0-.54-1.56Z"/><path class="cls-1" d="M19.11,22.78a.82.82,0,0,0,.22,1.62.76.76,0,0,0,.21,0l.08,0a.79.79,0,0,0,.54-1A.86.86,0,0,0,19.11,22.78Z"/><path class="cls-1" d="M24.45,18.55a.84.84,0,0,0,.27,0,.82.82,0,0,0,.77-.54c.06-.15,1.33-3.71-.13-6.75S20.33,7,20.18,7a.83.83,0,0,0-1,.5c-.05.15-1.32,3.7.14,6.74S24.3,18.5,24.45,18.55Zm-4-9.65A7.42,7.42,0,0,1,23.87,12a7.43,7.43,0,0,1,.3,4.61,7.4,7.4,0,0,1-3.4-3.12A7.44,7.44,0,0,1,20.46,8.9Z"/></svg>