<?xml version="1.0" encoding="utf-8"?>
<!-- Generator: Adobe Illustrator 25.4.1, SVG Export Plug-In . SVG Version: 6.00 Build 0)  -->
<svg version="1.1" id="Capa_2" xmlns="http://www.w3.org/2000/svg" xmlns:xlink="http://www.w3.org/1999/xlink" x="0px" y="0px"
	 viewBox="0 0 50.5 50.5" enable-background="new 0 0 50.5 50.5" xml:space="preserve">
<g>
	<path d="M24.752,29.809c-2.107-1.277-3.52-3.585-3.52-6.228c0-4.024,3.262-7.286,7.286-7.286c0.736,0,1.446,0.112,2.116,0.315
		c0.261-0.594,0.596-1.155,1.018-1.655c0.573-0.747,1.3-1.361,2.133-1.8l0.198-0.09c0.452-0.157,0.847-0.445,1.134-0.828
		c0.157-0.255,0.258-0.54,0.297-0.837c0.125-0.543,0.058-1.112-0.189-1.611c-0.033-0.053-0.069-0.104-0.108-0.153
		c-0.276-0.369-0.719-0.575-1.179-0.549c-0.366,0.011-0.703,0.203-0.9,0.513c-0.113,0.196-0.18,0.414-0.198,0.639
		c-0.01,0.077-0.028,0.152-0.054,0.225c-0.06,0.115-0.15,0.212-0.261,0.279c-0.27,0.198-1.89,0.981-2.133,0.495
		c-0.072-0.135,0.459-0.9,0.531-1.044c0.171-0.378,0.171-0.81,0-1.188c-0.245-0.362-0.598-0.639-1.008-0.792
		C28.717,7.687,27.597,7,26.584,6.171c-0.577-0.625-1.23-1.176-1.944-1.638c-0.746-0.453-1.71-0.305-2.286,0.351
		c-1.035-0.766-2.495-0.548-3.26,0.487c-0.31,0.418-0.47,0.928-0.457,1.448c0,0.216,0,0.477-0.117,0.63
		c-0.137,0.097-0.294,0.162-0.459,0.189c-0.525,0.227-0.875,0.734-0.9,1.305c-0.054,0.549,0,1.107,0,1.656
		c-0.125,0.817-0.377,1.61-0.747,2.349c-0.849,1.744-1.077,3.725-0.648,5.616c0.197,0.492,0.333,1.005,0.405,1.53
		c0.015,0.361-0.025,0.722-0.117,1.071c-0.153,0.711-0.333,1.422-0.54,2.115c-0.163,0.448-0.258,0.919-0.279,1.395
		c0.033,0.447,0.094,0.892,0.18,1.332c0.031,0.435-0.037,0.872-0.198,1.278c-0.231,1.071-0.201,2.183,0.09,3.24
		c-0.2,0.256-0.3,0.576-0.279,0.9c0.03,0.313,0.115,0.617,0.252,0.9c0.327,0.87,0.545,1.777,0.648,2.7
		c0.03,0.969-0.03,1.94-0.18,2.898c0.01,0.467-0.082,0.931-0.27,1.359c-0.157,0.323-0.26,0.67-0.306,1.026
		c-0.19,0.772,0.075,1.585,0.684,2.097c0.18,0.095,0.382,0.141,0.585,0.135c0.047,0.368,0.23,0.705,0.513,0.945
		c0.352,0.265,0.799,0.373,1.233,0.297c0.453-0.072,0.915-0.072,1.368,0c0.054,0.405,0.117,0.81,0.171,1.215
		c0.054,0.405,0,1.278,0.351,1.656c0.301,0.257,0.697,0.374,1.089,0.324c1.003,0.002,2.003-0.091,2.988-0.279
		c0.086-0.01,0.167-0.044,0.234-0.099c0.144-0.135,0.072-0.369,0-0.54c-0.16-0.398-0.466-0.72-0.855-0.9
		c-0.192-0.053-0.387-0.092-0.585-0.117c-0.837-0.189-1.314-1.053-1.683-1.8c-0.216-0.441-0.423-0.9-0.639-1.332
		c-0.129-0.19-0.163-0.43-0.09-0.648c0.198-0.369,0.747-0.342,0.9-0.801c0.153-0.459-0.099-0.954,0.297-1.377
		c0.243-0.261,0.612-0.36,0.846-0.621c0.22-0.326,0.328-0.714,0.306-1.107c0-0.522,0-1.161-0.495-1.386
		c-0.26-0.073-0.524-0.127-0.792-0.162c-0.261-0.081-0.495-0.387-0.333-0.603s0.333-0.144,0.522-0.162
		c1.197-0.108,1.305-1.44,1.359-2.367c0.023-0.188,0.023-0.379,0-0.567h0.135c0.495,0.194,1.054-0.049,1.248-0.545
		c0.004-0.01,0.008-0.021,0.012-0.031c0.192-0.541,0.093-1.142-0.261-1.593C24.339,30.023,24.531,29.945,24.752,29.809z"/>
	<path d="M26.125,43.441c-0.249-0.138-0.552-0.138-0.801,0c-0.25,0.163-0.321,0.497-0.158,0.747c0.09,0.138,0.237,0.227,0.401,0.243
		c0.036,0.172,0.052,0.347,0.045,0.522c0,0.293,0.238,0.531,0.531,0.531c0.003,0,0.006,0,0.009,0c0.288,0,0.432-0.549,0.432-0.846
		C26.584,44.143,26.629,43.738,26.125,43.441z"/>
	<path d="M27.88,43.351h-0.117c-0.9-0.063-1.107,1.215-0.738,1.8c0.14,0.267,0.445,0.405,0.738,0.333
		c0.244-0.104,0.366-0.379,0.279-0.63c-0.072-0.154-0.072-0.332,0-0.486c0.063-0.099,0.189-0.144,0.27-0.243
		c0.094-0.142,0.094-0.326,0-0.468C28.214,43.502,28.059,43.393,27.88,43.351z"/>
	<path d="M39.954,32.686c-0.018-0.019-0.037-0.038-0.056-0.056l-4.859-4.792c-0.589,0.915-1.367,1.693-2.282,2.282l4.859,4.792
		c0.615,0.646,1.636,0.67,2.282,0.056S40.569,33.331,39.954,32.686z"/>
	<path d="M28.048,19.792c-1.772,0.003-3.208,1.439-3.211,3.211c-0.03,0.287,0.179,0.544,0.466,0.574
		c0.287,0.03,0.544-0.179,0.574-0.466c0.004-0.036,0.004-0.072,0-0.108c0-1.199,0.972-2.171,2.171-2.171
		c0.287-0.03,0.496-0.287,0.466-0.574C28.489,20.013,28.294,19.818,28.048,19.792z"/>
	<path d="M35.006,23.581c0-3.578-2.911-6.489-6.489-6.489s-6.489,2.911-6.489,6.489s2.911,6.489,6.489,6.489
		S35.006,27.159,35.006,23.581z M28.517,28.677c-2.81,0-5.096-2.286-5.096-5.097c0-2.81,2.286-5.096,5.096-5.096
		c2.811,0,5.097,2.286,5.097,5.096C33.614,26.391,31.328,28.677,28.517,28.677z"/>
</g>
</svg>
