<?xml version="1.0" encoding="utf-8"?>
<!-- Generator: Adobe Illustrator 25.4.1, SVG Export Plug-In . SVG Version: 6.00 Build 0)  -->
<svg version="1.1" id="Capa_1" xmlns="http://www.w3.org/2000/svg" xmlns:xlink="http://www.w3.org/1999/xlink" x="0px" y="0px"
	 viewBox="0 0 50.46 50.46" enable-background="new 0 0 50.46 50.46" xml:space="preserve">
<path d="M17.706,27.238c0,0,0,0-0.009,0c-2.428,0-4.41-2.005-4.4-4.424c0.009-2.433,1.986-4.4,4.409-4.4c0,0,0,0,0.01,0
	c2.428,0,4.405,2.005,4.395,4.424C22.106,25.271,20.124,27.238,17.706,27.238z M24.279,22.333c-0.113-1.639-0.771-3.046-1.948-4.204
	c-1.3-1.28-2.864-1.902-4.626-1.894c-1.781-0.034-3.59,0.756-4.822,2.094c-1.3,1.413-1.883,3.085-1.75,4.989
	c0.113,1.639,0.77,3.041,1.948,4.204c1.3,1.28,2.864,1.897,4.625,1.889c1.781,0.039,3.586-0.751,4.822-2.089
	C23.827,25.909,24.411,24.232,24.279,22.333z"/>
<path d="M19.988,22.436c0.25,1.58-1.085,2.918-2.668,2.663c-0.952-0.162-1.722-0.922-1.883-1.883
	c-0.255-1.58,1.084-2.918,2.668-2.663C19.051,20.71,19.826,21.474,19.988,22.436z"/>
<path d="M38.321,12.121L20.276,4.572c-1.084-0.456-2.28,0.339-2.28,1.516v7.446c0.427,0.01,0.858,0.049,1.29,0.123
	c3.855,0.633,6.95,3.742,7.583,7.583c0.942,5.723-3.36,10.688-8.872,10.849v12.273c0,1.673,2.216,2.275,3.06,0.824l18.055-30.72
	c0.51-0.853,0.133-1.956-0.78-2.344H38.321z"/>
<path d="M37.748,39.583c0,0.667-0.171,1.094-0.461,1.472c-0.765,0.952-1.657,1.775-2.545,2.614
	c-0.206,0.201-0.432,0.388-0.638,0.584c-0.113,0.108-0.201,0.098-0.314,0c-1.084-0.986-2.163-1.966-3.095-3.095
	c-0.697-0.849-0.726-1.858-0.098-2.658c0.917-1.158,2.383-1.055,3.222,0.152c0.113,0.162,0.152,0.142,0.265-0.02
	c0.506-0.736,1.423-1.045,2.251-0.78c0.844,0.265,1.413,1.035,1.413,1.742V39.583z"/>
</svg>
