<svg id="Layer_1" data-name="Layer 1" xmlns="http://www.w3.org/2000/svg" viewBox="0 0 50.46 50.46"><defs><style>.cls-1{fill:#12b5e1;}</style></defs><title>mapa argentina</title><path class="cls-1" d="M36.3,7.61a1.77,1.77,0,0,0-.12-.17,1.53,1.53,0,0,0-1.31-.61,1.23,1.23,0,0,0-1,.57,1.69,1.69,0,0,0-.22.71,1.15,1.15,0,0,1-.06.25.79.79,0,0,1-.29.31c-.3.22-2.1,1.09-2.37.55-.08-.15.51-1,.59-1.16a1.6,1.6,0,0,0,0-1.32,2.34,2.34,0,0,0-1.12-.88A16.08,16.08,0,0,1,26.7,3.59a11.28,11.28,0,0,0-2.16-1.82A2,2,0,0,0,22,2.16a2.59,2.59,0,0,0-4.13,2.15c0,.24,0,.53-.13.7a1.23,1.23,0,0,1-.51.21,1.66,1.66,0,0,0-1,1.45c-.06.61,0,1.23,0,1.84a8.83,8.83,0,0,1-.83,2.61,9.47,9.47,0,0,0-.72,6.24,7.23,7.23,0,0,1,.45,1.7A4,4,0,0,1,15,20.25c-.17.79-.37,1.58-.6,2.35a5.21,5.21,0,0,0-.31,1.55,12.51,12.51,0,0,0,.2,1.48,3.24,3.24,0,0,1-.22,1.42,7.56,7.56,0,0,0,.1,3.6,1.47,1.47,0,0,0-.31,1,2.93,2.93,0,0,0,.28,1,12.47,12.47,0,0,1,.72,3,17.42,17.42,0,0,1-.2,3.22,3.55,3.55,0,0,1-.3,1.51,3.67,3.67,0,0,0-.34,1.14,2.32,2.32,0,0,0,.76,2.33,1.31,1.31,0,0,0,.65.15A1.65,1.65,0,0,0,16,45.05a1.77,1.77,0,0,0,1.37.33,4.84,4.84,0,0,1,1.52,0c.06.45.13.9.19,1.35s0,1.42.39,1.84a1.56,1.56,0,0,0,1.21.36A17.55,17.55,0,0,0,24,48.62a.5.5,0,0,0,.26-.11c.16-.15.08-.41,0-.6a1.87,1.87,0,0,0-.95-1,4.67,4.67,0,0,0-.65-.13c-.93-.21-1.46-1.17-1.87-2-.24-.49-.47-1-.71-1.48a.82.82,0,0,1-.1-.72c.22-.41.83-.38,1-.89s-.11-1.06.33-1.53c.27-.29.68-.4.94-.69a2,2,0,0,0,.34-1.23c0-.58,0-1.29-.55-1.54a6.23,6.23,0,0,0-.88-.18c-.29-.09-.55-.43-.37-.67s.37-.16.58-.18c1.33-.12,1.45-1.6,1.51-2.63a2.61,2.61,0,0,0,0-.63l.15,0a1.07,1.07,0,0,0,1.4-.64A1.86,1.86,0,0,0,24.14,30c.17.24,1.36-.74,1.46-.9.42-.66,0-1.51.33-2.24a6.42,6.42,0,0,0,3.29-.51,5.06,5.06,0,0,0,2.42-2.24,2.53,2.53,0,0,0,.28-1.93,3.4,3.4,0,0,0-.27-.54l-.84-1.52a4.72,4.72,0,0,1-.09-3.49,7.54,7.54,0,0,1,1.61-3.28,7.24,7.24,0,0,1,2.37-2l.22-.1a2.67,2.67,0,0,0,1.26-.92,2.37,2.37,0,0,0,.33-.93A2.68,2.68,0,0,0,36.3,7.61Z"/><path class="cls-1" d="M26.19,45a.92.92,0,0,0-.89,0,.6.6,0,0,0,.27,1.1,2.37,2.37,0,0,1,.05.58.59.59,0,0,0,.6.59c.32,0,.48-.61.48-.94C26.7,45.78,26.75,45.33,26.19,45Z"/><path class="cls-1" d="M28.14,44.9l-.13,0c-1-.07-1.23,1.35-.82,2a.73.73,0,0,0,.82.37.56.56,0,0,0,.31-.7.64.64,0,0,1,0-.54c.07-.11.21-.16.3-.27a.47.47,0,0,0,0-.52A.78.78,0,0,0,28.14,44.9Z"/></svg>