<svg id="Layer_1" data-name="Layer 1" xmlns="http://www.w3.org/2000/svg" viewBox="0 0 50.46 50.46"><defs><style>.cls-1{fill:#a7a9ac;}</style></defs><title>mapa 2</title><path class="cls-1" d="M37.91,7.77H12.55A4.52,4.52,0,0,0,8,12.28V36.23a6.47,6.47,0,0,0,6.46,6.46H36a6.47,6.47,0,0,0,6.46-6.46V12.28A4.52,4.52,0,0,0,37.91,7.77Zm2.83,28.46A4.79,4.79,0,0,1,36,41H14.5a4.79,4.79,0,0,1-4.78-4.78V12.28a2.83,2.83,0,0,1,2.83-2.83H37.91a2.83,2.83,0,0,1,2.83,2.83Z"/><path class="cls-1" d="M33.06,14.27a1,1,0,0,0-.81-.37.76.76,0,0,0-.63.35,1.2,1.2,0,0,0-.13.44q0,.09,0,.15a.67.67,0,0,1-.19.19c-.18.14-1.29.67-1.46.34,0-.09.32-.59.37-.71a1,1,0,0,0,0-.82,1.48,1.48,0,0,0-.69-.54,10.18,10.18,0,0,1-2.25-1.39,6.81,6.81,0,0,0-1.33-1.13,1.25,1.25,0,0,0-1.57.24,1.6,1.6,0,0,0-2.54,1.33.57.57,0,0,1-.08.43.85.85,0,0,1-.31.13,1,1,0,0,0-.59.89c-.05.38,0,.76,0,1.13a5.4,5.4,0,0,1-.51,1.61,5.9,5.9,0,0,0-.45,3.84,4.41,4.41,0,0,1,.28,1.05,2.67,2.67,0,0,1-.08.74c-.11.48-.23,1-.37,1.44a3.16,3.16,0,0,0-.2.95,6.88,6.88,0,0,0,.13.91,2.17,2.17,0,0,1-.13.88,4.51,4.51,0,0,0,.06,2.22.83.83,0,0,0-.19.58,1.6,1.6,0,0,0,.17.64A7.56,7.56,0,0,1,20,31.61a10.14,10.14,0,0,1-.13,2,2.09,2.09,0,0,1-.18.93,2.83,2.83,0,0,0-.21.7,1.45,1.45,0,0,0,.47,1.44.75.75,0,0,0,.4.09,1,1,0,0,0,.34.68,1.09,1.09,0,0,0,.84.21,2.69,2.69,0,0,1,.94,0l.12.82c0,.33,0,.88.24,1.14a1,1,0,0,0,.74.22,10.7,10.7,0,0,0,2-.22.24.24,0,0,0,.16-.07c.1-.09.05-.25,0-.36a1.17,1.17,0,0,0-.58-.65c-.13,0-.27,0-.4-.07-.57-.13-.9-.72-1.15-1.25l-.44-.91a.49.49,0,0,1-.06-.45c.13-.25.51-.23.6-.55s-.07-.65.21-.94.41-.25.57-.42a1.17,1.17,0,0,0,.21-.76c0-.36,0-.8-.33-1a3.35,3.35,0,0,0-.55-.11c-.18,0-.34-.27-.23-.42s.23-.09.36-.1c.82-.08.9-1,.93-1.63a1.2,1.2,0,0,0,0-.38l.09,0a.68.68,0,0,0,.87-.4,1.15,1.15,0,0,0-.15-1.05c.1.15.84-.46.9-.55.25-.41,0-.93.2-1.39a3.9,3.9,0,0,0,2-.31,3.1,3.1,0,0,0,1.5-1.38,1.5,1.5,0,0,0,.16-1.18,2.11,2.11,0,0,0-.16-.34l-.52-.93A2.9,2.9,0,0,1,29.7,20a4.61,4.61,0,0,1,1-2,4.51,4.51,0,0,1,1.46-1.22l.13-.06a1.68,1.68,0,0,0,.78-.57,1.55,1.55,0,0,0,.2-.58,1.62,1.62,0,0,0-.13-1.12Z"/><path class="cls-1" d="M26.91,37.41a.58.58,0,0,0-.55,0,.37.37,0,0,0-.12.5.35.35,0,0,0,.29.18,2.05,2.05,0,0,1,0,.36.36.36,0,0,0,.36.36c.21,0,.3-.38.3-.58C27.22,37.88,27.25,37.61,26.91,37.41Z"/><path class="cls-1" d="M28.11,37.34H28c-.63,0-.76.83-.51,1.25a.45.45,0,0,0,.51.22.35.35,0,0,0,.19-.43.42.42,0,0,1,0-.33c.05-.07.13-.1.18-.17a.29.29,0,0,0,0-.32A.48.48,0,0,0,28.11,37.34Z"/></svg>