<svg id="Layer_1" data-name="Layer 1" xmlns="http://www.w3.org/2000/svg" viewBox="0 0 50.46 50.46"><defs><style>.cls-1{fill:#a7a9ac;}</style></defs><title>mapa 2-negativo</title><path class="cls-1" d="M37.91,7.77H12.55A4.52,4.52,0,0,0,8,12.28V36.23a6.47,6.47,0,0,0,6.46,6.46H36a6.47,6.47,0,0,0,6.46-6.46V12.28A4.52,4.52,0,0,0,37.91,7.77Zm-11,31.05a.36.36,0,0,1-.36-.36,2.05,2.05,0,0,0,0-.36.35.35,0,0,1-.29-.18.37.37,0,0,1,.12-.5.58.58,0,0,1,.55,0c.34.2.31.47.31.83C27.22,38.44,27.13,38.82,26.92,38.82Zm1.48-1c0,.07-.13.1-.18.17a.42.42,0,0,0,0,.33.35.35,0,0,1-.19.43.45.45,0,0,1-.51-.22c-.25-.42-.12-1.29.51-1.25h.08a.48.48,0,0,1,.29.21A.29.29,0,0,1,28.4,37.87ZM33.26,15.5a1.55,1.55,0,0,1-.2.58,1.68,1.68,0,0,1-.78.57l-.13.06a4.51,4.51,0,0,0-1.46,1.22,4.61,4.61,0,0,0-1,2,2.9,2.9,0,0,0,.05,2.15l.52.93a2.11,2.11,0,0,1,.16.34,1.5,1.5,0,0,1-.16,1.18,3.1,3.1,0,0,1-1.5,1.38,3.9,3.9,0,0,1-2,.31c-.19.46.05,1-.2,1.39-.06.09-.8.7-.9.55a1.15,1.15,0,0,1,.15,1.05.68.68,0,0,1-.87.4l-.09,0a1.6,1.6,0,0,1,0,.38c0,.64-.11,1.55-.93,1.63-.13,0-.28,0-.36.1s.05.37.23.42a3.35,3.35,0,0,1,.55.11c.32.15.35.59.33,1a1.17,1.17,0,0,1-.21.76c-.16.17-.41.24-.57.42s-.11.61-.21.94-.47.3-.6.55a.49.49,0,0,0,.06.45l.44.91c.25.53.58,1.12,1.15,1.25.13,0,.27,0,.4.07a1.17,1.17,0,0,1,.58.65c.06.11.11.27,0,.36a.24.24,0,0,1-.16.07,10.7,10.7,0,0,1-2,.22,1,1,0,0,1-.74-.22c-.23-.26-.2-.81-.24-1.14l-.12-.82a2.69,2.69,0,0,0-.94,0,1.09,1.09,0,0,1-.84-.21,1,1,0,0,1-.34-.68.75.75,0,0,1-.4-.09,1.45,1.45,0,0,1-.47-1.44,2.83,2.83,0,0,1,.21-.7,2.09,2.09,0,0,0,.18-.93,10.14,10.14,0,0,0,.13-2,7.56,7.56,0,0,0-.44-1.82,1.6,1.6,0,0,1-.17-.64.83.83,0,0,1,.19-.58,4.51,4.51,0,0,1-.06-2.22,2.17,2.17,0,0,0,.13-.88,6.88,6.88,0,0,1-.13-.91,3.16,3.16,0,0,1,.2-.95c.14-.47.26-1,.37-1.44a2.67,2.67,0,0,0,.08-.74,4.41,4.41,0,0,0-.28-1.05,5.9,5.9,0,0,1,.45-3.84,5.4,5.4,0,0,0,.51-1.61c0-.37-.05-.75,0-1.13a1,1,0,0,1,.59-.89.85.85,0,0,0,.31-.13.57.57,0,0,0,.08-.43A1.6,1.6,0,0,1,24.32,11a1.25,1.25,0,0,1,1.57-.24,6.81,6.81,0,0,1,1.33,1.13,10.18,10.18,0,0,0,2.25,1.39,1.48,1.48,0,0,1,.69.54,1,1,0,0,1,0,.82c-.05.12-.41.62-.37.71.17.33,1.28-.2,1.46-.34a.67.67,0,0,0,.19-.19s0-.09,0-.15a1.2,1.2,0,0,1,.13-.44.76.76,0,0,1,.63-.35,1,1,0,0,1,.81.37l.07.11A1.62,1.62,0,0,1,33.26,15.5Z"/></svg>