<?xml version="1.0" encoding="utf-8"?>
<!-- Generator: Adobe Illustrator 24.2.1, SVG Export Plug-In . SVG Version: 6.00 Build 0)  -->
<svg version="1.1" id="Layer_1" xmlns="http://www.w3.org/2000/svg" xmlns:xlink="http://www.w3.org/1999/xlink" x="0px" y="0px"
	 viewBox="0 0 50.46 50.46" style="enable-background:new 0 0 50.46 50.46;" xml:space="preserve">
<path d="M17.153,44.609 M17.165,44.609 M26.744,44.606c-2.888-1.351-5.175-3.966-6.514-7.293l-0.003-0.007l-6.795-15.36
	c-4.577,1.983-7.488,6.052-7.488,11.072c0,6.4,5.188,11.587,11.587,11.587l0.121,0.001h9.008L26.744,44.606z M44.516,33.143
	 M44.486,23.563c-1.343,2.891-3.951,5.186-7.274,6.535l-0.007,0.003l-15.341,6.838c1.995,4.571,6.073,7.471,11.092,7.457
	c6.399-0.018,11.573-5.22,11.555-11.62l0-0.121l-0.025-9.008L44.486,23.563z M33.303,5.851 M33.291,5.851 M23.711,5.854
	c2.888,1.351,5.175,3.966,6.514,7.293l0.003,0.007l6.795,15.36c4.577-1.983,7.488-6.052,7.488-11.072
	c0-6.4-5.188-11.587-11.587-11.587l-0.121-0.001h-9.008L23.711,5.854z M5.969,26.897c1.343-2.891,3.951-5.186,7.274-6.535
	l0.007-0.003l15.341-6.838C26.596,8.95,22.518,6.05,17.499,6.064c-6.399,0.018-11.573,5.22-11.555,11.62l0,0.121l0.025,9.008
	L5.969,26.897z"/>
</svg>
