<?xml version="1.0" encoding="utf-8"?>
<!-- Generator: Adobe Illustrator 24.0.1, SVG Export Plug-In . SVG Version: 6.00 Build 0)  -->
<!DOCTYPE svg PUBLIC "-//W3C//DTD SVG 1.1//EN" "http://www.w3.org/Graphics/SVG/1.1/DTD/svg11.dtd" [
	<!ENTITY ns_extend "http://ns.adobe.com/Extensibility/1.0/">
	<!ENTITY ns_ai "http://ns.adobe.com/AdobeIllustrator/10.0/">
	<!ENTITY ns_graphs "http://ns.adobe.com/Graphs/1.0/">
	<!ENTITY ns_vars "http://ns.adobe.com/Variables/1.0/">
	<!ENTITY ns_imrep "http://ns.adobe.com/ImageReplacement/1.0/">
	<!ENTITY ns_sfw "http://ns.adobe.com/SaveForWeb/1.0/">
	<!ENTITY ns_custom "http://ns.adobe.com/GenericCustomNamespace/1.0/">
	<!ENTITY ns_adobe_xpath "http://ns.adobe.com/XPath/1.0/">
]>
<svg version="1.1" id="Layer_1" xmlns:x="&ns_extend;" xmlns:i="&ns_ai;" xmlns:graph="&ns_graphs;"
	 xmlns="http://www.w3.org/2000/svg" xmlns:xlink="http://www.w3.org/1999/xlink" x="0px" y="0px" viewBox="0 0 50.46 50.46"
	 enable-background="new 0 0 50.46 50.46" xml:space="preserve">
<metadata>
	<sfw  xmlns="&ns_sfw;">
		<slices></slices>
		<sliceSourceBounds  bottomLeftOrigin="true" height="21.535" width="46.116" x="659.942" y="267.733"></sliceSourceBounds>
	</sfw>
</metadata>
<g>
	<path d="M17.244,28.01h8.684l0.033-2.181c0.701,0.007,2.303,0.016,3.828,0.026l0.487-3.048l-2.717-8.164l-9.324-0.102l-0.095,3.993
		h-1.245H8.247H4.71c-1.393,0-2.607,2.492-2.535,3.885l0.143,2.918c0.108,0.399,0.335,0.508,0.602,0.505l14.325-0.023L17.244,28.01z
		 M20.993,16.332c0-0.238,0.194-0.509,0.428-0.509c1.691,0,3.387,0.075,5.073,0.075c0.235,0,0.377,0.226,0.429,0.428
		c0.483,1.764,0.97,3.532,1.453,5.298l0.005,2.476c0,0.196-0.194,0.43-0.42,0.43l-1.577-0.049c-0.229,0-0.428-0.221-0.428-0.43
		l-0.053-1.564l-1.396-1.662h-3.087c-0.234,0-0.428-0.194-0.428-0.432V16.332z"/>
	<path d="M45.902,28.236l-2.076,0.05l2.92-9.539v-4.283l-9.461,1.469l-6.392,4.226l0.814,2.537l-0.282,1.71
		c2.143-1.283,4.28-2.771,6.421-4.213l4.894-1.938c-0.35,0.508-1.568,2.925-1.636,3.382l0.959,6.721l-0.882,0.144l-3.569,5.984
		l-2.245,0.65l-0.413,0.645h6.83c1.807,0,3.612,0.054,5.212-1.029C49.458,33.08,48.01,31.593,45.902,28.236z"/>
	<path d="M31.074,29.274h-0.041c-0.043-0.005-0.081-0.005-0.126-0.005v0.005H7.122v-0.005c-1.128,0.005-2.218,0.659-2.777,1.805
		c-0.802,1.647-0.208,3.682,1.329,4.54c0.441,0.244,0.907,0.37,1.374,0.381l0.074,0.002h23.786h0.167v-0.007
		c0.435-0.023,0.871-0.147,1.284-0.377c1.537-0.857,2.132-2.893,1.329-4.54C33.152,29.987,32.144,29.337,31.074,29.274z
		 M8.044,34.413c-1.005,0-1.819-0.812-1.819-1.816s0.813-1.819,1.819-1.819c1.003,0,1.816,0.815,1.816,1.816
		S9.044,34.413,8.044,34.413z M11.463,34.201c0.223-0.492,0.351-1.033,0.351-1.606c0-0.505-0.097-0.988-0.275-1.426h14.949
		c-0.176,0.442-0.273,0.925-0.273,1.426c0,0.573,0.125,1.115,0.352,1.606H11.463z M29.991,34.413c-1.009,0-1.818-0.817-1.818-1.818
		s0.81-1.816,1.818-1.816c1.002,0,1.814,0.815,1.814,1.816S30.991,34.413,29.991,34.413z"/>
</g>
</svg>
