<svg id="Layer_1" data-name="Layer 1" xmlns="http://www.w3.org/2000/svg" viewBox="0 0 50.46 50.46"><defs><style>.cls-1{fill:#12b5e1;}</style></defs><title>maquina agricola</title><path class="cls-1" d="M28.1,31.66A4.88,4.88,0,1,0,33,36.55,4.89,4.89,0,0,0,28.1,31.66ZM32,38.09a4.2,4.2,0,0,1-8.11-1.54,4.21,4.21,0,1,1,8.41,0A4.14,4.14,0,0,1,32,38.09Z"/><path class="cls-1" d="M10.49,41.84a3.77,3.77,0,0,0,3.17-1.73,3.66,3.66,0,0,0,.59-2,3.76,3.76,0,1,0-3.76,3.75Zm0-6.82a3.07,3.07,0,0,1,3.08,3.07,3,3,0,0,1-.49,1.65A3.07,3.07,0,1,1,10.49,35Z"/><path class="cls-1" d="M48.54,45l-7.95-5.4a.76.76,0,0,0-.76,0,.77.77,0,0,0-.37.66v3A3.73,3.73,0,0,1,37,42a2.85,2.85,0,0,1-.58-1.86,8.84,8.84,0,0,0,.67-2.52c0-.2,0-.38,0-.56,1.25-.15,3.95-1,4.41-5.58l.35-15.74c0-2.11-.74-3.56-2.21-4.29a8.39,8.39,0,0,0-3.79-.6H33.06V6.91a2.86,2.86,0,0,0-2.87-2.86H11.9A2.86,2.86,0,0,0,9,6.91v4.7a.52.52,0,0,0,1,0V6.91A1.83,1.83,0,0,1,11.9,5.08H30.19A1.83,1.83,0,0,1,32,6.91v3.9H29V7.9a.51.51,0,0,0-.51-.51H13.62a.51.51,0,0,0-.51.51v3.71a.52.52,0,1,0,1,0V8.42H28V10.8H22.09A4.18,4.18,0,0,0,18,14.18a.49.49,0,0,0,0,.12L17.7,21,4.78,21a.51.51,0,0,0-.51.51v3A3.62,3.62,0,0,0,1.51,28v7.8a.85.85,0,0,0,.81.84l1.16,0a7.15,7.15,0,0,0-.14,1.4,7,7,0,0,0,.37,2.25,7.15,7.15,0,0,0,13.57,0,7,7,0,0,0,.37-2.25A7.15,7.15,0,0,0,4,35l-.86,0V28a2,2,0,0,1,2-2H15.84c2.38,0,3.14-2.32,3.42-3.2a.85.85,0,0,0,0-.22l.34-8.21a2.51,2.51,0,0,1,2.45-2h0l13.88,0a7.34,7.34,0,0,1,3,.42,2.16,2.16,0,0,1,1.17,1.6l-14.07,0h0a3,3,0,0,0-3,2.44s0,.07,0,.1L23,21.47a2.36,2.36,0,0,0,.68,1.76,2.39,2.39,0,0,0,1.74.74h14.7l-.17,7.37c-.33,3.28-2,3.91-2.81,4a9.08,9.08,0,1,0-1.44,6.22,4,4,0,0,0,.57,1,4.87,4.87,0,0,0,3.23,1.68v1.36a.76.76,0,0,0,.77.77h8a.77.77,0,0,0,.75-.58A.76.76,0,0,0,48.54,45Zm-38-12.58a5.71,5.71,0,0,1,5.71,5.71,5.56,5.56,0,0,1-.3,1.79,5.69,5.69,0,0,1-10.81,0,5.56,5.56,0,0,1-.3-1.79A5.71,5.71,0,0,1,10.49,32.38Zm7.15-9.93c-.54,1.62-1.09,1.95-1.8,1.95H5.3V22l12.36,0Zm7.74.32a1.2,1.2,0,0,1-.88-.37,1.24,1.24,0,0,1-.35-.89l.14-4.4a1.81,1.81,0,0,1,1.77-1.43h0l14.2,0-.16,7.07Zm10.3,14.64a7.63,7.63,0,0,1-15,.92,7.47,7.47,0,0,1-.22-1.78,7.64,7.64,0,0,1,15.28,0A8.1,8.1,0,0,1,35.68,37.41ZM41,44.87V41.53l5,3.34Z"/><path class="cls-1" d="M10.41,14.11a.6.6,0,1,0,.59.6A.59.59,0,0,0,10.41,14.11Z"/><path class="cls-1" d="M12.78,15.3a.6.6,0,1,0-.6-.59A.6.6,0,0,0,12.78,15.3Z"/><path class="cls-1" d="M11.59,15.81a.6.6,0,0,0,0,1.19.6.6,0,0,0,0-1.19Z"/></svg>