<?xml version="1.0" encoding="utf-8"?>
<!-- Generator: Adobe Illustrator 24.0.1, SVG Export Plug-In . SVG Version: 6.00 Build 0)  -->
<!DOCTYPE svg PUBLIC "-//W3C//DTD SVG 1.1//EN" "http://www.w3.org/Graphics/SVG/1.1/DTD/svg11.dtd" [
	<!ENTITY ns_extend "http://ns.adobe.com/Extensibility/1.0/">
	<!ENTITY ns_ai "http://ns.adobe.com/AdobeIllustrator/10.0/">
	<!ENTITY ns_graphs "http://ns.adobe.com/Graphs/1.0/">
	<!ENTITY ns_vars "http://ns.adobe.com/Variables/1.0/">
	<!ENTITY ns_imrep "http://ns.adobe.com/ImageReplacement/1.0/">
	<!ENTITY ns_sfw "http://ns.adobe.com/SaveForWeb/1.0/">
	<!ENTITY ns_custom "http://ns.adobe.com/GenericCustomNamespace/1.0/">
	<!ENTITY ns_adobe_xpath "http://ns.adobe.com/XPath/1.0/">
]>
<svg version="1.1" id="Layer_1" xmlns:x="&ns_extend;" xmlns:i="&ns_ai;" xmlns:graph="&ns_graphs;"
	 xmlns="http://www.w3.org/2000/svg" xmlns:xlink="http://www.w3.org/1999/xlink" x="0px" y="0px" viewBox="0 0 50.46 50.46"
	 enable-background="new 0 0 50.46 50.46" xml:space="preserve">
<metadata>
	<sfw  xmlns="&ns_sfw;">
		<slices></slices>
		<sliceSourceBounds  bottomLeftOrigin="true" height="22.406" width="46.116" x="659.942" y="267.297"></sliceSourceBounds>
	</sfw>
</metadata>
<g>
	<path d="M25.145,31.356v-0.014v-0.009v-0.009v-0.009v-0.011v-0.007v-0.009l-0.002-0.009v-0.014v-0.018v-0.009v-0.009l-0.002-0.012
		v-0.009v-0.009v-0.009v-0.012v-0.009v-0.009v-0.009v-0.009v-0.014v-0.009v-0.011v-0.007v-0.009v-0.009
		c0-3.893,3.155-7.044,7.044-7.044l0.125,0.002h0.055l0.065,0.002l0.115,0.005h0.007l0.032,0.002l0.141,0.009l0.069,0.007
		l0.111,0.007l0.014,0.002l0.12,0.011l0.046,0.008l0.074,0.009l0.102,0.014l0.016,0.002l0.118,0.02l0.037,0.007l0.03,0.005
		l0.146,0.028l0.028,0.005l0.115,0.027l0.032,0.007l0.083,0.022l0.085,0.021l0.03,0.009l0.115,0.031l0.023,0.007l0.088,0.026
		l0.078,0.023l0.037,0.011l0.111,0.038l0.018,0.007l0.092,0.031l0.069,0.025l0.152,0.058l0.009,0.005l0.097,0.039l0.062,0.027
		l0.044,0.018l0.106,0.047l0.009,0.005l0.097,0.045l0.055,0.029l0.051,0.023l0.102,0.052l0.102,0.052l0.051,0.029l0.051,0.029
		l0.092,0.052l0.005,0.002l0.104,0.059l0.005,0.002l0.081,0.05l0.009,0.007l0.088,0.054l0.009,0.007l0.097,0.062l0.039,0.023
		l0.058,0.043l0.078,0.054l0.014,0.009l0.092,0.067l0.032,0.023l0.06,0.05l0.067,0.047l0.021,0.014l0.088,0.072l0.028,0.021
		l0.06,0.052l0.088,0.074l0.085,0.075l0.062,0.06l0.023,0.018l0.055,0.054l0.023,0.023l0.083,0.081l0.014,0.014l0.069,0.067
		l0.049,0.052l0.028,0.03l0.078,0.085l0.009,0.009l0.067,0.073l0.074,0.088l0.074,0.088l0.143,0.18l0.069,0.09l0.06,0.081
		l0.011,0.018L37.93,27l0.037,0.051l0.06,0.09l0.005,0.005l0.06,0.097c0.083,0.127,0.162,0.256,0.24,0.395l5.205-0.023l0.688-2.075
		h-1.478l2.365-9.226h0.866l-0.039-2.287H33.501l-0.021,6.2l-1.051,0.002l-0.517-4.014l-13.749,0.034l-0.52,1.219l11.371,1.003
		c2.219,0.287,1.09,5.431-1.129,5.142L9.428,21.17L6.7,22.743l-0.232,3.502l5.237,4.589c0.79-1.575,2.422-2.66,4.306-2.66
		c2.099,0,3.885,1.344,4.542,3.219h4.594v-0.007v-0.012l-0.002-0.009V31.356z M43.148,16.219c-0.591,2.705-1.164,5.336-1.741,7.976
		l-1.245-0.005l1.716-7.971H43.148z M36.442,16.217l4.48,0.028l-1.739,7.95l-2.776-0.007L36.442,16.217z"/>
	<path d="M16.011,29.578c-1.882,0-3.409,1.524-3.409,3.408c0,1.88,1.527,3.408,3.409,3.408s3.409-1.524,3.409-3.408
		C19.421,31.104,17.896,29.578,16.011,29.578z M16.011,34.681c-0.934,0-1.691-0.757-1.691-1.693s0.757-1.693,1.691-1.693
		c0.936,0,1.69,0.757,1.69,1.693S16.946,34.681,16.011,34.681z"/>
	<path d="M32.184,25.722c-2.956,0-5.352,2.396-5.352,5.356c0,2.956,2.397,5.355,5.352,5.355c2.958,0,5.357-2.399,5.357-5.355
		C37.541,28.118,35.142,25.722,32.184,25.722z M32.184,33.734c-1.466,0-2.653-1.191-2.653-2.655c0-1.466,1.187-2.655,2.653-2.655
		c1.466,0,2.655,1.189,2.655,2.655C34.84,32.542,33.651,33.734,32.184,33.734z"/>
	<path d="M28.026,19.601l-23.638-2.5C3.783,17.038,3.537,17,3.347,17.499l-1.175,3.08l2.816,0.358l0.948-1.218
		c0.081-0.09,0.221-0.111,0.397-0.088l21.028,2.899C28.649,22.695,29.314,19.766,28.026,19.601z"/>
	<path d="M39.135,31.607c-0.102,1.928-1.071,3.625-2.517,4.715h10.987l0.683-1.268L39.135,31.607z"/>
</g>
</svg>
