<?xml version="1.0" encoding="utf-8"?>
<!-- Generator: Adobe Illustrator 24.0.1, SVG Export Plug-In . SVG Version: 6.00 Build 0)  -->
<!DOCTYPE svg PUBLIC "-//W3C//DTD SVG 1.1//EN" "http://www.w3.org/Graphics/SVG/1.1/DTD/svg11.dtd" [
	<!ENTITY ns_extend "http://ns.adobe.com/Extensibility/1.0/">
	<!ENTITY ns_ai "http://ns.adobe.com/AdobeIllustrator/10.0/">
	<!ENTITY ns_graphs "http://ns.adobe.com/Graphs/1.0/">
	<!ENTITY ns_vars "http://ns.adobe.com/Variables/1.0/">
	<!ENTITY ns_imrep "http://ns.adobe.com/ImageReplacement/1.0/">
	<!ENTITY ns_sfw "http://ns.adobe.com/SaveForWeb/1.0/">
	<!ENTITY ns_custom "http://ns.adobe.com/GenericCustomNamespace/1.0/">
	<!ENTITY ns_adobe_xpath "http://ns.adobe.com/XPath/1.0/">
]>
<svg version="1.1" id="Layer_1" xmlns:x="&ns_extend;" xmlns:i="&ns_ai;" xmlns:graph="&ns_graphs;"
	 xmlns="http://www.w3.org/2000/svg" xmlns:xlink="http://www.w3.org/1999/xlink" x="0px" y="0px" viewBox="0 0 50.46 50.46"
	 enable-background="new 0 0 50.46 50.46" xml:space="preserve">
<metadata>
	<sfw  xmlns="&ns_sfw;">
		<slices></slices>
		<sliceSourceBounds  bottomLeftOrigin="true" height="11.768" width="46.116" x="659.942" y="272.616"></sliceSourceBounds>
	</sfw>
</metadata>
<g>
	<path fill="none" d="M37.491,20.424h-1.662c-0.065,0-0.103,0.054-0.117,0.116l-0.32,1.438c0.822,0.107,1.602,0.324,2.262,0.755
		L37.61,20.54C37.607,20.48,37.557,20.424,37.491,20.424z"/>
	<path fill="none" d="M40.415,20.426h-2.001c-0.065,0-0.117,0.054-0.117,0.116l-0.017,2.551c0,0.063,0.052,0.116,0.117,0.116
		l2.517-0.006c0.062-0.149-0.32-2.298-0.385-2.661C40.522,20.48,40.479,20.426,40.415,20.426z"/>
	<path d="M46,26.313c0.779,0,1.48,0.344,1.956,0.889h0.332l-0.009-1.285l-0.469-0.089l0.275-1.966l-0.263-0.346l-3.589-0.049
		l0.019-2.655c0-0.051-0.041-0.093-0.093-0.093h-0.827c-0.048,0-0.095,0.042-0.095,0.093l-0.019,2.645l-1.492-0.032l-0.772-4.074
		l-6.926-0.004l-0.282,0.937l0.703,0.025l-0.756,2.645c0.414-0.113,0.736-0.15,1.071-0.168c0.37-0.015,0.758,0.002,1.308,0.173
		c0.413,0.128,0.806,0.315,1.162,0.547c1.011,0.658,1.75,1.697,2.018,2.912l0.014,0.065v0.003c0.062,0.292,0.096,0.591,0.096,0.904
		v0.12l-0.003,0.014v0.01c-0.003,0.213-0.024,0.419-0.055,0.622l2.902-0.003h1.308C43.843,27.088,44.835,26.313,46,26.313z
		 M35.393,21.978l0.32-1.438c0.014-0.062,0.052-0.116,0.117-0.116h1.662c0.065,0,0.115,0.056,0.119,0.116l0.045,2.193
		C36.995,22.302,36.214,22.085,35.393,21.978z M40.914,23.203l-2.517,0.006c-0.065,0-0.117-0.053-0.117-0.116l0.017-2.551
		c0-0.062,0.052-0.116,0.117-0.116h2.001c0.064,0,0.107,0.054,0.113,0.116C40.594,20.904,40.976,23.053,40.914,23.203z"/>
	<path d="M34.688,23.751c-2.025,0-3.67,1.643-3.67,3.671c0,2.027,1.645,3.672,3.67,3.672c2.025,0,3.67-1.645,3.67-3.672
		C38.358,25.394,36.713,23.751,34.688,23.751z M34.688,29.242c-1.005,0-1.82-0.815-1.82-1.82c0-1.004,0.815-1.819,1.82-1.819
		c1.004,0,1.819,0.816,1.819,1.819C36.507,28.427,35.692,29.242,34.688,29.242z"/>
	<path d="M45.983,27.105c-1.1,0-1.992,0.889-1.992,1.992c0,1.1,0.892,1.992,1.992,1.992c1.102,0,1.994-0.892,1.994-1.992
		C47.977,27.996,47.085,27.105,45.983,27.105z M45.983,30.086c-0.545,0-0.988-0.444-0.988-0.988
		c0.003-0.548,0.443-0.988,0.988-0.988c0.548,0,0.988,0.44,0.988,0.988C46.971,29.642,46.531,30.086,45.983,30.086z"/>
	<path d="M19.39,28.123c-0.828,0-1.496,0.669-1.496,1.494c0,0.827,0.669,1.497,1.496,1.497c0.825,0,1.495-0.67,1.495-1.497
		C20.886,28.792,20.215,28.123,19.39,28.123z M19.39,30.358c-0.411,0-0.743-0.33-0.743-0.743c0-0.409,0.333-0.741,0.743-0.741
		c0.408,0,0.741,0.332,0.741,0.741C20.131,30.024,19.8,30.358,19.39,30.358z"/>
	<path d="M25.908,28.123c-0.827,0-1.495,0.669-1.495,1.494c0,0.827,0.669,1.497,1.495,1.497c0.825,0,1.495-0.67,1.495-1.497
		C27.403,28.792,26.733,28.123,25.908,28.123z M25.908,30.358c-0.41,0-0.743-0.33-0.743-0.743c0-0.409,0.333-0.741,0.743-0.741
		c0.409,0,0.743,0.332,0.743,0.741C26.65,30.024,26.319,30.358,25.908,30.358z"/>
	<path d="M28.022,27.616h0.856v-3.128c-4.737,0-7.677,0-12.415,0v3.128h0.855l-0.003,0.964h-0.247l0.008,0.897l0.474,0.003
		c0.032-1.004,0.859-1.812,1.874-1.812c1.013,0,1.839,0.808,1.873,1.812c1.517,0,1.235,0,2.753,0
		c0.032-1.004,0.859-1.812,1.873-1.812c1.013,0,1.838,0.808,1.873,1.812l0.474-0.003l0.003-0.911l-0.239-0.021L28.022,27.616z"/>
	<path d="M29.17,27.389v0.473h-0.856l0.007,0.493l2.51-0.002c-0.048-0.223-0.079-0.454-0.086-0.691L29.17,27.389z"/>
	<path d="M5.099,28.123c-0.828,0-1.496,0.669-1.496,1.494c0,0.827,0.669,1.497,1.496,1.497s1.496-0.67,1.496-1.497
		C6.596,28.792,5.927,28.123,5.099,28.123z M5.099,30.358c-0.41,0-0.741-0.33-0.741-0.743c0-0.409,0.331-0.741,0.741-0.741
		c0.408,0,0.741,0.332,0.741,0.741C5.84,30.024,5.509,30.358,5.099,30.358z"/>
	<path d="M11.617,28.123c-0.828,0-1.496,0.669-1.496,1.494c0,0.827,0.669,1.497,1.496,1.497c0.827,0,1.496-0.67,1.496-1.497
		C13.114,28.792,12.444,28.123,11.617,28.123z M11.617,30.358c-0.408,0-0.742-0.33-0.742-0.743c0-0.409,0.332-0.741,0.742-0.741
		s0.741,0.332,0.741,0.741C12.358,30.024,12.027,30.358,11.617,30.358z"/>
	<path d="M13.733,27.616h0.856v-3.128c-4.739,0-7.678,0-12.417,0v3.129h0.857l-0.012,0.928l-0.239,0.022l0.003,0.909l0.475,0.003
		c0.032-1.004,0.859-1.812,1.873-1.812c1.013,0,1.841,0.808,1.874,1.812c1.517,0,1.236,0,2.753,0
		c0.035-1.004,0.857-1.812,1.873-1.812s1.841,0.808,1.873,1.812l0.475-0.003l0.005-0.897h-0.245L13.733,27.616z"/>
	<rect x="13.974" y="27.862" width="3.105" height="0.504"/>
	<path d="M11.856,23.582c0,0-1.848-0.37-2.394-0.504c-0.544-0.136-1.197-0.336-1.632-0.336c-0.434,0-1.087,0.336-1.468,0.437
		c-0.38,0.101-1.74,0.505-2.229,0.572c-0.282,0.038-0.421,0.222-0.537,0.37h9.567L11.856,23.582z"/>
	<path d="M26.618,23.073c0,0-2.1-0.724-2.718-0.984c-0.618-0.262-1.359-0.657-1.852-0.657c-0.492,0-1.236,0.657-1.667,0.853
		c-0.433,0.197-1.975,0.983-2.531,1.114c-0.319,0.076-0.477,0.433-0.609,0.722v0.002h10.858L26.618,23.073z"/>
</g>
</svg>
