<?xml version="1.0" encoding="utf-8"?>
<!-- Generator: Adobe Illustrator 22.1.0, SVG Export Plug-In . SVG Version: 6.00 Build 0)  -->
<svg version="1.1" id="Layer_1" xmlns="http://www.w3.org/2000/svg" xmlns:xlink="http://www.w3.org/1999/xlink" x="0px" y="0px"
	 viewBox="0 0 50.5 50.5" style="enable-background:new 0 0 50.5 50.5;" xml:space="preserve">
<style type="text/css">
	.st0{fill:#12B5E1;}
</style>
<title>martillo</title>
<g>
	<path class="st0" d="M3.9,32.8l16.7-13.3c-0.7-1-1.3-2-1.8-3c-0.2-0.5,0-1,0.5-1.2c0.5-0.2,1,0,1.2,0.5c0.5,1.1,1.2,2.3,2.1,3.4
		c0.2,0.2,0.2,0.4,0.2,0.7s-0.1,0.5-0.3,0.6L5.1,34.1c-1.3,1.3-1.3,3.4,0,4.8c1.3,1.3,3.4,1.3,4.7,0.1l14.1-17.1
		c0.2-0.2,0.4-0.3,0.6-0.3c0.2,0,0.5,0.1,0.7,0.2c1,0.9,2.1,1.6,3.2,2.1c0.4,0.2,0.6,0.7,0.4,1.2c-0.2,0.5-0.8,0.6-1.2,0.4
		c-1-0.5-2-1.1-2.9-1.8L11.1,40.2c-1,1-2.3,1.5-3.6,1.5c-1.3,0-2.7-0.5-3.7-1.5C1.8,38.1,1.8,34.8,3.9,32.8z"/>
	<path class="st0" d="M35.9,18.1c-0.1,0.1-0.2,0.1-0.4,0.1c-0.3,0-0.7-0.2-0.8-0.5c-0.7-1.6-1.9-3.3-3.3-4.7
		c-1.4-1.5-3.1-2.6-4.7-3.4c-0.5-0.2-0.6-0.7-0.4-1.2C26.5,7.9,27,7.7,27.5,8c1.8,0.9,3.7,2.2,5.3,3.8c1.6,1.6,2.8,3.4,3.6,5.2
		C36.6,17.4,36.4,17.9,35.9,18.1z"/>
	<path class="st0" d="M39.7,23.4c1-1,1-2.6,0-3.6l-0.5-0.5c-1-1-2.6-1-3.6,0l-5.3,5.3c-1,1-1,2.6,0,3.6l0.5,0.5
		c0.5,0.5,1.2,0.7,1.8,0.7s1.3-0.2,1.8-0.7L39.7,23.4z M38.4,22.2l-5.3,5.3c-0.3,0.3-0.8,0.3-1.1,0L31.5,27c-0.3-0.3-0.3-0.8,0-1.1
		l5.3-5.3c0.1-0.1,0.3-0.2,0.5-0.2s0.4,0.1,0.5,0.2l0.5,0.5C38.7,21.4,38.7,21.9,38.4,22.2z"/>
	<path class="st0" d="M25,8.8c1-1,1-2.6,0-3.6l-0.5-0.5c-1-1-2.6-1-3.6,0L15.5,10c-1,1-1,2.6,0,3.6c0,0,0,0,0,0l0.5,0.5
		c0.5,0.5,1.2,0.7,1.8,0.7s1.3-0.2,1.8-0.7L25,8.8z M23.7,7.5l-5.3,5.3c-0.3,0.3-0.8,0.3-1.1,0l-0.5-0.5c-0.3-0.3-0.3-0.8,0-1.1
		l5.3-5.3c0.1-0.1,0.3-0.2,0.5-0.2s0.4,0.1,0.5,0.2l0.5,0.5C24,6.7,24,7.2,23.7,7.5z"/>
	<path class="st0" d="M24.3,45.8c0,0.4,0.3,0.8,0.8,0.8h22.3c0.4,0,0.8-0.3,0.8-0.8c0-3.9-2.1-6.7-5.3-7.1v-0.8
		c0-2.1-1.7-3.8-3.8-3.8h-5.6c-2.1,0-3.8,1.7-3.8,3.8v0.8C26.4,39.1,24.3,41.9,24.3,45.8z M25.9,45c0.2-2.4,1.5-4.8,4.5-4.8h2.4
		c0.4,0,0.8-0.3,0.8-0.8s-0.3-0.8-0.8-0.8h-1.5v-0.7c0-1.1,0.9-2,2-2H39c1.1,0,2,0.9,2,2v0.7h-3.3c-0.4,0-0.8,0.3-0.8,0.8
		s0.3,0.8,0.8,0.8H42c3,0,4.3,2.4,4.5,4.8H25.9z"/>
	<path class="st0" d="M34.9,38.7c0.4,0,0.7,0.3,0.7,0.7s-0.3,0.7-0.7,0.7c-0.4,0-0.7-0.3-0.7-0.7S34.5,38.7,34.9,38.7z"/>
</g>
</svg>
