<?xml version="1.0" encoding="utf-8"?>
<!-- Generator: Adobe Illustrator 24.2.1, SVG Export Plug-In . SVG Version: 6.00 Build 0)  -->
<svg version="1.1" id="Layer_1" xmlns="http://www.w3.org/2000/svg" xmlns:xlink="http://www.w3.org/1999/xlink" x="0px" y="0px"
	 viewBox="0 0 50.5 50.5" style="enable-background:new 0 0 50.5 50.5;" xml:space="preserve">
<g>
	<path d="M35.887,26.028c-0.003-0.004-0.008-0.005-0.012-0.009v-1.991c0-2.036-1.656-3.692-3.692-3.692h-1.776l1.712-5.301h0.002
		c0.26,0,0.491-0.168,0.571-0.416l1.227-3.79c0.059-0.183,0.026-0.382-0.086-0.538c-0.013-0.018-0.034-0.026-0.049-0.042l2.027-3.99
		c0.095-0.186,0.085-0.408-0.023-0.585c-0.109-0.178-0.303-0.286-0.512-0.286h-3.156c-0.226,0-0.433,0.127-0.535,0.329l-2.197,4.328
		h-0.069c-0.26,0-0.491,0.168-0.571,0.416l-1.227,3.79c-0.059,0.183-0.026,0.382,0.086,0.538c0.037,0.05,0.089,0.082,0.138,0.118
		l-1.753,5.43h-8.88c-1.485,0-2.692,1.208-2.692,2.692v3.246c-1.899,2.296-2.95,5.147-2.95,8.075c0,2.978,1.083,5.893,3.048,8.207
		c1.489,1.752,3.788,2.757,6.308,2.757h8.838c2.595,0,5.063-1.157,6.603-3.097c1.812-2.282,2.77-5.003,2.77-7.867
		C39.033,31.318,37.916,28.362,35.887,26.028z M32.486,6.588h1.811l-1.756,3.457h-1.81L32.486,6.588z M29.753,11.244L29.753,11.244
		h2.769l-0.838,2.589c-0.001,0-0.001,0-0.002,0h-2.766L29.753,11.244z M28.963,15.034h1.895l-1.712,5.301H27.25L28.963,15.034z
		 M16.017,23.028c0-0.603,0.49-1.093,1.093-1.093h15.073c1.154,0,2.093,0.939,2.093,2.093v1.724H16.017V23.028z M35.01,41.222
		c-1.238,1.56-3.237,2.491-5.349,2.491h-8.838c-2.02,0-3.922-0.82-5.088-2.192c-1.745-2.056-2.668-4.536-2.668-7.172
		c0-2.528,0.893-4.999,2.522-6.997h19.322c1.629,1.998,2.522,4.469,2.522,6.997C37.434,36.849,36.596,39.225,35.01,41.222z"/>
	<path d="M19.048,38.78c-0.273-0.348-0.776-0.408-1.124-0.135s-0.407,0.776-0.134,1.123c0.203,0.258,0.424,0.52,0.666,0.781
		c0.158,0.171,0.373,0.258,0.588,0.258c0.194,0,0.388-0.069,0.542-0.211c0.325-0.3,0.346-0.806,0.046-1.131
		C19.42,39.236,19.226,39.007,19.048,38.78z"/>
	<path d="M17.696,36.409c-0.248-0.692-0.374-1.394-0.374-2.086c0-1.75,0.807-2.918,0.826-2.944c0.257-0.357,0.177-0.855-0.179-1.114
		c-0.357-0.261-0.857-0.182-1.118,0.176c-0.046,0.063-1.129,1.579-1.129,3.883c0,0.877,0.157,1.76,0.467,2.625
		c0.117,0.327,0.425,0.53,0.753,0.53c0.089,0,0.181-0.015,0.27-0.047C17.629,37.283,17.846,36.825,17.696,36.409z"/>
</g>
</svg>
