<svg id="Layer_1" data-name="Layer 1" xmlns="http://www.w3.org/2000/svg" viewBox="0 0 50.46 50.46"><defs><style>.cls-1{fill:#12b5e1;}</style></defs><title>medicamentos negativo</title><path class="cls-1" d="M30.86,7.82H19.66a2.52,2.52,0,0,0-2.52,2.52V14.6a1.29,1.29,0,0,0,1.29,1.29h2a5.77,5.77,0,0,1-1.58,3.32,13.84,13.84,0,0,1-1.59,1.4c-1.11.87-2.07,1.62-2.07,3.64v7.27l1.94-1.93V26.52h3.07L22,24.8H17.17v-.55c0-1.08.33-1.34,1.33-2.12a17.39,17.39,0,0,0,1.78-1.57,7.71,7.71,0,0,0,2.16-4.67h5.64a8.09,8.09,0,0,0,.57,2.21l1.54-1.54c-.05-.22-.1-.45-.13-.67h.81l2.52-2.52v-3A2.52,2.52,0,0,0,30.86,7.82ZM20.57,14.14H18.88v-3.8a.78.78,0,0,1,.78-.78h.91Zm2.8,0H21.54V9.56h1.83Zm2.81,0H24.34V9.56h1.84Zm2.81,0H27.15V9.56H29Zm2.65,0H30V9.56h.91a.78.78,0,0,1,.77.78Z"/><path class="cls-1" d="M33.41,20.76,32,22.13c1,.78,1.33,1,1.33,2.12V36.33H17.84L15.27,38.9a4.3,4.3,0,0,0,4.27,3.94H31a4.31,4.31,0,0,0,4.31-4.31V24.25A3.92,3.92,0,0,0,33.41,20.76Zm0,17.77A2.38,2.38,0,0,1,31,40.9H19.54a2.37,2.37,0,0,1-2.37-2.37v-.48H33.36Z"/><path class="cls-1" d="M30.23,26.52h.66a.86.86,0,0,0,0-1.72h-.66a.86.86,0,0,0,0,1.72Z"/><path class="cls-1" d="M25.23,2.65A22.58,22.58,0,1,0,47.81,25.23,22.61,22.61,0,0,0,25.23,2.65ZM5,25.23A20.18,20.18,0,0,1,38.64,10.14L10.15,38.65A20.1,20.1,0,0,1,5,25.23ZM25.23,45.45a20.06,20.06,0,0,1-13.41-5.14l28.49-28.5A20.18,20.18,0,0,1,25.23,45.45Z"/></svg>