<svg id="Layer_1" data-name="Layer 1" xmlns="http://www.w3.org/2000/svg" viewBox="0 0 50.46 50.46"><defs><style>.cls-1{fill:#65b4e1;}</style></defs><title>medicina 2</title><path class="cls-1" d="M43.08,25.64l0-1.4a3.58,3.58,0,0,0-3.64-3.52l-3.92.06L38.22,18a3.58,3.58,0,0,0-.08-5.06l-1-1a3.58,3.58,0,0,0-5.06.08l-2.73,2.82-.06-3.92a3.58,3.58,0,0,0-3.64-3.52l-1.4,0A3.58,3.58,0,0,0,20.72,11L20.78,15,18,12.24a3.58,3.58,0,0,0-5.06.08l-1,1A3.58,3.58,0,0,0,12,18.39l2.82,2.73-3.92.06a3.58,3.58,0,0,0-3.52,3.64l0,1.4A3.58,3.58,0,0,0,11,29.75L15,29.68,12.24,32.5a3.58,3.58,0,0,0,.08,5.06l1,1a3.58,3.58,0,0,0,5.06-.08l2.73-2.82.06,3.92a3.58,3.58,0,0,0,3.64,3.52l1.4,0a3.58,3.58,0,0,0,3.52-3.64l-.06-3.92,2.82,2.73a3.58,3.58,0,0,0,5.06-.08l1-1a3.58,3.58,0,0,0-.08-5.06l-2.82-2.73,3.92-.06A3.58,3.58,0,0,0,43.08,25.64ZM31.9,22.36a1.77,1.77,0,0,1-2,.27,1.46,1.46,0,0,1-1.66.08,1.44,1.44,0,0,1-1.57.11,1.58,1.58,0,0,1-.87.28l0,2.91h.06c.18,0,.86-.21,1.68-.45a6.29,6.29,0,0,0,2-.85l-.06,0a1.57,1.57,0,0,0-.39-.11,8,8,0,0,0-1.23-.1,7,7,0,0,0-1.07,0c-.24,0-.67-.08-.67-.45a.5.5,0,0,1,.53-.5h.67c.83,0,3.35-.2,3.68,1.12a.55.55,0,0,0,0,.1c-.09,1.16-2.48,1.7-4.21,2.07a2.37,2.37,0,0,1,1.05,1.59c.07.72-.49,1.42-1.81,2.21,1,.7,1.7,1.37,1.66,2.18A3.08,3.08,0,0,1,26,34.94h0A6,6,0,0,0,26.81,33a1.88,1.88,0,0,0-.87-1.45L26,34a.58.58,0,1,1-1.17,0s0,0,0,0l0-2.48-.18.15c-.69.6-.85,1.09-.8,1.43A6,6,0,0,0,24.68,35h0a3.07,3.07,0,0,1-1.86-2.08c-.07-.81.59-1.5,1.59-2.24-1.35-.74-1.94-1.42-1.89-2.15a2.35,2.35,0,0,1,1-1.63c-1.74-.31-4.15-.78-4.27-1.93a.5.5,0,0,0,0-.1c.29-1.33,2.82-1.17,3.65-1.25a2.67,2.67,0,0,1,.71,0c.23,0,.53.07.52.48s-.56.43-.66.44a10.42,10.42,0,0,0-2.3.15,1.53,1.53,0,0,0-.38.13l-.06,0a6.27,6.27,0,0,0,2,.79c.94.24,1.38.33,1.83.42h.08l0-3a1.4,1.4,0,0,1-.92-.24,1.44,1.44,0,0,1-1.57-.05,1.47,1.47,0,0,1-1.67,0,1.76,1.76,0,0,1-2-.2,1.75,1.75,0,0,1-2-.89c2.65.19,4.77-2.43,5.32-2.89s.92-.36,1.48.61a1.33,1.33,0,0,0,1.28.68v0a1.32,1.32,0,1,1,1.17,0v0A1.32,1.32,0,0,0,27,19.34c.53-1,.91-1.1,1.46-.66s2.77,3,5.41,2.72A1.75,1.75,0,0,1,31.9,22.36Z"/><path class="cls-1" d="M23.67,28.57a1.06,1.06,0,0,0,.46.8,5.68,5.68,0,0,0,.61.37l0-2.35C23.58,27.85,23.66,28.31,23.67,28.57Z"/><path class="cls-1" d="M26.35,29.33a1.06,1.06,0,0,0,.44-.77c0-.24.05-.71-.92-1.13l0,2.22A3.06,3.06,0,0,0,26.35,29.33Z"/></svg>