<svg id="Layer_1" data-name="Layer 1" xmlns="http://www.w3.org/2000/svg" viewBox="0 0 50.46 50.46"><defs><style>.cls-1{fill:#65b4e1;}</style></defs><title>medicamentos</title><path class="cls-1" d="M10.36,31l-1-8,12.83-1.67.28,2.19,1.66-1.95L22.65,10.5a8,8,0,0,0-9-6.9L13,3.7a8,8,0,0,0-6.9,9L8.48,31.27A8,8,0,0,0,13,37.46l.15.07,0-.17a10.68,10.68,0,0,1,.32-1.68l0-.09-.08,0A6.06,6.06,0,0,1,10.36,31ZM9.07,21.15,7.93,12.42A6.11,6.11,0,0,1,13.2,5.58l.73-.09a6.22,6.22,0,0,1,.8-.05,6.11,6.11,0,0,1,6,5.32l1.14,8.73Z"/><path class="cls-1" d="M12.3,7.77a.94.94,0,0,0-.72.12c-1.77,1.12-2.44,3-2,5.46l0,.1a1,1,0,0,0,.88.9h.19a1,1,0,0,0,.82-.88,1.76,1.76,0,0,0,0-.46c-.2-1.08-.3-2.62,1.12-3.52a.95.95,0,0,0-.29-1.73Z"/><path class="cls-1" d="M41.66,18.54l-.56-.47A8,8,0,0,0,29.82,19L17.66,33.26a8,8,0,0,0,.91,11.28l.56.47a8,8,0,0,0,11.28-.91L42.57,29.83A8,8,0,0,0,41.66,18.54Zm-7.47,18.2L29,42.88a6.12,6.12,0,0,1-8.61.69l-.56-.47a6.11,6.11,0,0,1-.69-8.61l5.23-6.14Zm6.94-8.15-5.71,6.7-9.86-8.39,5.7-6.7a6.12,6.12,0,0,1,8.61-.69l.56.47A6.11,6.11,0,0,1,41.13,28.6Z"/><path class="cls-1" d="M37.08,19.87c-2-.56-3.83.18-5.38,2.2l-.07.09a1,1,0,0,0-.07,1.25l.13.14a1,1,0,0,0,1.2,0,1.76,1.76,0,0,0,.31-.35,3.13,3.13,0,0,1,3.36-1.53A1,1,0,0,0,37.74,21a.95.95,0,0,0-.66-1.17Z"/></svg>