<svg id="Layer_1" data-name="Layer 1" xmlns="http://www.w3.org/2000/svg" viewBox="0 0 50.46 50.46"><defs><style>.cls-1{fill:#12b5e1;}</style></defs><title>medicamentos 02</title><path class="cls-1" d="M35.8,18.68A18,18,0,0,1,33.89,17,7,7,0,0,1,32,13h2.46A1.56,1.56,0,0,0,36,11.45V6.32a3,3,0,0,0-3-3H19.47a3,3,0,0,0-3,3v5.13A1.56,1.56,0,0,0,18,13h2.45a7,7,0,0,1-1.9,4,17,17,0,0,1-1.91,1.67c-1.33,1.05-2.49,2-2.49,4.38v17.2a5.19,5.19,0,0,0,5.19,5.19H33.11a5.18,5.18,0,0,0,5.18-5.19V23.06C38.29,20.64,37.14,19.73,35.8,18.68ZM31.87,5.38H33a.94.94,0,0,1,.94.94V10.9h-2Zm-3.38,0H30.7V10.9H28.49Zm-3.38,0h2.21V10.9H25.11Zm-3.38,0h2.21V10.9H21.73Zm-3.19.94a.94.94,0,0,1,.93-.94h1.09V10.9h-2ZM36,40.26a2.86,2.86,0,0,1-2.85,2.86H19.33a2.86,2.86,0,0,1-2.86-2.86v-.58H36Zm0-2.65H16.47V25.8H29.12a1,1,0,0,0,0-2.07H16.47v-.67c0-1.29.4-1.61,1.6-2.55a21.15,21.15,0,0,0,2.15-1.88A9.4,9.4,0,0,0,22.82,13h6.79a9.36,9.36,0,0,0,2.61,5.63,20.16,20.16,0,0,0,2.14,1.88c1.2.94,1.6,1.26,1.6,2.55Z"/><path class="cls-1" d="M33,23.73h-.81a1,1,0,0,0,0,2.07H33a1,1,0,0,0,0-2.07Z"/></svg>