<?xml version="1.0" encoding="utf-8"?>
<!-- Generator: Adobe Illustrator 24.0.1, SVG Export Plug-In . SVG Version: 6.00 Build 0)  -->
<!DOCTYPE svg PUBLIC "-//W3C//DTD SVG 1.1//EN" "http://www.w3.org/Graphics/SVG/1.1/DTD/svg11.dtd" [
	<!ENTITY ns_extend "http://ns.adobe.com/Extensibility/1.0/">
	<!ENTITY ns_ai "http://ns.adobe.com/AdobeIllustrator/10.0/">
	<!ENTITY ns_graphs "http://ns.adobe.com/Graphs/1.0/">
	<!ENTITY ns_vars "http://ns.adobe.com/Variables/1.0/">
	<!ENTITY ns_imrep "http://ns.adobe.com/ImageReplacement/1.0/">
	<!ENTITY ns_sfw "http://ns.adobe.com/SaveForWeb/1.0/">
	<!ENTITY ns_custom "http://ns.adobe.com/GenericCustomNamespace/1.0/">
	<!ENTITY ns_adobe_xpath "http://ns.adobe.com/XPath/1.0/">
]>
<svg version="1.1" id="Capa_1" xmlns:x="&ns_extend;" xmlns:i="&ns_ai;" xmlns:graph="&ns_graphs;"
	 xmlns="http://www.w3.org/2000/svg" xmlns:xlink="http://www.w3.org/1999/xlink" x="0px" y="0px" viewBox="0 0 50.46 50.46"
	 enable-background="new 0 0 50.46 50.46" xml:space="preserve">
<metadata>
	<sfw  xmlns="&ns_sfw;">
		<slices></slices>
		<sliceSourceBounds  bottomLeftOrigin="true" height="40.319" width="40.319" x="5.07" y="-45.389"></sliceSourceBounds>
	</sfw>
</metadata>
<g>
	<path d="M42.605,16.897h-8.986V7.911c0-1.569-1.272-2.841-2.841-2.841H19.776c-1.569,0-2.841,1.272-2.841,2.841v8.986H7.911
		c-1.569,0-2.841,1.272-2.841,2.841v10.984c0,1.569,1.272,2.841,2.841,2.841h8.986v8.986c0,1.569,1.272,2.841,2.841,2.841h10.984
		c1.569,0,2.841-1.272,2.841-2.841V33.62h8.986c1.569,0,2.841-1.272,2.841-2.841V19.776C45.41,18.214,44.167,16.928,42.605,16.897z
		 M43.855,30.722c0,0.69-0.56,1.25-1.25,1.25h-9.374c-0.69,0-1.25,0.56-1.25,1.25v9.374c0.005,0.69-0.55,1.254-1.24,1.259
		c-0.006,0-0.013,0-0.019,0H19.776c-0.69,0-1.25-0.56-1.25-1.25v-9.374c0-0.69-0.56-1.25-1.25-1.25H7.911
		c-0.69,0-1.25-0.56-1.25-1.25c0-0.003,0-0.006,0-0.01V19.776c0-0.69,0.56-1.25,1.25-1.25h9.374c0.69,0,1.25-0.56,1.25-1.25V7.911
		c0-0.69,0.56-1.25,1.25-1.25h10.937c0.69,0,1.25,0.56,1.25,1.25v9.374c0,0.69,0.56,1.25,1.25,1.25h9.374
		c0.69,0,1.25,0.56,1.25,1.25L43.855,30.722z"/>
	<path d="M21.807,25.507c0.001-1.204,0.635-2.318,1.669-2.934l-2.353-4.066c-2.538,1.453-4.106,4.152-4.111,7.077h4.801
		C21.813,25.584,21.807,25.532,21.807,25.507z"/>
	<path d="M29.299,18.513l-2.314,4.047c1.054,0.61,1.705,1.735,1.707,2.953c0,0,0,0.051,0,0.077h4.756
		C33.435,22.657,31.852,19.957,29.299,18.513z"/>
	<path d="M25.24,28.94c-0.603-0.003-1.194-0.166-1.713-0.473l-2.423,4.181c2.514,1.502,5.65,1.502,8.164,0l-2.391-4.143
		C26.376,28.786,25.813,28.935,25.24,28.94z"/>
	<circle cx="25.24" cy="25.507" r="1.963"/>
</g>
</svg>
