<svg id="Layer_1" data-name="Layer 1" xmlns="http://www.w3.org/2000/svg" viewBox="0 0 50.46 50.46"><defs><style>.cls-1{fill:#12b5e1;}</style></defs><title>medula osea</title><path class="cls-1" d="M28.93,23.29a3.79,3.79,0,0,0-7.27,0c-.8,2.65,2.2,5.09,2.56,9.45.09,1.12.14,9.47.16,13.13H26.2c0-3.66.07-12,.17-13.13C26.73,28.38,29.72,25.94,28.93,23.29Z"/><circle class="cls-1" cx="17.56" cy="13.27" r="2.46"/><circle class="cls-1" cx="17.16" cy="18.17" r="1.01"/><circle class="cls-1" cx="22.09" cy="14.6" r="1.13"/><circle class="cls-1" cx="30.4" cy="17.79" r="1.29"/><circle class="cls-1" cx="21.53" cy="18.28" r="1.35"/><path class="cls-1" d="M20.14,21.67a.79.79,0,1,0-.49,1A.78.78,0,0,0,20.14,21.67Z"/><path class="cls-1" d="M34.78,17.92a.78.78,0,0,0-1-.49.78.78,0,1,0,.51,1.48A.78.78,0,0,0,34.78,17.92Z"/><circle class="cls-1" cx="32.95" cy="13.27" r="2.33"/><circle class="cls-1" cx="31.22" cy="21.7" r="1.01"/><circle class="cls-1" cx="25.73" cy="18.68" r="0.9"/><circle class="cls-1" cx="26.63" cy="14.76" r="1.67"/><path class="cls-1" d="M38.13,6.44a6.41,6.41,0,0,0-4.44-1.85c-3.16,0-6.08,2.32-8.46,2.51-2.38-.19-5.3-2.51-8.46-2.51a6.41,6.41,0,0,0-4.44,1.85C7,11.21,9.26,19.51,11.9,23.6c2.37,3.67,6.65,6.43,6.9,22.27h3.46c0-5.51-.19-10.08-1.09-13.61-1.39-5.42-2.9-8-4.36-10-.37-.48-.66-.9-.93-1.27-1.82-2.48-3-5.8-2.2-8.88a3.88,3.88,0,0,1,1.83-2.56,3.77,3.77,0,0,1,2.65-.2,21.42,21.42,0,0,1,3.39,1.52,10.1,10.1,0,0,0,3.58.94h.2a10.1,10.1,0,0,0,3.58-.94A21.42,21.42,0,0,1,32.3,9.39a3.77,3.77,0,0,1,2.65.2,3.88,3.88,0,0,1,1.83,2.56c.77,3.08-.38,6.4-2.2,8.88-.27.37-.56.79-.93,1.27-1.46,1.91-3,4.54-4.36,10-.9,3.53-1.06,8.1-1.09,13.61h3.46c.25-15.84,4.53-18.6,6.9-22.27C41.2,19.51,43.42,11.21,38.13,6.44Z"/></svg>