<?xml version="1.0" encoding="utf-8"?>
<!-- Generator: Adobe Illustrator 25.4.1, SVG Export Plug-In . SVG Version: 6.00 Build 0)  -->
<svg version="1.1" id="stroke_1_x2C_6" xmlns="http://www.w3.org/2000/svg" xmlns:xlink="http://www.w3.org/1999/xlink" x="0px"
	 y="0px" viewBox="0 0 50.46 50.46" enable-background="new 0 0 50.46 50.46" xml:space="preserve">
<g>
	<path d="M26.733,27.49c1.214-0.776,1.946-1.897,2.031-3.151c0.083-1.216-0.484-2.387-1.479-3.056
		c-1.021-0.685-2.353-0.777-3.73-0.276l-3.422-6.979c-0.109-0.223-0.331-0.367-0.579-0.376c-0.25-0.014-0.48,0.118-0.606,0.331
		c-3.241,5.495-5.801,9.835-10.36,11.814c-2.918,0.958-5.086,2.681-5.949,4.728C2.016,32,2.093,33.608,2.861,35.175
		c0.768,1.566,1.993,2.612,3.541,3.024c0.508,0.135,1.047,0.201,1.606,0.201c0.985,0,2.035-0.213,3.095-0.61l2.677,5.46
		c0.5,1.039,1.157,1.696,1.951,1.953c0.251,0.081,0.514,0.122,0.787,0.122c0.565,0,1.173-0.174,1.807-0.518l1.519-0.744
		c0.16-0.078,0.283-0.218,0.341-0.387c0.058-0.169,0.046-0.354-0.033-0.515l-3.83-7.812c3.771-1.102,8.022-0.563,13.143,0.086
		c0.245,0.033,0.489-0.075,0.633-0.276s0.166-0.466,0.057-0.688L26.733,27.49z M26.533,22.401c0.606,0.407,0.938,1.098,0.887,1.847
		c-0.052,0.773-0.516,1.483-1.287,2.019l-0.989-2.017l-0.986-2.012C25.072,21.938,25.902,21.978,26.533,22.401z M6.749,36.898
		c-1.178-0.313-2.079-1.093-2.679-2.316c-0.6-1.223-0.664-2.413-0.19-3.535c0.701-1.663,2.618-3.147,5.186-3.993
		c0.033-0.014,0.06-0.034,0.093-0.048l4.018,8.196c-0.049,0.026-0.099,0.048-0.148,0.075C10.84,36.755,8.493,37.362,6.749,36.898z
		 M18.647,43.151l-0.938,0.46c-0.626,0.339-1.153,0.443-1.563,0.312c-0.43-0.14-0.817-0.562-1.154-1.261l-2.654-5.413
		c0.468-0.24,0.934-0.514,1.393-0.825c0.432-0.238,0.871-0.438,1.315-0.619L18.647,43.151z M14.084,34.757l-4.028-8.215
		c3.218-1.717,5.506-4.551,7.671-7.953l7.346,14.985C21.069,33.204,17.433,33.262,14.084,34.757z M26.256,33.692l-7.895-16.105
		c0.37-0.602,0.738-1.218,1.111-1.846l4.462,9.102l1.308,2.669c0,0.001,0,0.002,0.001,0.003c0,0.001,0.001,0.001,0.001,0.001
		l3.152,6.429C27.672,33.855,26.959,33.769,26.256,33.692z"/>
	<path d="M47.972,11.77c-0.568-2.162-1.886-3.787-3.744-4.976c-2.272-1.454-4.766-1.916-7.421-1.528
		c-2.084,0.305-3.922,1.153-5.466,2.595c-1.247,1.165-2.094,2.571-2.455,4.25c-0.077,0.357-0.116,0.723-0.172,1.084
		c0,0.292,0,0.584,0,0.877c0.011,0.074,0.021,0.149,0.032,0.223c0.048,0.326,0.079,0.656,0.147,0.977
		c0.286,1.358,0.914,2.545,1.811,3.599c0.065,0.076,0.105,0.205,0.099,0.305c-0.047,0.707-0.306,1.331-0.785,1.856
		c-0.242,0.265-0.498,0.518-0.759,0.788c0.327,0.108,0.653,0.23,0.988,0.324c0.446,0.125,0.903,0.127,1.359,0.06
		c0.761-0.113,1.449-0.412,2.081-0.841c0.135-0.092,0.242-0.104,0.395-0.037c2.284,0.995,4.644,1.194,7.055,0.591
		c2.458-0.615,4.471-1.915,5.854-4.073C48.191,15.97,48.54,13.931,47.972,11.77z M46.134,17.353c-0.916,1.408-2.18,2.409-3.71,3.081
		c-1.463,0.643-2.996,0.898-4.587,0.8c-1.373-0.084-2.674-0.439-3.896-1.072c-0.135-0.07-0.217-0.058-0.333,0.036
		c-0.578,0.469-1.216,0.828-1.951,0.988c-0.164,0.036-0.334,0.046-0.545,0.074c0.082-0.138,0.142-0.233,0.196-0.331
		c0.383-0.698,0.53-1.448,0.491-2.238c-0.004-0.071-0.058-0.15-0.109-0.207c-0.706-0.772-1.268-1.631-1.605-2.628
		c-0.645-1.906-0.471-3.743,0.521-5.487c0.893-1.571,2.225-2.669,3.864-3.399c1.819-0.81,3.721-1.035,5.678-0.703
		c1.96,0.333,3.681,1.168,5.075,2.609c1.095,1.132,1.788,2.475,1.97,4.051C47.375,14.526,47.009,16.007,46.134,17.353z"/>
	<path d="M33.352,11.461h8.67c0.331,0,0.6-0.269,0.6-0.6s-0.269-0.6-0.6-0.6h-8.67c-0.331,0-0.6,0.269-0.6,0.6
		S33.021,11.461,33.352,11.461z"/>
	<path d="M43.591,13.039H33.352c-0.331,0-0.6,0.269-0.6,0.6s0.269,0.6,0.6,0.6h10.238c0.331,0,0.6-0.269,0.6-0.6
		S43.922,13.039,43.591,13.039z"/>
	<path d="M40.206,15.828h-6.854c-0.331,0-0.6,0.269-0.6,0.6s0.269,0.6,0.6,0.6h6.854c0.331,0,0.6-0.269,0.6-0.6
		S40.537,15.828,40.206,15.828z"/>
</g>
</svg>
