<?xml version="1.0" encoding="utf-8"?>
<!-- Generator: Adobe Illustrator 24.0.1, SVG Export Plug-In . SVG Version: 6.00 Build 0)  -->
<!DOCTYPE svg PUBLIC "-//W3C//DTD SVG 1.1//EN" "http://www.w3.org/Graphics/SVG/1.1/DTD/svg11.dtd" [
	<!ENTITY ns_extend "http://ns.adobe.com/Extensibility/1.0/">
	<!ENTITY ns_ai "http://ns.adobe.com/AdobeIllustrator/10.0/">
	<!ENTITY ns_graphs "http://ns.adobe.com/Graphs/1.0/">
	<!ENTITY ns_vars "http://ns.adobe.com/Variables/1.0/">
	<!ENTITY ns_imrep "http://ns.adobe.com/ImageReplacement/1.0/">
	<!ENTITY ns_sfw "http://ns.adobe.com/SaveForWeb/1.0/">
	<!ENTITY ns_custom "http://ns.adobe.com/GenericCustomNamespace/1.0/">
	<!ENTITY ns_adobe_xpath "http://ns.adobe.com/XPath/1.0/">
]>
<svg version="1.1" id="Capa_4" xmlns:x="&ns_extend;" xmlns:i="&ns_ai;" xmlns:graph="&ns_graphs;"
	 xmlns="http://www.w3.org/2000/svg" xmlns:xlink="http://www.w3.org/1999/xlink" x="0px" y="0px" viewBox="0 0 50.46 50.46"
	 enable-background="new 0 0 50.46 50.46" xml:space="preserve">
<metadata>
	<sfw  xmlns="&ns_sfw;">
		<slices></slices>
		<sliceSourceBounds  bottomLeftOrigin="true" height="42.05" width="37.371" x="6.564" y="4.225"></sliceSourceBounds>
	</sfw>
</metadata>
<g>
	<path d="M42.414,13.215h-8.173c0-4.977-4.034-9.011-9.011-9.011c-4.977,0-9.011,4.034-9.011,9.011H8.046
		c-0.829,0-1.502,0.672-1.502,1.502L8.536,41.75c0,2.488,2.017,4.505,4.505,4.505h24.377c2.488,0,4.505-2.017,4.505-4.505
		l1.992-27.032C43.915,13.888,43.243,13.215,42.414,13.215z M25.23,6.44c3.733,0,6.759,3.026,6.759,6.759H18.47
		C18.47,9.466,21.497,6.44,25.23,6.44z M38.807,42.196c0,0.829-0.672,1.502-1.502,1.502H13.082c-0.829,0-1.502-0.672-1.502-1.502
		L9.078,15.763h32.188L38.807,42.196z"/>
	<path d="M29.024,30.328c0.644,0.621,1.407,0.894,2.151,0.762c0.057-0.01,0.116-0.023,0.175-0.04
		c0.236-0.065,0.479-0.097,0.723-0.097c0.243,0,0.486,0.032,0.722,0.097c0.06,0.016,0.119,0.03,0.176,0.04
		c0.746,0.13,1.507-0.141,2.151-0.762c0.635-0.612,1.08-1.493,1.254-2.482c0.174-0.989,0.057-1.97-0.33-2.761
		c-0.394-0.805-1.019-1.321-1.761-1.452c-0.499-0.088-1.122-0.051-1.755,0.105c-0.086,0.021-0.176,0.037-0.267,0.046l-0.085,0.009
		l-0.021-0.083c-0.029-0.114-0.082-0.296-0.174-0.515l-0.054-0.129l0.139-0.009c0.32-0.02,0.917-0.112,1.316-0.512
		c0.583-0.584,0.516-1.57,0.513-1.611c-0.005-0.062-0.055-0.112-0.117-0.117c-0.042-0.003-1.026-0.072-1.611,0.513
		c-0.238,0.238-0.397,0.571-0.472,0.989l-0.042,0.234l-0.137-0.194c-0.278-0.395-0.623-0.753-1.024-1.063
		c-0.055-0.043-0.135-0.033-0.178,0.023l-0.309,0.311c0,0,1.192,0.493,1.913,2.163l-0.157-0.026c-0.05-0.008-0.1-0.018-0.15-0.03
		c-0.632-0.156-1.255-0.193-1.755-0.105c-0.742,0.131-1.367,0.646-1.761,1.452c-0.387,0.792-0.504,1.773-0.33,2.761
		C27.944,28.835,28.389,29.716,29.024,30.328z"/>
	<path d="M23.095,40.827c0.402,0.003,0.746-0.283,0.816-0.678c0.459-2.6,2.184-12.647,2.164-13.016
		c-0.023-0.43-0.413-1.555-2.878-1.584c-2.074-0.005-2.532,1.054-2.633,1.549c-0.026,0.127-0.027,0.255-0.01,0.383l1.733,12.651
		C22.35,40.529,22.691,40.824,23.095,40.827z"/>
	<path d="M23.296,25.173c0.264,0.002,0.517,0.014,0.76,0.056c0.128-0.912,0.6-2.061,1.232-2.483l-0.231-0.357
		c-0.693,0.462-1.196,1.239-1.375,2.161c0.073-1.643,0.671-3.039,1.499-3.855l-0.604-0.613c-1.022,1.007-1.683,2.626-1.757,4.431
		c-0.088-0.498-0.124-1.046-0.13-1.604c0.005-0.73,0.091-1.44,0.248-2.078l-0.405-0.104c-0.167,0.668-0.254,1.398-0.259,2.169
		c-0.005,0.67,0.061,1.731,0.179,2.341C22.717,25.199,23.022,25.181,23.296,25.173z"/>
	<path d="M29.149,40.081c0.708,0,1.363-0.325,1.843-0.915c0.501-0.615,0.765-1.449,0.765-2.41c0-0.967-0.275-1.962-0.755-2.729
		c-0.241-0.385-0.518-0.691-0.824-0.908c-0.33-0.235-0.677-0.354-1.03-0.354c-0.353,0-0.699,0.119-1.029,0.354
		c-0.306,0.217-0.583,0.523-0.824,0.908c-0.48,0.767-0.755,1.762-0.755,2.729c0,0.961,0.265,1.795,0.765,2.41
		C27.786,39.756,28.441,40.081,29.149,40.081z"/>
	<path d="M35.879,33.118c-0.33-0.235-0.677-0.354-1.03-0.354s-0.699,0.119-1.03,0.354c-0.305,0.217-0.583,0.523-0.824,0.908
		c-0.48,0.767-0.755,1.762-0.755,2.729c0,0.961,0.265,1.795,0.765,2.41c0.48,0.59,1.135,0.915,1.843,0.915s1.363-0.325,1.843-0.915
		c0.501-0.615,0.765-1.449,0.765-2.41c0-0.967-0.275-1.962-0.755-2.729C36.461,33.641,36.184,33.336,35.879,33.118z"/>
	<path d="M15.269,21.535h1.919c0.103,0,0.187-0.084,0.187-0.187s-0.084-0.187-0.187-0.187h-1.919c-0.103,0-0.187,0.084-0.187,0.187
		S15.165,21.535,15.269,21.535z"/>
	<path d="M15.118,40.74c0.017-0.008,0.035-0.012,0.053-0.018c0.138-0.029,0.326-0.033,0.527,0.064
		c0.155,0.073,0.271,0.142,0.389,0.176c0.059,0.021,0.132,0.032,0.216,0.015c0.131-0.016,0.29-0.085,0.51-0.229
		c0.174-0.056,0.368-0.082,0.525-0.008c0.875,0.485,1.315,0.095,1.535-0.358c0.189-0.388,0.197-0.84,0.066-1.251l-0.014-0.043
		c-0.553-1.739-0.647-3.583-0.341-5.382c0.312-1.834,0.314-3.765,0.259-5.087c-0.04-0.946-0.251-1.875-0.605-2.753
		c-0.855-2.126-0.954-3.555-0.959-4.042c-0.001-0.104-0.086-0.185-0.19-0.185h-1.725c-0.104,0-0.189,0.08-0.19,0.185
		c-0.005,0.487-0.104,1.916-0.959,4.042c-0.353,0.879-0.565,1.807-0.605,2.753c-0.055,1.323-0.052,3.256,0.26,5.092
		c0.306,1.798,0.212,3.64-0.342,5.377l-0.011,0.035c-0.145,0.456-0.119,0.963,0.126,1.375C13.882,40.896,14.319,41.183,15.118,40.74
		z"/>
	<path d="M15.416,21.057h1.624c0.148,0,0.269-0.12,0.269-0.269V20.52c0-0.148-0.12-0.269-0.269-0.269h-1.624
		c-0.148,0-0.269,0.12-0.269,0.269v0.269C15.148,20.937,15.268,21.057,15.416,21.057z"/>
</g>
</svg>
