<?xml version="1.0" encoding="utf-8"?>
<!-- Generator: Adobe Illustrator 24.0.1, SVG Export Plug-In . SVG Version: 6.00 Build 0)  -->
<!DOCTYPE svg PUBLIC "-//W3C//DTD SVG 1.1//EN" "http://www.w3.org/Graphics/SVG/1.1/DTD/svg11.dtd" [
	<!ENTITY ns_extend "http://ns.adobe.com/Extensibility/1.0/">
	<!ENTITY ns_ai "http://ns.adobe.com/AdobeIllustrator/10.0/">
	<!ENTITY ns_graphs "http://ns.adobe.com/Graphs/1.0/">
	<!ENTITY ns_vars "http://ns.adobe.com/Variables/1.0/">
	<!ENTITY ns_imrep "http://ns.adobe.com/ImageReplacement/1.0/">
	<!ENTITY ns_sfw "http://ns.adobe.com/SaveForWeb/1.0/">
	<!ENTITY ns_custom "http://ns.adobe.com/GenericCustomNamespace/1.0/">
	<!ENTITY ns_adobe_xpath "http://ns.adobe.com/XPath/1.0/">
]>
<svg version="1.1" id="stroke_1_x2C_6" xmlns:x="&ns_extend;" xmlns:i="&ns_ai;" xmlns:graph="&ns_graphs;"
	 xmlns="http://www.w3.org/2000/svg" xmlns:xlink="http://www.w3.org/1999/xlink" x="0px" y="0px" viewBox="0 0 50.46 50.46"
	 enable-background="new 0 0 50.46 50.46" xml:space="preserve">
<metadata>
	<sfw  xmlns="&ns_sfw;">
		<slices></slices>
		<sliceSourceBounds  bottomLeftOrigin="true" height="42.05" width="42.029" x="4.236" y="4.225"></sliceSourceBounds>
	</sfw>
</metadata>
<g>
	<g>
		<path d="M44.846,24.283c-0.389,0-0.778,0.153-1.055,0.481c-0.246,0.276-0.379,0.635-0.348,1.003
			c0.02,0.379,0.185,0.717,0.472,0.973c0.276,0.246,0.645,0.369,1.014,0.348c0.379-0.02,0.707-0.194,0.963-0.471
			c0.245-0.287,0.379-0.635,0.348-1.013c-0.02-0.379-0.185-0.717-0.472-0.962c-0.256-0.236-0.594-0.348-0.922-0.348V24.283z"/>
	</g>
	<g>
		<path d="M24.789,4.205c-0.389,0-0.778,0.164-1.055,0.481c-0.246,0.277-0.379,0.635-0.348,1.013
			c0.02,0.369,0.184,0.707,0.471,0.962c0.277,0.246,0.645,0.379,1.014,0.348c0.369-0.02,0.707-0.184,0.963-0.471
			c0.246-0.276,0.379-0.635,0.348-1.013c-0.02-0.369-0.184-0.707-0.471-0.962c-0.256-0.236-0.594-0.348-0.922-0.348V4.205z"/>
	</g>
	<g>
		<path d="M24.789,16.542c-4.415,0-8.103,3.133-8.943,7.301h8.943v3.645h-8.943c0.84,4.167,4.518,7.3,8.943,7.3
			c5.03,0,9.117-4.085,9.117-9.122c0-5.027-4.087-9.113-9.117-9.113V16.542z"/>
	</g>
	<g>
		<path d="M10.642,38.371c-0.379,0-0.778,0.164-1.045,0.481c-0.246,0.287-0.379,0.635-0.348,1.014
			c0.02,0.378,0.185,0.716,0.471,0.962c0.277,0.245,0.645,0.379,1.015,0.348c0.369-0.02,0.707-0.184,0.962-0.471
			c0.246-0.276,0.38-0.635,0.348-1.013c-0.02-0.369-0.184-0.706-0.471-0.962c-0.266-0.236-0.604-0.348-0.932-0.348V38.371z"/>
	</g>
	<g>
		<path d="M12.096,23.849l-1.057-0.15c0.86-6.07,5.7-10.915,11.769-11.782l0.151,1.057C17.357,13.775,12.89,18.246,12.096,23.849z"
			/>
	</g>
	<g>
		<path d="M22.841,39.418c-6.08-0.853-10.932-5.694-11.8-11.772l1.057-0.151c0.801,5.61,5.28,10.078,10.891,10.866L22.841,39.418z"
			/>
	</g>
	<g>
		<path d="M26.737,39.418l-0.148-1.057c5.622-0.789,10.102-5.266,10.894-10.888l1.058,0.149
			C37.682,33.713,32.828,38.564,26.737,39.418z"/>
	</g>
	<g>
		<path d="M37.482,23.847c-0.795-5.607-5.267-10.078-10.873-10.875l0.15-1.057c6.075,0.863,10.919,5.707,11.781,11.782
			L37.482,23.847z"/>
	</g>
	<g>
		<path d="M8.61,38.396c-2.875-3.654-4.395-8.049-4.395-12.709c0-10.304,7.693-19.072,17.895-20.396l0.132,1.013
			C12.548,7.563,5.237,15.895,5.237,25.687c0,4.428,1.444,8.604,4.177,12.076L8.61,38.396z"/>
	</g>
	<g>
		<path d="M24.784,46.255c-4.667,0-9.066-1.523-12.722-4.405l0.632-0.802c3.474,2.738,7.654,4.185,12.089,4.185
			c9.894,0,18.238-7.397,19.408-17.206l1.015,0.121C43.976,38.47,35.196,46.255,24.784,46.255z"/>
	</g>
	<g>
		<path d="M44.153,23.045c-1.178-8.724-8.099-15.608-16.83-16.741l0.132-1.013c9.188,1.192,16.471,8.436,17.712,17.617
			L44.153,23.045z"/>
	</g>
</g>
</svg>
