<?xml version="1.0" encoding="utf-8"?>
<!-- Generator: Adobe Illustrator 24.0.1, SVG Export Plug-In . SVG Version: 6.00 Build 0)  -->
<!DOCTYPE svg PUBLIC "-//W3C//DTD SVG 1.1//EN" "http://www.w3.org/Graphics/SVG/1.1/DTD/svg11.dtd" [
	<!ENTITY ns_extend "http://ns.adobe.com/Extensibility/1.0/">
	<!ENTITY ns_ai "http://ns.adobe.com/AdobeIllustrator/10.0/">
	<!ENTITY ns_graphs "http://ns.adobe.com/Graphs/1.0/">
	<!ENTITY ns_vars "http://ns.adobe.com/Variables/1.0/">
	<!ENTITY ns_imrep "http://ns.adobe.com/ImageReplacement/1.0/">
	<!ENTITY ns_sfw "http://ns.adobe.com/SaveForWeb/1.0/">
	<!ENTITY ns_custom "http://ns.adobe.com/GenericCustomNamespace/1.0/">
	<!ENTITY ns_adobe_xpath "http://ns.adobe.com/XPath/1.0/">
]>
<svg version="1.1" id="stroke_1_x2C_6" xmlns:x="&ns_extend;" xmlns:i="&ns_ai;" xmlns:graph="&ns_graphs;"
	 xmlns="http://www.w3.org/2000/svg" xmlns:xlink="http://www.w3.org/1999/xlink" x="0px" y="0px" viewBox="0 0 50.46 50.46"
	 enable-background="new 0 0 50.46 50.46" xml:space="preserve">
<metadata>
	<sfw  xmlns="&ns_sfw;">
		<slices></slices>
		<sliceSourceBounds  bottomLeftOrigin="true" height="40.793" width="40.813" x="4.489" y="4.396"></sliceSourceBounds>
	</sfw>
</metadata>
<g>
	<path d="M22.293,13.091c0.022,0.086,0.043,0.173,0.065,0.259c0.032,0.087,0.054,0.173,0.097,0.249
		c0.032,0.086,0.065,0.173,0.108,0.248c0.043,0.076,0.086,0.152,0.141,0.227c0.054,0.076,0.108,0.151,0.162,0.216
		c0.054,0.065,0.119,0.141,0.173,0.195c0.065,0.065,0.129,0.129,0.205,0.183c0.065,0.054,0.14,0.108,0.216,0.162
		c0.076,0.044,0.151,0.098,0.226,0.141c0.076,0.043,0.163,0.076,0.238,0.108c0.086,0.032,0.173,0.065,0.26,0.097
		c0.086,0.022,0.173,0.043,0.26,0.065c0.086,0.011,0.173,0.022,0.259,0.032c0.098,0.011,0.184,0.011,0.27,0.011
		c0.086,0,0.184,0,0.27-0.011c0.086-0.011,0.173-0.022,0.26-0.032c0.097-0.022,0.183-0.043,0.27-0.065
		c0.076-0.032,0.163-0.065,0.249-0.097c0.086-0.032,0.162-0.065,0.238-0.108c0.086-0.043,0.162-0.097,0.237-0.141
		c0.065-0.054,0.141-0.108,0.216-0.162c0.065-0.054,0.129-0.119,0.195-0.183c0.065-0.054,0.119-0.13,0.183-0.195
		c0.054-0.065,0.108-0.14,0.152-0.216c0.054-0.075,0.097-0.151,0.14-0.227c0.043-0.076,0.086-0.162,0.119-0.248
		c0.032-0.076,0.065-0.162,0.087-0.249c0.022-0.086,0.043-0.173,0.065-0.259c0.022-0.086,0.032-0.173,0.043-0.27
		c0.011-0.086,0.011-0.173,0.011-0.259c0-0.098,0-0.184-0.011-0.27c-0.011-0.086-0.022-0.183-0.043-0.27
		c-0.022-0.087-0.043-0.173-0.065-0.26c-0.022-0.086-0.055-0.162-0.087-0.249c-0.032-0.086-0.076-0.162-0.119-0.237
		c-0.043-0.086-0.086-0.162-0.14-0.238c-0.044-0.075-0.098-0.14-0.152-0.216c-0.065-0.065-0.119-0.129-0.183-0.194
		c-0.065-0.065-0.13-0.119-0.195-0.184c-0.076-0.054-0.151-0.108-0.216-0.151c-0.076-0.054-0.151-0.097-0.237-0.14
		c-0.076-0.044-0.152-0.087-0.238-0.119c-0.086-0.032-0.173-0.065-0.249-0.086c-0.086-0.032-0.173-0.054-0.27-0.065
		c-0.087-0.022-0.173-0.032-0.26-0.043c-0.086-0.011-0.184-0.011-0.27-0.011c-0.086,0-0.173,0-0.27,0.011
		c-0.086,0.011-0.173,0.022-0.259,0.043c-0.087,0.011-0.173,0.032-0.26,0.065c-0.086,0.022-0.173,0.054-0.26,0.086
		c-0.076,0.032-0.162,0.076-0.238,0.119c-0.076,0.043-0.151,0.086-0.226,0.14c-0.076,0.043-0.152,0.097-0.216,0.151
		c-0.076,0.065-0.14,0.119-0.205,0.184c-0.055,0.065-0.119,0.129-0.173,0.194c-0.054,0.076-0.108,0.14-0.162,0.216
		c-0.055,0.076-0.098,0.152-0.141,0.238c-0.043,0.076-0.076,0.151-0.108,0.237c-0.043,0.087-0.065,0.163-0.097,0.249
		c-0.022,0.086-0.044,0.173-0.065,0.26c-0.011,0.086-0.032,0.183-0.032,0.27c-0.011,0.086-0.022,0.173-0.022,0.27
		c0,0.086,0.011,0.173,0.022,0.259C22.26,12.917,22.282,13.004,22.293,13.091z"/>
	<path d="M27.654,38.283c-0.022-0.086-0.043-0.173-0.065-0.259c-0.022-0.087-0.055-0.173-0.087-0.249
		c-0.032-0.086-0.076-0.173-0.119-0.249c-0.043-0.076-0.086-0.151-0.14-0.227c-0.044-0.075-0.098-0.151-0.152-0.216
		c-0.065-0.065-0.119-0.141-0.183-0.195c-0.065-0.065-0.13-0.129-0.195-0.183c-0.076-0.054-0.151-0.108-0.216-0.162
		c-0.076-0.043-0.151-0.097-0.237-0.14c-0.076-0.043-0.152-0.076-0.238-0.108c-0.086-0.032-0.173-0.065-0.249-0.097
		c-0.086-0.022-0.173-0.043-0.27-0.065c-0.087-0.011-0.173-0.022-0.26-0.033c-0.086-0.011-0.184-0.011-0.27-0.011
		c-0.086,0-0.173,0-0.27,0.011c-0.086,0.011-0.173,0.022-0.259,0.033c-0.087,0.022-0.173,0.043-0.26,0.065
		c-0.086,0.032-0.173,0.065-0.26,0.097c-0.076,0.032-0.162,0.065-0.238,0.108c-0.076,0.043-0.151,0.097-0.226,0.14
		c-0.076,0.055-0.152,0.109-0.216,0.162c-0.076,0.054-0.14,0.119-0.205,0.183c-0.055,0.054-0.119,0.129-0.173,0.195
		c-0.054,0.065-0.108,0.14-0.162,0.216c-0.055,0.076-0.098,0.151-0.141,0.227c-0.043,0.076-0.076,0.162-0.108,0.249
		c-0.043,0.076-0.065,0.162-0.097,0.249c-0.022,0.086-0.044,0.173-0.065,0.259c-0.011,0.086-0.032,0.173-0.032,0.27
		c-0.011,0.086-0.022,0.173-0.022,0.259c0,0.097,0.011,0.184,0.022,0.27c0,0.086,0.022,0.183,0.032,0.27
		c0.022,0.087,0.043,0.173,0.065,0.26c0.032,0.086,0.054,0.162,0.097,0.248c0.032,0.087,0.065,0.162,0.108,0.238
		c0.043,0.086,0.086,0.162,0.141,0.237c0.054,0.076,0.108,0.141,0.162,0.216c0.054,0.065,0.119,0.129,0.173,0.194
		c0.065,0.065,0.129,0.119,0.205,0.184c0.065,0.054,0.14,0.108,0.216,0.151c0.076,0.054,0.151,0.097,0.226,0.14
		c0.076,0.043,0.163,0.086,0.238,0.119c0.086,0.032,0.173,0.065,0.26,0.086c0.086,0.032,0.173,0.054,0.26,0.065
		c0.086,0.022,0.173,0.032,0.259,0.043c0.098,0.011,0.184,0.011,0.27,0.011c0.086,0,0.184,0,0.27-0.011
		c0.086-0.011,0.173-0.022,0.26-0.043c0.097-0.011,0.183-0.032,0.27-0.065c0.076-0.022,0.163-0.054,0.249-0.086
		c0.086-0.033,0.162-0.076,0.238-0.119c0.086-0.043,0.162-0.086,0.237-0.14c0.065-0.043,0.141-0.097,0.216-0.151
		c0.065-0.065,0.129-0.119,0.195-0.184c0.065-0.065,0.119-0.129,0.183-0.194c0.054-0.076,0.108-0.14,0.152-0.216
		c0.054-0.076,0.097-0.151,0.14-0.237c0.043-0.076,0.086-0.151,0.119-0.238c0.032-0.086,0.065-0.162,0.087-0.248
		c0.022-0.086,0.043-0.173,0.065-0.26c0.022-0.086,0.032-0.183,0.043-0.27c0.011-0.086,0.011-0.173,0.011-0.27
		c0-0.086,0-0.173-0.011-0.259C27.687,38.456,27.676,38.37,27.654,38.283z"/>
	<path d="M12.371,28.366c0.086-0.022,0.173-0.043,0.26-0.065c0.086-0.032,0.173-0.054,0.26-0.086
		c0.076-0.043,0.162-0.075,0.237-0.119c0.076-0.044,0.152-0.087,0.227-0.141c0.076-0.043,0.151-0.097,0.216-0.162
		c0.076-0.054,0.141-0.108,0.206-0.173c0.054-0.065,0.119-0.13,0.173-0.206c0.054-0.065,0.108-0.14,0.162-0.216
		c0.054-0.065,0.097-0.152,0.14-0.227c0.044-0.076,0.076-0.162,0.109-0.237c0.043-0.087,0.065-0.173,0.097-0.26
		c0.022-0.086,0.043-0.173,0.065-0.259c0.011-0.087,0.032-0.173,0.032-0.26c0.011-0.086,0.022-0.183,0.022-0.27
		c0-0.086-0.011-0.183-0.022-0.27c0-0.086-0.022-0.173-0.032-0.26c-0.022-0.086-0.043-0.173-0.065-0.259
		c-0.032-0.086-0.054-0.173-0.097-0.26c-0.032-0.076-0.065-0.162-0.109-0.237c-0.043-0.076-0.086-0.163-0.14-0.227
		c-0.054-0.076-0.108-0.151-0.162-0.216c-0.055-0.076-0.119-0.141-0.173-0.206c-0.065-0.065-0.129-0.119-0.206-0.173
		c-0.065-0.065-0.14-0.119-0.216-0.162c-0.075-0.054-0.152-0.098-0.227-0.141c-0.076-0.043-0.162-0.076-0.237-0.119
		c-0.087-0.032-0.173-0.054-0.26-0.086c-0.086-0.022-0.173-0.043-0.26-0.065c-0.086-0.022-0.173-0.032-0.26-0.043
		c-0.097,0-0.183-0.011-0.27-0.011c-0.087,0-0.184,0.011-0.27,0.011c-0.087,0.011-0.173,0.022-0.26,0.043
		c-0.097,0.022-0.184,0.043-0.27,0.065c-0.076,0.032-0.162,0.054-0.248,0.086c-0.087,0.043-0.163,0.076-0.238,0.119
		c-0.086,0.043-0.162,0.087-0.238,0.141c-0.065,0.043-0.14,0.097-0.216,0.162c-0.065,0.054-0.13,0.108-0.195,0.173
		c-0.065,0.065-0.119,0.13-0.184,0.206c-0.054,0.065-0.108,0.14-0.151,0.216c-0.054,0.065-0.097,0.152-0.14,0.227
		c-0.044,0.076-0.087,0.162-0.119,0.237c-0.032,0.086-0.065,0.173-0.086,0.26c-0.022,0.086-0.043,0.173-0.065,0.259
		c-0.022,0.086-0.032,0.173-0.043,0.26c-0.011,0.086-0.011,0.183-0.011,0.27c0,0.087,0,0.184,0.011,0.27
		c0.011,0.086,0.022,0.173,0.043,0.26c0.022,0.086,0.043,0.173,0.065,0.259c0.022,0.086,0.054,0.173,0.086,0.26
		c0.032,0.076,0.076,0.162,0.119,0.237c0.043,0.076,0.086,0.162,0.14,0.227c0.043,0.076,0.097,0.151,0.151,0.216
		c0.065,0.076,0.119,0.14,0.184,0.206c0.065,0.065,0.129,0.119,0.195,0.173c0.076,0.065,0.151,0.119,0.216,0.162
		c0.076,0.054,0.152,0.097,0.238,0.141c0.076,0.043,0.151,0.076,0.238,0.119c0.086,0.032,0.173,0.054,0.248,0.086
		c0.086,0.022,0.173,0.043,0.27,0.065c0.086,0.022,0.173,0.032,0.26,0.043c0.086,0,0.183,0.011,0.27,0.011
		c0.086,0,0.173-0.011,0.27-0.011C12.198,28.399,12.284,28.388,12.371,28.366z"/>
	<path d="M37.911,35.194c-0.022-0.087-0.043-0.173-0.065-0.26c-0.032-0.086-0.054-0.173-0.086-0.249
		c-0.044-0.086-0.076-0.162-0.119-0.248c-0.043-0.075-0.086-0.151-0.14-0.227c-0.043-0.076-0.097-0.14-0.162-0.216
		c-0.054-0.065-0.108-0.129-0.173-0.194c-0.065-0.065-0.13-0.13-0.206-0.184c-0.065-0.054-0.14-0.108-0.216-0.162
		c-0.065-0.043-0.152-0.086-0.227-0.129c-0.076-0.044-0.162-0.087-0.238-0.119c-0.086-0.032-0.173-0.065-0.259-0.086
		c-0.087-0.032-0.173-0.054-0.26-0.065c-0.086-0.022-0.173-0.032-0.26-0.043c-0.086-0.011-0.183-0.011-0.27-0.011
		c-0.086,0-0.183,0-0.27,0.011c-0.087,0.011-0.173,0.022-0.26,0.043c-0.086,0.011-0.173,0.032-0.26,0.065
		c-0.086,0.022-0.173,0.054-0.26,0.086c-0.076,0.032-0.162,0.076-0.237,0.119c-0.038,0.021-0.073,0.043-0.112,0.064l-3.936-3.86
		v-7.684l3.936-3.86c0.039,0.021,0.074,0.043,0.112,0.064c0.076,0.043,0.162,0.086,0.237,0.119c0.087,0.032,0.173,0.065,0.26,0.086
		c0.086,0.032,0.173,0.054,0.26,0.065c0.086,0.022,0.173,0.032,0.26,0.043c0.086,0.011,0.183,0.011,0.27,0.011
		c0.087,0,0.184,0,0.27-0.011c0.086-0.011,0.173-0.022,0.26-0.043c0.086-0.011,0.173-0.032,0.26-0.065
		c0.086-0.022,0.173-0.054,0.259-0.086c0.076-0.033,0.162-0.076,0.238-0.119c0.075-0.043,0.162-0.086,0.227-0.129
		c0.076-0.054,0.151-0.108,0.216-0.162c0.076-0.054,0.141-0.119,0.206-0.184c0.065-0.065,0.119-0.129,0.173-0.194
		c0.065-0.076,0.119-0.14,0.162-0.216c0.054-0.076,0.097-0.151,0.14-0.227c0.043-0.086,0.076-0.162,0.119-0.249
		c0.032-0.076,0.054-0.162,0.086-0.248c0.022-0.086,0.043-0.173,0.065-0.26s0.032-0.183,0.043-0.27c0-0.086,0.011-0.173,0.011-0.27
		c0-0.086-0.011-0.173-0.011-0.259c-0.011-0.098-0.022-0.184-0.043-0.27c-0.022-0.086-0.043-0.173-0.065-0.26
		c-0.032-0.086-0.054-0.173-0.086-0.248c-0.044-0.086-0.076-0.162-0.119-0.249c-0.043-0.076-0.086-0.151-0.14-0.227
		c-0.043-0.076-0.097-0.151-0.162-0.216c-0.054-0.065-0.108-0.13-0.173-0.195c-0.065-0.065-0.13-0.129-0.206-0.183
		c-0.065-0.054-0.14-0.109-0.216-0.162c-0.065-0.043-0.152-0.097-0.227-0.14c-0.076-0.032-0.162-0.076-0.238-0.108
		c-0.086-0.032-0.173-0.065-0.259-0.086c-0.087-0.032-0.173-0.054-0.26-0.065c-0.086-0.022-0.173-0.033-0.26-0.044
		c-0.086-0.011-0.183-0.011-0.27-0.011c-0.086,0-0.183,0-0.27,0.011c-0.087,0.011-0.173,0.022-0.26,0.044
		c-0.086,0.011-0.173,0.032-0.26,0.065c-0.086,0.022-0.173,0.054-0.26,0.086c-0.076,0.032-0.162,0.076-0.237,0.108
		c-0.076,0.043-0.162,0.097-0.227,0.14c-0.076,0.054-0.151,0.109-0.216,0.162c-0.076,0.054-0.14,0.119-0.205,0.183
		c-0.065,0.065-0.119,0.129-0.173,0.195c-0.065,0.065-0.119,0.14-0.162,0.216c-0.054,0.076-0.097,0.151-0.141,0.227
		c-0.043,0.087-0.076,0.163-0.119,0.249c-0.032,0.076-0.065,0.162-0.086,0.248c-0.022,0.087-0.043,0.173-0.065,0.26
		c-0.022,0.086-0.032,0.173-0.043,0.27c0,0.086-0.011,0.173-0.011,0.259c0,0.097,0.011,0.184,0.011,0.27
		c0.011,0.086,0.022,0.183,0.043,0.27s0.043,0.173,0.065,0.26c0.022,0.086,0.054,0.173,0.086,0.248
		c0.043,0.087,0.076,0.162,0.119,0.249c0.011,0.019,0.025,0.039,0.036,0.058l-3.864,3.788h-8.021l-3.869-3.789
		c0.011-0.019,0.024-0.038,0.035-0.057c0.043-0.086,0.086-0.162,0.119-0.249c0.032-0.076,0.065-0.162,0.086-0.248
		c0.032-0.086,0.054-0.173,0.065-0.26c0.022-0.086,0.033-0.183,0.044-0.27c0.011-0.086,0.011-0.173,0.011-0.27
		c0-0.086,0-0.173-0.011-0.259c-0.011-0.098-0.022-0.184-0.044-0.27c-0.011-0.086-0.032-0.173-0.065-0.26
		c-0.022-0.086-0.054-0.173-0.086-0.248c-0.032-0.086-0.075-0.162-0.119-0.249c-0.043-0.076-0.087-0.151-0.141-0.227
		c-0.043-0.076-0.097-0.151-0.151-0.216c-0.065-0.065-0.119-0.13-0.184-0.195c-0.065-0.065-0.129-0.129-0.194-0.183
		c-0.076-0.054-0.141-0.109-0.216-0.162c-0.076-0.043-0.151-0.097-0.238-0.14c-0.076-0.032-0.151-0.076-0.237-0.108
		c-0.086-0.032-0.163-0.065-0.249-0.086c-0.086-0.032-0.173-0.054-0.26-0.065c-0.097-0.022-0.183-0.033-0.27-0.044
		c-0.087-0.011-0.173-0.011-0.27-0.011c-0.086,0-0.173,0-0.27,0.011c-0.086,0.011-0.173,0.022-0.26,0.044
		c-0.086,0.011-0.173,0.032-0.259,0.065c-0.087,0.022-0.173,0.054-0.249,0.086c-0.086,0.032-0.173,0.076-0.249,0.108
		c-0.076,0.043-0.151,0.097-0.227,0.14c-0.076,0.054-0.151,0.109-0.216,0.162c-0.065,0.054-0.141,0.119-0.195,0.183
		c-0.065,0.065-0.129,0.129-0.183,0.195c-0.054,0.065-0.109,0.14-0.163,0.216s-0.097,0.151-0.14,0.227
		c-0.043,0.087-0.076,0.163-0.108,0.249c-0.033,0.076-0.065,0.162-0.098,0.248c-0.022,0.087-0.043,0.173-0.065,0.26
		c-0.011,0.086-0.022,0.173-0.032,0.27c-0.011,0.086-0.022,0.173-0.022,0.259c0,0.097,0.011,0.184,0.022,0.27
		c0.011,0.086,0.022,0.183,0.032,0.27c0.022,0.086,0.043,0.173,0.065,0.26c0.032,0.086,0.065,0.173,0.098,0.248
		c0.032,0.087,0.065,0.162,0.108,0.249c0.043,0.076,0.086,0.151,0.14,0.227c0.054,0.076,0.109,0.141,0.163,0.216
		c0.054,0.065,0.119,0.129,0.183,0.194c0.054,0.065,0.13,0.13,0.195,0.184c0.065,0.054,0.14,0.108,0.216,0.162
		c0.076,0.043,0.152,0.086,0.227,0.129c0.075,0.043,0.162,0.086,0.249,0.119c0.076,0.032,0.162,0.065,0.249,0.086
		c0.086,0.032,0.173,0.054,0.259,0.065c0.086,0.022,0.173,0.032,0.26,0.043c0.097,0.011,0.184,0.011,0.27,0.011
		c0.097,0,0.183,0,0.27-0.011c0.086-0.011,0.173-0.022,0.27-0.043c0.087-0.011,0.173-0.032,0.26-0.065
		c0.086-0.022,0.163-0.054,0.249-0.086c0.086-0.033,0.162-0.076,0.237-0.119c0.042-0.021,0.077-0.042,0.115-0.063l3.962,3.881v7.639
		l-3.962,3.882c-0.038-0.021-0.073-0.042-0.115-0.063c-0.076-0.044-0.151-0.087-0.237-0.119c-0.086-0.032-0.163-0.065-0.249-0.086
		c-0.086-0.032-0.173-0.054-0.26-0.065c-0.097-0.022-0.183-0.032-0.27-0.043c-0.087-0.011-0.173-0.011-0.27-0.011
		c-0.086,0-0.173,0-0.27,0.011c-0.086,0.011-0.173,0.022-0.26,0.043c-0.086,0.011-0.173,0.032-0.259,0.065
		c-0.087,0.022-0.173,0.054-0.249,0.086c-0.086,0.032-0.173,0.076-0.249,0.119c-0.076,0.043-0.151,0.086-0.227,0.129
		c-0.076,0.054-0.151,0.108-0.216,0.162c-0.065,0.054-0.141,0.119-0.195,0.184c-0.065,0.065-0.129,0.129-0.183,0.194
		c-0.054,0.076-0.109,0.14-0.163,0.216c-0.054,0.076-0.097,0.152-0.14,0.227c-0.043,0.086-0.076,0.162-0.108,0.248
		c-0.033,0.076-0.065,0.163-0.098,0.249c-0.022,0.086-0.043,0.173-0.065,0.26c-0.011,0.086-0.022,0.183-0.032,0.27
		c-0.011,0.086-0.022,0.173-0.022,0.27c0,0.086,0.011,0.173,0.022,0.259c0.011,0.097,0.022,0.184,0.032,0.27
		c0.022,0.086,0.043,0.173,0.065,0.259c0.032,0.087,0.065,0.173,0.098,0.249c0.032,0.086,0.065,0.162,0.108,0.248
		c0.043,0.076,0.086,0.152,0.14,0.227s0.109,0.151,0.163,0.216c0.054,0.065,0.119,0.13,0.183,0.195
		c0.054,0.065,0.13,0.129,0.195,0.183c0.065,0.054,0.14,0.108,0.216,0.162c0.076,0.044,0.152,0.098,0.227,0.141
		c0.075,0.032,0.162,0.076,0.249,0.108c0.076,0.032,0.162,0.065,0.249,0.086c0.086,0.032,0.173,0.054,0.259,0.065
		c0.086,0.022,0.173,0.032,0.26,0.043c0.097,0.011,0.184,0.011,0.27,0.011c0.097,0,0.183,0,0.27-0.011
		c0.086-0.011,0.173-0.022,0.27-0.043c0.087-0.011,0.173-0.032,0.26-0.065c0.086-0.022,0.163-0.054,0.249-0.086
		c0.086-0.032,0.162-0.076,0.237-0.108c0.087-0.043,0.163-0.097,0.238-0.141c0.076-0.054,0.141-0.108,0.216-0.162
		c0.065-0.054,0.129-0.119,0.194-0.183c0.065-0.065,0.119-0.13,0.184-0.195c0.054-0.065,0.108-0.14,0.151-0.216
		c0.054-0.076,0.098-0.151,0.141-0.227c0.043-0.086,0.086-0.162,0.119-0.248c0.032-0.076,0.065-0.162,0.086-0.249
		c0.032-0.086,0.054-0.173,0.065-0.259c0.022-0.086,0.033-0.173,0.044-0.27c0.011-0.086,0.011-0.173,0.011-0.259
		c0-0.098,0-0.184-0.011-0.27c-0.011-0.086-0.022-0.183-0.044-0.27c-0.011-0.087-0.032-0.173-0.065-0.26
		c-0.022-0.086-0.054-0.173-0.086-0.249c-0.032-0.086-0.075-0.162-0.119-0.248c-0.011-0.019-0.024-0.038-0.035-0.057l3.883-3.803
		h7.993l3.878,3.802c-0.011,0.019-0.025,0.039-0.036,0.058c-0.043,0.086-0.076,0.162-0.119,0.248
		c-0.032,0.076-0.065,0.163-0.086,0.249c-0.022,0.086-0.043,0.173-0.065,0.26c-0.022,0.086-0.032,0.183-0.043,0.27
		c0,0.086-0.011,0.173-0.011,0.27c0,0.086,0.011,0.173,0.011,0.259c0.011,0.097,0.022,0.184,0.043,0.27
		c0.022,0.086,0.043,0.173,0.065,0.259c0.022,0.087,0.054,0.173,0.086,0.249c0.043,0.086,0.076,0.162,0.119,0.248
		c0.044,0.076,0.087,0.152,0.141,0.227c0.043,0.076,0.097,0.151,0.162,0.216c0.054,0.065,0.109,0.13,0.173,0.195
		c0.065,0.065,0.129,0.129,0.205,0.183c0.065,0.054,0.141,0.108,0.216,0.162c0.065,0.044,0.151,0.098,0.227,0.141
		c0.076,0.032,0.162,0.076,0.237,0.108c0.087,0.032,0.173,0.065,0.26,0.086c0.086,0.032,0.173,0.054,0.26,0.065
		c0.086,0.022,0.173,0.032,0.26,0.043c0.086,0.011,0.183,0.011,0.27,0.011c0.087,0,0.184,0,0.27-0.011
		c0.086-0.011,0.173-0.022,0.26-0.043c0.086-0.011,0.173-0.032,0.26-0.065c0.086-0.022,0.173-0.054,0.259-0.086
		c0.076-0.032,0.162-0.076,0.238-0.108c0.075-0.043,0.162-0.097,0.227-0.141c0.076-0.054,0.151-0.108,0.216-0.162
		c0.076-0.054,0.141-0.119,0.206-0.183c0.065-0.065,0.119-0.13,0.173-0.195c0.065-0.065,0.119-0.14,0.162-0.216
		c0.054-0.076,0.097-0.151,0.14-0.227c0.043-0.086,0.076-0.162,0.119-0.248c0.032-0.076,0.054-0.162,0.086-0.249
		c0.022-0.086,0.043-0.173,0.065-0.259c0.022-0.086,0.032-0.173,0.043-0.27c0-0.086,0.011-0.173,0.011-0.259
		c0-0.098-0.011-0.184-0.011-0.27C37.944,35.377,37.933,35.28,37.911,35.194z"/>
	<path d="M40.797,25.157c-0.011-0.086-0.032-0.173-0.065-0.259c-0.022-0.086-0.054-0.173-0.086-0.26
		c-0.032-0.076-0.076-0.162-0.119-0.237c-0.043-0.076-0.086-0.163-0.129-0.227c-0.054-0.076-0.108-0.151-0.162-0.216
		c-0.055-0.076-0.119-0.141-0.184-0.206c-0.065-0.065-0.129-0.119-0.194-0.173c-0.076-0.065-0.141-0.119-0.216-0.162
		c-0.076-0.054-0.151-0.098-0.227-0.141c-0.086-0.043-0.162-0.076-0.248-0.119c-0.087-0.032-0.162-0.054-0.249-0.086
		c-0.086-0.022-0.173-0.043-0.26-0.065c-0.086-0.022-0.183-0.032-0.27-0.043c-0.086,0-0.173-0.011-0.27-0.011
		c-0.087,0-0.173,0.011-0.26,0.011c-0.097,0.011-0.184,0.022-0.27,0.043c-0.086,0.022-0.173,0.043-0.26,0.065
		c-0.086,0.032-0.173,0.054-0.248,0.086c-0.087,0.043-0.163,0.076-0.249,0.119c-0.076,0.043-0.152,0.087-0.227,0.141
		c-0.076,0.043-0.151,0.097-0.216,0.162c-0.065,0.054-0.13,0.108-0.195,0.173c-0.065,0.065-0.129,0.13-0.183,0.206
		c-0.055,0.065-0.109,0.14-0.162,0.216c-0.043,0.065-0.097,0.152-0.14,0.227c-0.032,0.076-0.076,0.162-0.109,0.237
		c-0.032,0.086-0.065,0.173-0.086,0.26c-0.032,0.086-0.054,0.173-0.076,0.259c-0.011,0.086-0.022,0.173-0.032,0.26
		c-0.011,0.086-0.011,0.183-0.011,0.27c0,0.087,0,0.184,0.011,0.27c0.011,0.086,0.022,0.173,0.032,0.26
		c0.022,0.086,0.043,0.173,0.076,0.259c0.022,0.086,0.054,0.173,0.086,0.26c0.032,0.076,0.076,0.162,0.109,0.237
		c0.043,0.076,0.097,0.162,0.14,0.227c0.054,0.076,0.108,0.151,0.162,0.216c0.054,0.076,0.119,0.14,0.183,0.206
		c0.065,0.065,0.129,0.119,0.195,0.173c0.065,0.065,0.14,0.119,0.216,0.162c0.076,0.054,0.152,0.097,0.227,0.141
		c0.086,0.043,0.162,0.076,0.249,0.119c0.076,0.032,0.162,0.054,0.248,0.086c0.087,0.022,0.173,0.043,0.26,0.065
		c0.086,0.022,0.173,0.032,0.27,0.043c0.086,0,0.173,0.011,0.26,0.011c0.097,0,0.183-0.011,0.27-0.011
		c0.087-0.011,0.184-0.022,0.27-0.043c0.086-0.022,0.173-0.043,0.26-0.065c0.086-0.032,0.162-0.054,0.249-0.086
		c0.086-0.043,0.162-0.075,0.248-0.119c0.076-0.044,0.152-0.087,0.227-0.141c0.076-0.043,0.14-0.097,0.216-0.162
		c0.065-0.054,0.129-0.108,0.194-0.173c0.065-0.065,0.129-0.13,0.184-0.206c0.054-0.065,0.108-0.14,0.162-0.216
		c0.043-0.065,0.086-0.152,0.129-0.227c0.044-0.076,0.087-0.162,0.119-0.237c0.032-0.087,0.065-0.173,0.086-0.26
		c0.032-0.086,0.054-0.173,0.065-0.259c0.022-0.087,0.032-0.173,0.043-0.26c0.011-0.086,0.011-0.183,0.011-0.27
		c0-0.086,0-0.183-0.011-0.27C40.829,25.331,40.819,25.244,40.797,25.157z"/>
	<path d="M4.502,19.497c0.022,0.054,0.032,0.109,0.043,0.163c0.022,0.054,0.043,0.108,0.065,0.162
		c0.011,0.054,0.043,0.108,0.065,0.151c0.032,0.054,0.054,0.098,0.086,0.141c0.032,0.054,0.065,0.097,0.098,0.14
		c0.043,0.043,0.076,0.086,0.119,0.119c0.043,0.043,0.076,0.086,0.119,0.119c0.043,0.032,0.098,0.065,0.141,0.098
		c0.043,0.032,0.097,0.065,0.14,0.086c0.054,0.032,0.097,0.054,0.151,0.076c0.055,0.022,0.109,0.043,0.162,0.054
		c0.054,0.022,0.108,0.032,0.162,0.043c0.055,0.011,0.109,0.022,0.163,0.022c0.065,0.011,0.119,0.011,0.173,0.011
		c0.055,0,0.109,0,0.163-0.011c0.065,0,0.119-0.011,0.173-0.022c0.054-0.011,0.109-0.022,0.163-0.043
		c0.054-0.011,0.108-0.032,0.162-0.054c0.043-0.022,0.098-0.043,0.152-0.076c0.043-0.022,0.097-0.054,0.14-0.086
		c0.043-0.032,0.086-0.065,0.129-0.098c0.044-0.032,0.087-0.076,0.13-0.119c0.043-0.032,0.076-0.076,0.108-0.119
		c0.043-0.043,0.075-0.086,0.108-0.14c0.033-0.043,0.055-0.087,0.087-0.141c0.022-0.043,0.043-0.097,0.065-0.151
		c0.022-0.054,0.043-0.108,0.065-0.162c0.011-0.054,0.022-0.109,0.032-0.163c0.011-0.054,0.022-0.108,0.032-0.162
		c0-0.054,0-0.108,0-0.173c0-0.054,0-0.109,0-0.163c-0.011-0.054-0.022-0.108-0.032-0.162c-0.011-0.065-0.022-0.119-0.032-0.173
		c-0.022-0.044-0.043-0.098-0.065-0.152c-0.022-0.054-0.043-0.108-0.065-0.151c-0.032-0.054-0.054-0.097-0.087-0.151
		c-0.032-0.043-0.065-0.087-0.108-0.13c-0.032-0.043-0.065-0.086-0.108-0.129c-0.043-0.032-0.086-0.076-0.13-0.108
		c-0.043-0.032-0.086-0.065-0.129-0.097c-0.043-0.032-0.097-0.065-0.14-0.087c-0.054-0.032-0.109-0.054-0.152-0.076
		c-0.054-0.022-0.108-0.043-0.162-0.054c-0.054-0.022-0.109-0.032-0.163-0.043c-0.054-0.011-0.108-0.022-0.173-0.022
		c-0.054-0.011-0.108-0.011-0.163-0.011c-0.054,0-0.108,0-0.173,0.011c-0.054,0-0.108,0.011-0.163,0.022
		c-0.054,0.011-0.108,0.022-0.162,0.043c-0.054,0.011-0.108,0.032-0.162,0.054c-0.054,0.022-0.097,0.043-0.151,0.076
		c-0.043,0.022-0.097,0.055-0.14,0.087c-0.043,0.032-0.098,0.065-0.141,0.097c-0.043,0.032-0.076,0.076-0.119,0.108
		c-0.043,0.043-0.076,0.086-0.119,0.129c-0.033,0.043-0.065,0.087-0.098,0.13c-0.032,0.054-0.054,0.097-0.086,0.151
		c-0.022,0.043-0.054,0.097-0.065,0.151c-0.022,0.054-0.043,0.108-0.065,0.152c-0.011,0.054-0.022,0.108-0.043,0.173
		C4.492,18.892,4.492,18.946,4.48,19c0,0.054-0.011,0.109-0.011,0.163c0,0.065,0.011,0.119,0.011,0.173
		C4.492,19.389,4.492,19.443,4.502,19.497z"/>
	<path d="M7.702,33.012c0.022-0.043,0.043-0.097,0.065-0.151c0.022-0.055,0.043-0.109,0.065-0.152
		c0.011-0.054,0.022-0.108,0.032-0.173c0.011-0.054,0.022-0.108,0.032-0.162c0-0.055,0-0.109,0-0.162c0-0.065,0-0.119,0-0.173
		c-0.011-0.054-0.022-0.108-0.032-0.162c-0.011-0.055-0.022-0.109-0.032-0.162c-0.022-0.054-0.043-0.108-0.065-0.162
		c-0.022-0.054-0.043-0.108-0.065-0.151c-0.032-0.055-0.054-0.098-0.087-0.141c-0.032-0.054-0.065-0.097-0.108-0.14
		c-0.032-0.043-0.065-0.086-0.108-0.119c-0.043-0.043-0.086-0.087-0.13-0.119c-0.043-0.032-0.086-0.065-0.129-0.097
		c-0.043-0.032-0.097-0.065-0.14-0.086c-0.054-0.032-0.109-0.054-0.152-0.076c-0.054-0.022-0.108-0.043-0.162-0.054
		c-0.054-0.022-0.109-0.032-0.163-0.043c-0.054-0.011-0.108-0.022-0.173-0.022c-0.054-0.011-0.108-0.011-0.163-0.011
		c-0.054,0-0.108,0-0.173,0.011c-0.054,0-0.108,0.011-0.163,0.022c-0.054,0.011-0.108,0.022-0.162,0.043
		c-0.054,0.011-0.108,0.032-0.162,0.054c-0.054,0.022-0.097,0.043-0.151,0.076c-0.043,0.022-0.097,0.054-0.14,0.086
		c-0.043,0.032-0.098,0.065-0.141,0.097c-0.043,0.032-0.076,0.076-0.119,0.119c-0.043,0.032-0.076,0.076-0.119,0.119
		c-0.033,0.043-0.065,0.086-0.098,0.14c-0.032,0.043-0.054,0.086-0.086,0.141c-0.022,0.043-0.054,0.097-0.065,0.151
		c-0.022,0.054-0.043,0.108-0.065,0.162c-0.011,0.054-0.022,0.108-0.043,0.162c-0.011,0.054-0.011,0.108-0.022,0.162
		c0,0.054-0.011,0.108-0.011,0.173c0,0.054,0.011,0.108,0.011,0.162c0.011,0.054,0.011,0.108,0.022,0.162
		c0.022,0.065,0.032,0.119,0.043,0.173c0.022,0.043,0.043,0.097,0.065,0.152c0.011,0.054,0.043,0.108,0.065,0.151
		c0.032,0.054,0.054,0.097,0.086,0.151c0.032,0.043,0.065,0.086,0.098,0.13c0.043,0.043,0.076,0.086,0.119,0.129
		c0.043,0.032,0.076,0.076,0.119,0.108c0.043,0.032,0.098,0.065,0.141,0.097c0.043,0.032,0.097,0.065,0.14,0.086
		c0.054,0.032,0.097,0.055,0.151,0.076c0.055,0.022,0.109,0.043,0.162,0.054c0.054,0.022,0.108,0.032,0.162,0.043
		c0.055,0.011,0.109,0.022,0.163,0.022c0.065,0.011,0.119,0.011,0.173,0.011c0.055,0,0.109,0,0.163-0.011
		c0.065,0,0.119-0.011,0.173-0.022c0.054-0.011,0.109-0.022,0.163-0.043c0.054-0.011,0.108-0.032,0.162-0.054
		c0.043-0.022,0.098-0.044,0.152-0.076c0.043-0.022,0.097-0.054,0.14-0.086c0.043-0.032,0.086-0.065,0.129-0.097
		c0.044-0.032,0.087-0.076,0.13-0.108c0.043-0.043,0.076-0.086,0.108-0.129c0.043-0.044,0.075-0.087,0.108-0.13
		C7.648,33.109,7.669,33.066,7.702,33.012z"/>
	<path d="M45.25,18.838c-0.022-0.065-0.032-0.119-0.043-0.173c-0.022-0.044-0.043-0.098-0.065-0.152
		c-0.011-0.054-0.043-0.108-0.065-0.151c-0.032-0.054-0.054-0.097-0.086-0.151c-0.032-0.043-0.065-0.087-0.097-0.13
		c-0.043-0.043-0.076-0.086-0.119-0.129c-0.044-0.032-0.076-0.076-0.119-0.108c-0.043-0.032-0.097-0.065-0.14-0.097
		c-0.043-0.032-0.097-0.065-0.141-0.087c-0.054-0.032-0.097-0.054-0.151-0.076c-0.054-0.022-0.108-0.043-0.162-0.054
		c-0.055-0.022-0.109-0.032-0.163-0.043c-0.054-0.011-0.108-0.022-0.162-0.022c-0.065-0.011-0.119-0.011-0.173-0.011
		c-0.054,0-0.108,0-0.162,0.011c-0.065,0-0.119,0.011-0.173,0.022c-0.054,0.011-0.108,0.022-0.162,0.043
		c-0.054,0.011-0.109,0.032-0.162,0.054c-0.043,0.022-0.097,0.043-0.151,0.076c-0.043,0.022-0.097,0.055-0.141,0.087
		c-0.043,0.032-0.086,0.065-0.129,0.097c-0.043,0.032-0.086,0.076-0.129,0.108c-0.043,0.043-0.076,0.086-0.109,0.129
		c-0.043,0.043-0.076,0.087-0.108,0.13c-0.032,0.054-0.054,0.097-0.086,0.151c-0.022,0.043-0.043,0.097-0.065,0.151
		c-0.022,0.054-0.043,0.108-0.065,0.152c-0.011,0.054-0.022,0.108-0.032,0.173c-0.011,0.054-0.022,0.108-0.032,0.162
		c0,0.054,0,0.109,0,0.163c0,0.065,0,0.119,0,0.173c0.011,0.054,0.022,0.108,0.032,0.162c0.011,0.054,0.022,0.109,0.032,0.163
		c0.022,0.054,0.044,0.108,0.065,0.162c0.022,0.054,0.043,0.108,0.065,0.151c0.032,0.054,0.054,0.098,0.086,0.141
		c0.032,0.054,0.065,0.097,0.108,0.14c0.032,0.043,0.065,0.086,0.109,0.119c0.043,0.043,0.086,0.086,0.129,0.119
		c0.043,0.032,0.086,0.065,0.129,0.098c0.044,0.032,0.098,0.065,0.141,0.086c0.054,0.032,0.108,0.054,0.151,0.076
		c0.054,0.022,0.109,0.043,0.162,0.054c0.054,0.022,0.108,0.032,0.162,0.043c0.054,0.011,0.109,0.022,0.173,0.022
		c0.054,0.011,0.108,0.011,0.162,0.011c0.054,0,0.108,0,0.173-0.011c0.054,0,0.108-0.011,0.162-0.022
		c0.054-0.011,0.108-0.022,0.163-0.043c0.054-0.011,0.108-0.032,0.162-0.054c0.054-0.022,0.097-0.043,0.151-0.076
		c0.044-0.022,0.098-0.054,0.141-0.086c0.043-0.032,0.097-0.065,0.14-0.098c0.043-0.032,0.076-0.076,0.119-0.119
		c0.043-0.032,0.076-0.076,0.119-0.119c0.032-0.043,0.065-0.086,0.097-0.14c0.032-0.043,0.054-0.087,0.086-0.141
		c0.022-0.043,0.055-0.097,0.065-0.151c0.022-0.054,0.043-0.108,0.065-0.162c0.011-0.054,0.022-0.109,0.043-0.163
		c0.011-0.054,0.011-0.108,0.022-0.162c0-0.054,0.011-0.108,0.011-0.173c0-0.054-0.011-0.109-0.011-0.163
		C45.261,18.946,45.261,18.892,45.25,18.838z"/>
	<path d="M45.25,31.878c-0.022-0.055-0.032-0.109-0.043-0.162c-0.022-0.054-0.043-0.108-0.065-0.162
		c-0.011-0.054-0.043-0.108-0.065-0.151c-0.032-0.055-0.054-0.098-0.086-0.141c-0.032-0.054-0.065-0.097-0.097-0.14
		c-0.043-0.043-0.076-0.086-0.119-0.119c-0.044-0.043-0.076-0.087-0.119-0.119c-0.043-0.032-0.097-0.065-0.14-0.097
		c-0.043-0.032-0.097-0.065-0.141-0.086c-0.054-0.032-0.097-0.054-0.151-0.076c-0.054-0.022-0.108-0.043-0.162-0.054
		c-0.055-0.022-0.109-0.032-0.163-0.043c-0.054-0.011-0.108-0.022-0.162-0.022c-0.065-0.011-0.119-0.011-0.173-0.011
		c-0.054,0-0.108,0-0.162,0.011c-0.065,0-0.119,0.011-0.173,0.022c-0.054,0.011-0.108,0.022-0.162,0.043
		c-0.054,0.011-0.109,0.032-0.162,0.054c-0.043,0.022-0.097,0.043-0.151,0.076c-0.043,0.022-0.097,0.054-0.141,0.086
		c-0.043,0.032-0.086,0.065-0.129,0.097c-0.043,0.032-0.086,0.076-0.129,0.119c-0.043,0.032-0.076,0.076-0.109,0.119
		c-0.043,0.043-0.076,0.086-0.108,0.14c-0.032,0.043-0.054,0.086-0.086,0.141c-0.022,0.043-0.043,0.097-0.065,0.151
		c-0.022,0.054-0.043,0.108-0.065,0.162c-0.011,0.054-0.022,0.108-0.032,0.162c-0.011,0.054-0.022,0.108-0.032,0.162
		c0,0.054,0,0.108,0,0.173c0,0.054,0,0.108,0,0.162c0.011,0.054,0.022,0.108,0.032,0.162c0.011,0.065,0.022,0.119,0.032,0.173
		c0.022,0.043,0.044,0.097,0.065,0.152c0.022,0.054,0.043,0.108,0.065,0.151c0.032,0.054,0.054,0.097,0.086,0.151
		c0.032,0.043,0.065,0.086,0.108,0.13c0.032,0.043,0.065,0.086,0.109,0.129c0.043,0.032,0.086,0.076,0.129,0.108
		c0.043,0.032,0.086,0.065,0.129,0.097c0.044,0.032,0.098,0.065,0.141,0.086c0.054,0.032,0.108,0.055,0.151,0.076
		c0.054,0.022,0.109,0.043,0.162,0.054c0.054,0.022,0.108,0.032,0.162,0.043c0.054,0.011,0.109,0.022,0.173,0.022
		c0.054,0.011,0.108,0.011,0.162,0.011c0.054,0,0.108,0,0.173-0.011c0.054,0,0.108-0.011,0.162-0.022
		c0.054-0.011,0.108-0.022,0.163-0.043c0.054-0.011,0.108-0.032,0.162-0.054c0.054-0.022,0.097-0.044,0.151-0.076
		c0.044-0.022,0.098-0.054,0.141-0.086c0.043-0.032,0.097-0.065,0.14-0.097c0.043-0.032,0.076-0.076,0.119-0.108
		c0.043-0.043,0.076-0.086,0.119-0.129c0.032-0.044,0.065-0.087,0.097-0.13c0.032-0.054,0.054-0.097,0.086-0.151
		c0.022-0.043,0.055-0.097,0.065-0.151c0.022-0.055,0.043-0.109,0.065-0.152c0.011-0.054,0.022-0.108,0.043-0.173
		c0.011-0.054,0.011-0.108,0.022-0.162c0-0.055,0.011-0.109,0.011-0.162c0-0.065-0.011-0.119-0.011-0.173
		C45.261,31.985,45.261,31.931,45.25,31.878z"/>
	<path d="M20.131,44.031c-0.011-0.054-0.022-0.108-0.043-0.162c-0.011-0.054-0.032-0.108-0.054-0.162
		c-0.022-0.044-0.043-0.098-0.076-0.152c-0.022-0.043-0.054-0.097-0.087-0.14c-0.032-0.043-0.065-0.086-0.097-0.129
		c-0.032-0.043-0.076-0.087-0.108-0.13c-0.043-0.043-0.086-0.076-0.13-0.108c-0.043-0.043-0.086-0.076-0.129-0.108
		c-0.054-0.032-0.097-0.054-0.151-0.086c-0.043-0.022-0.098-0.043-0.152-0.065c-0.054-0.022-0.097-0.043-0.151-0.065
		c-0.054-0.011-0.108-0.022-0.162-0.032c-0.065-0.011-0.119-0.022-0.173-0.032c-0.054,0-0.108,0-0.163,0c-0.065,0-0.119,0-0.173,0
		c-0.054,0.011-0.108,0.022-0.163,0.032c-0.054,0.011-0.108,0.022-0.162,0.032c-0.054,0.022-0.108,0.044-0.162,0.065
		c-0.055,0.022-0.098,0.043-0.152,0.065c-0.054,0.032-0.097,0.054-0.14,0.086c-0.054,0.032-0.098,0.065-0.141,0.108
		c-0.043,0.032-0.086,0.065-0.119,0.108c-0.043,0.043-0.086,0.087-0.119,0.13c-0.032,0.043-0.065,0.086-0.098,0.129
		c-0.032,0.043-0.065,0.097-0.086,0.14c-0.032,0.054-0.054,0.108-0.076,0.152c-0.022,0.054-0.032,0.108-0.054,0.162
		c-0.022,0.054-0.032,0.108-0.043,0.162c-0.011,0.054-0.022,0.108-0.022,0.173c-0.011,0.054-0.011,0.108-0.011,0.162
		c0,0.054,0,0.108,0.011,0.173c0,0.054,0.011,0.109,0.022,0.162c0.011,0.054,0.022,0.108,0.043,0.162
		c0.022,0.054,0.032,0.108,0.054,0.162c0.022,0.054,0.043,0.098,0.076,0.152c0.022,0.043,0.054,0.097,0.086,0.14
		c0.032,0.043,0.065,0.097,0.098,0.14c0.032,0.043,0.076,0.076,0.119,0.119c0.032,0.044,0.076,0.076,0.119,0.119
		c0.043,0.032,0.087,0.065,0.141,0.097c0.043,0.032,0.086,0.054,0.14,0.086c0.054,0.022,0.097,0.054,0.152,0.065
		c0.054,0.022,0.108,0.043,0.162,0.065c0.054,0.011,0.108,0.022,0.162,0.044c0.055,0.011,0.109,0.011,0.163,0.022
		c0.054,0,0.108,0.011,0.173,0.011c0.055,0,0.109-0.011,0.163-0.011c0.054-0.011,0.108-0.011,0.173-0.022
		c0.055-0.022,0.109-0.033,0.162-0.044c0.054-0.022,0.097-0.043,0.151-0.065c0.054-0.011,0.109-0.043,0.152-0.065
		c0.054-0.032,0.097-0.054,0.151-0.086c0.043-0.032,0.086-0.065,0.129-0.097c0.044-0.043,0.087-0.076,0.13-0.119
		c0.032-0.043,0.076-0.076,0.108-0.119c0.032-0.043,0.065-0.097,0.097-0.14c0.033-0.043,0.065-0.097,0.087-0.14
		c0.032-0.054,0.054-0.098,0.076-0.152c0.022-0.054,0.043-0.108,0.054-0.162c0.022-0.054,0.032-0.108,0.043-0.162
		c0.011-0.054,0.022-0.109,0.022-0.162c0.011-0.065,0.011-0.119,0.011-0.173c0-0.054,0-0.108-0.011-0.162
		C20.153,44.138,20.142,44.084,20.131,44.031z"/>
	<path d="M33.188,44.031c-0.011-0.054-0.022-0.108-0.043-0.162c-0.011-0.054-0.032-0.108-0.054-0.162
		c-0.022-0.044-0.043-0.098-0.076-0.152c-0.022-0.043-0.054-0.097-0.087-0.14c-0.032-0.043-0.065-0.086-0.097-0.129
		c-0.032-0.043-0.076-0.087-0.108-0.13c-0.043-0.043-0.086-0.076-0.13-0.108c-0.043-0.043-0.086-0.076-0.129-0.108
		c-0.054-0.032-0.097-0.054-0.151-0.086c-0.043-0.022-0.098-0.043-0.152-0.065c-0.054-0.022-0.097-0.043-0.151-0.065
		c-0.054-0.011-0.108-0.022-0.162-0.032c-0.065-0.011-0.119-0.022-0.173-0.032c-0.054,0-0.108,0-0.162,0c-0.065,0-0.119,0-0.173,0
		c-0.054,0.011-0.108,0.022-0.162,0.032c-0.054,0.011-0.108,0.022-0.162,0.032c-0.054,0.022-0.108,0.044-0.162,0.065
		c-0.055,0.022-0.098,0.043-0.152,0.065c-0.054,0.032-0.097,0.054-0.14,0.086c-0.054,0.032-0.098,0.065-0.141,0.108
		c-0.043,0.032-0.086,0.065-0.119,0.108c-0.043,0.043-0.086,0.087-0.119,0.13c-0.032,0.043-0.065,0.086-0.098,0.129
		c-0.032,0.043-0.065,0.097-0.086,0.14c-0.032,0.054-0.054,0.108-0.076,0.152c-0.022,0.054-0.032,0.108-0.054,0.162
		c-0.022,0.054-0.032,0.108-0.043,0.162c-0.011,0.054-0.022,0.108-0.022,0.173c-0.011,0.054-0.011,0.108-0.011,0.162
		c0,0.054,0,0.108,0.011,0.173c0,0.054,0.011,0.109,0.022,0.162c0.011,0.054,0.022,0.108,0.043,0.162
		c0.022,0.054,0.032,0.108,0.054,0.162c0.022,0.054,0.043,0.098,0.076,0.152c0.022,0.043,0.054,0.097,0.086,0.14
		c0.032,0.043,0.065,0.097,0.098,0.14c0.032,0.043,0.076,0.076,0.119,0.119c0.032,0.044,0.076,0.076,0.119,0.119
		c0.043,0.032,0.087,0.065,0.141,0.097c0.043,0.032,0.086,0.054,0.14,0.086c0.054,0.022,0.097,0.054,0.152,0.065
		c0.054,0.022,0.108,0.043,0.162,0.065c0.054,0.011,0.108,0.022,0.162,0.044c0.055,0.011,0.109,0.011,0.162,0.022
		c0.054,0,0.108,0.011,0.173,0.011c0.055,0,0.109-0.011,0.162-0.011c0.054-0.011,0.108-0.011,0.173-0.022
		c0.055-0.022,0.109-0.033,0.162-0.044c0.054-0.022,0.097-0.043,0.151-0.065c0.054-0.011,0.109-0.043,0.152-0.065
		c0.054-0.032,0.097-0.054,0.151-0.086c0.043-0.032,0.086-0.065,0.129-0.097c0.044-0.043,0.087-0.076,0.13-0.119
		c0.032-0.043,0.076-0.076,0.108-0.119c0.032-0.043,0.065-0.097,0.097-0.14c0.033-0.043,0.065-0.097,0.087-0.14
		c0.032-0.054,0.054-0.098,0.076-0.152c0.022-0.054,0.043-0.108,0.054-0.162c0.022-0.054,0.032-0.108,0.043-0.162
		c0.011-0.054,0.022-0.109,0.022-0.162c0.011-0.065,0.011-0.119,0.011-0.173c0-0.054,0-0.108-0.011-0.162
		C33.21,44.138,33.199,44.084,33.188,44.031z"/>
	<path d="M16.867,6.35c-0.022,0.054-0.032,0.108-0.054,0.162c-0.022,0.054-0.032,0.108-0.043,0.162
		c-0.011,0.054-0.022,0.108-0.022,0.162c-0.011,0.065-0.011,0.119-0.011,0.173c0,0.054,0,0.108,0.011,0.162
		c0,0.065,0.011,0.119,0.022,0.173c0.011,0.054,0.022,0.108,0.043,0.162c0.022,0.054,0.032,0.108,0.054,0.162
		c0.022,0.043,0.043,0.098,0.076,0.152c0.022,0.043,0.054,0.097,0.086,0.14c0.032,0.043,0.065,0.086,0.098,0.129
		c0.032,0.043,0.076,0.086,0.119,0.129c0.032,0.044,0.076,0.076,0.119,0.109c0.043,0.043,0.087,0.076,0.141,0.108
		c0.043,0.032,0.086,0.054,0.14,0.086c0.054,0.022,0.097,0.043,0.152,0.065c0.054,0.022,0.108,0.043,0.162,0.065
		c0.054,0.011,0.108,0.022,0.162,0.032c0.055,0.011,0.109,0.022,0.163,0.033c0.054,0,0.108,0,0.173,0c0.055,0,0.109,0,0.163,0
		c0.054-0.011,0.108-0.022,0.173-0.033c0.055-0.011,0.109-0.022,0.162-0.032c0.054-0.022,0.097-0.043,0.151-0.065
		c0.054-0.022,0.109-0.043,0.152-0.065c0.054-0.032,0.097-0.054,0.151-0.086c0.043-0.032,0.086-0.065,0.129-0.108
		c0.044-0.032,0.087-0.065,0.13-0.109c0.032-0.043,0.076-0.086,0.108-0.129c0.032-0.043,0.065-0.086,0.097-0.129
		c0.033-0.043,0.065-0.097,0.087-0.14c0.032-0.054,0.054-0.109,0.076-0.152c0.022-0.054,0.043-0.108,0.054-0.162
		c0.022-0.054,0.032-0.108,0.043-0.162c0.011-0.055,0.022-0.109,0.022-0.173c0.011-0.054,0.011-0.108,0.011-0.162
		c0-0.054,0-0.108-0.011-0.173c0-0.055-0.011-0.109-0.022-0.162c-0.011-0.054-0.022-0.108-0.043-0.162
		c-0.011-0.054-0.032-0.108-0.054-0.162c-0.022-0.055-0.043-0.098-0.076-0.152c-0.022-0.043-0.054-0.097-0.087-0.14
		c-0.032-0.043-0.065-0.097-0.097-0.14c-0.032-0.043-0.076-0.076-0.108-0.119c-0.043-0.043-0.086-0.076-0.13-0.119
		c-0.043-0.032-0.086-0.065-0.129-0.097c-0.054-0.032-0.097-0.054-0.151-0.086c-0.043-0.022-0.098-0.054-0.152-0.065
		c-0.054-0.022-0.097-0.044-0.151-0.065c-0.054-0.011-0.108-0.022-0.162-0.043c-0.065-0.011-0.119-0.011-0.173-0.022
		c-0.054,0-0.108-0.011-0.163-0.011c-0.065,0-0.119,0.011-0.173,0.011c-0.054,0.011-0.108,0.011-0.163,0.022
		c-0.054,0.022-0.108,0.032-0.162,0.043c-0.054,0.022-0.108,0.044-0.162,0.065c-0.055,0.011-0.098,0.043-0.152,0.065
		c-0.054,0.032-0.097,0.054-0.14,0.086c-0.054,0.032-0.098,0.065-0.141,0.097c-0.043,0.043-0.086,0.076-0.119,0.119
		c-0.043,0.043-0.086,0.076-0.119,0.119c-0.032,0.043-0.065,0.097-0.098,0.14c-0.032,0.043-0.065,0.097-0.086,0.14
		C16.91,6.252,16.889,6.295,16.867,6.35z"/>
	<path d="M29.827,7.344c0.011,0.054,0.022,0.108,0.043,0.162c0.022,0.054,0.032,0.108,0.054,0.162
		C29.946,7.71,29.968,7.765,30,7.819c0.022,0.043,0.054,0.097,0.086,0.14c0.032,0.043,0.065,0.086,0.098,0.129
		c0.032,0.043,0.076,0.086,0.119,0.129c0.032,0.044,0.076,0.076,0.119,0.109c0.043,0.043,0.087,0.076,0.141,0.108
		c0.043,0.032,0.086,0.054,0.14,0.086c0.054,0.022,0.097,0.043,0.152,0.065c0.054,0.022,0.108,0.043,0.162,0.065
		c0.054,0.011,0.108,0.022,0.162,0.032c0.055,0.011,0.109,0.022,0.162,0.033c0.054,0,0.108,0,0.173,0c0.055,0,0.109,0,0.162,0
		c0.054-0.011,0.108-0.022,0.173-0.033c0.055-0.011,0.109-0.022,0.162-0.032c0.054-0.022,0.097-0.043,0.151-0.065
		c0.054-0.022,0.109-0.043,0.152-0.065c0.054-0.032,0.097-0.054,0.151-0.086c0.043-0.032,0.086-0.065,0.129-0.108
		c0.044-0.032,0.087-0.065,0.13-0.109c0.032-0.043,0.076-0.086,0.108-0.129c0.032-0.043,0.065-0.086,0.097-0.129
		c0.033-0.043,0.065-0.097,0.087-0.14c0.032-0.054,0.054-0.109,0.076-0.152c0.022-0.054,0.043-0.108,0.054-0.162
		c0.022-0.054,0.032-0.108,0.043-0.162c0.011-0.055,0.022-0.109,0.022-0.173c0.011-0.054,0.011-0.108,0.011-0.162
		c0-0.054,0-0.108-0.011-0.173c0-0.055-0.011-0.109-0.022-0.162c-0.011-0.054-0.022-0.108-0.043-0.162
		c-0.011-0.054-0.032-0.108-0.054-0.162c-0.022-0.055-0.043-0.098-0.076-0.152c-0.022-0.043-0.054-0.097-0.087-0.14
		c-0.032-0.043-0.065-0.097-0.097-0.14c-0.032-0.043-0.076-0.076-0.108-0.119c-0.043-0.043-0.086-0.076-0.13-0.119
		c-0.043-0.032-0.086-0.065-0.129-0.097c-0.054-0.032-0.097-0.054-0.151-0.086c-0.043-0.022-0.098-0.054-0.152-0.065
		c-0.054-0.022-0.097-0.044-0.151-0.065c-0.054-0.011-0.108-0.022-0.162-0.043c-0.065-0.011-0.119-0.011-0.173-0.022
		c-0.054,0-0.108-0.011-0.162-0.011c-0.065,0-0.119,0.011-0.173,0.011c-0.054,0.011-0.108,0.011-0.162,0.022
		c-0.054,0.022-0.108,0.032-0.162,0.043c-0.054,0.022-0.108,0.044-0.162,0.065c-0.055,0.011-0.098,0.043-0.152,0.065
		c-0.054,0.032-0.097,0.054-0.14,0.086c-0.054,0.032-0.098,0.065-0.141,0.097c-0.043,0.043-0.086,0.076-0.119,0.119
		c-0.043,0.043-0.086,0.076-0.119,0.119c-0.032,0.043-0.065,0.097-0.098,0.14C30.054,6.101,30.021,6.155,30,6.198
		c-0.032,0.054-0.054,0.097-0.076,0.152c-0.022,0.054-0.032,0.108-0.054,0.162c-0.022,0.054-0.032,0.108-0.043,0.162
		c-0.011,0.054-0.022,0.108-0.022,0.162c-0.011,0.065-0.011,0.119-0.011,0.173c0,0.054,0,0.108,0.011,0.162
		C29.806,7.235,29.816,7.289,29.827,7.344z"/>
</g>
</svg>
