<?xml version="1.0" encoding="utf-8"?>
<!-- Generator: Adobe Illustrator 22.1.0, SVG Export Plug-In . SVG Version: 6.00 Build 0)  -->
<svg version="1.1" id="Layer_1" xmlns="http://www.w3.org/2000/svg" xmlns:xlink="http://www.w3.org/1999/xlink" x="0px" y="0px"
	 viewBox="0 0 50.5 50.5" style="enable-background:new 0 0 50.5 50.5;" xml:space="preserve">
<style type="text/css">
	.st0{fill:#12B5E1;}
</style>
<title>chat crecer</title>
<path class="st0" d="M25.5,4.3c-11.3-0.2-20.7,8.8-21,20.1c0,5.8,2.6,11.2,7,15v6c0,0.5,0.4,0.9,0.9,0.9c0.2,0,0.3,0,0.5-0.1l4.9-3
	c2.5,0.9,5.1,1.4,7.8,1.4c11.3,0.2,20.7-8.8,21-20.1C46.2,13.1,36.8,4.1,25.5,4.3z M39.2,19.8L28.7,30.3c-0.3,0.3-0.8,0.3-1.2,0
	l-5.7-4.8l-9.1,5c-0.3,0.2-0.8,0.1-1-0.1c-0.3-0.3-0.3-0.9,0-1.2l10.5-10.5c0.3-0.3,0.8-0.3,1.2,0l5.7,4.8l9.1-5
	c0.4-0.2,0.9-0.1,1.1,0.2C39.5,19,39.5,19.5,39.2,19.8z"/>
</svg>
