<?xml version="1.0" encoding="utf-8"?>
<!-- Generator: Adobe Illustrator 24.1.0, SVG Export Plug-In . SVG Version: 6.00 Build 0)  -->
<svg version="1.1" id="Layer_1" xmlns="http://www.w3.org/2000/svg" xmlns:xlink="http://www.w3.org/1999/xlink" x="0px" y="0px"
	 viewBox="0 0 50.5 50.5" style="enable-background:new 0 0 50.5 50.5;" xml:space="preserve">
<g>
	<path d="M27.5,11.2c-1,0-2,0.2-2.9,0.6c-0.9,0.4-1.8,1-2.5,1.8c-0.5-0.8-1.1-1.4-1.9-1.8c-0.8-0.4-1.7-0.6-2.7-0.6
		c-2.1,0-3.8,0.7-5.1,2.1h-0.2l-0.4-1.8H7.4v18.1h5.3V17.2c0.3-0.5,0.8-0.9,1.3-1.1c0.5-0.3,1.1-0.4,1.6-0.4c0.7,0,1.3,0.2,1.7,0.7
		c0.4,0.4,0.6,1.2,0.6,2.2v11h5.2V18.1c0-0.4,0-0.8,0-1.2c0.4-0.4,0.8-0.7,1.3-0.9s1-0.3,1.5-0.3c0.7,0,1.3,0.2,1.7,0.7
		c0.4,0.4,0.6,1.2,0.6,2.2v11h5.3V18.3c0-2.5-0.5-4.3-1.6-5.4C30.8,11.7,29.3,11.2,27.5,11.2z"/>
	<path d="M39.8,8.8c1.1,0,1.9-0.2,2.5-0.7c0.5-0.5,0.8-1.2,0.8-2c0-0.9-0.3-1.6-0.8-2.1c-0.5-0.5-1.4-0.7-2.5-0.7
		c-1.1,0-1.9,0.2-2.5,0.7c-0.5,0.5-0.8,1.2-0.8,2.1c0,0.9,0.3,1.6,0.8,2C37.9,8.6,38.7,8.8,39.8,8.8z"/>
	<rect x="37.1" y="11.4" width="5.3" height="18.1"/>
	<path d="M32.6,36.1H17.1c-0.7,0-1.1,0.8-0.7,1.4l7.7,9.3c0.3,0.4,1,0.4,1.3,0l7.7-9.3C33.7,37,33.3,36.1,32.6,36.1z"/>
</g>
</svg>
