<svg id="Layer_1" data-name="Layer 1" xmlns="http://www.w3.org/2000/svg" viewBox="0 0 50.46 50.46"><defs><style>.cls-1{fill:#12b5e1;}</style></defs><title>mi argentina</title><path class="cls-1" d="M48,17.39a4.62,4.62,0,0,0-2.78-2.21l-2.64-.75a5.09,5.09,0,0,0-5-4.22H34.09A4.61,4.61,0,0,0,29,8.41l-3.8,1.08-3.8-1.08a4.61,4.61,0,0,0-5.06,1.8H12.82a5.1,5.1,0,0,0-5,4.26l-2.51.71A4.63,4.63,0,0,0,2.1,20.91l5,17.64a4.66,4.66,0,0,0,4.45,3.36,4.92,4.92,0,0,0,1.27-.17l8.92-2.55,1.49,2.07a2.36,2.36,0,0,0,3.81,0l1.52-2.1,9,2.58a4.92,4.92,0,0,0,1.27.17,4.66,4.66,0,0,0,4.45-3.36l5-17.64A4.6,4.6,0,0,0,48,17.39ZM40.27,33.66h0c0,.09,0,.18,0,.28a2.7,2.7,0,0,1-.2.79,2.56,2.56,0,0,1-.11.24,4.27,4.27,0,0,1-.3.44,2.76,2.76,0,0,1-2.12,1H27.68l-2.51,3.47-2.51-3.47H12.82a2.73,2.73,0,0,1-2.12-1,2.45,2.45,0,0,1-.3-.44l-.12-.24a3.06,3.06,0,0,1-.2-.79,2.72,2.72,0,0,1,0-.28h0V15.31a2.76,2.76,0,0,1,.12-.82A2.13,2.13,0,0,1,10.4,14a2.73,2.73,0,0,1,2.42-1.44h24.7A2.76,2.76,0,0,1,39.94,14a2.65,2.65,0,0,1,.2.49,2.76,2.76,0,0,1,.13.82Z"/><path class="cls-1" d="M25.1,24.46a4.81,4.81,0,0,0,1.07-.12,4.66,4.66,0,1,0-1.07.12Zm0-6.64a2,2,0,0,1,2,2,2,2,0,0,1-1.54,1.94,1.75,1.75,0,0,1-.46,0,2,2,0,0,1,0-4Z"/><path class="cls-1" d="M29.66,24.25a1.33,1.33,0,0,0-1.87.17,1.31,1.31,0,0,0-.29,1,1.29,1.29,0,0,0,.47.89,6.47,6.47,0,0,1,2.09,3.61,8.83,8.83,0,0,1-9.79,0,7,7,0,0,1,.77-2,1.32,1.32,0,0,0-2.29-1.33,10,10,0,0,0-1.23,3.78A1.31,1.31,0,0,0,18,31.51a11.45,11.45,0,0,0,14.31,0,1.29,1.29,0,0,0,.49-1.18A9.29,9.29,0,0,0,29.66,24.25Z"/></svg>