<?xml version="1.0" encoding="utf-8"?>
<!-- Generator: Adobe Illustrator 24.0.1, SVG Export Plug-In . SVG Version: 6.00 Build 0)  -->
<!DOCTYPE svg PUBLIC "-//W3C//DTD SVG 1.1//EN" "http://www.w3.org/Graphics/SVG/1.1/DTD/svg11.dtd" [
	<!ENTITY ns_extend "http://ns.adobe.com/Extensibility/1.0/">
	<!ENTITY ns_ai "http://ns.adobe.com/AdobeIllustrator/10.0/">
	<!ENTITY ns_graphs "http://ns.adobe.com/Graphs/1.0/">
	<!ENTITY ns_vars "http://ns.adobe.com/Variables/1.0/">
	<!ENTITY ns_imrep "http://ns.adobe.com/ImageReplacement/1.0/">
	<!ENTITY ns_sfw "http://ns.adobe.com/SaveForWeb/1.0/">
	<!ENTITY ns_custom "http://ns.adobe.com/GenericCustomNamespace/1.0/">
	<!ENTITY ns_adobe_xpath "http://ns.adobe.com/XPath/1.0/">
]>
<svg version="1.1" id="Capa_2_1_" xmlns:x="&ns_extend;" xmlns:i="&ns_ai;" xmlns:graph="&ns_graphs;"
	 xmlns="http://www.w3.org/2000/svg" xmlns:xlink="http://www.w3.org/1999/xlink" x="0px" y="0px" viewBox="0 0 50.5 50.5"
	 style="enable-background:new 0 0 50.5 50.5;" xml:space="preserve">
<metadata>
	<sfw  xmlns="&ns_sfw;">
		<slices></slices>
		<sliceSourceBounds  bottomLeftOrigin="true" height="44.5" width="30.9" x="9.8" y="3.1"></sliceSourceBounds>
	</sfw>
</metadata>
<g>
	<path d="M40.3,8.9c-0.1-0.2-1.2-1.8-2-1.9c-0.3,0-0.5,0.1-0.8,0.3c-0.1,0.1-0.2,0.1-0.4,0.4c-0.1,0.1-0.3,0.6-0.6,0.9
		c-0.4,0.6-0.6,1-1.2,1.3c-0.6,0.3-0.9,0.5-1.7,0.3l0.8-1.1c0.4-0.6,0.3-1.5-0.4-1.9l-5.5-3.9c-0.3-0.2-0.7-0.4-1.1-0.4
		s-0.8,0-0.8,0c-0.5,0-1,0.2-1.3,0.6L25.2,4l-0.3-0.3c-0.1-0.1-0.2-0.2-0.3-0.2c-1.3-0.5-2,0.3-2.5,0.8l-2,2.2
		c-0.3,0.3-0.5,0.7-0.6,1.2l-1,5.5c0,0.2,0,0.4,0.1,0.6s0.3,0.3,0.5,0.3s0.4,0,0.6-0.1s0.3-0.3,0.3-0.5L21,8c0-0.1,0.1-0.3,0.2-0.4
		l2-2.2c0.3-0.4,0.5-0.5,0.5-0.5l0.7,0.7c0.1,0.1,0.2,0.2,0.3,0.2C25.1,6,25.6,5.9,26,5.5l0.5-0.7c0,0,0,0,0.1,0c0,0,0.4,0,0.7,0
		c0.1,0,0.2,0,0.3,0.1L33,8.6l-1.1,1.6c-0.2,0.3-0.2,0.6-0.1,0.9c0.1,0.3,0.3,0.5,0.6,0.7c1.5,0.6,2.6,0.2,3.8-0.5
		c0.7-0.4,1-0.8,1.6-1.4c0.1-0.1,0.5-0.6,0.6-0.8L39,9.9c0,0,0,0.1,0,0.2s-0.1,0.2-0.3,0.3c-0.1,0.1-2.2,1.5-3,2.1
		c-0.4,0.3-1.1,1-1.5,1.4C33.1,15,33.1,15,33,15.3l-1,5.2c-0.1,0.4,0.1,0.7,0.4,0.9c0,0,0.2,0.1,1,0.4l-0.2,0.4
		c-0.1,0.3-0.1,0.7,0.2,0.9c0.1,0.1,0.2,0.2,0.4,0.3c-0.1,0.3-0.3,0.8-0.4,1c-0.9,1.2-2.9,2.2-4.6,1.8L28,26.1
		c-0.3-0.1-0.6,0-0.8,0.3c-0.2,0.3-0.2,0.6,0,0.9c0.4,0.6,0.5,1.2,0.3,1.4c-0.2,0.3-0.8,0.4-1.4,0.2c-0.2-0.1-0.4,0-0.6,0.1
		s-0.3,0.3-0.4,0.5l-0.8,4h-0.1c-0.6,0-1.2,0.2-1.5,0.7c-0.4,0.4-0.5,1-0.5,1.6c0.1,1.5,1.1,1.9,1.7,2.1l-0.6,5.3
		c0,0.3,0.2,0.6,0.8,1.8l0.4,0.8h-1.4L22.9,44c0-0.4-0.4-0.7-0.8-0.7c0,0-0.6,0-1.3,0c-0.2,0-0.4,0-0.4,0c-0.1-0.8-0.4-4.6-0.7-12.8
		c0-0.2-0.1-0.4-0.3-0.6c-0.2-0.1-0.4-0.2-0.6-0.2s-0.4,0.1-0.6,0.3S18,30.4,18,30.6c0.5,12.6,0.9,13.2,1,13.4
		c0.4,0.7,1.1,0.8,1.8,0.8h0.7l0.1,1.2c0,0.4,0.2,0.7,0.4,1c0.3,0.3,0.7,0.4,1.1,0.4l0,0l3.1-0.1c0.3,0,0.6-0.2,0.7-0.5
		s0.1-0.6-0.1-0.9c-0.6-0.6-1-1.4-1.3-2.1c-0.2-0.3-0.3-0.6-0.4-0.8l0.6-5.3c0.2-0.5-0.1-1.1-0.6-1.3c-0.2-0.1-0.3-0.1-0.5-0.1
		c-0.5-0.1-0.7-0.1-0.7-0.7c0-0.2,0-0.3,0.1-0.4c0.1-0.1,0.2-0.1,0.4-0.1l0.8-0.1c0.3-0.1,0.6-0.3,0.6-0.6l0.7-3.7
		c0.9,0,1.8-0.3,2.3-0.9c0.2-0.3,0.5-0.9,0.4-1.8c2.2,0.2,4.5-1,5.6-2.5c0.4-0.6,0.8-1.7,0.8-2.3c0-0.4-0.2-0.6-0.5-0.8
		c0.2-0.7-0.1-1.5-0.7-1.9l-0.6-0.3l0.9-4.3c0.5-0.5,1.7-1.7,2.2-2.1c0.8-0.6,2.8-2,2.8-2c0.5-0.3,0.9-0.7,1-1.3
		C40.7,9.8,40.4,9.2,40.3,8.9z"/>
	<path d="M31.3,41.2c-0.1-0.2-0.2-0.3-0.4-0.3h-1.3c-0.2,0-0.4,0.1-0.5,0.4l-0.7,2.4c-0.1,0.2,0,0.5,0.2,0.6c0.1,0,0.2,0.1,0.2,0.1
		c0.1,0,0.3-0.1,0.4-0.2l2-2.4C31.4,41.5,31.4,41.3,31.3,41.2z M30.2,41.7l-0.8,1l0.3-1.1L30.2,41.7z"/>
	<path d="M34.8,41.3L33,40.8c-0.2-0.1-0.4,0-0.5,0.2l-2.1,2.7c-0.2,0.2-0.2,0.5,0,0.7c0.1,0.1,0.3,0.2,0.4,0.2s0.2,0,0.3-0.1
		l3.8-2.1c0.2-0.1,0.3-0.3,0.3-0.5C35.2,41.6,35,41.4,34.8,41.3z M33.7,42l-1.6,0.8l0.8-1.1L33.7,42z"/>
	<path d="M18.8,16.9c1.6,0,3.1,0.3,4.5,0.9c1.2,0.5,2.2,1.2,3.2,2.1c0.3,0.2,0.6,0.3,0.8,0.2c0.8-0.3,0.9-1.1,0.4-1.5
		s-1-0.9-1.6-1.3c-0.7-0.4-1.4-0.8-2.1-1.1c-1.1-0.5-2.2-0.8-3.4-1c-2.3-0.3-4.4-0.1-6.6,0.8c-1.4,0.6-2.7,1.3-3.9,2.4
		c-0.1,0.1-0.2,0.3-0.3,0.4c-0.1,0.4,0,0.8,0.3,1c0.4,0.3,0.8,0.3,1.2,0c0.7-0.5,1.3-1,2-1.4C15.1,17.4,16.9,16.9,18.8,16.9z"/>
	<path d="M21.7,21.1c0.7,0.3,1.4,0.7,2,1.2c0.3,0.3,0.7,0.4,1,0.2c0.4-0.2,0.6-0.5,0.5-1c0-0.4-0.3-0.6-0.6-0.8
		c-0.7-0.5-1.3-1-2.1-1.3c-0.9-0.4-1.9-0.7-3-0.8c-1.4-0.1-2.7,0.1-4.1,0.6c-0.9,0.4-1.8,0.8-2.5,1.5c-0.4,0.4-0.5,0.8-0.2,1.3
		c0.3,0.4,0.9,0.4,1.3,0.1c0.4-0.2,0.7-0.5,1.1-0.7c0.9-0.6,2-0.9,3.1-1C19.4,20.5,20.6,20.7,21.7,21.1z"/>
	<path d="M21.1,25c0.3,0.2,0.7,0.2,1,0s0.4-0.6,0.4-0.9c-0.1-0.5-0.5-0.7-0.9-0.9c-1.5-0.9-3.1-1-4.8-0.4c-0.2,0.1-0.6,0.3-0.9,0.5
		c-0.2,0.1-0.4,0.3-0.5,0.5c-0.2,0.3-0.1,0.8,0.2,1c0.4,0.3,0.8,0.3,1.2,0.1c0.5-0.3,1-0.5,1.5-0.6C19.3,24.1,20.2,24.3,21.1,25z"/>
	<path d="M19.3,27.9c0.6-0.2,0.9-1,0.6-1.5c-0.3-0.7-1-0.8-1.4-0.6c-0.6,0.2-0.9,0.9-0.7,1.5C18,27.9,18.6,28.1,19.3,27.9z"/>
</g>
</svg>
