<svg id="Layer_1" data-name="Layer 1" xmlns="http://www.w3.org/2000/svg" viewBox="0 0 50.46 50.46"><defs><style>.cls-1{fill:#12b5e1;}</style></defs><title>microscopio</title><path class="cls-1" d="M24.26,42.54a1.08,1.08,0,0,0,0-2.16H15.65a1.08,1.08,0,0,0,0,2.16Z"/><path class="cls-1" d="M42.07,46.07H34.64l1.78-1.3A14.31,14.31,0,0,0,42.55,33,17,17,0,0,0,26,16.24h-.7V7.55a1.08,1.08,0,0,0-1.08-1.09H22.78V4.59a1,1,0,0,0-.07-2.07H17.2a1,1,0,0,0-1,1,1,1,0,0,0,1,1V6.46H15.65a1.09,1.09,0,0,0-1.08,1.09v19H13a1.08,1.08,0,0,0-1.08,1.08v7.45A1.08,1.08,0,0,0,13,36.16h13.9A1.08,1.08,0,0,0,28,35.08V27.63a1.08,1.08,0,0,0-1.09-1.08H25.35V18.39l.74,0A14.63,14.63,0,0,1,40.39,33c0,8.6-7.69,13.1-15.28,13.1H8.39a1.08,1.08,0,1,0,0,2.15H42.07a1.08,1.08,0,0,0,0-2.16ZM18.71,4.61h2.5V6.46h-2.5Zm-2,4h6.45V26.54H16.73Zm9.1,20.07V34H14.09V28.7Z"/></svg>