<svg id="Layer_1" data-name="Layer 1" xmlns="http://www.w3.org/2000/svg" viewBox="0 0 50.46 50.46"><defs><style>.cls-1{fill:#65b4e1;}</style></defs><title>micro</title><path class="cls-1" d="M28.28,32.73H23a1.07,1.07,0,0,0,0,2.14h5.29a1.06,1.06,0,0,0,1.06-1.13h0A1.07,1.07,0,0,0,28.28,32.73Z"/><path class="cls-1" d="M47.13,11.7h0a3.15,3.15,0,0,0-2.26-.95H14.13a5.45,5.45,0,0,0-3.87,1.59L5.76,17A5.88,5.88,0,0,0,4.1,21.1v7.73a3.2,3.2,0,0,0,1.57,6h1.7a1.08,1.08,0,0,0,1.08-1.11,1.05,1.05,0,0,0-1.06-1H5.64a1.1,1.1,0,0,1-1.09-.82,1.07,1.07,0,0,1,1-1.31h.65V21.1A3.75,3.75,0,0,1,7.3,18.47l4.47-4.61a3.32,3.32,0,0,1,2.36-1H44.87A1.09,1.09,0,0,1,45.94,14V31a1.69,1.69,0,0,1-1.69,1.69h-.63a1.06,1.06,0,0,0-1.06,1.08,1.06,1.06,0,0,0,1.06,1.06h.62A3.83,3.83,0,0,0,48.07,31V14A3.14,3.14,0,0,0,47.13,11.7Z"/><path class="cls-1" d="M42.82,21.89a.71.71,0,0,0,.71-.71V15.7a.71.71,0,0,0-.71-.71H37.35a.71.71,0,0,0-.71.71v5.48a.71.71,0,0,0,.71.71Zm-4.76-5.48h4.05v4.05H38.06Z"/><path class="cls-1" d="M18.1,21.17V15.7a.71.71,0,0,0-.71-.71H14a1.35,1.35,0,0,0-1,.4L8.86,19.56a1.35,1.35,0,0,0-.41,1v.64a.71.71,0,0,0,.71.71h8.22A.71.71,0,0,0,18.1,21.17Zm-1.42-.71H10l4-4.05h2.65Z"/><path class="cls-1" d="M34.39,21.89a.71.71,0,0,0,.71-.71V15.7a.71.71,0,0,0-.71-.71H28.91a.71.71,0,0,0-.71.71v5.48a.71.71,0,0,0,.71.71Zm-4.76-5.48h4.05v4.05H29.62Z"/><path class="cls-1" d="M25.82,21.89a.71.71,0,0,0,.71-.71V15.7a.71.71,0,0,0-.71-.71H20.35a.71.71,0,0,0-.71.71v5.48a.71.71,0,0,0,.71.71Zm-4.76-5.48h4.05v4.05H21.06Z"/><path class="cls-1" d="M15.16,27.91a5.9,5.9,0,1,0,5.9,5.9A5.91,5.91,0,0,0,15.16,27.91Zm0,9.9a4,4,0,1,1,4-4A4,4,0,0,1,15.16,37.81Z"/><path class="cls-1" d="M41.81,33a5.9,5.9,0,1,0-1.11,4.38A5.91,5.91,0,0,0,41.81,33ZM39.17,36.2a4,4,0,1,1,.75-3h0A4,4,0,0,1,39.17,36.2Z"/></svg>