<?xml version="1.0" encoding="utf-8"?>
<!-- Generator: Adobe Illustrator 22.0.0, SVG Export Plug-In . SVG Version: 6.00 Build 0)  -->
<svg version="1.1" id="Layer_1" xmlns="http://www.w3.org/2000/svg" xmlns:xlink="http://www.w3.org/1999/xlink" x="0px" y="0px"
	 viewBox="0 0 50.5 50.5" style="enable-background:new 0 0 50.5 50.5;" xml:space="preserve">
<g>
	<path d="M35.8,24.2c-3,0-5.5,2.5-5.5,5.5c0,3,2.5,5.5,5.5,5.5c3,0,5.5-2.5,5.5-5.5S38.9,24.2,35.8,24.2z M38.8,29.8
		c-0.4,0.8-2.8,2.9-2.9,3c0,0,0,0-0.1,0c0,0,0,0-0.1,0c-0.1-0.1-2.5-2.2-2.9-3c-0.2-0.4-0.2-0.8-0.1-1.2c0.1-0.4,0.4-0.7,0.8-0.9
		c0.2-0.1,0.5-0.2,0.7-0.2c0.6,0,1.1,0.3,1.4,0.8c0,0,0,0,0,0c0.3-0.5,0.8-0.8,1.4-0.8c0.2,0,0.5,0.1,0.7,0.2
		c0.4,0.2,0.7,0.5,0.8,0.9C39,28.9,38.9,29.4,38.8,29.8z"/>
	<path d="M38.4,3.4H12c-4.8,0-8.6,3.9-8.6,8.6v26.4c0,4.8,3.9,8.6,8.6,8.6h26.4c4.8,0,8.6-3.9,8.6-8.6V12
		C47.1,7.3,43.2,3.4,38.4,3.4z M35.8,37.5c-3.9,0-7.1-2.8-7.7-6.5h-5.9c-0.6,3.7-3.8,6.5-7.7,6.5c-4.3,0-7.8-3.5-7.8-7.8
		c0-1.3,0.3-2.5,0.9-3.6h0c0,0,0,0,0,0c0.1-0.3,0.3-0.5,0.5-0.8c1.8-2.9,3.5-5,5.4-8c2.5-3.8,5.9-5.7,9.1-3.4
		c0.5,0.4,0.5,1.1,0.2,1.7c-0.3,0.5-1.1,0.8-1.9,0.3c-1.8-1-3.1-0.4-4.4,1.4c-0.4,0.5-2.4,3.3-3.5,4.8c0.5-0.1,1-0.2,1.5-0.2
		c4,0,7.2,2.9,7.7,6.8h5.8c0.5-3.8,3.8-6.8,7.7-6.8c0.5,0,1,0.1,1.5,0.2c-1.1-1.5-3.1-4.3-3.5-4.8c-1.3-1.8-2.6-2.4-4.4-1.4
		c-0.9,0.5-1.7,0.2-1.9-0.3c-0.3-0.6-0.4-1.3,0.2-1.7c3.2-2.3,6.6-0.4,9.1,3.4c1.9,2.9,3.7,5.1,5.4,8c0.2,0.2,0.3,0.5,0.5,0.8
		c0,0,0,0,0,0c0.6,1.1,0.9,2.3,0.9,3.6C43.6,34,40.1,37.5,35.8,37.5z"/>
	<path d="M14.6,24.2c-3,0-5.5,2.5-5.5,5.5c0,3,2.5,5.5,5.5,5.5c3,0,5.5-2.5,5.5-5.5S17.7,24.2,14.6,24.2z M17.5,29.8
		c-0.4,0.8-2.8,2.9-2.9,3c0,0,0,0-0.1,0c0,0,0,0-0.1,0c-0.1-0.1-2.5-2.2-2.9-3c-0.2-0.4-0.2-0.8-0.1-1.2s0.4-0.7,0.8-0.9
		c0.2-0.1,0.5-0.2,0.7-0.2c0.6,0,1.1,0.3,1.4,0.8c0,0,0,0,0,0c0.3-0.5,0.8-0.8,1.4-0.8c0.2,0,0.5,0.1,0.7,0.2
		c0.4,0.2,0.7,0.5,0.8,0.9C17.8,28.9,17.7,29.4,17.5,29.8z"/>
</g>
</svg>
