<?xml version="1.0" encoding="utf-8"?>
<!-- Generator: Adobe Illustrator 22.1.0, SVG Export Plug-In . SVG Version: 6.00 Build 0)  -->
<svg version="1.1" id="Layer_1" xmlns="http://www.w3.org/2000/svg" xmlns:xlink="http://www.w3.org/1999/xlink" x="0px" y="0px"
	 viewBox="0 0 50.5 50.5" style="enable-background:new 0 0 50.5 50.5;" xml:space="preserve">
<style type="text/css">
	.st0{fill:#12B5E1;}
</style>
<title>dni</title>
<g>
	<path class="st0" d="M41.4,5.1H9.1c-3.2,0-5.8,2.6-5.8,5.8c0,3.2,2.6,5.8,5.8,5.8h2.1v24.1c0,1.3,1.1,2.4,2.4,2.4h0.1
		c0.1,1.3,1.1,2.3,2.4,2.3h20.8c1.3,0,2.4-1.1,2.4-2.4V16.6h2c3.2,0,5.8-2.6,5.8-5.8C47.2,7.7,44.6,5.1,41.4,5.1z M11.2,14.4H9.1
		c-2,0-3.6-1.6-3.6-3.6c0-2,1.6-3.6,3.6-3.6h2.1V14.4z M13.6,41.5c-0.5,0-0.8-0.4-0.8-0.8V7.3h22.5v33.4c0,0.5-0.4,0.8-0.8,0.8H13.6
		z M37.7,43c0,0.5-0.4,0.8-0.8,0.8c0,0,0,0,0,0H16.1c-0.4,0-0.8-0.3-0.8-0.7h19.2c1.3,0,2.4-1.1,2.4-2.4V7.3h0.9V43z M41.4,14.4h-2
		V7.3h2c2,0,3.6,1.6,3.6,3.6C44.9,12.8,43.3,14.4,41.4,14.4z"/>
	<path class="st0" d="M24,16.7c-2.8,0-5,3.3-5,7.4s2.3,7.4,5,7.4c2.8,0,5-3.3,5-7.4S26.8,16.7,24,16.7z M24.6,27.7v0.6
		c0,0.3-0.2,0.5-0.4,0.5c0,0,0,0,0,0c-0.3,0-0.5-0.2-0.5-0.5v0v-0.7c-0.8-0.1-1.5-0.4-2.2-0.8c-0.2-0.1-0.3-0.3-0.3-0.5
		c0-0.3,0.3-0.6,0.6-0.6c0.1,0,0.2,0,0.4,0.1c0.5,0.4,1,0.6,1.6,0.7v-2.1c-1.6-0.4-2.3-1-2.3-2.2s0.9-1.9,2.3-2.1V20
		c0-0.3,0.2-0.5,0.5-0.5c0,0,0,0,0,0c0.3,0,0.5,0.2,0.5,0.4c0,0,0,0,0,0v0.2c0.6,0.1,1.2,0.3,1.7,0.6c0.2,0.1,0.3,0.3,0.3,0.5
		c0,0.3-0.3,0.6-0.6,0.6c0,0,0,0,0,0c-0.1,0-0.2,0-0.3-0.1c-0.3-0.2-0.7-0.4-1.1-0.5v2.1c1.6,0.4,2.3,1.1,2.3,2.2
		C26.9,26.8,26,27.6,24.6,27.7z"/>
	<path class="st0" d="M22.7,22.2c0,0.5,0.2,0.7,1,1v-1.9C23,21.3,22.7,21.7,22.7,22.2z"/>
	<path class="st0" d="M24.5,24.7v2c0.7-0.1,1.1-0.4,1.1-0.9S25.4,24.9,24.5,24.7z"/>
</g>
</svg>
