<?xml version="1.0" encoding="utf-8"?>
<!-- Generator: Adobe Illustrator 22.1.0, SVG Export Plug-In . SVG Version: 6.00 Build 0)  -->
<svg version="1.1" id="Layer_1" xmlns="http://www.w3.org/2000/svg" xmlns:xlink="http://www.w3.org/1999/xlink" x="0px" y="0px"
	 viewBox="0 0 50.5 50.5" style="enable-background:new 0 0 50.5 50.5;" xml:space="preserve">
<style type="text/css">
	.st0{fill:#12B5E1;}
</style>
<title>dni</title>
<g>
	<g>
		<path class="st0" d="M41.3,5.2H9.1c-3.2,0-5.8,2.6-5.8,5.8c0,3.2,2.6,5.8,5.8,5.8h2.1v24c0,1.3,1.1,2.4,2.4,2.4h0.1
			c0.1,2.3,2,4.1,4.3,4.1l1.9,0v0h0l1.6,0l5.6,0l7.2,0h0v0l1.9,0c2.4,0,4.3-1.9,4.3-4.3V16.7h0.8c3.2,0,5.8-2.6,5.8-5.8
			C47.1,7.8,44.5,5.2,41.3,5.2z M11.2,14.5H9.1c-2,0-3.6-1.6-3.6-3.6c0-2,1.6-3.6,3.6-3.6h2.1V14.5z M23.9,16.8c2.8,0,5,3.3,5,7.4
			s-2.3,7.4-5,7.4s-5-3.3-5-7.4C18.9,20.1,21.1,16.8,23.9,16.8z M38.6,43c0,1.3-1.1,2.4-2.4,2.4l-9.1,0l-6.1,0l-3,0
			c-1.3,0-2.3-1-2.4-2.2h18.8c1.3,0,2.4-1.1,2.4-2.4V7.4c0.6,0,1.2,0,1.8,0V43z M41.3,14.5h-0.8V7.4h0.8c2,0,3.6,1.6,3.6,3.6
			C44.9,12.9,43.3,14.5,41.3,14.5z"/>
		<path class="st0" d="M21.4,26.9c0.6,0.5,1.4,0.7,2.2,0.8v0.7c0,0,0,0,0,0c0,0.3,0.2,0.5,0.5,0.5c0,0,0,0,0,0
			c0.3,0,0.5-0.2,0.4-0.5v-0.6c1.4-0.1,2.3-0.9,2.3-2.1c0-1.2-0.7-1.8-2.3-2.2v-2.1c0.4,0.1,0.7,0.3,1.1,0.5
			c0.1,0.1,0.2,0.1,0.3,0.1c0,0,0,0,0,0c0.3,0,0.6-0.3,0.6-0.6c0-0.2-0.1-0.4-0.3-0.5c-0.5-0.3-1.1-0.5-1.7-0.6V20c0,0,0,0,0,0
			c0-0.3-0.2-0.5-0.5-0.4c0,0,0,0,0,0c-0.3,0-0.5,0.2-0.5,0.5v0.2c-1.3,0.1-2.3,0.8-2.3,2.1s0.7,1.8,2.3,2.2v2.1
			C23,26.6,22.5,26.3,22,26c-0.1-0.1-0.2-0.1-0.3-0.1c-0.3,0-0.6,0.3-0.6,0.6C21.1,26.6,21.2,26.8,21.4,26.9z M24.5,24.7
			c0.8,0.3,1.1,0.5,1.1,1s-0.4,0.9-1.1,0.9V24.7z M22.6,22.3c0-0.5,0.3-0.8,1-0.9v1.9C22.8,23,22.6,22.7,22.6,22.3z"/>
	</g>
</g>
</svg>
