<?xml version="1.0" encoding="utf-8"?>
<!-- Generator: Adobe Illustrator 22.1.0, SVG Export Plug-In . SVG Version: 6.00 Build 0)  -->
<svg version="1.1" id="Layer_1" xmlns="http://www.w3.org/2000/svg" xmlns:xlink="http://www.w3.org/1999/xlink" x="0px" y="0px"
	 viewBox="0 0 50.5 50.5" style="enable-background:new 0 0 50.5 50.5;" xml:space="preserve">
<style type="text/css">
	.st0{fill:#12B5E1;}
</style>
<g>
	<path class="st0" d="M40.4,37.2c-1.4,0.4-2.8,0.5-4.2,0.9c2.3-1.9,2.1-4.9,3.6-7.2c0.5-0.6,0.9-1.3,1.4-1.9c-0.9,1.8-0.5,4.2-1.6,6
		c-0.4,0.7-1,1.4-1.6,2c0.2,0,0.4-0.2,0.6-0.3c1.7-1.7,3.9-2.2,5.8-3.6c0.7-0.6,1.4-1.4,1.7-2.2C45.9,33.7,43.1,36.4,40.4,37.2z"/>
	<path class="st0" d="M46.6,25.8c-0.8,1.2-1.8,2.3-2.6,3.5c0.1-1,0.2-2.1-0.2-3c-0.6-2-1.2-3.9-1.4-6.1l0-0.8
		c0.5,2.2,2.6,3.7,2.5,6.2c0.1,0.6-0.1,1.1-0.2,1.6l0,0l0.1-0.1c0.3-1.2,0.5-2.5,1-3.6c0.7-1.6,1.6-3.3,1.2-5.2
		C48.1,20.5,47.8,23.6,46.6,25.8z"/>
	<path class="st0" d="M45.3,13.4c1.4,1.9,1.7,5,0.7,7.1c-0.4,0.9-0.7,1.9-0.8,2.9c-0.1-0.2-0.1-0.4-0.2-0.6
		c-0.6-2.1-2.6-3.7-3.4-5.7c-0.3-0.7-0.5-1.3-0.6-2.1c0.9,1.6,3.1,2.5,3.7,4.3c0.2,0.5,0.2,1,0.4,1.5c0,0,0.1,0,0.1-0.1
		c-0.3-1.9-0.2-3.8,0.1-5.7c0-1-0.1-2-0.7-2.7C44.9,12.7,45,13.1,45.3,13.4z"/>
	<path class="st0" d="M44.3,13c0.4,1.7-0.2,3.3,0.2,5l0,0c-0.9-1.8-2.8-2.6-4.2-4.1c-0.8-0.9-1.1-1.9-1.3-3c0.8,1.8,2.8,2.2,4,3.8
		c0.4,0.4,0.5,0.9,0.8,1.3l0,0c-0.7-1.4-0.9-3.1-1.4-4.6c-0.2-0.7-0.7-1.3-1.3-1.7C42.6,9.9,43.9,11.5,44.3,13z"/>
	<path class="st0" d="M40.1,9.2c1.2,1,1.7,2.4,2,3.8l0.2,0.4c-1.7-1.2-3.2-2.9-4.3-4.6l-1.3-1.3C37.9,8,39.1,8.3,40.1,9.2z"/>
	<path class="st0" d="M13.4,7.7c-1.2,1-2,2.3-2.9,3.5c-0.8,1-1.8,1.6-2.7,2.4c0.5-1,0.5-2.2,1.2-3.1C10,8.9,11.8,8.3,13.4,7.7z"/>
	<path class="st0" d="M7,11.3c0.6-0.7,1.3-1.2,2.1-1.4c-1.6,1.1-1.5,3-2,4.6c-0.2,0.6-0.4,1.1-0.6,1.8l0,0c0.3-0.7,0.7-1.3,1.3-1.9
		c1.1-1,2.8-1.7,3.3-3.2c0,2.1-1.8,3.8-3.5,5c-0.7,0.6-1.4,1.3-1.8,2.1c0-0.5,0.1-1.1,0-1.7C5.8,14.8,5.6,12.7,7,11.3z"/>
	<path class="st0" d="M3.8,17.6c0-1.9,0.7-3.4,1.8-4.8c0,0,0.1,0,0.1,0c-1.2,1.8-0.2,4.2-0.3,6.3l-0.2,2.1c0,0,0,0.1,0.1,0.1
		c0.1-0.2,0.1-0.5,0.1-0.7c0.3-1.7,1.8-3,3.1-4.2c0.3-0.3,0.5-0.6,0.7-1c-0.1,0.9-0.4,1.7-0.7,2.5c-1,2-2.9,3.6-3.2,5.9
		C5.1,21.6,3.6,19.9,3.8,17.6z"/>
	<path class="st0" d="M2.8,20.3c0.1-0.6,0.2-1.2,0.5-1.7C2.9,21,4.5,22.8,5.1,25c0.2,0.8,0.3,1.7,0.6,2.4c0,0,0.1,0,0.1,0
		C5,25.1,6.1,23,7.3,21.2c0.3-0.5,0.5-1,0.6-1.6c0.1,1-0.1,2.2-0.3,3.3c-0.3,1.4-0.7,2.7-1.1,4c-0.2,0.8-0.2,1.8-0.1,2.6l-0.1-0.1
		c-0.9-1.6-2.6-2.9-3.1-4.6C2.8,23.4,2.6,21.8,2.8,20.3z"/>
	<path class="st0" d="M2.8,25.2c0.2,2.6,3,4,4.3,6.2c0.3,0.4,0.6,0.9,1,1.3c-0.1-0.3-0.3-0.5-0.4-0.8c-0.5-0.9-0.6-2-0.5-3.1
		c0.1-1.3,0.7-2.6,0.5-4c1.2,2.5,0.8,5.6,1.5,8.3c0.2,0.6,0.5,1.1,0.7,1.7c-2.4-1.6-5.6-3.2-6.7-6.1C2.7,27.6,2.7,26.3,2.8,25.2z"/>
	<path class="st0" d="M4.2,31.2c1.3,3,4.6,3.2,6.9,5.1c0.4,0.4,0.8,0.7,1.3,0.9l0,0c-0.5-0.5-1.1-1-1.5-1.6
		c-1.3-1.8-0.8-4.3-1.8-6.3c0.9,1.1,1.7,2.2,2.2,3.4c0.8,2,1.1,4.2,2.9,5.7c-2-0.7-4.3-0.5-6.1-1.7C6.3,35.4,4.5,33.4,4.2,31.2z"/>
	<path class="st0" d="M7.6,36.8c2.1,2.4,5.6,1.6,8.4,2.2c0.4,0.1,0.8,0.2,1.2,0.1C16.9,39,16.4,39,16,38.8c-2.2-0.8-2.6-3.2-3.7-4.8
		c1.5,1,2.8,2.4,4.2,3.7c1,0.9,2.2,1.3,3.5,1.6c-0.3,0.1-0.7,0.1-1.1,0.2c-2.3,0.6-4.9,1.5-7.4,0.7C10,39.6,8.4,38.4,7.6,36.8z"/>
	<path class="st0" d="M36.4,42.4c-2.4,0.9-4.9,0-6.7-1.5c-0.8-0.5-1.4-1.2-2.4-1.1c-0.3,0-0.7,0-1,0.1c1.8,0.8,3.5,2,5,3.5
		c-0.3,0.3-0.6,0.6-0.9,0.8c-1.5-1.6-3.1-3.1-5-4c-0.4,0-0.7,0.3-1,0.4c-1.5,1-3,2.2-4.1,3.7l-1-0.8c1.5-1.5,3.2-2.7,5.1-3.6
		c-1.8-0.6-3,0.9-4.4,1.7c-1.6,1.1-3.9,1.6-5.9,0.9c-1-0.4-2.1-1-2.8-1.9c1.5,1.1,3.8,1.2,5.5,0.5c2.3-1,4.8-2.3,7.6-1.7
		c0.4,0,0.9,0.4,1.3,0.1c2.1-0.5,4.4-0.2,6.3,0.8l1.9,0.7c1.7,0.6,4,0.5,5.4-0.6C38.5,41.4,37.4,42,36.4,42.4z"/>
	<path class="st0" d="M38.9,39.9c-2.7,1-5.4-0.2-8-0.6l-0.5-0.1v0c1.2-0.3,2.4-0.6,3.4-1.5c1.4-1.4,2.7-2.8,4.3-3.9
		c-1.2,1.5-1.3,3.7-3.3,4.7c-0.5,0.3-1.1,0.4-1.6,0.6c0.7,0,1.4-0.2,2.1-0.3c2.6-0.4,5.6,0,7.5-2.2C42.2,38.1,40.5,39.4,38.9,39.9z"
		/>
	<path class="st0" d="M43.8,32.4c-1,0.7-2.1,1.3-3.2,2.1v-0.1c1.6-2.6,0.8-6.2,1.8-9l0.4-1c-0.2,1.8,0.6,3.3,0.5,5.1
		c-0.1,1.1-0.4,2-1,2.9h0.1c0.8-1,1.4-2.1,2.3-3c1.4-1.3,2.8-2.7,3-4.6C48.1,27.9,46.4,30.6,43.8,32.4z"/>
	<path class="st0" d="M39.6,15.2C37,9.7,31.2,6.1,25.2,6.1c-2.6,0-5,0.6-7.2,1.7c-3.9,1.9-7.1,5.9-8.2,10
		c-1.8,6.8,0.6,13.7,6.4,17.6c4.2,3,10.9,3.6,15.6,1.3c4.2-1.7,7.8-6.1,8.8-10.3C41.7,22.8,41.2,18.4,39.6,15.2 M40.3,20.9
		c0,0.3,0,0.6,0.1,0.8l-2.3,0c0,0-0.1,0.1-0.2,0.1l0.1-0.1c0-1.8-0.5-3.4-1.2-4.9c0-0.7-0.7-1.1-1-1.7c-0.5-0.4-0.7-1-1.2-1.3
		c-0.1-0.1-0.2-0.3-0.3-0.4l0.3-0.1c0.5-0.6,1.1-1.1,1.6-1.7C38.5,14.3,40,17.3,40.3,20.9 M33.8,29.5c-0.2-0.2-0.2-0.6-0.6-0.6
		c-0.1,0-0.2,0.1-0.2,0.2c0,0.1,0,0.1,0,0.2l-0.7-0.6c0.3-0.2,0.6-0.6,0.9-1c0.7-0.9,1.1-2,1.4-3c0.1,0.1,0.3,0.1,0.4,0
		c0.1-0.1,0.1-0.3,0.1-0.4L34.8,24c0-0.5,0.2-1,0.1-1.4l0.2,0c0.7,0,1.5,0,2.2,0l-0.1,0.1C37,25.6,36,28.2,34,30.3
		C34.1,30,33.8,29.8,33.8,29.5 M32,31.8c-0.4-0.4,0.3-0.7,0.4-1.1c-0.1-0.4-0.5-0.6-0.8-0.7c-0.1-0.1-0.1-0.3-0.1-0.4
		c0.1-0.1,0.3-0.3,0.4-0.5l0.1,0.2l1,1c0,0.2,0,0.4,0.3,0.5c0.1,0.1,0.2,0,0.3,0h-0.1c-0.4,0.5-0.9,0.8-1.4,1.2l-0.1,0.2
		C31.8,32,32.1,32,32,31.8 M27.5,19.4c-0.1,0-0.3,0.1-0.4,0.1c-0.1-0.1-0.3-0.3-0.5-0.4c-0.1,0-0.3,0.2-0.4,0.1
		c0.3-0.3,0.8-0.4,1-0.8c0.1-0.2,0.1-0.4,0.1-0.6c-0.1-0.1-0.2-0.2-0.3-0.1c-0.2,0.3-0.5,0.3-0.7,0.6l-0.6-0.2
		c-0.1-0.5,0-1.2-0.1-1.6c0.3,0.1,0.6,0.1,1,0.2c0.8,0.2,1.6,0.6,2.3,1c-0.2,0.1-0.3,0.3-0.5,0.4c0,0.1,0.1,0.1,0.2,0.2l0.2-0.1
		C28.4,18.9,27.6,18.8,27.5,19.4 M28.2,26c0,0.3-0.4,0.3-0.6,0.5c-0.1,0,0-0.1,0-0.2C27.8,26.1,27.9,26,28.2,26 M32.7,18.4
		c0.3,0.1,0.4,0.4,0.7,0.4c0.2,0.4,0.3,0.8,0.5,1.2c-0.2,0.2-0.2,0.8-0.7,0.7c-0.1-0.3,0.2-0.4,0.1-0.6c0.1-0.1,0.2-0.1,0.2-0.2
		c0-0.2-0.3-0.2-0.4-0.4c-0.1-0.1-0.3-0.1-0.4-0.2c-0.3-0.1-0.6,0.6-0.7,0c0.1-0.1,0.2-0.2,0.1-0.3c-0.3-0.1-0.3-0.5-0.6-0.6
		c-0.4,0-0.7-0.2-1.1-0.1c-0.3-0.1-0.5-0.2-0.7,0c0,0.2-0.1,0.4-0.2,0.6c-0.1,0-0.2-0.1-0.2-0.2c0.7-0.8,1.5-1.6,2.2-2.3l0-0.1
		c0.4,0.5,0.8,0.9,1.1,1.4C32.8,17.9,32.2,18.2,32.7,18.4 M34.1,22.6C33.9,23,34,23.5,33.9,24c0,0.1,0,0.2-0.1,0.2
		c-0.1-0.3-0.3-0.6-0.6-0.8c-0.3-0.1-0.1-0.5-0.3-0.7l-0.2-0.2C33.1,22.7,33.6,22.6,34.1,22.6 M30.8,15.8c-0.4,0.5-1,0.9-1.3,1.4
		l-0.1-0.2c-1-0.9-2.3-1.3-3.6-1.5l-0.2,0l0-2.2l-0.1-0.2c0.9,0.1,1.8,0.3,2.6,0.5c1,0.4,2,0.9,2.9,1.7l0.2,0.1L30.8,15.8
		 M28.6,27.6c0.7,0.1,1.4,0.2,2,0.5c0.2,0,0.3,0,0.4-0.1c0-0.3,0.3-0.4,0.3-0.6c0.1-0.2,0-0.5,0.2-0.7c0-0.3,0-0.6-0.2-0.8
		c-0.2-0.1-0.3,0-0.5,0.1c-0.2,0.1-0.1,0.6-0.5,0.5c-0.1,0.1-0.2,0.1-0.3,0.1c0,0-0.1,0-0.1-0.1c0.2-0.1,0.7,0,0.7-0.4
		c0.2-0.2,0.4-0.1,0.6-0.3c0.1-0.2,0.2-0.4,0.3-0.5c0-0.1,0-0.2,0-0.2c0,0.1,0,0.3,0.2,0.3c0.2,0.1,0.3-0.1,0.3-0.2
		c0-0.1,0-0.2,0.1-0.1c0.2,0.2,0.5,0,0.7,0c0.2-0.1,0.4-0.1,0.6-0.1c-0.2,0.9-0.6,1.7-1.2,2.5c-0.2,0.2-0.4,0.5-0.6,0.7
		c-0.1-0.2-0.1-0.4-0.2-0.6l-0.1,0c-0.1,0.3-0.4,0.5-0.4,0.8c-0.2,0.3-0.7,0-1,0.2c-0.3,0.1-0.5-0.2-0.8-0.3
		c-0.3-0.1-0.7-0.1-0.9-0.3C28.5,27.7,28.5,27.7,28.6,27.6 M27.1,7.1c3.2,0.4,6,1.7,8.5,4l-0.3,0.1c-0.4,0.5-1,0.8-1.2,1.4
		c0-0.2-0.3-0.3-0.3-0.4c0-0.4-0.5-0.8-0.8-1.1c-0.3-0.1-0.4-0.5-0.8-0.4c-0.3-0.3-0.7-0.1-1,0.1v0c-1.5-0.9-3.2-1.4-5-1.5
		c-0.1,0-0.1,0.1-0.2,0.1c0.1-0.1,0-0.3,0-0.4c-0.1-0.1-0.1-0.2-0.3-0.1c0,0.1-0.1,0.1-0.1,0.2c0-0.7,0.1-1.6,0-2.2
		C26,7.1,26.6,7,27.1,7.1 M26.5,10.3c1.4,0.2,2.6,0.5,3.9,1.1c0.2,0.3,0.5,0.4,0.6,0.8c-0.2,0.5,0.6,0.5,0.3,1
		c0,0.2,0.1,0.2,0.2,0.4c0,0.1,0,0.3,0.1,0.4c0.3,0.1,0.4-0.3,0.7-0.2c0.4,0.3,0.4,0.7,0.4,1.1c0.1,0.3,0.3,0.4,0.5,0.5
		c0.5-0.1,0.3,0.4,0.6,0.5c0.4,0,0.6,0.5,1,0.5c0.4,0.3,0.6,0.7,0.9,1c0,0.1,0,0.1,0.1,0.2c0.2,0,0.3-0.1,0.5-0.1
		c0.6,1.3,0.9,2.6,1,4.1l0.1,0.1c-0.8,0-1.6,0-2.3,0.1c0-0.5,0-0.9-0.2-1.3c0.1-0.2,0.1-0.6,0.1-0.8c0-0.1-0.1,0-0.2,0
		c-0.3,0.2-0.3,0.6-0.4,0.9c-0.2,0.3-0.2,0.8-0.1,1.1l0.1,0.1l-0.9,0c0.2-0.1-0.2-0.4,0-0.6l0.4-0.1c0.1-0.3,0.4-0.5,0.4-0.9
		c0.2-0.2,0.3-0.5,0.2-0.8c-0.2-0.4,0.3-0.9-0.1-1.3c0-0.1,0-0.3-0.2-0.3c-0.1,0-0.3,0-0.3-0.2c0.1-0.1,0.3-0.2,0.2-0.4
		c-0.1-0.1-0.2,0-0.4,0c0-0.2,0.3-0.4,0-0.6c-0.2,0-0.3,0.2-0.5,0.1c-0.1-0.1-0.2-0.2-0.1-0.3l-0.5-0.6c0-0.1-0.2,0-0.2-0.1
		c0-0.5-0.5-0.7-0.6-1.2c-0.2-0.2,0-0.5-0.3-0.6c-0.1-0.1-0.3-0.2-0.4-0.1c-0.2-0.3-0.4-0.6-0.7-0.8c-0.1,0-0.1,0-0.2,0.1
		c0,0.2,0.3,0.3,0.3,0.6c0,0-0.1,0-0.1,0c0,0.2,0.2,0.4,0.4,0.6c-1.3-1-2.7-1.5-4.3-1.7c-0.3,0-0.6-0.1-0.9,0c0.1-0.7,0-1.5,0-2.2
		l-0.1-0.1C25.8,10.3,26.1,10.3,26.5,10.3 M25.1,19.5l0.1,0.1c-0.2,0-0.4-0.1-0.5,0c-0.1,0.1,0,0.2,0,0.3c0.3,0.1,0.3,0.6,0.7,0.4
		c0.2,0,0.4,0.1,0.4,0.3c0.2,0.1,0.3,0.5,0.6,0.4c0,0.2-0.1,0.4,0.1,0.5c0,0.1-0.2,0.2-0.2,0.4c0,0-0.1,0.1,0,0.2
		c0.3,0,0.3,0.4,0.4,0.6c-0.1,0.2,0,0.5,0.2,0.6c0,0.3-0.2,0.5-0.3,0.7c-0.3,0.2-0.8-0.2-0.9,0.3c-0.2,0.2,0,0.6-0.4,0.6
		c-0.7,0-1.3-0.1-1.8-0.5c0.3-0.2,0.9,0.1,1-0.4c0.1-0.1,0.1-0.2,0.1-0.3c0.1-0.2,0.2-0.3,0.3-0.5c-0.1-0.1-0.1-0.2,0-0.3
		c-0.3-0.3-0.8-0.2-1.2-0.2c-0.2,0.1,0,0.4-0.2,0.6c-0.3,0-0.3,0.4-0.5,0.5c-0.1-0.1-0.2-0.2-0.2-0.4h0c0,0.1,0,0.1,0.1,0.1
		c0.3,0,0.2-0.3,0.3-0.4c0-0.2,0.5-0.5,0.1-0.6c0-0.1,0-0.2-0.1-0.2c-0.1,0-0.3,0-0.3,0.2c0.1,0.1,0,0.3-0.1,0.4h-0.1
		c0-0.1,0-0.2-0.1-0.2c-0.2,0-0.3,0.1-0.5,0.1c-0.3,0.1-0.5,0.1-0.8,0.1c0-0.2,0.2-0.1,0.3-0.2c0-0.2,0.1-0.4,0.2-0.6
		c0.1-0.1,0.2,0,0.3,0c0.1,0.1,0.1,0.1,0.2,0.1l0.1-0.1c0.2,0.1,0.1,0.8,0.6,0.5c0.1-0.3,0-0.6,0.1-0.9c-0.1-0.3,0.2-0.4,0.2-0.5
		c0.2,0,0.2-0.3,0.3-0.4c0.4-0.1,0.8-0.2,1-0.6c-0.1-0.2,0-0.5-0.2-0.6C24.7,19.4,25,19.3,25.1,19.5 M24.8,34.3l-0.2-0.2
		c-3-0.2-5.5-1.4-7.7-3.3c0.4,0,0.5,0.4,0.9,0.3c0.4-0.1,0.8-0.4,1.2-0.3c0.2,0,0.5,0,0.6-0.2c0.1-0.2-0.2-0.4-0.2-0.5
		c1.5,1.1,3.2,1.8,5.1,1.9l0.2-0.1V34L24.8,34.3 M16.4,22.8l-0.1-0.2c0.2,0.2,0.5,0.1,0.8,0.1c-0.4,0.1-0.2,0.6-0.4,0.9
		c0,0.1,0.2,0.2,0.2,0.3c-0.2,0.1-0.2,0.3-0.3,0.4C16.6,23.8,16.4,23.3,16.4,22.8 M14,25.5c-0.2,0-0.2,0.3-0.2,0.4
		c0-0.6-0.2-1.1-0.3-1.7l-0.2-1.5l-0.1-0.1c0.7,0.1,1.5,0,2.2,0.1l0.2-0.1c-0.1,0.4-0.1,0.9,0.2,1.2c-0.1-0.1-0.2-0.4-0.4-0.4
		c-0.4,0-0.4,0.6-0.8,0.6c-0.3,0.3-0.4,0.7-0.5,1C14.2,25.2,13.9,25.3,14,25.5 M15.6,21.8l-0.2-0.1l-2.2,0c0.2-2.4,0.9-4.7,2.3-6.6
		l0.9-1.1l0-0.2c0.5,0.6,1.1,1.2,1.7,1.7c-1.6,1.7-2.4,3.7-2.5,6C15.6,21.7,15.5,21.8,15.6,21.8 M24.7,12.5
		c-0.4-0.1-0.8,0.1-1.3,0.1c-1.8,0.4-3.4,1.1-4.8,2.4l-0.1-0.1c-0.5-0.5-1-1.1-1.6-1.5c0.5-0.3,1-0.7,1.5-1.1
		c1.8-1.2,3.9-1.9,6.2-2.1C24.6,11,24.6,11.8,24.7,12.5 M21.1,24.6c0,0.1,0.1,0.2,0.2,0.1c0.1-0.1-0.2-0.3,0-0.4
		c0.1,0.1,0.1,0.4,0.1,0.5c0.1,0.1,0.1,0.2,0.1,0.3c-0.2,0.3-0.5,0.5-0.7,0.8c-0.1-0.4-0.5-0.6-0.6-1c-0.2-0.4-0.3-0.9-0.6-1.3
		c0.2,0.2,0.7,0,0.7,0.4c0,0,0.1,0,0.1,0c0.1-0.1,0.1-0.1,0.2,0c0,0.1,0.2,0.1,0.1,0.2C20.8,24.4,20.9,24.5,21.1,24.6 M23.5,30.8
		l0.4,0.2c-1.4-0.3-2.9-0.8-4.1-1.8c-0.2-0.1-0.3-0.4-0.6-0.4c0.6-0.5,1.1-1.1,1.6-1.6c0.2,0.4,0.7,0.6,1,0.8
		c0.6,0.3,1.2,0.8,1.9,0.6c-0.2,0.1-0.4,0.2-0.6,0.4c-0.1,0.2-0.1,0.5-0.3,0.6C22.8,30.1,23.2,30.4,23.5,30.8 M18.4,28l-0.1-0.5
		c-0.5-0.4-0.3-1.1-0.4-1.6c-0.3-0.3-0.1-0.7-0.3-1c0-0.5-0.7-0.6-0.5-1.1c-0.1-0.1-0.2-0.3-0.1-0.5c0.1-0.2,0.5,0,0.5-0.2l0.1-0.4
		c0.2-0.1,0.4,0.1,0.5-0.1c0.2-0.4-0.6-0.9,0-1.1c0.2,0,0.5-0.1,0.6,0.2c0,0.3,0.1,0.6,0,0.9c0.2,0.1,0,0.3,0,0.4
		c-0.1,0.1-0.3,0.2-0.4,0.1c-0.1-0.1-0.2-0.3-0.3-0.3c-0.1,0.2,0,0.3,0,0.5c0,0.1,0,0.2-0.1,0.3c-0.1,0-0.1-0.1-0.2-0.1
		c-0.1,0.1,0,0.2,0,0.3c0.1,0.1,0.2,0.2,0.4,0.2l0.1-0.1c0-0.3,0.1-0.4,0.1-0.7l0.2,0.1c0.2,1,0.7,1.9,1.2,2.7l0.3,0.3
		c-0.7,0.6-1.4,1.4-2,2.1v0c0,0,0-0.2-0.1-0.1C18,28.2,18.5,28.3,18.4,28 M19.5,18.5c-0.2,0.1-0.4,0.4-0.5,0.6
		c-0.2,0.1-0.4,0.1-0.6,0.3c0,0.1,0.1,0.2,0,0.3c-0.2,0.2-0.6,0-0.7,0.3c0,0.3-0.4,0.5-0.4,0.8c-0.2,0.1-0.2,0.4-0.1,0.6
		c0.1,0.1,0,0.4,0.1,0.5c-0.3,0-0.7-0.1-1,0c0.2-0.4,0.1-0.8,0.2-1.2c0.3-1.6,1-3.1,2.1-4.4c0.5,0.5,1.1,1.2,1.8,1.6
		C20,17.9,20,18.6,19.5,18.5 M24.4,27.1c-0.1,0.2,0,0.5-0.1,0.7c-1.1-0.2-2-0.6-2.9-1.3c0.5-0.5,1.1-1,1.5-1.6
		c0,0.3,0.3,0.4,0.6,0.5c0.4,0.2,0.9,0.5,1.4,0.3c0,0-0.1,0.1-0.1,0.1c0.1,0.1-0.1,0.3,0.1,0.4c0,0.1-0.1,0.1-0.1,0.2
		c0.1,0.1,0,0.4,0.2,0.5c0.1,0.1,0,0.2-0.1,0.2C24.7,27,24.5,26.9,24.4,27.1 M21.8,24.7c0.1-0.1,0.3-0.3,0.3-0.5l0.3,0.1
		C22.2,24.4,22.1,24.6,21.8,24.7L21.8,24.7 M24.1,18.2c0-0.1,0.1-0.2,0-0.3c-0.4,0.2-0.2,0.6-0.5,0.8c0,0.2-0.3,0.1-0.4,0.2
		c-0.1-0.1-0.3-0.1-0.4-0.1c-0.2,0-0.2-0.4-0.4-0.2c-0.1,0.1,0,0.2-0.2,0.1c0-0.1-0.1-0.1-0.1-0.1c0-0.1,0.2-0.1,0.1-0.2
		c-0.1-0.3-0.5-0.2-0.6-0.4h-0.2c0.9-1,2.1-1.4,3.4-1.6c0,0.6-0.1,1.2,0.1,1.7C24.6,18,24.3,18.4,24.1,18.2 M24.7,15.7
		c-0.4-0.1-0.8,0.1-1.2,0.1c-0.9,0.2-1.7,0.7-2.4,1.3c0,0.1-0.1,0.1-0.1,0.2c-0.5-0.5-1.1-1.2-1.7-1.6c1.5-1.3,3.3-2.1,5.3-2.3
		l0.1-0.1C24.6,14.1,24.6,14.9,24.7,15.7 M16.1,10c2.5-1.8,5.4-2.9,8.6-3l-0.1,0.2l0,1.9l0.1,0.2c-3.1,0.1-5.8,1.3-8.1,3.4l0,0.1
		c-0.5-0.6-1.1-1.2-1.8-1.7h-0.1C15.2,10.9,15.6,10.4,16.1,10 M10.1,20.4c0.4-3.3,1.8-6.2,4.1-8.7l0.1,0.2c0.5,0.5,1.1,1.1,1.6,1.6
		c-0.4,0.3-0.7,0.8-1.1,1.2c-1.4,2-2.2,4.3-2.4,6.8l0.1,0.3c-0.8-0.1-1.7-0.1-2.5,0C10.1,21.3,10.1,20.8,10.1,20.4 M12,29.7
		c-1.1-2.1-1.8-4.4-2-7l2.2,0l0.2-0.1c0,0.1,0,0.3,0,0.4l0,0c-0.1,0,0.1,0.1,0,0.1c0,0.8,0.2,1.6,0.4,2.4l0.1,0.2
		c-0.2-0.2-0.2-0.3-0.4-0.5c-0.2,0-0.4,0.1-0.5,0.2c0.1,0.2-0.1,0.2-0.2,0.2c0,0-0.1-0.1-0.2-0.1c-0.2,0-0.3,0-0.4,0.2
		c0,0.1-0.1,0.2-0.2,0.3c0,0.4-0.2,0.8,0.1,1.1c0,0.3,0.1,0.5,0.3,0.7c0.1,0,0.1,0,0.2-0.1c0.2,0.2,0.3,0.5,0.6,0.5
		c0.1,0,0.1-0.1,0.1-0.2c0.2,0.2,0.2,0.5,0.6,0.5c0.1,0.1,0.1,0.2,0.2,0.2c0.3-0.1,0.2,0.4,0.5,0.5c0.2,0.1,0.3,0.4,0.6,0.3l0.1-0.1
		c0.1,0.1,0,0.2,0.1,0.3c0.1,0.3,0.4,0.4,0.7,0.5c0.2,0.3,0.5,0.6,0.7,0.8L15.7,31l-1.6,1.6C13.4,31.7,12.5,30.7,12,29.7 M23.2,37.2
		c-3.2-0.4-6-1.8-8.5-4l1.6-1.6l0-0.1c2.3,2.2,5,3.3,8.1,3.5l0.2-0.1l-0.1,0.1v2.2l0.1,0.2C24.3,37.3,23.7,37.3,23.2,37.2
		 M25.1,28.2c-0.2,0-0.3,0-0.5-0.1c-0.1,0,0-0.1-0.1-0.1c0.2,0,0.3-0.3,0.6-0.2c0.2-0.1,0.2-0.3,0.4-0.4c-0.1-0.2,0.2-0.1,0.2-0.2
		c0.1-0.1,0.2-0.1,0.3-0.1c0.2,0.2,0.5,0.1,0.6,0.4c0.1,0,0.1-0.1,0.1-0.1v-0.1c0.3,0,0.4,0.3,0.7,0.1c0.1-0.1,0-0.2,0-0.2
		c0,0-0.1,0-0.1-0.1c0.2-0.1,0.3,0.3,0.5,0.2c0.2-0.2,0.3-0.3,0.6-0.3l0.1,0.1c0,0.5-0.4,0.8-0.7,1c-0.2,0.1-0.6,0.1-0.6,0.4
		c-0.3,0.2-0.5-0.1-0.8,0c-0.1-0.1,0-0.3-0.2-0.3C25.8,28.1,25.4,27.8,25.1,28.2 M25.7,32.2c0.3,0.1,0.8-0.1,0.9,0.2
		c-0.1,0.2-0.2,0.4-0.2,0.6c0.1,0.3,0.3,0.7,0.7,0.7c0.1,0.1,0.2,0.2,0.3,0.2c-0.6,0.1-1.3,0.1-1.9,0.3c0.1-0.6,0-1.3,0-2L25.5,32
		C25.6,32.1,25.6,32.2,25.7,32.2 M25.8,37.3l-0.2,0.1c0.1-0.8,0.1-1.7,0-2.5c0.4,0.1,0.8,0,1.2,0l1.2-0.2c0.6,0.1,1,1.1,1.7,0.5
		c0.2-0.3,0.6-0.3,0.8-0.6c0.4-0.1,0.5-0.5,0.8-0.8c0.3-0.7,1.1-0.9,1.6-1.4c0.4-0.3,0.9-0.6,1.1-1l0,0.2l1.7,1.6
		C32.9,35.7,29.6,37.2,25.8,37.3 M40.4,22.7c-0.2,3.7-1.5,6.9-4,9.7l-0.1,0.1c-0.5-0.5-1.2-1.3-1.8-1.7c0.4-0.2,0.6-0.7,0.9-1
		c1.5-2.1,2.4-4.4,2.5-7.1l-0.1-0.2l0.1,0.1l2.3,0l0.1-0.1L40.4,22.7z"/>
	<path class="st0" d="M32.3,10.2c0,0.1,0,0.2,0.1,0.2c0.3,0.1,0.4,0.6,0.8,0.5c0.1-0.1-0.1-0.3,0-0.5c-0.1-0.2-0.2-0.2-0.4-0.3
		C32.6,10.3,32.4,10,32.3,10.2z"/>
	<path class="st0" d="M25.9,8.9c0.4,0.5,1.2,0.2,1.7,0.1c0.4,0.2,0.7,0,1-0.3V8.7c-0.3-0.4-0.8-0.4-1.2-0.5l-1.1,0.5
		c-0.1,0-0.3-0.1-0.3,0C25.8,8.8,25.9,8.8,25.9,8.9z"/>
</g>
</svg>
