<svg id="Layer_1" data-name="Layer 1" xmlns="http://www.w3.org/2000/svg" viewBox="0 0 50.46 50.46"><defs><style>.cls-1{fill:#12b5e1;}</style></defs><title>molino</title><path class="cls-1" d="M47.53,18.55l-1.11-2.79L47.5,12.9a.25.25,0,0,0,0-.25.24.24,0,0,0-.24-.08l-6.41,1.31a.24.24,0,0,0-.15.09l-.9,1.18H38.05c0,.19,0,.38,0,.58s0,.4,0,.61h1.67l1,1.22a.24.24,0,0,0,.15.09l6.43,1.24h0a.22.22,0,0,0,.19-.09A.23.23,0,0,0,47.53,18.55Z"/><path class="cls-1" d="M28.53,29.36a.92.92,0,0,0-.76-.07,11.82,11.82,0,0,1-7.13.07.89.89,0,0,0-1.12.72L16.85,47.14A1.2,1.2,0,0,0,18,48.53h0a1.23,1.23,0,0,0,.74-.26l5.49-4.34,5.48,4.34a1.23,1.23,0,0,0,.74.26,1.21,1.21,0,0,0,1.19-1.39L29,30A.92.92,0,0,0,28.53,29.36Zm-.14,8.47-3.12-2.28,2.47-1.81Zm-7.26-6.52a13.58,13.58,0,0,0,6.22,0l.18,1.14-3.26,2.39L21,32.39Zm-.37,2.4,2.5,1.84-3.15,2.31Zm-2.05,13.1,1-6.48,3.59,2.84Zm5.56-4.4-4-3.18,4-2.95,4,2.95Zm.95.76,3.57-2.82,1,6.45Z"/><path class="cls-1" d="M36.89,15.12a.23.23,0,0,0,.07-.19,12.5,12.5,0,0,0-1.24-4.64.24.24,0,0,0-.15-.13.27.27,0,0,0-.2,0L30,13.28a7,7,0,0,0-.65-1.12l5.4-3.1a.31.31,0,0,0,.12-.16.28.28,0,0,0,0-.2,12.64,12.64,0,0,0-3.4-3.4.21.21,0,0,0-.19,0,.22.22,0,0,0-.16.12L28,10.76a7,7,0,0,0-1.12-.65l3.11-5.37a.24.24,0,0,0,0-.2.24.24,0,0,0-.13-.15A12.53,12.53,0,0,0,25.2,3.13.26.26,0,0,0,25,3.2a.25.25,0,0,0-.08.18V9.6a5.57,5.57,0,0,0-1.29,0V3.38a.25.25,0,0,0-.08-.18.26.26,0,0,0-.19-.07,12.69,12.69,0,0,0-4.64,1.24.25.25,0,0,0-.11.35l3.1,5.39a6.23,6.23,0,0,0-1.12.64L17.5,5.36a.27.27,0,0,0-.16-.12.28.28,0,0,0-.2,0,13,13,0,0,0-3.41,3.4.22.22,0,0,0,0,.19.21.21,0,0,0,.11.16l5.39,3.12a6.63,6.63,0,0,0-.65,1.13l-5.37-3.12a.23.23,0,0,0-.2,0,.23.23,0,0,0-.15.12,12.53,12.53,0,0,0-1.26,4.64.26.26,0,0,0,.07.19.25.25,0,0,0,.18.08H18a5.22,5.22,0,0,0,0,1.29H11.82a.23.23,0,0,0-.18.08.26.26,0,0,0-.07.19,12.5,12.5,0,0,0,1.24,4.64.24.24,0,0,0,.15.13.27.27,0,0,0,.2,0l5.39-3.1a5.9,5.9,0,0,0,.64,1.12l-5.4,3.11a.21.21,0,0,0-.11.16.21.21,0,0,0,0,.19,12.82,12.82,0,0,0,3.4,3.41.21.21,0,0,0,.19,0,.21.21,0,0,0,.16-.11l3.12-5.39a7,7,0,0,0,1.12.65l-3.11,5.38a.21.21,0,0,0,0,.19.28.28,0,0,0,.12.16,12.71,12.71,0,0,0,4.64,1.25.32.32,0,0,0,.19-.07.23.23,0,0,0,.08-.18V22.05a5.06,5.06,0,0,0,1.29,0v6.22a.24.24,0,0,0,.25.25h0a12.5,12.5,0,0,0,4.64-1.24.24.24,0,0,0,.13-.15.28.28,0,0,0,0-.2l-3.1-5.38a6.54,6.54,0,0,0,1.12-.65L31,26.3a.25.25,0,0,0,.16.12.26.26,0,0,0,.19,0A12.79,12.79,0,0,0,34.8,23a.24.24,0,0,0,0-.2.21.21,0,0,0-.11-.16l-5.39-3.12A6.54,6.54,0,0,0,30,18.39l5.38,3.11a.22.22,0,0,0,.19,0,.24.24,0,0,0,.15-.13A12.53,12.53,0,0,0,37,16.76a.26.26,0,0,0-.07-.19.23.23,0,0,0-.18-.08H30.49a5.22,5.22,0,0,0,0-1.29h6.22A.23.23,0,0,0,36.89,15.12ZM24.26,20.91a5.09,5.09,0,1,1,5.09-5.08A5.08,5.08,0,0,1,24.26,20.91Z"/><path class="cls-1" d="M24.27,13.59a2.24,2.24,0,1,0,2.23,2.24A2.25,2.25,0,0,0,24.27,13.59Z"/></svg>