<svg id="Layer_1" data-name="Layer 1" xmlns="http://www.w3.org/2000/svg" viewBox="0 0 50.46 50.46"><defs><style>.cls-1{fill:#12b5e1;}</style></defs><title>monedas</title><path class="cls-1" d="M25.79,27A11.95,11.95,0,1,0,13.84,15,12,12,0,0,0,25.79,27Zm0-22.11A10.17,10.17,0,1,1,15.62,15,10.18,10.18,0,0,1,25.79,4.87Z"/><path class="cls-1" d="M21.7,19.31a7.49,7.49,0,0,0,3.51,1.33V21.7a.74.74,0,0,0,.75.73.72.72,0,0,0,.73-.73v-1c2.17-.2,3.64-1.45,3.64-3.33s-1.11-2.87-3.71-3.52V10.54a6.22,6.22,0,0,1,1.76.76,1,1,0,0,0,.52.15.93.93,0,0,0,1-.94.91.91,0,0,0-.51-.82,6.18,6.18,0,0,0-2.65-.94V8.37A.72.72,0,0,0,26,7.64a.74.74,0,0,0-.75.73v.36c-2.14.17-3.59,1.44-3.59,3.27s1.16,2.86,3.65,3.51v3.37a6,6,0,0,1-2.52-1.14,1,1,0,0,0-.57-.19.93.93,0,0,0-.94.94A.94.94,0,0,0,21.7,19.31Zm4.92-3.47c1.32.41,1.69.87,1.69,1.62s-.59,1.37-1.69,1.49Zm-3-4c0-.76.55-1.34,1.64-1.44v3C24,13,23.63,12.59,23.63,11.88Z"/><path class="cls-1" d="M38.81,34.56H37.16V30.1A1.09,1.09,0,0,0,36.06,29H12.77a1.09,1.09,0,0,0-1.1,1.09v5.31a.87.87,0,0,0,.86.86h1.89v3.84H12.77a1.1,1.1,0,0,0-1.1,1.1v5.07a1.09,1.09,0,0,0,1.1,1.09H36.06a1.09,1.09,0,0,0,1.1-1.09V41.82h1.65a1.09,1.09,0,0,0,1.09-1.09V35.65A1.09,1.09,0,0,0,38.81,34.56Zm-25.43,0V30.72H35.45v3.84h-5.2V32.64a.89.89,0,0,0-1.78,0v1.92H25.31V32.64a.9.9,0,0,0-1.79,0v1.92H20.36V32.64a.89.89,0,0,0-1.78,0v1.92h-5.2Zm22.07,11.1h-5.2V43.74a.89.89,0,1,0-1.78,0v1.92H25.31V43.74a.9.9,0,0,0-1.79,0v1.92H20.36V43.74a.89.89,0,0,0-1.78,0v1.92h-5.2V41.82H35.45Zm2.74-5.55H33V38.19a.89.89,0,0,0-1.78,0v1.92H28.05V38.19a.89.89,0,0,0-1.78,0v1.92H23.11V38.19a.89.89,0,0,0-1.78,0v1.92H16.12V36.27H38.19Z"/><path class="cls-1" d="M11.18,21.19a.64.64,0,0,0-.64-.64h-.47v-.47a.64.64,0,1,0-1.28,0v.47H8.32a.64.64,0,1,0,0,1.27h.47v.47a.64.64,0,0,0,1.28,0v-.47h.47A.64.64,0,0,0,11.18,21.19Z"/><path class="cls-1" d="M42.14,5.93h-.47V5.46a.64.64,0,0,0-1.28,0v.47h-.47a.64.64,0,0,0-.64.64.64.64,0,0,0,.64.64h.47v.46a.64.64,0,1,0,1.28,0V7.21h.47a.64.64,0,0,0,.64-.64A.64.64,0,0,0,42.14,5.93Z"/><circle class="cls-1" cx="13.58" cy="4.9" r="0.73"/><circle class="cls-1" cx="39.74" cy="26.06" r="0.73"/></svg>