<?xml version="1.0" encoding="utf-8"?>
<!-- Generator: Adobe Illustrator 24.0.1, SVG Export Plug-In . SVG Version: 6.00 Build 0)  -->
<svg version="1.1" id="Layer_1" xmlns="http://www.w3.org/2000/svg" xmlns:xlink="http://www.w3.org/1999/xlink" x="0px" y="0px"
	 viewBox="0 0 50.5 50.5" style="enable-background:new 0 0 50.5 50.5;" xml:space="preserve">
<path d="M8.9,47.5h3.2h26.2h3.2c0.4,0,0.8-0.4,0.8-0.8s-0.4-0.8-0.8-0.8h-2.6l-3.8-9.6c-0.1-0.3-0.4-0.5-0.7-0.5H22.4l0.6-6.4
	c0.1-0.7,0.3-0.9,0.6-0.9c0.1,0,0.3,0,0.4-0.1l-0.1,0.7c0,0.2,0,0.3,0.1,0.5s0.3,0.2,0.4,0.2l4.4,0.3c0,0,0,0,0,0
	c0.3,0,0.6-0.2,0.6-0.5c0.1-0.7-0.2-1.6-0.7-2.2c-0.3-0.3-0.6-0.6-1-0.7l0,0c0.3-0.2,0.5-0.5,0.8-0.8c0.2-0.2,0.4-0.3,1.4,0.2
	l2.6,1.3l-0.2,4c0,0.2,0.1,0.3,0.2,0.4C32.8,32,33,32,33.1,32l2.6-0.1c0.3,0,0.5-0.2,0.6-0.5l0.5-5.4c0-0.2-0.1-0.4-0.2-0.5
	l-2.9-2.7l2.2-4.1l0.3,0.1c1.2,0.3,4.4,0.2,4.9-1.5l0.3-1c0.1-0.4,0.1-0.8-0.2-1.1c-0.2-0.4-0.5-0.6-0.9-0.7l-3.8-1
	c-0.5-0.1-0.8-0.7-0.8-1.2l0-0.5c0,0,0-0.1,0-0.1c0.1-0.2-0.1-0.5-0.3-0.7c0,0,0,0,0,0c-0.1,0-0.1-0.1-0.2-0.1
	c-0.5-0.1-1.1-0.1-1.6,0.2c-0.8,0.5-1.4,1.3-1.8,2.1l-2.8,0.1c-0.3-0.4-0.9-0.7-1.4-0.6l-3.5,0.5l0,0l2.2-1.4c0,0,0.1-0.1,0.1-0.1
	l2.7-3.1c0.6-0.6,0.5-1.6-0.1-2.2c-0.6-0.6-1.6-0.6-2.2,0l-3.1,3l-2.6,1.2c0,0-0.1,0-0.1,0.1c-0.2,0-0.3,0-0.5,0
	c-0.1,0-0.2,0.1-0.3,0.1c0.4-0.3,0.8-0.7,1-1.2c0.4-0.8,0.4-1.6,0.1-2.4c-0.3-0.7-0.7-1.2-1.4-1.6l1.1-0.8c0.3-0.2,0.3-0.6,0.1-0.8
	c-0.2-0.3-0.6-0.3-0.8-0.1l-0.9,0.6l-2.1-1.4c-0.2-0.1-0.5-0.1-0.7,0l-3,2.1c-0.2,0.2-0.3,0.5-0.2,0.7l1,2.6
	c0.1,0.2,0.2,0.3,0.4,0.4c0.1,0,0.1,0,0.2,0c0.1,0,0.1,0,0.1,0c0,0.2,0.1,0.4,0.1,0.6c0.3,0.8,0.9,1.4,1.7,1.7
	c0.4,0.2,0.8,0.3,1.3,0.3c0.4,0,0.7-0.1,1-0.2c-0.8,0.6-1.3,1.7-1,2.8l1.3,5.5c0,0.1,0.1,0.2,0.1,0.2c0,0.1,0.1,0.2,0.2,0.3l0.4,0.3
	l-0.9,0.3c-0.8,0.4-1.5,1-2,1.8c-0.9,0.3-4.3,1.5-5,4.3c-0.7,2.6-1.4,3.3-1.4,3.3c0,0,0,0,0,0c-0.2,0.1-0.2,0.3-0.2,0.5
	c0,0.2,0.2,0.4,0.3,0.5c0.5,0.2,1.2,0.4,2,0.4c1,0,2-0.3,2.6-1.3c0.6-0.9,0.8-1.7,0.9-2.2c0.1-0.3,0.1-0.6,0.2-0.7
	c0.1,0.1,0.1,0.3,0.2,0.4l0.9,1.6l0.5,6.2h-2.5c-0.3,0-0.6,0.2-0.7,0.5l-3.8,9.6H8.9c-0.4,0-0.8,0.4-0.8,0.8S8.5,47.5,8.9,47.5z
	 M19.3,29.3c0-0.1,0-0.2-0.1-0.2l-0.9-1.7c-0.5-0.9-0.6-1.9-0.3-2.9c0.2-0.8,0.7-1.5,1.3-2l2.3,2c0.1,0.1,0.2,0.1,0.4,0.1
	c0.1,0,0.1,0,0.2,0l1.8-0.7l0.1,3.3c-0.2,0-0.4,0.1-0.6,0.1c-1.4,0.2-1.6,1.5-1.6,1.9l-0.6,6.7l-1.4,0L19.3,29.3z M15.6,27.9
	c-0.1,0.5-0.2,1.1-0.7,1.8c-0.6,0.9-1.7,0.9-2.4,0.7c0.3-0.6,0.8-1.5,1.2-3.1c0.4-1.6,2-2.6,3.1-3.1c-0.2,0.6-0.2,1.3-0.1,1.9
	C15.9,26.7,15.8,27.3,15.6,27.9z M21.5,19.9l2.5-1.1l3,2.9l-0.3,5.4c0,0,0,0,0,0c0,0,0,0,0,0l0,0c0,0,0,0.1,0,0.1
	c0,0.3,0.2,0.5,0.5,0.5c0.3,0,0.6,0.2,0.7,0.4c0.2,0.2,0.3,0.4,0.4,0.7l-3.1-0.2l0.1-1c0-0.1,0-0.2,0-0.3l-0.1-4.6
	c0-0.2-0.1-0.4-0.3-0.5L21.5,19.9z M24.5,10.5l3.2-3.1c0.1-0.1,0.2-0.1,0.3-0.1c0.1,0,0.2,0,0.3,0.1c0.1,0.1,0.2,0.4,0,0.5
	c0,0,0,0,0,0l-2.6,3l-2.3,1.5l0,0c-0.2-0.4-0.5-0.7-0.8-1l1.8-0.8C24.4,10.5,24.5,10.5,24.5,10.5z M34.3,12.2
	c0.1-0.1,0.2-0.1,0.3-0.1l0,0.2c0,0.9,0.6,2.1,1.7,2.3l0.7,0.2l-1,2.6l-0.1,0c0,0,0,0-0.1,0c0,0-0.1-0.1-0.1-0.1l-3.4-1.4l0.1-0.1
	c0.1-0.1,0.1-0.2,0.2-0.3l0.4-1.4c0-0.1,0-0.1,0.1-0.2c0,0,0,0,0,0C33.1,13.5,33.7,12.6,34.3,12.2z M40.3,16l-0.3,1
	c-0.1,0.5-1.7,0.8-2.9,0.7l1-2.6l1.9,0.5c0.1,0,0.2,0.1,0.2,0.1C40.3,15.8,40.3,15.9,40.3,16z M35.2,30.7l-1.4,0.1l0.1-3.7
	c0-0.2-0.1-0.5-0.3-0.6l-2.9-1.4c-0.5-0.3-1.6-1-2.6-0.2l0.2-2.8l1.5-1c0.2-0.1,0.3-0.4,0.2-0.7l-0.7-2.1l0.5-0.2
	c0.1,0,0.1-0.1,0.2-0.1l1.3-1.2l3.6,1.5l-2.3,4.4c-0.1,0.2-0.1,0.5,0.1,0.7l3,2.8L35.2,30.7z M20.7,18.9l-1.2-4.9c0,0,0,0,0,0
	c0.1,0.1,0.2,0.2,0.3,0.3l3.2,2.5c0.1,0.1,0.2,0.1,0.3,0.1l0.2,0.9l-2.3,1L20.7,18.9z M28.2,18.8l0.5,1.6l-0.9,0.5l0-0.1l-1.4-1.4
	L28.2,18.8z M29.2,17.1l-3.7,1.5l-0.8-0.8l-0.3-1.2l3.1-0.6c0.1,0.1,0.1,0.2,0.3,0.3L29.2,17.1L29.2,17.1z M31.4,15.1l-1.2,1.1
	L29,15.6c0.3-0.3,0.5-0.6,0.6-1l2-0.1L31.4,15.1z M28.3,14.3c0,0.2-0.1,0.4-0.3,0.4l-4.5,0.9l-3-2.3c-0.2-0.2-0.3-0.5-0.3-0.8
	c0.1-0.4,0.4-0.5,0.5-0.5c0,0,0.1,0,0.2,0c0.2,0,0.4,0,0.5,0.2l2,2.2c0.1,0.1,0.3,0.2,0.5,0.2l3.8-0.6C28.1,14,28.3,14.1,28.3,14.3z
	 M23.5,22.8l-1.3,0.5l-1.7-1.5l1.1-0.4L23.5,22.8z M17.5,10.2c-0.5-0.2-0.8-0.6-1-1c-0.1-0.3-0.1-0.6-0.1-0.9l2.4-1.7
	c0.1,0,0.3,0.1,0.4,0.1c0.5,0.2,0.8,0.6,1,1c0,0,0,0,0,0c0.2,0.5,0.2,1-0.1,1.4c-0.2,0.5-0.6,0.8-1.1,1C18.5,10.5,18,10.4,17.5,10.2
	z M14.8,6.1L17,4.5l1.4,0.9l-3,2.1L14.8,6.1z M16.7,37.3h17.1l3.4,8.5H13.3L16.7,37.3z"/>
<path d="M30.6,39.3c-0.1-0.2-0.3-0.4-0.6-0.4h-9.7c-0.3,0-0.5,0.2-0.6,0.4l-1.4,4.1c-0.1,0.2,0,0.4,0.1,0.5c0.1,0.2,0.3,0.3,0.5,0.3
	h12.6c0.2,0,0.4-0.1,0.5-0.3c0.1-0.2,0.1-0.4,0.1-0.5L30.6,39.3z M19.8,43l1-2.9h8.8l1,2.9H19.8z"/>
</svg>
