<svg id="Layer_1" data-name="Layer 1" xmlns="http://www.w3.org/2000/svg" viewBox="0 0 50.46 50.46"><defs><style>.cls-1{fill:#12b5e1;}</style></defs><title>moticicleta lineal</title><path class="cls-1" d="M26.62,16.2a.5.5,0,0,0,.24-.06.42.42,0,0,0,.21-.13.63.63,0,0,0,0-.9.65.65,0,0,0-.7-.14.46.46,0,0,0-.2.14.64.64,0,0,0,.45,1.09Z"/><path class="cls-1" d="M43.17,25.66c-.4-.73-1.36-2.48-1.73-3a3.15,3.15,0,0,0-2.51-1.26h-10a2.73,2.73,0,0,0-2.47,3.86,5.77,5.77,0,0,1-5.24,8.17h-.05a5.65,5.65,0,0,1-4.66-2.53A5.49,5.49,0,0,1,16,25.74a38.33,38.33,0,0,1,3.76-6.37,8.91,8.91,0,0,0,1.1-2l3.42,1.94a.9.9,0,0,0,.47.13,1,1,0,0,0,.48-1.8L22.67,16.2H25a.64.64,0,0,0,.64-.64.64.64,0,0,0-.64-.64H20.57l.35-4.78.6-.42V11a.64.64,0,0,0,.64.64A.64.64,0,0,0,22.8,11V6.89a.64.64,0,0,0-.64-.64.64.64,0,0,0-.64.64V8.16l-1.58,1.1a.67.67,0,0,0-.28.48l-.32,4.41A4.14,4.14,0,0,0,15.79,12a3.58,3.58,0,0,0-.4,0,.78.78,0,0,0-.68.77v4.57a.84.84,0,0,0,.73.78h0C12.57,20.83,9.42,24,9,28A9.76,9.76,0,0,0,1,32.27a1,1,0,0,0,.24,1.34L3.4,35.08a6.34,6.34,0,1,0,12,3.69L35,38.8a6.34,6.34,0,0,0,12.54,0h1.12a1,1,0,0,0,.68-.33,1.1,1.1,0,0,0,.28-.74C49.59,29.84,44.47,26.41,43.17,25.66Zm-26.9-12c.84.2,1.74.85,1.74,1.47s-.9,1.26-1.74,1.46Zm1.28,5.2.62-.57,0,.05a40.46,40.46,0,0,0-4,6.71,7.4,7.4,0,0,0-.42,4.2,9.72,9.72,0,0,0-2.87-1C11.37,24.54,14.75,21.4,17.55,18.82ZM9.11,42.28a4.43,4.43,0,1,1,4.42-4.42A4.42,4.42,0,0,1,9.11,42.28Zm6.25-5.44A6.33,6.33,0,0,0,4.5,33.5l-1.29-.89a7.84,7.84,0,0,1,13.68,4.21Zm25.88,5.44a4.44,4.44,0,0,1-4.32-3.48h1.15a3.3,3.3,0,0,0,3.17,2.43,3.4,3.4,0,0,0,3.16-2.42h1.16A4.43,4.43,0,0,1,41.24,42.28ZM39.4,38.81h3.66A2.12,2.12,0,0,1,41.24,40,2.05,2.05,0,0,1,39.4,38.81Zm-20.59-2a9.64,9.64,0,0,0-.4-2,7.59,7.59,0,0,0,2.73.54h0a7.7,7.7,0,0,0,6.51-3.51,7.62,7.62,0,0,0,.53-7.38.81.81,0,0,1,.06-.77.78.78,0,0,1,.67-.37h10a1.21,1.21,0,0,1,1,.49c.2.26.74,1.21,1.22,2.08H33.27a.64.64,0,0,0,0,1.28H42l.06,0a11.56,11.56,0,0,1,5.6,9.67Z"/><path class="cls-1" d="M31.86,26a.6.6,0,0,0-.49,0,1,1,0,0,0-.22.13.7.7,0,0,0-.18.46.65.65,0,0,0,.18.45.67.67,0,0,0,.46.18.69.69,0,0,0,.25,0,.46.46,0,0,0,.2-.14.62.62,0,0,0,.19-.45.66.66,0,0,0-.19-.46A.69.69,0,0,0,31.86,26Z"/><path class="cls-1" d="M9.11,34.6a3.32,3.32,0,1,0,0,6.63,3.4,3.4,0,0,0,3.31-3.32A3.32,3.32,0,0,0,9.11,34.6Zm0,5.37a2.06,2.06,0,1,1,2.05-2.06A2.14,2.14,0,0,1,9.11,40Z"/></svg>