<?xml version="1.0" encoding="utf-8"?>
<!-- Generator: Adobe Illustrator 24.1.0, SVG Export Plug-In . SVG Version: 6.00 Build 0)  -->
<svg version="1.1" id="Layer_1" xmlns="http://www.w3.org/2000/svg" xmlns:xlink="http://www.w3.org/1999/xlink" x="0px" y="0px"
	 viewBox="0 0 50.5 50.5" style="enable-background:new 0 0 50.5 50.5;" xml:space="preserve">
<g>
	<path d="M34.2,20.2h-8.3c-0.4,0-0.8,0.3-0.8,0.8L25,25.8v4.3c-1.6,0-2.8,0-3.2,0c-1.2,0-2.4-0.6-3.2-1.5c-0.8-0.9-1.2-2.1-1.2-3.3
		l0.2-14.5h5.7c0.4,0,0.8-0.4,0.8-0.8s-0.4-0.8-0.8-0.8h-6.5c0,0,0,0,0,0h0c0,0,0,0,0,0s0,0,0,0h0c-0.1,0-0.2,0-0.3,0.1
		c0,0,0,0-0.1,0c0,0-0.1,0-0.1,0.1c0,0,0,0,0,0c0,0,0,0,0,0c0,0,0,0,0,0.1c0,0.1-0.1,0.1-0.1,0.2L9.8,23c-4.6,1-7.9,5.2-7.9,10v1.7
		c0,0.4,0.4,0.8,0.8,0.8h2c0.3,3.2,3.1,5.8,6.4,5.8c3.3,0,6.1-2.6,6.4-5.8h13.3c0.3,3.2,3.1,5.8,6.4,5.8c3.3,0,6.1-2.6,6.4-5.8h4.4
		c0.4,0,0.8-0.4,0.8-0.8C48.6,26.7,42.2,20.2,34.2,20.2z M11,39.7c-2.4,0-4.5-1.9-4.8-4.2h9.5C15.5,37.8,13.4,39.7,11,39.7z
		 M25,33.9H3.4V33c0-4.2,3-7.8,7-8.5c0.3,0,0.5-0.2,0.6-0.4L16,13.6l-0.1,11.6c-0.1,1.6,0.4,3.2,1.6,4.5c1.1,1.2,2.7,2,4.4,2
		c0.4,0,1.7,0,3.2,0V33.9z M37.1,39.7c-2.4,0-4.5-1.9-4.8-4.2h9.5C41.5,37.8,39.5,39.7,37.1,39.7z M26.6,33.9v-2.1
		c4.8,0,11.3,0.1,11.3,0.1l0-1.6c0,0-6.5,0-11.3-0.1v-4.3l0.1-4h7.5c6.8,0,12.4,5.3,12.8,12H26.6z"/>
	<path d="M9.5,14.7h1.1c1.5,0,2.8-1.2,2.8-2.8s-1.2-2.8-2.8-2.8H9.5C9,9.2,8.7,9.5,8.7,10v3.9C8.7,14.4,9,14.7,9.5,14.7z M10.3,10.8
		h0.3c0.6,0,1.2,0.5,1.2,1.2s-0.5,1.2-1.2,1.2h-0.3V10.8z"/>
	<path d="M23.8,17.4c0,0.4,0.4,0.8,0.8,0.8h9.9c0.4,0,0.8-0.4,0.8-0.8s-0.4-0.8-0.8-0.8h-9.9C24.2,16.6,23.8,16.9,23.8,17.4z"/>
</g>
</svg>
