<?xml version="1.0" encoding="utf-8"?>
<!-- Generator: Adobe Illustrator 24.1.0, SVG Export Plug-In . SVG Version: 6.00 Build 0)  -->
<svg version="1.1" id="Layer_1" xmlns="http://www.w3.org/2000/svg" xmlns:xlink="http://www.w3.org/1999/xlink" x="0px" y="0px"
	 viewBox="0 0 50.5 50.5" style="enable-background:new 0 0 50.5 50.5;" xml:space="preserve">
<g>
	<path d="M11.1,41.2c3.3,0,6-2.6,6.3-5.8H4.8C5.1,38.6,7.9,41.2,11.1,41.2z"/>
	<path d="M34.2,20.3h-8.2c-0.4,0-0.7,0.3-0.8,0.7l-0.1,7.6c2.5,0,8.4-0.1,12-0.1c0,0,0,0,0,0c0.4,0,0.7,0.4,0.8,0.8
		c0,0.4-0.3,0.8-0.7,0.8c-3.6,0-13.6,0.1-15.3,0c-1.2,0-2.4-0.6-3.2-1.5c-0.8-0.9-1.2-2.1-1.2-3.3l0.2-14.5h5.7
		c0.4,0,0.8-0.3,0.8-0.8c0-0.4-0.3-0.8-0.8-0.8h-6.5c0,0,0,0,0,0h0c0,0,0,0,0,0s0,0,0,0h0c-0.1,0-0.2,0-0.3,0.1c0,0,0,0-0.1,0
		c0,0-0.1,0-0.1,0.1c0,0,0,0,0,0c0,0,0,0,0,0c0,0,0,0,0,0c0,0-0.1,0.1-0.1,0.2L9.9,23.1c-4.6,1-7.9,5.1-7.9,9.9v0.9h46.4
		C48,26.3,41.8,20.3,34.2,20.3z"/>
	<path d="M37,41.2c3.3,0,6-2.6,6.3-5.8H30.7C31,38.6,33.8,41.2,37,41.2z"/>
	<path d="M23.9,17.5c0,0.4,0.3,0.8,0.8,0.8h9.8c0.4,0,0.8-0.3,0.8-0.8s-0.3-0.8-0.8-0.8h-9.8C24.2,16.7,23.9,17,23.9,17.5z"/>
	<path d="M9.6,14.4h1.1c1.3,0,2.3-1,2.3-2.3s-1-2.3-2.3-2.3H9.6c-0.2,0-0.4,0.2-0.4,0.4V14C9.2,14.2,9.4,14.4,9.6,14.4z"/>
</g>
</svg>
