<?xml version="1.0" encoding="utf-8"?>
<!-- Generator: Adobe Illustrator 24.0.1, SVG Export Plug-In . SVG Version: 6.00 Build 0)  -->
<!DOCTYPE svg PUBLIC "-//W3C//DTD SVG 1.1//EN" "http://www.w3.org/Graphics/SVG/1.1/DTD/svg11.dtd" [
	<!ENTITY ns_extend "http://ns.adobe.com/Extensibility/1.0/">
	<!ENTITY ns_ai "http://ns.adobe.com/AdobeIllustrator/10.0/">
	<!ENTITY ns_graphs "http://ns.adobe.com/Graphs/1.0/">
	<!ENTITY ns_vars "http://ns.adobe.com/Variables/1.0/">
	<!ENTITY ns_imrep "http://ns.adobe.com/ImageReplacement/1.0/">
	<!ENTITY ns_sfw "http://ns.adobe.com/SaveForWeb/1.0/">
	<!ENTITY ns_custom "http://ns.adobe.com/GenericCustomNamespace/1.0/">
	<!ENTITY ns_adobe_xpath "http://ns.adobe.com/XPath/1.0/">
]>
<svg version="1.1" id="Layer_1" xmlns:x="&ns_extend;" xmlns:i="&ns_ai;" xmlns:graph="&ns_graphs;"
	 xmlns="http://www.w3.org/2000/svg" xmlns:xlink="http://www.w3.org/1999/xlink" x="0px" y="0px" viewBox="0 0 50.46 50.46"
	 enable-background="new 0 0 50.46 50.46" xml:space="preserve">
<metadata>
	<sfw  xmlns="&ns_sfw;">
		<slices></slices>
		<sliceSourceBounds  bottomLeftOrigin="true" height="32.7" width="46.116" x="659.942" y="262.15"></sliceSourceBounds>
	</sfw>
</metadata>
<g>
	<path d="M33.705,32.871c0.562-2.764,2.622-5.454,5.359-6.339c0.614-0.2,1.259-0.306,1.922-0.306c0.412,0,0.817,0.035,1.21,0.1
		c0.2-0.178,0.117-0.399-0.043-0.723c-0.408-0.832-1.406-2.028-2.444-3.197c-0.307-0.347-4.026-4.278-4.029-4.29
		c1.234-0.909,2.49-0.312,2.367-1.789c-0.5-0.843-1.33-2.374-1.907-2.667c-0.749-0.37-2.094-0.45-2.945-0.606l-0.23-0.032
		l-1.099-1.465c0.276-0.567,0.04-1.551-0.482-2.371c-0.107-0.174-0.218-0.336-0.418-0.302l-1.262,0.054
		c-0.197,0.035-0.307,0.22-0.298,0.418l0.341,2.057c0.012,0.201,0.227,0.333,0.424,0.301l0.433,0.017l0.273,1.21
		c-0.565,0.022-0.811,0.399-0.633,1.104l0.188,0.547l-0.943,0.045c-0.752,0.034-2.223,2.202,0.298,2.245l1.416,0.249l0.264,1.161
		c0.866,0.057,1.33-0.189,1.437,0.711c-0.196,1.357-0.114,2.278-0.282,3.392c-0.154,1.035-0.694,1.545-1.836,4.466
		c-0.418,1.063-0.915,2.586-1.351,3.436l-4.169-0.077c-0.548-0.884-3.066-4.565-2.661-5.045c0.132-0.158,0.346-0.255,0.749-0.378
		c0.22-0.066,0.382-0.157,0.499-0.261c0.144-0.132,0.214-0.292,0.23-0.471c0.037-0.438-0.17-1.01-0.482-1.515
		c-0.619-1-1.216-1.179-2.257-1.578c-3.478-1.34-10.496-2.308-11.491-2.305c-1.062,0.006-1.191,0.867-1.773,1.115
		c-0.175,0.08-0.307,0.08-0.445,0.045c-0.614-0.144-1.359-0.433-1.976-0.628c-0.349-0.111-0.921-0.029-1.156,0.387
		c-0.17,0.301-0.104,1.3-0.012,1.657c0.253,0.96,0.907,1.684,0.049,3.118c-0.673,1.133-0.745,1.368-1.297,2.495l1.207,0.304
		c0.198,0.052,0.516-0.261,1.314-0.814c1.29-0.9,1.752-1.343,2.598-0.987l6.106,1.408c0.633,0.264,1.393,0.098,2.097,1.858
		l-2.223,0.746c1.377,1.437,2.595,5.162,2.217,6.249l3.034-0.682l1.865,1.683l12.441,0.301
		C33.484,35.568,33.438,34.186,33.705,32.871z"/>
	<path d="M41.861,28.259c-3.547,0-6.427,2.88-6.427,6.43c0,3.544,2.877,6.424,6.427,6.424c3.547,0,6.427-2.874,6.427-6.424
		C48.288,31.139,45.408,28.259,41.861,28.259z M41.861,37.969c-1.815,0-3.283-1.468-3.283-3.286c0-1.812,1.471-3.28,3.283-3.28
		s3.283,1.468,3.283,3.286C45.144,36.501,43.676,37.969,41.861,37.969z"/>
	<path d="M8.599,28.726c-3.55,0-6.427,2.88-6.427,6.427c0,3.55,2.88,6.427,6.427,6.427c3.548,0,6.427-2.877,6.427-6.427
		C15.026,31.606,12.15,28.726,8.599,28.726z M8.599,38.436c-1.813,0-3.283-1.468-3.283-3.283c0-1.815,1.472-3.282,3.283-3.282
		c1.815,0,3.283,1.474,3.283,3.282C11.882,36.965,10.414,38.436,8.599,38.436z"/>
</g>
</svg>
