<?xml version="1.0" encoding="utf-8"?>
<!-- Generator: Adobe Illustrator 24.0.1, SVG Export Plug-In . SVG Version: 6.00 Build 0)  -->
<!DOCTYPE svg PUBLIC "-//W3C//DTD SVG 1.1//EN" "http://www.w3.org/Graphics/SVG/1.1/DTD/svg11.dtd" [
	<!ENTITY ns_extend "http://ns.adobe.com/Extensibility/1.0/">
	<!ENTITY ns_ai "http://ns.adobe.com/AdobeIllustrator/10.0/">
	<!ENTITY ns_graphs "http://ns.adobe.com/Graphs/1.0/">
	<!ENTITY ns_vars "http://ns.adobe.com/Variables/1.0/">
	<!ENTITY ns_imrep "http://ns.adobe.com/ImageReplacement/1.0/">
	<!ENTITY ns_sfw "http://ns.adobe.com/SaveForWeb/1.0/">
	<!ENTITY ns_custom "http://ns.adobe.com/GenericCustomNamespace/1.0/">
	<!ENTITY ns_adobe_xpath "http://ns.adobe.com/XPath/1.0/">
]>
<svg version="1.1" id="Layer_1" xmlns:x="&ns_extend;" xmlns:i="&ns_ai;" xmlns:graph="&ns_graphs;"
	 xmlns="http://www.w3.org/2000/svg" xmlns:xlink="http://www.w3.org/1999/xlink" x="0px" y="0px" viewBox="0 0 50.46 50.46"
	 enable-background="new 0 0 50.46 50.46" xml:space="preserve">
<metadata>
	<sfw  xmlns="&ns_sfw;">
		<slices></slices>
		<sliceSourceBounds  bottomLeftOrigin="true" height="26.642" width="41.976" x="662.012" y="265.179"></sliceSourceBounds>
	</sfw>
</metadata>
<g>
	<path d="M10.722,25.593c-3.579,0-6.48,2.897-6.48,6.476s2.904,6.482,6.48,6.482s6.477-2.904,6.477-6.482
		C17.199,28.495,14.301,25.593,10.722,25.593z M10.722,35.83c-2.076,0-3.758-1.685-3.758-3.762c0-2.074,1.682-3.756,3.758-3.756
		c2.076,0,3.759,1.682,3.759,3.756C14.481,34.146,12.798,35.83,10.722,35.83z"/>
	<path d="M33.86,25.337l1.339,0.755l2.046-1.54l-0.084-1.477c0.358-0.069,3.537-0.606,3.903-0.702
		c0.534-0.144,0.466-0.502,0.466-0.923l-0.309-2.162c-0.314-2.392-0.518-2.549-2.313-3.927c-1.125-0.857-2.297-1.15-3.678-0.769
		c-0.188,0.054-0.246,0.008-0.366-0.067l-1.266-0.466c0.23-0.48-0.01-1.198-0.453-1.894c-0.092-0.143-0.186-0.281-0.353-0.252
		l-1.596,0.23c-0.165,0.033-0.262,0.184-0.251,0.357l0.408,1.585c0.008,0.169,0.188,0.281,0.353,0.251l0.379-0.037
		c0.204-0.038,1.01,0.693,1.282,1.577c-0.476,0.137-1.012,0.243-1.468,0.394c-0.269,0.092-0.494,0.209-0.489,0.375
		c0,0.22,0.22,0.583,0.46,0.862c0.17,0.201,0.309,0.309,0.455,0.381c0.413,0.207,1.125,0.413,1.585,0.578l-1.078,0.955
		c-1.894-1.64-4.562-2.019-6.221-1.707c-1.491,0.284-2.01,1.283-3.157,3.252c-4.671,0.02-8.344-2.684-12.635-1.974l-0.092,1.206
		c-0.878,0.082-1.547,0.067-2.395,0.067c-0.233,0-0.425,0.297-0.425,0.53L7.864,21.69L6.98,24.498
		c-0.131,0.31,1.758,0.281,2.451-0.107l2.259-1.262l7.155,2.022c1.419,0.515,0.785,1.193,0.371,1.235l-2.981,0.399
		c1.508,1.486,2.224,3.327,2.127,5.564l2.832-0.358l-0.954,3.602l9.981-0.212c1.29,0.01,2.189-0.089,1.787-1.439
		C30.946,30.405,31.657,27.794,33.86,25.337z"/>
	<path d="M39.741,25.593c-3.579,0-6.48,2.897-6.48,6.476s2.901,6.482,6.48,6.482c3.576,0,6.477-2.904,6.477-6.482
		C46.218,28.495,43.317,25.593,39.741,25.593z M39.741,35.83c-2.077,0-3.756-1.679-3.756-3.762c0-2.074,1.679-3.756,3.756-3.756
		s3.762,1.682,3.762,3.756C43.503,34.146,41.818,35.83,39.741,35.83z"/>
</g>
</svg>
