<?xml version="1.0" encoding="utf-8"?>
<!-- Generator: Adobe Illustrator 24.0.1, SVG Export Plug-In . SVG Version: 6.00 Build 0)  -->
<!DOCTYPE svg PUBLIC "-//W3C//DTD SVG 1.1//EN" "http://www.w3.org/Graphics/SVG/1.1/DTD/svg11.dtd" [
	<!ENTITY ns_extend "http://ns.adobe.com/Extensibility/1.0/">
	<!ENTITY ns_ai "http://ns.adobe.com/AdobeIllustrator/10.0/">
	<!ENTITY ns_graphs "http://ns.adobe.com/Graphs/1.0/">
	<!ENTITY ns_vars "http://ns.adobe.com/Variables/1.0/">
	<!ENTITY ns_imrep "http://ns.adobe.com/ImageReplacement/1.0/">
	<!ENTITY ns_sfw "http://ns.adobe.com/SaveForWeb/1.0/">
	<!ENTITY ns_custom "http://ns.adobe.com/GenericCustomNamespace/1.0/">
	<!ENTITY ns_adobe_xpath "http://ns.adobe.com/XPath/1.0/">
]>
<svg version="1.1" id="Layer_1" xmlns:x="&ns_extend;" xmlns:i="&ns_ai;" xmlns:graph="&ns_graphs;"
	 xmlns="http://www.w3.org/2000/svg" xmlns:xlink="http://www.w3.org/1999/xlink" x="0px" y="0px" viewBox="0 0 50.46 50.46"
	 enable-background="new 0 0 50.46 50.46" xml:space="preserve">
<metadata>
	<sfw  xmlns="&ns_sfw;">
		<slices></slices>
		<sliceSourceBounds  bottomLeftOrigin="true" height="25.238" width="44.407" x="660.796" y="265.881"></sliceSourceBounds>
	</sfw>
</metadata>
<g>
	<path d="M41.268,25.331c-2.405,0-4.487,1.377-5.503,3.386c-0.448,0.855-0.706,1.828-0.706,2.861c0,3.405,2.762,6.164,6.168,6.164
		c2.405,0,4.484-1.376,5.5-3.384c0.451-0.855,0.706-1.828,0.706-2.862C47.434,28.09,44.672,25.331,41.268,25.331z M43.472,32.699
		c-0.425,0.778-1.256,1.307-2.204,1.307c-1.386,0-2.51-1.124-2.51-2.511c0-0.389,0.089-0.758,0.247-1.087l0.013-0.026
		c0.425-0.782,1.256-1.314,2.209-1.314c1.383,0,2.51,1.124,2.51,2.509C43.737,31.982,43.64,32.362,43.472,32.699z"/>
	<path d="M14.472,29.642c1.381,0.79,2.31,2.265,2.31,3.955c0,1.689-0.929,3.164-2.31,3.954c1.773-0.462,3.08-2.059,3.08-3.954
		C17.552,31.699,16.245,30.104,14.472,29.642z"/>
	<path d="M15.785,33.596c0-2.348-1.904-4.252-4.253-4.252c-2.348,0-4.252,1.904-4.252,4.252c0,2.349,1.904,4.253,4.252,4.253
		C13.881,37.849,15.785,35.945,15.785,33.596z M11.532,35.769c-1.2,0-2.172-0.973-2.172-2.173c0-1.2,0.972-2.173,2.172-2.173
		c1.201,0,2.173,0.973,2.173,2.173C13.705,34.796,12.733,35.769,11.532,35.769z"/>
	<path d="M28.232,27.357l-10.714-0.078l-3.822,0.047l-0.038-1.113c-2.71-0.416-5.816,0.558-7.846,2.926
		c-0.09,0.113-0.177,0.231-0.26,0.349l1.349,0.976c1.513-2.008,3.742-2.922,5.907-2.744c2.782,0.178,5.099,2.071,5.906,4.633
		l1.944-0.945v1.54c0,0.448,0.364,0.814,0.814,0.814h5.132c0.336,0,0.749-0.175,0.983-0.415l1.06-1.092
		c0.252-0.259,0.397-0.617,0.397-0.982v-3.101C29.045,27.722,28.68,27.357,28.232,27.357z"/>
	<path d="M43.869,24.972c0.545-1.149-0.026-0.031,0.629-1.457c-0.13-0.064-0.262-0.125-0.397-0.182
		c-2.316-0.874-4.665-0.729-6.627,0.204l-0.341-0.67l0.362-0.185c0.199-0.102,0.278-0.349,0.176-0.548l-0.311-0.609
		c0.586,0.345,1.332,0.55,2.145,0.55V17.18c-0.66,0-1.276,0.139-1.799,0.375l-2.081-4.058c0.003-0.02,0.008-0.041,0.008-0.062
		c0-0.794-0.975-0.776-1.604-0.814h-2.524c-0.448,0-0.815,0.364-0.815,0.814c0,0.45,0.367,0.814,0.815,0.814h2.596
		c-0.991,0.366-1.475,1.043-1.503,1.083c-0.046,0.068-0.069,0.146-0.069,0.229v0.386c0,0.224,0.181,0.408,0.408,0.408
		c0.224,0,0.405-0.183,0.405-0.408c0,0,0-0.131,0-0.245c0.199-0.236,0.851-0.878,2.048-0.88l1.618,3.151
		c-0.428,0.334-0.729,0.754-0.846,1.219l-0.578-1.127c-0.102-0.2-0.349-0.279-0.548-0.177l-0.724,0.372
		c-0.153,0.078-0.234,0.238-0.222,0.4v1.859c-1.781-3.971-6.474-2.229-9.184-0.289c-0.135-0.955-0.326-0.818-1.019-0.98
		l-7.894-0.009c-0.685-0.726-0.845-1.045-1.439-1.861L3.929,17.385l-0.903,0.657l0.062,6.433l1.474,0.052l-0.014,0.811l1.018,0.065
		l1.536,1.344c1.992-1.257,4.064-1.842,6.28-1.506l-0.01-2.052l14.205,1.56l7.842,0.194c-0.889,0.834-1.605,1.885-2.076,3.112
		v-0.559v-0.14h-1.095c-0.135-1.397-0.955-1.515-1.057-1.522l-0.015-0.003l-16.941-1.669l0.01,2.199l14.067,0.31
		c1.042,0.023,1.491,0.75,1.491,1.802c0,0-0.003,0.939-0.003,1.11c0,1.526,0.048,2.551,0.563,3.067
		c0.206,0.208,0.469,0.313,0.782,0.313c0.339,0,0.632-0.129,0.841-0.373c0.257-0.297,0.349-0.721,0.372-1.079h0.986v-0.671v-0.143
		v-0.744c0.805,0.122-0.005,0.048,1.095,0.186C35.105,25.568,39.656,23.074,43.869,24.972z"/>
	<path d="M33.89,12.611c0.042,0.004,0.092,0.006,0.139,0.009h0.513L33.89,12.611z"/>
</g>
</svg>
