<?xml version="1.0" encoding="utf-8"?>
<!-- Generator: Adobe Illustrator 24.2.1, SVG Export Plug-In . SVG Version: 6.00 Build 0)  -->
<svg version="1.1" id="Layer_1" xmlns="http://www.w3.org/2000/svg" xmlns:xlink="http://www.w3.org/1999/xlink" x="0px" y="0px"
	 viewBox="0 0 50.5 50.5" style="enable-background:new 0 0 50.5 50.5;" xml:space="preserve">
<path d="M29.6,14.5h-3.9V14c0-1.6-1.3-2.8-2.8-2.8H19c-0.6,0-1.1-0.5-1.1-1.1C17.9,9.5,18.4,9,19,9h11.4c1.6,0.1,2.9-1.1,3-2.7
	c0.1-1.6-1.1-2.9-2.7-3c-0.1,0-0.2,0-0.3,0H22c-0.5,0-0.9,0.4-0.9,0.9s0.4,0.9,0.9,0.9h8.4c0.6,0,1,0.5,1,1s-0.5,1-1,1H19
	c-1.6,0-2.9,1.3-2.9,2.9s1.3,2.9,2.9,2.9h3.9c0.6,0,1,0.4,1,1v0.5h-4c-3.6,0-6.6,2.9-6.6,6.6v19.2c0,3.6,2.9,6.6,6.6,6.6h9.7
	c3.6,0,6.6-2.9,6.6-6.6V21C36.2,17.4,33.2,14.5,29.6,14.5z M34.3,40.3c0,2.6-2.1,4.7-4.7,4.7h-9.7c-2.6,0-4.7-2.1-4.7-4.7V21
	c0-2.6,2.1-4.7,4.7-4.7h9.7c2.6,0,4.7,2.1,4.7,4.7V40.3z M25.8,19.9V24c0,0.6-0.4,1-1,1c-0.6,0-1-0.5-1-1v-4.1c0-0.6,0.5-1,1-1
	S25.7,19.3,25.8,19.9z"/>
</svg>
