<svg id="Layer_1" data-name="Layer 1" xmlns="http://www.w3.org/2000/svg" viewBox="0 0 50.46 50.46"><defs><style>.cls-1{fill:#12b5e1;}</style></defs><title>mujer</title><path class="cls-1" d="M30.75,14.07a7.35,7.35,0,0,0-5.5-2.31h0a7.36,7.36,0,0,0-5.5,2.31c-3.87,4-3.73,11.74-3.7,12.61a1.87,1.87,0,0,0,1.88,1.82H18a1.87,1.87,0,0,0,1.82-1.94,21.54,21.54,0,0,1,1.1-7.21l.27,4.47L18.28,34.28a1.17,1.17,0,0,0,.92,1.5l1.51.27V47.1a1.89,1.89,0,0,0,3.77,0V36.48c.51,0,1,0,1.54,0V47.1a1.88,1.88,0,1,0,3.76,0V36.21l1.44-.2a1.19,1.19,0,0,0,1-1.51L29.5,23.82l.16-4.28a22,22,0,0,1,1,7,1.88,1.88,0,0,0,1.82,1.94h.06a1.87,1.87,0,0,0,1.88-1.82C34.48,25.81,34.62,18.06,30.75,14.07Z"/><path class="cls-1" d="M25.23,10.65a4.59,4.59,0,1,0-4.59-4.59A4.59,4.59,0,0,0,25.23,10.65Z"/></svg>