<svg id="Layer_1" data-name="Layer 1" xmlns="http://www.w3.org/2000/svg" viewBox="0 0 50.46 50.46"><defs><style>.cls-1{fill:#65b4e1;}</style></defs><title>mundo</title><path class="cls-1" d="M42.48,24.08A17.3,17.3,0,0,0,26.38,8v0H24.08V8A17.32,17.32,0,0,0,8,24.08h0v2.29H8a17.3,17.3,0,0,0,16.12,16.1v0h2.29v0a17.28,17.28,0,0,0,16.1-16.1h0V24.08ZM18.77,11.71a18,18,0,0,0-2.72,5.45H12.59a15,15,0,0,1,6.17-5.45Zm-7.38,7.76h4.05a27.52,27.52,0,0,0-.57,4.62H10.28a15,15,0,0,1,1.1-4.62Zm-1.1,6.91h4.58A27.52,27.52,0,0,0,15.44,31H11.39a15,15,0,0,1-1.1-4.62Zm2.31,6.93H16a18,18,0,0,0,2.73,5.45,15,15,0,0,1-6.17-5.45Zm11.49,6.77c-2.38-.63-4.42-3.17-5.65-6.77h5.65Zm0-9.08H17.77a25.67,25.67,0,0,1-.6-4.62h6.9Zm0-6.91h-6.9a25.67,25.67,0,0,1,.6-4.62h6.31Zm0-6.93H18.43c1.24-3.59,3.28-6.14,5.65-6.77Zm13.78,0H34.42a18,18,0,0,0-2.73-5.45,15,15,0,0,1,6.17,5.45ZM26.38,10.39c2.38.63,4.42,3.17,5.65,6.77H26.38Zm0,9.08h6.31a26.74,26.74,0,0,1,.6,4.62h-6.9Zm0,6.91h6.9a25.66,25.66,0,0,1-.6,4.62H26.38Zm0,13.69V33.31H32c-1.24,3.59-3.28,6.14-5.65,6.77Zm5.32-1.32a18.44,18.44,0,0,0,2.73-5.45h3.45a15,15,0,0,1-6.17,5.45ZM39.07,31H35a27.53,27.53,0,0,0,.57-4.62h4.58A15,15,0,0,1,39.07,31Zm-3.48-6.91A27.53,27.53,0,0,0,35,19.46h4.05a15,15,0,0,1,1.1,4.62Zm0,0"/></svg>