<svg id="Layer_1" data-name="Layer 1" xmlns="http://www.w3.org/2000/svg" viewBox="0 0 50.46 50.46"><defs><style>.cls-1{fill:#65b4e1;}</style></defs><title>museo</title><path class="cls-1" d="M14,36.08a1.23,1.23,0,0,0-.48.1,1.25,1.25,0,0,0-.55.45,1.23,1.23,0,0,0,0,1.39,1.26,1.26,0,0,0,.55.45,1.23,1.23,0,0,0,.48.1H36.51a1.23,1.23,0,0,0,.48-.1,1.26,1.26,0,0,0,.55-.45,1.23,1.23,0,0,0,0-1.39,1.25,1.25,0,0,0-.55-.45,1.23,1.23,0,0,0-.48-.1H14Z"/><path class="cls-1" d="M38.85,18.31a1.32,1.32,0,0,0,0-.93,1.54,1.54,0,0,0-.6-.78L26.38,8.43a2.06,2.06,0,0,0-2.27,0L12.18,16.6a1.66,1.66,0,0,0-.38.35,1.34,1.34,0,0,0-.19,1.35,1.81,1.81,0,0,0,1.7,1H37.14a1.93,1.93,0,0,0,1.44-.61A1.48,1.48,0,0,0,38.85,18.31ZM25.23,16.24a2.13,2.13,0,1,1,2.13-2.13A2.13,2.13,0,0,1,25.23,16.24Z"/><rect class="cls-1" x="16.67" y="21" width="3.11" height="13.66"/><rect class="cls-1" x="23.67" y="21" width="3.11" height="13.66"/><rect class="cls-1" x="30.68" y="21" width="3.11" height="13.66"/><path class="cls-1" d="M8.75,41.13A1.24,1.24,0,0,0,10,42.37H40.47a1.24,1.24,0,0,0,0-2.48H10A1.24,1.24,0,0,0,8.75,41.13Z"/></svg>