<?xml version="1.0" encoding="utf-8"?>
<!-- Generator: Adobe Illustrator 28.0.0, SVG Export Plug-In . SVG Version: 6.00 Build 0)  -->
<svg version="1.1" id="Layer_1" xmlns="http://www.w3.org/2000/svg" xmlns:xlink="http://www.w3.org/1999/xlink" x="0px" y="0px"
	 viewBox="0 0 50.5 50.5" style="enable-background:new 0 0 50.5 50.5;" xml:space="preserve">
<style type="text/css">
	.st0{fill:#0B0C0D;}
</style>
<g>
	<path d="M36.069,28.596c-0.702-1.308-1.684-2.352-2.552-3.2c-0.032-0.031-0.068-0.056-0.104-0.076
		c0.137-0.148,0.271-0.292,0.403-0.432c0.353-0.377,0.687-0.734,1.004-1.105c0.866-1.016,1.385-1.887,1.681-2.824
		c0.374-1.183,0.107-2.234-0.733-2.883c-0.452-0.35-1.014-0.557-1.77-0.651c-1.27-0.159-2.507,0.057-3.55,0.289
		c-0.311,0.069-0.618,0.149-0.93,0.229l-0.302,0.077c-0.009-0.032-0.018-0.062-0.025-0.093c-0.25-0.986-0.585-2.144-1.166-3.249
		c-0.565-1.074-1.272-2.116-2.615-2.468l-0.016-0.004l-0.755,0.004c-1.18,0.295-1.851,1.176-2.305,1.91
		c-0.481,0.781-0.858,1.668-1.222,2.877c-0.078,0.258-0.148,0.518-0.219,0.778l-0.069,0.253c-1.208-0.356-2.236-0.557-3.234-0.632
		c-0.766-0.058-1.769-0.072-2.715,0.336c-0.877,0.378-1.374,1.027-1.475,1.928c-0.088,0.783,0.176,1.476,0.417,1.992
		c0.584,1.253,1.498,2.285,2.313,3.129c0.13,0.135,0.269,0.262,0.419,0.401c0.037,0.034,0.075,0.069,0.114,0.105
		c-0.051,0.035-0.095,0.068-0.135,0.111c-0.144,0.156-0.289,0.31-0.434,0.464c-0.37,0.393-0.753,0.799-1.102,1.223
		c-0.848,1.031-1.341,1.969-1.554,2.952c-0.255,1.185,0.23,2.227,1.267,2.719c0.378,0.18,0.828,0.31,1.334,0.387
		c1.145,0.174,2.265-0.005,3.303-0.225c0.364-0.077,0.726-0.167,1.088-0.257c0.129-0.032,0.258-0.064,0.388-0.096
		c0.043,0.146,0.086,0.291,0.128,0.436c0.115,0.394,0.233,0.801,0.366,1.196c0.324,0.959,0.812,2.19,1.725,3.2
		c0.567,0.627,1.237,0.965,1.938,0.977c0.013,0,0.026,0,0.039,0c0.683,0,1.345-0.311,1.916-0.9c0.205-0.212,0.397-0.448,0.571-0.701
		c0.814-1.183,1.244-2.495,1.587-3.736l0.128-0.477c0.135,0.034,0.269,0.068,0.401,0.103c0.396,0.102,0.771,0.199,1.157,0.272
		c0.529,0.102,1.088,0.181,1.709,0.243c0.906,0.088,1.708,0.012,2.448-0.235c1.207-0.405,1.829-1.366,1.708-2.636
		C36.591,29.773,36.409,29.23,36.069,28.596z M34.35,18.88c0.817,0.232,1.097,0.71,0.878,1.506c-0.111,0.403-0.286,0.812-0.52,1.215
		c-0.634,1.097-1.508,2.001-2.293,2.745l-0.049-0.037c-0.814-0.606-1.615-1.203-2.413-1.803c-0.023-0.017-0.046-0.056-0.048-0.076
		c-0.138-1.025-0.271-2.051-0.403-3.073c0-0.007,0.001-0.016,0.002-0.029c0.22-0.046,0.441-0.094,0.664-0.143
		c0.566-0.123,1.151-0.25,1.732-0.351c0.832-0.146,1.557-0.148,2.213-0.01l0.061,0.013C34.232,18.851,34.292,18.863,34.35,18.88z
		 M31.37,25.286l-1.357,1.067v-2.127L31.37,25.286z M29.542,30.99c0.04-0.243,0.079-0.482,0.109-0.723
		c0.045-0.356,0.087-0.714,0.129-1.071c0.039-0.328,0.077-0.657,0.118-0.985c0.01-0.08,0.032-0.124,0.04-0.132
		c0.682-0.515,1.368-1.025,2.063-1.542l0.416-0.31c1.136,1.115,2.119,2.161,2.69,3.549c0.091,0.223,0.151,0.48,0.174,0.744
		c0.048,0.567-0.157,0.896-0.664,1.065c-0.451,0.151-0.915,0.237-1.343,0.248c-1.29,0.037-2.578-0.275-3.768-0.623L29.542,30.99z
		 M25.62,36.79c-0.382,0.309-0.763,0.31-1.202,0.004c-0.499-0.347-0.822-0.86-1.073-1.315c-0.613-1.115-0.954-2.302-1.204-3.331
		c0.21-0.087,0.421-0.172,0.631-0.257c0.563-0.228,1.146-0.463,1.7-0.733c0.404-0.197,0.702-0.198,1.104-0.002
		c0.556,0.271,1.142,0.508,1.708,0.737c0.207,0.084,0.416,0.168,0.624,0.254c-0.311,1.259-0.688,2.578-1.465,3.747
		C26.228,36.217,25.944,36.526,25.62,36.79z M28.595,25.803c0.001,0.474,0.002,0.947-0.008,1.421
		c-0.001,0.053-0.054,0.146-0.097,0.171c-1.042,0.613-2.149,1.252-3.384,1.956c-0.037,0.022-0.121,0.021-0.149,0.004
		c-1.243-0.707-2.357-1.35-3.406-1.967c-0.037-0.021-0.089-0.115-0.089-0.173c-0.01-1.303-0.01-2.595,0-3.839
		c0-0.067,0.058-0.17,0.099-0.194c1.042-0.613,2.149-1.252,3.385-1.953c0.017-0.01,0.048-0.015,0.079-0.015
		c0.035,0,0.071,0.006,0.091,0.018c1.233,0.7,2.333,1.335,3.363,1.941c0.05,0.029,0.107,0.13,0.109,0.19
		c0.011,0.488,0.01,0.976,0.009,1.464l-0.001,0.479L28.595,25.803z M27.468,18.606c-0.8,0.344-1.588,0.684-2.38,1.019
		c-0.028,0.012-0.094,0.011-0.137-0.007c-0.76-0.321-1.517-0.646-2.3-0.982l-0.52-0.224c0.04-0.136,0.08-0.274,0.12-0.414
		c0.113-0.392,0.23-0.797,0.361-1.195c0.33-1.005,0.701-1.76,1.166-2.376c0.164-0.216,0.343-0.406,0.534-0.565
		c0.488-0.405,0.951-0.406,1.414-0.003c0.282,0.246,0.541,0.545,0.749,0.867c0.74,1.145,1.12,2.434,1.419,3.657l0.009,0.037
		L27.468,18.606z M23.468,20.441l-1.86,1.074l0.242-1.721L23.468,20.441z M23.467,30.133l-1.616,0.65l-0.243-1.723L23.467,30.133z
		 M28.438,29.063l-0.24,1.721l-1.614-0.651L28.438,29.063z M26.585,20.443l1.612-0.65l0.243,1.719L26.585,20.443z M14.796,30.269
		c0.103-0.393,0.255-0.778,0.44-1.115c0.627-1.147,1.523-2.089,2.408-2.935c0.175,0.135,0.348,0.27,0.52,0.405
		c0.466,0.365,0.947,0.743,1.445,1.078c0.421,0.285,0.587,0.569,0.611,1.051c0.028,0.557,0.119,1.117,0.207,1.658
		c0.038,0.234,0.076,0.468,0.109,0.703c0.004,0.031,0.006,0.062,0.009,0.099c-1.573,0.433-2.903,0.743-4.339,0.582
		c-0.199-0.023-0.414-0.072-0.637-0.146C14.877,31.42,14.617,30.957,14.796,30.269z M14.875,19.425
		c0.174-0.301,0.527-0.503,1.049-0.601c0.328-0.062,0.665-0.092,1.026-0.092c0.496,0,1.037,0.058,1.663,0.175
		c0.467,0.087,0.941,0.2,1.399,0.309c0.175,0.042,0.351,0.083,0.526,0.124l-0.069,0.484c-0.069,0.479-0.134,0.936-0.194,1.392
		c-0.026,0.197-0.046,0.396-0.066,0.594c-0.019,0.188-0.038,0.375-0.062,0.562c-0.008,0.062-0.041,0.125-0.065,0.144
		c-0.646,0.489-1.295,0.973-1.955,1.464l-0.491,0.366c-0.666-0.624-1.409-1.375-1.978-2.256c-0.371-0.575-0.631-1.085-0.796-1.56
		C14.707,20.08,14.71,19.708,14.875,19.425z M20.04,24.222v2.13l-1.36-1.062L20.04,24.222z"/>
	<path class="st0" d="M12.716,11.949c0.138,0.24,0.394,0.388,0.671,0.388h3.929c0.277,0,0.533-0.148,0.672-0.388l1.964-3.403
		c0.138-0.24,0.138-0.535,0-0.775l-1.964-3.403c-0.138-0.24-0.394-0.388-0.672-0.388h-3.929c-0.277,0-0.533,0.148-0.671,0.388
		l-1.964,3.403c-0.139,0.24-0.139,0.535,0,0.775L12.716,11.949z"/>
	<path class="st0" d="M31.815,12.286c0.138,0.24,0.394,0.388,0.671,0.388h3.929c0.277,0,0.533-0.148,0.672-0.388l1.964-3.403
		c0.138-0.24,0.138-0.535,0-0.775l-1.964-3.403c-0.138-0.24-0.394-0.388-0.672-0.388h-3.929c-0.277,0-0.533,0.148-0.671,0.388
		L29.85,8.108c-0.139,0.24-0.139,0.535,0,0.775L31.815,12.286z"/>
	<path class="st0" d="M49.357,25.06l-1.964-3.403c-0.138-0.24-0.394-0.388-0.671-0.388h-3.929c-0.277,0-0.533,0.148-0.672,0.388
		l-1.964,3.403c-0.138,0.24-0.138,0.535,0,0.775l1.964,3.403c0.138,0.24,0.394,0.388,0.672,0.388h3.929
		c0.277,0,0.533-0.148,0.671-0.388l1.964-3.403C49.495,25.596,49.495,25.3,49.357,25.06z"/>
	<path class="st0" d="M37.086,38.511c-0.138-0.24-0.394-0.388-0.672-0.388h-3.929c-0.277,0-0.533,0.148-0.671,0.388l-1.964,3.403
		c-0.139,0.24-0.139,0.535,0,0.775l1.964,3.403c0.138,0.24,0.394,0.388,0.671,0.388h3.929c0.277,0,0.533-0.148,0.672-0.388
		l1.964-3.403c0.138-0.24,0.138-0.535,0-0.775L37.086,38.511z"/>
	<path class="st0" d="M17.988,38.511c-0.138-0.24-0.394-0.388-0.672-0.388h-3.929c-0.277,0-0.533,0.148-0.671,0.388l-1.964,3.403
		c-0.139,0.24-0.139,0.535,0,0.775l1.964,3.403c0.138,0.24,0.394,0.388,0.671,0.388h3.929c0.277,0,0.533-0.148,0.672-0.388
		l1.964-3.403c0.138-0.24,0.138-0.535,0-0.775L17.988,38.511z"/>
	<path class="st0" d="M10.304,24.898L8.34,21.495c-0.138-0.24-0.394-0.388-0.672-0.388H3.739c-0.277,0-0.533,0.148-0.672,0.388
		l-1.964,3.403c-0.138,0.24-0.138,0.535,0,0.775l1.964,3.403c0.138,0.24,0.394,0.388,0.672,0.388h3.929
		c0.277,0,0.533-0.148,0.672-0.388l1.964-3.403C10.443,25.433,10.443,25.138,10.304,24.898z"/>
	<path class="st0" d="M22.269,8.925h5.391c0.38,0,0.69-0.31,0.69-0.69s-0.31-0.69-0.69-0.69h-5.391c-0.38,0-0.69,0.31-0.69,0.69
		S21.888,8.925,22.269,8.925z"/>
	<path class="st0" d="M27.712,41.611h-5.391c-0.38,0-0.69,0.31-0.69,0.69s0.31,0.69,0.69,0.69h5.391c0.38,0,0.69-0.31,0.69-0.69
		S28.093,41.611,27.712,41.611z"/>
	<path class="st0" d="M38.519,13.505c-0.059-0.016-0.12-0.024-0.18-0.024c-0.12,0-0.238,0.032-0.344,0.093
		c-0.159,0.092-0.273,0.241-0.321,0.418c-0.047,0.178-0.023,0.364,0.069,0.524l2.695,4.668c0.092,0.16,0.24,0.273,0.418,0.321
		c0.177,0.048,0.364,0.023,0.524-0.069c0.16-0.092,0.273-0.24,0.321-0.418s0.023-0.364-0.069-0.524l-2.695-4.668
		C38.846,13.667,38.697,13.553,38.519,13.505z"/>
	<path class="st0" d="M8.835,19.438c0.16,0.092,0.344,0.118,0.523,0.069c0.178-0.047,0.327-0.162,0.419-0.321l2.695-4.668
		c0.19-0.33,0.077-0.752-0.252-0.942c-0.106-0.062-0.225-0.093-0.344-0.093c-0.06,0-0.12,0.008-0.18,0.024
		c-0.178,0.048-0.327,0.162-0.418,0.321l-2.695,4.668c-0.092,0.16-0.117,0.346-0.069,0.523C8.562,19.197,8.676,19.346,8.835,19.438z
		"/>
	<path class="st0" d="M41.501,30.943c-0.106-0.062-0.225-0.093-0.344-0.093c-0.06,0-0.12,0.008-0.18,0.024
		c-0.178,0.048-0.327,0.162-0.418,0.321l-2.695,4.668c-0.092,0.16-0.117,0.346-0.069,0.524s0.162,0.327,0.321,0.418
		c0.159,0.092,0.345,0.117,0.524,0.069c0.178-0.048,0.327-0.162,0.418-0.321l2.695-4.668c0.092-0.16,0.117-0.346,0.069-0.524
		C41.774,31.184,41.66,31.035,41.501,30.943z"/>
	<path class="st0" d="M11.817,36.875c0.179,0.047,0.364,0.022,0.524-0.069c0.33-0.19,0.443-0.613,0.252-0.942l-2.696-4.668
		c-0.092-0.16-0.24-0.273-0.418-0.321c-0.059-0.016-0.12-0.024-0.18-0.024c-0.12,0-0.238,0.032-0.344,0.093
		c-0.159,0.092-0.273,0.241-0.321,0.418c-0.047,0.178-0.023,0.364,0.069,0.524l2.695,4.668
		C11.49,36.713,11.639,36.828,11.817,36.875z"/>
</g>
</svg>
