<?xml version="1.0" encoding="utf-8"?>
<!-- Generator: Adobe Illustrator 24.2.1, SVG Export Plug-In . SVG Version: 6.00 Build 0)  -->
<svg version="1.1" id="Layer_1" xmlns="http://www.w3.org/2000/svg" xmlns:xlink="http://www.w3.org/1999/xlink" x="0px" y="0px"
	 viewBox="0 0 50.5 50.5" style="enable-background:new 0 0 50.5 50.5;" xml:space="preserve">
<path d="M29.798,17.431l0.441-0.249l0.301,0.641c-0.04,0.11-0.099,0.205-0.176,0.283c-0.078,0.078-0.166,0.141-0.264,0.186
	c-0.149,0.07-0.277,0.089-0.385,0.058c-0.109-0.031-0.193-0.11-0.252-0.237c-0.061-0.129-0.065-0.25-0.013-0.362
	C29.501,17.641,29.617,17.534,29.798,17.431z M18.596,27.804c-0.122-0.126-0.246-0.198-0.372-0.215
	c-0.126-0.017-0.263,0.009-0.409,0.077c-0.146,0.068-0.253,0.157-0.32,0.265c-0.068,0.108-0.093,0.248-0.075,0.419
	c0.018,0.171,0.086,0.383,0.204,0.635c0.119,0.255,0.24,0.445,0.361,0.57c0.121,0.125,0.244,0.197,0.369,0.214
	c0.125,0.018,0.262-0.008,0.41-0.078c0.148-0.069,0.256-0.158,0.322-0.266c0.066-0.107,0.091-0.247,0.073-0.418
	c-0.018-0.171-0.086-0.382-0.203-0.632C18.838,28.121,18.717,27.931,18.596,27.804z M20.702,22.119
	c0.121,0.125,0.244,0.197,0.37,0.214c0.125,0.018,0.262-0.008,0.41-0.078c0.148-0.069,0.256-0.158,0.322-0.265
	c0.066-0.108,0.091-0.247,0.073-0.418c-0.018-0.171-0.085-0.382-0.203-0.632c-0.119-0.255-0.24-0.445-0.361-0.571
	c-0.122-0.126-0.246-0.198-0.372-0.215c-0.126-0.017-0.263,0.009-0.409,0.077c-0.146,0.068-0.253,0.157-0.321,0.265
	c-0.068,0.108-0.093,0.248-0.075,0.419c0.018,0.171,0.086,0.383,0.204,0.635C20.461,21.804,20.581,21.994,20.702,22.119z
	 M15.126,35.88c-0.152-0.085-0.322-0.084-0.509,0.004c-0.19,0.089-0.303,0.221-0.338,0.395c-0.035,0.174,0.015,0.415,0.152,0.723
	l1.149-0.538C15.429,36.16,15.278,35.965,15.126,35.88z M25.552,24.122c-0.152-0.085-0.322-0.084-0.51,0.004
	c-0.19,0.089-0.302,0.221-0.338,0.395c-0.036,0.174,0.015,0.415,0.152,0.723l1.149-0.538C25.855,24.402,25.704,24.207,25.552,24.122
	z M13.786,25.361c0.121,0.125,0.244,0.197,0.37,0.214c0.125,0.018,0.262-0.008,0.41-0.078c0.148-0.069,0.256-0.158,0.322-0.266
	c0.067-0.107,0.091-0.247,0.073-0.418c-0.018-0.171-0.086-0.382-0.203-0.632c-0.119-0.255-0.24-0.445-0.361-0.571
	c-0.122-0.126-0.245-0.198-0.372-0.215c-0.126-0.017-0.263,0.009-0.409,0.077c-0.146,0.069-0.253,0.157-0.321,0.265
	c-0.068,0.108-0.093,0.248-0.075,0.418c0.018,0.171,0.086,0.383,0.204,0.635C13.544,25.046,13.664,25.236,13.786,25.361z
	 M39.463,24.895c-0.121-0.126-0.245-0.198-0.372-0.215c-0.126-0.017-0.263,0.009-0.409,0.077c-0.146,0.068-0.253,0.157-0.32,0.265
	c-0.068,0.108-0.093,0.248-0.075,0.419c0.018,0.171,0.086,0.383,0.204,0.635c0.119,0.255,0.24,0.445,0.361,0.57
	c0.121,0.125,0.244,0.197,0.369,0.214c0.125,0.018,0.262-0.008,0.41-0.078s0.256-0.158,0.322-0.266
	c0.067-0.107,0.091-0.247,0.073-0.418c-0.018-0.171-0.085-0.382-0.203-0.633C39.705,25.211,39.585,25.021,39.463,24.895z
	 M34.066,20.164c-0.068,0.108-0.093,0.248-0.075,0.418c0.018,0.171,0.086,0.383,0.204,0.635c0.119,0.255,0.24,0.445,0.361,0.57
	c0.121,0.125,0.244,0.197,0.369,0.214c0.125,0.018,0.262-0.008,0.41-0.078c0.148-0.069,0.256-0.158,0.322-0.266
	c0.066-0.107,0.091-0.247,0.073-0.418c-0.018-0.171-0.085-0.382-0.203-0.632c-0.119-0.254-0.24-0.445-0.361-0.571
	c-0.121-0.126-0.245-0.198-0.372-0.215c-0.126-0.017-0.263,0.009-0.409,0.077C34.24,19.968,34.134,20.056,34.066,20.164z
	 M47.012,25.23c0,12.03-9.752,21.782-21.782,21.782c-12.03,0-21.782-9.752-21.782-21.782S13.2,3.448,25.23,3.448
	C37.26,3.448,47.012,13.2,47.012,25.23z M36.658,19.247c0.129,0.276,0.306,0.459,0.53,0.552c0.224,0.092,0.509,0.093,0.856,0.002
	l0.601-0.16c0.125-0.031,0.221-0.035,0.288-0.013c0.066,0.022,0.12,0.076,0.16,0.162c0.052,0.111,0.043,0.217-0.027,0.32
	c-0.07,0.103-0.214,0.205-0.431,0.307c-0.384,0.18-0.769,0.298-1.155,0.354l0.343,0.732c0.372-0.052,0.762-0.174,1.169-0.365
	c0.321-0.15,0.576-0.324,0.765-0.521s0.305-0.406,0.348-0.627c0.043-0.221,0.011-0.445-0.096-0.673
	c-0.137-0.292-0.317-0.479-0.54-0.562c-0.223-0.082-0.507-0.079-0.853,0.008l-0.601,0.16c-0.121,0.031-0.215,0.034-0.283,0.01
	c-0.069-0.024-0.12-0.073-0.156-0.148c-0.108-0.23,0.077-0.456,0.552-0.679c0.315-0.147,0.629-0.249,0.942-0.304l-0.343-0.732
	c-0.145,0.027-0.301,0.069-0.47,0.125c-0.168,0.056-0.334,0.122-0.497,0.199c-0.357,0.167-0.635,0.352-0.834,0.555
	c-0.199,0.203-0.319,0.414-0.362,0.633C36.522,18.802,36.553,19.024,36.658,19.247z M35.476,19.011
	c-0.431-0.162-0.913-0.118-1.444,0.131c-0.534,0.25-0.877,0.592-1.027,1.025c-0.151,0.433-0.088,0.944,0.187,1.532
	c0.182,0.388,0.402,0.683,0.66,0.883c0.258,0.201,0.543,0.308,0.854,0.323c0.311,0.015,0.639-0.059,0.986-0.221
	c0.346-0.162,0.613-0.368,0.801-0.616c0.188-0.248,0.287-0.536,0.298-0.864c0.01-0.328-0.076-0.687-0.259-1.078
	C36.259,19.545,35.908,19.173,35.476,19.011z M30.302,22.226c0.029-0.111,0.082-0.207,0.158-0.29
	c0.076-0.083,0.163-0.147,0.264-0.194c0.14-0.066,0.268-0.075,0.386-0.028c0.117,0.047,0.221,0.167,0.313,0.361l0.973,2.075
	l0.998-0.468l-0.997-2.128c-0.218-0.465-0.48-0.758-0.786-0.88c-0.306-0.121-0.635-0.1-0.985,0.065
	c-0.188,0.088-0.354,0.21-0.497,0.365c-0.144,0.155-0.251,0.342-0.321,0.561c-0.163-0.109-0.336-0.165-0.519-0.167
	c-0.183-0.002-0.369,0.041-0.559,0.13c-0.397,0.186-0.655,0.47-0.773,0.851l-0.047,0.022l-0.232-0.315l-0.823,0.386l1.605,3.424
	l1.001-0.469l-1.093-2.332c0.021-0.124,0.07-0.234,0.149-0.329c0.078-0.095,0.171-0.168,0.278-0.218
	c0.14-0.066,0.266-0.074,0.377-0.026c0.112,0.048,0.214,0.171,0.305,0.367l0.973,2.075l0.98-0.459l-1.012-2.159
	C30.378,22.365,30.34,22.292,30.302,22.226z M25.131,25.822l2.078-0.974l-0.123-0.263c-0.274-0.585-0.61-0.97-1.006-1.157
	c-0.397-0.187-0.837-0.167-1.321,0.06c-0.338,0.159-0.594,0.361-0.769,0.608c-0.174,0.247-0.262,0.532-0.262,0.854
	c0,0.322,0.088,0.671,0.264,1.047c0.196,0.417,0.421,0.725,0.677,0.923c0.256,0.199,0.551,0.295,0.886,0.289
	c0.335-0.005,0.72-0.11,1.156-0.315c0.336-0.157,0.653-0.353,0.95-0.586l-0.35-0.748c-0.281,0.221-0.552,0.392-0.813,0.515
	c-0.248,0.116-0.455,0.185-0.621,0.205c-0.166,0.021-0.308-0.006-0.425-0.08C25.334,26.126,25.227,26,25.131,25.822z M31.37,15.564
	c0.129,0.276,0.306,0.459,0.529,0.552c0.224,0.092,0.509,0.093,0.856,0.002l0.601-0.16c0.125-0.031,0.221-0.035,0.288-0.013
	c0.066,0.022,0.12,0.076,0.16,0.162c0.052,0.111,0.043,0.217-0.028,0.32c-0.07,0.103-0.214,0.205-0.431,0.307
	c-0.384,0.18-0.769,0.298-1.155,0.354l0.343,0.732c0.372-0.053,0.762-0.174,1.169-0.365c0.321-0.151,0.576-0.324,0.765-0.521
	c0.189-0.197,0.305-0.406,0.347-0.627c0.043-0.221,0.011-0.445-0.096-0.673c-0.137-0.292-0.317-0.479-0.54-0.562
	c-0.223-0.083-0.508-0.08-0.853,0.008l-0.601,0.16c-0.12,0.031-0.215,0.034-0.283,0.01c-0.069-0.024-0.12-0.073-0.156-0.148
	c-0.108-0.23,0.076-0.456,0.552-0.679c0.315-0.148,0.629-0.249,0.941-0.304l-0.343-0.732c-0.145,0.027-0.302,0.069-0.47,0.125
	c-0.169,0.056-0.334,0.122-0.497,0.198c-0.357,0.167-0.635,0.352-0.834,0.555c-0.199,0.203-0.32,0.414-0.362,0.633
	C31.234,15.12,31.266,15.341,31.37,15.564z M27.666,16.139l0.352,0.751c0.127-0.115,0.267-0.223,0.423-0.324
	c0.155-0.101,0.302-0.184,0.442-0.249c0.194-0.091,0.356-0.143,0.486-0.157c0.13-0.014,0.241,0.012,0.334,0.078
	c0.093,0.066,0.177,0.178,0.252,0.337l0.02,0.044l-0.535,0.308c-0.478,0.262-0.789,0.536-0.933,0.823
	c-0.144,0.287-0.14,0.594,0.014,0.921c0.093,0.198,0.218,0.351,0.377,0.459c0.159,0.108,0.341,0.164,0.546,0.168
	c0.206,0.004,0.423-0.048,0.653-0.155c0.192-0.09,0.351-0.204,0.477-0.344c0.126-0.139,0.207-0.3,0.243-0.482l0.047-0.022
	l0.227,0.306l0.826-0.387l-0.954-2.034c-0.168-0.359-0.357-0.617-0.566-0.775c-0.209-0.158-0.45-0.229-0.722-0.213
	c-0.272,0.016-0.596,0.111-0.969,0.286c-0.179,0.084-0.362,0.185-0.549,0.303C27.971,15.897,27.807,16.017,27.666,16.139z
	 M25.069,17.246l1.605,3.424l1.002-0.469l-1.05-2.241c0.031-0.139,0.106-0.272,0.225-0.399c0.119-0.127,0.254-0.226,0.406-0.297
	c0.134-0.063,0.251-0.106,0.351-0.13l-0.424-0.905c-0.091,0.022-0.187,0.057-0.287,0.104c-0.198,0.093-0.357,0.216-0.476,0.37
	c-0.119,0.154-0.187,0.335-0.203,0.544l-0.047,0.022l-0.285-0.405L25.069,17.246z M22.638,18.386l-0.557,0.261l0.37,0.789
	l0.557-0.261l0.663,1.415c0.205,0.438,0.466,0.711,0.782,0.817c0.316,0.107,0.685,0.061,1.106-0.137
	c0.211-0.099,0.411-0.222,0.599-0.368l-0.371-0.792c-0.14,0.098-0.253,0.168-0.341,0.209c-0.134,0.063-0.25,0.094-0.348,0.093
	c-0.099-0.001-0.188-0.037-0.268-0.109c-0.081-0.071-0.157-0.185-0.23-0.339l-0.59-1.258l0.898-0.421l-0.37-0.789l-0.898,0.421
	l-0.566-1.208l-0.82,0.384L22.638,18.386z M22.37,27.742l-1.993-2.135l-1.045,0.49l2.807,2.861l1.252-0.587l-0.397-3.99
	l-0.986,0.462L22.37,27.742z M19.338,22.031c0.182,0.388,0.402,0.683,0.661,0.883c0.258,0.201,0.543,0.309,0.854,0.323
	c0.311,0.015,0.64-0.059,0.986-0.222c0.346-0.162,0.613-0.368,0.801-0.616c0.188-0.248,0.287-0.536,0.297-0.865
	c0.011-0.328-0.076-0.687-0.259-1.077c-0.273-0.582-0.625-0.954-1.056-1.116c-0.431-0.162-0.912-0.118-1.444,0.131
	c-0.534,0.25-0.877,0.592-1.027,1.025C19,20.932,19.063,21.443,19.338,22.031z M15.894,22.818c0.129,0.275,0.305,0.459,0.529,0.552
	c0.224,0.092,0.509,0.093,0.856,0.002l0.601-0.16c0.125-0.031,0.221-0.035,0.288-0.013c0.066,0.022,0.12,0.076,0.16,0.162
	c0.052,0.111,0.043,0.217-0.028,0.32c-0.07,0.103-0.214,0.205-0.431,0.307c-0.384,0.18-0.769,0.298-1.155,0.354l0.343,0.732
	c0.372-0.053,0.762-0.174,1.169-0.365c0.321-0.15,0.576-0.324,0.765-0.521c0.189-0.197,0.305-0.406,0.348-0.627
	c0.043-0.221,0.011-0.445-0.096-0.673c-0.137-0.292-0.317-0.479-0.54-0.562c-0.223-0.083-0.507-0.08-0.853,0.008l-0.601,0.16
	c-0.121,0.031-0.215,0.034-0.283,0.01c-0.068-0.024-0.12-0.073-0.155-0.148c-0.108-0.23,0.076-0.456,0.552-0.679
	c0.315-0.148,0.629-0.249,0.942-0.304l-0.343-0.732c-0.145,0.027-0.302,0.069-0.47,0.125c-0.169,0.056-0.334,0.122-0.497,0.199
	c-0.357,0.167-0.634,0.352-0.833,0.555c-0.199,0.203-0.32,0.414-0.362,0.633C15.758,22.373,15.789,22.595,15.894,22.818z
	 M12.422,25.274c0.182,0.388,0.402,0.682,0.66,0.883c0.258,0.201,0.543,0.309,0.854,0.323c0.311,0.015,0.639-0.059,0.986-0.222
	c0.346-0.162,0.613-0.368,0.801-0.616c0.188-0.248,0.287-0.536,0.297-0.865c0.01-0.328-0.076-0.687-0.259-1.077
	c-0.273-0.582-0.625-0.954-1.055-1.116c-0.431-0.162-0.912-0.118-1.445,0.131c-0.534,0.25-0.876,0.592-1.027,1.025
	C12.083,24.174,12.146,24.685,12.422,25.274z M10.519,28.242l-1.094-2.335c0.03-0.126,0.09-0.239,0.18-0.34
	c0.09-0.101,0.195-0.179,0.314-0.235c0.159-0.074,0.298-0.089,0.418-0.045c0.12,0.044,0.226,0.166,0.319,0.364l0.971,2.072
	l1.002-0.469l-0.999-2.131c-0.217-0.463-0.481-0.754-0.791-0.873c-0.311-0.119-0.646-0.094-1.007,0.075
	c-0.203,0.095-0.373,0.217-0.512,0.366c-0.139,0.149-0.241,0.318-0.305,0.506l-0.047,0.022l-0.232-0.315l-0.823,0.386l1.605,3.424
	L10.519,28.242z M11.794,30.962c0.021-0.124,0.07-0.234,0.149-0.329c0.078-0.095,0.171-0.168,0.277-0.218
	c0.14-0.066,0.266-0.074,0.377-0.026c0.112,0.048,0.214,0.17,0.305,0.366l0.973,2.075l0.98-0.459l-1.012-2.159
	c-0.037-0.079-0.075-0.152-0.114-0.218c0.03-0.11,0.082-0.207,0.158-0.29c0.076-0.083,0.164-0.147,0.264-0.194
	c0.14-0.065,0.268-0.075,0.386-0.028c0.117,0.047,0.222,0.167,0.313,0.361l0.973,2.075l0.998-0.468l-0.997-2.128
	c-0.218-0.465-0.48-0.758-0.786-0.879c-0.306-0.121-0.635-0.1-0.985,0.065c-0.188,0.088-0.354,0.21-0.497,0.365
	c-0.144,0.155-0.251,0.342-0.321,0.561c-0.163-0.109-0.336-0.165-0.519-0.167c-0.183-0.002-0.37,0.041-0.559,0.13
	c-0.396,0.186-0.654,0.469-0.773,0.851l-0.047,0.022l-0.232-0.315l-0.823,0.386l1.605,3.424l1.001-0.469L11.794,30.962z
	 M17.234,38.066l-0.351-0.748c-0.281,0.221-0.552,0.392-0.813,0.515c-0.248,0.116-0.455,0.185-0.621,0.205
	c-0.166,0.02-0.308-0.006-0.425-0.08c-0.117-0.073-0.224-0.2-0.321-0.378l2.078-0.974l-0.123-0.263
	c-0.274-0.584-0.609-0.97-1.006-1.157c-0.397-0.187-0.837-0.167-1.321,0.06c-0.338,0.158-0.594,0.361-0.769,0.608
	c-0.174,0.247-0.261,0.532-0.262,0.854c0,0.322,0.087,0.671,0.263,1.047c0.196,0.417,0.421,0.725,0.677,0.923
	c0.256,0.198,0.551,0.295,0.886,0.289c0.335-0.006,0.72-0.111,1.156-0.315C16.62,38.495,16.936,38.299,17.234,38.066z
	 M19.039,37.281l-2.371-5.058l-1.002,0.469l2.371,5.058L19.039,37.281z M19.12,30.452c0.346-0.162,0.613-0.368,0.801-0.616
	c0.188-0.248,0.287-0.536,0.297-0.865c0.01-0.328-0.076-0.687-0.259-1.077c-0.273-0.582-0.625-0.954-1.056-1.116
	c-0.431-0.162-0.912-0.119-1.444,0.131c-0.534,0.25-0.877,0.592-1.027,1.025c-0.151,0.434-0.088,0.944,0.188,1.533
	c0.182,0.388,0.402,0.682,0.66,0.883c0.258,0.201,0.543,0.309,0.854,0.323C18.446,30.688,18.774,30.614,19.12,30.452z
	 M26.115,33.964l-0.998-2.128c-0.218-0.465-0.48-0.758-0.787-0.88c-0.306-0.121-0.635-0.1-0.985,0.065
	c-0.188,0.088-0.354,0.21-0.497,0.365c-0.144,0.155-0.251,0.342-0.321,0.561c-0.163-0.109-0.336-0.165-0.519-0.167
	c-0.183-0.002-0.37,0.041-0.559,0.13c-0.396,0.186-0.654,0.469-0.773,0.851l-0.047,0.022l-0.232-0.315l-0.823,0.386l1.605,3.424
	l1.001-0.469l-1.093-2.332c0.021-0.124,0.071-0.234,0.149-0.33c0.079-0.095,0.171-0.168,0.277-0.218
	c0.14-0.066,0.266-0.074,0.377-0.026c0.112,0.048,0.214,0.17,0.305,0.366l0.973,2.075l0.98-0.459l-1.012-2.159
	c-0.037-0.079-0.075-0.152-0.114-0.218c0.029-0.111,0.082-0.207,0.158-0.29c0.076-0.083,0.164-0.147,0.264-0.194
	c0.14-0.066,0.268-0.075,0.385-0.028c0.118,0.046,0.222,0.167,0.313,0.361l0.972,2.075L26.115,33.964z M29.927,32.178l-1.605-3.424
	l-1.001,0.469l1.097,2.341c-0.033,0.125-0.094,0.238-0.185,0.339c-0.09,0.101-0.19,0.177-0.301,0.229
	c-0.15,0.07-0.285,0.083-0.405,0.037c-0.119-0.046-0.225-0.167-0.317-0.363l-0.972-2.075l-1.001,0.47l1.003,2.141
	c0.217,0.463,0.482,0.753,0.795,0.87c0.313,0.117,0.652,0.09,1.017-0.082c0.186-0.087,0.344-0.203,0.477-0.347
	c0.132-0.145,0.232-0.314,0.301-0.509l0.041-0.019l0.23,0.312L29.927,32.178z M33.811,30.357l-0.999-2.131
	c-0.217-0.463-0.481-0.754-0.791-0.873c-0.31-0.119-0.646-0.094-1.007,0.075c-0.203,0.095-0.373,0.217-0.512,0.366
	c-0.139,0.149-0.24,0.318-0.305,0.506l-0.047,0.022l-0.232-0.315l-0.823,0.386l1.605,3.424l1.002-0.469l-1.094-2.335
	c0.03-0.126,0.09-0.239,0.18-0.34c0.09-0.101,0.194-0.179,0.313-0.235c0.159-0.074,0.298-0.089,0.418-0.045
	c0.12,0.044,0.226,0.166,0.319,0.364l0.971,2.072L33.811,30.357z M37.667,28.55l-2.371-5.058l-1.002,0.469l0.751,1.603
	c-0.131,0.041-0.267,0.095-0.409,0.161c-0.607,0.285-0.997,0.658-1.167,1.121c-0.171,0.463-0.116,0.994,0.164,1.593
	c0.182,0.388,0.395,0.68,0.639,0.874c0.244,0.195,0.499,0.302,0.766,0.322c0.266,0.02,0.532-0.032,0.797-0.156
	c0.196-0.092,0.354-0.211,0.475-0.358c0.121-0.147,0.201-0.309,0.24-0.485l0.047-0.022l0.229,0.327L37.667,28.55z M40.79,26.926
	c0.188-0.248,0.287-0.536,0.297-0.865c0.01-0.328-0.076-0.687-0.259-1.078c-0.273-0.582-0.625-0.954-1.055-1.116
	c-0.431-0.162-0.913-0.118-1.445,0.131c-0.534,0.25-0.876,0.592-1.027,1.025c-0.151,0.433-0.088,0.944,0.188,1.533
	c0.182,0.388,0.402,0.683,0.66,0.883c0.258,0.201,0.543,0.309,0.854,0.323c0.311,0.015,0.639-0.059,0.986-0.221
	C40.335,27.38,40.602,27.174,40.79,26.926z M34.457,27.025c-0.067,0.224-0.018,0.512,0.147,0.864
	c0.165,0.353,0.341,0.573,0.528,0.661c0.187,0.088,0.391,0.08,0.615-0.024c0.108-0.051,0.204-0.119,0.286-0.205
	s0.138-0.182,0.169-0.291l-0.793-1.693c-0.133,0.032-0.271,0.081-0.412,0.148C34.704,26.622,34.524,26.802,34.457,27.025z"/>
</svg>
