<?xml version="1.0" encoding="utf-8"?>
<!-- Generator: Adobe Illustrator 24.2.1, SVG Export Plug-In . SVG Version: 6.00 Build 0)  -->
<svg version="1.1" id="Layer_1" xmlns="http://www.w3.org/2000/svg" xmlns:xlink="http://www.w3.org/1999/xlink" x="0px" y="0px"
	 viewBox="0 0 50.5 50.5" style="enable-background:new 0 0 50.5 50.5;" xml:space="preserve">
<path d="M25.23,47.812c-12.452,0-22.582-10.13-22.582-22.582S12.778,2.648,25.23,2.648s22.582,10.13,22.582,22.582
	S37.682,47.812,25.23,47.812z M25.23,4.248c-11.569,0-20.982,9.413-20.982,20.982s9.413,20.982,20.982,20.982
	s20.982-9.413,20.982-20.982S36.799,4.248,25.23,4.248z M9.517,28.711l1.001-0.469l-1.094-2.335c0.03-0.126,0.09-0.239,0.18-0.34
	c0.09-0.101,0.195-0.179,0.314-0.235c0.159-0.074,0.298-0.089,0.418-0.045c0.12,0.044,0.226,0.166,0.319,0.364l0.971,2.072
	l1.002-0.469l-0.999-2.131c-0.217-0.463-0.481-0.754-0.791-0.873c-0.311-0.119-0.646-0.094-1.007,0.075
	c-0.203,0.095-0.373,0.217-0.512,0.366c-0.139,0.149-0.241,0.318-0.305,0.506l-0.047,0.022l-0.232-0.315l-0.823,0.386L9.517,28.711z
	 M13.936,26.48c-0.311-0.015-0.596-0.122-0.854-0.323c-0.258-0.201-0.478-0.495-0.66-0.883c-0.276-0.588-0.338-1.099-0.187-1.533
	c0.151-0.433,0.493-0.775,1.027-1.025c0.532-0.249,1.014-0.293,1.445-0.131c0.431,0.162,0.783,0.534,1.055,1.116
	c0.183,0.39,0.269,0.749,0.259,1.077c-0.01,0.328-0.109,0.616-0.297,0.865s-0.455,0.454-0.801,0.616
	C14.575,26.421,14.247,26.495,13.936,26.48 M14.888,25.232c0.067-0.107,0.091-0.247,0.073-0.418
	c-0.018-0.171-0.086-0.382-0.203-0.632c-0.119-0.255-0.24-0.445-0.361-0.571c-0.121-0.126-0.245-0.198-0.372-0.215
	c-0.126-0.017-0.263,0.009-0.409,0.077c-0.146,0.069-0.253,0.157-0.321,0.265c-0.068,0.108-0.093,0.248-0.075,0.418
	c0.018,0.171,0.086,0.383,0.204,0.635c0.119,0.255,0.239,0.444,0.36,0.57c0.121,0.125,0.244,0.197,0.37,0.214
	c0.125,0.018,0.262-0.008,0.41-0.078C14.714,25.428,14.821,25.34,14.888,25.232 M17.058,25.074c0.372-0.053,0.762-0.174,1.169-0.365
	c0.321-0.15,0.576-0.324,0.765-0.521c0.189-0.197,0.305-0.406,0.348-0.627c0.043-0.221,0.011-0.445-0.096-0.673
	c-0.137-0.292-0.317-0.479-0.54-0.562c-0.223-0.083-0.507-0.08-0.853,0.008l-0.601,0.16c-0.121,0.031-0.215,0.034-0.283,0.01
	c-0.068-0.024-0.12-0.073-0.155-0.148c-0.108-0.23,0.076-0.456,0.552-0.679c0.315-0.148,0.629-0.249,0.942-0.304l-0.343-0.732
	c-0.145,0.027-0.302,0.069-0.47,0.125c-0.169,0.056-0.334,0.122-0.497,0.199c-0.356,0.167-0.634,0.352-0.833,0.555
	c-0.199,0.203-0.32,0.414-0.362,0.633c-0.042,0.219-0.011,0.441,0.094,0.664c0.129,0.275,0.305,0.459,0.529,0.552
	c0.224,0.092,0.509,0.093,0.856,0.002l0.601-0.16c0.125-0.03,0.221-0.035,0.288-0.013c0.066,0.022,0.12,0.076,0.16,0.162
	c0.052,0.111,0.043,0.217-0.028,0.32c-0.07,0.103-0.214,0.205-0.431,0.307c-0.384,0.18-0.769,0.298-1.155,0.354L17.058,25.074
	 M20.853,23.238c-0.311-0.015-0.596-0.122-0.854-0.323c-0.258-0.201-0.479-0.495-0.661-0.883c-0.276-0.588-0.338-1.099-0.188-1.533
	c0.151-0.433,0.493-0.775,1.027-1.025c0.532-0.249,1.013-0.293,1.444-0.131c0.431,0.162,0.783,0.534,1.056,1.116
	c0.183,0.39,0.269,0.749,0.259,1.077c-0.01,0.328-0.109,0.616-0.297,0.865c-0.188,0.248-0.455,0.454-0.801,0.616
	C21.492,23.179,21.164,23.253,20.853,23.238 M21.804,21.991c0.066-0.108,0.091-0.247,0.073-0.418
	c-0.018-0.171-0.085-0.382-0.203-0.632c-0.119-0.255-0.24-0.445-0.361-0.571c-0.122-0.126-0.246-0.198-0.372-0.215
	c-0.126-0.017-0.263,0.009-0.409,0.077c-0.146,0.068-0.253,0.157-0.321,0.265c-0.068,0.108-0.092,0.248-0.075,0.419
	c0.018,0.171,0.086,0.383,0.204,0.635c0.119,0.255,0.24,0.445,0.361,0.57c0.121,0.125,0.244,0.197,0.37,0.214
	c0.125,0.018,0.262-0.008,0.41-0.078C21.63,22.187,21.738,22.098,21.804,21.991 M25.786,20.109c-0.14,0.098-0.253,0.168-0.341,0.209
	c-0.134,0.063-0.25,0.094-0.348,0.093c-0.099-0.001-0.188-0.037-0.268-0.109c-0.081-0.071-0.157-0.184-0.23-0.339l-0.59-1.258
	l0.898-0.421l-0.37-0.789l-0.898,0.421l-0.566-1.208l-0.82,0.384l0.385,1.293l-0.557,0.261l0.37,0.789l0.557-0.261l0.663,1.415
	c0.205,0.438,0.466,0.711,0.782,0.817c0.316,0.107,0.685,0.061,1.106-0.137c0.211-0.099,0.411-0.222,0.599-0.368L25.786,20.109
	 M26.674,20.67l1.002-0.469l-1.05-2.241c0.031-0.139,0.106-0.272,0.225-0.399c0.119-0.127,0.254-0.226,0.406-0.297
	c0.134-0.063,0.251-0.106,0.351-0.13l-0.424-0.905c-0.091,0.022-0.187,0.057-0.287,0.104c-0.199,0.093-0.357,0.216-0.476,0.37
	c-0.119,0.154-0.187,0.335-0.203,0.544l-0.047,0.022l-0.285-0.405l-0.817,0.383L26.674,20.67z M29.676,15.19
	c0.272-0.016,0.513,0.055,0.722,0.213c0.209,0.158,0.398,0.416,0.566,0.775l0.954,2.034L31.091,18.6l-0.227-0.306l-0.047,0.022
	c-0.036,0.183-0.118,0.343-0.243,0.482c-0.126,0.139-0.285,0.254-0.477,0.344c-0.23,0.108-0.447,0.159-0.653,0.155
	c-0.205-0.004-0.387-0.06-0.546-0.168c-0.159-0.107-0.285-0.26-0.377-0.459c-0.153-0.327-0.158-0.635-0.014-0.921
	c0.144-0.287,0.455-0.561,0.933-0.823l0.535-0.308l-0.02-0.044c-0.075-0.159-0.158-0.271-0.252-0.337
	c-0.093-0.066-0.204-0.092-0.334-0.078c-0.13,0.014-0.292,0.066-0.486,0.157c-0.14,0.066-0.287,0.149-0.442,0.249
	c-0.155,0.101-0.296,0.209-0.423,0.324l-0.352-0.751c0.141-0.122,0.305-0.242,0.492-0.36c0.186-0.118,0.369-0.219,0.549-0.303
	C29.08,15.301,29.403,15.206,29.676,15.19 M30.363,18.107c0.078-0.079,0.136-0.173,0.176-0.283l-0.301-0.642l-0.441,0.249
	c-0.181,0.103-0.297,0.21-0.349,0.322c-0.052,0.112-0.047,0.233,0.013,0.362c0.06,0.127,0.144,0.206,0.252,0.237
	c0.108,0.031,0.236,0.011,0.385-0.058C30.197,18.248,30.285,18.185,30.363,18.107 M32.534,17.82
	c0.373-0.053,0.762-0.174,1.169-0.365c0.321-0.15,0.576-0.324,0.765-0.521c0.189-0.197,0.305-0.406,0.347-0.627
	c0.043-0.221,0.011-0.445-0.096-0.673c-0.137-0.292-0.317-0.479-0.54-0.562c-0.223-0.083-0.508-0.08-0.853,0.008l-0.601,0.16
	c-0.12,0.031-0.215,0.034-0.283,0.01c-0.069-0.024-0.12-0.073-0.156-0.148c-0.108-0.23,0.076-0.456,0.552-0.679
	c0.315-0.147,0.629-0.249,0.941-0.304l-0.343-0.732c-0.145,0.027-0.302,0.069-0.47,0.125c-0.169,0.056-0.334,0.122-0.497,0.198
	c-0.357,0.167-0.635,0.352-0.834,0.555c-0.199,0.203-0.32,0.414-0.362,0.633c-0.042,0.22-0.011,0.441,0.094,0.664
	c0.129,0.276,0.306,0.459,0.529,0.552c0.224,0.092,0.509,0.093,0.856,0.002l0.601-0.16c0.125-0.031,0.221-0.035,0.288-0.013
	c0.066,0.022,0.12,0.076,0.16,0.162c0.052,0.111,0.043,0.217-0.028,0.32c-0.07,0.103-0.213,0.205-0.431,0.307
	c-0.384,0.18-0.769,0.298-1.155,0.354L32.534,17.82 M15.037,28.442c-0.306-0.121-0.635-0.1-0.985,0.065
	c-0.188,0.088-0.353,0.21-0.497,0.365c-0.144,0.155-0.251,0.342-0.321,0.561c-0.163-0.109-0.336-0.165-0.519-0.167
	c-0.183-0.002-0.37,0.041-0.559,0.13c-0.396,0.186-0.654,0.469-0.773,0.851l-0.047,0.022l-0.232-0.315l-0.823,0.386l1.605,3.424
	l1.001-0.469l-1.093-2.332c0.021-0.124,0.07-0.234,0.149-0.329c0.078-0.095,0.171-0.168,0.277-0.218
	c0.14-0.066,0.266-0.074,0.377-0.026c0.112,0.048,0.214,0.17,0.305,0.366l0.973,2.075l0.98-0.459l-1.012-2.159
	c-0.037-0.079-0.075-0.152-0.114-0.218c0.03-0.11,0.082-0.207,0.158-0.29c0.076-0.083,0.164-0.147,0.264-0.194
	c0.14-0.065,0.268-0.075,0.386-0.028c0.117,0.047,0.222,0.167,0.313,0.361l0.973,2.075l0.998-0.468l-0.997-2.128
	C15.605,28.856,15.343,28.563,15.037,28.442 M18.134,30.673c-0.311-0.015-0.596-0.122-0.854-0.323
	c-0.258-0.201-0.479-0.495-0.66-0.883c-0.276-0.588-0.338-1.099-0.188-1.533c0.151-0.433,0.493-0.775,1.027-1.025
	c0.532-0.249,1.013-0.293,1.444-0.131c0.431,0.162,0.783,0.534,1.056,1.116c0.183,0.39,0.269,0.749,0.259,1.077
	c-0.011,0.328-0.11,0.616-0.297,0.865c-0.188,0.248-0.455,0.454-0.801,0.616C18.774,30.614,18.446,30.688,18.134,30.673
	 M19.086,29.426c0.066-0.107,0.091-0.247,0.073-0.418c-0.018-0.171-0.086-0.382-0.203-0.632c-0.119-0.254-0.24-0.445-0.361-0.571
	c-0.122-0.126-0.246-0.198-0.372-0.215c-0.126-0.017-0.263,0.009-0.409,0.077c-0.146,0.068-0.253,0.157-0.32,0.265
	c-0.068,0.108-0.093,0.248-0.075,0.419c0.018,0.171,0.086,0.383,0.204,0.635c0.119,0.255,0.239,0.445,0.361,0.57
	c0.121,0.125,0.244,0.197,0.369,0.214c0.125,0.018,0.262-0.008,0.41-0.078C18.912,29.622,19.019,29.533,19.086,29.426 M22.37,27.742
	l-1.993-2.135l-1.045,0.49l2.807,2.861l1.252-0.587l-0.397-3.99l-0.986,0.462L22.37,27.742z M27.209,24.848l-2.078,0.974
	c0.097,0.179,0.204,0.305,0.321,0.378c0.117,0.074,0.259,0.1,0.425,0.08c0.166-0.021,0.373-0.089,0.621-0.205
	c0.261-0.122,0.532-0.294,0.813-0.515l0.35,0.748c-0.297,0.234-0.614,0.429-0.95,0.586c-0.436,0.205-0.821,0.309-1.156,0.315
	c-0.335,0.005-0.63-0.091-0.886-0.289c-0.256-0.198-0.481-0.506-0.677-0.923c-0.176-0.376-0.264-0.724-0.264-1.047
	c0.001-0.322,0.088-0.607,0.262-0.854c0.174-0.247,0.43-0.45,0.769-0.608c0.484-0.227,0.924-0.247,1.321-0.06
	c0.397,0.187,0.732,0.572,1.006,1.157L27.209,24.848z M24.704,24.521c-0.035,0.174,0.015,0.415,0.152,0.723l1.149-0.538
	c-0.15-0.304-0.301-0.498-0.453-0.584c-0.152-0.085-0.322-0.084-0.51,0.004C24.853,24.215,24.74,24.347,24.704,24.521
	 M31.609,20.675c-0.306-0.121-0.635-0.1-0.985,0.064c-0.188,0.088-0.353,0.21-0.497,0.365c-0.144,0.155-0.251,0.342-0.321,0.561
	c-0.163-0.109-0.336-0.165-0.519-0.167c-0.183-0.002-0.369,0.041-0.559,0.13c-0.397,0.186-0.655,0.469-0.773,0.851l-0.047,0.022
	l-0.232-0.315l-0.823,0.386l1.605,3.424l1.001-0.469l-1.093-2.332c0.021-0.124,0.07-0.234,0.149-0.329
	c0.078-0.095,0.171-0.168,0.278-0.218c0.14-0.066,0.266-0.074,0.377-0.026c0.112,0.048,0.214,0.171,0.305,0.367l0.973,2.075
	l0.98-0.459l-1.012-2.159c-0.037-0.079-0.075-0.152-0.113-0.218c0.029-0.111,0.082-0.207,0.158-0.29
	c0.076-0.083,0.163-0.147,0.264-0.194c0.14-0.066,0.268-0.075,0.386-0.028c0.117,0.047,0.221,0.167,0.313,0.361l0.973,2.075
	l0.998-0.468l-0.997-2.128C32.177,21.089,31.915,20.796,31.609,20.675 M34.706,22.906c-0.311-0.015-0.596-0.122-0.854-0.323
	c-0.258-0.201-0.478-0.495-0.66-0.883c-0.276-0.588-0.338-1.099-0.187-1.532c0.15-0.433,0.493-0.775,1.027-1.025
	c0.532-0.249,1.013-0.293,1.444-0.131c0.431,0.162,0.783,0.534,1.056,1.116c0.183,0.39,0.269,0.749,0.259,1.078
	c-0.011,0.328-0.11,0.616-0.298,0.864c-0.188,0.248-0.455,0.454-0.801,0.616C35.346,22.847,35.017,22.921,34.706,22.906
	 M35.658,21.659c0.066-0.107,0.091-0.247,0.073-0.418c-0.018-0.171-0.085-0.382-0.203-0.632c-0.119-0.254-0.24-0.445-0.361-0.571
	c-0.121-0.126-0.245-0.198-0.372-0.215c-0.126-0.017-0.263,0.009-0.409,0.077c-0.146,0.068-0.253,0.157-0.32,0.265
	c-0.068,0.108-0.093,0.248-0.075,0.418c0.018,0.171,0.086,0.383,0.205,0.635c0.119,0.255,0.24,0.445,0.361,0.57
	c0.121,0.125,0.244,0.197,0.369,0.214c0.125,0.018,0.262-0.008,0.41-0.078C35.484,21.855,35.592,21.766,35.658,21.659
	 M37.822,21.503c0.372-0.053,0.762-0.174,1.169-0.365c0.321-0.15,0.576-0.324,0.765-0.521c0.189-0.197,0.305-0.406,0.348-0.627
	c0.043-0.221,0.011-0.445-0.096-0.673c-0.137-0.292-0.317-0.479-0.54-0.562c-0.223-0.082-0.507-0.079-0.853,0.008l-0.601,0.16
	c-0.121,0.031-0.215,0.034-0.283,0.01c-0.069-0.024-0.12-0.073-0.156-0.148c-0.108-0.23,0.077-0.456,0.552-0.679
	c0.315-0.147,0.629-0.249,0.942-0.304l-0.343-0.733c-0.145,0.027-0.301,0.069-0.47,0.125c-0.168,0.056-0.334,0.122-0.497,0.199
	c-0.357,0.167-0.635,0.352-0.834,0.555c-0.199,0.203-0.319,0.414-0.362,0.633c-0.042,0.219-0.011,0.441,0.094,0.664
	c0.129,0.276,0.306,0.459,0.53,0.552c0.224,0.092,0.509,0.093,0.856,0.002l0.601-0.16c0.125-0.031,0.221-0.035,0.288-0.013
	c0.066,0.022,0.12,0.076,0.16,0.162c0.052,0.111,0.043,0.217-0.027,0.32c-0.07,0.103-0.214,0.205-0.431,0.307
	c-0.384,0.18-0.769,0.298-1.155,0.354L37.822,21.503 M16.783,36.605l-2.078,0.974c0.096,0.179,0.204,0.305,0.321,0.378
	c0.117,0.074,0.259,0.1,0.425,0.08c0.166-0.021,0.373-0.089,0.621-0.205c0.261-0.122,0.532-0.294,0.813-0.515l0.351,0.748
	c-0.298,0.234-0.615,0.429-0.95,0.587c-0.436,0.204-0.821,0.309-1.156,0.315c-0.335,0.005-0.63-0.091-0.886-0.289
	c-0.256-0.198-0.481-0.506-0.677-0.923c-0.176-0.376-0.264-0.724-0.263-1.047c0-0.322,0.088-0.607,0.262-0.854
	c0.175-0.247,0.431-0.45,0.769-0.608c0.484-0.227,0.924-0.247,1.321-0.06c0.396,0.187,0.732,0.572,1.006,1.157L16.783,36.605z
	 M14.278,36.279c-0.035,0.175,0.015,0.415,0.152,0.723l1.149-0.538c-0.15-0.304-0.301-0.498-0.453-0.583
	c-0.152-0.085-0.322-0.084-0.509,0.004C14.426,35.973,14.313,36.105,14.278,36.279 M19.039,37.281l-2.371-5.058l-1.002,0.469
	l2.371,5.058L19.039,37.281z M24.331,30.957c-0.306-0.121-0.635-0.1-0.985,0.065c-0.188,0.088-0.354,0.21-0.497,0.365
	c-0.144,0.155-0.251,0.342-0.321,0.561c-0.163-0.109-0.336-0.165-0.519-0.167c-0.183-0.002-0.37,0.041-0.559,0.13
	c-0.396,0.186-0.654,0.469-0.773,0.851l-0.047,0.022l-0.232-0.315l-0.823,0.386l1.605,3.424l1.001-0.469l-1.093-2.332
	c0.021-0.124,0.071-0.234,0.149-0.33c0.079-0.095,0.171-0.168,0.277-0.218c0.14-0.066,0.266-0.074,0.377-0.026
	c0.112,0.048,0.214,0.171,0.305,0.366l0.973,2.075l0.98-0.459l-1.012-2.16c-0.037-0.079-0.075-0.152-0.114-0.218
	c0.029-0.111,0.082-0.207,0.158-0.29c0.076-0.083,0.164-0.147,0.264-0.194c0.14-0.066,0.268-0.075,0.385-0.028
	c0.118,0.046,0.222,0.167,0.313,0.361l0.972,2.075l0.999-0.468l-0.998-2.128C24.899,31.371,24.637,31.078,24.331,30.957
	 M27.035,33.211c0.313,0.117,0.652,0.089,1.017-0.082c0.186-0.087,0.344-0.203,0.477-0.347c0.132-0.145,0.232-0.314,0.301-0.509
	l0.041-0.019l0.23,0.312l0.826-0.387l-1.605-3.424l-1.001,0.469l1.097,2.341c-0.033,0.125-0.094,0.238-0.185,0.339
	c-0.09,0.101-0.19,0.177-0.301,0.229c-0.15,0.07-0.285,0.083-0.405,0.037c-0.119-0.046-0.225-0.167-0.317-0.363l-0.972-2.075
	L25.236,30.2l1.003,2.141C26.456,32.804,26.721,33.094,27.035,33.211 M30.7,31.815l1.002-0.469l-1.094-2.335
	c0.03-0.126,0.09-0.239,0.18-0.34c0.09-0.101,0.194-0.179,0.313-0.235c0.159-0.074,0.298-0.089,0.418-0.045
	c0.12,0.044,0.226,0.166,0.319,0.364l0.971,2.072l1.001-0.469l-0.999-2.131c-0.217-0.463-0.481-0.754-0.791-0.873
	c-0.31-0.119-0.646-0.094-1.007,0.075c-0.203,0.095-0.373,0.217-0.512,0.366c-0.139,0.149-0.24,0.318-0.305,0.506l-0.047,0.022
	l-0.232-0.315l-0.823,0.386L30.7,31.815z M35.038,29.637c-0.267-0.02-0.522-0.128-0.766-0.323c-0.244-0.195-0.457-0.486-0.639-0.874
	c-0.281-0.599-0.335-1.13-0.164-1.593c0.171-0.463,0.56-0.837,1.167-1.121c0.142-0.066,0.278-0.12,0.409-0.161l-0.751-1.603
	l1.002-0.469l2.371,5.058l-0.839,0.393l-0.23-0.327l-0.047,0.022c-0.039,0.176-0.119,0.338-0.24,0.485
	c-0.121,0.147-0.279,0.266-0.475,0.358C35.57,29.605,35.305,29.657,35.038,29.637 M36.033,28.322
	c0.082-0.086,0.138-0.182,0.169-0.291l-0.793-1.693c-0.133,0.032-0.27,0.081-0.412,0.147c-0.292,0.137-0.471,0.317-0.539,0.541
	c-0.067,0.224-0.018,0.512,0.147,0.864c0.165,0.353,0.341,0.573,0.528,0.661c0.187,0.088,0.391,0.08,0.615-0.025
	C35.855,28.475,35.95,28.407,36.033,28.322 M39.002,27.764c-0.311-0.015-0.596-0.122-0.854-0.323
	c-0.259-0.201-0.479-0.495-0.66-0.883c-0.276-0.588-0.338-1.099-0.188-1.533c0.151-0.433,0.493-0.775,1.027-1.025
	c0.532-0.249,1.014-0.293,1.445-0.131c0.431,0.162,0.783,0.534,1.056,1.116c0.183,0.39,0.269,0.75,0.259,1.078
	c-0.01,0.328-0.11,0.616-0.297,0.865c-0.188,0.248-0.455,0.454-0.801,0.616C39.642,27.705,39.313,27.778,39.002,27.764
	 M39.954,26.516c0.067-0.107,0.091-0.247,0.073-0.418c-0.018-0.171-0.085-0.382-0.203-0.633c-0.119-0.254-0.24-0.445-0.361-0.571
	c-0.121-0.126-0.245-0.198-0.372-0.215c-0.126-0.017-0.263,0.009-0.409,0.077c-0.146,0.068-0.253,0.157-0.32,0.265
	c-0.068,0.108-0.093,0.248-0.075,0.419c0.018,0.171,0.086,0.383,0.204,0.635c0.119,0.255,0.239,0.445,0.361,0.57
	c0.121,0.125,0.244,0.197,0.369,0.214c0.125,0.018,0.262-0.008,0.41-0.078C39.78,26.712,39.887,26.624,39.954,26.516"/>
</svg>
