<?xml version="1.0" encoding="utf-8"?>
<!-- Generator: Adobe Illustrator 23.0.4, SVG Export Plug-In . SVG Version: 6.00 Build 0)  -->
<svg version="1.1" id="Layer_1" xmlns="http://www.w3.org/2000/svg" xmlns:xlink="http://www.w3.org/1999/xlink" x="0px" y="0px"
	 viewBox="0 0 50.5 50.5" style="enable-background:new 0 0 50.5 50.5;" xml:space="preserve">
<style type="text/css">
	.st0{fill:#65B4E1;}
</style>
<title>notificaciones</title>
<path class="st0" d="M39.4,32.3c-2.1-1.6-2.8-6.7-3.3-10.4v-0.4c-0.5-4.4-3.6-8-7.8-9.3c1.3-1.5,1.2-3.8-0.2-5.1
	c-1.5-1.3-3.8-1.2-5.1,0.2c-1.3,1.4-1.3,3.5,0,4.9c-4.2,1.2-7.3,4.9-7.8,9.3v0.4c-0.5,3.7-1.2,8.8-3.4,10.4
	c-2.2,1.5-3.2,4.3-2.4,6.9l0.4,1.2H20c1,3,4.3,4.6,7.3,3.6c1.7-0.6,3-1.9,3.6-3.6h10.5l0.4-1.2C42.6,36.6,41.6,33.8,39.4,32.3z
	 M25.5,8c1,0,1.9,0.8,1.9,1.9c0,1-0.8,1.9-1.9,1.9c-1,0-1.9-0.8-1.9-1.9S24.4,8,25.5,8L25.5,8z M25.5,42.5c-1.5,0-2.8-0.8-3.5-2.1h7
	C28.3,41.7,26.9,42.5,25.5,42.5L25.5,42.5z M40.2,38.7H10.8c-0.5-1.9,0.2-3.9,1.8-4.9c2.8-2,3.5-7.5,4.1-11.9
	c0.5-4.5,4.1-7.9,8.6-8.1h0.3c4.5,0.2,8.2,3.6,8.6,8.1c0.2,1.7,0.5,3.5,0.8,5.3H32c-0.5,0-0.9,0.4-0.9,0.9c0,0.5,0.4,0.9,0.9,0.9
	h3.5c0.2,0.9,0.6,1.8,1,2.6h-6.4c-0.5,0-0.9,0.4-0.9,0.9c0,0.5,0.4,0.9,0.9,0.9h7.5h0.1c0.2,0.2,0.4,0.4,0.6,0.6
	C39.9,34.8,40.7,36.8,40.2,38.7L40.2,38.7z"/>
<path class="st0" d="M27.5,31.4H27c-0.5,0-0.9,0.4-0.9,0.9c0,0.5,0.4,0.9,0.9,0.9h0.4c0.5,0,0.9-0.4,0.9-0.9
	C28.3,31.8,28,31.4,27.5,31.4z"/>
</svg>
