<?xml version="1.0" encoding="utf-8"?>
<!-- Generator: Adobe Illustrator 24.2.1, SVG Export Plug-In . SVG Version: 6.00 Build 0)  -->
<svg version="1.1" id="Layer_1" xmlns="http://www.w3.org/2000/svg" xmlns:xlink="http://www.w3.org/1999/xlink" x="0px" y="0px"
	 viewBox="0 0 50.46 50.46" style="enable-background:new 0 0 50.46 50.46;" xml:space="preserve">
<path d="M14.504,15.791h4.356v6.611h-4.356V15.791z M44.613,39.586c-0.004,3.202-2.56,5.807-5.7,5.807h-0.634L12.55,45.395
	c-3.696,0-6.703-3.007-6.703-6.703V7.748c0-1.479,1.203-2.683,2.682-2.683h23.906c1.436,0,2.602,1.137,2.669,2.557v10.512v1.341
	v1.341v15.416v0.035c0,0.007,0.004,0.012,0.004,0.019c-0.001,0.043,0.009,0.084,0.009,0.126c0.013,1.248,0.468,2.435,1.317,3.357
	c0.932,1.01,2.2,1.586,3.503,1.617c0.098,0.007,0.2,0.011,0.307,0.011c0.358,0,0.776-0.061,1.21-0.167
	c0.563-0.137,1.154-0.382,1.728-0.763c0.321-0.213,0.629-0.474,0.918-0.784c0,0,0.129-0.12,0.275-0.258
	C44.502,39.304,44.613,39.453,44.613,39.586z M13.163,33.217h2.035c0.74,0,1.341-0.601,1.341-1.341c0-0.74-0.601-1.341-1.341-1.341
	h-2.035c-0.74,0-1.341,0.601-1.341,1.341C11.822,32.616,12.423,33.217,13.163,33.217z M20.202,25.084
	c0.74,0,1.341-0.601,1.341-1.341V14.45c0-0.74-0.601-1.341-1.341-1.341h-7.038c-0.74,0-1.341,0.601-1.341,1.341v9.293
	c0,0.74,0.601,1.341,1.341,1.341H20.202z M19.439,31.876c0,0.74,0.601,1.341,1.341,1.341h5.138h2.304
	c0.74,0,1.341-0.601,1.341-1.341c0-0.74-0.601-1.341-1.341-1.341h-0.749H20.78C20.04,30.535,19.439,31.137,19.439,31.876z
	 M23.329,23.833c0,0.74,0.601,1.341,1.341,1.341h3.553c0.74,0,1.341-0.601,1.341-1.341s-0.601-1.341-1.341-1.341H24.67
	C23.929,22.492,23.329,23.093,23.329,23.833z M24.67,17.018h3.553c0.74,0,1.341-0.601,1.341-1.341s-0.601-1.341-1.341-1.341H24.67
	c-0.74,0-1.341,0.601-1.341,1.341S23.929,17.018,24.67,17.018z M43.6,35.718V17.164c0-0.952-0.772-1.724-1.724-1.724h-4.385v20.277
	c0,1.687,1.368,3.054,3.054,3.054h0C42.232,38.772,43.6,37.405,43.6,35.718z"/>
</svg>
