<?xml version="1.0" encoding="utf-8"?>
<!-- Generator: Adobe Illustrator 24.2.1, SVG Export Plug-In . SVG Version: 6.00 Build 0)  -->
<svg version="1.1" id="Layer_1" xmlns="http://www.w3.org/2000/svg" xmlns:xlink="http://www.w3.org/1999/xlink" x="0px" y="0px"
	 viewBox="0 0 50.46 50.46" style="enable-background:new 0 0 50.46 50.46;" xml:space="preserve">
<path d="M43.856,18.879c-0.488-0.483-1.11-0.71-1.814-0.745h-6.926V7.747c0-1.479-1.203-2.682-2.682-2.682H8.527
	c-1.479,0-2.682,1.203-2.682,2.682v30.945c0,3.696,3.007,6.703,6.703,6.703l25.453-0.003c0.098,0.004,0.188,0.003,0.239,0h0.669
	c0.002,0,0.003,0,0.004,0c1.523,0,2.958-0.617,4.042-1.738c1.066-1.103,1.654-2.547,1.654-4.068V20.873
	c0.005-0.066,0.007-0.129,0.005-0.18C44.612,20.006,44.342,19.362,43.856,18.879z M12.548,42.715c-2.218,0-4.022-1.804-4.022-4.022
	L8.527,7.746l23.908,0.001v31.805c-0.029,1.132,0.272,2.222,0.86,3.16L12.548,42.715z M41.929,20.816v18.768
	c-0.001,0.81-0.329,1.613-0.901,2.205c-0.574,0.594-1.326,0.921-2.116,0.921c0,0-0.001,0-0.002,0h-0.667H38.24h-0.199
	c-0.8-0.024-1.544-0.356-2.096-0.937c-0.556-0.584-0.85-1.349-0.83-2.189v-18.77L41.929,20.816
	C41.929,20.816,41.929,20.816,41.929,20.816z M13.552,25.084h7.039c0.741,0,1.341-0.6,1.341-1.341v-9.294
	c0-0.741-0.6-1.341-1.341-1.341h-7.039c-0.741,0-1.341,0.6-1.341,1.341v9.294C12.212,24.484,12.812,25.084,13.552,25.084z
	 M14.893,15.79h4.357v6.613h-4.357V15.79z M29.953,15.677c0,0.741-0.6,1.341-1.34,1.341h-3.554c-0.741,0-1.341-0.6-1.341-1.341
	s0.6-1.341,1.341-1.341h3.554C29.354,14.337,29.953,14.937,29.953,15.677z M29.953,23.832c0,0.741-0.6,1.341-1.34,1.341h-3.554
	c-0.741,0-1.341-0.6-1.341-1.341s0.6-1.341,1.341-1.341h3.554C29.354,22.492,29.953,23.092,29.953,23.832z M16.929,31.876
	c0,0.741-0.6,1.34-1.341,1.34h-2.036c-0.741,0-1.341-0.6-1.341-1.34c0-0.741,0.6-1.34,1.341-1.34h2.036
	C16.329,30.536,16.929,31.136,16.929,31.876z M29.953,31.876c0,0.741-0.6,1.34-1.34,1.34h-7.443c-0.741,0-1.341-0.6-1.341-1.34
	c0-0.741,0.6-1.34,1.341-1.34h7.443C29.354,30.536,29.953,31.136,29.953,31.876z"/>
</svg>
