<?xml version="1.0" encoding="utf-8"?>
<!-- Generator: Adobe Illustrator 22.1.0, SVG Export Plug-In . SVG Version: 6.00 Build 0)  -->
<svg version="1.1" id="Layer_1" xmlns="http://www.w3.org/2000/svg" xmlns:xlink="http://www.w3.org/1999/xlink" x="0px" y="0px"
	 viewBox="0 0 50.5 50.5" style="enable-background:new 0 0 50.5 50.5;" xml:space="preserve">
<style type="text/css">
	.st0{fill:#0EB5E3;}
</style>
<title>nube</title>
<g>
	<path class="st0" d="M45.6,21.1c-1.6-1.6-3.8-2.6-6.1-2.6c-0.1-3.9-3.3-7.1-7.2-7.1c-2,0-3.8,0.8-5.2,2.2c-3.5-4.7-10.2-5.7-15-2.3
		c-3.2,2.3-4.9,6.1-4.5,10c-2.6,1.3-4.3,3.9-4.3,6.8c0.1,4.3,3.5,7.7,7.8,7.9h18.3c0.6,0,1.1-0.5,1.1-1.1c0-0.6-0.5-1.1-1.1-1.1
		H11.1c-3.1-0.1-5.7-2.6-5.7-5.7c0-2.3,1.5-4.4,3.7-5.2c0.5-0.2,0.8-0.7,0.7-1.2c-0.9-4.7,2.1-9.4,6.9-10.3c3.8-0.8,7.7,1.1,9.5,4.5
		c0.2,0.3,0.5,0.5,0.9,0.5c0.4,0,0.7-0.2,0.9-0.5c1.5-2.4,4.7-3.1,7.1-1.6c1.5,0.9,2.4,2.5,2.4,4.3c0,0.3,0,0.5-0.1,0.8
		c0,0.3,0,0.6,0.2,0.9c0.2,0.2,0.5,0.4,0.8,0.4h1.1c3.6,0,6.5,2.9,6.5,6.5c-0.1,3.7-3.1,6.6-6.8,6.6h-4c-0.6,0-1,0.5-1,1s0.5,1,1,1
		h4.1c4.9,0,8.8-3.9,8.9-8.8C48.1,24.9,47.2,22.7,45.6,21.1z"/>
	<path class="st0" d="M32.3,33.8c-0.6,0-1,0.5-1,1c0,0.6,0.5,1,1,1s1-0.5,1-1C33.3,34.3,32.8,33.8,32.3,33.8z"/>
</g>
</svg>
