<?xml version="1.0" encoding="utf-8"?>
<!-- Generator: Adobe Illustrator 22.1.0, SVG Export Plug-In . SVG Version: 6.00 Build 0)  -->
<svg version="1.1" id="Layer_1" xmlns="http://www.w3.org/2000/svg" xmlns:xlink="http://www.w3.org/1999/xlink" x="0px" y="0px"
	 viewBox="0 0 50.5 50.5" style="enable-background:new 0 0 50.5 50.5;" xml:space="preserve">
<style type="text/css">
	.st0{fill:#07B5E4;}
</style>
<title>declaración jurada declaracion-jurada-rectificativa</title>
<g>
	<g>
		<g>
			<path class="st0" d="M9,39.7c-4.5,0-8.5-3.9-8.5-8.4c0-3.2,1.9-6.1,4.8-7.4c0-0.4-0.1-0.9-0.1-1.3c0-6.5,5.3-11.8,11.8-11.8
				c3.8,0,7.4,1.9,9.6,4.9c1.5-1.6,3.5-2.6,5.8-2.6c4.3,0,7.8,3.5,7.8,7.8c0,0,0,0.1,0,0.1c0.1,0,0.2,0,0.3,0c5.2,0,9.3,4.2,9.3,9.3
				c0,5.1-4.5,9.4-9.6,9.4C39.8,39.8,9,39.7,9,39.7z"/>
		</g>
	</g>
</g>
</svg>
