<svg id="Layer_1" data-name="Layer 1" xmlns="http://www.w3.org/2000/svg" viewBox="0 0 50.46 50.46"><defs><style>.cls-1{fill:#65b4e1;}</style></defs><title>nuclear</title><path class="cls-1" d="M35.28,19.71c.32-.91.59-1.78.79-2.62.93-3.79.55-6.34-1.09-7.36S30.89,9.5,27.89,12a29.65,29.65,0,0,0-2.55,2.45A29.67,29.67,0,0,0,22.79,12c-3-2.51-5.44-3.3-7.08-2.28s-2,3.57-1.09,7.36c.21.84.47,1.71.79,2.62-4.77,1.05-8.31,2.92-8.31,5.51s3.54,4.46,8.33,5.52c-1.63,4.61-1.92,8.61.29,10a3,3,0,0,0,1.59.44c1.49,0,3.35-.91,5.49-2.71A29.69,29.69,0,0,0,25.34,36a29.68,29.68,0,0,0,2.55,2.46c2.14,1.8,4,2.71,5.49,2.71A3,3,0,0,0,35,40.73c2.21-1.37,1.92-5.37.29-10,4.78-1.05,8.32-2.92,8.32-5.52S40.05,20.77,35.28,19.71ZM29,13.28C30.74,11.79,32.34,11,33.39,11a1.33,1.33,0,0,1,.71.18c.92.57,1.06,2.7.36,5.56a27,27,0,0,1-.83,2.69,46.54,46.54,0,0,0-4.73-.56c-.8-1.12-1.62-2.16-2.45-3.12A28.27,28.27,0,0,1,29,13.28ZM18.8,27c.32.56.65,1.12,1,1.68.25.4.51.8.77,1.19-1-.1-2-.22-2.89-.38C18,28.68,18.38,27.85,18.8,27Zm0-3.52c-.42-.85-.79-1.68-1.13-2.5.92-.15,1.89-.28,2.9-.38-.26.39-.52.79-.77,1.19C19.46,22.34,19.12,22.9,18.8,23.47Zm.92,1.76c.46-.85,1-1.7,1.49-2.57s1-1.5,1.47-2.22c.87,0,1.75-.08,2.66-.08s1.8,0,2.66.08c.5.72,1,1.45,1.47,2.22s1,1.73,1.49,2.57c-.47.85-1,1.71-1.49,2.57S28.5,29.3,28,30c-.87,0-1.75.08-2.66.08s-1.8,0-2.66-.08c-.5-.72-1-1.45-1.47-2.22S20.18,26.09,19.72,25.23Zm11.16,3.44c.35-.56.68-1.12,1-1.68.42.86.79,1.69,1.13,2.49-.91.15-1.88.28-2.89.38C30.37,29.47,30.63,29.08,30.88,28.68Zm0-6.89c-.25-.4-.51-.8-.77-1.19,1,.1,2,.23,2.9.38-.34.82-.72,1.65-1.13,2.5C31.56,22.9,31.23,22.34,30.88,21.78Zm-4.12-3.06-1.42,0-1.42,0c.47-.62.94-1.21,1.42-1.77C25.82,17.52,26.29,18.11,26.76,18.73ZM16.58,11.14a1.33,1.33,0,0,1,.71-.18c1,0,2.65.82,4.43,2.32a28.27,28.27,0,0,1,2.51,2.43c-.83,1-1.65,2-2.45,3.12a46.55,46.55,0,0,0-4.73.56,27,27,0,0,1-.83-2.69C15.52,13.84,15.66,11.71,16.58,11.14ZM8.75,25.23c0-1.44,2.81-3,7.25-3.95.52,1.28,1.14,2.61,1.84,4-.68,1.32-1.31,2.64-1.83,3.94C11.56,28.22,8.75,26.67,8.75,25.23Zm13,12c-2.25,1.89-4.22,2.71-5.14,2.14-1.23-.76-1.06-4,.48-8.25a46.55,46.55,0,0,0,4.72.56c.8,1.12,1.62,2.16,2.45,3.13A28.28,28.28,0,0,1,21.72,37.18Zm2.2-5.45,1.42,0,1.42,0c-.47.62-.95,1.21-1.42,1.77C24.86,32.94,24.39,32.35,23.92,31.73ZM34.1,39.32c-.92.57-2.89-.25-5.14-2.14a28.29,28.29,0,0,1-2.51-2.43c.83-1,1.65-2,2.45-3.13a46.57,46.57,0,0,0,4.72-.56C35.16,35.35,35.33,38.55,34.1,39.32Zm.57-10.14c-.53-1.3-1.15-2.62-1.83-3.94.7-1.34,1.32-2.67,1.84-4,4.44,1,7.24,2.5,7.24,3.95S39.12,28.22,34.67,29.18Z"/><circle class="cls-1" cx="25.2" cy="25.46" r="3.02"/></svg>