<svg id="Layer_1" data-name="Layer 1" xmlns="http://www.w3.org/2000/svg" viewBox="0 0 50.5 50.5"><title>nudo</title><path d="M48.1,25.1C47.2,24,45.3,24,44,24c-.3-4.4-3.5-9.1-8.5-9.7-.1,0-5.9-.5-9.9,3.8a23.2,23.2,0,0,0-4-1.3,19.434,19.434,0,0,0-5.7-.6,12.9,12.9,0,0,0-3.1.7,8.926,8.926,0,0,0-5.5,5.4H4.5a2.772,2.772,0,0,0-2.6,2.6,2.31,2.31,0,0,0,.7,1.6,3.655,3.655,0,0,0,2.9,1h1a15.719,15.719,0,0,0,.4,2.3,9.888,9.888,0,0,0,8.1,7,7.569,7.569,0,0,0,1.5.1,10.185,10.185,0,0,0,7.8-3.5l.3-.3a22.829,22.829,0,0,0,8.8,2.1,9.047,9.047,0,0,0,5.1-1.3,9.448,9.448,0,0,0,4.4-4.8c.4,0,.8.1,1.2.1h.1c1.3.1,3.9.2,4.4-2A2.673,2.673,0,0,0,48.1,25.1ZM13.5,18.5a11.068,11.068,0,0,1,2.6-.7h1a15.638,15.638,0,0,1,4.1.6,26.688,26.688,0,0,1,3.4,1.1l1.247.5c.566.226,1.109.515,1.66.776.585.277,1.172.549,1.759.822l.211.1.223.1c2.4,1,7.7,3.3,8.9,3.5a4.883,4.883,0,0,1-.4,1.9c-.2-.2-2.8-1-3.7-1.4-.5-.2-1-.4-1.4-.6l-8-3.2-1.4-.6c-2.5-1-4.8-1.9-7.8-1.6a5.794,5.794,0,0,0-4.2,2.6H9.2A7.232,7.232,0,0,1,13.5,18.5Zm17.6,2a4.582,4.582,0,0,1,4.163-.694,6.048,6.048,0,0,1,1.14.49,4.057,4.057,0,0,1,.986.853,5.633,5.633,0,0,1,.72.97A4.219,4.219,0,0,1,38.6,23.4C37.7,23.2,36.1,22.7,31.1,20.5Zm6.4,8.1c-2.7,3.2-9.5.3-9.5.3l-.8-.4a11.627,11.627,0,0,0,.4-1.8c.1-.6.3-1.2.4-1.8h0l4.4,1.8c.5.2.9.4,1.4.6C34.7,27.7,37.3,28.5,37.5,28.6ZM3.5,25a.95.95,0,0,1,.487-.812A1.7,1.7,0,0,1,4.93,23.9c.256,0,.512,0,.768,0h5.1c.6,0,1.2.1,1.7.1a5.754,5.754,0,0,1,1.2.3.791.791,0,0,0,.5-1.5s-.3-.1-.7-.2A5.038,5.038,0,0,1,16,21.3c.4,0,.7-.1,1.1-.1A14.492,14.492,0,0,1,23,22.8c0,.1-.7,2.2-1,3.2l-.6-.3a.828.828,0,0,0-.7,1.5l.7.3a11.4,11.4,0,0,1-1,1.9l-4.4-2a15.591,15.591,0,0,0-4.1-1.3,14.89,14.89,0,0,0-1.7-.1H5.5C3.6,26,3.5,25.1,3.5,25Zm15.8,5.8a3.839,3.839,0,0,1-1.8.9A5.075,5.075,0,0,1,13,30.3a5.282,5.282,0,0,1-1.1-2.4A16.4,16.4,0,0,1,15.3,29Zm-4,4.5a8.39,8.39,0,0,1-6.8-5.9,5.663,5.663,0,0,1-.3-1.8h2.2a6.381,6.381,0,0,0,1.5,3.7,6.392,6.392,0,0,0,9.2.2,6.42,6.42,0,0,0,1-1.3,11.4,11.4,0,0,0,1-1.9l.6-1.5c.4-1.1,1-3.3,1.1-3.4l2,.8v.1c-.2.6-.3,1.3-.5,1.9a8.331,8.331,0,0,1-.4,1.5l-.5,1.5a18.576,18.576,0,0,1-1.1,1.9,5.8,5.8,0,0,1-1,1.2l-.1.1A8.831,8.831,0,0,1,15.3,35.3Zm22.4-2.6c-3.9,2.4-10,.1-12.1-.8a11.4,11.4,0,0,0,1-1.9l.7.3a12.256,12.256,0,0,0,3.3,1,14.279,14.279,0,0,0,2.9.3,7.887,7.887,0,0,0,3-.5,5,5,0,0,0,2.4-1.9,6.35,6.35,0,0,0,.819-1.494,7.526,7.526,0,0,0,.458-1.658c.045-.321.063-.658.084-.982A6.788,6.788,0,0,0,40.2,23.7a7.5,7.5,0,0,0-2.7-4.6,6.274,6.274,0,0,0-8.1.6c-.5-.2-1-.5-1.6-.7l-.6-.3a10.98,10.98,0,0,1,8.1-2.9c4.1.4,6.8,4.4,7.1,8a8.6,8.6,0,0,1-.1,1.6,8.709,8.709,0,0,1-.5,1.9,11.64,11.64,0,0,1-.6,1.5A8.571,8.571,0,0,1,37.7,32.7ZM47,27c-.2.8-1.5.8-2.7.7h-.1a1.952,1.952,0,0,1-.7-.1,10.805,10.805,0,0,0,.5-2.1c.9,0,2.5,0,2.9.6A1.522,1.522,0,0,1,47,27Z"/><circle cx="17.4" cy="24.9" r="0.9"/></svg>