<svg id="Capa_5" data-name="Capa 5" xmlns="http://www.w3.org/2000/svg" viewBox="0 0 50.46 50.46"><path d="M35.613,35.544v5.77H14.742V37.56L23.537,26.6a23.534,23.534,0,0,0,2.831-4.268,7.767,7.767,0,0,0,.837-3.324A3.73,3.73,0,0,0,25.832,15.8a7.562,7.562,0,0,0-4.441-1.019,20.732,20.732,0,0,0-3.689.332,18.841,18.841,0,0,0-3.367.912V10.341a20.873,20.873,0,0,1,3.657-.848,27.346,27.346,0,0,1,4.129-.332q6.006,0,9,2.22t2.993,6.939a12.806,12.806,0,0,1-1.052,4.934,23.15,23.15,0,0,1-3.5,5.426l-5.62,6.864Z"/></svg>