<svg id="Capa_5" data-name="Capa 5" xmlns="http://www.w3.org/2000/svg" viewBox="0 0 50.46 50.46"><path d="M12.221,9.461h4.526V41.314H9.732V17.741l-7.185,5V16.2Zm12.794,28.26q-3.207-4-3.207-12.28,0-8.3,3.207-12.291t9.149-3.989q5.941,0,9.148,4t3.207,12.28q0,8.281-3.219,12.28t-9.136,4Q28.222,41.721,25.015,37.721Zm12.152-2.713A6.329,6.329,0,0,0,39,31.705a24.686,24.686,0,0,0,.631-6.242A24.935,24.935,0,0,0,39,19.188a6.332,6.332,0,0,0-1.834-3.313,5.059,5.059,0,0,0-6.007,0,6.306,6.306,0,0,0-1.834,3.3,24.583,24.583,0,0,0-.633,6.243,24.8,24.8,0,0,0,.633,6.285,6.358,6.358,0,0,0,1.824,3.3,5.079,5.079,0,0,0,6.017,0Z"/></svg>