<svg id="Capa_5" data-name="Capa 5" xmlns="http://www.w3.org/2000/svg" viewBox="0 0 50.46 50.46"><path d="M33.939,27.479A7.451,7.451,0,0,1,35.591,32.5a8,8,0,0,1-3.229,6.81q-3.228,2.415-9.577,2.413a30.507,30.507,0,0,1-8.3-1.093V35.416a30.879,30.879,0,0,0,3.969.814,28.733,28.733,0,0,0,4.032.3,8.677,8.677,0,0,0,4.945-1.115,3.831,3.831,0,0,0,1.577-3.347,3.745,3.745,0,0,0-1.534-3.26,8.78,8.78,0,0,0-4.988-1.094H17.851V22.438h3.6a8.745,8.745,0,0,0,4.869-1.061,3.528,3.528,0,0,0,1.545-3.1,3.374,3.374,0,0,0-1.384-2.938,7.418,7.418,0,0,0-4.279-.988,22.7,22.7,0,0,0-3.689.312,19.318,19.318,0,0,0-3.475.889V10.319a22.087,22.087,0,0,1,3.721-.837,28.764,28.764,0,0,1,4.194-.321q5.726,0,8.665,2.2a7.412,7.412,0,0,1,2.939,6.317,7.369,7.369,0,0,1-1.426,4.558,7.536,7.536,0,0,1-3.958,2.671A8.225,8.225,0,0,1,33.939,27.479Z"/></svg>