<svg id="Capa_5" data-name="Capa 5" xmlns="http://www.w3.org/2000/svg" viewBox="0 0 50.46 50.46"><path d="M36.481,27.919A8.069,8.069,0,0,1,37.8,32.6a8.172,8.172,0,0,1-1.4,4.72,9.2,9.2,0,0,1-4.215,3.227,17.867,17.867,0,0,1-6.864,1.169,20.967,20.967,0,0,1-7.121-1.04,8.8,8.8,0,0,1-4.226-2.906A7.186,7.186,0,0,1,12.6,33.4a7.431,7.431,0,0,1,1.47-4.537A9.848,9.848,0,0,1,18.3,25.72,9.49,9.49,0,0,1,14.613,22.4a8.467,8.467,0,0,1-1.137-4.419,7.934,7.934,0,0,1,1.383-4.633,8.826,8.826,0,0,1,4.108-3.088,17.866,17.866,0,0,1,6.65-1.094,17.132,17.132,0,0,1,6.081.965,8.4,8.4,0,0,1,3.882,2.767,6.989,6.989,0,0,1,1.341,4.29,7.816,7.816,0,0,1-1.18,4.226,9.065,9.065,0,0,1-3.711,3.174A10.462,10.462,0,0,1,36.481,27.919ZM29.821,35.9A3.3,3.3,0,0,0,31.3,33.013a3.62,3.62,0,0,0-.631-2.167,5.391,5.391,0,0,0-2.2-1.587,26.984,26.984,0,0,0-4.44-1.416c-.5-.128-.915-.243-1.244-.342a6.692,6.692,0,0,0-2.724,2.2,5.027,5.027,0,0,0-.923,2.906,3.7,3.7,0,0,0,1.545,3.207,8.009,8.009,0,0,0,4.655,1.105A7.955,7.955,0,0,0,29.821,35.9ZM21.456,14.984a3.233,3.233,0,0,0-1.373,2.735,3.712,3.712,0,0,0,.579,2.124,5.223,5.223,0,0,0,2.144,1.6,28.09,28.09,0,0,0,4.548,1.533,7.536,7.536,0,0,0,2.693-2.262,5,5,0,0,0,.825-2.843,3.385,3.385,0,0,0-1.363-2.9,6.626,6.626,0,0,0-3.978-1.007A6.8,6.8,0,0,0,21.456,14.984Z"/></svg>