<svg id="Capa_5" data-name="Capa 5" xmlns="http://www.w3.org/2000/svg" viewBox="0 0 50.46 50.46"><path d="M33.146,12.883q3.293,3.72,3.293,11.529,0,8.645-3.948,12.976T21.08,41.721a18.54,18.54,0,0,1-6.478-.964V35.416a17.823,17.823,0,0,0,6.134.986q4.377,0,6.565-2.327t2.338-7.2a10.67,10.67,0,0,1-3.014,1.308,13.307,13.307,0,0,1-3.529.472,12.625,12.625,0,0,1-5.255-1.03,7.888,7.888,0,0,1-3.571-3.174,10.2,10.2,0,0,1-1.3-5.363,10.091,10.091,0,0,1,1.351-5.309,8.79,8.79,0,0,1,3.851-3.432,13.5,13.5,0,0,1,5.866-1.19Q29.853,9.161,33.146,12.883ZM20.661,22.47a5.664,5.664,0,0,0,3.808,1.169,9.821,9.821,0,0,0,2.714-.385A8.063,8.063,0,0,0,29.617,22.1a14.484,14.484,0,0,0-.837-4.719,4.945,4.945,0,0,0-1.9-2.467A5.429,5.429,0,0,0,24,14.18a4.813,4.813,0,0,0-3.421,1.191A4.593,4.593,0,0,0,19.3,18.9,4.449,4.449,0,0,0,20.661,22.47Z"/></svg>