<svg id="Capa_5" data-name="Capa 5" xmlns="http://www.w3.org/2000/svg" viewBox="0 0 50.46 50.46"><path d="M32.62,23.254a7.886,7.886,0,0,1,3.571,3.173,10.2,10.2,0,0,1,1.3,5.364A10.082,10.082,0,0,1,36.138,37.1a8.784,8.784,0,0,1-3.851,3.432,13.5,13.5,0,0,1-5.866,1.19q-5.812,0-9.106-3.721T14.022,26.47q0-8.643,3.948-12.976T29.381,9.161a18.514,18.514,0,0,1,6.478.965v5.341a17.92,17.92,0,0,0-6.134-.987q-4.377,0-6.565,2.327T20.822,24A10.629,10.629,0,0,1,23.836,22.7a13.347,13.347,0,0,1,3.528-.473A12.618,12.618,0,0,1,32.62,23.254ZM29.885,35.512a4.6,4.6,0,0,0,1.276-3.529A4.452,4.452,0,0,0,29.8,28.412a5.667,5.667,0,0,0-3.807-1.169,9.775,9.775,0,0,0-2.714.386,8.016,8.016,0,0,0-2.434,1.159,14.494,14.494,0,0,0,.837,4.719,4.943,4.943,0,0,0,1.9,2.466,5.411,5.411,0,0,0,2.885.73A4.819,4.819,0,0,0,29.885,35.512Z"/></svg>