<svg id="Capa_5" data-name="Capa 5" xmlns="http://www.w3.org/2000/svg" viewBox="0 0 50.46 50.46"><path d="M30.39,23.532a8.8,8.8,0,0,1,4.268,3.207,9.1,9.1,0,0,1,1.352,5.116,8.8,8.8,0,0,1-3.261,7.357q-3.239,2.509-9.545,2.509a29.053,29.053,0,0,1-8.279-1.179V35.33a31.016,31.016,0,0,0,3.957.825,28,28,0,0,0,4.043.312,8.571,8.571,0,0,0,4.912-1.116A3.837,3.837,0,0,0,29.4,32.005a3.758,3.758,0,0,0-.815-2.51,5.606,5.606,0,0,0-2.853-1.523,29.376,29.376,0,0,0-5.749-.772l-4.075-.235,1.115-17.4h17.7V14.93H23.247L22.754,22.1A25.077,25.077,0,0,1,30.39,23.532Z"/></svg>