<?xml version="1.0" encoding="utf-8"?>
<!-- Generator: Adobe Illustrator 24.0.2, SVG Export Plug-In . SVG Version: 6.00 Build 0)  -->
<svg version="1.1" id="Layer_1" xmlns="http://www.w3.org/2000/svg" xmlns:xlink="http://www.w3.org/1999/xlink" x="0px" y="0px"
	 viewBox="0 0 50.5 50.5" style="enable-background:new 0 0 50.5 50.5;" xml:space="preserve">
<path d="M1.252,36.135h13.31v10.866h-2.291v-4.63H9.279v4.63H6.85v-6.442c0-0.856-0.7-1.555-1.555-1.555h0
	c-0.856,0-1.555,0.7-1.555,1.555v6.442H1.252V36.135z M49.615,20.262l-48.77-0.008c0.037-0.582,0.272-1.18,0.43-1.774
	c0.155-0.583,0.192-1.219,0.918-1.264l13.127-0.024c0.453-0.905,0.175-2.632,1.123-3.087c0.494-0.237,2.665-0.537,3.397-0.679
	c0.118-0.023,0.402-0.066,0.498-0.099c0.679-0.235,0.861-3.003,4.206-3.448V3.478h0.053V3.466l1.241-0.006l0.001,0.019h0.056h6.727
	v1.441h-6.727l0.023,1.417h6.704v1.441h-6.708l0,0.038l0.041,2.061c0.486,0.191,0.829,0.173,1.372,0.448
	c1.04,0.527,1.811,1.269,2.29,2.367c0.564,1.294,1.508,0.553,4.124,1.313c1.326,0.385,0.812,2.31,1.358,3.215l12.218-0.063
	c1.154-0.006,1.577,0.267,1.861,1.451C49.31,19.153,49.545,19.663,49.615,20.262z M28.153,14.068
	c-0.285-1.579-1.718-2.705-3.438-2.394c-3.892,0.703-2.891,6.5,0.998,5.889C27.209,17.328,28.477,15.862,28.153,14.068z
	 M1.252,21.899h47.909v12.138H35.52c-0.848-4.97-5.202-8.785-10.404-8.785c-5.202,0-9.556,3.814-10.404,8.785H1.252V21.899z
	 M43.535,31.969h3.111v-6.634c0-0.856-0.7-1.556-1.555-1.556h0c-0.856,0-1.555,0.7-1.555,1.556V31.969z M38.114,31.97h2.993v-6.037
	h-2.993V31.97z M9.279,31.97h2.993v-6.037H9.279V31.97z M3.739,31.969H6.85v-6.634c0-0.856-0.7-1.556-1.555-1.556h0
	c-0.856,0-1.555,0.7-1.555,1.556V31.969z M35.671,47.001h2.443v-4.63h2.993v4.63h2.429v-6.442c0-0.856,0.7-1.555,1.555-1.555h0
	c0.856,0,1.555,0.7,1.555,1.555v6.442h2.515V36.135H35.671V47.001z M26.985,33c-0.916,0-1.374,0.41-1.832,1.229
	C24.695,33.409,24.237,33,23.321,33c-1.011,0-1.831,0.734-1.831,1.639c0,1.639,1.831,3.278,3.663,4.917
	c1.832-1.639,3.663-3.278,3.663-4.917C28.816,33.734,27.996,33,26.985,33z M33.099,35.661c0,4.388-3.557,7.945-7.946,7.945
	s-7.946-3.557-7.946-7.945s3.558-7.946,7.946-7.946S33.099,31.273,33.099,35.661z M30.467,35.661c0-2.934-2.379-5.313-5.313-5.313
	c-2.934,0-5.313,2.379-5.313,5.313c0,2.934,2.379,5.313,5.313,5.313C28.088,40.975,30.467,38.596,30.467,35.661z"/>
</svg>
