<svg id="Layer_1" data-name="Layer 1" xmlns="http://www.w3.org/2000/svg" viewBox="0 0 50.46 50.46"><defs><style>.cls-1{fill:#65b4e1;}</style></defs><title>ola de calor</title><path class="cls-1" d="M26.91,40.38a2.54,2.54,0,0,0-.58-1.61l-.1-.15-.07-.11a1.85,1.85,0,0,1-.48-1.18,4.44,4.44,0,0,1,.24-.77.78.78,0,0,0-1.39-.69,5.22,5.22,0,0,0-.4,1.36,3.27,3.27,0,0,0,.75,2.17l.06.09.11.17c.23.33.3.43.3.73a1.35,1.35,0,0,1-.36.93,4.67,4.67,0,0,0,0,5.48l.35.48a.78.78,0,0,0,1.2-1l-.26-.36a3.12,3.12,0,0,1,0-3.73A2.84,2.84,0,0,0,26.91,40.38Z"/><path class="cls-1" d="M20,38.78a2.54,2.54,0,0,0-.58-1.61l-.1-.15-.07-.11a1.85,1.85,0,0,1-.47-1.18A4.45,4.45,0,0,1,19,35a.78.78,0,0,0-.35-1,.78.78,0,0,0-1,.34,5.22,5.22,0,0,0-.4,1.36,3.27,3.27,0,0,0,.75,2.17l.06.09.11.17c.23.33.3.43.3.73a1.35,1.35,0,0,1-.36.93,4.67,4.67,0,0,0,0,5.48l.35.48a.78.78,0,0,0,1.2-1l-.26-.36a3.12,3.12,0,0,1,0-3.73A2.84,2.84,0,0,0,20,38.78Z"/><path class="cls-1" d="M34.33,38.78a2.54,2.54,0,0,0-.58-1.61l-.1-.15-.07-.11a1.85,1.85,0,0,1-.47-1.18,4.43,4.43,0,0,1,.24-.77.78.78,0,0,0-.35-1,.78.78,0,0,0-1,.34,5.21,5.21,0,0,0-.4,1.36,3.27,3.27,0,0,0,.75,2.17l.06.09.11.17c.23.33.3.43.3.73a1.35,1.35,0,0,1-.36.93,4.67,4.67,0,0,0,0,5.48l.35.48a.77.77,0,0,0,.53.27h.07a.77.77,0,0,0,.5-.18.78.78,0,0,0,.1-1.08l-.26-.36a3.12,3.12,0,0,1,0-3.73A2.84,2.84,0,0,0,34.33,38.78Z"/><path class="cls-1" d="M39.36,16.53l-1.49-1a2,2,0,0,1-.7-2.59l.79-1.6a1.22,1.22,0,0,0-1-1.76l-1.78-.1a2,2,0,0,1-1.9-1.89l-.12-1.78a1.22,1.22,0,0,0-1.76-1l-1.59.8a2,2,0,0,1-2.59-.68l-1-1.48a1.22,1.22,0,0,0-1-.54h0a1.22,1.22,0,0,0-1,.55L23.18,5a2,2,0,0,1-2.59.7L19,4.88a1.22,1.22,0,0,0-1.76,1l-.1,1.78a2,2,0,0,1-1.89,1.9l-1.78.12a1.22,1.22,0,0,0-1,1.76l.8,1.59a2,2,0,0,1-.68,2.59l-1.48,1a1.22,1.22,0,0,0,0,2l1.49,1a2,2,0,0,1,.7,2.59l-.79,1.6a1.22,1.22,0,0,0,1,1.76l1.78.1a2,2,0,0,1,1.9,1.89l.12,1.78a1.22,1.22,0,0,0,1.76,1l1.59-.8a2,2,0,0,1,.91-.22,2,2,0,0,1,1.68.9l1,1.48a1.22,1.22,0,0,0,1,.54h0a1.22,1.22,0,0,0,1-.55l1-1.49a2,2,0,0,1,2.59-.7l1.6.79a1.22,1.22,0,0,0,1.76-1l.1-1.78a2,2,0,0,1,1.89-1.9L37,25.5a1.22,1.22,0,0,0,1-1.76l-.8-1.59a2,2,0,0,1,.68-2.59l1.48-1a1.22,1.22,0,0,0,0-2Zm-2.15,2a3.24,3.24,0,0,0-1.09,4.15l.8,1.59-1.78.12a3.24,3.24,0,0,0-3,3L32,29.24l-1.6-.79a3.24,3.24,0,0,0-4.14,1.13l-1,1.49-1-1.48a3.24,3.24,0,0,0-4.15-1.09l-1.59.8-.12-1.78a3.24,3.24,0,0,0-3-3l-1.78-.1.79-1.6a3.24,3.24,0,0,0-1.13-4.14l-1.49-1,1.48-1a3.24,3.24,0,0,0,1.09-4.15l-.8-1.59,1.78-.12a3.24,3.24,0,0,0,3-3L18.45,6l1.6.79A3.24,3.24,0,0,0,24.2,5.63l1-1.49,1,1.48a3.24,3.24,0,0,0,4.15,1.09l1.59-.8L32,7.7a3.24,3.24,0,0,0,3,3l1.78.1-.79,1.6a3.24,3.24,0,0,0,1.13,4.14l1.49,1Z"/><path class="cls-1" d="M27.53,8.88A9,9,0,1,0,34,19.9,9,9,0,0,0,27.53,8.88Zm5.25,10.71a7.81,7.81,0,1,1-5.56-9.53A7.75,7.75,0,0,1,32.77,19.59Z"/><path class="cls-1" d="M24.86,11.31a6.32,6.32,0,0,0-4.92,2.85.61.61,0,1,0,1,.67,5.1,5.1,0,0,1,4-2.3.61.61,0,1,0-.07-1.22Z"/><path class="cls-1" d="M19.94,15.46a.61.61,0,0,0-.77.39.69.69,0,0,0,0,.45.58.58,0,0,1,0-.32v0a.61.61,0,0,0,.43.74l.16,0a.61.61,0,0,0,.59-.45l0-.07v0A.61.61,0,0,0,19.94,15.46Zm-.76.89,0,0Zm.08.12,0,0Zm-.05-.08,0,0Zm.13.15,0,0Z"/></svg>