<svg id="Layer_1" data-name="Layer 1" xmlns="http://www.w3.org/2000/svg" viewBox="0 0 50.46 50.46"><defs><style>.cls-1{fill:#12b5e1;}</style></defs><title>ola polar</title><path class="cls-1" d="M13.37,26.2v1.31a.86.86,0,0,0,.59.88,1.09,1.09,0,0,0,.25,0h0a1.09,1.09,0,0,0,.26,0,.85.85,0,0,0,.59-.86c0-.11,0-.55,0-1.33v-1l1.3,1.23a.85.85,0,0,0,1.21,0,.89.89,0,0,0,.24-.61.86.86,0,0,0-.27-.6l-2.48-2.34V18.44l3.71,2.39.63,3.36a.88.88,0,0,0,.35.55.92.92,0,0,0,.65.13.84.84,0,0,0,.54-.36.85.85,0,0,0,.14-.64l-.33-1.76,1.93,1.24a.84.84,0,0,0,1.05,0,.8.8,0,0,0,.31-.57.84.84,0,0,0-.18-.63,14.12,14.12,0,0,0-2.18-1.47l1.74-.43a.86.86,0,0,0,.24-1.56.87.87,0,0,0-.65-.1l-3.31.81L16,17l4-1.82,3.17,1.29a.84.84,0,0,0,.66,0,.85.85,0,0,0,.46-.47.86.86,0,0,0-.47-1.11l-1.67-.68,2.1-1a.86.86,0,0,0,.55-.89h0a.82.82,0,0,0-.31-.58.84.84,0,0,0-.63-.18,13.68,13.68,0,0,0-2.41,1L22.05,11a.86.86,0,1,0-1.62-.56l-1.11,3.22-4.23,1.92V10.9l2.48-2.35a.86.86,0,0,0-1.18-1.24l-1.3,1.23V6.18a.86.86,0,0,0-1.72,0V8.54l-1.3-1.23a.86.86,0,1,0-1.18,1.25l2.48,2.34v4.64L9.14,13.62,8,10.4A.86.86,0,1,0,6.41,11L7,12.64a13.68,13.68,0,0,0-2.41-1,.85.85,0,0,0-.94.76.84.84,0,0,0,.54.89c.14.05.88.39,2.11,1l-1.67.68a.83.83,0,0,0-.46.46.86.86,0,0,0,0,.65.85.85,0,0,0,1.12.47l3.17-1.29,4,1.82L8.73,19.39l-3.31-.81a.87.87,0,0,0-.65.1A.86.86,0,0,0,5,20.24l1.74.43a14.12,14.12,0,0,0-2.18,1.47.84.84,0,0,0-.18.63.8.8,0,0,0,.31.57.86.86,0,0,0,1,0l1.93-1.25-.33,1.76a.86.86,0,0,0,.68,1,.88.88,0,0,0,.65-.14A.8.8,0,0,0,9,24.19l.63-3.36,3.71-2.39v4.42L10.89,25.2a.86.86,0,0,0-.27.6.87.87,0,0,0,.24.61.84.84,0,0,0,.6.27.88.88,0,0,0,.61-.24l1.3-1.23Z"/><path class="cls-1" d="M33.14,25.1a2.85,2.85,0,0,0,1.41-3.78.86.86,0,0,0-1.13-.43A.87.87,0,0,0,33,22a1.15,1.15,0,0,1-.56,1.52,1.64,1.64,0,0,1-2.18-.81,2.29,2.29,0,0,1,1.12-3,3.07,3.07,0,0,1,4.05,1.51,4,4,0,0,1-2,5.34,13.1,13.1,0,0,1-3.95.5H24.32a.87.87,0,1,0,0,1.73h5.19a11.59,11.59,0,0,0,4.63-.68A5.74,5.74,0,0,0,37,20.52a4.75,4.75,0,0,0-6.32-2.35,4,4,0,0,0-2,5.28A3.36,3.36,0,0,0,33.14,25.1Z"/><path class="cls-1" d="M46.46,37.94a5.66,5.66,0,0,0-3-3.2,11.42,11.42,0,0,0-4.63-.68H21.4a.87.87,0,0,0,0,1.74H38.82a13.06,13.06,0,0,1,3.94.49,4,4,0,0,1,2.1,2.25,4,4,0,0,1-.11,3.1,3,3,0,0,1-4,1.5,2.27,2.27,0,0,1-1.12-3,1.64,1.64,0,0,1,2.18-.81,1.15,1.15,0,0,1,.57,1.52.85.85,0,0,0,1.55.71,2.86,2.86,0,0,0-1.4-3.79A3.37,3.37,0,0,0,38,39.42a4,4,0,0,0,2,5.28,4.77,4.77,0,0,0,6.31-2.35A5.68,5.68,0,0,0,46.46,37.94Z"/><path class="cls-1" d="M38.36,31.43a.86.86,0,0,0-.86-.87H13.27a.87.87,0,0,0,0,1.74H37.5A.86.86,0,0,0,38.36,31.43Z"/><circle class="cls-1" cx="40.13" cy="31.43" r="0.88"/></svg>