<svg id="Layer_1" data-name="Layer 1" xmlns="http://www.w3.org/2000/svg" viewBox="0 0 50.46 50.46"><defs><style>.cls-1{fill:#35a3d0;}</style></defs><title>olla fuego</title><path class="cls-1" d="M43.91,23.8a1.37,1.37,0,0,0-1.42-1.23h-3v-4H10.94v4H8A1.37,1.37,0,0,0,6.55,23.8,4.94,4.94,0,0,0,9.28,29l.24.12a5.38,5.38,0,0,0,1.41.5v5a4.66,4.66,0,0,0,3.38,4.47c0-.08,0-.16,0-.25a4.31,4.31,0,0,1,.18-.75v0l0-.09c0-.12.09-.23.14-.34a3.14,3.14,0,0,1-2.26-3V20.07H38V34.6a3.14,3.14,0,0,1-2.24,3c.06.14.11.28.16.43a4.25,4.25,0,0,1,.22,1,4.66,4.66,0,0,0,3.38-4.47v-5a5.39,5.39,0,0,0,1.41-.5l.24-.12A4.94,4.94,0,0,0,43.91,23.8ZM10.94,28a5,5,0,0,1-.75-.31l-.25-.12A3.42,3.42,0,0,1,8,24.1h2.89Zm29.6-.43-.25.12a5,5,0,0,1-.75.31V24.1h2.89A3.43,3.43,0,0,1,40.53,27.6Z"/><path class="cls-1" d="M39.52,16.84c0-2.12-2-3.73-5.93-4.78A35.65,35.65,0,0,0,27,11v-.43a2.05,2.05,0,1,0-4.1,0v.45c-4.62.33-11.93,1.7-11.93,5.78v.94H39.52ZM24.39,10.62a.53.53,0,1,1,1.07,0V11H24.39ZM12.56,16.26c.54-1.43,3-2.31,4.52-2.73a33.16,33.16,0,0,1,8-1,35.37,35.37,0,0,1,8.15,1c1.59.42,4.13,1.3,4.69,2.73Z"/><path class="cls-1" d="M20,36.67a1.48,1.48,0,0,1,.08-1.41.2.2,0,0,0-.23-.3,2.09,2.09,0,0,0-1.42,1.28,3.55,3.55,0,0,0-.23,1.52.45.45,0,0,1-.43.5H17.7a.41.41,0,0,1-.32-.53,3.39,3.39,0,0,1,.1-.37.19.19,0,0,0-.33-.17,6.63,6.63,0,0,0-.71,1.14,2.44,2.44,0,0,0-.13.29l0,0h0A2.44,2.44,0,1,0,21,39.92h0v0l0-.09a2.4,2.4,0,0,0-.11-1.19C20.69,38,20.32,37.47,20,36.67Z"/><path class="cls-1" d="M26.63,36.67a1.48,1.48,0,0,1,.08-1.41.2.2,0,0,0-.23-.3A2.09,2.09,0,0,0,25,36.24a3.55,3.55,0,0,0-.23,1.52.45.45,0,0,1-.43.5h-.05a.41.41,0,0,1-.32-.53,3.39,3.39,0,0,1,.1-.37.19.19,0,0,0-.33-.17,6.63,6.63,0,0,0-.71,1.14,2.44,2.44,0,0,0-.13.29l0,0h0a2.44,2.44,0,1,0,4.69,1.27h0v0l0-.09a2.4,2.4,0,0,0-.11-1.19C27.33,38,27,37.47,26.63,36.67Z"/><path class="cls-1" d="M33.26,36.67a1.48,1.48,0,0,1,.08-1.41.2.2,0,0,0-.23-.3,2.09,2.09,0,0,0-1.42,1.28,3.55,3.55,0,0,0-.23,1.52.45.45,0,0,1-.43.5H31a.41.41,0,0,1-.32-.53,3.38,3.38,0,0,1,.1-.37.19.19,0,0,0-.33-.17,6.63,6.63,0,0,0-.71,1.14,2.44,2.44,0,0,0-.13.29l0,0h0a2.44,2.44,0,1,0,4.69,1.27h0v0l0-.09a2.4,2.4,0,0,0-.11-1.19C34,38,33.6,37.47,33.26,36.67Z"/></svg>