<svg id="Layer_1" data-name="Layer 1" xmlns="http://www.w3.org/2000/svg" viewBox="0 0 50.46 50.46"><defs><style>.cls-1{fill:#65b4e1;}</style></defs><title>olla fuego negativo</title><path class="cls-1" d="M42,21.68H39v-4H37.83l-1.76,1.52h1.4V33.71a3.14,3.14,0,0,1-2.24,3c.06.14.11.28.16.43a4.26,4.26,0,0,1,.22,1A4.66,4.66,0,0,0,39,33.71v-5a5.38,5.38,0,0,0,1.41-.5l.24-.12a4.94,4.94,0,0,0,2.73-5.17A1.37,1.37,0,0,0,42,21.68Zm-2,5-.25.12a5,5,0,0,1-.75.31V23.2h2.89A3.43,3.43,0,0,1,40,26.71Z"/><path class="cls-1" d="M8.75,28.08,9,28.2a5.39,5.39,0,0,0,1.41.5v5a4.64,4.64,0,0,0,.1.93l1.42-1.23V19.18H28.37l1.76-1.52H10.4v4h-3A1.37,1.37,0,0,0,6,22.91,4.94,4.94,0,0,0,8.75,28.08ZM7.52,23.2H10.4v3.94a5,5,0,0,1-.75-.31l-.25-.12A3.42,3.42,0,0,1,7.52,23.2Z"/><path class="cls-1" d="M32.78,15.36H12c.54-1.43,3-2.31,4.52-2.73a33.15,33.15,0,0,1,8-1,35.37,35.37,0,0,1,8.15,1,16,16,0,0,1,2.34.8l1.25-1.08a15.52,15.52,0,0,0-3.2-1.19,35.66,35.66,0,0,0-6.62-1V9.72a2.05,2.05,0,1,0-4.1,0v.45c-4.62.33-11.93,1.7-11.93,5.78v.94H31ZM23.85,9.72a.53.53,0,1,1,1.07,0v.37H23.85Z"/><path class="cls-1" d="M19.46,35.78a1.48,1.48,0,0,1,.08-1.41.2.2,0,0,0-.23-.3,2.09,2.09,0,0,0-1.42,1.28,3.55,3.55,0,0,0-.23,1.52.45.45,0,0,1-.43.5h-.05a.41.41,0,0,1-.32-.53,3.39,3.39,0,0,1,.1-.37.19.19,0,0,0-.33-.17,6.63,6.63,0,0,0-.71,1.14,2.44,2.44,0,0,0-.13.29l0,0h0A2.44,2.44,0,1,0,20.45,39h0v0l0-.09a2.4,2.4,0,0,0-.11-1.19C20.16,37.13,19.79,36.58,19.46,35.78Z"/><path class="cls-1" d="M26.09,35.78a1.48,1.48,0,0,1,.08-1.41.2.2,0,0,0-.23-.3,2.09,2.09,0,0,0-1.42,1.28,3.55,3.55,0,0,0-.23,1.52.45.45,0,0,1-.43.5H23.8a.41.41,0,0,1-.32-.53,3.38,3.38,0,0,1,.1-.37.19.19,0,0,0-.33-.17,6.63,6.63,0,0,0-.71,1.14,2.43,2.43,0,0,0-.13.29l0,0h0A2.44,2.44,0,1,0,27.09,39h0v0l0-.09A2.4,2.4,0,0,0,27,37.73C26.8,37.13,26.43,36.58,26.09,35.78Z"/><path class="cls-1" d="M32.73,35.78a1.48,1.48,0,0,1,.08-1.41.2.2,0,0,0-.23-.3,2.09,2.09,0,0,0-1.42,1.28,3.55,3.55,0,0,0-.23,1.52.45.45,0,0,1-.43.5h-.05a.41.41,0,0,1-.32-.53,3.38,3.38,0,0,1,.1-.37.19.19,0,0,0-.33-.17,6.63,6.63,0,0,0-.71,1.14,2.43,2.43,0,0,0-.13.29l0,0h0A2.44,2.44,0,1,0,33.73,39h0v0l0-.09a2.4,2.4,0,0,0-.11-1.19C33.44,37.13,33.06,36.58,32.73,35.78Z"/><path class="cls-1" d="M47,6.43a1.17,1.17,0,0,0-1.65-.12L3.61,42.38a1.17,1.17,0,0,0,1.53,1.77L46.85,8.08A1.17,1.17,0,0,0,47,6.43Z"/></svg>