<svg id="Layer_1" data-name="Layer 1" xmlns="http://www.w3.org/2000/svg" viewBox="0 0 50.46 50.46"><defs><style>.cls-1{fill:#65b4e1;}</style></defs><title>ombu</title><path class="cls-1" d="M34,29.34a6.13,6.13,0,0,0,2,3.87,8.38,8.38,0,0,0,5.23,2.2l.59,0c4,0,7.25-2.6,7.47-6a6.28,6.28,0,0,0-3.11-5.65,3,3,0,0,0,.14-.72,3.43,3.43,0,0,0-1.86-3.16,5.76,5.76,0,0,0,.62-2.24c.24-3.64-3.06-6.82-7.35-7.1a9,9,0,0,0-2.45.17c-.78-3.72-4.49-6.63-9-6.93a10.06,10.06,0,0,0-8.79,3.68A8.58,8.58,0,0,0,12.28,9a6.11,6.11,0,0,0-2.64,4.56,5.7,5.7,0,0,0,.26,2.1A4,4,0,0,0,6,19.15a3.36,3.36,0,0,0,.35,1.71A6.35,6.35,0,0,0,2.71,26c-.24,3.64,3.06,6.82,7.35,7.1a8.5,8.5,0,0,0,5.57-1.53,6.12,6.12,0,0,0,2.64-4.48c.24,0,.47,0,.71,0,2.24,1.21,3.62,2.41,3.63,4.45,0,1.81-2.49,2.73-5.14,3.72s-5.43,2-6.3,4.25a5.1,5.1,0,0,0,.48,4.2,41.81,41.81,0,0,1-6.44.91.8.8,0,0,0,0,1.6h0A55.41,55.41,0,0,0,19,43.45c6.77-2.11,9-1.7,15.6-.46,2.91.54,6.54,1.22,11.71,1.9a.8.8,0,0,0,.21-1.59c-2.38-.31-4.41-.62-6.22-.92A4.29,4.29,0,0,0,40.75,39c-.68-2.54-3.27-4.27-6.91-4.63-3.3-.32-4.77-1.54-4.74-2.54S30.88,29.58,34,29.34ZM18,25.51l-.47-.05a.82.82,0,0,0-.66.21.8.8,0,0,0-.25.65,4.19,4.19,0,0,1,0,.62,4.54,4.54,0,0,1-2,3.37,6.94,6.94,0,0,1-4.53,1.22c-3.41-.22-6-2.65-5.86-5.4A5,5,0,0,1,7.8,22a.8.8,0,0,0,.31-1.29,1.9,1.9,0,0,1-.54-1.41,2.53,2.53,0,0,1,2.92-2,3.35,3.35,0,0,1,.5.07.8.8,0,0,0,.85-1.19,4.28,4.28,0,0,1-.62-2.47,4.54,4.54,0,0,1,2-3.37,7,7,0,0,1,4.57-1.22.77.77,0,0,0,.72-.36,8.45,8.45,0,0,1,7.62-3.35c4.14.27,7.44,3,7.68,6.39a.8.8,0,0,0,1,.7,7.37,7.37,0,0,1,2.76-.34c3.41.22,6,2.65,5.86,5.4a4.21,4.21,0,0,1-.84,2.24A.8.8,0,0,0,43.06,21a2,2,0,0,1,1.66,1.92,1.49,1.49,0,0,1-.25.72.8.8,0,0,0,.3,1.15,4.87,4.87,0,0,1,2.91,4.51c-.18,2.69-3,4.71-6.37,4.49A6.78,6.78,0,0,1,37.09,32a4.43,4.43,0,0,1-1.49-3.51,4,4,0,0,1,.56-1.79.8.8,0,0,0-.69-1.2l-.18,0a5.25,5.25,0,0,1-1.53.13,4.58,4.58,0,0,1-3.66-2h0a3.08,3.08,0,0,1-.33-.77,840.1,840.1,0,0,1-.12-.24l-.09-.11-.14-.11-.06,0-.08,0-.08,0H29l-.18,0h-.08a5.66,5.66,0,0,1-4.55-.27.8.8,0,0,0-1.15.5C22.53,24.39,20.38,25.65,18,25.51Zm9.73-1.32a5.92,5.92,0,0,1-1.18,2.16h-.13s-.54-.17-.85-2.17c.22,0,.44.08.67.09A7.22,7.22,0,0,0,27.78,24.19ZM33.69,36c2.95.29,5,1.58,5.52,3.45a2.55,2.55,0,0,1-.71,2.65l-3.6-.66c-6.71-1.26-9.22-1.73-16.37.51-2,.61-3.73,1.08-5.32,1.45a.79.79,0,0,0-.07-.26,3.71,3.71,0,0,1-.48-3c.61-1.56,3-2.46,5.36-3.33,3-1.13,6.18-2.3,6.18-5.22a5.85,5.85,0,0,0-3-5A5.81,5.81,0,0,0,24,24.25c.16,1.22.62,3.41,2.23,3.67l.32,0h.13c1.1-.06,1.94-1.54,2.49-2.88a6.36,6.36,0,0,0,4.49,2.2,5.28,5.28,0,0,0,.54,0c0,.14-.07.28-.1.43-4.46.28-6.53,2.22-6.59,4.08C27.46,33.44,29,35.52,33.69,36Z"/><path class="cls-1" d="M27.69,18.67a.8.8,0,0,0,1.11-.23,2.92,2.92,0,0,1,2.65-1.14,2.68,2.68,0,0,1,2.66,2.14.8.8,0,0,0,1,.7A2.6,2.6,0,0,1,36.1,20c1.12.07,2,.83,1.93,1.68a1.23,1.23,0,0,1-.25.66.8.8,0,0,0,1.29.95,2.85,2.85,0,0,0,.55-1.5,3.42,3.42,0,0,0-3.42-3.38,4,4,0,0,0-.68,0,4.44,4.44,0,0,0-4-2.74,4.5,4.5,0,0,0-4.09,1.86A.8.8,0,0,0,27.69,18.67Z"/><path class="cls-1" d="M24.37,11.7a2,2,0,0,1,1.27,1.76.8.8,0,0,0,1.6-.12,3.51,3.51,0,0,0-6.31-1.95l-.33-.14a3.07,3.07,0,0,0-3.86,2,3.32,3.32,0,0,0-.16,1.49.8.8,0,0,0,.79.7h.1a.8.8,0,0,0,.7-.89,1.7,1.7,0,0,1,.09-.76,1.48,1.48,0,0,1,1.82-1,1.24,1.24,0,0,1,.5.33.8.8,0,0,0,1.3-.21A2.07,2.07,0,0,1,24.37,11.7Z"/></svg>