<?xml version="1.0" encoding="utf-8"?>
<!-- Generator: Adobe Illustrator 24.2.1, SVG Export Plug-In . SVG Version: 6.00 Build 0)  -->
<svg version="1.1" id="Capa_1" xmlns="http://www.w3.org/2000/svg" xmlns:xlink="http://www.w3.org/1999/xlink" x="0px" y="0px"
	 viewBox="0 0 50.5 50.5" style="enable-background:new 0 0 50.5 50.5;" xml:space="preserve">
<path d="M25.185,22.396c-3.792,0-6.876,3.084-6.876,6.875c0,3.792,3.084,6.876,6.876,6.876c3.791,0,6.875-3.084,6.875-6.876
	C32.06,25.48,28.976,22.396,25.185,22.396z M25.185,34.547c-2.909,0-5.276-2.367-5.276-5.276s2.367-5.276,5.276-5.276
	s5.275,2.367,5.275,5.276S28.094,34.547,25.185,34.547z"/>
<path d="M27.562,27.032c-0.243-0.114-0.501-0.172-0.767-0.172c-0.661,0-1.273,0.367-1.586,0.943c-0.01,0.019-0.038,0.019-0.048,0
	c-0.314-0.576-0.925-0.943-1.586-0.943h0c-0.266,0-0.524,0.058-0.767,0.172c-0.436,0.205-0.765,0.568-0.928,1.021
	c-0.163,0.453-0.14,0.943,0.066,1.378c0.404,0.858,3.056,3.213,3.169,3.313c0.02,0.018,0.045,0.027,0.07,0.027h0.001h0
	c0.025,0,0.05-0.009,0.07-0.027c0.113-0.1,2.765-2.455,3.169-3.313c0.205-0.436,0.229-0.925,0.066-1.378
	C28.327,27.6,27.997,27.238,27.562,27.032z"/>
<path d="M45.329,19.234l-8.78-8.79c-0.15-0.15-0.354-0.234-0.566-0.234H14.793c-0.212,0-0.416,0.084-0.566,0.234l-8.78,8.79
	c-0.149,0.15-0.233,0.354-0.233,0.565v17.64c0,0.262,0.128,0.507,0.342,0.656c4.221,2.944,7.21,1.586,8.976-0.073
	c0.161-0.151,0.252-0.362,0.252-0.583V24.012l4.222-4.222h12.768l4.222,4.222V37.44c0,0.221,0.091,0.432,0.252,0.583
	c1.012,0.951,2.426,1.803,4.243,1.803c1.354,0,2.931-0.473,4.732-1.729c0.214-0.149,0.342-0.395,0.342-0.656V19.8
	C45.562,19.588,45.478,19.384,45.329,19.234z M43.962,37.015c-2.486,1.619-4.525,1.641-6.37,0.067V24.428
	c2.801-0.241,4.669-1.882,4.754-1.96c0.325-0.296,0.349-0.8,0.054-1.127c-0.296-0.326-0.802-0.354-1.129-0.058
	c-0.018,0.016-1.699,1.475-4.172,1.572l-3.813-3.813c2.265-1.769,2.898-4.247,2.926-4.36c0.104-0.428-0.157-0.859-0.585-0.965
	c-0.426-0.104-0.86,0.155-0.969,0.582c-0.006,0.024-0.626,2.398-2.812,3.811c-0.033,0.021-0.052,0.054-0.081,0.079H19.01
	c-0.029-0.025-0.048-0.058-0.081-0.079c-2.181-1.408-2.803-3.772-2.813-3.81c-0.105-0.428-0.537-0.687-0.967-0.584
	c-0.429,0.105-0.691,0.538-0.587,0.967c0.028,0.113,0.66,2.59,2.925,4.359l-3.82,3.82c-2.437-0.074-4.14-1.558-4.163-1.579
	c-0.327-0.295-0.831-0.271-1.129,0.055c-0.297,0.327-0.273,0.833,0.053,1.13c0.085,0.077,1.952,1.718,4.753,1.96v12.655
	c-1.846,1.573-3.885,1.552-6.37-0.067V20.131l8.313-8.321H35.65l8.313,8.321V37.015z"/>
<path d="M24.061,13.334h-3.879c-0.441,0-0.8,0.358-0.8,0.8s0.358,0.8,0.8,0.8h3.879c0.441,0,0.8-0.358,0.8-0.8
	S24.502,13.334,24.061,13.334z"/>
<path d="M26.752,13.334h-0.614c-0.441,0-0.8,0.358-0.8,0.8s0.358,0.8,0.8,0.8h0.614c0.441,0,0.8-0.358,0.8-0.8
	S27.193,13.334,26.752,13.334z"/>
</svg>
