<svg id="Layer_1" data-name="Layer 1" xmlns="http://www.w3.org/2000/svg" viewBox="0 0 50.46 50.46"><defs><style>.cls-1{fill:#12b5e1;}</style></defs><title>operativo sanitario 1</title><path class="cls-1" d="M42.57,19.19V14a27.24,27.24,0,0,1-9.2,1.59,26.88,26.88,0,0,1-10-1.88,25.64,25.64,0,0,1-9.82,1.88A27.09,27.09,0,0,1,4.75,14.1v5.06H42.37A.64.64,0,0,1,42.57,19.19Z"/><path class="cls-1" d="M22.87,12a.84.84,0,0,1,.46-.08.75.75,0,0,1,.44.07,26.22,26.22,0,0,0,17.61.56c-11.05-4.4-16-9.3-17.4-10.94a.65.65,0,0,0-1,0,41.82,41.82,0,0,1-3.68,3.47l-.53.43L17.07,6.77a50.5,50.5,0,0,1-7.64,4.29L5.76,12.61A25.2,25.2,0,0,0,22.87,12Z"/><path class="cls-1" d="M8.47,42.45l2.3-21.52h-6V45.07H34.68c-.5-.81-1-1.7-1.48-2.62Z"/><path class="cls-1" d="M36.55,20.93l.59,5.47a9,9,0,0,1,3.34-.52,9.58,9.58,0,0,1,2.09.29V20.9a.64.64,0,0,1-.2,0Z"/><path class="cls-1" d="M40.42,27.69A7.34,7.34,0,0,0,35,29.81,7.25,7.25,0,0,0,32.78,35c0,5.22,6.07,13,6.33,13.3l.39.54a.55.55,0,0,0,.39.24h0a.55.55,0,0,0,.39-.23l.41-.49c.29-.32,7-8,7-13A7.48,7.48,0,0,0,40.42,27.69ZM40.29,40.5a5.29,5.29,0,1,1,5.32-5.25A5.28,5.28,0,0,1,40.29,40.5Z"/><path class="cls-1" d="M41.71,31.35a.35.35,0,0,0-.36-.37h-2a.36.36,0,0,0-.36.34L39,33.87H36.48a.36.36,0,0,0-.36.35v2a.36.36,0,0,0,.36.35l2.48,0v2.55a.35.35,0,0,0,.35.36l2,0a.36.36,0,0,0,.35-.36l0-2.55,2.55,0a.36.36,0,0,0,.36-.36l0-1.95a.36.36,0,0,0-.36-.36l-2.55,0Z"/></svg>