<svg id="Layer_1" data-name="Layer 1" xmlns="http://www.w3.org/2000/svg" viewBox="0 0 50.46 50.46"><defs><style>.cls-1{fill:#12b5e1;}</style></defs><title>operativo sanitario 2</title><path class="cls-1" d="M8.63,44,11,20.67H36.58l.59,5.95A9.08,9.08,0,0,1,39,26.18l-.55-5.51H41v5.45a9.79,9.79,0,0,1,1.81.32V14c0-.05,0-.1,0-.14v0l0-.13v-.05l-.06-.11,0,0-.1-.12,0,0-.1-.08,0,0-.1,0,0,0,0,0c-1.4-.55-13.83-5.56-17.88-11.54a.88.88,0,0,0-.77-.4.91.91,0,0,0-.75.43c-.38.62-4.05,6.21-17.6,11.53h0l0,0-.1.06,0,0a.39.39,0,0,0-.1.08l0,0a.64.64,0,0,0-.1.13l0,0-.06.12v0a.83.83,0,0,0,0,.15h0c0,.05,0,.09,0,.14V44.88a.9.9,0,0,0,.91.9H35.05c-.36-.56-.73-1.17-1.09-1.81Zm15-40.39c1.7,2,6.1,6.18,15.64,10.27a24.5,24.5,0,0,1-15.26-1,1,1,0,0,0-.64,0l-.21.07a23.45,23.45,0,0,1-15,1C17.86,9.74,22.07,5.59,23.67,3.58ZM6.5,15.25a25.61,25.61,0,0,0,7.81,1.23,24.22,24.22,0,0,0,9.34-1.81,25.59,25.59,0,0,0,9.52,1.79A25.57,25.57,0,0,0,41,15.23v3.63H37.55a1,1,0,0,0-.25,0H6.5ZM6.81,44H6.5V20.67H9.15Z"/><path class="cls-1" d="M40.48,27.9A7.34,7.34,0,0,0,35.07,30a7.26,7.26,0,0,0-2.23,5.19c0,5.23,6.07,13,6.33,13.3l.39.54a.55.55,0,0,0,.39.24h0a.58.58,0,0,0,.39-.22l.41-.5c.29-.32,7-8,7-13A7.48,7.48,0,0,0,40.48,27.9Zm-.13,12.81a5.29,5.29,0,1,1,5.32-5.25A5.28,5.28,0,0,1,40.35,40.71Z"/><path class="cls-1" d="M41.77,31.56a.35.35,0,0,0-.36-.37H39.46a.36.36,0,0,0-.36.34L39,34.09l-2.49,0a.37.37,0,0,0-.36.35v2a.36.36,0,0,0,.36.36H39v2.56a.35.35,0,0,0,.35.35l2,0a.36.36,0,0,0,.35-.36l0-2.55,2.55,0a.36.36,0,0,0,.36-.36l0-2a.36.36,0,0,0-.36-.36l-2.55,0Z"/></svg>