<?xml version="1.0" encoding="utf-8"?>
<!-- Generator: Adobe Illustrator 22.1.0, SVG Export Plug-In . SVG Version: 6.00 Build 0)  -->
<svg version="1.1" id="Layer_1" xmlns="http://www.w3.org/2000/svg" xmlns:xlink="http://www.w3.org/1999/xlink" x="0px" y="0px"
	 viewBox="0 0 50.5 50.5" style="enable-background:new 0 0 50.5 50.5;" xml:space="preserve">
<style type="text/css">
	.st0{fill:#12B5E1;}
</style>
<g>
	<path class="st0" d="M41.3,27.4c-0.8-2.4-2.6-4.2-4.9-4.9l0.2-4.1c0.7-0.9,1.5-2.8,1.5-4.4c0-2-1.2-3.5-2.2-4.8
		c-1.2-1.5-1.9-2.4-1.4-3.8c0.1-0.3,0-0.7-0.2-1s-0.6-0.3-1-0.2c-0.7,0.3-5,5.8-5.1,9.7c0,1.8,0.9,3.5,1.5,4.4l0.2,4.2
		c-0.7,0.1-1.5,0.1-2.2,0c-1-0.2-1.9-0.7-2.5-1.4c-0.4-0.5-0.6-1.2-0.7-1.9c-0.1-1.2,0.4-2.3,0.8-3c0.2-0.3,0.3-0.5,0.5-0.8
		c0.6-0.8,1.2-1.8,1.4-2.9c0.1-1.4-0.5-2.7-1.9-3.9c-2.3-2-7.4-2.1-11.6,1.2c-0.4,0.3-0.5,0.9-0.2,1.3c0.3,0.4,0.9,0.5,1.3,0.2
		c3.7-2.9,7.8-2.6,9.4-1.2c0.4,0.4,1.3,1.3,1.2,2.3c-0.1,0.7-0.5,1.4-1,2.1c-0.2,0.3-0.4,0.6-0.6,0.9c-0.8,1.3-1.2,2.7-1.1,4.1
		c0.1,1.1,0.4,2.1,1,2.9c0.8,1.1,2.1,1.9,3.6,2.1c0.5,0.1,1,0.1,1.5,0.1c0.4,0,0.8,0,1.1-0.1l0.7,16c-4.6,1.9-9.3,2.2-13.3,0.9
		c-5.8-1.9-10.2-7.6-10.7-13.8C6.5,23.1,8,18.5,11,14.8c0.3-0.4,0.3-1-0.1-1.3c-0.4-0.3-1-0.3-1.3,0.1c-3.3,4-4.9,9.1-4.6,13.9
		c0.5,6.9,5.5,13.3,11.9,15.4c1.8,0.6,3.7,0.9,5.7,0.9c2.7,0,5.4-0.5,8.2-1.6l0.1,1.8c0.1,1.2,1,2.1,2.2,2.1c0,0,0,0,0,0
		c1.2,0,2.2-0.9,2.2-2.1l0.2-4.2c1.8-1.2,3.3-2.6,4.3-4.1C41.7,33.2,42.2,30,41.3,27.4z M31.7,19h3.1l-0.1,1.7h-3L31.7,19z
		 M32.9,7.7c0.4,1,1,1.9,1.7,2.7c0.9,1.2,1.8,2.3,1.8,3.7c0,1-0.6,2.4-1.1,3.1h-4.1c-0.5-0.8-1.1-2.1-1.1-3.1
		C30.1,12,31.7,9.4,32.9,7.7z M33.2,44.4c-0.2,0-0.4-0.1-0.4-0.4l-1-22.2h2.9l-1,22.1C33.6,44.3,33.4,44.4,33.2,44.4z M38.4,34.8
		c-0.7,1-1.6,2-2.7,2.8l0.6-13.2c1.5,0.6,2.8,2,3.3,3.6C40.3,30.1,39.9,32.6,38.4,34.8z"/>
	<path class="st0" d="M12,13.3c0.2,0,0.4-0.1,0.6-0.2c0.1-0.1,0.3-0.2,0.4-0.4c0.4-0.3,0.4-0.9,0.1-1.3c-0.3-0.4-0.9-0.4-1.3-0.1
		c-0.1,0.1-0.3,0.3-0.4,0.4c-0.4,0.3-0.4,0.9,0,1.3C11.5,13.2,11.8,13.3,12,13.3z"/>
	<path class="st0" d="M13.9,17.6c-1.6,0-2.9,1.3-2.9,2.9s1.3,2.9,2.9,2.9s2.9-1.3,2.9-2.9S15.5,17.6,13.9,17.6z M13.9,22.2
		c-0.9,0-1.7-0.8-1.7-1.7s0.8-1.7,1.7-1.7s1.7,0.8,1.7,1.7S14.8,22.2,13.9,22.2z"/>
	<path class="st0" d="M18.9,11.6c-1.6,0-2.9,1.3-2.9,2.9s1.3,2.9,2.9,2.9s2.9-1.3,2.9-2.9S20.5,11.6,18.9,11.6z M18.9,16.2
		c-0.9,0-1.7-0.8-1.7-1.7s0.8-1.7,1.7-1.7s1.7,0.8,1.7,1.7S19.9,16.2,18.9,16.2z"/>
	<path class="st0" d="M12.3,25.3c-1.6,0-2.9,1.3-2.9,2.9c0,1.6,1.3,2.9,2.9,2.9s2.9-1.3,2.9-2.9C15.2,26.6,13.9,25.3,12.3,25.3z
		 M12.3,29.8c-0.9,0-1.7-0.8-1.7-1.7c0-0.9,0.8-1.7,1.7-1.7s1.7,0.8,1.7,1.7C14,29.1,13.2,29.8,12.3,29.8z"/>
	<path class="st0" d="M16.7,37.2c1.6,0,2.9-1.3,2.9-2.9s-1.3-2.9-2.9-2.9s-2.9,1.3-2.9,2.9S15.1,37.2,16.7,37.2z M16.7,32.6
		c0.9,0,1.7,0.8,1.7,1.7S17.6,36,16.7,36c-0.9,0-1.7-0.8-1.7-1.7S15.7,32.6,16.7,32.6z"/>
	<path class="st0" d="M24.1,39.5c1.6,0,2.9-1.3,2.9-2.9s-1.3-2.9-2.9-2.9s-2.9,1.3-2.9,2.9S22.5,39.5,24.1,39.5z M24.1,34.9
		c0.9,0,1.7,0.8,1.7,1.7s-0.8,1.7-1.7,1.7s-1.7-0.8-1.7-1.7S23.1,34.9,24.1,34.9z"/>
</g>
</svg>
