<?xml version="1.0" encoding="utf-8"?>
<!-- Generator: Adobe Illustrator 26.5.1, SVG Export Plug-In . SVG Version: 6.00 Build 0)  -->
<svg version="1.0" id="Layer_1" xmlns="http://www.w3.org/2000/svg" xmlns:xlink="http://www.w3.org/1999/xlink" x="0px" y="0px"
	 viewBox="0 0 50.5 50.5" style="enable-background:new 0 0 50.5 50.5;" xml:space="preserve">
<g>
	<path d="M47.841,36.126c0.441,0,0.8-0.358,0.8-0.8s-0.358-0.8-0.8-0.8h-8.483v-2.029h8.514c0.441,0,0.8-0.358,0.8-0.8
		s-0.358-0.8-0.8-0.8h-8.514v-1.38c0-0.441-0.358-0.8-0.8-0.8s-0.8,0.358-0.8,0.8v1.38h-7.699v-1.38c0-0.441-0.358-0.8-0.8-0.8
		s-0.8,0.358-0.8,0.8v1.38H20.76v-1.38c0-0.441-0.358-0.8-0.8-0.8s-0.8,0.358-0.8,0.8v1.38h-7.699V18.58h5.345
		c0.309,0,0.59-0.177,0.723-0.456l4.308-9.057c0.118-0.248,0.1-0.539-0.046-0.771s-0.402-0.373-0.676-0.373H6.897
		c-0.309,0-0.59,0.177-0.723,0.456l-4.308,9.057c-0.118,0.248-0.1,0.539,0.046,0.771s0.402,0.373,0.676,0.373h7.272v16.599
		c-0.01,0.05-0.03,0.095-0.03,0.148s0.02,0.098,0.03,0.148v3.334c-0.01,0.05-0.03,0.095-0.03,0.148s0.02,0.098,0.03,0.148v2.635
		c0,0.441,0.358,0.8,0.8,0.8s0.8-0.358,0.8-0.8v-1.982h7.699v1.982c0,0.441,0.358,0.8,0.8,0.8s0.8-0.358,0.8-0.8v-1.982h7.699v1.982
		c0,0.441,0.358,0.8,0.8,0.8s0.8-0.358,0.8-0.8v-1.982h7.699v1.982c0,0.441,0.358,0.8,0.8,0.8s0.8-0.358,0.8-0.8v-1.982h8.483
		c0.441,0,0.8-0.358,0.8-0.8s-0.358-0.8-0.8-0.8h-8.483v-2.029H47.841z M7.494,16.98l1.393-2.929h1.71L9.204,16.98H7.494z
		 M12.751,9.522l-1.393,2.929h-1.71l1.393-2.929H12.751z M16.233,9.522l-1.393,2.929h-1.71l1.393-2.929H16.233z M10.976,16.98
		l1.393-2.929h1.71l-1.393,2.929H10.976z M16.301,16.98h-1.842l1.393-2.929h1.842L16.301,16.98z M18.454,12.452h-1.842l1.393-2.929
		h1.842L18.454,12.452z M7.402,9.522h1.867l-1.393,2.929H6.009L7.402,9.522z M5.248,14.051h1.867L5.722,16.98H3.855L5.248,14.051z
		 M37.758,32.497v2.029h-7.699v-2.029H37.758z M28.459,32.497v2.029H20.76v-2.029H28.459z M19.16,32.497v2.029h-7.699v-2.029H19.16z
		 M11.461,38.155v-2.029h7.699v2.029H11.461z M20.76,38.155v-2.029h7.699v2.029H20.76z M37.758,38.155h-7.699v-2.029h7.699V38.155z"
		/>
	<path d="M24.863,21.906l-0.592,1.056c-0.383,0.684-0.375,1.496,0.021,2.173c0.396,0.676,1.101,1.08,1.885,1.08h2.121
		c0.252,0,0.484,0.113,0.638,0.312c0.023,0.029,0.049,0.058,0.075,0.083l2.253,2.183v0.764c0,0.441,0.358,0.8,0.8,0.8
		s0.8-0.358,0.8-0.8v-1.103c0-0.217-0.088-0.424-0.243-0.574l-2.46-2.383c-0.459-0.561-1.134-0.88-1.862-0.88h-2.121
		c-0.303,0-0.454-0.203-0.505-0.29s-0.153-0.318-0.006-0.582l1.953-3.488c0.112-0.231,0.466-0.737,0.786-0.737
		c0.335,0,0.651,0.317,0.772,0.454c0.051,0.058,0.11,0.108,0.176,0.148c0.515,0.32,1.074,0.295,1.517-0.063
		c0.31-0.187,0.597-0.293,0.795-0.293c0.615,0,0.96,0.182,1.14,0.332c-0.411,0.724-1.336,0.929-1.875,0.929h-0.176
		c-0.441,0-0.8,0.358-0.8,0.8s0.358,0.8,0.8,0.8h0.176c1.331,0,2.848-0.666,3.433-2.119h1.626v1.078
		c0,0.084-0.113,0.178-0.265,0.178c-1.028,0-1.864,0.797-1.864,1.777v0.993c0,1.332,1.147,2.415,2.559,2.415h1.878
		c1.112,0,2.018-0.86,2.018-1.918c0-0.059,0.089-0.145,0.229-0.145c1.289,0,2.337-0.992,2.337-2.211v-2.167h0.195
		c0.794,0,1.439,0.646,1.439,1.44v7.61c0,0.441,0.358,0.8,0.8,0.8s0.8-0.358,0.8-0.8v-2.609h1.387c0.441,0,0.8-0.358,0.8-0.8v-4.201
		c0-1.676-1.363-3.04-3.04-3.04h-2.132c-0.006,0-0.012,0.003-0.018,0.004c-0.012,0-0.023-0.004-0.036-0.004h-9.213
		c-0.458-0.396-1.17-0.741-2.196-0.741c-0.481,0-1.002,0.162-1.551,0.481c-0.514-0.471-1.11-0.726-1.709-0.726
		c-0.548,0-0.991,0.224-1.336,0.503c-0.341-0.171-0.759-0.293-1.452-0.257c-0.965,0.049-2.436,0.711-2.618,1.321
		c-0.074,0.248-0.023,0.51,0.126,0.71C23.469,20.9,24.185,21.512,24.863,21.906z M41.28,22.672c0,0.337-0.331,0.611-0.737,0.611
		c-1.008,0-1.828,0.783-1.828,1.745c0,0.172-0.191,0.318-0.418,0.318h-1.878c-0.528,0-0.959-0.366-0.959-0.815v-0.993
		c0-0.084,0.113-0.178,0.265-0.178c1.028,0,1.864-0.797,1.864-1.778v-1.078h3.691V22.672z M46.701,21.945v3.401h-0.587v-3.401
		c0-0.481-0.123-0.931-0.323-1.336C46.323,20.822,46.701,21.339,46.701,21.945z M25.7,19.763c0.153-0.008,0.263-0.003,0.359,0.009
		l-0.415,0.74c-0.258-0.155-0.517-0.35-0.722-0.554C25.154,19.86,25.425,19.777,25.7,19.763z"/>
</g>
</svg>
