<svg id="Layer_1" data-name="Layer 1" xmlns="http://www.w3.org/2000/svg" viewBox="0 0 50.46 50.46"><defs><style>.cls-1{fill:#65b4e1;}</style></defs><title>pareja</title><path class="cls-1" d="M38.94,8.12a7.68,7.68,0,0,0-6,2.93,7.64,7.64,0,0,0-13.65,4.72c0,.18,0,.36,0,.54a9.19,9.19,0,0,1,2.44-.86A5.2,5.2,0,0,1,31.8,13.91a1.22,1.22,0,0,0,2.27,0,5.21,5.21,0,1,1,8.72,5.37c-.91,1-7.48,8.6-9.86,11.36-1.86-2.15-6.25-7.24-8.53-9.85a3.5,3.5,0,0,0-.89-.12,3.69,3.69,0,0,0-1.95.57c1.92,2.17,10.28,11.86,10.37,12l.08.09a1.22,1.22,0,0,0,.92.42h0a1.22,1.22,0,0,0,.92-.42l.07-.09c.1-.11,9.59-11.12,10.66-12.29a7.65,7.65,0,0,0-5.65-12.8Z"/><path class="cls-1" d="M17.52,39.26c-2.38-2.76-9-10.36-9.86-11.36a5.21,5.21,0,1,1,8.72-5.37,1.22,1.22,0,0,0,2.27,0,5.21,5.21,0,0,1,10,.83L31,26.07a7.64,7.64,0,0,0-13.46-6.4A7.64,7.64,0,1,0,5.86,29.54c1.07,1.17,10.56,12.18,10.66,12.29l.08.09a1.22,1.22,0,0,0,.92.43h0a1.22,1.22,0,0,0,.92-.42l.08-.09c.08-.09,6.61-7.67,9.46-10.92L26.37,29C24.2,31.53,19.46,37,17.52,39.26Z"/></svg>