<svg id="Layer_1" data-name="Layer 1" xmlns="http://www.w3.org/2000/svg" viewBox="0 0 50.46 50.46"><defs><style>.cls-1{fill:#12b5e1;}</style></defs><title>participacion</title><path class="cls-1" d="M32.68,18a2.12,2.12,0,0,0-.61-.46,1.31,1.31,0,0,0-.74-.05,1.72,1.72,0,0,0-.42.12,6.41,6.41,0,0,0-2.3,2.11,3.19,3.19,0,0,1-1.48,1.19v-11a.91.91,0,1,0-1.78,0v6a.43.43,0,1,1-.86,0V8.25a1,1,0,0,0-.89-1.11,1,1,0,0,0-.89,1.11V15.9a.43.43,0,1,1-.86,0V9.05A1,1,0,0,0,21,7.94a1,1,0,0,0-.89,1.11v7.66a.43.43,0,1,1-.86,0V11.47a1,1,0,0,0-.89-1.11,1,1,0,0,0-.89,1.11V22.34a4.45,4.45,0,0,0,1.85,4h6.92A6.83,6.83,0,0,0,28.58,24c.22-.41.41-.79.6-1.15a11.7,11.7,0,0,1,2.44-3.73,7.09,7.09,0,0,1,.93-.65.38.38,0,0,0,.18-.25A.26.26,0,0,0,32.68,18Z"/><path class="cls-1" d="M17.4,29.52H28.22a.69.69,0,0,1,.69.69V43.32a0,0,0,0,1,0,0H16.72a0,0,0,0,1,0,0V30.2A.69.69,0,0,1,17.4,29.52Z"/><rect class="cls-1" x="18.29" y="26.93" width="9.16" height="1.91"/><path class="cls-1" d="M45.26,23.94a1.6,1.6,0,0,0-.47-.35,1.06,1.06,0,0,0-.56,0,1.26,1.26,0,0,0-.33.1,4.93,4.93,0,0,0-1.75,1.61,2.54,2.54,0,0,1-1.13.91l0-8.46a.7.7,0,1,0-1.36,0v4.62a.36.36,0,0,1-.32.39.36.36,0,0,1-.34-.39V16.48a.7.7,0,1,0-1.36,0v5.85a.33.33,0,1,1-.65,0V17.09a.7.7,0,1,0-1.37,0V23A.33.33,0,1,1,35,23v-4a.7.7,0,1,0-1.37,0v8.32A3.39,3.39,0,0,0,35,30.34h5.3a5.23,5.23,0,0,0,1.83-1.82l.45-.88a9,9,0,0,1,1.87-2.85,7.1,7.1,0,0,1,.71-.5.3.3,0,0,0,.14-.19A.18.18,0,0,0,45.26,23.94Z"/><path class="cls-1" d="M33.57,32.76h8.28a.53.53,0,0,1,.53.53v10a0,0,0,0,1,0,0H33a0,0,0,0,1,0,0v-10A.53.53,0,0,1,33.57,32.76Z"/><rect class="cls-1" x="34.25" y="30.78" width="7.01" height="1.46"/><path class="cls-1" d="M15.36,27.14a1.32,1.32,0,0,0-.39-.29.88.88,0,0,0-.48,0l-.27.08a4.12,4.12,0,0,0-1.46,1.35,2.06,2.06,0,0,1-.95.76V21.94a.65.65,0,0,0-.56-.71.65.65,0,0,0-.57.71V25.8a.3.3,0,0,1-.28.32.3.3,0,0,1-.27-.32V20.91a.66.66,0,0,0-.57-.71.66.66,0,0,0-.57.71V25.8a.28.28,0,1,1-.55,0V21.42a.64.64,0,0,0-.57-.7.65.65,0,0,0-.57.7v4.89a.27.27,0,1,1-.54,0V23a.66.66,0,0,0-.57-.71.65.65,0,0,0-.57.71v7a2.84,2.84,0,0,0,1.18,2.57h4.42A4.31,4.31,0,0,0,12.74,31l.38-.73a7.5,7.5,0,0,1,1.56-2.38,4.22,4.22,0,0,1,.6-.42.21.21,0,0,0,.11-.16A.14.14,0,0,0,15.36,27.14Z"/><path class="cls-1" d="M5.6,34.5h6.91a.44.44,0,0,1,.44.44v8.38a0,0,0,0,1,0,0H5.16a0,0,0,0,1,0,0V34.94A.44.44,0,0,1,5.6,34.5Z"/><rect class="cls-1" x="6.16" y="32.85" width="5.85" height="1.22"/></svg>