<svg id="Layer_1" data-name="Layer 1" xmlns="http://www.w3.org/2000/svg" viewBox="0 0 50.46 50.46"><defs><style>.cls-1{fill:#12b5e1;}</style></defs><title>pasaje avion</title><path class="cls-1" d="M18.75,22.55l-4-.32a4.15,4.15,0,0,0-1.32,0,5,5,0,0,0-.65.41l2.84,1.62Z"/><path class="cls-1" d="M29.19,19.66A1.58,1.58,0,0,0,27.7,19a4.8,4.8,0,0,0-1.79.41L11.8,26.79h0s-1.13-.25-2.63-.45a3.82,3.82,0,0,0-.57,0c-1.11,0-1.77.48-1.12,1.08s4,3.71,4,3.71L17,28.18,17.28,26s0-.31.32-.28.24.36.24.36-.69,5.31-.7,5.4l.32-.12a2.68,2.68,0,0,0,1.1-.76l3.65-6.23a.28.28,0,0,1,.39-.1.28.28,0,0,1,.1.38l-.34.59,5.51-3C28.36,22,29.76,20.79,29.19,19.66Z"/><path class="cls-1" d="M35.76,35.07a.61.61,0,0,1-.61-.62V32.4a.61.61,0,0,1,.61-.61.61.61,0,0,1,.62.61v2.05A.62.62,0,0,1,35.76,35.07Zm0-4.1a.61.61,0,0,1-.61-.62V28.3a.61.61,0,0,1,.61-.61.61.61,0,0,1,.62.61v2.05A.62.62,0,0,1,35.76,31Zm0-4.1a.61.61,0,0,1-.61-.62v-2a.61.61,0,0,1,.61-.62.62.62,0,0,1,.62.62v2A.62.62,0,0,1,35.76,26.87Zm0-4.1a.61.61,0,0,1-.61-.61V20.11a.61.61,0,0,1,.61-.62.62.62,0,0,1,.62.62v2.05A.61.61,0,0,1,35.76,22.77Zm0-4.1a.61.61,0,0,1-.61-.61V16a.61.61,0,0,1,.61-.62.62.62,0,0,1,.62.62v2A.61.61,0,0,1,35.76,18.67Z"/><path class="cls-1" d="M44.29,37.79H6.17a3.57,3.57,0,0,1-3.56-3.56v-18a3.57,3.57,0,0,1,3.56-3.56H44.29a3.57,3.57,0,0,1,3.56,3.56v2.92a.91.91,0,0,1-.84.9c-2.21.16-3.94,2.43-3.94,5.18s1.73,5,3.94,5.18a.91.91,0,0,1,.84.9v2.92A3.57,3.57,0,0,1,44.29,37.79ZM6.17,14.47a1.76,1.76,0,0,0-1.76,1.76v18A1.76,1.76,0,0,0,6.17,36H44.29a1.76,1.76,0,0,0,1.76-1.76V32.08c-2.74-.66-4.78-3.5-4.78-6.85s2-6.19,4.78-6.85V16.23a1.76,1.76,0,0,0-1.76-1.76Z"/></svg>