<?xml version="1.0" encoding="utf-8"?>
<!-- Generator: Adobe Illustrator 24.2.1, SVG Export Plug-In . SVG Version: 6.00 Build 0)  -->
<svg version="1.1" id="Layer_1" xmlns="http://www.w3.org/2000/svg" xmlns:xlink="http://www.w3.org/1999/xlink" x="0px" y="0px"
	 viewBox="0 0 50.5 50.5" style="enable-background:new 0 0 50.5 50.5;" xml:space="preserve">
<path d="M24.2,31.2v-2c0-0.5,0.4-1,1-1s0.9,0.4,0.9,1v2c0,0.5-0.4,1-0.9,1S24.2,31.7,24.2,31.2z M25.2,38.2c0.5,0,0.9-0.4,0.9-1v-2
	c0-0.5-0.4-1-0.9-1s-1,0.4-1,1v2C24.2,37.7,24.6,38.2,25.2,38.2z M25.2,26.2c0.5,0,0.9-0.4,0.9-1v-2c0-0.5-0.4-1-0.9-1s-1,0.4-1,1v2
	C24.2,25.7,24.6,26.2,25.2,26.2z M47.5,10.8v7.4c0,0.7-0.6,1.3-1.3,1.3h-2.8v6.9c0,0.4-0.4,0.8-0.8,0.8h-4.7c-0.4,0-0.8-0.4-0.8-0.8
	v-6.9h-3.9l3.7,21.7c0,0.2,0,0.5-0.2,0.7c-0.2,0.2-0.4,0.3-0.6,0.3H14.2c-0.2,0-0.5-0.1-0.6-0.3s-0.2-0.4-0.2-0.7l3.7-21.7H14v6.9
	c0,0.4-0.4,0.8-0.8,0.8H8.4c-0.4,0-0.8-0.4-0.8-0.8v-6.9H4.8c-0.7,0-1.3-0.6-1.3-1.3v-7.4c-0.2-0.2-0.4-0.5-0.4-0.8
	c0-0.6,0.5-1.2,1.2-1.2h42.3c0.6,0,1.2,0.5,1.2,1.2C47.8,10.3,47.7,10.6,47.5,10.8z M31.5,19.5H18.8l-3.6,21h20L31.5,19.5z
	 M45.9,17.9v-6.8H5.1v6.8h3.3c0.4,0,0.8,0.4,0.8,0.8v6.9h3.1v-6.3c0-0.8,0.6-1.4,1.4-1.4h4.4h14.1h5.1c0.8,0,1.4,0.6,1.4,1.4v6.3
	h3.1v-6.9c0-0.4,0.4-0.8,0.8-0.8H45.9z"/>
</svg>
