<svg id="Layer_1" data-name="Layer 1" xmlns="http://www.w3.org/2000/svg" viewBox="0 0 50.46 50.46"><defs><style>.cls-1{fill:#65b4e1;}</style></defs><title>paso-a-nivel</title><path class="cls-1" d="M39.84,24.24l-7.5-4.33,7.5-4.33a.87.87,0,0,0,.32-1.19L37.48,9.74a.87.87,0,0,0-1.19-.32L26.18,15.25V12.44a3.44,3.44,0,1,0-1.9,0v2.81L14.17,9.42A.87.87,0,0,0,13,9.74L10.3,14.39a.87.87,0,0,0,.32,1.19l7.5,4.33-7.5,4.33a.87.87,0,0,0-.32,1.19L13,30.07a.87.87,0,0,0,1.19.32l10.11-5.83V36.45H22a4.86,4.86,0,1,0,0,1.9h2.3V43.8a.95.95,0,1,0,1.9,0V38.35h2.3a4.86,4.86,0,1,0,0-1.9h-2.3V24.56l10.11,5.83a.87.87,0,0,0,1.19-.32l2.68-4.65a.87.87,0,0,0-.32-1.19ZM17.21,40.36a3,3,0,1,1,3-3A3,3,0,0,1,17.21,40.36Zm16-5.92a3,3,0,1,1-3,3A3,3,0,0,1,33.25,34.44ZM23.53,9.15a1.7,1.7,0,1,1,1.7,1.7A1.7,1.7,0,0,1,23.53,9.15ZM12.25,14.5l1.81-3.14,9.43,5.44L19.86,18.9Zm1.81,13.95-1.81-3.14L36.4,11.36l1.81,3.14Zm22.34,0L27,23l3.63-2.09,7.62,4.4Z"/></svg>