<?xml version="1.0" encoding="utf-8"?>
<!-- Generator: Adobe Illustrator 22.1.0, SVG Export Plug-In . SVG Version: 6.00 Build 0)  -->
<svg version="1.1" id="Layer_1" xmlns="http://www.w3.org/2000/svg" xmlns:xlink="http://www.w3.org/1999/xlink" x="0px" y="0px"
	 viewBox="0 0 50.5 50.5" style="enable-background:new 0 0 50.5 50.5;" xml:space="preserve">
<style type="text/css">
	.st0{fill:#12B5E1;}
</style>
<path class="st0" d="M40.2,33.8h-3.4c0-0.1,0-0.2,0-0.3c0-0.3,0-2.3,0-4.1c2.8-0.4,4.9-2.8,4.9-5.7c0-3.2-2.6-5.8-5.8-5.8
	c-2.9,0-5.3,2.1-5.7,4.9h-8l-5.6-5.6c0-1.3,0-2.3,0-3h4c0.5,0,0.9-0.4,0.9-0.9V5.9c0-0.5-0.4-0.9-0.9-0.9h-9.7C10.4,5,10,5.4,10,5.9
	v7.5c0,0.5,0.4,0.9,0.9,0.9h3.9c0,0.7,0,1.7,0,3l-5.8,5.8c-0.2,0.2-0.3,0.4-0.3,0.6s0.1,0.5,0.3,0.6l5.8,5.8c0,0,0,0.1,0,0.1
	c0,1.1,0,1.9,0,2.4c-2.8,0.4-4.9,2.8-4.9,5.7c0,3.2,2.6,5.8,5.8,5.8c3.2,0,5.8-2.6,5.8-5.8c0-2.9-2.1-5.3-4.9-5.7c0-0.6,0-1.4,0-2.4
	c0,0,0-0.1,0-0.1l5.6-5.6h8c0.4,2.5,2.3,4.4,4.8,4.8c0,3.3,0,4.1,0,4.3h-3.4c-0.5,0-0.9,0.4-0.9,0.9v8.6c0,0.5,0.4,0.9,0.9,0.9h8.6
	c0.5,0,0.9-0.4,0.9-0.9v-8.6C41.1,34.2,40.7,33.8,40.2,33.8z M11.8,6.8h7.9v5.7h-7.9V6.8z M19.7,38.5c0,2.2-1.8,4-4,4
	c-2.2,0-4-1.8-4-4s1.8-4,4-4C18,34.5,19.7,36.3,19.7,38.5z M15.8,28.6L11,23.8l4.8-4.8l4.8,4.8L15.8,28.6z M32,23.8c0-2.2,1.8-4,4-4
	s4,1.8,4,4c0,2.2-1.8,4-4,4S32,26,32,23.8z M39.3,42.4h-6.8v-6.8h6.8V42.4z"/>
</svg>
