<svg id="Layer_1" data-name="Layer 1" xmlns="http://www.w3.org/2000/svg" viewBox="0 0 50.46 50.46"><defs><style>.cls-1{fill:#65b4e1;}</style></defs><title>pd punto digital</title><path class="cls-1" d="M25.24,2.73h0A19.22,19.22,0,0,0,6,22c0,5.78,2.42,10.38,6.59,14.49L23.2,46.89a2.91,2.91,0,0,0,2,.84h0a2.91,2.91,0,0,0,2-.84L37.85,36.44C42,32.33,44.44,27.73,44.44,22A19.22,19.22,0,0,0,25.24,2.73Zm0,35.77A16.54,16.54,0,1,1,41.77,22,16.55,16.55,0,0,1,25.23,38.5Z"/><path class="cls-1" d="M15,14.87H13.21a.21.21,0,0,0-.24.23v5.47a.25.25,0,1,0,.5,0V18.28a0,0,0,0,1,.05-.05H15a1.68,1.68,0,1,0,0-3.36Zm0,2.89h-1.5a0,0,0,0,1-.05-.05V15.39a0,0,0,0,1,.05-.05H15c.87,0,1.34.46,1.34,1.21S15.9,17.75,15,17.75Z"/><path class="cls-1" d="M22,18.75V15.1a.25.25,0,1,0-.5,0v3.66c0,1.12-.57,1.66-1.52,1.66s-1.51-.54-1.51-1.66V15.1a.25.25,0,1,0-.5,0v3.65a1.87,1.87,0,0,0,2,2.14A1.87,1.87,0,0,0,22,18.75Z"/><path class="cls-1" d="M27.36,20.83a.28.28,0,0,0,.31-.31V15.1a.25.25,0,0,0-.25-.27.24.24,0,0,0-.25.27v4.73h0L24.28,15.1c-.11-.18-.19-.27-.36-.27a.28.28,0,0,0-.3.32v5.42a.25.25,0,1,0,.5,0V15.82h0L27,20.56C27.1,20.75,27.19,20.83,27.36,20.83Z"/><path class="cls-1" d="M28.89,15.33h1.57s.05,0,.05.05v5.18a.25.25,0,1,0,.5,0V15.39s0-.05.05-.05h1.57a.24.24,0,1,0,0-.47H28.89a.23.23,0,1,0,0,.47Z"/><path class="cls-1" d="M37.42,19.55a5.17,5.17,0,0,0,.17-1.72,5.18,5.18,0,0,0-.17-1.72,2,2,0,0,0-3.83,0,5.24,5.24,0,0,0-.17,1.72,5.23,5.23,0,0,0,.17,1.72,2,2,0,0,0,3.83,0Zm-3.35-.14a5.11,5.11,0,0,1-.15-1.58,5.1,5.1,0,0,1,.15-1.58,1.53,1.53,0,0,1,2.87,0,5.21,5.21,0,0,1,.15,1.58,5.22,5.22,0,0,1-.15,1.58,1.53,1.53,0,0,1-2.87,0Z"/><path class="cls-1" d="M14.56,23.17H13.4a.43.43,0,0,0-.46.47v4a.43.43,0,0,0,.46.46h1.16c1,0,1.7-.33,2-1.13a4.08,4.08,0,0,0,.14-1.32,4,4,0,0,0-.14-1.32C16.26,23.5,15.61,23.17,14.56,23.17Zm.94,3.41c-.12.39-.48.55-1,.55H14a0,0,0,0,1,0,0V24.16s0,0,0,0h.49c.49,0,.84.17,1,.56a3.58,3.58,0,0,1,.09,1A3.58,3.58,0,0,1,15.5,26.58Z"/><path class="cls-1" d="M18,23.13a.52.52,0,0,0-.53.56v3.87a.53.53,0,1,0,1.06,0V23.69A.52.52,0,0,0,18,23.13Z"/><path class="cls-1" d="M22.78,25.35h-1a.42.42,0,1,0,0,.84h.33a0,0,0,0,1,0,0,1.57,1.57,0,0,1-.06.48.79.79,0,0,1-.79.5.77.77,0,0,1-.8-.54,3.62,3.62,0,0,1-.08-1.05,3.55,3.55,0,0,1,.08-1,.76.76,0,0,1,.79-.55.84.84,0,0,1,.74.36.53.53,0,0,0,.47.26.47.47,0,0,0,.48-.48.62.62,0,0,0-.09-.32,1.78,1.78,0,0,0-1.6-.76,1.73,1.73,0,0,0-1.8,1.19,4,4,0,0,0-.14,1.34A4,4,0,0,0,19.48,27a1.73,1.73,0,0,0,1.8,1.19,1.75,1.75,0,0,0,1.79-1.23,3.92,3.92,0,0,0,.12-1.11v-.05A.38.38,0,0,0,22.78,25.35Z"/><path class="cls-1" d="M24.54,23.13a.52.52,0,0,0-.54.56v3.87a.53.53,0,1,0,1.06,0V23.69A.52.52,0,0,0,24.54,23.13Z"/><path class="cls-1" d="M29.49,23.65a.48.48,0,0,0-.53-.48H26.15a.48.48,0,0,0-.53.48.48.48,0,0,0,.53.47H27s0,0,0,0v3.4a.53.53,0,1,0,1.06,0v-3.4s0,0,0,0H29A.48.48,0,0,0,29.49,23.65Z"/><path class="cls-1" d="M32.13,23.75c-.14-.39-.36-.62-.74-.62s-.59.23-.73.62l-1.33,3.67a.61.61,0,0,0,0,.2.5.5,0,0,0,.51.5.51.51,0,0,0,.5-.38l.2-.6h1.75l.2.6a.51.51,0,0,0,.5.38.5.5,0,0,0,.51-.5.57.57,0,0,0,0-.2ZM30.8,26.24l.57-1.72h0L32,26.24Z"/><path class="cls-1" d="M37,27.13H35.28a0,0,0,0,1,0,0v-3.4a.53.53,0,1,0-1.06,0v3.85a.5.5,0,0,0,.53.53H37a.48.48,0,1,0,0-.95Z"/></svg>