<?xml version="1.0" encoding="utf-8"?>
<!-- Generator: Adobe Illustrator 24.0.3, SVG Export Plug-In . SVG Version: 6.00 Build 0)  -->
<svg version="1.1" id="Layer_1" xmlns="http://www.w3.org/2000/svg" xmlns:xlink="http://www.w3.org/1999/xlink" x="0px" y="0px"
	 viewBox="0 0 50.5 50.5" style="enable-background:new 0 0 50.5 50.5;" xml:space="preserve">
<title>pd punto digital</title>
<g>
	<path d="M25.2,0.8L25.2,0.8L25.2,0.8c-11.5,0-20.8,9.3-20.8,20.8c0,6.3,2.6,11.2,7.1,15.7c6,5.9,11.5,11.3,11.5,11.3
		c0.6,0.6,1.4,0.9,2.2,0.9v0c0,0,0,0,0,0c0,0,0,0,0,0v0c0.8,0,1.6-0.3,2.2-0.9c0,0,5.5-5.5,11.5-11.3c4.5-4.5,7.1-9.4,7.1-15.7
		C46,10.2,36.7,0.9,25.2,0.8z M25.2,40.5c-10.4,0-18.8-8.4-18.8-18.8c0-10.4,8.4-18.8,18.8-18.8C35.6,2.9,44,11.3,44,21.7
		C44,32.1,35.6,40.5,25.2,40.5z"/>
	<path d="M14,18c0.3,0,0.6,0,0.9,0c1,0,1.7-0.2,2.2-0.6c0.5-0.4,0.7-1,0.7-1.8c0-0.8-0.2-1.4-0.7-1.8c-0.5-0.4-1.2-0.6-2.1-0.6
		c-0.6,0-1.2,0.1-1.8,0.2v6.9H14V18z M14,14c0.3-0.1,0.7-0.1,1.1-0.1c0.7,0,1.2,0.1,1.5,0.4c0.3,0.3,0.5,0.7,0.5,1.4
		c0,0.6-0.2,1-0.5,1.3c-0.3,0.3-0.9,0.4-1.6,0.4c-0.3,0-0.6,0-0.9-0.1V14z"/>
	<path d="M22.1,19.8L22.1,19.8l0.1,0.6h0.6v-5.2h-0.8v3.9c-0.2,0.2-0.4,0.4-0.6,0.5c-0.3,0.1-0.5,0.2-0.8,0.2
		c-0.3,0-0.6-0.1-0.8-0.3c-0.2-0.2-0.3-0.5-0.3-0.9v-3.4h-0.8v3.4c0,0.6,0.1,1.1,0.4,1.4c0.3,0.3,0.7,0.4,1.2,0.4
		c0.3,0,0.6-0.1,0.9-0.2C21.7,20.2,21.9,20,22.1,19.8z"/>
	<path d="M28.3,20.4V17c0-0.6-0.1-1.1-0.4-1.4c-0.3-0.3-0.7-0.4-1.2-0.4c-0.3,0-0.6,0.1-0.9,0.2c-0.3,0.1-0.5,0.3-0.7,0.5H25
		L25,15.2h-0.6v5.2h0.8v-3.9c0.2-0.2,0.4-0.4,0.6-0.5c0.3-0.1,0.5-0.2,0.8-0.2c0.3,0,0.6,0.1,0.8,0.3c0.2,0.2,0.3,0.5,0.3,0.9v3.4
		H28.3z"/>
	<path d="M30,18.8c0,1.1,0.6,1.7,1.7,1.7c0.3,0,0.5,0,0.8-0.1v-0.6c-0.2,0.1-0.5,0.1-0.6,0.1c-0.4,0-0.6-0.1-0.8-0.3
		c-0.2-0.2-0.3-0.5-0.3-0.9v-2.8h1.6v-0.6h-1.6v-1.9h-0.6L30,15.2h-1v0.6h1V18.8z"/>
	<path d="M35.1,20.5c0.7,0,1.2-0.2,1.6-0.7c0.4-0.4,0.6-1.1,0.6-2c0-0.9-0.2-1.6-0.6-2c-0.4-0.4-0.9-0.6-1.6-0.6
		c-0.7,0-1.2,0.2-1.6,0.7c-0.4,0.4-0.6,1.1-0.6,2c0,0.9,0.2,1.6,0.6,2C33.9,20.2,34.4,20.5,35.1,20.5z M34.1,16.2
		c0.2-0.3,0.6-0.5,1.1-0.5c0.5,0,0.8,0.2,1.1,0.5c0.2,0.3,0.4,0.8,0.4,1.6c0,0.7-0.1,1.3-0.4,1.6c-0.2,0.3-0.6,0.5-1.1,0.5
		c-0.5,0-0.8-0.2-1.1-0.5c-0.2-0.3-0.4-0.8-0.4-1.6C33.7,17.1,33.8,16.5,34.1,16.2z"/>
	<path d="M15,22.4c-0.3,0-0.6,0-1,0.1c-0.3,0-0.6,0.1-0.9,0.1v5.7c0.5,0.1,1,0.1,1.6,0.1c0.8,0,1.4-0.1,1.9-0.3
		c0.5-0.2,0.9-0.5,1.1-1c0.3-0.4,0.4-1,0.4-1.7c0-1-0.3-1.8-0.8-2.3C16.9,22.7,16.1,22.4,15,22.4z M16.7,26.5
		c-0.1,0.3-0.3,0.5-0.6,0.6c-0.3,0.1-0.6,0.2-1,0.2c-0.3,0-0.5,0-0.6,0v-3.8c0.2,0,0.4-0.1,0.7-0.1c0.4,0,0.7,0.1,1,0.2
		c0.3,0.1,0.5,0.3,0.6,0.6c0.1,0.3,0.2,0.7,0.2,1.1C16.9,25.9,16.9,26.2,16.7,26.5z"/>
	<rect x="19.1" y="24" width="1.3" height="4.3"/>
	<path d="M19.7,22.1c-0.3,0-0.5,0.1-0.6,0.2c-0.1,0.1-0.2,0.3-0.2,0.5c0,0.2,0.1,0.4,0.2,0.5c0.1,0.1,0.3,0.2,0.6,0.2
		c0.3,0,0.5-0.1,0.6-0.2c0.1-0.1,0.2-0.3,0.2-0.5c0-0.2-0.1-0.4-0.2-0.5C20.1,22.1,20,22.1,19.7,22.1z"/>
	<path d="M23.5,23.9c-0.8,0-1.4,0.2-1.8,0.6c-0.4,0.4-0.6,1-0.6,1.7c0,0.5,0.1,0.9,0.2,1.2c0.2,0.3,0.4,0.5,0.6,0.7
		c0.3,0.2,0.5,0.2,0.8,0.2c0.2,0,0.5,0,0.6-0.1c0.2-0.1,0.3-0.2,0.5-0.4h0.1v0.3c0,0.2,0,0.4-0.1,0.6c-0.1,0.1-0.2,0.3-0.4,0.3
		c-0.2,0.1-0.4,0.1-0.7,0.1c-0.4,0-0.9-0.1-1.3-0.2v1c0.4,0.1,0.9,0.2,1.4,0.2c0.5,0,1-0.1,1.3-0.2c0.3-0.2,0.6-0.4,0.8-0.7
		c0.2-0.3,0.3-0.7,0.3-1.3v-3.7C25,24.1,24.7,24,24.4,24C24.1,24,23.8,23.9,23.5,23.9z M23.9,27.1c-0.1,0.1-0.2,0.2-0.3,0.2
		c-0.1,0-0.3,0.1-0.4,0.1c-0.3,0-0.5-0.1-0.7-0.3c-0.1-0.2-0.2-0.5-0.2-0.9c0-0.4,0.1-0.8,0.3-1c0.2-0.2,0.4-0.3,0.8-0.3
		c0.2,0,0.4,0,0.5,0.1V27.1z"/>
	<path d="M26.8,22.1c-0.3,0-0.5,0.1-0.6,0.2C26,22.3,26,22.5,26,22.7c0,0.2,0.1,0.4,0.2,0.5c0.1,0.1,0.3,0.2,0.6,0.2
		c0.3,0,0.5-0.1,0.6-0.2c0.1-0.1,0.2-0.3,0.2-0.5c0-0.2-0.1-0.4-0.2-0.5C27.2,22.1,27,22.1,26.8,22.1z"/>
	<rect x="26.1" y="24" width="1.3" height="4.3"/>
	<path d="M30.2,27.3c-0.1,0-0.2-0.1-0.2-0.2c0-0.1-0.1-0.3-0.1-0.5V25H31v-1h-1.1v-1.5h-1L28.6,24h-0.7v1h0.7v1.8
		c0,0.6,0.1,1,0.4,1.2c0.3,0.3,0.7,0.4,1.2,0.4c0.3,0,0.5,0,0.8-0.1v-1c-0.2,0-0.3,0.1-0.5,0.1C30.4,27.4,30.3,27.3,30.2,27.3z"/>
	<path d="M34.3,24.1c-0.3-0.1-0.7-0.2-1.1-0.2c-0.2,0-0.5,0-0.7,0c-0.2,0-0.5,0.1-0.7,0.1v0.9c0.2-0.1,0.4-0.1,0.6-0.1
		c0.2,0,0.4,0,0.6,0c0.2,0,0.4,0,0.6,0.1c0.1,0,0.2,0.1,0.3,0.2c0.1,0.1,0.1,0.3,0.1,0.5v0.1l-0.7,0.1c-0.6,0-1.1,0.2-1.4,0.4
		c-0.3,0.2-0.4,0.5-0.4,1c0,0.2,0.1,0.5,0.2,0.7c0.1,0.2,0.3,0.3,0.5,0.4c0.2,0.1,0.5,0.2,0.7,0.2c0.2,0,0.5,0,0.7-0.1
		c0.2-0.1,0.4-0.2,0.5-0.4H34l0.1,0.4h1v-2.6c0-0.5-0.1-0.8-0.2-1.1C34.8,24.4,34.6,24.2,34.3,24.1z M33.9,27.3
		c-0.1,0.1-0.2,0.2-0.3,0.2c-0.1,0-0.2,0.1-0.4,0.1c-0.2,0-0.3,0-0.4-0.1c-0.1-0.1-0.1-0.2-0.1-0.4c0-0.2,0.1-0.3,0.2-0.4
		c0.1-0.1,0.3-0.1,0.5-0.2l0.6,0V27.3z"/>
	<rect x="36.1" y="21.9" width="1.3" height="6.4"/>
</g>
</svg>
