<svg id="Layer_1" data-name="Layer 1" xmlns="http://www.w3.org/2000/svg" viewBox="0 0 50.46 50.46"><defs><style>.cls-1{fill:#65b4e1;}</style></defs><title>pd wifi</title><path class="cls-1" d="M25.26,3h0A18.69,18.69,0,0,0,6.29,21.65c0,5.7,2.39,10.08,6.5,14.14C18.21,41.13,23.39,46,23.39,46a2.72,2.72,0,0,0,2.13.75V46h0v.77a4.94,4.94,0,0,0,1.86-.83s5-5,10.39-10.31c4.11-4.05,6.47-8.27,6.47-14A18.72,18.72,0,0,0,25.26,3Zm0,34.65A16.33,16.33,0,1,1,41.58,21.33,16.33,16.33,0,0,1,25.25,37.65Z"/><path class="cls-1" d="M17.75,21.31a.63.63,0,0,1,0-.18.49.49,0,0,1,.5-.48.49.49,0,0,1,.48.35l.88,2.73L20.47,21a.51.51,0,0,1,.5-.39H21a.51.51,0,0,1,.5.39l.89,2.71L23.31,21a.49.49,0,0,1,.47-.35.47.47,0,0,1,.48.47.7.7,0,0,1,0,.19L23,24.81a.54.54,0,0,1-.51.4h-.1a.53.53,0,0,1-.5-.4L21,22.26l-.88,2.55a.53.53,0,0,1-.5.4h-.1a.54.54,0,0,1-.51-.4Z"/><path class="cls-1" d="M24.74,21.14a.49.49,0,1,1,1,0v3.55a.49.49,0,0,1-1,0Z"/><path class="cls-1" d="M26.52,21.17a.49.49,0,0,1,.49-.49H29.5a.45.45,0,1,1,0,.89h-2v.95h1.72a.45.45,0,1,1,0,.89H27.5v1.27a.49.49,0,0,1-1,0Z"/><path class="cls-1" d="M30.26,20.91a.55.55,0,0,1,1.08,0h0a.55.55,0,0,1-1.08,0Zm.06,1.26a.48.48,0,0,1,1,0v2.52a.48.48,0,0,1-1,0Z"/><path class="cls-1" d="M29.47,19.91a.41.41,0,0,1-.35-.63,1.9,1.9,0,0,1,3.21,0,.41.41,0,0,1-.7.44,1.08,1.08,0,0,0-1.82,0A.41.41,0,0,1,29.47,19.91Z"/><path class="cls-1" d="M32.54,18.5a.41.41,0,0,1-.33-.16,1.87,1.87,0,0,0-3,0,.41.41,0,0,1-.65-.5,2.69,2.69,0,0,1,4.27,0,.41.41,0,0,1-.07.58A.41.41,0,0,1,32.54,18.5Z"/><path class="cls-1" d="M27.89,17.19a.41.41,0,0,1-.27-.1.41.41,0,0,1,0-.58,4.17,4.17,0,0,1,6.31,0,.41.41,0,0,1-.62.54,3.35,3.35,0,0,0-5.06,0A.41.41,0,0,1,27.89,17.19Z"/></svg>