<?xml version="1.0" encoding="utf-8"?>
<!-- Generator: Adobe Illustrator 24.2.1, SVG Export Plug-In . SVG Version: 6.00 Build 0)  -->
<svg version="1.1" id="Layer_1" xmlns="http://www.w3.org/2000/svg" xmlns:xlink="http://www.w3.org/1999/xlink" x="0px" y="0px"
	 viewBox="0 0 50.5 50.5" style="enable-background:new 0 0 50.5 50.5;" xml:space="preserve">
<g>
	<path d="M45.173,30.104c-0.695-2.512-2.201-4.983-4.288-7.08c-0.038-1.026-0.177-2.045-0.42-3.052
		c-0.354-1.472-0.952-2.879-1.718-4.192c-0.36-3.082-1.808-5.908-4.131-7.927c-2.534-2.203-6.181-2.862-10.012-1.809
		c-2.315,0.636-4.366,1.833-5.909,3.331c-2.13-0.788-4.357-1.051-6.436-0.73c-2.92,0.452-5.209,1.971-6.447,4.278
		c-1.193,2.225-1.22,4.896-0.076,7.522c0.862,1.978,2.317,3.745,4.179,5.124c0.344,2.714,1.4,5.293,3.082,7.479
		c-1.976,3.718-2.57,6.465-1.835,8.591c0.502,1.467,1.597,2.52,3.177,3.048c0.522,0.173,1.056,0.259,1.593,0.259
		c0.833,0,1.673-0.206,2.486-0.616c1.732-0.858,3.372-2.707,4.762-5.339c0.721,0.102,1.444,0.164,2.164,0.164
		c1.374,0,2.737-0.191,4.057-0.55c1.872,1.172,3.878,1.975,5.844,2.302c0.164,0.027,0.328,0.051,0.497,0.073
		c0.528,0.068,1.043,0.102,1.545,0.102c2.653,0,4.902-0.937,6.438-2.707C45.55,36.271,46.064,33.333,45.173,30.104z M17.852,12.389
		c0.157-0.293,0.335-0.58,0.534-0.859c0.179-0.252,0.384-0.492,0.594-0.731c0.142-0.162,0.289-0.321,0.445-0.476
		c0.145-0.144,0.296-0.285,0.451-0.423c0.006-0.005,0.011-0.01,0.017-0.016c0.612-0.54,1.304-1.026,2.059-1.45
		c0.913-0.512,1.906-0.94,2.97-1.232c3.434-0.945,6.682-0.377,8.906,1.557c1.39,1.208,2.424,2.744,3.067,4.451
		c0.242,0.642,0.432,1.304,0.556,1.988c0.108,0.598,0.165,1.21,0.178,1.83c0.003,0.145,0.019,0.288,0.016,0.435
		c-0.046,3.067-1.262,5.87-3.255,7.499c-0.24,0.197-0.54,0.282-0.854,0.246c-0.286-0.037-0.546-0.181-0.729-0.405
		c-0.394-0.481-0.322-1.192,0.158-1.585c1.463-1.195,2.394-3.414,2.428-5.789c0.024-1.609-0.365-3.153-1.091-4.505
		c-0.096-0.178-0.199-0.352-0.307-0.523c-0.347-0.552-0.755-1.064-1.22-1.527c-0.14-0.14-0.275-0.283-0.425-0.414
		c-0.23-0.2-0.48-0.375-0.742-0.534c-1.112-0.677-2.489-0.983-3.999-0.898c-0.675,0.038-1.375,0.149-2.09,0.346
		c-0.323,0.089-0.638,0.197-0.949,0.315c-1.12,0.424-2.145,1.024-2.99,1.727c-0.176,0.146-0.343,0.297-0.502,0.451
		c-0.575,0.558-1.026,1.163-1.329,1.786c-0.089,0.182-0.18,0.364-0.241,0.549c-0.007,0.022-0.025,0.037-0.034,0.059
		c-0.219,0.547-0.824,0.844-1.389,0.657c-0.286-0.094-0.518-0.294-0.653-0.563c-0.135-0.269-0.157-0.574-0.063-0.86
		c0.001-0.002,0.002-0.004,0.003-0.006c0.062-0.187,0.155-0.368,0.235-0.552C17.686,12.753,17.756,12.569,17.852,12.389z
		 M9.79,23.932c-1.293-1.134-2.309-2.487-2.954-3.966c-0.995-2.282-0.983-4.582,0.033-6.475c1.055-1.967,3.034-3.267,5.573-3.66
		c0.523-0.081,1.058-0.12,1.599-0.12c1.115,0,2.255,0.187,3.38,0.518c-0.734,0.435-1.434,0.933-2.094,1.489
		c-0.882-0.119-1.756-0.124-2.591,0.006c-1.93,0.298-3.415,1.247-4.18,2.671c-1.123,2.095-0.481,4.79,1.398,6.996
		C9.831,22.24,9.773,23.09,9.79,23.932z M10.261,19.829c-1.099-1.639-1.413-3.44-0.648-4.866c0.583-1.084,1.756-1.813,3.305-2.053
		c0.398-0.061,0.807-0.083,1.223-0.079c-1.258,1.299-2.277,2.797-3.018,4.47C10.761,18.123,10.477,18.97,10.261,19.829z
		 M11.753,26.73c-0.059-0.256-0.102-0.515-0.147-0.775c-0.043-0.252-0.081-0.505-0.111-0.759c-0.09-0.79-0.119-1.589-0.072-2.395
		c0.014-0.235,0.047-0.471,0.073-0.706c0.027-0.247,0.036-0.493,0.077-0.739c0.003-0.015,0.002-0.03,0.005-0.046
		c0.179-1.072,0.5-2.129,0.929-3.15c2.561-0.253,5.236,0.156,7.816,1.193c-0.136,0.187-0.274,0.369-0.407,0.564
		c-1.037,1.505-1.944,3.08-2.695,4.678c-0.226,0.481-0.438,0.962-0.633,1.443c-0.125,0.307,0.021,0.656,0.328,0.782
		c0.074,0.03,0.151,0.045,0.227,0.045c0.236,0,0.46-0.142,0.555-0.374c0.189-0.461,0.392-0.923,0.609-1.385
		c0.724-1.54,1.598-3.057,2.599-4.509c0.267-0.391,0.541-0.759,0.829-1.146c1.125-1.487,2.377-2.871,3.721-4.111l0.005-0.005
		c1.301-1.19,2.652-2.208,4.016-3.025c0.284-0.17,0.376-0.539,0.206-0.823c-0.169-0.283-0.537-0.377-0.823-0.206
		c-1.332,0.798-2.649,1.784-3.923,2.92c-0.841-0.372-1.7-0.7-2.563-0.954c-0.315-0.092-0.652,0.087-0.746,0.406
		c-0.094,0.318,0.088,0.652,0.406,0.746c0.653,0.192,1.306,0.423,1.949,0.688c-0.063,0.062-0.122,0.13-0.185,0.194
		c-0.312,0.315-0.619,0.638-0.922,0.965c-0.102,0.11-0.208,0.212-0.309,0.323c-0.518,0.576-1.021,1.169-1.5,1.784
		c-2.611-1.098-5.328-1.585-7.961-1.444c0.629-1.152,1.41-2.204,2.339-3.133c0.235-0.236,0.485-0.451,0.735-0.669
		c0.031-0.027,0.06-0.056,0.091-0.083c-0.011,0.032-0.03,0.063-0.04,0.095c0,0,0,0.001,0,0.001c-0.196,0.59-0.149,1.221,0.13,1.776
		s0.758,0.968,1.349,1.164c1.216,0.401,2.536-0.263,2.938-1.479c0.553-1.67,2.735-3.372,5.19-4.046
		c2.302-0.632,4.391-0.329,5.726,0.833c1.707,1.483,2.666,3.686,2.631,6.045c-0.03,2.031-0.792,3.899-1.988,4.877
		c-0.992,0.812-1.14,2.281-0.327,3.274c0.38,0.463,0.915,0.759,1.508,0.834c0,0.001,0,0.001,0,0.001
		c0.097,0.012,0.192,0.018,0.289,0.018c0.535,0,1.062-0.185,1.477-0.526c0.473-0.387,0.898-0.842,1.29-1.333
		c0.154-0.193,0.301-0.392,0.441-0.599c0.364-0.536,0.692-1.109,0.96-1.726c0.096-0.221,0.176-0.454,0.259-0.684
		c0.238-0.66,0.42-1.351,0.543-2.067c0.09,0.288,0.194,0.573,0.265,0.866c0.104,0.431,0.183,0.865,0.245,1.3
		c0.033,0.23,0.046,0.461,0.067,0.692c0.025,0.276,0.056,0.551,0.065,0.827c0.026,0.85-0.032,1.704-0.164,2.558
		c-0.009,0.06-0.011,0.119-0.021,0.179c-0.032,0.19-0.083,0.374-0.122,0.562c-0.052,0.248-0.096,0.499-0.161,0.742
		c-0.192,0.723-0.454,1.42-0.759,2.099c-0.225-0.869-0.507-1.734-0.856-2.589c-0.091-0.223-0.185-0.443-0.284-0.664
		c-0.137-0.303-0.493-0.435-0.794-0.3c-0.302,0.137-0.437,0.492-0.3,0.794c0.094,0.207,0.182,0.414,0.267,0.624
		c0.512,1.25,0.877,2.522,1.103,3.79c-0.89,1.437-2.064,2.699-3.415,3.724c-0.526-4.391-2.74-8.717-6.212-12.039
		c-0.266-0.254-0.537-0.501-0.814-0.741c0.047-0.058,0.094-0.117,0.141-0.175c0.421-0.518,0.855-1.025,1.313-1.509
		c0.012-0.013,0.026-0.025,0.038-0.038c0.449-0.473,0.92-0.924,1.402-1.361c0.059-0.053,0.117-0.107,0.176-0.159
		c0.333,0.281,0.686,0.598,1.084,0.974c0.191,0.184,0.379,0.37,0.562,0.558c0.19,0.196,0.376,0.394,0.559,0.594
		c0.224,0.246,0.603,0.263,0.848,0.039c0.245-0.223,0.263-0.603,0.039-0.848c-0.19-0.209-0.386-0.417-0.584-0.621
		c-0.192-0.199-0.39-0.395-0.595-0.591c-0.359-0.339-0.678-0.624-0.984-0.887c0.623-0.502,1.256-0.977,1.898-1.393
		c0.278-0.18,0.357-0.552,0.177-0.83c-0.178-0.276-0.551-0.358-0.829-0.177c-0.744,0.482-1.477,1.034-2.193,1.623l-0.013-0.011
		l-0.376,0.323c-0.365,0.314-0.723,0.637-1.072,0.97c-1.047,0.999-2.018,2.082-2.897,3.231c-0.001,0.001-0.002,0.003-0.003,0.004
		l-0.347,0.453l0.009,0.008c-0.206,0.277-0.415,0.55-0.615,0.84c-2.957,4.293-4.642,9.126-4.729,13.449
		c-0.924-0.401-1.799-0.896-2.615-1.493l0.069-0.126c0.064-0.119,0.13-0.24,0.213-0.38c0.548-0.984,1.198-2.034,1.94-3.13
		c0.676-1.046,0.386-2.45-0.639-3.124c-0.49-0.336-1.087-0.461-1.68-0.341c-0.599,0.116-1.113,0.458-1.443,0.957
		c-0.721,1.063-1.33,2.062-1.747,2.76C12.859,30.045,12.145,28.432,11.753,26.73z M39.969,28.865
		c0.454,0.785,0.801,1.591,1.023,2.395c0.492,1.782,0.299,3.301-0.544,4.274c-0.843,0.973-2.317,1.376-4.154,1.145
		c-0.63-0.082-1.271-0.242-1.912-0.458c1.662-1.185,3.105-2.686,4.175-4.417C39.136,30.874,39.602,29.889,39.969,28.865z
		 M18.754,37.685c-0.781,1.326-1.606,2.251-2.352,2.623c-0.343,0.167-0.533,0.127-0.545,0.127l-0.102-0.032
		c-0.275-0.092-0.3-0.159-0.325-0.227c-0.038-0.109-0.292-1.115,0.987-3.86C17.158,36.84,17.934,37.304,18.754,37.685z
		 M17.882,43.257c-1.049,0.53-2.143,0.632-3.173,0.289c-1.218-0.407-2.03-1.18-2.413-2.297c-0.585-1.692-0.073-4.064,1.534-7.207
		c0.127-0.249,0.254-0.498,0.396-0.757c0.027-0.049,0.047-0.093,0.074-0.142l0.081-0.144c0.082-0.146,0.17-0.299,0.259-0.452
		c0.03-0.052,0.057-0.1,0.088-0.154l0.133-0.234c0.399-0.668,1.014-1.68,1.743-2.755c0.155-0.234,0.395-0.393,0.675-0.447
		c0.069-0.014,0.137-0.021,0.205-0.021c0.204,0,0.402,0.061,0.577,0.18c0.485,0.319,0.62,0.981,0.307,1.466
		c-0.754,1.114-1.423,2.194-1.978,3.191c-0.069,0.115-0.13,0.227-0.191,0.339c-0.012,0.023-0.026,0.046-0.039,0.069l-0.062,0.113
		l-0.075,0.137c-0.071,0.136-0.142,0.267-0.213,0.399c-0.054,0.102-0.108,0.206-0.163,0.307c-0.044,0.087-0.073,0.159-0.115,0.243
		c-0.032,0.065-0.058,0.123-0.088,0.187c-1.44,3-1.351,4.425-1.143,5.018c0.119,0.318,0.348,0.715,1.083,0.96l0.165,0.049
		c0.438,0.099,0.903,0.025,1.385-0.209c1-0.5,1.978-1.567,2.909-3.178c0.26,0.1,0.535,0.193,0.827,0.285
		c0.413,0.13,0.829,0.24,1.247,0.332C20.694,41.025,19.31,42.55,17.882,43.257z M29.169,37.008
		c-0.252,0.072-0.506,0.136-0.762,0.193c-0.258,0.058-0.517,0.105-0.777,0.148c-1.504,0.251-3.048,0.269-4.581,0.014
		c-0.704-0.117-1.399-0.301-2.08-0.528c-0.033-4.199,1.579-8.979,4.51-13.232c0.174-0.253,0.357-0.491,0.537-0.733
		c0.243,0.212,0.49,0.42,0.723,0.644c3.445,3.294,5.563,7.623,5.905,11.958c0,0,0,0-0.001,0c-0.202,0.124-0.407,0.242-0.614,0.355
		c-0.208,0.114-0.418,0.221-0.631,0.324C30.676,36.501,29.933,36.789,29.169,37.008z M42.819,37.589
		c-1.554,1.792-4.014,2.574-6.919,2.202c-0.152-0.021-0.305-0.042-0.457-0.067c-1.508-0.252-3.044-0.812-4.519-1.616
		c0.765-0.296,1.507-0.656,2.224-1.074c0.996,0.417,2.003,0.706,2.992,0.834c2.252,0.29,4.101-0.263,5.214-1.549
		c1.115-1.287,1.396-3.197,0.794-5.38c-0.337-1.22-0.929-2.435-1.725-3.589c0.097-0.391,0.19-0.783,0.257-1.184
		c0.079-0.475,0.131-0.95,0.166-1.425c1.52,1.745,2.623,3.703,3.17,5.681C44.797,33.253,44.372,35.798,42.819,37.589z"/>
</g>
</svg>
