<?xml version="1.0" encoding="utf-8"?>
<!-- Generator: Adobe Illustrator 25.4.1, SVG Export Plug-In . SVG Version: 6.00 Build 0)  -->
<svg version="1.1" id="Capa_2" xmlns="http://www.w3.org/2000/svg" xmlns:xlink="http://www.w3.org/1999/xlink" x="0px" y="0px"
	 viewBox="0 0 50.46 50.46" enable-background="new 0 0 50.46 50.46" xml:space="preserve">
<g>
	<path d="M28.073,32.89c-0.351,0-0.622-0.024-0.814-0.072c-0.112-0.016-0.207-0.04-0.287-0.072c-0.319-0.128-0.59-0.275-0.814-0.443
		c-0.223-0.168-0.411-0.323-0.562-0.467c-0.152-0.144-0.263-0.267-0.335-0.371c-0.072-0.104-0.108-0.164-0.108-0.18
		c-0.112-0.175-0.263-0.287-0.455-0.335c-0.192-0.048-0.375-0.024-0.551,0.072c-0.175,0.096-0.291,0.235-0.347,0.419
		c-0.056,0.184-0.036,0.363,0.06,0.539c0.016,0.032,0.092,0.144,0.227,0.335c0.136,0.192,0.343,0.419,0.622,0.682
		c0.279,0.263,0.638,0.523,1.077,0.778c0.439,0.255,0.961,0.455,1.568,0.598l-0.12,3.614l-1.46,5.984
		c-0.064,0.271-0.02,0.522,0.132,0.754c0.152,0.231,0.371,0.387,0.658,0.467c0.048,0.016,0.128,0.024,0.239,0.024
		c0.224,0,0.431-0.072,0.622-0.215c0.192-0.143,0.319-0.335,0.383-0.574l1.197-5.05c0.048-0.16,0.155-0.243,0.323-0.251
		c0.167-0.008,0.267,0.076,0.299,0.251l1.293,5.074c0.064,0.223,0.187,0.407,0.371,0.55c0.184,0.144,0.395,0.215,0.634,0.215
		c0.032,0,0.072-0.004,0.119-0.012c0.048-0.008,0.088-0.012,0.12-0.012c0.271-0.08,0.483-0.235,0.634-0.467
		c0.151-0.231,0.195-0.482,0.132-0.754l-1.005-4.045c-0.112-0.415,0.04-0.598,0.455-0.55c0.048,0,0.148,0.012,0.299,0.036
		c0.152,0.024,0.335,0.048,0.551,0.072c0.215,0.024,0.443,0.052,0.682,0.084c0.239,0.032,0.463,0.056,0.67,0.072
		c-0.016-0.495,0.008-1.356,0.072-2.585c0.032-0.606,0.092-1.28,0.18-2.022c0.088-0.742,0.211-1.456,0.371-2.142H28.073z"/>
	<path d="M41.32,41.267c-0.184-0.686-0.323-1.221-0.419-1.603c-0.128-0.447-0.215-0.774-0.263-0.981
		c-0.112-0.415-0.132-0.73-0.06-0.945c0.072-0.215,0.132-0.387,0.18-0.515c0.08-0.159,0.148-0.319,0.204-0.479
		c0.056-0.16,0.116-0.327,0.18-0.503c-0.702-0.144-1.32-0.343-1.855-0.598c-0.534-0.255-0.997-0.526-1.388-0.814
		c-0.391-0.287-0.714-0.567-0.969-0.838c-0.255-0.271-0.455-0.503-0.598-0.694c-0.128,0.59-0.232,1.225-0.311,1.903
		c-0.08,0.678-0.136,1.328-0.167,1.951c-0.032,0.622-0.052,1.185-0.06,1.687c-0.008,0.503-0.012,0.874-0.012,1.113
		c0.032,0.128,0.04,0.255,0.024,0.383l-0.885,3.638c-0.08,0.271-0.04,0.522,0.12,0.754c0.16,0.231,0.375,0.387,0.646,0.467
		c0.032,0,0.072,0.004,0.12,0.012c0.048,0.008,0.088,0.012,0.12,0.012c0.223,0,0.431-0.072,0.622-0.215
		c0.192-0.144,0.319-0.335,0.383-0.575l0.933-3.901c0.048-0.191,0.128-0.311,0.24-0.359c0.112-0.048,0.231-0.056,0.359-0.024
		c0.112,0.016,0.211,0.048,0.299,0.096c0.088,0.048,0.172,0.144,0.252,0.287l1.029,3.925c0.064,0.223,0.191,0.407,0.383,0.55
		c0.192,0.144,0.399,0.215,0.622,0.215c0.048,0,0.092-0.004,0.132-0.012c0.04-0.008,0.084-0.02,0.132-0.036
		c0.271-0.064,0.483-0.216,0.634-0.455c0.152-0.239,0.188-0.495,0.108-0.766C41.747,42.847,41.504,41.953,41.32,41.267z"/>
	<path d="M46.071,32.986c-0.287-0.367-0.534-0.622-0.742-0.766c-0.207-0.144-0.399-0.303-0.574-0.479
		c-0.08-0.096-0.144-0.255-0.192-0.479c-0.048-0.223-0.104-0.467-0.167-0.73c-0.064-0.263-0.144-0.515-0.239-0.754
		c-0.096-0.239-0.231-0.415-0.407-0.526c-0.08-0.048-0.207-0.104-0.383-0.167c-0.144-0.048-0.335-0.104-0.575-0.168
		c-0.239-0.064-0.542-0.136-0.909-0.215l-0.601-0.736c0,0-0.259-0.436-0.54-0.36c-0.281,0.076-0.338,0.768-0.338,0.768l-0.243,0.878
		l-3.064,3.135c0.048,0.08,0.172,0.243,0.371,0.491c0.2,0.247,0.479,0.514,0.838,0.802c0.359,0.287,0.806,0.571,1.34,0.85
		c0.534,0.279,1.169,0.491,1.903,0.634c0.08-0.191,0.147-0.375,0.203-0.55c0.056-0.175,0.1-0.343,0.132-0.503
		c0.287,0.064,0.599,0.128,0.933,0.191c0.287,0.048,0.618,0.1,0.993,0.156c0.375,0.056,0.77,0.1,1.185,0.132
		c0.415-0.223,0.706-0.431,0.874-0.622c0.167-0.192,0.267-0.359,0.299-0.503C46.199,33.289,46.167,33.13,46.071,32.986z"/>
	<path d="M29.641,24.801l5.084,6.775c0.117,0.157,0.298,0.239,0.479,0.239c0.126,0,0.252-0.039,0.36-0.12
		c0.265-0.198,0.318-0.574,0.119-0.84L30.6,24.08c-0.198-0.266-0.576-0.319-0.84-0.12C29.496,24.159,29.442,24.536,29.641,24.801z"
		/>
	<path d="M15.763,12.939c1.615,0,2.996-0.992,3.575-2.398c-0.204,0.079-0.432,0.106-0.681,0.028c-0.383-0.12-0.606-0.3-0.742-0.498
		C17.66,9.7,17.729,9.266,17.747,9.042L17.293,8.93l-0.805-0.199c-0.158-0.04-0.24-0.165-0.2-0.323
		c0.04-0.158,0.164-0.202,0.322-0.162l1.491,0.375l1.185,0.298l0.339,0.085c-0.036-2.105-1.748-3.803-3.862-3.803
		c-2.136,0-3.868,1.732-3.868,3.868C11.895,11.207,13.627,12.939,15.763,12.939z"/>
	<path d="M22.003,33.943c-0.04-0.251-0.128-0.491-0.262-0.707l-4.034-6.53l0.766-5.927l1.777,1.68
		c0.267,0.252,0.601,0.422,0.962,0.49l6.113,1.138c1.04,0.192,2.033-0.492,2.227-1.527c0.192-1.037-0.491-2.033-1.527-2.226
		l-5.56-1.035l-4.762-4.503c-0.116-0.109-0.252-0.189-0.39-0.266c-0.448-0.307-0.964-0.527-1.54-0.601l-2.28-0.295
		c-0.474-0.061-0.921,0.105-1.246,0.408c-0.231,0.106-0.446,0.247-0.622,0.44l-5.446,5.954c-0.239,0.261-0.401,0.583-0.467,0.932
		l-0.884,4.651c-0.197,1.035,0.483,2.035,1.519,2.231c0.121,0.023,0.24,0.034,0.358,0.034c0.898,0,1.699-0.638,1.873-1.553
		l0.783-4.119l1.65-1.804l-0.701,5.423c-0.012,0.094-0.013,0.187-0.008,0.279c0,0.004-0.002,0.007-0.002,0.011l-0.945,7.892
		l-4.797,7.948c-0.544,0.902-0.254,2.076,0.648,2.62c0.309,0.187,0.648,0.275,0.984,0.275c0.647,0,1.278-0.329,1.636-0.923
		l5.009-8.3c0.14-0.231,0.229-0.49,0.261-0.76l0.841-7.02l0.262,0.034l4.094,6.626l1.372,8.729c0.148,0.941,0.96,1.613,1.883,1.613
		c0.099,0,0.198-0.008,0.299-0.023c1.041-0.164,1.753-1.141,1.589-2.182L22.003,33.943z"/>
</g>
</svg>
