<?xml version="1.0" encoding="utf-8"?>
<!-- Generator: Adobe Illustrator 25.4.1, SVG Export Plug-In . SVG Version: 6.00 Build 0)  -->
<svg version="1.1" id="Capa_2" xmlns="http://www.w3.org/2000/svg" xmlns:xlink="http://www.w3.org/1999/xlink" x="0px" y="0px"
	 viewBox="0 0 50.46 50.46" enable-background="new 0 0 50.46 50.46" xml:space="preserve">
<g>
	<path d="M26.996,12.965c2.308,0,4.178-1.871,4.178-4.178s-1.871-4.178-4.178-4.178s-4.178,1.871-4.178,4.178
		S24.688,12.965,26.996,12.965z"/>
	<path d="M34.686,24.701c0-2.244-1.343-4.172-3.266-5.033v-1.419c0-2.353-1.908-4.261-4.261-4.261h-2.754
		c-0.146,0-0.287,0.021-0.424,0.054h-1.345c-0.441,0-0.87,0.153-1.211,0.433l-4.954,4.065c-0.395,0.324-0.644,0.793-0.69,1.303
		s0.114,1.016,0.444,1.406l3.506,4.144c0.377,0.446,0.916,0.676,1.458,0.676c0.436,0,0.874-0.148,1.232-0.451
		c0.051-0.043,0.091-0.094,0.137-0.142v1.804c0,0.034,0.008,0.067,0.01,0.1v16.563c0,1.054,0.854,1.909,1.909,1.909
		s1.909-0.855,1.909-1.909V29.457c0.277,0.163,0.57,0.301,0.875,0.414v13.099c0,1.054,0.855,1.909,1.909,1.909
		s1.909-0.855,1.909-1.909V29.871C33.183,29.093,34.686,27.075,34.686,24.701z M20.391,20.261l2.167-1.778v4.34L20.391,20.261z"/>
</g>
</svg>
