<?xml version="1.0" encoding="utf-8"?>
<!-- Generator: Adobe Illustrator 25.4.1, SVG Export Plug-In . SVG Version: 6.00 Build 0)  -->
<svg version="1.1" id="Capa_2" xmlns="http://www.w3.org/2000/svg" xmlns:xlink="http://www.w3.org/1999/xlink" x="0px" y="0px"
	 viewBox="0 0 50.46 50.46" enable-background="new 0 0 50.46 50.46" xml:space="preserve">
<g>
	<circle cx="24.76" cy="7.546" r="4.178"/>
	<path d="M28.956,25.742c-0.634,0.195-1.289,0.396-1.972,0.522c-0.164,0.03-0.329,0.046-0.493,0.046
		c-0.354,0-0.704-0.069-1.037-0.203c-0.336-0.134-0.653-0.334-0.937-0.594c-0.769-0.707-1.168-1.741-1.067-2.768
		c0.167-1.705,1.213-2.448,2.061-2.771c1.084-0.414,1.892-1.16,2.399-2.217c0.022-0.045,0.037-0.095,0.058-0.14
		c0.28-0.612,0.501-1.265,0.727-1.957l0.044-0.133c0.097-0.298,0.231-0.567,0.383-0.817c0.128-0.211,0.268-0.41,0.43-0.583
		c-0.947-0.499-2.009-0.783-3.11-0.783H23.49c-2.686,0-5.103,1.596-6.157,4.065l-1.499,3.507c-0.054,0.125-0.094,0.256-0.119,0.391
		l-1.342,7c-0.199,1.035,0.48,2.035,1.515,2.234c0.122,0.022,0.242,0.034,0.361,0.034c0.897,0,1.697-0.636,1.873-1.55l1.304-6.798
		l0.904-2.116v6.568c0,0.016-0.005,0.031-0.005,0.047v18.457c0,1.054,0.854,1.909,1.909,1.909s1.909-0.855,1.909-1.909V27.885h1.229
		v17.208c0,1.054,0.855,1.909,1.909,1.909s1.909-0.855,1.909-1.909V27.885h0.003v-2.214c-0.068,0.021-0.137,0.041-0.205,0.062
		C28.976,25.736,28.966,25.739,28.956,25.742z"/>
	<path d="M31.842,14.122c-0.542,0.007-1.023,0.21-1.408,0.552c-0.329,0.293-0.589,0.687-0.745,1.164
		c-0.156,0.478-0.321,0.956-0.498,1.427c-0.117,0.312-0.236,0.624-0.38,0.924c-0.024,0.051-0.059,0.093-0.085,0.143
		c-0.619,1.203-1.578,2.088-2.86,2.576c-0.912,0.348-1.33,1.014-1.421,1.935c-0.108,1.094,0.616,2.11,1.556,2.384
		c0.256,0.074,0.525,0.105,0.801,0.054c0.452-0.083,0.896-0.205,1.342-0.337c0.347-0.103,0.695-0.211,1.047-0.317
		c0.12-0.036,0.239-0.073,0.359-0.107c-0.507-1.278-0.513-2.453,0.382-3.479c0.885-1.015,2.032-1.238,3.37-0.9
		c0.32-1.145,0.66-2.262,0.933-3.396c0.079-0.329,0.023-0.723-0.074-1.057C33.867,14.678,32.987,14.107,31.842,14.122z"/>
	<path d="M33.428,8.145c-1.647-0.007-2.861,1.168-2.864,2.77c-0.001,0.914,0.438,1.714,1.112,2.221
		c0.46,0.346,1.026,0.559,1.649,0.562c0.164,0.001,0.322-0.019,0.477-0.043c1.332-0.211,2.311-1.317,2.32-2.727
		C36.131,9.37,34.952,8.152,33.428,8.145z"/>
	<path d="M32.709,21.042c-0.195-0.085-0.415-0.134-0.657-0.135c-1.029-0.001-1.987,0.92-2.003,1.927
		c-0.006,0.354,0.107,0.671,0.298,0.926c0.278,0.371,0.727,0.607,1.258,0.607c1.047-0.001,1.973-0.915,1.967-1.942
		C33.569,21.774,33.234,21.27,32.709,21.042z"/>
</g>
</svg>
