<?xml version="1.0" encoding="utf-8"?>
<!-- Generator: Adobe Illustrator 25.4.1, SVG Export Plug-In . SVG Version: 6.00 Build 0)  -->
<svg version="1.1" id="Capa_2" xmlns="http://www.w3.org/2000/svg" xmlns:xlink="http://www.w3.org/1999/xlink" x="0px" y="0px"
	 viewBox="0 0 50.46 50.46" enable-background="new 0 0 50.46 50.46" xml:space="preserve">
<g>
	<path d="M25.196,11.725c2.308,0,4.178-1.871,4.178-4.178s-1.871-4.178-4.178-4.178s-4.178,1.871-4.178,4.178
		S22.889,11.725,25.196,11.725z"/>
	<path d="M37.354,44.926L32.096,25.13l-0.27-1.015l3.963-2.552l0.302-0.194c0,0,0,0,0,0l0,0c0.013-0.008,0.022-0.02,0.035-0.029
		c0.238-0.162,0.437-0.369,0.579-0.612c0.15-0.255,0.24-0.545,0.258-0.849c0.037-0.607-0.218-1.195-0.686-1.584l-5.431-4.511
		c-0.343-0.285-0.774-0.44-1.22-0.44h-8.862c-0.435,0-0.856,0.148-1.195,0.42l-5.602,4.5l0,0h0c-0.159,0.128-0.284,0.284-0.392,0.45
		c-0.218,0.333-0.339,0.724-0.319,1.131c0.03,0.61,0.35,1.169,0.861,1.504l4.473,2.931l-0.27,1.017l-5.213,19.628
		c-0.142,0.534,0.176,1.082,0.709,1.224c0.086,0.022,0.172,0.033,0.257,0.033c0.442,0,0.847-0.296,0.966-0.743l5.095-19.184
		l0.256-0.962c0.125,0.025,0.25,0.038,0.375,0.038c0.621-0.001,1.23-0.302,1.597-0.861c0,0,0,0,0,0
		c0.05-0.077,0.087-0.159,0.125-0.24c0.016-0.035,0.039-0.068,0.053-0.103c0.027-0.067,0.04-0.136,0.059-0.205
		c0.014-0.052,0.035-0.103,0.044-0.156c0.133-0.732-0.171-1.506-0.832-1.939l-1.046-0.685l-2.359-1.545l0,0l0.82-0.658l1.539-1.236
		v2.244l1.594,1.045c1.31,0.858,1.691,2.597,0.891,3.927c-0.019,0.032-0.031,0.068-0.052,0.099
		c-0.549,0.838-1.461,1.295-2.395,1.309c-0.013,0-0.026,0.005-0.039,0.005v0.349c0,0.016-0.005,0.031-0.005,0.047v18.456
		c0,1.054,0.854,1.909,1.909,1.909s1.909-0.855,1.909-1.909V27.885h1.229v17.208c0,1.054,0.855,1.909,1.909,1.909
		s1.909-0.855,1.909-1.909V27.885h0.003v-1.571c-0.012,0.001-0.023,0.002-0.035,0.003c-0.072,0.005-0.143,0.016-0.216,0.016
		c-0.995,0-1.91-0.499-2.447-1.335c-0.015-0.024-0.024-0.051-0.039-0.075c-0.386-0.637-0.517-1.383-0.359-2.114
		c0.164-0.759,0.615-1.409,1.269-1.83l1.827-1.176v-2.067l1.402,1.165l0.806,0.67l-0.186,0.12l-2.023,1.302l-1.286,0.828
		c-0.887,0.571-1.143,1.752-0.571,2.638c0,0,0,0,0,0v0c0.073,0.114,0.163,0.209,0.254,0.302c0.289,0.294,0.656,0.474,1.049,0.537
		c0.101,0.016,0.201,0.037,0.304,0.037c0.084,0,0.167-0.024,0.251-0.036c0.141-0.019,0.279-0.051,0.416-0.103l0.26,0.979
		l5.117,19.265c0.119,0.447,0.523,0.743,0.966,0.743c0.085,0,0.172-0.011,0.258-0.033C37.177,46.008,37.495,45.46,37.354,44.926z"/>
</g>
</svg>
