<?xml version="1.0" encoding="utf-8"?>
<!-- Generator: Adobe Illustrator 26.5.1, SVG Export Plug-In . SVG Version: 6.00 Build 0)  -->
<svg version="1.1" id="Layer_1" xmlns="http://www.w3.org/2000/svg" xmlns:xlink="http://www.w3.org/1999/xlink" x="0px" y="0px"
	 viewBox="0 0 50.5 50.5" style="enable-background:new 0 0 50.5 50.5;" xml:space="preserve">
<g>
	<path d="M40.899,42.054c-0.552-2.712-3.392-9.348-8.651-12.551c-0.243-0.147-0.547-0.155-0.798-0.02
		c-1.896,1.028-4.045,1.582-6.192,1.601c-2.138-0.043-4.258-0.587-6.139-1.575c-0.251-0.171-0.59-0.191-0.867-0.022
		c-5.261,3.203-8.101,9.839-8.652,12.551c-0.066,0.328,0.079,0.663,0.364,0.84c4.531,2.799,9.749,4.328,15.103,4.426
		c0.057,0.013,0.115,0.02,0.175,0.02c0.003,0,0.006,0,0.01,0c5.417-0.066,10.703-1.598,15.285-4.429
		C40.821,42.717,40.966,42.382,40.899,42.054z M25.407,45.72c-0.045-0.009-0.092-0.014-0.139-0.014
		c-4.934-0.061-9.751-1.404-13.971-3.894c0.712-2.663,3.153-7.915,7.408-10.719c2.016,0.996,4.262,1.545,6.544,1.59
		c2.272-0.02,4.525-0.562,6.544-1.574c4.256,2.803,6.697,8.057,7.409,10.721C35.033,44.288,30.28,45.63,25.407,45.72z"/>
	<path d="M14.238,19.427c0.116,2.761,1.276,5.315,3.319,7.23c2.04,1.918,4.717,2.974,7.538,2.974c2.809,0,5.478-1.049,7.516-2.952
		c2.076-1.935,3.282-4.64,3.351-7.453c0.92-2.07,2.14-5.944,0.315-8.64c-1.487-1.818-4.003-2.422-6.153-1.477
		c-1.336-2.254-3.5-3.895-6.03-4.574c-2.688-0.387-5.407,0.456-7.404,2.297c-4.984,3.938-3.159,10.583-2.461,12.593L14.238,19.427z
		 M31.52,25.508c-1.741,1.626-4.022,2.522-6.424,2.522c-2.412,0-4.7-0.902-6.443-2.541c-1.637-1.533-2.609-3.548-2.798-5.736
		c5.067-1.146,10.236-3.954,13.512-7.979c0.9,2.55,2.583,5.811,4.998,6.966c0.002,0.078,0.012,0.155,0.012,0.234
		C34.376,21.471,33.361,23.791,31.52,25.508z"/>
</g>
</svg>
