<?xml version="1.0" encoding="utf-8"?>
<!-- Generator: Adobe Illustrator 26.5.1, SVG Export Plug-In . SVG Version: 6.00 Build 0)  -->
<svg version="1.1" id="Layer_1" xmlns="http://www.w3.org/2000/svg" xmlns:xlink="http://www.w3.org/1999/xlink" x="0px" y="0px"
	 viewBox="0 0 50.5 50.5" style="enable-background:new 0 0 50.5 50.5;" xml:space="preserve">
<g>
	<path d="M40.899,42.054c-0.552-2.712-3.392-9.348-8.651-12.551c-0.243-0.147-0.547-0.155-0.798-0.02
		c-1.896,1.028-4.045,1.582-6.192,1.601c-2.138-0.043-4.258-0.587-6.139-1.575c-0.251-0.171-0.59-0.191-0.867-0.022
		c-5.261,3.203-8.101,9.839-8.652,12.551c-0.066,0.328,0.079,0.663,0.364,0.84c4.531,2.799,9.749,4.328,15.103,4.426
		c0.057,0.013,0.115,0.02,0.175,0.02c0.003,0,0.006,0,0.01,0c5.417-0.066,10.703-1.598,15.285-4.429
		C40.821,42.717,40.966,42.382,40.899,42.054z M25.407,45.72c-0.045-0.009-0.092-0.014-0.139-0.014
		c-4.934-0.061-9.751-1.404-13.971-3.894c0.712-2.663,3.153-7.915,7.408-10.719c2.016,0.996,4.262,1.545,6.544,1.59
		c2.272-0.02,4.525-0.562,6.544-1.574c4.256,2.803,6.697,8.057,7.409,10.721C35.033,44.288,30.28,45.63,25.407,45.72z"/>
	<path d="M25.095,29.63c2.009,0,3.941-0.545,5.627-1.546l8.615-0.173c-2.091-3.706-3.108-7.921-2.937-12.173
		c0.174-9.71-7.61-12.363-11.826-11.652c-1.59,0.218-3.097,0.843-4.373,1.816c-3.158-0.11-6.505,2.353-6.315,9.805
		c0.149,4.271-0.901,8.499-3.031,12.205l8.559,0.141C21.111,29.075,23.064,29.63,25.095,29.63z M21.227,27.196
		c-2.681-1.389-4.522-4.175-4.531-7.403c-0.009-3.317,1.942-6.326,4.973-7.671h0.016c2.855,3.847,7.044,6.489,11.747,7.405
		c0,0,0,0.142,0,0.221c0.008,3.004-1.523,5.688-3.896,7.171l0,0c-1.351,0.721-2.868,1.112-4.441,1.112
		C23.74,28.03,22.429,27.736,21.227,27.196z"/>
</g>
</svg>
