<?xml version="1.0" encoding="utf-8"?>
<!-- Generator: Adobe Illustrator 22.1.0, SVG Export Plug-In . SVG Version: 6.00 Build 0)  -->
<svg version="1.1" id="Layer_1" xmlns="http://www.w3.org/2000/svg" xmlns:xlink="http://www.w3.org/1999/xlink" x="0px" y="0px"
	 viewBox="0 0 50.5 50.5" style="enable-background:new 0 0 50.5 50.5;" xml:space="preserve">
<style type="text/css">
	.st0{fill:#12B5E1;}
</style>
<title>pesos</title>
<g>
	<path class="st0" d="M26.6,23.4v-7.4c1.3,0.3,2.6,0.9,4,1.7c0.4,0.2,0.8,0.3,1.2,0.3c1.2,0,2.2-0.9,2.2-2.1c0-0.9-0.5-1.5-1.2-1.9
		c-1.8-1.1-3.7-1.9-6-2.1V9c0-0.9-0.7-1.7-1.7-1.7c-0.9,0-1.7,0.7-1.7,1.7v2.8c-4.8,0.4-8.1,3.3-8.1,7.4c0,4.4,2.6,6.5,8.3,8v7.6
		c-2.1-0.4-3.9-1.3-5.7-2.6c-0.4-0.3-0.8-0.4-1.3-0.4c-1.2,0-2.1,0.9-2.1,2.1c0,0.8,0.4,1.4,1,1.9c2.4,1.7,5,2.7,7.9,3v2.4
		c0,0.9,0.8,1.7,1.7,1.7c0.9,0,1.7-0.7,1.7-1.7v-2.3c4.9-0.5,8.3-3.3,8.3-7.6C35,27.2,32.5,24.8,26.6,23.4z M23.5,22.6
		c-3-1-3.7-2-3.7-3.6c0-1.7,1.2-3,3.7-3.3V22.6z M26.6,35v-7.1c3,0.9,3.8,2,3.8,3.7C30.4,33.5,29.1,34.7,26.6,35z"/>
	<path class="st0" d="M10.2,19.2H9.7v-0.5c0-0.4-0.3-0.6-0.6-0.6s-0.6,0.3-0.6,0.6v0.5H7.9c-0.4,0-0.6,0.3-0.6,0.6
		c0,0.4,0.3,0.6,0.6,0.6h0.5v0.5c0,0.4,0.3,0.6,0.6,0.6s0.6-0.3,0.6-0.6v-0.5h0.5c0.4,0,0.6-0.3,0.6-0.6
		C10.8,19.5,10.5,19.2,10.2,19.2z"/>
	<path class="st0" d="M40.6,9.3h-0.5V8.8c0-0.4-0.3-0.6-0.6-0.6c-0.4,0-0.6,0.3-0.6,0.6v0.5h-0.5c-0.4,0-0.6,0.3-0.6,0.6
		s0.3,0.6,0.6,0.6h0.5V11c0,0.4,0.3,0.6,0.6,0.6c0.4,0,0.6-0.3,0.6-0.6v-0.5h0.5c0.4,0,0.6-0.3,0.6-0.6S41,9.3,40.6,9.3z"/>
	<path class="st0" d="M11.5,7.8c-0.4,0-0.7,0.3-0.7,0.7c0,0.4,0.3,0.7,0.7,0.7c0.4,0,0.7-0.3,0.7-0.7C12.3,8.1,11.9,7.8,11.5,7.8z"
		/>
	<circle class="st0" cx="38.8" cy="29.7" r="0.7"/>
</g>
</svg>
