<svg id="Layer_1" data-name="Layer 1" xmlns="http://www.w3.org/2000/svg" viewBox="0 0 50.46 50.46"><defs><style>.cls-1{fill:#65b4e1;}</style></defs><title>petroleo</title><path class="cls-1" d="M46.31,39.78H39.64V30.39a1.36,1.36,0,0,0,0-2.63V21.84h.61a.37.37,0,0,0,.37-.37c0-.11,0-.25,0-.42a14.62,14.62,0,0,0-1-6.42C36.89,8.26,33.17,7.52,33,7.49a.37.37,0,0,0-.42.28l-1.17,4.9L10.63,22.26a.37.37,0,0,0-.21.34V31H7.89a.37.37,0,0,0-.37.37v8.4H4.15a.37.37,0,0,0-.37.37V42.6a.37.37,0,0,0,.37.37H46.31a.37.37,0,0,0,.37-.37V40.15A.37.37,0,0,0,46.31,39.78ZM21,39.78l3.6-4.64,3.6,4.64Zm4.4-5.67,1.93-2.49c.7,3,1.3,5.53,1.68,7.14Zm-.79-1L22.94,31l1.66-2.15L26.27,31Zm.79-5.32.78-1,.7,2.93Zm-.79-1-1.2-1.56,1.2-5,1.2,5Zm-1.57,0,.78,1-1.48,1.92Zm-1.15,4.86,1.93,2.49L20.2,38.77C20.57,37.15,21.18,34.59,21.88,31.62Zm18-2.55a.64.64,0,1,1-.63-.64A.64.64,0,0,1,39.91,29.08Zm-1-1.32a1.36,1.36,0,0,0,0,2.63v9.39h-8.4c-.33-1.58-1.41-6.21-4.77-20.26l7.78-3.67,4.66,5.85a.37.37,0,0,0,.29.14h.44ZM11.15,26.4l12-5.67C20.05,33.84,19,38.24,18.7,39.78H14v-8.4a.37.37,0,0,0-.37-.37H11.15Z"/></svg>