<svg id="Layer_1" data-name="Layer 1" xmlns="http://www.w3.org/2000/svg" viewBox="0 0 50.46 50.46"><defs><style>.cls-1{fill:#12b5e1;}</style></defs><title>piloto</title><path class="cls-1" d="M30,27.19l-.06,0a1,1,0,0,0-1,.1,7,7,0,0,1-3.78,1.19,7.3,7.3,0,0,1-3.84-1.23,1,1,0,0,0-1,0C14.79,30,12.46,37.44,13,38.91a.94.94,0,0,0,.34.45,22.77,22.77,0,0,0,11.93,3.82,21.39,21.39,0,0,0,12-3.85,1,1,0,0,0,.32-.46C38,37.44,35.66,30,30,27.19ZM29.62,29a9.23,9.23,0,0,1,1.49,1l-2.25,2.81-2.23-2.72A9.06,9.06,0,0,0,29.62,29Zm-2.57,3.64-1.79,2.17a.32.32,0,0,0,0,.09s0-.06,0-.09L23.4,32.65l1.83-2.23ZM20.83,29a9.55,9.55,0,0,0,3,1.11l-2.24,2.73-2.24-2.8A9.6,9.6,0,0,1,20.83,29Zm-6.15,9.1a15.21,15.21,0,0,1,3.75-7.18l2.66,3.32a.78.78,0,0,0,.49.24.65.65,0,0,0,.49-.23l.51-.62,1.35,1.63-3.31,5.41A19,19,0,0,1,14.68,38.12Zm10.55,3.25A17.51,17.51,0,0,1,21.92,41l3.31-5.41L28.55,41A18.25,18.25,0,0,1,25.23,41.37Zm4.63-.63-3.34-5.46,1.35-1.63.51.62a.65.65,0,0,0,.49.23h0a.63.63,0,0,0,.49-.24L32,30.93a15.39,15.39,0,0,1,3.75,7.19A18.48,18.48,0,0,1,29.86,40.74Z"/><path class="cls-1" d="M17.18,14.73c.82.26.78,3.2.78,3.39,0,4,3.24,8.84,7.27,8.84s7.26-4.84,7.26-8.84c0-.2,0-1.28,0-1.65,0-1.49.47-1.62.72-1.72a1.5,1.5,0,0,0,1-1.46c0-3.37-4-6-9-6s-9,2.64-9,6A1.42,1.42,0,0,0,17.18,14.73Zm8.05,10.73c-2.74,0-5.13-3.14-5.66-6.14A10.08,10.08,0,0,0,25.23,21a10,10,0,0,0,5.65-1.64C30.33,22.35,28,25.46,25.23,25.46Zm-5.5-8.39H30.64C30,18,28,19.19,25.23,19.19S20.44,18,19.73,17.07Zm5.5-8c3.81,0,7.06,1.83,7.23,4-.85.39-1.44,1.05-1.55,2.75H19.41c-.1-1.69-.6-2.36-1.41-2.75C18.15,10.91,21.4,9.08,25.23,9.08Z"/></svg>