<svg id="Layer_1" data-name="Layer 1" xmlns="http://www.w3.org/2000/svg" viewBox="0 0 50.46 50.46"><defs><style>.cls-1{fill:#65b4e1;}</style></defs><title>plancha</title><g id="Capa_3" data-name="Capa 3"><path class="cls-1" d="M40.94,37H2.64a1,1,0,0,0-1,1,1,1,0,0,0,1,1h38.3a1,1,0,0,0,1-1A1,1,0,0,0,40.94,37Z"/><path class="cls-1" d="M30.87,21.17H24.5c-5.55,0-9.25,5.81-9.38,6.07a1,1,0,0,0,0,1,1,1,0,0,0,.86.52H33.75a1,1,0,0,0,.69-.3,1.09,1.09,0,0,0,.26-.73C34.65,27,34.27,21.17,30.87,21.17Zm-13,5.64c1.33-1.51,3.7-3.66,6.63-3.66h6.37c.95,0,1.55,2,1.81,3.66Z"/><path class="cls-1" d="M47.95,11.44a.94.94,0,0,0-1.08.82c-.52,3.83-1.81,4.17-3.79,4.65A7.11,7.11,0,0,0,38.27,20c-1.08-1.85-2.45-3.14-4.22-3.14h-13A13.14,13.14,0,0,0,14,19L12,17.86a.87.87,0,0,0-.73-.09,1,1,0,0,0-.6.43L8.7,21.6A1,1,0,0,0,9,22.93l.26.13A45.89,45.89,0,0,0,1.78,34.72a1,1,0,0,0,.09.9,1,1,0,0,0,.82.43H41a1.22,1.22,0,0,0,.73-.3A1.17,1.17,0,0,0,42,35c-.13-1.85-.77-8.26-2.67-12.91a5.29,5.29,0,0,1,4.26-3.31c2.11-.56,4.52-1.16,5.25-6.28A1,1,0,0,0,47.95,11.44Zm-36.1,8.61.43.26c-.39.3-.77.65-1.16,1ZM4.19,34.17c2-4,8.48-15.36,16.91-15.36h13c3,0,5.16,8.65,5.85,15.36Z"/></g></svg>