<?xml version="1.0" encoding="utf-8"?>
<!-- Generator: Adobe Illustrator 22.1.0, SVG Export Plug-In . SVG Version: 6.00 Build 0)  -->
<svg version="1.1" id="Layer_1" xmlns="http://www.w3.org/2000/svg" xmlns:xlink="http://www.w3.org/1999/xlink" x="0px" y="0px"
	 viewBox="0 0 50.5 50.5" style="enable-background:new 0 0 50.5 50.5;" xml:space="preserve">
<style type="text/css">
	.st0{fill:#12B5E1;}
</style>
<title>declaración jurada declaracion-jurada-rectificativa</title>
<g>
	<g>
		<path class="st0" d="M16.4,21.4h-4.2c-0.6,0-1-0.4-1-1v-4.2c0-0.6,0.4-1,1-1h4.2c0.6,0,1,0.4,1,1v4.2C17.4,20.9,17,21.4,16.4,21.4
			z"/>
		<path class="st0" d="M32,29.8H12.2c-0.6,0-1-0.4-1-1v-4.2c0-0.6,0.4-1,1-1H32c0.6,0,1,0.4,1,1v4.2C33,29.3,32.5,29.8,32,29.8z"/>
		<path class="st0" d="M32,38.3H12.2c-0.6,0-1-0.4-1-1V33c0-0.6,0.4-1,1-1H32c0.6,0,1,0.4,1,1v4.2C33,37.8,32.5,38.3,32,38.3z"/>
	</g>
	<path class="st0" d="M38,16.4l-6.7-7.2l0,0H10.6c-2.3,0-4.1,1.8-4.1,4.1l0,0V43c0,2.3,1.8,4.1,4.1,4.1H34c2.3,0,4.1-1.8,4.1-4.1
		L38,16.4L38,16.4z M35.1,16.1H32v-3.5L35.1,16.1z M36.4,43c0,1.3-1.1,2.4-2.4,2.4c0,0,0,0,0,0H10.6c-1.3,0-2.4-1.1-2.4-2.4V13.3
		c0-1.3,1.1-2.4,2.4-2.4c0,0,0,0,0,0h19.5V17c0,0.5,0.4,1,0.9,1c0,0,3.1,0,5.4,0L36.4,43z"/>
	<path class="st0" d="M43.8,10.6L43.8,10.6l-6.7-7.2l0,0H16.4c-2.3,0-4.1,1.8-4.1,4.1v0.8H14V7.4C14,6.1,15,5,16.4,5c0,0,0,0,0,0
		h19.5v6.2c0,0.5,0.4,1,0.9,1l0,0c0.4,0,3,0,5.3,0v25c0,1.3-1.1,2.4-2.4,2.4l0,0h-0.6v1.7h0.6c2.3,0.1,4.2-1.7,4.2-4
		c0-0.1,0-0.1,0-0.2L43.8,10.6z M37.8,10.2V6.8l3.1,3.5C39.6,10.2,38.3,10.2,37.8,10.2L37.8,10.2z"/>
</g>
</svg>
