<svg id="Layer_1" data-name="Layer 1" xmlns="http://www.w3.org/2000/svg" viewBox="0 0 50.46 50.46"><defs><style>.cls-1{fill:#65b4e1;}</style></defs><title>planta exotica</title><path class="cls-1" d="M8.64,29.31l-.32-1C8.42,28.64,8.53,29,8.64,29.31Z"/><path class="cls-1" d="M28.44,10.88C23,2.69,7.51,4.62,7.51,22c0,.27,0,.52,0,.78a19,19,0,0,1,8-3.8c4.82-.83,5,1.91,1,2.95s-9.72,1.88-7.89,7.36c1.69,4.84,4.57,6.64,3.45,11.44,4.47-3,8.94-14.81,7.77-14.72-4.17.34-7.3,7.19-7.3,7.19,0-.19-1-5.91,6.47-8.27,1.84-.58,2-3.79,2.46-5,.84-2.42-.94-4.05-4.92-3.53C12,17,9.83,18.78,9.8,18.8s2-2.93,6.9-3.09c1.58-.05,3.16,0,4.73-.13.86-.05,2.28-.66,2.46-1.85A4.13,4.13,0,0,0,21.77,10c-2.58-1.57-8.44-.21-8.44-.21,3.43-1.29,7.08-1.55,8.92-.49a7,7,0,0,1,2.2,1.92c.67.92.66,2.24,2,2.34A11.19,11.19,0,0,0,29.21,13a9.7,9.7,0,0,1,4.51.08c4.89,1.47,5.1,6.37,5.1,8.76,0,0-.25-6.39-5.35-7.57a9.13,9.13,0,0,0-5,.34c-2,.73-1.93,2.7-.61,4.16.93,1,2.12,1.88,3.11,2.85a14.52,14.52,0,0,1,3.84,5.49,9.24,9.24,0,0,1,.49,2.43c0,.59-.11,1.24,0,1.82-.06-.47-.16-1-.26-1.43a17.85,17.85,0,0,0-6.09-9c-1.25-1-4.8-4.27-5.74-.72-.4,1.51-.67,2.91.09,4.33a16.1,16.1,0,0,0,3,3.45c1.9,1.92,3.53,4.09,2.3,6.88a9.93,9.93,0,0,1-2.11,3c2-3,1.13-6.93-.83-9.42-.75-1-3.92-3.42-4.62-.55-.19.77-2.13,11.22-8.9,12.82a46.44,46.44,0,0,0,7.48-.2c1.24-.49,2.61-1.86,2.41-5.68-.37-6.8,3.11-5.52,2.91-.91-.15,3.42-1.28,5.25-2.52,6.23a39.92,39.92,0,0,0,5.37-1.25c1.35-.84,6.14-4.48,1.88-10.13-1.65-2.18-1.54-2.83-1.2-3.2.69-.74,2-.09,3.07,1.46a9.27,9.27,0,0,1,.71,10.1,19,19,0,0,0,9.64-10C45.46,18.12,40,8.08,28.44,10.88Zm-12.72.57c2.25,0,4.07.69,4.07,1.54S18,14.52,15.72,14.52s-4.07-.69-4.07-1.54S13.47,11.45,15.72,11.45ZM35.85,21.67c-.42.39-1.72-.06-3-1.46S30.75,17.35,31.17,17s2,.18,3.28,1.58S36.27,21.27,35.85,21.67Z"/><polygon class="cls-1" points="8.64 29.32 8.64 29.31 8.64 29.31 8.64 29.32"/></svg>