<?xml version="1.0" encoding="utf-8"?>
<!-- Generator: Adobe Illustrator 25.4.1, SVG Export Plug-In . SVG Version: 6.00 Build 0)  -->
<svg version="1.1" id="Capa_2" xmlns="http://www.w3.org/2000/svg" xmlns:xlink="http://www.w3.org/1999/xlink" x="0px" y="0px"
	 viewBox="0 0 50.46 50.46" enable-background="new 0 0 50.46 50.46" xml:space="preserve">
<path d="M46.139,16.009H4.321c-0.61,0-1.105,0.495-1.105,1.105v16.232c0,0.61,0.495,1.105,1.105,1.105h41.818
	c0.61,0,1.105-0.495,1.105-1.105V17.114C47.244,16.504,46.749,16.009,46.139,16.009z M34.556,22.243h6.675
	c0.331,0,0.6,0.269,0.6,0.6s-0.269,0.6-0.6,0.6h-6.675c-0.331,0-0.6-0.269-0.6-0.6S34.225,22.243,34.556,22.243z M34.556,24.76
	h5.395c0.331,0,0.6,0.269,0.6,0.6s-0.269,0.6-0.6,0.6h-5.395c-0.331,0-0.6-0.269-0.6-0.6S34.225,24.76,34.556,24.76z M12.346,23.501
	h3.877c0.332,0,0.6,0.269,0.6,0.6s-0.269,0.6-0.6,0.6h-3.877c-0.332,0-0.6-0.269-0.6-0.6S12.014,23.501,12.346,23.501z M9.86,27.977
	c0,0.713-0.862,1.07-1.366,0.566l-2.747-2.747c-0.312-0.312-0.312-0.819,0-1.131l2.747-2.747c0.504-0.504,1.366-0.147,1.366,0.566
	V27.977z M17.74,27.217h-5.394c-0.332,0-0.6-0.269-0.6-0.6s0.269-0.6,0.6-0.6h5.394c0.332,0,0.6,0.269,0.6,0.6
	S18.071,27.217,17.74,27.217z M32.355,28.037c0,0.392-0.318,0.71-0.71,0.71h-8.295c-0.392,0-0.71-0.318-0.71-0.71v-5.613
	c0-0.392,0.318-0.71,0.71-0.71h8.295c0.392,0,0.71,0.318,0.71,0.71V28.037z M44.038,28.476h-9.481c-0.331,0-0.6-0.269-0.6-0.6
	s0.269-0.6,0.6-0.6h9.481c0.331,0,0.6,0.269,0.6,0.6S44.369,28.476,44.038,28.476z"/>
</svg>
