<?xml version="1.0" encoding="utf-8"?>
<!-- Generator: Adobe Illustrator 25.4.1, SVG Export Plug-In . SVG Version: 6.00 Build 0)  -->
<svg version="1.1" id="Capa_1" xmlns="http://www.w3.org/2000/svg" xmlns:xlink="http://www.w3.org/1999/xlink" x="0px" y="0px"
	 viewBox="0 0 50.46 50.46" enable-background="new 0 0 50.46 50.46" xml:space="preserve">
<g>
	<path d="M22.699,20.699c0-1.083-0.164-1.914-0.497-2.493c-0.334-0.667-0.831-1.083-1.498-1.334
		c-0.661-0.246-1.492-0.416-2.493-0.416c-0.579,0-1.077,0-1.662,0.088c-0.579,0.082-1.077,0.164-1.575,0.328v1.914
		c0.498-0.164,0.995-0.252,1.493-0.333c0.497-0.082,0.913-0.082,1.329-0.082c0.585,0,1.083,0.082,1.416,0.164
		c0.415,0.17,0.661,0.334,0.831,0.667c0.164,0.333,0.246,0.749,0.246,1.247v0.385l-1.908,0.195c-1.498,0.169-2.493,0.503-3.16,1.001
		c-0.661,0.58-0.995,1.329-0.995,2.242s0.246,1.662,0.831,2.16c0.579,0.585,1.411,0.831,2.411,0.831c0.58,0,1.159-0.082,1.662-0.328
		c0.497-0.17,0.913-0.503,1.247-0.919h0.082l0.164,1.083h2.078V20.699z M19.375,25.182c-0.333,0.088-0.661,0.169-0.995,0.169
		c-0.497,0-0.913-0.082-1.165-0.333c-0.252-0.164-0.416-0.58-0.416-0.995c0-0.503,0.164-0.831,0.416-1.083s0.749-0.416,1.411-0.497
		l1.662-0.173v2.251C20.042,24.854,19.709,25.018,19.375,25.182z"/>
	<path d="M26.762,20.196c0.251-0.246,0.497-0.497,0.749-0.661c0.246-0.169,0.579-0.333,0.913-0.416
		c0.252-0.082,0.579-0.169,0.913-0.169h0.497c0.169,0,0.333,0.088,0.503,0.088V16.79c-0.17-0.082-0.252-0.082-0.416-0.082h-0.416
		c-0.585,0-1.165,0.082-1.662,0.334c-0.503,0.164-0.919,0.579-1.247,1.077H26.51l-0.164-1.328h-2.078v10.306v0.164h2.493V20.196z"/>
	<path d="M44.498,37.484l-8.31-8.31c0.58-1.083,0.995-2.16,1.247-3.324c0-0.056,0.025-0.113,0.082-0.164
		c0.082-0.252,0.082-0.416,0.164-0.667c0-0.082,0.082-0.252,0.082-0.334c0-0.164,0.088-0.415,0.088-0.579
		c0-0.17,0.082-0.334,0.082-0.497c0-0.17,0-0.334,0.082-0.503V22.11c0-3.406-1.083-6.648-3.073-9.305v-0.088
		c-0.17-0.164-0.252-0.328-0.416-0.497c-2.909-3.488-7.233-5.735-12.05-5.735c-8.726-0.164-15.79,6.9-15.79,15.462
		c0,8.556,6.976,15.62,15.62,15.62c3.242,0,6.151-0.995,8.644-2.657l7.977,7.977c0.749,0.749,1.662,1.165,2.745,1.165
		c0.995,0,1.996-0.416,2.739-1.165c0.749-0.749,1.165-1.662,1.165-2.745C45.575,39.146,45.241,38.233,44.498,37.484z M43.497,41.972
		c-0.913,0.913-2.493,0.913-3.406,0l-9.059-9.059c-2.324,1.914-5.32,2.991-8.556,2.991c-7.813-0.082-13.964-6.315-13.964-13.958
		c0-7.649,6.151-13.799,13.794-13.799c7.649,0,13.794,6.233,13.794,13.799c0,2.657-0.743,5.068-1.99,7.228l1.329,1.328l8.059,8.064
		C44.41,39.479,44.41,41.059,43.497,41.972z"/>
	<path d="M34.326,21.02c-0.018-0.331-0.26-0.591-0.63-0.569c-0.33,0.016-0.585,0.298-0.569,0.629
		c0.01,0.187,0.015,0.374,0.015,0.562c0,6.192-5.037,11.229-11.229,11.229c-0.321,0-0.638-0.014-0.953-0.039
		c-0.333-0.046-0.62,0.217-0.647,0.548s0.218,0.62,0.549,0.647c0.347,0.029,0.697,0.043,1.051,0.043
		c6.853,0,12.428-5.575,12.428-12.428C34.341,21.434,34.336,21.226,34.326,21.02z"/>
</g>
</svg>
