<svg id="Layer_1" data-name="Layer 1" xmlns="http://www.w3.org/2000/svg" viewBox="0 0 50.46 50.46"><defs><style>.cls-1{fill:#12b5e1;}</style></defs><title>plataforma offshore</title><path class="cls-1" d="M9.93,27.77a.9.9,0,0,0,.9-.9V23.41l13.67,0v3.45a.9.9,0,0,0,1.8,0V23.39H40v3.45a.9.9,0,1,0,1.79,0V22.49a.9.9,0,0,0-.9-.9h-3L35.44,7h0a.85.85,0,0,0,.84-.84V3.63a.84.84,0,0,0-.84-.84H30.35a.84.84,0,0,0-.84.84V6.19a.85.85,0,0,0,.84.84h0L28,21.59l-18,0a.9.9,0,0,0-.9.9v4.35A.9.9,0,0,0,9.93,27.77ZM31.67,9.63l.64.8-1,1.22Zm2,7.86,1.53-1.69.69,4.14Zm2.19,4.1H30l3-3.27Zm-2.94-4.94-2-2.16h3.92Zm1.59-5-1-1.22.65-.8Zm.18,1.71H31.15l1.76-2.18Zm-4,2.45,1.51,1.68L30,19.92ZM31.2,4.47h3.43v.88H31.2ZM33.73,7,34,8.39l-1,1.3-1-1.29L32.1,7Z"/><path class="cls-1" d="M47,39.31a7.07,7.07,0,0,0-1.8-.53,4.41,4.41,0,0,0-2.88,1l-.13.09-.23.16a1.72,1.72,0,0,1-1.16.47A2.13,2.13,0,0,1,39.34,40,6.3,6.3,0,0,0,32,40a2.16,2.16,0,0,1-2.88,0,6.32,6.32,0,0,0-7.38,0,2.11,2.11,0,0,1-1.44.55h0a2.63,2.63,0,0,1-1.41-.58,6.39,6.39,0,0,0-3.73-1.16A6,6,0,0,0,11.41,40,2.1,2.1,0,0,1,10,40.5,2.13,2.13,0,0,1,8.53,40l-.32-.24a3.87,3.87,0,0,0-2.82-.93,4.09,4.09,0,0,0-1.91.57.83.83,0,1,0,.75,1.48,2.72,2.72,0,0,1,1.16-.38A2.31,2.31,0,0,1,7.18,41a3.82,3.82,0,0,0,.42.31,3.78,3.78,0,0,0,4.75,0,4.31,4.31,0,0,1,2.75-.91,4.84,4.84,0,0,1,2.85.92,4.08,4.08,0,0,0,2.29.83h0a3.7,3.7,0,0,0,2.38-.84,4.31,4.31,0,0,1,2.75-.91,4.27,4.27,0,0,1,2.75.91,3.78,3.78,0,0,0,4.75,0,4.63,4.63,0,0,1,5.51,0,3.67,3.67,0,0,0,2.37.84,3.35,3.35,0,0,0,2.12-.77l.21-.15.14-.09a2.85,2.85,0,0,1,1.82-.72,6.34,6.34,0,0,1,1.17.37.84.84,0,0,0,.74-1.5Z"/><path class="cls-1" d="M47,44.82a6.68,6.68,0,0,0-1.8-.53,4.31,4.31,0,0,0-2.88,1l-.13.09-.23.16a1.72,1.72,0,0,1-1.16.47,2.13,2.13,0,0,1-1.44-.55,6.26,6.26,0,0,0-7.37,0,2.16,2.16,0,0,1-2.88,0,5.85,5.85,0,0,0-3.69-1.2,5.87,5.87,0,0,0-3.69,1.2,2.11,2.11,0,0,1-1.44.55h0a2.63,2.63,0,0,1-1.41-.58,6.38,6.38,0,0,0-3.73-1.17,5.89,5.89,0,0,0-3.69,1.2A2.1,2.1,0,0,1,10,46a2.13,2.13,0,0,1-1.44-.55l-.32-.24a3.87,3.87,0,0,0-2.82-.93,4.2,4.2,0,0,0-1.91.56A.85.85,0,0,0,3.11,46a.83.83,0,0,0,1.12.36A2.63,2.63,0,0,1,5.39,46a2.27,2.27,0,0,1,1.79.58l.42.31a3.81,3.81,0,0,0,4.75,0,4.26,4.26,0,0,1,2.75-.91,4.84,4.84,0,0,1,2.85.92,4.15,4.15,0,0,0,2.29.82h0a3.75,3.75,0,0,0,2.38-.83,4.26,4.26,0,0,1,2.75-.91,4.21,4.21,0,0,1,2.75.91,3.81,3.81,0,0,0,4.75,0,4.63,4.63,0,0,1,5.51,0,3.72,3.72,0,0,0,2.37.83,3.35,3.35,0,0,0,2.12-.76l.21-.15.14-.09A2.79,2.79,0,0,1,45.07,46a6.31,6.31,0,0,1,1.17.36A.83.83,0,0,0,47,44.82Z"/><path class="cls-1" d="M44.51,29.45H5.92a.9.9,0,0,0,0,1.8H9v6.52a.9.9,0,1,0,1.8,0V31.25H24.5v4.53a.9.9,0,0,0,1.8,0V31.25H40v6.52a.9.9,0,1,0,1.79,0V31.25h2.74a.9.9,0,0,0,0-1.8Z"/></svg>