<svg id="Layer_1" data-name="Layer 1" xmlns="http://www.w3.org/2000/svg" viewBox="0 0 50.46 50.46"><defs><style>.cls-1{fill:#12b5e1;}</style></defs><title>plataforma offshore 02</title><path class="cls-1" d="M10,24.12a.9.9,0,0,0-.9.9v6.35a.9.9,0,1,0,1.79,0V25.91l13.68,0v5.45a.9.9,0,1,0,1.8,0V25.89H40v5.45a.9.9,0,0,0,1.8,0V25a.9.9,0,0,0-.9-.9h-3L35.45,9.53h0a.85.85,0,0,0,.84-.84V6.13a.84.84,0,0,0-.84-.84H30.37a.83.83,0,0,0-.84.84V8.69a.84.84,0,0,0,.84.84h0L28,24.09Zm20,0,3-3.27,2.94,3.27Zm5.92-1.65L33.68,20,35.2,18.3ZM31.21,7h3.43v.88H31.21Zm.68,3.93.23-1.37h1.63L34,10.89l-1,1.3Zm.44,2-1,1.22.33-2Zm1.85-.8.33,2-1-1.22Zm-1.25,1.55,1.76,2.18H31.17Zm2,3.31-2,2.16L31,17Zm-4.23,1.32L32.16,20,30,22.42Z"/><path class="cls-1" d="M40.89,45.17a.9.9,0,0,0,.9-.9V35.75h2.73a.9.9,0,0,0,0-1.8H5.94a.9.9,0,1,0,0,1.8H9.05v8.52a.9.9,0,0,0,1.8,0V35.75H24.52v6.53a.9.9,0,1,0,1.8,0V35.75H40v8.52A.9.9,0,0,0,40.89,45.17Z"/></svg>