<?xml version="1.0" encoding="utf-8"?>
<!-- Generator: Adobe Illustrator 24.2.1, SVG Export Plug-In . SVG Version: 6.00 Build 0)  -->
<svg version="1.1" id="Capa_1" xmlns="http://www.w3.org/2000/svg" xmlns:xlink="http://www.w3.org/1999/xlink" x="0px" y="0px"
	 viewBox="0 0 50.5 50.5" style="enable-background:new 0 0 50.5 50.5;" xml:space="preserve">
<path d="M48.385,40.414c-0.252-0.361-0.749-0.45-1.111-0.2c-0.061,0.042-6.138,4.022-20.862,0.107l5.811-17.625
	c0.054-0.07,0.104-0.145,0.133-0.233c0.53-1.609,2.272-2.486,3.88-1.959c1.609,0.53,2.488,2.27,1.959,3.879
	c-0.027,0.083-0.04,0.167-0.04,0.25c0,0.003,0.001,0.006,0.001,0.009c0,0.017,0.006,0.032,0.008,0.049
	c0.006,0.079,0.022,0.156,0.05,0.228c0.011,0.028,0.025,0.052,0.039,0.078c0.03,0.058,0.067,0.113,0.111,0.162
	c0.021,0.024,0.042,0.046,0.065,0.067c0.052,0.046,0.113,0.084,0.177,0.116c0.019,0.01,0.032,0.026,0.053,0.034
	c0.007,0.003,0.015,0.002,0.022,0.004c0.009,0.003,0.015,0.009,0.024,0.012c0.034,0.011,0.069,0.006,0.104,0.012
	c0.049,0.009,0.097,0.028,0.146,0.028c0.014,0,0.027-0.005,0.041-0.006c0.024-0.001,0.048-0.007,0.072-0.011
	c0.071-0.01,0.138-0.029,0.203-0.057c0.024-0.011,0.049-0.021,0.072-0.034c0.068-0.038,0.129-0.085,0.184-0.142
	c0.011-0.012,0.025-0.02,0.036-0.033c0.055-0.065,0.102-0.138,0.136-0.221c0.004-0.01,0.019-0.05,0.028-0.073
	c0.261-0.767,0.798-1.391,1.521-1.756c0.733-0.371,1.567-0.431,2.346-0.176c1.502,0.494,2.384,2.094,2.008,3.641
	c-0.103,0.42,0.148,0.846,0.565,0.96c0.07,0.02,0.142,0.029,0.212,0.029c0.343,0,0.659-0.222,0.765-0.565
	c2.512-8.173-1.844-16.957-9.744-19.993l0.513-1.556c0.139-0.419-0.09-0.872-0.509-1.01c-0.423-0.137-0.872,0.089-1.011,0.509
	l-0.514,1.558c-8.32-2.288-17.081,2.327-19.807,10.61c-0.138,0.417,0.136,0.884,0.553,1.024c0.202,0.068,0.422,0.052,0.613-0.043
	c0.19-0.095,0.335-0.263,0.401-0.465c0.53-1.609,2.271-2.486,3.88-1.959c1.375,0.453,2.208,1.789,2.094,3.172
	c-0.122,0.402-0.197,0.676-0.213,0.734c-0.111,0.428,0.145,0.865,0.572,0.977c0.001,0,0.002,0,0.003,0
	c0.004,0.001,0.007,0.005,0.011,0.006c0.418,0.138,0.872-0.09,1.01-0.51c0.257-0.78,0.801-1.413,1.534-1.783
	c0.731-0.371,1.564-0.433,2.345-0.176s1.413,0.801,1.783,1.534c0.287,0.567,0.384,1.194,0.296,1.811l-6.098,18.494
	c-2.383-0.641-4.552-1.085-6.525-1.376c0.676-0.308,1.314-0.698,1.903-1.163c0.109-0.044,0.21-0.109,0.294-0.202
	c0.017-0.019,0.023-0.044,0.038-0.064c0.019-0.016,0.04-0.031,0.059-0.047c0.054-0.041,0.108-0.086,0.161-0.134
	c0.005-0.004,0.073-0.064,0.078-0.068c1.828-1.707,2.877-4.109,2.877-6.589c0-2.568-1.125-5.033-3.087-6.765
	c-0.042-0.037-0.088-0.068-0.131-0.105c-0.017-0.02-0.024-0.044-0.043-0.063c-0.051-0.05-0.114-0.077-0.173-0.111
	c-1.658-1.323-3.724-2.054-5.877-2.054c-2.178,0-4.291,0.754-5.939,2.116c-0.023,0.019-0.043,0.04-0.066,0.059
	c-0.004,0.003-0.008,0.004-0.012,0.008c-0.003,0.002-0.003,0.006-0.006,0.008c-2.082,1.711-3.277,4.219-3.277,6.906
	c0,2.515,1.018,4.851,2.871,6.582c0.153,0.142,0.319,0.284,0.47,0.402c0.414,0.342,0.856,0.645,1.319,0.908
	c-5.02,0.41-7.351,1.927-7.512,2.038c-0.363,0.249-0.456,0.743-0.21,1.107c0.245,0.364,0.739,0.46,1.109,0.216
	c0.062-0.042,6.365-4.053,21.178-0.089l-1.221,3.702c-0.139,0.419,0.09,0.872,0.509,1.01c0.084,0.027,0.168,0.041,0.251,0.041
	c0.336,0,0.648-0.213,0.76-0.55l1.253-3.799c5.052,1.353,9.149,1.826,12.373,1.826c6.746,0,9.729-2.023,9.91-2.151
	C48.551,41.27,48.637,40.774,48.385,40.414z M39.258,20.993c-0.558-0.916-1.426-1.65-2.522-2.01
	c-1.143-0.375-2.325-0.285-3.343,0.166l3.496-10.604c1.092,0.526,1.906,1.33,2.44,2.473C40.67,13.891,40.007,18.081,39.258,20.993z
	 M46.241,22.894c-0.544-0.675-1.278-1.205-2.148-1.491c-0.48-0.158-0.974-0.236-1.465-0.236c-0.634,0-1.261,0.138-1.854,0.397
	c0.777-2.959,1.475-7.282,0.246-10.596C44.464,13.897,46.445,18.32,46.241,22.894z M22.02,14.143
	c-0.917-0.301-1.858-0.303-2.724-0.058c2.553-3.855,6.793-6.262,11.353-6.552c-2.952,1.921-4.958,5.793-6.095,8.639
	C23.996,15.246,23.124,14.506,22.02,14.143z M29.377,16.563c-1.099-0.362-2.263-0.288-3.316,0.17c1.119-2.794,3.08-6.608,5.893-8.14
	c1.106-0.601,2.23-0.782,3.418-0.561l-3.48,10.555C31.316,17.635,30.445,16.915,29.377,16.563z M22.144,30.279
	c0,1.98-0.778,3.822-2.153,5.202c-1.053-1.383-1.657-3.253-1.657-5.202c0-1.956,0.595-3.802,1.649-5.189
	C21.357,26.487,22.144,28.346,22.144,30.279z M14.433,22.781c1.551,0,3.045,0.458,4.312,1.292c-1.286,1.671-2.011,3.881-2.011,6.206
	c0,2.347,0.718,4.531,2.015,6.21c-1.269,0.845-2.765,1.309-4.316,1.309c-1.537,0-3.036-0.459-4.309-1.306
	c1.3-1.678,2.019-3.864,2.019-6.213c0-2.322-0.724-4.533-2.008-6.204C11.394,23.238,12.891,22.781,14.433,22.781z M6.731,30.279
	c0-1.964,0.777-3.814,2.161-5.193c1.056,1.389,1.65,3.238,1.65,5.193c0,1.948-0.603,3.816-1.656,5.199
	C7.499,34.079,6.731,32.248,6.731,30.279z"/>
</svg>
