<svg id="Layer_1" data-name="Layer 1" xmlns="http://www.w3.org/2000/svg" viewBox="0 0 50.46 50.46"><defs><style>.cls-1{fill:#12b5e1;}</style></defs><title>poligono de tiro</title><path class="cls-1" d="M31,9.15H19.49a1.29,1.29,0,0,0-1.29,1.29V26.15a1.3,1.3,0,0,0,1.29,1.3H31a1.3,1.3,0,0,0,1.29-1.3V10.44A1.29,1.29,0,0,0,31,9.15Zm-5.79,1A2.77,2.77,0,1,1,22.41,13,2.77,2.77,0,0,1,25.18,10.19Zm5.57,14.92a1.13,1.13,0,0,1-1.13,1.1h0A1.13,1.13,0,0,1,28.48,25a13.68,13.68,0,0,0-.55-4v5.61h-5.5V21a13.68,13.68,0,0,0-.55,4,1.13,1.13,0,0,1-1.1,1.17h0a1.14,1.14,0,0,1-1.14-1.1c0-.53-.09-5.21,2.24-7.62a4.46,4.46,0,0,1,3.32-1.4h0a4.47,4.47,0,0,1,3.33,1.4C30.85,19.9,30.77,24.58,30.75,25.11Z"/><path class="cls-1" d="M25.18,14.67A1.71,1.71,0,1,0,23.47,13,1.72,1.72,0,0,0,25.18,14.67Zm0-3.17A1.46,1.46,0,1,1,23.72,13,1.46,1.46,0,0,1,25.18,11.5Z"/><path class="cls-1" d="M25.18,13.94a1,1,0,1,0-1-1A1,1,0,0,0,25.18,13.94Zm0-1.77a.79.79,0,1,1-.79.79A.8.8,0,0,1,25.18,12.17Z"/><path class="cls-1" d="M25.51,17.43H25a2.07,2.07,0,0,0-2.07,2.07v4.58A2.07,2.07,0,0,0,25,26.15h.55a2.07,2.07,0,0,0,2.07-2.07V19.5A2.07,2.07,0,0,0,25.51,17.43Zm1.7,6.65a1.7,1.7,0,0,1-1.7,1.7H25a1.7,1.7,0,0,1-1.7-1.7V19.5A1.7,1.7,0,0,1,25,17.8h.55a1.7,1.7,0,0,1,1.7,1.7Z"/><path class="cls-1" d="M25.42,18.37h-.37a1.37,1.37,0,0,0-1.36,1.37v4.1a1.37,1.37,0,0,0,1.36,1.37h.37a1.37,1.37,0,0,0,1.36-1.37v-4.1A1.37,1.37,0,0,0,25.42,18.37Zm1.12,5.47A1.12,1.12,0,0,1,25.42,25h-.37a1.12,1.12,0,0,1-1.12-1.12v-4.1a1.12,1.12,0,0,1,1.12-1.12h.37a1.12,1.12,0,0,1,1.12,1.12Z"/><path class="cls-1" d="M25.34,19.24h-.21a.79.79,0,0,0-.79.8v3.5a.79.79,0,0,0,.79.8h.21a.79.79,0,0,0,.79-.8V20A.79.79,0,0,0,25.34,19.24Zm.62,4.3a.62.62,0,0,1-.62.62h-.21a.62.62,0,0,1-.62-.62V20a.62.62,0,0,1,.62-.62h.21A.62.62,0,0,1,26,20Z"/><path class="cls-1" d="M15.9,26.59a7,7,0,0,0-5.18-2.17h0A7,7,0,0,0,5.5,26.59C1.85,30.36,2,37.66,2,38.48a1.77,1.77,0,0,0,1.77,1.71h.06a1.78,1.78,0,0,0,1.72-1.83,20.7,20.7,0,0,1,.86-6.28v9.23H15V39s0,0,0-.08V32.08a21,21,0,0,1,.86,6.28,1.78,1.78,0,0,0,1.72,1.83h.06a1.77,1.77,0,0,0,1.77-1.71C19.42,37.66,19.54,30.36,15.9,26.59Z"/><path class="cls-1" d="M6,21.57a1.22,1.22,0,0,0,.78-.3,4.31,4.31,0,0,0,7.9,0,1.22,1.22,0,0,0,.78.3,1.25,1.25,0,0,0,1.25-1.25v-1.5a1.26,1.26,0,0,0-1-1.2,5.09,5.09,0,0,0-10,0,1.25,1.25,0,0,0-1,1.2v1.5A1.25,1.25,0,0,0,6,21.57Zm4.73-7a4.07,4.07,0,0,1,4,3.26l0,0a4.33,4.33,0,0,0-8,0l0,0A4.07,4.07,0,0,1,10.7,14.56Z"/><path class="cls-1" d="M45,26.59a7,7,0,0,0-5.18-2.17h0a7,7,0,0,0-5.18,2.17C30.92,30.36,31,37.66,31.07,38.48a1.77,1.77,0,0,0,1.77,1.71h.06a1.78,1.78,0,0,0,1.72-1.83,20.7,20.7,0,0,1,.86-6.28v9.23h8.57V39a.25.25,0,0,0,0-.08V32.08a20.7,20.7,0,0,1,.86,6.28,1.78,1.78,0,0,0,1.72,1.83h.06a1.77,1.77,0,0,0,1.77-1.71C48.48,37.66,48.6,30.36,45,26.59Z"/><path class="cls-1" d="M35,21.57a1.22,1.22,0,0,0,.78-.3,4.31,4.31,0,0,0,7.9,0,1.22,1.22,0,0,0,.78.3,1.25,1.25,0,0,0,1.25-1.25v-1.5a1.25,1.25,0,0,0-1-1.2,5.09,5.09,0,0,0-10,0,1.26,1.26,0,0,0-1,1.2v1.5A1.25,1.25,0,0,0,35,21.57Zm4.73-7a4.07,4.07,0,0,1,4,3.26l0,0a4.32,4.32,0,0,0-8,0l0,0A4.07,4.07,0,0,1,39.76,14.56Z"/></svg>