<svg id="Layer_1" data-name="Layer 1" xmlns="http://www.w3.org/2000/svg" viewBox="0 0 50.46 50.46"><defs><style>.cls-1{fill:#12b5e1;}</style></defs><title>portal educativo</title><path class="cls-1" d="M48.53,23.75A20.95,20.95,0,0,0,25.44,2.89a20.92,20.92,0,0,0-23,19.31A20.95,20.95,0,0,0,30.89,46.09a21,21,0,0,0,10.38-6.51A20.9,20.9,0,0,0,48.53,23.75ZM40.67,39a19.21,19.21,0,0,1-2,1.55,20.81,20.81,0,0,0,5.16-12.27A20.67,20.67,0,0,0,42.37,15,20,20,0,0,1,40.67,39ZM25.44,46A20,20,0,0,1,14.61,42.8a20.82,20.82,0,0,0,8.71,1.92,21,21,0,0,0,2.12-.11,21.19,21.19,0,0,0,2.12.11,20.67,20.67,0,0,0,5.76-.83,20,20,0,0,1-2.68,1.39A19.84,19.84,0,0,1,25.44,46ZM3.27,22.33a20.18,20.18,0,0,1,8.56-12.4l-.1.11A20.83,20.83,0,0,0,6.39,34.58,20,20,0,0,1,3.2,23.75C3.2,23.27,3.24,22.8,3.27,22.33ZM22.9,6.59A20.14,20.14,0,0,1,43,26.71c0,.48,0,.95-.07,1.42A20.17,20.17,0,0,1,25.44,43.76,20.09,20.09,0,0,1,12.33,10.64,20,20,0,0,1,17.7,7.3,19.84,19.84,0,0,1,22.9,6.59ZM35.92,42a20.26,20.26,0,0,1-6.36,1.74,21.06,21.06,0,0,0,12.13-9.93A20.1,20.1,0,0,1,35.92,42ZM5.32,25.87A20,20,0,0,1,8.51,15a20.79,20.79,0,0,0-1.92,8.71,21,21,0,0,0,14.73,20A20,20,0,0,1,10.21,39,20,20,0,0,1,5.32,25.87ZM43.37,22.2A21,21,0,0,0,24.17,5.81c.42,0,.84-.07,1.27-.07a20,20,0,0,1,13.11,4.9A20,20,0,0,1,43.37,22.2ZM25.44,4.9a20.86,20.86,0,0,0-8,1.59l-.31.08a19.9,19.9,0,0,1,8.3-2.83,19.83,19.83,0,0,1,8.71,3.08A20.79,20.79,0,0,0,25.44,4.9ZM21.32,3.73a21.11,21.11,0,0,0-7.26,4,21.06,21.06,0,0,0-9.53,8.9A20.15,20.15,0,0,1,21.32,3.73ZM2.86,28.26A21,21,0,0,0,9.61,39.58a20.94,20.94,0,0,0,14.56,7.19c-.42,0-.84.06-1.27.06A20.13,20.13,0,0,1,2.86,28.26Zm43.55-2.39A20.89,20.89,0,0,0,39.15,10a20.92,20.92,0,0,0-9.59-6.31A20.09,20.09,0,0,1,44.49,34.58,20.82,20.82,0,0,0,46.41,25.87Z"/></svg>