<svg id="Layer_1" data-name="Layer 1" xmlns="http://www.w3.org/2000/svg" viewBox="0 0 50.46 50.46"><title>precioscuidados</title><path d="M33.183,3.25h-15.9a7.1,7.1,0,0,0-7.1,7.1V33.562a5.016,5.016,0,0,0,1.811,3.867l10.58,8.818a4.158,4.158,0,0,0,5.322,0L38.47,37.429a5.011,5.011,0,0,0,1.81-3.867V10.347a7.1,7.1,0,0,0-7.1-7.1m-7.953,27.5a9.861,9.861,0,1,1,9.862-9.861,9.848,9.848,0,0,1-9.862,9.861"/><path d="M25.23,14.74a6.146,6.146,0,1,0,6.146,6.146A6.145,6.145,0,0,0,25.23,14.74m2.11,5.219a1.534,1.534,0,1,1,1.534-1.534,1.534,1.534,0,0,1-1.534,1.534"/></svg>