<svg id="Layer_1" data-name="Layer 1" xmlns="http://www.w3.org/2000/svg" viewBox="0 0 50.46 50.46"><defs><style>.cls-1{fill:#12b5e1;}</style></defs><title>presupuesto</title><path class="cls-1" d="M42.47,7.48h-6V6a.86.86,0,0,0-.86-.85H33.76C33.16,3.29,31,2,28.48,2s-4.67,1.3-5.28,3.14H21.36a.85.85,0,0,0-.85.85V7.48h-6a.85.85,0,0,0-.85.85V29.14H8.84a1.71,1.71,0,0,0-1.71,1.7V46.77a1.71,1.71,0,0,0,1.71,1.71h11a1.7,1.7,0,0,0,1.7-1.71V42.15h21a.86.86,0,0,0,.86-.85v-33A.86.86,0,0,0,42.47,7.48ZM22.21,6.83h1.68a.84.84,0,0,0,.85-.78c.11-1.3,1.79-2.36,3.74-2.36s3.63,1.06,3.74,2.36a.86.86,0,0,0,.85.78h1.68v3.39H22.21ZM19.82,46.77h-11V30.84h11Zm21.8-6.32H21.52V30.84a1.7,1.7,0,0,0-1.7-1.7H15.34v-20h5.17v1.89a.85.85,0,0,0,.85.85H35.6a.86.86,0,0,0,.86-.85V9.19h5.16Z"/><path class="cls-1" d="M10.67,36.17H18a.56.56,0,0,0,.56-.55v-2.9a.56.56,0,0,0-.56-.56H10.67a.56.56,0,0,0-.55.56v2.9A.55.55,0,0,0,10.67,36.17Zm.56-2.89h6.2v1.78h-6.2Z"/><rect class="cls-1" x="10.12" y="37.14" width="2.39" height="2.39" rx="0.56" ry="0.56"/><rect class="cls-1" x="13.13" y="37.14" width="2.39" height="2.39" rx="0.56" ry="0.56"/><rect class="cls-1" x="16.15" y="37.14" width="2.39" height="2.39" rx="0.56" ry="0.56"/><rect class="cls-1" x="10.12" y="40.15" width="2.39" height="2.39" rx="0.56" ry="0.56"/><rect class="cls-1" x="13.13" y="40.15" width="2.39" height="2.39" rx="0.56" ry="0.56"/><rect class="cls-1" x="16.15" y="40.15" width="2.39" height="5.4" rx="0.56" ry="0.56"/><rect class="cls-1" x="10.12" y="43.16" width="2.39" height="2.39" rx="0.56" ry="0.56"/><rect class="cls-1" x="13.13" y="43.16" width="2.39" height="2.39" rx="0.56" ry="0.56"/><circle class="cls-1" cx="16.47" cy="34.17" r="0.38"/><path class="cls-1" d="M15.35,33.78a.39.39,0,0,0-.38.39.38.38,0,1,0,.76,0A.39.39,0,0,0,15.35,33.78Z"/><circle class="cls-1" cx="14.23" cy="34.17" r="0.38"/><path class="cls-1" d="M19.14,14.23a.85.85,0,0,0,0,1.7H37.82a.85.85,0,1,0,0-1.7Z"/><path class="cls-1" d="M19.14,19.73H37.82a.86.86,0,1,0,0-1.71H19.14a.86.86,0,0,0-.85.86A.85.85,0,0,0,19.14,19.73Z"/><path class="cls-1" d="M19.14,23.53H37.82a.86.86,0,1,0,0-1.71H19.14a.86.86,0,0,0-.85.86A.85.85,0,0,0,19.14,23.53Z"/><path class="cls-1" d="M26.06,25.62H19.14a.86.86,0,0,0-.85.86.85.85,0,0,0,.85.85h6.92a.85.85,0,0,0,.85-.85A.86.86,0,0,0,26.06,25.62Z"/><path class="cls-1" d="M33.9,29.06v.19C32.74,29.35,32,30,32,31s.63,1.56,2,1.91v1.82a3.15,3.15,0,0,1-1.37-.62.57.57,0,0,0-.31-.1.5.5,0,0,0-.51.51A.52.52,0,0,0,32,35a4.1,4.1,0,0,0,1.9.73v.57a.41.41,0,0,0,.41.4.4.4,0,0,0,.4-.4v-.55c1.17-.12,2-.79,2-1.81s-.6-1.55-2-1.91V30.24a3.33,3.33,0,0,1,.95.4.51.51,0,1,0,.52-.87,3.45,3.45,0,0,0-1.43-.51v-.2a.4.4,0,0,0-.4-.4A.41.41,0,0,0,33.9,29.06Zm0,2.76c-.72-.23-.89-.47-.89-.86s.29-.72.89-.78Zm.73,1.29c.71.22.91.47.91.87s-.32.75-.91.81Z"/><path class="cls-1" d="M27.75,32.67a6.47,6.47,0,1,0,6.47-6.47A6.47,6.47,0,0,0,27.75,32.67Zm11.54,0a5.08,5.08,0,1,1-5.07-5.08A5.08,5.08,0,0,1,39.29,32.67Z"/></svg>