<?xml version="1.0" encoding="utf-8"?>
<!-- Generator: Adobe Illustrator 25.4.1, SVG Export Plug-In . SVG Version: 6.00 Build 0)  -->
<svg version="1.1" id="Capa_2" xmlns="http://www.w3.org/2000/svg" xmlns:xlink="http://www.w3.org/1999/xlink" x="0px" y="0px"
	 viewBox="0 0 50.46 50.46" enable-background="new 0 0 50.46 50.46" xml:space="preserve">
<g>
	<path d="M33.811,15.162c0.489,0.224,1.028,0.356,1.601,0.356c0.572,0,1.111-0.132,1.6-0.356c1.338-0.611,2.275-1.955,2.275-3.519
		c0-2.137-1.738-3.875-3.875-3.875s-3.874,1.738-3.874,3.875C31.538,13.207,32.474,14.551,33.811,15.162z"/>
	<path d="M42.648,20.653c0-1.819-0.93-2.447-1.775-3.018c-0.07-0.044-1.451-0.884-3.721-1.207c-0.537-0.076-1.108-0.133-1.74-0.133
		c-0.632,0-1.203,0.056-1.741,0.133c-2.218,0.314-3.594,1.112-3.735,1.199c0.37,0.133,0.675,0.262,0.929,0.381
		c0.414,0.194,0.687,0.353,0.76,0.4c0.033,0.022,0.07,0.048,0.104,0.071c0.349,0.237,0.753,0.53,1.128,0.931
		c0.456,0.489,0.853,1.145,1.024,2.067c0.056,0.303,0.095,0.627,0.095,0.992l0.007,1.929l0.014,3.819l0.01,2.794
		c0.002,0.923-0.391,1.822-1.078,2.47c-0.057,0.054-0.122,0.096-0.182,0.146c-0.237,0.196-0.49,0.367-0.764,0.494
		c-0.243,0.112-0.501,0.186-0.763,0.24v6.669c0,1.205,1.134,2.185,2.527,2.185c0.586,0,1.207-0.235,1.672-0.64
		c0.43,0.356,1.001,0.573,1.628,0.573c1.751,0,2.534-1.098,2.534-2.186v-9.714c0.263,0.092,0.549,0.143,0.849,0.143
		c1.223-0.003,2.252-1.006,2.249-2.191L42.648,20.653z"/>
	<path d="M23.903,16.978c0.489,0.224,1.028,0.356,1.601,0.356c0.572,0,1.111-0.132,1.6-0.356c1.338-0.611,2.274-1.955,2.274-3.519
		c0-2.137-1.738-3.875-3.875-3.875c-2.137,0-3.875,1.738-3.875,3.875C21.629,15.024,22.565,16.367,23.903,16.978z"/>
	<path d="M31.983,32.654c0.421-0.358,0.703-0.857,0.764-1.415c0.008-0.074,0.024-0.147,0.023-0.223l-0.023-6.617l-0.007-1.93
		c0-0.255-0.022-0.482-0.056-0.693c-0.125-0.785-0.463-1.291-0.872-1.677c-0.079-0.074-0.159-0.147-0.242-0.214
		c-0.198-0.158-0.404-0.299-0.605-0.435c-0.024-0.015-0.221-0.133-0.543-0.287c-0.2-0.096-0.457-0.205-0.762-0.32
		c-0.234-0.088-0.494-0.174-0.786-0.259c-0.385-0.112-0.814-0.213-1.292-0.295c-0.107-0.018-0.225-0.031-0.337-0.047
		c-0.536-0.076-1.107-0.133-1.74-0.133c-0.632,0-1.203,0.056-1.741,0.133c-2.276,0.323-3.676,1.161-3.756,1.211
		c-0.174,0.113-0.332,0.237-0.483,0.367c0.318,0.116,0.587,0.227,0.817,0.333c0.434,0.199,0.717,0.362,0.808,0.419
		c0.004,0.003,0.017,0.01,0.021,0.012c0.329,0.221,0.724,0.492,1.097,0.859c0.171,0.168,0.333,0.36,0.485,0.574
		c0.44,0.62,0.769,1.45,0.769,2.629l0.03,8.543c0.002,0.739-0.259,1.456-0.712,2.047c-0.113,0.147-0.229,0.293-0.366,0.422
		c-0.125,0.118-0.26,0.222-0.398,0.319c-0.238,0.167-0.496,0.297-0.764,0.4v6.466c0,1.205,1.134,2.185,2.528,2.185
		c0.586,0,1.207-0.235,1.672-0.64c0.429,0.356,1.001,0.573,1.628,0.573c1.751,0,2.534-1.098,2.534-2.186v-9.714
		c0.099,0.035,0.205,0.058,0.311,0.08c0.173,0.037,0.352,0.063,0.538,0.063c0.244-0.001,0.476-0.051,0.698-0.124
		C31.502,32.989,31.76,32.843,31.983,32.654z"/>
	<path d="M11.604,6.961c0.13,0.13,0.26,0.261,0.389,0.391c0.042,0.021,0.073,0.052,0.094,0.094c0.13,0.129,0.26,0.259,0.39,0.388
		c0.019,0.019,0.038,0.038,0.057,0.057c0.13,0.13,0.259,0.261,0.389,0.391c0.042,0.021,0.073,0.052,0.094,0.094
		c0.13,0.129,0.26,0.259,0.39,0.388c0.019,0.019,0.038,0.038,0.057,0.057c0.13,0.13,0.259,0.261,0.389,0.391
		c0.042,0.021,0.073,0.052,0.094,0.094c0.13,0.129,0.26,0.259,0.39,0.388c0.019,0.019,0.038,0.038,0.057,0.057
		c0.13,0.13,0.26,0.261,0.389,0.391c0.042,0.021,0.073,0.052,0.095,0.094c0.169,0.152,0.17,0.153,0.342-0.019
		c1.104-1.103,2.208-2.206,3.312-3.31c0.021-0.021,0.037-0.048,0.055-0.072c-0.6-0.002-1.201-0.005-1.801-0.007
		c-0.144-0.001-0.289-0.008-0.432,0c-0.105,0.006-0.137-0.034-0.125-0.133c0.009-0.076,0.005-0.154,0.006-0.232
		c0-0.154,0-0.309,0-0.463c0-0.156,0-0.311,0-0.467c0-0.154,0-0.309,0-0.463c0-0.156,0-0.311,0-0.467c0-0.154,0-0.309,0-0.463
		c0-0.156,0-0.311,0-0.467c-0.002-0.103-0.009-0.207-0.003-0.309c0.005-0.089-0.027-0.117-0.114-0.114
		c-0.194,0.007-0.389,0.007-0.583,0.007c-0.515-0.001-1.029-0.003-1.544-0.005c-0.082,0-0.147-0.006-0.146,0.116
		c0.006,0.569,0.005,1.137,0.003,1.706c-0.002,0.577-0.008,1.154-0.012,1.731c-0.283,0.044-0.568,0.021-0.852,0.022
		c-0.451,0.002-0.902-0.001-1.353,0c-0.043,0-0.095-0.017-0.123,0.038c0.013,0.013,0.026,0.026,0.039,0.04
		C11.566,6.923,11.585,6.942,11.604,6.961z"/>
	<path d="M13.447,19.158c0.489,0.224,1.028,0.356,1.601,0.356c0.572,0,1.111-0.132,1.6-0.356c1.338-0.611,2.275-1.955,2.275-3.519
		c0-2.137-1.738-3.875-3.875-3.875s-3.875,1.738-3.875,3.875C11.173,17.203,12.109,18.546,13.447,19.158z"/>
	<path d="M21.626,34.76c0.19-0.179,0.335-0.386,0.449-0.607c0.152-0.296,0.241-0.619,0.24-0.958l-0.03-8.547
		c0-0.63-0.116-1.11-0.297-1.501c-0.204-0.442-0.492-0.766-0.813-1.032c-0.008-0.006-0.015-0.014-0.023-0.02
		c-0.209-0.171-0.429-0.32-0.644-0.465c-0.02-0.013-0.16-0.098-0.391-0.215c-0.177-0.089-0.421-0.197-0.711-0.313
		c-0.215-0.086-0.46-0.172-0.732-0.258c-0.362-0.115-0.767-0.223-1.225-0.314c-0.209-0.042-0.434-0.073-0.661-0.106
		c-0.537-0.076-1.107-0.133-1.74-0.133c-0.632,0-1.203,0.056-1.741,0.133c-2.275,0.323-3.676,1.161-3.756,1.211
		c-1.125,0.729-1.77,1.828-1.77,3.018v8.549c0,1.185,1.045,2.185,2.281,2.185c0.275,0,0.542-0.05,0.792-0.142v9.78
		c0,1.205,1.134,2.186,2.528,2.186c0.586,0,1.207-0.236,1.672-0.641c0.429,0.356,1.001,0.573,1.627,0.573
		c1.751,0,2.535-1.097,2.535-2.185v-9.715c0.264,0.092,0.559,0.116,0.857,0.107c0.434-0.013,0.863-0.137,1.236-0.376
		C21.417,34.906,21.532,34.848,21.626,34.76z"/>
</g>
</svg>
