<?xml version="1.0" encoding="utf-8"?>
<!-- Generator: Adobe Illustrator 22.1.0, SVG Export Plug-In . SVG Version: 6.00 Build 0)  -->
<svg version="1.1" id="Layer_1" xmlns="http://www.w3.org/2000/svg" xmlns:xlink="http://www.w3.org/1999/xlink" x="0px" y="0px"
	 viewBox="0 0 50.5 50.5" style="enable-background:new 0 0 50.5 50.5;" xml:space="preserve">
<style type="text/css">
	.st0{fill:#12B5E1;}
</style>
<title>probeta</title>
<g>
	<path class="st0" d="M33.7,27.9c-0.4-0.9-1.2-1.5-2.2-1.5c-3.8-0.2-4.8,2.6-8.9,3.1c-1.6,0.2-2.5,0-4-0.9c-0.8-0.4-1.8-0.1-2.1,0.7
		l-4.8,10.2c-0.7,1.4-0.5,2.9,0.4,4.1c0.8,1,2,1.5,3.3,1.5h19.8c1.3,0,2.5-0.6,3.3-1.6c0.9-1.2,1-2.6,0.4-3.9L33.7,27.9z M19,41.4
		c0,0.5-0.4,0.9-0.9,0.9s-0.9-0.4-0.9-0.9s0.4-0.9,0.9-0.9C18.6,40.4,19,40.8,19,41.4C19,41.4,19,41.4,19,41.4z M20.2,32.9
		c0,0.6-0.5,1-1,1s-1-0.5-1-1s0.5-1,1-1C19.8,31.9,20.2,32.3,20.2,32.9C20.2,32.9,20.2,32.9,20.2,32.9z M30.1,34
		c0,1-0.8,1.8-1.8,1.8c-1,0-1.8-0.8-1.8-1.8c0-1,0.8-1.8,1.8-1.8c0,0,0,0,0,0C29.3,32.2,30.1,33,30.1,34C30.1,34,30.1,34,30.1,34z
		 M34.5,40c0,0.5-0.4,0.9-0.9,0.9c-0.5,0-0.9-0.4-0.9-0.9c0-0.5,0.4-0.9,0.9-0.9c0,0,0,0,0,0C34.1,39,34.5,39.4,34.5,40
		C34.5,40,34.5,40,34.5,40z"/>
	<path class="st0" d="M43,38.9l-9.8-22.3l0-8.9h0.7c1.6,0,2.9-1.3,2.9-2.9S35.4,2,33.8,2H16.6c-1.6,0-2.9,1.3-2.9,2.9
		s1.3,2.9,2.9,2.9H18l0,8.9L7.6,38.7c-1.1,2.3-1,4.9,0.3,7c1.3,2.1,3.6,3.4,6.1,3.4h22.4c2.5,0,4.7-1.2,6.1-3.3
		C43.8,43.7,44,41.2,43,38.9z M41,44.8c-1,1.6-2.7,2.5-4.6,2.5H14c-1.9,0-3.6-1-4.6-2.6c-1-1.6-1.1-3.6-0.3-5.3l10.5-22.3
		c0.1-0.1,0.1-0.3,0.1-0.4l0-9.1h8.5c0.5,0,0.9-0.4,0.9-0.9S28.8,6,28.3,6h-9.4h0h-2.3c-0.6,0-1.1-0.5-1.1-1.1s0.5-1.1,1.1-1.1h17.2
		c0.6,0,1.1,0.5,1.1,1.1S34.4,6,33.8,6h-1.6h0h-0.6c-0.5,0-0.9,0.4-0.9,0.9c0,0.4,0.3,0.7,0.6,0.8l0,9.1c0,0.1,0,0.2,0.1,0.4
		l9.9,22.5C42.1,41.3,42,43.3,41,44.8z"/>
</g>
</svg>
