<svg id="Layer_1" data-name="Layer 1" xmlns="http://www.w3.org/2000/svg" viewBox="0 0 50.46 50.46"><defs><style>.cls-1{fill:#65b4e1;}</style></defs><title>probeta hoja</title><path class="cls-1" d="M37.77,35.41c-.49-1.21-4.44-12-6.18-16.2h0c-.28-.67-.5-1.17-.64-1.43V9.58h.78a.57.57,0,0,0,.19-.06h0A.35.35,0,0,0,32,9.37l0,0a.64.64,0,0,0,0-.24h0a.64.64,0,0,0,0-.24l0,0a.35.35,0,0,0-.12-.13h0a.57.57,0,0,0-.19-.06h-13a.57.57,0,0,0-.19.06h0a.35.35,0,0,0-.12.13l0,0a.64.64,0,0,0,0,.24h0a.64.64,0,0,0,0,.24l0,0a.35.35,0,0,0,.12.13h0a.57.57,0,0,0,.19.06h.78v8.18c-1,1.85-6.25,16.24-6.82,17.64a5.68,5.68,0,0,0,.52,4.72,3.76,3.76,0,0,0,3,1.76H34.26a3.76,3.76,0,0,0,3-1.76A5.68,5.68,0,0,0,37.77,35.41ZM36,39.3a2.29,2.29,0,0,1-1.75,1.1H16.2a2.29,2.29,0,0,1-1.75-1.1A4.25,4.25,0,0,1,14.08,36c.17-.41.68-1.8,1.4-3.71,1.44-3.86,4-10.64,5-13.05H30c1,2.41,3.58,9.2,5,13.05.71,1.91,1.23,3.3,1.4,3.71A4.25,4.25,0,0,1,36,39.3Z"/><path class="cls-1" d="M24.79,37.84s-5.32-.12-7.13-6.94C17.66,30.9,24.55,30.9,24.79,37.84Z"/><path class="cls-1" d="M25.72,38s5.15.41,6.46-2.78A5.41,5.41,0,0,0,25.72,38Z"/><path class="cls-1" d="M25.64,35.5s6.27-2.44,3.82-10.27C29.46,25.23,23.19,28.78,25.64,35.5Z"/></svg>