<svg id="Layer_1" data-name="Layer 1" xmlns="http://www.w3.org/2000/svg" viewBox="0 0 50.46 50.46"><defs><style>.cls-1{fill:#12b5e1;}</style></defs><title>probeta</title><path class="cls-1" d="M21.88,22.19a1.44,1.44,0,1,0,1.43,1.44A1.44,1.44,0,0,0,21.88,22.19Z"/><path class="cls-1" d="M17.37,38.92a1.33,1.33,0,1,0,1.32,1.32A1.32,1.32,0,0,0,17.37,38.92Z"/><path class="cls-1" d="M33.34,37.35a1.33,1.33,0,1,0,1.33,1.32A1.32,1.32,0,0,0,33.34,37.35Z"/><path class="cls-1" d="M26.67,29.22a2.63,2.63,0,1,0,2.63,2.62A2.62,2.62,0,0,0,26.67,29.22Z"/><path class="cls-1" d="M41.74,38.64c-.65-1.59-5.85-15.84-8.13-21.34h0c-.37-.89-.66-1.55-.85-1.89V5.19h.87a1,1,0,0,0,1-1,.93.93,0,0,0-.78-.91h0l-.12,0H16.84l-.12,0h0a.93.93,0,0,0-.78.91,1,1,0,0,0,.95,1h.87V15.4c-1.33,2.44-8.24,21.39-9,23.24a7.49,7.49,0,0,0,.68,6.22,4.94,4.94,0,0,0,3.93,2.32h23.8a4.94,4.94,0,0,0,3.93-2.32A7.49,7.49,0,0,0,41.74,38.64Zm-2.31,5.12a3,3,0,0,1-2.3,1.45H13.33A3,3,0,0,1,11,43.76a5.62,5.62,0,0,1-.49-4.38c.22-.54.9-2.36,1.84-4.88,1.9-5.09,5.23-14,6.61-17.2H31.47c1.38,3.18,4.71,12.11,6.61,17.2C39,37,39.7,38.84,39.92,39.38A5.62,5.62,0,0,1,39.43,43.76Z"/></svg>