<?xml version="1.0" encoding="utf-8"?>
<!-- Generator: Adobe Illustrator 24.2.1, SVG Export Plug-In . SVG Version: 6.00 Build 0)  -->
<svg version="1.1" id="Layer_1" xmlns="http://www.w3.org/2000/svg" xmlns:xlink="http://www.w3.org/1999/xlink" x="0px" y="0px"
	 viewBox="0 0 50.5 50.5" style="enable-background:new 0 0 50.5 50.5;" xml:space="preserve">
<g>
	<path d="M39.1,15.8H30v-1.3c0.6-0.4,1-1.1,1-1.8v-1.4c0-1.2-1-2.2-2.2-2.2H10.4c-1.2,0-2.2,1-2.2,2.2v1.4c0,0.8,0.4,1.4,1,1.8v23.6
		c-0.6,0.4-1,1.1-1,1.8v1.4c0,1.2,1,2.2,2.2,2.2h18.3c1.2,0,2.2-1,2.2-2.2v-1.4c0-0.8-0.4-1.4-1-1.8v-7h9.1c1.6,0,3-1.3,3-3v-9.4
		C42.1,17.1,40.8,15.8,39.1,15.8z M10.1,11.3c0-0.2,0.2-0.3,0.3-0.3h18.3c0.2,0,0.3,0.1,0.3,0.3v1.4c0,0.2-0.1,0.3-0.3,0.3H10.4
		c-0.2,0-0.3-0.1-0.3-0.3V11.3z M18.1,22c-2.3,0.5-4,2.2-4,4.3c0,2.5,2.4,4.5,5.4,4.5c0.9,0,1.7-0.2,2.4-0.5c1,0.5,2.2,0.9,3.5,0.9
		h2.6v1h-17V20.4h7.5C18.4,20.9,18.2,21.4,18.1,22z M20.1,28.8c-0.2,0-0.3,0-0.5,0c-1.9,0-3.5-1.2-3.5-2.5c0-1,0.8-1.9,2-2.3
		C18.1,25.8,18.9,27.5,20.1,28.8z M28.1,34v3.6h-17V34H28.1z M11.1,18.5v-3.6h17v0.9h-2.6c-2.3,0-4.4,1.1-5.8,2.8H11.1z M29,41.3
		c0,0.2-0.1,0.3-0.3,0.3H10.4c-0.2,0-0.3-0.1-0.3-0.3v-1.4c0-0.2,0.2-0.3,0.3-0.3h18.3c0.2,0,0.3,0.1,0.3,0.3V41.3z M40.5,28.2
		c0,0.8-0.6,1.4-1.4,1.4H25.4c-3.2,0-5.8-2.6-5.8-5.8v-0.5c0-3.2,2.6-5.8,5.8-5.8h13.7c0.8,0,1.4,0.6,1.4,1.4V28.2z"/>
	<path d="M36.8,22.6l-0.5-0.1c-0.2,0-0.3-0.1-0.4-0.1c-0.1,0-0.2-0.1-0.2-0.2c0-0.1-0.1-0.2-0.1-0.2c0-0.2,0.1-0.3,0.3-0.4
		c0.2-0.1,0.5-0.1,1-0.1c0.2,0,0.5,0,0.7,0c0.3,0,0.5,0.1,0.7,0.1v-1.3c-0.4-0.1-0.8-0.1-1.2-0.2v-0.9h-1.5v1
		c-0.5,0.1-0.9,0.4-1.2,0.7C34.2,21.1,34,21.5,34,22c0,0.5,0.1,0.9,0.4,1.2c0.3,0.3,0.7,0.5,1.3,0.7l0.5,0.1
		c0.2,0.1,0.4,0.1,0.5,0.2c0.1,0,0.2,0.1,0.2,0.2c0,0.1,0.1,0.2,0.1,0.3c0,0.2-0.1,0.3-0.2,0.4c-0.2,0.1-0.4,0.1-0.8,0.1
		c-0.3,0-0.6,0-0.9-0.1c-0.3,0-0.6-0.1-0.9-0.2v1.3c0.4,0.1,0.9,0.2,1.4,0.2v0.9h1.5v-1c0.5-0.1,0.9-0.4,1.1-0.7
		c0.3-0.3,0.4-0.7,0.4-1.2c0-0.5-0.1-0.9-0.4-1.2C37.9,23,37.4,22.8,36.8,22.6z"/>
	<path d="M26.7,21.6c-0.8,0-1.5,0.7-1.5,1.5c0,0.8,0.7,1.5,1.5,1.5s1.5-0.7,1.5-1.5C28.3,22.3,27.6,21.6,26.7,21.6z M27.3,22.8
		c-0.2,0-0.4-0.2-0.4-0.4c0-0.2,0.2-0.4,0.4-0.4c0.2,0,0.4,0.2,0.4,0.4C27.6,22.7,27.5,22.8,27.3,22.8z"/>
	<path d="M26.8,19c-2.3,0-4.1,1.8-4.1,4.1c0,2,1.5,3.7,3.4,4c0,0,0.1,0,0.1,0.1c0.1,0.2,0.3,0.5,0.4,0.6c0.1,0.1,0.2,0.2,0.3,0.1
		c0.1,0,0.1-0.1,0.2-0.1c0.1-0.1,0.2-0.4,0.4-0.6c0,0,0.1-0.1,0.1-0.1c1.9-0.3,3.4-2,3.4-4C30.9,20.8,29,19,26.8,19z M26.7,25.3
		c-1.2,0-2.3-1-2.3-2.3s1-2.3,2.3-2.3c1.3,0,2.3,1,2.3,2.3S28,25.3,26.7,25.3z"/>
</g>
</svg>
