<?xml version="1.0" encoding="utf-8"?>
<!-- Generator: Adobe Illustrator 24.2.1, SVG Export Plug-In . SVG Version: 6.00 Build 0)  -->
<svg version="1.1" id="Layer_1" xmlns="http://www.w3.org/2000/svg" xmlns:xlink="http://www.w3.org/1999/xlink" x="0px" y="0px"
	 viewBox="0 0 50.5 50.5" style="enable-background:new 0 0 50.5 50.5;" xml:space="preserve">
<g>
	<path d="M36.8,15.1h-7.9c-0.2-3.4-2.4-6.2-5.4-7.5V4c0-0.9-0.7-1.6-1.6-1.6h-4.4c-0.9,0-1.6,0.7-1.6,1.6v3.6
		c-3.2,1.3-5.4,4.4-5.4,8.1v29.2c0,1.4,0.9,2.6,2.2,3.1c1,0.4,2.2,0.2,3.1-0.4l0.4-0.3c0.5-0.4,1.1-0.4,1.6,0c1.1,0.8,2.7,0.8,3.9,0
		c0.5-0.4,1.1-0.4,1.6,0l0.4,0.3c0.6,0.4,1.3,0.6,1.9,0.6c0.4,0,0.8-0.1,1.1-0.2l0,0c1.3-0.5,2.2-1.7,2.2-3.1V30.4h7.9
		c1.6,0,3-1.3,3-3V18C39.8,16.4,38.5,15.1,36.8,15.1z M17.8,4.2h3.8v2.8c-0.5-0.1-0.9-0.1-1.4-0.1h-0.9c-0.5,0-1,0-1.4,0.1V4.2z
		 M12.5,15.7c0-3.8,3.1-6.8,6.8-6.8h0.9c3.6,0,6.5,2.8,6.8,6.2h-3.9c-1.6,0-3,0.5-4.2,1.3h-6.5V15.7z M12.5,18.3H17
		c-0.7,1-1.2,2.3-1.3,3.6h-3.3V18.3z M12.5,23.8h3.3c0.1,1.3,0.6,2.5,1.4,3.6h-4.7V23.8z M27,44.9c0,0.6-0.4,1.1-0.9,1.3l0,0
		c-0.4,0.2-0.9,0.1-1.3-0.2l-0.4-0.3c-0.6-0.4-1.3-0.6-1.9-0.6s-1.3,0.2-1.9,0.6c-0.5,0.4-1.2,0.4-1.6,0c-1.2-0.8-2.7-0.8-3.9,0
		L14.7,46c-0.4,0.3-0.9,0.3-1.3,0.2c-0.5-0.2-0.9-0.7-0.9-1.3V34.7H27V44.9z M27,32.8H12.5v-3.6h6.7c1.2,0.8,2.5,1.2,4,1.2H27V32.8z
		 M38.2,27.5c0,0.8-0.6,1.4-1.4,1.4H23.2c-3.2,0-5.8-2.6-5.8-5.8v-0.5c0-3.2,2.6-5.8,5.8-5.8h13.7c0.8,0,1.4,0.6,1.4,1.4V27.5z"/>
	<path d="M34.5,21.9L34,21.8c-0.2-0.1-0.3-0.1-0.4-0.2c-0.1,0-0.2-0.1-0.2-0.2c0-0.1-0.1-0.2-0.1-0.2c0-0.2,0.1-0.3,0.3-0.4
		c0.2-0.1,0.5-0.2,1-0.2c0.2,0,0.5,0,0.7,0c0.3,0,0.5,0.1,0.7,0.1v-1.3c-0.4-0.1-0.8-0.1-1.2-0.2v-0.9h-1.5v1
		c-0.5,0.1-0.9,0.4-1.1,0.7c-0.3,0.3-0.4,0.7-0.4,1.2c0,0.5,0.1,0.9,0.4,1.2c0.3,0.3,0.7,0.5,1.3,0.6l0.5,0.1
		c0.2,0.1,0.4,0.1,0.5,0.2c0.1,0.1,0.2,0.1,0.2,0.2c0.1,0.1,0.1,0.1,0.1,0.3c0,0.2-0.1,0.3-0.2,0.4c-0.2,0.1-0.4,0.1-0.8,0.1
		c-0.3,0-0.5,0-0.9-0.1c-0.3,0-0.6-0.1-0.9-0.2v1.3c0.4,0.1,0.9,0.2,1.4,0.2v0.9h1.5v-1c0.5-0.1,0.9-0.4,1.1-0.7
		c0.3-0.3,0.4-0.7,0.4-1.2c0-0.5-0.1-0.9-0.4-1.2C35.6,22.3,35.2,22,34.5,21.9z"/>
	<path d="M24.5,18.3c-2.3,0-4.1,1.8-4.1,4.1c0,2,1.5,3.7,3.4,4c0,0,0.1,0,0.1,0.1c0.1,0.2,0.3,0.5,0.4,0.6c0.1,0.1,0.2,0.2,0.3,0.1
		c0.1,0,0.1-0.1,0.1-0.1c0.1-0.1,0.2-0.4,0.4-0.6c0,0,0.1-0.1,0.1-0.1c1.9-0.3,3.4-2,3.4-4C28.6,20.1,26.7,18.3,24.5,18.3z
		 M24.5,24.6c-1.2,0-2.3-1-2.3-2.3c0-1.3,1-2.3,2.3-2.3c1.3,0,2.3,1,2.3,2.3C26.7,23.6,25.7,24.6,24.5,24.6z"/>
	<path d="M24.5,20.9c-0.8,0-1.5,0.7-1.5,1.5s0.7,1.5,1.5,1.5c0.8,0,1.5-0.7,1.5-1.5S25.3,20.9,24.5,20.9z M25,22.2
		c-0.2,0-0.4-0.2-0.4-0.4c0-0.2,0.2-0.4,0.4-0.4c0.2,0,0.4,0.2,0.4,0.4C25.3,22,25.2,22.2,25,22.2z"/>
</g>
</svg>
