<?xml version="1.0" encoding="utf-8"?>
<!-- Generator: Adobe Illustrator 24.0.1, SVG Export Plug-In . SVG Version: 6.00 Build 0)  -->
<svg version="1.1" id="Layer_1" xmlns="http://www.w3.org/2000/svg" xmlns:xlink="http://www.w3.org/1999/xlink" x="0px" y="0px"
	 viewBox="0 0 50.5 50.5" style="enable-background:new 0 0 50.5 50.5;" xml:space="preserve">
<path d="M17.3,13.7L17.3,13.7v6.2c0.4,0.2,0.7,0.3,1,0.6v-6.7c0-0.3-0.2-0.5-0.5-0.5C17.5,13.1,17.3,13.4,17.3,13.7z"/>
<path d="M19.5,13.7L19.5,13.7v7.7c0.4,0.4,0.7,0.8,1,1.3v-9c0-0.3-0.2-0.5-0.5-0.5C19.8,13.1,19.5,13.4,19.5,13.7z"/>
<path d="M21.8,13.7L21.8,13.7v18.1c0,0.3,0.2,0.5,0.5,0.5s0.5-0.2,0.5-0.5V13.7c0-0.3-0.2-0.5-0.5-0.5C22,13.1,21.8,13.4,21.8,13.7z
	"/>
<path d="M31,32.4h-1.3c-0.3,0-0.6,0.3-0.6,0.6s0.3,0.6,0.6,0.6H31c0.3,0,0.6-0.3,0.6-0.6S31.4,32.4,31,32.4z"/>
<path d="M36.7,32.4h-1.4c-0.3,0-0.6,0.3-0.6,0.6s0.3,0.6,0.6,0.6h1.4c0.3,0,0.6-0.3,0.6-0.6S37,32.4,36.7,32.4z"/>
<path d="M45.4,21.9L45.4,21.9c-0.4,0.3-0.8,0.5-1.2,0.7c-2.7,1-5.4-0.6-6.6-2.8c-1.6-3-4.2-4.4-7-3.7c-1.4,0.3-2.7,1.2-3.4,2.5
	c-0.2,0.3,0,0.7,0.3,0.8c0.1,0,0.2,0.1,0.3,0.1c0.2,0,0.4-0.1,0.5-0.3c0.6-1,1.5-1.7,2.6-1.9c2.2-0.6,4.3,0.6,5.6,3
	c1.2,2.3,3.5,3.7,6,3.8c0.7,0,1.4-0.1,2.1-0.4c0.5-0.2,0.9-0.4,1.3-0.7c0.3-0.2,0.4-0.6,0.2-0.9C45.9,21.8,45.6,21.8,45.4,21.9z"/>
<path d="M25,19c0.4,0,0.7-0.3,0.7-0.7v-6.8c0-0.5-0.4-1-1-1l0,0h-0.3v-2c0-0.5-0.4-1-1-1h-7.2c-0.5,0-1,0.4-1,1v2h-0.3
	c-0.5,0-1,0.4-1,1v7.8c0.2,0,0.4,0,0.6,0c0.3,0,0.5,0,0.8,0v-7.5h1.3v-3H23v3h1.2v6.5C24.3,18.7,24.6,19,25,19z"/>
<path d="M41.3,28.4l-0.1-1.9v-0.2c0-0.3-0.3-0.6-0.6-0.6c-0.1,0-0.1,0-0.2,0.1L35.8,28l-0.1-1.7c0-0.2-0.1-0.4-0.3-0.5
	s-0.4-0.1-0.6,0L30.2,28l-0.4-6.5c0-0.6-0.5-1-1-1l0,0h-2.5c-0.5,0-1,0.4-1,1l-0.9,13.8h-4c0.4,0.4,0.7,0.9,1,1.4h2.9l-0.2,3
	c0,0.3,0.1,0.5,0.2,0.7c0.2,0.2,0.5,0.4,0.7,0.4h16c0.3,0,0.6-0.1,0.7-0.4C42,40.2,42,40,42,39.7L41.3,28.4L41.3,28.4z M39.9,39.6
	H25.4l1.1-17.8h2.1l0.4,7.3c0,0.2,0.1,0.4,0.3,0.5c0.2,0.1,0.4,0.1,0.6,0l4.6-2.3l0.1,1.7c0,0.3,0.3,0.6,0.6,0.6
	c0.1,0,0.2,0,0.2-0.1l4.6-2.2l0.8,12.3H39.9z"/>
<path d="M17.4,34.1c-0.2-0.1-0.4-0.1-0.6,0c-1.7,0.9-3.9,0.9-5.6,0c-0.2-0.1-0.4-0.1-0.6,0c-2.7,1.4-4.5,4.3-4.7,7.6
	c0,0.3,0.1,0.5,0.3,0.6c2.4,1.3,5.1,2.1,7.8,2.1s5.4-0.7,7.8-2.1c0.2-0.1,0.4-0.4,0.3-0.6C21.9,38.4,20.1,35.5,17.4,34.1z M7.2,41.3
	c0.3-2.5,1.7-4.7,3.7-5.9c1.9,0.9,4.2,0.9,6.2,0c2,1.2,3.4,3.4,3.7,5.9C16.6,43.5,11.3,43.5,7.2,41.3z"/>
<path d="M13.9,33.7c2.5,0,6.1-2.9,6.1-7c0-3.5-2.8-6.2-6.1-6.2c-3.1,0-6.1,2.4-6.1,5.9C7.8,31.1,11.4,33.7,13.9,33.7z M13.9,21.8
	c2.7,0,4.8,2.1,4.8,4.8c0,3.4-3.1,5.6-4.8,5.6s-4.8-1.9-4.8-5.9C9.2,23.5,11.7,21.8,13.9,21.8z"/>
</svg>
