<?xml version="1.0" encoding="utf-8"?>
<!-- Generator: Adobe Illustrator 27.5.0, SVG Export Plug-In . SVG Version: 6.00 Build 0)  -->
<svg version="1.1" xmlns="http://www.w3.org/2000/svg" xmlns:xlink="http://www.w3.org/1999/xlink" x="0px" y="0px" width="50.46px"
	 height="50.46px" viewBox="0 0 50.46 50.46" enable-background="new 0 0 50.46 50.46" xml:space="preserve">
<g id="fondo">
</g>
<g id="linea_expandida" display="none">
</g>
<g id="stroke_1_x2C_6">
	<title>notificaciones</title>
	<g>
		<g>
			<path d="M11.599,35.216H6.693c0.024,0.434,0.117,0.775,0.277,1.024c0.16,0.248,0.41,0.428,0.75,0.539
				c0.34,0.112,0.803,0.166,1.389,0.166c0.616,0,1.295-0.086,2.039-0.259v1.767c-0.788,0.182-1.579,0.273-2.372,0.273
				c-1.03,0-1.871-0.146-2.523-0.439c-0.653-0.293-1.137-0.748-1.452-1.363c-0.315-0.616-0.473-1.416-0.473-2.401
				c0-0.887,0.146-1.642,0.44-2.265c0.293-0.623,0.72-1.095,1.282-1.414c0.562-0.321,1.241-0.48,2.039-0.48
				c1.143,0,2.013,0.361,2.612,1.082c0.598,0.722,0.898,1.772,0.898,3.151V35.216z M7.047,32.313
				c-0.227,0.305-0.347,0.817-0.362,1.536h2.711c-0.015-0.724-0.13-1.238-0.347-1.54c-0.217-0.303-0.546-0.455-0.99-0.455
				C7.612,31.855,7.274,32.008,7.047,32.313z"/>
			<path d="M12.692,30.489h1.943l0.163,0.82h0.111c0.295-0.306,0.645-0.539,1.049-0.702c0.404-0.162,0.844-0.243,1.323-0.243
				c0.852,0,1.524,0.256,2.017,0.768c0.492,0.512,0.739,1.315,0.739,2.409v5.031h-2.364V33.68c0-0.468-0.096-0.799-0.288-0.994
				c-0.192-0.194-0.475-0.292-0.85-0.292c-0.281,0-0.554,0.057-0.82,0.17c-0.266,0.113-0.485,0.278-0.658,0.495v5.511h-2.364V30.489
				z"/>
			<path d="M26.73,30.489h2.327l-2.852,8.082H23.25l-2.837-8.082h2.468l1.921,5.94L26.73,30.489z"/>
			<path d="M30.036,28.996c-0.243-0.212-0.365-0.514-0.365-0.908c0-0.399,0.12-0.705,0.362-0.916s0.608-0.318,1.101-0.318
				c0.488,0,0.852,0.106,1.094,0.318c0.241,0.212,0.362,0.517,0.362,0.916c0,0.394-0.12,0.696-0.362,0.908
				c-0.241,0.212-0.606,0.318-1.094,0.318C30.646,29.314,30.28,29.207,30.036,28.996z M29.952,38.571v-8.082h2.364v8.082H29.952z"/>
			<path d="M38.463,30.688c0.541,0.216,0.943,0.573,1.204,1.068c0.261,0.495,0.391,1.166,0.391,2.013v4.802h-1.95l-0.163-0.797
				h-0.111c-0.236,0.32-0.539,0.558-0.909,0.713c-0.369,0.155-0.78,0.233-1.233,0.233c-0.542,0-1.01-0.098-1.404-0.292
				c-0.394-0.194-0.695-0.468-0.905-0.82c-0.209-0.352-0.314-0.763-0.314-1.231c0-0.773,0.27-1.372,0.809-1.795
				c0.539-0.424,1.39-0.672,2.553-0.746l1.315-0.111v-0.104c0-0.374-0.06-0.667-0.18-0.879c-0.121-0.211-0.313-0.363-0.577-0.454
				c-0.263-0.091-0.624-0.137-1.082-0.137c-0.329,0-0.69,0.027-1.082,0.081c-0.392,0.055-0.763,0.136-1.112,0.244v-1.773
				c0.383-0.109,0.81-0.193,1.278-0.252c0.468-0.058,0.914-0.088,1.338-0.088C37.209,30.363,37.921,30.471,38.463,30.688z
				 M37.148,36.957c0.221-0.081,0.421-0.211,0.598-0.388v-1.515l-1.078,0.081c-0.444,0.035-0.766,0.137-0.968,0.307
				s-0.302,0.408-0.302,0.713c0,0.301,0.091,0.53,0.273,0.687c0.182,0.158,0.448,0.237,0.798,0.237
				C36.699,37.079,36.925,37.038,37.148,36.957z"/>
			<path d="M41.232,30.489h1.928l0.185,1.041h0.112c0.221-0.389,0.517-0.678,0.886-0.868c0.37-0.189,0.788-0.284,1.256-0.284
				c0.236,0,0.453,0.019,0.65,0.058v2.135c-0.217-0.044-0.483-0.066-0.797-0.066c-0.36,0-0.712,0.069-1.057,0.207
				c-0.344,0.138-0.611,0.327-0.797,0.568v5.29h-2.364V30.489z"/>
		</g>
		<g>
			<path d="M45.328,42.05H33.98c-0.512,0-0.926-0.415-0.926-0.926c0-0.512,0.415-0.926,0.926-0.926h11.349
				c0.512,0,0.926,0.415,0.926,0.926C46.255,41.635,45.84,42.05,45.328,42.05z"/>
		</g>
	</g>
	<g>
		<path d="M25.23,11.423c0.73,0,1.324-0.594,1.324-1.324c0-0.73-0.594-1.324-1.324-1.324c-0.73,0-1.324,0.594-1.324,1.324
			C23.906,10.829,24.5,11.423,25.23,11.423z"/>
		<path d="M38.63,23.778l-6.97-10.097c-0.168-0.243-0.444-0.389-0.74-0.389h-0.474c0.397-0.975,0.659-2.043,0.659-3.194
			c0-3.24-2.636-5.876-5.876-5.876c-3.24,0-5.875,2.636-5.875,5.876c0,1.147,0.267,2.216,0.67,3.194H19.54
			c-0.295,0-0.572,0.146-0.74,0.389l-6.97,10.097c-0.19,0.275-0.211,0.633-0.056,0.929s0.462,0.481,0.796,0.481H37.89
			c0.334,0,0.641-0.186,0.796-0.481S38.82,24.054,38.63,23.778z M24.713,19.036c0.155,0.108,0.336,0.163,0.517,0.163
			c0.178,0,0.356-0.053,0.51-0.159c0.056-0.038,0.429-0.3,0.954-0.752c1.772,1.061,3.519,2.073,5.264,3.081
			c1.154,0.666,2.311,1.338,3.473,2.021H15.011c1.134-0.673,2.264-1.338,3.39-1.998c1.763-1.033,3.528-2.07,5.322-3.152
			C24.266,18.716,24.657,18.996,24.713,19.036z M30.449,15.092l4.944,7.161c-0.989-0.577-1.973-1.147-2.956-1.715
			c-1.658-0.957-3.321-1.922-5.005-2.928c0.667-0.649,1.424-1.499,2.08-2.518H30.449z M25.23,6.022c2.248,0,4.077,1.829,4.077,4.077
			c0,3.369-2.876,6.081-4.074,7.064c-1.199-0.993-4.081-3.728-4.081-7.064C21.152,7.851,22.981,6.022,25.23,6.022z M20.011,15.092
			h0.956c0.641,0.99,1.376,1.823,2.027,2.467c-1.709,1.028-3.395,2.02-5.077,3.005c-0.943,0.552-1.886,1.105-2.833,1.665
			L20.011,15.092z"/>
	</g>
</g>
</svg>
