<svg id="Layer_1" data-name="Layer 1" xmlns="http://www.w3.org/2000/svg" viewBox="0 0 50.46 50.46"><defs><style>.cls-1{fill:#12b5e1;}.cls-2{fill:none;}</style></defs><title>prohibido celular</title><path class="cls-1" d="M27.47,12.06H23a.64.64,0,0,1,0-1.28h4.48a.64.64,0,0,1,0,1.28Z"/><path class="cls-2" d="M17.08,38.51A2.92,2.92,0,0,0,20,41.43H30.46a2.92,2.92,0,0,0,2.92-2.92V36.85H17.08Zm8.15-1.18a1.77,1.77,0,1,1-1.76,1.77A1.77,1.77,0,0,1,25.23,37.33Z"/><path class="cls-2" d="M25.23,40.07a1,1,0,1,0-1-1A1,1,0,0,0,25.23,40.07Z"/><path class="cls-2" d="M33.38,12A2.92,2.92,0,0,0,30.46,9H20A2.92,2.92,0,0,0,17.08,12v1.12h16.3Z"/><path class="cls-1" d="M33.38,35.57H18.23L15.81,38v.52A4.2,4.2,0,0,0,20,42.7H30.46a4.2,4.2,0,0,0,4.19-4.19V19.15l-1.27,1.27Zm0,2.94a2.92,2.92,0,0,1-2.92,2.92H20a2.92,2.92,0,0,1-2.92-2.92V36.85h16.3Z"/><path class="cls-1" d="M17.08,14.35H32.77l1.88-1.88V12a4.2,4.2,0,0,0-4.19-4.19H20A4.2,4.2,0,0,0,15.81,12V31.31L17.08,30Zm0-2.4A2.92,2.92,0,0,1,20,9H30.46A2.92,2.92,0,0,1,33.38,12v1.12H17.08Z"/><path class="cls-1" d="M25.23,40.87a1.77,1.77,0,1,0-1.76-1.77A1.77,1.77,0,0,0,25.23,40.87Zm0-2.74a1,1,0,1,1-1,1A1,1,0,0,1,25.23,38.13Z"/><path class="cls-1" d="M25.23,2.65A22.58,22.58,0,1,0,47.81,25.23,22.61,22.61,0,0,0,25.23,2.65Zm0,2.36a20.1,20.1,0,0,1,13.41,5.13L10.15,38.65A20.18,20.18,0,0,1,25.23,5Zm0,40.44a20.06,20.06,0,0,1-13.41-5.14l28.49-28.5A20.18,20.18,0,0,1,25.23,45.45Z"/></svg>