<?xml version="1.0" encoding="utf-8"?>
<!-- Generator: Adobe Illustrator 24.0.3, SVG Export Plug-In . SVG Version: 6.00 Build 0)  -->
<svg version="1.1" id="Capa_1" xmlns="http://www.w3.org/2000/svg" xmlns:xlink="http://www.w3.org/1999/xlink" x="0px" y="0px"
	 viewBox="0 0 50.5 50.5" style="enable-background:new 0 0 50.5 50.5;" xml:space="preserve">
<style type="text/css">
	.st0{fill-rule:evenodd;clip-rule:evenodd;fill:#1D1D1B;}
</style>
<g>
	<path id="Buenos_Aires_4_" class="st0" d="M16.347,42.988c-0.455-0.533-0.707,0.442-0.677,0.708
		c0.413-0.14,0.152,0.114,0.372,0.245C16.395,43.86,16.624,43.285,16.347,42.988z M16.575,41.7c-0.971-0.932-0.178,0.962,0,0.879
		C16.542,42.321,16.549,41.958,16.575,41.7z M17.163,35.928c-0.099-0.161-0.544-0.358-0.953-0.411
		C16.185,36.001,17.576,36.84,17.163,35.928z M16.594,35.385c0.535-0.128-0.259-0.425-0.478-0.35
		C15.967,35.278,16.445,35.179,16.594,35.385z M39.988,22.463c-0.134-1.206,0.117-2.874-1.216-1.954
		c-5.213-3.685,2.718-4.49-3.56-7.913c-0.737-0.772-2.124-0.632-2.647-1.724c-1.219-0.683,0.075-1.051-0.854-1.597
		c0.517-0.11,0.818-0.246,0.757-0.929c0.121-1.019-0.844-0.102-1.289-0.417c-0.665-0.651-1.635-1.087-2.415-1.231
		c-0.203-0.518-0.144-0.318-0.707-0.309c-0.339-0.155-0.501-0.606-0.92-0.324c-1.095-0.495-2.077-1.456-3.028-2.211
		c0.245,0.275-0.068,0.349-0.215,0.501c-0.095,0.447-0.394,0.873-0.541,1.364c-0.12,0.166-0.412,0.211-0.575,0.081
		c-0.298-0.343-0.964-0.424-1.368-0.335c-0.235,0.874-1.458,1.923-2.06,2.672c-0.742,0.435-0.853,1.338-1.478,1.605
		c-3.526,0.168-6.639-0.189-7.098,0.122c-0.487,0.376-0.151,2.959-0.216,13.233c0.008,7.038,0.003,14.422,0.004,21.462
		c2.777,0.835,2.047,2.768,3.42,1.838c1.038-0.412,1.44-1.121,1.81-2.037c0.142-0.31-0.765,0.456-0.601,0.063
		c-0.298-0.703,0.379,0.342,0.351-0.3c0.011-0.318-0.362-0.171-0.327-0.548c-0.741-0.382-0.932-1.355-0.151-1.78
		c0.063-0.602,0.066-1.155,0.208-1.77c0.071-0.21,0.075-0.172,0.031-0.407c1.231,1.014,0.733-1.262,1.095-1.852
		c0.127-0.306-0.29-0.196-0.434-0.33c-0.225-0.172-0.265-0.455-0.518-0.503c-0.167-0.309,0.485-0.197,0.51,0.077
		c1.212,0.876,0.272-0.656-0.702-0.492c-0.096-0.179,0.097-0.095,0.192-0.057c0.158-0.012-0.344-0.295-0.326-0.45
		c-0.061-0.502,0.149-0.814,0.32-1.248c-0.292,0.114-0.258-0.105-0.271-0.324c-0.177-0.022-0.218-0.151-0.194-0.409
		c-0.18-0.342,0.877-0.067,1.039-0.033c0.103,0.625,0.812,0.788,1.331,0.915c1.638,0.107,3.446,0.141,5.167-0.213
		c4.515-1,10.824-1.359,13.709-5.144C36.206,27.441,40.174,24.921,39.988,22.463z"/>
</g>
</svg>
