<?xml version="1.0" encoding="utf-8"?>
<!-- Generator: Adobe Illustrator 24.0.3, SVG Export Plug-In . SVG Version: 6.00 Build 0)  -->
<svg version="1.1" id="Capa_1" xmlns="http://www.w3.org/2000/svg" xmlns:xlink="http://www.w3.org/1999/xlink" x="0px" y="0px"
	 viewBox="0 0 50.5 50.5" style="enable-background:new 0 0 50.5 50.5;" xml:space="preserve">
<style type="text/css">
	.st0{fill-rule:evenodd;clip-rule:evenodd;fill:#1D1D1B;}
</style>
<path id="La_Rioja_4_" class="st0" d="M42.728,25.084c-0.416-1.038-0.746-2.041-1.075-2.993c-0.293-0.845-0.586-1.651-0.939-2.406
	c-0.457-0.978-1.014-1.87-1.802-2.654c-0.77-0.766-1.761-1.429-3.093-1.967c-0.728-0.331-0.059-0.674,0.068-1.114
	c0.022-0.075,0.007-0.131-0.023-0.201c-0.043-0.073-0.24-0.125-0.355-0.199c-0.35-0.225-0.639-0.543-0.79-0.926
	c-0.154-0.392-0.112-0.851-0.255-1.223c-0.117-0.304-0.3-0.405-0.507-0.636c-0.185-0.205-0.35-0.416-0.611-0.521
	c-0.635-0.258-1.406-0.572-2.312-0.923c-0.421-0.163-0.746-0.362-1.099-0.327c-0.162,0.016-0.282,0.131-0.421,0.206
	c-0.059,0.042-0.07,0.151-0.116,0.214c-0.249,0.341-0.699,0.454-1.12,0.479c-1.095,0.174-3.907-0.465-5.25,0.004
	c-0.171,0.06-0.326,0.277-0.41,0.249c-0.084-0.029-0.106-0.208-0.163-0.316c-0.105-0.198-0.246-0.391-0.387-0.579
	c-0.192-0.255-0.394-0.5-0.383-0.796c0.006-0.162-0.048-0.393-0.061-0.505c-0.022-0.203,0.068-0.362-0.014-0.421
	c-0.182-0.132-0.288-0.01-0.482,0.045c-0.147,0.042-0.227,0.003-0.386,0.076c-0.297,0.122-0.543,0.303-0.745,0.074
	c-0.553-0.777-1.192-0.466-1.427-0.564c-0.225-0.078-0.293-0.297-0.465-0.515c-0.049-0.062-0.108-0.12-0.22-0.182
	c-0.097-0.04-0.208-0.058-0.28-0.055c-0.349,0.013-0.445-0.019-0.519-0.133c-0.126-0.196,0.194-0.849,0.068-1.068
	c-0.44-0.434,0.431-1.33-0.085-1.518c-0.707-0.258-0.767,0.256-1.208,0.3c-0.231,0.023-0.335-0.276-0.752-0.204
	c-0.211,0.037-0.278,0.083-0.666,0.11c-0.45,0.031-0.679,0.292-1.042,0.303c-0.996,0.031-1.91-0.171-2.51-0.214
	c-0.078,0.324-0.216,0.903-0.348,1.532c-0.352,0.661-1.249,0.502-1.409,1.298C8.791,7.676,8.582,8.54,7.709,8.291
	c0.304,1.011-2.337,2.014-0.859,2.215c0.359,0.357,0.693,0.108,1.075,0.131c0.239,0.597,0.675,0.457,1.161,0.559
	c1.624,1.094,2.267,2.995,3.173,4.583c1.808,1.417-1.418,1.476,0.198,3.544c0.168,0.211,0.219,0.479-0.104,0.547
	c0.034,1.18-1.517,3.671,0.819,2.934c0.587,0.405,1.183-0.377,1.781-0.141c0.284,0.174,0.669,0.504,1.03,0.407
	c2.412-0.096,3.85,2.292,5.444,3.653c0.273,0.407,0.776,0.652,1.194,1.003c0.257,0.215,0.407,0.547,0.673,0.755
	c0.711,0.557,1.388,1.106,1.548,1.992c0.031,0.105,0.071,0.187,0.176,0.286c0.161,0.152,0.439,0.237,0.621,0.433
	c0.184,0.199,0.272,0.511,0.432,0.684c0.253,0.274,0.55,0.423,0.785,0.718c0.297,0.374,0.491,0.855,0.806,1.176
	c0.212,0.216,0.411,0.142,0.66,0.449c0.2,0.246,0.216,0.571,0.321,0.79c0.205,0.427,0.562,0.714,0.574,1.018
	c0.023,0.58-0.353,0.972-0.258,1.341c0.024,0.094,0.099,0.174,0.166,0.267s0.225,0.148,0.276,0.263
	c0.051,0.115-0.033,0.267-0.051,0.4c-0.044,0.318-0.079,0.672-0.139,1.027c-0.078,0.466-0.21,0.929-0.185,1.401
	c0.018,0.344,0.33,0.724,0.415,1.034c0.091,0.329-0.041,0.584,0.113,0.853c0.205,0.357,0.531,0.69,0.92,0.878
	c0.204,0.098,0.664,0.043,0.736,0.15c0.056,0.11,0.107,0.441,0.116,0.701c0.016,0.462,0.104,0.732,0.479,0.745
	c0.315,0.318,0.238,0.876,0.549,1.154c0.122,0.109,0.351,0.092,0.613,0.125c0.245,0.034,0.4,0.261,0.606,0.279
	c0.206,0.018,0.387-0.177,0.647-0.078c0.196,0.248,0.618,0.04,0.872,0.09c0.294,0.173,0.621,0.214,0.952,0.103
	c0.843,0.227,1.567-0.409,2.347-0.572c0.811-0.09,1.122,0.634,2.632,0.148c-0.008-0.7-0.033-1.363-0.022-2.012
	c0.016-0.917,0.001-1.801-0.021-2.634c-0.038-1.422-0.161-2.612-0.003-3.71c0.172-1.195,0.641-2.278,0.966-3.302
	c0.839-2.637,1.379-3.564,2.216-6.41C44.165,27.717,43.435,26.737,42.728,25.084z"/>
</svg>
