<?xml version="1.0" encoding="utf-8"?>
<!-- Generator: Adobe Illustrator 24.0.3, SVG Export Plug-In . SVG Version: 6.00 Build 0)  -->
<svg version="1.1" id="Capa_1" xmlns="http://www.w3.org/2000/svg" xmlns:xlink="http://www.w3.org/1999/xlink" x="0px" y="0px"
	 viewBox="0 0 50.5 50.5" style="enable-background:new 0 0 50.5 50.5;" xml:space="preserve">
<style type="text/css">
	.st0{fill:#1D1D1B;}
</style>
<path class="st0" d="M41.261,27.265c-0.132-0.159-0.323-0.395-0.551-0.39c-0.15-0.157-0.427-0.44-0.651-0.262l-0.075-0.085
	c0.587-0.157,1.246,0.426,0.825-0.654c-0.182-0.404-1.386-0.252-1.059,0.399c-0.251-0.21-0.438,0.307-0.1,0.309
	c-0.242,0.086-0.226-0.33-0.334-0.473c-0.024-0.425,0.39,0.191,0.437-0.33c-0.212-0.104-0.442,0.013-0.666-0.022
	c-0.108,0.171-0.296,0.18-0.463,0.086c0.047-0.109,0.33-0.253,0.388-0.399c0,0,0.661,0.086,0.661,0.086
	c0.278-0.145,0.818-0.005,0.825-0.44c-0.021-0.564-0.207-1.184-0.71-1.5c-0.48-0.162-0.302-0.834-0.526-1.182
	c-0.716-0.503-1.102-1.521-2.167-1.398c0.039,0.173-0.332,0.288-0.452,0.323l-0.085-0.269l-0.16,0.034l0.105,0.358l-0.342,0.034
	l0-0.004l-0.249,0.02l-0.172-0.6l0.321-0.17l-0.001-0.002c0.023-0.012,0.1-0.052,0.123-0.06c0.055,0.09,0.233,0.525,0.322,0.221
	c-0.125-0.207-0.324-0.759-0.589-0.794c0.044-0.011,1.33-0.331,1.374-0.342l-0.002-0.297l-0.64,0.044l-0.016-0.168
	c0.04-0.002,0.61-0.043,0.647-0.044l-0.037-0.451c-0.138-0.018-0.941,0.205-0.973-0.047l0.873-0.099
	c-0.059-0.751-1.291-0.08-1.625-0.466c0.036-0.004,0.806-0.081,0.839-0.085c-0.106-0.774-1.363-0.144-1.734-0.532l0.852-0.093
	c0.109-0.171-0.742-0.592-0.813-0.674c-0.191-0.01-1.15,0.175-1.255-0.078l0.832-0.083c-0.005-0.305-0.578-0.412-0.495-0.807
	c-0.039-0.154-1.483,0.083-1.577,0.062c0.006,0.089-0.119,0.201-0.153,0.284l1.393,0.961c-0.367,0.446-1.209-0.58-1.565-0.716l0,0
	c-0.009-0.017-0.029-0.056-0.037-0.074l0,0c-0.086-0.146-0.186-0.456-0.317-0.537c-0.091-0.129-0.212-0.512-0.427-0.455
	c0.102-0.195,0.099-0.412-0.166-0.439c-0.185-0.255-0.551-0.195-0.804-0.115l0.087-0.056l-0.01-0.017l0.462-0.289l0.002,0.005
	c0.056-0.032,0.13-0.094,0.186-0.127l0.007,0.01l0.091-0.055l-0.064-0.103l-0.092,0.059l0.006,0.01l-0.076,0.05l-0.006-0.009
	c-0.051,0.047-0.497,0.327-0.566,0.37l-0.013-0.018c-0.001,0.001-0.091,0.06-0.091,0.061c-0.088-0.149-0.376-0.248-0.384-0.443
	c-0.12-0.238-0.408-0.361-0.579-0.547c0.023-0.01-0.012-0.052-0.016-0.065c0.023-0.024,0.113-0.11,0.125-0.14l-0.009-0.006
	c0.039-0.079-0.078-0.17-0.147-0.123l-0.01-0.008c-0.007,0.006-0.147,0.152-0.156,0.144c-0.467-0.455-1.169-0.631-1.778-0.804
	l0.01-0.032l-0.168-0.048l-0.009,0.03l-0.185-0.064l0.006-0.018l-0.089-0.034l-0.007,0.017c-0.061-0.024-0.183-0.078-0.24-0.108
	c0.016-0.04,0.182-0.42,0.183-0.451c-0.203-0.011-0.444-0.096-0.645-0.091c-0.066-0.118-0.244-0.229-0.227-0.365l-0.008-0.001
	c0.08-0.442-0.311-0.773-0.686-0.915c0.07-0.303-0.239-0.51-0.492-0.587c-0.159,0.009-0.314,0.121-0.444-0.029l-0.018,0.084
	c0.035-0.572-0.964-1.143-1.286-0.54c-0.032-0.035-0.084-0.115-0.102-0.16l0.103-0.092l-0.085-0.115
	c-0.163,0.082-0.24,0.235-0.176,0.411c-0.126,0.073-0.297,0.284-0.361,0.413c-0.18-0.054-0.357-0.216-0.408-0.399l0.298-0.293
	c0.199-0.022,0.656,0.02,0.504-0.32c-0.445-1.343-0.291-0.008-0.799,0.125c-0.014-0.025-0.033-0.079,0.004-0.095
	c-0.012-0.011,0.03-0.102,0.033-0.114l-0.049,0.028c-0.087-0.084-0.051-0.26,0.08-0.248c0.579-0.22-0.026-0.993-0.339-1.237
	c-0.472-0.235-0.619,0.365-0.823,0.664c0.049,0.202-0.169,0.366-0.306,0.471c-0.461,0.522-1.285,0.768-1.903,1.077l0,0
	c-0.016,0.008-0.058,0.028-0.075,0.036l0,0c-1.334,0.865-3.016,1.426-4.191,2.434c-0.398,1.201-0.894,2.438-1.397,3.613l0,0
	c-0.814,2.073-1.581,4.233-2.416,6.294c-0.352,0.948-0.815,2.093-1.155,3.041c0.034,0.764,0.085,1.654,0.115,2.42l0.001,0
	c-0.009,0.394,0.12,0.976-0.034,1.351l0.001,0c0.251,0.869,0.191,2.865,0.291,3.785c1.076,1.397,3.207,2.962,4.448,4.243
	l0.001-0.001c0.608,0.613,1.408,1.318,2.082,1.847c0.298,0.5,0.318,0.881,0.987,0.967l0,0c0.017,0.011,0.052,0.036,0.068,0.047l0,0
	c1.11,0.948,2.443,2.27,3.486,3.248c0.92-1.162,2.003-2.806,2.853-4.031c0.799-1.104,1.594-2.279,2.352-3.429
	c0.531-0.998,1.505-1.596,2.588-1.837c0.359-0.07,0.654,0.23,0.988,0.281c0.271,0.053,0.538-0.147,0.811-0.087
	c0.161,0.028,0.284,0.184,0.423,0.253c0.379,0.072,0.061-0.421,0.232-0.522c0.133-0.012,0.287,0.093,0.366,0.194
	c0.016,0.191-0.381,0.152-0.316,0.386c0.011,0.217,0.297,0.174,0.443,0.171c0.191,0.079,0.493,0.106,0.679,0.003
	c0.128-0.23,0.386-0.254,0.604-0.334c0.208-0.208,0.351-0.563,0.698-0.544c0.502,0.04,1.025-0.128,1.519-0.115
	c0.148-0.096,0.406-0.476,0.587-0.539c0.38-0.126,0.108-0.627,0.473-0.751l0,0.001c0.203-0.133,0.659-0.448,0.907-0.443
	c0.185-0.096,0.371-0.395,0.541-0.512c0.575-0.203,0.364-0.446,0.215-0.889c-0.152-0.613,0.84-0.919,1.063-1.469
	c-0.371-0.07-0.379-0.665-0.537-0.924c-0.056-0.187-0.955-0.833-1.106-0.961l0.03-0.037l0,0l0.058-0.072l0.803,0.613l-0.008,0.017
	l0.188,0.148l0.007-0.006c0.075,0.087,0.231,0.305,0.37,0.268c0.155,0.712,0.502,0.779,1.088,0.426
	c-0.41,0.039-0.677-0.568-0.265-0.755c0.015,0.016,0.251,0.26,0.257,0.265l0.136-0.123c0.189,0.224,0.343,0.279,0.591,0.099
	l-0.484-0.474c0.263-0.094,0.661,0.269,0.719,0.492C40.78,27.8,41.325,27.581,41.261,27.265z M36.408,25.479l-0.085-0.925
	c0.028-0.001,0.1-0.006,0.125-0.018l0,0l0.068-0.004l0.089,0.928C36.552,25.466,36.462,25.48,36.408,25.479z M36.392,23.162
	l0.107,1.143c-0.048,0.008-0.147,0.016-0.196,0.017l-0.104-1.141l0.116-0.011l0-0.001L36.392,23.162z M36.519,26.639l-0.09-0.935
	l0.084-0.011l0,0.001l0.116-0.01l0.09,0.936L36.519,26.639z M36.277,21.906l0.099,1.045l-0.085,0.007l0-0.001l-0.111,0.01
	l-0.102-1.038l0.115-0.013v0L36.277,21.906z"/>
</svg>
