<?xml version="1.0" encoding="utf-8"?>
<!-- Generator: Adobe Illustrator 24.0.3, SVG Export Plug-In . SVG Version: 6.00 Build 0)  -->
<svg version="1.1" id="Capa_1" xmlns="http://www.w3.org/2000/svg" xmlns:xlink="http://www.w3.org/1999/xlink" x="0px" y="0px"
	 viewBox="0 0 50.5 50.5" style="enable-background:new 0 0 50.5 50.5;" xml:space="preserve">
<style type="text/css">
	.st0{fill-rule:evenodd;clip-rule:evenodd;fill:#1D1D1B;}
</style>
<g>
	<path id="Corrientes_4_" class="st0" d="M43.515,16.25c-1.247-0.772-2.019-2.212-2.056-3.662c-0.022-1.152-2.141-3.291-1.281-4.428
		c0.623-0.259-0.751-0.373-0.967-0.516c-0.63-0.09-0.856,0.81-1.425,0.796c-0.339,0.479-0.414,1.309-0.836,1.816
		c-0.65,0.961-1.417-0.722-1.786-1.042c-1.633-0.146-1.674,0.986-2.916-0.079c-0.203-0.174-0.492-0.218-0.741-0.12
		c-1.158,0.458-2.103,0.801-3.159-0.026c-0.143-0.112-0.321-0.173-0.503-0.168c-1.429,0.041-2.72-0.726-4.096-1.076
		c-2.627-0.858-7.023-0.89-9.012,1.207c-0.292,0.308-0.685,0.174-0.86,0.578c0.057,0.719,0.271,0.695,0.472,1.317
		c0.645,1.996-0.21,2.249-0.037,3.283c0.094,0.563-0.312,1.209-0.582,1.622c-0.669,0.411-1.705,0.123-1.527,1.193
		c0.3,2.438,0.012,4.894-0.833,7.105c-0.491,3.836-4.457,1.395-3.693,7.385c-1.436,3.22,0.601,3.316-0.456,5.769
		c-1.104,3.145,2.133,0.687,3.626,1.812c1.187-0.736,1.942-1.841,3.299-1.215c1.079-0.014,2.197-1.316,3.081-0.498
		c3.584-0.232,3.986,3.669,6.002,5.546c1.294,1.093-0.31-1.18-0.181-1.665c1.003-1.758,2.381-1.897,2.517-3.844
		c1.978-0.48,2.461-2.726,3.154-4.073c1.423-0.113,2.262-1.01,2.808-2.148c0.865-0.65,1.332-1.538,1.79-2.269
		c1.192-0.409,0.594-1.881,1.528-2.435c0.654-0.564,1.796-0.403,1.562-1.461c0.6-0.733,1.141-1.191,1.131-2.173
		c1.07-0.167,1.651-1.441,2.38-2.007c-0.177-0.875,0.318-1.072,1.013-1.181c0.189-0.881,0.036-1.507,1.261-1.152
		c0.419-0.013,0.42,0.397,0.59,0.506c0.382-0.283,0.515-1.104,0.022-1.256C41.223,17.201,43.21,16.85,43.515,16.25z"/>
</g>
</svg>
