<?xml version="1.0" encoding="utf-8"?>
<!-- Generator: Adobe Illustrator 24.0.3, SVG Export Plug-In . SVG Version: 6.00 Build 0)  -->
<svg version="1.1" id="Capa_1" xmlns="http://www.w3.org/2000/svg" xmlns:xlink="http://www.w3.org/1999/xlink" x="0px" y="0px"
	 viewBox="0 0 50.5 50.5" style="enable-background:new 0 0 50.5 50.5;" xml:space="preserve">
<style type="text/css">
	.st0{fill-rule:evenodd;clip-rule:evenodd;fill:#1D1D1B;}
</style>
<path id="Río_Negro_4_" class="st0" d="M46.942,32.868c-0.41-1.126-1.534-2.138-2.787-2.088c0-2.32,0.051-6.552-0.054-8.602
	c-0.119-0.213-0.513-0.116-0.695-0.256c-2.315-2.066-5.487-3.514-8.674-2.727C34.12,18.66,33.667,18.97,33.115,19
	c-0.868-0.287-2.078-0.706-3.049-0.437c-1.174,0.224-0.923-1.033-1.813-1.207c-0.851-0.508-2.086-0.655-2.132-1.907
	c-1.15,0.109-2.161,0.604-2.655-0.888c-0.276-0.116-0.631,0.028-0.653-0.415c-0.049-0.805,0.68-0.583,0.761-1.643
	c-0.026-0.719-0.962-0.944-2.559-1.018c0.136,1.417-0.497,4.578-0.013,6.617c0.153,0.643,0.572,0.849,0.965,1.492
	c0.478,0.756-0.881,0.642-1.292,0.356c-1.282,0.902-2.227,2.01-3.103,3.268c-1.308,0.172-1.686,1.449-2.7,2.054
	c-1.28-0.211-2.416,1.058-2.24,2.312c-0.323,0.458-0.261,1.1-0.45,1.569c-0.318,0.115-0.453,0.185-0.518,0.557
	c-0.3,0.103-0.771,0.112-1.098,0.18c-0.198-0.112-0.369-0.493-0.625-0.272c-0.48,0.814-1.827,0.089-2.092,1.119
	c-1.549,0.792,1.157,1.049-0.954,2.388c-0.216-0.017-0.479,0.063-0.662,0.044c-0.945-0.355-1.812-0.456-2.436-0.429
	c0.009,0.312-0.145,0.743-0.167,1.997c-0.006,0.343,0.104,0.749,0.102,1.23c0.309,0.261-0.042,0.423-0.215,0.593
	c0.129,0.725,0.771,1.571,0.695,2.358c2.004,0.031,9.542,0.048,11.328,0.048c2.833,0,9.85-0.091,15.099,0.004
	c2.114,0.038,5.047,0.05,5.428-0.02c0.079-0.349,0.344-0.96,0.306-1.31c-0.114-1.06,0.2-1.124,0.034-1.808
	c-0.401-1.657-1.372-3.284-0.129-4.574c0.018-0.223,0.745,0.008,0.581-0.153c-0.135-0.215,0.007-0.232-0.34-0.193
	c0.19-0.232,1.283-0.146,0.91,0.183c0.914,0.559-1.015,0.03-0.405,0.453c0.985,0.059,1.967,0.442,2.813,0.815
	c0.366,0.162,0.718,0.108,1.056,0.299c0.441,0.249,0.795,0.639,1.182,0.903C43.661,33.585,45.673,33.941,46.942,32.868z"/>
</svg>
