<?xml version="1.0" encoding="utf-8"?>
<!-- Generator: Adobe Illustrator 24.0.3, SVG Export Plug-In . SVG Version: 6.00 Build 0)  -->
<svg version="1.1" id="Capa_1" xmlns="http://www.w3.org/2000/svg" xmlns:xlink="http://www.w3.org/1999/xlink" x="0px" y="0px"
	 viewBox="0 0 50.5 50.5" style="enable-background:new 0 0 50.5 50.5;" xml:space="preserve">
<style type="text/css">
	.st0{fill-rule:evenodd;clip-rule:evenodd;fill:#1D1D1B;}
</style>
<path id="Córdoba_4_" class="st0" d="M38.478,29.62c-0.311-0.38-0.455-1.166-1.012-1.222c-0.119-0.147,0.301-0.461,0.098-0.685
	c-0.339-0.238-0.068-0.861-0.466-1.109c-0.705-0.267-0.616-1.15-1.036-1.587c-0.881-0.363-0.889-1.294-0.544-2.059
	c-0.243-0.373-0.302-0.898-0.217-1.345c0.322-1.036,3.601-7.222,2.364-8.126c-3.867-2.826-0.825-5.048-2.831-7.26
	c-1.975-0.484-6.924,1-7.683-0.85c-0.675-0.387-1.876,0.188-2.559-0.28c-3.184-2.336-2.845-1.422-6.8-0.529
	c-1.212,0.379,0.379,2.607-1.111,3.235c-0.814,0.42-2.198,0.357-2.431,1.183c-0.839,2.968-2.911,7.742-2.22,13.376
	c0.447,0.116,0.254-0.344,0.693-0.142c0.855,0.393,2.246,1.502,2.688,1.998c0.104,0.496,0.162,1.271,0.447,1.588
	c2.481-0.561,1.282-0.139,1.981,1.669c-0.106,1.499-1.082,2.898-1.029,4.341c-1.511,3.069,0.226,11.318-0.36,15.068
	c3.283,0.022,7.876-0.009,11.185,0.017c-0.047-1.955,0.059-3.818,0.165-4.833c0.606-0.012,1.853,0.032,3.27-0.034
	C33.104,38.009,37.068,33.437,38.478,29.62z"/>
</svg>
