<?xml version="1.0" encoding="utf-8"?>
<!-- Generator: Adobe Illustrator 24.0.3, SVG Export Plug-In . SVG Version: 6.00 Build 0)  -->
<svg version="1.1" id="Capa_1" xmlns="http://www.w3.org/2000/svg" xmlns:xlink="http://www.w3.org/1999/xlink" x="0px" y="0px"
	 viewBox="0 0 50.5 50.5" style="enable-background:new 0 0 50.5 50.5;" xml:space="preserve">
<style type="text/css">
	.st0{fill-rule:evenodd;clip-rule:evenodd;fill:#1D1D1B;}
</style>
<path id="Jujuy_4_" class="st0" d="M42.265,29.287c0.1-0.733-1.471-0.336-1.853-0.45c-0.871,0.307-0.689,2.325-1.704,0.686
	c-0.6-0.82-1.714-1.421-2.684-1.173c-0.654,0.639-1.704,0.707-1.667-0.424c-0.399-0.862-0.691-1.702-1.646-1.993
	c-0.22-0.95,0.888-2.379-0.027-3.2c-0.58-0.415-1.677,0.145-2.097-0.626c-0.357-1.119-1.01-2.654-0.425-3.784
	c-0.245-0.644-1.177-0.292-0.814-1.147c0.071-0.915,0.667-1.893,1.099-2.701c-0.014-0.815,0.055-1.714,0.53-2.407
	c-1.259-0.745-4.811,0.022-6.51-0.181c-0.882-0.606-1.698-2.452-3.028-2.252c-0.107-0.977-1.098-1.372-1.964-1.576
	c-0.905,0.672-0.325,3.24-1.345,3.653c-0.83,0.846-2.967,1.3-3.978,1.33c-0.827,0.415-0.835,1.859-0.951,2.612
	c-0.38,0.551-1.805,0.491-2.162,1.271c-0.998-0.2-0.398,0.827-0.541,1.413c-3.15,2.277-0.796,2.557,0.08,4.755
	c-0.437,2.64-2.731,6.502-2.24,8.892c0.389,0.08,0.591,0.384,0.842,0.647c0.263,0.112,0.62,0.036,0.812,0.298
	c0.68,0.834,1.278,1.416,1.943,2.18c1.462,0.967,3.85,4.403,5.354,1.662c1.635-1.953,0.805-5.435,0.13-7.761
	c0.146-0.776,0.197-2.473,1.372-1.55c0.946,0.289,3.007,0.894,3.32,2.051c0.023,1.289-0.308,2.255-0.442,3.507
	c0.104,0.217,0.233,0.37,0.354,0.616c-0.058,0.297-0.137,0.583,0.144,0.826c0.233,0.482,0.435,0.342,0.808,0.166
	c0.526,0.183,0.854,0.881,1.44,1.009c0.524,0.468,0.052,1.481,0.693,2.031c0.771,0.618,1.358,3.003,2.594,2.354
	c1.016,0.66,2.442,1.437,3.526,0.411c0.821,1.085,3.163,2.9,3.499,0.49c0.314-1.492,2.218,1.754,2.758,1.436
	c0.359-0.708,0.823-1.653,1.739-1.733C44.076,39.102,42.093,33.143,42.265,29.287z"/>
</svg>
