<?xml version="1.0" encoding="utf-8"?>
<!-- Generator: Adobe Illustrator 24.0.3, SVG Export Plug-In . SVG Version: 6.00 Build 0)  -->
<svg version="1.1" id="Capa_1" xmlns="http://www.w3.org/2000/svg" xmlns:xlink="http://www.w3.org/1999/xlink" x="0px" y="0px"
	 viewBox="0 0 50.5 50.5" style="enable-background:new 0 0 50.5 50.5;" xml:space="preserve">
<style type="text/css">
	.st0{fill-rule:evenodd;clip-rule:evenodd;fill:#1D1D1B;}
</style>
<path id="Catamarca_4_" class="st0" d="M42.345,43.246c1.243-0.179-0.672-1.904-0.701-2.735c-0.679-1.693,0.396-5.096-1.193-6.109
	c-0.093-0.788,1.033-1.24,0.887-2.143c-0.115-1.923-0.215-5.038-2.302-5.291c-0.838,0.294-1.387,1.311-1.845,1.761
	c-1.221-1.001-0.512-2.607-2.28-2.455c-0.139-0.79-0.757-1.204-0.894-1.991c-0.174-1.59-0.395-1.985-1.984-2.366
	c0.429-1.718,2.843-2.791,2.693-4.732c0.639-1.482-1.593-1.896-2.372-2.616c-0.25-1.111,1.392-2.425,0.253-3.064
	c-0.952-1.339-1.672,1.018-2.133,1.643c-0.931-0.216-3.929-4.989-3.616-6.006c0.525-1.05,1.992-0.167,2.611-1.113
	c0.078-0.638,0.47-1.383-0.157-1.895c-0.194-0.411,0.046-1.434-0.694-1.301c-3.685,0.23-12.206,0.21-15.681-0.982
	c-0.579,0.437-0.824,2.117-1.033,2.87c3.932,9.669-1.368,5.38,0.547,10.325c0.773,1.125,2.449,2.726,1.796,4.177
	c-2.46,0.17-1.804,1.848-2.949,0.837c-1.649-0.98-1.538,1.63-2.068,2.511c-0.882,0.449-0.605,1.272-1.094,2.015
	c-0.318,0.205-0.255,0.511-0.107,0.809c-0.243,0.175-0.49,0.357-0.484,0.716c1.335,0.421,3.165-0.236,4.362-0.056
	c0.4,0.241,1.555-0.891,1.497,0.166c-0.31,0.612,0.118,1.212-0.146,1.838c0.005,0.509,0.645,0.175,0.903,0.433
	c0.375,0.88,1.413,0.334,1.867,1.103c0.44,0.362,1.036-0.433,1.518-0.172c-0.14,0.945,0.533,1.654,0.897,2.44
	c0.952-0.8,4.159-0.078,5.3-0.247c0.466-0.042,0.968-0.161,1.152-0.645c1.02-0.544,2.836,0.829,3.863,1.098
	c0.891,0.645,0.697,1.773,1.289,2.569c0.631,0.539,1.041,0.599,0.417,1.414c1.482,1.188,3.6,2.431,4.883,4.051
	c0.6,2.806,1.865,5.911,3.25,8.525C41.481,48.248,42.931,45.954,42.345,43.246z"/>
</svg>
