<?xml version="1.0" encoding="utf-8"?>
<!-- Generator: Adobe Illustrator 24.0.3, SVG Export Plug-In . SVG Version: 6.00 Build 0)  -->
<svg version="1.1" id="Capa_1" xmlns="http://www.w3.org/2000/svg" xmlns:xlink="http://www.w3.org/1999/xlink" x="0px" y="0px"
	 viewBox="0 0 50.5 50.5" style="enable-background:new 0 0 50.5 50.5;" xml:space="preserve">
<style type="text/css">
	.st0{fill-rule:evenodd;clip-rule:evenodd;fill:#1D1D1B;}
</style>
<path id="Tucumán_4_" class="st0" d="M40.217,12.028c0.27-1.006,0.743-2.062,0.677-2.652c-0.057-0.511,0.002-0.992-0.037-1.554
	c-0.765,0.001-2.387,0.146-3.432,0.073c-1.579-0.11-2.142-0.568-3.392,0.23c-0.861,0.981-1.939,1.073-2.907,0.121
	c-0.133-0.1-0.248-0.164-0.895-0.013c-1.012-0.257-2.6-0.891-3.522-1.437c-0.467-0.277-0.437-0.922-0.672-1.368
	c-0.106-0.2-0.233-0.487-0.36-0.55c-0.718-0.046-1.458,0.741-2.113,0.897c-0.399,0.024-1.388-0.294-1.905-0.386
	c-0.452-0.08-0.524,0.057-0.967-0.046c-0.433-0.1-0.861-0.275-1.2-0.452c-0.077-0.04-0.171-0.061-0.25-0.039
	c-0.127,0.035-0.214,0.114-0.268,0.249c-0.149,0.371-0.064,0.94-0.102,1.428c-0.03,0.381-0.237,0.951-0.254,1.324
	c-0.038,0.858,0.011,1.435-0.378,1.63c-3.049-0.063-4.614-0.779-6.12-0.98c-0.346,0.892-1.23,1.795-1.801,5.821
	c0.32,0.759,1.163,0.679,1.816,0.91c0.845,0.345,1.731,1.49,2.495,2.002c1.668,0.364,1.139,1.917,0.886,3.121
	c0.537,2.451-1.842,3.898-3.111,5.593c-0.541,1.701-2.57,2.828-2.793,4.564c0.781,0.58,4.447,0.924,3.735,2.163
	c0.493,1.75,0.533,4.632,2.101,5.726c0.282,1.324,0.552,2.526,2.09,1.69c1.913,0.955,1.457,4.12,3.44,5.433
	c1.017-0.999,2.286-3.354,4.19-3.901c0.847,0.224,1.362,1.298,2.323,1.29c2.155-0.865,2.829,0.028,3.375-2.78
	c1.429-0.541-0.917-2.67-0.698-3.928c0.057-0.777,0.583-0.602,1.127-0.723c0.712-0.451,0.807-0.954,0.471-1.24
	c-0.233-0.198-0.729-0.184-1.135-0.421c-0.627-0.366,0.405-1.355,1.513-2.347c0.442-0.395,0.872-0.665,1.251-1.089
	c0.371-0.415,0.483-1.03,0.651-1.391c0.614-1.323,0.988-2.769,1.513-4.157c0.601-1.589,0.662,0.177,1.742-4.759
	c0.102-0.465,0.544-0.323,0.87-0.396c0.664-0.25,0.423-2.474,1.172-2.565c0.588,0.195,1.011,0.356,1.21,0.128
	C41.277,16.416,39.88,13.145,40.217,12.028z"/>
</svg>
