<?xml version="1.0" encoding="utf-8"?>
<!-- Generator: Adobe Illustrator 24.0.3, SVG Export Plug-In . SVG Version: 6.00 Build 0)  -->
<svg version="1.1" id="Capa_1" xmlns="http://www.w3.org/2000/svg" xmlns:xlink="http://www.w3.org/1999/xlink" x="0px" y="0px"
	 viewBox="0 0 50.5 50.5" style="enable-background:new 0 0 50.5 50.5;" xml:space="preserve">
<style type="text/css">
	.st0{fill-rule:evenodd;clip-rule:evenodd;fill:#1D1D1B;}
</style>
<path id="Santa_Fe_4_" class="st0" d="M33.138,1.838c-6.068-0.017-10.468-0.017-13.238,0c-0.119,1.247-0.782,4.293-1.512,10.011
	c-0.363,2.841-2.483,7.153,0.296,9.201c0.867,1.408-1.811,7.004-1.96,8.1c-0.062,0.455-0.057,0.982,0.204,1.364
	C16.81,30.94,16.502,31.649,16.884,32c0.614,0.415,0.843,0.983,1.106,1.65c0.686,0.3,0.677,1.032,0.932,1.569
	c-0.008,0.277-0.394,0.529,0.105,0.531c0.316,0.164,0.297,0.716,0.624,0.887c0.084,0.585,0.053,1.576-0.419,2.042
	c-2.441,2.244-4.607,7.061-6.501,9.95c2.692,0,5.869-0.028,7.205-0.085c1.221-1.475,2.992-3.31,4.863-5.574
	c-0.187-1.469,2.013,0.071,2.543,0.037c0.59-0.109,0.576-0.942,0.727-1.383c0.432-0.193,0.29-0.545,0.462-0.864
	c1.03-0.389-0.607-1.32-1.021-1.629c-0.467-0.582-0.767-1.401-1.129-2.058c-0.1-0.781-0.396-1.559-0.565-2.275
	c0.501-1.041,0.074-2.366,0.623-3.359c-0.576-1.339-0.074-1.305,0.083-2.559c0.156-0.666,1.343,0.001,1.706-0.681
	c1.766-2.029,3.064-4.349,4.513-6.688c0.581-1.706-0.425-3.338,0.409-4.99c-0.032-0.772-0.807-1.427-0.198-2.158
	c0.484-1.199-0.154-3.098,0.89-4.041c1.354-0.377,1.931-1.335,2.096-2.614c0.408-1.461,0.578-2.985,0.374-4.508
	c-0.016-0.524,0.501-0.51,0.879-0.567c1.109-0.706,0.442-0.763-0.656-0.796C35.28,1.799,33.463,1.841,33.138,1.838z"/>
</svg>
