<?xml version="1.0" encoding="utf-8"?>
<!-- Generator: Adobe Illustrator 24.0.3, SVG Export Plug-In . SVG Version: 6.00 Build 0)  -->
<svg version="1.1" id="Capa_1" xmlns="http://www.w3.org/2000/svg" xmlns:xlink="http://www.w3.org/1999/xlink" x="0px" y="0px"
	 viewBox="0 0 50.5 50.5" style="enable-background:new 0 0 50.5 50.5;" xml:space="preserve">
<style type="text/css">
	.st0{fill-rule:evenodd;clip-rule:evenodd;fill:#1D1D1B;}
</style>
<path id="San_Luis_4_" class="st0" d="M35.484,11.617c-0.332-0.798-0.363-1.566-0.395-2.411c-1.184-0.233-2.205,1.191-2.436-0.708
	c-0.229-1.945-3.313-3.681-5.183-3.114c-1.719-0.609-2.495,0.3-4.182,0.315c-1.49-0.336-3.313-0.633-4.971-0.434
	c-0.82-0.521-1.701-0.06-2.582-0.33c-0.789-0.293-0.747,0.678-0.597,1.174c-0.136,0.66-0.185,1.398-0.121,2.088
	c-0.169,1.009,0.285,1.934,0.696,2.727c0.191,0.964,0.455,1.91,0.92,2.739c-0.471,2.09,0.179,4.493,0.402,6.708
	c1.15,1.804,1.727,3.866,3.02,5.438c0.182,0.568,0.315,1.327-0.011,1.872c-0.34-0.195-0.461,0.405-0.338,0.678
	c0.001,0.229-0.023,0.515,0.025,0.761c0.028,0.146-0.017,0.324,0.029,0.459c0.046,0.134,0.182,0.224,0.205,0.364
	c0.096,0.612,0.117,1.172,0.356,1.728c0.373,0.871,0.991,1.58,1.33,2.456c0.211,0.546,0.144,1.126,0.236,1.689
	c0.054,0.329,0.244,0.63,0.314,0.961c0.04,0.189-0.114,0.528-0.127,0.729c-0.009,0.138,0.129,0.279,0.12,0.416
	c-0.045,0.339,0.01,0.726,0.007,1.061c-0.003,0.278-0.061,0.511-0.082,0.762c-0.022,0.27-0.007,0.558-0.047,0.806
	c-0.142,0.887-0.424,1.706-0.533,2.377c-0.241,1.488-0.453,2.164-0.23,2.661c1.959,0.11,4.506,0.001,12.373,0.015
	c0.182-2.299,0.076-4.673,0.094-7.153c0.03-4.188,0.073-8.595-0.022-12.858c-0.056-2.543-0.694-5.165-0.404-7.525
	c0.109-0.888,0.676-1.096,0.945-1.895C34.747,14.824,34.996,12.94,35.484,11.617z"/>
</svg>
