<?xml version="1.0" encoding="utf-8"?>
<!-- Generator: Adobe Illustrator 24.0.3, SVG Export Plug-In . SVG Version: 6.00 Build 0)  -->
<svg version="1.1" id="Capa_1" xmlns="http://www.w3.org/2000/svg" xmlns:xlink="http://www.w3.org/1999/xlink" x="0px" y="0px"
	 viewBox="0 0 50.5 50.5" style="enable-background:new 0 0 50.5 50.5;" xml:space="preserve">
<style type="text/css">
	.st0{fill-rule:evenodd;clip-rule:evenodd;fill:#1D1D1B;}
</style>
<path id="La_Pampa_4_" class="st0" d="M37.457,7.59c-4.492,0-5.68,0.026-7.311-0.027c0.014,0.483-0.031,1.538-0.034,5.356
	c0,0.466-0.016,1.407-0.028,1.902c-0.014,0.551,0,0.752-0.51,0.752c-0.386,0-0.95-0.001-1.461-0.002
	c-1.45-0.002-3.089-0.024-5.308-0.004c-1.454,0.013-3.162-0.005-4.75-0.008c-3.57-0.007-6.192,0.001-8.465,0.001
	c-0.09,0.138-0.227,0.259-0.268,0.482c-0.042,1.779,0.023,4.279,0,6.253c-0.03,1.8,0.007,3.687,0,5.3
	c0.037,0.638,0.427,0.672,1.778,0.826c0.346,0.039,0.852,0.073,1.342,0.274c1.246,0.933,0.328,1.868-0.408,2.662
	c-0.261,1.122,0.522,0.827,1.069,1.31c0.431,1.855,1.981,1.221,3.299,0.942c0.471,1.492,1.258,1.988,2.769,2.476
	c1.169,0.316,1,0.916,1.527,1.619c1.905,0.162,4.045,0.277,5.767,0.849c0.781-0.768,1.633,0.482,2.516,0.129
	c4.149-0.827,8.154,1.203,11.151,3.831c0.328-0.004,1.046,0.883,1.018-0.06c0.232-4.051,0.025-16.539,0.001-20.004
	c0.028-3.466,0.007-8.334,0.028-12.503c-0.073-0.944,0.079-2.204-0.007-2.329C40.82,7.595,39.362,7.59,37.457,7.59z"/>
</svg>
