<?xml version="1.0" encoding="utf-8"?>
<!-- Generator: Adobe Illustrator 24.0.3, SVG Export Plug-In . SVG Version: 6.00 Build 0)  -->
<svg version="1.1" id="Capa_1" xmlns="http://www.w3.org/2000/svg" xmlns:xlink="http://www.w3.org/1999/xlink" x="0px" y="0px"
	 viewBox="0 0 50.5 50.5" style="enable-background:new 0 0 50.5 50.5;" xml:space="preserve">
<style type="text/css">
	.st0{fill-rule:evenodd;clip-rule:evenodd;fill:#1D1D1B;}
</style>
<path id="Entre_Ríos_4_" class="st0" d="M38.368,11.707c-0.185-1.431-2.417-2.121-2.292-3.857
	c-1.903-2.334-2.104-2.409-5.077-2.952c-0.64,0.274-1.574,0.712-2.264,0.766c-0.681-0.203-1.319-0.331-1.88,0.238
	c-1.04,1.626-2.74,0.092-4.149,0.841c-1.709-0.216,0.257,2.098-0.689,3.16c-0.403,2.313-2.329,4.406-3.599,6.342
	c-0.311,0.956-0.819,1.904-1.651,2.453c-0.733,0.691-1.113,2.021-2.254,2.152c-0.732-0.025-1.599-0.137-1.413,0.846
	c-0.043,0.78-0.898,1.441-0.451,2.214c0.773,1.1-0.495,3.322-0.206,4.815c-0.759,1.269,0.428,2.36,0.347,3.716
	c1.179,3.454,4.423,5.843,7.478,7.649c0.57,0.839,1.791,1.908,2.857,1.288c0.615,0.588,1.392,1.276,2.225,0.7
	c0.286,0.204-0.028,0.833,0.451,0.841c0.137-0.166,0.31,0.067,0.363,0.194c0.152,0.262,1.044-0.001,1.282,0.117
	c1.536,0.622,2.994,3.009,4.704,1.993c1.259-0.245-0.003-2.183-0.363-2.89c-0.246-0.719,0.183-1.539,0.045-2.243
	c-0.134-1.099,0.756-1.951,1.048-2.736c-0.199-1.601-0.353-2.495,1.552-1.904c2.062-0.754-0.139-4.122,0.165-5.898
	c-0.064-1.401,2.024-2.491,0.42-3.768c-0.123-0.8,0.767-1.979-0.133-2.72c-0.453-0.842,0.955-0.792,1.25-1.209
	c1.524-2.706-0.568-2.733,0.046-3.804c0.567-0.169,0.557-0.737,0.683-1.202c0.452-0.342,0.641-0.943,0.483-1.488
	c0.311-0.828,0.766-1.537,0-2.303C37.743,12.465,38.663,12.805,38.368,11.707z"/>
</svg>
