<?xml version="1.0" encoding="utf-8"?>
<!-- Generator: Adobe Illustrator 24.0.3, SVG Export Plug-In . SVG Version: 6.00 Build 0)  -->
<svg version="1.1" id="Capa_1" xmlns="http://www.w3.org/2000/svg" xmlns:xlink="http://www.w3.org/1999/xlink" x="0px" y="0px"
	 viewBox="0 0 50.5 50.5" style="enable-background:new 0 0 50.5 50.5;" xml:space="preserve">
<style type="text/css">
	.st0{fill-rule:evenodd;clip-rule:evenodd;fill:#1D1D1B;}
</style>
<path id="Santa_Cruz_4_" class="st0" d="M33.059,24.926c0.23-0.978,0.725-2.085,1.891-2.603c0.106-1.076,1.196-1.18,1.684-1.946
	c0.334-0.525,1.211-0.23,1.287-0.86c0.574,0.152,0.265-0.27,0.586-0.586c0.481-0.199,0.837-1.195,1.411-0.797
	c0.392-0.11,0.012-0.258-0.093-0.419c0.314-0.563-0.178-0.769,0.722-0.555c-0.547-1.06-0.051-1.474-1.735-0.655
	c-1.299,0.481,0.03-0.2,0.38-0.669c1.292,0.098,1.616-1.367,1.601-2.464c-0.072-0.665-0.648-1.666-1.433-1.324
	c-0.848,0.087-1.659-0.29-2.432-0.261c-0.875-0.408-1.195-1.595-1.96-2.011c-1.242-0.717-1.99-2.557-1.548-3.969
	c-4.215,0.502-11.951-0.147-16.115-0.003c-0.401,0.125-0.196,0.4-0.763,0.703c-0.085,0.045-0.288,0.025-0.301,0.136
	c-0.014,0.111,0.15,0.13,0.233,0.221c0.111,0.12,0.319,0.19,0.374,0.363c0.074,0.233-0.018,0.582,0.05,0.832
	c0.28,1.016,0.61,1.868-0.617,2.318c-0.252,0.093-0.318,0.997-0.029,1.181c-0.092,0.158-0.534,0.255-0.275,0.477
	c0.727,0.263,0.57,1.236-0.182,0.682c-0.163,0.174,0.117,0.475-0.11,0.668c-0.229,0.712-1.031,0.404-1.239,0.952
	c0.359,0.142,0.107,0.654,0.031,0.943c-0.333,0.704-1.207,1.876-0.158,2.298c0.235,0.344,0.488,0.947,0.311,1.452
	c0.069,0.37,0.227,0.465-0.21,0.487c-1.774,0.876,0.092,2.707-1.775,3.565c-0.927-0.043-1.172,1.126-1.42,1.783
	c0.027,0.238,0.625,0.073,0.166,0.282c-0.675,0.437-1.06-0.402-1.51,0.798c-0.21,0.215-0.024,0.53-0.261,0.755
	c0.187,0.289,0.366,0.496,0.165,0.833c0.535,0.524,0.148,0.865-0.03,1.42c-0.01,0.518,0.538,0.499,0.049,1.269
	c0.26,0.59,1.153,0.883,1.066,1.68c0.468,4.853,0.899,0.731,2.419,1.765c0.404-0.251,1.106-0.657,1.418-0.018
	c-0.41,0.487,0.165,0.835,0.191,1.317c0.242,0.798-0.779,1.117-0.498,1.799c0.302,0.275,0.71,0.475,0.273,0.87
	c-0.096,0.492,0.01,1.093-0.432,1.426c-0.287,0.582,0.399,0.068,0.559,1.144c1.446,0.168,0.953,1.963,1.758,1.856
	c3.557-0.067,7.057,0.022,10.408,0.949c0.952,0.408,2.127,0.756,3.03,1.117c0,0.147,0.008,0.742,0.162,0.392
	c0.542-0.605-0.906-1.713-1.102-2.367c-0.629-0.847-0.704-3.33-2.037-2.043c-0.261,0.017,0.478-0.354-0.007-0.422
	c-0.452-0.549-2.42,0.451-1.085-0.289c0.511-0.272,0.93,0.05,1.406,0.188c1.02-0.397,0.498-0.904,0.226-1.803
	c-0.33-0.844-0.042-3.001-1.261-1.623c-0.258-0.135,1.471-0.984,0.944-2.171c0.295-1.924,1.43-2.747,3.094-3.425
	c0.132-0.4-0.789-0.387-0.622-0.95c-0.254-0.443-0.62,0.175-1.079,0.051c-0.266-0.098-0.672,0.12-0.883-0.099
	c0.494-0.423,1.172-0.059,1.667-0.432c0.182-0.385-0.245-1.069-0.581-1.29c0.442,0.06,0.769,0.558,0.961,0.89
	c0.538,1.951,1.998,1.734,2.816,0.12c0.234-0.578,0.995-5.525,0.353-3.184c-0.308,0.235-0.723,0.351-0.29-0.089
	C32.869,25.328,33.059,24.926,33.059,24.926z"/>
</svg>
