<?xml version="1.0" encoding="utf-8"?>
<!-- Generator: Adobe Illustrator 24.0.3, SVG Export Plug-In . SVG Version: 6.00 Build 0)  -->
<svg version="1.1" id="Capa_1" xmlns="http://www.w3.org/2000/svg" xmlns:xlink="http://www.w3.org/1999/xlink" x="0px" y="0px"
	 viewBox="0 0 50.5 50.5" style="enable-background:new 0 0 50.5 50.5;" xml:space="preserve">
<style type="text/css">
	.st0{fill-rule:evenodd;clip-rule:evenodd;fill:#1D1D1B;}
</style>
<g>
	<path id="Formosa_4_" class="st0" d="M48.26,33.152c-1.368-1.384-1.96-3.878-4.159-4.04c-0.075-0.298-1.004-0.37-1.292-0.544
		c-0.554-0.693-1.19-0.947-1.81-0.205c-1.581-1.788-1.85-1.393-3.892-2.142c-1.454-0.187-2.849-1.842-4.222-2.286
		c-1.214-0.444-2.121-1.298-2.908-2.232c-1.345-0.889-4.078-2.826-5.561-3.785c-2.086,0.476-4.298-0.112-5.876-1.219
		c-0.618,0-1.199-0.286-1.868-0.205c-0.416-0.208-0.814-0.798-1.321-0.503c-0.627-0.403-0.82-1.175-1.387-1.659
		c0.527-0.869-0.792-0.993-1.195-1.401c-0.567-0.536-1.266-0.852-2.013-1.214c-0.403,0.02-0.858-0.38-0.618-0.761
		c-0.416,0.113-0.677-0.537-0.997-0.651c-0.237,0.052-0.695,0.004-0.817-0.257C7.811,9.919,7.988,9.386,7.699,9.075
		C7.073,8.348,5.838,7.891,5.39,7.025C5.365,5.943,4.224,5.108,3.663,4.292c0.23-0.293-0.213-0.379,0.006-0.728
		C3.557,3.326,3.204,3.439,3.042,3.2C3.496,2.616,2.846,2.386,2.71,1.952C2.64,1.909,2.445,1.861,2.189,1.89
		c0,3.681,0.022,14.188,0.02,17.226c0.805,0.494,2.606,0.725,3.257,1.251c0.617,1.081,2.094,0.77,2.852,1.651
		c0.385,1.53,1.099,0.382,1.484,1.432c0.872,1.592,2.829,0.61,3.654,1.939c0.321,0.116,0.371,0.83,0.69,1.109
		c0.014,0.279-0.138,0.6,0.227,0.818c1.793,0.745,3.526,2.949,5.592,3.394c0.26,0.744,0.866,1.227,1.367,1.733
		c0.202,0.311-0.021,0.599,0.476,0.716c0.088,0.26,0.096,0.533,0.467,0.476c0.504,0.237,0.012,0.981,0.581,1.375
		c0.07,0.808,0.597,0.31,1.101,0.737c0.392,0.032,0.465,0.222,0.631,0.518c0.511-0.014,0.601,0.508,1.032,0.629
		c0.478,0.107,0.383,0.531,0.582,0.809c0.768,0.092,1.02,1.479,1.683,1.542c-0.034,1.676,0.317,1.266,1.731,1.622
		c1.125-0.141,0.711,1.298,1.333,1.825c0.541,0.141,1.28,0.207,1.686-0.355c0.211-0.187,0.376,0.033,0.47,0.208
		c0.423,0.499,1.206,0.533,1.716,0.91c0.719,0.843,1.533,1.795,2.531,2.128c0.671,0.821,1.711,1.417,2.159,2.391
		c0.147,0.428,0.967-0.015,0.856,0.442c0.033,0.3,0.78,0.28,0.535-0.1c-0.763-0.586,0.199-0.415,0.456-0.63
		c-0.167-0.251-0.159-0.383,0.15-0.366c0.226,0.085,0.081-0.852,0.136-0.908c-0.102-0.644,0.67,0.039,0.615-0.417
		c-0.362-0.312,0.223-0.388,0.105-0.59c-0.369-0.375-0.658-0.914-0.175-1.343c-0.277-0.415-0.173-0.762,0.154-1.213
		c0.169-0.451-0.204-0.974,0.476-1.05c0.514-0.319-0.348-0.378-0.27-0.752c0.408,0.356,0.413-0.082,0.526-0.48
		c0.644-0.273,1.609-0.877,2.157-1.355c0.473-0.472-0.481-0.261-0.246-0.608c0.813-0.389-0.035-0.737,0.424-0.906
		c0.743-0.18,0.177-0.755,0.468-1.06c0.398-0.198,0.813-0.434,0.299-0.729C47.039,34.875,48.458,35.022,48.26,33.152z"/>
</g>
</svg>
