<?xml version="1.0" encoding="utf-8"?>
<!-- Generator: Adobe Illustrator 24.0.3, SVG Export Plug-In . SVG Version: 6.00 Build 0)  -->
<svg version="1.1" id="Capa_1" xmlns="http://www.w3.org/2000/svg" xmlns:xlink="http://www.w3.org/1999/xlink" x="0px" y="0px"
	 viewBox="0 0 50.5 50.5" style="enable-background:new 0 0 50.5 50.5;" xml:space="preserve">
<style type="text/css">
	.st0{fill:#1D1D1B;}
</style>
<path id="Chubut_4_" class="st0" d="M34.301,30.381c-0.235,0.049,0.024,0.123,0.137,0.1C34.409,30.451,34.338,30.4,34.301,30.381z
	 M32.822,30.679c-0.069,0.018-0.128-0.074-0.207-0.071C32.642,30.77,33.087,30.857,32.822,30.679z M42.347,15.901
	c0.095-0.631-0.314-2.169-1.098-1.943c-0.29,0.362-2.467,0.89-1.495,0.968c0.598-0.179,1.071,0.299,0.621,0.799
	c-0.161,0.298-0.91-0.067-1.156,0.175c-0.234,0.076-0.518-0.105-0.764-0.031c-0.58-0.182,0.745-0.914,0.25-1.035
	c-0.5,0.121-1.125-0.245-1.609-0.34c-0.427-0.358-0.266-0.786-0.823-0.995c-3.558-0.056-8.666,0-11.934,0.001
	C20.413,13.5,14.3,13.5,9.805,13.5c-0.626,0-0.123,0.522-0.33,0.698c-0.618,0.476-1.056-0.258-1.085,0.23
	c0.004,0.296-0.456,0.468-0.282,0.774c0.401,0.218,0.061,0.621,0.331,0.915c-0.498,0.273-0.478,0.786-0.33,1.301
	c0.2,0.632-0.342,1.44,0.101,1.968c0.499,0.485,1.636,0.063,1.396,1.094c-0.018,0.245-0.406,0.126-0.616,0.248
	c-0.023,0.244-0.276,0.568-0.143,0.745c0.437-0.155,0.246,0.256,0.255,0.454c0.293-0.022,0.437,0.173,0.641,0.351
	c0.37,0.452-0.846,0.846-0.246,0.963c0.225-0.117-0.083,0.355,0.155,0.368c0.551,0.404,0.119,1.212-0.395,1.41
	c-0.232,0.125,0.103,0.44,0.121,0.62c-0.04,0.22-0.174,0.403,0.005,0.615c-0.874,1.176,3.12-0.291,2.7,1.439
	c-0.701,0.124-0.154,0.978-0.667,1.271c-0.49,0.051-0.828-0.55-1.339-0.088c-0.295-0.002-0.591-0.305-0.804,0.046
	c-0.72-0.108-1.213-0.352-0.972,0.646c0.433,0.005,0.734,0.386,1.169,0.143c0.218,0.078,0.344,0.398,0.637,0.27
	c0.245,0.179,0.362,0.533,0.549,0.844c0.188,0.311,0.506,0.424,0.683,0.82c0.202,0.542-0.834,0.622-0.741,0.981
	c0.156,0.159,0.083,0.37-0.097,0.46c-0.963-0.127-1.065,0.591-1.219,1.319c-0.083,0.419,0.662,0.656,0.76,0.953
	c0.078,0.239-0.433,0.388-0.036,0.494c2.264,0.004,6.282-0.004,8.098,0.001c1.957-0.001,6.13,0.002,8.061,0.002
	c0.548,0,0.146-0.22,0.362-0.483c0.34-0.623,0.905-0.794,0.723-1.482c0.759-1.166,1.503-2.816,3.195-2.542
	c0.468-0.034-0.193-0.262-0.108-0.431c0.128-0.023,0.487,0.299,0.534,0.057c-0.984-0.3,1.143-0.786,1.384-0.915
	c0.321-0.009,0.872,0.64,0.886,0.112c0.326-0.084,0.182,0.258,0.556,0.088c0.278,0.382,0.526-0.003,0.604-0.11
	c0.193,0.059-0.107-0.167,0.023-0.218c0.1-0.036,0.182-0.137,0.296-0.193c-0.169-0.328-1.183-0.224-0.734-0.74
	c-0.108-0.787,0.728-0.905,0.974-1.269c0.267-0.055,0.193,0.105,0.415,0.02c0.022-0.037-0.293-0.208-0.046-0.207
	c0.126-0.012-0.135-0.193,0.045-0.16c0.091-0.097,0.168-0.02,0.155,0.1c0.083-0.141,0.166-0.044,0.151-0.227
	c-0.242,0.023-0.15-0.239-0.088-0.374c0.126,0.106,0.066-0.101,0.155-0.175c0.126-0.071,0.216-0.14,0.179-0.318
	c-0.202-0.121-0.648-1.044-0.037-1.094c0.135-0.13-0.19-0.463,0.177-0.602c-0.229,0.06-0.216-0.104-0.262-0.265
	c-0.901-2.678,0.347-1.774,0.882-3.823c0.524-0.859,2.102-0.887,2.688-1.54c0.091-0.102,0.192-0.204,0.14-0.289
	c-0.027-0.043-0.168-0.021-0.286-0.019c-0.461,0.009-0.98-0.185-1.36-0.508c-0.949-0.24-1.641-1.04-0.342-1.334
	c0.69-0.892,1.847-0.838,2.493,0.046c-0.012,0.153-0.333,0.639-0.126,0.82C40.947,19.046,42.894,17.664,42.347,15.901z"/>
</svg>
