<?xml version="1.0" encoding="utf-8"?>
<!-- Generator: Adobe Illustrator 24.0.3, SVG Export Plug-In . SVG Version: 6.00 Build 0)  -->
<svg version="1.1" id="Capa_1" xmlns="http://www.w3.org/2000/svg" xmlns:xlink="http://www.w3.org/1999/xlink" x="0px" y="0px"
	 viewBox="0 0 50.5 50.5" style="enable-background:new 0 0 50.5 50.5;" xml:space="preserve">
<style type="text/css">
	.st0{fill-rule:evenodd;clip-rule:evenodd;fill:#1D1D1B;}
</style>
<g>
	<path id="Chaco_4_" class="st0" d="M46.989,33.016c-0.324-0.137-0.133-0.537-0.634-0.353c-0.384-0.29-0.886-0.812-1.109-1.268
		c-0.58-0.761-1.553-1.034-2.109-1.77c-0.98-0.484-1.422-1.62-2.626-1.826c-0.555-0.816-0.701-0.198-1.391,0.019
		c-1.831,0.097-0.456-2.071-2.54-1.82c-0.295-0.248-1.039-0.032-0.935-0.522c0.082-0.877-0.833-1.804-1.609-2.276
		c-0.046-0.422-0.278-0.668-0.716-0.794c-0.174-0.253-0.349-0.438-0.684-0.461c-0.162-0.096-0.063-0.374-0.289-0.398
		c-0.284-0.038-0.549-0.205-0.808-0.322c-0.172,0.063-0.327,0.158-0.383-0.118c-0.047-0.354-0.34-0.636-0.444-0.983
		c0.215-0.293-0.004-0.597-0.383-0.557c-0.189-0.182-0.133-0.501-0.484-0.561c-0.146-0.144,0.086-0.313-0.127-0.486
		c-0.447-0.454-0.994-0.886-1.225-1.553c-1.849-0.399-3.408-2.373-5.01-3.041c-0.31-0.177-0.202-0.495-0.203-0.732
		c-0.329-0.492-0.506-0.986-0.897-1.412c-1.118-0.438-2.533-0.227-3.123-1.558c-0.325-0.565-0.827,0.211-1.14-0.863
		c-0.57-1.064-2.218-0.673-2.796-1.854c-0.657-0.17-1.841-0.565-2.739-0.928c0.006,0.627-0.224,2.119-0.267,2.225
		c-0.039,0.095-5.402,7.63-6.322,8.893C4.37,19.934,3.2,20.774,3.447,21.22c0.086,0.155,0.284,0.216,0.451,0.216
		c2.326,0,8.384-0.056,11.964,0c0.307,0.005,0.599-0.013,0.872,0c0.678,0.033,0.98,0.282,1.121,0.998
		c0.148,0.751-0.037,1.851,0,3.242c0.112,4.246,0.014,13.897,0,18.185c3.612-0.044,11.372,0.021,17.536,0.022
		c2.611,0,7.112-0.018,7.181-0.033c0.481-0.102-0.037-1.039,0.176-1.361c0.91-3.064-2.201-3.254,1.98-5.274
		c0.629-0.621-1.304-1.885,0.427-1.963c0.089-0.224-0.048-0.536,0.173-0.726c0.175-0.169,0.147,0.34,0.327,0.136
		c-0.123-0.35,0.556-0.653,0.224-0.884C45.88,33.352,46.741,33.21,46.989,33.016z"/>
</g>
</svg>
