<?xml version="1.0" encoding="utf-8"?>
<!-- Generator: Adobe Illustrator 24.0.3, SVG Export Plug-In . SVG Version: 6.00 Build 0)  -->
<svg version="1.1" id="Capa_1" xmlns="http://www.w3.org/2000/svg" xmlns:xlink="http://www.w3.org/1999/xlink" x="0px" y="0px"
	 viewBox="0 0 50.5 50.5" style="enable-background:new 0 0 50.5 50.5;" xml:space="preserve">
<style type="text/css">
	.st0{fill-rule:evenodd;clip-rule:evenodd;fill:#1D1D1B;}
</style>
<g>
	<path id="Salta_4_" class="st0" d="M45.494,24.677c-0.565-3.396,1.619-11.489-1.857-13.058c0.054-0.422-0.664-0.74-1.038-1.042
		c0.208-1.726-2.47-0.64-3.528-0.927c-0.683,0.048-2.323-0.163-2.782,0.328C35.79,9.464,34.98,9.505,34.78,10.2
		c-0.528,1.408-1.629,2.825-2.024,4.323c-0.008,0.463-0.193,1.899-0.43,0.793c0.188-0.723-1.064-1.049-0.445-1.841
		c-0.577-0.38-0.518-1.005-0.937-1.404c0.233-0.319,0.226-0.645-0.097-0.918c-1.391-0.381-4.593-1.996-4.254,0.753
		c-1.456,2.449-0.053,1.473-0.301,2.56c0.192,1.923,0.04,1.884,1.706,2.37c0.311,0.479-0.125,1.187-0.112,1.693
		c0.876,0.38,0.772,1.155,1.201,1.699c0.43,0.224,0.625-0.296,1.042-0.255c0.378-0.061,0.858,0.302,1.173,0.551
		c0.468,0.857,0.654,0.444,0.975-0.199c2.14-0.928,1.685,6.118,0.202,6.489c-0.618,0.055-1.421,0.546-1.663,1.178
		c-0.69,0.757-1.504-2.321-2.02,0.062c-0.639,0.155-1.41-0.619-1.779-0.988c-0.607,0.612-1.454,0.113-2.027-0.248
		c-1.076,0.212-1.623-1.84-1.918-2.559c-0.341-0.074-0.534-0.485-0.84-0.589c-0.293,0.253-0.594-0.092-0.593-0.416
		c-0.432-2.435,1.353-3-2.377-3.896c-0.665,1.539,0.7,3.268,0.015,4.916c-1.194,3.407-3.797-1.282-5.287-1.992
		c-0.844-0.864-0.731,0.936-1.081,1.541c-1.798,1.541-5.086,1.567-6.432,3.557c-0.579-0.226-0.68,0.527-0.812,0.939
		c-0.436-0.604-0.669,0.941-0.825,1.287c0.139,0.703,1.095,0.708,0.876,1.526c0.088,0.271,0.718,0.531,0.419,0.832
		c-2.71,0.137,3.757,0.916,3.73,1.055c0.296,0.198,8.348-0.532,8.272,0.159c0.11,0.878,0.883,1.967-0.155,2.583
		c-2.651-0.179-1.522,1.915-0.378,3.142c0.301,0.612,0.892,2.266,1.675,1.999c0.983-2.976,1.934-0.138,4.239-0.558
		c0.306-0.31-0.144-1.886,0.556-1.499c1.858,0.668,1.73-0.829,2.435,0.605c0.612,0.19,1.612,0.725,2.221,0.722
		c0.411-0.318,0.875-0.538,1.401-0.34c2.136,0.617,2.122-3.239,3.164-4.501c1.034-0.04,3.979,0.646,5.298,0.402
		C40.107,33.004,46.046,28.084,45.494,24.677z"/>
</g>
</svg>
