<?xml version="1.0" encoding="utf-8"?>
<!-- Generator: Adobe Illustrator 24.0.3, SVG Export Plug-In . SVG Version: 6.00 Build 0)  -->
<svg version="1.1" id="Capa_1" xmlns="http://www.w3.org/2000/svg" xmlns:xlink="http://www.w3.org/1999/xlink" x="0px" y="0px"
	 viewBox="0 0 50.5 50.5" style="enable-background:new 0 0 50.5 50.5;" xml:space="preserve">
<style type="text/css">
	.st0{fill:#1D1D1B;}
</style>
<g>
	<g>
		<path class="st0" d="M38.941,47.292c0,0-3.893-9.498-3.893-9.498c0.392,0.833,1.463,0.475,2.085,1.2
			c0.499,0.011,1.044,1.166,1.17,0.736c0.107-1.536,1.85-0.768,2.412-1.418c0.48-0.993,2.654-0.171,2.846-1.302
			c-0.342-0.471,1.142-0.582,0.35-0.739c-3.375-0.215,0.548-3.452,2.225-3.213L38.941,47.292z"/>
		<path class="st0" d="M38.618,36.918c0.845-0.31,1.429-4.718,2.19-1.966c-0.569,0.231,0.085,0.204-0.016,0.48
			C41.634,36.613,38.462,38.506,38.618,36.918z"/>
		<path class="st0" d="M36.298,36.972c0.097,0.503,0.726,0.42,1.121,0.649c0.224-0.224,0.267-1.374-0.112-1.389
			C37.149,37.098,37.16,37.174,36.298,36.972z"/>
		<path class="st0" d="M35.098,36.351c-0.053-0.299,0.541-1.41,0.744-0.93C35.562,35.723,35.522,37.44,35.098,36.351z"/>
		<path class="st0" d="M33.75,33.806c0.849,0.02,0.753-0.955,1.483-1.226c0.765-0.452,0.588-1.015,0.57-1.689
			c0.162-0.133,0.233,0.235,0.358,0.159c0.219-0.369,0.637-0.524,0.196-0.973c0.68-0.265-0.328-0.495,0.015-0.758
			c1.132-0.173-0.431-0.723-0.104-1.003c0.349-0.232-0.365-0.315-0.252-0.58c0.155-0.201,0.249-0.309-0.048-0.469
			c-0.022-0.176,0.086-0.423-0.045-0.589c-0.162-0.09-0.513,0.08-0.286-0.356c0.061-0.264-0.393-0.936-0.58-1.325
			c-0.28-0.299-0.406-0.756-0.416-1.029c-0.533,0.511-0.421,0.737-0.713-0.166c-0.346-0.355-0.256-1.427,0.306-1.42
			c0.098-0.06-0.123-0.159-0.146-0.253c-0.043-0.155,0.092-0.325,0.079-0.501c0.128-0.26,0.398,0.549,0.502,0.153
			c-0.074-0.277,0.141-0.218,0.318-0.165c0.146-0.168,0.268-0.188,0.459-0.173c0.173-0.875-0.405-0.122-0.723-0.27
			c0.01-0.733,0.422-1.132,0.751-1.797c0.278,0.002,0.348,0.352,0.308-0.242c0.583,0.694,0.08-0.711,0.679-0.831
			c0.526-0.178,0.582-0.215,0.048-0.587c-0.609,0.471-1.039,0.919-1.511,1.417c-0.077,0.318-0.412,0.491-0.642,0.667
			c-0.084-0.09-0.1-0.312-0.251-0.316c-0.381,0.182-0.351,0.432-0.165,0.707c-0.303,0.211,0.067,0.479,0.018,0.687
			c-0.505,0.487-0.803,1.252-0.8,1.947c-0.161,0.371-0.3-0.247-0.548,0.084c-0.299-1.087-1.078,1.489,0.048,0.952
			c-0.317-1.194,0.562-0.044,0.67,0.457c-0.074,0.342,0.072,0.656,0.024,1.007c-0.07,0.144-0.533,0.209-0.429,0.449
			c0.439,0.559,0.76,1.226,0.921,1.933C35.775,30.634,30.853,28.861,33.75,33.806z"/>
		<path class="st0" d="M36.383,18.584c-0.219,0.24,0.016,0.641,0.322,0.536C37.022,18.857,36.657,18.608,36.383,18.584z"/>
		<path class="st0" d="M35.3,24.711c0.096,0.176,0.249,0.996,0.426,0.597C35.706,25.119,35.563,24.543,35.3,24.711z"/>
		<path class="st0" d="M31.961,28.929c-0.294-0.536-0.263-0.626,0.098-0.855c-0.447-0.398,0.483-0.22,0.568-0.458
			c-0.189-0.666-0.823-0.02-0.575-0.935c-0.108-0.71-0.949-1.47,0.221-1.496c0.654,1.374,2.6,3.608,0.362,4.511
			c-0.818-0.631,0.216-0.315,0.38-0.716c-0.3-0.077-0.422-0.303-0.646-0.567C32.342,28.649,32.298,29.049,31.961,28.929z"/>
		<path class="st0" d="M31.468,26.102c-0.134,0.167-0.144,0.489,0.15,0.392C31.721,26.348,31.747,25.981,31.468,26.102z"/>
		<path class="st0" d="M37.33,17.628c-0.495,0.108-0.004,0.814,0.227,0.291C38.239,17.741,37.748,17.332,37.33,17.628z"/>
	</g>
</g>
<g>
	<path class="st0" d="M40.096,7.88c-0.174-0.368,0.213-0.386,0.385-0.537c-0.63-0.299-1.249-0.737-1.835-1.171
		c-0.701-0.293-1.398-0.016-2.042-0.537c-0.195,0.337,0.539,0.706,0.85,0.663c0.281,0.326,0.998,0.214,1.118,0.573
		c-0.369-0.126-0.294,0.058-0.363,0.288c-0.285-0.024-0.133,0.322-0.403,0.257c-0.545-0.079,0.134-0.483-0.18-0.699
		c-0.356,0.09-0.287,0.486-0.433,0.693c-0.55-0.083-0.581-0.647-0.735-1.103c-0.816,0.471-1.265-0.311-2.156-0.214
		c0.002,0.297,0.716,0.553,0.345,0.883c-0.354,0.766,1.221,0.247,1.197,0.989c-0.402,0.592-4.616-2.274-3.375-0.913
		c0.434-0.023,0.27,0.446,0.682,0.563c0.304,0.372,0.867-0.248,0.949,0.373c-0.343,0.031-1.138,0.179-0.519,0.531
		c1.591,0.448,2.055,0.926,0.159,1.27c-0.757-0.02-0.861-0.894-1.453-1.131c-1.36-0.214-1.014-0.034-0.082,0.467
		c0.603,0.295,0.554,1.668,1.385,1.353c0.71,0.838-0.41,0.944-0.775,1.176c0.136,0.413,1.18,0.022,1.104,0.525
		c-0.725,0.011-1.256-0.146-1.934-0.342c-1.739,0.397-1.324,1.613,0.387,1.513c0.188,0.892,0.599,1.526,1.385,0.608
		c0.061-0.64,0.301-0.394,0.741-0.327c0.515-0.629,0.255-1.516,1.208-1.399c0.826-0.276,1.741-0.458,2.185-1.61
		C38.436,9.465,39.732,9.104,40.096,7.88z"/>
	<path class="st0" d="M29.228,10.835c-0.443,0.172,0.588,0.676,0.475,0.241C29.621,10.944,29.382,10.878,29.228,10.835z"/>
	<path class="st0" d="M31.144,12.016c0.193-0.115,0.673-0.436,0.251-0.567c0.117-0.146,0.172-0.302-0.071-0.41
		c-0.242-0.117-0.258,0.292-0.477,0.215c-0.218-0.166,0.117-0.296,0.252-0.402c0.207-0.25-0.307-0.433-0.452-0.286
		c-0.082,0.205-0.082,0.44-0.299,0.551C30.115,11.494,30.735,12.133,31.144,12.016z"/>
	<path class="st0" d="M32.187,13.73c-0.087-0.462-0.518-0.131-0.234,0.179C32.259,14.158,32.641,13.789,32.187,13.73z"/>
	<path class="st0" d="M33.388,6.484c0.32-0.155-0.151-0.527-0.374-0.468C32.989,6.211,33.159,6.493,33.388,6.484z"/>
	<path class="st0" d="M38.228,10.485c-0.107,0.333,0.313,0.185,0.48,0.095C38.997,10.187,38.374,10.158,38.228,10.485z"/>
	<path class="st0" d="M42.921,11.912c-1.961-0.36-0.974-3.226-2.95-1.394c-0.182,0.132-0.47,0.65-0.583,0.284
		c-0.965-0.155,0.003,0.713-0.512,0.92c-1.098-0.122-0.135,0.153-0.123,0.602c0.02,0.258-0.409,0.369-0.272,0.567
		c0.027,0.855-0.58,0.056-0.739,0.386c0.037,0.389,0.531,0.711,0.779,0.883c-0.087,0.339,0.195,0.326,0.445,0.346
		c0.278,0.145,0.423,0.678,0.744,0.197c-0.217-0.373-1.019-1.784,0.051-1.173c0.524,0.034,0.515,0.71,1.166,0.688
		c0.697,0.396,0.126-0.469,0.416-0.676c-0.135-0.204-0.28-0.05-0.432,0.035c-0.286-0.106,0.192-0.512,0.025-0.671
		c-0.632-0.043-0.404-0.868,0.153-0.509c0.58,0.08,0.441,0.926,1.057,0.694c0.358-0.87,1.044,0.191,1.294-0.124
		C43.49,12.372,43.781,11.899,42.921,11.912z"/>
	<path class="st0" d="M37.814,13.769c-0.248-0.012-0.269,0.604-0.102,0.692C38.048,14.527,37.996,13.901,37.814,13.769z"/>
	<path class="st0" d="M44.425,12.688c-0.151-0.112,0.175-0.506-0.333-0.315C43.653,13.155,45.307,13.034,44.425,12.688z"/>
	<path class="st0" d="M48.28,9.293c-0.82-0.398-3.075-0.158-1.331-1.032c0.303,0.292,1.268,0.807,1.448,0.147
		c-0.389-0.302-0.721-0.55-0.89-1.116c-0.534-0.155-1.683-0.245-2.031,0.275c-0.227,0.196-0.248-0.482-0.293-0.569
		c-0.143-0.372-1.263-0.858-1.28-0.252c-0.599,0.235-1.545-0.636-2.006-0.803c0.295,1.232,1.06,0.693-0.299,1.322
		c0.212,0.173,0.384,0.471-0.061,0.364c-0.112-0.477-0.738-0.23-0.689,0.162c0.453,0.162,0.847,0.564,0.093,0.253
		c-0.327,0.88-0.089,0.902,0.574,1.53c0.13,1.308,1.205,1.783,2.391,1.84c0.952,0.248,1.638-0.125,2.007-1.017
		C46.482,10.447,48.733,10.324,48.28,9.293z"/>
</g>
<path class="st0" d="M2.036,13.785c1.002,1.348,2.529,2.947,2.311,4.705c-0.528-1.727-0.794-1.401-1.781-0.128
	c-0.48,2.293,2.948,0.887,2.64,2.903c0.064,1.912,2.225,2.656,3.066,4.085c0.835,2.411,4.573,3.113,6.04,5.446
	c1.837,1.293,3.95,2.385,6.243,1.989c0.223-0.039,0.532-0.252,0.624-0.176c0.106,0.079-0.031,0.311,0.152,0.323
	c0.207,0.014,0.486-0.008,0.439,0.205c-0.695,0.198-0.224,1.009-0.836,1.188c0.331,0.322-0.428,0.512-0.296,1.012
	c-0.877,0.829-0.28-0.217-0.958-0.263c0.218,0.516-0.311,0.706-0.723,0.514c-0.153,0.165-0.185,0.457-0.505,0.315
	c-0.276-0.156,0.129-0.526-0.207-0.725c-0.35,0.078-1.14-0.192-1.407,0.082c0.26,0.662-0.737,0.832-1.515,0.8
	c-0.298-0.012-0.479-0.155-0.662-0.067c-0.131,0.063-0.026,0.253-0.082,0.409c-0.071,0.2-0.274,0.332-0.56,0.272
	c-1.342-0.284-1.147-0.963-1.875-1.131c-0.255-0.057-0.652-0.065-0.968-0.156c-0.269-0.078-0.554-0.37-0.844-0.296
	c-0.548,0.095-0.712-0.025-0.955-0.115c-0.305-0.109-0.643,0.189-0.852-0.171c-0.36-0.165-0.844,0.159-1.236,0.186
	c-0.766,0.052-1.096-0.211-1.687-0.302c-0.718-0.111-0.441-0.249-0.692-0.311c-0.191-0.047-0.375,0.04-0.531-0.008
	c-0.218-0.067-0.191-0.261-0.411-0.163c0.427,0.721-0.524,0.297-1.002,0.413c-0.328,0.214-0.56,0.136-0.72-0.719
	C2.2,29.4,2.077,14.144,2.036,13.785z"/>
<path class="st0" d="M23.723,34.741c0.015-0.126,0.163-0.199,0.218-0.302c0.062-0.116,0.075-0.242,0.166-0.253
	c0.123-0.015,0.255,0.184,0.399,0.225c0.303,0.086,0.66,0.069,0.559-0.14c-0.026-0.053-0.164-0.06-0.242-0.148
	c-0.117-0.58-0.013-0.466,0.183-0.289c0.103,0.093,0.233,0.245,0.366,0.231c0.055-0.006,0.229-0.061,0.285-0.017
	s0.081,0.101,0.085,0.145c0.031,0.304,0.098,0.404,0.194,0.268c-0.001-0.24-0.038-0.357,0.089-0.425
	c0.176-0.093,0.556-0.139,0.94,0.104c0.054,0.021,0.079-0.123,0.118-0.194c0.054-0.097,0.078-0.108,0.12,0.115
	c0.022,0.093,0.207-0.131,0.292-0.132c0.095-0.001,0.066,0.201,0.164,0.203c0.109,0.003,0.205-0.092,0.361-0.14
	c0.124-0.038,0.302-0.023,0.438-0.074c0.346-0.022,0.114,0.548,0.46,0.124c0.39-0.073,0.019,0.152,0.025,0.276
	c-0.135,0.31-1.19,0.58-0.759,0.004c-0.109-0.106-0.213,0.045-0.268,0.114c-0.043,0.053-0.276,0.136-0.334,0.118
	c-0.069-0.022-0.006-0.175-0.088-0.168c-0.285-0.002-0.066,0.341-0.191,0.43c-0.057,0.04-0.182-0.053-0.478-0.086
	c-0.552,0.547-0.181-0.185-0.298-0.359c-0.046-0.069-0.319-0.102-0.486,0.19c-0.055,0.095-0.221,0.103-0.358,0.207
	c-0.107,0.081-0.14,0.18-0.233,0.187c-0.276,0.02-0.086-0.103-0.08-0.215c-0.017-0.184-0.34,0.006-0.436,0.19
	c-0.04,0.077,0.052,0.15-0.011,0.235c-0.164,0.22-0.464,0.401-0.821,0.335c-0.22-0.065,0.137-0.366,0.077-0.486
	C24.042,34.73,23.723,34.988,23.723,34.741z"/>
</svg>
