<?xml version="1.0" encoding="utf-8"?>
<!-- Generator: Adobe Illustrator 24.0.3, SVG Export Plug-In . SVG Version: 6.00 Build 0)  -->
<svg version="1.1" id="Capa_1" xmlns="http://www.w3.org/2000/svg" xmlns:xlink="http://www.w3.org/1999/xlink" x="0px" y="0px"
	 viewBox="0 0 50.5 50.5" style="enable-background:new 0 0 50.5 50.5;" xml:space="preserve">
<style type="text/css">
	.st0{fill-rule:evenodd;clip-rule:evenodd;fill:#1D1D1B;}
</style>
<path id="Misiones_4_" class="st0" d="M35.844,3.148c-0.584,1.015-1.708-0.152-0.967,1.007c0.431,0.674-0.51-0.101-0.906,0.484
	c-0.192,0.284-0.23-0.673-0.656-0.66c-0.632,0.02-0.558,0.411-0.809,0.491c-0.248,0.079-0.342-0.173-0.628-0.021
	c-0.275,0.146-0.061,0.645-0.328,0.829c-0.554,0.169-0.025,0.969-0.419,0.951c-0.449-0.02,0.061-1.431-1.212-1.306
	c-0.233,0.023-0.164-0.249-0.236-0.41c-0.107-0.239-0.427-0.334-0.805-0.162c-0.406,0.184,0.662,1.252-0.092,1.295
	c-1.239,0.071-0.514,1.479,0.014,2.276c0.412,0.621-0.038,1.001-0.15,1.337c-0.256,0.765,0.26,1.186-0.086,1.497
	c-0.209,0.188-0.683-0.095-0.669,0.37c0.023,0.756,0.769,1.157,0.065,2.442c-0.307,0.56,0.63,0.836-0.099,1.764
	c-0.377,0.48,0.06,1.36-0.285,1.91c0.318,1.672-1.997,2.227-1.449,3.745c0.289,2.346-1.632,0.532-2.247,1.985
	c-0.02,2.162-3,1.534-2.979,3.409c0.005,0.448-0.206,1.012-0.654,1.031c-1.728,0.075-4.279-0.646-4.145,2.062
	c-0.158,0.526-0.84,0.174-1.233,0.291c-0.207,0.225-0.226,0.636-0.321,0.913c-0.205,0.195-0.756,0.095-0.652,0.484
	c1.311,1.906-0.654,2.941-1.976,4.069c-0.284,0.242-0.697,0.259-1.011,0.058c-1.088-0.694-1.383-2.317-2.506-1.605
	c-2.583,1.639,2.464,6.195,1.838,8.875c-0.121,0.908,0.644,1.482,1.054,2.172c0.078,0.701,0.411,1.336,1.004,1.756
	c1.737,1.641,1.191-0.329,2.107,0.957c0.345-0.202,0.661-0.767,0.881-1.166c0.291-0.097,0.592,0.253,0.974,0
	c0.147-0.301,0.812-0.858,0.887-1.188c-0.116-0.544,0.139-0.62,0.544-0.74c0.034-0.01,0.081-0.034,0.099-0.081
	c0.018-0.047,0.017-0.073,0.024-0.127c0.084-0.636,0.42-0.609,0.93-0.577c0.068,0.004,0.159,0.017,0.22-0.01
	c0.061-0.027,0.102-0.076,0.152-0.124c0.66-0.632,0.954-1.188,1.815-0.6c0.043,0.03,0.076,0.076,0.118,0.034
	c0.042-0.041,0.022-0.07,0.035-0.129c0.108-0.499,0.657-0.617,1.079-0.318c0.74,0.036-0.168-0.773-0.38-0.951
	c-0.631-0.839,1.969,0.621,2.535-1.518c0.114-0.875-0.172-1.445,0.844-1.562c0.215-0.467,0.065-1.166,0.598-1.441
	c0.502-0.184-0.017,0.57,0.465,0.631c1.335-0.477,1.059,0.25,1.71-1.028c0.449,1.234,0.619-0.779,1.13-0.854
	c0.511,0.707,1.271,0.638,2.024,0.115c0.115-0.306-0.589-0.795,0.057-0.84c1.061-0.524,1.067,1.53,1.471,0.296
	c-0.113-0.95,0.158-0.197,0.585,0.04c0.831-0.231,1.134-1.109,1.435-1.981c0.171-0.497,0.775-0.76,1.213-0.469
	c0.348,0.231,0.79,0.179,1.861-1.598c1.009,0.625,0.269-1.304,1.191-0.373c0.641,0.284,0.378-1.48,1.009-0.42
	c0.062,0.168,0.209,0.521,0.416,0.265c0.065-1.595,1.596-2.761,1.773-4.609c0.009-0.089,0.002-0.182-0.015-0.27
	c-0.177-0.916-0.357-1.821-0.855-2.331c-0.226-0.514,0.645-0.506,0.475-1.163c-0.185-0.584,0.016-1.124,0.136-1.684
	c0.027-0.141,0.005-0.135-0.041-0.153c-0.17-0.09-0.114-0.422,0.007-0.572c0.086-0.111,0.271-0.144,0.271-0.21
	c-0.037-1.067-0.381-2.423,0.42-3.299c0.105-0.114,0.347-0.331,0.324-0.911c-0.027-0.687-0.586-1.176-1.042-2.111
	c-0.261-0.536-0.18-1.082-0.481-1.546c-0.314-0.484-0.703-0.819-0.941-1.097c-0.104-0.122-0.125-0.287-0.116-0.446
	c0.151-2.842-0.247-2.345-0.713-3.314c-0.109-0.237,0.119-1.322-0.396-1.764c-0.076-0.068-0.202,0.062-0.239,0.092
	c-0.98,0.799-0.574-0.372-1.069-0.991c-0.199-0.14-0.307-0.21-0.502-0.181c-0.092,0.014-0.281,0.164-0.363,0.111
	c-0.822-0.854-0.175,0.368-0.65,0.438c-0.767-0.308-0.113-1.095-0.182-1.535c0,0-0.007-0.151-0.124-0.151
	C35.886,3.031,35.844,3.148,35.844,3.148z"/>
</svg>
