<?xml version="1.0" encoding="utf-8"?>
<!-- Generator: Adobe Illustrator 24.0.3, SVG Export Plug-In . SVG Version: 6.00 Build 0)  -->
<svg version="1.1" id="Capa_1" xmlns="http://www.w3.org/2000/svg" xmlns:xlink="http://www.w3.org/1999/xlink" x="0px" y="0px"
	 viewBox="0 0 50.5 50.5" style="enable-background:new 0 0 50.5 50.5;" xml:space="preserve">
<style type="text/css">
	.st0{fill-rule:evenodd;clip-rule:evenodd;fill:#1D1D1B;}
</style>
<path id="San_Juan_Province_4_" class="st0" d="M42.502,40.345c-0.083-0.201-0.176-0.386-0.287-0.484
	c-0.107-0.095-0.31-0.003-0.403-0.174c-0.085-0.314-0.154-0.786-0.179-1.121c-0.032-0.207-0.126-0.245-0.716-0.299
	c-0.404-0.162-0.705-0.53-0.953-0.854c-0.198-0.273-0.115-0.619-0.172-0.976c-0.053-0.334-0.449-0.646-0.436-1.014
	c0.033-0.957,0.5-2.096,0.362-2.839c-0.044-0.233-0.32-0.328-0.465-0.494c-0.186-0.362,0.321-1.046,0.266-1.477
	c-0.041-0.319-0.29-0.516-0.446-0.802c-0.185-0.339-0.294-0.765-0.525-1.15c-0.189-0.141-0.409-0.191-0.584-0.356
	c-0.313-0.295-0.502-0.84-0.783-1.192c-0.252-0.316-0.59-0.473-0.856-0.755c-0.182-0.192-0.247-0.464-0.418-0.673
	c-0.222-0.272-0.715-0.298-0.802-0.699c-0.515-1.889-2.771-2.814-3.98-4.187c-0.151-0.709-0.888-0.963-1.362-1.314
	c-0.646-1.011-1.871-1.747-3.044-2.041c-0.701,0.111-1.261-0.098-1.849-0.444c-0.783,0.338-1.533,0.147-2.3,0.339
	c-1.094,0.099-0.582-1.375-0.228-1.893c-0.036-0.395-0.171-1.156,0.282-1.332c-0.346-1.185-1.113-2.044,0.345-3.031
	c-0.072-0.713-0.887-1.14-0.997-1.929c-0.968-0.596-0.858-1.835-1.541-2.616c-0.071,0.035-1.406-1.301-1.482-1.199
	c-0.4,0.142-0.824-0.031-0.963-0.436c-0.304-0.253-0.76,0.271-1.081-0.163c-1.426-0.722-0.401,1.539-1.297,1.97
	c-0.644,0.866,0.179,1.865-0.402,2.743c-0.815,0.79,0.436,2.677-1.161,2.71c-0.223,0.269-0.662,0.58-0.849,0.86
	c0.297,0.417-0.955,0.826-0.432,1.632c0.569,1.462,0.655,3.023,1.09,4.471c-0.03,0.803,0.035,2.016-0.545,2.648
	c-0.096,0.576,1.823,0.287,1.148,1.473c-0.623,0.212-0.333,0.909-0.572,1.369c-0.579,1.408-2.057-0.141-2.373,0.553
	c0.74,0.705-2.798,5.505-0.962,6.624c0.431,0.508-0.358,0.141-0.544,0.332c-0.33,0.331-0.257,1.054-0.758,1.187
	c-1.062-2.127-1.369,2.916-1.433,3.736c-0.31,0.831,0.446,1.753,0.862,2.402c-0.08,0.536,0.075,1.143,0.526,1.482
	c2.048-0.278,2.035,2.263,0.689,1.745c-0.839-0.014,0.415,1.111,0.083,1.644c0.029,1.718,1.398,1.2,2.656,1.088
	c0.933,0.428,2.52-0.451,3.518-0.326c0.485-0.176,0.263-0.818,0.307-1.191c0.682-0.765,1.942-1.147,2.969-0.969
	c0.279-0.042,0.293-0.421,0.432-0.604c0.305-0.069,0.412-0.285,0.626-0.461c0.758-0.076,0.876,1.021,1.445,1.29
	c2.345-0.288-0.536,3.737,3.042,2.762c1.352-0.595,2.432-2.226,3.972-2.095c2.896-2.406,2.71,1.982,5.427,1.059
	c0.821-0.163,1.728-0.428,2.358,0.255c0.039-0.58-0.025-1.188,0.006-1.79c0.018-0.354,0.137-0.707,0.147-1.049
	c0.015-0.508-0.25-1.096,0.042-1.443c0.184-0.213,0.679-0.009,1.282,0.049c0.385,0.037,0.799-0.172,1.24-0.124
	c0.45,0.049,0.466,0.291,0.89,0.341c0.828,0.027,1.936-0.069,2.399-0.11C42.707,40.779,42.645,40.584,42.502,40.345z"/>
</svg>
