<?xml version="1.0" encoding="utf-8"?>
<!-- Generator: Adobe Illustrator 24.0.3, SVG Export Plug-In . SVG Version: 6.00 Build 0)  -->
<svg version="1.1" id="Capa_1" xmlns="http://www.w3.org/2000/svg" xmlns:xlink="http://www.w3.org/1999/xlink" x="0px" y="0px"
	 viewBox="0 0 50.5 50.5" style="enable-background:new 0 0 50.5 50.5;" xml:space="preserve">
<style type="text/css">
	.st0{fill-rule:evenodd;clip-rule:evenodd;fill:#1D1D1B;}
</style>
<path id="Mendoza_4_" class="st0" d="M36.832,28.347c0.305-2.139-1.44-4.178-1.65-6.174c-0.418-0.928,0.407-1.183,0.303-2.066
	c-0.794-1.347-1.462-2.765-2.26-4.207c-0.249-1.214-0.238-2.54-0.452-3.741c0.096-0.422,0.262-1.178-0.133-1.535
	c-0.228-0.552-0.267-1.454-0.582-1.873c-0.262-0.379-0.157-0.758-0.323-0.984c-0.134-0.183-0.304-0.185-0.514-0.287
	c-0.713,0.211-1.331,0.329-1.717,0.205c-0.163-0.053-0.299-0.193-0.412-0.282c-0.132-0.104-0.236-0.16-0.346-0.267
	c-0.075-0.073-0.084-0.247-0.149-0.314c-0.198-0.2-0.367-0.35-0.589-0.321c-0.262,0.012-0.556,0.102-0.868,0.238
	c-0.324,0.141-0.794,0.16-1.137,0.36c-0.644,0.374-0.868,0.91-1.379,1.128c-0.665,0.185-1.372,0.131-1.434,0.029
	c-0.099-0.163-0.041-1.549-0.131-1.702c-0.09-0.152-0.557,0.048-0.714-0.077c-0.265-0.209-0.357-0.609-0.73-0.736
	c-0.169,0.087-0.339,0.253-0.49,0.371c-0.116,0.638-0.853,0.045-1.211,0.364c-1.472,0.671-0.479,0.391-1.083,1.305
	c-1.569,0.54-4.44-0.569-2.842,1.807c-0.574,2.055,1.186,1.774,0.717,3.069c-0.248,0.29-0.582,0.295-0.331,0.783
	c-0.336,0.608,0.328,0.882,0.469,1.415c0.63-0.677,1.127-0.323,1.27,0.549c-0.149,0.715-0.685,1.3-0.566,2.051
	c0.305,0.39-0.37,0.76-0.067,1.445c-0.105,0.534,0.499,0.847,0.172,1.61c-0.086,0.444,0.482,0.859-0.285,1.003
	c-1.488-0.099-0.361,0.551-1.119,1.242c-0.107,0.157-0.14,0.385-0.261,0.554c-0.122,0.171-0.33,0.284-0.407,0.456
	c-0.119,0.265-0.108,0.525-0.186,0.752c-0.057,0.165-0.252,0.14-0.3,0.307c-0.039,0.135,0.225,0.267,0.188,0.405
	c-0.124,0.469-0.477,0.938-0.51,1.538c0.018,0.381,0.013,0.576-0.107,0.942c-0.227,0.206-0.681,0.22-0.881,0.373
	c-0.175,0.135-0.247,0.386-0.14,0.545c0.072,0.107,0.214,0.074,0.498,0.17c0.344,0.111,0.355,0.224,0.26,0.313
	c-0.078,0.073-0.245,0.118-0.207,0.228c0.063,0.181,0.094,0.356,0.161,0.482c0.067,0.126,0.17,0.203,0.189,0.345
	c0.041,0.303-0.07,0.633-0.059,0.938c0.012,0.343,0.153,0.661,0.349,0.98c0.157,0.357-0.77,0.768-0.126,0.917
	c-0.407,0.361,0.253,0.854-0.154,1.204c-0.285,0.426,0.296,0.491,0.307,0.901c0.023,0.352-0.132,0.352-0.148,0.58
	c-0.027,0.386,0.089,0.754,0.469,0.476c0.055,0.012,0.105,0.005,0.147,0.033c0.413,0.279,0.222,1.322,0.729,1.6
	c0.189,0.043,0.379,0.113,0.496,0.225c0.094,0.09,0.117,0.214,0.238,0.318c0.147,0.127,0.382,0.26,0.446,0.444
	c0.08,0.231,0.159,0.458,0.319,0.588c0.22,0.18,0.455,0.209,0.542,0.373c0.043,0.131,0.037,0.355,0.026,0.497
	c-0.021,0.285-0.196,0.31-0.173,0.462c0.052,0.356,0.294,0.532,0.501,0.721c0.345,0.315,0.762,0.516,1.278,0.551
	c0.385,0.026,0.745-0.163,1.152-0.16c0.369,0.002,0.787,0.19,1.121,0.328c0.337,0.179,0.178,0.781,0.622,1.136
	c0.422,0.338,0.868-0.126,2.103,0.564c0.148,0.137,0.54-0.016,0.697,0.095c0.329,0.233,0.222,0.592,0.646,0.697
	c0.237,0.059,0.709,0.156,0.83,0.065c0.014-2.696,0.081-8.009,0-9.979c0-0.474,0.063-0.844,0.244-1.044
	c0.635-0.104,0.939-0.068,2.418-0.068c2.426,0,5.63-0.016,6.663,0.003C36.094,31.929,37.008,30.061,36.832,28.347z"/>
</svg>
