<?xml version="1.0" encoding="utf-8"?>
<!-- Generator: Adobe Illustrator 24.0.3, SVG Export Plug-In . SVG Version: 6.00 Build 0)  -->
<svg version="1.1" id="Capa_1" xmlns="http://www.w3.org/2000/svg" xmlns:xlink="http://www.w3.org/1999/xlink" x="0px" y="0px"
	 viewBox="0 0 50.5 50.5" style="enable-background:new 0 0 50.5 50.5;" xml:space="preserve">
<style type="text/css">
	.st0{fill-rule:evenodd;clip-rule:evenodd;fill:#1D1D1B;}
</style>
<path id="Santiago_del_Estero_4_" class="st0" d="M37.964,11.831c-0.074-1.389,0.134-2.266-0.351-3.685
	C34.947,7.88,23.516,8.468,22.497,7.969c-2.464-1.31-2.096,0.966-3.131,3.182c-0.392,1.477-0.72,3.029-0.453,4.596
	c-0.647,0.361-0.565-0.063-0.882,1.053c-0.886,0.524-0.86,2.554-1.573,3.483c0.033,0.679-2.169,1.622-0.912,1.915
	c0.297,0.1,0.055,0.395-0.113,0.503c-1.097,0.083,0.561,1.433-0.442,2.501c-1.679,0.114,0.859,2.636-0.674,5.443
	c-0.1,0.184-0.079,0.399,0.04,0.572c1.121,1.636,0.161,5.058,1.788,6.778c1.529,0.453,4.341-1.74,5.876-0.334
	c-0.097,0.728,1.061,0.85,1.5,1.216c0.765,0.117,1.671-0.035,2.426,0.07c0.473,0.798,0.438,0.942,1.404,0.977
	c1.302,0.047,3.099-0.06,4.716-0.026c0.759,0.016,1.786-0.149,2.146,0.174c0.284,0.244,0.626,1.525,1.07,2.595
	c0.031,0.076,0.144,0.061,0.159-0.02C37.289,32.685,38.478,21.975,37.964,11.831z"/>
</svg>
