<svg xmlns="http://www.w3.org/2000/svg" viewBox="0 0 100 100"><defs><style>.cls-1{isolation:isolate;}.cls-2{fill:#009dd8;}.cls-3{fill:#51b7d6;opacity:0.15;mix-blend-mode:multiply;}.cls-4{fill:#1460aa;}.cls-5{fill:#fff;}</style></defs><title>plantilla svg celestes</title><g class="cls-1"><g id="Layer_2" data-name="Layer 2"><path class="cls-2" d="M76.38,68.76a8,8,0,0,1-8,8H32.29a8,8,0,0,1-8-8V28.53A4.76,4.76,0,0,1,29,23.78h42.6a4.76,4.76,0,0,1,4.76,4.75Z"/><path class="cls-3" d="M75.22,70.57c-7.94,0-17.42,0-21.35,0C29.61,70.33,27.94,57.85,24,45.74V68.1a8.38,8.38,0,0,0,8.36,8.36h36A23.13,23.13,0,0,0,75.22,70.57Z"/><path class="cls-4" d="M70.29,22.07H29.71a7.23,7.23,0,0,0-7.22,7.21V67.6A10.35,10.35,0,0,0,32.83,77.93H67.17A10.35,10.35,0,0,0,77.51,67.6V29.28A7.23,7.23,0,0,0,70.29,22.07ZM74.82,67.6a7.65,7.65,0,0,1-7.65,7.64H32.83a7.65,7.65,0,0,1-7.65-7.64V29.28a4.54,4.54,0,0,1,4.53-4.52H70.29a4.53,4.53,0,0,1,4.53,4.52Z"/><path class="cls-4" d="M56.89,37c-6.53-3.49-15.4-.14-17.8,1.31a.52.52,0,0,0-.16.74l1,1.57c1.34,2,3.92,2.79,6.59,1.83a8.94,8.94,0,0,1,4.86-.35c3.63.76,4.37,3.26,4.54,4.43-2.16-.07-4.45-.07-6.3-.07-6.42,0-12,3.73-12,9.6,0,5.53,3.75,9.33,10.75,9.33a11.11,11.11,0,0,0,7.78-3.66,4.44,4.44,0,0,0,3.87,2.72h2.38a.48.48,0,0,0,.48-.48V47.08A11,11,0,0,0,56.89,37ZM52.77,58.84a5.91,5.91,0,0,1-6.43.29,3.63,3.63,0,0,1-1-5.36C48,50.08,56,51.37,56,51.37S56.89,56.29,52.77,58.84Z"/><path class="cls-5" d="M56.89,37c-6.53-3.49-15.4-.14-17.8,1.31a.52.52,0,0,0-.16.74l1,1.57c1.34,2,3.92,2.79,6.59,1.83a8.94,8.94,0,0,1,4.86-.35c3.63.76,4.37,3.26,4.54,4.43-2.16-.07-4.45-.07-6.3-.07-6.42,0-12,3.73-12,9.6,0,5.53,3.75,9.33,10.75,9.33a11.11,11.11,0,0,0,7.78-3.66,4.44,4.44,0,0,0,3.87,2.72h2.38a.48.48,0,0,0,.48-.48V47.08A11,11,0,0,0,56.89,37ZM52.77,58.84a5.91,5.91,0,0,1-6.43.29,3.63,3.63,0,0,1-1-5.36C48,50.08,56,51.37,56,51.37S56.89,56.29,52.77,58.84Z"/></g></g></svg>