<?xml version="1.0" encoding="utf-8"?>
<!-- Generator: Adobe Illustrator 24.2.1, SVG Export Plug-In . SVG Version: 6.00 Build 0)  -->
<svg version="1.1" id="Layer_1" xmlns="http://www.w3.org/2000/svg" xmlns:xlink="http://www.w3.org/1999/xlink" x="0px" y="0px"
	 viewBox="0 0 50.5 50.5" style="enable-background:new 0 0 50.5 50.5;" xml:space="preserve">
<path d="M47.8,15.5c0-0.6-0.5-1.2-1.2-1.2H4.3c-0.6,0-1.2,0.5-1.2,1.2c0,0.3,0.1,0.6,0.4,0.8v19.5c0,0.4,0.4,0.8,0.8,0.8h5.5
	c0.4,0,0.8-0.4,0.8-0.8V27c0,0,0,0,0,0c0-3.1,2.5-5.7,5.7-5.7s5.7,2.5,5.7,5.7c0,0,0,0,0,0v8.8c0,0.4,0.4,0.8,0.8,0.8h5.5
	c0.4,0,0.8-0.4,0.8-0.8V27c0,0,0,0,0,0c0-3.1,2.5-5.7,5.7-5.7s5.7,2.5,5.7,5.7c0,0,0,0,0,0v8.8c0,0.4,0.4,0.8,0.8,0.8h5.5
	c0.4,0,0.8-0.4,0.8-0.8V16.3C47.7,16.1,47.8,15.8,47.8,15.5z M5.1,35V16.7H9V35H5.1z M16.3,19.7c-2.3,0-4.3,1.1-5.7,2.7l0-5.8H22
	l0,5.8C20.6,20.8,18.6,19.7,16.3,19.7z M23.6,35V16.7h3.9V35H23.6z M34.7,19.7c-2.3,0-4.3,1.1-5.7,2.7l0-5.8h11.3l0,5.8
	C39,20.8,37,19.7,34.7,19.7z M42,35V16.7h3.9V35H42z"/>
</svg>
