<?xml version="1.0" encoding="utf-8"?>
<!-- Generator: Adobe Illustrator 24.2.1, SVG Export Plug-In . SVG Version: 6.00 Build 0)  -->
<svg version="1.1" id="Capa_1" xmlns="http://www.w3.org/2000/svg" xmlns:xlink="http://www.w3.org/1999/xlink" x="0px" y="0px"
	 viewBox="0 0 50.5 50.5" style="enable-background:new 0 0 50.5 50.5;" xml:space="preserve">
<g>
	<path d="M25.25,1.75c-12.979,0-23.5,10.521-23.5,23.5c0,12.978,10.521,23.5,23.5,23.5c12.978,0,23.5-10.521,23.5-23.5
		C48.75,12.271,38.229,1.75,25.25,1.75z M26.044,33.233l-0.001,3.02c0,1.686-1.132,2.819-2.816,2.819
		c-0.7,0-1.447,0.001-2.237,0.003c-0.89,0.001-1.835,0.002-2.832,0.002c-1.532,0-2.643-1.146-2.643-2.726
		c0-0.384,0.003-7.075,0.006-12.643c0.002-3.967,0.004-7.363,0.004-7.502c0-0.904,0.39-1.696,1.07-2.173
		c0.726-0.509,1.722-0.61,2.664-0.27c0.713,0.258,1.923,0.829,3.396,1.572c-0.002-0.521-0.004-0.935-0.004-1.193
		c0-1.368,0.957-2.748,3.095-2.748c9.117,0,14.139,4.129,14.139,11.627C39.883,29.494,34.84,33.213,26.044,33.233z"/>
	<path d="M25.744,14.229c-0.115,0-0.2,0.009-0.259,0.02c0,0.5,0.005,1.43,0.012,2.555c1.803,0.95,3.742,1.996,5.537,2.972
		c0.353,0.192,0.624,0.339,0.789,0.428h0c0.871,0.469,1.431,1.341,1.464,2.278c0.03,0.864-0.405,1.664-1.163,2.142
		c-1.011,0.636-4.806,2.739-5.965,3.283c-0.688,0.322-1.511,0.253-2.201-0.186c-0.769-0.488-1.246-1.336-1.246-2.211
		c0-0.68-0.015-2.921-0.029-5.295c-0.004-0.565-0.007-1.134-0.011-1.687c-0.347-0.167-3.737-1.798-4.313-2.075
		c0,0.866-0.002,3.85-0.004,7.256c-0.002,5.28-0.006,11.571-0.006,12.533c0.925,0,1.804-0.001,2.635-0.003
		c0.785-0.001,1.527-0.003,2.223-0.003l0.001-3.12c0-1.626,1.11-2.717,2.762-2.717c2.689,0,5.059-0.401,6.854-1.159
		c2.842-1.2,4.223-3.235,4.223-6.218C37.047,17.187,33.245,14.229,25.744,14.229z"/>
	<path d="M30.134,22.514c-0.131-0.07-0.283-0.154-0.454-0.247c-0.885-0.481-2.452-1.332-4.164-2.244
		c0,0.058,0.001,0.116,0.001,0.174c0.013,1.984,0.025,3.875,0.029,4.848C26.753,24.42,28.987,23.189,30.134,22.514z"/>
</g>
</svg>
