<svg id="Layer_1" data-name="Layer 1" xmlns="http://www.w3.org/2000/svg" viewBox="0 0 50.46 50.46"><defs><style>.cls-1{fill:#12b5e1;}</style></defs><title>radar meteorológico</title><path class="cls-1" d="M41.46,3.64a2.85,2.85,0,0,0-4.67,3.07l-4.13,4.14-10.72.31-3.12-3a1.05,1.05,0,0,0-1.48,0,14.4,14.4,0,0,0-2.5,17.12,14.85,14.85,0,0,0,1.73,2.34L15,37.72H13.23a1.06,1.06,0,0,0-1.06,1.06v2.85H12a3.83,3.83,0,0,0-3.82,3.83V46.6a1.06,1.06,0,0,0,1.05,1.06H31.83a1.07,1.07,0,0,0,1.06-1.06V45.46a3.83,3.83,0,0,0-3.75-3.83V38.78a1.06,1.06,0,0,0-1.06-1.06H26l-.83-5.13a15,15,0,0,0,2.36.19A14.47,14.47,0,0,0,38,28.22a1.05,1.05,0,0,0,0-1.48l-4.12-4,.29-10.39,4.09-4.09a2.85,2.85,0,0,0,3.22-4.61ZM30.48,13l-3.26,3.26-3.17-3.07Zm1.5,1.5-.18,6.21-3.06-3ZM29.06,43.74a1.71,1.71,0,0,1,1.71,1.72v.08H10.27v-.08A1.72,1.72,0,0,1,12,43.74Zm-2-3.91v1.8H14.29v-1.8Zm-9.87-2.11,1.73-11.23h0a1.58,1.58,0,0,1,3.13,0l1.82,11.21ZM35.74,27.5a12.22,12.22,0,0,1-8.24,3.17,12.59,12.59,0,0,1-2.73-.32l-.67-4.17A3.7,3.7,0,0,0,17.18,25c-.28-.38-.45-.66-.5-.74A12.32,12.32,0,0,1,18.13,10.4Z"/></svg>