<?xml version="1.0" encoding="utf-8"?>
<!-- Generator: Adobe Illustrator 22.1.0, SVG Export Plug-In . SVG Version: 6.00 Build 0)  -->
<svg version="1.1" id="Layer_1" xmlns="http://www.w3.org/2000/svg" xmlns:xlink="http://www.w3.org/1999/xlink" x="0px" y="0px"
	 viewBox="0 0 50.5 50.5" style="enable-background:new 0 0 50.5 50.5;" xml:space="preserve">
<style type="text/css">
	.st0{fill:#12B5E1;}
</style>
<g>
	<path class="st0" d="M31.9,28.5c0.2-0.6,0.4-1.2,0.5-1.7c0.6-2.5,0.4-4.2-0.7-4.9c-1.1-0.7-2.7-0.2-4.7,1.5c-0.6,0.5-1.1,1-1.7,1.6
		c-0.6-0.6-1.1-1.2-1.7-1.6c-2-1.7-3.6-2.2-4.7-1.5c-1.1,0.7-1.3,2.4-0.7,4.9c0.1,0.6,0.3,1.1,0.5,1.7c-3.2,0.7-5.5,1.9-5.5,3.7
		c0,1.7,2.4,3,5.5,3.7c-1.1,3.1-1.3,5.7,0.2,6.7c0.3,0.2,0.7,0.3,1.1,0.3c1,0,2.2-0.6,3.7-1.8c0.6-0.5,1.1-1,1.7-1.6
		c0.6,0.6,1.1,1.2,1.7,1.6c1.4,1.2,2.7,1.8,3.7,1.8c0.4,0,0.8-0.1,1.1-0.3c1.5-0.9,1.3-3.6,0.2-6.7c3.2-0.7,5.5-1.9,5.5-3.7
		C37.4,30.4,35.1,29.2,31.9,28.5z M27.7,24.2c1.2-1,2.3-1.5,3-1.5c0.2,0,0.3,0,0.5,0.1c0.6,0.4,0.7,1.8,0.2,3.7
		c-0.1,0.6-0.3,1.2-0.6,1.8c-1-0.2-2.1-0.3-3.2-0.4c-0.5-0.7-1.1-1.4-1.6-2.1C26.6,25.2,27.1,24.6,27.7,24.2z M20.9,33.3
		c0.2,0.4,0.4,0.7,0.7,1.1c0.2,0.3,0.3,0.5,0.5,0.8c-0.7-0.1-1.3-0.2-1.9-0.3C20.4,34.4,20.6,33.9,20.9,33.3z M20.9,31
		c-0.3-0.6-0.5-1.1-0.8-1.7c0.6-0.1,1.3-0.2,1.9-0.3c-0.2,0.3-0.3,0.5-0.5,0.8C21.3,30.2,21.1,30.6,20.9,31z M21.5,32.1
		c0.3-0.6,0.6-1.1,1-1.7c0.3-0.5,0.6-1,1-1.5c0.6,0,1.2-0.1,1.8-0.1c0.6,0,1.2,0,1.8,0.1c0.3,0.5,0.7,1,1,1.5c0.4,0.6,0.7,1.2,1,1.7
		c-0.3,0.6-0.6,1.1-1,1.7c-0.3,0.5-0.6,1-1,1.5c-0.6,0-1.2,0.1-1.8,0.1c-0.6,0-1.2,0-1.8-0.1c-0.3-0.5-0.7-1-1-1.5
		C22.1,33.3,21.8,32.7,21.5,32.1z M28.9,34.4c0.2-0.4,0.5-0.7,0.7-1.1c0.3,0.6,0.5,1.1,0.8,1.7c-0.6,0.1-1.3,0.2-1.9,0.3
		C28.6,35,28.8,34.7,28.9,34.4z M28.9,29.8c-0.2-0.3-0.3-0.5-0.5-0.8c0.7,0.1,1.3,0.2,1.9,0.3c-0.2,0.5-0.5,1.1-0.8,1.7
		C29.4,30.6,29.2,30.2,28.9,29.8z M26.2,27.8c-0.3,0-0.6,0-0.9,0c-0.3,0-0.6,0-0.9,0c0.3-0.4,0.6-0.8,0.9-1.2
		C25.6,27,25.9,27.4,26.2,27.8z M19.4,22.7c0.1-0.1,0.3-0.1,0.5-0.1c0.7,0,1.8,0.5,3,1.5c0.6,0.5,1.1,1,1.7,1.6
		c-0.6,0.6-1.1,1.3-1.6,2.1c-1.1,0.1-2.1,0.2-3.2,0.4c-0.2-0.6-0.4-1.2-0.6-1.8C18.7,24.5,18.8,23.1,19.4,22.7z M14.2,32.1
		c0-1,1.9-2,4.8-2.6c0.3,0.9,0.8,1.7,1.2,2.6c-0.5,0.9-0.9,1.8-1.2,2.6C16.1,34.1,14.2,33.1,14.2,32.1z M22.8,40.1
		c-1.5,1.3-2.8,1.8-3.4,1.4c-0.8-0.5-0.7-2.6,0.3-5.5c1,0.2,2.1,0.3,3.1,0.4c0.5,0.7,1.1,1.4,1.6,2.1C23.9,39.1,23.4,39.6,22.8,40.1
		z M24.3,36.5c0.3,0,0.6,0,0.9,0c0.3,0,0.6,0,0.9,0c-0.3,0.4-0.6,0.8-0.9,1.2C24.9,37.3,24.6,36.9,24.3,36.5z M31.1,41.5
		c-0.6,0.4-1.9-0.2-3.4-1.4c-0.6-0.5-1.1-1-1.7-1.6c0.6-0.6,1.1-1.3,1.6-2.1c1.1-0.1,2.1-0.2,3.1-0.4C31.8,38.9,31.9,41,31.1,41.5z
		 M31.5,34.8c-0.4-0.9-0.8-1.7-1.2-2.6c0.5-0.9,0.9-1.8,1.2-2.6c3,0.6,4.8,1.7,4.8,2.6C36.3,33.1,34.4,34.1,31.5,34.8z"/>
	<path class="st0" d="M25.2,34.3c1.1,0,2-0.9,2-2c0-1.1-0.9-2-2-2c-1.1,0-2,0.9-2,2C23.1,33.4,24,34.3,25.2,34.3z"/>
	<path class="st0" d="M37.8,18.8l-4.8-3c-0.8-0.5-1.3-1.4-1.3-2.3v-0.7h2.9c0.5,0,0.9-0.4,0.9-0.9v-6c0-1.7-1.4-3.1-3.1-3.1H18.1
		c-1.7,0-3.1,1.4-3.1,3.1v6c0,0.5,0.4,0.9,0.9,0.9h2.9v0.7c0,0.9-0.5,1.8-1.3,2.3l-4.8,3c-1.3,0.8-2.1,2.3-2.1,3.8v20.7
		c0,2.5,2.1,4.5,4.7,4.5h20c2.6,0,4.7-2,4.7-4.5V22.6C39.9,21,39.1,19.6,37.8,18.8z M20.2,11V4.5h2.6V11H20.2z M24,4.5h2.6V11H24
		V4.5z M27.7,4.5h2.6V11h-2.6V4.5z M33.7,5.8V11h-2.3V4.5h0.9C33.1,4.5,33.7,5.1,33.7,5.8z M16.8,5.8c0-0.7,0.6-1.3,1.3-1.3h0.9V11
		h-2.3V5.8z M38.2,43.2c0,1.5-1.3,2.8-2.9,2.8h-20c-1.6,0-2.9-1.3-2.9-2.8V22.6c0-0.9,0.5-1.8,1.3-2.3l4.8-3
		c1.3-0.8,2.1-2.3,2.1-3.8v-0.7H30v0.7c0,1.5,0.8,3,2.1,3.8l4.8,3c0.8,0.5,1.3,1.4,1.3,2.3V43.2z"/>
</g>
</svg>
