<?xml version="1.0" encoding="utf-8"?>
<!-- Generator: Adobe Illustrator 22.1.0, SVG Export Plug-In . SVG Version: 6.00 Build 0)  -->
<svg version="1.1" id="Layer_1" xmlns="http://www.w3.org/2000/svg" xmlns:xlink="http://www.w3.org/1999/xlink" x="0px" y="0px"
	 viewBox="0 0 50.5 50.5" style="enable-background:new 0 0 50.5 50.5;" xml:space="preserve">
<style type="text/css">
	.st0{fill:#12B5E1;}
</style>
<g>
	<g>
		<path class="st0" d="M42.7,37.4L33,15.5l0-6.7h-0.3c0.1,0,0.2,0,0.4,0c1.4-0.2,2.5-1.4,2.5-2.8c0-1.6-1.3-2.8-2.8-2.8H17.8
			c-1.6,0-2.8,1.3-2.8,2.8s1.3,2.8,2.8,2.8h0.4l0,6.7L7.9,37.2c-1.1,2.2-1,4.8,0.3,6.9c1.3,2.1,3.6,3.3,6,3.3h22
			c2.4,0,4.7-1.2,6-3.3C43.5,42.1,43.7,39.6,42.7,37.4z M40.7,43.2c-1,1.5-2.7,2.4-4.5,2.4h-22c-1.9,0-3.5-0.9-4.5-2.5
			c-1-1.6-1.1-3.5-0.2-5.2l10.3-21.9c0.1-0.1,0.1-0.2,0.1-0.4l0-6.9h8.4c0.5,0,0.9-0.4,0.9-0.9c0-0.5-0.4-0.9-0.9-0.9H19h0h-1.2
			c-0.6,0-1.1-0.5-1.1-1.1s0.5-1.1,1.1-1.1h14.9c0.6,0,1.1,0.5,1.1,1.1S33.3,7,32.7,7h-0.6h0h-0.6c-0.5,0-0.9,0.4-0.9,0.9
			c0,0.4,0.3,0.7,0.6,0.8l0,7c0,0.1,0,0.2,0.1,0.4l9.7,22C41.8,39.8,41.7,41.7,40.7,43.2z"/>
	</g>
	<g>
		<g>
			<path class="st0" d="M32,29.3c0.2-0.6,0.4-1.2,0.5-1.8c0.6-2.6,0.4-4.3-0.7-5C30.7,21.8,29,22.3,27,24c-0.6,0.5-1.1,1-1.7,1.7
				c-0.6-0.6-1.2-1.2-1.7-1.7c-2-1.7-3.7-2.2-4.8-1.5c-1.1,0.7-1.4,2.4-0.7,5c0.1,0.6,0.3,1.2,0.5,1.8c-3.2,0.7-5.6,2-5.6,3.7
				c0,1.8,2.4,3,5.6,3.7c-1.1,3.1-1.3,5.8,0.2,6.8c0.3,0.2,0.7,0.3,1.1,0.3c1,0,2.3-0.6,3.7-1.8c0.6-0.5,1.1-1,1.7-1.7
				c0.6,0.6,1.2,1.2,1.7,1.7c1.4,1.2,2.7,1.8,3.7,1.8c0.4,0,0.8-0.1,1.1-0.3c1.5-0.9,1.3-3.6,0.2-6.8c3.2-0.7,5.6-2,5.6-3.7
				C37.6,31.2,35.2,30,32,29.3z M27.7,24.9c1.2-1,2.3-1.6,3-1.6c0.2,0,0.4,0,0.5,0.1c0.6,0.4,0.7,1.8,0.2,3.8
				c-0.1,0.6-0.3,1.2-0.6,1.8c-1-0.2-2.1-0.3-3.2-0.4c-0.5-0.8-1.1-1.5-1.7-2.1C26.6,25.9,27.1,25.4,27.7,24.9z M20.8,34.2
				c0.2,0.4,0.4,0.8,0.7,1.1c0.2,0.3,0.3,0.5,0.5,0.8c-0.7-0.1-1.3-0.2-2-0.3C20.3,35.3,20.5,34.8,20.8,34.2z M20.8,31.8
				c-0.3-0.6-0.5-1.1-0.8-1.7c0.6-0.1,1.3-0.2,2-0.3c-0.2,0.3-0.3,0.5-0.5,0.8C21.3,31,21,31.4,20.8,31.8z M21.4,33
				c0.3-0.6,0.6-1.2,1-1.7c0.3-0.5,0.7-1,1-1.5c0.6,0,1.2-0.1,1.8-0.1c0.6,0,1.2,0,1.8,0.1c0.3,0.5,0.7,1,1,1.5
				c0.4,0.6,0.7,1.2,1,1.7c-0.3,0.6-0.7,1.2-1,1.7c-0.3,0.5-0.7,1-1,1.5c-0.6,0-1.2,0.1-1.8,0.1c-0.6,0-1.2,0-1.8-0.1
				c-0.3-0.5-0.7-1-1-1.5C22.1,34.2,21.8,33.6,21.4,33z M29,35.3c0.2-0.4,0.5-0.8,0.7-1.1c0.3,0.6,0.5,1.1,0.8,1.7
				c-0.6,0.1-1.3,0.2-2,0.3C28.7,35.9,28.8,35.6,29,35.3z M29,30.7c-0.2-0.3-0.3-0.5-0.5-0.8c0.7,0.1,1.3,0.2,2,0.3
				c-0.2,0.6-0.5,1.1-0.8,1.7C29.5,31.4,29.2,31,29,30.7z M26.2,28.6c-0.3,0-0.6,0-1,0c-0.3,0-0.6,0-1,0c0.3-0.4,0.6-0.8,1-1.2
				C25.6,27.8,25.9,28.2,26.2,28.6z M19.3,23.5c0.1-0.1,0.3-0.1,0.5-0.1c0.7,0,1.8,0.6,3,1.6c0.6,0.5,1.1,1,1.7,1.6
				c-0.6,0.7-1.1,1.4-1.7,2.1c-1.1,0.1-2.2,0.2-3.2,0.4c-0.2-0.6-0.4-1.2-0.6-1.8C18.6,25.3,18.7,23.8,19.3,23.5z M14,33
				c0-1,1.9-2,4.9-2.7c0.4,0.9,0.8,1.8,1.2,2.7c-0.5,0.9-0.9,1.8-1.2,2.7C15.9,35,14,34,14,33z M22.8,41.1c-1.5,1.3-2.9,1.8-3.5,1.4
				c-0.8-0.5-0.7-2.7,0.3-5.6c1,0.2,2.1,0.3,3.2,0.4c0.5,0.8,1.1,1.5,1.7,2.1C23.9,40.1,23.4,40.6,22.8,41.1z M24.3,37.4
				c0.3,0,0.6,0,1,0c0.3,0,0.6,0,1,0c-0.3,0.4-0.6,0.8-1,1.2C24.9,38.2,24.6,37.8,24.3,37.4z M31.2,42.5c-0.6,0.4-2-0.2-3.5-1.4
				c-0.6-0.5-1.1-1-1.7-1.6c0.6-0.7,1.1-1.4,1.7-2.1c1.1-0.1,2.2-0.2,3.2-0.4C31.9,39.8,32,42,31.2,42.5z M31.6,35.7
				c-0.4-0.9-0.8-1.8-1.2-2.7c0.5-0.9,0.9-1.8,1.2-2.7c3,0.6,4.9,1.7,4.9,2.7C36.5,34,34.6,35,31.6,35.7z"/>
			<path class="st0" d="M25.2,35.2c1.1,0,2-0.9,2-2c0-1.1-0.9-2-2-2c-1.1,0-2,0.9-2,2C23.1,34.3,24,35.2,25.2,35.2z"/>
		</g>
	</g>
</g>
</svg>
