<?xml version="1.0" encoding="utf-8"?>
<!-- Generator: Adobe Illustrator 24.0.1, SVG Export Plug-In . SVG Version: 6.00 Build 0)  -->
<!DOCTYPE svg PUBLIC "-//W3C//DTD SVG 1.1//EN" "http://www.w3.org/Graphics/SVG/1.1/DTD/svg11.dtd" [
	<!ENTITY ns_extend "http://ns.adobe.com/Extensibility/1.0/">
	<!ENTITY ns_ai "http://ns.adobe.com/AdobeIllustrator/10.0/">
	<!ENTITY ns_graphs "http://ns.adobe.com/Graphs/1.0/">
	<!ENTITY ns_vars "http://ns.adobe.com/Variables/1.0/">
	<!ENTITY ns_imrep "http://ns.adobe.com/ImageReplacement/1.0/">
	<!ENTITY ns_sfw "http://ns.adobe.com/SaveForWeb/1.0/">
	<!ENTITY ns_custom "http://ns.adobe.com/GenericCustomNamespace/1.0/">
	<!ENTITY ns_adobe_xpath "http://ns.adobe.com/XPath/1.0/">
]>
<svg version="1.1" id="Capa_1" xmlns:x="&ns_extend;" xmlns:i="&ns_ai;" xmlns:graph="&ns_graphs;"
	 xmlns="http://www.w3.org/2000/svg" xmlns:xlink="http://www.w3.org/1999/xlink" x="0px" y="0px" viewBox="0 0 50.46 50.46"
	 enable-background="new 0 0 50.46 50.46" xml:space="preserve">
<metadata>
	<sfw  xmlns="&ns_sfw;">
		<slices></slices>
		<sliceSourceBounds  bottomLeftOrigin="true" height="35.918" width="42.863" x="3.799" y="-43.189"></sliceSourceBounds>
	</sfw>
</metadata>
<g>
	<g id="l8Sgnw_1_">
		<g>
			<path d="M46.661,33.488c-0.33,0.675-0.835,1.092-1.651,1.071c-0.009,0.139-0.023,0.259-0.023,0.379
				c-0.002,1.378,0.006,2.756-0.007,4.134c-0.002,0.267,0.052,0.419,0.325,0.526c0.726,0.285,1.092,0.901,1.356,1.593
				c0,0.419,0,0.837,0,1.256c-0.312,0.587-0.82,0.744-1.455,0.743c-7.267-0.011-14.533-0.006-21.8-0.01
				c-0.235,0-0.476-0.016-0.703-0.072c-0.385-0.095-0.621-0.374-0.715-0.747c-0.277-1.095,0.289-2.296,1.317-2.756
				c0.255-0.114,0.345-0.235,0.341-0.517c-0.017-1.381-0.007-2.761-0.009-4.142c0-0.121-0.014-0.241-0.024-0.385
				c-0.199,0-0.365,0-0.531,0c-2.65,0-5.3-0.002-7.95,0.001c-0.675,0.001-1.275-0.185-1.549-0.845
				c-0.285-0.686-0.266-1.422-0.01-2.117c0.187-0.508,0.645-0.742,1.156-0.848c-0.186-1.494,0.537-2.492,1.856-2.507
				c2.134-0.024,4.268-0.017,6.402-0.002c0.928,0.007,1.66,0.582,1.852,1.457c0.071,0.324,0.011,0.677,0.011,1.049
				c0.2,0,0.38,0,0.559,0c6.43,0,12.859,0.01,19.289-0.012c0.894-0.003,1.574,0.232,1.962,1.077
				C46.661,32.372,46.661,32.93,46.661,33.488z M43.719,34.593c-6.265,0-12.519,0-18.799,0c0,1.57,0,3.14,0,4.779
				c0.38,0,0.763-0.002,1.146,0c0.567,0.003,0.848,0.213,0.854,0.634c0.007,0.435-0.287,0.66-0.872,0.664
				c-0.586,0.003-1.172-0.007-1.758,0.004c-0.686,0.012-1.084,0.469-1.033,1.185c7.372,0,14.745,0,22.117,0
				c0.042-0.772-0.369-1.187-1.168-1.187c-4.869-0.002-9.739,0-14.608-0.003c-0.179,0-0.364-0.009-0.537-0.052
				c-0.308-0.077-0.474-0.303-0.467-0.612c0.007-0.309,0.183-0.526,0.492-0.595c0.161-0.036,0.331-0.037,0.497-0.037
				c4.535-0.002,9.069-0.001,13.604-0.001c0.165,0,0.33,0,0.532,0C43.719,37.745,43.719,36.185,43.719,34.593z M44.816,33.254
				c0.189,0,0.523-0.064,0.54-0.149c0.062-0.304,0.024-0.631,0.002-0.947c-0.003-0.04-0.13-0.09-0.206-0.102
				c-0.109-0.018-0.222-0.007-0.334-0.007c-9.849,0-19.698-0.001-29.547,0.006c-0.189,0-0.524,0.062-0.541,0.144
				c-0.06,0.305-0.023,0.631,0,0.947c0.003,0.041,0.13,0.095,0.205,0.105c0.137,0.018,0.278,0.009,0.418,0.009
				c4.897,0,9.793,0,14.69,0C34.967,33.26,39.891,33.262,44.816,33.254z M22.975,30.747c0.321,0.001,0.553-0.148,0.591-0.451
				c0.025-0.199,0.003-0.459-0.131-0.633c-0.089-0.115-0.328-0.12-0.471-0.121c-2.121-0.008-4.241-0.008-6.362-0.003
				c-0.387,0.001-0.663,0.269-0.659,0.605c0.004,0.334,0.276,0.595,0.67,0.598c1.06,0.009,2.121,0.003,3.181,0.003
				C20.854,30.746,21.915,30.744,22.975,30.747z"/>
			<path d="M3.799,20.37c0-0.634,0.209-0.941,0.635-0.935c0.423,0.006,0.62,0.306,0.62,0.949c0,6.125,0.002,14.862-0.004,20.987
				c0,0.323,0.032,0.519,0.44,0.518c4.507-0.011,9.013-0.01,13.52-0.001c0.354,0.001,0.454-0.127,0.45-0.466
				c-0.015-1.297-0.019-2.595,0.002-3.892c0.006-0.383-0.14-0.47-0.491-0.465c-1.297,0.016-2.595,0.003-3.893,0.007
				c-2.716,0.007-4.215-2.174-4.182-4.203c0.064-3.961,0.016-10.537,0.02-14.499c0.002-1.81,1.221-3.421,2.991-3.799
				c0.819-0.175,1.688-0.154,2.535-0.157c3.767-0.015,7.534-0.006,11.301-0.008c0.58,0,0.824-0.196,0.831-0.694
				c0.012-0.837,0.029-1.675-0.006-2.511c-0.063-1.484-1.21-2.603-2.679-2.606c-4.172-0.009-8.344-0.028-12.515,0.009
				c-2.442,0.022-4.48,1.03-6.113,2.828c-1.446,1.592-2.14,3.493-2.207,5.633c-0.014,0.448-0.267,0.73-0.639,0.722
				c-0.373-0.008-0.625-0.295-0.612-0.745c0.014-0.473,0.028-0.95,0.1-1.416c0.736-4.717,4.764-8.255,9.58-8.323
				c4.115-0.057,8.232-0.027,12.348-0.006c2.007,0.01,3.632,1.331,3.919,3.312c0.169,1.161,0.104,2.366,0.043,3.547
				c-0.032,0.625-0.459,1.123-1.06,1.347c-0.38,0.141-0.812,0.168-1.224,0.193c-0.257,0.016-0.405,0.061-0.474,0.338
				c-0.09,0.363-0.229,0.714-0.355,1.068c-0.261,0.729-0.729,1.098-1.498,1.109c-1.367,0.018-2.735,0.019-4.102-0.001
				c-0.765-0.011-1.232-0.386-1.492-1.118c-0.13-0.367-0.265-0.733-0.369-1.108c-0.06-0.216-0.167-0.284-0.383-0.282
				c-1.381,0.009-2.762,0.006-4.144,0.012c-0.138,0.001-0.279,0.02-0.412,0.053c-1.307,0.324-2.107,1.38-2.109,2.8
				c-0.004,3.865,0.025,10.342-0.013,14.207c-0.017,1.724,1.193,3.079,2.99,3.008c1.323-0.052,2.651-0.016,3.976-0.008
				c0.987,0.006,1.583,0.614,1.584,1.597c0.001,1.395,0.001,2.79,0,4.186c-0.001,0.992-0.578,1.618-1.563,1.621
				c-4.59,0.01-9.181,0.01-13.771,0.001c-0.988-0.002-1.575-0.625-1.575-1.611c-0.001-3.083,0-6.167,0-9.25
				C3.799,29.206,3.799,23.482,3.799,20.37z M20.479,15.719c0.137,0.39,0.253,0.758,0.403,1.111
				c0.026,0.061,0.195,0.084,0.298,0.084c1.296,0.006,2.592-0.001,3.888,0.008c0.249,0.002,0.382-0.079,0.443-0.329
				c0.068-0.28,0.177-0.551,0.284-0.874C24.004,15.719,22.292,15.719,20.479,15.719z"/>
			<path d="M24.394,11.492c-0.001,0.466,0.387,0.859,0.843,0.854c0.459-0.005,0.836-0.4,0.829-0.868
				c-0.007-0.448-0.378-0.823-0.822-0.832C24.788,10.636,24.395,11.028,24.394,11.492z"/>
			<path d="M20.208,11.478c-0.007,0.467,0.371,0.863,0.829,0.867c0.458,0.004,0.844-0.387,0.843-0.854
				c-0.002-0.449-0.363-0.828-0.808-0.846C20.619,10.627,20.215,11.016,20.208,11.478z"/>
		</g>
	</g>
	<path d="M16.489,22.637c-0.215,0.082-0.345,0.265-0.363,0.498c-0.02,0.265,0.121,0.455,0.312,0.63
		c2.429,2.231,5.278,3.134,8.541,2.667c2.114-0.303,3.919-1.261,5.46-2.727c0.32-0.305,0.349-0.651,0.106-0.915
		c-0.259-0.282-0.599-0.263-0.94,0.045c-0.363,0.327-0.733,0.644-1.129,0.933c-0.956,0.696-2.048,1.08-3.164,1.416
		c-0.287,0.04-0.574,0.08-0.861,0.12c-0.146,0.021-0.291,0.042-0.437,0.063c-0.403-0.001-0.805-0.002-1.208-0.003
		c-1.158-0.155-2.288-0.402-3.344-0.936c-0.843-0.426-1.594-0.971-2.267-1.627C16.987,22.595,16.75,22.537,16.489,22.637z"/>
	<path d="M18.532,20.915c-0.253,0.242-0.264,0.602,0.027,0.88c1.26,1.204,2.738,1.919,4.508,1.95
		c0.258,0.04,0.516,0.038,0.774-0.003c0.059,0,0.118,0,0.177,0l0.041,0.007l0.041-0.01c0.057,0.001,0.116,0.009,0.172,0.002
		c1.531-0.21,2.854-0.848,3.96-1.929c0.309-0.302,0.33-0.622,0.062-0.895c-0.246-0.251-0.64-0.25-0.92,0.033
		c-0.801,0.811-1.767,1.301-2.877,1.534c-0.787,0.165-1.609,0.193-2.354,0.006c-1.02-0.256-1.967-0.766-2.732-1.544
		C19.126,20.656,18.795,20.664,18.532,20.915z"/>
	<path d="M23.805,21.093c0.574-0.01,1.401-0.322,2.108-0.945c0.368-0.325,0.433-0.668,0.18-0.966
		c-0.246-0.29-0.618-0.274-0.985,0.041c-1.008,0.867-2.401,0.86-3.413-0.016c-0.333-0.289-0.715-0.305-0.956-0.04
		c-0.197,0.216-0.121,0.724,0.146,0.959C21.615,20.767,22.462,21.102,23.805,21.093z"/>
</g>
</svg>
