<svg id="Layer_1" data-name="Layer 1" xmlns="http://www.w3.org/2000/svg" viewBox="0 0 50.46 50.46"><defs><style>.cls-1{fill:#12b5e1;}</style></defs><title>reactor RA6</title><path class="cls-1" d="M36.92,10.81V5.33H12.73v5.48H7.66V40.07h5.07v5.06H36.92V40.07H42V10.81Zm-4,19.34V26.09H37v4.06Zm4.07,1v4.07H32.92V31.15Zm-4.07-6.06V21H37v4.07Zm0-5.07V16H37V20ZM16.73,21v4.07H12.66V21Zm-4.07-1V16h4.07V20Zm4.07,6.07v4.06H12.66V26.09Zm0,5.06v4.07H12.66V31.15ZM19.42,16h2.37V20H17.73V16Zm-1.69-1V10.48h4.06V15H17.73ZM21.79,21v4.07H17.73V21Zm0,10.13v4.07H17.73V31.15Zm0,5.07v4.06H17.73V36.22ZM26.86,21v4.07H22.79V21ZM22.79,15V10.48h4.07V15Zm4.07,11.13v4.06H22.79V26.09Zm0,10.13v4.06H22.79V36.22ZM29.79,16h2.13V20H27.86V16Zm-1.93-1V10.48h4.06V15H27.86ZM31.92,21v4.07H27.86V21Zm0,10.13v4.07H27.86V31.15Zm0,5.07v4.06H27.86V36.22Z"/></svg>