<?xml version="1.0" encoding="utf-8"?>
<!-- Generator: Adobe Illustrator 24.2.1, SVG Export Plug-In . SVG Version: 6.00 Build 0)  -->
<svg version="1.1" id="Layer_1" xmlns="http://www.w3.org/2000/svg" xmlns:xlink="http://www.w3.org/1999/xlink" x="0px" y="0px"
	 viewBox="0 0 50.5 50.5" style="enable-background:new 0 0 50.5 50.5;" xml:space="preserve">
<path d="M42.3,41.4c-0.6-3.1-3.8-10.7-9.7-14.4c-0.2-0.2-0.6-0.2-0.8,0c-2.1,1.2-4.6,1.8-7,1.9c-2.5,0-4.9-0.7-7-1.9
	c-0.3-0.1-0.6-0.1-0.8,0c-5.9,3.6-9.1,11.2-9.7,14.3c-0.1,0.3,0.1,0.7,0.4,0.8c5.2,3.1,11.1,4.9,17.2,5.2c6.1-0.1,12-1.8,17.2-5.1
	C42.2,42.1,42.4,41.8,42.3,41.4z M24.8,30.5c2.5,0,4.9-0.6,7.1-1.7c-0.5,1.1-1.6,3.3-3.5,5.4c-1.9,2.1-3.1,3.4-3.7,4
	c-0.6-0.6-1.8-1.9-3.7-4c-1.9-2.1-3-4.3-3.5-5.5C19.8,29.8,22.3,30.5,24.8,30.5z M24.8,45.8c-5.6-0.2-11-1.8-15.9-4.6
	c0.7-2.9,3.2-8.5,7.6-11.8c0.5,1.2,1.7,3.5,3.7,5.7c2.8,3.1,4.1,4.4,4.1,4.5c0.1,0.1,0.4,0.2,0.5,0.2c0.1,0,0.3-0.1,0.4-0.2
	c0.1-0.1,1.4-1.4,4.1-4.5c2-2.2,3.1-4.5,3.7-5.7c4.4,3.4,6.9,9,7.6,11.9C35.8,44.1,30.4,45.7,24.8,45.8z M12.6,21.6h1.9
	c2.2,3.4,6,5.5,10,5.5s7.8-2.1,10-5.5h1.9c1.5,0,2.8-1.3,2.8-2.8v-3.4c1.2-0.1,2.1-1.1,2.1-2.3c0-1.3-1-2.3-2.3-2.3
	c-0.4-1-1.4-1.8-2.6-1.8h-1.5c-2.2-3.7-6.1-5.9-10.3-5.9c-4.3,0-8.2,2.3-10.3,5.9h-1.6c-1.5,0-2.8,1.3-2.8,2.8v7
	C9.8,20.3,11,21.6,12.6,21.6z M39.2,12.5c0.2,0,0.5,0.3,0.5,0.6c0,0.3-0.2,0.6-0.5,0.7V12.5z M24.5,25.4c-3.2,0-6.1-1.4-8.1-3.9
	h16.1C30.6,24,27.6,25.4,24.5,25.4z M24.5,4.7c3.4,0,6.5,1.6,8.4,4.3H16.1C18,6.3,21.1,4.7,24.5,4.7z M11.4,11.8
	c0-0.7,0.5-1.2,1.2-1.2h2.1h19.7h2c0.7,0,1.2,0.5,1.2,1.2v7c0,0.7-0.5,1.2-1.2,1.2h-2.3H14.9h-2.3c-0.7,0-1.2-0.5-1.2-1.2V11.8z
	 M19.3,15.3c0-0.4,0.4-0.8,0.8-0.8h9c0.4,0,0.8,0.4,0.8,0.8c0,0.4-0.4,0.8-0.8,0.8h-9C19.7,16.1,19.3,15.7,19.3,15.3z"/>
</svg>
