<svg id="Layer_1" data-name="Layer 1" xmlns="http://www.w3.org/2000/svg" viewBox="0 0 50.46 50.46"><defs><style>.cls-1{fill:#65b4e1;}</style></defs><title>reciclaje basura</title><path class="cls-1" d="M20,25.8l2.72,1.5a.2.2,0,0,0,.27-.08L24.84,24c-.26-.43-.48-.79-.58-1-.35-.53-.72-1-1.38-1h0a1.75,1.75,0,0,0-.57.11,2.08,2.08,0,0,0-1,.92l-1.41,2.47a.2.2,0,0,0,.08.27Z"/><path class="cls-1" d="M26.68,26l0,0v.09a.37.37,0,0,1,0,0s0,0,0,0a.37.37,0,0,1,0,0v0l0,0v0l0,0v0l0,0,0,0,0,0,0,0h0l-.73.44,3.65.3,1.12-3.21-.66.4h0l-.06,0h0l-.06,0h-.08l-.13,0h0a.37.37,0,0,1-.11-.08h0l0-.06-1-1.68,0,0a1.15,1.15,0,0,0-1-.61c-.52,0-2,0-3.21,0a4.9,4.9,0,0,1,.45.61C25,23.18,26.61,25.92,26.68,26Z"/><path class="cls-1" d="M28.57,29.37l1.86,3.24,1.12,0a1.72,1.72,0,0,0,1.56-.69l0,0a1.75,1.75,0,0,0,.19-.55A2.08,2.08,0,0,0,33,30l-1.43-2.46a.2.2,0,0,0-.28-.07L28.64,29.1A.2.2,0,0,0,28.57,29.37Z"/><path class="cls-1" d="M27.74,33.18H27.6l0,0h0l0,0h0l0,0,0,0,0,0v-.09a.38.38,0,0,1,0,0v0h0l0-.85-2.08,3,2.22,2.57,0-.78h0a.37.37,0,0,1,0-.07h0l0-.06h0l0,0h0a.37.37,0,0,1,.09-.1h0l.12-.06h.08l2,0h0a1.15,1.15,0,0,0,1-.54c.27-.45,1-1.75,1.61-2.78a4.89,4.89,0,0,1-.75.09C31,33.16,27.88,33.18,27.74,33.18Z"/><path class="cls-1" d="M24,33l-3.73-.05c-.25.44-.46.81-.54,1a1.72,1.72,0,0,0-.2,1.7l0,0a1.75,1.75,0,0,0,.38.45,2.08,2.08,0,0,0,1.27.39l2.84,0a.2.2,0,0,0,.2-.2l0-3.11A.2.2,0,0,0,24,33Z"/><path class="cls-1" d="M18.83,34.47a4.9,4.9,0,0,1,.31-.69c.3-.59,1.9-3.32,2-3.44l0,0v0l0,0,0,0,0,0h0l0,0h.24l0,0h0l.74.42-1.53-3.33-3.35.6.68.38h0l.06,0h0l0,0h0l0,0h0a.37.37,0,0,1,0,.13h0a.37.37,0,0,1,0,.14h0l0,.07-1,1.72,0,0a1.15,1.15,0,0,0-.05,1.14C17.5,32.13,18.24,33.44,18.83,34.47Z"/><path class="cls-1" d="M42.56,10.17a2.68,2.68,0,0,0-2.68-2.68H32v-1a2.21,2.21,0,0,0-2.21-2.21H20.67a2.21,2.21,0,0,0-2.21,2.21v1H10.58A2.68,2.68,0,0,0,7.9,10.17v6.09h2.36L12.1,42a4,4,0,0,0,3.78,4.13H34.59a4,4,0,0,0,3.77-4.06L40.2,16.26h2.36ZM20.26,6.52a.42.42,0,0,1,.41-.41h9.12a.42.42,0,0,1,.41.41v1H20.26ZM36.56,42a2.18,2.18,0,0,1-2,2.33H15.87a2.2,2.2,0,0,1-2-2.39L12.06,16.26H38.4Zm4.2-27.56H9.7V10.17a.88.88,0,0,1,.88-.88h29.3a.88.88,0,0,1,.88.88Z"/></svg>