<svg id="Layer_1" data-name="Layer 1" xmlns="http://www.w3.org/2000/svg" viewBox="0 0 50.46 50.46"><defs><style>.cls-1{fill:#65b4e1;}</style></defs><title>reclamo demora</title><path class="cls-1" d="M25.23,15.93a10,10,0,1,0,10,10A10.06,10.06,0,0,0,25.23,15.93Zm0,18.43A8.38,8.38,0,1,1,33.61,26,8.39,8.39,0,0,1,25.23,34.37Z"/><polygon class="cls-1" points="24.14 18.77 23.76 25.2 19.47 25.63 19.49 27.55 26.2 27.87 26.75 27.91 26.07 18.73 24.14 18.77"/><path class="cls-1" d="M41,13.55v-.09L34.28,6.27l-.06-.07H13.52a4.2,4.2,0,0,0-4.2,4.2V40.06a4.2,4.2,0,0,0,4.2,4.2H36.94a4.2,4.2,0,0,0,4.19-4.2Zm-3.18-.46H35L35,10Zm1.41,27a2.34,2.34,0,0,1-2.34,2.34H13.52a2.34,2.34,0,0,1-2.34-2.34V10.4a2.34,2.34,0,0,1,2.34-2.34H32.91l0,6.07a1.06,1.06,0,0,0,1.08,1c.38,0,3,0,5.25,0Z"/></svg>