<svg id="Layer_1" data-name="Layer 1" xmlns="http://www.w3.org/2000/svg" viewBox="0 0 50.46 50.46"><defs><style>.cls-1{fill:#65b4e1;}</style></defs><title>reclamo consulta</title><path class="cls-1" d="M41,13.55v-.09L34.28,6.27l-.06-.07H13.52a4.2,4.2,0,0,0-4.2,4.2V40.06a4.2,4.2,0,0,0,4.2,4.2H36.94a4.2,4.2,0,0,0,4.19-4.2Zm-3.18-.46H35L35,10Zm1.41,27a2.34,2.34,0,0,1-2.34,2.34H13.52a2.34,2.34,0,0,1-2.34-2.34V10.4a2.34,2.34,0,0,1,2.34-2.34H32.91l0,6.07a1.06,1.06,0,0,0,1.08,1c.38,0,3,0,5.25,0Z"/><path class="cls-1" d="M25,31.57a1.94,1.94,0,0,0-1.39.52,1.86,1.86,0,0,0,0,2.62,2.18,2.18,0,0,0,2.81,0,1.86,1.86,0,0,0,0-2.62A1.94,1.94,0,0,0,25,31.57Z"/><path class="cls-1" d="M25.28,17.43a5.75,5.75,0,0,0-4,1.29,4.61,4.61,0,0,0-1.48,3.58h3.47a2.14,2.14,0,0,1,.56-1.5,1.89,1.89,0,0,1,1.42-.55q1.87,0,1.87,2a2.47,2.47,0,0,1-.36,1.28,7.64,7.64,0,0,1-1.44,1.57,5.47,5.47,0,0,0-1.49,2,7.2,7.2,0,0,0-.41,2.67h3.06l0-.73a3.29,3.29,0,0,1,1-2l1-.92a7.91,7.91,0,0,0,1.59-2,4.22,4.22,0,0,0,.45-1.92,4.36,4.36,0,0,0-1.4-3.47A5.77,5.77,0,0,0,25.28,17.43Z"/></svg>