<?xml version="1.0" encoding="utf-8"?>
<!-- Generator: Adobe Illustrator 24.0.3, SVG Export Plug-In . SVG Version: 6.00 Build 0)  -->
<svg version="1.1" id="Capa_1" xmlns="http://www.w3.org/2000/svg" xmlns:xlink="http://www.w3.org/1999/xlink" x="0px" y="0px"
	 viewBox="0 0 50.5 50.5" style="enable-background:new 0 0 50.5 50.5;" xml:space="preserve">
<g>
	<path d="M5.3,38.3c-0.9,0-1.6-0.7-1.6-1.6V12.1c0-0.9,0.7-1.6,1.6-1.6h37.9c0.9,0,1.6,0.7,1.6,1.6v16.7c0.6,0.2,1.1,0.4,1.6,0.7
		V12.1c0-1.8-1.4-3.2-3.2-3.2H5.3c-1.8,0-3.2,1.4-3.2,3.2v24.6c0,1.8,1.4,3.2,3.2,3.2h31.3c-0.3-0.5-0.6-1-0.8-1.6
		C35.8,38.3,5.3,38.3,5.3,38.3z"/>
	<path d="M6.8,29.2h10.8c0.2-3.1-2.3-5.8-5.4-6C9.1,23.4,6.6,26,6.8,29.2z"/>
	<circle cx="12.2" cy="19.1" r="3.2"/>
	<path d="M21.2,27.2c-0.5,0-0.8,0.4-0.8,0.8c0,0.5,0.4,0.8,0.8,0.8h14.1c0.5,0,0.8-0.4,0.8-0.8c0-0.5-0.4-0.8-0.8-0.8H21.2z"/>
	<path d="M38.1,23.4c0-0.5-0.4-0.8-0.8-0.8H21.2c-0.5,0-0.8,0.4-0.8,0.8c0,0.5,0.4,0.8,0.8,0.8h16.1C37.8,24.2,38.1,23.8,38.1,23.4z
		"/>
	<path d="M21.2,19.5h7.6c0.5,0,0.8-0.4,0.8-0.8c0-0.5-0.4-0.8-0.8-0.8h-7.6c-0.5,0-0.8,0.4-0.8,0.8C20.4,19.2,20.8,19.5,21.2,19.5z"
		/>
	<path d="M42.5,29.9c-3.2,0-5.9,2.6-5.9,5.9c0,3.2,2.6,5.9,5.9,5.9c3.2,0,5.9-2.6,5.9-5.9C48.4,32.5,45.8,29.9,42.5,29.9z
		 M46.1,36.5h-2.6v2.7h-1.8v-2.7h-2.6v-1.7h2.6v-2.7h1.8v2.7h2.6V36.5z"/>
</g>
</svg>
