<?xml version="1.0" encoding="utf-8"?>
<!-- Generator: Adobe Illustrator 24.2.1, SVG Export Plug-In . SVG Version: 6.00 Build 0)  -->
<svg version="1.1" id="Layer_1" xmlns="http://www.w3.org/2000/svg" xmlns:xlink="http://www.w3.org/1999/xlink" x="0px" y="0px"
	 viewBox="0 0 50.5 50.5" style="enable-background:new 0 0 50.5 50.5;" xml:space="preserve">
<path d="M46.8,31.2L36.9,24c-0.3-0.3-0.7-0.3-1,0L26,31.2l-0.1,0.1c-0.1,0.2-0.2,0.4-0.2,0.6c0,0.2,0.1,0.4,0.3,0.5
	c0.3,0.3,0.7,0.3,1,0.1l9.5-6.9l9.4,6.9c0.1,0.1,0.2,0.1,0.4,0.1h0.1c0.2,0,0.5-0.2,0.6-0.4V32C47,31.8,47,31.5,46.8,31.2z
	 M44.9,32.7L36.8,27c-0.3-0.1-0.6-0.1-0.9,0L28,32.8c-0.3,0.2-0.3,0.5-0.3,0.7V45c0,0.4,0.4,0.8,0.8,0.8h15.9c0.4,0,0.8-0.4,0.8-0.8
	V33.4C45.2,33.1,45.1,32.9,44.9,32.7z M37.7,44.1h-2.6v-5.6h2.6V44.1z M43.6,44.1h-4.3v-6.4c-0.1-0.4-0.4-0.8-0.8-0.8h-4.1
	c-0.4,0-0.8,0.4-0.8,0.8v6.4h-4.3V33.8l7.2-5.2l7.2,5.2L43.6,44.1z M24.7,31.1l-10-7.1c-0.3-0.3-0.7-0.3-1,0l-10,7.2l-0.1,0.1
	c-0.1,0.2-0.2,0.4-0.2,0.6c0,0.2,0.1,0.4,0.3,0.5c0.3,0.3,0.7,0.3,1,0.1l9.5-6.8l9.5,6.9c0.1,0.1,0.2,0.1,0.4,0.1
	c0.1,0,0.2,0,0.3-0.1c0.2-0.1,0.4-0.2,0.5-0.4V32C24.9,31.7,24.9,31.5,24.7,31.1z M22.5,32.7l-8-5.7c-0.3-0.1-0.6-0.1-0.9,0
	l-7.9,5.8c-0.3,0.2-0.3,0.5-0.3,0.7V45c0,0.4,0.4,0.8,0.8,0.8H22c0.4,0,0.8-0.4,0.8-0.8V33.4C22.8,33.1,22.7,32.9,22.5,32.7z
	 M15.4,44.1h-2.6v-5.6h2.6V44.1z M21.2,44.1h-4.3v-6.4c0-0.4-0.4-0.8-0.8-0.8H12c-0.4,0-0.8,0.4-0.8,0.8v6.4H6.9V33.8l7.2-5.2
	l7.2,5.2L21.2,44.1z M35.8,19.4c-0.1-0.1-0.2-0.1-0.3-0.2L26,12.3v-2.1h6.2c0.4,0,0.8-0.4,0.8-0.8V4.9c0-0.4-0.4-0.8-0.8-0.8h-7
	c-0.4,0-0.8,0.4-0.8,0.8v7.2l-9.7,7c-0.1,0.2-0.3,0.5-0.1,1.2c0.1,0.2,0.3,0.3,0.5,0.4c0.2,0,0.5,0,0.7-0.2l9.4-6.9l9.4,6.9
	c0.1,0.2,0.4,0.3,0.6,0.3s0.4-0.1,0.5-0.2c0.2-0.1,0.3-0.3,0.3-0.6C36,19.8,36,19.6,35.8,19.4z M26.2,5.7h5.4v2.8h-5.4V5.7z
	 M33.7,20.6l-8-5.8c-0.3-0.1-0.6-0.1-0.9,0l-7.9,5.8c-0.3,0.2-0.3,0.5-0.3,0.7v2.2l1.6,1.1v-3l7.1-5.1l7.2,5.2v2.9l1.5-1.2v-2.1
	C34,21,33.9,20.8,33.7,20.6z M27.3,24.8h-4.1c-0.4,0-0.8,0.4-0.8,0.8v2l1.6,1.1v-2.4h2.6v2.4l1.6-1.1v-2.1
	C28,25,27.7,24.8,27.3,24.8z"/>
</svg>
