<?xml version="1.0" encoding="utf-8"?>
<!-- Generator: Adobe Illustrator 24.2.1, SVG Export Plug-In . SVG Version: 6.00 Build 0)  -->
<svg version="1.1" id="Layer_1" xmlns="http://www.w3.org/2000/svg" xmlns:xlink="http://www.w3.org/1999/xlink" x="0px" y="0px"
	 viewBox="0 0 50.5 50.5" style="enable-background:new 0 0 50.5 50.5;" xml:space="preserve">
<g>
	<path d="M21.1,20c-2.4,0-4.4,2-4.4,4.4c0,2.4,2,4.4,4.4,4.4c2.4,0,4.4-2,4.4-4.4C25.4,21.9,23.5,20,21.1,20z M21.1,27.1
		c-1.5,0-2.8-1.2-2.8-2.8s1.2-2.8,2.8-2.8c1.5,0,2.8,1.2,2.8,2.8S22.6,27.1,21.1,27.1z"/>
	<path d="M27.9,34.6v3.7c0,0.4,0.4,0.8,0.8,0.8h3.2c0.4,0,0.8-0.4,0.8-0.8v-3.7c0-0.4-0.4-0.8-0.8-0.8h-3.2
		C28.3,33.8,27.9,34.2,27.9,34.6z M29.5,35.4h1.6v2.1h-1.6V35.4z"/>
	<path d="M42.7,40.7h-1.3v-18c0-0.5-0.4-0.8-0.8-0.8h-6V16c0,0,0-0.1,0-0.1c0-0.1,0-0.1,0-0.2c0,0,0-0.1-0.1-0.1c0,0,0-0.1-0.1-0.1
		c0,0-0.1-0.1-0.1-0.1c0,0,0,0,0,0L26.4,10V9.5c0-0.4-0.4-0.8-0.8-0.8S24.8,9,24.8,9.5v0.3l-1.3,0.9c-0.4,0.3-0.4,0.8-0.2,1.1
		c0.2,0.2,0.4,0.3,0.6,0.3c0.2,0,0.3,0,0.5-0.2l1-0.7l7.5,5.2v6.2c0,0.4,0.4,0.8,0.8,0.8h6v17.2h-1.9v1.6h4.8c0.4,0,0.8-0.4,0.8-0.8
		C43.5,41,43.1,40.7,42.7,40.7z"/>
	<path d="M47.7,37.5h-1.2V19.8c0-0.4-0.4-0.8-0.8-0.8h-6v-5.8c0,0,0,0,0-0.1c0-0.1,0-0.1,0-0.2c0,0,0-0.1-0.1-0.1c0,0,0-0.1-0.1-0.1
		c0,0-0.1-0.1-0.1-0.1c0,0,0,0,0-0.1l-7.7-5.3V6.7c0-0.5-0.4-0.8-0.8-0.8S30,6.2,30,6.7V7l-1.4,0.9c-0.4,0.2-0.5,0.7-0.2,1.1
		c0.2,0.4,0.7,0.5,1.1,0.2l1.2-0.8l7.4,5.1v6.2c0,0.4,0.4,0.8,0.8,0.8h6v16.9h-2.3v1.6h5.2c0.4,0,0.8-0.4,0.8-0.8
		S48.1,37.5,47.7,37.5z"/>
	<path d="M22.2,23.6h-0.5v-0.4c0-0.4-0.4-0.8-0.8-0.8s-0.8,0.4-0.8,0.8v1.2c0,0.4,0.4,0.8,0.8,0.8h1.3c0.4,0,0.8-0.4,0.8-0.8
		S22.7,23.6,22.2,23.6z"/>
	<path d="M13.2,33.8H10c-0.5,0-0.8,0.4-0.8,0.8v3.7c0,0.4,0.3,0.8,0.8,0.8h3.2c0.4,0,0.8-0.4,0.8-0.8v-3.7
		C14,34.2,13.7,33.8,13.2,33.8z M12.4,37.5h-1.6v-2.1h1.6V37.5z"/>
	<path d="M38.3,44h-1.6V26.3c0-0.4-0.4-0.8-0.8-0.8h-6v-5.8c0-0.3-0.1-0.5-0.3-0.7l-7.4-5.1c0-0.1,0-0.1,0-0.2V8.1
		c0-0.4-0.4-0.8-0.8-0.8h-5.2c-0.5,0-0.8,0.4-0.8,0.8v3.3c0,0.4,0.3,0.8,0.8,0.8h4.4v1.1c0,0-0.1,0-0.1,0L12.4,19
		c-0.2,0.2-0.3,0.4-0.3,0.7v5.8H6c-0.5,0-0.8,0.4-0.8,0.8V44h-2c-0.4,0-0.8,0.4-0.8,0.8c0,0.4,0.4,0.8,0.8,0.8h35.1
		c0.4,0,0.8-0.4,0.8-0.8C39.1,44.3,38.7,44,38.3,44z M17,10.6V8.9h3.6v1.7H17z M20.2,44h-3V33.6h3V44z M24.8,44h-3.1V33.6h3.1V44z
		 M35.1,44h-8.7V32.8c0-0.5-0.4-0.8-0.8-0.8h-9.3c-0.5,0-0.8,0.3-0.8,0.8V44H6.8V27.1h6c0.4,0,0.8-0.4,0.8-0.8V20L21,15l7.4,5.1v6.2
		c0,0.4,0.3,0.8,0.8,0.8h6V44z"/>
</g>
</svg>
