<?xml version="1.0" encoding="utf-8"?>
<!-- Generator: Adobe Illustrator 24.0.1, SVG Export Plug-In . SVG Version: 6.00 Build 0)  -->
<!DOCTYPE svg PUBLIC "-//W3C//DTD SVG 1.1//EN" "http://www.w3.org/Graphics/SVG/1.1/DTD/svg11.dtd" [
	<!ENTITY ns_extend "http://ns.adobe.com/Extensibility/1.0/">
	<!ENTITY ns_ai "http://ns.adobe.com/AdobeIllustrator/10.0/">
	<!ENTITY ns_graphs "http://ns.adobe.com/Graphs/1.0/">
	<!ENTITY ns_vars "http://ns.adobe.com/Variables/1.0/">
	<!ENTITY ns_imrep "http://ns.adobe.com/ImageReplacement/1.0/">
	<!ENTITY ns_sfw "http://ns.adobe.com/SaveForWeb/1.0/">
	<!ENTITY ns_custom "http://ns.adobe.com/GenericCustomNamespace/1.0/">
	<!ENTITY ns_adobe_xpath "http://ns.adobe.com/XPath/1.0/">
]>
<svg version="1.1" id="Layer_1" xmlns:x="&ns_extend;" xmlns:i="&ns_ai;" xmlns:graph="&ns_graphs;"
	 xmlns="http://www.w3.org/2000/svg" xmlns:xlink="http://www.w3.org/1999/xlink" x="0px" y="0px" viewBox="0 0 50.46 50.46"
	 enable-background="new 0 0 50.46 50.46" xml:space="preserve">
<metadata>
	<sfw  xmlns="&ns_sfw;">
		<slices></slices>
		<sliceSourceBounds  bottomLeftOrigin="true" height="17.526" width="45.233" x="660.384" y="269.737"></sliceSourceBounds>
	</sfw>
</metadata>
<g>
	<path d="M47.465,28.396c-0.007-1.552,0.019-1.763,0.006-3.296c-0.002-0.163,0.022-0.131-0.02-0.267l-1.537-4.377
		c-0.1-0.288-0.348-0.487-0.819-0.537c-1.78-0.195-2.328-0.223-4.126-0.267l-0.015-1.076l-1.693,0.019l-0.019,7.67H27.718
		l-0.024,2.696l-0.463,0.041l0.007,1.778h0.922c0.063-1.956,1.67-3.522,3.641-3.522c1.974,0,3.58,1.567,3.641,3.522h3.495
		c0.061-1.956,1.669-3.522,3.641-3.522c1.967,0,3.569,1.559,3.641,3.508h1.578l0.05-2.296L47.465,28.396z M44.35,24.149
		l-2.954-0.701c-0.176,0-0.322-0.146-0.322-0.327v-1.97c0-0.178,0.146-0.382,0.322-0.382c1.061,0,1.895-0.004,2.954,0.007V24.149z
		 M46.487,25.497c0,0.146-0.182,0.323-0.354,0.323l-0.75-0.018c-0.174,0-0.326-0.167-0.326-0.322c0-2.054,0.002-2.575,0.002-4.658
		c0.076,0,0.156,0,0.235,0c0.178,0,0.198,0.173,0.237,0.324l0.967,3.801L46.487,25.497z"/>
	<path d="M37.72,25.077l0.193-8.61L2.805,16.526L2.614,30.778h1.093c0.064-1.952,1.67-3.521,3.641-3.517l6.297,0.013
		c0.067,0,0.121,0.004,0.192,0.015c0.04,0.004,0.076,0.011,0.114,0.015c1.694,0.267,3,1.7,3.07,3.456l7.747,0.004l2.545-5.628
		L37.72,25.077z"/>
	<path d="M7.392,28.333c-1.564,0-2.829,1.267-2.829,2.83c0,1.563,1.265,2.83,2.829,2.83c1.563,0,2.828-1.267,2.828-2.83
		C10.22,29.6,8.955,28.333,7.392,28.333z M7.392,32.565c-0.775,0-1.403-0.628-1.403-1.402c0-0.774,0.628-1.404,1.403-1.404
		c0.776,0,1.402,0.63,1.402,1.404C8.794,31.937,8.168,32.565,7.392,32.565z"/>
	<path d="M13.394,28.333c-1.565,0-2.832,1.267-2.832,2.83c0,1.563,1.269,2.83,2.832,2.83c1.563,0,2.83-1.267,2.83-2.83
		C16.224,29.6,14.957,28.333,13.394,28.333z M13.394,32.565c-0.774,0-1.403-0.628-1.403-1.402c-0.003-0.774,0.627-1.404,1.403-1.404
		c0.776,0,1.404,0.63,1.404,1.404C14.798,31.937,14.17,32.565,13.394,32.565z"/>
	<path d="M31.903,28.333c-1.563,0-2.83,1.267-2.83,2.83c0,1.563,1.267,2.83,2.83,2.83c1.561,0,2.828-1.267,2.828-2.83
		C34.731,29.6,33.465,28.333,31.903,28.333z M31.903,32.565c-0.776,0-1.404-0.628-1.404-1.402c0-0.774,0.628-1.404,1.404-1.404
		c0.776,0,1.402,0.63,1.402,1.404C33.305,31.937,32.679,32.565,31.903,32.565z"/>
	<path d="M42.702,28.333c-1.567,0-2.833,1.267-2.83,2.83c0,1.563,1.267,2.83,2.83,2.83c1.561,0,2.828-1.267,2.828-2.83
		C45.53,29.6,44.263,28.333,42.702,28.333z M42.702,32.565c-0.778,0-1.404-0.628-1.404-1.402c-0.004-0.774,0.626-1.404,1.404-1.404
		c0.774,0,1.4,0.63,1.4,1.404C44.102,31.937,43.476,32.565,42.702,32.565z"/>
</g>
</svg>
