<svg id="Layer_1" data-name="Layer 1" xmlns="http://www.w3.org/2000/svg" viewBox="0 0 50.46 50.46"><defs><style>.cls-1{fill:#65b4e1;}</style></defs><title>represa hidroelectrica</title><path class="cls-1" d="M28.94,12.32a.78.78,0,0,0,.78-.78V8.38a.78.78,0,0,0-.78-.78H21.26a.78.78,0,0,0-.78.78v3.16a.78.78,0,0,0,.75.78c-.75,4.58-2.42,15.91-2.29,24.7a.78.78,0,0,0,1.56,0c-.15-9.64,2-22.68,2.43-25.4l4.24,0c.45,2.79,2.56,16.12,2.77,25.22a.77.77,0,0,0,.24.55.79.79,0,0,0,.56.22.78.78,0,0,0,.76-.8c-.2-8.3-1.9-19.81-2.64-24.48Zm-.78-3.16v1a.76.76,0,0,0-.32-.07l-5.56,0a.76.76,0,0,0-.24,0V9.16Z"/><path class="cls-1" d="M42.37,21.28V5.14a.78.78,0,0,0-.78-.78H8.83a.78.78,0,0,0-.78.78V21.28a78.94,78.94,0,0,0-2.8,14.33.78.78,0,1,0,1.55.14C7.74,25.17,12,13.91,12.94,11.61h3.93c0,.38-.11.87-.17,1.46-.15,1.34-.38,3.47-.58,6a136.41,136.41,0,0,0-.47,16.68.78.78,0,0,0,1.56-.07,156.31,156.31,0,0,1,1.15-23.32h.45a.78.78,0,0,0,.78-.78V8.38a.78.78,0,0,0-.78-.78H11.12a.78.78,0,0,0-.78.78v3.16a.78.78,0,0,0,.66.77c-.34.91-.84,2.27-1.39,3.93V5.92H40.82V16.24c-.55-1.66-1.05-3-1.39-3.93a.78.78,0,0,0,.66-.77V8.38a.78.78,0,0,0-.78-.78H31.63a.78.78,0,0,0-.78.78v3.16a.78.78,0,0,0,.78.78h.45a155.3,155.3,0,0,1,1.14,23.51.78.78,0,0,0,.74.82.78.78,0,0,0,.82-.74,135.18,135.18,0,0,0-.45-16.79c-.21-2.52-.43-4.67-.59-6-.07-.6-.13-1.1-.17-1.48h3.93c.93,2.35,5.3,13.82,6.17,24.5a.78.78,0,0,0,.78.72h.06A.78.78,0,0,0,45.2,36,78.11,78.11,0,0,0,42.37,21.28ZM18,10.1a.75.75,0,0,0-.27,0H12.42a.77.77,0,0,0-.52.2V9.16H18Zm20.51-.94v1.09A.77.77,0,0,0,38,10H32.67a.76.76,0,0,0-.27,0V9.16Z"/><path class="cls-1" d="M44.72,38.6a6.35,6.35,0,0,0-1.62-.48,3.91,3.91,0,0,0-2.57.9l-.12.08-.21.14a1.55,1.55,0,0,1-1,.42,1.91,1.91,0,0,1-1.29-.49,5.63,5.63,0,0,0-6.61,0,1.94,1.94,0,0,1-2.58,0,5.63,5.63,0,0,0-6.61,0,1.91,1.91,0,0,1-1.29.49h0a2.38,2.38,0,0,1-1.27-.52,5.7,5.7,0,0,0-3.34-1,5.29,5.29,0,0,0-3.31,1.07,1.94,1.94,0,0,1-2.58,0L10,39a3.48,3.48,0,0,0-2.53-.84,3.76,3.76,0,0,0-1.72.51A.75.75,0,1,0,6.42,40a2.37,2.37,0,0,1,1-.35,2,2,0,0,1,1.6.51l.37.28a3.41,3.41,0,0,0,4.26,0,3.83,3.83,0,0,1,2.47-.81,4.3,4.3,0,0,1,2.55.82,3.71,3.71,0,0,0,2.06.74h0a3.34,3.34,0,0,0,2.13-.75,4.14,4.14,0,0,1,4.93,0,3.41,3.41,0,0,0,4.26,0,4.14,4.14,0,0,1,4.93,0,3.34,3.34,0,0,0,2.13.75,3,3,0,0,0,1.89-.69l.19-.13.12-.08A2.54,2.54,0,0,1,43,39.61a5.52,5.52,0,0,1,1.05.33.75.75,0,0,0,.66-1.34Z"/><path class="cls-1" d="M44.72,43.53a6.35,6.35,0,0,0-1.62-.48,3.91,3.91,0,0,0-2.57.9l-.12.08-.21.14a1.55,1.55,0,0,1-1,.42,1.91,1.91,0,0,1-1.29-.49,5.63,5.63,0,0,0-6.61,0,1.94,1.94,0,0,1-2.58,0,5.63,5.63,0,0,0-6.61,0,1.91,1.91,0,0,1-1.29.49h0a2.38,2.38,0,0,1-1.27-.52,5.7,5.7,0,0,0-3.34-1,5.29,5.29,0,0,0-3.31,1.07,1.94,1.94,0,0,1-2.58,0L10,43.89a3.48,3.48,0,0,0-2.53-.84,3.76,3.76,0,0,0-1.72.51.75.75,0,1,0,.68,1.33,2.37,2.37,0,0,1,1-.35,2,2,0,0,1,1.6.51l.37.28a3.41,3.41,0,0,0,4.26,0,3.83,3.83,0,0,1,2.47-.81,4.3,4.3,0,0,1,2.55.82,3.71,3.71,0,0,0,2.06.74h0a3.34,3.34,0,0,0,2.13-.75,4.14,4.14,0,0,1,4.93,0,3.41,3.41,0,0,0,4.26,0,4.14,4.14,0,0,1,4.93,0,3.34,3.34,0,0,0,2.13.75,3,3,0,0,0,1.89-.69l.19-.13.12-.08A2.54,2.54,0,0,1,43,44.55a5.52,5.52,0,0,1,1.05.33.75.75,0,0,0,.66-1.34Z"/></svg>