<?xml version="1.0" encoding="utf-8"?>
<!-- Generator: Adobe Illustrator 24.2.1, SVG Export Plug-In . SVG Version: 6.00 Build 0)  -->
<svg version="1.1" id="Layer_1" xmlns="http://www.w3.org/2000/svg" xmlns:xlink="http://www.w3.org/1999/xlink" x="0px" y="0px"
	 viewBox="0 0 50.46 50.46" style="enable-background:new 0 0 50.46 50.46;" xml:space="preserve">
<path d="M40.92,10.587l-6.257-6.257c-0.179-0.178-0.42-0.278-0.672-0.278H13.372c-2.267,0-4.111,1.844-4.111,4.111v34.134
	c0,2.267,1.844,4.11,4.111,4.11h23.716c2.267,0,4.11-1.844,4.11-4.11V11.259C41.198,11.007,41.098,10.766,40.92,10.587z
	 M34.721,7.076l3.526,3.526h-3.526V7.076z M37.088,44.507H13.372c-1.219,0-2.21-0.991-2.21-2.21V8.163c0-1.219,0.992-2.21,2.21-2.21
	H32.82v5.6c0,0.525,0.426,0.95,0.95,0.95h5.527v29.794C39.298,43.516,38.307,44.507,37.088,44.507z M21.299,13.111l-2.909,4.402
	c-0.124,0.187-0.32,0.313-0.541,0.349c-0.042,0.007-0.084,0.01-0.126,0.01c-0.179,0-0.354-0.06-0.497-0.173l-1.886-1.494
	c-0.347-0.274-0.405-0.777-0.13-1.124c0.274-0.347,0.777-0.405,1.124-0.13l1.203,0.952l2.428-3.674
	c0.244-0.368,0.74-0.469,1.108-0.227C21.441,12.246,21.542,12.742,21.299,13.111z M21.299,20.398L18.39,24.8
	c-0.124,0.187-0.32,0.313-0.541,0.349c-0.042,0.007-0.084,0.01-0.126,0.01c-0.179,0-0.354-0.06-0.497-0.173l-1.886-1.494
	c-0.347-0.274-0.405-0.777-0.13-1.124c0.274-0.348,0.777-0.405,1.124-0.13l1.203,0.952l2.428-3.674
	c0.244-0.369,0.74-0.47,1.108-0.227S21.542,20.029,21.299,20.398z M21.299,27.686l-2.909,4.401c-0.124,0.187-0.32,0.313-0.541,0.349
	c-0.042,0.007-0.084,0.01-0.126,0.01c-0.179,0-0.354-0.06-0.497-0.173l-1.886-1.493c-0.346-0.274-0.405-0.777-0.131-1.123
	c0.274-0.348,0.777-0.404,1.124-0.131l1.203,0.952l2.428-3.675c0.244-0.367,0.74-0.469,1.108-0.226S21.542,27.316,21.299,27.686z
	 M21.299,34.973l-2.909,4.401c-0.124,0.187-0.32,0.313-0.541,0.349c-0.042,0.007-0.084,0.01-0.126,0.01
	c-0.179,0-0.354-0.06-0.497-0.173l-1.886-1.493c-0.346-0.274-0.405-0.777-0.131-1.123c0.274-0.347,0.777-0.404,1.124-0.131
	l1.203,0.952l2.428-3.675c0.244-0.367,0.74-0.469,1.108-0.226S21.542,34.603,21.299,34.973z M24.43,14.257
	c0-0.442,0.358-0.8,0.8-0.8h4.567c0.441,0,0.8,0.358,0.8,0.8s-0.358,0.8-0.8,0.8H25.23C24.788,15.057,24.43,14.699,24.43,14.257z
	 M33.436,22.158c0,0.442-0.358,0.8-0.8,0.8H25.23c-0.442,0-0.8-0.358-0.8-0.8s0.358-0.8,0.8-0.8h7.406
	C33.077,21.358,33.436,21.716,33.436,22.158z M24.43,30.059c0-0.441,0.358-0.8,0.8-0.8h4.567c0.441,0,0.8,0.358,0.8,0.8
	s-0.358,0.8-0.8,0.8H25.23C24.788,30.858,24.43,30.5,24.43,30.059z M32.436,37.959c0,0.441-0.358,0.8-0.8,0.8H25.23
	c-0.442,0-0.8-0.358-0.8-0.8s0.358-0.8,0.8-0.8h6.406C32.077,37.159,32.436,37.518,32.436,37.959z"/>
</svg>
