<svg id="Layer_1" data-name="Layer 1" xmlns="http://www.w3.org/2000/svg" viewBox="0 0 50.46 50.46"><defs><style>.cls-1{fill:#65b4e1;}</style></defs><title>residuos peligrosos transporte</title><path class="cls-1" d="M17.88,23.92a.65.65,0,0,0,.65-.65V18.34a.65.65,0,0,0-.65-.65h-3a1.23,1.23,0,0,0-.88.36L10.2,21.81a1.22,1.22,0,0,0-.36.88v.58a.65.65,0,0,0,.65.65Zm-3-4.94h2.4v3.64h-6Z"/><path class="cls-1" d="M28.08,34H22.74a.77.77,0,0,0,0,1.53h5.34a.77.77,0,0,0,0-1.53Z"/><path class="cls-1" d="M46.19,9.93A2.25,2.25,0,0,0,44,7.7H19.67a2.25,2.25,0,0,0-2.23,2.23v3.62H14.55a4.29,4.29,0,0,0-1.63.35,4.28,4.28,0,0,0-1.4.9L7,19.33a3.89,3.89,0,0,0-.64.85A5,5,0,0,0,6,21a4.44,4.44,0,0,0-.19,1c0,.37-.05.64-.06.82s0,.48,0,.92,0,.67,0,.78v6.68a2.26,2.26,0,0,0-.88,3.62,2.45,2.45,0,0,0,1.36.66,8.26,8.26,0,0,0,1.15.06c.5,0,.07,0,.22,0a.77.77,0,0,0,.73-.8.78.78,0,0,0-.8-.73,4.39,4.39,0,0,1-1.06,0,1,1,0,0,1-.52-.23A.71.71,0,0,1,6,32.84a.65.65,0,0,1,.49-.21.76.76,0,0,0,.76-.77V24.55c0-.12,0-.4,0-.81s0-.66,0-.82,0-.42.06-.76a3,3,0,0,1,.11-.67,3.44,3.44,0,0,1,.26-.57,2.36,2.36,0,0,1,.39-.52l4.52-4.52a2.75,2.75,0,0,1,.91-.57,2.77,2.77,0,0,1,1-.24H18.2a.76.76,0,0,0,.76-.77V9.93a.72.72,0,0,1,.7-.7H44a.72.72,0,0,1,.7.7v22a8.12,8.12,0,0,1-.12,1.88s.08.28-1.2.28a.77.77,0,0,0,0,1.53c1.53,0,2.1-.33,2.5-1a5.81,5.81,0,0,0,.34-2.69Z"/><path class="cls-1" d="M30.77,11.58a4,4,0,0,0-4.1,3.84,3.64,3.64,0,0,0,.66,2.09,1.27,1.27,0,0,0-.44,1A1.34,1.34,0,0,0,28,19.73v.46a1.46,1.46,0,0,0,1.46,1.46h2.7a1.46,1.46,0,0,0,1.46-1.46v-.46a1.34,1.34,0,0,0,1.07-1.27,1.29,1.29,0,0,0-.43-1,3.63,3.63,0,0,0,.66-2.09A4,4,0,0,0,30.77,11.58ZM29,16.8a1.1,1.1,0,1,1,1.14-1.1A1.12,1.12,0,0,1,29,16.8Zm1.89,1.62L29.72,19l1.14-1.9L32,18.93Zm1.74-1.62a1.1,1.1,0,1,1,1.13-1.1A1.12,1.12,0,0,1,32.59,16.8Z"/><path class="cls-1" d="M26.79,25.4a1,1,0,0,0-1.89.8,1,1,0,0,0,.68.57,1,1,0,0,0-.06.89,1,1,0,1,0,1.88-.8s0,0,0-.06l3.4-1.41,3.35,1.51s0,0,0,.06a1,1,0,1,0,1.82,0,1,1,0,0,0,.69-.55,1,1,0,0,0-1.86-.85s0,0,0,.07l-2.12-1,2.14-.89s0,0,0,.07A1,1,0,0,0,36.64,23a1,1,0,0,0-.68-.58,1,1,0,0,0,.06-.89,1,1,0,0,0-1.88.8s0,0,0,.06l-3.39,1.41L27.43,22.3s0,0,0-.05a1,1,0,1,0-1.86-.85,1,1,0,0,0,0,.88,1,1,0,0,0-.69.55,1,1,0,1,0,1.86.85s0,0,0-.07l2.12,1-2.14.89S26.8,25.43,26.79,25.4Z"/><path class="cls-1" d="M14.86,30.27a6.25,6.25,0,1,0,6.25,6.25A6.25,6.25,0,0,0,14.86,30.27Zm0,10.69a4.45,4.45,0,1,1,4.45-4.45A4.45,4.45,0,0,1,14.86,41Z"/><path class="cls-1" d="M36,30.27a6.25,6.25,0,1,0,6.25,6.25A6.25,6.25,0,0,0,36,30.27ZM36,41a4.45,4.45,0,1,1,4.45-4.45A4.45,4.45,0,0,1,36,41Z"/></svg>