<?xml version="1.0" encoding="utf-8"?>
<!-- Generator: Adobe Illustrator 22.1.0, SVG Export Plug-In . SVG Version: 6.00 Build 0)  -->
<svg version="1.1" id="Layer_1" xmlns="http://www.w3.org/2000/svg" xmlns:xlink="http://www.w3.org/1999/xlink" x="0px" y="0px"
	 viewBox="0 0 50.5 50.5" style="enable-background:new 0 0 50.5 50.5;" xml:space="preserve">
<style type="text/css">
	.st0{fill:#12B5E1;}
</style>
<g>
	<path class="st0" d="M39.3,8.3H17.5c-0.7-1-1.9-1.7-3.2-1.7c-2.2,0-4,1.8-4,4V40c0,2.2,1.8,4,3.9,4h22.3c0.5,0,0.9-0.4,0.9-0.9
		v-3.1h1.9c0.5,0,0.9-0.4,0.9-0.9V9.2C40.2,8.7,39.8,8.3,39.3,8.3z M14.3,8.4c1.2,0,2.1,1,2.1,2.2v26.1C15.8,36.2,15,36,14.3,36
		c-0.8,0-1.5,0.2-2.1,0.6V10.5C12.1,9.4,13.1,8.4,14.3,8.4z M35.6,42.1H14.3c-1.2,0-2.1-1-2.1-2.2s1-2.1,2.1-2.1
		c0.9,0,1.8,0.6,2,1.5c0.1,0.4,0.5,0.6,0.9,0.6c0,0,0.1,0,0.1,0h18.3V42.1z M38.4,38.1H18.2V10.5v-0.4h20.2V38.1z"/>
	<path class="st0" d="M21.2,29h14.7c0.5,0,0.9-0.4,0.9-0.9s-0.4-0.9-0.9-0.9H21.2c-0.5,0-0.9,0.4-0.9,0.9S20.7,29,21.2,29z"/>
	<path class="st0" d="M21.2,33.6h14.7c0.5,0,0.9-0.4,0.9-0.9s-0.4-0.9-0.9-0.9H21.2c-0.5,0-0.9,0.4-0.9,0.9S20.7,33.6,21.2,33.6z"/>
	<path class="st0" d="M21.2,15.3h14.7c0.5,0,0.9-0.4,0.9-0.9s-0.4-0.9-0.9-0.9H21.2c-0.5,0-0.9,0.4-0.9,0.9S20.7,15.3,21.2,15.3z"/>
	<path class="st0" d="M35.9,18.1H30c-0.5,0-0.9,0.4-0.9,0.9s0.4,0.9,0.9,0.9h5.9c0.5,0,0.9-0.4,0.9-0.9S36.4,18.1,35.9,18.1z"/>
	<path class="st0" d="M35.9,22.7H30c-0.5,0-0.9,0.4-0.9,0.9s0.4,0.9,0.9,0.9h5.9c0.5,0,0.9-0.4,0.9-0.9S36.4,22.7,35.9,22.7z"/>
	<path class="st0" d="M21.4,18.1c-0.5,0-0.9,0.4-0.9,0.9v4.6c0,0.5,0.4,0.9,0.9,0.9H26c0.5,0,0.9-0.4,0.9-0.9V19
		c0-0.5-0.4-0.9-0.9-0.9H21.4z M25.1,22.7h-2.8v-2.8h2.8V22.7z"/>
</g>
</svg>
