<svg id="a506e9bf-6364-44b3-91da-7878c5fb4110" data-name="Capa 1" xmlns="http://www.w3.org/2000/svg" viewBox="0 0 50.46 50.46"><defs><style>.a2fa223b-4942-4ef2-8146-2c5e6f4607a2{fill:#010101;}</style></defs><title>robotica</title><path class="a2fa223b-4942-4ef2-8146-2c5e6f4607a2" d="M10.15,20.38a6.66,6.66,0,1,1,6.66-6.66A6.67,6.67,0,0,1,10.15,20.38Zm0-11.61a5,5,0,1,0,4.95,5A5,5,0,0,0,10.15,8.77Z"/><path class="a2fa223b-4942-4ef2-8146-2c5e6f4607a2" d="M10.15,17a3.23,3.23,0,1,1,3.23-3.23A3.23,3.23,0,0,1,10.15,17Zm0-4.75a1.52,1.52,0,1,0,1.52,1.52A1.52,1.52,0,0,0,10.15,12.2Z"/><path class="a2fa223b-4942-4ef2-8146-2c5e6f4607a2" d="M34.63,47.3H8.82a2.52,2.52,0,0,1-2-.82,2.5,2.5,0,0,1-.66-1.68V39.93a2.48,2.48,0,0,1,2.42-2.41h5.84L6,23.22,5,21.48a1.34,1.34,0,0,1-.13-.3.89.89,0,0,1,.3-1,.92.92,0,0,1,1,0l.09.06.25.17a6.08,6.08,0,0,0,3,1.3,10,10,0,0,0,2.41.06,5.72,5.72,0,0,0,2.29-.8,8.25,8.25,0,0,0,1.62-1.3,1,1,0,0,1,1.67.2c.42.71.84,1.41,1.25,2.12L26.19,34.9l1.53,2.63h7.22A2.35,2.35,0,0,1,37,39a3.41,3.41,0,0,1,.2,1.09q0,1,0,2.07c0,.86,0,1.72,0,2.58a2.51,2.51,0,0,1-.74,1.84A2.57,2.57,0,0,1,34.63,47.3ZM31,45.69h3.67a.86.86,0,0,0,.71-.28,1,1,0,0,0,.28-.69c0-.88,0-1.75,0-2.62q0-1,0-2a1.77,1.77,0,0,0-.12-.59.8.8,0,0,0-.55-.35q-3.66,0-7.32,0h0a1.32,1.32,0,0,1-1.22-.69l-1.59-2.73L17.27,22.79l-.9-1.53a9.64,9.64,0,0,1-1.43,1.06,7.06,7.06,0,0,1-2.94,1,12.09,12.09,0,0,1-2.79-.06,7.13,7.13,0,0,1-1.56-.39l8.16,13.84.48.79a1.05,1.05,0,0,1,.08,1.1,1,1,0,0,1-1,.49H13.53c-1.65,0-3.31,0-5,0h0a.83.83,0,0,0-.54.24.94.94,0,0,0-.27.58v4.87a.91.91,0,0,0,.26.61.94.94,0,0,0,.81.28H31Zm-16-7.32h0Z"/><path class="a2fa223b-4942-4ef2-8146-2c5e6f4607a2" d="M36.35,24.38a2.42,2.42,0,0,1-1.88-.95l-1.7-2.13-.93-1.17c-.16-.2-.32-.41-.49-.6-.5,0-1,0-1.51,0H28.17A2.57,2.57,0,0,1,26,17.9h0c-.48,0-1,0-1.44,0l-5.06,0H18a.8.8,0,0,1-.7-1.09,7.66,7.66,0,0,0,0-6,.8.8,0,0,1,.08-.75.78.78,0,0,1,.66-.35h7.85a2.58,2.58,0,0,1,2.45-1.64c.65,0,1.31,0,2,0h1L34,4.76c.23-.29.47-.58.72-.85a2.1,2.1,0,0,1,1.78-.74,2.4,2.4,0,0,1,1.16.36c.82.51,1.64,1,2.47,1.49L42.56,6.5l3.15,1.88a3.77,3.77,0,0,1,1,.79,2.29,2.29,0,0,1,.49,2,2.47,2.47,0,0,1-1.34,1.73,2.42,2.42,0,0,1-2.51-.25c-.51-.33-1-.64-1.54-.94L37,8.76,36,10l-.83,1c-.41.51-.82,1-1.21,1.53,0,.82,0,1.61,0,2.4.81,1,1.66,2,2.5,3.11l.58.72,4.37-2.64,2.25-1.39a2.46,2.46,0,0,1,2.79.26A2.39,2.39,0,0,1,46,19l-1.33.78-1,.57c-1.22.72-2.44,1.44-3.65,2.17l-1,.6L37.68,24A2.59,2.59,0,0,1,36.35,24.38Zm-5.6-6.46h.74a1.32,1.32,0,0,1,1,.43c.23.25.44.51.65.78L34,20.31l1.68,2.11a.8.8,0,0,0,1.16.2l1.39-.84,1-.6L42.91,19l1-.57c.44-.26.88-.51,1.31-.78a.85.85,0,0,0,.51-.82.87.87,0,0,0-.36-.6.9.9,0,0,0-.87-.08l-2.27,1.4-4.58,2.76A1.12,1.12,0,0,1,36,20.07l-.77-1-2.55-3.19a1.51,1.51,0,0,1-.31-.9q0-1.22,0-2.43a1.71,1.71,0,0,1,.35-1c.4-.52.82-1,1.23-1.55l.83-1L36,7.47a1.13,1.13,0,0,1,1.49-.3l.18.11,5,3c.54.32,1.07.64,1.6,1a.84.84,0,0,0,1.4-.48.71.71,0,0,0-.12-.6,2.65,2.65,0,0,0-.6-.43L41.74,7.87,39.28,6.4c-.84-.5-1.68-1-2.51-1.51a.91.91,0,0,0-.43-.13.54.54,0,0,0-.49.24c-.23.24-.43.5-.64.76-.9,1.13-1.8,2.25-2.7,3.39a1.43,1.43,0,0,1-1.12.53h-1c-.69,0-1.37,0-2.05,0a1,1,0,0,0-.91.72,1,1,0,0,1-1.14.93H19.2a9.1,9.1,0,0,1,0,5h.26l5,0H26.3a1.07,1.07,0,0,1,1.09.85,1,1,0,0,0,.8.78h2.56Zm.73,1.61Z"/></svg>