<?xml version="1.0" encoding="utf-8"?>
<!-- Generator: Adobe Illustrator 24.0.2, SVG Export Plug-In . SVG Version: 6.00 Build 0)  -->
<svg version="1.1" id="Layer_1" xmlns="http://www.w3.org/2000/svg" xmlns:xlink="http://www.w3.org/1999/xlink" x="0px" y="0px"
	 viewBox="0 0 50.5 50.5" style="enable-background:new 0 0 50.5 50.5;" xml:space="preserve">
<style type="text/css">
	.st0{fill:#58595B;}
</style>
<path class="st0" d="M29.623,44.177c-0.05,0.678-0.105,1.394-0.165,2.143H9.995c-0.05-8.963,1.036-20.404,6.115-26.722h7.828
	c0.678,0.683,2.297,2.776,0.375,5.751c-1.427,2.198-0.727,3.829,0.485,5.156c0.408-0.622,0.887-1.195,1.438-1.702
	c-0.656-0.799-0.639-1.383-0.072-2.259c2.716-4.198,0.457-7.662-1.124-8.913l-0.297-0.237h-9.657l-0.331,0.386
	c-6.015,7.001-7.101,19.991-6.952,29.658l0.017,1.085h23.66l0.088-1.008c0.088-1.041,0.165-2.016,0.231-2.925
	C31.044,44.541,30.317,44.403,29.623,44.177z M25.112,15.707H15.018V12c-0.085-0.361-1.139-1.333-4.904-1.333H9.182L9.028,9.747
	C8.959,9.34,8.414,5.703,10.281,3.496c0.866-1.023,2.127-1.565,3.647-1.565h15.874v7.2l-1.225-0.137
	c-0.494-0.05-1.969-0.024-2.79,0.715c-0.455,0.41-0.676,1.008-0.676,1.829V15.707z M17.221,13.504h5.687v-1.966
	c0-1.827,0.771-2.899,1.417-3.477c1.017-0.909,2.326-1.192,3.273-1.265V4.135H13.928c-0.874,0-1.515,0.256-1.962,0.781
	c-0.767,0.903-0.891,2.48-0.848,3.569c2.557,0.118,4.348,0.702,5.332,1.742c0.71,0.75,0.772,1.499,0.772,1.748V13.504z
	 M32.519,19.052c-0.141,0-0.285-0.027-0.424-0.086c-4.015-1.678-5.289-6.26-5.341-6.454c-0.158-0.587,0.19-1.192,0.778-1.35
	c0.585-0.159,1.19,0.189,1.349,0.775c0.019,0.066,1.07,3.744,4.064,4.996c0.561,0.235,0.826,0.88,0.591,1.441
	C33.36,18.797,32.951,19.052,32.519,19.052z M32.034,8.584c-0.608,0-1.102-0.493-1.102-1.102V4.219c0-0.608,0.493-1.102,1.102-1.102
	c0.608,0,1.102,0.493,1.102,1.102v3.263C33.135,8.091,32.642,8.584,32.034,8.584z M37.016,5.862c0,0.578-0.469,1.047-1.047,1.047
	s-1.047-0.469-1.047-1.047s0.469-1.047,1.047-1.047S37.016,5.284,37.016,5.862z M39.891,4.529c0,0.578-0.469,1.047-1.047,1.047
	s-1.047-0.469-1.047-1.047s0.469-1.047,1.047-1.047S39.891,3.95,39.891,4.529z M39.891,7.222c0,0.578-0.469,1.047-1.047,1.047
	S37.797,7.8,37.797,7.222s0.469-1.047,1.047-1.047S39.891,6.643,39.891,7.222z M42.767,3.033c0,0.578-0.469,1.047-1.047,1.047
	s-1.047-0.469-1.047-1.047s0.469-1.047,1.047-1.047S42.767,2.455,42.767,3.033z M42.767,5.862c0,0.578-0.469,1.047-1.047,1.047
	s-1.047-0.469-1.047-1.047s0.469-1.047,1.047-1.047S42.767,5.284,42.767,5.862z M42.767,8.691c0,0.578-0.469,1.047-1.047,1.047
	s-1.047-0.469-1.047-1.047c0-0.578,0.469-1.047,1.047-1.047S42.767,8.113,42.767,8.691z M47.972,47.069l-0.744,0.925
	c-0.529,0.661-1.487,0.766-2.148,0.237l-7.001-5.608c1.118-0.898,2.016-2.049,2.611-3.349l7.046,5.646
	C48.396,45.45,48.501,46.414,47.972,47.069z M40.26,33.992c-0.733-3.829-4.093-6.495-7.855-6.495c-0.501,0-1.008,0.044-1.515,0.143
	c-1.504,0.286-2.831,0.981-3.884,1.95c-0.545,0.496-1.019,1.069-1.41,1.697c-1.019,1.653-1.449,3.674-1.058,5.723
	c0.556,2.876,2.589,5.101,5.162,6.026c0.689,0.253,1.421,0.408,2.176,0.457c0.171,0.011,0.347,0.017,0.523,0.017
	c0.496,0,1.003-0.05,1.509-0.149C38.244,42.53,41.097,38.327,40.26,33.992z M33.534,41.39c-0.38,0.072-0.76,0.105-1.135,0.105
	c-0.132,0-0.264-0.006-0.397-0.017c-0.766-0.05-1.504-0.248-2.176-0.567c-1.658-0.793-2.936-2.336-3.311-4.28
	c-0.275-1.432-0.011-2.848,0.645-4.032c0.358-0.644,0.832-1.223,1.405-1.697c0.755-0.634,1.675-1.085,2.705-1.284
	c0.38-0.077,0.76-0.11,1.135-0.11c2.815,0,5.332,2,5.883,4.864C38.91,37.616,36.778,40.767,33.534,41.39z M28.623,36.625
	c-0.047,0.009-0.094,0.014-0.144,0.014c-0.415-0.001-0.751-0.335-0.753-0.75c-0.004-1.33,0.781-4.043,3.786-4.793
	c0.416-0.099,0.813,0.145,0.915,0.549c0.101,0.404-0.145,0.813-0.549,0.915c-2.594,0.647-2.642,3.218-2.643,3.327
	C29.232,36.253,28.97,36.558,28.623,36.625z M30.74,48.353H7.745"/>
</svg>
