<?xml version="1.0" encoding="utf-8"?>
<!-- Generator: Adobe Illustrator 24.0.2, SVG Export Plug-In . SVG Version: 6.00 Build 0)  -->
<svg version="1.1" id="Layer_1" xmlns="http://www.w3.org/2000/svg" xmlns:xlink="http://www.w3.org/1999/xlink" x="0px" y="0px"
	 viewBox="0 0 50.5 50.5" style="enable-background:new 0 0 50.5 50.5;" xml:space="preserve">
<style type="text/css">
	.st0{fill:#58595B;}
</style>
<path class="st0" d="M31.458,48.569H7.774l-0.017-1.086c-0.148-9.675,0.94-22.68,6.961-29.689l0.33-0.384h9.665l0.3,0.238
	c1.578,1.248,3.841,4.718,1.12,8.922c-0.887,1.371-0.428,2.028,1.867,3.913c1.784,1.465,4.003,3.288,4.1,6.334
	c0.066,2.04-0.116,5.554-0.557,10.742L31.458,48.569z M9.952,46.363H29.43c0.367-4.495,0.524-7.681,0.466-9.476
	c-0.065-2.047-1.707-3.396-3.295-4.7c-1.958-1.608-4.394-3.609-2.319-6.816c1.927-2.978,0.304-5.073-0.376-5.756h-7.834
	C10.99,25.939,9.905,37.392,9.952,46.363z M25.083,15.72H14.98v-3.71c-0.086-0.362-1.14-1.335-4.909-1.335H9.138l-0.155-0.92
	C8.916,9.347,8.37,5.706,10.239,3.498c0.867-1.024,2.13-1.566,3.651-1.566h15.889v7.206L28.553,9
	c-0.496-0.051-1.972-0.024-2.792,0.715c-0.456,0.411-0.677,1.009-0.677,1.83L25.083,15.72L25.083,15.72z M17.186,13.515h5.692
	v-1.969c0-1.828,0.771-2.901,1.418-3.48c1.018-0.91,2.328-1.193,3.277-1.266V4.137H13.889c-0.877,0-1.52,0.257-1.967,0.785
	c-0.771,0.911-0.894,2.484-0.849,3.569c2.56,0.118,4.354,0.703,5.34,1.744c0.711,0.75,0.774,1.5,0.773,1.75V13.515z M32.498,19.068
	c-0.142,0-0.286-0.027-0.425-0.086c-4.019-1.68-5.294-6.266-5.346-6.46c-0.158-0.588,0.191-1.193,0.779-1.351
	c0.587-0.16,1.192,0.189,1.351,0.776c0.017,0.06,1.068,3.747,4.067,5.001c0.562,0.235,0.827,0.881,0.592,1.443
	C33.339,18.813,32.929,19.068,32.498,19.068z M32.012,8.59c-0.609,0-1.103-0.494-1.103-1.103V4.221c0-0.609,0.494-1.103,1.103-1.103
	s1.103,0.494,1.103,1.103v3.266C33.114,8.097,32.621,8.59,32.012,8.59z M35.95,4.818c0.579,0,1.048,0.469,1.048,1.048
	s-0.469,1.048-1.048,1.048s-1.048-0.469-1.048-1.048S35.371,4.818,35.95,4.818z M38.829,3.483c0.579,0,1.048,0.469,1.048,1.048
	s-0.469,1.048-1.048,1.048s-1.048-0.469-1.048-1.048S38.25,3.483,38.829,3.483z M38.829,6.179c0.579,0,1.048,0.469,1.048,1.048
	s-0.469,1.048-1.048,1.048s-1.048-0.469-1.048-1.048S38.25,6.179,38.829,6.179z M41.707,1.986c0.579,0,1.048,0.469,1.048,1.048
	s-0.469,1.048-1.048,1.048s-1.048-0.469-1.048-1.048S41.128,1.986,41.707,1.986z M41.707,4.818c0.579,0,1.048,0.469,1.048,1.048
	s-0.469,1.048-1.048,1.048s-1.048-0.469-1.048-1.048S41.128,4.818,41.707,4.818z M41.707,7.649c0.579,0,1.048,0.469,1.048,1.048
	s-0.469,1.048-1.048,1.048s-1.048-0.469-1.048-1.048S41.128,7.649,41.707,7.649z"/>
</svg>
