<?xml version="1.0" encoding="utf-8"?>
<!-- Generator: Adobe Illustrator 22.1.0, SVG Export Plug-In . SVG Version: 6.00 Build 0)  -->
<svg version="1.1" id="Layer_1" xmlns="http://www.w3.org/2000/svg" xmlns:xlink="http://www.w3.org/1999/xlink" x="0px" y="0px"
	 viewBox="0 0 50.5 50.5" style="enable-background:new 0 0 50.5 50.5;" xml:space="preserve">
<style type="text/css">
	.st0{fill:#12B5E1;}
</style>
<title>dni</title>
<g>
	<g>
		<g>
			<g>
				<g>
					<g>
						<g>
							<g>
								<path class="st0" d="M44.1,9.8H6.4c-1.7,0-3.1,1.4-3.1,3.1v24.8c0,1.7,1.4,3.1,3.1,3.1h37.8c1.7,0,3.1-1.4,3.1-3.1V12.9
									C47.2,11.2,45.8,9.8,44.1,9.8z M45.5,37.6c0,0.7-0.6,1.3-1.3,1.3H6.4C5.6,39,5,38.4,5,37.6V12.9c0-0.7,0.6-1.3,1.3-1.3h37.8
									c0.7,0,1.3,0.6,1.3,1.3V37.6z"/>
							</g>
						</g>
					</g>
				</g>
			</g>
		</g>
		<g>
			<path class="st0" d="M16.7,18.1c0-0.4,0.3-0.7,0.7-0.7h2.1c0.8,0,1.4,0.2,1.8,0.6c0.3,0.3,0.5,0.8,0.5,1.4v0
				c0,0.9-0.5,1.5-1.2,1.8l0.9,1.1c0.1,0.2,0.2,0.3,0.2,0.5c0,0.4-0.3,0.6-0.6,0.6c-0.3,0-0.5-0.1-0.7-0.3L19,21.5H18v1.3
				c0,0.4-0.3,0.7-0.7,0.7c-0.4,0-0.7-0.3-0.7-0.7V18.1z M19.3,20.3c0.6,0,1-0.3,1-0.8v0c0-0.6-0.4-0.9-1-0.9H18v1.7H19.3z"/>
			<path class="st0" d="M24,18.6h-1.3c-0.3,0-0.6-0.3-0.6-0.6c0-0.3,0.3-0.6,0.6-0.6h3.9c0.3,0,0.6,0.3,0.6,0.6
				c0,0.3-0.3,0.6-0.6,0.6h-1.3v4.2c0,0.4-0.3,0.7-0.7,0.7c-0.4,0-0.7-0.3-0.7-0.7V18.6z"/>
			<path class="st0" d="M27.5,20.4L27.5,20.4c0-1.7,1.3-3.1,3.2-3.1c1.9,0,3.2,1.4,3.2,3.1v0c0,1.7-1.3,3.1-3.2,3.1
				C28.8,23.5,27.5,22.1,27.5,20.4z M32.5,20.4L32.5,20.4c0-1-0.8-1.9-1.8-1.9c-1.1,0-1.8,0.8-1.8,1.9v0c0,1,0.8,1.9,1.8,1.9
				S32.5,21.5,32.5,20.4z"/>
		</g>
		<g>
			<path class="st0" d="M30,32.2l0.6,0c0,0,0-1.3,0-2.1c0,0,0,0,0,0c0-0.6-0.4-3.9-4.2-3.7c-2.8,0.2-3.4,2.4-4.7,2.9
				c-2.5,0.9-1.4,3.3-1.4,3.3h0.5c0.1,0.2,0.2,0.4,0.4,0.6c0.3,0.3,0.7,0.5,1.2,0.5c0.5,0,0.9-0.2,1.2-0.5c0.2-0.2,0.3-0.4,0.4-0.6
				h2.7c0.1,0.2,0.2,0.4,0.4,0.6c0.3,0.3,0.7,0.5,1.2,0.5c0.5,0,0.9-0.2,1.2-0.5C29.7,32.8,29.9,32.5,30,32.2z M22.9,32.5
				c-0.2,0.2-0.4,0.3-0.6,0.3c-0.2,0-0.4-0.1-0.6-0.3c-0.2-0.2-0.3-0.4-0.3-0.6c0-0.2,0.1-0.4,0.3-0.6c0.2-0.2,0.4-0.3,0.6-0.3
				c0.2,0,0.4,0.1,0.6,0.3c0.2,0.2,0.3,0.4,0.3,0.6C23.2,32.1,23.1,32.3,22.9,32.5z M26.3,29.3l-3.3,0c1-1.2,1.9-2.1,3.3-2.2V29.3z
				 M28.9,32.5c-0.2,0.2-0.4,0.3-0.6,0.3c-0.2,0-0.4-0.1-0.6-0.3c-0.2-0.2-0.3-0.4-0.3-0.6c0-0.2,0.1-0.4,0.3-0.6
				c0.2-0.2,0.4-0.3,0.6-0.3c0.2,0,0.4,0.1,0.6,0.3c0.2,0.2,0.3,0.4,0.3,0.6C29.1,32.1,29.1,32.3,28.9,32.5z M26.8,29.3v-2.2
				c2,0.1,2.4,1.5,2.7,2.2L26.8,29.3z"/>
		</g>
	</g>
</g>
</svg>
