<?xml version="1.0" encoding="utf-8"?>
<!-- Generator: Adobe Illustrator 22.1.0, SVG Export Plug-In . SVG Version: 6.00 Build 0)  -->
<svg version="1.1" id="Layer_1" xmlns="http://www.w3.org/2000/svg" xmlns:xlink="http://www.w3.org/1999/xlink" x="0px" y="0px"
	 viewBox="0 0 50.5 50.5" style="enable-background:new 0 0 50.5 50.5;" xml:space="preserve">
<style type="text/css">
	.st0{fill:#12B5E1;}
</style>
<path class="st0" d="M44.2,9.7l-38,0.1c-1.7,0-3,1.3-3,3v25c0,1.7,1.3,3,3,3l38-0.1c1.7,0,3-1.3,3-3v-25
	C47.2,11.1,45.9,9.7,44.2,9.7z M36.2,15.8c2.2,0,3.9,1.8,3.9,3.9s-1.8,3.9-3.9,3.9c-2.2,0-3.9-1.8-3.9-3.9S34.1,15.8,36.2,15.8z
	 M25.2,15.3c2.8,0,5,2.2,5,5s-2.2,5-5,5c-2.8,0-5-2.2-5-5S22.5,15.3,25.2,15.3z M14.2,15.8c2.2,0,3.9,1.8,3.9,3.9s-1.8,3.9-3.9,3.9
	s-3.9-1.8-3.9-3.9S12.1,15.8,14.2,15.8z M14.2,31.8c-1.7,0-4.6-0.7-6.5-1.9c0.2-1,1.3-3.9,3.6-5.3c0.6,0.3,1.6,0.8,2.9,0.8
	c1.2,0,2.2-0.4,2.9-0.8c0.8,0.5,1.4,1.1,1.9,1.8c-1.8,1.6-2.9,3.9-3.4,5.4C15.1,31.7,14.7,31.8,14.2,31.8z M25.2,35.2
	c-2.2,0-5.9-0.9-8.2-2.4c0.3-1.3,1.7-5,4.6-6.8c0.7,0.4,2.1,1,3.6,1c1.5,0,2.8-0.5,3.6-1c2.9,1.8,4.3,5.4,4.6,6.8
	C31.2,34.2,28,35.2,25.2,35.2z M36.2,31.8c-0.4,0-0.9,0-1.4-0.1c-0.5-1.5-1.6-3.8-3.4-5.4c0.5-0.7,1.1-1.3,1.9-1.8
	c0.6,0.4,1.6,0.8,2.9,0.8c1.2,0,2.3-0.5,2.9-0.8c2.3,1.4,3.4,4.3,3.6,5.3C40.9,31,38,31.8,36.2,31.8z"/>
<title>dni negativo</title>
</svg>
