<svg id="Layer_1" data-name="Layer 1" xmlns="http://www.w3.org/2000/svg" viewBox="0 0 50.46 50.46"><defs><style>.cls-1{fill:#12b5e1;}</style></defs><title>salero prohibido</title><path class="cls-1" d="M25.23,2.65A22.58,22.58,0,1,0,47.81,25.23,22.61,22.61,0,0,0,25.23,2.65ZM5,25.23A20.18,20.18,0,0,1,38.64,10.14L10.15,38.65A20.1,20.1,0,0,1,5,25.23ZM25.23,45.45a20.06,20.06,0,0,1-13.41-5.14l28.49-28.5A20.18,20.18,0,0,1,25.23,45.45Z"/><path class="cls-1" d="M31.49,13.81a5.08,5.08,0,0,0,.12-1c0-3.11-2.85-5.65-6.35-5.65S18.9,9.67,18.9,12.78A5.27,5.27,0,0,0,19,13.89a2.58,2.58,0,0,0-.33,3.92L15.39,31.27l2-2L20,18.58h.34l.2,0h7.49l1.49-1.49H20.37a1.14,1.14,0,0,1,.2-2.26h9.49a1.15,1.15,0,0,1,1.05.7l1.06-1.06A2.75,2.75,0,0,0,31.49,13.81Zm-1.4-.43H20.43a3.08,3.08,0,0,1-.06-.61c0-2.31,2.19-4.18,4.89-4.18s4.88,1.87,4.88,4.18A4,4,0,0,1,30.09,13.38Z"/><path class="cls-1" d="M32.84,21.4l-1.22,1.21L34.9,35.88a2,2,0,0,1-2,2.38H17.75a2,2,0,0,1-1.29-.48l-1,1a3.46,3.46,0,0,0,2.33.91H32.91a3.49,3.49,0,0,0,3.43-4.16Z"/><path class="cls-1" d="M22,20.92a.73.73,0,0,0-.81.61l-.66,4.56,1.68-1.67.39-2.69A.73.73,0,0,0,22,20.92Z"/><path class="cls-1" d="M30.4,33.2h.1a.71.71,0,0,0,.6-.81l-1.21-8L28.64,25.6l1.06,7A.7.7,0,0,0,30.4,33.2Z"/><path class="cls-1" d="M25.32,19.64h0a.7.7,0,0,0-.7.71v1.7L26,20.63v-.28A.71.71,0,0,0,25.32,19.64Z"/><path class="cls-1" d="M25.35,36.75h0a.71.71,0,0,0,.71-.71l0-7.84-1.42,1.42V36A.72.72,0,0,0,25.35,36.75Z"/><circle class="cls-1" cx="23.06" cy="10.33" r="0.55"/><path class="cls-1" d="M25.23,10.53a.55.55,0,0,0-.55.55.55.55,0,0,0,1.1,0A.55.55,0,0,0,25.23,10.53Z"/><circle class="cls-1" cx="27.4" cy="10.33" r="0.55"/></svg>