<?xml version="1.0" encoding="utf-8"?>
<!-- Generator: Adobe Illustrator 26.5.1, SVG Export Plug-In . SVG Version: 6.00 Build 0)  -->
<svg version="1.1" id="Layer_1" xmlns="http://www.w3.org/2000/svg" xmlns:xlink="http://www.w3.org/1999/xlink" x="0px" y="0px"
	 viewBox="0 0 50.5 50.5" style="enable-background:new 0 0 50.5 50.5;" xml:space="preserve">
<style type="text/css">
	.st0{fill-rule:evenodd;clip-rule:evenodd;}
</style>
<g id="Capa_x0020_1">
	<g id="_2119960835024">
		<path class="st0" d="M30.95,16.01c-2.37,0.76-1.673,2.006-2.617,4.149c-0.836,1.898-2.877,0.946-4.746,1.858
			c-3.589,1.751-1.822,7.621,2.508,6.531c2.127-0.535,2.128-1.568,2.778-3.859c0.771-2.718,1.875-1.626,4.286-2.313
			C37.278,21.203,35.081,14.684,30.95,16.01z"/>
		<path class="st0" d="M24.075,34.489c-1.375,0.5-2.565,1.299-2.1,3.42c0.351,1.597,1.579,2.174,3.424,2.394
			c2.737,0.326,2.386,0.095,3.067,2.445c0.422,1.455,1.937,2.064,3.918,1.325c1.108-0.413,2.618-1.646,1.809-3.315
			c-0.743-1.534-2.808-0.667-4.333-1.461c-1.57-0.818-0.925-2.324-1.84-3.64C27.307,34.628,25.672,33.908,24.075,34.489
			L24.075,34.489z"/>
		<path class="st0" d="M24.401,10.298c-4.61,1.372-2.298,6.971,2.002,5.608C30.095,14.736,28.536,9.067,24.401,10.298z"/>
		<path class="st0" d="M24.177,3.448c-3.989,1.279-0.341,3.67,2.563,2.741C29.743,5.229,27.603,2.35,24.177,3.448z"/>
		<path class="st0" d="M47.311,28.633c1.853-0.715,1.759-4.503,0-5.457C45.295,24.024,45.496,27.895,47.311,28.633z"/>
		<path class="st0" d="M43.547,38.002c-2.734-0.292-4.699,2.987-3.69,3.962C40.778,42.853,43.945,40.387,43.547,38.002z"/>
		<path class="st0" d="M43.609,12.669c0.294-1.966-1.976-4.718-3.914-3.936C39.403,10.859,41.377,12.834,43.609,12.669z"/>
		<path class="st0" d="M36.4,11.117c-1.978,0.812-1.707,3.051-0.331,4.391c1.665,1.622,3.687,0.707,4.683,2.528
			c0.326,0.596,0.609,1.839,0.279,2.712c-0.415,1.102-1.346,1.079-2.587,1.24c-2.536,0.329-2.441,1.589-3.173,3.908
			c-0.775,2.453-2.526,1.386-4.566,2.381c-1.408,0.687-2.62,2.68-1.673,4.627c1.227,2.523,3.112,0.912,5.032,2.179
			c1.759,1.161-0.054,4.141,2.892,4.344c1.83,0.126,3.537-1.662,3.676-3.226c0.287-3.232-2.899-1.992-4.264-2.844
			c-1.539-0.961-1.006-3.834,0.99-4.471c2.587-0.826,3.58-0.292,4.097-3.094c0.791-4.287,1.688-1.746,3.542-3.374
			c1.458-1.28,0.254-4.459-0.89-5.149c-1-0.603-1.285-0.181-2.28-1.175C40.532,14.799,39.698,9.763,36.4,11.117L36.4,11.117z"/>
		<path class="st0" d="M16.995,28.339c-3.698,1.504-1.379,7.521,2.698,6.212C23.531,33.318,21.307,26.585,16.995,28.339z"/>
		<path class="st0" d="M17.773,16.085c-4.436,1.462-2.867,7.544,1.512,6.288C22.841,21.354,22.12,14.652,17.773,16.085z"/>
		<path class="st0" d="M29.808,6.535c-3.416,1.519,0.059,5.381,3.3,4.308C36.437,9.741,33.032,5.101,29.808,6.535z"/>
		<path class="st0" d="M42.944,28.07c-2.776,1.62-2.041,6.764,0.979,5.401C46.397,32.353,46.17,26.187,42.944,28.07z"/>
		<path class="st0" d="M22.474,46.042c0.288,1.735,5.784,1.93,5.66-0.246C28.012,43.651,22.062,43.56,22.474,46.042z"/>
		<path class="st0" d="M38.361,7.406c0.125-1.952-2.436-3.131-4.669-2.916C33.761,6.614,35.872,7.924,38.361,7.406z"/>
		<path class="st0" d="M33.703,46.095c2.248,0.256,4.761-0.95,4.666-2.917C35.927,42.703,33.743,44.008,33.703,46.095z"/>
		<path class="st0" d="M45.053,37c1.402-0.393,2.765-2.962,2.256-4.741C45.638,32.561,44.091,35.357,45.053,37z"/>
		<path class="st0" d="M47.389,18.163c0.068-1.253-0.161-2.031-0.654-2.953c-0.528-0.987-0.724-1.73-1.942-1.667
			C44.507,15.795,45.565,17.841,47.389,18.163L47.389,18.163z"/>
	</g>
</g>
</svg>
