<?xml version="1.0" encoding="utf-8"?>
<!-- Generator: Adobe Illustrator 26.5.1, SVG Export Plug-In . SVG Version: 6.00 Build 0)  -->
<svg version="1.1" id="Layer_1" xmlns="http://www.w3.org/2000/svg" xmlns:xlink="http://www.w3.org/1999/xlink" x="0px" y="0px"
	 viewBox="0 0 50.5 50.5" style="enable-background:new 0 0 50.5 50.5;" xml:space="preserve">
<g id="Capa_x0020_1">
	<g id="_1925281916208">
		<path d="M10.331,40.878c-11.42-1.786-12.342-18.335-1.212-21.563c6.306-1.829,10.793,1.932,15.108,6.862l-2.845,2.92
			c-1.225-1.229-5.267-5.799-7.967-6.162c-9.503-1.277-11.101,12.51-2.418,14.039c3.133,0.552,5.566-1.153,6.928-2.508
			c1.238-1.232,4.514-4.644,7.704-7.828v0.021c0.578-0.58,1.16-1.164,1.748-1.752c2.713-2.716,5.968-6.96,12.791-5.892
			c11.42,1.786,12.343,18.335,1.212,21.563c-6.306,1.829-10.793-1.932-15.108-6.862l2.845-2.92c1.225,1.229,5.267,5.799,7.967,6.162
			c9.503,1.277,11.101-12.51,2.418-14.039c-3.133-0.552-5.566,1.153-6.928,2.508c-1.238,1.232-4.514,4.644-7.704,7.828v-0.021
			c-0.578,0.58-1.16,1.164-1.748,1.752C20.41,37.701,17.154,41.945,10.331,40.878L10.331,40.878z"/>
		<g>
			<path d="M13.335,9.453c2.228,0,4.035,1.806,4.035,4.035c0,2.228-1.806,4.035-4.035,4.035c-2.228,0-4.035-1.806-4.035-4.035
				C9.3,11.26,11.106,9.453,13.335,9.453L13.335,9.453z"/>
			<path d="M37.165,9.453c2.228,0,4.035,1.806,4.035,4.035c0,2.228-1.806,4.035-4.035,4.035c-2.228,0-4.035-1.806-4.035-4.035
				C33.131,11.26,34.937,9.453,37.165,9.453L37.165,9.453z"/>
		</g>
	</g>
</g>
</svg>
