<?xml version="1.0" encoding="utf-8"?>
<!-- Generator: Adobe Illustrator 24.2.1, SVG Export Plug-In . SVG Version: 6.00 Build 0)  -->
<svg version="1.1" id="Layer_1" xmlns="http://www.w3.org/2000/svg" xmlns:xlink="http://www.w3.org/1999/xlink" x="0px" y="0px"
	 viewBox="0 0 50.5 50.5" style="enable-background:new 0 0 50.5 50.5;" xml:space="preserve">
<path d="M46.768,25.25c0-11.865-9.652-21.518-21.518-21.518c-11.865,0-21.518,9.653-21.518,21.518
	c0,11.865,9.653,21.518,21.518,21.518c5.754,0,10.976-2.283,14.841-5.975c0.074-0.037,0.147-0.077,0.209-0.139
	c0.038-0.038,0.057-0.086,0.086-0.129C44.323,36.623,46.768,31.218,46.768,25.25z M45.168,25.25c0,5.294-2.09,10.099-5.47,13.67
	l-8.901-8.901l10.51-3.803c0.199-0.072,0.362-0.22,0.452-0.413c0.09-0.192,0.1-0.412,0.027-0.612l-1.418-3.917
	c-0.149-0.415-0.61-0.628-1.024-0.48l-13.049,4.723L11.58,10.802c3.571-3.38,8.376-5.47,13.67-5.47
	C36.232,5.332,45.168,14.267,45.168,25.25z M18.001,30.22l0.873,2.412l-5.464,1.977l-0.873-2.412L18.001,30.22z M20.379,32.087
	l-0.873-2.412l6.377-2.308l2.004,2.003L20.379,32.087z M27.544,26.766l7.378-2.67l0.873,2.413l-6.247,2.261L27.544,26.766z
	 M39.406,25.202l-0.873-2.413l0.604-0.218l0.873,2.413L39.406,25.202z M37.029,23.333l0.873,2.413l-0.603,0.218l-0.873-2.413
	L37.029,23.333z M5.332,25.25c0-5.114,1.954-9.769,5.133-13.3l14.168,14.168L11.24,30.965c-0.415,0.15-0.63,0.608-0.48,1.024
	l1.417,3.917c0.118,0.325,0.425,0.527,0.752,0.527c0.09,0,0.182-0.015,0.272-0.048l15.934-5.766l9.414,9.414
	c-3.531,3.18-8.186,5.134-13.3,5.134C14.267,45.168,5.332,36.232,5.332,25.25z"/>
<path d="M32.243,15.046h0.775h2.887h1.43c0.363,0,0.658,0.295,0.658,0.658s-0.295,0.658-0.658,0.658h-0.743c0,0-0.001,0-0.001,0
	l-0.185,0c-0.001,0-0.002,0-0.003,0c-0.603,0-1.169,0.234-1.595,0.66c-0.427,0.427-0.662,0.994-0.662,1.598
	c0,1.244,1.012,2.257,2.255,2.257l0.461,0h0.001c0.441,0,0.8-0.357,0.8-0.799c0.001-0.442-0.357-0.8-0.799-0.801l-0.462,0
	c-0.361,0-0.656-0.295-0.656-0.658c0-0.176,0.068-0.342,0.193-0.466c0.124-0.124,0.289-0.192,0.464-0.192c0.001,0,0.001,0,0.001,0
	l0.458,0h0.001c0.001,0,0.002,0,0.002,0h0.469c1.245,0,2.258-1.013,2.258-2.258s-1.013-2.258-2.258-2.258h-1.43h-2.887h-0.775
	c-0.363,0-0.658-0.295-0.658-0.658s0.295-0.658,0.658-0.658h2.842c0.441,0,0.8-0.358,0.8-0.8s-0.358-0.8-0.8-0.8h-2.842
	c-1.245,0-2.258,1.013-2.258,2.258S30.998,15.046,32.243,15.046z"/>
</svg>
