<?xml version="1.0" encoding="utf-8"?>
<!-- Generator: Adobe Illustrator 24.2.1, SVG Export Plug-In . SVG Version: 6.00 Build 0)  -->
<svg version="1.1" id="Capa_1" xmlns="http://www.w3.org/2000/svg" xmlns:xlink="http://www.w3.org/1999/xlink" x="0px" y="0px"
	 viewBox="0 0 50.5 50.5" style="enable-background:new 0 0 50.5 50.5;" xml:space="preserve">
<path d="M37.764,17.869c-0.377-0.614-0.782-1.232-1.197-1.848c-0.003-0.004-0.006-0.008-0.008-0.012
	c-4.027-5.957-11.31-14.762-11.31-14.762s-5.77,6.976-9.879,12.711l0,0c-0.248,0.347-0.495,0.695-0.731,1.033
	c-0.011,0.015-0.021,0.031-0.032,0.046c-0.233,0.333-0.458,0.661-0.674,0.98c0,0.001,0,0.001-0.001,0.001
	C6.1,27.526,5.009,38.463,15.681,46.468c0.008,0.005,0.015,0.011,0.023,0.016c0.502,0.326,1.016,0.64,1.553,0.91
	c0.203,0.106,0.413,0.204,0.62,0.307c0.049,0.021,0.099,0.042,0.148,0.063c0.48,0.22,0.976,0.406,1.475,0.584
	c0.011,0.004,0.024,0.007,0.035,0.011c0.306,0.094,0.615,0.199,0.928,0.279c0.01,0.003,0.02,0.005,0.03,0.007
	c1.208,0.328,2.452,0.508,3.703,0.583c0.011,0.001,0.023,0.001,0.034,0.001c0.664,0.034,1.375,0.035,2.039,0
	c0.011-0.001,0.023,0,0.034-0.001c1.251-0.074,2.493-0.255,3.701-0.581c0.005-0.001,0.011-0.002,0.016-0.004
	c0.038-0.01,0.078-0.018,0.115-0.029c1.389-0.393,2.726-0.959,3.967-1.693c0.02-0.012,0.04-0.026,0.061-0.038
	c0.225-0.135,0.443-0.275,0.661-0.418C44.642,39.067,44.732,29.108,37.764,17.869z M34.708,33.813
	c-1.355,2.619-8.864,9.486-9.457,9.752c-0.55-0.235-8.288-7.255-9.526-9.899c-1.568-3.313,1.157-7.472,4.824-7.36
	c1.929,0,3.714,1.07,4.63,2.752c0.031,0.057,0.11,0.057,0.141,0C28.72,23.206,37.425,27.609,34.708,33.813z"/>
</svg>
