<svg id="Layer_1" data-name="Layer 1" xmlns="http://www.w3.org/2000/svg" viewBox="0 0 50.46 50.46"><defs><style>.cls-1{fill:#65b4e1;}</style></defs><title>salud reproductiva y sexual</title><path class="cls-1" d="M30.8,23.64a.66.66,0,0,0-.22-.49L29.19,21.9a.66.66,0,0,0-.44-.17H5.21a.66.66,0,0,0-.44.17L3.38,23.15a.66.66,0,0,0,0,1l.86.82-.84.72a.66.66,0,0,0,0,1l.85.77-.85.77a.66.66,0,0,0,0,1l.85.77-.85.77a.66.66,0,0,0,0,1l.85.77-.85.77a.66.66,0,0,0,0,1l.87.79-.89.88a.66.66,0,0,0,0,.94l.91.9-.91.9a.66.66,0,0,0,0,.94l.91.9-.91.9a.66.66,0,0,0,0,.94l.91.9-.91.9a.66.66,0,0,0,0,.94l1.39,1.37a.66.66,0,0,0,.46.19H28.75a.66.66,0,0,0,.46-.19L30.6,45a.66.66,0,0,0,0-.94l-.91-.9.91-.9a.66.66,0,0,0,0-.94l-.91-.9.91-.9a.66.66,0,0,0,0-.94l-.91-.9.91-.9a.66.66,0,0,0,0-.94L29.71,35l.87-.79a.66.66,0,0,0,0-1l-.85-.77.85-.77a.66.66,0,0,0,0-1l-.85-.77.85-.77a.66.66,0,0,0,0-1l-.85-.77.85-.77a.66.66,0,0,0,0-1l-.85-.77.85-.77A.66.66,0,0,0,30.8,23.64ZM28.29,38.18l.91.9-.91.9a.66.66,0,0,0,0,.94l.91.9-.91.9a.66.66,0,0,0,0,.94l.91.9-.72.71h-23l-.72-.71.91-.9a.66.66,0,0,0,0-.94l-.91-.9.91-.9a.66.66,0,0,0,0-.94l-.91-.9.91-.9a.66.66,0,0,0,0-.94l-.91-.9.91-.9a.66.66,0,0,0,0-1l-.85-.77.85-.77a.66.66,0,0,0,0-1l-.85-.77.85-.77a.66.66,0,0,0,0-1l-.85-.77.85-.77a.66.66,0,0,0,0-1l-.84-.76.82-.7a.66.66,0,0,0,0-1l-.88-.84L5.47,23h23l.66.6-.85.77a.66.66,0,0,0,0,1l.85.77-.85.77a.66.66,0,0,0,0,1l.85.77-.85.77a.66.66,0,0,0,0,1l.85.77L28.3,32a.66.66,0,0,0,0,1l.85.77-.85.77a.66.66,0,0,0,0,1l.91.9-.91.9a.66.66,0,0,0,0,.94Z"/><circle class="cls-1" cx="29.61" cy="9.21" r="1.08"/><circle class="cls-1" cx="29.61" cy="12.47" r="1.08"/><circle class="cls-1" cx="29.61" cy="15.73" r="1.08"/><circle class="cls-1" cx="29.61" cy="19" r="1.08"/><circle class="cls-1" cx="33.85" cy="9.21" r="1.08"/><circle class="cls-1" cx="33.85" cy="12.47" r="1.08"/><circle class="cls-1" cx="33.85" cy="15.73" r="1.08"/><circle class="cls-1" cx="33.85" cy="19" r="1.08"/><circle class="cls-1" cx="33.85" cy="22.26" r="1.08"/><circle class="cls-1" cx="33.85" cy="25.52" r="1.08"/><circle class="cls-1" cx="33.85" cy="28.78" r="1.08"/><circle class="cls-1" cx="38.09" cy="9.21" r="1.08"/><circle class="cls-1" cx="38.09" cy="12.47" r="1.08"/><circle class="cls-1" cx="38.09" cy="15.73" r="1.08"/><circle class="cls-1" cx="38.09" cy="19" r="1.08"/><circle class="cls-1" cx="38.09" cy="22.26" r="1.08"/><circle class="cls-1" cx="38.09" cy="25.52" r="1.08"/><circle class="cls-1" cx="38.09" cy="28.78" r="1.08"/><circle class="cls-1" cx="42.33" cy="9.21" r="1.08"/><circle class="cls-1" cx="42.33" cy="12.47" r="1.08"/><circle class="cls-1" cx="42.33" cy="15.73" r="1.08"/><circle class="cls-1" cx="42.33" cy="19" r="1.08"/><circle class="cls-1" cx="42.33" cy="22.26" r="1.08"/><circle class="cls-1" cx="42.33" cy="25.52" r="1.08"/><circle class="cls-1" cx="42.33" cy="28.78" r="1.08"/><path class="cls-1" d="M43.45,3.88H28A3.85,3.85,0,0,0,24.2,7.73V20.61h1.5V7.73A2.35,2.35,0,0,1,28,5.38h15.4A2.35,2.35,0,0,1,45.8,7.73V30.26a2.35,2.35,0,0,1-2.35,2.35H31.86a2.13,2.13,0,0,1-.12.23,2.16,2.16,0,0,1,.41,1.26h11.3a3.85,3.85,0,0,0,3.85-3.85V7.73A3.85,3.85,0,0,0,43.45,3.88Z"/><path class="cls-1" d="M17,24.23a9.92,9.92,0,1,0,9.92,9.92A9.93,9.93,0,0,0,17,24.23Zm0,18.53a8.6,8.6,0,1,1,8.6-8.6A8.61,8.61,0,0,1,17,42.76Z"/><path class="cls-1" d="M10.57,36.19l0-.15a.5.5,0,0,0-1,.27l0,.14,0,.09a.45.45,0,0,0,.45.32l.16,0A.53.53,0,0,0,10.57,36.19Z"/><path class="cls-1" d="M17.83,40.72a6.7,6.7,0,0,1-6.67-3.24.5.5,0,0,0-.86.5,7.67,7.67,0,0,0,6.6,3.8A7.79,7.79,0,0,0,18,41.71a.5.5,0,0,0,.43-.56A.51.51,0,0,0,17.83,40.72Z"/></svg>