<?xml version="1.0" encoding="utf-8"?>
<!-- Generator: Adobe Illustrator 24.2.1, SVG Export Plug-In . SVG Version: 6.00 Build 0)  -->
<svg version="1.1" id="Layer_1" xmlns="http://www.w3.org/2000/svg" xmlns:xlink="http://www.w3.org/1999/xlink" x="0px" y="0px"
	 viewBox="0 0 50.5 50.5" style="enable-background:new 0 0 50.5 50.5;" xml:space="preserve">
<path d="M41.858,24.805c-0.072-0.2-0.22-0.363-0.413-0.453c-0.192-0.09-0.412-0.1-0.611-0.028L5.505,37.047
	c-0.416,0.15-0.631,0.608-0.482,1.024l1.773,4.924c0.072,0.199,0.22,0.362,0.412,0.452c0.108,0.051,0.224,0.076,0.341,0.076
	c0.092,0,0.183-0.016,0.271-0.047l35.33-12.723c0.416-0.15,0.631-0.608,0.481-1.024L41.858,24.805z M38.062,30.885l-1.231-3.42
	l1.144-0.412l1.231,3.42L38.062,30.885z M16.792,38.545l-1.231-3.419l19.764-7.118l1.231,3.42L16.792,38.545z M14.055,35.668
	l1.231,3.419L8.03,41.7L6.8,38.281L14.055,35.668z M40.711,29.931l-1.231-3.42l1.144-0.412l1.231,3.42L40.711,29.931z"/>
<path d="M42.893,6.977h-6.255c-0.442,0-0.8,0.358-0.8,0.8s0.358,0.8,0.8,0.8h6.255c0.569,0,1.032,0.463,1.032,1.032
	s-0.463,1.032-1.032,1.032h-6.659h-3.57c-1.451,0-2.631,1.18-2.631,2.631s1.18,2.631,2.631,2.631h0.974h3.626h1.797
	c0.569,0,1.032,0.463,1.032,1.032s-0.463,1.032-1.032,1.032h-0.934h-0.001h-0.232c-0.001,0-0.002,0-0.003,0
	c-0.702,0-1.363,0.273-1.859,0.77c-0.498,0.498-0.771,1.158-0.771,1.862c0,1.45,1.179,2.631,2.629,2.632h0.579l0,0
	c0.441,0,0.8-0.357,0.8-0.799c0-0.441-0.357-0.8-0.799-0.8h-0.579c-0.569-0.001-1.031-0.464-1.031-1.032
	c0-0.276,0.107-0.535,0.303-0.73c0.195-0.194,0.453-0.302,0.729-0.302h0.001h0.576l0,0c0.001,0,0.002,0,0.002,0h0.59
	c1.451,0,2.631-1.18,2.631-2.631s-1.18-2.632-2.631-2.632h-1.797h-3.626h-0.974c-0.569,0-1.032-0.463-1.032-1.032
	s0.463-1.032,1.032-1.032h3.57h6.659c1.451,0,2.631-1.181,2.631-2.632S44.344,6.977,42.893,6.977z"/>
</svg>
