<svg id="Layer_1" data-name="Layer 1" xmlns="http://www.w3.org/2000/svg" viewBox="0 0 50.46 50.46"><defs><style>.cls-1{fill:#12b5e1;}</style></defs><title>sanidad animal</title><path class="cls-1" d="M50.1,33.68l-.66-1.78a.68.68,0,0,0-.51-.43c0-2.07-.11-6.83-.54-10.3h0a10.37,10.37,0,0,0,1-4.38,10.49,10.49,0,0,0-21,0,7.92,7.92,0,0,0,.05.85c-5.51-.53-7.07-2.34-7.08-2.36a.8.8,0,0,0-.17-.15l.15-.94a4.43,4.43,0,0,0,3.24,0,8.25,8.25,0,0,0,2.78-2.72.65.65,0,0,0-.14-.86,6.27,6.27,0,0,0-3.63-1.43,3.86,3.86,0,0,0-2,.79,7.14,7.14,0,0,1-1.37.72l-.16.06A10.48,10.48,0,0,0,13.86,10a10.21,10.21,0,0,0-6,3,3.52,3.52,0,0,1-1.8-.24,3.91,3.91,0,0,0-2.16-.23c-2,.34-3.39,3-3.55,3.35a.67.67,0,0,0,.27.87,12.57,12.57,0,0,0,4.06,1.53,4.84,4.84,0,0,0,3-.93l4,7.1a2.9,2.9,0,0,0,0,1,3.52,3.52,0,0,0,1.24,2.46,2.41,2.41,0,0,0,1.85.31c.08,2.76.69,4.69,1.82,5.76L18,43a.67.67,0,0,0,.66.56h.93v0a.66.66,0,0,0,.66.62h2.49a.67.67,0,0,0,.65-.53l1.89-9.44a.71.71,0,0,0-.1-.5.64.64,0,0,0-.42-.28.65.65,0,0,0-.78.52l-1.79,8.91H20.9l-.7-10.47A.71.71,0,0,0,20,31.9a.65.65,0,0,0-.47-.15.68.68,0,0,0-.62.71L19,33.65c-.94-.07-2.8-.55-2.88-5.68l.76-.14,2-.37a2.37,2.37,0,0,0,1.66-1,3.49,3.49,0,0,0,.28-2.74A2.65,2.65,0,0,0,20,22.29l.91-5.62c1,.79,3.25,2,7.69,2.33a10.51,10.51,0,0,0,10.25,8.27,10.39,10.39,0,0,0,4.66-1.1c0,.64,0,1.32-.05,2.06-.28,4.8-.83,13-.94,14.61H40.69l-.58-7.22a.65.65,0,0,0-.56-.6,7.17,7.17,0,0,1-6-6.94.66.66,0,1,0-1.32.06,8.37,8.37,0,0,0,6,7.92,2.5,2.5,0,0,1-5-.19l1.06,0a.67.67,0,0,0,.66-.66.66.66,0,0,0-.65-.67l-8.07-.11a.66.66,0,0,0-.66.65.64.64,0,0,0,.19.47.61.61,0,0,0,.46.2l5.68.08h0A3.83,3.83,0,0,0,32.64,38l-.47.77a.7.7,0,0,0,.24,1,.69.69,0,0,0,1-.24l.28-.47.17.11-.23.94a.68.68,0,0,0,.11.53.71.71,0,0,0,.46.29.7.7,0,0,0,.82-.56l.18-.69.33,0,0,.77a.71.71,0,1,0,1.42,0l0-.9.28-.1L37.65,43a.66.66,0,0,0,.66.58h1.12a.65.65,0,0,0,.65.54h3.08a.66.66,0,0,0,.66-.61c0-.08.67-9.79,1-15.25.06-1.06.07-2,.05-2.91a10.62,10.62,0,0,0,2.4-2.33c.27,3.12.34,6.71.35,8.42a.7.7,0,0,0-.44.42l-.66,1.78a.7.7,0,0,0,.42.91.69.69,0,0,0,.82-.25l0,.69a.71.71,0,0,0,.71.68h0a.71.71,0,0,0,.68-.74l0-.38a.69.69,0,0,0,.51,0A.7.7,0,0,0,50.1,33.68Zm-31,1.3.48,7.21h-.29l-1.19-7.37A4.45,4.45,0,0,0,19.05,35ZM20,11.86Zm-.53,13.89a1.08,1.08,0,0,1-.78.4l-2.06.38-2.06.39a1.11,1.11,0,0,1-.87-.09A2.35,2.35,0,0,1,13,25.27c0-.28-.07-.78.18-1a.89.89,0,0,1,.56-.16,1.67,1.67,0,0,1,.43,0,4.8,4.8,0,0,0,2,0A4.77,4.77,0,0,0,18,23.43a1.07,1.07,0,0,1,.95-.25c.33.12.48.6.54.87A2.36,2.36,0,0,1,19.44,25.75ZM20.5,12.69a.66.66,0,0,0-.35.48l-1.4,8.65a2.71,2.71,0,0,0-1.49.53,3.76,3.76,0,0,1-1.4.48,3.54,3.54,0,0,1-1.39,0,2.45,2.45,0,0,0-2,.26l-4-7.1a.65.65,0,0,0-.46-.33H7.93a.66.66,0,0,0-.44.17A4.3,4.3,0,0,1,4.84,17a9.93,9.93,0,0,1-3-1.06C2.47,15,3.35,14,4.15,13.82A2.65,2.65,0,0,1,5.66,14a4.82,4.82,0,0,0,2.69.26A.67.67,0,0,0,8.78,14c.06-.09,1.56-2,5.32-2.72a9.07,9.07,0,0,1,5.63.72l.15.05H20a.51.51,0,0,0,.17,0h.12l.39-.14.15-.05A8.32,8.32,0,0,0,22.32,11a2.77,2.77,0,0,1,1.34-.58,4.6,4.6,0,0,1,2.21.78A6.25,6.25,0,0,1,24,13c-1.11.56-2.87-.26-2.89-.27A.68.68,0,0,0,20.5,12.69Zm18.39,29.6-.46-3.64A4.6,4.6,0,0,0,39,38l.34,4.27Zm5.85-18.63a8.66,8.66,0,0,1-1.26.89,8.92,8.92,0,0,1-4.61,1.28,9,9,0,0,1-8.73-6.74c-.06-.22-.11-.43-.15-.65a9,9,0,1,1,17.63.62,8.81,8.81,0,0,1-.28.87.08.08,0,0,1,0,.05,7.32,7.32,0,0,1-.35.81A8.93,8.93,0,0,1,44.74,23.66Z"/><path class="cls-1" d="M14.36,25a.47.47,0,0,0,.18.92.47.47,0,0,0-.18-.92Z"/><path class="cls-1" d="M18,24.29a.47.47,0,1,0,.55.38A.47.47,0,0,0,18,24.29Z"/><path class="cls-1" d="M11.1,16.18a.75.75,0,1,0,.75.75A.75.75,0,0,0,11.1,16.18Z"/><path class="cls-1" d="M18.12,14.91a.75.75,0,1,0,.75.75A.75.75,0,0,0,18.12,14.91Z"/><path class="cls-1" d="M44.38,14.57H41.74a.66.66,0,0,1-.65-.66V11.28a.65.65,0,0,0-.65-.65H37.31a.66.66,0,0,0-.66.65v2.63a.66.66,0,0,1-.65.66H33.37a.65.65,0,0,0-.65.65v3.13a.65.65,0,0,0,.65.65H36a.65.65,0,0,1,.65.65v2.64a.66.66,0,0,0,.66.65h3.13a.65.65,0,0,0,.65-.65V19.65a.65.65,0,0,1,.65-.65h2.64a.65.65,0,0,0,.65-.65V15.22A.65.65,0,0,0,44.38,14.57Z"/></svg>