<svg id="Layer_1" data-name="Layer 1" xmlns="http://www.w3.org/2000/svg" viewBox="0 0 50.46 50.46"><defs><style>.cls-1{fill:#12b5e1;}</style></defs><title>seguridad datos 2</title><path class="cls-1" d="M39.87,13.31C37.25,12.9,30.65,11.56,25.81,8a1,1,0,0,0-1.17,0c-4.83,3.53-11.43,4.87-14,5.28a1,1,0,0,0-.84,1,54.22,54.22,0,0,0,1.87,11.73,29.15,29.15,0,0,0,5.25,10.61,18.76,18.76,0,0,0,8,5.87.84.84,0,0,0,.35.07.87.87,0,0,0,.35-.07,18.61,18.61,0,0,0,8-5.89A29.22,29.22,0,0,0,38.86,26a54.37,54.37,0,0,0,1.85-11.68A1,1,0,0,0,39.87,13.31ZM36.94,25.48a27.22,27.22,0,0,1-4.88,9.93,16.82,16.82,0,0,1-6.83,5.15,16.9,16.9,0,0,1-6.82-5.13,27.11,27.11,0,0,1-4.88-9.89,52.25,52.25,0,0,1-1.74-10.42,36,36,0,0,0,13.44-5.07,36,36,0,0,0,13.44,5.07A52.26,52.26,0,0,1,36.94,25.48Z"/><path class="cls-1" d="M28.62,31.14a.8.8,0,0,0-.88.17l-2,2a.79.79,0,0,0,0,1.13.8.8,0,0,0,1.13,0l.66-.66v2.37a.8.8,0,0,0,1.6,0V31.87a.78.78,0,0,0-.49-.73"/><path class="cls-1" d="M18.24,29.29a.8.8,0,0,0,1.6,0V23a.8.8,0,0,0-1.36-.57l-2,2a.8.8,0,0,0,1.13,1.13l.66-.66Z"/><path class="cls-1" d="M23,16.82l.66-.67v4.33a.8.8,0,1,0,1.6,0V14.22a.8.8,0,0,0-1.37-.56l-2,2A.8.8,0,0,0,23,16.82"/><path class="cls-1" d="M32.09,22.3a.79.79,0,0,0-.87.17l-2,2a.79.79,0,0,0,0,1.13.8.8,0,0,0,1.13,0L31,25v4.32a.8.8,0,0,0,1.6,0V23a.78.78,0,0,0-.5-.74"/><path class="cls-1" d="M27.26,27.34V25a2.75,2.75,0,0,0-2.75-2.75h0A2.75,2.75,0,0,0,21.72,25v2.35a2.75,2.75,0,0,0,2.75,2.75h0a2.75,2.75,0,0,0,2.75-2.75m-1.6,0a1.15,1.15,0,0,1-1.15,1.15h0a1.15,1.15,0,0,1-1.15-1.15V25a1.15,1.15,0,0,1,1.15-1.15h0A1.15,1.15,0,0,1,25.66,25Z"/><path class="cls-1" d="M29.9,13.42h0a2.75,2.75,0,0,0-2.75,2.75v2.36a2.75,2.75,0,0,0,2.75,2.75h0a.8.8,0,0,0,0-1.6h0a1.15,1.15,0,0,1-1.15-1.15V16.17A1.15,1.15,0,0,1,29.86,15h0a1.16,1.16,0,0,1,1.15,1.15.8.8,0,0,0,1.6,0,2.76,2.76,0,0,0-2.75-2.75"/></svg>