<svg id="Layer_1" data-name="Layer 1" xmlns="http://www.w3.org/2000/svg" viewBox="0 0 50.46 50.46"><defs><style>.cls-1{fill:#12b5e1;}</style></defs><title>seguridad documento</title><path class="cls-1" d="M11.57,39.19A2.18,2.18,0,0,1,9.39,37V9.44a2.18,2.18,0,0,1,2.18-2.17h18l0,5.64a1,1,0,0,0,1,1c.35,0,2.75,0,4.88,0V24.17a5.47,5.47,0,0,1,.9-.08,6.49,6.49,0,0,1,.78.06l0-11.78v-.08L30.88,5.6l-.06-.06H11.57a3.91,3.91,0,0,0-3.9,3.9V37a3.91,3.91,0,0,0,3.9,3.9H28.25V39.19H11.57ZM34.21,12H31.57l0-2.89Z"/><path class="cls-1" d="M30.25,16.52H14.73a.86.86,0,1,0,0,1.72H30.25a.86.86,0,0,0,0-1.72Z"/><path class="cls-1" d="M30.25,20.17H14.73a.87.87,0,0,0,0,1.73H30.25a.87.87,0,0,0,0-1.73Z"/><path class="cls-1" d="M30.25,23.83H14.73a.86.86,0,0,0,0,1.72H30.25a.86.86,0,1,0,0-1.72Z"/><path class="cls-1" d="M40.62,32.58V30.09a4.2,4.2,0,1,0-8.39,0v2.49a2.83,2.83,0,0,0-2.18,2.75V43.7a1.22,1.22,0,0,0,1.22,1.22h10.3a1.22,1.22,0,0,0,1.22-1.22V35.33A2.83,2.83,0,0,0,40.62,32.58Zm-6.76-2.49a2.56,2.56,0,1,1,5.12,0V32.5H33.86Zm7.41,13.3H31.58V35.33A1.31,1.31,0,0,1,32.88,34H40a1.31,1.31,0,0,1,1.31,1.31Z"/><path class="cls-1" d="M37.71,37.33a1.29,1.29,0,1,0-2,1.09l-.49,2a.38.38,0,0,0,.06.31.37.37,0,0,0,.29.14h1.64a.37.37,0,0,0,.29-.14.38.38,0,0,0,.07-.31l-.5-2A1.29,1.29,0,0,0,37.71,37.33Z"/></svg>