<svg id="Layer_1" data-name="Layer 1" xmlns="http://www.w3.org/2000/svg" viewBox="0 0 50.46 50.46"><defs><style>.cls-1{fill:#12b5e1;}</style></defs><title>seguridad datos</title><path class="cls-1" d="M21,18.12v2.5a2.81,2.81,0,0,0-2.18,2.74v8.37A1.22,1.22,0,0,0,20.08,33h10.3a1.22,1.22,0,0,0,1.22-1.22V23.36a2.81,2.81,0,0,0-2.18-2.74v-2.5a4.19,4.19,0,1,0-8.38,0Zm7.73,3.94a1.31,1.31,0,0,1,1.31,1.3v8.07h-9.7V23.36a1.31,1.31,0,0,1,1.31-1.3Zm-6.1-3.94a2.56,2.56,0,1,1,5.12,0v2.41H22.67Z"/><path class="cls-1" d="M24.55,26.45l-.49,2.05a.35.35,0,0,0,.06.31.37.37,0,0,0,.29.14h1.64a.37.37,0,0,0,.29-.14.35.35,0,0,0,.06-.31l-.49-2.05a1.29,1.29,0,1,0-1.36,0Z"/><path class="cls-1" d="M39.87,13.31C37.25,12.9,30.65,11.56,25.81,8a1,1,0,0,0-1.17,0c-4.83,3.53-11.43,4.87-14,5.28a1,1,0,0,0-.84,1,54.22,54.22,0,0,0,1.87,11.73,29.15,29.15,0,0,0,5.25,10.61,18.76,18.76,0,0,0,8,5.87.84.84,0,0,0,.35.07.87.87,0,0,0,.35-.07,18.61,18.61,0,0,0,8-5.89A29.22,29.22,0,0,0,38.86,26a54.37,54.37,0,0,0,1.85-11.68A1,1,0,0,0,39.87,13.31ZM36.94,25.48a27.22,27.22,0,0,1-4.88,9.93,16.82,16.82,0,0,1-6.83,5.15,16.9,16.9,0,0,1-6.82-5.13,27.11,27.11,0,0,1-4.88-9.89,52.25,52.25,0,0,1-1.74-10.42,36,36,0,0,0,13.44-5.07,36,36,0,0,0,13.44,5.07A52.26,52.26,0,0,1,36.94,25.48Z"/></svg>