<svg id="Layer_1" data-name="Layer 1" xmlns="http://www.w3.org/2000/svg" viewBox="0 0 50.46 50.46"><defs><style>.cls-1{fill:#12b5e1;}</style></defs><title>seguridad red</title><path class="cls-1" d="M26.6,15a4.2,4.2,0,0,0-4.2,4.19v2.5a2.82,2.82,0,0,0-2.17,2.74v8.38A1.22,1.22,0,0,0,21.45,34h10.3A1.22,1.22,0,0,0,33,32.79V24.41a2.81,2.81,0,0,0-2.18-2.74v-2.5A4.2,4.2,0,0,0,26.6,15ZM24,19.17a2.56,2.56,0,1,1,5.12,0v2.41H24Zm7.4,5.24v8.07H21.75V24.41a1.31,1.31,0,0,1,1.31-1.3h7.08A1.3,1.3,0,0,1,31.44,24.41Z"/><path class="cls-1" d="M27.89,26.42a1.29,1.29,0,1,0-2.58,0,1.3,1.3,0,0,0,.61,1.09l-.5,2a.41.41,0,0,0,.07.32.37.37,0,0,0,.29.14h1.64a.34.34,0,0,0,.28-.14.37.37,0,0,0,.07-.32l-.49-2A1.3,1.3,0,0,0,27.89,26.42Z"/><path class="cls-1" d="M44.49,13.29a4.77,4.77,0,1,0-4.76-4.76,5.07,5.07,0,0,0,.17,1.29.86.86,0,0,0,1.05.59.85.85,0,0,0,.58-1.05,3.32,3.32,0,0,1-.11-.83A3.07,3.07,0,1,1,42.6,11l-.08,0-.18-.09a.61.61,0,0,0-.13,0,.55.55,0,0,0-.18,0,.4.4,0,0,0-.15,0,.49.49,0,0,0-.16,0,1.1,1.1,0,0,0-.14.09l-.09.06L37,15.44a14.27,14.27,0,0,0-24.24,6.42h0l-.07.31a.85.85,0,0,0,.65,1l.18,0a.85.85,0,0,0,.83-.67l.06-.26h0a12.59,12.59,0,1,1-.35,3.54.84.84,0,0,0-.51-.74h0a.65.65,0,0,0-.19,0,.7.7,0,0,0-.14,0L9.86,25h0l-.11,0-.16,0a.41.41,0,0,0-.15.07l-.13.08-.11.13a.83.83,0,0,0-.08.12,1.07,1.07,0,0,0-.07.19l0,.08a3,3,0,0,1-.91,1.78,3,3,0,0,1-2.18.86,3,3,0,0,1-2.16-.94,3,3,0,0,1-.86-2.18,3.08,3.08,0,0,1,5.78-1.4.85.85,0,0,0,1.49-.8,4.76,4.76,0,0,0-9,2.17A4.75,4.75,0,0,0,5.89,30H6a4.76,4.76,0,0,0,3.31-1.33,4.66,4.66,0,0,0,1.24-2l1.92,0a14.26,14.26,0,0,0,23.43,9.47l2.77,3.22a4.63,4.63,0,0,0-.74,2.26,4.77,4.77,0,0,0,4.45,5.06h.31a4.77,4.77,0,1,0-1-9.43A.85.85,0,0,0,42,38.93a3,3,0,0,1,.85-.06,3.07,3.07,0,1,1-2.5,1l0-.07a1,1,0,0,0,.1-.18.53.53,0,0,0,0-.12.63.63,0,0,0,0-.19.68.68,0,0,0,0-.14,1,1,0,0,0,0-.17,1,1,0,0,0-.08-.14.53.53,0,0,0-.06-.1L37.09,35a14.21,14.21,0,0,0,1-18.24l4.1-4A4.8,4.8,0,0,0,44.49,13.29Z"/><circle class="cls-1" cx="44.49" cy="8.53" r="1.64"/><path class="cls-1" d="M44.29,42a1.64,1.64,0,1,0-1.74,1.54A1.65,1.65,0,0,0,44.29,42Z"/><path class="cls-1" d="M4.83,24.08a1.64,1.64,0,1,0,2.32,0A1.63,1.63,0,0,0,4.83,24.08Z"/></svg>