<svg id="Layer_1" data-name="Layer 1" xmlns="http://www.w3.org/2000/svg" viewBox="0 0 50.46 50.46"><defs><style>.cls-1{fill:#65b4e1;}</style></defs><title>seguridad</title><path class="cls-1" d="M36.55,33.7a30.5,30.5,0,0,0-11.4-2.56h0A28.52,28.52,0,0,0,13.6,33.57a.9.9,0,0,0-.4,1.18A14.61,14.61,0,0,0,25.1,42.47h.25c3.69,0,9.17-2.89,11.59-7.56a.9.9,0,0,0-.39-1.21Zm-11.29,7H25.1c-3.15,0-7.74-2.38-9.84-5.89a28.58,28.58,0,0,1,9.88-1.84h0a29,29,0,0,1,9.71,2C32.61,38.39,28.29,40.67,25.26,40.67Z"/><path class="cls-1" d="M25,27.6h-.22A27.38,27.38,0,0,0,12.4,30.49c-.2.11-.39.23-.56.34.21.46.55,1.08.84,1.6,2.46-1.61,7.15-2.85,11.26-3l1,0a30.68,30.68,0,0,1,5.32.53,20.77,20.77,0,0,1,7,2.5c.29-.52.63-1.14.84-1.6-.17-.11-.36-.23-.56-.34A27.38,27.38,0,0,0,25,27.6Z"/><path class="cls-1" d="M42,20.09a5.61,5.61,0,0,1-1.35-2.66l-.16-.84c-.41-2.17-.68-3.61-3.33-3.91l-.49-.05c-2.12-.22-5-.53-7.48-2.9a5.29,5.29,0,0,0-7.85,0c-2.44,2.38-5.35,2.68-7.48,2.9l-.5.05c-2.65.3-2.92,1.74-3.33,3.91l-.16.84A5.6,5.6,0,0,1,8.48,20.1c-.45.55-1.07,1.3-.53,2.18s1.76,3.18,3.22,6.17a.9.9,0,0,0,1.28.37c3.13-1.92,7.57-3,12.52-3,5.16,0,9.74,1.13,12.9,3.19a.9.9,0,0,0,.49.15l.21,0a.9.9,0,0,0,.57-.42c.78-1.32,2-3.8,2.79-5.29.3-.59.53-1,.62-1.22C43,21.37,42.42,20.63,42,20.09Zm-1.67,2.55c-.61,1.2-1.55,3.06-2.29,4.39A26.78,26.78,0,0,0,25,24a27.19,27.19,0,0,0-12.6,2.75c-1.2-2.42-2.2-4.29-2.75-5.24l.26-.32a7.35,7.35,0,0,0,1.74-3.45l.17-.86c.4-2.13.44-2.31,1.76-2.46l.48-.05c2.25-.23,5.66-.59,8.55-3.4a3.45,3.45,0,0,1,5.34,0c2.89,2.81,6.29,3.16,8.55,3.4l.48.05c1.33.15,1.36.33,1.76,2.46l.17.86a7.34,7.34,0,0,0,1.72,3.45l.27.34Z"/><path class="cls-1" d="M25.24,15.37h0a2.36,2.36,0,0,1-2.87,1.41A4.36,4.36,0,0,0,24,21.17a2.92,2.92,0,0,1,1.2,1.28,2.92,2.92,0,0,1,1.2-1.28,4.36,4.36,0,0,0,1.67-4.39A2.36,2.36,0,0,1,25.24,15.37Z"/></svg>