<svg id="Layer_1" data-name="Layer 1" xmlns="http://www.w3.org/2000/svg" viewBox="0 0 50.46 50.46"><defs><style>.cls-1{fill:#65b4e1;}</style></defs><title>serpiente</title><path class="cls-1" d="M46.84,31.69a2,2,0,0,0-2.46.52l-.58.72a11,11,0,0,1-1.16,1.34l-.25.2a8,8,0,0,1-3.5,2,3.23,3.23,0,0,0-3-4.5h-.68c3.49-2.94,3.8-8,3.8-9.65a12.29,12.29,0,0,0-2.53-8.08A11.33,11.33,0,0,0,27,9.85h0a10.69,10.69,0,0,0-7,2.85A3.59,3.59,0,0,0,18.81,15,2.29,2.29,0,0,0,17.07,16a4.23,4.23,0,0,0-.22.38,1.42,1.42,0,0,1-.33.46.28.28,0,0,1-.23.06,1.17,1.17,0,0,1-.61-.55A4,4,0,0,1,15.5,16c-.21-.45-.5-1.08-1.23-1.14a1.91,1.91,0,0,0-1.34.5l-.53.42-1.16,0a.5.5,0,0,0,0,1h0l.89,0v.89a.5.5,0,0,0,.5.5h0a.5.5,0,0,0,.5-.5V16.47l.39-.3a1.05,1.05,0,0,1,.64-.29c.13,0,.23.18.41.57a5.05,5.05,0,0,0,.24.47,2.13,2.13,0,0,0,1.26,1l.26,0a1.29,1.29,0,0,0,.75-.25,2.19,2.19,0,0,0,.62-.79,3.27,3.27,0,0,1,.17-.29,1.26,1.26,0,0,1,.91-.66,3.57,3.57,0,0,0,1,2c1.77,1.76,5.44,4.13,10.49.77a4.53,4.53,0,0,1,1.21,3.63c-.58,4-3.21,4.82-8.77,4.79l-.11,0H14.92a3.24,3.24,0,0,0-3.23,3.23A3.19,3.19,0,0,0,12.14,32h-1a3.24,3.24,0,0,0-3.23,3.23,3.2,3.2,0,0,0,.47,1.65H7.07a3.23,3.23,0,0,0,0,6.46H40A3.23,3.23,0,0,0,43,41c1.78-1,3.19-3.21,4.08-4.95a9.83,9.83,0,0,0,.75-2.09A2,2,0,0,0,46.84,31.69ZM40,41.75H7.07a1.63,1.63,0,0,1,0-3.26h11.6a.8.8,0,1,0,0-1.6h-7l-.1,0h-.47a1.63,1.63,0,1,1,0-3.26H26.26a.8.8,0,1,0,0-1.6H14.92a1.63,1.63,0,1,1,0-3.26h6.32c.71,0,1.45,0,2.19,0,4.34,0,8.87-.68,9.68-6.17a6.36,6.36,0,0,0-2-5.39.79.79,0,0,0-.63-.24.8.8,0,0,0-.6.14c-3.31,2.42-6.31,2.32-8.91-.28a2,2,0,0,1-.59-1.48,2,2,0,0,1,.69-1.46,9.12,9.12,0,0,1,6-2.45h0a9.72,9.72,0,0,1,8.24,3.83,10.77,10.77,0,0,1,2.17,7.07c0,1.64-.33,7.18-4.57,9.31l-.14.07c-.53.27-.53.27-2.21.27h-.18a.8.8,0,0,0,0,1.6h5.58a1.63,1.63,0,0,1,.36,3.22l-1.24,0H23a.8.8,0,1,0,0,1.6H40a1.63,1.63,0,0,1,0,3.26Zm6.37-8.19a8.26,8.26,0,0,1-.62,1.75A12.67,12.67,0,0,1,43,39.08a3.23,3.23,0,0,0-1.64-1.86,17.09,17.09,0,0,0,2-1.51l.25-.2a11.23,11.23,0,0,0,1.4-1.58l.56-.7a.39.39,0,0,1,.5-.1A.36.36,0,0,1,46.33,33.56Z"/><circle class="cls-1" cx="25.23" cy="17.31" r="0.69"/><circle class="cls-1" cx="25.23" cy="13.39" r="0.69"/></svg>