<svg id="Layer_1" data-name="Layer 1" xmlns="http://www.w3.org/2000/svg" viewBox="0 0 50.46 50.46"><defs><style>.cls-1{fill:#65b4e1;}</style></defs><title>servicios</title><path class="cls-1" d="M43.57,14.1H34.5v1.55h8.3V38c0,1-.65,1.92-1.41,1.92H9.07C8.3,39.88,7.66,39,7.66,38V15.65h4.46V14.1H6.89a.77.77,0,0,0-.77.77V38a3.25,3.25,0,0,0,3,3.47H41.39a3.25,3.25,0,0,0,3-3.47V14.88A.77.77,0,0,0,43.57,14.1Z"/><rect class="cls-1" x="25.54" y="21.35" width="13.14" height="12.84" rx="2.01" ry="2.01"/><rect class="cls-1" x="24.57" y="12.19" width="7.55" height="7.37" rx="1.15" ry="1.15"/><rect class="cls-1" x="16.06" y="9.03" width="6.57" height="6.42" rx="1" ry="1"/><rect class="cls-1" x="14.42" y="17.96" width="3.29" height="3.21" rx="0.5" ry="0.5"/><rect class="cls-1" x="18.73" y="23.15" width="4.37" height="4.27" rx="0.67" ry="0.67"/><rect class="cls-1" x="14.5" y="28.86" width="2.87" height="2.8" rx="0.44" ry="0.44"/></svg>