<svg id="Layer_1" data-name="Layer 1" xmlns="http://www.w3.org/2000/svg" viewBox="0 0 50.46 50.46"><defs><style>.cls-1{fill:#12b5e1;}</style></defs><title>sin mosquito</title><path class="cls-1" d="M6.18,36.59a6.59,6.59,0,0,1-2.65.84.52.52,0,0,0,.05,1h0a7.56,7.56,0,0,0,3.07-1,.52.52,0,0,0-.51-.91Z"/><path class="cls-1" d="M7.73,36.65a.54.54,0,0,0,.34-.12A12.53,12.53,0,0,0,10,34.44a.52.52,0,0,0-.11-.73.51.51,0,0,0-.72.12,11.26,11.26,0,0,1-1.75,1.91.52.52,0,0,0-.06.73A.53.53,0,0,0,7.73,36.65Z"/><path class="cls-1" d="M3.41,34.32a8.36,8.36,0,0,0,2.33-.55A.53.53,0,0,0,6,33.09a.52.52,0,0,0-.67-.29,7.1,7.1,0,0,1-2,.49.52.52,0,0,0,0,1Z"/><path class="cls-1" d="M7.24,33a8.79,8.79,0,0,0,1.57-1.44A.52.52,0,1,0,8,30.83,7.84,7.84,0,0,1,6.64,32.1a.51.51,0,0,0-.12.72.52.52,0,0,0,.42.22A.55.55,0,0,0,7.24,33Z"/><path class="cls-1" d="M27.28,37.6a6.18,6.18,0,0,0,3.22.86.52.52,0,1,0,0-1,5.05,5.05,0,0,1-2.68-.72.52.52,0,1,0-.54.89Z"/><path class="cls-1" d="M25.51,36a.51.51,0,0,0,.4.2.52.52,0,0,0,.33-.12.52.52,0,0,0,.08-.73A9.48,9.48,0,0,1,25,33.16a.52.52,0,0,0-.68-.27.53.53,0,0,0-.27.69A10.55,10.55,0,0,0,25.51,36Z"/><path class="cls-1" d="M32.72,33.57a.52.52,0,1,0-.4,1,13,13,0,0,0,4.39.92h0a.52.52,0,0,0,0-1A11.71,11.71,0,0,1,32.72,33.57Z"/><path class="cls-1" d="M31.09,32.72a10.1,10.1,0,0,1-2.15-1.89.52.52,0,0,0-.78.68,11.33,11.33,0,0,0,2.36,2.08.6.6,0,0,0,.28.08.53.53,0,0,0,.44-.23A.52.52,0,0,0,31.09,32.72Z"/><path class="cls-1" d="M40.68,17.83a.51.51,0,0,0,.49-.37,8.15,8.15,0,0,0,.32-1.66.52.52,0,0,0-1-.1,7.72,7.72,0,0,1-.28,1.46.51.51,0,0,0,.35.64A.4.4,0,0,0,40.68,17.83Z"/><path class="cls-1" d="M40.5,19.31a.52.52,0,1,0-.87-.57,3.54,3.54,0,0,1-1.17,1.14.52.52,0,0,0,.26,1,.54.54,0,0,0,.27-.07A4.58,4.58,0,0,0,40.5,19.31Z"/><path class="cls-1" d="M43.94,21.47a.53.53,0,0,0,.27.08.5.5,0,0,0,.44-.25,12.48,12.48,0,0,0,1.24-3.59.52.52,0,0,0-1-.09,11.44,11.44,0,0,1-1.08,3.13A.52.52,0,0,0,43.94,21.47Z"/><path class="cls-1" d="M40.52,23.61h.06a6.48,6.48,0,0,0,2.63-.86.52.52,0,1,0-.55-.89,5.34,5.34,0,0,1-2.21.72.52.52,0,0,0,.07,1Z"/><path class="cls-1" d="M24.38,31.35c-.12-.39-.22-.78-.31-1.17l-.85.85c.06.2.1.41.16.61a.53.53,0,0,0,.5.37L24,32A.52.52,0,0,0,24.38,31.35Z"/><path class="cls-1" d="M37.82,20.75a.51.51,0,0,0-.61-.39A8.22,8.22,0,0,1,34,20.29l-.86.87a9.73,9.73,0,0,0,4.33.21A.51.51,0,0,0,37.82,20.75Z"/><path class="cls-1" d="M38.92,23.69a.52.52,0,0,0,0-1,23,23,0,0,1-6.15-1.17L32,22.3a24.28,24.28,0,0,0,6.95,1.39Z"/><path class="cls-1" d="M27.48,30.24a.6.6,0,0,0,.28-.08.53.53,0,0,0,.16-.72,13.77,13.77,0,0,1-1.05-2.06l-.8.8A15.17,15.17,0,0,0,27,30,.54.54,0,0,0,27.48,30.24Z"/><path class="cls-1" d="M47.35,20.7a18.28,18.28,0,0,1-2,2.37,19.27,19.27,0,0,1,.13,2.16A20.18,20.18,0,0,1,11.82,40.31l28.49-28.5a20.48,20.48,0,0,1,3.09,4.6c.4-.95.75-1.92,1.09-2.92A22.57,22.57,0,0,0,3.68,32a7,7,0,0,0,2.1-1.26A19.82,19.82,0,0,1,5,25.23,20.18,20.18,0,0,1,38.64,10.14L10.15,38.65c-.41-.47-.79-1-1.15-1.46a14.67,14.67,0,0,1-1.55,1.6l-.14.12a22.56,22.56,0,0,0,40-18.21Z"/><path class="cls-1" d="M31.92,23.41l-.86-.21-1.62,1.61.68.14-.26,1.12q-.63-.22-1.2-.48L27.2,27.05a20.7,20.7,0,0,0,3.56,1.31,11.66,11.66,0,0,0,2.93.39,7.25,7.25,0,0,0,5.16-1.86A25.07,25.07,0,0,0,31.92,23.41Zm-.06,3.2c-.2,0-.4-.06-.62-.12l-.39-.11.28-1.18.31.08a6,6,0,0,1,.69.21Zm1,.16.22-.92c.62.27,1.24.57,1.8.87a7.43,7.43,0,0,1-1.22.1C33.43,26.82,33.16,26.79,32.89,26.77Z"/><path class="cls-1" d="M23.46,17.36a.54.54,0,0,0-.42-.52c-.42-.08-.47-.08-2.61,5.17a2.12,2.12,0,0,0-.36.21c-1-1.71-2.62-4-4.05-3.68-2.38.57-3.54,3.35-4.75,6.29a31.16,31.16,0,0,1-2.2,4.58.53.53,0,0,0,.16.72.57.57,0,0,0,.28.08A.54.54,0,0,0,10,30a31.23,31.23,0,0,0,2.27-4.74c1.17-2.81,2.17-5.23,4-5.68.46-.1,1.29.75,2.13,2A3.07,3.07,0,0,0,16.47,21c-1.5.2-2.4,2.43-3.66,5.53a45.14,45.14,0,0,1-2.65,5.74.51.51,0,0,0,.18.71.48.48,0,0,0,.26.07.5.5,0,0,0,.45-.26,45.07,45.07,0,0,0,2.72-5.87c1-2.35,1.94-4.77,2.84-4.89a2.42,2.42,0,0,1,1.53.57,2.55,2.55,0,0,0-1.89,1.18,2.41,2.41,0,0,0-.14,2.64s-3.14,7.12-3,7.12L17,27.07A2.35,2.35,0,0,0,19.58,26a3,3,0,0,0,.33-.71,3.44,3.44,0,0,0,.91.57L33.6,13.07a10.47,10.47,0,0,0,.79-1.2,4,4,0,0,0-.47-4.35.58.58,0,0,0-1,.07C31.56,9.87,27.32,17.3,25.32,21a22.56,22.56,0,0,1-.1-2.71.52.52,0,0,0-.44-.51c-.21,0-.33,0-.58.52h0v.06c-.19.44-.46,1.22-.89,2.54,0-1.51.11-2.72.17-3.38C23.45,17.46,23.46,17.37,23.46,17.36Zm-1.23,4.29c-.19,0-.37,0-.55,0,.2-.47.39-.94.57-1.38C22.24,20.72,22.23,21.18,22.23,21.65Zm2.05-.52c0,.27.06.56.1.85L24,21.89C24.12,21.63,24.2,21.37,24.28,21.13Z"/></svg>