<?xml version="1.0" encoding="utf-8"?>
<!-- Generator: Adobe Illustrator 24.2.1, SVG Export Plug-In . SVG Version: 6.00 Build 0)  -->
<svg version="1.1" id="Layer_1" xmlns="http://www.w3.org/2000/svg" xmlns:xlink="http://www.w3.org/1999/xlink" x="0px" y="0px"
	 viewBox="0 0 50.5 50.5" style="enable-background:new 0 0 50.5 50.5;" xml:space="preserve">
<path d="M5.62,38.14c0.86-2.49,2.76-6.19,5.65-8.76C8.31,31.94,6.46,35.65,5.62,38.14z M22.8,29.4c0.6-0.2,1.2-0.3,1.7-0.6
	C23.9,29,23.4,29.2,22.8,29.4z M27.91,30.18c1.32,1.36,2.39,2.92,3.29,4.42C30.37,33.1,29.26,31.54,27.91,30.18z M32,36.2
	c0.6,1.2,0.9,2.3,1.2,3.1C33,38.5,32.6,37.4,32,36.2z M25.6,22.4c0.96-0.96,1.71-2.18,2.15-3.54C27.3,20.19,26.56,21.39,25.6,22.4z
	 M23.46,24.02c-0.55,0.31-1.15,0.57-1.77,0.77C22.3,24.61,22.89,24.35,23.46,24.02z M21.69,24.79c-0.84,0.26-1.74,0.41-2.69,0.41
	C19.93,25.2,20.83,25.07,21.69,24.79z M12.24,9.94c-1.19,1.31-1.99,2.96-2.24,4.78C10.27,12.91,11.07,11.26,12.24,9.94z M46.6,13.4
	c-0.2-0.1-0.4-0.2-0.6-0.2H30.5c0.1,0.5,0.2,1.1,0.3,1.6h14.4l-0.1,12.5H29c0.6,0.5,1.1,1,1.6,1.6h13.8l-3.8,5.7h-6.2
	c0.3,0.6,0.5,1.1,0.7,1.6H41c0.3,0,0.5-0.1,0.7-0.4l4.9-7.3v-0.1c0,0,0,0,0-0.1c0-0.1,0.1-0.2,0.1-0.3l0.1-14
	C46.8,13.8,46.7,13.6,46.6,13.4z M35.4,16.6c-0.5,0-0.8,0.4-0.8,0.8c0,0.5,0.4,0.8,0.8,0.8c0.4,0.1,0.8-0.3,0.8-0.8
	S35.8,16.6,35.4,16.6z M33.8,36.2c-0.2-0.5-0.5-1.1-0.8-1.6c-1-1.9-2.3-4-4.1-5.7c-0.6-0.6-1.2-1.1-1.9-1.6
	c-0.3-0.2-0.6-0.4-0.9-0.6c-0.2-0.1-0.5-0.1-0.7,0c0,0,0,0-0.1,0c-0.5,0.3-1,0.5-1.5,0.7c-1.5,0.6-3.1,0.9-4.7,0.9
	c-2.2,0-4.3-0.6-6.2-1.7c-0.3-0.1-0.6-0.1-0.8,0c-5.3,3.2-8.1,10-8.7,12.8c-0.1,0.3,0.1,0.7,0.4,0.8c4.6,2.8,9.9,4.4,15.3,4.6
	c5.4-0.1,10.7-1.6,15.3-4.5c0.3-0.2,0.4-0.5,0.4-0.8C34.7,38.7,34.3,37.5,33.8,36.2z M30.78,40.63c-3.58,1.75-7.5,2.67-11.48,2.67
	c-4.9-0.2-9.7-1.6-14-4.1c0.04-0.17,0.09-0.35,0.15-0.54c0.05-0.16,0.11-0.34,0.17-0.51c0,0-0.01,0,0-0.01
	c0.86-2.49,2.76-6.19,5.65-8.76c0.21-0.18,0.43-0.36,0.65-0.53c0.25-0.18,0.51-0.37,0.78-0.55c0.5,0.25,1.02,0.48,1.55,0.67
	c1.06,0.4,2.17,0.68,3.29,0.82c0.55,0.07,1.11,0.11,1.66,0.11c1.2,0,2.4-0.2,3.6-0.5c0.6-0.2,1.2-0.3,1.7-0.6
	c0.4-0.2,0.8-0.3,1.2-0.5c0.3,0.2,0.5,0.4,0.8,0.6c0.5,0.4,0.97,0.83,1.41,1.28c1.32,1.36,2.39,2.92,3.29,4.42
	c0.3,0.5,0.6,1.1,0.8,1.6c0.6,1.2,0.9,2.3,1.2,3.1C32.41,39.79,31.6,40.23,30.78,40.63z M29.6,14.8c-0.1-0.5-0.2-1.1-0.3-1.6
	C28,8.7,23.9,5.3,19,5.3c-6,0-10.8,4.9-10.8,10.8C8.2,22,13,26.8,19,26.8c1.8,0,3.5-0.4,4.9-1.2c0.6-0.3,1.1-0.6,1.6-1
	c2.5-2,4.2-5,4.2-8.5C29.7,15.7,29.7,15.2,29.6,14.8z M27.92,18.27c-0.05,0.2-0.11,0.4-0.17,0.59c-0.45,1.33-1.19,2.53-2.15,3.54
	c-0.5,0.5-1,0.9-1.6,1.3c-0.18,0.12-0.36,0.23-0.54,0.32c-0.55,0.31-1.15,0.57-1.77,0.77c-0.84,0.26-1.74,0.41-2.69,0.41
	c-0.63,0-1.25-0.07-1.85-0.19c-0.27-0.06-0.54-0.13-0.81-0.21c-0.29-0.09-0.59-0.2-0.87-0.32c-0.12-0.05-0.23-0.1-0.35-0.15
	c-0.04-0.02-0.08-0.04-0.12-0.06c-0.12-0.06-0.25-0.13-0.37-0.2c-0.9-0.5-1.72-1.15-2.39-1.91c-1.19-1.31-1.99-2.96-2.24-4.78
	c-0.04-0.3-0.07-0.6-0.09-0.91C9.9,16.35,9.9,16.22,9.9,16.1c0-0.16,0-0.31,0.01-0.47c0.02-0.31,0.05-0.61,0.09-0.91
	c0.27-1.81,1.07-3.46,2.24-4.78c0.68-0.76,1.49-1.41,2.39-1.91c0.12-0.07,0.25-0.14,0.37-0.2c0.04-0.02,0.08-0.04,0.12-0.06
	c0.12-0.05,0.23-0.1,0.35-0.15c0.28-0.12,0.57-0.23,0.87-0.32c0.27-0.08,0.54-0.15,0.81-0.21C17.74,6.97,18.36,6.9,19,6.9
	c0.5,0,0.99,0.04,1.47,0.12c0.2,0.03,0.39,0.07,0.58,0.12c2.66,0.61,4.88,2.4,6.13,4.78c0.08,0.17,0.17,0.34,0.25,0.52
	c0.1,0.21,0.19,0.44,0.27,0.66c0.2,0.5,0.3,1,0.4,1.6c0.1,0.4,0.1,0.9,0.1,1.3C28.2,16.79,28.1,17.55,27.92,18.27z"/>
</svg>
