<?xml version="1.0" encoding="utf-8"?>
<!-- Generator: Adobe Illustrator 22.1.0, SVG Export Plug-In . SVG Version: 6.00 Build 0)  -->
<svg version="1.1" id="Layer_1" xmlns="http://www.w3.org/2000/svg" xmlns:xlink="http://www.w3.org/1999/xlink" x="0px" y="0px"
	 viewBox="0 0 50.5 50.5" style="enable-background:new 0 0 50.5 50.5;" xml:space="preserve">
<style type="text/css">
	.st0{fill:#12B5E1;}
</style>
<path class="st0" d="M25.3,43.6c10.1,0,18.3-8.2,18.3-18.3S35.4,6.9,25.2,6.9c-10.1,0-18.3,8.2-18.3,18.3
	C7,35.4,15.2,43.6,25.3,43.6z M25.3,9.6c8.6,0,15.6,7,15.6,15.6c0,8.6-7,15.6-15.6,15.6c-8.6,0-15.6-7-15.6-15.6
	C9.6,16.6,16.6,9.6,25.3,9.6L25.3,9.6z"/>
<g>
	<g>
		<path class="st0" d="M34.8,16.9c-0.4-0.5-1.2-0.5-1.7-0.1c-3.4,2.3-12.3,2.3-15.7,0c-0.5-0.4-1.3-0.3-1.7,0.1
			c-0.6,0.6-0.5,1.6,0.2,2c1.5,1,3.7,1.7,6.1,2v5c0,1.5-0.2,3-0.7,4.4l-2.5,7.2c-0.2,0.6,0,1.3,0.6,1.7c0.2,0.1,0.4,0.2,0.6,0.2
			c0.5,0,1-0.3,1.2-0.9l2.7-7.9c0.2-0.6,0.7-1,1.3-1h0c0.6,0,1.1,0.4,1.3,1l2.7,7.9c0.2,0.5,0.7,0.9,1.2,0.9c0.2,0,0.4,0,0.6-0.2
			c0.6-0.3,0.8-1,0.6-1.7l-2.5-7.3c-0.5-1.4-0.7-2.9-0.7-4.4l0-4.9c2.4-0.3,4.6-1,6.1-2C35.3,18.4,35.4,17.5,34.8,16.9z"/>
		<circle class="st0" cx="25.2" cy="14.5" r="3.3"/>
	</g>
</g>
</svg>
