<?xml version="1.0" encoding="utf-8"?>
<!-- Generator: Adobe Illustrator 22.0.0, SVG Export Plug-In . SVG Version: 6.00 Build 0)  -->
<svg version="1.1" id="Layer_1" xmlns="http://www.w3.org/2000/svg" xmlns:xlink="http://www.w3.org/1999/xlink" x="0px" y="0px"
	 viewBox="0 0 50.5 50.5" style="enable-background:new 0 0 50.5 50.5;" xml:space="preserve">
<path d="M46.5,13.7c-0.5-1.5-1.2-2.5-2.2-2.9c-1.6-0.7-4.6-0.3-8.1,1.3c-3.2,1.4-6.4,3.5-9,5.9c-2.7-5.9-8.8-11.8-13.6-14.1
	c-2.2-1-4-1.3-5.3-0.7C6.7,3.8,5,7.1,4,11.4c-0.9,3.8-1.6,9.7,0.1,16.7c1.2,5,3.7,8.9,7.4,12.2c3.2,2.7,6.8,4.4,9.7,5.8
	c1,0.5,2,0.9,2.8,1.4c0.1,0.1,0.3,0.1,0.4,0.1c0,0,0,0,0,0c0,0,0,0,0,0c0,0,0.1,0,0.1,0c0,0,0.1,0,0.1,0c0.1,0,0.2,0,0.3-0.1
	c0,0,0,0,0,0c0,0,0.1,0,0.2,0l0,0c1.5-0.4,5-1.2,8.8-3.2c4.9-2.5,8.5-6,10.9-10.4C47.3,29.4,48.2,18.7,46.5,13.7z M24.8,42.2
	C24.8,42.2,24.8,42.2,24.8,42.2c-0.8-3.9-2.7-10.1-6.8-16.3c-0.1-0.2-0.3-0.3-0.5-0.4c-0.2,0-0.4,0-0.6,0.1
	c-0.2,0.1-0.3,0.3-0.4,0.5c0,0.2,0,0.4,0.1,0.6c3.3,5.1,5.1,10.2,6,13.6c0.5,1.8,0.8,3.4,0.9,4.5c-0.4-0.2-0.8-0.4-1.3-0.6l-0.1,0
	c-5.6-2.7-13.4-6.3-15.9-16.5c-1.6-6.6-1-12.2-0.1-15.7c1.1-4.7,2.7-6.7,3-6.8C9.3,5,9.6,5,9.8,5c0.7,0,1.7,0.3,2.8,0.8
	c4.7,2.3,11,8.5,13.1,14.3c0,0.1,0,0.2,0.1,0.2c0.1,0.2,0.1,0.3,0.2,0.5C28.7,30.7,26.5,37.1,24.8,42.2z M42.9,33
	c-3,5.6-8.3,9.5-15.7,11.8c3.2-3.9,9.1-11.9,11.7-20.4c0.1-0.2,0-0.4-0.1-0.6c-0.1-0.2-0.3-0.3-0.5-0.4c-0.4-0.1-0.9,0.1-1,0.5
	c-2.2,7.3-7.1,14.4-10.3,18.5c1.8-5.3,3.9-11.9,1-22c0,0,0-0.1,0-0.1c2.6-2.5,5.8-4.7,9.1-6.1c3.7-1.6,5.8-1.5,6.4-1.3
	c0.3,0.2,0.7,0.8,1,1.6C46,18.9,45.2,28.8,42.9,33z"/>
</svg>
