<svg id="Layer_1" data-name="Layer 1" xmlns="http://www.w3.org/2000/svg" viewBox="0 0 50.46 50.46"><defs><style>.cls-1{fill:#65b4e1;}</style></defs><title>solidaridad</title><path class="cls-1" d="M24.59,34.19l-1.15,1.24a1.66,1.66,0,0,0,.09,2.34h0a1.64,1.64,0,0,0,1.13.44h.06a1.64,1.64,0,0,0,1.15-.53L27,36.44a1.66,1.66,0,1,0-2.43-2.26Z"/><path class="cls-1" d="M25.46,31.92a1.66,1.66,0,0,0-2.86-1.07L20,33.59a1.65,1.65,0,0,0,1.21,2.78h.06a1.64,1.64,0,0,0,1.15-.52L25,33.11A1.64,1.64,0,0,0,25.46,31.92Z"/><path class="cls-1" d="M22.07,30.16a1.66,1.66,0,0,0-2.86-1.07l-2.28,2.37a1.65,1.65,0,0,0,1.21,2.78h.06a1.64,1.64,0,0,0,1.15-.52l2.28-2.37A1.64,1.64,0,0,0,22.07,30.16Z"/><path class="cls-1" d="M17.17,30.75a1.66,1.66,0,0,0-2.43-2.26l-.43.47a1.65,1.65,0,0,0,1.21,2.78h.06a1.64,1.64,0,0,0,1.15-.53Z"/><path class="cls-1" d="M35.75,16a.28.28,0,0,0-.35-.13,8.21,8.21,0,0,1-1.36.42,3.45,3.45,0,0,1-2-.86,10.27,10.27,0,0,0-1.93-1.08A3.84,3.84,0,0,0,27.2,14c-1.39.27-5.35,3-5.63,3.19l-3.38,2.49a1.81,1.81,0,0,0,2.16,2.9L25,20h0c.65-.42,1.38-.74,2.58.41a1.23,1.23,0,0,0,.13.18l.8.89c2.39,2.65,7.58,8.31,7.64,8.37a.28.28,0,0,0,.21.09h0a.28.28,0,0,0,.21-.09L40.7,25.7a.28.28,0,0,0,0-.32Z"/><path class="cls-1" d="M46.74,23.52,41,12.52a.35.35,0,0,0-.49-.14l-3.55,2a.35.35,0,0,0-.14.47l5.69,10.71a.35.35,0,0,0,.47.15L46.58,24a.35.35,0,0,0,.16-.48Z"/><path class="cls-1" d="M12.4,13.89,8.66,12.28a.35.35,0,0,0-.47.2L3.7,24a.35.35,0,0,0,.21.46l3.74,1.32a.35.35,0,0,0,.45-.2l4.49-11.27A.35.35,0,0,0,12.4,13.89Z"/><path class="cls-1" d="M36.94,30.24a.58.58,0,0,0-.37.39v.06a1.25,1.25,0,0,1-2.14,1.08l-4-4.09a.62.62,0,0,0-.65.06.75.75,0,0,0-.18.68L33.2,32.2a1.25,1.25,0,0,1-1.83,1.7l-3.85-4a.67.67,0,0,0-.75.14.8.8,0,0,0-.09.73c.07.08,1.66,1.84,2,2.15L29.74,34a1.25,1.25,0,0,1-.06,1.77,1.28,1.28,0,0,1-1.44.19l0,0h0a.75.75,0,0,0-.51.7v.07l.06,0A2.2,2.2,0,0,0,31,34.86a2.2,2.2,0,0,0,3.46-1.73c0-.06,0-.12,0-.18a2.2,2.2,0,0,0,3-2.37A.47.47,0,0,0,36.94,30.24Z"/><path class="cls-1" d="M14.2,28.4a.47.47,0,0,0-.16-.33l-3.23-2.9,3.65-9.08a7.46,7.46,0,0,0,2.15.52,6.06,6.06,0,0,0,4-1.28l.32-.2a3,3,0,0,1,2.89-.18.48.48,0,1,0,.51-.81,4,4,0,0,0-3.9.18l-.32.2a5.18,5.18,0,0,1-3.48,1.13A7.53,7.53,0,0,1,14.4,15a.48.48,0,0,0-.64.25l-4,9.83a.48.48,0,0,0,.12.53l3.48,3.12a.48.48,0,0,0,.8-.38Z"/></svg>