<svg id="Layer_1" data-name="Layer 1" xmlns="http://www.w3.org/2000/svg" viewBox="0 0 50.46 50.46"><defs><style>.cls-1{fill:#65b4e1;}</style></defs><title>soluciones habitacionales</title><path class="cls-1" d="M13.48,29.52V20.37l10.34-7.5,10.34,7.5v8.42c.5.14,1,.3,1.47.48V20a.73.73,0,0,0-.3-.59l-11.07-8a.73.73,0,0,0-.86,0l-11.07,8A.73.73,0,0,0,12,20v5.72c.11.3.2.61.29.91A12.41,12.41,0,0,0,13.48,29.52Z"/><path class="cls-1" d="M10.46,18.59,23.82,8.9l13.36,9.69a.81.81,0,1,0,1-1.32L24.3,7.23a.81.81,0,0,0-1,0L9.5,17.27a.81.81,0,1,0,1,1.32Z"/><path class="cls-1" d="M42.06,37.92c-1-3.67-4.18-7.17-9.73-8.11S22.77,27.67,21.91,25a3.33,3.33,0,0,0-.43,4.27c2,2.73,6.12,2.42,6.4,3.84.44,2.22-6,4.54-11.27,1.28C9.53,30.06,12,25.11,9,24.26H7.82S7.4,36.38,17.56,41.51c7.16,3.61,17.5-1.88,24.87,1.88C42.43,43.38,43.09,41.59,42.06,37.92Z"/></svg>