<?xml version="1.0" encoding="utf-8"?>
<!-- Generator: Adobe Illustrator 24.0.1, SVG Export Plug-In . SVG Version: 6.00 Build 0)  -->
<svg version="1.1" id="Layer_1" xmlns="http://www.w3.org/2000/svg" xmlns:xlink="http://www.w3.org/1999/xlink" x="0px" y="0px"
	 viewBox="0 0 50.5 50.5" style="enable-background:new 0 0 50.5 50.5;" xml:space="preserve">
<path d="M25.25,3.901c-11.791,0-21.35,9.559-21.35,21.35c0,11.791,9.559,21.349,21.35,21.349c11.792,0,21.35-9.558,21.35-21.349
	c0-11.79-9.558-21.349-21.35-21.349C25.25,3.902,25.25,3.901,25.25,3.901z M35.041,34.693c-0.382,0.627-1.203,0.826-1.831,0.441
	c-5.013-3.062-11.323-3.755-18.755-2.057c-0.716,0.163-1.43-0.286-1.593-1.002c-0.164-0.716,0.283-1.43,1.001-1.593
	c8.133-1.859,15.109-1.058,20.736,2.381C35.227,33.247,35.426,34.066,35.041,34.693z M37.654,28.879
	c-0.482,0.784-1.507,1.031-2.289,0.549c-5.739-3.528-14.487-4.55-21.275-2.489c-0.88,0.266-1.81-0.23-2.077-1.109
	c-0.265-0.88,0.231-1.808,1.11-2.076c7.754-2.353,17.393-1.213,23.983,2.837C37.889,27.072,38.136,28.097,37.654,28.879
	L37.654,28.879z M37.878,22.825c-6.881-4.087-18.234-4.463-24.803-2.469c-1.055,0.32-2.171-0.276-2.49-1.331
	c-0.32-1.055,0.275-2.17,1.331-2.491c7.542-2.289,20.078-1.847,28.001,2.856c0.951,0.563,1.262,1.789,0.699,2.736
	c-0.561,0.949-1.79,1.262-2.736,0.698H37.878z"/>
</svg>
