<?xml version="1.0" encoding="utf-8"?>
<!-- Generator: Adobe Illustrator 22.1.0, SVG Export Plug-In . SVG Version: 6.00 Build 0)  -->
<svg version="1.1" id="Layer_1" xmlns="http://www.w3.org/2000/svg" xmlns:xlink="http://www.w3.org/1999/xlink" x="0px" y="0px"
	 viewBox="0 0 50.5 50.5" style="enable-background:new 0 0 50.5 50.5;" xml:space="preserve">
<style type="text/css">
	.st0{fill:#12B5E1;}
</style>
<g>
	<g>
		<path class="st0" d="M47.9,25.8c0-1.1-0.9-2-2-2h-9v-4c0-0.3-0.2-0.5-0.5-0.6c-0.4-0.1-0.8-0.2-1.3-0.2V15c0-0.3-0.3-0.6-0.6-0.6
			c-0.3,0-0.6,0.2-0.6,0.6v4c-0.3,0-0.7,0-1,0v-3.2c0-0.3-0.3-0.6-0.6-0.6c-0.3,0-0.6,0.2-0.6,0.6V19c-0.3,0-0.7,0.1-1,0.1v-2
			c0-0.3-0.3-0.6-0.6-0.6c-0.3,0-0.6,0.2-0.6,0.6v2.3c-0.4,0.1-0.9,0.3-1.2,0.4c-0.2,0.1-0.3,0.2-0.3,0.4l-0.8,3.6l-5,0
			c-5.3,0.1-9.2,0.8-12,1.6l-0.9-1.9c-0.2-0.4-0.6-0.6-1-0.6H6.5c-0.3,0-0.6,0.1-0.8,0.4c-0.2,0.2-0.3,0.5-0.3,0.8l0.3,3.2
			c-0.7,0.4-1.3,0.8-1.6,1v-2c0-0.3-0.2-0.5-0.5-0.5S3,26.1,3,26.3v2.4c-0.3,0-0.5,0.2-0.5,0.5s0.2,0.5,0.5,0.5V32
			c0,0.3,0.2,0.5,0.5,0.5S4,32.3,4,32v-2c0.3,0.3,0.9,0.7,1.7,1.1l-0.3,3.7c0,0.3,0.1,0.6,0.3,0.8C5.9,35.9,6.2,36,6.5,36h1.9
			c0.4,0,0.8-0.2,1-0.6l1.2-2.4c2.8,0.7,6.5,1.2,11.5,1.2h22.2c1,0,1.9-0.4,2.6-1.1c0.7-0.7,1.1-1.6,1.1-2.6L47.9,25.8z M8.4,24.1
			l0.9,1.7c-1,0.3-1.8,0.7-2.6,1l-0.2-2.7H8.4z M8.4,34.9H6.5l0.3-3.2c0.8,0.3,1.7,0.7,2.8,1L8.4,34.9z M46.1,32.3
			c-0.5,0.5-1.1,0.7-1.8,0.7H22.1c-11.8,0-16.2-2.9-17.4-3.9c1.3-1,6.1-3.9,17.7-4.2l5.5,0c0.3,0,0.5-0.2,0.5-0.4l0.8-3.8
			c1.9-0.7,4.4-0.9,6.6-0.5v4.1c0,0.3,0.3,0.6,0.6,0.6h9.5c0.5,0,0.9,0.4,0.9,0.9l0.1,4.7C46.8,31.2,46.6,31.9,46.1,32.3z"/>
		<path class="st0" d="M20.2,26H20c-0.3,0-0.6,0.2-0.6,0.6c0,0.3,0.3,0.6,0.6,0.6h0.2c0.3,0,0.6-0.2,0.6-0.6
			C20.8,26.2,20.5,26,20.2,26z"/>
		<path class="st0" d="M43.5,26H22.4c-0.3,0-0.6,0.2-0.6,0.6c0,0.3,0.3,0.6,0.6,0.6h21.1c0.3,0,0.6-0.2,0.6-0.6
			C44.1,26.2,43.8,26,43.5,26z"/>
		<path class="st0" d="M30.1,25h4.4c0.3,0,0.6-0.2,0.6-0.6c0-0.3-0.3-0.6-0.6-0.6h-4.4c-0.3,0-0.6,0.2-0.6,0.6
			C29.6,24.7,29.8,25,30.1,25z"/>
		<path class="st0" d="M34.3,23.2h0.3c0.3,0,0.6-0.2,0.6-0.6c0-0.3-0.3-0.6-0.6-0.6h-0.3c-0.3,0-0.6,0.2-0.6,0.6
			C33.7,23,34,23.2,34.3,23.2z"/>
	</g>
</g>
</svg>
