<svg id="Layer_1" data-name="Layer 1" xmlns="http://www.w3.org/2000/svg" viewBox="0 0 50.46 50.46"><defs><style>.cls-1{fill:#12b5e1;}</style></defs><title>sustancias ok</title><path class="cls-1" d="M35.44,29.09a8.78,8.78,0,1,0,8.78,8.78A8.79,8.79,0,0,0,35.44,29.09Zm0,15.87a7.09,7.09,0,1,1,7.09-7.09A7.1,7.1,0,0,1,35.44,45Z"/><polygon class="cls-1" points="39.43 33.71 34.38 38.15 31.53 35.28 29.94 36.69 34.45 42.3 34.45 42.3 40.94 35.03 39.43 33.71"/><path class="cls-1" d="M25.54,41.86h-15A2.56,2.56,0,0,1,8,39.3V8.12a2.56,2.56,0,0,1,2.56-2.56H28.81l0,6.48a1,1,0,0,0,1,1h.05c.4,0,3.17,0,5.62,0V27.36a13.64,13.64,0,0,1,1.69.06l0-16v0L30,3.81H10.55A4.31,4.31,0,0,0,6.24,8.12V39.3a4.31,4.31,0,0,0,4.31,4.31H26.39A12.29,12.29,0,0,1,25.54,41.86Zm8.61-30.81H30.84l0-3.63Z"/><path class="cls-1" d="M34.26,17.14a1.86,1.86,0,0,0-3.32,1.54L26.75,20.6a1.86,1.86,0,0,0-2.4-.22.71.71,0,0,0-.15.15l-4-2.91A1.8,1.8,0,0,0,20,16a1.83,1.83,0,0,0-1.22-.76,1.85,1.85,0,0,0-1.18.2l-3.05-3.55A1.85,1.85,0,0,0,14,9.64a1.87,1.87,0,0,0-2.63.31A1.85,1.85,0,0,0,11,11.33a1.79,1.79,0,0,0,.7,1.25,1.84,1.84,0,0,0,2.09.13l3,3.5a1.89,1.89,0,0,0-.22.71h0a2,2,0,0,0,0,.54l-4,2.86a1.83,1.83,0,0,0-2,.08A1.88,1.88,0,0,0,10.2,23a1.82,1.82,0,0,0,1.33.74L13,28.51a1.88,1.88,0,0,0-.42,2.61,1.86,1.86,0,0,0,1.22.76l.27,0A1.85,1.85,0,0,0,16,30.47l4.81,0a2,2,0,0,0,.28.64,1.9,1.9,0,0,0,1.23.75,1.82,1.82,0,0,0,1.39-.33,1.83,1.83,0,0,0,.76-1.22A1.86,1.86,0,0,0,24.1,29a1.81,1.81,0,0,0-.51-.48l1.57-4.73a1.78,1.78,0,0,0,1.38-.31,1.86,1.86,0,0,0,.74-1.86l4.25-1.95a1.85,1.85,0,0,0,2.73-2.48ZM22.52,28.19a1.84,1.84,0,0,0-1,.33,1.75,1.75,0,0,0-.63.88l-5,0a1.76,1.76,0,0,0-.21-.44,1.85,1.85,0,0,0-1.58-.75l-1.48-4.62.21-.1a1.86,1.86,0,0,0,.58-2.3l3.81-2.73a1.86,1.86,0,0,0,2.36.17s.05,0,.07-.05l4,2.94A1.82,1.82,0,0,0,23.92,23a1.09,1.09,0,0,0,.24.24Z"/></svg>