<svg id="Layer_1" data-name="Layer 1" xmlns="http://www.w3.org/2000/svg" viewBox="0 0 50.46 50.46"><defs><style>.cls-1{fill:#12b5e1;}</style></defs><title>tablero gestion</title><path class="cls-1" d="M15.48,26.89H12.67a.71.71,0,0,1-.71-.71V21.67a1.27,1.27,0,0,1,1.28-1.27h1.68a1.27,1.27,0,0,1,1.27,1.27v4.51A.71.71,0,0,1,15.48,26.89Z"/><path class="cls-1" d="M26.08,26.89H23.26a.7.7,0,0,1-.7-.71V18.81a1.27,1.27,0,0,1,1.27-1.27h1.68a1.27,1.27,0,0,1,1.27,1.27v7.37A.71.71,0,0,1,26.08,26.89Z"/><path class="cls-1" d="M20.78,26.89H18a.7.7,0,0,1-.7-.71V14.85a1.27,1.27,0,0,1,1.27-1.28h1.68a1.27,1.27,0,0,1,1.27,1.28V26.18A.7.7,0,0,1,20.78,26.89Z"/><path class="cls-1" d="M4,32.53a.42.42,0,0,1-.42-.42V29.4H32.06l.18-.15a5.44,5.44,0,0,1-1.3-1,1.57,1.57,0,0,1-.12-.19H3.55V10.18A.42.42,0,0,1,4,9.75h30.8a.42.42,0,0,1,.42.43v3.27A8.2,8.2,0,0,1,36.56,13v-2.8a1.8,1.8,0,0,0-1.79-1.8H4a1.8,1.8,0,0,0-1.79,1.8V32.11A1.79,1.79,0,0,0,4,33.9H16v3a2.17,2.17,0,0,1-2.16,2.17h-.4a.68.68,0,1,0,0,1.36H25.28a.68.68,0,0,0,0-1.36h-.4a2.17,2.17,0,0,1-2.17-2.17v-3h5.85c.23-.45.49-.91.77-1.37ZM16.66,39.1a3.58,3.58,0,0,0,.74-2.17v-3h3.94v3a3.52,3.52,0,0,0,.75,2.17Z"/><path class="cls-1" d="M32.29,24.55l.09.32a1.89,1.89,0,0,1,.1.54s0,0,0,0-.2.36-.43.74l-.1.18a.69.69,0,0,0,.1.83,4.6,4.6,0,0,0,2.38,1.31l.17,0a.72.72,0,0,0,.18-1.41,3.86,3.86,0,0,1-1.29-.54,3.82,3.82,0,0,0,.39-.82,2.16,2.16,0,0,0,0-.35,3.31,3.31,0,0,0-.15-.92l-.09-.34c0-.13-.08-.26-.11-.39s0-.08,0-.11A5.87,5.87,0,0,1,33,21.3a5.51,5.51,0,1,1,11,0,5.78,5.78,0,0,1-.54,2.43c-.08.25-.15.5-.22.74a3.23,3.23,0,0,0-.15.94,2.16,2.16,0,0,0,0,.35l0,.1a4.19,4.19,0,0,0,.36.72,3.5,3.5,0,0,1-.95.45.7.7,0,0,0-.47.89.72.72,0,0,0,.9.47,4.29,4.29,0,0,0,2-1.19.69.69,0,0,0,.09-.83l-.1-.18c-.09-.15-.34-.57-.42-.73v-.05a2,2,0,0,1,.09-.54c.07-.24.14-.48.18-.64a7,7,0,0,0,.63-2.93,6.94,6.94,0,1,0-13.87,0,7.37,7.37,0,0,0,.59,2.87Z"/><path class="cls-1" d="M42.29,29.42a.81.81,0,0,0-.78.08,5.55,5.55,0,0,1-3,.94,5.89,5.89,0,0,1-3-1,.71.71,0,0,0-.73,0l0,0c-4.43,2.2-6.27,8.1-5.88,9.25a.76.76,0,0,0,.27.37,18,18,0,0,0,9.42,3A16.9,16.9,0,0,0,48,39a.83.83,0,0,0,.26-.37C48.61,37.54,46.77,31.63,42.29,29.42ZM42,30.88a8,8,0,0,1,1.12.78L41,33.92l-1.48-2.14A7.45,7.45,0,0,0,42,30.88Zm-7,0a7.47,7.47,0,0,0,2.45.9L36,33.92l-2.07-2.26A7.9,7.9,0,0,1,35,30.88Zm3.48,9.76a16.55,16.55,0,0,1-8.33-2.56,12.11,12.11,0,0,1,3-5.74l2.49,2.71a.48.48,0,0,0,.37.17h0a.54.54,0,0,0,.38-.22l2.05-3,2.06,3a.5.5,0,0,0,.37.22h0a.5.5,0,0,0,.37-.17l2.49-2.71a12.09,12.09,0,0,1,3,5.74A15.46,15.46,0,0,1,38.52,40.64Z"/><path class="cls-1" d="M40.88,18.74a.5.5,0,0,0-.49-.24.49.49,0,0,0-.4.37c-.63,2.8-2.48,3-4,3.09-.87.07-1.86.16-1.86,1.12,0,2.41,1.94,5.33,4.35,5.33s4.36-2.92,4.36-5.33C42.88,22.36,41.48,19.81,40.88,18.74Zm-2.36,8.71c-1.8,0-3.4-2.44-3.41-4.37a3.25,3.25,0,0,1,1-.17c1.33-.11,3.45-.3,4.47-2.72a15.58,15.58,0,0,1,1.34,2.9C41.92,25,40.32,27.45,38.52,27.45Z"/></svg>