<?xml version="1.0" encoding="utf-8"?>
<!-- Generator: Adobe Illustrator 24.0.1, SVG Export Plug-In . SVG Version: 6.00 Build 0)  -->
<svg version="1.1" id="Layer_1" xmlns="http://www.w3.org/2000/svg" xmlns:xlink="http://www.w3.org/1999/xlink" x="0px" y="0px"
	 viewBox="0 0 50.5 50.5" style="enable-background:new 0 0 50.5 50.5;" xml:space="preserve">
<g>
	<rect x="5.306" y="35.118" width="3.41" height="3.41"/>
	<polygon points="34.872,19.024 34.88,43.931 42.532,43.931 42.532,25.702 39.122,25.702 39.122,22.434 42.532,22.434 
		42.532,19.024 34.88,19.024 	"/>
	<polygon points="10.173,22.434 13.577,22.434 13.577,25.787 16.956,25.787 16.956,36.665 20.778,36.665 20.778,40.227 
		16.956,40.227 16.956,43.961 20.778,43.961 20.778,40.29 24.604,40.29 24.604,25.526 31.575,25.526 31.575,19.024 10.173,19.024 	
		"/>
	<rect x="9.024" y="29.284" width="4.331" height="4.331"/>
	<rect x="9.024" y="41.663" width="2.355" height="2.355"/>
	<polygon points="42.839,6.482 42.839,7.454 6.99,7.454 6.99,25.87 5.61,25.87 5.61,29.28 9.02,29.28 9.02,25.87 7.399,25.87 
		7.399,7.864 42.839,7.864 42.839,8.837 45.194,8.837 45.194,6.482 	"/>
	<path d="M11.004,10.754v1.289h-0.666l0.009,0.833h0.658v2.315c0,0.462,0.128,0.811,0.386,1.048
		c0.257,0.237,0.587,0.355,0.991,0.355c0.409,0,0.801-0.114,1.175-0.342l-0.263-0.859c-0.269,0.129-0.491,0.193-0.666,0.193
		c-0.164,0-0.286-0.045-0.368-0.136c-0.082-0.091-0.123-0.244-0.123-0.46v-2.113h1.342v-0.833h-1.342v-1.289H11.004z"/>
	<path d="M15.879,13.726c-0.567,0.006-1.006,0.133-1.315,0.381c-0.31,0.248-0.465,0.592-0.465,1.03c0,0.275,0.067,0.523,0.202,0.745
		c0.134,0.222,0.326,0.396,0.574,0.522c0.248,0.126,0.536,0.188,0.864,0.188c0.333,0,0.628-0.053,0.886-0.158
		c0.257-0.105,0.468-0.26,0.631-0.465v0.57h1.122l-0.009-3.069c-0.006-0.526-0.177-0.935-0.513-1.228
		c-0.336-0.292-0.808-0.438-1.416-0.438c-0.403,0-0.755,0.045-1.057,0.136c-0.301,0.091-0.636,0.238-1.004,0.443l0.412,0.789
		c0.485-0.292,0.95-0.438,1.394-0.438c0.345,0,0.608,0.076,0.789,0.228c0.181,0.152,0.272,0.365,0.272,0.64v0.123H15.879z
		 M17.247,14.91c-0.029,0.228-0.161,0.419-0.395,0.574c-0.234,0.155-0.514,0.232-0.842,0.232c-0.257,0-0.46-0.058-0.609-0.175
		c-0.149-0.117-0.224-0.275-0.224-0.473c0-0.205,0.072-0.352,0.215-0.443c0.143-0.091,0.367-0.136,0.671-0.136h1.184V14.91z"/>
	<rect x="19.737" y="10.035" width="1.14" height="6.506"/>
	<rect x="22.42" y="10.035" width="1.14" height="6.506"/>
	<path d="M29.268,14.252c0-0.772-0.188-1.371-0.566-1.797c-0.377-0.427-0.94-0.64-1.688-0.64c-0.462,0-0.874,0.101-1.236,0.302
		c-0.363,0.202-0.645,0.484-0.846,0.846c-0.202,0.362-0.302,0.778-0.302,1.245c0,0.468,0.099,0.881,0.298,1.241
		c0.199,0.359,0.481,0.639,0.846,0.837c0.365,0.199,0.788,0.298,1.267,0.298c0.409,0,0.782-0.07,1.118-0.21
		c0.336-0.14,0.621-0.339,0.855-0.596l-0.614-0.64c-0.164,0.17-0.355,0.3-0.574,0.39c-0.219,0.091-0.449,0.136-0.688,0.136
		c-0.345,0-0.636-0.095-0.872-0.285c-0.237-0.19-0.393-0.451-0.469-0.785h3.463C29.265,14.519,29.268,14.405,29.268,14.252z
		 M25.77,13.832c0.053-0.351,0.191-0.627,0.417-0.829c0.225-0.202,0.504-0.302,0.837-0.302c0.356,0,0.643,0.102,0.859,0.307
		c0.216,0.205,0.33,0.479,0.342,0.824H25.77z"/>
	<path d="M31.425,12.753V11.85h-1.14v4.691h1.14v-2.262c0-0.432,0.145-0.776,0.434-1.03c0.289-0.254,0.676-0.367,1.162-0.338v-1.105
		c-0.362,0.006-0.68,0.089-0.951,0.25C31.798,12.217,31.583,12.449,31.425,12.753z"/>
	<path d="M36.953,16.374c0.336-0.14,0.621-0.339,0.855-0.596l-0.614-0.64c-0.164,0.17-0.355,0.3-0.574,0.39
		c-0.219,0.091-0.449,0.136-0.688,0.136c-0.345,0-0.636-0.095-0.872-0.285c-0.237-0.19-0.393-0.451-0.469-0.785h3.463
		c0.006-0.076,0.009-0.19,0.009-0.342c0-0.772-0.188-1.371-0.566-1.797c-0.377-0.427-0.94-0.64-1.688-0.64
		c-0.462,0-0.874,0.101-1.236,0.302c-0.363,0.202-0.645,0.484-0.846,0.846c-0.202,0.362-0.303,0.778-0.303,1.245
		c0,0.468,0.099,0.881,0.298,1.241c0.199,0.359,0.481,0.639,0.846,0.837c0.365,0.199,0.788,0.298,1.267,0.298
		C36.245,16.585,36.617,16.515,36.953,16.374z M34.564,13.832c0.053-0.351,0.191-0.627,0.417-0.829
		c0.225-0.202,0.504-0.302,0.837-0.302c0.356,0,0.643,0.102,0.859,0.307c0.216,0.205,0.33,0.479,0.342,0.824H34.564z"/>
	<path d="M41.03,15.598c-0.126,0.073-0.294,0.11-0.504,0.11c-0.263,0-0.541-0.051-0.833-0.153c-0.292-0.102-0.544-0.244-0.754-0.425
		l-0.394,0.798c0.24,0.21,0.532,0.373,0.877,0.487c0.345,0.114,0.698,0.171,1.061,0.171c0.532,0,0.973-0.123,1.324-0.368
		c0.351-0.246,0.526-0.596,0.526-1.052c0-0.31-0.078-0.56-0.232-0.75c-0.155-0.19-0.338-0.333-0.548-0.43
		c-0.211-0.096-0.479-0.194-0.807-0.294c-0.31-0.088-0.536-0.171-0.68-0.25c-0.143-0.079-0.215-0.191-0.215-0.338
		c0-0.14,0.057-0.244,0.171-0.311c0.114-0.067,0.267-0.101,0.46-0.101c0.205,0,0.428,0.038,0.671,0.114
		c0.242,0.076,0.478,0.181,0.706,0.316l0.412-0.824c-0.234-0.158-0.501-0.281-0.802-0.368c-0.301-0.088-0.606-0.131-0.916-0.131
		c-0.509,0-0.931,0.121-1.267,0.364c-0.336,0.243-0.504,0.595-0.504,1.057c0,0.298,0.073,0.539,0.219,0.723
		c0.146,0.184,0.318,0.322,0.517,0.412c0.199,0.091,0.456,0.183,0.772,0.276c0.327,0.099,0.564,0.19,0.71,0.272
		c0.146,0.082,0.219,0.205,0.219,0.368C41.219,15.416,41.156,15.525,41.03,15.598z"/>
</g>
</svg>
