<?xml version="1.0" encoding="utf-8"?>
<!-- Generator: Adobe Illustrator 24.0.3, SVG Export Plug-In . SVG Version: 6.00 Build 0)  -->
<svg version="1.1" id="Capa_1" xmlns="http://www.w3.org/2000/svg" xmlns:xlink="http://www.w3.org/1999/xlink" x="0px" y="0px"
	 viewBox="0 0 50.5 50.5" style="enable-background:new 0 0 50.5 50.5;" xml:space="preserve">
<g>
	<g>
		<path d="M3.529,15.962c1.099-0.212,2.183-0.319,3.252-0.319c1.616,0,2.822,0.315,3.619,0.943c0.796,0.629,1.194,1.609,1.194,2.94
			c0,1.277-0.392,2.243-1.176,2.896c-0.784,0.653-1.945,0.98-3.484,0.98c-0.217,0-0.563-0.009-1.038-0.029v3.143H3.529V15.962z
			 M8.734,21.138c0.373-0.329,0.559-0.861,0.559-1.597c0-0.741-0.187-1.28-0.559-1.619c-0.373-0.339-0.951-0.508-1.734-0.508
			c-0.397,0-0.765,0.029-1.104,0.087v4.065c0.353,0.043,0.706,0.065,1.06,0.065C7.769,21.631,8.361,21.467,8.734,21.138z"/>
		<path d="M17.582,18.772c0.533,0.213,0.927,0.562,1.183,1.049c0.257,0.486,0.385,1.146,0.385,1.978v4.718h-1.917l-0.159-0.784
			h-0.109c-0.232,0.315-0.53,0.549-0.892,0.701c-0.363,0.152-0.767,0.228-1.212,0.228c-0.533,0-0.992-0.095-1.379-0.286
			c-0.387-0.191-0.684-0.46-0.889-0.806c-0.206-0.346-0.308-0.749-0.308-1.209c0-0.76,0.265-1.348,0.795-1.764
			c0.53-0.416,1.366-0.661,2.508-0.733l1.292-0.109v-0.102c0-0.368-0.06-0.656-0.178-0.864c-0.119-0.208-0.307-0.357-0.566-0.446
			c-0.259-0.089-0.613-0.134-1.063-0.134c-0.324,0-0.678,0.026-1.063,0.08c-0.385,0.053-0.749,0.133-1.093,0.24v-1.742
			c0.377-0.107,0.796-0.189,1.255-0.247c0.46-0.058,0.898-0.087,1.314-0.087C16.351,18.452,17.05,18.559,17.582,18.772z
			 M16.29,24.93c0.218-0.08,0.414-0.207,0.588-0.381v-1.488l-1.06,0.08c-0.435,0.034-0.752,0.134-0.951,0.301
			c-0.198,0.167-0.297,0.4-0.297,0.7c0,0.295,0.089,0.52,0.269,0.675c0.179,0.155,0.44,0.232,0.784,0.232
			C15.849,25.05,16.072,25.01,16.29,24.93z"/>
		<path d="M20.812,26.517v-7.941h2.323v7.941H20.812z M20.907,17.566l1.634-2.78h2.468l-1.975,2.78H20.907z"/>
		<path d="M24.652,26.321v-1.699c0.784,0.237,1.621,0.356,2.512,0.356c0.503,0,0.868-0.067,1.092-0.2
			c0.225-0.133,0.338-0.328,0.338-0.584c0-0.198-0.054-0.348-0.159-0.45c-0.107-0.102-0.293-0.179-0.559-0.232l-1.285-0.232
			c-0.741-0.136-1.283-0.391-1.626-0.766c-0.343-0.375-0.515-0.882-0.515-1.521c0-0.518,0.138-0.966,0.414-1.346
			c0.276-0.38,0.693-0.674,1.252-0.882c0.559-0.208,1.252-0.312,2.08-0.312c0.377,0,0.751,0.022,1.121,0.065
			c0.37,0.044,0.705,0.104,1.005,0.182v1.699c-0.643-0.174-1.331-0.262-2.061-0.262c-1.103,0-1.655,0.267-1.655,0.799
			c0,0.174,0.055,0.315,0.163,0.421c0.109,0.107,0.291,0.184,0.548,0.232l1.285,0.232c0.736,0.14,1.279,0.389,1.63,0.744
			c0.351,0.356,0.526,0.872,0.526,1.55c0,0.528-0.14,0.983-0.418,1.365c-0.278,0.382-0.685,0.677-1.219,0.882
			c-0.535,0.206-1.175,0.308-1.92,0.308C26.256,26.669,25.407,26.553,24.652,26.321z"/>
	</g>
	<g>
		<path d="M3.529,39.096V28.658c0.503-0.111,1.056-0.198,1.659-0.261s1.186-0.094,1.753-0.094c1.97,0,3.448,0.449,4.435,1.347
			c0.987,0.897,1.481,2.278,1.481,4.141c0,1.278-0.235,2.32-0.704,3.128c-0.469,0.808-1.173,1.402-2.112,1.782
			c-0.939,0.38-2.13,0.57-3.572,0.57C5.443,39.27,4.463,39.212,3.529,39.096z M8.966,36.991c0.489-0.237,0.854-0.617,1.096-1.14
			c0.242-0.523,0.363-1.212,0.363-2.068c0-0.847-0.123-1.533-0.366-2.058c-0.244-0.525-0.611-0.909-1.1-1.151
			c-0.489-0.242-1.108-0.363-1.858-0.363c-0.382,0-0.784,0.036-1.205,0.109v6.976c0.31,0.034,0.706,0.051,1.19,0.051
			C7.851,37.347,8.477,37.228,8.966,36.991z"/>
		<path d="M14.406,29.754c-0.24-0.208-0.359-0.506-0.359-0.893c0-0.392,0.119-0.692,0.356-0.9c0.237-0.208,0.598-0.312,1.082-0.312
			c0.479,0,0.837,0.104,1.074,0.312c0.237,0.208,0.356,0.508,0.356,0.9c0,0.387-0.119,0.685-0.356,0.893
			c-0.237,0.208-0.595,0.312-1.074,0.312C15.006,30.066,14.646,29.962,14.406,29.754z M14.323,39.161V31.22h2.323v7.941H14.323z"/>
		<path d="M18.562,42.174v-1.815c0.856,0.237,1.684,0.356,2.483,0.356c0.523,0,0.946-0.063,1.27-0.189
			c0.324-0.126,0.563-0.326,0.715-0.599c0.152-0.274,0.228-0.635,0.228-1.086v-0.53h-0.109c-0.232,0.286-0.524,0.507-0.875,0.664
			s-0.744,0.236-1.179,0.236c-0.566,0-1.083-0.14-1.55-0.421c-0.467-0.28-0.839-0.71-1.118-1.288
			c-0.278-0.578-0.417-1.296-0.417-2.152c0-1.384,0.377-2.439,1.132-3.165c0.755-0.726,1.882-1.089,3.383-1.089
			c0.523,0,1.057,0.038,1.604,0.113c0.546,0.075,1.03,0.183,1.451,0.323v6.881c0,0.954-0.158,1.731-0.475,2.334
			c-0.317,0.603-0.795,1.045-1.434,1.328c-0.639,0.283-1.454,0.424-2.446,0.424C20.268,42.5,19.38,42.391,18.562,42.174z
			 M22.678,37.205c0.227-0.079,0.421-0.199,0.581-0.359v-3.891c-0.29-0.068-0.602-0.102-0.936-0.102
			c-0.658,0-1.152,0.183-1.481,0.548c-0.329,0.365-0.493,0.95-0.493,1.753c0,0.799,0.138,1.36,0.414,1.684
			c0.275,0.324,0.679,0.486,1.212,0.486C22.216,37.325,22.45,37.285,22.678,37.205z"/>
		<path d="M27.392,29.754c-0.24-0.208-0.359-0.506-0.359-0.893c0-0.392,0.119-0.692,0.356-0.9c0.237-0.208,0.598-0.312,1.082-0.312
			c0.479,0,0.837,0.104,1.074,0.312c0.237,0.208,0.356,0.508,0.356,0.9c0,0.387-0.119,0.685-0.356,0.893
			c-0.237,0.208-0.595,0.312-1.074,0.312S27.632,29.962,27.392,29.754z M27.308,39.161V31.22h2.323v7.941H27.308z"/>
		<path d="M36.36,37.303v1.837c-0.489,0.111-0.978,0.167-1.466,0.167c-0.978,0-1.719-0.242-2.225-0.726
			c-0.506-0.484-0.758-1.234-0.758-2.25v-3.281h-1.292V31.22h1.292l0.421-2.802h1.902v2.802h2.083v1.829h-2.083v2.918
			c0,0.358,0.045,0.641,0.134,0.849s0.227,0.357,0.414,0.446c0.186,0.09,0.434,0.135,0.744,0.135
			C35.728,37.398,36.007,37.366,36.36,37.303z"/>
		<path d="M42.37,31.416c0.533,0.213,0.927,0.562,1.183,1.049c0.257,0.486,0.385,1.146,0.385,1.978v4.718h-1.917l-0.159-0.784
			h-0.109c-0.232,0.315-0.53,0.549-0.892,0.701c-0.363,0.152-0.767,0.228-1.212,0.228c-0.533,0-0.992-0.095-1.379-0.286
			c-0.387-0.191-0.684-0.46-0.889-0.806c-0.206-0.346-0.308-0.749-0.308-1.209c0-0.76,0.265-1.348,0.795-1.764
			c0.53-0.416,1.366-0.661,2.508-0.733l1.292-0.109v-0.102c0-0.368-0.06-0.656-0.178-0.864c-0.119-0.208-0.307-0.356-0.566-0.446
			c-0.259-0.089-0.613-0.134-1.063-0.134c-0.324,0-0.678,0.026-1.063,0.08c-0.385,0.053-0.749,0.133-1.093,0.24v-1.742
			c0.377-0.107,0.796-0.189,1.255-0.247c0.46-0.058,0.898-0.087,1.314-0.087C41.138,31.097,41.838,31.203,42.37,31.416z
			 M41.078,37.575c0.218-0.08,0.414-0.207,0.588-0.381v-1.488l-1.06,0.08c-0.435,0.034-0.752,0.134-0.951,0.301
			c-0.198,0.167-0.297,0.4-0.297,0.7c0,0.295,0.089,0.52,0.269,0.675c0.179,0.155,0.44,0.232,0.784,0.232
			C40.637,37.695,40.86,37.655,41.078,37.575z"/>
		<path d="M45.6,39.161v-11.73h2.323v11.73H45.6z"/>
	</g>
	<g>
		<path d="M4.948,13.855V8.912H3.077V8.035H7.87v0.877H5.998v4.943H4.948z"/>
		<path d="M10.418,9.661c0.27,0.109,0.471,0.288,0.603,0.536c0.132,0.249,0.199,0.587,0.199,1.015v2.642h-0.853l-0.071-0.444h-0.055
			c-0.129,0.171-0.294,0.3-0.497,0.387c-0.204,0.088-0.428,0.131-0.674,0.131c-0.281,0-0.523-0.05-0.728-0.149
			c-0.204-0.1-0.361-0.241-0.47-0.423c-0.109-0.182-0.163-0.397-0.163-0.643c0-0.398,0.136-0.707,0.409-0.924
			c0.273-0.217,0.704-0.35,1.294-0.397l0.802-0.075v-0.169c0-0.218-0.035-0.389-0.104-0.513c-0.07-0.125-0.178-0.213-0.326-0.265
			c-0.148-0.052-0.347-0.079-0.596-0.079c-0.175,0-0.365,0.015-0.57,0.045c-0.204,0.03-0.401,0.076-0.59,0.136v-0.79
			c0.194-0.06,0.411-0.106,0.651-0.137c0.24-0.031,0.467-0.047,0.682-0.047C9.795,9.498,10.148,9.552,10.418,9.661z M9.83,13.111
			c0.143-0.057,0.271-0.149,0.384-0.275v-0.913L9.51,11.987c-0.27,0.026-0.467,0.092-0.592,0.195
			c-0.124,0.104-0.187,0.248-0.187,0.434c0,0.189,0.056,0.333,0.167,0.433c0.111,0.1,0.274,0.15,0.489,0.15
			C9.539,13.198,9.687,13.169,9.83,13.111z"/>
		<path d="M12.207,13.855V7.5h1.03v6.355H12.207z"/>
		<path d="M14.263,13.855V7.5h1.03v6.355H14.263z"/>
		<path d="M19.804,12.018H17.15c0.013,0.278,0.065,0.499,0.157,0.663c0.092,0.164,0.233,0.283,0.424,0.356
			c0.191,0.073,0.447,0.11,0.767,0.11c0.315,0,0.674-0.05,1.077-0.149v0.783c-0.412,0.102-0.818,0.153-1.219,0.153
			c-0.511,0-0.931-0.078-1.26-0.232c-0.329-0.155-0.575-0.395-0.737-0.721c-0.163-0.327-0.244-0.751-0.244-1.272
			c0-0.48,0.075-0.885,0.224-1.215c0.15-0.331,0.366-0.579,0.649-0.746c0.283-0.166,0.625-0.249,1.026-0.249
			c0.585,0,1.029,0.188,1.333,0.565c0.304,0.376,0.456,0.935,0.456,1.677V12.018z M17.374,10.453
			c-0.144,0.189-0.22,0.505-0.228,0.948h1.695c-0.008-0.443-0.081-0.759-0.219-0.948c-0.137-0.189-0.343-0.283-0.615-0.283
			C17.729,10.17,17.518,10.264,17.374,10.453z"/>
		<path d="M20.571,9.565h0.849l0.079,0.558h0.055c0.126-0.202,0.291-0.354,0.497-0.456c0.206-0.102,0.432-0.153,0.678-0.153
			c0.113,0,0.227,0.009,0.342,0.027v0.936c-0.102-0.018-0.236-0.028-0.401-0.028c-0.204,0-0.406,0.042-0.603,0.126
			c-0.198,0.084-0.354,0.204-0.466,0.358v2.922h-1.03V9.565z"/>
		<path d="M27.047,12.018h-2.654c0.013,0.278,0.065,0.499,0.157,0.663c0.092,0.164,0.233,0.283,0.424,0.356
			c0.191,0.073,0.447,0.11,0.767,0.11c0.315,0,0.674-0.05,1.077-0.149v0.783c-0.412,0.102-0.818,0.153-1.219,0.153
			c-0.511,0-0.931-0.078-1.26-0.232c-0.329-0.155-0.575-0.395-0.737-0.721c-0.163-0.327-0.244-0.751-0.244-1.272
			c0-0.48,0.075-0.885,0.224-1.215c0.15-0.331,0.366-0.579,0.649-0.746c0.283-0.166,0.625-0.249,1.026-0.249
			c0.585,0,1.029,0.188,1.333,0.565c0.304,0.376,0.456,0.935,0.456,1.677V12.018z M24.617,10.453
			c-0.144,0.189-0.22,0.505-0.228,0.948h1.695c-0.008-0.443-0.081-0.759-0.219-0.948c-0.137-0.189-0.343-0.283-0.615-0.283
			C24.972,10.17,24.761,10.264,24.617,10.453z"/>
		<path d="M27.684,13.753v-0.771c0.417,0.126,0.849,0.189,1.298,0.189c0.304,0,0.526-0.045,0.666-0.136
			c0.14-0.091,0.211-0.222,0.211-0.395c0-0.139-0.037-0.245-0.11-0.318c-0.073-0.073-0.199-0.129-0.377-0.165l-0.653-0.122
			c-0.396-0.079-0.684-0.217-0.865-0.415c-0.181-0.198-0.272-0.463-0.272-0.796c0-0.267,0.07-0.5,0.21-0.698
			c0.14-0.198,0.353-0.352,0.639-0.462c0.286-0.11,0.64-0.165,1.062-0.165c0.396,0,0.762,0.045,1.097,0.134v0.767
			c-0.338-0.092-0.695-0.138-1.07-0.138c-0.648,0-0.971,0.178-0.971,0.535c0,0.126,0.036,0.226,0.108,0.301
			c0.072,0.075,0.194,0.131,0.368,0.167l0.653,0.122c0.393,0.079,0.682,0.213,0.867,0.403c0.185,0.19,0.277,0.46,0.277,0.812
			c0,0.275-0.071,0.513-0.212,0.712c-0.142,0.199-0.35,0.353-0.624,0.46c-0.274,0.108-0.605,0.162-0.993,0.162
			C28.506,13.934,28.069,13.873,27.684,13.753z"/>
	</g>
	<g>
		<g>
			<path d="M35.068,23.414c-0.01,0-0.019,0-0.029-0.001c-0.167-0.016-0.29-0.164-0.275-0.331l1.153-12.357
				c0.015-0.167,0.162-0.289,0.331-0.275c0.167,0.016,0.29,0.164,0.275,0.331l-1.153,12.358
				C35.356,23.296,35.224,23.414,35.068,23.414"/>
		</g>
		<g>
			<path d="M36.541,24.267c-0.068,0-0.137-0.023-0.193-0.069c-0.13-0.107-0.149-0.298-0.042-0.429l8.687-10.557
				c0.107-0.13,0.299-0.149,0.428-0.042c0.13,0.107,0.149,0.298,0.042,0.429l-8.687,10.557
				C36.716,24.23,36.628,24.267,36.541,24.267"/>
		</g>
		<g>
			<path d="M44.728,11.194c-0.031,0-0.063-0.005-0.095-0.015l-5.801-1.904c-0.16-0.053-0.247-0.224-0.194-0.384
				c0.052-0.16,0.224-0.248,0.384-0.195l5.801,1.903c0.16,0.053,0.247,0.224,0.194,0.384C44.976,11.113,44.856,11.194,44.728,11.194
				"/>
		</g>
		<g>
			<polygon points="36.752,9.938 35.459,8.748 36.752,7.557 38.045,8.748 			"/>
		</g>
		<g>
			<polygon points="46.631,13.133 45.338,11.943 46.631,10.752 47.923,11.943 			"/>
		</g>
		<g>
			<polygon points="35.086,26.528 33.793,25.337 35.086,24.147 36.378,25.337 			"/>
		</g>
	</g>
</g>
</svg>
