<svg id="Layer_1" data-name="Layer 1" xmlns="http://www.w3.org/2000/svg" viewBox="0 0 50.46 50.46"><defs><style>.cls-1{fill:#12b5e1;}</style></defs><title>tambo</title><path class="cls-1" d="M23.7,25.05h0l-.09,0a.55.55,0,0,0-.56.52.61.61,0,0,0,.55.61h0l.14,0h0a.53.53,0,0,0,.52-.54A.62.62,0,0,0,23.7,25.05Z"/><path class="cls-1" d="M38.57,11.6a.89.89,0,0,0-1.11.6L35.72,18l-2.9-3.59V11.11h.68A.89.89,0,0,0,34.35,10l-1-3.46a.9.9,0,0,0-.86-.65H30a2.73,2.73,0,0,0-2.67-2.27H23.09a2.73,2.73,0,0,0-2.67,2.27H18a.9.9,0,0,0-.86.65l-1,3.46A.89.89,0,0,0,17,11.11h.68v3.26L14.74,18,13,12.2a.89.89,0,1,0-1.71.51L13.48,20V43.52a.88.88,0,0,0,.45.95,25.72,25.72,0,0,0,11.42,2.4A25.73,25.73,0,0,0,36.51,44.6a.89.89,0,0,0,.47-1V20.1a.78.78,0,0,0,0-.22l2.17-7.17A.9.9,0,0,0,38.57,11.6ZM23.09,4.78h4.28a1.53,1.53,0,0,1,1.45,1.08H21.64A1.53,1.53,0,0,1,23.09,4.78ZM18.63,7.65h13.2l.48,1.67H18.15Zm.6,7.6a1,1,0,0,0,.19-.56V11.11H31v3.58a.89.89,0,0,0,.2.56l3.51,4.34a25.61,25.61,0,0,1-9.39,1.64,25.4,25.4,0,0,1-9.57-1.71Zm16,28a25,25,0,0,1-9.84,1.84,24.54,24.54,0,0,1-10.08-1.95V24.37A23.73,23.73,0,0,0,22,26H22a.56.56,0,0,0,.06-1.12,22,22,0,0,1-6.83-1.8V21.23A27.32,27.32,0,0,0,25.35,23a27.28,27.28,0,0,0,9.84-1.69Z"/></svg>