<?xml version="1.0" encoding="utf-8"?>
<!-- Generator: Adobe Illustrator 24.1.0, SVG Export Plug-In . SVG Version: 6.00 Build 0)  -->
<svg version="1.1" id="Layer_1" xmlns="http://www.w3.org/2000/svg" xmlns:xlink="http://www.w3.org/1999/xlink" x="0px" y="0px"
	 viewBox="0 0 50.5 50.5" style="enable-background:new 0 0 50.5 50.5;" xml:space="preserve">
<g>
	<g>
		<g>
			<path d="M25.1,17.8c1.6,0,2.9,1.3,2.9,2.9c0,1.6-1.3,2.9-2.9,2.9s-2.9-1.3-2.9-2.9C22.2,19.1,23.5,17.8,25.1,17.8 M25.1,16.2
				c-2.5,0-4.5,2-4.5,4.5s2,4.5,4.5,4.5s4.5-2,4.5-4.5S27.6,16.2,25.1,16.2L25.1,16.2z"/>
		</g>
	</g>
	<g>
		<g>
			<path d="M25.2,34.2c-5.5,0-10.2-4.4-11-10.5c0-0.1,0-0.3,0-0.4c-0.1-0.6,0.2-1.3,0.6-1.7c0.4-0.5,1-0.7,1.7-0.7
				c0.8,0,1.5,0.5,1.7,1.2c1.2,3.2,4,5.3,7,5.4l0,0l0.1,0c3.1,0,5.8-2.1,7-5.4c0.3-0.7,1-1.2,1.7-1.2h0c0.6,0,1.2,0.3,1.7,0.7
				c0.4,0.5,0.6,1.1,0.6,1.7c0,0.2,0,0.3,0,0.4C35.4,29.8,30.8,34.2,25.2,34.2z M16.4,22.4c-0.2,0-0.4,0.1-0.5,0.2
				c-0.1,0.1-0.2,0.3-0.2,0.5c0,0.1,0,0.3,0,0.4c0.7,5.3,4.7,9.1,9.4,9.1c4.7,0,8.7-3.8,9.5-9.1c0-0.1,0-0.2,0-0.4
				c0-0.2,0-0.4-0.2-0.5c-0.2-0.2-0.6-0.3-0.7,0C32.4,26.5,29,29,25.2,29h-0.1c-3.8,0-7.1-2.5-8.5-6.4
				C16.6,22.5,16.5,22.4,16.4,22.4z"/>
		</g>
	</g>
</g>
<g>
	<path d="M40.9,39.1H9.6c-2.2,0-4-1.8-4-4V15.4c0-2.2,1.8-4,4-4h31.3c2.2,0,4,1.8,4,4v19.7C44.9,37.3,43.1,39.1,40.9,39.1z M9.6,13
		c-1.3,0-2.4,1.1-2.4,2.4v19.7c0,1.3,1.1,2.4,2.4,2.4h31.3c1.3,0,2.4-1.1,2.4-2.4V15.4c0-1.3-1.1-2.4-2.4-2.4H9.6z"/>
</g>
</svg>
