<?xml version="1.0" encoding="utf-8"?>
<!-- Generator: Adobe Illustrator 24.1.0, SVG Export Plug-In . SVG Version: 6.00 Build 0)  -->
<svg version="1.1" id="Layer_1" xmlns="http://www.w3.org/2000/svg" xmlns:xlink="http://www.w3.org/1999/xlink" x="0px" y="0px"
	 viewBox="0 0 50.5 50.5" style="enable-background:new 0 0 50.5 50.5;" xml:space="preserve">
<path d="M40.9,11.4H9.6c-2.2,0-4,1.8-4,4v19.7c0,2.2,1.8,4,4,4h31.3c2.2,0,4-1.8,4-4V15.4C44.9,13.2,43.1,11.4,40.9,11.4z
	 M25.1,16.2c2.5,0,4.5,2,4.5,4.5s-2,4.5-4.5,4.5s-4.5-2-4.5-4.5S22.6,16.2,25.1,16.2z M36.3,23.7c-0.9,6.1-5.5,10.5-11,10.5
	c-5.5,0-10.2-4.4-11-10.5c0-0.1,0-0.3,0-0.4c-0.1-0.6,0.2-1.3,0.6-1.7c0.4-0.5,1-0.7,1.7-0.7c0.8,0,1.5,0.5,1.7,1.2
	c1.2,3.2,4,5.3,7,5.4l0,0l0.1,0c3.1,0,5.8-2.1,7-5.4c0.3-0.7,1-1.2,1.7-1.2h0c0.6,0,1.2,0.3,1.7,0.7c0.4,0.5,0.6,1.1,0.6,1.7
	C36.3,23.4,36.3,23.6,36.3,23.7z"/>
</svg>
