<svg id="Layer_1" data-name="Layer 1" xmlns="http://www.w3.org/2000/svg" viewBox="0 0 50.46 50.46"><defs><style>.cls-1{fill:#65b4e1;}</style></defs><title>teatro archivo</title><path class="cls-1" d="M42.07,10.5H32.74a1.1,1.1,0,0,0-1.07,1.13v3c0,.57-.34,1.08-.72,1.08H19.51c-.38,0-.72-.5-.72-1.08v-3a1.1,1.1,0,0,0-1.07-1.13H8.39a.77.77,0,0,0-.77.77V42.35a3.25,3.25,0,0,0,3,3.47H39.89a3.25,3.25,0,0,0,3-3.47V11.27A.77.77,0,0,0,42.07,10.5ZM41.3,42.35c0,1-.65,1.92-1.41,1.92H10.57c-.76,0-1.41-.88-1.41-1.92V12h8.08v2.58a2.47,2.47,0,0,0,2.27,2.62H31a2.47,2.47,0,0,0,2.27-2.62V12H41.3Z"/><path class="cls-1" d="M33.15,33a1.15,1.15,0,0,0-.74-1c-1-.45-1.4.2-1.4.64s.38.61,1,.76S33,33.42,33.15,33Z"/><path class="cls-1" d="M25.75,24.32c-.73-1.36-1.37-1-2.52-.31a16,16,0,0,1-5.42,1.36c-1.33-.05-2.08-.09-2.09,1.45s.87,6.62,3.62,8.44,4.07,1.29,4.23,1.24a6.85,6.85,0,0,0,2.92-3C28.06,30.59,26.48,25.68,25.75,24.32ZM23.11,27.4a1.28,1.28,0,0,1,1.57.41c.17.41-.3.72-.92,1s-1.2.53-1.4-.06A1.19,1.19,0,0,1,23.11,27.4Zm-4.79,2c0-.44.61-1,1.28-1a1.19,1.19,0,0,1,1.22.93c0,.62-.59.6-1.26.6S18.33,29.81,18.32,29.36Zm4.42,4.88a2.73,2.73,0,0,1-2.8-1.06c-.25-.49.2-.23.2-.23a5.59,5.59,0,0,0,2.36,0,5.49,5.49,0,0,0,2.05-1s.29-.43.27.12A2.64,2.64,0,0,1,22.75,34.24Z"/><path class="cls-1" d="M29.75,32.29c.16-.41,0-1.17-1.08-1.09a1.35,1.35,0,0,0-.69.24,8.46,8.46,0,0,1-.17,1,1.51,1.51,0,0,0,.71.23C29.17,32.72,29.59,32.7,29.75,32.29Z"/><path class="cls-1" d="M27.74,27.25c.09.48.17,1,.22,1.46a15.28,15.28,0,0,0,2.83.71,13.52,13.52,0,0,0,3.26.21h0c.24,0,.55-.07.75-.08,0,.05,0,.13,0,.22a13.65,13.65,0,0,1-.39,3.76,10.45,10.45,0,0,1-.8,2.27,4.72,4.72,0,0,1-1.22,1.59,7,7,0,0,1-2.29,1.23,3.73,3.73,0,0,1-.73.15,1.67,1.67,0,0,1-.56-.23,6.46,6.46,0,0,1-1.88-2,4.23,4.23,0,0,1-.56-1.34,9.88,9.88,0,0,1-1,1.11,4.86,4.86,0,0,0,.48.92C27.77,40,29.2,40,29.36,40a4,4,0,0,0,1.15-.21,8.17,8.17,0,0,0,2.71-1.45c2.58-2,3-7.18,2.88-8.71s-.88-1.43-2.21-1.26a16,16,0,0,1-5.52-.85Z"/><path class="cls-1" d="M27.8,36.31a4.44,4.44,0,0,1,1.88-.08,4.53,4.53,0,0,1,1.78.78s.25.35.23-.11a2.25,2.25,0,0,0-1.75-1.76,2.17,2.17,0,0,0-2.3,1C27.44,36.54,27.8,36.31,27.8,36.31Z"/><path class="cls-1" d="M14.4,9a.68.68,0,0,0,.67-.67V6H35.38V8.29a.67.67,0,0,0,1.35,0v-3a.68.68,0,0,0-.67-.67H14.4a.68.68,0,0,0-.67.67v3A.68.68,0,0,0,14.4,9Z"/></svg>