<svg id="Layer_1" data-name="Layer 1" xmlns="http://www.w3.org/2000/svg" viewBox="0 0 50.46 50.46"><defs><style>.cls-1{fill:#12b5e1;}</style></defs><title>tecnovigilancia</title><path class="cls-1" d="M45.93,43l-7-7.77A9.1,9.1,0,0,1,36,37.8l7,7.76A2,2,0,0,0,45.93,43Z"/><path class="cls-1" d="M39.11,30.05a7.81,7.81,0,1,0-8.24,7.36A7.82,7.82,0,0,0,39.11,30.05ZM31,35.46a5.86,5.86,0,1,1,6.18-5.52A5.87,5.87,0,0,1,31,35.46Z"/><path class="cls-1" d="M31.31,25.51a3.89,3.89,0,0,0-4.1,3.66.63.63,0,1,0,1.26.07,2.63,2.63,0,0,1,2.77-2.47.63.63,0,0,0,.67-.59A.64.64,0,0,0,31.31,25.51Z"/><path class="cls-1" d="M24.35,36H6.56a.18.18,0,0,1-.17-.18v-29a.18.18,0,0,1,.17-.18H37a.18.18,0,0,1,.18.18V22.46a8.87,8.87,0,0,1,2,2.59c.13.23.23.47.35.71v-19A2.54,2.54,0,0,0,37,4.24H6.56A2.53,2.53,0,0,0,4,6.77v29a2.52,2.52,0,0,0,2.52,2.53H27.13A7.8,7.8,0,0,1,24.35,36Z"/><path class="cls-1" d="M34.61,20.78V9a.67.67,0,0,0-.67-.67H9.66A.67.67,0,0,0,9,9V27.72a.68.68,0,0,0,.67.68H21.84a8.67,8.67,0,0,1,.24-1.35H10.34V18.9h6.07a.67.67,0,0,0,.6-.37l.68-1.36,2.14,5.35a.67.67,0,0,0,.62.43h.05a.67.67,0,0,0,.61-.51l2.13-8.54,2,5.9a.68.68,0,0,0,1.28,0l.83-2.5.62,1.24a.68.68,0,0,0,.61.37h4.72v1.44A8.75,8.75,0,0,1,34.61,20.78ZM29,17.55,27.8,15.23a.67.67,0,0,0-1.24.08l-.71,2.13-2.06-6.17a.67.67,0,0,0-1.29.05l-2.19,8.76-1.93-4.8a.67.67,0,0,0-.6-.43.68.68,0,0,0-.63.38L16,17.55H10.34V9.7H33.27v7.85Z"/><path class="cls-1" d="M9,31.77a2,2,0,1,0,2-2A2,2,0,0,0,9,31.77Zm2.7,0a.68.68,0,0,1-.68.67.67.67,0,0,1-.67-.67.68.68,0,0,1,.67-.68A.69.69,0,0,1,11.69,31.77Z"/><path class="cls-1" d="M15.73,31.77a2,2,0,1,0,2-2A2,2,0,0,0,15.73,31.77Zm2.7,0a.68.68,0,0,1-1.35,0,.68.68,0,1,1,1.35,0Z"/></svg>