<?xml version="1.0" encoding="utf-8"?>
<!-- Generator: Adobe Illustrator 26.5.1, SVG Export Plug-In . SVG Version: 6.00 Build 0)  -->
<svg version="1.1" id="Layer_1" xmlns="http://www.w3.org/2000/svg" xmlns:xlink="http://www.w3.org/1999/xlink" x="0px" y="0px"
	 viewBox="0 0 50.5 50.5" style="enable-background:new 0 0 50.5 50.5;" xml:space="preserve">
<g>
	<path d="M21.07,32.238c-0.455,0.462-0.704,1.073-0.699,1.723c0.004,0.648,0.262,1.257,0.724,1.712
		c0.036,0.034,0.075,0.065,0.117,0.093c0.457,0.4,1.032,0.602,1.61,0.602c0.631,0,1.266-0.239,1.757-0.72
		c0.94-0.954,0.929-2.495-0.024-3.434C23.601,31.269,22.048,31.269,21.07,32.238z M23.432,34.531
		c-0.333,0.322-0.871,0.323-1.201-0.001c-0.023-0.022-0.048-0.044-0.074-0.063c-0.12-0.146-0.186-0.326-0.187-0.518
		c-0.001-0.222,0.083-0.431,0.249-0.599c0.333-0.33,0.876-0.331,1.211,0.001C23.756,33.673,23.76,34.199,23.432,34.531z"/>
	<path d="M40.006,8.874c0-1.004-0.816-1.82-1.819-1.82c-1.004,0-1.82,0.816-1.82,1.82c0,0.715,0.419,1.329,1.021,1.627v11.1
		l-3.904,3.904c-0.15,0.15-0.234,0.354-0.234,0.566v3.949h-2.934v-5.031l2.971-2.972c0.15-0.15,0.234-0.354,0.234-0.565v-5.647
		c0.602-0.297,1.021-0.911,1.021-1.627c0-1.003-0.816-1.82-1.82-1.82c-1.003,0-1.819,0.816-1.819,1.82
		c0,0.715,0.418,1.329,1.02,1.627v5.316l-2.971,2.972c-0.15,0.15-0.234,0.354-0.234,0.565v5.363h-0.999
		c-0.043,0-0.086,0.003-0.128,0.01l-0.181,0.029c-0.27,0.044-0.498,0.222-0.606,0.472s-0.082,0.539,0.07,0.765
		c1.259,1.871,1.021,4.396-0.612,6.053c-1.879,1.838-4.937,1.838-6.817,0c-0.047-0.046-0.105-0.086-0.169-0.119
		c-1.754-1.855-1.735-4.793,0.121-6.676c1.415-1.401,3.514-1.804,5.346-1.021c0.249,0.124,0.542,0.11,0.778-0.035
		s0.379-0.403,0.379-0.681v-4.488v-1.764V18.14c0-0.212-0.084-0.416-0.234-0.566l-3.404-3.404V8.462
		c0.604-0.296,1.024-0.912,1.024-1.629c0-1.003-0.816-1.82-1.82-1.82s-1.82,0.816-1.82,1.82c0,0.713,0.417,1.326,1.016,1.624v6.045
		c0,0.212,0.084,0.416,0.234,0.566l3.404,3.404v3.246h-4.163c-0.62,0-1.125,0.504-1.125,1.125v2.131
		c-0.186,0.074-0.37,0.155-0.551,0.241l-1.557-1.447c-0.21-0.214-0.491-0.334-0.791-0.337c-0.293,0.009-0.584,0.111-0.826,0.349
		l-3.038,3.223c-0.215,0.21-0.335,0.491-0.338,0.792c-0.003,0.294,0.105,0.571,0.307,0.784c0.014,0.016,0.029,0.031,0.045,0.046
		l1.564,1.454c-0.072,0.164-0.14,0.33-0.202,0.499h-2.162c-0.136,0-0.269,0.034-0.388,0.101c-0.442,0.244-0.659,0.757-0.551,1.234
		v4.521c0,0.441,0.358,0.8,0.8,0.8h2.409c0.073,0.184,0.153,0.365,0.238,0.544l-1.446,1.518c-0.438,0.432-0.447,1.137-0.024,1.579
		c0.012,0.013,0.024,0.025,0.037,0.037l3.224,3.04c0.393,0.399,1.011,0.444,1.479,0.104l0,0.001
		c0.049-0.033,0.095-0.071,0.136-0.114l1.469-1.543c0.177,0.071,0.356,0.137,0.538,0.197v2.093c0,0.441,0.358,0.8,0.8,0.8h4.87
		c0.62,0,1.125-0.505,1.125-1.125v-2.131c0.186-0.074,0.369-0.154,0.551-0.24l1.556,1.446c0.211,0.215,0.492,0.335,0.794,0.338
		c0.314,0.015,0.584-0.111,0.799-0.322c0.009-0.009,0.018-0.018,0.025-0.026l2.968-3.147c0.09-0.056,0.172-0.124,0.243-0.203
		c0.294-0.324,0.272-0.824-0.048-1.123l-1.563-1.455c0.071-0.164,0.139-0.33,0.201-0.499h2.162c0.099,0,0.197-0.019,0.289-0.054
		c0.515-0.2,0.8-0.741,0.696-1.266v-2.721v-1.814v-4.743l3.904-3.904c0.15-0.15,0.234-0.354,0.234-0.566V10.5
		C39.588,10.203,40.006,9.589,40.006,8.874z M33.248,35.399h-2.122c-0.354,0-0.664,0.231-0.766,0.569
		c-0.141,0.466-0.324,0.919-0.547,1.346c-0.166,0.319-0.099,0.71,0.165,0.955l1.377,1.281l-2.291,2.432l-1.66-1.545
		c-0.252-0.234-0.631-0.281-0.932-0.114c-0.432,0.238-0.885,0.437-1.349,0.59c-0.328,0.108-0.549,0.415-0.549,0.76v2.215H20.98
		v-1.891c0-0.364-0.246-0.683-0.599-0.774c-0.476-0.124-0.943-0.294-1.389-0.505c-0.312-0.147-0.684-0.079-0.923,0.171l-1.525,1.603
		l-2.56-2.414l1.534-1.609c0.242-0.253,0.29-0.635,0.12-0.94c-0.237-0.428-0.436-0.88-0.589-1.346
		c-0.108-0.328-0.414-0.55-0.76-0.55h-2.168v-3.456h2.076c0.354,0,0.665-0.231,0.766-0.57c0.14-0.464,0.323-0.916,0.546-1.344
		c0.167-0.319,0.099-0.711-0.165-0.956l-1.638-1.522l2.413-2.56l1.66,1.544c0.254,0.235,0.631,0.283,0.933,0.114
		c0.429-0.237,0.882-0.437,1.348-0.59c0.328-0.108,0.549-0.415,0.549-0.76v-2.215h3.688v1.011v3.379
		c-2.147-0.504-4.419,0.114-6.018,1.697c-0.006,0.006-0.07,0.07-0.077,0.076c-2.465,2.502-2.436,6.543,0.066,9.009
		c0.053,0.053,0.118,0.097,0.19,0.131c2.505,2.312,6.468,2.267,8.987-0.196c1.789-1.816,2.292-4.507,1.391-6.805h4.411v1.34V35.399z
		"/>
</g>
</svg>
