<?xml version="1.0" encoding="utf-8"?>
<!-- Generator: Adobe Illustrator 24.2.1, SVG Export Plug-In . SVG Version: 6.00 Build 0)  -->
<svg version="1.1" id="Capa_1" xmlns="http://www.w3.org/2000/svg" xmlns:xlink="http://www.w3.org/1999/xlink" x="0px" y="0px"
	 viewBox="0 0 50.5 50.5" style="enable-background:new 0 0 50.5 50.5;" xml:space="preserve">
<path d="M49.594,21.048L38.508,6.331c-0.239-0.317-0.677-0.401-1.016-0.197l-12.027,7.239l-4.259-2.475
	c-0.054-0.038-0.107-0.075-0.17-0.099l-8.039-4.672c-0.337-0.196-0.77-0.11-1.005,0.203L0.906,21.048
	c-0.239,0.316-0.199,0.762,0.092,1.031l23.95,22.192c0.148,0.137,0.337,0.205,0.525,0.205c0.191,0,0.381-0.07,0.53-0.21
	l23.505-22.191C49.794,21.805,49.831,21.362,49.594,21.048z M43.714,15.81v9.609l-3.197,3.018V11.566L43.714,15.81z M37.694,7.816
	l1.28,1.699v20.379l-3.198,3.019V8.97L37.694,7.816z M21.542,12.88l3.196,1.857v27.234l-3.196-2.961V12.88z M19.997,37.578
	l-3.206-2.971V10.119l3.206,1.863V37.578z M26.283,14.684l3.197-1.924v26.098l-3.197,3.018V14.684z M31.024,11.831L34.232,9.9
	v24.472L31.024,37.4V11.831z M12.814,7.808l2.432,1.413v23.954l-3.187-2.953V8.81L12.814,7.808z M10.513,28.79l-3.08-2.854V14.951
	l3.08-4.089V28.79z M5.888,17.002v7.502L2.56,21.421L5.888,17.002z M45.259,23.961V17.86l2.686,3.566L45.259,23.961z"/>
</svg>
