<?xml version="1.0" encoding="utf-8"?>
<!-- Generator: Adobe Illustrator 23.1.1, SVG Export Plug-In . SVG Version: 6.00 Build 0)  -->
<svg version="1.1" id="Layer_1" xmlns="http://www.w3.org/2000/svg" xmlns:xlink="http://www.w3.org/1999/xlink" x="0px" y="0px"
	 viewBox="0 0 50.5 50.5" style="enable-background:new 0 0 50.5 50.5;" xml:space="preserve">
<style type="text/css">
	.st0{fill:#12B5E1;}
</style>
<path class="st0" d="M35.9,6.4c-0.5-0.5-1.2-0.8-2-0.8s-1.4,0.3-2,0.8c-0.5,0.5-0.8,1.2-0.7,2L33,19.9c0.1,0.4,0.4,0.7,0.9,0.7h0.1
	c0.4,0,0.8-0.3,0.9-0.7l1.8-11.6l0,0C36.7,7.6,36.4,6.9,35.9,6.4z"/>
<circle class="st0" cx="34" cy="23.9" r="2.2"/>
<g>
	<path class="st0" d="M38,39.8c-0.1-0.1-0.2-0.3-0.4-0.4c-1.6-1.6-3.2-3.2-4.8-4.8c-1.4-1.5-3.7-1.6-5.2-0.3
		c-0.1,0.1-0.2,0.2-0.3,0.3c-0.9,0.9-1.9,1.9-2.9,2.9l-0.7-0.3c-0.4-0.2-0.8-0.4-1.1-0.6c-2.8-1.8-5.2-4-7.2-6.6
		c-1-1.2-1.9-2.6-2.5-4c0.8-0.8,1.7-1.7,2.5-2.5l0.4-0.4c1.5-1.3,1.7-3.6,0.4-5.2c-0.1-0.1-0.3-0.3-0.4-0.4l-3.1-3.1L11,12.8
		c-1.4-1.5-3.8-1.6-5.3-0.1c0,0-0.1,0.1-0.1,0.1L4.4,14c-0.6,0.6-1.2,1.2-1.8,1.8c-1.1,1-1.7,2.4-1.8,3.8c-0.1,2.2,0.3,4.3,1.1,6.3
		c1.5,4,3.7,7.7,6.6,11c2.5,3,5.4,5.6,8.6,7.8c0.9,0.6,1.9,1.2,2.8,1.7c0.1,0.1,0.3,0.1,0.4,0.1c0.3,0,0.6-0.2,0.7-0.4
		c0.2-0.4,0.1-0.9-0.3-1.1c0,0,0,0,0,0c-0.9-0.5-1.9-1.1-2.7-1.7c-3.1-2.1-5.9-4.6-8.3-7.4C7.1,32.7,5,29.2,3.5,25.3
		c-0.8-1.8-1.1-3.7-1-5.6c0.1-1,0.5-2,1.3-2.7c0.3-0.3,0.6-0.6,0.9-0.9c0.5,0.8,1.4,2,2.6,3.4c0.3,0.4,0.8,0.4,1.2,0.1c0,0,0,0,0,0
		c0.4-0.3,0.4-0.8,0.1-1.2c-0.9-1.1-1.8-2.3-2.6-3.5L6.8,14c0.7-0.9,2-1,2.8-0.3c0.1,0.1,0.2,0.2,0.3,0.3l1.6,1.6l3.1,3.1
		c0.9,0.7,1,1.9,0.4,2.8c-0.1,0.1-0.2,0.3-0.4,0.4l-0.4,0.4c-0.9,0.9-1.7,1.7-2.6,2.5c-0.5,0.4-0.6,1.1-0.3,1.7
		c0.7,1.6,1.7,3.1,2.8,4.5c2.2,2.7,4.7,5.1,7.7,7c0.4,0.3,0.8,0.5,1.2,0.7l0.7,0.4c0.6,0.4,1.4,0.3,1.9-0.3c0.9-1,1.9-2,3-3
		c0.7-0.8,1.9-1,2.8-0.3c0.1,0.1,0.2,0.2,0.3,0.3c1.6,1.6,3.2,3.2,4.8,4.8c0.9,0.7,1,2,0.3,2.8c-0.1,0.1-0.2,0.2-0.3,0.3
		c-0.3,0.3-0.6,0.6-0.9,0.9c-0.6,0.6-1.2,1.2-1.8,1.9c-1,1.1-2.5,1.6-3.9,1.5c-1.6-0.1-3.3-0.5-4.8-1.1c-0.4-0.2-0.9,0-1.1,0.4
		c-0.2,0.4,0,0.9,0.4,1.1c0,0,0.1,0,0.1,0c1.7,0.7,3.5,1.1,5.3,1.2h0.5c1.8,0.1,3.6-0.7,4.8-2c0.5-0.6,1.1-1.2,1.7-1.8
		c0.3-0.3,0.6-0.6,0.9-0.9C39.2,43.6,39.3,41.3,38,39.8z"/>
	<path class="st0" d="M22.8,46L22.8,46L22.8,46c-0.5-0.2-1-0.1-1.2,0.3c-0.2,0.4-0.1,0.9,0.3,1.1c0,0,0,0,0.1,0h0.1
		c0.1,0,0.1,0.1,0.2,0.1h0.2c0.5,0,0.8-0.4,0.8-0.8C23.3,46.4,23.1,46.1,22.8,46z"/>
	<path class="st0" d="M10.2,20.3C9.8,20,9.3,20,9,20.3c-0.3,0.3-0.4,0.9,0,1.2L9,21.6l0.2,0.1l0.2,0.1c0.3,0.1,0.6,0,0.9-0.2
		c0.4-0.3,0.4-0.8,0.1-1.2C10.3,20.4,10.2,20.4,10.2,20.3L10.2,20.3z"/>
</g>
<path class="st0" d="M35.3,2.4c0.8,0.1,1.6,0.2,2.4,0.4c7.3,1.8,11.8,9.2,10,16.5C46.1,25.7,40,30,33.6,29.5
	c-0.8-0.1-1.6-0.2-2.4-0.4c-0.8-0.2-1.6-0.5-2.3-0.8c0,0,0,0,0,0c-0.8-0.4-1.5-0.8-2.3-1.3l-3.5,1.1c-0.1,0-0.1,0-0.2,0
	c0,0-0.1,0-0.1,0c-0.3-0.1-0.5-0.4-0.4-0.7l0.9-3.7c-0.2-0.2-0.4-0.7-0.4-0.7c-1.9-3-2.6-6.7-1.7-10.4C22.8,6.2,28.9,2,35.3,2.4
	 M35.4,0.8c-7.4-0.5-14,4.4-15.7,11.5c-1,4-0.4,8,1.8,11.5c0,0.1,0.1,0.2,0.1,0.3l-0.8,3c-0.1,0.6-0.1,1.1,0.3,1.6
	c0.3,0.5,0.8,0.8,1.3,1c0.1,0,0.3,0.1,0.4,0.1c0.3,0,0.6,0,0.8-0.1l2.7-0.9c0.6,0.4,1.2,0.7,1.8,1c0,0,0.1,0,0.1,0.1
	c0.8,0.4,1.6,0.6,2.5,0.8c0.9,0.2,1.8,0.4,2.7,0.4c7.4,0.5,14-4.4,15.7-11.5c1-3.9,0.4-8-1.8-11.5c-2.1-3.5-5.4-5.9-9.4-6.9
	C37.2,1,36.3,0.8,35.4,0.8L35.4,0.8z"/>
</svg>
