<svg id="Layer_1" data-name="Layer 1" xmlns="http://www.w3.org/2000/svg" viewBox="0 0 50.46 50.46"><defs><style>.cls-1{fill:#65b4e1;}</style></defs><title>televisor</title><path class="cls-1" d="M45.43,10.11a1.88,1.88,0,0,0-1.36-.57H6.39a1.84,1.84,0,0,0-1.84,1.84V34.77A1.84,1.84,0,0,0,6.39,36.6H17.53v2.08h-4a1.12,1.12,0,0,0,0,2.24H36.92a1.12,1.12,0,1,0,0-2.24h-4V36.6H44.07a1.84,1.84,0,0,0,1.84-1.84V11.39A1.73,1.73,0,0,0,45.43,10.11ZM30.66,36.6v2.08H19.76V36.6Zm13-24.82V34.37H6.79V11.78Z"/></svg>