<?xml version="1.0" encoding="utf-8"?>
<!-- Generator: Adobe Illustrator 23.1.1, SVG Export Plug-In . SVG Version: 6.00 Build 0)  -->
<svg version="1.1" id="Layer_1" xmlns="http://www.w3.org/2000/svg" xmlns:xlink="http://www.w3.org/1999/xlink" x="0px" y="0px"
	 viewBox="0 0 50.5 50.5" style="enable-background:new 0 0 50.5 50.5;" xml:space="preserve">
<style type="text/css">
	.st0{fill:#12B5E1;}
</style>
<g>
	<path class="st0" d="M37.8,38.9c-1.6-1.6-3.2-3.2-4.8-4.8c-1.4-1.5-3.7-1.6-5.2-0.3c-0.1,0.1-0.2,0.2-0.3,0.3
		C26.6,35,25.7,36,24.7,37L24,36.6c-0.4-0.2-0.8-0.4-1.1-0.6c-2.8-1.8-5.2-4-7.2-6.6c-1-1.2-1.9-2.6-2.5-4c0.8-0.8,1.7-1.7,2.5-2.5
		l0.4-0.4c1.5-1.3,1.7-3.6,0.4-5.2c-0.1-0.1-0.3-0.3-0.4-0.4l-3.1-3.1l-1.6-1.6c-1.4-1.5-3.8-1.6-5.3-0.1c0,0-0.1,0.1-0.1,0.1
		l-1.2,1.2c-0.6,0.6-1.2,1.2-1.8,1.8c-1.1,1-1.7,2.4-1.8,3.8c-0.1,2.2,0.3,4.3,1.1,6.3c1.5,4,3.7,7.7,6.6,11c2.5,3,5.4,5.6,8.6,7.8
		c0.9,0.6,1.9,1.2,2.8,1.7c0.1,0.1,0.3,0.1,0.4,0.1c0.3,0,0.6-0.2,0.7-0.4c0.2-0.4,0.1-0.9-0.3-1.1c0,0,0,0,0,0
		c-0.9-0.5-1.9-1.1-2.7-1.7c-3.1-2.1-5.9-4.6-8.3-7.4c-2.7-3.1-4.8-6.7-6.2-10.5c-0.8-1.8-1.1-3.7-1-5.6c0.1-1,0.5-2,1.3-2.7
		c0.3-0.3,0.6-0.6,0.9-0.9c0.5,0.8,1.4,2,2.6,3.4c0.3,0.4,0.8,0.4,1.2,0.1c0,0,0,0,0,0c0.4-0.3,0.4-0.8,0.1-1.2
		c-0.9-1.1-1.8-2.3-2.6-3.5L7,13.5c0.7-0.9,2-1,2.8-0.3c0.1,0.1,0.2,0.2,0.3,0.3l1.6,1.6l3.1,3.1c0.9,0.7,1,1.9,0.4,2.8
		c-0.1,0.1-0.2,0.3-0.4,0.4l-0.4,0.4c-0.9,0.9-1.7,1.7-2.6,2.5c-0.5,0.4-0.6,1.1-0.3,1.7c0.7,1.6,1.7,3.1,2.8,4.5
		c2.2,2.7,4.7,5.1,7.7,7c0.4,0.3,0.8,0.5,1.2,0.7l0.7,0.4c0.6,0.4,1.4,0.3,1.9-0.3c0.9-1,1.9-2,3-3c0.7-0.8,1.9-1,2.8-0.3
		c0.1,0.1,0.2,0.2,0.3,0.3c1.6,1.6,3.2,3.2,4.8,4.8c0.9,0.7,1,2,0.3,2.8c-0.1,0.1-0.2,0.2-0.3,0.3c-0.3,0.3-0.6,0.6-0.9,0.9
		c-0.6,0.6-1.2,1.2-1.8,1.9c-1,1.1-2.5,1.6-3.9,1.5c-1.6-0.1-3.3-0.5-4.8-1.1c-0.4-0.2-0.9,0-1.1,0.4c-0.2,0.4,0,0.9,0.4,1.1
		c0,0,0.1,0,0.1,0c1.7,0.7,3.5,1.1,5.3,1.2h0.5c1.8,0.1,3.6-0.7,4.8-2c0.5-0.6,1.1-1.2,1.7-1.8c0.3-0.3,0.6-0.6,0.9-0.9
		c1.5-1.3,1.7-3.7,0.3-5.2C38.1,39.1,37.9,39,37.8,38.9z"/>
	<path class="st0" d="M23,45.5L23,45.5L23,45.5c-0.5-0.2-1-0.1-1.2,0.3c-0.2,0.4-0.1,0.9,0.3,1.1c0,0,0,0,0.1,0h0.1
		c0.1,0,0.1,0.1,0.2,0.1h0.2c0.5,0,0.8-0.4,0.8-0.8C23.5,45.9,23.3,45.6,23,45.5z"/>
	<path class="st0" d="M10.4,19.8c-0.3-0.3-0.8-0.4-1.2,0c-0.3,0.3-0.4,0.9,0,1.2L9.2,21l0.2,0.1l0.2,0.1c0.3,0.1,0.6,0,0.9-0.2
		c0.4-0.3,0.4-0.8,0.1-1.2C10.5,19.9,10.4,19.8,10.4,19.8L10.4,19.8z"/>
	<path class="st0" d="M20.8,16.9c0,0.3,0.2,0.5,0.4,0.7c0.2,0.2,0.5,0.3,0.7,0.2c5.1-0.5,9.5,3.2,10,8.3c0,0.5,0.1,0.9,0,1.4
		c0,0.6,0.4,1,1,1.1s1-0.4,1.1-1c0.3-6.2-4.4-11.5-10.6-11.8c-0.6,0-1.1,0-1.7,0l0,0C21.2,15.9,20.8,16.4,20.8,16.9z"/>
	<path class="st0" d="M24.3,8.8c-1.1-0.1-2.2-0.1-3.3,0l0,0c-0.6,0.1-1,0.6-0.9,1.1c0.1,0.6,0.6,1,1.1,0.9c9-0.9,17,5.6,17.9,14.5
		c0.1,1,0.1,2,0,3c0,0.6,0.4,1,0.9,1.1c0.6,0,1-0.4,1.1-0.9C41.9,18.4,34.3,9.6,24.3,8.8z"/>
</g>
</svg>
