<?xml version="1.0" encoding="utf-8"?>
<!-- Generator: Adobe Illustrator 23.1.1, SVG Export Plug-In . SVG Version: 6.00 Build 0)  -->
<svg version="1.1" id="Layer_1" xmlns="http://www.w3.org/2000/svg" xmlns:xlink="http://www.w3.org/1999/xlink" x="0px" y="0px"
	 viewBox="0 0 50.5 50.5" style="enable-background:new 0 0 50.5 50.5;" xml:space="preserve">
<style type="text/css">
	.st0{fill:#12B5E1;}
</style>
<path class="st0" d="M36.9,40c-1.6-1.6-3.2-3.2-4.8-4.8c-1-1.2-2.8-1.3-4-0.3c-0.1,0.1-0.2,0.2-0.3,0.3c-1,1-2,2-3,3
	c-0.2,0.3-0.6,0.3-0.8,0.2c0,0,0,0,0,0c-0.6-0.4-1.3-0.6-2-1c-2.9-1.8-5.4-4.1-7.5-6.8c-1.1-1.3-2-2.8-2.6-4.3
	c-0.1-0.3-0.1-0.6,0.2-0.8c1-0.9,2-2,3-3c1.2-1,1.4-2.8,0.4-4c-0.1-0.2-0.3-0.3-0.4-0.4l-2.3-2.4c-0.8-0.8-1.6-1.6-2.4-2.4
	c-1-1.2-2.8-1.3-4-0.3c-0.1,0.1-0.2,0.2-0.3,0.3c-1,1-2,2-3,3c-0.9,0.9-1.5,2-1.5,3.3c-0.1,2.1,0.3,4.1,1.1,6
	c1.5,3.9,3.7,7.6,6.5,10.8c3.6,4.4,8.2,7.9,13.3,10.4c2.3,1.2,4.8,1.9,7.3,2.1c1.7,0.2,3.4-0.5,4.6-1.7c0.9-0.9,1.8-1.9,2.7-2.8
	c1.2-1,1.4-2.8,0.4-4C37.1,40.2,37,40.1,36.9,40z"/>
<path class="st0" d="M37.9,3.2c-0.8-0.2-1.6-0.4-2.4-0.4C29,2.2,22.9,6.2,21.1,12.7c-1,3.7-0.4,7.4,1.4,10.5c0,0,0.2,0.5,0.4,0.7
	l-1,3.7c-0.1,0.3,0.1,0.6,0.4,0.7c0,0,0.1,0,0.1,0c0.1,0,0.1,0,0.2,0l3.5-1c0.7,0.5,1.4,1,2.2,1.3c0,0,0,0,0,0
	c0.7,0.4,1.5,0.6,2.3,0.9c0.8,0.2,1.6,0.4,2.4,0.4c6.4,0.6,12.6-3.5,14.3-9.9C49.4,12.7,45.1,5.2,37.9,3.2z M42.3,18
	c0,0.6-0.5,1.1-1.1,1.1h-3.8c-0.2,0-0.5,0.2-0.5,0.5v3.8c0,0.6-0.5,1.1-1.1,1.1h-3.7c-0.6,0-1.1-0.5-1.1-1.1v-3.8
	c0-0.2-0.2-0.5-0.5-0.5h-3.8c-0.6,0-1.1-0.5-1.1-1.1v-3.7c0-0.6,0.5-1.1,1.1-1.1h3.8c0.2,0,0.5-0.2,0.5-0.5V9c0-0.6,0.5-1.1,1.1-1.1
	h3.7C36.5,8,37,8.5,37,9v3.8c0,0.2,0.2,0.5,0.5,0.5h3.8c0.6,0,1.1,0.5,1.1,1.1V18z"/>
</svg>
