<?xml version="1.0" encoding="utf-8"?>
<!-- Generator: Adobe Illustrator 23.1.1, SVG Export Plug-In . SVG Version: 6.00 Build 0)  -->
<svg version="1.1" id="Layer_1" xmlns="http://www.w3.org/2000/svg" xmlns:xlink="http://www.w3.org/1999/xlink" x="0px" y="0px"
	 viewBox="0 0 50.5 50.5" style="enable-background:new 0 0 50.5 50.5;" xml:space="preserve">
<style type="text/css">
	.st0{fill:#12B5E1;}
</style>
<g>
	<path class="st0" d="M37.4,39.5c-1.6-1.6-3.2-3.2-4.8-4.8c-1-1.2-2.8-1.3-4-0.3c-0.1,0.1-0.2,0.2-0.3,0.3c-1,1-2,2-3,3
		c-0.2,0.3-0.6,0.3-0.8,0.2c0,0,0,0,0,0c-0.6-0.4-1.3-0.6-2-1C19.7,35,17.2,32.7,15,30c-1.1-1.3-2-2.8-2.6-4.3
		c-0.1-0.3-0.1-0.6,0.2-0.8c1-0.9,2-2,3-3c1.2-1,1.4-2.8,0.4-4c-0.1-0.2-0.3-0.3-0.4-0.4l-2.3-2.4c-0.8-0.8-1.6-1.6-2.4-2.4
		c-1-1.2-2.8-1.3-4-0.3c-0.1,0.1-0.2,0.2-0.3,0.3c-1,1-2,2-3,3c-0.9,0.9-1.5,2-1.5,3.3c-0.1,2.1,0.3,4.1,1.1,6
		c1.5,3.9,3.7,7.6,6.5,10.8c3.6,4.4,8.2,7.9,13.3,10.4c2.3,1.2,4.8,1.9,7.3,2.1c1.7,0.2,3.4-0.5,4.6-1.7c0.9-0.9,1.8-1.9,2.7-2.8
		c1.2-1,1.4-2.8,0.4-4C37.7,39.8,37.6,39.6,37.4,39.5z"/>
	<path class="st0" d="M22.9,17c0,0.3,0.2,0.5,0.4,0.7c0.2,0.2,0.5,0.3,0.7,0.2c5.1-0.5,9.5,3.2,10,8.3c0,0.5,0.1,0.9,0,1.4
		c0,0.6,0.4,1,1,1.1c0.6,0,1-0.4,1.1-1c0.3-6.2-4.4-11.5-10.6-11.8c-0.6,0-1.1,0-1.7,0l0,0C23.3,16,22.9,16.5,22.9,17z"/>
	<path class="st0" d="M26.4,8.9c-1.1-0.1-2.2-0.1-3.3,0l0,0c-0.6,0.1-1,0.6-0.9,1.1c0.1,0.6,0.6,1,1.1,0.9c9-0.9,17,5.6,17.9,14.5
		c0.1,1,0.1,2,0,3c0,0.6,0.4,1,0.9,1.1c0.6,0,1-0.4,1.1-0.9C44,18.5,36.5,9.6,26.4,8.9z"/>
</g>
</svg>
