<?xml version="1.0" encoding="utf-8"?>
<!-- Generator: Adobe Illustrator 23.1.1, SVG Export Plug-In . SVG Version: 6.00 Build 0)  -->
<svg version="1.1" id="Layer_1" xmlns="http://www.w3.org/2000/svg" xmlns:xlink="http://www.w3.org/1999/xlink" x="0px" y="0px"
	 viewBox="0 0 50.5 50.5" style="enable-background:new 0 0 50.5 50.5;" xml:space="preserve">
<style type="text/css">
	.st0{fill:#12B5E1;}
</style>
<g>
	<path class="st0" d="M36.3,40.1c-1.6-1.6-3.2-3.2-4.8-4.8c-1-1.2-2.8-1.3-4-0.3c-0.1,0.1-0.2,0.2-0.3,0.3c-1,1-2,2-3,3
		c-0.2,0.3-0.6,0.3-0.8,0.2c0,0,0,0,0,0c-0.6-0.4-1.3-0.6-2-1c-2.9-1.8-5.4-4.1-7.5-6.8c-1.1-1.3-2-2.8-2.6-4.3
		c-0.1-0.3-0.1-0.6,0.2-0.8c1-0.9,2-2,3-3c1.2-1,1.4-2.8,0.4-4c-0.1-0.2-0.3-0.3-0.4-0.4l-2.3-2.4c-0.8-0.8-1.6-1.6-2.4-2.4
		c-1-1.2-2.8-1.3-4-0.3c-0.1,0.1-0.2,0.2-0.3,0.3c-1,1-2,2-3,3c-0.9,0.9-1.5,2-1.5,3.3c-0.1,2.1,0.3,4.1,1.1,6
		c1.5,3.9,3.7,7.6,6.5,10.8c3.6,4.4,8.2,7.9,13.3,10.4c2.3,1.2,4.8,1.9,7.3,2.1c1.7,0.2,3.4-0.5,4.6-1.7c0.9-0.9,1.8-1.9,2.7-2.8
		c1.2-1,1.4-2.8,0.4-4C36.6,40.4,36.4,40.2,36.3,40.1z"/>
	<path class="st0" d="M37.7,3.1c-0.8-0.2-1.6-0.3-2.4-0.4c-6.4-0.5-12.5,3.7-14.1,10.2c-0.9,3.7-0.3,7.4,1.6,10.4
		c0,0,0.3,0.5,0.4,0.7l-0.9,3.7c-0.1,0.3,0.1,0.6,0.4,0.7c0,0,0.1,0,0.1,0c0.1,0,0.1,0,0.2,0l3.5-1.1c0.7,0.5,1.5,0.9,2.3,1.3
		c0,0,0,0,0,0c0.7,0.3,1.5,0.6,2.3,0.8c0.8,0.2,1.6,0.3,2.4,0.4c6.4,0.5,12.5-3.7,14.1-10.2C49.4,12.4,45,5,37.7,3.1z M33.9,26.5
		c-1.2,0-2.2-1-2.2-2.2c0-1.2,1-2.2,2.2-2.2c1.2,0,2.2,1,2.2,2.2C36.1,25.5,35.1,26.5,33.9,26.5z M36.4,8.7l-1.7,11.6
		c-0.1,0.4-0.4,0.7-0.9,0.7l-0.1,0c-0.4,0-0.8-0.3-0.9-0.7L31,8.8c0-0.8,0.2-1.5,0.7-2c0.5-0.5,1.2-0.9,1.9-0.9c0.7,0,1.4,0.3,2,0.8
		C36.1,7.2,36.4,7.9,36.4,8.7L36.4,8.7z"/>
</g>
</svg>
