<svg id="Layer_1" data-name="Layer 1" xmlns="http://www.w3.org/2000/svg" viewBox="0 0 50.46 50.46"><defs><style>.cls-1{fill:#12b5e1;}</style></defs><title>telefono neg</title><path class="cls-1" d="M43.59,35.21c-1.7-1.71-3.41-3.4-5.12-5.1a3,3,0,0,0-4.55,0q-1.59,1.58-3.17,3.18a.63.63,0,0,1-.88.16c-.68-.38-1.42-.68-2.08-1.09a33.06,33.06,0,0,1-8-7.24A19.26,19.26,0,0,1,17,20.55a.67.67,0,0,1,.16-.84c1.07-1,2.1-2.08,3.15-3.14a3,3,0,0,0,0-4.66l-2.49-2.5c-.86-.86-1.71-1.72-2.58-2.57a3,3,0,0,0-4.55,0C9.59,7.9,8.56,9,7.47,10a5.21,5.21,0,0,0-1.63,3.49A14.82,14.82,0,0,0,7,19.89a38.71,38.71,0,0,0,6.87,11.45A42.5,42.5,0,0,0,28,42.36a20.35,20.35,0,0,0,7.81,2.27,5.7,5.7,0,0,0,4.9-1.86c.92-1,1.94-2,2.91-2.93A3,3,0,0,0,43.59,35.21Z"/></svg>