<svg id="Layer_1" data-name="Layer 1" xmlns="http://www.w3.org/2000/svg" viewBox="0 0 50.46 50.46"><defs><style>.cls-1{fill:#12b5e1;}</style></defs><title>telefono lineal</title><path class="cls-1" d="M46,34.58Q43.46,32,40.89,29.47a3.94,3.94,0,0,0-5.86,0c-1,1-2,2-3.07,3.08l-.74-.37c-.42-.21-.81-.4-1.17-.62a31.93,31.93,0,0,1-7.73-7,17.64,17.64,0,0,1-2.69-4.27c.9-.87,1.79-1.77,2.68-2.66l.4-.41a3.9,3.9,0,0,0,0-5.93L19.37,7.93,17.62,6.19a4,4,0,0,0-5.81,0L10.53,7.49c-.62.63-1.25,1.26-1.9,1.88a6.1,6.1,0,0,0-1.9,4.08,15.81,15.81,0,0,0,1.2,6.75,39.11,39.11,0,0,0,7,11.72,44,44,0,0,0,9.2,8.28c1,.65,2,1.27,3,1.84a.82.82,0,0,0,.43.12.92.92,0,0,0,.79-.46.9.9,0,0,0-.35-1.23c-1-.55-2-1.14-2.89-1.77a42.22,42.22,0,0,1-8.83-7.94A38,38,0,0,1,9.61,19.57a13.77,13.77,0,0,1-1.09-6,4.36,4.36,0,0,1,1.35-2.92c.35-.33.69-.67,1-1,.58.84,1.53,2.17,2.75,3.61a.88.88,0,0,0,1.26.12A.9.9,0,0,0,15,12.12,45.85,45.85,0,0,1,12.2,8.36l.88-.87a2.14,2.14,0,0,1,3.29,0L18.09,9.2l3.34,3.35a2.13,2.13,0,0,1,0,3.39l-.4.41c-.91.91-1.81,1.82-2.74,2.72a1.56,1.56,0,0,0-.35,1.83,19.5,19.5,0,0,0,3,4.79,33.54,33.54,0,0,0,8.18,7.43c.44.27.89.5,1.32.71l.8.4a1.51,1.51,0,0,0,2-.31c1-1.06,2.07-2.09,3.16-3.17a2.12,2.12,0,0,1,3.28,0c1.71,1.7,3.42,3.4,5.11,5.11a2.15,2.15,0,0,1,0,3.36c-.32.33-.66.65-1,1-.65.63-1.32,1.28-1.94,2a4.85,4.85,0,0,1-4.19,1.57,16.86,16.86,0,0,1-5.11-1.16.9.9,0,1,0-.64,1.68,18.45,18.45,0,0,0,5.65,1.27l.55,0a6.45,6.45,0,0,0,5.08-2.18c.58-.65,1.22-1.28,1.85-1.89.34-.33.69-.67,1-1A3.92,3.92,0,0,0,46,34.58Z"/><path class="cls-1" d="M30.19,41.64l0,0h0l-.06,0a.9.9,0,1,0-.8,1.61l.09,0h0a.9.9,0,0,0,.21.08l.2,0a.9.9,0,0,0,.39-1.71Z"/><path class="cls-1" d="M16.76,14.23l0,0h0l-.05,0a.91.91,0,0,0-1.27-.05.92.92,0,0,0-.05,1.28l.07.07h0l.17.15.18.09a.89.89,0,0,0,.94-.19A.9.9,0,0,0,16.76,14.23Z"/></svg>