<?xml version="1.0" encoding="utf-8"?>
<!-- Generator: Adobe Illustrator 23.1.1, SVG Export Plug-In . SVG Version: 6.00 Build 0)  -->
<svg version="1.1" id="Layer_1" xmlns="http://www.w3.org/2000/svg" xmlns:xlink="http://www.w3.org/1999/xlink" x="0px" y="0px"
	 viewBox="0 0 50.5 50.5" style="enable-background:new 0 0 50.5 50.5;" xml:space="preserve">
<style type="text/css">
	.st0{fill:#12B5E1;}
</style>
<title>comunicacion</title>
<g>
	<path class="st0" d="M37.6,39.4c-1.6-1.6-3.2-3.2-4.8-4.8c-1.4-1.5-3.7-1.6-5.2-0.3c-0.1,0.1-0.2,0.2-0.3,0.3
		c-0.9,0.9-1.9,1.9-2.9,2.9l-0.7-0.3c-0.4-0.2-0.8-0.4-1.1-0.6c-2.8-1.8-5.2-4-7.2-6.6c-1-1.2-1.9-2.6-2.5-4
		c0.8-0.8,1.7-1.7,2.5-2.5l0.4-0.4c1.5-1.3,1.7-3.6,0.4-5.2c-0.1-0.1-0.3-0.3-0.4-0.4l-3.1-3.1L11,12.8c-1.4-1.5-3.8-1.6-5.3-0.1
		c0,0-0.1,0.1-0.1,0.1L4.4,14c-0.6,0.6-1.2,1.2-1.8,1.8c-1.1,1-1.7,2.4-1.8,3.8c-0.1,2.2,0.3,4.3,1.1,6.3c1.5,4,3.7,7.7,6.6,11
		c2.5,3,5.4,5.6,8.6,7.8c0.9,0.6,1.9,1.2,2.8,1.7c0.1,0.1,0.3,0.1,0.4,0.1c0.3,0,0.6-0.2,0.7-0.4c0.2-0.4,0.1-0.9-0.3-1.1
		c0,0,0,0,0,0c-0.9-0.5-1.9-1.1-2.7-1.7c-3.1-2.1-5.9-4.6-8.3-7.4C7.1,32.7,5,29.2,3.5,25.3c-0.8-1.8-1.1-3.7-1-5.6
		c0.1-1,0.5-2,1.3-2.7c0.3-0.3,0.6-0.6,0.9-0.9c0.5,0.8,1.4,2,2.6,3.4c0.3,0.4,0.8,0.4,1.2,0.1c0,0,0,0,0,0c0.4-0.3,0.4-0.8,0.1-1.2
		c-0.9-1.1-1.8-2.3-2.6-3.5L6.8,14c0.7-0.9,2-1,2.8-0.3c0.1,0.1,0.2,0.2,0.3,0.3l1.6,1.6l3.1,3.1c0.9,0.7,1,1.9,0.4,2.8
		c-0.1,0.1-0.2,0.3-0.4,0.4l-0.4,0.4c-0.9,0.9-1.7,1.7-2.6,2.5c-0.5,0.4-0.6,1.1-0.3,1.7c0.7,1.6,1.7,3.1,2.8,4.5
		c2.2,2.7,4.7,5.1,7.7,7c0.4,0.3,0.8,0.5,1.2,0.7l0.7,0.4c0.6,0.4,1.4,0.3,1.9-0.3c0.9-1,1.9-2,3-3c0.7-0.8,1.9-1,2.8-0.3
		c0.1,0.1,0.2,0.2,0.3,0.3c1.6,1.6,3.2,3.2,4.8,4.8c0.9,0.7,1,2,0.3,2.8c-0.1,0.1-0.2,0.2-0.3,0.3c-0.3,0.3-0.6,0.6-0.9,0.9
		c-0.6,0.6-1.2,1.2-1.8,1.9c-1,1.1-2.5,1.6-3.9,1.5c-1.6-0.1-3.3-0.5-4.8-1.1c-0.4-0.2-0.9,0-1.1,0.4c-0.2,0.4,0,0.9,0.4,1.1
		c0,0,0.1,0,0.1,0c1.7,0.7,3.5,1.1,5.3,1.2h0.5c1.8,0.1,3.6-0.7,4.8-2c0.5-0.6,1.1-1.2,1.7-1.8c0.3-0.3,0.6-0.6,0.9-0.9
		c1.5-1.3,1.7-3.7,0.3-5.2C37.9,39.6,37.7,39.5,37.6,39.4z"/>
	<path class="st0" d="M22.8,46L22.8,46L22.8,46c-0.5-0.2-1-0.1-1.2,0.3c-0.2,0.4-0.1,0.9,0.3,1.1c0,0,0,0,0.1,0h0.1
		c0.1,0,0.1,0.1,0.2,0.1h0.2c0.5,0,0.8-0.4,0.8-0.8C23.3,46.4,23.1,46.1,22.8,46z"/>
	<path class="st0" d="M10.2,20.3C9.8,20,9.3,20,9,20.3c-0.3,0.3-0.4,0.9,0,1.2L9,21.6l0.2,0.1l0.2,0.1c0.3,0.1,0.6,0,0.9-0.2
		c0.4-0.3,0.4-0.8,0.1-1.2C10.3,20.4,10.2,20.4,10.2,20.3L10.2,20.3z"/>
	<path class="st0" d="M38.3,1.2c-0.9-0.2-1.8-0.4-2.7-0.4c-7.3-0.6-14,4.2-15.9,11.4c-1,3.9-0.4,8,1.6,11.5c0,0.1,0.1,0.2,0.1,0.3
		l-0.8,3c-0.1,0.6-0.1,1.1,0.2,1.6c0.3,0.5,0.8,0.9,1.3,1c0.1,0,0.3,0.1,0.4,0.1c0.3,0,0.6,0,0.8-0.1l2.8-0.9c0.6,0.4,1.2,0.7,1.8,1
		c0,0,0.1,0,0.1,0.1c0.8,0.4,1.6,0.7,2.5,0.9c0.9,0.2,1.8,0.4,2.7,0.4c7.3,0.6,14-4.2,15.9-11.4C51.3,11.7,46.4,3.3,38.3,1.2z
		 M47.6,19.4c-1.7,6.5-7.7,10.6-14.2,10.2c-0.8-0.1-1.6-0.2-2.4-0.4c-0.8-0.2-1.6-0.5-2.3-0.8c0,0,0,0,0,0c-0.8-0.4-1.5-0.8-2.2-1.3
		L23,28.1c-0.1,0-0.1,0-0.2,0c0,0-0.1,0-0.1,0c-0.3-0.1-0.5-0.4-0.4-0.7l1-3.7c-0.2-0.2-0.4-0.7-0.4-0.7c-1.8-3-2.5-6.8-1.5-10.4
		C23,6.1,29,1.9,35.5,2.4c0.8,0.1,1.6,0.2,2.4,0.4C45.1,4.7,49.5,12.1,47.6,19.4z"/>
	<path class="st0" d="M41.4,11.3h-2.6V8.7c0-1.5-1.2-2.7-2.7-2.7h-3.7c-1.5,0-2.7,1.2-2.7,2.7v2.6h-2.6c-1.5,0-2.7,1.2-2.7,2.7v3.7
		c0,1.5,1.2,2.7,2.7,2.7h2.6V23c0,1.5,1.2,2.7,2.7,2.7h3.7c1.5,0,2.7-1.2,2.7-2.7v-2.6h2.6c1.5,0,2.7-1.2,2.7-2.7V14
		C44.1,12.5,42.9,11.3,41.4,11.3z M42.5,17.7c0,0.6-0.5,1.1-1.1,1.1h-3.2c-0.6,0-1.1,0.5-1.1,1.1V23c0,0.6-0.5,1.1-1.1,1.1h-3.7
		c-0.6,0-1.1-0.5-1.1-1.1v-3.2c0-0.6-0.5-1.1-1.1-1.1h-3.2c-0.6,0-1.1-0.5-1.1-1.1V14c0-0.6,0.5-1.1,1.1-1.1h3.2
		c0.6,0,1.1-0.5,1.1-1.1V8.7c0-0.6,0.5-1.1,1.1-1.1h3.7c0.6,0,1.1,0.5,1.1,1.1v3.2c0,0.6,0.5,1.1,1.1,1.1h3.2c0.6,0,1.1,0.5,1.1,1.1
		V17.7z"/>
</g>
</svg>
