<svg id="Layer_1" data-name="Layer 1" xmlns="http://www.w3.org/2000/svg" viewBox="0 0 50.46 50.46"><defs><style>.cls-1{fill:#12b5e1;}</style></defs><title>temporal frio</title><path class="cls-1" d="M38,16.1c-.16-3.81-3.66-6.86-7.93-6.86a8.05,8.05,0,0,0-7,3.81A5.15,5.15,0,0,0,19.87,12a5.21,5.21,0,0,0-4.46,2.56,6.91,6.91,0,0,0-1.21-.12,7.94,7.94,0,0,0-4,14.78,1,1,0,0,0,.46.12.86.86,0,0,0,.77-.44.89.89,0,0,0-.31-1.23A6.14,6.14,0,0,1,14.2,16.24c.1,0,.29,0,.57,0,0,.21-.09.41-.11.62a.91.91,0,0,0,.84,1,.89.89,0,0,0,1-.84,3.41,3.41,0,0,1,6.1-1.89.9.9,0,0,0,.86.33.87.87,0,0,0,.7-.59A6.15,6.15,0,0,1,30,11c3.38,0,6.14,2.4,6.14,5.34a3.71,3.71,0,0,1,0,.47.91.91,0,0,0,.24.7,1,1,0,0,0,.69.29,5.35,5.35,0,0,1,5.34,5.34,5.16,5.16,0,0,1-2,4.19.9.9,0,0,0-.17,1.26.91.91,0,0,0,.72.35.9.9,0,0,0,.54-.18,6.89,6.89,0,0,0,2.72-5.62A7.15,7.15,0,0,0,38,16.1Z"/><path class="cls-1" d="M28.07,26.76a.63.63,0,0,0-.46-.13,11.1,11.1,0,0,0-1.76.75l.43-1.23a.63.63,0,0,0-1.19-.41l-.81,2.35L21.19,29.5V26.11L23,24.4a.63.63,0,0,0,0-.88.64.64,0,0,0-.89,0l-.95.9V22.67a.63.63,0,1,0-1.26,0v1.72l-1-.9a.63.63,0,1,0-.86.91l1.81,1.71V29.5l-3.09-1.41L16,25.74a.62.62,0,0,0-1.18.41l.42,1.23a10.52,10.52,0,0,0-1.76-.75.62.62,0,0,0-.29,1.2l1.54.69-1.22.5a.63.63,0,0,0-.34.34.64.64,0,0,0,0,.47.61.61,0,0,0,.81.35l2.32-.95,2.92,1.33-2.71,1.75-2.41-.59a.62.62,0,0,0-.76.46.63.63,0,0,0,.46.75l1.27.31a12.36,12.36,0,0,0-1.6,1.07.65.65,0,0,0-.13.47.63.63,0,0,0,1,.43l1.42-.92-.25,1.29a.63.63,0,0,0,1,.63.61.61,0,0,0,.26-.4l.46-2.45,2.71-1.74v3.22l-1.81,1.71a.64.64,0,0,0-.2.43.63.63,0,0,0,.61.65.7.7,0,0,0,.45-.17l1-.9v1.68a.61.61,0,0,0,.43.63.39.39,0,0,0,.18,0h0a.48.48,0,0,0,.2,0,.61.61,0,0,0,.42-.62V36.56l.95.9a.64.64,0,0,0,.89,0A.66.66,0,0,0,23.2,37a.64.64,0,0,0-.2-.43l-1.81-1.71V31.62l2.71,1.74.46,2.45a.61.61,0,0,0,.26.4.65.65,0,0,0,.47.1.63.63,0,0,0,.4-.26.66.66,0,0,0,.1-.47l-.24-1.29,1.4.91a.63.63,0,0,0,1-.42.65.65,0,0,0-.13-.47A12.36,12.36,0,0,0,26,33.24l1.27-.31a.63.63,0,0,0,.18-1.14.6.6,0,0,0-.47-.07l-2.42.59-2.71-1.75,2.92-1.33,2.32.95a.66.66,0,0,0,.48,0,.63.63,0,0,0,.33-.35.62.62,0,0,0-.34-.81l-1.22-.5,1.53-.69a.62.62,0,0,0,.41-.65h0A.66.66,0,0,0,28.07,26.76Z"/><path class="cls-1" d="M41,32a.49.49,0,0,0-.35-.11,8.68,8.68,0,0,0-1.34.58l.32-.94a.46.46,0,0,0-.29-.6.48.48,0,0,0-.61.29L38.16,33,35.8,34.05V31.47l1.38-1.3a.49.49,0,0,0,0-.68.47.47,0,0,0-.67,0l-.73.69V28.85a.47.47,0,0,0-.48-.48.48.48,0,0,0-.48.48v1.31l-.72-.69a.47.47,0,0,0-.67,0,.49.49,0,0,0,0,.68l1.38,1.3v2.58L32.49,33l-.62-1.79a.46.46,0,0,0-.6-.29.47.47,0,0,0-.3.6l.33.94A10.28,10.28,0,0,0,30,31.86a.48.48,0,0,0-.22.92l1.17.53-.93.38a.46.46,0,0,0-.26.25.48.48,0,0,0,.62.63l1.76-.72,2.23,1-2.06,1.33-1.84-.45a.45.45,0,0,0-.36.06.46.46,0,0,0-.22.29.49.49,0,0,0,.35.58l1,.23a9,9,0,0,0-1.22.82.44.44,0,0,0-.1.35.47.47,0,0,0,.76.33l1.07-.7-.18,1a.48.48,0,0,0,.38.56.47.47,0,0,0,.55-.38L32.78,37l2.07-1.33v2.46l-1.38,1.3a.44.44,0,0,0-.15.33.47.47,0,0,0,.13.35.48.48,0,0,0,.67,0l.73-.68v1.28a.45.45,0,0,0,.32.48.4.4,0,0,0,.15,0h0a.4.4,0,0,0,.15,0,.45.45,0,0,0,.32-.47V39.43l.73.68a.47.47,0,0,0,.67,0,.47.47,0,0,0,.13-.34.48.48,0,0,0-.15-.33l-1.38-1.3V35.66L37.86,37l.35,1.87a.52.52,0,0,0,.2.3.46.46,0,0,0,.36.08.48.48,0,0,0,.3-.2.45.45,0,0,0,.08-.36l-.19-1,1.08.7a.47.47,0,0,0,.58,0,.49.49,0,0,0,.18-.32.48.48,0,0,0-.1-.35,8.63,8.63,0,0,0-1.22-.82l1-.23a.49.49,0,0,0,.35-.58.46.46,0,0,0-.22-.29.45.45,0,0,0-.36-.06l-1.84.45-2.06-1.33,2.23-1,1.76.72a.45.45,0,0,0,.36,0,.48.48,0,0,0,0-.88l-.93-.38,1.16-.53a.46.46,0,0,0,.31-.49h0A.44.44,0,0,0,41,32Z"/></svg>