<svg id="Layer_1" data-name="Layer 1" xmlns="http://www.w3.org/2000/svg" viewBox="0 0 50.46 50.46"><defs><style>.cls-1{fill:#12b5e1;}</style></defs><title>tensiometro</title><path class="cls-1" d="M11.51,27.57V19.75a.88.88,0,1,0-1.75,0v7.82a.88.88,0,0,0,1.75,0Z"/><path class="cls-1" d="M5.8,24.08a.75.75,0,0,0-.74.75.74.74,0,0,0,.74.74.75.75,0,0,0,.75-.74A.76.76,0,0,0,5.8,24.08Z"/><path class="cls-1" d="M5.8,22.19a.75.75,0,0,0-.74-.75.76.76,0,0,0-.75.75.75.75,0,0,0,.75.74A.74.74,0,0,0,5.8,22.19Z"/><path class="cls-1" d="M5.8,18.8a.75.75,0,0,0,0,1.49.75.75,0,1,0,0-1.49Z"/><path class="cls-1" d="M7.79,16.71a.74.74,0,0,0-.74.74.75.75,0,0,0,.74.75.76.76,0,0,0,.75-.75A.75.75,0,0,0,7.79,16.71Z"/><path class="cls-1" d="M15.48,25.57a.75.75,0,0,0,.75-.74.76.76,0,0,0-.75-.75.75.75,0,0,0-.74.75A.74.74,0,0,0,15.48,25.57Z"/><path class="cls-1" d="M15.48,22.19a.75.75,0,0,0,.75.74.74.74,0,0,0,.74-.74.75.75,0,0,0-.74-.75A.76.76,0,0,0,15.48,22.19Z"/><path class="cls-1" d="M15.48,20.29a.75.75,0,1,0,0-1.49.75.75,0,0,0,0,1.49Z"/><path class="cls-1" d="M13.49,18.2a.76.76,0,0,0,.75-.75.75.75,0,0,0-.75-.74.74.74,0,0,0-.74.74A.75.75,0,0,0,13.49,18.2Z"/><path class="cls-1" d="M10.63,17.31a.76.76,0,0,0,.75-.75.75.75,0,0,0-.75-.74.74.74,0,0,0-.74.74A.75.75,0,0,0,10.63,17.31Z"/><path class="cls-1" d="M48.4,1.76H40.68A6.5,6.5,0,0,0,37.49.92H27.68a.87.87,0,0,0-.87.88v9.58H26.6A1.6,1.6,0,0,0,25,13v1.28c-2.5,1.33-4.26,4.45-4.26,8.09a9.23,9.23,0,0,0,3.81,7.82,1,1,0,0,0,0,.24v1.76a3.17,3.17,0,0,0,2.3,3v1.56a5.52,5.52,0,0,0,5.51,5.51h.39a5.52,5.52,0,0,0,5.51-5.51v-8H39.6a.87.87,0,0,0,.7-.36l.72-1h2.41v9A11.33,11.33,0,0,1,32.12,47.79H22.84A11.32,11.32,0,0,1,11.53,36.48V35.21a3.17,3.17,0,0,0,2.27-3V30.84a9.45,9.45,0,1,0-6.34,0v1.33a3.18,3.18,0,0,0,2.32,3v1.26A13.08,13.08,0,0,0,22.84,49.54h9.28A13.08,13.08,0,0,0,45.18,36.48v-9H48.4a.88.88,0,0,0,.88-.88V2.63A.87.87,0,0,0,48.4,1.76ZM2.93,21.94a7.7,7.7,0,1,1,7.7,7.7A7.71,7.71,0,0,1,2.93,21.94ZM9.21,32.17v-.89a9.6,9.6,0,0,0,1.42.11,9.39,9.39,0,0,0,1.42-.11v.89a1.42,1.42,0,0,1-2.84,0Zm17.54-19h1.86v.53a3.4,3.4,0,0,0-.46-.06l-.47,0a5.84,5.84,0,0,0-.93.08Zm-4.26,9.22c0-3.87,2.33-7,5.19-7s5.2,3.15,5.2,7a8.4,8.4,0,0,1-1.55,5,.31.31,0,0,0-.07.09,4.59,4.59,0,0,1-3.58,1.93C24.82,29.37,22.49,26.22,22.49,22.35Zm5.26,11.24h-.13a1.43,1.43,0,0,1-1.36-1.42V30.94a5.73,5.73,0,0,0,2.85,0v1.23A1.43,1.43,0,0,1,27.75,33.59Zm8.72,3.18a3.75,3.75,0,0,1-3.76,3.75h-.39a3.76,3.76,0,0,1-3.76-3.75V35.21a3.18,3.18,0,0,0,2.3-3V30.42a1,1,0,0,0,0-.25,7.32,7.32,0,0,0,1.58-1.38h4.07ZM47.53,25.69H41.31V12.25a.88.88,0,0,0-1.75,0V26.47l-.41.56h-5.6a10.44,10.44,0,0,0,1.08-4.68c0-3.64-1.76-6.76-4.26-8.09V13a1.6,1.6,0,0,0-1.6-1.6h-.21V2.67h8.93a4.76,4.76,0,0,1,2.07.48V6.46a.88.88,0,1,0,1.75,0V3.51h6.22Z"/><path class="cls-1" d="M40.44,8a.88.88,0,0,0-.88.87v.37a.88.88,0,1,0,1.75,0V8.91A.87.87,0,0,0,40.44,8Z"/></svg>