<?xml version="1.0" encoding="utf-8"?>
<!-- Generator: Adobe Illustrator 24.0.1, SVG Export Plug-In . SVG Version: 6.00 Build 0)  -->
<svg version="1.1" id="Layer_1" xmlns="http://www.w3.org/2000/svg" xmlns:xlink="http://www.w3.org/1999/xlink" x="0px" y="0px"
	 viewBox="0 0 50.5 50.5" style="enable-background:new 0 0 50.5 50.5;" xml:space="preserve">
<g>
	<path d="M24.641,24.367v-4.34c0-0.442-0.358-0.8-0.8-0.8s-0.8,0.358-0.8,0.8v4.34c-0.81,0.32-1.386,1.107-1.386,2.029
		c0,1.206,0.98,2.187,2.186,2.187c0.273,0,0.532-0.056,0.774-0.148l1.435,1.461c0.156,0.159,0.363,0.239,0.57,0.239
		c0.202,0,0.405-0.076,0.561-0.229c0.315-0.31,0.319-0.816,0.011-1.132l-1.395-1.42c0.143-0.291,0.231-0.613,0.231-0.958
		C26.027,25.474,25.451,24.688,24.641,24.367z M23.255,26.396c0-0.323,0.263-0.586,0.586-0.586s0.586,0.263,0.586,0.586
		s-0.263,0.587-0.586,0.587S23.255,26.72,23.255,26.396z"/>
	<path d="M34.805,25.991c-0.06-0.231-0.158-0.396-0.326-0.559c-0.188-0.181-0.438-0.276-0.698-0.264l-0.389,0.015
		c-0.541,0.021-0.98,0.479-0.98,1.02v0.429c0,0.46,0.324,0.83,0.752,0.937c-0.107,0.858-0.324,1.682-0.647,2.452
		c-0.209-0.082-0.419-0.127-0.597-0.086c-0.144,0.032-0.254,0.105-0.321,0.213c-0.166,0.266-0.429,0.702-0.584,0.973
		c-0.072,0.126-0.087,0.275-0.042,0.434c0.051,0.182,0.194,0.348,0.369,0.491c-0.521,0.69-1.132,1.304-1.82,1.828
		c-0.121-0.123-0.261-0.225-0.432-0.271c-0.255-0.068-0.52-0.035-0.748,0.095l-0.409,0.233c-0.229,0.131-0.389,0.343-0.452,0.596
		c-0.045,0.177-0.019,0.355,0.038,0.525c-0.792,0.338-1.642,0.564-2.527,0.672c-0.116-0.43-0.494-0.756-0.956-0.756h-0.418
		c-0.46,0-0.838,0.324-0.957,0.751c-0.847-0.107-1.661-0.321-2.423-0.639c0.054-0.139,0.092-0.278,0.095-0.411
		c0.003-0.232-0.079-0.414-0.231-0.51c-0.241-0.151-0.678-0.414-0.974-0.585c-0.125-0.072-0.273-0.085-0.433-0.042
		c-0.183,0.052-0.349,0.195-0.492,0.371c-0.69-0.52-1.306-1.131-1.83-1.818c0.309-0.307,0.402-0.783,0.176-1.179l-0.234-0.408
		c-0.13-0.229-0.341-0.389-0.593-0.452c-0.178-0.045-0.357-0.019-0.527,0.038c-0.34-0.794-0.567-1.646-0.677-2.534
		c0.429-0.117,0.756-0.497,0.756-0.958v-0.408c0-0.263-0.104-0.507-0.291-0.688c-0.131-0.125-0.296-0.193-0.469-0.229
		c0.105-0.867,0.323-1.699,0.648-2.478c0.088,0.026,0.178,0.041,0.269,0.041c0.085,0,0.171-0.011,0.255-0.034
		c0.255-0.068,0.467-0.23,0.598-0.458l0.237-0.411c0.132-0.228,0.164-0.491,0.092-0.741c-0.049-0.169-0.155-0.305-0.282-0.422
		c0.517-0.687,1.123-1.3,1.805-1.823c0.189,0.193,0.446,0.301,0.71,0.301c0.168,0,0.339-0.043,0.495-0.133l0.396-0.229
		c0.403-0.234,0.56-0.708,0.433-1.137c0.79-0.337,1.637-0.561,2.52-0.67c0.123,0.429,0.507,0.755,0.968,0.755l0.388,0
		c0.543,0,0.986-0.442,0.986-0.986v-0.387c0-0.263-0.103-0.509-0.29-0.694c-0.14-0.138-0.268-0.214-0.442-0.284
		c-0.165-0.048-0.312-0.082-0.458-0.082c-6.067,0-11.002,4.936-11.002,11.002c0,6.067,4.936,11.003,11.002,11.003
		s11.002-4.936,11.002-11.003C34.844,26.268,34.829,26.11,34.805,25.991z"/>
	<path d="M44.135,10.12l-5.664-4.582c-0.18-0.146-0.426-0.174-0.636-0.075c-0.208,0.1-0.341,0.31-0.341,0.542v2.612H23.841
		c-9.804,0-17.78,7.976-17.78,17.78s7.976,17.779,17.78,17.779c0.332,0,0.6-0.269,0.6-0.6s-0.269-0.6-0.6-0.6
		c-9.142,0-16.58-7.438-16.58-16.58c0-9.142,7.438-16.58,16.58-16.58h14.252c0.331,0,0.6-0.269,0.6-0.6V7.262l4.11,3.325
		l-4.11,3.324v-2.033c0-0.332-0.269-0.6-0.6-0.6H23.841c-8.336,0-15.119,6.783-15.119,15.119c0,8.337,6.783,15.119,15.119,15.119
		c0.332,0,0.6-0.269,0.6-0.6s-0.269-0.6-0.6-0.6c-7.675,0-13.919-6.245-13.919-13.92s6.244-13.919,13.919-13.919h13.653v2.69
		c0,0.231,0.133,0.442,0.341,0.542c0.211,0.1,0.457,0.071,0.636-0.075l5.664-4.581c0.142-0.114,0.223-0.285,0.223-0.466
		S44.276,10.234,44.135,10.12z"/>
	<path d="M28.729,39.434c-0.299,0.112-0.603,0.214-0.91,0.306c-0.318,0.095-0.499,0.429-0.404,0.746
		c0.078,0.261,0.316,0.43,0.575,0.43c0.057,0,0.114-0.009,0.171-0.025c0.335-0.1,0.664-0.211,0.988-0.331
		c0.311-0.116,0.468-0.462,0.353-0.772C29.386,39.477,29.042,39.319,28.729,39.434z"/>
	<path d="M37.852,32.09c0.13-0.32,0.25-0.646,0.359-0.977c0.104-0.315-0.068-0.654-0.383-0.758
		c-0.319-0.104-0.654,0.069-0.758,0.383c-0.1,0.306-0.21,0.605-0.33,0.9c-0.125,0.307,0.022,0.656,0.33,0.781
		c0.073,0.03,0.15,0.045,0.226,0.045C37.532,32.465,37.757,32.323,37.852,32.09z"/>
	<path d="M33.886,36.032c-0.221,0.23-0.45,0.453-0.687,0.668c-0.245,0.224-0.264,0.603-0.041,0.848
		c0.119,0.131,0.281,0.196,0.444,0.196c0.145,0,0.289-0.051,0.403-0.155c0.258-0.234,0.507-0.477,0.747-0.729
		c0.229-0.239,0.221-0.619-0.02-0.848C34.493,35.783,34.113,35.791,33.886,36.032z"/>
	<path d="M38.652,35.133c-0.28-0.181-0.65-0.097-0.829,0.181c-0.175,0.271-0.355,0.538-0.545,0.798
		c-0.194,0.269-0.134,0.644,0.134,0.839c0.106,0.076,0.23,0.113,0.352,0.113c0.187,0,0.369-0.086,0.487-0.247
		c0.201-0.279,0.396-0.563,0.582-0.854C39.012,35.684,38.932,35.312,38.652,35.133z"/>
	<path d="M33.848,39.618c-0.255,0.194-0.516,0.38-0.783,0.559c-0.275,0.185-0.349,0.558-0.165,0.833
		c0.116,0.173,0.306,0.266,0.5,0.266c0.114,0,0.23-0.032,0.333-0.101c0.287-0.192,0.569-0.394,0.844-0.604
		c0.264-0.201,0.313-0.577,0.112-0.841S34.109,39.416,33.848,39.618z"/>
	<path d="M40.764,29.439c-0.325-0.066-0.643,0.137-0.713,0.461c-0.067,0.316-0.145,0.628-0.23,0.938
		c-0.089,0.319,0.099,0.649,0.418,0.738c0.054,0.015,0.107,0.022,0.16,0.022c0.264,0,0.505-0.175,0.578-0.44
		c0.092-0.331,0.175-0.666,0.248-1.006C41.294,29.828,41.088,29.509,40.764,29.439z"/>
	<path d="M28.633,42.275c-0.307,0.092-0.618,0.176-0.932,0.25c-0.322,0.077-0.521,0.4-0.445,0.723
		c0.065,0.275,0.312,0.462,0.583,0.462c0.046,0,0.093-0.006,0.14-0.017c0.337-0.08,0.67-0.17,1-0.27
		c0.317-0.095,0.497-0.43,0.401-0.747C29.284,42.36,28.952,42.178,28.633,42.275z"/>
	<path d="M27.887,18.825l0.414,0.241c0.148,0.087,0.313,0.131,0.479,0.131c0.087,0,0.175-0.012,0.261-0.037
		c0.25-0.071,0.455-0.238,0.578-0.471l0.175-0.328c0.254-0.478,0.082-1.091-0.384-1.367l-0.325-0.193
		c-0.226-0.134-0.49-0.173-0.746-0.106c-0.256,0.065-0.47,0.226-0.604,0.451l-0.198,0.334c-0.134,0.226-0.171,0.49-0.104,0.745
		C27.499,18.48,27.66,18.693,27.887,18.825z"/>
	<path d="M31.352,22.285c0.185,0.314,0.52,0.49,0.862,0.49c0.167,0,0.337-0.042,0.491-0.13l0.336-0.192
		c0.229-0.131,0.392-0.343,0.458-0.597c0.067-0.254,0.031-0.518-0.103-0.743l-0.253-0.431c-0.134-0.227-0.348-0.386-0.603-0.45
		c-0.256-0.063-0.519-0.023-0.742,0.112l-0.33,0.201c-0.464,0.281-0.617,0.891-0.342,1.358L31.352,22.285z"/>
</g>
</svg>
