<?xml version="1.0" encoding="utf-8"?>
<!-- Generator: Adobe Illustrator 24.2.1, SVG Export Plug-In . SVG Version: 6.00 Build 0)  -->
<svg version="1.1" id="Layer_1" xmlns="http://www.w3.org/2000/svg" xmlns:xlink="http://www.w3.org/1999/xlink" x="0px" y="0px"
	 viewBox="0 0 50.5 50.5" style="enable-background:new 0 0 50.5 50.5;" xml:space="preserve">
<path d="M44.5,21.3c-3.8,0-7.5-1.2-10.5-3.4v15.3c0,7.7-6.3,14-14,13.9c-7.7,0-14-6.3-13.9-14c0-7.7,6.3-14,14-13.9
	c0.6,0,1.3,0,1.9,0.1v7.7c-3.4-1.1-7,0.8-8,4.2s0.8,7,4.2,8s7-0.8,8-4.2c0.2-0.6,0.3-1.3,0.3-1.9v-30h7.6c0,0.6,0,1.3,0.2,1.9l0,0
	c0.5,2.8,2.2,5.3,4.6,6.9c1.7,1.1,3.7,1.7,5.8,1.7V21.3z"/>
</svg>
