<?xml version="1.0" encoding="utf-8"?>
<!-- Generator: Adobe Illustrator 26.5.1, SVG Export Plug-In . SVG Version: 6.00 Build 0)  -->
<svg version="1.1" id="Layer_1" xmlns="http://www.w3.org/2000/svg" xmlns:xlink="http://www.w3.org/1999/xlink" x="0px" y="0px"
	 viewBox="0 0 50.5 50.5" style="enable-background:new 0 0 50.5 50.5;" xml:space="preserve">
<g>
	<polygon points="18.532,37.994 9.77,37.994 9.77,40.246 12.474,40.246 12.474,48.438 15.876,48.438 15.876,40.246 18.532,40.246 	
		"/>
	<path d="M25.251,40.778c-2.521,0-4.148,0.746-4.148,2.912v4.748h3.035v-4.699c0-0.6,0.318-0.979,1.113-0.979
		c0.783,0,1.113,0.392,1.113,0.979v4.699h3.059V43.69C29.424,41.561,27.735,40.778,25.251,40.778z"/>
	<path d="M34.147,40.893c-1.138,0-2.239,0.086-3.304,0.404v1.738c0.881-0.22,1.725-0.355,2.594-0.355
		c0.551,0,1.689,0.135,1.689,0.954v0.367c-2.643-0.392-5.029,0.147-5.029,2.129c0,1.774,1.554,2.57,4.075,2.57
		c3.157,0,4.234-0.71,4.234-3.659C38.406,42.643,37.072,40.893,34.147,40.893z M35.188,46.179c0,0.6-0.673,0.82-1.187,0.82
		c-0.722,0-1.028-0.367-1.028-0.869c0-0.6,0.355-0.93,1.138-0.93c0.282,0,0.563,0.025,1.077,0.122V46.179z"/>
	<path d="M19.323,40.778h-1.302c-0.562,0-1.018,0.456-1.018,1.018s0.456,1.018,1.018,1.018h1.302c0.562,0,1.018-0.456,1.018-1.018
		S19.886,40.778,19.323,40.778z"/>
	<rect x="17.142" y="43.141" width="3.061" height="5.297"/>
	<path d="M28.067,25.64c-0.526,0.787-1.631,1.296-2.818,1.296c-1.186,0-2.292-0.509-2.817-1.296c-0.165-0.247-0.5-0.314-0.747-0.149
		c-0.247,0.165-0.314,0.499-0.149,0.747c0.731,1.095,2.154,1.775,3.713,1.775c1.56,0,2.982-0.68,3.713-1.775
		c0.165-0.247,0.098-0.582-0.149-0.747C28.567,25.326,28.233,25.393,28.067,25.64z"/>
	<path d="M31.631,17.552c-0.471,0-0.913,0.116-1.292,0.312c-0.647,0.243-1.113,0.856-1.113,1.588c0,0.944,0.765,1.708,1.709,1.708
		c0.944,0,1.708-0.765,1.708-1.708c0-0.501-0.225-0.942-0.569-1.254c0.495,0.096,0.926,0.343,1.157,0.69
		c0.058,0.087,0.153,0.133,0.249,0.133c0.057,0,0.115-0.016,0.166-0.05c0.138-0.092,0.175-0.278,0.083-0.415
		C33.316,17.937,32.512,17.552,31.631,17.552z"/>
	<path d="M20.161,17.864c-0.379-0.196-0.821-0.312-1.292-0.312c-0.882,0-1.686,0.384-2.099,1.003
		c-0.092,0.138-0.055,0.324,0.083,0.415c0.137,0.091,0.323,0.055,0.415-0.083c0.231-0.347,0.662-0.594,1.157-0.69
		c-0.344,0.313-0.569,0.753-0.569,1.254c0,0.944,0.765,1.708,1.708,1.708c0.944,0,1.709-0.765,1.709-1.708
		C21.274,18.72,20.809,18.107,20.161,17.864z"/>
	<path d="M27.03,1.8H6.254v17.216c0,9.493,7.723,17.216,17.216,17.216h3.56c9.493,0,17.216-7.723,17.216-17.216
		C44.246,9.523,36.523,1.8,27.03,1.8z M27.03,31.689h-3.56c-6.988,0-12.673-5.685-12.673-12.673v-4.861
		c0.109,0.004,0.218,0.011,0.328,0.011c4.47,0,8.24-2.987,9.431-7.072c2.991,5.1,8.529,8.526,14.869,8.526
		c1.27,0,2.507-0.137,3.699-0.398c0.377,1.199,0.581,2.473,0.581,3.795C39.703,26.004,34.018,31.689,27.03,31.689z"/>
</g>
</svg>
