<?xml version="1.0" encoding="utf-8"?>
<!-- Generator: Adobe Illustrator 26.5.1, SVG Export Plug-In . SVG Version: 6.00 Build 0)  -->
<svg version="1.1" id="Layer_1" xmlns="http://www.w3.org/2000/svg" xmlns:xlink="http://www.w3.org/1999/xlink" x="0px" y="0px"
	 viewBox="0 0 50.5 50.5" style="enable-background:new 0 0 50.5 50.5;" xml:space="preserve">
<g>
	<path d="M28.618,33.168c-0.628,0.941-1.95,1.549-3.368,1.549c-1.418,0-2.739-0.608-3.368-1.549
		c-0.198-0.296-0.597-0.375-0.893-0.178c-0.296,0.197-0.375,0.597-0.178,0.893c0.874,1.309,2.574,2.122,4.438,2.122
		c1.864,0,3.565-0.813,4.438-2.122c0.197-0.296,0.118-0.695-0.178-0.893C29.215,32.792,28.815,32.872,28.618,33.168z"/>
	<path d="M32.877,23.5c-0.55,0-1.071,0.131-1.517,0.355c-0.789,0.282-1.357,1.029-1.357,1.916c0,1.128,0.914,2.042,2.042,2.042
		c1.128,0,2.042-0.914,2.042-2.042c0-0.594-0.258-1.124-0.663-1.497c0.585,0.117,1.092,0.412,1.366,0.823
		c0.069,0.103,0.182,0.159,0.298,0.159c0.068,0,0.137-0.02,0.198-0.06c0.165-0.11,0.209-0.332,0.099-0.496
		C34.892,23.96,33.931,23.5,32.877,23.5z"/>
	<path d="M19.14,23.856c-0.446-0.225-0.966-0.355-1.517-0.355c-1.054,0-2.015,0.46-2.509,1.199c-0.11,0.164-0.065,0.387,0.099,0.496
		c0.164,0.109,0.386,0.066,0.496-0.099c0.274-0.411,0.782-0.706,1.366-0.823c-0.405,0.373-0.663,0.903-0.663,1.497
		c0,1.128,0.914,2.042,2.042,2.042c1.128,0,2.042-0.914,2.042-2.042C20.498,24.885,19.929,24.138,19.14,23.856z"/>
	<path d="M27.378,4.672H2.545V25.25c0,11.347,9.231,20.578,20.578,20.578h4.255c11.347,0,20.578-9.231,20.578-20.578
		S38.724,4.672,27.378,4.672z M27.378,40.398h-4.255c-8.353,0-15.148-6.796-15.148-15.148v-5.811
		c0.131,0.004,0.261,0.013,0.392,0.013c5.343,0,9.85-3.57,11.272-8.454c3.575,6.096,10.194,10.191,17.772,10.191
		c1.518,0,2.997-0.164,4.421-0.476c0.451,1.433,0.695,2.956,0.695,4.536C42.526,33.603,35.73,40.398,27.378,40.398z"/>
</g>
</svg>
