<?xml version="1.0" encoding="utf-8"?>
<!-- Generator: Adobe Illustrator 28.0.0, SVG Export Plug-In . SVG Version: 6.00 Build 0)  -->
<svg version="1.1" id="Layer_1" xmlns="http://www.w3.org/2000/svg" xmlns:xlink="http://www.w3.org/1999/xlink" x="0px" y="0px"
	 viewBox="0 0 50.5 50.5" style="enable-background:new 0 0 50.5 50.5;" xml:space="preserve">
<g>
	<path d="M26.619,14.966c0-0.442-0.358-0.8-0.8-0.8h-2.968c-0.442,0-0.8,0.358-0.8,0.8s0.358,0.8,0.8,0.8h2.968
		C26.261,15.766,26.619,15.408,26.619,14.966z"/>
	<path d="M46.409,23.51c-0.773-1.44-1.999-2.528-3.278-2.912c-0.85-0.255-1.665-0.191-2.35,0.18
		c-0.011,0.005-0.021,0.011-0.03,0.016l-3.726,2.001v-4.341l7.821-2.734c0.321-0.112,0.536-0.416,0.536-0.755
		s-0.215-0.643-0.536-0.755L24.6,7.133c-0.171-0.06-0.357-0.06-0.528,0L3.823,14.21c-0.321,0.112-0.536,0.416-0.536,0.755
		s0.215,0.643,0.536,0.755l3.42,1.195c-0.008,0.046-0.027,0.088-0.027,0.136v7.728c-0.465,0.276-0.781,0.778-0.781,1.357
		c0,0.872,0.709,1.581,1.581,1.581s1.582-0.709,1.582-1.581c0-0.579-0.316-1.081-0.782-1.357v-7.315l2.826,0.988v10.405
		c0,0.299,0.167,0.573,0.432,0.71c0.146,0.076,3.154,1.599,8.278,2.183l-4.447,2.389c-1.816,0.976-2.185,3.703-0.839,6.21
		c0.777,1.439,2.006,2.527,3.287,2.91c0.339,0.102,0.674,0.151,0.996,0.151c0.481,0,0.937-0.111,1.348-0.334l24.877-13.357
		c0.002-0.001,0.004-0.002,0.007-0.003c0-0.001,0.001-0.001,0.002-0.001C47.395,28.736,47.757,26.009,46.409,23.51z M40.857,23.096
		c0.023-0.074,0.051-0.154,0.088-0.236c0.008-0.017,0.02-0.034,0.028-0.052c0.032-0.066,0.065-0.132,0.107-0.197
		c0.008-0.013,0.021-0.024,0.03-0.037c0.048-0.068,0.099-0.134,0.162-0.194c0.016-0.016,0.039-0.027,0.056-0.042
		c0.063-0.054,0.128-0.108,0.207-0.15c0.194-0.105,0.4-0.143,0.597-0.143c0.199,0,0.387,0.039,0.539,0.084
		c0.868,0.26,1.76,1.079,2.328,2.137c0.877,1.625,0.794,3.512-0.178,4.04c-0.049,0.026-0.099,0.037-0.149,0.055
		c-0.356,0.13-0.73,0.082-0.997,0.001c-0.867-0.262-1.756-1.079-2.319-2.133C40.784,25.165,40.593,23.964,40.857,23.096z
		 M24.335,8.736l17.823,6.229l-17.823,6.229L6.512,14.966L24.335,8.736z M13.241,28.346v-3.292c0.947,0.368,2.439,0.867,4.442,1.265
		c0.053,0.01,0.105,0.016,0.157,0.016c0.374,0,0.708-0.264,0.784-0.644c0.086-0.434-0.195-0.854-0.628-0.941
		c-2.388-0.475-4.027-1.108-4.755-1.424v-4.313l10.83,3.785c0.085,0.03,0.175,0.044,0.264,0.044s0.179-0.015,0.264-0.044
		l10.826-3.784v4.641l-4.014,2.156c-0.007,0.004-0.015,0.003-0.023,0.007c-0.01,0.005-0.017,0.014-0.027,0.02l-4.474,2.403
		c-0.008,0.004-0.017,0.003-0.025,0.007c-0.012,0.006-0.02,0.016-0.031,0.023l-3.864,2.076
		C17.888,30.142,14.409,28.848,13.241,28.346z M30.559,32.028c0.613,1.142,1.502,2.062,2.501,2.589
		c0.002,0.001,0.004,0.002,0.007,0.003l-2.152,1.155c-0.002,0.001-0.004,0.001-0.006,0.002c-0.584,0.315-1.269,0.043-1.627-0.145
		c-0.711-0.375-1.381-1.078-1.838-1.931c-0.885-1.647-0.81-3.478,0.155-4.026l2.179-1.17c0,0,0,0.001,0,0.001
		C29.666,29.632,29.943,30.883,30.559,32.028z M19.938,41.669c-0.389,0.211-0.829,0.148-1.128,0.059
		c-0.87-0.26-1.766-1.078-2.336-2.136c-0.89-1.658-0.805-3.509,0.187-4.041l8.596-4.617c-0.109,1.084,0.133,2.328,0.777,3.526
		c0.613,1.142,1.502,2.061,2.501,2.588c0.002,0.001,0.004,0.002,0.006,0.003L19.938,41.669z M35.444,33.343
		c-0.003,0.002-0.007,0.001-0.011,0.003c-0.584,0.315-1.271,0.044-1.627-0.145c-0.711-0.375-1.381-1.079-1.838-1.932
		c-0.46-0.855-0.679-1.806-0.6-2.606c0.039-0.397,0.193-1.101,0.758-1.421l7.037-3.779c-0.002,0.023,0.001,0.047-0.001,0.07
		c-0.02,0.24-0.024,0.485-0.009,0.736c0.003,0.053,0.01,0.107,0.015,0.161c0.02,0.225,0.052,0.453,0.099,0.682
		c0.01,0.047,0.016,0.094,0.027,0.141c0.059,0.258,0.137,0.515,0.228,0.772c0.022,0.061,0.045,0.121,0.069,0.182
		c0.103,0.263,0.216,0.525,0.353,0.78c0.137,0.257,0.293,0.498,0.458,0.731c0.034,0.049,0.068,0.097,0.103,0.144
		c0.165,0.222,0.34,0.433,0.526,0.627c0.028,0.029,0.058,0.055,0.086,0.084c0.175,0.176,0.358,0.339,0.547,0.488
		c0.032,0.025,0.062,0.052,0.094,0.076c0.205,0.154,0.417,0.289,0.633,0.407c0.02,0.011,0.039,0.027,0.059,0.038L35.444,33.343z"/>
	<path d="M23.147,25.338c-0.59-0.02-1.158-0.056-1.704-0.102c-0.445-0.04-0.828,0.289-0.865,0.729
		c-0.038,0.44,0.289,0.828,0.729,0.865c0.572,0.049,1.167,0.086,1.786,0.107c0.009,0,0.019,0,0.028,0
		c0.429,0,0.784-0.34,0.799-0.772C23.935,25.723,23.589,25.353,23.147,25.338z"/>
</g>
</svg>
