<svg id="Layer_1" data-name="Layer 1" xmlns="http://www.w3.org/2000/svg" viewBox="0 0 50.46 50.46"><defs><style>.cls-1{fill:#12b5e1;}</style></defs><title>tormentas electricas</title><path class="cls-1" d="M29.71,31.23H26.39l3.72-6a.89.89,0,0,0-.76-1.36H23.54a.89.89,0,0,0-.8.49l-5.58,11a.89.89,0,0,0,.79,1.3h2.88l-3.7,9.08a.9.9,0,0,0,.36,1.11A1,1,0,0,0,18,47a.93.93,0,0,0,.69-.31l11.75-14a.89.89,0,0,0,.13-1A.9.9,0,0,0,29.71,31.23Zm-8.79,10L23,36.13a.91.91,0,0,0-.08-.83,1,1,0,0,0-.74-.4H19.41l4.68-9.21h3.65l-3.71,6a.88.88,0,0,0,0,.9.86.86,0,0,0,.78.46h3Z"/><path class="cls-1" d="M38,14.86C37.79,11.05,34.29,8,30,8a8,8,0,0,0-7,3.8,5.18,5.18,0,0,0-7.58,1.52,6.91,6.91,0,0,0-1.21-.12,7.94,7.94,0,1,0,0,15.87h2.47a.9.9,0,0,0,0-1.8H14.2A6.14,6.14,0,1,1,14.2,15c.1,0,.29,0,.57,0a4.44,4.44,0,0,0-.1.62.9.9,0,0,0,.83,1,.91.91,0,0,0,1-.84,3.44,3.44,0,0,1,3.41-3.22,3.39,3.39,0,0,1,2.69,1.33.91.91,0,0,0,.86.33.87.87,0,0,0,.7-.6A6.13,6.13,0,0,1,30,9.8c3.39,0,6.15,2.39,6.15,5.34a3.71,3.71,0,0,1,0,.47.9.9,0,0,0,.25.69.92.92,0,0,0,.68.3,5.35,5.35,0,0,1,5.34,5.34,5.09,5.09,0,0,1-2.81,4.69,5.6,5.6,0,0,1-2.54.56l-4.65.07a.9.9,0,0,0,0,1.8h0L37.08,29a7.58,7.58,0,0,0,3.34-.76,7,7,0,0,0,3.78-6.29A7.15,7.15,0,0,0,38,14.86Z"/></svg>