<svg id="Layer_1" data-name="Layer 1" xmlns="http://www.w3.org/2000/svg" viewBox="0 0 50.46 50.46"><defs><style>.cls-1{fill:#12b5e1;}</style></defs><title>tornado</title><path class="cls-1" d="M23.32,12.94a37.2,37.2,0,0,0-6.76.6.91.91,0,0,0-.72,1.06.89.89,0,0,0,1.05.71,35.44,35.44,0,0,1,6.43-.57c5.2,0,10,1.07,12.31,2.73a.93.93,0,0,0,.53.17A.9.9,0,0,0,36.68,16C34.08,14.12,29,12.94,23.32,12.94Z"/><path class="cls-1" d="M42.37,16c0-3.83-8.53-6.94-19-6.94s-19,3.11-19,6.94c0,1.56,1.43,3,3.82,4.15a2,2,0,0,0,0,.34c0,1.58,1.23,2.87,3.17,3.85l0,0a2.64,2.64,0,0,0-.22,1c0,1.64,1.56,2.9,3.89,3.74a2.09,2.09,0,0,0-.06.64c0,1.52,1.69,4,4.74,4.57a18,18,0,0,0,3.17.27c.25,0,.68,0,.77.24.44,1-1.47,4.19-2.18,5a.9.9,0,0,0,0,1.23.79.79,0,0,0,.57.29c.43,0,1.05-.4,2.41-1.28a36.88,36.88,0,0,0,3.88-2.88c4.33-3.76,4.4-6.38,3.49-8,2.39-.84,4-2.11,4-3.78a2.35,2.35,0,0,0-.19-.93.57.57,0,0,0-.08-.13c1.94-1,3.18-2.28,3.18-3.86,0-.11,0-.23,0-.34C40.94,19,42.37,17.57,42.37,16ZM29.9,29.77a2,2,0,0,1,.36,1.8c-.48,2.07-3.27,4.45-5.57,6.1a4.6,4.6,0,0,0,.43-3.52,2.38,2.38,0,0,0-2.42-1.31,16.39,16.39,0,0,1-2.86-.24,3.91,3.91,0,0,1-3.25-2.8v-.13a28.73,28.73,0,0,0,6.73.75,29.2,29.2,0,0,0,6.56-.7S29.89,29.75,29.9,29.77Zm3.93-4.6a.74.74,0,0,1,.05.25c0,1.31-4.11,3.2-10.56,3.2s-10.56-1.89-10.56-3.2a.65.65,0,0,1,.07-.29.17.17,0,0,0,0-.07,32.35,32.35,0,0,0,10.48,1.6A32.08,32.08,0,0,0,33.8,25.05.53.53,0,0,0,33.83,25.17Zm-10.51-.31C15.64,24.86,10.7,22.71,10,21a40.84,40.84,0,0,0,13.36,2,40.84,40.84,0,0,0,13.36-2C35.94,22.71,31,24.86,23.32,24.86Zm0-3.71c-11.16,0-17.25-3.4-17.25-5.14s6.09-5.14,17.25-5.14S40.57,14.26,40.57,16,34.48,21.15,23.32,21.15Z"/></svg>