<svg id="Layer_1" data-name="Layer 1" xmlns="http://www.w3.org/2000/svg" viewBox="0 0 50.46 50.46"><defs><style>.cls-1{fill:#65b4e1;}</style></defs><title>tornados y tormentas electricas</title><path class="cls-1" d="M33.32,15l-.8,1.49c6,.92,9.79,2.9,9.79,4.73,0,2.49-7,5.26-17.1,5.26s-17.1-2.77-17.1-5.26c0-1.85,3.87-3.85,10-4.76H18l.82-1.72a34,34,0,0,0-6.56,1.43c-4.78,1.62-5.79,3.64-5.79,5,0,1.89,1.74,3.42,4.43,4.55a3,3,0,0,0,0,.44c0,1.48,1.11,2.81,3,3.85a.8.8,0,0,0-.09.16,2.59,2.59,0,0,0-.19,1c0,1.62,1.45,2.87,3.59,3.72a2.13,2.13,0,0,0,0,.26s0,0,0,.07c0,1.42,1.57,3.75,4.41,4.26a17,17,0,0,0,3,.25c.3,0,.67,0,.77.25.42.93-1.39,4-2.06,4.73a.8.8,0,1,0,1.2,1.07s3.33-4.22,2.33-6.45a2.19,2.19,0,0,0-2.23-1.2A15.36,15.36,0,0,1,21.94,38a3.85,3.85,0,0,1-3.06-2.47,24.8,24.8,0,0,0,6.34.79,23.93,23.93,0,0,0,6.72-.89.8.8,0,0,0-.46-1.54,22.31,22.31,0,0,1-6.26.82c-5.7,0-10-1.82-10-3.44a1,1,0,0,1,.08-.37.8.8,0,0,0,0-.09,27.38,27.38,0,0,0,9.86,1.61A27.88,27.88,0,0,0,35,30.78a.8.8,0,1,0-.58-1.5,26.26,26.26,0,0,1-9.18,1.48c-7.32,0-12.47-2.28-12.69-4.38a43.28,43.28,0,0,0,12.69,1.74A41.83,41.83,0,0,0,38.13,26.3c4.78-1.62,5.79-3.64,5.79-5C43.92,18.14,39.23,16,33.32,15Z"/><path class="cls-1" d="M21.35,25.09a.8.8,0,0,0,1-.17L33,12.34A.8.8,0,0,0,32.34,11h-3l3.34-5.37A.8.8,0,0,0,32,4.43H26.78a.8.8,0,0,0-.72.44l-5,9.88a.8.8,0,0,0,.71,1.17h2.59L21,24.1A.8.8,0,0,0,21.35,25.09Zm1.72-10.77L27.28,6h3.29L27.22,11.4a.8.8,0,0,0,.68,1.23h2.71L24.43,20l1.85-4.54a.8.8,0,0,0-.74-1.11Z"/></svg>