<?xml version="1.0" encoding="utf-8"?>
<!-- Generator: Adobe Illustrator 24.2.1, SVG Export Plug-In . SVG Version: 6.00 Build 0)  -->
<svg version="1.1" id="Layer_1" xmlns="http://www.w3.org/2000/svg" xmlns:xlink="http://www.w3.org/1999/xlink" x="0px" y="0px"
	 viewBox="0 0 50.5 50.5" style="enable-background:new 0 0 50.5 50.5;" xml:space="preserve">
<path d="M39.8,41.1h-1l-1.1-7.9c-0.1-0.4-0.4-0.7-0.8-0.7H35V18.1h3.1c0.4,0,0.8-0.4,0.8-0.8V5.7c0-0.4-0.4-0.8-0.8-0.8h-5.3
	c-0.4,0-0.8,0.4-0.8,0.8V8h-3.7V5.7c0-0.4-0.4-0.8-0.8-0.8h-5.3c-0.4,0-0.8,0.4-0.8,0.8V8h-3.7V5.7c0-0.4-0.4-0.8-0.8-0.8h-5.3
	c-0.4,0-0.8,0.4-0.8,0.8v11.5c0,0.4,0.4,0.8,0.8,0.8h3.1v14.5h-1.9c-0.4,0-0.7,0.3-0.8,0.7l-1.1,7.9h-1c-0.4,0-0.8,0.4-0.8,0.8v3.5
	c0,0.4,0.4,0.8,0.8,0.8h30c0.4,0,0.8-0.4,0.8-0.8v-3.5C40.6,41.5,40.2,41.1,39.8,41.1z M12.3,16.4V6.5H16v2.3c0,0.4,0.4,0.8,0.8,0.8
	h5.3c0.4,0,0.8-0.4,0.8-0.8V6.5h3.7v2.3c0,0.4,0.4,0.8,0.8,0.8h5.3c0.4,0,0.8-0.4,0.8-0.8V6.5h3.7v9.9h-3.1H15.3H12.3z M33.4,18.1
	v14.5H16.1V18.1H33.4z M13.3,34.1h2h18.9h2l0.9,7H12.4L13.3,34.1z M39,44.6H10.6v-1.9h0.9h26.6H39V44.6z"/>
</svg>
