<svg id="Layer_1" data-name="Layer 1" xmlns="http://www.w3.org/2000/svg" viewBox="0 0 50.46 50.46"><defs><style>.cls-1{fill:#65b4e1;}</style></defs><title>torre electrica</title><path class="cls-1" d="M38.17,15.19a.82.82,0,0,0,.82-.82V11.63a.81.81,0,0,0,0-.15v0l0-.1v0l-.07-.12,0,0-.07-.08,0,0L38.64,11h0l-.11-.06-9-4.24a.82.82,0,0,0-.35-.08H21.33a.82.82,0,0,0-.35.08l-9,4.24-.11.06h0l-.09.08,0,0-.07.08,0,0-.07.12v0l0,.1v0a.81.81,0,0,0,0,.15v2.74a.82.82,0,1,0,1.63,0V12.44h7.43v3l-8.59,4-.11.06h0l-.09.08,0,0-.07.08,0,0-.07.12v0l0,.1v0a.81.81,0,0,0,0,.15V23a.82.82,0,0,0,1.63,0V21h7.25L14,42.85v.09a.81.81,0,0,0,0,.1s0,0,0,0v0a.81.81,0,0,0,0,.12v0a.82.82,0,0,0,0,.14l0,0,0,.09,0,0,.06.07,0,0,.07.06,0,0,0,0,.09,0h0l.13,0H35.94l.13,0h0l.09,0,0,0,0,0,.07-.06,0,0,.06-.07,0,0,0-.09,0,0a.82.82,0,0,0,0-.14v0a.81.81,0,0,0,0-.12v0s0,0,0,0a.81.81,0,0,0,0-.1v-.09L30.24,21h7.11V23A.82.82,0,0,0,39,23V20.23a.81.81,0,0,0,0-.15v0l0-.1v0l-.07-.12,0,0-.07-.08,0,0-.09-.08h0l-.11-.06-8.46-4V12.44h7.29v1.92A.82.82,0,0,0,38.17,15.19Zm-16-7h6.26v2.61H22.17ZM16,10.81l4.58-2.15v2.15Zm12.47,8.6H22.17V16.8h6.26Zm-7.89,0H16l4.58-2.15Zm-.62,9,4.23,4.21L16.5,40.27ZM21,27.26h8.52L25.3,31.5Zm4.26,6.55,8.49,8.45h-17Zm1.16-1.15,4.23-4.21L34.1,40.27Zm3.41-7H20.73L22.06,21h6.48Zm4.64-6.21H30.06V17.33Zm-6.08-4.24H22.17V12.44h6.26Zm1.63-6.45,4.45,2.09H30.06Z"/></svg>