<?xml version="1.0" encoding="utf-8"?>
<!-- Generator: Adobe Illustrator 24.2.1, SVG Export Plug-In . SVG Version: 6.00 Build 0)  -->
<svg version="1.1" id="Layer_1" xmlns="http://www.w3.org/2000/svg" xmlns:xlink="http://www.w3.org/1999/xlink" x="0px" y="0px"
	 viewBox="0 0 50.5 50.5" style="enable-background:new 0 0 50.5 50.5;" xml:space="preserve">
<g>
	<path d="M23.407,15.947c0.873,0.646,1.773,0.89,2.622,0.89c1.344,0,2.553-0.612,3.31-1.197c0.371,0.089,0.778,0.16,1.28,0.219
		c0.024,0.003,0.048,0.004,0.071,0.004c0.3,0,0.56-0.225,0.595-0.53c0.039-0.329-0.196-0.627-0.525-0.666
		c-0.316-0.037-0.585-0.078-0.832-0.126c0.075-0.674,0.06-1.851-0.742-2.835c-0.941-1.156-2.427-1.25-3.41-1.312
		c-0.321-0.02-0.624-0.039-0.783-0.088c-1.4-0.426-2.219-1.497-2.232-1.514c-0.13-0.175-0.344-0.267-0.562-0.237
		c-0.217,0.029-0.401,0.174-0.479,0.379C21.121,10.486,20.704,13.945,23.407,15.947z M22.583,10.318
		c0.481,0.407,1.174,0.869,2.059,1.139c0.293,0.089,0.647,0.111,1.057,0.137c0.867,0.055,1.946,0.123,2.556,0.872
		c0.454,0.558,0.52,1.255,0.498,1.735c-0.342-0.136-0.7-0.307-1.149-0.529c-0.297-0.146-0.657-0.026-0.805,0.271
		c-0.146,0.297-0.025,0.657,0.271,0.804c0.302,0.15,0.57,0.278,0.824,0.392c-0.912,0.484-2.351,0.897-3.773-0.155
		C22.294,13.631,22.354,11.531,22.583,10.318z"/>
	<path d="M12.969,19.455h1.564c0.247,5.694,4.943,10.253,10.697,10.253s10.451-4.56,10.698-10.253h1.564
		c1.315,0,2.386-1.163,2.386-2.592s-1.07-2.592-2.386-2.592h-0.902c-1.184-3.875-3.856-6.915-7.294-8.295
		c-0.075-1.117-0.942-2-1.997-2c-0.787,0-1.475,0.494-1.798,1.216c-0.264-0.005-0.531-0.003-0.792,0.01
		c-0.319-0.728-1.007-1.226-1.803-1.226c-1.088,0-1.976,0.941-2.001,2.107c-3.31,1.432-5.887,4.432-7.035,8.188h-0.901
		c-1.315,0-2.385,1.163-2.385,2.592S11.653,19.455,12.969,19.455z M25.23,28.109c-4.872,0-8.852-3.842-9.097-8.654h18.195
		C34.083,24.266,30.102,28.109,25.23,28.109z M12.969,15.871h1.507c0.364,0,0.683-0.246,0.774-0.599
		c0.968-3.729,3.485-6.683,6.735-7.9c0.313-0.117,0.519-0.416,0.519-0.749v-0.49c0-0.329,0.212-0.558,0.402-0.558
		c0.208,0,0.38,0.226,0.393,0.513c0.009,0.223,0.111,0.432,0.281,0.576c0.169,0.144,0.394,0.211,0.613,0.186
		c0.608-0.073,1.226-0.092,1.821-0.022c0.22,0.028,0.439-0.04,0.608-0.182s0.271-0.347,0.284-0.568
		c0.016-0.277,0.191-0.502,0.393-0.502c0.19,0,0.402,0.229,0.402,0.558v0.4c0,0.342,0.217,0.646,0.54,0.756
		c3.364,1.157,5.97,4.141,6.97,7.983c0.092,0.353,0.41,0.598,0.774,0.598h1.507c0.434,0,0.786,0.445,0.786,0.992
		s-0.353,0.992-0.786,0.992H12.969c-0.433,0-0.786-0.445-0.786-0.992S12.536,15.871,12.969,15.871z"/>
	<path d="M41.128,42.412c-0.55-2.771-3.388-9.55-8.645-12.822c-0.246-0.155-0.559-0.162-0.811-0.021
		c-1.896,1.051-4.043,1.616-6.187,1.635c-2.164-0.044-4.311-0.615-6.209-1.651c-0.25-0.137-0.555-0.128-0.799,0.019
		c-5.268,3.209-8.113,9.99-8.666,12.771c-0.066,0.331,0.083,0.667,0.372,0.841c4.606,2.778,9.88,4.366,15.297,4.593
		c5.421-0.068,10.708-1.635,15.292-4.53C41.051,43.068,41.193,42.737,41.128,42.412z M25.477,32.804
		c2.149-0.018,4.273-0.53,6.207-1.459c-0.476,1.054-1.43,2.872-2.982,4.615c-1.641,1.843-2.709,2.986-3.235,3.54
		c-0.526-0.554-1.595-1.697-3.235-3.54c-1.568-1.761-2.526-3.6-2.998-4.648C21.173,32.237,23.305,32.76,25.477,32.804z
		 M15.547,44.044c-1.389-0.549-2.744-1.188-4.041-1.936c0.423-1.622,1.463-4.177,3.127-6.577
		C15.358,36.712,16.884,39.904,15.547,44.044z M25.503,46.177c-3.016-0.127-5.997-0.709-8.836-1.705
		c1.706-5.192-0.646-9.07-1.274-9.97c0.792-1,1.699-1.941,2.725-2.738c0.499,1.122,1.516,3.084,3.216,4.994
		c2.459,2.761,3.614,3.936,3.663,3.984c0.113,0.114,0.35,0.179,0.511,0.179s0.314-0.064,0.427-0.179
		c0.048-0.049,1.203-1.224,3.663-3.984c1.696-1.905,2.712-3.861,3.212-4.984c1.158,0.911,2.161,2.004,3.022,3.153
		c-0.84,1.38-2.496,4.923-1.02,9.489C31.837,45.529,28.688,46.136,25.503,46.177z M35.928,43.973
		c-1.151-3.644-0.09-6.537,0.669-7.964c1.502,2.291,2.443,4.655,2.839,6.18C38.307,42.871,37.132,43.462,35.928,43.973z"/>
</g>
</svg>
