<svg id="Layer_1" data-name="Layer 1" xmlns="http://www.w3.org/2000/svg" viewBox="0 0 50.46 50.46"><defs><style>.cls-1{fill:#65b4e1;}</style></defs><title>trabajador temporal</title><path class="cls-1" d="M21.63,41.88c-6.31,0-11.07,0-12.12-10,2.11,2,6,3,12.16,3a34.87,34.87,0,0,0,6-.45,10.3,10.3,0,0,1-.12-1.46c0-.12,0-.25,0-.37a32,32,0,0,1-5.93.48c-5.75,0-9.36-.85-11-2.59a5.2,5.2,0,0,1-1.33-2.91c0-.11,0-.22,0-.33h0a27.24,27.24,0,0,1-.06-4.13c0-.8.06-1.62.06-2.47A12.44,12.44,0,0,1,17,9.09v2.16a.9.9,0,0,0,1.8,0V8.52a12.35,12.35,0,0,1,1.9-.29v4.59a.9.9,0,1,0,1.8,0V8.23a12.37,12.37,0,0,1,1.9.28v2.74a.9.9,0,0,0,1.8,0V9.07a12.44,12.44,0,0,1,7.85,11.54c0,.61,0,1.22,0,1.81s0,.88,0,1.31a9.88,9.88,0,0,1,1.8-.46c0-.29,0-.58,0-.88,0-.58,0-1.18,0-1.78A14.24,14.24,0,0,0,26.25,7.16V6.33a.9.9,0,0,0-1.8,0v.34a14.24,14.24,0,0,0-1.9-.23V3.9a.9.9,0,1,0-1.8,0V6.43a14.22,14.22,0,0,0-1.9.24V6.33a.9.9,0,0,0-1.8,0v.85a14.24,14.24,0,0,0-9.6,13.44c0,.82,0,1.62-.05,2.4A26.4,26.4,0,0,0,7.5,27.7c.12,14.85,5.69,16,14.14,16,3.59,0,6.65-.21,9-1.6-.29-.51-.57-1-.83-1.57C27.68,41.87,24.86,41.88,21.63,41.88Z"/><path class="cls-1" d="M37.59,25.25A7.64,7.64,0,0,0,32,27.47,7.43,7.43,0,0,0,29.8,32.8c0,5.57,6.67,13.92,7,14.27l.24.3a.25.25,0,0,0,.19.09h0a.25.25,0,0,0,.19-.09l.25-.29c.31-.36,7.5-8.77,7.5-14.05A7.67,7.67,0,0,0,37.59,25.25ZM40,35.57a3.68,3.68,0,0,1-2.57,1H37.4a3.69,3.69,0,0,1,.06-7.38h.06A3.69,3.69,0,0,1,40,35.57Z"/></svg>