<?xml version="1.0" encoding="utf-8"?>
<!-- Generator: Adobe Illustrator 24.0.1, SVG Export Plug-In . SVG Version: 6.00 Build 0)  -->
<!DOCTYPE svg PUBLIC "-//W3C//DTD SVG 1.1//EN" "http://www.w3.org/Graphics/SVG/1.1/DTD/svg11.dtd" [
	<!ENTITY ns_extend "http://ns.adobe.com/Extensibility/1.0/">
	<!ENTITY ns_ai "http://ns.adobe.com/AdobeIllustrator/10.0/">
	<!ENTITY ns_graphs "http://ns.adobe.com/Graphs/1.0/">
	<!ENTITY ns_vars "http://ns.adobe.com/Variables/1.0/">
	<!ENTITY ns_imrep "http://ns.adobe.com/ImageReplacement/1.0/">
	<!ENTITY ns_sfw "http://ns.adobe.com/SaveForWeb/1.0/">
	<!ENTITY ns_custom "http://ns.adobe.com/GenericCustomNamespace/1.0/">
	<!ENTITY ns_adobe_xpath "http://ns.adobe.com/XPath/1.0/">
]>
<svg version="1.1" id="Layer_1" xmlns:x="&ns_extend;" xmlns:i="&ns_ai;" xmlns:graph="&ns_graphs;"
	 xmlns="http://www.w3.org/2000/svg" xmlns:xlink="http://www.w3.org/1999/xlink" x="0px" y="0px" viewBox="0 0 50.46 50.46"
	 enable-background="new 0 0 50.46 50.46" xml:space="preserve">
<metadata>
	<sfw  xmlns="&ns_sfw;">
		<slices></slices>
		<sliceSourceBounds  bottomLeftOrigin="true" height="25.589" width="37.617" x="664.191" y="265.706"></sliceSourceBounds>
	</sfw>
</metadata>
<g>
	<path fill="none" d="M39.015,31.519c-1.185,0-2.15,0.966-2.151,2.151c0,1.188,0.963,2.153,2.151,2.153s2.153-0.96,2.153-2.153
		C41.168,32.485,40.208,31.519,39.015,31.519z"/>
	<path fill="none" d="M14.416,26.064c-2.191,0-3.965,1.775-3.965,3.963c0,2.193,1.775,3.964,3.965,3.964
		c2.189,0,3.964-1.771,3.964-3.964C18.381,27.839,16.606,26.064,14.416,26.064z"/>
	<path fill="none" d="M20.522,14.786h-3.62c-0.139,0-0.225,0.118-0.251,0.251l-0.694,3.131c1.784,0.235,3.484,0.706,4.926,1.646
		l-0.104-4.774C20.774,14.909,20.662,14.786,20.522,14.786z"/>
	<path fill="none" d="M26.893,14.786h-4.36c-0.14,0-0.253,0.115-0.253,0.254l-0.037,5.554c0,0.141,0.115,0.253,0.251,0.253
		l5.485-0.011c0.134-0.329-0.701-5.005-0.837-5.796C27.12,14.903,27.032,14.786,26.893,14.786z"/>
	<path d="M39.058,27.619c1.696,0,3.223,0.746,4.261,1.937h0.719l-0.013-2.803l-1.024-0.193l0.599-4.281l-0.578-0.764l-7.816-0.107
		l0.043-5.782c0-0.11-0.096-0.203-0.203-0.203h-1.803c-0.107,0-0.203,0.096-0.203,0.203l-0.043,5.762l-3.25-0.066l-1.683-8.876
		l-15.081-0.011l-0.615,2.04l1.533,0.055l-1.642,5.763c0.9-0.249,1.6-0.328,2.331-0.364c0.802-0.036,1.648,0,2.847,0.372
		c0.904,0.282,1.759,0.685,2.534,1.194c2.199,1.434,3.81,3.695,4.391,6.343l0.029,0.139v0.011c0.135,0.631,0.209,1.292,0.209,1.963
		l-0.003,0.27v0.029v0.027c-0.013,0.46-0.055,0.915-0.126,1.359l6.326-0.011l2.849-0.005C34.361,29.307,36.522,27.619,39.058,27.619
		z M15.956,18.168l0.694-3.131c0.027-0.134,0.112-0.251,0.251-0.251h3.62c0.14,0,0.253,0.123,0.255,0.254l0.104,4.774
		C19.44,18.874,17.74,18.403,15.956,18.168z M27.979,20.836l-5.485,0.011c-0.136,0-0.251-0.112-0.251-0.253l0.037-5.554
		c0-0.139,0.112-0.254,0.253-0.254h4.36c0.139,0,0.227,0.118,0.249,0.254C27.278,15.831,28.113,20.507,27.979,20.836z"/>
	<path d="M14.416,22.03c-4.417,0-7.995,3.582-7.995,7.996c0,4.416,3.58,7.998,7.995,7.998c4.413,0,7.992-3.582,7.992-7.998
		C22.409,25.612,18.83,22.03,14.416,22.03z M14.416,33.991c-2.191,0-3.965-1.771-3.965-3.964c0-2.188,1.775-3.963,3.965-3.963
		c2.189,0,3.964,1.775,3.964,3.963C18.381,32.22,16.606,33.991,14.416,33.991z"/>
	<path d="M39.015,29.331c-2.391,0-4.338,1.942-4.339,4.339c0,2.397,1.942,4.344,4.339,4.344c2.402,0,4.344-1.947,4.344-4.344
		C43.359,31.273,41.412,29.331,39.015,29.331z M39.015,35.823c-1.188,0-2.151-0.966-2.151-2.153c0-1.185,0.966-2.151,2.151-2.151
		c1.193,0,2.153,0.966,2.153,2.151C41.168,34.863,40.203,35.823,39.015,35.823z"/>
</g>
</svg>
