<svg id="Layer_1" data-name="Layer 1" xmlns="http://www.w3.org/2000/svg" viewBox="0 0 50.46 50.46"><defs><style>.cls-1{fill:#65b4e1;}</style></defs><title>tramite</title><path class="cls-1" d="M31.3,41.26H14.51a2.18,2.18,0,0,1-2.18-2.18V11.51a2.18,2.18,0,0,1,2.18-2.18h18l0,5.65a1,1,0,0,0,1,1c.35,0,2.75,0,4.89,0V33.89h.24a7.4,7.4,0,0,1,1.47.15L40.1,14.44v-.08L33.81,7.67l-.06-.06H14.51a3.91,3.91,0,0,0-3.9,3.9V39.09a3.91,3.91,0,0,0,3.9,3.9h17a7.37,7.37,0,0,1-.21-1.72ZM37.15,14H34.51l0-2.89Z"/><path class="cls-1" d="M38.7,35.57a5.7,5.7,0,1,0,5.7,5.7A5.7,5.7,0,0,0,38.7,35.57Zm-.32,9.22h0l-3.3-4.1,1.16-1,2.08,2.1,3.88-3.44,1,1.05Z"/><path class="cls-1" d="M33.19,20.32H17.67a.86.86,0,0,0,0,1.73H33.19a.86.86,0,0,0,0-1.73Z"/><path class="cls-1" d="M33.19,24H17.67a.86.86,0,0,0,0,1.73H33.19a.86.86,0,1,0,0-1.73Z"/><path class="cls-1" d="M33.19,27.62H17.67a.86.86,0,0,0,0,1.73H33.19a.86.86,0,1,0,0-1.73Z"/><path class="cls-1" d="M33.19,31.28H17.67a.86.86,0,1,0,0,1.73H33.19a.86.86,0,1,0,0-1.73Z"/></svg>