<svg id="Layer_1" data-name="Layer 1" xmlns="http://www.w3.org/2000/svg" viewBox="0 0 50.46 50.46"><defs><style>.cls-1{fill:#65b4e1;}</style></defs><title>tramite negativo</title><path class="cls-1" d="M37.87,33.58a6.91,6.91,0,0,1,1.4.14V29.08h0l0-12.4H33.05a.93.93,0,0,1-.94-.91l0-6.94h-17a3.68,3.68,0,0,0-3.67,3.67v26a3.68,3.68,0,0,0,3.67,3.67H31.17a6.9,6.9,0,0,1,6.71-8.56ZM18.08,20.79H32.69a.81.81,0,1,1,0,1.63H18.08a.81.81,0,1,1,0-1.63Zm0,3.44H32.69a.81.81,0,0,1,0,1.63H18.08a.81.81,0,0,1,0-1.63Zm0,3.44H32.69a.81.81,0,1,1,0,1.63H18.08a.81.81,0,1,1,0-1.63Zm0,5.07a.81.81,0,0,1,0-1.63H32.69a.81.81,0,1,1,0,1.63Z"/><path class="cls-1" d="M38.9,14.85l-5-5.29v5.29Z"/><path class="cls-1" d="M37.88,35.33A5.15,5.15,0,1,0,43,40.49,5.15,5.15,0,0,0,37.88,35.33Zm-.29,8.34h0l-3-3.71L35.66,39l1.88,1.9,3.51-3.11.93,1Z"/></svg>