<svg id="Layer_1" data-name="Layer 1" xmlns="http://www.w3.org/2000/svg" viewBox="0 0 50.46 50.46"><defs><style>.cls-1{fill:#65b4e1;}</style></defs><title>tramite jubilacion</title><path class="cls-1" d="M33.51,30H16.95a.83.83,0,1,0,0,1.67H33.51a.83.83,0,1,0,0-1.67Z"/><path class="cls-1" d="M33.51,34.67H16.95a.83.83,0,0,0,0,1.67H33.51a.83.83,0,0,0,0-1.67Z"/><path class="cls-1" d="M41.27,13,34.38,5.67H13.19A4.09,4.09,0,0,0,9.1,9.75v30.5a4.09,4.09,0,0,0,4.09,4.09H37.28a4.09,4.09,0,0,0,4.09-4.09Zm-2.53-.25H35.09l0-4Zm1.17,27.51a2.64,2.64,0,0,1-2.63,2.63H13.19a2.64,2.64,0,0,1-2.63-2.63V9.75a2.64,2.64,0,0,1,2.63-2.63H33.35l0,6.47a.85.85,0,0,0,.84.84l3,0,2.67,0Z"/><path class="cls-1" d="M20.16,18a4.46,4.46,0,0,0,2.1,2.38l-1.33,3a8.15,8.15,0,0,1-1.27-1,1,1,0,1,0-1.37,1.44,10.58,10.58,0,0,0,14.37,0,1,1,0,0,0-1.37-1.44,8.15,8.15,0,0,1-1.37,1l-1.25-2.83c.84-.23,1.34-.18,1.64.22a1,1,0,1,0,1.59-1.19c-.9-1.2-2.33-1.47-4.26-.81l-.11,0a7.06,7.06,0,0,1-3.73,0l0,0-.08,0A2.65,2.65,0,0,1,22,17.31l-.37-1c3.87-1,4.44-1,5.64.4a.75.75,0,1,0,1.13-1c-1.84-2.12-3.21-1.9-7.31-.82l-1.71-4.44a1,1,0,0,0-1.86.72Zm3.5,2.9a9,9,0,0,0,3.53.05l1.39,3.15a8.75,8.75,0,0,1-6.32,0Z"/></svg>