<svg id="Layer_1" data-name="Layer 1" xmlns="http://www.w3.org/2000/svg" viewBox="0 0 50.46 50.46"><defs><style>.cls-1{fill:#12b5e1;}</style></defs><title>transplante lineal</title><path class="cls-1" d="M42.25,14.8h-7V8a2.43,2.43,0,0,0-2.42-2.42H31.46A2.52,2.52,0,0,0,29.13,4h-9a2.52,2.52,0,0,0-2.33,1.6H16.43A2.43,2.43,0,0,0,14,8V14.8H7a2.42,2.42,0,0,0-2.42,2.42v5.27a.9.9,0,0,0,.9.9h1.1V42.61a2.42,2.42,0,0,0,1.75,2.31v.35a2.26,2.26,0,0,0,2.26,2.25h1a2.26,2.26,0,0,0,2.26-2.25V45H35.43v.24a2.26,2.26,0,0,0,2.26,2.25h1a2.26,2.26,0,0,0,2.26-2.25v-.35a2.42,2.42,0,0,0,1.75-2.31V23.39h1.1a.9.9,0,0,0,.9-.9V17.22A2.42,2.42,0,0,0,42.25,14.8ZM15.81,8a.62.62,0,0,1,.62-.62h1.32A2.5,2.5,0,0,0,20.08,9h9.05a2.5,2.5,0,0,0,2.33-1.6h1.32A.62.62,0,0,1,33.4,8V14.8H15.81ZM12,45.27a.46.46,0,0,1-.46.45h-1a.46.46,0,0,1-.46-.45V45H12Zm27.14,0a.46.46,0,0,1-.46.45h-1a.46.46,0,0,1-.46-.45V45h1.89Zm1.75-2.66a.62.62,0,0,1-.62.62H9a.62.62,0,0,1-.62-.62V23.39h3.14v2.38a.9.9,0,0,0,.9.9h5.3a.9.9,0,0,0,.89-.9V23.39H30.64v2.38a.9.9,0,0,0,.89.9h5.3a.9.9,0,0,0,.9-.9V23.39h3.14ZM15,23.18a.6.6,0,0,0-.6.6v1.09H13.28V21.61a.84.84,0,0,1,.84-.83h1.82a.84.84,0,0,1,.84.83v3.26H15.55V23.78A.6.6,0,0,0,15,23.18Zm19.23,0a.6.6,0,0,0-.6.6v1.09H32.43V21.61a.84.84,0,0,1,.84-.83h1.82a.84.84,0,0,1,.84.83v3.26H34.78V23.78A.6.6,0,0,0,34.18,23.18Zm8.69-1.59H37.73A2.65,2.65,0,0,0,35.09,19H33.27a2.64,2.64,0,0,0-2.63,2.62H18.57A2.64,2.64,0,0,0,15.94,19H14.12a2.65,2.65,0,0,0-2.64,2.62H6.34V17.22A.61.61,0,0,1,7,16.61H42.25a.61.61,0,0,1,.62.61Z"/><path class="cls-1" d="M27.15,28.93A3.65,3.65,0,0,0,24.6,30a1.55,1.55,0,0,0-.27-.24A3.59,3.59,0,0,0,19.4,35c.13.14,3.55,4,4.77,5.34a.59.59,0,0,0,.87,0L29.81,35a3.57,3.57,0,0,0,.85-1.62v-.07s0,0,0,0a6.34,6.34,0,0,0,.07-.65v0A3.6,3.6,0,0,0,27.15,28.93Z"/></svg>