<svg id="Layer_1" data-name="Layer 1" xmlns="http://www.w3.org/2000/svg" viewBox="0 0 50.46 50.46"><defs><style>.cls-1{fill:#65b4e1;}</style></defs><title>transporte publico licencia</title><path class="cls-1" d="M11.4,27.43a.65.65,0,0,0-.2.48.84.84,0,0,0,0,.28.4.4,0,0,0,.14.2l.17.12a.58.58,0,0,0,.25.06l.24,0h1.19a2.71,2.71,0,0,0,4.62,1.92,2.61,2.61,0,0,0,.79-1.92h9.58a2.71,2.71,0,0,0,5.42,0h.51l.24,0a.57.57,0,0,0,.25-.06l.18-.12a.41.41,0,0,0,.14-.2.84.84,0,0,0,0-.28v-8.2a.69.69,0,0,0-.68-.68L15.6,19.1a1.84,1.84,0,0,0-1.15.48l-2.1,2.1a1.44,1.44,0,0,0-.24.32,1.94,1.94,0,0,0-.15.32,1.74,1.74,0,0,0-.07.39q0,.25,0,.37c0,.08,0,.21,0,.4s0,.31,0,.37v3.39A.65.65,0,0,0,11.4,27.43Zm19.39-7h2.71v2.71H30.78ZM30,27.63a1.33,1.33,0,1,1-.4,1A1.3,1.3,0,0,1,30,27.63Zm-3.25-7.18h2.71v2.71H26.73Zm-4.05,0h2.71v2.71H22.68Zm-4.05,0h2.71v2.71H18.63Zm-1.74,9.08a1.33,1.33,0,1,1,.4-1A1.3,1.3,0,0,1,16.89,29.54Zm-3.66-6.69a.31.31,0,0,1,.1-.23l2.06-2.06a.32.32,0,0,1,.23-.1h1.67v2.71H13.23Z"/><path class="cls-1" d="M48.46,31.36l-1.09-1.05-.47-.46-.49.44-.55.49V12.44a3.11,3.11,0,0,0-3.11-3.11H4.61a3.11,3.11,0,0,0-3.11,3.11v25.1a3.11,3.11,0,0,0,3.11,3.11H36.53a6.64,6.64,0,0,1-1.28-1.78H4.61a1.33,1.33,0,0,1-1.33-1.33V12.44a1.33,1.33,0,0,1,1.33-1.33H42.75a1.33,1.33,0,0,1,1.33,1.33V30a6.69,6.69,0,0,1,1.5,1l-.24.21-.52.46-.31.28a5.1,5.1,0,0,0-3.35-1.23,5.19,5.19,0,1,0,5.19,5.19,5.08,5.08,0,0,0-.12-1.07l.29-.33.63-.7,1.33-1.49.46-.51Zm-1.83,2-.63.7-4.87,5.42h0l-3.83-4.76,1.35-1.19L41.07,36l4.22-3.74.52-.46,1.07-.95L48,31.87Z"/></svg>