<svg id="Layer_1" data-name="Layer 1" xmlns="http://www.w3.org/2000/svg" viewBox="0 0 50.46 50.46"><defs><style>.cls-1{fill:#12b5e1;}</style></defs><title>transplante negativo</title><path class="cls-1" d="M14.32,21.28A2.64,2.64,0,0,1,17,18.64h1.82a2.64,2.64,0,0,1,2.63,2.64V22H33.47v-.72a2.65,2.65,0,0,1,2.64-2.64h1.82a2.65,2.65,0,0,1,2.64,2.64V22h6.94V17.22a2.42,2.42,0,0,0-2.42-2.42H38V8a2.42,2.42,0,0,0-2.41-2.42H34.3A2.52,2.52,0,0,0,32,4h-9a2.52,2.52,0,0,0-2.33,1.6H19.27A2.43,2.43,0,0,0,16.85,8V14.8h-7a2.42,2.42,0,0,0-2.42,2.42V22h6.94ZM18.65,8a.62.62,0,0,1,.62-.62h1.32A2.5,2.5,0,0,0,22.92,9h9a2.5,2.5,0,0,0,2.33-1.6h1.32a.61.61,0,0,1,.61.62V14.8H18.65Z"/><path class="cls-1" d="M40.57,25.43a.9.9,0,0,1-.9.9h-5.3a.9.9,0,0,1-.9-.9V23.8H21.41v1.63a.9.9,0,0,1-.9.9H15.22a.9.9,0,0,1-.9-.9V23.8H9.38V42.61a2.42,2.42,0,0,0,1.75,2.31v.35a2.26,2.26,0,0,0,2.26,2.25h1a2.26,2.26,0,0,0,2.26-2.25V45H38.27v.24a2.26,2.26,0,0,0,2.26,2.25h1a2.26,2.26,0,0,0,2.26-2.25v-.35a2.42,2.42,0,0,0,1.75-2.31V23.8H40.57Zm-7,7.13a6.34,6.34,0,0,1-.07.65s0,0,0,0v.07A3.67,3.67,0,0,1,32.65,35l-4.77,5.34a.59.59,0,0,1-.87,0c-1.22-1.38-4.64-5.2-4.77-5.34a3.59,3.59,0,0,1,4.93-5.2,1.55,1.55,0,0,1,.27.24A3.65,3.65,0,0,1,30,28.93a3.6,3.6,0,0,1,3.6,3.6Z"/><path class="cls-1" d="M37.93,20.44H36.11a.85.85,0,0,0-.84.84v3.25h1.15V23.45a.6.6,0,0,1,1.2,0v1.08h1.15V21.28A.85.85,0,0,0,37.93,20.44Z"/><path class="cls-1" d="M18.78,20.44H17a.85.85,0,0,0-.84.84v3.25h1.07V23.45a.6.6,0,1,1,1.2,0v1.08h1.22V21.28A.84.84,0,0,0,18.78,20.44Z"/></svg>