<?xml version="1.0" encoding="utf-8"?>
<!-- Generator: Adobe Illustrator 24.0.1, SVG Export Plug-In . SVG Version: 6.00 Build 0)  -->
<!DOCTYPE svg PUBLIC "-//W3C//DTD SVG 1.1//EN" "http://www.w3.org/Graphics/SVG/1.1/DTD/svg11.dtd" [
	<!ENTITY ns_extend "http://ns.adobe.com/Extensibility/1.0/">
	<!ENTITY ns_ai "http://ns.adobe.com/AdobeIllustrator/10.0/">
	<!ENTITY ns_graphs "http://ns.adobe.com/Graphs/1.0/">
	<!ENTITY ns_vars "http://ns.adobe.com/Variables/1.0/">
	<!ENTITY ns_imrep "http://ns.adobe.com/ImageReplacement/1.0/">
	<!ENTITY ns_sfw "http://ns.adobe.com/SaveForWeb/1.0/">
	<!ENTITY ns_custom "http://ns.adobe.com/GenericCustomNamespace/1.0/">
	<!ENTITY ns_adobe_xpath "http://ns.adobe.com/XPath/1.0/">
]>
<svg version="1.1" id="Layer_1" xmlns:x="&ns_extend;" xmlns:i="&ns_ai;" xmlns:graph="&ns_graphs;"
	 xmlns="http://www.w3.org/2000/svg" xmlns:xlink="http://www.w3.org/1999/xlink" x="0px" y="0px" viewBox="0 0 50.46 50.46"
	 enable-background="new 0 0 50.46 50.46" xml:space="preserve">
<metadata>
	<sfw  xmlns="&ns_sfw;">
		<slices></slices>
		<sliceSourceBounds  bottomLeftOrigin="true" height="20.764" width="43.35" x="661.325" y="268.118"></sliceSourceBounds>
	</sfw>
</metadata>
<g>
	<path d="M12.928,29.016c-1.822,0-3.297,1.475-3.297,3.298c0,1.821,1.475,3.298,3.297,3.298c1.822,0,3.295-1.477,3.295-3.298
		C16.224,30.491,14.75,29.016,12.928,29.016z M12.928,33.95c-0.905,0-1.635-0.733-1.635-1.636c0-0.905,0.73-1.633,1.635-1.633
		c0.901,0,1.635,0.731,1.635,1.636S13.832,33.95,12.928,33.95z"/>
	<path d="M39.418,29.016c-1.821,0-3.295,1.475-3.295,3.298c0,1.821,1.475,3.298,3.295,3.298s3.296-1.477,3.296-3.298
		C42.714,30.491,41.239,29.016,39.418,29.016z M39.418,33.952c-0.905,0-1.636-0.731-1.636-1.636c0-0.905,0.731-1.636,1.636-1.636
		c0.9,0,1.636,0.731,1.636,1.636S40.323,33.952,39.418,33.952z"/>
	<path d="M45.879,28.523c-0.299-0.854-0.537-1.779-0.918-2.083c-1.006-0.605-3.322-1.782-4.744-1.943
		c-0.449-0.387-1.484-1.578-2.721-2.84c-2.131-2.171-6.71-6.763-9.917-6.763L6.805,14.848c-0.802,0.045-1.573,1.246-1.913,2.659
		c-0.697,2.89-0.929,6.741-0.905,9.84c0.002,0.154-0.433,0.209-0.433,0.361c0.007,0.416,0.047,2.19,0.079,3.229
		c0.02,0.744,0.503,0.79,1.091,0.896l3.708,0.687c-0.013-0.141-0.02-0.282-0.02-0.423c0-2.496,2.022-4.517,4.513-4.517
		c2.493,0,4.513,2.023,4.513,4.517c0,0.198-0.012,0.396-0.039,0.59c5.164,0.007,12.256,0.075,17.346,0.194
		c-0.046-0.258-0.068-0.52-0.068-0.784c0-2.496,2.021-4.517,4.513-4.517c2.494,0,4.513,2.023,4.513,4.517
		c0,0.227-0.013,0.449-0.046,0.665l2.628-0.251c0.185-0.343,0.544-0.759,0.619-1.268V29.21
		C46.905,28.889,46.108,28.616,45.879,28.523z M18.557,22.992c0,0.151-0.105,0.269-0.23,0.269h-6.024
		c-0.123,0-0.225-0.118-0.225-0.269v-3.67c0-0.148,0.101-0.269,0.225-0.269h6.024c0.125,0,0.23,0.118,0.23,0.266V22.992z
		 M27.251,22.992c0,0.151-0.101,0.269-0.229,0.269h-6.021c-0.127,0-0.228-0.118-0.228-0.269v-3.67c0-0.148,0.101-0.269,0.228-0.269
		h6.021c0.128,0,0.229,0.118,0.229,0.266V22.992z M37.333,24.433l-6.844-0.742c-0.169-0.034-0.328-0.095-0.46-0.205
		c-0.255-0.212-0.37-0.573-0.44-0.884c-0.211-0.951-0.209-2.241-0.302-3.21c-0.009-0.113-0.002-0.244,0.081-0.332
		c0.119-0.123,0.361-0.125,0.515-0.115l2.86,0.198c0.169,0.047,0.359,0.108,0.513,0.196c0.064,0.039,0.128,0.088,0.185,0.135
		l3.903,4.409L37.333,24.433z"/>
</g>
</svg>
