<svg id="Layer_1" data-name="Layer 1" xmlns="http://www.w3.org/2000/svg" viewBox="0 0 50.46 50.46"><defs><style>.cls-1{fill:#65b4e1;}</style></defs><title>transporte licencia</title><path class="cls-1" d="M44.3,9.6H6.16a3.11,3.11,0,0,0-3.11,3.11v25a3.11,3.11,0,0,0,3.11,3.11H44.3a3.11,3.11,0,0,0,3.11-3.11v-25A3.11,3.11,0,0,0,44.3,9.6Zm1.33,28.14a1.33,1.33,0,0,1-1.33,1.33H6.16a1.33,1.33,0,0,1-1.33-1.33v-25a1.33,1.33,0,0,1,1.33-1.33H44.3a1.33,1.33,0,0,1,1.33,1.33Z"/><path class="cls-1" d="M34.41,17.15H22.66a.74.74,0,0,0-.73.73v2.2H20.09a2,2,0,0,0-1.25.52l-2.27,2.27a1.57,1.57,0,0,0-.26.34,2.11,2.11,0,0,0-.16.35,1.89,1.89,0,0,0-.07.42q0,.27,0,.4c0,.08,0,.23,0,.44s0,.34,0,.4V28.9a.74.74,0,0,0-.73.73.91.91,0,0,0,0,.3.43.43,0,0,0,.15.21l.19.13a.62.62,0,0,0,.27.07l.26,0h1.28a2.94,2.94,0,0,0,5,2.08,2.83,2.83,0,0,0,.86-2.08h4.4a2.94,2.94,0,0,0,5.87,0h.55l.26,0a.62.62,0,0,0,.27-.07l.19-.13a.44.44,0,0,0,.15-.21.91.91,0,0,0,0-.3V17.89a.74.74,0,0,0-.73-.73ZM21.49,31.4a1.44,1.44,0,1,1,.44-1A1.41,1.41,0,0,1,21.49,31.4Zm.44-6.91H17.52v-.34a.34.34,0,0,1,.1-.25l2.24-2.24a.34.34,0,0,1,.25-.1h1.81Zm9.84,6.91a1.44,1.44,0,1,1,.44-1A1.41,1.41,0,0,1,31.77,31.4Z"/></svg>