<?xml version="1.0" encoding="utf-8"?>
<!-- Generator: Adobe Illustrator 24.0.1, SVG Export Plug-In . SVG Version: 6.00 Build 0)  -->
<!DOCTYPE svg PUBLIC "-//W3C//DTD SVG 1.1//EN" "http://www.w3.org/Graphics/SVG/1.1/DTD/svg11.dtd" [
	<!ENTITY ns_extend "http://ns.adobe.com/Extensibility/1.0/">
	<!ENTITY ns_ai "http://ns.adobe.com/AdobeIllustrator/10.0/">
	<!ENTITY ns_graphs "http://ns.adobe.com/Graphs/1.0/">
	<!ENTITY ns_vars "http://ns.adobe.com/Variables/1.0/">
	<!ENTITY ns_imrep "http://ns.adobe.com/ImageReplacement/1.0/">
	<!ENTITY ns_sfw "http://ns.adobe.com/SaveForWeb/1.0/">
	<!ENTITY ns_custom "http://ns.adobe.com/GenericCustomNamespace/1.0/">
	<!ENTITY ns_adobe_xpath "http://ns.adobe.com/XPath/1.0/">
]>
<svg version="1.1" id="Layer_1" xmlns:x="&ns_extend;" xmlns:i="&ns_ai;" xmlns:graph="&ns_graphs;"
	 xmlns="http://www.w3.org/2000/svg" xmlns:xlink="http://www.w3.org/1999/xlink" x="0px" y="0px" viewBox="0 0 50.46 50.46"
	 enable-background="new 0 0 50.46 50.46" xml:space="preserve">
<metadata>
	<sfw  xmlns="&ns_sfw;">
		<slices></slices>
		<sliceSourceBounds  bottomLeftOrigin="true" height="20.947" width="43.35" x="661.325" y="268.026"></sliceSourceBounds>
	</sfw>
</metadata>
<g>
	<path d="M12.339,27.494c-2.271,0-4.107,1.837-4.107,4.105s1.836,4.105,4.107,4.105c2.265,0,4.105-1.837,4.105-4.105
		S14.607,27.494,12.339,27.494z M12.339,33.638c-1.126,0-2.039-0.914-2.039-2.039c0-1.125,0.913-2.039,2.039-2.039
		c1.124,0,2.033,0.914,2.033,2.039C14.372,32.724,13.463,33.638,12.339,33.638z"/>
	<path d="M45.627,26.081c-0.144-0.455-0.71-2.518-1.026-2.728c-1.253-0.759-4.008-1.114-5.781-1.314l-5.63-4.331
		c-2.726-2.222-3.033-2.602-6.427-2.646L14.204,14.76c-2.247-0.053-3.675,0.403-5.024,2.34c-1.166,1.675-1.522,2.392-2.13,3.474
		v-2.169c0-0.439-0.365-0.812-0.813-0.812H5.115c-0.448,0-0.814,0.366-0.814,0.812v5.749c0,0.222,0.089,0.422,0.235,0.569
		c-0.537,0.118-0.98,0.266-0.98,0.342c0.009,0.519,0.058,2.727,0.094,4.023c0.03,1.031,1.988,1.434,3.033,1.958
		c0.278-2.879,2.699-5.127,5.655-5.127c3.022,0,5.495,2.363,5.669,5.345c6.425,0.009,7.95,0.096,14.258,0.243h0.245
		c0.048-3.094,2.572-5.585,5.678-5.585c3.042,0,5.527,2.39,5.676,5.393l2.268-0.266c0.231-0.426,0.678-0.944,0.774-1.581v-2.531
		C46.905,26.533,45.911,26.197,45.627,26.081z M15.372,20.973c0,0.168-0.216,0.386-0.387,0.386h-3.779
		c-0.958,0-0.865-0.48-0.591-1.057l1.374-2.885c0.474-0.998,1.009-0.983,2.11-0.983h0.886c0.215,0,0.387,0.224,0.387,0.387V20.973z
		 M23.899,20.974c0,0.182-0.204,0.386-0.387,0.386h-6.546c-0.184,0-0.387-0.173-0.387-0.386v-4.152c0-0.214,0.174-0.389,0.387-0.387
		l6.546,0.128c0.213,0.002,0.387,0.204,0.387,0.387V20.974z M34.834,21.855l-9.144-0.409c-0.389-0.075-0.525-0.192-0.614-0.593
		l0.007-3.617c-0.011-0.141-0.002-0.307,0.103-0.412c0.146-0.158,0.444-0.16,0.639-0.145c1.473-0.002,2.215,0.023,2.957,0.124
		c0.921,0.127,1.477,0.396,2.094,0.886l4.059,3.242L34.834,21.855z"/>
	<path d="M38.201,27.494c-2.268,0-4.105,1.837-4.105,4.105c0,2.268,1.837,4.105,4.105,4.105s4.109-1.837,4.109-4.105
		S40.469,27.494,38.201,27.494z M38.201,33.638c-1.122,0-2.034-0.914-2.034-2.039c0-1.125,0.912-2.039,2.034-2.039
		c1.127,0,2.039,0.914,2.039,2.039C40.24,32.724,39.328,33.638,38.201,33.638z"/>
</g>
</svg>
