<?xml version="1.0" encoding="utf-8"?>
<!-- Generator: Adobe Illustrator 24.0.1, SVG Export Plug-In . SVG Version: 6.00 Build 0)  -->
<!DOCTYPE svg PUBLIC "-//W3C//DTD SVG 1.1//EN" "http://www.w3.org/Graphics/SVG/1.1/DTD/svg11.dtd" [
	<!ENTITY ns_extend "http://ns.adobe.com/Extensibility/1.0/">
	<!ENTITY ns_ai "http://ns.adobe.com/AdobeIllustrator/10.0/">
	<!ENTITY ns_graphs "http://ns.adobe.com/Graphs/1.0/">
	<!ENTITY ns_vars "http://ns.adobe.com/Variables/1.0/">
	<!ENTITY ns_imrep "http://ns.adobe.com/ImageReplacement/1.0/">
	<!ENTITY ns_sfw "http://ns.adobe.com/SaveForWeb/1.0/">
	<!ENTITY ns_custom "http://ns.adobe.com/GenericCustomNamespace/1.0/">
	<!ENTITY ns_adobe_xpath "http://ns.adobe.com/XPath/1.0/">
]>
<svg version="1.1" id="Layer_1" xmlns:x="&ns_extend;" xmlns:i="&ns_ai;" xmlns:graph="&ns_graphs;"
	 xmlns="http://www.w3.org/2000/svg" xmlns:xlink="http://www.w3.org/1999/xlink" x="0px" y="0px" viewBox="0 0 50.46 50.46"
	 enable-background="new 0 0 50.46 50.46" xml:space="preserve">
<metadata>
	<sfw  xmlns="&ns_sfw;">
		<slices></slices>
		<sliceSourceBounds  bottomLeftOrigin="true" height="18.642" width="46.004" x="659.998" y="269.179"></sliceSourceBounds>
	</sfw>
</metadata>
<g>
	<path d="M48.127,27.392c-0.079-0.398-0.538-0.118-0.558-0.414c-0.166-1.213-0.432-4.403-0.861-5.388
		c-0.561-1.289-2.106-3.034-2.894-4.357c-0.455-0.787-0.922-1.33-1.942-1.324c-12.498,0.012-24.997,0.029-37.494,0.042
		c-0.289,0.002-0.442-0.002-0.547,0.075c-0.107,0.072-0.256,0.233-0.354,0.418c-0.106,0.204-0.089,0.295-0.072,0.504l-0.65,10.294
		c-0.137,0.012-0.393,0.012-0.476,0.292c-0.105,0.359-0.056,2.534,0.21,2.805c1.035,1.072,1.638,1.123,2.655,1.159v-0.071
		c-0.018-2.191,1.9-3.972,3.807-3.972c1.906,0,3.171,0.969,3.791,2.356c0.62-1.391,2.011-2.358,3.629-2.358
		c2.288,0,4.094,1.925,3.962,4.204l14.049,0.073c-0.012-0.098-0.014-0.201-0.014-0.305c0-2.193,1.779-3.972,3.97-3.972
		c2.195,0,3.972,1.779,3.972,3.972c0,0.116-0.004,0.231-0.016,0.345l4.188,0.024c0.158-0.102,0.632-1.332,0.666-1.34
		C48.309,30.181,48.346,28.489,48.127,27.392z M14.025,21.759c0,0.141-0.095,0.254-0.214,0.254H8.118
		c-0.121,0-0.214-0.113-0.214-0.254v-3.471c0-0.142,0.094-0.25,0.214-0.25h5.693c0.119,0,0.214,0.11,0.214,0.25V21.759z
		 M21.94,21.759c0,0.141-0.099,0.254-0.219,0.254h-5.693c-0.117,0-0.214-0.113-0.214-0.254v-3.471c0-0.142,0.095-0.25,0.214-0.25
		h5.693c0.121,0,0.219,0.11,0.219,0.25V21.759z M29.847,21.759c0,0.141-0.099,0.254-0.211,0.254H23.94
		c-0.117,0-0.214-0.113-0.214-0.254v-3.471c-0.002-0.142,0.096-0.25,0.214-0.25h5.696c0.116,0,0.211,0.11,0.211,0.25V21.759z
		 M37.759,21.759c0,0.141-0.095,0.254-0.215,0.254h-5.692c-0.116,0-0.213-0.113-0.213-0.254v-3.471c0-0.142,0.097-0.25,0.213-0.25
		h5.692c0.12,0,0.215,0.11,0.215,0.25V21.759z M45.217,26.61c-3.109,0.223-5.162-2.708-5.508-4.787v-3.595
		c0-0.137,0.098-0.252,0.217-0.252h2.66c0.118,0,0.514,0.115,0.514,0.252l2.232,3.095c0.047,1.7,0.087,3.323,0.1,5.034
		C45.432,26.493,45.332,26.61,45.217,26.61z"/>
	<path d="M9.077,28.487c-1.675,0-3.03,1.356-3.03,3.03s1.355,3.034,3.03,3.034c1.674,0,3.03-1.359,3.03-3.034
		C12.107,29.843,10.75,28.487,9.077,28.487z M9.077,33.02c-0.831,0-1.503-0.672-1.503-1.503c0-0.831,0.674-1.501,1.503-1.501
		c0.83,0,1.502,0.67,1.502,1.501C10.579,32.348,9.907,33.02,9.077,33.02z"/>
	<path d="M16.49,28.487c-1.675,0-3.032,1.356-3.032,3.03s1.355,3.034,3.032,3.034c1.675,0,3.03-1.359,3.03-3.034
		C19.52,29.843,18.165,28.487,16.49,28.487z M16.49,33.02c-0.831,0-1.505-0.672-1.505-1.503c0-0.831,0.676-1.501,1.505-1.501
		s1.501,0.67,1.501,1.501C17.991,32.348,17.32,33.02,16.49,33.02z"/>
	<path d="M38.425,28.487c-1.675,0-3.03,1.356-3.03,3.03c0,1.675,1.355,3.034,3.03,3.034c1.675,0,3.03-1.359,3.03-3.034
		C41.455,29.843,40.099,28.487,38.425,28.487z M38.425,33.02c-0.831,0-1.505-0.672-1.505-1.503c0-0.831,0.674-1.501,1.505-1.501
		c0.831,0,1.501,0.67,1.501,1.501C39.926,32.348,39.256,33.02,38.425,33.02z"/>
</g>
</svg>
