<svg id="Layer_1" data-name="Layer 1" xmlns="http://www.w3.org/2000/svg" viewBox="0 0 50.46 50.46"><defs><style>.cls-1{fill:#12b5e1;}</style></defs><title>transporte publico 01</title><path class="cls-1" d="M12.68,13.65V26a.9.9,0,0,0,.9.9h14.7a.9.9,0,0,0,0-1.8H14.48V13.65a.92.92,0,0,1,.92-.92H36.77a.92.92,0,0,1,.92.92V25.1H33.92a.9.9,0,0,0,0,1.8h4.67a.9.9,0,0,0,.9-.9V13.65a2.72,2.72,0,0,0-2.72-2.72H15.4A2.72,2.72,0,0,0,12.68,13.65Z"/><path class="cls-1" d="M31.69,25.1h-.1a.9.9,0,0,0,0,1.8h.1a.9.9,0,0,0,0-1.8Z"/><path class="cls-1" d="M15.71,32.12A2.84,2.84,0,1,0,18.55,35,2.84,2.84,0,0,0,15.71,32.12Zm0,4A1.12,1.12,0,1,1,16.83,35,1.12,1.12,0,0,1,15.71,36.08Z"/><path class="cls-1" d="M36.46,32.12A2.84,2.84,0,1,0,39.29,35,2.84,2.84,0,0,0,36.46,32.12Zm0,4A1.12,1.12,0,1,1,37.58,35,1.12,1.12,0,0,1,36.46,36.08Z"/><path class="cls-1" d="M44.14,15.36h-.89V10a1.8,1.8,0,0,0-1.19-1.69,48.64,48.64,0,0,0-16-2.41,48.68,48.68,0,0,0-16,2.41A1.79,1.79,0,0,0,8.92,10v5.33H8A2.14,2.14,0,0,0,5.88,17.5v4.91A2.14,2.14,0,0,0,8,24.55h.9V39a2.9,2.9,0,0,0,2.9,2.9H12v2.82A2.28,2.28,0,0,0,14.26,47h2.9a2.28,2.28,0,0,0,2.28-2.28V41.9H32.72v2.82A2.29,2.29,0,0,0,35,47H37.9a2.29,2.29,0,0,0,2.29-2.28V41.9h.15A2.91,2.91,0,0,0,43.25,39V24.55h.89a2.14,2.14,0,0,0,2.15-2.14V17.5A2.14,2.14,0,0,0,44.14,15.36ZM8,22.75a.34.34,0,0,1-.34-.34V17.5A.34.34,0,0,1,8,17.16h.9v5.59Zm9.62,22a.49.49,0,0,1-.48.48h-2.9a.48.48,0,0,1-.48-.48V41.9h3.86Zm20.75,0a.49.49,0,0,1-.49.48H35a.49.49,0,0,1-.49-.48V41.9h3.87ZM41.45,39a1.11,1.11,0,0,1-1.11,1.1H11.82a1.1,1.1,0,0,1-1.1-1.1V10a47.13,47.13,0,0,1,15.36-2.3A47.23,47.23,0,0,1,41.45,10Zm3-16.59a.35.35,0,0,1-.35.34h-.89V17.16h.89a.35.35,0,0,1,.35.34Z"/></svg>