<?xml version="1.0" encoding="utf-8"?>
<!-- Generator: Adobe Illustrator 24.0.1, SVG Export Plug-In . SVG Version: 6.00 Build 0)  -->
<svg version="1.1" id="Layer_1" xmlns="http://www.w3.org/2000/svg" xmlns:xlink="http://www.w3.org/1999/xlink" x="0px" y="0px"
	 viewBox="0 0 50.5 50.5" style="enable-background:new 0 0 50.5 50.5;" xml:space="preserve">
<g>
	<circle cx="28.383" cy="10.146" r="3.826"/>
	<path d="M36.318,22.432l-4.572-2.077l-2.781-4.396c-0.16-0.253-0.377-0.443-0.621-0.58v-0.034l-2.566-0.886
		c-0.944-0.326-1.92-0.103-2.699,0.484l0.079-0.879c0.158-1.754-1.137-3.304-2.891-3.462c-1.754-0.158-3.304,1.137-3.462,2.891
		l-0.271,3.02c-1.019,0.456-1.774,1.422-1.881,2.613l-0.21,2.331c-0.107,1.191,0.464,2.276,1.385,2.907l-0.017,0.186
		c-0.094,1.043,0.676,1.965,1.719,2.059l2.574,0.231c0.167,0.015,0.328,0.001,0.485-0.026l-1.901,7.16l-0.152,0.311L13.6,40.476
		c-0.602,0.755-0.478,1.855,0.277,2.457c0.322,0.256,0.707,0.381,1.089,0.381c0.513,0,1.023-0.226,1.368-0.658l5.27-6.61
		c0.151-0.19,0.261-0.408,0.323-0.642l1.904-7.17l3.184,7.037l1.002,7.464c0.119,0.878,0.868,1.515,1.731,1.515
		c0.078,0,0.156-0.005,0.235-0.015c0.956-0.129,1.628-1.008,1.5-1.966l-1.037-7.718c-0.023-0.169-0.07-0.333-0.14-0.487
		l-2.916-6.442l0.023,0.004l0.873-6.199l0.784,1.239c0.182,0.288,0.444,0.516,0.755,0.657l3.823,1.737l-0.899,17.765
		c-0.029,0.577,0.415,1.069,0.992,1.098c0.018,0.001,0.036,0.001,0.054,0.001c0.554,0,1.016-0.434,1.044-0.993l0.869-17.174
		c0.621-0.042,1.203-0.403,1.479-1.01C37.586,23.867,37.198,22.831,36.318,22.432z"/>
</g>
</svg>
