<?xml version="1.0" encoding="utf-8"?>
<!-- Generator: Adobe Illustrator 24.2.1, SVG Export Plug-In . SVG Version: 6.00 Build 0)  -->
<svg version="1.1" id="Layer_1" xmlns="http://www.w3.org/2000/svg" xmlns:xlink="http://www.w3.org/1999/xlink" x="0px" y="0px"
	 viewBox="0 0 50.5 50.5" style="enable-background:new 0 0 50.5 50.5;" xml:space="preserve">
<path d="M39.8,30.2V10.9c0-3.9-3.1-7-7-7H18.2c-3.9,0-7,3.1-7,7v19.4c0,1.9,1.5,3.4,3.4,3.4h3.2l-6.5,11.7c-0.3,0.6-0.1,1.3,0.5,1.7
	c0.2,0.1,0.4,0.2,0.6,0.2c0.4,0,0.8-0.2,1.1-0.6l1.2-2.1h21.3l1.2,2.1c0.2,0.4,0.6,0.6,1.1,0.6c0.2,0,0.4,0,0.6-0.2
	c0.6-0.3,0.8-1.1,0.5-1.7l-6.5-11.7h3.6C38.3,33.7,39.8,32.1,39.8,30.2z M13.6,30.2V10.9c0-2.5,2-4.6,4.6-4.6h14.6
	c2.5,0,4.6,2,4.6,4.6v19.4c0,0.5-0.4,1-1,1H14.6C14.1,31.2,13.6,30.8,13.6,30.2z M15.5,42.8l2.3-4.1h14.9l2.3,4.1H15.5z M31.9,37.1
	H18.7l1.9-3.4H30L31.9,37.1z M19.3,22.7c-1.8,0-3.3,1.5-3.3,3.3c0,1.8,1.5,3.3,3.3,3.3c1.8,0,3.3-1.5,3.3-3.3
	C22.6,24.2,21.1,22.7,19.3,22.7z M19.3,27.8c-0.9,0-1.7-0.8-1.7-1.7s0.8-1.7,1.7-1.7c0.9,0,1.7,0.8,1.7,1.7S20.2,27.8,19.3,27.8z
	 M31.7,22.7c-1.8,0-3.3,1.5-3.3,3.3c0,1.8,1.5,3.3,3.3,3.3S35,27.9,35,26C35,24.2,33.5,22.7,31.7,22.7z M31.7,27.8
	C30.8,27.8,30,27,30,26s0.8-1.7,1.7-1.7s1.7,0.8,1.7,1.7S32.6,27.8,31.7,27.8z M32.1,8.1H18.9c-1.7,0-3.1,1.4-3.1,3.1v8.5
	c0,0.4,0.4,0.8,0.8,0.8h17.8c0.4,0,0.8-0.4,0.8-0.8v-8.5C35.2,9.5,33.8,8.1,32.1,8.1z M17.4,11.3c0-0.8,0.7-1.5,1.5-1.5h5.8v9.2
	h-7.3V11.3z M33.6,18.9h-7.3V9.7h5.8c0.8,0,1.5,0.7,1.5,1.5V18.9z"/>
</svg>
