<?xml version="1.0" encoding="utf-8"?>
<!-- Generator: Adobe Illustrator 24.0.1, SVG Export Plug-In . SVG Version: 6.00 Build 0)  -->
<!DOCTYPE svg PUBLIC "-//W3C//DTD SVG 1.1//EN" "http://www.w3.org/Graphics/SVG/1.1/DTD/svg11.dtd" [
	<!ENTITY ns_extend "http://ns.adobe.com/Extensibility/1.0/">
	<!ENTITY ns_ai "http://ns.adobe.com/AdobeIllustrator/10.0/">
	<!ENTITY ns_graphs "http://ns.adobe.com/Graphs/1.0/">
	<!ENTITY ns_vars "http://ns.adobe.com/Variables/1.0/">
	<!ENTITY ns_imrep "http://ns.adobe.com/ImageReplacement/1.0/">
	<!ENTITY ns_sfw "http://ns.adobe.com/SaveForWeb/1.0/">
	<!ENTITY ns_custom "http://ns.adobe.com/GenericCustomNamespace/1.0/">
	<!ENTITY ns_adobe_xpath "http://ns.adobe.com/XPath/1.0/">
]>
<svg version="1.1" id="Layer_1" xmlns:x="&ns_extend;" xmlns:i="&ns_ai;" xmlns:graph="&ns_graphs;"
	 xmlns="http://www.w3.org/2000/svg" xmlns:xlink="http://www.w3.org/1999/xlink" x="0px" y="0px" viewBox="0 0 50.46 50.46"
	 enable-background="new 0 0 50.46 50.46" xml:space="preserve">
<metadata>
	<sfw  xmlns="&ns_sfw;">
		<slices></slices>
		<sliceSourceBounds  bottomLeftOrigin="true" height="26.75" width="41.325" x="662.338" y="265.125"></sliceSourceBounds>
	</sfw>
</metadata>
<g>
	<path d="M17.502,24.54c-0.316-0.526-0.831-0.833-1.439-1.02c-2.918-0.888-6.899-1.358-10.034-1.963
		c-0.327-0.057-0.553,0.084-0.635,0.264c-0.133,0.288-0.171,0.764-0.169,1.325l8.766,1.836c0.999,0.352,1.854,1.035,2.308,1.972
		l2.841,5.863c4.409-0.117,8.672-0.298,13.025-0.399c-0.005-0.734,0.101-1.52,0.303-2.195l-11.586-0.043L17.502,24.54z"/>
	<path d="M10.639,26.381c-3.353,0-6.071,2.72-6.071,6.071s2.719,6.073,6.071,6.073s6.071-2.721,6.071-6.073
		C16.71,29.102,13.992,26.381,10.639,26.381z M10.639,34.927c-1.363,0-2.469-1.108-2.469-2.474c0-1.363,1.106-2.469,2.469-2.469
		c1.366,0,2.47,1.106,2.47,2.469C13.109,33.819,12.005,34.927,10.639,34.927z"/>
	<path d="M39.724,26.381c-2.376,0-4.422,1.359-5.422,3.334c-0.446,0.842-0.696,1.802-0.696,2.82c0,3.354,2.721,6.07,6.073,6.07
		c2.368,0,4.417-1.355,5.422-3.333c0.441-0.84,0.691-1.799,0.691-2.82C45.791,29.102,43.073,26.381,39.724,26.381z M41.887,33.641
		c-0.417,0.765-1.233,1.286-2.169,1.286c-1.366,0-2.472-1.108-2.472-2.474c0-0.385,0.085-0.747,0.245-1.071l0.013-0.027
		c0.417-0.771,1.236-1.294,2.174-1.294c1.363,0,2.472,1.108,2.472,2.474C42.15,32.934,42.055,33.306,41.887,33.641z"/>
	<path d="M6.532,19.559c0.629,0.421,1.144,0.639,1.282,1.385l8.11,1.519c1.015,0.156,2.15,0.8,2.729,1.597
		c1.114,1.535,2.212,3.468,3.329,5.148l7.994-0.016c0.659-2.36,2.086-4,4.337-5.026l0.933,2.373c0.991-0.654,2.158-1.062,3.415-1.13
		c-0.085-0.218-1.063-2.49-0.925-2.498c1.456-0.607,3.583-0.708,6.131-0.122c0.133-0.389-0.311-1.345-0.513-1.737
		c-0.462-0.89-6.163-3.505-7.662-3.76l0.027-0.407l0.508-0.04c0.234-1.312-0.97-3.726-1.712-4.945l-1.98-0.047l-0.391,1.119
		l-2.652-0.218l-0.175,1.102l2.522,1.257l0.013,1.706L32.607,17l-0.027,0.563l-0.058,0.145l-6.671,1.984
		c-5.636-0.787-11.169-1.646-16.856-2.038l-0.639,0.969l-1.82-0.359c-0.223-0.028-0.3-0.057-0.485-0.054
		c-0.296,0-0.623,0.104-0.411,0.629C5.752,19.123,6.268,19.381,6.532,19.559z"/>
	<path d="M44.779,23.644l-2.618-0.248c-0.375-0.035-0.901,0.395-0.898,0.877v0.998c0.513,0.148,1.007,0.34,1.478,0.571v-0.274
		c0-0.363,0.08-0.773,0.29-0.727l0.295,0.062c0.213,0.044,0.396,0.299,0.396,0.664v0.842c0.837,0.554,1.568,1.253,2.171,2.056
		v-2.909C45.892,24.824,45.73,23.733,44.779,23.644z"/>
</g>
</svg>
