<?xml version="1.0" encoding="utf-8"?>
<!-- Generator: Adobe Illustrator 24.0.1, SVG Export Plug-In . SVG Version: 6.00 Build 0)  -->
<!DOCTYPE svg PUBLIC "-//W3C//DTD SVG 1.1//EN" "http://www.w3.org/Graphics/SVG/1.1/DTD/svg11.dtd" [
	<!ENTITY ns_extend "http://ns.adobe.com/Extensibility/1.0/">
	<!ENTITY ns_ai "http://ns.adobe.com/AdobeIllustrator/10.0/">
	<!ENTITY ns_graphs "http://ns.adobe.com/Graphs/1.0/">
	<!ENTITY ns_vars "http://ns.adobe.com/Variables/1.0/">
	<!ENTITY ns_imrep "http://ns.adobe.com/ImageReplacement/1.0/">
	<!ENTITY ns_sfw "http://ns.adobe.com/SaveForWeb/1.0/">
	<!ENTITY ns_custom "http://ns.adobe.com/GenericCustomNamespace/1.0/">
	<!ENTITY ns_adobe_xpath "http://ns.adobe.com/XPath/1.0/">
]>
<svg version="1.1" id="Layer_1" xmlns:x="&ns_extend;" xmlns:i="&ns_ai;" xmlns:graph="&ns_graphs;"
	 xmlns="http://www.w3.org/2000/svg" xmlns:xlink="http://www.w3.org/1999/xlink" x="0px" y="0px" viewBox="0 0 50.46 50.46"
	 enable-background="new 0 0 50.46 50.46" xml:space="preserve">
<metadata>
	<sfw  xmlns="&ns_sfw;">
		<slices></slices>
		<sliceSourceBounds  bottomLeftOrigin="true" height="24.79" width="42.871" x="661.565" y="266.105"></sliceSourceBounds>
	</sfw>
</metadata>
<g>
	<path d="M41.246,26.963c1.182,0,2.28,0.358,3.197,0.97l0.864-1.289c-0.413-2-4.642-3.298-5.578-3.543
		c-0.817-0.215-1.81-0.315-2.689-0.511c-0.172-0.056-0.074-0.149-0.32-0.252l-2.66-1.614c-0.177-0.115-0.478,0.128-0.721-0.051
		l-8.863-6.531l0.007-0.252l-0.441-0.425l-8.869-0.629c-0.168,0.018-0.229,0.095-0.254,0.221l-0.159,1.164
		c-0.838,0.654-6.083,4.758-6.321,5.421L6.907,22.69l-2.144-0.156l-0.968,1.965l0.105,1.88c0.675,0.55,1.526,1.124,2.142,1.692
		c0.051,0.043,0.103,0.091,0.154,0.134c0.907-0.652,2.02-1.036,3.223-1.036c3.054,0,5.532,2.474,5.532,5.53
		c0,0.227-0.012,0.447-0.039,0.664l5.373-0.291c0.087,0.153,0.178,0.306,0.264,0.458h12.131c0.728-0.253,1.263-0.965,1.82-1.519
		c0.16-0.153,0.313-0.368,0.485-0.511c0.119-0.1,0.306-0.119,0.501-0.115l0.392-0.721C36.697,28.501,38.791,26.963,41.246,26.963z
		 M40.656,24.244c0.521,0.06,1.18,0.093,1.676,0.238c0.523,0.152,0.848,0.408,1.089,0.621c0.186,0.169,1.012,0.912,1.022,1.086
		c-0.246,0.08-1.796-0.116-2.075-0.214C42.146,25.896,38.918,24.05,40.656,24.244z M32.408,21.92l-1.38,1.916
		c-0.091,0.125-0.167,0.223-0.466,0.226l-4.315-0.221c-0.903-0.043-1.74-0.694-2.654-0.687L8.426,22.832L9.25,20.42l5.362-4.421
		l-1.02,6.656l3.91,0.063l-0.567-1.352c0.682-0.164,1.638-3.692-1.328-3.166l0.481-4.052l7.392,0.525
		c0.005,0.289-0.056,0.282,0.162,0.424l8.689,6.428C32.477,21.633,32.475,21.738,32.408,21.92z"/>
	<path d="M46.621,25.511c-0.105-0.217-0.425-0.322-0.578-0.254c-0.248,0.11-0.186,1.143-0.604,1.776l-0.716,1.094l0.657,0.63
		l0.879-1.33C46.528,26.767,46.767,25.817,46.621,25.511z"/>
	<path d="M41.244,27.789c-2.717,0-4.914,2.202-4.919,4.919c0,2.718,2.202,4.917,4.919,4.917c2.717,0,4.919-2.199,4.919-4.917
		S43.956,27.789,41.244,27.789z M41.244,34.709c-1.106,0-2.001-0.898-2.001-2.006c0-1.101,0.896-1.999,2.001-1.999
		c1.106,0,2.001,0.898,2.001,1.999C43.245,33.812,42.349,34.709,41.244,34.709z"/>
	<path d="M9.414,27.789c-2.716,0-4.917,2.202-4.917,4.919s2.201,4.917,4.917,4.917c2.717,0,4.918-2.199,4.918-4.917
		S12.127,27.789,9.414,27.789z M9.414,34.709c-1.106,0-2-0.898-2-2.006c0-1.101,0.894-1.999,2-1.999c1.106,0,2,0.898,2,1.999
		C11.413,33.812,10.519,34.709,9.414,34.709z"/>
	<path d="M31.866,21.551l-1.478-0.25l-0.907,0.98l-1.552-0.541l0.549-1.1c0.077-0.16,0.012-0.352-0.143-0.431
		c-0.163-0.078-0.354-0.012-0.43,0.144l-1.342,2.702c-0.079,0.156-0.012,0.35,0.143,0.429c0.16,0.078,0.349,0.012,0.43-0.144
		l0.587-1.181c0.01,0.01,0.019,0.017,0.029,0.024l1.132,0.735l-0.692,0.746l2.378,0.133c0.181-0.279,1.49-1.883,1.485-2.091
		C32.052,21.656,31.983,21.57,31.866,21.551z"/>
</g>
</svg>
