<svg id="Layer_1" data-name="Layer 1" xmlns="http://www.w3.org/2000/svg" viewBox="0 0 50.46 50.46"><defs><style>.cls-1{fill:#65b4e1;}</style></defs><title>trigo</title><path class="cls-1" d="M33.15,30.05a.74.74,0,0,0-.14-1h0a10.52,10.52,0,0,0-1-.72c3.8-.58,6.3-4.32,6.4-4.48a.74.74,0,0,0-.14-1h0a12.16,12.16,0,0,0-5-2.36A7.37,7.37,0,0,0,35,19c2.47-3,1.83-7.44,1.8-7.62a.74.74,0,0,0-.75-.63c-.19,0-4.7.19-7.17,3.16a7.25,7.25,0,0,0-1,1.71,12.35,12.35,0,0,0-3-4.12h0a.74.74,0,0,0-1,0c-.14.13-3.43,3.19-3.39,7a10.52,10.52,0,0,0-.88-.88h0a.74.74,0,0,0-1,0c-.13.12-3.13,2.92-3.37,6.52-.36-.38-.62-.61-.66-.64h0a.74.74,0,0,0-1,0c-.14.13-3.45,3.21-3.39,7.06,0,3.41,2.7,6.13,3.42,6.8L7.39,44.92a.74.74,0,0,0,1.12,1l6.29-7.47c1.14.8,3.92,2.46,6.91,2,3.81-.57,6.32-4.32,6.43-4.48A.74.74,0,0,0,28,35h0s-.3-.25-.74-.54C30.77,33.61,33,30.2,33.15,30.05ZM20,32.65a8.05,8.05,0,0,0-2.47,1.05,8.05,8.05,0,0,0,.64-2.6A2.78,2.78,0,0,0,20,32.65Zm5.52-6a7.8,7.8,0,0,0-3,1.16,7.8,7.8,0,0,0,.66-3.12A6.3,6.3,0,0,0,25.53,26.66Zm6.22.25c-2.36.35-4.68-1-5.72-1.69.79-1,2.63-2.93,5-3.28s4.68,1,5.72,1.69C36,24.61,34.11,26.56,31.75,26.9Zm3.65-14.57c.06,1.26,0,3.94-1.54,5.77s-4.15,2.39-5.39,2.56c-.06-1.26,0-3.94,1.54-5.77S34.16,12.5,35.41,12.33Zm-11,.81c.86.91,2.55,3,2.59,5.38S25.4,23,24.56,24C23.7,23.06,22,21,22,18.59S23.57,14.08,24.41,13.14ZM16.73,24.76c0-2.38,1.59-4.52,2.43-5.45.86.91,2.55,3,2.58,5.38s-1.59,4.51-2.43,5.45a11.53,11.53,0,0,1-1.64-2.22,7.65,7.65,0,0,1-.5-1.08A6,6,0,0,1,16.73,24.76ZM14.31,36c-.86-.91-2.55-3-2.59-5.38s1.59-4.52,2.43-5.45a11.41,11.41,0,0,1,1.63,2.2,5.45,5.45,0,0,1,.52,1.12,6,6,0,0,1,.43,2.07C16.77,33,15.15,35.09,14.31,36ZM21.5,39c-2.36.35-4.69-1-5.73-1.69.79-1,2.62-2.92,5-3.27a6,6,0,0,1,2.13.1c.42.12.71.17,1.15.32a11.52,11.52,0,0,1,2.45,1.27C25.7,36.66,23.86,38.61,21.5,39Zm5-5.89a6,6,0,0,1-2.12-.1,5.15,5.15,0,0,1-1.15-.32,11.52,11.52,0,0,1-2.45-1.27c.79-1,2.62-2.92,5-3.27s4.69,1,5.73,1.69C30.71,30.78,28.86,32.73,26.51,33.07Z"/><path class="cls-1" d="M37.71,9.85a.74.74,0,0,0,1-.08l5-5.87a.74.74,0,1,0-1.12-1l-5,5.87A.74.74,0,0,0,37.71,9.85Z"/><path class="cls-1" d="M33.73,9.68a.74.74,0,0,0,1-.08l5-5.87a.74.74,0,1,0-1.12-1l-5,5.87A.74.74,0,0,0,33.73,9.68Z"/><path class="cls-1" d="M37.62,19.65a.74.74,0,0,0,1-.08l5-5.87a.74.74,0,1,0-1.12-1l-5,5.87A.74.74,0,0,0,37.62,19.65Z"/><path class="cls-1" d="M28.05,11.51a.74.74,0,0,0,1-.08l5-5.87A.74.74,0,1,0,33,4.6l-5,5.87A.74.74,0,0,0,28.05,11.51Z"/><path class="cls-1" d="M38.52,13.75a.74.74,0,0,0,1-.08l5-5.87a.74.74,0,1,0-1.12-1l-5,5.87A.74.74,0,0,0,38.52,13.75Z"/><circle class="cls-1" cx="6.5" cy="47.18" r="0.77" transform="translate(-17.28 5.92) rotate(-22.11)"/></svg>