<svg id="Layer_1" data-name="Layer 1" xmlns="http://www.w3.org/2000/svg" viewBox="0 0 50.46 50.46"><defs><style>.cls-1{fill:#65b4e1;}</style></defs><title>trigo 2</title><path class="cls-1" d="M34.27,21.43a.93.93,0,0,0-.91-.83s-.24,0-.58,0A10.49,10.49,0,0,0,34.42,14a.93.93,0,0,0-.91-.83,11.62,11.62,0,0,0-4.55,1,6.78,6.78,0,0,0,.22-1.62c0-3.67-3.1-6.56-3.23-6.68a.93.93,0,0,0-1.24,0c-.14.12-3.33,2.94-3.37,6.61a6.71,6.71,0,0,0,.13,1.37,11.75,11.75,0,0,0-4.15-1,.92.92,0,0,0-.94.79,10.49,10.49,0,0,0,1.37,6.71c-.33,0-.54,0-.58,0a.93.93,0,0,0-.94.79,10.73,10.73,0,0,0,1.14,6.35l-.35,0h0a.93.93,0,0,0-.92.79c0,.18-.61,4.4,1.75,7.22,1.93,2.29,5.09,2.82,6.34,2.94L24,43.92a.93.93,0,0,0,.91.95h0a.93.93,0,0,0,.93-.91L26,38.33a9.55,9.55,0,0,0,6-2.64c2.47-2.71,2.06-7,2-7.14a.93.93,0,0,0-.91-.83h-.34A10.73,10.73,0,0,0,34.27,21.43ZM22.41,31.55a7.66,7.66,0,0,1,1.39,4.86,7.66,7.66,0,0,1-4.55-2.21,7.66,7.66,0,0,1-1.39-4.87A10.09,10.09,0,0,1,20,29.9a4.79,4.79,0,0,1,1,.47h0A5.27,5.27,0,0,1,22.41,31.55ZM18,22.22a7.63,7.63,0,0,1,4.55,2.21,7.66,7.66,0,0,1,1.39,4.86,10.38,10.38,0,0,1-2.13-.57,6.82,6.82,0,0,1-1-.47,5.26,5.26,0,0,1-1.46-1.17A7.66,7.66,0,0,1,18,22.22Zm.15-7.46A7.66,7.66,0,0,1,22.72,17a7.66,7.66,0,0,1,1.39,4.86,7.66,7.66,0,0,1-4.55-2.21A7.66,7.66,0,0,1,18.17,14.76Zm9.16-2.26a7.66,7.66,0,0,1-2.11,4.6,7.66,7.66,0,0,1-2-4.64,7.66,7.66,0,0,1,2.11-4.6A7.66,7.66,0,0,1,27.32,12.5ZM31,19.86a7.66,7.66,0,0,1-4.64,2A7.66,7.66,0,0,1,28,17.07a7.66,7.66,0,0,1,4.64-2A7.66,7.66,0,0,1,31,19.86Zm-2.64,9a10.35,10.35,0,0,1-2.16.48,7.63,7.63,0,0,1,1.59-4.8,7.66,7.66,0,0,1,4.64-2,7.66,7.66,0,0,1-1.59,4.8,5.27,5.27,0,0,1-1.51,1.11A4.53,4.53,0,0,1,28.37,28.86Zm-.71,2.8a5.26,5.26,0,0,1,1.5-1.11l.37-.17c.19-.09.37-.17.61-.26a10.35,10.35,0,0,1,2.15-.48,7.66,7.66,0,0,1-1.59,4.8,7.65,7.65,0,0,1-4.64,2A7.63,7.63,0,0,1,27.66,31.66Z"/></svg>