<svg id="Layer_1" data-name="Layer 1" xmlns="http://www.w3.org/2000/svg" viewBox="0 0 50.46 50.46"><defs><style>.cls-1{fill:#65b4e1;}</style></defs><title>tristeza</title><path class="cls-1" d="M25.23,42.92A17.69,17.69,0,1,1,42.92,25.23,17.71,17.71,0,0,1,25.23,42.92Zm0-33.37A15.69,15.69,0,1,0,40.92,25.23,15.71,15.71,0,0,0,25.23,9.54Z"/><path class="cls-1" d="M19.41,35.73a.5.5,0,0,1-.3-.9A10.76,10.76,0,0,1,25.23,33a12.25,12.25,0,0,1,6.1,1.81.5.5,0,0,1-.55.84A11.43,11.43,0,0,0,25.23,34a9.87,9.87,0,0,0-5.52,1.63A.5.5,0,0,1,19.41,35.73Z"/><path class="cls-1" d="M37.6,31.64a1.94,1.94,0,1,1-3.89,0c0-1.07,1.82-3.38,1.94-3.38S37.6,30.56,37.6,31.64Z"/><path class="cls-1" d="M13.94,23.11a.5.5,0,0,1-.12-1,8.68,8.68,0,0,0,4.32-2.91.5.5,0,1,1,.8.59,9.55,9.55,0,0,1-4.88,3.29Z"/><path class="cls-1" d="M36.52,23.11l-.12,0a9.55,9.55,0,0,1-4.88-3.29.5.5,0,1,1,.8-.59,8.68,8.68,0,0,0,4.32,2.91.5.5,0,0,1-.12,1Z"/><ellipse class="cls-1" cx="16.75" cy="26.3" rx="1.02" ry="1.75"/><ellipse class="cls-1" cx="33.71" cy="26.3" rx="1.02" ry="1.75"/></svg>