<svg id="Layer_1" data-name="Layer 1" xmlns="http://www.w3.org/2000/svg" viewBox="0 0 50.46 50.46"><defs><style>.cls-1{fill:#65b4e1;}</style></defs><title>tuberias</title><path class="cls-1" d="M23.92,16.29c1.53,0,2.07.29,2.24,2a.64.64,0,0,0,.64.58h.07a.64.64,0,0,0,.58-.71C27.22,15.88,26.23,15,23.92,15a.64.64,0,1,0,0,1.29Z"/><path class="cls-1" d="M22.51,15.5a.64.64,0,0,0-.64-.64h-.28a.64.64,0,1,0,0,1.29h.28A.64.64,0,0,0,22.51,15.5Z"/><path class="cls-1" d="M26.54,34c-1.53,0-2.07-.29-2.24-2a.65.65,0,0,0-.71-.58.64.64,0,0,0-.58.71c.23,2.27,1.22,3.16,3.52,3.16a.64.64,0,1,0,0-1.29Z"/><path class="cls-1" d="M28.88,34.13H28.6a.64.64,0,1,0,0,1.29h.28a.64.64,0,1,0,0-1.29Z"/><path class="cls-1" d="M40.8,26.16h-.27a2.48,2.48,0,0,0-2.46,2.2H30v-.55a2.48,2.48,0,0,0,2.27-2.47v-.27A2.48,2.48,0,0,0,30,22.62v-5.5a4.79,4.79,0,0,0-4.79-4.79H12.4A2.49,2.49,0,0,0,9.92,9.94H9.66a2.49,2.49,0,0,0-2.49,2.49v9.38A2.49,2.49,0,0,0,9.66,24.3h.27a2.49,2.49,0,0,0,2.48-2.39h8.06v.69h-.05a2.49,2.49,0,0,0-2.49,2.49v.27a2.49,2.49,0,0,0,2.49,2.49h0v5.32a4.79,4.79,0,0,0,4.79,4.79H38V38a2.49,2.49,0,0,0,2.49,2.49h.27A2.49,2.49,0,0,0,43.29,38V28.65A2.49,2.49,0,0,0,40.8,26.16ZM11,21.81a1.1,1.1,0,0,1-1.1,1.1H9.66a1.1,1.1,0,0,1-1.1-1.1V12.43a1.1,1.1,0,0,1,1.1-1.1h.27a1.1,1.1,0,0,1,1.1,1.1Zm1.39-1.51V13.94H25.25a3.18,3.18,0,0,1,3.17,3.17v5.48H22.07v-2.3Zm6.9,5.05v-.27a1.1,1.1,0,0,1,1.1-1.1h9.38a1.1,1.1,0,0,1,1.1,1.1v.27a1.1,1.1,0,0,1-1.1,1.1H20.41A1.1,1.1,0,0,1,19.31,25.35Zm5.91,11A3.18,3.18,0,0,1,22,33.16V27.84h6.35V30H38v6.35ZM41.9,38a1.1,1.1,0,0,1-1.1,1.1h-.27a1.1,1.1,0,0,1-1.1-1.1V28.65a1.1,1.1,0,0,1,1.1-1.1h.27a1.1,1.1,0,0,1,1.1,1.1Z"/></svg>