<svg id="Layer_1" data-name="Layer 1" xmlns="http://www.w3.org/2000/svg" viewBox="0 0 50.46 50.46"><defs><style>.cls-1{fill:#65b4e1;}</style></defs><title>turno</title><path class="cls-1" d="M36.07,5.27l-.33-.08a4.67,4.67,0,0,0-3.39.62A5.57,5.57,0,0,0,30,9.54c-.92,4.22-1.59,5.63-4.73,5.91-3.18-.32-3.83-1.73-4.71-6a5.58,5.58,0,0,0-2.31-3.75,4.7,4.7,0,0,0-3.39-.65l-.32.07a1,1,0,0,0-.8,1L13.6,33.6a1,1,0,0,0,1.24,1l.49-.11a1.88,1.88,0,0,1,1.23.25,2.93,2.93,0,0,1,1.07,2c.86,4.13,1.83,7.82,7.35,8.29h.23c5.54-.42,6.55-4.08,7.45-8.22a3,3,0,0,1,1.07-1.93A2,2,0,0,1,35,34.59l.5.11a1,1,0,0,0,1.25-1l.14-27.44A1,1,0,0,0,36.07,5.27Zm-.85,27.85a3.39,3.39,0,0,0-2.29.47,4.34,4.34,0,0,0-1.74,2.9c-.86,4-1.67,6.68-6.06,7h-.05c-4.38-.39-5.16-3.13-6-7.14a4.28,4.28,0,0,0-1.72-2.88A3.38,3.38,0,0,0,15.11,33l.14-26.46a3.28,3.28,0,0,1,2.2.46A4.15,4.15,0,0,1,19.1,9.79c.79,3.81,1.61,6.75,6.1,7.16h.13c4.45-.36,5.31-3.29,6.14-7.1a4.15,4.15,0,0,1,1.68-2.78,3.23,3.23,0,0,1,2.2-.43Z"/><path class="cls-1" d="M20.68,22.51a2.76,2.76,0,0,0-2.67,3v0a2.68,2.68,0,1,0,5.32,0v0A2.73,2.73,0,0,0,20.68,22.51Zm1.05,3c0,.91-.41,1.56-1.05,1.56s-1.07-.66-1.07-1.58v0c0-.92.42-1.57,1.05-1.57s1.07.67,1.07,1.59Z"/><path class="cls-1" d="M26.68,22.51a2.76,2.76,0,0,0-2.67,3v0a2.68,2.68,0,1,0,5.32,0v0A2.73,2.73,0,0,0,26.68,22.51Zm1.05,3c0,.91-.41,1.56-1.05,1.56s-1.07-.66-1.07-1.58v0c0-.92.42-1.57,1.05-1.57s1.07.67,1.07,1.59Z"/><polygon class="cls-1" points="29.61 23.07 29.92 24.3 30.89 24.07 30.89 28.38 32.45 28.38 32.45 22.59 31.3 22.59 29.61 23.07"/><rect class="cls-1" x="18.01" y="29.82" width="14.45" height="1.5" rx="0.75" ry="0.75"/><rect class="cls-1" x="18.01" y="19.69" width="14.45" height="1.5" rx="0.75" ry="0.75"/></svg>