<?xml version="1.0" encoding="utf-8"?>
<!-- Generator: Adobe Illustrator 22.1.0, SVG Export Plug-In . SVG Version: 6.00 Build 0)  -->
<svg version="1.1" id="Layer_1" xmlns="http://www.w3.org/2000/svg" xmlns:xlink="http://www.w3.org/1999/xlink" x="0px" y="0px"
	 viewBox="0 0 50.5 50.5" style="enable-background:new 0 0 50.5 50.5;" xml:space="preserve">
<style type="text/css">
	.st0{fill:#12B5E1;}
</style>
<g>
	<g>
		<path class="st0" d="M31.1,40.5c2.7-1,5.2-2.6,7.3-4.9C36.3,37.9,33.8,39.5,31.1,40.5z"/>
		<path class="st0" d="M18.2,36.7c1.3,0.6,2.7,1,4.1,1.2C20.9,37.6,19.5,37.2,18.2,36.7z"/>
		<path class="st0" d="M22.3,37.8c0.7,0.1,1.3,0.2,2,0.2C23.6,38,23,37.9,22.3,37.8z"/>
		<path class="st0" d="M14,33.9c-0.4-0.4-0.8-0.8-1.2-1.2C13.2,33.1,13.6,33.5,14,33.9z"/>
		<path class="st0" d="M10.1,35.2c0.4,0.5,0.9,1,1.4,1.5C11,36.2,10.5,35.7,10.1,35.2z"/>
		<path class="st0" d="M16.7,40.1c-1.9-0.8-3.7-2-5.3-3.4C13.1,38.1,14.9,39.3,16.7,40.1z"/>
		<path class="st0" d="M24.3,41.7c-0.8,0-1.6-0.1-2.4-0.2C22.7,41.7,23.5,41.7,24.3,41.7z"/>
		<path class="st0" d="M16.7,40.1c1.7,0.7,3.4,1.2,5.1,1.4C20.1,41.3,18.4,40.8,16.7,40.1z"/>
		<path class="st0" d="M41.1,26c-0.1,0.4-0.2,0.7-0.3,1.1c-0.2,0.9-0.5,1.7-0.9,2.5c-0.7,1.5-1.6,3-2.6,4.2l1.5,1.2
			c-0.2,0.2-0.3,0.4-0.5,0.6c0.2-0.2,0.3-0.4,0.5-0.6l0,0c-0.2,0.2-0.3,0.4-0.5,0.6c-2.1,2.3-4.6,3.9-7.3,4.9
			c-0.2,0.1-0.4,0.1-0.6,0.2c-2,0.7-4.1,1-6.3,1c-0.8,0-1.6-0.1-2.4-0.2c-1.8-0.2-3.5-0.7-5.1-1.4c-1.9-0.8-3.7-2-5.3-3.4
			c-0.5-0.5-1-1-1.4-1.5c-1.1-1.3-2.1-2.7-2.8-4.2L4,32.6c0.9,1.8,2,3.5,3.4,5c0.5,0.6,1.1,1.2,1.7,1.7c1.9,1.8,4,3.1,6.3,4.1
			c2,0.9,4,1.4,6.1,1.7c3.5,0.5,7,0.1,10.3-1c3.5-1.2,6.7-3.2,9.3-6.1c0.2-0.2,0.4-0.5,0.6-0.7c1.5-1.7,2.6-3.6,3.4-5.6
			c0.5-1.1,0.9-2.2,1.1-3.4c0.1-0.5,0.2-0.9,0.3-1.4L41.1,26z"/>
		<path class="st0" d="M40.9,26.6c0,0,0-0.1,0-0.1C41,26.5,41,26.5,40.9,26.6z"/>
		<path class="st0" d="M10,32.1c0.4,0.7,0.9,1.3,1.4,1.9c1.7,1.9,3.7,3.4,6,4.5c1.5,0.6,3,1.1,4.7,1.3c0.7,0.1,1.5,0.2,2.2,0.2
			c2,0,3.9-0.3,5.6-1c2.9-1,5.5-2.8,7.5-5.1l-0.1,0c0,0,0,0,0,0L36,32.7c-0.1,0.1-0.1,0.1-0.2,0.2c-0.1,0.1-0.1,0.1-0.2,0.2
			c0,0,0,0,0,0c0,0,0,0,0,0c-0.3,0.3-0.6,0.6-0.9,0.9c0.3-0.3,0.6-0.6,0.9-0.9c-1.6,1.7-3.5,3-5.5,3.8c-0.3,0.1-0.6,0.2-0.9,0.3
			c-1.4,0.5-2.8,0.7-4.2,0.8c-0.3,0-0.5,0-0.8,0c-0.7,0-1.3-0.1-2-0.2c-1.4-0.2-2.8-0.6-4.1-1.2c-1.5-0.7-2.9-1.6-4.2-2.8
			c-0.4-0.4-0.8-0.8-1.2-1.2c-0.1-0.1-0.1-0.1-0.2-0.2c-0.4-0.5-0.8-1-1.1-1.5c-0.3-0.5-0.7-1.1-0.9-1.6l1.8-0.9
			c0.5,1,1.2,2,1.9,2.9c0.3,0.4,0.7,0.7,1,1c1.1,1,2.3,1.8,3.6,2.4c1.2,0.5,2.4,0.9,3.6,1c2,0.3,4.1,0.1,6-0.6
			c2.1-0.7,4-1.9,5.5-3.6c0.1-0.1,0.2-0.2,0.3-0.4c0.9-1,1.6-2.1,2.1-3.3c0.3-0.6,0.5-1.2,0.7-1.9c0.1-0.3,0.2-0.6,0.2-0.9
			c0-0.1,0-0.2,0.1-0.3c0.1-0.7,0.2-1.5,0.2-2.2h2h1.7v-1.6v-16h-9.2v2.4v15.1c0,1.4-0.2,2.6-0.5,3.7c-0.4,1.1-0.9,2-1.5,2.8
			c-0.7,0.8-1.5,1.3-2.5,1.8c-1,0.4-2.1,0.6-3.3,0.6c-1.2,0-2.3-0.2-3.3-0.6c-1-0.4-1.8-1-2.5-1.8c-0.7-0.8-1.2-1.7-1.5-2.8
			c-0.4-1.1-0.5-2.3-0.5-3.7v-15V5.2H7.3v16v2.2c0,0.6,0,1.1,0.1,1.6C7.7,27.6,8.6,30,10,32.1z M34.4,34.3c-0.2,0.2-0.4,0.4-0.7,0.5
			C33.9,34.7,34.1,34.5,34.4,34.3z M32.7,35.6c-0.2,0.2-0.5,0.3-0.7,0.4C32.2,35.8,32.5,35.7,32.7,35.6z"/>
		<path class="st0" d="M40.5,28.1c0-0.1,0-0.1,0.1-0.2C40.6,27.9,40.6,28,40.5,28.1z"/>
	</g>
</g>
</svg>
