<?xml version="1.0" encoding="utf-8"?>
<!-- Generator: Adobe Illustrator 24.1.2, SVG Export Plug-In . SVG Version: 6.00 Build 0)  -->
<svg version="1.1" id="Layer_1" xmlns="http://www.w3.org/2000/svg" xmlns:xlink="http://www.w3.org/1999/xlink" x="0px" y="0px"
	 viewBox="0 0 50.46 50.46" style="enable-background:new 0 0 50.46 50.46;" xml:space="preserve">
<path id="Group_17462" transform="translate(-128.343 -191.329)" d="M153.585,193.772c-6.655,0-12.049,5.395-12.049,12.049
	s5.395,12.049,12.049,12.049c6.655,0,12.049-5.395,12.049-12.049l0,0C165.627,199.17,160.237,193.779,153.585,193.772z
	 M153.729,217.855h-0.289c0.05,0,0.094,0.016,0.144,0.016C153.635,217.871,153.679,217.858,153.729,217.855z M169.8,217.855
	c-1.192-0.004-2.338,0.46-3.193,1.29c-7.232,7.109-18.826,7.109-26.058,0c-0.855-0.831-2.001-1.294-3.193-1.29l0,0
	c-2.538-0.025-4.617,2.012-4.642,4.55c-0.004,0.391,0.042,0.781,0.137,1.161c3.16,11.444,14.999,18.159,26.442,14.999
	c7.29-2.013,12.986-7.709,14.999-14.999c0.616-2.463-0.882-4.958-3.344-5.574c-0.38-0.095-0.77-0.141-1.161-0.137H169.8z"/>
</svg>
