<svg id="Layer_1" data-name="Layer 1" xmlns="http://www.w3.org/2000/svg" viewBox="0 0 50.46 50.46"><defs><style>.cls-1{fill:#12b5e1;}</style></defs><title>uvas</title><path class="cls-1" d="M42,6.82C37.43,5.47,31,7.09,27,15.57a11.57,11.57,0,0,0-2.52-4.79,9.14,9.14,0,0,0-6.14-3.17c0-.12,0-.27-.05-.47l0-.15c-.3-3.32-1.94-5.26-4.86-5.77a1.23,1.23,0,0,0-.27,0A1.58,1.58,0,0,0,11.84,2a3.74,3.74,0,0,0-.37.92,5.53,5.53,0,0,0-1.17-.25l-.44,0A8.24,8.24,0,0,0,7,3.21,1.58,1.58,0,0,0,6.1,4.3a5,5,0,0,0,.33,3.22c0,.09.09.17.14.26A6.89,6.89,0,0,0,5.24,9.24a12.9,12.9,0,0,0-1.06,2.39,1.56,1.56,0,0,0,.62,1.85,13.56,13.56,0,0,0,2.31,1.24,6.52,6.52,0,0,0,1.94.35c0,.1,0,.2,0,.3a5,5,0,0,0,1.71,2.75,1.55,1.55,0,0,0,1,.35,1.47,1.47,0,0,0,.46-.07,8.82,8.82,0,0,0,3-1.62A4.47,4.47,0,0,0,16,16a3.72,3.72,0,0,0,.82.48,1.54,1.54,0,0,0,.56.1,1.56,1.56,0,0,0,1.34-.76c.09-.14,2-3.38.57-6.51a8,8,0,0,1,4.09,2.52,10.1,10.1,0,0,1,2.3,4.65,5.29,5.29,0,0,0-8.36,4.32A5.21,5.21,0,0,0,18,23.34H17.8a5.46,5.46,0,0,0-.42,10.9,5.46,5.46,0,0,0-.69,2.65,5.6,5.6,0,0,0,5.6,5.59h.09a4.7,4.7,0,0,0-.4,1.9,4.9,4.9,0,0,0,9.79,0,4.7,4.7,0,0,0-.4-1.9h.09a5.6,5.6,0,0,0,5.6-5.59,5.46,5.46,0,0,0-.69-2.65A5.46,5.46,0,0,0,36,23.33h-.16a5.21,5.21,0,0,0,.67-2.54,5.3,5.3,0,0,0-5.3-5.3,5.24,5.24,0,0,0-2.72.77C33,6.4,40.07,7.9,41.51,8.32c2.29.69,3.72,2.86,3.18,4.84a2.69,2.69,0,0,1-3.32,1.91A2,2,0,0,1,40,12.6a1.43,1.43,0,0,1,.68-.88,1.46,1.46,0,0,1,1.1-.14,1,1,0,0,1,.71,1.23.79.79,0,0,0,.55,1,.79.79,0,0,0,1-.56,2.58,2.58,0,0,0-1.81-3.16,3,3,0,0,0-3.71,2.13A3.59,3.59,0,0,0,41,16.59a4.28,4.28,0,0,0,5.25-3C47,10.77,45.06,7.74,42,6.82ZM17.35,15a4.25,4.25,0,0,1-2-2.25,4.09,4.09,0,0,1-1.16,2.87A7.58,7.58,0,0,1,11.8,16.9a3.6,3.6,0,0,1-1.16-1.82,3,3,0,0,1,.11-1.92,2.89,2.89,0,0,1-1.52.35,5.25,5.25,0,0,1-1.64-.28,14.12,14.12,0,0,1-1.94-1.07,14.77,14.77,0,0,1,.88-2A3.79,3.79,0,0,1,9.08,8.26,3.08,3.08,0,0,1,7.82,6.8a3.53,3.53,0,0,1-.19-2.14,6.65,6.65,0,0,1,2.23-.49l.29,0A4.8,4.8,0,0,1,13,5.74a4.26,4.26,0,0,1,.18-3c1.78.3,3.29,1.3,3.57,4.36,0,.17,0,.32,0,.45A10.69,10.69,0,0,0,10,9.51a.79.79,0,0,0-.17,1.1.78.78,0,0,0,1.1.16c2-1.46,4-1.66,6.42-1.62a2.17,2.17,0,0,0,.15.22C19.21,11.94,17.35,15,17.35,15ZM30.49,28.8a3.62,3.62,0,1,1-3.61-3.61A3.61,3.61,0,0,1,30.49,28.8Zm-7.9-11.28a3.28,3.28,0,1,1-3.28,3.28A3.28,3.28,0,0,1,22.59,17.52ZM17.8,32.41a3.61,3.61,0,1,1,3.61-3.61A3.61,3.61,0,0,1,17.8,32.41Zm4.49,8a3.58,3.58,0,1,1,3.58-3.57A3.58,3.58,0,0,1,22.29,40.45Zm4.59,6.79a2.88,2.88,0,1,1,2.87-2.87A2.88,2.88,0,0,1,26.88,47.24Zm4.58-6.79A3.58,3.58,0,1,1,35,36.88,3.57,3.57,0,0,1,31.46,40.45ZM36,25.19a3.61,3.61,0,1,1-3.61,3.61A3.61,3.61,0,0,1,36,25.19Zm-4.79-7.67a3.28,3.28,0,1,1-3.27,3.28A3.28,3.28,0,0,1,31.16,17.52Z"/></svg>