<?xml version="1.0" encoding="utf-8"?>
<!-- Generator: Adobe Illustrator 24.2.1, SVG Export Plug-In . SVG Version: 6.00 Build 0)  -->
<svg version="1.1" id="Capa_1" xmlns="http://www.w3.org/2000/svg" xmlns:xlink="http://www.w3.org/1999/xlink" x="0px" y="0px"
	 viewBox="0 0 50.5 50.5" style="enable-background:new 0 0 50.5 50.5;" xml:space="preserve">
<path d="M44.4,24.793c0.276,0,0.5-0.224,0.5-0.5v-0.45c-0.004-0.254-0.104-0.497-0.28-0.68l-2.92-2.95
	c-0.183-0.176-0.426-0.276-0.68-0.28h-2.36c-0.276,0-0.5,0.224-0.5,0.5v3.83c0,0.276,0.224,0.5,0.5,0.5L44.4,24.793z"/>
<path d="M12.52,31.443c-2.732,0.006-4.959,2.233-4.964,4.965c0,2.737,2.227,4.965,4.965,4.965s4.965-2.228,4.965-4.965
	S15.258,31.443,12.52,31.443z M12.52,39.733c-1.833,0-3.325-1.491-3.325-3.325s1.492-3.325,3.325-3.325s3.325,1.491,3.325,3.325
	S14.354,39.733,12.52,39.733z"/>
<path d="M40.47,31.443c-2.732,0.006-4.96,2.233-4.965,4.965c0,2.737,2.228,4.965,4.965,4.965s4.965-2.228,4.965-4.965
	S43.208,31.443,40.47,31.443z M40.47,39.733c-1.834,0-3.325-1.491-3.325-3.325s1.491-3.325,3.325-3.325s3.325,1.491,3.325,3.325
	S42.304,39.733,40.47,39.733z"/>
<path d="M48.205,32.152v-9.5c-0.002-0.211-0.086-0.409-0.235-0.557l-5.44-5.5c-0.148-0.151-0.354-0.237-0.564-0.237
	c-0.001,0-0.003,0-0.004,0H35.24c-0.438,0-0.795,0.356-0.795,0.795v10.505h-3.793v-1.031h1.975c0.441,0,0.8-0.358,0.8-0.8V11.097
	c0-0.442-0.358-0.8-0.8-0.8H3.778c-0.442,0-0.8,0.358-0.8,0.8v14.731c0,0.441,0.358,0.8,0.8,0.8h18.631v1.031H3.69
	c-0.438,0-0.795,0.356-0.795,0.795l0,6.894c0.031,0.412,0.379,0.735,0.792,0.735c0.001,0,0.001,0,0.002,0H6.28
	c0.438,0,0.795-0.356,0.795-0.795s-0.357-0.795-0.795-0.795H4.485v-5.204h17.406c-0.046,0.101-0.076,0.212-0.076,0.33v3.033
	c-0.339,0.093-0.593,0.39-0.593,0.758v3.033c-0.339,0.093-0.593,0.39-0.593,0.758v3.821c0,0.441,0.358,0.8,0.8,0.8h10.203
	c0.441,0,0.8-0.358,0.8-0.8v-3.821c0-0.368-0.254-0.665-0.593-0.758V33.41c0-0.368-0.255-0.665-0.594-0.758v-3.033
	c0-0.119-0.029-0.229-0.076-0.33h4.071c0.438,0,0.795-0.356,0.795-0.795V17.948h5.563l4.987,4.997v9.723
	c-0.001,0.362,0.243,0.68,0.594,0.771l0.031,0.004c0.124,0,0.734,0.29,0.734,0.565c0,0.43-0.68,0.494-1.085,0.494
	c-0.438,0-0.795,0.356-0.795,0.795s0.356,0.796,0.796,0.796c1.643-0.011,2.704-0.814,2.704-2.055
	C49.506,33.202,48.976,32.47,48.205,32.152z M30.239,36.401h-7.417v-2.191h7.417V36.401z M28.16,25.028h-3.017V15.93h3.017V25.028z
	 M24.008,26.627h5.044v2.191h-5.044V26.627z M23.415,32.61v-2.191h6.23v2.191H23.415z M4.578,25.028V11.897h27.249v13.131h-1.975
	h-0.093V15.13c0-0.442-0.358-0.8-0.8-0.8h-4.616c-0.442,0-0.8,0.358-0.8,0.8v9.898h-0.335H4.578z M30.832,40.222h-8.603v-2.222
	h8.603V40.222z"/>
<path d="M34.017,34.465l-0.538,0.027c-0.438,0-0.795,0.356-0.795,0.795s0.356,0.795,0.795,0.795h0.003l0.541-0.027
	c0.438,0,0.795-0.356,0.795-0.795S34.461,34.465,34.017,34.465z"/>
<path d="M19.532,34.493l-0.55-0.027c-0.438,0-0.795,0.356-0.795,0.795s0.356,0.795,0.789,0.795l0.55,0.027
	c0.438,0,0.795-0.356,0.795-0.795S19.964,34.493,19.532,34.493z"/>
<path d="M20.224,13.834l-1.72,0.983l-1.3-0.705c-0.244-0.133-0.538-0.128-0.778,0.009l-6.78,3.875
	c-0.234-0.338-0.683-0.455-1.048-0.248c-0.384,0.219-0.517,0.708-0.298,1.092l0.701,1.227l-1.048,0.599l-0.274-0.48
	c-0.219-0.383-0.706-0.517-1.092-0.298c-0.383,0.219-0.517,0.708-0.298,1.092l0.671,1.175c0,0,0,0,0,0s0,0,0,0l0.828,1.449
	c0.148,0.258,0.418,0.403,0.696,0.403c0.134,0,0.271-0.034,0.396-0.105c0.383-0.219,0.517-0.708,0.298-1.092l-0.275-0.481
	l1.048-0.599l0.61,1.068c0.148,0.258,0.418,0.403,0.696,0.403c0.134,0,0.271-0.034,0.396-0.105c0.308-0.176,0.444-0.523,0.377-0.852
	l6.813-3.894c0.24-0.137,0.393-0.389,0.402-0.666l0.053-1.478l1.721-0.983c0.384-0.219,0.517-0.708,0.297-1.091
	C21.096,13.748,20.607,13.614,20.224,13.834z M17.661,17.181l-1.495,0.854l-0.208-0.363c-0.219-0.383-0.708-0.517-1.092-0.298
	c-0.383,0.219-0.517,0.708-0.298,1.092l0.208,0.364l-0.878,0.502l-0.208-0.364c-0.219-0.384-0.707-0.518-1.091-0.297
	c-0.384,0.219-0.517,0.708-0.297,1.091l0.208,0.364l-1.232,0.704l-0.492-0.861c0,0,0-0.001,0-0.001s0,0-0.001-0.001l-0.336-0.588
	l6.383-3.648l0.864,0.468L17.661,17.181z"/>
<circle cx="26.677" cy="18.069" r="0.826"/>
</svg>
