<svg id="Layer_1" data-name="Layer 1" xmlns="http://www.w3.org/2000/svg" viewBox="0 0 50.46 50.46"><defs><style>.cls-1{fill:#12b5e1;}</style></defs><title>vacuna</title><path class="cls-1" d="M49.24,4.2l-8.19,6.66-.67-.8a.85.85,0,0,0-1.2-.12l-2.1,1.75L37,11.53a.87.87,0,0,0-.7-.31l-3.89.18a.85.85,0,0,0-.5.2L6.68,32.34l-.62-.75a1.22,1.22,0,0,0-.85-.45,1.24,1.24,0,0,0-.92.29,1.26,1.26,0,0,0-.17,1.77l2,2.42-2,1.63-.71-.86A1.26,1.26,0,1,0,1.51,38L8,45.8a1.27,1.27,0,0,0,1,.46A1.31,1.31,0,0,0,9.74,46,1.26,1.26,0,0,0,9.9,44.2l-.71-.86,2-1.63,2,2.42a1.3,1.3,0,0,0,1.77.17,1.26,1.26,0,0,0,.17-1.77l-.56-.68L33.86,26l0,2.59a.83.83,0,0,0,.83.86l.77,0v1L33.51,32a.84.84,0,0,0-.31.64L33,44.83a.9.9,0,0,0,.24.61.91.91,0,0,0,.6.26l10.65.15a.82.82,0,0,0,.59-.24.81.81,0,0,0,.26-.6l.18-12.18a.85.85,0,0,0-.31-.66l-2-1.67,0-.94h.91a.85.85,0,0,0,.85-.84l0-3.45a.83.83,0,0,0-.83-.86l-8.35-.15,3.83-3.16a.77.77,0,0,0,.28-.43L41,17a.89.89,0,0,0-.17-.77L40.62,16l2.11-1.74a.87.87,0,0,0,.3-.58.85.85,0,0,0-.19-.62l-.66-.8,6.13-5ZM35.54,27.71l0-1.74,7.8.14,0,1.74h-.89Zm-.76,14h5.91a1.47,1.47,0,0,0,1.47-1.47V36.26a1.47,1.47,0,0,0-1.47-1.48H34.88l0-1.71,1.94-1.61a.83.83,0,0,0,.31-.66V29.45l4.43.07,0,1.35a.89.89,0,0,0,.31.68l2,1.67-.16,10.91L34.75,44Zm7.67-13.6ZM8.2,38.12l-2,1.63L5.05,38.33,7,36.7Zm2.07,2.5-2,1.64L7.12,40.84l2-1.63ZM41,13.46l-1.34,1.11-1.37-1.66,1.34-1.11Zm-3.07,7-2.39-2.88a.7.7,0,1,0-1.08.89l2.38,2.88-1.63,1.35-.87-1a.71.71,0,0,0-1-.1.7.7,0,0,0-.09,1l.86,1.05-1.63,1.35L30.1,22a.71.71,0,0,0-1-.1.7.7,0,0,0-.26.48.71.71,0,0,0,.16.51l2.37,2.87-1.63,1.35-.86-1a.7.7,0,0,0-.47-.26.75.75,0,0,0-.52.16.7.7,0,0,0-.09,1l.85,1L27,29.36l-2.36-2.85a.7.7,0,1,0-1.09.89L26,30.26,24.31,31.6l-.85-1a.7.7,0,1,0-1.08.89l.85,1-9.77,8L7.77,33.66l25-20.56L35.91,13l3.33,4-.8,3Z"/></svg>