<svg id="Layer_1" data-name="Layer 1" xmlns="http://www.w3.org/2000/svg" viewBox="0 0 50.46 50.46"><defs><style>.cls-1{fill:#12b5e1;}</style></defs><title>vademecum 2</title><path class="cls-1" d="M15.5,9.23a.68.68,0,1,0,0,1.35H36.84a.68.68,0,1,0,0-1.35Z"/><path class="cls-1" d="M38.31,12.41H15.39a2.46,2.46,0,1,1,0-4.92H38.31a.79.79,0,0,0,.79-.78.8.8,0,0,0-.79-.79H15.39a4,4,0,0,0-4,4V40.51a4,4,0,0,0,4,4H38.31a.8.8,0,0,0,.79-.79V13.19A.8.8,0,0,0,38.31,12.41ZM37.52,43H15.39a2.47,2.47,0,0,1-2.46-2.46V13.14a4.06,4.06,0,0,0,2.46.84H37.52V43Z"/><path class="cls-1" d="M17.58,31.68l-.53-4.07,6.48-.84.16,1.28,1.06-1.25L24,21a4.23,4.23,0,0,0-1.64-2.84,4.28,4.28,0,0,0-3.17-.86l-.37,0a4.29,4.29,0,0,0-3.7,4.81l1.26,9.71a4.29,4.29,0,0,0,2.42,3.32l.22.11L19,35a4.77,4.77,0,0,1,.16-.86l0-.13L19.12,34A3,3,0,0,1,17.58,31.68Zm5.79-6.11-6.48.84L16.31,22A3.07,3.07,0,0,1,19,18.52l.38-.05.4,0a3.09,3.09,0,0,1,3.05,2.68Z"/><path class="cls-1" d="M19,19.63a.58.58,0,0,0-.46.08,2.63,2.63,0,0,0-1.08,3v0a.6.6,0,0,0,.56.58h.12a.62.62,0,0,0,.53-.57,1.22,1.22,0,0,0,0-.26,1.53,1.53,0,0,1,.54-1.73.58.58,0,0,0,.26-.37.61.61,0,0,0-.07-.46A.62.62,0,0,0,19,19.63Z"/><path class="cls-1" d="M33.88,25.09l-.29-.25a4.27,4.27,0,0,0-3.12-1,4.33,4.33,0,0,0-2.93,1.5L21.2,32.79a4.28,4.28,0,0,0,.48,6l.29.25A4.3,4.3,0,0,0,28,38.59l6.35-7.45a4.29,4.29,0,0,0-.49-6.05Zm-4.13,9.6L27.1,37.81a3.09,3.09,0,0,1-4.34.35l-.29-.25a3,3,0,0,1-1.07-2.1,3.05,3.05,0,0,1,.72-2.24l2.65-3.12Zm3.69-4.34-2.9,3.42-5-4.24,2.91-3.42a3.08,3.08,0,0,1,4.33-.35l.29.25a3.08,3.08,0,0,1,.35,4.34Z"/><path class="cls-1" d="M31.58,26.34a2.64,2.64,0,0,0-2.93,1.19l0,0a.6.6,0,0,0-.05.8l.09.09a.58.58,0,0,0,.39.14.62.62,0,0,0,.37-.13.9.9,0,0,0,.19-.2,1.53,1.53,0,0,1,1.63-.76.6.6,0,0,0,.69-.88A.65.65,0,0,0,31.58,26.34Z"/></svg>