<svg id="Layer_1" data-name="Layer 1" xmlns="http://www.w3.org/2000/svg" viewBox="0 0 50.46 50.46"><defs><style>.cls-1{fill:#12b5e1;}</style></defs><title>vademecum</title><path class="cls-1" d="M46.51,22.81a9.22,9.22,0,0,0-4.58-7.87,10.67,10.67,0,0,0-4.17-1.36H12.69c-4.49.3-6.63,2.72-7.63,4.7A10.83,10.83,0,0,0,4,22.55c.21,4.56,2.47,6.87,4.32,8a10,10,0,0,0,4,1.39h8.79l3.4,5.11,0,0a1.86,1.86,0,0,0,.84.26c.73,0,.82-.84.82-.85V21a.81.81,0,0,0-.81-.81H10c.21-.41,1.2-2.21,2.7-2.21H25.32a.83.83,0,0,0,.82-.76l0-1.77H37.67c3.69.35,5.37,2.31,6.14,3.89a8,8,0,0,1,.78,3.39A6.86,6.86,0,0,1,41.33,29a7.94,7.94,0,0,1-3.21,1.06h-10a1,1,0,0,0-.81.87,1.05,1.05,0,0,0,.67,1h10.2a9,9,0,0,0,7.34-5A10.23,10.23,0,0,0,46.51,22.81Z"/><path class="cls-1" d="M29.42,26l-.05,0s0,0,0,0l-.05,0h0l0-.06-2-4.74a.43.43,0,0,1,.24-.58.44.44,0,0,1,.58.23l1.58,3.77,1.58-3.77a.45.45,0,0,1,.59-.23.46.46,0,0,1,.25.58l-2,4.74s0,0,0,.06h0s0,0,0,0l0,0,0,0v0s-.05,0-.07,0h0l-.06,0h-.2l-.06,0h0L29.43,26Z"/><path class="cls-1" d="M33.5,25.6a.45.45,0,0,1-.43.45.46.46,0,0,1-.46-.45V20.88h0a.48.48,0,0,1,.19-.37.44.44,0,0,1,.61.09L36,24.23V20.88a.44.44,0,0,1,.44-.44.46.46,0,0,1,.45.44V25.6a.46.46,0,0,1-.45.45.47.47,0,0,1-.34-.17s0,0,0,0L33.5,22.23Z"/><path class="cls-1" d="M42.71,20.8v4.8a.46.46,0,0,1-.45.45.45.45,0,0,1-.45-.45V22.18l-1.17,1.63a.45.45,0,0,1-.37.18h0a.48.48,0,0,1-.38-.18l-1.15-1.63V25.6a.46.46,0,0,1-.91,0V20.8a.45.45,0,0,1,.45-.44h0a.45.45,0,0,1,.36.19l1.62,2.24,1.61-2.24a.47.47,0,0,1,.37-.19h0A.45.45,0,0,1,42.71,20.8Z"/></svg>