<?xml version="1.0" encoding="utf-8"?>
<!-- Generator: Adobe Illustrator 22.1.0, SVG Export Plug-In . SVG Version: 6.00 Build 0)  -->
<svg version="1.1" id="Capa_1" xmlns="http://www.w3.org/2000/svg" xmlns:xlink="http://www.w3.org/1999/xlink" x="0px" y="0px"
	 viewBox="0 0 48 48" style="enable-background:new 0 0 48 48;" xml:space="preserve">
<style type="text/css">
	.st0{fill:#12B5E1;}
</style>
<title>validez-legal</title>
<path class="st0" d="M45.6,25c-0.4-0.6-0.4-1.4,0-2l0.9-1.3c0.5-0.8,0.3-1.8-0.4-2.4l-1.2-1c-0.6-0.5-0.8-1.2-0.6-1.9l0.4-1.5
	c0.2-0.9-0.3-1.8-1.1-2.2l-1.5-0.6c-0.7-0.3-1.1-0.9-1.2-1.6l-0.1-1.6C40.8,8,40,7.3,39.1,7.2l-1.6-0.1c-0.7,0-1.3-0.5-1.6-1.2
	l-0.6-1.5c-0.4-0.8-1.3-1.3-2.2-1.1l-1.5,0.4c-0.7,0.2-1.4,0-1.9-0.6l-1-1.2c-0.6-0.7-1.6-0.9-2.4-0.4L25,2.4
	c-0.6,0.4-1.3,0.4-1.9,0l-1.3-0.8c-0.8-0.5-1.8-0.3-2.4,0.4l-1,1.2c-0.5,0.6-1.2,0.8-1.9,0.6l-1.5-0.4c-0.9-0.2-1.8,0.3-2.2,1.1
	l-0.6,1.5c-0.3,0.7-0.9,1.1-1.6,1.2L8.9,7.2C8,7.3,7.3,8,7.2,8.9l-0.1,1.6c-0.1,0.7-0.5,1.3-1.2,1.6l-1.5,0.6
	c-0.8,0.4-1.3,1.3-1.1,2.2l0.4,1.5c0.2,0.7,0,1.4-0.6,1.9l-1.2,1c-0.7,0.6-0.9,1.6-0.4,2.4L2.4,23c0.4,0.6,0.4,1.4,0,2l-0.8,1.3
	c-0.5,0.8-0.3,1.8,0.4,2.4l1.2,1c0.6,0.5,0.8,1.2,0.6,1.9l-0.4,1.5C3.2,34,3.6,35,4.5,35.3l1.5,0.6c0.7,0.3,1.1,0.9,1.2,1.6l0.1,1.6
	C7.3,40,8,40.8,8.9,40.8l1.6,0.1c0.7,0,1.3,0.5,1.6,1.1l0.6,1.5c0.4,0.8,1.3,1.3,2.2,1.1l1.5-0.4c0.7-0.2,1.4,0,1.9,0.6l1,1.2
	c0.6,0.7,1.6,0.9,2.4,0.4l1.3-0.8c0.6-0.4,1.4-0.4,2,0l1.3,0.9c0.8,0.5,1.8,0.3,2.4-0.4l1-1.2c0.5-0.6,1.2-0.8,1.9-0.6l1.5,0.4
	c0.9,0.2,1.8-0.2,2.2-1.1l0.6-1.5c0.3-0.7,0.9-1.1,1.6-1.2l1.6-0.1c0.9-0.1,1.7-0.8,1.8-1.8l0.1-1.6c0-0.7,0.5-1.3,1.2-1.6l1.5-0.6
	c0.8-0.4,1.3-1.3,1.1-2.2l-0.4-1.5c-0.2-0.7,0-1.4,0.6-1.9l1.2-1c0.7-0.6,0.9-1.6,0.4-2.4L45.6,25z M37.4,19.2
	c0,0.1-0.1,0.1-0.2,0.2L24.7,32.9c-1.1,1.2-2.9,1.3-4.2,0.3l-9.5-7.7c-1.3-1.1-1.4-3.1-0.3-4.3c1.1-1.2,2.9-1.4,4.2-0.5l7.3,5.9
	l10.6-11.5c1.1-1.3,3.1-1.4,4.3-0.3C38.4,15.9,38.6,17.9,37.4,19.2z"/>
</svg>
