<svg id="Layer_1" data-name="Layer 1" xmlns="http://www.w3.org/2000/svg" viewBox="0 0 50.46 50.46"><defs><style>.cls-1{fill:#12b5e1;}</style></defs><title>vehiculo autorizado 01</title><path class="cls-1" d="M38,26.51a1,1,0,0,0,1-1V24.45a1,1,0,0,0-.28-.68l-6.86-6.85a1,1,0,0,0-.68-.28h-3a1,1,0,0,0-1,1v8a1,1,0,0,0,1,1Zm-8.89-8h1.64l6.05,6.05H29.1Z"/><path class="cls-1" d="M25.42,37.52H23.66a1,1,0,0,0,0,1.91h1.76a1,1,0,0,0,0-1.91Z"/><path class="cls-1" d="M44.63,33.4l0-8.4a4,4,0,0,0-1.13-2.76L33.38,11.64a4.06,4.06,0,0,0-2.94-1.25H15A7.71,7.71,0,1,0,4,21.05V35.37A4.07,4.07,0,0,0,8,39.43a1,1,0,1,0,0-1.91,2.15,2.15,0,0,1-2.15-2.15V22.26A7.48,7.48,0,0,0,9,22.93a7.73,7.73,0,0,0,7.72-7.72,7.59,7.59,0,0,0-.59-2.93l14.32,0A2.16,2.16,0,0,1,32,13l10.14,10.6a2.15,2.15,0,0,1,.6,1.45l0,9.32a1,1,0,0,0,1,1h.6a1.12,1.12,0,0,1,0,2.23H40.91a1,1,0,0,0,0,1.91h3.36a3,3,0,0,0,.36-6ZM9,21a5.81,5.81,0,1,1,5.8-5.81A5.81,5.81,0,0,1,9,21Z"/><path class="cls-1" d="M15.72,33.26a6.09,6.09,0,1,0,6.08,6.09A6.09,6.09,0,0,0,15.72,33.26Zm0,10.26a4.17,4.17,0,1,1,4.17-4.17A4.18,4.18,0,0,1,15.72,43.52Z"/><path class="cls-1" d="M33.07,33.26a6.09,6.09,0,1,0,6.08,6.09A6.09,6.09,0,0,0,33.07,33.26Zm0,10.26a4.17,4.17,0,1,1,4.17-4.17A4.18,4.18,0,0,1,33.07,43.52Z"/><path class="cls-1" d="M11.63,12.37,8.41,15.85,6.23,14.1a1,1,0,0,0-.79-.23,1.08,1.08,0,0,0-.73.39,1.1,1.1,0,0,0-.23.8,1.05,1.05,0,0,0,.4.73l3,2.38a1.1,1.1,0,0,0,.68.24,1.08,1.08,0,0,0,.79-.35l3.91-4.22a1.05,1.05,0,0,0,.28-.77,1.09,1.09,0,0,0-.34-.76,1.13,1.13,0,0,0-.78-.29A1.1,1.1,0,0,0,11.63,12.37Z"/></svg>