<svg id="Layer_1" data-name="Layer 1" xmlns="http://www.w3.org/2000/svg" viewBox="0 0 50.46 50.46"><defs><style>.cls-1{fill:#12b5e1;}</style></defs><title>velero con olas</title><path class="cls-1" d="M38,39.29A6.78,6.78,0,0,1,34,38a4.29,4.29,0,0,0-2.38-.89,3.74,3.74,0,0,0-2.49.89,6.24,6.24,0,0,1-3.92,1.28A6.18,6.18,0,0,1,21.29,38a3.85,3.85,0,0,0-4.91,0,6.15,6.15,0,0,1-3.92,1.29A6.2,6.2,0,0,1,8.55,38a3.71,3.71,0,0,0-2.45-.89.89.89,0,1,1,0-1.77,5.5,5.5,0,0,1,3.44,1.19,4.44,4.44,0,0,0,2.92,1,4.4,4.4,0,0,0,2.92-1,5.6,5.6,0,0,1,6.9,0,4.42,4.42,0,0,0,2.92,1,4.4,4.4,0,0,0,2.92-1,5.53,5.53,0,0,1,3.45-1.19,6,6,0,0,1,3.35,1.16,5.11,5.11,0,0,0,3.07,1,4.42,4.42,0,0,0,2.92-1,5.53,5.53,0,0,1,3.45-1.19.89.89,0,1,1,0,1.77A3.75,3.75,0,0,0,41.9,38,6.18,6.18,0,0,1,38,39.29Z"/><path class="cls-1" d="M38,43.6a6.85,6.85,0,0,1-4-1.27,4.29,4.29,0,0,0-2.38-.89,3.76,3.76,0,0,0-2.49.88A6.21,6.21,0,0,1,25.2,43.6a6.18,6.18,0,0,1-3.91-1.28,3.81,3.81,0,0,0-2.46-.88,3.7,3.7,0,0,0-2.45.88,6.19,6.19,0,0,1-3.92,1.28,6.18,6.18,0,0,1-3.91-1.28.89.89,0,0,1-.23-1.23.87.87,0,0,1,1.22-.23,4.47,4.47,0,0,0,2.92,1,4.48,4.48,0,0,0,2.93-1,5.58,5.58,0,0,1,6.89,0,4.45,4.45,0,0,0,2.92,1,4.45,4.45,0,0,0,2.92-1,5.47,5.47,0,0,1,3.45-1.19,6,6,0,0,1,3.36,1.16,5.05,5.05,0,0,0,3.06,1,4.47,4.47,0,0,0,2.92-1,.88.88,0,1,1,1,1.46A6.18,6.18,0,0,1,38,43.6Z"/><path class="cls-1" d="M38,47.91a6.72,6.72,0,0,1-4-1.27,4.35,4.35,0,0,0-2.39-.89,3.76,3.76,0,0,0-2.49.88,6.21,6.21,0,0,1-3.92,1.28,6.18,6.18,0,0,1-3.91-1.28,3.81,3.81,0,0,0-2.46-.88,3.75,3.75,0,0,0-2.45.88c-.2.14-.4.27-.62.4a.87.87,0,0,1-1.21-.29.89.89,0,0,1,.3-1.22l.53-.35a5.6,5.6,0,0,1,6.9,0,4.47,4.47,0,0,0,2.92,1,4.45,4.45,0,0,0,2.92-1A5.53,5.53,0,0,1,31.57,44a6,6,0,0,1,3.36,1.16,5.08,5.08,0,0,0,3.06,1,.88.88,0,1,1,0,1.76Z"/><path class="cls-1" d="M23.88,28.18a.89.89,0,0,1-.74-.4.92.92,0,0,1-.07-.85,22.22,22.22,0,0,0,.75-16.5L21.49,3.72a.89.89,0,0,1,1.45-.93l9.5,9.07h0c4.31,4.12,6.1,8.61,4.78,12-1,2.56-3.55,4.08-7,4.16l-6.3.15Zm.48-21.59,1.13,3.27a23.94,23.94,0,0,1-.27,16.52l4.94-.12c2.72-.06,4.69-1.17,5.41-3,1-2.71-.57-6.49-4.35-10.09Z"/><path class="cls-1" d="M12.27,28.45a.89.89,0,0,1-.64-1.5C15.5,22.9,18.7,13.19,20.26,7.77A.88.88,0,0,1,22,8l.45,19.34a.88.88,0,0,1-.86.9l-9.29.22Zm8.08-15c-1.63,4.84-3.73,9.89-6.16,13.21l6.47-.15Z"/><path class="cls-1" d="M12.15,36.58a.89.89,0,0,1-.86-.7l-1.16-5.43a.86.86,0,0,1,.17-.73.88.88,0,0,1,.67-.34l29.87-.66A.88.88,0,0,1,41.66,30,19.72,19.72,0,0,1,37,36.22a.89.89,0,0,1-1.25-.06.89.89,0,0,1,.07-1.25,18.11,18.11,0,0,0,3.55-4.39l-27.31.6L13,35.51a.89.89,0,0,1-.68,1.05Z"/></svg>