<svg id="Layer_1" data-name="Layer 1" xmlns="http://www.w3.org/2000/svg" viewBox="0 0 50.46 50.46"><defs><style>.cls-1{fill:#12b5e1;}</style></defs><title>velero sin olas</title><path class="cls-1" d="M7.6,39.08h-3a.89.89,0,0,1,0-1.77h3a.89.89,0,0,1,0,1.77Z"/><path class="cls-1" d="M41.08,39.08H11a.89.89,0,1,1,0-1.77H41.08a.89.89,0,1,1,0,1.77Z"/><path class="cls-1" d="M45.83,39.08H44.4a.89.89,0,1,1,0-1.77h1.43a.89.89,0,0,1,0,1.77Z"/><path class="cls-1" d="M20.3,43.49H10.15a.88.88,0,1,1,0-1.76H20.3a.88.88,0,1,1,0,1.76Z"/><path class="cls-1" d="M34.59,43.49H23.7a.88.88,0,1,1,0-1.76H34.59a.88.88,0,1,1,0,1.76Z"/><path class="cls-1" d="M40.86,43.49H37.77a.88.88,0,1,1,0-1.76h3.09a.88.88,0,0,1,0,1.76Z"/><path class="cls-1" d="M18.09,47.91H14.57a.88.88,0,1,1,0-1.76h3.52a.88.88,0,1,1,0,1.76Z"/><path class="cls-1" d="M30.72,47.91H21.49a.88.88,0,0,1,0-1.76h9.23a.88.88,0,1,1,0,1.76Z"/><path class="cls-1" d="M37,47.91H33.9a.88.88,0,0,1,0-1.76H37a.88.88,0,1,1,0,1.76Z"/><path class="cls-1" d="M25.35,28.18a.89.89,0,0,1-.81-1.25,22.22,22.22,0,0,0,.75-16.5L23,3.72a.87.87,0,0,1,.36-1,.89.89,0,0,1,1.09.1l9.5,9.07h0c4.31,4.12,6.1,8.61,4.78,12-1,2.56-3.55,4.08-7,4.16l-6.3.15Zm.48-21.59L27,9.86a24,24,0,0,1-.27,16.52l4.94-.12c2.72-.06,4.69-1.17,5.41-3,1.05-2.71-.57-6.49-4.35-10.09Z"/><path class="cls-1" d="M13.74,28.45a.89.89,0,0,1-.81-.53.87.87,0,0,1,.17-1C17,22.9,20.16,13.19,21.73,7.77A.88.88,0,0,1,23.46,8l.45,19.34a.88.88,0,0,1-.86.9l-9.29.22Zm8.08-15c-1.63,4.84-3.73,9.89-6.17,13.21l6.47-.15Z"/><path class="cls-1" d="M13.54,36.2a.88.88,0,0,1-.86-.69L11.6,30.45a.83.83,0,0,1,.17-.73.88.88,0,0,1,.67-.34l29.87-.66a.9.9,0,0,1,.75.4.91.91,0,0,1,.07.86,19.7,19.7,0,0,1-4.29,5.92.88.88,0,0,1-1.22-1.28,17.56,17.56,0,0,0,3.23-4.1l-27.3.6.86,4a.88.88,0,0,1-.68,1A.62.62,0,0,1,13.54,36.2Z"/></svg>