<svg id="Layer_1" data-name="Layer 1" xmlns="http://www.w3.org/2000/svg" viewBox="0 0 50.46 50.46"><defs><style>.cls-1{fill:#a7a9ac;}</style></defs><title>vencimiento</title><path class="cls-1" d="M19.1,37.39H32.85a1.82,1.82,0,0,0,1.59-2.72L27.35,22.1a1.83,1.83,0,0,0-3.2,0L17.49,34.71A1.83,1.83,0,0,0,19.1,37.39ZM27,24.25l-.28,8.1h-2l-.28-8.1ZM24.71,34a1.52,1.52,0,0,1,1.95,0,1.22,1.22,0,0,1,.37.92,1.18,1.18,0,0,1-.37.9,1.5,1.5,0,0,1-1.95,0,1.21,1.21,0,0,1-.37-.9A1.24,1.24,0,0,1,24.71,34Z"/><path class="cls-1" d="M38.66,8.81h-4V6.16a1.68,1.68,0,1,0-3.36,0V8.81H20.61V6.16a1.68,1.68,0,1,0-3.36,0V8.81H13.3a4.51,4.51,0,0,0-4.51,4.51v24a6.46,6.46,0,0,0,6.46,6.46H36.71a6.47,6.47,0,0,0,6.46-6.46v-24A4.52,4.52,0,0,0,38.66,8.81Zm2.83,28.46a4.79,4.79,0,0,1-4.78,4.78H15.25a4.79,4.79,0,0,1-4.78-4.78V17.69h31Zm0-21.27h-31V13.32a2.83,2.83,0,0,1,2.83-2.83h3.95v2.27a1.68,1.68,0,0,0,3.36,0V10.49H31.34v2.27a1.68,1.68,0,1,0,3.36,0V10.49h4a2.83,2.83,0,0,1,2.83,2.83Z"/></svg>