<svg id="Layer_1" data-name="Layer 1" xmlns="http://www.w3.org/2000/svg" viewBox="0 0 50.46 50.46"><defs><style>.cls-1{fill:#a7a9ac;}</style></defs><title>vencimiento-negativo</title><polygon class="cls-1" points="26.93 32.2 27.21 24.1 24.65 24.1 24.93 32.2 26.93 32.2"/><path class="cls-1" d="M25.93,33.52a1.34,1.34,0,0,0-1,.36,1.2,1.2,0,0,0-.37.91,1.21,1.21,0,0,0,.37.91,1.37,1.37,0,0,0,1,.35,1.4,1.4,0,0,0,1-.35,1.32,1.32,0,0,0,0-1.83A1.4,1.4,0,0,0,25.93,33.52Z"/><path class="cls-1" d="M38.9,8.66H35V6a1.68,1.68,0,0,0-3.36,0V8.66H20.86V6A1.68,1.68,0,1,0,17.5,6V8.66h-4A4.52,4.52,0,0,0,9,13.17V37.12a6.47,6.47,0,0,0,6.46,6.46H37a6.46,6.46,0,0,0,6.46-6.46V13.17A4.52,4.52,0,0,0,38.9,8.66ZM33.1,37.24H19.35a1.82,1.82,0,0,1-1.61-2.68L24.4,22a1.83,1.83,0,0,1,3.2,0l7.09,12.57A1.83,1.83,0,0,1,33.1,37.24Zm8.63-21.38h-31V13.17a2.83,2.83,0,0,1,2.83-2.83h4v2.27a1.68,1.68,0,0,0,3.36,0V10.34H31.59v2.27a1.68,1.68,0,1,0,3.36,0V10.34H38.9a2.83,2.83,0,0,1,2.83,2.83Z"/></svg>