<?xml version="1.0" encoding="utf-8"?>
<!-- Generator: Adobe Illustrator 24.2.1, SVG Export Plug-In . SVG Version: 6.00 Build 0)  -->
<svg version="1.1" id="Capa_1" xmlns="http://www.w3.org/2000/svg" xmlns:xlink="http://www.w3.org/1999/xlink" x="0px" y="0px"
	 viewBox="0 0 50.5 50.5" style="enable-background:new 0 0 50.5 50.5;" xml:space="preserve">
<path d="M25.22,23.72c4.197,0,7.611-3.414,7.611-7.61S29.416,8.5,25.22,8.5c-4.196,0-7.61,3.414-7.61,7.61S21.023,23.72,25.22,23.72
	z M25.22,10.099c3.314,0,6.011,2.696,6.011,6.011s-2.697,6.011-6.011,6.011s-6.011-2.696-6.011-6.011S21.905,10.099,25.22,10.099z"
	/>
<path d="M22.362,14.13c0.22,0,0.42-0.09,0.57-0.24c0.75-0.77,1.86-1.13,2.93-0.9c0.43,0.09,0.86-0.2,0.95-0.62
	c0.04-0.21,0-0.43-0.12-0.6c-0.11-0.18-0.29-0.3-0.5-0.35c-0.32-0.06-0.64-0.1-0.95-0.1h-0.03c-1.28,0-2.52,0.53-3.42,1.45
	c-0.31,0.31-0.3,0.82,0.01,1.13C21.953,14.04,22.152,14.13,22.362,14.13z"/>
<path d="M21.152,16.32c0.04,0.01,0.08,0.01,0.12,0.01c0.39,0,0.73-0.29,0.79-0.68c0.07-0.44-0.23-0.85-0.67-0.91
	c-0.43-0.07-0.84,0.24-0.91,0.67C20.422,15.85,20.722,16.26,21.152,16.32z"/>
<path d="M25.192,7.7c0.44,0,0.8-0.36,0.8-0.8V2.16c0-0.44-0.36-0.8-0.8-0.8s-0.8,0.36-0.8,0.8V6.9
	C24.392,7.34,24.752,7.7,25.192,7.7z"/>
<path d="M25.192,24.66c-0.44,0-0.8,0.36-0.8,0.8V30c0,0.44,0.36,0.8,0.8,0.8s0.8-0.36,0.8-0.8v-4.54
	C25.992,25.02,25.632,24.66,25.192,24.66z"/>
<path d="M33.572,16.08c0,0.44,0.36,0.8,0.8,0.8h4.74c0.44,0,0.8-0.36,0.8-0.8c0-0.44-0.36-0.8-0.8-0.8h-4.74
	C33.933,15.28,33.572,15.64,33.572,16.08z"/>
<path d="M11.272,16.88h4.54c0.44,0,0.8-0.36,0.8-0.8c0-0.44-0.36-0.8-0.8-0.8h-4.54c-0.44,0-0.8,0.36-0.8,0.8
	C10.472,16.52,10.832,16.88,11.272,16.88z"/>
<path d="M32.242,22.01c-0.3-0.31-0.83-0.31-1.13,0c-0.31,0.31-0.31,0.82,0,1.13l3.35,3.35c0.16,0.15,0.36,0.23,0.57,0.23
	s0.41-0.08,0.57-0.23c0.31-0.31,0.31-0.82,0-1.13L32.242,22.01z"/>
<path d="M17.992,10.02c0.15,0.15,0.35,0.23,0.57,0.23c0.21,0,0.41-0.08,0.56-0.23c0.31-0.32,0.31-0.83,0-1.14l-3.21-3.21
	c-0.3-0.3-0.83-0.3-1.13,0c-0.31,0.31-0.31,0.82,0,1.13L17.992,10.02z"/>
<path d="M31.683,10.39c0.21,0,0.41-0.08,0.56-0.23l3.36-3.36c0.15-0.15,0.23-0.35,0.23-0.56s-0.08-0.42-0.23-0.57
	c-0.31-0.3-0.83-0.3-1.14,0l-3.35,3.35c-0.31,0.32-0.31,0.82,0,1.14C31.262,10.31,31.462,10.39,31.683,10.39z"/>
<path d="M15.352,26.72c0.21,0,0.41-0.08,0.56-0.23l3.21-3.21c0.31-0.31,0.31-0.82,0-1.13c-0.3-0.31-0.83-0.31-1.13,0l-3.21,3.21
	c-0.31,0.31-0.31,0.82,0,1.13C14.933,26.64,15.132,26.72,15.352,26.72z"/>
<path d="M20.972,7.89c0.12,0.3,0.42,0.49,0.74,0.49c0.11,0,0.21-0.02,0.3-0.05c0.2-0.08,0.36-0.24,0.44-0.43
	c0.08-0.2,0.08-0.42,0-0.62l-1.01-2.46c-0.16-0.4-0.64-0.6-1.04-0.44c-0.2,0.08-0.35,0.24-0.43,0.43c-0.09,0.2-0.09,0.42-0.01,0.61
	L20.972,7.89z"/>
<path d="M28.442,24.02c-0.2,0.08-0.36,0.23-0.44,0.43c-0.08,0.2-0.08,0.42,0,0.61l0.93,2.28c0.12,0.3,0.41,0.5,0.74,0.5
	c0.11,0,0.21-0.02,0.3-0.06c0.2-0.08,0.36-0.23,0.44-0.43c0.08-0.2,0.08-0.42,0-0.61l-0.93-2.28
	C29.322,24.06,28.842,23.86,28.442,24.02z"/>
<path d="M13.972,12.22l2.45,1.03c0.1,0.04,0.2,0.06,0.31,0.06c0.32,0,0.61-0.19,0.74-0.49c0.08-0.19,0.08-0.41,0-0.61
	c-0.08-0.19-0.23-0.35-0.43-0.43l-2.45-1.04c-0.4-0.17-0.88,0.04-1.05,0.43c-0.08,0.2-0.08,0.41,0,0.61S13.772,12.13,13.972,12.22z"
	/>
<path d="M36.832,20.99c0.09-0.2,0.09-0.41,0.01-0.61c-0.08-0.2-0.24-0.35-0.43-0.44l-2.27-0.95c-0.4-0.17-0.88,0.03-1.05,0.42
	c-0.08,0.2-0.08,0.42,0,0.61c0.08,0.2,0.23,0.36,0.43,0.44l2.27,0.96c0.1,0.04,0.2,0.06,0.31,0.06
	C36.422,21.48,36.712,21.29,36.832,20.99z"/>
<path d="M17.433,19.25c-0.16-0.4-0.64-0.6-1.04-0.44l-2.47,1.01c-0.4,0.17-0.6,0.64-0.43,1.05c0.12,0.3,0.41,0.49,0.74,0.49
	c0.1,0,0.2-0.02,0.3-0.06l2.46-1C17.402,20.13,17.602,19.66,17.433,19.25z"/>
<path d="M33.132,12.83c0.12,0.31,0.41,0.5,0.74,0.5c0.1,0,0.2-0.02,0.3-0.06l2.28-0.93c0.41-0.17,0.6-0.64,0.44-1.04
	c-0.17-0.4-0.65-0.61-1.05-0.44l-2.28,0.93C33.162,11.96,32.962,12.43,33.132,12.83z"/>
<path d="M28.453,8.36c0.1,0.05,0.21,0.07,0.32,0.07c0.32,0,0.61-0.19,0.73-0.49l1.04-2.45c0.08-0.2,0.08-0.42,0-0.61
	c-0.08-0.2-0.23-0.36-0.43-0.44c-0.39-0.17-0.88,0.03-1.04,0.42l-1.04,2.46C27.862,7.72,28.052,8.19,28.453,8.36z"/>
<path d="M20.792,24.41l-0.95,2.26c-0.09,0.2-0.09,0.42-0.01,0.61c0.08,0.2,0.23,0.36,0.43,0.44c0.1,0.04,0.2,0.06,0.31,0.06
	c0.32,0,0.61-0.19,0.74-0.48l0.96-2.27c0.17-0.41-0.02-0.88-0.43-1.05C21.453,23.81,20.962,24.01,20.792,24.41z"/>
<path d="M19.86,33.156c-0.586-0.281-1.14-0.546-1.407-0.821c-0.002-0.001-0.995-0.973-2.672-2.644
	c-0.942-0.938-2.131-0.944-3.043-0.47l-0.135-3.474c-0.271-2.992-1.813-4.253-3.201-4.204c-1.15,0.052-1.985,1.023-1.985,2.31
	c0,2.208,0.103,9.644,0.104,9.666c-0.005,0.089-0.094,2.213,1.768,4.072l7.083,8.179c0.158,0.183,0.381,0.276,0.605,0.276
	c0.186,0,0.372-0.064,0.523-0.195c0.334-0.29,0.37-0.794,0.081-1.129l-7.122-8.221c-1.377-1.376-1.343-2.843-1.34-2.951
	c-0.001-0.075-0.104-7.5-0.104-9.697c0-0.334,0.121-0.696,0.458-0.711c0.472-0.021,1.351,0.703,1.533,2.708l0.228,5.885
	c0.003,0.07,0.029,0.133,0.049,0.197c0.078,0.517,0.325,1.039,0.797,1.512l3.194,3.194c0.313,0.313,0.819,0.312,1.131,0
	c0.313-0.313,0.313-0.819,0-1.131l-3.194-3.195c-0.695-0.695-0.206-1.293-0.039-1.46c0.279-0.279,0.903-0.599,1.479-0.027
	c1.672,1.666,2.667,2.639,2.667,2.639c0.452,0.465,1.1,0.775,1.849,1.135c1.701,0.815,3.459,1.657,3.459,4.326v9.22
	c0,0.442,0.358,0.8,0.8,0.8s0.8-0.358,0.8-0.8v-9.22C24.227,35.249,21.599,33.99,19.86,33.156z"/>
<path d="M41.058,21.543c-1.4-0.071-2.931,1.213-3.204,4.245l-0.133,3.433c-0.912-0.473-2.101-0.469-3.043,0.47
	c-1.677,1.67-2.67,2.642-2.686,2.658c-0.253,0.261-0.807,0.526-1.393,0.807c-1.739,0.833-4.367,2.093-4.367,5.769v9.22
	c0,0.442,0.358,0.8,0.8,0.8s0.8-0.358,0.8-0.8v-9.22c0-2.668,1.758-3.511,3.459-4.326c0.75-0.359,1.397-0.669,1.835-1.121
	c0,0,0.998-0.976,2.682-2.653c0.576-0.572,1.2-0.252,1.479,0.027c0.167,0.167,0.656,0.766-0.039,1.46l-3.194,3.195
	c-0.312,0.313-0.312,0.819,0,1.131s0.819,0.312,1.131,0l3.194-3.194c0.471-0.471,0.718-0.991,0.797-1.505
	c0.021-0.067,0.047-0.132,0.05-0.204l0.225-5.844c0.185-2.044,1.031-2.757,1.535-2.75c0.337,0.015,0.458,0.377,0.458,0.711
	c0,2.197-0.103,9.622-0.103,9.743c0.002,0.062,0.036,1.529-1.38,2.947l-7.083,8.179c-0.289,0.334-0.253,0.839,0.081,1.129
	c0.151,0.131,0.338,0.195,0.523,0.195c0.224,0,0.447-0.093,0.605-0.276l7.043-8.137c1.9-1.901,1.812-4.024,1.808-4.061
	c0.001-0.075,0.104-7.511,0.104-9.719C43.043,22.566,42.208,21.595,41.058,21.543z"/>
</svg>
