<?xml version="1.0" encoding="utf-8"?>
<!-- Generator: Adobe Illustrator 24.2.1, SVG Export Plug-In . SVG Version: 6.00 Build 0)  -->
<svg version="1.1" id="Capa_1" xmlns="http://www.w3.org/2000/svg" xmlns:xlink="http://www.w3.org/1999/xlink" x="0px" y="0px"
	 viewBox="0 0 50.5 50.5" style="enable-background:new 0 0 50.5 50.5;" xml:space="preserve">
<path d="M27.175,8.227c-4.053,0-7.35,3.297-7.35,7.35s3.297,7.35,7.35,7.35s7.35-3.297,7.35-7.35S31.227,8.227,27.175,8.227z
	 M27.175,21.327c-3.171,0-5.75-2.58-5.75-5.75s2.58-5.75,5.75-5.75s5.75,2.58,5.75,5.75S30.345,21.327,27.175,21.327z"/>
<path d="M23.418,14.47c-0.44-0.04-0.83,0.3-0.86,0.73c-0.02,0.21,0.04,0.42,0.18,0.58c0.14,0.17,0.33,0.27,0.55,0.28
	c0.02,0.01,0.04,0.01,0.06,0.01c0.42,0,0.77-0.32,0.8-0.74c0,0,0,0,0-0.01c0.02-0.21-0.05-0.41-0.19-0.57
	C23.827,14.59,23.628,14.49,23.418,14.47z"/>
<path d="M28.117,11.04c-0.31-0.07-0.62-0.1-0.92-0.1h-0.03c-1.31,0-2.56,0.56-3.44,1.54c-0.14,0.15-0.22,0.36-0.2,0.57
	c0.01,0.21,0.1,0.41,0.26,0.56c0.15,0.13,0.34,0.2,0.53,0.2c0.23,0,0.45-0.1,0.6-0.26c0.71-0.8,1.83-1.16,2.87-0.95
	c0.43,0.09,0.86-0.19,0.95-0.62c0.04-0.2,0-0.42-0.11-0.6C28.508,11.2,28.327,11.08,28.117,11.04z"/>
<path d="M27.146,7.52c0.442,0,0.8-0.358,0.8-0.8V2.161c0-0.442-0.358-0.8-0.8-0.8s-0.8,0.358-0.8,0.8V6.72
	C26.346,7.162,26.704,7.52,27.146,7.52z"/>
<path d="M27.946,28.936v-4.367c0-0.442-0.358-0.8-0.8-0.8s-0.8,0.358-0.8,0.8v4.367c0,0.442,0.358,0.8,0.8,0.8
	S27.946,29.377,27.946,28.936z"/>
<path d="M40.532,14.749h-4.559c-0.442,0-0.8,0.358-0.8,0.8s0.358,0.8,0.8,0.8h4.559c0.442,0,0.8-0.358,0.8-0.8
	S40.974,14.749,40.532,14.749z"/>
<path d="M13.759,16.348h4.367c0.442,0,0.8-0.358,0.8-0.8s-0.358-0.8-0.8-0.8h-4.367c-0.442,0-0.8,0.358-0.8,0.8
	S13.317,16.348,13.759,16.348z"/>
<path d="M33.954,21.225c-0.313-0.312-0.819-0.312-1.132,0c-0.312,0.313-0.312,0.819,0,1.132l3.224,3.224
	c0.156,0.156,0.361,0.234,0.566,0.234s0.41-0.078,0.566-0.234c0.312-0.313,0.312-0.819,0-1.132L33.954,21.225z"/>
<path d="M20.201,9.736c0.156,0.156,0.361,0.234,0.566,0.234s0.41-0.078,0.565-0.234c0.313-0.313,0.313-0.819,0-1.131l-3.088-3.088
	c-0.313-0.313-0.82-0.312-1.131,0c-0.313,0.313-0.313,0.819,0,1.131L20.201,9.736z"/>
<path d="M33.388,10.105c0.205,0,0.41-0.078,0.566-0.234l3.224-3.224c0.312-0.313,0.312-0.819,0-1.132
	c-0.313-0.312-0.819-0.312-1.132,0L32.822,8.74c-0.312,0.313-0.312,0.819,0,1.132C32.978,10.027,33.183,10.105,33.388,10.105z"/>
<path d="M17.679,25.814c0.205,0,0.41-0.078,0.566-0.234l3.088-3.088c0.312-0.312,0.312-0.819,0-1.131s-0.819-0.312-1.131,0
	l-3.088,3.088c-0.312,0.312-0.312,0.819,0,1.131C17.27,25.737,17.475,25.814,17.679,25.814z"/>
<path d="M23.063,7.681c0.126,0.31,0.425,0.497,0.741,0.497c0.101,0,0.203-0.02,0.303-0.06c0.409-0.167,0.604-0.634,0.437-1.043
	l-0.969-2.368c-0.167-0.408-0.631-0.604-1.043-0.437c-0.409,0.167-0.604,0.634-0.437,1.043L23.063,7.681z"/>
<path d="M31.301,23.594c-0.167-0.409-0.631-0.605-1.043-0.437c-0.409,0.167-0.604,0.634-0.437,1.043l0.896,2.19
	c0.126,0.31,0.425,0.497,0.741,0.497c0.101,0,0.203-0.02,0.303-0.06c0.409-0.167,0.604-0.634,0.437-1.043L31.301,23.594z"/>
<path d="M16.342,11.862l2.358,0.994c0.102,0.042,0.207,0.063,0.31,0.063c0.312,0,0.609-0.184,0.738-0.49
	c0.171-0.407-0.02-0.876-0.427-1.048l-2.358-0.994c-0.407-0.17-0.876,0.02-1.048,0.427C15.744,11.222,15.935,11.69,16.342,11.862z"
	/>
<path d="M37.949,19.234l-2.181-0.919c-0.406-0.171-0.876,0.02-1.048,0.427c-0.171,0.407,0.02,0.876,0.427,1.048l2.181,0.919
	c0.101,0.042,0.207,0.063,0.31,0.063c0.312,0,0.609-0.184,0.738-0.49C38.547,19.875,38.356,19.406,37.949,19.234z"/>
<path d="M19.715,18.587c-0.168-0.409-0.633-0.605-1.043-0.438l-2.369,0.968c-0.409,0.167-0.605,0.634-0.438,1.043
	c0.127,0.31,0.426,0.498,0.741,0.498c0.101,0,0.203-0.019,0.302-0.06l2.369-0.968C19.686,19.463,19.882,18.997,19.715,18.587z"/>
<path d="M35.192,11.394c-0.409,0.167-0.605,0.634-0.438,1.043c0.126,0.31,0.425,0.498,0.741,0.498c0.101,0,0.203-0.019,0.302-0.06
	l2.191-0.896c0.409-0.167,0.605-0.634,0.438-1.043c-0.167-0.409-0.633-0.605-1.043-0.438L35.192,11.394z"/>
<path d="M30.275,8.155c0.102,0.043,0.207,0.063,0.311,0.063c0.312,0,0.608-0.184,0.737-0.489l0.997-2.356
	c0.172-0.407-0.018-0.876-0.425-1.048c-0.407-0.173-0.876,0.019-1.048,0.425L29.85,7.107C29.678,7.514,29.868,7.983,30.275,8.155z"
	/>
<path d="M22.707,26.835c0.312,0,0.608-0.184,0.737-0.489l0.922-2.18c0.172-0.407-0.018-0.876-0.425-1.048
	c-0.406-0.173-0.875,0.019-1.048,0.425l-0.922,2.18c-0.172,0.407,0.018,0.876,0.425,1.048
	C22.497,26.814,22.603,26.835,22.707,26.835z"/>
<path d="M29.624,43.162c-0.832,0.782-1.75,1.442-2.721,1.999l-2.885-6.314c0.4-0.076,0.588-0.13,0.603-0.135
	c0.023-0.006,2.33-0.618,3.38,0.694c0.158,0.197,0.39,0.3,0.625,0.3c0.175,0,0.352-0.057,0.5-0.175
	c0.345-0.276,0.401-0.779,0.125-1.125c-1.712-2.14-4.921-1.273-5.066-1.233c-0.014,0.004-1.422,0.398-5.366,0.602
	c-3.578,0.172-5.165-2.853-5.199-2.909l-0.648-1.658l5.756-1.297c0.036-0.008,0.082-0.023,0.117-0.036
	c0.066-0.025,1.627-0.584,3.672,1.042c0.346,0.275,0.849,0.217,1.124-0.128c0.275-0.346,0.218-0.849-0.128-1.124
	c-2.56-2.036-4.737-1.455-5.184-1.304l-5.946,1.34l-3.161-8.095c-0.161-0.412-0.625-0.616-1.036-0.454
	c-0.412,0.161-0.615,0.625-0.454,1.036L12.16,35.52c0.057,0.113,1.012,1.953,3.057,3.053l-2.755,6.546
	c-0.796-0.464-1.555-0.999-2.256-1.615c-0.333-0.293-0.838-0.258-1.129,0.074c-0.291,0.332-0.258,0.837,0.074,1.129
	c2.925,2.565,6.681,3.977,10.576,3.977c4.103,0,8.007-1.547,10.994-4.357c0.322-0.303,0.337-0.809,0.034-1.131
	C30.452,42.875,29.947,42.86,29.624,43.162z M19.727,47.084c-2.028,0-4.009-0.438-5.833-1.243l2.813-6.686
	c0.655,0.171,1.382,0.261,2.193,0.217c1.477-0.076,2.611-0.179,3.471-0.281l3.102,6.789C23.678,46.661,21.731,47.084,19.727,47.084z
	"/>
</svg>
