<svg id="Layer_1" data-name="Layer 1" xmlns="http://www.w3.org/2000/svg" viewBox="0 0 50.46 50.46"><defs><style>.cls-1{fill:#65b4e1;}</style></defs><title>vias</title><circle class="cls-1" cx="14.95" cy="14.17" r="1"/><circle class="cls-1" cx="25.23" cy="14.17" r="1"/><circle class="cls-1" cx="35.51" cy="14.17" r="1"/><circle class="cls-1" cx="14.95" cy="36.91" r="1"/><circle class="cls-1" cx="25.23" cy="36.91" r="1"/><circle class="cls-1" cx="35.51" cy="36.91" r="1"/><path class="cls-1" d="M43.18,31.06H39.06V19.4h3.31a.9.9,0,0,0,0-1.79H39.06V10.41a.87.87,0,0,0-.87-.87H32.83a.87.87,0,0,0-.87.87v7.19H28.78V10.41a.87.87,0,0,0-.87-.87H22.55a.87.87,0,0,0-.87.87v7.19H18.51V10.41a.87.87,0,0,0-.87-.87H12.27a.87.87,0,0,0-.87.87v7.19H7.28a.9.9,0,1,0,0,1.79H11.4V31.06H7.28a.9.9,0,0,0,0,1.79H11.4V40a.87.87,0,0,0,.87.87h5.37a.87.87,0,0,0,.87-.87V32.85h3.17V40a.87.87,0,0,0,.87.87h5.37a.87.87,0,0,0,.87-.87V32.85H32V40a.87.87,0,0,0,.87.87h5.37a.87.87,0,0,0,.87-.87V32.85h4.12a.9.9,0,0,0,0-1.79Zm-5.86,0H33.7V19.4h3.63ZM33.7,11.28h3.63v6.32H33.7Zm-10.28,0H27v6.32H23.42ZM27,19.4V31.06H23.42V19.4Zm-13.9-8.12h3.63v6.32H13.14Zm0,8.12h3.63V31.06H13.14Zm3.63,19.78H13.14V32.85h3.63Zm1.74-8.12V19.4h3.17V31.06ZM27,39.18H23.42V32.85H27Zm1.74-8.12V19.4H32V31.06Zm8.54,8.12H33.7V32.85h3.63Z"/></svg>