<?xml version="1.0" encoding="utf-8"?>
<!-- Generator: Adobe Illustrator 24.2.1, SVG Export Plug-In . SVG Version: 6.00 Build 0)  -->
<svg version="1.1" id="Layer_1" xmlns="http://www.w3.org/2000/svg" xmlns:xlink="http://www.w3.org/1999/xlink" x="0px" y="0px"
	 viewBox="0 0 50.5 50.5" style="enable-background:new 0 0 50.5 50.5;" xml:space="preserve">
<path d="M34.2,9.2c-3.7,0-7.1,1.7-9.4,4.5c-2.3-2.8-5.7-4.5-9.4-4.5c-6.7,0-12.2,5.5-12.2,12.2c0,3.1,1.1,6,3.2,8.3
	c0,0.1,0.1,0.1,0.1,0.2l12.1,11.7c1.7,1.7,4,2.5,6.2,2.5s4.4-0.8,6.2-2.5l12-11.8c0,0,0.1-0.1,0.1-0.2c2.1-2.3,3.2-5.2,3.2-8.3
	C46.4,14.7,40.9,9.2,34.2,9.2z M41.6,28.5l-12,11.7c-2.7,2.6-7,2.6-9.7,0L8,28.6c0,0,0-0.1-0.1-0.1c-1.8-1.9-2.8-4.4-2.8-7.1
	c0-5.7,4.6-10.3,10.3-10.3c3.5,0,6.7,1.8,8.6,4.7c0.4,0.5,1.2,0.5,1.6,0c1.9-3,5.1-4.7,8.6-4.7c5.7,0,10.3,4.6,10.3,10.3
	C44.5,24,43.5,26.5,41.6,28.5z M38,15.8c-0.2,0.3-0.4,0.4-0.7,0.4c-0.1,0-0.3,0-0.4-0.1c-0.4-0.3-1-0.5-1.5-0.7
	c-0.4-0.1-0.6-0.6-0.5-1c0.1-0.4,0.6-0.6,1-0.5c0.6,0.2,1.2,0.5,1.8,0.8C38.1,14.9,38.2,15.4,38,15.8z M41.8,21.6
	c0,0.3-0.1,0.7-0.1,1c0,0.4-0.4,0.7-0.8,0.7h-0.1c-0.4-0.1-0.7-0.5-0.7-0.9c0-0.3,0-0.5,0-0.8c0-1.6-0.5-3.1-1.5-4.2
	c-0.3-0.3-0.2-0.8,0.1-1.1s0.8-0.2,1.1,0.1C41,17.9,41.7,19.7,41.8,21.6z"/>
</svg>
