<?xml version="1.0" encoding="utf-8"?>
<!-- Generator: Adobe Illustrator 24.2.1, SVG Export Plug-In . SVG Version: 6.00 Build 0)  -->
<svg version="1.1" id="Layer_1" xmlns="http://www.w3.org/2000/svg" xmlns:xlink="http://www.w3.org/1999/xlink" x="0px" y="0px"
	 viewBox="0 0 50.5 50.5" style="enable-background:new 0 0 50.5 50.5;" xml:space="preserve">
<path d="M35.1,4.3H14.2c-2.2,0-4.1,1.8-4.1,4v33.8c0,2.2,1.8,4.1,4.1,4.1h21c1.1,0,2.2-0.5,2.9-1.3s1.1-1.8,1-2.8V8.3
	C39.2,6.1,37.3,4.3,35.1,4.3z M37.3,42.2c0,0.5-0.2,1-0.6,1.4c-0.4,0.4-0.9,0.7-1.5,0.7h-21c-1.2,0-2.1-1-2.1-2.2V8.3
	c0-1.2,1-2.1,2.1-2.1h20.9c1.2,0,2.2,1,2.2,2.1V42.2z M33.9,8.6H15.5c-0.4,0-0.8,0.4-0.8,0.8v16.8c0,0.4,0.4,0.8,0.8,0.8h18.4
	c0.4,0,0.8-0.4,0.8-0.8V9.4C34.7,9,34.3,8.6,33.9,8.6z M33.1,25.4H16.3V10.2h16.8V25.4z M23,33.9h-2.4v-2.4c0-0.5-0.4-0.9-0.9-0.9
	s-0.9,0.4-0.9,0.9v2.4h-2.4c-0.5,0-0.9,0.4-0.9,0.9s0.4,0.9,0.9,0.9h2.4v2.4c0,0.5,0.4,0.9,0.9,0.9s0.9-0.4,0.9-0.9v-2.4H23
	c0.5,0,0.9-0.4,0.9-0.9S23.5,33.9,23,33.9z M29,31.5c0.9,0,1.7,0.8,1.7,1.7s-0.8,1.7-1.7,1.7s-1.7-0.8-1.7-1.7S28.1,31.5,29,31.5z
	 M32.2,34.8c0.9,0,1.7,0.8,1.7,1.7s-0.8,1.7-1.7,1.7s-1.7-0.8-1.7-1.7S31.3,34.8,32.2,34.8z"/>
</svg>
