<?xml version="1.0" encoding="utf-8"?>
<!-- Generator: Adobe Illustrator 24.2.1, SVG Export Plug-In . SVG Version: 6.00 Build 0)  -->
<svg version="1.1" id="Layer_1" xmlns="http://www.w3.org/2000/svg" xmlns:xlink="http://www.w3.org/1999/xlink" x="0px" y="0px"
	 viewBox="0 0 50.5 50.5" style="enable-background:new 0 0 50.5 50.5;" xml:space="preserve">
<path d="M24.5,8.3H9c-2.2,0-4,1.8-4,4v25.9c0,2.2,1.8,4,4,4h15.5c2.2,0,4-1.9,4-4.1V12.3C28.5,10.1,26.7,8.3,24.5,8.3z M26.6,38.1
	c0,1.1-0.9,2.1-2.1,2.1H9c-1.1,0-2.1-0.9-2.1-2.1V12.3c0-1.1,0.9-2.1,2.1-2.1h15.5c1.1,0,2.1,0.9,2.1,2.1V38.1z M24,11.7H9.3
	c-0.4,0-0.8,0.4-0.8,0.8V26c0,0.4,0.4,0.8,0.8,0.8h14.8c0.4,0,0.8-0.4,0.7-0.8V12.5C24.8,12.1,24.4,11.7,24,11.7z M23.2,25.2H10.1
	V13.3h13.1V25.2z M16,32.9c0,0.4-0.3,0.7-0.7,0.7h-1.9v1.9c0,0.4-0.3,0.7-0.7,0.7c-0.4,0-0.7-0.3-0.7-0.7v-1.9h-1.9
	c-0.4,0-0.7-0.3-0.7-0.7c0-0.4,0.3-0.7,0.7-0.7H12v-1.9c0-0.4,0.3-0.7,0.7-0.7c0.4,0,0.7,0.3,0.7,0.7v1.9h1.9
	C15.7,32.2,16,32.5,16,32.9z M21.4,31.7c0,0.7-0.7,1.3-1.4,1.3s-1.3-0.7-1.3-1.4c0-0.7,0.7-1.3,1.4-1.3
	C20.9,30.3,21.5,30.9,21.4,31.7z M24,34.2c0,0.7-0.6,1.3-1.3,1.3s-1.3-0.6-1.3-1.3s0.6-1.3,1.3-1.3C23.5,32.9,24.1,33.5,24,34.2z
	 M44.6,23.2c0,3.5-0.7,6.9-1.9,10.1c-0.2,0.4-0.6,0.6-0.9,0.6c-0.1,0-0.2,0-0.4-0.1c-0.5-0.2-0.7-0.7-0.5-1.2c1.2-3,1.8-6.1,1.8-9.4
	s-0.6-6.4-1.7-9.4c-0.2-0.5,0-1,0.5-1.2c0.5-0.2,1,0,1.2,0.5C44,16.3,44.6,19.7,44.6,23.2z M33.3,18.8c0.4,1.4,0.6,2.9,0.6,4.4
	s-0.2,3-0.6,4.4c-0.1,0.4-0.5,0.7-0.9,0.7c-0.1,0-0.2,0-0.3,0c-0.5-0.1-0.8-0.7-0.7-1.2c0.3-1.2,0.5-2.5,0.5-3.9
	c0-1.3-0.2-2.6-0.5-3.9c-0.1-0.5,0.2-1,0.7-1.2C32.6,18,33.1,18.3,33.3,18.8z M38,16c0.8,2.3,1.2,4.8,1.2,7.2c0,2.5-0.4,4.9-1.2,7.3
	c-0.1,0.3-0.5,0.6-0.9,0.6c-0.1,0-0.2,0-0.3-0.1c-0.5-0.2-0.8-0.7-0.6-1.2c0.7-2.1,1.1-4.4,1.1-6.6c0-2.3-0.4-4.5-1.1-6.6
	c-0.2-0.5,0.1-1,0.6-1.2C37.3,15.2,37.8,15.5,38,16z"/>
</svg>
