<svg id="Layer_1" data-name="Layer 1" xmlns="http://www.w3.org/2000/svg" viewBox="0 0 50.46 50.46"><defs><style>.cls-1{fill:#12b5e1;}</style></defs><title>vigilancia alimentaria</title><path class="cls-1" d="M20.48,35.59a.78.78,0,0,0-1.56,0v.82a.78.78,0,1,0,1.56,0Z"/><path class="cls-1" d="M32.28,39.45v3.78l-11.8,3.15V42.56a.78.78,0,1,0-1.56,0v3.66l-7.05-2.89V14.56l7.05,2.89v16a.78.78,0,1,0,1.56,0V17.53l11.8-3.15v4.7c.57.07,1.47.27,2,.35V13.3s0-.07,0-.1v0a.8.8,0,0,0,0-.21.63.63,0,0,0-.07-.12l0-.07a.42.42,0,0,0-.08-.12L27.89,6V2.84a1,1,0,0,0-.38-.78,1,1,0,0,0-.85-.18L16.05,4.43a1,1,0,0,0-.76,1l0,3.08-5.07,4,0,0a1.14,1.14,0,0,0-.14.16l0,0-.07.11a.44.44,0,0,0-.05.15l.14,0-.16,0,0,.17V44a1,1,0,0,0,.62.92l8.82,3.62a1,1,0,0,0,.38.08,1.09,1.09,0,0,0,.26,0L33.53,45a1,1,0,0,0,.74-1V39.16A18.29,18.29,0,0,1,32.28,39.45ZM25.9,4.1V6.37a.36.36,0,0,0,0,.11v.06a.5.5,0,0,0,0,.19.54.54,0,0,0,.09.15l.14,0h0l-.11.11.07.1,5.44,5.9L20.15,16,17.43,9.58l4.85-1.27a.79.79,0,0,0,.55-1,.78.78,0,0,0-.95-.56L17.3,8V6.18Zm-9.82,6.32,2.16,5.06-5.61-2.3Z"/><path class="cls-1" d="M24.12,6.23a.81.81,0,0,0-.78.82.78.78,0,1,0,1.56,0V7A.74.74,0,0,0,24.12,6.23Z"/><path class="cls-1" d="M48,44.4l-7.9-8.75a10.35,10.35,0,0,1-3.28,2.93l7.9,8.75A2.2,2.2,0,0,0,48,44.4Z"/><path class="cls-1" d="M40.34,29.86a8.79,8.79,0,1,0-9.28,8.28A8.8,8.8,0,0,0,40.34,29.86ZM31.19,36a6.6,6.6,0,1,1,7-6.22A6.61,6.61,0,0,1,31.19,36Z"/><path class="cls-1" d="M31.81,25a4.4,4.4,0,0,0-4.62,4.12.71.71,0,0,0,1.42.08,3,3,0,0,1,3.12-2.78A.71.71,0,0,0,31.81,25Z"/></svg>