<?xml version="1.0" encoding="utf-8"?>
<!-- Generator: Adobe Illustrator 24.2.1, SVG Export Plug-In . SVG Version: 6.00 Build 0)  -->
<svg version="1.1" id="Layer_1" xmlns="http://www.w3.org/2000/svg" xmlns:xlink="http://www.w3.org/1999/xlink" x="0px" y="0px"
	 viewBox="0 0 50.5 50.5" style="enable-background:new 0 0 50.5 50.5;" xml:space="preserve">
<path d="M20.841,28.228c0,0.441-0.358,0.8-0.8,0.8h-0.305c-0.442,0-0.8-0.358-0.8-0.8s0.358-0.8,0.8-0.8h0.305
	C20.483,27.428,20.841,27.786,20.841,28.228z M18.767,36.738v4.467c0,3.184,2.977,4.846,3.007,4.862
	c0.321,0.175,0.482,0.546,0.392,0.9c-0.091,0.354-0.41,0.602-0.775,0.602h-6.848c-0.366,0-0.685-0.248-0.775-0.602
	c-0.09-0.354,0.071-0.726,0.392-0.9c0.121-0.067,3.008-1.702,3.008-4.862v-4.467c-1.441-0.187-2.792-0.867-3.791-1.939
	c-1.182-1.269-1.79-2.988-1.667-4.719l0.686-9.679c0.029-0.419,0.378-0.743,0.798-0.743h9.546c0.42,0,0.769,0.324,0.798,0.743
	l0.686,9.679c0.123,1.73-0.485,3.45-1.667,4.719C21.558,35.872,20.207,36.551,18.767,36.738z M17.967,44.361
	c-0.342,0.634-0.757,1.17-1.17,1.609h2.339C18.724,45.53,18.309,44.994,17.967,44.361z M21.386,33.708
	c0.894-0.959,1.335-2.207,1.242-3.515l-0.633-8.936h-8.056l-0.437,6.17h3.236c0.442,0,0.8,0.358,0.8,0.8s-0.358,0.8-0.8,0.8h-3.349
	l-0.083,1.166c-0.093,1.308,0.349,2.556,1.242,3.515c0.894,0.96,2.108,1.488,3.42,1.488C19.278,35.196,20.492,34.668,21.386,33.708z
	 M38.798,24.734l-1.905,22.104c-0.035,0.414-0.382,0.731-0.797,0.731H24.714c-0.415,0-0.761-0.317-0.797-0.731l-0.905-10.5
	c-0.038-0.439,0.288-0.827,0.728-0.865c0.44-0.037,0.828,0.288,0.866,0.729l0.842,9.769h9.913l0.643-7.451H29.56
	c-0.331,0-0.6-0.269-0.6-0.6V25.25c0-0.332,0.269-0.6,0.6-0.6h7.572c0.024,0,0.044,0.011,0.067,0.014l0.003-0.035
	c0.131-2.949-1.666-5.639-4.473-6.662c-0.316-0.115-0.526-0.415-0.526-0.751V8.082h-3.596v9.134c0,0.337-0.211,0.637-0.527,0.752
	c-0.886,0.321-1.683,0.815-2.367,1.467c-0.32,0.305-0.826,0.293-1.131-0.027c-0.305-0.32-0.292-0.826,0.027-1.131
	c0.708-0.675,1.513-1.212,2.398-1.602V8.077h-0.101c-0.441,0-0.8-0.358-0.8-0.8V4.67c0-0.959,0.78-1.739,1.739-1.739h5.117
	c0.959,0,1.739,0.78,1.739,1.739v2.608c0,0.442-0.358,0.8-0.8,0.8h-0.101v8.599C36.966,18.071,38.954,21.24,38.798,24.734z
	 M33.104,4.67c0-0.077-0.063-0.14-0.14-0.14h-5.117c-0.077,0-0.14,0.063-0.14,0.14v1.808h5.396V4.67z M37.097,25.85h-6.938V37.32
	h5.948L37.097,25.85z"/>
</svg>
