<svg id="Layer_1" data-name="Layer 1" xmlns="http://www.w3.org/2000/svg" viewBox="0 0 50.46 50.46"><defs><style>.cls-1{fill:#65b4e1;}</style></defs><title>vivienda</title><path class="cls-1" d="M25.79,10a1,1,0,0,0-1.12,0L10.28,20.44a1,1,0,0,0-.39.77V42a1,1,0,0,0,1,1H39.62a1,1,0,0,0,1-1V21.21a1,1,0,0,0-.39-.77Zm4,31.09H20.63V28.26h9.19Zm8.84,0H31.73V27.31a1,1,0,0,0-1-1H19.68a1,1,0,0,0-1,1V41.1H11.79V21.7L25.23,12,38.67,21.7Z"/><path class="cls-1" d="M43.84,17.67l-18-13a1.06,1.06,0,0,0-1.24,0l-8.5,6.17V5.48a1.06,1.06,0,1,0-2.12,0V12a1,1,0,0,0,.06.28L6.62,17.67a1.06,1.06,0,1,0,1.24,1.71L25.23,6.79,42.6,19.39a1.06,1.06,0,1,0,1.24-1.71Z"/></svg>