<svg id="Layer_1" data-name="Layer 1" xmlns="http://www.w3.org/2000/svg" viewBox="0 0 50.46 50.46"><defs><style>.cls-1{fill:#65b4e1;}</style></defs><title>vivienda familia</title><path class="cls-1" d="M25.7,13.71a.8.8,0,0,0-.94,0l-12.14,8.8a.8.8,0,0,0-.33.65V40.74a.8.8,0,0,0,.8.8H37.37a.8.8,0,0,0,.8-.8V23.16a.8.8,0,0,0-.33-.65ZM20.76,36.26h.52v3.68h-.51Zm1.7-4.71,0-1.48a4.44,4.44,0,0,1,.26,1,6.32,6.32,0,0,1,.13,1.52.58.58,0,0,0,.3.52,1.25,1.25,0,0,0,.35,1.18,1,1,0,0,0,.59.19h.1s0,3.81,0,5.48H22.46V36.16c.58-.09,1-.25,1-.47C23.42,35.24,22.63,32.26,22.46,31.55Zm4.66,1.55.1-.06a.58.58,0,0,0,.18-.31,18.79,18.79,0,0,1,.52-1.92v9.13H26.05c0-1.66,0-5.45,0-5.48h.1a1,1,0,0,0,.59-.19A1.24,1.24,0,0,0,27.12,33.1Zm2.54,6.84h-.37V34h.39Zm-4.44,0h-.14v-3.2h.14Zm11.34,0H31l0-9.12a2.72,2.72,0,0,1,.26,1.75.58.58,0,0,0,.52.64h.06a.58.58,0,0,0,.58-.52c.26-2.61-.92-3.92-1.84-4.42A2.52,2.52,0,0,0,29.43,28a1.93,1.93,0,0,0-1.12.3c-1.13.73-1.51,1.74-2,4.15a.58.58,0,0,0,.19.56c.05.37,0,.64-.09.72s-.51-.09-.61-.17a1,1,0,0,0-.39-.19h-.44a1,1,0,0,0-.39.19c-.1.08-.39.32-.61.17s-.15-.36-.09-.74a.58.58,0,0,0,.2-.43c.16-3.53-1.79-4.32-1.79-4.32A2,2,0,0,0,21,28a2.6,2.6,0,0,0-1.22.26c-.32.16-1.95.85-1.79,4.38a.58.58,0,0,0,.58.57h0a.58.58,0,0,0,.57-.59,6.31,6.31,0,0,1,.13-1.52,4.17,4.17,0,0,1,.26-.95l0,1.44c-.16.71-1,3.69-1,4.14,0,.22.34.38.92.47v3.78H13.89V23.57l11.34-8.22,11.34,8.22Z"/><path class="cls-1" d="M40.93,20.17l-15.18-11a.89.89,0,0,0-1,0l-7.17,5.2V9.89a.89.89,0,0,0-1.79,0v5.79L9.53,20.17a.89.89,0,1,0,1,1.45L25.23,11,39.88,21.62a.89.89,0,1,0,1-1.45Z"/><path class="cls-1" d="M21.06,24.76h0a1.5,1.5,0,0,0,0,3h0a1.5,1.5,0,0,0,0-3Z"/><circle class="cls-1" cx="29.46" cy="26.26" r="1.5"/><path class="cls-1" d="M25.16,31.5h0a.9.9,0,0,0,0,1.8h.06a.9.9,0,0,0,0-1.8Z"/></svg>