<?xml version="1.0" encoding="utf-8"?>
<!-- Generator: Adobe Illustrator 26.5.0, SVG Export Plug-In . SVG Version: 6.00 Build 0)  -->
<svg version="1.1" id="Layer_1" xmlns="http://www.w3.org/2000/svg" xmlns:xlink="http://www.w3.org/1999/xlink" x="0px" y="0px"
	 viewBox="0 0 50.5 50.5" style="enable-background:new 0 0 50.5 50.5;" xml:space="preserve">
<g>
	<path d="M39.836,15.194c1.222-0.711,1.753-2.146,1.389-3.448l1.794-1.044l-0.355,1.344l1.47,0.389l0.825-3.12
		c0.108-0.407-0.134-0.822-0.541-0.93l-3.12-0.825l-0.389,1.47l1.345,0.356l-1.793,1.043c-0.952-0.96-2.462-1.207-3.684-0.497l0,0
		c-1.45,0.844-1.943,2.71-1.1,4.16C36.52,15.544,38.386,16.037,39.836,15.194z M37.541,11.249c0.725-0.422,1.658-0.175,2.08,0.55
		c0.422,0.725,0.175,1.658-0.55,2.08s-1.658,0.175-2.08-0.55C36.569,12.604,36.816,11.671,37.541,11.249z"/>
	<path d="M10.442,12.236v0.888H8.921v1.521h1.521v1.521h1.521v-1.521h1.521v-1.521h-1.521V12.28c0.035-0.008,0.07-0.012,0.105-0.021
		c1.62-0.434,2.585-2.106,2.151-3.726c-0.434-1.621-2.105-2.588-3.726-2.152c-1.62,0.434-2.585,2.106-2.151,3.726
		C8.628,11.174,9.452,11.949,10.442,12.236z M9.963,8.56c0.203-0.351,0.532-0.603,0.923-0.709c0.132-0.035,0.264-0.052,0.394-0.052
		c0.672,0,1.288,0.449,1.47,1.128c0.217,0.81-0.266,1.646-1.076,1.863c-0.808,0.218-1.646-0.266-1.863-1.077l0,0
		C9.706,9.321,9.76,8.912,9.963,8.56z"/>
	<path d="M24.085,14.16v1.673h-1.521v1.521h1.521v1.521h1.521v-1.521h1.521v-1.521h-1.521v-1.587
		c0.318-0.065,0.628-0.175,0.917-0.342c1.224-0.707,1.76-2.14,1.4-3.443l1.797-1.037l-0.36,1.343l1.47,0.394l0.835-3.117
		c0.109-0.406-0.132-0.823-0.537-0.932v0l-3.117-0.835l-0.394,1.47l1.343,0.36l-1.797,1.037c-0.376-0.383-0.841-0.67-1.373-0.812
		c-0.783-0.209-1.605-0.102-2.309,0.304c-1.453,0.839-1.952,2.703-1.113,4.156C22.75,13.454,23.359,13.931,24.085,14.16z
		 M24.242,9.951C24.476,9.816,24.736,9.746,25,9.746c0.132,0,0.266,0.018,0.396,0.053c0.393,0.105,0.72,0.357,0.923,0.709
		c0.42,0.727,0.171,1.659-0.556,2.078c-0.351,0.205-0.761,0.259-1.154,0.152c-0.393-0.105-0.72-0.357-0.923-0.709
		C23.266,11.303,23.516,10.37,24.242,9.951z"/>
	<path d="M10.976,30.818c1.716,0,3.348-0.641,4.593-1.805c1.31-1.221,2.061-2.94,2.061-4.718c0-3.594-2.984-6.518-6.653-6.518
		s-6.653,2.924-6.653,6.518c0,1.797,0.727,3.469,2.046,4.705C7.616,30.173,9.252,30.818,10.976,30.818z M10.976,19.377
		c2.787,0,5.054,2.207,5.054,4.918c0,1.355-0.551,2.616-1.553,3.548c-0.948,0.887-2.191,1.375-3.501,1.375
		c-1.315,0-2.562-0.492-3.512-1.386c-0.994-0.931-1.542-2.187-1.542-3.538C5.922,21.584,8.189,19.377,10.976,19.377z"/>
	<path d="M25.143,33.455c1.717,0,3.348-0.641,4.592-1.805c1.311-1.22,2.062-2.94,2.062-4.719c0-3.594-2.984-6.517-6.654-6.517
		c-3.669,0-6.653,2.923-6.653,6.517c0,1.797,0.727,3.469,2.046,4.706C21.784,32.81,23.42,33.455,25.143,33.455z M25.143,22.014
		c2.787,0,5.054,2.206,5.054,4.917c0,1.355-0.552,2.616-1.553,3.55c-0.948,0.886-2.191,1.374-3.501,1.374
		c-1.314,0-2.562-0.491-3.512-1.385c-0.994-0.932-1.542-2.189-1.542-3.539C20.089,24.22,22.356,22.014,25.143,22.014z"/>
	<path d="M29.472,33.727c-0.241-0.146-0.547-0.155-0.798-0.02c-1.052,0.57-2.246,0.878-3.43,0.889
		c-1.184-0.023-2.359-0.324-3.403-0.87c-0.25-0.159-0.577-0.173-0.846-0.009c-3.404,2.073-4.917,6.22-5.178,7.509
		c-0.066,0.328,0.079,0.663,0.364,0.84c2.673,1.651,5.75,2.556,8.909,2.619c0.045,0.008,0.092,0.012,0.139,0.012
		c0.003,0,0.007,0,0.01,0c3.208-0.04,6.336-0.946,9.048-2.622c0.285-0.177,0.43-0.512,0.363-0.84
		C34.387,39.945,32.873,35.799,29.472,33.727z M25.349,43.095c-0.033-0.005-0.067-0.008-0.101-0.008
		c-2.72-0.033-5.376-0.752-7.721-2.083c0.463-1.495,1.785-4.178,3.935-5.682c1.169,0.547,2.458,0.848,3.773,0.873
		c1.305-0.012,2.599-0.309,3.77-0.863c2.148,1.504,3.47,4.186,3.935,5.681C30.632,42.322,28.022,43.04,25.349,43.095z"/>
	<path d="M18.046,34.642c0.015-0.018,0.019-0.04,0.032-0.059c0.032-0.045,0.055-0.092,0.077-0.142
		c0.02-0.047,0.038-0.092,0.049-0.141c0.011-0.05,0.014-0.099,0.015-0.151c0.001-0.052,0.001-0.1-0.008-0.151
		c-0.008-0.049-0.024-0.095-0.042-0.143c-0.019-0.051-0.04-0.098-0.069-0.145c-0.012-0.02-0.015-0.042-0.029-0.061
		c-0.807-1.072-1.737-1.934-2.766-2.561c-0.244-0.15-0.548-0.157-0.799-0.02c-1.051,0.572-2.245,0.88-3.429,0.889
		c-1.194-0.026-2.384-0.333-3.445-0.885c-0.115-0.065-0.241-0.111-0.383-0.111c-0.175,0-0.338,0.058-0.471,0.154
		c-3.353,2.076-4.863,6.184-5.128,7.465c-0.068,0.329,0.076,0.665,0.362,0.842c2.668,1.653,5.746,2.559,8.909,2.623
		c0.045,0.008,0.092,0.012,0.139,0.012c0.003,0,0.006,0,0.009,0c0.95-0.01,1.904-0.103,2.834-0.273
		c0.015-0.003,0.027-0.013,0.042-0.017c0.071-0.017,0.137-0.045,0.2-0.08c0.021-0.012,0.044-0.019,0.064-0.032
		c0.077-0.053,0.145-0.118,0.2-0.196c0.013-0.018,0.019-0.04,0.03-0.059c0.03-0.05,0.062-0.099,0.08-0.157
		C14.892,40.083,15.986,37.12,18.046,34.642z M11.078,40.447c-2.721-0.034-5.375-0.752-7.714-2.083
		c0.42-1.32,1.653-4.081,3.965-5.677c1.165,0.533,2.436,0.841,3.735,0.869c1.307-0.01,2.602-0.307,3.774-0.863
		c0.561,0.391,1.075,0.899,1.56,1.468c-1.735,2.271-2.768,4.76-3.242,6.113c-0.653,0.1-1.314,0.169-1.977,0.181
		C11.146,40.45,11.112,40.447,11.078,40.447z"/>
	<path d="M39.311,30.818c1.717,0,3.348-0.641,4.592-1.805c1.311-1.22,2.062-2.94,2.062-4.718c0-3.594-2.984-6.518-6.653-6.518
		s-6.653,2.924-6.653,6.518c0,1.796,0.727,3.468,2.046,4.705C35.951,30.173,37.587,30.818,39.311,30.818z M39.311,19.377
		c2.786,0,5.054,2.207,5.054,4.918c0,1.355-0.552,2.616-1.553,3.549c-0.948,0.886-2.191,1.374-3.501,1.374
		c-1.314,0-2.562-0.492-3.513-1.386c-0.993-0.932-1.541-2.188-1.541-3.538C34.257,21.584,36.524,19.377,39.311,19.377z"/>
	<path d="M48.812,38.595c-0.258-1.288-1.763-5.431-5.175-7.508c-0.244-0.146-0.549-0.154-0.799-0.019
		c-1.051,0.572-2.244,0.88-3.429,0.889c-1.195-0.026-2.387-0.333-3.447-0.886c-0.115-0.064-0.241-0.11-0.381-0.11
		c-0.175,0-0.338,0.058-0.471,0.154c-0.989,0.611-1.903,1.462-2.718,2.529c-0.015,0.019-0.018,0.043-0.031,0.063
		c-0.029,0.046-0.051,0.093-0.07,0.143c-0.018,0.049-0.034,0.096-0.043,0.146c-0.008,0.049-0.009,0.096-0.009,0.146
		c0.001,0.053,0.004,0.104,0.016,0.156c0.01,0.047,0.027,0.09,0.046,0.135c0.022,0.052,0.046,0.1,0.079,0.147
		c0.013,0.019,0.017,0.041,0.032,0.059c2.081,2.507,3.153,5.442,3.518,6.588c0.019,0.059,0.051,0.109,0.082,0.161
		c0.011,0.019,0.017,0.04,0.03,0.058c0.055,0.078,0.123,0.143,0.199,0.196c0.021,0.014,0.046,0.022,0.068,0.034
		c0.062,0.034,0.126,0.062,0.196,0.079c0.015,0.004,0.027,0.014,0.043,0.017c0.886,0.163,1.795,0.254,2.706,0.271
		c0.045,0.008,0.091,0.012,0.138,0.012c0.003,0,0.007,0,0.01,0c3.222-0.04,6.351-0.948,9.049-2.625
		C48.734,39.255,48.878,38.922,48.812,38.595z M39.513,40.455c-0.033-0.005-0.067-0.008-0.102-0.008
		c-0.711-0.008-1.419-0.078-2.115-0.184c-0.467-1.347-1.491-3.824-3.245-6.114c0.503-0.586,1.039-1.075,1.602-1.465
		c1.167,0.535,2.442,0.845,3.746,0.873c1.308-0.01,2.603-0.307,3.773-0.863c2.155,1.506,3.473,4.187,3.932,5.679
		C44.809,39.683,42.199,40.4,39.513,40.455z"/>
</g>
</svg>
