<?xml version="1.0" encoding="utf-8"?>
<!-- Generator: Adobe Illustrator 24.2.1, SVG Export Plug-In . SVG Version: 6.00 Build 0)  -->
<svg version="1.1" id="Layer_1" xmlns="http://www.w3.org/2000/svg" xmlns:xlink="http://www.w3.org/1999/xlink" x="0px" y="0px"
	 viewBox="0 0 50.5 50.5" style="enable-background:new 0 0 50.5 50.5;" xml:space="preserve">
<path d="M40.5,9.9c-4-4.1-9.5-6.4-15.3-6.4C13.4,3.5,3.7,13.1,3.7,25c0,3.8,1,7.5,2.9,10.8L3.5,47L15,44c3.2,1.7,6.6,2.6,10.3,2.6
	l0,0C37.1,46.6,47,37,47,25.1C47.1,19.3,44.6,13.9,40.5,9.9z M25.2,43c-3.2,0-6.4-0.8-9.1-2.5l-0.7-0.4l-6.7,1.8l1.8-6.6l-0.5-0.7
	c-1.8-2.8-2.7-6.2-2.7-9.5c0-9.8,8-17.9,17.9-17.9c4.8,0,9.3,1.9,12.6,5.2c3.4,3.4,5.4,7.9,5.4,12.6C43.4,34.9,35.2,43,25.2,43z
	 M35.1,29.6c-0.6-0.3-3.2-1.6-3.7-1.8c-0.5-0.2-0.8-0.3-1.2,0.3c-0.4,0.6-1.4,1.8-1.7,2.2c-0.3,0.4-0.7,0.4-1.1,0.1
	c-3.2-1.6-5.2-2.8-7.3-6.4c-0.6-0.9,0.6-0.8,1.6-2.9c0.2-0.4,0.1-0.7-0.1-0.9c-0.1-0.3-1.2-2.9-1.7-4c-0.5-1-0.8-0.9-1.2-0.9
	c-0.3,0-0.7,0-1,0s-0.9,0.1-1.4,0.7c-0.5,0.6-1.9,1.9-1.9,4.5s2,5.2,2.2,5.6c0.3,0.4,3.8,5.8,9.2,8.1c3.4,1.5,4.8,1.6,6.5,1.3
	c1-0.2,3.2-1.3,3.7-2.5c0.5-1.2,0.5-2.3,0.3-2.5C36,30,35.6,29.8,35.1,29.6z"/>
</svg>
