<?xml version="1.0" encoding="utf-8"?>
<!-- Generator: Adobe Illustrator 24.2.1, SVG Export Plug-In . SVG Version: 6.00 Build 0)  -->
<svg version="1.1" id="Layer_1" xmlns="http://www.w3.org/2000/svg" xmlns:xlink="http://www.w3.org/1999/xlink" x="0px" y="0px"
	 viewBox="0 0 50.5 50.5" style="enable-background:new 0 0 50.5 50.5;" xml:space="preserve">
<path d="M24.8,31.8c-3.2,0-5.8,2.6-5.8,5.8c0,3.2,2.6,5.8,5.8,5.8s5.8-2.6,5.8-5.8C30.6,34.4,28,31.8,24.8,31.8z M24.8,41.8
	c-2.3,0-4.2-1.9-4.2-4.2c0-2.3,1.9-4.2,4.2-4.2s4.2,1.9,4.2,4.2C29,39.9,27.1,41.8,24.8,41.8z M45.2,15.3
	c-5.5-5.5-12.7-8.5-20.4-8.5s-15,3-20.4,8.5c-1.8,1.8-1.8,4.8,0,6.6c0.9,0.9,2.1,1.4,3.3,1.4s2.4-0.5,3.3-1.4
	c3.7-3.7,8.6-5.7,13.8-5.7s10.1,2,13.8,5.7c0.9,0.9,2.1,1.4,3.3,1.4c1.2,0,2.4-0.5,3.3-1.4C47,20.1,47,17.1,45.2,15.3z M44.1,20.8
	c-0.6,0.6-1.3,0.9-2.2,0.9c-0.9,0-1.6-0.3-2.2-0.9c-4-4-9.3-6.2-15-6.2s-11,2.2-15,6.2c-0.6,0.6-1.3,0.9-2.2,0.9s-1.6-0.3-2.2-0.9
	c-0.6-0.6-0.9-1.3-0.9-2.2c0-0.8,0.3-1.6,0.9-2.2c5.3-5.2,12.2-8,19.5-8s14.1,2.8,19.3,8c0.6,0.6,0.9,1.3,0.9,2.2
	C45,19.4,44.7,20.2,44.1,20.8z M24.8,18.9c-4.7,0-9.2,1.8-12.5,5.2c-1.8,1.8-1.8,4.8,0,6.6c0.9,0.9,2.1,1.4,3.3,1.4
	c1.2,0,2.4-0.5,3.3-1.4c1.6-1.6,3.7-2.5,6-2.5c2.3,0,4.4,0.9,6,2.5c0.9,0.9,2.1,1.4,3.3,1.4s2.4-0.5,3.3-1.4c1.8-1.8,1.8-4.8,0-6.6
	C34,20.7,29.5,18.9,24.8,18.9z M36.2,29.6c-0.6,0.6-1.3,0.9-2.2,0.9c-0.8,0-1.6-0.3-2.2-0.9c-1.9-1.9-4.4-2.9-7.1-2.9
	s-5.2,1-7.1,2.9c-0.6,0.6-1.3,0.9-2.2,0.9c-0.8,0-1.6-0.3-2.2-0.9c-0.6-0.6-0.9-1.3-0.9-2.2c0-0.8,0.3-1.6,0.9-2.2
	c3.2-3,7.3-4.7,11.6-4.7s8.4,1.7,11.4,4.7c0.6,0.6,0.9,1.3,0.9,2.2C37.1,28.3,36.8,29,36.2,29.6z"/>
</svg>
