<?xml version="1.0" encoding="utf-8"?>
<!-- Generator: Adobe Illustrator 24.2.1, SVG Export Plug-In . SVG Version: 6.00 Build 0)  -->
<svg version="1.1" id="Layer_1" xmlns="http://www.w3.org/2000/svg" xmlns:xlink="http://www.w3.org/1999/xlink" x="0px" y="0px"
	 viewBox="0 0 50.5 50.5" style="enable-background:new 0 0 50.5 50.5;" xml:space="preserve">
<path d="M45.8,14.9c-0.5-1.9-2-3.3-3.8-3.8c-3.4-0.9-16.8-0.9-16.8-0.9s-13.5,0-16.8,0.9c-1.9,0.5-3.3,2-3.8,3.8
	c-0.9,3.4-0.9,10.4-0.9,10.4s0,7.1,0.9,10.4c0.5,1.9,2,3.3,3.8,3.8c3.4,0.9,16.8,0.9,16.8,0.9s13.5,0,16.8-0.9
	c1.9-0.5,3.3-1.9,3.8-3.8c0.9-3.4,0.9-10.4,0.9-10.4S46.7,18.3,45.8,14.9z M20.7,31.8V19L32,25.3L20.7,31.8L20.7,31.8z"/>
</svg>
