<svg id="Layer_1" data-name="Layer 1" xmlns="http://www.w3.org/2000/svg" viewBox="0 0 50.46 50.46"><defs><style>.cls-1{fill:#12b5e1;}</style></defs><title>zapallo</title><path class="cls-1" d="M40.58,17.7a6.75,6.75,0,0,0-4.92-2.27,6.87,6.87,0,0,0-3.18.82,2.85,2.85,0,0,0-.65.47,5,5,0,0,0-1.92-.4,5.48,5.48,0,0,0-2.14.45c.72-5.81,4.25-9,7-9.66a3.9,3.9,0,0,1,4.84,2.33,2.33,2.33,0,0,1-.29,1.86,2.77,2.77,0,0,1-1.59,1.21,1.84,1.84,0,0,1-2.25-1.26,1.3,1.3,0,0,1,.9-1.6.87.87,0,0,1,1.07.6A.83.83,0,0,0,39,9.8,2.52,2.52,0,0,0,35.9,8.06a3,3,0,0,0-2,3.64,3.48,3.48,0,0,0,4.29,2.4,4.45,4.45,0,0,0,2.55-1.93A4,4,0,0,0,41.17,9c-.75-2.69-3.82-4.25-6.84-3.48C31.57,6.21,28.08,9,26.65,14l-1.5-5.39A1,1,0,0,0,24.53,8a1,1,0,0,0-.9.13l-3.75,2.68A1,1,0,0,0,19.57,12l2.17,4.45a5.3,5.3,0,0,0-1.19-.14h0a5,5,0,0,0-1.92.4,2.85,2.85,0,0,0-.65-.47,6.87,6.87,0,0,0-3.18-.82h0A6.75,6.75,0,0,0,9.88,17.7C7.09,20.63,5.68,26,6,32.53c.42,8.4,4.39,12.38,10.62,12.38a13,13,0,0,0,2.69-.3,6.39,6.39,0,0,0,2,.32,7.52,7.52,0,0,0,1.91-.27,3.4,3.4,0,0,0,1.7.49,3.45,3.45,0,0,0,1.89-.59,8,8,0,0,0,2.32.37,6.46,6.46,0,0,0,2-.32,12.79,12.79,0,0,0,2.68.3c6.23,0,10.2-4,10.62-12.38C44.78,26,43.37,20.63,40.58,17.7ZM23.63,10.52l1.71,6.15a2.85,2.85,0,0,0-.41,0,3.07,3.07,0,0,0-.85.13L21.7,11.9Zm-7,32.53c-6.2,0-8.48-4.9-8.76-10.61C7.4,23.05,10.73,17.3,14.8,17.3a4.87,4.87,0,0,1,2.13.52A11,11,0,0,0,14.21,22a27.22,27.22,0,0,0-1.77,9.7,17.31,17.31,0,0,0,1.87,8.09A10.64,10.64,0,0,0,16.67,43ZM14.3,31.67c0-6,2.28-13.49,6.25-13.49a3.71,3.71,0,0,1,1.19.22c-2,2.46-3.33,7.24-3.33,13,0,5.52,1.21,9.11,3.09,11.64l-.18,0C16.47,43.07,14.3,37.29,14.3,31.67Zm6-.26c0-7.62,2.46-12.92,4.66-12.92s4.67,5.3,4.67,12.92-2.46,11.87-4.67,11.87S20.27,39,20.27,31.41Zm8.87,11.66A4.74,4.74,0,0,1,28.4,43c1.86-2.54,3.06-6.11,3.06-11.59s-1.25-10.32-3.19-12.82a3.71,3.71,0,0,1,1.64-.41c4,0,6.25,7.49,6.25,13.49C36.16,37.29,34,43.07,29.14,43.07ZM42.59,32.44c-.28,5.71-2.56,10.61-8.76,10.61h0a10.64,10.64,0,0,0,2.36-3.28A17.31,17.31,0,0,0,38,31.67,27.22,27.22,0,0,0,36.25,22a11,11,0,0,0-2.72-4.15,4.9,4.9,0,0,1,2.13-.52C39.73,17.3,43.06,23.05,42.59,32.44Z"/></svg>