<svg id="Layer_1" data-name="Layer 1" xmlns="http://www.w3.org/2000/svg" viewBox="0 0 50.46 50.46"><defs><style>.cls-1{fill:#35a3d0;}</style></defs><title>abrigo</title><path class="cls-1" d="M45.57,41.19A4.89,4.89,0,0,0,46,38.52a5.84,5.84,0,0,0-.91-2.37,5.56,5.56,0,0,0,.25-3.09,6.29,6.29,0,0,0-.78-2,6.45,6.45,0,0,0,.3-2.73,5.16,5.16,0,0,0-1.08-2.46,6,6,0,0,0,.13-2.56A6.94,6.94,0,0,0,42.4,20a10.52,10.52,0,0,0-1.77-4.44,13.71,13.71,0,0,0-5.2-4.64l0,0,0,0L32.63,9.78a5.15,5.15,0,0,0-1.11-3.64,1.53,1.53,0,0,0-.23-.27l-.06-.05,0,0c-1.1-.92-3.3-1.47-5.88-1.48h-.1c-2.59,0-4.8.56-5.88,1.47l0,0-.06,0a1.56,1.56,0,0,0-.24.27,5.15,5.15,0,0,0-1.12,3.62l-2.74,1.1-.06,0h0a13.71,13.71,0,0,0-5.2,4.64A10.52,10.52,0,0,0,8.06,20a6.94,6.94,0,0,0-1.52,3.3,6,6,0,0,0,.13,2.56A5.16,5.16,0,0,0,5.59,28.3,6.45,6.45,0,0,0,5.89,31a6.29,6.29,0,0,0-.78,2,5.56,5.56,0,0,0,.25,3.09,5.84,5.84,0,0,0-.91,2.37,4.89,4.89,0,0,0,.45,2.68,2.7,2.7,0,0,0-.15.59A3,3,0,0,0,5.54,44a1.57,1.57,0,0,0,1.08.5l5,.22h0a1.56,1.56,0,0,0,.32,0,2.44,2.44,0,0,0,1.87-2.43,2.31,2.31,0,0,0-.06-.53l.08-.12c.06.33.14.63.22.88a2.85,2.85,0,0,0-.23,1.1A3,3,0,0,0,15,45.77a1.58,1.58,0,0,0,1,.38H34.52a1.58,1.58,0,0,0,1-.38,3,3,0,0,0,1.06-2.14,2.51,2.51,0,0,0-.27-1.12c.07-.25.15-.54.21-.87l.08.12a2.31,2.31,0,0,0-.06.53,2.44,2.44,0,0,0,1.87,2.43,1.51,1.51,0,0,0,.35,0l5-.22a1.58,1.58,0,0,0,1.08-.5,3,3,0,0,0,.79-2.26A2.71,2.71,0,0,0,45.57,41.19Zm-2.14-.35-4.76.26a2.08,2.08,0,0,1-.87-1.49,3.93,3.93,0,0,1,.42-2.15L43,36.78a4.21,4.21,0,0,1,.94,2A3.23,3.23,0,0,1,43.43,40.84Zm.06,1.72-4.74.21c-.09,0-.26-.16-.27-.5a.47.47,0,0,1,.21-.36l4.8-.26a.74.74,0,0,1,.18.39A.86.86,0,0,1,43.49,42.57Zm-26.63-.29h-.74a6.25,6.25,0,0,1,0-4.33H24.6v4.33Zm7.74.82v1.08H16.16a1,1,0,0,1-.28-.54,1.11,1.11,0,0,1,.18-.53Zm-8.48-6a6.25,6.25,0,0,1,0-4.33H24.6v4.33Zm0-5.14a6.25,6.25,0,0,1,0-4.33H24.6V32Zm0-5.14a6.93,6.93,0,0,1-.39-2.16,15.67,15.67,0,0,1,.16-2.16h8.7v4.33Zm-.21-5.14a17.08,17.08,0,0,1-.22-4c.09-1.12,1-4.65,1.21-5.6l2.24-.9a5.35,5.35,0,0,0,.32.73A5.11,5.11,0,0,0,22,14.19a7.4,7.4,0,0,0,2.59.71V21.7ZM22.57,13a3.92,3.92,0,0,1-1.93-1.61l0-.07a4.15,4.15,0,0,1-.45-2.52,5.27,5.27,0,0,0,4.45,2.64V13.6A6.15,6.15,0,0,1,22.57,13ZM21,7.12a9.92,9.92,0,0,1,4.28-.78,9.91,9.91,0,0,1,4.28.78c0,.52-.47,3-4.28,3.09C21.48,10.08,21,7.63,21,7.12ZM31,11.95a5.34,5.34,0,0,0,.31-.72l2.08.83c.22.86,1.12,4.5,1.22,5.65a17.13,17.13,0,0,1-.22,4H25.9V14.9a7.74,7.74,0,0,0,2.58-.71A5,5,0,0,0,31,11.95Zm3.3,25.18H25.9V32.8h8.44a6.25,6.25,0,0,1,0,4.33Zm.39,3a7,7,0,0,1-.39,2.16H25.9V37.95h8.44A6.94,6.94,0,0,1,34.72,40.11ZM34.33,32H25.9V27.66h8.44a6.25,6.25,0,0,1,0,4.33Zm0-5.14H25.9V22.51h8.6a11.81,11.81,0,0,1,.22,2.16A7,7,0,0,1,34.33,26.84Zm-4.44-15.5,0,.07A3.83,3.83,0,0,1,27.93,13a6.46,6.46,0,0,1-2,.58V11.47a5.27,5.27,0,0,0,4.44-2.64A4.14,4.14,0,0,1,29.89,11.34Zm-4,31.75h8.46a.94.94,0,0,1,.27.53,1,1,0,0,1-.28.54H25.9ZM36.45,13.7a20.84,20.84,0,0,1,2.47,3,8.58,8.58,0,0,1,1.46,3.7l-4.62,1.18a17.85,17.85,0,0,0,.18-4,48.48,48.48,0,0,0-1-4.92A10,10,0,0,1,36.45,13.7Zm6.38,14.86A5.11,5.11,0,0,1,42.41,31l-2.31.35-2.83.43a5.92,5.92,0,0,1-.82-2.15,4.27,4.27,0,0,1,.32-2.11l2.57-.43,2.46-.41A3.49,3.49,0,0,1,42.83,28.56Zm-1.2-2.7-3,.5-2,.33c-.23-.15-.48-.61-.71-1.61a8,8,0,0,1,0-2.73l4.82-1.23a4.83,4.83,0,0,1,1.21,2.5A4.45,4.45,0,0,1,41.64,25.86ZM37,34.69a6,6,0,0,1,.32-2.13l2.87-.44,2.33-.35a3.41,3.41,0,0,1,.77,1.71,3.88,3.88,0,0,1-.4,2.5l-4.81.67A3.74,3.74,0,0,1,37,34.69ZM11.72,41.1,7,40.84a3.21,3.21,0,0,1-.55-2.06,4.21,4.21,0,0,1,.94-2l4.82.68a3.93,3.93,0,0,1,.42,2.15A2.09,2.09,0,0,1,11.72,41.1Zm.18,1.17c0,.35-.18.47-.26.5l-4.74-.21A.86.86,0,0,1,6.71,42a.74.74,0,0,1,.18-.39l4.8.26A.47.47,0,0,1,11.9,42.27Zm2.63-17.18c-.23,1-.48,1.46-.71,1.61l-2.09-.35-3-.49a4.42,4.42,0,0,1-.26-2.23,4.83,4.83,0,0,1,1.21-2.5l4.82,1.23A8,8,0,0,1,14.53,25.09ZM8.59,26.65l2.49.41,2.54.42a4.24,4.24,0,0,1,.32,2.11,5.92,5.92,0,0,1-.82,2.15l-2.88-.44L8,31a5.09,5.09,0,0,1-.43-2.41A3.52,3.52,0,0,1,8.59,26.65Zm3.67,10L7.44,36a3.87,3.87,0,0,1-.4-2.5,3.44,3.44,0,0,1,.77-1.71l2.39.36,2.81.43a6,6,0,0,1,.32,2.13A3.74,3.74,0,0,1,12.25,36.65Zm2.15-19a17.84,17.84,0,0,0,.18,3.94L10,20.38a8.33,8.33,0,0,1,1.45-3.7A21.85,21.85,0,0,1,13.6,14a10.48,10.48,0,0,1,1.81-1.27A47.65,47.65,0,0,0,14.41,17.6Z"/></svg>