<?xml version="1.0" encoding="utf-8"?>
<!-- Generator: Adobe Illustrator 22.1.0, SVG Export Plug-In . SVG Version: 6.00 Build 0)  -->
<svg version="1.1" id="Layer_1" xmlns="http://www.w3.org/2000/svg" xmlns:xlink="http://www.w3.org/1999/xlink" x="0px" y="0px"
	 viewBox="0 0 50.5 50.5" style="enable-background:new 0 0 50.5 50.5;" xml:space="preserve">
<style type="text/css">
	.st0{fill:#12B5E1;}
</style>
<g>
	<path class="st0" d="M34.4,23.3c-5.8,0-10.6,4.7-10.6,10.6c0,0.8,0.1,1.6,0.3,2.5c1.1,4.8,5.4,8.1,10.3,8.1c5.4,0,9.9-4,10.5-9.4
		c0-0.4,0.1-0.8,0.1-1.2C45,28.1,40.2,23.3,34.4,23.3z M43.2,34.9c-0.5,4.5-4.3,7.9-8.8,7.9c-4.1,0-7.7-2.8-8.6-6.8
		c-0.2-0.7-0.3-1.4-0.3-2.1c0-4.9,4-8.9,8.9-8.9c4.9,0,8.9,4,8.9,8.9C43.3,34.2,43.3,34.6,43.2,34.9z"/>
	<path class="st0" d="M13.8,27.4c-4.6,0-8.3,3.7-8.3,8.3c0,0.9,0.1,1.8,0.4,2.6C7,41.7,10.2,44,13.8,44c3.6,0,6.8-2.3,7.9-5.7
		c0.3-0.9,0.4-1.7,0.4-2.6C22.1,31.1,18.4,27.4,13.8,27.4z M20.1,37.8c-0.9,2.7-3.4,4.5-6.3,4.5s-5.4-1.8-6.3-4.5
		c-0.2-0.7-0.3-1.4-0.3-2.1c0-3.7,3-6.6,6.6-6.6c3.7,0,6.6,3,6.6,6.6C20.4,36.4,20.3,37.1,20.1,37.8z"/>
	<path class="st0" d="M6.6,28.8C6.6,28.8,6.6,28.8,6.6,28.8c0.5,0,0.9-0.4,0.9-0.9c-0.1-2.7,0.5-7.2,5-7.6c0.5,0,0.8-0.4,0.8-0.9
		v-4.2c0.3-0.1,0.8-0.1,1.1,0v4.2c0,0.5,0.4,0.9,0.9,0.9h3.4c0.4,0,0.8-0.3,0.9-0.7c0-0.1,2.8-9.8,8.8-9.8h10.1
		c1.7,0,2.1,0.4,2.4,2.1l1.7,13.5c0.1,0.5,0.5,0.8,1,0.8c0.5-0.1,0.8-0.5,0.8-1l-1.7-13.5C42.3,9,41.1,8,38.5,8H28.4
		C22,8,18.9,16,18.1,18.5h-1.9v-3.6c0-0.9-0.9-1.5-2.4-1.5c-1.5,0-2.4,0.6-2.4,1.5v3.8c-3.7,0.8-5.9,4.2-5.8,9.3
		C5.7,28.4,6.1,28.8,6.6,28.8z"/>
	<path class="st0" d="M24.7,19.4l12.3,0c0.7,0,1.2-0.6,1.1-1.2l-0.3-3.7c-0.2-1.4-0.6-1.9-2.1-1.9h-6.5c-3,0-4.8,3.2-5.6,5.2
		C23.3,18.6,23.9,19.4,24.7,19.4z"/>
	<path class="st0" d="M34.4,28.2c-3.1,0-5.7,2.5-5.7,5.7c0,0.8,0.2,1.6,0.5,2.3c0.9,2,2.9,3.4,5.2,3.4c2.4,0,4.5-1.5,5.3-3.6
		c0.3-0.6,0.4-1.4,0.4-2.1C40.1,30.8,37.6,28.2,34.4,28.2z M39,35.7c-0.7,1.9-2.5,3.1-4.5,3.1c-1.9,0-3.7-1.2-4.5-2.9
		c-0.3-0.6-0.4-1.3-0.4-1.9c0-2.7,2.2-4.9,4.9-4.9c2.7,0,4.9,2.2,4.9,4.9C39.3,34.5,39.2,35.1,39,35.7z"/>
	<path class="st0" d="M13.8,31.3c-2.4,0-4.4,2-4.4,4.4c0,0.9,0.3,1.7,0.7,2.4c0.8,1.2,2.1,2,3.7,2c1.5,0,2.9-0.8,3.7-2
		c0.4-0.7,0.7-1.5,0.7-2.4C18.2,33.3,16.2,31.3,13.8,31.3z M16.8,37.6c-0.7,1-1.8,1.6-3,1.6c-1.2,0-2.3-0.6-3-1.6
		c-0.4-0.6-0.6-1.2-0.6-1.9c0-2,1.6-3.6,3.6-3.6c2,0,3.6,1.6,3.6,3.6C17.4,36.4,17.2,37,16.8,37.6z"/>
</g>
</svg>
