<svg id="Layer_1" data-name="Layer 1" xmlns="http://www.w3.org/2000/svg" viewBox="0 0 50.46 50.46"><defs><style>.cls-1{fill:#65b4e1;}</style></defs><title>aire</title><path class="cls-1" d="M37.63,43.13a6.44,6.44,0,0,1-2.76-.62,5.42,5.42,0,0,1-2.58-7.21,4.57,4.57,0,0,1,6.08-2.18,3.89,3.89,0,0,1,1.85,5.17,1.16,1.16,0,0,1-2.1-1,1.56,1.56,0,0,0-.74-2.07,2.24,2.24,0,0,0-3,1.07,3.09,3.09,0,0,0,1.47,4.11,4.16,4.16,0,0,0,5.53-2,5.47,5.47,0,0,0-2.61-7.29c-1.72-.81-5.9-.82-7.36-.75h-.05l-13.17,0a1.26,1.26,0,0,1,0-2.51h0L31.35,28c.71,0,5.91-.16,8.42,1A7.84,7.84,0,0,1,43.5,39.41,6.5,6.5,0,0,1,37.63,43.13Z"/><path class="cls-1" d="M19.74,22.77l-2.12,0-7.31.06h0a1.2,1.2,0,0,1-1.16-1.2,1.18,1.18,0,0,1,1.16-1.19l7.32,0s5.62.08,7.41-.76a5.48,5.48,0,0,0,2.61-7.3,4.15,4.15,0,0,0-5.53-2,3.09,3.09,0,0,0-1.47,4.11,2.24,2.24,0,0,0,3,1.07,1.56,1.56,0,0,0,.74-2.07,1.16,1.16,0,0,1,2.1-1,3.89,3.89,0,0,1-1.85,5.17,4.57,4.57,0,0,1-6.08-2.18,5.42,5.42,0,0,1,2.58-7.21,6.48,6.48,0,0,1,8.62,3.09A7.8,7.8,0,0,1,26,21.78,15.55,15.55,0,0,1,19.74,22.77Z"/><path class="cls-1" d="M33.7,26.51a1.17,1.17,0,1,1,0-2.33A1.19,1.19,0,0,1,35,25.33a1.17,1.17,0,0,1-1.21,1.19Zm.67-.21a1.16,1.16,0,0,1-.61.21A1.13,1.13,0,0,0,34.37,26.3Zm-.61.55h0Z"/><path class="cls-1" d="M7.38,26.85a1.32,1.32,0,0,1-1.16-1.33c0-.64.52-1.4,1.16-1.4l23.56-.27h0a1.31,1.31,0,0,1,1.16,1.32c0,.64-.52,1.41-1.16,1.41l-23.56.27Z"/></svg>