<svg id="Layer_1" data-name="Layer 1" xmlns="http://www.w3.org/2000/svg" viewBox="0 0 50.46 50.46"><defs><style>.cls-1{fill:#65b4e1;}</style></defs><title>alimentacion saludable</title><path class="cls-1" d="M30.28,22.49c1.8-2,3.84-5.32,3.73-8a5.9,5.9,0,0,0-2.28-4.61.74.74,0,0,0-.91,1.17,4.43,4.43,0,0,1,1.71,3.49c.14,3.44-4.52,9.26-7.19,9.76l-.12,0h0l-.11,0c-2.65-.5-7.31-6.31-7.17-9.75a4.49,4.49,0,0,1,1.38-3.21.74.74,0,0,0,0-1,.74.74,0,0,0-1,0,6,6,0,0,0-1.84,4.23c-.11,2.67,1.95,6,3.75,8L20,29.63v0c-.37,4.54-.32,7.61,3.62,8.77l-1.13,7.65a.74.74,0,0,0,.62.84A.75.75,0,0,0,24,46.3l1.21-8.18v0c.06-.52-.1-.7-.38-.83,0,0-.54-.19-.75-.26-2.12-.63-2.77-1.82-2.69-5a2.15,2.15,0,0,0,2.18-.22,2.19,2.19,0,0,0,3.42,0,2.15,2.15,0,0,0,2.19.23c.08,3.22-.59,4.34-2.71,5l-.75.26c-.19.06-.45.25-.38.83l1.23,8.2a.74.74,0,0,0,.73.63h.11a.74.74,0,0,0,.62-.84l-1.15-7.65h0c3.94-1.16,4-4.23,3.62-8.77ZM29,29.88a.8.8,0,0,1-.77.82.79.79,0,0,1-.76-.79V25a11.34,11.34,0,0,0,1.36-1Zm-3,.06v.34a.76.76,0,1,1-1.52,0v-.15a1.77,1.77,0,0,0,0-.25V25.7l.28.08.22,0,.16,0h.25a1.44,1.44,0,0,0,.28-.05l.3-.08v4.19A.34.34,0,0,0,26,29.94ZM23,30a.78.78,0,0,1-.74.7.8.8,0,0,1-.77-.8L21.65,24A11.29,11.29,0,0,0,23,25Z"/><path class="cls-1" d="M19.33,4.88h0c.17,0,4.06.27,4.45,3A4.38,4.38,0,0,0,19.65,12a.68.68,0,0,0,.41.71c.09,0,2.25.92,3.83,0a2.69,2.69,0,0,0,.8-.67,3.47,3.47,0,0,0,1.72,1.07c1,.29,1,.92,1,.94a.68.68,0,0,0,1.2.43,4.33,4.33,0,0,0,1-3.4,2.53,2.53,0,0,0-.47-.92,3,3,0,0,0,2.63-2.25.67.67,0,0,0-.2-.62s-2.75-2.59-5.93.48A.68.68,0,0,0,26.08,9a.66.66,0,0,0,.48-.19C27.15,8.19,28.67,7,30.28,8c-.66,1.12-3.09,1-3.11,1a.67.67,0,0,0-.71.53.68.68,0,0,0,.43.78c.79.28,1.26.67,1.39,1.16a1.92,1.92,0,0,1-.13,1.18,3,3,0,0,0-1.36-.8c-1.41-.42-1.41-1.4-1.41-1.5a.68.68,0,0,0-1.34-.15,1.76,1.76,0,0,1-.81,1.37,3.06,3.06,0,0,1-2.15.06,3.13,3.13,0,0,1,3.32-2.4.69.69,0,0,0,.51-.16.68.68,0,0,0,.23-.48c.17-3.72-3.68-4.93-5.75-5a.68.68,0,0,0-.08,1.35Z"/><path class="cls-1" d="M25.23,14.45a.88.88,0,0,0-.79.95,1,1,0,0,0,.79.95,1.09,1.09,0,0,0,.79-.95A.88.88,0,0,0,25.23,14.45Z"/><path class="cls-1" d="M29.49,15.39a1,1,0,0,0,.79.95,1.09,1.09,0,0,0,.79-.95.81.81,0,1,0-1.59,0Z"/><path class="cls-1" d="M19.38,15.47a1,1,0,0,0,.79.95,1.09,1.09,0,0,0,.79-.95.81.81,0,1,0-1.59,0Z"/><path class="cls-1" d="M21.91,18.71a1,1,0,0,0,.79.95,1.09,1.09,0,0,0,.79-.95.81.81,0,1,0-1.59,0Z"/><path class="cls-1" d="M27.76,17.77a.88.88,0,0,0-.79.95,1,1,0,0,0,.79.95,1.09,1.09,0,0,0,.79-.95A.88.88,0,0,0,27.76,17.77Z"/><path class="cls-1" d="M24.44,22a1,1,0,0,0,.79.95A1.09,1.09,0,0,0,26,22a.81.81,0,1,0-1.59,0Z"/></svg>