<svg id="Layer_1" data-name="Layer 1" xmlns="http://www.w3.org/2000/svg" viewBox="0 0 50.46 50.46"><defs><style>.cls-1{fill:#12b5e1;}</style></defs><title>alimentos-irradiados-lineal</title><path class="cls-1" d="M27.16,9.07a16.26,16.26,0,0,1,7.62,3,.63.63,0,0,0,.35.11.61.61,0,0,0,.42-.17l4.81-4.81a.65.65,0,0,0,.18-.46.6.6,0,0,0-.23-.43,24,24,0,0,0-13-5.21.6.6,0,0,0-.46.15.64.64,0,0,0-.19.45V8.47A.6.6,0,0,0,27.16,9.07Zm.67-6.7A22.85,22.85,0,0,1,39,6.84l-4,4A17.39,17.39,0,0,0,27.83,8Z"/><path class="cls-1" d="M37.61,14.7a16.16,16.16,0,0,1,3.64,8,.61.61,0,0,0,.59.51h6.81a.61.61,0,0,0,.45-.2.62.62,0,0,0,.15-.47,24.13,24.13,0,0,0-6-13.36.64.64,0,0,0-.43-.2.55.55,0,0,0-.44.18l-4.78,4.77A.6.6,0,0,0,37.61,14.7Zm5.2-4.28A22.79,22.79,0,0,1,48,22H42.35a17.38,17.38,0,0,0-3.47-7.62Z"/><path class="cls-1" d="M14.59,12.25a.58.58,0,0,0,.42.18.63.63,0,0,0,.37-.12A16.09,16.09,0,0,1,23.3,9.07a.6.6,0,0,0,.53-.6V1.71a.64.64,0,0,0-.19-.45.59.59,0,0,0-.46-.15A24,24,0,0,0,9.86,6.54.61.61,0,0,0,9.65,7a.6.6,0,0,0,.17.46Zm8-9.88V8A17.37,17.37,0,0,0,15.07,11l-3.93-4A22.69,22.69,0,0,1,22.63,2.37Z"/><path class="cls-1" d="M1.81,23.17H8.62a.61.61,0,0,0,.59-.51A16.17,16.17,0,0,1,12.61,15a.61.61,0,0,0,0-.8L7.82,9.39a.59.59,0,0,0-.45-.18.56.56,0,0,0-.43.21A24,24,0,0,0,1.21,22.5a.62.62,0,0,0,.15.47A.61.61,0,0,0,1.81,23.17ZM7.43,10.7l3.91,4A17.48,17.48,0,0,0,8.11,22H2.49A22.77,22.77,0,0,1,7.43,10.7Z"/><path class="cls-1" d="M49.19,26.16a.6.6,0,0,0-.44-.19H42a.61.61,0,0,0-.6.55,16.22,16.22,0,0,1-32.34,0,.61.61,0,0,0-.6-.55H1.71a.6.6,0,0,0-.6.63,24.16,24.16,0,0,0,48.24,0A.6.6,0,0,0,49.19,26.16Zm-24,22a23,23,0,0,1-22.88-21H7.92a17.42,17.42,0,0,0,34.62,0h5.57A23,23,0,0,1,25.23,48.15Z"/><path class="cls-1" d="M28.11,20.28a3.14,3.14,0,0,0-.34-1,.55.55,0,0,0-1,.54,1.9,1.9,0,0,1,.21.62,2.85,2.85,0,0,1-1.34,2.76L20.6,26.5a5.05,5.05,0,0,1-1.79-1.32.4.4,0,0,0-.58,0,.41.41,0,0,0,0,.58,3.46,3.46,0,0,0,.33.35,5.87,5.87,0,0,0,1.26,1L15.28,30a1,1,0,0,1-1.45-1.43L19,20.3a9.76,9.76,0,0,0,1.61,2.08h0a.42.42,0,0,0,.58,0,.4.4,0,0,0,0-.58,7.89,7.89,0,0,1-1.67-2.32L20.46,18a2.83,2.83,0,0,1,2.83-1.35A1.83,1.83,0,0,1,24,17a.54.54,0,0,0,.76-.15.55.55,0,0,0-.14-.76,3,3,0,0,0-1.1-.45,4,4,0,0,0-4,1.85L12.9,27.94a2.11,2.11,0,0,0,3,2.94l10.4-6.75A3.94,3.94,0,0,0,28.11,20.28Z"/><path class="cls-1" d="M25.91,17.62v0a.5.5,0,0,0,.1.19.36.36,0,0,0,.12.08c4.13,1.95,5.74-1.1,5.76-1.13a.41.41,0,0,0-.14-.52,4.18,4.18,0,0,0-2-.71A5.19,5.19,0,0,0,30,11.46a.39.39,0,0,0-.48-.24,5.13,5.13,0,0,0-3.47,2.5A5.18,5.18,0,0,0,25.91,17.62ZM31,16.73c-.45.56-1.64,1.58-4,.68A3.36,3.36,0,0,1,31,16.73ZM29.35,12.1a4.05,4.05,0,0,1-.68,3.53,5,5,0,0,0-2.17,1.15,4.17,4.17,0,0,1,.27-2.71A4.13,4.13,0,0,1,29.35,12.1Z"/><path class="cls-1" d="M36.21,27.73,31,22.36a.6.6,0,0,0-.85,0,.61.61,0,0,0,0,.85l.46.46L20.06,33.94a3.1,3.1,0,1,0,4.33,4.44L34.9,28.1l.45.46a.59.59,0,0,0,.85,0A.58.58,0,0,0,36.21,27.73Zm-3.09.43a6.14,6.14,0,0,1-.68-.62.4.4,0,0,0-.58,0,.41.41,0,0,0,0,.58c.1.11.21.23.34.35a2.72,2.72,0,0,0,.35.32l-9,8.77A1.9,1.9,0,1,1,20.9,34.8L31.41,24.52l2.66,2.72Z"/><path class="cls-1" d="M34.66,24.68a1.92,1.92,0,1,0,0-2.72A1.92,1.92,0,0,0,34.66,24.68Zm2.18-2.13a1.12,1.12,0,1,1-1.59,0A1.12,1.12,0,0,1,36.84,22.55Z"/><path class="cls-1" d="M36,19.75a1.14,1.14,0,0,0,1.63-1.58A1.14,1.14,0,0,0,36,19.75Zm1.2-1.16a.53.53,0,1,1-.76,0A.55.55,0,0,1,37.15,18.59Z"/><path class="cls-1" d="M17.82,24.12a.43.43,0,1,0,.43.43A.42.42,0,0,0,17.82,24.12Z"/><path class="cls-1" d="M31.19,27.3a.43.43,0,1,0,0-.85.43.43,0,0,0,0,.85Z"/><path class="cls-1" d="M21.84,22.45a.43.43,0,1,0,0,.85.43.43,0,0,0,0-.85Z"/></svg>