<svg id="Layer_1" data-name="Layer 1" xmlns="http://www.w3.org/2000/svg" viewBox="0 0 50.46 50.46"><defs><style>.cls-1{fill:#65b4e1;}</style></defs><title>ambiente cert</title><path class="cls-1" d="M34.18,6.3H13.52a4.11,4.11,0,0,0-4.1,4.1V40.06a4.11,4.11,0,0,0,4.1,4.1H36.94a4.1,4.1,0,0,0,4.1-4.1L41,13.55v0Zm3.91,6.89c-1.39,0-2.64,0-3.15,0l0-3.45Zm1.29,26.87a2.44,2.44,0,0,1-2.43,2.43H13.52a2.44,2.44,0,0,1-2.43-2.43V10.4A2.44,2.44,0,0,1,13.52,8H33l0,6.17a1,1,0,0,0,.94.94h0c.38,0,3,0,5.35,0Z"/><path class="cls-1" d="M20.64,25h0c-1.73-2.15-2.71-5-1.59-6.65a2.63,2.63,0,0,1,.3-.37,3,3,0,0,1,.83-.6,2.1,2.1,0,0,0-.54.49,2.27,2.27,0,0,0-.21.31,2.73,2.73,0,0,0-.26.63A4.1,4.1,0,0,0,19,20a7.37,7.37,0,0,0,2.13,4.92l.13-.13a6.32,6.32,0,0,0,1.6-3,3.17,3.17,0,0,0-.65-2.16c-.1-.14-.2-.26-.3-.38-.3-.35-.58-.61-.71-.81a1.26,1.26,0,0,1-.24-.74c0-.62.79-.87,1.18-.88a1.41,1.41,0,0,0-.38-.14l-.29-.06c-1.36-.24-4.17-.08-4.87,2.4a4.2,4.2,0,0,0-.13.69C16.15,22.91,20,24.73,20.64,25Z"/><path class="cls-1" d="M30.19,27.59C26.9,27,24.51,26.33,24,24.75a2,2,0,0,0-.25,2.53c1.17,1.62,3.63,1.43,3.8,2.28.26,1.32-3.54,2.69-6.69.76-4.21-2.59-2.74-5.53-4.51-6h-.71s-.25,7.2,5.78,10.24c4.25,2.14,10.39-1.12,14.77,1.12A5.79,5.79,0,0,0,36,32.41,6.86,6.86,0,0,0,30.19,27.59Z"/></svg>