<svg id="Layer_1" data-name="Layer 1" xmlns="http://www.w3.org/2000/svg" viewBox="0 0 50.46 50.46"><defs><style>.cls-1{fill:#a7a9ac;}</style></defs><title>anses-negativo</title><path class="cls-1" d="M22.29,28.73a2.27,2.27,0,0,0,.65,3.35,3.68,3.68,0,0,0,4-.18,4.74,4.74,0,0,0,2-4.67S24,26.42,22.29,28.73Z"/><path class="cls-1" d="M37.91,8.92H12.55A4.51,4.51,0,0,0,8,13.43V37.37a6.46,6.46,0,0,0,6.46,6.46H36a6.46,6.46,0,0,0,6.46-6.46V13.43A4.51,4.51,0,0,0,37.91,8.92ZM33.32,35.08a.3.3,0,0,1-.3.3H31.53a2.76,2.76,0,0,1-2.41-1.7A7,7,0,0,1,24.25,36c-4.37,0-6.71-2.38-6.71-5.84,0-3.67,3.46-6,7.47-6,1.16,0,2.59,0,3.94.05a3.25,3.25,0,0,0-2.84-2.77,5.53,5.53,0,0,0-3,.22A3.36,3.36,0,0,1,19,20.48l-.65-1a.33.33,0,0,1,.1-.46c1.5-.91,7-3,11.12-.82a6.89,6.89,0,0,1,3.79,6.33V35.08Z"/></svg>