<svg id="Layer_1" data-name="Layer 1" xmlns="http://www.w3.org/2000/svg" viewBox="0 0 50.46 50.46"><defs><style>.cls-1{fill:#12b5e1;}</style></defs><title>antartida</title><path class="cls-1" d="M29.41,44.42l.53,0a10.72,10.72,0,0,0,3.73-.35,5.62,5.62,0,0,1,1.46-.24L34.4,42.6A18.84,18.84,0,0,1,29.41,44.42Z"/><path class="cls-1" d="M10.4,33.22a2.56,2.56,0,0,0-.4.37L16.29,30a9.84,9.84,0,0,1-1-3.85H7.14l0,.1a16.69,16.69,0,0,0,.17,1.86c0,.16.06.32.09.49.08.44.15.88.26,1.32a3.7,3.7,0,0,0,.82,0l.37,0c.46,0,.72.2,1,1.18l.62,2.06A.13.13,0,0,1,10.4,33.22Z"/><path class="cls-1" d="M47.41,22.19l-1.58-.92a.25.25,0,0,0-.33.06,4.62,4.62,0,0,1-.87.92.14.14,0,0,1-.14,0,.12.12,0,0,1-.07-.11,2.89,2.89,0,0,1,0-.58l.23-2a.13.13,0,0,1,.13-.12.65.65,0,0,0,.46-.19c.32-.35,0-1-.19-1.49a8.05,8.05,0,0,0-.93-1.43,3.15,3.15,0,0,1-.5-.78l-1.3.75a19.37,19.37,0,0,1,2.28,8.56h2.83l.3-1.1a.14.14,0,0,1,.08-.1.62.62,0,0,0,.48-.44C48.39,22.83,47.87,22.46,47.41,22.19Z"/><path class="cls-1" d="M41.7,15.29l1.7-1v-.26c0-1.83-.21-2.9-3.34-3.57-2.35-.5-2.7-.87-3.12-1.3a3.59,3.59,0,0,0-.65-.56l-.43-.29-.4.7A19.57,19.57,0,0,1,41.7,15.29Z"/><path class="cls-1" d="M43.4,26.11H35.21a9.84,9.84,0,0,1-1,3.85l7.1,4.1A18.36,18.36,0,0,0,43.4,26.11Z"/><path class="cls-1" d="M33.13,21.65,27.5,24.89H34A8.61,8.61,0,0,0,33.13,21.65Z"/><path class="cls-1" d="M34,26.11H27.5l5.63,3.24A8.61,8.61,0,0,0,34,26.11Z"/><path class="cls-1" d="M41.28,16.94,34.18,21a9.84,9.84,0,0,1,1,3.85H43.4A18.36,18.36,0,0,0,41.28,16.94Z"/><path class="cls-1" d="M40.65,35.1,33.57,31a9.87,9.87,0,0,1-2.82,2.83l4.09,7.08A18.35,18.35,0,0,0,40.65,35.1Z"/><path class="cls-1" d="M47.12,26.11H44.61a19.37,19.37,0,0,1-2.28,8.56l2,1.17.35-.45c.41-.53.79-1,1.13-1.4l0-.06C47.3,32.2,48,31.33,48,29.84a2.72,2.72,0,0,0-.56-1.58A2.15,2.15,0,0,1,47.12,26.11Z"/><path class="cls-1" d="M30.14,32.78a8.8,8.8,0,0,0,2.38-2.37L26.9,27.16Z"/><path class="cls-1" d="M25.84,27.77v6.49a8.72,8.72,0,0,0,3.25-.87Z"/><path class="cls-1" d="M20.33,32.78l3.25-5.62L18,30.41A8.8,8.8,0,0,0,20.33,32.78Z"/><path class="cls-1" d="M35.45,42l1.11,1.92L38,44c.07,0,2-.08,3.57-2.68a14.05,14.05,0,0,0,1.18-2.44,11.44,11.44,0,0,1,1-2l-2-1.13A19.57,19.57,0,0,1,35.45,42Z"/><path class="cls-1" d="M29.7,34.44a9.72,9.72,0,0,1-3.86,1v2.77l.34.09,0,0a.68.68,0,0,0,.56.08c.34-.1.61-.45.81-1.06l0,0a.12.12,0,0,1,.08-.09l.06,0h.05a1.33,1.33,0,0,1,.51.64A3.3,3.3,0,0,1,27.94,41c-.81,1.24-1.32,2-1.15,2.56a17.81,17.81,0,0,0,7-2Z"/><path class="cls-1" d="M17.34,29.35,23,26.11H16.48A8.61,8.61,0,0,0,17.34,29.35Z"/><path class="cls-1" d="M16.9,31l-7,4.05a2.29,2.29,0,0,0,.76.61,11.66,11.66,0,0,0,3.22,1,6.36,6.36,0,0,1,2.19.68l1.08.76.1,0,2.48-4.3A10.13,10.13,0,0,1,16.9,31Z"/><path class="cls-1" d="M24.63,34.26V27.77l-3.25,5.62A8.72,8.72,0,0,0,24.63,34.26Z"/><path class="cls-1" d="M19,37.55a1,1,0,0,1,.14.23c.12.26.28.53.54.58s.47-.16.69-.38a1.63,1.63,0,0,1,1.42-.65,21.27,21.27,0,0,1,2.86.57V35.47a9.72,9.72,0,0,1-3.86-1Z"/><path class="cls-1" d="M17.34,21.65a8.61,8.61,0,0,0-.86,3.24H23Z"/><path class="cls-1" d="M8.33,21c.35.58.18,1.15-.25,2.4-.15.45-.33.95-.49,1.52h7.67a9.84,9.84,0,0,1,1-3.85l-7.1-4.1A17.61,17.61,0,0,0,7.7,20.72.69.69,0,0,1,8.33,21Z"/><path class="cls-1" d="M19.72,17.16l-1.57-2.73c.07,1.23-.06,1.66-1,2a3.26,3.26,0,0,0-1.3.87,1.81,1.81,0,0,1-1.5.58c-.5,0-.73,0-.84.07a0,0,0,0,0,0,0l3.42,2A10.1,10.1,0,0,1,19.72,17.16Z"/><path class="cls-1" d="M2.19,12.9c-.11,1.12-.07,2.93,1,3.89l1.7,1.48s0,0,0,0l1,1.53a.14.14,0,0,1,0,.11.69.69,0,0,0,.06.61.63.63,0,0,0,.48.22,19,19,0,0,1,1.69-4.44Z"/><path class="cls-1" d="M3.65,10.16c-.3-.08-.59.05-.9.4a4.06,4.06,0,0,0-.35,1L4.82,13C4.56,11.49,4.29,10.34,3.65,10.16Z"/><path class="cls-1" d="M19.45,9.27a2,2,0,0,1-.61.76A2.07,2.07,0,0,0,18,11.78l2.75,4.77a9.93,9.93,0,0,1,3.86-1V7.34A18.26,18.26,0,0,0,20,8.12C19.81,8.45,19.64,8.83,19.45,9.27Z"/><path class="cls-1" d="M34.81,7.71c-1.76-1-4.2-2-6.11-1.63a10.87,10.87,0,0,1-1.12.18A18.82,18.82,0,0,1,34.4,8.4Z"/><path class="cls-1" d="M33.57,20l7.08-4.08a18.35,18.35,0,0,0-5.81-5.82l-4.09,7.08A10,10,0,0,1,33.57,20Z"/><path class="cls-1" d="M30.14,18.22,26.9,23.84l5.62-3.25A8.66,8.66,0,0,0,30.14,18.22Z"/><path class="cls-1" d="M33.8,9.45a18.21,18.21,0,0,0-8-2.11v8.18a10.06,10.06,0,0,1,3.86,1Z"/><path class="cls-1" d="M25.84,16.74v6.49l3.25-5.62A8.72,8.72,0,0,0,25.84,16.74Z"/><path class="cls-1" d="M24.63,23.23V16.74a8.72,8.72,0,0,0-3.25.87Z"/><path class="cls-1" d="M20.33,18.21A9,9,0,0,0,18,20.59l5.63,3.25Z"/></svg>