<svg id="Layer_1" data-name="Layer 1" xmlns="http://www.w3.org/2000/svg" viewBox="0 0 50.46 50.46"><defs><style>.cls-1{fill:#65b4e1;}</style></defs><title>antibalas</title><path class="cls-1" d="M38.63,24a2,2,0,0,1-1.44-.81c-2.11-2.67-1.38-10.77-.93-13.67a.76.76,0,0,0,0-.11v0a.75.75,0,0,0,0-.14v0l0-.09v0l0,0,0-.08,0,0-.06-.07,0,0L36,8.77l0,0-.12-.06h0l0,0L30.9,6.75a.75.75,0,0,0-1,.51l0,.14c-.28.83-1.67,4.49-4.61,4.53h0c-3.27,0-4.64-4.65-4.65-4.7l0-.07,0-.06,0-.08,0-.06-.06-.06-.05,0-.07,0-.06,0h0l-.08,0-.07,0h-.32l-.15,0L14.69,8.91,14.57,9l0,0-.07.06,0,0-.05.06,0,0,0,.07,0,0,0,.09v0a.74.74,0,0,0,0,.13s0,0,0,0a.73.73,0,0,0,0,.1c.45,2.84,1.14,10.79-1,13.45a2,2,0,0,1-1.46.82.74.74,0,0,0-.69.75l.22,13.18c.05,1,4.09,3.27,4.13,3.29a20.87,20.87,0,0,0,9.74,2.56A20.86,20.86,0,0,0,35,41.2s4.08-2.25,4.13-3.31l.22-13.16A.74.74,0,0,0,38.63,24ZM31.13,8.44l3.43,1.35L32.3,15.42l-2.71-.8Zm-12,.13.22-.1,1.59,6.35-2.71.8L15.95,10Zm18.5,29a19.88,19.88,0,0,1-12.35,4.67h0a19.9,19.9,0,0,1-12.37-4.67l-.21-12.27a3.54,3.54,0,0,0,1.82-1.26c1.62-2,1.86-6.15,1.73-9.49l.89,2.22a.74.74,0,0,0,.9.44l4-1.19a.74.74,0,0,0,.51-.9L21.75,12a5.11,5.11,0,0,0,3.42,1.41h.1A5.12,5.12,0,0,0,28.71,12L28,15a.74.74,0,0,0,.51.89l4,1.19a.74.74,0,0,0,.9-.44l.87-2.18c-.14,3.4.08,7.59,1.72,9.66a3.51,3.51,0,0,0,1.8,1.25Z"/><path class="cls-1" d="M32.35,24.75H18.11a.74.74,0,0,0-.74.74V29.7a.74.74,0,0,0,.74.74H32.35a.74.74,0,0,0,.74-.74V25.49A.74.74,0,0,0,32.35,24.75ZM31.61,29H18.85V26.23H31.61Z"/><path class="cls-1" d="M32.35,33H18.11a.74.74,0,0,0-.74.74v4.21a.74.74,0,0,0,.74.74H32.35a.74.74,0,0,0,.74-.74V33.72A.74.74,0,0,0,32.35,33Zm-.74,4.21H18.85V34.46H31.61Z"/></svg>