<svg id="Layer_1" data-name="Layer 1" xmlns="http://www.w3.org/2000/svg" viewBox="0 0 50.46 50.46"><defs><style>.cls-1{fill:#65b4e1;}</style></defs><title>arma tenencia</title><path class="cls-1" d="M11.05,21.22,7.38,24a.28.28,0,0,0-.11.22v5.83a.28.28,0,0,0,.28.28h7.34a.28.28,0,0,0,.28-.28V24.23a.28.28,0,0,0-.11-.22l-3.67-2.79A.28.28,0,0,0,11.05,21.22Z"/><path class="cls-1" d="M16.26,22.41a.87.87,0,0,0,.86-1,.87.87,0,0,0-.34-.58l-5-3.83a.88.88,0,0,0-1.06,0L5.84,20.7a.87.87,0,0,0,1.06,1.39l4.33-3.29,4.51,3.43A.87.87,0,0,0,16.26,22.41Z"/><path class="cls-1" d="M20.62,20.43h7.59a.81.81,0,0,0,0-1.62H20.62a.81.81,0,1,0,0,1.62Z"/><path class="cls-1" d="M20.62,25H36.73a.81.81,0,0,0,0-1.62H20.62a.81.81,0,1,0,0,1.62Z"/><path class="cls-1" d="M20.62,29.6H36.73a.81.81,0,0,0,0-1.62H20.62a.81.81,0,1,0,0,1.62Z"/><path class="cls-1" d="M48.46,31.36l-1.09-1.05-.47-.46-.49.44-.55.49V12.44a3.11,3.11,0,0,0-3.11-3.11H4.61a3.11,3.11,0,0,0-3.11,3.11v25.1a3.11,3.11,0,0,0,3.11,3.11H36.53a6.64,6.64,0,0,1-1.28-1.78H4.61a1.33,1.33,0,0,1-1.33-1.33V12.44a1.33,1.33,0,0,1,1.33-1.33H42.75a1.33,1.33,0,0,1,1.33,1.33V30a6.69,6.69,0,0,1,1.5,1l-.24.21-.52.46-.31.28a5.19,5.19,0,0,0-7.63,6.9A5.22,5.22,0,0,0,39,40.65a5.15,5.15,0,0,0,4.57-.11,5.23,5.23,0,0,0,2.16-2.13,5.16,5.16,0,0,0,.63-2.47,5.08,5.08,0,0,0-.12-1.07l.29-.33.63-.7,1.33-1.49.46-.51Zm-1.83,2-.63.7-4.87,5.42-3.83-4.76,1.35-1.19L41.07,36l4.22-3.74.52-.46,1.07-.95L48,31.87Z"/></svg>