<svg id="Layer_1" data-name="Layer 1" xmlns="http://www.w3.org/2000/svg" viewBox="0 0 50.46 50.46"><defs><style>.cls-1{fill:#12b5e1;}</style></defs><title>art lineal</title><path class="cls-1" d="M45.25,9.72H7.41A3.1,3.1,0,0,0,4.32,12.8V37.66A3.1,3.1,0,0,0,7.4,40.74H45.25a3.09,3.09,0,0,0,3.08-3.08V12.8A3.09,3.09,0,0,0,45.25,9.72Zm1.32,27.93A1.32,1.32,0,0,1,45.28,39H7.41A1.33,1.33,0,0,1,6.1,37.67h0V12.8a1.32,1.32,0,0,1,1.32-1.32H45.25a1.32,1.32,0,0,1,1.32,1.32Z"/><path class="cls-1" d="M12,29.67,15.38,22a1.33,1.33,0,0,1,1.26-.85h.13A1.31,1.31,0,0,1,18,22l3.41,7.71a1,1,0,0,1-.91,1.46,1.08,1.08,0,0,1-1-.74l-.66-1.53h-4.3l-.69,1.6a1,1,0,0,1-1,.67,1,1,0,0,1-1-1A1.09,1.09,0,0,1,12,29.67ZM18,27l-1.35-3.22L15.31,27Z"/><path class="cls-1" d="M23.23,22.34a1.06,1.06,0,0,1,1.07-1.07h3.4a3.89,3.89,0,0,1,2.85,1,3,3,0,0,1,.84,2.23v0a3,3,0,0,1-2,3l1.5,1.82a1.24,1.24,0,0,1,.35.82,1,1,0,0,1-1,1,1.26,1.26,0,0,1-1.06-.56l-2.1-2.65H25.38v2.14a1.08,1.08,0,0,1-2.15,0ZM27.56,26c1.05,0,1.65-.56,1.65-1.39v0c0-.93-.64-1.4-1.69-1.4H25.38V26Z"/><path class="cls-1" d="M35.62,23.25H33.55a1,1,0,0,1,0-2h6.29a1,1,0,0,1,0,2H37.77v6.81a1.08,1.08,0,0,1-2.15,0Z"/></svg>