<svg id="Layer_1" data-name="Layer 1" xmlns="http://www.w3.org/2000/svg" viewBox="0 0 50.46 50.46"><defs><style>.cls-1{fill:#12b5e1;}</style></defs><title>autentificacion</title><path class="cls-1" d="M40.39,20.34l-2.73-5.45a4.42,4.42,0,0,0-2-2l-5.45-2.73a4.4,4.4,0,0,0-5.09.83l-4.36,4.36A4.4,4.4,0,0,0,20,20.47l1.09,2.18L10.13,33.57a.9.9,0,0,0-.27.6L9.6,39.79a.92.92,0,0,0,.25.67h0a.9.9,0,0,0,.64.26h5.87a.86.86,0,0,0,.65-.29.87.87,0,0,0,.24-.67l-.16-2.45,2.57.08a.89.89,0,0,0,.66-.26.94.94,0,0,0,.27-.67l-.1-2.75,3-.07a.9.9,0,1,0,0-1.8l-3.87.09a.89.89,0,0,0-.88.93l.09,2.7-2.6-.08a.88.88,0,0,0-.67.27.87.87,0,0,0-.25.68l.16,2.49h-4l.2-4.33L22.78,23.46a.88.88,0,0,0,.11-1.11.53.53,0,0,1,0-.12l-1.29-2.56a2.6,2.6,0,0,1,.49-3l4.37-4.37a2.61,2.61,0,0,1,3-.49l5.45,2.73a2.63,2.63,0,0,1,1.16,1.17l2.73,5.44a2.62,2.62,0,0,1-.49,3l-4.36,4.36a2.62,2.62,0,0,1-3,.49l-3.38-1.69a.89.89,0,0,0-1.21.4.93.93,0,0,0,.17,1,1.46,1.46,0,0,0,.24.17l3.38,1.69a4.41,4.41,0,0,0,5.09-.82l4.36-4.37A4.4,4.4,0,0,0,40.39,20.34Z"/><path class="cls-1" d="M31.23,17.1a1.67,1.67,0,1,0,2.36,0A1.66,1.66,0,0,0,31.23,17.1Z"/></svg>