<svg id="Layer_1" data-name="Layer 1" xmlns="http://www.w3.org/2000/svg" viewBox="0 0 50.46 50.46"><defs><style>.cls-1{fill:#65b4e1;}</style></defs><title>calefactor negativo</title><path class="cls-1" d="M37.85,19.38h-2L34.1,20.89h3.76V43.54a.29.29,0,0,1-.29.29H12.9a.29.29,0,0,1-.29-.29V39.48l-1.52,1.31v2.75a1.81,1.81,0,0,0,1.81,1.81H37.56a1.81,1.81,0,0,0,1.81-1.81V16.33l-1.52,1.31Z"/><path class="cls-1" d="M12.61,20.89H26.39l1.76-1.52H12.61v-9a3.76,3.76,0,0,1,3.76-3.76H34.09a3.76,3.76,0,0,1,3.76,3.76V11l1.47-1.27a5.28,5.28,0,0,0-5.23-4.59H16.37a5.28,5.28,0,0,0-5.28,5.28V34.13l1.52-1.31Z"/><path class="cls-1" d="M23.27,8.85H16.12a.76.76,0,1,0,0,1.52h7.15a.76.76,0,0,0,0-1.52Z"/><path class="cls-1" d="M23.27,11.25H16.12a.76.76,0,1,0,0,1.52h7.15a.76.76,0,0,0,0-1.52Z"/><path class="cls-1" d="M23.27,13.66H16.12a.76.76,0,1,0,0,1.52h7.15a.76.76,0,0,0,0-1.52Z"/><path class="cls-1" d="M23.27,16.06H16.12a.76.76,0,1,0,0,1.52h7.15a.76.76,0,0,0,0-1.52Z"/><path class="cls-1" d="M34.34,8.85H27a.76.76,0,1,0,0,1.52h7.33a.76.76,0,0,0,0-1.52Z"/><path class="cls-1" d="M35.1,12a.76.76,0,0,0-.76-.76H27a.76.76,0,1,0,0,1.52h7.33A.76.76,0,0,0,35.1,12Z"/><path class="cls-1" d="M34.67,13.73a.75.75,0,0,0-.33-.08H27a.76.76,0,0,0,0,1.52h6Z"/><path class="cls-1" d="M26.25,16.82a.76.76,0,0,0,.76.76h3.21L32,16.06H27A.76.76,0,0,0,26.25,16.82Z"/><path class="cls-1" d="M27.94,38.19a1.26,1.26,0,0,0,0-2.52H22.52a1.26,1.26,0,0,0,0,2.52Z"/><path class="cls-1" d="M47,6.43a1.17,1.17,0,0,0-1.65-.12L3.61,42.38a1.17,1.17,0,0,0,1.53,1.77L46.85,8.08A1.17,1.17,0,0,0,47,6.43Z"/></svg>