<svg id="Layer_1" data-name="Layer 1" xmlns="http://www.w3.org/2000/svg" viewBox="0 0 50.46 50.46"><defs><style>.cls-1{fill:#12b5e1;}</style></defs><title>camara - vigilancia</title><path class="cls-1" d="M8.06,37.52a.59.59,0,0,0-.59.6v.24a.6.6,0,1,0,1.19,0v-.24A.6.6,0,0,0,8.06,37.52Z"/><path class="cls-1" d="M46.14,19.09a.9.9,0,0,0-.61-.64l-5.78-1.74.65-2.18a.9.9,0,0,0-.6-1.13L12,5.05a.9.9,0,0,0-1.12.6l-4.22,14a.91.91,0,0,0,.6,1.13l8.61,2.58-1.48,2.18a1,1,0,0,0-.11.89,1,1,0,0,0,.64.62l3.74,1.12L13.05,35A5.63,5.63,0,0,0,10,34.09H6.09a1.8,1.8,0,0,0-1.8,1.8v7.76a1.8,1.8,0,0,0,1.8,1.8H10a5.69,5.69,0,0,0,5.68-5.68,5.63,5.63,0,0,0-1.15-3.41l6.19-7.54,4.53,1.36a.9.9,0,0,0,.28,0,1,1,0,0,0,.6-.2,1,1,0,0,0,.39-.8l0-2.63,8.6,2.58a.82.82,0,0,0,.26,0,.92.92,0,0,0,.43-.11.89.89,0,0,0,.44-.53l.65-2.19,1.61.48a.75.75,0,0,0,.26,0,.93.93,0,0,0,.64-.27L45.91,20A.89.89,0,0,0,46.14,19.09ZM10,43.65H8.66V40.31a.6.6,0,0,0-1.19,0v3.34H6.09V35.89H10a3.88,3.88,0,0,1,0,7.76ZM12.32,7l26.1,7.84-2.05,6.82L19.9,16.75a.59.59,0,0,0-.47.05l-2.78,1.61-7.1-2.13ZM24.5,27.9l-7.73-2.32L17.83,24l6.64,2Zm10.22-.71L8.62,19.35l.58-1.92,7.35,2.21a.66.66,0,0,0,.48-.06L19.8,18,36,22.84ZM38.44,25l-1-.31,1.87-6.21,4.3,1.29Z"/><path class="cls-1" d="M16.4,17l.23.07.17,0A.6.6,0,0,0,17,15.87l-.23-.07a.6.6,0,0,0-.75.4A.61.61,0,0,0,16.4,17Z"/><path class="cls-1" d="M14.6,16.41l.23.06a.47.47,0,0,0,.17,0,.6.6,0,0,0,.17-1.17L15,15.26a.6.6,0,1,0-.35,1.15Z"/></svg>