<svg id="Layer_1" data-name="Layer 1" xmlns="http://www.w3.org/2000/svg" viewBox="0 0 50.46 50.46"><defs><style>.cls-1{fill:#65b4e1;}</style></defs><title>cambio moneda</title><path class="cls-1" d="M29.94,34.74a1.24,1.24,0,0,1-1-.38,1.6,1.6,0,0,1-.34-1.1H26.88a2.82,2.82,0,0,0,.68,2,2.89,2.89,0,0,0,1.91.87v1.19h1v-1.2a2.79,2.79,0,0,0,1.75-.75,2.24,2.24,0,0,0,.64-1.66,2.52,2.52,0,0,0-.17-1,2.23,2.23,0,0,0-.49-.73,3.41,3.41,0,0,0-.78-.58,10.91,10.91,0,0,0-1.18-.54,2.91,2.91,0,0,1-1-.56,1,1,0,0,1-.26-.73,1.06,1.06,0,0,1,.27-.77,1,1,0,0,1,.76-.28,1,1,0,0,1,.8.36,1.66,1.66,0,0,1,.3,1.08h1.74a2.92,2.92,0,0,0-.6-1.91,2.51,2.51,0,0,0-1.66-.89v-1.3h-1v1.29a2.74,2.74,0,0,0-1.72.76,2.25,2.25,0,0,0-.65,1.66,2.49,2.49,0,0,0,.19,1,2.25,2.25,0,0,0,.53.74,3.6,3.6,0,0,0,.81.56,11,11,0,0,0,1.13.49,2.48,2.48,0,0,1,.93.54,1.1,1.1,0,0,1,.27.78,1,1,0,0,1-.31.75A1.19,1.19,0,0,1,29.94,34.74Z"/><path class="cls-1" d="M46.55,15.63,38.27,10a1.52,1.52,0,0,0-2.37,1.25V13H28.32a9.7,9.7,0,1,0-7.74,15.55h.07a9.62,9.62,0,0,0-.3,1.16H14.56V28A1.52,1.52,0,0,0,12.2,26.7L3.92,32.32a1.52,1.52,0,0,0,0,2.51l8.28,5.64a1.52,1.52,0,0,0,2.37-1.25V37.44h7.57a9.7,9.7,0,1,0,7.74-15.55H29.8a9.51,9.51,0,0,0,.3-1.16H35.9V22.5a1.52,1.52,0,0,0,2.37,1.26l8.28-5.62a1.52,1.52,0,0,0,0-2.51ZM14.23,35.92A1.19,1.19,0,0,0,13,37.11v2.1L4.77,33.57,13,28v2.1a1.19,1.19,0,0,0,1.19,1.19h5.95c0,.11,0,.23,0,.34a9.64,9.64,0,0,0,1,4.33Zm23.84-4.33a8.19,8.19,0,1,1-8.19-8.19A8.19,8.19,0,0,1,38.07,31.59ZM21.32,27c-.24,0-.49,0-.74,0a8.19,8.19,0,1,1,7.55-5A9.73,9.73,0,0,0,21.32,27ZM37.41,22.5V20.4a1.19,1.19,0,0,0-1.19-1.19H30.28c0-.11,0-.23,0-.34a9.64,9.64,0,0,0-1-4.33h7a1.19,1.19,0,0,0,1.19-1.19v-2.1l8.28,5.64Z"/><path class="cls-1" d="M21.77,15.93a3.52,3.52,0,0,1,1.14.2l.22-1.5a6.38,6.38,0,0,0-1.45-.19,4.17,4.17,0,0,0-2.68.85,3.5,3.5,0,0,0-1.33,2.42H16.61v.94h1v.42h-1V20h1a3.53,3.53,0,0,0,1.27,2.43,3.82,3.82,0,0,0,2.64.86,6.9,6.9,0,0,0,1.58-.18l-.22-1.49a3.4,3.4,0,0,1-1.17.19A2.26,2.26,0,0,1,19.51,20h2.06v-.94H19.51v-.42h2.06v-.94H19.52A2,2,0,0,1,21.77,15.93Z"/></svg>