<svg id="Layer_1" data-name="Layer 1" xmlns="http://www.w3.org/2000/svg" viewBox="0 0 50.46 50.46"><defs><style>.cls-1{fill:#12b5e1;}</style></defs><title>caminar</title><path class="cls-1" d="M27.43,13.7A3.69,3.69,0,1,0,23.74,10,3.69,3.69,0,0,0,27.43,13.7Z"/><path class="cls-1" d="M35.07,24.05c-5.78-.68-6.4-6.43-6.44-6.71a1.87,1.87,0,0,0-1.38-1.64,6.25,6.25,0,0,0-1.93-.33,5.66,5.66,0,0,0-1.91.2c-6.95,1.67-9.22,9.59-9.32,10a1.54,1.54,0,0,0,1.07,1.88,1.4,1.4,0,0,0,.41.05A1.53,1.53,0,0,0,17,26.35c.07-.26,1.49-5.12,5.38-7.15l-1.88,7.44A3,3,0,0,0,21.06,30l3,2.92,2.62,3,1,7a1.53,1.53,0,0,0,1.51,1.33l.21,0a1.53,1.53,0,0,0,1.31-1.72l-1-7.41a1.55,1.55,0,0,0-.37-.81l-3.53-4.73,1.53-7a9.87,9.87,0,0,0,7.47,4.69h.19a1.53,1.53,0,0,0,.17-3.05Z"/><path class="cls-1" d="M20.15,30.42,19.22,36l-3.94,5.38a1.53,1.53,0,0,0,1.23,2.43,1.54,1.54,0,0,0,1.24-.63l4.13-5.64a1.69,1.69,0,0,0,.26-.58L23,33.24l-2.59-2.55C20.28,30.6,20.22,30.51,20.15,30.42Z"/></svg>