<svg id="Layer_1" data-name="Layer 1" xmlns="http://www.w3.org/2000/svg" viewBox="0 0 50.46 50.46"><defs><style>.cls-1{fill:#a7a9ac;}</style></defs><title>casa</title><path class="cls-1" d="M25.9,8a1,1,0,0,0-.36-.24,1,1,0,0,0-.38,0,1,1,0,0,0-.24,0,.89.89,0,0,0-.34.23L6,25.6a.9.9,0,0,0,.62,1.56h4.64V41.87a.9.9,0,0,0,.9.9H38.34a.9.9,0,0,0,.9-.9V27.16h4.64a.9.9,0,0,0,.62-1.56ZM38.34,25.36a.9.9,0,0,0-.9.9V41h-7.6V30.05a.9.9,0,0,0-.9-.9H21.52a.9.9,0,0,0-.9.9V41H13V26.26a.9.9,0,0,0-.9-.9H8.84L25.23,9.83,41.62,25.36Z"/></svg>