<svg id="Layer_1" data-name="Layer 1" xmlns="http://www.w3.org/2000/svg" viewBox="0 0 50.46 50.46"><defs><style>.cls-1{fill:#12b5e1;}</style></defs><title>central nuclear 2</title><path class="cls-1" d="M40.88,20.48l-31.63,0a.93.93,0,0,1-.9-1.13l.06-.21c1.73-7,8.73-12,16.65-12s15,5.07,16.66,12.06l.06.22a.93.93,0,0,1-.89,1.13ZM10.45,18.61l29.23,0C37.79,13,31.81,8.9,25.06,8.9S12.35,12.93,10.45,18.61Z"/><path class="cls-1" d="M27.32,32.29a2.27,2.27,0,0,0-1.12-1.95l1.57-2.71a5.44,5.44,0,0,1,2.74,4.71h-3.2S27.32,32.31,27.32,32.29Z"/><path class="cls-1" d="M22.32,27.63l1.56,2.7a2.26,2.26,0,0,0-1.14,2s0,0,0,.05H19.58A5.44,5.44,0,0,1,22.32,27.63Z"/><path class="cls-1" d="M25,34.58a2.22,2.22,0,0,0,1.14-.32l1.62,2.79a5.33,5.33,0,0,1-5.45,0l1.6-2.78A2.22,2.22,0,0,0,25,34.58Z"/><path class="cls-1" d="M25,33.6a1.31,1.31,0,1,1,1.31-1.31A1.31,1.31,0,0,1,25,33.6Z"/><path class="cls-1" d="M17.29,32.81h0A7.75,7.75,0,1,1,25.54,40L25,40A7.75,7.75,0,0,1,17.29,32.81Zm7.3-7a6.46,6.46,0,1,0,6.87,6,6.46,6.46,0,0,0-6.43-6Z"/><path class="cls-1" d="M41.21,21.2h-32a.92.92,0,0,0-.92.91V42.47a.92.92,0,0,0,.92.92h32a.92.92,0,0,0,.92-.92V22.11A.92.92,0,0,0,41.21,21.2ZM40.3,41.56H10.16V23H40.3Z"/></svg>