<svg id="Layer_1" data-name="Layer 1" xmlns="http://www.w3.org/2000/svg" viewBox="0 0 50.46 50.46"><defs><style>.cls-1{fill:#65b4e1;}</style></defs><title>cluse</title><path class="cls-1" d="M44.3,9.6H6.16a3.11,3.11,0,0,0-3.11,3.11v25a3.11,3.11,0,0,0,3.11,3.11H44.3a3.11,3.11,0,0,0,3.11-3.11v-25A3.11,3.11,0,0,0,44.3,9.6Zm1.33,28.14a1.33,1.33,0,0,1-1.33,1.33H6.16a1.33,1.33,0,0,1-1.33-1.33v-25a1.33,1.33,0,0,1,1.33-1.33H44.3a1.33,1.33,0,0,1,1.33,1.33Z"/><path class="cls-1" d="M10.82,23.2A1.39,1.39,0,0,1,12,22.61a1.58,1.58,0,0,1,1.12.35,1.66,1.66,0,0,1,.43,1.11h1.63a3,3,0,0,0-1-2.06,3.2,3.2,0,0,0-2.18-.81,3.38,3.38,0,0,0-1.77.54,3,3,0,0,0-1.15,1.34,4.75,4.75,0,0,0-.4,2v.48a4.21,4.21,0,0,0,.87,2.82,3,3,0,0,0,2.4,1,3.32,3.32,0,0,0,2.25-.74,2.81,2.81,0,0,0,.95-2H13.58a1.56,1.56,0,0,1-.43,1.07,1.61,1.61,0,0,1-1.13.35,1.36,1.36,0,0,1-1.23-.59,3.51,3.51,0,0,1-.39-1.88V25A3.28,3.28,0,0,1,10.82,23.2Z"/><polygon class="cls-1" points="17.92 21.38 16.28 21.38 16.28 29.31 21.39 29.31 21.39 28 17.92 28 17.92 21.38"/><path class="cls-1" d="M26.56,26.66q0,1.45-1.4,1.45a1.43,1.43,0,0,1-1-.36,1.51,1.51,0,0,1-.37-1.14V21.38H22.12v5.28a2.63,2.63,0,0,0,.83,2,3.18,3.18,0,0,0,2.21.74,3.14,3.14,0,0,0,2.23-.76,2.67,2.67,0,0,0,.81-2.06V21.38H26.56Z"/><path class="cls-1" d="M32.35,22.57a1.41,1.41,0,0,1,1,.3,1.07,1.07,0,0,1,.34.85h1.63a2.27,2.27,0,0,0-.37-1.27,2.41,2.41,0,0,0-1-.87,3.33,3.33,0,0,0-3,0,2.36,2.36,0,0,0-1,.79,1.92,1.92,0,0,0-.36,1.15,2.2,2.2,0,0,0,1.35,2,8.34,8.34,0,0,0,1.35.54,4.29,4.29,0,0,1,1.18.52.84.84,0,0,1,.33.71.77.77,0,0,1-.33.66,1.53,1.53,0,0,1-.91.24q-1.57,0-1.57-1.31H29.21a2.35,2.35,0,0,0,.4,1.35,2.64,2.64,0,0,0,1.15.92,4,4,0,0,0,1.67.34,3.41,3.41,0,0,0,2.1-.59,1.91,1.91,0,0,0,.78-1.62,2.07,2.07,0,0,0-.64-1.55,5,5,0,0,0-2-1,4.4,4.4,0,0,1-1.15-.49.77.77,0,0,1-.39-.65.8.8,0,0,1,.33-.67A1.51,1.51,0,0,1,32.35,22.57Z"/><polygon class="cls-1" points="38.03 25.86 41.17 25.86 41.17 24.59 38.03 24.59 38.03 22.7 41.7 22.7 41.7 21.38 36.4 21.38 36.4 29.31 41.72 29.31 41.72 28 38.03 28 38.03 25.86"/></svg>