<svg id="Layer_1" data-name="Layer 1" xmlns="http://www.w3.org/2000/svg" viewBox="0 0 50.46 50.46"><defs><style>.cls-1{fill:#a7a9ac;}</style></defs><title>cobros</title><path class="cls-1" d="M25.39,19.11a2.09,2.09,0,0,1,1.68.76,3.48,3.48,0,0,1,.64,2.29h3.68a6.19,6.19,0,0,0-1.27-4.05,5.33,5.33,0,0,0-3.54-1.88V13.46h-2v2.73a5.85,5.85,0,0,0-3.66,1.61,4.8,4.8,0,0,0-1.37,3.53,5.3,5.3,0,0,0,.4,2.16A4.85,4.85,0,0,0,21,25.06a7.76,7.76,0,0,0,1.73,1.19,24.11,24.11,0,0,0,2.4,1,5.13,5.13,0,0,1,2,1.14,2.35,2.35,0,0,1,.58,1.66,2.06,2.06,0,0,1-.65,1.6,2.54,2.54,0,0,1-1.78.59,2.62,2.62,0,0,1-2.07-.81,3.38,3.38,0,0,1-.72-2.32H18.81a6,6,0,0,0,1.43,4.19,6.16,6.16,0,0,0,4.05,1.85v2.53h2V35.18A5.87,5.87,0,0,0,30,33.58a4.76,4.76,0,0,0,1.35-3.52A5.29,5.29,0,0,0,31,28a4.57,4.57,0,0,0-1-1.55,7,7,0,0,0-1.66-1.23,23.84,23.84,0,0,0-2.5-1.15,6.29,6.29,0,0,1-2.09-1.2,2.18,2.18,0,0,1-.56-1.56,2.21,2.21,0,0,1,.58-1.63A2.13,2.13,0,0,1,25.39,19.11Z"/><path class="cls-1" d="M32.71,41.37H13.92a4.79,4.79,0,0,1-4.78-4.78v-24A2.83,2.83,0,0,1,12,9.81H37.33a2.83,2.83,0,0,1,2.83,2.83V33.45a8.68,8.68,0,0,1,1.35-.11l.33,0V12.64a4.52,4.52,0,0,0-4.51-4.51H12a4.52,4.52,0,0,0-4.51,4.51v24a6.47,6.47,0,0,0,6.46,6.46h18.8a8.46,8.46,0,0,1,0-.87C32.67,41.91,32.69,41.64,32.71,41.37Z"/><path class="cls-1" d="M41.51,35.14a7,7,0,1,0,7,7A7.05,7.05,0,0,0,41.51,35.14Zm-.79,10.6h0l-3.63-4.51,1.28-1.13,2.29,2.31,4.06-3.58,1.22,1.06Z"/></svg>