<svg id="Layer_1" data-name="Layer 1" xmlns="http://www.w3.org/2000/svg" viewBox="0 0 50.46 50.46"><defs><style>.cls-1{fill:#65b4e1;}</style></defs><title>codigo genetico</title><path class="cls-1" d="M25.23,39.59h0a1.22,1.22,0,0,0,0-2.43h0a1.22,1.22,0,0,0,0,2.43Z"/><path class="cls-1" d="M20.52,39.88A1.47,1.47,0,1,0,21.85,42h6.76a1.47,1.47,0,1,0,0-1.25H21.85A1.47,1.47,0,0,0,20.52,39.88Z"/><path class="cls-1" d="M34.92,22.33A2.9,2.9,0,0,0,32.1,24.6H18.36a2.9,2.9,0,1,0,0,1.25H32.1a2.9,2.9,0,1,0,2.83-3.53Z"/><path class="cls-1" d="M35.17,31.32a2.27,2.27,0,0,0-4.46-.63H19.76a2.28,2.28,0,1,0,0,1.25H30.7a2.27,2.27,0,0,0,4.46-.63Z"/><path class="cls-1" d="M33.1,43.67a2.27,2.27,0,0,0-2.18,1.65H19.55a2.28,2.28,0,1,0,0,1.25H30.91a2.28,2.28,0,1,0,2.18-2.91Z"/><path class="cls-1" d="M29.94,33.6a1.57,1.57,0,0,0-1.44.95H22a1.58,1.58,0,1,0,0,1.25H28.5a1.57,1.57,0,1,0,1.44-2.2Z"/><path class="cls-1" d="M15.29,19.14a2.27,2.27,0,0,0,4.46.63H30.7a2.28,2.28,0,1,0,0-1.25H19.76a2.27,2.27,0,0,0-4.46.63Z"/><path class="cls-1" d="M17.36,6.79a2.27,2.27,0,0,0,2.18-1.66H30.91a2.28,2.28,0,1,0,0-1.25H19.55a2.28,2.28,0,1,0-2.18,2.91Z"/><path class="cls-1" d="M20.52,16.86A1.57,1.57,0,0,0,22,15.91H28.5a1.58,1.58,0,1,0,0-1.25H22a1.57,1.57,0,1,0-1.44,2.2Z"/><path class="cls-1" d="M25.23,10.87h0a1.22,1.22,0,0,0,0,2.43h0a1.22,1.22,0,0,0,0-2.43Z"/><path class="cls-1" d="M29.94,10.58a1.47,1.47,0,1,0-1.33-2.1H21.85a1.47,1.47,0,1,0,0,1.25h6.76A1.47,1.47,0,0,0,29.94,10.58Z"/></svg>