<svg id="Layer_1" data-name="Layer 1" xmlns="http://www.w3.org/2000/svg" viewBox="0 0 50.46 50.46"><defs><style>.cls-1{fill:#a7a9ac;}</style></defs><title>credenciales</title><path class="cls-1" d="M41.83,9.74H8.63a5.76,5.76,0,0,0-5.74,5.75V35a5.76,5.76,0,0,0,5.74,5.75h33.2A5.76,5.76,0,0,0,47.57,35V15.49A5.76,5.76,0,0,0,41.83,9.74Zm4,25.23a4,4,0,0,1-4,4H8.63a4,4,0,0,1-4-4V15.49a4,4,0,0,1,4-4h33.2a4,4,0,0,1,4,4Z"/><path class="cls-1" d="M17.92,25.43a6.2,6.2,0,0,1-3,.79,6.48,6.48,0,0,1-3-.79A9.55,9.55,0,0,0,8.23,31,14.15,14.15,0,0,0,15,33a12.92,12.92,0,0,0,6.72-2A9.58,9.58,0,0,0,17.92,25.43Z"/><path class="cls-1" d="M15,24.92a4.09,4.09,0,1,0-4.09-4.09A4.09,4.09,0,0,0,15,24.92Z"/><path class="cls-1" d="M41,19.22H26.64a.9.9,0,0,0,0,1.79H41a.9.9,0,0,0,0-1.79Z"/><path class="cls-1" d="M41,24H26.64a.9.9,0,0,0,0,1.79H41A.9.9,0,0,0,41,24Z"/><path class="cls-1" d="M41,28.68H26.64a.9.9,0,0,0,0,1.79H41a.9.9,0,0,0,0-1.79Z"/></svg>