<svg id="Layer_1" data-name="Layer 1" xmlns="http://www.w3.org/2000/svg" viewBox="0 0 50.46 50.46"><defs><style>.cls-1{fill:#65b4e1;}</style></defs><title>cultura imp</title><path class="cls-1" d="M23.59,15.29a.28.28,0,0,0-.39,0L21,17.52H13.92a.55.55,0,0,0-.55.55V33.72a.55.55,0,0,0,.55.55H32.87a.55.55,0,0,0,.55-.55V18.07a.55.55,0,0,0-.55-.55H25.82Zm-.19.58L25,17.52H21.75Zm8.92,17.3H14.47V18.62H32.32Z"/><path class="cls-1" d="M31.5,19.38H15.28v13H31.5Zm-9.86,7.15a2,2,0,0,1,1.92-1.22,2.08,2.08,0,0,1,1.74.86c-.2.27-.38.55-.56.81l-.25.38,0,0a13.08,13.08,0,0,1-2.82-.81Zm9.3,5.34H15.83v-3.3c.34-.42,2.32-2.72,4.24-2,.59.21,1,.37,1.31.5a13,13,0,0,0,2.75.81L24,28A10.15,10.15,0,0,1,19,30.57l-.08,0a.27.27,0,0,0-.16.35.28.28,0,0,0,.27.19h.09a10.49,10.49,0,0,0,5.37-2.79,9.77,9.77,0,0,0,.75-1c.64-1,1.44-2.17,2.38-2.11s1.51.88,2.05,1.69a3.51,3.51,0,0,0,1.31,1.37Z"/><path class="cls-1" d="M37.44,41A2.44,2.44,0,0,1,35,43.45H11.58A2.44,2.44,0,0,1,9.15,41V11.35a2.44,2.44,0,0,1,2.43-2.43H26.24l.13-.21a5.46,5.46,0,0,1,1.06-1.24l.21-.21H11.58a4.11,4.11,0,0,0-4.1,4.1V41a4.1,4.1,0,0,0,4.1,4.1H35a4.1,4.1,0,0,0,4.1-4.1V13.78L37.44,15Z"/><path class="cls-1" d="M42.62,7.12c-3.21-2.56-6.47-2.35-9.94.64a.45.45,0,0,1-.62,0L30.67,6.26l-1.35,7,0,.17,7.25-1L35.14,11a.46.46,0,0,1-.12-.32.45.45,0,0,1,.14-.32c1.8-1.71,3.67-3.48,7.37-3L43,7.4Z"/></svg>