<svg id="Layer_1" data-name="Layer 1" xmlns="http://www.w3.org/2000/svg" viewBox="0 0 50.46 50.46"><defs><style>.cls-1{fill:#12b5e1;}</style></defs><title>cus</title><path class="cls-1" d="M18.08,43a6.56,6.56,0,0,0-1.44,5.07,2,2,0,0,0,3.65.89l0,0,5-8.8C22.91,40.29,19.89,40.72,18.08,43Z"/><path class="cls-1" d="M34,7.83h0a18.57,18.57,0,0,0,8-2.32,16.69,16.69,0,0,0-.1-2.29,18.57,18.57,0,0,1-8.31,2.34h0A.57.57,0,0,1,33,5a.58.58,0,0,1,.57-.58h0a16.41,16.41,0,0,0,4.05-.67C37.44,2.57,37,.59,37,.59,34.68,3.25,28.09,4.72,22,6S11,9.2,9.23,12.64s-.08,8.92.73,11.11c0,.08-.05.17-.08.27h0a14.84,14.84,0,0,0-.79,9,3.42,3.42,0,0,0,.22.7l.57-.35A15.56,15.56,0,0,1,12,32.32l3,11.47c.21.86.4,1.66.55,2.26a7.63,7.63,0,0,1,1.11-3c.13-.21.28-.42.44-.63l.09-.12c2.23-2.83,5.86-3.19,8.51-3.32,4.31-.44,7.41-.8,9.26-3a5.47,5.47,0,0,0,.7-1.24,14.72,14.72,0,0,1-5.56,1.36.54.54,0,0,1-.54-.54.55.55,0,0,1,.54-.55,14.29,14.29,0,0,0,6-1.7,15.7,15.7,0,0,0,.26-1.65A15.05,15.05,0,0,1,30,33.51a.54.54,0,0,1-.54-.54.55.55,0,0,1,.54-.55,14.35,14.35,0,0,0,6.46-2c0-.62,0-1.15,0-1.51a15.11,15.11,0,0,1-6.6,1.88.54.54,0,0,1-.54-.54.55.55,0,0,1,.54-.55,12.6,12.6,0,0,0,3.42-.63l-.14-2.28c4.17-3.33,5-11.21,5.13-13.11a8.24,8.24,0,0,0,2.48-3l0-.09a18.5,18.5,0,0,1-7.09,1.72h0a.58.58,0,0,1,0-1.15h0a17.88,17.88,0,0,0,7.7-2.16,11.74,11.74,0,0,0,.46-2.24A18.55,18.55,0,0,1,34,9h0a.58.58,0,0,1,0-1.15Zm3.25,6.56c-.3,2.82-1.36,10.08-5.51,12.25-3.9,2-10.67,3.44-14.55,5.69-1.86,1.09-2.85,2-3.32,2.84L13,32.09A17.49,17.49,0,0,1,16.94,31a.51.51,0,0,0,.45-.58.51.51,0,0,0-.58-.45A21.17,21.17,0,0,0,10,32.15a12.43,12.43,0,0,1-.26-2.26A17.34,17.34,0,0,1,16,27.76a.52.52,0,0,0,.48-.56.53.53,0,0,0-.57-.47,17.55,17.55,0,0,0-6.14,1.95,12.38,12.38,0,0,1,.42-2.42A13.91,13.91,0,0,1,16,24.14a.52.52,0,1,0-.07-1,14,14,0,0,0-5.2,1.64,12.94,12.94,0,0,1,.8-1.63c2.51-4.19,10.57-5.54,17-6.63A52,52,0,0,0,37.21,14.39Z"/></svg>