<svg id="Layer_1" data-name="Layer 1" xmlns="http://www.w3.org/2000/svg" viewBox="0 0 50.46 50.46"><defs><style>.cls-1{fill:#12b5e1;}</style></defs><title>datos envio</title><path class="cls-1" d="M34.79,5.18l0,0H15.65l-8,10.41,0,0V38.73a4.58,4.58,0,0,0,4.55,4.59H38.27a4.58,4.58,0,0,0,4.55-4.59V15.58ZM26.46,7h7.43l6.44,8.54H26.46ZM16.57,7h8.08v8.54H10.21ZM41,38.73a2.75,2.75,0,0,1-2.74,2.76H12.19a2.75,2.75,0,0,1-2.74-2.76V17.35H41Z"/><path class="cls-1" d="M25.22,27.37h8.62a.75.75,0,0,0,0-1.5H25.22a.75.75,0,0,0,0,1.5Z"/><path class="cls-1" d="M25.22,23h8.62a.75.75,0,0,0,0-1.5H25.22a.75.75,0,0,0,0,1.5Z"/><path class="cls-1" d="M16.26,31.78H33.84a.75.75,0,0,0,0-1.5H16.26a.75.75,0,0,0,0,1.5Z"/><path class="cls-1" d="M16.26,36.19H33.84a.75.75,0,0,0,0-1.5H16.26a.75.75,0,0,0,0,1.5Z"/><path class="cls-1" d="M16.26,28h5.52a.76.76,0,0,0,.75-.75V21.72a.75.75,0,0,0-.75-.75H16.26a.74.74,0,0,0-.74.75v5.51A.75.75,0,0,0,16.26,28ZM17,22.47h4v4H17Z"/></svg>