<svg id="Layer_1" data-name="Layer 1" xmlns="http://www.w3.org/2000/svg" viewBox="0 0 50.46 50.46"><defs><style>.cls-1{fill:#a7a9ac;}</style></defs><title>diploma-negativo</title><path class="cls-1" d="M43.18,7H7.28A2.57,2.57,0,0,0,4.72,9.55V35.1a2.56,2.56,0,0,0,2.56,2.56H19v-3A2.09,2.09,0,0,1,18,34a2.29,2.29,0,0,1-.12-2.34.73.73,0,0,0-.3-.9,2.16,2.16,0,0,1,0-3.95.74.74,0,0,0,.3-.9,2.16,2.16,0,0,1,2.32-3.19.74.74,0,0,0,.76-.56,2.16,2.16,0,0,1,3.76-1.22.6.6,0,0,0,.31.13.89.89,0,0,0,.65-.14,2.16,2.16,0,0,1,3.74,1.23.74.74,0,0,0,.76.56,2.16,2.16,0,0,1,2.32,3.19.76.76,0,0,0,.3.9h0a2.16,2.16,0,0,1,0,3.95.73.73,0,0,0-.3.9,2.29,2.29,0,0,1-.09,2.3l-.11.13a2,2,0,0,1-.84.6v3H43.18a2.56,2.56,0,0,0,2.56-2.56V9.55A2.57,2.57,0,0,0,43.18,7ZM38.06,19H12.4a.9.9,0,0,1,0-1.79H38.06a.9.9,0,0,1,0,1.79Zm0-4.27H12.4a.89.89,0,1,1,0-1.78H38.06a.89.89,0,0,1,0,1.78Z"/><polygon class="cls-1" points="26.11 27.82 25.23 26.04 24.35 27.82 22.38 28.11 23.81 29.5 23.47 31.45 25.23 30.53 26.99 31.45 26.65 29.5 28.08 28.11 26.11 27.82"/><path class="cls-1" d="M29.45,35.36A2.31,2.31,0,0,1,28,37.2a2.08,2.08,0,0,1-.6.09,2.44,2.44,0,0,1-1.6-.65l-.08-.07a.67.67,0,0,0-.45-.16h0a.77.77,0,0,0-.49.18A2.15,2.15,0,0,1,21,35.36a.72.72,0,0,0-.62-.53l0,7.72a.9.9,0,0,0,.47.8.94.94,0,0,0,.93-.05L25.17,41l.49.25,3,2.09a.9.9,0,0,0,1.41-.74l0-7.76A.74.74,0,0,0,29.45,35.36Z"/><path class="cls-1" d="M32.15,29.51a1,1,0,0,0,.57-.76,1,1,0,0,0-.57-.75,2.13,2.13,0,0,1-.88-2.7.78.78,0,0,0-.89-1.22,2.13,2.13,0,0,1-2.29-1.68,1,1,0,0,0-.55-.77.92.92,0,0,0-.85.28,2.19,2.19,0,0,1-1.89.5,2,2,0,0,1-1-.47,1,1,0,0,0-.9-.31,1,1,0,0,0-.54.77,2.13,2.13,0,0,1-2.3,1.67,1,1,0,0,0-.9.28.94.94,0,0,0,0,.95,2.13,2.13,0,0,1-.88,2.7,1,1,0,0,0-.57.75,1,1,0,0,0,.57.76,2.13,2.13,0,0,1,.88,2.7,1,1,0,0,0,0,.94,1,1,0,0,0,.91.28h.24a2.12,2.12,0,0,1,2.05,1.67,1,1,0,0,0,.55.78,1,1,0,0,0,.85-.29A2.09,2.09,0,0,1,25.23,35h0a2.09,2.09,0,0,1,1.43.56,1,1,0,0,0,.87.3,1,1,0,0,0,.54-.78,2.16,2.16,0,0,1,2.3-1.67.94.94,0,0,0,.9-.28l.06-.08a1,1,0,0,0-.07-.85A2.13,2.13,0,0,1,32.15,29.51Zm-6.92,4A4.75,4.75,0,1,1,30,28.75,4.74,4.74,0,0,1,25.23,33.49Z"/></svg>