<svg id="Layer_1" data-name="Layer 1" xmlns="http://www.w3.org/2000/svg" viewBox="0 0 50.46 50.46"><defs><style>.cls-1{fill:#12b5e1;}</style></defs><title>discapacitado neg</title><path class="cls-1" d="M40.93,23.65a2.45,2.45,0,0,0-1.9-.74l-8.58.48L35.17,18a2.87,2.87,0,0,0,.61-2.7,2.45,2.45,0,0,0-1.1-1.56L23.39,7.18a2.48,2.48,0,0,0-2.88.3L15,12.39a2.46,2.46,0,0,0,3.28,3.67l4.18-3.72,3.45,2-6.09,6.94a12.63,12.63,0,0,0-6.59,3.26l3.18,3.18A8.09,8.09,0,0,1,27.84,39.15L31,42.33a12.56,12.56,0,0,0,2.13-14.16L36.49,28l-.81,9.92a2.46,2.46,0,0,0,2.25,2.65h.21a2.46,2.46,0,0,0,2.45-2.26l1-12.73A2.49,2.49,0,0,0,40.93,23.65Z"/><path class="cls-1" d="M36.37,13.1A4.12,4.12,0,1,0,32.25,9,4.12,4.12,0,0,0,36.37,13.1Z"/><path class="cls-1" d="M21.86,41.81a8.09,8.09,0,0,1-6.7-12.64L11.94,26A12.59,12.59,0,0,0,29.61,43.62L26.4,40.41A8.07,8.07,0,0,1,21.86,41.81Z"/></svg>