<svg id="Layer_1" data-name="Layer 1" xmlns="http://www.w3.org/2000/svg" viewBox="0 0 50.46 50.46"><defs><style>.cls-1{fill:#a7a9ac;}</style></defs><title>discapacidad 2</title><path class="cls-1" d="M37.91,7.77H12.55A4.52,4.52,0,0,0,8,12.28V36.23a6.47,6.47,0,0,0,6.46,6.46H36a6.47,6.47,0,0,0,6.46-6.46V12.28A4.52,4.52,0,0,0,37.91,7.77Zm2.83,28.46A4.79,4.79,0,0,1,36,41H14.5a4.79,4.79,0,0,1-4.78-4.78V12.28a2.83,2.83,0,0,1,2.83-2.83H37.91a2.83,2.83,0,0,1,2.83,2.83Z"/><path class="cls-1" d="M28.55,31.23a1.31,1.31,0,0,0-1,0,1.33,1.33,0,0,0-.71.71,5.05,5.05,0,1,1-6-6.83,1.33,1.33,0,0,0,.79-.62,1.3,1.3,0,0,0,.13-1,1.38,1.38,0,0,0-.62-.8,1.37,1.37,0,0,0-1-.12A7.69,7.69,0,1,0,29.25,33a1.31,1.31,0,0,0,0-1A1.29,1.29,0,0,0,28.55,31.23Z"/><circle class="cls-1" cx="23.43" cy="15.35" r="2.54"/><path class="cls-1" d="M34.51,34.19l-.59.06-1.66-6a1.32,1.32,0,0,0-1.21-1L26,27l-.44-4.26,4,2.59a1.3,1.3,0,0,0,1,.18,1.31,1.31,0,0,0,1-1.56,1.33,1.33,0,0,0-.57-.83l-6.31-4.09a1.33,1.33,0,0,0-1.41,0,1.31,1.31,0,0,0-.62,1.25l.84,8.13a1.3,1.3,0,0,0,1.24,1.18l5.29.24,1.7,6.2A1.31,1.31,0,0,0,33,37h.14l1.71-.2A1.3,1.3,0,0,0,36,35.35a1.25,1.25,0,0,0-.49-.89A1.28,1.28,0,0,0,34.51,34.19Z"/></svg>