<svg id="Layer_1" data-name="Layer 1" xmlns="http://www.w3.org/2000/svg" viewBox="0 0 50.46 50.46"><defs><style>.cls-1{fill:#65b4e1;}</style></defs><title>eleccion</title><path class="cls-1" d="M41,13.55v-.09L34.28,6.27l-.06-.07H13.52a4.2,4.2,0,0,0-4.2,4.2V40.06a4.2,4.2,0,0,0,4.2,4.2H36.94a4.2,4.2,0,0,0,4.19-4.2Zm-3.18-.46H35L35,10Zm1.41,27a2.34,2.34,0,0,1-2.34,2.34H13.52a2.34,2.34,0,0,1-2.34-2.34V10.4a2.34,2.34,0,0,1,2.34-2.34H32.91l0,6.07a1.06,1.06,0,0,0,1.08,1c.38,0,3,0,5.25,0Z"/><path class="cls-1" d="M28.54,12.73l-2.13,5.71h1.25l.39-1.18h2.06l.4,1.18h1.25l-2.14-5.71Zm-.16,3.58.71-2.14.72,2.14Z"/><path class="cls-1" d="M30.87,24.93a1.29,1.29,0,0,0,.22-.74A1.36,1.36,0,0,0,30.55,23a2.63,2.63,0,0,0-1.58-.4H27v5.71h2.22a2.37,2.37,0,0,0,1.5-.43,1.51,1.51,0,0,0,.53-1.25,1.31,1.31,0,0,0-.25-.82,1.21,1.21,0,0,0-.69-.44A1.25,1.25,0,0,0,30.87,24.93Zm-2.72-1.35H29a1.19,1.19,0,0,1,.71.17.66.66,0,0,1,.23.56q0,.69-.89.71h-.87ZM29.8,27.2a1,1,0,0,1-.65.2h-1V25.85h1.08a.72.72,0,0,1,.81.8A.68.68,0,0,1,29.8,27.2Z"/><path class="cls-1" d="M28.25,34a1,1,0,0,1,.88-.42,1.14,1.14,0,0,1,.81.25,1.19,1.19,0,0,1,.31.8h1.18a2.17,2.17,0,0,0-.7-1.49A2.59,2.59,0,0,0,27.88,33a2.17,2.17,0,0,0-.83,1,3.42,3.42,0,0,0-.29,1.45v.35a3,3,0,0,0,.63,2,2.15,2.15,0,0,0,1.73.74A2.39,2.39,0,0,0,30.73,38a2,2,0,0,0,.68-1.45H30.24a1.12,1.12,0,0,1-.31.77,1.16,1.16,0,0,1-.81.25,1,1,0,0,1-.88-.43A2.53,2.53,0,0,1,28,35.74v-.43A2.36,2.36,0,0,1,28.25,34Z"/><path class="cls-1" d="M17,19.54h3.6a2,2,0,0,0,2-2v-3.6a2,2,0,0,0-2-2H17a2,2,0,0,0-2,2v3.6A2,2,0,0,0,17,19.54Zm-.89-5.59a.89.89,0,0,1,.89-.89h3.6a.89.89,0,0,1,.89.89v3.6a.89.89,0,0,1-.89.89H17a.89.89,0,0,1-.89-.89Z"/><path class="cls-1" d="M20.61,32H17a2,2,0,0,0-2,2v3.6a2,2,0,0,0,2,2h3.6a2,2,0,0,0,2-2V34A2,2,0,0,0,20.61,32Zm.89,5.59a.89.89,0,0,1-.89.89H17a.89.89,0,0,1-.89-.89V34A.89.89,0,0,1,17,33.1h3.6a.89.89,0,0,1,.89.89Z"/><polygon class="cls-1" points="23.52 21.48 22.99 21.95 21.91 22.91 18.62 25.83 16.12 23.3 14.72 24.54 14.86 24.72 15.43 25.42 18.68 29.47 23.72 23.85 24.38 23.12 25.76 21.59 24.63 20.5 23.52 21.48"/></svg>