<svg id="Layer_1" data-name="Layer 1" xmlns="http://www.w3.org/2000/svg" viewBox="0 0 50.46 50.46"><defs><style>.cls-1{fill:#65b4e1;}</style></defs><title>energia eolica</title><path class="cls-1" d="M44.9,30.94,31.46,22.51a7.75,7.75,0,0,0-3.17-.83c0-.06-.06-.12-.09-.17a8.45,8.45,0,0,0,.65-3.13L27.51,2.59a1.19,1.19,0,0,0-1.17-1.09h0a1.2,1.2,0,0,0-1.19,1.08L23.55,18.36a7.79,7.79,0,0,0,.64,3.17s-.06.1-.08.16a7.8,7.8,0,0,0-3.22.86L7.5,30.94a1.2,1.2,0,0,0,1.08,2.13l14.8-5.85a8.25,8.25,0,0,0,1-.65L23.26,47.48a.68.68,0,0,0,.64.72h0a.68.68,0,0,0,.68-.65l1.22-22.3,0,0a1.64,1.64,0,0,0,.66,0l.07.08,1.25,22.25a.68.68,0,0,0,.68.64h0a.68.68,0,0,0,.64-.72L28,26.6a8.64,8.64,0,0,0,1.05.65l14.74,5.82a1.21,1.21,0,0,0,.45.09,1.2,1.2,0,0,0,.63-2.21ZM27.24,22.85a1,1,0,1,1-1-1A1,1,0,0,1,27.24,22.85ZM26.3,4.52l1.18,13.91a7.11,7.11,0,0,1-.4,2.19,2.35,2.35,0,0,0-1.79,0,6.36,6.36,0,0,1-.38-2.18ZM22.81,26l-13,5.15,11.8-7.4a6.42,6.42,0,0,1,2.25-.66,2.39,2.39,0,0,0,.77,1.56A7.06,7.06,0,0,1,22.81,26Zm6.85,0a7.11,7.11,0,0,1-1.84-1.39,2.39,2.39,0,0,0,.77-1.56,6.34,6.34,0,0,1,2.2.63l11.85,7.43Z"/><path class="cls-1" d="M20.33,9.08a.48.48,0,0,0,.18,0A.65.65,0,0,0,20.66,9a.49.49,0,0,0-.35-.91.62.62,0,0,0-.16.08l.18.45-.18-.45a.49.49,0,0,0,.18.94Z"/><path class="cls-1" d="M15.5,12.45a9.33,9.33,0,0,1,2.67-2.16.49.49,0,0,0-.43-.88,10.18,10.18,0,0,0-3,2.39l.29.4Z"/><path class="cls-1" d="M11.37,27.57l.13,0a.49.49,0,0,0,.33-.6,15,15,0,0,1-.57-4.1A14.81,14.81,0,0,1,14.1,14.1a.49.49,0,0,0-.79-.57A15.92,15.92,0,0,0,10.9,27.22.49.49,0,0,0,11.37,27.57Z"/><path class="cls-1" d="M41.31,25.88a.48.48,0,0,0-.58.37l0,.16A.49.49,0,0,0,41,27h.12a.49.49,0,0,0,.47-.37l0-.17A.49.49,0,0,0,41.31,25.88Z"/><path class="cls-1" d="M42,24.36l0-.15a5.09,5.09,0,0,0,.07-.95v-.13a.49.49,0,1,0-1,0v.13a4.33,4.33,0,0,1-.06.83l0,.15a.49.49,0,0,0,.42.55h.07A.49.49,0,0,0,42,24.36Z"/><path class="cls-1" d="M40.76,19.69A11.32,11.32,0,0,1,41,21.18a.49.49,0,0,0,.48.43h.05a.49.49,0,0,0,.43-.54,11.83,11.83,0,0,0-.28-1.61.49.49,0,0,0-.95.22Z"/><path class="cls-1" d="M31.66,9a14.92,14.92,0,0,1,8.61,8.94.49.49,0,0,0,.46.33.46.46,0,0,0,.16,0,.49.49,0,0,0,.3-.62A15.9,15.9,0,0,0,32,8.05a.49.49,0,0,0-.36.91Z"/><path class="cls-1" d="M35.38,23.73s0,.14,0,.15a.45.45,0,0,0,.48.43h0a.53.53,0,0,0,.49-.51.49.49,0,0,0-.45-.52A.51.51,0,0,0,35.38,23.73Z"/><path class="cls-1" d="M30.7,14.79a9.24,9.24,0,0,1,4.53,6.15.49.49,0,0,0,.48.39h.1a.49.49,0,0,0,.38-.58,10.22,10.22,0,0,0-5-6.8.49.49,0,1,0-.48.85Z"/><path class="cls-1" d="M21.85,14.49a.52.52,0,0,0,.18,0h0a.49.49,0,1,0-.67-.27A.5.5,0,0,0,21.85,14.49Z"/><path class="cls-1" d="M18.46,17a.49.49,0,0,0,.69-.08,6.28,6.28,0,0,1,.95-1,.49.49,0,1,0-.64-.73,7.19,7.19,0,0,0-1.07,1.12A.49.49,0,0,0,18.46,17Z"/><path class="cls-1" d="M17.86,17.8a.49.49,0,0,0-.66.2A10.22,10.22,0,0,0,16,22.85c0,.21,0,.43,0,.64a.49.49,0,0,0,.49.46h0a.49.49,0,0,0,.46-.52q0-.29,0-.58a9.26,9.26,0,0,1,1.11-4.39A.49.49,0,0,0,17.86,17.8Z"/><path class="cls-1" d="M31,36.85h0l-.06,0a.47.47,0,0,0-.26.61.5.5,0,0,0,.47.31.52.52,0,0,0,.17,0h0l.09,0a.46.46,0,0,0,.24-.62A.51.51,0,0,0,31,36.85Z"/><path class="cls-1" d="M36.34,33.75a14.9,14.9,0,0,1-3.7,2.55.49.49,0,0,0,.21.93.49.49,0,0,0,.21,0A15.89,15.89,0,0,0,37,34.47a.49.49,0,0,0-.67-.71Z"/><path class="cls-1" d="M29.59,31.56h0a.47.47,0,0,0-.26.21.49.49,0,0,0-.05.38v0a.49.49,0,0,0,.46.32.48.48,0,0,0,.16,0h0a.49.49,0,0,0-.33-.92Z"/><path class="cls-1" d="M32.7,30.35a.49.49,0,0,0-.68-.11l-.25.18a2.5,2.5,0,0,1-.65.37.49.49,0,1,0,.4.89,3.39,3.39,0,0,0,.83-.47l.24-.18A.49.49,0,0,0,32.7,30.35Z"/><path class="cls-1" d="M15.63,33.29l0,0a.47.47,0,0,0-.67,0,.51.51,0,0,0,0,.71h0L15,34a.44.44,0,0,0,.31.13.5.5,0,0,0,.36-.16.51.51,0,0,0,0-.71Z"/><path class="cls-1" d="M20.63,37A14.87,14.87,0,0,1,16.8,34.6a.49.49,0,0,0-.63.74,15.92,15.92,0,0,0,4.07,2.52.49.49,0,0,0,.19,0,.49.49,0,0,0,.19-.94Z"/><path class="cls-1" d="M19.77,31a.49.49,0,0,0,.36-.82l0,0a.47.47,0,0,0-.5-.13.44.44,0,0,0-.21.11.49.49,0,0,0,0,.69l0,0h0A.49.49,0,0,0,19.77,31Z"/><path class="cls-1" d="M22.11,31.59l-.27-.16a2.49,2.49,0,0,1-.59-.45.49.49,0,1,0-.65.73,3.4,3.4,0,0,0,.76.57l.26.15a.49.49,0,0,0,.5-.84Z"/></svg>