<svg id="Layer_1" data-name="Layer 1" xmlns="http://www.w3.org/2000/svg" viewBox="0 0 50.46 50.46"><defs><style>.cls-1{fill:#12b5e1;}</style></defs><title>envio aereo</title><path class="cls-1" d="M13,43.27H24.71a13.7,13.7,0,0,1-.81-1.84H9.41a2.77,2.77,0,0,1-2.75-2.78V17.19H38.35v7.14a12.43,12.43,0,0,1,1.82.46V15.41L32.11,5l0,0H12.89l-8,10.46,0,0V38.65a4.6,4.6,0,0,0,4.57,4.62ZM23.74,6.77H31.2l6.47,8.58H23.74Zm-9.93,0h8.11v8.58H7.42Z"/><path class="cls-1" d="M36.05,25.47A11.57,11.57,0,1,0,47.62,37,11.58,11.58,0,0,0,36.05,25.47Zm-6.42,9.65c.56-.16,4.64.1,5.9.13L32.65,37c-.36-.19-2-1-3.4-1.69A.74.74,0,0,1,29.63,35.12Zm13-.14-3.29,2.11.14-.28a.45.45,0,0,0-.2-.6.45.45,0,0,0-.6.19l-3.14,6.2a1.51,1.51,0,0,1-.89.68h0v-.09c0-.15,0-.63.09-1.24.24-3.43.24-3.45.23-3.51a.42.42,0,0,0-.41-.36h0a.46.46,0,0,0-.42.46L34,40.45c-2.15,1.32-3.83,2.28-4.32,2.56h0c-.5-.45-2.65-2.39-3.3-2.92-.09-.07-.22-.2-.19-.32s.44-.36,1.05-.39a2.82,2.82,0,0,1,.5,0c1.45.11,2,.09,2,.09a.14.14,0,0,0,.09,0l11.08-6.64a4.43,4.43,0,0,1,1.54-.44,1.27,1.27,0,0,1,1.23.45C44.2,33.71,43.16,34.65,42.67,35Z"/></svg>