<svg id="Layer_1" data-name="Layer 1" xmlns="http://www.w3.org/2000/svg" viewBox="0 0 50.46 50.46"><defs><style>.cls-1{fill:#65b4e1;}</style></defs><title>estacion-trenes</title><path class="cls-1" d="M36.25,32.76l-4.18-6.44h1.75V18.56a3.38,3.38,0,0,0-3.37-3.37H27.7a3.38,3.38,0,0,0-3.37,3.37v7.76h1.75l-4.18,6.5a.5.5,0,0,0,.42.77h.47a.5.5,0,0,0,.44-.27l.48-.91H34.43l.48.85a.5.5,0,0,0,.44.27h.47A.5.5,0,0,0,36.25,32.76ZM30.87,24a.9.9,0,1,1,.9.9A.9.9,0,0,1,30.87,24Zm-5.43-5.12A2.61,2.61,0,0,1,28,16.26h2.13a2.61,2.61,0,0,1,2.61,2.61v1.5c0,.28-.23.51-.82.51H26.26c-.59,0-.82-.23-.82-.51Zm.95,6a.9.9,0,1,1,.9-.9A.9.9,0,0,1,26.38,24.89Zm4.84,1.42.85,1.62h-6l.85-1.62Zm-6.82,4.8,1.25-2.36h6.86l1.25,2.36Z"/><path class="cls-1" d="M29,11.48a13.77,13.77,0,0,0-12.38,7.77h-7V8.94a1,1,0,1,0-2,0V41.52a1,1,0,0,0,2,0V31.37h7.06A13.75,13.75,0,1,0,29,11.48ZM9.69,29.34V21.27h6.19a13.74,13.74,0,0,0,0,8.07ZM29,37A11.73,11.73,0,1,1,40.77,25.23,11.74,11.74,0,0,1,29,37Z"/></svg>