<svg id="Layer_1" data-name="Layer 1" xmlns="http://www.w3.org/2000/svg" viewBox="0 0 50.46 50.46"><defs><style>.cls-1{fill:#65b4e1;}</style></defs><title>etiqueta eficiencia</title><path class="cls-1" d="M35.53,7.5H14.93a4.38,4.38,0,0,0-4.38,4.38V38.59A4.38,4.38,0,0,0,14.93,43H35.53a4.38,4.38,0,0,0,4.38-4.38V11.87A4.38,4.38,0,0,0,35.53,7.5Zm2.86,31.09a2.86,2.86,0,0,1-2.86,2.86H14.93a2.86,2.86,0,0,1-2.86-2.86V11.87A2.86,2.86,0,0,1,14.93,9H35.53a2.86,2.86,0,0,1,2.86,2.86Z"/><path class="cls-1" d="M31.5,36.57l-2.34-1.24a.42.42,0,0,0-.2,0H15.86a.83.83,0,0,0-.83.83v1.4a.83.83,0,0,0,.83.83H29a.42.42,0,0,0,.2,0l2.34-1.24A.27.27,0,0,0,31.5,36.57Z"/><path class="cls-1" d="M15.86,34h11.3a.42.42,0,0,0,.2,0l2.34-1.24a.27.27,0,0,0,0-.48L27.35,31a.42.42,0,0,0-.2,0H15.86a.83.83,0,0,0-.83.83v1.4A.83.83,0,0,0,15.86,34Z"/><path class="cls-1" d="M15.86,29.61h9.5a.42.42,0,0,0,.2,0l2.34-1.24a.27.27,0,0,0,0-.48L25.55,26.6a.42.42,0,0,0-.2,0h-9.5a.83.83,0,0,0-.83.83v1.4A.83.83,0,0,0,15.86,29.61Z"/><path class="cls-1" d="M15.86,25.25h7.52a.42.42,0,0,0,.2,0L25.92,24a.27.27,0,0,0,0-.48l-2.34-1.24a.42.42,0,0,0-.2,0H15.86A.83.83,0,0,0,15,23v1.4A.83.83,0,0,0,15.86,25.25Z"/><path class="cls-1" d="M15.86,20.89h5.72a.42.42,0,0,0,.2,0l2.34-1.24a.27.27,0,0,0,0-.48l-2.34-1.24a.42.42,0,0,0-.2,0H15.86a.83.83,0,0,0-.83.83v1.4A.83.83,0,0,0,15.86,20.89Z"/><path class="cls-1" d="M15.86,16.52h3.92a.42.42,0,0,0,.2,0l2.34-1.24a.27.27,0,0,0,0-.48L20,13.51a.42.42,0,0,0-.2,0H15.86a.83.83,0,0,0-.83.83v1.4A.83.83,0,0,0,15.86,16.52Z"/><polygon class="cls-1" points="31.84 15.26 32.68 15.26 32.26 14.24 31.84 15.26"/><path class="cls-1" d="M34.59,12.84H30.21a.33.33,0,0,0-.2.07L27.45,14.8a.24.24,0,0,0,0,.39L30,17.08a.33.33,0,0,0,.2.07h4.38c.46,0,.84-.53.84-1.17V14C35.43,13.36,35,12.84,34.59,12.84Zm-1.38,3.73-.29-.7H31.6l-.29.7h-.7L32,13.42h.63l1.34,3.15Z"/></svg>