<svg id="Layer_1" data-name="Layer 1" xmlns="http://www.w3.org/2000/svg" viewBox="0 0 50.46 50.46"><defs><style>.cls-1{fill:#12b5e1;}</style></defs><title>exporta facil</title><path class="cls-1" d="M38.38,32.89a1.08,1.08,0,0,0-1.28.85l-1,5.14-22.5-.07,4.09-20.38,5.63,0h0a1.09,1.09,0,0,0,0-2.17l-6.51,0h0a1.08,1.08,0,0,0-1.07.87L11.19,39.68a1.08,1.08,0,0,0,.22.9,1.09,1.09,0,0,0,.84.4l24.7.07h0A1.08,1.08,0,0,0,38,40.18l1.21-6A1.07,1.07,0,0,0,38.38,32.89Z"/><path class="cls-1" d="M43.47,17.26c0-.1,0-.2,0-.31s0-.05,0-.08a1.74,1.74,0,0,0-.14-.38l0-.06a2,2,0,0,0-.17-.27l0,0s0,0,0,0A.6.6,0,0,1,43,16l-.2-.19-.12-.09-.22-.13-.15-.07-.22-.07-.16,0-.24,0h-.11l-13.63,0a1.93,1.93,0,0,0,0,3.86h0l7.94,0-10.39,8a1.93,1.93,0,0,0,1.18,3.46,1.9,1.9,0,0,0,1.17-.4L38.61,22l-1.4,6.85a1.93,1.93,0,0,0,1.5,2.28,1.84,1.84,0,0,0,.39,0A1.93,1.93,0,0,0,41,29.67l2.44-11.94a.13.13,0,0,0,0-.06,2.45,2.45,0,0,0,0-.27A.61.61,0,0,0,43.47,17.26Z"/><path class="cls-1" d="M10.1,33.81v-.05a.84.84,0,0,0-.16-.33h0s0,0-.06,0a.76.76,0,0,0-.22-.18.35.35,0,0,0-.11,0l-.24-.06H3a.89.89,0,0,0,0,1.77H6.65L1.89,38.52a.88.88,0,0,0,.54,1.58A.9.9,0,0,0,3,39.92l4.93-3.8-.64,3.13a.88.88,0,0,0,.69,1l.17,0A.9.9,0,0,0,9,39.6l1.12-5.45s0,0,0,0A1.09,1.09,0,0,0,10.1,33.81Z"/><path class="cls-1" d="M47.61,13.43a.89.89,0,0,0,.17-1.24A.88.88,0,0,0,46.54,12L44,14a.88.88,0,0,0,.54,1.58.9.9,0,0,0,.54-.18Z"/><path class="cls-1" d="M48,19h0l-2.54,0a.88.88,0,0,0,0,1.76h0l2.54,0A.89.89,0,0,0,48,19Z"/><path class="cls-1" d="M39.29,14h.13a.88.88,0,0,0,.87-.75l.41-2.82A.88.88,0,0,0,39,10.17L38.54,13A.89.89,0,0,0,39.29,14Z"/></svg>