<svg id="Layer_1" data-name="Layer 1" xmlns="http://www.w3.org/2000/svg" viewBox="0 0 50.46 50.46"><defs><style>.cls-1{fill:#65b4e1;}</style></defs><title>factura</title><path class="cls-1" d="M39.63,7.2V6.54H10.76V40.25a3.67,3.67,0,0,0,3.67,3.67H36a3.67,3.67,0,0,0,3.67-3.67ZM38.39,40.25A2.36,2.36,0,0,1,36,42.61H14.43a2.36,2.36,0,0,1-2.36-2.36V7.85H38.39Z"/><path class="cls-1" d="M16.81,40.45H33.88A2.43,2.43,0,0,0,36.31,38V20.76a.38.38,0,0,0-.38-.38H14.76a.38.38,0,0,0-.38.38V38A2.43,2.43,0,0,0,16.81,40.45Zm18.74-5.07H30.17v-9.8h5.38ZM30.15,21.14h5.41v3.74H30.17V21.4a.35.35,0,0,0,0-.14Zm0,18.51a.35.35,0,0,0,0-.14V36.09h5.38V38a1.67,1.67,0,0,1-1.67,1.67H30.15ZM21.3,21.14h8.08v3.74H21.3Zm0,4.44h8.08V39.69H21.3Zm-6.17-4.44h5.4v3.74h-5.4Zm0,4.44h5.4V39.69H16.81A1.67,1.67,0,0,1,15.14,38Z"/><path class="cls-1" d="M25.19,17.82A4.23,4.23,0,1,0,21,13.59,4.24,4.24,0,0,0,25.19,17.82Zm0-7.71a3.47,3.47,0,1,1-3.47,3.47A3.47,3.47,0,0,1,25.19,10.11Z"/><path class="cls-1" d="M25.25,15.73a1.94,1.94,0,0,0,.87-.19,1.51,1.51,0,0,0,.62-.54,1.41,1.41,0,0,0,.23-.77h-1a.59.59,0,0,1-.2.45.72.72,0,0,1-.5.17.67.67,0,0,1-.59-.28,1.65,1.65,0,0,1-.19-.92v-.11a1.62,1.62,0,0,1,.2-.91.74.74,0,0,1,1.09-.08.76.76,0,0,1,.2.52h1a1.56,1.56,0,0,0-.47-1.17,1.74,1.74,0,0,0-1.24-.44,1.77,1.77,0,0,0-1.39.57,2.2,2.2,0,0,0-.51,1.52v.07a2.23,2.23,0,0,0,.51,1.56A1.79,1.79,0,0,0,25.25,15.73Z"/></svg>