<svg id="Layer_1" data-name="Layer 1" xmlns="http://www.w3.org/2000/svg" viewBox="0 0 50.46 50.46"><defs><style>.cls-1{fill:#12b5e1;}</style></defs><title>familia 02</title><path class="cls-1" d="M16.1,11.41A4.43,4.43,0,1,0,11.68,7,4.42,4.42,0,0,0,16.1,11.41Z"/><path class="cls-1" d="M19.52,30.48a2.87,2.87,0,0,1-2.58-3.12c0-.44.85-8.32,5.17-12.24a7.65,7.65,0,0,0-5.82-3h-.37c-8.44.26-9.78,13.5-9.83,14.07A1.8,1.8,0,0,0,7,27.9V47a.89.89,0,1,0,1.78,0V27.87a1.8,1.8,0,0,0,.92-1.38,24.13,24.13,0,0,1,2-7.24V32.32h0V46.08a1.82,1.82,0,0,0,3.64,0V32.32h1.48V46.08a1.82,1.82,0,1,0,3.63,0v-8.9c0-.06-.09-.11-.13-.18a2.16,2.16,0,0,1-.23-1.76l.36-1.34V30.39a2.69,2.69,0,0,1-.7.1Z"/><path class="cls-1" d="M27.6,13.44a4.21,4.21,0,1,0-4.21-4.21A4.21,4.21,0,0,0,27.6,13.44Z"/><path class="cls-1" d="M32.31,36.16a2.15,2.15,0,0,1-1.93-2.33A16.87,16.87,0,0,1,32,28l-.52-2,.2-5.15A20.65,20.65,0,0,1,33.38,26a6.56,6.56,0,0,1,2-1.58,3.8,3.8,0,0,1-.64-5.18c-1.4-2.68-3.59-5-7-5.11h-.35c-8,.25-9.3,12.85-9.35,13.39a1.73,1.73,0,0,0,1.56,1.88h.16a1.74,1.74,0,0,0,1.72-1.57,23.08,23.08,0,0,1,2-7.09l.32,5.24-2.62,9.59a1.08,1.08,0,0,0,.84,1.38l1.39.25v9a1.73,1.73,0,1,0,3.46,0V37.56c.47,0,.94,0,1.41,0v8.59a1.73,1.73,0,1,0,3.46,0V37.31l1.31-.19,0,0L33.45,36a2.1,2.1,0,0,1-.94.22Z"/><path class="cls-1" d="M38,24.75h-.25c-5.49.17-6.36,8.79-6.4,9.17A1.18,1.18,0,0,0,32.4,35.2h.11a1.18,1.18,0,0,0,1.18-1.08,15.55,15.55,0,0,1,1.38-4.85l.22,3.59-1.8,6.57a.74.74,0,0,0,.58.94l1,.17v6.16a1.19,1.19,0,1,0,2.37,0V40.82c.32,0,.64,0,1,0v5.87a1.19,1.19,0,1,0,2.37,0V40.65l.9-.13a.73.73,0,0,0,.6-.94l-1.68-6.71.13-3.53A16.15,16.15,0,0,1,42,34.14a1.18,1.18,0,0,0,1.18,1.07h.11a1.18,1.18,0,0,0,1.07-1.28C44.34,33.54,43.47,24.92,38,24.75Z"/><path class="cls-1" d="M37.86,24.32A2.88,2.88,0,1,0,35,21.44,2.88,2.88,0,0,0,37.86,24.32Z"/></svg>