<svg id="Layer_1" data-name="Layer 1" xmlns="http://www.w3.org/2000/svg" viewBox="0 0 50.46 50.46"><defs><style>.cls-1{fill:#65b4e1;}</style></defs><title>fertilizacion asistida</title><path class="cls-1" d="M29.1,26.85a3.75,3.75,0,0,0-3.5,2.42,3.75,3.75,0,1,0-6.27,3.86c.64.7,6.23,7.18,6.23,7.18l0,.05,0-.05s5.59-6.48,6.23-7.18a3.75,3.75,0,0,0-2.77-6.28Z"/><path class="cls-1" d="M40.72,37.4c-.59-1.46-5.36-14.51-7.45-19.54h0v0c-.34-.81-.61-1.42-.77-1.73V6.24h.59l.28,0h.07a.68.68,0,0,0,.23-.08h0A.42.42,0,0,0,33.81,6l0-.06a.77.77,0,0,0,.05-.29h0a.77.77,0,0,0-.05-.29l0-.06a.42.42,0,0,0-.14-.16h0A.68.68,0,0,0,33.43,5h-.07l-.28,0h-15l-.28,0h-.07a.68.68,0,0,0-.23.08h0a.42.42,0,0,0-.15.16l0,.06a.77.77,0,0,0-.05.29h0a.77.77,0,0,0,.05.29l0,.06a.42.42,0,0,0,.14.16h0a.68.68,0,0,0,.23.08h.07l.28,0h.59v9.87c-1.22,2.23-7.54,19.59-8.23,21.28a6.86,6.86,0,0,0,.62,5.69,4.54,4.54,0,0,0,3.6,2.13H36.5a4.54,4.54,0,0,0,3.6-2.13A6.86,6.86,0,0,0,40.72,37.4ZM38.6,42.09a2.76,2.76,0,0,1-2.11,1.33H14.7a2.76,2.76,0,0,1-2.11-1.33,5.13,5.13,0,0,1-.45-4c.2-.5.82-2.17,1.69-4.47,1.74-4.66,4.79-12.84,6.05-15.75H31.32c1.26,2.91,4.31,11.09,6.05,15.75.86,2.31,1.48,4,1.69,4.47A5.13,5.13,0,0,1,38.6,42.09Z"/></svg>