<svg id="Layer_1" data-name="Layer 1" xmlns="http://www.w3.org/2000/svg" viewBox="0 0 50.46 50.46"><defs><style>.cls-1{fill:#12b5e1;}</style></defs><title>firma contrato</title><path class="cls-1" d="M30.24,16.13a.81.81,0,1,0,0-1.62H19.43a.81.81,0,0,0,0,1.62Z"/><path class="cls-1" d="M13.43,19.87a.81.81,0,0,0,.81.81h16a.81.81,0,1,0,0-1.61h-16A.8.8,0,0,0,13.43,19.87Z"/><path class="cls-1" d="M14.24,25.23h16a.81.81,0,1,0,0-1.61h-16a.81.81,0,1,0,0,1.61Z"/><path class="cls-1" d="M36.29,40a2.42,2.42,0,0,1-2.42,2.41H10.61A2.42,2.42,0,0,1,8.19,40V15.15c2.31,0,4.93,0,5.31,0h.05a1,1,0,0,0,.93-.94l0-6.12H33.87a2.42,2.42,0,0,1,2.42,2.41v10l1.56-1.17.09,0V10.5a4.08,4.08,0,0,0-4.07-4.07H13.35l0,0L6.63,13.59v.05L6.54,40A4.07,4.07,0,0,0,10.61,44H33.87A4.08,4.08,0,0,0,37.94,40V32.77c-.55.34-1.11.68-1.65,1ZM12.62,9.84l0,3.43H9.48Z"/><path class="cls-1" d="M44.65,16.13,43.21,18c-.58.72-.9,1.65-.18,2.22l.17.14a3.34,3.34,0,0,1-4.21.27s-3.72,2-3,5.77a7.33,7.33,0,0,1-1.22,4.91l4-5.09a1.15,1.15,0,0,1,0-1.71,1.42,1.42,0,0,1,2.22,1.76,1.34,1.34,0,0,1-1.67.4l-4.1,5c1.18-.91,3.19-2.22,4.54-2.27,3.82-.14,5-4.19,5-4.19a3.34,3.34,0,0,1-.7-4.16l.17.13c.72.57,1.62.11,2.2-.62l1.44-1.82Z"/><path class="cls-1" d="M16.44,37.88c0,.95.32,1.6.91,1.78a1.08,1.08,0,0,0,.27.05c.37,0,.84-.19,1.3-1a25.55,25.55,0,0,0,1.25-2.44l.3-.64.05.34c0,.29.17,1.18.87,1.43q.75.27,1.5-.69L24.26,35a1,1,0,0,1,.12-.14l.05.09a8.22,8.22,0,0,0,1.87,2.46,3.3,3.3,0,0,0,2.28.92c2-.09,3.7-2.37,5-4,.16-.21.3-.41.44-.58a.8.8,0,0,0,0-1,.59.59,0,0,0-.9.07l-.46.6c-1,1.38-2.6,3.46-4,3.52a2.17,2.17,0,0,1-1.46-.62,6.9,6.9,0,0,1-1.54-2,1.5,1.5,0,0,0-.95-.87c-.65-.12-1.11.47-1.28.69l-1.38,1.76a.94.94,0,0,1-.12.14s0-.1,0-.17l-.34-2.29a.69.69,0,0,0-.49-.58.6.6,0,0,0-.67.3A23.33,23.33,0,0,0,19,35.63a22.29,22.29,0,0,1-1.17,2.29,1.08,1.08,0,0,1-.14.21,1.57,1.57,0,0,1,0-.25A25.24,25.24,0,0,1,18.39,33c.18-.89.37-1.8.51-2.71a1.39,1.39,0,0,0-.07-.75,1,1,0,0,0-1.33-.44c-2.85,1.21-4.85,5.23-5.4,6.43a.8.8,0,0,0,.27,1,.62.62,0,0,0,.87-.32c.94-2.08,2.53-4.54,4.29-5.53-.11.67-.25,1.35-.38,2A25.55,25.55,0,0,0,16.44,37.88Z"/></svg>