<svg id="Layer_1" data-name="Layer 1" xmlns="http://www.w3.org/2000/svg" viewBox="0 0 50.46 50.46"><defs><style>.cls-1{fill:#65b4e1;}</style></defs><title>ganaderia</title><circle class="cls-1" cx="19.78" cy="37.5" r="1.03"/><circle class="cls-1" cx="30.68" cy="37.5" r="1.03"/><circle class="cls-1" cx="32.23" cy="21.3" r="1.03"/><circle class="cls-1" cx="18.23" cy="21.3" r="1.03"/><path class="cls-1" d="M48.77,14.77c-.36-.48-3.65-4.7-7.35-4.7h-.06a11.07,11.07,0,0,0-3.77.93,7.6,7.6,0,0,1-2.15.62.48.48,0,0,1-.37-.12h0a19.53,19.53,0,0,0-4.62-3.29l-.12-.07A12.87,12.87,0,0,0,25.1,6.82a10.81,10.81,0,0,0-3,.49,18.62,18.62,0,0,0-6.77,4.23.5.5,0,0,1-.33.09A7.6,7.6,0,0,1,12.87,11a11.07,11.07,0,0,0-3.77-.93H9c-3.71,0-7,4.22-7.35,4.7a1.8,1.8,0,0,0,.22,2.41,10.52,10.52,0,0,0,6,2.81h.29a13,13,0,0,0,5.08-1.38l3.19,13.24a5.67,5.67,0,0,0-1.73,4.25c-.1,2.65.52,4.72,1.79,6a5.42,5.42,0,0,0,4,1.51h.25c.54,0,2.29,0,4.45,0s3.91,0,4.45,0h.19a5.43,5.43,0,0,0,4-1.5c1.27-1.28,1.88-3.35,1.79-6a5.66,5.66,0,0,0-1.73-4.25l3.2-13.26A13,13,0,0,0,42.22,20h.29a10.52,10.52,0,0,0,6-2.81,1.8,1.8,0,0,0,.22-2.41Zm-6.34,3.42h-.21c-2.64,0-6.29-2.25-6.29-2.25l-4.05,16.8a2.57,2.57,0,0,1,.52.22,3.73,3.73,0,0,1,1.47,3.23c.08,2.14-.36,3.75-1.27,4.67a3.7,3.7,0,0,1-2.74,1h-.14c-.63,0-2.57,0-4.51,0s-3.87,0-4.51,0h-.19a3.64,3.64,0,0,1-2.68-1c-.91-.92-1.34-2.53-1.27-4.67A3.73,3.73,0,0,1,18.06,33a2.57,2.57,0,0,1,.51-.21L14.52,16s-3.65,2.25-6.29,2.25H8a8.84,8.84,0,0,1-4.9-2.34s3-4,5.92-4h0c2,0,4.18,1.55,5.94,1.55a2.27,2.27,0,0,0,1.54-.55,14.53,14.53,0,0,1,1.77-1.52c1.27.15,3.72.69,4.28,1.27a1.11,1.11,0,0,1,.31.54,1.1,1.1,0,0,1-.33.91c-.61.68-1.68,1-2,1.84a1.57,1.57,0,0,0,.53,1.6,2.92,2.92,0,0,0,1.64.62A6.77,6.77,0,0,1,24,18.3a1.23,1.23,0,0,1,.87.73,2.08,2.08,0,0,1-.4,1.5,3,3,0,0,0-.37,1.39,1.62,1.62,0,0,0,.6,1.27,1.84,1.84,0,0,0,1.26.29,3.07,3.07,0,0,0,1.25-5.72,4.52,4.52,0,0,1-.69-.41.78.78,0,0,1-.31-.7,1,1,0,0,1,.54-.6,5.81,5.81,0,0,1,1.91-.71,14,14,0,0,0,2.52-.42,3,3,0,0,0,1.91-2.78c.5.42.8.72.82.74a2.27,2.27,0,0,0,1.54.55c1.76,0,3.91-1.53,5.94-1.55h0c2.92,0,5.92,4,5.92,4A8.84,8.84,0,0,1,42.43,18.19Z"/></svg>