<svg id="Layer_1" data-name="Layer 1" xmlns="http://www.w3.org/2000/svg" viewBox="0 0 50.46 50.46"><defs><style>.cls-1{fill:#65b4e1;}</style></defs><title>gas</title><path class="cls-1" d="M38.86,31.42a13.42,13.42,0,0,0-1.61-6.48c-1.57-3.2-4.08-5.93-6.57-10.06A8.29,8.29,0,0,1,29.95,7a1.13,1.13,0,0,0-1.53-1.46,11.71,11.71,0,0,0-6.82,8.23,19.84,19.84,0,0,0,0,8.61,2.54,2.54,0,0,1-2,3.13l-.31,0c-1.17,0-2.27-.88-2.2-2.7a19,19,0,0,1,.23-2.15A1,1,0,0,0,15.38,20a37.09,37.09,0,0,0-3,6.88,13.59,13.59,0,0,0-.48,1.73l-.06.26h0a13.63,13.63,0,1,0,27,3.16h0s0-.07,0-.11S38.86,31.59,38.86,31.42ZM36,31.75v.05s0,.06,0,.09h0a10.75,10.75,0,1,1-21.3-2.48v-.07l0-.08V29.2a10.76,10.76,0,0,1,.38-1.36l0-.09c.1-.32.22-.68.36-1.08l.19.21a5,5,0,0,0,3.62,1.52,5.27,5.27,0,0,0,.68,0,5.18,5.18,0,0,0,3.42-2A5.84,5.84,0,0,0,24.44,22c0-.26-.08-.54-.12-.83a15.51,15.51,0,0,1,.06-6.65,9.13,9.13,0,0,1,2-4,11.91,11.91,0,0,0,1.82,5.9c1.16,1.93,2.33,3.57,3.36,5a35.74,35.74,0,0,1,3.09,4.83l.05.1A10.61,10.61,0,0,1,36,31.4C36,31.5,36,31.62,36,31.75Z"/></svg>