<svg id="Layer_1" data-name="Layer 1" xmlns="http://www.w3.org/2000/svg" viewBox="0 0 50.46 50.46"><defs><style>.cls-1{fill:#65b4e1;}</style></defs><title>genero</title><path class="cls-1" d="M16.66,20.12a7.62,7.62,0,0,0,7.59-7.46,6.15,6.15,0,0,0-.34-5.61,3.54,3.54,0,0,0-3.76-1.54,7,7,0,0,0-7.3-1.47C7.09,6.33,8.8,11.94,9.07,12.74A7.64,7.64,0,0,0,16.66,20.12ZM19.57,7.64a14.9,14.9,0,0,0,3,4.67v.07a1.1,1.1,0,0,1,0,.15A5.9,5.9,0,0,1,10.79,13,16.26,16.26,0,0,0,19.57,7.64Z"/><path class="cls-1" d="M38.27,31.41l-.12-.06-.11.08a8.44,8.44,0,0,1-4.54,1.43A8.66,8.66,0,0,1,29,31.43l-.11-.08-.12.06c-5.61,2.78-7.91,10.39-7.55,11.46l0,.07.06,0A23.37,23.37,0,0,0,33.5,46.89,21.9,21.9,0,0,0,45.75,43l.06,0,0-.07C46.19,41.8,43.89,34.19,38.27,31.41Zm5.86,10.64A20.38,20.38,0,0,1,33.5,45.2,22.41,22.41,0,0,1,22.87,42c.34-1.71,2.22-6.49,5.93-8.75a10.24,10.24,0,0,0,4.7,1.25,9.89,9.89,0,0,0,4.71-1.24C41.92,35.57,43.79,40.34,44.13,42.05Z"/><path class="cls-1" d="M22.9,29.93l-.37.38,6.8.14a7.58,7.58,0,0,0,8.34,0l6.78-.14-.33-.37a12.23,12.23,0,0,1-2.48-8.63A8.2,8.2,0,0,0,39.55,15a7,7,0,0,0-5.13-2.32,6,6,0,0,0-4.35,1.66l-.18.16h-.1a4.15,4.15,0,0,0-3.06,1.24c-1.15,1.21-1.61,3.17-1.38,5.84A11.05,11.05,0,0,1,22.9,29.93Zm4.69-5.83a5.92,5.92,0,0,1,3.34-5.31,14.28,14.28,0,0,0,8.47,5.34,5.91,5.91,0,0,1-11.82,0Z"/><path class="cls-1" d="M23.92,34a.86.86,0,0,0,.43-1.11.85.85,0,0,0-1.12-.44h0l-.07,0A19.91,19.91,0,0,1,17,33.52,22.4,22.4,0,0,1,6.33,30.36c.34-1.71,2.22-6.49,5.93-8.75A10.27,10.27,0,0,0,17,22.86a9.91,9.91,0,0,0,4.71-1.24,7.92,7.92,0,0,1,1.77,1.52.84.84,0,0,0,1.14.08h0A.88.88,0,0,0,24.7,22a12.41,12.41,0,0,0-3-2.26l-.12-.06-.11.08A8.44,8.44,0,0,1,17,21.17a8.66,8.66,0,0,1-4.54-1.43l-.11-.08-.12.06C6.58,22.5,4.28,30.12,4.63,31.18l0,.07.06,0A23.38,23.38,0,0,0,17,35.21a22.19,22.19,0,0,0,6.58-1.09A3.9,3.9,0,0,0,23.92,34Z"/></svg>