<svg id="Layer_1" data-name="Layer 1" xmlns="http://www.w3.org/2000/svg" viewBox="0 0 50.46 50.46"><defs><style>.cls-1{fill:#65b4e1;}</style></defs><title>genetica</title><path class="cls-1" d="M23.83,18.37c-.7-.37-1.41-.76-2.08-1.14-3,1.87-5.59,4.23-5.59,8a7.62,7.62,0,0,0,2.27,5.42,19.08,19.08,0,0,0,4.39,3.23c.72.41,1.45.81,2.17,1.19l.25.13c.67.36,1.33.71,1.95,1.07a8.22,8.22,0,0,1,1.48,1.1c.19.18.37.37.54.56H21.26a8.33,8.33,0,0,1,2-1.66l.81-.46c-.77-.41-1.55-.84-2.34-1.31-5.1,3.25-5.58,9.68-5.6,10a1.16,1.16,0,0,0,1.08,1.23h.08a1.16,1.16,0,0,0,1.15-1.08,12.28,12.28,0,0,1,.42-2.18H31.57A12.28,12.28,0,0,1,32,44.61a1.16,1.16,0,0,0,1.15,1.08h.08a1.16,1.16,0,0,0,1.08-1.23,15.08,15.08,0,0,0-2.59-7.1,10.84,10.84,0,0,0-3.37-3.1l-.7-.39L26.08,33l-.85-.46A33.89,33.89,0,0,1,22,30.65a12.41,12.41,0,0,1-1.75-1.45h9.93a17.64,17.64,0,0,1-3.84,2.74l.23.13c.77.41,1.47.79,2.13,1.17,3-1.87,5.59-4.23,5.59-8a7.51,7.51,0,0,0-2-5.12,18.18,18.18,0,0,0-4.66-3.52c-.72-.41-1.45-.81-2.17-1.19l-.24-.13c-.67-.36-1.33-.71-1.95-1.07a7.67,7.67,0,0,1-1-.75c-.22-.18-.43-.37-.63-.56h7.25a8.16,8.16,0,0,1-1.68,1.31l-.81.46c.77.41,1.55.84,2.34,1.31,5.1-3.25,5.58-9.68,5.6-10A1.16,1.16,0,0,0,32,5.85a12.66,12.66,0,0,1-.53,2.52H19a12.66,12.66,0,0,1-.53-2.52A1.16,1.16,0,1,0,16.16,6,15,15,0,0,0,19,13.44a10.78,10.78,0,0,0,3.11,2.75l.7.39,1.56.85.85.46a30.5,30.5,0,0,1,3.62,2.21,11.59,11.59,0,0,1,1.34,1.15H20.27a17.58,17.58,0,0,1,3.84-2.74Zm7.39,23h-12A11.56,11.56,0,0,1,20.43,39H30A11.56,11.56,0,0,1,31.22,41.35ZM19.39,9.45H31.07a11.12,11.12,0,0,1-1.28,2.35H20.67A11.12,11.12,0,0,1,19.39,9.45ZM31.08,28.12H19.38a5.15,5.15,0,0,1-.87-2.35H32A5.15,5.15,0,0,1,31.08,28.12Zm0-5.77a5.14,5.14,0,0,1,.86,2.35H18.51a5.15,5.15,0,0,1,.87-2.35Z"/></svg>