<svg id="Layer_1" data-name="Layer 1" xmlns="http://www.w3.org/2000/svg" viewBox="0 0 50.46 50.46"><defs><style>.cls-1{fill:#12b5e1;}</style></defs><title>guia tramites</title><path class="cls-1" d="M42.44,21.68c0-.27.16-.34.36-.15L46,24.63a.48.48,0,0,1,0,.7l-3.23,3.1c-.2.19-.36.12-.36-.15Z"/><path class="cls-1" d="M42.44,21.68c0-.27.16-.34.36-.15L46,24.63a.48.48,0,0,1,0,.7l-3.23,3.1c-.2.19-.36.12-.36-.15Z"/><path class="cls-1" d="M8,28.28c0,.27-.17.34-.36.15l-3.24-3.1a.48.48,0,0,1,0-.7l3.24-3.1c.19-.19.36-.12.36.15Z"/><path class="cls-1" d="M8,28.28c0,.27-.17.34-.36.15l-3.24-3.1a.48.48,0,0,1,0-.7l3.24-3.1c.19-.19.36-.12.36.15Z"/><path class="cls-1" d="M28.53,43.71c.27,0,.34.16.15.36l-3.1,3.23a.48.48,0,0,1-.7,0l-3.1-3.23c-.19-.2-.12-.36.15-.36Z"/><path class="cls-1" d="M28.53,43.71c.27,0,.34.16.15.36l-3.1,3.23a.48.48,0,0,1-.7,0l-3.1-3.23c-.19-.2-.12-.36.15-.36Z"/><path class="cls-1" d="M30.92,39.57H14.13A2.19,2.19,0,0,1,12,37.39V9.82a2.19,2.19,0,0,1,2.18-2.18h18l0,5.65a1,1,0,0,0,1,1c.35,0,2.75,0,4.88,0V32.19h.24a7.12,7.12,0,0,1,1.47.15l-.07-19.58v-.08L33.44,6l-.06-.07H14.13a3.91,3.91,0,0,0-3.9,3.91V37.39a3.91,3.91,0,0,0,3.9,3.9h17a7.41,7.41,0,0,1-.21-1.71Zm5.85-27.25H34.13l0-2.89Z"/><path class="cls-1" d="M38.32,33.88a5.7,5.7,0,1,0,5.7,5.7A5.7,5.7,0,0,0,38.32,33.88ZM38,43.1h0L34.7,39l1.17-1L38,40.07l3.88-3.44,1,1.06Z"/><path class="cls-1" d="M32.81,18.62H17.29a.87.87,0,0,0,0,1.73H32.81a.87.87,0,0,0,0-1.73Z"/><path class="cls-1" d="M32.81,22.27H17.29a.87.87,0,0,0,0,1.73H32.81a.87.87,0,0,0,0-1.73Z"/><path class="cls-1" d="M32.81,25.93H17.29a.86.86,0,0,0,0,1.72H32.81a.86.86,0,0,0,0-1.72Z"/><path class="cls-1" d="M32.81,29.58H17.29a.87.87,0,0,0,0,1.73H32.81a.87.87,0,0,0,0-1.73Z"/></svg>