<svg id="Layer_1" data-name="Layer 1" xmlns="http://www.w3.org/2000/svg" viewBox="0 0 50.46 50.46"><defs><style>.cls-1{fill:#65b4e1;}</style></defs><title>hogar y familia</title><path class="cls-1" d="M40.18,21.06,25.79,10.63a1,1,0,0,0-1.12,0L10.28,21.06a1,1,0,0,0-.39.77V42.67a1,1,0,0,0,1,1H39.62a1,1,0,0,0,1-1V21.84A1,1,0,0,0,40.18,21.06ZM38.67,41.72H11.79V22.32l13.44-9.75,13.44,9.75Z"/><path class="cls-1" d="M43.84,18.29l-18-13a1.06,1.06,0,0,0-1.24,0l-8.5,6.17V6.11a1.06,1.06,0,1,0-2.12,0v6.52a1,1,0,0,0,.06.28L6.62,18.29A1.06,1.06,0,0,0,7.86,20L25.23,7.41,42.6,20a1.06,1.06,0,0,0,1.24-1.71Z"/><path class="cls-1" d="M32.26,30.25c-.71.78-7,8-7,8l0,.06,0-.06s-6.27-7.26-7-8a4.2,4.2,0,1,1,7-4.32,4.2,4.2,0,1,1,7,4.32Z"/></svg>