<svg id="Layer_1" data-name="Layer 1" xmlns="http://www.w3.org/2000/svg" viewBox="0 0 50.46 50.46"><defs><style>.cls-1{fill:#12b5e1;}</style></defs><title>justicia negativo</title><path class="cls-1" d="M44.57,26.16c-.89-2-2.53-5.62-5-11a11.5,11.5,0,0,0,3.26-3.4,1.19,1.19,0,0,0,.16-.9,1.13,1.13,0,0,0-.52-.74,1.15,1.15,0,0,0-.89-.17,1.18,1.18,0,0,0-.75.52c-.16.25-.35.52-.54.76l-.86.86-.31.28a2.05,2.05,0,0,0-1.4-.55,2,2,0,0,0-1.71.93c-1.49-.57-3.64-1.56-6-2.74a3.52,3.52,0,0,0-3.5-3.44h-.08A3.52,3.52,0,0,0,22.93,10c-2.35,1.18-4.5,2.17-6,2.74a2,2,0,0,0-1.72-.93,2.07,2.07,0,0,0-1.4.55l-.31-.28-.83-.83c-.21-.27-.41-.54-.57-.79a1.16,1.16,0,0,0-.74-.52,1.2,1.2,0,0,0-1.26,1.81,11.57,11.57,0,0,0,3.27,3.4c-2.48,5.37-4.12,9-5,11l-.15.34H6.35v.3a9.26,9.26,0,0,0,9,9h.16a9,9,0,0,0,8.78-9.05V26.5h-2L16.83,15.31a61.85,61.85,0,0,0,6.94-3,3.55,3.55,0,0,0,1.5,1v23.9a5.81,5.81,0,0,0-1.12.48,5.4,5.4,0,0,0-2.58,3.17H19.31a1.19,1.19,0,0,0-.11,2.37H33.74a1.19,1.19,0,0,0-.1-2.37H31.37a5.42,5.42,0,0,0-2.6-3.19,5.67,5.67,0,0,0-1.09-.46V13.38a3.43,3.43,0,0,0,1.5-1,61.3,61.3,0,0,0,6.95,3L30.69,26.5h-2v.29a9,9,0,0,0,8.78,9.05h.17a9.25,9.25,0,0,0,9-9v-.3H44.71C44.61,26.24,44.57,26.17,44.57,26.16Zm-24.93.34h-8.8c.59-1.24,1.37-3,2.19-4.81.66-1.48,1.37-3.06,2.06-4.55Zm13.66,0,4.56-9.36c.68,1.49,1.39,3.07,2,4.55.83,1.83,1.61,3.57,2.19,4.81Z"/></svg>