<svg id="Layer_1" data-name="Layer 1" xmlns="http://www.w3.org/2000/svg" viewBox="0 0 50.46 50.46"><defs><style>.cls-1{fill:#12b5e1;}</style></defs><title>justicia </title><path class="cls-1" d="M45.65,25.11a1.55,1.55,0,0,0-1.09-.46h-.82c-.84-1.89-2.17-4.8-4-8.85a13.88,13.88,0,0,0,2.51-2.94,2.69,2.69,0,0,0,.37-2A2.69,2.69,0,0,0,40,8.74a3,3,0,0,0-.51,0H39.4A2.62,2.62,0,0,0,37.73,10c-.11.16-.25.36-.4.55l-.21.22a3.67,3.67,0,0,0-1.1-.17,3.44,3.44,0,0,0-2,.63c-1.11-.47-2.5-1.11-4-1.84a4.92,4.92,0,0,0-1.84-2.83,4.69,4.69,0,0,0-3-1.1,4.63,4.63,0,0,0-2.73.9,5,5,0,0,0-.76.62,4.79,4.79,0,0,0-1.32,2.41c-1.48.73-2.87,1.37-4,1.84a3.44,3.44,0,0,0-2-.63,3.67,3.67,0,0,0-1.1.17l-.19-.19c-.16-.21-.31-.41-.42-.58A2.62,2.62,0,0,0,11.06,8.8H11a2.94,2.94,0,0,0-.51,0,2.72,2.72,0,0,0-1.45.42,2.68,2.68,0,0,0-.8,3.69,13.88,13.88,0,0,0,2.51,2.94c-1.89,4.08-3.22,7-4,8.85H5.9a1.52,1.52,0,0,0-1.52,1.56v.29A10.34,10.34,0,0,0,14.51,36.67h.18a10.12,10.12,0,0,0,7.86-4v2.81a2.69,2.69,0,0,0-.29.16,6.84,6.84,0,0,0-2.77,2.85H18.35a2.66,2.66,0,0,0-.45,5.29,1.49,1.49,0,0,0,.36.05h14a1,1,0,0,0,.24,0,2.66,2.66,0,0,0-.39-5.3H31a7,7,0,0,0-2.78-2.86l-.28-.15V32.68a10.12,10.12,0,0,0,7.85,4H36A10.34,10.34,0,0,0,46.07,26.5v-.29A1.54,1.54,0,0,0,45.65,25.11ZM34.38,13a2,2,0,0,1,3-.36l.3-.27.82-.82c.18-.24.36-.5.52-.73a1.09,1.09,0,0,1,.72-.5l.23,0a1.16,1.16,0,0,1,.63.18,1.12,1.12,0,0,1,.49.72,1.14,1.14,0,0,1-.15.86,10.93,10.93,0,0,1-3.14,3.26c2,4.24,3.37,7.31,4.28,9.36H39.53c-.42-.94-.9-2-1.39-3.09-.64-1.43-1.32-2.94-2-4.38l-3.63,7.47H30l4.47-9.22a51.75,51.75,0,0,1-5.65-2.36,4.65,4.65,0,0,0,1-2.13C31.61,11.81,33.21,12.52,34.38,13Zm3.48,11.68H34.23l1.88-3.88.64,1.41C37.13,23,37.51,23.88,37.86,24.65ZM22.55,14.51V24.65h-.41l-4.06-8.36c1.56-.61,3.22-1.38,4.3-1.89Zm-.48-4.4a3.13,3.13,0,0,1,1.28-2.52A3.33,3.33,0,0,1,25.2,7h.07a3.43,3.43,0,0,1,2.21.86,3.16,3.16,0,1,1-5.41,2.21Zm6,4.29c1.08.51,2.74,1.28,4.3,1.89l-4.06,8.36h-.41V14.51Zm-15.41.89A11.06,11.06,0,0,1,9.53,12a1.14,1.14,0,0,1,.35-1.58,1.12,1.12,0,0,1,.62-.18l.23,0a1.09,1.09,0,0,1,.72.5c.16.23.34.49.55.76l.79.79.3.27a2,2,0,0,1,3,.36c1.17-.44,2.77-1.16,4.55-2a4.65,4.65,0,0,0,1,2.13A51.75,51.75,0,0,1,16,15.43l4.47,9.22H17.93L14.3,17.18c-.66,1.44-1.34,2.95-2,4.38-.49,1.1-1,2.15-1.39,3.09H8.39C9.3,22.6,10.71,19.53,12.67,15.29Zm3.56,9.36H12.6c.35-.77.73-1.61,1.11-2.47l.64-1.41ZM14.66,35.14h-.15a8.88,8.88,0,0,1-8.6-8.68v-.29H23.1v.28A8.61,8.61,0,0,1,14.66,35.14ZM29.93,40h2.18a1.14,1.14,0,0,1,.1,2.28h-14a1.14,1.14,0,0,1,.1-2.28h2.18A5.16,5.16,0,0,1,23,37a5.28,5.28,0,0,1,1.07-.45V14.64a4.21,4.21,0,0,0,2.3,0V36.52a5.53,5.53,0,0,1,1.05.45A5.17,5.17,0,0,1,29.93,40ZM44.55,26.46A8.88,8.88,0,0,1,36,35.14h-.16a8.61,8.61,0,0,1-8.43-8.69v-.28H44.55Z"/></svg>