<svg id="Layer_1" data-name="Layer 1" xmlns="http://www.w3.org/2000/svg" viewBox="0 0 50.46 50.46"><defs><style>.cls-1{fill:#00b4e4;}</style></defs><title>lazo neg</title><path class="cls-1" d="M24.71,17.9a2.27,2.27,0,0,1,1.79-3.64h0a2.25,2.25,0,0,1,1.94,1.09,2.3,2.3,0,0,1,0,2.31,8.34,8.34,0,0,1-.52.89.5.5,0,0,0,0,.61l4.82,5.6a.49.49,0,0,0,.38.18h0a.53.53,0,0,0,.38-.18c2.27-2.66,2.66-3.86,2.67-3.92A10.77,10.77,0,1,0,17.81,23c.05.06,10.11,12.1,18.55,22.18a.46.46,0,0,0,.38.18h.08a.5.5,0,0,0,.39-.31l3-8.08a.53.53,0,0,0-.08-.5Z"/><path class="cls-1" d="M19.87,28.43a.46.46,0,0,0-.38-.18h0a.5.5,0,0,0-.39.18L12.4,36.5a.51.51,0,0,0-.09.5l3,8.08a.49.49,0,0,0,.38.31h.08a.5.5,0,0,0,.39-.18l8.6-10.29a.49.49,0,0,0,0-.64Z"/></svg>