<svg id="Layer_1" data-name="Layer 1" xmlns="http://www.w3.org/2000/svg" viewBox="0 0 50.46 50.46"><defs><style>.cls-1{fill:#12b5e1;}</style></defs><title>licencia-valida</title><path class="cls-1" d="M46,23.44,40.4,21.06l3.55-5A1.72,1.72,0,0,0,44,14.17a1.75,1.75,0,0,0-1.73-.86l-6,.72L36.88,8a1.77,1.77,0,0,0-2.82-1.6L29.19,10,26.68,4.45a1.77,1.77,0,0,0-3.24,0l-2.38,5.59-5-3.55a1.76,1.76,0,0,0-2.78,1.64l.72,6L8,13.58a1.78,1.78,0,0,0-1.72.89,1.76,1.76,0,0,0,.12,1.93L10,21.26,4.45,23.78a1.77,1.77,0,0,0,0,3.24l5.59,2.38-3.55,5a1.76,1.76,0,0,0,1.64,2.78l6-.72-.6,6.07a1.77,1.77,0,0,0,2.82,1.6l4.86-3.65L23.78,46a1.75,1.75,0,0,0,1.61,1h0A1.75,1.75,0,0,0,27,46L29.4,40.4l5,3.55a1.76,1.76,0,0,0,2.78-1.64l-.72-6,6.07.6a1.77,1.77,0,0,0,1.6-2.82L40.45,29.2,46,26.68a1.77,1.77,0,0,0,0-3.24Zm-6.28,4.12A1.78,1.78,0,0,0,39,30.23l3.66,4.86-6.08-.6a1.78,1.78,0,0,0-1.43.52,1.75,1.75,0,0,0-.5,1.44l.74,6-5-3.55a1.72,1.72,0,0,0-1.5-.27,1.74,1.74,0,0,0-1.15,1l-2.38,5.6L22.9,39.71a1.8,1.8,0,0,0-1.62-1,1.77,1.77,0,0,0-1.05.35l-4.86,3.66L16,36.6a1.78,1.78,0,0,0-.52-1.43,1.75,1.75,0,0,0-1.44-.5l-6,.74,3.56-5a1.78,1.78,0,0,0,.26-1.5,1.74,1.74,0,0,0-1-1.15l-5.6-2.38,5.56-2.52a1.78,1.78,0,0,0,.69-2.67L7.78,15.37l6.08.6a1.78,1.78,0,0,0,1.43-.52,1.75,1.75,0,0,0,.5-1.44l-.74-6,5,3.55a1.71,1.71,0,0,0,1.5.27,1.74,1.74,0,0,0,1.15-1L25,5.19l2.52,5.56a1.78,1.78,0,0,0,2.67.69l4.86-3.66-.6,6.08A1.78,1.78,0,0,0,35,15.29a1.75,1.75,0,0,0,1.44.5l6-.74-3.56,5a1.78,1.78,0,0,0-.26,1.5,1.74,1.74,0,0,0,1,1.15L45.27,25Z"/><polygon class="cls-1" points="23.85 16.7 20.1 16.7 20.1 33.76 32.36 33.76 32.36 30.35 23.85 30.35 23.85 16.7"/></svg>