<svg id="Layer_1" data-name="Layer 1" xmlns="http://www.w3.org/2000/svg" viewBox="0 0 50.46 50.46"><defs><style>.cls-1{fill:#12b5e1;}</style></defs><title>licencia-valida-negativo</title><path class="cls-1" d="M46,23.44,40.4,21.06l3.55-5A1.72,1.72,0,0,0,44,14.17a1.74,1.74,0,0,0-1.73-.86l-6,.72L36.88,8a1.77,1.77,0,0,0-2.82-1.6L29.19,10,26.68,4.45a1.75,1.75,0,0,0-1.61-1h0a1.75,1.75,0,0,0-1.61,1.06l-2.38,5.59-5-3.55a1.74,1.74,0,0,0-1.92-.09,1.76,1.76,0,0,0-.87,1.73l.73,6L8,13.58a1.79,1.79,0,0,0-1.72.89,1.76,1.76,0,0,0,.12,1.93L10,21.26,4.45,23.78a1.74,1.74,0,0,0-1,1.63A1.76,1.76,0,0,0,4.47,27l5.59,2.38-3.55,5a1.76,1.76,0,0,0,1.64,2.78l6-.72-.6,6.07a1.77,1.77,0,0,0,2.82,1.6l4.86-3.65L23.78,46a1.75,1.75,0,0,0,1.61,1h0A1.75,1.75,0,0,0,27,46L29.4,40.4l5,3.55a1.72,1.72,0,0,0,1.92.09,1.76,1.76,0,0,0,.87-1.73l-.73-6,6.07.6a1.77,1.77,0,0,0,1.6-2.82L40.45,29.2,46,26.68a1.74,1.74,0,0,0,1-1.63A1.76,1.76,0,0,0,46,23.44ZM32.36,33.93H19.1V15.87h3.75V30.52h9.51Z"/></svg>