<svg id="Layer_1" data-name="Layer 1" xmlns="http://www.w3.org/2000/svg" viewBox="0 0 50.46 50.46"><defs><style>.cls-1{fill:#12b5e1;}</style></defs><title>lluvias intensas</title><path class="cls-1" d="M37.87,14.86C37.71,11.06,34.21,8,29.93,8a8,8,0,0,0-7,3.8,5.17,5.17,0,0,0-7.57,1.52,7,7,0,0,0-1.22-.12,7.94,7.94,0,0,0-4,14.78.91.91,0,0,0,1.23-.32A.9.9,0,0,0,11,26.43,6.14,6.14,0,0,1,14.11,15c.1,0,.29,0,.57,0a4.44,4.44,0,0,0-.1.62.9.9,0,0,0,.84,1,.92.92,0,0,0,1-.84,3.43,3.43,0,0,1,3.41-3.22,3.39,3.39,0,0,1,2.69,1.33.88.88,0,0,0,.86.33.89.89,0,0,0,.7-.6A6.13,6.13,0,0,1,29.93,9.8c3.39,0,6.14,2.39,6.14,5.34,0,.16,0,.32,0,.47a.87.87,0,0,0,.24.69.93.93,0,0,0,.68.3,5.34,5.34,0,0,1,5.34,5.34,5.12,5.12,0,0,1-2,4.18.9.9,0,0,0-.17,1.27.88.88,0,0,0,.71.35,1,1,0,0,0,.55-.18,6.9,6.9,0,0,0,2.71-5.62A7.15,7.15,0,0,0,37.87,14.86Z"/><path class="cls-1" d="M23.13,26.13A.89.89,0,0,0,23,24.87a.91.91,0,0,0-1.27.15L20.48,26.6a.89.89,0,0,0,.16,1.26.88.88,0,0,0,.55.19.89.89,0,0,0,.71-.35Z"/><path class="cls-1" d="M19.59,30.65a.89.89,0,0,0-.15-1.26.9.9,0,0,0-1.27.15l-1.54,2a.89.89,0,0,0,.15,1.26.94.94,0,0,0,.56.2.89.89,0,0,0,.71-.35Z"/><path class="cls-1" d="M14.32,34.46l-1.54,2a.9.9,0,0,0,.16,1.26.88.88,0,0,0,.55.19.91.91,0,0,0,.71-.34l1.54-2a.9.9,0,0,0-1.42-1.11Z"/><path class="cls-1" d="M32.87,26.13A.9.9,0,0,0,31.45,25L30.22,26.6a.89.89,0,0,0,.71,1.45.88.88,0,0,0,.7-.35Z"/><path class="cls-1" d="M24.06,34.46l-1.54,2a.89.89,0,0,0,.71,1.45.88.88,0,0,0,.7-.35l1.54-2a.9.9,0,1,0-1.41-1.11Z"/><path class="cls-1" d="M29.32,30.65a.9.9,0,1,0-1.41-1.11l-1.54,2a.89.89,0,0,0,.15,1.26.91.91,0,0,0,.56.2.88.88,0,0,0,.7-.35Z"/><path class="cls-1" d="M18.26,26.13A.9.9,0,0,0,16.85,25L15.61,26.6a.9.9,0,0,0,.16,1.26.88.88,0,0,0,.55.19A.89.89,0,0,0,17,27.7Z"/><path class="cls-1" d="M14.72,30.65a.89.89,0,0,0-.15-1.26.91.91,0,0,0-1.27.15l-1.54,2a.9.9,0,0,0,.16,1.26.88.88,0,0,0,1.26-.15Z"/><path class="cls-1" d="M9.45,34.46l-1.54,2a.9.9,0,0,0,.16,1.26.88.88,0,0,0,.55.19.91.91,0,0,0,.71-.34l1.54-2a.89.89,0,0,0-.15-1.26A.91.91,0,0,0,9.45,34.46Z"/><path class="cls-1" d="M28,26.13a.89.89,0,0,0-.15-1.26.91.91,0,0,0-1.27.15L25.35,26.6a.89.89,0,0,0,.71,1.45.91.91,0,0,0,.71-.35Z"/><path class="cls-1" d="M19.19,34.46l-1.54,2a.89.89,0,0,0,.71,1.45.91.91,0,0,0,.71-.35l1.54-2a.9.9,0,0,0-.16-1.26A.89.89,0,0,0,19.19,34.46Z"/><path class="cls-1" d="M24.46,30.65a.9.9,0,0,0-.16-1.26.89.89,0,0,0-1.26.15l-1.54,2a.89.89,0,0,0,.15,1.26.89.89,0,0,0,1.27-.15Z"/><path class="cls-1" d="M36.32,25,35.09,26.6a.89.89,0,0,0,.15,1.26.88.88,0,0,0,.55.19.89.89,0,0,0,.71-.35l1.24-1.57a.9.9,0,0,0-.16-1.26A.89.89,0,0,0,36.32,25Z"/><path class="cls-1" d="M32.77,29.54l-1.54,2a.9.9,0,0,0,.16,1.26.88.88,0,0,0,1.26-.15l1.54-2A.89.89,0,0,0,34,29.39.91.91,0,0,0,32.77,29.54Z"/><path class="cls-1" d="M28.92,34.46l-1.53,2a.89.89,0,0,0,.15,1.26.88.88,0,0,0,.55.19.9.9,0,0,0,.71-.34l1.54-2a.89.89,0,0,0-.15-1.26A.91.91,0,0,0,28.92,34.46Z"/></svg>