<svg id="Layer_1" data-name="Layer 1" xmlns="http://www.w3.org/2000/svg" viewBox="0 0 50.46 50.46"><defs><style>.cls-1{fill:#a7a9ac;}</style></defs><title>maletin check</title><path class="cls-1" d="M32.82,24.37a13.77,13.77,0,0,0,4.71-2.26V32a9,9,0,0,1,1.88-.21V13.74a3.59,3.59,0,0,0-3.59-3.59H30.3V6.7a4,4,0,0,0-4-4H16.87a3.76,3.76,0,0,0-3.76,3.77v3.66H7.58A3.6,3.6,0,0,0,4,13.73V35.35a3.44,3.44,0,0,0,3.44,3.44H30.76a8.81,8.81,0,0,1,2.06-4ZM15.13,6.7a1.68,1.68,0,0,1,1.74-1.61h9.65A1.69,1.69,0,0,1,28.27,6.7v3.45H15.13Zm-9.25,7A1.7,1.7,0,0,1,7.58,12H35.82a1.72,1.72,0,0,1,1.71,1.71v5.93a11.82,11.82,0,0,1-8.18,3.27H24.87V21H18.34v1.9h-4.8a11.85,11.85,0,0,1-7.66-2.82Zm17.36,8.94v3A1.22,1.22,0,0,1,22,26.94h-.83A1.23,1.23,0,0,1,20,25.72v-3ZM11.38,36.91h-4a1.55,1.55,0,0,1-1.55-1.56V22.47a13.83,13.83,0,0,0,5.5,2.17Zm19.56,0H13.26V24.81h5.08v.9a2.86,2.86,0,0,0,2.85,2.85H22a2.86,2.86,0,0,0,2.85-2.85v-.9h4.48a14.14,14.14,0,0,0,1.59-.1Z"/><path class="cls-1" d="M39.41,33.62a7.06,7.06,0,1,0,7.06,7.06A7.07,7.07,0,0,0,39.41,33.62Zm-.79,10.62h0L35,39.73l1.28-1.13,2.29,2.3,4-3.57,1.22,1.06Z"/></svg>