<svg id="Layer_1" data-name="Layer 1" xmlns="http://www.w3.org/2000/svg" viewBox="0 0 50.46 50.46"><defs><style>.cls-1{fill:#65b4e1;}</style></defs><title>marcador centro de salud 2</title><path class="cls-1" d="M25.47,4.07A14,14,0,0,0,15.29,8.14a13.63,13.63,0,0,0-4.13,9.78c0,10.21,12.25,25.55,12.77,26.2l.79,1,.82-1c.56-.65,13.76-16.09,13.76-25.79A14.08,14.08,0,0,0,25.47,4.07Zm-.24,22.4a8.4,8.4,0,1,1,8.4-8.4A8.41,8.41,0,0,1,25.23,26.47Z"/><path class="cls-1" d="M29.39,17h-3.2v-3.2a1,1,0,1,0-1.94,0V17H21.07a1,1,0,1,0,0,1.94h3.18v3.17a1,1,0,1,0,1.94,0V19h3.2a1,1,0,1,0,0-1.94Z"/></svg>