<?xml version="1.0" encoding="utf-8"?>
<!-- Generator: Adobe Illustrator 22.1.0, SVG Export Plug-In . SVG Version: 6.00 Build 0)  -->
<svg version="1.1" id="Layer_1" xmlns="http://www.w3.org/2000/svg" xmlns:xlink="http://www.w3.org/1999/xlink" x="0px" y="0px"
	 viewBox="0 0 50.5 50.5" style="enable-background:new 0 0 50.5 50.5;" xml:space="preserve">
<style type="text/css">
	.st0{fill:#12B5E1;}
</style>
<title>martillo negativo</title>
<g>
	<path class="st0" d="M29.3,25.6c0.4,0,0.7-0.1,1-0.4l6.6-6.3c0.4-0.4,0.6-1.1,0.3-1.6c-0.8-1.6-2-3.2-3.3-4.6
		c-1.4-1.4-3-2.6-4.6-3.4C28.9,9.1,28.7,9,28.5,9c-0.4,0-0.7,0.1-1,0.4l-6.4,6.4c-0.4,0.4-0.5,1.1-0.3,1.6c0.5,0.9,1,1.8,1.7,2.7
		L5.6,33.6c0,0-0.1,0.1-0.1,0.1c-1.9,1.8-1.9,4.9-0.1,6.7c0.9,0.9,2.1,1.4,3.4,1.4c1.2,0,2.4-0.5,3.3-1.3c0,0,0.1-0.1,0.1-0.1
		L26,23.7c0.8,0.6,1.7,1.2,2.6,1.7C28.8,25.5,29.1,25.6,29.3,25.6z"/>
	<path class="st0" d="M31.8,25.5c-0.8,0.8-0.8,2.2,0,3l0.5,0.5c0.4,0.4,0.9,0.6,1.5,0.6c0.6,0,1.1-0.2,1.5-0.6l5.3-5.3
		c0.8-0.8,0.8-2.2,0-3l-0.5-0.5c-0.4-0.4-0.9-0.6-1.5-0.6c-0.6,0-1.1,0.2-1.5,0.6L31.8,25.5z"/>
	<path class="st0" d="M17.7,14.4c0.4,0.4,0.9,0.6,1.5,0.6c0.6,0,1.1-0.2,1.5-0.6l5.3-5.3c0.8-0.8,0.8-2.2,0-3l-0.5-0.5
		c-0.4-0.4-0.9-0.6-1.5-0.6c-0.6,0-1.1,0.2-1.5,0.6l-5.3,5.3c-0.8,0.8-0.8,2.2,0,3L17.7,14.4z"/>
	<path class="st0" d="M33.2,35.8c-1.4,0-2.5,1.1-2.5,2.5V39c0,0.3,0.2,0.5,0.5,0.5h9.7c0.3,0,0.5-0.2,0.5-0.5v-0.7
		c0-1.4-1.1-2.5-2.5-2.5H33.2z"/>
	<path class="st0" d="M41.8,40.8h-3.4h-0.8h-7.4c-3,0-4.3,2.4-4.5,4.8h20.7C46.2,43.2,44.9,40.8,41.8,40.8z"/>
</g>
</svg>
