<svg id="Layer_1" data-name="Layer 1" xmlns="http://www.w3.org/2000/svg" viewBox="0 0 50.46 50.46"><defs><style>.cls-1{fill:#12b5e1;}</style></defs><title>mosquito</title><path class="cls-1" d="M6.8,39.15A6.78,6.78,0,0,1,4.11,40a.52.52,0,0,0-.48.57.54.54,0,0,0,.53.48h0a7.84,7.84,0,0,0,3.12-1,.53.53,0,0,0-.52-.92Z"/><path class="cls-1" d="M9.8,36.34A11.62,11.62,0,0,1,8,38.28.52.52,0,0,0,8,39a.51.51,0,0,0,.74.06A12.14,12.14,0,0,0,10.64,37a.51.51,0,0,0-.11-.73A.52.52,0,0,0,9.8,36.34Z"/><path class="cls-1" d="M4,36.84a7.91,7.91,0,0,0,2.36-.56.52.52,0,1,0-.4-1,7.49,7.49,0,0,1-2.06.49.51.51,0,0,0-.47.57.52.52,0,0,0,.52.48Z"/><path class="cls-1" d="M7.57,35.54a.55.55,0,0,0,.3-.09A9.81,9.81,0,0,0,9.47,34a.54.54,0,0,0-.05-.75.54.54,0,0,0-.75,0,8,8,0,0,1-1.4,1.29.52.52,0,0,0-.13.73A.5.5,0,0,0,7.57,35.54Z"/><path class="cls-1" d="M31.47,40a5.23,5.23,0,0,1-2.73-.72.52.52,0,0,0-.54.9,6.23,6.23,0,0,0,3.27.88.53.53,0,0,0,0-1.06Z"/><path class="cls-1" d="M25.91,35.67a.52.52,0,0,0-.69-.27.53.53,0,0,0-.28.69,10.89,10.89,0,0,0,1.46,2.48.54.54,0,0,0,.41.2.52.52,0,0,0,.33-.12.52.52,0,0,0,.08-.74A9.72,9.72,0,0,1,25.91,35.67Z"/><path class="cls-1" d="M37.81,36.93a11.83,11.83,0,0,1-4.1-.85.54.54,0,0,0-.69.29.53.53,0,0,0,.29.69,13.16,13.16,0,0,0,4.45.93h0a.52.52,0,0,0,.53-.51A.53.53,0,0,0,37.81,36.93Z"/><path class="cls-1" d="M32.06,35.22a10.06,10.06,0,0,1-2.17-1.91.54.54,0,0,0-.75-.06.52.52,0,0,0-.05.74,11.32,11.32,0,0,0,2.39,2.11.52.52,0,0,0,.29.09.54.54,0,0,0,.44-.24A.53.53,0,0,0,32.06,35.22Z"/><path class="cls-1" d="M41.63,20a.47.47,0,0,0,.16,0,.52.52,0,0,0,.5-.37A8.35,8.35,0,0,0,42.61,18a.51.51,0,0,0-.47-.57.52.52,0,0,0-.58.47,7,7,0,0,1-.28,1.47A.54.54,0,0,0,41.63,20Z"/><path class="cls-1" d="M41.46,20.89a.53.53,0,0,0-.73.15,3.53,3.53,0,0,1-1.19,1.15.53.53,0,0,0-.19.72.53.53,0,0,0,.46.26.48.48,0,0,0,.26-.07,4.66,4.66,0,0,0,1.54-1.49A.52.52,0,0,0,41.46,20.89Z"/><path class="cls-1" d="M46.57,19.32a.52.52,0,0,0-.58.47,12.57,12.57,0,0,1-1.06,3.29.53.53,0,0,0,.16.73.6.6,0,0,0,.28.08.53.53,0,0,0,.45-.25A13.21,13.21,0,0,0,47,19.89.51.51,0,0,0,46.57,19.32Z"/><path class="cls-1" d="M43.8,24.2a5.63,5.63,0,0,1-2.24.73.53.53,0,0,0-.46.59.54.54,0,0,0,.52.46h.07a6.48,6.48,0,0,0,2.66-.88.52.52,0,1,0-.55-.89Z"/><path class="cls-1" d="M40,25a24.05,24.05,0,0,1-7-1.46.5.5,0,0,0-.34,0l-3,.89,3.17-1.32a11.12,11.12,0,0,0,5.68.61.53.53,0,0,0-.22-1A10.38,10.38,0,0,1,33,22a.58.58,0,0,0-.41,0l-3.74,1.57c3-1.53,6.85-3.66,8-4.81a3.44,3.44,0,0,0,.63-3.66.61.61,0,0,0-1-.32c-1.86,1.63-8.59,8-8.59,8s6.4-6.48,7.53-8.71a4,4,0,0,0-.48-4.42.58.58,0,0,0-1,.07c-1.4,2.31-5.71,9.85-7.73,13.56a27.12,27.12,0,0,1-.11-2.75.53.53,0,0,0-.44-.52c-.21,0-.33-.05-.58.53h0v.06c-.2.45-.47,1.24-.91,2.58,0-1.53.12-2.76.17-3.43,0,0,0-.11,0-.12a.53.53,0,0,0-.42-.52c-.42-.09-.48-.08-2.65,5.23a3.28,3.28,0,0,0-.37.22c-1-1.74-2.65-4.08-4.1-3.73-2.42.58-3.59,3.4-4.83,6.38a31.52,31.52,0,0,1-2.22,4.65.52.52,0,0,0,.16.72.5.5,0,0,0,.28.08.52.52,0,0,0,.45-.24,32.08,32.08,0,0,0,2.31-4.8c1.18-2.85,2.2-5.31,4.09-5.77.47-.1,1.31.76,2.16,2a3.09,3.09,0,0,0-1.95-.54c-1.52.21-2.44,2.47-3.71,5.61a46.44,46.44,0,0,1-2.69,5.82.52.52,0,0,0,.19.72.48.48,0,0,0,.26.07.53.53,0,0,0,.46-.26,47.84,47.84,0,0,0,2.76-6c1-2.37,2-4.83,2.87-4.95a2.35,2.35,0,0,1,1.55.58A2.55,2.55,0,0,0,17,26.14a2.44,2.44,0,0,0-.14,2.68s-3.46,7.06-3.32,7.06l4.17-6.39a2.38,2.38,0,0,0,2.67-1.1,2.67,2.67,0,0,0,.33-.71,4.2,4.2,0,0,0,2.55.95,29.34,29.34,0,0,0,1,5.49.53.53,0,0,0,.51.38l.14,0a.52.52,0,0,0,.36-.65,28,28,0,0,1-.93-5.21,4.89,4.89,0,0,0,1.62-.38l.18.13A17.65,17.65,0,0,0,28,32.46a.53.53,0,0,0,.45.24.48.48,0,0,0,.28-.08.52.52,0,0,0,.16-.73,14.88,14.88,0,0,1-1.33-2.72,20.68,20.68,0,0,0,4.22,1.63,12,12,0,0,0,3,.4,7.35,7.35,0,0,0,5.24-1.9,25.8,25.8,0,0,0-7-3.53c-.86-.22-1.62-.39-2.31-.53l2.18-.65A24.85,24.85,0,0,0,40,26.06h0A.53.53,0,0,0,40,25ZM23.08,24a4.92,4.92,0,0,0-.56,0c.2-.48.4-1,.58-1.41C23.09,23.05,23.08,23.51,23.08,24Zm1.83.24c.08-.26.17-.52.25-.76,0,.27.06.56.1.86Zm3.7,3.3a11.33,11.33,0,0,1-1.39-.78,12.32,12.32,0,0,1,1.54.14Zm5.5.72c.63.27,1.26.58,1.83.88a6.73,6.73,0,0,1-1.24.11,7.54,7.54,0,0,1-.81-.06Zm-2-.66.32.08.69.21L32.85,29c-.21,0-.42-.07-.63-.13l-.4-.11Zm-1-.25-.27,1.13q-.63-.22-1.23-.48l.22-.92Z"/></svg>