<svg id="Layer_1" data-name="Layer 1" xmlns="http://www.w3.org/2000/svg" viewBox="0 0 50.46 50.46"><defs><style>.cls-1{fill:#65b4e1;}</style></defs><title>nevadas</title><path class="cls-1" d="M39.58,13.86C39.51,9.53,35.56,6,30.71,6a9,9,0,0,0-8,4.47,5.69,5.69,0,0,0-3.64-1.31,5.76,5.76,0,0,0-5,3A7.3,7.3,0,0,0,12.59,12a8.86,8.86,0,1,0,0,17.73H29.4l8.86,0h0a7.42,7.42,0,0,0,1,0h.37a3.47,3.47,0,0,0,.52-.08,7.94,7.94,0,0,0-.62-15.72ZM39.89,28h-.06a2,2,0,0,1-.3,0h-.34a5.15,5.15,0,0,1-.78,0h-.13l-8.89,0H12.59a7.26,7.26,0,1,1,0-14.51,5.31,5.31,0,0,1,.9.07,5.78,5.78,0,0,0-.14.92.8.8,0,1,0,1.6.1,4.13,4.13,0,0,1,7.4-2.29.8.8,0,0,0,1.39-.24,7.25,7.25,0,0,1,7-4.54c4,0,7.27,2.84,7.27,6.34a5.55,5.55,0,0,1,0,.57.8.8,0,0,0,.2.62.81.81,0,0,0,.65.26A6.34,6.34,0,0,1,39.89,28Z"/><circle class="cls-1" cx="14.16" cy="17.32" r="0.98"/><circle class="cls-1" cx="12.34" cy="34.82" r="1.18"/><circle class="cls-1" cx="21.07" cy="34.82" r="1.18"/><circle class="cls-1" cx="29.39" cy="34.82" r="1.18"/><circle class="cls-1" cx="38.12" cy="34.82" r="1.18"/><circle class="cls-1" cx="23.07" cy="45.81" r="0.87"/><circle class="cls-1" cx="28.48" cy="45.81" r="0.87"/><circle class="cls-1" cx="17.54" cy="40.31" r="1.07"/><circle class="cls-1" cx="25.23" cy="40.31" r="1.07"/><circle class="cls-1" cx="32.92" cy="40.31" r="1.07"/></svg>