<svg id="Layer_1" data-name="Layer 1" xmlns="http://www.w3.org/2000/svg" viewBox="0 0 50.46 50.46"><defs><style>.cls-1{fill:#65b4e1;}</style></defs><title>notebook</title><path class="cls-1" d="M10,32.87H40.44a2.33,2.33,0,0,0,2.33-2.33V9.27a2.33,2.33,0,0,0-2.33-2.33H10A2.33,2.33,0,0,0,7.69,9.27V30.54A2.33,2.33,0,0,0,10,32.87ZM9.67,9.27A.35.35,0,0,1,10,8.92H40.44a.35.35,0,0,1,.35.35V28.32H9.67Z"/><path class="cls-1" d="M45.27,39.3,41.63,35.8a1.62,1.62,0,0,0-1.11-.46H9.94a1.62,1.62,0,0,0-1.11.46L5.19,39.3a2.82,2.82,0,0,0-.52,3A1.78,1.78,0,0,0,6.3,43.52H44.16a1.78,1.78,0,0,0,1.63-1.24A2.82,2.82,0,0,0,45.27,39.3Z"/></svg>