<svg id="Layer_1" data-name="Layer 1" xmlns="http://www.w3.org/2000/svg" viewBox="0 0 50.46 50.46"><defs><style>.cls-1{fill:#0eb5e3;}.cls-2{fill:#12b5e1;}</style></defs><title>nube seguridad</title><path class="cls-1" d="M40.54,18h-.26v-.11a7.78,7.78,0,0,0-13.56-5.2A11.84,11.84,0,0,0,5.28,19.62a11.69,11.69,0,0,0,.08,1.32A8.19,8.19,0,0,0,.58,28.38,8.64,8.64,0,0,0,9,36.78H26.3V35H9a6.79,6.79,0,0,1-6.65-6.6,6.38,6.38,0,0,1,4.26-6,.89.89,0,0,0,.59-1,10.22,10.22,0,0,1-.15-1.74,10,10,0,0,1,18.79-4.91.91.91,0,0,0,.77.46.9.9,0,0,0,.78-.43,6,6,0,0,1,11.06,3.15,6.54,6.54,0,0,1-.06.89.89.89,0,0,0,.2.72.87.87,0,0,0,.67.31l.49,0h.12c.21,0,.42,0,.64,0a7.55,7.55,0,0,1,7.54,7.54,7.82,7.82,0,0,1-5.61,7.32v1.85a9.69,9.69,0,0,0,7.41-9.17A9.35,9.35,0,0,0,40.54,18Z"/><path class="cls-2" d="M30.44,27.84v2.5a2.82,2.82,0,0,0-2.17,2.74v8.38a1.22,1.22,0,0,0,1.22,1.22h10.3A1.22,1.22,0,0,0,41,41.46V33.08a2.82,2.82,0,0,0-2.18-2.74v-2.5a4.2,4.2,0,0,0-8.39,0Zm7.74,3.94a1.3,1.3,0,0,1,1.3,1.3v8.07H29.79V33.08a1.31,1.31,0,0,1,1.31-1.3Zm-6.11-3.94a2.57,2.57,0,0,1,5.13,0v2.41H32.07Z"/><path class="cls-2" d="M34,36.18l-.5,2a.41.41,0,0,0,.07.32.37.37,0,0,0,.29.14h1.64a.35.35,0,0,0,.28-.14.37.37,0,0,0,.07-.32l-.49-2a1.29,1.29,0,1,0-1.36,0Z"/></svg>