<svg id="Layer_1" data-name="Layer 1" xmlns="http://www.w3.org/2000/svg" viewBox="0 0 50.46 50.46"><defs><style>.cls-1{fill:#12b5e1;}</style></defs><title>olas</title><path class="cls-1" d="M2.75,37.83a7.27,7.27,0,0,0,1.86.55,4.53,4.53,0,0,0,3-1l.14-.09L8,37.08a1.8,1.8,0,0,1,1.2-.48,2.2,2.2,0,0,1,1.49.56,6.1,6.1,0,0,0,3.81,1.24,6.11,6.11,0,0,0,3.82-1.24,2.17,2.17,0,0,1,1.48-.56,2.2,2.2,0,0,1,1.49.56,6.1,6.1,0,0,0,3.81,1.24,6,6,0,0,0,3.82-1.24,2.17,2.17,0,0,1,1.48-.56h0a2.74,2.74,0,0,1,1.46.59A6.54,6.54,0,0,0,35.7,38.4a6,6,0,0,0,3.81-1.24,2.26,2.26,0,0,1,3,0l.33.25a4,4,0,0,0,2.92,1,4.43,4.43,0,0,0,2-.59.87.87,0,0,0-.79-1.54,2.64,2.64,0,0,1-1.19.4,2.34,2.34,0,0,1-1.85-.59l-.43-.32a3.91,3.91,0,0,0-4.92,0,4.41,4.41,0,0,1-2.84.94,5,5,0,0,1-2.94-1,4.29,4.29,0,0,0-2.37-.86h0a3.84,3.84,0,0,0-2.45.87,4.78,4.78,0,0,1-5.69,0,3.9,3.9,0,0,0-4.91,0,4.42,4.42,0,0,1-2.85.94,4.41,4.41,0,0,1-2.84-.94,3.87,3.87,0,0,0-2.46-.87,3.38,3.38,0,0,0-2.18.8l-.22.15-.14.1a3,3,0,0,1-1.89.74,6.77,6.77,0,0,1-1.21-.38.86.86,0,0,0-.76,1.55Z"/><path class="cls-1" d="M2.75,32.12a7.27,7.27,0,0,0,1.86.55,4.48,4.48,0,0,0,3-1l.14-.1L8,31.38a1.81,1.81,0,0,1,1.2-.49,2.21,2.21,0,0,1,1.49.57,6.1,6.1,0,0,0,3.81,1.24,6.11,6.11,0,0,0,3.82-1.24,2.19,2.19,0,0,1,1.48-.57,2.21,2.21,0,0,1,1.49.57,6.1,6.1,0,0,0,3.81,1.24,6.11,6.11,0,0,0,3.82-1.24,2.19,2.19,0,0,1,1.48-.57h0a2.76,2.76,0,0,1,1.46.6A6.54,6.54,0,0,0,35.7,32.7a6.1,6.1,0,0,0,3.81-1.24,2.23,2.23,0,0,1,3,0l.33.25a4,4,0,0,0,2.92,1,4.42,4.42,0,0,0,2-.58.86.86,0,0,0,.37-1.16.85.85,0,0,0-1.16-.38,2.77,2.77,0,0,1-1.19.4,2.38,2.38,0,0,1-1.85-.59c-.13-.1-.27-.22-.43-.33a3.95,3.95,0,0,0-4.92,0A4.36,4.36,0,0,1,35.7,31,5,5,0,0,1,32.76,30a4.29,4.29,0,0,0-2.37-.86h0A3.83,3.83,0,0,0,27.9,30a4.36,4.36,0,0,1-2.85.94A4.41,4.41,0,0,1,22.21,30a3.93,3.93,0,0,0-4.91,0,4.42,4.42,0,0,1-2.85.94A4.41,4.41,0,0,1,11.61,30a3.86,3.86,0,0,0-2.46-.86A3.43,3.43,0,0,0,7,30l-.22.16-.14.09A2.94,2.94,0,0,1,4.72,31a6,6,0,0,1-1.21-.37.86.86,0,1,0-.76,1.54Z"/><path class="cls-1" d="M2.75,26.42A7.27,7.27,0,0,0,4.61,27a4.53,4.53,0,0,0,3-1l.14-.09L8,25.68a1.76,1.76,0,0,1,1.2-.49,2.21,2.21,0,0,1,1.49.57A6.1,6.1,0,0,0,14.45,27a6.11,6.11,0,0,0,3.82-1.23,2.19,2.19,0,0,1,1.48-.57,2.21,2.21,0,0,1,1.49.57A6.1,6.1,0,0,0,25.05,27a6.11,6.11,0,0,0,3.82-1.23,2.19,2.19,0,0,1,1.48-.57h0a2.76,2.76,0,0,1,1.46.6A6.62,6.62,0,0,0,35.7,27a6.1,6.1,0,0,0,3.81-1.23,2.23,2.23,0,0,1,3,0,3.59,3.59,0,0,1,.33.25,4,4,0,0,0,2.92,1,4.3,4.3,0,0,0,2-.59.86.86,0,1,0-.79-1.53,2.77,2.77,0,0,1-1.19.4,2.34,2.34,0,0,1-1.85-.6l-.43-.32a3.95,3.95,0,0,0-4.92,0,4.41,4.41,0,0,1-2.84.94,4.93,4.93,0,0,1-2.94-.95,4.28,4.28,0,0,0-2.37-.85h0a3.83,3.83,0,0,0-2.45.86,4.78,4.78,0,0,1-5.69,0,3.93,3.93,0,0,0-4.91,0,4.42,4.42,0,0,1-2.85.94,4.41,4.41,0,0,1-2.84-.94,3.86,3.86,0,0,0-2.46-.86A3.38,3.38,0,0,0,7,24.26l-.22.15-.14.1a2.94,2.94,0,0,1-1.89.74,6.77,6.77,0,0,1-1.21-.38.88.88,0,0,0-1.15.39A.87.87,0,0,0,2.75,26.42Z"/><path class="cls-1" d="M2.75,20.72a7.27,7.27,0,0,0,1.86.55,4.53,4.53,0,0,0,3-1l.14-.09L8,20a1.8,1.8,0,0,1,1.2-.48,2.2,2.2,0,0,1,1.49.56,6.1,6.1,0,0,0,3.81,1.24,6.11,6.11,0,0,0,3.82-1.24,2.17,2.17,0,0,1,1.48-.56,2.2,2.2,0,0,1,1.49.56,6.1,6.1,0,0,0,3.81,1.24,6.11,6.11,0,0,0,3.82-1.24,2.17,2.17,0,0,1,1.48-.56h0a2.74,2.74,0,0,1,1.46.59,6.54,6.54,0,0,0,3.85,1.21,6,6,0,0,0,3.81-1.24,2.26,2.26,0,0,1,3,0l.33.25a4,4,0,0,0,2.92,1,4.43,4.43,0,0,0,2-.59.87.87,0,0,0-.79-1.54,2.64,2.64,0,0,1-1.19.4A2.34,2.34,0,0,1,43.89,19l-.43-.32A3.81,3.81,0,0,0,41,17.76a3.89,3.89,0,0,0-2.46.87,4.41,4.41,0,0,1-2.84.94,5,5,0,0,1-2.94-.95,4.29,4.29,0,0,0-2.37-.86h0a3.78,3.78,0,0,0-2.45.87,4.78,4.78,0,0,1-5.69,0,3.9,3.9,0,0,0-4.91,0,4.42,4.42,0,0,1-2.85.94,4.41,4.41,0,0,1-2.84-.94,3.81,3.81,0,0,0-2.46-.87,3.38,3.38,0,0,0-2.18.8l-.22.15-.14.09a3,3,0,0,1-1.89.75,6.77,6.77,0,0,1-1.21-.38.86.86,0,0,0-.76,1.55Z"/><path class="cls-1" d="M2.75,15a7.27,7.27,0,0,0,1.86.55,4.43,4.43,0,0,0,3-1l.14-.09L8,14.27a1.81,1.81,0,0,1,1.2-.49,2.21,2.21,0,0,1,1.49.57,6.1,6.1,0,0,0,3.81,1.24,6.11,6.11,0,0,0,3.82-1.24,2.19,2.19,0,0,1,1.48-.57,2.21,2.21,0,0,1,1.49.57,6.1,6.1,0,0,0,3.81,1.24,6.11,6.11,0,0,0,3.82-1.24,2.19,2.19,0,0,1,1.48-.57h0a2.76,2.76,0,0,1,1.46.6,6.54,6.54,0,0,0,3.85,1.21,6.1,6.1,0,0,0,3.81-1.24,2.23,2.23,0,0,1,3,0,3.59,3.59,0,0,1,.33.25,4,4,0,0,0,2.92,1,4.3,4.3,0,0,0,2-.59.86.86,0,1,0-.79-1.53,2.77,2.77,0,0,1-1.19.4,2.34,2.34,0,0,1-1.85-.6l-.43-.32a3.95,3.95,0,0,0-4.92,0,4.41,4.41,0,0,1-2.84.94,4.93,4.93,0,0,1-2.94-.95,4.28,4.28,0,0,0-2.37-.85h0a3.83,3.83,0,0,0-2.45.86,4.78,4.78,0,0,1-5.69,0,3.93,3.93,0,0,0-4.91,0,4.42,4.42,0,0,1-2.85.94,4.41,4.41,0,0,1-2.84-.94,3.86,3.86,0,0,0-2.46-.86A3.43,3.43,0,0,0,7,12.85L6.75,13l-.14.09a2.94,2.94,0,0,1-1.89.74,6,6,0,0,1-1.21-.37A.86.86,0,1,0,2.75,15Z"/></svg>