<svg id="Layer_1" data-name="Layer 1" xmlns="http://www.w3.org/2000/svg" viewBox="0 0 50.46 50.46"><defs><style>.cls-1{fill:#65b4e1;}</style></defs><title>paisaje urbano 2</title><circle class="cls-1" cx="25.21" cy="16.08" r="1.07" transform="translate(-3.98 22.54) rotate(-45)"/><path class="cls-1" d="M15.39,18H15c-.29,0-.53.16-.53.37v1.1c0,.2.24.36.53.36h.35c.29,0,.53-.16.53-.36v-1.1C15.92,18.17,15.68,18,15.39,18Z"/><path class="cls-1" d="M12.94,21h-.35c-.29,0-.53.16-.53.36v1.1c0,.2.24.37.53.37h.35c.29,0,.53-.16.53-.37v-1.1C13.47,21.14,13.23,21,12.94,21Z"/><path class="cls-1" d="M44.56,40.28H41.33V28.2a2.55,2.55,0,0,0-2.55-2.55H33.21v-6.2a.84.84,0,0,0-.84-.84H29.17V14a.84.84,0,0,0-.14-.46L25.91,8.88a.84.84,0,0,0-.69-.37.81.81,0,0,0-.7.36l-3.2,4.64a.84.84,0,0,0-.15.47v4.63H18.89V17.55a2.5,2.5,0,0,0-2.49-2.49H11.58a2.5,2.5,0,0,0-2.49,2.49V29.18s0,1.17,0,2.6v2.27h0v6.22H5.9A.84.84,0,1,0,5.9,42H44.56a.84.84,0,1,0,0-1.68Zm-4.91,0H10.77v-8.5h0V17.55a.82.82,0,0,1,.82-.82h4.81a.82.82,0,0,1,.82.82V28.29a.84.84,0,0,0,1.68,0v-8H22a.84.84,0,0,0,.84-.84V14.24l2.35-3.4,2.3,3.46v5.15a.84.84,0,0,0,.84.84h3.21V35a.84.84,0,0,0,1.68,0V27.32h5.57a.87.87,0,0,1,.87.87Z"/><path class="cls-1" d="M35.36,28.6H35c-.29,0-.53.16-.53.37v1.1c0,.2.24.37.53.37h.35c.29,0,.53-.16.53-.37V29C35.89,28.76,35.65,28.6,35.36,28.6Z"/><path class="cls-1" d="M37.81,28.6h-.35c-.29,0-.53.16-.53.37v1.1c0,.2.24.37.53.37h.35c.29,0,.53-.16.53-.37V29C38.33,28.76,38.1,28.6,37.81,28.6Z"/><path class="cls-1" d="M37.78,31.54h-.35c-.29,0-.53.16-.53.36V33c0,.2.24.36.53.36h.35c.29,0,.53-.16.53-.36v-1.1C38.31,31.71,38.07,31.54,37.78,31.54Z"/></svg>