<svg id="Layer_1" data-name="Layer 1" xmlns="http://www.w3.org/2000/svg" viewBox="0 0 50.46 50.46"><defs><style>.cls-1{fill:#65b4e1;}</style></defs><title>paisaje urbano 3</title><path class="cls-1" d="M17.77,13.57h-.38c-.31,0-.57.18-.57.39v1.19c0,.22.26.39.57.39h.38c.31,0,.57-.18.57-.39V14C18.34,13.74,18.09,13.57,17.77,13.57Z"/><path class="cls-1" d="M20.41,13.57H20c-.31,0-.57.18-.57.39v1.19c0,.22.26.39.57.39h.38c.31,0,.57-.18.57-.39V14C21,13.74,20.72,13.57,20.41,13.57Z"/><path class="cls-1" d="M17.77,16.77h-.38c-.31,0-.57.18-.57.39v1.19c0,.22.26.39.57.39h.38c.31,0,.57-.18.57-.39V17.16C18.34,16.94,18.09,16.77,17.77,16.77Z"/><path class="cls-1" d="M20.38,16.74H20c-.31,0-.57.18-.57.39v1.19c0,.22.26.39.57.39h.38c.31,0,.57-.18.57-.39V17.14C21,16.92,20.69,16.74,20.38,16.74Z"/><path class="cls-1" d="M48.47,38.26H42.32V33.69A4,4,0,0,0,45,31.63a4,4,0,0,0,2.54-6.89,4,4,0,0,0,.06-.68,4,4,0,0,0-6-3.44,4,4,0,0,0-6,4.12,4,4,0,0,0,2.29,6.87,4,4,0,0,0,2.55,2v4.61H33.07V16.91a2.75,2.75,0,0,0-2.75-2.74h-6l-.16.06V13.08a2.69,2.69,0,0,0-2.68-2.68H16.31a2.69,2.69,0,0,0-2.68,2.68v8H8.09a2.81,2.81,0,0,0-2.8,2.8V38.26h-2a.9.9,0,1,0,0,1.8h45.2a.9.9,0,1,0,0-1.8Zm-9.19-7.75a.85.85,0,0,0-.79-.58h0l-.08,0a2.32,2.32,0,0,1-1.33-4.22.83.83,0,0,0,.31-.94,2.33,2.33,0,0,1,3.7-2.51.83.83,0,0,0,1.07,0,2.33,2.33,0,0,1,3.7,2.51.83.83,0,0,0,.31.94A2.33,2.33,0,0,1,44.82,30h-.25a.83.83,0,0,0-.88.56A2.32,2.32,0,0,1,42.32,32V30.76a.6.6,0,0,0-.6-.6h-.64a.6.6,0,0,0-.6.6v1.11A2.34,2.34,0,0,1,39.28,30.51Zm-8,7.75H7.09V23.87a1,1,0,0,1,1-1h5.54v7.7a.9.9,0,0,0,1.8,0V13.08a.88.88,0,0,1,.88-.88h5.18a.88.88,0,0,1,.88.88V24.64a.9.9,0,0,0,1.8,0V16l.16-.06h6a.94.94,0,0,1,.94.94Z"/><path class="cls-1" d="M26.64,17.34h-.38c-.31,0-.57.18-.57.39v1.19c0,.22.26.39.57.39h.38a.61.61,0,0,0,.52-.24.29.29,0,0,0,0-.15V17.73a.29.29,0,0,0,0-.15A.61.61,0,0,0,26.64,17.34Z"/><path class="cls-1" d="M29.28,17.34h-.38c-.31,0-.57.18-.57.39v1.19c0,.22.26.39.57.39h.38c.31,0,.57-.18.57-.39V17.73C29.84,17.51,29.59,17.34,29.28,17.34Z"/><path class="cls-1" d="M27.1,20.7a.65.65,0,0,0-.48-.19h-.38c-.31,0-.57.18-.57.39v1.19a.32.32,0,0,0,.11.23.65.65,0,0,0,.48.19h.38c.31,0,.57-.18.57-.39V20.93A.32.32,0,0,0,27.1,20.7Z"/><path class="cls-1" d="M29.25,20.51h-.38c-.31,0-.57.18-.57.39v1.19c0,.22.26.39.57.39h.38c.31,0,.57-.18.57-.39V20.91C29.82,20.69,29.56,20.51,29.25,20.51Z"/><path class="cls-1" d="M9.23,24.2H8.85c-.31,0-.57.18-.57.39v1.19c0,.22.26.39.57.39h.38c.31,0,.57-.18.57-.39V24.59C9.8,24.38,9.55,24.2,9.23,24.2Z"/><path class="cls-1" d="M11.87,24.2h-.38c-.31,0-.57.18-.57.39v1.19c0,.22.26.39.57.39h.38c.31,0,.57-.18.57-.39V24.59C12.44,24.38,12.18,24.2,11.87,24.2Z"/><path class="cls-1" d="M9.23,27.4H8.85c-.31,0-.57.18-.57.39V29c0,.22.26.39.57.39h.38c.31,0,.57-.18.57-.39V27.79C9.8,27.58,9.55,27.4,9.23,27.4Z"/><path class="cls-1" d="M11.84,27.37h-.38c-.31,0-.57.18-.57.39V29c0,.22.26.39.57.39h.38c.31,0,.57-.18.57-.39V27.77C12.41,27.55,12.15,27.37,11.84,27.37Z"/></svg>