<svg id="Layer_1" data-name="Layer 1" xmlns="http://www.w3.org/2000/svg" viewBox="0 0 50.46 50.46"><defs><style>.cls-1{fill:#65b4e1;}</style></defs><title>paloma</title><path class="cls-1" d="M41.89,7.48a7.37,7.37,0,0,0-5-1.82C34,5.72,31.19,7.57,30,11.28a15.29,15.29,0,0,1-1.42,3.49l-.11-.12,0,0c-1.64-1.53-4.23-2.27-7.7-2.19h-.18c-2.66.06-4.5-.59-5.65-1.78a4.79,4.79,0,0,1-1.22-3.59c0-.52.24-2,.24-2a13.74,13.74,0,0,0-1.44,1.35c-.09.09-8.71,9.21-2.56,19.32a10.44,10.44,0,0,0,2.86,3.13,5,5,0,0,0,.45.3,6.2,6.2,0,0,1-1.12.92,4.11,4.11,0,0,1-2.16.68c-2.84.07-5.36-2.69-5.36-2.69s-2.64,5.61.18,11,7,6.23,7,6.23S9.53,39.74,15,37a9.23,9.23,0,0,1,4-.87c1.71,0,3.53.16,5.46.12A14.15,14.15,0,0,0,31,34.66c3.73-2,4.82-5.25,5.5-9,.45-2.5.21-6,1.93-6.94,3.37-1.83,4.38-3.57,5.1-5.11.62-1.32,3.41-3.05,3.41-3.05S45,10.17,41.89,7.48Zm0,5.36c-.65,1.38-1.47,2.74-4.33,4.29-2.11,1.15-2.38,3.85-2.61,6.24-.07.71-.13,1.38-.24,2-.67,3.72-1.63,6.17-4.56,7.72a12.27,12.27,0,0,1-5.71,1.38c-.93,0-1.86,0-2.76-.06s-1.8-.08-2.69-.06a11.17,11.17,0,0,0-4.79,1.06,7.87,7.87,0,0,0-4.67,6.77,11.87,11.87,0,0,1-3.1-3.87,10.74,10.74,0,0,1-.84-7.06A8.08,8.08,0,0,0,10,32.62a5.91,5.91,0,0,0,3.1-1A7.65,7.65,0,0,0,15,30a12.37,12.37,0,0,0,4.77.79,19.44,19.44,0,0,0,6.68-1.44.82.82,0,1,0-.67-1.49c-.1,0-9.92,4.38-14.38-3C7.26,18.18,10.44,12,12.43,9.19a5.85,5.85,0,0,0,1.29,2.6c1.43,1.63,3.76,2.42,6.94,2.35h.08c3-.09,5.37.53,6.68,1.77a3.48,3.48,0,0,1,1.15,2.26.82.82,0,0,0,.82.81.84.84,0,0,0,.82-.82,4.81,4.81,0,0,0-.49-1.81,13.76,13.76,0,0,0,2.06-4.54c.83-2.67,2.76-4.29,5.18-4.35a5.57,5.57,0,0,1,3.76,1.38,22.47,22.47,0,0,0,2.75,2A6.7,6.7,0,0,0,41.89,12.83Z"/><path class="cls-1" d="M36.91,9.68a.58.58,0,0,0-.27.77c.46,1,.45,1.42.35,1.64,0,.06-.1.23-.48.35a.54.54,0,0,1-.48,0,2.67,2.67,0,0,1-.8-1.52.58.58,0,0,0-1.14.21,3.71,3.71,0,0,0,1.35,2.3,1.64,1.64,0,0,0,.88.23,1.89,1.89,0,0,0,.54-.1,1.81,1.81,0,0,0,1.18-1A3.17,3.17,0,0,0,37.68,10,.58.58,0,0,0,36.91,9.68Z"/></svg>