<svg id="Layer_1" data-name="Layer 1" xmlns="http://www.w3.org/2000/svg" viewBox="0 0 50.46 50.46"><defs><style>.cls-1{fill:#12b5e1;}</style></defs><title>participacion ciudadana</title><path class="cls-1" d="M30.19,34.66a12.18,12.18,0,0,0,6.87-3.49c2.28-2.54,2.13-5.56,2-8,0-.49-.33-7.79-.34-8a2.68,2.68,0,1,0-5.36.28c.07,1.43.31,7.44.34,8,.1,2.13.12,3.28-.65,4.14-.21.24-1.4,1.42-4.4,1.91a33.06,33.06,0,0,1-5.12.33,11.32,11.32,0,0,0-8.35,3.63,17.86,17.86,0,0,0-3.85,9.43h5.44c.1-.53.46-2.19.6-2.7l0,2.7H30.2Z"/><circle class="cls-1" cx="23.72" cy="22.32" r="6.53"/></svg>