<svg id="Layer_1" data-name="Layer 1" xmlns="http://www.w3.org/2000/svg" viewBox="0 0 50.46 50.46"><defs><style>.cls-1{fill:#12b5e1;}</style></defs><title>pastizales</title><path class="cls-1" d="M47.59,23.11l-2.4,1.78-2.35-1.78a.78.78,0,0,0-1,0l-2,1.51.44-1.93a.81.81,0,0,0-.28-.81.82.82,0,0,0-.77-.13l1-4.5a.81.81,0,0,0-.28-.81.79.79,0,0,0-.77-.12l1-4.45a.79.79,0,0,0-.38-.9.89.89,0,0,0-1,.13L37.44,1.63a.8.8,0,0,0-1.59,0L34.41,11.1a.9.9,0,0,0-1-.13.8.8,0,0,0-.37.9c0,.12.6,2.54,1,4.45a.78.78,0,0,0-.76.12.81.81,0,0,0-.28.81l1,4.5a.82.82,0,0,0-.77.13.81.81,0,0,0-.28.81l.45,1.95-2-1.53a.78.78,0,0,0-1,0l-2,1.48.44-1.9a.81.81,0,0,0-.28-.81.82.82,0,0,0-.77-.13l1-4.5a.81.81,0,0,0-.28-.81.79.79,0,0,0-.77-.12c.45-1.91,1-4.34,1-4.45a.79.79,0,0,0-.38-.9.89.89,0,0,0-1,.13L26.05,1.63a.8.8,0,0,0-1.59,0L23,11.1A.9.9,0,0,0,22,11a.8.8,0,0,0-.37.9c0,.11.6,2.54,1,4.45a.78.78,0,0,0-.76.12.81.81,0,0,0-.28.81l1.05,4.5a.82.82,0,0,0-.77.13.81.81,0,0,0-.28.81l.45,2L20,23.11a.78.78,0,0,0-1,0l-2,1.46.43-1.88a.81.81,0,0,0-.28-.81.82.82,0,0,0-.77-.13l1.05-4.5a.81.81,0,0,0-.28-.81.79.79,0,0,0-.77-.12l1.05-4.45a.79.79,0,0,0-.38-.9.88.88,0,0,0-1,.13L14.66,1.63a.8.8,0,0,0-1.59,0L11.63,11.1a.9.9,0,0,0-1-.13.8.8,0,0,0-.37.9c0,.12.6,2.54,1,4.45a.78.78,0,0,0-.76.12.81.81,0,0,0-.28.81l1,4.5a.82.82,0,0,0-.77.13.81.81,0,0,0-.28.81l.46,2L8.59,23.11a.8.8,0,0,0-1,0L5.23,24.89,2.88,23.11a.8.8,0,1,0-1,1.28l2.83,2.14a.77.77,0,0,0,.48.16.83.83,0,0,0,.48-.15l2.4-1.79,2.35,1.78a.8.8,0,0,0,.68.14l.12.52a.78.78,0,0,0-.76.14.8.8,0,0,0-.26.85l2.83,9.35V48.71a.81.81,0,0,0,1.61,0V37.53l2.83-9.35a.79.79,0,0,0-.27-.85.76.76,0,0,0-.75-.14l.11-.5h.05a.83.83,0,0,0,.48-.15l2.4-1.79,2.35,1.78a.81.81,0,0,0,.65.15l.12.51a.78.78,0,0,0-.76.14.8.8,0,0,0-.26.85l2.83,9.35V48.71a.81.81,0,0,0,1.61,0V37.53l2.83-9.35a.79.79,0,0,0-.27-.85.76.76,0,0,0-.75-.14l.11-.5h.08a.83.83,0,0,0,.48-.15l2.4-1.79,2.35,1.78a.78.78,0,0,0,.62.15l.12.51a.79.79,0,0,0-.76.14.8.8,0,0,0-.26.85l2.83,9.35V48.71a.81.81,0,0,0,1.61,0V37.53l2.83-9.35a.79.79,0,0,0-.27-.85.76.76,0,0,0-.75-.14l.11-.5h.11a.83.83,0,0,0,.48-.15l2.39-1.79,2.35,1.78a.81.81,0,0,0,1,0l2.88-2.15a.81.81,0,0,0,.16-1.12A.79.79,0,0,0,47.59,23.11ZM14.81,29.38a.81.81,0,0,0,.6.15l-1.55,5.12-1.55-5.12a.8.8,0,0,0,.6-.15.79.79,0,0,0,.3-.82l-.78-3.39h0L12.16,24A.8.8,0,0,0,13.21,23l-1.05-4.5a.79.79,0,0,0,.77-.12.82.82,0,0,0,.28-.82c-.08-.36-.58-2.48-1-4.12a.93.93,0,0,0,.22,0,.81.81,0,0,0,.53-.64l.86-5.7.87,5.7a.81.81,0,0,0,.53.64.85.85,0,0,0,.22,0c-.38,1.64-.88,3.76-1,4.12a.78.78,0,0,0,.28.82.79.79,0,0,0,.77.12L14.52,23a.76.76,0,0,0,.28.81.8.8,0,0,0,.77.13l-1.06,4.59A.81.81,0,0,0,14.81,29.38Zm11.39,0a.81.81,0,0,0,.6.15l-1.55,5.12-1.54-5.12a.8.8,0,0,0,.89-1l-.77-3.37h0L23.55,24A.8.8,0,0,0,24.6,23l-1.05-4.5a.79.79,0,0,0,.77-.12.82.82,0,0,0,.28-.82c-.08-.36-.58-2.48-1-4.12a.93.93,0,0,0,.22,0,.81.81,0,0,0,.53-.64l.86-5.7.87,5.7a.81.81,0,0,0,.53.64.85.85,0,0,0,.22,0c-.38,1.64-.88,3.76-1,4.12a.8.8,0,0,0,.28.82.79.79,0,0,0,.77.12L25.91,23A.8.8,0,0,0,27,24l-.29,1.26h0l-.76,3.33A.78.78,0,0,0,26.2,29.38Zm11.39,0a.81.81,0,0,0,.6.15l-1.55,5.12L35.1,29.53a.8.8,0,0,0,.89-1l-.77-3.36h0L34.94,24A.8.8,0,0,0,36,23l-1.05-4.5a.79.79,0,0,0,.77-.12.82.82,0,0,0,.28-.82c-.08-.36-.58-2.48-1-4.12a.93.93,0,0,0,.22,0,.81.81,0,0,0,.53-.64l.86-5.7.87,5.7a.81.81,0,0,0,.53.64.85.85,0,0,0,.22,0c-.38,1.64-.88,3.76-1,4.12a.82.82,0,0,0,.28.82.79.79,0,0,0,.77.12L37.3,23a.8.8,0,0,0,1.05.94l-.28,1.24h0l-.77,3.35A.78.78,0,0,0,37.59,29.38Z"/></svg>