<svg id="Layer_1" data-name="Layer 1" xmlns="http://www.w3.org/2000/svg" viewBox="0 0 50.46 50.46"><defs><style>.cls-1{fill:#12b5e1;}</style></defs><title>profesional nuclear</title><path class="cls-1" d="M30.07,27.61a1.07,1.07,0,0,0-1,0,7.14,7.14,0,0,1-.74.44l0,0h0a8.16,8.16,0,0,1-3.57.94,7.8,7.8,0,0,1-3.58-.93l-.06,0c-.29-.16-.54-.31-.65-.39a1.07,1.07,0,0,0-.6-.19.8.8,0,0,0-.36.08l-.07,0c-6.2,3.07-8.79,11.3-8.26,12.87a1.12,1.12,0,0,0,.32.46A23.73,23.73,0,0,0,24.76,45.2c3.74,0,9.7-1.58,13.22-4.23a1,1,0,0,0,.33-.45C38.85,38.94,36.27,30.68,30.07,27.61ZM22.48,43.35a22.08,22.08,0,0,1-9.6-3.5l-.06-.05v-.07a16.65,16.65,0,0,1,4.37-8.4l.43-.42L16.43,34a.64.64,0,0,0,.32.81l2,.92-1.27,2.55a.63.63,0,0,0,.17.77L22.9,43.4Zm-3.63-5,1.34-2.69a.64.64,0,0,0,0-.49.67.67,0,0,0-.33-.37l-2.06-.94,1.74-4.48.71.44v0L23.5,42.25ZM24.75,42,21.67,30.18l.22.08a9.29,9.29,0,0,0,2.87.48,9,9,0,0,0,2.85-.5l.22-.08Zm4.49-12.25.69-.39,1.75,4.49-2.06.94a.65.65,0,0,0-.34.37.69.69,0,0,0,0,.49l1.34,2.69-.07.06L26,42.25Zm7.38,10.06a23.62,23.62,0,0,1-9.55,3.46l-.44.06L31.85,39a.64.64,0,0,0,.16-.77l-1.27-2.55,2-.92a.64.64,0,0,0,.32-.81l-1.2-3.09.42.42a16.44,16.44,0,0,1,4.38,8.43v.07Z"/><path class="cls-1" d="M17.2,22.11h.05l0,.05c1.89,3.19,4.68,5.09,7.47,5.09s5.58-1.9,7.47-5.09l0-.05h0a2.88,2.88,0,0,0,2.55-2.59V16.19A2,2,0,0,0,34,14.6l0,0v-.06a9.32,9.32,0,0,0-18.47,0v.05l0,0a2,2,0,0,0-.81,1.59v3.33A2.89,2.89,0,0,0,17.2,22.11ZM30,22.4c-1.54,2-3.4,3.16-5.25,3.16S21,24.44,19.49,22.4l-.15-.2h1.24a3.59,3.59,0,0,0,2.88-1.27l.72-.94a.71.71,0,0,1,.57-.27h0a.71.71,0,0,1,.57.27l.72.94a3.59,3.59,0,0,0,2.88,1.27h1.24ZM25.66,8.23l.15,0a7.68,7.68,0,0,1,6.37,5.81l0,.15H28.36l0-.05-2.67-3.63ZM25,11.77l1.79,2.44H23.16Zm-7.68,2.29a7.67,7.67,0,0,1,6.94-5.87h.14v2.3l-2.83,3.73H17.28Zm-1.4,2.13a.71.71,0,0,1,.71-.71H32.87a.71.71,0,0,1,.71.71v3.33c0,.77-1,1.42-2.12,1.42H28.92A2.44,2.44,0,0,1,27,20.16l-.71-.93a2,2,0,0,0-3.16,0l-.71.93a2.42,2.42,0,0,1-1.88.78H18c-1.15,0-2.12-.65-2.12-1.42Z"/></svg>