<svg id="Layer_1" data-name="Layer 1" xmlns="http://www.w3.org/2000/svg" viewBox="0 0 50.46 50.46"><defs><style>.cls-1{fill:#12b5e1;}</style></defs><title>registro donantes medula osea</title><path class="cls-1" d="M4.27,14.63a1.16,1.16,0,0,0-.37.18h0a1.08,1.08,0,0,0-.41.67,1.12,1.12,0,0,0,0,.41h0a1,1,0,0,0,.17.37,1.29,1.29,0,0,0,.3.27,1.24,1.24,0,0,0,.38.14h0a1.12,1.12,0,0,0,.41,0h0a1.11,1.11,0,0,0,.36-.18,1,1,0,0,0,.28-.3,1.16,1.16,0,0,0,.13-.37.94.94,0,0,0,0-.41A1,1,0,0,0,5.35,15a1.12,1.12,0,0,0-.3-.27,1,1,0,0,0-.38-.14h0a1.07,1.07,0,0,0-.4,0Z"/><path class="cls-1" d="M7.57,17.1a1.37,1.37,0,0,0-.53.25,1.53,1.53,0,0,0-.4.44,1.45,1.45,0,0,0-.2.55,1.4,1.4,0,0,0,0,.58,1.48,1.48,0,0,0,.25.54,1.51,1.51,0,0,0,.44.39,1.45,1.45,0,0,0,.55.2,1.4,1.4,0,0,0,.58,0h0a1.34,1.34,0,0,0,.54-.25h0a1.47,1.47,0,0,0,.39-.43,1.45,1.45,0,0,0,.2-.55h0a1.4,1.4,0,0,0,0-.58,1.24,1.24,0,0,0-.25-.53,1.37,1.37,0,0,0-.43-.4h0a1.45,1.45,0,0,0-.55-.2h0a1.44,1.44,0,0,0-.59,0"/><path class="cls-1" d="M27.41,28.51a1.34,1.34,0,0,0-.35-1.5c-.82-.75-2.66-1-5-1.1S17,26,14.26,26.2a13.85,13.85,0,0,1-2.65-.13h0a5.58,5.58,0,0,1-2-.63A21.84,21.84,0,0,1,6,23.06a5.21,5.21,0,0,1,.09.93,3.62,3.62,0,0,1-.3,1.4,5.73,5.73,0,0,1-.85,1.33q-.39.47-.87,1h.27l1.59-.07h0a61.62,61.62,0,0,1,8.26,0,32.28,32.28,0,0,1,3.45.56,16.71,16.71,0,0,1,2.78.84,9.94,9.94,0,0,1,1,.5,4.4,4.4,0,0,1,.77.57,2.16,2.16,0,0,1,.53.71,1.52,1.52,0,0,1,.13.79,2.23,2.23,0,0,1,0,.23h0a2.09,2.09,0,0,1-.08.23,4.08,4.08,0,0,1-1,1.31,17.45,17.45,0,0,1-1.4,1.21,9.8,9.8,0,0,0-2.66,2.76,3.88,3.88,0,0,0,.34,4h0l.1.16h0l.13.17h0a5.07,5.07,0,0,0,1.59,1.2,10.06,10.06,0,0,0,2.41.82h0a9.21,9.21,0,0,0,2.54.17,5,5,0,0,0,.56-.07h0a6.71,6.71,0,0,1-1.13-.26A6.36,6.36,0,0,1,23.05,43a4.45,4.45,0,0,1-1.86-2h0a4.41,4.41,0,0,1-.38-1.48,6.4,6.4,0,0,1,.05-1.29,8.25,8.25,0,0,1,.33-1.4,7.52,7.52,0,0,1,1.32-2.41,18.57,18.57,0,0,1,1.74-1.8c.23-.21.46-.42.67-.63s.43-.43.64-.66a7.93,7.93,0,0,0,1.85-2.81"/><path class="cls-1" d="M20.54,10.42a.77.77,0,0,0,.12-.31h0a1,1,0,0,0,0-.34h0a.89.89,0,0,0-.15-.31h0a.79.79,0,0,0-.25-.23h0a.84.84,0,0,0-.31-.12h0a1,1,0,0,0-.34,0,.89.89,0,0,0-.31.15h0a.79.79,0,0,0-.23.25h0a.68.68,0,0,0-.11.31h0a1,1,0,0,0,0,.34h0a.89.89,0,0,0,.15.31h0a.92.92,0,0,0,.25.23h0a.88.88,0,0,0,.32.12,1,1,0,0,0,.34,0h0a.89.89,0,0,0,.31-.15.79.79,0,0,0,.23-.25Z"/><path class="cls-1" d="M14.6,21.65a2.34,2.34,0,0,0-.37-.8A2.33,2.33,0,0,0,12.77,20h0a2.29,2.29,0,0,0-.87,0h0a2.21,2.21,0,0,0-.79.37,2.29,2.29,0,0,0-.89,1.46h0a2.29,2.29,0,0,0,0,.87h0a2.36,2.36,0,0,0,.38.8,2.41,2.41,0,0,0,.64.59,2.36,2.36,0,0,0,.82.29h0a2.36,2.36,0,0,0,.88,0h0a2.38,2.38,0,0,0,.79-.37,2.62,2.62,0,0,0,.59-.65,2.29,2.29,0,0,0,.29-.82,2.11,2.11,0,0,0,0-.87Z"/><path class="cls-1" d="M22.62,17.07a2.34,2.34,0,0,0-.8.37,2.14,2.14,0,0,0-.58.65h0a2.19,2.19,0,0,0-.3.81h0a2.3,2.3,0,0,0,0,.87h0a2.21,2.21,0,0,0,.37.79,2.28,2.28,0,0,0,.65.59h0a2.26,2.26,0,0,0,.81.3h0a2.51,2.51,0,0,0,.87,0h0a2.4,2.4,0,0,0,.79-.38,2.22,2.22,0,0,0,.58-.64h0a2.26,2.26,0,0,0,.3-.81h0a2.3,2.3,0,0,0,0-.87h0a2.29,2.29,0,0,0-.37-.79,2.62,2.62,0,0,0-.65-.59h0A2.24,2.24,0,0,0,23.5,17h0a2.11,2.11,0,0,0-.87,0Z"/><path class="cls-1" d="M20.86,23.22a16.06,16.06,0,0,1-4.09-2.75,4.93,4.93,0,0,1,.15.91,5.69,5.69,0,0,1-.17,1.81,5.06,5.06,0,0,1-.68,1.49,4.13,4.13,0,0,1-.49.6c2.43-.15,4.89-.28,7-.21,2.36.08,4.28.43,5.23,1.29a2,2,0,0,1,.59,2.18,8.46,8.46,0,0,1-2.05,3.2q-.32.36-.66.69l-.69.65a16.56,16.56,0,0,0-1.65,1.7A6.54,6.54,0,0,0,22.14,37,6.09,6.09,0,0,0,21.87,38a5.12,5.12,0,0,0-.09,1A3.85,3.85,0,0,0,22,40.4a3.39,3.39,0,0,0,.7,1.11,3.93,3.93,0,0,0,.88.7h0a5.69,5.69,0,0,0,1.13.51,5.41,5.41,0,0,0,.89.21,4.49,4.49,0,0,0,.82.08h.39l.76-.07h0c.53-.06,1-.15,1.49-.24h0a7.74,7.74,0,0,1-2-.86,6.14,6.14,0,0,1-1.55-1.33,5.13,5.13,0,0,1-.92-1.72h0a4.85,4.85,0,0,1-.16-1.9,5.8,5.8,0,0,1,.63-1.94A9.53,9.53,0,0,1,26.49,33a11.83,11.83,0,0,1,1.94-1.73A10.87,10.87,0,0,1,30.61,30a10.22,10.22,0,0,0,2.9-1.67,3.18,3.18,0,0,0,1.16-1.83,2.21,2.21,0,0,0-.06-1,3.08,3.08,0,0,0-.48-1,4.82,4.82,0,0,0-.82-.88,8.31,8.31,0,0,0-1.12-.79,8.56,8.56,0,0,0-3.37-1.06,3.82,3.82,0,0,0-2.57.59,5.11,5.11,0,0,1-5.39.78"/><path class="cls-1" d="M22.71,13.56a1.57,1.57,0,0,0-.25-.52,1.51,1.51,0,0,0-1-.58h0a1.37,1.37,0,0,0-.57,0,1.59,1.59,0,0,0-.51.24h0a1.55,1.55,0,0,0-.39.42,1.6,1.6,0,0,0-.19.53h0a1.36,1.36,0,0,0,0,.57,1.45,1.45,0,0,0,.24.52,1.53,1.53,0,0,0,.42.38,1.4,1.4,0,0,0,.53.19h0a1.81,1.81,0,0,0,.57,0h0a1.52,1.52,0,0,0,.9-.66,1.6,1.6,0,0,0,.19-.53h0a1.55,1.55,0,0,0,0-.57"/><path class="cls-1" d="M30.43,18.43c-.85-.51-1.73-1-2.64-1.53a3.81,3.81,0,0,1,.24.64A4.61,4.61,0,0,1,28,20.39a4,4,0,0,1-.32.7,6.71,6.71,0,0,1,2.44.05h0a9.33,9.33,0,0,1,3.29,1.36,6.79,6.79,0,0,1,1,.84,5.06,5.06,0,0,1,.76.94,3.6,3.6,0,0,1,.48,1.13,2.91,2.91,0,0,1,0,1.14,3.88,3.88,0,0,1-1.37,2.25,10.94,10.94,0,0,1-3.15,1.83,10.55,10.55,0,0,0-2,1.14,11.72,11.72,0,0,0-1.82,1.63,8.53,8.53,0,0,0-1.25,1.77,4.9,4.9,0,0,0-.56,1.68,4.15,4.15,0,0,0,.14,1.61,4.26,4.26,0,0,0,.78,1.45,5.05,5.05,0,0,0,1.36,1.17,7.33,7.33,0,0,0,1.84.78h0a2.61,2.61,0,0,0,.42.08l.5,0,.58,0,.44-.06h0l.19,0h0l.09,0a4,4,0,0,0,1.74-1.07,5.81,5.81,0,0,0,1.25-2,11,11,0,0,0,.64-2.92,21.09,21.09,0,0,0,0-3.72,9.83,9.83,0,0,1,2.26-7.71,19.71,19.71,0,0,1,5.48-4,26.36,26.36,0,0,0,2.57-1.56,6.17,6.17,0,0,0,1.15-1,9.12,9.12,0,0,1-1,.32,3.39,3.39,0,0,1-2.84-.5,9.52,9.52,0,0,1-1.2-.94c-.85,2.2-1.84,3.47-2.95,4.09a4.66,4.66,0,0,1-3.94.08,16.53,16.53,0,0,1-2.22-1h0c-.76-.42-1.55-.89-2.36-1.38Z"/><path class="cls-1" d="M40.5,6.69a1,1,0,0,0-.3-.11.74.74,0,0,0-.33,0h0a.84.84,0,0,0-.29.13.88.88,0,0,0-.22.25,1,1,0,0,0-.11.3.74.74,0,0,0,0,.33.84.84,0,0,0,.13.29.88.88,0,0,0,.25.22,1,1,0,0,0,.3.11h0a.85.85,0,0,0,.32,0h0a.71.71,0,0,0,.29-.14.73.73,0,0,0,.22-.24h0a1,1,0,0,0,.11-.3.92.92,0,0,0,0-.33.71.71,0,0,0-.14-.29.73.73,0,0,0-.24-.22"/><path class="cls-1" d="M36.38,14.65h0a2.21,2.21,0,0,0-.79.37,2.26,2.26,0,0,0-.59.64h0a2.29,2.29,0,0,0-.29.82h0a2.12,2.12,0,0,0,0,.87,2.23,2.23,0,0,0,1,1.38h0a2.18,2.18,0,0,0,.81.29h0a2.12,2.12,0,0,0,.87,0h0a2.21,2.21,0,0,0,.79-.37,2.17,2.17,0,0,0,.59-.65,2,2,0,0,0,.29-.81h0a2.3,2.3,0,0,0,0-.87h0a2.21,2.21,0,0,0-.37-.79,2.26,2.26,0,0,0-.64-.59h0a2.06,2.06,0,0,0-.82-.29h0a2.3,2.3,0,0,0-.87.05"/><path class="cls-1" d="M40.13,11a1.5,1.5,0,0,0-.26-.54,1.72,1.72,0,0,0-.44-.41,1.44,1.44,0,0,0-.56-.2h0a1.46,1.46,0,0,0-.59,0h0a1.72,1.72,0,0,0-.55.25,1.53,1.53,0,0,0-.4.44,1.5,1.5,0,0,0-.2.56h0a1.5,1.5,0,0,0,0,.6h0a1.34,1.34,0,0,0,.25.54,1.72,1.72,0,0,0,.44.41h0a1.56,1.56,0,0,0,.56.2h0a1.51,1.51,0,0,0,.6,0h0a1.67,1.67,0,0,0,.54-.25,1.61,1.61,0,0,0,.41-.45,1.56,1.56,0,0,0,.2-.56h0a1.5,1.5,0,0,0,0-.6Z"/></svg>