<svg id="Layer_1" data-name="Layer 1" xmlns="http://www.w3.org/2000/svg" viewBox="0 0 50.46 50.46"><defs><style>.cls-1{fill:#65b4e1;}</style></defs><title>riego produccion</title><circle class="cls-1" cx="25.38" cy="25.71" r="0.6"/><circle class="cls-1" cx="25.38" cy="22.16" r="0.81"/><circle class="cls-1" cx="25.38" cy="18.33" r="0.97"/><circle class="cls-1" cx="25.38" cy="13.2" r="1.16"/><circle class="cls-1" cx="25.38" cy="7.09" r="1.39"/><circle class="cls-1" cx="22.19" cy="26.51" r="0.6"/><circle class="cls-1" cx="20.65" cy="23.11" r="0.81"/><circle class="cls-1" cx="18.94" cy="19.51" r="0.97" transform="matrix(0.94, -0.34, 0.34, 0.94, -5.54, 7.68)"/><circle class="cls-1" cx="16.36" cy="15.5" r="1.16"/><circle class="cls-1" cx="12.5" cy="11.48" r="1.39"/><circle class="cls-1" cx="20.15" cy="28.85" r="0.6" transform="translate(-6.14 5.46) rotate(-13.4)"/><circle class="cls-1" cx="17.76" cy="27.73" r="0.81" transform="translate(-5.94 4.87) rotate(-13.4)"/><circle class="cls-1" cx="14.77" cy="26.34" r="0.97" transform="translate(-5.7 4.14) rotate(-13.4)"/><circle class="cls-1" cx="11.14" cy="25.54" r="1.16" transform="translate(-5.62 3.28) rotate(-13.4)"/><circle class="cls-1" cx="6.31" cy="26.42" r="1.39" transform="translate(-5.95 2.18) rotate(-13.4)"/><circle class="cls-1" cx="28.27" cy="26.51" r="0.6"/><circle class="cls-1" cx="29.81" cy="23.11" r="0.81"/><circle class="cls-1" cx="31.52" cy="19.51" r="0.97" transform="translate(2.38 42.43) rotate(-69.95)"/><circle class="cls-1" cx="34.1" cy="15.5" r="1.16"/><circle class="cls-1" cx="37.96" cy="11.48" r="1.39"/><circle class="cls-1" cx="30.31" cy="28.85" r="0.6" transform="translate(-4.78 51.64) rotate(-76.6)"/><circle class="cls-1" cx="32.7" cy="27.73" r="0.81" transform="translate(-1.85 53.11) rotate(-76.6)"/><circle class="cls-1" cx="35.69" cy="26.34" r="0.97" transform="translate(1.79 54.95) rotate(-76.6)"/><circle class="cls-1" cx="39.32" cy="25.54" r="1.16" transform="translate(5.36 57.87) rotate(-76.6)"/><circle class="cls-1" cx="44.15" cy="26.42" r="1.39" transform="translate(8.22 63.24) rotate(-76.6)"/><path class="cls-1" d="M25.53,28.9c-1.78,0-3.22.51-3.38,2.25h6.77C28.75,29.42,27.31,28.9,25.53,28.9Z"/><path class="cls-1" d="M40.82,43H26.43V37.64h2.83a1.41,1.41,0,0,0,1.41-1.41V33.63a1.41,1.41,0,0,0-1.41-1.41H21.8a1.41,1.41,0,0,0-1.41,1.41v2.61a1.41,1.41,0,0,0,1.41,1.41h2.83V43H10.24a.9.9,0,0,0,0,1.8H40.82a.9.9,0,1,0,0-1.8Z"/></svg>