<svg id="Layer_1" data-name="Layer 1" xmlns="http://www.w3.org/2000/svg" viewBox="0 0 50.46 50.46"><defs><style>.cls-1{fill:#12b5e1;}</style></defs><title>salero</title><path class="cls-1" d="M38.69,40.07,33.32,18.32a3.18,3.18,0,0,0-.56-4.86,5.85,5.85,0,0,0,.15-1.25c0-3.81-3.49-6.91-7.77-6.91s-7.77,3.1-7.77,6.91a6.24,6.24,0,0,0,.17,1.35,3.17,3.17,0,0,0-.4,4.79L11.76,40.12a4.26,4.26,0,0,0,4.2,5H34.5a4.26,4.26,0,0,0,4.19-5.09Zm-13.55-33c3.3,0,6,2.29,6,5.12a4.51,4.51,0,0,1-.07.73H19.24a3.72,3.72,0,0,1-.08-.74C19.16,9.38,21.85,7.09,25.14,7.09Zm-5.72,7.65H31a1.39,1.39,0,0,1,.25,2.75H19.17a1.39,1.39,0,0,1,.25-2.75Zm17,27.73a2.44,2.44,0,0,1-1.9.89H16a2.44,2.44,0,0,1-1.89-.89,2.41,2.41,0,0,1-.55-2l5.24-21.21h.41a1.9,1.9,0,0,0,.25,0H31a1.9,1.9,0,0,0,.25,0h.45l5.22,21.15A2.44,2.44,0,0,1,36.4,42.47Z"/><path class="cls-1" d="M21.19,22.16a.87.87,0,0,0-1,.74l-1.9,13.15a.87.87,0,0,0,.74,1h.12A.87.87,0,0,0,20,36.3l1.9-13.15A.87.87,0,0,0,21.19,22.16Z"/><path class="cls-1" d="M29.27,22a.86.86,0,0,0-.73,1l2,13.46a.86.86,0,0,0,.86.74h.13a.87.87,0,0,0,.73-1l-2-13.46A.87.87,0,0,0,29.27,22Z"/><path class="cls-1" d="M25.21,20.59h0a.86.86,0,0,0-.86.87l0,19.19a.87.87,0,0,0,.87.86h0a.87.87,0,0,0,.87-.87l0-19.18A.87.87,0,0,0,25.21,20.59Z"/><path class="cls-1" d="M22.46,9.88a.68.68,0,1,0-.68-.68A.68.68,0,0,0,22.46,9.88Z"/><path class="cls-1" d="M25.11,10.8a.67.67,0,1,0-.67-.67A.67.67,0,0,0,25.11,10.8Z"/><path class="cls-1" d="M27.76,9.88a.68.68,0,1,0-.67-.68A.67.67,0,0,0,27.76,9.88Z"/></svg>