<svg id="Layer_1" data-name="Layer 1" xmlns="http://www.w3.org/2000/svg" viewBox="0 0 50.46 50.46"><defs><style>.cls-1{fill:#65b4e1;}</style></defs><title>salud escudo</title><path class="cls-1" d="M22.21,18.58v2.5h-2.5A2,2,0,0,0,17.77,23v2.14a2,2,0,0,0,1.95,1.95h2.5v2.5a2,2,0,0,0,1.95,1.95H26.3a2,2,0,0,0,1.95-1.95v-2.5h2.5a2,2,0,0,0,1.95-1.95V23a2,2,0,0,0-1.95-1.95h-2.5v-2.5a2,2,0,0,0-1.95-1.95H24.16A2,2,0,0,0,22.21,18.58Zm4.33,0v4a.24.24,0,0,0,.24.24h4A.24.24,0,0,1,31,23v2.14a.24.24,0,0,1-.24.24h-4a.24.24,0,0,0-.24.24v4a.24.24,0,0,1-.24.24H24.16a.24.24,0,0,1-.24-.24v-4a.24.24,0,0,0-.24-.24h-4a.24.24,0,0,1-.24-.24V23a.24.24,0,0,1,.24-.24h4a.24.24,0,0,0,.24-.24v-4a.24.24,0,0,1,.24-.24H26.3A.24.24,0,0,1,26.54,18.58Z"/><path class="cls-1" d="M39.87,13.31C37.25,12.9,30.65,11.56,25.81,8a1,1,0,0,0-1.17,0c-4.83,3.52-11.44,4.86-14.05,5.28a1,1,0,0,0-.84,1,54,54,0,0,0,1.86,11.73,29.11,29.11,0,0,0,5.25,10.61,18.75,18.75,0,0,0,8,5.87,1,1,0,0,0,.69,0,18.74,18.74,0,0,0,8-5.89A29.18,29.18,0,0,0,38.86,26a53.9,53.9,0,0,0,1.85-11.68A1,1,0,0,0,39.87,13.31ZM36.94,25.48a27.22,27.22,0,0,1-4.88,9.93,16.87,16.87,0,0,1-6.83,5.15,16.87,16.87,0,0,1-6.82-5.13,27.15,27.15,0,0,1-4.88-9.89,52.64,52.64,0,0,1-1.74-10.41,36,36,0,0,0,13.44-5.07,36,36,0,0,0,13.44,5.07A52.59,52.59,0,0,1,36.94,25.48Z"/></svg>