<svg id="Layer_1" data-name="Layer 1" xmlns="http://www.w3.org/2000/svg" viewBox="0 0 50.46 50.46"><defs><style>.cls-1{fill:#12b5e1;}</style></defs><title>satelital</title><path class="cls-1" d="M23.43,39.23h0a14,14,0,0,0,6.74-1.73.94.94,0,0,0,.2-1.49l-6.23-6.23a3.25,3.25,0,0,0-4.53-4.53L13.38,19a.92.92,0,0,0-.79-.27,1,1,0,0,0-.7.47A13.47,13.47,0,0,0,13,34L9.17,41.42A.95.95,0,0,0,10,42.79H22.49a.94.94,0,0,0,.94-.94V39.23Zm-1-12.31a1.37,1.37,0,0,1,.3,1.48L21,26.62a1.37,1.37,0,0,1,1.48.3Zm-.93,14h-10l2.72-5.44a13.3,13.3,0,0,0,7.28,3.61Zm2-3.56h0A11.53,11.53,0,0,1,13,21.28L28.11,36.41a11.51,11.51,0,0,1-4.53.93Zm0,0"/><path class="cls-1" d="M22.24,21.86a5.29,5.29,0,0,1,5.29,5.29.95.95,0,0,0,1.89,0A7.19,7.19,0,0,0,22.24,20a.95.95,0,0,0,0,1.89Zm0,0"/><path class="cls-1" d="M22.85,14.19a1,1,0,0,0-.94,1.08,1,1,0,0,0,1.09.94,9.16,9.16,0,0,1,7.82,3.37,11.83,11.83,0,0,1,2.06,7.51,1,1,0,0,0,.24.74,1,1,0,0,0,1.41.13,1,1,0,0,0,.37-.71,13.82,13.82,0,0,0-2.51-8.95A11.19,11.19,0,0,0,22.85,14.19Z"/><path class="cls-1" d="M21.58,7.73a1,1,0,0,0-.93,1.09,1,1,0,0,0,.35.69,1,1,0,0,0,.74.24A16.29,16.29,0,0,1,39.28,27.63a1,1,0,0,0,.22.74,1,1,0,0,0,.68.37,1,1,0,0,0,1.11-.9A18.31,18.31,0,0,0,21.58,7.73Z"/></svg>