<svg id="Layer_1" data-name="Layer 1" xmlns="http://www.w3.org/2000/svg" viewBox="0 0 50.46 50.46"><defs><style>.cls-1{fill:#12b5e1;}</style></defs><title>seguridad bebe negativo</title><path id="_Trazado_compuesto_" data-name="&lt;Trazado compuesto&gt;" class="cls-1" d="M45.47,30.11a5.07,5.07,0,0,0-2.67-3.48c-1.62-.89-4.56,0-5.57-2-.68-1.39.43-3.9,1.62-6.55.49-1.11,1-2.26,1.45-3.46a9.2,9.2,0,0,0,.57-5.36,8.93,8.93,0,0,0-8.74-7H18.33a8.93,8.93,0,0,0-8.74,7,9.2,9.2,0,0,0,.57,5.36c.45,1.2,1,2.35,1.45,3.46.74,1.66,1.86,3.63,1.83,5.51,0,3.14-4,2.11-5.78,3.08A5.07,5.07,0,0,0,5,30.11c-.4,2.07.47,4.68,2.34,7L9.47,39.7l.88,4.88a3.71,3.71,0,0,0,3.7,3.61h8.82a.86.86,0,0,0,.69-.35A17.5,17.5,0,0,0,23.7,45h3.06a17.5,17.5,0,0,0,.14,2.89.86.86,0,0,0,.69.35h8.82a3.71,3.71,0,0,0,3.7-3.61L41,39.7l2.14-2.62C45,34.79,45.87,32.18,45.47,30.11Zm-20.24-25a6.06,6.06,0,1,1-6.06,6.06A6.06,6.06,0,0,1,25.23,5.08ZM23.77,35.89a7.59,7.59,0,0,0-4.18,1.53A1.75,1.75,0,0,0,19,38.94c.15.39.76,1.6,1.1,2.25A13.55,13.55,0,0,1,21,43a1.84,1.84,0,0,1-1.53,2.24,2.46,2.46,0,0,1-.53.06A2.11,2.11,0,0,1,16.88,44c0-.11-.39-.78-.64-1.27a12.51,12.51,0,0,1-1.41-3.21A5,5,0,0,1,16.4,35a9.41,9.41,0,0,1,3.72-2.11,2.5,2.5,0,0,1,0-.4V23.85l0-.11A8,8,0,0,0,19,25.31a13,13,0,0,0-1.34,4.43,1.87,1.87,0,0,1-2,1.58h-.14a1.8,1.8,0,0,1-1.82-1.8c.21-2.81,1.67-7.37,5.47-9.81l.84,4s0,0,0,0v.14l.55,2.63a.82.82,0,0,0,.82.73h.48l.93,2.08a.93.93,0,0,0,.23.35v1.83c0,.49.67.89.67.89Zm2.41-4.54h-1.9V29.49h1.9ZM26,28.23H24.35l-.49-1A.76.76,0,0,0,24.4,27a.73.73,0,0,0,.18-.6l-1.53-8.11a12.08,12.08,0,0,1,2.15-.2h.06a13,13,0,0,1,2.13.19L25.74,26.4a.74.74,0,0,0,.19.57.78.78,0,0,0,.53.23Zm8.91,3.09h-.13a1.86,1.86,0,0,1-2-1.58,13,13,0,0,0-1.34-4.43,8.29,8.29,0,0,0-1.08-1.6v8.76a2.5,2.5,0,0,1,0,.4A9.41,9.41,0,0,1,34.06,35a5,5,0,0,1,1.57,4.5,12.51,12.51,0,0,1-1.41,3.21c-.25.49-.6,1.16-.67,1.33a2,2,0,0,1-2,1.36,2.08,2.08,0,0,1-.55-.07A1.86,1.86,0,0,1,29.45,43a13.55,13.55,0,0,1,.87-1.85c.34-.65.95-1.86,1.1-2.25a1.75,1.75,0,0,0-.55-1.52,7.67,7.67,0,0,0-4.31-1.54V32.36s.66-.4.66-.89V29.63a.65.65,0,0,0,.23-.34l.93-2.08h.49a.81.81,0,0,0,.81-.69l1.55-6.81c3.8,2.44,5.26,7,5.47,9.81A1.8,1.8,0,0,1,34.87,31.32Z"/></svg>