<svg id="Layer_1" data-name="Layer 1" xmlns="http://www.w3.org/2000/svg" viewBox="0 0 50.46 50.46"><defs><style>.cls-1{fill:#65b4e1;}</style></defs><title>servidor</title><path class="cls-1" d="M41.86,30.55H8.6a1.92,1.92,0,0,0-1.92,1.92v3.24A1.92,1.92,0,0,0,8.6,37.63H41.86a1.92,1.92,0,0,0,1.92-1.92V32.47A1.92,1.92,0,0,0,41.86,30.55ZM19.73,35.11H9.58V33.37H19.73Zm19.79.49a1.36,1.36,0,1,1,1.36-1.36A1.36,1.36,0,0,1,39.52,35.6Z"/><path class="cls-1" d="M41.86,21.69H8.6a1.92,1.92,0,0,0-1.92,1.92v3.24A1.92,1.92,0,0,0,8.6,28.77H41.86a1.92,1.92,0,0,0,1.92-1.92V23.61A1.92,1.92,0,0,0,41.86,21.69ZM19.73,26.25H9.58V24.51H19.73Zm19.79.49a1.36,1.36,0,1,1,1.36-1.36A1.36,1.36,0,0,1,39.52,26.74Z"/><path class="cls-1" d="M41.86,12.83H8.6a1.92,1.92,0,0,0-1.92,1.92V18A1.92,1.92,0,0,0,8.6,19.91H41.86A1.92,1.92,0,0,0,43.77,18V14.75A1.92,1.92,0,0,0,41.86,12.83ZM19.73,17.39H9.58V15.65H19.73Zm19.79.49a1.36,1.36,0,1,1,1.36-1.36A1.36,1.36,0,0,1,39.52,17.89Z"/></svg>