<svg id="Layer_1" data-name="Layer 1" xmlns="http://www.w3.org/2000/svg" viewBox="0 0 50.46 50.46"><defs><style>.cls-1{fill:#12b5e1;}</style></defs><title>silla seguridad auto negativo</title><path class="cls-1" d="M26.34,29H24.07a.47.47,0,0,1-.46.38h-.28v2.28h.5v-.12a.81.81,0,0,1,.81-.81h1.18a.81.81,0,0,1,.81.81v.12h.5V29.43h-.31A.49.49,0,0,1,26.34,29Z"/><path class="cls-1" d="M46.25,30.3a5.24,5.24,0,0,0-2.77-3.61,4.48,4.48,0,0,0-3-.48l-.16-.08a3.63,3.63,0,0,1-2.58-1.56c-.71-1.44.46-4.05,1.68-6.81.52-1.15,1.05-2.34,1.51-3.59a9.52,9.52,0,0,0,.6-5.57A9.28,9.28,0,0,0,32.4,1.38H18.06A9.28,9.28,0,0,0,9,8.6a9.52,9.52,0,0,0,.6,5.57c.46,1.25,1,2.44,1.51,3.59,1.22,2.76,2.39,5.37,1.68,6.81a3.63,3.63,0,0,1-2.58,1.56.8.8,0,0,0-.16.08,4.48,4.48,0,0,0-3,.48A5.24,5.24,0,0,0,4.21,30.3c-.42,2.15.49,4.86,2.43,7.24l2.22,2.73.92,5.06a3.83,3.83,0,0,0,3.83,3.75h9.17a.9.9,0,0,0,.72-.36.91.91,0,0,0,.14-.8l-.12-.4h3.42l-.12.4a.91.91,0,0,0,.14.8.9.9,0,0,0,.72.36h9.17a3.83,3.83,0,0,0,3.83-3.75l.92-5.06,2.22-2.73C45.76,35.16,46.67,32.45,46.25,30.3ZM35.67,13.2a1.07,1.07,0,0,1-1,1L32.56,24.62a1.2,1.2,0,0,1-1.2,1h-.72l-1.37,3.17a1.17,1.17,0,0,1-.34.52v2.79a1.35,1.35,0,0,1-1.35,1.35h-.95v5.93a.23.23,0,0,1-.22.23H24.05a.23.23,0,0,1-.22-.23V33.49h-.95a1.35,1.35,0,0,1-1.35-1.35V29.35a1.19,1.19,0,0,1-.35-.52l-1.37-3.17H19.1a1.24,1.24,0,0,1-1.22-1.09l-2.07-10.4c-.59-.1-1-.47-1-1v-.41c0-.58.56-1,1.31-1h4.8c.74,0,1.31.43,1.31,1v.41a1,1,0,0,1-.58.83L23.7,24.39a1.16,1.16,0,0,1-.26.91,1.13,1.13,0,0,1-.8.36l.73,1.56h3.7l.74-1.56a1.1,1.1,0,0,1-1.07-1.22L28.82,14a.94.94,0,0,1-.57-.82v-.41c0-.58.57-1,1.31-1h4.8c.75,0,1.31.43,1.31,1Z"/></svg>