<svg id="Layer_1" data-name="Layer 1" xmlns="http://www.w3.org/2000/svg" viewBox="0 0 50.46 50.46"><defs><style>.cls-1{fill:#12b5e1;}</style></defs><title>silla seguridad auto</title><path class="cls-1" d="M47.2,29.81a5.18,5.18,0,0,0-2.77-3.61,4.48,4.48,0,0,0-3-.48.46.46,0,0,0-.16-.07,3.58,3.58,0,0,1-2.57-1.57c-.71-1.44.45-4,1.68-6.81.51-1.15,1-2.34,1.5-3.59a9.52,9.52,0,0,0,.6-5.57A9.28,9.28,0,0,0,33.35.89H19A9.29,9.29,0,0,0,9.93,8.11a9.52,9.52,0,0,0,.6,5.57c.47,1.25,1,2.44,1.51,3.59,1.23,2.76,2.39,5.37,1.68,6.81a3.6,3.6,0,0,1-2.58,1.57.46.46,0,0,0-.16.07,4.48,4.48,0,0,0-3.05.48,5.24,5.24,0,0,0-2.77,3.61c-.42,2.16.49,4.86,2.43,7.24l2.23,2.73.91,5.06a3.84,3.84,0,0,0,3.84,3.75h9.16a.89.89,0,0,0,.86-1.15L24.47,47h3.42l-.12.41a.89.89,0,0,0,.86,1.15H37.8a3.84,3.84,0,0,0,3.84-3.75l.91-5.06,2.22-2.73C46.71,34.67,47.62,32,47.2,29.81ZM15.33,24.88c1.08-2.2-.18-5.05-1.65-8.34-.5-1.13-1-2.3-1.47-3.49a7.86,7.86,0,0,1-.52-4.53A7.48,7.48,0,0,1,19,2.69H33.35a7.5,7.5,0,0,1,7.33,5.83,7.88,7.88,0,0,1-.53,4.53c-.45,1.19-1,2.36-1.47,3.49C37.22,19.83,36,22.68,37,24.88a4.2,4.2,0,0,0,2.06,1.91,9.58,9.58,0,0,0-2.7,3.71L35,33.59H27.58v-.81h1a1.36,1.36,0,0,0,1.36-1.35V28.64a1.27,1.27,0,0,0,.33-.52L31.59,25h.72a1.2,1.2,0,0,0,1.2-1l2.08-10.45a1.07,1.07,0,0,0,1-1v-.41c0-.58-.56-1-1.3-1H30.51c-.74,0-1.31.43-1.31,1v.41a.94.94,0,0,0,.57.82L27.7,23.73a1.07,1.07,0,0,0,.27.86,1.12,1.12,0,0,0,.79.36L28,26.51h-3.7L23.6,25a1.12,1.12,0,0,0,.79-.36,1.16,1.16,0,0,0,.26-.91L22.59,13.32a1,1,0,0,0,.57-.83v-.41c0-.58-.56-1-1.31-1h-4.8c-.75,0-1.31.43-1.31,1v.41c0,.5.43.87,1,1l2.08,10.4A1.22,1.22,0,0,0,20.05,25h.71l1.37,3.17a1.19,1.19,0,0,0,.35.52v2.79a1.35,1.35,0,0,0,1.35,1.35h1v.81H17.33L16,30.5a9.58,9.58,0,0,0-2.7-3.71A4.2,4.2,0,0,0,15.33,24.88ZM28.42,42.93H24A20.27,20.27,0,0,1,13.6,40.09L11.78,39l.21-.59a5.26,5.26,0,0,1,4.75-3h8v3.32a.23.23,0,0,0,.23.23h2.35a.23.23,0,0,0,.22-.23V35.39h8a5.24,5.24,0,0,1,4.72,3l.24.67-1.82,1.08A20.26,20.26,0,0,1,28.42,42.93ZM26.77,30.05H25.59a.81.81,0,0,0-.81.81V31h-.5V28.7h.28a.47.47,0,0,0,.46-.38h2.27a.49.49,0,0,0,.48.41h.32V31h-.51v-.12A.81.81,0,0,0,26.77,30.05Zm-4.19-6.47H20.65a.43.43,0,0,0-.32.1H20L17.75,12.27l3.42.07,2.27,11.41H23A.51.51,0,0,0,22.58,23.58Zm8.63-11.31h3.4l-2.3,11.48h-.25c0-.1-.14-.17-.35-.17H29.77a.49.49,0,0,0-.44.17h-.42ZM6.93,30.16A3.37,3.37,0,0,1,8.8,27.78a2.7,2.7,0,0,1,2.25-.21,6.28,6.28,0,0,1,3.28,3.66l1.1,2.5a7.1,7.1,0,0,0-5,3.9L9,35.92C7.74,34.39,6.55,32.08,6.93,30.16Zm7.64,16.63a2,2,0,0,1-2-2,.78.78,0,0,0,0-.16l-.61-3.43.78.47a22.22,22.22,0,0,0,9.19,3l.65,2.17Zm9.6-.76-.39-1.31h4.8L28.19,46Zm15.67-1.27a2,2,0,0,1-2,2h-8l.65-2.17a22.22,22.22,0,0,0,9.19-3l.79-.47-.62,3.43A.81.81,0,0,0,39.84,44.76ZM42,37.62a7.08,7.08,0,0,0-5-3.89L38,31.22a6.28,6.28,0,0,1,3.27-3.65,2.7,2.7,0,0,1,2.25.21,3.38,3.38,0,0,1,1.88,2.38c.37,1.92-.82,4.23-2.06,5.76Z"/></svg>