<svg id="Layer_1" data-name="Layer 1" xmlns="http://www.w3.org/2000/svg" viewBox="0 0 50.46 50.46"><defs><style>.cls-1{fill:#12b5e1;}</style></defs><title>sol patrio</title><path class="cls-1" d="M43.8,26.11l.11,0,.1,0a.89.89,0,0,0-.22-1.7l-3.9-.57.26-.06c.76-.2,1.49-.41,2.16-.64a12.84,12.84,0,0,0,1.37-.59.89.89,0,0,0,.43-1.1.9.9,0,0,0-.84-.58h-.09l-.1,0a5.7,5.7,0,0,1-1.37.17,11.51,11.51,0,0,1-1.15-.08c-.32,0-.65-.07-1-.09l3.21-1.94h0a.9.9,0,0,0,.36-1.1.89.89,0,0,0-.82-.55h-.14l-.11,0-3.81,1c.52-.38,1.24-.94,2-1.58a10.51,10.51,0,0,0,1-1.07h0a.9.9,0,0,0,0-1.17.91.91,0,0,0-.65-.28,1,1,0,0,0-.52.16,6.48,6.48,0,0,1-2.28,1c-.32.09-.63.19-1,.31l2.23-3a.88.88,0,0,0-.08-1.15h0a.88.88,0,0,0-.63-.26.91.91,0,0,0-.53.18l-3.18,2.38c.34-.55.79-1.35,1.21-2.22a9.85,9.85,0,0,0,.56-1.39.9.9,0,0,0-.48-1.08A1,1,0,0,0,35.49,9a.88.88,0,0,0-.75.42A6.6,6.6,0,0,1,33,11.29c-.23.19-.49.4-.77.65l.91-3.62a.88.88,0,0,0-.51-1h0l-.15-.06H32.3a.89.89,0,0,0-.77.44l-2,3.42c.1-.64.21-1.54.27-2.52a10.73,10.73,0,0,0,0-1.5.89.89,0,0,0-.83-.81h-.06A.87.87,0,0,0,28,7a6.8,6.8,0,0,1-.88,2.36c-.15.28-.3.56-.46.89l-.53-3.66a.89.89,0,0,0-1.76,0l-.54,3.87c-.16-.62-.39-1.48-.69-2.37a9.87,9.87,0,0,0-.59-1.38.87.87,0,0,0-.79-.48h-.16l-.15,0a.9.9,0,0,0-.56,1A6.47,6.47,0,0,1,21,9.84c0,.31-.07.65-.09,1L19,7.65a.92.92,0,0,0-.77-.43H18l-.15,0h-.05a.89.89,0,0,0-.51,1h0l1,3.82c-.38-.52-.92-1.23-1.55-1.94a10.51,10.51,0,0,0-1.07-1,.86.86,0,0,0-1.18,0,.88.88,0,0,0-.12,1.15,6.55,6.55,0,0,1,1,2.31c.1.31.19.63.32,1l-3-2.24a.93.93,0,0,0-.53-.17.87.87,0,0,0-.62.25h0a.91.91,0,0,0-.07,1.16l2.37,3.18c-.55-.34-1.33-.79-2.19-1.21a11.66,11.66,0,0,0-1.38-.55h0l-.12,0H10a.88.88,0,0,0-.8.53h0a.89.89,0,0,0,.33,1.1,6.77,6.77,0,0,1,1.85,1.73c.2.25.41.51.66.79l-3.59-.9-.1,0H8.2a.89.89,0,0,0-.46,1.65l3.43,2c-.64-.1-1.54-.21-2.51-.27l-.61,0a8.64,8.64,0,0,0-.88,0h0a.89.89,0,0,0-.06,1.76,6.67,6.67,0,0,1,2.35.88l.62.33.29.14-2.29.34-1.41.21-.11,0-.1,0a.89.89,0,0,0,.22,1.7l4,.58c-.63.15-1.52.39-2.44.71-.23.09-.57.22-.86.35-.45.19-1.14.49-1,1.24a.89.89,0,0,0,.9.66l.65,0c.46,0,1.09-.08,1.58-.08h.4c.32,0,.65.07,1,.09L7.72,31.57h0a.9.9,0,0,0-.36,1.1.89.89,0,0,0,.82.55h.14l.11,0,3.81-1c-.52.38-1.24.94-2,1.58a10.51,10.51,0,0,0-1,1.07h0a.9.9,0,0,0,0,1.17.91.91,0,0,0,.65.28,1,1,0,0,0,.52-.16,6.48,6.48,0,0,1,2.28-1l1-.31-2.23,3A.88.88,0,0,0,11.54,39h0a.88.88,0,0,0,.63.26.91.91,0,0,0,.53-.18l3.18-2.38c-.34.55-.79,1.35-1.21,2.22a9.85,9.85,0,0,0-.56,1.39.89.89,0,0,0,.48,1.07h0a.78.78,0,0,0,.37.09.88.88,0,0,0,.75-.42,6.6,6.6,0,0,1,1.72-1.85c.23-.19.49-.4.77-.65l-.91,3.62a.88.88,0,0,0,.51,1h0l.15.06h.17a.89.89,0,0,0,.77-.44l2-3.42c-.1.64-.21,1.54-.27,2.52a10.73,10.73,0,0,0,0,1.5.89.89,0,0,0,.83.81h.06a.88.88,0,0,0,.87-.75,6.8,6.8,0,0,1,.88-2.36c.15-.28.3-.56.46-.89l.53,3.66a.89.89,0,0,0,1.76,0L26.64,40c.16.62.39,1.48.69,2.37a9.87,9.87,0,0,0,.59,1.38.87.87,0,0,0,.79.48h.16l.15,0a.91.91,0,0,0,.56-1,6.47,6.47,0,0,1-.09-2.53c0-.31.07-.65.09-1l1.93,3.23a.91.91,0,0,0,.77.43h.15l.15-.05h.05a.89.89,0,0,0,.51-1h0l-1-3.82c.38.52.92,1.23,1.55,1.94a10.51,10.51,0,0,0,1.07,1,.87.87,0,0,0,.57.22.9.9,0,0,0,.73-1.4,6.55,6.55,0,0,1-1-2.31c-.1-.31-.19-.63-.32-1l3,2.24a.93.93,0,0,0,.53.17.87.87,0,0,0,.62-.25h0A.91.91,0,0,0,39,37.8L36.6,34.62c.55.34,1.33.79,2.19,1.21a11.66,11.66,0,0,0,1.38.55h0l.12,0h.14a.88.88,0,0,0,.8-.53h0a.89.89,0,0,0-.33-1.1,6.77,6.77,0,0,1-1.85-1.73c-.2-.25-.41-.51-.66-.79l3.59.9.1,0h.15a.89.89,0,0,0,.46-1.65l-3.43-2c.64.1,1.54.21,2.51.27l.61,0a8.64,8.64,0,0,0,.88,0h0a.88.88,0,0,0,.8-.83l0-.49-.15-.1-.06-.23L43.38,28A6.63,6.63,0,0,1,41,27.14h0c-.28-.16-.57-.31-.91-.47l2.29-.34Zm-6.8.13a.16.16,0,0,0-.15.17.18.18,0,0,0,.15.17h0a12.18,12.18,0,0,1,2.33.69l0,0,.18.08c.38.17.69.35,1,.51h0a7.27,7.27,0,0,0,2.61,1h0l0,0q-.4,0-.81,0h-.56a28.87,28.87,0,0,1-3-.35,7.59,7.59,0,0,0-1.33-.12,7.2,7.2,0,0,0-1,.07.17.17,0,0,0-.14.14.18.18,0,0,0,.08.18l5.79,3.45s0,0,0,0a0,0,0,0,1,0,0h0L35.71,30.7h0a.16.16,0,0,0-.15.1.16.16,0,0,0,.06.21,11,11,0,0,1,2.09,1.72c.28.31.51.6.74.87a7.38,7.38,0,0,0,2.05,1.92s0,0,0,0h0a9.9,9.9,0,0,1-1.27-.51,27.67,27.67,0,0,1-2.6-1.46,7.56,7.56,0,0,0-2.16-1h0a.17.17,0,0,0-.14.07.18.18,0,0,0,0,.2l4,5.41a0,0,0,0,1,0,0h0l-5.42-4a.14.14,0,0,0-.1,0,.17.17,0,0,0-.12.05.17.17,0,0,0,0,.22A11,11,0,0,1,33.85,37c.15.4.26.75.36,1.09a7.39,7.39,0,0,0,1.16,2.56,0,0,0,0,1,0,0h0a9,9,0,0,1-1-1,24.86,24.86,0,0,1-1.84-2.35,7.83,7.83,0,0,0-1.63-1.7.19.19,0,0,0-.1,0,.17.17,0,0,0-.1,0,.16.16,0,0,0-.06.18l1.67,6.55a0,0,0,0,1,0,0h0l-3.48-5.81a.19.19,0,0,0-.15-.08h-.06a.18.18,0,0,0-.1.2,11.36,11.36,0,0,1,.25,2.7c0,.41,0,.78-.09,1.14a7.57,7.57,0,0,0,.1,2.81s0,0,0,0h0a10.08,10.08,0,0,1-.54-1.27,25,25,0,0,1-.8-2.88,7.74,7.74,0,0,0-.86-2.2.17.17,0,0,0-.14-.08h0a.18.18,0,0,0-.13.15l-.94,6.66,0,0,0,0-1-6.67a.16.16,0,0,0-.16-.14.17.17,0,0,0-.17.14,11.19,11.19,0,0,1-.78,2.6c-.17.38-.35.7-.52,1a7.56,7.56,0,0,0-1,2.64,0,0,0,0,1,0,0h0s0,0,0,0a10.42,10.42,0,0,1,0-1.37,26.2,26.2,0,0,1,.35-3,7.54,7.54,0,0,0,0-2.36.16.16,0,0,0-.13-.14h0a.19.19,0,0,0-.15.09l-3.45,5.81s0,0,0,0h0s0,0,0,0l1.64-6.56a.17.17,0,0,0-.1-.2h-.06a.19.19,0,0,0-.15.08,10.84,10.84,0,0,1-1.71,2.09c-.3.29-.59.52-.87.75A7.55,7.55,0,0,0,15,40.56h0a0,0,0,0,1,0,0,9.16,9.16,0,0,1,.5-1.28,29.56,29.56,0,0,1,1.46-2.61,7.83,7.83,0,0,0,.94-2.16.18.18,0,0,0-.07-.18.17.17,0,0,0-.1,0,.19.19,0,0,0-.1,0l-5.39,4h0a0,0,0,0,1,0,0l4-5.43a.17.17,0,0,0,0-.22.17.17,0,0,0-.12-.05.14.14,0,0,0-.1,0,11.58,11.58,0,0,1-2.38,1.27c-.39.15-.74.25-1.08.35a7.56,7.56,0,0,0-2.55,1.17h0a0,0,0,0,1,0,0,9,9,0,0,1,1-1,27.42,27.42,0,0,1,2.34-1.85,7.32,7.32,0,0,0,1.69-1.64.17.17,0,0,0,0-.19.15.15,0,0,0-.14-.07h0L8.18,32.35h0s0,0,0,0l5.78-3.48a.18.18,0,0,0,.07-.21.17.17,0,0,0-.16-.11h0a11.4,11.4,0,0,1-2.38.26h-.3c-.42,0-.79-.06-1.14-.1l-.49,0c-.82,0-2,.13-2.23.13H7.21a7.06,7.06,0,0,1,1.27-.56,29.18,29.18,0,0,1,2.86-.82,7.71,7.71,0,0,0,2.19-.86.18.18,0,0,0,.08-.18.17.17,0,0,0-.14-.13h0l-1-.15-5.61-.82,0,0a0,0,0,0,1,0,0L8.2,25l5.26-.78a.16.16,0,0,0,.15-.17.18.18,0,0,0-.15-.17h0a12.18,12.18,0,0,1-2.33-.69l0,0-.18-.08-.06,0-.35-.17c-.21-.1-.4-.21-.59-.31a7.38,7.38,0,0,0-2.63-1s0,0,0,0a0,0,0,0,1,0,0q.4,0,.81,0h.56a28.87,28.87,0,0,1,3,.35A7.51,7.51,0,0,0,12.9,22a7.2,7.2,0,0,0,1-.07.17.17,0,0,0,.14-.14.18.18,0,0,0-.08-.18L8.19,18.16s0,0,0,0l0,0h0l6.55,1.65h0a.16.16,0,0,0,.15-.1.16.16,0,0,0-.06-.21,11,11,0,0,1-2.09-1.72c-.28-.31-.51-.6-.74-.87A7.38,7.38,0,0,0,10,14.94s0,0,0,0h0a9.9,9.9,0,0,1,1.27.51,27.67,27.67,0,0,1,2.6,1.46,7.56,7.56,0,0,0,2.16.95h0a.17.17,0,0,0,.14-.07.18.18,0,0,0,0-.2l-4-5.41a0,0,0,0,1,0,0h0l5.42,4a.14.14,0,0,0,.1,0,.17.17,0,0,0,.12-.05.17.17,0,0,0,0-.22,11,11,0,0,1-1.26-2.39c-.15-.4-.26-.75-.36-1.09a7.39,7.39,0,0,0-1.16-2.56,0,0,0,0,1,0,0h0a9,9,0,0,1,1,1,24.86,24.86,0,0,1,1.84,2.35,7.83,7.83,0,0,0,1.63,1.7.19.19,0,0,0,.1,0,.17.17,0,0,0,.1,0,.16.16,0,0,0,.06-.18L18.16,8.11a0,0,0,0,1,0,0h0l3.48,5.81a.19.19,0,0,0,.15.08h.06a.18.18,0,0,0,.1-.2,11.36,11.36,0,0,1-.25-2.7c0-.41.05-.78.09-1.14a7.57,7.57,0,0,0-.1-2.81s0,0,0,0h0a10.08,10.08,0,0,1,.54,1.27,25,25,0,0,1,.8,2.88,7.74,7.74,0,0,0,.86,2.2.17.17,0,0,0,.14.08h0a.18.18,0,0,0,.13-.15l.94-6.66,0,0,0,0,1,6.67a.16.16,0,0,0,.16.14.17.17,0,0,0,.17-.14,11.19,11.19,0,0,1,.78-2.6c.17-.38.35-.7.52-1a7.56,7.56,0,0,0,1-2.64l0,0h0a0,0,0,0,1,0,0,10.42,10.42,0,0,1,0,1.37,26.2,26.2,0,0,1-.35,3,7.54,7.54,0,0,0,0,2.36.16.16,0,0,0,.13.14h0a.19.19,0,0,0,.15-.09l3.45-5.81h0s0,0,0,0l-1.64,6.56a.17.17,0,0,0,.1.2h.06A.19.19,0,0,0,31,14.8a10.84,10.84,0,0,1,1.71-2.09c.3-.29.59-.52.87-.75a7.55,7.55,0,0,0,1.9-2.06h0a0,0,0,0,1,0,0A9.16,9.16,0,0,1,35,11.2a29.56,29.56,0,0,1-1.46,2.61A7.83,7.83,0,0,0,32.61,16a.18.18,0,0,0,.07.18.17.17,0,0,0,.1,0,.19.19,0,0,0,.1,0l5.39-4h0a0,0,0,0,1,0,0l-4,5.43a.17.17,0,0,0,0,.22.17.17,0,0,0,.12.05.14.14,0,0,0,.1,0,11.58,11.58,0,0,1,2.38-1.27c.39-.15.74-.25,1.08-.35A7.56,7.56,0,0,0,40.54,15h0a0,0,0,0,1,0,0,9,9,0,0,1-1,1,27.42,27.42,0,0,1-2.34,1.85,7.32,7.32,0,0,0-1.69,1.64.17.17,0,0,0,0,.19.15.15,0,0,0,.14.07h0l6.52-1.67h0s0,0,0,0l-5.78,3.48a.18.18,0,0,0-.07.21.17.17,0,0,0,.16.11h0A11.4,11.4,0,0,1,39,21.68h.3c.42,0,.79.06,1.14.1s.81.08,1.24.08a6.86,6.86,0,0,0,1.56-.19h0l0,0s0,0,0,0a9.24,9.24,0,0,1-1.25.54,21.58,21.58,0,0,1-2.1.62h0l-.79.19a7.71,7.71,0,0,0-2.19.86.18.18,0,0,0-.08.18.17.17,0,0,0,.14.13h0l1,.15,5.61.82a0,0,0,0,1,0,0l0,0-1.41.21Z"/><path class="cls-1" d="M30.45,19.69a11.14,11.14,0,0,0-3.05.08c-.43.08-.56,1.08-.56,1.09a.27.27,0,0,0,.05.25.39.39,0,0,0,.3.06l0-.06,0,.06A18.56,18.56,0,0,1,30,20.91c2.68,0,3.09.89,3.13,1a.39.39,0,0,0,.36.22h.14a.26.26,0,0,0,.17-.1.36.36,0,0,0,0-.3S33.19,20,30.45,19.69Z"/><path class="cls-1" d="M21.8,23.66a1.18,1.18,0,0,0-.09-.46s0-.05,0-.06a.07.07,0,0,1,.06,0,1.65,1.65,0,0,1,.91.83c.07.14.21.22.68.22.11,0,.25,0,.31-.09a.22.22,0,0,0,0-.15,2.44,2.44,0,0,0-1.07-1.62h0a6.5,6.5,0,0,0-2.11-.23,3.26,3.26,0,0,0-3,1.55.42.42,0,0,0,0,.36.24.24,0,0,0,.18.11.49.49,0,0,0,.62-.25s.16-.45,1.16-.7c0,0,.05,0,.06,0s0,0,0,0a1.14,1.14,0,0,0-.08.44,1.18,1.18,0,1,0,2.35,0Z"/><path class="cls-1" d="M29.94,22.08a6.71,6.71,0,0,0-2.11.23,2.36,2.36,0,0,0-1.06,1.6.2.2,0,0,0,0,.17c.06.08.2.09.31.09.47,0,.61-.08.68-.22a1.65,1.65,0,0,1,.91-.83s.05,0,.06,0,0,0,0,.06a1.18,1.18,0,1,0,2.26.46,1.14,1.14,0,0,0-.08-.44s0,0,0,0,0,0,0,0c1,.25,1.16.66,1.18.72a.48.48,0,0,0,.59.24A.27.27,0,0,0,33,24a.42.42,0,0,0,0-.36A3.26,3.26,0,0,0,29.94,22.08Z"/><path class="cls-1" d="M23.27,21.17a.38.38,0,0,0,.3-.06.27.27,0,0,0,.05-.25s-.14-1-.56-1.09a10.68,10.68,0,0,0-1.83-.15,8.2,8.2,0,0,0-1.21.07c-2.77.29-3.37,2-3.38,2a.38.38,0,0,0,0,.31.2.2,0,0,0,.15.09h.15a.38.38,0,0,0,.37-.23C17.32,21.83,18,20.32,23.27,21.17Z"/><path class="cls-1" d="M23.38,27.67a.62.62,0,0,1-.5,0,.63.63,0,0,1-.4-.64c0-.32-.21-.29-.27-.1a.92.92,0,0,0,.16.75,1.18,1.18,0,0,0,.41.36,1.1,1.1,0,0,0,.62.09,1.22,1.22,0,0,0,.57-.25l0,0a1.2,1.2,0,0,0,.47.43,1.5,1.5,0,0,0,.64.2h.26a1.5,1.5,0,0,0,.64-.2,1.2,1.2,0,0,0,.47-.43l0,0a1.22,1.22,0,0,0,.57.25,1.1,1.1,0,0,0,.62-.09,1.18,1.18,0,0,0,.41-.36.92.92,0,0,0,.16-.75c-.06-.19-.3-.22-.27.1a.63.63,0,0,1-.4.64.62.62,0,0,1-.5,0,1,1,0,0,1-.28-.23.83.83,0,0,1-.11-.15.85.85,0,0,1-.09-.15.31.31,0,0,0-.41-.16.29.29,0,0,0-.17.19l0,.12a.46.46,0,0,1-.32.38.79.79,0,0,1-.32.06h-.22a.79.79,0,0,1-.32-.06.46.46,0,0,1-.32-.38l0-.12a.29.29,0,0,0-.17-.19.31.31,0,0,0-.41.16.85.85,0,0,1-.09.15.83.83,0,0,1-.11.15A1,1,0,0,1,23.38,27.67Z"/><path class="cls-1" d="M28.64,30.69a13.47,13.47,0,0,0-1.16-1,4,4,0,0,0-.4-.26,1.51,1.51,0,0,0-.56-.15,1.6,1.6,0,0,0-.57.08,2.8,2.8,0,0,0-.39.14l-.33.14-.33-.14a2.8,2.8,0,0,0-.39-.14,1.6,1.6,0,0,0-.57-.08,1.51,1.51,0,0,0-.56.15,4,4,0,0,0-.4.26,13.47,13.47,0,0,0-1.16,1c-.27.24-.56.47-.56.58s.14.13.34.18a4.1,4.1,0,0,1,.43.14,1.79,1.79,0,0,1,.48.33l.24.27a3.08,3.08,0,0,0,.33.3,4,4,0,0,0,1.25.67,2.9,2.9,0,0,0,.92.17,3,3,0,0,0,.88-.17,4,4,0,0,0,1.25-.67,3.08,3.08,0,0,0,.33-.3l.24-.27a1.79,1.79,0,0,1,.48-.33,4.1,4.1,0,0,1,.43-.14c.2-.05.34-.12.34-.18S28.91,30.93,28.64,30.69Zm-1.14.8a1.24,1.24,0,0,0-.18.14l-.15.11a1.49,1.49,0,0,1-.3.18,4.64,4.64,0,0,1-1.26.38,3.66,3.66,0,0,1-.81,0,5,5,0,0,1-.67-.14,2.87,2.87,0,0,1-.54-.24,2.16,2.16,0,0,1-.3-.18l-.15-.11a1.24,1.24,0,0,0-.18-.14,2.42,2.42,0,0,0-.59-.28,3.58,3.58,0,0,1,1.08,0,3.18,3.18,0,0,1,.33.09,5,5,0,0,0,1.26.32,3.08,3.08,0,0,0,1-.12c.32-.08.64-.22,1-.29a3.58,3.58,0,0,1,1.08,0A2.42,2.42,0,0,0,27.5,31.49Zm-.57-.79a3.47,3.47,0,0,0-.45.06l-.37.06a4.62,4.62,0,0,1-.91.11,5,5,0,0,1-.85-.11L24,30.76a3.47,3.47,0,0,0-.45-.06,4.47,4.47,0,0,0-1.4.19c.35-.2.79-.44,1.24-.64l.33-.13a.45.45,0,0,1,.23,0,1.23,1.23,0,0,1,.39.22,3.21,3.21,0,0,0,.5.31.91.91,0,0,0,.82,0,3.21,3.21,0,0,0,.5-.31.7.7,0,0,1,.62-.21l.33.13,1.24.64A4.47,4.47,0,0,0,26.93,30.7Z"/></svg>