<svg id="Layer_1" data-name="Layer 1" xmlns="http://www.w3.org/2000/svg" viewBox="0 0 50.46 50.46"><defs><style>.cls-1{fill:#65b4e1;}</style></defs><title>sol</title><path class="cls-1" d="M29.9,33.25a9.28,9.28,0,1,0-7,1,9.33,9.33,0,0,0,2.38.31A9.23,9.23,0,0,0,29.9,33.25Zm-6.66-.5a7.78,7.78,0,0,1,2-15.31,7.83,7.83,0,0,1,2,.26,7.78,7.78,0,1,1-4,15Z"/><path class="cls-1" d="M24.86,18.84a6.41,6.41,0,0,0-5,2.89.62.62,0,1,0,1,.68,5.17,5.17,0,0,1,4-2.33.62.62,0,0,0-.07-1.23Z"/><path class="cls-1" d="M19.87,23a.62.62,0,0,0-.78.39.93.93,0,0,0,0,.14h0v0a.62.62,0,0,0,.44.76l.16,0a.62.62,0,0,0,.6-.46l0-.07v0A.62.62,0,0,0,19.87,23Z"/><path class="cls-1" d="M25.22,36.19h0a.86.86,0,0,0-.86.86c0,1.8,0,3.32,0,4.38,0,.53,0,1,0,1.24,0,.48,0,1.29.87,1.29a.86.86,0,0,0,.86-.86s0,0,0-.07,0-1.2,0-6A.86.86,0,0,0,25.22,36.19Z"/><path class="cls-1" d="M25.23,14.57h0a.86.86,0,0,0,.86-.86V7.36a.86.86,0,1,0-1.72,0v6.34A.86.86,0,0,0,25.23,14.57Z"/><path class="cls-1" d="M14.27,25.22a.86.86,0,0,0-.86-.86H7.8c-.48,0-1.29,0-1.29.87a.86.86,0,0,0,.86.86h6A.86.86,0,0,0,14.27,25.22Z"/><path class="cls-1" d="M43.1,24.38H36.75a.86.86,0,0,0,0,1.72H43.1a.86.86,0,0,0,0-1.72Z"/><path class="cls-1" d="M17.47,33a.86.86,0,0,0-1.21,0l-3.09,3.1-.87.88c-.34.34-.91.92-.3,1.52a.86.86,0,0,0,1.21,0l0,0c.12-.12.84-.86,4.22-4.24A.86.86,0,0,0,17.47,33Z"/><path class="cls-1" d="M33.38,17.94a.86.86,0,0,0,.61-.25l3.46-3.45,1-1A.86.86,0,0,0,37.26,12l-1,1-3.46,3.45a.86.86,0,0,0,.61,1.47Z"/><path class="cls-1" d="M12,13.25c.12.12.86.84,4.24,4.22a.86.86,0,1,0,1.21-1.22l-3.1-3.09-.88-.87c-.34-.34-.92-.91-1.52-.3a.86.86,0,0,0,0,1.21Z"/><path class="cls-1" d="M34,32.77A.86.86,0,0,0,32.77,34l4.48,4.49a.86.86,0,1,0,1.21-1.22Z"/><path class="cls-1" d="M20.92,35.45a.74.74,0,0,0-1,.39l-1.17,2.79c-.43,1-.43,1-.31,1.31a.74.74,0,0,0,1.36,0l0-.08.28-.66,1.17-2.79A.74.74,0,0,0,20.92,35.45Z"/><path class="cls-1" d="M29.41,15.29a.74.74,0,0,0,1-.39l1.51-3.59a.74.74,0,0,0-1.36-.57L29,14.32A.74.74,0,0,0,29.41,15.29Z"/><path class="cls-1" d="M10.66,19.9l.09,0,.52.22L14,21.32A.74.74,0,1,0,14.62,20L11.84,18.8l-.52-.22a.75.75,0,0,0-1,.36A.74.74,0,0,0,10.66,19.9Z"/><path class="cls-1" d="M39.87,30.6,36.13,29a.74.74,0,1,0-.57,1.36L39.29,32a.74.74,0,0,0,.57-1.36Z"/><path class="cls-1" d="M14.56,30.37A.74.74,0,1,0,14,29l-2.8,1.14-.59.24a.75.75,0,0,0-.5,1,.74.74,0,0,0,1,.41l.08,0,.61-.25Z"/><path class="cls-1" d="M35.22,21.15a.74.74,0,0,0,1,.4l3.66-1.49h0a.74.74,0,1,0-.56-1.36l-3.66,1.49A.74.74,0,0,0,35.22,21.15Z"/><path class="cls-1" d="M18.76,11.3l.14.34,1.19,2.92A.74.74,0,0,0,21.45,14l-1.19-2.92c-.19-.46-.44-1.1-1.13-.82a.74.74,0,0,0-.41,1Z"/><path class="cls-1" d="M31.8,39.46v0c-.23-.63-1-2.42-1.53-3.81a.74.74,0,0,0-1.37.56c.81,2,1.33,3.29,1.51,3.77l0,.06a.73.73,0,0,0,.68.46.74.74,0,0,0,.69-1Z"/></svg>