<svg id="Layer_1" data-name="Layer 1" xmlns="http://www.w3.org/2000/svg" viewBox="0 0 50.46 50.46"><defs><style>.cls-1{fill:#65b4e1;}</style></defs><title>sube</title><path class="cls-1" d="M44.3,9.6H6.16a3.11,3.11,0,0,0-3.11,3.11v25a3.11,3.11,0,0,0,3.11,3.11H44.3a3.11,3.11,0,0,0,3.11-3.11v-25A3.11,3.11,0,0,0,44.3,9.6Zm1.33,28.14a1.33,1.33,0,0,1-1.33,1.33H6.16a1.33,1.33,0,0,1-1.33-1.33v-25a1.33,1.33,0,0,1,1.33-1.33H44.3a1.33,1.33,0,0,1,1.33,1.33Z"/><path class="cls-1" d="M13,21.95a1.67,1.67,0,0,1,1.14.36,1.27,1.27,0,0,1,.41,1h1.93A2.69,2.69,0,0,0,16,21.8a2.85,2.85,0,0,0-1.22-1A4.22,4.22,0,0,0,13,20.41a4.63,4.63,0,0,0-1.8.34,2.8,2.8,0,0,0-1.23.93A2.27,2.27,0,0,0,9.56,23a2.6,2.6,0,0,0,1.6,2.33,9.87,9.87,0,0,0,1.59.64,5.07,5.07,0,0,1,1.39.62,1,1,0,0,1,.39.84.91.91,0,0,1-.39.78,1.81,1.81,0,0,1-1.08.28q-1.86,0-1.86-1.55H9.27a2.78,2.78,0,0,0,.47,1.6,3.12,3.12,0,0,0,1.36,1.09,4.79,4.79,0,0,0,2,.4,4,4,0,0,0,2.48-.69,2.26,2.26,0,0,0,.92-1.91,2.45,2.45,0,0,0-.75-1.83,5.86,5.86,0,0,0-2.4-1.23A5.21,5.21,0,0,1,12,23.81.91.91,0,0,1,11.5,23a1,1,0,0,1,.39-.79A1.78,1.78,0,0,1,13,21.95Z"/><path class="cls-1" d="M22.95,26.78q0,1.71-1.66,1.71a1.69,1.69,0,0,1-1.22-.42,1.79,1.79,0,0,1-.44-1.34V20.54H17.69v6.25a3.11,3.11,0,0,0,1,2.39,3.76,3.76,0,0,0,2.61.87,3.71,3.71,0,0,0,2.63-.9,3.16,3.16,0,0,0,1-2.44V20.54H22.95Z"/><path class="cls-1" d="M31.89,25.09a2,2,0,0,0,1-.77,2.12,2.12,0,0,0,.35-1.21,2.24,2.24,0,0,0-.88-1.92,4.32,4.32,0,0,0-2.59-.65H26.47v9.38h3.65a3.89,3.89,0,0,0,2.46-.71,2.48,2.48,0,0,0,.86-2A2.15,2.15,0,0,0,33,25.82,2,2,0,0,0,31.89,25.09Zm-3.49-3h1.35a2,2,0,0,1,1.17.28,1.08,1.08,0,0,1,.37.92q0,1.14-1.46,1.17H28.4ZM31.13,28a1.6,1.6,0,0,1-1.07.33H28.4V25.84h1.77a1.18,1.18,0,0,1,1.33,1.31A1.12,1.12,0,0,1,31.13,28Z"/><polygon class="cls-1" points="36.83 25.84 40.54 25.84 40.54 24.34 36.83 24.34 36.83 22.1 41.17 22.1 41.17 20.54 34.9 20.54 34.9 29.92 41.19 29.92 41.19 28.37 36.83 28.37 36.83 25.84"/></svg>