<svg id="Layer_1" data-name="Layer 1" xmlns="http://www.w3.org/2000/svg" viewBox="0 0 50.46 50.46"><defs><style>.cls-1{fill:#12b5e1;}</style></defs><title>subir escaleras</title><path class="cls-1" d="M19.5,11.82A3.69,3.69,0,1,0,15,9.17,3.69,3.69,0,0,0,19.5,11.82Z"/><path class="cls-1" d="M42.3,32.84H33.94A1.14,1.14,0,0,0,32.8,34V38.1H24.9a1.15,1.15,0,0,0-1.14,1.15v4.37H9.21a1.14,1.14,0,0,0,0,2.28H24.9A1.14,1.14,0,0,0,26,44.76V40.39h7.9a1.14,1.14,0,0,0,1.15-1.14V35.12H42.3a1.14,1.14,0,1,0,0-2.28Z"/><path class="cls-1" d="M8.85,26.59a1.53,1.53,0,0,0,1.22-1.39c0-.26.46-5.31,3.88-8.06l-.39,7.66a3,3,0,0,0,3.18,3.57h5.37c.35,0,1.22,0,1.88,1.52l2.4,5.67a1.52,1.52,0,0,0,2,.82,1.53,1.53,0,0,0,.81-2l-2.4-5.69a5.09,5.09,0,0,0-4.3-3.37l-3.3-.49.1-5.49a9.84,9.84,0,0,0,8.25,3.13l.18,0a1.53,1.53,0,0,0-.43-3c-5.8.46-7.54-5.05-7.64-5.31-.73-2-4-1.38-5.46-.72C7.71,16.39,7.05,24.6,7,25a1.52,1.52,0,0,0,1.41,1.63A1.46,1.46,0,0,0,8.85,26.59Z"/><path class="cls-1" d="M12.54,42.42a1.58,1.58,0,0,0,.63.13,1.51,1.51,0,0,0,1.39-.9l3.32-7.35a1.57,1.57,0,0,0,.13-.71l-.23-4.53a6.88,6.88,0,0,1-3.29-.5l.45,4.82-3.16,7A1.53,1.53,0,0,0,12.54,42.42Z"/></svg>