<svg id="Layer_1" data-name="Layer 1" xmlns="http://www.w3.org/2000/svg" viewBox="0 0 50.46 50.46"><defs><style>.cls-1{fill:#65b4e1;}</style></defs><title>surtidor</title><path class="cls-1" d="M30.91,6.85h-12a2.69,2.69,0,0,0-2.68,2.68v6.14H33.59V9.53A2.69,2.69,0,0,0,30.91,6.85Zm.84,7H18.09V9.53a.84.84,0,0,1,.84-.84h12a.84.84,0,0,1,.84.84Z"/><path class="cls-1" d="M44.66,11.77v-1c0-1.17-1-2-2.57-3.35l-1.16-1a.92.92,0,0,0-1.22,1.39l1.19,1c.81.69,1.92,1.63,1.92,1.94V11c-1.22.54-3.06,1.93-3.06,3v4.52c0,1,1.8,2.46,3.06,3.06V39a.78.78,0,1,1-1.57,0V24.38a3.17,3.17,0,0,0-.66-2.32,2.52,2.52,0,0,0-2-.81h-.83V8.39a5.55,5.55,0,0,0-5.54-5.54H17.6a5.55,5.55,0,0,0-5.54,5.54v34.4H9.45a3.66,3.66,0,0,0-3.65,3.65v1.17H44V46.44a3.66,3.66,0,0,0-3.65-3.65H37.78V23.08h.83c.42,0,.55.14.59.19a1.48,1.48,0,0,1,.2,1V39a2.63,2.63,0,1,0,5.26,0V20.89s0,0,0-.07ZM13.9,8.39A3.7,3.7,0,0,1,17.6,4.69H32.23a3.7,3.7,0,0,1,3.69,3.69v34.4h-22ZM40.39,44.63a1.81,1.81,0,0,1,1.68,1.13H7.77a1.81,1.81,0,0,1,1.68-1.13Zm2.43-25.23a5.64,5.64,0,0,1-1.21-1.08V14.1a6.15,6.15,0,0,1,1.21-1Z"/><path class="cls-1" d="M24.92,20.95a6.52,6.52,0,1,0,6.52,6.52A6.52,6.52,0,0,0,24.92,20.95Zm0,10.8a3,3,0,0,1-3-3,6.68,6.68,0,0,1,1.18-3.17,21.28,21.28,0,0,1,1.63-2.3.25.25,0,0,1,.38,0,21.32,21.32,0,0,1,1.63,2.3,6.68,6.68,0,0,1,1.18,3.17A3,3,0,0,1,24.92,31.75Z"/><circle class="cls-1" cx="24.28" cy="30.13" r="0.35"/><path class="cls-1" d="M23.59,27.18a.31.31,0,0,0-.53-.31,2.42,2.42,0,0,0,.23,2.93.31.31,0,0,0,.43-.44C22.83,28.51,23.55,27.24,23.59,27.18Z"/></svg>