<svg id="Layer_1" data-name="Layer 1" xmlns="http://www.w3.org/2000/svg" viewBox="0 0 50.46 50.46"><defs><style>.cls-1{fill:#12b5e1;}</style></defs><title>tabla_de_datos</title><path class="cls-1" d="M46.27,13.06a1.49,1.49,0,0,0,0-.21V7.51a2.87,2.87,0,0,0-2.86-2.86H7A2.86,2.86,0,0,0,4.19,7.51V43A2.86,2.86,0,0,0,7,45.81H43.39A2.87,2.87,0,0,0,46.25,43V13.27A1.49,1.49,0,0,0,46.27,13.06Zm-1.8-5.55v4.66H33.24V6.43H43.39A1.08,1.08,0,0,1,44.47,7.51ZM19,12.17V6.43H31.46v5.74ZM31.46,14V44H19V14ZM7,6.43H17.19v5.74H6V7.51A1.07,1.07,0,0,1,7,6.43ZM6,43V14H17.19V44H7A1.07,1.07,0,0,1,6,43ZM43.39,44H33.24V14H44.47V43A1.08,1.08,0,0,1,43.39,44Z"/><path class="cls-1" d="M8.67,19.76h5.71a.89.89,0,0,0,0-1.78H8.67a.89.89,0,1,0,0,1.78Z"/><path class="cls-1" d="M14.38,24.61H8.67a.89.89,0,1,0,0,1.78h5.71a.89.89,0,0,0,0-1.78Z"/><path class="cls-1" d="M14.38,31.24H8.67a.89.89,0,1,0,0,1.78h5.71a.89.89,0,1,0,0-1.78Z"/><path class="cls-1" d="M14.38,37.88H8.67a.89.89,0,1,0,0,1.78h5.71a.89.89,0,0,0,0-1.78Z"/><path class="cls-1" d="M22.36,19.76h5.71a.89.89,0,0,0,0-1.78H22.36a.89.89,0,0,0,0,1.78Z"/><path class="cls-1" d="M22.36,26.39h5.71a.89.89,0,0,0,0-1.78H22.36a.89.89,0,0,0,0,1.78Z"/><path class="cls-1" d="M22.36,33h5.71a.89.89,0,1,0,0-1.78H22.36a.89.89,0,1,0,0,1.78Z"/><path class="cls-1" d="M28.07,37.88H22.36a.89.89,0,0,0,0,1.78h5.71a.89.89,0,1,0,0-1.78Z"/><path class="cls-1" d="M41.76,18H36.05a.89.89,0,0,0,0,1.78h5.71a.89.89,0,0,0,0-1.78Z"/><path class="cls-1" d="M41.76,24.61H36.05a.89.89,0,0,0,0,1.78h5.71a.89.89,0,0,0,0-1.78Z"/><path class="cls-1" d="M41.76,31.24H36.05a.89.89,0,0,0,0,1.78h5.71a.89.89,0,0,0,0-1.78Z"/><path class="cls-1" d="M41.76,37.88H36.05a.89.89,0,1,0,0,1.78h5.71a.89.89,0,0,0,0-1.78Z"/></svg>