<svg id="Layer_1" data-name="Layer 1" xmlns="http://www.w3.org/2000/svg" viewBox="0 0 50.46 50.46"><defs><style>.cls-1{fill:#65b4e1;}</style></defs><title>teatro</title><path class="cls-1" d="M37.81,27.44a2,2,0,0,0-1.28-1.8c-1.71-.79-2.44.35-2.44,1.12s.66,1.05,1.8,1.32S37.61,28.18,37.81,27.44Z"/><path class="cls-1" d="M7.47,16.7c0,2.68,1.52,11.53,6.29,14.68s7.09,2.25,7.36,2.16,3-1.43,5.08-5.26c2.75-5,0-13.56-1.27-15.92s-2.38-1.69-4.39-.53a27.82,27.82,0,0,1-9.43,2.36C8.79,14.1,7.49,14,7.47,16.7Zm12.86,1a2.23,2.23,0,0,1,2.72.72c.3.71-.53,1.26-1.61,1.71s-2.08.92-2.43-.1A2.06,2.06,0,0,1,20.34,17.72Zm-1.06,9.63a9.56,9.56,0,0,0,3.57-1.75s.5-.74.48.21a4.59,4.59,0,0,1-3.62,3.81,4.75,4.75,0,0,1-4.88-1.84c-.44-.85.35-.4.35-.4C16.49,27.9,19.12,27.38,19.28,27.35Zm-5-7.94A2.07,2.07,0,0,1,16.35,21c.08,1.07-1,1-2.2,1S12,21.9,12,21.14,13.06,19.42,14.23,19.41Z"/><path class="cls-1" d="M31.88,26.22c.28-.72,0-2-1.88-1.9a2.35,2.35,0,0,0-1.21.43,14.73,14.73,0,0,1-.29,1.67,2.64,2.64,0,0,0,1.23.4C30.88,27,31.6,26.94,31.88,26.22Z"/><path class="cls-1" d="M31.21,39.69a6.92,6.92,0,0,0,2-.36,14.22,14.22,0,0,0,4.72-2.53c4.48-3.55,5.26-12.5,5-15.16s-1.53-2.48-3.84-2.2A27.87,27.87,0,0,1,29.5,18c-.4-.19-.77-.36-1.11-.5.16.83.29,1.68.38,2.55a26.59,26.59,0,0,0,4.93,1.23,23.52,23.52,0,0,0,5.67.36h.06c.42-.05.95-.12,1.3-.13,0,.1,0,.22.05.38a23.76,23.76,0,0,1-.68,6.54,18.18,18.18,0,0,1-1.4,3.95,8.22,8.22,0,0,1-2.12,2.77,12.1,12.1,0,0,1-4,2.15,6.49,6.49,0,0,1-1.28.27,2.91,2.91,0,0,1-1-.4,11.25,11.25,0,0,1-3.27-3.48,7.36,7.36,0,0,1-1-2.33,17.18,17.18,0,0,1-1.66,1.94,8.44,8.44,0,0,0,.83,1.6C28.45,39.59,30.93,39.65,31.21,39.69Z"/><path class="cls-1" d="M28.49,33.22a7.72,7.72,0,0,1,3.27-.13,7.89,7.89,0,0,1,3.09,1.36s.44.61.39-.19a3.92,3.92,0,0,0-3-3.06,3.77,3.77,0,0,0-4,1.69C27.87,33.62,28.49,33.22,28.49,33.22Z"/></svg>