<svg id="Layer_1" data-name="Layer 1" xmlns="http://www.w3.org/2000/svg" viewBox="0 0 50.46 50.46"><defs><style>.cls-1{fill:#65b4e1;}</style></defs><title>termotanque</title><path class="cls-1" d="M33.73,4a35.77,35.77,0,0,0-8.5-.92A34.58,34.58,0,0,0,16.67,4c-2.59.7-3.85,1.62-3.85,2.83V43.59c0,1.21,1.26,2.14,3.85,2.83a34.58,34.58,0,0,0,8.56.94,34.57,34.57,0,0,0,8.56-.94c2.59-.7,3.85-1.62,3.85-2.83V6.87C37.64,5.35,35.51,4.48,33.73,4Zm1.65,3.11V43.37c-.57.47-3.76,1.74-10.15,1.74s-9.58-1.27-10.15-1.74V7.09c.57-.47,3.76-1.74,10.15-1.74a33.46,33.46,0,0,1,7.93.85A6.31,6.31,0,0,1,35.38,7.12Z"/><path class="cls-1" d="M25.23,20.82a4.33,4.33,0,1,0-4.33-4.33A4.34,4.34,0,0,0,25.23,20.82Zm-2.81-4.38a2.81,2.81,0,1,1,2.81,2.81A2.82,2.82,0,0,1,22.42,16.43Z"/><path class="cls-1" d="M31.59,34.19H18.87a.78.78,0,0,0-.76.76v5.2a.78.78,0,0,0,.76.76H31.59a.78.78,0,0,0,.76-.76V35A.74.74,0,0,0,31.59,34.19Zm-.76,1.52v3.63H19.63V35.71Z"/><path class="cls-1" d="M25,17.17l.17.09a.56.56,0,0,0,.26.06l.17,0a.56.56,0,0,0,.33-.28l.78-1.51a.57.57,0,0,0-.24-.76l-.17-.09a.57.57,0,0,0-.76.24l-.78,1.51a.57.57,0,0,0,.24.76Z"/></svg>