<svg id="Layer_1" data-name="Layer 1" xmlns="http://www.w3.org/2000/svg" viewBox="0 0 50.46 50.46"><defs><style>.cls-1{fill:#65b4e1;}</style></defs><title>torre petroleo</title><path class="cls-1" d="M34.66,41.94H34l-5.3-25.33h.39a.75.75,0,0,0,.75-.75V12.44a.75.75,0,0,0-.75-.75h-7.8a.75.75,0,0,0-.75.75v3.41a.75.75,0,0,0,.75.75h.25L16.2,41.94h-.4a.75.75,0,0,0-.75.75V48a.75.75,0,0,0,.75.75H34.66a.75.75,0,0,0,.75-.75V42.69A.75.75,0,0,0,34.66,41.94ZM29.81,29.45l-3.61-4.51,2.12-2.64Zm-1.11,3.39-3.48,2.62-3.39-2.62Zm-7.62-1.51,4.15-5.18,4.15,5.18Zm9.53,2,1.58,7.57-5.75-4.44Zm-5.38-9.55-1.89-2.36h3.78ZM21.91,22l2.35,2.93-4,5ZM19.6,33,24,36.4l-6,4.51Zm5.59,4.32,5.94,4.58h-12ZM22,13.2H28.3v1.9H22Zm5.11,3.41.68,3.26H22.36L23,16.61ZM33.9,47.28H16.56V43.45H33.9Z"/><path class="cls-1" d="M26.12,9.94a.24.24,0,0,1-.38-.26,5.1,5.1,0,0,1,2-2.78c2.07-1.14,3.73.79,2.9,2.15C29.43,11,27.7,8.55,26.12,9.94Z"/><path class="cls-1" d="M24,10a.15.15,0,0,0,.26-.15A4.79,4.79,0,0,0,23,7.47c-1.29-1.22-2.69-.37-2.49.84C20.75,10,22.85,8.87,24,10Z"/><path class="cls-1" d="M25.1,8.12a.23.23,0,0,1-.45,0c-.44-1.66-.75-3.83.16-5.15,1.44-2.1,3.88-1.53,4.11.5s-3.1,2.16-3.73,4.18A2.42,2.42,0,0,0,25.1,8.12Z"/></svg>