<svg id="Layer_1" data-name="Layer 1" xmlns="http://www.w3.org/2000/svg" viewBox="0 0 50.46 50.46"><defs><style>.cls-1{fill:#65b4e1;}</style></defs><title>trabajador</title><path class="cls-1" d="M41.22,24.18c0-.65,0-1.31,0-2a15.93,15.93,0,0,0-10.72-15V6.33a1.13,1.13,0,1,0-2.25,0v.22a16,16,0,0,0-1.87-.22V3.63a1.13,1.13,0,0,0-2.25,0v2.7a16.06,16.06,0,0,0-1.86.23V6.33a1.13,1.13,0,0,0-2.25,0v.85a15.94,15.94,0,0,0-10.67,15c0,.94,0,1.86-.06,2.67a29.52,29.52,0,0,0,.12,5.21C9.53,46.71,15.75,48,25.23,48s15.84-1.3,15.84-18.68A36.55,36.55,0,0,0,41.22,24.18Zm-2.67,10.6C37.34,45.7,32.25,45.7,25.23,45.7S13.14,45.7,11.92,35c2.42,2.12,6.68,3.1,13.35,3.1S36.14,37.07,38.55,34.77ZM25.27,35.88c-6.35,0-10.34-.93-12.18-2.84a5.61,5.61,0,0,1-1.44-3.15v-.15c0-.07,0-.14,0-.22v-.12h-.07a31.13,31.13,0,0,1,0-4.46h0c0-.89.06-1.81.06-2.74A13.63,13.63,0,0,1,20,9.58V11.8a1.13,1.13,0,0,0,2.25,0V8.87a13.66,13.66,0,0,1,1.86-.29v5a1.13,1.13,0,0,0,2.25,0v-5a13.64,13.64,0,0,1,1.87.28V11.8a1.13,1.13,0,0,0,2.25,0V9.56A13.62,13.62,0,0,1,38.95,22.2c0,.68,0,1.35,0,2,.06,3.66.11,6.82-1.84,8.8S31.35,35.88,25.27,35.88Z"/></svg>