<svg id="Layer_1" data-name="Layer 1" xmlns="http://www.w3.org/2000/svg" viewBox="0 0 50.46 50.46"><defs><style>.cls-1{fill:#12b5e1;}</style></defs><title>transporte publico dut</title><path class="cls-1" d="M12.55,13.65V26a.9.9,0,0,0,.9.9h14.7a.9.9,0,0,0,0-1.8H23.7V19.87a1.79,1.79,0,0,0-1.79-1.78H18.09a1.79,1.79,0,0,0-1.79,1.78V25.1h-2V13.65a.92.92,0,0,1,.92-.92H36.64a.92.92,0,0,1,.92.92V25.1H33.79a.9.9,0,0,0,0,1.8h4.67a.9.9,0,0,0,.9-.9V13.65a2.72,2.72,0,0,0-2.72-2.72H15.27A2.72,2.72,0,0,0,12.55,13.65Zm5.15,6.22a.38.38,0,0,1,.39-.38h3.82a.38.38,0,0,1,.39.38V25.1H17.7Z"/><path class="cls-1" d="M31.56,25.1h-.1a.9.9,0,1,0,0,1.8h.1a.9.9,0,0,0,0-1.8Z"/><path class="cls-1" d="M15.58,32.12A2.84,2.84,0,1,0,18.42,35,2.84,2.84,0,0,0,15.58,32.12Zm0,4A1.12,1.12,0,1,1,16.7,35,1.12,1.12,0,0,1,15.58,36.08Z"/><path class="cls-1" d="M36.33,32.12A2.84,2.84,0,1,0,39.17,35,2.84,2.84,0,0,0,36.33,32.12Zm0,4A1.12,1.12,0,1,1,37.45,35,1.12,1.12,0,0,1,36.33,36.08Z"/><path class="cls-1" d="M44,15.36h-.89V10a1.8,1.8,0,0,0-1.19-1.69A48.64,48.64,0,0,0,26,5.93,48.58,48.58,0,0,0,10,8.34,1.79,1.79,0,0,0,8.79,10v5.33h-.9A2.14,2.14,0,0,0,5.75,17.5v4.91a2.14,2.14,0,0,0,2.14,2.14h.9V39a2.9,2.9,0,0,0,2.9,2.9h.16v2.82A2.28,2.28,0,0,0,14.13,47H17a2.28,2.28,0,0,0,2.28-2.28V41.9H32.59v2.82A2.29,2.29,0,0,0,34.88,47h2.89a2.29,2.29,0,0,0,2.29-2.28V41.9h.15A2.91,2.91,0,0,0,43.12,39V24.55H44a2.14,2.14,0,0,0,2.15-2.14V17.5A2.14,2.14,0,0,0,44,15.36ZM8.79,22.75h-.9a.34.34,0,0,1-.34-.34V17.5a.34.34,0,0,1,.34-.34h.9Zm8.72,22a.49.49,0,0,1-.48.48h-2.9a.48.48,0,0,1-.48-.48V41.9h3.86Zm20.75,0a.49.49,0,0,1-.49.48H34.88a.49.49,0,0,1-.49-.48V41.9h3.87ZM41.32,39a1.11,1.11,0,0,1-1.11,1.1H11.69a1.1,1.1,0,0,1-1.1-1.1V10A47.13,47.13,0,0,1,26,7.73,47.23,47.23,0,0,1,41.32,10Zm3-16.59a.35.35,0,0,1-.35.34h-.89V17.16H44a.35.35,0,0,1,.35.34Z"/></svg>