<svg id="Layer_1" data-name="Layer 1" xmlns="http://www.w3.org/2000/svg" viewBox="0 0 50.46 50.46"><defs><style>.cls-1{fill:#65b4e1;}</style></defs><title>tumba</title><circle class="cls-1" cx="24.72" cy="17.31" r="2.01"/><path class="cls-1" d="M24.74,11.89c-2.84,0-5.15,2.93-5.15,6.52s2.31,6.52,5.15,6.52S29.9,22,29.9,18.42,27.58,11.89,24.74,11.89ZM28,21.71a4.28,4.28,0,0,0-1.82-2,2.44,2.44,0,0,1-.63.31l-.05,0-.28.07h-.07l-.35,0-.35,0h-.07L24,20,24,20a2.44,2.44,0,0,1-.63-.31,4.28,4.28,0,0,0-1.82,2,6.64,6.64,0,0,1-.84-3.29c0-3,1.82-5.42,4-5.42s4,2.43,4,5.42A6.64,6.64,0,0,1,28,21.71Z"/><path class="cls-1" d="M44.47,43.26H38.94V18.15A14.23,14.23,0,0,0,31.7,5.78C27,3.13,21.42,3.36,16.39,6.41a12.46,12.46,0,0,0-5.84,10.67V43.26H5a1.63,1.63,0,0,0,0,3.25H44.47a1.63,1.63,0,1,0,0-3.25Zm-7.7,0H12.71V17.09a10.28,10.28,0,0,1,4.8-8.82c4.35-2.63,9.13-2.85,13.12-.6a12.06,12.06,0,0,1,6.14,10.49Z"/></svg>