<svg id="Layer_1" data-name="Layer 1" xmlns="http://www.w3.org/2000/svg" viewBox="0 0 50.46 50.46"><defs><style>.cls-1{fill:#65b4e1;}</style></defs><title>urbanizacion</title><path class="cls-1" d="M43.58,37.41H40a1,1,0,0,0-1,1v.24a1,1,0,0,0,.82.94v.34H38.77a1,1,0,0,0-.94-.8h-.24a1,1,0,0,0-.94.8H30a1,1,0,0,0-.94-.8H28.8a1,1,0,0,0-.94.8H26.73v-.34a1,1,0,0,0,.82-.94v-.24a1,1,0,0,0-1-1H23a1,1,0,0,0-1,1v.24a1,1,0,0,0,.82.94v.34H21.72a1,1,0,0,0-.94-.8h-.24a1,1,0,0,0-.94.8H12.87a1,1,0,0,0-.94-.8h-.24a1,1,0,0,0-.94.8H9.62v-.34a1,1,0,0,0,.82-.94v-.24a1,1,0,0,0-1-1H5.94a1,1,0,0,0-1,1v.24a1,1,0,0,0,.91,1v2.2a1.86,1.86,0,0,0,1.86,1.86h3a1,1,0,0,0,1,.93h.24a1,1,0,0,0,1-.93h6.7a1,1,0,0,0,1,.93h.24a1,1,0,0,0,1-.93h6.11a1,1,0,0,0,1,.94H29a1,1,0,0,0,1-.93h6.64a1,1,0,0,0,1,.93h.24a1,1,0,0,0,1-.93h3a1.86,1.86,0,0,0,1.86-1.86v-2.2a1,1,0,0,0,.91-1v-.24A1,1,0,0,0,43.58,37.41ZM5.94,38.81a.2.2,0,0,1-.2-.2v-.24a.2.2,0,0,1,.2-.2H9.49a.2.2,0,0,1,.2.2v.24a.2.2,0,0,1-.2.2Zm4.79,1.92v2.06h-3a1,1,0,0,1-1-1v-2.2H8.78v1.17Zm1.4,2.87a.2.2,0,0,1-.2.2h-.24a.2.2,0,0,1-.2-.2V40.05a.2.2,0,0,1,.2-.2h.24a.2.2,0,0,1,.2.2Zm7.45-.81h-6.7V40.74h6.7Zm1.4.81a.2.2,0,0,1-.2.2h-.24a.2.2,0,0,1-.2-.2V40.05a.2.2,0,0,1,.2-.2h.24a.2.2,0,0,1,.2.2Zm1.87-5.24a.2.2,0,0,1,.2-.2h3.48a.2.2,0,0,1,.2.2v.24a.2.2,0,0,1-.2.2H23.05a.2.2,0,0,1-.2-.2Zm5,4.42H21.74V40.74h1.95V39.57H25.9v1.17h1.95Zm1.4.82a.2.2,0,0,1-.2.2H28.8a.2.2,0,0,1-.2-.2V40.05a.2.2,0,0,1,.2-.2H29a.2.2,0,0,1,.2.2Zm7.39-.81H30V40.74h6.64Zm1.4.81a.2.2,0,0,1-.2.2h-.24a.2.2,0,0,1-.2-.2V40.05a.2.2,0,0,1,.2-.2h.24a.2.2,0,0,1,.2.2Zm4.76-1.84a1,1,0,0,1-1,1h-3V40.74h1.95V39.57h2.05Zm1-3.15a.2.2,0,0,1-.2.2H40a.2.2,0,0,1-.2-.2v-.24a.2.2,0,0,1,.2-.2h3.55a.2.2,0,0,1,.2.2Z"/><path class="cls-1" d="M49.07,17.38A6.67,6.67,0,1,0,41.8,24v7a3.43,3.43,0,0,0-.68,0,3.3,3.3,0,0,0-1.1.3,5,5,0,0,0-6-2.78l-.25.1v-12a.81.81,0,0,0-.33-.65L25.14,10a.8.8,0,0,0-.94,0L15.92,16a.81.81,0,0,0-.33.65V28.49a5,5,0,0,0-5.48,2.87,3.31,3.31,0,0,0-1.1-.3,3.41,3.41,0,0,0-.51,0V23H9.87a.5.5,0,0,0,.42-.23l.9-1.37,0,0a3,3,0,0,0,.3,0,3.12,3.12,0,1,0-1.32-.31L9.6,22H6.38l-.59-.9a3.07,3.07,0,1,0-1.32.31,3,3,0,0,0,.3,0l0,0,.9,1.37a.5.5,0,0,0,.42.23H7.49v8.24a3.39,3.39,0,0,0-2.24,2.89,3.76,3.76,0,0,0,.08,1.18H4.2a.75.75,0,1,0,0,1.5H46.26a.75.75,0,0,0,0-1.5H44.89a7,7,0,0,0,0-1.18,3.42,3.42,0,0,0-1.24-2.33,3.47,3.47,0,0,0-.64-.41V24A6.68,6.68,0,0,0,49.07,17.38Zm-39.64.94a2.08,2.08,0,1,1,2.08,2.08A2.08,2.08,0,0,1,9.43,18.32Zm-5,2.08a2.08,2.08,0,1,1,2.08-2.08A2.08,2.08,0,0,1,4.47,20.4ZM15.59,35.33H6.36a2.79,2.79,0,0,1-.12-1.09,2.42,2.42,0,0,1,3.83-1.75l.56.39.21-.65a4.05,4.05,0,0,1,4.75-2.74Zm12,0H21.9v-13h5.73Zm4.53,0H28.63V21.82a.5.5,0,0,0-.5-.5H21.4a.5.5,0,0,0-.5.5V35.33H17.19V17.09l7.49-5.48,7.49,5.48ZM43,32.6a2.43,2.43,0,0,1,.88,1.65,5.54,5.54,0,0,1,0,1.09H33.76V29.75a4,4,0,0,1,.53-.21,4.06,4.06,0,0,1,5,2.7l.21.65.56-.4A2.4,2.4,0,0,1,41.22,32,2.43,2.43,0,0,1,43,32.6ZM42.4,16.78a.6.6,0,0,0-.6.6v2.84a2,2,0,0,1-1.19-1.85.6.6,0,1,0-1.2,0,3.14,3.14,0,0,0,2.39,3.11V23A5.66,5.66,0,1,1,43,23V21.48a3.14,3.14,0,0,0,2.39-3.11.6.6,0,1,0-1.2,0A2,2,0,0,1,43,20.22V17.38A.6.6,0,0,0,42.4,16.78Z"/><path class="cls-1" d="M14.95,14.71h.14a.85.85,0,0,0,.5-.17l9.08-6.72,9.26,6.73a.89.89,0,0,0,1.21-.19.87.87,0,0,0-.19-1.2l-9.77-7.1a.85.85,0,0,0-1,0l-4.5,3.29V6.76a.86.86,0,1,0-1.72,0v3.86l-3.37,2.54a.87.87,0,0,0-.19,1.2A.85.85,0,0,0,14.95,14.71Z"/></svg>