<svg id="Layer_1" data-name="Layer 1" xmlns="http://www.w3.org/2000/svg" viewBox="0 0 50.46 50.46"><defs><style>.cls-1{fill:#65b4e1;}</style></defs><title>vacunas</title><path class="cls-1" d="M2.87,9.74a2.36,2.36,0,0,0,2.27,2.45,2.36,2.36,0,0,0,2.3-2.42c0-1.34-2.26-4.24-2.26-4.24C5,5.53,2.87,8.4,2.87,9.74Z"/><path class="cls-1" d="M47.43,39.08a.56.56,0,0,0-.83,0l-3.13,3.28L39.42,38,42,35.21a2.62,2.62,0,0,0,0-3.53L21.56,9.44a2.26,2.26,0,0,0-1.65-.75h0a2.26,2.26,0,0,0-1.66.72l-.38.4a1.57,1.57,0,0,0-.22-.37l-.18-.19a1.45,1.45,0,0,0-2.14,0L14,10.67,6.85,3,4.9,2.8,13,11.63,12,12.77a1.69,1.69,0,0,0,0,2.28l.18.19a1.48,1.48,0,0,0,.34.25l-.38.4a2.62,2.62,0,0,0,0,3.53L32.57,41.64a2.24,2.24,0,0,0,3.31,0l2.63-2.76,4.05,4.39-3.13,3.28a.66.66,0,0,0,0,.88.56.56,0,0,0,.83,0L47.42,40A.66.66,0,0,0,47.43,39.08ZM20.32,18a.66.66,0,0,1,0-.88l3.35-3.51.82.89L21.15,18A.56.56,0,0,1,20.32,18Zm4.13,0,1.67-1.76.82.89-1.67,1.76a.56.56,0,0,1-.83,0A.66.66,0,0,1,24.45,18Zm.77,4.41,3.35-3.51.82.89-3.35,3.51a.56.56,0,0,1-.83,0A.65.65,0,0,1,25.23,22.37Zm9.83,18.41a1.13,1.13,0,0,1-.83.36h0a1.13,1.13,0,0,1-.82-.37L22.46,28.9l7.83-8.22.75.81-1.69,1.77a.66.66,0,0,0,0,.88.56.56,0,0,0,.83,0l1.69-1.77,1.63,1.76-3.36,3.53a.66.66,0,0,0,0,.88.56.56,0,0,0,.83,0L34.31,25l1.63,1.76-1.69,1.77a.66.66,0,0,0,0,.88.56.56,0,0,0,.83,0l1.69-1.77,1.63,1.76L35,33a.66.66,0,0,0,0,.88.56.56,0,0,0,.83,0l3.36-3.53,2,2.2a1.31,1.31,0,0,1,0,1.76Z"/></svg>