<svg id="Layer_1" data-name="Layer 1" xmlns="http://www.w3.org/2000/svg" viewBox="0 0 50.46 50.46"><defs><style>.cls-1{fill:#12b5e1;}</style></defs><title>validacion identidad</title><path class="cls-1" d="M21.76,21a.9.9,0,0,0-.93-.86A.89.89,0,0,0,20,21c0,.08.25,7-3.65,11.12A9.51,9.51,0,0,1,10.47,35a12.57,12.57,0,0,0,1,1.67,11.12,11.12,0,0,0,6.11-3.24C22.05,28.76,21.78,21.26,21.76,21Z"/><path class="cls-1" d="M23.71,30.24a10.48,10.48,0,0,1-1.16-2.07,16.14,16.14,0,0,1-3.63,6.46,12.61,12.61,0,0,1-6,3.52,12.49,12.49,0,0,0,1.75,1.34,14.33,14.33,0,0,0,5.57-3.62A16.74,16.74,0,0,0,23.71,30.24Z"/><path class="cls-1" d="M18.17,21.1a2.68,2.68,0,0,1,2.58-2.81h.08a2.74,2.74,0,0,1,2.06.93,10.48,10.48,0,0,1,1-1.56,4.51,4.51,0,0,0-3-1.17h-.16a4.51,4.51,0,0,0-4.3,4.69s.12,5.57-2.65,8.47a6.26,6.26,0,0,1-4.41,1.79,11.87,11.87,0,0,0,.44,1.78A7.88,7.88,0,0,0,15,30.89C18.36,27.41,18.17,21.16,18.17,21.1Z"/><path class="cls-1" d="M14.57,21.26a6.57,6.57,0,0,1,1.65-4.53,6.26,6.26,0,0,1,4.37-2h.25a6.31,6.31,0,0,1,4.22,1.63,9.94,9.94,0,0,1,1.43-1.16,8.11,8.11,0,0,0-5.65-2.27h-.33a8.09,8.09,0,0,0-5.62,2.62,8.5,8.5,0,0,0-2.12,5.83c0,.81,0,1.5-.08,2.09a5.12,5.12,0,0,1-1.12,3.48,3.28,3.28,0,0,1-2.41.9c0,.41,0,.79,0,1.11h0v.15c0,.19,0,.38,0,.57a4.66,4.66,0,0,0,3.24-1.24C14.26,26.48,14.57,24.38,14.57,21.26Z"/><path class="cls-1" d="M10.36,25.71A3.51,3.51,0,0,0,11,23.5c0-1.05,0-1.93,0-2.08a9.91,9.91,0,0,1,9.48-10.33h.39a10,10,0,0,1,7.29,3.18A10.45,10.45,0,0,1,30,13.66a11.65,11.65,0,0,0-9.12-4.37h-.46A11.69,11.69,0,0,0,9.18,21.5c0,.3,0,2.51,0,4.61A1.58,1.58,0,0,0,10.36,25.71Z"/><path class="cls-1" d="M22.16,36.39a14.19,14.19,0,0,0,5,3.07,11.2,11.2,0,0,0,1.73-1.33A12.7,12.7,0,0,1,23.26,35C22.92,35.44,22.55,35.92,22.16,36.39Z"/><path class="cls-1" d="M20.88,37.68l-.26.25a17.66,17.66,0,0,1-3.81,2.62,11,11,0,0,0,2.48.62A19.45,19.45,0,0,0,20.9,40a16.69,16.69,0,0,0,1.58,1.11A12,12,0,0,0,25,40.51a16.11,16.11,0,0,1-3.83-2.58Z"/><path class="cls-1" d="M25.51,32.14c-.15-.16-.29-.34-.43-.51l-.06.13c-.24.55-.5,1.09-.8,1.64a11,11,0,0,0,6,3.19,11.68,11.68,0,0,0,1-1.65,9.6,9.6,0,0,1-5.36-2.43Z"/><path class="cls-1" d="M32.41,15.16a8.89,8.89,0,1,0,8.89,8.89A8.9,8.9,0,0,0,32.41,15.16Zm0,16.07a7.18,7.18,0,1,1,7.17-7.18A7.18,7.18,0,0,1,32.41,31.23Z"/><polygon class="cls-1" points="36.45 19.84 31.34 24.34 28.45 21.43 26.84 22.85 31.41 28.54 31.41 28.54 37.98 21.18 36.45 19.84"/></svg>