<svg id="Layer_1" data-name="Layer 1" xmlns="http://www.w3.org/2000/svg" viewBox="0 0 50.46 50.46"><defs><style>.cls-1{fill:#12b5e1;}</style></defs><title>viento zonda</title><path class="cls-1" d="M43.34,43.77c-.23,0-21.46.45-27.36-31.76a.9.9,0,0,0-.82-.74.89.89,0,0,0-.92.61l-.77,2.26L12.3,6.21a.9.9,0,0,0-.86-.77h0a.89.89,0,0,0-.88.72c-7.8,38.39-7.8,38.39-7.8,38.49a.89.89,0,0,0,.81.89.91.91,0,0,0,1-.72c0-.14,1.74-8.54,3.54-17.43l.9,2.5a.91.91,0,0,0,.72.59h.12a.91.91,0,0,0,.74-.39L13,26.56l3,3.35a.9.9,0,0,0,1.52-.31l1-2.94C27,44.94,41.71,45.57,43.35,45.57h.15a.9.9,0,0,0-.16-1.8Zm-27-16.19-2.78-3.07a.89.89,0,0,0-.72-.29.93.93,0,0,0-.68.38l-2.12,3L8.75,24c.94-4.64,1.86-9.14,2.52-12.42l1,6.55a.88.88,0,0,0,.8.76.92.92,0,0,0,.94-.61l.9-2.65a60,60,0,0,0,2.65,8.6Z"/><path class="cls-1" d="M34.88,30.63a4.12,4.12,0,0,0,.94-.08,3.88,3.88,0,0,0,2.79-2.23,4,4,0,0,0,.17-2.08A3.5,3.5,0,0,0,37.25,24a2.89,2.89,0,0,0-2.2-.42h0a2.93,2.93,0,0,0-1.87,1.27,2.5,2.5,0,0,0,.72,3.45,2.23,2.23,0,0,0,1.63.31l.09,0a1.85,1.85,0,0,0,1.2-.91.8.8,0,0,0,0-.84.53.53,0,0,0-.48-.27.73.73,0,0,0-.59.46.7.7,0,0,1-.47.36,1,1,0,0,1-.75-.12,1.26,1.26,0,0,1-.36-1.74,1.72,1.72,0,0,1,1.09-.75h0a1.72,1.72,0,0,1,1.29.25,2.29,2.29,0,0,1,.71,3.11h0a2.67,2.67,0,0,1-2.38,1.27c-2.72-.06-6.28-3.26-8.29-7.46a.61.61,0,1,0-1.1.53C27.75,27.14,31.69,30.56,34.88,30.63Z"/><path class="cls-1" d="M46.36,31.2a4.83,4.83,0,0,0-3.43-1.49,4.09,4.09,0,0,0-4.16,4,3.45,3.45,0,0,0,3.38,3.51,2.93,2.93,0,0,0,3-2.88.88.88,0,1,0-1.75,0,1.17,1.17,0,0,1-1.2,1.15,1.69,1.69,0,0,1-1.66-1.72,2.35,2.35,0,0,1,2.38-2.29,3.18,3.18,0,0,1,2.2,1A3.12,3.12,0,0,1,46,34.66a4.11,4.11,0,0,1-1.27,2.91,4,4,0,0,1-2.94,1.15,9.9,9.9,0,0,1-3.62-1.17,28.24,28.24,0,0,1-14-14.11L22.74,20a.91.91,0,0,0-1.18-.48.9.9,0,0,0-.48,1.18l1.45,3.44A29.51,29.51,0,0,0,39.24,40h0a8.1,8.1,0,0,0,2.64.54,5.67,5.67,0,0,0,4-1.66,5.84,5.84,0,0,0,1.81-4.14A4.89,4.89,0,0,0,46.36,31.2Z"/></svg>