<svg id="Layer_1" data-name="Layer 1" xmlns="http://www.w3.org/2000/svg" viewBox="0 0 50.46 50.46"><defs><style>.cls-1{fill:#65b4e1;}</style></defs><title>vivienda mas</title><path class="cls-1" d="M25.7,13.71a.8.8,0,0,0-.94,0l-12.14,8.8a.8.8,0,0,0-.33.65V40.74a.8.8,0,0,0,.8.8H37.37a.8.8,0,0,0,.8-.8V23.16a.8.8,0,0,0-.33-.65ZM36.57,39.94H13.89V23.57l11.34-8.22,11.34,8.22Z"/><path class="cls-1" d="M40.93,20.17l-15.18-11a.89.89,0,0,0-1,0l-7.17,5.2V9.89a.89.89,0,1,0-1.79,0v5.79L9.53,20.17a.89.89,0,0,0,1,1.45L25.23,11,39.88,21.62a.89.89,0,0,0,1-1.45Z"/><path class="cls-1" d="M24.1,24.48v4h-4a.67.67,0,0,0-.67.67V30a.67.67,0,0,0,.67.67h4v4a.67.67,0,0,0,.67.67h.92a.67.67,0,0,0,.67-.67v-4h4A.67.67,0,0,0,31,30v-.92a.67.67,0,0,0-.67-.67h-4v-4a.67.67,0,0,0-.67-.67h-.92A.67.67,0,0,0,24.1,24.48Z"/><path class="cls-1" d="M15.55,29.58a9.68,9.68,0,1,0,9.68-9.68A9.69,9.69,0,0,0,15.55,29.58Zm17.85,0a8.17,8.17,0,1,1-8.17-8.17A8.18,8.18,0,0,1,33.4,29.58Z"/></svg>