<svg id="Capa_1" data-name="Capa 1" xmlns="http://www.w3.org/2000/svg" viewBox="0 0 1064.67 169.4"><defs><style>.cls-1{fill:#0060ad;}.cls-2{fill:#0094d4;}.cls-3{fill:#a3cfe0;}.cls-4{fill:#60bbe1;}.cls-5{fill:#fff;}</style></defs><title>miargentina</title><path class="cls-1" d="M285.34,49.65a10.48,10.48,0,0,1,10.56-10.56h2.33a10.84,10.84,0,0,1,9.6,5.49l25.52,41.57L359,44.44a10.34,10.34,0,0,1,9.47-5.35h2.33a10.48,10.48,0,0,1,10.56,10.56v76.29a10.5,10.5,0,1,1-21,0V78.05l-18.52,28.54c-2.2,3.29-4.94,5.35-8.78,5.35s-6.59-2.06-8.78-5.35L306.06,78.47v47.75a10.31,10.31,0,0,1-10.43,10.29,10.19,10.19,0,0,1-10.29-10.29V49.65Z" transform="translate(0 -2.43)"/><path class="cls-1" d="M398.52,44.58c0-6,5.08-9.74,11.66-9.74s11.66,3.7,11.66,9.74v0.27c0,6-5.08,9.88-11.66,9.88s-11.66-3.84-11.66-9.88V44.58Zm1.24,27.17a10.43,10.43,0,1,1,20.86,0v54.33a10.43,10.43,0,0,1-20.86,0V71.75Z" transform="translate(0 -2.43)"/><path class="cls-2" d="M435.14,128.55l39-85.2c1.37-3,3.43-4.8,6.86-4.8h0.55c3.3,0,5.49,1.78,6.73,4.8l39,85.07a7.31,7.31,0,0,1,.69,2.74,5.21,5.21,0,0,1-5.21,5.21c-2.61,0-4.39-1.78-5.35-4l-10-22.09H454.63l-10,22.36a5.42,5.42,0,0,1-5.21,3.71,4.92,4.92,0,0,1-4.94-4.94A6.27,6.27,0,0,1,435.14,128.55Zm67.92-28.13L481,51.3l-22.09,49.12h44.18Z" transform="translate(0 -2.43)"/><path class="cls-2" d="M543.38,69.41a5.33,5.33,0,0,1,5.21-5.35,5.28,5.28,0,0,1,5.35,5.35V82.72c5.21-11.8,15.5-18.93,24.42-18.93a5.08,5.08,0,0,1,5.21,5.35,5.24,5.24,0,0,1-4.67,5.35c-13.72,1.65-25,11.94-25,32.38V131a5.28,5.28,0,1,1-10.56,0V69.41Z" transform="translate(0 -2.43)"/><path class="cls-2" d="M597.29,149.54a4.88,4.88,0,0,1-2.74-4.39,5,5,0,0,1,4.8-4.67,4.25,4.25,0,0,1,2.34.69,44.79,44.79,0,0,0,25.11,7.68c15.64,0,25.8-8.64,25.8-25.24v-8.37c-6.17,8.23-14.82,15-27.86,15-17,0-33.34-12.76-33.34-33.2V96.71c0-20.72,16.46-33.48,33.34-33.48,13.31,0,22,6.59,27.72,14.27v-8.1a5.24,5.24,0,0,1,5.21-5.35A5.36,5.36,0,0,1,663,69.41v53.92c0,11-3.3,19.35-9.06,25.11-6.31,6.31-15.78,9.47-27,9.47A55.53,55.53,0,0,1,597.29,149.54Zm55.57-52.69V96.58c0-14.54-12.62-24-26.07-24s-24.56,9.33-24.56,23.87v0.28c0,14.27,11.39,24.15,24.56,24.15C640.24,120.86,652.86,111.12,652.86,96.85Z" transform="translate(0 -2.43)"/><path class="cls-2" d="M714.17,137.33c-19.48,0-35.4-15-35.4-36.91v-0.28c0-20.44,14.4-36.91,34-36.91,21,0,32.93,17.15,32.93,35.95a4.92,4.92,0,0,1-4.94,4.94H689.47c1.51,15.36,12.35,24,25,24a29,29,0,0,0,20.44-8.23,4.56,4.56,0,0,1,7.68,3.29,4.55,4.55,0,0,1-1.65,3.43C734.2,133.08,726.24,137.33,714.17,137.33Zm21-41c-1.09-12.9-8.51-24.15-22.64-24.15-12.35,0-21.68,10.29-23.05,24.15h45.69Z" transform="translate(0 -2.43)"/><path class="cls-2" d="M760.94,69.41a5.33,5.33,0,0,1,5.21-5.35,5.28,5.28,0,0,1,5.35,5.35v7.68c4.66-7.68,12.07-13.86,24.28-13.86,17.15,0,27.17,11.53,27.17,28.4V131a5.28,5.28,0,1,1-10.56,0V94.25c0-13.17-7.14-21.41-19.62-21.41-12.21,0-21.26,8.92-21.26,22.23V131a5.16,5.16,0,0,1-5.22,5.35,5.27,5.27,0,0,1-5.35-5.35V69.41Z" transform="translate(0 -2.43)"/><path class="cls-2" d="M845.72,116.88V74.08H840a4.81,4.81,0,0,1-4.67-4.67A4.71,4.71,0,0,1,840,64.75h5.76V48a5.24,5.24,0,0,1,5.21-5.35A5.45,5.45,0,0,1,856.28,48V64.75h18.39a4.84,4.84,0,0,1,4.8,4.66,4.75,4.75,0,0,1-4.8,4.67H856.28v41.44c0,8.64,4.8,11.8,11.94,11.8,3.7,0,5.62-1,6.45-1a4.57,4.57,0,0,1,4.53,4.53,4.41,4.41,0,0,1-3,4.12,26.74,26.74,0,0,1-10.43,1.92C854.36,136.91,845.72,131.29,845.72,116.88Z" transform="translate(0 -2.43)"/><path class="cls-2" d="M894,42.52c0-3.43,2.74-5.63,6.17-5.63s6.31,2.2,6.31,5.63V44.3c0,3.29-2.74,5.62-6.31,5.62S894,47.6,894,44.3V42.52Zm1,26.89a5.33,5.33,0,0,1,5.22-5.35,5.27,5.27,0,0,1,5.35,5.35V131a5.16,5.16,0,0,1-5.21,5.35A5.27,5.27,0,0,1,895,131V69.41Z" transform="translate(0 -2.43)"/><path class="cls-2" d="M926.65,69.41a5.33,5.33,0,0,1,5.21-5.35,5.28,5.28,0,0,1,5.35,5.35v7.68c4.66-7.68,12.07-13.86,24.28-13.86,17.15,0,27.17,11.53,27.17,28.4V131a5.28,5.28,0,1,1-10.56,0V94.25c0-13.17-7.14-21.41-19.62-21.41-12.21,0-21.26,8.92-21.26,22.23V131a5.16,5.16,0,0,1-5.22,5.35,5.27,5.27,0,0,1-5.35-5.35V69.41Z" transform="translate(0 -2.43)"/><path class="cls-2" d="M1002.38,115.1v-0.27c0-15,12.35-22.91,30.32-22.91a75.31,75.31,0,0,1,21.81,3V92.46c0-12.76-7.82-19.35-21.13-19.35a44.3,44.3,0,0,0-18.39,4,5.35,5.35,0,0,1-1.92.41,4.69,4.69,0,0,1-4.66-4.53,4.84,4.84,0,0,1,2.88-4.39,56,56,0,0,1,23.19-4.8c10,0,17.7,2.61,22.91,7.82,4.8,4.8,7.27,11.66,7.27,20.72v38.83a5,5,0,0,1-5.08,5.21,4.87,4.87,0,0,1-5.08-4.94V125c-4.94,6.45-13.17,12.21-25.65,12.21C1015.68,137.19,1002.38,129.65,1002.38,115.1Zm52.27-5.49v-6.86a74,74,0,0,0-20.85-3c-13.31,0-20.72,5.76-20.72,14.68v0.28c0,8.92,8.23,14.13,17.84,14.13C1043.95,128.82,1054.65,120.86,1054.65,109.61Z" transform="translate(0 -2.43)"/><path class="cls-3" d="M96.87,3L231.34,41.39A15.57,15.57,0,0,1,242,60.63l-28.5,99.9a15.57,15.57,0,0,1-19.24,10.7l-53.56-15.28-19.07,15-8.28-22.81L59.83,132.87a15.57,15.57,0,0,1-10.7-19.24l28.5-99.9A15.57,15.57,0,0,1,96.87,3Z" transform="translate(0 -2.43)"/><path class="cls-4" d="M145.77,3L11.3,41.39A15.57,15.57,0,0,0,.6,60.63l28.5,99.9a15.57,15.57,0,0,0,19.24,10.7l53.56-15.28L121,171l8.28-22.81,53.56-15.28a15.57,15.57,0,0,0,10.7-19.24L165,13.73A15.57,15.57,0,0,0,145.77,3Z" transform="translate(0 -2.43)"/><path class="cls-1" d="M190.88,16.28H51A15.57,15.57,0,0,0,35.48,31.84V135.73A15.57,15.57,0,0,0,51,151.29h55.7L121,171l14.22-19.66h55.7a15.57,15.57,0,0,0,15.57-15.57V31.84A15.57,15.57,0,0,0,190.88,16.28Z" transform="translate(0 -2.43)"/><path class="cls-5" d="M120.61,81a23.58,23.58,0,1,1,5.4-.62h0A23.71,23.71,0,0,1,120.61,81Zm4.3-5.56h0Zm-4.3-32A14,14,0,1,0,123.81,71h0A14,14,0,0,0,120.61,43.43Z" transform="translate(0 -2.43)"/><path class="cls-5" d="M121,135.1a61.78,61.78,0,0,1-38.86-13.58,4.82,4.82,0,0,1-1.79-4.33,53.27,53.27,0,0,1,6.62-20.34,4.82,4.82,0,0,1,8.35,4.82,43.08,43.08,0,0,0-5,14,52.76,52.76,0,0,0,61.35,0c-1.69-9.58-6.39-18.11-13.12-23.68a4.82,4.82,0,0,1,6.15-7.43c9.24,7.66,15.42,19.57,16.94,32.68a4.82,4.82,0,0,1-1.79,4.33A61.78,61.78,0,0,1,121,135.1Z" transform="translate(0 -2.43)"/></svg>