<svg width="640" height="360" viewBox="0 0 640 360" fill="none" 
xmlns="http://www.w3.org/2000/svg" 
xmlns:xlink="http://www.w3.org/1999/xlink">
<defs>
<ref id="colorOne" param="c1" default="#242C4F" />
<ref id="colorTwo" param="c2" default="#9296A7"/>
</defs>
<path d="M308.597 113.967C318.239 115.193 333.706 108.856 340.234 105.533L344 104V150H286V135.433L291.273 130.067L307.091 125.467L308.597 113.967Z" fill="white"/>
<path d="M371.702 267.868C371.702 267.868 378.381 282.435 383.866 303.15C388.244 319.686 388 330.686 384.91 345.103L252.953 346.885C258.202 321.518 255.669 333.552 261.721 311.989C267.773 290.426 273.516 267.691 273.516 267.691L371.695 267.861L371.702 267.868Z" fill="black"/>
<path d="M244.649 232.285C243.425 232.285 242.209 232.027 241.037 231.526C238.929 230.619 237.572 229.27 236.901 227.405C234.225 219.982 242.298 204.169 255.67 177.977C259.098 171.261 262.983 163.653 267.111 155.352C268.04 153.48 269.131 152.492 270.266 152.492C271.402 152.492 272.67 153.465 273.871 155.294C278.169 161.818 281.228 178.618 275.523 191.91C264.015 218.699 253.628 232.285 244.649 232.285Z" fill="white"/>
<path d="M270.273 152.889C271.268 152.889 272.433 153.818 273.546 155.513C277.8 161.964 280.815 178.587 275.161 191.754C263.72 218.381 253.458 231.886 244.656 231.886C243.491 231.886 242.326 231.643 241.198 231.156C239.193 230.294 237.911 229.026 237.277 227.271C234.66 220.01 242.702 204.264 256.031 178.16C259.459 171.444 263.344 163.836 267.479 155.528C268.076 154.327 269.049 152.889 270.273 152.889ZM270.273 152.086C269.035 152.086 267.818 153.036 266.757 155.167C242.253 204.426 227.87 226.298 240.881 231.886C242.142 232.424 243.395 232.682 244.656 232.682C256.414 232.682 267.995 210.463 275.898 192.063C283.174 175.13 276.392 152.078 270.273 152.078" fill="black"/>
<path d="M295.118 134.018C295.118 134.018 273.784 125.665 262.814 144.088C251.771 162.628 243.581 193.443 244.311 193.752C244.311 193.752 277.403 209.565 277.956 208.857C278.509 208.149 295.118 134.018 295.118 134.018Z" fill="url(#colorOne)"/>
<path d="M369.88 222.856C368.369 210.206 387.248 153.87 383.57 147.124C379.205 139.133 374.524 131.4 372.327 131.43L362.442 128.909L362.162 127.98L350.418 125.842L343.533 134.99C339.316 138.042 332.615 140.667 322.051 140.608C295.807 140.46 291.922 129.918 291.922 129.918C284.639 131.312 272.859 134.968 272.859 134.968C269.07 137.445 269.187 150.132 270.168 161.721C269.541 175.698 269.195 191.415 270.396 197.098C272.667 207.78 276.994 224.728 277.363 240.069C277.473 244.64 275.992 255.056 273.854 267.426C276.943 268.333 287.698 276.243 301.771 278.55C315.837 280.858 381.13 270.309 381.13 270.309C377.178 255.403 372.313 243.239 369.88 222.863" fill="url(#colorOne)"/>
<path d="M306.131 47.0151C310.245 37.4906 318.965 32.8316 322.954 23.2481C322.954 23.2481 318.833 16.3849 313.341 15.6993C307.849 15.0137 297.985 18.9429 292.744 23.2481C284.981 27.8113 280.61 35.6403 278.28 44.3391C276.422 51.2834 276.769 58.5963 277.13 65.7765C278.059 84.361 278.988 102.946 279.924 121.537C279.983 122.732 280.057 123.963 280.595 125.024C281.848 127.479 297.358 127.686 302.357 126.926C305.335 126.477 307.849 125.555 311.97 124.177C314.314 123.395 312.891 119.577 313.164 117.122C315.184 99.1638 315.073 80.9626 312.832 63.0268L306.124 47.0151H306.131Z" fill="black"/>
<path d="M362.089 69.3816C362.089 94.0996 340.025 110.45 317.46 110.45C294.894 110.45 284.5 93.9742 284.5 69.2563C284.5 44.5384 303.136 25.3125 325.694 25.3125C348.252 25.3125 362.082 44.6637 362.082 69.3816" fill="white"/>
<path d="M311.969 110.443C311.969 110.443 330.509 112.499 340.439 102.488C340.439 102.488 331.888 115.78 312.654 116.62L311.969 110.443Z" fill="black"/>
<path d="M293.774 60.734C294.276 61.2648 295.964 60.5055 298.065 60.2843C300.158 59.9895 301.979 60.3064 302.333 59.6725C302.488 59.3628 302.149 58.8099 301.323 58.3381C300.505 57.8663 299.185 57.542 297.74 57.7189C296.303 57.8958 295.101 58.5372 294.423 59.1933C293.738 59.8568 293.546 60.4686 293.767 60.734" fill="black"/>
<path d="M309.064 66.4902C309.278 70.272 308.593 74.1054 307.162 77.6144C306.057 80.3715 304.258 83.217 308.924 82.8779C309.853 82.8337 310.782 82.6642 311.704 82.502C310.812 82.8116 309.897 83.0475 308.954 83.2097C303.838 83.8215 305.135 80.6 306.528 77.3711C307.959 73.9064 308.747 70.2425 309.057 66.4976" fill="black"/>
<path d="M310.188 110.9C310.954 110.163 311.854 110.421 312.48 111.173C312.945 116.201 312.974 121.258 313.048 126.308C312.812 121.84 312.546 115.596 312.008 111.217L312.229 111.431C311.544 111.969 310.586 111.674 310.195 110.9" fill="black"/>
<path d="M357.09 54.047C352.896 39.0157 340.282 25.9233 324.072 25.5989C308.089 24.8986 294.009 37.0769 288.657 51.5922C285.163 60.7112 284.352 70.7443 285.465 80.3941C286.851 91.8132 292.667 103.446 303.769 108.024C309.151 110.405 315.137 110.707 320.939 110.958C324.838 111.069 328.826 110.906 332.512 109.491L332.564 109.616C327.057 112.005 320.88 111.717 315.012 111.467C311.023 111.319 307.035 110.619 303.327 109.085C289.63 103.763 283.784 88.3705 283.777 74.5998C283.224 56.8631 291.208 38.1974 306.998 29.1743C315.587 24.0434 326.549 22.9819 335.8 26.948C346.762 31.5628 355.056 42.7533 357.09 54.047Z" fill="black"/>
<path d="M319.248 58.3592C319.491 59.0521 322.035 58.7646 325.02 59.1627C328.013 59.5018 330.409 60.4086 330.815 59.7967C330.992 59.5018 330.586 58.8457 329.62 58.1601C328.662 57.4745 327.129 56.8185 325.337 56.5973C323.546 56.3761 321.902 56.6415 320.804 57.0691C319.698 57.4967 319.138 58.0348 319.248 58.3665" fill="black"/>
<path d="M287.859 52.824C292.341 51.0105 298.298 48.047 304.416 43.1594C312.223 36.9302 313.262 32.05 316.086 27.3688C309.547 27.0813 306.834 24.9066 300.295 24.6191L287.852 52.824H287.859Z" fill="black"/>
<path d="M269.701 156.752C269.76 156.752 269.789 157.607 269.782 159.148C269.767 160.865 269.745 163.048 269.723 165.665C269.686 171.164 269.678 178.757 270.209 187.117C270.74 195.476 271.802 202.996 272.848 208.385C273.364 211.083 273.821 213.257 274.175 214.754C274.514 216.25 274.669 217.091 274.61 217.113C274.551 217.128 274.278 216.324 273.829 214.842C273.372 213.368 272.819 211.208 272.214 208.517C271.005 203.136 269.826 195.58 269.295 187.176C268.764 178.772 268.868 171.149 269.074 165.65C269.177 162.9 269.302 160.674 269.42 159.14C269.538 157.607 269.634 156.759 269.693 156.759" fill="black"/>
<path d="M232.68 159.582L251.869 203.695L263.428 206.128C265.33 214.444 257.007 227.853 248.832 232.284C241.666 236.161 229.628 230.455 227.063 219.471C226.06 214.856 225.139 210.087 224.306 205.162C221.696 189.696 220.406 177.466 220.008 164.123" fill="white"/>
<path d="M265.929 111.461L235.329 135.906C232.97 137.793 229.527 137.41 227.64 135.051L209.674 112.566C207.787 110.207 208.171 106.765 210.537 104.877L241.13 80.4323C243.489 78.5451 246.932 78.9285 248.819 81.2948L266.784 103.779C268.672 106.138 268.288 109.581 265.929 111.468" fill="url(#colorOne)"/>
<path d="M241.233 80.3505L210.448 104.951C209.659 105.577 209.106 106.395 208.797 107.295L240.216 82.1935C242.42 80.4316 245.737 80.9329 247.632 83.2993L252.792 89.7571L248.974 92.809L239.309 100.594C237.945 102.208 238.55 105.548 240.813 108.378C243.076 111.209 246.194 112.536 248.074 111.563L257.805 103.852L261.624 100.8L263.54 103.196C265.435 105.57 265.184 108.917 262.988 110.671L230.979 136.252C230.713 136.465 230.433 136.642 230.138 136.79C231.849 137.402 233.788 137.166 235.262 135.986L266.047 111.394C268.354 109.551 268.664 106.101 266.74 103.69L248.922 81.39C246.998 78.9794 243.563 78.5223 241.255 80.3653" fill="url(#colorOne)"/>
<path d="M244.084 81.3737H244.032C243.619 81.3737 243.207 81.4327 242.801 81.5359C242.72 81.558 242.639 81.5875 242.558 81.6096L242.595 81.7275C243.096 81.558 243.619 81.4769 244.15 81.4769V81.3516L244.084 81.3737ZM241.047 82.3836C241.047 82.3836 241.032 82.391 241.032 82.3984C241.032 82.3984 240.966 82.45 240.936 82.4721L239.801 83.3788L239.882 83.4747L241.025 82.5606C241.061 82.5311 241.106 82.4942 241.15 82.4647L241.076 82.3615L241.047 82.3836ZM238.511 84.4109L237.243 85.4282L237.324 85.5241L238.592 84.5067L238.511 84.4109ZM235.967 86.4382L234.699 87.4555L234.781 87.5513L236.049 86.534L235.967 86.4382ZM233.432 88.4654L232.164 89.4828L232.245 89.5786L233.513 88.5613L233.432 88.4654ZM230.888 90.5001L229.945 91.252C229.775 91.3921 229.65 91.4879 229.65 91.4879L229.731 91.5837L230.999 90.5664L230.918 90.4706L230.888 90.5001ZM228.352 92.5273L227.888 92.9033C227.888 92.9033 227.873 92.9181 227.858 92.9254C227.505 93.2056 227.106 93.5299 227.106 93.5299L227.188 93.6257L228.456 92.6084L228.374 92.5126L228.352 92.5273ZM225.809 94.5546C225.809 94.5546 225.809 94.5546 225.802 94.562C225.603 94.7168 224.563 95.5498 224.563 95.5498L224.644 95.6457L225.912 94.6283L225.831 94.5325L225.809 94.5546ZM223.273 96.5819L222.005 97.5992L222.086 97.695L223.354 96.6777L223.273 96.5819ZM220.73 98.6165C220.73 98.6165 220.42 98.8598 220.111 99.1104C220.111 99.1104 220.103 99.1178 220.096 99.1252H220.081V99.1399L219.521 99.5896L219.602 99.6854L220.87 98.6681L220.789 98.5723L220.73 98.6165ZM218.186 100.644L216.919 101.661L217 101.757L218.268 100.74L218.186 100.644ZM215.651 102.671L214.383 103.688L214.464 103.784L215.732 102.767L215.651 102.671ZM213.107 104.706L212.635 105.089C212.635 105.089 212.628 105.089 212.628 105.096C212.392 105.288 212.186 105.487 211.994 105.708C211.994 105.708 211.987 105.716 211.979 105.723L212.075 105.804C212.274 105.568 212.503 105.347 212.746 105.155L213.269 104.743L213.188 104.647L213.107 104.706ZM211.058 107.168C210.918 107.507 210.822 107.861 210.756 108.222C210.756 108.222 210.756 108.229 210.756 108.237V108.244C210.756 108.244 210.756 108.244 210.756 108.252C210.756 108.252 210.756 108.259 210.756 108.266V108.281C210.741 108.399 210.726 108.517 210.719 108.628H210.844C210.881 108.104 210.999 107.588 211.198 107.094L211.08 107.05L211.058 107.168ZM210.969 110.323L210.851 110.353C210.874 110.426 210.888 110.493 210.91 110.566C210.91 110.566 210.91 110.574 210.91 110.581C210.91 110.581 210.91 110.588 210.91 110.596C210.91 110.596 210.91 110.603 210.91 110.611C210.91 110.611 210.91 110.611 210.91 110.618C210.91 110.618 210.91 110.618 210.91 110.625C210.91 110.625 210.91 110.625 210.91 110.633V110.64C210.91 110.64 210.91 110.64 210.91 110.647C210.91 110.647 210.91 110.647 210.91 110.655C210.91 110.655 210.91 110.662 210.91 110.67C210.91 110.67 210.91 110.677 210.91 110.684C210.91 110.684 210.91 110.692 210.91 110.699C210.91 110.714 210.925 110.729 210.933 110.743C210.933 110.743 210.933 110.751 210.933 110.758C211.05 111.06 211.205 111.355 211.39 111.635L211.493 111.569C211.205 111.127 210.992 110.64 210.851 110.124M212.599 113.043L212.503 113.124L213.137 113.913C213.137 113.913 213.137 113.913 213.137 113.921C213.336 114.171 213.498 114.385 213.498 114.385L213.594 114.304L212.576 113.036L212.599 113.043ZM214.626 115.579L214.53 115.66L214.788 115.985C214.788 115.985 214.788 115.985 214.788 115.992C215.09 116.368 215.525 116.914 215.525 116.914L215.621 116.832L214.604 115.564L214.626 115.579ZM216.653 118.123L216.557 118.204L217.575 119.472L217.67 119.39L216.653 118.123ZM218.688 120.658L218.592 120.74C218.592 120.74 218.806 121.012 219.042 121.3C219.042 121.3 219.042 121.3 219.042 121.307L219.602 122.008L219.698 121.926L218.68 120.658H218.688ZM220.715 123.202L220.619 123.283L221.637 124.551L221.732 124.47L220.715 123.202ZM222.742 125.738L222.646 125.819L223.479 126.858V126.873C223.479 126.873 223.479 126.88 223.487 126.88C223.583 126.998 223.642 127.072 223.642 127.072L223.738 126.991L222.72 125.723L222.742 125.738ZM224.777 128.281L224.681 128.362L225.698 129.63L225.794 129.549L224.777 128.281ZM226.804 130.817L226.708 130.898C226.708 130.898 227.018 131.289 227.298 131.635L227.718 132.166L227.814 132.085L226.797 130.817H226.804ZM228.839 133.338L228.75 133.427C228.75 133.427 228.75 133.434 228.758 133.441C228.765 133.449 228.758 133.441 228.765 133.449C228.773 133.456 228.78 133.463 228.787 133.471C229.126 133.817 229.51 134.105 229.923 134.333C229.937 134.341 229.952 134.348 229.959 134.355C229.959 134.355 229.967 134.355 229.974 134.363C229.974 134.363 229.974 134.363 229.989 134.363H229.996C229.996 134.363 230.004 134.363 230.011 134.37C230.011 134.37 230.018 134.37 230.026 134.37C230.026 134.37 230.026 134.37 230.033 134.37L230.092 134.26C229.62 134.016 229.2 133.699 228.831 133.316M233.181 134.776C232.923 134.82 232.65 134.842 232.385 134.842C232.119 134.842 231.861 134.82 231.596 134.783L231.574 134.908C231.648 134.923 231.721 134.93 231.795 134.938C231.795 134.938 231.795 134.938 231.802 134.938C231.802 134.938 231.802 134.938 231.81 134.938C231.81 134.938 231.81 134.938 231.817 134.938C231.817 134.938 231.817 134.938 231.824 134.938H231.832H231.839H231.847H231.861H231.869H231.876H231.883H231.891H231.898H231.906H231.913H231.928H231.942H231.95H231.965H231.979H231.994H232.009H232.031H232.053H232.082H232.112H232.267H232.296C232.488 134.938 232.68 134.916 232.871 134.894C232.901 134.894 232.938 134.886 232.967 134.879L232.945 134.753L233.181 134.776ZM235.982 133.345L235.474 133.751C235.223 133.95 234.958 134.12 234.685 134.267L234.744 134.378C234.795 134.348 234.854 134.319 234.906 134.289C234.906 134.289 234.921 134.282 234.928 134.274C234.928 134.274 234.935 134.274 234.943 134.267H234.95C234.95 134.267 234.95 134.267 234.958 134.267C234.994 134.237 235.466 133.862 235.466 133.862L235.385 133.766L235.982 133.345ZM238.526 131.318L237.258 132.336L237.339 132.431L238.607 131.414L238.526 131.318ZM241.061 129.291L239.793 130.308L239.875 130.404L240.007 130.301L240.015 130.294C240.015 130.294 240.015 130.294 240.022 130.286C240.361 130.013 241.135 129.394 241.135 129.394L241.054 129.298L241.061 129.291ZM243.605 127.256L242.337 128.274L242.418 128.369C242.418 128.369 242.558 128.252 242.75 128.104L243.664 127.374L243.583 127.278L243.605 127.256ZM246.141 125.229L244.873 126.246L244.954 126.342C244.954 126.342 245.448 125.944 245.816 125.649C245.816 125.649 245.816 125.649 245.816 125.642L246.185 125.347L246.104 125.251L246.141 125.229ZM248.684 123.202L247.416 124.219L247.497 124.315L247.984 123.924C248.345 123.637 248.765 123.298 248.765 123.298L248.684 123.202ZM251.22 121.167L249.952 122.184L250.033 122.28L251.301 121.263L251.22 121.167ZM253.763 119.14L252.495 120.157L252.576 120.253L253.395 119.597C253.395 119.597 253.402 119.59 253.409 119.582C253.645 119.39 253.837 119.236 253.837 119.236L253.756 119.14H253.763ZM256.299 117.113L255.031 118.13L255.112 118.226L256.38 117.208L256.299 117.113ZM258.842 115.085L257.574 116.103L257.656 116.198L258.924 115.181L258.842 115.085ZM261.378 113.051L260.11 114.068L260.191 114.164L260.973 113.537C261.231 113.331 261.459 113.147 261.459 113.147L261.378 113.051ZM263.914 111.023C263.877 111.053 263.841 111.09 263.804 111.119L262.654 112.041L262.735 112.137L263.885 111.215C263.885 111.215 263.914 111.193 263.929 111.178C263.929 111.178 263.959 111.149 263.973 111.141L263.892 111.046L263.914 111.023ZM265.536 108.362C265.418 108.878 265.219 109.372 264.946 109.822L265.057 109.888C265.293 109.505 265.47 109.092 265.595 108.672C265.595 108.672 265.595 108.672 265.595 108.664C265.595 108.664 265.595 108.657 265.595 108.65C265.617 108.583 265.632 108.517 265.647 108.443L265.521 108.414L265.536 108.362ZM265.352 105.207L265.241 105.259C265.455 105.745 265.588 106.254 265.639 106.785L265.765 106.77C265.713 106.239 265.58 105.708 265.359 105.207M263.465 102.575L263.369 102.656L264.386 103.924L264.482 103.843L264.393 103.733V103.725C264.393 103.725 264.393 103.725 264.393 103.718C264.128 103.393 263.487 102.583 263.487 102.583M261.43 100.039L261.334 100.12L262.351 101.388L262.447 101.307L261.518 100.142V100.128C261.467 100.076 261.445 100.047 261.445 100.047M259.403 97.496L259.307 97.5771L260.324 98.8451L260.42 98.764L260.243 98.5428C260.243 98.5428 260.243 98.5354 260.236 98.5281C259.941 98.1595 259.417 97.5034 259.417 97.5034M257.375 94.9601L257.28 95.0412L258.297 96.3091L258.393 96.228C258.393 96.228 257.619 95.2549 257.42 95.0117C257.42 95.0117 257.405 94.9969 257.405 94.9895C257.405 94.9895 257.405 94.9895 257.405 94.9822L257.375 94.9601ZM255.348 92.4168L255.252 92.4978L256.27 93.7658L256.365 93.6847L255.348 92.4168ZM253.314 89.8808L253.218 89.9619L254.235 91.2299L254.331 91.1488L253.314 89.8808ZM251.286 87.3375L251.19 87.4186L252.208 88.6866L252.304 88.6055L251.286 87.3375ZM249.259 84.8016L249.163 84.8827L250.18 86.1507L250.276 86.0696L249.259 84.8016ZM247.106 82.3763L247.033 82.4795C247.372 82.7301 247.674 83.025 247.947 83.3641L248.146 83.6147L248.242 83.5336L248.057 83.2978C248.057 83.2978 248.057 83.2977 248.05 83.2904C248.05 83.2904 248.05 83.283 248.043 83.2756C248.043 83.2756 248.028 83.2609 248.02 83.2535C247.777 82.9734 247.512 82.7301 247.224 82.5163M244.084 81.3737V81.499C244.615 81.499 245.131 81.5801 245.632 81.7497L245.669 81.6317C245.168 81.4695 244.637 81.381 244.106 81.3737H244.077H244.084Z" fill="black"/>
<g style="mix-blend-mode:multiply">
<mask id="mask0_5988_7362" style="mask-type:luminance" maskUnits="userSpaceOnUse" x="236" y="86" width="27" height="25">
<path d="M262.165 86.7266H236.562V110.862H262.165V86.7266Z" fill="white"/>
</mask>
<g mask="url(#mask0_5988_7362)">
<path d="M246.886 91.6067C243.738 94.1574 240.598 96.7155 237.502 99.3325C235.991 101.633 237.62 104.825 239.205 106.778C240.731 108.665 243.731 110.737 245.898 109.837C248.471 107.759 251.059 105.694 253.661 103.652C256.271 101.61 258.873 99.5758 261.505 97.5706L261.453 98.0203L257.155 92.4177C255.828 90.5968 254.037 88.5105 252.924 86.8298C250.897 88.4 248.884 89.9997 246.879 91.592M246.886 91.6067C248.899 89.9849 250.919 88.3705 252.909 86.7266C254.406 88.5695 255.939 90.3756 257.45 92.2039L261.969 97.6296L262.168 97.8728L261.918 98.0793C256.824 102.348 251.641 106.52 246.378 110.575C241.682 112.359 236.293 105.525 236.573 101.183C236.625 100.453 236.853 99.7011 237.347 99.1408C240.561 96.6712 243.724 94.1427 246.886 91.6141" fill="url(#colorOne)"/>
</g>
</g>
<path d="M246.877 91.6068L237.411 99.2293C236.077 100.822 236.711 104.132 238.967 106.955C241.223 109.779 244.319 111.128 246.162 110.177L255.686 102.628L261.702 97.8213L252.892 86.793L246.877 91.5994V91.6068Z" fill="url(#colorTwo)"/>
<path d="M253.431 87.6934L252.797 88.202" stroke="black" stroke-width="0.11795" stroke-miterlimit="10"/>
<path d="M251.607 89.1602L247.066 92.7871L240.203 98.2718" stroke="black" stroke-width="0.11795" stroke-miterlimit="10"/>
<path d="M239.596 98.75L239.279 99.0006L238.962 99.2587L238.992 99.2955C238.822 99.5019 238.69 99.7378 238.594 99.9959" stroke="black" stroke-width="0.11795" stroke-miterlimit="10"/>
<path d="M238.438 101.795C238.6 103.07 239.241 104.545 240.317 105.886C241.659 107.567 243.34 108.629 244.77 108.85" stroke="black" stroke-width="0.11795" stroke-miterlimit="10"/>
<path d="M245.68 108.871C245.96 108.834 246.218 108.761 246.454 108.635L246.483 108.665L246.8 108.407L247.117 108.156" stroke="black" stroke-width="0.11795" stroke-miterlimit="10"/>
<path d="M248.312 107.207L254.579 102.201L259.717 98.0879" stroke="black" stroke-width="0.11795" stroke-miterlimit="10"/>
<path d="M260.312 97.6087L260.954 97.1074" stroke="black" stroke-width="0.11795" stroke-miterlimit="10"/>
<path d="M236.758 112.205L227.035 112.5L217.459 116.916L210.293 132.257C209.836 133.237 209.763 134.358 210.102 135.382L211.2 138.788L210.75 139.894C210.338 140.919 210.404 142.076 210.942 143.042L214.296 149.101L219.744 164.125L225.487 167.369C226.062 167.391 229.74 167.487 232.556 164.568C235.055 161.98 235.129 158.832 235.137 158.161C235.085 157.137 234.915 155.847 234.473 154.409C233.832 152.308 232.873 150.731 232.114 149.698C233.537 148.276 234.96 146.853 236.382 145.43L241.388 141.604C241.403 141.412 242.066 139.71 241.24 138.803C240.629 138.132 239.139 138.405 238.881 138.361C237.215 139.098 236.132 138.95 234.466 139.687C232.623 140.498 229.534 142.997 227.691 143.808L233.729 137.034L243.01 136.444C243.01 136.444 246.032 134.748 239.471 131.291C238.587 130.406 230.927 130.554 230.927 130.554C230.927 130.554 236.146 127.598 237.997 128.047C244.057 129.536 246.172 125.762 245.951 124.516C245.73 123.263 238.734 122.452 238.734 122.452L227.691 123.926C226.932 124.059 225.9 124.914 225.302 125.393L219.442 129.817L223.268 122.747L228.568 119.503C236.272 117.314 238.306 114.8 236.744 112.212" fill="white"/>
<path d="M234.541 128.6C229.44 131.253 224.53 134.571 221.169 139.318L221.117 139.289C224.132 134.372 229.035 130.17 234.541 128.6Z" fill="black"/>
<path d="M225.117 125.555C221.365 129.108 216.927 132.182 213.609 136.045C215.091 133.892 217.015 132.086 218.895 130.287C220.775 128.548 222.876 126.638 225.117 125.555Z" fill="black"/>
<path d="M224.781 145.88C225.614 144.958 226.632 144.31 227.708 143.727C228.747 143.182 229.875 142.341 230.893 141.973C229.927 142.702 228.946 143.418 227.966 144.125C227.008 144.811 225.909 145.703 224.781 145.88Z" fill="black"/>
<path d="M229.359 151.711C230.259 150.502 231.379 149.544 232.566 148.644C233.724 147.782 234.918 146.617 236.083 145.932C233.959 147.804 231.836 150.517 229.367 151.711" fill="black"/>
<path d="M232.198 164.205C236.731 160.601 235.036 153.818 232.043 149.742L231.998 149.675L232.057 149.616C232.057 149.616 236.304 145.319 236.311 145.311C236.318 145.311 238.692 143.453 238.7 143.453C239.326 142.893 240.476 142.186 241.007 141.581C241.545 140.91 241.663 139.694 241.154 139.001C240.513 138.286 239.37 138.706 238.515 138.853C237.527 139.052 236.54 139.215 235.603 139.524C232.33 140.689 229.868 143.424 226.514 144.677L227.48 143.594L231.77 138.787L232.846 137.585C233.112 137.313 233.502 136.73 233.923 136.716C235.736 136.598 238.965 136.399 240.778 136.281L242.385 136.177L242.784 136.155C242.887 136.155 242.938 136.126 243.005 136.082C244.715 134.357 240.52 132.219 239.282 131.474C238.714 131.15 238.029 131.12 237.38 131.025C234.874 130.766 232.315 130.796 229.794 130.825C232.234 129.572 234.682 128.009 237.498 127.715C238.029 127.7 238.596 127.891 239.098 127.973C240.336 128.149 241.678 128.172 242.857 127.759C244.199 127.316 245.592 126.174 245.732 124.707C245.813 124.353 245.26 124.117 244.811 123.925C242.96 123.218 240.543 122.901 238.766 122.635L228.202 123.999C226.484 124.154 225.202 125.82 223.786 126.705L219.518 129.904L219.083 130.228L219.341 129.749L223.196 122.694L223.211 122.672L223.233 122.657L228.526 119.399C230.531 118.795 232.559 118.138 234.38 117.099C236.134 116.178 237.962 114.298 236.621 112.293L236.761 112.374L231.704 112.543C230.251 112.683 228.099 112.484 226.728 112.956C225.371 113.369 223.484 114.453 222.142 115.013L217.557 117.151L217.675 117.033L215.191 122.414C214.358 124.191 212.205 128.739 211.394 130.457C211.099 131.231 210.391 132.337 210.222 133.126C209.979 134.069 210.148 134.991 210.487 135.905L211.387 138.728L211.409 138.802C210.826 140.062 210.318 141.478 211.018 142.797L211.696 144.036C211.696 144.036 214.431 149.027 214.446 149.049C216.105 153.428 218.338 159.716 220.056 164.014C220.122 164.191 220.034 164.39 219.864 164.456C219.687 164.522 219.488 164.434 219.422 164.264C217.933 159.915 215.721 153.568 214.129 149.167C214.173 149.299 211.365 144.191 211.372 144.228C210.952 143.468 210.296 142.444 210.288 141.537C210.192 140.542 210.642 139.613 211.003 138.721V138.861C210.708 137.829 209.831 135.617 209.691 134.57C209.544 133.546 209.883 132.477 210.34 131.6C212.375 127.184 215.132 121.235 217.233 116.826L217.269 116.745L217.351 116.708L221.951 114.607C223.359 114.047 225.157 113.008 226.61 112.573C228.055 112.094 230.185 112.3 231.689 112.189L236.746 112.057H236.842C237.461 113.008 237.601 114.305 236.93 115.271C235.006 117.844 231.431 118.721 228.63 119.605L223.314 122.827C223.44 122.613 219.518 129.926 219.54 129.874L219.363 129.727L223.602 126.506C224.899 125.628 225.99 124.412 227.465 123.83C227.715 123.756 227.914 123.756 228.143 123.719L238.7 122.267C240.823 122.525 242.931 122.812 244.966 123.527C245.423 123.726 246.042 123.947 246.175 124.5C246.241 126.329 244.59 127.722 243.012 128.275C241.464 128.813 239.776 128.732 238.206 128.385C237.675 128.26 237.269 128.282 236.761 128.385C234.785 128.857 232.883 129.83 231.062 130.811L230.922 130.287C233.458 130.287 236.009 130.228 238.523 130.656C238.913 130.737 239.341 130.84 239.673 131.106L239.606 131.054C241.287 131.99 245.622 134.334 243.336 136.583C243.086 136.797 242.702 136.767 242.408 136.789L240.801 136.893C239.193 136.996 235.972 137.202 234.372 137.305C234.225 137.327 233.908 137.291 233.805 137.423L233.281 138.006C232.581 138.794 228.711 143.144 227.922 144.021L227.575 143.542C230.244 142.281 232.544 139.981 235.434 139.045C236.952 138.618 238.383 138.345 239.938 138.168C242.002 137.976 242.349 140.527 241.28 141.839C240.631 142.517 239.592 143.144 238.876 143.734L236.466 145.547C236.54 145.503 232.161 149.779 232.183 149.779V149.653C233.797 151.843 234.822 154.452 235.139 157.15C235.5 159.915 234.571 162.694 232.92 164.935C232.448 165.51 231.615 164.751 232.19 164.235" fill="black"/>
<path d="M259.377 222.444C256.76 225.629 253.944 228.688 250.641 231.217C249.004 232.521 246.977 233.332 244.884 233.553C236.266 234.519 228.245 227.649 226.446 219.407C222.311 201.301 220.026 182.702 219.93 164.125C221.286 182.37 223.888 200.984 227.582 219.149C229.174 227.995 238.831 235.426 247.795 232.411C248.754 232.086 249.609 231.519 250.442 230.929C253.745 228.496 256.612 225.481 259.273 222.356L259.377 222.444Z" fill="black"/>
<path d="M234.141 162.762C236.515 167.811 241.218 177.985 243.525 183.057C245.906 188.114 248.251 193.193 250.175 198.449C250.735 199.975 251.561 202.194 252.033 203.735L251.907 203.794C248.265 197.292 245.28 190.414 242.523 183.499C240.378 178.361 236.102 167.981 234.016 162.821L234.141 162.762Z" fill="black"/>
<path d="M441.346 214.645C440.321 201.766 389.964 143.381 384.774 138.914C376.318 131.638 350.406 126.75 350.406 126.75L377.019 183.16L406.669 219.216L354.358 252.669L354.623 253.097L354.38 252.78L333.576 234.335L317.624 235.714C316.746 235.788 316.238 236.775 316.717 237.52C317.181 238.242 317.911 238.98 319.039 239.186C321.464 239.643 330.252 239.79 330.252 239.79L334.372 243.882L323.89 242.828L310.561 250.701C310.561 250.701 310.259 253.126 313.746 252.522C317.233 251.917 323.897 249.19 323.897 249.19L331.645 249.647L323.182 250.856L312.227 258.581C312.227 258.581 314.498 261.154 317.985 260.093C321.472 259.031 325.711 257.365 325.711 257.365L335.257 256.458L325.711 258.884L318.589 267.671C318.589 267.671 320.808 269.337 323.182 267.671C325.556 266.005 327.222 264.486 327.222 264.486L337.83 264.029C337.83 264.029 349.345 272.691 353.458 273.355C358.921 274.232 364.03 272.522 366.131 271.674L366.234 271.836C366.234 271.836 428.821 239.304 432.234 236.252C435.64 233.2 442.378 227.538 441.361 214.66" fill="white"/>
<path d="M366.215 271.799C380.679 264.058 401.246 253.398 415.437 245.628C419.514 243.409 423.598 241.183 427.623 238.868C431.729 236.738 435.319 233.656 437.818 229.749C440.863 224.921 441.917 218.78 440.826 213.185C439.809 209.875 437.973 206.874 436.182 203.933C431.228 196.089 425.544 188.717 419.823 181.412C411.169 170.494 402.16 159.856 392.887 149.455C391.338 147.722 389.783 145.997 388.205 144.294C386.185 142.26 384.424 139.857 382.028 138.279C375.622 135.146 377.089 157.741 377.295 161.117C377.236 167.391 377.162 176.76 377.162 183.152C376.963 182.672 406.937 219.134 406.923 218.994L407.158 219.281L406.849 219.48C399.764 224.007 365.876 245.584 359.595 249.624L354.877 252.646C354.619 252.845 354.162 252.86 353.897 252.617C351.56 250.538 336.064 236.907 333.388 234.534L333.602 234.607L317.258 236.023C315.836 236.48 317.457 238.153 318.165 238.544C319.293 239.141 320.782 239.038 322.057 239.178C324.822 239.348 327.594 239.429 330.366 239.48L330.447 239.561L334.568 243.653L335.157 244.235L334.332 244.154L323.849 243.1L324.026 243.063L310.697 250.936L310.845 250.715C310.749 251.976 312.017 252.433 313.13 252.27C316.831 251.703 320.384 250.118 323.9 248.857C326.009 248.997 332.526 249.373 334.494 249.499C332.503 249.786 325.301 250.789 323.215 251.091L323.333 251.047L312.363 258.75L312.408 258.396C314.059 260.151 316.654 260.497 318.836 259.569C321.143 258.839 323.421 257.984 325.692 257.136L335.238 256.244L335.305 256.612L325.758 259.016L325.847 258.957L318.711 267.729L318.688 267.53C320.03 268.466 321.91 268.489 323.222 267.464C324.615 266.513 325.935 265.385 327.233 264.338L337.841 263.903C339.986 265.37 342.124 266.918 344.321 268.334C346.503 269.742 348.699 271.135 351.022 272.3C352.179 272.867 353.381 273.42 354.678 273.494C358.57 273.715 362.441 272.772 366.186 271.806C362.64 272.926 358.519 273.767 354.671 273.605C353.351 273.538 352.127 272.978 350.963 272.418C348.633 271.26 346.422 269.874 344.232 268.474C342.05 267.058 339.897 265.599 337.782 264.088C338.077 264.169 327.188 264.537 327.24 264.581C326.392 265.444 324.601 266.786 323.37 267.678C321.947 268.798 319.839 268.761 318.394 267.678L318.489 267.56L325.589 258.758L325.625 258.713L325.677 258.699L335.216 256.251L335.283 256.62L325.743 257.549C323.215 258.5 320.067 259.797 317.207 260.475C315.238 260.814 313.204 259.989 311.869 258.522L312.098 258.36L323.038 250.612L323.09 250.575H323.156L331.611 249.336L331.634 249.904L323.878 249.469L324.011 249.447C321.674 250.383 319.322 251.26 316.912 252.005C314.811 252.639 310.122 254.209 310.277 250.501L310.41 250.42L323.746 242.547L323.827 242.495H323.923L334.405 243.564L334.169 244.066L330.049 239.974L330.248 240.055C327.505 239.996 324.77 239.915 322.028 239.746C319.942 239.62 317.443 239.62 316.366 237.468C315.836 236.738 316.212 235.566 317.17 235.44L333.558 234.025H333.676L333.764 234.099C336.057 236.141 351.818 250.022 353.727 251.718L354.243 252.175C354.332 252.241 354.442 252.256 354.56 252.175L359.285 249.152L368.736 243.115L406.495 218.92L406.421 219.407C406.384 219.318 376.845 183.255 376.882 183.144L376.993 172.123C377.044 168.452 377.044 164.774 377.052 161.102C376.72 156.524 376.595 151.799 376.897 147.162C377.184 144.302 377.324 141.198 378.924 138.684C380.17 136.849 382.256 137.579 383.642 138.994C385.338 140.601 386.908 142.311 388.5 144.007C393.233 149.123 397.848 154.357 402.404 159.628C414.442 173.782 426.569 187.965 436.602 203.645C438.636 207.132 441.069 210.7 441.593 214.792C442.617 225.334 437.184 234.46 427.815 239.185C407.549 250.457 386.768 261.301 366.208 271.769" fill="black"/>
<path d="M387.104 196.773C387.576 196.132 388.04 195.52 388.475 194.938C393.672 187.978 399.29 181.462 405.792 175.704C408.165 173.603 410.583 171.539 412.972 169.453C400.845 152.955 389.028 138.248 386.632 136.191C378.169 128.915 350.414 126.445 350.414 126.445L374.749 183.319L387.104 196.78V196.773Z" fill="url(#colorOne)"/>
<path d="M340.125 52.7721C345.441 54.4234 344.202 94.6739 340.951 118.743C340.693 120.645 340.413 122.621 340.966 124.456C341.519 126.299 340.811 135.16 346.303 134.475C348.419 134.209 368.271 122.119 368.758 116.495C368.957 114.187 369.215 111.895 369.082 109.572C368.323 96.6495 369.421 84.8103 368.662 71.88C368.249 64.8325 367.829 57.7481 366.244 50.8701C364.652 43.9922 357.022 31.3273 352.296 26.0785C343.996 16.8563 328.257 10.2511 317.907 19.348C317.907 19.348 311.891 23.9333 313.343 28.0468C315.769 34.9026 329.864 49.5727 340.118 52.7647" fill="black"/>
<path d="M378.956 177.631C376.486 191.851 373.102 205.887 368.805 219.658C371.267 205.438 374.658 191.409 378.956 177.631Z" fill="black"/>
<path d="M426.597 223.616C420.294 220.733 413.453 219.156 406.523 219.362V218.743C409.988 218.618 413.593 218.581 416.969 219.517C420.338 220.497 423.582 221.876 426.59 223.616" fill="black"/>
<g style="mix-blend-mode:multiply" opacity="0.32">
<mask id="mask1_5988_7362" style="mask-type:luminance" maskUnits="userSpaceOnUse" x="274" y="199" width="88" height="13">
<path d="M361.227 199.445H274.188V211.38H361.227V199.445Z" fill="white"/>
</mask>
<g mask="url(#mask1_5988_7362)">
<path d="M274.188 199.445C278.589 202.881 283.697 205.269 289.226 205.652C294.814 205.947 300.203 204.628 305.894 204.392C309.727 204.208 313.553 204.281 317.446 204.886C321.227 205.468 324.648 207.119 328.334 207.768C339.274 209.759 350.442 208.432 361.227 205.431C351.039 210.4 339.141 212.494 327.803 210.813C324.051 210.304 320.564 208.668 316.908 208.1C313.347 207.525 309.639 207.407 306.012 207.466C300.468 207.488 294.652 208.594 288.99 207.768C283.27 206.876 277.925 203.736 274.188 199.445Z" fill="url(#colorOne)"/>
</g>
</g>
<path d="M79.7128 342.186L550.246 343.144C551.219 343.144 552 343.933 552 344.906C552 345.872 551.219 346.66 550.246 346.66L79.7128 347.611C78.2164 347.611 77 346.402 77 344.906C77 343.402 78.2164 342.186 79.7128 342.193" fill="black"/>
<script type="text/ecmascript" xlink:href="https://dev.w3.org/SVG/modules/ref/master/ref2.js"></script></svg>
