<svg width="640" height="360" viewBox="0 0 640 360" fill="none" xmlns="http://www.w3.org/2000/svg">
<g clip-path="url(#clip0_5018_10304)">
<path d="M273.156 158.676C273.156 158.676 247.097 148.477 233.697 170.973C220.209 193.625 212.305 341.603 213.193 341.984C213.193 341.984 241.797 342.853 242.471 341.984C242.93 341.398 252.904 286.822 263.982 216.776C269.272 183.348 273.156 158.676 273.156 158.676Z" fill="#242C4F"/>
<path d="M355.485 74.8684C355.485 105.065 328.528 125.034 300.976 125.034C273.424 125.034 260.727 104.909 260.727 74.7122C260.727 44.5153 283.486 21.043 311.048 21.043C338.61 21.043 355.494 44.6813 355.494 74.8684" fill="white"/>
<path d="M294.273 125.024C294.273 125.024 316.916 127.542 329.048 115.312C329.048 115.312 318.595 131.553 295.113 132.578L294.273 125.033V125.024Z" fill="black"/>
<path d="M272.038 64.3086C272.643 64.9625 274.712 64.0353 277.279 63.762C279.836 63.4009 282.062 63.7913 282.491 63.0105C282.676 62.6299 282.267 61.9565 281.261 61.3806C280.266 60.8048 278.646 60.4047 276.889 60.6194C275.132 60.8438 273.658 61.6246 272.839 62.4249C271.999 63.235 271.765 63.9865 272.038 64.3086Z" fill="black"/>
<path d="M290.705 71.3359C290.988 75.9523 290.1 80.6273 288.382 84.9216C286.996 88.2887 284.849 91.7632 290.529 91.3436C291.662 91.2948 292.794 91.0801 293.926 90.8849C292.842 91.2655 291.72 91.5583 290.568 91.7535C284.293 92.4952 285.933 88.5718 287.611 84.619C289.388 80.393 290.305 75.9035 290.695 71.3457" fill="black"/>
<path d="M292.102 125.581C293.039 124.673 294.132 124.995 294.903 125.913C295.469 132.062 295.508 138.23 295.596 144.398C295.303 138.942 294.981 131.31 294.327 125.971L294.6 126.235C293.761 126.889 292.59 126.537 292.111 125.581" fill="black"/>
<path d="M349.37 56.1401C344.285 37.821 328.787 21.7563 309.042 21.3952C289.523 20.5363 272.316 35.4103 265.787 53.1439C262.293 62.0448 261.161 71.7071 261.336 81.2131C261.58 97.3852 268.344 115.49 284.243 122.077C290.811 124.986 298.131 125.357 305.217 125.669C309.979 125.806 314.85 125.611 319.349 123.883L319.407 124.029C312.683 126.948 305.129 126.596 297.965 126.284C293.095 126.108 288.225 125.249 283.696 123.376C266.9 116.846 259.843 98.1269 259.814 81.2522C259.14 59.5854 268.891 36.7864 288.186 25.7676C298.678 19.5018 312.058 18.2037 323.37 23.0446C336.76 28.676 346.891 42.3495 349.37 56.1499" fill="black"/>
<path d="M303.146 61.4087C303.439 62.2578 306.552 61.8967 310.202 62.3847C313.862 62.8043 316.79 63.9072 317.288 63.1557C317.512 62.7946 317.005 61.9943 315.824 61.1549C314.653 60.3254 312.779 59.5153 310.593 59.242C308.406 58.9687 306.396 59.2908 305.059 59.8179C303.712 60.3449 303.029 60.9988 303.156 61.3989" fill="black"/>
<path d="M366.061 62.0633C365.456 52.04 359.288 39.1375 353.041 31.2808C349.616 26.9768 344.872 23.9512 340.11 21.1892C331.628 16.28 322.669 11.9271 313.055 10.0044C303.442 8.08175 293.048 8.75517 284.449 13.4594C276.622 17.7342 270.649 25.2883 268.297 33.8965L270.561 36.5316C275.392 28.6457 282.575 23.0631 291.389 24.0195L328.164 33.3987C339.963 36.4048 347.82 46.3695 348.689 58.5205C348.728 59.1256 348.796 58.3839 348.786 58.8426L344.511 108.413C351.089 105.895 357.999 102.196 360.039 97.8136C363.465 90.4546 366.569 70.164 366.081 62.0633" fill="black"/>
<path d="M271.042 33.5054C272.672 29.5039 277.064 27.103 281.377 26.8785C285.691 26.6638 289.908 28.2937 293.646 30.4506C309.486 39.6053 317.625 61.7211 333.28 71.1881C337.126 73.5207 342.142 71.3833 345.412 74.4674C348.681 77.5515 350.809 82.49 348.994 86.5989C351.092 83.71 353.229 80.782 354.42 77.4149C355.611 74.0478 355.767 70.1438 353.981 67.0499C352.624 64.7076 350.233 62.9118 349.579 60.2864C349.003 57.9733 349.911 55.5529 349.813 53.1715C349.716 50.751 348.574 48.4965 347.373 46.3884C341.244 35.5452 332.812 25.7366 321.949 19.6465C314.854 15.6645 306.743 13.3319 298.613 13.6149C290.483 13.8882 282.353 16.8845 276.41 22.428C272.906 25.6878 269.227 29.0647 271.042 33.4957" fill="black"/>
<path d="M349.429 92.3775C349.487 92.3287 349.682 92.5532 350.102 92.7386C350.512 92.9241 351.225 93.051 351.966 92.7582C353.469 92.1921 354.728 89.7717 354.767 87.1951C354.797 85.8872 354.504 84.6478 354.035 83.6327C353.586 82.5884 352.903 81.8662 352.142 81.7296C351.381 81.5636 350.844 82.0223 350.678 82.4323C350.493 82.8324 350.58 83.1155 350.502 83.1447C350.463 83.1838 350.19 82.9105 350.307 82.3151C350.366 82.0321 350.532 81.6905 350.863 81.4075C351.205 81.1245 351.712 80.978 352.239 81.0268C353.342 81.0952 354.348 82.1004 354.865 83.2228C355.441 84.3549 355.792 85.7409 355.763 87.2048C355.695 90.0937 354.25 92.807 352.181 93.4218C351.176 93.6951 350.327 93.4023 349.897 93.0607C349.448 92.7094 349.37 92.3873 349.419 92.3678" fill="#9296A7"/>
<path d="M350.73 70.4166C350.73 70.4166 350.417 70.2702 349.861 69.9384C349.315 69.5871 348.466 69.1283 347.46 68.4061C345.459 66.9617 342.678 64.6681 339.73 61.3693C336.754 58.09 333.65 53.8347 330.273 49.0817C326.896 44.3482 323.188 39.0974 318.454 34.3639C316.043 32.0508 313.516 29.9719 310.822 28.3323C308.148 26.6829 305.337 25.4727 302.585 24.5943C297.07 22.818 291.771 22.4276 287.408 22.7302C283.026 23.0034 279.561 23.9306 277.248 24.7211C276.067 25.0823 275.198 25.4727 274.593 25.7069C273.988 25.9411 273.666 26.0582 273.656 26.0387C273.647 26.0192 273.949 25.8631 274.535 25.5898C275.12 25.3165 275.979 24.8871 277.16 24.4869C279.473 23.6183 282.948 22.613 287.379 22.2714C291.79 21.9103 297.158 22.2519 302.77 24.0185C305.571 24.8871 308.431 26.1168 311.163 27.7857C313.906 29.4449 316.483 31.553 318.923 33.8954C323.715 38.6874 327.423 43.9773 330.781 48.7303C334.128 53.5029 337.183 57.7582 340.092 61.057C342.98 64.3753 345.684 66.6982 347.626 68.2012C348.602 68.9429 349.422 69.4407 349.949 69.8213C350.486 70.1922 350.759 70.3971 350.749 70.4166" fill="white"/>
<path d="M347.124 74.4683C347.348 78.382 347.524 82.5105 345.718 85.985C343.913 89.4594 339.355 91.8311 335.949 89.8791C333.177 88.298 332.347 84.7357 331.869 81.5735C330.512 72.4481 329.888 63.225 328.453 54.1094L347.114 74.4488L347.124 74.4683Z" fill="black"/>
<path d="M274.57 26.6952C274.59 26.7831 275.839 26.461 278.133 26.3829C280.416 26.3244 283.784 26.6269 287.609 28.1104C289.513 28.8521 291.543 29.8379 293.553 31.1652C295.564 32.4926 297.613 34.0834 299.682 35.8402C303.791 39.3928 308.046 43.6676 311.677 48.772C313.492 51.329 315.113 53.9544 316.85 56.3846C318.577 58.8246 320.5 61.0303 322.598 62.8456C326.766 66.4665 331.05 68.9943 334.701 70.9463C338.37 72.8885 341.425 74.2451 343.543 75.182C344.538 75.6115 345.349 75.9531 345.993 76.2263C346.559 76.4606 346.861 76.5679 346.871 76.5386C346.881 76.5093 346.608 76.3532 346.061 76.0799C345.436 75.7676 344.646 75.3772 343.68 74.899C341.611 73.8742 338.585 72.4395 334.974 70.4485C331.372 68.4477 327.156 65.8907 323.086 62.2991C321.056 60.513 319.192 58.3561 317.494 55.9357C315.776 53.525 314.176 50.8996 312.331 48.3132C308.652 43.1308 304.338 38.8364 300.161 35.2839C298.052 33.5173 295.983 31.9362 293.914 30.6089C291.855 29.2718 289.766 28.2958 287.814 27.5834C283.891 26.1291 280.436 25.9144 278.123 26.0706C276.961 26.1487 276.064 26.3048 275.468 26.4415C274.873 26.5879 274.57 26.666 274.57 26.6952Z" fill="white"/>
<path d="M347.518 65.6169C347.518 65.6169 347.937 65.9585 348.786 66.4758C349.772 67.0516 350.973 67.7641 352.417 68.6035C352.807 68.8279 353.217 69.0621 353.637 69.3061C354.096 69.5599 354.593 69.7746 355.208 69.8234C355.511 69.843 355.862 69.8137 356.175 69.5989C356.487 69.3842 356.682 69.0329 356.711 68.6522C356.741 67.9007 356.34 67.3444 356.038 66.8369C354.75 64.7678 353.334 62.5036 351.822 60.0929L351.256 60.6199C352.602 61.6154 354.164 62.406 355.862 62.9135C357.56 63.421 359.317 63.6162 360.986 63.5186C361.396 63.5088 361.855 63.4503 362.284 63.2941C362.704 63.1477 363.192 62.8647 363.397 62.3279C363.612 61.8008 363.407 61.225 363.153 60.8834C362.899 60.5126 362.596 60.249 362.333 59.9855C360.205 57.9262 358.605 55.7595 357.453 53.8271C355.15 49.9524 354.496 47.1709 354.349 47.2294C354.301 47.2392 354.428 47.9419 354.798 49.1521C355.189 50.3623 355.843 52.1094 356.955 54.1101C358.068 56.1109 359.649 58.3654 361.806 60.5028C362.343 61.0103 362.87 61.5959 362.665 62.0449C362.499 62.4938 361.679 62.7183 360.928 62.728C359.346 62.8159 357.687 62.6207 356.077 62.1424C354.467 61.6642 352.983 60.9127 351.714 59.9855L350.006 58.7363L351.148 60.5126C352.68 62.9037 354.125 65.1485 355.443 67.198C355.774 67.6958 356.067 68.1838 356.048 68.5937C356.028 69.0036 355.677 69.2378 355.218 69.1988C354.291 69.15 353.452 68.5156 352.641 68.135C351.158 67.3737 349.909 66.7296 348.903 66.2123C348.015 65.7731 347.527 65.5584 347.508 65.5974" fill="white"/>
<path d="M343.68 117.822C354.464 104.919 360.476 88.0252 359.988 71.1992L346.861 80.9103L343.68 117.822Z" fill="black"/>
<path d="M263.839 57.7985C269.773 37.5956 280.704 27.0355 294.592 25.7277C294.953 24.6932 288.541 21.9799 288.931 21.0527L272.964 23.9124C253.991 22.1458 254.752 56.1295 254.02 66.4749C253.601 72.4284 257.953 83.5741 262.843 93.5877C262.462 82.5884 260.403 69.5005 263.839 57.8082" fill="black"/>
<path d="M282.908 139.664L274.856 148.897L248.163 158.647L253.648 271.705L236.891 339.701C236.891 339.701 249.784 341.497 261.008 341.497C272.232 341.497 287.067 341.341 310.783 342.961C334.5 344.581 351.286 342.961 361.534 342.961C371.782 342.961 386.362 345.225 388.246 340.121C389.485 336.764 375.48 236.657 375.48 236.657L373.831 158.998L349.587 153.328L340.15 145.422L305.405 174.272L297.616 164.542L282.908 139.684V139.664Z" fill="#242C4F"/>
<path d="M385.447 319.539C385.447 319.539 385.007 319.827 384.139 320.3C383.183 320.798 381.904 321.475 380.285 322.328C376.918 324.061 372.039 326.571 365.872 329.461C359.696 332.318 352.211 335.597 343.488 338.377C334.794 341.166 324.772 343.431 314.019 343.854C303.286 344.31 292.933 342.873 284.307 339.755C279.984 338.217 276.149 336.248 272.783 334.16C269.446 332.03 266.567 329.841 263.767 328.033C260.995 326.207 258.302 324.771 255.755 323.841C253.218 322.903 250.886 322.421 248.954 322.277C245.061 321.973 242.973 322.784 242.953 322.658C242.953 322.641 243.07 322.599 243.324 322.522C243.578 322.455 243.948 322.328 244.456 322.244C245.461 322.041 247.003 321.846 248.974 321.956C250.945 322.058 253.345 322.506 255.951 323.418C258.556 324.323 261.327 325.751 264.147 327.568C266.996 329.36 269.904 331.532 273.222 333.611C276.569 335.647 280.355 337.566 284.619 339.062C293.128 342.096 303.344 343.499 313.961 343.042C324.597 342.628 334.521 340.406 343.176 337.676C351.86 334.954 359.335 331.743 365.541 328.954C371.737 326.14 376.665 323.714 380.08 322.058C381.739 321.263 383.046 320.629 384.022 320.156C384.929 319.725 385.408 319.514 385.427 319.539" fill="white"/>
<path d="M381.799 291.321C381.799 291.321 381.418 291.653 380.647 292.2C379.876 292.746 378.725 293.556 377.212 294.523C374.196 296.484 369.736 299.217 363.987 302.135C358.239 305.044 351.153 308.108 342.974 310.578C334.805 313.027 325.495 314.823 315.627 315.126C305.76 315.448 296.332 314.247 288.085 311.993C283.967 310.861 280.111 309.523 276.637 307.981C273.153 306.449 270.039 304.761 267.199 303.277C261.539 300.261 256.59 298.495 253.008 298.3C249.436 298.007 247.504 298.788 247.484 298.631C247.484 298.602 247.953 298.466 248.88 298.231C249.807 298.046 251.222 297.831 253.038 297.939C256.698 298.026 261.783 299.734 267.502 302.692C270.381 304.146 273.494 305.785 276.949 307.269C280.404 308.762 284.23 310.06 288.31 311.163C296.488 313.349 305.819 314.511 315.598 314.189C325.377 313.886 334.601 312.139 342.73 309.748C350.86 307.337 357.936 304.37 363.695 301.54C369.463 298.71 373.952 296.074 377.026 294.21C378.5 293.303 379.671 292.58 380.55 292.034C381.36 291.536 381.789 291.292 381.809 291.312" fill="white"/>
<path d="M377.545 266.775C377.545 266.775 377.271 267.126 376.696 267.741C376.11 268.346 375.193 269.195 373.914 270.161C371.357 272.104 367.219 274.397 361.704 276.027C356.21 277.725 349.466 278.838 341.96 279.824C334.455 280.77 326.14 281.366 317.405 281.346C299.905 281.375 284.192 278.809 273.076 276.193C267.512 274.836 263.072 273.548 260.027 272.562C258.582 272.074 257.431 271.684 256.542 271.381C255.752 271.098 255.342 270.942 255.352 270.903C255.361 270.874 255.791 270.971 256.601 271.196C257.499 271.45 258.67 271.791 260.134 272.211C263.199 273.089 267.659 274.28 273.222 275.539C284.348 277.979 299.993 280.429 317.405 280.399C326.101 280.409 334.377 279.853 341.853 278.955C349.329 278.028 356.054 276.974 361.509 275.383C366.985 273.851 371.103 271.684 373.69 269.859C376.286 268.024 377.467 266.687 377.545 266.765" fill="white"/>
<path d="M376.329 239.77C376.329 239.77 375.929 239.936 375.129 240.17C374.241 240.414 373.079 240.736 371.644 241.136C370.132 241.556 368.267 242.044 366.091 242.541C363.915 243.049 361.445 243.674 358.693 244.21C353.198 245.391 346.601 246.553 339.232 247.607C331.863 248.602 323.724 249.451 315.155 249.939C306.585 250.388 298.397 250.447 290.96 250.271C283.523 250.037 276.837 249.608 271.245 249.041C268.444 248.807 265.926 248.466 263.701 248.202C261.485 247.948 259.582 247.665 258.03 247.412C256.557 247.168 255.366 246.982 254.458 246.836C253.648 246.689 253.219 246.601 253.219 246.572C253.219 246.543 253.658 246.572 254.478 246.65C255.395 246.758 256.586 246.885 258.069 247.06C259.631 247.255 261.534 247.48 263.75 247.685C265.965 247.9 268.493 248.202 271.284 248.388C276.877 248.876 283.542 249.227 290.96 249.412C298.377 249.539 306.527 249.461 315.077 249.012C323.616 248.524 331.736 247.704 339.086 246.758C346.435 245.762 353.023 244.669 358.527 243.566C361.289 243.068 363.758 242.493 365.945 242.034C368.131 241.585 369.995 241.156 371.527 240.785C372.981 240.453 374.153 240.189 375.051 239.984C375.861 239.809 376.29 239.731 376.3 239.77" fill="white"/>
<path d="M363.362 212.15C363.362 212.15 363.03 212.297 362.376 212.492C361.624 212.697 360.678 212.96 359.507 213.283C357.018 213.975 353.377 214.825 348.859 215.81C339.821 217.694 327.123 219.587 313.001 219.763C298.879 219.909 286.152 218.807 276.958 218.084C272.459 217.684 268.769 217.362 266.076 217.118C264.875 216.991 263.899 216.894 263.119 216.806C262.445 216.728 262.094 216.669 262.094 216.63C262.094 216.601 262.455 216.591 263.138 216.611C263.919 216.65 264.905 216.689 266.105 216.747C268.808 216.913 272.498 217.138 277.007 217.411C286.21 217.967 298.927 218.963 312.991 218.816C327.045 218.641 339.684 216.864 348.732 215.156C353.251 214.268 356.91 213.517 359.419 212.931C360.6 212.677 361.556 212.472 362.327 212.316C362.991 212.18 363.352 212.131 363.362 212.16" fill="white"/>
<path d="M369.769 182.92C369.769 182.92 369.35 182.998 368.559 183.047C367.671 183.096 366.519 183.164 365.085 183.242C361.952 183.398 357.618 183.613 352.309 183.876C341.524 184.452 326.641 185.565 310.42 188.493C294.16 191.323 279.149 192.485 268.326 191.831C262.919 191.557 258.566 190.991 255.579 190.464C254.086 190.23 252.944 189.937 252.164 189.781C251.383 189.605 250.983 189.498 250.992 189.469C250.992 189.439 251.412 189.478 252.203 189.596C252.993 189.693 254.145 189.918 255.638 190.103C258.625 190.523 262.968 190.982 268.355 191.177C279.13 191.655 294.033 190.396 310.264 187.575C326.514 184.647 341.476 183.623 352.27 183.222C357.667 183.017 362.049 182.92 365.065 182.881C366.5 182.881 367.652 182.871 368.549 182.861C369.35 182.861 369.76 182.891 369.769 182.92Z" fill="white"/>
<mask id="mask0_5018_10304" style="mask-type:luminance" maskUnits="userSpaceOnUse" x="209" y="167" width="49" height="230">
<path d="M233.683 170.972C220.195 193.625 208.425 396.619 209.313 397C209.313 397 213.871 396.815 218.507 396.512C223.796 396.17 228.13 395.79 228.198 395.38C242.77 310.655 230.355 356.526 255.174 270.727C261.04 250.446 253.33 232.01 251.934 219.459C251.934 219.459 258.922 204.204 251.797 185.739C247.747 175.257 243.16 167.039 238.7 167.039C236.992 167.039 235.303 168.24 233.673 170.982" fill="white"/>
</mask>
<g mask="url(#mask0_5018_10304)">
<path d="M316.006 259.222C316.006 259.222 315.732 259.573 315.157 260.188C314.571 260.793 313.654 261.642 312.375 262.609C309.818 264.551 305.68 266.844 300.165 268.474C294.671 270.173 287.927 271.285 280.421 272.271C272.916 273.218 264.601 273.813 255.866 273.793C238.366 273.823 222.653 271.256 211.537 268.64C205.973 267.284 201.533 265.995 198.488 265.01C197.043 264.522 195.892 264.131 195.003 263.829C194.213 263.546 193.803 263.389 193.813 263.35C193.822 263.321 194.252 263.419 195.062 263.643C195.96 263.897 197.131 264.239 198.595 264.658C201.66 265.537 206.12 266.727 211.683 267.986C222.809 270.426 238.454 272.876 255.866 272.847C264.562 272.856 272.838 272.3 280.314 271.402C287.79 270.475 294.515 269.421 299.97 267.83C305.446 266.298 309.564 264.131 312.151 262.306C314.747 260.471 315.928 259.134 316.006 259.212" fill="white"/>
<path d="M314.806 232.217C314.806 232.217 314.406 232.383 313.605 232.617C312.717 232.861 311.556 233.183 310.121 233.583C308.608 234.003 306.744 234.491 304.568 234.989C302.391 235.496 299.922 236.121 297.17 236.658C291.675 237.839 285.077 239 277.709 240.054C270.34 241.05 262.2 241.899 253.631 242.387C245.062 242.836 236.874 242.894 229.437 242.718C222 242.484 215.314 242.055 209.722 241.489C206.921 241.254 204.403 240.913 202.177 240.649C199.962 240.396 198.059 240.113 196.507 239.859C195.033 239.615 193.842 239.429 192.935 239.283C192.125 239.137 191.695 239.049 191.695 239.019C191.695 238.99 192.134 239.019 192.954 239.098C193.872 239.205 195.062 239.332 196.546 239.507C198.108 239.703 200.011 239.927 202.226 240.132C204.442 240.347 206.969 240.649 209.761 240.835C215.353 241.323 222.019 241.674 229.437 241.86C236.854 241.986 245.003 241.908 253.553 241.459C262.093 240.971 270.213 240.152 277.562 239.205C284.911 238.209 291.499 237.116 297.004 236.013C299.766 235.516 302.235 234.94 304.421 234.481C306.607 234.032 308.472 233.603 310.004 233.232C311.458 232.9 312.629 232.637 313.527 232.432C314.337 232.256 314.767 232.178 314.776 232.217" fill="white"/>
<path d="M301.846 204.596C301.846 204.596 301.514 204.742 300.86 204.937C300.109 205.142 299.162 205.406 297.991 205.728C295.502 206.421 291.862 207.27 287.343 208.256C278.305 210.139 265.608 212.033 251.485 212.208C237.363 212.355 224.636 211.252 215.442 210.53C210.943 210.13 207.254 209.807 204.56 209.563C203.36 209.437 202.384 209.339 201.603 209.251C200.929 209.173 200.578 209.114 200.578 209.075C200.578 209.046 200.939 209.036 201.622 209.056C202.403 209.095 203.389 209.134 204.589 209.193C207.293 209.358 210.982 209.583 215.491 209.856C224.695 210.413 237.412 211.408 251.476 211.262C265.53 211.086 278.169 209.31 287.216 207.602C291.735 206.714 295.395 205.962 297.903 205.376C299.084 205.123 300.041 204.918 300.812 204.762C301.475 204.625 301.836 204.576 301.846 204.605" fill="white"/>
<path d="M293.174 315.205C293.174 315.205 292.842 315.351 292.188 315.547C291.437 315.752 290.49 316.015 289.319 316.337C286.83 317.03 283.19 317.879 278.671 318.865C269.633 320.749 256.936 322.642 242.813 322.818C228.691 322.964 215.964 321.861 206.77 321.139C202.271 320.739 198.582 320.417 195.888 320.173C194.688 320.046 193.712 319.948 192.931 319.861C192.258 319.782 191.906 319.724 191.906 319.685C191.906 319.656 192.267 319.646 192.951 319.665C193.731 319.704 194.717 319.743 195.918 319.802C198.621 319.968 202.31 320.192 206.819 320.466C216.023 321.022 228.74 322.017 242.804 321.871C256.858 321.695 269.497 319.919 278.544 318.211C283.063 317.323 286.723 316.571 289.231 315.986C290.412 315.732 291.369 315.527 292.14 315.371C292.803 315.234 293.164 315.186 293.174 315.215" fill="white"/>
<path d="M299.597 285.982C299.597 285.982 299.178 286.06 298.387 286.109C297.499 286.158 296.347 286.226 294.913 286.304C291.78 286.461 287.447 286.675 282.137 286.939C271.353 287.515 256.469 288.627 240.248 291.555C223.988 294.386 208.978 295.547 198.154 294.893C192.747 294.62 188.394 294.054 185.408 293.527C183.914 293.292 182.772 293 181.992 292.844C181.211 292.668 180.811 292.561 180.82 292.531C180.82 292.502 181.24 292.541 182.031 292.658C182.821 292.756 183.973 292.98 185.466 293.166C188.453 293.585 192.796 294.044 198.183 294.239C208.958 294.717 223.861 293.458 240.092 290.638C256.342 287.71 271.304 286.685 282.098 286.285C287.495 286.08 291.877 285.982 294.893 285.943C296.328 285.943 297.48 285.934 298.378 285.924C299.178 285.924 299.588 285.953 299.597 285.982Z" fill="white"/>
</g>
<mask id="mask1_5018_10304" style="mask-type:luminance" maskUnits="userSpaceOnUse" x="212" y="71" width="193" height="273">
<path d="M404.964 71.6367H212.695V343.936H404.964V71.6367Z" fill="white"/>
</mask>
<g mask="url(#mask1_5018_10304)">
<path d="M301.962 171.226C301.962 171.226 301.797 171.655 301.357 172.368C300.918 173.08 300.225 174.105 299.327 175.354C297.551 177.882 294.76 181.288 291.929 185.534L291.519 186.149L291.188 185.495C289.587 182.401 287.879 178.946 286.142 175.296C282.716 168.083 279.817 161.466 277.758 156.664C276.733 154.263 275.913 152.311 275.377 150.945C274.83 149.588 274.567 148.827 274.625 148.798C274.684 148.768 275.064 149.481 275.709 150.798C276.411 152.292 277.309 154.166 278.363 156.391C280.657 161.3 283.663 167.761 286.991 174.895C288.728 178.536 290.407 181.991 291.959 185.104L291.217 185.065C294.164 180.781 297.034 177.482 298.917 175.042C300.85 172.631 301.884 171.167 301.972 171.216" fill="black"/>
<path d="M304.118 343.928C304.118 343.928 304.083 343.786 304.059 343.509C304.047 343.183 304.023 342.781 303.999 342.278C303.975 341.131 303.939 339.54 303.891 337.53C303.831 333.343 303.735 327.389 303.627 320.062C303.388 305.266 303.064 284.917 302.705 262.442C302.406 239.933 302.43 219.551 302.729 204.804C302.873 197.427 303.052 191.465 303.244 187.345C303.352 185.327 303.424 183.744 303.484 182.597C303.52 182.094 303.556 181.684 303.579 181.366C303.603 181.09 303.627 180.947 303.651 180.947C303.675 180.947 303.687 181.09 303.699 181.366C303.699 181.693 303.711 182.094 303.723 182.605C303.723 183.752 303.711 185.335 303.699 187.353C303.663 191.54 303.615 197.486 303.556 204.813C303.46 219.559 303.58 239.933 303.867 262.442C304.166 284.942 304.442 305.316 304.442 320.062C304.454 327.44 304.418 333.402 304.346 337.53C304.298 339.54 304.262 341.131 304.238 342.278C304.214 342.781 304.19 343.191 304.178 343.518C304.154 343.794 304.142 343.936 304.118 343.936" fill="black"/>
<path d="M348.488 155.475C348.488 155.475 348 156.158 346.995 157.261C345.843 158.49 344.398 160.042 342.671 161.897C338.992 165.781 333.858 171.11 328.148 176.946C325.289 179.855 322.566 182.617 320.067 185.154C319.423 185.779 318.886 186.403 318.164 186.989C317.803 187.262 317.374 187.516 316.876 187.594C316.378 187.682 315.851 187.555 315.461 187.311C314.67 186.813 314.26 186.081 313.87 185.467C313.489 184.852 313.128 184.247 312.777 183.671C311.479 181.494 310.386 179.669 309.527 178.225C308.775 176.927 308.385 176.195 308.443 176.165C308.502 176.126 308.99 176.8 309.839 178.039C310.766 179.445 311.947 181.221 313.343 183.329C313.714 183.895 314.094 184.481 314.485 185.096C314.875 185.691 315.295 186.325 315.861 186.657C316.417 186.999 317.071 186.852 317.666 186.355C318.252 185.876 318.837 185.184 319.452 184.569C321.931 182.012 324.635 179.23 327.475 176.312C333.184 170.475 338.396 165.225 342.202 161.448C344.018 159.681 345.531 158.198 346.741 157.017C347.824 155.982 348.449 155.436 348.498 155.484" fill="black"/>
<path d="M280.345 161.546C280.375 161.702 277.837 162.151 273.865 163.283C269.893 164.405 264.495 166.328 258.923 169.256C253.35 172.203 248.724 175.561 245.552 178.216C242.38 180.86 240.574 182.686 240.457 182.578C240.408 182.529 240.818 182.041 241.599 181.173C242.37 180.304 243.57 179.113 245.112 177.718C248.197 174.917 252.832 171.423 258.483 168.436C264.134 165.469 269.639 163.625 273.699 162.649C275.729 162.161 277.388 161.848 278.54 161.702C279.692 161.546 280.336 161.487 280.345 161.556" fill="white"/>
<path d="M378.908 169.478C378.85 169.605 377.015 168.932 374.048 167.849C371.081 166.765 366.972 165.311 362.395 163.847C357.807 162.393 353.611 161.212 350.566 160.382C347.521 159.553 345.637 159.045 345.656 158.909C345.686 158.791 347.628 159.074 350.722 159.738C353.816 160.402 358.061 161.495 362.678 162.959C367.284 164.423 371.374 165.994 374.292 167.234C377.21 168.473 378.957 169.361 378.908 169.478Z" fill="white"/>
<path d="M397.834 172.593C395.785 164.824 386.444 158.704 386.152 159.105C373.249 151.892 341.237 153.707 341.237 153.707L347.405 172.183L335.645 174.203C335.645 174.203 322.732 232.128 321.942 243.429C321.454 250.437 322.127 263.818 324.069 272.943C325.494 279.658 331.76 285.26 337.967 288.188C339.998 289.144 342.115 290.003 344.097 290.53C351.221 292.434 359.644 288.666 359.644 288.666C360.386 289.301 383.595 261.505 393.452 231.825C396.575 222.426 401.104 184.997 397.834 172.583" fill="#242C4F"/>
<path d="M337.561 173.881L335.648 174.281L335.707 174.232L327.665 216.863C326.347 224.242 324.483 233.504 323.488 240.843C322.707 247.04 322.97 253.336 323.409 259.562C323.956 264.784 324.151 270.327 326.025 275.237C328.123 280.048 332.027 283.962 336.507 286.675C342.529 290.091 350.083 292.726 356.788 289.632C366.87 285.397 373.77 275.793 377.694 265.877C373.36 277.794 360.38 294.093 346.208 291.516C337.171 289.915 328.367 284.469 324.337 275.998C322.248 270.864 321.936 265.184 321.321 259.748C320.852 253.375 320.501 246.933 321.36 240.57C322.531 232.489 324.171 224.476 325.82 216.512C328.846 202.34 332.047 188.218 335.609 174.174H335.658L337.6 173.9L337.561 173.881Z" fill="black"/>
<path d="M380.868 179.961C381.014 180.088 378.409 183.163 375.403 187.076C372.387 191 370.327 194.445 370.171 194.357C370.103 194.318 370.523 193.401 371.352 191.985C372.172 190.57 373.412 188.687 374.924 186.705C376.437 184.724 377.911 183.026 379.004 181.816C380.097 180.615 380.819 179.903 380.878 179.952" fill="#9296A7"/>
<path d="M341.382 72.0469C340.913 72.8569 313.537 119.275 313.537 119.275L313.039 121.139L330.011 137.428L332.666 135.788L358.93 89.0387L343.46 72.1542L341.372 72.0469H341.382Z" fill="#242C4F"/>
<path d="M342.253 172.798C342.468 170.797 344.469 161.438 345.279 157.758L345.318 157.592L345.181 157.485C345.181 157.485 342.4 155.201 342.175 150.761C341.951 146.222 344.225 137.614 344.254 137.526L344.274 137.438L344.244 137.36C343.805 136.218 342.693 133.076 342.8 132.197C342.946 130.987 338.008 129.699 335.06 129.045L334.973 129.025L334.885 129.064C334.885 129.064 330.034 131.368 327.536 131.368C327.135 131.368 326.833 131.309 326.618 131.192C325.086 130.382 325.837 128.303 326.013 127.883L333.216 123.326L339.853 122.916L348.89 125.346L349.007 125.219C349.095 125.112 351.272 122.564 350.071 120.925C349.007 119.48 344.41 111.887 344.371 111.809L344.313 111.711L334.094 108.988L334.016 109.018C334.016 109.018 332.24 109.662 330.19 109.662C327.907 109.662 326.189 108.901 325.086 107.398L325.603 105.465L332.699 103.699L332.503 103.377C332.503 103.377 331.781 102.176 332.162 100.878C332.435 99.9411 333.206 99.1701 334.455 98.565C338.174 96.7789 341.853 95.8127 342.39 95.6761L348.392 97.2767L347.807 96.6032C345.835 94.3292 342.702 90.396 342.712 89.4883C342.712 89.1468 342.624 88.6685 342.517 88.1122C342.175 86.3554 341.707 83.9643 343.522 83.0176L357.391 97.6085L367.444 114.298C367.531 114.386 371.269 118.026 370.518 120.837C369.737 123.755 364.867 165.293 364.437 169.002L342.302 172.808L342.253 172.798Z" fill="white"/>
<path d="M343.417 83.359L357.09 97.7547L367.143 114.444L367.182 114.503L367.231 114.551C368.255 115.537 370.773 118.563 370.188 120.768C369.417 123.657 364.683 163.956 364.117 168.767L342.548 172.476C342.88 170.173 344.471 162.638 345.525 157.817L345.593 157.485L345.33 157.27C345.33 157.27 342.636 155.055 342.421 150.751C342.197 146.261 344.461 137.682 344.49 137.604L344.539 137.428L344.471 137.262C343.875 135.711 342.958 132.958 343.046 132.226C343.095 131.816 343.241 130.587 335.091 128.771L334.906 128.732L334.74 128.81C334.74 128.81 329.938 131.084 327.508 131.084C327.069 131.084 326.835 131.006 326.718 130.948C325.468 130.284 326.005 128.576 326.21 128.059L333.276 123.579L339.757 123.179L348.628 125.551L348.96 125.639L349.185 125.375C349.282 125.258 351.586 122.545 350.268 120.749C349.214 119.314 344.627 111.731 344.578 111.653L344.461 111.467L344.246 111.409L334.213 108.735L334.047 108.686L333.881 108.744C333.881 108.744 332.144 109.379 330.143 109.379C328.006 109.379 326.395 108.695 325.332 107.339L325.771 105.689L332.349 104.05L333.071 103.864L332.681 103.23C332.681 103.23 332.017 102.117 332.369 100.946C332.622 100.087 333.345 99.3748 334.516 98.8088C338.078 97.1008 341.611 96.1444 342.333 95.9589L347.408 97.3155L349.136 97.7742L347.965 96.4274C345.554 93.6556 342.938 90.2104 342.938 89.4979C342.938 89.127 342.851 88.639 342.733 88.0632C342.343 86.0624 342.109 84.2081 343.417 83.3687M343.534 82.6758C340.655 83.9348 342.411 88.1315 342.392 89.4784C342.372 90.8252 347.555 96.7787 347.555 96.7787L342.343 95.3831C342.343 95.3831 338.361 96.3493 334.281 98.311C330.202 100.273 332.212 103.513 332.212 103.513L325.322 105.231L324.727 107.446C326.112 109.408 328.25 109.925 330.134 109.925C332.261 109.925 334.057 109.262 334.057 109.262L344.09 111.936C344.09 111.936 348.726 119.607 349.809 121.071C350.883 122.545 348.755 125.024 348.755 125.024L339.796 122.632L333.091 123.042L325.761 127.688C325.761 127.688 324.531 130.401 326.454 131.426C326.727 131.572 327.088 131.631 327.508 131.631C330.095 131.631 334.974 129.298 334.974 129.298C334.974 129.298 342.646 131.006 342.509 132.158C342.372 133.31 343.973 137.458 343.973 137.458C343.973 137.458 341.65 146.144 341.894 150.78C342.128 155.406 345.007 157.7 345.007 157.7C345.007 157.7 341.884 171.929 341.962 173.13L364.634 169.236C364.634 169.236 369.934 123.911 370.734 120.905C371.535 117.899 367.631 114.151 367.631 114.151L357.549 97.4131L343.544 82.6758H343.534Z" fill="black"/>
<path d="M356.685 115.645C356.577 115.694 355.982 114.113 354.411 111.927C352.869 109.76 350.194 107.047 346.495 105.29C342.797 103.534 339.01 103.182 336.345 103.348C333.661 103.514 332.061 104.051 332.031 103.934C332.022 103.895 332.412 103.729 333.134 103.514C333.866 103.299 334.95 103.055 336.306 102.919C339.01 102.626 342.933 102.919 346.749 104.734C350.565 106.549 353.269 109.399 354.752 111.673C355.504 112.815 356.002 113.811 356.294 114.513C356.587 115.216 356.704 115.626 356.665 115.636" fill="black"/>
<path d="M361.282 111.476C361.175 111.515 360.667 110.178 359.496 108.217C358.335 106.255 356.402 103.717 353.728 101.482C351.044 99.2571 348.194 97.8224 346.057 97.0318C343.91 96.2315 342.504 95.9778 342.524 95.8704C342.524 95.8314 342.885 95.8704 343.529 95.968C344.173 96.0559 345.09 96.2803 346.193 96.6317C347.306 96.9733 348.594 97.5101 349.961 98.2225C351.317 98.9643 352.742 99.8817 354.118 101.014C355.485 102.166 356.646 103.395 357.622 104.596C358.569 105.806 359.33 106.977 359.877 108.002C360.423 109.027 360.804 109.886 361.009 110.51C361.223 111.125 361.321 111.467 361.282 111.476Z" fill="black"/>
<path d="M364.627 169.236C365.798 187.477 366.237 205.972 365.945 224.252C364.773 206.011 364.334 187.516 364.627 169.236Z" fill="black"/>
<path d="M366.32 216.317C371.025 215.234 375.904 216.395 380.54 217.332C385.147 218.464 389.929 219.772 393.784 222.651C389.724 220.143 385.03 218.923 380.423 217.85C375.787 216.903 371.073 215.693 366.32 216.327" fill="white"/>
<path d="M331.609 204.546C338.929 200.661 356.116 199.207 363.934 202.077C358.625 200.7 353.052 200.993 347.635 201.413C342.228 201.95 336.655 202.389 331.609 204.546Z" fill="white"/>
<path d="M334.078 245.196L335.513 244.649C336.899 244.005 338.509 243.849 340.012 243.595C346.034 242.648 352.407 241.848 358.361 243.517C354.349 242.678 350.221 242.961 346.171 243.322C342.12 243.839 338.07 244.249 334.078 245.196Z" fill="white"/>
<path d="M363.32 255.474C363.32 255.474 363.359 255.191 363.486 254.664C363.613 254.137 363.838 253.376 364.052 252.381C364.521 250.39 365.106 247.491 365.487 243.85C365.887 240.22 366.073 235.867 365.994 231.036C365.955 228.615 365.848 226.088 365.711 223.452C365.565 220.827 365.37 218.094 365.321 215.293C365.263 212.492 365.292 209.759 365.37 207.114C365.419 205.797 365.467 204.499 365.516 203.23C365.585 201.981 365.594 200.683 365.994 199.482C366.375 198.262 367.156 197.267 367.917 196.408C368.688 195.549 369.508 194.788 370.26 194.017C371.782 192.494 373.197 191.069 374.505 189.771C377.15 187.234 379.453 185.34 381.044 184.052C381.844 183.408 382.479 182.92 382.908 182.598C383.338 182.276 383.572 182.12 383.591 182.129C383.601 182.149 383.396 182.334 382.986 182.695C382.528 183.086 381.932 183.593 381.2 184.228C379.658 185.575 377.414 187.507 374.808 190.074C373.529 191.391 372.133 192.826 370.63 194.358C369.196 195.92 367.263 197.433 366.531 199.648C366.17 200.761 366.16 201.981 366.102 203.259C366.063 204.528 366.014 205.816 365.965 207.134C365.897 209.769 365.868 212.492 365.926 215.283C365.975 218.075 366.17 220.788 366.307 223.423C366.443 226.058 366.531 228.606 366.561 231.026C366.609 235.877 366.385 240.259 365.926 243.899C365.487 247.549 364.843 250.458 364.296 252.439C364.043 253.435 363.779 254.186 363.623 254.703C363.457 255.221 363.359 255.484 363.34 255.474" fill="black"/>
<path d="M331.016 225.149C337.564 221.43 354.654 220.727 361.671 223.538C356.664 222.123 351.394 222.269 346.241 222.523C341.107 222.923 335.808 223.07 331.016 225.158" fill="white"/>
<path d="M330.5 272.25C333.818 268.161 338.786 265.896 343.393 263.593C348.107 261.475 353.094 259.406 358.325 259.289C353.153 259.855 348.312 261.953 343.637 264.11C339.03 266.404 334.16 268.522 330.5 272.25Z" fill="white"/>
<path d="M366.477 234.441C370.254 234.255 373.962 235.348 377.603 236.256C381.204 237.281 384.884 238.54 387.899 240.824C384.718 238.803 381.077 237.73 377.476 236.724C373.826 235.866 370.205 234.909 366.477 234.441Z" fill="white"/>
<path d="M366.367 251.365C371.52 252.136 376.927 253.473 381.104 256.733C376.537 254.098 371.393 252.858 366.367 251.365Z" fill="white"/>
<path d="M367.07 202.506C374.146 199.5 389.82 199.471 396.838 202.692C392.085 201.033 386.961 200.876 381.974 200.847C376.986 200.925 371.853 200.916 367.07 202.506Z" fill="white"/>
<path d="M367.242 185.184C371.419 178.762 384.459 169.948 392.042 168.729C387.172 169.997 382.838 172.73 378.681 175.492C374.582 178.342 370.317 181.192 367.242 185.184Z" fill="white"/>
<path d="M251.667 216.482C253.834 225.354 254.185 234.558 254.537 243.654C254.81 252.76 254.761 261.866 254.859 270.952C254.908 272.094 254.703 273.353 254.498 274.485C250.887 291.194 245.519 307.454 240.883 323.88C241.917 319.449 243.049 315.037 244.182 310.626C247.11 298.972 250.848 285.933 253.112 274.231C253.297 273.119 253.473 272.123 253.405 270.981C253.102 261.866 253.151 252.769 253.092 243.683C252.985 234.606 253.005 225.491 251.677 216.492" fill="black"/>
</g>
<path d="M61.1028 339.168L578.952 340.334C580.022 340.334 580.882 341.294 580.882 342.479C580.882 343.654 580.022 344.614 578.952 344.614L61.1028 345.771C59.4559 345.771 58.1172 344.3 58.1172 342.479C58.1172 340.648 59.4559 339.168 61.1028 339.177" fill="black"/>
</g>
<defs>
<clipPath id="clip0_5018_10304">
<rect width="640" height="360" fill="white"/>
</clipPath>
</defs>
</svg>
