<svg width="640" height="360" viewBox="0 0 640 360" fill="none" 
xmlns="http://www.w3.org/2000/svg" 
xmlns:xlink="http://www.w3.org/1999/xlink">
<defs>
<ref id="colorOne" param="c1" default="#242C4F" />
<ref id="colorTwo" param="c2" default="#9296A7"/>
</defs>
<path d="M547.49 212.109H448.98V278.2H547.49V212.109Z" fill="url(#colorTwo)"/>
<path d="M547.492 278.198C547.492 278.198 547.483 277.781 547.475 276.994C547.475 276.199 547.467 275.027 547.459 273.502C547.451 270.443 547.435 265.955 547.419 260.206C547.395 248.726 547.371 232.219 547.331 212.107L547.492 212.268C520.331 212.276 486.097 212.292 448.99 212.308H448.982L449.182 212.107C449.182 235.655 449.166 258.047 449.166 278.198L448.982 278.014C477.981 278.054 502.58 278.086 519.946 278.102C528.632 278.126 535.513 278.142 540.226 278.15C542.578 278.158 544.384 278.166 545.621 278.174C546.231 278.174 546.697 278.182 547.018 278.182C547.331 278.182 547.5 278.19 547.5 278.19C547.5 278.19 547.347 278.19 547.042 278.198C546.721 278.198 546.271 278.198 545.669 278.206C544.441 278.206 542.65 278.222 540.314 278.23C535.609 278.238 528.753 278.254 520.082 278.278C502.684 278.303 478.045 278.335 448.998 278.367H448.813V278.182C448.813 258.031 448.805 235.639 448.797 212.091V211.891H449.006C486.113 211.907 520.347 211.923 547.508 211.931H547.668V212.091C547.628 232.251 547.604 248.782 547.58 260.295C547.564 266.027 547.548 270.499 547.54 273.55C547.54 275.059 547.524 276.223 547.524 277.01C547.524 277.789 547.508 278.182 547.508 278.182" fill="black"/>
<g opacity="0.3">
<mask id="mask0_8621_16997" style="mask-type:luminance" maskUnits="userSpaceOnUse" x="478" y="212" width="15" height="18">
<path d="M492.122 212.109H478.883V229.893H492.122V212.109Z" fill="white"/>
</mask>
<g mask="url(#mask0_8621_16997)">
<path d="M492.122 212.109H478.883V229.893H492.122V212.109Z" fill="white"/>
</g>
</g>
<g opacity="0.3">
<mask id="mask1_8621_16997" style="mask-type:luminance" maskUnits="userSpaceOnUse" x="478" y="260" width="14" height="19">
<path d="M491.575 260.875H478.336V278.192H491.575V260.875Z" fill="white"/>
</mask>
<g mask="url(#mask1_8621_16997)">
<path d="M491.575 260.875H478.336V278.192H491.575V260.875Z" fill="white"/>
</g>
</g>
<g opacity="0.3">
<mask id="mask2_8621_16997" style="mask-type:luminance" maskUnits="userSpaceOnUse" x="447" y="243" width="74" height="1">
<path d="M520.933 243H447.914V243.401H520.933V243Z" fill="white"/>
</mask>
<g mask="url(#mask2_8621_16997)">
<path d="M520.925 243.201C520.925 243.313 504.579 243.401 484.42 243.401C464.26 243.401 447.914 243.313 447.914 243.201C447.914 243.088 464.26 243 484.42 243C504.579 243 520.925 243.088 520.925 243.201Z" fill="black"/>
</g>
</g>
<g opacity="0.61">
<mask id="mask3_8621_16997" style="mask-type:luminance" maskUnits="userSpaceOnUse" x="520" y="212" width="28" height="67">
<path d="M547.523 212.109H520.965V278.2H547.523V212.109Z" fill="white"/>
</mask>
<g mask="url(#mask3_8621_16997)">
<path d="M547.523 212.109H520.965V278.2H547.523V212.109Z" fill="url(#colorTwo)"/>
</g>
</g>
<path d="M544.315 274.196H538.358C538.157 274.196 537.988 274.027 537.988 273.826V267.869C537.988 267.669 538.157 267.5 538.358 267.5H544.315C544.515 267.5 544.684 267.669 544.684 267.869V273.826C544.684 274.027 544.515 274.196 544.315 274.196Z" fill="#E1E1E0"/>
<path d="M520.931 277.643C520.819 277.643 520.73 263.128 520.73 245.216C520.73 227.305 520.819 212.789 520.931 212.789C521.044 212.789 521.132 227.305 521.132 245.216C521.132 263.128 521.044 277.643 520.931 277.643Z" fill="black"/>
<path d="M487.603 208.041C486.527 207.455 471.875 202.606 470.551 202.229C469.226 201.851 456.533 200.856 456.533 200.856C456.533 200.856 444.241 203.722 441.712 203.866C441.335 203.891 440.837 203.834 440.259 203.738C439.818 203.666 439.328 203.553 438.822 203.425C438.822 203.425 364.574 175.895 363.362 175.759L302.152 143.5L300.988 180.857L330.469 192.177C330.469 192.177 350.083 203.891 372.563 210.177C391.759 215.556 419.032 216.27 426.586 216.367C429.132 216.471 433.17 216.704 433.21 217.186C433.547 220.895 437.264 224.468 443.8 224.989C450.335 225.511 449.147 224.757 451.411 226.097C453.683 227.446 455.553 225.881 455.393 223.898C455.232 221.915 455.658 219.482 452.133 218.278C448.609 217.073 448.697 217.796 449.106 216.736C449.516 215.684 451.017 212.505 454.341 212.152C457.665 211.799 474.42 213.918 477.222 213.011C480.016 212.104 479.615 211.06 479.615 211.06C479.615 211.06 485.66 212.007 486.945 211.389C488.229 210.771 488.655 209.8 488.655 209.8C489.185 209.639 488.687 208.611 487.603 208.025" fill="white"/>
<path d="M487.603 208.041C486.527 207.455 471.875 202.606 470.551 202.229C469.226 201.851 456.533 200.856 456.533 200.856C456.533 200.856 444.241 203.722 441.712 203.866C441.335 203.891 440.837 203.834 440.259 203.738C439.818 203.666 439.328 203.553 438.822 203.425C438.822 203.425 364.574 175.895 363.362 175.759L302.152 143.5L300.988 180.857L330.469 192.177C330.469 192.177 350.083 203.891 372.563 210.177C391.759 215.556 419.032 216.27 426.586 216.367C429.132 216.471 433.17 216.704 433.21 217.186C433.547 220.895 437.264 224.468 443.8 224.989C450.335 225.511 449.147 224.757 451.411 226.097C453.683 227.446 455.553 225.881 455.393 223.898C455.232 221.915 455.658 219.482 452.133 218.278C448.609 217.073 448.697 217.796 449.106 216.736C449.516 215.684 451.017 212.505 454.341 212.152C457.665 211.799 474.42 213.918 477.222 213.011C480.016 212.104 479.615 211.06 479.615 211.06C479.615 211.06 485.66 212.007 486.945 211.389C488.229 210.771 488.655 209.8 488.655 209.8C489.185 209.639 488.687 208.611 487.603 208.025V208.041Z" stroke="black" stroke-width="1.53" stroke-miterlimit="10"/>
<path d="M341.123 202.392C337.285 201.22 303.429 190.879 298.523 189.426C299.182 187.989 300.418 183.027 303.341 165.669C305.043 155.578 306.608 145.389 307.042 142.531C307.973 143.519 310.109 145.775 313.641 149.339L313.689 149.388L353.543 167.781L341.123 202.392Z" fill="white"/>
<path d="M307.31 143.366C308.426 144.538 310.409 146.609 313.371 149.612L313.468 149.708L313.596 149.765L353.064 167.981L340.885 201.918C335.659 200.32 304.99 190.959 299.032 189.177C299.819 187.097 301.08 181.413 303.721 165.733C305.295 156.412 306.748 147.003 307.31 143.366ZM306.788 141.68C306.788 141.68 299.554 189.482 297.908 189.642C299.924 190.204 341.367 202.865 341.367 202.865L354.028 167.572L313.917 149.058C308.972 144.056 306.788 141.672 306.788 141.672M297.828 189.618C297.828 189.618 297.836 189.618 297.868 189.634C297.876 189.634 297.884 189.634 297.892 189.634C297.892 189.634 297.892 189.634 297.9 189.634C297.852 189.618 297.828 189.618 297.828 189.618Z" fill="black"/>
<path d="M201.718 316.879L209.065 248.138L196.211 138.838C196.211 138.838 238.73 119.698 238.296 119.008C237.871 118.317 280.992 129.316 282.702 130.007L284.79 132.022L306.78 137.377L311.364 224.462C313.925 224.374 320.814 318.203 315.74 319.881C315.74 319.881 288.186 330.407 248.372 326.513C208.559 322.619 201.727 316.879 201.727 316.879" fill="url(#colorOne)"/>
<g opacity="0.91">
<mask id="mask4_8621_16997" style="mask-type:luminance" maskUnits="userSpaceOnUse" x="205" y="270" width="112" height="24">
<path d="M317.001 270.375H205.453V293.778H317.001V270.375Z" fill="white"/>
</mask>
<g mask="url(#mask4_8621_16997)">
<path d="M317.001 287.066C317.001 289.555 240.714 301.317 205.453 286.223L207.147 270.375C207.147 270.375 279.476 277.272 316.102 271.234L317.001 287.066Z" fill="white"/>
</g>
</g>
<g opacity="0.91">
<mask id="mask5_8621_16997" style="mask-type:luminance" maskUnits="userSpaceOnUse" x="206" y="248" width="110" height="25">
<path d="M315.706 248.773H206.703V272.024H315.706V248.773Z" fill="white"/>
</mask>
<g mask="url(#mask5_8621_16997)">
<path d="M315.706 264.871C315.706 267.359 241.619 279.764 206.703 264.67L208.534 248.773C246.412 257.139 278.285 256.128 314.518 250.082L315.706 264.871Z" fill="white"/>
</g>
</g>
<path d="M277.576 327.001C277.576 327.001 277.656 326.471 277.729 325.452C277.793 324.352 277.873 322.866 277.97 321.004C278.17 317.142 278.355 311.546 278.475 304.626C278.748 290.792 278.596 271.677 277.913 250.578C277.231 229.471 276.276 210.387 275.553 196.578C275.176 189.737 274.871 184.174 274.654 180.224C274.533 178.361 274.437 176.884 274.365 175.784C274.293 174.764 274.236 174.234 274.196 174.234C274.164 174.234 274.156 174.772 274.172 175.792C274.204 176.892 274.236 178.377 274.284 180.248C274.429 184.206 274.638 189.77 274.887 196.618C275.433 210.435 276.284 229.527 276.974 250.618C277.648 271.701 277.905 290.801 277.809 304.626C277.769 311.538 277.697 317.134 277.6 320.996C277.576 322.858 277.552 324.344 277.536 325.452C277.536 326.471 277.544 327.009 277.576 327.009" fill="black"/>
<path d="M277 120V126L282.713 130.802C282.882 133.717 274.195 175.032 274.195 175.032L235.016 122.766L234 88" fill="white"/>
<path d="M299.842 52.4176C298.597 50.2097 297.289 48.604 294.952 47.6085C274.078 38.737 250.017 39.4997 228.292 46.0269C222.648 47.7209 212.588 63.5451 215.253 66.0018C217.919 68.4586 223.37 69.8796 226.863 70.843C243.474 75.4353 261.128 74.223 278.157 71.5576C282.155 70.9313 286.169 70.2168 289.935 68.7476C293.7 67.2703 297.241 64.9822 299.609 61.6985C301.616 58.9127 301.536 55.4042 299.85 52.4095" fill="url(#colorOne)"/>
<path d="M233.695 94.8203L235.132 126.011C241.579 133.694 267.8 169.357 274.255 177.04" fill="white"/>
<path d="M233.695 94.8203L235.132 126.011C241.579 133.694 267.8 169.357 274.255 177.04" stroke="black" stroke-width="1.15" stroke-miterlimit="10"/>
<path d="M233.613 92.875L233.702 94.8179" stroke="black" stroke-width="1.15" stroke-miterlimit="10"/>
<path d="M277.492 129.802C277.154 125.908 276.93 117.406 276.93 117.406Z" fill="white"/>
<path d="M277.492 129.802C277.154 125.908 276.93 117.406 276.93 117.406" stroke="black" stroke-width="1.15" stroke-miterlimit="10"/>
<path d="M242.719 102.011C251.751 109.983 267.792 117.988 272.047 118.004C282.837 118.06 292.76 107.968 291.957 98.6391L290.585 59.8774C289.782 50.5483 281.561 43.6277 272.231 44.4305L246.644 46.6304C237.315 47.4332 230.395 55.6544 231.198 64.9836L232.209 76.7775C231.334 76.0629 230.21 75.6615 228.998 75.7819C225.891 76.087 222.438 77.8693 222.671 84.2922C223.017 93.7899 230.957 93.4527 233.598 92.8827L235.75 93.0272" fill="white"/>
<path d="M242.728 102.013C243.435 101.82 243.732 102.31 244.165 102.655C249.986 107.464 256.441 111.495 263.177 114.899C265.915 116.143 268.693 117.54 271.695 117.966C276.737 118.11 281.586 115.67 285.328 112.442C288.29 109.809 290.731 106.356 291.558 102.422C291.991 100.455 291.799 98.4484 291.726 96.4252L291.47 90.3636C291.285 85.9239 290.329 64.0381 290.169 60.08C289.727 54.1711 285.898 48.6796 280.462 46.271C276.777 44.5047 272.763 44.7054 268.773 45.139L256.69 46.1425C253.181 46.4958 248.067 46.7045 244.663 47.2826C240.761 48.0453 237.221 50.3495 234.82 53.5127C232.42 56.6679 231.159 60.7063 231.456 64.6884L232.444 76.7713L232.484 77.2932L232.083 76.956C228.984 74.4832 223.853 77.0202 223.155 80.8498C221.541 88.3485 225.443 94.3859 233.608 92.8766L235.768 93.0371C235.768 93.0371 233.6 92.9087 233.616 92.9087C228.887 93.9845 223.765 91.873 222.882 86.7267C222.256 83.5635 222.288 79.6616 224.817 77.3012C226.824 75.5671 230.18 74.7963 232.364 76.6188L232.002 76.8115L230.942 64.7286C230.196 56.4271 236.322 48.238 244.527 46.6483C248.043 46.0382 253.053 45.8134 256.626 45.428L268.709 44.3522C270.716 44.1996 272.731 43.8945 274.818 44.023C281.065 44.3361 286.933 48.3263 289.486 54.0506C290.354 55.9373 290.875 57.9686 291.036 60.0479L291.213 66.1095L291.887 90.3636L292.056 96.4252C292.08 98.4323 292.296 100.496 291.863 102.511C289.84 112.265 278.576 120.39 268.749 117.323C259.733 114.032 251.118 109.359 243.603 103.354C243.194 102.968 242.632 102.776 242.728 102.037" fill="black"/>
<path d="M290.15 61.3412C290.431 63.6534 291.812 54.1315 289.042 43.5981C285.26 29.2351 260.765 25.8551 243.368 29.5643C238.438 30.616 224.998 37.7373 221.956 48.0299C219.627 55.8898 220.848 69.6507 224.284 73.5927C225.544 75.0378 226.628 76.3625 228.459 76.9887C231.453 76.1538 234.568 79.4053 234.729 82.97C234.865 85.8041 234.978 87.6827 236.126 87.755C238.366 87.8995 240.686 80.3286 241.714 59.4384C242.059 52.3332 247.542 48.4233 251.348 47.4759C255.78 46.368 266.321 51.9077 271.307 53.0236C276.301 54.1316 280.371 52.8149 283.815 49.3305C283.815 49.3305 289.21 53.4973 290.158 61.3412" fill="black"/>
<path d="M231.305 88.1031C231.257 88.071 231.112 88.2476 230.783 88.4162C230.462 88.5768 229.9 88.7053 229.298 88.5046C228.077 88.1031 226.993 86.2325 226.865 84.1772C226.801 83.1415 226.977 82.146 227.323 81.319C227.644 80.476 228.158 79.8739 228.76 79.7454C229.354 79.5849 229.803 79.9301 229.948 80.2432C230.117 80.5563 230.044 80.7891 230.109 80.8052C230.141 80.8293 230.349 80.6045 230.237 80.1388C230.181 79.914 230.036 79.6491 229.763 79.4404C229.482 79.2236 229.073 79.1272 228.655 79.1915C227.78 79.2798 227.018 80.1228 226.648 81.03C226.231 81.9452 225.998 83.0693 226.078 84.2334C226.231 86.5295 227.483 88.633 229.153 89.0505C229.964 89.2271 230.622 88.9622 230.96 88.6812C231.305 88.3841 231.353 88.1272 231.313 88.1112" fill="black"/>
<path d="M266.63 64.6171C266.389 65.3075 263.145 65.3557 259.42 66.1103C255.679 66.8169 252.732 67.973 252.162 67.4431C251.906 67.1862 252.371 66.5118 253.527 65.741C254.675 64.9703 256.546 64.1594 258.786 63.7178C261.026 63.2843 263.121 63.3244 264.542 63.5894C265.971 63.8543 266.726 64.2879 266.622 64.6171" fill="black"/>
<path d="M291.066 62.3951C290.745 63.0534 287.518 62.7162 283.728 63.0374C279.931 63.2943 276.872 64.1052 276.366 63.511C276.141 63.23 276.679 62.6118 277.924 61.9856C279.152 61.3594 281.111 60.7653 283.383 60.5886C285.663 60.42 287.743 60.701 289.116 61.1346C290.505 61.5681 291.203 62.09 291.058 62.3951" fill="black"/>
<path d="M275.439 66.3828C276.049 69.8913 277.06 73.3114 278.714 76.4666C280.28 79.4131 281.789 82.3676 276.892 82.191C275.985 82.1187 275.101 81.9662 274.234 81.7494C275.126 81.8297 276.017 81.918 276.9 81.8779C281.332 81.8217 279.437 79.2686 278.136 76.7557C276.523 73.5443 275.519 69.9796 275.431 66.3828" fill="black"/>
<path d="M300.937 55.4403C300.937 55.4403 292.459 42.2093 256.813 48.2547C219.416 54.5973 214.88 64.8096 214.88 64.8096C214.88 64.8096 211.981 56.3234 217.947 51.7552C217.947 51.7552 216.887 35.939 227.019 22.8525C230.64 18.1719 237.424 13.9649 238.813 12.6964L238.917 10.1674C238.917 10.1674 241.398 7.02026 254.099 6.13712C267.218 5.22187 270.06 9.18796 270.06 9.18796L270.469 11.4199C270.469 11.4199 291.175 19.7695 294.129 45.782C294.129 45.782 301.499 50.1816 300.945 55.4322" fill="url(#colorTwo)"/>
<path d="M238.913 10.177C239.001 10.0967 239.956 10.9638 241.45 12.441C242.903 13.9022 245.047 16.1101 246.13 19.2492C247.238 22.3242 247.495 25.2947 247.503 27.3982C247.503 29.5097 247.287 30.8023 247.182 30.7942C247.054 30.7942 247.062 29.4936 246.909 27.4223C246.757 25.3589 246.403 22.4928 245.336 19.5383C244.324 16.5677 242.373 14.4241 241.016 12.8505C239.643 11.2769 238.824 10.2573 238.913 10.177Z" fill="black"/>
<g opacity="0.39">
<mask id="mask6_8621_16997" style="mask-type:luminance" maskUnits="userSpaceOnUse" x="238" y="10" width="10" height="22">
<path d="M247.239 10.1797H238.801V31.3348H247.239V10.1797Z" fill="white"/>
</mask>
<g mask="url(#mask6_8621_16997)">
<path d="M238.905 10.1797C241.129 12.5642 244.975 16.6828 245.818 20.2796C246.661 23.8763 246.95 27.6176 247.231 31.3348C244.413 19.2439 242.558 17.59 238.793 12.7087L238.897 10.1797H238.905Z" fill="url(#colorOne)"/>
</g>
</g>
<g opacity="0.3">
<mask id="mask7_8621_16997" style="mask-type:luminance" maskUnits="userSpaceOnUse" x="221" y="16" width="19" height="32">
<path d="M239.773 16.7344H221.051V47.8288H239.773V16.7344Z" fill="white"/>
</mask>
<g mask="url(#mask7_8621_16997)">
<path d="M239.116 18.7145C239.1 18.1606 239.059 17.5664 238.706 17.157C238.361 16.7556 237.783 16.6592 237.285 16.7877C236.787 16.9161 236.354 17.2373 235.944 17.5584C227.201 24.3345 221.589 35.5263 221.052 47.0954C221.027 47.6573 221.614 48.0106 222.063 47.7216C226.118 45.0722 230.533 43.2818 235.166 42.0374C236.683 41.6279 238.907 41.6359 239.485 40.0062C239.83 39.0347 239.798 37.9589 239.758 36.9232C239.549 30.8536 239.332 24.7841 239.124 18.7145" fill="white"/>
</g>
</g>
<path d="M270.641 25.123C270.4 25.107 270.432 21.8153 270.408 17.7609C270.392 13.7065 270.336 10.4148 270.576 10.3907C270.801 10.3746 271.243 13.6663 271.259 17.7528C271.283 21.8394 270.874 25.1391 270.641 25.123Z" fill="black"/>
<path d="M293.937 44.0753C293.424 43.7703 292.813 43.409 292.091 42.9754C291.208 42.5178 290.06 42.0923 288.751 41.5384C287.418 41.0566 285.861 40.6311 284.143 40.1494C277.206 38.4875 267.307 37.6445 256.468 38.3912C245.622 39.0334 235.947 41.0566 229.115 42.9835C227.389 43.417 225.88 43.987 224.539 44.4126C223.19 44.8381 222.058 45.2716 221.135 45.657C220.292 46.0022 219.593 46.2912 219.023 46.5321C218.542 46.7408 218.301 46.8612 218.309 46.8934C218.317 46.9174 218.59 46.8532 219.088 46.6926C219.674 46.4919 220.388 46.2591 221.247 45.9701C222.179 45.6329 223.327 45.2395 224.683 44.8621C226.032 44.4768 227.55 43.9549 229.276 43.5615C236.116 41.7872 245.75 39.8764 256.525 39.2341C267.299 38.4955 277.11 39.2342 284.006 40.7275C285.708 41.169 287.266 41.5544 288.59 41.9799C289.891 42.4857 291.047 42.855 291.946 43.2645C292.733 43.6659 293.383 43.9951 293.929 44.268C293.929 44.2038 293.929 44.1396 293.929 44.0673" fill="black"/>
<path d="M276.946 117.422C273.036 116.908 267.954 115.849 262.326 113.577C255.92 110.991 248.742 106.969 245.402 104.344C245.402 104.344 259.805 123.018 276.946 123.58V117.422Z" fill="black"/>
<path d="M298.596 244.531H255.547V293.818H298.596V244.531Z" fill="#CFCBC6"/>
<path d="M298.596 250.172H255.547V289.656H298.596V250.172Z" fill="url(#colorTwo)"/>
<path d="M299.214 246.241H254.92C254.471 246.241 254.109 245.88 254.109 245.43V245.35C254.109 244.9 254.471 244.539 254.92 244.539H299.214C299.663 244.539 300.024 244.908 300.024 245.35V245.43C300.024 245.88 299.655 246.241 299.214 246.241Z" fill="#CFCBC6"/>
<path d="M291.243 256.047H264.797V259.395H291.243V256.047Z" fill="url(#colorOne)"/>
<path d="M283.812 263.219H270.324V266.567H283.812V263.219Z" fill="url(#colorOne)"/>
<path d="M299.214 293.811H254.92C254.471 293.811 254.109 293.45 254.109 293.001V292.92C254.109 292.471 254.471 292.109 254.92 292.109H299.214C299.663 292.109 300.024 292.479 300.024 292.92V293.001C300.024 293.45 299.655 293.811 299.214 293.811Z" fill="#CFCBC6"/>
<path d="M298.588 292.109H255.547V246.234H298.588L269.557 248.113V290.247L298.588 292.109Z" fill="url(#colorOne)"/>
<path d="M265.066 267.589C266.319 267.814 268.543 268.224 269.763 268.472C271.738 268.721 273.769 268.215 275.744 267.918L281.139 267.067C282.938 266.794 284.744 266.538 286.551 266.305C283.484 267.011 278.98 267.878 275.832 268.488C273.593 268.85 271.24 269.532 268.96 268.946C268.093 268.778 265.837 268.28 264.954 268.087C264.641 268.023 264.737 267.525 265.05 267.589" fill="black"/>
<path d="M266.578 273.787L270.039 274.172H269.983C274.19 273.458 280.62 272.334 284.779 271.7C285.959 271.451 286.112 271.828 284.835 272.013C280.709 272.783 274.206 273.891 269.999 274.59L266.538 274.204C266.273 274.18 266.314 273.763 266.587 273.795" fill="black"/>
<path d="M265.81 278.499C266.741 278.523 267.696 278.74 268.612 278.748C269.744 278.523 273.614 277.776 274.81 277.551C276.889 277.142 280.671 276.411 282.718 276.034C283.095 275.962 283.473 275.881 283.866 275.914C283.272 276.219 282.284 276.323 281.634 276.484C278.407 277.174 273.613 278.137 270.37 278.82L269.246 279.045C268.917 279.125 268.355 279.229 268.042 279.125C267.287 279.005 266.524 278.868 265.778 278.699C265.657 278.675 265.681 278.475 265.81 278.491" fill="black"/>
<path d="M173.783 194.866C173.108 194.593 172.699 194.473 172.602 194.529C171.655 195.099 152.7 242.861 161.989 257.834C171.238 272.751 202.027 277.721 236.172 276.259C237.344 276.781 238.131 277.119 238.292 277.102C241.848 278.917 257.624 286.889 260.531 287.419C263.814 288.021 277.728 283.862 278.491 283.598C280.875 282.795 284.849 280.226 286.029 279.214C287.21 278.202 288.366 274.581 288.366 274.581C288.366 274.581 290.028 272.823 290.453 271.001C290.927 269.002 289.112 268.994 289.883 268.44C290.654 267.886 293.102 265.895 292.147 263.51C291.834 262.739 289.586 262.595 288.815 262.683C288.045 262.772 273.176 264.963 270.791 265.124C268.407 265.276 257.384 262.627 257.592 261.005C257.809 259.384 267.805 262.884 270.727 258.589C273.649 254.285 272.076 252.616 269.37 253.499C268.768 253.699 263.887 253.964 259.615 253.812C253.096 253.587 251.555 253.587 246.168 255.891C245.381 256.228 241.969 258.292 240.604 259.681C237.505 258.717 193.822 245.037 191.718 242.435L206.146 211.381C206.146 211.381 205.937 211.269 205.551 211.06" fill="white"/>
<path d="M173.756 194.922C173.371 194.793 172.985 194.576 172.624 194.6C172.544 194.705 172.48 194.833 172.415 194.954L172.174 195.467C167.807 205.985 164.531 216.984 162.059 228.087C160.389 236.943 158.06 248.568 162.091 256.934C169.421 268.848 186.835 272.373 199.793 274.3C211.859 275.881 224.095 276.154 236.282 275.664C236.844 275.889 237.792 276.363 238.321 276.523C242.304 278.394 247.016 280.923 251.279 282.93C254.443 284.335 257.582 286.182 260.938 286.985C266.758 286.768 272.499 284.801 278.119 283.292C280.824 282.344 283.402 280.722 285.706 279.012C286.902 277.848 287.456 276.042 288.042 274.492C288.684 273.673 289.407 272.822 289.824 271.851C290.202 270.992 290.523 269.98 289.712 269.282C289.632 269.169 289.495 269.129 289.399 268.816C289.343 268.511 289.551 268.334 289.728 268.206C291.069 267.25 292.482 265.621 291.976 263.895C291.888 263.373 291.446 263.284 291.013 263.148C289.592 262.722 287.874 263.092 286.412 263.292C283.273 263.726 277.019 264.577 273.88 264.978C269.649 265.846 265.442 264.593 261.412 263.365C260.087 262.835 258.441 262.514 257.51 261.342C257.156 260.394 258.561 260.418 259.131 260.426C262.921 260.434 268.316 261.912 270.781 258.202C272.266 255.978 273.213 252.526 269.143 253.883C265.466 254.357 261.725 254.389 258.031 254.228C251.649 253.61 245.138 255.497 240.754 260.314C232.364 257.761 224.063 254.959 215.761 252.157C208.6 249.676 201.398 247.284 194.422 244.297C193.346 243.767 192.27 243.43 191.379 242.515L191.459 242.338C191.491 242.426 206.103 211.051 206.103 211.46L205.509 211.139L205.565 211.027L206.167 211.34C206.24 211.38 206.223 211.364 206.199 211.428L191.965 242.571L191.925 242.282C192.206 242.571 192.744 242.836 193.193 243.077C208.616 249.58 224.866 253.963 240.754 259.198L240.216 259.334C241.95 257.953 243.733 256.91 245.652 255.858C247.61 254.975 249.561 254.18 251.681 253.714C255.904 252.912 260.127 253.594 264.358 253.457C266.486 253.498 268.557 253.353 270.652 253.032C273.775 253.16 272.226 256.894 271.086 258.403C268.485 262.257 263.025 260.78 259.123 260.723C255.294 260.731 260.432 262.851 261.5 263.092C264.478 263.983 267.593 264.85 270.709 264.986C272.94 264.81 277.838 264.039 280.094 263.742L286.348 262.819C287.857 262.594 289.624 262.209 291.149 262.642C291.567 262.755 292.056 262.907 292.329 263.317C293.341 265.412 291.711 267.524 290.073 268.704C289.961 268.768 289.977 268.848 289.985 268.704C289.953 268.647 290.049 268.784 290.138 268.856C290.33 269.041 290.547 269.29 290.675 269.579C290.804 269.868 290.852 270.189 290.844 270.486C290.812 271.979 289.319 274.147 288.684 274.709C288.05 276.427 287.536 278.266 286.171 279.582C283.763 281.413 281.226 283.043 278.36 284.078C272.611 285.668 266.895 287.715 260.866 287.956C257.301 287.209 254.138 285.315 250.822 283.902C246.519 281.878 242.263 279.767 238.024 277.623L238.338 277.688C238.225 277.704 238.089 277.672 237.992 277.647C237.406 277.463 236.507 277.045 235.937 276.804C231.264 277.198 223.573 277.174 217.889 277.037C200.82 276.403 173.395 273.994 162.404 259.455C156.471 251.258 159.481 237.208 161.336 227.943C163.913 216.807 167.389 205.856 172.022 195.403L172.279 194.889C172.359 194.761 172.415 194.624 172.52 194.512C172.56 194.448 172.672 194.44 172.712 194.448C173.114 194.512 173.459 194.673 173.812 194.817L173.764 194.93L173.756 194.922Z" fill="black"/>
<path d="M176.932 246.849C177.109 247.082 179.911 244.746 184.134 243.622C188.341 242.434 191.946 243.028 191.978 242.731C192.074 242.514 188.341 241.462 183.885 242.707C179.413 243.903 176.74 246.713 176.94 246.849" fill="black"/>
<path d="M169.883 195.927C170.637 192.828 185.667 160.063 195.879 138.162C196.867 138.025 197.838 137.961 198.777 137.961C203.86 137.961 208.211 139.968 211.703 143.926C221.546 155.078 222.237 178.866 221.37 185.811C220.446 193.165 208.813 212.482 207.199 215.139L169.883 195.935V195.927Z" fill="white"/>
<path d="M198.77 138.333C203.74 138.333 207.995 140.3 211.407 144.17C221.162 155.217 221.844 178.853 220.985 185.749C220.102 192.79 209.208 211.055 207.048 214.62L170.333 195.721C171.722 191.353 186.214 159.761 196.129 138.502C197.028 138.389 197.911 138.333 198.762 138.333M198.77 137.57C197.759 137.57 196.707 137.651 195.615 137.803C195.615 137.803 168.68 195.552 169.482 196.154L207.337 215.64C207.337 215.64 220.745 193.898 221.748 185.854C222.712 178.146 222.013 137.57 198.77 137.57Z" fill="black"/>
<path d="M368.607 243.922H324.547V294.365H368.607V243.922Z" fill="#CFCBC6"/>
<path d="M368.607 249.695H324.547V290.111H368.607V249.695Z" fill="url(#colorTwo)"/>
<path d="M369.231 245.664H323.894C323.436 245.664 323.059 245.287 323.059 244.829V244.749C323.059 244.291 323.436 243.914 323.894 243.914H369.231C369.688 243.914 370.066 244.291 370.066 244.749V244.829C370.066 245.287 369.688 245.664 369.231 245.664Z" fill="#CFCBC6"/>
<path d="M361.084 255.711H334.02V259.139H361.084V255.711Z" fill="url(#colorOne)"/>
<path d="M353.473 263.047H339.672V266.475H353.473V263.047Z" fill="url(#colorOne)"/>
<path d="M369.231 294.367H323.894C323.436 294.367 323.059 293.99 323.059 293.532V293.452C323.059 292.995 323.436 292.617 323.894 292.617H369.231C369.688 292.617 370.066 292.995 370.066 293.452V293.532C370.066 293.99 369.688 294.367 369.231 294.367Z" fill="#CFCBC6"/>
<path d="M368.607 292.631H324.547V245.672H368.607L338.894 247.599V290.72L368.607 292.631Z" fill="url(#colorOne)"/>
<path d="M334.302 267.52C335.587 267.753 337.859 268.17 339.111 268.419C341.134 268.676 343.214 268.154 345.229 267.849L350.752 266.974C352.599 266.693 354.446 266.436 356.292 266.195C354.47 266.605 352.647 266.99 350.817 267.359C347.372 267.921 342.804 269.246 339.32 269.118C338.694 268.997 337.554 268.756 336.919 268.628L334.19 268.034C333.868 267.97 333.965 267.464 334.294 267.52" fill="black"/>
<path d="M335.839 273.862L339.38 274.255H339.323C343.635 273.525 350.218 272.368 354.465 271.726C355.678 271.469 355.838 271.855 354.521 272.047C350.298 272.842 343.643 273.966 339.34 274.681L335.799 274.287C335.534 274.263 335.566 273.83 335.847 273.87" fill="black"/>
<path d="M335.046 278.688C336.186 278.688 337.367 279.113 338.483 278.832C339.213 278.68 343.436 277.877 344.263 277.717C346.383 277.299 350.26 276.544 352.356 276.159C352.741 276.087 353.127 276.006 353.536 276.039C352.926 276.352 351.914 276.456 351.248 276.625C347.94 277.331 343.035 278.319 339.719 279.017L338.563 279.25C338.218 279.33 337.656 279.443 337.327 279.33C336.548 279.21 335.777 279.073 335.006 278.897C334.878 278.873 334.902 278.672 335.038 278.68" fill="black"/>
<path d="M587.354 278.562H415.68V290.429H587.354V278.562Z" fill="#303031"/>
<path d="M577.565 301.234H60.6484V351.294H577.565V301.234Z" fill="#8F8F8E"/>
<path d="M581.001 294.328H60.9219V300.855H581.001V294.328Z" fill="#303031"/>
<path d="M581.001 300.859H60.9219V311.594H581.001V300.859Z" fill="black"/>
<path d="M127.331 323.53C127.331 335.533 117.327 345.263 104.996 345.263C92.6637 345.263 82.6602 335.533 82.6602 323.53C82.6602 311.527 92.6557 301.797 104.996 301.797C117.335 301.797 127.331 311.527 127.331 323.53Z" fill="black"/>
<path d="M198.014 323.53C198.014 335.533 188.011 345.263 175.679 345.263C163.347 345.263 153.344 335.533 153.344 323.53C153.344 311.527 163.339 301.797 175.679 301.797C188.019 301.797 198.014 311.527 198.014 323.53Z" fill="black"/>
<path d="M268.702 323.53C268.702 335.533 258.698 345.263 246.367 345.263C234.035 345.263 224.031 335.533 224.031 323.53C224.031 311.527 234.027 301.797 246.367 301.797C258.706 301.797 268.702 311.527 268.702 323.53Z" fill="black"/>
<path d="M339.393 323.53C339.393 335.533 329.39 345.263 317.058 345.263C304.726 345.263 294.723 335.533 294.723 323.53C294.723 311.527 304.718 301.797 317.058 301.797C329.398 301.797 339.393 311.527 339.393 323.53Z" fill="black"/>
<path d="M410.081 323.53C410.081 335.533 400.077 345.263 387.746 345.263C375.414 345.263 365.41 335.533 365.41 323.53C365.41 311.527 375.414 301.797 387.746 301.797C400.077 301.797 410.081 311.527 410.081 323.53Z" fill="black"/>
<path d="M480.772 323.53C480.772 335.533 470.769 345.263 458.437 345.263C446.105 345.263 436.102 335.533 436.102 323.53C436.102 311.527 446.097 301.797 458.437 301.797C470.777 301.797 480.772 311.527 480.772 323.53Z" fill="black"/>
<path d="M551.468 323.53C551.468 335.533 541.464 345.263 529.132 345.263C516.8 345.263 506.797 335.533 506.797 323.53C506.797 311.527 516.8 301.797 529.132 301.797C541.464 301.797 551.468 311.527 551.468 323.53Z" fill="black"/>
<g style="mix-blend-mode:multiply">
<mask id="mask8_8621_16997" style="mask-type:luminance" maskUnits="userSpaceOnUse" x="60" y="311" width="518" height="14">
<path d="M577.634 311.594H60.918V324.616H577.634V311.594Z" fill="white"/>
</mask>
<g mask="url(#mask8_8621_16997)">
<path d="M577.626 311.594H60.918V324.616H408.2L577.626 311.594Z" fill="#E5E0E3"/>
</g>
</g>
<path d="M428.588 244.5H384.527V294.943H428.588V244.5Z" fill="#CFCBC6"/>
<path d="M428.588 250.273H384.527V290.689H428.588V250.273Z" fill="url(#colorTwo)"/>
<path d="M429.231 246.242H383.894C383.436 246.242 383.059 245.865 383.059 245.407V245.327C383.059 244.87 383.436 244.492 383.894 244.492H429.231C429.688 244.492 430.066 244.87 430.066 245.327V245.407C430.066 245.865 429.688 246.242 429.231 246.242Z" fill="#CFCBC6"/>
<path d="M421.072 256.289H394.008V259.717H421.072V256.289Z" fill="url(#colorOne)"/>
<path d="M413.453 263.625H399.652V267.053H413.453V263.625Z" fill="url(#colorOne)"/>
<path d="M429.231 294.946H383.894C383.436 294.946 383.059 294.568 383.059 294.111V294.03C383.059 293.573 383.436 293.195 383.894 293.195H429.231C429.688 293.195 430.066 293.573 430.066 294.03V294.111C430.066 294.568 429.688 294.946 429.231 294.946Z" fill="#CFCBC6"/>
<path d="M428.588 293.209H384.527V246.25H428.588L398.874 248.177V291.298L428.588 293.209Z" fill="url(#colorOne)"/>
<path d="M394.294 268.098C395.579 268.331 397.851 268.748 399.103 268.997C401.126 269.254 403.206 268.732 405.221 268.427L410.745 267.56C412.591 267.279 414.438 267.022 416.284 266.781C414.462 267.191 412.639 267.576 410.809 267.945C407.365 268.507 402.796 269.832 399.312 269.704C398.686 269.583 397.546 269.342 396.911 269.214L394.182 268.62C393.861 268.556 393.957 268.042 394.286 268.106" fill="black"/>
<path d="M395.827 274.444L399.368 274.838H399.312C403.623 274.107 410.206 272.951 414.454 272.309C415.666 272.06 415.826 272.437 414.51 272.63C410.287 273.425 403.631 274.549 399.328 275.263L395.787 274.87C395.522 274.846 395.554 274.412 395.835 274.452" fill="black"/>
<path d="M395.035 279.266C396.175 279.266 397.355 279.692 398.471 279.411C399.201 279.258 403.424 278.455 404.251 278.295C406.371 277.877 410.249 277.122 412.344 276.737C412.73 276.665 413.115 276.585 413.524 276.617C412.914 276.93 411.903 277.034 411.236 277.203C407.929 277.909 403.023 278.897 399.707 279.595L398.551 279.828C398.206 279.908 397.644 280.021 397.315 279.908C396.536 279.788 395.765 279.651 394.995 279.475C394.866 279.451 394.89 279.25 395.027 279.258" fill="black"/>
<path d="M140.791 242.797H96.7305V293.24H140.791V242.797Z" fill="#CFCBC6"/>
<path d="M140.791 248.562H96.7305V288.978H140.791V248.562Z" fill="url(#colorTwo)"/>
<path d="M141.422 244.539H96.085C95.6273 244.539 95.25 244.162 95.25 243.704V243.624C95.25 243.166 95.6273 242.789 96.085 242.789H141.422C141.88 242.789 142.257 243.166 142.257 243.624V243.704C142.257 244.162 141.88 244.539 141.422 244.539Z" fill="#CFCBC6"/>
<path d="M133.267 254.578H106.203V258.006H133.267V254.578Z" fill="url(#colorOne)"/>
<path d="M125.656 261.914H111.855V265.342H125.656V261.914Z" fill="url(#colorOne)"/>
<path d="M141.422 293.235H96.085C95.6273 293.235 95.25 292.857 95.25 292.4V292.319C95.25 291.862 95.6273 291.484 96.085 291.484H141.422C141.88 291.484 142.257 291.862 142.257 292.319V292.4C142.257 292.857 141.88 293.235 141.422 293.235Z" fill="#CFCBC6"/>
<path d="M140.783 291.498H96.7305V244.539H140.783L111.077 246.466V289.587L140.783 291.498Z" fill="url(#colorOne)"/>
<path d="M106.478 266.387C107.762 266.62 110.034 267.037 111.287 267.286C113.31 267.543 115.389 267.021 117.405 266.716L122.928 265.849C124.775 265.568 126.621 265.311 128.468 265.07C126.645 265.48 124.823 265.865 122.992 266.234C119.548 266.796 114.98 268.121 111.496 267.993C110.869 267.872 109.729 267.631 109.095 267.503L106.365 266.909C106.044 266.845 106.141 266.331 106.47 266.395" fill="black"/>
<path d="M108.03 272.733L111.571 273.127H111.515C115.826 272.396 122.41 271.24 126.657 270.598C127.869 270.349 128.03 270.726 126.713 270.919C122.49 271.714 115.834 272.838 111.531 273.552L107.99 273.159C107.725 273.135 107.758 272.701 108.039 272.741" fill="black"/>
<path d="M107.223 277.555C108.363 277.555 109.543 277.981 110.659 277.7C111.39 277.547 115.613 276.744 116.44 276.584C118.559 276.166 122.437 275.411 124.532 275.026C124.918 274.954 125.303 274.874 125.713 274.906C125.102 275.219 124.091 275.323 123.424 275.492C120.117 276.198 115.211 277.186 111.895 277.884L110.739 278.117C110.394 278.197 109.832 278.31 109.503 278.197C108.724 278.077 107.953 277.94 107.183 277.764C107.062 277.74 107.078 277.539 107.215 277.547" fill="black"/>
<path d="M217.732 243.375H173.672V293.818H217.732V243.375Z" fill="#CFCBC6"/>
<path d="M217.732 249.141H173.672V289.556H217.732V249.141Z" fill="url(#colorTwo)"/>
<path d="M218.375 245.117H173.038C172.58 245.117 172.203 244.74 172.203 244.282V244.202C172.203 243.745 172.58 243.367 173.038 243.367H218.375C218.833 243.367 219.21 243.745 219.21 244.202V244.282C219.21 244.74 218.833 245.117 218.375 245.117Z" fill="#CFCBC6"/>
<path d="M210.209 255.156H183.145V258.584H210.209V255.156Z" fill="url(#colorOne)"/>
<path d="M202.617 262.492H188.816V265.92H202.617V262.492Z" fill="url(#colorOne)"/>
<path d="M218.375 293.813H173.038C172.58 293.813 172.203 293.435 172.203 292.978V292.897C172.203 292.44 172.58 292.062 173.038 292.062H218.375C218.833 292.062 219.21 292.44 219.21 292.897V292.978C219.21 293.435 218.833 293.813 218.375 293.813Z" fill="#CFCBC6"/>
<path d="M217.732 292.076H173.68V245.117H217.732L188.019 247.052V290.165L217.732 292.076Z" fill="url(#colorOne)"/>
<path d="M183.427 266.965C184.712 267.198 186.984 267.615 188.236 267.864C190.259 268.121 192.339 267.599 194.354 267.294L199.877 266.427C201.724 266.146 203.571 265.889 205.417 265.648C203.595 266.058 201.772 266.443 199.942 266.813C196.497 267.375 191.929 268.699 188.445 268.571C187.819 268.45 186.679 268.21 186.044 268.081L183.315 267.487C182.993 267.423 183.09 266.909 183.419 266.973" fill="black"/>
<path d="M184.98 273.312L188.52 273.705H188.464C192.775 272.974 199.359 271.818 203.606 271.176C204.818 270.927 204.979 271.304 203.662 271.497C199.439 272.292 192.783 273.416 188.48 274.13L184.94 273.737C184.675 273.713 184.707 273.279 184.988 273.32" fill="black"/>
<path d="M184.184 278.133C185.324 278.133 186.504 278.559 187.62 278.278C188.351 278.125 192.574 277.322 193.401 277.162C195.52 276.744 199.398 275.99 201.493 275.604C201.879 275.532 202.264 275.452 202.673 275.484C202.063 275.797 201.052 275.901 200.385 276.07C197.078 276.776 192.172 277.764 188.856 278.462L187.7 278.695C187.355 278.776 186.793 278.888 186.464 278.776C185.685 278.655 184.914 278.519 184.144 278.342C184.023 278.318 184.039 278.117 184.176 278.125" fill="black"/>
<path d="M489.391 273.227H466.742V274.102H489.391V273.227Z" fill="black"/>
<path d="M475.164 271.328H466.742V272.203H475.164V271.328Z" fill="black"/>
<path d="M458.509 269.343H456.678C455.98 269.343 455.418 268.781 455.418 268.083V266.26C455.418 265.562 455.98 265 456.678 265H458.509C459.207 265 459.769 265.562 459.769 266.26V268.083C459.769 268.781 459.207 269.343 458.509 269.343Z" fill="black"/>
<path d="M463.56 269.343H461.729C461.031 269.343 460.469 268.781 460.469 268.083V266.26C460.469 265.562 461.031 265 461.729 265H463.56C464.258 265 464.82 265.562 464.82 266.26V268.083C464.82 268.781 464.258 269.343 463.56 269.343Z" fill="black"/>
<path d="M458.509 274.375H456.678C455.98 274.375 455.418 273.813 455.418 273.114V271.292C455.418 270.593 455.98 270.031 456.678 270.031H458.509C459.207 270.031 459.769 270.593 459.769 271.292V273.114C459.769 273.813 459.207 274.375 458.509 274.375Z" fill="black"/>
<path d="M463.56 274.375H461.729C461.031 274.375 460.469 273.813 460.469 273.114V271.292C460.469 270.593 461.031 270.031 461.729 270.031H463.56C464.258 270.031 464.82 270.593 464.82 271.292V273.114C464.82 273.813 464.258 274.375 463.56 274.375Z" fill="black"/>
<path d="M581.92 325.18H61.7383V351.298H581.92V325.18Z" fill="black"/>
<script type="text/ecmascript" xlink:href="https://dev.w3.org/SVG/modules/ref/master/ref2.js"></script></svg>
