<svg width="640" height="360" viewBox="0 0 640 360" fill="none" 
xmlns="http://www.w3.org/2000/svg" 
xmlns:xlink="http://www.w3.org/1999/xlink">
<defs>
<ref id="colorOne" param="c1" default="#242C4F" />
<ref id="colorTwo" param="c2" default="#9296A7"/>
</defs>
<path d="M485 303.5L440.5 277L442.5 261.5L441.5 259.5L434 234L438 225.5L447 203.5L449 201.5L464.5 206L472 210.5L477.5 218.5L481 254L485 303.5Z" fill="white"/>
<path d="M312.006 50.2969L275.172 301.675" stroke="black" stroke-width="10.41" stroke-miterlimit="10"/>
<path d="M113.613 38.9995L314.119 7L324.684 9.09308L506.513 81.9612L113.613 38.9995Z" fill="url(#colorOne)"/>
<path d="M217.648 51.5456L314.238 7L324.818 9.10338L379.849 68.3906L217.648 51.5456Z" fill="url(#colorTwo)"/>
<path d="M219.614 50.2969C219.614 50.2969 219.348 67.3831 220.738 71.5509C222.128 75.7187 227.114 84.244 237.454 85.5068C247.799 86.7756 354.469 97.4707 354.469 97.4707C354.469 97.4707 371.539 94.4412 375.485 83.3251C379.43 72.209 379.856 67.8693 379.856 67.8693L219.608 50.2969H219.614Z" fill="url(#colorTwo)"/>
<path d="M219.614 50.2969C219.614 50.2969 219.348 67.3831 220.738 71.5509C222.128 75.7187 227.114 84.244 237.454 85.5068C247.799 86.7756 354.469 97.4707 354.469 97.4707C354.469 97.4707 371.539 94.4412 375.485 83.3251C379.43 72.209 379.856 67.8693 379.856 67.8693L219.608 50.2969H219.614Z" fill="url(#colorTwo)"/>
<path d="M113.613 39.3184C113.613 39.3184 114.088 57.3649 114.746 60.4479C115.404 63.5308 117.982 72.0823 130.485 73.5241C142.982 74.966 200.824 80.0242 200.824 80.0242C200.824 80.0242 210.872 78.8402 215.224 66.0863C219.575 53.3383 219.593 50.7769 219.593 50.7769L113.613 39.3125V39.3184Z" fill="url(#colorOne)"/>
<path d="M379.848 68.3906L380.745 85.267C380.745 85.267 380.291 100.336 398.508 102.385C416.725 104.434 485.283 111.041 485.283 111.041C485.283 111.041 500.282 109.345 503.306 98.051C506.329 86.7568 506.506 82.205 506.506 82.205L379.854 68.3906H379.848Z" fill="url(#colorOne)"/>
<path d="M506.513 81.9602C506.496 82.1422 418.518 72.7457 310.037 60.9722C201.52 49.1928 113.596 39.497 113.613 39.3151C113.631 39.1332 201.591 48.5296 310.108 60.309C418.589 72.0825 506.531 81.7783 506.513 81.9602Z" fill="black"/>
<path d="M219.6 50.2943C219.523 50.1298 240.581 40.2997 266.629 28.3485C292.688 16.3915 313.865 6.83757 313.941 7.00209C314.018 7.16661 292.965 16.9967 266.906 28.9537C240.858 40.9049 219.67 50.4647 219.594 50.2943" fill="black"/>
<path d="M379.853 68.3886C379.717 68.5137 367.312 55.3105 352.145 38.8959C336.972 22.4753 324.791 9.0635 324.927 8.93838C325.063 8.81326 337.468 22.0165 352.635 38.4371C367.802 54.8517 379.989 68.2635 379.853 68.3886Z" fill="black"/>
<path d="M622.651 302.597C596.162 302.597 502.428 302.028 408.527 302.145C408.249 302.048 407.977 301.977 407.751 301.977C391.415 301.996 375.046 302.035 358.988 302.086C212.606 302.552 49.6176 303.818 7.63281 303.818C7.63281 303.818 84.5068 324.032 165.859 329.402C228.251 333.518 304.615 343.076 332.363 343.839C351.149 344.356 370.704 343.813 390.394 342.514L392.164 338.921L390.394 342.953C504.238 335.438 622.651 302.603 622.651 302.603" fill="url(#colorTwo)"/>
<path d="M409.845 305.245L401.968 291.287L381.295 287.694L357.547 283.836L347.698 292.825L325.604 299.92H299.419L281.829 294.595L248.859 306.693L409.845 305.245Z" fill="url(#colorTwo)"/>
<path d="M408.589 302.915C411.988 303.109 417.811 303.361 421.236 303.606V303.703C420.169 303.697 419.11 303.632 418.05 303.6C416.215 303.522 410.483 303.277 408.525 303.193H408.473L408.447 303.147L401.733 291.425L401.41 290.863L401.94 291.231L402.03 291.296L402.56 291.664L401.927 291.561L357.467 284.342L356.11 284.123C356.827 283.909 358.184 283.502 358.908 283.289L357.893 284.22C357.829 284.271 348.045 293.273 347.987 293.318C348 293.331 325.789 300.511 325.77 300.53C325.725 300.601 299.462 300.588 299.385 300.614H299.32L299.256 300.595L281.62 295.302L278.706 294.43L281.743 294.333H281.898L284.942 294.236C284.225 294.501 260.063 303.47 258.415 304C210.375 303.929 138.548 304.188 91.0703 303.865V302.546C94.618 302.475 98.0624 302.495 101.558 302.469C107.788 302.456 126.354 302.424 132.926 302.417C159.136 302.398 231.17 302.443 258.376 302.462L258.466 303.451L258.382 303.464L258.124 302.508C258.273 302.456 281.685 293.919 281.821 293.874C281.898 293.913 299.508 299.264 299.611 299.302L299.437 300.091L299.366 300.078L299.424 299.276L325.615 299.341L325.667 300.033L325.595 300.045L325.434 299.367L347.548 292.356L349.971 291.587C348.821 292.239 346.63 293.506 345.486 294.165C346.785 293.002 355.922 284.73 357.415 283.386C357.512 283.405 401.953 291.095 402.056 291.115C402.114 291.102 408.622 302.934 408.66 302.96L408.589 302.915C408.589 302.915 408.667 302.96 408.66 302.96L402.004 291.192C402.198 291.283 357.409 283.819 357.448 283.845L357.635 283.787L347.741 292.866L347.425 292.427L347.502 292.381L347.722 292.879L325.654 300.033L325.492 299.354L325.563 299.341L325.615 300.033L299.424 300.078L299.482 299.27L299.546 299.283L299.372 300.071L281.698 294.759H281.982L258.466 303.438L258.208 302.482L258.292 302.469L258.376 303.458C220.023 303.529 149.786 303.638 112.021 303.735C106.56 303.761 96.6859 303.761 91.1479 303.858V302.546C137.94 302.869 211.512 302.721 258.234 302.928L281.75 294.352L281.937 295.315H281.788L281.918 294.352L299.527 299.716C298.719 299.684 326.3 299.722 325.531 299.761C325.311 299.826 348.316 292.44 347.58 292.743L357.48 283.748L357.784 284.284L357.622 284.329L357.583 283.716L401.991 291.263L401.881 291.528L401.791 291.464L402.004 291.27L408.634 303.044L408.557 302.999C411.969 303.154 417.811 303.496 421.249 303.606V303.703C420.195 303.606 419.142 303.554 418.089 303.483C416.26 303.373 410.554 303.031 408.609 302.915" fill="url(#colorOne)"/>
<path d="M208.645 345.183C208.064 344.427 207.191 343.962 206.345 343.536C201.802 341.248 199.01 341.002 194.752 340.072C193.478 339.736 192.083 339.464 190.596 339.264C190.558 339.258 190.519 339.251 190.474 339.245L190.551 339.264C182.816 338.243 172.328 338.23 167.145 342.159C166.583 342.586 165.975 343.212 166.176 343.891C166.344 344.46 167.003 344.712 167.572 344.88C180.063 348.518 193.207 349.894 206.177 348.931C207.191 348.854 208.341 348.692 208.91 347.852C209.447 347.064 209.227 345.946 208.645 345.196" fill="url(#colorTwo)"/>
<path d="M475.737 308.766C476.002 308.649 476.345 308.875 476.351 309.166C476.351 309.457 476.015 309.69 475.75 309.586C475.479 309.483 475.395 309.076 475.595 308.869" fill="white"/>
<path d="M471.616 309.873C472.082 309.673 472.689 310.067 472.695 310.578C472.702 311.082 472.107 311.495 471.636 311.315C471.164 311.127 471.009 310.423 471.358 310.054" fill="white"/>
<path d="M481.878 304.528C481.878 304.664 475.403 304.767 467.415 304.767C459.428 304.767 452.953 304.657 452.953 304.528C452.953 304.399 459.428 304.289 467.415 304.289C475.403 304.289 481.878 304.399 481.878 304.528Z" fill="white"/>
<path d="M345.373 309.348C345.347 309.386 344.856 309.012 343.886 308.475C342.917 307.952 341.444 307.28 339.499 306.931C337.573 306.588 335.162 306.575 332.7 307.415C330.251 308.243 327.776 309.884 325.993 312.288C325.844 312.501 325.695 312.714 325.553 312.915L325.405 313.128L325.204 312.973C322.891 311.215 320.164 310.33 317.676 310.129C315.168 309.91 312.9 310.297 311.117 310.924C309.327 311.551 307.995 312.346 307.149 312.986C306.302 313.619 305.869 314.026 305.837 313.994C305.824 313.981 305.921 313.871 306.121 313.671C306.328 313.483 306.6 313.16 307.033 312.837C307.853 312.146 309.184 311.286 311 310.608C312.81 309.923 315.136 309.49 317.708 309.69C320.274 309.871 323.091 310.769 325.501 312.592L325.153 312.65C325.295 312.443 325.45 312.223 325.605 312.004C327.453 309.509 330.025 307.822 332.558 306.995C335.111 306.149 337.599 306.2 339.563 306.595C341.541 306.995 343.027 307.732 343.977 308.314C344.455 308.604 344.81 308.863 345.037 309.05C345.263 309.238 345.379 309.335 345.373 309.354" fill="url(#colorOne)"/>
<path d="M343.262 310.861C343.223 310.932 342.506 310.545 341.278 310.125C340.057 309.705 338.293 309.323 336.315 309.362C334.344 309.407 332.593 309.866 331.391 310.338C330.183 310.81 329.485 311.23 329.446 311.158C329.42 311.12 330.054 310.59 331.262 310.021C332.464 309.452 334.267 308.929 336.309 308.877C338.351 308.839 340.173 309.284 341.401 309.801C342.629 310.312 343.288 310.816 343.262 310.855" fill="white"/>
<path d="M310.643 314.836C310.908 314.72 311.251 314.946 311.257 315.236C311.257 315.527 310.921 315.76 310.656 315.657C310.385 315.553 310.301 315.146 310.501 314.939" fill="white"/>
<path d="M313.808 312.756C314.273 312.556 314.88 312.95 314.887 313.461C314.893 313.965 314.299 314.378 313.827 314.197C313.355 314.01 313.2 313.306 313.549 312.937" fill="white"/>
<path d="M282.623 309.059C282.623 309.195 275.211 309.189 266.08 309.04C256.942 308.898 249.537 308.672 249.543 308.542C249.543 308.407 256.949 308.413 266.086 308.562C275.224 308.704 282.623 308.93 282.623 309.059Z" fill="white"/>
<path d="M288.053 310.973C288.053 311.109 286.49 311.213 284.564 311.213C282.638 311.213 281.074 311.103 281.074 310.973C281.074 310.844 282.638 310.734 284.564 310.734C286.49 310.734 288.053 310.844 288.053 310.973Z" fill="white"/>
<path d="M60.2227 142.174L115.513 139.531L113.277 145.909L68.2358 148.895L60.2227 142.174Z" fill="black"/>
<path d="M196.544 264.663L190.121 222.168L105.26 145.914L60.2314 149.649V151.568C59.9729 153.236 113.706 212.791 127.606 228.533C141.506 244.268 185.649 272.03 201.856 271.138C218.063 270.246 235.524 257.677 235.524 257.677L196.551 264.663H196.544Z" fill="url(#colorTwo)"/>
<path d="M139.442 224.611C139.565 224.662 138.944 226.368 138.059 228.423C137.167 230.478 136.353 232.1 136.23 232.042C136.108 231.99 136.728 230.284 137.62 228.229C138.505 226.174 139.326 224.559 139.449 224.611" fill="black"/>
<path d="M139.908 233.44C139.772 233.434 139.779 231.825 139.908 229.86C140.044 227.889 140.263 226.3 140.399 226.313C140.535 226.319 140.528 227.928 140.399 229.893C140.263 231.864 140.044 233.453 139.914 233.44" fill="black"/>
<path d="M297.704 304.093L236.087 250.438L223.996 254.27L284.327 304.093H297.704Z" fill="black"/>
<path d="M270.075 238.18L272.601 246.897L75.8348 304.094H67.3047L72.4033 295.816L270.075 238.18Z" fill="black"/>
<path d="M60.2112 142.172C61.2452 142.172 245.882 304.088 245.882 304.088H229.54L56.0625 149.771L60.2112 142.172Z" fill="black"/>
<path d="M245.9 304.092C245.9 304.092 245.726 303.963 245.403 303.691C245.073 303.407 244.595 303.006 243.981 302.483C242.728 301.404 240.899 299.834 238.546 297.811C233.829 293.727 227.031 287.833 218.624 280.557C201.828 265.939 178.649 245.758 153.052 223.464C127.507 201.092 104.379 180.846 87.6289 166.176C79.3056 158.81 72.5656 152.851 67.8934 148.716C65.5799 146.635 63.7641 145.039 62.575 143.914C61.987 143.358 61.5346 142.938 61.218 142.641C60.9143 142.35 60.7656 142.195 60.7656 142.195C61.7608 143.068 71.2602 151.384 87.8615 165.918C104.637 180.561 127.791 200.768 153.381 223.095C178.946 245.429 202.093 265.649 218.863 280.292C227.218 287.62 233.991 293.552 238.682 297.662C241.009 299.711 242.811 301.307 244.052 302.405C244.653 302.942 245.118 303.355 245.442 303.646C245.752 303.931 245.907 304.079 245.907 304.079" fill="black"/>
<path d="M229.56 304.09C229.56 304.09 229.399 303.967 229.095 303.709C228.785 303.437 228.339 303.056 227.764 302.559C226.588 301.531 224.875 300.032 222.672 298.106C218.252 294.209 211.873 288.594 204.003 281.66C188.267 267.721 166.548 248.483 142.56 227.242C118.624 205.917 96.9566 186.621 81.26 172.637C73.4602 165.619 67.1466 159.932 62.7653 155.99C60.6004 154.006 58.9009 152.488 57.7829 151.415C57.2336 150.891 56.8071 150.484 56.5099 150.2C56.2255 149.922 56.0898 149.773 56.0898 149.773C58.0802 151.544 95.0697 184.404 142.883 226.88C166.839 248.166 188.526 267.443 204.235 281.408C212.067 288.394 218.407 294.048 222.801 297.97C224.979 299.922 226.672 301.447 227.835 302.494C228.397 303.004 228.83 303.399 229.134 303.677C229.425 303.948 229.567 304.09 229.567 304.09" fill="black"/>
<path d="M118.507 198.868L100.853 293.035C100.452 295.161 98.5975 296.706 96.4327 296.706C93.6087 296.706 91.4891 294.134 92.019 291.361L110.074 197.272C110.507 194.998 112.666 193.485 114.953 193.841C117.344 194.216 118.953 196.49 118.507 198.875" fill="black"/>
<path d="M118.501 198.868C118.437 198.874 118.753 198.079 118.288 196.69C118.042 196.018 117.564 195.21 116.685 194.616C115.832 194.021 114.559 193.666 113.235 194.015C111.929 194.338 110.617 195.449 110.23 197.071C109.913 198.726 109.571 200.528 109.202 202.461C108.472 206.331 107.638 210.745 106.714 215.611C102.998 235.108 97.8675 262.01 92.2002 291.723C91.9611 293.513 93.0144 295.354 94.6429 296.078C96.252 296.847 98.3005 296.44 99.496 295.154C100.11 294.527 100.491 293.713 100.633 292.847C100.801 291.949 100.969 291.051 101.137 290.159C101.473 288.375 101.803 286.605 102.133 284.853C103.451 277.842 104.724 271.076 105.939 264.633C108.375 251.748 110.566 240.148 112.407 230.397C114.262 220.671 115.768 212.787 116.808 207.327C117.338 204.619 117.745 202.506 118.029 201.058C118.172 200.354 118.282 199.818 118.359 199.43C118.437 199.062 118.488 198.881 118.488 198.881C118.488 198.881 118.469 199.074 118.411 199.443C118.346 199.831 118.249 200.373 118.126 201.078C117.868 202.532 117.48 204.645 116.996 207.365C115.987 212.839 114.533 220.723 112.743 230.468C110.928 240.226 108.769 251.832 106.372 264.724C105.17 271.166 103.903 277.939 102.591 284.95C102.262 286.702 101.932 288.472 101.596 290.256C101.428 291.148 101.26 292.046 101.092 292.944C100.937 293.875 100.511 294.805 99.8256 295.497C98.4943 296.925 96.2197 297.384 94.4296 296.524C92.6202 295.716 91.4441 293.674 91.7091 291.677C97.4281 261.958 102.611 235.056 106.365 215.559C107.309 210.693 108.168 206.293 108.924 202.422C109.306 200.49 109.661 198.687 109.991 197.032C110.411 195.326 111.806 194.17 113.176 193.847C114.566 193.504 115.884 193.892 116.756 194.512C117.655 195.139 118.133 195.979 118.366 196.671C118.598 197.375 118.605 197.95 118.572 198.325C118.54 198.7 118.482 198.887 118.482 198.887" fill="black"/>
<path d="M115.38 140.984C113.615 143.944 110.759 146.199 107.509 147.324C103.806 148.442 101.286 149.702 101.111 153.98C101.059 153.127 101.156 152.261 101.415 151.434C102.171 148.694 104.963 147.75 107.373 146.949C110.61 145.863 113.363 143.731 115.386 140.984" fill="white"/>
<path d="M113.429 138.445C111.871 142.374 107.535 144.255 103.522 144.339C102.947 144.358 102.372 144.345 101.797 144.358C102.941 144.19 104.084 144.119 105.196 143.88C108.556 143.292 111.729 141.489 113.429 138.452" fill="white"/>
<path d="M138.325 174.883L143.578 181.423C145.504 180.44 146.467 179.962 148.218 179.484C153.879 177.926 159.708 179.516 165.479 183.4C174.351 189.365 183.056 199.807 190.461 205.326C201.053 208.725 211.644 212.124 222.236 215.523L187.011 252.338L160.832 228.338L119.371 193.19L119.92 190.625L138.325 174.889V174.883Z" fill="white"/>
<path d="M286.3 223.515C284.516 230.229 282.112 240.452 282.203 246.462C282.267 250.694 283.327 258.714 284.458 266.314L287.528 299.833C287.689 302.372 289.776 304.356 292.323 304.382L320.601 304.699C322.359 304.718 323.154 302.521 321.79 301.403C315.858 296.531 301.066 290.359 301.066 290.359L303.819 265.008C303.819 265.008 309.001 230.965 309.131 227.45L310.662 215.437C311.767 206.778 306.333 198.467 297.854 196.412C296.232 196.018 294.558 195.876 292.878 196.096C291.198 196.315 282.022 199.184 270.648 202.881" fill="white"/>
<path d="M286.366 223.536C285.526 227.051 284.725 230.573 284.059 234.114C283.077 239.433 282.211 244.751 282.89 250.147C283.439 255.524 284.208 260.881 285.022 266.231L284.46 266.897L285.029 266.264L286.185 278.38C286.541 282.309 287.458 292.739 287.749 296.565L287.995 299.596C288.027 300.565 288.311 301.431 288.861 302.181C289.688 303.311 291.045 303.983 292.447 303.983L293.966 304.016L300.047 304.158C304.9 304.242 315.058 304.442 319.814 304.481C320.176 304.455 320.887 304.559 321.236 304.365C322.089 304.055 322.503 302.924 322.083 302.129C321.572 301.315 320.616 300.843 319.86 300.261C317.365 298.542 314.671 297.127 311.969 295.757C308.357 293.935 304.648 292.293 300.9 290.781H300.887L300.577 290.646L300.615 290.316C301.766 281.133 302.56 271.905 303.73 262.722C304.997 253.785 306.948 240.215 308.04 231.31C308.157 230.282 308.389 228.467 308.454 227.426V227.368L309.475 219.245C309.727 217.035 310.347 213.494 309.992 211.271C309.275 203.367 302.199 196.511 294.179 196.563C291.491 196.666 288.971 197.732 286.386 198.405C281.164 199.955 275.936 201.539 270.728 203.154L270.547 202.598C277.016 200.421 283.465 198.178 290.011 196.246C296.835 193.745 304.628 197.319 308.46 203.206C310.205 205.875 311.246 208.983 311.446 212.169C311.569 214.599 311.129 217.022 310.832 219.42L309.779 227.536V227.471L309.701 228.505C308.286 240.234 305.63 255.039 304.014 266.761C303.129 274.639 302.276 282.523 301.494 290.406L301.223 289.948H301.236C306.793 292.481 312.305 295.092 317.54 298.232C318.839 299.033 320.144 299.841 321.346 300.791C321.766 301.121 322.244 301.424 322.47 301.929C323.168 303.247 322.076 305.005 320.564 304.914H319.802C315.091 304.836 304.855 304.804 300.034 304.778H293.953H292.434C290.793 304.817 289.126 304.042 288.124 302.717C287.445 301.864 287.071 300.72 287.006 299.654L286.696 296.63L286.082 290.581C285.5 284.539 284.376 272.403 283.865 266.354L284.434 265.721L283.872 266.387C283.116 261.01 282.34 255.633 281.927 250.212C281.377 244.777 282.321 239.265 283.504 233.985C284.298 230.45 285.203 226.948 286.218 223.478L286.353 223.516L286.366 223.536Z" fill="black"/>
<path d="M268.551 237.455L286.567 232.796C287.75 232.492 288.965 233.125 289.391 234.269C291.02 238.657 294.949 249.048 297.191 253.378C298.354 255.627 302.665 260.783 306.988 266.457C313.353 274.819 320.145 283.983 320.151 283.989L328.455 296.939C329.825 299.078 332.623 299.802 334.859 298.587L359.726 285.12C361.27 284.286 360.895 281.973 359.17 281.663C353.386 280.609 342.704 281.417 338.006 281.85C336.623 281.979 335.318 281.184 334.795 279.899C329.612 267.129 310.4 219.128 309.437 217.106C305.779 209.441 300.9 207.083 296.06 205.894C294.399 205.487 284.596 207.277 272.435 209.81" fill="white"/>
<path d="M268.516 237.388C274.299 235.753 280.096 234.144 285.899 232.573L286.409 232.438C286.597 232.386 286.804 232.347 287.01 232.334C288.251 232.231 289.479 233.123 289.834 234.292L290.216 235.281L290.985 237.258C293.078 242.48 295.069 247.811 297.55 252.845C300.413 257.64 304.387 261.795 307.644 266.345C310.19 269.731 315.25 276.594 317.751 280.006C320.762 283.844 324.4 290.074 327.037 294.229L328.168 296.025C329.118 297.88 330.96 299.179 333.086 298.901C334.288 298.817 335.793 297.764 336.866 297.24C339.251 295.974 345.603 292.491 348.052 291.159C350.54 289.809 353.015 288.445 355.49 287.069L359.206 285.014C359.82 284.717 360.22 284.361 360.304 283.715C360.401 282.759 359.716 282.054 358.753 282.009C356.33 281.647 353.868 281.615 351.412 281.628C348.601 281.666 345.784 281.815 342.966 282.015C341.558 282.119 340.155 282.235 338.753 282.371C338.036 282.461 337.131 282.532 336.401 282.235C335.205 281.834 334.378 280.781 333.99 279.618C333.738 279.03 333.04 277.292 332.782 276.671C326.01 260.147 318.791 242.17 312.142 225.504C310.009 220.392 308.478 214.764 304.4 210.828C302.448 208.896 299.986 207.539 297.337 206.725C295.98 206.195 294.797 206.208 293.33 206.389C286.319 207.229 279.379 208.599 272.432 209.878L272.406 209.742C279.32 208.217 286.222 206.57 293.24 205.587C294.681 205.361 296.2 205.322 297.602 205.852C300.368 206.628 303.049 208.004 305.156 210.046C309.447 214.053 311.14 219.798 313.389 225.006C320.168 241.491 327.36 259.566 333.971 276.199C334.191 276.768 334.927 278.584 335.147 279.153C335.412 279.999 335.942 280.813 336.821 281.111C337.428 281.35 337.978 281.266 338.656 281.208C340.071 281.091 341.486 280.994 342.902 280.91C347.154 280.665 351.432 280.542 355.69 280.846C357.151 281.04 358.663 280.956 360.033 281.608C360.77 282.067 361.151 282.972 361.028 283.805C360.963 284.626 360.22 285.33 359.535 285.615L355.781 287.599C351.483 289.938 345.17 293.221 340.814 295.605L337.086 297.628L335.225 298.649C333.331 299.832 330.669 299.631 329.04 298.061C328.149 297.221 327.276 295.56 326.565 294.546L321.9 287.463C319.366 283.385 314.707 277.744 311.799 273.847C309.266 270.461 304.096 263.708 301.486 260.386C299.76 258.073 297.912 255.953 296.536 253.362C293.77 247.578 291.605 241.588 289.408 235.585L289.046 234.583C288.93 234.247 288.82 234.021 288.619 233.788C288.141 233.226 287.333 232.974 286.61 233.174L286.093 233.304C280.257 234.745 274.409 236.147 268.554 237.523L268.522 237.388H268.516Z" fill="black"/>
<path d="M221.775 215.531L186.078 251.887L195.041 260.114L268.335 238.608L272.994 209.728L274.849 209.231L270.713 201.398L226.816 215.454L221.775 215.531Z" fill="url(#colorOne)"/>
<path d="M269.09 233.547C269.09 233.547 269.09 233.372 269.129 233.042C269.18 232.668 269.245 232.189 269.329 231.595C269.529 230.283 269.801 228.461 270.143 226.199C270.499 223.879 270.925 221.12 271.41 217.999C271.649 216.435 271.895 214.774 272.16 213.048C272.282 212.183 272.412 211.297 272.541 210.393C272.651 209.514 272.812 208.519 272.851 207.685L273.155 207.885C270.182 208.693 266.983 209.565 263.668 210.464C254.078 213.029 245.4 215.355 239.054 217.055C235.939 217.863 233.399 218.522 231.577 218.994C230.731 219.2 230.052 219.369 229.542 219.498C229.076 219.608 228.824 219.659 228.824 219.64C228.824 219.621 229.057 219.543 229.516 219.401C230.026 219.252 230.692 219.052 231.532 218.806C233.341 218.296 235.868 217.585 238.963 216.713C245.296 214.974 253.962 212.603 263.539 209.979C266.854 209.087 270.053 208.221 273.025 207.42L273.342 207.336L273.329 207.62C273.29 208.68 273.122 209.533 273.006 210.457C272.87 211.362 272.735 212.247 272.605 213.113C272.328 214.845 272.069 216.499 271.817 218.063C271.294 221.171 270.835 223.931 270.447 226.244C270.046 228.493 269.723 230.309 269.491 231.614C269.374 232.202 269.284 232.674 269.213 233.049C269.142 233.372 269.103 233.54 269.09 233.54" fill="black"/>
<path d="M218.33 233.657C218.272 233.644 218.478 232.688 219.066 231.221C219.648 229.761 220.656 227.809 222.123 225.89C223.59 223.97 225.206 222.484 226.466 221.534C227.726 220.584 228.592 220.132 228.618 220.184C228.727 220.319 225.393 222.4 222.524 226.2C219.622 229.967 218.491 233.728 218.336 233.664" fill="black"/>
<path d="M182.5 248.559L219.651 249.638L223.115 250.82C225.474 251.628 228.058 251.447 230.281 250.323L232.666 249.114C232.666 249.114 245.338 247.208 247.354 246.323C249.371 245.437 247.955 243.648 247.955 243.648C247.955 243.648 249.028 243.841 252.214 243.047C255.406 242.252 255.607 241.502 255.607 241.502C258.592 241.244 258.334 239.751 258.334 239.751L245.784 236.694L235.781 236.365L225.797 240.151C217.952 238.633 190.636 233.353 183.883 232.151C177.052 230.936 163.566 228.164 163.566 228.164C163.566 228.164 145.11 207.53 129.129 196.157C125.685 193.708 130.68 187.188 130.68 187.188L118.156 192.39" fill="white"/>
<path d="M247.726 243.646C247.687 243.666 247.61 243.491 247.377 243.272C247.144 243.058 246.744 242.819 246.181 242.755C245.626 242.677 244.928 242.781 244.139 242.858C243.332 242.949 242.479 243.045 241.593 243.142C237.981 243.569 235.073 244.086 235.047 243.944C235.015 243.814 237.897 243.071 241.535 242.638C242.44 242.529 243.312 242.451 244.101 242.393C244.883 242.348 245.613 242.27 246.246 242.399C246.879 242.516 247.319 242.852 247.532 243.136C247.745 243.427 247.758 243.634 247.732 243.64" fill="black"/>
<path d="M255.215 241.003C255.202 241.074 254.169 240.893 252.508 240.544C250.847 240.195 248.566 239.684 246.052 239.09C245.768 239.025 245.49 238.954 245.225 238.896H245.302C242.918 239.077 240.798 239.206 239.273 239.271C237.748 239.342 236.811 239.348 236.805 239.284C236.805 239.219 237.722 239.09 239.247 238.928C240.766 238.767 242.886 238.579 245.27 238.398H245.309L245.348 238.405C245.613 238.47 245.891 238.534 246.175 238.599C248.689 239.193 250.957 239.762 252.592 240.195C254.227 240.628 255.235 240.932 255.215 241.003Z" fill="black"/>
<path d="M225.791 240.159C206.773 236.902 187.063 233.27 168.142 229.548L166.449 229.212C165.939 229.102 165.215 228.992 164.717 228.811C162.572 228.223 160.846 225.761 159.367 224.262C149.887 214.284 140.109 204.487 129.117 196.164C136.697 201.385 143.599 207.537 150.248 213.89C153.583 217.063 156.801 220.352 159.981 223.686L162.346 226.2C163.457 227.512 164.956 228.1 166.624 228.333C184.278 231.771 208.318 236.462 225.785 240.165" fill="black"/>
<path d="M182.52 247.875C194.508 248.302 207.684 248.922 219.658 249.633L220.266 249.859L219.646 249.665C211.096 249.685 200.388 249.581 191.768 249.439C188.672 249.4 185.57 249.342 182.475 249.264C181.577 249.232 181.583 247.862 182.514 247.875" fill="black"/>
<path d="M169.633 202.865C169.549 202.975 167.455 201.527 164.961 199.627C162.466 197.727 160.508 196.099 160.592 195.982C160.676 195.873 162.77 197.32 165.265 199.22C167.759 201.12 169.717 202.748 169.633 202.858" fill="black"/>
<path d="M206.744 217.531C206.711 217.667 205.8 217.57 204.714 217.311C203.629 217.053 202.769 216.736 202.802 216.6C202.834 216.465 203.745 216.562 204.831 216.82C205.923 217.079 206.776 217.395 206.744 217.531Z" fill="black"/>
<path d="M150.053 200.296C150.085 200.432 149.181 200.781 148.037 201.072C146.887 201.362 145.93 201.492 145.891 201.356C145.859 201.22 146.764 200.878 147.908 200.581C149.058 200.29 150.014 200.16 150.053 200.296Z" fill="black"/>
<path d="M220.933 215.732C220.881 215.706 190.315 205.606 190.276 205.56C183.555 199.331 173.054 190.058 166.198 183.925C161.81 180.881 153.002 178.277 147.774 179.641C147.884 179.576 138.844 183.647 138.85 183.628C135.871 184.966 132.905 186.329 129.939 187.705C129.603 187.861 129.202 187.718 129.047 187.376C128.885 187.027 129.047 186.607 129.409 186.465C132.446 185.269 135.483 184.054 138.508 182.827C138.533 182.814 147.574 179.098 147.6 179.091C152.957 177.728 162.017 180.403 166.502 183.524C173.397 189.864 183.523 199.221 190.451 205.36C190.244 205.27 221.223 214.879 221.204 214.872C221.443 214.944 221.579 215.202 221.501 215.435C221.424 215.674 221.165 215.809 220.926 215.732" fill="black"/>
<path d="M185.188 209.818C186.797 208.229 188.483 206.723 190.247 205.314C190.325 205.25 190.448 205.263 190.506 205.347C190.564 205.424 190.558 205.534 190.486 205.599C188.8 207.098 187.029 208.507 185.188 209.818Z" fill="black"/>
<path d="M97.5803 141.39C97.3025 139.555 98.33 137.603 100.004 136.795C100.734 134.165 103.474 132.246 106.194 132.459C106.938 130.734 108.624 129.454 110.485 129.202C112.346 128.95 114.311 129.745 115.481 131.212C116.825 129.862 119.048 129.5 120.747 130.346C122.447 131.193 123.5 133.196 123.229 135.077C125.271 134.411 127.733 135.503 128.605 137.468C129.478 139.432 128.631 141.991 126.764 143.057L101.257 145.054C99.4221 144.783 97.8518 143.225 97.5739 141.39" fill="black"/>
<path d="M132.861 155.327C131.865 155.392 115.904 178.416 112.679 179.308C108.505 180.459 102.023 178.5 98.9019 176.122C90.85 169.996 84.0066 157.363 88.1811 147.185C92.1489 137.511 103.167 129.957 114.25 131.792C119.626 132.684 124.091 136.587 127.419 140.671C130.741 144.742 131.239 150.855 132.867 155.334" fill="black"/>
<path d="M142.905 181.296C141.509 179.538 137.341 174 137.341 174C130.846 174.659 115.311 175.415 108.836 176.003L120.074 191.377" fill="white"/>
<path d="M142.905 181.296C141.509 179.538 137.341 174 137.341 174C130.846 174.659 115.311 175.415 108.836 176.003L120.074 191.377" stroke="black" stroke-width="0.82" stroke-miterlimit="10"/>
<path d="M121.085 179.34C127.741 179.806 133.357 177.04 135.198 175.838C140.381 172.439 141.925 164.471 138.584 160.257L125.634 142.15C122.287 137.937 113.757 134.092 109.55 137.433L99.2427 148.651C95.0294 151.992 95.4946 159.217 98.842 163.424L103.068 168.742C102.422 168.678 101.756 168.846 101.214 169.285C99.8243 170.416 98.7386 172.368 100.884 175.366C104.063 179.806 107.753 177.117 108.839 176.012" fill="white"/>
<path d="M121.085 179.34C127.741 179.806 133.357 177.04 135.198 175.838C140.381 172.439 141.925 164.471 138.584 160.257L125.634 142.15C122.287 137.937 113.757 134.092 109.55 137.433L99.2427 148.651C95.0294 151.992 95.4946 159.217 98.842 163.424L103.068 168.742C102.422 168.678 101.756 168.846 101.214 169.285C99.8243 170.416 98.7386 172.368 100.884 175.366C104.063 179.806 107.753 177.117 108.839 176.012" stroke="black" stroke-width="0.82" stroke-miterlimit="10"/>
<path d="M106.207 174.457C106.168 174.457 106.162 174.586 106.052 174.774C105.949 174.955 105.722 175.187 105.367 175.284C104.656 175.478 103.545 174.929 102.834 173.985C102.472 173.514 102.246 172.977 102.142 172.473C102.026 171.969 102.084 171.517 102.33 171.265C102.562 171 102.886 171.026 103.06 171.129C103.234 171.226 103.28 171.355 103.312 171.349C103.338 171.349 103.364 171.181 103.163 170.987C103.066 170.896 102.911 170.812 102.718 170.806C102.517 170.793 102.291 170.877 102.11 171.039C101.722 171.362 101.619 172.002 101.729 172.557C101.819 173.132 102.065 173.74 102.472 174.27C103.273 175.317 104.54 175.931 105.47 175.601C105.916 175.433 106.149 175.097 106.22 174.851C106.291 174.599 106.233 174.464 106.207 174.464" fill="black"/>
<path d="M115.661 152.015C115.765 152.422 114.227 153.469 112.682 155.014C111.112 156.539 110.072 158.025 109.632 157.954C109.432 157.909 109.438 157.443 109.748 156.707C110.052 155.977 110.692 154.994 111.623 154.07C112.553 153.153 113.574 152.506 114.337 152.183C115.106 151.854 115.603 151.828 115.655 152.015" fill="black"/>
<path d="M126.66 143.2C126.712 143.614 125.064 144.48 123.352 145.83C121.613 147.162 120.405 148.519 119.979 148.389C119.785 148.325 119.843 147.86 120.237 147.168C120.625 146.477 121.374 145.572 122.408 144.771C123.442 143.969 124.528 143.446 125.323 143.213C126.124 142.981 126.622 143.007 126.654 143.2" fill="black"/>
<path d="M120.438 150.062C121.84 151.549 123.41 152.861 125.207 153.849C126.887 154.754 128.541 155.71 126.15 157.164C125.691 157.416 125.226 157.623 124.735 157.798C125.187 157.552 125.64 157.313 126.053 157.016C128.147 155.588 126.46 154.974 125.019 154.172C123.229 153.145 121.62 151.762 120.438 150.069" fill="black"/>
<path d="M117.228 136.951C117.674 135.827 113.034 135.213 110.275 135.962C106.107 137.1 100.776 140.085 98.6366 143.187C96.0582 146.929 94.6495 150.916 95.496 155.381C96.3426 159.84 96.8854 168.68 101.396 169.197C103.619 169.456 102.016 168.706 106.96 169.837C108.666 170.225 104.64 160.551 102.178 157.449C99.593 154.199 99.5478 148.964 104.44 147.562C108.201 146.483 113.855 144.131 114.986 140.887C115.968 138.082 115.348 136.725 115.348 136.725L117.228 136.951Z" fill="black"/>
<path d="M114.336 179.133C114.336 179.133 127.053 186.228 139.454 176.38L137.483 173.898C137.483 173.898 131.978 179.96 123.364 179.042" fill="black"/>
<path d="M95.2462 160.48C96.3964 160.448 97.5984 160.396 98.5871 159.814C99.5758 159.233 100.248 157.934 99.7374 156.906C99.5112 156.447 99.0589 156.04 99.0976 155.53C99.1429 154.916 99.8214 154.599 100.358 154.296C102.206 153.229 103.078 150.735 102.296 148.745C103.214 149.081 104.209 148.305 104.565 147.4C104.914 146.489 105.146 143.562 104.92 144.512C104.849 144.816 105.321 142.677 106.206 142.024C106.645 141.701 107.285 141.727 107.692 141.371C108.416 140.738 108.132 139.555 107.692 138.702C107.246 137.849 106.684 136.886 107.04 135.988C107.363 135.155 108.319 134.806 109.108 134.392C109.896 133.978 110.697 133.138 110.368 132.305C110.193 131.872 109.76 131.6 109.321 131.426C107.35 130.65 104.875 131.465 103.757 133.268C101.76 131.743 98.8327 131.555 96.6549 132.815C94.4772 134.075 93.1847 136.712 93.5143 139.206C91.44 138.987 89.2816 139.833 87.9181 141.403C86.5481 142.974 86.0053 145.229 86.5093 147.252C84.7968 147.924 83.569 149.669 83.5173 151.504C83.4656 153.339 84.5901 155.155 86.2573 155.924C85.6369 157.3 85.5012 159.019 86.3672 160.254C87.2331 161.494 89.3139 161.843 90.2574 160.661C90.4771 161.96 91.8018 162.968 93.1137 162.826C94.419 162.683 95.5047 161.417 95.44 160.105" fill="black"/>
<path d="M527.259 343.533C527.259 347.327 508.874 350.403 486.199 350.403C463.523 350.403 445.145 347.327 445.145 343.533C445.145 339.74 463.529 336.664 486.199 336.664C508.868 336.664 527.259 339.74 527.259 343.533Z" fill="url(#colorTwo)"/>
<path d="M483.385 319.99C464.528 320.449 436.889 320.979 418.11 321.405C413.819 321.515 409.587 322.278 405.47 323.596C397.108 326.026 388.752 328.475 380.319 330.653C380.242 330.679 380.203 330.549 380.281 330.523C388.494 327.615 396.791 324.979 405.082 322.316C407.15 321.651 409.315 321.056 411.486 320.681C415.848 319.751 426.589 320.145 431.151 320.042C444.03 320.1 470.932 319.609 483.391 319.99" fill="url(#colorOne)"/>
<path d="M480.817 160.046C484.985 162.528 505.812 175.439 500.1 179.678C497.089 181.908 483.266 182.25 479.589 181.326C469.379 178.773 461.198 170.547 450.742 169.209C446.348 168.647 441.818 169.364 437.481 168.46C432.124 167.348 427.568 163.82 424.312 159.581C421.055 155.342 418.961 150.398 417.035 145.461L440.396 147.729L478.258 160.557L480.817 160.033V160.046Z" fill="url(#colorOne)"/>
<path d="M472.02 174.164C472.02 163.489 463.367 154.836 452.692 154.836C442.016 154.836 433.363 163.489 433.363 174.164C433.363 183.78 438.475 192.607 449.583 193.241V204.155H466.023V188.148C469.719 184.627 472.02 179.664 472.02 174.158" fill="white"/>
<path d="M449.141 193.493C449.141 193.493 456.049 193.965 462.201 190.133C462.201 190.133 458.472 197.939 449.141 196.601V193.493Z" fill="black"/>
<path d="M438.981 166.5C439.214 166.79 440.093 166.474 441.159 166.441C442.225 166.37 443.13 166.609 443.33 166.299C443.421 166.151 443.272 165.86 442.872 165.588C442.477 165.317 441.825 165.104 441.094 165.136C440.364 165.168 439.731 165.446 439.369 165.75C438.994 166.06 438.878 166.357 438.981 166.5Z" fill="black"/>
<path d="M446.398 170.68C446.366 172.592 445.855 174.492 445.009 176.205C444.75 176.89 443.788 177.988 444.408 178.615C445.151 179.106 446.243 178.893 447.109 178.841C446.65 178.964 446.179 179.048 445.7 179.093C443.109 179.216 443.884 177.62 444.705 176.056C445.571 174.383 446.088 172.554 446.398 170.68Z" fill="black"/>
<path d="M472.462 166.38C470.962 158.677 465.043 151.55 456.94 150.781C451.04 150.108 445.043 152.978 441.314 157.534C437.424 162.051 435.673 168.06 435.388 173.928C434.871 182.542 438.477 191.143 447.666 192.946C451.02 193.586 454.581 194.277 457.941 193.36L457.961 193.424C456.067 194.084 454.012 194.135 452.028 193.987C449.566 193.799 447.007 193.483 444.649 192.636C433.824 188.545 433.055 174.529 436.564 165.094C438.309 160.429 441.443 156.202 445.598 153.424C450.561 149.966 457.327 149.042 462.788 151.924C468.126 154.671 471.867 160.629 472.455 166.393" fill="black"/>
<path d="M466.281 178.747C466.281 178.747 466.391 178.831 466.572 178.921C466.753 179.012 467.063 179.083 467.399 178.973C468.078 178.753 468.685 177.707 468.763 176.563C468.801 175.988 468.705 175.432 468.511 174.967C468.336 174.495 468.045 174.159 467.709 174.088C467.373 173.997 467.128 174.191 467.044 174.366C466.953 174.54 466.986 174.669 466.953 174.676C466.934 174.689 466.818 174.566 466.882 174.301C466.914 174.178 466.992 174.03 467.147 173.913C467.302 173.797 467.528 173.739 467.768 173.778C468.259 173.829 468.679 174.301 468.885 174.805C469.118 175.316 469.241 175.942 469.202 176.589C469.112 177.868 468.414 179.038 467.483 179.27C467.031 179.367 466.662 179.219 466.475 179.064C466.288 178.902 466.255 178.753 466.281 178.747Z" fill="black"/>
<path d="M466.239 186.852C465.949 189.708 466.395 192.564 466.382 195.427C466.427 198.296 466.414 201.165 466.194 204.034C465.871 201.172 465.761 198.309 465.697 195.44C465.735 192.577 465.419 189.637 466.239 186.852Z" fill="black"/>
<path d="M451.152 166.929C451.249 167.291 452.542 167.239 454.028 167.556C455.521 167.847 456.697 168.396 456.923 168.099C457.026 167.956 456.846 167.607 456.387 167.226C455.928 166.845 455.185 166.457 454.293 166.27C453.401 166.089 452.561 166.16 451.992 166.334C451.417 166.509 451.12 166.754 451.159 166.929" fill="black"/>
<path d="M447.82 172.434C447.73 172.337 447.083 171.671 445.927 171.562C445.1 171.484 444.499 171.736 444.305 171.82" stroke="black" stroke-width="0.69" stroke-miterlimit="10"/>
<path d="M458.676 173.596L467.18 172.148" stroke="black" stroke-width="0.81" stroke-miterlimit="10"/>
<path d="M424.919 165.342C426.651 164.45 428.79 164.289 430.225 162.964C431.692 161.607 431.989 159.442 432.351 157.478C432.745 155.339 433.34 153.187 434.567 151.384C435.795 149.587 437.747 148.172 439.918 148.03C441.54 147.927 443.207 148.515 444.778 148.082C446.561 147.591 447.718 145.93 449.088 144.689C451.628 142.395 455.311 141.432 458.652 142.195C460.959 142.718 463.169 144.14 464.119 146.305C464.332 146.783 464.455 147.3 464.507 147.83C465.754 147.623 466.962 147.487 467.524 147.552C470.012 147.836 472.268 149.936 472.591 152.586C475.609 152.786 478.42 154.848 479.667 157.768C479.822 158.137 479.958 158.512 480.061 158.899C480.888 160.599 480.921 162.673 480.113 164.405C479.628 165.452 478.84 166.596 479.324 167.63C479.816 168.683 481.231 168.799 482.31 169.245C484.19 170.021 485.283 172.295 484.714 174.247C484.507 174.951 484.119 175.636 484.216 176.36C484.32 177.11 484.921 177.672 485.367 178.279C486.485 179.792 486.711 181.905 485.948 183.637C485.186 185.368 480.501 187.133 478.614 187.359C477.754 187.462 476.843 187.372 476.08 187.779C475.202 188.244 474.769 189.226 474.122 189.976C472.882 191.411 470.697 191.953 468.946 191.255C468.591 191.113 468.268 190.913 467.964 190.687C467.344 191.436 467.324 193.369 465.806 193.278L465.314 180.897C466.756 181.233 470.129 181.349 470.588 176.909C470.807 174.783 470.18 173.627 469.302 173.019C468.113 172.192 466.497 172.134 465.65 172.974C465.612 172.948 465.528 172.935 465.366 172.961C462.129 173.491 462.122 166.932 462.956 165.2C461.877 164.114 460.784 163.016 459.996 161.665C459.208 160.321 458.678 156.747 458.982 155.171C458.982 155.171 458.982 155.171 458.975 155.171C457.54 155.959 455.815 156.211 454.232 155.823C452.804 155.474 451.266 154.654 449.96 155.345C448.584 156.075 448.39 158.053 447.149 158.99C445.379 160.334 442.665 159.856 440.5 160.353C438.826 160.741 439.343 164.179 438.16 165.426C437.811 165.794 437.275 166.105 436.642 166.344C433.43 176.341 435.091 189.705 446.199 193C446.199 193.142 444.041 192.218 442.917 192.07C441.792 191.921 440.771 192.684 439.724 193.117C437.217 194.151 434.025 193.104 432.616 190.79C431.899 189.614 431.537 188.102 430.341 187.404C429.139 186.706 427.621 187.152 426.244 186.984C423.511 186.648 421.566 183.41 422.567 180.845C422.955 179.85 423.705 178.951 423.705 177.885C423.705 176.716 422.813 175.772 422.212 174.77C420.331 171.617 421.65 167.016 424.913 165.329" fill="black"/>
<path d="M438.629 178.318C441.744 178.532 444.445 176.173 444.658 173.058C444.872 169.937 442.513 167.242 439.398 167.029C436.277 166.816 433.582 169.174 433.369 172.289C433.156 175.404 435.514 178.105 438.629 178.318Z" fill="url(#colorTwo)"/>
<path d="M438.629 178.318C441.744 178.532 444.445 176.173 444.658 173.058C444.872 169.937 442.513 167.242 439.398 167.029C436.277 166.816 433.582 169.174 433.369 172.289C433.156 175.404 435.514 178.105 438.629 178.318Z" stroke="black" stroke-width="0.69" stroke-miterlimit="10"/>
<mask id="mask0_8621_19440" style="mask-type:luminance" maskUnits="userSpaceOnUse" x="433" y="167" width="12" height="12">
<path d="M433.61 172.3C433.41 175.272 435.659 177.844 438.631 178.045C441.604 178.245 444.176 175.996 444.376 173.023C444.576 170.051 442.328 167.479 439.355 167.279C439.232 167.272 439.109 167.266 438.987 167.266C436.176 167.266 433.804 169.45 433.61 172.3Z" fill="white"/>
</mask>
<g mask="url(#mask0_8621_19440)">
<g opacity="0.42">
<mask id="mask1_8621_19440" style="mask-type:luminance" maskUnits="userSpaceOnUse" x="431" y="166" width="14" height="15">
<path d="M444.54 166.141H431.719V180.138H444.54V166.141Z" fill="white"/>
</mask>
<g mask="url(#mask1_8621_19440)">
<g opacity="0.32">
<mask id="mask2_8621_19440" style="mask-type:luminance" maskUnits="userSpaceOnUse" x="431" y="166" width="13" height="11">
<path d="M443.157 166.141H431.719V176.551H443.157V166.141Z" fill="white"/>
</mask>
<g mask="url(#mask2_8621_19440)">
<path d="M431.719 172.396C431.719 172.396 443.157 165.811 443.157 166.154C443.157 166.496 434.142 176.551 434.142 176.551L431.719 172.39V172.396Z" fill="white"/>
</g>
</g>
<g opacity="0.32">
<mask id="mask3_8621_19440" style="mask-type:luminance" maskUnits="userSpaceOnUse" x="435" y="168" width="10" height="13">
<path d="M444.548 168.922H435.449V180.134H444.548V168.922Z" fill="white"/>
</mask>
<g mask="url(#mask3_8621_19440)">
<path d="M435.449 176.859C435.449 176.859 444.477 168.62 444.548 168.93C444.619 169.247 438.474 180.136 438.474 180.136L435.449 176.859Z" fill="white"/>
</g>
</g>
</g>
</g>
</g>
<path d="M452.828 178.756C455.943 178.969 458.644 176.611 458.858 173.496C459.071 170.375 456.712 167.68 453.597 167.467C450.476 167.253 447.781 169.612 447.568 172.727C447.355 175.842 449.714 178.543 452.828 178.756Z" fill="url(#colorTwo)"/>
<path d="M452.828 178.756C455.943 178.969 458.644 176.611 458.858 173.496C459.071 170.375 456.712 167.68 453.597 167.467C450.476 167.253 447.781 169.612 447.568 172.727C447.355 175.842 449.714 178.543 452.828 178.756Z" stroke="black" stroke-width="0.69" stroke-miterlimit="10"/>
<mask id="mask4_8621_19440" style="mask-type:luminance" maskUnits="userSpaceOnUse" x="447" y="167" width="12" height="12">
<path d="M447.841 172.753C447.64 175.725 449.889 178.297 452.862 178.498C455.834 178.698 458.406 176.456 458.606 173.477C458.807 170.504 456.564 167.932 453.585 167.732C453.463 167.725 453.34 167.719 453.217 167.719C450.406 167.719 448.034 169.903 447.841 172.753Z" fill="white"/>
</mask>
<g mask="url(#mask4_8621_19440)">
<g opacity="0.42">
<mask id="mask5_8621_19440" style="mask-type:luminance" maskUnits="userSpaceOnUse" x="445" y="166" width="14" height="15">
<path d="M458.747 166.594H445.926V180.591H458.747V166.594Z" fill="white"/>
</mask>
<g mask="url(#mask5_8621_19440)">
<g opacity="0.32">
<mask id="mask6_8621_19440" style="mask-type:luminance" maskUnits="userSpaceOnUse" x="445" y="166" width="13" height="12">
<path d="M457.36 166.594H445.922V177.004H457.36V166.594Z" fill="white"/>
</mask>
<g mask="url(#mask6_8621_19440)">
<path d="M445.922 172.841C445.922 172.841 457.36 166.256 457.36 166.599C457.36 166.941 448.345 176.997 448.345 176.997L445.922 172.835V172.841Z" fill="white"/>
</g>
</g>
<g opacity="0.32">
<mask id="mask7_8621_19440" style="mask-type:luminance" maskUnits="userSpaceOnUse" x="449" y="169" width="10" height="12">
<path d="M458.755 169.375H449.656V180.587H458.755V169.375Z" fill="white"/>
</mask>
<g mask="url(#mask7_8621_19440)">
<path d="M449.656 177.313C449.656 177.313 458.684 169.073 458.755 169.384C458.826 169.7 452.681 180.589 452.681 180.589L449.656 177.313Z" fill="white"/>
</g>
</g>
</g>
</g>
</g>
<path d="M439.363 151.888C439.363 151.888 448.249 130.925 467.487 138.867C484.489 145.885 480.288 165.136 480.288 165.136L439.363 151.882V151.888Z" fill="url(#colorOne)"/>
<path d="M416.578 145.022C416.578 145.022 440.598 155.73 448.624 158.121C456.644 160.512 465.368 160.454 469.633 164.415C473.898 168.376 480.444 166.838 488.017 170.638C495.591 174.438 498.777 174.16 498.777 174.16C498.777 174.16 491.998 167.478 489.013 165.113C486.027 162.748 479.403 159.045 479.403 159.045L442.659 146.883L416.585 145.016L416.578 145.022Z" fill="url(#colorOne)"/>
<path d="M498.771 174.172C498.771 174.172 498.693 174.191 498.544 174.197C498.396 174.204 498.17 174.197 497.879 174.172C497.291 174.126 496.438 173.984 495.358 173.7C494.279 173.415 492.987 172.989 491.52 172.394C490.783 172.097 490.014 171.755 489.2 171.38C488.392 170.986 487.539 170.585 486.641 170.184C484.832 169.402 482.744 168.801 480.463 168.343C478.188 167.852 475.694 167.58 473.167 166.727C471.914 166.288 470.673 165.635 469.626 164.692C468.618 163.78 467.435 163.07 466.13 162.533C463.519 161.447 460.592 160.918 457.626 160.349C454.647 159.793 451.726 159.257 448.967 158.456C446.207 157.648 443.642 156.62 441.193 155.67C436.301 153.745 431.958 151.877 428.307 150.307C424.662 148.73 421.728 147.425 419.706 146.507C418.724 146.055 417.942 145.699 417.379 145.441C417.134 145.324 416.94 145.227 416.778 145.15C416.643 145.085 416.578 145.047 416.578 145.04C416.578 145.034 416.656 145.059 416.791 145.111C416.953 145.176 417.16 145.26 417.412 145.363C417.98 145.602 418.769 145.938 419.77 146.358C421.845 147.237 424.798 148.491 428.43 150.029C432.094 151.56 436.449 153.396 441.341 155.296C443.79 156.233 446.356 157.247 449.083 158.042C451.816 158.83 454.724 159.367 457.703 159.916C460.676 160.485 463.616 161.021 466.292 162.132C467.623 162.682 468.876 163.438 469.904 164.375C470.899 165.28 472.082 165.906 473.303 166.346C475.759 167.186 478.253 167.483 480.541 167.987C482.835 168.465 484.941 169.086 486.77 169.9C487.681 170.32 488.534 170.734 489.329 171.128C490.137 171.509 490.9 171.858 491.623 172.162C493.071 172.776 494.35 173.222 495.417 173.532C496.476 173.842 497.323 174.01 497.898 174.081C498.189 174.12 498.409 174.139 498.557 174.152C498.706 174.165 498.783 174.165 498.783 174.172" fill="black"/>
<path d="M479.342 158.923C479.342 158.923 478.844 158.755 477.972 158.373C477.106 157.992 475.852 157.449 474.289 156.79C471.174 155.478 466.825 153.772 461.92 152.176C457.015 150.58 452.492 149.397 449.202 148.628C447.555 148.241 446.223 147.937 445.299 147.737C444.375 147.53 443.865 147.407 443.871 147.375C443.871 147.343 444.395 147.414 445.332 147.569C446.269 147.717 447.613 147.969 449.274 148.318C452.589 149.016 457.138 150.154 462.062 151.756C466.98 153.359 471.329 155.117 474.418 156.506C475.962 157.197 477.203 157.785 478.043 158.218C478.89 158.645 479.348 158.897 479.336 158.923" fill="black"/>
<path d="M399.36 225.977C394.675 223.153 380.516 220.846 374.151 237.913C369.421 250.578 359.973 281.784 355.411 297.041L350.493 308.008C350.493 308.008 339.249 312.738 332.128 316.441C330.661 317.203 330.493 319.653 332.166 319.678H362.997C364.4 319.698 365.524 318.554 365.44 317.203L365.065 311.362L376.264 293.862L392.271 267.141L421.079 304.35L436.698 285.849C436.698 285.849 404.052 228.807 399.367 225.977" fill="white"/>
<path d="M399.139 226.349C392.379 222.563 383.184 224.534 378.531 230.75C376.062 233.781 374.66 237.432 373.387 241.103C372.075 244.792 370.841 248.508 369.619 252.224C364.76 267.119 360.185 282.112 355.642 297.104C355.635 297.136 350.698 308.057 350.685 308.089L350.647 308.167C345.613 310.267 340.604 312.438 335.693 314.81C334.472 315.398 333.244 316.006 332.061 316.626C331.525 316.962 331.163 317.576 331.098 318.209C331.021 318.83 331.357 319.508 332.036 319.547L340.165 319.566C343.286 319.586 357.761 319.534 360.527 319.54C361.251 319.502 362.873 319.605 363.545 319.469C364.482 319.269 365.245 318.416 365.277 317.447C365.238 316.18 364.954 312.703 364.883 311.366V311.308L364.909 311.262C367.248 307.585 373.103 298.377 375.358 294.836C377.665 291.139 389.51 271.094 391.998 266.977L392.231 266.589L392.509 266.945L421.336 304.141L420.826 304.128L428.632 294.874C431.23 291.792 433.834 288.703 436.458 285.64L436.425 286.002C427.546 270.745 418.642 255.481 409.246 240.534C407.675 238.046 406.079 235.577 404.438 233.141C402.796 230.847 401.252 228.191 399.139 226.343M399.591 225.606C401.943 227.577 403.371 230.233 405.142 232.669C406.79 235.119 408.38 237.6 409.95 240.094C419.359 255.138 428.29 270.473 437.085 285.879C432.619 291.346 425.918 299.042 421.336 304.555L421.071 304.865L420.819 304.542L392.03 267.32L392.534 267.287C389.956 271.514 378.15 291.288 375.752 295.068C373.497 298.571 367.532 307.831 365.206 311.443L365.232 311.34C365.316 312.658 365.542 316.135 365.594 317.453C365.548 318.558 364.682 319.521 363.616 319.741C362.815 319.889 361.335 319.767 360.534 319.799C357.781 319.799 343.215 319.767 340.171 319.773H332.016C331.648 319.747 331.273 319.553 331.073 319.23C330.504 318.261 331.027 316.962 331.926 316.387C333.147 315.741 334.349 315.14 335.57 314.545C340.469 312.186 345.419 309.951 350.401 307.786C349.871 308.574 355.338 296.684 355.177 296.923C360.734 278.318 366.343 259.332 372.689 240.844C374.518 235.261 377.174 229.471 382.331 226.214C387.403 222.937 394.279 222.679 399.578 225.593" fill="black"/>
<path d="M411.833 243.909C408.809 239.341 405.765 234.766 402.495 230.391C401.248 228.917 400.214 227.024 398.45 226.19C393.047 223.948 386.475 224.639 381.764 228.129C375.05 233.124 373.422 241.855 370.262 249.144C372.86 241.389 374.087 232.342 380.75 226.836C385.739 222.584 393.299 221.932 399.018 225.079C400.912 226.1 402.004 228.213 403.232 229.874C406.288 234.455 409.067 239.179 411.839 243.909" fill="black"/>
<path d="M384.675 250.641C384.746 250.615 385.25 251.649 386.045 253.329C386.918 255.171 387.977 257.413 389.153 259.895C390.368 262.363 391.467 264.586 392.365 266.415C393.192 268.082 393.69 269.123 393.619 269.155C393.554 269.188 392.927 268.212 392.016 266.59C391.099 264.968 389.89 262.687 388.649 260.121C387.415 257.562 386.381 255.203 385.683 253.478C384.985 251.753 384.611 250.667 384.675 250.641Z" fill="black"/>
<path d="M484.684 297.019L440.903 271.312L440.464 271.493C438.758 274.337 437.052 277.18 435.346 280.023C434.79 281.807 434.234 283.597 433.672 285.381L469.272 320.07C469.35 320.07 469.427 320.05 469.505 320.044C469.485 320.076 469.466 320.108 469.466 320.108C474.371 319.695 478.571 317.459 481.124 313.246C485.576 305.892 484.691 297.006 484.691 297.006" fill="url(#colorOne)"/>
<path d="M440.441 271.416L446.923 263.578C446.923 263.578 443.155 257.911 441.178 253.523C441.178 253.523 432.576 239.991 433.526 231.745C434.476 223.499 443.207 207.971 444.034 206.594C445.1 204.817 447.769 202.375 448.79 201.47C449.055 201.237 449.21 200.908 449.223 200.559C449.391 196.74 449.423 195.971 449.378 193.476C449.094 193.431 449.217 193.45 448.357 193.25" fill="white"/>
<path d="M440.436 271.423C442.491 268.722 444.598 266.072 446.685 263.39L446.666 263.746C444.527 260.65 442.233 256.967 440.733 253.801C437.787 249.083 435.234 244.133 433.677 238.77C433.341 237.432 432.985 235.997 432.882 234.614C431.984 227.144 440.048 212.333 444.094 205.761C445.38 204.1 446.931 202.691 448.52 201.341C449.108 200.94 448.966 200.274 449.024 199.648C449.121 197.677 449.225 195.447 449.341 193.476L449.373 193.515C449.024 193.45 448.695 193.334 448.352 193.25C448.695 193.315 449.037 193.405 449.38 193.437C449.502 195.738 449.438 198.355 449.457 200.72C449.425 201.121 449.173 201.528 448.882 201.761C446.931 203.648 444.947 205.509 443.758 207.99C440.055 215.208 436.145 222.627 434.381 230.575C433.838 233.193 434.258 235.874 434.93 238.427C436.417 243.629 438.872 248.605 441.632 253.303C443.221 256.87 445.244 260.289 447.292 263.623C445.011 266.227 442.756 268.851 440.442 271.429" fill="black"/>
<path d="M440.386 252.165L480.995 248.928L480.465 242.446L457.595 244.934C457.595 244.934 445.724 218.187 445.11 218.775C444.496 219.363 432.832 234.239 432.832 234.239L440.393 252.165H440.386Z" fill="url(#colorOne)"/>
<path d="M466.52 200.8C466.52 200.8 459.877 199.927 451.767 207.003C443.657 214.08 435.075 225.705 435.075 225.705L433.473 230.862L449.415 236.161L452.297 225.686L452.064 213.375C452.064 213.375 456.64 203.191 462.417 203.54C468.194 203.889 471.322 205.608 473.81 210.945C476.291 216.283 477.745 243.657 477.745 243.657L480.478 242.442C480.478 242.442 478.294 217.194 477.745 214.5C477.196 211.805 473.971 203.934 466.527 200.8" fill="url(#colorOne)"/>
<path d="M472.375 208.078C472.31 208.142 471.529 207.115 469.842 205.977C468.188 204.846 465.499 203.69 462.41 203.761C459.315 203.832 456.685 205.105 455.082 206.307C453.447 207.515 452.717 208.575 452.646 208.517C452.627 208.504 452.788 208.226 453.15 207.774C453.506 207.321 454.087 206.708 454.895 206.055C456.485 204.756 459.192 203.386 462.404 203.315C465.616 203.25 468.381 204.491 470.029 205.719C470.869 206.333 471.47 206.921 471.845 207.36C472.226 207.793 472.401 208.065 472.382 208.078" fill="url(#colorTwo)"/>
<path d="M473.799 226.529C473.799 226.613 472.694 226.651 470.981 227.104C469.262 227.537 466.987 228.493 464.706 229.96C462.419 231.414 460.551 233.023 459.233 234.219C457.921 235.42 457.139 236.209 457.087 236.164C457.068 236.144 457.236 235.925 457.559 235.543C457.882 235.162 458.38 234.632 459.013 233.999C460.286 232.739 462.141 231.071 464.467 229.592C466.781 228.105 469.133 227.168 470.904 226.806C471.343 226.697 471.744 226.638 472.099 226.6C472.454 226.548 472.758 226.516 473.01 226.522C473.514 226.509 473.792 226.516 473.792 226.541" fill="black"/>
<path d="M465.602 301.18C461.751 291.726 442.868 287.099 440.548 286.563C440.387 286.524 440.232 286.479 440.083 286.414C436.6 285.018 394.822 268.288 377.477 261.406C372.857 259.57 367.616 260.275 363.642 263.26L326.685 292.805L305.935 308.03C305.65 308.237 305.334 308.399 304.991 308.502C302.245 309.349 289.055 313.478 282.91 316.793C281.488 317.556 281.333 320.005 282.942 320.031H317.586C318.943 320.05 320.029 318.906 319.945 317.549C319.861 316.153 320.701 314.861 322.019 314.389C329.14 311.824 348.191 304.87 355.745 301.239C362.446 298.014 368.514 292.592 371.435 289.762C372.521 288.702 374.207 288.573 375.442 289.452C383.326 295.035 410.312 314.143 418.079 319.514C418.609 319.882 419.229 320.069 419.869 320.069H466.041C467.864 320.069 469.311 318.531 469.188 316.709C468.956 313.232 468.155 307.442 465.602 301.167" fill="white"/>
<path d="M465.571 301.188C461.9 293.382 450.578 289.867 442.83 287.611C441.732 287.282 440.549 287.133 439.483 286.687C432.219 283.792 424.458 280.671 417.246 277.724C406.668 273.421 396.102 269.091 385.465 264.942C382.777 263.973 379.998 263.256 377.343 262.196C373.582 260.658 369.168 260.903 365.627 262.913C364.315 263.617 362.143 265.498 360.929 266.435L355.559 270.687C345.478 278.461 333.4 288.536 323.093 295.896C317.794 299.444 311.48 304.045 306.375 307.864C305.477 308.646 304.281 308.853 303.215 309.227C297.851 311.005 292.365 312.943 287.176 315.153C286.135 315.606 285.101 316.077 284.087 316.588C283.098 317.053 282.181 317.518 282.142 318.675C282.129 319.153 282.323 319.56 282.71 319.644C282.878 319.683 283.195 319.677 283.479 319.677H284.339C285.386 319.683 313.289 319.754 315.164 319.761C315.881 319.748 317.063 319.787 317.716 319.761C318.485 319.735 319.196 319.231 319.5 318.533C319.765 318.01 319.622 317.518 319.694 316.924C319.829 315.683 320.708 314.572 321.884 314.145L325.102 312.963C333.665 309.803 342.247 306.656 350.667 303.147C354.893 301.434 358.964 299.418 362.648 296.717C365.42 294.726 368.043 292.536 370.518 290.19C370.919 289.847 371.384 289.279 371.869 289.027C373.698 287.922 375.41 288.891 376.877 290.067C387.268 297.395 405.679 310.358 416.038 317.738L417.434 318.733L418.132 319.231C418.358 319.399 418.578 319.522 418.823 319.619C419.321 319.825 419.825 319.825 420.413 319.819H422.125C429.421 319.864 452.22 319.922 459.806 319.961L463.231 319.974H464.944C465.512 319.974 466.094 320.019 466.637 319.929C467.729 319.722 468.679 318.875 468.983 317.796C469.28 316.711 468.963 315.535 468.899 314.423C468.375 309.893 467.296 305.415 465.558 301.188M465.629 301.163C467.322 305.408 468.498 309.861 469.034 314.404C469.112 315.541 469.428 316.704 469.131 317.835C468.821 318.972 467.826 319.871 466.669 320.097C465.713 320.226 464.214 320.149 463.231 320.174L459.806 320.187C454.456 320.226 430.261 320.278 425.55 320.31L422.125 320.323C421.027 320.271 419.657 320.504 418.629 320.11C418.138 319.942 417.55 319.47 417.124 319.179L415.721 318.197C404.632 310.468 386.157 297.389 375.113 289.628C374.008 288.917 372.477 289.117 371.572 290.067L370.951 290.662C370.118 291.45 369.271 292.219 368.399 292.969C364.929 295.974 361.213 298.713 357.155 300.872C345.846 306.261 333.82 310.339 322.065 314.669C321.076 315.024 320.333 315.955 320.21 317.001C320.172 317.273 320.198 317.493 320.191 317.835C320.146 318.791 319.532 319.69 318.653 320.071C318.097 320.329 317.445 320.297 316.863 320.297H315.151C313.412 320.297 285.45 320.401 284.32 320.388H283.46C283.176 320.388 282.911 320.413 282.523 320.336C281.004 319.909 281.198 317.77 282.187 316.872C282.555 316.472 283.299 316.207 283.757 315.948C288.927 313.473 294.394 311.69 299.829 309.938L303.105 308.917L304.746 308.42C305.309 308.29 305.748 308.013 306.213 307.657C324.456 294.649 342.427 279.178 359.953 265.188C361.265 264.173 363.365 262.306 364.838 261.524C368.257 259.598 372.431 259.094 376.212 260.154C379.54 261.142 382.525 262.971 385.692 264.341C396.264 268.664 406.901 272.807 417.531 276.968C424.794 279.779 432.568 282.907 439.825 285.789C440.853 286.216 441.997 286.39 443.063 286.726C450.805 289.04 462.204 293.33 465.622 301.156" fill="black"/>
<path d="M474.27 214.97C474.018 204.598 466.463 203.713 466.463 203.713C466.463 203.713 458.017 200.159 450.308 210.647C448.305 213.367 440.472 222.453 434.172 230.007" fill="white"/>
<path d="M434.171 230C431.857 232.779 429.731 235.331 428.128 237.244C426.254 239.493 423.624 240.973 420.729 241.418L367.578 249.535C367.578 249.535 365.277 249.27 362.395 252.036C359.52 254.808 353.762 267.584 353.762 267.584C353.762 267.584 354.33 269.186 357.083 269.096C358.835 269.038 367.578 259.189 367.578 259.189L374.861 259.312C396.225 260.986 428.6 260.605 430.927 259.364C433.253 258.123 475.218 224.746 474.262 214.969" fill="white"/>
<path d="M434.222 230.045L428.613 237.069C426.797 239.512 423.986 241.257 420.936 241.78L412.063 243.247C397.342 245.593 382.344 247.958 367.59 249.955C363.539 250.02 361.115 253.897 359.293 257.102C357.387 260.314 355.441 264.715 353.955 267.519C354.466 268.631 356.049 268.992 357.186 268.863C358.692 268.165 359.849 266.821 361.089 265.69C363.299 263.519 365.4 261.219 367.442 258.879C372.76 258.815 378.078 259.099 383.377 259.357C393.885 259.758 404.405 259.887 414.926 259.836C418.861 259.79 422.803 259.713 426.732 259.461C427.973 259.357 429.356 259.293 430.525 258.996C430.719 258.963 430.978 258.75 431.243 258.569L432.025 257.987C443.682 248.533 455.56 238.853 465.919 227.971C467.702 226.045 469.441 224.074 471.005 221.974C472.459 219.886 474.197 217.625 474.197 214.982L474.326 214.969C474.572 221.702 460.284 234.872 455.314 239.706C448.109 246.446 440.606 252.986 432.619 258.795L431.805 259.377C430.416 260.411 428.438 260.249 426.797 260.469C422.848 260.76 418.887 260.863 414.932 260.947C404.392 261.173 393.846 260.966 383.319 260.346C378.059 259.971 372.838 259.551 367.565 259.506L367.797 259.403C366.757 260.54 365.71 261.658 364.644 262.763C362.466 264.96 360.437 267.274 357.858 269.031C357.154 269.497 356.243 269.329 355.467 269.148C354.672 268.928 353.891 268.443 353.535 267.597L353.574 267.513C355.209 263.9 356.915 260.333 358.828 256.85C359.803 255.118 360.74 253.373 362.13 251.829C363.455 250.407 365.865 249.044 367.506 249.134C379.319 247.144 391.158 245.302 403.016 243.583L411.908 242.271L420.8 241.018C423.676 240.591 426.344 239.034 428.212 236.74L434.112 229.961L434.215 230.045H434.222Z" fill="black"/>
<path d="M446.953 263.641C449.228 264.196 451.774 265.553 453.803 266.607C451.541 265.657 448.898 265.069 446.953 263.641Z" fill="black"/>
<path d="M481.004 248.922C481.411 254.085 481.65 257.562 481.65 257.562L484.823 297.944" fill="white"/>
<path d="M481.098 248.912C482.604 264.654 484.006 282.16 484.82 297.94C483.599 286.664 482.475 272.576 481.647 261.196C481.357 257.112 481.111 253.022 480.911 248.925C480.898 248.808 481.092 248.789 481.098 248.912Z" fill="black"/>
<script type="text/ecmascript" xlink:href="https://www.argentina.gob.ar/profiles/argentinagobar/themes/contrib/poncho/js/w3c/ref2.js"></script></svg>
