<svg width="640" height="360" viewBox="0 0 640 360" fill="none" xmlns="http://www.w3.org/2000/svg">
<path d="M547.494 212.109H448.984V278.2H547.494V212.109Z" fill="#9296A7"/>
<path d="M547.492 278.2C547.492 278.2 547.483 277.783 547.475 276.996C547.475 276.201 547.467 275.029 547.459 273.503C547.451 270.445 547.435 265.957 547.419 260.208C547.395 248.727 547.371 232.221 547.331 212.109L547.492 212.27C520.331 212.278 486.097 212.294 448.99 212.31H448.982L449.182 212.109C449.182 235.657 449.166 258.049 449.166 278.2L448.982 278.015C477.981 278.056 502.58 278.088 519.946 278.104C528.632 278.128 535.513 278.144 540.226 278.152C542.578 278.16 544.384 278.168 545.621 278.176C546.231 278.176 546.697 278.184 547.018 278.184C547.331 278.184 547.5 278.192 547.5 278.192C547.5 278.192 547.347 278.192 547.042 278.2C546.721 278.2 546.271 278.2 545.669 278.208C544.441 278.208 542.65 278.224 540.314 278.232C535.609 278.24 528.753 278.256 520.082 278.28C502.684 278.305 478.045 278.337 448.998 278.369H448.813V278.184C448.813 258.033 448.805 235.641 448.797 212.093V211.893H449.006C486.113 211.909 520.347 211.925 547.508 211.933H547.668V212.093C547.628 232.253 547.604 248.784 547.58 260.297C547.564 266.029 547.548 270.501 547.54 273.552C547.54 275.061 547.524 276.225 547.524 277.012C547.524 277.791 547.508 278.184 547.508 278.184" fill="black"/>
<g opacity="0.3">
<mask id="mask0_5018_8256" style="mask-type:luminance" maskUnits="userSpaceOnUse" x="478" y="212" width="15" height="18">
<path d="M492.122 212.109H478.883V229.893H492.122V212.109Z" fill="white"/>
</mask>
<g mask="url(#mask0_5018_8256)">
<path d="M492.122 212.109H478.883V229.893H492.122V212.109Z" fill="white"/>
</g>
</g>
<g opacity="0.3">
<mask id="mask1_5018_8256" style="mask-type:luminance" maskUnits="userSpaceOnUse" x="478" y="260" width="14" height="19">
<path d="M491.575 260.873H478.336V278.191H491.575V260.873Z" fill="white"/>
</mask>
<g mask="url(#mask1_5018_8256)">
<path d="M491.575 260.873H478.336V278.191H491.575V260.873Z" fill="white"/>
</g>
</g>
<g opacity="0.3">
<mask id="mask2_5018_8256" style="mask-type:luminance" maskUnits="userSpaceOnUse" x="447" y="243" width="74" height="1">
<path d="M520.933 243.004H447.914V243.405H520.933V243.004Z" fill="white"/>
</mask>
<g mask="url(#mask2_5018_8256)">
<path d="M520.925 243.205C520.925 243.317 504.579 243.405 484.42 243.405C464.26 243.405 447.914 243.317 447.914 243.205C447.914 243.092 464.26 243.004 484.42 243.004C504.579 243.004 520.925 243.092 520.925 243.205Z" fill="black"/>
</g>
</g>
<g opacity="0.61">
<mask id="mask3_5018_8256" style="mask-type:luminance" maskUnits="userSpaceOnUse" x="520" y="212" width="28" height="67">
<path d="M547.527 212.109H520.969V278.2H547.527V212.109Z" fill="white"/>
</mask>
<g mask="url(#mask3_5018_8256)">
<path d="M547.527 212.109H520.969V278.2H547.527V212.109Z" fill="#9296A7"/>
</g>
</g>
<path d="M544.319 274.194H538.362C538.161 274.194 537.992 274.025 537.992 273.824V267.867C537.992 267.667 538.161 267.498 538.362 267.498H544.319C544.519 267.498 544.688 267.667 544.688 267.867V273.824C544.688 274.025 544.519 274.194 544.319 274.194Z" fill="#E1E1E0"/>
<path d="M520.927 277.645C520.815 277.645 520.727 263.13 520.727 245.218C520.727 227.307 520.815 212.791 520.927 212.791C521.04 212.791 521.128 227.307 521.128 245.218C521.128 263.13 521.04 277.645 520.927 277.645Z" fill="black"/>
<path d="M487.607 208.039C486.531 207.453 471.879 202.604 470.555 202.227C469.23 201.849 456.537 200.854 456.537 200.854C456.537 200.854 444.245 203.72 441.716 203.864C441.339 203.889 440.841 203.832 440.263 203.736C439.821 203.664 439.332 203.551 438.826 203.423C438.826 203.423 364.578 175.893 363.366 175.757L302.156 143.498L300.992 180.855L330.473 192.175C330.473 192.175 350.087 203.889 372.566 210.175C391.763 215.554 419.036 216.269 426.59 216.365C429.135 216.469 433.174 216.702 433.214 217.184C433.551 220.893 437.268 224.466 443.804 224.988C450.339 225.509 449.151 224.755 451.415 226.095C453.687 227.444 455.557 225.879 455.397 223.896C455.236 221.913 455.662 219.48 452.137 218.276C448.613 217.071 448.701 217.794 449.11 216.734C449.52 215.682 451.021 212.503 454.345 212.15C457.669 211.797 474.424 213.916 477.226 213.009C480.02 212.102 479.619 211.058 479.619 211.058C479.619 211.058 485.664 212.005 486.949 211.387C488.233 210.769 488.659 209.798 488.659 209.798C489.189 209.637 488.691 208.609 487.607 208.023" fill="white"/>
<path d="M487.607 208.039C486.531 207.453 471.879 202.604 470.555 202.227C469.23 201.849 456.537 200.854 456.537 200.854C456.537 200.854 444.245 203.72 441.716 203.864C441.339 203.889 440.841 203.832 440.263 203.736C439.821 203.664 439.332 203.551 438.826 203.423C438.826 203.423 364.578 175.893 363.366 175.757L302.156 143.498L300.992 180.855L330.473 192.175C330.473 192.175 350.087 203.889 372.566 210.175C391.763 215.554 419.036 216.269 426.59 216.365C429.135 216.469 433.174 216.702 433.214 217.184C433.551 220.893 437.268 224.466 443.804 224.988C450.339 225.509 449.151 224.755 451.415 226.095C453.687 227.444 455.557 225.879 455.397 223.896C455.236 221.913 455.662 219.48 452.137 218.276C448.613 217.071 448.701 217.794 449.11 216.734C449.52 215.682 451.021 212.503 454.345 212.15C457.669 211.797 474.424 213.916 477.226 213.009C480.02 212.102 479.619 211.058 479.619 211.058C479.619 211.058 485.664 212.005 486.949 211.387C488.233 210.769 488.659 209.798 488.659 209.798C489.189 209.637 488.691 208.609 487.607 208.023V208.039Z" stroke="black" stroke-width="1.53" stroke-miterlimit="10"/>
<path d="M341.123 202.394C337.285 201.222 303.429 190.881 298.523 189.428C299.182 187.991 300.418 183.029 303.341 165.671C305.043 155.58 306.608 145.391 307.042 142.533C307.973 143.521 310.109 145.777 313.641 149.341L313.689 149.39L353.543 167.783L341.123 202.394Z" fill="white"/>
<path d="M307.31 143.368C308.426 144.54 310.409 146.611 313.371 149.614L313.468 149.71L313.596 149.767L353.064 167.983L340.885 201.92C335.659 200.322 304.99 190.961 299.032 189.179C299.819 187.099 301.08 181.415 303.721 165.735C305.295 156.414 306.748 147.005 307.31 143.368ZM306.788 141.682C306.788 141.682 299.554 189.484 297.908 189.644C299.924 190.206 341.367 202.867 341.367 202.867L354.028 167.574L313.917 149.06C308.972 144.058 306.788 141.674 306.788 141.674M297.828 189.62C297.828 189.62 297.836 189.62 297.868 189.636C297.876 189.636 297.884 189.636 297.892 189.636C297.892 189.636 297.892 189.636 297.9 189.636C297.852 189.62 297.828 189.62 297.828 189.62Z" fill="black"/>
<path d="M201.718 316.881L209.065 248.14L196.211 138.84C196.211 138.84 238.73 119.7 238.296 119.01C237.871 118.319 280.992 129.318 282.702 130.009L284.79 132.024L306.78 137.379L311.364 224.464C313.925 224.376 320.814 318.205 315.74 319.883C315.74 319.883 288.186 330.409 248.372 326.515C208.559 322.621 201.727 316.881 201.727 316.881" fill="#242C4F"/>
<g opacity="0.91">
<mask id="mask4_5018_8256" style="mask-type:luminance" maskUnits="userSpaceOnUse" x="205" y="270" width="112" height="24">
<path d="M317.001 270.373H205.453V293.776H317.001V270.373Z" fill="white"/>
</mask>
<g mask="url(#mask4_5018_8256)">
<path d="M317.001 287.064C317.001 289.553 240.714 301.315 205.453 286.221L207.147 270.373C207.147 270.373 279.476 277.27 316.102 271.232L317.001 287.064Z" fill="white"/>
</g>
</g>
<g opacity="0.91">
<mask id="mask5_5018_8256" style="mask-type:luminance" maskUnits="userSpaceOnUse" x="206" y="248" width="110" height="25">
<path d="M315.706 248.775H206.703V272.026H315.706V248.775Z" fill="white"/>
</mask>
<g mask="url(#mask5_5018_8256)">
<path d="M315.706 264.873C315.706 267.361 241.619 279.765 206.703 264.672L208.534 248.775C246.412 257.141 278.285 256.13 314.518 250.084L315.706 264.873Z" fill="white"/>
</g>
</g>
<path d="M277.576 327.005C277.576 327.005 277.656 326.475 277.729 325.456C277.793 324.356 277.873 322.87 277.97 321.008C278.17 317.146 278.355 311.55 278.475 304.63C278.748 290.796 278.596 271.68 277.913 250.582C277.231 229.475 276.276 210.391 275.553 196.582C275.176 189.741 274.871 184.178 274.654 180.228C274.533 178.365 274.437 176.888 274.365 175.788C274.293 174.768 274.236 174.238 274.196 174.238C274.164 174.238 274.156 174.776 274.172 175.796C274.204 176.896 274.236 178.381 274.284 180.252C274.429 184.21 274.638 189.773 274.887 196.622C275.433 210.439 276.284 229.531 276.974 250.622C277.648 271.705 277.905 290.804 277.809 304.63C277.769 311.542 277.697 317.138 277.6 321C277.576 322.862 277.552 324.348 277.536 325.456C277.536 326.475 277.544 327.013 277.576 327.013" fill="black"/>
<path d="M277.334 129.343L282.713 134.304C282.882 137.219 274.195 178.534 274.195 178.534L235.016 126.268L239.632 113.189" fill="white"/>
<path d="M277.334 129.343L282.713 134.304C282.882 137.219 274.195 178.534 274.195 178.534L235.016 126.268L239.632 113.189" stroke="black" stroke-width="0.96" stroke-miterlimit="10"/>
<path d="M299.842 52.4215C298.597 50.2136 297.289 48.6079 294.952 47.6124C274.078 38.7409 250.017 39.5036 228.292 46.0308C222.648 47.7248 212.588 63.549 215.253 66.0057C217.919 68.4625 223.37 69.8835 226.863 70.8469C243.474 75.4392 261.128 74.2269 278.157 71.5615C282.155 70.9353 286.169 70.2207 289.935 68.7515C293.7 67.2742 297.241 64.9861 299.609 61.7025C301.616 58.9166 301.536 55.4081 299.85 52.4134" fill="#242C4F"/>
<path d="M233.695 94.8203L235.132 126.011C241.579 133.694 267.8 169.357 274.255 177.04" fill="white"/>
<path d="M233.695 94.8203L235.132 126.011C241.579 133.694 267.8 169.357 274.255 177.04" stroke="black" stroke-width="1.15" stroke-miterlimit="10"/>
<path d="M233.609 92.8789L233.698 94.8218" stroke="black" stroke-width="1.15" stroke-miterlimit="10"/>
<path d="M277.492 129.8C277.154 125.906 276.93 117.404 276.93 117.404L277.492 129.8Z" fill="white"/>
<path d="M277.492 129.8C277.154 125.906 276.93 117.404 276.93 117.404" stroke="black" stroke-width="1.15" stroke-miterlimit="10"/>
<path d="M242.722 102.015C251.755 109.987 267.796 117.992 272.051 118.008C282.841 118.064 292.764 107.972 291.961 98.643L290.588 59.8813C289.786 50.5522 281.564 43.6316 272.235 44.4345L246.648 46.6343C237.319 47.4371 230.399 55.6583 231.202 64.9875L232.213 76.7814C231.338 76.0668 230.214 75.6654 229.002 75.7858C225.895 76.0909 222.442 77.8732 222.675 84.2961C223.02 93.7938 230.961 93.4566 233.602 92.8866L235.754 93.0311" fill="white"/>
<path d="M242.724 102.013C243.431 101.82 243.728 102.31 244.162 102.655C249.982 107.464 256.437 111.495 263.173 114.899C265.911 116.143 268.689 117.54 271.691 117.966C276.733 118.11 281.582 115.67 285.324 112.442C288.286 109.809 290.727 106.356 291.554 102.422C291.987 100.455 291.795 98.4484 291.723 96.4252L291.466 90.3636C291.281 85.9239 290.326 64.0381 290.165 60.08C289.723 54.1711 285.894 48.6796 280.458 46.271C276.773 44.5047 272.759 44.7054 268.769 45.139L256.686 46.1425C253.178 46.4958 248.063 46.7045 244.659 47.2826C240.757 48.0453 237.217 50.3495 234.816 53.5127C232.416 56.6679 231.155 60.7063 231.452 64.6884L232.44 76.7713L232.48 77.2932L232.079 76.956C228.98 74.4832 223.849 77.0202 223.151 80.8498C221.537 88.3485 225.439 94.3859 233.604 92.8766L235.764 93.0371C235.764 93.0371 233.596 92.9087 233.612 92.9087C228.883 93.9845 223.761 91.873 222.878 86.7267C222.252 83.5635 222.284 79.6616 224.813 77.3012C226.82 75.5671 230.176 74.7963 232.36 76.6188L231.998 76.8115L230.939 64.7286C230.192 56.4271 236.318 48.238 244.523 46.6483C248.039 46.0382 253.049 45.8134 256.622 45.428L268.705 44.3522C270.712 44.1996 272.727 43.8945 274.814 44.023C281.061 44.3361 286.929 48.3263 289.483 54.0506C290.35 55.9373 290.871 57.9686 291.032 60.0479L291.209 66.1095L291.883 90.3636L292.052 96.4252C292.076 98.4323 292.293 100.496 291.859 102.511C289.836 112.265 278.572 120.39 268.745 117.323C259.729 114.032 251.114 109.359 243.6 103.354C243.19 102.968 242.628 102.776 242.724 102.037" fill="black"/>
<path d="M290.15 61.3412C290.431 63.6534 291.812 54.1315 289.042 43.5981C285.26 29.2351 260.765 25.8551 243.368 29.5643C238.438 30.616 224.998 37.7373 221.956 48.0299C219.627 55.8898 220.848 69.6507 224.284 73.5927C225.544 75.0378 226.628 76.3625 228.459 76.9887C231.453 76.1538 234.568 79.4053 234.729 82.97C234.865 85.8041 234.978 87.6827 236.126 87.755C238.366 87.8995 240.686 80.3286 241.714 59.4384C242.059 52.3332 247.542 48.4233 251.348 47.4759C255.78 46.368 266.321 51.9077 271.307 53.0236C276.301 54.1316 280.371 52.8149 283.815 49.3305C283.815 49.3305 289.21 53.4973 290.158 61.3412" fill="black"/>
<path d="M231.305 88.1012C231.257 88.0691 231.112 88.2457 230.783 88.4143C230.462 88.5749 229.9 88.7033 229.298 88.5026C228.077 88.1012 226.993 86.2305 226.865 84.1752C226.801 83.1395 226.977 82.144 227.323 81.3171C227.644 80.4741 228.158 79.872 228.76 79.7435C229.354 79.5829 229.803 79.9281 229.948 80.2413C230.117 80.5544 230.044 80.7872 230.109 80.8032C230.141 80.8273 230.349 80.6025 230.237 80.1369C230.181 79.9121 230.036 79.6471 229.763 79.4384C229.482 79.2216 229.073 79.1253 228.655 79.1895C227.78 79.2778 227.018 80.1208 226.648 81.028C226.231 81.9433 225.998 83.0673 226.078 84.2314C226.231 86.5276 227.483 88.6311 229.153 89.0485C229.964 89.2252 230.622 88.9602 230.96 88.6792C231.305 88.3822 231.353 88.1253 231.313 88.1092" fill="black"/>
<path d="M266.63 64.6171C266.389 65.3075 263.145 65.3557 259.42 66.1103C255.679 66.8169 252.732 67.973 252.162 67.4431C251.906 67.1862 252.371 66.5118 253.527 65.741C254.675 64.9703 256.546 64.1594 258.786 63.7178C261.026 63.2843 263.121 63.3244 264.542 63.5894C265.971 63.8543 266.726 64.2879 266.622 64.6171" fill="black"/>
<path d="M291.07 62.3931C290.749 63.0515 287.522 62.7143 283.732 63.0354C279.935 63.2923 276.876 64.1032 276.37 63.5091C276.145 63.2281 276.683 62.6099 277.928 61.9836C279.156 61.3574 281.115 60.7633 283.387 60.5867C285.667 60.4181 287.747 60.6991 289.119 61.1326C290.508 61.5662 291.207 62.088 291.062 62.3931" fill="black"/>
<path d="M275.439 66.3828C276.049 69.8913 277.06 73.3114 278.714 76.4666C280.28 79.4131 281.789 82.3676 276.892 82.191C275.985 82.1187 275.101 81.9662 274.234 81.7494C275.126 81.8297 276.017 81.918 276.9 81.8779C281.332 81.8217 279.437 79.2686 278.136 76.7557C276.523 73.5443 275.519 69.9796 275.431 66.3828" fill="black"/>
<path d="M300.941 55.4403C300.941 55.4403 292.463 42.2093 256.817 48.2547C219.42 54.5973 214.884 64.8096 214.884 64.8096C214.884 64.8096 211.985 56.3234 217.951 51.7552C217.951 51.7552 216.891 35.939 227.023 22.8525C230.644 18.1719 237.428 13.9649 238.817 12.6964L238.921 10.1674C238.921 10.1674 241.402 7.02026 254.103 6.13712C267.222 5.22187 270.064 9.18796 270.064 9.18796L270.473 11.4199C270.473 11.4199 291.179 19.7695 294.133 45.782C294.133 45.782 301.503 50.1816 300.949 55.4323" fill="#9296A7"/>
<path d="M238.913 10.1751C239.001 10.0948 239.956 10.9618 241.45 12.4391C242.903 13.9003 245.047 16.1081 246.13 19.2473C247.238 22.3222 247.495 25.2928 247.503 27.3962C247.503 29.5077 247.287 30.8003 247.182 30.7923C247.054 30.7923 247.062 29.4917 246.909 27.4203C246.757 25.357 246.403 22.4908 245.336 19.5363C244.324 16.5658 242.373 14.4221 241.016 12.8485C239.643 11.275 238.824 10.2553 238.913 10.1751Z" fill="black"/>
<g opacity="0.39">
<mask id="mask6_5018_8256" style="mask-type:luminance" maskUnits="userSpaceOnUse" x="238" y="10" width="10" height="22">
<path d="M247.235 10.1777H238.797V31.3329H247.235V10.1777Z" fill="white"/>
</mask>
<g mask="url(#mask6_5018_8256)">
<path d="M238.901 10.1777C241.125 12.5622 244.971 16.6808 245.814 20.2776C246.657 23.8744 246.946 27.6157 247.227 31.3329C244.409 19.2419 242.554 17.5881 238.789 12.7067L238.893 10.1777H238.901Z" fill="#242C4F"/>
</g>
</g>
<g opacity="0.3">
<mask id="mask7_5018_8256" style="mask-type:luminance" maskUnits="userSpaceOnUse" x="221" y="16" width="19" height="32">
<path d="M239.777 16.7363H221.055V47.8308H239.777V16.7363Z" fill="white"/>
</mask>
<g mask="url(#mask7_5018_8256)">
<path d="M239.12 18.7184C239.104 18.1645 239.063 17.5704 238.71 17.1609C238.365 16.7595 237.787 16.6631 237.289 16.7916C236.791 16.92 236.358 17.2412 235.948 17.5623C227.205 24.3384 221.593 35.5302 221.055 47.0993C221.031 47.6613 221.617 48.0145 222.067 47.7255C226.121 45.0761 230.537 43.2857 235.17 42.0413C236.687 41.6318 238.911 41.6399 239.489 40.0101C239.834 39.0386 239.802 37.9628 239.762 36.9271C239.553 30.8576 239.336 24.788 239.128 18.7184" fill="white"/>
</g>
</g>
<path d="M270.641 25.125C270.4 25.1089 270.432 21.8172 270.408 17.7628C270.392 13.7084 270.336 10.4167 270.576 10.3926C270.801 10.3766 271.243 13.6683 271.259 17.7548C271.283 21.8413 270.874 25.141 270.641 25.125Z" fill="black"/>
<path d="M293.934 44.0714C293.42 43.7664 292.81 43.4051 292.087 42.9715C291.204 42.5139 290.056 42.0884 288.747 41.5344C287.414 41.0527 285.857 40.6272 284.139 40.1455C277.202 38.4836 267.303 37.6406 256.464 38.3873C245.618 39.0295 235.944 41.0527 229.111 42.9796C227.385 43.4131 225.876 43.9831 224.535 44.4086C223.186 44.8342 222.054 45.2677 221.131 45.6531C220.288 45.9983 219.589 46.2873 219.019 46.5282C218.538 46.7369 218.297 46.8573 218.305 46.8895C218.313 46.9135 218.586 46.8493 219.084 46.6887C219.67 46.488 220.384 46.2552 221.243 45.9662C222.175 45.629 223.323 45.2356 224.68 44.8582C226.028 44.4729 227.546 43.951 229.272 43.5576C236.112 41.7833 245.746 39.8725 256.521 39.2302C267.295 38.4916 277.106 39.2303 284.002 40.7236C285.704 41.1651 287.262 41.5505 288.587 41.976C289.887 42.4818 291.043 42.8511 291.942 43.2606C292.729 43.662 293.38 43.9912 293.926 44.2641C293.926 44.1999 293.926 44.1357 293.926 44.0634" fill="black"/>
<path d="M276.95 117.42C273.04 116.906 267.958 115.847 262.33 113.575C255.924 110.989 248.746 106.967 245.406 104.342C245.406 104.342 259.809 123.016 276.95 123.578V117.42Z" fill="black"/>
<path d="M298.596 244.527H255.547V293.814H298.596V244.527Z" fill="#CFCBC6"/>
<path d="M298.596 250.172H255.547V289.656H298.596V250.172Z" fill="#9296A7"/>
<path d="M299.214 246.239H254.92C254.471 246.239 254.109 245.878 254.109 245.428V245.348C254.109 244.898 254.471 244.537 254.92 244.537H299.214C299.663 244.537 300.024 244.906 300.024 245.348V245.428C300.024 245.878 299.655 246.239 299.214 246.239Z" fill="#CFCBC6"/>
<path d="M291.243 256.049H264.797V259.397H291.243V256.049Z" fill="#242C4F"/>
<path d="M283.808 263.219H270.32V266.567H283.808V263.219Z" fill="#242C4F"/>
<path d="M299.214 293.815H254.92C254.471 293.815 254.109 293.454 254.109 293.004V292.924C254.109 292.475 254.471 292.113 254.92 292.113H299.214C299.663 292.113 300.024 292.483 300.024 292.924V293.004C300.024 293.454 299.655 293.815 299.214 293.815Z" fill="#CFCBC6"/>
<path d="M298.588 292.113H255.547V246.238H298.588L269.557 248.117V290.251L298.588 292.113Z" fill="#242C4F"/>
<path d="M265.07 267.585C266.323 267.81 268.547 268.22 269.767 268.468C271.742 268.717 273.773 268.212 275.748 267.915L281.143 267.064C282.942 266.791 284.748 266.534 286.555 266.301C283.488 267.007 278.984 267.874 275.836 268.485C273.596 268.846 271.244 269.528 268.964 268.942C268.097 268.774 265.841 268.276 264.958 268.083C264.645 268.019 264.741 267.521 265.054 267.585" fill="black"/>
<path d="M266.578 273.783L270.039 274.168H269.983C274.19 273.454 280.62 272.33 284.779 271.696C285.959 271.447 286.112 271.824 284.835 272.009C280.709 272.779 274.206 273.887 269.999 274.586L266.538 274.201C266.273 274.176 266.314 273.759 266.587 273.791" fill="black"/>
<path d="M265.806 278.497C266.737 278.521 267.693 278.738 268.608 278.746C269.74 278.521 273.61 277.774 274.806 277.549C276.885 277.14 280.667 276.409 282.714 276.032C283.091 275.96 283.469 275.879 283.862 275.912C283.268 276.217 282.28 276.321 281.63 276.482C278.403 277.172 273.61 278.135 270.366 278.818L269.242 279.043C268.913 279.123 268.351 279.227 268.038 279.123C267.283 279.003 266.52 278.866 265.774 278.697C265.653 278.673 265.677 278.473 265.806 278.489" fill="black"/>
<path d="M173.779 194.864C173.104 194.591 172.695 194.471 172.598 194.527C171.651 195.097 152.696 242.859 161.985 257.832C171.234 272.749 202.023 277.719 236.168 276.258C237.34 276.779 238.127 277.117 238.288 277.101C241.844 278.915 257.621 286.887 260.527 287.417C263.811 288.019 277.724 283.861 278.487 283.596C280.871 282.793 284.845 280.224 286.025 279.212C287.206 278.2 288.362 274.58 288.362 274.58C288.362 274.58 290.024 272.821 290.449 270.999C290.923 269 289.108 268.992 289.879 268.438C290.65 267.884 293.099 265.893 292.143 263.508C291.83 262.737 289.582 262.593 288.811 262.681C288.041 262.77 273.172 264.961 270.787 265.122C268.403 265.275 257.38 262.625 257.588 261.003C257.805 259.382 267.801 262.882 270.723 258.587C273.645 254.283 272.072 252.614 269.366 253.497C268.764 253.697 263.883 253.962 259.612 253.81C253.092 253.585 251.551 253.585 246.164 255.889C245.377 256.226 241.965 258.29 240.6 259.679C237.501 258.715 193.818 245.035 191.714 242.433L206.142 211.379C206.142 211.379 205.933 211.267 205.548 211.058" fill="white"/>
<path d="M173.756 194.92C173.371 194.791 172.985 194.574 172.624 194.598C172.544 194.703 172.48 194.831 172.415 194.952L172.174 195.466C167.807 205.983 164.531 216.982 162.059 228.085C160.389 236.941 158.06 248.566 162.091 256.932C169.421 268.846 186.835 272.371 199.793 274.298C211.859 275.879 224.095 276.152 236.282 275.662C236.844 275.887 237.792 276.361 238.321 276.522C242.304 278.392 247.016 280.921 251.279 282.928C254.443 284.333 257.582 286.18 260.938 286.983C266.758 286.766 272.499 284.799 278.119 283.29C280.824 282.342 283.402 280.72 285.706 279.01C286.902 277.846 287.456 276.04 288.042 274.49C288.684 273.671 289.407 272.82 289.824 271.849C290.202 270.99 290.523 269.978 289.712 269.28C289.632 269.167 289.495 269.127 289.399 268.814C289.343 268.509 289.551 268.332 289.728 268.204C291.069 267.249 292.482 265.619 291.976 263.893C291.888 263.371 291.446 263.282 291.013 263.146C289.592 262.72 287.874 263.09 286.412 263.29C283.273 263.724 277.019 264.575 273.88 264.977C269.649 265.844 265.442 264.591 261.412 263.363C260.087 262.833 258.441 262.512 257.51 261.34C257.156 260.392 258.561 260.416 259.131 260.424C262.921 260.432 268.316 261.91 270.781 258.2C272.266 255.977 273.213 252.524 269.143 253.881C265.466 254.355 261.725 254.387 258.031 254.226C251.649 253.608 245.138 255.495 240.754 260.312C232.364 257.759 224.063 254.957 215.761 252.155C208.6 249.674 201.398 247.282 194.422 244.295C193.346 243.765 192.27 243.428 191.379 242.513L191.459 242.336C191.491 242.424 206.103 211.049 206.103 211.458L205.509 211.137L205.565 211.025L206.167 211.338C206.24 211.378 206.223 211.362 206.199 211.426L191.965 242.569L191.925 242.28C192.206 242.569 192.744 242.834 193.193 243.075C208.616 249.578 224.866 253.961 240.754 259.196L240.216 259.332C241.95 257.952 243.733 256.908 245.652 255.856C247.61 254.973 249.561 254.178 251.681 253.712C255.904 252.91 260.127 253.592 264.358 253.456C266.486 253.496 268.557 253.351 270.652 253.03C273.775 253.159 272.226 256.892 271.086 258.401C268.485 262.255 263.025 260.778 259.123 260.721C255.294 260.729 260.432 262.849 261.5 263.09C264.478 263.981 267.593 264.848 270.709 264.985C272.94 264.808 277.838 264.037 280.094 263.74L286.348 262.817C287.857 262.592 289.624 262.207 291.149 262.64C291.567 262.753 292.056 262.905 292.329 263.315C293.341 265.41 291.711 267.522 290.073 268.702C289.961 268.766 289.977 268.846 289.985 268.702C289.953 268.646 290.049 268.782 290.138 268.854C290.33 269.039 290.547 269.288 290.675 269.577C290.804 269.866 290.852 270.187 290.844 270.484C290.812 271.977 289.319 274.145 288.684 274.707C288.05 276.425 287.536 278.264 286.171 279.58C283.763 281.411 281.226 283.041 278.36 284.076C272.611 285.666 266.895 287.713 260.866 287.954C257.301 287.207 254.138 285.313 250.822 283.9C246.519 281.877 242.263 279.765 238.024 277.621L238.338 277.686C238.225 277.702 238.089 277.67 237.992 277.645C237.406 277.461 236.507 277.043 235.937 276.802C231.264 277.196 223.573 277.172 217.889 277.035C200.82 276.401 173.395 273.993 162.404 259.453C156.471 251.256 159.481 237.206 161.336 227.941C163.913 216.805 167.389 205.854 172.022 195.401L172.279 194.887C172.359 194.759 172.415 194.623 172.52 194.51C172.56 194.446 172.672 194.438 172.712 194.446C173.114 194.51 173.459 194.671 173.812 194.815L173.764 194.928L173.756 194.92Z" fill="black"/>
<path d="M176.932 246.847C177.109 247.08 179.911 244.744 184.134 243.62C188.341 242.432 191.946 243.026 191.978 242.729C192.074 242.512 188.341 241.46 183.885 242.705C179.413 243.901 176.74 246.711 176.94 246.847" fill="black"/>
<path d="M169.883 195.923C170.637 192.824 185.667 160.06 195.879 138.158C196.867 138.021 197.838 137.957 198.777 137.957C203.86 137.957 208.211 139.964 211.703 143.922C221.546 155.074 222.237 178.862 221.37 185.807C220.446 193.161 208.813 212.478 207.199 215.135L169.883 195.931V195.923Z" fill="white"/>
<path d="M198.767 138.335C203.736 138.335 207.991 140.302 211.403 144.172C221.158 155.219 221.841 178.855 220.981 185.751C220.098 192.792 209.204 211.057 207.044 214.622L170.33 195.723C171.718 191.355 186.21 159.763 196.125 138.504C197.024 138.391 197.908 138.335 198.759 138.335M198.767 137.572C197.755 137.572 196.703 137.653 195.611 137.805C195.611 137.805 168.676 195.554 169.479 196.156L207.333 215.642C207.333 215.642 220.741 193.9 221.744 185.856C222.708 178.148 222.009 137.572 198.767 137.572Z" fill="black"/>
<path d="M368.607 243.926H324.547V294.369H368.607V243.926Z" fill="#CFCBC6"/>
<path d="M368.607 249.697H324.547V290.113H368.607V249.697Z" fill="#9296A7"/>
<path d="M369.235 245.668H323.897C323.44 245.668 323.062 245.291 323.062 244.833V244.753C323.062 244.295 323.44 243.918 323.897 243.918H369.235C369.692 243.918 370.069 244.295 370.069 244.753V244.833C370.069 245.291 369.692 245.668 369.235 245.668Z" fill="#CFCBC6"/>
<path d="M361.08 255.713H334.016V259.141H361.08V255.713Z" fill="#242C4F"/>
<path d="M353.473 263.051H339.672V266.479H353.473V263.051Z" fill="#242C4F"/>
<path d="M369.235 294.369H323.897C323.44 294.369 323.062 293.992 323.062 293.534V293.454C323.062 292.996 323.44 292.619 323.897 292.619H369.235C369.692 292.619 370.069 292.996 370.069 293.454V293.534C370.069 293.992 369.692 294.369 369.235 294.369Z" fill="#CFCBC6"/>
<path d="M368.607 292.627H324.547V245.668H368.607L338.894 247.595V290.716L368.607 292.627Z" fill="#242C4F"/>
<path d="M334.302 267.522C335.587 267.755 337.859 268.172 339.111 268.421C341.134 268.678 343.214 268.156 345.229 267.851L350.752 266.976C352.599 266.695 354.446 266.438 356.292 266.197C354.47 266.607 352.647 266.992 350.817 267.361C347.372 267.923 342.804 269.248 339.32 269.12C338.694 268.999 337.554 268.758 336.919 268.63L334.19 268.036C333.868 267.972 333.965 267.466 334.294 267.522" fill="black"/>
<path d="M335.839 273.864L339.38 274.257H339.323C343.635 273.527 350.218 272.37 354.465 271.728C355.678 271.471 355.838 271.857 354.521 272.049C350.298 272.844 343.643 273.968 339.34 274.683L335.799 274.289C335.534 274.265 335.566 273.832 335.847 273.872" fill="black"/>
<path d="M335.046 278.69C336.186 278.69 337.367 279.115 338.483 278.834C339.213 278.682 343.436 277.879 344.263 277.718C346.383 277.301 350.26 276.546 352.356 276.161C352.741 276.089 353.127 276.008 353.536 276.04C352.926 276.354 351.914 276.458 351.248 276.627C347.94 277.333 343.035 278.321 339.719 279.019L338.563 279.252C338.218 279.332 337.656 279.445 337.327 279.332C336.548 279.212 335.777 279.075 335.006 278.899C334.878 278.875 334.902 278.674 335.038 278.682" fill="black"/>
<path d="M587.354 278.561H415.68V290.427H587.354V278.561Z" fill="#303031"/>
<path d="M577.565 301.236H60.6484V351.296H577.565V301.236Z" fill="#8F8F8E"/>
<path d="M581.001 294.328H60.9219V300.855H581.001V294.328Z" fill="#303031"/>
<path d="M581.001 300.855H60.9219V311.59H581.001V300.855Z" fill="black"/>
<path d="M127.327 323.528C127.327 335.531 117.323 345.261 104.992 345.261C92.6598 345.261 82.6562 335.531 82.6562 323.528C82.6562 311.525 92.6518 301.795 104.992 301.795C117.331 301.795 127.327 311.525 127.327 323.528Z" fill="black"/>
<path d="M198.014 323.528C198.014 335.531 188.011 345.261 175.679 345.261C163.347 345.261 153.344 335.531 153.344 323.528C153.344 311.525 163.339 301.795 175.679 301.795C188.019 301.795 198.014 311.525 198.014 323.528Z" fill="black"/>
<path d="M268.702 323.528C268.702 335.531 258.698 345.261 246.367 345.261C234.035 345.261 224.031 335.531 224.031 323.528C224.031 311.525 234.027 301.795 246.367 301.795C258.706 301.795 268.702 311.525 268.702 323.528Z" fill="black"/>
<path d="M339.397 323.528C339.397 335.531 329.394 345.261 317.062 345.261C304.73 345.261 294.727 335.531 294.727 323.528C294.727 311.525 304.722 301.795 317.062 301.795C329.402 301.795 339.397 311.525 339.397 323.528Z" fill="black"/>
<path d="M410.077 323.528C410.077 335.531 400.073 345.261 387.742 345.261C375.41 345.261 365.406 335.531 365.406 323.528C365.406 311.525 375.41 301.795 387.742 301.795C400.073 301.795 410.077 311.525 410.077 323.528Z" fill="black"/>
<path d="M480.772 323.528C480.772 335.531 470.769 345.261 458.437 345.261C446.105 345.261 436.102 335.531 436.102 323.528C436.102 311.525 446.097 301.795 458.437 301.795C470.777 301.795 480.772 311.525 480.772 323.528Z" fill="black"/>
<path d="M551.468 323.528C551.468 335.531 541.464 345.261 529.132 345.261C516.8 345.261 506.797 335.531 506.797 323.528C506.797 311.525 516.8 301.795 529.132 301.795C541.464 301.795 551.468 311.525 551.468 323.528Z" fill="black"/>
<g style="mix-blend-mode:multiply">
<mask id="mask8_5018_8256" style="mask-type:luminance" maskUnits="userSpaceOnUse" x="60" y="311" width="518" height="14">
<path d="M577.63 311.592H60.9141V324.614H577.63V311.592Z" fill="white"/>
</mask>
<g mask="url(#mask8_5018_8256)">
<path d="M577.622 311.592H60.9141V324.614H408.196L577.622 311.592Z" fill="#E5E0E3"/>
</g>
</g>
<path d="M428.592 244.504H384.531V294.947H428.592V244.504Z" fill="#CFCBC6"/>
<path d="M428.592 250.275H384.531V290.691H428.592V250.275Z" fill="#9296A7"/>
<path d="M429.227 246.246H383.89C383.432 246.246 383.055 245.869 383.055 245.411V245.331C383.055 244.873 383.432 244.496 383.89 244.496H429.227C429.684 244.496 430.062 244.873 430.062 245.331V245.411C430.062 245.869 429.684 246.246 429.227 246.246Z" fill="#CFCBC6"/>
<path d="M421.072 256.289H394.008V259.717H421.072V256.289Z" fill="#242C4F"/>
<path d="M413.457 263.629H399.656V267.057H413.457V263.629Z" fill="#242C4F"/>
<path d="M429.227 294.948H383.89C383.432 294.948 383.055 294.57 383.055 294.113V294.032C383.055 293.575 383.432 293.197 383.89 293.197H429.227C429.684 293.197 430.062 293.575 430.062 294.032V294.113C430.062 294.57 429.684 294.948 429.227 294.948Z" fill="#CFCBC6"/>
<path d="M428.592 293.205H384.531V246.246H428.592L398.878 248.173V291.294L428.592 293.205Z" fill="#242C4F"/>
<path d="M394.294 268.1C395.579 268.333 397.851 268.75 399.103 268.999C401.126 269.256 403.206 268.734 405.221 268.429L410.745 267.562C412.591 267.281 414.438 267.024 416.284 266.783C414.462 267.193 412.639 267.578 410.809 267.947C407.365 268.509 402.796 269.834 399.312 269.706C398.686 269.585 397.546 269.344 396.911 269.216L394.182 268.622C393.861 268.557 393.957 268.044 394.286 268.108" fill="black"/>
<path d="M395.831 274.442L399.372 274.836H399.316C403.627 274.105 410.21 272.949 414.457 272.307C415.67 272.058 415.83 272.435 414.514 272.628C410.291 273.423 403.635 274.547 399.332 275.261L395.791 274.868C395.526 274.844 395.558 274.41 395.839 274.45" fill="black"/>
<path d="M395.031 279.266C396.171 279.266 397.351 279.692 398.467 279.411C399.198 279.258 403.421 278.455 404.248 278.295C406.367 277.877 410.245 277.122 412.34 276.737C412.726 276.665 413.111 276.585 413.52 276.617C412.91 276.93 411.899 277.034 411.232 277.203C407.925 277.909 403.019 278.897 399.703 279.595L398.547 279.828C398.202 279.908 397.64 280.021 397.311 279.908C396.532 279.788 395.761 279.651 394.991 279.475C394.862 279.451 394.886 279.25 395.023 279.258" fill="black"/>
<path d="M140.795 242.793H96.7344V293.236H140.795V242.793Z" fill="#CFCBC6"/>
<path d="M140.795 248.566H96.7344V288.982H140.795V248.566Z" fill="#9296A7"/>
<path d="M141.422 244.535H96.085C95.6273 244.535 95.25 244.158 95.25 243.7V243.62C95.25 243.163 95.6273 242.785 96.085 242.785H141.422C141.88 242.785 142.257 243.163 142.257 243.62V243.7C142.257 244.158 141.88 244.535 141.422 244.535Z" fill="#CFCBC6"/>
<path d="M133.267 254.58H106.203V258.008H133.267V254.58Z" fill="#242C4F"/>
<path d="M125.66 261.918H111.859V265.346H125.66V261.918Z" fill="#242C4F"/>
<path d="M141.422 293.237H96.085C95.6273 293.237 95.25 292.859 95.25 292.402V292.321C95.25 291.864 95.6273 291.486 96.085 291.486H141.422C141.88 291.486 142.257 291.864 142.257 292.321V292.402C142.257 292.859 141.88 293.237 141.422 293.237Z" fill="#CFCBC6"/>
<path d="M140.787 291.496H96.7344V244.537H140.787L111.081 246.464V289.585L140.787 291.496Z" fill="#242C4F"/>
<path d="M106.474 266.389C107.758 266.622 110.031 267.039 111.283 267.288C113.306 267.545 115.386 267.023 117.401 266.718L122.924 265.851C124.771 265.57 126.617 265.313 128.464 265.072C126.642 265.482 124.819 265.867 122.989 266.236C119.544 266.798 114.976 268.123 111.492 267.995C110.865 267.874 109.725 267.633 109.091 267.505L106.361 266.911C106.04 266.847 106.137 266.333 106.466 266.397" fill="black"/>
<path d="M108.027 272.731L111.567 273.125H111.511C115.822 272.394 122.406 271.238 126.653 270.596C127.865 270.347 128.026 270.724 126.709 270.917C122.486 271.712 115.83 272.836 111.527 273.55L107.986 273.157C107.721 273.133 107.754 272.699 108.035 272.74" fill="black"/>
<path d="M107.223 277.557C108.363 277.557 109.543 277.983 110.659 277.702C111.39 277.549 115.613 276.746 116.44 276.586C118.559 276.168 122.437 275.413 124.532 275.028C124.918 274.956 125.303 274.876 125.713 274.908C125.102 275.221 124.091 275.325 123.424 275.494C120.117 276.2 115.211 277.188 111.895 277.886L110.739 278.119C110.394 278.199 109.832 278.312 109.503 278.199C108.724 278.079 107.953 277.942 107.183 277.766C107.062 277.742 107.078 277.541 107.215 277.549" fill="black"/>
<path d="M217.732 243.373H173.672V293.816H217.732V243.373Z" fill="#CFCBC6"/>
<path d="M217.732 249.145H173.672V289.56H217.732V249.145Z" fill="#9296A7"/>
<path d="M218.375 245.114H173.038C172.58 245.114 172.203 244.736 172.203 244.279V244.198C172.203 243.741 172.58 243.363 173.038 243.363H218.375C218.833 243.363 219.21 243.741 219.21 244.198V244.279C219.21 244.736 218.833 245.114 218.375 245.114Z" fill="#CFCBC6"/>
<path d="M210.205 255.158H183.141V258.586H210.205V255.158Z" fill="#242C4F"/>
<path d="M202.614 262.496H188.812V265.924H202.614V262.496Z" fill="#242C4F"/>
<path d="M218.375 293.815H173.038C172.58 293.815 172.203 293.437 172.203 292.98V292.899C172.203 292.442 172.58 292.064 173.038 292.064H218.375C218.833 292.064 219.21 292.442 219.21 292.899V292.98C219.21 293.437 218.833 293.815 218.375 293.815Z" fill="#CFCBC6"/>
<path d="M217.732 292.074H173.68V245.115H217.732L188.019 247.05V290.163L217.732 292.074Z" fill="#242C4F"/>
<path d="M183.427 266.967C184.712 267.2 186.984 267.617 188.236 267.866C190.259 268.123 192.339 267.601 194.354 267.296L199.877 266.429C201.724 266.148 203.571 265.891 205.417 265.65C203.595 266.06 201.772 266.445 199.942 266.815C196.497 267.377 191.929 268.701 188.445 268.573C187.819 268.452 186.679 268.212 186.044 268.083L183.315 267.489C182.993 267.425 183.09 266.911 183.419 266.975" fill="black"/>
<path d="M184.98 273.31L188.52 273.703H188.464C192.775 272.972 199.359 271.816 203.606 271.174C204.818 270.925 204.979 271.303 203.662 271.495C199.439 272.29 192.783 273.414 188.48 274.129L184.94 273.735C184.675 273.711 184.707 273.278 184.988 273.318" fill="black"/>
<path d="M184.184 278.135C185.324 278.135 186.504 278.561 187.62 278.28C188.351 278.127 192.574 277.324 193.401 277.164C195.52 276.746 199.398 275.992 201.493 275.606C201.879 275.534 202.264 275.454 202.673 275.486C202.063 275.799 201.052 275.903 200.385 276.072C197.078 276.778 192.172 277.766 188.856 278.464L187.7 278.697C187.355 278.777 186.793 278.89 186.464 278.778C185.685 278.657 184.914 278.521 184.144 278.344C184.023 278.32 184.039 278.119 184.176 278.127" fill="black"/>
<path d="M489.391 273.229H466.742V274.104H489.391V273.229Z" fill="black"/>
<path d="M475.164 271.326H466.742V272.201H475.164V271.326Z" fill="black"/>
<path d="M458.513 269.343H456.682C455.984 269.343 455.422 268.781 455.422 268.083V266.26C455.422 265.562 455.984 265 456.682 265H458.513C459.211 265 459.773 265.562 459.773 266.26V268.083C459.773 268.781 459.211 269.343 458.513 269.343Z" fill="black"/>
<path d="M463.56 269.343H461.729C461.031 269.343 460.469 268.781 460.469 268.083V266.26C460.469 265.562 461.031 265 461.729 265H463.56C464.258 265 464.82 265.562 464.82 266.26V268.083C464.82 268.781 464.258 269.343 463.56 269.343Z" fill="black"/>
<path d="M458.513 274.379H456.682C455.984 274.379 455.422 273.817 455.422 273.118V271.296C455.422 270.597 455.984 270.035 456.682 270.035H458.513C459.211 270.035 459.773 270.597 459.773 271.296V273.118C459.773 273.817 459.211 274.379 458.513 274.379Z" fill="black"/>
<path d="M463.56 274.379H461.729C461.031 274.379 460.469 273.817 460.469 273.118V271.296C460.469 270.597 461.031 270.035 461.729 270.035H463.56C464.258 270.035 464.82 270.597 464.82 271.296V273.118C464.82 273.817 464.258 274.379 463.56 274.379Z" fill="black"/>
<path d="M581.916 325.178H61.7344V351.296H581.916V325.178Z" fill="black"/>
</svg>
