<svg width="640" height="360" viewBox="0 0 640 360" fill="none" 
xmlns="http://www.w3.org/2000/svg" 
xmlns:xlink="http://www.w3.org/1999/xlink">
<defs>
<ref id="colorOne" param="c1" default="#242C4F" />
<ref id="colorTwo" param="c2" default="#9296A7"/>
</defs>
<path d="M312.199 144.501L311.099 140.301C295.499 140.801 280.999 131.801 275.799 117.001C269.299 98.5007 279.799 77.9007 299.299 71.0007C313.599 66.0007 328.699 69.6007 338.299 79.2007L339.399 76.9007L340.099 81.1007C342.799 84.2007 344.999 87.9007 346.499 92.1007C349.399 100.401 348.899 109.101 345.699 116.801L347.699 129.701" fill="white"/>
<path d="M312.797 134.7C312.797 134.7 324.897 133.1 333.797 123.9C333.797 123.9 331.697 136.1 314.997 139.8L312.797 134.7Z" fill="black"/>
<path d="M336.894 109.5C336.894 109.5 337.094 109.6 337.494 109.7C337.794 109.8 338.394 109.8 338.894 109.4C339.994 108.7 340.594 106.7 340.194 104.7C339.994 103.7 339.594 102.8 339.094 102.1C338.594 101.4 337.994 100.9 337.394 100.9C336.794 100.9 336.494 101.3 336.394 101.7C336.294 102 336.394 102.2 336.394 102.3C336.394 102.3 336.094 102.2 336.094 101.7C336.094 101.5 336.194 101.2 336.394 100.9C336.594 100.6 336.994 100.4 337.394 100.4C338.294 100.3 339.194 100.9 339.794 101.7C340.394 102.5 340.894 103.5 341.094 104.6C341.494 106.8 340.794 109.1 339.294 109.9C338.594 110.3 337.894 110.2 337.494 110C336.994 109.8 336.894 109.5 336.894 109.5Z" fill="black"/>
<path d="M299.098 101.801C299.898 105.101 299.798 108.501 299.098 111.801C298.898 113.001 298.398 114.201 298.498 115.401C298.898 117.301 302.598 115.801 303.798 115.401C303.098 115.801 302.298 116.201 301.498 116.401C300.398 116.801 298.698 117.101 298.098 115.801C297.598 114.401 298.298 113.001 298.498 111.601C299.298 108.401 299.398 105.101 299.098 101.801Z" fill="url(#colorOne)"/>
<path d="M336.898 118.699C337.098 119.999 337.198 121.299 337.498 122.599C337.698 123.699 338.198 125.299 338.598 126.399C340.898 133.999 342.998 141.699 344.398 149.499C341.698 141.999 339.598 134.399 337.698 126.699C337.198 124.599 336.798 122.399 336.898 120.299C336.898 119.899 336.898 119.099 336.898 118.699Z" fill="black"/>
<path d="M340.897 78.5001C335.697 67.7001 325.197 58.7001 312.797 58.3001C297.997 57.6001 285.897 68.6001 281.697 82.2001C278.197 93.3001 279.397 106.6 283.897 117.2C288.197 127 296.297 134.1 307.397 134.5C308.097 134.6 309.197 134.5 309.997 134.5C312.597 134.4 315.197 134.1 317.797 133.8C321.197 133.3 324.697 132.5 327.697 130.8L327.797 130.9C322.997 134.1 316.997 134.6 311.397 135.3L310.097 135.4C309.597 135.4 308.597 135.5 308.097 135.5C293.997 135.5 284.897 125.6 281.097 112.7C278.197 102.6 277.897 91.4001 281.497 81.5001C287.697 64.1001 304.997 51.9001 323.297 59.7001C329.797 62.5001 335.197 67.7001 338.697 73.8001C339.597 75.3001 340.397 76.9001 341.097 78.5001H340.897Z" fill="black"/>
<path d="M285.599 102.702C285.899 102.902 287.099 101.302 289.299 100.702C291.499 100.002 293.399 100.702 293.599 100.402C293.699 100.202 293.299 99.8017 292.399 99.5017C291.599 99.2017 290.199 99.0017 288.899 99.4017C287.499 99.8017 286.499 100.602 285.999 101.302C285.599 102.102 285.499 102.602 285.599 102.702Z" fill="black"/>
<path d="M307.302 96.901C307.602 97.101 308.802 95.501 311.002 94.901C313.202 94.201 315.102 94.901 315.302 94.601C315.402 94.401 315.002 94.001 314.102 93.701C313.302 93.401 311.902 93.201 310.602 93.601C309.202 94.001 308.202 94.801 307.702 95.501C307.302 96.301 307.202 96.901 307.302 96.901Z" fill="black"/>
<path d="M275.296 83.9008C277.196 78.1008 281.096 72.9008 286.196 69.5008L312.496 63.8008L318.196 65.0008C319.996 68.2008 320.196 72.0008 318.296 76.1008C316.296 75.0008 313.596 75.0008 311.596 76.6008C310.796 77.2008 309.996 77.7008 309.096 78.0008C306.096 79.1008 302.696 78.8008 299.996 77.1008C297.896 82.0008 292.896 85.4008 287.596 85.7008C286.596 89.1008 285.596 92.6008 283.796 95.6008C281.996 98.6008 279.096 101.201 275.696 102.001C273.496 96.2008 273.396 89.8008 275.296 83.9008Z" fill="black"/>
<path d="M316.895 151.901C315.395 146.301 314.095 140.601 313.195 134.801C313.695 136.201 314.095 137.601 314.595 139.001C315.895 143.201 317.195 147.301 318.095 151.601C318.295 152.401 317.095 152.601 316.895 151.901Z" fill="black"/>
<path d="M521.5 79.5996H214V301.7H521.5V79.5996Z" fill="url(#colorTwo)"/>
<path d="M277.196 166.3L236.196 196.7C236.196 196.7 180.796 160.4 176.696 155.6C172.596 150.8 167.196 142.6 167.196 142.6C167.196 142.6 164.696 126.2 164.996 123.9C165.296 122 166.896 117.2 167.796 114.8C168.096 114 167.596 113.1 166.696 112.9C164.896 112.6 161.896 112.9 159.596 117.3C157.496 121.3 156.396 126.7 155.796 130.3C155.496 132.2 153.696 133.3 151.896 132.8C147.396 131.4 140.896 129.8 137.896 129.4C135.196 129.1 132.096 131.7 131.496 133.6C131.096 135.1 133.296 137.9 133.296 137.9C133.296 137.9 130.896 138.8 130.096 140.5C129.996 140.7 129.896 140.9 129.796 141.2C129.196 142.6 129.396 144.2 130.296 145.4L130.896 146.2C130.896 146.2 127.996 146.7 127.496 148.3C126.996 149.9 127.196 151.9 127.196 151.9L129.596 154.9C129.596 154.9 128.296 155.9 127.996 157.4C127.796 158.2 128.896 159.8 129.796 161.1C130.696 162.3 131.996 163.1 133.396 163.4C138.696 164.6 152.296 167.8 154.896 169.5C158.096 171.6 203.596 222.1 203.596 222.1C224.896 241.4 229.696 242.6 264.996 222.5L294.696 200.3C296.796 196.2 310.096 153.4 310.796 150.6C311.096 149.7 311.296 148.8 311.596 147.9C300.596 150 286.696 158.9 277.196 166.3Z" fill="white"/>
<path d="M277.199 166.3C265.799 174.9 247.699 188.3 236.199 197C217.599 185 198.899 173 180.999 159.9C179.199 158.5 177.199 157.1 175.699 155.3C172.499 151.3 169.599 147.2 166.799 142.9L166.699 142.8V142.7C166.199 139.2 165.699 135.6 165.299 132C164.999 129.3 164.599 126.6 164.699 123.9C165.199 121.2 166.199 118.7 166.999 116.1L167.399 114.8C167.399 114.7 167.499 114.6 167.499 114.5C167.599 114.1 167.399 113.7 166.999 113.5C166.499 113.2 165.799 113.3 165.299 113.3C163.599 113.4 162.099 114.4 161.099 115.8C159.999 117.2 159.299 118.8 158.699 120.5C157.799 123 157.099 125.6 156.599 128.2C156.399 129.1 156.299 130 156.099 130.9C155.799 131.8 155.099 132.6 154.199 133C153.299 133.4 152.299 133.3 151.399 133C149.699 132.5 147.999 132 146.199 131.5C144.499 131.1 142.699 130.6 140.999 130.3C139.299 130 137.499 129.4 135.799 130C133.999 130.7 132.299 132 131.699 133.9C131.599 134.5 131.799 135.1 132.099 135.7C132.499 136.6 133.099 137.4 133.699 138.1C132.099 138.7 130.499 139.8 129.899 141.6C129.299 143.4 129.999 144.8 131.099 146.2L131.299 146.5C129.999 146.7 128.499 147.1 127.799 148.3C127.599 148.8 127.499 149.5 127.399 150.1C127.399 150.7 127.399 151.4 127.399 152L127.299 151.9L129.699 154.9L129.899 155.1L129.699 155.3C128.999 155.9 128.399 156.7 128.199 157.6C128.199 157.7 128.199 157.7 128.199 157.8C128.399 158.8 129.099 159.7 129.599 160.6C130.199 161.5 130.899 162.2 131.899 162.7C132.699 163.2 134.099 163.4 134.999 163.6C141.399 165.2 147.999 166.4 154.199 168.8C155.299 169.2 156.099 170.1 156.899 170.9C157.699 171.7 158.499 172.5 159.199 173.3C174.499 189.2 189.199 205.5 203.999 221.8C209.999 227 216.899 233.9 224.999 236C227.699 236.6 230.499 236.6 233.299 236.2C238.899 235.2 244.199 232.8 249.299 230.3C254.499 227.7 259.499 224.9 264.499 222.1C264.199 222.4 294.199 199.9 294.099 200L293.899 200.2C294.099 199.7 294.399 199.2 294.499 198.7C298.999 186.3 302.999 173.7 307.099 161.2C308.199 157.5 310.199 151.7 311.199 148.1L311.399 148.3C304.899 149.6 298.899 152.5 293.199 155.7C287.899 158.6 282.399 162.3 277.199 166.3ZM277.099 166.2C284.899 160.2 293.199 154.7 302.299 150.7C305.299 149.4 308.499 148.3 311.699 147.6L311.999 147.5C310.699 152 309.399 156.5 307.999 161C304.099 173.5 300.199 187.4 295.699 199.6C295.599 199.9 295.399 200.2 295.299 200.6L295.199 200.7C295.099 200.8 265.599 223 265.499 223C260.499 225.9 255.399 228.7 250.199 231.3C244.999 233.9 239.599 236.3 233.799 237.4C227.699 238.6 221.899 237 216.799 233.6C211.899 230.4 207.599 226.5 203.199 222.6C192.699 210.9 178.099 194.8 167.699 183.4C163.999 179.4 160.299 175.3 156.399 171.4C155.799 170.8 155.299 170.2 154.599 169.8C153.399 169.1 152.199 168.7 150.899 168.3C145.699 166.6 140.299 165.3 134.999 164.1L133.399 163.7C132.299 163.4 131.199 162.9 130.399 162.1C129.599 161.3 128.999 160.3 128.399 159.4C127.699 158.1 127.499 157.4 128.399 156C128.699 155.5 129.099 155.1 129.599 154.7L129.499 155.1L127.099 152.1V152C126.999 150.6 126.999 149.2 127.499 148C128.199 146.8 129.699 146.3 130.999 146.1L130.799 146.5C130.499 146.1 130.299 145.8 129.999 145.4C128.899 143.8 129.099 141.8 130.099 140.2C130.899 139.1 132.099 138.3 133.299 137.8L133.199 138.2C132.599 137.5 132.099 136.7 131.699 135.9C131.399 135.3 131.099 134.5 131.299 133.8C131.899 131.8 133.799 130.3 135.699 129.6C137.499 128.9 139.299 129.5 141.099 129.8C144.599 130.5 148.099 131.5 151.499 132.5C153.399 133.3 155.499 132.2 155.599 130.1C156.299 125.9 157.199 121.6 158.999 117.8C160.399 114.7 163.299 111.9 166.999 112.8C167.799 113.1 168.399 114 168.199 114.8C168.199 115 167.699 116.2 167.699 116.5C166.899 119 165.999 121.6 165.499 124.2C165.399 126.8 165.899 129.5 166.199 132.1C166.699 135.6 167.199 139.2 167.699 142.7L167.599 142.5C169.699 145.5 171.799 148.5 173.999 151.5C175.099 152.9 176.199 154.4 177.399 155.7C181.499 159.3 186.099 162.3 190.599 165.5C205.499 175.9 221.199 186.5 236.299 196.5H235.899C247.599 187.8 265.799 174.8 277.099 166.2Z" fill="black"/>
<path d="M131.898 138.399C131.898 138.399 131.998 138.499 132.298 138.599C132.598 138.799 132.998 138.899 133.398 139.199C134.398 139.699 135.898 140.399 137.598 141.199C139.398 142.099 141.498 143.099 143.798 144.199C144.998 144.699 146.198 145.399 147.498 145.899C148.798 146.399 150.598 146.499 151.898 145.599C152.598 145.099 152.998 144.399 153.098 143.599C153.298 142.799 153.198 142.099 152.998 141.399C152.598 139.899 151.598 138.899 150.498 138.099C149.398 137.299 148.298 136.699 147.298 136.199C146.298 135.699 145.298 135.199 144.498 134.699C142.798 133.799 141.398 133.099 140.398 132.499C139.898 132.299 139.598 132.099 139.298 131.899C139.598 132.099 139.998 132.299 140.398 132.499C141.398 133.099 142.798 133.799 144.498 134.799C145.398 135.299 146.298 135.799 147.298 136.299C148.298 136.899 149.398 137.399 150.398 138.199C151.398 138.999 152.398 139.999 152.698 141.299C153.098 142.599 152.798 144.199 151.698 145.099C151.098 145.499 150.398 145.699 149.698 145.699C148.998 145.699 148.298 145.599 147.698 145.399C146.398 144.899 145.198 144.299 143.998 143.799C141.598 142.699 139.498 141.699 137.698 140.899C135.898 140.099 134.498 139.499 133.398 138.999C132.898 138.799 132.498 138.599 132.198 138.499C131.998 138.399 131.898 138.299 131.898 138.399Z" fill="black"/>
<path d="M129.898 146.698C129.898 146.698 130.198 146.898 130.798 147.198C131.398 147.498 132.198 147.898 133.298 148.298C135.398 149.198 138.298 150.298 141.598 151.498C142.398 151.798 143.198 152.098 144.098 152.198C144.898 152.398 145.798 152.398 146.498 152.198C147.998 151.698 148.898 150.298 148.998 149.098C149.098 147.898 148.598 146.998 148.198 146.498C147.998 146.198 147.798 146.098 147.698 145.998C147.598 145.898 147.498 145.898 147.498 145.898C147.498 145.898 147.798 146.098 148.098 146.598C148.398 147.098 148.798 147.998 148.698 149.098C148.598 150.198 147.698 151.398 146.398 151.798C145.698 151.998 144.898 151.998 144.198 151.798C143.398 151.598 142.598 151.298 141.798 151.098C138.498 149.998 135.598 148.898 133.398 148.098C132.398 147.698 131.598 147.398 130.898 147.098C130.198 146.798 129.898 146.698 129.898 146.698Z" fill="black"/>
<path d="M129.297 154.5C129.297 154.5 129.597 154.6 130.197 154.8C130.897 155 131.697 155.2 132.597 155.4C134.597 155.9 137.497 156.6 140.597 157.4C141.397 157.6 142.097 157.8 142.897 157.9C143.697 158 144.497 157.9 145.097 157.6C145.797 157.3 146.297 156.7 146.497 156.1C146.697 155.5 146.597 154.8 146.397 154.3C145.997 153.3 145.197 152.7 144.697 152.5C144.197 152.2 143.897 152.1 143.797 152.2C143.797 152.2 144.097 152.4 144.597 152.7C145.097 153 145.797 153.6 146.097 154.5C146.297 155 146.297 155.5 146.197 156.1C145.997 156.6 145.597 157.1 144.997 157.4C144.397 157.7 143.697 157.7 142.997 157.6C142.297 157.5 141.497 157.3 140.697 157.1C137.597 156.4 134.697 155.7 132.697 155.3C131.697 155.1 130.897 154.9 130.297 154.8C129.697 154.6 129.297 154.5 129.297 154.5Z" fill="black"/>
<path d="M129.594 161.7C129.594 161.8 130.594 161.8 132.294 161.8C133.994 161.8 136.294 161.8 138.794 161.8C139.394 161.8 140.094 161.8 140.694 161.8C141.294 161.8 141.894 161.8 142.494 161.6C143.094 161.5 143.594 161.2 143.894 160.7C144.194 160.3 144.294 159.7 144.194 159.3C143.894 158.4 143.294 158 142.894 157.8C142.494 157.6 142.194 157.6 142.194 157.6C142.194 157.6 142.494 157.7 142.794 157.9C143.194 158.1 143.694 158.6 143.894 159.3C143.994 159.7 143.894 160.1 143.594 160.4C143.294 160.7 142.894 161 142.394 161.1C141.894 161.2 141.294 161.2 140.694 161.2C140.094 161.2 139.494 161.2 138.794 161.2C136.294 161.2 133.894 161.3 132.294 161.3C130.694 161.5 129.594 161.6 129.594 161.7Z" fill="black"/>
<path d="M146.398 154.7C146.498 154.8 148.298 153.7 150.898 153.3C153.498 152.9 155.598 153.4 155.598 153.2C155.598 153.1 153.498 152.4 150.798 152.8C148.198 153.3 146.398 154.6 146.398 154.7Z" fill="black"/>
<path d="M236.995 200C236.795 198.7 236.495 197.5 236.195 196.5C236.095 196.3 236.095 196.1 235.995 196C235.895 196 235.795 196 235.695 196.1C235.795 196.3 235.795 196.5 235.895 196.7C236.195 197.7 236.395 198.8 236.595 200.1C236.795 201.4 236.795 202.8 236.795 204.4C236.695 205.9 236.495 207.3 236.295 208.6C235.995 209.9 235.695 211 235.395 212C234.695 213.9 234.195 215 234.195 215C234.195 215 234.395 214.8 234.695 214.3C234.995 213.8 235.295 213.1 235.695 212.1C236.095 211.2 236.395 210 236.695 208.7C236.995 207.4 237.195 205.9 237.195 204.4C237.295 202.7 237.195 201.3 236.995 200Z" fill="black"/>
<path d="M289.497 239.3C283.297 231.8 280.597 221.5 282.497 211.9C284.397 202.3 290.697 193.7 299.297 189.1" fill="url(#colorOne)"/>
<path d="M355.196 132.101C363.196 129.901 374.396 125.601 377.196 117.801C380.096 110.001 374.496 98.9005 369.796 92.1005C374.496 82.1005 370.196 68.8005 360.496 63.5005C358.696 62.5005 356.796 61.8005 355.396 60.4005C352.596 57.9005 354.096 54.6005 350.496 50.3005C341.696 40.0005 322.296 38.6005 304.296 47.7005C298.696 45.1005 288.396 47.3005 281.896 55.1005C279.696 57.7005 275.596 57.7005 272.696 59.4005C267.096 62.6005 265.596 70.1005 265.796 76.6005C265.996 83.1005 267.196 90.0005 264.496 95.9005C263.096 99.0005 260.696 101.601 259.796 104.901C258.796 108.501 259.796 112.601 262.396 115.401C264.996 118.101 268.996 119.401 272.696 118.501C270.396 124.301 271.596 131.101 274.896 136.301C278.196 141.601 283.796 147.801 290.296 147.901C297.296 148.001 301.896 143.501 301.896 143.501C301.896 143.501 306.696 148.501 320.696 143.701C342.696 136.301 354.296 141.401 355.196 132.101Z" fill="black"/>
<path d="M344.999 60.4996C344.199 57.0996 340.899 54.7996 337.499 55.2996L300.399 55.0996C288.899 56.6996 287.399 72.0996 286.999 83.6996C286.599 95.4996 286.999 107.5 290.699 116.5C298.299 134.5 318.899 137.5 318.899 137.5C318.899 137.4 319.499 140 321.199 146.4C322.999 147.8 329.799 152.8 339.199 152C353.299 150.9 360.799 144.4 361.199 143.6C355.999 118.1 350.199 86.0996 344.999 60.4996Z" fill="white"/>
<path d="M337.299 152.9C329.099 152.9 323 148.9 320.7 147L320.5 146.9L320.4 146.7C319.2 141.9 318.5 139.3 318.2 138.3C316.8 138 312.4 137.1 307.2 134.5C301.5 131.7 293.899 126.4 289.899 116.9C285.799 107.2 285.7 94.1 286.1 83.8C286.3 77.9 286.8 71.2 288.7 65.5C290.9 58.9 294.8 55.2 300.1 54.5L337.2 54.7C341.1 54.2 344.6 56.7 345.5 60.5C348.1 73.3 350.9 87.9 353.6 102.1C356.3 116.2 359.1 130.9 361.7 143.7V143.9L361.6 144.1C360.9 145.4 352.9 151.8 339 152.9C338.5 152.8 337.899 152.9 337.299 152.9ZM321.7 146.1C324.2 148 330.6 152.1 339.1 151.5C352 150.5 359.3 144.9 360.5 143.6C357.9 130.9 355.2 116.4 352.5 102.3C349.8 88.2 347 73.5 344.4 60.7C343.7 57.6 340.8 55.6 337.6 56L300.5 55.8C290.1 57.3 288.2 70.8 287.7 83.8C287.3 94 287.399 106.8 291.399 116.3C295.199 125.4 302.5 130.5 308 133.2C313.5 135.9 318.3 136.8 319 136.9C319.4 136.9 319.5 137.2 319.7 137.5V137.6C319.7 137.7 319.799 137.8 319.799 137.9C319.899 138.8 320.5 141.4 321.7 146.1Z" fill="black"/>
<path d="M318.602 136.9C318.602 136.9 331.702 135.2 342.302 124.6C342.302 124.6 339.202 139.4 320.102 142.3L318.602 136.9Z" fill="black"/>
<path d="M308.698 51.8992C310.798 55.0992 311.498 59.2992 310.398 62.9992C309.298 66.6992 306.498 69.8992 302.898 71.3992C300.098 72.5992 296.598 73.0992 295.398 75.7992C294.098 78.6992 296.198 82.0992 295.398 85.0992C293.898 90.3992 289.198 88.7992 285.298 93.5992C283.098 96.2992 283.098 100.099 282.698 103.499C282.298 106.999 280.998 110.899 277.598 111.899C276.098 109.299 274.598 106.599 273.798 103.699C272.998 100.799 272.798 97.5992 273.998 94.8992C274.698 93.3992 275.698 91.9992 276.198 90.4992C277.298 87.0992 275.698 83.4992 275.398 79.9992C274.998 75.3992 276.998 70.6992 280.598 67.7992C283.598 65.3992 287.398 64.1992 289.998 61.3992C291.898 59.2992 292.898 56.4992 294.898 54.5992C298.798 50.7992 305.198 51.1992 310.498 52.2992" fill="black"/>
<path d="M350.799 81.3C347.099 83.9 342.199 84.7 337.899 83.3C333.599 81.9 329.999 78.4 328.599 74.2C323.999 75.9 318.599 74.1 315.099 70.7C311.499 67.3 309.499 62.6 308.199 57.9C307.899 56.8 307.599 55.6 307.799 54.5C308.399 52.1 311.099 50.9 313.499 50.1C319.599 48.1 325.899 46.1 332.299 46.7C338.699 47.3 345.199 51.3 346.799 57.5C347.599 60.5 347.199 64 349.099 66.5C350.499 68.4 352.999 69.3 354.099 71.4C354.999 73 354.799 74.9 354.199 76.6C353.499 78.3 352.399 79.7 351.299 81.1" fill="black"/>
<path d="M356.901 101C354.801 102 352.601 103.4 351.901 105.7C351.201 108 351.401 110.5 352.601 112.6C350.801 113 349.801 115.1 349.601 117C349.101 121.8 352.701 126.4 357.201 128.2C358.801 128.8 360.601 129.1 362.101 128.4C363.501 127.7 364.501 126.3 365.301 125C366.601 122.8 367.901 120.5 368.601 118.1C369.301 115.6 369.401 112.9 368.501 110.5C367.601 108.2 365.901 106.4 363.901 105C361.801 103.7 359.201 101.8 356.901 101Z" fill="black"/>
<path d="M353.176 99.6729C359.525 96.3207 361.599 87.7832 357.808 80.6039C354.018 73.4247 345.798 70.3222 339.449 73.6744C333.1 77.0266 331.026 85.5641 334.817 92.7433C338.607 99.9226 346.827 103.025 353.176 99.6729Z" fill="url(#colorOne)"/>
<path d="M301.195 48.6008C306.495 47.8008 311.495 48.2008 316.095 50.0008C330.895 55.7008 339.895 77.9008 339.995 78.0008L346.695 79.4008L350.195 79.0008C349.895 78.2008 338.295 51.4008 321.995 43.3008C314.795 43.8008 307.695 45.7008 301.195 48.6008Z" fill="url(#colorOne)"/>
<path d="M306 95.2012C308.3 98.5012 309.8 102.401 310.5 106.401C310.7 107.401 310.8 108.401 311 109.301C311.1 109.901 311.3 110.401 311.6 110.901C313.1 112.301 316.1 109.301 317.3 108.301C316.7 109.101 316 109.801 315.2 110.501C314.1 111.501 312 112.701 310.9 111.001C310.1 109.601 310.1 108.001 309.8 106.501C309.1 102.501 307.8 98.8012 306 95.2012Z" fill="black"/>
<path d="M290.295 102.101C290.695 102.201 291.695 100.001 294.095 98.7007C296.495 97.3007 298.895 97.6007 298.995 97.1007C299.095 96.9007 298.495 96.5007 297.395 96.4007C296.295 96.3007 294.795 96.5007 293.295 97.3007C291.795 98.1007 290.895 99.4007 290.495 100.401C290.095 101.301 290.095 102.001 290.295 102.101Z" fill="black"/>
<path d="M312.901 90.0998C313.301 90.2998 314.601 88.1998 317.101 87.1998C319.601 86.0998 322.001 86.6998 322.201 86.1998C322.301 85.9998 321.801 85.5998 320.701 85.2998C319.701 84.9998 318.101 84.9998 316.501 85.6998C314.901 86.3998 313.801 87.4998 313.301 88.3998C312.701 89.3998 312.701 90.0998 312.901 90.0998Z" fill="black"/>
<path d="M270.102 301.401H380.302C377.602 295.301 374.502 289.901 375.302 289.901L389.002 218.101C388.402 214.201 377.702 195.001 376.802 191.001C372.902 175.501 380.702 165.001 384.202 162.801C399.402 153.301 401.702 164.301 405.802 161.901C396.702 156.301 390.602 154.301 378.302 150.901C364.602 146.801 350.702 150.801 350.702 150.801C329.302 150.501 331.402 145.701 320.002 146.201C316.902 146.301 306.202 148.701 301.302 150.401C296.402 152.201 298.502 165.201 292.102 179.401C289.202 185.801 284.302 196.001 281.202 205.501C280.302 208.101 277.902 220.801 283.302 231.601C283.402 232.101 275.002 276.401 270.102 301.401Z" fill="url(#colorOne)"/>
<mask id="mask0_5761_15223" style="mask-type:luminance" maskUnits="userSpaceOnUse" x="269" y="145" width="136" height="157">
<path d="M269.102 301.5H379.302C376.602 295.4 373.502 290 374.302 290L388.002 218.2C387.402 214.3 376.702 195.1 375.802 191.1C371.902 175.6 379.702 165.1 383.202 162.9C398.402 153.4 400.702 164.4 404.802 162C395.702 156.4 389.602 154.4 377.302 151C363.602 146.9 355.502 146.2 355.502 146.2C334.102 145.9 332.902 144.7 321.402 145.3C318.302 145.4 305.202 148.8 300.202 150.6C295.202 152.4 297.402 165.4 291.002 179.6C288.102 186 283.202 196.2 280.102 205.7C279.202 208.3 276.802 221 282.202 231.8C282.402 232.3 273.902 276.6 269.102 301.5Z" fill="white"/>
</mask>
<g mask="url(#mask0_5761_15223)">
<g opacity="0.54">
<path d="M319.197 169.7C318.697 170.5 317.497 170.4 317.197 169.5C315.997 165.4 314.197 157.1 319.797 157.7C325.297 158.2 321.497 165.9 319.197 169.7ZM303.497 166.7C301.097 171.8 309.597 172.4 313.997 172.4C314.997 172.4 315.497 171.3 314.897 170.6C311.997 167.5 305.897 161.7 303.497 166.7ZM306.697 184.7C310.797 188.4 314.297 180.5 315.697 176.4C315.997 175.5 315.097 174.7 314.197 175.1C310.297 176.9 302.597 181 306.697 184.7ZM324.997 186.7C329.897 183.9 323.497 178.4 320.097 175.8C319.297 175.2 318.197 175.9 318.297 176.8C318.697 181.1 320.097 189.5 324.997 186.7ZM333.097 170C332.097 164.6 324.597 169.1 321.097 171.6C320.297 172.2 320.497 173.4 321.497 173.6C325.597 174.3 334.097 175.4 333.097 170ZM335.797 201.1C330.397 202.5 334.997 209.6 337.597 213C338.197 213.7 339.397 213.4 339.597 212.5C340.297 208.1 341.197 199.6 335.797 201.1ZM323.597 215.2C323.097 220.8 331.397 218.3 335.497 216.8C336.397 216.5 336.497 215.2 335.697 214.8C331.897 212.9 324.097 209.7 323.597 215.2ZM332.997 230.7C338.197 232.7 338.697 224.2 338.597 219.9C338.597 218.9 337.397 218.5 336.697 219.2C333.597 222.2 327.897 228.7 332.997 230.7ZM350.997 226.1C354.697 221.8 346.697 218.9 342.497 217.8C341.597 217.5 340.797 218.5 341.197 219.4C343.097 223.2 347.397 230.4 350.997 226.1ZM352.697 207.8C349.797 203.1 344.397 209.9 341.897 213.5C341.297 214.3 341.997 215.3 342.897 215.2C347.197 214.5 355.597 212.5 352.697 207.8ZM311.197 213.8C306.197 211.4 304.997 219.9 304.697 224.2C304.597 225.2 305.697 225.7 306.497 225.1C309.897 222.3 316.097 216.2 311.197 213.8ZM292.897 216.9C288.897 220.9 296.597 224.4 300.597 225.9C301.497 226.2 302.397 225.3 301.997 224.5C300.497 220.5 296.897 212.9 292.897 216.9ZM289.697 235.1C292.197 240 298.197 233.7 300.897 230.3C301.497 229.6 300.997 228.5 299.997 228.5C295.697 228.9 287.197 230.2 289.697 235.1ZM305.997 243.2C311.497 242.2 307.497 234.8 305.197 231.2C304.697 230.4 303.497 230.6 303.197 231.6C302.097 235.8 300.397 244.2 305.997 243.2ZM319.297 230.1C320.197 224.6 311.797 226.3 307.597 227.5C306.697 227.8 306.497 229 307.297 229.5C310.797 231.7 318.297 235.6 319.297 230.1ZM366.797 171.2C361.997 168.5 360.197 176.9 359.697 181.1C359.597 182 360.597 182.7 361.397 182.1C364.897 179.6 371.597 174 366.797 171.2ZM348.397 173.1C344.197 176.9 351.597 180.9 355.497 182.6C356.397 183 357.297 182.1 356.997 181.2C355.697 177.2 352.597 169.4 348.397 173.1ZM343.997 191.1C346.197 196.2 352.497 190.3 355.497 187C356.197 186.3 355.697 185.2 354.697 185.2C350.397 185.3 341.797 186 343.997 191.1ZM359.597 200.3C365.197 199.7 361.697 192 359.597 188.3C359.097 187.5 357.897 187.6 357.597 188.5C356.197 192.6 353.997 200.9 359.597 200.3ZM373.697 188C374.997 182.5 366.497 183.7 362.197 184.6C361.297 184.8 360.997 186 361.697 186.6C365.197 189.1 372.397 193.5 373.697 188ZM342.397 142.2C338.497 143.1 341.597 148.2 343.297 150.7C343.697 151.2 344.597 151.1 344.697 150.4C345.397 147.3 346.297 141.3 342.397 142.2ZM333.297 151.9C332.797 155.9 338.797 154.4 341.797 153.4C342.497 153.2 342.597 152.3 341.997 152C339.297 150.5 333.797 147.9 333.297 151.9ZM339.597 163.3C343.197 164.9 343.797 158.8 343.897 155.7C343.897 155 343.097 154.7 342.597 155.1C340.197 157.2 335.897 161.7 339.597 163.3ZM352.497 160.5C355.197 157.5 349.597 155.2 346.697 154.3C346.097 154.1 345.397 154.8 345.697 155.4C346.997 158.2 349.797 163.5 352.497 160.5ZM354.297 147.5C352.397 144.1 348.297 148.8 346.397 151.3C345.997 151.9 346.397 152.6 347.097 152.5C350.197 152.1 356.197 150.9 354.297 147.5ZM373.897 204C369.997 203.3 370.797 209.4 371.497 212.3C371.597 213 372.497 213.1 372.897 212.5C374.697 210 377.797 204.6 373.897 204ZM361.797 209.7C359.797 213.2 365.897 214.1 368.997 214.3C369.697 214.3 370.097 213.6 369.697 213C367.797 210.7 363.797 206.2 361.797 209.7ZM363.297 222.7C365.997 225.5 368.897 220.1 370.097 217.2C370.397 216.6 369.797 215.9 369.097 216.2C366.197 217.3 360.497 219.9 363.297 222.7ZM376.197 225C379.797 223.2 375.597 219 373.297 217C372.797 216.6 371.997 217 371.997 217.6C371.997 220.7 372.497 226.8 376.197 225ZM382.697 213.4C382.197 209.5 376.697 212.3 373.997 214C373.397 214.4 373.497 215.2 374.197 215.4C377.197 216.2 383.197 217.4 382.697 213.4ZM286.697 184.4C283.097 186.3 287.597 190.4 289.997 192.2C290.497 192.6 291.297 192.2 291.297 191.5C291.097 188.5 290.197 182.5 286.697 184.4ZM280.597 196.3C281.197 200.2 286.597 197.1 289.197 195.3C289.797 194.9 289.597 194 288.997 193.9C285.997 193.2 279.997 192.4 280.597 196.3ZM289.897 205.3C293.897 205.8 292.697 199.8 291.897 196.9C291.697 196.2 290.797 196.1 290.497 196.7C288.897 199.3 285.997 204.8 289.897 205.3ZM301.697 199C303.497 195.4 297.397 194.8 294.297 194.7C293.597 194.7 293.197 195.5 293.697 196C295.697 198.3 299.897 202.6 301.697 199ZM299.697 186.1C296.897 183.4 294.197 189 293.097 191.9C292.897 192.5 293.497 193.1 294.097 192.9C296.997 191.6 302.497 188.8 299.697 186.1ZM344.797 233.2C341.197 235.1 345.697 239.2 348.097 241C348.597 241.4 349.397 241 349.397 240.3C349.197 237.3 348.297 231.3 344.797 233.2ZM338.797 245C339.397 248.9 344.797 245.8 347.397 244C347.997 243.6 347.797 242.7 347.197 242.6C344.097 242 338.097 241.1 338.797 245ZM347.997 254.1C351.997 254.6 350.797 248.6 349.997 245.7C349.797 245 348.897 244.9 348.597 245.5C346.997 248.1 344.097 253.6 347.997 254.1ZM359.797 247.8C361.597 244.2 355.497 243.6 352.397 243.5C351.697 243.5 351.297 244.3 351.797 244.8C353.797 247.1 357.997 251.4 359.797 247.8ZM357.797 234.9C354.997 232.2 352.297 237.8 351.197 240.7C350.997 241.3 351.597 241.9 352.197 241.7C355.097 240.4 360.597 237.6 357.797 234.9ZM320.997 194.5C318.897 193.6 318.497 197.2 318.397 199C318.397 199.4 318.897 199.6 319.197 199.3C320.597 198.1 323.197 195.4 320.997 194.5ZM313.297 196C311.697 197.8 314.997 199.1 316.697 199.7C317.097 199.8 317.397 199.4 317.297 199.1C316.597 197.5 314.997 194.3 313.297 196ZM312.197 203.8C313.297 205.8 315.797 203.1 316.897 201.6C317.097 201.3 316.897 200.8 316.497 200.9C314.697 201 311.097 201.7 312.197 203.8ZM319.297 206.9C321.597 206.4 319.797 203.3 318.797 201.9C318.597 201.6 318.097 201.7 317.997 202.1C317.497 203.9 316.897 207.4 319.297 206.9ZM324.697 201.2C324.997 198.9 321.497 199.7 319.697 200.3C319.297 200.4 319.197 200.9 319.597 201.1C321.097 202 324.397 203.5 324.697 201.2ZM321.097 138.8C318.997 137.9 318.597 141.5 318.497 143.3C318.497 143.7 318.997 143.9 319.297 143.6C320.597 142.4 323.197 139.7 321.097 138.8ZM313.397 140.3C311.797 142.1 315.097 143.4 316.797 144C317.197 144.1 317.497 143.7 317.397 143.4C316.697 141.8 314.997 138.6 313.397 140.3ZM312.297 148.1C313.397 150.1 315.897 147.4 316.997 145.9C317.197 145.6 316.997 145.1 316.597 145.2C314.697 145.3 311.197 146 312.297 148.1ZM319.297 151.2C321.597 150.7 319.797 147.6 318.797 146.2C318.597 145.9 318.097 146 317.997 146.4C317.497 148.2 316.997 151.7 319.297 151.2ZM324.697 145.5C324.997 143.2 321.497 144 319.697 144.6C319.297 144.7 319.197 145.2 319.597 145.4C321.197 146.3 324.397 147.9 324.697 145.5Z" fill="url(#colorTwo)"/>
</g>
<g opacity="0.54">
<path d="M390.295 141.8C385.295 139.4 384.095 147.9 383.795 152.2C383.695 153.2 384.795 153.7 385.595 153.1C388.995 150.2 395.195 144.2 390.295 141.8ZM371.995 144.9C367.995 148.9 375.695 152.4 379.695 153.9C380.595 154.2 381.495 153.3 381.095 152.5C379.595 148.5 375.995 140.9 371.995 144.9ZM368.795 163.1C371.295 168 377.295 161.7 379.995 158.3C380.595 157.6 380.095 156.5 379.095 156.5C374.795 156.8 366.295 158.2 368.795 163.1ZM385.095 171.2C390.595 170.2 386.595 162.8 384.295 159.2C383.795 158.4 382.595 158.6 382.295 159.6C381.195 163.7 379.495 172.2 385.095 171.2ZM398.295 158C399.195 152.5 390.795 154.2 386.595 155.4C385.695 155.7 385.495 156.9 386.295 157.4C389.895 159.6 397.395 163.5 398.295 158Z" fill="url(#colorTwo)"/>
</g>
<g opacity="0.54">
<path d="M328.1 242.4C326 241.5 325.6 245.1 325.5 246.9C325.5 247.3 326 247.5 326.3 247.2C327.7 246 330.3 243.4 328.1 242.4Z" fill="url(#colorTwo)"/>
</g>
<g opacity="0.54">
<path d="M320.403 244C318.803 245.8 322.103 247.1 323.803 247.7C324.203 247.8 324.503 247.4 324.403 247.1C323.703 245.4 322.103 242.2 320.403 244Z" fill="url(#colorTwo)"/>
</g>
<g opacity="0.54">
<path d="M319.299 251.7C320.399 253.7 322.899 251 323.999 249.5C324.199 249.2 323.999 248.7 323.599 248.8C321.799 249 318.199 249.7 319.299 251.7Z" fill="url(#colorTwo)"/>
</g>
<g opacity="0.54">
<path d="M326.403 254.899C328.703 254.399 326.903 251.299 325.903 249.899C325.703 249.599 325.203 249.699 325.103 250.099C324.603 251.799 324.003 255.399 326.403 254.899Z" fill="url(#colorTwo)"/>
</g>
<g opacity="0.54">
<path d="M331.8 249.2C332.1 246.9 328.6 247.7 326.8 248.3C326.4 248.4 326.3 248.9 326.7 249.1C328.2 250 331.5 251.5 331.8 249.2Z" fill="url(#colorTwo)"/>
</g>
<g opacity="0.54">
<path d="M285.299 280.899C284.799 281.699 283.599 281.6 283.299 280.7C282.099 276.6 280.299 268.299 285.899 268.899C291.499 269.499 287.599 277.099 285.299 280.899ZM269.599 277.999C267.199 283.099 275.699 283.7 280.099 283.7C281.099 283.7 281.599 282.599 280.999 281.899C278.099 278.699 271.999 272.899 269.599 277.999ZM272.799 295.899C276.899 299.599 280.399 291.699 281.799 287.599C282.099 286.699 281.199 285.899 280.299 286.299C276.399 288.099 268.799 292.199 272.799 295.899ZM291.099 297.899C295.999 295.099 289.599 289.599 286.199 286.999C285.399 286.399 284.299 287.099 284.399 287.999C284.799 292.299 286.199 300.699 291.099 297.899ZM299.199 281.2C298.199 275.8 290.699 280.299 287.199 282.799C286.399 283.399 286.599 284.599 287.599 284.799C291.699 285.599 300.199 286.6 299.199 281.2ZM332.899 282.499C328.099 279.799 326.299 288.199 325.799 292.399C325.699 293.299 326.699 293.999 327.499 293.399C330.999 290.799 337.699 285.199 332.899 282.499ZM314.499 284.399C310.299 288.199 317.699 292.199 321.599 293.899C322.499 294.299 323.399 293.399 323.099 292.499C321.799 288.499 318.699 280.599 314.499 284.399ZM310.099 302.299C312.299 307.399 318.599 301.5 321.599 298.2C322.299 297.5 321.799 296.399 320.799 296.399C316.499 296.499 307.899 297.199 310.099 302.299ZM325.699 311.499C331.299 310.899 327.799 303.199 325.699 299.499C325.199 298.699 323.999 298.8 323.699 299.7C322.299 303.8 320.099 312.099 325.699 311.499ZM339.799 299.2C341.099 293.7 332.599 294.899 328.299 295.799C327.399 295.999 327.099 297.199 327.799 297.799C331.299 300.299 338.499 304.7 339.799 299.2ZM308.499 253.399C304.599 254.299 307.699 259.399 309.399 261.899C309.799 262.399 310.699 262.3 310.799 261.6C311.499 258.6 312.399 252.499 308.499 253.399ZM299.399 263.1C298.899 267.1 304.899 265.6 307.899 264.6C308.599 264.4 308.699 263.5 308.099 263.2C305.399 261.7 299.899 259.2 299.399 263.1ZM305.699 274.499C309.299 276.099 309.899 269.999 309.999 266.899C309.999 266.199 309.199 265.899 308.699 266.299C306.399 268.399 301.999 272.899 305.699 274.499ZM318.599 271.7C321.299 268.7 315.699 266.399 312.799 265.499C312.199 265.299 311.499 266 311.799 266.6C313.099 269.4 315.899 274.7 318.599 271.7ZM320.399 258.7C318.499 255.3 314.399 259.999 312.499 262.499C312.099 263.099 312.499 263.8 313.199 263.7C316.299 263.3 322.299 262.1 320.399 258.7ZM287.199 249.999C285.099 249.099 284.699 252.699 284.599 254.499C284.599 254.899 285.099 255.099 285.399 254.799C286.699 253.599 289.299 250.899 287.199 249.999ZM279.499 251.6C277.899 253.4 281.199 254.699 282.899 255.299C283.299 255.399 283.599 254.999 283.499 254.699C282.799 252.999 281.099 249.8 279.499 251.6ZM278.399 259.299C279.499 261.299 281.999 258.6 283.099 257.1C283.299 256.8 283.099 256.299 282.699 256.399C280.899 256.599 277.299 257.199 278.399 259.299ZM285.399 262.499C287.699 261.999 285.899 258.899 284.899 257.499C284.699 257.199 284.199 257.3 284.099 257.7C283.599 259.4 283.099 262.999 285.399 262.499ZM290.799 256.7C291.099 254.4 287.599 255.199 285.799 255.799C285.399 255.899 285.299 256.4 285.699 256.6C287.299 257.5 290.499 259.1 290.799 256.7Z" fill="url(#colorTwo)"/>
</g>
<g opacity="0.54">
<path d="M333.101 273.301C333.501 275.601 336.701 273.901 338.301 272.901C338.601 272.701 338.501 272.201 338.201 272.101C336.301 271.701 332.701 271.001 333.101 273.301Z" fill="url(#colorTwo)"/>
</g>
<g opacity="0.54">
<path d="M338.698 278.802C341.098 279.202 340.298 275.602 339.798 273.902C339.698 273.502 339.198 273.402 338.898 273.802C337.998 275.302 336.298 278.402 338.698 278.802Z" fill="url(#colorTwo)"/>
</g>
<g opacity="0.54">
<path d="M345.699 275.403C346.699 273.303 343.099 272.903 341.299 272.803C340.899 272.803 340.699 273.203 340.899 273.503C342.099 274.803 344.599 277.403 345.699 275.403Z" fill="url(#colorTwo)"/>
</g>
<g opacity="0.54">
<path d="M344.404 267.803C342.704 266.203 341.204 269.403 340.504 271.103C340.404 271.503 340.704 271.803 341.104 271.703C342.804 271.003 346.104 269.403 344.404 267.803Z" fill="url(#colorTwo)"/>
</g>
<g opacity="0.54">
<path d="M336.6 266.502C334.5 267.602 337.2 270.002 338.6 271.202C338.9 271.502 339.4 271.202 339.4 270.802C339.2 269.002 338.7 265.402 336.6 266.502Z" fill="url(#colorTwo)"/>
</g>
<g opacity="0.54">
<path d="M363.503 246.902C363.903 252.402 371.903 249.102 375.703 247.202C376.603 246.802 376.503 245.502 375.503 245.202C371.503 243.702 363.103 241.402 363.503 246.902ZM375.403 261.002C380.903 262.402 380.003 254.002 379.303 249.802C379.103 248.902 377.903 248.602 377.303 249.302C374.703 252.602 369.903 259.602 375.403 261.002ZM392.703 254.602C395.703 250.002 387.203 248.002 382.903 247.402C381.903 247.302 381.303 248.302 381.803 249.102C384.303 252.502 389.803 259.202 392.703 254.602ZM391.503 236.402C387.803 232.102 383.503 239.402 381.503 243.202C381.103 244.002 381.903 245.002 382.803 244.702C387.103 243.602 395.203 240.702 391.503 236.402ZM373.503 231.702C368.303 233.702 374.003 240.102 377.203 243.102C377.903 243.802 379.103 243.302 379.103 242.402C379.103 238.102 378.703 229.702 373.503 231.702ZM353.203 283.402C356.103 286.202 358.703 280.702 359.703 277.802C359.903 277.202 359.303 276.602 358.603 276.802C355.803 277.902 350.203 280.602 353.203 283.402ZM366.403 285.402C370.003 283.602 365.403 279.502 362.903 277.502C362.403 277.102 361.603 277.502 361.603 278.202C361.803 281.202 362.803 287.202 366.403 285.402ZM372.203 273.802C371.503 269.902 366.103 272.802 363.503 274.502C362.903 274.902 363.103 275.702 363.803 275.902C366.803 276.702 373.003 277.702 372.203 273.802ZM362.703 264.702C358.703 264.102 360.003 270.002 360.803 273.002C361.003 273.702 361.903 273.802 362.203 273.202C363.803 270.602 366.703 265.202 362.703 264.702ZM350.903 270.502C349.203 274.002 355.303 274.802 358.403 274.902C359.103 274.902 359.503 274.102 359.003 273.602C357.003 271.402 352.603 267.002 350.903 270.502ZM386.603 222.602C388.303 226.202 392.703 222.102 394.803 219.902C395.303 219.402 394.903 218.602 394.203 218.602C391.103 218.502 384.903 219.002 386.603 222.602ZM398.103 229.302C402.103 228.902 399.403 223.402 397.903 220.802C397.603 220.202 396.703 220.302 396.503 220.902C395.503 223.802 394.103 229.602 398.103 229.302ZM408.003 220.802C408.803 217.002 402.703 217.702 399.603 218.202C398.903 218.302 398.703 219.202 399.303 219.602C401.903 221.402 407.203 224.602 408.003 220.802ZM402.703 208.802C399.203 206.802 398.103 212.702 397.703 215.702C397.603 216.402 398.403 216.802 399.003 216.402C401.503 214.702 406.203 210.902 402.703 208.802ZM389.403 209.902C386.403 212.502 391.903 215.502 394.703 216.702C395.303 217.002 396.003 216.402 395.803 215.802C394.803 212.902 392.403 207.302 389.403 209.902ZM362.403 302.902C362.803 305.202 366.003 303.502 367.603 302.502C367.903 302.302 367.803 301.802 367.503 301.702C365.603 301.202 362.003 300.602 362.403 302.902ZM368.003 308.402C370.403 308.802 369.603 305.202 369.103 303.502C369.003 303.102 368.503 303.002 368.203 303.402C367.303 304.902 365.603 308.002 368.003 308.402ZM375.003 304.902C376.003 302.802 372.403 302.402 370.603 302.302C370.203 302.302 370.003 302.702 370.203 303.002C371.403 304.402 374.003 307.002 375.003 304.902ZM373.703 297.402C372.003 295.802 370.503 299.002 369.803 300.702C369.703 301.102 370.003 301.402 370.403 301.302C372.103 300.502 375.403 299.002 373.703 297.402ZM365.903 296.102C363.803 297.202 366.503 299.602 367.903 300.802C368.203 301.102 368.703 300.802 368.703 300.402C368.603 298.602 368.003 295.002 365.903 296.102Z" fill="url(#colorTwo)"/>
</g>
</g>
<path d="M362.697 302H285.797V285.4H362.697C364.897 285.4 366.697 287.2 366.697 289.4V298C366.697 300.2 364.897 302 362.697 302Z" fill="black"/>
<path d="M294.397 302H204.297C200.797 302 197.697 299.8 196.797 296.5L174.697 221.7C173.297 216.9 176.997 212 182.197 212H267.197C270.897 212 273.997 214.5 274.797 217.9L294.397 302Z" fill="black"/>
<path d="M224.695 246.4C227.181 246.4 229.195 244.386 229.195 241.9C229.195 239.415 227.181 237.4 224.695 237.4C222.21 237.4 220.195 239.415 220.195 241.9C220.195 244.386 222.21 246.4 224.695 246.4Z" fill="white"/>
<path d="M371.297 301.401H403.197C407.897 270.001 417.697 202.501 417.397 187.901C417.097 173.901 406.497 162.801 402.897 160.701C399.597 158.701 396.597 158.501 394.397 158.601C380.297 159.301 363.197 185.301 380.397 211.101L371.297 301.401Z" fill="white"/>
<path d="M371.397 301.3C380.397 301.2 394.297 301 403.197 300.9L402.697 301.3L410.397 247.1C412.797 230.2 415.397 213.2 416.797 196.2C416.997 192.8 417.297 189.4 416.997 186C416.397 179.2 413.297 172.8 409.197 167.5C404.797 161.8 399.697 157.8 392.197 159.5C387.897 160.6 384.197 163.5 381.397 166.9C375.297 174.3 372.897 184.3 374.297 193.7C375.197 199.8 377.697 205.6 381.097 210.8L381.197 211V211.3C378.197 240.3 374.597 272.1 371.397 301.3ZM371.297 301.4C373.197 280.4 375.497 254.7 377.497 233.7C378.197 226.1 378.997 218.6 379.697 211L379.797 211.5C378.597 209.6 377.297 207.5 376.397 205.4C375.097 202.7 374.097 199.7 373.397 196.8C373.297 196.4 373.197 195.9 373.197 195.5C372.997 194.5 372.797 193.1 372.697 192C371.597 180.5 376.097 168.1 385.597 161.2C390.597 157.6 396.697 156.7 402.297 159.7C405.397 161.4 407.697 164.2 409.797 166.9C414.297 172.8 417.397 180 417.597 187.5C417.597 192.6 417.097 197.8 416.597 202.9C414.197 226.7 411.297 250.6 407.797 274.3C406.497 282.9 404.997 293.2 403.597 301.8C394.497 301.8 380.497 301.5 371.297 301.4Z" fill="black"/>
<path d="M319.898 144C320.198 146.1 320.798 152.3 320.998 152.8C322.798 160.2 328.698 164.9 343.098 164.3C354.998 163.8 366.198 151 366.098 150L361.198 136.9C357.398 139.5 348.498 143.3 337.498 145C331.598 146.1 322.998 145.5 319.898 144Z" fill="url(#colorOne)"/>
<path d="M319.898 144C320.798 148.5 322.098 152.9 324.298 156.8C325.498 158.6 328.598 158.6 330.698 158.6C335.298 158.4 339.998 157.4 344.498 156.2C351.298 154.4 357.998 152.1 364.598 149.5C358.298 152.9 351.698 155.5 344.798 157.5C340.198 158.8 335.498 159.8 330.698 159.9C328.298 159.8 325.298 159.8 323.598 157.7C322.898 156.7 322.498 155.5 321.998 154.4C320.798 151.1 320.098 147.6 319.898 144Z" fill="black"/>
<path d="M142.7 89.9H137.6C125.6 89.9 116 80.2 116 68.3V65.1C116 53.1 125.7 43.5 137.6 43.5H142.7C154.7 43.5 164.3 53.2 164.3 65.1V68.3C164.3 80.2 154.6 89.9 142.7 89.9Z" fill="white" stroke="black" stroke-width="8.1569" stroke-miterlimit="10" stroke-linecap="round"/>
<path d="M136.901 85.1002L121.701 74.2002C120.501 73.4002 120.201 71.7002 121.101 70.5002C121.901 69.3002 123.601 69.0002 124.801 69.9002L135.501 77.6002L155.101 47.3002C155.901 46.1002 157.501 45.7002 158.701 46.5002C159.901 47.3002 160.301 48.9002 159.501 50.1002L136.901 85.1002Z" fill="url(#colorOne)"/>
<script type="text/ecmascript" xlink:href="https://www.argentina.gob.ar/profiles/argentinagobar/themes/contrib/poncho/js/w3c/ref2.js"></script></svg>
