<svg width="640" height="360" viewBox="0 0 640 360" fill="none" 
xmlns="http://www.w3.org/2000/svg" 
xmlns:xlink="http://www.w3.org/1999/xlink">
<defs>
<ref id="colorOne" param="c1" default="#242C4F" />
<ref id="colorTwo" param="c2" default="#9296A7"/>
</defs>
<path d="M102.336 201.996C109.636 201.802 110.828 195.284 110.5 192H139.5C136.5 205.5 142.5 204 149 205.5C151.8 206.3 155.5 208.167 157 209C127.4 214.604 101.333 209.001 92 205.5L102.336 201.996C102.225 201.999 102.113 202 102 202C94.3998 202 99.0574 201.997 102.336 201.996Z" fill="white"/>
<path d="M518 208V182.892C501.852 197.858 489.938 184.533 486 176L487.477 205.046C498.898 203.865 512.585 206.523 518 208Z" fill="white"/>
<path d="M471.566 14.5469H150.668V268.216H471.566V14.5469Z" fill="white"/>
<path d="M471.344 268.683C471.344 266.914 471.254 167.796 471.123 14.7986L471.344 15.0107C379.59 15.0239 269.375 15.0372 150.959 15.0504H150.931L151.194 14.7986C151.18 106.708 151.173 193.437 151.166 268.683L150.931 268.458C341.666 268.591 469.295 268.683 471.344 268.683C469.295 268.683 341.666 268.776 150.931 268.909H150.696V268.683C150.689 193.437 150.675 106.708 150.668 14.7986V14.5469H150.959C269.375 14.5601 379.59 14.5734 471.344 14.5866H471.566V14.7986C471.434 167.796 471.344 266.914 471.344 268.683Z" fill="black"/>
<path d="M472.596 20.0893H149.646C144.854 20.0893 140.969 17.8872 140.969 15.1708V13.9186C140.969 11.2022 144.854 9 149.646 9H472.596C477.388 9 481.273 11.2022 481.273 13.9186V15.1708C481.273 17.8872 477.388 20.0893 472.596 20.0893Z" fill="black"/>
<path d="M317.096 166.998C317.096 167.074 287.342 167.137 250.643 167.137C213.945 167.137 184.184 167.074 184.184 166.998C184.184 166.922 213.931 166.859 250.643 166.859C287.356 166.859 317.096 166.922 317.096 166.998Z" fill="url(#colorTwo)"/>
<path d="M317.096 181.678C317.096 181.754 287.342 181.816 250.643 181.816C213.945 181.816 184.184 181.754 184.184 181.678C184.184 181.601 213.931 181.539 250.643 181.539C287.356 181.539 317.096 181.601 317.096 181.678Z" fill="url(#colorTwo)"/>
<path d="M317.096 196.357C317.096 196.434 287.342 196.496 250.643 196.496C213.945 196.496 184.184 196.434 184.184 196.357C184.184 196.281 213.931 196.219 250.643 196.219C287.356 196.219 317.096 196.281 317.096 196.357Z" fill="url(#colorTwo)"/>
<path d="M317.096 211.037C317.096 211.113 287.342 211.176 250.643 211.176C213.945 211.176 184.184 211.113 184.184 211.037C184.184 210.961 213.931 210.898 250.643 210.898C287.356 210.898 317.096 210.961 317.096 211.037Z" fill="url(#colorTwo)"/>
<path d="M317.096 225.709C317.096 225.785 287.342 225.848 250.643 225.848C213.945 225.848 184.184 225.785 184.184 225.709C184.184 225.633 213.931 225.57 250.643 225.57C287.356 225.57 317.096 225.633 317.096 225.709Z" fill="url(#colorTwo)"/>
<path d="M209.335 220.297H196.09V240.251H209.335V220.297Z" fill="url(#colorOne)"/>
<path d="M231.249 214.336H218.004V240.25H231.249V214.336Z" fill="url(#colorOne)"/>
<path d="M253.94 206.797H240.695V240.245H253.94V206.797Z" fill="url(#colorOne)"/>
<path d="M318.308 240.269C318.308 240.269 318.1 240.276 317.698 240.283C317.289 240.283 316.693 240.289 315.91 240.296C314.33 240.296 312.015 240.31 309.035 240.317C303.06 240.324 294.425 240.338 283.758 240.352C262.411 240.359 232.927 240.373 200.366 240.387C194.718 240.387 189.166 240.387 183.885 240.387H183.746V240.269C183.767 215.567 183.781 193.742 183.795 178.085C183.808 170.26 183.822 163.981 183.836 159.656C183.85 157.501 183.857 155.823 183.857 154.687C183.857 154.125 183.864 153.696 183.871 153.398C183.871 153.106 183.885 152.961 183.885 152.961C183.885 152.961 183.892 153.106 183.899 153.398C183.899 153.689 183.899 154.118 183.912 154.687C183.912 155.823 183.926 157.494 183.933 159.656C183.94 163.988 183.954 170.267 183.975 178.085C183.989 193.742 184.003 215.567 184.016 240.269L183.885 240.151C189.166 240.151 194.718 240.151 200.366 240.151C232.927 240.165 262.411 240.179 283.758 240.186C294.425 240.199 303.06 240.213 309.035 240.22C312.015 240.227 314.33 240.241 315.91 240.241C316.693 240.241 317.289 240.248 317.698 240.255C318.1 240.255 318.308 240.269 318.308 240.269Z" fill="black"/>
<path d="M190.461 174.42C190.461 174.496 188.992 174.558 187.176 174.558C185.36 174.558 183.891 174.496 183.891 174.42C183.891 174.344 185.36 174.281 187.176 174.281C188.992 174.281 190.461 174.344 190.461 174.42Z" fill="black"/>
<path d="M190.461 188.381C190.461 188.457 188.992 188.519 187.176 188.519C185.36 188.519 183.891 188.457 183.891 188.381C183.891 188.305 185.36 188.242 187.176 188.242C188.992 188.242 190.461 188.305 190.461 188.381Z" fill="black"/>
<path d="M190.461 202.342C190.461 202.418 188.992 202.48 187.176 202.48C185.36 202.48 183.891 202.418 183.891 202.342C183.891 202.266 185.36 202.203 187.176 202.203C188.992 202.203 190.461 202.266 190.461 202.342Z" fill="black"/>
<path d="M190.461 216.303C190.461 216.379 188.992 216.441 187.176 216.441C185.36 216.441 183.891 216.379 183.891 216.303C183.891 216.226 185.36 216.164 187.176 216.164C188.992 216.164 190.461 216.226 190.461 216.303Z" fill="black"/>
<path d="M367.93 57.0422H269.353C266.712 57.0422 264.57 54.9006 264.57 52.2599V51.0401C264.57 48.3994 266.712 46.2578 269.353 46.2578H367.93C370.571 46.2578 372.712 48.3994 372.712 51.0401V52.2599C372.712 54.9006 370.571 57.0422 367.93 57.0422Z" fill="url(#colorTwo)"/>
<g opacity="0.41">
<mask id="mask0_8621_17755" style="mask-type:luminance" maskUnits="userSpaceOnUse" x="389" y="67" width="69" height="68">
<path d="M457.23 67.375H389.605V134.999H457.23V67.375Z" fill="white"/>
</mask>
<g mask="url(#mask0_8621_17755)">
<path d="M423.414 67.375C404.742 67.375 389.605 82.5119 389.605 101.184C389.605 119.855 404.742 134.992 423.414 134.992C442.086 134.992 457.223 119.855 457.223 101.184C457.223 82.5119 442.086 67.375 423.414 67.375ZM423.927 121.449C412.456 121.449 403.155 112.148 403.155 100.678C403.155 89.2071 412.456 79.9059 423.927 79.9059C435.398 79.9059 444.699 89.2071 444.699 100.678C444.699 112.148 435.398 121.449 423.927 121.449Z" fill="url(#colorTwo)"/>
<path d="M423.93 67.3906C423.93 70.9877 423.93 75.8393 423.93 79.9077C435.4 79.9077 444.694 89.2089 444.694 100.679C444.694 102.877 444.355 104.99 443.717 106.98L455.971 110.306C456.782 107.409 457.225 104.353 457.225 101.192C457.225 82.6939 442.366 67.6679 423.93 67.3906Z" fill="url(#colorOne)"/>
<path d="M403.155 100.679C403.155 92.2238 408.215 84.9533 415.464 81.7097L410.266 70.0312C398.123 75.1601 389.605 87.1781 389.605 101.192C389.605 101.671 389.619 102.142 389.64 102.613H403.245C403.19 101.975 403.155 101.338 403.155 100.686" fill="url(#colorTwo)"/>
<path d="M423.927 121.448C422.417 121.448 420.947 121.282 419.533 120.977C419.013 123.992 418.022 129.828 417.246 134.43C419.249 134.797 421.308 134.998 423.415 134.998C438.933 134.998 451.997 124.546 455.976 110.296L443.722 106.977C441.054 115.37 433.201 121.448 423.927 121.448Z" fill="#EE7161"/>
<path d="M423.927 121.448C422.417 121.448 420.947 121.282 419.533 120.977C419.013 123.992 418.022 129.828 417.246 134.43C419.249 134.797 421.308 134.998 423.415 134.998C438.933 134.998 451.997 124.546 455.976 110.296L443.722 106.977C441.054 115.37 433.201 121.448 423.927 121.448Z" fill="url(#colorOne)"/>
</g>
</g>
<path d="M187.422 81.3672H369.682" stroke="url(#colorTwo)" stroke-width="0.59" stroke-miterlimit="10"/>
<path d="M186.68 95.3672H368.933" stroke="url(#colorTwo)" stroke-width="0.59" stroke-miterlimit="10"/>
<path d="M185.93 109.359H368.19" stroke="url(#colorTwo)" stroke-width="0.59" stroke-miterlimit="10"/>
<path d="M187.422 109.359H369.682" stroke="url(#colorTwo)" stroke-width="0.59" stroke-miterlimit="10"/>
<path d="M186.68 123.352H368.933" stroke="url(#colorTwo)" stroke-width="0.59" stroke-miterlimit="10"/>
<path d="M185.93 137.344H368.19" stroke="url(#colorTwo)" stroke-width="0.59" stroke-miterlimit="10"/>
<path d="M279.023 197.609H265.785V240.248H279.023V197.609Z" fill="url(#colorOne)"/>
<path d="M304.039 183.523H290.801V240.245H304.039V183.523Z" fill="url(#colorTwo)"/>
<path d="M414.898 97.7647C414.898 95.3181 416.389 93.7656 418.502 93.7656C420.616 93.7656 422.086 95.2973 422.086 97.7647C422.086 100.232 420.616 101.764 418.502 101.764C416.389 101.764 414.898 100.211 414.898 97.7647ZM420.013 97.7647C420.013 96.2122 419.41 95.4637 418.502 95.4637C417.595 95.4637 416.992 96.233 416.992 97.7647C416.992 99.2964 417.615 100.066 418.502 100.066C419.39 100.066 420.013 99.3172 420.013 97.7647ZM427.145 93.932H429.613L419.708 108.438H417.241L427.145 93.932ZM424.761 104.605C424.761 102.159 426.251 100.606 428.344 100.606C430.437 100.606 431.948 102.159 431.948 104.605C431.948 107.052 430.458 108.605 428.344 108.605C426.23 108.605 424.761 107.052 424.761 104.605ZM429.855 104.605C429.855 103.074 429.252 102.304 428.344 102.304C427.436 102.304 426.833 103.053 426.833 104.605C426.833 106.158 427.457 106.906 428.344 106.906C429.231 106.906 429.855 106.137 429.855 104.605Z" fill="url(#colorTwo)"/>
<path d="M215.944 179.004C217.732 182.525 221.405 178.117 226.777 175.393C232.148 172.669 234.567 168.94 234.006 165.031C233.098 158.69 227.636 163.188 222.265 165.912C216.893 168.635 214.156 175.483 215.944 179.004Z" fill="url(#colorOne)"/>
<path d="M221.094 177.037C218.64 177.037 216.693 176.344 216.173 176.136L216.339 155.856C216.339 155.856 216.055 155.801 216.014 155.787L213.754 150.963C213.726 150.922 212.763 149.459 212.271 147.747C211.647 145.571 211.315 143.769 210.961 141.87C210.684 140.373 210.393 138.82 209.949 137.039C209.665 135.902 209.79 134.981 210.317 134.308C211.315 133.026 213.484 132.992 213.726 132.992H214.357L213.907 132.59C213.907 132.59 213.054 131.827 213.754 129.88C214.461 127.918 216.256 127.883 216.332 127.883H216.755L216.52 127.53C216.492 127.488 215.778 126.366 217.213 124.772C217.712 124.217 218.336 123.933 219.077 123.933C219.999 123.933 220.775 124.376 220.782 124.383L221.246 124.654L220.477 121.597C219.153 116.233 218.918 112.961 219.777 111.859C220.006 111.568 220.311 111.43 220.713 111.43C221.004 111.43 221.357 111.506 221.752 111.658C222.667 112.005 224.559 117.411 226.23 122.179C228.704 129.249 230.291 133.553 231.463 133.629H231.546C233.202 133.629 234.63 130.489 235.926 127.093C236.099 126.643 236.231 126.296 236.3 126.165C236.543 125.7 237.43 124.182 238.47 124.182C238.837 124.182 239.197 124.376 239.551 124.758C241.041 126.366 238.885 135.078 235.101 142.688C234.796 143.312 234.54 143.852 234.311 144.351C233.535 146.035 233.064 147.047 231.691 148.108L231.601 148.177L231.546 158.733L233.32 167.68C233.05 168.325 230.596 173.953 225.786 176.074C224.351 176.704 222.771 177.03 221.094 177.03" fill="white"/>
<path d="M220.699 111.677C220.963 111.677 221.288 111.746 221.656 111.892C222.488 112.232 224.518 118.04 226.001 122.274C228.802 130.273 230.16 133.793 231.435 133.877C231.47 133.877 231.498 133.877 231.532 133.877C233.327 133.877 234.797 130.668 236.12 127.195C236.28 126.772 236.419 126.405 236.481 126.287C236.959 125.386 237.721 124.423 238.449 124.423C238.747 124.423 239.059 124.589 239.364 124.929C240.778 126.447 238.553 135.2 234.88 142.602C234.568 143.226 234.312 143.781 234.09 144.266C233.3 145.971 232.863 146.913 231.532 147.939L231.359 148.071V148.293L231.304 158.737V158.786L231.31 158.834L233.071 167.671C232.704 168.531 230.285 173.854 225.683 175.884C224.276 176.501 222.73 176.82 221.081 176.82C218.856 176.82 217.047 176.238 216.381 175.995L216.548 156.062V155.688L216.187 155.612H216.16L213.949 150.885L213.935 150.857L213.914 150.829C213.914 150.829 212.958 149.381 212.479 147.704C211.863 145.534 211.523 143.739 211.169 141.847C210.892 140.343 210.601 138.791 210.158 137.002C209.894 135.935 209.998 135.083 210.483 134.466C211.412 133.274 213.471 133.239 213.741 133.239L214.94 133.253L214.046 132.442C214.046 132.442 213.318 131.756 213.956 129.974C214.607 128.166 216.257 128.131 216.319 128.131H217.137L216.693 127.431C216.666 127.389 216.056 126.398 217.359 124.95C217.809 124.444 218.384 124.187 219.05 124.187C219.909 124.187 220.637 124.603 220.644 124.603L221.573 125.144L221.309 124.097L220.672 121.567C219.362 116.272 219.112 113.063 219.93 112.024C220.11 111.788 220.353 111.677 220.685 111.677M220.699 111.227C218.78 111.227 218.364 114.047 220.249 121.671L220.893 124.208C220.893 124.208 220.076 123.73 219.078 123.73C218.419 123.73 217.678 123.938 217.047 124.638C215.467 126.391 216.34 127.673 216.34 127.673C216.34 127.673 214.323 127.673 213.547 129.815C212.77 131.957 213.762 132.775 213.762 132.775C213.762 132.775 213.748 132.775 213.727 132.775C213.27 132.775 208.681 132.879 209.735 137.099C210.733 141.105 210.934 143.878 212.064 147.821C212.57 149.596 213.561 151.072 213.561 151.072L215.869 156C215.945 156.014 216.035 156.028 216.118 156.048L215.952 176.293C215.952 176.293 218.163 177.264 221.101 177.264C222.571 177.264 224.227 177.021 225.884 176.293C231.109 173.992 233.556 167.713 233.556 167.713L231.768 158.737L231.823 148.293C233.646 146.886 233.916 145.576 235.296 142.797C238.81 135.713 241.388 126.433 239.704 124.617C239.274 124.153 238.851 123.972 238.456 123.972C237.313 123.972 236.391 125.504 236.086 126.079C235.684 126.849 233.66 133.426 231.532 133.426C231.511 133.426 231.491 133.426 231.463 133.426C229.314 133.287 223.915 112.266 221.815 111.469C221.399 111.31 221.025 111.227 220.699 111.227Z" fill="black"/>
<path d="M299.383 120.074C299.653 116.906 299.84 109.976 299.84 109.976C308.039 105.665 326.995 94.3812 335.111 90.0078L333.871 116.99C328.617 123.241 323.37 129.5 318.117 135.751" fill="white"/>
<path d="M299.383 120.074C299.653 116.906 299.84 109.976 299.84 109.976C308.039 105.665 326.995 94.3812 335.111 90.0078L333.871 116.99C328.617 123.241 323.37 129.5 318.117 135.751" stroke="black" stroke-width="1.08" stroke-miterlimit="10"/>
<path d="M303.733 110.101C299.45 110.101 294.994 108.028 291.819 104.563C289.089 101.59 287.682 98.0065 287.966 94.7351L289.089 63.1582C289.678 56.2898 295.555 50.8906 302.458 50.8906C302.846 50.8906 303.241 50.9045 303.629 50.9391L324.464 52.7342C331.845 53.3719 337.334 59.8938 336.696 67.2751L335.795 77.7615L336.482 77.2001C337.078 76.7149 337.778 76.4585 338.512 76.4585C338.616 76.4585 338.72 76.4585 338.824 76.4724C342.165 76.805 343.787 79.0021 343.641 83.0151C343.426 88.9548 339.42 89.8419 337.057 89.8419C336.197 89.8419 335.525 89.7241 335.199 89.6548L335.144 89.6409L332.448 89.8281L332.42 90.1469C331.789 97.4728 308.509 110.073 303.81 110.094H303.747L303.733 110.101Z" fill="white"/>
<path d="M302.466 51.2702C302.841 51.2702 303.222 51.2841 303.603 51.3187L324.437 53.1138C327.909 53.4118 331.063 55.0475 333.308 57.7159C335.554 60.3843 336.628 63.7665 336.323 67.2458L335.499 76.845L335.346 78.6193L336.725 77.4896C337.252 77.0598 337.869 76.8311 338.52 76.8311C338.611 76.8311 338.701 76.8311 338.791 76.845C341.896 77.15 343.4 79.2223 343.268 82.9996C343.074 88.3432 339.782 89.466 337.058 89.466C336.226 89.466 335.589 89.3551 335.277 89.2858L335.173 89.265H335.069L332.747 89.4314L332.103 89.473L332.047 90.1106C331.791 93.0978 327.091 97.7415 319.475 102.524C312.648 106.814 305.862 109.704 303.811 109.711H303.748C299.569 109.711 295.217 107.687 292.112 104.298C289.45 101.401 288.085 97.9217 288.355 94.7543V94.7335V94.7127L289.471 63.1704C290.053 56.4822 295.764 51.2494 302.466 51.2494M302.466 50.5147C295.376 50.5147 289.339 55.9485 288.722 63.1427L287.6 94.6988C286.948 102.281 294.981 110.466 303.741 110.466C303.762 110.466 303.79 110.466 303.811 110.466C308.649 110.446 332.144 97.7761 332.796 90.1799L335.117 90.0205C335.589 90.1245 336.275 90.2146 337.051 90.2146C339.81 90.2146 343.795 89.0571 344.01 83.0204C344.197 77.7876 341.39 76.339 338.86 76.0895C338.742 76.0757 338.631 76.0757 338.514 76.0757C337.661 76.0757 336.871 76.3876 336.247 76.9004L337.072 67.3012C337.723 59.6981 332.096 53.0098 324.499 52.3583L303.665 50.5632C303.263 50.5286 302.861 50.5078 302.466 50.5078" fill="black"/>
<path d="M289.083 64.3298C288.855 66.215 287.732 58.4594 289.984 49.8859C293.062 38.1867 313.009 35.4421 327.175 38.4639C331.188 39.3164 342.132 45.1175 344.613 53.5038C346.505 59.901 345.514 71.1081 342.714 74.3171C341.688 75.4954 340.808 76.5766 339.318 77.0825C336.878 76.4033 334.349 79.0509 334.21 81.9549C334.099 84.2629 334.009 85.7877 333.073 85.85C331.251 85.9679 329.358 79.7994 328.527 62.7911C328.243 57.0039 323.779 53.8226 320.681 53.0464C317.07 52.1454 308.49 56.6573 304.428 57.5584C300.367 58.4594 297.047 57.3851 294.24 54.5504C294.24 54.5504 289.846 57.9395 289.076 64.3298" fill="black"/>
<path d="M336.987 86.1183C337.029 86.0905 337.146 86.2361 337.41 86.3747C337.673 86.5064 338.124 86.6103 338.616 86.444C339.607 86.1183 340.487 84.5935 340.598 82.9232C340.653 82.0776 340.501 81.2667 340.231 80.5944C339.974 79.9082 339.551 79.4162 339.059 79.3122C338.574 79.1805 338.214 79.4647 338.089 79.7211C337.957 79.9775 338.006 80.1647 337.957 80.1785C337.93 80.1993 337.763 80.0191 337.853 79.6379C337.902 79.4577 338.013 79.2429 338.241 79.0696C338.47 78.8963 338.803 78.8132 339.142 78.8686C339.856 78.9448 340.48 79.6241 340.778 80.3657C341.118 81.1142 341.305 82.0221 341.242 82.9717C341.118 84.8361 340.099 86.5549 338.74 86.8945C338.082 87.0401 337.548 86.8252 337.271 86.5965C336.994 86.3539 336.952 86.146 336.987 86.1321" fill="black"/>
<path d="M308.235 67.0033C308.436 67.5647 311.07 67.5994 314.105 68.2162C317.155 68.7845 319.553 69.7341 320.01 69.3044C320.218 69.0964 319.844 68.5489 318.902 67.9182C317.966 67.2944 316.441 66.6291 314.618 66.2687C312.795 65.9152 311.084 65.9429 309.933 66.1647C308.769 66.3796 308.159 66.733 308.242 67.0033" fill="black"/>
<path d="M288.328 65.1892C288.591 65.7229 291.211 65.4526 294.302 65.709C297.4 65.9239 299.888 66.5823 300.297 66.0971C300.478 65.8684 300.041 65.3624 299.029 64.8496C298.031 64.3367 296.437 63.8585 294.579 63.7129C292.729 63.5743 291.031 63.803 289.908 64.1565C288.778 64.5099 288.21 64.9327 288.328 65.1822" fill="black"/>
<path d="M301.057 68.4366C300.981 71.3684 300.17 74.2655 298.853 76.8784C297.799 78.9299 296.254 81.0022 299.865 81.0507C300.586 81.0785 301.306 81.0092 302.034 80.9468C301.327 81.127 300.606 81.2517 299.872 81.3072C295.886 81.4458 297.113 79.0408 298.389 76.6427C299.74 74.0714 300.565 71.2921 301.057 68.4297" fill="black"/>
<path d="M357.752 249.602C357.752 249.602 361.585 264.455 360.199 282.551C359.658 289.551 348.538 344.111 348.538 344.111H317.003L312.151 309.11L309.538 309.678C309.538 309.678 304.562 331.538 303.141 344.111H261.902L266.667 272.931L270.742 242.602L357.752 249.595V249.602Z" fill="black"/>
<path d="M367.598 126.578C368.381 126.578 379.554 131.048 382.499 142.027C385.438 153.012 393.478 193.225 393.478 193.225L401.996 205.021C401.996 205.021 399.237 226.583 383.553 222.487C383.553 222.487 373.087 224.317 369.753 213.706C366.42 203.095 359.953 171.448 359.953 171.448L367.598 126.585V126.578Z" fill="url(#colorTwo)"/>
<path d="M334.978 108.164L340.897 117.126L367.608 126.572L359.964 204.018L362.819 244.611C363.2 250.011 358.841 254.557 353.428 254.412L269.489 251.93C267.389 251.875 266.404 249.214 266.058 246.344C265.746 243.773 266.016 241.16 266.73 238.665L271.152 223.133C270.494 232.794 273.391 165.51 273.502 163.056L267.035 128.43L295.396 118.948L298.557 112.177L314.809 120.307L334.971 108.164H334.978Z" fill="url(#colorTwo)"/>
<path d="M270.12 127.539C265.608 128.44 263.799 129.799 259.897 137.901C258.067 141.699 239.867 184.878 239.867 184.878L233.095 162.304C235.459 170.42 229.332 176.187 224.064 176.748C219.58 177.226 217.743 177.199 215.941 176.298C215.13 175.896 213.682 185.779 215.532 193.119C217.39 203.841 220.89 214.23 227.225 217.834C239.901 225.042 245.501 223.476 251.684 216.184C257.533 209.281 274.659 184.448 274.659 184.448V154.07C274.659 154.07 271.887 127.193 270.113 127.546" fill="url(#colorTwo)"/>
<path d="M240.289 184.653C240.289 184.798 241.62 184.687 243.588 185.318C245.55 185.921 248.08 187.425 250.11 189.837C252.141 192.256 253.389 194.903 254.262 196.802C255.128 198.715 255.634 199.928 255.752 199.887C255.849 199.852 255.53 198.577 254.796 196.587C254.047 194.612 252.862 191.854 250.734 189.317C248.599 186.78 245.855 185.256 243.748 184.77C241.62 184.251 240.269 184.583 240.289 184.659" fill="black"/>
<path d="M388.222 196.074L402.742 184.021C403.089 182.219 403.879 180.265 405.501 178.504C410.033 173.59 414.393 171.546 416.985 170C419.577 168.455 424.713 163.035 425.849 164.067C426.993 165.1 427.631 166.777 426.432 169.037C425.24 171.296 419.529 173.937 419.736 176.834C419.882 178.934 422.037 178.823 422.037 178.823C422.037 178.823 432.053 178.303 436.183 177.458C440.314 176.605 444.154 176.959 444.105 178.428C444.057 179.897 443.357 180.778 439.933 181.471C436.509 182.164 430.867 182.607 430.673 183.432C430.479 184.257 431.692 184.624 433.688 184.243C435.684 183.862 445.193 182.746 445.97 183.751C446.746 184.756 446.434 186.468 445.18 186.981L443.038 188.034C443.038 188.034 444.542 189.684 443.585 190.82C442.622 191.957 440.134 191.881 440.134 191.881L427.492 192.997C427.492 192.997 426.861 193.842 427.284 194.32C427.707 194.799 437.486 192.92 437.687 193.995C437.888 195.069 438.81 195.471 435.941 196.538C433.071 197.606 425.655 198.472 422.904 198.07C420.637 197.73 412.612 198.223 409.867 198.403L392.02 215.12C392.02 215.12 387.979 213.359 386.184 208.238C384.361 203.039 388.222 196.067 388.222 196.067" fill="white"/>
<path d="M365.88 147.109C365.825 147.103 365.672 147.685 365.451 148.752C365.222 149.819 364.938 151.372 364.633 153.292C364.009 157.138 363.357 162.482 362.81 168.394C362.262 174.306 361.86 179.664 361.562 183.545C361.431 185.347 361.32 186.879 361.23 188.14C361.16 189.228 361.153 189.831 361.209 189.838C361.264 189.838 361.382 189.249 361.542 188.175C361.708 187.1 361.909 185.534 362.131 183.6C362.581 179.733 363.066 174.382 363.614 168.47C364.161 162.565 364.723 157.228 365.201 153.375C365.423 151.587 365.61 150.062 365.762 148.807C365.894 147.726 365.943 147.123 365.887 147.116" fill="black"/>
<path d="M273.02 144.414C272.965 144.414 272.867 145.142 272.736 146.479C272.597 147.81 272.459 149.744 272.334 152.135C272.07 156.917 271.932 163.522 271.918 170.821V189.499C271.918 191.766 271.918 193.665 271.918 195.162C271.918 196.499 271.953 197.241 272.008 197.241C272.064 197.241 272.14 196.506 272.23 195.169C272.327 193.831 272.41 191.897 272.493 189.506C272.653 184.724 272.715 178.119 272.729 170.821C272.743 163.529 272.791 156.931 272.909 152.156C272.965 149.889 273.013 147.997 273.055 146.5C273.089 145.163 273.082 144.421 273.027 144.421" fill="black"/>
<path d="M377.923 212.892C378.048 212.906 378.256 211.312 378.741 208.782C379.233 206.266 380.037 202.759 381.908 199.349C383.786 195.946 386.524 193.548 388.77 192.39C391.022 191.191 392.658 191.046 392.623 190.893C392.623 190.845 392.207 190.838 391.48 190.942C390.752 191.046 389.712 191.323 388.506 191.878C386.094 192.952 383.156 195.405 381.194 198.961C379.247 202.509 378.526 206.134 378.166 208.699C377.819 211.284 377.812 212.892 377.909 212.906" fill="black"/>
<path d="M374.109 196.862C374.275 197.056 376.645 194.623 380.478 193.341C384.297 192.003 387.658 192.475 387.672 192.225C387.762 192.045 384.262 191.165 380.215 192.579C376.153 193.944 373.921 196.772 374.109 196.862Z" fill="black"/>
<path d="M313.884 252.008C313.884 252.008 313.94 251.55 313.967 250.684C313.988 249.741 314.023 248.473 314.058 246.879C314.127 243.496 314.217 238.735 314.335 232.892C314.612 221.013 314.993 204.725 315.416 186.74C315.825 168.713 316.074 152.384 316.054 140.56C316.054 134.648 315.991 129.865 315.915 126.566C315.866 124.972 315.832 123.704 315.804 122.761C315.769 121.888 315.735 121.438 315.707 121.438C315.679 121.438 315.659 121.895 315.638 122.768C315.631 123.711 315.617 124.979 315.596 126.573C315.568 129.956 315.527 134.717 315.478 140.56C315.354 152.37 315.014 168.692 314.605 186.719C314.196 204.739 313.85 221.061 313.759 232.885C313.704 238.79 313.704 243.58 313.739 246.879C313.766 248.473 313.787 249.741 313.801 250.684C313.822 251.55 313.85 252.008 313.877 252.008" fill="black"/>
<path d="M388.931 195.562C388.869 195.478 387.774 196.366 386.79 198.327C386.298 199.297 385.819 200.517 385.542 201.952C385.272 203.393 385.265 205.001 385.48 206.651C385.709 208.301 386.124 209.867 386.852 211.163C387.573 212.445 388.522 213.415 389.423 214.053C391.26 215.342 392.48 215.197 392.466 215.12C392.508 214.982 391.392 214.913 389.77 213.596C388.973 212.944 388.141 212.008 387.511 210.803C386.88 209.61 386.499 208.12 386.284 206.54C386.076 204.96 386.069 203.421 386.284 202.077C386.506 200.718 386.914 199.526 387.316 198.563C388.134 196.615 389.028 195.638 388.938 195.555" fill="black"/>
<path d="M215.431 176.261C215.41 176.31 215.715 176.511 216.318 176.774C216.921 177.044 217.836 177.342 219 177.523C221.308 177.911 224.801 177.647 227.927 175.679C231.039 173.69 232.758 170.64 233.388 168.388C233.721 167.251 233.839 166.295 233.853 165.636C233.867 164.978 233.818 164.617 233.77 164.617C233.624 164.603 233.624 166.066 232.848 168.207C232.106 170.321 230.401 173.135 227.49 174.993C224.572 176.836 221.301 177.183 219.069 176.954C216.803 176.739 215.479 176.122 215.431 176.261Z" fill="black"/>
<path d="M286.819 180.043C286.792 180.091 287.519 180.514 288.85 181.235C290.181 181.956 292.128 182.961 294.547 184.16C299.392 186.572 306.156 189.739 313.76 192.962C321.363 196.178 328.356 198.832 333.457 200.627C336.008 201.529 338.08 202.229 339.522 202.679C340.963 203.136 341.767 203.358 341.788 203.31C341.809 203.254 341.032 202.929 339.625 202.381C338.08 201.785 336.07 201.016 333.651 200.087C328.605 198.153 321.668 195.422 314.071 192.213C306.482 188.998 299.69 185.913 294.79 183.64C292.44 182.552 290.493 181.644 288.982 180.944C287.61 180.313 286.833 179.987 286.812 180.036" fill="black"/>
<path d="M216.341 127.671C216.293 127.748 217.395 128.302 218.469 129.924C219.024 130.707 219.592 131.726 220.437 132.752C220.853 133.244 221.332 133.812 222.052 134.138C222.413 134.297 222.822 134.387 223.251 134.332C223.681 134.283 224.097 134.055 224.381 133.736C224.97 133.091 225.088 132.197 224.984 131.469C224.88 130.721 224.651 130.083 224.437 129.46C223.993 128.226 223.439 127.172 222.877 126.355C222.316 125.53 221.761 124.948 221.352 124.58C220.943 124.213 220.68 124.053 220.652 124.081C220.576 124.157 221.526 124.934 222.531 126.583C223.03 127.401 223.529 128.434 223.931 129.64C224.125 130.243 224.34 130.887 224.416 131.539C224.499 132.183 224.388 132.869 223.951 133.341C223.536 133.826 222.856 133.868 222.288 133.611C221.72 133.362 221.269 132.876 220.853 132.398C220.036 131.442 219.426 130.444 218.809 129.674C218.206 128.891 217.603 128.337 217.132 128.032C216.66 127.727 216.362 127.644 216.348 127.671" fill="black"/>
<path d="M230.192 135.233C230.171 135.17 229.416 135.309 228.286 135.815C227.156 136.314 225.673 137.229 224.329 138.566C222.984 139.911 222.069 141.387 221.563 142.517C221.057 143.647 220.912 144.402 220.981 144.423C221.154 144.506 222.111 141.567 224.744 138.982C227.337 136.355 230.275 135.406 230.199 135.233" fill="black"/>
<path d="M213.751 132.776C213.682 132.817 214.001 133.448 214.68 134.356C215.02 134.806 215.443 135.333 215.983 135.867C216.503 136.4 217.238 136.969 218.146 137.163C219.04 137.378 220.003 137.253 220.682 136.754C221.375 136.262 221.646 135.486 221.667 134.896C221.708 133.635 220.98 133.115 220.967 133.184C220.876 133.233 221.396 133.808 221.258 134.855C221.188 135.361 220.925 135.957 220.377 136.31C219.837 136.678 219.054 136.775 218.284 136.588C217.501 136.414 216.891 135.964 216.357 135.472C215.824 134.987 215.38 134.494 215.006 134.086C214.264 133.261 213.828 132.72 213.758 132.769" fill="black"/>
<path d="M210.359 136.114C210.297 136.169 210.636 136.668 211.239 137.423C211.814 138.151 212.688 139.343 214.247 139.815C215.023 140.029 215.834 139.96 216.465 139.634C217.11 139.323 217.505 138.72 217.615 138.207C217.74 137.687 217.643 137.243 217.505 136.987C217.366 136.723 217.227 136.633 217.207 136.654C217.123 136.689 217.518 137.236 217.22 138.082C217.075 138.491 216.756 138.914 216.236 139.142C215.723 139.378 215.051 139.427 214.413 139.246C213.097 138.865 212.203 137.819 211.544 137.132C210.872 136.453 210.421 136.051 210.366 136.107" fill="black"/>
<path d="M425.559 188.944C425.559 189.165 429.516 189.373 434.388 189.138C439.268 188.909 443.184 188.327 443.163 188.112C443.142 187.883 439.205 188.105 434.354 188.334C429.502 188.569 425.566 188.722 425.566 188.95" fill="black"/>
<path d="M416.566 188.271C416.587 188.354 417.509 188.202 418.625 187.252C419.713 186.344 420.94 184.487 420.857 182.186C420.808 181.063 420.51 180.072 420.309 179.192C420.094 178.311 419.983 177.542 420.011 176.884C420.039 175.553 420.607 174.874 420.503 174.797C420.455 174.707 419.637 175.345 419.443 176.835C419.339 177.556 419.401 178.436 419.581 179.351C419.748 180.266 420.011 181.229 420.053 182.22C420.129 184.209 419.138 185.908 418.237 186.843C417.322 187.807 416.518 188.153 416.573 188.278" fill="black"/>
<path d="M387.979 196.15C387.979 196.22 402.853 183.633 402.597 183.994C403.012 181.741 404.142 179.613 405.771 178.019C407.337 176.37 409.063 174.873 410.914 173.563C413.651 171.525 416.867 170.291 419.432 168.018C421.22 166.611 422.814 164.948 424.9 163.956C425.17 163.866 425.496 163.755 425.822 163.922C426.529 164.483 426.986 165.273 427.139 166.154C427.541 168.614 425.614 170.478 423.84 171.816C422.162 173.265 418.253 175.871 420.561 178.262C420.984 178.581 421.545 178.719 422.072 178.705L425.461 178.49C428.844 178.234 432.233 177.991 435.573 177.43C437.791 176.986 440.106 176.633 442.373 177.028C442.934 177.146 443.53 177.291 443.994 177.749C444.23 177.971 444.306 178.373 444.258 178.657C444.237 179.586 443.592 180.403 442.788 180.771C440.356 181.9 437.084 182.067 434.458 182.538C433.259 182.781 431.921 182.829 430.888 183.439C430.833 183.495 430.84 183.605 430.847 183.682C430.874 183.869 431.068 184.014 431.311 184.098C432.358 184.416 433.501 184.077 434.582 183.931L436.267 183.709C439.087 183.404 441.929 183.051 444.771 183.224C445.367 183.28 446.115 183.363 446.351 184.042C446.892 185.165 446.448 186.697 445.249 187.189C445.311 187.161 443.114 188.242 443.121 188.235L443.184 187.923C444.764 189.718 444.258 191.472 441.86 191.936C441.375 192.006 428.504 193.156 427.506 193.239L427.658 193.156C427.444 193.461 427.256 193.912 427.395 194.147C427.409 194.175 427.423 194.182 427.437 194.21C427.437 194.203 427.409 194.189 427.409 194.189C427.402 194.189 427.457 194.203 427.492 194.203C430.438 194.175 433.321 193.482 436.287 193.468C436.779 193.51 437.632 193.385 437.888 193.953C437.916 194.099 437.972 194.265 438.02 194.411C438.082 194.612 438.186 194.82 438.2 195.111C438.214 195.416 438.027 195.693 437.84 195.845C435.795 197.238 433.21 197.481 430.847 197.897C429.107 198.146 427.36 198.313 425.6 198.375C423.853 198.479 422.114 198.119 420.353 198.167C416.86 198.188 413.36 198.361 409.867 198.569C410.22 198.347 392.318 215.113 392.38 215.085C392.29 215.168 392.152 215.162 392.069 215.078C391.985 214.988 391.992 214.85 392.082 214.766C392.117 214.732 409.763 198.333 409.798 198.299C413.312 198.063 416.819 197.821 420.346 197.8C422.093 197.744 423.826 198.098 425.586 197.987C429.031 197.8 432.579 197.426 435.858 196.358C436.447 196.088 437.653 195.783 437.75 195.118C437.729 194.82 437.507 194.404 437.452 194.064C437.459 194.078 437.459 194.078 437.445 194.064C437.154 193.905 436.648 193.918 436.287 193.912C433.46 193.939 430.632 194.528 427.79 194.646C427.561 194.632 427.305 194.674 427.111 194.494C426.875 194.223 426.882 193.815 426.979 193.544C427.069 193.281 427.201 193.045 427.367 192.823L427.464 192.817L440.106 191.708C442.691 191.735 445.103 190.619 442.712 188C442.927 187.909 444.854 186.932 445.096 186.828C446.192 186.399 446.524 184.804 445.803 183.89C445.006 183.46 443.953 183.598 443.059 183.564C440.806 183.605 438.554 183.82 436.308 184.084L434.631 184.305C433.522 184.416 431.006 185.2 430.479 183.758C430.458 183.564 430.465 183.349 430.618 183.203C431.741 182.469 433.148 182.469 434.388 182.205C436.336 181.907 439.177 181.561 441.063 181.062C442.061 180.764 443.274 180.417 443.745 179.412C443.897 178.983 444.091 178.338 443.745 177.978C443.398 177.624 442.83 177.458 442.303 177.354C438.942 176.751 435.594 177.929 432.247 178.199C428.989 178.553 425.371 178.795 422.079 178.983C420.866 179.073 419.626 178.192 419.605 176.924C419.508 175.711 420.326 174.699 421.109 173.875C422.668 172.239 424.734 171.102 426.12 169.335C427.035 167.983 427.34 166.05 426.251 164.712C425.898 164.261 425.6 163.887 424.976 164.192C421.954 165.703 419.75 168.524 416.839 170.257C412.875 172.433 409.049 174.893 405.965 178.234C404.308 179.828 403.303 181.963 402.825 184.16L388.374 196.656C388.243 196.767 388.049 196.753 387.938 196.622C387.827 196.49 387.841 196.289 387.972 196.178" fill="black"/>
<path d="M334.98 108.164C336.845 110.819 339.714 114.665 341.045 116.807C344.912 118.345 348.898 119.579 352.924 120.73C361.9 123.516 375.907 126.191 380.773 135.028C384.46 142.714 385.86 151.149 387.669 159.383C389.512 168.92 391.557 180.778 393.373 190.288C391.127 182.206 389.381 174 387.565 165.829C385.68 157.678 384.009 149.451 381.479 141.557C380.468 138.681 379.546 135.763 377.529 133.475C374.091 129.691 369.156 127.688 364.45 125.879C360.548 124.458 356.556 123.197 352.571 121.901C348.558 120.57 344.503 119.253 340.671 117.403C338.772 114.333 336.852 111.269 334.994 108.171" fill="black"/>
<path d="M314.364 121.77C313.608 123.925 312.797 126.06 311.924 128.16C311.467 129.858 309.575 130.918 307.994 129.754L307.267 129.304C302.921 126.6 298.624 123.814 294.5 120.758C299.054 123.128 303.448 125.79 307.786 128.52L308.507 128.978C309.082 129.407 309.783 129.463 310.379 129.054C310.774 128.791 310.961 128.389 311.217 127.841C312.201 125.79 313.255 123.766 314.364 121.763" fill="black"/>
<path d="M317.876 121.414C318.68 123.347 319.948 126.494 320.752 128.386C321.161 129.211 322.173 129.481 322.929 128.892L323.788 128.351L327.226 126.196L340.997 117.602L327.697 126.882L324.37 129.197C323.767 129.571 323.178 130.16 322.423 130.313C321.106 130.611 319.837 129.717 319.373 128.518C319.082 127.942 318.34 126.376 318.042 125.78L316.268 122.127C315.776 121.053 317.391 120.325 317.862 121.414" fill="black"/>
<path d="M139.179 199.948L139.145 193.801C139.408 191.285 137.523 188.776 134.91 188.769C132.151 188.741 126.967 188.72 124.16 188.707C121.617 188.7 119.024 188.686 116.474 188.637C114.187 188.353 111.955 189.511 111.608 191.902L111.241 194.924L110.867 197.98C110.707 199.165 110.139 200.295 109.28 201.12C107.672 202.762 105.232 202.617 103.153 203.116C101.157 203.511 99.1676 203.948 97.1992 204.474C93.2764 205.528 89.3466 206.782 85.8811 208.889C77.7443 213.789 84.9871 218.53 90.7605 220.582C100.36 223.978 110.673 224.983 120.792 225.232C128.908 225.357 137.024 224.255 144.911 222.404C148.855 221.476 152.757 220.304 156.416 218.682C158.114 217.885 160 216.957 161.205 215.557C161.476 215.224 161.663 214.871 161.705 214.552C161.795 213.99 161.413 213.505 160.998 213.075C157.941 209.298 153.318 207.614 148.668 206.235C146.713 205.632 144.731 205.112 142.756 204.564C140.69 204.065 139.124 202.083 139.172 199.955M139.359 199.948C139.339 201.979 140.85 203.871 142.832 204.301C149.34 206.02 157.186 206.914 161.975 212.174C165.634 215.543 159.951 218.953 157.165 220.256C145.771 225.329 133.163 227.145 120.771 226.93C110.486 226.57 100.103 225.087 90.4902 221.302C84.2732 218.856 77.0443 213.775 85.5762 208.397C89.0901 206.186 92.9991 204.765 96.9289 203.511C98.8973 202.894 100.893 202.367 102.896 201.889C104.678 201.335 106.854 201.466 108.233 200.059C108.836 199.449 109.224 198.638 109.314 197.793L109.654 194.743L110.014 191.666C110.181 190.474 110.798 189.351 111.678 188.54C112.932 187.293 114.873 186.946 116.529 187.161L118.061 187.237C122.788 187.466 128.658 187.868 133.406 188.131L134.945 188.228C137.107 188.374 139.006 190.127 139.339 192.255C139.477 193.26 139.339 198.833 139.359 199.955" fill="black"/>
<path d="M160.697 283.513L156.137 253.98L172.889 243.508C173.013 244.139 173.346 245.552 173.956 248.131C176.188 257.557 181.413 279.617 181.413 287.893C181.413 297.506 173.083 305.747 171.599 307.14L160.69 283.506L160.697 283.513Z" fill="white"/>
<path d="M172.74 243.874C172.886 244.561 173.184 245.829 173.745 248.185C175.977 257.597 181.196 279.651 181.196 287.899C181.196 297.013 173.614 304.894 171.68 306.765L160.93 283.477L156.391 254.097L172.747 243.874H172.74ZM173.066 243.14L155.898 253.869L160.501 283.602L171.534 307.513C171.534 307.513 181.653 298.621 181.653 287.892C181.653 277.163 173.073 244.055 173.073 243.133" fill="black"/>
<path d="M70.1054 281.823C69.4955 268.475 68.4074 244.21 68.3242 240.453L82.5532 253.06L86.1919 280.333L70.1054 281.823Z" fill="white"/>
<path d="M68.5695 240.972L82.348 253.177L85.9452 280.138L70.33 281.587C69.7409 268.723 68.722 245.99 68.5765 240.972M68.1052 239.953C68.0082 240.896 69.8933 282.072 69.8933 282.072L86.4511 280.54L82.7708 252.948L68.1052 239.953Z" fill="black"/>
<path d="M90.7443 205.43C90.571 205.52 90.0512 205.679 89.2888 205.943C84.7352 207.495 69.4597 212.693 67.5745 226.049L65.4883 245.039L82.7738 252.948L84.9224 274.1L159.727 275.632L157.89 257.855L183.285 252.268C183.285 252.268 178.496 229.341 169.208 217.073C166.221 213.123 161.848 210.455 156.989 209.484C156.989 209.484 135.427 214.135 119.632 211.875C103.83 209.616 90.7512 205.437 90.7512 205.437" fill="url(#colorTwo)"/>
<path d="M79.2379 229.688C79.3487 229.674 79.6468 231.399 80.0765 234.186C80.5408 237.221 81.1161 240.95 81.7468 245.074C82.3983 249.198 82.9944 252.927 83.4726 255.955C83.9092 258.742 84.1518 260.474 84.0409 260.495C83.937 260.516 83.5003 258.825 82.9181 256.059C82.3359 253.294 81.6221 249.461 80.9567 245.199C80.2913 240.943 79.8062 237.069 79.5151 234.262C79.224 231.455 79.12 229.708 79.2309 229.695" fill="black"/>
<path d="M159.377 235.516C159.592 235.53 159.356 241.857 158.844 249.648C158.331 257.438 157.742 263.738 157.52 263.724C157.298 263.71 157.541 257.382 158.053 249.592C158.566 241.802 159.155 235.502 159.377 235.516Z" fill="black"/>
<path d="M65.9045 344.457C65.3409 327.992 64.0067 286.768 64.0276 275.715C64.0276 272.718 67.0892 270.297 70.8535 270.297H177.103C180.937 270.297 184.019 272.801 183.929 275.854C183.581 287.333 182.767 327.953 182.266 344.457H85.0201H65.9045Z" fill="url(#colorOne)"/>
<g style="mix-blend-mode:multiply" opacity="0.32">
<mask id="mask1_8621_17755" style="mask-type:luminance" maskUnits="userSpaceOnUse" x="68" y="275" width="99" height="78">
<path d="M166.099 275.141H68.1797V352.995H166.099V275.141Z" fill="white"/>
</mask>
<g mask="url(#mask1_8621_17755)">
<path d="M69.5703 276.031C75.8427 280.938 67.7321 323.362 85.8632 343.759L73.3877 344.799L69.5703 276.031Z" fill="url(#colorOne)"/>
</g>
</g>
<path d="M151.244 134.061C145.713 128.454 136.197 126.146 129.37 130.194C123.756 129.535 118.031 131.927 113.845 135.642C109.506 139.495 106.609 144.624 104.287 149.857C99.7615 160.045 97.1278 170.913 94.5149 181.711C93.4961 185.939 92.4703 190.173 91.5 194.415L91.8535 193.826C95.7347 193.992 154.668 196.494 154.661 196.376C154.751 190.832 155.139 185.024 156.04 178.786C157.163 171.079 158.937 163.406 158.902 155.623C158.868 147.84 156.788 139.703 151.23 134.061" fill="black"/>
<path d="M156.996 209.485C135.247 215.002 111.668 213.574 90.7578 205.438C112.216 211.745 134.935 213.138 156.996 209.485Z" fill="black"/>
<path d="M513.004 127.729C514.778 126.648 516.76 125.837 518.833 125.706C520.905 125.574 523.074 126.156 524.599 127.577C526.013 128.894 526.741 130.765 527.642 132.47C528.543 134.182 529.797 135.901 531.662 136.414C531.988 136.504 532.355 136.573 532.57 136.83C532.951 137.294 532.535 138.049 531.967 138.23C531.391 138.41 530.782 138.202 530.213 137.994C531.01 139.207 532.251 140.129 533.644 140.538C533.159 141.896 531.405 142.631 530.088 142.028C530.359 144.322 530.629 146.644 530.324 148.938C530.026 151.225 529.09 153.519 527.316 155.002C525.369 156.638 522.444 157.324 521.39 159.639" fill="black"/>
<path d="M487.248 205.555C496.3 206.38 509.087 207.739 517.972 208.681L517.57 209.049C517.487 201.168 517.418 190.259 517.46 182.503L517.758 182.171C517.972 182.046 518.291 181.699 518.465 181.401C520.01 178.691 520.481 175.51 521.057 172.468C522.193 165.35 523.261 158.211 524.286 151.072L525.804 140.357L525.908 140.579C513.107 133.045 496.452 133.766 484.115 141.889L484.351 141.452C485.411 161.524 486.458 185.463 487.248 205.548M487.186 205.618C485.876 185.539 484.441 161.607 483.408 141.508L483.395 141.216L483.644 141.071C496.265 132.865 513.239 132.324 526.137 140.205L526.262 140.281L526.241 140.426L524.598 151.121C523.663 157.289 522.374 166.264 521.5 172.537C521.084 174.907 520.176 181.914 517.82 182.829L518.118 182.497C518.277 190.384 518.27 201.466 518.298 209.451C509.177 208.48 496.397 206.734 487.186 205.611" fill="black"/>
<path d="M485.682 155.898C485.502 155.787 478.169 152.606 477.441 160.41C476.714 168.208 484.691 167.327 484.726 167.106C484.76 166.884 485.682 155.898 485.682 155.898Z" fill="white"/>
<path d="M485.682 155.898C485.502 155.787 478.169 152.606 477.441 160.41C476.714 168.208 484.691 167.327 484.726 167.106C484.76 166.884 485.682 155.898 485.682 155.898Z" stroke="black" stroke-width="1.3" stroke-miterlimit="10"/>
<path d="M522.375 158.862C522.576 158.8 529.736 157.809 528.516 165.544C527.289 173.278 519.776 170.451 519.797 170.229C519.818 170.007 522.375 158.862 522.375 158.862Z" fill="white"/>
<path d="M522.375 158.862C522.576 158.8 529.736 157.809 528.516 165.544C527.289 173.278 519.776 170.451 519.797 170.229C519.818 170.007 522.375 158.862 522.375 158.862Z" stroke="black" stroke-width="1.3" stroke-miterlimit="10"/>
<path d="M483.277 154.72C483.616 161.373 482.958 164.763 483.491 169.247C484.33 176.337 487.082 182.041 492.841 186.255C498.608 190.469 506.994 191.46 512.906 187.454C517.009 184.675 520.086 181.334 521.251 176.517C522.408 171.7 525.007 162.704 525.659 157.79C526.837 148.933 527.537 140.941 527.537 140.941L502.78 133.172L487.289 139.936L483.283 154.72H483.277Z" fill="black"/>
<path d="M505.168 191.79C505.182 191.977 503.13 192.219 500.677 191.623C498.223 191.048 496.505 189.897 496.602 189.738C496.699 189.551 498.501 190.376 500.843 190.923C503.186 191.492 505.161 191.575 505.168 191.783" fill="black"/>
<path d="M483.121 165.936C483.218 159.171 483.696 151.485 483.537 144.326C483.475 141.636 483.017 137.714 483.585 135.087C484.154 132.446 484.785 133.354 486.261 131.095C488.111 128.26 493.996 126.957 497.371 126.707C500.746 126.458 501.516 123.665 503.761 126.194C505.951 123.665 509.756 122.687 512.889 123.838C516.029 124.989 518.288 128.204 518.316 131.545C520.333 130.055 523.348 130.11 525.309 131.67C527.271 133.229 528.012 136.154 527.021 138.455C528.802 138.989 530.272 140.458 530.805 142.239C531.339 144.021 530.916 146.058 529.717 147.472C528.317 149.136 526.072 149.863 524.568 151.423C522.828 153.218 522.301 156.087 523.299 158.381" fill="black"/>
<path d="M491.512 132.556C493.82 129.77 496.793 127.386 500.3 126.478C503.807 125.57 507.875 126.36 510.315 129.035" fill="black"/>
<path d="M506.16 128.974C506.77 128.094 507.789 127.56 508.849 127.394C509.903 127.227 510.991 127.394 512.01 127.712C514.512 128.489 516.716 130.166 518.137 132.363C518.462 132.862 518.712 133.611 518.254 133.992C518.012 134.193 517.665 134.193 517.347 134.179C513.493 134.02 509.653 133.396 505.945 132.335" fill="black"/>
<path d="M479.707 207.112C479.707 207.112 447.887 215.221 442.585 223.642C437.283 232.063 434.164 251.4 434.164 254.838C434.164 258.275 433.541 297.261 440.09 310.049C446.64 322.836 557.374 319.093 557.374 319.093C557.374 319.093 565.795 314.727 567.978 301.628C570.161 288.528 566.107 244.857 563.924 235.189C561.74 225.52 559.869 228.327 549.577 222.089C539.284 215.852 523.371 209.302 523.371 209.302L517.757 198.698C517.757 198.698 499.98 189.029 485.938 197.138L479.7 207.119L479.707 207.112Z" fill="url(#colorTwo)"/>
<path d="M548.506 247.984C548.728 247.984 548.79 256.46 548.652 266.905C548.513 277.356 548.222 285.826 548 285.819C547.778 285.812 547.716 277.343 547.855 266.891C547.993 256.446 548.284 247.977 548.506 247.977" fill="black"/>
<path d="M450.47 241.641C450.525 241.641 450.525 242.209 450.49 243.228C450.442 244.42 450.38 245.855 450.303 247.525C450.144 251.15 449.991 256.161 450.033 261.692C450.075 267.229 450.303 272.233 450.518 275.858C450.615 277.529 450.698 278.963 450.768 280.148C450.823 281.16 450.823 281.729 450.768 281.736C450.712 281.736 450.608 281.188 450.456 280.183C450.303 279.178 450.13 277.716 449.957 275.9C449.603 272.275 449.285 267.25 449.243 261.699C449.201 256.14 449.444 251.115 449.749 247.49C449.901 245.674 450.047 244.212 450.186 243.2C450.317 242.188 450.414 241.634 450.47 241.641Z" fill="black"/>
<path d="M537.359 225.794C537.359 225.794 537.075 225.808 536.555 225.76C535.945 225.69 535.189 225.607 534.275 225.503C532.181 225.261 529.347 224.935 525.895 224.54C518.819 223.77 509.012 222.918 498.151 222.537C487.29 222.163 477.449 222.336 470.331 222.613C466.858 222.772 464.01 222.904 461.903 223.001C460.981 223.043 460.225 223.07 459.609 223.098C459.082 223.112 458.805 223.105 458.805 223.077C458.805 223.05 459.075 223.001 459.595 222.939C460.205 222.869 460.96 222.793 461.882 222.696C463.864 222.488 466.747 222.266 470.303 222.059C477.421 221.636 487.29 221.379 498.179 221.747C509.06 222.128 518.888 223.064 525.958 223.985C529.492 224.443 532.348 224.866 534.316 225.205C535.224 225.365 535.973 225.503 536.576 225.607C537.088 225.711 537.359 225.774 537.359 225.801" fill="url(#colorOne)"/>
<path d="M521.634 209.046C521.607 209.17 519.264 208.713 515.466 208.152C511.661 207.59 506.387 206.98 500.53 206.752C494.673 206.537 489.358 206.738 485.525 207.015C481.692 207.285 479.322 207.562 479.301 207.438C479.294 207.382 479.876 207.257 480.943 207.07C482.004 206.876 483.556 206.668 485.476 206.453C489.316 206.038 494.66 205.74 500.558 205.954C506.456 206.183 511.765 206.883 515.556 207.59C517.455 207.944 518.987 208.269 520.026 208.547C521.073 208.81 521.648 208.983 521.634 209.039" fill="black"/>
<path d="M442.955 344.457C442.392 327.992 441.057 286.768 441.078 275.715C441.078 272.718 444.14 270.297 447.904 270.297H554.154C557.988 270.297 561.07 272.801 560.98 275.854C560.632 287.333 559.818 327.953 559.317 344.457H462.071H442.955Z" fill="url(#colorOne)"/>
<g style="mix-blend-mode:multiply" opacity="0.32">
<mask id="mask2_8621_17755" style="mask-type:luminance" maskUnits="userSpaceOnUse" x="445" y="275" width="99" height="78">
<path d="M543.165 275.148H445.246V353.003H543.165V275.148Z" fill="white"/>
</mask>
<g mask="url(#mask2_8621_17755)">
<path d="M446.621 276.039C452.894 280.946 444.783 323.37 462.914 343.767L450.438 344.807L446.621 276.039Z" fill="url(#colorOne)"/>
</g>
</g>
<path d="M43.1241 342L584.98 342.883C586.1 342.883 587 343.61 587 344.507C587 345.397 586.1 346.124 584.98 346.124L43.1241 347C41.4007 347 40 345.886 40 344.507C40 343.121 41.4007 342 43.1241 342.007" fill="black"/>
<script type="text/ecmascript" xlink:href="https://dev.w3.org/SVG/modules/ref/master/ref2.js"></script></svg>
