<svg width="640" height="360" viewBox="0 0 640 360" fill="none" 
xmlns="http://www.w3.org/2000/svg" 
xmlns:xlink="http://www.w3.org/1999/xlink">
<defs>
<ref id="colorOne" param="c1" default="#242C4F" />
<ref id="colorTwo" param="c2" default="#9296A7"/>
</defs>
<path d="M184.102 300.301H469.502C470.002 300.301 470.502 300.701 470.502 301.301V301.901C470.502 302.401 470.102 302.901 469.502 302.901H184.102C183.602 302.901 183.102 302.501 183.102 301.901V301.301C183.102 300.801 183.602 300.301 184.102 300.301Z" fill="black"/>
<path d="M344.702 110.201C346.002 107.801 345.802 104.501 344.102 102.301C342.402 100.101 339.402 99.0013 336.702 99.5013L331.802 101.201C333.602 99.9013 335.102 98.1013 336.302 95.6013C338.902 90.2013 339.102 83.6013 337.002 78.0013C334.902 72.4013 332.802 66.7013 328.802 62.2013C323.702 56.5013 315.902 53.6013 308.202 53.0013C300.102 52.4013 291.902 54.3013 284.902 58.3013L281.102 62.8013C271.702 62.8013 266.102 69.4013 263.002 78.3013C259.902 87.2013 261.602 93.0013 265.702 101.501C265.902 101.901 266.102 102.201 266.302 102.601C263.702 103.401 261.802 106.701 262.902 109.301C260.602 110.201 258.802 112.401 258.402 114.901C258.002 117.401 259.102 120.001 261.002 121.601C259.402 122.501 259.202 124.801 260.102 126.401C260.902 128.001 262.502 129.001 264.102 130.001C267.002 131.901 269.902 133.701 272.802 135.601C275.902 137.601 279.002 139.501 282.502 140.401C286.002 141.201 295.502 139.301 298.002 136.701L275.902 114.101C279.702 116.701 284.502 118.201 289.002 117.501C296.702 116.401 302.502 109.901 309.702 107.001C313.002 105.701 316.502 105.201 320.102 104.701C320.002 104.901 319.902 105.101 319.802 105.301L320.302 105.101C320.302 105.001 320.402 104.801 320.402 104.701C321.102 104.601 321.802 104.501 322.602 104.401L320.302 105.201C317.402 115.101 315.702 125.401 315.102 135.801C315.002 137.501 315.002 139.301 315.902 140.701C317.002 142.401 319.302 143.101 321.302 143.001C325.702 142.801 329.802 139.701 331.202 135.501C333.802 137.201 337.702 136.701 339.902 134.401C342.102 132.101 342.302 128.201 340.402 125.701C344.302 126.401 348.402 123.801 349.502 120.001C350.502 116.001 348.402 111.601 344.702 110.201Z" fill="black"/>
<path d="M319.209 121.701L321.609 143.801L331.309 144.701L321.709 161.401C320.909 162.801 312.909 171.901 303.309 174.501C301.909 174.901 300.109 173.401 298.009 172.701C296.109 170.101 293.609 166.901 291.909 161.301C290.409 156.401 290.109 152.101 290.109 149.001C291.309 147.701 294.109 146.801 295.409 145.501L294.109 128.701L319.209 121.701Z" fill="white"/>
<path d="M266.203 100.001C266.203 120.901 275.603 135.401 294.103 135.401C304.703 135.401 320.403 137.301 320.003 125.001C319.903 123.301 322.303 119.601 323.903 118.501C333.603 112.401 331.603 107.001 329.103 100.401C321.603 80.9012 316.503 61.2012 297.903 61.2012C279.303 61.2012 266.203 79.1012 266.203 100.001Z" fill="white"/>
<path d="M295.104 146.902C292.804 147.602 290.604 146.802 290.804 150.002C291.104 157.502 293.604 165.202 297.904 171.402C299.304 173.402 301.404 175.202 304.004 174.402C311.504 172.402 317.604 166.702 322.504 160.902C318.004 166.702 309.904 174.902 302.104 175.402C297.604 174.902 294.704 168.902 292.804 165.302C291.704 162.902 290.704 160.402 289.904 157.902C289.004 154.702 288.004 151.102 288.604 147.702C288.904 145.902 291.004 144.802 292.504 144.602C293.804 144.402 295.404 143.402 296.004 145.002C296.304 145.802 295.904 146.602 295.104 146.902Z" fill="black"/>
<path d="M293.805 135.102C293.805 135.102 306.405 135.602 316.905 127.902C316.905 127.902 312.605 139.902 295.105 140.702L293.805 135.102Z" fill="black"/>
<path d="M322.703 114.402C322.703 114.402 322.903 114.502 323.203 114.702C323.503 114.802 324.103 114.902 324.703 114.702C325.903 114.202 326.803 112.202 326.803 110.202C326.803 109.202 326.503 108.202 326.103 107.402C325.703 106.602 325.203 106.002 324.503 105.902C323.903 105.802 323.503 106.202 323.303 106.502C323.203 106.802 323.203 107.102 323.203 107.102C323.203 107.102 322.903 106.902 323.003 106.402C323.003 106.202 323.203 105.902 323.403 105.702C323.703 105.502 324.103 105.302 324.503 105.402C325.403 105.402 326.203 106.202 326.703 107.102C327.203 108.002 327.503 109.102 327.503 110.302C327.503 112.602 326.403 114.802 324.803 115.402C324.003 115.602 323.303 115.402 323.003 115.202C322.803 114.602 322.703 114.402 322.703 114.402Z" fill="black"/>
<path d="M295.506 154.202C294.206 148.202 293.806 142.002 294.006 135.902L294.306 136.202C293.706 136.102 293.106 135.802 292.406 135.602C293.106 135.502 293.806 135.602 294.506 135.502C296.006 141.602 296.506 148.002 295.506 154.202Z" fill="black"/>
<path d="M332.106 83.6015C328.506 71.8015 319.606 61.1015 307.206 58.5015C294.906 55.7015 281.906 61.6015 274.806 72.0015C268.506 80.7015 266.306 91.8015 266.606 102.301C266.906 117.701 274.606 132.601 291.106 134.701C297.206 135.301 303.706 136.201 309.706 134.201L309.806 134.401C306.506 135.901 302.806 136.301 299.206 136.401C295.606 136.401 291.906 136.401 288.306 135.701C264.906 131.501 261.106 102.401 267.906 83.6015C270.806 76.0015 275.506 68.9015 281.906 63.9015C290.406 56.9015 302.606 54.1015 312.906 58.6015C323.106 62.9015 330.206 73.0015 332.406 83.6015C332.306 83.6015 332.106 83.6015 332.106 83.6015Z" fill="black"/>
<path d="M317.098 47.6004L316.898 47.4004C316.998 47.5004 316.998 47.6004 317.098 47.6004Z" fill="url(#colorOne)"/>
<path d="M317.998 39.2002C319.898 37.0002 323.598 35.8002 326.498 36.5002C330.798 37.6002 335.598 39.2002 340.298 39.7002C345.098 40.2002 346.398 48.1002 344.298 52.4002C342.998 55.1002 340.198 56.8002 337.298 57.4002C334.398 58.0002 331.298 57.5002 328.498 56.4002C323.898 54.7002 319.198 51.8002 316.998 47.4002C315.298 44.2002 315.398 42.2002 317.998 39.2002Z" fill="url(#colorTwo)"/>
<path d="M317.998 39.2008C317.998 39.2008 317.798 39.4008 317.398 39.8008C317.098 40.2008 316.598 40.8008 316.098 41.8008C315.698 42.7008 315.498 44.1008 315.898 45.5008C316.298 46.9008 317.098 48.4008 318.198 49.9008C320.498 52.9008 324.298 55.3008 328.898 56.9008C331.198 57.7008 333.798 58.2008 336.498 57.8008C339.198 57.5008 341.898 56.2008 343.598 53.9008C345.398 51.6008 345.698 48.6008 345.398 46.0008C345.198 44.7008 344.898 43.4008 344.198 42.2008C343.598 41.1008 342.598 40.1008 341.398 39.6008C340.798 39.4008 340.198 39.3008 339.598 39.3008C338.998 39.2008 338.498 39.1008 337.898 39.0008C336.798 38.8008 335.698 38.6008 334.698 38.3008C332.598 37.8008 330.698 37.3008 328.898 36.8008C327.998 36.6008 327.198 36.3008 326.398 36.2008C325.598 36.0008 324.798 36.0008 323.998 36.1008C322.498 36.2008 321.298 36.7008 320.398 37.2008C319.498 37.7008 318.898 38.2008 318.498 38.6008C318.298 38.8008 318.198 38.9008 318.098 39.1008C317.998 39.1008 317.998 39.1008 317.998 39.2008C318.098 39.3008 318.698 38.3008 320.598 37.4008C321.498 37.0008 322.698 36.6008 324.098 36.5008C324.798 36.5008 325.598 36.5008 326.298 36.7008C327.098 36.9008 327.898 37.1008 328.798 37.4008C330.498 37.9008 332.498 38.5008 334.498 39.0008C335.498 39.3008 336.598 39.5008 337.798 39.7008C338.398 39.8008 338.898 39.9008 339.498 40.0008C340.098 40.1008 340.698 40.1008 341.198 40.3008C342.298 40.7008 343.098 41.6008 343.698 42.6008C344.298 43.7008 344.598 44.9008 344.798 46.2008C345.098 48.7008 344.798 51.5008 343.098 53.7008C341.398 55.8008 338.898 57.1008 336.398 57.4008C333.898 57.7008 331.298 57.3008 329.098 56.5008C324.598 54.9008 320.798 52.6008 318.598 49.7008C317.498 48.3008 316.698 46.8008 316.298 45.5008C315.898 44.1008 315.998 42.9008 316.398 42.0008C317.198 40.0008 317.998 39.2008 317.998 39.2008Z" fill="black"/>
<path d="M317.098 47.6004L316.898 47.4004C316.998 47.5004 316.998 47.6004 317.098 47.6004Z" fill="white"/>
<path d="M281.8 66.6018C282.7 63.0018 286.6 61.5018 290.1 60.8018C297.3 59.3018 304.9 58.4018 312.1 60.2018C319.3 62.0018 326.1 66.7018 329.3 73.8018C332.9 82.0018 332.1 94.1018 330.4 103.002C328.1 100.002 324.9 98.6018 322.6 100.402C320.8 107.802 313.7 106.802 312 97.6018C311.4 94.3018 310.1 90.6018 307.4 88.7018C305.8 87.6018 303.8 87.5018 301.9 87.3018C293.6 86.3018 278.1 80.1018 274.7 71.9018C273.9 70.2018 281.4 68.5018 281.8 66.6018Z" fill="black"/>
<path d="M261.501 87.0999C258.101 82.9999 262.401 75.3999 265.701 71.0999C269.501 66.2999 275.501 61.2999 280.801 58.2999C286.701 54.8999 292.601 52.5999 299.001 50.2999C305.401 47.9999 312.601 47.4999 319.001 49.7999C326.501 52.4999 332.201 58.8999 335.401 66.2999C338.601 73.6999 339.201 81.7999 338.701 89.6999C338.301 95.5999 337.501 99.4999 335.701 104.7C335.701 104.7 331.801 100.9 327.601 97.4999C324.901 95.1999 322.401 92.7999 320.101 90.0999C314.701 83.7999 303.901 72.5999 294.101 71.2999C263.301 67.2999 261.501 87.0999 261.501 87.0999Z" fill="url(#colorTwo)"/>
<path d="M266.805 69.9007C266.805 69.9007 267.105 69.8007 267.605 69.5007C268.105 69.2007 268.805 68.7007 269.705 68.3007C271.605 67.3007 274.405 66.0007 278.205 65.2007C281.905 64.3007 286.505 64.0007 291.505 64.6007C296.505 65.2007 301.905 66.8007 307.205 69.3007C312.405 71.9007 317.105 75.0007 320.905 78.4007C324.705 81.7007 327.805 85.1007 330.205 88.1007C332.605 91.1007 334.405 93.6007 335.605 95.4007C336.205 96.2007 336.605 96.9007 337.005 97.4007C337.305 97.9007 337.505 98.1007 337.505 98.1007C337.505 98.1007 337.405 97.8007 337.105 97.3007C336.805 96.8007 336.405 96.1007 335.805 95.2007C334.605 93.4007 332.905 90.8007 330.505 87.8007C328.105 84.8007 325.105 81.3007 321.205 77.9007C317.405 74.5007 312.705 71.3007 307.405 68.7007C302.105 66.1007 296.605 64.6007 291.505 64.0007C286.405 63.4007 281.805 63.8007 278.005 64.8007C274.205 65.7007 271.405 67.1007 269.505 68.2007C268.505 68.7007 267.905 69.2007 267.405 69.5007C267.005 69.7007 266.805 69.9007 266.805 69.9007Z" fill="black"/>
<path d="M332.002 101.8C332.102 101.9 333.402 100.4 334.302 98.2C335.202 96 335.302 94 335.202 94C335.002 94 334.602 95.8 333.702 98C332.802 100.1 331.802 101.7 332.002 101.8Z" fill="black"/>
<path d="M325.701 96.2014C325.801 96.3014 327.301 94.7014 328.701 92.5014C330.101 90.2014 330.801 88.2014 330.701 88.1014C330.501 88.0014 329.601 89.9014 328.201 92.2014C326.901 94.3014 325.601 96.0014 325.701 96.2014Z" fill="black"/>
<path d="M319.797 90.9001C319.997 91.0001 320.997 88.8001 322.597 86.4001C324.197 84.0001 325.797 82.2001 325.597 82.1001C325.497 82.0001 323.697 83.6001 322.097 86.1001C320.497 88.6001 319.697 90.9001 319.797 90.9001Z" fill="black"/>
<path d="M314.303 83.6008C314.503 83.7008 315.303 82.0008 316.603 80.2008C317.903 78.4008 319.203 77.0008 319.103 76.9008C319.003 76.8008 317.503 77.9008 316.103 79.8008C314.703 81.8008 314.103 83.6008 314.303 83.6008Z" fill="black"/>
<path d="M307.604 77.6003C307.804 77.7003 308.404 76.0003 309.504 74.2003C310.604 72.4003 311.704 71.0003 311.604 70.9003C311.504 70.8003 310.104 72.0003 309.004 73.9003C307.804 75.8003 307.404 77.6003 307.604 77.6003Z" fill="black"/>
<path d="M300.504 73.7015C300.704 73.8015 301.304 72.3015 302.104 70.7015C302.904 69.0015 303.704 67.7015 303.604 67.6015C303.504 67.5015 302.404 68.7015 301.604 70.4015C300.704 72.1015 300.304 73.6015 300.504 73.7015Z" fill="black"/>
<path d="M294.005 64.6C293.905 64.5 292.605 65.6 291.805 67.4C291.005 69.3 291.105 70.9 291.305 70.9C291.505 70.9 291.705 69.4 292.405 67.6C293.105 65.9 294.105 64.7 294.005 64.6Z" fill="black"/>
<path d="M281.999 70.8015C282.199 70.8015 282.599 69.2015 283.499 67.4015C284.399 65.6015 285.399 64.2015 285.299 64.1015C285.199 64.0015 283.899 65.2015 282.999 67.1015C281.999 69.0015 281.799 70.7015 281.999 70.8015Z" fill="black"/>
<path d="M274.002 72.4007C274.202 72.4007 274.502 70.8007 275.002 69.0007C275.602 67.1007 276.202 65.6007 276.002 65.6007C275.902 65.5007 275.002 66.9007 274.402 68.9007C273.802 70.7007 273.802 72.4007 274.002 72.4007Z" fill="black"/>
<path d="M267.4 76.2008C267.6 76.2008 267.4 74.4008 267.8 72.3008C268.2 70.2008 269 68.6008 268.9 68.5008C268.8 68.4008 267.7 69.9008 267.2 72.1008C266.8 74.4008 267.3 76.2008 267.4 76.2008Z" fill="black"/>
<path d="M263.103 76C262.903 76 262.903 76.9 263.003 78C263.103 79.1 263.403 80 263.503 80C263.703 80 263.703 79.1 263.603 78C263.503 76.9 263.303 76 263.103 76Z" fill="black"/>
<path d="M325.201 52.801C325.301 52.901 326.801 51.501 328.901 50.201C331.001 48.901 332.901 48.101 332.801 47.901C332.801 47.701 330.701 48.301 328.601 49.601C326.401 51.101 325.101 52.701 325.201 52.801Z" fill="black"/>
<path d="M325.2 52.5012C325.4 52.6012 326 51.1012 326.6 49.3012C327.2 47.5012 327.6 46.0012 327.4 45.9012C327.2 45.8012 326.6 47.3012 326 49.1012C325.4 50.9012 325 52.4012 325.2 52.5012Z" fill="black"/>
<path d="M322.898 51.5004C323.098 51.5004 322.898 50.3004 322.598 48.9004C322.298 47.5004 321.898 46.4004 321.698 46.4004C321.498 46.4004 321.698 47.6004 321.998 49.0004C322.298 50.4004 322.698 51.5004 322.898 51.5004Z" fill="black"/>
<path d="M318.8 70.0004C319 70.0004 319.1 66.3004 319.1 61.7004C319.1 57.1004 318.9 53.4004 318.8 53.4004C318.6 53.4004 318.5 57.1004 318.5 61.7004C318.5 66.3004 318.6 70.0004 318.8 70.0004Z" fill="white"/>
<path d="M312 61.9001C312 62.1001 315.2 62.1001 319.1 62.0001C323 61.9001 326.1 61.6001 326.1 61.4001C326.1 61.2001 322.9 61.2001 319 61.3001C315.1 61.5001 312 61.8001 312 61.9001Z" fill="white"/>
<path d="M313.605 57.4005C313.505 57.5005 315.905 59.8005 319.105 62.4005C322.305 65.0005 324.905 67.0005 325.005 66.9005C325.105 66.8005 322.705 64.5005 319.505 61.9005C316.305 59.2005 313.705 57.2005 313.605 57.4005Z" fill="white"/>
<path d="M313.903 68.0002C314.003 68.1002 314.603 67.4002 315.703 66.3002C316.703 65.2002 318.003 63.6002 319.403 61.7002C320.803 59.8002 321.903 58.1002 322.703 56.8002C323.503 55.5002 323.903 54.7002 323.803 54.6002C323.703 54.5002 323.203 55.3002 322.303 56.5002C321.403 57.7002 320.203 59.4002 318.803 61.3002C317.403 63.1002 316.203 64.8002 315.303 66.0002C314.303 67.2002 313.803 68.0002 313.903 68.0002Z" fill="white"/>
<path d="M330.598 79.6004C330.698 79.6004 330.798 77.3004 330.798 74.5004C330.798 71.7004 330.698 69.4004 330.598 69.4004C330.498 69.4004 330.398 71.7004 330.398 74.5004C330.398 77.3004 330.498 79.6004 330.598 79.6004Z" fill="white"/>
<path d="M326.402 74.6012C326.402 74.7012 328.402 74.7012 330.802 74.7012C333.202 74.6012 335.202 74.5012 335.202 74.3012C335.202 74.2012 333.202 74.2012 330.802 74.2012C328.302 74.3012 326.302 74.5012 326.402 74.6012Z" fill="white"/>
<path d="M327.301 71.8003C327.201 71.9003 328.801 73.3003 330.701 74.9003C332.701 76.5003 334.301 77.8003 334.401 77.7003C334.501 77.6003 332.901 76.2003 331.001 74.6003C329.101 73.0003 327.401 71.7003 327.301 71.8003Z" fill="white"/>
<path d="M327.5 78.4016C327.5 78.4016 328 78.0016 328.6 77.3016C329.2 76.6016 330.1 75.6016 330.9 74.5016C331.8 73.3016 332.5 72.3016 333 71.5016C333.5 70.7016 333.8 70.2016 333.7 70.1016C333.6 70.1016 333.3 70.5016 332.8 71.3016C332.3 72.1016 331.5 73.1016 330.7 74.2016C329.9 75.3016 329.1 76.4016 328.5 77.1016C327.8 77.9016 327.5 78.4016 327.5 78.4016Z" fill="white"/>
<path d="M300.7 61.7C300.8 61.7 300.9 59.4 300.9 56.6C300.9 53.8 300.8 51.5 300.7 51.5C300.6 51.5 300.5 53.8 300.5 56.6C300.5 59.4 300.6 61.7 300.7 61.7Z" fill="white"/>
<path d="M296.398 56.7008C296.398 56.8008 298.398 56.8008 300.798 56.8008C303.198 56.7008 305.198 56.6008 305.198 56.4008C305.198 56.3008 303.198 56.3008 300.798 56.3008C298.398 56.5008 296.398 56.6008 296.398 56.7008Z" fill="white"/>
<path d="M297.395 53.8999C297.295 53.9999 298.895 55.3999 300.795 56.9999C302.795 58.5999 304.395 59.8999 304.495 59.7999C304.595 59.6999 302.995 58.2999 301.095 56.6999C299.095 55.0999 297.495 53.7999 297.395 53.8999Z" fill="white"/>
<path d="M297.602 60.4992C297.602 60.4992 298.102 60.0992 298.702 59.3992C299.302 58.6992 300.202 57.6992 301.002 56.5992C301.902 55.3992 302.602 54.3992 303.102 53.5992C303.602 52.7992 303.902 52.2992 303.802 52.1992C303.802 52.1992 303.402 52.5992 302.902 53.3992C302.402 54.1992 301.602 55.1992 300.802 56.2992C300.002 57.3992 299.202 58.4992 298.602 59.1992C297.902 59.9992 297.602 60.4992 297.602 60.4992Z" fill="white"/>
<path d="M323.198 119.201C322.598 119.601 322.398 120.401 322.198 121.101C321.098 124.701 320.998 128.401 321.398 132.201C321.598 135.301 322.398 142.601 322.598 145.801C322.898 148.801 323.098 151.901 323.198 154.901C321.398 149.001 320.398 143.001 319.798 136.901C319.498 133.101 319.098 129.101 319.998 125.301C320.498 123.401 321.098 121.501 322.198 119.901C322.498 119.601 322.798 119.201 323.198 119.201Z" fill="black"/>
<path d="M288 144.8C288 144.8 304.1 148.9 313.9 142.1C313.9 142.1 304.9 152.4 288.7 150.2L288 144.8Z" fill="black"/>
<path d="M326 116.3C327.7 109.8 329.3 103.2 329.8 96.5Z" fill="white"/>
<path d="M295.298 146.4L338.698 148.7L342.298 165.1C342.298 165.1 330.298 174.7 329.098 175.1C327.898 175.5 300.598 179.3 300.598 179.3C300.598 179.3 271.198 165.6 271.598 165.7C271.998 165.8 295.298 146.4 295.298 146.4Z" fill="white"/>
<path d="M300.501 180.3L300.301 180.2C300.301 180.2 293.001 176.8 285.801 173.4C282.201 171.7 278.501 170 275.801 168.7C273.601 167.7 272.301 167 271.601 166.6C271.501 166.6 271.501 166.6 271.401 166.6V166.5C270.601 166 270.701 165.8 270.801 165.4L271.101 164.6L271.501 164.7C273.601 163.2 286.301 152.7 294.701 145.6L295.001 145.4L339.401 147.8L343.201 165.4L342.801 165.7C340.001 168 330.601 175.5 329.301 175.9C328.101 176.3 305.201 179.5 300.701 180.2L300.501 180.3ZM273.301 165.6C277.701 167.7 292.301 174.5 300.701 178.4C311.501 176.9 327.701 174.6 328.801 174.3C329.601 174 335.801 169.2 341.301 164.8L338.001 149.6L295.601 147.3C281.401 159.2 275.701 163.9 273.301 165.6Z" fill="black"/>
<path d="M372.397 300.601C372.697 293.901 371.797 287.001 366.597 283.201C372.397 274.001 371.597 261.201 364.797 252.701C368.997 249.401 369.497 243.301 368.597 238.001C367.797 232.801 365.997 227.401 367.097 222.201C367.797 218.801 369.597 215.801 370.197 212.401C370.997 207.901 369.497 203.401 369.097 198.901C368.497 192.701 369.997 186.501 369.397 180.301C368.797 174.101 362.197 160.301 356.097 159.401C356.097 159.401 346.597 149.901 340.097 153.501C340.097 153.501 339.997 143.401 334.797 142.001C329.697 140.601 321.197 143.001 316.197 144.901C307.497 148.201 292.997 150.401 284.297 153.701C280.597 155.101 279.097 156.001 277.597 159.201C276.497 161.401 278.797 168.201 278.797 168.201C275.197 167.401 266.297 173.601 263.097 178.401C259.597 183.501 260.697 191.101 265.397 195.101C258.997 201.601 256.897 211.901 260.097 220.301C261.197 223.101 262.797 225.801 262.997 228.801C263.297 232.501 261.397 236.001 260.697 239.701C259.597 245.201 261.497 251.201 265.497 255.201C256.897 263.401 256.097 278.401 263.797 287.401C261.497 291.601 259.097 295.901 257.797 300.401" fill="url(#colorTwo)"/>
<g opacity="0.22">
<path d="M363.194 196.702C362.994 195.502 362.494 185.002 361.394 184.502C359.894 183.802 358.494 194.402 357.494 195.702C351.294 203.702 345.694 212.202 338.994 219.802C332.294 227.402 324.194 234.102 314.494 237.302C306.294 240.002 298.794 224.502 290.294 223.302C284.894 222.602 277.894 236.902 273.094 239.202L273.494 241.702C275.794 247.402 280.994 251.302 286.594 253.802C292.194 256.302 298.194 257.602 303.994 259.502C308.394 261.002 312.794 262.802 317.394 263.002C322.094 263.202 326.794 261.602 330.394 258.602C333.694 255.902 335.894 252.202 338.494 248.802C342.594 243.302 347.594 238.502 351.794 233.002C355.294 228.402 358.094 223.202 360.194 217.802C362.694 211.302 364.094 203.902 363.194 196.702Z" fill="url(#colorOne)"/>
</g>
<path d="M367.195 284.002C367.195 284.002 366.295 285.202 364.095 286.602C362.995 287.402 361.495 288.102 359.795 288.802C357.995 289.502 355.995 290.102 353.595 290.502C348.895 291.402 343.195 291.502 336.995 291.502C330.795 291.502 323.895 291.602 316.695 291.502C302.295 291.402 289.195 290.802 279.795 290.002C275.095 289.602 271.295 289.202 268.695 288.902C267.395 288.702 266.395 288.602 265.695 288.502C264.995 288.402 264.695 288.302 264.695 288.302C264.695 288.302 265.095 288.302 265.795 288.402C266.595 288.502 267.595 288.602 268.795 288.702C271.395 288.902 275.195 289.302 279.895 289.602C289.295 290.302 302.395 290.802 316.795 290.902C323.995 290.902 330.895 290.902 337.095 291.002C343.295 291.002 348.995 291.002 353.595 290.202C355.895 289.802 357.995 289.302 359.695 288.602C361.395 287.902 362.895 287.202 363.995 286.502C366.095 285.002 367.095 284.002 367.195 284.002Z" fill="black"/>
<path d="M364.597 252.9C364.597 252.9 364.297 253 363.597 253.2C362.897 253.4 361.997 253.7 360.797 254C359.597 254.3 358.097 254.7 356.297 255.1C354.497 255.5 352.497 256 350.297 256.4C348.097 256.8 345.597 257.3 342.997 257.7C340.397 258.2 337.497 258.5 334.597 258.9C328.597 259.6 321.997 260.1 315.097 260.3C308.197 260.5 301.597 260.2 295.597 259.9C292.597 259.7 289.797 259.5 287.097 259.1C284.397 258.8 281.997 258.5 279.697 258.1C277.397 257.8 275.397 257.4 273.697 257.1C271.897 256.8 270.397 256.5 269.197 256.2C267.997 255.9 267.097 255.7 266.297 255.6C265.597 255.4 265.297 255.4 265.297 255.3C265.297 255.3 265.697 255.3 266.297 255.4C266.997 255.5 267.997 255.7 269.197 255.9C270.397 256.1 271.997 256.4 273.797 256.7C275.597 257 277.597 257.3 279.797 257.6C281.997 257.9 284.497 258.2 287.197 258.5C289.797 258.8 292.697 259 295.697 259.2C301.697 259.6 308.297 259.7 315.197 259.6C322.097 259.4 328.697 258.9 334.597 258.2C337.597 257.8 340.397 257.5 342.997 257.1C345.597 256.7 348.097 256.3 350.297 255.9C352.497 255.5 354.497 255.1 356.297 254.7C358.097 254.3 359.597 254 360.797 253.7C361.997 253.4 362.897 253.2 363.597 253C364.297 252.9 364.597 252.9 364.597 252.9Z" fill="black"/>
<path d="M349.195 224.001C349.195 223.801 352.995 223.501 357.695 222.901C362.395 222.301 366.195 221.701 366.295 221.901C366.295 222.101 362.595 223.001 357.795 223.601C353.095 224.201 349.195 224.101 349.195 224.001Z" fill="black"/>
<path d="M289.598 188.901C289.598 188.901 289.498 188.401 289.298 187.501C289.198 186.601 288.998 185.201 288.898 183.601C288.598 180.301 288.398 175.701 288.398 170.601C288.398 165.501 288.598 160.901 288.798 157.601C288.898 155.901 288.998 154.601 289.098 153.701C289.198 152.801 289.298 152.301 289.298 152.301C289.298 152.301 289.398 152.801 289.398 153.701C289.398 154.801 289.398 156.101 289.298 157.601C289.198 160.901 289.098 165.501 289.098 170.601C289.098 175.701 289.198 180.201 289.398 183.601C289.498 185.101 289.498 186.501 289.598 187.501C289.598 188.401 289.598 188.901 289.598 188.901Z" fill="black"/>
<path d="M340.095 153.701C340.095 153.701 339.895 153.801 339.495 154.001C338.995 154.201 338.495 154.401 337.795 154.701C336.295 155.301 334.095 156.101 331.395 157.101C325.995 159.101 318.495 161.601 309.995 163.901C301.495 166.101 293.695 167.701 287.895 168.101C286.495 168.201 285.195 168.301 283.995 168.301C282.895 168.301 281.895 168.401 281.095 168.301C280.395 168.201 279.795 168.201 279.295 168.201C278.895 168.201 278.695 168.101 278.695 168.101C278.695 168.101 278.895 168.101 279.295 168.101C279.795 168.101 280.395 168.101 281.095 168.101C281.895 168.101 282.895 168.001 283.995 168.001C285.095 168.001 286.395 167.801 287.795 167.701C293.495 167.101 301.295 165.601 309.695 163.301C318.095 161.001 325.695 158.601 331.095 156.701C333.695 155.801 335.895 155.001 337.495 154.501C338.195 154.301 338.795 154.101 339.295 153.901C339.895 153.701 340.095 153.701 340.095 153.701Z" fill="black"/>
<path d="M291.096 300.501C290.996 300.501 291.696 300.601 291.896 300.501C291.696 295.901 291.396 290.601 291.296 285.201C291.196 275.501 291.296 266.801 291.396 260.401C291.496 257.301 291.496 254.801 291.596 252.901C291.596 252.101 291.596 251.401 291.596 250.901C291.596 250.401 291.596 250.201 291.596 250.201C291.596 250.201 291.496 250.401 291.496 250.901C291.496 251.401 291.396 252.101 291.296 252.901C291.196 254.701 290.996 257.201 290.896 260.401C290.596 266.701 290.396 275.501 290.596 285.201C290.696 290.701 290.896 295.901 291.096 300.501Z" fill="black"/>
<path d="M321.102 140.902C324.402 139.502 328.002 139.002 331.602 138.702C336.202 138.302 341.402 138.602 344.502 142.002C347.502 145.202 347.802 150.302 351.202 153.002C353.802 155.102 357.402 155.102 360.802 155.702C368.002 156.902 374.602 161.202 379.102 167.002C383.602 172.802 386.102 180.102 386.602 187.402C387.302 196.002 385.502 205.202 389.502 212.802C393.102 219.602 400.502 223.502 407.802 225.902C402.902 233.102 376.302 247.802 368.002 250.702L363.202 186.802C363.202 186.802 334.902 151.202 324.402 151.202L321.102 140.902Z" fill="url(#colorOne)"/>
<path d="M321 140.901C326.5 138.701 332.5 137.901 338.4 138.501C350.7 140.401 345.2 153.401 357.1 154.501C372.9 155.401 384.5 168.201 386.7 183.401C388.7 196.501 383.3 210.701 396.1 219.801C399.8 222.501 404 224.201 408.3 225.601C407.6 226.501 406.9 227.401 406 228.201C401 233.001 395.1 236.701 389.2 240.301C382.4 244.401 375.6 248.301 368.2 251.301L367.3 251.701L367.2 250.701C365.9 234.801 363.4 202.701 362.3 186.801L362.5 187.301C354.2 177.001 345.5 166.701 335.5 157.901C332.1 155.201 328.5 151.801 324.1 151.401L324 151.201L321 140.901ZM321.2 140.901L324.7 151.001L324.4 150.801C329.1 151.201 332.7 154.401 336.2 157.101C346.5 165.701 355.3 175.901 363.9 186.201C365.6 202.201 367.6 234.501 368.8 250.601L367.8 249.901C375 247.101 382 243.301 388.8 239.401C393.9 236.401 398.9 233.301 403.5 229.701C405 228.501 406.5 227.101 407.6 225.601L407.8 226.101C402.3 224.201 396.8 221.601 392.6 217.301C380.3 204.201 392.8 186.301 378.9 167.901C374.6 162.201 368.4 157.901 361.3 156.501C358.4 155.901 355.4 155.901 352.6 154.601C345.2 150.901 348.3 140.901 338.3 139.301C332.7 138.501 326.6 139.201 321.2 140.901Z" fill="black"/>
<path d="M386.197 183.701C386.197 183.701 386.197 183.801 386.097 183.901C385.997 184.001 385.897 184.301 385.697 184.501C385.297 185.001 384.697 185.701 383.697 186.301C382.797 186.901 381.497 187.501 379.997 187.701C378.497 187.901 376.897 187.901 375.197 187.801C373.497 187.701 371.897 187.601 370.397 187.601C368.897 187.601 367.597 187.801 366.597 188.001C364.497 188.501 363.397 189.501 363.297 189.401C363.297 189.401 363.397 189.301 363.497 189.201C363.597 189.101 363.797 188.901 364.097 188.801C364.597 188.401 365.397 188.001 366.497 187.701C367.597 187.401 368.897 187.201 370.397 187.101C371.897 187.101 373.497 187.201 375.197 187.301C376.897 187.401 378.497 187.401 379.897 187.201C381.297 187.001 382.597 186.501 383.497 185.901C385.497 185.001 386.097 183.701 386.197 183.701Z" fill="white"/>
<path d="M386.902 203.002C386.902 203.002 386.602 203.202 386.102 203.502C385.802 203.702 385.502 203.902 385.102 204.002C384.702 204.202 384.302 204.402 383.802 204.602C382.802 205.102 381.602 205.502 380.202 205.902C378.802 206.302 377.202 206.602 375.502 206.702C373.802 206.802 372.202 206.802 370.802 206.702C369.402 206.602 368.102 206.302 367.002 206.002C366.502 205.902 366.002 205.702 365.602 205.602C365.202 205.502 364.802 205.302 364.502 205.202C363.902 205.002 363.602 204.802 363.602 204.802C363.602 204.702 364.902 205.202 367.002 205.702C368.102 205.902 369.302 206.102 370.802 206.302C372.202 206.402 373.802 206.402 375.502 206.302C377.102 206.102 378.702 205.902 380.102 205.502C381.502 205.102 382.702 204.702 383.702 204.302C385.702 203.602 386.902 202.902 386.902 203.002Z" fill="white"/>
<path d="M396.497 220.402C396.497 220.402 396.097 220.402 395.297 220.502C394.497 220.602 393.397 220.802 392.097 221.502C390.797 222.202 389.497 223.202 387.997 224.402C386.497 225.602 384.997 227.002 383.097 228.202C381.197 229.402 379.297 230.202 377.397 230.702C375.597 231.202 373.797 231.302 372.397 231.302C370.997 231.202 369.797 230.902 368.997 230.702C368.597 230.602 368.297 230.402 368.097 230.402C367.897 230.302 367.797 230.302 367.797 230.202C367.797 230.102 369.497 230.902 372.297 231.002C373.697 231.002 375.397 230.902 377.197 230.402C378.997 229.902 380.897 229.102 382.697 227.902C384.497 226.702 386.097 225.302 387.497 224.202C388.997 223.002 390.397 222.002 391.697 221.402C392.997 220.802 394.197 220.502 394.997 220.502C395.397 220.502 395.697 220.502 395.897 220.502C396.397 220.402 396.497 220.402 396.497 220.402Z" fill="white"/>
<path d="M379.097 167.002C379.097 167.002 379.097 167.102 378.997 167.302C378.897 167.502 378.797 167.702 378.697 168.002C378.397 168.602 377.697 169.402 376.697 170.102C375.697 170.802 374.297 171.402 372.697 171.802C371.097 172.202 369.297 172.302 367.397 172.402C365.497 172.502 363.697 172.502 362.097 172.702C360.497 172.902 359.097 173.302 357.997 173.802C355.797 174.802 354.797 176.102 354.797 176.002C354.797 176.002 354.797 175.902 354.997 175.802C355.097 175.702 355.297 175.502 355.497 175.202C355.997 174.702 356.797 174.102 357.897 173.502C358.997 173.002 360.497 172.502 362.097 172.302C363.697 172.002 365.497 172.002 367.397 171.902C369.297 171.802 370.997 171.702 372.597 171.302C374.197 171.002 375.497 170.402 376.497 169.702C377.497 169.002 378.197 168.302 378.497 167.702C378.897 167.302 379.097 167.002 379.097 167.002Z" fill="white"/>
<path d="M344.5 165.502C344.5 165.502 344.6 165.602 344.7 165.602C344.8 165.602 345 165.602 345.3 165.502C345.5 165.402 345.8 165.202 346.1 164.902C346.4 164.602 346.7 164.302 347.1 164.002C348.6 162.702 350.6 161.002 353.2 159.302C355.7 157.602 358.3 156.602 360.2 156.202C361.2 156.002 362 155.902 362.5 155.902C363 155.902 363.4 155.902 363.4 155.902C363.4 156.002 362.2 156.002 360.3 156.502C358.4 157.002 355.9 158.002 353.5 159.702C351 161.302 348.9 163.102 347.4 164.302C347 164.602 346.7 164.902 346.4 165.102C346.1 165.302 345.8 165.602 345.6 165.702C345.3 165.802 345.1 165.802 344.9 165.702C344.5 165.602 344.5 165.502 344.5 165.502Z" fill="white"/>
<path d="M345.098 144.201C345.098 144.201 344.898 144.501 344.498 144.901C344.098 145.301 343.498 145.901 342.598 146.501C341.698 147.101 340.498 147.701 339.098 147.901C337.698 148.201 336.098 148.001 334.498 147.701C332.898 147.401 331.398 147.001 329.998 146.901C328.598 146.801 327.398 146.901 326.298 147.001C324.198 147.301 322.998 147.801 322.898 147.701C322.898 147.701 323.198 147.501 323.798 147.301C324.398 147.101 325.198 146.801 326.298 146.701C327.398 146.501 328.598 146.401 330.098 146.501C331.498 146.601 333.098 146.901 334.598 147.201C336.198 147.501 337.698 147.701 339.098 147.501C340.498 147.301 341.598 146.701 342.498 146.201C344.198 145.201 344.998 144.201 345.098 144.201Z" fill="white"/>
<path d="M291.297 145.902C293.497 147.402 297.897 145.402 300.397 144.602C305.497 143.002 309.997 140.002 314.797 137.902C319.697 135.802 325.497 134.802 330.197 137.402C331.197 138.002 332.197 138.802 332.297 140.002C332.397 140.902 331.897 141.802 331.597 142.602C329.797 147.502 332.897 152.802 333.697 158.002C334.897 165.402 330.797 173.302 324.097 176.702C320.297 178.602 315.797 179.102 311.497 178.902C303.097 178.502 294.597 175.302 288.997 169.102C287.697 167.702 286.597 166.102 286.097 164.302C285.497 162.202 285.697 160.002 286.097 157.902C287.097 152.702 285.597 149.902 288.897 146.002" fill="url(#colorOne)"/>
<path d="M290.799 145.302C293.599 146.602 296.899 145.202 299.699 144.402C309.599 141.102 319.899 130.802 330.699 136.902C335.099 139.702 331.399 142.102 331.499 145.802C331.499 152.002 335.499 157.802 333.899 164.202C332.499 172.302 325.599 178.602 317.399 179.402C307.899 180.502 297.799 178.102 290.599 171.702C288.199 169.502 285.899 166.902 285.299 163.602C284.599 160.302 285.899 157.302 286.099 154.202C286.199 151.102 286.699 147.702 288.999 145.402L289.099 145.502C287.199 148.102 287.099 151.202 287.099 154.302C287.099 157.302 285.999 160.402 286.699 163.402C287.299 166.202 289.499 168.502 291.699 170.502C298.599 176.402 308.199 178.902 317.199 178.002C323.299 177.502 328.899 174.002 331.599 168.502C337.699 157.102 327.699 150.802 331.499 141.302C332.499 138.302 327.899 137.302 325.799 136.902C319.699 136.102 313.899 139.102 308.599 141.802C304.399 143.902 299.899 145.702 295.199 146.302C293.699 146.402 291.899 146.602 290.599 145.602C290.699 145.402 290.799 145.302 290.799 145.302Z" fill="black"/>
<path d="M327.202 146.201C327.202 146.201 326.802 146.501 326.202 147.001C325.502 147.501 324.502 148.201 323.202 149.101C320.602 150.801 316.902 152.801 312.502 154.501C308.102 156.201 304.002 157.301 301.002 157.801C299.502 158.001 298.202 158.101 297.402 158.001C297.002 158.001 296.602 157.901 296.402 157.801C296.202 157.701 296.102 157.701 296.102 157.701C296.102 157.701 296.602 157.801 297.402 157.801C298.202 157.901 299.502 157.801 301.002 157.501C304.002 156.901 308.102 155.801 312.402 154.101C316.702 152.401 320.502 150.401 323.102 148.801C324.402 148.001 325.402 147.301 326.202 146.901C326.802 146.401 327.202 146.201 327.202 146.201Z" fill="black"/>
<path d="M318.402 158.201C318.402 158.201 318.102 158.401 317.602 158.601C317.102 158.801 316.402 159.101 315.402 159.401C313.502 160.001 310.902 160.701 307.902 161.001C304.902 161.301 302.102 161.101 300.202 160.801C299.202 160.701 298.402 160.501 297.902 160.401C297.402 160.301 297.102 160.201 297.102 160.201C297.102 160.101 298.302 160.401 300.302 160.601C302.202 160.801 305.002 160.901 307.902 160.601C310.902 160.301 313.502 159.701 315.402 159.201C317.302 158.601 318.402 158.201 318.402 158.201Z" fill="black"/>
<path d="M304.295 177.902C304.295 177.902 304.095 177.702 303.795 177.402C303.495 177.002 303.195 176.502 302.795 175.802C302.395 175.102 302.095 174.202 301.795 173.102C301.495 172.102 301.295 170.902 301.195 169.602C301.195 168.302 301.295 167.202 301.395 166.102C301.595 165.002 301.895 164.102 302.195 163.302C302.495 162.502 302.795 162.002 303.095 161.602C303.295 161.202 303.495 161.002 303.495 161.002C303.595 161.002 303.095 161.902 302.495 163.402C302.195 164.202 301.995 165.102 301.795 166.102C301.595 167.102 301.595 168.302 301.595 169.502C301.695 170.702 301.895 171.902 302.095 172.902C302.395 173.902 302.695 174.802 302.995 175.502C303.795 177.002 304.395 177.902 304.295 177.902Z" fill="white"/>
<path d="M307.896 155.902C307.996 155.802 308.596 157.002 308.496 158.502C308.396 160.002 307.596 161.102 307.496 161.002C307.396 160.902 307.996 159.902 308.096 158.502C308.096 157.002 307.696 155.902 307.896 155.902Z" fill="white"/>
<path d="M299.9 145.002C300 145.002 299.4 145.602 299 146.702C298.6 147.802 298.4 149.402 298.4 151.202C298.3 154.802 299.5 157.602 299.3 157.702C299.3 157.702 298.9 157.102 298.6 155.902C298.3 154.702 298 153.102 298 151.202C298 149.402 298.3 147.702 298.8 146.602C299.2 145.402 299.9 145.002 299.9 145.002Z" fill="white"/>
<path d="M317.602 152.102C317.602 152.102 317.002 151.502 316.302 150.402C315.602 149.302 314.902 147.602 314.502 145.602C314.102 143.602 314.202 141.802 314.402 140.502C314.602 139.202 314.902 138.502 314.902 138.502C315.002 138.502 314.102 141.702 314.902 145.502C315.702 149.402 317.802 152.002 317.602 152.102Z" fill="white"/>
<path d="M320.402 157.901C320.302 157.901 320.902 156.201 320.902 154.101C321.002 152.001 320.402 150.401 320.502 150.301C320.602 150.201 321.302 151.901 321.302 154.101C321.302 156.401 320.502 158.001 320.402 157.901Z" fill="white"/>
<path d="M322.398 175.802C322.398 175.802 322.198 175.702 321.798 175.402C321.398 175.102 320.898 174.702 320.298 174.102C319.098 172.902 317.698 171.002 316.998 168.502C316.298 166.002 316.398 163.602 316.798 162.002C316.998 161.202 317.198 160.502 317.398 160.102C317.598 159.702 317.698 159.502 317.698 159.502C317.798 159.502 317.298 160.502 316.998 162.102C316.698 163.702 316.598 166.002 317.298 168.402C317.998 170.802 319.298 172.702 320.498 173.902C321.598 175.202 322.498 175.802 322.398 175.802Z" fill="white"/>
<path d="M328.8 146.201C328.9 146.201 328.1 147.601 328.6 150.001C328.8 151.201 329.3 152.501 329.9 154.001C330.5 155.501 331.2 157.201 331.5 159.001C332.1 162.701 331.4 166.201 330.5 168.401C330 169.501 329.5 170.401 329.2 171.001C328.8 171.601 328.6 171.901 328.6 171.801C328.5 171.801 329.4 170.501 330.3 168.301C331.1 166.101 331.8 162.701 331.2 159.001C330.9 157.201 330.3 155.501 329.7 154.101C329.1 152.601 328.6 151.201 328.5 150.001C328.3 148.801 328.4 147.801 328.6 147.101C328.7 146.801 328.8 146.501 328.9 146.401C328.7 146.301 328.8 146.201 328.8 146.201Z" fill="white"/>
<path d="M290.395 170.201C290.395 170.201 290.195 169.901 289.995 169.201C289.895 168.901 289.795 168.501 289.595 168.001C289.495 167.501 289.295 167.001 289.195 166.401C288.895 165.201 288.795 163.801 288.695 162.201C288.595 160.601 288.695 158.901 288.895 157.101C289.095 155.301 289.495 153.601 289.995 152.101C290.495 150.601 290.995 149.301 291.595 148.201C291.795 147.701 292.095 147.201 292.395 146.801C292.595 146.401 292.895 146.201 291.895 148.401C291.395 149.501 290.895 150.801 290.395 152.301C289.995 153.801 289.595 155.501 289.395 157.301C289.195 159.101 289.095 160.801 289.195 162.401C289.295 164.001 289.395 165.401 289.695 166.501C289.995 168.801 290.395 170.201 290.395 170.201Z" fill="white"/>
<path d="M265.705 114.101C265.705 114.101 263.005 111.301 260.605 114.101C258.205 116.901 258.505 123.701 263.005 130.601C267.605 137.501 265.805 163.501 265.805 163.501L292.805 153.401L294.705 161.701C294.705 161.701 300.205 158.701 303.705 153.401C307.205 148.101 301.905 141.401 300.805 137.201C299.705 133.001 290.005 126.301 287.105 121.901C284.205 117.601 277.105 108.701 265.705 114.101Z" fill="white"/>
<path d="M265.705 114.101C265.705 114.101 263.005 111.301 260.605 114.101C258.205 116.901 258.505 123.701 263.005 130.601C267.605 137.501 265.805 163.501 265.805 163.501L292.805 153.401L294.705 161.701C294.705 161.701 300.205 158.701 303.705 153.401C307.205 148.101 301.905 141.401 300.805 137.201C299.705 133.001 290.005 126.301 287.105 121.901C284.205 117.601 277.105 108.701 265.705 114.101Z" fill="white"/>
<path d="M264.806 164.802L264.906 163.402C264.906 163.102 266.606 137.602 262.306 131.102C258.606 125.502 256.606 117.502 259.906 113.502C260.806 112.502 261.706 112.002 262.906 111.902C264.206 111.902 265.306 112.502 265.906 113.002C274.206 109.302 281.806 112.202 287.806 121.502C289.006 123.302 291.406 125.602 293.806 127.802C297.506 131.202 300.906 134.402 301.606 137.102C301.906 138.202 302.506 139.502 303.106 140.902C304.906 144.802 307.106 149.702 304.306 153.902C300.806 159.302 295.206 162.302 295.006 162.502L294.006 163.102L292.106 154.702L264.806 164.802ZM263.006 113.802C262.306 113.802 261.806 114.102 261.306 114.702C259.206 117.202 259.506 123.702 263.806 130.202C267.906 136.402 267.106 156.802 266.806 162.302L293.406 152.302L295.206 160.402C296.906 159.302 300.506 156.702 302.906 153.002C305.106 149.602 303.206 145.402 301.506 141.702C300.806 140.202 300.206 138.802 299.906 137.602C299.406 135.402 295.806 132.102 292.606 129.202C290.006 126.802 287.606 124.502 286.306 122.602C282.406 116.602 275.706 110.402 266.106 115.002L265.506 115.302L265.106 114.802C265.006 114.702 264.106 113.802 263.006 113.802Z" fill="black"/>
<path d="M283.706 175.403C283.706 175.403 276.106 159.203 275.106 156.203C274.006 153.203 269.606 143.303 270.106 141.403C270.606 139.603 273.306 141.403 273.306 141.403C273.306 141.403 268.006 131.203 269.606 129.003C270.906 127.303 272.406 128.803 272.406 128.803C272.406 128.803 269.106 122.903 271.906 121.203C273.306 120.303 275.806 123.803 275.806 123.803C275.806 123.803 278.106 121.203 280.206 124.503C282.306 127.703 291.106 142.103 291.106 142.103C291.106 142.103 290.606 135.303 291.806 131.203C292.606 128.403 296.706 126.903 296.906 135.303C297.106 140.703 303.406 166.303 303.406 166.303L283.706 175.403Z" fill="white"/>
<path d="M283.603 175.502C280.403 169.502 277.403 163.402 274.703 157.202C273.503 154.002 272.103 151.002 270.903 147.802C270.203 145.702 269.103 143.602 269.303 141.202C269.903 139.002 272.403 139.802 273.703 140.702L272.603 141.702C271.403 139.202 270.303 136.702 269.503 134.002C269.103 132.502 268.503 130.802 269.003 129.102C269.703 127.602 271.603 127.302 272.703 128.502L272.103 129.002C271.603 128.002 271.203 126.902 270.903 125.802C270.403 124.202 270.203 121.902 271.903 120.902C272.203 120.702 272.603 120.702 272.903 120.802C274.303 121.302 275.203 122.602 276.103 123.702H275.703C278.003 121.402 280.003 123.102 281.203 125.402L284.703 130.902L291.803 141.802L290.503 142.202C290.303 138.502 290.103 134.702 291.103 131.102C291.803 128.202 295.303 126.902 296.803 129.902C298.303 133.202 297.703 136.602 298.603 140.002C300.303 148.702 302.203 157.502 304.203 166.102L304.303 166.702C298.203 169.402 289.803 172.802 283.603 175.502ZM283.703 175.302C289.403 172.402 297.503 168.402 303.103 165.602L302.703 166.402C301.603 162.102 300.503 157.702 299.403 153.402C298.103 147.902 296.803 142.502 296.103 136.902C295.903 134.902 296.003 132.502 295.103 130.702C294.703 130.002 294.303 129.602 293.603 130.002C292.803 130.402 292.503 131.402 292.303 132.302C291.603 135.502 291.603 138.802 291.703 142.102L291.803 144.902C290.903 143.502 284.803 133.002 283.803 131.302L280.503 125.702C279.503 123.702 277.903 122.102 275.903 124.002L275.703 124.202L275.503 123.902C274.703 122.902 273.403 120.902 272.003 121.402C269.903 123.102 271.703 126.602 272.703 128.602L273.803 130.602L272.003 129.102C271.303 128.502 270.503 128.402 269.903 129.202C268.403 131.702 273.803 141.002 275.103 143.702L272.603 142.002C272.003 141.602 271.103 141.202 270.703 141.402C270.503 141.702 270.603 142.002 270.703 142.502C271.003 144.002 271.603 145.602 272.103 147.202C275.003 155.002 278.303 162.902 281.603 170.602C282.303 171.902 283.203 174.002 283.703 175.302Z" fill="black"/>
<path d="M285.502 143.402C285.402 143.502 283.102 139.102 280.502 133.702C277.802 128.302 275.802 123.802 275.902 123.802C276.002 123.702 278.302 128.102 280.902 133.502C283.502 138.902 285.602 143.402 285.502 143.402Z" fill="black"/>
<path d="M281.002 147.502C280.902 147.602 278.902 143.402 276.502 138.302C274.102 133.102 272.302 128.902 272.402 128.902C272.502 128.802 274.502 133.002 276.902 138.202C279.302 143.202 281.102 147.502 281.002 147.502Z" fill="black"/>
<path d="M278.406 153.002C278.306 153.002 277.906 152.502 277.306 151.502C276.706 150.502 275.906 149.102 275.206 147.502C274.506 145.902 273.906 144.402 273.606 143.302C273.306 142.202 273.106 141.502 273.206 141.502C273.306 141.502 274.206 144.202 275.606 147.402C277.106 150.502 278.606 153.002 278.406 153.002Z" fill="black"/>
<path d="M265.199 128.703C264.699 127.703 263.499 127.303 262.499 127.603C260.099 128.303 256.099 129.503 254.999 130.503C253.399 131.903 249.999 135.703 249.999 138.303C249.999 139.103 249.199 140.503 248.899 141.803C248.599 143.203 248.899 144.403 248.899 144.403C248.899 144.403 249.399 146.103 251.099 147.603C252.099 148.503 255.999 157.803 255.999 157.803L258.299 167.103L268.699 170.703L277.199 173.603L272.699 160.903L265.699 163.303L266.399 147.003L268.399 143.103L267.799 140.703L266.099 140.203C266.899 139.403 267.099 138.503 266.399 137.403L264.899 136.203C266.699 135.503 267.499 134.403 266.499 132.303C265.999 131.703 264.999 131.603 263.899 131.703C264.999 131.203 265.399 130.103 265.199 128.703Z" fill="white"/>
<path d="M265.199 128.703C264.699 127.703 263.499 127.303 262.499 127.603C260.099 128.303 256.099 129.503 254.999 130.503C253.399 131.903 249.999 135.703 249.999 138.303C249.999 139.103 249.199 140.503 248.899 141.803C248.599 143.203 248.899 144.403 248.899 144.403C248.899 144.403 249.399 146.103 251.099 147.603C252.099 148.503 255.999 157.803 255.999 157.803L258.299 167.103L268.699 170.703L277.199 173.603L272.699 160.903L265.699 163.303L266.399 147.003L268.399 143.103L267.799 140.703L266.099 140.203C266.899 139.403 267.099 138.503 266.399 137.403L264.899 136.203C266.699 135.503 267.499 134.403 266.499 132.303C265.999 131.703 264.999 131.603 263.899 131.703C264.999 131.203 265.399 130.103 265.199 128.703Z" fill="white"/>
<path d="M265.203 128.702C263.803 126.402 261.002 128.202 259.102 128.702C256.902 129.402 254.902 130.302 253.502 132.202C252.002 133.902 250.302 135.902 250.102 138.302C249.702 140.402 248.502 142.302 249.002 144.402C249.502 146.302 251.402 147.402 252.102 149.102C253.602 152.002 254.802 154.902 256.102 157.902L258.302 167.302C261.102 168.202 264.603 169.502 267.703 170.502L277.203 173.702L277.002 173.902L272.502 161.202L272.802 161.302L265.802 163.802L265.402 163.902V163.502C265.402 163.302 266.103 147.302 266.203 147.102L268.302 143.302V143.402L267.802 141.002L267.902 141.102C267.702 141.002 266.102 140.502 265.902 140.502C266.302 140.102 266.702 139.602 266.802 139.002C266.902 138.602 266.602 137.902 266.402 137.702C266.302 137.602 264.802 136.302 264.802 136.302C266.702 135.702 267.502 134.402 266.602 132.502C266.102 131.902 264.902 131.802 264.102 131.902H263.902C264.902 131.302 265.303 130.002 265.203 128.702ZM265.203 128.702C265.403 129.902 265.102 131.202 264.102 132.002L264.002 131.902C264.902 131.802 266.003 131.802 266.703 132.502C267.703 134.302 267.002 135.902 265.002 136.602V136.402L266.502 137.602C267.202 138.502 267.103 139.902 266.203 140.702L266.102 140.402L267.802 140.902H267.902V141.002L268.502 143.402C268.502 143.502 268.502 143.502 268.502 143.502L266.502 147.402V147.302L265.802 163.602L265.402 163.302L272.402 160.902L272.602 160.802L272.703 161.002L277.102 173.702L277.203 174.002L276.902 173.902L267.502 170.602C264.402 169.402 261.102 168.402 258.002 167.202L255.702 157.902C254.502 155.102 253.102 152.002 251.702 149.202C250.802 147.402 249.102 146.402 248.502 144.402C248.302 143.202 248.402 142.002 248.702 140.902C249.002 139.802 249.602 138.802 249.602 137.702C250.002 135.402 251.602 133.602 253.102 131.902C254.502 130.002 256.602 129.102 258.802 128.402C261.002 128.102 263.903 126.302 265.203 128.702Z" fill="black"/>
<path d="M264.702 158.903C264.702 158.903 264.602 158.803 264.402 158.603C264.202 158.403 263.902 158.003 263.602 157.603C263.302 157.103 262.902 156.603 262.602 155.803C262.302 155.103 262.002 154.203 262.202 153.103C262.302 152.103 262.802 151.003 263.402 150.103C264.102 149.103 264.902 148.203 265.802 147.303C266.602 146.303 267.502 145.303 267.902 143.903C268.102 143.303 268.202 142.503 268.002 141.903C267.802 141.303 267.202 140.803 266.602 140.803C266.002 140.803 265.402 141.403 264.902 141.803C264.402 142.303 263.802 142.803 263.302 143.203C262.202 144.103 261.202 145.003 260.202 145.903C258.202 147.603 256.502 149.203 255.602 151.003C254.702 152.703 254.802 154.403 255.102 155.403C255.402 156.503 255.702 157.003 255.602 157.003C255.602 157.003 255.502 156.903 255.402 156.603C255.302 156.303 255.102 155.903 254.902 155.403C254.702 154.903 254.602 154.203 254.602 153.403C254.602 152.603 254.802 151.703 255.302 150.803C256.202 148.903 257.902 147.303 259.902 145.603C260.902 144.703 261.902 143.803 262.902 142.903C263.402 142.403 264.002 141.903 264.502 141.503C265.002 141.003 265.602 140.403 266.502 140.303C267.402 140.303 268.102 141.003 268.402 141.703C268.702 142.503 268.602 143.303 268.302 144.003C267.902 145.403 266.902 146.503 266.102 147.503C265.202 148.503 264.302 149.303 263.702 150.303C263.002 151.203 262.602 152.203 262.502 153.103C262.402 154.003 262.602 154.903 262.902 155.603C263.202 156.303 263.502 156.903 263.802 157.403C264.402 158.403 264.802 158.903 264.702 158.903Z" fill="black"/>
<path d="M257.503 148.202C257.503 148.202 257.503 148.202 257.403 148.102C257.303 148.002 257.303 147.902 257.203 147.602C257.103 147.402 257.003 147.102 256.903 146.802C256.903 146.502 256.803 146.002 257.103 145.602C258.803 144.602 261.303 143.302 264.203 141.602C265.003 141.202 265.803 140.802 266.303 140.002C266.503 139.602 266.703 139.202 266.703 138.802C266.703 138.402 266.503 137.902 266.203 137.602C265.503 137.002 264.503 136.802 263.503 137.102C262.503 137.302 261.503 137.902 260.503 138.302C257.603 139.602 254.903 140.802 252.403 142.002C251.803 142.302 251.303 142.702 250.903 143.202C250.603 143.702 250.403 144.302 250.503 144.902C250.603 146.102 251.003 147.102 251.403 148.102C252.203 150.002 252.903 151.502 253.503 152.502C254.103 153.502 254.403 154.102 254.403 154.102C254.403 154.102 254.303 154.002 254.103 153.702C253.903 153.402 253.703 153.102 253.403 152.602C252.803 151.602 252.003 150.102 251.203 148.202C250.803 147.202 250.303 146.202 250.203 144.902C250.203 144.302 250.303 143.602 250.703 143.002C251.103 142.402 251.703 142.002 252.303 141.702C254.803 140.502 257.503 139.302 260.403 138.002C261.403 137.602 262.403 137.002 263.403 136.802C264.503 136.502 265.703 136.702 266.503 137.502C266.903 137.902 267.203 138.402 267.203 139.002C267.203 139.602 267.003 140.102 266.703 140.502C266.103 141.302 265.203 141.802 264.503 142.202C261.503 143.802 259.003 145.102 257.303 146.102C257.103 146.402 257.103 146.802 257.103 147.102C257.103 147.402 257.203 147.702 257.303 147.902C257.403 148.002 257.503 148.202 257.503 148.202Z" fill="black"/>
<path d="M249.906 140.603C249.906 140.603 250.006 140.203 250.306 139.603C250.606 139.003 251.106 138.103 251.806 137.103C252.506 136.103 253.706 135.103 255.206 134.503C256.706 133.803 258.406 133.403 260.206 132.903C261.106 132.603 262.006 132.403 262.806 132.203C263.606 132.003 264.506 131.703 265.406 131.803C265.806 131.903 266.206 132.003 266.606 132.303C266.906 132.603 267.106 133.003 267.206 133.403C267.406 134.203 267.106 134.903 266.706 135.403C265.906 136.403 264.806 136.703 264.106 136.703C263.406 136.803 263.006 136.703 263.006 136.703C263.006 136.703 263.406 136.603 264.006 136.503C264.606 136.403 265.706 136.103 266.406 135.103C266.706 134.603 266.906 134.003 266.806 133.403C266.706 132.703 266.106 132.203 265.306 132.203C264.606 132.103 263.806 132.403 262.906 132.603C262.106 132.803 261.206 133.103 260.306 133.303C258.506 133.803 256.806 134.203 255.306 134.903C253.806 135.503 252.706 136.403 251.906 137.403C251.106 138.303 250.606 139.203 250.306 139.803C250.206 140.303 250.006 140.603 249.906 140.603Z" fill="black"/>
<path d="M260.505 132.702C260.505 132.702 260.905 132.602 261.605 132.402C262.305 132.202 263.405 131.902 264.405 131.002C264.805 130.502 265.205 129.902 265.105 129.102C265.005 128.402 264.605 127.602 263.705 127.502C262.905 127.402 262.005 127.802 261.105 128.102C260.205 128.402 259.205 128.702 258.205 129.102C257.205 129.402 256.305 129.802 255.405 130.202C254.605 130.602 254.005 131.402 253.405 132.102C252.905 132.802 252.405 133.502 251.905 134.202C251.405 134.902 250.905 135.402 250.605 136.002C250.005 137.202 249.905 138.302 249.905 139.102C249.905 139.902 249.905 140.302 249.905 140.302C249.905 140.302 249.805 139.902 249.805 139.102C249.805 138.302 249.905 137.202 250.405 135.902C250.505 135.602 250.705 135.302 251.005 135.002C251.205 134.702 251.505 134.402 251.705 134.102C252.205 133.502 252.605 132.702 253.205 132.002C253.805 131.302 254.405 130.502 255.305 130.002C256.205 129.602 257.205 129.202 258.205 128.902C259.205 128.602 260.105 128.302 261.105 127.902C262.005 127.602 262.905 127.102 263.905 127.302C264.405 127.402 264.805 127.702 265.105 128.102C265.405 128.502 265.505 128.902 265.505 129.402C265.605 130.302 265.105 131.002 264.605 131.502C263.605 132.502 262.405 132.702 261.605 132.902C260.905 132.702 260.505 132.702 260.505 132.702Z" fill="black"/>
<path d="M295.4 213.801C296.5 201.001 292.8 187.901 285.2 177.601C281.5 172.601 276.8 168.101 270.9 166.101C265 164.101 257.8 165.201 253.7 169.801C249.5 174.401 249.6 182.701 254.7 186.301C247.6 193.201 245.9 204.901 250.7 213.601C246.5 218.701 244.9 225.801 246.5 232.201C248.1 238.601 257.5 250.601 263.6 253.001C269 255.501 275.3 251.901 279.5 247.801C288.6 238.901 294.4 226.501 295.4 213.801Z" fill="url(#colorTwo)"/>
<path d="M295.299 213.8C296.299 202.1 292.899 190.2 286.299 180.6C283.099 175.8 279.199 171.4 274.199 168.5C267.799 164.7 258.399 164.7 253.399 170.7C249.799 175.1 249.999 182.9 254.999 186.3C247.899 193 246.199 204.9 251.099 213.3L251.299 213.7L250.999 214.1C247.099 219 245.599 225.7 246.999 231.7C248.699 238.5 259.999 253.6 267.699 253C273.999 252.5 278.899 247.5 282.899 243C289.899 234.8 294.399 224.5 295.299 213.8ZM295.499 213.8C294.799 222.4 292.099 230.9 287.699 238.3C283.199 245.4 276.899 253.8 267.899 254.7C260.899 254.9 255.799 248.6 251.799 243.6C247.799 238.4 244.299 232.1 245.099 225.3C245.499 220.8 247.299 216.5 250.099 213.1L249.999 213.8C247.599 209.3 246.899 204.1 247.699 199.1C248.499 194.2 250.799 189.4 254.399 186V186.4C252.799 185.2 251.599 183.5 250.899 181.6C247.499 170.1 258.699 162.5 269.299 164.9C277.299 166.7 283.299 173 287.499 179.7C293.799 189.9 296.399 202.1 295.499 213.8Z" fill="black"/>
<path d="M257.203 185.2C264.603 185.9 271.903 185.5 279.203 183.9C272.903 188.2 264.003 188.7 257.203 185.2Z" fill="black"/>
<path d="M254.602 212.301C263.202 212.701 275.602 212.601 284.402 212.301C274.802 215.101 264.102 215.801 254.602 212.301Z" fill="black"/>
<path d="M343.297 157.302L339.097 156.102C332.597 156.602 326.297 159.902 322.197 165.002C318.097 170.102 316.197 176.902 317.197 183.402C312.297 185.002 309.297 191.002 311.097 195.902C307.797 196.302 305.097 199.702 305.497 203.002C303.197 195.802 296.597 190.202 289.297 188.602C289.497 189.202 289.797 189.802 289.997 190.502C291.397 193.602 292.697 196.602 293.897 199.802C298.297 211.502 301.797 223.702 304.697 236.002C305.897 241.302 306.797 246.702 307.197 252.102C307.397 252.102 307.697 252.202 307.897 252.202C311.097 252.902 314.297 254.002 317.597 254.202C322.797 254.502 328.097 252.302 331.597 248.502C335.097 244.602 336.697 239.102 335.797 234.002C340.997 233.902 345.397 233.502 347.297 228.602C348.097 226.502 351.197 219.502 351.197 219.502C352.597 217.402 354.797 216.302 356.397 214.302C359.897 210.102 359.597 202.902 360.297 197.502C360.897 193.002 362.197 189.102 362.897 184.602C364.697 170.902 356.097 162.302 343.297 157.302Z" fill="url(#colorTwo)"/>
<path d="M308.094 209.701C308.094 209.701 308.594 209.701 309.594 209.801C310.094 209.801 310.694 209.901 311.294 210.101C311.994 210.301 312.794 210.401 313.594 210.701C315.294 211.201 317.194 211.901 319.294 212.901C321.394 213.901 323.494 215.201 325.594 216.901C327.694 218.601 329.394 220.401 330.894 222.201C332.294 224.001 333.394 225.801 334.094 227.401C334.494 228.201 334.794 228.901 334.994 229.601C335.294 230.201 335.394 230.801 335.494 231.301C335.694 232.201 335.794 232.801 335.794 232.801C335.694 232.801 335.194 230.701 333.594 227.701C332.794 226.201 331.694 224.501 330.294 222.701C328.894 221.001 327.094 219.201 325.094 217.501C323.094 215.901 320.894 214.601 318.894 213.501C316.894 212.501 314.994 211.701 313.294 211.201C310.294 210.101 308.094 209.801 308.094 209.701Z" fill="black"/>
<path d="M312.094 196.302C312.094 196.302 312.794 196.202 313.994 196.002C314.594 195.902 315.294 195.902 316.194 195.902C317.094 195.902 318.094 195.902 319.094 196.002C319.594 196.102 320.194 196.102 320.794 196.202C321.394 196.302 321.994 196.402 322.594 196.502C323.894 196.702 325.194 197.102 326.594 197.502C329.294 198.402 332.294 199.602 335.094 201.302C337.994 203.002 340.394 205.002 342.494 207.002C343.494 208.002 344.494 209.002 345.294 210.002C346.194 210.902 346.894 211.902 347.494 212.802C348.194 213.702 348.694 214.502 349.094 215.202C349.594 215.902 349.894 216.602 350.194 217.102C350.794 218.202 350.994 218.802 350.994 218.802C350.894 218.902 349.694 216.402 347.094 213.002C346.394 212.102 345.694 211.202 344.894 210.302C344.094 209.302 343.094 208.402 342.094 207.402C339.994 205.502 337.494 203.502 334.694 201.902C331.894 200.202 328.994 199.002 326.294 198.102C324.894 197.702 323.694 197.302 322.394 197.102C321.794 197.002 321.194 196.802 320.594 196.702C319.994 196.602 319.494 196.602 318.894 196.502C314.694 196.102 312.094 196.502 312.094 196.302Z" fill="black"/>
<path d="M318.094 183.801C318.094 183.801 318.694 183.601 319.894 183.501C320.494 183.401 321.194 183.301 321.994 183.301C322.794 183.201 323.694 183.201 324.794 183.201C326.894 183.201 329.294 183.301 331.994 183.701C334.694 184.101 337.594 184.801 340.594 185.801C343.594 186.801 346.294 188.101 348.694 189.401C351.094 190.801 353.094 192.101 354.694 193.501C355.494 194.101 356.194 194.801 356.794 195.301C357.394 195.801 357.894 196.301 358.294 196.801C359.094 197.601 359.494 198.101 359.494 198.201C359.394 198.301 357.694 196.401 354.394 193.901C352.794 192.601 350.694 191.301 348.394 190.001C345.994 188.701 343.294 187.501 340.394 186.501C337.494 185.501 334.594 184.801 331.894 184.301C329.194 183.901 326.794 183.601 324.794 183.601C320.694 183.601 318.094 184.001 318.094 183.801Z" fill="black"/>
<path d="M320.594 169.302C320.594 169.302 320.694 169.202 320.994 168.902C321.294 168.702 321.694 168.402 322.194 168.002C323.294 167.302 325.094 166.502 327.294 165.802C329.594 165.102 332.294 164.502 335.394 164.302C336.994 164.202 338.594 164.202 340.294 164.502C341.994 164.902 343.594 165.302 345.394 165.802C348.794 166.802 351.994 168.302 354.394 170.402C356.694 172.502 358.594 174.602 359.894 176.602C361.194 178.602 361.894 180.402 362.294 181.602C362.794 182.802 362.894 183.502 362.894 183.502C362.894 183.502 362.594 182.902 361.994 181.702C361.494 180.502 360.694 178.802 359.394 176.902C358.094 175.002 356.194 172.902 353.894 170.902C351.594 168.902 348.494 167.502 345.094 166.502C338.294 163.902 331.794 165.102 327.294 166.302C325.094 166.902 323.294 167.702 322.194 168.302C321.194 168.902 320.694 169.302 320.594 169.302Z" fill="black"/>
<path d="M306.703 199.401C306.703 199.701 306.703 200.101 306.703 200.401C307.003 199.901 307.403 199.401 307.803 198.901C309.003 197.701 310.503 196.701 312.103 196.601H312.403L312.303 196.301C311.403 193.801 311.803 191.001 312.903 188.801C314.103 186.601 316.003 184.901 318.103 184.201L318.303 184.101V183.901C317.403 177.801 319.003 172.201 321.503 168.201C324.003 164.101 327.303 161.401 330.203 159.801C333.103 158.201 335.703 157.501 337.403 157.101C338.303 156.901 338.903 156.801 339.403 156.801C339.803 156.701 340.103 156.701 340.103 156.701C340.103 156.701 339.203 156.701 337.403 157.001C335.703 157.301 333.103 158.001 330.103 159.601C327.103 161.201 323.703 163.901 321.203 168.101C318.703 172.201 317.103 177.801 317.903 183.901C315.703 184.701 313.703 186.401 312.503 188.701C311.303 190.901 310.903 193.701 311.703 196.401C310.103 196.701 308.603 197.601 307.403 198.801C307.203 198.801 306.903 199.101 306.703 199.401Z" fill="black"/>
<path d="M362.8 185.701C362.7 186.101 362.6 186.801 362.4 187.601C362 189.201 361.3 191.601 360.5 194.701C360.1 196.301 359.8 198.001 359.6 200.001C359.4 202.001 359.4 204.101 359.1 206.401C358.8 208.701 358.3 211.201 356.8 213.301C356.1 214.401 355.1 215.301 354.1 216.301C353.1 217.301 352.1 218.301 351 219.301C350 220.701 349.6 222.501 349.1 224.101C348.6 225.801 347.8 227.401 346.7 228.801C344.4 231.601 340.7 233.701 336.7 233.901H336.4L336.5 234.201C337 237.501 336.6 241.001 335.1 244.201C333.6 247.401 331.1 250.301 327.8 252.001C324.5 253.801 320.5 254.501 316.7 253.801C314.8 253.501 312.8 252.901 310.8 252.401C308.8 251.901 306.7 251.601 304.7 251.301C302.4 251.001 300 250.901 297.7 250.801C297.6 251.001 297.5 251.201 297.5 251.501C299.9 251.601 302.3 251.801 304.7 252.001C306.8 252.201 308.8 252.501 310.8 253.001C312.8 253.501 314.7 254.001 316.7 254.401C320.7 255.101 324.8 254.301 328.2 252.501C331.6 250.701 334.3 247.701 335.8 244.401C337.3 241.201 337.7 237.601 337.2 234.301C341.3 234.101 345 231.901 347.3 229.001C348.5 227.501 349.3 225.801 349.8 224.101C350.3 222.401 350.7 220.701 351.6 219.401C352.7 218.401 353.7 217.401 354.7 216.401C355.7 215.401 356.7 214.401 357.4 213.301C358.9 211.001 359.4 208.501 359.7 206.201C360 203.901 360 201.701 360.1 199.801C360.2 197.801 360.6 196.101 360.9 194.501C361.6 191.401 362.3 189.001 362.6 187.301C362.9 185.701 363 184.801 363 184.801C363 184.801 362.8 185.301 362.8 185.701Z" fill="black"/>
<path d="M335.5 228.501C335.5 228.501 335.5 215.601 329 213.001C322.5 210.401 330.3 196.201 322.5 189.701C317.9 185.901 314.2 179.301 311.9 174.601C312 174.501 312.1 174.301 312.1 174.201C313.4 170.301 308.2 161.301 304.3 161.301C300.4 161.301 281.1 168.401 281.1 168.401C276 177.801 280.7 181.801 283.4 183.201C283.2 185.901 283.3 190.301 284.9 193.701C287.5 198.901 279.7 200.201 283.6 207.901C287.5 215.701 291.4 219.501 291.4 219.501C291.4 219.501 284.9 227.301 291.4 235.001C297.9 242.801 297.9 247.901 301.8 253.101C305.7 258.301 322.5 258.301 327.7 253.101C332.9 247.901 336.8 246.601 336.8 238.901C336.8 231.201 335.5 228.501 335.5 228.501Z" fill="url(#colorTwo)"/>
<path d="M335.395 228.5C334.995 223.6 334.295 218 330.595 214.5L329.895 213.9C329.295 213.6 328.795 213.3 328.195 213.1C326.595 212.2 325.895 210.3 325.695 208.6C324.995 201.9 327.495 193.9 321.095 189.4C320.595 188.9 320.095 188.5 319.695 188C315.995 184 313.395 179.3 311.095 174.4L311.395 174.1C311.495 174 311.595 173.6 311.695 173.2C311.795 169.2 308.795 163.3 305.095 161.8C303.695 161.6 302.295 162.1 300.895 162.3C294.295 164 287.795 166.2 281.395 168.5C279.195 173.2 277.495 179.5 283.995 182.8C283.795 186.1 283.995 189.6 285.295 192.6C285.695 193.3 286.095 194.2 286.195 195.1C286.295 196 286.095 197 285.695 197.8C282.195 203.5 283.095 205.2 286.395 210.9C288.195 213.9 290.195 216.8 292.595 219.3L292.195 219.9C289.795 223.1 288.695 227.7 290.395 231.4C291.895 234.4 294.495 236.7 296.095 239.8C298.095 243.1 299.295 247 301.195 250.3C302.095 251.9 302.995 253.3 304.795 254.2C310.895 257 320.795 256.9 326.495 253.3C329.195 250.8 332.595 248.4 334.795 245.4C336.895 242.1 336.595 238 336.395 234.3C336.195 232.3 336.095 230.4 335.395 228.5ZM335.595 228.5C336.395 230.3 336.595 232.3 336.895 234.2C337.195 238.1 337.695 242.3 335.595 245.9C334.495 247.7 332.995 249 331.595 250.4C330.095 251.7 328.795 253.2 327.295 254.4C322.195 257.8 315.695 258.1 309.795 257.5C301.695 256.5 299.995 252.8 297.095 245.9C295.595 242.4 293.695 239.1 291.295 236.1C288.495 233 287.095 228.6 288.195 224.5C288.695 222.5 289.595 220.6 290.895 218.9L290.995 220C288.595 217.4 286.795 214.7 285.095 211.7C283.495 208.7 281.295 205.5 282.295 201.9C283.295 198.4 286.495 196.7 284.295 193.1C282.995 189.9 282.895 186.4 283.195 183.1L283.395 183.5C280.795 182.1 278.895 179.4 278.795 176.5C278.595 173.6 279.795 170.8 281.095 168.3V168.2H281.195C284.395 167 287.595 165.9 290.895 164.8C295.395 163.4 299.895 161.5 304.595 160.9C309.195 161.1 314.895 171 312.695 175.1L312.795 174.4C314.995 179 317.595 183.4 320.995 187.1C321.695 187.9 322.895 189 323.695 189.7C328.795 194.7 326.595 202.4 326.995 208.6C327.095 210.5 327.895 212.1 329.595 212.8C334.695 215.4 335.495 223.2 335.595 228.5Z" fill="black"/>
<path d="M284.398 183.9C293.898 183.9 303.098 181.8 311.598 177.4C304.598 184.2 293.598 186.8 284.398 183.9Z" fill="black"/>
<path d="M287 198.101C298.4 199.701 309.9 197.001 319.3 190.301C311.7 199.401 297.9 202.701 287 198.101Z" fill="black"/>
<path d="M291.5 219.401C294.5 220.301 297.7 219.901 300.7 219.701C308.3 218.901 316.1 217.701 323.2 214.801C324.6 214.201 326 213.401 327 212.301C326.3 213.801 325 214.801 323.7 215.701C316.6 220.401 299.1 223.701 291.5 219.401Z" fill="black"/>
<script type="text/ecmascript" xlink:href="https://dev.w3.org/SVG/modules/ref/master/ref2.js"></script></svg>
