<svg width="640" height="360" viewBox="0 0 640 360" fill="none" 
xmlns="http://www.w3.org/2000/svg" 
xmlns:xlink="http://www.w3.org/1999/xlink">
<defs>
<ref id="colorOne" param="c1" default="#242C4F" />
<ref id="colorTwo" param="c2" default="#9296A7"/>
</defs>
<path d="M490.403 305.099H147.203V218.599C147.203 125.899 222.303 50.7988 315.003 50.7988H322.503C415.203 50.7988 490.303 125.899 490.303 218.599V305.099H490.403Z" fill="url(#colorTwo)"/>
<path d="M300.104 93.8989C302.104 74.1989 311.804 57.5989 329.404 57.2989C347.004 56.9989 359.004 73.5989 359.204 93.3989C359.204 93.8989 359.204 94.2989 359.204 94.7989C361.704 95.5989 363.804 97.5989 363.804 101.999C363.904 108.399 360.104 110.099 357.004 110.499C356.804 111.199 356.604 111.799 356.304 112.399L353.704 150.399L318.204 150.099L320.904 129.299C307.204 125.699 298.204 112.399 300.104 93.8989Z" fill="white"/>
<path d="M354.203 150.7L318.002 150.4L320.703 129.6C306.103 125.7 297.902 111.7 299.802 93.8996C300.902 83.4996 303.903 74.5996 308.703 68.1996C313.903 61.0996 321.102 57.1996 329.402 57.0996C337.802 56.9996 345.502 60.7996 351.102 67.6996C356.402 74.3996 359.402 83.5996 359.602 93.3996C359.602 93.7996 359.602 94.1996 359.602 94.4996C362.602 95.5996 364.203 98.0996 364.203 101.9C364.303 108.7 360.002 110.3 357.302 110.7C357.102 111.3 356.903 111.9 356.703 112.4L354.203 150.7ZM318.703 149.8L353.602 150.1L356.102 112.3C356.302 111.7 356.503 111.1 356.703 110.4L356.802 110.2H357.002C360.002 109.9 363.602 108.2 363.502 102C363.402 98.3996 361.902 96.0996 359.102 95.0996L359.002 94.9996V94.6996C359.002 94.2996 359.002 93.7996 359.002 93.3996C358.902 83.5996 355.902 74.5996 350.602 67.9996C345.202 61.1996 337.602 57.4996 329.402 57.5996C321.302 57.6996 314.302 61.4996 309.102 68.4996C304.402 74.8996 301.402 83.6996 300.402 93.8996C298.602 111.5 306.702 125.2 321.102 129L321.402 129.1L318.703 149.8Z" fill="black"/>
<path d="M307.305 88.5003C307.605 88.8003 309.305 87.6003 311.705 87.7003C314.105 87.8003 315.805 89.1003 316.105 88.8003C316.205 88.7003 316.005 88.1003 315.205 87.5003C314.505 86.9003 313.205 86.3003 311.705 86.2003C310.205 86.1003 308.905 86.6003 308.105 87.2003C307.405 87.8003 307.205 88.3003 307.305 88.5003Z" fill="black"/>
<path d="M358.506 94.3008C358.506 94.0008 358.206 93.8008 357.906 93.8008L346.406 95.3008C346.106 94.1008 345.406 93.0008 344.206 92.4008C343.706 92.1008 343.006 92.0008 342.406 92.0008L339.006 91.9008C337.906 91.9008 336.706 91.9008 335.606 91.9008C334.806 91.9008 333.406 91.9008 332.606 91.9008C330.806 91.9008 329.206 93.3008 328.606 95.0008C327.806 94.6008 326.906 94.4008 326.106 94.3008C323.706 94.0008 321.806 94.6008 320.706 95.2008C320.606 94.6008 320.306 94.0008 319.906 93.5008C319.106 92.6008 317.906 91.9008 316.706 91.9008L313.306 91.8008C311.606 91.8008 309.806 91.8008 308.206 91.8008H307.306C306.306 91.8008 305.306 92.0008 304.506 92.6008C303.606 93.2008 303.006 94.2008 302.706 95.3008L297.906 94.3008C297.606 94.2008 297.306 94.4008 297.206 94.7008C297.106 95.0008 297.306 95.3008 297.606 95.4008L302.506 96.4008C302.506 96.5008 302.506 96.7008 302.506 96.8008C302.506 98.2008 302.706 99.7008 302.706 101.101C302.706 101.701 302.706 102.301 302.906 102.901C303.406 104.701 305.206 106.101 307.106 106.101C308.406 106.101 314.506 106.101 315.706 106.101C316.006 106.101 316.706 106.101 317.006 106.101C319.306 106.001 321.206 103.901 321.006 101.601C321.006 100.701 320.806 97.8008 320.706 96.9008C320.706 96.7008 320.706 96.4008 320.706 96.2008L320.806 96.3008C321.706 95.8008 323.506 95.1008 325.806 95.4008C326.806 95.5008 327.606 95.8008 328.306 96.1008C328.306 96.2008 328.306 96.3008 328.306 96.4008C328.406 98.4008 328.406 100.401 328.606 102.401C329.006 104.401 330.906 105.901 332.906 105.801C335.806 105.701 338.606 105.901 341.506 105.901C342.706 106.001 344.106 105.901 345.106 105.101C346.406 104.201 347.106 102.501 346.906 101.001C346.806 99.6008 346.706 98.1008 346.706 96.7008C346.706 96.6008 346.706 96.4008 346.706 96.3008L358.206 94.8008C358.306 94.9008 358.606 94.6008 358.506 94.3008ZM320.306 96.8008L320.206 100.201C320.206 100.501 320.206 101.201 320.206 101.501C320.206 103.501 318.406 105.101 316.506 105.001C314.706 105.001 309.006 105.201 307.106 105.301C305.506 105.401 304.006 104.301 303.606 102.701C303.406 102.201 303.506 101.601 303.506 101.101C303.506 100.001 303.606 98.8008 303.606 97.7008C303.606 97.4008 303.606 96.7008 303.606 96.4008C303.606 94.8008 304.806 93.3008 306.406 93.0008C306.806 92.9008 307.506 92.9008 308.006 92.9008C309.706 92.9008 311.506 92.8008 313.106 92.7008L316.506 92.5008C317.506 92.4008 318.606 92.9008 319.306 93.7008C320.106 94.5008 320.406 95.6008 320.306 96.8008ZM346.106 96.8008C346.106 97.9008 346.106 99.1008 346.006 100.201C346.006 100.701 346.006 101.401 345.906 101.901C345.706 103.501 344.306 104.901 342.606 105.001C342.406 105.001 341.606 105.001 341.306 105.001C338.406 105.101 335.606 105.401 332.706 105.401C331.106 105.401 329.606 104.201 329.206 102.701C329.106 102.201 329.106 101.601 329.106 101.101C329.106 100.001 329.206 98.8008 329.206 97.7008C329.206 97.4008 329.206 96.7008 329.206 96.4008C329.206 96.2008 329.206 96.1008 329.206 95.9008L329.406 95.5008L329.306 95.4008C329.606 94.2008 330.706 93.2008 332.006 93.0008C332.406 92.9008 333.106 92.9008 333.606 92.9008C335.306 92.9008 337.106 92.8008 338.706 92.7008L342.106 92.5008C343.106 92.4008 344.206 92.9008 345.006 93.7008C345.406 94.2008 345.706 94.7008 345.806 95.3008C345.606 95.4008 345.506 95.6008 345.606 95.8008C345.606 96.0008 345.806 96.2008 345.906 96.3008C346.106 96.5008 346.106 96.7008 346.106 96.8008Z" fill="url(#colorOne)"/>
<path d="M326.305 94C326.005 97.5 324.705 101 322.905 104.1C321.505 106.6 319.405 108.8 323.805 109.2C324.705 109.3 325.605 109.3 326.405 109.3C325.505 109.5 324.606 109.6 323.706 109.6C322.406 109.6 320.305 109.2 320.505 107.5C320.705 106.1 321.705 105 322.305 103.8C324.205 100.7 325.505 97.4 326.305 94Z" fill="black"/>
<path d="M332.509 88.6995C332.809 88.9995 334.509 87.7995 336.909 87.8995C339.309 87.9995 341.009 89.2995 341.309 88.9995C341.409 88.8995 341.209 88.2995 340.409 87.6995C339.709 87.0995 338.409 86.4995 336.909 86.3995C335.409 86.2995 334.109 86.7995 333.309 87.3995C332.609 87.9995 332.409 88.5995 332.509 88.6995Z" fill="black"/>
<path d="M356.305 105.999C356.305 105.999 356.505 106.099 356.805 106.199C357.105 106.299 357.605 106.399 358.105 106.199C359.105 105.799 360.005 104.099 360.005 102.399C360.005 101.499 359.805 100.699 359.505 99.9992C359.205 99.2992 358.705 98.7992 358.205 98.6992C357.705 98.5992 357.305 98.8992 357.205 99.1992C357.105 99.4992 357.105 99.6992 357.105 99.6992C357.105 99.6992 356.905 99.4992 357.005 99.0992C357.005 98.8992 357.105 98.6992 357.405 98.4992C357.605 98.2992 358.005 98.1992 358.305 98.1992C359.105 98.1992 359.705 98.8992 360.105 99.6992C360.505 100.499 360.705 101.399 360.705 102.399C360.705 104.399 359.705 106.199 358.305 106.699C357.605 106.899 357.005 106.699 356.705 106.499C356.405 106.299 356.305 106.099 356.305 105.999Z" fill="black"/>
<path d="M320.102 129.3C320.102 129.3 332.902 132.3 344.902 126.1C344.902 126.1 338.602 137.7 320.602 135.6L320.102 129.3Z" fill="black"/>
<path d="M376.004 98.4997C369.504 91.0997 372.404 88.3997 376.104 80.9997C378.704 67.1997 359.904 55.6997 350.704 58.3997C350.704 58.3997 347.004 50.7997 343.804 47.7997C335.404 40.2997 318.204 38.4997 312.004 49.1997C310.604 51.7997 310.304 54.9997 308.304 57.2997C302.304 61.7997 295.204 63.6996 293.104 72.1996C290.004 80.7996 296.604 84.9997 294.204 91.8997C284.104 103.8 296.004 119.1 309.104 123.3C298.404 113.4 298.004 91.3997 304.004 77.0997C311.804 82.5997 323.504 80.5997 329.104 72.7997C333.304 80.0997 344.504 80.3997 349.104 73.3997C347.204 80.6997 348.004 88.6997 351.404 95.3997C352.604 96.6997 355.304 94.3996 357.204 95.1996C365.904 97.2996 363.804 110.5 356.104 110.6C355.104 111.2 355.904 127.1 355.804 128.4C359.704 128.1 361.104 127.8 361.104 127.8C365.604 131.3 372.704 128.7 373.904 123.1C374.504 120.3 373.704 117.3 374.804 114.6C378.904 108.1 381.904 105.7 376.004 98.4997Z" fill="black"/>
<path d="M359.008 113C360.665 113 362.008 111.657 362.008 110C362.008 108.343 360.665 107 359.008 107C357.351 107 356.008 108.343 356.008 110C356.008 111.657 357.351 113 359.008 113Z" fill="url(#colorOne)"/>
<path d="M300.697 149.899L317.597 141.599C332.697 146.099 347.497 147.299 354.797 135.099C354.797 135.099 375.197 131.699 381.597 135.199C388.097 138.699 393.697 186.899 393.697 186.899L407.597 303.399L285.297 303.599L294.697 238.499L293.697 191.999L300.697 149.899Z" fill="url(#colorOne)"/>
<path d="M346.795 305.498C346.595 305.498 346.395 305.298 346.395 305.098L339.195 148.898C339.195 148.698 339.395 148.398 339.595 148.398C339.895 148.398 340.095 148.598 340.095 148.798L347.295 304.998C347.195 305.298 346.995 305.498 346.795 305.498Z" fill="black"/>
<path d="M322.8 158.098C321.3 158.098 320 157.698 319 156.998C311.9 152.198 317.8 141.698 317.8 141.598C317.9 141.398 318.1 141.398 318.3 141.498C318.5 141.598 318.5 141.798 318.4 141.998C318.3 142.098 312.8 151.998 319.3 156.398C325.8 160.798 339.1 148.698 339.2 148.498L339.4 148.298L339.6 148.398C339.6 148.398 343 150.398 347.4 151.698C351.4 152.898 356.9 153.898 360.9 151.598C362.3 150.798 363.1 149.698 363.2 148.298C363.8 142.998 355.3 135.398 355.2 135.298C355 135.198 355 134.898 355.2 134.798C355.3 134.598 355.6 134.598 355.7 134.798C355.7 134.798 357.9 136.798 360 139.398C362.8 142.998 364.2 145.998 363.9 148.398C363.7 149.998 362.8 151.298 361.2 152.298C357.8 154.198 352.9 154.298 347 152.498C343.3 151.298 340.2 149.698 339.3 149.298C338.5 149.998 335.5 152.698 331.8 154.798C328.4 156.998 325.3 158.098 322.8 158.098Z" fill="black"/>
<path d="M352.198 292.098C350.898 292.098 349.898 291.098 349.898 289.798C349.898 288.498 350.898 287.498 352.198 287.498C353.498 287.498 354.498 288.498 354.498 289.798C354.598 290.998 353.498 292.098 352.198 292.098ZM352.198 288.098C351.298 288.098 350.498 288.898 350.498 289.798C350.498 290.698 351.298 291.498 352.198 291.498C353.098 291.498 353.898 290.698 353.898 289.798C353.898 288.798 353.098 288.098 352.198 288.098Z" fill="black"/>
<path d="M350.995 269.7C349.695 269.7 348.695 268.7 348.695 267.4C348.695 266.1 349.695 265.1 350.995 265.1C352.295 265.1 353.295 266.1 353.295 267.4C353.395 268.7 352.295 269.7 350.995 269.7ZM350.995 265.7C350.095 265.7 349.295 266.5 349.295 267.4C349.295 268.3 350.095 269.1 350.995 269.1C351.895 269.1 352.695 268.3 352.695 267.4C352.695 266.5 351.995 265.7 350.995 265.7Z" fill="black"/>
<path d="M350.097 249.899C348.797 249.899 347.797 248.899 347.797 247.599C347.797 246.299 348.797 245.299 350.097 245.299C351.397 245.299 352.397 246.299 352.397 247.599C352.497 248.899 351.397 249.899 350.097 249.899ZM350.097 245.899C349.197 245.899 348.397 246.699 348.397 247.599C348.397 248.499 349.197 249.299 350.097 249.299C350.997 249.299 351.797 248.499 351.797 247.599C351.797 246.699 351.097 245.899 350.097 245.899Z" fill="black"/>
<path d="M348.597 229.7C347.297 229.7 346.297 228.7 346.297 227.4C346.297 226.1 347.297 225.1 348.597 225.1C349.897 225.1 350.897 226.1 350.897 227.4C350.997 228.6 349.897 229.7 348.597 229.7ZM348.597 225.6C347.697 225.6 346.897 226.4 346.897 227.3C346.897 228.2 347.697 229 348.597 229C349.497 229 350.297 228.2 350.297 227.3C350.297 226.4 349.597 225.6 348.597 225.6Z" fill="black"/>
<path d="M346.097 207.899C344.797 207.899 343.797 206.899 343.797 205.599C343.797 204.299 344.797 203.299 346.097 203.299C347.397 203.299 348.397 204.299 348.397 205.599C348.397 206.899 347.397 207.899 346.097 207.899ZM346.097 203.899C345.197 203.899 344.397 204.699 344.397 205.599C344.397 206.499 345.197 207.299 346.097 207.299C346.997 207.299 347.797 206.499 347.797 205.599C347.797 204.599 346.997 203.899 346.097 203.899Z" fill="black"/>
<g opacity="0.5">
<path d="M308.094 251.599C316.094 245.799 323.094 238.699 328.794 230.599C331.194 227.199 333.394 223.599 336.194 220.499C338.994 217.399 342.594 214.899 346.694 214.199C353.094 213.199 359.294 216.799 364.794 220.399C370.894 224.299 376.894 228.199 382.994 232.099C384.494 233.099 386.194 234.099 387.994 234.199C389.794 234.299 392.494 234.299 392.594 232.499C389.694 231.099 382.594 226.399 378.394 223.199C372.194 218.399 365.594 214.999 359.394 210.199C356.494 207.999 353.394 205.399 352.794 201.799C352.594 200.499 352.594 199.099 351.794 198.099C350.794 196.799 348.794 196.799 347.094 196.999C343.794 197.299 340.394 197.599 337.594 199.399C333.794 201.899 332.094 206.499 330.394 210.699C324.694 225.099 316.594 238.499 306.594 250.299" fill="url(#colorOne)"/>
</g>
<path d="M300.7 149.898C300.7 149.898 282.8 153.498 279.3 179.798C275.8 206.098 265.7 240.598 271.7 251.498C273.4 254.598 279 260.598 282.3 261.798C291.8 265.298 301.9 257.398 308.3 249.598L326.4 222.498L330.2 215.298L311 202.798L299.5 214.898L300.7 149.898Z" fill="url(#colorOne)"/>
<path d="M378.097 134.199C378.097 134.199 395.797 135.999 406.897 153.799C421.997 177.899 430.597 219.299 428.497 231.799C426.497 243.399 406.697 250.599 401.497 247.399C396.697 244.399 347.297 202.499 347.297 202.499L363.397 184.899L391.297 199.499L382.297 170.599L378.097 134.199Z" fill="url(#colorOne)"/>
<path d="M306.701 184.5C307.001 184.5 306.601 190.2 305.601 197.2C305.101 200.6 304.701 203.6 304.401 206.2C304.101 208.5 303.901 209.9 303.801 209.9C303.501 209.9 303.901 204.2 304.901 197.2C305.401 193.8 305.801 190.8 306.101 188.3C306.401 185.9 306.601 184.5 306.701 184.5Z" fill="black"/>
<path d="M384.9 178.198C384.9 178.198 385 178.298 385 178.598C385.1 178.898 385.2 179.198 385.4 179.698C385.7 180.698 386.2 181.998 386.7 183.798C387.9 187.498 389.5 192.698 391.7 199.398L391.9 199.898L391.4 199.698C383.8 195.798 374.4 190.898 363.4 185.198L363.8 185.098C358.9 190.498 353.5 196.398 347.7 202.698V202.198C360.7 213.598 375.4 226.498 391.2 239.898C393 241.398 394.8 242.898 396.5 244.298C397.4 244.998 398.3 245.798 399.2 246.398C399.7 246.698 400.1 247.098 400.6 247.298C401.1 247.498 401.6 247.598 402.2 247.698C404.4 247.898 406.6 247.498 408.7 246.998C410.8 246.498 412.9 245.698 414.9 244.798C418.8 242.998 422.5 240.498 425.2 237.398C426.5 235.798 427.6 233.998 428.2 232.098C428.8 230.198 428.8 228.098 428.7 226.098C428.4 218.098 426.9 210.498 425.4 203.498C423.9 196.498 422.1 189.998 420.3 184.198C416.7 172.498 412.7 163.398 409.2 157.498C407.5 154.498 406 152.398 404.8 150.998C404.3 150.298 403.8 149.798 403.5 149.398C403.2 149.098 403.1 148.898 403.1 148.898C403.1 148.898 403.8 149.498 405 150.898C406.2 152.298 407.8 154.398 409.5 157.398C413 163.298 417.1 172.398 420.8 183.998C422.7 189.798 424.5 196.298 426.1 203.298C427.6 210.298 429.1 217.898 429.4 225.998C429.4 227.998 429.4 230.098 428.9 232.198C428.3 234.298 427.2 236.098 425.8 237.798C423 241.098 419.3 243.498 415.2 245.398C413.2 246.298 411.1 247.098 408.9 247.698C406.7 248.298 404.4 248.698 402.1 248.498C401.5 248.498 400.9 248.298 400.3 248.098C399.7 247.898 399.2 247.498 398.8 247.198C397.8 246.498 397 245.798 396.1 245.098C394.3 243.598 392.5 242.098 390.7 240.598C374.9 227.198 360.3 214.298 347.3 202.798L347 202.598L347.2 202.298C353 195.998 358.5 190.098 363.4 184.698L363.6 184.498L363.8 184.598C374.7 190.298 384.2 195.298 391.7 199.298L391.4 199.598C389.4 192.898 387.8 187.598 386.6 183.898C386.1 182.098 385.7 180.698 385.4 179.698C385.3 179.198 385.2 178.898 385.1 178.598C384.9 178.298 384.8 178.198 384.9 178.198Z" fill="black"/>
<path d="M409.3 199.199C409.2 199.399 405.7 196.899 400.9 194.799C396.1 192.699 392 191.799 392 191.599C392 191.499 393.1 191.599 394.8 191.999C396.5 192.399 398.8 193.099 401.2 194.199C403.6 195.299 405.7 196.499 407.1 197.499C408.6 198.399 409.4 199.199 409.3 199.199Z" fill="url(#colorOne)"/>
<path d="M409.302 199.299C409.202 199.299 408.802 199.099 407.802 198.499C406.302 197.599 403.902 196.199 400.902 194.899C398.002 193.599 395.202 192.699 393.602 192.199C392.202 191.799 391.902 191.699 392.002 191.499C392.202 191.399 393.402 191.599 394.802 191.899C396.002 192.199 398.402 192.799 401.202 194.099C404.002 195.399 406.102 196.699 407.102 197.399C408.302 198.299 409.302 198.999 409.302 199.199V199.299C409.402 199.299 409.402 199.299 409.302 199.299ZM392.302 191.599C392.502 191.699 393.102 191.899 393.702 192.099C395.302 192.599 398.102 193.399 401.002 194.799C404.002 196.099 406.402 197.599 407.902 198.399C408.502 198.699 409.002 198.999 409.202 199.099C409.002 198.899 408.302 198.299 407.202 197.499C406.202 196.799 404.102 195.499 401.302 194.199C398.502 192.899 396.102 192.299 394.902 191.999C393.502 191.699 392.602 191.599 392.302 191.599Z" fill="black"/>
<path d="M290.9 223.8C291.2 223.5 291.5 223.1 291.9 222.7C292.8 221.7 294.2 220.3 295.9 218.4C299.4 214.7 304.5 209.3 310.8 202.6L310.9 202.4L311.1 202.5C316.9 205.9 323.6 209.9 331 214.3L331.3 214.5L331.1 214.8C329.7 217.3 328.3 219.9 326.8 222.6C321.1 231.1 314.8 240.5 308.1 250.4C305.3 253.8 302 257 298 259.5C294.8 261.5 291.2 263 287.4 263C286.5 263 285.5 262.9 284.6 262.7C283.7 262.5 282.8 262.1 282 261.7C280.4 260.8 278.9 259.7 277.6 258.6C274.9 256.2 272.5 253.6 270.9 250.5C270.7 250.1 270.6 249.7 270.4 249.3C270.3 248.9 270.2 248.5 270.1 248L269.8 246.7C269.7 246.3 269.7 245.9 269.7 245.4C269.5 243.7 269.5 242.1 269.5 240.4C269.7 233.9 270.7 227.7 271.6 222C272.5 216.3 273.5 211 274.5 206.2C276.3 196.5 277.8 188.7 278.7 183.3C279.2 180.6 279.5 178.5 279.7 177.1C279.8 176.4 279.9 175.9 280 175.5C280.1 175.1 280.1 174.9 280.1 175C280.1 175 280.1 175.2 280.1 175.6C280.1 176 280 176.5 279.9 177.2C279.7 178.6 279.4 180.8 279 183.5C278.2 188.9 276.8 196.8 275 206.4C274.1 211.2 273.2 216.5 272.2 222.2C271.3 227.9 270.4 234 270.2 240.5C270.2 242.1 270.2 243.7 270.4 245.4C270.4 245.8 270.5 246.2 270.5 246.6L270.8 247.8C270.9 248.2 271 248.6 271.1 249C271.3 249.4 271.4 249.8 271.6 250.1C273.1 253 275.5 255.6 278.1 258C280.7 260.2 283.8 262.5 287.4 262.3C291 262.3 294.5 260.8 297.6 258.9C301.5 256.5 304.8 253.3 307.5 250C314.2 240.1 320.5 230.7 326.2 222.2C327.7 219.5 329.2 216.9 330.6 214.4L330.7 214.8C323.3 210.4 316.7 206.3 310.9 202.9H311.2C304.8 209.5 299.7 214.8 296.1 218.5C294.3 220.3 293 221.7 292 222.7C291.5 223.1 291.2 223.5 290.9 223.8Z" fill="black"/>
<path d="M312.794 204.198L311.094 193.398L303.094 184.598L304.094 170.698C304.094 170.698 306.994 169.698 306.994 172.498C306.994 175.298 307.894 181.898 307.894 181.898L310.294 184.098L309.894 170.598L315.994 162.898C315.994 162.898 318.294 164.898 317.194 168.198C315.994 171.498 314.894 172.898 314.894 172.898L315.494 181.298H317.594V173.498L326.494 161.998C326.494 161.998 327.494 162.798 326.494 166.298C325.494 169.798 323.794 173.098 323.794 173.098L326.994 187.398L329.894 188.798L331.494 186.498L335.994 177.098C335.994 177.098 337.394 176.698 338.194 177.698C338.994 178.698 335.994 186.298 335.894 187.698C335.694 189.098 340.294 197.898 338.394 202.398L329.494 213.998L312.794 204.198Z" fill="white"/>
<path d="M329.197 214.099L312.497 204.399L310.797 193.499L302.797 184.699L303.797 170.499L303.997 170.399C304.097 170.399 305.597 169.899 306.597 170.599C307.097 170.999 307.397 171.599 307.397 172.399C307.397 174.899 308.197 180.799 308.297 181.599L310.097 183.199L309.697 170.299L315.997 162.299L316.197 162.499C316.197 162.499 318.697 164.599 317.497 168.099C316.497 170.999 315.497 172.399 315.197 172.799L315.797 180.799H317.297V173.199L326.397 161.299L326.597 161.499C326.697 161.599 327.697 162.499 326.697 166.099C325.797 169.299 324.297 172.299 323.997 172.899L327.097 186.899L329.597 188.099L330.997 185.999L335.497 176.499H335.597C335.697 176.499 337.197 176.099 338.097 177.199C338.697 177.899 337.897 180.799 336.597 184.699C336.197 185.999 335.897 186.999 335.797 187.399C335.797 187.699 336.197 188.999 336.597 190.299C337.797 193.699 339.597 198.899 338.197 202.199V202.299L329.197 214.099ZM313.097 203.999L329.097 213.299L337.797 201.999C338.997 198.999 337.297 193.899 336.097 190.599C335.497 188.899 335.197 187.899 335.297 187.499C335.397 186.999 335.697 185.999 336.097 184.699C336.797 182.599 338.097 178.299 337.697 177.799C337.197 177.099 336.297 177.199 335.997 177.299L331.497 186.599L329.797 189.199L326.497 187.699L323.297 173.199L323.397 173.099C323.397 173.099 325.197 169.799 326.097 166.299C326.697 164.099 326.497 163.099 326.397 162.599L317.897 173.699V181.699H315.197L314.597 172.899L314.697 172.799C314.697 172.799 315.897 171.399 316.997 168.199C317.897 165.699 316.697 163.999 316.097 163.499L310.297 170.799L310.697 184.899L307.697 182.199V182.099C307.697 181.799 306.697 175.399 306.697 172.699C306.697 172.099 306.497 171.599 306.197 171.299C305.597 170.899 304.797 170.999 304.397 171.099L303.497 184.599L311.497 193.399L313.097 203.999Z" fill="black"/>
<path d="M320.5 152.699V194.199C320.5 195.399 321.4 196.299 322.6 196.299H344.4C345.6 196.299 346.5 195.399 346.5 194.199V153.299C346.5 152.199 345.6 151.199 344.4 151.199L322.6 150.599C321.4 150.499 320.5 151.499 320.5 152.699Z" fill="black"/>
<path d="M346.5 160.299C346.5 160.299 350.7 160.299 351.1 163.399C351.5 166.499 351.5 167.899 354.2 170.999C356.9 174.099 359.9 176.899 360.5 183.499L361.1 186.899L349.3 199.399C349.3 199.399 329.9 198.999 327.5 198.199C325.1 197.399 322.7 195.499 322.7 195.499L320 187.299C320 187.299 321 185.399 322.7 187.799C324.4 190.199 327.4 192.899 327.4 192.899L333.2 193.499L335.9 192.099L325.1 187.399C325.1 187.399 317.3 183.099 317.3 182.099C317.3 181.099 317.6 178.899 317.6 178.899C317.6 178.899 316.3 177.299 317.3 175.099C318.3 172.899 322.2 175.099 322.2 175.099C322.2 175.099 334.1 179.599 335.9 179.799C337.7 179.999 340.2 179.799 340.2 179.799L322.8 169.599C322.8 169.599 322.8 167.599 326.3 168.399C329.8 169.199 340.4 173.299 342.3 173.699C344.3 174.099 346.3 172.699 346.3 172.699V160.299H346.5Z" fill="white"/>
<path d="M349.501 199.698H349.401C348.601 199.698 329.901 199.298 327.501 198.498C325.101 197.698 322.701 195.798 322.601 195.698L322.501 195.598L319.701 187.198L319.801 187.098C319.801 187.098 320.201 186.298 321.001 186.298C321.701 186.298 322.301 186.698 323.001 187.598C324.601 189.698 327.201 192.198 327.601 192.598L333.201 193.198L335.301 192.198L325.101 187.798C322.701 186.498 317.101 183.298 317.101 182.198C317.101 181.298 317.401 179.498 317.401 178.998C317.101 178.598 316.201 176.998 317.101 174.998C317.301 174.498 317.701 174.198 318.201 173.998C319.801 173.498 322.101 174.698 322.401 174.898C322.901 175.098 334.301 179.398 336.001 179.598C337.001 179.698 338.401 179.698 339.301 179.698L322.601 169.898V169.698C322.601 169.698 322.601 168.998 323.201 168.498C323.901 167.998 325.001 167.898 326.501 168.198C328.501 168.598 332.601 170.098 336.201 171.398C339.001 172.398 341.701 173.298 342.501 173.498C344.001 173.798 345.701 172.898 346.201 172.598V159.998H346.501C346.501 159.998 351.001 159.998 351.401 163.398L351.501 163.998C351.801 166.698 352.001 167.998 354.501 170.898C354.701 171.198 355.001 171.398 355.201 171.698C357.701 174.498 360.301 177.398 360.801 183.598L361.401 187.098L349.501 199.698ZM323.001 195.298C323.401 195.598 325.501 197.198 327.601 197.898C329.801 198.598 347.501 198.998 349.201 199.098L360.801 186.798L360.201 183.598C359.701 177.598 357.301 174.898 354.701 171.998C354.501 171.698 354.201 171.498 354.001 171.198C351.401 168.198 351.201 166.698 350.901 163.998L350.801 163.398C350.701 162.198 349.901 161.398 348.601 160.898C347.901 160.598 347.201 160.598 346.801 160.498V172.998L346.701 173.098C346.601 173.198 344.501 174.498 342.501 174.098C341.601 173.898 339.101 172.998 336.101 171.998C332.501 170.698 328.401 169.298 326.501 168.798C324.901 168.398 324.101 168.698 323.701 168.998C323.501 169.198 323.401 169.398 323.301 169.498L341.401 179.998L340.401 180.098C340.301 180.098 337.801 180.298 336.001 180.098C334.201 179.898 322.701 175.598 322.201 175.398C322.201 175.398 319.801 174.098 318.501 174.598C318.101 174.698 317.901 174.898 317.701 175.298C316.801 177.298 318.001 178.798 318.001 178.798L318.101 178.898V178.998C318.101 178.998 317.801 181.298 317.801 182.198C318.001 182.798 321.801 185.198 325.501 187.198L336.801 192.098L333.401 193.798L327.401 193.198L327.301 193.098C327.301 193.098 324.301 190.298 322.501 187.898C322.001 187.198 321.401 186.798 321.001 186.798C320.701 186.798 320.401 187.098 320.301 187.198L323.001 195.298Z" fill="black"/>
<path d="M338.297 186.899C338.297 186.999 336.997 186.799 335.097 186.299C333.197 185.799 330.497 184.999 327.697 183.899C324.797 182.799 322.297 181.599 320.597 180.699C318.797 179.799 317.797 178.999 317.897 178.999C317.997 178.899 319.097 179.399 320.897 180.199C322.697 180.999 325.197 182.099 328.097 183.199C330.897 184.299 333.497 185.199 335.397 185.799C337.197 186.399 338.397 186.799 338.297 186.899Z" fill="black"/>
<path d="M340.697 191.697C340.797 191.897 340.197 192.397 339.297 192.297C338.397 192.297 337.897 191.697 337.997 191.497C338.097 191.297 338.697 191.497 339.297 191.497C340.097 191.597 340.597 191.497 340.697 191.697Z" fill="black"/>
<path d="M343.804 186.398C344.004 186.498 343.604 187.398 342.504 187.698C341.404 187.998 340.604 187.398 340.704 187.198C340.804 186.998 341.504 187.098 342.304 186.898C343.104 186.798 343.604 186.298 343.804 186.398Z" fill="black"/>
<path d="M347.403 179.297C347.603 179.397 347.203 180.097 346.403 180.397C345.503 180.597 344.903 180.197 345.003 179.997C345.103 179.797 345.603 179.797 346.203 179.697C346.703 179.497 347.203 179.197 347.403 179.297Z" fill="black"/>
<path d="M350.498 171.998C350.498 172.198 349.498 172.498 348.298 172.798C347.098 173.098 345.998 173.298 345.898 173.098C345.798 172.898 346.798 172.398 348.098 171.998C349.398 171.698 350.498 171.798 350.498 171.998Z" fill="black"/>
<path d="M319.598 140.799C314.698 143.099 303.798 148.199 299.098 150.499C297.698 151.199 296.298 151.899 294.998 152.699C294.198 153.199 293.398 153.799 292.698 154.299C290.298 156.099 287.798 157.999 286.298 160.499C285.398 162.099 284.398 163.799 283.798 165.399C281.998 169.999 281.098 174.999 280.298 179.799C279.098 187.199 277.998 194.799 276.598 202.199C274.398 214.599 271.998 226.899 269.898 239.399C270.398 232.199 271.398 224.099 272.398 216.799C273.798 207.099 275.498 196.599 276.898 186.899C277.398 183.099 278.098 179.399 278.798 175.699C279.798 170.699 280.998 165.599 283.698 161.099L284.698 159.499C286.398 156.699 289.198 154.699 291.898 152.899C292.698 152.399 293.498 151.899 294.298 151.399C295.698 150.599 297.198 149.999 298.598 149.299C305.498 146.199 312.498 143.399 319.598 140.799Z" fill="black"/>
<script type="text/ecmascript" xlink:href="https://dev.w3.org/SVG/modules/ref/master/ref2.js"></script></svg>
