<svg width="640" height="360" viewBox="0 0 640 360" fill="none" 
xmlns="http://www.w3.org/2000/svg" 
xmlns:xlink="http://www.w3.org/1999/xlink">
<defs>
<ref id="colorOne" param="c1" default="#242C4F" />
<ref id="colorTwo" param="c2" default="#9296A7"/>
</defs>
<g clip-path="url(#clip0_5988_7428)">
<path d="M380.68 163.5L373.68 173L385.18 186.5L431.18 195L428.68 175L407.18 172.5L380.68 163.5Z" fill="white"/>
<path d="M223.18 197.53C231.72 200.4 240.28 203.22 248.59 206.71C250.63 207.61 252.81 208.01 255.04 207.88C261.58 207.47 268.19 203.75 271.32 197.95C273.23 193.99 273.67 189.32 274.65 185.03C277.18 171.77 279.55 158.47 281.84 145.16L282.39 145.81L281.89 145.01L285.6 137.41C285.53 137.64 290.5 124.95 290.49 125C290.42 125.33 292.86 115.24 293.12 114.17C293.11 114.1 293.07 114 293.02 113.94C292.96 113.85 292.89 113.79 292.78 113.74C292.6 113.63 292.2 113.63 291.99 113.66C291.86 113.68 291.6 113.92 291.41 114.2C290.39 115.78 289.91 117.69 289.41 119.52L287.72 123.76L287.7 123.82L287.66 123.87C286.9 124.76 286.26 125.79 285.26 126.5C284.98 126.66 284.57 126.5 284.5 126.18C284.48 125.26 284.82 124.49 285.01 123.62L285.8 120.78C286.4 118.83 288.75 108.86 289.32 106.61C289.31 106.3 289.19 105.93 288.97 105.69C288.75 105.44 288.41 105.3 288.04 105.24C287.4 105.13 286.72 105.73 286.29 106.38C284.95 108.56 284.76 111.25 284 113.69C283.49 115.21 282.11 119.38 281.57 121.02C281.57 121.02 281.57 121.02 281.57 121.03C281.57 121.03 281.56 121.06 281.55 121.08L281.02 120.96L283.11 105.66C283.39 104.4 283.67 102.97 283.29 101.73C283.17 101.45 283.02 101.18 282.76 101.08C280.62 100.43 280.37 103.92 279.9 105.32C278.69 109.58 278.27 114.02 276.98 118.27C276.7 119.27 276.26 120.23 275.63 121.07C275.26 121.64 274.7 121.66 274.77 120.87L275.49 116.84C275.85 113.99 277.9 107.59 275.29 105.58C275.07 105.48 274.83 106.01 274.72 106.18C273.74 108.32 273.33 110.69 272.86 112.99C272.35 115.56 270.98 122.43 270.46 125.09L270.42 125.15L268.28 128.31L267.78 129.05C267.65 128.51 266.69 124.64 266.54 124.01L266.51 123.88L266.57 123.74C267.48 121.37 267.82 118.23 265.85 116.31C265.36 115.78 264.65 115.56 264.11 116C263.34 121.79 262.55 127.98 261.76 133.55C261.9 135.39 263.07 137.26 263.99 138.89C265.01 140.57 266.13 142.21 267.3 143.79L267.55 143.87L267.99 144.02L267.81 144.45C264.09 153.28 256.53 171.08 252.76 179.9L252.66 180.14L252.43 180.04L223.18 167.42V197.52V197.53Z" fill="white"/>
<path d="M179.522 141.758C178.869 140.832 177.511 140.788 176.401 141.022C172.006 141.967 168.841 145.728 166.266 149.413C157.329 162.175 151.12 176.826 148.158 192.124L147.828 193.716C149.382 195.86 151.025 198.074 153.372 199.285C155.725 200.497 159.004 200.351 160.596 198.239C161.655 196.831 161.737 194.941 161.807 193.177C162.124 184.678 163.025 176.147 165.467 168.004C167.909 159.86 171.962 152.084 177.968 146.065C179.148 144.885 180.492 143.115 179.522 141.752" fill="url(#colorTwo)"/>
<path d="M153.704 273.287C158.474 249.28 163.256 225.128 163.814 200.658C164.017 191.81 162.926 181.548 155.543 176.664C151.795 174.184 147.12 173.658 142.643 173.264C138.095 172.871 133.249 172.605 129.228 174.761C124.687 177.197 122.181 182.182 120.386 187.015C116.492 197.499 114.545 208.821 108.811 218.424C103.344 227.582 94.5784 234.883 91.312 245.037C88.0646 255.109 91.0773 266.608 97.7941 274.784C104.517 282.96 114.532 288.008 124.915 290.076C131.321 291.351 138.323 291.484 144.013 288.268C150.45 284.634 152.556 280.949 153.704 273.287Z" fill="url(#colorTwo)"/>
<path d="M134.297 179.548C133.834 179.783 132.305 177.988 130.631 174.614C130.212 173.77 129.794 172.831 129.388 171.804C129.185 171.29 128.982 170.751 128.785 170.193C128.627 169.667 128.297 169.051 128.297 167.884C128.297 167.313 128.519 166.565 128.931 166.032C129.331 165.493 129.794 165.157 130.206 164.916C131.05 164.447 131.62 164.269 132.343 164.009C133.739 163.546 135.236 163.241 136.802 163.153C138.375 163.064 140.037 163.21 141.604 163.831C143.189 164.447 144.509 165.614 145.327 166.844C146.995 169.337 147.21 172.001 147.039 173.96C146.862 175.952 146.373 177.417 145.986 178.4C145.58 179.383 145.219 179.884 144.959 179.84C144.692 179.789 144.553 179.187 144.496 178.147C144.426 177.113 144.47 175.648 144.293 173.973C144.128 172.318 143.627 170.434 142.435 168.956C141.838 168.227 141.134 167.694 140.24 167.383C139.339 167.066 138.223 166.958 137.018 167.028C135.8 167.098 134.595 167.313 133.479 167.637C132.952 167.789 132.286 168.017 132.014 168.151L131.868 168.227L131.842 168.239C131.817 168.214 131.709 168.119 131.665 168.087C131.563 168.011 131.475 167.979 131.551 168.011C131.589 168.024 131.646 168.043 131.722 168.055L131.861 168.075C131.893 168.075 131.874 168.075 131.874 168.075C131.823 168.132 131.918 168.652 132.064 169.216C132.198 169.755 132.324 170.282 132.451 170.795C132.718 171.798 132.965 172.743 133.2 173.624C134.151 177.087 134.792 179.288 134.297 179.536" fill="url(#colorTwo)"/>
<path d="M125.932 290.759C125.932 290.759 125.647 290.436 125.165 289.776C124.702 289.104 124.074 288.07 123.465 286.637C122.209 283.795 121.309 279.222 121.943 273.672C122.482 268.097 124.886 261.837 127.74 255.133C129.135 251.759 130.613 248.226 131.717 244.433C132.839 240.646 133.581 236.606 134 232.433C134.831 224.067 134.425 216.031 134.114 208.737C133.803 201.437 133.41 194.859 133.74 189.303C134.064 183.753 135.548 179.333 137.343 176.764C138.199 175.451 139.081 174.607 139.689 174.062C140.33 173.548 140.673 173.294 140.685 173.313C140.787 173.409 139.226 174.309 137.596 176.922C135.916 179.485 134.546 183.836 134.292 189.329C134.038 194.815 134.476 201.398 134.831 208.692C135.18 215.98 135.611 224.054 134.774 232.496C134.349 236.708 133.594 240.799 132.453 244.636C131.324 248.48 129.82 252.031 128.406 255.399C125.514 262.091 123.097 268.243 122.495 273.723C121.803 279.178 122.602 283.675 123.75 286.51C124.873 289.377 126.034 290.69 125.939 290.747" fill="url(#colorOne)"/>
<path d="M128.932 252.527C128.824 252.71 121.6 248.734 112.797 243.641C103.987 238.547 96.9403 234.266 97.0481 234.082C97.1559 233.898 104.38 237.875 113.184 242.968C121.987 248.061 129.04 252.343 128.932 252.527Z" fill="url(#colorOne)"/>
<path d="M135.38 173.086C135.418 173.156 134.46 173.644 132.913 174.773C131.384 175.915 129.272 177.779 127.458 180.684C125.631 183.564 124.223 187.458 123.652 191.955C123.012 196.446 122.986 201.456 122.904 206.721C122.847 211.991 122.428 217.046 121.591 221.55C120.786 226.066 119.65 230.042 118.509 233.315C117.373 236.588 116.238 239.15 115.394 240.895C114.982 241.77 114.627 242.43 114.38 242.88C114.132 243.324 113.993 243.558 113.974 243.546C113.917 243.514 114.367 242.55 115.115 240.774C115.87 239.005 116.923 236.417 117.982 233.144C119.048 229.877 120.113 225.913 120.874 221.429C121.667 216.951 122.06 211.972 122.117 206.708C122.2 201.456 122.244 196.401 122.936 191.854C123.557 187.293 125.054 183.304 126.989 180.393C128.904 177.456 131.124 175.61 132.729 174.532C133.541 173.999 134.194 173.619 134.657 173.403C135.113 173.175 135.361 173.067 135.374 173.092" fill="white"/>
<path d="M222.824 197.88C231.367 200.753 239.93 203.569 248.245 207.064C250.287 207.964 252.469 208.364 254.695 208.231C261.234 207.825 267.843 204.102 270.977 198.298C272.892 194.334 273.323 189.672 274.307 185.378C276.837 172.116 279.209 158.816 281.499 145.509L282.051 146.162L281.55 145.357L285.26 137.752C285.19 137.98 290.157 125.289 290.15 125.346C290.074 125.695 292.814 114.354 292.808 114.424L292.795 114.57C292.795 114.519 292.744 114.367 292.687 114.291C292.63 114.202 292.554 114.138 292.446 114.088C292.262 113.974 291.863 113.974 291.654 114.005C291.52 114.024 291.26 114.265 291.07 114.544C290.049 116.124 289.567 118.039 289.072 119.866L287.379 124.103L287.353 124.166L287.315 124.217C286.56 125.111 285.92 126.139 284.918 126.849C284.639 127.008 284.226 126.849 284.163 126.526C284.138 125.606 284.486 124.832 284.677 123.963L285.47 121.128C286.072 119.168 288.457 109.052 289.009 106.895L288.996 106.971C288.99 106.66 288.863 106.274 288.641 106.039C288.425 105.785 288.083 105.646 287.715 105.589C287.074 105.474 286.396 106.077 285.964 106.73C284.62 108.912 284.429 111.601 283.675 114.037C283.161 115.572 281.746 119.834 281.22 121.432L280.687 121.312L282.78 106.014C283.066 104.758 283.338 103.324 282.964 102.081C282.844 101.802 282.691 101.536 282.438 101.428C280.294 100.775 280.047 104.269 279.577 105.671C278.366 109.927 277.947 114.367 276.66 118.623C276.381 119.618 275.937 120.582 275.309 121.426C274.941 121.997 274.376 122.016 274.452 121.223L275.175 117.189C275.531 114.341 277.586 107.942 274.979 105.931C274.763 105.836 274.516 106.362 274.408 106.534C273.425 108.671 273.019 111.043 272.55 113.339C272.042 115.908 270.672 122.783 270.146 125.441L270.101 125.504L267.958 128.669L267.457 129.411C267.323 128.872 266.372 125.003 266.213 124.375L266.182 124.249L266.239 124.109C267.146 121.743 267.488 118.604 265.522 116.682C265.008 116.124 264.241 115.902 263.695 116.447L263.81 116.2C263.029 122.035 262.23 128.301 261.437 133.921C261.577 135.76 262.744 137.631 263.664 139.261C264.704 140.98 265.846 142.655 267.044 144.266L266.841 144.12L267.222 144.247L267.666 144.399L267.482 144.83C263.759 153.659 256.198 171.463 252.431 180.279L252.329 180.52L252.095 180.419L233.01 172.11L233.054 172.015L252.298 179.943L251.962 180.082C255.615 171.19 262.991 153.367 266.689 144.5L266.949 145.078L266.562 144.951L266.435 144.906C265.167 143.238 263.987 141.519 262.89 139.731C261.85 137.86 260.645 136.116 260.511 133.858C261.285 127.876 262.116 121.908 262.922 115.933C263.385 115.426 264.019 115.153 264.691 115.242C267.33 115.952 268.129 119.244 267.767 121.616C267.634 122.593 267.393 123.513 267.019 124.439L267.044 124.172L268.021 128.352L267.304 128.219L269.486 125.079C269.778 123.303 271.516 115.489 271.966 113.225C272.55 110.726 272.911 108.056 274.262 105.83C275.068 104.713 276.095 106.248 276.349 107.054C276.996 109.058 276.66 111.221 276.304 113.231L275.562 117.246L274.82 121.255C274.82 121.325 274.814 121.401 274.82 121.458C274.82 121.489 274.833 121.502 274.833 121.502C274.833 121.477 274.757 121.458 274.757 121.47C275.537 120.709 276 119.561 276.33 118.515C277.719 113.967 278.169 109.159 279.469 104.58C279.825 103.293 280.053 101.536 281.474 100.99C283.37 100.445 283.706 102.684 283.548 104.041C283.427 104.663 281.366 120.151 281.239 121.382L280.706 121.261C281.582 118.42 283.129 114.246 283.706 111.354C284.258 109.248 284.556 106.787 286.364 105.31C287.651 104.231 289.821 105.284 289.751 107.022C289.548 107.866 286.801 119.587 286.719 119.942C286.231 121.857 285.444 124.337 285.089 126.278C285.076 126.367 285.089 126.291 285.064 126.278C285.006 126.056 284.721 125.923 284.531 126.012C285.216 125.397 285.926 124.439 286.56 123.64L286.497 123.754L288.171 119.511L288.152 119.58C288.666 117.849 289.63 113.06 291.812 112.978C292.751 112.883 293.766 113.491 293.829 114.519V114.582L293.816 114.665L291.184 125.663C291.184 125.663 291.165 125.714 291.165 125.733C291.159 125.752 286.313 138.202 286.307 138.221C286.307 138.247 282.584 145.813 282.571 145.839L282.07 145.033L282.622 145.686C281.08 154.56 279.501 163.427 277.858 172.287C276.615 178.934 275.328 185.569 273.844 192.165C273.431 193.808 273.114 195.514 272.455 197.1C269.201 204.996 259.63 209.95 251.315 208.605C247.985 207.869 245.023 206.1 241.807 204.996C235.522 202.522 229.179 200.214 222.805 197.975L222.836 197.873L222.824 197.88Z" fill="black"/>
<path d="M278.097 139.921C277.983 139.965 277.571 138.849 276.771 137.155C275.972 135.513 274.615 133.115 272.008 132.075C270.867 131.606 269.649 131.51 268.634 131.815L268.26 131.923L268.165 131.51C267.752 129.69 267.182 128.009 266.915 126.861C266.611 125.701 266.528 124.971 266.623 124.965C266.693 124.959 266.915 125.605 267.34 126.734C267.74 127.889 268.368 129.392 268.881 131.428L268.418 131.124C269.592 130.737 271.019 130.832 272.294 131.358C273.714 131.929 274.85 132.918 275.63 133.952C276.416 134.986 276.917 136.045 277.273 136.933C277.964 138.728 278.18 139.889 278.097 139.921Z" fill="black"/>
<path d="M216.188 156.76L242.256 174.119L235.184 207.875L219.923 200.492L216.188 156.76Z" fill="url(#colorOne)"/>
<path d="M181.298 96.0364C181.298 96.0364 170.668 91.2224 170.471 102.664C170.269 114.107 181.501 111.842 181.527 111.512C181.552 111.183 181.305 96.0364 181.305 96.0364" fill="white"/>
<path d="M183.936 114.854C183.86 124.405 183.042 133.907 181.469 143.325C181.539 133.773 182.369 124.279 183.936 114.854Z" fill="black"/>
<path d="M248.909 79.0122C248.909 76.4054 246.841 74.1601 244.45 73.1389C242.053 72.1178 239.37 72.0607 236.769 72.029C238.215 68.8704 239.693 65.6039 239.795 62.1345C239.896 58.6651 238.272 54.8977 235.076 53.5467C232.317 52.386 229.126 53.2422 226.431 54.5425C223.735 55.8364 221.198 57.5742 218.281 58.2529C210.701 60.0161 203.325 54.2507 195.542 54.1556C190.887 54.1048 186.117 56.6038 182.845 60.2762C167.273 65.8132 161.559 78.4921 161.166 94.4691C160.455 95.3126 159.631 96.042 158.66 96.5875C157.189 97.412 155.495 97.7545 153.973 98.4903C152.457 99.226 151.03 100.571 150.986 102.258C150.922 104.421 153.091 105.975 155.153 106.609C157.22 107.243 159.51 107.433 161.223 108.753C158.07 110.478 156.821 114.962 158.629 118.07C160.43 121.178 164.946 122.319 168.009 120.436C166.151 123.74 167.515 128.269 170.553 130.546C173.591 132.823 177.84 133.038 181.411 131.751C181.766 131.624 182.122 131.478 182.464 131.32C187.418 133.787 192.967 135.176 198.834 135.176C216.752 135.176 231.74 122.262 235.571 104.96C237.879 103.888 239.883 102.163 241.209 99.9871C243.6 96.0421 243.638 90.7904 241.311 86.8072C244.831 85.2406 248.915 82.8685 248.922 79.0185" fill="black"/>
<path d="M211.14 68.8306C196.971 68.8306 185.377 82.3466 184.336 99.497C181.311 98.7422 176.592 98.793 175.489 105.821C174.042 115.043 182.339 115.696 184.298 115.518L182.434 140.128C180.74 140.882 185.51 148.855 188.205 149.895C194.415 150.054 200.688 151.195 206.891 151.931C208.191 151.83 209.491 151.823 210.76 151.931C210.316 148.424 208.686 145.411 205.755 142.969L207.265 134.806C208.533 135.035 209.827 135.155 211.147 135.155C225.995 135.155 238.033 120.307 238.033 101.99C238.033 83.6722 225.995 68.8242 211.147 68.8242" fill="white"/>
<path d="M181.43 84.3032C188.235 66.4805 208.551 57.8482 224.375 70.4256C235.894 79.4765 240.061 95.2886 237.53 109.356C235.887 120.361 229.468 131.898 217.887 134.537C214.754 135.317 211.487 135.412 208.297 135.057C203.591 134.568 198.631 134.067 194.527 131.517L194.584 131.429C197.356 132.989 200.515 133.585 203.635 133.959C208.284 134.441 213.098 134.904 217.665 133.642C226.995 131.321 233.077 122.67 235.507 113.784C237.53 106.223 238.069 98.13 236.357 90.4555C233.8 78.265 224.014 66.8928 211.195 65.5735C197.705 64.0005 187.037 72.8865 181.436 84.3095" fill="black"/>
<path d="M183.759 112.354C183.721 112.316 183.563 112.443 183.246 112.525C182.935 112.601 182.427 112.601 181.939 112.31C180.956 111.726 180.385 109.887 180.671 108.085C180.816 107.172 181.165 106.348 181.622 105.688C182.066 105.016 182.63 104.597 183.176 104.603C183.728 104.578 184.039 104.965 184.115 105.269C184.197 105.574 184.096 105.758 184.146 105.789C184.172 105.821 184.394 105.663 184.387 105.238C184.387 105.035 184.311 104.775 184.115 104.54C183.912 104.299 183.582 104.134 183.201 104.109C182.421 104.02 181.597 104.597 181.096 105.314C180.55 106.03 180.138 106.956 179.973 107.978C179.662 109.995 180.341 112.069 181.698 112.754C182.364 113.064 182.992 112.963 183.334 112.785C183.69 112.595 183.785 112.386 183.753 112.36" fill="black"/>
<path d="M239.204 82.4457C237.295 76.0587 232.284 70.8704 226.348 67.8323C220.411 64.8006 213.618 63.7541 206.952 63.8365C200.286 63.919 193.683 65.0733 187.119 66.2277C185.527 66.5067 183.783 66.8746 182.8 68.1621C182.134 69.0311 181.95 70.1727 181.791 71.2573C180.434 80.4033 179.584 90.8433 178.227 99.9893C181.17 99.1457 183.681 98.8032 185.26 100.991C186.77 103.084 186.364 105.501 186.263 106.015C186.789 106.135 187.671 106.287 188.584 105.945C189.865 105.463 190.652 104.156 191.787 102.501C198.32 92.9553 201.136 85.8453 202.633 75.5069C203.273 76.8134 203.242 78.3293 203.438 79.7691C203.635 81.2089 204.18 82.7691 205.481 83.4224C207.65 84.507 210.111 82.3061 210.942 80.0291C211.779 77.7522 211.906 75.1136 213.485 73.2743C215.115 77.1179 217.633 80.5809 220.792 83.3209C222.276 84.6085 224.356 85.7882 226.113 84.9002C227.356 84.2723 227.946 82.7564 227.883 81.3674C227.826 79.9784 227.242 78.6655 226.671 77.397C228.828 81.0059 232.056 83.9552 235.843 85.7819C236.674 86.1815 237.676 86.524 238.488 86.0927C239.674 85.4584 239.585 83.7396 239.198 82.4457" fill="black"/>
<g opacity="0.3">
<mask id="mask0_5988_7428" style="mask-type:luminance" maskUnits="userSpaceOnUse" x="226" y="105" width="8" height="8">
<path d="M233.026 105.006H226.766V112.522H233.026V105.006Z" fill="white"/>
</mask>
<g mask="url(#mask0_5988_7428)">
<path d="M227.24 106.706C227.753 105.564 228.673 105.241 229.459 105.006C230.087 105.101 230.722 105.196 231.318 105.57C231.914 105.945 232.479 106.63 232.796 107.657C233.113 108.685 233.125 110.08 232.726 111C232.409 111.729 231.901 112.052 231.413 112.249C230.595 112.566 229.751 112.611 228.927 112.37C228.178 112.154 227.385 111.608 226.999 110.378C226.593 109.09 226.719 107.847 227.233 106.706" fill="#E3E3E2"/>
</g>
</g>
<path d="M213.133 145.337C212.911 141.602 213.476 137.853 214.675 134.32C214.846 134.346 214.909 134.377 215.1 134.238C215.493 133.972 216 133.972 216.438 133.997C216.026 134.092 215.588 134.174 215.29 134.479C215.195 134.599 214.973 134.733 214.801 134.726L214.992 134.568C214.694 138.208 214.186 141.836 213.127 145.337" fill="black"/>
<path d="M214.304 135.035C214.304 135.035 202.24 136.044 189.656 129.01C189.656 129.01 195.028 142.646 213.352 141.777L214.304 135.035Z" fill="black"/>
<path d="M204.732 106.323C205.246 105.181 206.165 104.858 206.952 104.623C207.58 104.718 208.214 104.813 208.81 105.188C209.406 105.562 209.971 106.247 210.288 107.274C210.605 108.302 210.618 109.697 210.218 110.617C209.901 111.346 209.394 111.67 208.905 111.866C208.087 112.183 207.243 112.228 206.419 111.987C205.67 111.771 204.878 111.226 204.491 109.995C204.085 108.708 204.212 107.465 204.725 106.323" fill="#E4E4E4"/>
<path d="M212.161 95.179C211.951 95.7372 209.903 95.4517 207.492 95.7118C205.076 95.9274 203.129 96.6124 202.812 96.105C202.672 95.864 203.015 95.3439 203.807 94.8111C204.594 94.2784 205.837 93.7836 207.283 93.6378C208.729 93.4982 210.049 93.7392 210.924 94.1071C211.805 94.475 212.243 94.919 212.154 95.179" fill="#192E35"/>
<path d="M232.745 95.9611C232.377 96.4241 230.969 95.9294 229.269 95.8913C227.569 95.7962 226.129 96.1767 225.8 95.6883C225.654 95.4473 225.888 94.9843 226.516 94.5467C227.138 94.109 228.178 93.7602 229.345 93.8046C230.512 93.849 231.521 94.2803 232.111 94.7623C232.707 95.2444 232.903 95.7264 232.738 95.9547" fill="#192E35"/>
<path d="M220.335 100.938C220.57 103.951 221.191 106.906 222.327 109.703C223.437 112.317 224.471 114.917 220.348 114.397C219.587 114.264 218.851 114.067 218.141 113.813C218.889 113.947 219.631 114.086 220.38 114.131C224.134 114.422 222.701 112.126 221.819 109.9C220.684 107.071 220.145 103.976 220.335 100.932" fill="black"/>
<path d="M221.789 301.357C221.789 301.357 221.862 297.915 225.719 322.115H155.219C155.219 322.115 152.337 318.716 151.824 312.19C151.31 305.663 153.65 289.191 153.65 289.191L221.795 301.35L221.789 301.357Z" fill="black"/>
<path d="M176.553 140.396L215.465 155.016C215.465 155.016 221.636 177.019 223.146 186.342C225.48 200.746 226.59 302.938 226.59 302.938C226.59 302.938 150.016 300.566 150.016 294.655C150.016 288.743 150.954 273.749 153.415 264.381C155.876 255.02 156.885 206.562 156.885 206.562C156.885 206.562 157.348 173.961 161.286 163.617C165.225 153.272 176.553 140.396 176.553 140.396Z" fill="url(#colorOne)"/>
<path d="M216.992 160.211C218.977 166.154 220.906 173.277 222.25 181.433C223.557 189.393 224.02 196.598 224.058 202.744L224.692 202.63C228.352 188.264 225.466 172.37 216.992 160.211Z" fill="url(#colorOne)"/>
<path d="M216.224 156.943C216.275 156.931 216.598 157.812 217.138 159.423C217.677 161.034 218.419 163.381 219.243 166.311C220.905 172.153 222.878 180.367 223.956 189.601C225.059 198.83 225.262 207.253 225.262 213.329C225.256 216.367 225.218 218.828 225.148 220.528C225.091 222.228 225.034 223.167 224.977 223.167C224.926 223.167 224.882 222.228 224.844 220.528C224.812 218.701 224.768 216.278 224.711 213.342C224.571 207.278 224.279 198.887 223.182 189.703C222.11 180.513 220.233 172.337 218.711 166.464C217.956 163.527 217.296 161.161 216.846 159.525C216.396 157.889 216.167 156.975 216.218 156.956" fill="black"/>
<path d="M185.434 248.701L138.861 281.512L137.281 270.197L185.434 231.957V248.701Z" fill="url(#colorTwo)"/>
<path d="M92.9866 319L548.66 320.06C549.603 320.06 550.359 320.932 550.359 322.008C550.359 323.076 549.603 323.948 548.66 323.948L92.9866 325C91.5373 325 90.3594 323.663 90.3594 322.008C90.3594 320.345 91.5373 319 92.9866 319.008" fill="black"/>
<path d="M153.484 172.407C162.516 160.597 178.55 150.849 193.963 152.472C199.887 153.094 205.906 155.219 209.902 159.646C213.872 164.048 215.356 170.13 216.162 176.003C219.466 200.035 213.403 225.235 199.525 245.138C198.225 247.002 196.76 248.905 194.673 249.812C192.586 250.719 189.72 250.231 188.698 248.195C200.699 229.389 206.819 206.885 205.988 184.591C205.747 178.198 204.707 171.291 200.147 166.8C196.265 162.976 193.233 162.05 187.791 161.885C180.922 161.682 174.751 165.449 168.7 171.259C163.747 176.016 155.647 184.452 154.182 191.162" fill="url(#colorTwo)"/>
<path d="M167.377 177.963L166.68 223.808L205.541 222.786C209.746 221.03 207.666 197.416 205.579 175.192C205.338 172.604 202.896 170.847 201.412 168.938C194.467 168.475 187.521 168.012 180.576 167.549L167.377 177.97V177.963Z" fill="url(#colorOne)"/>
<path d="M163.545 167.453C162.892 166.527 161.535 166.483 160.425 166.718C156.03 167.663 152.865 171.424 150.289 175.109C141.353 187.87 135.143 202.521 132.181 217.82L131.852 219.412C133.405 221.556 135.048 223.769 137.395 224.981C139.748 226.192 143.027 226.046 144.619 223.934C145.678 222.526 145.761 220.636 145.831 218.873C146.148 210.374 147.048 201.843 149.49 193.699C151.932 185.555 155.985 177.779 161.992 171.76C163.171 170.58 164.516 168.811 163.545 167.447" fill="url(#colorTwo)"/>
<g style="mix-blend-mode:multiply" opacity="0.33">
<mask id="mask1_5988_7428" style="mask-type:luminance" maskUnits="userSpaceOnUse" x="184" y="221" width="25" height="81">
<path d="M208.487 221.281H184.531V301.693H208.487V221.281Z" fill="white"/>
</mask>
<g mask="url(#mask1_5988_7428)">
<path d="M206.969 221.718C205.58 223.107 193.77 224.496 186.825 223.107C182.74 250.019 184.58 274.78 188.671 301.686L194.874 301.286C198.312 295.831 199.32 289.248 200.252 282.867L206.95 237.029C207.584 232.704 210.058 218.629 206.969 221.718Z" fill="url(#colorOne)"/>
</g>
</g>
<path d="M160.383 350.165V298.09H233.027V350.165H160.383Z" fill="url(#colorOne)" stroke="black"/>
<path d="M175.015 223.807C175.015 223.807 172.548 252.393 171.901 261.019C171.28 269.289 177.806 323.861 177.806 323.861L178.307 329.817V339.191C178.307 341.037 179.385 345.648 180.159 347.183C180.927 348.718 184.009 347.798 184.009 347.798C184.009 347.798 184.32 349.948 186.013 350.874C187.707 351.794 189.711 349.339 189.711 349.339C190.022 351.952 190.789 353.183 192.946 353.183C195.102 353.183 196.409 351.185 196.409 351.185C196.637 353.95 200.189 354.413 201.267 353.798C202.346 353.183 201.883 341.963 201.883 341.963C204.045 345.293 206.012 342.66 206.012 342.66L202.809 329.056L195.863 321.394L196.682 264.184L202.111 223.819" fill="white"/>
<path d="M175.073 223.808C174.337 234.825 173.196 249.362 172.358 260.303C172.079 265.815 172.859 271.32 173.284 276.826C174.122 285.648 175.035 294.477 176.018 303.287C176.513 307.702 177.756 318.858 178.251 323.12C178.479 325.359 178.631 327.579 178.815 329.812L178.802 335.26C178.802 336.097 178.783 338.508 178.796 339.332C178.929 341.533 179.468 343.753 180.109 345.859C180.249 346.265 180.407 346.715 180.578 347.038C181.289 347.977 182.836 347.635 183.896 347.4L184.333 347.286C184.485 348.573 185.139 350.076 186.382 350.609C187.809 351.015 189.116 349.487 189.965 348.491C190.086 349.493 190.181 350.66 190.606 351.542C191.228 352.988 193.181 353.121 194.443 352.487C195.382 352.055 196.08 351.18 196.644 350.343L196.695 351.136C196.803 353.165 199.359 354.199 201.103 353.578C201.566 353.026 201.528 351.833 201.636 351.066C201.864 347.825 201.782 344.539 201.674 341.279C202.657 342.998 204.198 344.463 205.873 342.535L205.841 342.681C205.048 339.281 203.443 332.469 202.625 329.076C202.923 329.495 195.604 321.414 195.686 321.528C195.61 321.452 195.629 321.465 195.629 321.37C195.699 308.05 195.801 291.775 196.004 278.456C196.004 278.45 196.251 264.115 196.257 264.103C198.097 250.65 200.044 237.216 202.054 223.789L202.162 223.802C200.564 237.191 198.858 250.986 197.107 264.166C196.898 282.135 196.644 303.902 196.035 321.218L202.949 328.911L202.98 328.949L202.993 328.994C203.773 332.425 205.391 339.256 206.209 342.681C205.321 343.911 203.659 344.216 202.568 343.068C202.245 342.763 201.972 342.408 201.731 342.047L202.073 341.939C202.181 344.996 202.264 348.047 202.099 351.104C202.016 351.967 202.016 352.893 201.636 353.73C201.591 353.85 201.426 353.977 201.331 354.022C199.276 354.852 196.276 353.584 196.124 351.186L196.657 351.32C196.143 352.043 195.502 352.626 194.716 353.032C193.53 353.635 191.989 353.673 190.866 352.899C189.769 352.074 189.534 350.59 189.357 349.36L189.978 349.537C189.509 350.089 188.989 350.565 188.361 350.945C186.109 352.48 183.94 350.038 183.604 347.838L184.118 348.167C182.754 348.503 180.8 348.884 179.83 347.47C179.57 346.994 179.43 346.575 179.272 346.131C178.568 343.918 177.991 341.679 177.826 339.351C177.807 336.909 177.8 332.292 177.794 329.799C177.128 321.319 175.771 312.015 174.908 303.401C173.963 294.579 173.012 285.756 172.276 276.908C171.921 271.378 171.21 265.79 171.566 260.234C172.111 254.1 173.113 243.235 173.678 237.039L174.959 223.789H175.067L175.073 223.808Z" fill="black"/>
<path d="M196.269 342.752C196.085 342.752 195.965 344.642 196.009 346.97C196.047 349.298 196.231 351.181 196.415 351.175C196.599 351.175 196.713 349.285 196.675 346.957C196.637 344.629 196.453 342.746 196.269 342.752Z" fill="black"/>
<path d="M189.53 342.451C189.346 342.451 189.207 343.967 189.22 345.832C189.232 347.697 189.391 349.212 189.575 349.212C189.759 349.212 189.898 347.697 189.886 345.832C189.873 343.967 189.714 342.451 189.53 342.451Z" fill="black"/>
<path d="M183.89 342.065C183.693 342.097 183.808 343.397 183.89 344.938C183.953 346.479 183.814 347.754 184.004 347.792C184.169 347.83 184.619 346.562 184.556 344.913C184.467 343.276 184.049 342.039 183.884 342.065" fill="black"/>
<path d="M202.042 334.34C201.852 334.34 201.763 336.205 201.687 338.482C201.617 340.765 201.586 342.623 201.776 342.642C201.954 342.661 202.283 340.809 202.353 338.507C202.429 336.198 202.22 334.334 202.042 334.34Z" fill="black"/>
<path d="M171.317 182.015C170.156 194.199 170.029 206.428 169.668 218.643C169.636 219.328 169.706 219.944 169.966 220.546C170.568 222.068 172.167 223.115 173.828 223.09L174.907 223.115L177.063 223.166C184.224 223.299 191.512 223.223 198.666 223.071C199.383 223.032 203.36 223.026 203.994 222.906C206.081 222.601 207.692 220.584 207.514 218.479C207.108 211.153 206.696 203.688 206.379 196.368C206.22 192.201 206.036 187.603 205.928 183.417C205.884 182.237 205.871 180.328 205.7 179.154C205.053 173.522 202.104 168.188 197.505 164.782L197.581 164.668C202.56 167.763 205.903 173.218 206.772 179.009C207.007 180.226 207.038 182.11 207.133 183.366C207.387 187.565 207.654 192.138 207.856 196.305C208.205 203.624 208.459 211.096 208.719 218.428C208.865 221.079 206.791 223.616 204.133 223.895C203.372 223.997 199.503 223.838 198.666 223.838C191.518 223.692 184.224 223.61 177.063 223.743C176.423 223.743 174.463 223.813 173.822 223.819C171.856 223.927 169.896 222.772 169.072 220.946C168.387 219.531 168.628 217.977 168.57 216.474C168.564 210.709 168.773 204.937 169.154 199.184C169.573 193.432 170.105 187.673 171.171 181.996L171.31 182.015H171.317Z" fill="black"/>
<path d="M154.773 189.627C158.883 180.151 165.93 171.995 174.588 166.382C175.837 165.595 177.099 164.84 178.406 164.168C168.499 170.466 160.317 179.289 154.773 189.633" fill="url(#colorOne)"/>
<path d="M152.445 172.75C155.154 169.313 158.426 166.344 161.807 163.579C165.232 160.883 168.797 158.213 172.843 156.52C169.063 158.682 165.651 161.416 162.245 164.118C158.864 166.845 155.534 169.687 152.445 172.75Z" fill="url(#colorOne)"/>
<path d="M383.744 305.093C376.868 306.66 337.399 311.582 330.365 311.112C323.331 310.643 316.125 307.821 311.958 302.138C308.654 297.634 307.607 291.894 307.011 286.338C304.918 266.892 307.265 247.243 306.574 227.695C306.244 218.251 305.204 208.743 306.599 199.4C307.994 190.058 312.244 180.626 320.185 175.501C327.377 170.865 336.39 170.408 344.94 170.091C354.771 169.73 360.257 169.501 370.088 169.812C373.462 169.92 379.361 177.88 384.835 183.855C389.344 188.783 402.15 187.051 402.22 193.73C402.531 224.06 400.476 254.365 398.414 284.626C398.091 289.402 397.717 294.343 395.446 298.56C393.175 302.772 388.437 306.064 383.75 305.093" fill="url(#colorTwo)"/>
<path d="M340.656 223.167C340.656 224.397 351.445 281.728 351.445 281.728L343.719 320.498H435.219L437.52 277.028L427.854 174.278L419.228 173.511C419.228 173.511 420.668 187.052 409.264 188.206C397.981 189.348 376.68 169 376.68 169L351.756 177.5L340.656 223.16V223.167Z" fill="url(#colorOne)"/>
<path d="M351.758 177.506C351.758 177.506 341.134 179.263 334.773 189.1C328.411 198.937 293.597 255.444 295.328 269.042C297.066 282.641 311.66 285.286 311.66 285.286L361.862 286.605L364.202 265.478C351.39 262.617 335.921 259.769 332.864 256.883L351.549 224.682C351.549 224.682 363.701 205.299 361.963 194.016C360.225 182.732 351.758 177.506 351.758 177.506Z" fill="url(#colorOne)"/>
<path d="M402.876 252.765C403.885 252.41 404.937 252.112 406.003 252.105C407.075 252.105 408.185 252.416 408.952 253.165C409.72 253.907 410.075 255.125 409.644 256.101C409.345 256.774 408.743 257.256 408.159 257.706C406.231 259.203 404.303 260.693 402.375 262.19" fill="white"/>
<path d="M351.756 177.506C351.756 177.506 356.205 174.147 362.18 173.5C367.791 171.394 372.18 170.5 372.18 170.5C372.18 170.5 403.562 202.197 405.173 228.031C406.79 253.864 407.691 273.241 395.323 284.861C385.219 294.349 340.656 310.586 340.656 310.586L343.891 294.045C343.891 294.045 353.164 292.218 361.86 286.598C370.34 281.118 378.217 271.972 380.507 261.609C385.156 240.621 385.226 242.879 380.507 227.06C375.788 211.236 359.361 182.193 351.749 177.506" fill="url(#colorTwo)"/>
<path d="M362.898 283.549C366.165 283.574 376.269 283.416 379.446 280.479C379.446 280.479 380.436 280.194 380.436 278.786C380.436 277.695 380.353 274.339 380.315 272.862C380.302 272.475 380.62 272.164 381.007 272.183L383.854 272.291C384.019 272.291 384.178 272.335 384.324 272.411C385.218 272.862 388.611 274.523 389.468 274.276C390.457 273.997 391.021 272.722 391.161 272.018C391.301 271.314 388.199 268.206 386.645 267.787C385.091 267.363 382.554 266.659 382.554 266.659C382.554 266.659 382.269 265.105 383.544 265.244C384.133 265.308 384.907 265.409 385.567 265.491C386.455 265.606 387.292 265.954 388.002 266.5L392.569 270.039C392.569 270.039 394.542 270.039 394.688 267.921C394.827 265.802 393.419 264.109 393.419 264.109L390.064 260.754C389.677 260.367 389.176 260.119 388.63 260.056L383.683 259.453C383.683 259.453 383.544 258.045 384.673 257.76C385.802 257.474 388.059 257.899 388.059 257.899L394.7 261.851C394.7 261.851 395.962 261.286 395.962 259.593C395.962 257.899 391.732 251.271 389.049 250.846C386.366 250.421 383.708 251.157 383.708 251.157L383.829 244.777L386.226 243.368C386.226 243.368 389.892 243.654 391.021 242.944C392.15 242.24 391.161 240.546 391.161 240.546L384.527 238.916C384.527 238.916 378.317 241.536 377.899 242.24C377.474 242.944 377.899 244.497 377.899 244.497L377.708 250.986C377.708 250.986 373.801 255.077 373.522 256.491C373.237 257.899 373.522 260.018 373.522 260.018C373.522 260.018 372.393 262.84 372.393 263.544V265.238L370.985 266.367H363.767" fill="white"/>
<path d="M362.898 283.512C365.746 283.486 368.594 283.328 371.404 282.941C374.157 282.528 377.182 282.04 379.383 280.264C380.62 279.687 380.081 278.038 380.144 276.934L380.036 273.002C379.966 272.609 380.22 272.069 380.664 271.943C380.968 271.847 381.425 271.911 381.749 271.911L383.715 271.968C384.305 271.93 384.977 272.412 385.656 272.691C386.772 273.173 388.053 273.807 389.227 273.934C389.48 273.934 389.677 273.788 389.88 273.636C390.356 273.211 390.679 272.558 390.806 271.936C390.787 271.936 390.806 271.943 390.774 271.873C389.943 270.427 388.51 269.222 387.089 268.353C386.601 268.048 383.055 267.198 382.446 266.995L382.218 266.932L382.186 266.704C381.977 265.505 382.637 264.617 383.861 264.896C385.174 265.061 386.632 265.105 387.78 265.892C389.271 266.97 391.301 268.632 392.772 269.754L392.556 269.685C393.051 269.666 393.609 269.437 393.92 269.044C394.916 267.674 394.015 265.454 393.178 264.332C392.506 263.653 390.825 261.966 390.184 261.306C389.702 260.773 389.252 260.412 388.567 260.336L387.863 260.247C386.975 260.133 384.558 259.822 383.639 259.701L383.423 259.676C383.379 259.086 383.429 258.484 383.835 257.989C384.178 257.564 384.768 257.462 385.269 257.443C386.252 257.418 387.216 257.513 388.155 257.716L394.77 261.706H394.611C396.222 260.767 395.886 259.01 395.093 257.615C394.351 256.175 393.444 254.811 392.404 253.562C391.618 252.655 390.774 251.729 389.69 251.19C387.749 250.505 385.522 250.885 383.556 251.329V251.164L383.639 244.784V244.688L383.721 244.638L386.106 243.204L386.157 243.173H386.22C387.451 243.236 388.719 243.255 389.918 243.052C391.465 242.868 391.567 241.866 390.92 240.68L391.085 240.8L384.444 239.208L384.634 239.196C382.491 240.173 380.157 241.048 378.203 242.354C377.816 242.862 378.076 243.877 378.184 244.505L377.975 250.993V251.101C376.503 252.712 374.911 254.31 373.865 256.213C373.452 257.386 373.624 258.801 373.725 260.044C373.313 261.097 372.875 262.156 372.603 263.247C372.507 263.729 372.571 264.82 372.545 265.315L372.482 265.365L371.055 266.475L371.017 266.507H370.973L363.755 266.406V266.336L370.973 266.228L370.884 266.26L372.279 265.112L372.216 265.238L372.203 263.888C372.203 262.505 372.882 261.224 373.313 259.936C373.154 259.181 372.989 257.158 373.414 256.016C374.436 254.031 376.021 252.439 377.493 250.79L377.417 250.974L377.582 244.486L377.594 244.574C377.429 243.705 377.138 242.703 377.746 241.929C379.808 240.439 382.199 239.652 384.489 238.6L384.584 238.625L391.205 240.287L391.32 240.318C391.504 240.655 391.649 240.991 391.732 241.365C392.068 242.646 391.186 243.382 390 243.502C388.719 243.693 387.457 243.648 386.195 243.56L386.309 243.534L383.899 244.923L383.981 244.784L383.823 251.164L383.658 251.037C385.643 250.625 387.837 250.276 389.785 250.999C392.309 252.426 393.958 255.014 395.36 257.481C396.28 259.042 396.552 261.059 394.681 262.048L394.599 261.997L387.933 258.084C387.419 258.046 386.081 257.818 385.3 257.906C384.311 257.894 383.854 258.503 383.924 259.429L383.702 259.2C385.002 259.353 387.362 259.619 388.637 259.765C389.899 259.841 390.768 261.103 391.624 261.877L393.641 263.875C394.072 264.408 394.377 264.978 394.624 265.594C395.461 267.541 395.093 270.357 392.455 270.382L392.353 270.306L389.867 268.391C388.675 267.547 387.508 266.291 386.062 265.955C385.605 265.835 385.072 265.803 384.558 265.733C384.241 265.708 383.423 265.543 383.182 265.632C382.871 265.74 382.871 266.279 382.916 266.583L382.656 266.298C383.417 266.545 386.791 267.344 387.444 267.725C388.922 268.6 390.172 269.748 391.186 271.137C391.351 271.41 391.548 271.676 391.516 272.063C391.269 273.186 390.514 274.575 389.227 274.638C387.387 274.397 385.751 273.395 384.102 272.64C383.88 272.532 382.021 272.532 381.742 272.494L381.254 272.475C381.051 272.45 380.759 272.444 380.651 272.659C380.601 272.754 380.594 272.799 380.601 272.995L380.651 276.941C380.594 278.241 381.089 280.061 379.516 280.689C377.683 282.287 374.138 282.934 371.455 283.251C368.658 283.499 365.575 283.778 362.911 283.518" fill="black"/>
<path d="M378.696 265.535C378.676 265.642 378.118 265.547 377.275 265.509C376.431 265.439 375.321 265.731 374.56 266.746C373.786 267.723 373.564 268.909 373.393 269.752C373.241 270.609 373.133 271.154 373.032 271.141C372.936 271.135 372.867 270.59 372.898 269.695C372.943 268.82 373.095 267.475 374.008 266.308C374.459 265.738 375.049 265.306 375.67 265.103C376.292 264.894 376.882 264.938 377.332 265.014C378.232 265.198 378.721 265.458 378.702 265.541" fill="black"/>
<path d="M389.746 260.398C389.708 260.537 385.154 259.554 381.52 259.579C379.712 259.586 378.044 259.573 376.883 259.611C375.71 259.656 375.031 259.909 374.987 259.82C374.936 259.738 375.609 259.294 376.833 259.116C378.051 258.945 379.687 258.882 381.526 258.875C385.192 258.85 389.803 260.163 389.746 260.404" fill="black"/>
<path d="M387.639 250.565C387.614 250.711 385.356 251.314 382.762 251.796C380.18 252.246 378.018 252.487 377.992 252.253C377.98 252.1 380.028 251.555 382.648 251.105C383.954 250.889 385.166 250.781 386.047 250.8C386.929 250.813 387.652 250.483 387.639 250.572" fill="black"/>
<path d="M369.121 279.845C368.931 279.902 368.049 276.801 368.55 272.9C369.039 268.987 370.821 266.247 370.986 266.367C371.214 266.475 369.838 269.272 369.381 273.001C368.899 276.725 369.388 279.807 369.128 279.839" fill="black"/>
<path d="M452.19 240.031C449.107 216.709 441.039 186.975 436.771 179.624C432.502 172.273 428.094 173.573 427.859 174.283L436.796 268.826L437.012 294.425C441.115 289.103 448.872 278.777 448.872 278.777C448.872 278.777 455.278 263.359 452.196 240.037" fill="url(#colorTwo)"/>
<path d="M454.335 236.702C454.614 236.125 455.166 235.123 456.669 234.729C458.172 234.336 459.961 234.615 460.95 235.814C462.035 237.127 461.838 239.15 460.95 240.596C460.062 242.049 459.174 243.793 457.773 244.763C461.819 244.491 462.016 248.861 460.551 251.689C461.604 251.119 463.037 251.74 463.563 252.818C464.09 253.897 463.836 255.229 463.177 256.231C462.517 257.233 461.515 257.95 460.475 258.558C458.356 259.795 456.022 260.664 453.612 261.108C452.73 261.267 451.728 261.343 451.043 260.766C450.358 260.188 450.536 258.761 451.43 258.717C450.257 258.736 449.026 258.742 447.973 258.21C446.927 257.677 446.14 256.421 446.546 255.317C446.756 254.753 447.225 254.328 447.675 253.935C450.193 251.727 452.439 249.298 454.957 247.091C453.124 247.751 451.417 248.639 449.534 248.138C447.65 247.636 446.115 245.423 447.054 243.717C447.77 242.41 449.356 241.535 450.599 240.71C452.274 239.607 453.307 237.863 454.475 236.524" fill="white"/>
<path d="M454.305 236.682C455.168 234.386 458.32 233.808 460.311 234.988C461.758 235.819 462.227 237.709 461.802 239.25C461.637 240.03 461.187 240.747 460.812 241.375C460.045 242.669 459.278 244.071 457.946 245.028L457.743 244.458C462.024 244.16 462.366 248.897 460.73 251.802L460.438 251.517C462.671 250.515 464.561 253.026 463.825 255.094C462.779 258.494 457.375 260.378 454.21 261.189C453.036 261.456 451.381 261.811 450.576 260.606C450.119 259.857 450.379 258.538 451.4 258.468L451.419 259.014C450.239 259.046 448.926 259.065 447.817 258.506C446.649 257.91 445.749 256.566 446.237 255.189C446.599 254.308 447.328 253.832 447.867 253.312C450.17 251.206 452.332 248.923 454.711 246.842L455.072 247.451C454.229 247.749 453.392 248.117 452.485 248.371C451.59 248.637 450.582 248.745 449.624 248.517C447.734 248.067 446.053 246.119 446.611 244.102C447.328 242.238 449.225 241.464 450.721 240.436C452.199 239.428 453.227 237.874 454.445 236.529L454.495 236.574C453.354 237.969 452.434 239.593 450.918 240.715C449.548 241.724 447.709 242.606 447.119 244.255C446.681 245.878 448.21 247.566 449.764 247.87C451.514 248.238 453.182 247.356 454.825 246.766L456.601 246.119L455.18 247.375C452.846 249.437 450.696 251.739 448.324 253.826C447.734 254.358 447.087 254.821 446.852 255.424C446.37 256.8 447.785 258.107 449.123 258.304C449.852 258.462 450.626 258.462 451.406 258.456L451.425 259.001C451.102 259.001 450.867 259.363 450.861 259.781C450.975 262.686 458.155 259.693 459.582 258.919C461.231 258.05 463.064 256.933 463.565 255.024C463.819 254.13 463.692 253.077 463.058 252.418C462.449 251.752 461.39 251.46 460.635 251.897L460.039 252.24C460.851 250.737 461.358 248.91 460.952 247.255C460.438 245.041 458.574 244.965 456.671 245.155L457.578 244.521C458.751 243.703 459.531 242.377 460.311 241.096C461.142 239.878 461.681 238.47 461.295 237.018C460.705 234.773 457.755 234.246 455.872 235.153C455.206 235.477 454.692 236.054 454.349 236.726L454.286 236.694L454.305 236.682Z" fill="black"/>
<path d="M460.639 252.108C460.791 252.267 458.914 254.297 456.085 256.168C453.263 258.051 450.656 258.99 450.573 258.787C450.472 258.565 452.869 257.316 455.628 255.476C458.394 253.65 460.481 251.931 460.645 252.108" fill="black"/>
<path d="M430.495 94.8616C445.761 90.6438 452.06 93.2189 455.015 96.219C459.766 101.033 464.307 111.035 458.586 123.124C454.02 132.771 446.871 130.704 454.451 143.795C450.728 146.262 442.355 145.33 439.292 140.351C433.78 131.395 437.193 110.604 431.028 104.724C418.672 92.9398 432.328 97.0625 430.488 94.868" fill="black"/>
<path d="M428.233 94.8121C432.159 93.5435 436.453 96.4675 437.595 100.311C438.724 104.218 437.664 109.723 434.062 111.88C434.728 110.193 434.797 108.518 434.759 106.781C434.69 105.144 434.461 103.476 434.017 102.131C432.736 99.1567 430.478 97.1905 428.227 94.8184" fill="url(#colorOne)"/>
<path d="M380.303 152.059C381.679 144.479 382.732 139.754 381.869 136.773C380.138 130.792 380.322 121.855 381.184 122.331C383.601 123.676 390.54 118.005 406.625 96.8909C413.113 98.7937 421.809 102.536 427.942 110.642C432.331 116.439 433.498 121.957 434.817 121.646C436.65 121.215 436.872 110.033 432.642 100.1C431.538 97.5062 429.16 92.0832 423.534 87.2882C418.415 82.9245 413.272 81.3199 411.286 80.7744C405.153 79.1063 400.187 79.7913 397.333 80.2099C387.838 81.6053 381.026 86.21 377.461 89.0832C374.208 92.7365 368.645 100.069 366.609 110.711C362.474 132.295 378.267 149.712 380.303 152.059Z" fill="black"/>
<path d="M381.964 139.236C381.888 148.699 381.74 155.17 380.18 164.5C380.249 155.037 380.41 148.566 381.964 139.236Z" fill="black"/>
<path d="M408.939 93.581C394.89 93.581 383.385 106.989 382.351 124C379.351 123.252 374.664 123.302 373.573 130.273C372.139 139.425 380.372 140.072 382.313 139.895L380.461 164.301C378.78 165.049 385.897 172.381 388.573 173.415C394.738 173.574 398.569 175.28 404.721 176.009C406.015 175.908 407.296 175.902 408.559 176.009C408.115 172.527 406.504 169.54 403.592 167.117L405.089 159.024C406.345 159.246 407.633 159.366 408.939 159.366C423.667 159.366 435.61 144.639 435.61 126.467C435.61 108.296 423.667 93.5684 408.939 93.5684" fill="white"/>
<path d="M379.467 108.925C386.216 91.2483 406.366 82.6795 422.064 95.1617C433.487 104.143 437.623 119.822 435.111 133.782C433.481 144.697 427.119 156.139 415.626 158.759C412.519 159.533 409.284 159.621 406.112 159.273C401.444 158.791 396.529 158.296 392.451 155.759L392.508 155.67C395.254 157.218 398.387 157.814 401.482 158.182C406.093 158.657 410.869 159.12 415.398 157.865C424.658 155.562 430.69 146.981 433.094 138.164C435.098 130.668 435.637 122.638 433.937 115.027C431.407 102.931 421.696 91.6543 408.979 90.3477C395.596 88.7874 385.017 97.6036 379.461 108.931" fill="black"/>
<path d="M381.781 136.755C381.743 136.716 381.585 136.843 381.268 136.919C380.957 136.996 380.456 136.996 379.974 136.704C379.003 136.127 378.433 134.3 378.718 132.511C378.864 131.604 379.213 130.786 379.663 130.133C380.101 129.467 380.665 129.048 381.204 129.055C381.75 129.029 382.067 129.416 382.13 129.714C382.213 130.019 382.111 130.203 382.162 130.228C382.187 130.26 382.403 130.101 382.403 129.683C382.403 129.48 382.327 129.226 382.13 128.991C381.927 128.757 381.597 128.592 381.223 128.56C380.449 128.471 379.631 129.042 379.137 129.759C378.597 130.469 378.185 131.389 378.02 132.404C377.709 134.408 378.382 136.463 379.733 137.141C380.392 137.452 381.014 137.351 381.356 137.173C381.705 136.989 381.8 136.774 381.769 136.748" fill="black"/>
<path d="M434.85 106.914C433.036 100.584 428.248 95.4525 422.558 92.4588C416.869 89.4651 410.355 88.4503 403.955 88.5518C397.556 88.6532 391.22 89.8203 384.915 90.981C383.386 91.26 381.712 91.6343 380.767 92.9091C380.126 93.7781 379.949 94.907 379.79 95.9789C378.458 105.055 377.621 115.406 376.289 124.476C379.112 123.633 381.528 123.284 383.038 125.453C384.484 127.527 384.084 129.924 383.989 130.432C384.496 130.546 385.34 130.698 386.215 130.356C387.446 129.874 388.207 128.58 389.298 126.931C395.59 117.442 398.311 110.389 399.782 100.133C400.391 101.427 400.359 102.93 400.543 104.357C400.727 105.785 401.247 107.332 402.497 107.973C404.577 109.045 406.936 106.85 407.748 104.592C408.56 102.334 408.687 99.7147 410.203 97.8881C411.757 101.694 414.167 105.119 417.18 107.827C418.6 109.102 420.592 110.262 422.279 109.381C423.472 108.753 424.042 107.25 423.992 105.873C423.941 104.491 423.383 103.197 422.837 101.941C424.892 105.512 427.988 108.429 431.609 110.231C432.408 110.624 433.366 110.966 434.146 110.535C435.288 109.907 435.205 108.195 434.844 106.92" fill="black"/>
<path d="M411.185 166C410.963 162.296 411.262 162.05 412.448 158.543C412.619 158.568 412.683 158.6 412.867 158.461C413.253 158.194 413.754 158.194 414.198 158.22C413.786 158.308 413.355 158.397 413.057 158.695C412.962 158.816 412.746 158.949 412.575 158.943L412.765 158.784C412.467 162.393 412.226 162.531 411.18 166" fill="black"/>
<path d="M412.077 159.246C412.077 159.246 400.115 160.242 387.633 153.271C387.633 153.271 392.961 166.794 411.138 165.938L412.077 159.246Z" fill="black"/>
<path d="M402.58 130.775C403.088 129.646 404.001 129.323 404.781 129.088C405.403 129.183 406.031 129.272 406.627 129.646C407.217 130.014 407.781 130.699 408.092 131.72C408.403 132.741 408.415 134.124 408.022 135.037C407.711 135.76 407.204 136.084 406.722 136.274C405.916 136.591 405.073 136.629 404.261 136.395C403.519 136.179 402.732 135.64 402.346 134.422C401.946 133.147 402.073 131.91 402.58 130.781" fill="#E4E4E4"/>
<path d="M409.952 119.713C409.742 120.265 407.713 119.979 405.322 120.246C402.924 120.461 400.99 121.14 400.679 120.639C400.539 120.398 400.882 119.884 401.668 119.358C402.448 118.831 403.685 118.336 405.119 118.191C406.552 118.051 407.865 118.292 408.734 118.654C409.609 119.015 410.041 119.459 409.952 119.719" fill="#192E35"/>
<path d="M430.373 120.493C430.011 120.949 428.61 120.461 426.929 120.423C425.242 120.328 423.808 120.708 423.485 120.22C423.345 119.985 423.574 119.522 424.195 119.091C424.817 118.66 425.844 118.311 427.005 118.355C428.166 118.4 429.161 118.831 429.745 119.307C430.335 119.789 430.531 120.264 430.373 120.486" fill="#192E35"/>
<path d="M418.057 125.434C418.298 128.421 418.888 131.358 420.029 134.13C421.133 136.718 422.154 139.299 418.07 138.785C417.315 138.652 416.585 138.462 415.875 138.208C416.617 138.341 417.353 138.481 418.095 138.519C421.818 138.811 420.397 136.534 419.522 134.32C418.418 131.51 417.854 128.447 418.051 125.428" fill="black"/>
<path d="M371.196 99.682C355.929 95.4641 349.631 98.0392 346.669 101.039C341.919 105.853 340.339 114.853 343.098 127.945C344.487 134.547 354.813 135.524 347.234 148.615C350.957 151.082 359.329 150.15 362.392 145.171C367.904 136.215 364.492 115.424 370.657 109.545C383.012 97.7601 369.357 101.883 371.196 99.6883" fill="black"/>
<path d="M368.599 98.3188C372.69 98.8643 375.309 103.349 374.688 107.306C374.028 111.321 370.705 115.837 366.531 116.23C367.857 114.994 368.643 113.509 369.354 111.924C369.994 110.414 370.508 108.816 370.679 107.408C370.8 104.173 369.607 101.427 368.593 98.3125" fill="url(#colorOne)"/>
<path d="M359.69 211.662L333.514 256.168C333.285 256.561 333.247 256.884 333.444 257.182C333.989 257.925 335.093 258.121 336.006 258.368L337.567 258.781L343.801 260.443C347.207 261.343 357.717 264.147 360.971 264.952C361.497 265.104 362.005 265.18 362.563 265.396C363.654 265.846 364.326 267.102 364.155 268.25L363.895 271.466C363.552 275.754 363.203 280.041 362.899 284.335C362.88 284.57 362.677 284.754 362.436 284.735C362.195 284.716 362.011 284.5 362.036 284.259C362.506 279.978 362.924 275.696 363.349 271.415L363.673 268.206C363.844 267.21 363.305 266.183 362.392 265.777C361.599 265.491 360.172 265.193 359.315 264.958C352.878 263.328 342.222 260.772 335.81 259.206C334.433 258.895 332.366 258.451 332.359 256.643C332.378 256.269 332.512 255.939 332.664 255.667L357.863 210.596C358.561 209.423 360.375 210.38 359.69 211.643" fill="black"/>
<path d="M332.817 257.334C327.921 257.1 322.98 258.318 318.838 260.962C318.23 261.324 317.646 261.743 317.062 262.161C320.443 258.318 325.612 256.174 330.718 256.256C331.454 256.282 332.183 256.332 332.906 256.446C333.147 256.485 333.312 256.713 333.274 256.96C333.236 257.182 333.039 257.341 332.817 257.334Z" fill="black"/>
<path d="M380.259 277.249C379.898 275.162 379.777 273.037 379.936 270.931C379.955 270.754 380.107 270.627 380.284 270.64C380.443 270.652 380.564 270.779 380.576 270.931C380.735 273.043 380.621 275.168 380.259 277.249Z" fill="black"/>
</g>
<defs>
<clipPath id="clip0_5988_7428">
<rect width="640" height="360" fill="white"/>
</clipPath>
</defs>
<script type="text/ecmascript" xlink:href="https://dev.w3.org/SVG/modules/ref/master/ref2.js"></script></svg>
