<svg width="640" height="360" viewBox="0 0 640 360" fill="none" 
xmlns="http://www.w3.org/2000/svg" 
xmlns:xlink="http://www.w3.org/1999/xlink">
<defs>
<ref id="colorOne" param="c1" default="#242C4F" />
<ref id="colorTwo" param="c2" default="#9296A7"/>
</defs>
<path d="M352.602 86.2004C350.402 67.5004 340.202 51.4004 323.402 51.4004C306.602 51.4004 295.402 67.3004 295.402 86.2004C295.402 86.6004 295.402 87.1004 295.402 87.5004C293.102 88.3004 291.102 90.2004 291.102 94.4004C291.102 100.5 294.802 102.1 297.702 102.4C297.902 103 298.102 103.6 298.402 104.2L300.402 140.9L335.202 139.7L332.302 119.9C345.502 116.2 354.702 103.8 352.602 86.2004Z" fill="white"/>
<path d="M333.398 85.6016C334.398 88.8016 335.698 91.9016 337.398 94.7016C339.198 97.4016 340.698 100.302 335.998 100.402C335.098 100.402 334.298 100.302 333.498 100.102C334.298 100.102 335.198 100.102 335.998 99.9016C339.998 99.4016 337.898 97.4016 336.598 95.2016C334.798 92.3016 333.598 89.0016 333.398 85.6016Z" fill="url(#colorTwo)"/>
<path d="M308.398 46.3007C318.798 42.1007 331.098 45.4007 339.298 52.7007C350.498 62.6007 357.998 82.8007 355.098 97.5007C353.098 108.901 343.998 117.201 333.398 120.801C328.198 122.601 322.398 123.001 317.098 121.601V121.401C319.798 121.801 322.498 121.801 325.098 121.501C337.998 119.501 350.498 110.201 353.298 97.1007C355.398 86.7007 353.498 75.3007 348.498 66.0007C343.198 56.8007 334.398 49.4007 324.198 46.6007C319.098 45.2007 313.598 45.1007 308.398 46.5007V46.3007Z" fill="black"/>
<path d="M347.799 80.7008C347.599 81.0008 345.899 79.9008 343.599 80.0008C341.299 80.1008 339.699 81.4008 339.399 81.1008C339.299 81.0008 339.499 80.5008 340.199 79.9008C340.899 79.3008 342.099 78.7008 343.499 78.6008C344.899 78.5008 346.199 79.0008 346.899 79.5008C347.599 80.1008 347.899 80.6008 347.799 80.7008Z" fill="black"/>
<path d="M325.198 81.2008C324.998 81.5008 323.298 80.4008 320.998 80.5008C318.698 80.6008 317.098 81.9008 316.798 81.6008C316.698 81.5008 316.898 81.0008 317.598 80.4008C318.298 79.8008 319.498 79.2008 320.898 79.1008C322.298 79.0008 323.598 79.5008 324.298 80.0008C324.998 80.6008 325.298 81.1008 325.198 81.2008Z" fill="black"/>
<path d="M357.503 83.7008C357.003 82.2008 356.403 79.4008 357.103 78.1008C359.203 74.1008 359.603 69.3008 358.303 64.9008C357.003 60.6008 353.903 56.8008 349.903 54.7008C347.703 53.5008 345.303 52.8008 343.603 51.0008C341.703 48.9008 341.303 45.9008 339.903 43.4008C337.103 38.1008 330.403 35.9008 324.503 36.7008C318.603 37.4008 314.103 38.2008 309.603 42.6008C306.603 45.5008 303.203 52.8008 303.203 52.8008C303.203 52.8008 296.603 51.7008 290.003 55.5008C285.803 57.9008 282.503 61.7008 280.503 66.0008C279.203 68.7008 278.403 71.8008 279.303 74.7008C280.203 77.7008 282.903 80.0008 283.303 83.0008C283.703 86.1008 281.603 88.9008 279.703 91.4008C277.803 93.9008 276.003 97.0008 276.903 100.001C277.703 102.601 280.303 104.201 281.303 106.601C282.303 109.101 281.603 112.001 282.303 114.701C282.903 117.201 284.803 119.301 287.303 120.201C289.703 121.101 292.603 120.601 294.603 119.001C294.603 119.001 296.903 119.201 300.603 119.401L299.803 104.401C299.603 103.801 299.403 103.201 299.103 102.601C296.203 102.301 292.503 100.701 292.503 94.6008C292.503 90.4008 294.503 88.5008 296.803 87.7008C296.803 87.3008 296.803 86.8008 296.803 86.4008C296.803 67.5008 307.903 51.6008 324.803 51.6008C341.603 51.6008 351.803 67.7008 354.003 86.4008C355.403 98.4008 351.603 108.101 344.803 114.101C354.403 110.201 361.503 103.601 361.503 92.6008C361.203 86.2008 358.703 87.4008 357.503 83.7008Z" fill="white"/>
<path d="M289.6 121.301C288.6 121.301 287.7 121.101 286.7 120.801C283.9 119.801 281.8 117.501 281.1 114.601C280.8 113.301 280.8 112.101 280.7 110.801C280.7 109.301 280.7 107.901 280.1 106.701C279.7 105.701 278.9 104.801 278.1 103.901C277.1 102.701 276.1 101.501 275.6 100.001C274.5 96.5009 276.6 93.1009 278.6 90.6009C280.5 88.1009 282.3 85.601 282 82.901C281.8 81.401 281 80.0009 280.1 78.6009C279.3 77.4009 278.5 76.2009 278.1 74.7009C277.3 72.0009 277.7 69.001 279.4 65.301C281.6 60.701 285.1 56.8009 289.3 54.3009C294.9 51.1009 300.4 51.2009 302.4 51.4009C303.3 49.5009 306.1 44.0009 308.7 41.6009C313.5 37.1009 318.1 36.2009 324.2 35.5009C330.1 34.8009 337.4 36.7009 340.7 42.8009C341.2 43.8009 341.6 44.901 342 45.901C342.6 47.501 343.2 49.1009 344.2 50.2009C345.3 51.4009 346.7 52.1009 348.3 52.8009C348.9 53.1009 349.6 53.4009 350.2 53.7009C354.4 56.0009 357.7 59.9009 359.1 64.5009C360.5 69.1009 360.1 74.201 357.8 78.401C357.4 79.301 357.7 81.5009 358.3 83.2009C358.7 84.4009 359.2 85.0009 359.8 85.6009C360.9 86.8009 362 88.0009 362 92.2009C362 102.301 356.2 109.901 344.7 114.601L339.3 116.801L343.7 112.901C350.7 106.601 353.9 97.1009 352.6 86.1009C349.7 61.1009 335.6 52.2009 324.4 52.2009C309 52.2009 297.4 66.701 297.4 86.0009C297.4 86.4009 297.4 86.8009 297.4 87.2009V87.901L296.7 88.2009C294.2 89.1009 293 91.0009 293 94.1009C293 98.4009 294.9 100.701 298.7 101.101L299.4 101.201L299.6 101.801C299.8 102.401 300 103.001 300.2 103.601L300.3 103.901L301.2 120.001L300.1 119.901C297.2 119.801 295.2 119.601 294.4 119.501C293.1 120.801 291.4 121.301 289.6 121.301ZM300.7 53.5009C298.3 53.5009 294.4 53.9009 290.4 56.2009C286.5 58.4009 283.3 62.001 281.3 66.301C279.8 69.501 279.4 72.1009 280.1 74.2009C280.5 75.4009 281.1 76.4009 281.9 77.6009C282.9 79.2009 283.9 80.8009 284.1 82.7009C284.5 86.2009 282.3 89.101 280.3 91.801C278.6 94.001 276.8 96.9009 277.6 99.5009C278 100.701 278.8 101.701 279.7 102.701C280.6 103.701 281.4 104.701 282 106.001C282.7 107.601 282.7 109.301 282.7 110.901C282.7 112.101 282.7 113.201 283 114.201C283.5 116.401 285.2 118.201 287.3 119.001C289.4 119.701 291.9 119.301 293.6 118.001L293.9 117.801H294.3C294.3 117.801 296.2 118.001 299.1 118.201L298.3 104.501C298.2 104.101 298 103.701 297.9 103.401C295.4 103.001 291 101.301 291.1 94.5009C291.1 90.0009 293.3 87.901 295.4 86.901C295.4 86.701 295.4 86.501 295.4 86.301C295.4 65.901 307.9 50.5009 324.4 50.5009C340.2 50.5009 352 64.5009 354.6 86.2009C355.7 95.8009 353.7 104.301 348.8 110.801C356.3 106.401 360.1 100.301 360.1 92.6009C360.1 89.2009 359.4 88.401 358.4 87.401C357.7 86.701 357 85.9009 356.4 84.2009C356.2 83.5009 355 79.801 356 77.801C358 74.001 358.4 69.5009 357.1 65.4009C355.8 61.3009 353 57.8009 349.2 55.8009C348.6 55.5009 348 55.2009 347.4 54.9009C345.7 54.1009 344 53.3009 342.7 51.8009C341.4 50.4009 340.7 48.6009 340.1 46.8009C339.7 45.8009 339.4 44.801 338.9 43.901C336.2 38.801 329.5 37.1009 324.5 37.7009C318.6 38.4009 314.5 39.2009 310.2 43.3009C307.4 46.0009 304 53.1009 304 53.2009L303.7 53.9009L302.9 53.8009C302.9 53.6009 302.1 53.5009 300.7 53.5009Z" fill="black"/>
<path d="M299.001 106.701C300.901 115.601 301.501 124.701 300.801 133.801C298.901 125.001 298.301 115.801 299.001 106.701Z" fill="black"/>
<path d="M333.202 119.802C333.202 119.802 321.202 122.902 309.602 117.102C309.602 117.102 315.702 128.002 332.902 125.902L333.202 119.802Z" fill="black"/>
<path d="M334.205 140.402C333.105 133.902 332.505 127.202 332.605 120.602V120.402H332.805C333.405 120.302 334.005 120.202 334.605 120.102C334.105 120.402 333.405 120.702 332.905 120.902L333.105 120.602C333.705 123.902 334.305 127.102 334.805 130.402C335.305 133.702 335.705 137.002 336.005 140.302C336.105 141.302 334.405 141.502 334.205 140.402Z" fill="black"/>
<path d="M324.8 97.6006C322.5 97.5006 320.3 98.2006 318.1 97.2006C315.5 96.2006 313.8 93.4006 314 90.7006C314.1 89.9006 314.1 89.1006 314.2 88.2006C314.7 84.7006 317.7 81.9006 321.3 81.6006C323.4 81.5006 326.2 80.9006 328.1 82.0006C331 83.2006 332.7 86.4006 332.4 89.5006C332.7 94.0006 329.2 97.7006 324.8 97.6006ZM324.8 96.9006C328.7 96.9006 330.8 93.1006 330.4 89.6006C330.7 86.1006 328.2 83.0006 324.5 83.0006L321.2 82.8006C318 82.4006 315.1 85.2006 315.2 88.4006C315.2 89.1006 315.3 90.1006 315.4 90.8006C315.6 93.0006 316.8 94.9006 318.7 96.1006C320.4 97.1006 322.8 96.8006 324.8 96.9006Z" fill="url(#colorOne)"/>
<path d="M349.399 97.4002C348.199 97.4002 345.599 97.6002 344.399 97.4002C340.699 96.9002 337.999 93.1002 338.599 89.4002C338.399 85.3002 341.599 81.3002 345.799 81.1002C347.099 81.1002 349.599 80.7002 350.899 81.0002C354.699 81.6002 357.299 85.3002 356.899 89.1002C357.299 93.3002 353.699 97.3002 349.399 97.4002ZM349.399 96.1002C353.599 96.0002 355.399 92.9002 354.999 89.0002C355.299 85.5002 352.799 82.4002 349.099 82.4002L345.799 82.2002C341.599 82.0002 339.299 85.3002 339.999 89.3002C339.899 92.8002 342.599 96.0002 346.199 95.9002C346.099 96.0002 349.399 96.1002 349.399 96.1002Z" fill="url(#colorOne)"/>
<path d="M331.403 86.9996L330.203 85.4996C331.303 84.5996 332.603 83.9996 334.003 83.7996C336.603 83.2996 338.803 84.2996 339.803 84.8996L338.803 86.4996C338.003 85.9996 336.403 85.2996 334.303 85.5996C333.003 85.8996 332.003 86.4996 331.403 86.9996Z" fill="url(#colorOne)"/>
<path d="M314.655 85.2933L299.367 85.9023L299.443 87.8008L314.731 87.1918L314.655 85.2933Z" fill="url(#colorOne)"/>
<path d="M295.9 104.902C297.502 104.902 298.8 103.603 298.8 102.002C298.8 100.4 297.502 99.1016 295.9 99.1016C294.298 99.1016 293 100.4 293 102.002C293 103.603 294.298 104.902 295.9 104.902Z" fill="url(#colorTwo)"/>
<path d="M298.403 98.2006C298.403 98.2006 298.203 98.3006 298.003 98.4006C297.703 98.5006 297.303 98.6006 296.803 98.4006C295.803 98.0006 295.003 96.5006 294.903 94.8006C294.903 93.9006 295.103 93.1006 295.403 92.5006C295.703 91.8006 296.103 91.3006 296.603 91.3006C297.103 91.2006 297.403 91.5006 297.603 91.7006C297.703 92.0006 297.703 92.1006 297.703 92.2006C297.703 92.2006 297.903 92.0006 297.803 91.7006C297.803 91.5006 297.703 91.3006 297.403 91.1006C297.203 90.9006 296.803 90.8006 296.503 90.9006C295.803 90.9006 295.103 91.6006 294.803 92.3006C294.403 93.0006 294.203 93.9006 294.203 94.9006C294.303 96.8006 295.203 98.5006 296.603 98.9006C297.303 99.1006 297.803 98.9006 298.103 98.7006C298.403 98.4006 298.403 98.2006 298.403 98.2006Z" fill="black"/>
<path d="M297.602 132.7C303.202 138 310.602 140.9 318.302 140.5C323.902 140.4 329.702 139.1 334.202 135.6C335.702 134.4 337.002 133 338.302 131.5C337.402 133.2 336.202 134.8 334.802 136.2C330.102 140.8 323.302 142.4 316.902 142.3C309.302 142.4 302.002 138.9 297.602 132.7Z" fill="black"/>
<path d="M381.403 300.601C379.503 279.101 374.203 256.801 374.203 256.801L318.703 277.901L320.903 300.701C341.103 301.201 361.403 301.501 381.403 300.601Z" fill="black"/>
<path d="M268.902 258.9C268.902 258.9 263.002 279.3 262.602 300.7C283.102 300.7 305.102 300.3 325.802 300.8C324.402 285.9 323.402 275.7 323.402 275.7C323.402 275.7 270.402 259.4 268.902 258.9Z" fill="black"/>
<path d="M300.302 107.3C300.202 106.9 300.202 106.5 300.102 106Z" fill="black"/>
<path d="M323.398 136.8C323.598 131 324.398 125.3 325.698 119.6C326.098 125.4 325.998 131.2 325.498 136.9C325.198 138.2 323.398 138 323.398 136.8Z" fill="black"/>
<path d="M378.8 182.5C376.5 170.1 373.2 161.9 371 157.3C367 145.5 362 133.9 357.2 131.2C350.3 128.2 340.1 129.6 340.1 129.6C335.3 144.6 307.6 143.8 299.3 123.8C298.2 123.5 272.6 131.1 267 135.7C254.3 146 257.5 196 257.5 196C258.5 204.3 259.8 215.2 261.1 220.1C262.9 226.7 270.3 240.1 270.3 240.1C269 242.1 265 271.6 265 278.2C265 278.2 292.7 284.8 328.3 282.2C363.9 279.6 371.2 262.4 371.2 262.4C374.1 259.4 368.6 252.5 366.6 242.6C366.6 242.6 369.2 238.6 371.2 236.7C371.8 236.1 376.8 234.4 377.4 233.9C387.7 226.6 382.6 203 378.8 182.5Z" fill="url(#colorTwo)"/>
<path d="M306.7 133.9C303.6 131.4 301 128 299.3 123.8C298.2 123.5 272.6 131.1 267 135.7C254.3 146 257.5 196 257.5 196C258.5 204.3 259.8 215.2 261.1 220.1C262.9 226.7 270.3 240.1 270.3 240.1C269 242.1 265 271.6 265 278.2C265 278.2 286.6 293.9 315.8 293.4C315.8 293.4 317.8 225.5 317.8 203.7C317.8 203 329 179.3 331 172.7C331.3 171.6 319.7 166.4 314.5 163.5C313 162.7 313.1 165.9 312.9 164.6C309.9 148.2 306.7 133.9 306.7 133.9Z" fill="url(#colorOne)"/>
<path d="M314.4 293.9C286.1 293.9 264.9 278.8 264.6 278.6L264.4 278.4V278.1C264.4 271.8 268.1 243.9 269.7 240C268.7 238.1 262.3 226.3 260.6 220.1C259.4 215.7 258.2 206.5 257.3 198.4L257 195.9C256.9 193.8 253.9 145.5 266.7 135.1C272.4 130.5 298.1 122.8 299.5 123.1L299.8 123.2L299.9 123.5C301.5 127.4 304 130.7 307.2 133.4L307.3 133.5V133.7C307.3 133.8 310.3 147.4 313.2 163.1C313.3 163 313.5 162.8 313.7 162.8C313.9 162.7 314.3 162.6 314.8 162.9C316.5 163.9 318.9 165.1 321.4 166.3C330.2 170.7 331.8 171.8 331.5 172.7C330.2 177 325 188.5 321.6 196.2C320 199.8 318.4 203.3 318.3 203.7C318.3 225.2 316.3 292.7 316.3 293.4V293.9H315.8C315.3 293.9 314.8 293.9 314.4 293.9ZM265.5 277.9C267.8 279.5 288.4 293.1 315.3 292.8C315.5 286.5 317.3 224.2 317.3 203.6C317.3 203.3 317.7 202.3 320.7 195.8C324.1 188.3 329.2 176.9 330.5 172.6C329.8 171.7 324.7 169.2 320.9 167.3C318.4 166 316 164.8 314.3 163.9C314.2 163.8 314.1 163.8 314.1 163.8C313.9 163.9 313.7 164.5 313.7 164.7C313.6 165 313.5 165.4 313 165.4C312.5 165.4 312.4 164.9 312.4 164.6C309.7 149.4 306.7 135.9 306.3 134.2C303.1 131.5 300.7 128.2 299 124.4C296 124.8 272.6 131.9 267.4 136.2C255 146.3 258.1 195.6 258.1 196.1L258.4 198.6C259.3 206.2 260.5 215.8 261.7 220.1C263.5 226.6 270.8 239.9 270.9 240L271.1 240.3L270.9 240.6C269.5 242.3 265.6 270.5 265.5 277.9Z" fill="black"/>
<path d="M378.803 182.5C376.503 170.1 373.203 161.9 371.003 157.3C367.003 145.5 362.003 133.9 357.203 131.2C350.303 128.2 340.103 129.6 340.103 129.6C338.903 133.2 336.403 135.9 333.203 137.7L339.203 170L333.603 172.7L346.103 206.7L360.703 287.5C372.503 280.9 380.503 275.6 380.503 275.6C383.403 272.6 373.903 253.2 371.903 243.3C371.903 243.3 368.403 236.7 371.203 236.7C373.203 236.7 376.803 234.4 377.403 233.9C387.703 226.6 382.603 203 378.803 182.5Z" fill="url(#colorOne)"/>
<path d="M360.202 288.3L345.502 206.7L332.902 172.3L338.602 169.5L332.602 137.3L332.902 137.1C336.202 135.3 338.502 132.7 339.602 129.3L339.702 129H340.002C340.402 128.9 350.402 127.7 357.402 130.6C361.602 133 366.302 141.8 371.502 157C373.802 161.7 377.002 169.9 379.302 182.3L379.902 185.3C383.602 204.9 387.802 227.1 377.702 234.2C374.902 236.8 372.202 237.4 370.402 237.4C370.202 238.8 372.802 246.3 375.002 252.4C379.602 265.4 382.502 274.1 380.802 275.8L380.702 275.9C380.602 276 372.502 281.2 360.902 287.8L360.202 288.3ZM334.202 172.9L346.502 206.4L361.002 286.6C371.802 280.5 379.302 275.6 380.102 275.1C381.402 273.5 376.902 261.1 374.002 252.8C370.202 242.2 368.802 237.8 369.602 236.7C369.802 236.5 370.002 236.4 370.302 236.4C372.002 236.4 374.502 235.9 377.102 233.5L377.202 233.4C386.702 226.7 382.602 204.8 379.002 185.5L378.402 182.5C376.102 170.3 372.902 162.1 370.602 157.4C365.502 142.6 360.902 133.7 357.002 131.6C351.002 129.1 342.302 129.8 340.602 130C339.402 133.3 337.102 136 333.902 137.8L339.902 170.1L334.202 172.9Z" fill="black"/>
<path d="M333.602 172.6C339.602 189.9 350.002 222 363.502 233.8C367.902 237.6 373.002 237.7 377.202 233.4C386.602 226.2 382.002 206.1 380.502 195.9C379.302 189.4 378.202 182.8 376.702 176.3C375.102 169.9 373.102 163.5 370.202 157.6C368.602 152.9 366.902 148.2 364.802 143.7C362.902 139.6 360.502 134.4 357.002 132C351.802 129.9 345.902 129.9 340.402 130.4L341.102 129.8C339.702 134.2 336.002 137.6 331.802 139.1C319.102 143.8 304.002 136.3 299.302 123.8L299.402 123.9C299.102 123.9 298.602 124 298.202 124.1L297.002 124.4C294.602 125 291.902 125.7 289.602 126.4C291.202 125.9 292.802 125.3 294.502 124.8C295.602 124.4 297.002 124.1 298.202 123.8C298.602 123.7 299.102 123.6 299.602 123.6C301.302 127.6 304.002 131.1 307.402 133.7C316.602 141.3 335.502 142.3 339.702 128.8C345.802 128.1 352.102 128.1 357.802 130.4C362.202 133.3 364.302 138.4 366.602 143C368.602 147.4 370.702 152.8 372.002 156.9C376.402 166 378.702 175.9 380.502 185.8C382.402 198.1 389.502 226 377.802 234.3C373.402 238.6 367.902 238.8 363.102 234.5C349.402 222.4 339.402 190.2 333.602 172.6Z" fill="black"/>
<path d="M363.098 171.3C363.398 174.1 363.598 176.9 363.598 179.3C363.598 181.8 363.598 184 363.398 185.9C363.398 186.3 363.298 186.7 363.298 187.1C363.398 187.2 363.498 187.3 363.498 187.3C363.598 186.8 363.598 186.4 363.598 185.8C363.798 183.9 363.898 181.7 363.798 179.2C363.798 176.7 363.598 174 363.298 171.1C362.898 168.3 362.398 165.6 361.898 163.1C361.298 160.7 360.698 158.5 360.098 156.8C359.798 155.9 359.498 155.1 359.298 154.4C358.998 153.7 358.798 153.1 358.598 152.6C358.398 152.2 358.198 151.8 358.098 151.5C357.998 151.2 357.898 151.1 357.898 151.1C357.898 151.1 357.898 151.2 357.998 151.5C358.098 151.8 358.198 152.2 358.398 152.6C358.598 153.1 358.798 153.7 358.998 154.4C359.198 155.1 359.498 155.9 359.798 156.8C360.398 158.6 360.998 160.7 361.498 163.1C362.298 165.8 362.798 168.5 363.098 171.3Z" fill="black"/>
<path d="M350.497 240.7C350.097 240.8 349.697 240.9 349.097 241C348.497 241.2 347.697 241.3 346.897 241.5C345.997 241.7 344.997 241.9 343.897 242.2C341.697 242.7 339.097 243.1 336.097 243.6C333.197 244 329.897 244.4 326.497 244.6C323.097 244.8 319.797 244.9 316.897 244.8C316.897 244.8 316.897 244.8 316.797 244.8C316.797 244.9 316.797 245 316.797 245.2C319.797 245.3 322.997 245.2 326.497 245C329.897 244.8 333.197 244.4 336.097 244C338.997 243.5 341.697 243 343.897 242.5C344.997 242.3 345.997 242 346.797 241.8C347.697 241.6 348.397 241.4 348.997 241.2C349.697 241 350.197 240.9 350.497 240.7C350.797 240.7 350.997 240.6 350.997 240.6C350.997 240.6 350.897 240.6 350.497 240.7Z" fill="black"/>
<path d="M335.395 212.999C334.895 213.499 334.095 214.199 333.095 215.099C331.095 216.799 328.295 219.099 324.895 221.299C322.095 223.099 319.395 224.599 317.195 225.699C317.195 225.799 317.195 225.899 317.195 225.999C319.495 224.899 322.295 223.499 325.195 221.599C328.595 219.399 331.395 217.099 333.295 215.299C334.295 214.399 334.995 213.699 335.495 213.099C335.995 212.599 336.295 212.299 336.295 212.199C336.195 212.199 335.895 212.499 335.395 212.999Z" fill="black"/>
<path d="M305.5 137.901C305.5 137.901 324.8 114.701 326.8 113.301C330.6 110.601 338.3 110.101 340.7 112.101C342.2 113.301 358.3 127.701 358.3 127.701L353.5 137.801L335.4 151.701L305.5 137.901Z" fill="white"/>
<path d="M335.397 152.1L304.797 138L305.097 137.6C305.897 136.7 324.497 114.4 326.497 113C330.397 110.2 338.197 109.6 340.897 111.8C342.297 113 357.897 126.8 358.497 127.4L358.697 127.6L353.597 138.1L335.397 152.1ZM306.097 137.7L335.297 151.1L353.197 137.4L357.897 127.7C355.897 126 341.897 113.4 340.497 112.3C338.297 110.5 330.797 110.8 326.997 113.5C325.497 114.7 312.897 129.6 306.097 137.7Z" fill="black"/>
<path d="M283.898 206.5C282.198 208.8 280.798 210.6 279.898 211.9C279.398 212.5 279.098 213 278.798 213.4C278.498 213.7 278.398 213.9 278.398 213.9C278.398 213.9 278.498 213.7 278.698 213.4C278.998 213 279.298 212.5 279.798 211.9C280.698 210.6 282.098 208.7 283.698 206.4C286.998 201.8 291.498 195.4 296.498 188.2C301.398 181.1 305.898 174.6 309.198 169.9C310.798 167.6 312.098 165.7 313.098 164.4C313.498 163.8 313.898 163.3 314.198 162.9C314.398 162.6 314.598 162.4 314.598 162.4C314.598 162.4 314.498 162.6 314.298 162.9C314.098 163.3 313.698 163.8 313.298 164.4C312.398 165.8 311.098 167.7 309.498 170C306.298 174.7 301.898 181.2 296.898 188.3" fill="black"/>
<path d="M377.395 208.7C377.395 208.7 377.295 208.5 377.095 208.2C376.895 207.9 376.595 207.4 376.195 206.8C375.395 205.6 374.295 203.9 372.895 201.8C370.095 197.6 366.295 191.8 362.095 185.4C357.895 179 354.095 173.1 351.395 168.9C350.095 166.8 348.995 165 348.295 163.8C347.995 163.2 347.695 162.8 347.495 162.4C347.695 162.7 347.995 163.2 348.395 163.8C349.195 165 350.295 166.7 351.595 168.8C354.295 173 358.095 178.8 362.395 185.3C366.595 191.7 370.395 197.5 373.095 201.8C374.395 203.9 375.495 205.7 376.295 206.9C376.595 207.5 376.895 207.9 377.095 208.3C377.295 208.6 377.395 208.7 377.395 208.7Z" fill="black"/>
<path d="M288.513 163.045L286.539 201.295L287.638 201.352L289.612 163.101L288.513 163.045Z" fill="black"/>
<path d="M341.406 119.3C342.306 119.2 343.306 119.7 343.806 120.5C346.106 124.1 354.606 137.5 355.206 140.4C355.906 143.7 353.306 144.7 353.306 144.7C353.306 144.7 354.206 149.4 350.506 151.5C350.506 151.5 351.306 155 347.706 156.9L346.206 166.2L333.606 172.5L332.406 166.6L334.506 160.8L337.506 149.3L336.606 132.5C336.606 132.5 336.406 128.7 339.106 129.5C339.106 129.5 337.006 126.6 338.306 124.5C339.106 123.2 340.706 123.7 340.706 123.7C340.706 123.7 339.306 121.6 340.206 120.1C340.506 119.6 341.006 119.4 341.406 119.3Z" fill="white"/>
<path d="M341.4 119.299C342.8 119.099 343.8 120.299 344.4 121.399L346.5 124.599C347.9 126.699 349.3 128.899 350.7 131.099C352.1 133.299 353.4 135.499 354.6 137.799C356.1 140.099 356.5 143.799 353.4 145.099L353.7 144.599C353.9 145.999 353.8 147.399 353.3 148.699C352.8 149.999 351.9 151.199 350.7 151.799L350.9 151.499C351.3 153.799 350 156.099 347.9 157.099L348 156.999C347.5 159.699 346.9 163.599 346.4 166.299V166.399H346.3C341.9 168.599 337.6 170.899 333.3 173.199L333.2 172.699L332 166.899V166.799V166.699L334.1 160.899C335 157.299 336 153.199 337 149.399C336.8 147.299 336.6 141.799 336.5 138.999L336.3 133.699C336.1 131.799 336.8 129.099 339.3 129.999L339 130.399C338.6 129.799 338.3 129.099 338.1 128.399C337.3 126.299 338 123.199 340.8 123.899L340.7 124.099C339.7 122.499 339.2 119.599 341.4 119.299ZM341.5 119.399C339.3 119.799 340 122.699 341 123.999L340.7 123.899C339.2 123.499 338.1 124.699 338.1 126.099C338.1 127.699 338.9 129.199 339.8 130.499L339.1 130.299C337.1 129.699 336.9 131.999 337.1 133.499L337.5 138.799C337.7 141.899 338 146.399 338.1 149.499C337.1 153.399 336.1 157.199 335.1 161.099L332.9 166.799V166.599L334 172.499L333.5 172.199C337.6 170.299 342.6 167.699 346.1 166.199C346.6 163.499 347.2 159.599 347.6 156.899V156.799L347.7 156.699C349.5 155.699 350.7 153.599 350.3 151.599V151.399L350.5 151.299C352.8 149.899 353.4 146.899 352.9 144.499C354.1 144.099 354.9 142.999 354.9 141.699C354.9 140.499 354.4 139.399 353.9 138.299C351.6 133.699 349 129.299 346.4 124.899C345.7 123.799 345.1 122.699 344.4 121.599C343.7 120.299 342.8 119.199 341.5 119.399Z" fill="black"/>
<path d="M350.302 140.5C350.302 140.5 350.102 140.3 349.902 139.9C349.602 139.5 349.302 138.9 348.802 138.1C347.902 136.6 346.602 134.4 345.302 132.1C344.002 129.7 342.702 127.6 341.902 126C341.502 125.2 341.102 124.6 340.902 124.1C340.702 123.7 340.602 123.4 340.602 123.4C340.602 123.4 340.802 123.6 341.102 124C341.402 124.4 341.702 125 342.202 125.8C343.102 127.3 344.402 129.5 345.702 131.8C347.002 134.2 348.202 136.3 349.102 137.9C349.502 138.7 349.902 139.3 350.102 139.8C350.202 140.2 350.302 140.5 350.302 140.5Z" fill="black"/>
<path d="M346.603 144.501C346.503 144.501 344.603 140.901 342.303 136.501C340.003 132.001 338.303 128.301 338.403 128.301C338.503 128.301 340.403 131.901 342.703 136.301C344.903 140.801 346.703 144.501 346.603 144.501Z" fill="black"/>
<path d="M342.002 147.7C341.902 147.7 340.602 144.9 339.202 141.4C337.702 137.9 336.602 134.9 336.702 134.9C336.802 134.9 338.102 137.7 339.502 141.2C341.002 144.8 342.102 147.7 342.002 147.7Z" fill="black"/>
<path d="M325.105 120.301C325.105 120.301 314.105 138.501 313.205 142.201C312.405 145.901 314.505 163.401 314.505 163.401L329.705 171.601C329.705 171.601 335.005 163.701 335.705 157.101C336.405 150.401 336.505 147.201 336.505 147.201C336.505 147.201 339.305 134.001 338.005 132.501C336.705 131.001 335.805 131.301 335.805 131.301C335.805 131.301 339.205 124.801 338.305 122.901C337.405 121.101 335.605 121.001 335.605 121.001C335.605 121.001 336.005 118.601 334.205 117.801C332.205 116.901 330.505 119.601 330.505 119.601C330.505 119.601 327.805 115.701 325.105 120.301Z" fill="white"/>
<path d="M325.103 120.3C321.203 126.9 317.403 133.7 314.203 140.6C312.803 144.1 313.703 148.1 313.803 151.8C314.003 155.6 314.403 159.5 314.803 163.3L314.703 163.1C319.703 165.8 324.903 168.7 329.903 171.3L329.603 171.4C330.703 169.6 331.803 167.7 332.703 165.8C334.003 162.9 335.103 159.9 335.403 156.7C335.603 154.7 336.003 149.2 336.203 147C337.003 142.8 337.903 138.4 338.003 134.1C337.903 133.5 338.103 132.9 337.503 132.5C337.203 132.1 336.603 131.7 336.203 131.7L335.503 131C336.603 128.8 337.803 126.5 338.203 124C338.503 122.6 337.103 121.4 335.803 121.2H335.503L335.603 120.9C336.103 117.2 332.603 116.9 330.903 119.7C328.903 117.4 326.603 117.7 325.103 120.3ZM325.003 120.2C325.903 118.6 327.603 117.2 329.403 118.3C329.903 118.6 330.403 119 330.803 119.5H330.603C332.503 116.2 336.503 116.9 336.103 121L335.803 120.6C337.203 120.7 338.603 121.8 339.003 123.2C339.103 126.1 337.603 128.9 336.403 131.5L335.703 130.8C336.103 130.7 336.303 130.7 336.603 130.8C337.603 131.1 338.703 131.9 338.903 133C339.303 137.7 338.003 142.9 337.103 147.2C336.903 149.3 336.403 154.8 336.203 156.8C335.803 160.1 334.603 163.2 333.203 166.1C332.203 168.1 331.103 170 329.803 171.9C326.003 169.8 322.103 167.7 318.203 165.6L314.403 163.6L314.303 163.5C313.803 159.6 313.303 155.8 312.903 151.9C312.803 148.1 311.703 143.9 313.403 140.3C316.303 134.2 321.603 126.1 325.003 120.2Z" fill="black"/>
<path d="M330.805 119.6C330.905 119.6 328.805 124 326.105 129.2C323.405 134.5 321.205 138.7 321.105 138.6C321.005 138.6 323.105 134.2 325.805 129C328.405 123.8 330.705 119.6 330.805 119.6Z" fill="black"/>
<path d="M335.805 121C335.805 121 335.705 121.3 335.405 121.8C335.105 122.4 334.705 123.1 334.305 124C333.305 125.9 332.105 128.5 330.705 131.3C329.305 134.1 328.005 136.7 327.005 138.5C326.505 139.4 326.105 140.2 325.805 140.7C325.505 141.2 325.305 141.5 325.305 141.5C325.305 141.5 325.405 141.2 325.605 140.7C325.905 140.1 326.205 139.4 326.705 138.5C327.705 136.6 328.905 134 330.305 131.2C331.705 128.4 333.005 125.8 334.005 124C334.505 123.1 334.905 122.4 335.205 121.8C335.605 121.3 335.805 121 335.805 121Z" fill="black"/>
<path d="M331.205 143C331.405 142.4 331.805 141.5 332.205 140.4C333.005 138.3 334.205 135.4 335.705 132C335.705 131.7 336.205 131.1 336.205 130.4C335.705 130.2 332.505 138 332.005 140.4C331.705 141.5 331.305 142.4 331.205 143C331.005 143.2 330.905 143.5 330.905 143.7C330.905 143.9 330.805 143.9 330.805 143.9C330.805 143.9 330.805 143.8 330.905 143.7C331.005 143.5 331.105 143.3 331.205 143Z" fill="black"/>
<path d="M317.605 143.7C317.605 143.7 317.505 144 317.105 144.2C316.705 144.4 316.105 144.5 315.505 144.3C314.905 144.1 314.505 143.5 314.305 143.1C314.105 142.7 314.205 142.4 314.205 142.4C314.305 142.4 314.305 142.6 314.505 143C314.705 143.3 315.105 143.7 315.605 143.9C316.105 144.1 316.705 144 317.005 143.9C317.305 143.8 317.505 143.7 317.605 143.7Z" fill="black"/>
<path d="M322.506 146.9C322.506 146.9 322.306 147.2 321.906 147.3C321.506 147.5 320.806 147.6 320.106 147.3C319.406 147 319.006 146.5 318.806 146.1C318.606 145.7 318.606 145.4 318.706 145.4C318.806 145.4 318.806 145.6 319.106 146C319.306 146.3 319.706 146.8 320.306 147C320.906 147.2 321.406 147.2 321.806 147.1C322.306 146.9 322.506 146.8 322.506 146.9Z" fill="black"/>
<path d="M327.605 149C327.605 149 327.505 149.3 327.105 149.5C326.705 149.7 326.105 149.9 325.405 149.7C324.705 149.5 324.205 149.1 324.005 148.7C323.805 148.3 323.705 148 323.805 148C323.905 148 324.005 148.2 324.205 148.5C324.505 148.8 324.905 149.2 325.505 149.3C326.105 149.4 326.705 149.3 327.005 149.2C327.305 149.1 327.505 149 327.605 149Z" fill="black"/>
<path d="M330.898 172.199C326.798 183.699 322.398 195.099 317.398 206.299C312.298 217.399 307.098 228.899 298.298 237.599C293.998 241.999 288.998 247.199 282.398 247.099C275.698 246.699 270.898 241.399 267.598 236.199C261.098 225.699 258.398 213.199 258.398 200.999C259.098 211.599 261.598 222.099 266.598 231.499C270.398 238.499 277.598 247.999 286.598 244.399C287.898 243.899 289.198 243.099 290.398 242.299C295.098 238.699 299.198 233.999 302.898 229.399C308.298 222.099 312.098 213.799 316.098 205.599C321.198 194.599 326.098 183.499 330.898 172.199Z" fill="black"/>
<path d="M347.605 67.2005C343.605 57.9005 334.605 51.0005 324.605 49.6005C314.605 48.2005 304.005 52.4005 297.705 60.2005C291.305 68.0005 289.405 79.2005 292.905 88.7005C292.905 88.8005 293.005 89.0005 293.005 89.1005C293.605 88.5005 297.105 87.2005 298.205 87.5005C298.705 87.6005 299.205 87.7005 299.705 87.9005C300.805 88.2005 301.805 88.3005 302.005 87.8005C305.105 81.3005 305.705 73.7005 303.805 66.8005C306.005 69.9005 309.805 71.7005 313.605 71.6005C317.405 71.4005 321.005 69.2005 322.905 66.0005C326.005 70.0005 330.805 72.6005 335.905 72.9005C341.005 73.2005 346.105 71.1005 349.605 67.4005L347.605 67.2005Z" fill="white"/>
<path d="M290.805 83.3C291.105 85.1 291.505 87 292.205 88.7C292.205 88.8 292.305 89 292.305 89.1C292.905 88.5 296.405 87.2 297.505 87.5C298.005 87.6 298.505 87.7 299.005 87.9C300.105 88.2 301.105 88.3 301.305 87.8C304.405 81.3 305.005 73.7 303.105 66.8C305.305 69.9 309.105 71.7 312.905 71.6C316.705 71.4 320.305 69.2 322.205 66C325.305 70 330.105 72.6 335.205 72.9C340.305 73.2 345.405 71.1 348.905 67.4L346.905 67.2C346.005 65.2 344.905 63.2 343.605 61.5" fill="white"/>
<path d="M290.902 83.3C291.302 85.3 292.002 87.1 292.702 89.1L292.002 88.9C293.602 87.7 295.902 86.9 297.602 87C298.702 87.1 299.702 87.7 300.702 87.5C303.402 81.3 304.602 73.7 302.902 66.9L302.502 65.4C305.602 70.9 312.602 72.9 317.902 69.4C319.802 68.3 321.102 66.5 322.102 64.6L322.802 65.5C328.902 73.5 341.502 74.2 348.502 67L348.802 67.9L346.802 67.7H346.502L346.402 67.5C345.602 65.5 344.602 63.5 343.402 61.6L343.502 61.5C344.902 63.2 346.202 65.1 347.102 67.1L346.702 66.8L348.702 66.9H349.702L349.002 67.7C341.602 76.2 327.902 75.5 321.402 66.4L322.702 66.3C321.602 68 320.102 69.4 318.402 70.4C313.202 73.5 306.102 71.7 302.702 66.9L303.202 66.7C305.202 73.7 305.102 81.4 301.802 88C301.302 89.3 299.502 88.9 298.602 88.6C298.102 88.4 297.702 88.2 297.202 88.2C296.102 88 294.602 88.5 293.502 88.9C292.802 89.1 292.302 89.5 291.802 89.9C291.402 87.7 290.602 85.5 290.602 83.3C290.702 83.3 290.902 83.3 290.902 83.3Z" fill="black"/>
<path d="M177.703 300.301H463.103C463.603 300.301 464.103 300.701 464.103 301.301V301.901C464.103 302.401 463.703 302.901 463.103 302.901H177.703C177.203 302.901 176.703 302.501 176.703 301.901V301.301C176.703 300.801 177.103 300.301 177.703 300.301Z" fill="black"/>
<script type="text/ecmascript" xlink:href="https://www.argentina.gob.ar/profiles/argentinagobar/themes/contrib/poncho/js/w3c/ref2.js"></script></svg>
