<svg width="640" height="360" viewBox="0 0 640 360" fill="none" xmlns="http://www.w3.org/2000/svg">
<path d="M330.95 108.919C330.905 105.1 329.938 94.7766 329.938 94.7766C339.234 88.6731 360.797 70.8912 369.997 64.7207L371.806 101.237C366.253 109.321 360.701 117.404 355.155 125.488" fill="white"/>
<path d="M330.95 108.919C330.905 105.1 329.938 94.7766 329.938 94.7766C339.234 88.6731 360.797 70.8912 369.997 64.7207L371.806 101.237C366.253 109.321 360.701 117.404 355.155 125.488" stroke="black" stroke-width="1.21" stroke-miterlimit="10"/>
<path d="M335.06 96.4793C326.955 96.4793 318.723 86.0661 315.559 81.5927C314.711 80.3944 314.048 79.1216 313.572 77.7967C309.478 66.3713 308.912 53.4125 312.031 42.2402L312.046 42.1806V42.1136C312.001 37.804 313.631 33.7325 316.646 30.6584C319.66 27.5769 323.695 25.8576 328.004 25.8129L353.289 25.5449C362.087 25.5449 369.322 32.7053 369.419 41.5033L369.553 54.142L370.312 53.3902C371.049 52.6533 372.009 52.2514 373.014 52.2514C377.048 52.2588 379.244 54.7002 379.534 59.5086C379.705 62.3891 379.073 64.6221 377.636 66.148C375.723 68.18 372.872 68.4851 371.346 68.4851C370.952 68.4851 370.565 68.4628 370.215 68.4256H370.155L366.955 68.9541V69.3411C366.992 72.2216 364.432 76.4197 359.75 81.1759C351.756 89.304 340.241 96.4569 335.12 96.4867H335.068L335.06 96.4793Z" fill="white"/>
<path d="M353.285 25.084V25.9846C361.838 25.9846 368.864 32.9441 368.961 41.4964L369.087 53.0632L369.11 55.1994L370.621 53.6959C371.276 53.0483 372.124 52.6836 373.017 52.6836C376.761 52.6911 378.808 54.991 379.084 59.5165C379.247 62.2705 378.652 64.3919 377.305 65.821C375.503 67.7339 372.794 68.0167 371.343 68.0167C370.866 68.0167 370.494 67.987 370.263 67.9572L370.137 67.9423L370.01 67.9647L367.249 68.4261L366.49 68.5527V69.3268C366.527 72.0808 364.011 76.1746 359.419 80.8415C351.633 88.7537 340.044 95.9885 335.109 96.0183H335.057C327.167 96.0183 319.046 85.7392 315.928 81.3253C315.101 80.1642 314.454 78.9211 313.992 77.6334C312.072 72.2669 308.067 58.0874 312.466 42.3524L312.504 42.2258V42.0993C312.407 33.4502 319.366 26.3419 328.015 26.2526L353.122 25.9846H353.293V25.084H353.285ZM353.285 25.084C353.226 25.084 353.166 25.084 353.099 25.084L327.993 25.352C318.838 25.4487 311.491 32.9515 311.588 42.1142C308.03 54.8645 309.631 68.173 313.136 77.9461C313.635 79.3379 314.327 80.648 315.183 81.8538C318.309 86.2751 326.705 96.9338 335.049 96.9338H335.101C343.631 96.8892 367.487 78.4894 367.39 69.3268L370.152 68.8653C370.472 68.9025 370.874 68.9248 371.335 68.9248C374.566 68.9248 380.468 67.5999 379.977 59.4719C379.597 53.1972 376.069 51.7979 373.017 51.7904H373.01C371.826 51.7904 370.77 52.2891 369.988 53.0632L369.861 41.4964C369.765 32.4007 362.359 25.0914 353.285 25.0914" fill="black"/>
<path d="M371.947 63.9819C371.991 63.9447 372.148 64.1084 372.483 64.2349C372.81 64.3615 373.368 64.4285 373.934 64.1754C375.08 63.6767 375.959 61.7489 375.892 59.7392C375.862 58.7269 375.586 57.7742 375.177 57.0001C374.79 56.2037 374.224 55.6677 373.629 55.6007C373.033 55.4965 372.631 55.8836 372.52 56.2036C372.393 56.5237 372.475 56.7396 372.416 56.7619C372.386 56.7917 372.162 56.5907 372.229 56.1218C372.259 55.8985 372.378 55.6305 372.624 55.3998C372.877 55.169 373.264 55.0351 373.681 55.05C374.544 55.05 375.363 55.8017 375.81 56.6502C376.308 57.5062 376.636 58.5706 376.673 59.7094C376.74 61.9573 375.72 64.1233 374.135 64.689C373.368 64.942 372.698 64.7411 372.341 64.5029C371.976 64.2498 371.909 64.0042 371.947 63.9819Z" fill="black"/>
<path d="M311.369 44.6071C311.742 45.2175 314.845 44.5848 318.567 44.5401C322.289 44.4359 325.348 44.9346 325.772 44.3094C325.966 44.0117 325.385 43.4609 324.12 42.9696C322.862 42.4709 320.904 42.0839 318.671 42.1285C316.438 42.1732 314.443 42.6495 313.141 43.2003C311.831 43.7511 311.206 44.3243 311.369 44.6146" fill="black"/>
<path d="M337.039 52.3418C341.125 52.8777 345.576 53.0564 349.693 52.8703C345.696 54.5152 340.887 54.3068 337.039 52.3418Z" fill="black"/>
<path d="M312.273 52.3418C316.36 52.8777 320.811 53.0564 324.927 52.8703C320.93 54.5152 316.122 54.3068 312.273 52.3418Z" fill="black"/>
<path d="M337.487 44.7873C337.815 45.42 340.956 45.018 344.67 45.2413C348.392 45.4051 351.399 46.1345 351.875 45.5391C352.084 45.2562 351.548 44.6682 350.32 44.0802C349.106 43.4922 347.178 42.9637 344.953 42.8446C342.727 42.733 340.695 43.053 339.363 43.5071C338.016 43.9611 337.346 44.4821 337.487 44.7873Z" fill="black"/>
<path d="M329.135 60.2461C327.333 62.092 325.004 65.9997 328.241 67.5479C329.142 67.8978 330.214 67.9945 331.241 68.1583C330.199 68.2848 329.142 68.4114 328.048 68.1136C326.924 67.8308 326.016 66.759 325.882 65.5829C325.644 63.2681 327.326 61.3626 329.135 60.2461Z" fill="black"/>
<path d="M373.522 18.2666L373.418 18.3113C369.168 16.7779 363.95 16.8152 360.504 19.5766C359.566 13.7039 353.947 9.10395 347.732 7.6674C341.516 6.23085 331.587 7.2357 325.67 9.51334C321.635 11.069 305.446 25.9853 302.908 28.2852C302.93 28.2927 302.953 28.3076 302.975 28.315C302.908 28.3448 302.841 28.3746 302.774 28.4043C300.772 30.2205 298.703 31.9994 296.805 33.89C297.646 36.391 298.673 38.8547 299.648 41.3184C300.839 43.4472 305.312 51.7167 305.662 52.26V52.2228L310.061 61.4748C310.262 56.8227 310.738 49.4613 311.371 44.4743C319.105 44.0798 324.583 40.3954 329.704 35.014C332.406 32.1706 334.52 28.6276 338.159 26.9082C342.856 24.6902 353.292 27.5856 353.292 27.5856C353.917 27.8461 354.527 28.1289 355.123 28.4416L355.554 50.883L365.387 63.1569C366.154 64.5414 366.645 57.0237 370.664 53.5105C371.907 52.4238 374.177 52.5056 377.199 54.0092C377.557 52.3196 379.752 39.6064 381.234 32.4311C382.119 28.1587 380.824 23.6481 377.616 20.6931C376.455 19.6287 375.1 18.7802 373.522 18.2741" fill="black"/>
<path d="M280.525 202.666L279.349 211.181C278.478 217.485 282.84 285.375 282.84 285.375L304.188 281.401L306.108 216.294L307.329 205.472L280.525 202.658V202.666Z" fill="white"/>
<path d="M280.525 202.666L279.349 211.181C278.478 217.485 282.84 285.375 282.84 285.375L304.188 281.401L306.108 216.294L307.329 205.472L280.525 202.658V202.666Z" stroke="black" stroke-width="1.46" stroke-miterlimit="10"/>
<path d="M303.925 286.016C303.925 286.016 311.197 293.31 312.641 295.99C314.085 298.669 317.271 307.951 320.204 310.936C320.204 310.936 319.05 314.218 316.028 312.067C313.006 309.916 309.59 305.696 308.503 303.388C307.409 301.081 305.786 302.115 305.444 303.946C305.101 305.777 304.915 318.468 304.915 318.468C304.915 318.468 306.85 332.886 305.578 334.293C304.305 335.699 302.184 335.029 301.596 333.913C301.164 333.109 298.425 320.902 298.425 320.902L298.187 314.441C298.187 314.441 297.621 334.724 296.132 336.109C294.644 337.493 293.363 336.697 292.604 335.774C291.845 334.851 292.18 325.904 292.18 325.904L291.8 313.838L288.994 336.339C288.994 336.339 288.458 338.431 286.776 338.275C285.094 338.118 284.327 335.498 284.327 335.498L285.191 312.03C285.191 312.03 284.141 324.996 283.188 325.547C281.908 326.284 280.896 325.837 280.65 324.795C280.159 322.681 280.673 310.958 280.673 310.958L282.734 288.792L283.106 278.021L303.895 279.592L303.925 286.008V286.016Z" fill="white"/>
<path d="M303.925 286.016C303.925 286.016 311.197 293.31 312.641 295.99C314.085 298.669 317.271 307.951 320.204 310.936C320.204 310.936 319.05 314.218 316.028 312.067C313.006 309.916 309.59 305.696 308.503 303.388C307.409 301.081 305.786 302.115 305.444 303.946C305.101 305.777 304.915 318.468 304.915 318.468C304.915 318.468 306.85 332.886 305.578 334.293C304.305 335.699 302.184 335.029 301.596 333.913C301.164 333.109 298.425 320.902 298.425 320.902L298.187 314.441C298.187 314.441 297.621 334.724 296.132 336.109C294.644 337.493 293.363 336.697 292.604 335.774C291.845 334.851 292.18 325.904 292.18 325.904L291.8 313.838L288.994 336.339C288.994 336.339 288.458 338.431 286.776 338.275C285.094 338.118 284.327 335.498 284.327 335.498L285.191 312.03C285.191 312.03 284.141 324.996 283.188 325.547C281.908 326.284 280.896 325.837 280.65 324.795C280.159 322.681 280.673 310.958 280.673 310.958L282.734 288.792L283.106 278.021L303.895 279.592L303.925 286.008V286.016Z" stroke="black" stroke-width="1.46" stroke-miterlimit="10"/>
<path d="M288.669 260.425C288.669 260.425 283.496 277.463 284.218 298.52C284.5 306.663 288.661 346.402 288.661 346.402H337.936V322.457L340.935 323.239C340.935 323.239 347.974 343.053 347.974 346.402H396.728L393.157 291.933L389.912 256.555L288.661 260.403L288.669 260.425Z" fill="black"/>
<path d="M334.74 272.06C334.74 272.06 334.985 271.881 335.506 271.866C336.02 271.851 336.802 272.037 337.546 272.618C338.26 273.191 339.012 274.203 338.982 275.543C338.982 276.898 337.873 278.185 336.482 278.617C335.097 279.093 333.437 278.714 332.641 277.62C331.829 276.555 331.83 275.297 332.068 274.412C332.328 273.504 332.842 272.886 333.266 272.596C333.69 272.298 333.988 272.261 334.003 272.298C334.1 272.402 332.939 272.878 332.604 274.538C332.455 275.32 332.544 276.377 333.199 277.166C333.824 277.97 335.082 278.252 336.236 277.873C337.382 277.501 338.231 276.526 338.26 275.506C338.32 274.486 337.769 273.585 337.181 273.035C335.931 271.888 334.71 272.194 334.732 272.052" fill="#FCCC93"/>
<path d="M311.41 110.742L302.046 112.782C295.243 114.263 289.705 119.354 287.964 126.098C287.941 126.202 287.912 126.299 287.889 126.403C281.369 153.243 273.688 213.675 273.688 213.675L307.554 220.039L313.926 152.871L311.41 110.742Z" fill="#9296A7"/>
<path d="M376.624 256.578C376.624 256.578 376.378 256.72 375.879 256.935C375.306 257.166 374.584 257.456 373.691 257.821C371.793 258.588 368.994 259.593 365.511 260.739C362.027 261.893 357.829 263.106 353.118 264.282C348.399 265.428 343.181 266.522 337.643 267.408C332.105 268.264 326.791 268.822 321.953 269.18C317.107 269.5 312.738 269.634 309.068 269.604C305.399 269.589 302.429 269.485 300.39 269.336C299.429 269.269 298.648 269.209 298.037 269.165C297.502 269.12 297.219 269.083 297.219 269.06C297.219 269.038 297.502 269.023 298.045 269.023C298.663 269.031 299.444 269.046 300.404 269.06C302.451 269.12 305.414 269.142 309.076 269.098C312.731 269.06 317.085 268.874 321.916 268.525C326.739 268.138 332.023 267.557 337.539 266.708C343.047 265.83 348.257 264.758 352.969 263.649C357.665 262.503 361.871 261.349 365.362 260.263C368.86 259.183 371.674 258.253 373.602 257.568C374.51 257.255 375.254 257.01 375.835 256.809C376.348 256.645 376.624 256.563 376.631 256.586" fill="black"/>
<path d="M299.3 113.875L331.359 102.814C331.359 102.814 331.202 110.972 343 111.225C356.584 111.523 369.84 98.2363 369.84 98.2363C369.84 98.2363 396.219 108.367 402.151 113.153C408.084 117.931 388.724 217.842 388.724 217.842L382.65 249.26L383.126 268.672C347.674 278.602 317.946 286.581 284.883 276.019C284.883 276.019 285.702 258.468 287.614 253.682C289.527 248.895 289.17 248.456 289.17 248.456L292.311 193.518L292.877 152.2L299.293 113.875H299.3Z" fill="#9296A7"/>
<path d="M395.855 113.808C395.959 114.001 392.766 115.624 389.67 118.668C386.544 121.69 384.847 124.838 384.653 124.727C384.489 124.675 385.948 121.273 389.178 118.154C392.379 115.013 395.81 113.636 395.863 113.8" fill="black"/>
<path d="M329.125 103.455C329.125 102.934 330.07 99.6669 330.07 99.6669L337.089 109.418C337.878 110.519 339.464 110.653 340.439 109.715L347.681 102.674C350.048 102.153 352.757 101.356 355.638 100.143C361.593 97.6274 367.473 93.0424 369.84 89.7227C371.529 93.1912 373.159 96.8235 375.526 100.612L351.924 113.809L342.575 117.784L333.732 116.169L329.132 103.463L329.125 103.455Z" fill="#9296A7"/>
<path d="M291.501 206.611C286.417 205.175 281.586 204.178 275.721 203.872C274.225 203.009 269.759 203.954 268.508 205.994C267.608 207.46 266.811 210.318 267.124 212.015C267.451 213.794 268.59 215.417 270.161 216.325C271.314 216.995 272.647 217.285 273.949 217.561C278.229 218.469 282.502 219.377 286.782 220.292C287.891 220.53 288.992 220.761 290.109 220.984C289.841 216.183 290.496 211.249 291.508 206.619" fill="#9296A7"/>
<path d="M292.201 142.511C292.201 142.511 292.231 142.846 292.224 143.479C292.201 144.186 292.179 145.109 292.149 146.255C292.06 148.749 291.933 152.21 291.784 156.453C291.472 165.064 291.092 176.959 290.839 190.096C290.594 203.241 290.527 215.143 290.519 223.762C290.512 228.005 290.504 231.473 290.497 233.967C290.482 235.113 290.474 236.036 290.467 236.743C290.452 237.376 290.43 237.711 290.407 237.711C290.385 237.711 290.355 237.376 290.318 236.743C290.288 236.036 290.259 235.113 290.214 233.967C290.132 231.555 290.058 228.072 289.998 223.762C289.879 215.143 289.864 203.234 290.102 190.081C290.355 176.929 290.817 165.035 291.263 156.423C291.487 152.121 291.688 148.637 291.859 146.233C291.948 145.094 292.015 144.171 292.067 143.464C292.127 142.831 292.164 142.504 292.194 142.504" fill="black"/>
<path d="M292.213 142.51C291.93 155.915 291.298 176.503 291.089 190.117C291.074 202.532 290.963 222.532 290.97 234.762C290.948 235.588 290.992 236.965 290.896 237.798C291.543 237.888 289.809 238.186 289.965 237.843C289.921 237.657 289.928 237.65 289.913 237.56C289.898 237.441 289.883 237.106 289.876 236.987C289.586 229.559 289.563 221.349 289.638 213.898C289.757 191.814 290.501 164.415 292.213 142.517M292.213 142.51C290.553 164.4 290.263 191.821 290.449 213.891C290.412 221.066 290.486 229.038 290.784 236.191C290.799 236.511 290.836 237.233 290.866 237.553C291.03 237.255 289.333 237.516 289.98 237.575C290.032 236.883 290.032 235.513 290.047 234.754C290.047 204.579 291.231 172.61 292.221 142.51" fill="black"/>
<path d="M326.63 279.748C326.63 279.748 325.61 277.663 324.442 273.652C323.318 269.64 322.171 263.64 322.052 256.167C321.859 248.694 322.655 239.814 323.854 230.041C325.037 220.254 326.34 209.513 327.702 198.229C330.493 175.683 333.016 155.274 334.855 140.447C335.8 133.093 336.567 127.131 337.103 122.948C337.378 120.923 337.594 119.33 337.75 118.191C337.825 117.685 337.892 117.276 337.936 116.956C337.981 116.68 338.011 116.539 338.026 116.539C338.041 116.539 338.033 116.688 338.011 116.963C337.981 117.283 337.944 117.693 337.899 118.206C337.78 119.345 337.609 120.945 337.385 122.977C336.902 127.168 336.217 133.145 335.368 140.506C333.589 155.341 331.141 175.758 328.431 198.318C327.047 209.595 325.729 220.343 324.524 230.123C323.288 239.889 322.439 248.724 322.566 256.16C322.618 263.596 323.682 269.565 324.71 273.585C325.268 275.587 325.722 277.135 326.116 278.162C326.28 278.646 326.414 279.04 326.518 279.346C326.6 279.614 326.645 279.755 326.63 279.755" fill="black"/>
<path d="M354.383 231.791C354.397 231.836 353.668 232.148 352.336 232.677C350.877 233.228 348.971 233.957 346.671 234.828C341.878 236.614 335.239 239.033 327.892 241.661C319.109 244.802 311.301 247.533 306.493 249.156L306.344 248.747C307.706 248.27 308.837 247.868 309.76 247.548L309.872 247.787C308.718 248.375 308.108 248.657 308.085 248.62C308.063 248.576 308.629 248.218 309.745 247.556L309.857 247.794C308.949 248.166 307.84 248.613 306.5 249.156L306.351 248.747C311.1 246.953 318.871 244.11 327.654 240.969C335 238.341 341.67 235.996 346.5 234.337C348.83 233.555 350.765 232.907 352.246 232.409C353.608 231.97 354.368 231.746 354.383 231.798" fill="black"/>
<path d="M420.527 215.639L394.58 215.059C392.578 221.4 388.306 232.915 384.182 243.016C382.12 247.422 377.781 256.488 375.392 259.242C371.997 263.15 365.619 263.462 362.753 265.918C359.887 268.375 361.294 267.563 359.061 270.414C356.828 273.257 349.109 279.532 349.109 279.532C349.295 284.11 353.404 282.413 355.756 281.855C359.47 279.562 361.979 276.964 363.103 274.902C364.777 277.307 368.395 281.78 374.617 284.772C378.309 286.544 381.666 288.293 384.085 288.561C384.085 288.561 387.978 278.17 388.492 274.798C388.626 273.92 389.288 272.454 390.189 270.757C396.769 260.12 417.907 227.288 420.051 220.857C420.528 219.435 420.996 217.545 420.527 215.647" fill="white"/>
<path d="M420.532 215.639L394.578 215.297L394.808 215.133C392.761 221.676 390.372 228.092 387.953 234.5C387.313 236.153 385.787 240.105 385.154 241.683C383.539 245.658 381.574 249.484 379.617 253.302C376.632 259.004 374.979 261.668 368.601 263.745C365.802 264.683 363.063 265.725 361.232 268.084C358.403 272.945 353.602 276.302 349.442 279.941L349.635 279.517C349.68 283.604 353.744 281.691 355.471 281.4C358.478 279.502 361.433 277.113 363.048 273.905L363.532 274.597C366.516 278.914 370.64 282.398 375.419 284.594L378.292 285.978C380.205 286.856 382.155 287.794 384.135 288.062L383.628 288.375C385.415 283.551 387.179 278.698 388.318 273.689C388.928 272.029 389.769 270.496 390.729 269.045C397.19 258.817 406.464 244.4 412.642 234.188C414.421 231.255 416.178 228.308 417.83 225.3C419.408 222.345 421.284 219.093 420.525 215.632M420.532 215.639C421.366 219.093 419.542 222.427 418.016 225.405C416.416 228.449 414.712 231.426 412.985 234.396C407.052 244.683 397.8 259.257 391.481 269.521C390.573 270.943 389.762 272.439 389.189 274.009C388.08 279.041 386.308 283.901 384.544 288.732L384.41 289.097L384.038 289.045C380.793 288.568 377.875 286.812 374.987 285.509C370.059 283.269 365.757 279.659 362.668 275.215L363.569 275.163C361.775 278.274 358.947 280.5 355.969 282.368C352.784 283.298 348.764 284.288 348.593 279.562L348.578 279.301L348.787 279.13C352.925 275.528 357.614 272.305 360.435 267.504C362.363 264.981 365.415 263.767 368.28 262.837C374.481 260.842 375.887 258.341 378.82 252.87C380.8 249.104 382.787 245.315 384.432 241.385C385.087 239.807 386.65 235.862 387.291 234.247C389.784 227.883 392.196 221.475 394.354 214.992L394.414 214.82H394.585L420.532 215.639Z" fill="black"/>
<path d="M338.947 114.858C338.903 114.813 339.639 113.942 340.979 112.453C342.438 110.868 344.351 108.791 346.606 106.335L346.941 105.97L347.12 106.439C347.805 108.181 348.549 110.079 349.338 112.089C349.733 113.086 350.127 114.18 350.559 115.17C350.782 115.647 351.11 116.056 351.504 116.101C351.891 116.168 352.353 115.862 352.792 115.49C357.987 111.218 362.721 107.377 366.167 104.623C367.812 103.328 369.189 102.249 370.276 101.393C371.258 100.641 371.817 100.246 371.846 100.284C371.876 100.321 371.385 100.79 370.462 101.609C369.42 102.509 368.088 103.648 366.502 105.018C363.138 107.868 358.456 111.776 353.261 116.048C352.807 116.406 352.226 116.912 351.4 116.815C350.581 116.681 350.164 115.996 349.904 115.475C349.435 114.366 349.078 113.354 348.683 112.327C347.924 110.31 347.202 108.404 346.547 106.648L347.06 106.752C344.723 109.134 342.751 111.151 341.24 112.692C339.826 114.106 338.992 114.895 338.947 114.843" fill="black"/>
<path d="M338.945 112.149C338.863 112.208 337.858 110.958 336.318 108.911C336.228 108.792 336.154 108.77 336.161 108.785C336.161 108.777 336.079 108.852 336.035 108.993C335.923 109.328 335.804 109.67 335.685 110.02C335.439 110.757 335.171 111.524 334.903 112.32C334.33 113.965 333.712 115.729 333.057 117.59L332.641 118.773L332.35 117.545C332.321 117.434 332.291 117.307 332.268 117.188C331.345 113.243 330.542 109.663 329.998 107.065C329.455 104.467 329.172 102.845 329.269 102.822C329.366 102.8 329.834 104.378 330.504 106.946C331.174 109.514 332.053 113.072 332.983 117.017C333.013 117.136 333.042 117.262 333.065 117.374L332.358 117.337C333.028 115.483 333.668 113.727 334.256 112.089C334.553 111.3 334.836 110.541 335.104 109.812C335.238 109.454 335.372 109.105 335.499 108.77C335.588 108.598 335.7 108.331 336.05 108.249C336.414 108.197 336.615 108.457 336.712 108.584C338.171 110.735 339.012 112.074 338.938 112.134" fill="black"/>
<path d="M402.039 112.908C402.039 112.908 412.787 120.605 415.273 133.027C417.759 145.45 423.208 217.412 423.208 217.412L388.663 216.176C388.663 216.176 381.719 156.652 381.719 155.298C381.719 153.943 389.192 124.349 389.646 123.671C390.1 122.994 402.046 112.908 402.046 112.908" fill="#9296A7"/>
<path d="M381.841 152C382.042 151.978 383.308 163.083 384.662 176.794C386.017 190.511 386.955 201.639 386.747 201.661C386.546 201.684 385.28 190.578 383.926 176.868C382.571 163.157 381.633 152.022 381.841 152Z" fill="black"/>
<path d="M423.196 217.413C423.196 217.413 422.906 217.465 422.348 217.495C421.797 217.524 420.978 217.547 419.921 217.554C417.815 217.569 414.763 217.502 411.004 217.353C407.245 217.212 402.765 216.966 397.8 216.914C396.557 216.892 395.299 216.944 393.967 216.899C392.649 216.84 391.228 216.653 389.97 215.909C388.712 215.187 387.789 213.959 387.201 212.649C386.598 211.324 386.278 209.91 386.017 208.481C385.749 207.074 385.608 205.578 385.734 204.156C385.794 203.442 385.913 202.72 386.174 202.02C386.308 201.67 386.486 201.328 386.762 201.03C387.03 200.717 387.431 200.509 387.781 200.405C388.518 200.189 389.203 200.211 389.858 200.159C390.52 200.122 391.183 200.092 391.83 200.055C393.133 200.01 394.413 199.966 395.656 199.921C400.643 199.802 405.124 199.847 408.89 199.884C412.582 199.951 415.604 199.995 417.8 200.033C418.79 200.062 419.594 200.077 420.226 200.1C420.777 200.122 421.075 200.144 421.075 200.167C421.075 200.189 420.785 200.219 420.226 200.241C419.594 200.263 418.79 200.286 417.8 200.315C415.597 200.338 412.575 200.368 408.883 200.397C405.117 200.42 400.636 200.427 395.671 200.591C394.428 200.643 393.155 200.695 391.86 200.747C391.213 200.784 390.558 200.822 389.895 200.859C389.233 200.904 388.548 200.911 387.982 201.082C386.851 201.372 386.568 202.913 386.449 204.201C386.337 205.57 386.456 206.933 386.732 208.339C386.985 209.731 387.297 211.101 387.863 212.329C388.414 213.55 389.233 214.636 390.334 215.276C392.582 216.564 395.344 216.103 397.807 216.222C402.794 216.318 407.268 216.616 411.027 216.825C414.785 217.04 417.822 217.189 419.929 217.256C420.919 217.286 421.715 217.316 422.348 217.331C422.899 217.353 423.196 217.375 423.196 217.398" fill="black"/>
<path d="M422.677 212.27C421.024 196.899 419.208 175.768 417.578 160.666C416.625 152.091 415.896 143.442 414.556 134.986C413.246 126.642 407.946 119.274 401.396 114.153L402.55 114.108L402.453 114.19L401.888 114.666L401.277 114.22C397.422 111.488 392.822 109.486 388.497 107.469C384.054 105.459 379.55 103.553 375.017 101.715L374.757 101.611L374.616 101.38C372.457 97.8965 370.752 94.1749 369.026 90.5574L370.403 90.6765C367.611 94.2716 363.949 96.8396 360.094 99.0949C356.246 101.283 352.025 102.772 347.708 103.687L347.969 103.546L343.279 108.019L340.92 110.237C340.503 110.677 339.96 111.056 339.357 111.16C338.419 111.354 337.407 110.989 336.826 110.237C336.409 109.716 335.814 108.749 335.419 108.228C334.199 106.493 331.117 102.028 329.867 100.249L330.135 100.204L329.569 102.072C329.42 102.616 329.174 103.405 329.107 103.948C329.092 103.873 329.145 104.045 329.145 104.045L329.167 104.104L329.107 104.119L326.547 104.938L329.07 104L329.033 104.074L328.988 103.963V103.948V103.94C329.1 102.817 329.599 101.216 329.852 100.107L329.926 99.8094L330.12 100.062C331.936 102.504 335.122 106.761 336.9 109.151C337.727 110.565 339.223 110.93 340.339 109.627L342.624 107.327L347.224 102.764L347.329 102.66L347.485 102.623C351.668 101.64 355.739 100.122 359.424 97.9188C363.413 95.5072 367.299 92.515 369.889 88.6445L370.477 89.8503C372.249 93.4901 373.938 97.1224 376.06 100.487L375.658 100.152C382.491 102.898 389.309 105.712 395.926 108.972C398.136 110.089 400.325 111.205 402.431 112.731L401.248 112.761L401.344 112.679L401.917 112.195C403.942 113.669 405.758 115.344 407.403 117.152C416.424 126.948 416.491 135.195 417.853 147.632C419.945 169.114 421.463 190.751 422.684 212.292" fill="black"/>
<path d="M434.138 212.453C434.525 212.646 434.867 212.817 435.165 212.974L414.383 288.761C414.547 289.513 414.718 290.272 414.912 291.031C416.765 298.311 418.291 295.08 419.221 302.732C420.159 310.391 418.819 327.012 418.819 327.012C412.493 328.091 414.026 318.616 413.877 317.715C413.728 316.815 412.076 306.662 412.076 306.662L409.411 322.955L414.16 328.895C414.16 328.895 419.787 331.552 419.646 333.547C419.504 335.542 414.16 334.917 414.16 334.917C414.16 334.917 414.249 336.71 412.515 336.8C410.781 336.889 400.375 325.613 400.375 325.613L400.397 299.144L401.506 283.513C401.529 283.141 407.193 229.006 409.687 222.211C411.168 218.176 411.823 209.222 411.964 202.441" fill="white"/>
<path d="M434.168 212.401L435.195 212.915L435.239 212.937L435.225 212.989C428.898 237.232 421.492 264.809 414.8 288.873L414.733 289.127L414.48 289.186L414.808 288.665C415.18 290.243 415.5 291.843 416.051 293.347C416.542 294.969 417.562 296.101 418.366 297.597C419.69 300.731 419.698 304.088 419.824 307.392C419.906 313.95 419.489 320.485 419.006 327.02V327.169L418.849 327.191C413.676 328.137 413.438 321.922 413.714 318.326C413.766 317.917 413.647 317.292 413.58 316.89C413.431 316.004 413.006 313.444 412.858 312.513L411.89 306.678H412.262L409.679 322.979L409.62 322.763L414.406 328.673L414.294 328.583C415.329 329.082 416.326 329.633 417.286 330.265C418.343 331.062 420.189 332.126 419.958 333.771C419.348 335.751 415.723 335.364 414.115 335.282L414.555 334.873C414.555 335.372 414.465 335.826 414.197 336.265C413.788 336.935 412.932 337.314 412.173 337.136C410.081 336.168 408.518 334.359 406.836 332.863C404.491 330.623 402.243 328.293 400.033 325.919L399.906 325.785V325.599C399.906 325.599 399.906 299.115 399.906 299.093L400.762 286.938C402.563 266.707 405.079 246.484 408.414 226.447C408.697 224.958 409.047 223.417 409.493 221.966C411.317 215.661 411.376 208.948 411.399 202.42L412.545 202.442C412.128 208.546 411.845 214.686 410.446 220.663C409.843 222.606 409.3 224.541 408.95 226.551C406.501 240.343 404.618 260.768 402.951 274.902C402.593 278.431 401.946 283.522 401.775 287.013L400.904 299.167C400.881 298.996 400.881 325.643 400.859 325.606L400.732 325.278C402.928 327.638 405.169 329.968 407.461 332.231C409.039 333.682 410.52 335.364 412.411 336.354C413.237 336.466 413.803 335.707 413.773 334.925V334.463C414.934 334.597 419.936 335.096 419.177 333.027C418.112 331.181 415.716 330.146 413.914 329.082L409.195 323.12L409.121 323.023L409.143 322.904L411.89 306.626L412.083 305.502L412.262 306.626C412.694 309.29 413.475 314.218 413.907 316.845C413.981 317.225 414.101 317.962 414.041 318.349C413.981 321.08 413.639 324.631 416.066 326.432C416.862 326.931 417.859 326.983 418.797 326.819L418.641 326.99C419.102 320.478 419.408 313.927 419.221 307.407C419.058 304.251 418.976 300.827 417.696 297.932C416.922 296.577 415.76 295.185 415.277 293.63C414.622 291.925 414.279 290.176 413.862 288.427L414.287 288.323L413.967 288.635C420.487 264.541 428.198 236.994 435.105 212.945L435.135 213.019L434.123 212.483L434.168 212.386V212.401Z" fill="black"/>
<path d="M403.828 323.895C407.423 327.155 410.773 330.675 413.839 334.434C410.244 331.174 406.902 327.653 403.828 323.895Z" fill="black"/>
<path d="M521.216 212.961C521.715 213.608 551.875 199.191 551.875 199.191C552.545 198.908 545.072 170.825 535.001 153.928C530.386 146.187 525.213 145.525 517.979 143.136L504.253 139.451L502.69 160.188C502.221 166.403 496.654 167.602 490.438 167.133L454.078 163.977C452.634 163.865 450.386 167.289 449.151 166.694C447.446 165.875 446.538 163.984 446.947 162.146C449.128 152.462 450.729 145.294 450.729 145.294C450.729 145.294 431.287 137.687 421.291 154.472C411.227 171.375 403.769 199.459 404.432 199.742C404.432 199.742 421.157 207.728 429.902 211.539C431.927 220.739 434.301 232.291 434.562 242.994C434.659 247.163 434.956 242.801 433.014 254.07C435.827 254.896 442.779 258.253 455.671 259.861C485.176 263.545 523.635 249.835 523.635 249.835C520.033 236.251 521.105 245.868 518.879 227.297C518.522 224.312 519.415 218.648 520.867 211.8C521.045 212.499 521.164 212.909 521.202 212.953" fill="#242C4F"/>
<path d="M427.586 166.017C427.645 166.017 427.667 166.799 427.66 168.198C427.645 169.761 427.63 171.756 427.608 174.138C427.571 179.147 427.571 186.069 428.054 193.691C428.538 201.313 429.513 208.168 430.466 213.074C430.935 215.53 431.359 217.517 431.672 218.879C431.977 220.249 432.126 221.008 432.066 221.023C432.014 221.038 431.761 220.301 431.359 218.954C430.942 217.614 430.436 215.641 429.893 213.185C428.791 208.28 427.72 201.395 427.228 193.736C426.744 186.077 426.841 179.132 427.027 174.115C427.124 171.607 427.236 169.583 427.347 168.183C427.452 166.784 427.541 166.01 427.593 166.01" fill="black"/>
<path d="M527.182 185.025C524.934 197.992 521.86 210.772 517.938 223.336C520.178 210.362 523.267 197.59 527.182 185.025Z" fill="black"/>
<g style="mix-blend-mode:multiply" opacity="0.32">
<mask id="mask0_5018_9135" style="mask-type:luminance" maskUnits="userSpaceOnUse" x="431" y="204" width="81" height="12">
<path d="M511.033 204.922H431.703V215.789H511.033V204.922Z" fill="white"/>
</mask>
<g mask="url(#mask0_5018_9135)">
<path d="M431.703 204.922C442.302 213.035 448.674 210.288 460.598 209.417C464.126 209.246 467.609 209.343 471.13 209.864C474.576 210.407 477.695 211.911 481.052 212.491C491.026 214.3 501.208 213.094 511.033 210.355C501.729 214.888 490.929 216.794 480.568 215.268C477.152 214.791 473.973 213.295 470.639 212.797C467.423 212.253 464.037 212.164 460.71 212.223C455.656 212.246 450.356 213.251 445.198 212.499C439.987 211.687 435.112 208.822 431.703 204.914" fill="#F9BC73"/>
</g>
</g>
<path d="M529.423 67.0052C529.423 85.0476 504.897 99.6811 474.633 99.6811C444.369 99.6811 419.836 85.0625 419.828 67.0275C419.828 48.985 444.354 34.3516 474.618 34.3516C504.882 34.3516 529.415 48.9627 529.423 67.0052Z" fill="#242C4F"/>
<path d="M460.601 151.658L460.594 118.781" stroke="black" stroke-width="0.69" stroke-miterlimit="10"/>
<path d="M457.812 150.176C457.313 148.382 455.914 146.901 455.735 145.04C455.594 143.596 456.219 142.189 456.442 140.745C456.919 137.716 455.229 133.719 455.527 130.756C455.84 127.66 456.197 122.517 456.197 122.517C452.17 121.653 445.337 125.219 445.091 129.461C442.099 130.533 439.762 133.406 439.271 136.629C438.78 139.852 440.149 143.276 442.695 145.181C441.935 149.089 441.176 153.205 442.382 156.972C443.588 160.738 447.488 163.864 451.18 162.666C453.703 161.847 455.341 159.353 456.532 156.919C457.559 154.82 458.422 152.424 457.797 150.183" fill="black"/>
<path d="M452.947 129.803C452.91 129.9 451.146 128.887 448.734 128.873C446.315 128.813 444.499 129.766 444.469 129.669C444.454 129.639 444.878 129.356 445.638 129.074C446.397 128.791 447.506 128.538 448.742 128.56C449.977 128.582 451.071 128.865 451.808 129.178C452.553 129.483 452.962 129.781 452.947 129.81" fill="#242C4F"/>
<path d="M452.901 147.476C452.901 147.476 452.775 147.565 452.529 147.677C452.284 147.796 451.911 147.922 451.442 148.041C450.505 148.287 449.142 148.421 447.684 148.168C446.225 147.907 444.989 147.319 444.193 146.768C443.791 146.493 443.486 146.247 443.292 146.054C443.099 145.868 442.994 145.756 443.009 145.734C443.046 145.689 443.493 146.091 444.304 146.575C445.116 147.066 446.321 147.602 447.736 147.855C449.15 148.101 450.467 148.012 451.398 147.825C452.328 147.647 452.886 147.423 452.901 147.476Z" fill="#242C4F"/>
<path d="M455.042 144.937C454.99 144.967 454.558 143.962 453.65 142.473C453.204 141.722 452.608 140.873 451.909 139.965C451.194 139.072 450.353 138.134 449.393 137.226C448.425 136.333 447.435 135.559 446.505 134.911C445.567 134.278 444.681 133.75 443.915 133.363C442.389 132.574 441.376 132.231 441.399 132.172C441.399 132.15 441.659 132.224 442.121 132.38C442.352 132.455 442.627 132.551 442.947 132.693C443.26 132.827 443.632 132.968 444.011 133.169C444.793 133.534 445.701 134.048 446.661 134.673C447.614 135.32 448.619 136.094 449.601 137.003C450.569 137.918 451.417 138.878 452.132 139.794C452.832 140.717 453.412 141.595 453.836 142.369C454.067 142.749 454.238 143.106 454.395 143.419C454.558 143.731 454.678 144.007 454.774 144.237C454.968 144.691 455.065 144.945 455.042 144.952" fill="#242C4F"/>
<path d="M452.71 127.318C452.628 127.363 452.1 126.358 451.125 125.398C450.157 124.43 449.167 123.917 449.204 123.835C449.226 123.76 450.321 124.162 451.333 125.175C452.353 126.179 452.777 127.289 452.71 127.318Z" fill="#242C4F"/>
<path d="M455.155 149.625C455.177 149.677 454.395 150.034 453.204 150.726C452.006 151.419 450.413 152.475 448.82 153.875C447.227 155.282 445.962 156.74 445.114 157.85C444.265 158.959 443.796 159.695 443.751 159.666C443.737 159.658 443.833 159.457 444.034 159.115C444.228 158.772 444.54 158.289 444.95 157.716C445.761 156.562 447.027 155.058 448.634 153.637C450.249 152.222 451.88 151.173 453.115 150.525C453.733 150.198 454.239 149.96 454.596 149.818C454.954 149.669 455.155 149.602 455.162 149.617" fill="#242C4F"/>
<path d="M447.518 137.441C448.583 135.573 449.863 134.099 450.89 133.161C451.404 132.692 451.835 132.335 452.155 132.112C452.468 131.888 452.647 131.769 452.662 131.792C452.691 131.836 452.007 132.35 451.031 133.318C450.056 134.285 448.821 135.752 447.771 137.59C446.729 139.429 446.097 141.26 445.762 142.607C445.419 143.954 445.33 144.817 445.27 144.81C445.248 144.81 445.256 144.594 445.293 144.2C445.322 143.805 445.404 143.239 445.553 142.555" fill="#242C4F"/>
<path d="M452.345 159.04C452.293 159.055 452.136 158.467 451.772 157.559C451.414 156.651 450.819 155.445 449.955 154.247C449.092 153.056 448.139 152.118 447.402 151.508C446.666 150.89 446.167 150.563 446.197 150.518C446.211 150.488 446.755 150.749 447.536 151.329C448.318 151.91 449.315 152.84 450.201 154.061C451.079 155.282 451.66 156.54 451.973 157.477C452.293 158.415 452.374 159.033 452.345 159.04Z" fill="#242C4F"/>
<path d="M457.187 165.584C456.264 163.828 454.909 162.064 452.989 161.773L446.699 163.5C444.712 165.867 444.146 169.388 445.285 172.254C445.903 173.809 446.952 175.127 447.92 176.474C448.887 177.821 449.803 179.28 450.086 180.94C450.361 182.6 449.855 184.513 448.478 185.436C450.071 184.922 451.5 183.865 452.49 182.481C452.587 183.828 452.214 185.205 451.463 186.321C455.341 185.242 458.273 181.558 459.159 177.516C460.045 173.474 459.099 169.194 457.194 165.584" fill="black"/>
<path d="M456.87 159.786C456.699 159.273 456.356 158.789 455.85 158.647C455.084 158.432 454.354 159.057 453.714 159.555C451.429 161.342 448.31 161.915 445.586 161.059L445.482 161.037C444.953 161.26 444.432 162.116 444.462 162.704C444.492 163.285 444.797 163.82 445.177 164.252C446.04 165.25 447.32 165.793 448.615 165.942C449.911 166.083 451.228 165.845 452.479 165.458C453.736 165.063 454.979 164.498 455.888 163.515C456.796 162.533 457.294 161.066 456.878 159.794" fill="#9296A7"/>
<path d="M459.918 73.5335C463.551 65.1152 471.262 60.999 474.783 52.5286C474.783 52.5286 471.143 46.4624 466.29 45.8594C461.437 45.2565 452.721 48.7326 448.091 52.5361C441.228 56.5703 437.373 63.4851 435.319 71.1814C433.681 77.3147 432.706 84.5496 432.996 90.8912C434.76 128.949 454.217 131.375 454.463 129.202C456.249 113.333 467.838 103.537 465.858 87.6906L459.926 73.541L459.918 73.5335Z" fill="black"/>
<path d="M509.388 93.2873C509.388 115.133 489.894 129.581 469.961 129.588C450.021 129.588 440.836 115.037 440.828 93.1905C440.828 71.3445 457.285 54.359 477.226 54.3516C497.166 54.3516 509.388 71.4487 509.388 93.2873Z" fill="white"/>
<path d="M449.011 85.6584C449.45 86.1273 450.946 85.4574 452.8 85.2565C454.646 84.9959 456.261 85.2788 456.573 84.7131C456.707 84.4377 456.417 83.9539 455.68 83.5371C454.958 83.1202 453.79 82.8299 452.517 82.9937C451.244 83.1574 450.18 83.7157 449.584 84.3037C448.974 84.8917 448.81 85.4351 449.011 85.6658" fill="black"/>
<path d="M462.506 90.7422C462.707 94.0842 462.067 97.4635 460.832 100.567C459.827 103.001 458.279 105.517 462.387 105.219C463.206 105.182 464.025 105.026 464.844 104.884C464.055 105.16 463.251 105.368 462.417 105.51C457.899 106.06 459.06 103.202 460.273 100.351C461.554 97.2923 462.223 94.047 462.506 90.7422Z" fill="black"/>
<path d="M504.95 79.7396C498.869 57.7819 475.519 46.5277 456.442 61.124C442.516 71.9911 438.75 91.8572 442.687 108.389C444.377 114.983 447.972 121.303 453.703 125.151C456.517 127.079 459.747 128.359 463.104 129.081C466.483 129.825 469.937 130.026 473.205 128.701C476.457 127.518 479.457 125.679 482.553 124.079C473.227 129.937 468.902 132.483 457.805 128.56C441.898 122.412 438.303 102.784 440.916 87.6815C442.583 77.2907 447.957 67.4135 456.197 60.8039C475.579 45.24 500.179 56.6952 504.95 79.7321" fill="black"/>
<path d="M471.503 83.5588C471.718 84.1766 473.966 83.9161 476.601 84.2659C479.244 84.5636 481.365 85.3675 481.722 84.8241C481.878 84.5636 481.521 83.983 480.665 83.3801C479.817 82.7772 478.462 82.1967 476.884 81.9957C475.299 81.8022 473.847 82.0329 472.88 82.4125C471.905 82.7921 471.413 83.2685 471.503 83.5588Z" fill="black"/>
<path d="M443.773 78.6697C447.733 77.0694 452.996 74.4419 458.407 70.1248C465.299 64.6168 466.222 60.3072 468.716 56.1687C462.94 55.9156 460.536 53.9953 454.76 53.7422L443.773 78.6697Z" fill="black"/>
<path d="M489.957 78.6158C494.654 80.0747 494.297 106.201 493.79 128.166C493.753 129.863 515.755 116.926 515.182 95.4972C515.019 89.2597 514.445 83.0074 513.039 76.9337C511.632 70.8599 504.881 59.6653 500.713 55.0355C493.374 46.8852 479.462 41.0497 470.322 49.0958C470.322 49.0958 465.007 53.145 466.295 56.7847C468.439 62.8435 480.899 75.8023 489.965 78.6233" fill="black"/>
<path d="M509.898 138.9C509.406 135.677 507.077 132.804 504.077 131.732C504.025 130.839 503.742 129.752 503.303 128.606C503.883 128.018 504.338 127.4 504.598 126.753C505.953 123.455 507.136 116.399 504.851 113.63C504.509 113.213 496.262 112.134 494.498 114.248L493.679 126.433C493.485 128.442 493.508 131.948 493.515 132.119L493.485 133.146H493.5C493.351 136.191 492.332 140.456 492.733 143.024C492.957 144.46 493.582 145.867 493.448 147.318C493.269 149.179 491.87 150.66 491.371 152.462C490.754 154.702 491.617 157.099 492.644 159.198C493.835 161.632 495.48 164.118 497.996 164.937C501.688 166.135 505.595 163.001 506.794 159.242C507.992 155.476 507.24 151.36 506.474 147.452C509.012 145.547 510.389 142.123 509.898 138.9Z" fill="black"/>
<path d="M496.219 132.09C496.249 132.186 498.013 131.174 500.432 131.152C502.851 131.092 504.667 132.045 504.697 131.948C504.712 131.919 504.288 131.636 503.528 131.353C502.769 131.07 501.66 130.817 500.425 130.839C499.189 130.862 498.095 131.144 497.358 131.457C496.614 131.762 496.204 132.06 496.219 132.09Z" fill="#242C4F"/>
<path d="M496.273 149.759C496.273 149.759 496.4 149.848 496.646 149.96C496.891 150.079 497.263 150.205 497.732 150.324C498.67 150.57 500.032 150.697 501.491 150.444C502.95 150.183 504.186 149.595 504.982 149.044C505.384 148.769 505.689 148.523 505.883 148.33C506.076 148.144 506.18 148.032 506.166 148.017C506.128 147.972 505.682 148.374 504.87 148.858C504.059 149.349 502.853 149.885 501.439 150.138C500.025 150.384 498.707 150.295 497.777 150.109C496.847 149.93 496.288 149.707 496.273 149.759Z" fill="#242C4F"/>
<path d="M494.133 147.22C494.185 147.25 494.617 146.245 495.525 144.756C495.971 144.004 496.559 143.156 497.266 142.248C497.981 141.355 498.822 140.417 499.782 139.509C500.75 138.615 501.732 137.841 502.67 137.186C503.616 136.546 504.494 136.025 505.261 135.638C506.786 134.849 507.799 134.499 507.776 134.447C507.776 134.425 507.516 134.499 507.054 134.656C506.824 134.73 506.548 134.827 506.228 134.968C505.916 135.102 505.543 135.244 505.164 135.445C504.382 135.809 503.474 136.323 502.514 136.956C501.561 137.603 500.556 138.377 499.581 139.285C498.614 140.201 497.765 141.161 497.051 142.077C496.351 143 495.77 143.878 495.346 144.652C495.115 145.032 494.952 145.389 494.788 145.701C494.624 146.014 494.505 146.289 494.408 146.52C494.215 146.974 494.118 147.227 494.14 147.235" fill="#242C4F"/>
<path d="M496.46 129.596C496.542 129.64 497.07 128.635 498.045 127.675C499.005 126.708 500.003 126.194 499.966 126.112C499.943 126.038 498.849 126.44 497.837 127.452C496.825 128.457 496.393 129.566 496.46 129.596Z" fill="#242C4F"/>
<path d="M494.015 151.91C493.993 151.962 494.774 152.32 495.973 153.012C497.171 153.704 498.764 154.761 500.357 156.16C501.95 157.56 503.215 159.019 504.064 160.128C504.912 161.237 505.381 161.974 505.426 161.944C505.441 161.929 505.344 161.735 505.143 161.393C504.949 161.051 504.637 160.567 504.227 159.994C503.416 158.84 502.151 157.336 500.543 155.922C498.928 154.508 497.29 153.458 496.062 152.818C495.444 152.491 494.938 152.253 494.573 152.111C494.216 151.962 494.015 151.895 494.008 151.91" fill="#242C4F"/>
<path d="M501.652 139.725C500.588 137.856 499.3 136.383 498.28 135.445C497.767 134.976 497.335 134.619 497.015 134.403C496.702 134.179 496.524 134.06 496.509 134.083C496.479 134.127 497.164 134.641 498.139 135.609C499.114 136.576 500.349 138.043 501.399 139.881C502.441 141.72 503.074 143.551 503.409 144.898C503.744 146.245 503.84 147.108 503.9 147.101C503.922 147.101 503.915 146.885 503.878 146.491C503.848 146.096 503.766 145.538 503.617 144.846" fill="#242C4F"/>
<path d="M496.834 161.325C496.878 161.34 497.042 160.752 497.407 159.844C497.764 158.936 498.36 157.73 499.223 156.532C500.086 155.341 501.039 154.403 501.776 153.785C502.513 153.167 503.012 152.84 502.982 152.795C502.967 152.765 502.424 153.026 501.642 153.607C500.861 154.187 499.863 155.118 498.977 156.338C498.099 157.559 497.519 158.817 497.206 159.755C496.886 160.693 496.804 161.31 496.834 161.318" fill="#242C4F"/>
<path d="M491.989 167.868C492.912 166.111 494.267 164.347 496.187 164.057L502.477 165.783C504.464 168.143 505.037 171.671 503.899 174.537C503.281 176.092 502.231 177.41 501.264 178.757C500.296 180.104 499.381 181.563 499.105 183.223C498.83 184.883 499.343 186.796 500.72 187.719C499.127 187.205 497.698 186.156 496.708 184.764C496.612 186.111 496.984 187.488 497.736 188.605C493.85 187.525 490.925 183.841 490.039 179.807C489.153 175.765 490.091 171.485 491.997 167.875" fill="black"/>
<path d="M492.313 162.069C492.484 161.556 492.826 161.072 493.332 160.931C494.099 160.715 494.828 161.34 495.469 161.839C497.754 163.625 500.88 164.198 503.597 163.342L503.701 163.312C504.229 163.536 504.75 164.392 504.721 164.98C504.691 165.56 504.386 166.096 504.006 166.535C503.143 167.533 501.862 168.084 500.567 168.225C499.272 168.366 497.955 168.136 496.704 167.741C495.446 167.347 494.203 166.781 493.295 165.798C492.387 164.816 491.888 163.35 492.305 162.084" fill="#9296A7"/>
<path d="M460.219 128.458C460.219 128.458 476.601 130.274 485.377 121.424C485.377 121.424 477.815 133.169 460.829 133.921L460.219 128.458Z" fill="black"/>
<path d="M519.4 64.3774C518.864 66.7071 499.951 54.2843 466.181 54.3811C435.738 54.4704 426.039 65.9852 425.615 63.8713C424.99 60.8046 446.553 39.6285 470.922 39.6211C498.321 39.6211 520.978 57.5222 519.4 64.3774Z" fill="#242C4F"/>
<g style="mix-blend-mode:multiply">
<mask id="mask1_5018_9135" style="mask-type:luminance" maskUnits="userSpaceOnUse" x="428" y="52" width="83" height="14">
<path d="M510.985 52.1055H428.789V65.4438H510.985V52.1055Z" fill="white"/>
</mask>
<g mask="url(#mask1_5018_9135)">
<path d="M428.789 65.4519C440.341 56.4083 449.444 52.9919 464.1 52.4336C476.791 51.6446 490.218 51.9349 501.889 57.6067C505.224 59.2665 508.283 61.3804 510.985 63.859C507.502 62.683 504.13 61.5293 500.743 60.651C493.94 58.8869 487.048 58.1649 480.043 57.6141C474.312 57.2271 465.708 56.4753 460.081 56.0511C452.615 55.8799 445.187 57.4727 438.331 60.5021C435.041 61.9164 431.967 63.7772 428.797 65.4593" fill="#9296A7"/>
</g>
</g>
<path d="M433.547 252.996C433.547 252.996 404.169 312.907 407.507 348.635C407.507 348.635 446.57 348.344 491.997 348.635C537.415 348.925 562.708 348.635 562.708 348.635C562.708 348.635 556.381 298.765 522.598 248.791C522.598 248.791 493.093 260.849 459.903 259.286C439.271 258.311 433.554 253.004 433.554 253.004" fill="black"/>
<path d="M522.566 212.43C522.179 212.623 521.837 212.794 521.539 212.951L542.35 288.73C542.194 289.482 542.015 290.241 541.822 291.001C539.969 298.28 538.45 295.05 537.512 302.709C536.582 310.368 537.922 326.989 537.922 326.989C544.248 328.068 542.708 318.593 542.864 317.692C543.013 316.792 544.658 306.639 544.658 306.639L547.33 322.932L542.581 328.872C542.581 328.872 536.954 331.537 537.096 333.531C537.237 335.526 542.581 334.894 542.581 334.894C542.581 334.894 542.492 336.687 544.226 336.777C545.953 336.866 556.359 325.589 556.359 325.589L556.329 299.121L555.212 283.49C555.19 283.118 549.503 228.983 547.002 222.195C545.521 218.161 544.859 209.214 544.717 202.426" fill="white"/>
<path d="M522.584 212.482L521.565 213.018L521.595 212.943C528.524 237.022 536.235 264.51 542.771 288.626C542.771 288.626 542.443 288.314 542.451 288.314L542.875 288.418C542.458 290.16 542.116 291.916 541.461 293.621C540.977 295.184 539.816 296.568 539.049 297.93C537.769 300.826 537.694 304.25 537.531 307.406C537.352 313.926 537.657 320.476 538.119 326.989L537.962 326.818C540.009 327.257 541.736 326.163 542.279 324.153C542.853 322.3 542.815 320.305 542.711 318.347C542.659 317.953 542.771 317.26 542.845 316.844C543.262 314.239 544.058 309.281 544.483 306.624L544.661 305.5L544.855 306.624L547.609 322.902L547.631 323.022L547.557 323.118L542.845 329.088C541.044 330.16 538.647 331.194 537.583 333.04C536.823 335.132 541.855 334.588 542.986 334.477C542.979 334.901 542.972 335.497 543.24 335.861C543.455 336.233 543.939 336.427 544.349 336.367C546.239 335.377 547.72 333.688 549.298 332.236C551.591 329.974 553.831 327.644 556.02 325.284L555.893 325.612C555.893 325.612 555.841 299.017 555.841 299.173L554.963 287.018C554.784 283.542 554.144 278.407 553.779 274.908C552.082 260.736 550.221 240.439 547.758 226.557C547.415 224.547 546.864 222.612 546.262 220.669C544.855 214.692 544.564 208.552 544.148 202.448L545.294 202.426C545.294 209.475 545.45 216.702 547.631 223.46C551.025 240.409 552.774 257.64 554.799 274.797C555.149 278.34 555.796 283.431 555.968 286.944L556.823 299.099C556.846 299.136 556.824 325.567 556.838 325.604V325.79L556.712 325.924C554.501 328.299 552.261 330.629 549.909 332.876C548.219 334.373 546.663 336.174 544.572 337.149C543.813 337.335 542.957 336.948 542.547 336.278C542.279 335.839 542.183 335.392 542.19 334.886L542.629 335.296C540.977 335.407 536.578 335.779 536.764 333.234C537.099 331.82 538.454 331.008 539.458 330.279C540.419 329.646 541.408 329.095 542.451 328.597L542.339 328.686L547.125 322.776L547.065 322.992L544.475 306.691H544.847L543.887 312.527C543.738 313.427 543.314 316.017 543.165 316.903C543.098 317.246 542.972 317.953 543.031 318.34C543.314 321.927 543.068 328.157 537.895 327.205L537.746 327.182L537.732 327.033C537.248 320.498 536.823 313.963 536.905 307.406C537.032 304.101 537.032 300.744 538.364 297.61C539.168 296.114 540.188 294.975 540.679 293.353C541.23 291.857 541.55 290.249 541.915 288.671L542.242 289.192L541.989 289.132L541.922 288.879C535.231 264.83 527.802 237.216 521.468 213.003L521.453 212.951L521.498 212.928L522.532 212.415L522.577 212.511L522.584 212.482Z" fill="black"/>
<path d="M552.917 323.863C549.843 327.615 546.501 331.143 542.906 334.403C545.973 330.644 549.322 327.123 552.917 323.863Z" fill="black"/>
<path d="M173.792 203.03L173.971 181.295L172.467 141.132L172.14 138.43C164.242 138.794 155.66 141.928 151.559 152.512C148.448 160.529 145.962 174.79 145.56 181.295C145.485 182.471 145.225 184.704 145.188 185.97L173.799 203.022L173.792 203.03Z" fill="#242C4F"/>
<path d="M172.04 191.233L146.025 284.169C146.011 284.221 146.011 284.266 146.025 284.318C146.174 285.01 146.338 285.702 146.509 286.402C148.273 293.339 149.725 290.258 150.618 297.552C151.511 304.847 150.238 320.678 150.238 320.678C144.209 321.706 145.676 312.684 145.527 311.821C145.385 310.957 143.815 301.296 143.815 301.296L141.277 316.815L145.802 322.472C145.802 322.472 151.169 325.003 151.027 326.908C150.893 328.806 145.802 328.211 145.802 328.211C145.802 328.211 145.884 329.915 144.239 330.005C142.587 330.094 132.68 319.353 132.68 319.353L132.702 294.143L133.759 279.257C133.781 278.907 139.17 227.34 141.552 220.872C142.966 217.031 146.07 193.451 146.204 186.982" fill="white"/>
<path d="M172.105 191.256C164.245 220.91 156.109 250.556 147.78 280.091L146.642 284.118L146.604 284.244C146.604 284.244 146.575 284.371 146.59 284.297C146.597 284.274 146.59 284.177 146.59 284.222C147.17 286.738 147.676 289.336 149.254 291.45C151.591 295.052 151.189 299.86 151.331 303.954C151.301 309.559 150.914 315.134 150.49 320.702L150.475 320.903C149.455 321.096 148.316 321.081 147.371 320.486C144.885 318.67 145.235 315.097 145.302 312.417C145.354 312.008 145.242 311.465 145.183 311.063C144.788 308.584 143.992 303.865 143.575 301.334H144.036C143.411 305.197 142.176 312.998 141.58 316.861L141.513 316.615L146.083 322.235L145.957 322.131C146.947 322.607 147.9 323.128 148.823 323.731C149.932 324.572 151.606 325.503 151.42 327.155C150.765 329.12 147.364 328.733 145.756 328.666L146.277 328.182C146.359 329.343 145.466 330.489 144.26 330.482C143.895 330.482 143.523 330.296 143.255 330.132C141.588 329.068 140.181 327.668 138.759 326.344C136.467 324.148 134.256 321.885 132.083 319.585V319.347L132.016 294.137C132.053 293.109 133.035 279.481 133.08 278.9C133.37 275.834 134.033 270.251 134.36 267.14C135.886 253.705 137.419 240.262 139.757 226.931C140.456 222.488 142.079 218.26 142.667 213.742C144.081 204.884 145.369 195.923 145.451 186.939C145.443 186.522 145.771 186.179 146.188 186.172C146.634 186.165 146.991 186.544 146.954 186.991C146.56 191.561 145.905 195.99 145.324 200.47C144.342 207.192 143.657 213.906 142.064 220.538C141.379 222.651 141.052 224.87 140.68 227.08C138.275 243.679 136.31 262.354 134.494 279.034C134.442 279.451 133.467 293.281 133.385 294.174C133.37 293.936 133.296 319.384 133.281 319.339L133.117 318.93C136.519 322.495 139.794 326.351 143.754 329.284C143.917 329.388 144.096 329.47 144.208 329.507C144.565 329.485 144.922 329.358 145.108 329.045C145.369 328.696 145.339 328.1 145.339 327.676C146.374 327.81 151.212 328.286 150.512 326.44C149.478 324.669 147.207 323.716 145.51 322.689L141.029 316.995L140.94 316.883L140.962 316.749L142.287 309.001L143.582 301.245L143.821 299.838L144.044 301.245C144.461 303.776 145.19 308.48 145.607 310.981C145.674 311.316 145.801 312.075 145.741 312.425C145.54 315.603 145.622 321.282 150.192 320.411L149.976 320.649C150.371 315.097 150.594 309.514 150.527 303.947C150.467 301.17 150.378 298.387 149.842 295.7C149.574 294.345 149.21 293.102 148.391 292.038C146.709 289.872 146.061 287.08 145.458 284.46C145.443 284.423 145.421 284.237 145.443 284.125C145.488 283.902 145.48 283.969 145.525 283.798L146.642 279.764C154.941 250.37 163.188 220.031 172.105 191.248" fill="black"/>
<path d="M135.945 317.701C139.362 320.812 142.555 324.162 145.48 327.735C142.064 324.631 138.871 321.274 135.945 317.701Z" fill="black"/>
<g style="mix-blend-mode:multiply">
<mask id="mask2_5018_9135" style="mask-type:luminance" maskUnits="userSpaceOnUse" x="158" y="163" width="4" height="19">
<path d="M161.965 163.434H158.586V181.662H161.965V163.434Z" fill="white"/>
</mask>
<g mask="url(#mask2_5018_9135)">
<path d="M158.684 163.434C158.907 163.419 159.22 167.565 160.12 172.581C161.021 177.598 162.152 181.595 161.944 181.662C161.855 181.692 161.453 180.724 160.954 179.117C160.455 177.509 159.86 175.254 159.406 172.715C158.952 170.177 158.728 167.855 158.647 166.173C158.565 164.491 158.602 163.449 158.699 163.441" fill="black"/>
</g>
</g>
<path d="M132.872 281.965C132.261 282.263 130.929 282.895 131.093 283.58C131.249 283.803 131.726 284.012 132.038 284.116C133.423 284.563 134.911 284.719 136.378 284.823C138.365 284.979 140.375 284.987 142.362 284.875C144.215 284.741 146.404 284.644 148.034 283.833C148.949 283.26 147.528 282.612 147.007 282.292C148.331 282.263 149.991 283.238 148.577 284.555C144.766 287.019 137.449 286.766 133.147 285.679C132.075 285.285 130.713 285.054 130.244 283.811C130.088 282.367 131.815 282.032 132.872 281.972" fill="#242C4F"/>
<path d="M132.173 279.547C131.779 279.948 131.436 280.38 131.622 280.715C132.456 281.497 133.729 281.616 134.86 281.884C138.53 282.502 142.4 282.68 146.1 282.293C146.933 282.181 147.938 282.04 148.623 281.623C149.345 281.087 148.02 280.417 147.558 280.105C148.05 280.164 148.541 280.231 149.025 280.522C149.665 280.879 149.814 281.779 149.189 282.293C148.318 283.037 147.335 283.231 146.301 283.491C142.4 284.243 138.426 284.087 134.57 283.157C133.275 282.74 131.503 282.405 130.789 281.035C130.499 280.164 131.429 279.547 132.166 279.539" fill="#9296A7"/>
<path d="M132.909 277.56C130.78 279.324 133.073 279.703 134.725 280.024C138.29 280.582 142.005 280.574 145.577 280.128C146.575 279.934 148.316 279.808 148.838 278.989C148.957 278.743 148.637 278.341 148.272 278.021C148.517 278.036 148.763 278.081 149.009 278.207C150.125 278.825 149.44 279.957 148.57 280.388C145.942 281.728 142.987 281.869 140.121 281.914C138.223 281.884 136.325 281.713 134.45 281.244C133.467 280.954 132.529 280.708 131.696 279.994C131.495 279.8 131.234 279.51 131.227 279.071C131.212 278.163 132.179 277.634 132.901 277.545" fill="#242C4F"/>
<path d="M176.156 137.41L198.367 167.392C203.562 166.886 212.792 165.278 222.453 159.361C235.583 151.314 241.746 140.06 244.046 135.215C236.506 134.158 228.468 133.771 220.942 131.761L219.439 121.727L189.331 119.227L190.053 133.242L176.156 137.41Z" fill="white"/>
<path d="M277.645 287.593C277.66 269.99 272.286 253.562 266.584 240.514C266.584 240.514 235.523 252.699 205.415 249.692C175.307 246.685 156.736 237.656 156.736 237.656C153.193 246.186 149.211 264.69 149.219 283.827C149.219 307.995 171.56 346.775 171.56 346.775H264.973C264.973 332.953 277.615 311.322 277.637 287.593" fill="black"/>
<path d="M156.744 237.656C156.588 236.51 158.248 232.758 161.583 225.255C164.307 219.115 166.793 214.053 168.669 210.376C168.669 210.376 156.73 188.977 162.416 178.564C169.391 165.791 169.264 138.794 169.264 138.794L177.779 137.246C177.779 137.246 191.668 161.087 204.731 160.931C224.947 160.692 234.668 133.979 234.668 133.979L245.029 136.323L255.889 183.826L254.348 216.413C262.952 224.891 269.048 233.674 266.711 240.469C258.836 263.357 158.858 253.034 156.737 237.656" fill="#242C4F"/>
<path d="M255.799 181.869L256.09 183.938L286.949 206.952L271.118 232.624L270.991 232.58C270.991 232.58 262.625 217.291 261.024 216.063C259.424 214.842 247.991 216.16 247.991 216.16C245.141 221.08 253.045 221.281 256.506 221.147L245.751 221.817C245.751 221.817 243.697 222.658 244.195 224.489C244.605 225.992 247.455 227.146 247.455 227.146C247.455 227.146 246.785 228.88 249.018 230.414C250.641 231.53 264.143 233.629 264.143 233.629L255.04 233.249C255.04 233.249 253.231 236.338 254.437 238.207C255.643 240.075 267.381 242.256 267.381 242.256C267.381 242.256 270.232 251.27 270.664 252.647C270.879 253.331 272.971 251.925 275.025 250.332C275.107 250.28 317.631 222.754 320.734 212.699C323.339 204.258 300.504 181.459 282.617 162.367" fill="white"/>
<path d="M255.876 181.863L256.21 183.924L256.166 183.842C260.781 187.237 267.249 191.755 271.767 195.119C277.081 199.012 282.433 202.875 287.725 206.805C282.947 214.576 276.456 225.346 271.678 232.968L271.387 233.429C271.283 233.377 270.851 233.236 270.762 233.191L270.531 233.102L270.42 232.894C269.132 230.527 267.815 228.16 266.482 225.815C264.614 222.704 262.999 219.332 260.729 216.511C259.404 215.893 257.625 216.087 256.091 216.042C253.412 216.094 250.717 216.288 248.038 216.548L248.328 216.355C247.837 217.188 247.517 218.178 247.986 218.923C248.447 219.674 249.437 220.091 250.39 220.359C252.347 220.88 254.446 220.917 256.501 220.865L256.531 221.424C256.657 221.424 245.44 222.079 245.849 222.026C242.604 223.746 245.254 226.023 247.554 226.902L247.755 226.984L247.688 227.214C247.279 228.614 248.589 230.14 249.988 230.527C254.61 231.859 259.448 232.499 264.197 233.258L264.13 233.951L255.027 233.653L255.414 233.437C254.789 234.643 254.193 236.265 254.67 237.568C254.804 237.903 254.915 238.044 255.221 238.238C256.166 238.826 257.282 239.168 258.362 239.511C261.346 240.396 264.435 241.051 267.494 241.632L267.844 241.699L267.956 242.041C268.38 243.344 270.665 250.422 271.045 251.606L271.201 252.082L271.276 252.32L271.298 252.38V252.41C271.298 252.41 271.298 252.387 271.298 252.373C271.276 252.328 271.216 252.239 271.157 252.194C271.008 252.097 270.948 252.12 270.956 252.112C271.09 252.067 271.253 252.03 271.41 251.941C285.247 242.6 299.27 233.176 311.841 222.145C313.74 220.426 315.585 218.655 317.245 216.742C318.406 215.35 319.62 213.876 320.089 212.164C320.565 209.164 318.868 206.299 317.424 203.619C313.472 197.01 308.373 191.167 303.356 185.324C297.513 178.498 288.633 169.172 282.567 162.383L282.679 162.279C293.092 173.146 304.979 184.631 314.156 196.496C317.223 200.709 320.684 205.033 321.622 210.318C322.396 215.045 315.958 220.27 312.876 223.299C300.223 234.539 285.917 243.984 271.998 253.169C271.35 253.519 270.248 253.735 269.988 252.722L269.914 252.484L269.765 252.008C269.422 250.854 267.204 243.738 266.802 242.406L267.264 242.815C264.152 242.19 261.071 241.498 258.027 240.515C256.672 240.009 255.161 239.645 254.104 238.558C252.943 236.786 253.777 234.658 254.655 232.998L254.781 232.774L255.042 232.789L264.138 233.251L264.071 233.943C260.877 233.415 257.707 232.827 254.536 232.179C252.593 231.68 250.405 231.517 248.656 230.437C247.614 229.671 246.802 228.39 247.219 227.028L247.353 227.341C245.671 226.619 243.081 225.123 244.123 222.934C244.48 222.294 245.06 221.811 245.73 221.557L256.486 220.843L256.516 221.401C253.896 221.453 251.127 221.52 248.685 220.396C246.802 219.518 246.638 217.59 247.658 215.945L247.748 215.774L247.948 215.752C250.643 215.432 253.337 215.171 256.069 215.059C257.744 215.104 259.828 214.747 261.398 215.662C262.225 216.451 262.716 217.315 263.334 218.208C266.296 222.771 268.916 227.497 271.566 232.231L271.224 231.933L271.35 231.978L270.561 232.246C273.174 227.951 275.831 223.679 278.488 219.421L286.46 206.619L286.609 207.385C281.473 203.537 276.397 199.622 271.283 195.737C266.839 192.32 260.505 187.49 256.024 183.999L255.98 183.969V183.924L255.727 181.848L255.876 181.825V181.863Z" fill="black"/>
<path d="M310.002 206.834C310.002 206.834 309.816 206.506 309.347 206.03C308.886 205.553 308.149 204.921 307.151 204.266C305.186 202.941 301.986 201.616 298.286 201.653C294.587 201.698 291.416 203.097 289.481 204.459C288.499 205.137 287.777 205.792 287.323 206.275C286.869 206.759 286.653 207.057 286.682 207.094C286.772 207.183 287.777 206.112 289.756 204.898C291.707 203.685 294.766 202.427 298.294 202.383C301.822 202.345 304.904 203.536 306.883 204.705C308.886 205.881 309.913 206.93 310.002 206.834Z" fill="black"/>
<path d="M271.594 240.389C271.668 240.367 271.49 239.243 270.797 237.508C270.418 236.652 269.956 235.64 268.989 234.725C268.401 234.285 267.783 234.107 267.135 233.913C266.488 233.727 265.818 233.571 265.126 233.444C262.357 232.931 259.819 232.767 257.973 232.774C256.127 232.752 254.973 233.132 255.025 233.243C255.062 233.31 256.134 233.139 257.958 233.288C259.766 233.407 262.275 233.653 264.992 234.159C265.669 234.285 266.324 234.427 266.942 234.598C267.545 234.762 268.177 234.963 268.564 235.246C269.376 235.968 269.927 236.957 270.336 237.732C271.125 239.347 271.49 240.433 271.601 240.396" fill="black"/>
<path d="M263.694 226.059C263.732 225.881 260.055 225.196 255.492 225.508C250.922 225.799 247.379 226.967 247.438 227.146C247.49 227.354 251.063 226.521 255.544 226.238C260.025 225.925 263.672 226.282 263.694 226.067" fill="black"/>
<path d="M266.963 191.768L287.075 166.618C283.726 160.909 264.857 142.032 259.833 140.03C250.283 136.212 240.45 134.351 234.66 133.986C231.481 154.247 241.902 170.369 252.062 180.432C259.282 187.585 266.956 191.776 266.956 191.776" fill="#242C4F"/>
<g style="mix-blend-mode:multiply" opacity="0.38">
<mask id="mask3_5018_9135" style="mask-type:luminance" maskUnits="userSpaceOnUse" x="162" y="193" width="91" height="19">
<path d="M252.398 193.293H162.297V211.053H252.398V193.293Z" fill="white"/>
</mask>
<g mask="url(#mask3_5018_9135)">
<g style="mix-blend-mode:multiply" opacity="0.54">
<mask id="mask4_5018_9135" style="mask-type:luminance" maskUnits="userSpaceOnUse" x="208" y="193" width="45" height="19">
<path d="M252.392 193.291H208.961V211.043H252.392V193.291Z" fill="white"/>
</mask>
<g mask="url(#mask4_5018_9135)">
<path d="M208.969 193.299C208.969 193.299 208.969 193.493 209.021 193.858C209.095 194.215 209.147 194.766 209.356 195.436C209.706 196.79 210.457 198.718 211.834 200.824C213.204 202.938 215.296 205.186 218.102 207.01C220.885 208.848 224.428 210.21 228.299 210.486C232.169 210.709 235.854 209.89 238.906 208.558C241.98 207.241 244.451 205.477 246.304 203.787C248.165 202.097 249.46 200.519 250.257 199.366C250.673 198.807 250.934 198.324 251.127 198.011C251.314 197.698 251.403 197.52 251.38 197.512C251.247 197.401 249.713 200.162 245.962 203.4C244.094 205.008 241.645 206.69 238.638 207.94C235.653 209.206 232.08 209.972 228.344 209.764C224.614 209.496 221.183 208.201 218.466 206.444C215.72 204.702 213.658 202.559 212.266 200.527C209.438 196.448 209.162 193.21 208.976 193.284" fill="#F9BC73"/>
<path d="M208.968 193.3C210.137 202.575 219.24 209.646 228.299 209.988C236.791 210.249 244.971 205.373 249.668 198.444C249.854 198.146 250.316 197.446 250.442 197.208C250.42 197.275 250.405 197.335 250.39 197.417C250.442 197.536 250.182 197.729 250.837 198.362L250.762 198.31C251.045 198.593 251.7 198.578 251.961 198.325C251.998 198.302 252.057 198.235 251.998 198.295C251.775 198.563 251.328 199.166 251.105 199.449C245.783 206.334 237.186 211.06 228.343 210.264C219.091 209.378 211.112 202.232 208.968 193.293M208.968 193.3C209.184 193.687 209.333 194.462 209.489 194.901C211.358 200.848 216.121 205.701 221.905 207.919C232.318 212.072 243.9 206.17 250.04 197.558C250.234 197.305 250.45 196.97 250.71 196.754C250.993 196.471 251.67 196.434 252.005 196.739L251.931 196.687C252.593 197.32 252.333 197.528 252.378 197.655C252.311 198.086 252.028 198.466 251.804 198.816C244.078 211.134 226.735 215.66 215.548 205.277C212.147 202.173 209.452 197.938 208.961 193.3" fill="#F9BC73"/>
</g>
</g>
<g style="mix-blend-mode:multiply" opacity="0.54">
<mask id="mask5_5018_9135" style="mask-type:luminance" maskUnits="userSpaceOnUse" x="162" y="193" width="44" height="19">
<path d="M205.728 193.309H162.297V211.061H205.728V193.309Z" fill="white"/>
</mask>
<g mask="url(#mask5_5018_9135)">
<path d="M162.305 193.309C162.305 193.309 162.305 193.503 162.357 193.867C162.431 194.225 162.483 194.775 162.692 195.445C163.042 196.8 163.793 198.728 165.17 200.834C166.54 202.948 168.631 205.196 171.438 207.02C174.221 208.858 177.764 210.22 181.635 210.496C185.505 210.719 189.19 209.9 192.242 208.568C195.316 207.25 197.787 205.486 199.64 203.797C201.501 202.107 202.796 200.529 203.592 199.375C204.009 198.817 204.27 198.333 204.463 198.021C204.649 197.708 204.739 197.529 204.716 197.522C204.582 197.41 203.049 200.172 199.298 203.41C197.429 205.017 194.981 206.7 191.974 207.95C188.989 209.215 185.416 209.982 181.68 209.774C177.95 209.506 174.519 208.211 171.802 206.454C169.056 204.712 166.994 202.569 165.602 200.537C162.774 196.458 162.498 193.22 162.305 193.294" fill="#F9BC73"/>
<path d="M162.304 193.31C163.473 202.584 172.576 209.655 181.634 209.998C190.127 210.258 198.307 205.383 203.004 198.453C203.19 198.155 203.652 197.456 203.778 197.218C203.756 197.285 203.741 197.344 203.726 197.426C203.778 197.545 203.518 197.739 204.173 198.371L204.098 198.312C204.381 198.595 205.036 198.58 205.297 198.327C205.334 198.304 205.393 198.237 205.334 198.297C205.111 198.565 204.664 199.168 204.441 199.451C199.119 206.336 190.522 211.062 181.679 210.266C172.427 209.38 164.448 202.234 162.304 193.295M162.304 193.31C162.52 193.697 162.669 194.471 162.825 194.91C164.694 200.857 169.457 205.71 175.241 207.928C185.654 212.082 197.236 206.179 203.376 197.567C203.57 197.314 203.786 196.979 204.046 196.764C204.329 196.481 205.006 196.443 205.341 196.749L205.267 196.697C205.922 197.329 205.669 197.538 205.713 197.664C205.646 198.096 205.364 198.475 205.14 198.825C197.414 211.144 180.071 215.669 168.884 205.286C165.483 202.182 162.788 197.947 162.297 193.31" fill="#F9BC73"/>
</g>
</g>
</g>
</g>
<path d="M178.995 136.533C183.99 145.152 192.445 157.612 202.613 160.076C210.793 161.274 218.653 156.503 223.915 150.549C228.292 145.532 231.895 139.6 234.031 133.325L234.634 133.228C237.388 132.789 240.142 133.243 242.836 133.742C248.828 134.933 254.671 136.883 260.172 139.533C266.751 143.083 271.969 148.68 277.053 154.01C280.64 157.999 284.258 162.041 287.071 166.626C284.102 162.153 280.358 158.253 276.643 154.404C272.87 150.608 268.969 146.902 264.697 143.723C262.62 142.145 260.276 140.768 257.819 139.868C252.885 137.91 247.734 136.444 242.501 135.61C239.881 135.208 237.276 135.037 234.686 134.762L235.378 134.263C229.766 147.549 218.526 163.031 202.367 161.408C191.865 159.324 182.278 146.477 176.539 137.984C175.534 136.325 178.028 134.829 178.995 136.555" fill="black"/>
<g style="mix-blend-mode:multiply">
<mask id="mask6_5018_9135" style="mask-type:luminance" maskUnits="userSpaceOnUse" x="253" y="172" width="3" height="44">
<path d="M255.922 172.15H253.727V215.306H255.922V172.15Z" fill="white"/>
</mask>
<g mask="url(#mask6_5018_9135)">
<path d="M255.828 172.15C256.193 186.561 255.53 200.993 253.826 215.306C253.454 200.896 254.131 186.464 255.828 172.15Z" fill="black"/>
</g>
</g>
<path d="M260.275 92.8843C262.188 92.6163 263.096 89.7805 261.696 88.4556C263.133 87.8005 262.895 85.5899 261.897 84.3692C260.9 83.1485 259.404 82.3297 258.66 80.9378C260.379 81.5184 262.471 80.2233 262.724 78.422C263.877 78.6081 265.113 77.9308 265.574 76.8515C266.036 75.7797 265.671 74.4101 264.741 73.703C266.222 73.6807 266.274 71.2393 265.105 70.3312C263.929 69.4231 262.307 69.3636 261.012 68.6416C258.801 65.7461 255.652 63.5801 252.154 62.553C254.275 61.1983 256.397 59.8436 258.511 58.4964C259.017 58.1763 259.538 57.8265 259.821 57.298C260.431 56.1369 259.59 54.745 258.66 53.822C256.687 51.8719 254.119 50.5247 251.395 50.0036C250.517 49.8399 249.378 49.892 249.035 50.7107C247.227 49.691 245.046 49.624 242.969 49.5868C241.801 49.5645 240.528 49.5868 239.635 50.3386C240.156 49.2965 241.131 48.582 241.979 47.8004C242.835 47.0114 243.632 45.9992 243.602 44.838C243.572 43.6769 242.247 42.5827 241.25 43.1633C242.359 42.739 242.344 41.0047 241.48 40.1785C240.625 39.3523 239.344 39.2035 238.161 39.0918C237.335 39.0099 236.278 39.0769 235.995 39.851C235.749 37.9753 232.616 37.4915 231.819 39.2034C230.785 38.0274 228.693 38.0423 227.673 39.2332C225.939 37.9753 223.118 38.8015 222.329 40.7889C223.527 39.0695 224.726 37.3575 225.924 35.6381C226.601 34.663 226.847 32.7725 225.656 32.8097C227.346 32.9362 228.477 30.7032 227.763 29.1699C227.048 27.6366 225.172 26.9444 223.483 27.0263C222.939 27.6962 222.403 28.3661 221.86 29.0434C220.788 28.1725 219.151 28.0683 217.975 28.7978C216.799 29.5272 216.173 31.0456 216.486 32.3929C215.861 31.6188 214.514 31.9165 213.911 32.7129C213.315 33.5093 213.256 34.5737 213.218 35.5711C211.678 34.075 208.544 35.4595 208.618 37.6106C207.189 36.7397 205.515 36.2634 203.84 36.2559C204.681 35.1022 204.644 33.3903 203.758 32.2738C202.872 31.1573 201.212 30.733 199.902 31.2838C199.88 29.3709 197.744 27.7929 195.913 28.3512C195.533 26.3564 193.069 24.7188 191.41 25.8949C189.698 27.1156 190.382 29.7654 191.238 31.6857C192.169 33.7699 193.099 35.8465 194.03 37.9307C190.665 35.8019 187.308 33.6731 183.944 31.5518C183.631 31.3508 183.289 31.1498 182.917 31.1647C182.403 31.1945 182.016 31.6262 181.547 31.8197C180.892 32.0877 180.133 31.8793 179.441 32.0356C177.55 32.4673 177.379 35.2957 178.54 36.8514C179.701 38.407 181.592 39.2481 182.932 40.6474C181.354 40.8261 179.783 41.0122 178.205 41.1908C177.803 38.5857 174.796 36.7174 172.288 37.5213C171.774 35.7572 169.489 35.3702 167.651 35.3106C166.006 35.2585 164.19 35.266 162.939 36.3452C161.346 37.7222 161.436 40.3497 162.567 42.1286C163.698 43.9076 165.582 45.039 167.398 46.1033C166.988 47.4729 165.142 47.7707 163.743 47.4655C162.344 47.1603 160.915 46.4978 159.538 46.8998C157.669 47.4506 156.731 49.7506 154.856 50.279C154.29 50.4428 153.665 50.4279 153.151 50.7107C152.422 51.1201 152.117 51.9984 151.871 52.7949C151.573 53.7848 151.268 54.7822 150.97 55.7722C150.821 56.2634 150.673 56.777 150.732 57.2831C150.948 58.9504 153.218 59.4715 154.819 58.9504C156.419 58.4294 157.841 57.298 159.515 57.1715C157.245 58.1094 154.848 59.144 153.471 61.176C152.094 63.208 152.362 66.5351 154.603 67.5251C156.873 68.5299 159.314 66.6765 161.138 64.9944C162.961 63.3122 165.544 61.5705 167.718 62.7614" fill="black"/>
<path d="M159.563 65.1078C159.615 65.1376 159.496 64.5124 160.218 63.9467C160.568 63.6787 161.089 63.4703 161.714 63.5224C162.347 63.5596 163.024 63.835 163.776 64.17L164.014 64.2742L163.999 64.0137C163.954 63.2247 164.729 62.4431 165.674 62.2794C166.641 62.1082 167.698 62.525 168.755 63.0014L170.088 63.6117L168.979 62.659C168.376 62.138 168.577 60.9768 169.261 60.426C169.976 59.8529 171.048 59.8082 172.045 59.972L172.179 59.9943L173.035 60.1357L172.35 59.5998C171.509 58.9448 171.837 57.4041 172.73 56.9649C173.646 56.4737 174.829 56.8012 175.529 57.4413L176.377 58.2154L175.849 57.1957C175.164 55.8782 175.432 54.3225 176.139 53.34C176.846 52.3203 177.97 51.9184 178.856 51.8737C179.764 51.8142 180.471 52.0672 180.91 52.2905C181.349 52.5138 181.55 52.6999 181.573 52.6776C181.573 52.6701 181.535 52.618 181.439 52.5287C181.342 52.432 181.193 52.3129 180.97 52.1789C180.538 51.9184 179.809 51.6058 178.848 51.6281C177.911 51.643 176.668 52.0375 175.864 53.1465C175.075 54.2109 174.74 55.8931 175.492 57.3892L175.812 57.1435C175.008 56.4067 173.683 55.9898 172.529 56.5853C171.956 56.883 171.569 57.4859 171.465 58.1186C171.346 58.7438 171.517 59.5105 172.09 59.9497L172.261 59.5552L172.12 59.5328C171.07 59.3616 169.872 59.3765 168.986 60.0836C168.554 60.4483 168.294 60.9545 168.219 61.483C168.138 62.004 168.294 62.6069 168.711 62.9642L168.934 62.6144C167.87 62.1454 166.738 61.6914 165.614 61.8998C164.535 62.1082 163.627 63.0163 163.694 64.0211L163.917 63.8648C163.165 63.5448 162.429 63.2768 161.744 63.2619C161.059 63.2247 160.471 63.4852 160.121 63.7978C159.756 64.1104 159.6 64.4752 159.563 64.7208C159.526 64.9664 159.563 65.1004 159.578 65.093" fill="white"/>
<path d="M173.539 43.543C173.539 43.543 173.717 43.6844 174.104 43.7961C174.491 43.9152 175.087 43.9821 175.809 44.0119C176.523 44.0566 177.439 44.0715 178.25 44.5627C178.652 44.8083 178.965 45.1879 179.032 45.6941C179.121 46.1779 178.943 46.7585 178.488 46.952L178.771 47.1902C178.905 46.6319 179.627 46.3268 180.29 45.9918C180.96 45.6643 181.667 45.3591 182.419 45.2549C183.178 45.1358 183.93 45.2921 184.495 45.7313C185.061 46.1481 185.411 46.8106 185.284 47.4209L185.18 47.9568L185.619 47.6219C186.535 46.9297 187.629 46.6394 188.582 46.6394C189.549 46.6245 190.39 46.8701 191.023 47.1753C192.311 47.8005 192.772 48.5821 192.824 48.5225C192.839 48.5151 192.735 48.3216 192.482 48.0164C192.221 47.7112 191.79 47.3093 191.135 46.952C190.48 46.6022 189.609 46.3044 188.582 46.297C187.562 46.2672 186.378 46.5501 185.359 47.2944L185.686 47.5028C185.857 46.6989 185.411 45.8578 184.756 45.3815C184.108 44.8604 183.185 44.6744 182.352 44.8158C181.518 44.9349 180.774 45.2698 180.089 45.6048C179.754 45.776 179.411 45.9323 179.084 46.1556C178.764 46.364 178.451 46.684 178.354 47.1083L178.265 47.5177L178.645 47.339C179.337 47.0115 179.516 46.2151 179.404 45.6345C179.315 45.0168 178.883 44.518 178.421 44.265C177.476 43.7365 176.523 43.7737 175.809 43.7588C175.079 43.7588 174.506 43.7365 174.127 43.6695C173.74 43.6025 173.539 43.5281 173.531 43.5504" fill="white"/>
<path d="M196.024 36.6453C196.024 36.7048 196.478 36.6081 197.17 36.8909C197.505 37.0398 197.899 37.278 198.227 37.6725C198.562 38.0521 198.815 38.5954 198.822 39.2058V39.444L199.061 39.3844C199.649 39.2281 200.348 39.7194 200.609 40.4042C200.869 41.1113 200.72 41.9747 200.52 42.8455L200.326 43.7015L200.914 43.0316C200.914 43.0316 200.974 42.9646 201.003 42.9274C201.398 42.5106 202.008 42.3468 202.566 42.4064C203.132 42.4585 203.623 42.7413 203.966 43.1358C204.658 43.9471 204.792 45.0041 204.665 45.8079C204.546 46.6267 204.241 47.2594 204.033 47.6837C203.817 48.1079 203.683 48.3387 203.713 48.3536C203.735 48.3684 203.921 48.1749 204.182 47.7655C204.442 47.3562 204.799 46.7309 204.971 45.8601C205.142 45.0041 205.06 43.8281 204.271 42.8679C203.534 41.9002 201.763 41.5281 200.676 42.6148C200.639 42.6594 200.594 42.7116 200.557 42.7488L200.951 42.9349C201.145 42.064 201.331 41.1113 201.003 40.2404C200.676 39.4068 199.805 38.7815 198.964 39.0048L199.195 39.1834C199.165 38.4614 198.837 37.8586 198.45 37.4492C198.063 37.0324 197.617 36.7942 197.244 36.6676C196.865 36.5411 196.545 36.5336 196.336 36.5485C196.128 36.5709 196.016 36.6081 196.024 36.623" fill="white"/>
<path d="M250.278 84.6085C250.278 84.6085 250.375 84.5266 250.516 84.3405C250.658 84.1545 250.874 83.879 251.097 83.492C251.313 83.0975 251.573 82.5765 251.566 81.8991C251.566 81.5642 251.484 81.2069 251.305 80.8645C251.127 80.5296 250.821 80.1946 250.39 80.0532L250.464 80.2988C250.903 79.748 251.067 78.8846 250.702 78.118C250.345 77.3513 249.43 76.8303 248.484 76.9791L248.663 77.3066C249.139 76.7633 249.124 75.9371 248.737 75.3342C248.335 74.7164 247.621 74.3963 246.914 74.3219C246.549 74.2772 246.199 74.3219 245.924 74.2474C245.648 74.1879 245.477 73.9795 245.351 73.6743C245.217 73.384 245.127 72.997 244.852 72.6769C244.599 72.3569 244.227 72.1261 243.847 72.0294C243.028 71.7986 242.232 71.8582 241.495 71.8061C240.758 71.7688 240.044 71.6051 239.627 71.1138C239.418 70.8682 239.292 70.5407 239.083 70.2207C238.875 69.8932 238.57 69.6326 238.235 69.4689C237.572 69.1265 236.783 69.1191 236.158 69.4317L236.396 69.722C236.888 69.0521 236.687 68.1961 236.3 67.6676C235.898 67.0945 235.265 66.8414 234.707 66.7298C233.561 66.5362 232.578 66.7298 231.789 66.8786C231 67.0498 230.405 67.2731 230.01 67.4443C229.616 67.6155 229.415 67.7346 229.422 67.7569C229.444 67.809 230.271 67.3922 231.834 67.1019C232.608 66.9828 233.59 66.834 234.64 67.0349C235.153 67.1466 235.697 67.3922 236.009 67.8686C236.329 68.3226 236.456 69.0148 236.091 69.4838L235.57 70.1462L236.329 69.7815C236.836 69.5359 237.498 69.5508 238.041 69.8336C238.317 69.9825 238.548 70.1834 238.719 70.4514C238.897 70.7194 239.031 71.0692 239.284 71.3818C239.552 71.687 239.91 71.9177 240.297 72.0442C240.676 72.1633 241.071 72.208 241.458 72.2378C242.224 72.2899 243.013 72.2452 243.706 72.4536C244.033 72.543 244.301 72.7141 244.495 72.9523C244.703 73.1756 244.785 73.5106 244.941 73.853C245.068 74.1879 245.388 74.5898 245.812 74.6717C246.214 74.761 246.556 74.7089 246.862 74.7536C247.479 74.8206 248.075 75.096 248.38 75.5649C248.685 76.0264 248.685 76.6814 248.358 77.0461L247.978 77.4778L248.544 77.3736C249.296 77.2396 250.077 77.6639 250.375 78.2817C250.687 78.8995 250.568 79.6513 250.211 80.1202L250.077 80.2988L250.286 80.3658C250.985 80.5966 251.283 81.3483 251.313 81.9289C251.342 82.5318 251.127 83.0454 250.941 83.4325C250.531 84.214 250.233 84.6085 250.271 84.6308" fill="white"/>
<path d="M214.375 70.0941C214.397 70.1388 214.918 70.0346 215.722 69.6624C216.117 69.4689 216.586 69.1935 216.988 68.7171C217.367 68.2482 217.672 67.5783 217.553 66.8266C217.531 66.6554 217.471 66.499 217.404 66.3502L217.293 66.6479C217.925 66.3725 218.342 65.8143 218.484 65.2635C218.64 64.7052 218.506 64.1618 218.305 63.8046C217.873 63.0677 217.308 62.956 217.308 63.0007C217.263 63.0602 217.739 63.2687 218.037 63.9386C218.179 64.2661 218.253 64.7052 218.104 65.1518C217.963 65.591 217.613 66.0301 217.122 66.2385L216.921 66.3204L217.01 66.5363C217.055 66.6479 217.099 66.767 217.122 66.8935C217.218 67.4667 216.98 68.0398 216.668 68.4566C216.347 68.8734 215.931 69.1637 215.581 69.3796C214.851 69.8039 214.353 70.0197 214.382 70.0867" fill="white"/>
<path d="M250.122 88.938C251.797 87.7173 254.61 89.3921 254.335 91.4538C256.374 92.0568 258.012 93.8431 258.436 95.9272C258.86 98.0113 258.049 100.296 256.404 101.644C255.094 102.723 252.519 102.73 252.266 101.048C251.722 102.44 250.442 103.527 248.983 103.825C250.36 105.894 249.4 109.109 247.115 110.084C249.735 111.938 249.169 116.716 246.192 117.907C246.944 119.649 246.043 121.919 244.301 122.671C242.56 123.423 240.289 122.515 239.545 120.773C238.965 122.12 238.317 123.542 237.089 124.353C235.861 125.164 233.881 124.993 233.285 123.646C232.578 126.549 228.7 128.119 226.17 126.534C226.326 128.142 225.083 129.764 223.483 130.025C221.89 130.285 220.193 129.139 219.835 127.561C217.074 127.732 214.312 127.911 211.551 128.082C209.72 128.201 207.874 128.313 206.05 128.082C203.721 127.792 201.465 126.943 199.53 125.618C198.905 125.194 198.28 124.703 197.535 124.591C196.679 124.465 189.348 119.351 189.348 120.222C189.348 127.249 185.641 125.961 182.083 123.08C181.525 122.626 180.982 122.12 180.304 121.867C179.523 121.577 178.667 121.659 177.833 121.703C175.801 121.815 173.747 121.674 171.752 121.272C170.04 120.929 168.209 120.289 167.301 118.793C166.393 117.297 167.152 114.833 168.901 114.729C168.953 113.598 168.618 112.377 167.747 111.647C166.877 110.918 165.41 110.873 164.681 111.744C163.951 112.615 164.487 114.267 165.619 114.334C163.84 115.764 160.795 114.163 160.587 111.893C160.371 109.623 162.5 107.569 164.77 107.39C164.197 105.797 164.026 104.063 164.279 102.388C163.229 103.944 160.847 104.398 159.307 103.326C158.458 104.844 157.111 106.177 155.414 106.579C153.717 106.973 151.7 106.206 151.045 104.591C150.39 102.976 151.648 100.795 153.389 100.877C152.027 99.0237 153.65 95.89 155.95 95.9347C155.429 93.7389 156.62 91.2603 158.667 90.3076C157.386 91.238 155.287 90.5979 154.751 89.1166C153.814 90.8584 151.223 90.6351 149.452 89.7642C148.06 89.0794 146.705 88.0597 146.951 86.0351C147.063 85.0899 147.546 84.2115 148.246 83.5714C149.906 82.0456 152.184 81.7925 154.35 81.5841C155.459 78.9045 156.114 76.0388 156.292 73.1434C153.873 73.3965 151.283 71.7738 150.807 69.392L162.894 62.0976C162.894 62.0976 190.702 58.1824 191.692 58.1973C192.69 58.2122 250.286 88.8487 250.286 88.8487C251.611 90.2704 254.238 89.6674 255.243 88.015C256.248 86.3626 255.883 84.1446 254.849 82.4996C253.814 80.8546 252.221 79.6637 250.658 78.5025C252.519 78.3983 254.499 78.2495 255.891 76.9246C256.761 76.0909 257.178 74.8405 256.724 73.724C256.077 72.1162 254.223 72.2055 253.055 71.2751C252.37 70.7318 251.983 69.9056 251.559 69.1389" fill="black"/>
<path d="M231.977 84.08C231.977 105.866 217.85 120.716 199.368 120.723C180.879 120.723 170.414 106.707 170.414 84.9285C170.414 63.1495 185.673 46.2012 204.162 46.2012C222.651 46.2012 231.977 62.301 231.985 84.0874" fill="white"/>
<path d="M178.452 76.9567C178.884 77.4182 180.357 76.7631 182.173 76.5622C183.99 76.3017 185.575 76.5845 185.88 76.0263C186.014 75.7583 185.724 75.2819 185.002 74.8726C184.295 74.4632 183.141 74.1803 181.891 74.3366C180.64 74.493 179.598 75.0512 179.01 75.6169C178.415 76.19 178.251 76.7259 178.444 76.9567" fill="black"/>
<path d="M196.6 95.3788C196.153 95.2746 195.714 95.0811 195.282 95.1927C194.813 95.2672 194.538 95.6468 194.136 95.8701C192.037 97.061 188.807 96.2869 188.204 93.7041C187.846 92.2527 188.665 90.8161 189.387 89.655C190.839 87.3475 191.509 84.6754 191.717 81.9512C191.814 83.7822 191.59 85.643 191.01 87.4071C190.533 89.1488 189.164 90.6003 188.769 92.342C188.077 95.2374 191.687 96.7856 194.002 95.617C194.411 95.4309 194.784 95.0588 195.26 95.0364C195.759 94.962 196.183 95.2225 196.6 95.3788Z" fill="black"/>
<path d="M233.407 71.1413C223.879 38.9938 186.112 38.2793 174.002 69.02C168.591 83.5641 169.06 105.738 182.763 115.555C188.293 119.656 195.357 120.356 202.033 120.55C205.42 120.646 208.881 120.505 212.074 119.277L212.119 119.381C208.955 120.766 205.442 121.115 202.018 121.13C198.58 121.071 195.111 121.078 191.724 120.408C172.431 116.731 167.534 95.5775 170.533 78.6888C172.215 68.5138 177.53 58.8748 185.628 52.4364C204.668 37.2744 228.71 48.6105 233.392 71.1338" fill="black"/>
<path d="M200.565 74.894C200.773 75.4969 202.984 75.2438 205.574 75.5862C208.172 75.8839 210.256 76.6655 210.606 76.1296C210.762 75.8765 210.405 75.3034 209.564 74.7079C208.73 74.1124 207.405 73.5467 205.85 73.3532C204.294 73.1597 202.865 73.3904 201.912 73.7626C200.952 74.1348 200.468 74.5962 200.557 74.8865" fill="black"/>
<path d="M220.448 101.654H194.352V142.302H220.448V101.654Z" fill="white"/>
<path d="M189.336 119.22C192.016 120.061 197.821 120.388 202.384 120.224C211.547 119.889 216.124 116.242 218.945 114.195C218.945 114.195 209.41 125.74 189.343 125.747V119.22H189.336Z" fill="black"/>
<path d="M221.732 83.8417C221.144 83.1867 220.399 82.2489 219.707 81.0133C219.67 80.9463 219.253 80.0233 218.799 79.0632C217.839 77.0311 217.482 74.5823 217.794 72.2228C216.559 70.4141 216.499 67.861 216.499 65.4866C216.499 64.0129 216.499 62.5317 216.499 61.0579C216.268 60.6857 216.038 60.3136 215.807 59.9488C215.732 61.0132 214.854 61.832 213.961 62.0255C213.068 62.219 212.175 61.9436 211.319 61.6682C210.47 61.3928 209.621 61.1174 208.773 60.8495C208.215 60.9388 207.649 61.0356 207.091 61.1249C207.403 62.5391 206.741 64.0203 206.101 65.3229C205.654 66.2235 205.141 67.1911 204.307 67.5112C203.473 67.8313 202.394 66.9306 202.744 65.9853C202.089 66.5734 201.092 66.1863 200.667 65.3973C200.243 64.6083 200.258 63.5812 200.399 62.6359C200.742 60.3359 201.769 58.155 203.25 56.5547C201.568 57.7903 199.886 59.0259 198.211 60.2615C197.839 60.5294 197.444 60.8123 197.02 60.8048C197.05 61.5864 196.231 62.1372 195.583 61.9734C194.943 61.8171 194.467 61.2068 194.043 60.6336C193.075 59.3385 192.145 57.2246 193.284 56.0411C192.777 55.8774 192.621 54.9767 193.023 54.5525C191.155 55.6541 189.279 56.7557 187.411 57.8498C187.962 57.6117 188.43 58.4825 188.237 59.1301C188.043 59.7776 187.493 60.187 186.987 60.5294C187.344 61.2737 187.455 62.1893 187.284 63.0378C188.311 62.3158 189.517 64.0278 189.056 65.3229C188.602 66.618 187.247 67.1763 186.086 67.1242C185.118 67.0795 184.009 66.4915 183.972 65.3527C182.818 65.4569 181.91 63.7747 182.468 62.5466C181.59 62.9932 181.047 61.445 181.129 60.3285C181.285 58.2816 181.843 56.257 182.744 54.4557C182.744 54.746 182.394 54.947 182.208 54.7683C182.022 54.5897 182.126 54.1506 182.372 54.0984C181.121 56.3389 179.871 58.5867 178.62 60.8271C177.63 62.6061 176.611 64.452 176.328 66.5213C176.209 67.3624 175.978 68.5086 175.256 68.5012C175.062 68.5012 174.884 68.397 174.713 68.2853C172.792 67.0423 171.46 64.787 170.716 62.3381C170.462 61.5194 170.276 60.6485 170.299 59.7628C170.358 57.9317 171.318 56.2793 171.668 54.478C171.825 53.6816 171.854 52.8629 172.115 52.1036C172.532 50.8829 173.462 50.0046 174.348 49.2008C177.504 46.3277 180.831 43.3578 184.701 42.5093C187.068 41.9883 189.487 42.3083 191.854 41.8171C193.321 41.5119 194.735 40.9015 196.171 40.4326C202.096 38.4825 208.334 38.8918 214.281 40.1349C217.608 40.8271 220.92 41.7947 223.875 43.6481C227.113 45.6876 229.8 48.7244 232.286 51.8952C235.993 56.6291 239.409 61.8245 241.404 67.8759C242.938 72.5205 243.585 77.8052 242.253 82.6731C240.913 87.541 237.273 91.8209 233.001 92.342C232.644 91.8879 232.13 91.1808 231.594 90.2653C228.818 85.5016 229.689 82.0107 227.977 81.0952C227.076 80.6114 225.349 80.79 221.747 83.8641" fill="black"/>
<path d="M231.854 78.3557C232.27 78.8768 232.218 79.7104 231.928 80.425L231.772 80.8046L232.174 80.7152C233.052 80.5292 234.049 80.9907 234.615 81.7796C234.965 82.2635 235.136 82.8589 235.054 83.4172C235.032 83.566 235.002 83.7372 235.024 83.9456C235.047 84.1541 235.188 84.3773 235.397 84.4741C235.821 84.6527 236.134 84.5188 236.416 84.5039C236.707 84.4667 236.915 84.5039 237.079 84.6527C237.243 84.809 237.354 85.0472 237.377 85.278C237.421 85.7618 237.176 86.253 236.93 86.7071L236.387 87.7343L237.235 86.9527C237.57 86.6401 238.255 87.042 238.292 87.5109C238.381 88.0096 238.136 88.5158 237.868 88.9326C237.674 89.2303 237.458 89.4909 237.243 89.729C237.347 89.7663 237.451 89.796 237.548 89.8407C237.22 89.6918 237.421 89.6993 237.667 89.7216C237.831 89.5355 237.994 89.3345 238.143 89.1112C238.433 88.6795 238.746 88.1213 238.649 87.444C238.605 87.109 238.374 86.7815 238.069 86.6103C237.92 86.5136 237.712 86.454 237.503 86.4614C237.674 86.1042 237.823 85.7097 237.786 85.2408C237.756 84.9133 237.622 84.5932 237.362 84.3401C237.101 84.0722 236.662 84.0201 236.364 84.0722C236.059 84.1019 235.739 84.1615 235.59 84.0796C235.434 84.0126 235.426 83.8042 235.486 83.4767C235.59 82.7919 235.374 82.0774 234.965 81.5117C234.377 80.7004 233.409 80.1793 232.434 80.2389C232.643 79.5243 232.65 78.7056 232.166 78.0878C231.869 77.7379 231.437 77.5667 231.013 77.5593C230.797 77.5519 230.573 77.604 230.372 77.7156C230.454 76.6959 230.268 75.7431 229.948 74.969C229.583 74.0312 229.04 73.3315 228.541 72.8254C228.035 72.3193 227.551 72.0215 227.216 71.8429C226.874 71.6791 226.681 71.6121 226.673 71.627C226.636 71.6866 227.432 71.962 228.378 72.9817C228.839 73.4878 229.338 74.1801 229.658 75.0807C229.993 75.9665 230.149 77.068 229.926 78.2069L229.621 79.7997L230.291 78.3334C230.521 77.8273 231.452 77.857 231.846 78.3557" fill="white"/>
<path d="M205.41 55.6022C205.484 55.5873 205.008 54.9919 205.298 53.9498C205.447 53.4586 205.834 52.8929 206.512 52.6919C207.159 52.4835 208.06 52.6473 208.581 53.2799L208.827 53.5777L208.946 53.2129C209.087 52.7812 209.295 52.3346 209.608 51.9699C209.906 51.6126 210.36 51.3223 210.806 51.3149C211.521 51.3075 212.236 52.0592 211.968 52.6175L212.377 52.7515C212.593 51.8434 213.196 51.1139 213.858 50.6971C214.528 50.2729 215.258 50.1686 215.846 50.2059C217.044 50.3026 217.624 50.8385 217.654 50.7641C217.669 50.7492 217.543 50.6078 217.26 50.4217C216.969 50.2431 216.508 50.0123 215.875 49.9305C215.25 49.8486 214.439 49.9305 213.672 50.3771C212.92 50.8162 212.228 51.6126 211.96 52.6473L212.37 52.7812C212.578 52.3346 212.414 51.7764 212.087 51.4414C211.767 51.0916 211.313 50.8683 210.814 50.8534C210.151 50.8683 209.63 51.2405 209.273 51.6647C208.916 52.0964 208.693 52.5877 208.544 53.0641L208.908 52.9896C208.224 52.2081 207.167 52.0592 206.4 52.3272C205.596 52.5952 205.172 53.3023 205.045 53.8531C204.911 54.4262 205.023 54.9026 205.142 55.1854C205.269 55.4757 205.395 55.5873 205.41 55.5799" fill="white"/>
<path d="M206.974 41.3177C206.974 41.3177 206.818 41.0721 206.475 40.6776C206.133 40.2906 205.552 39.7621 204.652 39.4271C203.766 39.0996 202.53 38.988 201.369 39.5983C200.231 40.1863 199.196 41.4517 199.077 43.0148L199.047 43.3572L198.794 43.119C198.124 42.4938 197.149 42.1216 196.144 42.1588C195.139 42.1811 194.134 42.665 193.487 43.5135C192.839 44.3471 192.564 45.4338 192.735 46.4015L192.802 46.7811L192.475 46.5801C191.552 46.0219 190.271 46.2526 189.624 46.9969C188.961 47.7487 188.902 48.8801 189.334 49.6393L189.594 50.0933L189.133 49.8477C188.15 49.3118 187.034 49.3341 186.17 49.6169C185.284 49.8775 184.629 50.3836 184.175 50.86C183.275 51.8574 183.26 52.7059 183.2 52.6687C183.185 52.6687 183.2 52.4752 183.29 52.1179C183.394 51.7681 183.602 51.2619 184.049 50.7409C184.495 50.2273 185.173 49.6765 186.096 49.3862C186.996 49.0736 188.187 49.0215 189.274 49.5872L189.073 49.7882C188.567 48.9173 188.612 47.6594 189.371 46.7811C190.13 45.9102 191.552 45.6422 192.646 46.2898L192.385 46.4685C192.192 45.3892 192.49 44.2057 193.197 43.2976C193.896 42.3672 195.028 41.8313 196.122 41.8164C197.216 41.7792 198.273 42.1886 199.01 42.8808L198.734 42.9924C198.883 41.2879 200 39.9556 201.228 39.3527C202.478 38.72 203.803 38.8689 204.711 39.241C205.642 39.6132 206.222 40.1938 206.55 40.6106C206.877 41.0423 206.959 41.3177 206.959 41.3177" fill="white"/>
<path d="M220.382 113.011C220.829 115.653 220.703 118.377 220.71 121.049C220.621 123.721 220.457 126.408 220.546 129.073C220.613 130.376 221.395 131.574 222.474 132.222C223.419 132.892 225.161 132.847 226.27 133.011C227.431 133.145 229.099 133.197 230.282 133.256C231.622 133.308 232.969 133.323 234.316 133.286C234.718 133.271 235.061 133.591 235.068 134.001C235.09 134.47 234.629 134.849 234.175 134.738C232.857 134.44 231.54 134.194 230.215 133.978C229.039 133.777 227.401 133.554 226.233 133.435L224.231 133.256C222.094 133.174 220.248 131.209 220.308 129.088C220.494 125.061 220.204 121.057 220.315 117.037C220.323 115.899 220.42 114.157 220.345 113.048V113.026C220.345 113.026 220.375 112.996 220.382 113.018" fill="black"/>
<path d="M225.453 81.5711C225.475 80.4993 234.392 78.8543 234.258 87.7937C234.125 96.5991 226.049 94.6415 226.034 94.3884C226.026 94.1353 225.453 81.5711 225.453 81.5711Z" fill="white"/>
<path d="M228.547 91.098C228.547 91.098 228.689 91.2096 228.919 91.3287C229.15 91.4478 229.545 91.5371 229.969 91.3734C230.825 91.0459 231.569 89.587 231.629 87.9941C231.658 87.1902 231.517 86.431 231.264 85.7909C231.026 85.1433 230.654 84.6893 230.222 84.5926C229.798 84.4809 229.485 84.7488 229.388 84.9945C229.277 85.2401 229.329 85.4188 229.284 85.4336C229.262 85.456 229.113 85.2848 229.18 84.9201C229.217 84.7489 229.314 84.5404 229.507 84.3767C229.701 84.2055 229.991 84.1236 230.289 84.1683C230.914 84.2278 231.465 84.8605 231.74 85.5602C232.053 86.2598 232.232 87.1233 232.194 88.0239C232.12 89.7954 231.257 91.4403 230.088 91.7902C229.515 91.939 229.046 91.7455 228.808 91.5371C228.562 91.3138 228.517 91.1203 228.547 91.1054" fill="black"/>
<path d="M239.708 65.4033C239.708 65.4033 239.805 65.3214 239.909 65.113C240.014 64.9045 240.14 64.577 240.162 64.1304C240.185 63.6913 240.095 63.1256 239.731 62.6046C239.381 62.091 238.763 61.6221 237.982 61.4955L238.108 61.637C238.086 61.0489 238.078 60.3716 237.773 59.7091C237.617 59.3742 237.364 59.0765 237.036 58.8755C236.709 58.6671 236.27 58.5629 235.86 58.6894L236.076 58.9127C236.322 58.2503 236.121 57.4762 235.659 56.9402C235.399 56.6276 235.064 56.3894 234.684 56.2555C234.312 56.114 233.865 56.1364 233.531 56.2331C233.181 56.315 232.965 56.2852 232.749 56.0247C232.533 55.7642 232.25 55.5111 231.945 55.3548C231.327 55.0125 230.635 55.0199 230.069 55.0422C229.489 55.0571 228.953 55.0645 228.462 55.0943C227.472 55.139 226.668 55.3325 226.169 55.593C225.916 55.7121 225.745 55.8461 225.626 55.9428C225.514 56.0396 225.462 56.0992 225.469 56.1066C225.492 56.1364 225.715 55.9205 226.221 55.7196C226.72 55.5037 227.494 55.3623 228.469 55.3399C228.968 55.3399 229.504 55.34 230.077 55.3325C230.65 55.3325 231.26 55.3325 231.789 55.6377C232.057 55.7865 232.28 55.9801 232.503 56.248C232.622 56.3746 232.779 56.5383 233.002 56.5904C233.218 56.6425 233.419 56.6053 233.598 56.5681C234.253 56.3597 234.937 56.6276 235.384 57.1635C235.778 57.625 235.942 58.2726 235.741 58.7936L235.615 59.1211L235.95 59.0169C236.56 58.8234 237.222 59.3072 237.475 59.8506C237.751 60.4237 237.773 61.0638 237.81 61.6444V61.7635L237.937 61.7784C238.629 61.8751 239.202 62.2771 239.537 62.7385C239.88 63.2 239.991 63.7136 239.991 64.123C239.991 64.9641 239.656 65.3809 239.708 65.3958" fill="white"/>
<path d="M189.839 137.79L189.578 120.477" stroke="black" stroke-width="2.02" stroke-miterlimit="10" stroke-linecap="round"/>
<path d="M189.068 95.8837C188.554 95.5562 187.988 95.4445 187.46 95.5785C187.207 95.6306 186.849 95.7869 186.448 95.5934C185.569 94.9756 185.696 93.7177 186.008 92.8468C186.239 92.2662 186.619 91.7675 187.058 91.373C186.425 92.5342 185.8 94.1345 186.671 95.184C186.812 95.2956 187.08 95.2287 187.4 95.1989C188.048 95.1096 188.703 95.4222 189.068 95.8911" fill="black"/>
<path d="M197.602 91.8652C198.45 92.5277 199.06 93.7335 198.763 94.8202C198.547 95.4529 198.093 95.959 197.602 96.3833C197.914 95.6687 198.443 94.9393 198.346 94.1652C198.242 93.3762 197.944 92.6096 197.602 91.8652Z" fill="black"/>
<path d="M233.44 90.2871C239.916 90.9272 243.704 98.9957 240.794 104.653C238.889 108.791 233.656 110.488 229.666 108.27C223.727 105.352 221.925 96.2938 226.979 91.7385C227.567 91.2175 228.371 92.0809 227.813 92.6317C226.503 93.9417 225.684 95.7281 225.506 97.5964C225.066 101.288 227.002 105.27 230.314 107.02C233.641 108.933 238.07 107.585 239.812 104.146C242.662 98.9287 239.395 91.411 233.44 90.2871Z" fill="#242C4F"/>
<path d="M175.847 108.457C173.48 109.96 170.391 109.633 167.965 108.516C165.486 107.243 163.879 104.735 163.358 102.137C162.241 97.0312 165.71 91.1213 171.017 90.377C166.32 91.7465 163.38 97.1801 164.638 101.862C165.159 104.14 166.61 106.194 168.635 107.214C170.622 108.151 173.242 108.457 175.215 107.415C175.885 107.042 176.48 108.032 175.855 108.457" fill="#242C4F"/>
<g style="mix-blend-mode:multiply">
<mask id="mask7_5018_9135" style="mask-type:luminance" maskUnits="userSpaceOnUse" x="161" y="154" width="10" height="57">
<path d="M170.052 154.285H161.484V210.579H170.052V154.285Z" fill="white"/>
</mask>
<g mask="url(#mask7_5018_9135)">
<path d="M168.737 210.586C163.519 202.279 160.877 192.179 161.592 182.376C161.778 179.89 163.214 177.746 164.011 175.424C165.745 170.869 166.906 166.127 168.157 161.416L169.95 154.285L170.047 154.3C169.809 156.741 169.467 159.183 168.99 161.594C168.09 166.433 166.742 171.211 164.718 175.714C163.75 177.955 162.128 179.89 161.919 182.413C161.286 187.274 162.634 192.134 163.825 196.801C165.082 201.505 166.653 206.128 168.819 210.526L168.73 210.579L168.737 210.586Z" fill="black"/>
</g>
</g>
<path d="M98.1493 343.875L614.724 344.955C615.602 344.955 616.312 345.847 616.312 346.941C616.312 348.036 615.602 348.92 614.724 348.92L98.1493 350C96.7933 350 95.6875 348.637 95.6875 346.941C95.6875 345.245 96.7874 343.875 98.1493 343.875Z" fill="black"/>
<path d="M205.653 343.831C204.982 339.541 207.95 309.519 209.518 295.044C208.305 307.744 206.761 332.81 206.141 343.755L205.653 343.831Z" fill="#D9D9D9"/>
</svg>
