<svg width="640" height="360" viewBox="0 0 640 360" fill="none" 
xmlns="http://www.w3.org/2000/svg" 
xmlns:xlink="http://www.w3.org/1999/xlink">
<defs>
<ref id="colorOne" param="c1" default="#242C4F" />
<ref id="colorTwo" param="c2" default="#9296A7"/>
</defs>
<path d="M374.5 301.501C373.1 277.401 367.1 250.301 367.1 250.301L313 272.601L315.5 301.001C335.1 301.601 354.7 302.101 374.5 301.501Z" fill="black"/>
<path d="M264.5 252.5C264.5 252.5 259.3 275.5 259.4 299.7C279.8 299.5 300 300.4 320.3 301C318.7 283 317.6 270.3 317.6 270.3C317.6 270.3 265.9 253.1 264.5 252.5Z" fill="black"/>
<path d="M322.002 132.001L322.802 121.501C337.702 119.301 350.002 108.401 352.502 93.5014C355.602 74.8014 342.202 57.0014 322.402 53.7014C308.002 51.3014 294.202 57.3014 286.702 68.0014L285.302 66.0014L285.402 70.1014C283.302 73.6014 281.902 77.4014 281.202 81.6014C279.802 90.0014 281.702 98.2014 286.102 105.001L286.502 126.201L267.602 133.201L335.502 173.601L338.602 139.901L322.002 132.001Z" fill="white"/>
<path d="M371.403 118.001C370.603 117.401 369.703 116.901 369.203 116.101C367.903 114.101 369.403 111.501 369.403 109.101C369.403 104.001 363.003 101.001 362.003 96.0008C361.403 93.0008 362.903 90.0008 364.003 87.0008C365.103 84.1008 365.603 80.5008 363.503 78.2008C362.403 77.0008 360.603 76.4008 359.503 75.1008C357.203 72.5008 358.703 68.5008 358.603 65.1008C358.603 59.7008 354.003 54.6008 348.503 53.9008C348.503 53.9008 352.003 50.1008 347.303 46.1008C341.603 41.3008 339.703 45.8008 337.603 41.9008C335.403 37.8008 330.003 35.7008 325.503 37.1008C324.103 37.5008 322.803 38.3008 321.403 38.5008C319.603 38.8008 317.803 38.3008 316.103 38.1008C310.103 37.5008 299.003 40.7008 297.303 47.9008C293.903 45.9008 288.103 44.4008 282.903 48.2008C280.403 50.0008 277.703 55.5008 277.103 58.5008C276.903 59.6008 276.803 61.0008 275.703 61.5008C275.303 61.7008 274.903 61.7008 274.503 61.7008C267.703 62.0008 261.803 68.4008 262.103 75.2008C262.103 75.6008 262.203 76.1008 262.003 76.5008C261.803 77.2008 261.103 77.6008 260.603 78.0008C256.903 80.7008 255.303 85.9008 256.703 90.2008C257.103 91.5008 257.803 92.8008 257.803 94.3008C257.803 96.8008 255.603 98.7008 253.803 100.501C248.503 106.001 246.103 114.801 250.203 121.201C251.203 122.801 252.503 124.201 252.703 126.101C252.803 127.001 252.603 127.901 252.403 128.801C251.603 133.301 253.203 138.701 257.503 140.401C259.903 141.301 263.003 141.201 264.503 143.201C265.103 144.101 265.303 145.301 265.603 146.301C266.903 150.301 271.303 153.101 275.503 152.601C279.703 152.101 279.803 133.201 283.803 132.001C289.403 130.401 293.703 128.701 294.303 123.601C294.303 123.601 294.003 117.301 296.103 113.301C298.303 109.301 296.903 99.7008 296.003 95.0008C295.103 90.3008 298.603 73.7008 298.603 73.7008C298.603 72.7008 304.703 61.6008 304.903 60.6008C305.003 60.3008 330.803 51.8008 340.103 59.9008C346.103 67.4008 354.903 94.8008 332.703 113.401C329.803 115.801 322.903 116.301 319.703 116.801C318.103 117.001 319.203 132.801 319.203 132.801C323.903 134.901 327.403 136.701 342.303 141.801C343.803 142.301 349.103 144.401 356.603 148.701C357.703 149.301 364.803 139.301 365.403 138.301C365.903 137.401 367.203 137.101 368.203 136.701C372.003 135.501 374.903 132.101 375.503 128.201C376.403 124.401 374.603 120.301 371.403 118.001Z" fill="black"/>
<path d="M320.206 116.302C320.206 116.302 308.406 116.802 298.406 109.602C298.406 109.602 302.506 120.902 319.006 121.502L320.206 116.302Z" fill="black"/>
<path d="M293.006 96.4008C293.006 96.4008 292.806 96.5008 292.506 96.7008C292.206 96.8008 291.606 96.9008 291.106 96.7008C290.006 96.2008 289.106 94.4008 289.106 92.4008C289.106 91.4008 289.306 90.5008 289.706 89.7008C290.106 88.9008 290.606 88.4008 291.206 88.3008C291.806 88.2008 292.206 88.5008 292.306 88.9008C292.406 89.2008 292.406 89.4008 292.406 89.4008C292.406 89.4008 292.606 89.2008 292.606 88.8008C292.606 88.6008 292.406 88.3008 292.206 88.1008C291.906 87.9008 291.606 87.8008 291.206 87.8008C290.406 87.8008 289.606 88.6008 289.206 89.4008C288.706 90.2008 288.506 91.3008 288.406 92.4008C288.406 94.6008 289.406 96.7008 291.006 97.2008C291.806 97.4008 292.406 97.2008 292.706 97.0008C293.006 96.7008 293.106 96.4008 293.006 96.4008Z" fill="black"/>
<path d="M327.708 82.7012C328.108 85.9012 328.808 89.0012 330.108 92.0012C331.408 94.9012 332.308 97.8012 327.908 97.2012C327.108 97.0012 326.308 96.8012 325.508 96.5012C326.308 96.6012 327.108 96.7012 327.908 96.7012C331.808 96.9012 330.108 94.6012 329.208 92.3012C328.008 89.3012 327.408 86.0012 327.708 82.7012Z" fill="url(#colorTwo)"/>
<path d="M294.606 105.201C296.306 110.201 295.306 115.401 295.006 120.501C294.506 125.601 293.906 130.701 292.706 135.701C292.406 130.601 292.806 125.501 293.206 120.401C293.606 115.301 294.806 110.301 294.606 105.201Z" fill="black"/>
<path d="M295.106 104.501C295.006 104.101 295.006 103.701 294.906 103.201Z" fill="black"/>
<path d="M283.906 67.5008C286.406 54.1008 298.006 41.8008 312.206 41.8008C322.606 41.8008 332.206 47.9008 338.306 56.1008C351.006 71.9008 352.006 106.201 330.406 114.801C327.306 116.101 323.706 116.701 320.306 116.901C315.306 117.101 309.906 117.301 305.206 115.201L305.306 115.001C308.506 116.101 311.906 116.201 315.206 116.101C320.906 115.801 327.006 115.301 332.006 112.301C346.806 103.601 347.706 82.6008 343.406 67.6008C338.006 50.1008 320.606 38.2008 302.706 45.4008C293.406 49.3008 287.006 58.0008 284.106 67.6008L283.906 67.5008Z" fill="black"/>
<path d="M340.706 81.4007C340.406 81.6007 339.006 80.3007 336.806 80.1007C334.606 79.8007 332.906 80.8007 332.706 80.5007C332.606 80.4007 332.906 79.9007 333.706 79.5007C334.406 79.1007 335.706 78.7007 337.006 78.8007C338.406 79.0007 339.506 79.6007 340.106 80.2007C340.706 80.8007 340.806 81.3007 340.706 81.4007Z" fill="black"/>
<path d="M319.104 79.5003C318.804 79.7003 317.405 78.4003 315.205 78.2003C313.005 77.9003 311.304 78.9003 311.104 78.6003C311.004 78.5003 311.304 78.0003 312.104 77.6003C312.804 77.2003 314.104 76.8003 315.404 76.9003C316.804 77.1003 317.904 77.7003 318.504 78.3003C319.004 78.9003 319.204 79.4003 319.104 79.5003Z" fill="black"/>
<path d="M347.4 61.8004C344.6 56.6004 340 52.3004 334.6 49.9004L308.6 48.9004L303.4 51.0004C302.2 54.4004 302.7 58.0004 305.1 61.6004C306.8 60.2004 309.4 59.8004 311.5 60.9004C312.3 61.3004 313.2 61.7004 314.2 61.9004C317.2 62.5004 320.5 61.6004 322.7 59.5004C325.5 63.8004 330.9 66.2004 336 65.6004C337.5 68.7004 339 71.8004 341.3 74.4004C343.6 77.0004 346.7 79.0004 350.1 79.2004C351.2 73.2004 350.2 67.0004 347.4 61.8004Z" fill="black"/>
<path d="M317.602 133.3C317.802 127.7 318.602 122.1 319.802 116.5C320.202 122.1 320.102 127.8 319.502 133.4C319.402 134.6 317.602 134.5 317.602 133.3Z" fill="black"/>
<path d="M371.602 177.8C369.302 165.7 366.102 157.7 364.002 153.2C360.102 141.7 355.202 130.4 350.602 127.8C343.902 124.9 333.902 126.2 333.902 126.2C329.202 140.8 302.202 140 294.102 120.5C293.002 120.3 268.102 127.6 262.602 132.1C250.202 142.2 253.402 190.9 253.402 190.9C254.402 199 255.602 209.6 256.902 214.4C258.702 220.8 265.902 233.9 265.902 233.9C264.602 235.9 262.602 256.2 262.602 262.7C262.602 262.7 287.702 277.5 322.402 274.9C357.102 272.3 367.402 252.4 367.402 252.4C370.302 249.5 356.802 233.2 353.202 231.2L351.302 222.8C355.802 227.3 360.902 234.5 368.402 229.3C369.102 228.8 369.602 228.3 370.202 227.8C380.302 220.8 375.402 197.8 371.602 177.8Z" fill="url(#colorOne)"/>
<path d="M327.5 168.2C333.4 185.1 343.5 216.4 356.6 227.9C360.9 231.6 365.9 231.7 369.9 227.5C379.1 220.5 374.6 200.9 373.2 190.9C372 184.5 370.9 178.1 369.5 171.8C368 165.5 366 159.3 363.2 153.6C361.6 149 360 144.4 358 140C356.2 136 353.7 130.8 350.3 128.5C345.2 126.5 339.5 126.4 334.1 126.9L334.7 126.4C333.3 130.7 329.7 134 325.6 135.5C313.2 140.1 298.5 132.8 293.9 120.6L294 120.7C293.7 120.7 293.2 120.8 292.9 120.9L291.7 121.2C289.4 121.8 286.8 122.4 284.5 123.1C286.1 122.6 287.6 122.1 289.2 121.6C290.3 121.2 291.6 120.9 292.8 120.6C293.2 120.5 293.6 120.4 294.2 120.4C295.9 124.3 298.5 127.7 301.8 130.3C310.7 137.6 328.7 138.7 333.2 126L333.4 125.5L333.9 125.4C339.6 124.8 345.6 124.8 351.1 127C355.4 129.8 357.5 134.8 359.7 139.2C361.7 143.7 363.5 148.2 365.1 152.8C367.7 158.2 370 165.1 371.4 171.3C372.8 177.7 373.9 184.1 375 190.5C376.5 200.7 379.2 215 374.1 224.4C373.3 225.8 371.9 227.3 370.7 228.1C366.2 232.4 361 232.4 356.3 228.3C343 216.7 333.2 185.4 327.5 168.2Z" fill="black"/>
<path d="M297.305 81.8999C297.305 80.8999 296.205 78.4999 295.305 78.2999C292.605 77.7999 287.805 77.7999 287.505 84.5999C287.105 93.8999 296.505 92.3999 296.505 92.0999C296.505 91.7999 297.205 85.3999 297.305 81.8999Z" fill="white"/>
<path d="M293.806 88.4C293.806 88.4 293.606 88.5 293.406 88.6C293.106 88.7 292.706 88.8 292.206 88.6C291.206 88.2 290.506 86.6 290.506 84.9C290.506 84.1 290.706 83.3 291.106 82.6C291.406 81.9 291.906 81.5 292.406 81.4C292.906 81.3 293.206 81.6 293.306 81.9C293.406 82.2 293.306 82.3 293.406 82.4C293.406 82.4 293.606 82.3 293.506 81.9C293.506 81.7 293.406 81.5 293.206 81.3C293.006 81.1 292.706 81 292.306 81C291.606 81 290.906 81.7 290.606 82.4C290.206 83.1 289.906 84 289.906 85C289.906 86.9 290.806 88.7 292.106 89.1C292.706 89.3 293.306 89.1 293.606 88.9C293.806 88.6 293.906 88.4 293.806 88.4Z" fill="black"/>
<path d="M356.403 167C356.703 169.8 356.903 172.4 356.903 174.8C356.903 177.2 356.903 179.4 356.703 181.2C356.703 181.6 356.703 182 356.603 182.4C356.703 182.5 356.803 182.5 356.803 182.6C356.903 182.2 356.903 181.7 356.903 181.2C357.103 179.4 357.103 177.2 357.103 174.8C357.103 172.4 356.903 169.7 356.603 166.9C356.303 164.1 355.803 161.5 355.203 159.1C354.603 156.7 354.003 154.6 353.403 152.9C353.103 152 352.803 151.3 352.603 150.6C352.403 149.9 352.103 149.3 351.903 148.9C351.703 148.5 351.603 148.1 351.403 147.8C351.303 147.6 351.203 147.4 351.203 147.4C351.203 147.4 351.203 147.5 351.303 147.8C351.403 148.1 351.503 148.5 351.703 148.9C351.903 149.4 352.103 150 352.303 150.7C352.503 151.4 352.803 152.2 353.103 153C353.703 154.7 354.203 156.8 354.803 159.2C355.503 161.6 356.003 164.2 356.403 167Z" fill="black"/>
<path d="M296.602 237.5C296.602 237.5 296.802 237.5 297.102 237.5C297.502 237.5 297.902 237.6 298.502 237.7C299.102 237.8 299.902 237.9 300.702 237.9C301.602 238 302.502 238.1 303.602 238.2C305.802 238.4 308.402 238.5 311.302 238.6C314.202 238.6 317.402 238.6 320.702 238.4C324.002 238.2 327.202 237.8 330.102 237.4C333.002 237 335.502 236.5 337.702 236.1C338.802 235.9 339.702 235.6 340.602 235.5C341.402 235.3 342.202 235.1 342.802 235C343.402 234.9 343.802 234.8 344.202 234.7C344.502 234.6 344.702 234.6 344.702 234.6C344.702 234.6 344.502 234.7 344.202 234.8C343.902 234.9 343.402 235 342.802 235.2C342.202 235.4 341.502 235.6 340.602 235.8C339.802 236 338.802 236.3 337.702 236.5C335.602 237 333.002 237.5 330.102 237.9C327.202 238.3 324.102 238.7 320.702 238.9C317.402 239.1 314.202 239.1 311.302 239.1C308.402 239 305.802 238.9 303.602 238.6C302.502 238.5 301.502 238.4 300.702 238.3C299.802 238.2 299.102 238.1 298.502 238C297.902 237.9 297.502 237.8 297.102 237.8C296.802 237.6 296.602 237.5 296.602 237.5Z" fill="black"/>
<path d="M306.602 222.3C306.602 222.3 307.002 222.1 307.602 221.8C308.302 221.5 309.202 221.1 310.402 220.6C312.702 219.5 315.902 217.9 319.102 215.7C322.402 213.6 325.102 211.3 327.102 209.6C328.102 208.8 328.802 208.1 329.302 207.6C329.802 207.1 330.102 206.8 330.102 206.9C330.102 206.9 329.902 207.2 329.402 207.7C328.902 208.2 328.202 209 327.202 209.8C325.302 211.6 322.602 213.8 319.302 216C316.002 218.2 312.802 219.8 310.502 220.8C309.302 221.3 308.402 221.7 307.702 221.9C307.002 222.2 306.602 222.3 306.602 222.3Z" fill="black"/>
<path d="M300.102 134.301C300.102 134.301 319.002 111.701 320.902 110.301C324.602 107.601 332.102 107.101 334.502 109.101C335.902 110.301 351.702 124.301 351.702 124.301L347.002 134.101L329.302 147.601L300.102 134.301Z" fill="white"/>
<path d="M300.102 134.301C300.102 134.301 319.002 111.701 320.902 110.301C324.602 107.601 332.102 107.101 334.502 109.101C335.902 110.301 351.702 124.301 351.702 124.301L347.002 134.101L329.302 147.601L300.102 134.301Z" stroke="black" stroke-width="0.75" stroke-miterlimit="10"/>
<path d="M279.103 201.301C277.503 203.501 276.103 205.301 275.203 206.601C274.703 207.201 274.403 207.701 274.103 208.001C273.803 208.301 273.703 208.501 273.703 208.501C273.703 208.501 273.803 208.301 274.003 208.001C274.303 207.601 274.603 207.201 275.003 206.501C275.903 205.201 277.203 203.401 278.803 201.201C282.003 196.701 286.503 190.401 291.303 183.501C296.103 176.601 300.503 170.301 303.603 165.701C305.203 163.401 306.403 161.601 307.403 160.301C307.803 159.701 308.203 159.201 308.403 158.801C308.603 158.501 308.803 158.301 308.803 158.301C308.803 158.301 308.703 158.501 308.503 158.801C308.303 159.201 307.903 159.701 307.503 160.301C306.603 161.601 305.403 163.501 303.803 165.801C300.703 170.401 296.403 176.701 291.603 183.701" fill="black"/>
<path d="M370.306 203.401C370.306 203.401 370.206 203.301 370.006 203.001C369.806 202.701 369.506 202.201 369.106 201.701C368.306 200.501 367.306 198.901 365.906 196.801C363.206 192.701 359.506 187.001 355.406 180.801C351.306 174.501 347.606 168.801 345.006 164.701C343.706 162.601 342.706 160.901 342.006 159.701C341.706 159.101 341.406 158.701 341.206 158.301C341.006 158.001 340.906 157.801 340.906 157.801C340.906 157.801 341.006 157.901 341.206 158.201C341.406 158.501 341.706 159.001 342.106 159.501C342.906 160.701 343.906 162.301 345.206 164.401C347.906 168.501 351.606 174.201 355.706 180.501C359.806 186.801 363.506 192.401 366.106 196.601C367.406 198.701 368.506 200.401 369.206 201.501C369.506 202.101 369.806 202.501 370.006 202.901C370.206 203.201 370.306 203.401 370.306 203.401Z" fill="black"/>
<path d="M284.102 158.9L282.102 197.4" stroke="black" stroke-miterlimit="10"/>
<path d="M266.501 232.301C266.501 232.301 261.201 254.401 263.201 266.001" stroke="black" stroke-width="1.8627" stroke-miterlimit="10"/>
<path d="M335.2 116.3C336.1 116.2 337 116.7 337.5 117.4C339.8 120.9 348 134 348.6 136.8C349.3 140.1 346.8 141 346.8 141C346.8 141 347.6 145.6 344.1 147.7C344.1 147.7 344.8 151.1 341.4 153L339.9 162.1L327.6 168.3L326.5 162.6L328.5 157L331.4 145.8L330.5 129.4C330.5 129.4 330.3 125.6 333 126.5C333 126.5 330.9 123.6 332.2 121.6C333 120.4 334.5 120.8 334.5 120.8C334.5 120.8 333.2 118.7 334 117.3C334.3 116.5 334.7 116.3 335.2 116.3Z" fill="white"/>
<path d="M335.202 116.201C336.602 116.001 337.602 117.101 338.202 118.201L340.202 121.401C341.602 123.501 342.902 125.601 344.302 127.701C345.602 129.801 346.902 132.001 348.102 134.201C349.502 136.501 350.002 140.101 347.002 141.301L347.302 140.801C347.402 141.501 347.402 142.101 347.302 142.801C347.102 144.801 346.102 146.801 344.302 147.801L344.402 147.501C344.802 149.801 343.502 152.001 341.502 153.001L341.602 152.901C341.102 155.501 340.502 159.301 340.102 162.001V162.101H340.002C335.802 164.201 331.602 166.501 327.402 168.701L327.302 168.201L326.102 162.501V162.401V162.301L328.102 156.701C329.002 153.201 330.002 149.201 330.902 145.501C330.702 143.401 330.502 138.001 330.402 135.301L330.202 130.101C330.002 128.301 330.702 125.601 333.102 126.501L332.802 126.901C332.402 126.301 332.202 125.601 331.902 125.001C331.102 123.001 331.802 119.901 334.502 120.601L334.402 120.701C333.502 119.301 333.002 116.501 335.202 116.201ZM335.202 116.301C333.002 116.701 333.802 119.501 334.702 120.701L334.502 120.601C333.102 120.201 331.902 121.301 332.002 122.701C332.002 124.301 332.802 125.701 333.602 127.001C331.102 126.101 330.802 127.801 331.002 129.901L331.402 135.101C331.602 138.101 331.902 142.501 332.002 145.601C331.102 149.401 330.002 153.101 329.002 156.901L326.902 162.501V162.301L328.002 168.001L327.502 167.801C331.502 166.001 336.302 163.401 339.802 161.901C340.302 159.301 340.902 155.501 341.302 152.801C341.302 152.701 341.302 152.701 341.402 152.701C343.202 151.801 344.302 149.701 343.902 147.701V147.501L344.102 147.401C346.402 146.101 346.902 143.101 346.502 140.701C347.602 140.301 348.502 139.201 348.502 138.001C348.502 136.801 348.002 135.701 347.502 134.601C345.302 130.101 342.702 125.801 340.202 121.501C339.602 120.401 338.902 119.401 338.202 118.301C337.402 117.201 336.602 116.101 335.202 116.301Z" fill="black"/>
<path d="M343.805 136.901C343.805 136.901 343.605 136.701 343.405 136.301C343.105 135.901 342.805 135.301 342.305 134.501C341.405 133.001 340.205 130.901 338.905 128.601C337.605 126.301 336.405 124.201 335.605 122.701C335.205 121.901 334.905 121.301 334.605 120.901C334.405 120.501 334.305 120.201 334.305 120.201C334.305 120.201 334.505 120.401 334.705 120.801C335.005 121.201 335.305 121.801 335.805 122.601C336.705 124.101 337.905 126.201 339.205 128.501C340.505 130.801 341.705 132.901 342.505 134.401C342.905 135.201 343.205 135.801 343.505 136.201C343.705 136.601 343.805 136.901 343.805 136.901Z" fill="black"/>
<path d="M340.2 140.8C340.1 140.8 338.199 137.3 335.999 133C333.799 128.6 332.1 125 332.2 125C332.3 125 334.199 128.5 336.399 132.8C338.599 137.2 340.3 140.8 340.2 140.8Z" fill="black"/>
<path d="M335.699 143.9C335.599 143.9 334.398 141.2 332.898 137.7C331.498 134.2 330.399 131.4 330.499 131.4C330.599 131.4 331.798 134.1 333.298 137.6C334.798 141 335.799 143.9 335.699 143.9Z" fill="black"/>
<path d="M319.305 117.101C319.305 117.101 308.505 134.901 307.705 138.401C306.905 142.001 309.005 159.101 309.005 159.101L323.805 167.101C323.805 167.101 329.005 159.401 329.705 152.901C330.405 146.401 330.505 143.301 330.505 143.301C330.505 143.301 333.305 130.401 332.005 129.001C330.705 127.501 329.905 127.901 329.905 127.901C329.905 127.901 333.205 121.501 332.405 119.801C331.605 118.001 329.805 117.901 329.805 117.901C329.805 117.901 330.205 115.501 328.505 114.801C326.505 113.901 324.905 116.501 324.905 116.501C324.905 116.501 321.905 112.701 319.305 117.101Z" fill="white"/>
<path d="M319.302 117.201C317.402 120.401 315.502 123.701 313.702 127.001C311.902 130.301 310.202 133.601 308.702 137.001C308.302 137.901 308.102 138.701 308.002 139.601C307.802 146.101 308.602 152.701 309.202 159.201L309.102 159.001C314.002 161.701 319.002 164.401 323.902 167.001L323.602 167.101C324.702 165.401 325.702 163.501 326.602 161.601C327.902 158.801 329.002 155.801 329.202 152.801C329.302 150.801 329.802 145.401 329.902 143.401C330.702 139.301 331.602 135.001 331.702 130.801C331.602 130.201 331.802 129.601 331.202 129.201C330.902 128.801 330.302 128.501 329.902 128.401L329.302 127.701C330.402 125.501 331.602 123.301 331.902 120.901C332.202 119.501 330.802 118.401 329.602 118.201H329.302V117.901C329.802 114.201 326.302 114.001 324.702 116.801C323.002 114.401 320.802 114.701 319.302 117.201ZM319.202 117.101C320.602 114.601 322.902 114.101 324.902 116.401H324.702C325.102 115.801 325.502 115.301 326.102 114.901C328.302 113.301 330.502 115.501 330.002 117.901L329.702 117.601C331.102 117.701 332.402 118.701 332.802 120.101C332.902 123.001 331.402 125.601 330.302 128.201L329.702 127.501C330.302 127.301 330.702 127.501 331.102 127.701C331.702 128.101 332.102 128.401 332.502 128.901C332.802 129.501 332.802 130.101 332.802 130.701C332.802 134.901 331.802 139.601 331.002 143.401L330.402 149.701L330.102 152.801C329.502 158.101 326.802 162.901 324.002 167.301L323.902 167.501L323.702 167.401C318.902 164.701 313.802 162.001 308.902 159.401H308.802V159.301C308.302 155.601 307.802 151.801 307.502 148.101C307.402 144.401 306.402 140.301 308.002 136.801C310.702 130.701 315.902 122.901 319.202 117.101Z" fill="black"/>
<path d="M324.8 116.5C324.9 116.5 322.8 120.7 320.2 125.9C317.6 131 315.4 135.2 315.3 135.1C315.2 135.1 317.3 130.9 319.9 125.7C322.5 120.6 324.7 116.5 324.8 116.5Z" fill="black"/>
<path d="M329.7 117.9C329.7 117.9 329.6 118.2 329.4 118.7C329.1 119.3 328.8 120 328.3 120.9C327.4 122.8 326.1 125.3 324.8 128C323.4 130.8 322.1 133.3 321.2 135C320.7 135.9 320.3 136.6 320 137.1C319.7 137.6 319.6 137.9 319.5 137.8C319.5 137.8 319.6 137.5 319.8 137C320.1 136.4 320.4 135.7 320.8 134.8C321.7 132.9 323 130.4 324.3 127.7C325.7 124.9 327 122.5 327.9 120.7C328.4 119.8 328.8 119.1 329.1 118.6C329.5 118.1 329.7 117.9 329.7 117.9Z" fill="black"/>
<path d="M325.205 139.302C325.405 138.702 325.805 137.902 326.105 136.802C326.905 134.802 328.005 131.902 329.605 128.602C329.605 128.302 330.105 127.702 330.105 127.102C329.705 126.902 326.505 134.502 326.005 136.802C325.705 137.902 325.305 138.702 325.205 139.302C325.005 139.502 325.005 139.802 324.905 139.902C324.905 140.102 324.805 140.102 324.805 140.102C324.805 140.102 324.805 140.002 324.905 139.902C325.005 139.802 325.105 139.602 325.205 139.302Z" fill="black"/>
<path d="M311.902 140.001C311.902 140.001 311.802 140.301 311.402 140.501C311.002 140.701 310.402 140.801 309.802 140.601C309.202 140.401 308.802 139.901 308.602 139.501C308.402 139.101 308.502 138.801 308.502 138.801C308.602 138.801 308.602 139.001 308.802 139.301C309.002 139.601 309.302 140.001 309.802 140.201C310.302 140.401 310.802 140.301 311.202 140.201C311.702 140.101 311.902 140.001 311.902 140.001Z" fill="black"/>
<path d="M316.805 143.102C316.805 143.102 316.605 143.402 316.205 143.502C315.805 143.702 315.105 143.802 314.505 143.502C313.805 143.202 313.405 142.702 313.205 142.302C313.005 141.902 313.005 141.602 313.105 141.602C313.205 141.602 313.205 141.802 313.505 142.202C313.705 142.502 314.105 142.902 314.705 143.102C315.205 143.302 315.805 143.302 316.205 143.202C316.505 143.202 316.705 143.002 316.805 143.102Z" fill="black"/>
<path d="M321.699 145.201C321.699 145.201 321.599 145.501 321.199 145.701C320.799 145.901 320.199 146.101 319.499 145.901C318.799 145.701 318.299 145.301 318.099 144.901C317.899 144.501 317.799 144.201 317.899 144.201C317.999 144.201 318.099 144.401 318.299 144.701C318.599 145.001 318.999 145.401 319.599 145.501C320.199 145.601 320.699 145.501 321.099 145.401C321.399 145.301 321.599 145.101 321.699 145.201Z" fill="black"/>
<path d="M309.903 70.8999C310.103 70.2999 312.503 70.4999 315.203 70.1999C317.903 69.8999 320.203 69.0999 320.503 69.6999C320.703 69.9999 320.303 70.5999 319.403 71.1999C318.503 71.7999 317.103 72.3999 315.503 72.5999C313.903 72.7999 312.303 72.4999 311.303 72.0999C310.303 71.6999 309.803 71.1999 309.903 70.8999Z" fill="black"/>
<path d="M332.101 70.0997C332.701 69.6997 334.201 70.6997 336.301 71.2997C338.301 71.8997 340.201 71.9997 340.501 72.5997C340.601 72.8997 340.201 73.2997 339.301 73.5997C338.401 73.8997 337.101 73.8997 335.701 73.4997C334.301 73.0997 333.201 72.2997 332.601 71.5997C332.001 70.8997 331.901 70.2997 332.101 70.0997Z" fill="black"/>
<path d="M324.902 167.8C319.102 183.7 312.802 199.5 304.902 214.7C302.902 218.5 300.902 222.2 298.102 225.6C293.002 231.4 286.102 240.8 277.702 240.8C268.302 240.1 263.002 231.1 259.402 223.5C254.002 211.7 253.102 198.6 253.202 185.8C253.202 177.3 253.302 168.8 253.802 160.3C254.602 151.9 255.002 143.1 258.602 135.4C257.102 138.8 256.402 142.5 255.902 146.1C254.202 159.2 254.402 172.5 254.602 185.8C254.802 189.5 254.802 194.8 255.102 198.5C256.002 210.8 259.502 223.8 267.602 233.3C279.002 246.4 288.802 234 296.902 224.6C304.502 214.5 309.502 202.6 314.802 191.2C318.302 183.5 321.602 175.7 324.902 167.8Z" fill="black"/>
<path d="M176.5 300.301H461.9C462.4 300.301 462.9 300.701 462.9 301.301V301.901C462.9 302.401 462.5 302.901 461.9 302.901H176.5C176 302.901 175.5 302.501 175.5 301.901V301.301C175.6 300.801 176 300.301 176.5 300.301Z" fill="black"/>
<script type="text/ecmascript" xlink:href="https://dev.w3.org/SVG/modules/ref/master/ref2.js"></script></svg>
