<svg width="640" height="360" viewBox="0 0 640 360" fill="none" xmlns="http://www.w3.org/2000/svg" xmlns:xlink="http://www.w3.org/1999/xlink">
	<defs>
        <ref id="colorOne" param="c1" default="#242C4F" />
        <ref id="colorTwo" param="c2" default="#9296A7" />
    </defs>
<path d="M222.515 325.584L223.282 344.05C223.282 344.05 203.716 350.923 203.508 354.346H241.376L241.427 325.539L222.515 325.584Z" fill="url(#colorOne)"/>
<path d="M243.109 326.047L243.876 344.513C243.876 344.513 224.31 351.386 224.102 354.809H261.97L262.02 326.002L243.109 326.047Z" fill="url(#colorOne)"/>
<path d="M261.714 37.5777C261.742 37.5551 261.838 37.6566 262.052 37.7412C262.261 37.8258 262.611 37.8709 262.966 37.713C263.693 37.4029 264.263 36.1963 264.229 34.9276C264.212 34.2848 264.048 33.6872 263.8 33.191C263.558 32.6891 263.208 32.3452 262.83 32.3001C262.453 32.2324 262.199 32.4692 262.126 32.6722C262.041 32.8752 262.092 33.0105 262.058 33.0274C262.041 33.0444 261.9 32.9147 261.945 32.6215C261.968 32.4805 262.041 32.3114 262.199 32.1704C262.362 32.0238 262.605 31.9449 262.864 31.9561C263.406 31.9674 263.919 32.4411 264.195 32.9823C264.499 33.5236 264.702 34.2003 264.719 34.922C264.742 36.3429 264.088 37.7017 263.084 38.0457C262.599 38.1979 262.176 38.0683 261.956 37.916C261.731 37.7525 261.686 37.6003 261.708 37.5833" fill="black"/>
<path d="M262.516 39.1543L263.282 58.4097" stroke="black" stroke-width="1.01" stroke-miterlimit="10"/>
<path d="M237.449 66.8003C237.449 64.3871 237.133 59.1489 237.133 59.1489C240.668 56.8823 246.949 52.4842 252.678 48.4922" fill="white"/>
<path d="M237.449 66.8003C237.449 64.3871 237.133 59.1489 237.133 59.1489C240.668 56.8823 246.949 52.4842 252.678 48.4922" stroke="black" stroke-width="1.01" stroke-miterlimit="10"/>
<path d="M255.887 49.3155C250.593 54.2379 242.547 59.0476 240.156 59.2675C233.525 59.8708 226.894 54.1928 226.894 48.4134L225.688 24.5119C225.688 18.7324 230.373 14.0469 236.153 14.0469H251.997C257.776 14.0469 262.462 18.7324 262.462 24.5119V31.8137" fill="white"/>
<path d="M256.081 49.5256C252.433 52.8523 248.384 55.711 244.037 58.051C242.932 58.6092 241.838 59.1787 240.575 59.4888C239.289 59.703 238.06 59.5903 236.803 59.3535C231.965 58.316 227.415 54.4875 226.671 49.4185C226.281 42.985 225.757 31.0991 225.402 24.5923C225.255 19.1342 229.806 14.1498 235.252 13.8115C236.341 13.6987 237.857 13.8115 238.951 13.772H246.309C247.505 13.772 250.662 13.772 251.824 13.772C254.976 13.7156 258.122 15.1196 260.157 17.5329C261.809 19.4387 262.74 21.9478 262.74 24.4682V31.8264C262.729 32.2042 262.182 32.1986 262.17 31.8264V24.4682C262.165 22.0775 261.285 19.7093 259.723 17.8994C257.789 15.6102 254.818 14.2851 251.824 14.3359C250.674 14.3359 247.499 14.3359 246.309 14.3359C243.766 14.3641 237.756 14.2795 235.297 14.3753C230.465 14.6911 226.31 18.8523 226 23.6901C225.932 26.1034 226.761 39.3482 226.845 42.0264C226.975 44.4623 227.082 46.9545 227.229 49.3452C227.528 51.7077 228.875 53.8616 230.617 55.4911C233.211 57.91 236.893 59.4211 240.451 58.9306C243.896 57.8762 246.997 55.6997 249.98 53.6868C251.97 52.2772 253.899 50.7661 255.686 49.1084C255.951 48.849 256.351 49.2775 256.075 49.5256" fill="black"/>
<path d="M269.656 20.1145C269.307 19.5958 268.878 19.1391 268.41 18.7218C269.312 17.6674 269.91 16.4552 270.102 15.1188C270.908 9.64387 264.756 4.20274 256.361 2.96792C254.618 2.71419 252.921 2.6578 251.308 2.78185C249.995 2.57886 248.619 2.80441 247.457 3.45847C247.311 3.49794 247.164 3.54305 247.023 3.58815C245.873 1.98683 243.939 0.988818 241.982 1.00009C239.986 1.01137 238.019 2.06576 236.897 3.73475C235.436 2.52812 233.412 2.04885 231.568 2.47174C229.724 2.89462 228.106 4.21402 227.306 5.9394C226.939 6.73442 226.742 7.6253 226.804 8.48799C225.896 8.71353 225.123 9.02928 224.763 9.38451C223.708 10.422 223.505 12.2263 224.3 13.4724C222.208 13.5795 220.472 15.7842 220.838 17.8648C221.21 19.9454 223.595 21.4057 225.597 20.7686C224.915 22.0316 226.229 26.9427 226.279 25.5049C226.443 20.6333 229.296 17.6674 229.296 17.6674C231.596 19.6296 234.128 17.2051 235.352 16.021C236.44 17.1487 238.069 17.7069 239.614 17.4926C240.325 17.3911 241.001 17.1205 241.605 16.7314C243.973 19.7029 248.281 22.0485 253.446 22.8097C254.28 22.9338 255.103 23.0071 255.91 23.0409C255.96 34.3122 262.907 31.3971 264.79 31.7523C265.878 31.2731 266.792 30.5626 267.175 29.4406C267.401 28.7752 267.406 28.0479 267.649 27.3938C268.173 25.9729 269.724 25.1328 270.265 23.7175C270.716 22.5391 270.361 21.1689 269.65 20.1202" fill="black"/>
<path d="M237.164 59.0648C239.374 58.7152 242.368 57.9992 245.656 56.4655C249.281 54.7739 254.232 50.7932 255.974 49.2031C255.021 51.0413 250.195 55.9242 246.039 58.7547C243.755 60.3109 240.874 62.6396 237.249 63.3388L237.164 59.0592V59.0648Z" fill="black"/>
<path d="M235.735 31.1484C235.864 33.3644 235.453 35.6141 234.618 37.6665C233.97 39.2848 232.915 40.9481 235.65 40.7508C236.197 40.7226 236.738 40.6267 237.28 40.5309C236.755 40.7113 236.22 40.8523 235.667 40.9481C232.679 41.3146 233.423 39.4144 234.246 37.5256C235.086 35.4957 235.549 33.3474 235.729 31.1541" fill="black"/>
<path d="M195.675 189.157C197.321 189.055 197.722 188.277 198.083 186.969C198.804 184.358 200.152 177.519 200.152 177.519L211.84 168.824L217.259 160.947L232.472 137.113L222.706 122.859L210.194 154.965C210.025 155.438 209.777 155.878 209.45 156.262C207.223 158.906 198.105 169.743 197.124 171.232C196.008 172.929 195.055 189.168 195.055 189.168C195.055 189.168 195.63 189.269 196.29 189.049" fill="white"/>
<path d="M195.677 189.032C196.207 188.993 196.753 188.886 197.148 188.553C197.543 188.215 197.746 187.696 197.898 187.183C198.761 183.997 199.375 180.732 200.041 177.496C200.013 177.445 211.87 168.48 211.639 168.677C217.689 159.994 226.254 145.825 231.966 136.786L231.977 137.451C229.022 133.341 224.98 127.359 222.16 123.231L223.328 123.096C220.176 131.052 214.582 145.165 211.487 152.963L210.641 155.094C210.399 155.855 209.812 156.56 209.299 157.13C205.764 161.347 200.667 167.115 197.368 171.406C196.404 174.147 196.353 177.158 195.975 180.028C195.671 183.072 195.423 186.123 195.214 189.173L195.084 189.01C195.259 189.06 195.474 189.089 195.677 189.094C195.88 189.1 196.088 189.083 196.297 189.043C195.863 189.246 195.389 189.342 194.898 189.314C195.152 184.674 195.445 180.033 195.981 175.41C196.167 174.062 196.285 172.698 196.72 171.395C196.759 171.232 196.934 170.983 197.041 170.837C200.266 166.569 205.206 160.75 208.622 156.555C209.113 155.974 209.547 155.489 209.773 154.773L210.596 152.63C213.787 144.285 219.302 129.902 222.533 121.455C225.848 126.045 229.97 132.371 233.201 137.102C227.156 146.247 218.377 160.259 211.994 169.016C212.011 168.925 200.018 177.857 200.266 177.535C199.838 179.701 199.392 181.866 198.913 184.025C198.671 185.102 198.434 186.179 198.124 187.25C197.96 187.775 197.757 188.344 197.295 188.739C196.832 189.128 196.235 189.241 195.677 189.28C195.609 189.28 195.547 189.235 195.547 189.168C195.547 189.1 195.592 189.038 195.665 189.038" fill="black"/>
<path d="M209 169.404L130.768 357L129 356.059L205.204 168" fill="url(#colorTwo)"/>
<path d="M205.457 167.031L196.047 190.093L199.689 191.7L209.269 168.869" fill="black"/>
<path d="M205.836 179.961C205.875 180.096 206.913 181.669 208.661 180.868C210.409 180.068 210.73 176.166 210.386 175.54C210.042 174.92 209.27 174.48 208.435 175.382C207.601 176.284 206.761 179.476 206.761 179.476L205.842 179.961H205.836Z" fill="white"/>
<path d="M205.836 179.961C205.875 180.096 206.913 181.669 208.661 180.868C210.409 180.068 210.73 176.166 210.386 175.54C210.042 174.92 209.27 174.48 208.435 175.382C207.601 176.284 206.761 179.476 206.761 179.476L205.842 179.961H205.836Z" stroke="black" stroke-width="1.42" stroke-miterlimit="10" stroke-linecap="round"/>
<path d="M210.752 177.248C210.752 177.248 212.804 177.722 213.763 176.289C214.721 174.863 214.214 174.485 214.214 174.485C214.214 174.485 217.039 173.245 217.146 171.897C217.253 170.544 216.898 168.661 216.898 168.661C216.898 168.661 216.932 166.163 215.403 166.405C213.87 166.648 213.639 168.525 213.577 170.645L213.436 172.348C213.436 172.348 213.875 169.523 212.742 169.202C211.609 168.881 210.312 170.95 209.912 172.145C209.511 173.346 210.171 177.175 210.752 177.242" fill="white"/>
<path d="M210.752 177.248C210.752 177.248 212.804 177.722 213.763 176.289C214.721 174.863 214.214 174.485 214.214 174.485C214.214 174.485 217.039 173.245 217.146 171.897C217.253 170.544 216.898 168.661 216.898 168.661C216.898 168.661 216.932 166.163 215.403 166.405C213.87 166.648 213.639 168.525 213.577 170.645L213.436 172.348C213.436 172.348 213.875 169.523 212.742 169.202C211.609 168.881 210.312 170.95 209.912 172.145C209.511 173.346 210.171 177.175 210.752 177.242V177.248Z" stroke="black" stroke-width="1.42" stroke-miterlimit="10" stroke-linecap="round"/>
<path d="M202.753 164.984C201.676 166.495 199.325 170.194 198.958 172.144C198.502 174.575 201.688 184.425 202.962 184.532C204.242 184.639 206.39 183.912 206.305 181.414C206.221 178.916 205.166 175.009 205.166 175.009C205.166 175.009 210.106 173.616 211.544 169.731C212.226 167.887 212.192 165.999 211.972 164.516" fill="white"/>
<path d="M202.753 164.984C201.321 167.273 199.703 169.653 199.116 172.309C199.049 173.639 199.426 175.015 199.748 176.312C200.283 178.291 200.926 180.259 201.761 182.131C202.105 182.836 202.426 183.648 202.984 184.138C203.886 184.245 205.099 183.76 205.561 182.903C206.187 181.804 205.77 180.343 205.646 179.12C205.426 177.772 205.149 176.425 204.839 175.094L204.766 174.773L205.076 174.671C209.824 173.104 212.406 169.658 211.51 164.584C211.47 164.324 211.645 164.088 211.899 164.043C212.158 164.003 212.401 164.183 212.44 164.443C212.609 165.621 212.626 166.834 212.434 168.023C211.972 171.767 208.679 174.31 205.262 175.331L205.499 174.914C206.074 176.932 206.559 178.979 206.706 181.088C206.909 182.633 206.012 184.302 204.433 184.724C203.87 184.871 203.142 185.057 202.601 184.775C201.828 184.166 201.535 183.219 201.146 182.407C200.345 180.473 199.731 178.471 199.257 176.436C198.97 175.054 198.637 173.696 198.761 172.263C199.438 169.54 201.191 167.256 202.753 164.984Z" fill="black"/>
<path d="M286.912 188.598C286.827 182.221 285 172.264 285 172.264L222.712 179.566V247.487L221.719 271.444L222.452 285.8L220.242 346.504L240.36 345.545L240.276 347.891L264.008 346.763C264.008 346.763 267.825 306.437 269.19 300.64C270.554 294.844 269.105 274.123 269.105 274.123C269.105 274.123 287.295 216.763 286.912 188.604" fill="black"/>
<path d="M236.474 346.064C237.157 325.303 238.115 300.578 238.995 279.828C238.205 276.778 237.715 272.566 237.732 269.059C237.664 265.416 238.437 261.83 238.572 258.199C239.361 237.252 238.916 214.016 238.955 192.939C239.395 214.704 240.021 236.469 239.265 258.233C239.136 261.859 238.391 265.428 238.453 269.059C238.431 272.69 238.876 276.321 239.677 279.857C238.764 300.601 237.58 325.325 236.469 346.064" fill="#FAFAFA"/>
<path d="M237.389 72.343C237.389 72.343 227.702 85.7062 225.187 94.6206C222.667 103.529 220.344 133.357 220.344 133.357L220.535 191.467C226.428 193.491 233.73 195.397 242.21 196.339C258.973 198.194 280.574 195.899 289.596 193.283C289.347 177.112 284.566 162.012 285.773 153.537C286.162 150.825 283.094 105.08 282.711 97.7218C282.322 90.3636 279.807 77.7728 276.706 70.9897C273.605 64.2123 264.313 59.5605 264.313 59.5605L237.389 72.343Z" fill="url(#colorOne)"/>
<path d="M263.157 52.6707L238.291 67.2123C237.367 67.7536 236.814 68.7516 236.837 69.8173L236.989 76.0252L265.847 58.7884L264.459 53.2232C264.319 52.6481 263.664 52.3718 263.151 52.6707" fill="white"/>
<path d="M263.186 52.716C257.694 55.9186 252.507 59.6344 246.93 62.6961L238.563 67.2802C237.869 67.6128 237.356 68.2162 237.131 68.9379C236.888 69.575 237.074 70.5843 237.052 71.2553C237.097 72.8454 237.176 74.4298 237.255 76.0198L236.866 75.8055C243.609 71.4977 251.441 66.6599 258.365 62.6397C260.784 61.2245 263.265 59.9163 265.729 58.58L265.616 58.8507C265.362 57.644 265.126 56.4374 264.855 55.2364L264.443 53.4377C264.393 52.8175 263.733 52.4002 263.18 52.7216M263.13 52.6201C263.733 52.2424 264.522 52.716 264.579 53.3982L265.064 55.18C265.391 56.3641 265.752 57.5425 266.09 58.7266C266.118 58.8337 266.073 58.9465 265.977 58.9972C262.617 61.247 258.816 63.6546 255.326 65.7465C249.738 69.0788 242.792 73.1047 237.125 76.2453C236.961 76.3525 236.725 76.2284 236.736 76.0311C236.742 74.441 236.736 72.851 236.708 71.2609L236.685 70.0712C236.567 68.8251 237.249 67.5226 238.365 66.9475C243.147 63.9704 249.8 59.7133 254.762 57.2042C257.57 55.71 260.395 54.244 263.13 52.6258" fill="black"/>
<path d="M253.664 96.555C254.053 97.5248 268.392 121.55 268.967 124.832C269.542 128.119 268.967 134.13 268.967 134.13L269.739 139.554C269.739 139.554 288.916 142.266 289.688 141.877C290.461 141.488 294.193 125.852 292.851 116.656C290.557 100.987 285.121 86.9075 282.719 79.5099C279.048 68.1991 270.128 65.9493 267.416 65.3686C264.704 64.7878 260.058 65.1769 257.149 69.0505" fill="url(#colorOne)"/>
<path d="M253.664 96.5545C258.789 105.542 264.58 114.316 268.956 123.704C269.632 125.356 269.542 127.205 269.598 128.953C269.593 130.549 269.519 132.855 269.378 134.073L270.19 139.491L269.801 139.102C276.308 139.931 282.809 140.997 289.356 141.414C289.418 141.414 289.491 141.414 289.519 141.403C289.485 141.409 289.48 141.42 289.435 141.442C289.389 141.465 289.361 141.504 289.367 141.493C289.418 141.369 289.587 141.053 289.666 140.777C290.5 138.189 291.019 135.494 291.493 132.799C292.271 128.017 292.851 123.123 292.513 118.291C291.363 108.621 288.702 99.0974 285.736 89.8222C284.664 86.4334 283.384 82.7402 282.291 79.3459C280.492 73.5551 276.173 68.5707 270.433 66.4394C265.922 64.4885 260.295 64.9114 257.154 69.05C260.222 64.7366 265.916 64.2009 270.568 66.0729C276.511 68.1027 281.039 73.1999 282.962 79.1147C284.106 82.5203 285.437 86.1628 286.565 89.5515C289.671 98.9001 292.321 108.39 293.556 118.206C294.024 125.638 292.823 133.047 290.923 140.213C290.686 140.907 290.59 141.516 290.134 142.17C289.97 142.367 289.632 142.435 289.384 142.423C282.781 141.989 276.241 140.873 269.689 140.01C269.486 139.982 269.328 139.819 269.3 139.621L268.561 134.191C268.764 131.603 268.956 128.981 268.792 126.388C268.736 125.553 268.668 124.724 268.33 123.957C267.016 120.8 265.302 117.755 263.695 114.727C260.441 108.621 256.94 102.655 253.675 96.5601" fill="black"/>
<path d="M269.016 144.809C273.656 145.813 287.735 147.583 288.903 146.918C290.256 146.145 290.837 145.175 291.615 142.655C292.15 140.913 291.761 139.266 291.147 138.285" fill="white"/>
<path d="M269.016 144.809C273.397 145.243 279.498 145.897 283.805 146.275C285.384 146.399 286.974 146.602 288.53 146.489C288.654 146.478 288.671 146.461 288.79 146.394C290.397 145.491 291.006 143.495 291.513 141.838C291.773 140.687 291.677 139.419 291.147 138.291C291.908 139.295 292.195 140.637 292.071 141.928C291.716 143.929 291.113 146.241 289.218 147.329C289.1 147.408 288.88 147.487 288.733 147.51C287.053 147.747 285.367 147.521 283.709 147.42C278.753 146.918 273.808 146.219 269.016 144.815" fill="black"/>
<path d="M291.166 138.286C290.89 137.846 290.574 137.541 290.275 137.423C289.305 137.034 279.235 135.681 279.235 135.681C279.235 135.681 268.776 133.549 268.195 135.489C267.614 137.423 266.453 143.625 267.614 144.398C267.778 144.505 268.28 144.646 269.035 144.809" fill="white"/>
<path d="M271.477 129.867C274.363 127.713 283.955 122.543 287.36 123.671C285.951 123.603 284.648 124.432 283.346 124.9C279.528 126.563 275.407 128.525 271.477 129.867Z" fill="black"/>
<path d="M286.385 120.959C281.158 121.585 275.915 121.794 270.891 123.48C275.165 120.435 281.35 120.068 286.385 120.959Z" fill="black"/>
<path d="M247.641 31.2386L263.987 26.6602" stroke="black" stroke-width="2.69" stroke-miterlimit="10"/>
<path d="M231.891 29.2092C232.392 28.9103 234.123 27.9687 236.351 28.3521C237.766 28.5946 238.758 29.2656 239.254 29.6546" stroke="black" stroke-width="1.02" stroke-miterlimit="10"/>
<path d="M234.384 30.692C234.384 34.7573 231.085 38.0558 227.02 38.0558C222.955 38.0558 219.656 34.7573 219.656 30.692C219.656 26.6266 222.955 23.3281 227.02 23.3281C231.085 23.3281 234.384 26.6266 234.384 30.692Z" fill="black"/>
<path d="M251.486 30.7545C251.486 34.8198 248.187 38.1183 244.122 38.1183C240.056 38.1183 236.758 34.8198 236.758 30.7545C236.758 26.6891 240.056 23.3906 244.122 23.3906C248.187 23.3906 251.486 26.6891 251.486 30.7545Z" fill="black"/>
<path d="M257.109 29.332C257.622 32.7433 258.254 38.8836 259.021 38.8836C259.788 38.8836 258.852 36.0926 260.165 33.5327C260.594 32.6982 261.113 32.0441 261.581 31.5479C260.092 30.8093 258.598 30.0707 257.109 29.332Z" fill="black"/>
<path d="M278.13 191.586L278.294 203.433C278.299 203.861 278.215 204.29 278.045 204.684L275.841 209.855C275.841 209.855 263.549 216.587 262.162 216.587C260.775 216.587 260.239 216.48 260.453 215.307C260.668 214.134 264.942 207.188 264.942 207.188L265.37 200.241C265.37 200.241 264.299 197.247 263.019 197.569C261.739 197.89 259.489 202.057 259.173 202.592C258.852 203.128 256.608 205.587 254.578 205.102L255.751 200.241L259.952 193.278C260.284 192.725 260.713 192.235 261.215 191.829L265.331 188.508L268.962 143.434L288.911 146.918C288.911 146.918 278.136 180.67 278.136 191.75V191.586H278.13Z" fill="white"/>
<path d="M278.131 191.553C278.176 194.637 278.3 197.744 278.396 200.924L278.452 203.303C278.526 204.11 278.148 204.894 277.843 205.615L276.034 209.94L276.005 210.008L275.943 210.041C271.946 212.224 267.993 214.434 263.838 216.328C263.454 216.509 263.02 216.661 262.614 216.808C261.436 217.033 259.795 216.971 260.127 215.33C260.156 215.082 260.33 214.688 260.432 214.445C261.565 212.133 263.488 208.767 264.593 207.166L265.01 200.219L265.033 200.36C264.723 199.61 263.945 197.693 263.026 197.947C261.999 198.545 261.345 199.779 260.669 200.755C259.941 201.871 259.411 203.157 258.334 204.008C257.212 204.989 255.718 205.841 254.156 205.356L254.235 205.023L255.425 200.163L255.436 200.112C255.459 200.073 259.417 193.549 259.445 193.509C260.026 192.348 261.148 191.468 262.152 190.696L265.151 188.305C265.484 181.595 267.44 161.928 267.925 154.689L268.782 143.417L268.794 143.248C275.509 144.376 282.23 145.464 288.94 146.631L289.267 146.688L289.171 147.003C288.027 150.674 286.916 154.361 285.822 158.049C283.166 167.274 280.499 176.56 278.791 186.022C278.458 187.882 278.238 189.85 278.148 191.745C278.035 191.756 278.075 191.716 278.114 191.547M278.131 191.621C278.142 191.716 278.227 191.761 278.097 191.75C278.137 189.844 278.311 187.865 278.599 185.993C279.439 180.298 280.821 174.615 282.225 169.038C284.187 161.584 286.284 154.17 288.636 146.828L288.861 147.201C282.213 146.033 275.577 144.787 268.935 143.586L269.121 143.445L268.162 154.711C267.542 162.188 266.177 180.772 265.585 188.525V188.632L265.495 188.7C264.497 189.562 262.005 191.491 261.069 192.342C260.139 193.171 256.801 199.283 256.039 200.405L256.079 200.315L254.917 205.181L254.669 204.775C256.175 205.046 257.584 203.873 258.566 202.824C259.524 201.522 260.178 199.994 261.221 198.731C261.712 198.133 262.152 197.513 262.947 197.231C264.469 197.005 265.236 199.007 265.721 200.129L265.743 200.197V200.27L265.303 207.217V207.301L265.253 207.374C264.069 209.303 262.907 211.254 261.813 213.227C261.481 213.842 261.142 214.451 260.877 215.088C260.759 215.359 260.68 215.855 260.798 216.041C260.849 216.142 261.063 216.221 261.317 216.255C261.808 216.323 262.383 216.317 262.851 216.103C265.208 215.184 267.463 213.988 269.735 212.844C271.59 211.953 274.235 210.397 275.667 209.776L277.533 205.474C277.838 204.764 278.199 204.098 278.142 203.309C278.114 199.441 278.199 195.562 278.142 191.621" fill="black"/>
<path d="M262.557 216.503C262.596 216.549 263.323 216.019 264.338 214.981C265.353 213.944 266.622 212.365 267.693 210.42C268.765 208.469 269.424 206.557 269.757 205.148C270.095 203.732 270.152 202.836 270.095 202.825C269.926 202.785 269.374 206.349 267.237 210.171C265.145 214.011 262.427 216.391 262.551 216.509" fill="black"/>
<path d="M268.821 213.497C268.855 213.548 269.391 213.277 270.084 212.612C270.778 211.958 271.59 210.881 272.216 209.573C272.847 208.259 273.219 207.007 273.456 206.094C273.693 205.181 273.789 204.611 273.721 204.589C273.653 204.566 273.428 205.107 273.107 205.987C272.779 206.861 272.357 208.079 271.748 209.347C271.139 210.616 270.417 211.67 269.814 212.364C269.216 213.063 268.771 213.435 268.816 213.497" fill="black"/>
<path d="M267.758 198.572C267.758 198.719 268.508 198.809 269.162 199.395C269.833 199.959 270.03 200.692 270.177 200.67C270.244 200.658 270.29 200.45 270.211 200.117C270.132 199.785 269.901 199.35 269.5 199.006C269.1 198.662 268.638 198.493 268.299 198.465C267.961 198.431 267.752 198.51 267.758 198.578" fill="black"/>
<path d="M273.982 199.587C273.92 199.723 274.422 200.072 274.675 200.732C274.952 201.381 274.828 201.984 274.963 202.035C275.081 202.119 275.504 201.397 275.155 200.535C274.811 199.666 274.01 199.441 273.982 199.582" fill="black"/>
<path d="M400.089 188.525L396.25 210.837L373.047 217.219C371.953 216.96 370.561 216.684 369.123 216.554C365.988 216.272 360.62 216.554 359.346 217.219C358.15 217.851 354.75 220.01 353.611 220.743C353.358 220.907 353.143 221.11 352.963 221.352L349.625 225.948C349.625 225.948 350.341 227.718 351.869 225.857C353.397 223.997 354.638 222.875 354.638 222.875L358.765 221.093L355.269 224.093L352.298 231.107C352.298 231.107 353.6 232.455 354.75 231.022C355.901 229.59 357.942 226.991 357.942 226.991L356.295 231.891C356.295 231.891 357.13 233.12 358.117 232.139C359.098 231.152 359.69 230.368 359.69 230.368C359.69 230.368 360.282 231.896 361.212 230.616C362.142 229.336 363.253 228.4 363.253 228.4L367.217 226.822C367.217 226.822 369.078 226.991 370.888 226.895C370.95 226.895 400.349 226.297 405.237 224.143C410.131 221.99 412.105 209.698 412.105 209.698L412.314 191.339L400.089 188.52V188.525Z" fill="white"/>
<path d="M400.12 188.558C399.218 194.236 397.453 205.406 396.517 211.067C392.525 212.183 382.81 214.895 378.954 215.967L373.152 217.557C373.061 217.585 373.061 217.585 372.977 217.557C369.712 216.716 366.318 216.66 362.969 216.874C361.288 216.981 359.659 217.139 358.249 218.154L356.794 219.023C356.377 219.327 353.58 220.9 353.287 221.289C352.34 222.507 350.699 224.785 349.763 226.042L349.78 225.89C349.978 226.353 350.445 226.736 350.953 226.46C351.427 226.229 351.765 225.744 352.148 225.309C352.921 224.424 353.71 223.539 354.595 222.755L358.728 220.979L359.473 220.658L358.864 221.182L355.379 224.193L355.419 224.142L352.475 231.168L352.442 230.987C352.876 231.399 353.535 231.658 354.06 231.388C354.522 231.185 355.007 230.378 355.34 229.989C355.943 229.211 358.024 226.55 358.576 225.834C358.294 226.674 356.868 231.044 356.563 231.969L356.529 231.743C356.935 232.284 357.533 232.459 358.018 231.861C358.531 231.331 359.033 230.768 359.478 230.192L359.777 229.803C359.901 230.063 360.042 230.503 360.256 230.694C360.674 231.095 360.91 230.463 361.271 230.051C361.818 229.352 362.422 228.715 363.098 228.123C363.149 228.117 367.051 226.51 367.102 226.494L367.175 226.465C369.165 226.663 372.03 226.482 374.048 226.437C376.326 226.364 378.598 226.274 380.871 226.178C388.229 225.766 395.655 225.591 402.923 224.345C406.041 223.984 407.524 222.005 408.821 219.316C410.27 216.344 411.2 212.747 411.792 209.691L412.13 191.338L412.283 191.529C408.849 190.644 403.633 189.454 400.126 188.558M400.075 188.49C403.656 189.28 408.815 190.357 412.362 191.152L412.514 191.185V191.343C412.514 191.394 412.441 209.708 412.429 209.747C411.837 213.147 410.98 216.513 409.531 219.66C408.2 222.547 406.413 224.757 403.081 225.152C395.756 226.432 388.302 226.629 380.899 226.973C378.621 227.057 376.343 227.131 374.065 227.193C372.03 227.215 369.193 227.396 367.192 227.17L367.355 227.148L363.38 228.698L363.47 228.647C362.85 229.177 362.264 229.786 361.745 230.429C361.435 230.79 361.232 231.247 360.674 231.399C360.02 231.517 359.642 230.959 359.428 230.469L359.929 230.536C358.864 231.732 357.494 234.015 356.011 231.929L356.056 231.799L357.736 226.911L358.125 227.119L355.633 230.226L355.007 231.004C354.618 231.579 353.817 232.042 353.101 231.771C352.712 231.653 352.391 231.422 352.109 231.134L352.154 231.027L355.154 224.024L355.165 223.996L355.187 223.973L358.689 220.979L358.819 221.188L354.697 222.975C354.054 223.612 353.05 224.633 352.368 225.473C351.996 225.896 351.658 226.42 351.083 226.713C350.429 227.091 349.673 226.561 349.453 225.913L349.504 225.839C350.457 224.526 352.03 222.27 352.983 221.002C353.344 220.551 356.022 218.966 356.541 218.6C357.037 218.284 358.232 217.545 358.717 217.263C359.433 216.778 360.386 216.575 361.215 216.463C364.886 215.938 370.017 215.938 372.966 216.874L378.762 215.273C382.489 214.258 392.345 211.591 396.185 210.554L395.976 210.785C396.963 205.231 399.044 194.033 400.075 188.49Z" fill="black"/>
<path d="M400.474 215.218C400.558 215.218 400.169 213.701 398.816 212.432C397.474 211.147 395.946 210.837 395.946 210.921C395.907 211.023 397.311 211.462 398.579 212.68C399.865 213.881 400.378 215.263 400.479 215.218" fill="black"/>
<path d="M372.464 220.522C371.596 222.321 369.651 223.539 367.655 223.533C366.55 223.533 365.433 223.189 364.362 223.454C362.873 223.821 361.904 225.236 360.578 226.009C359.97 226.364 359.062 226.516 358.667 225.935C358.402 225.546 358.515 225.022 358.667 224.577C359.597 221.91 361.78 219.705 364.441 218.752" fill="white"/>
<path d="M364.435 218.746C364.435 218.746 364.345 218.757 364.176 218.808C364.006 218.859 363.77 218.949 363.471 219.079C362.867 219.349 362.027 219.823 361.142 220.612C360.262 221.396 359.349 222.524 358.723 223.967C358.582 224.334 358.407 224.7 358.351 225.14C358.323 225.354 358.328 225.597 358.419 225.828C358.509 226.054 358.689 226.257 358.915 226.364C359.377 226.578 359.873 226.488 360.302 226.324C360.742 226.144 361.103 225.873 361.458 225.597C362.168 225.033 362.777 224.413 363.482 224.001C364.176 223.567 364.959 223.465 365.72 223.533C366.476 223.584 367.215 223.719 367.925 223.668C368.636 223.629 369.273 223.432 369.814 223.189C370.908 222.687 371.596 221.96 371.974 221.424C372.165 221.154 372.289 220.928 372.363 220.77C372.436 220.612 372.464 220.528 372.453 220.522C372.425 220.505 372.267 220.838 371.866 221.345C371.466 221.842 370.773 222.518 369.713 222.969C369.188 223.189 368.574 223.358 367.903 223.387C367.237 223.426 366.516 223.285 365.732 223.217C365.337 223.184 364.925 223.184 364.508 223.257C364.091 223.336 363.679 223.494 363.302 223.714C362.54 224.153 361.92 224.785 361.232 225.332C360.888 225.602 360.533 225.867 360.161 226.014C359.789 226.161 359.36 226.217 359.05 226.07C358.729 225.93 358.61 225.557 358.667 225.191C358.712 224.824 358.87 224.458 359.005 224.103C359.591 222.699 360.454 221.594 361.294 220.799C362.997 219.208 364.469 218.825 364.424 218.746" fill="black"/>
<path d="M450.117 127.697C450.692 128.007 451.561 128.577 452.327 129.558C453.624 131.216 453.805 132.992 453.833 133.697" fill="black"/>
<path d="M450.117 127.697C450.692 128.007 451.561 128.577 452.327 129.558C453.624 131.216 453.805 132.992 453.833 133.697" stroke="black" stroke-width="1.02" stroke-miterlimit="10"/>
<path d="M405.067 295.543L345.648 294.438" stroke="black" stroke-width="3.2" stroke-miterlimit="10" stroke-linecap="round"/>
<path d="M396.793 323.308L354.68 263.658" stroke="black" stroke-width="3.55" stroke-miterlimit="10" stroke-linecap="round"/>
<path d="M353.297 329.526L394.943 262.439" stroke="black" stroke-width="3.69" stroke-miterlimit="10" stroke-linecap="round"/>
<path d="M374.656 340.419L376.793 250.654" stroke="black" stroke-width="3.94" stroke-miterlimit="10" stroke-linecap="round"/>
<path d="M374.42 304.13C370.377 303.978 367.265 299.23 367.479 293.552C367.693 287.874 371.155 283.375 375.198 283.527C379.241 283.679 382.353 288.427 382.139 294.105C381.925 299.783 378.463 304.282 374.42 304.13Z" fill="black"/>
<path d="M377.256 284.023C373.444 283.882 370.174 288.195 369.971 293.642C369.768 299.089 372.7 303.639 376.512 303.786C380.323 303.932 383.593 299.613 383.796 294.167C383.999 288.72 381.067 284.164 377.256 284.023Z" fill="#77787B"/>
<path d="M377.542 301.795C374.48 301.683 372.118 298.097 372.281 293.8C372.445 289.504 375.067 286.109 378.129 286.228C381.19 286.34 383.553 289.926 383.389 294.223C383.226 298.514 380.604 301.914 377.542 301.795Z" fill="black"/>
<path d="M377.542 301.795C374.48 301.683 372.118 298.097 372.281 293.8C372.445 289.504 375.067 286.109 378.129 286.228C381.19 286.34 383.553 289.926 383.389 294.223C383.226 298.514 380.604 301.914 377.542 301.795Z" stroke="black" stroke-width="0.1" stroke-miterlimit="10"/>
<path d="M383.171 294.217C383.031 297.922 380.798 300.843 378.187 300.741C375.576 300.645 373.569 297.561 373.71 293.862C373.851 290.158 376.084 287.237 378.695 287.339C381.305 287.434 383.312 290.519 383.171 294.217Z" fill="#77787B"/>
<path d="M341.971 294.325C340.968 320.837 355.329 342.907 374.037 343.611C392.746 344.316 408.725 323.397 409.729 296.885C410.733 270.373 396.371 248.304 377.663 247.599C358.955 246.895 342.975 267.813 341.971 294.325Z" stroke="#77787B" stroke-width="11.9" stroke-miterlimit="10"/>
<path d="M473.078 172.331C468.268 173.459 463.318 173.916 458.395 174.164C454.369 174.367 450.355 174.361 446.335 174.062C441.576 173.707 436.749 173.025 432.221 171.457C429.177 170.403 426.064 168.836 423.91 166.383H423.798L403.764 260.066C403.764 260.066 400.031 254.117 393.508 254.478C390.057 254.67 371.788 253.238 361.504 253.289C352.336 253.328 348.586 265.4 348.586 265.4C348.586 265.4 374.145 276.35 413.868 271.377C413.868 271.377 454.595 272.042 459.997 268.439C465.398 264.836 473.348 215.274 473.348 215.274L482.235 168.847C479.449 170.567 476.185 171.604 473.078 172.331Z" fill="url(#colorOne)"/>
<path d="M407.808 229.984C398.065 230.018 385.908 229.804 376.114 229.589C372.596 229.493 369.072 229.443 365.553 229.274C364.183 229.144 362.864 229.572 361.787 230.463C360.062 231.833 359.109 234.179 359.052 236.429L358.911 239.068C358.72 242.53 357.705 261.576 357.496 265.439L355.602 265.36L356.205 244.244C356.256 242.473 356.374 238.03 356.425 236.327C356.368 232.307 358.505 227.96 362.475 226.437C363.462 226.043 364.64 225.868 365.683 225.919C369.202 225.986 372.72 226.178 376.238 226.319L386.788 226.815C392.956 227.165 401.792 227.605 407.882 228.067L407.82 229.99" fill="black"/>
<path d="M312.651 332.142C312.279 342.06 317.647 350.309 324.644 350.574C331.641 350.839 337.618 343.013 337.99 333.101C338.363 323.188 332.995 314.934 325.997 314.669C319 314.404 313.023 322.23 312.651 332.142Z" stroke="black" stroke-width="5.16" stroke-miterlimit="10" stroke-linecap="round"/>
<path d="M337.356 332.847L315.141 332.436" stroke="black" stroke-width="1.2" stroke-miterlimit="10" stroke-linecap="round"/>
<path d="M334.264 343.234L318.516 320.928" stroke="black" stroke-width="1.33" stroke-miterlimit="10" stroke-linecap="round"/>
<path d="M318 345.556L333.573 320.471" stroke="black" stroke-width="1.38" stroke-miterlimit="10" stroke-linecap="round"/>
<path d="M326 349.632L326.795 316.061" stroke="black" stroke-width="1.47" stroke-miterlimit="10" stroke-linecap="round"/>
<path d="M325.903 336.061C324.392 336.004 323.224 334.228 323.309 332.103C323.388 329.977 324.685 328.297 326.196 328.353C327.707 328.409 328.874 330.185 328.79 332.306C328.711 334.431 327.414 336.111 325.903 336.055" fill="black"/>
<path d="M326.97 328.544C325.543 328.493 324.319 330.106 324.246 332.141C324.167 334.177 325.267 335.88 326.693 335.936C328.12 335.993 329.343 334.374 329.417 332.339C329.496 330.303 328.396 328.601 326.97 328.544Z" fill="#77787B"/>
<path d="M327.072 335.187C325.928 335.142 325.043 333.806 325.105 332.199C325.167 330.592 326.148 329.323 327.292 329.368C328.437 329.413 329.322 330.755 329.26 332.357C329.198 333.964 328.217 335.232 327.072 335.187Z" fill="black"/>
<path d="M327.072 335.187C325.928 335.142 325.043 333.806 325.105 332.199C325.167 330.592 326.148 329.323 327.292 329.368C328.437 329.413 329.322 330.755 329.26 332.357C329.198 333.964 328.217 335.232 327.072 335.187Z" stroke="black" stroke-width="0.04" stroke-miterlimit="10"/>
<path d="M329.176 332.351C329.125 333.738 328.291 334.827 327.31 334.793C326.334 334.753 325.584 333.603 325.635 332.222C325.686 330.84 326.52 329.746 327.496 329.78C328.471 329.82 329.221 330.97 329.171 332.351" fill="#77787B"/>
<path d="M313.776 332.396C313.404 342.314 318.772 350.563 325.769 350.828C332.766 351.093 338.743 343.267 339.115 333.355C339.488 323.442 334.12 315.188 327.122 314.923C320.125 314.658 314.148 322.484 313.776 332.396Z" stroke="#77787B" stroke-width="4.45" stroke-miterlimit="10"/>
<path d="M309.973 340.019L311.14 341.13L328.208 334.121L393.721 337.752L371.9 347.09C371.314 347.653 370.118 347.913 369.374 347.868L310.086 343.656C309.172 343.605 309.054 343.464 308.823 342.861C308.591 342.252 308.98 339.963 309.973 340.019Z" fill="black"/>
<path d="M424.954 265.607L391.867 337.227" stroke="black" stroke-width="3.53" stroke-miterlimit="10" stroke-linecap="round"/>
<path d="M359.096 260.996L327.555 331.612" stroke="black" stroke-width="3.53" stroke-miterlimit="10" stroke-linecap="round"/>
<path d="M389.627 337.296L370.462 345.5C370.361 345.545 370.248 345.562 370.141 345.556L309.442 341.248C308.704 341.198 309.036 340.233 309.978 339.889L329.893 332.199C329.989 332.165 330.085 332.148 330.186 332.153L389.396 335.965C390.123 336.01 390.298 337.008 389.627 337.296Z" fill="white"/>
<path d="M389.627 337.296L370.462 345.5C370.361 345.545 370.248 345.562 370.141 345.556L309.442 341.248C308.704 341.198 309.036 340.233 309.978 339.889L329.893 332.199C329.989 332.165 330.085 332.148 330.186 332.153L389.396 335.965C390.123 336.01 390.298 337.008 389.627 337.296Z" stroke="black" stroke-width="2.42" stroke-miterlimit="10" stroke-linecap="round"/>
<path d="M379.143 336.49C378.771 346.408 384.139 354.657 391.136 354.922C398.134 355.187 404.11 347.361 404.483 337.448C404.855 327.536 399.487 319.281 392.49 319.016C385.492 318.751 379.515 326.577 379.143 336.49Z" stroke="black" stroke-width="5.16" stroke-miterlimit="10" stroke-linecap="round"/>
<path d="M403.864 337.201L381.648 336.789" stroke="black" stroke-width="1.2" stroke-miterlimit="10" stroke-linecap="round"/>
<path d="M400.772 347.579L385.023 325.273" stroke="black" stroke-width="1.33" stroke-miterlimit="10" stroke-linecap="round"/>
<path d="M384.508 349.91L400.087 324.818" stroke="black" stroke-width="1.38" stroke-miterlimit="10" stroke-linecap="round"/>
<path d="M392.5 353.98L393.295 320.408" stroke="black" stroke-width="1.47" stroke-miterlimit="10" stroke-linecap="round"/>
<path d="M392.411 340.408C390.899 340.352 389.732 338.576 389.817 336.45C389.896 334.324 391.193 332.644 392.704 332.701C394.215 332.757 395.382 334.533 395.297 336.653C395.218 338.779 393.922 340.459 392.411 340.403" fill="black"/>
<path d="M393.47 332.892C392.043 332.841 390.819 334.454 390.746 336.489C390.667 338.525 391.767 340.227 393.193 340.284C394.62 340.34 395.843 338.722 395.917 336.686C395.996 334.651 394.896 332.948 393.47 332.892Z" fill="#77787B"/>
<path d="M393.565 339.533C392.42 339.488 391.535 338.152 391.597 336.545C391.659 334.938 392.64 333.669 393.785 333.714C394.929 333.759 395.814 335.101 395.752 336.702C395.69 338.309 394.709 339.578 393.565 339.533Z" fill="black"/>
<path d="M393.565 339.533C392.42 339.488 391.535 338.152 391.597 336.545C391.659 334.938 392.64 333.669 393.785 333.714C394.929 333.759 395.814 335.101 395.752 336.702C395.69 338.309 394.709 339.578 393.565 339.533Z" stroke="black" stroke-width="0.04" stroke-miterlimit="10"/>
<path d="M395.692 336.705C395.641 338.092 394.807 339.18 393.826 339.146C392.85 339.107 392.1 337.956 392.151 336.575C392.202 335.194 393.036 334.1 394.012 334.134C394.987 334.173 395.737 335.323 395.686 336.705" fill="#77787B"/>
<path d="M380.268 336.744C379.896 346.662 385.264 354.911 392.261 355.176C399.259 355.441 405.235 347.615 405.608 337.702C405.98 327.79 400.612 319.535 393.615 319.27C386.617 319.005 380.64 326.831 380.268 336.744Z" stroke="#77787B" stroke-width="4.45" stroke-miterlimit="10"/>
<path d="M438.386 149.682L439.283 162.678L445.04 164.223L444.008 184.978L420.337 191.248L416.836 165.278L422.023 163.259L421.882 152.85L438.386 149.682Z" fill="white"/>
<path d="M406.578 134.508C405.867 147.347 413.394 157.626 424.795 158.258C436.191 158.889 446.007 148.994 446.718 136.149C447.428 123.31 438.768 112.389 427.372 111.752C415.977 111.12 407.288 121.664 406.578 134.503" fill="white"/>
<path d="M471.589 202.835C470.918 212.28 469.333 221.69 468.713 224.042C466.971 230.639 465.245 234.76 425.584 227.329L412.52 226.054C412.187 226.765 411.787 227.289 411.42 227.673C409.904 229.263 403.448 230.244 401.779 233.582C400.888 235.364 400.025 237.546 399.895 237.754C399.157 238.938 398.57 236.429 398.463 237.123C398.012 240.094 397.916 241.008 396.304 240.788C395.514 240.681 395.221 233.999 395.204 233.993C395.142 233.988 394.804 238.138 393.468 239.621C392.983 240.162 391.59 240.179 391.432 239.88C391.415 239.846 391.409 239.812 391.415 239.784C391.466 239.305 391.528 235.516 392.103 231.761C392.306 230.453 392.898 229.483 393.642 228.242C393.93 227.757 391.269 230.312 391.032 231.276C389.07 239.277 386.735 237.343 386.216 236.57C385.878 236.063 387.987 229.951 387.987 229.951C388.872 228.287 393.135 223.027 393.135 223.027C393.135 223.027 399.456 219.339 401.119 218.95C402.782 218.561 451.189 215.606 452.046 214.935L451.003 186.416" fill="white"/>
<path d="M471.881 202.851C471.47 208.552 470.799 214.224 469.868 219.868C469.322 222.693 469.051 225.653 467.421 228.157C464.219 232.56 455.784 231.647 450.934 231.427C442.443 230.739 433.799 229.2 425.55 227.677L412.486 226.392L412.83 226.194C412.226 227.7 410.817 228.72 409.345 229.234C407.947 229.82 406.537 230.327 405.223 231.01C403.932 231.686 402.652 232.521 402.026 233.795C401.536 234.759 401.057 235.859 400.622 236.857C400.476 237.184 400.324 237.59 400.132 237.928C399.421 238.949 398.762 237.956 398.412 237.274C398.401 237.246 398.356 237.206 398.401 237.246C398.395 237.246 398.48 237.291 398.542 237.28C398.609 237.28 398.683 237.235 398.722 237.189L398.745 237.15C398.615 237.934 398.519 238.717 398.322 239.518C398.192 240.076 397.888 240.866 397.211 241.024C396.777 241.125 396.066 241.165 395.875 240.73C395.108 238.655 395.192 236.377 394.995 234.207L394.984 234.066V234.032C395.052 234.111 394.826 233.846 395.136 234.207C395.593 234.083 395.317 234.077 395.401 234.071L395.39 234.116C395.125 235.802 394.871 237.533 394.076 239.067C393.625 240.088 392.503 240.494 391.465 240.15C391.409 240.121 391.347 240.088 391.285 240.009C391.217 239.93 391.212 239.794 391.223 239.749C391.341 237.404 391.477 235.047 391.804 232.712C391.905 231.066 392.627 229.521 393.524 228.162C393.524 228.162 393.512 228.207 393.524 228.23C393.512 228.23 393.591 228.348 393.659 228.314C393.693 228.303 393.614 228.348 393.586 228.371C393.445 228.484 393.309 228.608 393.174 228.737C392.424 229.51 391.527 230.316 391.127 231.32C390.755 232.786 390.332 234.252 389.627 235.599C389.261 236.253 388.838 236.947 388.105 237.319C387.361 237.697 386.329 237.235 386.047 236.473C386.272 234.195 387.186 232.053 387.834 229.871C389.34 227.362 391.161 225.055 392.982 222.783C395.429 221.374 397.865 219.908 400.498 218.831C401.406 218.481 402.404 218.537 403.357 218.425C417.746 217.381 433.957 216.276 448.29 215.137C449.119 215.047 450.996 214.889 451.848 214.698C451.87 214.698 451.916 214.664 451.859 214.703L451.752 214.94C451.527 210.288 450.968 198.075 450.715 193.559L450.309 186.432C450.286 186.054 450.574 185.733 450.951 185.71C451.335 185.688 451.667 185.992 451.673 186.381L451.792 193.514C451.87 198.081 452.203 210.339 452.327 215.07C452.102 215.244 451.882 215.267 451.634 215.312C451.357 215.363 450.517 215.459 450.218 215.493C441.056 216.423 431.296 217.032 422.133 217.646L407.152 218.712L403.413 219C402.167 219.101 401.011 219.112 399.872 219.733C397.752 220.697 395.091 222.27 393.343 223.183C392.43 224.289 391.533 225.416 390.642 226.538C389.768 227.66 388.849 228.794 388.122 230.006C387.682 231.303 387.135 232.87 386.746 234.274C386.571 234.985 386.284 235.763 386.312 236.479C386.391 236.592 386.481 236.716 386.588 236.806C388.533 238.385 389.796 234.827 390.293 233.417C390.704 232.374 390.744 231.106 391.482 230.237C392.12 229.453 392.768 228.664 393.58 228.055C393.664 227.999 393.8 228.106 393.783 228.145C393.817 228.252 393.648 228.455 393.58 228.585C392.762 229.865 392.21 231.213 392.108 232.741C391.821 234.979 391.691 237.223 391.606 239.484L391.59 239.777C391.59 239.823 391.59 239.789 391.584 239.789C392.012 239.986 392.683 239.873 393.101 239.659C393.366 239.524 393.557 239.185 393.738 238.881C394.493 237.392 394.719 235.678 394.961 234.038C394.961 234.009 394.967 233.992 394.984 233.942C395.074 233.93 394.798 233.908 395.266 233.784C395.576 234.15 395.356 233.902 395.424 233.992V234.032L395.435 234.173C395.638 236.27 395.61 238.481 396.315 240.465C396.343 240.527 396.41 240.561 396.337 240.527C396.709 240.578 397.194 240.573 397.403 240.291C398.006 239.377 397.961 238.097 398.187 237.015C398.209 236.941 398.198 236.93 398.26 236.84C398.733 236.361 399.01 237.285 399.235 237.55C399.32 237.686 399.461 237.787 399.472 237.776C399.472 237.776 399.472 237.776 399.512 237.753C399.743 237.522 399.901 236.936 400.059 236.614C400.493 235.594 400.955 234.494 401.446 233.507C402.145 232.058 403.532 231.122 404.902 230.406C406.266 229.696 407.693 229.177 409.069 228.602C410.478 228.078 411.606 227.316 412.198 225.901L412.3 225.681L412.542 225.704L425.606 226.967C434.019 228.506 442.454 229.983 450.98 230.683C455.175 230.942 459.528 231.28 463.576 230.034C468.075 228.754 468.453 223.663 469.209 219.75C470.156 214.139 470.85 208.478 471.278 202.806C471.289 202.642 471.43 202.518 471.594 202.53C471.757 202.541 471.881 202.682 471.87 202.845" fill="black"/>
<path d="M391.547 230.356C392.731 228.45 394.197 226.781 395.945 225.377C394.766 227.283 393.295 228.946 391.547 230.356Z" fill="black"/>
<path d="M398.281 237.253C398.338 232.404 398.304 229.991 403.034 227.605C398.964 230.267 398.727 232.674 398.653 237.247C398.653 237.484 398.281 237.49 398.281 237.247" fill="black"/>
<path d="M394.981 234.992C394.959 233.233 394.773 231.513 395.201 229.76C395.951 228.096 397.327 226.94 398.787 225.965C398.133 226.529 397.53 227.143 397 227.814C396.532 228.395 396.165 229.038 395.759 229.658C395.145 231.299 395.399 233.233 395.359 234.986C395.365 235.229 394.987 235.234 394.987 234.986" fill="black"/>
<path d="M411.416 227.7C411.783 227.317 412.183 226.792 412.516 226.082L425.58 227.356C441.56 230.35 451.382 231.467 457.528 231.303C460.482 238.599 463.104 241.266 463.087 243.076L404.695 230.937C407.216 229.544 410.413 228.755 411.416 227.7Z" fill="url(#colorTwo)"/>
<path d="M410.563 179.746C410.563 179.746 410.354 180.017 410.05 180.541C409.74 181.065 409.322 181.844 408.86 182.825C407.924 184.781 406.83 187.606 406.311 190.871C405.759 194.135 405.939 197.152 406.227 199.289C406.39 200.355 406.543 201.217 406.695 201.804C406.836 202.39 406.926 202.712 406.954 202.712C407.028 202.7 406.751 201.392 406.514 199.261C406.306 197.135 406.171 194.158 406.717 190.933C407.231 187.708 408.274 184.905 409.131 182.932C409.559 181.945 409.931 181.15 410.196 180.609C410.461 180.062 410.591 179.757 410.569 179.746" fill="url(#colorOne)"/>
<path d="M452.956 166.043C452.956 166.043 464.803 167.261 468.028 177.32C470.949 186.432 472.691 202.372 472.691 202.372L452.184 202.225C452.184 202.225 447.639 186.426 448.068 176.835C448.31 171.383 452.015 166.894 452.962 166.049" fill="url(#colorTwo)"/>
<path d="M359.264 312.791L352.583 331.776L342.969 345.269C342.276 346.244 342.552 347.597 343.567 348.223C344.136 348.573 344.836 348.629 345.45 348.364C349.363 346.695 363.736 340.482 364.142 339.066C364.621 337.426 372.52 319.506 372.52 319.506L359.264 312.791Z" fill="black"/>
<path d="M343.562 348.222L364.622 337.797L364.323 338.592C364.064 339.28 363.568 339.861 362.925 340.216C361.2 341.169 356.373 343.695 345.508 348.386C344.876 348.657 344.143 348.6 343.568 348.222" fill="black"/>
<path d="M350.988 341.62C350.864 341.632 350.807 340.487 349.888 339.534C348.997 338.553 347.858 338.423 347.875 338.299C347.875 338.249 348.168 338.192 348.636 338.299C349.099 338.401 349.713 338.7 350.209 339.235C350.706 339.771 350.971 340.402 351.038 340.87C351.112 341.338 351.038 341.632 350.982 341.626" fill="white"/>
<path d="M348.691 343.639C348.572 343.69 348.195 342.844 347.326 342.202C346.469 341.536 345.561 341.395 345.578 341.271C345.561 341.153 346.616 341.096 347.597 341.852C348.584 342.596 348.809 343.628 348.691 343.645" fill="white"/>
<path d="M354.703 339.336C354.579 339.393 354.016 338.096 352.753 336.974C351.506 335.829 350.165 335.395 350.204 335.265C350.21 335.153 351.709 335.423 353.046 336.647C354.399 337.854 354.811 339.32 354.703 339.336Z" fill="white"/>
<path d="M357.215 333.733C357.119 333.828 356.245 333 354.909 332.441C353.584 331.861 352.377 331.799 352.383 331.669C352.366 331.556 353.657 331.415 355.084 332.035C356.516 332.639 357.305 333.671 357.215 333.738" fill="white"/>
<path d="M340.171 311.336L333.489 330.321L323.875 343.814C323.182 344.789 323.458 346.142 324.473 346.768C325.043 347.118 325.742 347.174 326.356 346.909C330.27 345.24 344.642 339.026 345.048 337.611C345.527 335.97 353.427 318.051 353.427 318.051L340.171 311.336Z" fill="black"/>
<path d="M324.484 346.767L345.544 336.342L345.245 337.137C344.986 337.825 344.49 338.406 343.847 338.761C342.122 339.714 337.295 342.24 326.43 346.931C325.798 347.202 325.065 347.145 324.49 346.767" fill="black"/>
<path d="M331.886 340.171C331.762 340.182 331.706 339.038 330.787 338.085C329.896 337.104 328.757 336.974 328.774 336.85C328.774 336.799 329.067 336.743 329.535 336.85C329.997 336.952 330.612 337.25 331.108 337.786C331.604 338.322 331.869 338.953 331.937 339.421C332.01 339.889 331.937 340.182 331.88 340.177" fill="white"/>
<path d="M329.597 342.184C329.479 342.235 329.101 341.389 328.233 340.746C327.375 340.081 326.468 339.94 326.485 339.816C326.468 339.698 327.522 339.641 328.503 340.397C329.49 341.141 329.715 342.173 329.597 342.19" fill="white"/>
<path d="M335.618 337.881C335.493 337.938 334.93 336.641 333.667 335.519C332.421 334.374 331.079 333.94 331.118 333.81C331.124 333.698 332.624 333.968 333.96 335.192C335.313 336.398 335.725 337.864 335.618 337.881Z" fill="white"/>
<path d="M338.121 332.277C338.026 332.373 337.152 331.544 335.815 330.986C334.49 330.405 333.284 330.343 333.289 330.214C333.272 330.101 334.564 329.96 335.99 330.58C337.422 331.184 338.212 332.215 338.121 332.283" fill="white"/>
<path d="M439.234 150.504C439.285 150.245 439.342 149.969 439.404 149.67L439.234 150.504Z" fill="black"/>
<path d="M400.352 172.348C402.196 171.136 405.912 169.602 408.026 168.384C413.834 165.041 419.534 164.528 419.534 164.528C419.055 165.548 421.502 180.817 424.958 181.59C434.679 183.772 444.676 165.458 443.768 163.891L454.769 166.558L462.11 181.398L459.962 192.551L451.008 186.411L452.051 214.93C451.403 215.443 423.515 217.253 409.272 218.279C408.15 210.318 407.209 204.127 406.543 199.949L406.729 205.283L392.391 199.706C392.391 199.706 394.516 176.183 400.352 172.354" fill="url(#colorTwo)"/>
<path d="M422.672 163.987C421.003 164.314 419.723 163.936 419.745 166.033C419.43 169.749 422.051 180.677 426.111 181.624C430.746 181.646 436.052 177.113 439.063 173.831C435.905 177.367 432.048 180.761 427.312 181.894C425.519 182.368 424.098 181.15 423.14 179.774C421.268 177.107 420.163 174.006 419.396 170.86C418.995 169.084 418.691 167.229 418.832 165.362C418.99 163.225 420.788 163.203 422.407 162.91C423.134 162.735 423.393 163.812 422.672 163.987Z" fill="black"/>
<path d="M409.156 218.475C409.077 216.321 408.395 213.215 408.034 211.061C407.583 208.597 407.109 206.138 406.714 203.657C405.936 198.718 405.119 193.581 406.23 188.631C406.573 193.548 407.07 198.65 407.515 203.545C408.017 207.931 409.207 214.111 409.156 218.475Z" fill="black"/>
<path d="M452.16 216.058C450.965 207.234 450.519 198.319 450.846 189.422C452.047 198.24 452.481 207.166 452.16 216.058Z" fill="black"/>
<path d="M375.618 227.374C375.415 227.521 375.161 227.713 374.98 227.876L374.823 228.006C374.783 228.04 374.71 228.107 374.67 228.141C371.231 231.265 371.981 235.274 370.774 239.695C370.661 240.14 380.878 251.321 380.777 251.766C378.939 259.266 372.939 262.615 371.248 270.142C367.081 288.806 361.256 274.997 350.662 321.548L333.352 320.872C333.352 320.872 348.158 248.395 348.88 243.314C350.323 233.193 355.234 226.828 361.939 225.852C363.066 225.689 366.72 225.322 371.767 226.151C373.306 226.405 374.665 226.76 375.866 227.205C375.775 227.262 375.691 227.324 375.618 227.38" fill="black"/>
<path d="M350.695 320.837C350.695 320.837 350.707 320.781 350.718 320.741C352.849 313.033 354.682 304.232 356.633 296.141C360.382 279.924 364.16 262.738 367.723 246.432C368.163 244.436 368.603 242.417 369.077 240.432C370.154 236.407 371.518 232.037 374.332 228.868L374.461 228.721L374.529 228.648L374.597 228.58L374.873 228.304L374.941 228.236L375.014 228.169L375.161 228.039C375.347 227.864 375.567 227.689 375.764 227.532L375.843 227.47C375.843 227.47 375.894 227.43 375.922 227.413L376.08 227.3C377.145 226.522 378.386 226.004 379.688 225.755C380.833 225.581 384.549 225.101 389.652 226.049C390.057 226.122 390.469 226.201 390.886 226.285C389.759 227.751 388.575 229.353 388.152 230.142C388.152 230.142 386.043 236.254 386.381 236.762C386.9 237.534 389.229 239.468 391.196 231.467C391.433 230.503 394.095 227.954 393.807 228.434C393.068 229.674 392.471 230.644 392.268 231.952C391.693 235.707 391.631 239.496 391.58 239.976C391.58 240.004 391.58 240.038 391.597 240.072C391.755 240.37 393.147 240.353 393.632 239.812C394.969 238.329 395.307 234.179 395.369 234.185C395.386 234.185 395.679 240.872 396.468 240.979C398.081 241.194 398.177 240.286 398.628 237.309C398.735 236.615 399.322 239.119 400.06 237.94C400.19 237.732 401.047 235.55 401.943 233.768C402.862 231.93 405.236 230.808 407.43 229.9C424.7 233.976 443.533 239.051 443.533 239.051L460.73 242.479C460.73 242.479 459.975 263.172 455.233 266.634L416.057 267.164L392.166 263.516L376.858 324.79L353.441 321.305C352.528 321.142 351.614 320.984 350.701 320.82" fill="black"/>
<path d="M422.904 171.27L437.434 172.077L438.596 151.152L422.594 150.555L422.904 171.27Z" fill="white"/>
<path d="M422.328 157.05C422.328 157.05 430.036 157.8 436.791 153.385C436.791 153.385 433.757 160.619 422.937 160.495L422.328 157.05Z" fill="black"/>
<path d="M423.9 129.343C424.058 129.726 425.479 129.49 427.165 129.631C428.856 129.738 430.226 130.177 430.435 129.822C430.531 129.653 430.277 129.292 429.719 128.937C429.161 128.582 428.281 128.255 427.272 128.181C426.257 128.108 425.343 128.305 424.74 128.576C424.131 128.847 423.832 129.163 423.9 129.349" fill="black"/>
<path d="M410.404 127.647C410.669 127.962 411.639 127.59 412.829 127.528C414.013 127.427 415.028 127.664 415.248 127.314C415.344 127.145 415.175 126.823 414.723 126.536C414.278 126.243 413.545 126.023 412.733 126.079C411.921 126.136 411.222 126.457 410.822 126.807C410.416 127.156 410.292 127.494 410.41 127.652" fill="black"/>
<path d="M440.821 145.277C440.855 145.254 440.945 145.367 441.148 145.463C441.351 145.559 441.7 145.632 442.067 145.497C442.817 145.237 443.471 144.059 443.527 142.785C443.555 142.142 443.431 141.527 443.211 141.014C443.003 140.495 442.676 140.123 442.304 140.05C441.931 139.954 441.661 140.18 441.571 140.377C441.475 140.574 441.514 140.715 441.48 140.726C441.458 140.743 441.328 140.608 441.39 140.315C441.424 140.174 441.509 140.01 441.678 139.875C441.853 139.74 442.101 139.672 442.36 139.706C442.907 139.751 443.386 140.264 443.629 140.828C443.899 141.392 444.057 142.085 444.023 142.807C443.956 144.234 443.2 145.553 442.174 145.829C441.672 145.948 441.26 145.795 441.052 145.621C440.838 145.44 440.804 145.282 440.826 145.271" fill="black"/>
<path d="M439.49 150.967C439 154.288 439.62 157.609 439.676 160.947C439.795 164.291 439.863 167.634 439.688 170.989C439.254 167.657 439.056 164.319 438.915 160.981C438.881 157.643 438.402 154.198 439.49 150.972" fill="black"/>
<path d="M422.755 168.795C422.389 165.04 422.355 161.273 422.501 157.507L422.62 157.636C422.276 157.569 421.825 157.388 421.492 157.275C421.915 157.298 422.332 157.371 422.755 157.371C423.234 161.16 423.296 165.011 422.755 168.795Z" fill="black"/>
<path d="M447.635 126.716C445.977 119.392 440.959 112.569 433.59 110.398C426.564 108.261 418.693 110.934 413.844 116.369C408.882 121.602 406.734 128.915 406.542 135.997C406.187 145.616 410.393 155.044 420.661 156.893C424.427 157.446 428.385 158.196 432.112 157.074L432.135 157.141C428.972 158.308 425.51 157.959 422.222 157.632C418.868 157.333 415.541 156.262 412.846 154.175C404.202 147.28 404.563 134.007 408.239 124.562C410.41 119.465 414.024 114.858 418.828 112.017C423.587 109.068 429.677 108.171 434.971 110.178C441.799 112.693 446.767 119.769 447.629 126.716" fill="black"/>
<path d="M430.586 121.213C430.614 121.224 430.761 120.993 430.812 120.514C430.868 120.046 430.823 119.302 430.355 118.546C429.904 117.791 428.934 117.108 427.739 117.063C427.158 117.041 426.487 117.153 425.946 117.61C425.686 117.83 425.438 118.18 425.438 118.608C425.421 119.025 425.698 119.431 426.025 119.623C426.673 120.035 427.429 119.99 428.038 119.815C428.658 119.64 429.199 119.313 429.616 118.907C430.479 118.095 430.789 116.973 430.705 116.11C430.637 115.236 430.287 114.599 429.994 114.227C429.695 113.855 429.458 113.72 429.442 113.748C429.34 113.798 430.242 114.537 430.287 116.133C430.304 116.905 430.005 117.836 429.244 118.512C428.872 118.851 428.404 119.121 427.88 119.262C427.361 119.409 426.78 119.409 426.346 119.132C425.918 118.873 425.934 118.371 426.323 118.056C426.69 117.729 427.226 117.61 427.722 117.616C428.725 117.627 429.571 118.157 430 118.783C430.445 119.414 430.558 120.074 430.575 120.508C430.592 120.954 430.53 121.202 430.575 121.219" fill="black"/>
<path d="M406.061 129.298C406.078 129.219 405.435 129.281 404.758 128.65C404.437 128.34 404.144 127.844 404.189 127.246C404.217 126.659 404.584 125.989 405.215 125.684L405.559 125.521L405.283 125.244C404.572 124.534 403.879 123.581 403.811 122.464C403.777 121.906 403.907 121.348 404.194 120.925C404.476 120.502 404.922 120.203 405.373 119.933C405.824 119.662 406.292 119.392 406.658 119.036C407.025 118.687 407.301 118.303 407.493 117.92C408.26 116.358 407.848 115.247 407.809 115.292C407.696 115.281 407.916 116.358 407.126 117.717C406.737 118.405 406.061 118.98 405.097 119.465C404.634 119.73 404.093 120.051 403.715 120.598C403.343 121.139 403.185 121.822 403.225 122.493C403.309 123.852 404.132 124.895 404.905 125.633L404.973 125.194C404.132 125.633 403.732 126.49 403.732 127.229C403.721 127.99 404.138 128.582 404.538 128.898C405.401 129.546 406.095 129.327 406.061 129.293" fill="black"/>
<path d="M406.084 133.414C405.56 135.235 405.233 136.25 406.304 138.782C407.02 134.423 407.685 130.166 408.306 125.757C408.328 125.588 411.068 121.455 410.64 120.118C412.112 120.615 414.762 117.243 414.874 115.478C415.602 115.207 416.256 114.762 416.78 114.192C417.705 114.525 418.929 113.972 419.019 113.076C420.197 113.521 421.455 113.747 422.712 113.741C424.065 116.222 427.882 116.369 429.416 113.989C430.239 116.008 432.726 116.307 434.654 116.335C433.369 120.778 438.55 120.902 437.49 122.548C436.718 124.161 437.654 126.354 439.357 126.913C438.088 127.742 438.043 129.89 439.266 130.775C440.721 131.688 438.094 132.839 438.257 134.096C438.116 134.993 438.646 136.047 439.543 136.16C438.612 136.718 437.93 138.269 439.188 138.815C440.394 136.554 443.794 137.428 445.04 139.746C446.664 143.557 443.586 147.927 440.276 147.082L439.069 153.273C441.257 156.035 445.892 156.329 448.587 154.293C450.763 158.454 458.59 157.62 459.153 152.748C460.377 153.955 462.632 154.107 464.189 153.278C467.476 151.468 467.081 147.335 465.096 144.668C468.812 142.864 468.214 137.818 464.403 136.515C468.637 132.275 464.211 129.518 460.992 127.037C460.168 125.853 460.456 124.37 460.462 122.994C460.625 117.417 454.609 113.837 448.965 115.777C444.533 113.019 444.803 106.248 437.293 107.201C435.427 103.84 430.882 102.927 427.11 103.665C421.167 104.41 416.961 101.353 412.89 108.345C411.644 111.243 406.546 111.807 407.274 115.41C407.917 118.59 405.74 118.105 405.272 121.071C404.939 123.169 406.558 125.661 405.96 127.696C404.669 129.698 405.503 131.423 406.09 133.414M447.002 141.251C450.29 137.733 452.026 133.008 452.184 128.232C452.274 125.379 451.925 122.447 450.792 119.808C452.201 122.306 452.686 125.402 452.647 128.249C452.556 133.104 450.696 138.02 447.002 141.257" fill="black"/>
<path d="M447.666 272.826C436.023 272.826 417.85 272.256 414.326 272.144C413.125 272.076 412.217 271.084 412.251 269.933C412.29 268.772 413.226 267.858 414.388 267.858H414.461C424.221 268.174 438.898 268.546 448.112 268.546C452.442 268.546 455.103 268.467 456.005 268.304C458.481 267.858 460.669 263.996 461.48 262.017C462.225 258.132 479.732 166.868 483.724 157.953C487.085 150.454 498.367 149.332 504.79 149.332C506.611 149.332 507.885 149.428 508.235 149.456C509.413 149.558 510.287 150.601 510.186 151.779C510.09 152.879 509.148 153.736 508.037 153.736C507.981 153.736 507.925 153.736 507.863 153.73C507.22 153.674 506.148 153.606 504.711 153.606C501.344 153.606 490.169 154.046 487.632 159.707C484.581 166.518 471.917 230.261 465.647 263.021C465.625 263.145 465.591 263.263 465.546 263.382C465.224 264.216 462.27 271.535 456.755 272.521C455.622 272.724 452.56 272.826 447.655 272.826" fill="black"/>
<path d="M504.798 149.361C506.619 149.361 507.894 149.456 508.238 149.485C509.399 149.586 510.262 150.612 510.16 151.774C510.064 152.856 509.14 153.702 508.046 153.702C507.99 153.702 507.933 153.702 507.877 153.697C507.234 153.64 506.163 153.573 504.725 153.573C501.353 153.573 490.161 154.012 487.618 159.69C484.567 166.502 471.903 230.25 465.633 263.01C465.611 263.134 465.577 263.252 465.532 263.371C465.21 264.199 462.267 271.507 456.764 272.494C455.631 272.697 452.569 272.798 447.669 272.798C436.065 272.798 417.858 272.229 414.329 272.116C414.317 272.116 414.301 272.116 414.278 272.116C413.139 272.054 412.248 271.073 412.282 269.939C412.321 268.795 413.246 267.893 414.391 267.893C414.413 267.893 414.436 267.893 414.464 267.893C424.224 268.208 438.896 268.575 448.115 268.575C452.45 268.575 455.112 268.49 456.014 268.332C458.501 267.887 460.7 264.013 461.517 262.012C462.261 258.132 479.775 166.862 483.761 157.965C485.25 154.65 488.469 152.242 493.329 150.815C497.417 149.614 501.821 149.361 504.798 149.361ZM504.798 149.299C498.872 149.299 487.127 150.297 483.705 157.937C479.746 166.784 462.634 255.877 461.461 262C460.784 263.653 458.574 267.814 456.008 268.27C455.039 268.445 452.123 268.513 448.115 268.513C439.178 268.513 424.811 268.163 414.464 267.831C414.442 267.831 414.413 267.831 414.391 267.831C413.224 267.831 412.259 268.761 412.22 269.934C412.181 271.118 413.094 272.11 414.272 272.172C414.289 272.172 414.306 272.172 414.323 272.172C417.131 272.262 435.885 272.855 447.663 272.855C452.078 272.855 455.518 272.77 456.77 272.544C462.307 271.552 465.261 264.216 465.582 263.382C465.628 263.263 465.661 263.139 465.684 263.015C471.954 230.261 484.618 166.519 487.668 159.713C489.907 154.712 498.962 153.629 504.719 153.629C505.954 153.629 507.037 153.68 507.865 153.747C507.922 153.747 507.984 153.753 508.04 153.753C509.157 153.753 510.121 152.902 510.217 151.768C510.318 150.573 509.433 149.518 508.238 149.417C508.035 149.4 506.726 149.293 504.792 149.293" fill="white"/>
<path d="M414.254 272.498C412.907 272.425 411.852 271.269 411.892 269.922C411.914 269.256 412.191 268.636 412.681 268.179C413.166 267.723 413.803 267.48 414.474 267.503C429.444 267.988 452.838 268.506 455.945 267.948C458.353 267.52 460.518 263.42 461.155 261.875C461.882 258.053 479.401 166.743 483.404 157.806C487.927 147.713 506.201 148.92 508.27 149.1C509.646 149.219 510.661 150.437 510.548 151.807C510.43 153.171 509.223 154.197 507.847 154.085C503.212 153.69 490.622 153.949 487.972 159.853C484.933 166.636 472.28 230.345 466.01 263.088C465.982 263.234 465.942 263.375 465.891 263.511C465.564 264.362 462.542 271.856 456.83 272.876C452.224 273.705 418.179 272.634 414.316 272.504H414.26L414.254 272.498Z" fill="black"/>
<path d="M468.685 233.458C453.506 233.435 437.606 233.058 422.449 232.607C420.854 232.55 419.095 232.274 417.595 232.984C415.035 234.044 413.326 236.864 413.259 239.66L413.18 241.104C412.971 244.887 411.877 265.738 411.652 269.962L409.594 269.883L410.208 246.776C410.304 244.628 410.287 240.016 410.507 237.941C411.082 233.108 415.328 228.733 420.397 228.868C428.827 229.105 437.25 229.59 445.674 229.985C452.424 230.368 462.094 230.87 468.753 231.377L468.679 233.469" fill="#77787B"/>
<path d="M495.737 299.535L431.492 298.346" stroke="black" stroke-width="3.46" stroke-miterlimit="10" stroke-linecap="round"/>
<path d="M486.786 329.559L441.25 265.066" stroke="black" stroke-width="3.84" stroke-miterlimit="10" stroke-linecap="round"/>
<path d="M439.758 336.287L484.792 263.748" stroke="black" stroke-width="3.99" stroke-miterlimit="10" stroke-linecap="round"/>
<path d="M462.852 348.059L465.158 251.004" stroke="black" stroke-width="4.26" stroke-miterlimit="10" stroke-linecap="round"/>
<path d="M462.602 308.827C458.232 308.664 454.866 303.532 455.097 297.392C455.328 291.252 459.072 286.386 463.442 286.555C467.812 286.719 471.178 291.85 470.947 297.996C470.716 304.136 466.972 309.002 462.602 308.833" fill="black"/>
<path d="M465.667 287.086C461.545 286.928 458.01 291.597 457.784 297.489C457.564 303.381 460.733 308.298 464.855 308.456C468.977 308.614 472.512 303.945 472.732 298.053C472.952 292.161 469.783 287.238 465.661 287.086" fill="#77787B"/>
<path d="M465.971 306.301C462.661 306.177 460.107 302.298 460.282 297.657C460.457 293.017 463.293 289.34 466.603 289.47C469.912 289.594 472.467 293.473 472.292 298.114C472.117 302.754 469.281 306.425 465.971 306.301Z" fill="black"/>
<path d="M465.971 306.301C462.661 306.177 460.107 302.298 460.282 297.657C460.457 293.017 463.293 289.34 466.603 289.47C469.912 289.594 472.467 293.473 472.292 298.114C472.117 302.754 469.281 306.425 465.971 306.301Z" stroke="black" stroke-width="0.11" stroke-miterlimit="10"/>
<path d="M472.061 298.102C471.909 302.105 469.496 305.263 466.671 305.155C463.846 305.048 461.681 301.716 461.827 297.713C461.974 293.709 464.393 290.552 467.218 290.659C470.043 290.766 472.208 294.098 472.061 298.102Z" fill="#77787B"/>
<path d="M427.514 298.221C426.432 326.887 441.954 350.749 462.185 351.51C482.416 352.271 499.692 329.655 500.775 300.984C501.858 272.318 486.335 248.456 466.104 247.694C445.873 246.933 428.597 269.549 427.514 298.221Z" stroke="#77787B" stroke-width="12.87" stroke-miterlimit="10"/>
<path d="M418.763 132.123C418.774 134.254 418.244 136.38 417.348 138.308C416.626 139.82 415.549 141.365 418.171 141.314C418.696 141.314 419.22 141.252 419.744 141.19C419.237 141.336 418.712 141.443 418.182 141.5C415.301 141.703 416.124 139.904 417.004 138.145C417.929 136.25 418.464 134.209 418.763 132.123Z" fill="black"/>
<path d="M440.25 163.49C448.116 164.663 456.59 164.657 463.531 169.084C468.905 173.279 470.427 181.432 471.589 187.702C472.355 192.568 472.733 197.485 472.666 202.39C472.113 197.518 471.414 192.681 470.444 187.91C469.435 183.225 468.273 178.427 465.973 174.22C464.868 172.14 463.334 170.392 461.225 169.326C454.786 165.83 447.23 165.407 440.25 163.49Z" fill="black"/>
<path d="M376.843 324.806C369.366 323.786 361.078 322.506 353.573 321.35L352.592 321.192C351.289 320.967 350.613 319.534 351.075 318.339C352.643 312.007 353.979 305.624 355.332 299.236C358.461 284.356 361.805 267.982 365.109 253.22C366.434 247.475 367.641 241.718 369.135 236.012C370.889 231.777 374.204 228.09 378.207 225.891C374.165 228.372 370.003 233.288 369.282 238.081C366.062 253.429 363.096 268.822 359.877 284.17C357.413 295.672 355.095 307.22 352 318.587C351.808 319.19 351.802 319.534 352.169 319.98C352.473 320.397 353.285 320.375 353.725 320.499C361.213 321.807 369.434 323.374 376.854 324.801" fill="white"/>
<path d="M351.258 320.746C345.879 320.667 340.483 320.543 335.104 320.402C333.407 320.486 332.081 318.733 332.572 317.12L333.903 310.45C337.562 292.678 341.199 274.894 346.076 257.403C348.219 249.803 351.326 238.729 353.564 231.252C351.737 238.836 348.89 249.955 346.911 257.634C342.338 275.17 338.701 292.943 334.748 310.63L333.266 317.267C332.955 318.242 333.435 319.308 334.388 319.663C334.777 319.838 335.538 319.793 335.978 319.838C341.069 320.126 346.172 320.413 351.258 320.752" fill="white"/>
<path d="M114.831 353.969L581.477 354.753C582.272 354.753 582.915 355.401 582.915 356.19C582.915 356.985 582.272 357.628 581.477 357.628L114.831 358.412C113.607 358.412 112.609 357.42 112.609 356.196C112.609 354.967 113.602 353.969 114.831 353.974" fill="black"/>
<script type="text/ecmascript" xlink:href="https://dev.w3.org/SVG/modules/ref/master/ref2.js"></script>
</svg>
