<svg width="640" height="360" viewBox="0 0 640 360" fill="none" 
xmlns="http://www.w3.org/2000/svg" 
xmlns:xlink="http://www.w3.org/1999/xlink">
<defs>
<ref id="colorOne" param="c1" default="#242C4F" />
<ref id="colorTwo" param="c2" default="#9296A7"/>
</defs>
<g clip-path="url(#clip0_5988_6617)">
<path d="M295.5 124.5C296.5 117.5 304.508 119.5 304.508 119.5L341.508 110.5C341.508 110.5 332.5 132 341.508 147.5C350.516 163 353.008 169 353.008 169C345.508 171.833 330.308 177.6 329.508 178C328.708 178.4 305.508 185.833 294.008 189.5L275.008 168L281.5 144.5C298.498 144.5 294.5 131.5 295.5 124.5Z" fill="white"/>
<path d="M274.039 160.676C274.039 160.676 247.98 150.477 234.58 172.973C221.092 195.625 213.187 343.603 214.076 343.984C214.076 343.984 242.68 344.853 243.354 343.984C243.812 343.398 253.787 288.822 264.865 218.776C270.154 185.348 274.039 160.676 274.039 160.676Z" fill="url(#colorOne)"/>
<path d="M356.367 76.8684C356.367 107.065 329.411 127.034 301.859 127.034C274.307 127.034 261.609 106.909 261.609 76.7122C261.609 46.5153 284.369 23.043 311.931 23.043C339.493 23.043 356.377 46.6813 356.377 76.8684" fill="white"/>
<path d="M295.156 127.024C295.156 127.024 317.799 129.542 329.931 117.312C329.931 117.312 318.638 133.553 295.156 134.578L295.162 127.024H295.156Z" fill="black"/>
<path d="M272.921 66.3086C273.526 66.9625 275.595 66.0353 278.162 65.762C280.719 65.4009 282.944 65.7913 283.374 65.0105C283.559 64.6299 283.149 63.9565 282.144 63.3806C281.149 62.8048 279.528 62.4047 277.772 62.6194C276.015 62.8438 274.541 63.6246 273.721 64.4249C272.882 65.235 272.648 65.9865 272.921 66.3086Z" fill="black"/>
<path d="M291.588 73.3359C291.871 77.9523 290.983 82.6273 289.265 86.9216C287.879 90.2887 285.732 93.7632 291.412 93.3436C292.544 93.2948 293.676 93.0801 294.809 92.8849C293.725 93.2655 292.603 93.5583 291.451 93.7535C285.176 94.4952 286.815 90.5718 288.494 86.619C290.27 82.393 291.188 77.9035 291.578 73.3457" fill="black"/>
<path d="M350.253 58.1401C345.168 39.821 329.669 23.7563 309.925 23.3952C290.406 22.5363 273.199 37.4103 266.67 55.1439C263.176 64.0448 262.044 73.7071 262.219 83.2131C262.463 99.3852 269.227 117.49 285.126 124.077C291.694 126.986 299.014 127.357 306.099 127.669C310.862 127.806 315.732 127.611 320.232 125.883L320.29 126.029C313.566 128.948 306.012 128.596 298.848 128.284C293.978 128.108 289.108 127.249 284.579 125.376C267.782 118.846 260.726 100.127 260.697 83.2522C260.023 61.5854 269.773 38.7864 289.069 27.7676C299.56 21.5018 312.941 20.2037 324.253 25.0446C337.643 30.676 347.774 44.3495 350.253 58.1499" fill="black"/>
<path d="M304.029 63.4087C304.321 64.2578 307.435 63.8967 311.085 64.3847C314.745 64.8043 317.673 65.9072 318.171 65.1557C318.395 64.7946 317.888 63.9943 316.707 63.1549C315.535 62.3254 313.662 61.5153 311.475 61.242C309.289 60.9687 307.279 61.2908 305.942 61.8179C304.595 62.3449 303.912 62.9988 304.038 63.3989" fill="black"/>
<path d="M366.944 64.0633C366.339 54.04 360.17 41.1375 353.924 33.2808C350.498 28.9768 345.755 25.9512 340.992 23.1892C332.511 18.28 323.552 13.9271 313.938 12.0044C304.325 10.0818 293.931 10.7552 285.332 15.4594C277.505 19.7342 271.532 27.2883 269.18 35.8965L271.444 38.5316C276.275 30.6457 283.458 25.0631 292.271 26.0195L329.046 35.3987C340.846 38.4048 348.703 48.3695 349.571 60.5205C349.61 61.1256 349.679 60.3839 349.669 60.8426L345.394 110.413C351.972 107.895 358.882 104.196 360.922 99.8136C364.348 92.4546 367.451 72.164 366.963 64.0633" fill="black"/>
<path d="M271.925 35.5054C273.555 31.5039 277.946 29.103 282.26 28.8785C286.574 28.6638 290.79 30.2937 294.528 32.4506C310.369 41.6053 318.508 63.7211 334.163 73.1881C338.008 75.5207 343.025 73.3833 346.294 76.4674C349.564 79.5515 351.692 84.49 349.876 88.5989C351.975 85.71 354.112 82.782 355.303 79.4149C356.493 76.0478 356.65 72.1438 354.864 69.0499C353.507 66.7076 351.116 64.9118 350.462 62.2864C349.886 59.9733 350.794 57.5529 350.696 55.1715C350.599 52.751 349.457 50.4965 348.256 48.3884C342.127 37.5452 333.695 27.7366 322.832 21.6465C315.736 17.6645 307.626 15.3319 299.496 15.6149C291.366 15.8882 283.236 18.8845 277.293 24.428C273.789 27.6878 270.109 31.0647 271.925 35.4957" fill="black"/>
<path d="M350.312 94.3775C350.37 94.3287 350.565 94.5532 350.985 94.7386C351.395 94.9241 352.107 95.051 352.849 94.7582C354.352 94.1921 355.611 91.7717 355.65 89.1951C355.679 87.8872 355.387 86.6478 354.918 85.6327C354.469 84.5884 353.786 83.8662 353.025 83.7296C352.263 83.5636 351.727 84.0223 351.561 84.4323C351.375 84.8324 351.463 85.1155 351.385 85.1447C351.346 85.1838 351.073 84.9105 351.19 84.3151C351.248 84.0321 351.414 83.6905 351.746 83.4075C352.088 83.1245 352.595 82.978 353.122 83.0268C354.225 83.0952 355.23 84.1004 355.748 85.2228C356.324 86.3549 356.675 87.7409 356.646 89.2048C356.577 92.0937 355.133 94.807 353.064 95.4218C352.058 95.6951 351.209 95.4023 350.78 95.0607C350.331 94.7094 350.253 94.3873 350.302 94.3678" fill="url(#colorTwo)"/>
<path d="M351.613 72.4166C351.613 72.4166 351.3 72.2702 350.744 71.9384C350.197 71.5871 349.348 71.1283 348.343 70.4061C346.342 68.9617 343.561 66.6681 340.613 63.3693C337.637 60.09 334.533 55.8347 331.156 51.0817C327.779 46.3482 324.07 41.0974 319.337 36.3639C316.926 34.0508 314.398 31.9719 311.705 30.3323C309.031 28.6829 306.22 27.4727 303.467 26.5943C297.953 24.818 292.653 24.4276 288.291 24.7302C283.909 25.0034 280.444 25.9306 278.131 26.7211C276.95 27.0823 276.081 27.4727 275.476 27.7069C274.871 27.9411 274.549 28.0582 274.539 28.0387C274.53 28.0192 274.832 27.8631 275.418 27.5898C276.003 27.3165 276.862 26.8871 278.043 26.4869C280.356 25.6183 283.831 24.613 288.262 24.2714C292.673 23.9103 298.041 24.2519 303.653 26.0185C306.454 26.8871 309.314 28.1168 312.046 29.7857C314.789 31.4449 317.365 33.553 319.805 35.8954C324.597 40.6874 328.306 45.9773 331.663 50.7303C335.011 55.5029 338.066 59.7582 340.974 63.057C343.863 66.3753 346.567 68.6982 348.509 70.2012C349.485 70.9429 350.305 71.4407 350.832 71.8213C351.369 72.1922 351.642 72.3971 351.632 72.4166" fill="white"/>
<path d="M348.006 76.4683C348.231 80.382 348.407 84.5105 346.601 87.985C344.795 91.4595 340.238 93.8311 336.832 91.8791C334.06 90.298 333.23 86.7357 332.752 83.5735C331.395 74.4481 330.771 65.225 329.336 56.1094L347.997 76.4488L348.006 76.4683Z" fill="black"/>
<path d="M275.453 28.6952C275.473 28.7831 276.722 28.461 279.015 28.3829C281.299 28.3244 284.666 28.6269 288.492 30.1104C290.395 30.8521 292.425 31.8379 294.436 33.1652C296.447 34.4926 298.496 36.0834 300.565 37.8402C304.674 41.3928 308.929 45.6676 312.56 50.772C314.375 53.329 315.995 55.9544 317.733 58.3846C319.46 60.8246 321.383 63.0303 323.481 64.8456C327.649 68.4665 331.933 70.9943 335.583 72.9463C339.253 74.8885 342.308 76.2451 344.426 77.182C345.421 77.6115 346.231 77.9531 346.875 78.2263C347.442 78.4606 347.744 78.5679 347.754 78.5386C347.764 78.5093 347.49 78.3532 346.944 78.0799C346.319 77.7676 345.529 77.3772 344.562 76.899C342.493 75.8742 339.468 74.4395 335.857 72.4485C332.255 70.4477 328.039 67.8907 323.969 64.2991C321.939 62.513 320.075 60.3561 318.377 57.9357C316.659 55.525 315.058 52.8996 313.214 50.3132C309.534 45.1308 305.221 40.8364 301.043 37.2839C298.935 35.5173 296.866 33.9362 294.797 32.6089C292.738 31.2718 290.649 30.2958 288.697 29.5834C284.774 28.1291 281.319 27.9144 279.006 28.0706C277.844 28.1487 276.946 28.3048 276.351 28.4415C275.756 28.5879 275.453 28.666 275.453 28.6952Z" fill="white"/>
<path d="M348.4 67.6169C348.4 67.6169 348.82 67.9585 349.669 68.4758C350.655 69.0516 351.855 69.7641 353.3 70.6035C353.69 70.8279 354.1 71.0621 354.52 71.3061C354.979 71.5599 355.476 71.7746 356.091 71.8234C356.394 71.843 356.745 71.8137 357.057 71.5989C357.37 71.3842 357.565 71.0329 357.594 70.6522C357.623 69.9007 357.223 69.3444 356.921 68.8369C355.632 66.7678 354.217 64.5036 352.704 62.0929L352.138 62.6199C353.485 63.6154 355.047 64.406 356.745 64.9135C358.443 65.421 360.2 65.6162 361.869 65.5186C362.279 65.5088 362.738 65.4503 363.167 65.2941C363.587 65.1477 364.075 64.8647 364.28 64.3279C364.494 63.8008 364.289 63.225 364.036 62.8834C363.782 62.5126 363.479 62.249 363.216 61.9855C361.088 59.9262 359.488 57.7595 358.336 55.8271C356.033 51.9524 355.379 49.1709 355.232 49.2294C355.183 49.2392 355.31 49.9419 355.681 51.1521C356.072 52.3623 356.726 54.1094 357.838 56.1101C358.951 58.1109 360.532 60.3654 362.689 62.5028C363.226 63.0103 363.753 63.5959 363.548 64.0449C363.382 64.4938 362.562 64.7183 361.81 64.728C360.229 64.8159 358.57 64.6207 356.96 64.1424C355.349 63.6642 353.866 62.9127 352.597 61.9855L350.889 60.7363L352.031 62.5126C353.563 64.9037 355.008 67.1485 356.325 69.198C356.657 69.6958 356.95 70.1838 356.93 70.5937C356.911 71.0036 356.56 71.2378 356.101 71.1988C355.174 71.15 354.334 70.5156 353.524 70.135C352.041 69.3737 350.792 68.7296 349.786 68.2123C348.898 67.7731 348.41 67.5584 348.391 67.5974" fill="white"/>
<path d="M344.562 119.822C355.347 106.919 361.359 90.0252 360.871 73.1992L347.744 82.9103L344.562 119.822Z" fill="black"/>
<path d="M264.721 59.7985C270.655 39.5956 281.586 29.0355 295.475 27.7277C295.836 26.6932 289.424 23.9799 289.814 23.0527L273.847 25.9124C254.874 24.1458 255.635 58.1295 254.903 68.4749C254.483 74.4284 258.836 85.5741 263.726 95.5877C263.345 84.5884 261.286 71.5005 264.721 59.8082" fill="black"/>
<path d="M283.791 141.664L275.739 150.897L249.046 160.647L254.531 273.705L237.773 341.701C237.773 341.701 250.667 343.497 261.891 343.497C273.115 343.497 287.95 343.341 311.666 344.961C335.382 346.581 352.169 344.961 362.417 344.961C372.665 344.961 387.245 347.225 389.129 342.121C390.368 338.764 376.363 238.657 376.363 238.657L374.713 160.998L350.47 155.328L341.032 147.422L306.287 176.272L298.499 166.542L283.791 141.684V141.664Z" fill="url(#colorOne)"/>
<path d="M386.329 321.539C386.329 321.539 385.89 321.827 385.022 322.3C384.066 322.798 382.787 323.475 381.167 324.328C377.801 326.061 372.922 328.571 366.755 331.461C360.578 334.318 353.094 337.597 344.371 340.377C335.677 343.166 325.655 345.431 314.902 345.854C304.169 346.31 293.815 344.873 285.19 341.755C280.867 340.217 277.032 338.248 273.666 336.16C270.328 334.03 267.45 331.841 264.649 330.033C261.878 328.207 259.185 326.771 256.638 325.841C254.101 324.903 251.769 324.421 249.837 324.277C245.944 323.973 243.855 324.784 243.836 324.658C243.836 324.641 243.953 324.599 244.207 324.522C244.46 324.455 244.831 324.328 245.339 324.244C246.344 324.041 247.885 323.846 249.856 323.956C251.828 324.058 254.228 324.506 256.833 325.418C259.439 326.323 262.21 327.751 265.03 329.568C267.879 331.36 270.787 333.532 274.105 335.611C277.452 337.647 281.238 339.566 285.502 341.062C294.011 344.096 304.227 345.499 314.844 345.042C325.48 344.628 335.403 342.406 344.059 339.676C352.743 336.954 360.217 333.743 366.423 330.954C372.62 328.14 377.547 325.714 380.963 324.058C382.621 323.263 383.929 322.629 384.905 322.156C385.812 321.725 386.29 321.514 386.31 321.539" fill="white"/>
<path d="M382.682 293.321C382.682 293.321 382.301 293.653 381.53 294.2C380.759 294.746 379.607 295.556 378.095 296.523C375.079 298.484 370.619 301.217 364.87 304.135C359.122 307.044 352.036 310.108 343.857 312.578C335.688 315.027 326.377 316.823 316.51 317.126C306.643 317.448 297.215 316.247 288.968 313.993C284.849 312.861 280.994 311.523 277.52 309.981C274.036 308.449 270.922 306.761 268.082 305.277C262.421 302.261 257.473 300.495 253.891 300.3C250.319 300.007 248.387 300.788 248.367 300.631C248.367 300.602 248.836 300.466 249.763 300.231C250.69 300.046 252.105 299.831 253.921 299.939C257.58 300.026 262.665 301.734 268.385 304.692C271.264 306.146 274.377 307.785 277.832 309.269C281.287 310.762 285.113 312.06 289.192 313.163C297.371 315.349 306.702 316.511 316.481 316.189C326.26 315.886 335.483 314.139 343.613 311.748C351.743 309.337 358.819 306.37 364.577 303.54C370.345 300.71 374.835 298.074 377.909 296.21C379.383 295.303 380.554 294.58 381.433 294.034C382.243 293.536 382.672 293.292 382.692 293.312" fill="white"/>
<path d="M378.428 268.775C378.428 268.775 378.154 269.126 377.578 269.741C376.993 270.346 376.075 271.195 374.797 272.161C372.24 274.104 368.102 276.397 362.587 278.027C357.093 279.725 350.348 280.838 342.843 281.824C335.338 282.77 327.023 283.366 318.288 283.346C300.788 283.375 285.075 280.809 273.958 278.193C268.395 276.836 263.955 275.548 260.909 274.562C259.465 274.074 258.313 273.684 257.425 273.381C256.635 273.098 256.225 272.942 256.235 272.903C256.244 272.874 256.674 272.971 257.484 273.196C258.382 273.45 259.553 273.791 261.017 274.211C264.081 275.089 268.542 276.28 274.105 277.539C285.231 279.979 300.876 282.429 318.288 282.399C326.984 282.409 335.26 281.853 342.736 280.955C350.212 280.028 356.936 278.974 362.392 277.383C367.867 275.851 371.986 273.684 374.572 271.859C377.168 270.024 378.349 268.687 378.428 268.765" fill="white"/>
<path d="M377.212 241.77C377.212 241.77 376.812 241.936 376.011 242.17C375.123 242.414 373.962 242.736 372.527 243.136C371.014 243.556 369.15 244.044 366.974 244.541C364.797 245.049 362.328 245.674 359.576 246.21C354.081 247.391 347.484 248.553 340.115 249.607C332.746 250.602 324.606 251.451 316.037 251.939C307.468 252.388 299.28 252.447 291.843 252.271C284.406 252.037 277.72 251.608 272.128 251.041C269.327 250.807 266.809 250.466 264.584 250.202C262.368 249.948 260.465 249.665 258.913 249.412C257.439 249.168 256.249 248.982 255.341 248.836C254.531 248.689 254.102 248.601 254.102 248.572C254.102 248.543 254.541 248.572 255.361 248.65C256.278 248.758 257.469 248.885 258.952 249.06C260.514 249.255 262.417 249.48 264.632 249.685C266.848 249.9 269.376 250.202 272.167 250.388C277.759 250.876 284.425 251.227 291.843 251.412C299.26 251.539 307.41 251.461 315.959 251.012C324.499 250.524 332.619 249.704 339.968 248.758C347.318 247.762 353.905 246.669 359.41 245.566C362.172 245.068 364.641 244.493 366.828 244.034C369.014 243.585 370.878 243.156 372.41 242.785C373.864 242.453 375.036 242.189 375.933 241.984C376.744 241.809 377.173 241.731 377.183 241.77" fill="white"/>
<path d="M364.244 214.15C364.244 214.15 363.913 214.297 363.259 214.492C362.507 214.697 361.561 214.96 360.389 215.283C357.901 215.975 354.26 216.825 349.741 217.81C340.704 219.694 328.006 221.587 313.884 221.763C299.761 221.909 287.035 220.807 277.841 220.084C273.342 219.684 269.652 219.362 266.959 219.118C265.758 218.991 264.782 218.894 264.001 218.806C263.328 218.728 262.977 218.669 262.977 218.63C262.977 218.601 263.338 218.591 264.021 218.611C264.802 218.65 265.787 218.689 266.988 218.747C269.691 218.913 273.381 219.138 277.89 219.411C287.093 219.967 299.81 220.963 313.874 220.816C327.928 220.641 340.567 218.864 349.615 217.156C354.133 216.268 357.793 215.517 360.302 214.931C361.482 214.677 362.439 214.472 363.21 214.316C363.874 214.18 364.235 214.131 364.244 214.16" fill="white"/>
<path d="M370.652 184.92C370.652 184.92 370.233 184.998 369.442 185.047C368.554 185.096 367.402 185.164 365.968 185.242C362.835 185.398 358.501 185.613 353.192 185.876C342.407 186.452 327.524 187.565 311.303 190.493C295.043 193.323 280.032 194.485 269.209 193.831C263.802 193.557 259.449 192.991 256.462 192.464C254.969 192.23 253.827 191.937 253.046 191.781C252.266 191.605 251.865 191.498 251.875 191.469C251.875 191.439 252.295 191.478 253.085 191.596C253.876 191.693 255.028 191.918 256.521 192.103C259.507 192.523 263.851 192.982 269.238 193.177C280.013 193.655 294.916 192.396 311.147 189.575C327.397 186.647 342.359 185.623 353.153 185.222C358.55 185.017 362.932 184.92 365.948 184.881C367.383 184.881 368.534 184.871 369.432 184.861C370.233 184.861 370.642 184.891 370.652 184.92Z" fill="white"/>
<mask id="mask0_5988_6617" style="mask-type:luminance" maskUnits="userSpaceOnUse" x="210" y="169" width="49" height="230">
<path d="M234.566 172.972C221.078 195.625 209.308 398.619 210.196 399C210.196 399 214.754 398.815 219.389 398.512C224.679 398.17 229.013 397.79 229.081 397.38C243.652 312.655 231.238 358.526 256.057 272.727C261.923 252.446 254.212 234.01 252.817 221.459C252.817 221.459 259.805 206.204 252.68 187.739C248.63 177.257 244.043 169.039 239.582 169.039C237.875 169.039 236.186 170.24 234.556 172.982" fill="white"/>
</mask>
<g mask="url(#mask0_5988_6617)">
<path d="M316.888 261.222C316.888 261.222 316.615 261.573 316.039 262.188C315.454 262.793 314.536 263.642 313.258 264.609C310.701 266.551 306.563 268.844 301.048 270.474C295.553 272.173 288.809 273.285 281.304 274.271C273.799 275.218 265.483 275.813 256.748 275.793C239.249 275.823 223.536 273.256 212.419 270.64C206.856 269.284 202.416 267.995 199.37 267.01C197.926 266.522 196.774 266.131 195.886 265.829C195.096 265.546 194.686 265.389 194.695 265.35C194.705 265.321 195.135 265.419 195.945 265.643C196.843 265.897 198.014 266.239 199.478 266.658C202.542 267.537 207.003 268.727 212.566 269.986C223.692 272.426 239.337 274.876 256.748 274.847C265.444 274.856 273.721 274.3 281.197 273.402C288.673 272.475 295.397 271.421 300.853 269.83C306.328 268.298 310.447 266.131 313.033 264.306C315.629 262.471 316.81 261.134 316.888 261.212" fill="white"/>
<path d="M315.688 234.217C315.688 234.217 315.288 234.383 314.488 234.617C313.6 234.861 312.438 235.183 311.004 235.583C309.491 236.003 307.627 236.491 305.45 236.989C303.274 237.496 300.805 238.121 298.052 238.658C292.558 239.839 285.96 241 278.591 242.054C271.223 243.05 263.083 243.899 254.514 244.387C245.945 244.836 237.756 244.894 230.319 244.718C222.882 244.484 216.197 244.055 210.605 243.489C207.803 243.254 205.285 242.913 203.06 242.649C200.845 242.396 198.942 242.113 197.39 241.859C195.916 241.615 194.725 241.429 193.818 241.283C193.008 241.137 192.578 241.049 192.578 241.019C192.578 240.99 193.017 241.019 193.837 241.098C194.755 241.205 195.945 241.332 197.429 241.507C198.99 241.703 200.893 241.927 203.109 242.132C205.324 242.347 207.852 242.649 210.644 242.835C216.236 243.323 222.902 243.674 230.319 243.86C237.737 243.986 245.886 243.908 254.436 243.459C262.976 242.971 271.096 242.152 278.445 241.205C285.794 240.209 292.382 239.116 297.887 238.013C300.649 237.516 303.118 236.94 305.304 236.481C307.49 236.032 309.354 235.603 310.887 235.232C312.341 234.9 313.512 234.637 314.41 234.432C315.22 234.256 315.649 234.178 315.659 234.217" fill="white"/>
<path d="M302.729 206.596C302.729 206.596 302.397 206.742 301.743 206.937C300.992 207.142 300.045 207.406 298.874 207.728C296.385 208.421 292.745 209.27 288.226 210.256C279.188 212.139 266.491 214.033 252.368 214.208C238.246 214.355 225.519 213.252 216.325 212.53C211.826 212.13 208.137 211.807 205.443 211.563C204.243 211.437 203.267 211.339 202.486 211.251C201.812 211.173 201.461 211.114 201.461 211.075C201.461 211.046 201.822 211.036 202.505 211.056C203.286 211.095 204.272 211.134 205.472 211.193C208.176 211.358 211.865 211.583 216.374 211.856C225.577 212.413 238.294 213.408 252.358 213.262C266.413 213.086 279.052 211.31 288.099 209.602C292.618 208.714 296.278 207.962 298.786 207.376C299.967 207.123 300.923 206.918 301.694 206.762C302.358 206.625 302.719 206.576 302.729 206.605" fill="white"/>
<path d="M294.057 317.205C294.057 317.205 293.725 317.351 293.071 317.547C292.32 317.752 291.373 318.015 290.202 318.337C287.713 319.03 284.073 319.879 279.554 320.865C270.516 322.749 257.819 324.642 243.696 324.818C229.574 324.964 216.847 323.861 207.653 323.139C203.154 322.739 199.465 322.417 196.771 322.173C195.571 322.046 194.595 321.948 193.814 321.861C193.14 321.782 192.789 321.724 192.789 321.685C192.789 321.656 193.15 321.646 193.833 321.665C194.614 321.704 195.6 321.743 196.8 321.802C199.504 321.968 203.193 322.192 207.702 322.466C216.906 323.022 229.623 324.017 243.687 323.871C257.741 323.695 270.38 321.919 279.427 320.211C283.946 319.323 287.606 318.571 290.114 317.986C291.295 317.732 292.251 317.527 293.022 317.371C293.686 317.234 294.047 317.186 294.057 317.215" fill="white"/>
<path d="M300.48 287.982C300.48 287.982 300.061 288.06 299.27 288.109C298.382 288.158 297.23 288.226 295.796 288.304C292.663 288.461 288.329 288.675 283.02 288.939C272.235 289.515 257.352 290.627 241.131 293.555C224.871 296.386 209.86 297.547 199.037 296.893C193.63 296.62 189.277 296.054 186.29 295.527C184.797 295.292 183.655 295 182.874 294.844C182.094 294.668 181.694 294.561 181.703 294.531C181.703 294.502 182.123 294.541 182.914 294.658C183.704 294.756 184.856 294.98 186.349 295.166C189.335 295.585 193.679 296.044 199.066 296.239C209.841 296.717 224.744 295.458 240.975 292.638C257.225 289.71 272.187 288.685 282.981 288.285C288.378 288.08 292.76 287.982 295.776 287.943C297.211 287.943 298.362 287.934 299.26 287.924C300.061 287.924 300.471 287.953 300.48 287.982Z" fill="white"/>
</g>
<mask id="mask1_5988_6617" style="mask-type:luminance" maskUnits="userSpaceOnUse" x="213" y="73" width="193" height="273">
<path d="M405.847 73.6367H213.578V345.936H405.847V73.6367Z" fill="white"/>
</mask>
<g mask="url(#mask1_5988_6617)">
<path d="M302.845 173.226C302.845 173.226 302.679 173.655 302.24 174.368C301.801 175.08 301.108 176.105 300.21 177.354C298.434 179.882 295.643 183.288 292.812 187.534L292.402 188.149L292.07 187.495C290.47 184.401 288.762 180.946 287.025 177.296C283.599 170.083 280.7 163.466 278.641 158.664C277.616 156.263 276.796 154.311 276.259 152.945C275.713 151.588 275.449 150.827 275.508 150.798C275.567 150.768 275.947 151.481 276.591 152.798C277.294 154.292 278.192 156.166 279.246 158.391C281.54 163.3 284.546 169.761 287.874 176.895C289.611 180.536 291.29 183.991 292.841 187.104L292.1 187.065C295.047 182.781 297.917 179.482 299.8 177.042C301.733 174.631 302.767 173.167 302.855 173.216" fill="black"/>
<path d="M305.001 345.928C305.001 345.928 304.965 345.786 304.941 345.509C304.929 345.183 304.905 344.781 304.882 344.278C304.858 343.131 304.822 341.54 304.774 339.53C304.714 335.343 304.618 329.39 304.51 322.062C304.271 307.266 303.947 286.917 303.588 264.442C303.289 241.933 303.312 221.551 303.612 206.804C303.756 199.427 303.935 193.465 304.127 189.345C304.235 187.327 304.307 185.744 304.367 184.597C304.402 184.094 304.438 183.684 304.462 183.366C304.486 183.09 304.51 182.947 304.534 182.947C304.558 182.947 304.57 183.09 304.582 183.366C304.582 183.693 304.594 184.094 304.606 184.605C304.606 185.752 304.594 187.335 304.582 189.353C304.546 193.54 304.498 199.486 304.438 206.813C304.343 221.559 304.462 241.933 304.75 264.442C305.049 286.942 305.325 307.316 305.325 322.062C305.337 329.44 305.301 335.402 305.229 339.53C305.181 341.54 305.145 343.131 305.121 344.278C305.097 344.781 305.073 345.191 305.061 345.518C305.037 345.794 305.025 345.936 305.001 345.936" fill="black"/>
<path d="M349.371 157.475C349.371 157.475 348.883 158.158 347.877 159.261C346.726 160.49 345.281 162.042 343.554 163.897C339.874 167.781 334.741 173.11 329.031 178.946C326.172 181.855 323.449 184.617 320.95 187.154C320.306 187.779 319.769 188.403 319.047 188.989C318.686 189.262 318.256 189.516 317.759 189.594C317.261 189.682 316.734 189.555 316.343 189.311C315.553 188.813 315.143 188.081 314.753 187.467C314.372 186.852 314.011 186.247 313.659 185.671C312.361 183.494 311.268 181.669 310.409 180.225C309.658 178.927 309.268 178.195 309.326 178.165C309.385 178.126 309.873 178.8 310.722 180.039C311.649 181.445 312.83 183.221 314.226 185.329C314.596 185.895 314.977 186.481 315.367 187.096C315.758 187.691 316.177 188.325 316.744 188.657C317.3 188.999 317.954 188.852 318.549 188.355C319.135 187.876 319.72 187.184 320.335 186.569C322.814 184.012 325.518 181.23 328.358 178.312C334.067 172.475 339.279 167.225 343.085 163.448C344.901 161.681 346.413 160.198 347.624 159.017C348.707 157.982 349.332 157.436 349.38 157.484" fill="black"/>
<path d="M281.228 163.546C281.258 163.702 278.72 164.151 274.748 165.283C270.775 166.405 265.378 168.328 259.805 171.256C254.233 174.203 249.606 177.561 246.434 180.216C243.263 182.86 241.457 184.686 241.34 184.578C241.291 184.529 241.701 184.041 242.482 183.173C243.253 182.304 244.453 181.113 245.995 179.718C249.079 176.917 253.715 173.423 259.366 170.436C265.017 167.469 270.522 165.625 274.582 164.649C276.612 164.161 278.271 163.848 279.423 163.702C280.574 163.546 281.218 163.487 281.228 163.556" fill="white"/>
<path d="M379.791 171.478C379.732 171.605 377.898 170.932 374.931 169.849C371.964 168.765 367.855 167.311 363.277 165.847C358.69 164.393 354.493 163.212 351.448 162.382C348.403 161.553 346.52 161.045 346.539 160.909C346.568 160.791 348.511 161.074 351.605 161.738C354.698 162.402 358.944 163.495 363.56 164.959C368.167 166.423 372.256 167.994 375.175 169.234C378.093 170.473 379.84 171.361 379.791 171.478Z" fill="white"/>
<path d="M398.717 174.593C396.667 166.824 387.327 160.704 387.035 161.105C374.132 153.892 342.12 155.707 342.12 155.707L348.288 174.183L336.527 176.203C336.527 176.203 323.615 234.128 322.825 245.429C322.337 252.437 323.01 265.818 324.952 274.943C326.377 281.658 332.643 287.26 338.85 290.188C340.88 291.144 342.998 292.003 344.979 292.53C352.104 294.434 360.527 290.666 360.527 290.666C361.269 291.301 384.477 263.505 394.335 233.825C397.458 224.426 401.987 186.997 398.717 174.583" fill="url(#colorOne)"/>
<path d="M338.444 175.881L336.531 176.281L336.59 176.232L328.548 218.863C327.23 226.242 325.366 235.504 324.37 242.843C323.59 249.04 323.853 255.336 324.292 261.562C324.839 266.784 325.034 272.327 326.908 277.237C329.006 282.048 332.91 285.962 337.39 288.675C343.412 292.091 350.966 294.726 357.671 291.632C367.753 287.397 374.653 277.793 378.576 267.877C374.243 279.794 361.262 296.093 347.091 293.516C338.054 291.915 329.25 286.469 325.219 277.998C323.131 272.864 322.819 267.184 322.204 261.748C321.735 255.375 321.384 248.933 322.243 242.57C323.414 234.489 325.053 226.476 326.703 218.512C329.728 204.34 332.93 190.218 336.492 176.174H336.541L338.483 175.9L338.444 175.881Z" fill="black"/>
<path d="M381.751 181.961C381.897 182.088 379.291 185.163 376.285 189.076C373.27 193 371.21 196.445 371.054 196.357C370.986 196.318 371.405 195.401 372.235 193.985C373.055 192.57 374.294 190.687 375.807 188.705C377.32 186.724 378.794 185.026 379.887 183.816C380.98 182.615 381.702 181.903 381.761 181.952" fill="url(#colorTwo)"/>
<path d="M342.264 74.0469C341.796 74.8569 314.42 121.275 314.42 121.275L313.922 123.139L330.894 139.428L333.549 137.788L359.813 91.0387L344.343 74.1542L342.255 74.0469H342.264Z" fill="url(#colorOne)"/>
<path d="M343.136 174.798C343.351 172.797 345.352 163.438 346.162 159.758L346.201 159.592L346.064 159.485C346.064 159.485 343.283 157.201 343.058 152.761C342.834 148.222 345.108 139.614 345.137 139.526L345.157 139.438L345.127 139.36C344.688 138.218 343.575 135.076 343.683 134.197C343.829 132.987 338.891 131.699 335.943 131.045L335.855 131.025L335.768 131.064C335.768 131.064 330.917 133.368 328.418 133.368C328.018 133.368 327.716 133.309 327.501 133.192C325.969 132.382 326.72 130.303 326.896 129.883L334.099 125.326L340.735 124.916L349.773 127.346L349.89 127.219C349.978 127.112 352.154 124.564 350.954 122.925C349.89 121.48 345.293 113.887 345.254 113.809L345.196 113.711L334.977 110.988L334.899 111.018C334.899 111.018 333.123 111.662 331.073 111.662C328.789 111.662 327.072 110.901 325.969 109.398L326.486 107.465L333.581 105.699L333.386 105.377C333.386 105.377 332.664 104.176 333.045 102.878C333.318 101.941 334.089 101.17 335.338 100.565C339.057 98.7789 342.736 97.8127 343.273 97.6761L349.275 99.2767L348.69 98.6032C346.718 96.3292 343.585 92.396 343.595 91.4883C343.595 91.1468 343.507 90.6685 343.4 90.1122C343.058 88.3554 342.59 85.9643 344.405 85.0176L358.274 99.6085L368.326 116.298C368.414 116.386 372.152 120.026 371.401 122.837C370.62 125.755 365.75 167.293 365.32 171.002L343.185 174.808L343.136 174.798Z" fill="white"/>
<path d="M344.299 85.359L357.973 99.7547L368.026 116.444L368.065 116.503L368.113 116.551C369.138 117.537 371.656 120.563 371.071 122.768C370.3 125.657 365.566 165.956 365 170.767L343.431 174.476C343.763 172.173 345.353 164.638 346.408 159.817L346.476 159.485L346.212 159.27C346.212 159.27 343.519 157.055 343.304 152.751C343.079 148.261 345.344 139.682 345.373 139.604L345.422 139.428L345.354 139.262C344.758 137.711 343.841 134.958 343.929 134.226C343.977 133.816 344.124 132.587 335.974 130.771L335.789 130.732L335.623 130.81C335.623 130.81 330.821 133.085 328.391 133.085C327.952 133.085 327.718 133.006 327.6 132.948C326.351 132.284 326.888 130.576 327.093 130.059L334.159 125.579L340.64 125.179L349.511 127.551L349.843 127.639L350.067 127.375C350.165 127.258 352.468 124.545 351.151 122.749C350.097 121.314 345.51 113.731 345.461 113.653L345.344 113.467L345.129 113.409L335.096 110.735L334.93 110.686L334.764 110.744C334.764 110.744 333.027 111.379 331.026 111.379C328.889 111.379 327.278 110.695 326.214 109.339L326.654 107.689L333.232 106.05L333.954 105.864L333.564 105.23C333.564 105.23 332.9 104.117 333.251 102.946C333.505 102.087 334.227 101.375 335.399 100.809C338.961 99.1008 342.494 98.1444 343.216 97.9589L348.291 99.3155L350.019 99.7742L348.848 98.4274C346.437 95.6556 343.821 92.2104 343.821 91.4979C343.821 91.127 343.733 90.639 343.616 90.0632C343.226 88.0624 342.992 86.2081 344.299 85.3687M344.417 84.6758C341.537 85.9348 343.294 90.1315 343.275 91.4784C343.255 92.8252 348.438 98.7787 348.438 98.7787L343.226 97.3831C343.226 97.3831 339.244 98.3493 335.164 100.311C331.085 102.273 333.095 105.513 333.095 105.513L326.205 107.231L325.609 109.446C326.995 111.408 329.133 111.925 331.016 111.925C333.144 111.925 334.94 111.262 334.94 111.262L344.973 113.936C344.973 113.936 349.609 121.607 350.692 123.071C351.766 124.545 349.638 127.024 349.638 127.024L340.679 124.632L333.974 125.042L326.644 129.688C326.644 129.688 325.414 132.401 327.337 133.426C327.61 133.572 327.971 133.631 328.391 133.631C330.977 133.631 335.857 131.298 335.857 131.298C335.857 131.298 343.528 133.006 343.392 134.158C343.255 135.31 344.856 139.458 344.856 139.458C344.856 139.458 342.533 148.144 342.777 152.78C343.011 157.406 345.89 159.7 345.89 159.7C345.89 159.7 342.767 173.929 342.845 175.13L365.517 171.236C365.517 171.236 370.817 125.911 371.617 122.905C372.417 119.899 368.514 116.151 368.514 116.151L358.432 99.4131L344.426 84.6758H344.417Z" fill="black"/>
<path d="M357.568 117.645C357.46 117.694 356.865 116.113 355.294 113.927C353.751 111.76 351.077 109.047 347.378 107.29C343.679 105.534 339.892 105.182 337.228 105.348C334.544 105.514 332.944 106.051 332.914 105.934C332.904 105.895 333.295 105.729 334.017 105.514C334.749 105.299 335.832 105.055 337.189 104.919C339.893 104.626 343.816 104.919 347.632 106.734C351.448 108.549 354.152 111.399 355.635 113.673C356.387 114.815 356.884 115.811 357.177 116.513C357.47 117.216 357.587 117.626 357.548 117.636" fill="black"/>
<path d="M362.165 113.476C362.057 113.515 361.55 112.178 360.379 110.217C359.217 108.255 357.285 105.717 354.611 103.482C351.927 101.257 349.077 99.8224 346.94 99.0318C344.792 98.2315 343.387 97.9778 343.406 97.8704C343.406 97.8314 343.768 97.8704 344.412 97.968C345.056 98.0559 345.973 98.2803 347.076 98.6317C348.189 98.9733 349.477 99.5101 350.843 100.223C352.2 100.964 353.625 101.882 355.001 103.014C356.367 104.166 357.529 105.395 358.505 106.596C359.452 107.806 360.213 108.977 360.759 110.002C361.306 111.027 361.687 111.886 361.892 112.51C362.106 113.125 362.204 113.467 362.165 113.476Z" fill="black"/>
<path d="M365.51 171.236C366.681 189.477 367.12 207.972 366.827 226.252C365.656 208.011 365.217 189.516 365.51 171.236Z" fill="black"/>
<path d="M367.203 218.317C371.907 217.234 376.787 218.395 381.423 219.332C386.03 220.464 390.812 221.772 394.667 224.651C390.607 222.143 385.913 220.923 381.306 219.85C376.67 218.903 371.956 217.693 367.203 218.327" fill="white"/>
<path d="M332.492 206.546C339.812 202.661 356.999 201.207 364.817 204.077C359.507 202.7 353.934 202.993 348.518 203.413C343.111 203.95 337.538 204.389 332.492 206.546Z" fill="white"/>
<path d="M334.961 247.196L336.396 246.649C337.782 246.005 339.392 245.849 340.895 245.595C346.917 244.648 353.29 243.848 359.243 245.517C355.232 244.678 351.104 244.961 347.053 245.322C343.003 245.839 338.953 246.249 334.961 247.196Z" fill="white"/>
<path d="M364.203 257.474C364.203 257.474 364.242 257.191 364.369 256.664C364.496 256.137 364.72 255.376 364.935 254.381C365.404 252.39 365.989 249.491 366.37 245.85C366.77 242.22 366.955 237.867 366.877 233.036C366.838 230.615 366.731 228.088 366.594 225.452C366.448 222.827 366.253 220.094 366.204 217.293C366.145 214.492 366.175 211.759 366.253 209.114C366.301 207.797 366.35 206.499 366.399 205.23C366.467 203.981 366.477 202.683 366.877 201.482C367.258 200.262 368.039 199.267 368.8 198.408C369.571 197.549 370.391 196.788 371.142 196.017C372.665 194.494 374.08 193.069 375.388 191.771C378.033 189.234 380.336 187.34 381.927 186.052C382.727 185.408 383.362 184.92 383.791 184.598C384.221 184.276 384.455 184.12 384.474 184.129C384.484 184.149 384.279 184.334 383.869 184.695C383.41 185.086 382.815 185.593 382.083 186.228C380.541 187.575 378.296 189.507 375.69 192.074C374.412 193.391 373.016 194.826 371.513 196.358C370.079 197.92 368.146 199.433 367.414 201.648C367.053 202.761 367.043 203.981 366.985 205.259C366.946 206.528 366.897 207.816 366.848 209.134C366.78 211.769 366.75 214.492 366.809 217.283C366.858 220.075 367.053 222.788 367.19 225.423C367.326 228.058 367.414 230.606 367.443 233.026C367.492 237.877 367.268 242.259 366.809 245.899C366.37 249.549 365.726 252.458 365.179 254.439C364.925 255.435 364.662 256.186 364.506 256.703C364.34 257.221 364.242 257.484 364.223 257.474" fill="black"/>
<path d="M331.898 227.149C338.447 223.43 355.537 222.727 362.554 225.538C357.547 224.123 352.277 224.269 347.124 224.523C341.99 224.923 336.691 225.07 331.898 227.158" fill="white"/>
<path d="M331.383 274.25C334.701 270.161 339.669 267.896 344.275 265.593C348.989 263.475 353.977 261.406 359.208 261.289C354.035 261.855 349.194 263.953 344.519 266.11C339.913 268.404 335.043 270.522 331.383 274.25Z" fill="white"/>
<path d="M367.359 236.441C371.136 236.255 374.845 237.348 378.486 238.256C382.087 239.281 385.766 240.54 388.782 242.824C385.6 240.803 381.96 239.73 378.359 238.724C374.709 237.866 371.088 236.909 367.359 236.441Z" fill="white"/>
<path d="M367.25 253.365C372.403 254.136 377.81 255.473 381.987 258.733C377.42 256.098 372.276 254.858 367.25 253.365Z" fill="white"/>
<path d="M367.953 204.506C375.029 201.5 390.703 201.471 397.721 204.692C392.968 203.033 387.844 202.876 382.856 202.847C377.869 202.925 372.735 202.916 367.953 204.506Z" fill="white"/>
<path d="M368.125 187.184C372.302 180.762 385.341 171.948 392.925 170.729C388.055 171.997 383.721 174.73 379.564 177.492C375.464 180.342 371.199 183.192 368.125 187.184Z" fill="white"/>
<path d="M252.55 218.482C254.717 227.354 255.068 236.558 255.42 245.654C255.693 254.76 255.644 263.866 255.742 272.952C255.79 274.094 255.586 275.353 255.381 276.485C251.769 293.194 246.402 309.454 241.766 325.88C242.8 321.449 243.932 317.037 245.064 312.626C247.992 300.972 251.73 287.933 253.995 276.231C254.18 275.119 254.356 274.123 254.287 272.981C253.985 263.866 254.034 254.769 253.975 245.683C253.868 236.606 253.887 227.491 252.56 218.492" fill="black"/>
</g>
<path d="M61.9856 341.168L579.834 342.334C580.905 342.334 581.765 343.294 581.765 344.479C581.765 345.654 580.905 346.614 579.834 346.614L61.9856 347.771C60.3387 347.771 59 346.3 59 344.479C59 342.648 60.3387 341.168 61.9856 341.177" fill="black"/>
</g>
<defs>
<clipPath id="clip0_5988_6617">
<rect width="640" height="360" fill="white"/>
</clipPath>
</defs>
<script type="text/ecmascript" xlink:href="https://dev.w3.org/SVG/modules/ref/master/ref2.js"></script></svg>
