<svg width="640" height="360" viewBox="0 0 640 360" fill="none" 
xmlns="http://www.w3.org/2000/svg" 
xmlns:xlink="http://www.w3.org/1999/xlink">
<defs>
<ref id="colorOne" param="c1" default="#242C4F" />
<ref id="colorTwo" param="c2" default="#9296A7"/>
</defs>
<g clip-path="url(#clip0_5988_6400)">
<path d="M222 45V62.5L240.5 64.5V61L240 58L243.5 57.5L249 55.5L260.5 44V30L244 13.5H229L215.5 34.5V45H222Z" fill="white"/>
<path d="M104.817 325L533.744 325.53C534.631 325.53 535.344 325.966 535.344 326.504C535.344 327.038 534.631 327.474 533.744 327.474L104.817 328C103.453 328 102.344 327.332 102.344 326.504C102.344 325.673 103.453 325 104.817 325.004" fill="black"/>
<mask id="mask0_5988_6400" style="mask-type:luminance" maskUnits="userSpaceOnUse" x="102" y="-2" width="437" height="367">
<path d="M538.297 -2H102V365H538.297V-2Z" fill="white"/>
</mask>
<g mask="url(#mask0_5988_6400)">
<g opacity="0.3">
<mask id="mask1_5988_6400" style="mask-type:luminance" maskUnits="userSpaceOnUse" x="291" y="160" width="10" height="4">
<path d="M300.78 160.172H291.023V163.322H300.78V160.172Z" fill="white"/>
</mask>
<g mask="url(#mask1_5988_6400)">
<path d="M300.777 162.402C300.758 162.197 300.407 161.736 300.243 161.604C299.268 160.797 298.333 160.478 296.833 160.241C294.836 159.945 293.022 160.619 291.485 161.932C291.248 162.137 291.002 162.402 291.025 162.716C291.052 163.122 291.531 163.368 291.937 163.314C292.342 163.259 292.684 163.008 293.031 162.794C294.964 161.609 297.521 161.531 299.527 162.593C299.76 162.716 299.997 162.858 300.257 162.858C300.517 162.858 300.804 162.657 300.777 162.397" fill="white"/>
</g>
</g>
<g opacity="0.3">
<mask id="mask2_5988_6400" style="mask-type:luminance" maskUnits="userSpaceOnUse" x="290" y="163" width="2" height="3">
<path d="M291.389 163.771H290.039V165.121H291.389V163.771Z" fill="white"/>
</mask>
<g mask="url(#mask2_5988_6400)">
<path d="M291.386 164.487C291.363 164.861 291.039 165.144 290.67 165.116C290.296 165.093 290.014 164.77 290.041 164.401C290.064 164.027 290.387 163.744 290.757 163.771C291.13 163.794 291.413 164.118 291.386 164.487Z" fill="white"/>
</g>
</g>
<g opacity="0.3">
<mask id="mask3_5988_6400" style="mask-type:luminance" maskUnits="userSpaceOnUse" x="283" y="151" width="2" height="2">
<path d="M284.498 151.605H283.148V152.955H284.498V151.605Z" fill="white"/>
</mask>
<g mask="url(#mask3_5988_6400)">
<path d="M284.495 152.325C284.472 152.699 284.149 152.982 283.779 152.954C283.406 152.931 283.123 152.608 283.15 152.238C283.173 151.865 283.497 151.582 283.866 151.609C284.24 151.632 284.523 151.956 284.495 152.325Z" fill="white"/>
</g>
</g>
<path d="M361.018 338.422C361.081 345.251 355.602 350.841 348.772 350.904C341.943 350.968 336.353 345.488 336.29 338.659C336.226 331.829 341.706 326.24 348.535 326.176C355.364 326.113 360.954 331.592 361.018 338.422Z" fill="black"/>
<path d="M357.114 338.457C357.159 343.134 353.403 346.964 348.725 347.009C344.047 347.055 340.218 343.298 340.172 338.621C340.127 333.943 343.883 330.114 348.561 330.073C353.238 330.027 357.068 333.784 357.114 338.461" fill="black"/>
<path d="M340.276 319.073C340.139 319.21 340.203 322.36 340.276 324.708C340.317 326.117 341.475 327.229 342.883 327.215H343.567L343.987 338.421C344.082 340.947 346.17 342.939 348.696 342.912C350.552 342.894 352.22 341.781 352.945 340.072C354.96 335.33 358.799 326.258 358.799 326.258L358.731 319.109L340.28 319.068L340.276 319.073Z" fill="url(#colorOne)"/>
<path d="M350.808 338.521C350.818 339.711 349.865 340.687 348.675 340.696C347.485 340.709 346.509 339.752 346.5 338.562C346.486 337.372 347.444 336.397 348.634 336.383C349.824 336.369 350.799 337.327 350.808 338.517" fill="black"/>
<g opacity="0.3">
<mask id="mask4_5988_6400" style="mask-type:luminance" maskUnits="userSpaceOnUse" x="337" y="329" width="7" height="7">
<path d="M343.061 329.133H337.805V335.588H343.061V329.133Z" fill="white"/>
</mask>
<g mask="url(#mask4_5988_6400)">
<path d="M342.227 329.133C340.239 330.104 338.666 331.896 337.955 333.988C337.859 334.275 337.777 334.576 337.814 334.873C337.85 335.173 338.037 335.47 338.324 335.561C338.616 335.648 338.935 335.506 339.145 335.287C339.354 335.069 339.482 334.786 339.623 334.517C340.134 333.519 340.85 332.625 341.711 331.909C342.049 331.627 342.414 331.371 342.687 331.025C342.961 330.683 343.138 330.227 343.029 329.798C342.92 329.374 342.45 329.037 342.035 329.178" fill="white"/>
</g>
</g>
<path d="M358.097 326.965C358.097 327.042 354.824 327.138 350.789 327.179C346.75 327.216 343.481 327.184 343.477 327.106C343.477 327.029 346.745 326.933 350.785 326.892C354.819 326.856 358.093 326.887 358.097 326.965Z" fill="black"/>
<path d="M349.369 345.656C349.433 352.486 343.953 358.075 337.124 358.139C330.294 358.203 324.705 352.723 324.641 345.893C324.577 339.064 330.057 333.475 336.887 333.411C343.716 333.347 349.305 338.827 349.369 345.656Z" fill="black"/>
<path d="M345.481 345.697C345.526 350.374 341.77 354.204 337.092 354.25C332.415 354.295 328.585 350.539 328.539 345.861C328.494 341.184 332.25 337.354 336.928 337.313C341.606 337.267 345.435 341.024 345.481 345.701" fill="black"/>
<path d="M328.643 326.307C328.506 326.444 328.57 329.594 328.643 331.942C328.684 333.351 329.842 334.463 331.251 334.45H331.935L332.354 345.656C332.45 348.181 334.538 350.174 337.063 350.146C338.919 350.128 340.587 349.016 341.312 347.306C343.327 342.565 347.166 333.492 347.166 333.492L347.098 326.344L328.647 326.303L328.643 326.307Z" fill="url(#colorOne)"/>
<path d="M339.168 345.757C339.177 346.947 338.224 347.922 337.034 347.936C335.844 347.95 334.869 346.992 334.86 345.802C334.846 344.613 335.803 343.637 336.993 343.623C338.183 343.61 339.159 344.567 339.172 345.757" fill="black"/>
<path d="M346.457 334.199C346.457 334.277 343.183 334.373 339.149 334.414C335.109 334.45 331.84 334.418 331.836 334.341C331.836 334.263 335.105 334.167 339.144 334.126C343.179 334.09 346.452 334.122 346.457 334.199Z" fill="black"/>
<path d="M354.409 284.798C351.492 288.627 348.574 292.461 345.661 296.291C341.872 301.265 338.083 306.243 334.295 311.217C333.976 311.636 333.648 312.051 333.338 312.475C331.801 314.559 331.446 317.417 332.444 319.811C333.739 322.92 336.634 324.721 339.98 324.689C342.588 324.661 345.196 324.639 347.803 324.611C353.169 324.561 358.531 324.506 363.897 324.456C370.922 324.388 377.947 324.32 384.973 324.256C392.6 324.183 400.232 324.11 407.859 324.037C414.912 323.969 421.965 323.9 429.022 323.832C434.443 323.782 439.863 323.727 445.284 323.677C447.978 323.649 450.668 323.627 453.362 323.599C453.481 323.599 453.6 323.599 453.718 323.599C454.666 323.59 455.565 322.751 455.51 321.776C455.455 320.795 454.698 319.975 453.686 319.984C451.84 320.002 449.998 320.02 448.152 320.039C443.369 320.084 438.587 320.13 433.8 320.175C427.103 320.239 420.405 320.303 413.708 320.367L391.278 320.581C384.038 320.65 376.794 320.723 369.554 320.791C363.637 320.846 357.724 320.905 351.806 320.96C348.291 320.991 344.776 321.028 341.261 321.06C340.728 321.064 340.194 321.078 339.661 321.074C339.606 321.074 339.565 321.074 339.501 321.074C339.351 321.074 339.196 321.06 339.045 321.051C339.447 321.074 339.123 321.064 339.013 321.042C338.754 320.987 338.498 320.932 338.243 320.855C338.166 320.827 337.732 320.65 338.152 320.836C337.983 320.764 337.814 320.681 337.655 320.595C337.536 320.531 337.418 320.458 337.304 320.385C337.231 320.34 336.88 320.061 337.231 320.349C337.058 320.207 336.884 320.061 336.725 319.902C336.629 319.806 336.543 319.706 336.451 319.606C336.141 319.286 336.652 319.916 336.401 319.551C336.223 319.291 336.055 319.036 335.909 318.753C335.868 318.671 335.704 318.261 335.872 318.698C335.827 318.575 335.777 318.448 335.731 318.32C335.663 318.106 335.603 317.891 335.553 317.673C335.53 317.572 335.489 317.135 335.535 317.622C335.521 317.486 335.508 317.353 335.498 317.217C335.489 317.08 335.489 316.943 335.494 316.811C335.494 316.706 335.562 316.104 335.485 316.61C335.526 316.337 335.581 316.063 335.658 315.794C335.685 315.703 335.717 315.616 335.745 315.525C335.868 315.078 335.571 315.844 335.781 315.425C335.913 315.161 336.046 314.896 336.21 314.645C336.351 314.431 336.492 314.24 336.205 314.627C339.141 310.72 342.127 306.849 345.086 302.961C348.838 298.037 352.586 293.109 356.333 288.185C356.552 287.902 356.766 287.615 356.985 287.328C357.578 286.553 357.719 285.513 356.962 284.77C356.333 284.15 355.002 284.013 354.405 284.793" fill="black"/>
<path d="M456.494 337.551C456.558 344.38 451.078 349.969 444.249 350.033C437.419 350.097 431.83 344.617 431.766 337.788C431.702 330.958 437.182 325.369 444.012 325.305C450.841 325.241 456.43 330.721 456.494 337.551Z" fill="black"/>
<path d="M452.598 337.591C452.644 342.269 448.887 346.099 444.209 346.144C439.532 346.19 435.702 342.433 435.657 337.756C435.611 333.078 439.368 329.248 444.045 329.207C448.723 329.162 452.552 332.918 452.598 337.596" fill="black"/>
<path d="M435.768 318.202C435.631 318.339 435.695 321.489 435.768 323.837C435.809 325.245 436.967 326.358 438.376 326.344H439.059L439.479 337.55C439.575 340.076 441.663 342.068 444.188 342.041C446.044 342.023 447.712 340.91 448.437 339.201C450.452 334.459 454.291 325.387 454.291 325.387L454.223 318.238L435.772 318.197L435.768 318.202Z" fill="url(#colorOne)"/>
<path d="M446.285 337.65C446.294 338.84 445.341 339.816 444.151 339.825C442.961 339.838 441.986 338.881 441.977 337.691C441.963 336.501 442.92 335.526 444.11 335.512C445.3 335.498 446.276 336.456 446.29 337.645" fill="black"/>
<g opacity="0.3">
<mask id="mask5_5988_6400" style="mask-type:luminance" maskUnits="userSpaceOnUse" x="443" y="337" width="13" height="13">
<path d="M455.753 337.207H443.344V349.316H455.753V337.207Z" fill="white"/>
</mask>
<g mask="url(#mask5_5988_6400)">
<path d="M444.738 347.457C444.145 347.507 443.612 347.881 443.411 348.441C443.297 348.76 443.32 349.075 443.717 349.235C444.669 349.608 450.159 348.856 453.281 344.753C455.844 341.389 456.044 337.623 455.538 337.331C455.032 337.039 454.294 337.331 454.061 337.577C453.824 337.823 453.984 341.885 450.747 344.762C448.362 346.882 445.9 347.361 444.742 347.461" fill="white"/>
</g>
</g>
<path d="M453.574 326.094C453.574 326.171 450.3 326.267 446.266 326.308C442.226 326.345 438.958 326.313 438.953 326.235C438.953 326.158 442.222 326.062 446.261 326.021C450.296 325.984 453.569 326.016 453.574 326.094Z" fill="black"/>
<path d="M323.531 320.726C323.581 320.663 323.645 320.581 323.645 320.576C323.645 320.576 323.645 320.576 323.64 320.576C323.604 320.622 323.572 320.667 323.536 320.713V320.717" fill="black"/>
<path d="M323.536 320.727C323.536 320.727 323.505 320.749 323.505 320.699C323.473 320.645 323.477 320.563 323.527 320.495L323.541 320.476L323.559 320.463L323.573 320.454L323.718 320.699C323.718 320.699 323.718 320.699 323.714 320.704L323.7 320.713C323.7 320.713 323.686 320.722 323.673 320.731C323.655 320.74 323.636 320.749 323.618 320.758C323.582 320.772 323.555 320.772 323.541 320.772C323.505 320.767 323.514 320.749 323.541 320.717C323.564 320.686 323.595 320.636 323.605 320.577C323.605 320.549 323.605 320.517 323.595 320.495C323.591 320.481 323.586 320.472 323.586 320.467C323.586 320.463 323.586 320.458 323.586 320.458V320.449L323.732 320.695H323.736L323.768 320.663C323.718 320.727 323.641 320.754 323.582 320.736C323.582 320.69 323.545 320.704 323.545 320.717" fill="black"/>
<path d="M344.565 289.435C342.537 292.075 340.727 294.947 338.821 297.691C335.429 302.579 332.037 307.466 328.65 312.353C327.369 314.2 326.088 316.046 324.807 317.892C324.456 318.398 324.105 318.9 323.758 319.406C323.717 319.465 323.676 319.524 323.635 319.584C323.608 319.607 323.567 319.67 323.53 319.734C323.526 319.743 323.517 319.752 323.512 319.762C323.503 319.78 323.476 319.803 323.471 319.821C323.471 319.821 323.494 319.784 323.526 319.739C323.489 319.807 323.453 319.875 323.444 319.898C323.334 320.085 323.243 320.277 323.147 320.473C323.115 320.537 323.074 320.637 323.056 320.678C323.029 320.76 323.001 320.842 322.979 320.924C322.915 321.152 322.86 321.38 322.819 321.612C322.805 321.685 322.796 321.758 322.783 321.831C322.783 321.84 322.783 321.85 322.783 321.863C322.773 322.096 322.764 322.324 322.773 322.556C322.778 322.684 322.883 323.4 322.796 322.966C322.837 323.163 322.869 323.354 322.919 323.55C322.974 323.764 323.042 323.969 323.111 324.179C323.111 324.184 323.111 324.188 323.115 324.193C323.152 324.266 323.184 324.343 323.22 324.421C323.343 324.672 323.489 324.904 323.63 325.146C323.653 325.187 323.667 325.21 323.676 325.223C323.694 325.241 323.731 325.278 323.785 325.342C323.909 325.488 324.036 325.634 324.168 325.766C324.228 325.825 324.579 326.112 324.492 326.058C324.665 326.181 324.834 326.299 325.016 326.409C325.089 326.45 325.363 326.582 325.349 326.582C325.522 326.65 325.696 326.709 325.874 326.76C325.933 326.778 326.348 326.855 326.334 326.864C326.749 326.905 327.168 326.892 327.583 326.887C329.375 326.869 331.167 326.851 332.963 326.837C336.277 326.805 339.587 326.773 342.901 326.741C347.378 326.696 351.851 326.655 356.328 326.614C361.612 326.564 366.895 326.513 372.175 326.463C377.887 326.409 383.595 326.354 389.308 326.299C395.161 326.244 401.011 326.185 406.86 326.13C412.403 326.076 417.952 326.026 423.496 325.971C428.447 325.925 433.398 325.875 438.349 325.83C442.324 325.793 446.304 325.752 450.28 325.716C452.928 325.688 455.577 325.665 458.221 325.638C459.183 325.629 460.145 325.62 461.107 325.611C463.437 325.588 463.473 329.554 461.144 329.577C460.907 329.577 460.665 329.582 460.428 329.582C458.573 329.6 456.722 329.618 454.866 329.636C451.479 329.668 448.096 329.7 444.709 329.737C440.136 329.782 435.563 329.823 430.986 329.869L414.906 330.024C409.112 330.079 403.317 330.138 397.518 330.193C391.628 330.247 385.738 330.306 379.848 330.361C374.254 330.416 368.664 330.471 363.07 330.521C358.16 330.566 353.25 330.616 348.345 330.662C344.461 330.699 340.581 330.735 336.697 330.776C334.198 330.799 331.7 330.826 329.202 330.849C327.287 330.867 325.472 330.981 323.653 330.092C319.919 328.278 318.196 323.263 319.733 319.173C320.257 317.778 321.196 316.598 322.026 315.399C324.975 311.145 327.93 306.887 330.879 302.633C333.943 298.216 337.007 293.798 340.07 289.385C340.658 288.537 341.228 287.671 341.839 286.845C343.517 284.935 346.052 283.472 348.404 282.906C349.589 282.624 350.82 282.596 352.029 282.501C357.116 282.09 362.2 281.621 367.283 281.147C373.889 280.531 380.495 279.898 387.101 279.255C393.675 278.616 400.249 277.978 406.819 277.335C411.884 276.843 416.953 276.346 422.018 275.872C423.523 275.731 425.027 275.589 426.536 275.466C427.412 275.393 428.305 275.225 429.167 275.439C430.124 275.676 430.553 277.066 430.257 277.978C429.901 279.072 429.486 279.173 428.26 279.282C427.9 279.309 427.535 279.337 427.175 279.369C423.441 279.683 419.712 280.053 415.982 280.413C410.028 280.987 404.079 281.571 398.125 282.15C391.414 282.802 384.698 283.454 377.988 284.096C371.979 284.671 365.97 285.241 359.957 285.779C357.682 285.984 355.402 286.18 353.123 286.367C352.092 286.449 351.053 286.485 350.032 286.627C347.916 286.923 346.07 287.789 344.547 289.449" fill="black"/>
<path d="M461.94 344.6C462.003 351.429 456.523 357.018 449.694 357.082C442.865 357.146 437.275 351.666 437.211 344.837C437.148 338.007 442.628 332.418 449.457 332.354C456.286 332.29 461.876 337.77 461.94 344.6Z" fill="black"/>
<path d="M458.043 344.634C458.089 349.312 454.332 353.142 449.655 353.187C444.977 353.233 441.148 349.476 441.102 344.799C441.056 340.121 444.813 336.291 449.491 336.25C454.168 336.205 457.998 339.961 458.043 344.639" fill="black"/>
<path d="M441.205 325.245C441.069 325.382 441.132 328.532 441.205 330.88C441.246 332.288 442.404 333.401 443.813 333.387H444.497L444.916 344.593C445.012 347.119 447.1 349.111 449.626 349.084C451.481 349.066 453.15 347.953 453.875 346.244C455.89 341.502 459.729 332.43 459.729 332.43L459.66 325.281L441.21 325.24L441.205 325.245Z" fill="url(#colorOne)"/>
<path d="M451.73 344.693C451.739 345.883 450.787 346.859 449.597 346.868C448.407 346.881 447.431 345.924 447.422 344.734C447.408 343.544 448.366 342.569 449.556 342.555C450.746 342.541 451.721 343.499 451.735 344.688" fill="black"/>
<path d="M459.019 333.137C459.019 333.214 455.746 333.31 451.711 333.351C447.672 333.388 444.398 333.356 444.398 333.278C444.398 333.201 447.667 333.105 451.707 333.064C455.741 333.027 459.015 333.059 459.019 333.137Z" fill="black"/>
<path d="M337.664 121.5C337.714 121.436 337.778 121.354 337.778 121.35C337.778 121.35 337.778 121.35 337.773 121.35C337.737 121.395 337.705 121.441 337.669 121.486V121.491" fill="black"/>
<path d="M337.661 121.497C337.661 121.497 337.63 121.52 337.63 121.47C337.598 121.416 337.602 121.334 337.652 121.266L337.666 121.252L337.684 121.238L337.698 121.229L337.843 121.475C337.843 121.475 337.843 121.475 337.839 121.479L337.825 121.488C337.825 121.488 337.811 121.497 337.798 121.506C337.78 121.52 337.761 121.525 337.743 121.534C337.707 121.547 337.68 121.547 337.666 121.547C337.63 121.543 337.639 121.525 337.666 121.493C337.689 121.461 337.72 121.411 337.73 121.352C337.73 121.325 337.73 121.293 337.72 121.27C337.716 121.256 337.711 121.247 337.711 121.243C337.711 121.238 337.711 121.234 337.711 121.234V121.225L337.857 121.47H337.861L337.893 121.438C337.843 121.502 337.766 121.529 337.707 121.511C337.707 121.466 337.67 121.479 337.67 121.493" fill="black"/>
<path d="M364.801 246.037L353.527 238.847C353.048 238.542 352.496 238.382 351.931 238.387L343.57 238.455C342.64 238.464 341.764 238.916 341.222 239.672L335.395 247.765C335.031 248.271 334.839 248.877 334.844 249.497L335.067 276.701C335.081 278.315 336.398 279.614 338.017 279.6L363.488 279.39C365.102 279.377 366.401 278.059 366.388 276.441L366.16 248.471C366.151 247.482 365.64 246.561 364.806 246.028M361.601 250.372C360.962 251.375 359.631 251.672 358.628 251.033L351.461 246.465C350.458 245.827 350.162 244.496 350.805 243.493C351.443 242.49 352.774 242.194 353.777 242.836L360.944 247.405C361.947 248.043 362.243 249.374 361.605 250.377" fill="url(#colorOne)"/>
<path d="M351.624 235.609L343.719 235.674L343.742 238.455L351.647 238.39L351.624 235.609Z" fill="url(#colorOne)"/>
<g opacity="0.3">
<mask id="mask6_5988_6400" style="mask-type:luminance" maskUnits="userSpaceOnUse" x="343" y="235" width="9" height="4">
<path d="M351.639 235.611H343.711V238.456H351.639V235.611Z" fill="white"/>
</mask>
<g mask="url(#mask6_5988_6400)">
<path d="M351.624 235.609L343.719 235.674L343.742 238.455L351.647 238.39L351.624 235.609Z" fill="black"/>
</g>
</g>
<path d="M352.473 237.22L342.649 237.302C342.238 237.302 341.906 236.979 341.901 236.568L341.883 234.316C341.883 233.906 342.207 233.573 342.617 233.568L352.441 233.486C352.852 233.486 353.185 233.81 353.189 234.22L353.207 236.472C353.207 236.883 352.879 237.216 352.473 237.22Z" fill="black"/>
<path d="M359.197 242.645H340.031V255.861H359.197V242.645Z" fill="#F5F5F5"/>
<path d="M409.964 235.095C412.905 237.712 416.123 238.97 419.046 237.908C419.629 237.693 419.917 237.146 420.45 236.891C420.737 236.795 421.147 236.859 421.508 236.859C421.699 236.854 421.886 236.836 422.032 236.772C424.945 235.405 426.65 232.318 426.969 228.188C427.402 222.407 424.576 217.538 420.66 217.301C420.099 217.264 419.593 217.274 419.11 217.333C418.521 217.41 417.97 217.556 417.4 217.807C416.397 218.235 415.348 218.979 414.004 220.15C413.962 220.191 413.912 220.232 413.867 220.273C410.73 220.2 408.597 221.062 406.923 222.881C404.275 225.785 405.633 231.251 409.964 235.099" fill="url(#colorTwo)"/>
<path d="M414.865 221.864C414.865 221.864 413.333 220.141 411.742 217.743L413.534 217.178C413.534 217.178 413.438 219.339 415.731 221.618L414.87 221.86L414.865 221.864Z" fill="url(#colorOne)"/>
<path d="M417.683 219.555C417.683 219.555 417.669 219.655 417.61 219.819C417.55 219.983 417.432 220.216 417.24 220.471C416.867 220.982 416.132 221.533 415.193 221.798C414.259 222.058 413.374 222.039 412.75 222.012C412.435 221.998 412.184 221.976 412.011 221.962C411.838 221.944 411.742 221.93 411.742 221.921C411.742 221.912 411.838 221.907 412.016 221.912C412.216 221.912 412.467 221.916 412.754 221.921C413.374 221.921 414.245 221.921 415.161 221.675C416.073 221.419 416.789 220.9 417.172 220.416C417.564 219.938 417.655 219.546 417.683 219.559" fill="black"/>
<g opacity="0.1">
<mask id="mask7_5988_6400" style="mask-type:luminance" maskUnits="userSpaceOnUse" x="406" y="222" width="10" height="11">
<path d="M415.072 222.18H406.523V232.355H415.072V222.18Z" fill="white"/>
</mask>
<g mask="url(#mask7_5988_6400)">
<path d="M414.186 222.741C410.388 222.581 410.52 221.852 408.811 222.362C407.78 222.686 407.046 223.653 406.745 224.692C406.44 225.731 406.504 226.835 406.618 227.911C406.714 228.8 407.142 229.775 407.516 230.591C407.89 231.403 408.56 231.918 409.385 232.264C409.818 232.447 410.972 232.424 411.491 231.699C412.034 230.938 411.893 229.898 411.656 228.996C411.418 228.093 411.108 227.136 411.387 226.247C411.569 225.668 411.988 225.18 412.49 224.838C412.991 224.491 413.57 224.282 414.158 224.122C414.368 224.063 414.587 224.013 414.769 223.89C414.952 223.766 415.093 223.557 415.07 223.343C415.029 222.964 414.569 222.768 414.19 222.75" fill="white"/>
</g>
</g>
<path d="M413.527 217.169C413.573 217.32 413.213 217.566 412.725 217.716C412.233 217.867 411.799 217.871 411.754 217.716C411.708 217.566 412.068 217.32 412.556 217.169C413.049 217.019 413.482 217.014 413.527 217.169Z" fill="url(#colorTwo)"/>
<path d="M408.635 222.646C408.69 222.737 408.458 222.988 408.116 223.206C407.769 223.425 407.445 223.53 407.391 223.443C407.336 223.352 407.569 223.106 407.911 222.883C408.252 222.664 408.581 222.559 408.635 222.646Z" fill="white"/>
<path d="M406.186 248.864C408.032 252.343 410.604 254.645 413.717 254.668C414.337 254.668 414.798 254.258 415.391 254.203C415.696 254.212 416.052 254.413 416.394 254.54C416.576 254.604 416.754 254.65 416.913 254.641C420.118 254.376 422.794 252.078 424.536 248.317C426.961 243.052 426.008 237.499 422.421 235.912C421.91 235.684 421.427 235.516 420.953 235.402C420.374 235.269 419.808 235.21 419.184 235.251C418.094 235.306 416.854 235.634 415.181 236.263C415.126 236.286 415.062 236.309 415.008 236.332C412.094 235.169 409.792 235.233 407.59 236.354C404.093 238.155 403.464 243.754 406.177 248.864" fill="url(#colorTwo)"/>
<path d="M415.397 238.174C415.397 238.174 414.563 236.022 413.906 233.223L415.78 233.318C415.78 233.318 414.937 235.311 416.291 238.247L415.397 238.174Z" fill="url(#colorOne)"/>
<path d="M418.848 236.993C418.848 236.993 418.803 237.08 418.689 237.216C418.575 237.353 418.383 237.526 418.119 237.7C417.59 238.046 416.706 238.31 415.739 238.228C414.773 238.146 413.952 237.818 413.373 237.576C413.086 237.453 412.853 237.349 412.698 237.271C412.543 237.194 412.457 237.148 412.461 237.139C412.461 237.13 412.557 237.162 412.721 237.225C412.908 237.298 413.14 237.39 413.409 237.494C413.993 237.713 414.809 238.019 415.753 238.101C416.696 238.178 417.549 237.941 418.078 237.622C418.611 237.307 418.835 236.975 418.857 236.993" fill="black"/>
<g opacity="0.1">
<mask id="mask8_5988_6400" style="mask-type:luminance" maskUnits="userSpaceOnUse" x="405" y="236" width="11" height="11">
<path d="M415.11 236.527H405.422V246.452H415.11V236.527Z" fill="white"/>
</mask>
<g mask="url(#mask8_5988_6400)">
<path d="M414.471 238.762C410.969 237.285 411.348 236.651 409.565 236.533C408.485 236.478 407.464 237.13 406.816 237.996C406.169 238.862 405.841 239.92 405.576 240.968C405.357 241.835 405.417 242.901 405.48 243.795C405.544 244.689 405.996 245.404 406.648 246.015C406.989 246.339 408.075 246.717 408.818 246.216C409.593 245.696 409.825 244.666 409.916 243.74C410.008 242.81 410.053 241.807 410.623 241.069C410.997 240.59 411.558 240.28 412.15 240.134C412.738 239.988 413.358 239.988 413.965 240.043C414.184 240.061 414.407 240.089 414.621 240.038C414.836 239.988 415.041 239.842 415.095 239.628C415.187 239.259 414.826 238.917 414.475 238.766" fill="white"/>
</g>
</g>
<path d="M415.778 233.309C415.768 233.468 415.344 233.569 414.834 233.541C414.323 233.514 413.913 233.363 413.922 233.204C413.931 233.044 414.355 232.944 414.866 232.971C415.376 232.999 415.787 233.149 415.778 233.309Z" fill="url(#colorTwo)"/>
<path d="M409.306 236.737C409.329 236.842 409.023 236.993 408.622 237.079C408.221 237.166 407.883 237.152 407.861 237.047C407.838 236.942 408.143 236.792 408.544 236.705C408.946 236.619 409.283 236.632 409.306 236.737Z" fill="white"/>
<path d="M420.777 225.204C419.459 228.915 419.495 232.366 421.579 234.678C421.998 235.138 422.614 235.197 423.052 235.598C423.248 235.831 423.343 236.232 423.48 236.565C423.558 236.743 423.644 236.907 423.758 237.016C426.12 239.205 429.616 239.624 433.569 238.37C439.09 236.601 442.541 232.156 441.288 228.436C441.11 227.903 440.909 227.438 440.677 227.009C440.385 226.494 440.043 226.038 439.592 225.605C438.817 224.835 437.736 224.142 436.14 223.339C436.086 223.316 436.031 223.285 435.976 223.257C434.864 220.326 433.268 218.666 430.952 217.805C427.264 216.441 422.71 219.751 420.772 225.208" fill="url(#colorTwo)"/>
<path d="M434.88 224.778C434.88 224.778 435.901 222.709 437.524 220.338L438.718 221.788C438.718 221.788 436.68 222.508 435.427 225.49L434.875 224.783L434.88 224.778Z" fill="url(#colorOne)"/>
<path d="M438.08 226.525C438.08 226.525 437.985 226.552 437.807 226.556C437.629 226.566 437.374 226.543 437.064 226.461C436.448 226.301 435.66 225.832 435.067 225.061C434.479 224.291 434.16 223.465 433.95 222.877C433.845 222.581 433.768 222.339 433.722 222.171C433.672 222.002 433.649 221.911 433.658 221.906C433.667 221.906 433.704 221.993 433.768 222.157C433.841 222.344 433.932 222.576 434.037 222.845C434.269 223.42 434.593 224.231 435.167 224.979C435.746 225.727 436.498 226.196 437.087 226.37C437.679 226.552 438.076 226.493 438.076 226.52" fill="black"/>
<g opacity="0.1">
<mask id="mask9_5988_6400" style="mask-type:luminance" maskUnits="userSpaceOnUse" x="423" y="218" width="11" height="8">
<path d="M433.861 218.295H423.156V225.576H433.861V218.295Z" fill="white"/>
</mask>
<g mask="url(#mask9_5988_6400)">
<path d="M433.788 224.482C432.511 220.903 433.236 220.752 432.119 219.357C431.431 218.523 430.259 218.208 429.183 218.318C428.107 218.427 427.104 218.897 426.152 219.407C425.363 219.831 424.62 220.593 424.004 221.245C423.389 221.897 423.165 222.713 423.156 223.606C423.152 224.076 423.603 225.134 424.474 225.343C425.381 225.562 426.293 225.038 427.045 224.482C427.793 223.921 428.563 223.278 429.493 223.201C430.1 223.15 430.706 223.36 431.212 223.693C431.718 224.03 432.133 224.486 432.502 224.969C432.634 225.143 432.767 225.325 432.949 225.448C433.131 225.571 433.378 225.626 433.569 225.521C433.902 225.339 433.916 224.842 433.788 224.482Z" fill="white"/>
</g>
</g>
<path d="M438.713 221.78C438.59 221.88 438.23 221.638 437.902 221.242C437.578 220.845 437.409 220.439 437.533 220.339C437.656 220.239 438.016 220.48 438.344 220.877C438.668 221.274 438.832 221.679 438.713 221.775" fill="url(#colorTwo)"/>
<path d="M431.804 219.309C431.744 219.395 431.421 219.272 431.088 219.035C430.755 218.798 430.536 218.538 430.596 218.452C430.655 218.365 430.979 218.488 431.311 218.725C431.644 218.962 431.863 219.222 431.804 219.309Z" fill="white"/>
<path d="M424.355 244.21C423.037 247.921 423.074 251.372 425.157 253.683C425.577 254.144 426.192 254.203 426.63 254.604C426.826 254.837 426.921 255.238 427.058 255.571C427.136 255.749 427.222 255.913 427.336 256.022C429.698 258.21 433.195 258.63 437.147 257.376C442.668 255.607 446.119 251.162 444.87 247.442C444.692 246.909 444.492 246.444 444.259 246.015C443.968 245.5 443.626 245.044 443.174 244.611C442.399 243.84 441.319 243.148 439.723 242.345C439.668 242.322 439.614 242.29 439.559 242.263C438.447 239.332 436.851 237.672 434.535 236.81C430.847 235.447 426.292 238.757 424.355 244.214" fill="url(#colorTwo)"/>
<path d="M438.466 243.784C438.466 243.784 439.487 241.714 441.11 239.344L442.304 240.794C442.304 240.794 440.266 241.514 439.013 244.495L438.461 243.789L438.466 243.784Z" fill="url(#colorOne)"/>
<path d="M441.666 245.526C441.666 245.526 441.571 245.554 441.393 245.558C441.215 245.568 440.96 245.545 440.65 245.463C440.034 245.303 439.246 244.833 438.653 244.063C438.065 243.293 437.746 242.467 437.536 241.879C437.431 241.583 437.354 241.341 437.308 241.173C437.258 241.004 437.235 240.913 437.244 240.908C437.253 240.908 437.29 240.995 437.354 241.159C437.427 241.346 437.518 241.578 437.623 241.847C437.855 242.422 438.179 243.233 438.753 243.981C439.332 244.729 440.084 245.198 440.673 245.371C441.265 245.554 441.662 245.495 441.662 245.522" fill="black"/>
<g opacity="0.1">
<mask id="mask10_5988_6400" style="mask-type:luminance" maskUnits="userSpaceOnUse" x="426" y="237" width="12" height="8">
<path d="M437.47 237.301H426.766V244.582H437.47V237.301Z" fill="white"/>
</mask>
<g mask="url(#mask10_5988_6400)">
<path d="M437.397 243.484C436.121 239.905 436.846 239.754 435.729 238.359C435.04 237.525 433.869 237.21 432.793 237.32C431.717 237.429 430.714 237.899 429.761 238.409C428.972 238.833 428.229 239.595 427.614 240.247C426.998 240.899 426.775 241.715 426.766 242.608C426.761 243.078 427.212 244.136 428.083 244.345C428.99 244.564 429.902 244.04 430.655 243.484C431.402 242.923 432.173 242.28 433.103 242.203C433.709 242.152 434.315 242.362 434.821 242.695C435.327 243.032 435.742 243.488 436.112 243.971C436.244 244.145 436.376 244.327 436.558 244.45C436.741 244.573 436.987 244.628 437.178 244.523C437.511 244.341 437.525 243.844 437.397 243.484Z" fill="white"/>
</g>
</g>
<path d="M442.315 240.782C442.192 240.882 441.832 240.64 441.503 240.244C441.18 239.847 441.011 239.441 441.134 239.341C441.257 239.241 441.617 239.482 441.946 239.879C442.269 240.276 442.433 240.681 442.315 240.777" fill="url(#colorTwo)"/>
<path d="M435.413 238.311C435.354 238.397 435.03 238.274 434.697 238.037C434.365 237.8 434.146 237.54 434.205 237.454C434.269 237.367 434.588 237.49 434.921 237.727C435.254 237.964 435.472 238.224 435.413 238.311Z" fill="white"/>
<path d="M450.957 242.112C450.957 242.112 451.076 242.814 451.09 244.159C451.085 245.5 450.989 247.524 450.141 249.958C449.708 251.162 449.102 252.479 448.135 253.715C447.183 254.959 445.883 256.117 444.251 256.961C442.633 257.813 440.723 258.365 438.676 258.634C436.619 258.908 434.422 258.88 432.142 258.707C429.858 258.543 427.483 258.242 424.998 258.119C422.514 257.973 419.938 258.201 417.253 258.36C414.581 258.497 411.718 258.588 408.946 257.663C407.574 257.189 406.261 256.441 405.181 255.402C404.095 254.367 403.243 253.081 402.614 251.691C401.328 248.891 401.023 245.709 400.973 242.554C400.954 239.386 400.927 236.158 401.159 232.866C401.406 229.589 401.939 226.215 403.289 223.056C403.64 222.271 404 221.496 404.465 220.758C404.943 220.015 405.545 219.367 406.211 218.802C407.547 217.671 409.074 216.796 410.647 216.035C412.571 215.095 414.549 214.33 416.523 213.627C417.513 213.286 418.502 212.948 419.482 212.611C420.453 212.273 421.47 211.963 422.336 211.535L422.295 211.836C420.905 210.318 420.075 208.444 419.478 206.57C418.908 204.683 418.552 202.731 418.693 200.771C418.744 200.283 418.839 199.786 419.054 199.326C419.263 198.87 419.614 198.446 420.075 198.204C420.522 197.963 421.078 197.858 421.593 198.031C422.117 198.209 422.45 198.679 422.646 199.116C423.339 200.899 423.736 202.713 423.941 204.537L423.613 204.446C424.793 202.873 426.43 201.697 428.213 201.049C428.659 200.89 429.115 200.753 429.576 200.662C430.036 200.566 430.529 200.498 431.026 200.616C431.527 200.721 431.965 201.131 432.115 201.615C432.279 202.093 432.247 202.608 432.079 203.06C431.732 203.972 431.053 204.601 430.51 205.289C429.94 205.968 429.38 206.639 428.819 207.3C427.702 208.626 426.612 209.93 425.541 211.202L425.495 210.956C426.198 211.302 427.018 211.453 427.807 211.585C428.6 211.713 429.398 211.799 430.182 211.886C430.971 211.973 431.75 212.041 432.521 212.146C432.904 212.201 433.296 212.26 433.674 212.383C434.044 212.506 434.399 212.643 434.75 212.798C437.549 214.065 439.61 216.222 441.192 218.373C442.788 220.544 443.946 222.787 444.949 224.87C445.943 226.963 446.8 228.9 447.575 230.651C449.125 234.152 450.064 237.024 450.488 239.026C450.93 241.023 450.957 242.117 450.957 242.117C450.957 242.117 450.907 241.848 450.839 241.328C450.757 240.808 450.634 240.038 450.397 239.044C449.945 237.056 448.983 234.211 447.411 230.724C446.626 228.982 445.751 227.049 444.748 224.966C443.736 222.896 442.573 220.671 440.982 218.528C439.405 216.404 437.367 214.289 434.632 213.067C433.287 212.378 431.732 212.383 430.155 212.191C429.366 212.109 428.568 212.023 427.761 211.895C426.959 211.758 426.134 211.622 425.345 211.234L425.167 211.147L425.299 210.988C426.366 209.711 427.456 208.407 428.568 207.076C429.124 206.411 429.685 205.74 430.255 205.061C430.807 204.373 431.468 203.734 431.76 202.937C432.065 202.175 431.801 201.118 430.948 200.949C430.547 200.853 430.095 200.903 429.658 200.999C429.211 201.09 428.773 201.222 428.345 201.377C426.626 202.007 425.049 203.142 423.913 204.66L423.635 205.029L423.585 204.569C423.38 202.786 422.974 200.967 422.313 199.262C422.135 198.861 421.862 198.505 421.479 198.378C421.096 198.245 420.645 198.323 420.266 198.524C419.487 198.934 419.158 199.887 419.085 200.794C418.953 202.663 419.295 204.596 419.861 206.443C420.444 208.28 421.269 210.117 422.591 211.553L422.769 211.745L422.555 211.854C421.584 212.342 420.608 212.625 419.623 212.971C418.643 213.308 417.659 213.646 416.669 213.988C414.704 214.69 412.735 215.451 410.834 216.381C409.275 217.133 407.77 218 406.48 219.094C405.832 219.641 405.258 220.261 404.811 220.954C404.364 221.66 404.004 222.435 403.662 223.201C402.336 226.302 401.802 229.634 401.556 232.889C401.324 236.154 401.346 239.39 401.36 242.541C401.406 245.677 401.711 248.805 402.956 251.536C403.567 252.894 404.396 254.139 405.436 255.142C406.475 256.145 407.743 256.87 409.069 257.335C411.759 258.242 414.586 258.164 417.248 258.032C419.92 257.882 422.528 257.658 425.03 257.813C427.529 257.946 429.904 258.256 432.179 258.429C434.449 258.607 436.624 258.648 438.657 258.383C440.686 258.128 442.569 257.595 444.165 256.765C445.769 255.949 447.055 254.818 447.999 253.601C448.961 252.388 449.572 251.093 450.009 249.908C450.866 247.505 450.989 245.495 451.021 244.159C451.026 243.489 451.012 242.974 450.989 242.632C450.971 242.29 450.971 242.112 450.971 242.112" fill="black"/>
<path d="M458.934 257.087L401.336 262.471L402.539 275.339L460.137 269.956L458.934 257.087Z" fill="url(#colorOne)"/>
<path d="M411.091 268.034L413.74 271.457C413.079 271.918 412.299 272.196 411.488 272.273C409.021 272.506 406.815 270.778 406.596 268.453C406.377 266.128 408.228 264.026 410.694 263.794C413.161 263.566 415.367 265.289 415.586 267.614L411.091 268.034Z" fill="white"/>
<path d="M443.812 266.739L419.691 268.991C418.847 269.068 418.1 268.448 418.022 267.605C417.945 266.762 418.565 266.014 419.408 265.936L443.53 263.684C444.373 263.607 445.121 264.227 445.198 265.07C445.276 265.914 444.656 266.661 443.812 266.739Z" fill="white"/>
<g style="mix-blend-mode:multiply" opacity="0.33">
<mask id="mask11_5988_6400" style="mask-type:luminance" maskUnits="userSpaceOnUse" x="448" y="257" width="13" height="14">
<path d="M460.112 257.125H448.469V270.971H460.112V257.125Z" fill="white"/>
</mask>
<g mask="url(#mask11_5988_6400)">
<path d="M458.925 257.092L448.484 258.068L449.687 270.937L460.127 269.961L458.925 257.092Z" fill="url(#colorOne)"/>
</g>
</g>
<path d="M453.458 244.931L395.859 250.314L397.062 263.183L454.66 257.799L453.458 244.931Z" fill="url(#colorTwo)"/>
<path d="M405.606 255.87L408.255 259.294C407.594 259.754 406.815 260.033 406.003 260.11C403.537 260.343 401.33 258.615 401.111 256.29C400.892 253.965 402.743 251.863 405.21 251.63C407.676 251.398 409.883 253.126 410.102 255.451L405.606 255.87Z" fill="white"/>
<path d="M438.328 254.577L414.206 256.829C413.363 256.906 412.615 256.286 412.538 255.443C412.46 254.599 413.08 253.852 413.924 253.774L438.045 251.522C438.889 251.445 439.637 252.065 439.714 252.908C439.792 253.752 439.172 254.499 438.328 254.577Z" fill="white"/>
<path d="M453.448 244.932L443.008 245.908L444.211 258.777L454.651 257.801L453.448 244.932Z" fill="url(#colorOne)"/>
<path d="M454.646 257.95C454.66 258.105 441.794 259.413 425.911 260.872C410.022 262.335 397.139 263.393 397.125 263.243C397.111 263.088 409.972 261.779 425.86 260.32C441.744 258.862 454.632 257.799 454.646 257.95Z" fill="black"/>
<path d="M449.997 232.118L392.398 237.502L393.601 250.371L451.199 244.987L449.997 232.118Z" fill="url(#colorOne)"/>
<path d="M402.13 243.066L404.779 246.489C404.118 246.95 403.338 247.228 402.527 247.305C400.06 247.538 397.854 245.81 397.635 243.485C397.416 241.16 399.267 239.058 401.733 238.826C404.2 238.593 406.406 240.321 406.625 242.646L402.13 243.066Z" fill="white"/>
<path d="M434.859 241.77L410.738 244.022C409.894 244.1 409.147 243.48 409.069 242.636C408.992 241.793 409.612 241.045 410.455 240.968L434.577 238.716C435.42 238.638 436.168 239.258 436.245 240.101C436.323 240.945 435.703 241.693 434.859 241.77Z" fill="white"/>
<g style="mix-blend-mode:multiply" opacity="0.33">
<mask id="mask12_5988_6400" style="mask-type:luminance" maskUnits="userSpaceOnUse" x="439" y="232" width="13" height="14">
<path d="M451.191 232.152H439.547V245.998H451.191V232.152Z" fill="white"/>
</mask>
<g mask="url(#mask12_5988_6400)">
<path d="M450.003 232.126L439.562 233.102L440.765 245.97L451.206 244.994L450.003 232.126Z" fill="url(#colorOne)"/>
</g>
</g>
<path d="M451.199 245.304C451.212 245.459 438.342 246.731 422.459 248.144C406.566 249.562 393.678 250.583 393.664 250.433C393.65 250.282 406.516 249.006 422.409 247.592C438.292 246.175 451.185 245.153 451.199 245.304Z" fill="black"/>
<path d="M449.357 232.009C449.371 232.164 436.574 233.5 420.773 235C404.966 236.499 392.147 237.589 392.133 237.434C392.119 237.284 404.916 235.943 420.718 234.443C436.515 232.943 449.339 231.854 449.353 232.009" fill="black"/>
<path d="M403.15 268.819L403.368 235.256C403.405 229.739 398.727 225.873 397.305 223.945C395.878 222.017 396.407 214.69 396.407 214.69H395.91L395.919 214.54H395.8C393.89 214.512 391.611 214.48 388.907 214.439H388.748L388.757 214.649C388.825 216.341 388.834 218.169 388.675 220.065C388.583 221.004 388.46 221.989 388.141 222.86C388 223.307 387.74 223.621 387.444 223.981C387.143 224.323 386.842 224.67 386.536 225.021C385.301 226.416 384.011 227.957 383.04 229.954C382.566 230.952 382.187 232.083 382.019 233.3C382.014 233.341 382.019 233.378 382.009 233.419C381.909 233.966 381.841 234.531 381.836 235.119L381.617 268.683C381.599 271.4 383.35 273.615 385.524 273.634L399.183 273.725C401.358 273.738 403.136 271.546 403.154 268.824" fill="white"/>
<path d="M387.659 241.909L387.539 260.432L403.176 260.533L403.296 242.01L387.659 241.909Z" fill="url(#colorOne)"/>
<path d="M403.109 268.819C403.15 260.025 402.968 249.548 402.954 240.754C402.954 239.605 402.958 236.605 402.968 235.493C403.031 232.621 401.75 229.972 399.972 227.725C399.047 226.516 397.939 225.422 396.991 224.205C395.915 222.409 396.02 220.202 395.933 218.201C395.924 217.02 395.96 215.848 396.038 214.663L396.403 215.055C396.179 215.037 395.732 215.06 395.514 215.046L395.541 214.663L395.55 214.517L395.91 214.905L388.739 214.754L389.058 214.426C389.104 217.266 389.231 220.22 388.342 222.96C388.123 223.617 387.585 224.118 387.157 224.615C385.985 225.915 384.827 227.205 383.911 228.677C382.721 230.492 382.101 232.616 381.969 234.777C381.941 235.625 381.941 237.814 381.932 238.698C381.909 242.026 381.955 250.971 381.978 254.408C382.01 257.901 382.001 261.393 381.987 264.88C382.051 266.59 381.8 268.336 382.096 270.028C382.475 271.819 383.934 273.47 385.876 273.351C388.547 273.41 392.983 273.511 395.691 273.57C396.58 273.57 398.746 273.679 399.608 273.611C401.846 273.296 403.109 270.917 403.113 268.815M403.186 268.819C403.205 270.976 401.914 273.424 399.621 273.766C398.746 273.834 396.594 273.789 395.682 273.821C393.95 273.834 389.505 273.875 387.827 273.894L386.519 273.907C385.625 273.925 384.631 273.967 383.824 273.492C380.692 271.746 381.289 267.912 381.285 264.885C381.317 261.393 381.353 257.901 381.431 254.413C381.549 249.562 381.663 240.85 381.7 236.086C381.463 231.299 383.738 227.747 386.838 224.346C388.16 223.129 388.319 221.36 388.429 219.66C388.543 217.822 388.511 215.971 388.406 214.125H388.743L395.915 214.18H396.298L396.275 214.567L396.266 214.713L395.906 214.326C396.12 214.326 396.58 214.326 396.79 214.326L396.767 214.718C396.649 217.006 396.617 219.368 396.954 221.629C397.091 222.308 397.2 222.992 397.547 223.558C398.472 224.848 399.667 225.915 400.624 227.214C402.461 229.521 403.857 232.448 403.765 235.493C403.761 236.596 403.724 239.61 403.711 240.754C403.578 249.544 403.264 260.025 403.191 268.815" fill="black"/>
<path d="M397.35 215.596L388.091 215.537C387.165 215.533 386.417 214.803 386.422 213.91C386.426 213.016 387.183 212.296 388.109 212.305L397.368 212.364C398.294 212.369 399.041 213.098 399.037 213.992C399.032 214.885 398.275 215.605 397.35 215.596Z" fill="url(#colorOne)"/>
<path d="M361.661 281.151L356.742 243.507L361.201 236.235L360.695 232.378L376.423 230.322L376.984 234.631L382.856 239.053L387.912 277.722L361.661 281.151Z" fill="url(#colorTwo)"/>
<path d="M372.97 249.533L359.852 251.248L362.265 269.701L375.383 267.985L372.97 249.533Z" fill="white"/>
<path d="M379.626 278.804C379.626 278.804 379.571 278.653 379.516 278.357C379.457 278.011 379.389 277.582 379.302 277.067C379.124 275.872 378.892 274.268 378.604 272.312C378.035 268.295 377.282 262.742 376.48 256.601C375.732 250.684 375.053 245.313 374.547 241.297V241.256L374.556 241.219C375.267 239.227 375.851 237.59 376.279 236.382C376.475 235.858 376.639 235.425 376.772 235.074C376.89 234.777 376.959 234.622 376.977 234.627C376.995 234.632 376.954 234.796 376.867 235.106C376.758 235.466 376.626 235.908 376.462 236.442C376.07 237.663 375.536 239.318 374.884 241.329L374.893 241.251C375.436 245.268 376.161 250.629 376.959 256.542C377.761 262.679 378.459 268.241 378.942 272.266C379.165 274.227 379.352 275.84 379.489 277.039C379.539 277.559 379.58 277.988 379.612 278.339C379.635 278.635 379.639 278.795 379.621 278.795" fill="black"/>
<path d="M374.508 241.306C374.526 241.434 370.496 242.067 365.509 242.719C360.521 243.371 356.464 243.795 356.445 243.667C356.427 243.54 360.457 242.906 365.445 242.254C370.432 241.602 374.49 241.178 374.508 241.306Z" fill="black"/>
<path d="M376.908 234.025C376.926 234.153 373.315 234.732 368.843 235.315C364.371 235.899 360.737 236.268 360.719 236.141C360.701 236.013 364.311 235.434 368.784 234.85C373.252 234.267 376.89 233.898 376.908 234.025Z" fill="black"/>
<path d="M320.758 190.719C322.071 190.91 323.224 191.48 324.127 192.405C324.364 192.46 324.601 192.528 324.843 192.574C322.777 189.424 320.721 186.274 318.633 183.141C316.358 179.731 314.074 176.326 311.695 172.989C310.974 171.977 310.245 170.964 309.479 169.989C308.991 169.369 308.494 168.658 307.824 168.215C306.903 167.609 305.85 167.162 304.856 166.697C303.242 165.94 301.605 165.225 299.964 164.523C296.809 163.173 293.632 161.869 290.44 160.597C289.907 160.383 289.369 160.169 288.836 159.959C288.229 159.722 287.541 159.818 287.199 160.438C286.916 160.953 287.071 161.833 287.678 162.074C293.112 164.217 298.56 166.396 303.848 168.881C304.473 169.177 305.098 169.478 305.713 169.797C305.959 169.925 306.205 170.057 306.443 170.194C306.461 170.203 306.461 170.208 306.474 170.217C306.593 170.376 306.821 170.536 306.944 170.677C306.994 170.736 307.049 170.796 307.099 170.855C307.122 170.878 307.131 170.896 307.149 170.914C307.135 170.896 307.126 170.887 307.108 170.86C307.131 170.887 307.154 170.914 307.177 170.942C307.195 170.96 307.199 170.974 307.208 170.983C307.318 171.119 307.427 171.252 307.532 171.388C307.883 171.84 308.225 172.3 308.567 172.761C310.723 175.697 312.761 178.719 314.795 181.737C316.801 184.719 318.784 187.714 320.762 190.719M306.484 170.217C306.689 170.344 306.584 170.326 306.484 170.217Z" fill="black"/>
<path d="M479.518 209.073C478.442 209.005 477.781 209.798 477.598 210.765C476.327 217.548 475.05 224.332 473.778 231.111C471.749 241.907 469.72 252.707 467.692 263.503C467.327 265.445 466.962 267.383 466.598 269.325C462.814 269.653 459.034 269.977 455.25 270.305C445.261 271.167 435.273 272.024 425.284 272.881C413.002 273.934 400.72 274.983 388.438 276.022C377.61 276.939 366.778 277.855 355.95 278.748C352.148 279.063 348.351 279.373 344.548 279.674C343.281 279.774 342.014 279.875 340.746 279.966C340.299 279.998 339.853 280.03 339.401 280.066C340.144 280.011 339.342 280.066 338.959 280.093C338.859 279.897 338.758 279.701 338.663 279.501C337.464 277.016 336.442 274.445 335.403 271.892C331.601 262.532 328.022 253.086 324.443 243.64C320.067 232.082 315.745 220.507 311.436 208.927C307.871 199.331 304.32 189.729 300.759 180.137C299.756 177.443 298.762 174.748 297.741 172.059C297.513 171.461 297.308 170.85 297.048 170.267C296.173 168.261 293.88 167.039 292.038 166.059C289.918 164.928 287.711 163.925 285.468 163.068C283.289 162.238 282.117 165.658 284.287 166.487C286.54 167.349 288.746 168.325 290.784 169.478C291.431 169.843 292.07 170.23 292.671 170.668C292.817 170.773 292.959 170.882 293.105 170.996C293.15 171.033 293.182 171.056 293.205 171.074C293.219 171.088 293.237 171.106 293.255 171.124C293.364 171.229 293.72 171.712 293.674 171.594C293.752 171.749 293.825 171.908 293.889 172.072C294.641 173.946 295.325 175.852 296.031 177.748C299.255 186.392 302.446 195.041 305.651 203.689C309.946 215.26 314.249 226.821 318.603 238.374C322.455 248.604 326.321 258.83 330.352 268.992C331.646 272.252 332.946 275.516 334.341 278.735C334.756 279.697 335.18 280.659 335.654 281.589C335.982 282.236 336.338 282.984 336.953 283.408C337.509 283.786 338.052 283.745 338.667 283.709C339.602 283.654 340.536 283.581 341.476 283.513C344.475 283.289 347.475 283.048 350.475 282.801C360.459 281.99 370.439 281.151 380.423 280.308C392.637 279.277 404.846 278.238 417.059 277.194C427.992 276.259 438.924 275.32 449.852 274.381C455.784 273.87 461.719 273.36 467.651 272.849C467.924 272.826 468.198 272.804 468.471 272.776C469.324 272.703 469.771 271.842 469.907 271.121C471.184 264.337 472.456 257.554 473.732 250.774C475.761 239.979 477.79 229.178 479.819 218.383C480.279 215.921 480.744 213.464 481.205 211.002C481.387 210.04 480.407 209.137 479.513 209.082" fill="black"/>
<path d="M482.855 210.13C481.21 209.925 479.559 209.725 477.913 209.519C473.432 208.968 468.95 208.412 464.469 207.86C457.895 207.048 451.316 206.237 444.742 205.425C436.668 204.427 428.594 203.433 420.516 202.435C411.671 201.345 402.822 200.251 393.978 199.161L367.28 195.865C358.983 194.839 350.685 193.818 342.383 192.792C335.349 191.926 328.31 191.055 321.275 190.189C316.233 189.569 311.191 188.945 306.148 188.325C303.914 188.051 301.681 187.718 299.438 187.49C299.916 188.279 300.267 189.15 300.504 190.052C301.485 190.175 302.465 190.294 303.445 190.417C307.926 190.969 312.408 191.525 316.889 192.077C323.463 192.888 330.042 193.7 336.616 194.511C344.69 195.51 352.764 196.503 360.843 197.502C369.687 198.596 378.536 199.686 387.381 200.775C396.28 201.874 405.179 202.973 414.078 204.071C422.376 205.097 430.673 206.118 438.97 207.144C446.005 208.01 453.04 208.881 460.079 209.747C465.121 210.372 470.163 210.992 475.205 211.616C477.594 211.913 479.983 212.273 482.381 212.501C482.486 212.51 482.591 212.528 482.691 212.537C484.232 212.729 484.378 210.322 482.846 210.13" fill="black"/>
<path d="M294.628 158.915C294.359 159.69 288.245 172.852 288.245 172.852L271.391 164.277C267.516 162.307 266.025 157.429 268.104 153.545C270.082 149.848 274.573 148.434 278.238 150.349L294.628 158.915Z" fill="url(#colorOne)"/>
<g style="mix-blend-mode:multiply">
<mask id="mask13_5988_6400" style="mask-type:luminance" maskUnits="userSpaceOnUse" x="270" y="152" width="11" height="11">
<path d="M280.514 152.404H270.461V162.703H280.514V152.404Z" fill="white"/>
</mask>
<g mask="url(#mask13_5988_6400)">
<path d="M280.506 157.879C280.328 160.72 277.939 162.871 275.167 162.689C272.395 162.507 270.294 160.063 270.471 157.223C270.649 154.387 273.038 152.231 275.81 152.413C278.582 152.595 280.684 155.044 280.506 157.879Z" fill="url(#colorOne)"/>
</g>
</g>
<path d="M327.883 192.338L348.854 280.783" stroke="black" stroke-width="1.5" stroke-miterlimit="10"/>
<path d="M344.07 193.932L360.711 278.957" stroke="black" stroke-width="1.5" stroke-miterlimit="10"/>
<path d="M358.195 195.301L371.416 277.819" stroke="black" stroke-width="1.5" stroke-miterlimit="10"/>
<path d="M372.789 197.58L384.642 276.907" stroke="black" stroke-width="1.5" stroke-miterlimit="10"/>
<path d="M388.297 198.492L396.503 275.539" stroke="black" stroke-width="1.5" stroke-miterlimit="10"/>
<path d="M403.789 201.227L407.892 274.627" stroke="black" stroke-width="1.5" stroke-miterlimit="10"/>
<path d="M418.375 202.139L421.124 273.473" stroke="black" stroke-width="1.5" stroke-miterlimit="10"/>
<path d="M432.516 203.963L432.858 272.394" stroke="black" stroke-width="1.5" stroke-miterlimit="10"/>
<path d="M447.558 206.697L445.164 271.481" stroke="black" stroke-width="1.5" stroke-miterlimit="10"/>
<path d="M461.233 207.609L458.867 270.218" stroke="black" stroke-width="1.5" stroke-miterlimit="10"/>
<path d="M475.591 233.368L315.57 223.338" stroke="black" stroke-width="1.5" stroke-miterlimit="10"/>
<path d="M472.177 254.112L327.656 252.744" stroke="black" stroke-width="1.5" stroke-miterlimit="10"/>
<path d="M240.801 57.541C240.801 57.541 233.169 58.4482 226.367 54.2129C226.367 54.2129 229.531 61.3295 240.268 60.9739L240.801 57.541Z" fill="black"/>
<path d="M252.024 28.1026C251.769 28.4217 250.793 28.0707 249.617 28.0342C248.441 27.9567 247.438 28.2166 247.214 27.8746C247.119 27.7105 247.278 27.3868 247.72 27.0905C248.153 26.7942 248.878 26.5571 249.685 26.5936C250.492 26.6346 251.19 26.9355 251.595 27.2728C252.006 27.6102 252.138 27.9476 252.024 28.1026Z" fill="black"/>
<path d="M243.828 32.7227C244.165 34.7879 244.744 36.803 245.697 38.663C246.6 40.4091 247.48 42.137 244.598 42.0185C244.069 41.9683 243.55 41.8771 243.039 41.7404C243.563 41.7905 244.083 41.8452 244.603 41.8316C247.206 41.8224 246.107 40.3134 245.36 38.8272C244.43 36.9306 243.86 34.8335 243.828 32.7227Z" fill="black"/>
<path d="M240.723 66.4342C240.148 63.6213 240.007 60.7081 240.408 57.8633C240.823 57.8496 241.238 57.7721 241.653 57.7402C241.324 57.8633 240.882 58.0457 240.54 58.1232L240.654 57.9955C240.878 60.8039 241.046 63.6259 240.718 66.4342" fill="black"/>
<path d="M214.973 27.9568C216.833 14.8724 229.229 5.91854 241.853 11.9866C251.026 16.3359 256.264 26.3748 256.716 36.2679C257.313 43.9133 254.691 52.7623 247.31 56.291C245.313 57.2985 243.121 57.8639 240.909 58.1146C237.659 58.5067 234.231 58.9307 231.062 57.8365L231.085 57.7681C233.196 58.3973 235.42 58.3152 237.586 58.0872C240.8 57.6997 244.124 57.2758 247.014 55.7166C254.039 52.1605 256.474 43.6854 256.018 36.2998C255.763 31.9642 254.91 27.6012 253.009 23.6668C249.412 15.8207 241.055 9.64325 232.193 10.7192C222.838 11.7313 216.998 19.3676 214.969 27.9477" fill="black"/>
<path d="M221.863 41.6337C221.831 41.6109 221.744 41.7249 221.539 41.8252C221.343 41.9255 220.997 42.003 220.627 41.8799C219.875 41.6383 219.205 40.4849 219.123 39.2175C219.082 38.5792 219.191 37.9638 219.396 37.4531C219.592 36.9289 219.907 36.5596 220.281 36.4775C220.65 36.3772 220.924 36.5915 221.015 36.783C221.115 36.9744 221.079 37.1158 221.115 37.1294C221.133 37.1477 221.261 37.0064 221.193 36.7191C221.156 36.5824 221.07 36.4182 220.901 36.2906C220.728 36.1584 220.477 36.0991 220.217 36.1356C219.679 36.1949 219.209 36.71 218.982 37.2753C218.726 37.8407 218.585 38.5291 218.635 39.2494C218.735 40.6627 219.51 41.9574 220.536 42.2127C221.033 42.3222 221.443 42.158 221.649 41.9848C221.858 41.8024 221.89 41.6429 221.867 41.6337" fill="black"/>
<path d="M221.914 50.584C222.383 52.0885 222.534 53.7434 222.515 55.3208C222.547 56.9073 222.534 58.4893 222.515 60.0758C222.442 63.2489 222.328 66.4128 221.968 69.5722C221.626 64.8218 221.699 60.0622 221.932 55.3117C222.069 53.7479 222.073 52.1477 221.918 50.5885" fill="black"/>
<path d="M238.581 28.5725C238.476 28.9691 237.045 28.9144 235.403 29.2655C233.753 29.5846 232.458 30.1909 232.203 29.8672C232.089 29.7122 232.29 29.3293 232.8 28.9053C233.302 28.4859 234.127 28.0528 235.116 27.8522C236.105 27.6516 237.031 27.7291 237.66 27.9206C238.294 28.112 238.627 28.3856 238.581 28.5725Z" fill="black"/>
<path d="M242.773 34.7915C242.855 34.6639 243.462 33.7931 244.583 33.6791C245.381 33.6016 245.974 33.9481 246.156 34.0712" stroke="url(#colorOne)" stroke-width="1.27" stroke-miterlimit="10"/>
<path d="M230.263 35.9394L220.867 34.3438" stroke="url(#colorOne)" stroke-width="1.27" stroke-miterlimit="10"/>
<path d="M267.564 26.8264C265.649 25.8371 263.283 25.6592 261.701 24.1958C260.078 22.6959 259.75 20.307 259.353 18.1369C258.915 15.7708 258.259 13.3955 256.9 11.4078C255.542 9.42008 253.39 7.8609 250.983 7.70589C249.191 7.59192 247.349 8.24385 245.617 7.7606C243.647 7.21352 242.371 5.38535 240.852 4.01309C238.049 1.47829 233.973 0.416034 230.285 1.25945C227.736 1.83844 225.293 3.4113 224.249 5.80022C224.016 6.33362 223.879 6.9035 223.82 7.48249C222.443 7.24998 221.103 7.10866 220.483 7.17705C217.738 7.48706 215.245 9.81214 214.884 12.739C211.552 12.9579 208.447 15.2374 207.066 18.4651C206.892 18.8709 206.747 19.2858 206.633 19.7097C205.721 21.5881 205.684 23.8812 206.573 25.7915C207.111 26.9449 207.978 28.2123 207.444 29.3566C206.902 30.5192 205.333 30.6514 204.143 31.1392C202.069 31.9917 200.861 34.5083 201.485 36.6647C201.709 37.4397 202.142 38.2011 202.033 38.9989C201.919 39.8286 201.253 40.4487 200.761 41.1188C199.53 42.7874 199.274 45.1262 200.118 47.0364C200.961 48.9467 206.14 50.8979 208.219 51.1487C209.167 51.2626 210.175 51.1623 211.018 51.6137C211.985 52.1288 212.468 53.2139 213.184 54.0391C214.556 55.6256 216.968 56.2228 218.905 55.4524C219.298 55.2973 219.658 55.074 219.99 54.8232C220.679 55.6484 220.697 57.7866 222.375 57.6863L222.917 44.0047C221.331 44.3785 217.602 44.5062 217.091 39.6007C216.845 37.2528 217.542 35.9763 218.513 35.3016C219.826 34.3898 221.609 34.3259 222.548 35.2514C222.594 35.2195 222.685 35.2104 222.858 35.2377C226.432 35.8213 226.441 28.577 225.516 26.6668C226.71 25.4678 227.919 24.2505 228.789 22.7643C229.66 21.2781 230.244 17.3299 229.911 15.5884C229.911 15.5884 229.915 15.5884 229.92 15.5884C231.502 16.4592 233.412 16.7373 235.158 16.3133C236.74 15.9258 238.436 15.0185 239.881 15.7845C241.4 16.5914 241.614 18.7752 242.986 19.8146C244.946 21.3008 247.942 20.7674 250.335 21.3236C252.182 21.7522 251.616 25.5498 252.92 26.9267C253.303 27.3324 253.9 27.6743 254.598 27.9433C258.149 38.9898 256.312 53.7518 244.039 57.3899C244.048 57.5449 246.424 56.5283 247.668 56.3642C248.913 56.2 250.034 57.0389 251.197 57.5176C253.969 58.6619 257.497 57.5039 259.052 54.9463C259.841 53.647 260.242 51.9738 261.564 51.2079C262.891 50.4374 264.568 50.9253 266.091 50.7383C269.109 50.3691 271.257 46.7857 270.158 43.9591C269.729 42.8604 268.899 41.8665 268.904 40.6857C268.904 39.3955 269.893 38.3515 270.554 37.2437C272.629 33.7606 271.17 28.6728 267.568 26.8127" fill="black"/>
<path d="M237.139 43.066C232.447 43.4627 228.572 39.314 230.483 34.6729C232.685 29.3981 240.052 28.3952 242.851 33.7292C245.094 38.1742 241.912 42.829 237.139 43.0706M237.13 42.9475C242.126 42.5691 244.1 35.7032 240.467 32.4709C236.482 28.8738 230.268 31.6412 230.957 37.1621C231.267 40.1939 233.879 43.221 237.134 42.9521" fill="url(#colorOne)"/>
<path d="M252.607 40.7184C247.916 41.115 244.041 36.9663 245.951 32.3253C248.153 27.0505 255.521 26.0475 258.32 31.3815C260.563 35.8266 257.381 40.4813 252.607 40.7229M252.598 40.5998C257.595 40.2214 259.569 33.3556 255.936 30.1232C251.951 26.5262 245.737 29.2935 246.425 34.8145C246.735 37.8462 249.348 40.8734 252.603 40.6044" fill="url(#colorOne)"/>
<path d="M252.531 110.352L265.42 129.604C268.511 134.223 273.863 136.808 279.407 136.356L304.955 134.998V135.043L306.861 136.42C308.055 137.797 309.692 138.713 311.493 138.996C313.955 139.383 316.686 139.926 316.686 139.926L319.138 140.277C319.065 140.423 318.97 140.564 318.869 140.696C318.682 140.947 318.482 141.212 318.441 141.522C318.363 142.11 318.883 142.62 319.426 142.88C320.556 143.423 321.969 143.309 322.991 142.598C323.971 141.914 324.541 140.701 324.468 139.507C324.664 139.26 324.833 138.969 324.942 138.604C325.612 136.379 323.465 133.767 323.465 133.767H324.34C324.34 133.767 326.834 134.829 327.066 139.329C327.103 139.999 327.358 140.66 327.837 141.139C328.129 141.43 328.498 141.658 328.936 141.622C330.03 141.54 330.249 140.742 330.139 137.934C330.03 135.125 328.995 132.445 327.436 131.369C325.877 130.297 325.197 129.978 325.197 129.978C325.197 129.978 333.089 129.55 333.59 129.5C335.031 129.363 336.175 128.606 336.171 127.635C336.171 127.015 335.706 126.231 334.023 126.336C332.565 126.427 317.506 125.488 317.506 125.488L311.073 125.46C310.905 125.46 310.741 125.474 310.577 125.497L305.744 126.263C305.457 126.308 305.165 126.29 304.887 126.212L273.566 117.245L263.728 94.3906" fill="white"/>
<path d="M252.57 110.33C256.377 115.87 260.28 121.527 264.05 127.103C264.82 128.211 265.55 129.378 266.366 130.417C269.908 134.821 275.06 136.586 280.585 135.961C288.176 135.528 297.586 135.072 305.222 134.735L305.209 135.004V135.049L305.104 134.84L307 136.23L307.023 136.248C308.414 137.972 310.533 138.751 312.676 139.025C314.536 139.371 317.299 139.909 319.159 140.137L319.378 140.169L319.264 140.338C318.79 141.081 318.12 141.692 319.018 142.458C321.243 144.145 324.571 142.307 324.347 139.508V139.462L324.375 139.426C325.022 138.633 325.058 137.511 324.785 136.554C324.484 135.482 323.891 134.493 323.198 133.631H323.467H324.343C325.323 134.074 325.97 134.999 326.426 135.911C326.864 136.836 327.092 137.839 327.188 138.847C327.233 139.344 327.247 139.809 327.457 140.26C328.122 141.806 329.914 141.974 329.941 139.95C330.055 137.133 329.727 133.805 327.566 131.781C326.809 131.224 325.925 130.659 325.09 130.221L324.229 129.77L325.191 129.711L329.959 129.41L332.344 129.259C332.936 129.223 334.053 129.2 334.614 128.94C335.599 128.644 336.379 127.504 335.38 126.893C335.111 126.738 334.751 126.688 334.391 126.679C332.795 126.72 331.19 126.611 329.599 126.547C323.996 126.314 318.507 125.79 312.891 125.872C312.494 125.872 311.486 125.863 311.099 125.863C311.053 125.822 306.075 126.611 305.842 126.652C305.405 126.738 304.921 126.652 304.497 126.51L303.349 126.182L301.051 125.521C295.078 123.825 279.514 119.261 273.382 117.461L273.337 117.351L268.49 105.894C268.559 105.863 263.512 94.3328 263.767 94.383L268.814 105.758L273.802 117.155L273.637 117.009L292.065 122.161C294.636 122.89 302.282 125.07 304.716 125.763C305.044 125.867 305.377 125.945 305.724 125.881L310.447 125.129C311.144 125.024 312.193 125.097 312.904 125.079C314.322 125.102 316.296 125.07 317.705 125.115C321.657 125.371 325.692 125.621 329.636 125.836C331.231 125.909 332.809 126.027 334.404 125.995C334.833 126.009 335.289 126.059 335.722 126.305C337.299 127.299 336.328 129.118 334.847 129.56C334.181 129.847 333.119 129.857 332.403 129.893C330.926 129.971 326.768 130.18 325.227 130.258L325.327 129.747C326.016 130.098 326.645 130.536 327.274 130.951C330.192 132.834 330.734 137.621 330.215 140.771C330.046 141.683 328.947 142.093 328.177 141.623C327.698 141.336 327.37 140.894 327.16 140.406C326.946 139.937 326.923 139.385 326.887 138.888C326.8 137.908 326.599 136.932 326.185 136.043C325.847 135.195 324.945 134.238 324.356 133.914H323.481L323.581 133.695C324.233 134.539 324.748 135.478 325.04 136.504C325.327 137.525 325.277 138.738 324.575 139.59L324.603 139.508C324.812 142.503 321.288 144.496 318.863 142.672C318.22 142.166 318.152 141.368 318.676 140.757C318.817 140.575 318.908 140.402 319.027 140.228L319.132 140.429C317.249 140.206 314.532 139.709 312.635 139.389C310.415 139.143 308.186 138.341 306.709 136.581C306.918 136.75 304.785 135.213 304.83 135.254L304.725 135.177V135.045L304.73 134.999L304.99 135.259C296.683 135.77 286.872 136.344 278.602 136.732C273.761 136.873 268.914 134.612 265.951 130.773C265.108 129.665 264.419 128.521 263.658 127.39C260.038 121.773 255.962 115.938 252.589 110.344" fill="black"/>
<path d="M311.464 126.72C311.295 127.558 311.961 128.365 312.722 128.767C313.484 129.168 314.359 129.295 315.148 129.642C317.509 130.672 318.799 133.435 321.202 134.347C321.539 134.474 321.991 134.529 322.187 134.228C322.364 133.95 322.187 133.59 322 133.307C320.454 130.923 318.909 128.539 317.363 126.154" fill="white"/>
<path d="M317.365 126.153C317.393 126.135 317.598 126.395 317.944 126.878C318.291 127.361 318.779 128.068 319.376 128.948C319.991 129.864 320.684 130.908 321.446 132.048C321.637 132.344 321.838 132.641 322.038 132.951C322.203 133.252 322.554 133.566 322.472 134.15C322.417 134.437 322.125 134.651 321.87 134.679C321.614 134.715 321.391 134.669 321.177 134.597C320.78 134.442 320.406 134.259 320.055 134.022C318.647 133.078 317.712 131.806 316.672 130.913C316.157 130.457 315.628 130.079 315.081 129.832C314.534 129.586 313.969 129.445 313.463 129.258C312.423 128.934 311.694 128.246 311.489 127.653C311.261 127.051 311.443 126.7 311.457 126.719C311.507 126.719 311.407 127.065 311.662 127.576C311.913 128.091 312.56 128.656 313.572 128.93C314.069 129.089 314.644 129.208 315.246 129.463C315.847 129.714 316.426 130.11 316.969 130.575C318.068 131.492 319.02 132.75 320.324 133.616C320.643 133.835 320.999 134.004 321.336 134.136C321.669 134.259 321.997 134.218 322.016 134.031C322.07 133.831 321.856 133.498 321.655 133.197C321.459 132.887 321.268 132.586 321.076 132.29C320.347 131.132 319.681 130.069 319.093 129.13C318.533 128.228 318.09 127.494 317.789 126.978C317.493 126.463 317.338 126.171 317.365 126.153Z" fill="black"/>
<path d="M323.422 133.657C323.413 133.721 324.101 133.571 324.977 134.077C325.405 134.327 325.815 134.779 326.066 135.38C326.331 135.987 326.454 136.712 326.522 137.487C326.595 138.262 326.663 139.023 326.873 139.698C327.083 140.363 327.407 140.933 327.817 141.298C328.227 141.676 328.729 141.736 329.016 141.667C329.312 141.604 329.444 141.503 329.44 141.494C329.431 141.467 329.276 141.526 329.002 141.549C328.729 141.572 328.318 141.49 327.972 141.138C327.625 140.797 327.338 140.25 327.156 139.62C326.969 138.987 326.914 138.248 326.841 137.464C326.768 136.68 326.636 135.914 326.335 135.271C326.048 134.624 325.569 134.136 325.091 133.89C324.612 133.634 324.17 133.58 323.878 133.584C323.582 133.589 323.427 133.643 323.431 133.662" fill="black"/>
<path d="M334.154 129.436C334.149 129.391 333.547 129.436 332.585 129.514C331.51 129.591 330.228 129.687 328.815 129.792C327.397 129.874 326.116 129.947 325.04 130.011C324.074 130.061 323.477 130.097 323.477 130.143C323.477 130.184 324.078 130.229 325.049 130.234C326.02 130.239 327.365 130.202 328.842 130.106C330.32 130.011 331.655 129.869 332.617 129.737C333.579 129.605 334.167 129.482 334.163 129.441" fill="black"/>
<path d="M321.764 135.545C321.764 135.545 321.832 135.714 321.974 135.992C322.101 136.261 322.316 136.717 322.115 137.196C322.019 137.428 321.796 137.592 321.49 137.643C321.19 137.702 320.843 137.656 320.465 137.633C320.095 137.606 319.626 137.606 319.243 137.898C318.874 138.185 318.682 138.659 318.705 139.138C318.728 139.626 318.992 140.054 319.325 140.337C319.662 140.62 320.054 140.802 320.465 140.848C321.244 140.911 321.919 140.806 322.48 140.688C323.041 140.56 323.478 140.387 323.752 140.209C324.025 140.031 324.126 139.872 324.112 139.867C324.094 139.849 323.966 139.968 323.693 140.104C323.419 140.241 322.986 140.378 322.439 140.474C321.892 140.56 321.217 140.638 320.501 140.56C319.84 140.469 319.065 139.908 319.024 139.124C319.006 138.741 319.165 138.358 319.439 138.139C319.717 137.925 320.095 137.902 320.46 137.921C320.825 137.939 321.199 137.975 321.554 137.898C321.905 137.839 322.234 137.588 322.329 137.282C322.535 136.667 322.247 136.188 322.088 135.933C321.91 135.664 321.787 135.536 321.773 135.545" fill="black"/>
<path d="M319.565 140.19C319.565 140.19 319.396 140.145 319.122 140.263C318.858 140.382 318.489 140.687 318.379 141.23C318.27 141.759 318.484 142.452 319.036 142.917C319.578 143.386 320.372 143.605 321.165 143.555C321.967 143.505 322.697 143.19 323.221 142.752C323.754 142.31 324.078 141.759 324.251 141.28C324.424 140.792 324.456 140.373 324.447 140.09C324.434 139.803 324.393 139.652 324.374 139.652C324.315 139.652 324.42 140.295 324.046 141.198C323.859 141.64 323.54 142.142 323.039 142.529C322.546 142.921 321.871 143.199 321.142 143.245C320.417 143.29 319.697 143.094 319.218 142.698C318.735 142.306 318.53 141.718 318.598 141.266C318.666 140.806 318.963 140.505 319.182 140.373C319.41 140.236 319.569 140.222 319.565 140.195" fill="black"/>
<path d="M313.902 135.103C313.93 135.103 313.966 134.816 313.838 134.351C313.711 133.895 313.383 133.252 312.731 132.774L312.671 133.043C313 132.988 313.351 132.91 313.711 132.801C315.708 132.217 316.952 131.018 316.888 130.973C316.834 130.895 315.544 131.944 313.62 132.5C313.273 132.605 312.931 132.682 312.617 132.746L312.266 132.815L312.557 133.015C313.155 133.43 313.492 133.995 313.661 134.406C313.829 134.825 313.861 135.099 313.902 135.099" fill="black"/>
<path d="M327.348 134.41C327.307 134.337 326.76 134.679 326.513 135.386C326.258 136.092 326.468 136.703 326.545 136.676C326.637 136.662 326.586 136.111 326.81 135.495C327.024 134.875 327.407 134.478 327.348 134.41Z" fill="black"/>
<path d="M250.258 278.849L251.119 347.613L265.626 349.669L278.291 263.736L268.088 268.035L250.258 278.849Z" fill="white"/>
<path d="M250.29 278.867C250.878 301.461 251.257 324.963 251.279 347.612L251.143 347.452C255.428 347.99 261.419 349.025 265.645 349.545C268.294 328.774 271.672 306.426 274.735 285.158C275.798 277.996 276.855 270.838 277.963 263.685L278.419 264.041C278.446 264.041 268.057 268.326 268.225 268.262C263.766 270.934 254.772 276.227 250.295 278.867M250.222 278.83C254.639 276.081 263.525 270.528 267.961 267.802C267.979 267.793 278.136 263.439 278.159 263.43L278.697 263.197L278.615 263.781C274.485 292.398 270.249 321.475 265.604 349.782C261.405 349.239 255.355 348.309 251.092 347.771L250.956 347.753V347.612C250.418 324.963 250.19 301.402 250.222 278.826" fill="black"/>
<path d="M267.676 346.258L267.667 347.384C267.667 347.384 286.687 355.28 286.846 358.905L248.906 358.271V345.629C254.505 348.337 261.129 348.752 267.676 346.253" fill="url(#colorOne)"/>
<path d="M248.906 358.275L249.079 355.238L285.378 356.952C285.378 356.952 287.056 357.714 286.846 358.904L248.906 358.27V358.275Z" fill="black"/>
<path d="M229.853 272.006L199.016 328.57L212.205 339.083C212.205 339.083 235.196 305.807 243.498 295.845C251.777 285.911 265.75 270.493 262.577 257.271L229.853 272.011V272.006Z" fill="white"/>
<path d="M229.875 272.033C222.421 286.152 214.652 300.609 206.993 314.61C204.427 319.315 201.819 323.997 199.216 328.683L199.156 328.392C202.43 331.027 208.995 336.37 212.282 338.982C211.361 339.675 226.406 318.699 226.1 318.941C230.8 312.271 235.505 305.601 240.456 299.109C247.86 289.526 256.842 280.686 261.145 269.152C262.499 265.391 263.147 261.274 262.248 257.339L262.709 257.563C253.377 261.734 239.125 267.985 229.875 272.029M229.825 271.978C238.915 267.697 253.217 261.215 262.44 256.966L262.805 256.797C263.917 260.968 263.329 265.409 261.87 269.412C257.585 281.083 248.521 289.95 241.004 299.533C231.033 312.485 221.537 325.829 212.236 339.269C208.817 336.538 202.161 331.337 198.719 328.633C201.285 323.833 203.848 319.032 206.451 314.249C214.06 300.24 222.011 285.865 229.829 271.978" fill="black"/>
<path d="M214.693 337.463L214.036 338.361C214.036 338.361 224.759 355.662 222.794 358.671L192.695 336.291L199.981 326.143C202.917 331.54 207.995 335.698 214.693 337.463Z" fill="url(#colorOne)"/>
<path d="M192.695 336.297L194.583 333.963L222.739 356.266C222.739 356.266 223.646 357.848 222.794 358.677L192.695 336.297Z" fill="black"/>
<path d="M262.744 257.73C262.744 257.73 262.889 258.018 263.031 258.61C263.181 259.198 263.291 260.101 263.259 261.255C263.199 263.571 262.465 266.858 261.125 270.742C260.423 272.693 259.402 274.713 258.157 276.792C256.935 278.898 255.285 280.908 253.662 283.065C250.393 287.391 246.846 292.178 243.126 297.216C235.7 307.269 228.984 316.368 224.083 323.002C221.64 326.248 219.652 328.892 218.243 330.766C217.564 331.641 217.021 332.339 216.625 332.854C216.251 333.328 216.046 333.57 216.032 333.56C216.018 333.551 216.192 333.287 216.538 332.79C216.916 332.261 217.432 331.545 218.074 330.643C219.451 328.746 221.389 326.065 223.778 322.778C228.601 316.145 235.257 306.972 242.693 296.897C246.409 291.864 249.974 287.081 253.265 282.769C254.911 280.603 256.552 278.629 257.774 276.564C259.023 274.517 260.058 272.52 260.765 270.614C262.142 266.766 262.926 263.525 263.044 261.245C263.19 258.957 262.666 257.744 262.739 257.73" fill="black"/>
<path d="M226.852 142.794L227.549 148.867C227.549 148.867 216.877 169.041 216.877 179.868C216.877 190.696 211.953 276.866 211.953 276.866C211.953 276.866 269.852 280.162 275.971 274.513L282.089 268.865L302.8 263.216L270.491 145.311V138.992L226.857 142.794H226.852Z" fill="black"/>
<path d="M266.461 171.998C266.461 171.998 266.488 172.08 266.52 172.235C266.552 172.427 266.589 172.659 266.634 172.942C266.73 173.607 266.858 174.515 267.022 175.664C267.359 178.075 267.838 181.481 268.421 185.671C269.629 194.118 271.426 205.767 273.746 218.577C276.071 231.388 278.478 242.932 280.311 251.266C281.232 255.396 281.984 258.751 282.513 261.127C282.764 262.257 282.96 263.151 283.106 263.812C283.161 264.095 283.211 264.323 283.247 264.514C283.275 264.674 283.288 264.756 283.279 264.756C283.27 264.756 283.243 264.678 283.197 264.528C283.147 264.341 283.083 264.117 283.006 263.839C282.837 263.187 282.604 262.298 282.317 261.181C281.724 258.87 280.913 255.51 279.946 251.352C278.018 243.036 275.547 231.498 273.222 218.678C270.901 205.858 269.16 194.191 268.052 185.73C267.496 181.499 267.076 178.071 266.821 175.695C266.698 174.542 266.602 173.63 266.534 172.96C266.511 172.673 266.488 172.44 266.475 172.249C266.465 172.089 266.461 172.007 266.475 172.003" fill="white"/>
<path d="M224.88 182.794C224.88 182.794 224.98 183.027 225.122 183.478C225.272 183.984 225.468 184.641 225.71 185.461C226.229 187.244 226.959 189.724 227.848 192.756C229.672 198.91 232.32 207.372 235.548 216.618C238.785 225.863 241.999 234.129 244.406 240.078C245.605 243.005 246.581 245.394 247.288 247.113C247.607 247.906 247.866 248.54 248.063 249.028C248.236 249.47 248.318 249.702 248.3 249.711C248.281 249.72 248.167 249.497 247.962 249.073C247.739 248.594 247.452 247.97 247.091 247.195C246.344 245.563 245.3 243.178 244.051 240.22C241.548 234.302 238.274 226.046 235.033 216.791C231.796 207.536 229.206 199.043 227.474 192.856C226.608 189.765 225.933 187.253 225.5 185.507C225.295 184.677 225.135 184.012 225.008 183.496C224.903 183.036 224.853 182.79 224.871 182.785" fill="white"/>
<path d="M272.453 148.159C272.453 148.196 271.837 148.269 270.716 148.374C269.594 148.478 267.971 148.597 265.965 148.716C261.949 148.957 256.392 149.176 250.251 149.203C244.11 149.226 238.548 149.053 234.531 148.843C232.521 148.738 230.898 148.633 229.776 148.538C228.655 148.447 228.035 148.378 228.039 148.342C228.039 148.305 228.664 148.301 229.79 148.333C231.007 148.369 232.607 148.41 234.549 148.465C238.566 148.579 244.119 148.688 250.251 148.665C256.382 148.638 261.931 148.483 265.947 148.337C267.885 148.269 269.49 148.209 270.707 148.164C271.833 148.127 272.453 148.123 272.457 148.164" fill="url(#colorOne)"/>
<path d="M273.557 117.247C271.209 117.863 269.294 119.011 267.648 120.789C268.547 118.528 271.136 116.978 273.557 117.247Z" fill="black"/>
<path d="M242.808 69.4431C242.529 68.7866 263.346 85.386 265.963 93.4737C268.58 101.561 269.022 124.885 269.022 124.885L270.485 139.862L228.921 142.793L227.804 139.862L224.731 131.519L218.029 120.791C218.029 120.791 212.221 110.105 210.94 103.07C206.212 77.0795 219.233 68.3125 219.233 68.3125L242.798 69.4477L242.808 69.4431Z" fill="url(#colorOne)"/>
<path d="M219.244 69.0754C219.244 69.0754 216.942 64.799 218.36 62.9344C219.49 61.4527 239.5 63.3082 243.585 64.1744C245.983 64.6805 243.539 70.0282 243.539 70.0282L219.244 69.0708V69.0754Z" fill="url(#colorOne)"/>
<path d="M243.59 69.5178C243.594 69.5543 243.257 69.6454 242.637 69.7822C242.017 69.9235 241.114 70.0785 239.993 70.229C237.749 70.5344 234.608 70.7487 231.148 70.5755C227.688 70.3977 224.583 69.8688 222.381 69.34C221.278 69.0756 220.393 68.8339 219.796 68.6333C219.194 68.4373 218.866 68.3096 218.875 68.2777C218.898 68.1957 220.252 68.5422 222.463 68.9707C224.67 69.3993 227.752 69.8643 231.175 70.0375C234.604 70.2062 237.708 70.0558 239.951 69.8506C242.194 69.6454 243.576 69.4357 243.59 69.5223" fill="black"/>
<path d="M240.423 102.625L240.569 101.476C240.569 101.476 247.129 93.4797 245.247 86.1443C244.353 82.6612 241.791 79.8118 239.347 77.7785C234.893 74.072 227.567 74.1951 224.581 79.1644C223.897 80.3042 223.167 82.0549 222.657 83.3861C222.205 84.5532 221.904 85.7704 221.749 87.0105C220.587 96.0784 215.449 137.16 217.072 141.632C218.85 146.528 245.493 152.514 264.28 157.908C264.641 158.528 265.019 159.084 265.393 159.444C266.77 160.762 268.087 159.731 269.783 159.877C271.479 160.023 271.944 160.62 272.414 161.568C272.883 162.517 275.532 169.196 276.927 169.82C277.903 170.258 279.033 169.601 278.833 168.603C278.632 167.6 275.578 158.988 275.578 158.988C275.578 158.988 278.769 163.479 279.202 165.266C279.631 167.053 280.542 170.764 282.175 170.641C283.059 170.573 283.601 170.481 283.547 168.899C283.492 167.254 283.059 164.071 282.681 162.895C282.302 161.723 280.67 158.095 280.67 158.095C280.67 158.095 284.108 162.398 284.258 163.479C284.408 164.559 283.57 165.562 284.395 166.228C285.224 166.893 286.688 166.251 287.153 165.462C287.618 164.673 287.933 161.765 287.691 160.912C287.449 160.059 285.215 156.207 285.215 156.207C285.215 156.207 287.974 158.783 288.416 159.941C288.858 161.099 289.565 165.786 290.422 166.237C291.279 166.688 292.692 166.82 292.701 165.152C292.71 163.483 292.072 159.289 291.858 158.222C291.562 156.745 286.702 151.881 285.753 150.964C284.805 150.048 280.802 150.162 279.827 149.802C279.074 149.524 274.214 148.078 272.049 147.436L236.935 131.429C236.935 131.429 236.99 130.549 237.09 129.035L240.423 102.63V102.625Z" fill="white"/>
<path d="M240.391 102.62C240.391 102.62 240.528 101.466 240.528 101.457C241.526 100.158 242.402 98.7582 243.149 97.2994C245.388 93.0595 246.528 87.6571 243.924 83.3443C242.297 80.5997 239.944 78.0786 237.109 76.5924C234.25 75.1836 230.703 74.9785 227.845 76.4647C225.62 77.5406 224.407 79.7882 223.532 81.9993C222.898 83.4947 222.347 85.0083 222.123 86.6222C221.9 88.1039 221.439 92.3528 221.23 93.9348C220.464 100.445 219.725 106.96 219.028 113.479C218.221 121.622 217.3 129.773 217.168 137.952C217.168 138.96 217.19 139.967 217.327 140.952C217.578 143.56 224.353 145.766 226.614 146.678C239.005 151.027 251.871 153.959 264.472 157.674C265.096 158.778 265.899 160.036 267.33 159.849C269.4 159.493 271.885 159.252 272.751 161.7C273.522 163.473 274.365 165.484 275.263 167.18C275.733 168.019 276.179 168.958 276.913 169.564C277.374 169.851 278.131 169.797 278.477 169.345C278.655 169.131 278.705 168.853 278.628 168.561C278.463 167.937 278.245 167.289 278.039 166.656C277.196 164.107 276.312 161.572 275.423 159.037L275.012 157.866C275.901 159.124 276.827 160.464 277.629 161.777C278.564 163.227 279.371 164.832 279.69 166.551C280.086 167.782 280.697 170.512 282.234 170.494C283.747 170.54 283.41 169.058 283.369 167.996C283.209 166.295 283.027 164.554 282.567 162.908C281.869 160.975 280.966 159.074 280.128 157.191C281.491 158.951 282.913 160.674 284.044 162.607C284.29 163.017 284.481 163.537 284.399 164.02C284.313 164.85 283.766 165.967 284.851 166.291C285.658 166.514 286.683 166.013 287.071 165.288C287.54 164.034 287.659 162.543 287.577 161.221C287.404 160.332 286.829 159.548 286.433 158.737C285.799 157.565 285.033 156.279 284.358 155.117C285.348 156.047 286.465 157.073 287.367 158.089C288.015 158.809 288.676 159.607 288.853 160.592L289.524 163.359C289.765 164.203 289.966 165.215 290.454 165.912C290.513 165.994 290.768 166.104 290.96 166.163C292.405 166.583 292.537 165.525 292.4 164.312C292.25 162.434 291.967 160.556 291.648 158.7C291.58 158.208 291.448 157.893 291.179 157.496C290.144 155.956 288.817 154.565 287.536 153.206C286.884 152.523 286.218 151.848 285.544 151.191C284.91 150.699 283.848 150.626 283.027 150.512C281.655 150.371 280.064 150.311 278.751 149.805L277.392 149.395L271.958 147.74C271.958 147.74 271.926 147.731 271.912 147.722C263.168 143.724 245.57 135.645 236.84 131.62L236.698 131.556V131.396C236.949 127.17 237.952 121.243 238.454 116.99L240.382 102.611C240.583 102.451 238.704 117.04 238.755 117.022C238.303 121.303 237.378 127.202 237.163 131.424L237.031 131.2C245.73 135.125 263.638 143.218 272.145 147.093C273.964 147.626 278.523 149.067 280.292 149.55C281.655 149.764 283.15 149.774 284.541 150.084C285.019 150.207 285.521 150.311 285.99 150.717C286.674 151.387 287.34 152.067 287.996 152.76C289.446 154.369 291.06 155.878 292.058 157.838C292.305 158.586 292.323 159.256 292.46 160.004C292.66 161.422 292.852 162.84 292.947 164.271C292.984 165.033 293.098 165.963 292.409 166.501C291.935 166.852 291.324 166.806 290.809 166.646C290.559 166.551 290.34 166.51 290.071 166.236C289.729 165.78 289.597 165.32 289.437 164.859C289.132 163.993 288.653 161.627 288.416 160.697C288.256 159.767 287.654 159.06 287.048 158.363C286.428 157.656 285.762 156.981 285.083 156.329L285.389 156.083C286.086 157.31 286.775 158.54 287.408 159.803C287.613 160.241 287.869 160.67 287.914 161.171C287.992 162.147 287.882 163.081 287.727 164.02C287.595 164.978 287.226 166.031 286.237 166.4C285.366 166.879 283.834 166.61 283.884 165.384C283.975 164.417 284.418 163.601 283.802 162.73C282.877 161.125 281.714 159.635 280.57 158.158L280.779 158.03C281.477 159.621 282.202 161.189 282.781 162.831C283.246 164.513 283.442 166.241 283.615 167.969C283.693 169.14 283.962 170.777 282.252 170.754C280.114 170.813 279.462 166.528 278.956 164.96C278.555 163.906 277.948 162.917 277.351 161.942C276.745 160.966 276.102 160.008 275.441 159.074L275.742 158.919C276.644 161.449 277.538 163.984 278.4 166.532C278.609 167.175 278.828 167.8 279.011 168.475C279.115 168.83 279.047 169.291 278.787 169.592C277.926 170.581 276.549 170.152 275.942 169.122C274.429 166.924 273.408 164.312 272.309 161.891C272.035 161.294 271.721 160.729 271.183 160.464C270.654 160.191 269.97 160.104 269.345 160.109C268.06 160.177 266.387 160.82 265.302 159.708C264.75 159.215 264.394 158.623 264.043 158.034L264.207 158.162C251.588 154.565 238.768 151.697 226.349 147.38C223.692 146.318 216.858 144.175 216.534 141.075C216.388 140.045 216.352 138.969 216.361 137.943C216.502 129.728 217.437 121.553 218.257 113.393C218.946 106.869 219.725 100.354 220.555 93.8482C220.997 91.0809 221.23 86.7635 222.096 84.0874C223.231 81.0237 224.462 77.5224 227.603 75.9997C230.63 74.4587 234.319 74.6958 237.305 76.1912C240.943 78.1196 244.791 82.5191 245.516 86.6586C246.477 92.0292 243.769 97.3267 240.605 101.498L240.615 101.475L240.46 102.624L240.387 102.615L240.391 102.62Z" fill="black"/>
<path d="M236.932 131.419C234.584 132.034 232.669 133.183 231.023 134.961C231.922 132.7 234.511 131.15 236.932 131.419Z" fill="black"/>
</g>
</g>
<defs>
<clipPath id="clip0_5988_6400">
<rect width="640" height="360" fill="white"/>
</clipPath>
</defs>
<script type="text/ecmascript" xlink:href="https://dev.w3.org/SVG/modules/ref/master/ref2.js"></script></svg>
