<svg width="640" height="360" viewBox="0 0 640 360" fill="none" 
xmlns="http://www.w3.org/2000/svg" 
xmlns:xlink="http://www.w3.org/1999/xlink">
<defs>
<ref id="colorOne" param="c1" default="#242C4F" />
<ref id="colorTwo" param="c2" default="#9296A7"/>
</defs>
<path d="M388.303 300.398C386.603 290.198 384.303 284.898 380.403 274.998C373.403 256.898 365.903 244.398 365.903 244.398L277.403 254.098C277.403 254.098 274.503 275.198 271.203 295.198C270.903 297.198 270.503 297.598 270.203 300.398" fill="black"/>
<path d="M302.703 61.5985C305.803 53.6985 312.803 49.6985 315.803 41.7985C315.803 41.7985 312.203 36.2985 307.803 35.8985C303.403 35.4985 295.403 38.9985 291.203 42.5985C285.003 46.4985 281.703 52.9985 280.003 60.1985C278.703 65.8985 279.203 71.8985 279.703 77.6985C281.003 92.7985 282.303 107.998 283.503 123.098C283.603 124.098 283.703 125.098 284.103 125.898C285.203 127.898 297.803 127.598 301.903 126.798C304.303 126.298 302.303 126.198 305.603 124.998C307.503 124.298 305.703 117.398 305.803 115.398C306.903 100.698 310.903 88.9985 308.603 74.3985L302.703 61.5985Z" fill="black"/>
<path d="M319.499 131C314.761 130.052 306.455 127.989 305.5 125C305 124.5 304.578 124.168 304.578 124C304.578 123.999 304.578 123.998 304.578 123.996L304.579 112.5L333.499 106L335.999 120.5L334.499 128.5C331.999 129.5 325.499 131 319.499 131Z" fill="white"/>
<path d="M274.402 207.505C274.402 207.505 268.302 232.905 264.102 238.005L282.802 246.605L294.002 228.105L289.102 192.805L274.402 207.505Z" fill="url(#colorTwo)"/>
<path d="M284.201 230.108C284.201 230.108 284.001 230.108 283.601 230.008C283.201 229.908 282.701 229.808 282.001 229.608C280.701 229.208 278.801 228.608 276.801 227.808C274.801 227.008 273.101 226.208 271.801 225.608C271.201 225.308 270.701 225.008 270.301 224.808C270.001 224.608 269.801 224.508 269.801 224.508C269.801 224.508 270.001 224.608 270.401 224.708C270.801 224.908 271.301 225.108 271.901 225.408C273.201 226.008 274.901 226.708 276.901 227.508C278.901 228.308 280.701 228.908 282.001 229.408C282.601 229.608 283.101 229.808 283.601 229.908C284.001 229.908 284.201 230.008 284.201 230.108Z" fill="white"/>
<path d="M283.3 217.103C283.3 217.103 282.7 217.103 281.7 216.903C280.7 216.703 279.4 216.403 277.9 215.903C276.4 215.403 275.1 214.903 274.2 214.503C273.3 214.103 272.7 213.803 272.8 213.703C272.8 213.703 273.4 213.903 274.3 214.303C275.2 214.703 276.5 215.203 278 215.603C279.5 216.103 280.8 216.403 281.8 216.703C282.7 216.903 283.3 217.103 283.3 217.103Z" fill="white"/>
<path d="M281.102 242.805C281.102 242.805 280.902 242.805 280.502 242.605C280.102 242.505 279.502 242.305 278.802 242.005C277.402 241.505 275.402 240.605 273.302 239.605C271.202 238.605 269.302 237.505 268.002 236.705C267.302 236.305 266.802 236.005 266.502 235.705C266.102 235.505 265.902 235.305 266.002 235.305C266.102 235.305 266.202 235.405 266.602 235.605C267.002 235.805 267.602 236.105 268.202 236.505C269.502 237.305 271.402 238.305 273.502 239.305C275.602 240.305 277.602 241.205 279.002 241.805C279.702 242.105 280.202 242.305 280.702 242.505C280.902 242.705 281.102 242.805 281.102 242.805Z" fill="white"/>
<g opacity="0.26">
<path d="M272.5 214.905C274.3 214.305 276.3 213.805 278.1 213.205C278.1 222.605 278.1 232.005 278.1 241.505C278.1 242.305 278.1 243.105 278.4 243.905C278.7 244.605 279.4 245.305 280.2 245.205C281 245.205 281.6 244.505 282.1 243.905C285.5 239.805 287.5 234.705 288.7 229.605C289.8 224.405 290.1 219.105 289.9 213.805C289.8 210.005 289.6 206.105 288.5 202.405C288.1 201.005 287.6 199.705 286.6 198.705C285.2 197.505 283.3 197.405 281.5 197.805C278.2 198.705 276.8 201.505 275.5 204.705C274.3 207.805 272.5 214.905 272.5 214.905Z" fill="url(#colorTwo)"/>
</g>
<path d="M378.303 269.202L362.703 216.502L375.003 134.002C365.503 127.702 354.003 122.302 337.203 120.102C334.103 131.602 323.203 137.002 315.703 134.202C310.603 132.302 304.603 127.102 304.103 120.302C294.903 124.402 288.003 127.802 278.803 131.902L280.603 182.602L282.503 227.602L274.203 272.302C281.203 277.402 299.803 277.002 314.403 280.602C347.003 284.502 369.603 273.202 378.303 269.202Z" fill="url(#colorOne)"/>
<path d="M306.505 248.705C306.505 248.705 306.205 248.705 305.705 248.705C305.205 248.705 304.505 248.605 303.705 248.405C302.005 248.105 299.705 247.605 297.205 246.705C294.705 245.805 292.605 244.705 291.105 243.905C290.405 243.505 289.805 243.105 289.405 242.805C289.005 242.505 288.805 242.405 288.805 242.305C288.805 242.305 289.005 242.405 289.505 242.705C289.905 242.905 290.505 243.305 291.305 243.705C292.805 244.505 295.005 245.605 297.405 246.405C299.905 247.305 302.205 247.805 303.905 248.205C304.705 248.405 305.405 248.505 305.905 248.605C306.305 248.705 306.505 248.705 306.505 248.705Z" fill="black"/>
<path d="M284.202 166.898L262.502 183.998L271.402 134.898L256.102 130.898L253.602 135.798C250.402 136.598 231.902 183.398 235.502 205.798C238.102 221.598 265.302 224.498 283.402 199.898L284.202 166.898Z" fill="url(#colorOne)"/>
<path d="M364.102 179.404C364.102 179.404 390.602 178.604 390.902 176.004C391.402 171.704 381.402 137.504 374.602 133.804C367.802 130.304 364.102 179.404 364.102 179.404Z" fill="url(#colorOne)"/>
<path d="M279.202 131.898C279.202 131.898 269.502 134.698 266.502 149.998C263.502 165.398 260.602 186.398 260.602 186.398L266.102 213.898L282.202 201.398L279.202 131.898Z" fill="url(#colorOne)"/>
<path d="M375.902 135.305C375.902 135.305 375.502 135.405 374.802 135.505C374.102 135.605 373.102 135.905 371.902 136.305C369.502 137.105 366.402 138.705 363.602 141.405C360.802 144.105 359.102 147.205 358.102 149.505C357.602 150.705 357.302 151.705 357.202 152.305C357.002 153.005 356.902 153.405 356.902 153.405C356.902 153.405 356.902 153.305 356.902 153.105C356.902 152.905 357.002 152.605 357.102 152.305C357.202 151.605 357.502 150.605 358.002 149.405C358.902 147.005 360.602 143.905 363.402 141.205C366.202 138.505 369.502 136.905 371.902 136.105C373.102 135.705 374.102 135.505 374.802 135.405C375.102 135.305 375.402 135.305 375.602 135.305C375.802 135.305 375.902 135.305 375.902 135.305Z" fill="black"/>
<path d="M256.902 137.005C256.802 137.005 256.502 135.805 256.802 134.305C257.102 132.805 257.902 131.805 258.002 131.805C258.102 131.805 257.402 132.905 257.102 134.305C256.902 135.805 257.002 137.005 256.902 137.005Z" fill="black"/>
<path d="M262.6 132.602C262.7 132.602 262.6 134.102 262.1 135.802C261.6 137.602 260.8 138.802 260.8 138.802C260.7 138.802 261.3 137.402 261.8 135.702C262.3 134.002 262.5 132.602 262.6 132.602Z" fill="black"/>
<path d="M266.603 133.805C266.703 133.805 266.903 135.305 266.303 137.005C265.703 138.705 264.503 139.705 264.503 139.605C264.403 139.505 265.403 138.505 266.003 136.905C266.603 135.305 266.503 133.805 266.603 133.805Z" fill="black"/>
<path d="M269.402 134.5C269.502 134.5 269.802 135.8 269.402 137.5C269.002 139.1 268.102 140.2 268.102 140.2C268.002 140.2 268.802 139 269.102 137.5C269.502 135.8 269.302 134.5 269.402 134.5Z" fill="black"/>
<path d="M266.001 173.903C266.001 173.903 265.901 173.803 265.901 173.703C265.801 173.503 265.701 173.403 265.601 173.103C265.301 172.603 264.901 171.903 264.301 171.003C263.201 169.203 261.401 166.803 259.001 164.303H259.201C257.501 165.303 255.701 166.503 253.901 167.803C251.801 169.303 249.901 170.803 248.101 172.103L248.001 172.203L247.901 172.103C246.101 169.403 244.801 166.903 244.001 165.103C243.601 164.203 243.301 163.503 243.101 163.003C243.001 162.803 242.901 162.603 242.901 162.403C242.901 162.303 242.801 162.203 242.801 162.203C242.801 162.203 242.801 162.303 242.901 162.403C243.001 162.503 243.101 162.703 243.201 163.003C243.401 163.503 243.701 164.203 244.201 165.103C245.101 166.903 246.401 169.303 248.201 172.003H248.001C249.701 170.603 251.701 169.103 253.801 167.603C255.601 166.303 257.401 165.103 259.101 164.103L259.201 164.003L259.301 164.103C261.701 166.603 263.401 169.103 264.601 170.903C265.201 171.803 265.601 172.503 265.801 173.003C265.901 173.303 266.001 173.503 266.101 173.603C266.001 173.903 266.001 173.903 266.001 173.903Z" fill="white"/>
<path d="M266.902 185.602C266.902 185.602 266.802 185.502 266.602 185.302C266.402 185.102 266.202 184.802 265.802 184.402C265.102 183.602 264.202 182.402 262.902 181.102C262.302 180.402 261.602 179.702 260.802 178.902C260.402 178.502 260.002 178.102 259.602 177.702C259.202 177.302 258.702 176.902 258.202 176.602C257.702 176.302 257.102 176.302 256.502 176.502C255.902 176.702 255.402 177.102 254.902 177.502C253.802 178.302 252.802 179.202 251.602 180.102C250.102 181.302 248.602 182.502 247.202 183.502L247.102 183.602L247.002 183.502C244.102 180.202 242.002 177.102 240.602 174.802C239.902 173.702 239.402 172.702 239.102 172.102C238.902 171.802 238.802 171.502 238.702 171.402C238.602 171.202 238.602 171.102 238.602 171.102C238.602 171.102 238.702 171.202 238.802 171.302C238.902 171.502 239.002 171.702 239.202 172.002C239.602 172.602 240.102 173.502 240.802 174.702C242.202 177.002 244.302 180.002 247.202 183.302H247.002C248.402 182.202 249.902 181.102 251.402 179.902C252.502 179.002 253.602 178.202 254.702 177.302C255.202 176.902 255.802 176.502 256.402 176.202C257.002 175.902 257.802 176.002 258.302 176.302C258.902 176.602 259.302 177.002 259.702 177.402C260.102 177.802 260.502 178.202 260.902 178.602C261.702 179.402 262.302 180.102 263.002 180.802C264.202 182.202 265.202 183.402 265.802 184.202C266.102 184.602 266.402 184.902 266.502 185.202C266.902 185.502 266.902 185.602 266.902 185.602Z" fill="white"/>
<path d="M272.102 175.102C272.102 175.202 271.002 176.102 269.602 177.102C268.202 178.102 266.902 178.902 266.902 178.802C266.902 178.702 268.002 177.802 269.402 176.802C270.902 175.802 272.102 175.002 272.102 175.102Z" fill="white"/>
<path d="M281.602 163.698C281.602 163.698 281.402 163.798 281.202 164.098C280.902 164.398 280.602 164.798 280.302 165.398C280.002 165.998 279.502 166.698 278.702 167.098C278.302 167.298 277.802 167.498 277.302 167.398C276.802 167.298 276.402 166.898 276.002 166.598C274.402 165.298 273.002 164.198 272.002 163.298C271.502 162.898 271.102 162.498 270.802 162.298C270.502 162.098 270.402 161.898 270.402 161.898C270.402 161.898 270.602 161.998 270.902 162.198C271.202 162.398 271.602 162.698 272.202 163.098C273.302 163.898 274.702 164.998 276.302 166.298C276.702 166.598 277.102 166.898 277.502 166.998C277.902 167.098 278.402 166.998 278.702 166.798C279.402 166.398 279.902 165.698 280.302 165.198C280.702 164.698 281.002 164.198 281.302 163.998C281.402 163.698 281.602 163.698 281.602 163.698Z" fill="white"/>
<path d="M281.201 160.202C281.201 160.202 280.601 159.902 279.601 159.302C278.701 158.702 277.301 157.902 275.901 157.102C274.401 156.302 273.101 155.502 272.101 155.002C271.101 154.502 270.501 154.102 270.601 154.102C270.601 154.102 271.201 154.302 272.201 154.802C273.201 155.302 274.601 156.002 276.001 156.802C277.501 157.602 278.801 158.502 279.701 159.102C280.701 159.802 281.201 160.202 281.201 160.202Z" fill="white"/>
<path d="M316.302 183.498C316.302 183.498 316.302 183.498 316.202 183.398C316.102 183.298 316.002 183.198 315.802 183.098C315.502 182.798 315.002 182.498 314.402 181.998C313.202 180.998 311.502 179.598 309.402 177.898H309.602C306.802 180.698 303.302 184.198 299.402 188.098C298.802 188.698 298.302 189.298 297.602 189.698C296.902 190.198 296.102 190.398 295.302 190.198C294.502 189.998 293.802 189.598 293.302 189.198C292.702 188.798 292.202 188.298 291.602 187.898C289.402 186.098 287.502 184.598 285.902 183.198C284.302 181.898 283.002 180.798 282.002 179.998C281.602 179.598 281.202 179.298 281.002 179.098C280.802 178.898 280.602 178.798 280.702 178.798C280.702 178.798 280.802 178.898 281.102 179.098C281.402 179.298 281.702 179.598 282.202 179.898C283.102 180.598 284.502 181.698 286.102 182.998C287.802 184.298 289.702 185.898 291.902 187.598C292.402 187.998 293.002 188.498 293.602 188.898C294.202 189.298 294.802 189.698 295.502 189.798C296.202 189.898 297.002 189.698 297.602 189.298C298.202 188.898 298.802 188.298 299.402 187.698C303.302 183.798 306.902 180.298 309.702 177.498L309.802 177.398L309.902 177.498C311.902 179.198 313.602 180.698 314.802 181.698C315.402 182.198 315.802 182.598 316.102 182.898C316.202 182.998 316.302 183.098 316.402 183.198C316.302 183.498 316.302 183.498 316.302 183.498Z" fill="white"/>
<path d="M317.6 170.204C317.6 170.204 317.5 170.104 317.2 170.004C317 169.804 316.6 169.604 316.2 169.304C315.8 169.004 315.2 168.604 314.6 168.204C314 167.804 313.2 167.404 312.3 167.104C311.4 166.804 310.4 166.604 309.3 166.804C308.8 166.904 308.2 167.104 307.7 167.304C307.2 167.604 306.7 167.904 306.2 168.304C304.3 170.004 302.3 171.904 300.2 173.904C299.7 174.404 299.1 174.904 298.5 175.304C297.9 175.704 297.2 176.004 296.5 176.104C295.8 176.204 295.1 176.004 294.5 175.704C293.9 175.404 293.3 175.104 292.8 174.804C290.6 173.604 288.6 172.504 286.9 171.504C285.3 170.604 283.9 169.804 283 169.304C282.6 169.004 282.2 168.804 281.9 168.704C281.7 168.604 281.5 168.504 281.5 168.504C281.5 168.504 281.6 168.604 281.9 168.704C282.2 168.804 282.5 169.004 283 169.304C284 169.804 285.3 170.604 287 171.504C288.7 172.404 290.7 173.504 292.9 174.704C293.5 175.004 294 175.304 294.6 175.604C295.2 175.804 295.8 176.004 296.5 176.004C297.2 175.904 297.8 175.704 298.4 175.304C299 174.904 299.5 174.404 300 173.904C302.1 171.904 304.1 170.004 306 168.304C306.5 167.904 307 167.504 307.5 167.204C308 166.904 308.6 166.704 309.2 166.604C310.3 166.404 311.4 166.604 312.3 166.904C313.2 167.204 314 167.604 314.6 168.004C315.2 168.404 315.8 168.804 316.2 169.104C316.6 169.404 316.9 169.704 317.2 169.904C317.5 170.104 317.6 170.204 317.6 170.204Z" fill="white"/>
<path d="M359.902 175.203C359.902 175.203 359.702 175.503 359.302 175.903C358.902 176.403 358.302 177.003 357.702 177.803C356.302 179.403 354.402 181.503 352.202 183.803C351.102 185.003 350.102 186.103 349.102 187.103C348.602 187.603 348.202 188.103 347.702 188.503C347.202 188.903 346.702 189.203 346.102 189.203C345.502 189.203 345.102 189.103 344.702 188.903C344.302 188.703 344.002 188.503 343.802 188.403C343.602 188.203 343.402 188.103 343.302 188.003C343.202 187.903 343.102 187.803 343.102 187.803C343.102 187.803 343.402 188.003 343.902 188.303C344.202 188.403 344.502 188.603 344.802 188.803C345.202 189.003 345.602 189.103 346.102 189.003C346.602 189.003 347.102 188.703 347.502 188.303C347.902 187.903 348.402 187.403 348.802 186.903C349.702 185.903 350.802 184.803 351.802 183.603C354.002 181.303 355.902 179.103 357.402 177.603C358.102 176.903 358.702 176.303 359.102 175.803C359.702 175.403 359.902 175.203 359.902 175.203Z" fill="white"/>
<path d="M354.903 163.8C355.003 163.9 353.303 166 351.203 168.5C349.103 171.1 347.303 173.1 347.203 173C347.103 172.9 348.803 170.8 350.903 168.3C353.103 165.7 354.903 163.7 354.903 163.8Z" fill="white"/>
<path d="M297.4 111.098C297.4 111.098 289 116.098 290.8 124.598C292.8 133.498 290.6 140.698 291.9 145.598C294.4 154.498 304.4 158.598 312.8 158.298C321.2 158.098 363.3 156.998 355 127.398L354.3 120.198C353.7 113.998 348.5 109.298 342.3 109.498H342.2L338.4 109.698C335.3 134.398 305.7 135.298 304 114.398C301.8 114.098 299.6 112.798 297.4 111.098Z" fill="url(#colorTwo)"/>
<path d="M317.101 155.197C319.701 164.597 319.101 180.197 314.601 188.897C310.101 197.597 304.601 206.097 302.801 215.697C300.901 225.797 303.401 236.597 309.701 244.797C311.901 247.597 314.701 251.697 318.401 256.297C321.001 259.497 322.801 262.297 322.801 262.297C330.201 263.597 357.601 265.497 357.601 265.497C353.301 259.597 341.101 236.597 338.001 229.997C335.001 223.397 333.201 215.997 334.301 208.797C335.701 199.897 341.201 192.297 344.701 183.997C349.801 171.897 350.601 157.897 346.901 145.297L317.101 155.197Z" fill="url(#colorTwo)"/>
<path d="M317.101 155.197C319.701 164.597 319.101 180.197 314.601 188.897C310.101 197.597 304.601 206.097 302.801 215.697C300.901 225.797 303.401 236.597 309.701 244.797C311.901 247.597 314.701 251.697 318.401 256.297C321.001 259.497 322.801 262.297 322.801 262.297C330.201 263.597 357.601 265.497 357.601 265.497C353.301 259.597 341.101 236.597 338.001 229.997C335.001 223.397 333.201 215.997 334.301 208.797C335.701 199.897 341.201 192.297 344.701 183.997C349.801 171.897 350.601 157.897 346.901 145.297L317.101 155.197Z" fill="url(#colorTwo)"/>
<g opacity="0.25">
<path d="M347.901 149.898C338.301 154.498 328.301 156.598 317.801 158.098L318.001 158.998L318.601 163.698L349.101 157.298C348.801 154.398 348.401 151.898 347.901 149.898Z" fill="url(#colorTwo)"/>
</g>
<path d="M295.099 134C295.199 134 294.699 135.1 294.299 136.9C294.099 137.8 293.999 138.9 293.899 140.1C293.799 141.3 293.899 142.7 293.999 144.1C294.199 145.5 294.499 146.8 294.799 148C295.199 149.2 295.599 150.2 295.999 151C296.799 152.7 297.499 153.6 297.399 153.6C297.399 153.6 297.199 153.4 296.899 153C296.699 152.8 296.599 152.5 296.399 152.2C296.199 151.9 295.999 151.5 295.799 151.1C295.399 150.3 294.899 149.3 294.499 148.1C294.099 146.9 293.799 145.6 293.599 144.2C293.399 142.8 293.399 141.4 293.499 140.2C293.599 139 293.799 137.9 293.999 137C294.099 136.5 294.199 136.1 294.299 135.8C294.399 135.4 294.499 135.1 294.599 134.9C294.999 134.3 295.099 134 295.099 134Z" fill="white"/>
<path d="M299.601 113.102C299.701 113.202 298.401 113.802 297.201 115.702C296.601 116.602 296.101 117.802 295.701 119.202C295.301 120.602 295.101 122.202 295.101 123.802C295.201 127.102 295.801 130.102 296.101 132.302C296.301 133.402 296.401 134.302 296.401 134.902C296.401 135.202 296.401 135.402 296.501 135.602C296.501 135.802 296.501 135.802 296.501 135.802C296.501 135.802 296.401 135.502 296.301 134.902C296.201 134.302 296.101 133.402 295.901 132.302C295.501 130.102 294.801 127.202 294.801 123.802C294.801 122.102 295.001 120.502 295.401 119.102C295.801 117.702 296.401 116.502 297.001 115.602C297.601 114.702 298.301 114.102 298.801 113.702C299.001 113.502 299.201 113.402 299.401 113.302C299.501 113.202 299.601 113.102 299.601 113.102Z" fill="white"/>
<path d="M305.399 140.997C305.399 140.997 305.299 140.797 304.999 140.297C304.799 139.797 304.499 139.197 304.199 138.297C303.899 137.497 303.599 136.397 303.299 135.297C303.099 134.097 302.899 132.797 302.799 131.497C302.699 130.097 302.799 128.797 302.899 127.597C302.999 126.397 303.199 125.397 303.399 124.497C303.599 123.597 303.799 122.897 303.999 122.497C304.199 121.997 304.299 121.797 304.299 121.797C304.299 121.797 304.299 122.097 304.099 122.597C303.999 123.097 303.799 123.797 303.599 124.697C303.399 125.597 303.299 126.597 303.099 127.797C302.999 128.997 302.999 130.297 302.999 131.597C303.099 132.997 303.299 134.197 303.499 135.397C303.699 136.597 303.999 137.597 304.299 138.397C304.599 139.297 304.799 139.897 304.999 140.397C305.299 140.797 305.399 140.997 305.399 140.997Z" fill="white"/>
<path d="M308.401 158.198C308.401 158.198 308.201 157.998 307.801 157.698C307.601 157.498 307.401 157.298 307.201 157.098C307.001 156.798 306.701 156.598 306.401 156.198C305.801 155.498 305.301 154.698 304.701 153.698C304.101 152.698 303.601 151.598 303.201 150.298C302.801 148.998 302.601 147.798 302.401 146.698C302.301 145.598 302.301 144.498 302.301 143.698C302.301 143.298 302.401 142.898 302.401 142.498C302.401 142.198 302.501 141.898 302.501 141.598C302.601 141.098 302.701 140.898 302.701 140.898C302.801 140.898 302.501 141.998 302.501 143.698C302.501 144.598 302.501 145.598 302.701 146.698C302.901 147.798 303.101 148.998 303.501 150.298C303.901 151.498 304.401 152.698 304.901 153.698C305.401 154.698 306.001 155.498 306.501 156.198C307.701 157.398 308.501 158.098 308.401 158.198Z" fill="white"/>
<path d="M317.802 157.298C317.702 157.298 316.902 155.098 316.002 152.398C315.102 149.698 314.402 147.398 314.502 147.398C314.602 147.398 315.402 149.598 316.302 152.298C317.202 154.998 317.802 157.298 317.802 157.298Z" fill="white"/>
<path d="M318 146.798C317.9 146.798 317.8 146.198 317.6 145.598C317.4 144.898 317.1 144.398 317.2 144.398C317.3 144.398 317.6 144.798 317.9 145.598C318.1 146.198 318.1 146.798 318 146.798Z" fill="white"/>
<path d="M311.901 129.797C312.001 129.797 311.601 130.597 311.401 131.797C311.201 133.097 311.101 134.897 311.501 136.797C311.901 138.697 312.501 140.397 313.001 141.597C313.501 142.797 313.801 143.597 313.701 143.597C313.701 143.597 313.601 143.397 313.401 143.097C313.201 142.797 313.001 142.297 312.801 141.697C312.301 140.497 311.601 138.797 311.201 136.797C310.801 134.797 310.901 132.997 311.201 131.697C311.301 131.097 311.501 130.597 311.701 130.197C311.701 129.997 311.801 129.797 311.901 129.797Z" fill="white"/>
<path d="M327.9 142.595C327.9 142.595 327.7 141.895 327.5 140.895C327.2 139.795 326.8 138.395 326.3 136.795C325.7 135.195 325.1 133.795 324.7 132.795C324.2 131.795 323.9 131.195 324 131.195C324 131.195 324.4 131.795 324.9 132.695C325.4 133.695 326.1 135.095 326.6 136.595C327.2 138.195 327.5 139.695 327.7 140.795C327.8 141.895 327.9 142.595 327.9 142.595Z" fill="white"/>
<path d="M331.5 143.796C331.4 143.796 331.3 143.396 331.1 142.896C330.9 142.396 330.6 142.096 330.7 141.996C330.8 141.896 331.1 142.196 331.4 142.696C331.6 143.296 331.6 143.796 331.5 143.796Z" fill="white"/>
<path d="M332.501 154.9C332.501 154.9 332.401 154.3 332.201 153.4C332.001 152.5 331.701 151.2 331.201 149.8C330.701 148.4 330.101 147.2 329.601 146.4C329.101 145.6 328.801 145.1 328.801 145C328.801 145 329.201 145.4 329.701 146.3C330.201 147.1 330.901 148.3 331.401 149.7C331.901 151.1 332.201 152.4 332.401 153.4C332.501 154.3 332.501 154.9 332.501 154.9Z" fill="white"/>
<path d="M340.8 136.697C340.8 136.697 340.6 136.197 340.2 135.397C339.9 134.597 339.4 133.397 338.8 132.197C338.2 130.997 337.6 129.897 337.2 129.097C336.8 128.297 336.5 127.797 336.5 127.797C336.5 127.797 336.9 128.197 337.3 128.997C337.8 129.797 338.4 130.797 339 132.097C339.6 133.297 340 134.497 340.3 135.297C340.8 136.197 340.9 136.697 340.8 136.697Z" fill="white"/>
<path d="M339.498 138.995C339.398 138.995 339.198 138.795 339.098 138.395C338.898 137.995 338.898 137.695 338.898 137.695C338.998 137.695 339.198 137.895 339.298 138.295C339.498 138.695 339.498 138.995 339.498 138.995Z" fill="white"/>
<path d="M344.699 149.697C344.699 149.697 344.599 148.997 344.499 147.897C344.399 146.797 344.099 145.197 343.599 143.597C343.099 141.897 342.499 140.497 341.999 139.497C341.499 138.497 341.199 137.897 341.199 137.797C341.199 137.797 341.299 137.897 341.499 138.197C341.699 138.497 341.899 138.897 342.199 139.397C342.699 140.397 343.399 141.897 343.899 143.497C344.399 145.197 344.599 146.797 344.699 147.897C344.699 148.497 344.799 148.897 344.699 149.297C344.799 149.497 344.699 149.697 344.699 149.697Z" fill="white"/>
<path d="M354.301 144C354.301 144 354.201 143.9 354.201 143.7C354.101 143.5 354.001 143.3 353.901 142.9C353.701 142.2 353.401 141.3 353.001 140.1C352.301 137.7 351.401 134.4 350.201 130.7C349.001 127.1 347.501 123.9 346.201 121.8C345.501 120.7 344.901 119.9 344.501 119.4C344.101 118.8 343.801 118.5 343.801 118.5C343.801 118.5 343.901 118.6 344.001 118.7C344.101 118.8 344.301 119 344.501 119.3C345.001 119.8 345.601 120.6 346.301 121.7C347.701 123.8 349.201 126.9 350.401 130.6C351.601 134.2 352.401 137.6 353.101 140C353.401 141.2 353.701 142.1 353.901 142.8C354.201 143.6 354.301 143.9 354.301 144Z" fill="white"/>
<path d="M350.499 112.995C350.499 112.995 350.099 112.795 349.499 112.595C348.899 112.395 347.999 112.195 346.999 112.295C345.999 112.395 345.099 112.695 344.599 112.995C343.999 113.295 343.699 113.595 343.699 113.595C343.699 113.595 343.899 113.195 344.499 112.895C345.099 112.495 345.999 112.095 346.999 111.995C348.099 111.895 348.999 112.095 349.599 112.395C350.199 112.695 350.499 112.995 350.499 112.995Z" fill="white"/>
<path d="M348.201 160.998C348.201 160.998 348.101 160.998 347.901 161.098C347.701 161.198 347.401 161.198 347.101 161.298C346.401 161.498 345.401 161.798 344.101 162.098C341.501 162.698 338.001 163.598 334.101 164.398C330.201 165.298 326.601 165.998 324.001 166.398C322.701 166.598 321.701 166.798 320.901 166.898C320.601 166.998 320.301 166.998 320.101 166.998C319.901 166.998 319.801 166.998 319.801 166.998C319.801 166.998 319.901 166.998 320.101 166.898C320.301 166.798 320.601 166.798 320.901 166.698C321.701 166.498 322.701 166.298 324.001 166.098C326.601 165.498 330.201 164.798 334.101 163.998C338.001 163.098 341.501 162.398 344.101 161.798C345.401 161.498 346.401 161.298 347.101 161.098C347.401 160.998 347.701 160.998 347.901 160.898C348.101 160.998 348.201 160.998 348.201 160.998Z" fill="white"/>
<path d="M347.698 171.195C347.698 171.195 347.598 171.195 347.398 171.295C347.198 171.295 346.898 171.395 346.498 171.395C345.698 171.495 344.598 171.695 343.298 171.895C340.598 172.295 336.998 172.995 332.898 173.895C328.898 174.795 325.198 175.595 322.598 176.295C321.298 176.595 320.298 176.895 319.498 177.095C319.198 177.195 318.898 177.295 318.698 177.295C318.498 177.295 318.398 177.395 318.398 177.395C318.398 177.395 318.498 177.395 318.698 177.295C318.898 177.195 319.198 177.095 319.498 176.995C320.198 176.795 321.298 176.495 322.598 176.095C325.198 175.395 328.798 174.495 332.898 173.595C336.898 172.695 340.598 172.095 343.298 171.695C344.598 171.495 345.698 171.395 346.498 171.295C346.798 171.295 347.098 171.195 347.398 171.195C347.598 171.195 347.698 171.195 347.698 171.195Z" fill="white"/>
<path d="M344.502 182.698C344.502 182.698 344.402 182.698 344.202 182.798C344.002 182.798 343.702 182.898 343.302 182.998C342.502 183.098 341.402 183.298 340.102 183.598C337.402 184.098 333.702 184.798 329.502 185.698C325.402 186.598 321.702 187.498 319.002 188.098C317.702 188.398 316.602 188.698 315.802 188.898C315.502 188.998 315.202 189.098 314.902 189.098C314.702 189.098 314.602 189.198 314.602 189.198C314.602 189.198 314.702 189.198 314.902 189.098C315.102 188.998 315.402 188.898 315.702 188.798C316.402 188.598 317.502 188.298 318.802 187.898C321.502 187.198 325.202 186.298 329.302 185.398C333.402 184.498 337.202 183.798 339.902 183.398C341.302 183.198 342.402 182.998 343.102 182.898C343.502 182.898 343.702 182.798 344.002 182.798C344.402 182.698 344.502 182.598 344.502 182.698Z" fill="white"/>
<path d="M337.802 196C337.802 196 337.702 196 337.502 196.1C337.302 196.1 336.902 196.2 336.602 196.3C335.802 196.5 334.602 196.7 333.202 196.9C330.302 197.4 326.402 198.3 322.102 199.4C317.802 200.5 313.902 201.7 311.102 202.6C309.702 203 308.602 203.4 307.802 203.7C307.402 203.8 307.102 203.9 306.902 204C306.702 204.1 306.602 204.1 306.602 204.1C306.602 204.1 306.702 204 306.902 204C307.102 203.9 307.402 203.8 307.802 203.7C308.602 203.4 309.702 203 311.102 202.5C313.902 201.5 317.702 200.3 322.002 199.2C326.302 198.1 330.302 197.3 333.202 196.8C334.602 196.6 335.802 196.4 336.602 196.3C337.002 196.3 337.302 196.2 337.502 196.2C337.702 196 337.802 196 337.802 196Z" fill="white"/>
<path d="M334.098 211C334.098 211 333.998 211.1 333.798 211.1C333.598 211.2 333.198 211.3 332.898 211.4C332.098 211.7 330.898 212 329.498 212.4C326.598 213.3 322.598 214.5 318.198 215.8C313.798 217.1 309.798 218.4 306.998 219.3C305.598 219.8 304.398 220.2 303.598 220.4C303.198 220.5 302.898 220.6 302.698 220.7C302.498 220.8 302.398 220.8 302.398 220.8C302.398 220.8 302.498 220.7 302.698 220.7C302.898 220.6 303.198 220.5 303.598 220.3C304.398 220 305.498 219.6 306.898 219.1C309.698 218.1 313.698 216.8 318.098 215.5C322.498 214.2 326.498 213 329.398 212.2C330.798 211.8 331.998 211.5 332.798 211.3C333.198 211.2 333.498 211.1 333.698 211.1C333.898 211 334.098 211 334.098 211Z" fill="white"/>
<path d="M335.901 225C335.901 225 335.801 225.1 335.601 225.1C335.401 225.2 335.101 225.3 334.701 225.4C333.901 225.7 332.701 226 331.301 226.4C328.501 227.3 324.501 228.5 320.201 230C315.901 231.5 312.101 233 309.301 234.1C307.901 234.6 306.801 235.1 306.001 235.4C305.601 235.5 305.301 235.7 305.101 235.8C304.901 235.9 304.801 235.9 304.801 235.9C304.801 235.9 304.901 235.8 305.101 235.7C305.301 235.6 305.601 235.5 306.001 235.3C306.801 235 307.901 234.5 309.201 233.9C311.901 232.7 315.801 231.2 320.101 229.7C324.401 228.2 328.301 227 331.201 226.2C332.601 225.8 333.801 225.5 334.601 225.3C335.001 225.2 335.301 225.1 335.501 225.1C335.801 225 335.901 225 335.901 225Z" fill="white"/>
<path d="M342.198 237.297C342.198 237.397 335.898 239.997 328.098 243.097C320.298 246.197 313.898 248.697 313.898 248.597C313.898 248.497 320.198 245.897 327.998 242.797C335.798 239.697 342.198 237.297 342.198 237.297Z" fill="white"/>
<path d="M348.4 250.1C348.4 250.1 348.3 250.1 348.1 250.2C347.9 250.3 347.6 250.4 347.3 250.5C346.5 250.7 345.5 251.1 344.3 251.5C341.8 252.3 338.3 253.5 334.4 254.7C330.5 255.9 326.9 256.8 324.3 257.3C323 257.6 321.9 257.7 321.2 257.8C320.9 257.8 320.6 257.9 320.3 257.9C320.1 257.9 320 257.9 320 257.9C320 257.9 320.1 257.9 320.3 257.8C320.5 257.8 320.8 257.7 321.1 257.6C321.8 257.5 322.9 257.3 324.2 257C326.8 256.4 330.4 255.5 334.3 254.3C338.2 253.1 341.7 252 344.3 251.1C345.6 250.7 346.6 250.4 347.3 250.2C347.6 250.1 347.9 250 348.1 250C348.3 250.1 348.4 250.1 348.4 250.1Z" fill="white"/>
<path d="M353.301 260.297C353.301 260.297 353.101 260.397 352.701 260.597C352.301 260.797 351.801 260.997 351.101 261.197C349.801 261.697 347.901 262.297 345.901 262.897C343.801 263.497 341.901 263.897 340.501 264.197C339.801 264.297 339.201 264.397 338.901 264.497C338.501 264.597 338.301 264.597 338.301 264.597C338.301 264.597 338.501 264.497 338.901 264.397C339.301 264.297 339.901 264.197 340.501 263.997C341.901 263.697 343.801 263.197 345.801 262.597C347.901 261.997 349.701 261.397 351.101 260.997C351.701 260.797 352.201 260.597 352.701 260.497C353.101 260.297 353.301 260.297 353.301 260.297Z" fill="white"/>
<path d="M336.497 170.805C336.497 170.805 336.497 170.905 336.397 171.205C336.297 171.505 336.197 171.905 336.097 172.305C335.997 172.805 335.797 173.405 335.497 174.105C335.297 174.805 334.997 175.605 334.597 176.405C334.297 177.205 333.897 178.205 333.397 179.105C332.997 180.105 332.497 181.105 331.897 182.205C330.797 184.305 329.497 186.705 327.997 189.005C326.497 191.305 324.897 193.405 323.397 195.305C322.597 196.205 321.897 197.105 321.197 197.905C320.497 198.705 319.797 199.405 319.197 200.105C318.597 200.805 317.997 201.305 317.397 201.805C316.897 202.305 316.397 202.705 315.997 203.005C316.397 202.705 316.797 202.205 317.297 201.705C317.797 201.205 318.397 200.605 318.997 200.005C319.597 199.305 320.297 198.605 320.997 197.805C321.697 197.005 322.397 196.105 323.197 195.205C324.697 193.305 326.297 191.205 327.797 188.905C329.297 186.605 330.597 184.305 331.697 182.205C332.197 181.105 332.797 180.105 333.197 179.105C333.697 178.105 333.997 177.205 334.397 176.405C334.797 175.605 334.997 174.805 335.297 174.105C335.597 173.405 335.797 172.805 335.897 172.405C336.097 171.905 336.197 171.605 336.297 171.305C336.397 171.005 336.397 170.805 336.497 170.805Z" fill="black"/>
<path d="M317.799 158.102C318.599 162.702 319.099 167.402 319.299 172.102C319.299 174.502 319.399 176.802 318.799 179.302C316.399 185.902 312.999 192.202 310.099 198.602C308.199 202.802 306.099 207.102 304.699 211.402C302.999 218.002 303.499 225.202 304.599 231.902C304.999 234.202 305.699 236.202 306.999 238.202C309.299 242.202 311.899 246.202 314.399 250.102L321.999 261.902C316.299 254.402 310.799 246.902 305.699 238.902C302.999 234.902 302.399 229.802 301.999 225.102C301.699 220.302 301.599 215.502 302.899 210.802C306.399 200.802 311.699 191.602 316.299 182.002C318.099 178.902 318.399 175.602 318.399 172.002C318.499 167.402 318.099 162.802 317.799 158.102Z" fill="black"/>
<g opacity="0.26">
<path d="M349.7 248.901C346.4 243.101 340.3 239.201 333.8 237.801C327.3 236.401 320.4 237.401 314.3 239.901C312.6 240.601 310.2 242.101 310.3 243.901L314.6 249.601C323.9 254.301 335 256.401 345.4 255.601C347.5 255.401 350 254.801 350.7 252.801C351 251.601 350.4 250.201 349.7 248.901Z" fill="url(#colorTwo)"/>
</g>
<path d="M356.9 158L368.9 212.3L322.1 222.5C321.1 222.7 320.1 223.1 319.2 223.5L316.2 225L312 225.4L314.8 247.5L319.7 246.7C324.1 251.4 357.3 247.9 380.5 247.2C380.5 247.2 405.2 247.1 403.1 226C401.7 212.7 387 159.3 387 159.3L356.9 158Z" fill="url(#colorOne)"/>
<path d="M320.201 246.202C320.201 246.202 320.201 245.902 320.101 245.402C320.101 244.902 320.001 244.102 320.001 243.102C319.901 241.202 319.601 238.502 319.201 235.502C318.701 232.602 318.101 229.902 317.601 228.102C317.301 227.202 317.101 226.402 317.001 225.902C316.801 225.402 316.801 225.102 316.801 225.102C316.801 225.102 316.901 225.402 317.101 225.902C317.301 226.402 317.501 227.202 317.801 228.102C318.401 230.002 319.001 232.602 319.501 235.502C320.001 238.402 320.201 241.102 320.301 243.102C320.301 244.102 320.301 244.902 320.301 245.402C320.201 245.902 320.201 246.202 320.201 246.202Z" fill="black"/>
<path d="M368.9 212.302C368.9 212.302 368.8 212.102 368.8 211.802C368.7 211.502 368.6 211.002 368.4 210.502C368.1 209.302 367.7 207.602 367.1 205.502C366.1 201.302 364.7 195.502 363.3 189.002C361.9 182.602 360.6 176.702 359.6 172.502C359.1 170.402 358.7 168.702 358.4 167.502C358.3 166.902 358.2 166.502 358.1 166.102C358 165.802 358 165.602 358 165.602C358 165.602 358.1 165.802 358.1 166.102C358.2 166.402 358.3 166.902 358.5 167.402C358.8 168.602 359.2 170.302 359.8 172.402C360.8 176.602 362.2 182.402 363.6 188.902C365 195.302 366.3 201.202 367.3 205.402C367.8 207.502 368.2 209.202 368.5 210.402C368.6 211.002 368.7 211.402 368.8 211.802C368.9 212.202 368.9 212.302 368.9 212.302Z" fill="black"/>
<path d="M319.802 240.102C319.802 240.202 318.602 240.802 317.002 241.402C315.402 242.002 314.202 242.502 314.102 242.402C314.102 242.302 315.302 241.702 316.902 241.102C318.502 240.502 319.802 240.102 319.802 240.102Z" fill="black"/>
<path d="M319.098 235.398C319.098 235.498 317.798 235.598 316.198 235.998C314.598 236.398 313.398 236.898 313.398 236.798C313.398 236.698 314.598 236.098 316.198 235.698C317.798 235.398 319.098 235.398 319.098 235.398Z" fill="black"/>
<path d="M318.498 231.397C318.498 231.497 317.198 231.397 315.698 231.597C314.098 231.797 312.898 232.197 312.898 232.197C312.898 232.097 314.098 231.497 315.698 231.297C317.198 231.097 318.498 231.297 318.498 231.397Z" fill="black"/>
<path d="M316.799 228.302C316.799 228.402 315.799 228.002 314.499 228.102C313.199 228.102 312.199 228.502 312.199 228.502C312.199 228.402 313.099 227.902 314.499 227.802C315.799 227.702 316.799 228.202 316.799 228.302Z" fill="black"/>
<path d="M392.802 179.303C392.802 179.303 392.702 179.303 392.602 179.203C392.502 179.103 392.302 179.003 392.102 178.903C391.602 178.603 391.002 178.203 390.302 177.703C388.702 176.703 386.502 175.203 383.802 173.503L384.002 173.403C382.702 176.103 381.202 179.203 379.702 182.603C379.002 184.103 378.302 185.603 377.602 186.903L377.502 187.003H377.402C373.002 185.603 369.202 184.403 366.502 183.503C365.202 183.103 364.102 182.703 363.302 182.403C362.902 182.303 362.702 182.203 362.402 182.103C362.602 182.203 362.902 182.203 363.302 182.303C364.102 182.503 365.202 182.903 366.502 183.303C369.302 184.203 373.102 185.303 377.502 186.703L377.302 186.803C378.002 185.403 378.602 184.003 379.402 182.503C381.002 179.203 382.502 176.003 383.802 173.303L383.902 173.203L384.002 173.303C386.602 175.103 388.902 176.503 390.502 177.603C391.302 178.103 391.902 178.503 392.302 178.803C392.502 178.903 392.602 179.003 392.802 179.103C392.702 179.203 392.802 179.303 392.802 179.303Z" fill="white"/>
<path d="M388 165.202C388 165.202 387.8 164.702 387.3 164.002C386.8 163.302 385.7 162.502 384.2 162.302C383.4 162.202 382.6 162.302 381.8 162.702C381 163.102 380.3 163.802 379.7 164.602C379.1 165.402 378.6 166.402 378.1 167.402C377.6 168.402 376.9 169.402 376 170.202C375.5 170.602 375 170.902 374.4 171.102C373.8 171.302 373.2 171.302 372.6 171.202C371.4 171.102 370.4 170.802 369.4 170.702C367.4 170.302 365.5 170.002 364 169.702C362.5 169.402 361.2 169.202 360.3 169.002C359.9 168.902 359.6 168.802 359.3 168.802C359.1 168.702 359 168.702 359 168.702C359 168.702 359.1 168.702 359.4 168.702C359.7 168.702 360 168.802 360.4 168.802C361.3 168.902 362.6 169.202 364.1 169.402C365.7 169.702 367.5 170.002 369.6 170.302C370.6 170.502 371.7 170.702 372.8 170.802C373.4 170.802 373.9 170.802 374.5 170.702C375 170.502 375.6 170.302 376 169.902C376.9 169.102 377.5 168.102 378 167.102C378.5 166.102 379 165.102 379.6 164.202C380.2 163.302 380.9 162.602 381.8 162.202C382.7 161.802 383.6 161.702 384.4 161.802C386 162.002 387.1 162.902 387.6 163.602C387.9 164.002 388 164.302 388.1 164.502C388 165.102 388 165.202 388 165.202Z" fill="white"/>
<path d="M349.001 78.2982C349.701 98.4982 332.201 112.398 313.801 112.998C295.401 113.598 286.501 100.498 285.801 80.2982C285.101 60.0982 299.801 43.8982 318.201 43.2982C336.501 42.6982 348.301 58.0982 349.001 78.2982Z" fill="white"/>
<path d="M293.002 73.1003C293.402 73.5003 294.802 72.9003 296.502 72.6003C298.202 72.3003 299.702 72.5003 300.002 72.0003C300.102 71.7003 299.802 71.3003 299.102 70.9003C298.402 70.5003 297.302 70.3003 296.202 70.5003C295.002 70.7003 294.102 71.2003 293.502 71.8003C293.002 72.4003 292.802 72.9003 293.002 73.1003Z" fill="black"/>
<path d="M305.603 77.3984C306.003 80.4984 305.603 83.6984 304.503 86.5984C303.703 88.7984 302.303 90.9984 305.903 90.6984C306.703 90.6984 307.403 90.4984 308.203 90.3984C307.503 90.6984 306.803 90.8984 306.003 91.0984C301.803 91.8984 302.603 88.9984 303.703 86.2984C304.803 83.3984 305.403 80.4984 305.603 77.3984Z" fill="black"/>
<path d="M344.402 65.8989C334.202 36.2989 298.402 36.7989 288.602 66.2989C284.302 80.3989 285.602 100.699 298.302 109.899C303.502 113.699 310.202 114.299 316.402 114.199C319.602 114.099 322.802 113.899 325.802 112.699L325.902 112.899C320.702 115.399 314.702 115.399 309.102 115.199C289.102 113.899 282.902 92.4989 285.302 75.5989C286.502 65.8989 291.202 56.5989 298.602 50.0989C309.002 40.7989 324.002 39.7989 334.702 49.2989C339.702 53.6989 343.002 59.6989 344.602 65.9989L344.402 65.8989Z" fill="black"/>
<path d="M313.7 70.5005C313.9 71.1005 316 70.7005 318.4 71.0005C320.9 71.2005 322.8 71.9005 323.1 71.4005C323.2 71.2005 322.9 70.6005 322.1 70.1005C321.3 69.6005 320 69.1005 318.6 68.9005C317.1 68.8005 315.8 69.0005 314.9 69.4005C314.1 69.7005 313.6 70.2005 313.7 70.5005Z" fill="black"/>
<path d="M288 66.8C291.6 65.2 296.4 62.6 301.2 58.5C307.4 53.2 308.1 49.2 310.3 45.3C305 45.2 302.7 43.6 297.3 43.5L288 66.8Z" fill="black"/>
<path d="M330.601 65.2979C335.001 66.4979 335.101 99.3979 333.101 119.098C332.901 120.698 332.801 122.298 333.301 123.798C333.801 125.298 333.501 132.498 337.901 131.798C339.601 131.498 355.501 121.098 355.701 116.498C355.801 114.598 355.901 112.698 355.801 110.798C354.801 100.298 355.401 90.5979 354.401 80.0979C353.901 74.3979 353.301 68.5979 351.801 62.9979C350.301 57.3979 343.701 47.2979 339.701 43.1979C332.701 35.8979 319.701 30.9979 311.501 38.6979C311.501 38.6979 306.701 42.5979 308.001 45.8979C310.201 51.3979 322.101 62.9979 330.601 65.2979Z" fill="black"/>
<path d="M271.8 111.797C274.1 109.697 273 106.797 267.6 107.797C268 107.697 271.1 107.197 270.8 105.497C270.4 103.697 267.2 102.997 267.2 102.997L263.1 102.397C263.1 102.397 262.7 93.1972 261.1 92.9972C259.5 92.8972 258.2 94.2972 257.8 96.6972L256.6 96.8972C254.5 97.1972 252.5 98.0972 250.8 99.2972L250 99.9972C249.4 100.397 249 101.197 249.2 101.997L250.6 108.997C250.6 108.997 249.5 113.497 250 114.697C250.5 115.997 250.6 116.397 250.6 116.397C250.6 116.397 250.3 119.497 251.5 120.797C252.7 122.097 253.3 122.897 253.3 122.897C253.3 122.897 253.2 125.097 254.2 126.497C255.3 127.997 257.5 131.497 257.5 131.497L270 134.697L272.4 124.097L271.8 111.797Z" fill="white"/>
<path d="M271.701 111.8C273.801 109.7 272.501 107.8 269.701 107.9C269.001 107.9 268.301 108 267.601 108.1L267.501 107.5C272.101 106.6 270.401 104.3 267.101 103.4L263.001 102.8H262.601C262.401 100.2 262.301 97.5001 261.701 95.0001C261.601 94.5001 261.401 93.8001 261.001 93.5001C259.201 93.4001 258.301 95.3001 257.901 96.9001V97.1001H257.701C254.701 97.4001 251.901 98.5001 249.601 100.4C249.401 100.6 249.201 101 249.101 101.3C249.001 102 249.601 103.8 249.701 104.5L250.701 108.9C250.401 110.7 249.801 112.7 250.101 114.5C250.301 115.1 250.701 115.9 250.801 116.4C250.701 117.7 250.701 119.4 251.601 120.4C252.301 121.1 253.001 121.8 253.501 122.6C253.501 123.7 253.601 125 254.301 126L255.001 127L257.701 131.1L257.401 130.9L269.901 134.1L269.301 134.5L271.801 123.9C271.801 120.2 271.801 115.6 271.701 111.8ZM271.801 111.8C272.101 115.9 272.501 119.9 272.701 123.9L270.501 134.5L270.401 135L269.901 134.9L257.401 131.7H257.201L257.101 131.5L254.501 127.5C254.101 126.8 253.401 126 253.201 125.3C252.901 124.5 252.801 123.6 252.901 122.7L253.001 123C252.501 122.3 251.801 121.6 251.301 121C250.201 119.7 250.201 117.9 250.401 116.3V116.4C250.201 115.8 250.001 115.3 249.801 114.6C249.501 112.8 250.201 110.3 250.501 108.9L249.701 104.5L249.301 102.3C249.101 101.6 249.201 100.6 249.801 100.1C252.101 98.1001 255.001 97.0001 258.001 96.5001L257.801 96.7001C258.101 95.2001 258.901 93.2001 260.701 92.8001C261.101 92.7001 261.601 92.7001 261.901 92.9001C262.301 93.2001 262.401 93.5001 262.501 93.8001C263.501 96.6001 263.601 99.5001 263.801 102.4L263.401 102L267.401 102.6C268.201 102.8 268.901 103.1 269.601 103.5C272.901 105.6 270.901 107.7 267.801 108.1L267.701 107.5C268.401 107.4 269.201 107.3 270.001 107.3C272.601 107.3 274.301 109.7 271.801 111.8Z" fill="black"/>
<path d="M257.402 96.7998C257.402 96.7998 257.602 96.6998 258.102 96.5998C258.602 96.4998 259.302 96.3998 260.102 96.5998C260.502 96.6998 261.002 96.8998 261.402 97.2998C261.802 97.5998 262.102 98.1998 262.102 98.7998C262.102 99.3998 261.702 99.9998 261.302 100.4C260.802 100.8 260.202 101.1 259.702 101.4C257.402 102.6 255.302 103.5 253.602 103.9C252.802 104.1 252.102 104.2 251.602 104.2C251.102 104.2 250.902 104.2 250.902 104.2C250.902 104.1 251.902 104.2 253.602 103.8C255.202 103.4 257.302 102.5 259.602 101.3C260.202 101 260.702 100.7 261.202 100.4C261.602 99.9998 261.902 99.4998 262.002 98.9998C262.002 98.4998 261.802 97.9998 261.402 97.6998C261.102 97.3998 260.702 97.1998 260.302 97.0998C259.502 96.8998 258.802 96.9998 258.402 96.9998C257.602 96.7998 257.402 96.8998 257.402 96.7998Z" fill="black"/>
<path d="M264.502 102.703C264.502 102.703 264.302 102.803 263.902 102.803C263.502 102.903 262.902 102.903 262.202 103.003C261.402 103.103 260.602 103.203 259.602 103.303C258.602 103.403 257.602 103.503 256.502 103.703C255.402 103.903 254.402 104.303 253.702 104.903C253.002 105.503 252.502 106.203 252.102 106.803C251.402 108.003 251.002 108.903 250.902 108.903C250.902 108.903 251.002 108.703 251.102 108.303C251.302 107.903 251.502 107.403 251.902 106.703C252.302 106.103 252.802 105.303 253.502 104.703C253.902 104.403 254.302 104.103 254.802 103.903C255.302 103.703 255.802 103.603 256.402 103.503C257.502 103.303 258.602 103.203 259.502 103.103C260.402 103.003 261.302 102.903 262.102 102.903C262.802 102.803 263.402 102.803 263.802 102.803C264.202 102.703 264.502 102.703 264.502 102.703Z" fill="black"/>
<path d="M268.302 107.703C268.302 107.703 268.102 107.803 267.602 107.903C267.202 108.003 266.502 108.103 265.702 108.203C264.902 108.303 263.902 108.503 262.902 108.603C262.402 108.703 261.802 108.803 261.302 108.903C260.702 109.003 260.102 109.103 259.502 109.103C258.902 109.103 258.302 109.203 257.802 109.303C257.302 109.503 256.802 109.703 256.302 110.003C255.402 110.503 254.702 111.203 254.102 111.703C253.502 112.303 253.202 112.803 252.902 113.203C252.702 113.603 252.602 113.803 252.602 113.803C252.602 113.803 252.602 113.703 252.602 113.603C252.602 113.503 252.702 113.303 252.802 113.103C253.002 112.703 253.402 112.103 253.902 111.603C254.502 111.003 255.202 110.403 256.102 109.803C256.602 109.503 257.102 109.303 257.602 109.103C258.202 108.903 258.802 108.903 259.402 108.803C260.002 108.803 260.602 108.703 261.202 108.603C261.802 108.503 262.302 108.403 262.802 108.403C263.802 108.303 264.802 108.203 265.602 108.103C266.302 108.003 267.002 107.903 267.502 107.903C268.002 107.703 268.202 107.703 268.302 107.703Z" fill="black"/>
<path d="M271.799 111.798C271.799 111.798 271.599 111.998 271.199 112.298C270.799 112.598 270.099 112.998 269.299 113.398C268.499 113.798 267.399 114.098 266.199 114.398C264.999 114.698 263.699 114.898 262.299 115.098C261.599 115.198 260.899 115.298 260.299 115.298C259.699 115.398 259.099 115.698 258.699 116.098C258.199 116.498 257.799 116.798 257.399 117.198C256.999 117.598 256.599 117.898 256.399 118.198C255.799 118.898 255.399 119.498 255.099 119.898C254.799 120.298 254.699 120.598 254.699 120.598C254.699 120.598 254.699 120.498 254.699 120.398C254.699 120.298 254.799 120.098 254.899 119.898C255.099 119.398 255.499 118.798 256.099 118.098C256.399 117.698 256.699 117.398 257.099 116.998C257.499 116.598 257.899 116.298 258.399 115.898C258.899 115.498 259.499 115.198 260.099 115.098C260.799 114.998 261.399 114.898 262.099 114.798C264.899 114.498 267.299 113.898 268.999 113.198C270.799 112.498 271.699 111.698 271.799 111.798Z" fill="black"/>
<path d="M254.699 120.6C254.699 120.6 254.799 120.5 254.899 120.3C254.999 120.1 255.199 119.9 255.499 119.6C255.799 119.3 256.099 118.9 256.599 118.6C257.099 118.2 257.699 117.9 258.399 117.7C259.799 117.2 261.499 116.8 263.399 116.2C264.299 115.9 265.299 115.6 266.299 115.3C266.799 115.2 267.399 115 267.899 115C268.499 115 269.099 115.3 269.499 115.8C269.699 116 269.799 116.4 269.799 116.7C269.799 117 269.699 117.3 269.599 117.6C269.299 118.1 268.799 118.5 268.399 118.8C267.499 119.3 266.499 119.8 265.699 120.3C265.299 120.5 264.799 120.8 264.399 121C263.999 121.2 263.599 121.4 263.199 121.6C262.399 121.9 261.699 122.3 260.999 122.6C259.699 123.3 258.699 124 258.099 124.5C257.799 124.8 257.499 125 257.399 125.1C257.199 125.2 257.099 125.3 257.099 125.3C257.099 125.3 257.199 125.2 257.299 125.1C257.499 124.9 257.699 124.7 257.999 124.5C258.599 124 259.599 123.2 260.899 122.5C261.599 122.2 262.299 121.8 263.099 121.5C263.499 121.3 263.899 121.1 264.299 120.9C264.699 120.7 265.099 120.5 265.599 120.2C266.499 119.7 267.399 119.3 268.299 118.7C268.699 118.4 269.199 118.1 269.399 117.6C269.599 117.2 269.699 116.6 269.299 116.2C268.999 115.8 268.499 115.6 267.899 115.6C267.399 115.6 266.899 115.7 266.399 115.8C265.399 116.1 264.399 116.4 263.499 116.7C261.599 117.2 259.899 117.7 258.499 118.1C257.799 118.3 257.199 118.6 256.699 118.9C256.199 119.2 255.899 119.6 255.599 119.9C255.299 120.2 255.099 120.4 254.899 120.6C254.799 120.5 254.699 120.6 254.699 120.6Z" fill="black"/>
<path d="M270.701 122.801C270.601 122.901 269.801 121.901 268.401 121.101C267.101 120.301 265.801 120.101 265.801 120.001C265.801 119.901 267.101 120.001 268.501 120.801C270.001 121.601 270.801 122.701 270.701 122.801Z" fill="black"/>
<path d="M262.102 99.1031L300.502 96.2031C300.802 96.2031 301.002 96.4031 301.002 96.7031C301.002 97.0031 300.802 97.2031 300.602 97.2031C297.702 97.8031 282.002 99.5031 279.702 101.903C278.402 103.303 268.202 103.503 268.202 103.503H257.702L256.402 102.903C256.402 102.803 261.102 101.103 262.102 99.1031Z" fill="url(#colorTwo)"/>
<path d="M296 96.6031L296.3 97.6031L300.5 97.1031C300.8 97.0031 301 96.7031 300.9 96.5031C300.8 96.3031 300.6 96.2031 300.4 96.2031L296 96.6031Z" fill="white"/>
<g opacity="0.4">
<path d="M277.61 98.7381L265.445 99.6719L265.606 101.766L277.771 100.832L277.61 98.7381Z" fill="black"/>
</g>
<path d="M262.1 99.1016C262.1 99.1016 262 99.2016 261.9 99.5016C261.7 99.7016 261.4 100.102 261 100.502C260.1 101.202 258.6 102.102 256.5 103.002V102.902C256.9 103.102 257.3 103.302 257.8 103.502C259.9 103.502 262.3 103.502 265 103.502C266.4 103.502 267.8 103.502 269.3 103.502C270.8 103.402 272.3 103.402 273.9 103.202C275.5 103.002 277.2 102.902 278.8 102.402C279.2 102.302 279.6 102.102 279.9 101.802C280.2 101.502 280.6 101.302 281.1 101.102C281.9 100.702 282.8 100.502 283.7 100.202C287.2 99.2016 291 98.6016 294.8 98.1016C296.4 97.9016 297.9 97.6016 299.5 97.4016C299.9 97.3016 300.3 97.3016 300.6 97.2016C300.8 97.2016 300.9 97.1016 301 97.0016C301.1 96.9016 301.1 96.7016 301 96.6016C300.9 96.5016 300.8 96.4016 300.7 96.4016H300.1C299.7 96.4016 299.3 96.5016 299 96.5016C296 96.7016 293.1 96.9016 290.4 97.1016C284.9 97.5016 280 97.9016 275.8 98.2016C271.6 98.5016 268.3 98.7016 265.9 98.9016C264.7 99.0016 263.8 99.0016 263.2 99.1016C262.9 99.1016 262.7 99.1016 262.5 99.1016C262.2 99.1016 262.1 99.1016 262.1 99.1016C262.1 99.1016 262.2 99.1016 262.3 99.1016C262.5 99.1016 262.7 99.1016 263 99.0016C263.6 98.9016 264.5 98.9016 265.7 98.8016C268 98.6016 271.4 98.3016 275.5 98.0016C279.7 97.7016 284.6 97.3016 290.1 96.9016C292.9 96.7016 295.7 96.5016 298.7 96.2016C299.1 96.2016 299.5 96.1016 299.8 96.1016H300.4C300.6 96.1016 300.9 96.2016 301 96.4016C301.1 96.6016 301.1 96.9016 301 97.1016C300.9 97.2016 300.8 97.3016 300.7 97.3016C300.6 97.3016 300.5 97.4016 300.4 97.4016C300 97.5016 299.6 97.5016 299.3 97.6016C297.8 97.8016 296.2 98.1016 294.6 98.3016C290.7 98.9016 287 99.5016 283.5 100.402C282.6 100.602 281.8 100.902 281 101.302C280.6 101.502 280.2 101.702 279.9 102.002L279.6 102.202C279.5 102.302 279.4 102.302 279.3 102.402C279.1 102.502 278.9 102.602 278.7 102.602C277 103.102 275.3 103.202 273.7 103.402C272.1 103.502 270.5 103.602 269 103.702C267.5 103.702 266.1 103.702 264.7 103.702C262 103.702 259.6 103.702 257.5 103.702C257 103.502 256.6 103.302 256.2 103.102L256 103.002L256.2 102.902C258.2 102.102 259.8 101.202 260.7 100.502C261.2 100.102 261.5 99.8016 261.7 99.6016C261.9 99.3016 262 99.2016 262.1 99.1016Z" fill="black"/>
<path d="M378.602 218.799C377.402 217.199 376.002 215.799 374.202 214.999C372.302 214.399 370.502 213.799 368.902 212.399V212.199C371.102 211.699 373.202 212.299 375.002 213.599C376.802 214.799 378.002 216.599 378.802 218.599C378.802 218.699 378.602 218.799 378.602 218.799Z" fill="black"/>
<path d="M314.902 247.5C316.502 247.2 318.202 246.9 319.802 246.5L319.902 246.6C320.602 247.2 321.802 247.6 322.702 247.8C326.002 248.2 329.302 248.1 332.602 248.1C337.002 248.1 341.502 248 345.902 247.9C353.702 247.7 364.802 247.5 372.502 247.4C363.602 248.2 354.802 248.6 345.902 248.8C341.502 248.9 337.002 248.9 332.602 248.9C330.402 248.9 328.202 248.8 325.902 248.6C324.002 248.4 321.902 248.3 320.202 247.3C320.002 247.1 319.702 247 319.502 246.6L319.702 246.7C318.202 247.1 316.502 247.3 314.902 247.5Z" fill="black"/>
<path d="M280.802 151C281.702 156.2 282.102 161.6 282.002 166.9C281.902 170.1 280.902 173.2 280.702 176.4C280.202 180.6 279.902 184.8 280.002 189C280.002 193.1 281.402 197.2 283.002 200.8C283.102 201 283.102 201 283.102 201.2C283.702 214.6 284.502 228.2 281.802 241.5C280.802 245 279.102 248.3 278.302 251.9C277.702 254.3 277.202 256.6 277.102 259.1C277.102 256.7 277.402 254.2 277.902 251.8C278.802 247 281.102 242.6 281.402 237.7C282.502 225.6 281.802 213.4 281.202 201.3L281.302 201.7C279.502 197.6 278.102 193.5 278.202 189.1C278.302 182.6 279.102 176.3 280.502 170C281.702 163.8 281.402 157.3 280.802 151Z" fill="black"/>
<path d="M268.801 167.602C270.801 170.602 272.701 173.602 273.501 177.202C273.901 180.802 273.101 184.302 272.201 187.802C272.301 184.802 272.901 180.302 272.601 177.402C271.901 174.502 269.901 170.402 268.801 167.602Z" fill="black"/>
<path d="M261.102 203.497C264.002 200.297 267.202 196.697 267.602 192.297C268.302 187.797 267.202 183.597 266.602 179.097C266.002 174.697 266.602 169.997 268.002 165.797C269.402 160.097 270.302 154.197 270.602 148.397C270.602 146.897 270.702 145.497 270.402 144.097C269.802 141.097 270.402 137.997 271.302 135.197L271.502 135.597C268.902 134.897 266.302 134.197 263.702 133.497L255.902 131.297L263.802 133.097C266.502 133.697 269.302 134.397 272.002 134.997L271.902 135.297C271.102 138.097 270.602 141.097 271.202 143.897C271.802 146.897 271.402 149.897 271.202 152.897C270.702 157.297 270.102 161.797 268.902 166.097C267.502 170.297 266.902 174.597 267.402 179.097C267.902 183.497 268.802 187.997 268.102 192.397C267.602 196.797 264.202 200.397 261.102 203.497Z" fill="black"/>
<path d="M269.202 140.802C268.102 140.802 266.202 140.702 263.502 140.102C258.402 139.002 253.602 136.102 253.402 136.002L253.902 135.102C253.902 135.102 258.802 138.102 263.602 139.102C268.402 140.102 270.402 139.702 270.402 139.702L270.602 140.702C270.702 140.702 270.202 140.802 269.202 140.802Z" fill="black"/>
<path d="M353.102 117.102C353.702 118.902 354.702 121.902 355.102 123.702C355.102 123.802 355.102 123.902 355.102 123.902C355.102 124.002 355.102 123.902 355.102 124.202C355.002 124.502 354.202 124.402 354.402 124.302L354.302 124.202C354.302 124.202 354.202 124.102 354.302 123.802C354.302 123.602 354.502 123.502 354.702 123.502C354.902 123.502 354.902 123.502 355.002 123.502C358.102 124.502 360.902 126.002 363.802 127.202C367.602 129.002 371.402 130.802 375.102 132.902L376.002 133.402C377.102 134.002 377.902 135.202 378.502 136.202C384.102 146.102 387.502 156.902 391.102 167.602C394.502 178.302 397.502 189.102 399.802 200.102C401.002 205.602 402.002 211.102 402.702 216.702C403.202 222.202 404.202 228.102 402.402 233.502C403.502 228.002 401.902 222.402 401.002 217.002C399.902 211.502 398.502 206.102 397.102 200.702C394.202 189.902 391.102 179.202 387.702 168.602C385.202 160.602 382.502 152.702 379.502 145.002C378.102 141.802 377.002 138.402 374.902 135.802C371.002 133.302 367.002 130.902 363.002 128.602C360.302 127.102 357.602 125.402 354.802 124.102C354.802 124.102 354.702 124.102 354.902 124.102C355.002 124.102 355.202 124.002 355.202 123.802C355.202 123.602 355.202 123.502 355.202 123.502C355.202 123.502 355.202 123.502 355.202 123.402C355.402 123.302 354.602 123.202 354.502 123.502C354.402 123.702 354.502 123.602 354.502 123.602C354.102 122.102 353.402 118.802 353.102 117.102Z" fill="black"/>
<path d="M304.801 112.1C304.801 112.1 320.501 116.6 329.901 110C329.901 110 321.101 119.4 305.501 117.3L304.801 112.1Z" fill="black"/>
<path d="M354.705 123.898C355.205 125.098 355.305 126.398 355.605 127.598C356.905 131.198 357.505 135.198 356.605 138.998C356.105 140.898 355.405 142.898 354.305 144.398C353.705 145.398 352.705 146.698 351.905 147.498C351.505 147.998 350.905 148.498 350.505 148.898C341.505 156.498 329.105 157.998 317.805 157.998C321.405 157.498 325.405 156.898 329.005 156.198C339.305 153.798 351.805 149.798 355.205 138.598C356.005 135.698 356.105 132.498 355.505 129.498C355.005 127.798 355.105 125.798 354.705 123.898Z" fill="black"/>
<path d="M341.803 135.105C331.303 144.405 314.403 147.205 301.903 140.405C297.703 138.105 294.103 134.805 291.703 130.805C294.703 134.305 298.503 137.105 302.603 139.105C315.103 145.005 330.403 142.405 341.803 135.105Z" fill="black"/>
<path d="M305.305 146.705C311.905 146.005 318.605 146.105 325.205 145.105C331.805 144.105 337.305 140.005 342.705 136.305C341.405 137.405 340.205 138.505 338.905 139.605C334.905 142.705 330.405 145.405 325.305 146.105C318.705 147.105 312.005 146.705 305.305 146.705Z" fill="black"/>
<path d="M303.602 115.602C305.602 129.402 313.502 130.902 325.802 130.302C329.202 130.002 332.702 129.402 335.802 127.902C332.902 129.802 329.402 130.602 325.902 131.102C320.702 131.602 315.102 131.602 310.302 129.302C305.602 126.502 303.602 120.802 303.602 115.602Z" fill="black"/>
<path d="M312.503 229.096C312.503 229.096 305.703 226.996 302.803 226.096C301.903 225.796 301.103 225.196 300.103 224.896C295.603 223.296 290.203 219.796 289.003 218.396C287.003 215.996 285.003 219.196 287.003 222.196C289.003 225.196 290.603 226.296 290.603 226.296L280.903 227.896C280.403 227.996 279.903 228.296 279.603 228.696L271.303 239.596C270.503 240.496 270.503 241.796 271.303 242.696C271.703 243.096 272.203 243.296 272.803 242.996L271.703 244.496C269.903 246.996 273.503 249.896 275.403 247.496C275.403 247.496 275.403 247.396 275.503 247.396C275.303 249.396 276.303 250.496 278.703 250.396C278.703 250.396 279.203 254.196 282.203 252.896C284.603 251.796 291.503 245.096 291.503 245.096C291.503 245.096 313.403 247.596 314.803 244.396L312.503 229.096Z" fill="white"/>
<path d="M312.503 229.099C304.603 226.999 296.803 224.699 290.203 219.899C289.503 219.399 288.903 218.899 288.403 218.299C287.003 217.199 286.403 219.299 286.803 220.399C287.603 222.799 289.603 224.899 291.603 226.399C291.503 226.399 283.703 227.599 283.303 227.699L281.403 227.999C280.803 228.099 280.203 228.199 279.903 228.699L277.603 231.699C275.703 234.199 273.803 236.699 271.903 239.199C271.503 239.699 271.103 240.199 271.103 240.699C270.903 241.699 271.803 243.299 272.803 242.599L274.003 241.799C273.603 242.299 272.903 243.399 272.503 243.899C271.803 244.699 271.403 245.799 272.003 246.799C272.803 247.999 274.503 248.199 275.303 246.999L276.103 245.899C275.703 248.699 276.003 249.999 279.103 249.799L279.203 250.199C280.003 254.199 282.703 251.999 284.803 250.299C287.103 248.399 289.203 246.399 291.303 244.399C297.203 244.999 303.303 245.499 309.203 245.399C310.803 245.199 313.303 245.399 314.403 244.199V244.399C313.803 239.299 313.103 234.199 312.503 229.099ZM312.503 228.999C313.303 233.999 314.403 239.199 315.103 244.399C313.003 247.799 295.603 245.799 291.403 245.499L291.803 245.399C289.703 247.399 287.603 249.299 285.403 251.199C283.903 252.299 282.303 253.999 280.203 253.399C279.003 252.899 278.503 251.599 278.303 250.399L278.803 250.799C276.603 250.899 274.903 249.699 275.203 247.299L275.903 247.599C274.003 250.199 269.903 247.599 271.303 244.699C271.603 244.099 272.303 243.399 272.703 242.799L273.003 243.199C272.703 243.399 272.303 243.499 271.903 243.399C270.503 242.899 270.203 240.999 271.003 239.899C273.103 237.199 275.303 234.399 277.303 231.699L279.603 228.699C279.803 228.399 280.103 228.199 280.403 228.099C281.003 227.799 282.503 227.699 283.203 227.499L290.603 226.099L290.503 226.699C288.303 224.799 284.603 221.399 286.303 218.099C286.803 217.099 288.203 216.999 289.003 217.799C292.103 220.899 296.203 222.899 300.203 224.599C304.003 226.399 308.503 227.499 312.503 228.999Z" fill="black"/>
<path d="M290.502 231.195C290.502 231.195 290.402 231.195 290.302 231.295C290.202 231.395 290.002 231.395 289.702 231.495C289.102 231.595 288.302 231.695 287.302 231.795C286.302 231.895 285.102 231.895 283.802 232.195C282.502 232.495 281.402 233.495 280.402 234.595C278.302 236.895 276.502 238.895 275.102 240.395C274.402 241.095 273.902 241.695 273.502 242.095C273.102 242.495 272.902 242.695 272.902 242.695C272.902 242.695 273.102 242.395 273.402 241.995C273.802 241.495 274.302 240.895 275.002 240.195C276.302 238.695 278.202 236.595 280.202 234.295C280.702 233.695 281.302 233.195 281.902 232.695C282.502 232.295 283.202 231.895 283.802 231.795C285.102 231.395 286.302 231.495 287.302 231.395C288.302 231.395 289.102 231.295 289.702 231.195C290.202 231.295 290.502 231.195 290.502 231.195Z" fill="black"/>
<path d="M292.105 235.795C292.105 235.895 290.905 235.495 289.105 235.895C288.205 236.095 287.105 236.495 286.005 237.095C284.905 237.695 283.805 238.595 282.805 239.495C280.705 241.395 278.905 243.395 277.705 244.795C277.105 245.495 276.605 246.095 276.305 246.495C276.005 246.895 275.805 247.095 275.805 247.095C275.805 247.095 275.905 246.795 276.205 246.395C276.505 245.995 277.005 245.295 277.605 244.595C278.805 243.095 280.505 241.095 282.705 239.195C283.805 238.195 284.905 237.395 286.005 236.795C287.105 236.195 288.205 235.795 289.105 235.595C290.005 235.395 290.805 235.395 291.405 235.495C291.705 235.495 291.905 235.595 292.005 235.595C292.005 235.795 292.105 235.795 292.105 235.795Z" fill="black"/>
<path d="M299.702 226.702C299.702 226.702 299.202 226.802 298.302 226.802C297.502 226.802 296.302 226.802 295.002 226.702C293.702 226.602 292.602 226.502 291.702 226.402C290.902 226.302 290.402 226.202 290.402 226.102C290.402 226.102 290.902 226.102 291.802 226.102C292.702 226.202 293.802 226.202 295.102 226.302C296.302 226.402 297.402 226.502 298.402 226.502C299.202 226.702 299.702 226.702 299.702 226.702Z" fill="black"/>
<path d="M289.002 241.102C289.002 241.102 288.302 241.402 287.202 242.002C286.102 242.602 284.702 243.602 283.402 244.902C282.002 246.202 281.002 247.502 280.202 248.502C279.402 249.502 278.902 250.102 278.902 250.002C278.902 250.002 279.002 249.802 279.202 249.502C279.402 249.202 279.702 248.802 280.102 248.302C280.902 247.302 281.902 245.902 283.302 244.602C284.702 243.302 286.102 242.302 287.202 241.702C287.802 241.402 288.202 241.202 288.602 241.102C288.802 241.102 289.002 241.102 289.002 241.102Z" fill="black"/>
<path d="M358.301 166.195C362.401 180.895 366.401 197.195 369.901 212.095L370.101 212.995L369.201 213.195C360.001 214.995 338.901 219.095 330.001 220.995C326.201 221.795 322.401 222.595 318.701 223.695C318.201 223.895 317.501 223.995 317.301 224.495C317.501 223.995 318.201 223.795 318.601 223.595C322.201 222.095 326.001 221.095 329.701 220.095C342.601 216.695 355.601 213.895 368.701 211.395L368.001 212.495C364.601 197.595 361.101 181.295 358.301 166.195Z" fill="black"/>
<path d="M273.303 209.898C272.903 216.298 272.003 222.698 269.603 228.698C268.003 232.198 265.503 235.198 263.703 238.498L263.403 237.598C265.803 238.798 268.203 239.998 270.503 241.398C267.703 240.598 265.003 239.598 262.203 238.598C263.803 234.798 266.203 231.598 267.903 227.998C270.303 222.198 271.503 215.998 273.303 209.898Z" fill="black"/>
<path d="M176.602 300.297H462.002C462.502 300.297 463.002 300.697 463.002 301.297V301.897C463.002 302.397 462.602 302.897 462.002 302.897H176.602C176.102 302.897 175.602 302.497 175.602 301.897V301.297C175.602 300.797 176.002 300.297 176.602 300.297Z" fill="black"/>
<script type="text/ecmascript" xlink:href="https://www.argentina.gob.ar/profiles/argentinagobar/themes/contrib/poncho/js/w3c/ref2.js"></script></svg>
