<svg width="640" height="360" viewBox="0 0 640 360" fill="none" xmlns="http://www.w3.org/2000/svg">
<path d="M376.702 258.683C376.702 258.683 383.381 273.25 388.866 293.965C393.244 310.5 393 321.5 389.91 335.918L257.953 337.7C263.202 312.333 260.669 324.366 266.721 302.804C272.773 281.241 278.516 258.506 278.516 258.506L376.695 258.675L376.702 258.683Z" fill="black"/>
<path d="M249.649 223.1C248.425 223.1 247.209 222.842 246.037 222.341C243.929 221.434 242.572 220.085 241.901 218.22C239.225 210.796 247.298 194.984 260.67 168.791C264.098 162.075 267.983 154.468 272.111 146.167C273.04 144.294 274.131 143.307 275.266 143.307C276.402 143.307 277.67 144.28 278.871 146.108C283.169 152.632 286.228 169.433 280.523 182.724C269.015 209.514 258.628 223.1 249.649 223.1Z" fill="white"/>
<path d="M275.273 143.703C276.268 143.703 277.433 144.632 278.546 146.328C282.8 152.778 285.815 169.402 280.161 182.568C268.72 209.195 258.458 222.701 249.656 222.701C248.491 222.701 247.326 222.457 246.198 221.971C244.193 221.108 242.911 219.84 242.277 218.086C239.66 210.825 247.702 195.078 261.031 168.974C264.459 162.259 268.344 154.651 272.479 146.343C273.076 145.141 274.049 143.703 275.273 143.703ZM275.273 142.9C274.035 142.9 272.818 143.851 271.757 145.981C247.253 195.24 232.87 217.113 245.881 222.701C247.142 223.239 248.395 223.497 249.656 223.497C261.414 223.497 272.995 201.278 280.898 182.878C288.174 165.944 281.392 142.893 275.273 142.893" fill="black"/>
<path d="M300.118 124.832C300.118 124.832 278.784 116.48 267.814 134.902C256.771 153.443 248.581 184.257 249.311 184.567C249.311 184.567 282.403 200.379 282.956 199.672C283.509 198.964 300.118 124.832 300.118 124.832Z" fill="#242C4F"/>
<path d="M374.88 213.67C373.369 201.02 392.248 144.684 388.57 137.939C384.205 129.948 379.524 122.215 377.327 122.244L367.442 119.723L367.162 118.794L355.418 116.656L348.533 125.805C344.316 128.857 337.615 131.481 327.051 131.422C300.807 131.275 296.922 120.733 296.922 120.733C289.639 122.126 277.859 125.783 277.859 125.783C274.07 128.26 274.187 140.947 275.168 152.535C274.541 166.512 274.195 182.229 275.396 187.913C277.667 198.595 281.994 215.543 282.363 230.884C282.473 235.454 280.992 245.871 278.854 258.241C281.943 259.147 292.698 267.057 306.771 269.365C320.837 271.672 386.13 261.123 386.13 261.123C382.178 246.217 377.313 234.053 374.88 213.678" fill="#242C4F"/>
<path d="M311.131 37.8295C315.245 28.3051 323.965 23.646 327.954 14.0626C327.954 14.0626 323.833 7.19935 318.341 6.51377C312.849 5.82818 302.985 9.7574 297.744 14.0626C289.981 18.6258 285.61 26.4547 283.28 35.1535C281.422 42.0979 281.769 49.4108 282.13 56.591C283.059 75.1755 283.988 93.76 284.924 112.352C284.983 113.546 285.057 114.777 285.595 115.839C286.848 118.294 302.358 118.5 307.357 117.741C310.335 117.291 312.849 116.37 316.97 114.991C319.314 114.21 317.891 110.391 318.164 107.936C320.184 89.9782 320.073 71.7771 317.832 53.8413L311.124 37.8295H311.131Z" fill="black"/>
<path d="M367.089 60.1961C367.089 84.914 345.025 101.265 322.46 101.265C299.894 101.265 289.5 84.7887 289.5 60.0708C289.5 35.3528 308.136 16.127 330.694 16.127C353.252 16.127 367.082 35.4782 367.082 60.1961" fill="white"/>
<path d="M316.969 101.257C316.969 101.257 335.509 103.314 345.439 93.3027C345.439 93.3027 336.888 106.594 317.654 107.435L316.969 101.257Z" fill="black"/>
<path d="M298.774 51.5485C299.276 52.0792 300.964 51.3199 303.065 51.0988C305.158 50.8039 306.979 51.1209 307.333 50.4869C307.488 50.1773 307.149 49.6244 306.323 49.1526C305.505 48.6808 304.185 48.3564 302.74 48.5334C301.303 48.7103 300.101 49.3516 299.423 50.0077C298.738 50.6712 298.546 51.2831 298.767 51.5485" fill="black"/>
<path d="M314.064 57.3047C314.278 61.0865 313.593 64.9198 312.162 68.4289C311.057 71.1859 309.258 74.0315 313.924 73.6924C314.853 73.6482 315.782 73.4786 316.704 73.3164C315.812 73.626 314.897 73.8619 313.954 74.0241C308.838 74.636 310.135 71.4145 311.528 68.1856C312.959 64.7208 313.747 61.057 314.057 57.3121" fill="black"/>
<path d="M315.188 101.715C315.954 100.978 316.854 101.236 317.48 101.988C317.945 107.015 317.974 112.072 318.048 117.122C317.812 112.655 317.546 106.411 317.008 102.032L317.229 102.246C316.544 102.784 315.586 102.489 315.195 101.715" fill="black"/>
<path d="M362.09 44.8614C357.896 29.8302 345.282 16.7377 329.072 16.4133C313.089 15.713 299.009 27.8914 293.657 42.4066C290.163 51.5256 289.352 61.5588 290.465 71.2086C291.851 82.6276 297.667 94.2604 308.769 98.8384C314.151 101.22 320.137 101.522 325.939 101.772C329.838 101.883 333.826 101.721 337.512 100.305L337.564 100.431C332.057 102.819 325.88 102.532 320.012 102.281C316.023 102.134 312.035 101.433 308.327 99.8999C294.63 94.5774 288.784 79.1849 288.777 65.4143C288.224 47.6775 296.208 29.0119 311.998 19.9887C320.587 14.8579 331.549 13.7963 340.8 17.7624C351.762 22.3772 360.056 33.5677 362.09 44.8614Z" fill="black"/>
<path d="M324.248 49.1736C324.491 49.8666 327.035 49.5791 330.02 49.9771C333.013 50.3163 335.409 51.223 335.815 50.6111C335.992 50.3163 335.586 49.6602 334.62 48.9746C333.662 48.289 332.129 47.6329 330.337 47.4117C328.546 47.1906 326.902 47.456 325.804 47.8835C324.698 48.3111 324.138 48.8493 324.248 49.181" fill="black"/>
<path d="M292.859 43.6384C297.341 41.8249 303.298 38.8614 309.416 33.9739C317.223 27.7446 318.262 22.8644 321.086 18.1833C314.547 17.8958 311.834 15.7211 305.295 15.4336L292.852 43.6384H292.859Z" fill="black"/>
<path d="M274.701 147.566C274.76 147.566 274.789 148.422 274.782 149.962C274.767 151.68 274.745 153.862 274.723 156.479C274.686 161.978 274.678 169.571 275.209 177.931C275.74 186.291 276.802 193.81 277.848 199.199C278.364 201.897 278.821 204.072 279.175 205.568C279.514 207.065 279.669 207.905 279.61 207.927C279.551 207.942 279.278 207.139 278.829 205.657C278.372 204.182 277.819 202.023 277.214 199.332C276.005 193.95 274.826 186.394 274.295 177.99C273.764 169.586 273.868 161.964 274.074 156.464C274.177 153.715 274.302 151.488 274.42 149.955C274.538 148.422 274.634 147.574 274.693 147.574" fill="black"/>
<path d="M237.68 150.396L256.869 194.51L268.428 196.943C270.33 205.258 262.007 218.668 253.832 223.098C246.666 226.976 234.628 221.27 232.063 210.286C231.06 205.671 230.139 200.901 229.306 195.977C226.696 180.511 225.406 168.281 225.008 154.938" fill="white"/>
<path d="M270.929 102.275L240.329 126.72C237.97 128.607 234.527 128.224 232.64 125.865L214.674 103.381C212.787 101.022 213.171 97.5791 215.537 95.6919L246.13 71.2468C248.489 69.3596 251.932 69.7429 253.819 72.1093L271.784 94.5935C273.672 96.9525 273.288 100.395 270.929 102.282" fill="#242C4F"/>
<path d="M246.233 71.165L215.448 95.765C214.659 96.3916 214.106 97.2099 213.797 98.1092L245.216 73.008C247.42 71.2461 250.737 71.7474 252.632 74.1138L257.792 80.5715L253.974 83.6235L244.309 91.4082C242.945 93.0226 243.55 96.3621 245.813 99.1929C248.076 102.024 251.194 103.351 253.074 102.378L262.805 94.6665L266.624 91.6146L268.54 94.0105C270.435 96.3842 270.184 99.731 267.988 101.486L235.979 127.066C235.713 127.28 235.433 127.457 235.138 127.604C236.849 128.216 238.788 127.98 240.262 126.801L271.047 102.208C273.354 100.365 273.664 96.915 271.74 94.5044L253.922 72.2044C251.998 69.7938 248.563 69.3368 246.255 71.1797" fill="#242C4F"/>
<path d="M249.084 72.1881H249.032C248.619 72.1881 248.207 72.2471 247.801 72.3503C247.72 72.3724 247.639 72.4019 247.558 72.424L247.595 72.542C248.096 72.3724 248.619 72.2913 249.15 72.2913V72.166L249.084 72.1881ZM246.047 73.1981C246.047 73.1981 246.032 73.2055 246.032 73.2128C246.032 73.2128 245.966 73.2644 245.936 73.2865L244.801 74.1933L244.882 74.2891L246.025 73.375C246.061 73.3455 246.106 73.3087 246.15 73.2792L246.076 73.176L246.047 73.1981ZM243.511 75.2253L242.243 76.2427L242.324 76.3385L243.592 75.3212L243.511 75.2253ZM240.967 77.2526L239.699 78.2699L239.781 78.3658L241.049 77.3484L240.967 77.2526ZM238.432 79.2799L237.164 80.2972L237.245 80.393L238.513 79.3757L238.432 79.2799ZM235.888 81.3145L234.945 82.0665C234.775 82.2065 234.65 82.3024 234.65 82.3024L234.731 82.3982L235.999 81.3809L235.918 81.285L235.888 81.3145ZM233.352 83.3418L232.888 83.7178C232.888 83.7178 232.873 83.7325 232.858 83.7399C232.505 84.02 232.106 84.3444 232.106 84.3444L232.188 84.4402L233.456 83.4229L233.374 83.3271L233.352 83.3418ZM230.809 85.3691C230.809 85.3691 230.809 85.3691 230.802 85.3764C230.603 85.5313 229.563 86.3643 229.563 86.3643L229.644 86.4601L230.912 85.4428L230.831 85.3469L230.809 85.3691ZM228.273 87.3963L227.005 88.4137L227.086 88.5095L228.354 87.4922L228.273 87.3963ZM225.73 89.431C225.73 89.431 225.42 89.6742 225.111 89.9249C225.111 89.9249 225.103 89.9323 225.096 89.9396H225.081V89.9544L224.521 90.4041L224.602 90.4999L225.87 89.4826L225.789 89.3867L225.73 89.431ZM223.186 91.4582L221.919 92.4756L222 92.5714L223.268 91.5541L223.186 91.4582ZM220.651 93.4855L219.383 94.5028L219.464 94.5987L220.732 93.5814L220.651 93.4855ZM218.107 95.5201L217.635 95.9035C217.635 95.9035 217.628 95.9035 217.628 95.9109C217.392 96.1025 217.186 96.3016 216.994 96.5227C216.994 96.5227 216.987 96.5301 216.979 96.5375L217.075 96.6186C217.274 96.3827 217.503 96.1615 217.746 95.9698L218.269 95.557L218.188 95.4612L218.107 95.5201ZM216.058 97.9823C215.918 98.3215 215.822 98.6753 215.756 99.0365C215.756 99.0365 215.756 99.0439 215.756 99.0513V99.0587C215.756 99.0587 215.756 99.0586 215.756 99.066C215.756 99.066 215.756 99.0734 215.756 99.0808V99.0955C215.741 99.2135 215.726 99.3314 215.719 99.442H215.844C215.881 98.9186 215.999 98.4026 216.198 97.9086L216.08 97.8644L216.058 97.9823ZM215.969 101.138L215.851 101.167C215.874 101.241 215.888 101.307 215.91 101.381C215.91 101.381 215.91 101.388 215.91 101.396C215.91 101.396 215.91 101.403 215.91 101.41C215.91 101.41 215.91 101.418 215.91 101.425C215.91 101.425 215.91 101.425 215.91 101.432C215.91 101.432 215.91 101.432 215.91 101.44C215.91 101.44 215.91 101.44 215.91 101.447V101.455C215.91 101.455 215.91 101.455 215.91 101.462C215.91 101.462 215.91 101.462 215.91 101.469C215.91 101.469 215.91 101.477 215.91 101.484C215.91 101.484 215.91 101.491 215.91 101.499C215.91 101.499 215.91 101.506 215.91 101.513C215.91 101.528 215.925 101.543 215.933 101.558C215.933 101.558 215.933 101.565 215.933 101.572C216.05 101.875 216.205 102.17 216.39 102.45L216.493 102.383C216.205 101.941 215.992 101.455 215.851 100.938M217.599 103.858L217.503 103.939L218.137 104.728C218.137 104.728 218.137 104.728 218.137 104.735C218.336 104.986 218.498 105.199 218.498 105.199L218.594 105.118L217.576 103.85L217.599 103.858ZM219.626 106.394L219.53 106.475L219.788 106.799C219.788 106.799 219.788 106.799 219.788 106.806C220.09 107.182 220.525 107.728 220.525 107.728L220.621 107.647L219.604 106.379L219.626 106.394ZM221.653 108.937L221.557 109.018L222.575 110.286L222.67 110.205L221.653 108.937ZM223.688 111.473L223.592 111.554C223.592 111.554 223.806 111.827 224.042 112.114C224.042 112.114 224.042 112.114 224.042 112.122L224.602 112.822L224.698 112.741L223.68 111.473H223.688ZM225.715 114.016L225.619 114.097L226.637 115.365L226.732 115.284L225.715 114.016ZM227.742 116.552L227.646 116.633L228.479 117.673V117.687C228.479 117.687 228.479 117.695 228.487 117.695C228.583 117.813 228.642 117.886 228.642 117.886L228.738 117.805L227.72 116.537L227.742 116.552ZM229.777 119.095L229.681 119.177L230.698 120.444L230.794 120.363L229.777 119.095ZM231.804 121.631L231.708 121.712C231.708 121.712 232.018 122.103 232.298 122.45L232.718 122.98L232.814 122.899L231.797 121.631H231.804ZM233.839 124.153L233.75 124.241C233.75 124.241 233.75 124.248 233.758 124.256C233.765 124.263 233.758 124.256 233.765 124.263C233.773 124.271 233.78 124.278 233.787 124.285C234.126 124.632 234.51 124.919 234.923 125.148C234.937 125.155 234.952 125.162 234.959 125.17C234.959 125.17 234.967 125.17 234.974 125.177C234.974 125.177 234.974 125.177 234.989 125.177H234.996C234.996 125.177 235.004 125.177 235.011 125.185C235.011 125.185 235.018 125.185 235.026 125.185C235.026 125.185 235.026 125.185 235.033 125.185L235.092 125.074C234.62 124.831 234.2 124.514 233.831 124.13M238.181 125.59C237.923 125.634 237.65 125.656 237.385 125.656C237.119 125.656 236.861 125.634 236.596 125.597L236.574 125.723C236.648 125.737 236.721 125.745 236.795 125.752C236.795 125.752 236.795 125.752 236.802 125.752C236.802 125.752 236.802 125.752 236.81 125.752C236.81 125.752 236.81 125.752 236.817 125.752C236.817 125.752 236.817 125.752 236.824 125.752H236.832H236.839H236.847H236.861H236.869H236.876H236.883H236.891H236.898H236.906H236.913H236.928H236.942H236.95H236.965H236.979H236.994H237.009H237.031H237.053H237.082H237.112H237.267H237.296C237.488 125.752 237.68 125.73 237.871 125.708C237.901 125.708 237.938 125.701 237.967 125.693L237.945 125.568L238.181 125.59ZM240.982 124.16L240.474 124.565C240.223 124.764 239.958 124.934 239.685 125.081L239.744 125.192C239.795 125.162 239.854 125.133 239.906 125.104C239.906 125.104 239.921 125.096 239.928 125.089C239.928 125.089 239.935 125.089 239.943 125.081H239.95C239.95 125.081 239.95 125.081 239.958 125.081C239.994 125.052 240.466 124.676 240.466 124.676L240.385 124.58L240.982 124.16ZM243.526 122.133L242.258 123.15L242.339 123.246L243.607 122.228L243.526 122.133ZM246.061 120.105L244.793 121.123L244.875 121.219L245.007 121.115L245.015 121.108C245.015 121.108 245.015 121.108 245.022 121.101C245.361 120.828 246.135 120.209 246.135 120.209L246.054 120.113L246.061 120.105ZM248.605 118.071L247.337 119.088L247.418 119.184C247.418 119.184 247.558 119.066 247.75 118.919L248.664 118.189L248.583 118.093L248.605 118.071ZM251.141 116.043L249.873 117.061L249.954 117.157C249.954 117.157 250.448 116.759 250.816 116.464C250.816 116.464 250.816 116.464 250.816 116.456L251.185 116.161L251.104 116.066L251.141 116.043ZM253.684 114.016L252.416 115.034L252.497 115.129L252.984 114.739C253.345 114.451 253.765 114.112 253.765 114.112L253.684 114.016ZM256.22 111.982L254.952 112.999L255.033 113.095L256.301 112.077L256.22 111.982ZM258.763 109.954L257.495 110.972L257.576 111.067L258.395 110.411C258.395 110.411 258.402 110.404 258.409 110.397C258.645 110.205 258.837 110.05 258.837 110.05L258.756 109.954H258.763ZM261.299 107.927L260.031 108.944L260.112 109.04L261.38 108.023L261.299 107.927ZM263.842 105.9L262.574 106.917L262.656 107.013L263.924 105.996L263.842 105.9ZM266.378 103.865L265.11 104.882L265.191 104.978L265.973 104.352C266.231 104.145 266.459 103.961 266.459 103.961L266.378 103.865ZM268.914 101.838C268.877 101.867 268.841 101.904 268.804 101.934L267.654 102.855L267.735 102.951L268.885 102.03C268.885 102.03 268.914 102.007 268.929 101.993C268.929 101.993 268.959 101.963 268.973 101.956L268.892 101.86L268.914 101.838ZM270.536 99.1766C270.418 99.6926 270.219 100.187 269.946 100.636L270.057 100.703C270.293 100.319 270.47 99.9064 270.595 99.4862C270.595 99.4862 270.595 99.4862 270.595 99.4789C270.595 99.4789 270.595 99.4715 270.595 99.4641C270.617 99.3978 270.632 99.3314 270.647 99.2577L270.521 99.2282L270.536 99.1766ZM270.352 96.0214L270.241 96.073C270.455 96.5596 270.588 97.0682 270.639 97.599L270.765 97.5843C270.713 97.0535 270.58 96.5227 270.359 96.0214M268.465 93.3897L268.369 93.4708L269.386 94.7387L269.482 94.6576L269.393 94.5471V94.5397C269.393 94.5397 269.393 94.5397 269.393 94.5323C269.128 94.2079 268.487 93.3971 268.487 93.3971M266.43 90.8537L266.334 90.9348L267.351 92.2028L267.447 92.1217L266.518 90.9569V90.9422C266.467 90.8906 266.445 90.8611 266.445 90.8611M264.403 88.3104L264.307 88.3915L265.324 89.6595L265.42 89.5784L265.243 89.3573C265.243 89.3573 265.243 89.3499 265.236 89.3425C264.941 88.9739 264.417 88.3178 264.417 88.3178M262.375 85.7745L262.28 85.8556L263.297 87.1236L263.393 87.0425C263.393 87.0425 262.619 86.0694 262.42 85.8261C262.42 85.8261 262.405 85.8114 262.405 85.804C262.405 85.804 262.405 85.804 262.405 85.7966L262.375 85.7745ZM260.348 83.2312L260.252 83.3123L261.27 84.5803L261.365 84.4992L260.348 83.2312ZM258.314 80.6953L258.218 80.7764L259.235 82.0443L259.331 81.9633L258.314 80.6953ZM256.286 78.152L256.19 78.2331L257.208 79.501L257.304 79.4199L256.286 78.152ZM254.259 75.6161L254.163 75.6972L255.18 76.9651L255.276 76.884L254.259 75.6161ZM252.106 73.1907L252.033 73.2939C252.372 73.5446 252.674 73.8394 252.947 74.1785L253.146 74.4292L253.242 74.3481L253.057 74.1122C253.057 74.1122 253.057 74.1122 253.05 74.1048C253.05 74.1048 253.05 74.0975 253.043 74.0901C253.043 74.0901 253.028 74.0753 253.02 74.068C252.777 73.7878 252.512 73.5446 252.224 73.3308M249.084 72.1881V72.3135C249.615 72.3135 250.131 72.3946 250.632 72.5641L250.669 72.4462C250.168 72.284 249.637 72.1955 249.106 72.1881H249.077H249.084Z" fill="black"/>
<g style="mix-blend-mode:multiply">
<mask id="mask0_5018_8199" style="mask-type:luminance" maskUnits="userSpaceOnUse" x="241" y="77" width="27" height="25">
<path d="M267.165 77.541H241.562V101.677H267.165V77.541Z" fill="white"/>
</mask>
<g mask="url(#mask0_5018_8199)">
<path d="M251.886 82.4212C248.738 84.9719 245.598 87.5299 242.502 90.1469C240.991 92.447 242.62 95.639 244.205 97.5925C245.731 99.4797 248.731 101.551 250.898 100.652C253.471 98.573 256.059 96.5089 258.661 94.4669C261.271 92.4248 263.873 90.3902 266.505 88.3851L266.453 88.8347L262.155 83.2321C260.828 81.4113 259.037 79.325 257.924 77.6442C255.897 79.2144 253.884 80.8141 251.879 82.4065M251.886 82.4212C253.899 80.7994 255.919 79.1849 257.909 77.541C259.406 79.384 260.939 81.1901 262.45 83.0183L266.969 88.444L267.168 88.6873L266.918 88.8937C261.824 93.162 256.641 97.3345 251.378 101.389C246.682 103.173 241.293 96.3393 241.573 91.9973C241.625 91.2675 241.853 90.5155 242.347 89.9553C245.561 87.4857 248.724 84.9571 251.886 82.4286" fill="#242C4F"/>
</g>
</g>
<path d="M251.877 82.4213L242.411 90.0438C241.077 91.6361 241.711 94.9461 243.967 97.7695C246.223 100.593 249.319 101.942 251.162 100.991L260.686 93.4422L266.702 88.6358L257.892 77.6074L251.877 82.4139V82.4213Z" fill="#9296A7"/>
<path d="M258.431 78.5078L257.797 79.0165" stroke="black" stroke-width="0.11795" stroke-miterlimit="10"/>
<path d="M256.607 79.9746L252.066 83.6016L245.203 89.0863" stroke="black" stroke-width="0.11795" stroke-miterlimit="10"/>
<path d="M244.596 89.5645L244.279 89.8151L243.962 90.0731L243.992 90.11C243.822 90.3164 243.69 90.5523 243.594 90.8103" stroke="black" stroke-width="0.11795" stroke-miterlimit="10"/>
<path d="M243.438 92.6094C243.6 93.8847 244.241 95.3591 245.317 96.7008C246.659 98.3816 248.34 99.4431 249.77 99.6643" stroke="black" stroke-width="0.11795" stroke-miterlimit="10"/>
<path d="M250.68 99.6858C250.96 99.6489 251.218 99.5752 251.454 99.4499L251.483 99.4794L251.8 99.2213L252.117 98.9707" stroke="black" stroke-width="0.11795" stroke-miterlimit="10"/>
<path d="M253.312 98.0214L259.579 93.0158L264.717 88.9023" stroke="black" stroke-width="0.11795" stroke-miterlimit="10"/>
<path d="M265.312 88.4232L265.954 87.9219" stroke="black" stroke-width="0.11795" stroke-miterlimit="10"/>
<path d="M241.758 103.02L232.035 103.314L222.459 107.73L215.293 123.071C214.836 124.052 214.763 125.172 215.102 126.197L216.2 129.603L215.75 130.708C215.338 131.733 215.404 132.89 215.942 133.856L219.296 139.916L224.744 154.94L230.487 158.183C231.062 158.205 234.74 158.301 237.556 155.382C240.055 152.794 240.129 149.647 240.137 148.976C240.085 147.951 239.915 146.661 239.473 145.224C238.832 143.123 237.873 141.545 237.114 140.513C238.537 139.09 239.96 137.667 241.382 136.245L246.388 132.419C246.403 132.227 247.066 130.524 246.24 129.617C245.629 128.946 244.139 129.219 243.881 129.175C242.215 129.912 241.132 129.765 239.466 130.502C237.623 131.313 234.534 133.812 232.691 134.623L238.729 127.848L248.01 127.258C248.01 127.258 251.032 125.563 244.471 122.105C243.587 121.221 235.927 121.368 235.927 121.368C235.927 121.368 241.146 118.412 242.997 118.862C249.057 120.351 251.172 116.576 250.951 115.331C250.73 114.077 243.734 113.266 243.734 113.266L232.691 114.741C231.932 114.874 230.9 115.729 230.302 116.208L224.442 120.631L228.268 113.561L233.568 110.318C241.272 108.128 243.306 105.614 241.744 103.027" fill="white"/>
<path d="M239.541 119.414C234.44 122.068 229.53 125.385 226.169 130.133L226.117 130.103C229.132 125.186 234.035 120.984 239.541 119.414Z" fill="black"/>
<path d="M230.117 116.369C226.365 119.922 221.927 122.996 218.609 126.859C220.091 124.707 222.015 122.901 223.895 121.102C225.775 119.362 227.876 117.453 230.117 116.369Z" fill="black"/>
<path d="M229.781 136.694C230.614 135.773 231.632 135.124 232.708 134.542C233.747 133.996 234.875 133.156 235.893 132.787C234.927 133.517 233.946 134.232 232.966 134.94C232.008 135.625 230.909 136.517 229.781 136.694Z" fill="black"/>
<path d="M234.359 142.526C235.259 141.317 236.379 140.358 237.566 139.459C238.724 138.596 239.918 137.432 241.083 136.746C238.959 138.619 236.836 141.331 234.367 142.526" fill="black"/>
<path d="M237.198 155.02C241.731 151.415 240.036 144.633 237.043 140.556L236.998 140.49L237.057 140.431C237.057 140.431 241.304 136.133 241.311 136.126C241.318 136.126 243.692 134.268 243.7 134.268C244.326 133.708 245.476 133 246.007 132.396C246.545 131.725 246.663 130.508 246.154 129.815C245.513 129.1 244.37 129.52 243.515 129.668C242.527 129.867 241.54 130.029 240.603 130.339C237.33 131.504 234.868 134.238 231.514 135.492L232.48 134.408L236.77 129.602L237.846 128.4C238.112 128.127 238.502 127.545 238.923 127.53C240.736 127.412 243.965 127.213 245.778 127.095L247.385 126.992L247.784 126.97C247.887 126.97 247.938 126.94 248.005 126.896C249.715 125.171 245.52 123.033 244.282 122.289C243.714 121.964 243.029 121.935 242.38 121.839C239.874 121.581 237.315 121.61 234.794 121.64C237.234 120.387 239.682 118.824 242.498 118.529C243.029 118.514 243.596 118.706 244.098 118.787C245.336 118.964 246.678 118.986 247.857 118.573C249.199 118.131 250.592 116.988 250.732 115.521C250.813 115.167 250.261 114.932 249.811 114.74C247.96 114.032 245.543 113.715 243.766 113.45L233.202 114.814C231.484 114.968 230.202 116.634 228.786 117.519L224.518 120.718L224.083 121.043L224.341 120.564L228.196 113.509L228.211 113.487L228.233 113.472L233.526 110.214C235.531 109.609 237.559 108.953 239.38 107.913C241.134 106.992 242.962 105.112 241.621 103.107L241.761 103.188L236.704 103.358C235.251 103.498 233.099 103.299 231.728 103.77C230.371 104.183 228.484 105.267 227.142 105.827L222.557 107.965L222.675 107.847L220.191 113.229C219.358 115.005 217.205 119.554 216.394 121.271C216.099 122.045 215.391 123.151 215.222 123.94C214.979 124.884 215.148 125.805 215.487 126.719L216.387 129.543L216.409 129.616C215.826 130.877 215.318 132.292 216.018 133.612L216.696 134.85C216.696 134.85 219.431 139.841 219.446 139.863C221.105 144.242 223.338 150.53 225.056 154.828C225.122 155.005 225.034 155.204 224.864 155.27C224.687 155.337 224.488 155.248 224.422 155.079C222.933 150.729 220.721 144.382 219.129 139.981C219.173 140.114 216.365 135.005 216.372 135.042C215.952 134.283 215.296 133.258 215.288 132.351C215.192 131.356 215.642 130.427 216.003 129.535V129.675C215.708 128.643 214.831 126.432 214.691 125.385C214.544 124.36 214.883 123.291 215.34 122.414C217.375 117.998 220.132 112.049 222.233 107.641L222.269 107.56L222.351 107.523L226.951 105.422C228.359 104.862 230.157 103.822 231.61 103.387C233.055 102.908 235.185 103.114 236.689 103.004L241.746 102.871H241.842C242.461 103.822 242.601 105.12 241.93 106.085C240.006 108.658 236.431 109.535 233.63 110.42L228.314 113.641C228.44 113.428 224.518 120.741 224.54 120.689L224.363 120.542L228.602 117.32C229.899 116.443 230.99 115.226 232.465 114.644C232.715 114.57 232.914 114.57 233.143 114.533L243.7 113.081C245.823 113.339 247.931 113.627 249.966 114.342C250.423 114.541 251.042 114.762 251.175 115.315C251.241 117.143 249.59 118.536 248.012 119.089C246.464 119.627 244.776 119.546 243.206 119.2C242.675 119.075 242.269 119.097 241.761 119.2C239.785 119.672 237.883 120.645 236.062 121.625L235.922 121.102C238.458 121.102 241.009 121.043 243.523 121.47C243.913 121.551 244.341 121.655 244.673 121.92L244.606 121.868C246.287 122.805 250.622 125.149 248.336 127.397C248.086 127.611 247.702 127.582 247.408 127.604L245.801 127.707C244.193 127.81 240.972 128.017 239.372 128.12C239.225 128.142 238.908 128.105 238.805 128.238L238.281 128.82C237.581 129.609 233.711 133.958 232.922 134.836L232.575 134.356C235.244 133.096 237.544 130.796 240.434 129.86C241.952 129.432 243.383 129.159 244.938 128.982C247.002 128.791 247.349 131.341 246.28 132.654C245.631 133.332 244.592 133.958 243.876 134.548L241.466 136.362C241.54 136.317 237.161 140.593 237.183 140.593V140.468C238.797 142.657 239.822 145.267 240.139 147.965C240.5 150.729 239.571 153.509 237.92 155.75C237.448 156.325 236.615 155.565 237.19 155.049" fill="black"/>
<path d="M264.377 213.258C261.76 216.443 258.944 219.502 255.641 222.031C254.004 223.336 251.977 224.147 249.884 224.368C241.266 225.334 233.245 218.463 231.446 210.221C227.311 192.116 225.026 173.517 224.93 154.939C226.286 173.185 228.888 191.799 232.582 209.963C234.174 218.809 243.831 226.24 252.795 223.225C253.754 222.901 254.609 222.333 255.442 221.743C258.745 219.311 261.612 216.296 264.273 213.17L264.377 213.258Z" fill="black"/>
<path d="M239.141 153.576C241.515 158.626 246.218 168.799 248.525 173.871C250.906 178.928 253.251 184.007 255.175 189.263C255.735 190.789 256.561 193.008 257.033 194.549L256.907 194.608C253.265 188.106 250.28 181.228 247.523 174.313C245.378 169.175 241.102 158.795 239.016 153.635L239.141 153.576Z" fill="black"/>
<path d="M446.346 205.459C445.321 192.581 394.964 134.195 389.774 129.728C381.318 122.452 355.406 117.564 355.406 117.564L382.019 173.974L411.669 210.03L359.358 243.484L359.623 243.911L359.38 243.594L338.576 225.15L322.624 226.528C321.746 226.602 321.238 227.59 321.717 228.334C322.181 229.057 322.911 229.794 324.039 230C326.464 230.457 335.252 230.605 335.252 230.605L339.372 234.696L328.89 233.642L315.561 241.515C315.561 241.515 315.259 243.941 318.746 243.336C322.233 242.732 328.897 240.004 328.897 240.004L336.645 240.461L328.182 241.67L317.227 249.396C317.227 249.396 319.498 251.969 322.985 250.907C326.472 249.846 330.71 248.179 330.71 248.179L340.257 247.273L330.71 249.698L323.589 258.485C323.589 258.485 325.808 260.151 328.182 258.485C330.556 256.819 332.222 255.301 332.222 255.301L342.83 254.844C342.83 254.844 354.345 263.506 358.458 264.169C363.921 265.046 369.03 263.336 371.131 262.488L371.234 262.65C371.234 262.65 433.821 230.118 437.234 227.066C440.64 224.014 447.378 218.353 446.361 205.474" fill="white"/>
<path d="M371.215 262.613C385.679 254.873 406.246 244.213 420.437 236.443C424.514 234.224 428.598 231.998 432.623 229.683C436.729 227.552 440.319 224.471 442.818 220.564C445.863 215.735 446.917 209.594 445.826 203.999C444.809 200.689 442.973 197.689 441.182 194.747C436.228 186.904 430.544 179.532 424.823 172.226C416.169 161.309 407.16 150.671 397.887 140.269C396.338 138.537 394.783 136.812 393.205 135.109C391.185 133.074 389.424 130.671 387.028 129.093C380.622 125.96 382.089 148.555 382.295 151.932C382.236 158.205 382.162 167.575 382.162 173.966C381.963 173.487 411.937 209.948 411.923 209.808L412.158 210.096L411.849 210.295C404.764 214.821 370.876 236.399 364.595 240.438L359.877 243.461C359.619 243.66 359.162 243.675 358.897 243.431C356.56 241.352 341.064 227.722 338.388 225.348L338.602 225.422L322.258 226.837C320.836 227.294 322.457 228.968 323.165 229.358C324.293 229.956 325.782 229.852 327.057 229.992C329.822 230.162 332.594 230.243 335.366 230.295L335.447 230.376L339.568 234.467L340.157 235.049L339.332 234.968L328.849 233.914L329.026 233.877L315.697 241.751L315.845 241.529C315.749 242.79 317.017 243.247 318.13 243.085C321.831 242.517 325.384 240.932 328.9 239.672C331.009 239.812 337.526 240.188 339.494 240.313C337.503 240.601 330.301 241.603 328.215 241.905L328.333 241.861L317.363 249.565L317.408 249.211C319.059 250.965 321.654 251.312 323.836 250.383C326.143 249.653 328.421 248.798 330.692 247.95L340.238 247.058L340.305 247.427L330.758 249.83L330.847 249.771L323.711 258.544L323.688 258.345C325.03 259.281 326.91 259.303 328.222 258.278C329.615 257.327 330.935 256.199 332.233 255.153L342.841 254.718C344.986 256.185 347.124 257.733 349.321 259.148C351.503 260.556 353.699 261.95 356.022 263.114C357.179 263.682 358.381 264.235 359.678 264.309C363.57 264.53 367.441 263.586 371.186 262.62C367.64 263.741 363.519 264.581 359.671 264.419C358.351 264.353 357.127 263.793 355.963 263.232C353.633 262.075 351.422 260.689 349.232 259.288C347.05 257.873 344.897 256.413 342.782 254.902C343.077 254.983 332.188 255.352 332.24 255.396C331.392 256.258 329.601 257.6 328.37 258.492C326.947 259.613 324.839 259.576 323.394 258.492L323.489 258.374L330.589 249.572L330.625 249.528L330.677 249.513L340.216 247.066L340.283 247.434L330.743 248.363C328.215 249.314 325.067 250.612 322.207 251.29C320.238 251.629 318.204 250.803 316.869 249.336L317.098 249.174L328.038 241.426L328.09 241.389H328.156L336.611 240.151L336.634 240.718L328.878 240.284L329.011 240.261C326.674 241.198 324.322 242.075 321.912 242.819C319.811 243.453 315.122 245.024 315.277 241.316L315.41 241.235L328.746 233.361L328.827 233.31H328.923L339.405 234.379L339.169 234.88L335.049 230.789L335.248 230.87C332.505 230.811 329.77 230.73 327.028 230.56C324.942 230.435 322.443 230.435 321.366 228.282C320.836 227.552 321.212 226.38 322.17 226.255L338.558 224.839H338.676L338.764 224.913C341.057 226.955 356.818 240.836 358.727 242.532L359.243 242.989C359.332 243.055 359.442 243.07 359.56 242.989L364.285 239.967L373.736 233.929L411.495 209.734L411.421 210.221C411.384 210.133 381.845 174.069 381.882 173.959L381.993 162.938C382.044 159.267 382.044 155.588 382.052 151.917C381.72 147.339 381.595 142.613 381.897 137.977C382.184 135.116 382.324 132.013 383.924 129.499C385.17 127.663 387.256 128.393 388.642 129.808C390.338 131.416 391.908 133.126 393.5 134.821C398.233 139.937 402.848 145.171 407.404 150.442C419.442 164.596 431.569 178.78 441.602 194.46C443.636 197.947 446.069 201.515 446.593 205.606C447.617 216.148 442.184 225.274 432.815 230C412.549 241.271 391.768 252.115 371.208 262.584" fill="black"/>
<path d="M392.104 187.588C392.576 186.946 393.04 186.334 393.475 185.752C398.672 178.793 404.29 172.276 410.792 166.519C413.165 164.418 415.583 162.354 417.972 160.267C405.845 143.769 394.028 129.062 391.632 127.005C383.169 119.729 355.414 117.26 355.414 117.26L379.749 174.134L392.104 187.595V187.588Z" fill="#242C4F"/>
<path d="M345.125 43.5865C350.441 45.2378 349.202 85.4883 345.951 109.558C345.693 111.459 345.413 113.435 345.966 115.271C346.519 117.114 345.811 125.975 351.303 125.289C353.419 125.024 373.271 112.934 373.758 107.309C373.957 105.002 374.215 102.709 374.082 100.387C373.323 87.464 374.421 75.6247 373.662 62.6945C373.249 55.6469 372.829 48.5626 371.244 41.6846C369.652 34.8066 362.022 22.1417 357.296 16.8929C348.996 7.6707 333.257 1.0655 322.907 10.1624C322.907 10.1624 316.891 14.7477 318.343 18.8612C320.769 25.7171 334.864 40.3871 345.118 43.5792" fill="black"/>
<path d="M383.956 168.445C381.486 182.666 378.102 196.702 373.805 210.472C376.267 196.252 379.658 182.223 383.956 168.445Z" fill="black"/>
<path d="M431.597 214.43C425.294 211.548 418.453 209.97 411.523 210.177V209.557C414.988 209.432 418.593 209.395 421.969 210.331C425.338 211.312 428.582 212.69 431.59 214.43" fill="black"/>
<g style="mix-blend-mode:multiply" opacity="0.32">
<mask id="mask1_5018_8199" style="mask-type:luminance" maskUnits="userSpaceOnUse" x="279" y="190" width="88" height="13">
<path d="M366.227 190.26H279.188V202.195H366.227V190.26Z" fill="white"/>
</mask>
<g mask="url(#mask1_5018_8199)">
<path d="M279.188 190.26C283.589 193.695 288.697 196.084 294.226 196.467C299.814 196.762 305.203 195.442 310.894 195.206C314.727 195.022 318.553 195.096 322.446 195.7C326.227 196.283 329.648 197.934 333.334 198.583C344.274 200.573 355.442 199.246 366.227 196.246C356.039 201.214 344.141 203.308 332.803 201.627C329.051 201.119 325.564 199.482 321.908 198.914C318.347 198.339 314.639 198.221 311.012 198.28C305.468 198.302 299.652 199.408 293.99 198.583C288.27 197.691 282.925 194.55 279.188 190.26Z" fill="#242C4F"/>
</g>
</g>
<path d="M84.7128 333L555.246 333.958C556.219 333.958 557 334.747 557 335.72C557 336.686 556.219 337.475 555.246 337.475L84.7128 338.426C83.2164 338.426 82 337.217 82 335.72C82 334.216 83.2164 333 84.7128 333.007" fill="black"/>
</svg>
