<svg width="640" height="360" viewBox="0 0 640 360" fill="none" 
xmlns="http://www.w3.org/2000/svg" 
xmlns:xlink="http://www.w3.org/1999/xlink">
<defs>
<ref id="colorOne" param="c1" default="#242C4F" />
<ref id="colorTwo" param="c2" default="#9296A7"/>
</defs>
<path d="M428.865 130.227C429.737 124.113 436.718 125.86 436.718 125.86L462 124.5C462 124.5 456.647 137.962 464.5 151.5C472.353 165.038 475 169.094 475 169.094C468.462 171.569 459.21 176.605 458.513 176.955C457.815 177.304 437.59 183.797 427.564 186.999L411 168.221L416.66 147.695C431.478 147.695 427.993 136.341 428.865 130.227Z" fill="white"/>
<path d="M299.262 111.919C299.218 108.1 298.25 97.7766 298.25 97.7766C307.547 91.6731 329.11 73.8912 338.31 67.7207L340.118 104.237C334.566 112.321 329.013 120.404 323.468 128.488" fill="white"/>
<path d="M299.262 111.919C299.218 108.1 298.25 97.7766 298.25 97.7766C307.547 91.6731 329.11 73.8912 338.31 67.7207L340.118 104.237C334.566 112.321 329.013 120.404 323.468 128.488" stroke="black" stroke-width="1.21" stroke-miterlimit="10"/>
<path d="M303.373 99.4793C295.267 99.4793 287.035 89.0661 283.872 84.5927C283.023 83.3944 282.361 82.1216 281.884 80.7967C277.79 69.3713 277.225 56.4125 280.343 45.2402L280.358 45.1806V45.1136C280.314 40.804 281.944 36.7325 284.958 33.6584C287.973 30.5769 292.007 28.8576 296.317 28.8129L321.602 28.5449C330.4 28.5449 337.634 35.7053 337.731 44.5033L337.865 57.142L338.624 56.3902C339.361 55.6533 340.321 55.2514 341.326 55.2514C345.36 55.2588 347.556 57.7002 347.846 62.5086C348.018 65.3891 347.385 67.6221 345.948 69.148C344.036 71.18 341.185 71.4851 339.659 71.4851C339.264 71.4851 338.877 71.4628 338.528 71.4256H338.468L335.267 71.9541V72.3411C335.305 75.2217 332.744 79.4197 328.062 84.1759C320.068 92.304 308.553 99.4569 303.433 99.4867H303.38L303.373 99.4793Z" fill="white"/>
<path d="M321.598 28.084V28.9846C330.15 28.9846 337.177 35.9441 337.273 44.4964L337.4 56.0632L337.422 58.1994L338.933 56.6959C339.588 56.0483 340.437 55.6836 341.33 55.6836C345.074 55.6911 347.121 57.991 347.396 62.5165C347.56 65.2706 346.964 67.3919 345.617 68.821C343.816 70.7339 341.107 71.0167 339.655 71.0167C339.179 71.0167 338.807 70.987 338.576 70.9572L338.449 70.9423L338.323 70.9647L335.561 71.4261L334.802 71.5527V72.3268C334.839 75.0808 332.324 79.1746 327.731 83.8415C319.945 91.7537 308.356 98.9885 303.421 99.0183H303.369C295.479 99.0183 287.359 88.7392 284.24 84.3253C283.414 83.1642 282.766 81.9211 282.305 80.6335C280.384 75.2669 276.38 61.0874 280.779 45.3524L280.816 45.2258V45.0993C280.719 36.4502 287.679 29.3419 296.328 29.2526L321.434 28.9846H321.605V28.084H321.598ZM321.598 28.084C321.538 28.084 321.479 28.084 321.412 28.084L296.306 28.352C287.15 28.4487 279.804 35.9515 279.901 45.1142C276.343 57.8645 277.943 71.173 281.449 80.9461C281.947 82.3379 282.64 83.648 283.496 84.8538C286.622 89.2751 295.018 99.9338 303.362 99.9338H303.414C311.944 99.8892 335.8 81.4894 335.703 72.3268L338.464 71.8653C338.784 71.9025 339.186 71.9248 339.648 71.9248C342.878 71.9248 348.781 70.5999 348.289 62.4719C347.91 56.1972 344.382 54.7979 341.33 54.7904H341.322C340.139 54.7904 339.082 55.2891 338.3 56.0632L338.174 44.4964C338.077 35.4007 330.671 28.0914 321.598 28.0914" fill="black"/>
<path d="M340.259 66.9819C340.304 66.9447 340.46 67.1084 340.795 67.2349C341.123 67.3615 341.681 67.4285 342.246 67.1754C343.393 66.6767 344.271 64.7489 344.204 62.7392C344.174 61.7269 343.899 60.7742 343.489 60.0001C343.102 59.2037 342.537 58.6677 341.941 58.6007C341.346 58.4965 340.944 58.8836 340.832 59.2036C340.706 59.5237 340.788 59.7396 340.728 59.7619C340.698 59.7917 340.475 59.5907 340.542 59.1218C340.572 58.8985 340.691 58.6305 340.936 58.3998C341.19 58.169 341.577 58.0351 341.993 58.05C342.857 58.05 343.676 58.8017 344.122 59.6502C344.621 60.5062 344.948 61.5706 344.986 62.7094C345.053 64.9573 344.033 67.1233 342.447 67.689C341.681 67.942 341.011 67.7411 340.654 67.5029C340.289 67.2498 340.222 67.0042 340.259 66.9819Z" fill="black"/>
<path d="M279.682 47.6071C280.054 48.2175 283.158 47.5848 286.879 47.5401C290.601 47.4359 293.66 47.9346 294.085 47.3094C294.278 47.0117 293.697 46.4609 292.432 45.9696C291.174 45.4709 289.217 45.0839 286.984 45.1285C284.751 45.1732 282.756 45.6495 281.453 46.2003C280.143 46.7511 279.518 47.3243 279.682 47.6146" fill="black"/>
<path d="M305.352 55.3418C309.438 55.8777 313.889 56.0564 318.005 55.8703C314.008 57.5152 309.2 57.3068 305.352 55.3418Z" fill="black"/>
<path d="M280.586 55.3418C284.672 55.8777 289.123 56.0564 293.239 55.8703C289.242 57.5152 284.434 57.3068 280.586 55.3418Z" fill="black"/>
<path d="M305.8 47.7873C306.127 48.42 309.268 48.018 312.983 48.2413C316.704 48.4051 319.711 49.1345 320.188 48.5391C320.396 48.2562 319.86 47.6682 318.632 47.0802C317.419 46.4922 315.491 45.9637 313.265 45.8446C311.04 45.733 309.008 46.053 307.676 46.5071C306.328 46.9611 305.658 47.4821 305.8 47.7873Z" fill="black"/>
<path d="M297.447 63.2461C295.646 65.092 293.316 68.9997 296.554 70.5479C297.455 70.8978 298.526 70.9945 299.554 71.1583C298.512 71.2848 297.455 71.4114 296.36 71.1136C295.237 70.8308 294.328 69.759 294.194 68.5829C293.956 66.2681 295.638 64.3626 297.447 63.2461Z" fill="black"/>
<path d="M341.835 21.2666L341.731 21.3113C337.481 19.7779 332.263 19.8152 328.817 22.5766C327.879 16.7039 322.259 12.1039 316.044 10.6674C309.829 9.23085 299.9 10.2357 293.982 12.5133C289.948 14.069 273.759 28.9853 271.221 31.2852C271.243 31.2927 271.265 31.3076 271.288 31.315C271.221 31.3448 271.154 31.3746 271.087 31.4043C269.084 33.2205 267.015 34.9994 265.117 36.89C265.958 39.391 266.985 41.8547 267.961 44.3184C269.151 46.4472 273.625 54.7167 273.975 55.26V55.2228L278.374 64.4748C278.575 59.8227 279.051 52.4613 279.684 47.4743C287.417 47.0798 292.895 43.3954 298.016 38.014C300.718 35.1706 302.832 31.6276 306.472 29.9082C311.169 27.6902 321.604 30.5856 321.604 30.5856C322.229 30.8461 322.84 31.1289 323.435 31.4416L323.867 53.883L333.699 66.1569C334.466 67.5414 334.957 60.0237 338.977 56.5105C340.22 55.4238 342.49 55.5056 345.512 57.0092C345.869 55.3196 348.065 42.6064 349.546 35.4311C350.432 31.1587 349.137 26.6481 345.929 23.6931C344.768 22.6287 343.413 21.7802 341.835 21.2741" fill="black"/>
<path d="M248.838 205.666L247.662 214.181C246.791 220.485 251.153 288.375 251.153 288.375L272.5 284.401L274.42 219.294L275.641 208.472L248.838 205.658V205.666Z" fill="white"/>
<path d="M248.838 205.666L247.662 214.181C246.791 220.485 251.153 288.375 251.153 288.375L272.5 284.401L274.42 219.294L275.641 208.472L248.838 205.658V205.666Z" stroke="black" stroke-width="1.46" stroke-miterlimit="10"/>
<path d="M272.238 289.016C272.238 289.016 279.51 296.31 280.954 298.99C282.398 301.669 285.584 310.951 288.516 313.936C288.516 313.936 287.363 317.218 284.341 315.067C281.319 312.916 277.902 308.696 276.815 306.388C275.721 304.081 274.099 305.115 273.756 306.946C273.414 308.777 273.228 321.468 273.228 321.468C273.228 321.468 275.163 335.886 273.89 337.293C272.617 338.699 270.496 338.029 269.908 336.913C269.476 336.109 266.737 323.902 266.737 323.902L266.499 317.441C266.499 317.441 265.933 337.724 264.445 339.109C262.956 340.493 261.676 339.697 260.917 338.774C260.157 337.851 260.492 328.904 260.492 328.904L260.113 316.838L257.307 339.339C257.307 339.339 256.771 341.431 255.088 341.275C253.406 341.118 252.64 338.498 252.64 338.498L253.503 315.03C253.503 315.03 252.454 327.996 251.501 328.547C250.221 329.284 249.208 328.837 248.963 327.795C248.471 325.681 248.985 313.958 248.985 313.958L251.047 291.792L251.419 281.021L272.208 282.592L272.238 289.008V289.016Z" fill="white"/>
<path d="M272.238 289.016C272.238 289.016 279.51 296.31 280.954 298.99C282.398 301.669 285.584 310.951 288.516 313.936C288.516 313.936 287.363 317.218 284.341 315.067C281.319 312.916 277.902 308.696 276.815 306.388C275.721 304.081 274.099 305.115 273.756 306.946C273.414 308.777 273.228 321.468 273.228 321.468C273.228 321.468 275.163 335.886 273.89 337.293C272.617 338.699 270.496 338.029 269.908 336.913C269.476 336.109 266.737 323.902 266.737 323.902L266.499 317.441C266.499 317.441 265.933 337.724 264.445 339.109C262.956 340.493 261.676 339.697 260.917 338.774C260.157 337.851 260.492 328.904 260.492 328.904L260.113 316.838L257.307 339.339C257.307 339.339 256.771 341.431 255.088 341.275C253.406 341.118 252.64 338.498 252.64 338.498L253.503 315.03C253.503 315.03 252.454 327.996 251.501 328.547C250.221 329.284 249.208 328.837 248.963 327.795C248.471 325.681 248.985 313.958 248.985 313.958L251.047 291.792L251.419 281.021L272.208 282.592L272.238 289.008V289.016Z" stroke="black" stroke-width="1.46" stroke-miterlimit="10"/>
<path d="M256.981 263.425C256.981 263.425 251.808 280.463 252.53 301.52C252.813 309.663 256.974 349.402 256.974 349.402H306.248V325.457L309.248 326.239C309.248 326.239 316.287 346.053 316.287 349.402H365.04L361.47 294.933L358.224 259.555L256.974 263.403L256.981 263.425Z" fill="black"/>
<path d="M303.052 275.06C303.052 275.06 303.298 274.881 303.819 274.866C304.333 274.851 305.114 275.037 305.858 275.618C306.573 276.191 307.325 277.203 307.295 278.543C307.295 279.898 306.186 281.185 304.794 281.617C303.41 282.093 301.75 281.714 300.953 280.62C300.142 279.555 300.142 278.297 300.38 277.412C300.641 276.504 301.154 275.886 301.579 275.596C302.003 275.298 302.301 275.261 302.315 275.298C302.412 275.402 301.251 275.878 300.916 277.538C300.767 278.32 300.857 279.377 301.512 280.166C302.137 280.97 303.395 281.252 304.548 280.873C305.695 280.501 306.543 279.526 306.573 278.506C306.633 277.486 306.082 276.585 305.494 276.035C304.243 274.888 303.023 275.194 303.045 275.052" fill="url(#colorOne)"/>
<path d="M279.722 113.742L270.359 115.782C263.556 117.263 258.018 122.354 256.276 129.098C256.254 129.202 256.224 129.299 256.202 129.403C249.681 156.243 242 216.675 242 216.675L275.867 223.039L282.238 155.871L279.722 113.742Z" fill="url(#colorTwo)"/>
<path d="M344.936 259.578C344.936 259.578 344.69 259.72 344.192 259.935C343.619 260.166 342.897 260.456 342.003 260.821C340.105 261.588 337.307 262.593 333.823 263.739C330.34 264.893 326.142 266.106 321.43 267.282C316.711 268.428 311.493 269.522 305.956 270.408C300.418 271.264 295.103 271.822 290.265 272.18C285.42 272.5 281.05 272.634 277.381 272.604C273.711 272.589 270.742 272.485 268.702 272.336C267.742 272.269 266.96 272.209 266.35 272.165C265.814 272.12 265.531 272.083 265.531 272.06C265.531 272.038 265.814 272.023 266.357 272.023C266.975 272.031 267.757 272.046 268.717 272.06C270.764 272.12 273.726 272.142 277.388 272.098C281.043 272.06 285.397 271.874 290.228 271.525C295.051 271.138 300.336 270.557 305.851 269.708C311.359 268.83 316.57 267.758 321.281 266.649C325.978 265.503 330.183 264.349 333.674 263.263C337.173 262.183 339.986 261.253 341.914 260.568C342.822 260.255 343.566 260.01 344.147 259.809C344.661 259.645 344.936 259.563 344.943 259.586" fill="black"/>
<path d="M267.613 116.875L299.671 105.814C299.671 105.814 299.515 113.972 311.312 114.225C324.896 114.523 338.153 101.236 338.153 101.236C338.153 101.236 364.532 111.367 370.464 116.153C376.396 120.931 357.036 220.842 357.036 220.842L350.963 252.26L351.439 271.672C315.987 281.602 286.258 289.581 253.195 279.019C253.195 279.019 254.014 261.468 255.927 256.682C257.84 251.895 257.483 251.456 257.483 251.456L260.624 196.518L261.189 155.2L267.605 116.875H267.613Z" fill="url(#colorTwo)"/>
<path d="M364.168 116.808C364.272 117.001 361.079 118.624 357.982 121.668C354.856 124.69 353.159 127.838 352.966 127.727C352.802 127.675 354.261 124.273 357.491 121.154C360.692 118.013 364.123 116.636 364.175 116.8" fill="black"/>
<path d="M297.438 106.455C297.438 105.934 298.383 102.667 298.383 102.667L305.402 112.418C306.191 113.519 307.776 113.653 308.751 112.715L315.994 105.674C318.361 105.153 321.07 104.356 323.95 103.143C329.905 100.627 335.785 96.0424 338.152 92.7227C339.842 96.1912 341.472 99.8235 343.839 103.612L320.236 116.809L310.887 120.784L302.045 119.169L297.445 106.463L297.438 106.455Z" fill="url(#colorTwo)"/>
<path d="M259.813 209.611C254.729 208.175 249.899 207.178 244.033 206.872C242.537 206.009 238.071 206.954 236.821 208.994C235.92 210.46 235.124 213.318 235.436 215.015C235.764 216.794 236.903 218.417 238.473 219.325C239.627 219.995 240.959 220.285 242.262 220.561C246.542 221.469 250.814 222.377 255.094 223.292C256.203 223.53 257.305 223.761 258.421 223.984C258.153 219.183 258.808 214.249 259.821 209.619" fill="url(#colorTwo)"/>
<path d="M260.514 145.511C260.514 145.511 260.544 145.846 260.536 146.479C260.514 147.186 260.491 148.109 260.462 149.255C260.372 151.749 260.246 155.21 260.097 159.453C259.784 168.064 259.405 179.959 259.152 193.096C258.906 206.241 258.839 218.143 258.832 226.762C258.824 231.005 258.817 234.473 258.809 236.967C258.794 238.113 258.787 239.036 258.779 239.743C258.765 240.376 258.742 240.711 258.72 240.711C258.698 240.711 258.668 240.376 258.631 239.743C258.601 239.036 258.571 238.113 258.526 236.967C258.445 234.555 258.37 231.072 258.311 226.762C258.191 218.143 258.177 206.234 258.415 193.081C258.668 179.929 259.129 168.035 259.576 159.423C259.799 155.121 260 151.637 260.171 149.233C260.261 148.094 260.328 147.171 260.38 146.464C260.439 145.831 260.477 145.504 260.506 145.504" fill="black"/>
<path d="M260.526 145.51C260.243 158.915 259.61 179.503 259.402 193.117C259.387 205.532 259.275 225.532 259.283 237.762C259.26 238.588 259.305 239.965 259.208 240.798C259.856 240.888 258.122 241.186 258.278 240.843C258.233 240.657 258.241 240.65 258.226 240.56C258.211 240.441 258.196 240.106 258.188 239.987C257.898 232.559 257.876 224.349 257.95 216.898C258.069 194.814 258.814 167.415 260.526 145.517M260.526 145.51C258.866 167.4 258.576 194.821 258.762 216.891C258.724 224.066 258.799 232.038 259.097 239.191C259.111 239.511 259.149 240.233 259.178 240.553C259.342 240.255 257.645 240.516 258.293 240.575C258.345 239.883 258.345 238.513 258.36 237.754C258.36 207.579 259.543 175.61 260.533 145.51" fill="black"/>
<path d="M294.943 282.748C294.943 282.748 293.923 280.663 292.754 276.652C291.63 272.64 290.484 266.64 290.365 259.167C290.171 251.694 290.968 242.814 292.166 233.041C293.35 223.254 294.652 212.513 296.014 201.229C298.806 178.683 301.329 158.274 303.167 143.447C304.113 136.093 304.879 130.131 305.415 125.948C305.691 123.923 305.906 122.33 306.063 121.191C306.137 120.685 306.204 120.276 306.249 119.956C306.293 119.68 306.323 119.539 306.338 119.539C306.353 119.539 306.346 119.688 306.323 119.963C306.293 120.283 306.256 120.693 306.212 121.206C306.092 122.345 305.921 123.945 305.698 125.977C305.214 130.168 304.529 136.145 303.681 143.506C301.902 158.341 299.453 178.758 296.744 201.318C295.359 212.595 294.042 223.343 292.836 233.123C291.6 242.889 290.752 251.724 290.878 259.16C290.931 266.596 291.995 272.565 293.022 276.585C293.58 278.587 294.034 280.135 294.429 281.162C294.593 281.646 294.727 282.04 294.831 282.346C294.913 282.614 294.957 282.755 294.943 282.755" fill="black"/>
<path d="M322.695 234.791C322.71 234.836 321.981 235.148 320.648 235.677C319.189 236.228 317.284 236.957 314.984 237.828C310.19 239.614 303.551 242.033 296.205 244.661C287.421 247.802 279.613 250.533 274.805 252.156L274.656 251.747C276.018 251.27 277.15 250.868 278.073 250.548L278.184 250.787C277.031 251.375 276.42 251.657 276.398 251.62C276.376 251.576 276.941 251.218 278.058 250.556L278.169 250.794C277.261 251.166 276.152 251.613 274.813 252.156L274.664 251.747C279.413 249.953 287.183 247.11 295.966 243.969C303.313 241.341 309.982 238.996 314.813 237.337C317.142 236.555 319.078 235.907 320.559 235.409C321.921 234.97 322.68 234.746 322.695 234.798" fill="black"/>
<path d="M388.84 218.639L362.893 218.059C360.891 224.4 356.618 235.915 352.495 246.016C350.433 250.422 346.093 259.488 343.704 262.242C340.31 266.15 333.931 266.462 331.065 268.918C328.2 271.375 329.606 270.563 327.374 273.414C325.141 276.257 317.422 282.532 317.422 282.532C317.608 287.11 321.717 285.413 324.069 284.855C327.783 282.562 330.291 279.964 331.415 277.902C333.09 280.307 336.707 284.78 342.93 287.772C346.622 289.544 349.979 291.293 352.398 291.561C352.398 291.561 356.291 281.17 356.804 277.798C356.938 276.92 357.601 275.454 358.501 273.757C365.081 263.12 386.22 230.288 388.364 223.857C388.84 222.435 389.309 220.545 388.84 218.647" fill="white"/>
<path d="M388.845 218.639L362.89 218.297L363.121 218.133C361.074 224.676 358.685 231.092 356.266 237.5C355.625 239.153 354.1 243.105 353.467 244.683C351.852 248.658 349.887 252.484 347.929 256.302C344.944 262.004 343.292 264.668 336.913 266.745C334.114 267.683 331.375 268.725 329.544 271.084C326.716 275.945 321.915 279.302 317.754 282.941L317.948 282.517C317.992 286.604 322.056 284.691 323.783 284.4C326.79 282.502 329.745 280.113 331.36 276.905L331.844 277.597C334.829 281.914 338.952 285.398 343.731 287.594L346.604 288.978C348.517 289.856 350.467 290.794 352.447 291.062L351.941 291.375C353.727 286.551 355.491 281.698 356.63 276.689C357.241 275.029 358.082 273.496 359.042 272.045C365.503 261.817 374.777 247.4 380.955 237.188C382.734 234.255 384.49 231.308 386.143 228.3C387.721 225.345 389.596 222.093 388.837 218.632M388.845 218.639C389.678 222.093 387.855 225.427 386.329 228.405C384.729 231.449 383.024 234.426 381.297 237.396C375.365 247.683 366.113 262.257 359.794 272.521C358.886 273.943 358.074 275.439 357.501 277.009C356.392 282.041 354.621 286.901 352.856 291.732L352.723 292.097L352.35 292.045C349.105 291.568 346.187 289.812 343.299 288.509C338.372 286.269 334.07 282.659 330.981 278.215L331.881 278.163C330.088 281.274 327.259 283.5 324.282 285.368C321.096 286.298 317.077 287.288 316.906 282.562L316.891 282.301L317.099 282.13C321.238 278.528 325.927 275.305 328.748 270.504C330.676 267.981 333.727 266.767 336.593 265.837C342.793 263.842 344.2 261.341 347.133 255.87C349.113 252.104 351.1 248.315 352.745 244.385C353.4 242.807 354.963 238.862 355.603 237.247C358.097 230.883 360.508 224.475 362.667 217.992L362.726 217.82H362.897L388.845 218.639Z" fill="black"/>
<path d="M307.26 117.858C307.215 117.813 307.952 116.942 309.292 115.453C310.751 113.868 312.664 111.791 314.919 109.335L315.254 108.97L315.432 109.439C316.117 111.181 316.862 113.079 317.651 115.089C318.045 116.086 318.439 117.18 318.871 118.17C319.095 118.647 319.422 119.056 319.817 119.101C320.204 119.168 320.665 118.862 321.104 118.49C326.3 114.218 331.034 110.377 334.48 107.623C336.125 106.328 337.502 105.249 338.588 104.393C339.571 103.641 340.129 103.246 340.159 103.284C340.189 103.321 339.697 103.79 338.774 104.609C337.732 105.509 336.4 106.648 334.815 108.018C331.45 110.868 326.769 114.776 321.573 119.048C321.119 119.406 320.539 119.912 319.712 119.815C318.894 119.681 318.477 118.996 318.216 118.475C317.747 117.366 317.39 116.354 316.996 115.327C316.236 113.31 315.514 111.404 314.859 109.648L315.373 109.752C313.036 112.134 311.063 114.151 309.552 115.692C308.138 117.106 307.304 117.895 307.26 117.843" fill="black"/>
<path d="M307.258 115.149C307.176 115.208 306.171 113.958 304.63 111.911C304.541 111.792 304.466 111.77 304.474 111.785C304.474 111.777 304.392 111.852 304.347 111.993C304.236 112.328 304.116 112.67 303.997 113.02C303.752 113.757 303.484 114.524 303.216 115.32C302.643 116.965 302.025 118.729 301.37 120.59L300.953 121.773L300.663 120.545C300.633 120.434 300.603 120.307 300.581 120.188C299.658 116.243 298.854 112.663 298.311 110.065C297.767 107.467 297.484 105.845 297.581 105.822C297.678 105.8 298.147 107.378 298.817 109.946C299.487 112.514 300.365 116.072 301.295 120.017C301.325 120.136 301.355 120.262 301.377 120.374L300.67 120.337C301.34 118.483 301.98 116.727 302.568 115.089C302.866 114.3 303.149 113.541 303.417 112.812C303.551 112.454 303.685 112.105 303.811 111.77C303.901 111.598 304.012 111.331 304.362 111.249C304.727 111.197 304.928 111.457 305.025 111.584C306.483 113.735 307.324 115.074 307.25 115.134" fill="black"/>
<path d="M370.351 115.908C370.351 115.908 381.099 123.605 383.586 136.027C386.072 148.45 391.52 220.412 391.52 220.412L356.976 219.176C356.976 219.176 350.031 159.652 350.031 158.298C350.031 156.943 357.504 127.349 357.958 126.671C358.412 125.994 370.359 115.908 370.359 115.908" fill="url(#colorTwo)"/>
<path d="M350.154 155C350.355 154.978 351.62 166.083 352.975 179.794C354.33 193.511 355.268 204.639 355.059 204.661C354.858 204.684 353.593 193.578 352.238 179.868C350.883 166.157 349.946 155.022 350.154 155Z" fill="black"/>
<path d="M391.509 220.413C391.509 220.413 391.219 220.465 390.66 220.495C390.11 220.524 389.291 220.547 388.234 220.554C386.127 220.569 383.076 220.502 379.317 220.353C375.558 220.212 371.077 219.966 366.112 219.914C364.869 219.892 363.611 219.944 362.279 219.899C360.962 219.84 359.54 219.653 358.282 218.909C357.024 218.187 356.101 216.959 355.513 215.649C354.91 214.324 354.59 212.91 354.33 211.481C354.062 210.074 353.92 208.578 354.047 207.156C354.106 206.442 354.226 205.72 354.486 205.02C354.62 204.67 354.799 204.328 355.074 204.03C355.342 203.717 355.744 203.509 356.094 203.405C356.831 203.189 357.515 203.211 358.17 203.159C358.833 203.122 359.495 203.092 360.143 203.055C361.445 203.01 362.726 202.966 363.969 202.921C368.956 202.802 373.437 202.847 377.203 202.884C380.895 202.951 383.917 202.995 386.112 203.033C387.102 203.062 387.906 203.077 388.539 203.1C389.09 203.122 389.387 203.144 389.387 203.167C389.387 203.189 389.097 203.219 388.539 203.241C387.906 203.263 387.102 203.286 386.112 203.315C383.909 203.338 380.887 203.368 377.195 203.397C373.429 203.42 368.948 203.427 363.984 203.591C362.741 203.643 361.468 203.695 360.173 203.747C359.525 203.784 358.87 203.822 358.208 203.859C357.545 203.904 356.86 203.911 356.295 204.082C355.163 204.372 354.881 205.913 354.761 207.201C354.65 208.57 354.769 209.933 355.044 211.339C355.297 212.731 355.61 214.101 356.176 215.329C356.726 216.55 357.545 217.636 358.647 218.276C360.895 219.564 363.656 219.103 366.12 219.222C371.107 219.318 375.58 219.616 379.339 219.825C383.098 220.04 386.135 220.189 388.241 220.256C389.231 220.286 390.028 220.316 390.66 220.331C391.211 220.353 391.509 220.375 391.509 220.398" fill="black"/>
<path d="M390.989 215.27C389.337 199.899 387.521 178.768 385.891 163.666C384.938 155.091 384.208 146.442 382.869 137.986C381.559 129.642 376.259 122.274 369.709 117.153L370.863 117.108L370.766 117.19L370.2 117.666L369.59 117.22C365.734 114.488 361.134 112.486 356.81 110.469C352.366 108.459 347.863 106.553 343.33 104.715L343.069 104.611L342.928 104.38C340.769 100.897 339.065 97.1749 337.338 93.5574L338.715 93.6765C335.924 97.2716 332.262 99.8396 328.406 102.095C324.558 104.283 320.338 105.772 316.021 106.687L316.281 106.546L311.592 111.019L309.232 113.237C308.816 113.677 308.272 114.056 307.669 114.16C306.731 114.354 305.719 113.989 305.139 113.237C304.722 112.716 304.126 111.749 303.732 111.228C302.511 109.493 299.43 105.028 298.179 103.249L298.447 103.204L297.881 105.072C297.733 105.616 297.487 106.405 297.42 106.948C297.405 106.873 297.457 107.045 297.457 107.045L297.479 107.104L297.42 107.119L294.859 107.938L297.383 107L297.345 107.074L297.301 106.963V106.948V106.94C297.412 105.817 297.911 104.216 298.164 103.107L298.239 102.809L298.432 103.063C300.248 105.504 303.434 109.761 305.213 112.151C306.039 113.565 307.535 113.93 308.652 112.627L310.937 110.327L315.537 105.764L315.641 105.66L315.797 105.623C319.98 104.64 324.052 103.122 327.736 100.919C331.726 98.5072 335.611 95.515 338.202 91.6445L338.79 92.8503C340.561 96.4901 342.251 100.122 344.372 103.487L343.97 103.152C350.803 105.898 357.621 108.712 364.238 111.972C366.449 113.089 368.637 114.205 370.743 115.731L369.56 115.761L369.657 115.679L370.23 115.195C372.254 116.669 374.071 118.344 375.716 120.152C384.737 129.948 384.804 138.195 386.166 150.632C388.258 172.114 389.776 193.751 390.997 215.292" fill="black"/>
<path d="M402.45 215.453C402.837 215.646 403.18 215.817 403.477 215.974L382.696 291.761C382.859 292.513 383.031 293.272 383.224 294.031C385.078 301.311 386.603 298.08 387.534 305.732C388.472 313.391 387.132 330.012 387.132 330.012C380.805 331.091 382.338 321.616 382.19 320.715C382.041 319.815 380.388 309.662 380.388 309.662L377.724 325.955L382.472 331.895C382.472 331.895 388.1 334.552 387.958 336.547C387.817 338.542 382.472 337.917 382.472 337.917C382.472 337.917 382.562 339.71 380.827 339.8C379.093 339.889 368.688 328.613 368.688 328.613L368.71 302.144L369.819 286.513C369.841 286.141 375.506 232.006 377.999 225.211C379.48 221.176 380.135 212.222 380.277 205.441" fill="white"/>
<path d="M402.48 215.401L403.507 215.915L403.552 215.937L403.537 215.989C397.21 240.232 389.804 267.809 383.113 291.873L383.046 292.127L382.793 292.186L383.12 291.665C383.492 293.243 383.812 294.843 384.363 296.347C384.854 297.969 385.874 299.101 386.678 300.597C388.003 303.731 388.01 307.088 388.137 310.392C388.219 316.95 387.802 323.485 387.318 330.02V330.169L387.162 330.191C381.989 331.137 381.751 324.922 382.026 321.326C382.078 320.917 381.959 320.292 381.892 319.89C381.743 319.004 381.319 316.444 381.17 315.513L380.202 309.678H380.575L377.992 325.979L377.932 325.763L382.718 331.673L382.607 331.583C383.641 332.082 384.639 332.633 385.599 333.265C386.656 334.062 388.502 335.126 388.271 336.771C387.661 338.751 384.036 338.364 382.428 338.282L382.867 337.873C382.867 338.372 382.778 338.826 382.51 339.265C382.1 339.935 381.244 340.314 380.485 340.136C378.394 339.168 376.831 337.359 375.148 335.863C372.804 333.623 370.556 331.293 368.345 328.919L368.219 328.785V328.599C368.219 328.599 368.219 302.115 368.219 302.093L369.075 289.938C370.876 269.707 373.392 249.484 376.726 229.447C377.009 227.958 377.359 226.417 377.806 224.966C379.629 218.662 379.689 211.948 379.711 205.42L380.857 205.442C380.441 211.546 380.158 217.686 378.758 223.663C378.155 225.606 377.612 227.541 377.262 229.551C374.813 243.343 372.93 263.768 371.263 277.902C370.906 281.431 370.258 286.522 370.087 290.013L369.216 302.167C369.194 301.996 369.194 328.643 369.171 328.606L369.045 328.278C371.241 330.638 373.481 332.968 375.774 335.231C377.352 336.682 378.833 338.364 380.723 339.354C381.55 339.466 382.115 338.707 382.086 337.925V337.463C383.247 337.597 388.249 338.096 387.489 336.027C386.425 334.181 384.028 333.146 382.227 332.082L377.508 326.12L377.434 326.023L377.456 325.904L380.202 309.626L380.396 308.502L380.575 309.626C381.006 312.29 381.788 317.218 382.22 319.845C382.294 320.225 382.413 320.962 382.354 321.349C382.294 324.08 381.952 327.631 384.378 329.432C385.174 329.931 386.172 329.983 387.11 329.819L386.953 329.99C387.415 323.478 387.72 316.927 387.534 310.407C387.37 307.251 387.288 303.827 386.008 300.932C385.234 299.577 384.073 298.185 383.589 296.63C382.934 294.925 382.592 293.176 382.175 291.427L382.599 291.323L382.279 291.635C388.799 267.541 396.511 239.994 403.418 215.945L403.448 216.019L402.435 215.483L402.48 215.386V215.401Z" fill="black"/>
<path d="M372.141 326.895C375.736 330.155 379.085 333.675 382.152 337.434C378.557 334.174 375.215 330.653 372.141 326.895Z" fill="black"/>
<path d="M489.529 215.961C490.028 216.608 520.188 202.191 520.188 202.191C520.858 201.908 513.385 173.825 503.314 156.928C498.699 149.187 493.526 148.525 486.291 146.136L472.566 142.451L471.003 163.188C470.534 169.403 464.966 170.602 458.751 170.133L422.391 166.977C420.947 166.865 418.699 170.289 417.463 169.694C415.759 168.875 414.851 166.984 415.26 165.146C417.441 155.462 419.041 148.294 419.041 148.294C419.041 148.294 399.599 140.687 389.603 157.472C379.54 174.375 372.082 202.459 372.744 202.742C372.744 202.742 389.469 210.728 398.215 214.539C400.239 223.739 402.614 235.291 402.874 245.994C402.971 250.163 403.269 245.801 401.326 257.07C404.14 257.896 411.092 261.253 423.984 262.861C453.489 266.545 491.948 252.835 491.948 252.835C488.345 239.251 489.417 248.868 487.192 230.297C486.834 227.312 487.728 221.648 489.179 214.8C489.358 215.499 489.477 215.909 489.514 215.953" fill="url(#colorOne)"/>
<path d="M395.898 169.017C395.958 169.017 395.98 169.799 395.972 171.198C395.958 172.761 395.943 174.756 395.92 177.138C395.883 182.147 395.883 189.069 396.367 196.691C396.851 204.313 397.826 211.168 398.779 216.074C399.248 218.53 399.672 220.517 399.984 221.879C400.29 223.249 400.438 224.008 400.379 224.023C400.327 224.038 400.074 223.301 399.672 221.954C399.255 220.614 398.749 218.641 398.205 216.185C397.104 211.28 396.032 204.395 395.541 196.736C395.057 189.077 395.154 182.132 395.34 177.115C395.437 174.607 395.548 172.583 395.66 171.183C395.764 169.784 395.853 169.01 395.905 169.01" fill="black"/>
<path d="M495.495 188.025C493.247 200.992 490.173 213.772 486.25 226.336C488.49 213.362 491.579 200.59 495.495 188.025Z" fill="black"/>
<g style="mix-blend-mode:multiply" opacity="0.32">
<mask id="mask0_5988_6899" style="mask-type:luminance" maskUnits="userSpaceOnUse" x="400" y="207" width="80" height="12">
<path d="M479.346 207.922H400.016V218.789H479.346V207.922Z" fill="white"/>
</mask>
<g mask="url(#mask0_5988_6899)">
<path d="M400.016 207.922C410.615 216.035 416.986 213.288 428.91 212.417C432.439 212.246 435.922 212.343 439.443 212.864C442.889 213.407 446.008 214.911 449.365 215.491C459.338 217.3 469.521 216.094 479.346 213.355C470.042 217.888 459.242 219.794 448.881 218.268C445.464 217.791 442.286 216.295 438.951 215.797C435.736 215.253 432.349 215.164 429.022 215.223C423.968 215.246 418.668 216.251 413.51 215.499C408.3 214.687 403.425 211.822 400.016 207.914" fill="url(#colorOne)"/>
</g>
</g>
<path d="M497.735 70.0052C497.735 88.0476 473.21 102.681 442.945 102.681C412.681 102.681 388.148 88.0625 388.141 70.0275C388.141 51.985 412.666 37.3516 442.931 37.3516C473.195 37.3516 497.728 51.9627 497.735 70.0052Z" fill="url(#colorOne)"/>
<path d="M426.124 153.176C425.626 151.382 424.226 149.901 424.048 148.04C423.906 146.596 424.532 145.189 424.755 143.745C425.231 140.716 423.542 136.719 423.839 133.756C424.152 130.66 424.509 125.517 424.509 125.517C420.482 124.653 413.65 128.219 413.404 132.461C410.412 133.533 408.075 136.406 407.583 139.629C407.092 142.852 408.462 146.276 411.007 148.181C410.248 152.089 409.489 156.205 410.695 159.972C411.9 163.738 415.801 166.864 419.493 165.666C422.016 164.847 423.653 162.353 424.844 159.919C425.871 157.82 426.735 155.424 426.11 153.183" fill="black"/>
<path d="M421.259 132.803C421.222 132.9 419.458 131.887 417.047 131.873C414.628 131.813 412.811 132.766 412.782 132.669C412.767 132.639 413.191 132.356 413.95 132.074C414.709 131.791 415.818 131.538 417.054 131.56C418.29 131.582 419.384 131.865 420.121 132.178C420.865 132.483 421.274 132.781 421.259 132.81" fill="url(#colorOne)"/>
<path d="M421.214 150.476C421.214 150.476 421.087 150.565 420.842 150.677C420.596 150.796 420.224 150.922 419.755 151.041C418.817 151.287 417.455 151.421 415.996 151.168C414.537 150.907 413.302 150.319 412.505 149.768C412.103 149.493 411.798 149.247 411.605 149.054C411.411 148.868 411.307 148.756 411.322 148.734C411.359 148.689 411.806 149.091 412.617 149.575C413.428 150.066 414.634 150.602 416.048 150.855C417.462 151.101 418.78 151.012 419.71 150.825C420.641 150.647 421.199 150.423 421.214 150.476Z" fill="url(#colorOne)"/>
<path d="M423.355 147.937C423.303 147.967 422.871 146.962 421.963 145.473C421.516 144.722 420.921 143.873 420.221 142.965C419.507 142.072 418.666 141.134 417.705 140.226C416.738 139.333 415.748 138.559 414.817 137.911C413.88 137.278 412.994 136.75 412.227 136.363C410.701 135.574 409.689 135.231 409.711 135.172C409.711 135.15 409.972 135.224 410.433 135.38C410.664 135.455 410.939 135.551 411.259 135.693C411.572 135.827 411.944 135.968 412.324 136.169C413.105 136.534 414.013 137.048 414.974 137.673C415.926 138.32 416.931 139.094 417.914 140.003C418.881 140.918 419.73 141.878 420.444 142.794C421.144 143.717 421.725 144.595 422.149 145.369C422.38 145.749 422.551 146.106 422.707 146.419C422.871 146.731 422.99 147.007 423.087 147.237C423.28 147.691 423.377 147.945 423.355 147.952" fill="url(#colorOne)"/>
<path d="M421.022 130.318C420.941 130.363 420.412 129.358 419.437 128.398C418.469 127.43 417.479 126.917 417.517 126.835C417.539 126.76 418.633 127.162 419.645 128.175C420.665 129.179 421.089 130.289 421.022 130.318Z" fill="url(#colorOne)"/>
<path d="M423.467 152.625C423.489 152.677 422.708 153.034 421.517 153.726C420.319 154.419 418.726 155.475 417.133 156.875C415.54 158.282 414.275 159.74 413.426 160.85C412.578 161.959 412.109 162.695 412.064 162.666C412.049 162.658 412.146 162.457 412.347 162.115C412.54 161.772 412.853 161.289 413.262 160.716C414.074 159.562 415.339 158.058 416.947 156.637C418.562 155.222 420.192 154.173 421.428 153.525C422.045 153.198 422.552 152.96 422.909 152.818C423.266 152.669 423.467 152.602 423.475 152.617" fill="url(#colorOne)"/>
<path d="M415.831 140.441C416.895 138.573 418.175 137.099 419.203 136.161C419.716 135.692 420.148 135.335 420.468 135.112C420.781 134.888 420.959 134.769 420.974 134.792C421.004 134.836 420.319 135.35 419.344 136.318C418.369 137.285 417.133 138.752 416.084 140.59C415.042 142.429 414.409 144.26 414.074 145.607C413.732 146.954 413.642 147.817 413.583 147.81C413.561 147.81 413.568 147.594 413.605 147.2C413.635 146.805 413.717 146.239 413.866 145.555" fill="url(#colorOne)"/>
<path d="M420.657 162.04C420.605 162.055 420.449 161.467 420.084 160.559C419.727 159.651 419.131 158.445 418.268 157.247C417.405 156.056 416.452 155.118 415.715 154.508C414.978 153.89 414.479 153.563 414.509 153.518C414.524 153.488 415.067 153.749 415.849 154.329C416.63 154.91 417.628 155.84 418.514 157.061C419.392 158.282 419.972 159.54 420.285 160.477C420.605 161.415 420.687 162.033 420.657 162.04Z" fill="url(#colorOne)"/>
<path d="M425.499 168.584C424.576 166.828 423.221 165.064 421.301 164.773L415.012 166.5C413.024 168.867 412.458 172.388 413.597 175.254C414.215 176.809 415.265 178.127 416.232 179.474C417.2 180.821 418.115 182.28 418.398 183.94C418.674 185.6 418.167 187.513 416.79 188.436C418.383 187.922 419.812 186.865 420.802 185.481C420.899 186.828 420.527 188.205 419.775 189.321C423.653 188.242 426.586 184.558 427.472 180.516C428.357 176.474 427.412 172.194 425.507 168.584" fill="black"/>
<path d="M425.183 162.786C425.011 162.273 424.669 161.789 424.163 161.647C423.396 161.432 422.667 162.057 422.027 162.555C419.742 164.342 416.623 164.915 413.899 164.059L413.794 164.037C413.266 164.26 412.745 165.116 412.775 165.704C412.804 166.285 413.11 166.82 413.489 167.252C414.353 168.25 415.633 168.793 416.928 168.942C418.223 169.083 419.541 168.845 420.791 168.458C422.049 168.063 423.292 167.498 424.2 166.515C425.108 165.533 425.607 164.066 425.19 162.794" fill="url(#colorTwo)"/>
<path d="M428.231 76.5335C431.863 68.1152 439.575 63.999 443.095 55.5286C443.095 55.5286 439.455 49.4624 434.602 48.8594C429.749 48.2565 421.033 51.7326 416.404 55.5361C409.541 59.5703 405.685 66.4851 403.631 74.1814C401.993 80.3147 401.018 87.5496 401.309 93.8912C403.073 131.949 422.529 134.375 422.775 132.202C424.561 116.333 436.151 106.537 434.171 90.6906L428.238 76.541L428.231 76.5335Z" fill="black"/>
<path d="M477.701 96.2873C477.701 118.133 458.207 132.581 438.274 132.588C418.333 132.588 409.148 118.037 409.141 96.1905C409.141 74.3445 425.598 57.359 445.538 57.3516C465.479 57.3516 477.701 74.4487 477.701 96.2873Z" fill="white"/>
<path d="M417.324 88.6584C417.763 89.1273 419.259 88.4574 421.112 88.2565C422.958 87.9959 424.573 88.2788 424.886 87.7131C425.02 87.4377 424.73 86.9539 423.993 86.5371C423.271 86.1202 422.102 85.8299 420.829 85.9937C419.557 86.1574 418.492 86.7157 417.897 87.3037C417.286 87.8917 417.123 88.4351 417.324 88.6658" fill="black"/>
<path d="M430.819 93.7422C431.02 97.0842 430.38 100.463 429.144 103.567C428.139 106.001 426.591 108.517 430.7 108.219C431.518 108.182 432.337 108.026 433.156 107.884C432.367 108.16 431.563 108.368 430.73 108.51C426.211 109.06 427.373 106.202 428.586 103.351C429.866 100.292 430.536 97.047 430.819 93.7422Z" fill="black"/>
<path d="M473.263 82.7396C467.182 60.7819 443.832 49.5277 424.755 64.124C410.829 74.9911 407.062 94.8572 411 111.389C412.689 117.983 416.284 124.303 422.016 128.151C424.829 130.079 428.06 131.359 431.417 132.081C434.796 132.825 438.25 133.026 441.517 131.701C444.77 130.518 447.769 128.679 450.866 127.079C441.539 132.937 437.215 135.483 426.117 131.56C410.211 125.412 406.616 105.784 409.228 90.6815C410.896 80.2907 416.27 70.4135 424.509 63.8039C443.892 48.24 468.492 59.6952 473.263 82.7321" fill="black"/>
<path d="M439.815 86.5588C440.031 87.1766 442.279 86.9161 444.914 87.2659C447.556 87.5636 449.677 88.3675 450.035 87.8241C450.191 87.5636 449.834 86.983 448.978 86.3801C448.129 85.7772 446.775 85.1967 445.197 84.9957C443.611 84.8022 442.16 85.0329 441.192 85.4125C440.217 85.7921 439.726 86.2685 439.815 86.5588Z" fill="black"/>
<path d="M412.086 81.6697C416.046 80.0694 421.308 77.4419 426.719 73.1248C433.612 67.6168 434.535 63.3072 437.028 59.1687C431.252 58.9156 428.848 56.9953 423.072 56.7422L412.086 81.6697Z" fill="black"/>
<path d="M458.27 81.6158C462.966 83.0747 462.609 109.201 462.103 131.166C462.066 132.863 484.068 119.926 483.495 98.4972C483.331 92.2597 482.758 86.0074 481.351 79.9337C479.944 73.8599 473.193 62.6653 469.025 58.0355C461.686 49.8852 447.775 44.0497 438.634 52.0958C438.634 52.0958 433.32 56.145 434.607 59.7847C436.751 65.8435 449.211 78.8023 458.277 81.6233" fill="black"/>
<path d="M478.21 141.9C477.719 138.677 475.389 135.804 472.389 134.732C472.337 133.839 472.055 132.752 471.615 131.606C472.196 131.018 472.65 130.4 472.911 129.753C474.265 126.455 475.449 119.399 473.164 116.63C472.821 116.213 464.574 115.134 462.81 117.248L461.991 129.433C461.798 131.442 461.82 134.948 461.827 135.119L461.798 136.146H461.813C461.664 139.191 460.644 143.456 461.046 146.024C461.269 147.46 461.895 148.867 461.761 150.318C461.582 152.179 460.183 153.66 459.684 155.462C459.066 157.702 459.929 160.099 460.957 162.198C462.148 164.632 463.793 167.118 466.308 167.937C470 169.135 473.908 166.001 475.106 162.242C476.305 158.476 475.553 154.36 474.786 150.452C477.324 148.547 478.701 145.123 478.21 141.9Z" fill="black"/>
<path d="M464.532 135.09C464.561 135.186 466.325 134.174 468.745 134.152C471.164 134.092 472.98 135.045 473.01 134.948C473.024 134.919 472.6 134.636 471.841 134.353C471.082 134.07 469.973 133.817 468.737 133.839C467.502 133.862 466.407 134.144 465.67 134.457C464.926 134.762 464.517 135.06 464.532 135.09Z" fill="url(#colorOne)"/>
<path d="M464.586 152.759C464.586 152.759 464.712 152.848 464.958 152.96C465.204 153.079 465.576 153.205 466.045 153.324C466.983 153.57 468.345 153.697 469.804 153.444C471.263 153.183 472.498 152.595 473.295 152.044C473.697 151.769 474.002 151.523 474.195 151.33C474.389 151.144 474.493 151.032 474.478 151.017C474.441 150.972 473.994 151.374 473.183 151.858C472.372 152.349 471.166 152.885 469.752 153.138C468.337 153.384 467.02 153.295 466.089 153.109C465.159 152.93 464.601 152.707 464.586 152.759Z" fill="url(#colorOne)"/>
<path d="M462.445 150.22C462.497 150.25 462.929 149.245 463.837 147.756C464.284 147.004 464.872 146.156 465.579 145.248C466.293 144.355 467.135 143.417 468.095 142.509C469.062 141.615 470.045 140.841 470.983 140.186C471.928 139.546 472.806 139.025 473.573 138.638C475.099 137.849 476.111 137.499 476.089 137.447C476.089 137.425 475.828 137.499 475.367 137.656C475.136 137.73 474.861 137.827 474.541 137.968C474.228 138.102 473.856 138.244 473.476 138.445C472.695 138.809 471.787 139.323 470.826 139.956C469.874 140.603 468.869 141.377 467.894 142.285C466.926 143.201 466.078 144.161 465.363 145.077C464.663 146 464.083 146.878 463.659 147.652C463.428 148.032 463.264 148.389 463.1 148.701C462.937 149.014 462.817 149.289 462.721 149.52C462.527 149.974 462.43 150.227 462.453 150.235" fill="url(#colorOne)"/>
<path d="M464.772 132.596C464.854 132.64 465.383 131.635 466.358 130.675C467.318 129.708 468.315 129.194 468.278 129.112C468.256 129.038 467.162 129.44 466.149 130.452C465.137 131.457 464.705 132.566 464.772 132.596Z" fill="url(#colorOne)"/>
<path d="M462.328 154.91C462.305 154.962 463.087 155.32 464.285 156.012C465.484 156.704 467.077 157.761 468.669 159.16C470.262 160.56 471.528 162.019 472.376 163.128C473.225 164.237 473.694 164.974 473.738 164.944C473.753 164.929 473.656 164.735 473.455 164.393C473.262 164.051 472.949 163.567 472.54 162.994C471.729 161.84 470.463 160.336 468.855 158.922C467.24 157.508 465.603 156.458 464.375 155.818C463.757 155.491 463.251 155.253 462.886 155.111C462.529 154.962 462.328 154.895 462.32 154.91" fill="url(#colorOne)"/>
<path d="M469.965 142.725C468.9 140.856 467.612 139.383 466.593 138.445C466.079 137.976 465.647 137.619 465.327 137.403C465.015 137.179 464.836 137.06 464.821 137.083C464.791 137.127 465.476 137.641 466.451 138.609C467.426 139.576 468.662 141.043 469.711 142.881C470.754 144.72 471.386 146.551 471.721 147.898C472.056 149.245 472.153 150.108 472.212 150.101C472.235 150.101 472.227 149.885 472.19 149.491C472.16 149.096 472.078 148.538 471.93 147.846" fill="url(#colorOne)"/>
<path d="M465.146 164.325C465.191 164.34 465.355 163.752 465.719 162.844C466.077 161.936 466.672 160.73 467.536 159.532C468.399 158.341 469.352 157.403 470.089 156.785C470.826 156.167 471.324 155.84 471.294 155.795C471.28 155.765 470.736 156.026 469.955 156.607C469.173 157.187 468.176 158.118 467.29 159.338C466.412 160.559 465.831 161.817 465.518 162.755C465.198 163.693 465.117 164.31 465.146 164.318" fill="url(#colorOne)"/>
<path d="M460.302 170.868C461.225 169.111 462.58 167.347 464.5 167.057L470.789 168.783C472.777 171.143 473.35 174.671 472.211 177.537C471.593 179.092 470.544 180.41 469.576 181.757C468.609 183.104 467.693 184.563 467.418 186.223C467.142 187.883 467.656 189.796 469.033 190.719C467.44 190.205 466.011 189.156 465.021 187.764C464.924 189.111 465.296 190.488 466.048 191.605C462.163 190.525 459.237 186.841 458.352 182.807C457.466 178.765 458.404 174.485 460.309 170.875" fill="black"/>
<path d="M460.625 165.069C460.796 164.556 461.139 164.072 461.645 163.931C462.412 163.715 463.141 164.34 463.781 164.839C466.066 166.625 469.192 167.198 471.909 166.342L472.013 166.312C472.542 166.536 473.063 167.392 473.033 167.98C473.003 168.56 472.698 169.096 472.319 169.535C471.455 170.533 470.175 171.084 468.88 171.225C467.585 171.366 466.267 171.136 465.017 170.741C463.759 170.347 462.516 169.781 461.608 168.798C460.7 167.816 460.201 166.35 460.618 165.084" fill="url(#colorTwo)"/>
<path d="M428.5 131.5C428.5 131.5 444.914 133.274 453.689 124.424C453.689 124.424 445.486 136.248 428.5 137V131.5Z" fill="black"/>
<path d="M487.712 67.3774C487.177 69.7072 468.263 57.2843 434.493 57.3811C404.05 57.4704 394.352 68.9852 393.927 66.8713C393.302 63.8046 414.865 42.6285 439.234 42.6211C466.633 42.6211 489.29 60.5222 487.712 67.3774Z" fill="url(#colorOne)"/>
<g style="mix-blend-mode:multiply">
<mask id="mask1_5988_6899" style="mask-type:luminance" maskUnits="userSpaceOnUse" x="397" y="55" width="83" height="14">
<path d="M479.298 55.1055H397.102V68.4438H479.298V55.1055Z" fill="white"/>
</mask>
<g mask="url(#mask1_5988_6899)">
<path d="M397.102 68.4519C408.654 59.4083 417.757 55.9919 432.412 55.4336C445.103 54.6446 458.531 54.9349 470.202 60.6067C473.536 62.2665 476.596 64.3804 479.298 66.859C475.814 65.683 472.442 64.5293 469.056 63.651C462.252 61.8869 455.36 61.1649 448.356 60.6141C442.625 60.2271 434.02 59.4753 428.393 59.0511C420.927 58.8799 413.499 60.4727 406.644 63.5021C403.354 64.9164 400.28 66.7772 397.109 68.4593" fill="url(#colorTwo)"/>
</g>
</g>
<path d="M401.859 255.996C401.859 255.996 372.481 315.907 375.819 351.635C375.819 351.635 414.883 351.344 460.309 351.635C505.728 351.925 531.02 351.635 531.02 351.635C531.02 351.635 524.693 301.765 490.911 251.791C490.911 251.791 461.405 263.849 428.216 262.286C407.583 261.311 401.867 256.004 401.867 256.004" fill="black"/>
<path d="M490.879 215.43C490.492 215.623 490.149 215.794 489.852 215.951L510.663 291.73C510.507 292.482 510.328 293.241 510.134 294.001C508.281 301.28 506.763 298.05 505.825 305.709C504.894 313.368 506.234 329.989 506.234 329.989C512.561 331.068 511.02 321.593 511.177 320.692C511.325 319.792 512.97 309.639 512.97 309.639L515.642 325.932L510.894 331.872C510.894 331.872 505.267 334.537 505.408 336.531C505.549 338.526 510.894 337.894 510.894 337.894C510.894 337.894 510.804 339.687 512.539 339.777C514.265 339.866 524.671 328.589 524.671 328.589L524.641 302.121L523.525 286.49C523.503 286.118 517.816 231.983 515.315 225.195C513.834 221.161 513.171 212.214 513.03 205.426" fill="white"/>
<path d="M490.897 215.482L489.877 216.018L489.907 215.943C496.837 240.022 504.548 267.51 511.083 291.626C511.083 291.626 510.756 291.314 510.763 291.314L511.187 291.418C510.771 293.16 510.428 294.916 509.773 296.621C509.289 298.184 508.128 299.568 507.361 300.93C506.081 303.826 506.007 307.25 505.843 310.406C505.664 316.926 505.97 323.476 506.431 329.989L506.275 329.818C508.322 330.257 510.049 329.163 510.592 327.153C511.165 325.3 511.128 323.305 511.024 321.347C510.971 320.953 511.083 320.26 511.158 319.844C511.574 317.239 512.371 312.281 512.795 309.624L512.974 308.5L513.167 309.624L515.921 325.902L515.944 326.022L515.869 326.118L511.158 332.088C509.356 333.16 506.96 334.194 505.895 336.04C505.136 338.132 510.168 337.588 511.299 337.477C511.292 337.901 511.284 338.497 511.552 338.861C511.768 339.233 512.252 339.427 512.661 339.367C514.552 338.377 516.033 336.688 517.611 335.236C519.903 332.974 522.144 330.644 524.332 328.284L524.206 328.612C524.206 328.612 524.154 302.017 524.154 302.173L523.275 290.018C523.097 286.542 522.456 281.407 522.092 277.908C520.395 263.736 518.534 243.439 516.07 229.557C515.728 227.547 515.177 225.612 514.574 223.669C513.167 217.692 512.877 211.552 512.46 205.448L513.606 205.426C513.606 212.475 513.763 219.702 515.944 226.46C519.338 243.409 521.087 260.64 523.111 277.797C523.461 281.34 524.109 286.431 524.28 289.944L525.136 302.099C525.158 302.136 525.136 328.567 525.151 328.604V328.79L525.024 328.924C522.814 331.299 520.573 333.629 518.221 335.876C516.532 337.373 514.976 339.174 512.884 340.149C512.125 340.335 511.269 339.948 510.86 339.278C510.592 338.839 510.495 338.392 510.503 337.886L510.942 338.296C509.289 338.407 504.89 338.779 505.076 336.234C505.411 334.82 506.766 334.008 507.771 333.279C508.731 332.646 509.721 332.095 510.763 331.597L510.651 331.686L515.437 325.776L515.378 325.992L512.788 309.691H513.16L512.2 315.527C512.051 316.427 511.626 319.017 511.478 319.903C511.411 320.246 511.284 320.953 511.344 321.34C511.626 324.927 511.381 331.157 506.208 330.205L506.059 330.182L506.044 330.033C505.56 323.498 505.136 316.963 505.218 310.406C505.344 307.101 505.344 303.744 506.677 300.61C507.481 299.114 508.5 297.975 508.992 296.353C509.542 294.857 509.862 293.249 510.227 291.671L510.555 292.192L510.302 292.132L510.235 291.879C503.543 267.83 496.115 240.216 489.78 216.003L489.766 215.951L489.81 215.928L490.845 215.415L490.89 215.511L490.897 215.482Z" fill="black"/>
<path d="M521.23 326.863C518.156 330.615 514.814 334.143 511.219 337.403C514.285 333.644 517.635 330.123 521.23 326.863Z" fill="black"/>
<path d="M142.104 206.03L142.283 184.295L140.78 144.132L140.452 141.43C132.555 141.794 123.973 144.928 119.871 155.512C116.76 163.529 114.274 177.79 113.872 184.295C113.798 185.471 113.537 187.704 113.5 188.97L142.112 206.022L142.104 206.03Z" fill="url(#colorOne)"/>
<path d="M140.352 194.233L114.338 287.169C114.323 287.221 114.323 287.266 114.338 287.318C114.487 288.01 114.651 288.702 114.822 289.402C116.586 296.339 118.037 293.258 118.93 300.552C119.824 307.847 118.551 323.678 118.551 323.678C112.522 324.706 113.988 315.684 113.839 314.821C113.698 313.957 112.127 304.296 112.127 304.296L109.589 319.815L114.115 325.472C114.115 325.472 119.481 328.003 119.34 329.908C119.206 331.806 114.115 331.211 114.115 331.211C114.115 331.211 114.197 332.915 112.552 333.005C110.899 333.094 100.992 322.353 100.992 322.353L101.015 297.143L102.071 282.257C102.094 281.907 107.483 230.34 109.865 223.872C111.279 220.031 114.383 196.451 114.517 189.982" fill="white"/>
<path d="M140.418 194.256C132.557 223.91 124.422 253.556 116.093 283.091L114.954 287.118L114.917 287.244C114.917 287.244 114.887 287.371 114.902 287.297C114.909 287.274 114.902 287.177 114.902 287.222C115.483 289.738 115.989 292.336 117.567 294.45C119.904 298.052 119.502 302.86 119.643 306.954C119.614 312.559 119.227 318.134 118.802 323.702L118.787 323.903C117.768 324.096 116.629 324.081 115.684 323.486C113.198 321.67 113.547 318.097 113.614 315.417C113.666 315.008 113.555 314.464 113.495 314.063C113.101 311.584 112.304 306.865 111.888 304.334H112.349C111.724 308.197 110.488 315.998 109.893 319.861L109.826 319.615L114.396 325.235L114.269 325.131C115.259 325.607 116.212 326.128 117.135 326.731C118.244 327.572 119.919 328.502 119.733 330.155C119.078 332.12 115.676 331.733 114.068 331.666L114.589 331.182C114.671 332.343 113.778 333.489 112.572 333.482C112.208 333.482 111.835 333.296 111.567 333.132C109.9 332.068 108.493 330.668 107.072 329.344C104.779 327.148 102.569 324.885 100.395 322.585V322.347L100.328 297.137C100.365 296.109 101.348 282.481 101.393 281.9C101.683 278.834 102.345 273.251 102.673 270.14C104.199 256.705 105.732 243.262 108.069 229.931C108.769 225.488 110.391 221.26 110.979 216.742C112.394 207.884 113.681 198.923 113.763 189.939C113.756 189.522 114.083 189.179 114.5 189.172C114.947 189.165 115.304 189.544 115.267 189.991C114.872 194.561 114.217 198.99 113.637 203.47C112.654 210.192 111.969 216.906 110.377 223.538C109.692 225.651 109.364 227.87 108.992 230.08C106.588 246.679 104.623 265.354 102.807 282.034C102.755 282.451 101.78 296.281 101.698 297.174C101.683 296.936 101.608 322.384 101.593 322.339L101.43 321.93C104.831 325.495 108.106 329.351 112.066 332.284C112.23 332.388 112.409 332.47 112.52 332.507C112.877 332.485 113.235 332.358 113.421 332.045C113.681 331.696 113.652 331.1 113.652 330.676C114.686 330.81 119.524 331.286 118.825 329.44C117.79 327.669 115.52 326.716 113.823 325.689L109.342 319.995L109.253 319.883L109.275 319.749L110.6 312.001L111.895 304.245L112.133 302.838L112.356 304.245C112.773 306.776 113.503 311.48 113.92 313.981C113.987 314.316 114.113 315.075 114.054 315.425C113.853 318.603 113.934 324.282 118.505 323.411L118.289 323.649C118.683 318.097 118.907 312.514 118.84 306.947C118.78 304.17 118.691 301.387 118.155 298.7C117.887 297.345 117.522 296.102 116.703 295.038C115.021 292.872 114.374 290.08 113.771 287.46C113.756 287.423 113.733 287.237 113.756 287.125C113.8 286.902 113.793 286.969 113.838 286.798L114.954 282.764C123.253 253.37 131.501 223.031 140.418 194.248" fill="black"/>
<path d="M104.258 320.701C107.674 323.812 110.867 327.162 113.793 330.735C110.376 327.631 107.183 324.274 104.258 320.701Z" fill="black"/>
<g style="mix-blend-mode:multiply">
<mask id="mask2_5988_6899" style="mask-type:luminance" maskUnits="userSpaceOnUse" x="126" y="166" width="5" height="19">
<path d="M130.278 166.434H126.898V184.662H130.278V166.434Z" fill="white"/>
</mask>
<g mask="url(#mask2_5988_6899)">
<path d="M126.996 166.434C127.22 166.419 127.532 170.565 128.433 175.581C129.333 180.598 130.465 184.595 130.256 184.662C130.167 184.692 129.765 183.724 129.266 182.117C128.768 180.509 128.172 178.254 127.718 175.715C127.264 173.177 127.041 170.855 126.959 169.173C126.877 167.491 126.914 166.449 127.011 166.441" fill="black"/>
</g>
</g>
<path d="M101.184 284.965C100.574 285.263 99.2416 285.895 99.4053 286.58C99.5616 286.803 100.038 287.012 100.351 287.116C101.735 287.563 103.224 287.719 104.69 287.823C106.677 287.979 108.687 287.987 110.674 287.875C112.528 287.741 114.716 287.644 116.346 286.833C117.262 286.26 115.84 285.612 115.319 285.292C116.644 285.263 118.304 286.238 116.89 287.555C113.079 290.019 105.762 289.766 101.46 288.679C100.388 288.285 99.0257 288.054 98.5568 286.811C98.4005 285.367 100.127 285.032 101.184 284.972" fill="url(#colorOne)"/>
<path d="M100.486 282.547C100.091 282.948 99.7489 283.38 99.935 283.715C100.769 284.497 102.041 284.616 103.173 284.884C106.842 285.502 110.713 285.68 114.412 285.293C115.246 285.181 116.251 285.04 116.935 284.623C117.657 284.087 116.332 283.417 115.871 283.105C116.362 283.164 116.854 283.231 117.337 283.522C117.977 283.879 118.126 284.779 117.501 285.293C116.63 286.037 115.648 286.231 114.613 286.491C110.713 287.243 106.738 287.087 102.882 286.157C101.587 285.74 99.8159 285.405 99.1013 284.035C98.811 283.164 99.7414 282.547 100.478 282.539" fill="url(#colorTwo)"/>
<path d="M101.221 280.56C99.0926 282.324 101.385 282.703 103.038 283.024C106.603 283.582 110.317 283.574 113.89 283.128C114.887 282.934 116.629 282.808 117.15 281.989C117.269 281.743 116.949 281.341 116.584 281.021C116.83 281.036 117.076 281.081 117.321 281.207C118.438 281.825 117.753 282.957 116.882 283.388C114.255 284.728 111.3 284.869 108.434 284.914C106.536 284.884 104.638 284.713 102.762 284.244C101.78 283.954 100.842 283.708 100.008 282.994C99.8072 282.8 99.5467 282.51 99.5392 282.071C99.5243 281.163 100.492 280.634 101.214 280.545" fill="url(#colorOne)"/>
<path d="M144.469 140.41L166.679 170.392C171.875 169.886 181.105 168.278 190.766 162.361C203.896 154.314 210.059 143.06 212.359 138.215C204.819 137.158 196.78 136.771 189.255 134.761L187.751 124.727L157.643 122.227L158.365 136.242L144.469 140.41Z" fill="white"/>
<path d="M245.957 290.593C245.972 272.99 240.598 256.562 234.897 243.514C234.897 243.514 203.836 255.699 173.728 252.692C143.62 249.685 125.049 240.656 125.049 240.656C121.506 249.186 117.524 267.69 117.531 286.827C117.531 310.995 139.873 349.775 139.873 349.775H233.286C233.286 335.953 245.928 314.322 245.95 290.593" fill="black"/>
<path d="M125.057 240.656C124.901 239.51 126.561 235.758 129.895 228.255C132.619 222.115 135.105 217.053 136.981 213.376C136.981 213.376 125.042 191.977 130.729 181.564C137.703 168.791 137.577 141.794 137.577 141.794L146.092 140.246C146.092 140.246 159.981 164.087 173.044 163.931C193.26 163.692 202.981 136.979 202.981 136.979L213.342 139.323L224.201 186.826L222.661 219.413C231.265 227.891 237.361 236.674 235.024 243.469C227.149 266.357 127.171 256.034 125.05 240.656" fill="url(#colorOne)"/>
<path d="M224.112 184.869L224.402 186.938L255.262 209.952L239.43 235.624L239.304 235.58C239.304 235.58 230.937 220.291 229.337 219.063C227.737 217.842 216.304 219.16 216.304 219.16C213.453 224.08 221.358 224.281 224.819 224.147L214.063 224.817C214.063 224.817 212.009 225.658 212.508 227.489C212.917 228.992 215.768 230.146 215.768 230.146C215.768 230.146 215.098 231.88 217.331 233.414C218.954 234.53 232.456 236.629 232.456 236.629L223.353 236.249C223.353 236.249 221.544 239.338 222.75 241.207C223.955 243.075 235.694 245.256 235.694 245.256C235.694 245.256 238.544 254.27 238.976 255.647C239.192 256.331 241.283 254.925 243.338 253.332C243.42 253.28 285.943 225.754 289.047 215.699C291.652 207.258 268.816 184.459 250.93 165.367" fill="white"/>
<path d="M224.188 184.863L224.523 186.924L224.478 186.842C229.093 190.237 235.561 194.755 240.079 198.119C245.394 202.012 250.746 205.875 256.038 209.805C251.259 217.576 244.769 228.346 239.99 235.968L239.7 236.429C239.596 236.377 239.164 236.236 239.075 236.191L238.844 236.102L238.732 235.894C237.445 233.527 236.127 231.16 234.795 228.815C232.926 225.704 231.311 222.332 229.041 219.511C227.716 218.893 225.937 219.087 224.404 219.042C221.724 219.094 219.03 219.288 216.35 219.548L216.641 219.355C216.149 220.188 215.829 221.178 216.298 221.923C216.76 222.674 217.75 223.091 218.702 223.359C220.66 223.88 222.759 223.917 224.813 223.865L224.843 224.424C224.97 224.424 213.753 225.079 214.162 225.026C210.917 226.746 213.567 229.023 215.866 229.902L216.067 229.984L216 230.214C215.591 231.614 216.901 233.14 218.3 233.527C222.923 234.859 227.761 235.499 232.51 236.258L232.443 236.95L223.34 236.653L223.727 236.437C223.101 237.643 222.506 239.265 222.982 240.568C223.116 240.903 223.228 241.044 223.533 241.238C224.478 241.826 225.595 242.168 226.674 242.511C229.659 243.396 232.748 244.051 235.807 244.632L236.157 244.699L236.268 245.041C236.693 246.344 238.978 253.422 239.357 254.606L239.514 255.082L239.588 255.32L239.61 255.38V255.41C239.61 255.41 239.61 255.387 239.61 255.373C239.588 255.328 239.529 255.239 239.469 255.194C239.32 255.097 239.261 255.12 239.268 255.112C239.402 255.067 239.566 255.03 239.722 254.941C253.559 245.6 267.582 236.176 280.154 225.145C282.052 223.426 283.898 221.655 285.558 219.742C286.719 218.35 287.932 216.876 288.401 215.164C288.877 212.164 287.18 209.299 285.736 206.619C281.784 200.01 276.685 194.167 271.669 188.324C265.826 181.498 256.946 172.172 250.88 165.383L250.991 165.279C261.404 176.146 273.291 187.631 282.469 199.496C285.535 203.709 288.997 208.033 289.934 213.318C290.709 218.045 284.27 223.27 281.189 226.299C268.535 237.539 254.229 246.984 240.31 256.169C239.663 256.519 238.561 256.735 238.3 255.722L238.226 255.484L238.077 255.008C237.735 253.854 235.517 246.738 235.115 245.406L235.576 245.815C232.465 245.19 229.383 244.498 226.339 243.515C224.984 243.009 223.474 242.645 222.417 241.558C221.255 239.786 222.089 237.658 222.967 235.998L223.094 235.774L223.354 235.789L232.45 236.251L232.383 236.943C229.19 236.415 226.019 235.827 222.848 235.179C220.906 234.68 218.717 234.517 216.968 233.437C215.926 232.671 215.115 231.39 215.532 230.028L215.666 230.341C213.983 229.619 211.393 228.123 212.435 225.934C212.792 225.294 213.373 224.811 214.043 224.557L224.798 223.843L224.828 224.401C222.208 224.453 219.439 224.52 216.998 223.396C215.115 222.518 214.951 220.59 215.971 218.945L216.06 218.774L216.261 218.752C218.955 218.432 221.65 218.171 224.382 218.059C226.056 218.104 228.14 217.747 229.711 218.662C230.537 219.451 231.028 220.315 231.646 221.208C234.609 225.771 237.229 230.497 239.878 235.231L239.536 234.933L239.663 234.978L238.874 235.246C241.486 230.951 244.143 226.679 246.801 222.421L254.772 209.619L254.921 210.385C249.785 206.537 244.709 202.622 239.596 198.737C235.152 195.32 228.818 190.49 224.337 186.999L224.292 186.969V186.924L224.039 184.848L224.188 184.825V184.863Z" fill="black"/>
<path d="M278.315 209.834C278.315 209.834 278.129 209.506 277.66 209.03C277.198 208.553 276.461 207.921 275.464 207.266C273.499 205.941 270.298 204.616 266.599 204.653C262.9 204.698 259.729 206.097 257.794 207.459C256.811 208.137 256.089 208.792 255.635 209.275C255.181 209.759 254.965 210.057 254.995 210.094C255.084 210.183 256.089 209.112 258.069 207.898C260.019 206.685 263.078 205.427 266.606 205.383C270.135 205.345 273.216 206.536 275.196 207.705C277.198 208.881 278.225 209.93 278.315 209.834Z" fill="black"/>
<path d="M239.906 243.389C239.981 243.367 239.802 242.243 239.11 240.508C238.73 239.652 238.269 238.64 237.301 237.725C236.713 237.285 236.095 237.107 235.448 236.913C234.8 236.727 234.13 236.571 233.438 236.444C230.669 235.931 228.131 235.767 226.285 235.774C224.439 235.752 223.286 236.132 223.338 236.243C223.375 236.31 224.447 236.139 226.27 236.288C228.079 236.407 230.587 236.653 233.304 237.159C233.981 237.285 234.637 237.427 235.254 237.598C235.857 237.762 236.49 237.963 236.877 238.246C237.688 238.968 238.239 239.957 238.648 240.732C239.437 242.347 239.802 243.433 239.914 243.396" fill="black"/>
<path d="M232.007 229.059C232.044 228.881 228.367 228.196 223.804 228.508C219.234 228.799 215.691 229.967 215.751 230.146C215.803 230.354 219.376 229.521 223.856 229.238C228.337 228.925 231.985 229.282 232.007 229.067" fill="black"/>
<path d="M235.276 194.768L255.388 169.618C252.038 163.909 233.169 145.032 228.145 143.03C218.596 139.212 208.763 137.351 202.972 136.986C199.794 157.247 210.214 173.369 220.374 183.432C227.594 190.585 235.268 194.776 235.268 194.776" fill="url(#colorOne)"/>
<g style="mix-blend-mode:multiply" opacity="0.38">
<mask id="mask3_5988_6899" style="mask-type:luminance" maskUnits="userSpaceOnUse" x="130" y="196" width="91" height="19">
<path d="M220.71 196.293H130.609V214.053H220.71V196.293Z" fill="white"/>
</mask>
<g mask="url(#mask3_5988_6899)">
<g style="mix-blend-mode:multiply" opacity="0.54">
<mask id="mask4_5988_6899" style="mask-type:luminance" maskUnits="userSpaceOnUse" x="177" y="196" width="44" height="19">
<path d="M220.705 196.291H177.273V214.043H220.705V196.291Z" fill="white"/>
</mask>
<g mask="url(#mask4_5988_6899)">
<path d="M177.281 196.299C177.281 196.299 177.281 196.493 177.333 196.858C177.408 197.215 177.46 197.766 177.668 198.436C178.018 199.79 178.77 201.718 180.147 203.824C181.516 205.938 183.608 208.186 186.414 210.01C189.198 211.848 192.741 213.21 196.611 213.486C200.482 213.709 204.166 212.89 207.218 211.558C210.292 210.241 212.763 208.477 214.617 206.787C216.477 205.097 217.773 203.519 218.569 202.366C218.986 201.807 219.246 201.324 219.44 201.011C219.626 200.698 219.715 200.52 219.693 200.512C219.559 200.401 218.026 203.162 214.274 206.4C212.406 208.008 209.957 209.69 206.95 210.94C203.965 212.206 200.393 212.972 196.656 212.764C192.927 212.496 189.496 211.201 186.779 209.444C184.032 207.702 181.971 205.559 180.579 203.527C177.75 199.448 177.475 196.21 177.289 196.284" fill="url(#colorOne)"/>
<path d="M177.281 196.3C178.449 205.575 187.553 212.646 196.611 212.988C205.104 213.249 213.284 208.373 217.981 201.444C218.167 201.146 218.628 200.446 218.755 200.208C218.732 200.275 218.718 200.335 218.703 200.417C218.755 200.536 218.494 200.729 219.149 201.362L219.075 201.31C219.358 201.593 220.013 201.578 220.273 201.325C220.31 201.302 220.37 201.235 220.31 201.295C220.087 201.563 219.641 202.166 219.417 202.449C214.095 209.334 205.498 214.06 196.656 213.264C187.404 212.378 179.425 205.232 177.281 196.293M177.281 196.3C177.497 196.687 177.646 197.462 177.802 197.901C179.67 203.848 184.434 208.701 190.217 210.919C200.63 215.072 212.212 209.17 218.353 200.558C218.546 200.305 218.762 199.97 219.023 199.754C219.306 199.471 219.983 199.434 220.318 199.739L220.243 199.687C220.906 200.32 220.645 200.528 220.69 200.655C220.623 201.086 220.34 201.466 220.117 201.816C212.391 214.134 195.048 218.66 183.861 208.277C180.459 205.173 177.765 200.938 177.273 196.3" fill="url(#colorOne)"/>
</g>
</g>
<g style="mix-blend-mode:multiply" opacity="0.54">
<mask id="mask5_5988_6899" style="mask-type:luminance" maskUnits="userSpaceOnUse" x="130" y="196" width="45" height="19">
<path d="M174.041 196.309H130.609V214.061H174.041V196.309Z" fill="white"/>
</mask>
<g mask="url(#mask5_5988_6899)">
<path d="M130.617 196.309C130.617 196.309 130.617 196.503 130.669 196.867C130.744 197.225 130.796 197.775 131.004 198.445C131.354 199.8 132.106 201.728 133.483 203.834C134.852 205.948 136.944 208.196 139.75 210.02C142.534 211.858 146.077 213.22 149.947 213.496C153.818 213.719 157.502 212.9 160.554 211.568C163.628 210.25 166.099 208.486 167.953 206.797C169.813 205.107 171.109 203.529 171.905 202.375C172.322 201.817 172.582 201.333 172.776 201.021C172.962 200.708 173.051 200.529 173.029 200.522C172.895 200.41 171.362 203.172 167.61 206.41C165.742 208.017 163.293 209.7 160.286 210.95C157.301 212.215 153.729 212.982 149.992 212.774C146.263 212.506 142.832 211.211 140.115 209.454C137.368 207.712 135.306 205.569 133.915 203.537C131.086 199.458 130.811 196.22 130.617 196.294" fill="url(#colorOne)"/>
<path d="M130.617 196.31C131.785 205.584 140.889 212.655 149.947 212.998C158.44 213.258 166.62 208.383 171.317 201.453C171.503 201.155 171.964 200.456 172.091 200.218C172.068 200.285 172.053 200.344 172.039 200.426C172.091 200.545 171.83 200.739 172.485 201.371L172.411 201.312C172.694 201.595 173.349 201.58 173.609 201.327C173.646 201.304 173.706 201.237 173.646 201.297C173.423 201.565 172.976 202.168 172.753 202.451C167.431 209.336 158.834 214.062 149.992 213.266C140.74 212.38 132.76 205.234 130.617 196.295M130.617 196.31C130.833 196.697 130.982 197.471 131.138 197.91C133.006 203.857 137.77 208.71 143.553 210.928C153.966 215.082 165.548 209.179 171.689 200.567C171.882 200.314 172.098 199.979 172.359 199.764C172.641 199.481 173.319 199.443 173.654 199.749L173.579 199.697C174.234 200.329 173.981 200.538 174.026 200.664C173.959 201.096 173.676 201.475 173.453 201.825C165.727 214.144 148.384 218.669 137.197 208.286C133.795 205.182 131.101 200.947 130.609 196.31" fill="url(#colorOne)"/>
</g>
</g>
</g>
</g>
<path d="M147.308 139.533C152.302 148.152 160.758 160.612 170.925 163.076C179.105 164.274 186.965 159.503 192.228 153.549C196.605 148.532 200.207 142.6 202.343 136.325L202.946 136.228C205.7 135.789 208.454 136.243 211.149 136.742C217.14 137.933 222.983 139.883 228.484 142.533C235.064 146.083 240.282 151.68 245.365 157.01C248.953 160.999 252.57 165.041 255.384 169.626C252.414 165.153 248.67 161.253 244.956 157.404C241.182 153.608 237.282 149.902 233.01 146.723C230.933 145.145 228.588 143.768 226.132 142.868C221.197 140.91 216.046 139.444 210.814 138.61C208.194 138.208 205.589 138.037 202.998 137.762L203.69 137.263C198.078 150.549 186.839 166.031 170.68 164.408C160.177 162.324 150.59 149.477 144.851 140.984C143.847 139.325 146.34 137.829 147.308 139.555" fill="black"/>
<g style="mix-blend-mode:multiply">
<mask id="mask6_5988_6899" style="mask-type:luminance" maskUnits="userSpaceOnUse" x="222" y="175" width="3" height="44">
<path d="M224.235 175.15H222.039V218.306H224.235V175.15Z" fill="white"/>
</mask>
<g mask="url(#mask6_5988_6899)">
<path d="M224.14 175.15C224.505 189.561 223.843 203.993 222.138 218.306C221.766 203.896 222.443 189.464 224.14 175.15Z" fill="black"/>
</g>
</g>
<path d="M228.587 95.8843C230.5 95.6163 231.408 92.7805 230.009 91.4556C231.445 90.8005 231.207 88.5899 230.21 87.3692C229.212 86.1485 227.716 85.3297 226.972 83.9378C228.691 84.5184 230.783 83.2233 231.036 81.422C232.19 81.6081 233.425 80.9308 233.887 79.8515C234.348 78.7796 233.984 77.4101 233.053 76.703C234.534 76.6807 234.587 74.2393 233.418 73.3312C232.242 72.4231 230.619 72.3636 229.324 71.6416C227.113 68.7461 223.965 66.5801 220.467 65.553C222.588 64.1983 224.709 62.8436 226.823 61.4964C227.329 61.1763 227.85 60.8265 228.133 60.298C228.744 59.1369 227.902 57.745 226.972 56.822C225 54.8719 222.432 53.5247 219.707 53.0036C218.829 52.8399 217.69 52.892 217.348 53.7107C215.539 52.691 213.358 52.624 211.282 52.5868C210.113 52.5645 208.84 52.5868 207.947 53.3386C208.468 52.2965 209.443 51.582 210.292 50.8004C211.148 50.0114 211.944 48.9992 211.914 47.838C211.885 46.6769 210.56 45.5827 209.562 46.1633C210.671 45.739 210.656 44.0047 209.793 43.1785C208.937 42.3523 207.657 42.2035 206.473 42.0918C205.647 42.0099 204.59 42.0769 204.307 42.851C204.062 40.9753 200.928 40.4915 200.132 42.2034C199.097 41.0274 197.005 41.0423 195.986 42.2332C194.251 40.9753 191.43 41.8015 190.641 43.7889C191.84 42.0695 193.038 40.3575 194.237 38.6381C194.914 37.663 195.16 35.7725 193.969 35.8097C195.658 35.9362 196.79 33.7032 196.075 32.1699C195.361 30.6366 193.485 29.9444 191.795 30.0263C191.252 30.6962 190.716 31.3661 190.173 32.0434C189.101 31.1725 187.463 31.0683 186.287 31.7978C185.111 32.5272 184.486 34.0456 184.799 35.3929C184.173 34.6188 182.826 34.9165 182.223 35.7129C181.628 36.5093 181.568 37.5737 181.531 38.5711C179.99 37.075 176.857 38.4595 176.931 40.6106C175.502 39.7397 173.827 39.2634 172.152 39.2559C172.993 38.1022 172.956 36.3903 172.071 35.2738C171.185 34.1573 169.525 33.733 168.215 34.2838C168.193 32.3709 166.056 30.7929 164.225 31.3512C163.846 29.3564 161.382 27.7188 159.722 28.8949C158.01 30.1156 158.695 32.7654 159.551 34.6857C160.481 36.7699 161.412 38.8465 162.342 40.9307C158.978 38.8019 155.621 36.6731 152.257 34.5518C151.944 34.3508 151.602 34.1498 151.229 34.1647C150.716 34.1945 150.329 34.6262 149.86 34.8197C149.205 35.0877 148.446 34.8793 147.753 35.0356C145.863 35.4673 145.692 38.2957 146.853 39.8514C148.014 41.407 149.904 42.2481 151.244 43.6474C149.666 43.8261 148.096 44.0122 146.518 44.1908C146.116 41.5857 143.109 39.7174 140.6 40.5213C140.087 38.7572 137.802 38.3702 135.963 38.3106C134.318 38.2585 132.502 38.266 131.252 39.3452C129.659 40.7222 129.748 43.3497 130.879 45.1286C132.011 46.9076 133.894 48.039 135.71 49.1033C135.301 50.4729 133.455 50.7707 132.056 50.4655C130.656 50.1603 129.227 49.4978 127.85 49.8998C125.982 50.4506 125.044 52.7506 123.168 53.279C122.603 53.4428 121.977 53.4279 121.464 53.7107C120.734 54.1201 120.429 54.9984 120.184 55.7949C119.886 56.7848 119.581 57.7822 119.283 58.7722C119.134 59.2634 118.985 59.777 119.045 60.2831C119.261 61.9504 121.531 62.4715 123.131 61.9504C124.731 61.4294 126.153 60.298 127.828 60.1715C125.558 61.1094 123.161 62.144 121.784 64.176C120.407 66.208 120.675 69.5351 122.915 70.5251C125.185 71.5299 127.627 69.6765 129.45 67.9944C131.274 66.3122 133.857 64.5705 136.03 65.7614" fill="black"/>
<path d="M127.875 68.1078C127.928 68.1376 127.808 67.5124 128.53 66.9467C128.88 66.6787 129.401 66.4703 130.027 66.5224C130.659 66.5596 131.337 66.835 132.088 67.17L132.326 67.2742L132.312 67.0137C132.267 66.2247 133.041 65.4431 133.986 65.2794C134.954 65.1082 136.011 65.525 137.068 66.0014L138.4 66.6117L137.291 65.659C136.688 65.138 136.889 63.9768 137.574 63.426C138.289 62.8529 139.36 62.8082 140.358 62.972L140.492 62.9943L141.348 63.1357L140.663 62.5998C139.822 61.9448 140.149 60.4041 141.043 59.9649C141.958 59.4737 143.142 59.8012 143.841 60.4413L144.69 61.2154L144.161 60.1957C143.477 58.8782 143.744 57.3225 144.452 56.34C145.159 55.3203 146.283 54.9184 147.168 54.8737C148.076 54.8142 148.784 55.0672 149.223 55.2905C149.662 55.5138 149.863 55.6999 149.885 55.6776C149.885 55.6701 149.848 55.618 149.751 55.5287C149.654 55.432 149.506 55.3129 149.282 55.1789C148.851 54.9184 148.121 54.6058 147.161 54.6281C146.223 54.643 144.98 55.0375 144.176 56.1465C143.387 57.2109 143.052 58.8931 143.804 60.3892L144.124 60.1435C143.32 59.4067 141.995 58.9898 140.842 59.5853C140.268 59.883 139.881 60.4859 139.777 61.1186C139.658 61.7438 139.829 62.5105 140.402 62.9497L140.574 62.5552L140.432 62.5328C139.383 62.3616 138.184 62.3765 137.299 63.0836C136.867 63.4483 136.606 63.9545 136.532 64.483C136.45 65.004 136.606 65.6069 137.023 65.9642L137.246 65.6144C136.182 65.1454 135.051 64.6914 133.927 64.8998C132.848 65.1082 131.939 66.0163 132.006 67.0211L132.23 66.8648C131.478 66.5448 130.741 66.2768 130.056 66.2619C129.372 66.2247 128.783 66.4852 128.434 66.7978C128.069 67.1104 127.913 67.4752 127.875 67.7208C127.838 67.9664 127.875 68.1004 127.89 68.093" fill="white"/>
<path d="M141.851 46.543C141.851 46.543 142.03 46.6844 142.417 46.7961C142.804 46.9152 143.399 46.9821 144.121 47.0119C144.836 47.0566 145.751 47.0715 146.563 47.5627C146.965 47.8083 147.277 48.1879 147.344 48.6941C147.434 49.1779 147.255 49.7585 146.801 49.952L147.084 50.1902C147.218 49.6319 147.94 49.3268 148.602 48.9918C149.272 48.6643 149.979 48.3591 150.731 48.2549C151.49 48.1358 152.242 48.2921 152.808 48.7313C153.373 49.1481 153.723 49.8106 153.597 50.4209L153.492 50.9568L153.932 50.6219C154.847 49.9297 155.941 49.6394 156.894 49.6394C157.862 49.6245 158.703 49.8701 159.335 50.1753C160.623 50.8005 161.085 51.5821 161.137 51.5225C161.152 51.5151 161.047 51.3216 160.794 51.0164C160.534 50.7112 160.102 50.3093 159.447 49.952C158.792 49.6022 157.921 49.3044 156.894 49.297C155.874 49.2672 154.691 49.5501 153.671 50.2944L153.999 50.5028C154.17 49.6989 153.723 48.8578 153.068 48.3815C152.421 47.8604 151.498 47.6744 150.664 47.8158C149.83 47.9349 149.086 48.2698 148.401 48.6048C148.066 48.776 147.724 48.9323 147.396 49.1556C147.076 49.364 146.764 49.684 146.667 50.1083L146.578 50.5177L146.957 50.339C147.649 50.0115 147.828 49.2151 147.716 48.6345C147.627 48.0168 147.195 47.518 146.734 47.265C145.789 46.7365 144.836 46.7737 144.121 46.7588C143.392 46.7588 142.819 46.7365 142.439 46.6695C142.052 46.6025 141.851 46.5281 141.844 46.5504" fill="white"/>
<path d="M164.336 39.6453C164.336 39.7048 164.79 39.6081 165.483 39.8909C165.818 40.0398 166.212 40.278 166.539 40.6725C166.874 41.0521 167.128 41.5954 167.135 42.2058V42.444L167.373 42.3844C167.961 42.2281 168.661 42.7194 168.921 43.4042C169.182 44.1113 169.033 44.9747 168.832 45.8455L168.638 46.7015L169.227 46.0316C169.227 46.0316 169.286 45.9646 169.316 45.9274C169.71 45.5106 170.321 45.3468 170.879 45.4064C171.445 45.4585 171.936 45.7413 172.278 46.1358C172.97 46.9471 173.104 48.0041 172.978 48.8079C172.859 49.6267 172.554 50.2594 172.345 50.6837C172.129 51.1079 171.995 51.3387 172.025 51.3536C172.048 51.3684 172.234 51.1749 172.494 50.7655C172.755 50.3562 173.112 49.7309 173.283 48.8601C173.454 48.0041 173.372 46.8281 172.583 45.8679C171.847 44.9002 170.075 44.5281 168.988 45.6148C168.951 45.6594 168.906 45.7116 168.869 45.7488L169.264 45.9349C169.457 45.064 169.643 44.1113 169.316 43.2404C168.988 42.4068 168.117 41.7815 167.276 42.0048L167.507 42.1834C167.477 41.4614 167.15 40.8586 166.763 40.4492C166.376 40.0324 165.929 39.7942 165.557 39.6676C165.177 39.5411 164.857 39.5336 164.649 39.5485C164.441 39.5709 164.329 39.6081 164.336 39.623" fill="white"/>
<path d="M218.591 87.6085C218.591 87.6085 218.687 87.5266 218.829 87.3405C218.97 87.1545 219.186 86.879 219.409 86.492C219.625 86.0975 219.886 85.5765 219.878 84.8991C219.878 84.5642 219.796 84.2069 219.618 83.8645C219.439 83.5296 219.134 83.1946 218.702 83.0532L218.777 83.2988C219.216 82.748 219.38 81.8846 219.015 81.118C218.658 80.3513 217.742 79.8303 216.797 79.9791L216.975 80.3066C217.452 79.7633 217.437 78.9371 217.05 78.3342C216.648 77.7164 215.933 77.3963 215.226 77.3219C214.862 77.2772 214.512 77.3219 214.236 77.2474C213.961 77.1879 213.79 76.9795 213.663 76.6743C213.529 76.384 213.44 75.997 213.164 75.6769C212.911 75.3569 212.539 75.1261 212.16 75.0294C211.341 74.7986 210.544 74.8582 209.808 74.8061C209.071 74.7688 208.356 74.6051 207.939 74.1138C207.731 73.8682 207.604 73.5407 207.396 73.2207C207.188 72.8932 206.882 72.6326 206.547 72.4689C205.885 72.1265 205.096 72.1191 204.471 72.4317L204.709 72.722C205.2 72.0521 204.999 71.1961 204.612 70.6676C204.21 70.0945 203.578 69.8414 203.019 69.7298C201.873 69.5362 200.891 69.7298 200.102 69.8786C199.313 70.0498 198.717 70.2731 198.323 70.4443C197.928 70.6155 197.727 70.7346 197.735 70.7569C197.757 70.809 198.583 70.3922 200.146 70.1019C200.92 69.9828 201.903 69.834 202.952 70.0349C203.466 70.1466 204.009 70.3922 204.322 70.8686C204.642 71.3226 204.768 72.0148 204.404 72.4838L203.883 73.1462L204.642 72.7815C205.148 72.5359 205.811 72.5508 206.354 72.8336C206.629 72.9825 206.86 73.1834 207.031 73.4514C207.21 73.7194 207.344 74.0692 207.597 74.3818C207.865 74.687 208.222 74.9177 208.609 75.0442C208.989 75.1633 209.383 75.208 209.77 75.2378C210.537 75.2899 211.326 75.2452 212.018 75.4536C212.346 75.543 212.614 75.7141 212.807 75.9523C213.016 76.1756 213.097 76.5106 213.254 76.853C213.38 77.1879 213.7 77.5898 214.125 77.6717C214.527 77.761 214.869 77.7089 215.174 77.7536C215.792 77.8206 216.387 78.096 216.693 78.5649C216.998 79.0264 216.998 79.6814 216.67 80.0461L216.291 80.4778L216.856 80.3736C217.608 80.2396 218.39 80.6639 218.687 81.2817C219 81.8995 218.881 82.6513 218.524 83.1202L218.39 83.2988L218.598 83.3658C219.298 83.5966 219.595 84.3483 219.625 84.9289C219.655 85.5318 219.439 86.0454 219.253 86.4325C218.844 87.214 218.546 87.6085 218.583 87.6308" fill="white"/>
<path d="M182.688 73.0941C182.71 73.1388 183.231 73.0346 184.035 72.6624C184.429 72.4689 184.898 72.1935 185.3 71.7171C185.68 71.2482 185.985 70.5783 185.866 69.8266C185.843 69.6554 185.784 69.499 185.717 69.3502L185.605 69.6479C186.238 69.3725 186.655 68.8143 186.796 68.2635C186.953 67.7052 186.819 67.1618 186.618 66.8046C186.186 66.0677 185.62 65.956 185.62 66.0007C185.575 66.0602 186.052 66.2687 186.35 66.9386C186.491 67.2661 186.565 67.7052 186.417 68.1518C186.275 68.591 185.925 69.0301 185.434 69.2385L185.233 69.3204L185.322 69.5363C185.367 69.6479 185.412 69.767 185.434 69.8935C185.531 70.4667 185.293 71.0398 184.98 71.4566C184.66 71.8734 184.243 72.1637 183.893 72.3796C183.164 72.8039 182.665 73.0197 182.695 73.0867" fill="white"/>
<path d="M218.435 91.938C220.109 90.7173 222.923 92.3921 222.647 94.4538C224.687 95.0568 226.324 96.8431 226.749 98.9272C227.173 101.011 226.362 103.296 224.717 104.644C223.407 105.723 220.831 105.73 220.578 104.048C220.035 105.44 218.755 106.527 217.296 106.825C218.673 108.894 217.713 112.109 215.427 113.084C218.047 114.938 217.482 119.716 214.504 120.907C215.256 122.649 214.356 124.919 212.614 125.671C210.872 126.423 208.602 125.515 207.858 123.773C207.277 125.12 206.63 126.542 205.401 127.353C204.173 128.164 202.193 127.993 201.598 126.646C200.891 129.549 197.013 131.119 194.482 129.534C194.638 131.142 193.395 132.764 191.795 133.025C190.202 133.285 188.505 132.139 188.148 130.561C185.386 130.732 182.625 130.911 179.864 131.082C178.032 131.201 176.187 131.313 174.363 131.082C172.033 130.792 169.778 129.943 167.843 128.618C167.217 128.194 166.592 127.703 165.848 127.591C164.992 127.465 157.66 122.351 157.66 123.222C157.66 130.249 153.954 128.961 150.396 126.08C149.837 125.626 149.294 125.12 148.617 124.867C147.835 124.577 146.979 124.659 146.146 124.703C144.114 124.815 142.059 124.674 140.064 124.272C138.352 123.929 136.521 123.289 135.613 121.793C134.705 120.297 135.464 117.833 137.214 117.729C137.266 116.598 136.931 115.377 136.06 114.647C135.189 113.918 133.723 113.873 132.993 114.744C132.264 115.615 132.8 117.267 133.931 117.334C132.152 118.764 129.108 117.163 128.899 114.893C128.684 112.623 130.812 110.569 133.083 110.39C132.509 108.797 132.338 107.063 132.591 105.388C131.542 106.944 129.16 107.398 127.619 106.326C126.771 107.844 125.423 109.177 123.726 109.579C122.029 109.973 120.012 109.206 119.357 107.591C118.702 105.976 119.96 103.795 121.702 103.877C120.34 102.024 121.962 98.89 124.262 98.9347C123.741 96.7389 124.932 94.2603 126.979 93.3076C125.699 94.238 123.6 93.5979 123.064 92.1166C122.126 93.8584 119.536 93.6351 117.764 92.7642C116.372 92.0794 115.018 91.0597 115.263 89.0351C115.375 88.0899 115.859 87.2115 116.559 86.5714C118.218 85.0456 120.496 84.7925 122.662 84.5841C123.771 81.9045 124.426 79.0388 124.605 76.1434C122.186 76.3965 119.595 74.7738 119.119 72.392L131.207 65.0976C131.207 65.0976 159.015 61.1824 160.005 61.1973C161.002 61.2122 218.598 91.8487 218.598 91.8487C219.923 93.2704 222.551 92.6674 223.556 91.015C224.56 89.3626 224.196 87.1446 223.161 85.4996C222.126 83.8546 220.534 82.6637 218.97 81.5025C220.831 81.3983 222.811 81.2495 224.203 79.9246C225.074 79.0909 225.491 77.8405 225.037 76.724C224.389 75.1162 222.536 75.2055 221.367 74.2751C220.682 73.7318 220.295 72.9056 219.871 72.1389" fill="black"/>
<path d="M200.29 87.08C200.29 108.866 186.162 123.716 167.681 123.723C149.192 123.723 138.727 109.707 138.727 87.9285C138.727 66.1495 153.985 49.2012 172.474 49.2012C190.963 49.2012 200.29 65.301 200.297 87.0874" fill="white"/>
<path d="M146.764 79.9567C147.196 80.4182 148.67 79.7631 150.486 79.5622C152.302 79.3017 153.888 79.5845 154.193 79.0263C154.327 78.7583 154.036 78.2819 153.314 77.8726C152.607 77.4632 151.454 77.1803 150.203 77.3366C148.953 77.493 147.911 78.0512 147.323 78.6169C146.727 79.19 146.563 79.7259 146.757 79.9567" fill="black"/>
<path d="M164.912 98.3788C164.466 98.2746 164.026 98.0811 163.595 98.1928C163.126 98.2672 162.85 98.6468 162.449 98.8701C160.349 100.061 157.119 99.2869 156.516 96.7041C156.159 95.2527 156.978 93.8161 157.7 92.655C159.151 90.3475 159.821 87.6754 160.029 84.9512C160.126 86.7822 159.903 88.643 159.322 90.4071C158.846 92.1488 157.476 93.6003 157.082 95.342C156.39 98.2374 160 99.7856 162.315 98.617C162.724 98.4309 163.096 98.0588 163.572 98.0364C164.071 97.962 164.495 98.2225 164.912 98.3788Z" fill="black"/>
<path d="M201.719 74.1413C192.192 41.9938 154.425 41.2793 142.314 72.02C136.903 86.5641 137.372 108.738 151.075 118.555C156.605 122.656 163.669 123.356 170.346 123.55C173.732 123.646 177.193 123.505 180.387 122.277L180.431 122.381C177.268 123.766 173.755 124.115 170.331 124.13C166.892 124.071 163.423 124.078 160.037 123.408C140.744 119.731 135.846 98.5775 138.846 81.6888C140.528 71.5138 145.842 61.8748 153.941 55.4364C172.981 40.2744 197.022 51.6105 201.704 74.1338" fill="black"/>
<path d="M168.877 77.894C169.086 78.4969 171.296 78.2438 173.887 78.5862C176.484 78.8839 178.568 79.6655 178.918 79.1296C179.075 78.8765 178.717 78.3034 177.876 77.7079C177.043 77.1124 175.718 76.5467 174.162 76.3532C172.606 76.1597 171.177 76.3904 170.225 76.7626C169.264 77.1348 168.781 77.5962 168.87 77.8865" fill="black"/>
<path d="M188.76 104.654H162.664V145.302H188.76V104.654Z" fill="white"/>
<path d="M157.648 122.22C160.328 123.061 166.134 123.388 170.696 123.224C179.859 122.889 184.437 119.242 187.258 117.195C187.258 117.195 177.723 128.74 157.656 128.747V122.22H157.648Z" fill="black"/>
<path d="M190.044 86.8417C189.456 86.1867 188.712 85.2489 188.02 84.0133C187.982 83.9463 187.566 83.0233 187.112 82.0632C186.151 80.0311 185.794 77.5823 186.107 75.2228C184.871 73.4141 184.812 70.861 184.812 68.4866C184.812 67.0129 184.812 65.5317 184.812 64.0579C184.581 63.6857 184.35 63.3136 184.119 62.9488C184.045 64.0132 183.167 64.832 182.273 65.0255C181.38 65.219 180.487 64.9436 179.631 64.6682C178.783 64.3928 177.934 64.1174 177.085 63.8495C176.527 63.9388 175.962 64.0356 175.403 64.1249C175.716 65.5391 175.053 67.0203 174.413 68.3229C173.967 69.2235 173.453 70.1911 172.619 70.5112C171.786 70.8313 170.707 69.9306 171.056 68.9853C170.401 69.5734 169.404 69.1863 168.98 68.3973C168.555 67.6083 168.57 66.5812 168.712 65.6359C169.054 63.3359 170.081 61.155 171.563 59.5547C169.88 60.7903 168.198 62.0259 166.523 63.2615C166.151 63.5294 165.757 63.8123 165.333 63.8048C165.362 64.5864 164.544 65.1372 163.896 64.9734C163.256 64.8171 162.779 64.2068 162.355 63.6336C161.388 62.3385 160.457 60.2246 161.596 59.0411C161.09 58.8774 160.934 57.9767 161.335 57.5525C159.467 58.6541 157.592 59.7557 155.723 60.8498C156.274 60.6117 156.743 61.4825 156.549 62.1301C156.356 62.7776 155.805 63.187 155.299 63.5294C155.656 64.2737 155.768 65.1893 155.597 66.0378C156.624 65.3158 157.83 67.0278 157.368 68.3229C156.914 69.618 155.56 70.1763 154.398 70.1242C153.431 70.0795 152.322 69.4915 152.284 68.3527C151.131 68.4569 150.223 66.7747 150.781 65.5466C149.903 65.9932 149.359 64.445 149.441 63.3285C149.597 61.2816 150.156 59.257 151.056 57.4557C151.056 57.746 150.707 57.947 150.52 57.7683C150.334 57.5897 150.439 57.1506 150.684 57.0984C149.434 59.3389 148.183 61.5867 146.933 63.8271C145.943 65.6061 144.923 67.452 144.64 69.5213C144.521 70.3624 144.29 71.5086 143.568 71.5012C143.375 71.5012 143.196 71.397 143.025 71.2853C141.105 70.0423 139.772 67.787 139.028 65.3381C138.775 64.5194 138.589 63.6485 138.611 62.7628C138.671 60.9317 139.631 59.2793 139.981 57.478C140.137 56.6816 140.167 55.8629 140.427 55.1036C140.844 53.8829 141.775 53.0046 142.66 52.2008C145.816 49.3277 149.143 46.3578 153.014 45.5093C155.381 44.9883 157.8 45.3083 160.167 44.8171C161.633 44.5119 163.047 43.9015 164.484 43.4326C170.409 41.4825 176.646 41.8918 182.593 43.1349C185.921 43.8271 189.233 44.7947 192.188 46.6481C195.426 48.6876 198.113 51.7244 200.599 54.8952C204.305 59.6291 207.722 64.8245 209.717 70.8759C211.25 75.5205 211.898 80.8052 210.565 85.6731C209.225 90.541 205.586 94.8209 201.313 95.342C200.956 94.8879 200.442 94.1808 199.907 93.2653C197.13 88.5016 198.001 85.0107 196.289 84.0952C195.388 83.6114 193.662 83.79 190.059 86.8641" fill="black"/>
<path d="M200.166 81.3557C200.583 81.8768 200.531 82.7104 200.241 83.425L200.084 83.8046L200.486 83.7152C201.365 83.5292 202.362 83.9907 202.928 84.7796C203.277 85.2635 203.449 85.8589 203.367 86.4172C203.344 86.566 203.315 86.7372 203.337 86.9456C203.359 87.1541 203.501 87.3773 203.709 87.4741C204.133 87.6527 204.446 87.5188 204.729 87.5039C205.019 87.4667 205.228 87.5039 205.391 87.6527C205.555 87.809 205.667 88.0472 205.689 88.278C205.734 88.7618 205.488 89.253 205.242 89.7071L204.699 90.7343L205.548 89.9527C205.883 89.6401 206.567 90.042 206.605 90.5109C206.694 91.0096 206.448 91.5158 206.18 91.9326C205.987 92.2303 205.771 92.4909 205.555 92.729C205.659 92.7663 205.763 92.796 205.86 92.8407C205.533 92.6918 205.734 92.6993 205.979 92.7216C206.143 92.5355 206.307 92.3345 206.456 92.1112C206.746 91.6795 207.059 91.1213 206.962 90.444C206.917 90.109 206.686 89.7815 206.381 89.6103C206.232 89.5136 206.024 89.454 205.816 89.4614C205.987 89.1042 206.136 88.7097 206.098 88.2408C206.069 87.9133 205.935 87.5932 205.674 87.3401C205.414 87.0722 204.975 87.0201 204.677 87.0722C204.372 87.1019 204.052 87.1615 203.903 87.0796C203.746 87.0126 203.739 86.8042 203.798 86.4767C203.903 85.7919 203.687 85.0774 203.277 84.5117C202.689 83.7004 201.722 83.1793 200.747 83.2389C200.955 82.5243 200.963 81.7056 200.479 81.0878C200.181 80.7379 199.749 80.5667 199.325 80.5593C199.109 80.5519 198.886 80.604 198.685 80.7156C198.767 79.6959 198.581 78.7431 198.261 77.969C197.896 77.0312 197.353 76.3315 196.854 75.8254C196.348 75.3193 195.864 75.0215 195.529 74.8429C195.187 74.6791 194.993 74.6121 194.986 74.627C194.948 74.6866 195.745 74.962 196.69 75.9817C197.152 76.4878 197.65 77.1801 197.97 78.0807C198.305 78.9665 198.462 80.068 198.238 81.2069L197.933 82.7997L198.603 81.3334C198.834 80.8273 199.764 80.857 200.159 81.3557" fill="white"/>
<path d="M173.723 58.6022C173.797 58.5873 173.321 57.9919 173.611 56.9498C173.76 56.4586 174.147 55.8929 174.824 55.6919C175.472 55.4835 176.372 55.6473 176.893 56.2799L177.139 56.5777L177.258 56.2129C177.4 55.7812 177.608 55.3346 177.921 54.9699C178.218 54.6126 178.672 54.3223 179.119 54.3149C179.833 54.3075 180.548 55.0592 180.28 55.6175L180.689 55.7515C180.905 54.8434 181.508 54.1139 182.171 53.6971C182.841 53.2729 183.57 53.1686 184.158 53.2059C185.356 53.3026 185.937 53.8385 185.967 53.7641C185.982 53.7492 185.855 53.6078 185.572 53.4217C185.282 53.2431 184.82 53.0123 184.188 52.9305C183.563 52.8486 182.751 52.9305 181.985 53.3771C181.233 53.8162 180.541 54.6126 180.273 55.6473L180.682 55.7812C180.89 55.3346 180.727 54.7764 180.399 54.4414C180.079 54.0916 179.625 53.8683 179.126 53.8534C178.464 53.8683 177.943 54.2405 177.586 54.6647C177.228 55.0964 177.005 55.5877 176.856 56.0641L177.221 55.9896C176.536 55.2081 175.479 55.0592 174.713 55.3272C173.909 55.5952 173.484 56.3023 173.358 56.8531C173.224 57.4262 173.336 57.9026 173.455 58.1854C173.581 58.4757 173.708 58.5873 173.723 58.5799" fill="white"/>
<path d="M175.287 44.3177C175.287 44.3177 175.13 44.0721 174.788 43.6776C174.446 43.2906 173.865 42.7621 172.964 42.4271C172.079 42.0996 170.843 41.988 169.682 42.5983C168.543 43.1863 167.508 44.4517 167.389 46.0148L167.36 46.3572L167.106 46.119C166.437 45.4938 165.462 45.1216 164.457 45.1588C163.452 45.1811 162.447 45.665 161.799 46.5135C161.152 47.3471 160.876 48.4338 161.048 49.4015L161.115 49.7811L160.787 49.5801C159.864 49.0219 158.584 49.2526 157.936 49.9969C157.274 50.7487 157.214 51.8801 157.646 52.6393L157.907 53.0933L157.445 52.8477C156.463 52.3118 155.346 52.3341 154.483 52.6169C153.597 52.8775 152.942 53.3836 152.488 53.86C151.587 54.8574 151.572 55.7059 151.513 55.6687C151.498 55.6687 151.513 55.4752 151.602 55.1179C151.706 54.7681 151.915 54.2619 152.361 53.7409C152.808 53.2273 153.485 52.6765 154.408 52.3862C155.309 52.0736 156.5 52.0215 157.587 52.5872L157.386 52.7882C156.879 51.9173 156.924 50.6594 157.683 49.7811C158.443 48.9102 159.864 48.6422 160.958 49.2898L160.698 49.4685C160.504 48.3892 160.802 47.2057 161.509 46.2976C162.209 45.3672 163.34 44.8313 164.434 44.8164C165.529 44.7792 166.585 45.1886 167.322 45.8808L167.047 45.9924C167.196 44.2879 168.312 42.9556 169.54 42.3527C170.791 41.72 172.116 41.8689 173.024 42.241C173.954 42.6132 174.535 43.1938 174.862 43.6106C175.19 44.0423 175.272 44.3177 175.272 44.3177" fill="white"/>
<path d="M188.695 116.011C189.142 118.653 189.015 121.377 189.022 124.049C188.933 126.721 188.769 129.408 188.859 132.073C188.926 133.376 189.707 134.574 190.787 135.222C191.732 135.892 193.474 135.847 194.583 136.011C195.744 136.145 197.411 136.197 198.594 136.256C199.934 136.308 201.282 136.323 202.629 136.286C203.031 136.271 203.373 136.591 203.381 137.001C203.403 137.47 202.941 137.849 202.487 137.738C201.17 137.44 199.852 137.194 198.528 136.978C197.351 136.777 195.714 136.554 194.545 136.435L192.543 136.256C190.407 136.174 188.561 134.209 188.621 132.088C188.807 128.061 188.516 124.057 188.628 120.037C188.635 118.899 188.732 117.157 188.658 116.048V116.026C188.658 116.026 188.688 115.996 188.695 116.018" fill="black"/>
<path d="M193.766 84.5711C193.788 83.4993 202.705 81.8543 202.571 90.7937C202.437 99.5991 194.361 97.6415 194.346 97.3884C194.339 97.1353 193.766 84.5711 193.766 84.5711Z" fill="white"/>
<path d="M196.86 94.098C196.86 94.098 197.001 94.2096 197.232 94.3287C197.463 94.4478 197.857 94.5371 198.281 94.3734C199.137 94.0459 199.882 92.587 199.941 90.9941C199.971 90.1902 199.83 89.431 199.576 88.7909C199.338 88.1433 198.966 87.6893 198.534 87.5926C198.11 87.4809 197.798 87.7488 197.701 87.9945C197.589 88.2401 197.641 88.4188 197.597 88.4336C197.574 88.456 197.425 88.2848 197.492 87.9201C197.53 87.7489 197.626 87.5404 197.82 87.3767C198.013 87.2055 198.304 87.1236 198.601 87.1683C199.227 87.2278 199.777 87.8605 200.053 88.5602C200.365 89.2598 200.544 90.1233 200.507 91.0239C200.432 92.7954 199.569 94.4403 198.4 94.7902C197.827 94.939 197.358 94.7455 197.12 94.5371C196.875 94.3138 196.83 94.1203 196.86 94.1054" fill="black"/>
<path d="M208.021 68.4033C208.021 68.4033 208.118 68.3214 208.222 68.113C208.326 67.9045 208.453 67.577 208.475 67.1304C208.497 66.6913 208.408 66.1256 208.043 65.6046C207.693 65.091 207.076 64.6221 206.294 64.4955L206.421 64.637C206.398 64.0489 206.391 63.3716 206.086 62.7091C205.929 62.3742 205.676 62.0765 205.349 61.8755C205.021 61.6671 204.582 61.5629 204.173 61.6894L204.389 61.9127C204.634 61.2503 204.433 60.4762 203.972 59.9402C203.711 59.6276 203.376 59.3894 202.997 59.2555C202.625 59.114 202.178 59.1364 201.843 59.2331C201.493 59.315 201.277 59.2852 201.061 59.0247C200.846 58.7642 200.563 58.5111 200.258 58.3548C199.64 58.0125 198.948 58.0199 198.382 58.0422C197.801 58.0571 197.265 58.0645 196.774 58.0943C195.784 58.139 194.98 58.3325 194.482 58.593C194.229 58.7121 194.057 58.8461 193.938 58.9428C193.827 59.0396 193.775 59.0992 193.782 59.1066C193.804 59.1364 194.028 58.9205 194.534 58.7196C195.032 58.5037 195.807 58.3623 196.782 58.3399C197.28 58.3399 197.816 58.34 198.389 58.3325C198.962 58.3325 199.573 58.3325 200.101 58.6377C200.369 58.7865 200.593 58.9801 200.816 59.248C200.935 59.3746 201.091 59.5383 201.315 59.5904C201.53 59.6425 201.731 59.6053 201.91 59.5681C202.565 59.3597 203.25 59.6276 203.696 60.1635C204.091 60.625 204.255 61.2726 204.054 61.7936L203.927 62.1211L204.262 62.0169C204.872 61.8234 205.535 62.3072 205.788 62.8506C206.063 63.4237 206.086 64.0638 206.123 64.6444V64.7635L206.249 64.7784C206.942 64.8751 207.515 65.2771 207.85 65.7385C208.192 66.2 208.304 66.7136 208.304 67.123C208.304 67.9641 207.969 68.3809 208.021 68.3958" fill="white"/>
<path d="M158.151 140.79L157.891 123.477" stroke="black" stroke-width="2.02" stroke-miterlimit="10" stroke-linecap="round"/>
<path d="M157.38 98.8837C156.866 98.5562 156.301 98.4445 155.772 98.5785C155.519 98.6306 155.162 98.7869 154.76 98.5934C153.882 97.9756 154.008 96.7177 154.321 95.8468C154.552 95.2662 154.931 94.7675 155.37 94.373C154.738 95.5342 154.112 97.1345 154.983 98.184C155.125 98.2956 155.393 98.2287 155.713 98.1989C156.36 98.1096 157.015 98.4222 157.38 98.8911" fill="black"/>
<path d="M165.914 94.8652C166.763 95.5277 167.373 96.7335 167.075 97.8202C166.859 98.4529 166.405 98.959 165.914 99.3833C166.227 98.6687 166.755 97.9393 166.658 97.1652C166.554 96.3762 166.256 95.6096 165.914 94.8652Z" fill="black"/>
<path d="M201.753 93.2871C208.228 93.9272 212.017 101.996 209.107 107.653C207.201 111.791 201.968 113.488 197.979 111.27C192.039 108.352 190.238 99.2938 195.292 94.7385C195.88 94.2175 196.684 95.0809 196.126 95.6317C194.816 96.9417 193.997 98.7281 193.818 100.596C193.379 104.288 195.314 108.27 198.626 110.02C201.954 111.933 206.382 110.585 208.124 107.146C210.975 101.929 207.707 94.411 201.753 93.2871Z" fill="url(#colorOne)"/>
<path d="M144.16 111.457C141.793 112.96 138.704 112.633 136.277 111.516C133.799 110.243 132.191 107.735 131.67 105.137C130.554 100.031 134.022 94.1213 139.329 93.377C134.632 94.7465 131.692 100.18 132.95 104.862C133.471 107.14 134.923 109.194 136.947 110.214C138.935 111.151 141.555 111.457 143.527 110.415C144.197 110.042 144.793 111.032 144.167 111.457" fill="url(#colorOne)"/>
<g style="mix-blend-mode:multiply">
<mask id="mask7_5988_6899" style="mask-type:luminance" maskUnits="userSpaceOnUse" x="129" y="157" width="10" height="57">
<path d="M138.364 157.285H129.797V213.579H138.364V157.285Z" fill="white"/>
</mask>
<g mask="url(#mask7_5988_6899)">
<path d="M137.05 213.586C131.832 205.279 129.19 195.179 129.904 185.376C130.09 182.89 131.527 180.746 132.323 178.424C134.057 173.869 135.219 169.127 136.469 164.416L138.263 157.285L138.36 157.3C138.121 159.741 137.779 162.183 137.303 164.594C136.402 169.433 135.055 174.211 133.03 178.714C132.063 180.955 130.44 182.89 130.232 185.413C129.599 190.274 130.946 195.134 132.137 199.801C133.395 204.505 134.966 209.128 137.132 213.526L137.042 213.579L137.05 213.586Z" fill="black"/>
</g>
</g>
<path d="M66.4618 346.875L583.036 347.955C583.915 347.955 584.625 348.847 584.625 349.941C584.625 351.036 583.915 351.92 583.036 351.92L66.4618 353C65.1058 353 64 351.637 64 349.941C64 348.245 65.0999 346.875 66.4618 346.875Z" fill="black"/>
<path d="M173.966 346.831C173.294 342.541 176.262 312.519 177.83 298.044C176.618 310.744 175.074 335.81 174.453 346.755L173.966 346.831Z" fill="#D9D9D9"/>
<script type="text/ecmascript" xlink:href="https://dev.w3.org/SVG/modules/ref/master/ref2.js"></script></svg>
