<?xml version="1.0" encoding="utf-8"?>
<svg version="1.2" baseProfile="tiny-ps" xmlns="http://www.w3.org/2000/svg" viewBox="0 0 256 256" width="256" height="256">
<title>Escudo Nacional Argentino</title>
  <rect width="256" height="256" fill="#242c4f"/>
  <path d="M132.71,61.31c-1.04.35-1.6,1.06-1.63,1.1l-.11.15.12.14c.77.91,1.73,1.2,2.66,1.2,1.75,0,3.38-1.07,3.41-1.08l.26-.17-.25-.19c-1.95-1.52-3.5-1.46-4.45-1.13ZM131.57,62.55c.2-.21.64-.59,1.29-.81-.09.4-.21,1.18.14,1.62-.51-.12-1-.36-1.42-.81ZM134.69,63.34c.41-.44.32-1.2.24-1.6.51.15,1.08.42,1.69.86-.38.21-1.1.56-1.93.74Z" fill="#f4f6ff"/>
  <path d="M124.43,62.7l.12-.14-.11-.15s-.59-.74-1.63-1.1c-.95-.32-2.5-.39-4.45,1.13l-.25.19.26.17s1.65,1.08,3.41,1.08c.92,0,1.88-.3,2.66-1.2ZM118.9,62.61c.61-.44,1.18-.71,1.69-.86-.09.4-.18,1.16.24,1.6-.83-.17-1.55-.53-1.93-.74ZM122.53,63.36c.35-.44.23-1.22.14-1.62.65.22,1.09.6,1.29.81-.43.45-.92.69-1.42.81Z" fill="#f4f6ff"/>
  <path d="M133.74,58.14c-3.57,0-5.61,1.95-5.61,5.35,0,3.58,1.34,3.93,2.04,4.11.09.02.19.04.29.07.6.12.97.23.97.92,0,.28-.13.48-.4.58-.47.19-1.17.03-1.56-.36l-.16-.16-.16.17s-.44.44-1.38.44c-.94,0-1.36-.42-1.38-.44l-.16-.17-.17.17c-.4.39-1.1.56-1.57.36-.26-.11-.4-.31-.4-.58,0-.68.37-.79.97-.92.1-.02.2-.04.35-.08.65-.17,1.99-.52,1.99-4.1s-2.05-5.35-5.61-5.35c-3.28,0-5.4,2.65-5.48,2.76l.36.28s2.06-2.59,5.13-2.59c3.33,0,5.16,1.74,5.16,4.89s-1.11,3.52-1.65,3.66h-.05c-.08.04-.17.06-.27.07-.53.11-1.33.27-1.33,1.36,0,.46.25.83.68,1,.58.24,1.37.1,1.9-.32.24.17.74.44,1.54.44,0,0,0,0,0,0,.8,0,1.3-.27,1.54-.44.36.28.83.44,1.27.44.22,0,.43-.04.63-.12.43-.18.68-.54.68-1,0-1.09-.8-1.25-1.33-1.36-.09-.02-.18-.04-.27-.06h-.05c-.53-.15-1.65-.44-1.65-3.67s1.83-4.89,5.16-4.89c3.05,0,5.11,2.56,5.13,2.59l.36-.28c-.09-.11-2.2-2.76-5.48-2.76Z" fill="#f4f6ff"/>
  <path d="M123.31,218.17s0,0,0,0c.02.01.04.03,0,0Z" fill="#f4f6ff"/>
  <path d="M133.38,217.41c2.09-1.99,3.88-4.53,4.04-6.54,0-.03,0-.09,0-.1,0-1.34-.12-2.89-1.04-4.12-.29-.37-1.04-.52-1.49-.41-.36.09-3.77.67-7.24.59-3.88-.09-6.33-.5-6.69-.59-.45-.11-1.21.04-1.49.41-.92,1.23-1.04,2.77-1.04,4.12,0,0,0,.02,0,.03,0,.02,0,.05,0,.07.16,2.01,1.95,4.56,4.04,6.54-3.55,1.07-11.3,4.67-14,9.2-.08.14-.07.32.04.43.11.12.28.15.43.08,1.35-.64,2.66-.74,3.8-.29,1.17.47,2.11,1.53,2.71,3.07.05.14.19.23.34.23h0c.15,0,.29-.1.34-.24,1.52-4.22,6.47-9.06,8.69-10.52.15.53.62.91,1.23.99.55.07,1.11.11,1.68.12h0s.02,0,.02,0c.05,0,.11,0,.16,0,.05,0,.1,0,.16,0,0,0,.02,0,.03,0h0c.57-.02,1.13-.06,1.68-.13.61-.08,1.08-.46,1.23-.99,2.23,1.46,7.18,6.3,8.69,10.52.05.14.19.24.34.24h0c.15,0,.29-.09.34-.23.6-1.54,1.54-2.6,2.71-3.07,1.13-.45,2.45-.35,3.8.29.15.07.32.03.43-.08.11-.12.13-.3.04-.43-2.69-4.53-10.44-8.13-14-9.2ZM119.67,208.17c5.75,1.35,11.05,1.24,16.67-.03.05.06.26.97.29,1.38-6.1,1.53-11.45,1.47-17.4.03.08-.52.24-.95.44-1.38ZM113.97,226.69c-.26-.23-1.14-.66-2.01-.8,3.26-3.03,7.55-5.65,11.35-7.72-.02-.01-.03-.03,0,0,.09.1.33.28.53.43-2.9,1.77-7.93,5.32-9.88,8.09ZM124.64,217.52c-1.7-1.54-3.02-3.38-4.07-5.43.27.08,1.39.33,1.61.4.57,1.44,1.42,2.74,2.53,3.91-.02.23-.06.85-.07,1.13ZM128.86,219.73h-1.88v-4.42h1.88v4.42ZM130.66,215.09c-.22-.21-.52-.35-.86-.41-.57-.09-3.18-.09-3.75,0-.35.06-.65.2-.86.41-.3-.73-.5-1.52-.57-2.17,1.07.15,5.54.15,6.62,0-.07.66-.27,1.44-.57,2.17ZM131.13,216.4c1.11-1.17,1.96-2.47,2.53-3.91,0,.02,1.6-.37,1.61-.4-1.04,2.05-2.37,3.88-4.07,5.43,0-.44-.04-.66-.07-1.13ZM141.91,226.66c-1.96-2.78-7-6.33-9.89-8.08.26-.23.34-.27.53-.43,3.8,2.07,8.11,4.69,11.38,7.73-.55.07-1.92.67-2.02.79Z" fill="#f4f6ff"/>
  <path d="M172.23,183.97c.02.1.04.2.06.3.13-.07.26-.13.38-.2,1.58-.82,2.84-1.46,3.71-3.28.32-.66.52-1.55.66-2.51l.12-.97c.12-1.11.16-2.19.2-3.17v-.11c.01-.12.02-.25.02-.37-.09.08-.19.16-.29.25-.78.68-1.7,1.48-2.53,2.3l-.63.65c-.65.7-1.19,1.39-1.5,2.03-.88,1.84-.6,3.23-.23,4.99l.02.1Z" fill="#f4f6ff"/>
  <path d="M179.83,108.46c-.12-.16-.25-.31-.36-.46-.02.16-.05.32-.07.48-.31,2.11-.74,4.99-.28,6.7.52,1.95,1.64,2.81,3.04,3.9.12.09.24.19.37.29.06-.15.12-.3.18-.45.66-1.62,1.19-2.91.67-4.84-.45-1.68-2.24-3.96-3.54-5.61Z" fill="#f4f6ff"/>
  <path d="M173.6,105.07c1.31,1.17,2.54,1.43,4.01,1.6-1.34-.75-2.49-1.57-3.31-3.34-.39-.85-.6-1.96-.73-3.14-1.04-.44-2.15-.82-3.15-1.17-.16-.05-.31-.11-.46-.16l.11.24c.92,2,2.19,4.75,3.53,5.97Z" fill="#f4f6ff"/>
  <path d="M182.11,159.25c1.25-1.26,2.24-2.26,2.51-4.27.1-.72.02-1.63-.15-2.6l-.19-.97c-.24-1.09-.53-2.12-.79-3.07l-.04-.13c-.03-.11-.06-.22-.09-.33l-.2.33c-.53.89-1.16,1.93-1.69,2.97l-.4.81c-.4.86-.7,1.69-.79,2.4-.27,2.02.44,3.25,1.33,4.81.07.12.13.23.2.35.09-.09.18-.18.26-.27l.04-.04Z" fill="#f4f6ff"/>
  <path d="M184.16,117.12c-.11.44-.26.88-.43,1.31.97-1,1.71-1.96,1.96-3.62.26-1.79-.52-4.71-1.09-6.84l-.07-.25c-.08.13-.17.27-.25.41v.03c-.54.86-1.13,1.82-1.65,2.77.68,1.02,1.24,2.03,1.48,2.95.3,1.12.32,2.15.05,3.24Z" fill="#f4f6ff"/>
  <path d="M177.88,171.93c.04.1.08.21.11.31.09-.06.17-.12.26-.18l.09-.07c1.45-1.04,2.59-1.86,3.19-3.79.21-.7.29-1.61.28-2.58l-.03-.97c-.05-1.12-.17-2.19-.27-3.17l-.05-.47c-.07.08-.13.15-.2.23l-.05.06c-.67.78-1.46,1.71-2.17,2.65l-.52.73c-.54.78-.97,1.55-1.18,2.23-.6,1.94-.11,3.28.51,4.97l.03.07Z" fill="#f4f6ff"/>
  <path d="M185.58,138.72l-.26-.92c-.33-1.07-.71-2.09-1.06-3.02l-.05-.14c-.04-.11-.08-.21-.12-.31l-.17.34c-.46.93-.99,2.02-1.44,3.1l-.33.84c-.32.89-.55,1.74-.59,2.46-.09,2.03.71,3.2,1.74,4.69.07.11.15.22.23.33.08-.09.16-.19.23-.28l.04-.05c1.14-1.36,2.04-2.44,2.14-4.46.03-.73-.12-1.63-.37-2.57Z" fill="#f4f6ff"/>
  <path d="M180.32,104.08c-.03.46-.11.91-.2,1.36.79-1.14,1.35-2.21,1.32-3.89-.05-1.81-1.31-4.56-2.23-6.56l-.11-.24c-.06.15-.12.29-.18.45v.03c-.39.94-.81,1.98-1.15,3.01.84.89,1.56,1.8,1.95,2.66.49,1.06.67,2.07.59,3.19Z" fill="#f4f6ff"/>
  <path d="M180.55,151.24c-.65-.92-1.39-1.84-2.04-2.66-.1-.13-.21-.26-.3-.38l-.03.26c-.29,2.18-.68,5.18-.2,6.92.49,1.69,1.39,2.56,2.54,3.47-.74-1.34-1.28-2.64-1.02-4.58.12-.92.53-1.98,1.06-3.05Z" fill="#f4f6ff"/>
  <path d="M184.15,132.86c.07-.13.14-.25.22-.37.89-1.54,1.6-2.75,1.36-4.76-.09-.73-.4-1.59-.8-2.48l-.36-.77c-.5-1-1.11-2.04-1.6-2.9l-.24-.41c-.03.1-.06.21-.09.31l-.02.05c-.29.99-.64,2.15-.89,3.29l-.18.88c-.17.93-.25,1.81-.16,2.52.25,2.02,1.24,3.04,2.5,4.33.09.1.19.19.28.29Z" fill="#f4f6ff"/>
  <path d="M177.38,116.97c1.1,1.38,2.27,1.83,3.68,2.24-1.2-.96-2.2-1.96-2.7-3.84-.24-.9-.27-2.03-.2-3.22-.95-.6-1.99-1.17-2.91-1.67-.15-.08-.29-.16-.43-.23l.07.25c.57,2.13,1.36,5.04,2.48,6.47Z" fill="#f4f6ff"/>
  <path d="M168.89,192.61c.45-.58.83-1.41,1.17-2.32l.34-1c.34-1.07.58-2.03.83-2.99l.03-.12c.03-.12.06-.23.09-.34l-.34.19c-.9.5-1.97,1.09-2.95,1.73l-.75.51c-.77.55-1.45,1.12-1.89,1.68-1.24,1.62-1.25,3.04-1.26,4.84,0,.13,0,.27,0,.4.14-.04.28-.08.42-.12,1.72-.47,3.08-.85,4.31-2.46Z" fill="#f4f6ff"/>
  <path d="M186.49,127.64c.14,1.15.01,2.17-.4,3.22-.17.42-.38.83-.61,1.24,1.1-.85,1.96-1.7,2.45-3.31.51-1.74.14-4.73-.12-6.92l-.03-.26c-.1.12-.2.25-.31.37l-.02.02c-.64.78-1.36,1.64-2.01,2.52.53,1.1.94,2.18,1.05,3.12Z" fill="#f4f6ff"/>
  <path d="M173.69,175.98c-.33-1.08-.74-2.17-1.12-3.16-.06-.16-.12-.31-.17-.45l-.11.23c-.95,1.99-2.26,4.71-2.34,6.53-.07,1.75.52,2.86,1.34,4.08-.28-1.5-.39-2.91.46-4.67.4-.84,1.12-1.71,1.95-2.57Z" fill="#f4f6ff"/>
  <path d="M180.59,128.33c-.11-.92.02-2.05.26-3.21-.86-.73-1.8-1.43-2.65-2.06-.13-.1-.26-.2-.39-.29l.03.26c.27,2.19.64,5.18,1.55,6.76.89,1.51,1.99,2.13,3.33,2.73-1.05-1.12-1.9-2.24-2.14-4.18Z" fill="#f4f6ff"/>
  <path d="M181.58,137.91c-.73-.86-1.54-1.71-2.26-2.47-.11-.12-.23-.24-.33-.35v.26c-.11,2.2-.25,5.22.38,6.92.63,1.64,1.6,2.43,2.83,3.25-.85-1.28-1.5-2.53-1.41-4.47.04-.93.36-2.01.79-3.12Z" fill="#f4f6ff"/>
  <path d="M174.92,167.5c.2,1.74.94,2.75,1.92,3.84-.5-1.45-.82-2.82-.24-4.68.28-.89.85-1.86,1.55-2.83-.49-1.02-1.06-2.04-1.57-2.96-.08-.14-.16-.28-.24-.42l-.08.25c-.65,2.11-1.54,4.99-1.35,6.8Z" fill="#f4f6ff"/>
  <path d="M141.43,209.8c1.73.42,3.1.75,4.97-.05.67-.29,1.41-.82,2.16-1.46l.7-.63c.82-.76,1.59-1.57,2.28-2.29l.13-.13c.07-.07.14-.14.21-.22h-.38c-1.04,0-2.26,0-3.43.08l-.9.08c-.95.1-1.82.27-2.47.56-1.88.81-2.58,2.04-3.47,3.61-.07.12-.13.23-.2.35.12.03.24.06.35.09l.07.02Z" fill="#f4f6ff"/>
  <path d="M180.94,176.88c-.96.31-2.04.66-3.05,1.05-.15,1.21-.39,2.34-.8,3.2-.5,1.05-1.16,1.84-2.08,2.5-.37.27-.77.5-1.18.72,1.39-.13,2.57-.39,3.85-1.48,1.37-1.2,2.68-3.92,3.63-5.91l.11-.23c-.15.05-.3.1-.46.15h-.03Z" fill="#f4f6ff"/>
  <path d="M174.14,189.72c-1.01.11-2.13.23-3.2.41-.4,1.15-.86,2.21-1.44,2.97-.71.92-1.52,1.56-2.55,2.02-.42.19-.86.33-1.3.46,1.39.15,2.6.15,4.07-.67,1.58-.89,3.43-3.29,4.78-5.04l.16-.21c-.16.02-.32.03-.48.05h-.04Z" fill="#f4f6ff"/>
  <path d="M164.54,201.08c-1.01-.13-2.13-.28-3.21-.36-.66,1.03-1.36,1.95-2.1,2.54-.91.73-1.85,1.16-2.96,1.36-.45.08-.91.12-1.38.15,1.31.48,2.49.75,4.12.31,1.75-.49,4.11-2.39,5.84-3.78l.2-.16c-.11-.02-.22-.03-.34-.04l-.17-.02Z" fill="#f4f6ff"/>
  <path d="M155.51,198.64c.73-.58,1.75-1.07,2.87-1.48.17-1.11.27-2.28.36-3.33v-.08c.02-.14.03-.27.04-.4l-.21.17c-1.72,1.39-4.08,3.28-4.94,4.88-.82,1.56-.77,2.81-.56,4.26.4-1.48.91-2.79,2.43-4.02Z" fill="#f4f6ff"/>
  <path d="M160.42,200.67l.51-.8c.59-.95,1.11-1.93,1.58-2.81l.05-.1c.06-.11.11-.22.17-.32l-.37.1c-1,.28-2.17.6-3.28.99l-.85.32c-.88.35-1.68.75-2.23,1.2-1.59,1.28-1.93,2.66-2.37,4.4-.03.13-.07.26-.1.39.15,0,.29,0,.43-.01,1.78-.06,3.19-.1,4.77-1.38.57-.46,1.14-1.17,1.69-1.98Z" fill="#f4f6ff"/>
  <path d="M188.61,135.93c-.77.66-1.62,1.4-2.4,2.15.33,1.17.56,2.31.51,3.25-.05,1.16-.35,2.15-.94,3.11-.24.39-.51.76-.8,1.12,1.23-.66,2.22-1.35,2.97-2.86.79-1.63.93-4.65,1.04-6.85v-.26s-.38.33-.38.33Z" fill="#f4f6ff"/>
  <path d="M185.45,163.67c-.91.45-1.92.95-2.86,1.49.03,1.22-.04,2.38-.32,3.28-.34,1.11-.88,1.99-1.69,2.78-.33.32-.69.6-1.06.89,1.35-.33,2.49-.76,3.59-2.03,1.17-1.38,2.07-4.27,2.72-6.37l.08-.25c-.14.07-.28.14-.43.22h-.03Z" fill="#f4f6ff"/>
  <path d="M174.31,99.66c.02.16.05.67.1.9.12.94.31,1.8.61,2.45.85,1.85,2.11,2.52,3.7,3.38.12.06.24.13.36.19.03-.13.06-.27.09-.4v-.02c.39-1.73.7-3.1-.15-4.94-.3-.66-.86-1.39-1.51-2.12-.18-.21-.45-.5-.62-.66-.78-.8-1.64-1.58-2.38-2.25l-.1-.1c-.09-.08-.17-.15-.25-.23v.38c.03,1.03.06,2.25.16,3.41Z" fill="#f4f6ff"/>
  <path d="M187.72,149.86c-.82.59-1.73,1.25-2.57,1.94.24,1.2.36,2.35.24,3.28-.15,1.15-.53,2.11-1.2,3.02-.27.37-.58.71-.9,1.05,1.28-.55,2.33-1.16,3.2-2.6.93-1.56,1.32-4.55,1.62-6.74l.03-.26c-.13.09-.26.19-.39.28l-.03.02Z" fill="#f4f6ff"/>
  <path d="M152.42,209.77c-.93-.4-1.97-.84-3-1.2-.91.81-1.84,1.51-2.71,1.89-.87.37-1.7.55-2.59.55-.21,0-.42,0-.63-.03-.46-.04-.91-.13-1.36-.23,1.13.8,2.19,1.39,3.88,1.39,1.82,0,4.6-1.21,6.64-2.08l.24-.1c-.15-.06-.29-.12-.45-.19h-.02Z" fill="#f4f6ff"/>
  <path d="M144.38,205.02c.86-.37,1.98-.56,3.17-.66.46-1.03.87-2.13,1.24-3.11.06-.15.11-.31.17-.45l-.24.1c-2.03.88-4.81,2.08-6.07,3.39-1.21,1.28-1.49,2.5-1.69,3.95.78-1.32,1.63-2.45,3.42-3.22Z" fill="#f4f6ff"/>
  <path d="M167.24,187.35c-.1-1.12-.28-2.28-.44-3.32-.03-.16-.05-.32-.07-.48l-.16.21c-1.35,1.75-3.19,4.15-3.64,5.91-.43,1.7-.08,2.91.46,4.27.04-1.53.22-2.93,1.41-4.47.57-.74,1.45-1.45,2.44-2.12Z" fill="#f4f6ff"/>
  <path d="M168.81,84.15v.37c.04,1.38.13,3.07.29,4.55l.18.97c.1.46.21.78.37,1.13.82,1.81,2.03,2.48,3.55,3.32l.41.22c.33-1.51.68-3.62-.07-5.28-.72-1.59-2.84-3.54-4.39-4.97-.12-.11-.23-.21-.34-.32Z" fill="#f4f6ff"/>
  <path d="M172.52,94.99c-1.46-.8-2.71-1.6-3.57-3.5-.24-.52-.41-1.15-.53-1.84-1.39-.42-3.02-.71-4.34-.94-.16-.03-.31-.05-.46-.08l.21.31c1.19,1.77,2.83,4.2,4.31,5.16,1.54,1,2.83,1,4.39.89Z" fill="#f4f6ff"/>
  <path d="M78.63,174.14c.04.99.09,2.06.2,3.17l.12.97c.14.97.35,1.85.66,2.51.88,1.82,2.13,2.47,3.71,3.28.13.07.25.13.38.2.02-.1.04-.2.06-.3l.02-.1c.36-1.76.65-3.15-.23-4.99-.31-.64-.85-1.34-1.5-2.03l-.63-.65c-.83-.82-1.75-1.62-2.53-2.3-.1-.08-.19-.17-.29-.25,0,.12.01.24.02.37v.11Z" fill="#f4f6ff"/>
  <path d="M76.53,108c-.12.15-.24.3-.36.46-1.3,1.66-3.09,3.93-3.54,5.61-.52,1.94,0,3.22.67,4.84.06.15.12.3.18.45.12-.1.25-.19.37-.29,1.41-1.09,2.52-1.95,3.04-3.9.46-1.71.03-4.59-.28-6.7-.02-.17-.05-.33-.07-.48Z" fill="#f4f6ff"/>
  <path d="M81.7,103.33c-.81,1.77-1.97,2.59-3.31,3.34,1.47-.16,2.7-.42,4.01-1.6,1.35-1.22,2.61-3.97,3.53-5.97l.11-.24c-.15.05-.3.11-.46.16-1,.35-2.11.73-3.15,1.17-.13,1.18-.34,2.29-.73,3.14Z" fill="#f4f6ff"/>
  <path d="M73.89,159.25l.04.04c.09.09.18.18.26.27.07-.12.13-.24.2-.35.89-1.56,1.6-2.8,1.33-4.81-.09-.71-.39-1.54-.79-2.4l-.4-.81c-.53-1.04-1.16-2.08-1.69-2.97l-.2-.33c-.03.11-.06.22-.09.33l-.04.13c-.27.95-.56,1.97-.79,3.07l-.19.97c-.17.96-.25,1.87-.15,2.59.27,2.01,1.25,3.01,2.51,4.27Z" fill="#f4f6ff"/>
  <path d="M72.26,118.43c-.17-.44-.32-.87-.43-1.31-.27-1.09-.25-2.12.05-3.24.25-.91.81-1.93,1.48-2.95-.51-.96-1.1-1.91-1.63-2.77l-.02-.03c-.09-.14-.17-.28-.25-.41l-.07.25c-.57,2.13-1.35,5.05-1.1,6.84.25,1.66.99,2.62,1.96,3.62Z" fill="#f4f6ff"/>
  <path d="M77.65,172l.09.07c.08.06.17.12.26.18.04-.11.08-.21.11-.31l.02-.07c.62-1.69,1.11-3.02.51-4.97-.21-.68-.65-1.45-1.18-2.23l-.53-.73c-.7-.94-1.49-1.86-2.17-2.65l-.05-.06c-.07-.08-.13-.15-.2-.23l-.05.47c-.1.98-.22,2.05-.27,3.17l-.03.97c0,.98.07,1.89.29,2.58.6,1.93,1.74,2.76,3.19,3.79Z" fill="#f4f6ff"/>
  <path d="M70.05,141.3c.09,2.02,1,3.1,2.14,4.46l.04.05c.08.09.15.18.23.28.08-.11.15-.22.23-.33,1.03-1.49,1.83-2.66,1.74-4.69-.03-.71-.26-1.57-.59-2.46l-.33-.84c-.45-1.08-.98-2.17-1.44-3.1l-.17-.34c-.04.1-.08.21-.12.31l-.05.14c-.35.93-.73,1.95-1.06,3.02l-.26.92c-.25.95-.41,1.84-.37,2.57Z" fill="#f4f6ff"/>
  <path d="M75.68,104.08c-.08-1.12.11-2.13.59-3.19.4-.86,1.12-1.77,1.95-2.66-.35-1.03-.76-2.07-1.14-3.01v-.03c-.07-.15-.13-.3-.19-.45l-.11.24c-.92,2-2.18,4.75-2.23,6.56-.03,1.68.54,2.74,1.32,3.89-.09-.46-.17-.91-.2-1.36Z" fill="#f4f6ff"/>
  <path d="M78.02,155.39c.49-1.75.09-4.74-.2-6.93l-.03-.26c-.1.12-.2.25-.3.38-.66.82-1.39,1.74-2.04,2.66.52,1.07.93,2.12,1.06,3.05.26,1.93-.28,3.23-1.02,4.58,1.15-.91,2.06-1.78,2.54-3.47Z" fill="#f4f6ff"/>
  <path d="M71.08,125.25c-.4.89-.71,1.75-.8,2.48-.25,2.01.46,3.22,1.36,4.76.07.12.14.25.22.37.1-.1.19-.2.28-.29,1.26-1.29,2.25-2.31,2.5-4.33.09-.71,0-1.59-.17-2.52l-.18-.88c-.26-1.14-.6-2.3-.89-3.29l-.02-.05c-.03-.1-.06-.21-.09-.31l-.24.41c-.5.85-1.1,1.9-1.6,2.9l-.36.77Z" fill="#f4f6ff"/>
  <path d="M74.94,119.21c1.42-.41,2.59-.86,3.68-2.24,1.12-1.43,1.91-4.34,2.48-6.47l.07-.25c-.14.08-.28.15-.43.23-.92.51-1.96,1.07-2.91,1.67.07,1.19.05,2.32-.19,3.22-.51,1.88-1.5,2.88-2.7,3.84Z" fill="#f4f6ff"/>
  <path d="M84.77,186.3c.25.96.49,1.92.83,2.99l.34,1c.34.92.72,1.74,1.17,2.32,1.24,1.61,2.59,1.98,4.31,2.46.14.04.28.08.42.12,0-.14,0-.27,0-.4-.01-1.8-.02-3.22-1.26-4.84-.44-.57-1.11-1.14-1.89-1.68l-.75-.51c-.98-.64-2.05-1.23-2.95-1.73l-.34-.19c.03.11.06.23.09.34l.03.12Z" fill="#f4f6ff"/>
  <path d="M70.52,132.1c-.23-.41-.44-.82-.61-1.24-.42-1.04-.55-2.07-.41-3.22.11-.94.53-2.02,1.05-3.12-.64-.88-1.36-1.74-2.01-2.52l-.02-.02c-.11-.13-.21-.25-.31-.37l-.03.26c-.27,2.19-.63,5.19-.13,6.92.48,1.61,1.35,2.46,2.45,3.31Z" fill="#f4f6ff"/>
  <path d="M84.71,183.22c.81-1.22,1.4-2.33,1.33-4.08-.08-1.81-1.39-4.54-2.34-6.53l-.11-.23c-.06.15-.11.3-.17.45-.37.98-.78,2.08-1.12,3.16.83.85,1.55,1.73,1.95,2.57.84,1.76.74,3.16.46,4.67Z" fill="#f4f6ff"/>
  <path d="M73.28,132.5c1.35-.6,2.44-1.21,3.33-2.73.91-1.57,1.28-4.57,1.55-6.76l.03-.26c-.13.1-.26.19-.39.29-.84.63-1.79,1.33-2.65,2.06.24,1.17.37,2.29.26,3.21-.24,1.93-1.09,3.06-2.14,4.18Z" fill="#f4f6ff"/>
  <path d="M76.63,142.26c.63-1.7.49-4.72.39-6.92v-.26c-.12.11-.23.23-.35.35-.73.76-1.54,1.61-2.26,2.47.43,1.11.75,2.2.79,3.12.09,1.95-.56,3.2-1.4,4.47,1.23-.81,2.2-1.6,2.83-3.25Z" fill="#f4f6ff"/>
  <path d="M81.08,167.5c.19-1.8-.7-4.69-1.35-6.8l-.08-.25c-.08.14-.16.28-.24.42-.51.92-1.09,1.94-1.57,2.96.7.97,1.28,1.94,1.55,2.83.58,1.86.26,3.23-.24,4.68.98-1.09,1.73-2.1,1.92-3.84Z" fill="#f4f6ff"/>
  <path d="M111.32,205.74c-.66-.28-1.53-.45-2.47-.56l-.9-.08c-1.17-.08-2.39-.08-3.43-.08h-.38c.07.07.14.14.21.21l.12.13c.68.72,1.45,1.52,2.28,2.29l.7.63c.74.64,1.49,1.17,2.16,1.46,1.87.8,3.24.47,4.97.05l.07-.02c.12-.03.23-.06.35-.09-.07-.12-.13-.24-.2-.35-.89-1.57-1.59-2.8-3.47-3.61Z" fill="#f4f6ff"/>
  <path d="M80.99,183.63c-.92-.66-1.58-1.45-2.08-2.5-.41-.85-.65-1.99-.8-3.2-1.01-.39-2.09-.74-3.05-1.05h-.03c-.16-.06-.31-.11-.46-.16l.11.24c.96,1.99,2.27,4.71,3.63,5.91,1.28,1.1,2.46,1.35,3.85,1.48-.41-.22-.81-.45-1.18-.72Z" fill="#f4f6ff"/>
  <path d="M86.5,193.09c-.58-.75-1.05-1.81-1.44-2.97-1.07-.18-2.19-.3-3.2-.41h-.04c-.16-.02-.32-.04-.48-.06l.16.21c1.35,1.75,3.19,4.15,4.78,5.04,1.47.82,2.69.82,4.07.67-.45-.13-.88-.28-1.3-.46-1.03-.45-1.84-1.1-2.55-2.02Z" fill="#f4f6ff"/>
  <path d="M96.78,203.26c-.74-.59-1.45-1.51-2.1-2.54-1.09.08-2.21.22-3.21.36l-.17.02c-.11.02-.23.03-.34.04l.2.16c1.73,1.39,4.09,3.28,5.84,3.78,1.63.44,2.81.17,4.12-.31-.47-.03-.93-.06-1.38-.15-1.11-.2-2.05-.63-2.96-1.36Z" fill="#f4f6ff"/>
  <path d="M97.42,193.52l-.21-.17c.01.13.02.26.03.4v.08c.1,1.04.2,2.21.37,3.33,1.12.42,2.15.9,2.87,1.48,1.52,1.22,2.03,2.54,2.43,4.02.2-1.45.26-2.7-.56-4.26-.86-1.6-3.21-3.5-4.94-4.88Z" fill="#f4f6ff"/>
  <path d="M100,199.25c-.56-.45-1.35-.84-2.23-1.19l-.85-.32c-1.11-.39-2.28-.71-3.28-.99l-.37-.1c.06.1.11.21.17.32l.05.1c.47.87.99,1.85,1.57,2.81l.51.8c.55.81,1.12,1.52,1.69,1.98,1.58,1.27,2.99,1.32,4.77,1.38.14,0,.29,0,.43.02-.03-.13-.07-.27-.1-.39-.44-1.74-.78-3.12-2.37-4.4Z" fill="#f4f6ff"/>
  <path d="M71.02,145.56c-.29-.36-.57-.73-.81-1.12-.59-.96-.89-1.95-.94-3.11-.04-.95.18-2.08.52-3.25-.78-.76-1.63-1.49-2.4-2.15l-.39-.33v.26c.12,2.2.26,5.22,1.05,6.85.75,1.51,1.74,2.2,2.97,2.86Z" fill="#f4f6ff"/>
  <path d="M75.41,171.21c-.81-.78-1.35-1.66-1.69-2.77-.28-.9-.35-2.06-.32-3.28-.94-.54-1.95-1.04-2.86-1.49h-.03c-.15-.09-.29-.16-.43-.23l.08.25c.65,2.11,1.55,4.99,2.72,6.38,1.1,1.27,2.24,1.7,3.59,2.03-.37-.28-.73-.57-1.06-.89Z" fill="#f4f6ff"/>
  <path d="M76.83,106.15v.02c.03.13.06.26.09.4.12-.07.24-.13.36-.19,1.59-.85,2.85-1.53,3.7-3.38.3-.65.49-1.51.61-2.45.04-.22.08-.73.1-.9.1-1.16.13-2.38.15-3.41v-.38c-.07.07-.16.15-.24.23l-.11.1c-.73.67-1.59,1.44-2.38,2.25-.17.15-.44.45-.62.66-.65.73-1.21,1.45-1.51,2.12-.85,1.84-.54,3.21-.16,4.94Z" fill="#f4f6ff"/>
  <path d="M72.71,159.15c-.32-.34-.63-.68-.9-1.05-.67-.91-1.05-1.86-1.2-3.02-.12-.94,0-2.09.24-3.28-.84-.69-1.75-1.35-2.57-1.94l-.03-.02c-.13-.1-.26-.19-.39-.28l.03.26c.29,2.19.69,5.18,1.62,6.74.87,1.44,1.92,2.04,3.2,2.6Z" fill="#f4f6ff"/>
  <path d="M113.87,210.76c-.46.1-.91.18-1.36.23-.21.02-.42.03-.63.03-.88,0-1.72-.18-2.59-.55-.87-.38-1.8-1.07-2.71-1.89-1.03.37-2.07.8-3,1.2h-.02c-.15.08-.3.14-.44.2l.24.1c2.03.88,4.82,2.07,6.64,2.08,1.69,0,2.75-.59,3.88-1.4Z" fill="#f4f6ff"/>
  <path d="M113.36,204.29c-1.26-1.31-4.04-2.51-6.07-3.39l-.24-.1c.05.15.11.3.17.45.37.98.78,2.08,1.24,3.11,1.19.1,2.31.29,3.17.66,1.8.77,2.64,1.9,3.42,3.22-.2-1.45-.48-2.67-1.69-3.95Z" fill="#f4f6ff"/>
  <path d="M93.07,189.67c-.45-1.76-2.3-4.16-3.64-5.91l-.16-.21c-.02.16-.05.32-.07.48-.16,1.04-.34,2.2-.44,3.32.99.67,1.87,1.38,2.44,2.11,1.19,1.55,1.38,2.94,1.41,4.47.54-1.36.89-2.57.46-4.27Z" fill="#f4f6ff"/>
  <path d="M87.03,68.44l21.14,1c-.27.11-.55.23-.87.38-.29.13-.59.28-.85.41-.22.11-.42.21-.61.3-.89.44-1.77.77-2.62.97-.86.21-1.77.28-2.72.24-.27,0-.53-.03-.82-.05l-.21-.02c-.17-.01-.35-.02-.53-.04-.59-.04-1.22-.06-1.92.05-1.25.21-2.16.7-3.09,1.19l-.31.17c-.83.46-1.72.93-2.62,1.19-.86.24-1.75.31-2.66.2-.62-.07-1.21.35-1.32.97-.06.32,0,.63.19.89.18.27.45.44.76.5,1.2.23,2.47.22,3.67-.05,1.18-.27,2.25-.74,3.24-1.22.42-.19.91-.42,1.37-.59.22-.08.42-.15.65-.21.07-.02.13-.03.26-.06h.07s.08-.03.17-.03c.46-.04,1.09.04,1.78.13.35.05.71.1,1.08.13,1.22.14,2.48.1,3.62-.1,1.11-.19,2.26-.53,3.41-1.01.23-.09.42-.17.66-.27l.1-.04c.23-.1.45-.19.68-.28.19-.08.38-.14.55-.2l-10.41,5.17c-.07-.02-.12-.07-.19-.05-.38.13-.82.27-1.25.41-2.09.68-4.68,1.51-6.06,2.7-1.63,1.41-1.95,2.88-2.32,4.58-.06.28-.12.57-.2.87-.03.11,0,.24.08.33.06.06.13.11.22.12.02,0,.04,0,.06,0,.01,0,.02,0,.03,0,.29-.02.57-.04.84-.06h.03c1.75-.12,3.26-.22,4.9-1.64.96-.84,1.83-2.29,2.6-3.77.78-.29,8.44-3.13,10.42-3.86-10.84,7.21-19.4,20.1-23.76,35.92-.04.13-.07.26-.11.39-.15.56-.3,1.13-.44,1.7-.08.34-.17.68-.25,1.02-.12.51-.24,1.02-.35,1.53-.17.79-.33,1.59-.48,2.4-.07.37-.13.75-.19,1.12-.1.58-.2,1.17-.29,1.75-.06.38-.11.76-.17,1.14-.1.68-.18,1.37-.26,2.06-.03.27-.07.53-.09.8-.1.95-.19,1.9-.26,2.86-.02.28-.04.55-.05.83-.05.75-.09,1.5-.12,2.26-.01.29-.03.59-.03.88-.03,1.01-.05,2.01-.05,3.03,0,1.35.04,2.7.1,4.03.02.35.04.69.06,1.04.06,1.07.13,2.13.23,3.18.02.27.05.54.07.8.85,8.7,2.91,16.86,5.94,24.14.38,1.02.67,1.68.91,2.09,5.21,11.55,12.9,20.67,22.01,25.89.06.03.12.07.18.1.71.4,1.43.78,2.16,1.13.25.12.49.24.74.35.33.15.66.3,1,.45.53.22,1.05.44,1.59.64.25.09.51.18.76.27.43.15.86.29,1.3.42.22.07.45.14.67.2.62.17,1.24.33,1.87.47.19.04.38.08.58.12.57.12,1.15.22,1.73.31.12.02.23.04.35.06.68.1,1.37.17,2.06.22.17.01.34.02.5.03.71.05,1.42.08,2.14.08s1.43-.03,2.14-.08c.17-.01.34-.02.5-.03.69-.05,1.38-.12,2.06-.22.12-.02.24-.04.35-.06.58-.09,1.16-.19,1.73-.31.19-.04.38-.08.57-.12.63-.14,1.25-.3,1.87-.47.22-.06.44-.13.66-.2.44-.13.87-.27,1.31-.43.25-.09.5-.17.75-.26.54-.2,1.07-.41,1.59-.64.33-.14.66-.29.99-.44.25-.12.5-.24.75-.36.72-.35,1.43-.73,2.14-1.12.07-.04.13-.07.2-.11,9.06-5.18,16.71-14.23,21.92-25.69.01,0,.02,0,.03,0,.26.03.28,0,.57-.94.11-.36.27-.88.5-1.59,2.96-7.2,4.99-15.26,5.83-23.84.03-.26.05-.53.07-.79.09-1.05.17-2.11.23-3.18.02-.37.04-.74.06-1.11.06-1.28.09-2.56.09-3.86,0-.06,0-.11,0-.17,0-1.04-.02-2.06-.06-3.09,0-.26-.02-.52-.03-.77-.03-.8-.08-1.6-.13-2.4-.02-.25-.03-.49-.05-.74-.07-.99-.16-1.98-.27-2.96-.02-.15-.04-.31-.06-.46-.09-.81-.2-1.62-.31-2.43-.05-.33-.1-.66-.15-.99-.1-.66-.21-1.31-.32-1.96-.06-.32-.11-.65-.17-.97-.16-.86-.33-1.71-.52-2.56-.09-.41-.19-.81-.28-1.22-.11-.47-.22-.95-.34-1.42-.12-.48-.25-.96-.37-1.43-.1-.35-.2-.7-.29-1.05-.54-1.89-1.14-3.74-1.79-5.54-.04-.1-.07-.21-.11-.31-4.83-13.11-12.7-23.66-22.28-29.81l10.41,3.67.27.1c.83,1.64,1.79,3.33,2.86,4.25,1.64,1.42,3.15,1.52,4.9,1.64h.03c.27.02.55.04.84.06.01,0,.02,0,.03,0,.02,0,.04,0,.06,0,.08-.01.16-.06.22-.12.08-.09.11-.21.08-.33-.07-.3-.13-.59-.2-.87-.37-1.7-.69-3.17-2.32-4.58-1.37-1.19-3.97-2.03-6.05-2.7-.28-.09-.54-.18-.81-.27l.16-.07-9.83-4.68c.17-.02.35-.03.51-.05l.22-.02c.23-.02.45-.04.65-.06.99-.1,1.94-.09,2.79.04.88.11,1.73.36,2.63.75.26.11.54.24.83.38l.58.27c.54.24,1.12.49,1.81.64,1.23.25,2.26.12,3.26,0l.4-.05c.94-.13,1.94-.25,2.88-.17.89.08,1.75.34,2.55.76.56.3,1.25.11,1.58-.42.17-.27.22-.59.15-.91-.07-.31-.26-.57-.53-.74-1.04-.64-2.23-1.08-3.44-1.27-1.18-.17-2.36-.11-3.46-.03-.43.03-.97.06-1.47.06-.24,0-.45-.01-.69-.04-.08,0-.14-.02-.21-.03l-.12-.02s-.09-.02-.17-.05c-.47-.13-1.02-.43-1.62-.76-.31-.17-.63-.34-.95-.51-1.09-.57-2.27-.98-3.41-1.2-.94-.19-1.95-.29-2.99-.29-.46,0-.92.02-1.34.03h-.14c-.21.01-.42.02-.65.02-.57,0-1.02-.02-1.42-.05-.28-.02-.57-.06-.84-.12l23.29-.93c.54-.02.84-.47.84-.87,0-.4-.28-.86-.82-.9l-21.22-1.41c.21-.09.43-.19.67-.3.29-.14.61-.29.85-.41.22-.11.42-.21.61-.3.9-.45,1.78-.77,2.62-.97.87-.21,1.76-.28,2.72-.24.29,0,.59.03.95.06h.16c.15.02.29.03.44.04.58.04,1.22.06,1.92-.05,1.24-.21,2.15-.69,3.05-1.17l.35-.19c.84-.46,1.73-.93,2.62-1.19.87-.24,1.76-.32,2.66-.2.62.08,1.2-.35,1.32-.96.06-.31,0-.63-.19-.9-.18-.27-.45-.44-.76-.5-1.2-.23-2.47-.21-3.67.05-1.17.26-2.25.74-3.24,1.22-.42.19-.91.42-1.35.59-.23.08-.43.15-.66.21-.07.02-.14.03-.21.05l-.1.02c-.05,0-.1.02-.2.02-.49.05-1.13-.04-1.76-.13-.33-.05-.71-.1-1.09-.14-1.23-.14-2.48-.1-3.62.1-1.11.19-2.26.53-3.41,1.01-.24.1-.46.19-.71.29l-.1.04c-.2.08-.41.17-.63.26-.2.08-.38.14-.55.2l19.48-9.67c.49-.25.58-.77.41-1.14-.16-.37-.6-.67-1.12-.48l-19.85,7.34c.2-.2.42-.43.65-.69.2-.22.41-.46.63-.72l.12-.14c.11-.13.22-.25.32-.36.65-.76,1.33-1.4,2.03-1.91.71-.53,1.5-.95,2.41-1.29.26-.1.53-.19.79-.28l.11-.04c.18-.06.37-.13.56-.19.56-.2,1.15-.42,1.75-.8,1.06-.68,1.71-1.49,2.34-2.26l.05-.06c.07-.08.14-.17.21-.26.59-.75,1.22-1.53,1.95-2.12.7-.56,1.5-.97,2.37-1.22.61-.17.98-.79.84-1.4-.07-.31-.26-.58-.52-.75-.27-.17-.6-.23-.9-.17-1.2.26-2.36.78-3.35,1.48-.97.7-1.78,1.56-2.51,2.39-.33.36-.67.74-1.02,1.07-.18.17-.33.3-.52.45-.06.05-.12.09-.2.14-.02.02-.05.03-.06.04-.05.03-.09.06-.17.1-.43.23-1.03.4-1.68.57-.34.09-.7.19-1.06.3-1.17.35-2.31.87-3.29,1.5-.95.61-1.87,1.37-2.74,2.26-.2.2-.37.38-.54.55-.19.19-.37.38-.56.56-.15.15-.29.28-.42.4l14.15-16.51c.35-.42.23-.93-.07-1.22-.29-.28-.82-.37-1.22,0l-15.4,14.52c.11-.27.22-.56.33-.89.08-.22.15-.45.22-.67l.07-.21c.07-.24.15-.46.21-.66.31-.96.68-1.82,1.12-2.56.45-.77,1.02-1.46,1.72-2.13.17-.17.36-.34.55-.5l.19-.17c.14-.12.27-.24.41-.37.41-.38.89-.83,1.29-1.41.72-1.05,1.01-2.08,1.27-3l.11-.39c.25-.92.53-1.89.96-2.72.42-.79,1-1.48,1.7-2.05.49-.4.59-1.11.23-1.62-.18-.26-.46-.43-.78-.49-.31-.06-.63.02-.89.21-1,.71-1.86,1.63-2.51,2.67-.63,1.03-1.03,2.13-1.38,3.18-.15.44-.33.94-.52,1.39-.1.21-.18.41-.31.62-.03.06-.06.11-.11.18l-.07.1s-.05.08-.11.15c-.3.38-.79.77-1.33,1.19-.27.21-.56.44-.85.69-.95.78-1.79,1.71-2.44,2.67-.64.92-1.19,1.99-1.65,3.16l-.35.89c-.07.18-.15.37-.22.56-.19.43-.35.79-.52,1.12l7.46-21.17c.17-.51-.13-.95-.5-1.11-.38-.15-.9-.05-1.14.44l-8.63,18.09c-.02-.21-.04-.44-.06-.68-.02-.23-.04-.47-.06-.69-.09-1-.08-1.94.04-2.79.12-.88.36-1.74.75-2.63.12-.27.25-.55.39-.84.09-.19.18-.38.27-.57.24-.54.5-1.13.64-1.81.25-1.24.12-2.26,0-3.3l-.04-.35c-.13-.95-.25-1.95-.18-2.88.08-.89.35-1.75.77-2.56.29-.55.11-1.25-.42-1.58-.27-.17-.59-.22-.91-.15-.31.07-.57.26-.74.53-.64,1.04-1.08,2.23-1.27,3.44-.17,1.19-.11,2.36-.03,3.46.03.52.06,1.03.06,1.48,0,.25,0,.45-.03.68,0,.08-.02.14-.04.21l-.02.1c-.01.05-.02.11-.05.2-.13.46-.42,1-.75,1.6-.16.3-.35.63-.52.97-.57,1.09-.98,2.27-1.21,3.41-.22,1.1-.32,2.3-.28,3.55l.02.83c0,.25.02.49.02.73,0,.57-.02,1.02-.05,1.42,0,.12-.02.25-.04.37l-1.34-22.59c-.07-1.07-1.71-1.07-1.77.02l-.99,21.14c-.11-.27-.23-.55-.38-.87-.12-.26-.25-.52-.39-.81l-.08-.16c-.08-.17-.16-.34-.24-.49-.44-.89-.77-1.77-.97-2.62-.21-.86-.29-1.75-.24-2.72,0-.28.03-.57.05-.89l.04-.67c.04-.59.06-1.22-.05-1.92-.21-1.24-.69-2.14-1.17-3.04-.07-.12-.13-.24-.19-.36-.48-.88-.93-1.74-1.19-2.62-.24-.86-.31-1.76-.2-2.66.07-.63-.35-1.2-.96-1.32-.31-.06-.63,0-.9.19-.27.18-.44.45-.5.76-.23,1.2-.21,2.46.05,3.67.26,1.18.75,2.25,1.21,3.24.21.45.42.92.59,1.36.08.23.15.43.21.66.02.07.03.13.04.2l.02.12s.02.09.02.19c.05.48-.04,1.1-.13,1.79-.05.35-.1.7-.13,1.07-.14,1.23-.1,2.48.1,3.62.18,1.11.53,2.27,1.01,3.41.1.26.19.48.29.7l.03.07c.09.22.18.44.27.67.07.19.14.37.2.54l-9.66-19.47c-.25-.49-.76-.57-1.14-.41-.37.16-.67.61-.48,1.12l7.35,19.85c-.21-.2-.43-.42-.69-.65-.22-.2-.46-.4-.66-.58l-.08-.07c-.17-.15-.33-.29-.48-.42-.76-.65-1.4-1.33-1.91-2.03-.53-.71-.95-1.5-1.29-2.41-.09-.23-.17-.47-.25-.7l-.06-.18c-.06-.19-.13-.39-.21-.6-.2-.56-.42-1.15-.8-1.75-.67-1.06-1.48-1.71-2.26-2.34l-.32-.25c-.75-.59-1.53-1.22-2.12-1.95-.56-.7-.97-1.5-1.22-2.37-.17-.6-.8-.98-1.4-.84-.31.07-.58.25-.76.52-.17.27-.23.59-.16.9.26,1.2.77,2.35,1.48,3.36.7.98,1.57,1.78,2.39,2.51.36.33.75.68,1.08,1.03.16.17.3.32.45.52.04.05.07.1.12.17l.06.1s.05.08.09.16c.23.43.4,1.03.58,1.7.09.34.19.69.3,1.04.35,1.18.87,2.32,1.5,3.29.6.95,1.37,1.87,2.26,2.75.18.18.35.34.5.5l.05.05c.19.18.37.36.55.55.14.15.28.29.4.42l-16.51-14.15c-.42-.35-.94-.22-1.21.07-.28.29-.38.82,0,1.22l14.52,15.41c-.27-.11-.56-.21-.89-.33-.22-.08-.45-.15-.69-.23l-.33-.1c-.18-.06-.35-.11-.52-.17-.96-.3-1.82-.68-2.56-1.12-.77-.45-1.46-1.01-2.13-1.72-.18-.19-.37-.4-.54-.59l-.51-.57c-.41-.44-.84-.9-1.42-1.3-1.04-.72-2.03-1-3.05-1.28l-.34-.1c-.92-.25-1.88-.52-2.72-.96-.79-.43-1.48-1-2.05-1.71-.4-.48-1.1-.58-1.62-.23-.26.19-.43.46-.49.77-.06.32.02.63.2.9.7,1,1.63,1.87,2.67,2.51,1.02.62,2.13,1.02,3.18,1.38.43.15.93.32,1.38.51.23.1.41.19.62.3.07.03.13.07.19.12l.08.05s.09.06.16.12c.39.3.79.82,1.18,1.32.21.27.45.57.7.86.79.95,1.71,1.8,2.67,2.44.93.64,1.99,1.19,3.16,1.64.26.11.49.2.76.3.23.09.46.18.69.27.44.19.8.35,1.11.51l-21.16-7.45c-.5-.18-.95.12-1.11.5-.15.38-.05.9.44,1.14l18.09,8.63c-.18.01-.36.03-.53.05l-.18.02c-.23.02-.46.04-.66.06-1.01.1-1.94.08-2.8-.04-.88-.11-1.74-.36-2.63-.75-.26-.11-.52-.23-.79-.36l-.08-.04c-.18-.08-.36-.17-.55-.26-.54-.24-1.12-.49-1.81-.64-1.24-.25-2.31-.12-3.26,0l-.4.05c-.9.13-1.92.25-2.88.18-.89-.08-1.75-.34-2.55-.77-.56-.29-1.25-.11-1.58.42-.17.27-.22.59-.15.9.07.31.26.58.53.74,1.04.64,2.23,1.08,3.44,1.27,1.2.18,2.36.11,3.46.03.46-.03.98-.06,1.48-.06.25,0,.45.01.69.04.07,0,.13.02.22.04l.13.02s.08.01.17.04c.48.13,1.05.45,1.62.76l.08.04c.29.16.57.32.88.47,1.09.57,2.27.98,3.41,1.2.94.19,1.95.29,3.01.29.46,0,.89-.01,1.35-.03.26,0,.5-.02.75-.02.57,0,1.02.02,1.42.06.13,0,.25.02.38.04l-22.61,1.34c-.54.04-.83.49-.82.89,0,.42.29.85.84.88ZM109.58,57.25h0s0,0,0,0h0ZM114.7,75.61c.27-.12.55-.22.83-.34.43-.17.85-.35,1.29-.51.33-.12.66-.22.99-.33.39-.13.78-.26,1.17-.37.39-.11.78-.2,1.17-.3.35-.09.69-.18,1.04-.26.46-.1.92-.17,1.38-.25.29-.05.57-.11.86-.15.57-.08,1.15-.14,1.73-.19.18-.02.36-.04.55-.06.77-.06,1.55-.08,2.33-.08s1.56.03,2.33.08c.18.01.36.04.55.06.58.05,1.16.11,1.74.19.29.04.57.1.86.15.46.08.93.15,1.38.25.35.07.69.17,1.04.26.39.1.78.19,1.17.3.39.11.78.25,1.17.37.33.11.67.21,1,.33.43.16.86.33,1.28.51.28.11.56.22.83.34.47.2.93.43,1.4.65.22.11.45.21.67.32.51.26,1.01.54,1.51.82.17.1.34.18.51.28.55.32,1.09.66,1.62,1.01.11.07.22.14.34.22.58.39,1.16.8,1.73,1.23.05.04.11.08.17.12,13.94,10.48,23.6,30.92,24.28,54.59h-43.91v-14.36h.2c1.59-.1,3.21-.31,4.81-.62,2.58-.49,5.2-1.28,8.01-2.41.74-.3,1.22-.84,1.46-1.65.21-.73.27-1.55.16-2.57-.16-1.69-.65-3.34-1.45-4.89l-.13-.25c-2.03-3.98-5.72-10.98-7.57-13.21-.04-.05-4.4-5.28-9.19-4.45-1.36.12-2.76.51-4.29,1.17-2.61,1.13-5.17,2.73-8.31,5.18-1.61,1.26-2.31,3.74-1.63,5.79.36,1.09.99,1.77,1.89,2.03.74.21,1.48.06,2.33-.45l.09-.06s.05-.03.07-.04c-.02.04-.04.08-.07.11-.03.04-.06.09-.08.14l-.67,1.16c-.62,1.07-1.23,2.15-1.83,3.24-.23.41-.42.9-.58,1.48-.28,1.01-.35,2.1-.22,3.54.08.94.18,1.78.47,2.61.35,1,.92,1.6,1.74,1.84l.15.04c.1.03.19.05.29.09,3,1.08,6.07,1.78,9.12,2.07.54.05,1.12.09,1.75.11v14.34h-43.73c.68-23.67,10.35-44.11,24.28-54.59.05-.04.11-.08.16-.12.57-.43,1.15-.84,1.74-1.23.11-.07.22-.14.33-.21.54-.35,1.08-.69,1.63-1.02.17-.1.33-.19.5-.28.5-.28,1-.56,1.51-.82.22-.11.45-.21.67-.32.46-.23.93-.45,1.4-.66ZM173.6,141.53c0,.06,0,.13-.01.19-.2,4-.67,7.9-1.34,11.69-3.5-.26-16.75-1.3-21.06-2.71-5.18-1.69-15.24-4.36-17.1-4.53-1.09-.1-3.01-.08-4.4.23v-9.76h43.97c0,.29.03.58.03.87,0,1.35-.03,2.69-.1,4.01ZM148.9,195.08c-.79.58-1.59,1.12-2.4,1.64-.06.03-.11.07-.16.11-.37.23-.74.45-1.12.67-.21.12-.42.24-.63.35-.51.29-1.03.56-1.56.82-.31.15-.63.31-.94.45-.28.13-.57.26-.85.38-.53.23-1.07.45-1.61.65-.21.08-.42.15-.63.22-.45.16-.91.31-1.37.45-.2.06-.4.12-.6.18-.61.17-1.22.33-1.84.47-.17.04-.34.07-.52.11-.57.12-1.13.22-1.71.31-.11.02-.23.04-.34.06-.66.09-1.33.16-2.01.22-.16.01-.32.02-.48.03-.69.04-1.39.08-2.09.08s-1.4-.03-2.09-.08c-.15,0-.31-.02-.46-.03-.67-.05-1.34-.12-2.01-.22-.12-.02-.23-.04-.35-.06-.59-.09-1.17-.2-1.75-.32-.14-.03-.29-.06-.43-.09-.64-.14-1.27-.3-1.89-.48-.17-.05-.35-.1-.52-.16-.54-.16-1.07-.34-1.6-.53-.12-.04-.25-.08-.38-.13-.59-.22-1.17-.46-1.75-.71-.22-.09-.43-.19-.65-.29-.53-.24-1.06-.49-1.59-.76-.23-.12-.45-.24-.68-.37-.38-.2-.76-.42-1.13-.63-.26-.15-.51-.3-.77-.45-.48-.29-.95-.6-1.42-.91-.29-.19-.58-.4-.86-.6-.25-.18-.5-.36-.75-.55-.53-.39-1.05-.8-1.56-1.22-.18-.14-.36-.29-.53-.44-.34-.29-.68-.58-1.01-.88-.12-.11-.24-.22-.36-.33-.65-.59-1.29-1.2-1.91-1.84-.06-.06-.12-.12-.18-.18-4.47-4.58-8.34-10.28-11.39-16.81,2.38-1.02,10.44-4.8,14.88-7.33,2.17-1.23,5.73-3.09,7.33-3.64-.02.21-.06.43-.04.63.07.73.43,1.36.98,1.73.5.33,1.14.43,1.75.28.07.53.3,1,.66,1.38.52.52,1.3.75,2.09.7.37-.04.75-.14,1.14-.32.1.38.28.72.55.99.47.48,1.17.68,1.89.64.46-.04.93-.2,1.4-.47.07.18.17.35.29.5.69.84,2.06.96,3.32.21v19.87c0,.95.78,1.72,1.74,1.72s1.74-.77,1.74-1.72v-19.86c1.27.56,2.55.33,3.24-.5.39-.47.59-.98.61-1.48.12.09.22.16.22.16,1.96,1.2,3.45.67,4.12-.16.37-.45.54-1.02.51-1.61,1.74.88,3.06.37,3.69-.41.3-.37.47-.81.5-1.29,1.31.56,2.51.18,3.18-.52.22-.23.38-.52.49-.83.45.39.9.79,1.35,1.16.64.53,1.24,1.01,1.8,1.43,2.54,1.91,12.87,6.84,16.92,8.19-4.33,9.45-10.33,17.21-17.42,22.41,0,0,0,0-.01.01ZM82.49,141.54c-.06-1.33-.1-2.67-.1-4.02,0-.3.03-.58.03-.87h43.79v9.71c-1.39-.15-2.86-.23-3.59-.18-1.86.17-11.92,2.83-17.1,4.53-4.65,1.52-19.58,2.61-21.67,2.75-.68-3.79-1.15-7.7-1.35-11.72,0-.06,0-.13-.01-.19ZM125.72,98.5c-.06-.04-.2-.07-.41-.07-1.6,0-7.07,1.26-8.42,2.97-.39.5-1.4,1.63-2.36,1.63-.02,0-.04,0-.06,0-.44-.02-.83-.3-1.15-.79-.37-.92-.32-1.88.14-2.92.23-.52.55-.94.96-1.24,1.87-1.41,4.11-3.01,6.53-4.25,1.62-.83,3.01-1.33,4.38-1.58,2.71-.48,6.47.03,11.54,8.65.55.94,1.04,2.03,1.47,2.99.24.54.46,1.03.66,1.44-1.85-.49-4.92-.6-6.62-.44-2.04.19-3.94.95-5.95,1.74-1,.4-2.04.81-3.1,1.15-.53.19-1.07.34-1.6.48-1.6.43-3.11.84-2.89,2.48l.08.57.41-.4c.83-.81,2.4-1.31,3.66-1.72l.56-.18c.94-.31,1.64-.57,2.27-.8,1.14-.42,2.04-.75,3.76-1.16,4.83-1.16,8.46-1.01,10.84.47.09.03.2.11.26.2,1.15,1.72,1.86,3.61,2.1,5.62.1.82.07,1.46-.11,2.04-.07.23-.17.38-.27.43-.08.04-.21.02-.37-.05-1.03-.46-2.07-.71-3.23-.97-1.99-.44-3.6-.75-4.79-.93-1.56-.22-3.82-.32-6.07-.27-2.97.09-4.57.45-7.58,1.43-.94.31-2.09.76-3.11,1.15l-.78.3c-.36.14-.65.19-.92.16-.4-.04-.66-.25-.84-.65-.23-.52-.32-1.09-.4-1.72-.15-1.18-.16-2.14-.03-3.02.1-.68.29-1.25.57-1.75l2.36-4.13.1-.16c.08-.14.17-.28.24-.43.23-.48.58-1.51.76-2.09.52-1.72,3.68-2.61,5.77-3.2.61-.17,1.14-.32,1.55-.47l.5-.18-.42-.32ZM139.74,116.77c-3.83,1.28-7.04,1.99-10.04,2.2v-3.63h.1c3.2,0,6.53.48,9.94,1.43ZM129.48,147.95c1.01-.41,3.28-.44,4.49-.32,1.75.16,11.79,2.83,16.78,4.46,4.52,1.48,17.61,2.5,21.25,2.76-1.13,5.74-2.8,11.15-4.94,16.14-3.02-.86-14.09-5.66-16.77-7.68-.55-.41-1.14-.88-1.74-1.39-2.33-1.94-4.74-4.24-6.19-5.62l-.29-.27c-.29-.28-.53-.51-.71-.67-1.27-1.17-7.5-4.41-9.95-4.07-1.33.18-2.43.82-3.54,1.46-.71.41-1.38.79-2.06,1-1.77.55-4.09.49-4.37.39-.24-.18-.51-.45-.43-.62.14-.33,1.03-.84,2.65-1.54.88-.38,2.14-1.35,3.35-2.29l.08-.06c.9-.7,1.93-1.49,2.38-1.67ZM126.21,115.55v3.45c-2.44-.14-4.97-.61-7.88-1.48,2.55-1,5.2-1.66,7.88-1.97ZM126.96,147.9c-.22.17-.45.34-.69.53l-.17.13c-1.08.83-2.31,1.78-3.01,2.08-1.93.83-3.05,1.44-3.42,2.29-.35.82,0,1.71.92,2.38.84.61,4.02.32,5.64-.18.85-.26,1.63-.71,2.4-1.16.94-.54,1.91-1.11,2.95-1.25,1.71-.24,7.59,2.62,8.77,3.7.23.2.56.53.98.93l.09.08c.8.77,1.91,1.82,3.13,2.93,0,.01,0,.03.02.04.62.66.3,1.12.14,1.29-.44.47-1.37.52-2.28-.27-.09-.08-.33-.3-.66-.6l-.74-.67c-1.93-1.76-2.9-2.64-3.39-3.01-.08-.08-.17-.13-.17-.13h0c-.47-.32-.7-.25-.96-.01l-.32.3c-.12.11-.12.29-.02.41l.29.32c.1.11.76.72,2.22,2.1l.3.28c1.36,1.26,1.56,1.46,1.59,1.48.65.69.65,1.36.37,1.71-.3.38-1.08.56-2.24-.15-.4-.25-.78-.51-1.13-.77l-.22-.16s0,0-.01,0c-.32-.27-.95-.84-1.58-1.39l-.48-.43c-1.29-1.16-1.95-1.74-2.3-2-.03-.03-.06-.05-.1-.07-.33-.21-.51-.19-.75-.07-.21.11-.35.3-.39.53-.04.23.03.45.21.65.03.02.26.24,2.88,2.73l1.53,1.45c.65.7.65,1.36.37,1.71-.31.39-1.08.57-2.24-.14-.08-.05-.15-.08-.24-.13-.26-.13-.64-.32-1.79-1.25-1.54-1.25-2.39-1.88-2.56-1.89-.31-.02-.57.14-.7.4-.05.1-.08.21-.08.32-.11.14-.08.23.08.41h0s.03.03.04.04c.06.07.14.14.24.22l1.07.98c.65.59.87.85.97.97.03.04.06.06.07.08.7.75.32,1.33.18,1.49-.3.36-1.03.45-2.01-.15-.21-.13-.58-.38-1.01-.68.33-.5.49-.99.47-1.46-.02-.41-.2-1.16-1.22-1.67-.62-.31-1.26-.36-1.92-.16-.08-.54-.42-1.27-1.54-1.71-.49-.18-.98-.23-1.47-.17-.09-.6-.45-1.43-1.71-1.91-.87-.35-1.75-.3-2.61.12-.06-.36-.19-.7-.4-1.03-.68-1.09-1.52-1.2-1.99-1.18-1.21.07-2.46,1.26-3.54,3.31-2.03.66-8.22,3.76-8.44,3.93-1.85.91-3.56,1.76-5.13,2.54-4.79,2.37-8.24,4.09-9.98,4.73-.77-1.74-1.47-3.54-2.12-5.39-1.28-4.32-2.62-9.89-2.7-11.33,2.21-.17,17.09-1.34,21.5-2.78,4.99-1.64,15.03-4.31,16.78-4.46.75-.07,2.72.05,4.21.27ZM116.86,163.43c.07-.08.14-.19.22-.3l.1-.15c.82-1.15,1.78-2.38,2.88-2.48.05,0,.1,0,.15,0,.21,0,.42.04.63.12.68.26.72.59.74.7.01.09.01.25-.07.49-.84.65-1.5,1.57-1.89,2.11-.08.12-.16.23-.22.31-.09.12-.18.24-.25.37l-.27.2c-1.11.83-1.9.72-2.24.38-.32-.32-.38-.99.21-1.75ZM115.92,162.09c-.11.16-.2.29-.28.4-.14.18-.27.38-.38.57-.52.51-1.05.55-1.32.35-.35-.23-.57-.89-.04-1.98,1.03-2.11,2.03-2.9,2.57-2.93h.04c.11,0,.37.04.66.51.13.2.2.42.23.65.02.22-.01.46-.11.74-.57.58-1.02,1.2-1.36,1.68ZM120.54,165.11c.07-.08.14-.19.23-.31l.07-.09c.77-1.09,1.61-2.12,2.55-2.21.05,0,.09,0,.14,0,.18,0,.36.04.54.1.53.21.62.44.64.6.03.18-.04.45-.18.73-.44.39-.8.82-1.02,1.07l-.25.29c-.18.19-.33.4-.45.61-.15.13-.31.26-.49.39-.97.73-1.65.64-1.96.34-.28-.28-.32-.86.19-1.52ZM124.22,166.21c.05-.05.11-.12.18-.2l.11-.12c.76-.88,1.57-1.69,2.37-1.69.2,0,.39.04.57.14.47.23.48.46.48.54.02.37-.45,1.3-2.32,2.46-.82.51-1.44.44-1.68.14-.21-.25-.19-.73.29-1.26ZM157.46,79.88l-16.61-5.85c-2.89-1.16-5.89-1.93-8.98-2.28-.3-.04-.61-.07-.91-.1-.29-.02-.57-.05-.86-.07-.68-.04-1.37-.07-2.05-.07-.73,0-1.46.03-2.18.08-.21.01-.42.03-.64.05-.52.04-1.04.1-1.55.17-.23.03-.47.06-.7.1-.57.09-1.14.19-1.71.31-.18.04-.37.07-.55.11-.61.14-1.22.29-1.82.46-.29.08-.59.17-.88.26-.38.12-.76.24-1.13.37-.32.11-.63.22-.95.34-.37.14-.73.29-1.1.44-.28.11-.55.22-.83.34h0s-15.7,5.81-15.7,5.81c.1-.19.2-.4.29-.59.06-.13.12-.24.18-.37.68-.34,13.13-6.52,13.13-6.52l.21-.11-.12-.41c-.04-.16-.09-.32-.13-.47l-.11-.4-.41.02c-.05,0-.11,0-.16.01-.44.04-.92.14-1.39.27-.42.12-.88.28-1.43.49-.24.09-.47.19-.76.31-.22.09-.44.19-.7.29-1.1.46-2.17.78-3.2.95-1.06.19-2.21.21-3.34.09-.37-.04-.73-.09-1.09-.13-.71-.1-1.36-.18-1.94-.13-.13,0-.24.02-.31.04h-.09c-.1.03-.22.05-.34.09-.23.06-.46.14-.72.23-.47.18-.95.4-1.44.62-.94.44-1.95.9-3.03,1.14-1.07.23-2.19.24-3.25.04-.05,0-.09-.04-.11-.07-.02-.03-.04-.07-.03-.13.02-.08.1-.16.19-.13,1.04.12,2.07.05,3.07-.23,1-.29,1.95-.79,2.83-1.28l.36-.19c.81-.43,1.64-.88,2.72-1.06.58-.1,1.15-.07,1.69-.04.21.01.42.03.63.04h.09c.3.03.58.05.86.06,1.06.06,2.04-.03,3-.27.92-.21,1.88-.57,2.82-1.04.16-.08.34-.16.53-.26l.12-.06c.27-.13.54-.27.8-.39.6-.28,1.08-.47,1.55-.64.57-.21,1.12-.35,1.68-.44l.47-.08-.04-.43v-.16s-.05-.45-.05-.45l-21.65-1.02,21.45-1.27h.25s.05-.44.05-.44c.02-.19.05-.37.07-.55l.03-.19-.15-.25-.1-.1-.08-.04c-.09-.05-.27-.13-.49-.19-.43-.12-.91-.21-1.39-.24-.42-.04-.9-.06-1.51-.06-.23,0-.46,0-.68.01h-.14c-.24.01-.49.02-.76.02-1.18.03-2.3-.05-3.33-.26-1.05-.2-2.14-.59-3.15-1.11-.3-.15-.6-.31-.87-.46l-.08-.04c-.63-.35-1.22-.67-1.78-.83-.11-.04-.21-.06-.31-.08l-.11-.02c-.1-.02-.21-.04-.31-.05-.22-.03-.45-.03-.78-.04-.52,0-1.07.04-1.54.07-1.04.08-2.16.14-3.24-.02-1.07-.17-2.13-.56-3.05-1.13-.04-.02-.06-.06-.08-.11-.01-.04,0-.09.02-.13.04-.07.14-.1.22-.06.93.49,1.92.79,2.95.89,1.05.09,2.11-.04,3.1-.18l.41-.05c.91-.11,1.85-.23,2.91-.01.58.12,1.1.35,1.59.57l.65.3c.26.12.53.25.78.36.98.43,1.92.7,2.9.82.92.13,1.93.14,3.01.04.21-.02.44-.04.7-.06h.08c.26-.03.55-.06.83-.08.65-.04,1.17-.04,1.68-.04l2.59.08-19.87-9.48,20.58,7.25.23.07.65-1.15-.24-.28c-.07-.08-.19-.21-.35-.33-.35-.28-.76-.54-1.18-.76-.38-.2-.81-.41-1.37-.65-.24-.1-.47-.19-.74-.29l-.09-.03c-.2-.08-.41-.16-.64-.26-1.1-.42-2.1-.94-2.96-1.54-.88-.59-1.73-1.37-2.46-2.25-.24-.28-.47-.57-.67-.83-.44-.57-.87-1.11-1.33-1.47-.09-.08-.18-.15-.25-.19l-.08-.06c-.08-.06-.18-.13-.28-.17-.22-.13-.48-.25-.67-.33-.48-.2-.99-.39-1.47-.55-.99-.34-2.04-.72-2.97-1.28-.92-.57-1.74-1.34-2.37-2.23-.05-.08-.04-.18.04-.24.07-.05.17-.04.23.03.66.82,1.46,1.48,2.37,1.97.93.49,1.95.78,2.92,1.05l.39.11c.88.25,1.79.51,2.69,1.12.49.34.88.75,1.24,1.15l.4.44c.23.26.44.5.66.72.73.78,1.5,1.39,2.34,1.89.81.48,1.74.89,2.76,1.22.19.06.4.13.62.2l.1.03c.25.08.54.17.8.26.62.22,1.1.41,1.56.62.56.25,1.06.53,1.55.88.04.03.09.06.14.11l.39.3.65-.79-15.03-15.95,16.48,14.13.19.17.94-.76-.12-.35c-.05-.13-.1-.26-.17-.37-.22-.4-.49-.8-.79-1.16-.28-.35-.6-.71-1.01-1.13-.19-.2-.39-.39-.58-.58l-.09-.09c-.14-.14-.29-.28-.45-.44-.85-.82-1.56-1.69-2.12-2.57-.58-.89-1.06-1.94-1.39-3.03-.11-.35-.21-.7-.3-1.04-.19-.69-.36-1.34-.64-1.86-.05-.11-.11-.2-.16-.28l-.04-.07c-.05-.08-.12-.19-.2-.28-.16-.21-.35-.42-.49-.57-.36-.38-.76-.74-1.14-1.08-.78-.7-1.59-1.45-2.24-2.35-.63-.89-1.08-1.92-1.31-2.98-.01-.04,0-.09.02-.12.03-.04.07-.07.11-.08.09-.02.18.04.2.12.29,1.01.76,1.93,1.41,2.74.67.82,1.5,1.49,2.28,2.1l.33.27c.71.57,1.44,1.16,2.02,2.07.32.51.52,1.04.7,1.54l.19.56.03.08c.09.27.2.58.31.86.36.99.83,1.86,1.42,2.65.56.76,1.25,1.5,2.06,2.19.15.14.32.29.54.47l.06.05c.2.18.42.36.61.54.48.44.85.8,1.19,1.18.41.44.76.9,1.07,1.39l.32.53.9-.49-7.57-20.47,9.6,19.35.11.23.44-.13c.14-.04.28-.08.42-.12l.38-.1v-.4c0-.09,0-.16-.02-.24-.04-.45-.14-.93-.28-1.38-.12-.44-.28-.89-.49-1.43-.09-.24-.18-.46-.28-.69l-.05-.13c-.08-.2-.17-.41-.26-.64-.46-1.09-.78-2.16-.95-3.2-.19-1.05-.22-2.2-.09-3.34.04-.36.08-.71.13-1.06.1-.71.19-1.39.14-1.97,0-.11-.02-.22-.04-.32l-.02-.09c-.02-.1-.04-.22-.07-.33-.06-.23-.13-.44-.23-.72-.18-.48-.41-.97-.62-1.44-.45-.95-.9-1.96-1.14-3.03-.23-1.06-.24-2.18-.04-3.25,0-.05.03-.08.07-.11.02-.02.07-.03.13-.03.09.02.15.1.14.18-.13,1.04-.05,2.07.23,3.07.29,1.01.79,1.95,1.28,2.82l.19.36c.43.81.88,1.65,1.06,2.72.09.57.07,1.13.04,1.69-.01.21-.03.42-.04.61-.02.34-.05.66-.06.96-.05,1.06.04,2.04.27,3,.21.91.56,1.87,1.04,2.83.08.16.16.33.25.52l.06.12c.13.26.27.54.39.81.27.6.47,1.07.64,1.55.21.57.35,1.13.44,1.7l.08.48.43-.04h.15s.45-.06.45-.06l1.02-21.67,1.27,21.44.02.24.42.04c.2.02.4.04.6.07l.36.04.16-.32c.09-.17.15-.33.19-.48.12-.43.2-.91.24-1.39.04-.42.06-.9.06-1.51,0-.27,0-.52-.02-.88,0-.22-.01-.45-.02-.71-.03-1.18.05-2.3.26-3.33.2-1.05.59-2.14,1.11-3.15.17-.33.34-.65.51-.96.34-.63.67-1.22.82-1.78.04-.11.06-.21.08-.31l.03-.12c.02-.1.04-.2.04-.31.03-.24.04-.47.04-.75,0-.53-.04-1.09-.07-1.56-.08-1.04-.14-2.14.02-3.24.17-1.07.56-2.13,1.13-3.05.03-.04.06-.06.11-.08.05-.02.09,0,.12.02.08.05.1.15.06.22-.49.93-.79,1.92-.89,2.95-.08,1.04.04,2.1.18,3.1l.05.4c.11.91.23,1.85.01,2.92-.12.57-.34,1.08-.57,1.59-.09.19-.17.38-.28.59l-.06.13c-.11.24-.22.48-.32.71-.42.97-.69,1.92-.82,2.9-.13.93-.14,1.95-.04,3.01l.06.71c.03.34.06.62.08.89.04.67.05,1.19.04,1.67l-.08,2.61,9.48-19.88-7.21,20.47-.09.25.41.21c.17.08.34.17.51.27l.33.18.28-.27c.08-.08.15-.16.21-.24.28-.36.55-.77.76-1.18.2-.37.41-.81.65-1.37.1-.24.19-.48.29-.72l.09-.23c.06-.16.13-.33.21-.52.43-1.1.95-2.1,1.54-2.96.6-.89,1.38-1.74,2.26-2.46.26-.23.53-.44.83-.67.54-.42,1.1-.86,1.47-1.33.08-.09.14-.17.2-.26l.05-.07c.05-.08.12-.18.18-.29.12-.22.23-.45.34-.68.2-.48.39-1.01.55-1.47.34-.99.72-2.04,1.28-2.97.57-.92,1.34-1.74,2.23-2.37.03-.02.07-.05.13-.03.04,0,.08.03.11.07.05.07.04.17-.03.23-.82.66-1.48,1.46-1.97,2.37-.48.92-.78,1.95-1.04,2.92l-.11.39c-.25.88-.51,1.8-1.13,2.69-.34.48-.75.88-1.15,1.24l-.46.41c-.23.2-.48.43-.71.65-.77.73-1.39,1.5-1.89,2.34-.48.81-.89,1.74-1.21,2.76-.06.18-.13.38-.2.61l-.07.22c-.07.24-.15.47-.23.7-.22.64-.41,1.12-.62,1.56-.25.56-.54,1.06-.89,1.57l-.3.42.81.64,15.83-14.92-14.01,16.34-.17.19.28.33c.11.13.22.25.32.38l.25.32.37-.18s.09-.05.13-.07c.4-.21.8-.49,1.17-.79.34-.27.7-.59,1.13-1.01.16-.16.32-.31.46-.46l.12-.13c.17-.17.33-.34.53-.54.83-.85,1.69-1.56,2.58-2.13.89-.58,1.94-1.06,3.04-1.39.35-.11.71-.21,1.04-.3.69-.19,1.34-.36,1.85-.64.1-.04.18-.09.29-.16l.06-.04c.09-.05.19-.12.28-.2.19-.14.37-.31.57-.49.38-.36.76-.78,1.08-1.14.73-.82,1.46-1.6,2.34-2.24.88-.62,1.91-1.08,2.98-1.31.04-.01.09,0,.13.02.04.02.06.06.07.11.02.09-.03.18-.12.2-1,.29-1.93.76-2.74,1.41-.81.67-1.48,1.49-2.1,2.28l-.26.32c-.58.72-1.17,1.46-2.09,2.04-.5.32-1.04.52-1.54.7l-.59.2c-.32.11-.62.21-.9.32-1,.37-1.87.83-2.66,1.42-.76.55-1.5,1.25-2.2,2.06-.13.14-.27.3-.41.48l-.16.18c-.15.18-.33.38-.49.55-.45.5-.82.86-1.18,1.19-.43.4-.86.73-1.33,1.03l-.41.26.24.44.05.09.22.4,20.26-7.49-19.13,9.49-.22.11.13.42c.05.17.11.35.16.53l.12.42.43-.05c.44-.04.9-.14,1.33-.27.4-.11.86-.27,1.43-.49.25-.1.48-.19.78-.32l.09-.04c.18-.08.38-.15.59-.24,1.09-.46,2.16-.78,3.2-.95,1.05-.18,2.2-.22,3.34-.09.35.03.7.08,1.07.13.71.1,1.38.19,1.97.14.12,0,.23-.02.32-.04l.1-.02c.1-.02.21-.04.32-.07.23-.06.44-.13.72-.23.49-.19,1-.42,1.44-.62.99-.47,1.97-.9,3.03-1.14,1.05-.24,2.18-.25,3.25-.04.05,0,.08.03.11.07.03.04.03.08.03.13-.02.08-.1.18-.19.14-1.04-.13-2.08-.05-3.07.23-1,.29-1.95.79-2.83,1.28l-.36.19c-.81.43-1.64.88-2.71,1.06-.59.1-1.16.06-1.69.04l-.63-.04c-.33-.02-.64-.05-.95-.06-1.05-.06-2.04.04-3,.27-.91.21-1.86.56-2.83,1.04-.18.09-.39.19-.66.32l-.16.08c-.2.1-.42.21-.63.3-.61.28-1.08.47-1.55.64-.5.18-.98.31-1.47.4l-.46.09.05.46h-.03s.07.46.07.46l21.68,1.44-21.4.85h-.26s-.04.46-.04.46c-.02.27-.05.55-.09.82l-.06.42.4.14c.06.02.12.04.18.06.45.12.93.21,1.39.24.41.04.89.06,1.51.06.27,0,.54-.01.82-.02h.08c.21,0,.43-.02.68-.02,1.18-.05,2.29.04,3.33.26,1.05.21,2.14.59,3.15,1.11.31.16.61.32.94.5.63.35,1.23.68,1.79.84.12.04.23.06.31.08h.07c.1.04.23.06.35.07.24.03.49.04.7.04h.08c.53,0,1.09-.04,1.53-.07,1.05-.07,2.17-.13,3.24.02,1.07.17,2.13.55,3.05,1.12.04.02.06.06.07.11.01.04,0,.09-.02.12-.04.08-.14.11-.22.06-.93-.49-1.92-.79-2.96-.89-1.03-.08-2.1.04-3.09.18l-.41.05c-.91.11-1.85.23-2.92.01-.58-.12-1.1-.35-1.59-.57-.19-.08-.37-.17-.56-.26-.29-.14-.59-.28-.87-.4-.97-.43-1.91-.7-2.9-.83-.93-.13-1.95-.14-3.01-.04-.17.01-.35.03-.55.05l-.17.02c-.29.03-.59.06-.88.08-.67.04-1.19.06-1.67.04l-2.61-.08,13.24,6.31.27.13c.13.27.27.55.41.83.02.04.04.09.06.13Z" fill="#f4f6ff"/>
  <path d="M82.8,94.49c1.53-.84,2.73-1.51,3.55-3.32.16-.35.26-.67.37-1.13l.18-.97c.16-1.48.25-3.17.28-4.55v-.37c-.1.1-.22.21-.33.32-1.55,1.43-3.67,3.38-4.39,4.97-.75,1.66-.4,3.77-.08,5.28l.41-.22Z" fill="#f4f6ff"/>
  <path d="M92.18,88.94l.21-.31c-.15.03-.3.05-.46.08-1.32.23-2.95.52-4.34.94-.13.68-.3,1.31-.53,1.84-.86,1.91-2.12,2.7-3.57,3.5,1.55.1,2.85.1,4.39-.89,1.48-.96,3.12-3.39,4.31-5.16Z" fill="#f4f6ff"/>
</svg>