<?xml version="1.0" encoding="utf-8"?>
<!-- Generator: Adobe Illustrator 23.1.1, SVG Export Plug-In . SVG Version: 6.00 Build 0)  -->
<svg version="1.1" id="Capa_1" xmlns="http://www.w3.org/2000/svg" xmlns:xlink="http://www.w3.org/1999/xlink" x="0px" y="0px"
	 viewBox="0 0 1000 270" style="enable-background:new 0 0 1000 270;" xml:space="preserve">
<style type="text/css">
	.st0{fill:#231F20;}
	.st1{fill:#FFC60B;}
	.st2{fill:#59AA47;}
	.st3{fill:#05B4E9;}
	.st4{fill:#FFFFFF;}
	.st5{fill:#EF4123;}
	.st6{fill:#FCBC80;}
</style>
<g>
	<g>
		<path d="M246.3,182.1l-7.4-22.7h-30.8l-7.4,22.7h-14l26.5-78.9h20.6l26.5,78.9H246.3z M211.8,148h23.4l-11.7-35.8L211.8,148z"/>
		<path d="M266.2,124h11.5l1.1,7.6h0.7c1.7-2.7,4-4.8,6.7-6.2c2.8-1.4,5.8-2.1,9.2-2.1c1.5,0,3.1,0.1,4.6,0.4v12.7
			c-1.4-0.2-3.2-0.4-5.4-0.4c-2.8,0-5.5,0.6-8.2,1.7c-2.7,1.1-4.8,2.8-6.3,4.8v39.6h-14V124z"/>
		<path d="M315.8,206c-3.2-0.4-6.3-1-9.1-1.8v-11.1c6.2,1.8,12.1,2.7,17.6,2.7c4,0,7.2-0.5,9.7-1.5c2.5-1,4.3-2.6,5.5-4.9
			c1.2-2.2,1.8-5.2,1.8-8.8v-4.6h-0.7c-1.8,2.1-4,3.7-6.6,4.9c-2.6,1.2-5.5,1.8-8.8,1.8c-4.2,0-7.9-1-11.3-3c-3.4-2-6.1-5.1-8.1-9.4
			c-2-4.2-3-9.6-3-16c0-10.2,2.7-18,8-23.2c5.3-5.3,13.2-7.9,23.8-7.9c3.5,0,7.1,0.3,10.8,0.8c3.7,0.5,7,1.3,10,2.2V178
			c0,6.7-1.1,12.2-3.3,16.4c-2.2,4.2-5.5,7.3-9.9,9.3c-4.4,2-10,3-16.8,3C322.2,206.6,319,206.4,315.8,206z M336.3,169.9
			c2-0.8,3.6-2,5-3.5v-31.7c-2.7-0.6-5.4-0.9-8-0.9c-5.5,0-9.6,1.5-12.4,4.6c-2.8,3.1-4.1,7.9-4.1,14.6c0,6.6,1.2,11.3,3.5,14
			c2.3,2.7,5.6,4.1,9.9,4.1C332.2,171.1,334.3,170.7,336.3,169.9z"/>
		<path d="M414.1,157.2h-36c0.2,3.8,0.9,6.8,2.1,9c1.2,2.2,3.2,3.8,5.8,4.8c2.6,1,6.1,1.5,10.4,1.5c4.3,0,9.1-0.7,14.6-2v10.6
			c-5.6,1.4-11.1,2.1-16.5,2.1c-6.9,0-12.6-1-17.1-3.1c-4.5-2.1-7.8-5.4-10-9.8c-2.2-4.4-3.3-10.2-3.3-17.2c0-6.5,1-12,3-16.5
			c2-4.5,5-7.8,8.8-10.1c3.8-2.3,8.5-3.4,13.9-3.4c7.9,0,13.9,2.6,18.1,7.6c4.1,5.1,6.2,12.7,6.2,22.7V157.2z M381.2,136
			c-2,2.6-3,6.8-3.1,12.8h23c-0.1-6-1.1-10.3-3-12.8c-1.9-2.6-4.6-3.8-8.3-3.8C386,132.2,383.2,133.5,381.2,136z"/>
		<path d="M422.4,124h11.6l1,6.1h0.7c2.2-2.3,4.8-4,7.8-5.2c3-1.2,6.2-1.8,9.6-1.8c6,0,10.7,1.8,14.2,5.3c3.5,3.5,5.2,9.1,5.2,16.8
			v37h-14v-36.2c0-3.9-0.8-6.6-2.4-8.3c-1.6-1.6-4-2.5-7.1-2.5c-2.3,0-4.7,0.5-6.9,1.5c-2.3,1-4.2,2.4-5.7,4.4v41.1h-14V124z"/>
		<path d="M518.4,170.8V182c-3.4,0.8-6.7,1.2-10.1,1.2c-13.8,0-20.7-6.9-20.7-20.8v-27.2h-10V124h10l2.5-20.7h11.5V124h16.3v11.1
			h-16.3v25c0,2.8,0.4,5.1,1.1,6.8c0.7,1.7,1.8,2.9,3.3,3.6c1.5,0.7,3.5,1.1,5.9,1.1C513.6,171.5,515.8,171.3,518.4,170.8z"/>
		<path d="M525.1,112.1c-1.5-1.3-2.2-3.2-2.2-5.6c0-2.5,0.7-4.3,2.2-5.6c1.5-1.3,3.7-2,6.6-2s5.2,0.7,6.6,2c1.5,1.3,2.2,3.2,2.2,5.6
			c0,2.4-0.7,4.3-2.2,5.6c-1.5,1.3-3.7,1.9-6.6,1.9S526.6,113.4,525.1,112.1z M524.7,182.1V124h14v58.1H524.7z"/>
		<path d="M550.5,124H562l1,6.1h0.7c2.2-2.3,4.8-4,7.8-5.2c3-1.2,6.2-1.8,9.6-1.8c6,0,10.7,1.8,14.2,5.3c3.5,3.5,5.2,9.1,5.2,16.8
			v37h-14v-36.2c0-3.9-0.8-6.6-2.4-8.3c-1.6-1.6-4-2.5-7.1-2.5c-2.3,0-4.7,0.5-6.9,1.5c-2.3,1-4.2,2.4-5.7,4.4v41.1h-14V124z"/>
		<path d="M645.5,125.3c3.7,1.5,6.4,3.9,8.2,7.3c1.8,3.4,2.7,8,2.7,13.7v35.8h-11.6l-1-6h-0.7c-1.7,2.3-4,4.1-6.7,5.2
			c-2.8,1.2-5.8,1.8-9.1,1.8c-3.8,0-7.1-0.7-9.9-2c-2.8-1.3-4.9-3.3-6.4-5.7c-1.5-2.5-2.2-5.4-2.2-8.7c0-5.4,1.8-9.6,5.5-12.5
			c3.7-2.9,9.5-4.7,17.5-5.4l10.9-1v-2.3c0-2.9-0.5-5.3-1.4-7c-0.9-1.7-2.4-2.9-4.4-3.6c-2-0.7-4.7-1.1-8.1-1.1
			c-2.4,0-5,0.2-7.7,0.6c-2.8,0.4-5.4,1-8,1.8v-10.7c2.6-0.8,5.6-1.4,8.8-1.9c3.3-0.4,6.3-0.6,9.2-0.6
			C637.1,123.1,641.8,123.8,645.5,125.3z M637.5,172c1.9-0.8,3.7-2,5.2-3.7v-12.4l-9.5,0.9c-3.7,0.4-6.3,1.2-8,2.6
			c-1.7,1.4-2.5,3.4-2.5,5.9c0,2.6,0.8,4.5,2.3,5.9c1.5,1.4,3.7,2,6.6,2C633.6,173.2,635.6,172.8,637.5,172z"/>
		<path d="M667.8,180.6c-1.7-1.6-2.5-3.7-2.5-6.3c0-2.7,0.8-4.8,2.5-6.4c1.7-1.6,3.9-2.4,6.8-2.4c2.8,0,5.1,0.8,6.8,2.4
			c1.7,1.6,2.5,3.7,2.5,6.3c0,2.6-0.8,4.7-2.5,6.3c-1.7,1.6-3.9,2.4-6.7,2.4C671.8,182.9,669.5,182.1,667.8,180.6z"/>
		<path d="M703.7,206c-3.2-0.4-6.3-1-9.1-1.8v-11.1c6.2,1.8,12.1,2.7,17.6,2.7c4,0,7.2-0.5,9.7-1.5c2.5-1,4.3-2.6,5.5-4.9
			c1.2-2.2,1.8-5.2,1.8-8.8v-4.6h-0.7c-1.8,2.1-4,3.7-6.6,4.9c-2.6,1.2-5.5,1.8-8.8,1.8c-4.2,0-7.9-1-11.3-3c-3.4-2-6.1-5.1-8.1-9.4
			c-2-4.2-3-9.6-3-16c0-10.2,2.7-18,8-23.2c5.3-5.3,13.2-7.9,23.8-7.9c3.5,0,7.1,0.3,10.8,0.8c3.7,0.5,7,1.3,10,2.2V178
			c0,6.7-1.1,12.2-3.3,16.4c-2.2,4.2-5.5,7.3-9.9,9.3c-4.4,2-10,3-16.8,3C710.1,206.6,706.9,206.4,703.7,206z M724.2,169.9
			c2-0.8,3.6-2,5-3.5v-31.7c-2.7-0.6-5.4-0.9-8-0.9c-5.5,0-9.6,1.5-12.4,4.6c-2.8,3.1-4.1,7.9-4.1,14.6c0,6.6,1.2,11.3,3.5,14
			c2.3,2.7,5.6,4.1,9.9,4.1C720.1,171.1,722.2,170.7,724.2,169.9z"/>
		<path d="M759.2,175.6c-4.8-5-7.2-12.5-7.2-22.5c0-10.1,2.4-17.6,7.1-22.6c4.7-5,11.4-7.5,20-7.5c8.6,0,15.3,2.5,20,7.5
			c4.7,5,7.1,12.5,7.1,22.5c0,6.7-1.1,12.3-3.3,16.7c-2.2,4.5-5.3,7.8-9.3,10c-4,2.2-8.9,3.3-14.4,3.3
			C770.6,183.2,764,180.7,759.2,175.6z M788.8,168c2.2-2.9,3.3-7.8,3.3-14.8c0-7.1-1.1-12.1-3.3-15c-2.2-2.9-5.4-4.4-9.7-4.4
			c-4.3,0-7.5,1.5-9.7,4.4c-2.2,2.9-3.3,7.8-3.3,14.8c0,4.8,0.5,8.6,1.5,11.5c1,2.8,2.5,4.9,4.4,6.1c1.9,1.2,4.3,1.8,7.1,1.8
			C783.4,172.4,786.6,170.9,788.8,168z"/>
		<path d="M825.1,182.4c-3.6-0.5-6.9-1.3-10-2.3V96h14v33.7h0.7c1.8-2.1,4-3.7,6.6-4.9c2.6-1.2,5.6-1.8,8.8-1.8c4.2,0,8,1,11.4,3
			c3.4,2,6.1,5.2,8.1,9.5c2,4.3,3,9.8,3,16.3c0,10.4-2.6,18.2-7.9,23.4c-5.3,5.2-13.2,7.9-23.8,7.9
			C832.3,183.2,828.7,182.9,825.1,182.4z M849.5,167.8c2.7-3.1,4.1-8,4.1-14.8c0-6.7-1.2-11.5-3.5-14.2c-2.3-2.8-5.6-4.1-9.9-4.1
			c-2.1,0-4.2,0.4-6.2,1.2c-2,0.8-3.6,2-5,3.5v32.1c2.4,0.7,5.1,1,8,1C842.7,172.4,846.8,170.9,849.5,167.8z"/>
		<path d="M876.8,180.6c-1.7-1.6-2.5-3.7-2.5-6.3c0-2.7,0.8-4.8,2.5-6.4c1.7-1.6,3.9-2.4,6.8-2.4s5.1,0.8,6.8,2.4
			c1.7,1.6,2.5,3.7,2.5,6.3c0,2.6-0.8,4.7-2.5,6.3c-1.7,1.6-3.9,2.4-6.7,2.4S878.5,182.1,876.8,180.6z"/>
		<path d="M936,125.3c3.7,1.5,6.4,3.9,8.2,7.3c1.8,3.4,2.7,8,2.7,13.7v35.8h-11.6l-1-6h-0.8c-1.7,2.3-4,4.1-6.7,5.2
			c-2.8,1.2-5.8,1.8-9.1,1.8c-3.8,0-7.1-0.7-9.9-2c-2.8-1.3-4.9-3.3-6.4-5.7c-1.5-2.5-2.2-5.4-2.2-8.7c0-5.4,1.8-9.6,5.5-12.5
			c3.7-2.9,9.5-4.7,17.5-5.4l10.9-1v-2.3c0-2.9-0.5-5.3-1.4-7c-0.9-1.7-2.4-2.9-4.4-3.6c-2-0.7-4.7-1.1-8.1-1.1
			c-2.4,0-5,0.2-7.7,0.6c-2.8,0.4-5.4,1-8,1.8v-10.7c2.6-0.8,5.6-1.4,8.8-1.9c3.3-0.4,6.3-0.6,9.2-0.6
			C927.6,123.1,932.3,123.8,936,125.3z M928,172c1.9-0.8,3.7-2,5.2-3.7v-12.4l-9.5,0.9c-3.7,0.4-6.3,1.2-8,2.6
			c-1.7,1.4-2.5,3.4-2.5,5.9c0,2.6,0.8,4.5,2.3,5.9c1.5,1.4,3.7,2,6.6,2C924.1,173.2,926.1,172.8,928,172z"/>
		<path d="M958.1,124h11.5l1.1,7.6h0.7c1.7-2.7,4-4.8,6.7-6.2c2.8-1.4,5.9-2.1,9.2-2.1c1.5,0,3.1,0.1,4.6,0.4v12.7
			c-1.4-0.2-3.2-0.4-5.4-0.4c-2.8,0-5.5,0.6-8.2,1.7c-2.7,1.1-4.8,2.8-6.3,4.8v39.6h-14V124z"/>
	</g>
	<g>
		<path class="st0" d="M81.1,51.4L81.1,51.4L81.1,51.4z"/>
		<polyline class="st0" points="67.5,53.4 67.5,53.4 67.5,53.4 		"/>
		<path class="st1" d="M107.7,54c2.3,0,4.6,0.5,6.8,1.5l0.3,0.1c1.2,0.2,3.6,0.6,6.3,0.8c0.2,0,0.4,0,0.7,0c-1.4-0.4-2.4-1-3.5-1.6
			c-0.7-0.4-1.4-0.7-2.2-1.1c-2.7-1.2-5.2-1.6-5.4-1.7c-0.3-0.1-0.6-0.4-0.6-0.7c0-0.4,0.3-0.7,0.6-0.7l12.3-1.8L110.7,47
			c-0.3,0-0.5-0.3-0.6-0.6c-0.1-0.3,0.1-0.6,0.3-0.8c0.1-0.1,2-1.3,4.8-1.9c1.2-0.3,3.6-0.8,6.1-1.7c0.2-0.1,0.4-0.1,0.6-0.2
			c-1.5,0.1-2.6,0-3.9-0.1c-0.8-0.1-1.5-0.2-2.4-0.2c-2.9-0.1-5.4,0.5-5.7,0.5c-0.3,0.1-0.7-0.1-0.8-0.4c-0.1-0.3,0-0.7,0.3-0.9
			l10.7-6.4l-12,3.1c-0.3,0.1-0.6,0-0.8-0.3c-0.2-0.2-0.2-0.6,0-0.8c0.1-0.1,1.4-2,3.7-3.6c1-0.7,3-2.2,5-3.9
			c0.2-0.1,0.3-0.3,0.5-0.4c-1.3,0.7-2.4,1-3.6,1.4c-0.7,0.2-1.5,0.4-2.3,0.8c-2.8,1.1-5,2.7-5,2.7c-0.3,0.2-0.7,0.2-0.9-0.1
			c-0.3-0.3-0.3-0.6-0.1-0.9l7.4-10l-10,7.4c-0.2,0.2-0.6,0.2-0.8,0c-0.3-0.2-0.4-0.5-0.3-0.8c0-0.1,0.5-2.4,2.1-4.7
			c0.7-1,1.9-3.1,3.1-5.5c0.1-0.2,0.2-0.4,0.3-0.6c-0.9,1.1-1.9,1.9-2.8,2.7c-0.6,0.5-1.2,1-1.8,1.6c-2.1,2-3.5,4.2-3.6,4.4
			c-0.2,0.3-0.6,0.4-0.9,0.3c-0.3-0.1-0.5-0.5-0.4-0.8l3-12.1l-6.4,10.7c-0.2,0.3-0.5,0.4-0.7,0.3c-0.3-0.1-0.5-0.3-0.6-0.6
			c0-0.1-0.4-2.4,0.1-5.2c0.2-1.2,0.6-3.7,0.7-6.3c0-0.2,0-0.4,0-0.7c-0.4,1.4-1,2.4-1.6,3.5c-0.4,0.7-0.7,1.4-1.1,2.2
			c-1.2,2.7-1.6,5.3-1.7,5.5c-0.1,0.3-0.4,0.6-0.7,0.6c-0.3,0-0.7-0.3-0.7-0.6l-1.8-12.2l-1.7,12.2c0,0.3-0.3,0.5-0.6,0.6
			c-0.3,0.1-0.6-0.1-0.7-0.3c-0.1-0.2-1.3-2.1-1.9-4.8c-0.3-1.2-0.8-3.6-1.7-6.1c-0.1-0.2-0.1-0.4-0.2-0.6c0.1,1.5,0,2.6-0.1,3.9
			c-0.1,0.8-0.2,1.5-0.2,2.4c-0.1,3,0.5,5.6,0.5,5.7c0.1,0.3-0.1,0.7-0.4,0.8c-0.3,0.1-0.7,0-0.9-0.3L71,14l3.1,12
			c0.1,0.3,0,0.6-0.3,0.8c-0.2,0.2-0.6,0.2-0.8,0c-0.2-0.1-2-1.5-3.6-3.7c-0.7-1-2.2-3-3.9-5c-0.1-0.2-0.3-0.3-0.4-0.5
			c0.7,1.3,1,2.4,1.4,3.6c0.2,0.7,0.4,1.5,0.8,2.3c1,2.7,2.5,4.8,2.7,5c0.2,0.3,0.2,0.7-0.1,0.9c-0.2,0.2-0.6,0.3-0.9,0.1l-10-7.4
			l7.5,10c0.2,0.2,0.2,0.6,0,0.8c-0.2,0.2-0.5,0.4-0.8,0.3c-0.1,0-2.3-0.5-4.7-2.1c-1-0.7-3.1-1.9-5.5-3.1c-0.2-0.1-0.4-0.2-0.6-0.3
			c1.1,0.9,1.9,1.9,2.7,2.8c0.5,0.6,1,1.2,1.6,1.8c2.1,2.2,4.4,3.6,4.4,3.6c0.3,0.2,0.4,0.6,0.3,0.9c-0.1,0.3-0.5,0.5-0.8,0.4
			l-12.1-3l10.7,6.4c0.3,0.2,0.4,0.5,0.3,0.7c-0.1,0.3-0.3,0.5-0.6,0.6c-0.1,0-2.4,0.4-5.2-0.1c-1.2-0.2-3.6-0.6-6.3-0.7
			c-0.2,0-0.4,0-0.7,0c1.4,0.4,2.4,1,3.5,1.6c0.6,0.3,1.4,0.7,2.2,1.1c2.8,1.2,5.4,1.7,5.4,1.7c0.4,0.1,0.6,0.4,0.6,0.7
			c0,0.4-0.3,0.7-0.6,0.7l-12.3,1.8l12.3,1.8c0.3,0,0.5,0.3,0.6,0.6c0.1,0.3-0.1,0.6-0.3,0.7c-0.1,0.1-2,1.3-4.8,1.9
			c-1.2,0.3-3.6,0.9-6.1,1.7c-0.2,0.1-0.4,0.1-0.6,0.2c1.5-0.1,2.6,0,3.9,0.1c0.2,0,1.9,0.2,2.4,0.2c0.6,0,1.3,0,1.9,0l0.1-0.1
			c2.4-1.7,5.4-3,8.8-3.9c0.4-0.1,0.9,0,1.3,0.3c0.3,0.2,0.5,0.6,0.5,0.9c0.6-0.4,1.3-0.7,2-1c2.6-1.1,5.7-1.9,9.3-2.1
			c0.4,0,0.9,0.1,1.1,0.4c0.2,0.2,0.3,0.5,0.4,0.8c1-0.4,2-0.7,3.2-0.9c2.8-0.6,6-0.6,9.5-0.1c0.5,0.1,0.9,0.4,1.1,0.8
			c0.1,0.1,0.1,0.2,0.1,0.4c1-0.1,2-0.2,3-0.2c2.8,0,6,0.6,9.3,1.8C107.2,53.1,107.6,53.5,107.7,54C107.7,54,107.7,54,107.7,54"/>
		<path class="st0" d="M89.8,38.4c12-1.9,13.3,1.6,13.3,1.6s0.3,0.8,1.3,0.5c0,0,0.8-0.1,0.4-1.1c0,0-1.3-3.9-7.7-4.6
			c0,0-3.3-0.4-6.9,0.2c-1.1,0.2-1.4,2.5-1.4,2.5C88.7,38.7,89.8,38.4,89.8,38.4"/>
		<path class="st0" d="M79.6,40.8c-1.5-0.7-4.8-0.5-4.8-0.5c-5.4,0.2-6.8,3.5-6.8,3.5c-0.5,1.1,0.5,1.2,0.5,1.2
			c1.1,0.3,1.5-0.6,1.5-0.6s0.3-1,2.5-1.5c-0.1,0.3-0.2,0.7-0.2,1c0,1.5,1.2,2.8,2.8,2.8c1.5,0,2.8-1.2,2.8-2.8
			c0-0.4-0.1-0.8-0.2-1.1c0.8,0.3,1.5,0.8,2,1.8c0.2,0.4,0.6,0.6,1.6,0.6c1.1,0,0.8-0.7,0.8-0.7C81.3,41.6,79.6,40.8,79.6,40.8"/>
		<path class="st0" d="M89.5,45.2c1,0,1.4-0.2,1.6-0.6c0.5-1,1.2-1.5,2-1.8c-0.1,0.3-0.2,0.7-0.2,1.1c0,1.5,1.2,2.8,2.8,2.8
			c1.5,0,2.8-1.2,2.8-2.8c0-0.4-0.1-0.7-0.2-1c2.2,0.6,2.5,1.5,2.5,1.5s0.4,0.9,1.5,0.6c0,0,1-0.1,0.5-1.2c0,0-1.4-3.4-6.8-3.5
			c0,0-3.3-0.1-4.8,0.5c0,0-1.8,0.8-2.5,3.7C88.7,44.4,88.4,45.2,89.5,45.2"/>
		<path class="st0" d="M66.3,40.5c1,0.2,1.3-0.5,1.3-0.5s1.3-3.5,13.3-1.6c0,0,1.1,0.2,0.9-0.8c0,0-0.3-2.3-1.4-2.5
			c-3.6-0.6-6.9-0.2-6.9-0.2c-6.4,0.7-7.7,4.6-7.7,4.6C65.5,40.5,66.3,40.5,66.3,40.5"/>
		<path class="st2" d="M56,68.5c-2.7-0.2-5.3,0.3-5.4,0.3c-0.4,0.1-0.8-0.1-1.1-0.4c-0.2-0.3-0.2-0.8,0-1.2c2-3.1,2.6-6,2.7-7.9
			c0,0,0-0.1,0-0.1c0,0-0.1,0-0.1,0c-8,5.8-8.6,11.8-8.4,14.2c0,0,0,0.1,0.1,0.1c0.2,0,0.3,0,0.5,0c4.9,0,9.4-3,11.7-4.9
			C56.1,68.6,56.1,68.6,56,68.5C56.1,68.5,56.1,68.5,56,68.5"/>
		<path class="st2" d="M66.3,63.6c-0.8-0.3-1.8-0.4-2.8-0.6c-1.5-0.2-2.7-0.2-2.7-0.2h0c-0.4,0-0.8-0.3-1-0.7
			c-0.2-0.4,0-0.9,0.3-1.2c2.8-2.4,4.1-4.6,4.7-6c0,0,0-0.1,0-0.1c0,0-0.1,0-0.1,0C55.4,58,53.4,63.5,53,65.7c0,0,0,0.1,0.1,0.1
			c0.9,0.3,2.2,0.5,3.7,0.5c1.7,0,3.8-0.3,6.3-1.1c1.1-0.4,2.2-0.9,3.3-1.4C66.3,63.7,66.3,63.7,66.3,63.6
			C66.3,63.6,66.3,63.6,66.3,63.6"/>
		<path class="st2" d="M77.4,60.6c-2.4-1.2-5.2-1.7-5.2-1.7c-0.4-0.1-0.8-0.4-0.8-0.9c-0.1-0.4,0.2-0.9,0.6-1.1
			c3.1-1.5,4.6-3.1,5.4-4.1c0,0,0-0.1,0-0.1c0,0,0,0-0.1,0c-4.8,0.7-8.6,2.3-11,4.7c-1.2,1.2-1.9,2.4-2.2,3.2c0,0,0,0.1,0,0.1
			c2.1,1,4.3,1.3,6.2,1.3c1.3,0,2.6-0.1,3.6-0.3c1.1-0.2,2.3-0.5,3.4-0.9C77.5,60.7,77.5,60.7,77.4,60.6
			C77.5,60.6,77.5,60.6,77.4,60.6"/>
		<path class="st2" d="M84.7,57.4c-0.4-0.2-0.7-0.6-0.7-1c0-0.4,0.3-0.8,0.7-1c3-0.9,4.9-2.1,5.9-2.9c0,0,0,0,0-0.1
			c0,0,0-0.1-0.1-0.1c-4.7-0.3-8.6,0.5-11.5,2.3c-1.5,0.9-2.4,2-2.8,2.7c0,0,0,0.1,0,0.1c3.2,2.4,7.3,3,10.4,3c1,0,1.9-0.1,2.6-0.1
			c0,0,0.1,0,0.1-0.1s0-0.1,0-0.1C87.3,58.4,84.7,57.4,84.7,57.4"/>
		<path class="st2" d="M96.9,58.2c-0.4-0.2-0.5-0.7-0.4-1.1c0.1-0.4,0.5-0.7,0.9-0.8c3.1-0.4,5.1-1.1,6.3-1.7c0,0,0,0,0-0.1
			c0,0,0-0.1-0.1-0.1c-4.5-1.2-8.5-1.2-11.6-0.1c-1.7,0.6-2.7,1.5-3.3,2c0,0,0,0.1,0,0.1c3.9,4.6,9.3,5.5,12.2,5.6h0
			c0,0,0.1,0,0.1,0c0,0,0-0.1,0-0.1C99.3,59.9,96.9,58.3,96.9,58.2"/>
		<path class="st2" d="M127.3,73.5C127.4,73.5,127.4,73.4,127.3,73.5c0.1-1.1,0-3-0.8-5.1c-1.4-3.6-4.2-6.1-8.5-7.5c0,0-0.1,0-0.1,0
			c0,0,0,0,0,0.1c0.6,1.7,1.6,4.1,3.3,6.2c0.3,0.3,0.3,0.8,0.1,1.2c-0.2,0.4-0.7,0.6-1.1,0.5c0,0-2.6-0.6-5.3-0.1c0,0-0.1,0-0.1,0.1
			c0,0,0,0.1,0,0.1c2.7,1.8,7.6,4.6,11.9,4.6C126.9,73.5,127.1,73.5,127.3,73.5"/>
		<path class="st2" d="M117.6,65.9C117.6,65.9,117.6,65.9,117.6,65.9c-2.3-2.5-5.3-3.7-8.9-3.4c-1.2,0.1-2.5,0.3-3.8,0.7
			c0,0,0,0,0,0.1c0,0,0,0.1,0,0.1c2.8,2.2,5.8,3.3,8.8,3.3c0.2,0,0.3,0,0.5,0C115.7,66.5,116.9,66.2,117.6,65.9
			C117.6,66,117.6,65.9,117.6,65.9"/>
		<path class="st2" d="M100.5,58.4C100.5,58.4,100.5,58.5,100.5,58.4c1.8,1.3,4,1.9,6.5,1.9c1.1,0,2.2-0.1,3.4-0.3
			c1.9-0.4,3.6-0.9,4.6-1.3c0,0,0,0,0-0.1c0,0,0-0.1,0-0.1c-1.7-0.9-3.4-1.6-5.2-1.9c-1.8-0.3-3.7-0.3-5.5,0.2
			C102.7,57.2,101.4,57.9,100.5,58.4C100.5,58.4,100.5,58.4,100.5,58.4"/>
		<path class="st3" d="M83.2,131.2H68.6c-3.2,0-4.9-1.3-5.8-2.4c-0.8-1-1.3-2.2-1.5-3.6c0-0.1,0-0.2,0-0.3c-0.2-1.3-0.1-2.8,0.2-4.4
			c1.9-9.5,5.7-16,8.9-19.9c-0.3-0.1-0.7-0.3-1-0.4c-2-1.1-3-3.5-2.5-6.1c0.5-3.2,3.5-6.4,4.1-6.9c5-5.9,12.5-6.2,13.4-6.2
			c1.1-0.1,10.9-0.5,16.2,9.8c6.3,12.3,7.8,22.5,9,30.6l0.1,0.4c0.2,1.4,0.1,2.6-0.1,3.6c0,0.1-0.1,0.2-0.1,0.3
			c-0.4,1.1-0.9,2-1.5,2.6c-1.3,1.4-3.2,2.3-5.7,2.7c-1,0.2-2,0.2-2.6,0.2c-0.3,0-0.5,0-0.6,0h-4.2h-0.1h-0.1h-7v20.6h65.1
			c0-12.1-1.8-23.8-5.3-34.8c-3.4-10.6-8.3-20.2-14.5-28.3c-6.2-8.2-13.4-14.5-21.4-19c-8.3-4.6-17-6.9-26-6.9c-9,0-17.8,2.3-26,6.9
			c-8,4.5-15.2,10.9-21.4,19c-6.2,8.2-11.1,17.7-14.5,28.3c-3.5,11-5.3,22.7-5.3,34.8h65.1V131.2z"/>
		<path class="st4" d="M18.2,151.8c0,9.2,1,18.1,3.1,26.7c29.1-3.3,46.5-6.7,51.6-10.2c3.6-2.6,6.5-4,10.4-3.9v-12.6H18.2z"/>
		<path class="st4" d="M87.6,164.9c2.6,0.5,4.5,1.2,6.6,2.2c0.2,0,0.4,0,0.6,0c3.7-0.2,6.9,1,11.3,2.6c1.2,0.4,2.6,0.9,4,1.4
			c0.6,0.2,21.6,6.8,39.3,7.8c2.1-8.7,3.2-17.8,3.2-27.1H87.6V164.9z"/>
		<path class="st4" d="M114.1,193.3c-0.3,0.6-0.7,1.2-1.2,1.7c-1.1,1.1-2.6,1.6-4.4,1.7c-0.2,0.5-0.6,1.1-1.1,1.7
			c-1,1.1-2.7,2.4-5.7,2.2c-0.3,0.5-0.6,1-1.2,1.5c-1.5,1.5-3.4,2.1-5.5,1.7c-0.5,0.4-1.3,0.9-2.2,1.3c-1.2,0.5-3,0.9-5.2,0.4v17.3
			c0,1.2-1,2.2-2.2,2.2c-1.2,0-2.2-1-2.2-2.2v-16.5c-0.9,0.3-1.8,0.5-2.8,0.5c-0.4,0-0.8,0-1.1-0.1c-1.2-0.2-2.3-0.9-3.1-1.9
			c-1.5,0.2-4,0.4-5.8-0.8c-0.7-0.5-1.3-1.2-1.6-2c-0.6-0.1-1.3-0.2-2.1-0.4c-1.9-0.6-3.2-1.7-3.8-3.2c-0.4,0-1-0.1-1.5-0.1
			c-1.6-0.2-3.6-0.9-4.4-2.8c-0.2-0.4-0.3-0.8-0.3-1.2c-9.3,4.8-19.9,9.5-24.6,11.6c1.8,3.2,3.8,6.2,6,9c6.2,8.2,13.4,14.5,21.4,19
			c3.7,2.1,7.6,3.7,11.5,4.8c0.4-0.7,1-1.4,1.7-1.9c3.7-2.4,10.8-0.7,12.8-0.1c2-0.6,9.1-2.3,12.8,0.1c0.7,0.5,1.3,1.1,1.7,1.9
			c3.9-1.1,7.8-2.8,11.5-4.8c8-4.5,15.2-10.9,21.4-19c2-2.7,3.9-5.5,5.7-8.5C133.2,204.3,121.6,199.1,114.1,193.3"/>
		<path class="st3" d="M91.4,252.4c0.1-0.5,0.2-1,0.2-1.5c0-0.5-0.1-0.9-0.2-1.4c2.2-0.4,5.7-1.5,7.7-3.9c1.2-1.4,1.6-3.1,1.4-4.9
			c-0.2-1.6-1-2.9-2.3-3.8c-3.7-2.4-10.8-0.7-12.8-0.1c-2-0.6-9.1-2.3-12.8,0.1c-1.3,0.9-2.1,2.2-2.3,3.8c-0.2,1.8,0.3,3.5,1.4,4.9
			c2,2.4,5.6,3.5,7.8,3.9c-0.1,0.4-0.2,0.9-0.2,1.4c0,0.5,0.1,1,0.2,1.5c-1.6,1.6-6.7,6.1-14.2,6.9c0.2,0.4,0.9,1.4,2.2,2.6
			c6.6-1.2,11.3-4.9,13.4-6.8c0.2,0.2,0.4,0.5,0.7,0.6c-0.5,1.8-2.4,6.5-10.5,8.5c1.3,0.6,2.9,1.1,4.8,1.4c5.6-2.5,7.6-6.4,8.3-8.7
			c0.4,0.1,0.8,0.1,1.2,0.1c0.4,0,0.8,0,1.2-0.1c0.7,2.3,2.7,6.1,8.3,8.6c1.9-0.3,3.5-0.8,4.8-1.4c-8-2-10-6.6-10.5-8.5
			c0.3-0.2,0.5-0.4,0.7-0.7c2.1,2,6.8,5.6,13.4,6.8c1.3-1.2,2-2.2,2.2-2.6C98.1,258.4,93,254,91.4,252.4"/>
		<path class="st4" d="M96.6,239.3c0.6,0.4,0.9,0.9,1,1.7c0.1,1.1-0.1,2-0.8,2.7c-0.9,1-2.3,1.8-3.7,2.3c0.7-1.5,0.8-2.9,0.3-4.3
			c-0.5-1.4-1.4-2.4-2.3-3.1C93.3,238.4,95.4,238.5,96.6,239.3"/>
		<path class="st4" d="M80.1,242.7c1.1-2.9,5.2-3,5.3-3c0,0,1.1,0,2.3,0.4c1.5,0.5,2.5,1.4,3,2.6c0.5,1.3-0.4,2.7-1.2,3.6
			c-1.1-1-2.5-1.5-4.1-1.5c-1.6,0-3,0.6-4.1,1.6C80.5,245.5,79.6,244.1,80.1,242.7"/>
		<path class="st4" d="M77.6,246.1c-1.4-0.5-2.9-1.2-3.7-2.3c-0.6-0.8-0.9-1.7-0.8-2.7c0.1-0.8,0.4-1.3,1-1.7
			c0.9-0.6,2.2-0.8,3.7-0.8c0.6,0,1.2,0,1.9,0.1c-1,0.7-1.8,1.7-2.3,3.1C76.8,243.3,77.1,244.8,77.6,246.1"/>
		<path class="st4" d="M82.2,250.9c0-1.8,1.5-3.2,3.2-3.2c1.8,0,3.2,1.5,3.2,3.2c0,1.8-1.5,3.2-3.2,3.2
			C83.6,254.1,82.2,252.7,82.2,250.9"/>
		<path class="st4" d="M103.3,261.8c-6.6-1.2-11.2-4.8-13.4-6.8c-0.2,0.2-0.5,0.5-0.7,0.7c0.5,1.9,2.5,6.5,10.5,8.5
			C101.3,263.5,102.4,262.6,103.3,261.8"/>
		<path class="st4" d="M80.9,255c-2.1,2-6.8,5.6-13.4,6.8c0.9,0.8,2.1,1.6,3.6,2.3c8-2,10-6.7,10.5-8.5
			C81.3,255.4,81.1,255.2,80.9,255"/>
		<path class="st0" d="M166.8,169.1c0.1-0.5-0.1-0.9-0.5-1.2c-0.3-0.2-0.6-0.3-1-0.3c0.3-0.6,0.5-1.2,0.8-1.8c1-2.8,1.5-5.9,1.6-9.5
			c0-0.5-0.2-0.9-0.6-1.2c-0.3-0.2-0.6-0.3-1-0.2c0.2-0.6,0.4-1.2,0.6-1.8c0.7-2.9,1-6.1,0.6-9.6c0-0.5-0.3-0.9-0.7-1.1
			c-0.3-0.2-0.7-0.2-1-0.1c0.2-0.7,0.3-1.4,0.4-2.1c0.5-2.9,0.4-6.1-0.3-9.6c-0.1-0.5-0.4-0.8-0.8-1c-0.2-0.1-0.5-0.1-0.7-0.1
			c0.1-0.5,0.2-1,0.2-1.5c0.3-2.9,0.1-6.1-0.8-9.6c-0.1-0.5-0.4-0.8-0.9-1c-0.4-0.2-0.9-0.1-1.3,0.2c0,0,0,0,0,0
			c0.1-0.8,0.1-1.5,0.1-2.3c-0.1-2.9-0.8-6.1-2.1-9.4c-0.2-0.4-0.5-0.8-1-0.9c-0.4-0.1-0.8,0-1.1,0.2c0-0.7-0.1-1.4-0.2-2.1
			c-0.4-2.9-1.4-6-3-9.1c-0.2-0.4-0.6-0.7-1.1-0.7c-0.4,0-0.8,0.1-1,0.3c-0.1-0.7-0.2-1.3-0.4-2c-0.7-2.9-2.1-5.8-4.1-8.7
			c-0.3-0.4-0.7-0.6-1.2-0.6c-0.5,0-0.9,0.2-1.1,0.6c-0.2-0.8-0.5-1.5-0.9-2.3c-1.2-2.7-3-5.4-5.4-8c-0.3-0.4-0.8-0.5-1.3-0.4
			c-0.3,0.1-0.6,0.3-0.8,0.6c-0.4-0.8-0.8-1.5-1.3-2.2c-1.6-2.5-3.8-4.8-6.5-6.9c-0.4-0.3-0.9-0.4-1.3-0.2c-0.4,0.1-0.6,0.4-0.8,0.7
			c-1.8-2.4-4.4-4.2-7.6-5.4c0.6,0.1,1.2,0.1,1.8,0.1c3.9,0.2,6.6-0.6,6.7-0.6c0.8-0.3,1.3-1.1,1.2-1.9c-0.1-0.9-0.8-1.5-1.7-1.5
			c-4.2-0.2-5.8-1.1-7.8-2.2c-0.4-0.2-0.8-0.4-1.2-0.6l9.9-1.5c0.9-0.1,1.5-0.9,1.5-1.8c0-0.9-0.6-1.6-1.5-1.7l-9.8-1.4
			c1.1-0.3,2.5-0.7,3.8-1.2c3.7-1.3,5.9-3.1,6-3.1c0.7-0.5,0.8-1.5,0.4-2.2c-0.4-0.7-1.3-1.1-2.1-0.8c-4,1.4-5.8,1.2-8,1
			c-0.4,0-0.9-0.1-1.3-0.1l8.6-5.1c0.8-0.5,1.1-1.4,0.7-2.2c-0.3-0.8-1.2-1.2-2.1-1l-9.6,2.5c0.9-0.7,2-1.6,3.1-2.6
			c2.9-2.6,4.2-5.1,4.3-5.2c0.4-0.8,0.2-1.7-0.5-2.2c-0.7-0.5-1.6-0.5-2.3,0.1c-3.1,2.8-4.9,3.4-7,4c-0.4,0.1-0.8,0.2-1.3,0.4l5.9-8
			c0.5-0.7,0.5-1.7-0.2-2.3c-0.6-0.6-1.6-0.7-2.3-0.2l-8,6c0.6-1,1.3-2.3,1.9-3.6c1.7-3.5,2-6.3,2-6.4c0.1-0.9-0.5-1.6-1.3-1.9
			c-0.8-0.2-1.7,0.2-2.1,1c-1.8,3.8-3.2,5-5,6.4c-0.3,0.3-0.7,0.5-1,0.8l2.4-9.6c0.2-0.8-0.2-1.7-1-2.1c-0.8-0.3-1.7,0-2.2,0.7
			L95,17.2c0.2-1.2,0.3-2.6,0.4-4.1c0.2-3.9-0.6-6.6-0.6-6.7c-0.3-0.8-1.1-1.3-1.9-1.2C92,5.3,91.3,6,91.3,6.8
			c-0.2,4.2-1.1,5.8-2.1,7.8c-0.2,0.4-0.4,0.7-0.6,1.1L87.1,6c-0.1-0.9-0.9-1.5-1.7-1.5h0c-0.9,0-1.6,0.7-1.7,1.5l-1.4,9.8
			c-0.3-1.1-0.7-2.4-1.1-3.8C79.8,8.3,78,6.1,78,6c-0.5-0.7-1.5-0.8-2.2-0.4C75,6,74.7,6.9,74.9,7.7c1.4,4,1.2,5.8,1,8
			c0,0.4-0.1,0.9-0.1,1.4l-5.2-8.6c-0.5-0.8-1.4-1.1-2.2-0.7c-0.8,0.3-1.2,1.2-1,2.1l2.5,9.6c-0.7-0.9-1.6-2-2.5-3.1
			c-2.6-2.9-5.1-4.2-5.2-4.3c-0.8-0.4-1.7-0.2-2.2,0.5c-0.5,0.7-0.5,1.6,0.1,2.3c2.8,3.1,3.4,4.9,4,7.1c0.1,0.4,0.3,0.8,0.4,1.3
			l-8.1-6c-0.7-0.5-1.7-0.4-2.3,0.2c-0.6,0.6-0.7,1.6-0.2,2.3l6,8c-1-0.6-2.2-1.3-3.5-1.9c-3.5-1.7-6.3-2-6.4-2
			c-0.9-0.1-1.6,0.5-1.9,1.3c-0.2,0.8,0.2,1.7,1,2.1c3.8,1.8,5,3.2,6.4,5c0.3,0.3,0.5,0.7,0.8,1l-9.7-2.4c-0.9-0.2-1.7,0.2-2.1,1
			c-0.3,0.8,0,1.7,0.7,2.2l8.6,5.1c-1.2-0.2-2.6-0.3-4-0.4c-3.9-0.2-6.6,0.6-6.7,0.6c-0.8,0.3-1.3,1.1-1.2,1.9
			c0.1,0.9,0.8,1.5,1.7,1.5c4.2,0.2,5.8,1.1,7.8,2.1c0.4,0.2,0.7,0.4,1.1,0.6L42.6,47c-0.9,0.1-1.5,0.9-1.5,1.7
			c0,0.9,0.6,1.6,1.5,1.7l9.9,1.4c-1.2,0.3-2.5,0.7-3.9,1.2c-3.7,1.3-5.9,3.1-5.9,3.2c-0.7,0.5-0.8,1.5-0.4,2.2
			c0.4,0.7,1.3,1.1,2.1,0.8c2.3-0.8,3.9-1.1,5.2-1.2c-2.1,1.9-3.7,3.3-4.4,4.3c-0.4,0.5-0.8,1-1.1,1.5c-0.2-0.3-0.4-0.5-0.7-0.6
			c-0.4-0.2-0.9-0.1-1.3,0.2c-2.8,2.2-5,4.5-6.6,7c-0.5,0.7-0.9,1.5-1.2,2.2c-0.2-0.3-0.5-0.5-0.9-0.6c-0.5-0.1-0.9,0.1-1.3,0.4
			c-2.4,2.6-4.2,5.3-5.4,8c-0.3,0.7-0.6,1.4-0.8,2.2c-0.2-0.2-0.6-0.4-0.9-0.4c-0.5,0-0.9,0.2-1.2,0.6c-2.1,2.8-3.6,5.7-4.4,8.5
			c-0.2,0.7-0.4,1.5-0.5,2.2c-0.3-0.3-0.7-0.5-1.2-0.5c-0.5,0-0.9,0.3-1.1,0.7c-1.6,3.1-2.7,6.2-3.1,9.1c-0.1,0.7-0.2,1.5-0.2,2.2
			c-0.3-0.3-0.8-0.4-1.2-0.3c-0.5,0.1-0.8,0.4-1,0.9c-1.2,3.3-1.9,6.5-1.9,9.4c0,0.7,0,1.4,0.1,2.1c-0.4-0.2-0.8-0.2-1.2-0.1
			c-0.4,0.2-0.8,0.5-0.9,1c-0.8,3.4-1.1,6.6-0.8,9.6c0.1,0.6,0.1,1.1,0.2,1.6c-0.2,0-0.4,0-0.6,0.1c-0.4,0.2-0.7,0.6-0.8,1
			c-0.7,3.5-0.8,6.7-0.3,9.6c0.1,0.7,0.3,1.5,0.5,2.2c-0.2,0-0.4,0.1-0.6,0.1c-0.4,0.2-0.7,0.6-0.8,1.1c-0.4,3.5-0.3,6.7,0.3,9.6
			c0.1,0.6,0.3,1.2,0.5,1.8c-0.3,0-0.6,0-0.9,0.2c-0.4,0.3-0.6,0.7-0.7,1.2c-0.1,3.5,0.4,6.7,1.3,9.5c0.3,0.8,0.6,1.6,1,2.3
			c-0.1,0-0.2,0-0.2-0.1c-0.5-0.1-0.9,0-1.3,0.3c-0.4,0.3-0.5,0.8-0.4,1.3c0.6,3.5,1.5,6.5,3,9.1c0.3,0.5,0.6,1,0.9,1.5
			c-0.2,0.1-0.5,0.2-0.6,0.4c-0.3,0.3-0.5,0.8-0.3,1.3c0.8,3.4,2,6.4,3.6,8.9c0.4,0.6,0.8,1.2,1.2,1.7c-0.4,0-0.7,0.2-1,0.5
			c-0.3,0.4-0.4,0.9-0.2,1.3c1.2,3.3,2.8,6.1,4.6,8.4c0.4,0.5,0.8,1,1.3,1.4c-0.3,0.1-0.6,0.3-0.8,0.6c-0.2,0.4-0.3,0.9,0,1.3
			c1.6,3.1,3.5,5.8,5.6,7.8c0.5,0.4,0.9,0.8,1.4,1.2c-0.3,0.1-0.6,0.4-0.7,0.7c-0.2,0.4-0.2,0.9,0.1,1.3c1.9,3,4.1,5.4,6.4,7.2
			c0.7,0.5,1.4,1,2.2,1.5c-0.2,0-0.3,0.1-0.3,0.1c-0.4,0.2-0.8,0.5-0.9,1c-0.1,0.5,0,0.9,0.4,1.3c2.4,2.5,4.9,4.5,7.4,6
			c2.1,1.2,4.1,1.9,6.1,2.3c1.8,0.3,3.5,0.3,4.9,0.1c0.1,0,0.2,0,0.3-0.1c4.3,3.1,8.9,5.6,13.7,7.6c4,1.7,8.1,3,12.1,3.8
			c0.9,0.2,1.7,0.3,2.4,0.5c-1.7-0.6-3.5-1.6-4.7-3c-0.2-0.3-0.4-0.5-0.6-0.8c-2.8-0.8-5.6-1.7-8.3-2.9c-4.5-1.9-8.9-4.4-13.1-7.3
			c0-0.1,0-0.1,0-0.2c0.1-1.4-0.1-2.8-0.5-4.2c3,2.4,5.7,4.4,8.6,6c4,2.2,8.1,3.9,12.3,5.1c0-0.2,0-0.5,0-0.7c0.1-0.7,0.3-1.4,0.6-2
			c-3.9-1.1-7.8-2.8-11.5-4.8c-8-4.5-15.2-10.9-21.4-19c-2.2-2.8-4.2-5.9-6-9c4.7-2.1,15.3-6.9,24.6-11.6c0.1,0.4,0.2,0.8,0.3,1.2
			c0.8,1.8,2.8,2.5,4.4,2.8c0.5,0.1,1.1,0.1,1.5,0.1c0.6,1.5,1.9,2.6,3.8,3.2c0.8,0.2,1.5,0.4,2.1,0.4c0.3,0.8,0.9,1.5,1.6,2
			c1.8,1.2,4.4,1.1,5.8,0.8c0.8,1,1.9,1.6,3.1,1.9c0.4,0.1,0.8,0.1,1.1,0.1c1,0,2-0.2,2.8-0.5v16.5c0,1.2,1,2.2,2.2,2.2
			c1.2,0,2.2-1,2.2-2.2v-17.3c2.2,0.4,4,0.1,5.2-0.4c1-0.4,1.7-0.9,2.2-1.3c2.1,0.4,4.1-0.2,5.5-1.7c0.5-0.5,0.9-1.1,1.2-1.5
			c2.9,0.1,4.7-1.1,5.7-2.2c0.5-0.6,0.9-1.2,1.1-1.7c1.8-0.1,3.3-0.6,4.4-1.7c0.5-0.5,0.9-1.1,1.2-1.7c7.5,5.8,19.1,10.9,24.4,13.1
			c-1.7,3-3.6,5.8-5.7,8.5c-6.2,8.2-13.4,14.5-21.4,19c-3.7,2.1-7.6,3.7-11.5,4.8c0.3,0.6,0.5,1.2,0.6,2c0,0.3,0,0.5,0,0.7
			c4.2-1.2,8.4-2.9,12.4-5.2c3.1-1.7,6-3.9,8.7-6.1c-0.4,1.4-0.6,2.9-0.5,4.3c0,0.1,0,0.1,0,0.2c-1.3,1-4.7,3.4-9.6,5.8
			c-3.7,1.8-7.6,3.3-11.5,4.3c-0.2,0-0.3,0.1-0.5,0.1c-0.1,0.2-0.3,0.5-0.5,0.7c-1.2,1.5-3,2.5-4.8,3.1c2.2-0.3,4.3-0.8,6.5-1.4
			c4.1-1.1,8.1-2.6,12-4.5c5.2-2.6,8.7-5.1,10-6.1c0.1,0,0.1,0.1,0.2,0.1c1.5,0.3,3.2,0.3,5-0.1c2-0.4,4.1-1.2,6.1-2.3
			c2.5-1.4,5-3.4,7.5-6c0.3-0.3,0.5-0.8,0.4-1.3c-0.1-0.5-0.4-0.8-0.9-1c0,0-0.1,0-0.2-0.1c0.8-0.4,1.5-1,2.2-1.5
			c2.3-1.8,4.5-4.2,6.4-7.2c0.3-0.4,0.3-0.9,0.1-1.3c-0.1-0.3-0.4-0.6-0.7-0.7c0.5-0.4,0.9-0.8,1.4-1.2c2.1-2.1,4-4.7,5.6-7.8
			c0.2-0.4,0.2-0.9,0-1.3c-0.2-0.4-0.6-0.6-1-0.7c0.5-0.5,1-1,1.4-1.6c1.9-2.3,3.4-5.1,4.6-8.4c0.2-0.4,0.1-0.9-0.2-1.3
			c-0.2-0.4-0.7-0.6-1.1-0.6h0c0.4-0.5,0.8-1,1.2-1.6c1.6-2.5,2.9-5.4,3.8-8.8c0.1-0.5,0-0.9-0.3-1.3c-0.3-0.3-0.7-0.5-1.1-0.4
			c0.4-0.6,0.7-1.2,1.1-1.9C165.5,175.7,166.4,172.6,166.8,169.1 M165.1,158.2C165.2,158.2,165.2,158.2,165.1,158.2
			c-0.1,2.5-0.6,4.7-1.3,6.6c-0.7,2-1.7,3.7-2.9,5.1c-1.4,1.7-2.9,2.6-3.5,2.9c0,0,0,0,0,0c0,0,0,0-0.1,0c-1.9-2.6-2.9-5.8-2.8-9.6
			c0-1.2,0.2-2.4,0.4-3.6c0,0,0-0.1,0.1-0.1c0,0,0.1,0,0.1,0c1.7,2.1,2.7,4.9,2.7,4.9c0.1,0.4,0.5,0.7,0.9,0.7c0.4,0,0.8-0.2,1-0.6
			C161.3,161.3,163.5,159.3,165.1,158.2C165.1,158.2,165.1,158.2,165.1,158.2 M164.9,145.7C164.9,145.7,164.9,145.7,164.9,145.7
			c0.1,0,0.1,0,0.1,0.1c0.1,2.4-0.2,4.6-0.7,6.6c-0.5,2-1.3,3.8-2.4,5.4c-1.3,1.8-2.6,2.8-3.2,3.2c0,0,0,0,0,0c0,0,0,0-0.1,0
			c-3.4-3.9-3.7-9.6-3.6-12.6c0,0,0-0.1,0-0.1c0,0,0.1,0,0.1,0c1.8,2,3.1,4.4,3.1,4.5c0.2,0.4,0.6,0.6,1,0.6c0.4,0,0.8-0.3,0.9-0.7
			C161.4,149.1,163.4,146.9,164.9,145.7 M163.5,133C163.5,132.9,163.6,132.9,163.5,133c0.1,0,0.1,0,0.1,0c0.3,2.4,0.3,4.6,0,6.7
			c-0.3,2.1-0.9,3.9-1.8,5.6c-1.1,2-2.4,3.1-2.9,3.5c0,0,0,0,0,0c0,0,0,0,0,0c-3.4-2.8-4.4-8.8-4.7-12.2c0,0,0-0.1,0-0.1
			c0,0,0.1,0,0.1,0c2,1.8,3.4,4,3.4,4c0.2,0.4,0.6,0.5,1,0.5c0.4-0.1,0.7-0.4,0.8-0.8C160.4,136.8,162.2,134.4,163.5,133
			 M161.5,120.9C161.5,120.9,161.6,120.9,161.5,120.9c0.1,0,0.1,0,0.1,0c0.4,2.4,0.5,4.6,0.3,6.7c-0.2,2.1-0.7,4-1.6,5.7
			c-1,2-2.2,3.2-2.7,3.6c0,0,0,0,0,0c0,0,0,0,0,0c-2.8-2.4-4.2-5.9-4.8-8.5c-0.3-1.1-0.5-2.3-0.6-3.5c0,0,0-0.1,0-0.1
			c0,0,0.1,0,0.1,0c2.1,1.7,3.7,4,3.7,4c0.2,0.3,0.7,0.5,1.1,0.4c0.4-0.1,0.7-0.4,0.8-0.8C158.6,124.8,160.3,122.3,161.5,120.9
			 M65.1,121.7c0-0.2,0.1-0.3,0.1-0.5c1.7-8.3,4.9-14,7.4-17.3c1.8-2.5,3.5-4,4.3-4.7c0.3-0.2,0.5-0.4,0.8-0.6
			c0.8-0.7,0.9-1.9,0.3-2.7c-0.6-0.8-1.8-1-2.7-0.4c-0.1,0.1-0.4,0.3-0.8,0.7c-1.8,1.3-2.9,0.9-3.2,0.7c-0.6-0.3-0.9-1.1-0.7-2.1
			c0.3-1.8,2.3-4.2,3.1-5c0,0,0.1-0.1,0.1-0.1c4.1-4.8,10.6-4.9,10.6-4.9c0.1,0,0.1,0,0.2,0c0,0,2-0.2,4.6,0.7
			c3.5,1.1,6.2,3.5,8,7.1c2.6,5,4.5,10,5.9,15.4c-3.6-1.3-6.5-3.6-6.5-3.7c-0.8-0.7-2.1-0.6-2.8,0.3c-0.3,0.4-0.5,0.9-0.4,1.4
			c0,0.5,0.3,1,0.7,1.3c0.2,0.2,4.7,3.8,10.1,5c0.4,1.8,0.7,3.7,1.1,6c-1.7-0.9-3.8-1.4-5.5-1.9c-1.2-0.3-2.2-0.6-3.1-0.9
			c-3.7-1.5-6.9-4-6.9-4c-0.9-0.7-2.1-0.5-2.8,0.3c-0.7,0.9-0.5,2.1,0.3,2.8c0.1,0.1,3.6,2.9,7.9,4.6c1.1,0.4,2.3,0.7,3.5,1.1
			c4.7,1.2,6.8,2.2,6.9,4.5c-0.1,0.4-0.3,0.7-0.6,1c-1.5,1.6-4.8,1.8-5.9,1.7c0,0-0.1,0-0.1,0h-4.4c-0.9,0-5.4-0.2-9.3-2.7
			C75.2,118.2,70.7,119.2,65.1,121.7 M82.1,127.4H68.6c-1.4,0-2.3-0.3-2.9-1c-0.1-0.1-0.2-0.3-0.3-0.5C71,123.3,74,122.4,82.1,127.4
			 M87.6,151.8v-20.6h7h0.1h0.1h4.2c0.1,0,0.3,0,0.6,0c0.6,0,1.5,0,2.6-0.2c2.5-0.4,4.4-1.3,5.7-2.7c0.5-0.6,1.1-1.4,1.5-2.6
			c0-0.1,0.1-0.2,0.1-0.3c0.3-1,0.4-2.2,0.1-3.6l-0.1-0.4c-1.2-8.2-2.7-18.3-9-30.6c-5.3-10.3-15.1-9.9-16.2-9.8
			c-0.9,0-8.4,0.3-13.4,6.2c-0.5,0.6-3.5,3.8-4.1,6.9c-0.4,2.6,0.5,4.9,2.5,6.1c0.3,0.2,0.7,0.3,1,0.4c-3.1,3.9-7,10.4-8.9,19.9
			c-0.3,1.6-0.4,3.1-0.2,4.4c0,0.1,0,0.2,0,0.3c0.2,1.4,0.7,2.6,1.5,3.6c0.9,1.1,2.7,2.4,5.8,2.4h14.6v20.6v12.6
			c-3.8-0.1-6.7,1.4-10.4,3.9c-5.2,3.4-22.5,6.9-51.6,10.2c-2-8.6-3.1-17.5-3.1-26.7c0-12.1,1.8-23.8,5.3-34.8
			c3.4-10.6,8.3-20.2,14.5-28.3c6.2-8.2,13.4-14.5,21.4-19c8.3-4.6,17-6.9,26-6.9c9,0,17.8,2.3,26,6.9c8,4.5,15.2,10.9,21.4,19
			c6.2,8.2,11.1,17.7,14.5,28.3c3.5,11,5.3,22.7,5.3,34.8c0,9.3-1.1,18.4-3.2,27.1c-17.7-1-38.6-7.6-39.3-7.8c-1.5-0.5-2.8-1-4-1.4
			c-4.4-1.6-7.6-2.7-11.3-2.6c-0.2,0-0.4,0-0.6,0c-2.1-1-4-1.8-6.6-2.2V151.8z M115.1,58.7c-1.1,0.4-2.7,1-4.6,1.3
			c-1.2,0.2-2.3,0.3-3.4,0.3c-2.5,0-4.7-0.6-6.5-1.9c0,0,0,0,0-0.1c0,0,0,0,0-0.1c0.8-0.5,2.1-1.1,3.8-1.5c1.8-0.4,3.7-0.5,5.5-0.2
			c1.7,0.3,3.5,0.9,5.2,1.9C115.1,58.6,115.1,58.6,115.1,58.7C115.1,58.6,115.1,58.7,115.1,58.7 M117.6,65.8
			C117.6,65.9,117.6,65.9,117.6,65.8c0,0.1,0,0.1,0,0.1c-0.7,0.3-1.9,0.6-3.3,0.6c-0.2,0-0.3,0-0.5,0c-3,0-6-1.1-8.8-3.3
			c0,0,0,0,0-0.1c0,0,0,0,0-0.1c1.3-0.4,2.5-0.6,3.8-0.7C112.3,62.3,115.3,63.4,117.6,65.8 M103.7,54.7c-1.2,0.6-3.2,1.3-6.3,1.7
			c-0.4,0.1-0.8,0.4-0.9,0.8c-0.1,0.4,0.1,0.9,0.4,1.1c0,0,2.4,1.7,4.1,3.8c0,0,0,0.1,0,0.1c0,0,0,0-0.1,0h0
			c-2.9-0.1-8.3-0.9-12.2-5.6c0,0,0-0.1,0-0.1c0.6-0.6,1.7-1.4,3.3-2c3.1-1.2,7.1-1.1,11.6,0.1C103.7,54.6,103.7,54.6,103.7,54.7
			C103.7,54.6,103.7,54.7,103.7,54.7 M90.7,52.6c-1,0.8-2.9,2-5.9,2.9c-0.4,0.1-0.7,0.5-0.7,1c0,0.4,0.3,0.9,0.7,1
			c0,0,2.6,1,4.7,2.7c0,0,0,0.1,0,0.1c0,0,0,0-0.1,0.1c-0.7,0.1-1.6,0.1-2.6,0.1c-3.1,0-7.2-0.6-10.4-3c0,0,0-0.1,0-0.1
			c0.5-0.7,1.4-1.7,2.8-2.7c2.8-1.8,6.8-2.6,11.5-2.3C90.7,52.4,90.7,52.5,90.7,52.6C90.7,52.5,90.7,52.5,90.7,52.6 M77.3,52.8
			c-0.8,1-2.3,2.6-5.4,4.1c-0.4,0.2-0.6,0.6-0.6,1.1c0.1,0.4,0.4,0.8,0.8,0.9c0,0,2.7,0.5,5.2,1.7c0,0,0,0,0,0.1c0,0,0,0.1-0.1,0.1
			c-1.1,0.4-2.3,0.7-3.4,0.9c-1,0.2-2.3,0.3-3.6,0.3c-2,0-4.2-0.3-6.2-1.3c0,0-0.1-0.1,0-0.1c0.3-0.8,1-2,2.2-3.2
			c2.4-2.4,6.2-4,11-4.7C77.3,52.7,77.3,52.7,77.3,52.8C77.4,52.7,77.4,52.8,77.3,52.8 M60.1,61c-0.3,0.3-0.4,0.7-0.3,1.2
			c0.2,0.4,0.5,0.7,1,0.7h0c0,0,1.1,0,2.7,0.2c1,0.1,2,0.3,2.8,0.6c0,0,0,0,0.1,0.1c0,0,0,0.1,0,0.1c-1.1,0.6-2.2,1-3.3,1.4
			c-2.4,0.8-4.5,1.1-6.3,1.1c-1.5,0-2.8-0.2-3.7-0.5c0,0-0.1,0-0.1-0.1c0.4-2.2,2.5-7.6,11.8-10.8c0,0,0.1,0,0.1,0c0,0,0,0.1,0,0.1
			C64.2,56.4,62.9,58.6,60.1,61 M155.1,116.6c0.2-3.7,1.5-6.4,2.6-8c0,0,0,0,0.1,0c0,0,0,0,0.1,0.1c0.7,2.3,1.1,4.5,1.2,6.6
			c0.1,2.1-0.2,4-0.8,5.8c-0.7,2.1-1.7,3.5-2.1,4c0,0,0,0-0.1,0c0,0,0,0,0,0c-2.6-1.6-4.7-4.3-6-7.8c-0.4-1.1-0.8-2.2-1-3.4
			c0,0,0-0.1,0-0.1c0,0,0.1,0,0.1,0c2.3,1.4,4.2,3.5,4.3,3.5c0.3,0.3,0.7,0.4,1.1,0.3C154.8,117.4,155.1,117,155.1,116.6 M151,105.1
			c-0.1-3.7,0.9-6.5,1.7-8.2c0,0,0,0,0.1,0c0,0,0.1,0,0.1,0c1,2.2,1.6,4.4,1.9,6.4c0.3,2.1,0.2,4-0.2,5.9c-0.5,2.1-1.4,3.6-1.7,4.2
			c0,0,0,0-0.1,0c0,0,0,0,0,0c-2.8-1.4-5.1-3.8-6.8-7.1c-0.5-1-1-2.1-1.4-3.3c0,0,0-0.1,0-0.1c0,0,0.1,0,0.1,0c2.5,1.2,4.6,3,4.6,3
			c0.3,0.3,0.8,0.3,1.1,0.2C150.7,105.9,151,105.5,151,105.1 M145.2,95.3L145.2,95.3c0.4-0.2,0.6-0.6,0.5-1.1
			c-0.6-3.6,0.1-6.5,0.8-8.3c0,0,0,0,0.1,0c0,0,0.1,0,0.1,0c1.2,2.1,2.1,4.2,2.6,6.2c0.5,2,0.7,4,0.5,5.9c-0.2,2.2-0.9,3.7-1.2,4.3
			c0,0,0,0-0.1,0c0,0,0,0,0,0c-3.1-1.1-5.8-3.2-7.8-6.4c-0.7-1-1.2-2.1-1.7-3.2c0,0,0-0.1,0-0.1c0,0,0,0,0.1,0c2.7,0.8,5,2.6,5,2.6
			C144.3,95.5,144.8,95.5,145.2,95.3 M137.4,85.3c0.4,0.3,0.9,0.3,1.2,0c0.4-0.3,0.5-0.7,0.4-1.1c-1-3.3-0.8-6.3-0.5-8.2
			c0,0,0-0.1,0.1-0.1c0,0,0.1,0,0.1,0c1.5,1.8,2.7,3.7,3.5,5.6c0.9,1.9,1.3,3.8,1.5,5.7c0.1,2.1-0.3,3.7-0.5,4.4c0,0,0,0.1-0.1,0.1
			c0,0,0,0,0,0c-3.1-0.6-5.9-2.3-8.5-5c-0.9-0.9-1.7-1.9-2.4-3c0,0,0-0.1,0-0.1c0,0,0,0,0.1,0C135,83.7,137.3,85.3,137.4,85.3
			 M129.6,76.4c0.4,0.2,0.9,0.1,1.2-0.3c0.3-0.3,0.4-0.8,0.2-1.2c-1.7-3.3-2-6.2-1.9-8.1c0,0,0-0.1,0-0.1c0,0,0.1,0,0.1,0
			c1.8,1.6,3.2,3.2,4.3,4.9c1.1,1.8,1.9,3.6,2.4,5.4c0.5,2.2,0.4,3.9,0.3,4.6c0,0,0,0.1-0.1,0.1c-0.1,0-0.1,0-0.2,0
			c-3.5,0-6.7-1.9-8.8-3.5c-1-0.8-2-1.7-3-2.7c0,0,0-0.1,0-0.1c0,0,0,0,0.1,0c0.1,0,0.3,0,0.4,0C127.1,75.5,129.5,76.4,129.6,76.4
			 M126.5,68.3c0.8,2.1,0.9,4.1,0.9,5.1c0,0,0,0.1-0.1,0.1c-0.2,0-0.4,0-0.6,0c-4.3,0-9.3-2.9-11.9-4.6c0,0,0,0,0-0.1
			c0,0,0-0.1,0.1-0.1c2.7-0.5,5.3,0.1,5.3,0.1c0.4,0.1,0.9-0.1,1.1-0.5c0.2-0.4,0.2-0.9-0.1-1.2c-1.7-2.1-2.7-4.6-3.3-6.2
			c0,0,0-0.1,0-0.1c0,0,0,0,0.1,0C122.2,62.2,125.1,64.7,126.5,68.3 M48.9,55.7c0.2-0.1,0.4-0.2,0.6-0.2c2.5-0.9,4.9-1.5,6.1-1.7
			c2.8-0.6,4.7-1.8,4.8-1.9c0.3-0.2,0.4-0.5,0.3-0.8c-0.1-0.3-0.3-0.5-0.6-0.6l-12.3-1.8l12.3-1.8c0.3-0.1,0.6-0.4,0.6-0.7
			c0-0.4-0.3-0.7-0.6-0.7c0,0-2.7-0.4-5.4-1.7c-0.8-0.4-1.5-0.8-2.2-1.1c-1.1-0.6-2.1-1.2-3.5-1.6c0.2,0,0.4,0,0.7,0
			c2.7,0.2,5.1,0.5,6.3,0.7c2.8,0.5,5.1,0.1,5.2,0.1c0.3,0,0.5-0.3,0.6-0.6c0.1-0.3-0.1-0.6-0.3-0.7l-10.7-6.4l12.1,3
			c0.3,0.1,0.7-0.1,0.8-0.4c0.1-0.3,0-0.7-0.3-0.9c0,0-2.3-1.4-4.4-3.6c-0.6-0.6-1.1-1.2-1.6-1.8c-0.8-1-1.5-1.9-2.7-2.8
			c0.2,0.1,0.4,0.2,0.6,0.3c2.4,1.2,4.5,2.5,5.5,3.1c2.4,1.5,4.6,2,4.7,2.1c0.3,0.1,0.6-0.1,0.8-0.3c0.2-0.3,0.2-0.6,0-0.8l-7.5-10
			l10,7.4c0.3,0.2,0.7,0.2,0.9-0.1c0.2-0.2,0.3-0.6,0.1-0.9c-0.2-0.2-1.6-2.3-2.7-5c-0.3-0.8-0.5-1.6-0.8-2.3
			c-0.4-1.2-0.7-2.3-1.4-3.6c0.2,0.2,0.3,0.3,0.4,0.5c1.8,2,3.2,4,3.9,5c1.6,2.3,3.4,3.6,3.6,3.7c0.2,0.2,0.6,0.2,0.8,0
			c0.2-0.2,0.4-0.5,0.3-0.8L71,14l6.4,10.7c0.2,0.3,0.6,0.4,0.9,0.3c0.3-0.1,0.5-0.5,0.4-0.8c0-0.1-0.6-2.7-0.5-5.7
			c0-0.9,0.1-1.7,0.2-2.4c0.1-1.2,0.3-2.4,0.1-3.9c0.1,0.2,0.2,0.4,0.2,0.6c0.9,2.5,1.4,4.9,1.7,6.1c0.6,2.7,1.8,4.6,1.9,4.8
			c0.2,0.3,0.5,0.4,0.8,0.3c0.3-0.1,0.5-0.3,0.6-0.6l1.7-12.2l1.8,12.2c0,0.3,0.4,0.6,0.7,0.6c0.4,0,0.7-0.3,0.7-0.6
			c0-0.1,0.4-2.7,1.7-5.5c0.4-0.8,0.7-1.5,1.1-2.2c0.6-1.1,1.2-2.1,1.6-3.5c0,0.2,0,0.4,0,0.7c-0.2,2.7-0.5,5.1-0.7,6.3
			c-0.5,2.8-0.1,5.1-0.1,5.2c0,0.3,0.3,0.5,0.6,0.6c0.3,0.1,0.6-0.1,0.7-0.3L99.8,14l-3,12.1c-0.1,0.3,0.1,0.7,0.4,0.8
			c0.3,0.1,0.7,0,0.9-0.3c0.1-0.2,1.5-2.4,3.6-4.4c0.6-0.6,1.2-1.1,1.8-1.6c1-0.8,1.9-1.5,2.8-2.7c-0.1,0.2-0.2,0.4-0.3,0.6
			c-1.2,2.4-2.4,4.5-3.1,5.5c-1.5,2.4-2,4.7-2.1,4.7c-0.1,0.3,0.1,0.6,0.3,0.8c0.3,0.2,0.6,0.1,0.8,0l10-7.4l-7.4,10
			c-0.2,0.3-0.2,0.7,0.1,0.9c0.2,0.2,0.6,0.3,0.9,0.1c0,0,2.2-1.6,5-2.7c0.8-0.3,1.6-0.5,2.3-0.8c1.2-0.4,2.3-0.7,3.6-1.4
			c-0.2,0.2-0.3,0.3-0.5,0.4c-2,1.8-4,3.2-5,3.9c-2.3,1.6-3.7,3.5-3.7,3.6c-0.2,0.2-0.2,0.6,0,0.8c0.2,0.2,0.5,0.4,0.8,0.3l12-3.1
			l-10.7,6.4c-0.3,0.2-0.4,0.6-0.3,0.9c0.1,0.3,0.5,0.5,0.8,0.4c0.3-0.1,2.8-0.6,5.7-0.5c0.9,0,1.7,0.1,2.4,0.2
			c1.2,0.1,2.4,0.3,3.9,0.1c-0.2,0.1-0.4,0.2-0.6,0.2c-2.5,0.9-4.9,1.5-6.1,1.7c-2.8,0.6-4.7,1.8-4.8,1.9c-0.3,0.2-0.4,0.5-0.3,0.8
			c0.1,0.3,0.3,0.5,0.6,0.6l12.3,1.8l-12.3,1.8c-0.3,0.1-0.6,0.4-0.6,0.7c0,0.4,0.3,0.7,0.6,0.7c0.3,0,2.8,0.5,5.4,1.7
			c0.8,0.4,1.5,0.7,2.2,1.1c1.1,0.6,2.1,1.2,3.5,1.6c-0.2,0-0.4,0-0.7,0c-2.7-0.2-5.1-0.5-6.3-0.8l-0.3-0.1c-2.2-1-4.5-1.5-6.8-1.5
			c0,0,0,0,0-0.1c-0.1-0.5-0.4-0.9-0.9-1c-3.3-1.2-6.5-1.8-9.3-1.8c-1,0-2,0.1-3,0.2c0-0.1-0.1-0.3-0.1-0.4
			c-0.2-0.4-0.6-0.7-1.1-0.8c-3.5-0.5-6.7-0.4-9.5,0.1c-1.1,0.2-2.2,0.5-3.2,0.9c0-0.3-0.2-0.6-0.4-0.8c-0.3-0.3-0.7-0.5-1.2-0.4
			c-3.5,0.3-6.7,1-9.3,2.1c-0.7,0.3-1.4,0.6-2,1c0-0.4-0.2-0.7-0.5-0.9c-0.4-0.3-0.8-0.4-1.3-0.3c-3.4,0.9-6.4,2.3-8.8,3.9L57.1,56
			c-0.7,0-1.3,0.1-1.9,0c-0.5,0-2.2-0.2-2.4-0.2C51.5,55.7,50.3,55.6,48.9,55.7 M52.2,59.3C52.2,59.2,52.2,59.2,52.2,59.3
			c0.1,0,0.1,0,0.1,0.1c-0.1,1.9-0.7,4.8-2.7,7.9c-0.2,0.4-0.2,0.8,0,1.2c0.2,0.3,0.7,0.5,1.1,0.4c0,0,2.7-0.5,5.4-0.3
			c0,0,0.1,0,0.1,0.1c0,0,0,0.1,0,0.1c-2.3,1.8-6.9,4.9-11.7,4.9c-0.2,0-0.3,0-0.5,0c0,0-0.1,0-0.1-0.1C43.6,71.1,44.2,65,52.2,59.3
			 M35.2,77.2c0.4-1.8,1.2-3.6,2.3-5.4c1.1-1.7,2.6-3.4,4.5-5c0,0,0.1,0,0.1,0c0,0,0,0,0,0.1c0.1,1.9-0.2,4.8-1.9,8.1
			c-0.2,0.4-0.1,0.8,0.1,1.2c0.3,0.3,0.7,0.4,1.1,0.3c0,0,2.5-0.9,5.2-0.9c0,0,0.1,0,0.1,0c0,0,0,0.1,0,0.1c-1,1-2,1.9-3.1,2.7
			c-2.1,1.6-5.2,3.5-8.2,3.5c-0.1,0-0.2,0-0.4,0c0,0-0.1,0-0.1-0.1C34.9,81.1,34.8,79.4,35.2,77.2 M32.5,75.8
			C32.5,75.8,32.6,75.8,32.5,75.8c0.1,0,0.1,0,0.1,0c0.4,1.9,0.6,4.8-0.6,8.3c-0.1,0.4,0,0.9,0.4,1.2c0.4,0.3,0.8,0.3,1.2,0
			c0,0,2.3-1.6,5.2-1.8c0,0,0.1,0,0.1,0c0,0,0,0.1,0,0.1c-1.9,2.6-5.8,7.2-10.8,8h0c0,0-0.1,0-0.1,0C27.2,89.4,26.2,83.4,32.5,75.8
			 M21.6,92.1c0.6-2,1.6-4,2.9-6c0,0,0,0,0.1,0c0,0,0.1,0,0.1,0c0.6,1.8,1.1,4.7,0.4,8.4c-0.1,0.5,0.1,0.9,0.5,1.1
			c0.4,0.2,0.9,0.1,1.2-0.2c0,0,2.1-2.1,5.1-2.5c0,0,0.1,0,0.1,0c0,0,0,0.1,0,0.1c-0.4,0.8-1.1,2.1-2,3.4c-2.2,3.1-4.9,5.1-7.9,5.9
			c0,0,0,0,0,0c0,0-0.1,0-0.1,0c-0.3-0.6-0.9-2.2-1.1-4.4C20.8,96,21,94.1,21.6,92.1 M15.8,103.3c0.3-2,1-4.2,2-6.4c0,0,0,0,0.1,0
			c0,0,0.1,0,0.1,0c0.9,1.7,1.8,4.5,1.7,8.2c0,0.4,0.2,0.8,0.6,1c0.4,0.2,0.8,0.1,1.1-0.2c0.1-0.1,2.3-2,4.9-3.1c0,0,0.1,0,0.1,0
			c0,0,0,0,0,0.1c-0.3,1-0.6,2.1-1.1,3.1c-1.6,3.2-4.1,5.7-7.4,7.4c0,0,0,0,0,0c0,0,0,0-0.1,0c-0.4-0.7-1.2-2.1-1.7-4.2
			C15.5,107.3,15.5,105.4,15.8,103.3 M12.6,108.6C12.6,108.5,12.6,108.5,12.6,108.6c0.1-0.1,0.1,0,0.1,0c1.1,1.6,2.4,4.2,2.7,7.9
			c0,0.4,0.3,0.8,0.7,0.9c0.4,0.1,0.8,0,1.1-0.3c0,0,1.9-2.2,4.4-3.7c0,0,0.1,0,0.1,0c0,0,0,0,0,0.1c-0.1,1.1-0.4,2.2-0.7,3.3
			c-1.1,3.5-3.3,6.2-6.4,8.2c0,0,0,0,0,0c0,0,0,0-0.1,0c-0.4-0.5-1.5-1.9-2.2-3.9c-0.6-1.8-0.9-3.7-0.9-5.8
			C11.5,113.1,11.9,110.9,12.6,108.6 M9,120.8C9,120.7,9,120.7,9,120.8c0.1-0.1,0.1-0.1,0.1,0c1.3,1.4,2.9,3.9,3.6,7.5
			c0.1,0.4,0.4,0.7,0.8,0.8c0.4,0.1,0.8-0.1,1.1-0.4c0.1-0.1,1.7-2.4,3.9-4.1c0,0,0.1,0,0.1,0c0,0,0,0,0,0.1
			c-0.1,1.1-0.2,2.2-0.4,3.2c-0.8,3.5-2.5,6.5-5.1,8.8c0,0,0,0,0,0c0,0,0,0-0.1,0c-0.6-0.5-1.7-1.7-2.6-3.6
			c-0.8-1.7-1.4-3.6-1.6-5.7C8.5,125.4,8.6,123.1,9,120.8 M7.2,133C7.2,133,7.2,133,7.2,133c0.1-0.1,0.1-0.1,0.1,0
			c1.3,1.4,3.1,3.8,4,7.4c0.1,0.4,0.5,0.7,0.9,0.8c0.4,0,0.9-0.2,1-0.6c0,0,1.2-2.4,3.2-4.3c0,0,0.1,0,0.1,0c0,0,0,0,0,0.1
			c0,1.2-0.1,2.5-0.3,3.7c-0.6,3.7-2.1,6.7-4.3,8.8c0,0,0,0-0.1,0c0,0,0,0,0,0c-0.5-0.4-1.8-1.6-2.8-3.5c-0.9-1.6-1.5-3.5-1.8-5.6
			C6.9,137.6,6.9,135.4,7.2,133 M6.2,145.9C6.2,145.8,6.2,145.8,6.2,145.9c0.1-0.1,0.1-0.1,0.1,0c0.3,0.2,0.5,0.5,0.8,0.8
			c1.1,1.2,2.7,3.3,3.7,6.3c0.1,0.5,0.6,0.8,1.1,0.7c0.5,0,0.9-0.4,1-0.9c0,0,0.5-2.6,2.7-4.6c0,0,0,0,0.1,0c0,0,0,0,0,0.1
			c0.2,1.4,0.4,3.7,0,6.1c-0.5,2.9-1.7,5.2-3.6,7.1c0,0,0,0-0.1,0c0,0,0,0,0,0C9.9,160,5.5,155.7,6.2,145.9 M5.7,158.4
			C5.7,158.3,5.7,158.3,5.7,158.4c0.4,0.2,0.7,0.5,0.9,0.7c1.3,1.1,3,3,4.3,5.9c0.2,0.4,0.5,0.6,0.9,0.6h0c0.4,0,0.8-0.3,0.9-0.6
			c0,0,1.1-2.8,3-4.9c0,0,0,0,0.1,0c0,0,0,0,0.1,0.1c0.6,2.6,0.9,7.8-2.9,13.1c0,0,0,0-0.1,0c0,0,0,0,0,0
			C10.8,172,6,168.2,5.7,158.4C5.6,158.4,5.6,158.4,5.7,158.4 M6.3,171.3C6.3,171.3,6.3,171.3,6.3,171.3c0.1-0.1,0.1-0.1,0.1-0.1
			c1.7,0.9,4.2,2.5,6.3,5.6c0.2,0.3,0.6,0.5,1.1,0.4c0.4-0.1,0.7-0.4,0.8-0.8l0.1,0l-0.1,0c0-0.1,0.7-3,2.1-5.4c0,0,0,0,0.1,0
			c0,0,0.1,0,0.1,0c0.5,1.1,0.9,2.2,1.1,3.3c0.8,3.5,0.2,7-1.7,10.2c0,0,0,0-0.1,0c0,0,0,0,0,0c-0.6-0.2-2.2-0.9-3.9-2.4
			c-1.4-1.2-2.6-2.8-3.6-4.7C7.6,175.8,6.8,173.7,6.3,171.3 M9.2,183.4C9.2,183.4,9.2,183.3,9.2,183.4
			C9.3,183.3,9.3,183.3,9.2,183.4c0.4,0.1,0.8,0.2,1.1,0.4c1.5,0.8,3.7,2.2,5.7,4.7c0.3,0.3,0.7,0.5,1.1,0.4
			c0.4-0.1,0.7-0.4,0.8-0.9c0,0,0.4-2.9,1.6-5.4c0,0,0,0,0.1,0c0,0,0.1,0,0.1,0c1.2,2.7,2.9,8,0.5,13.3c0,0,0,0-0.1,0c0,0,0,0,0,0
			C17.7,195.3,12.1,192.8,9.2,183.4 M16.5,201.3c-1.3-1.6-2.5-3.5-3.4-5.7c0,0,0-0.1,0-0.1c0,0,0.1,0,0.1,0c0.3,0.1,0.7,0.2,1,0.3
			c1.6,0.6,3.9,1.8,6.2,4c0.3,0.3,0.7,0.4,1.1,0.2c0.4-0.2,0.6-0.5,0.7-0.9c0,0,0.1-2.8,0.9-5.4c0,0,0,0,0.1-0.1c0,0,0.1,0,0.1,0
			c0.6,1,1.1,2.1,1.5,3.2c1.3,3.5,1.5,6.8,0.5,9.9c0,0,0,0.1-0.1,0.1c0,0,0,0,0,0c-0.6-0.1-2.3-0.5-4.2-1.6
			C19.3,204.2,17.8,202.9,16.5,201.3 M18.3,207C18.3,206.9,18.3,206.9,18.3,207c0-0.1,0-0.1,0.1-0.1c1.9,0.3,4.8,1.2,7.7,3.5
			c0.3,0.3,0.8,0.3,1.2,0.1c0.4-0.2,0.6-0.6,0.5-1c0-0.1-0.3-2.7,0.3-5.4c0,0,0,0,0.1-0.1c0,0,0.1,0,0.1,0c0.7,1,1.3,2.1,1.8,3.1
			c1.2,2.3,2.4,5.9,1.8,9.6c0,0,0,0.1-0.1,0.1h0c-0.8,0-2.4-0.2-4.4-1.1c-1.7-0.8-3.4-1.9-4.9-3.4C20.9,210.8,19.5,209,18.3,207
			 M42.2,227.8c0,0-1-2.5-1.3-5.3c0,0,0-0.1,0-0.1c0,0,0.1,0,0.1,0c2.4,2,6.5,6.3,6.2,11.9c0,0,0,0.1-0.1,0.1
			c-0.3,0.1-0.9,0.1-1.6,0.1c-0.7,0-1.5-0.1-2.5-0.3c-3.5-0.7-7.1-2.8-10.7-6.1c0,0,0,0,0-0.1c0,0,0,0,0.1-0.1
			c1.9-0.2,4.9-0.2,8.4,1.1c0.4,0.2,0.8,0.1,1.1-0.2C42.3,228.6,42.4,228.2,42.2,227.8 M32.8,220.3c0.4,0.2,0.8,0.2,1.2,0
			c0.3-0.3,0.5-0.7,0.4-1.1c0,0-0.6-2.6-0.3-5.3c0,0,0-0.1,0.1-0.1c0,0,0.1,0,0.1,0c2,2.4,5.3,7.2,5,12.2c0,0,0,0.1-0.1,0.1
			c-0.1,0-0.3,0-0.5,0c-0.9,0-2.3-0.1-4-0.7c-1.8-0.6-3.6-1.5-5.2-2.8c-1.6-1.3-3.2-2.9-4.6-4.9c0,0,0-0.1,0-0.1c0,0,0,0,0.1,0
			C26.7,217.7,29.6,218.3,32.8,220.3 M73.5,193c-0.3,0.2-0.7,0.4-1,0.7c-2.2,1.6-3.6,3.2-4.1,4.9c-0.3-0.1-0.6-0.1-0.8-0.2
			c-1.7-0.6-1.8-1.4-1.8-1.7c0-0.9,0.4-1.7,1.7-2.9c1.5-1.5,2.8-2.2,3.9-2.2c0.4,0,0.8,0.1,1.1,0.3c0.5,0.3,0.9,0.6,1,0.9
			C73.5,192.8,73.5,192.9,73.5,193 M75.6,201.6c-0.7,0.1-2.5,0.3-3.4-0.3c-0.2-0.2-0.4-0.4-0.5-1c-0.2-1.4,1.7-3,2.9-3.8
			c1.8-1.2,3-1.9,4-1.9c0.5,0,0.9,0.2,1.4,0.5c0.4,0.3,0.5,0.6,0.5,0.8c0,0.5-0.6,1.2-1.1,1.6C77.5,198.7,76.3,200.1,75.6,201.6
			 M84.5,201.9c-0.7,0.5-2.9,1.9-4.6,1.6c-0.3-0.1-0.7-0.2-1-0.6c0.8-1.6,2.4-2.6,3.9-3.5c2-1.1,2.8-0.5,2.8-0.5
			c0.6,0.6,0.5,0.9,0.5,1c-0.1,0.7-1.1,1.5-1.5,1.8C84.5,201.8,84.5,201.9,84.5,201.9 M65.9,190.5c-0.3,0.2-0.5,0.5-0.8,0.7
			c-1,1-2.1,2.2-2.6,3.8c-0.3,0-0.5,0-0.7-0.1c-1.1-0.2-1.7-0.5-1.9-0.8c-0.1-0.2-0.3-0.7,0.4-1.5c0.9-1.2,3-2.2,4.5-2.2
			c0.1,0,0.3,0,0.4,0c0.1,0,0.1,0,0.1,0C65.4,190.4,65.7,190.4,65.9,190.5 M110.6,192.6c-0.5,0.5-1.3,0.7-2.3,0.8
			c-1.5-2-5.2-6.6-10-8.9c-0.4-0.2-0.9-0.2-1.3-0.1c-0.4,0.1-0.8,0.5-1,0.9c-0.2,0.4-0.2,0.9-0.1,1.3c0.2,0.4,0.5,0.8,0.9,1
			c4,2,7.4,6.1,8.7,7.8c-0.1,0.3-0.3,0.6-0.5,0.8c-0.7,0.7-1.6,1.1-2.8,1.1c-0.4-0.9-1.2-2.1-2.3-3.3c-1.5-1.7-4.5-3.8-4.6-3.9
			c-0.4-0.3-0.8-0.4-1.3-0.3c-0.5,0.1-0.9,0.3-1.1,0.7c-0.3,0.4-0.4,0.8-0.3,1.3c0.1,0.5,0.3,0.9,0.7,1.1c0.8,0.5,3,2.2,4,3.3
			c1.2,1.3,1.6,2.2,1.8,2.6c-0.2,0.3-0.4,0.7-0.8,1.1c-0.6,0.6-1.4,0.8-2.3,0.7c-0.4-1-1.4-2.8-3.2-4.8c-0.6-0.7-1.7-0.8-2.4-0.1
			c-0.3,0.3-0.6,0.7-0.6,1.2c0,0.5,0.1,0.9,0.4,1.3c1.2,1.4,2,2.6,2.4,3.5c-0.3,0.2-0.6,0.3-0.9,0.5c-0.9,0.3-1.8,0.5-2.8,0.3
			c0.4-0.7,0.7-1.4,0.8-2.1c0.1-1-0.1-2.4-1.5-3.8c-0.7-0.8-2.2-1.4-4.2-1.1c-0.1-1.1-0.7-2-1.7-2.9c-1.6-1.4-3.4-1.7-5.5-1.1v0
			c-0.3-0.8-1-1.9-2.6-2.7c-1.4-0.7-3-0.8-4.6-0.3c-1.4-1.2-3.3-1.4-3.8-1.5c-2.3-0.3-5.3,0.8-7.3,2.6c-9.9,5.3-22.6,11-27.8,13.3
			c-2.7-5.1-5-10.6-6.9-16.4c-0.5-1.6-1-3.2-1.4-4.8c14.6-1.7,26.3-3.4,34.8-5.1c9-1.8,14.7-3.6,17.7-5.6c3.4-2.4,5.7-3.6,9-3.3
			c0.8,0.1,1.5,0.1,2.1,0.2c-0.6,0.3-1.2,0.6-1.8,1c-1.4,1-2.2,1.6-2.9,2.3c-0.8,0.6-1.3,1.1-2.3,1.7c-0.7,0.4-1.5,0.9-2.4,1.3
			c-2,1-3.6,1.8-4.1,3.2c-0.5,1.5-0.3,2.8,0.7,4.2c1.6,2.2,4.1,2,6.1,1.9c2.3-0.1,5-1,7.1-2.1c0.7-0.4,1.4-0.8,1.9-1.2
			c0.9-0.6,1.6-1.1,2.2-1.2c0,0,0.1,0,0.1,0c1.8-0.5,3.7-0.3,6.1,0.6c2.1,0.8,4.2,2.1,6.1,3.3c4.5,3,7.9,6.9,8.9,8.2
			C111.3,191.5,111.1,192.2,110.6,192.6 M116.9,191.3c-1.5-1.1-2.5-2.1-3-2.7c0,0,0,0,0,0l-0.1-0.1c-0.1-0.2-0.2-0.3-0.3-0.3
			c-1.6-1.9-4.8-5.4-9.2-8.3c-3.2-2.1-9.1-5.9-14.9-4.4c-1.2,0.3-2.1,0.9-3.3,1.7c-0.5,0.4-1.1,0.7-1.7,1.1c-1.8,1-4.1,1.6-5.5,1.7
			c-1.6,0.1-2.7,0.1-3.1-0.5c-0.4-0.5-0.4-0.7-0.3-0.9c0.4-0.3,1.7-1,2.5-1.4c1-0.5,1.9-0.9,2.8-1.5c1.1-0.7,1.8-1.3,2.6-1.9
			c0.7-0.6,1.5-1.2,2.8-2.1c1.7-1.2,3.6-1.3,6.5-1.3h0.1c0.4,0,0.9,0,1.4,0c0.3,0,0.7,0,1.1,0c3.1-0.1,5.8,0.9,10,2.4
			c1.2,0.4,2.6,0.9,4.2,1.5c0.2,0.1,5.9,1.9,13.5,3.7c6.7,1.6,16.5,3.6,25.7,4.2c-0.4,1.5-0.9,3-1.3,4.4c-1.9,6-4.3,11.7-7.2,17
			C135.3,201.6,124.2,196.7,116.9,191.3 M138.4,228.2c-4.4,4.2-8.2,5.6-10.6,6.1c-1,0.2-1.8,0.3-2.5,0.3c-0.7,0-1.3-0.1-1.6-0.1
			c0,0-0.1,0-0.1-0.1c-0.1-3.2,1.1-6.3,3.6-9.2c0.8-0.9,1.7-1.8,2.7-2.6c0,0,0.1,0,0.1,0c0,0,0,0,0,0.1c-0.3,2.6-1.3,5.2-1.3,5.2
			c-0.2,0.4-0.1,0.8,0.2,1.1c0.3,0.3,0.7,0.4,1.1,0.2c3.5-1.4,6.5-1.4,8.4-1.1C138.4,228.1,138.4,228.1,138.4,228.2
			C138.4,228.1,138.4,228.2,138.4,228.2 M146.2,217.7c-1.4,1.9-3,3.6-4.6,4.9c-1.7,1.3-3.4,2.3-5.2,2.8c-1.7,0.5-3.1,0.7-4,0.7
			c-0.2,0-0.4,0-0.5,0c0,0-0.1,0-0.1-0.1c-0.2-3.1,0.7-6.2,2.7-9.4c0.6-1,1.4-2,2.2-2.9c0,0,0,0,0.1,0c0,0,0,0,0,0.1
			c0.3,2.7-0.3,5.4-0.3,5.4c-0.1,0.4,0.1,0.8,0.4,1.1c0.3,0.2,0.8,0.2,1.2,0c3.1-2,6.1-2.6,8-2.7
			C146.2,217.6,146.2,217.6,146.2,217.7C146.3,217.7,146.3,217.7,146.2,217.7 M148.6,212.3c-1.5,1.5-3.2,2.6-4.9,3.4
			c-2,0.9-3.8,1.1-4.4,1.1h0c0,0-0.1,0-0.1-0.1c-0.5-3,0-6.3,1.7-9.6c0.5-1,1.1-2.1,1.8-3.1c0,0,0,0,0.1,0c0,0,0.1,0,0.1,0.1
			c0.5,2.6,0.3,5.4,0.3,5.5c0,0.4,0.2,0.8,0.5,1c0.4,0.2,0.8,0.2,1.1-0.1c2.9-2.3,5.8-3.2,7.7-3.5c0,0,0.1,0,0.1,0c0,0,0,0.1,0,0.1
			C151.5,209.1,150.1,210.8,148.6,212.3 M154.4,201.1c-1.3,1.6-2.8,2.9-4.5,3.9c-1.8,1.1-3.4,1.5-4.2,1.6c0,0,0,0,0,0
			c0,0-0.1,0-0.1-0.1c-0.9-3.1-0.7-6.4,0.6-9.9c0.4-1.1,0.9-2.1,1.4-3.1c0,0,0,0,0.1,0c0,0,0.1,0,0.1,0c0.8,2.6,1,5.4,1,5.4
			c0,0.4,0.3,0.8,0.7,0.9c0.4,0.1,0.8,0,1.1-0.3c2.3-2.5,4.6-3.7,6.1-4.2c0.4-0.1,0.7-0.2,1.1-0.3c0,0,0.1,0,0.1,0c0,0,0,0,0,0.1
			C156.9,197.5,155.7,199.4,154.4,201.1 M158.8,189.4c-1.2,1.7-2.5,3.2-4,4.3c-1.8,1.3-3.4,1.8-4.1,2c0,0,0,0,0,0c0,0-0.1,0-0.1,0
			c-1.5-3.6-1-7.4-0.4-10c0.3-1.2,0.7-2.3,1.1-3.5c0,0,0,0,0.1,0c0,0,0.1,0,0.1,0c1.1,2.5,1.5,5.4,1.5,5.6c0.1,0.4,0.3,0.8,0.7,0.9
			c0.4,0.1,0.8,0,1.1-0.3c2.3-2.9,5-4.3,6.7-5c0,0,0.1,0,0.1,0c0,0,0,0,0,0.1C160.9,185.6,159.9,187.7,158.8,189.4 M162,177.2
			c-0.9,1.9-2.1,3.5-3.5,4.8c-1.6,1.5-3,2.2-3.8,2.5c0,0,0,0,0,0c0,0,0,0-0.1,0c-1.6-2.8-2.2-6.2-1.7-10c0.1-1.2,0.4-2.4,0.7-3.5
			c0,0,0-0.1,0.1-0.1c0,0,0.1,0,0.1,0c1.4,2.4,2.2,5.4,2.2,5.4c0.1,0.4,0.4,0.7,0.8,0.8c0.4,0.1,0.8-0.1,1-0.5
			c2-3.1,4.4-4.9,6.1-5.8c0,0,0.1,0,0.1,0c0,0,0,0,0,0.1C163.6,173.2,162.9,175.3,162,177.2"/>
		<path class="st2" d="M138.3,228.1c-1.9-0.2-4.9-0.2-8.4,1.1c-0.4,0.2-0.8,0.1-1.1-0.2c-0.3-0.3-0.4-0.7-0.2-1.1c0,0,1-2.6,1.3-5.2
			c0,0,0-0.1,0-0.1c0,0-0.1,0-0.1,0c-1,0.8-1.9,1.7-2.7,2.6c-2.5,2.9-3.7,6-3.6,9.2c0,0,0,0.1,0.1,0.1c0.4,0.1,0.9,0.1,1.6,0.1
			c0.7,0,1.5-0.1,2.5-0.3c2.4-0.5,6.2-1.9,10.7-6.1C138.4,228.2,138.4,228.1,138.3,228.1C138.4,228.1,138.4,228.1,138.3,228.1"/>
		<path class="st2" d="M41.1,222.5C41.1,222.5,41,222.5,41.1,222.5c-0.1,0-0.1,0-0.1,0.1c0.2,2.8,1.3,5.3,1.3,5.3
			c0.2,0.4,0.1,0.8-0.2,1.1c-0.3,0.3-0.7,0.4-1.1,0.2c-3.5-1.4-6.5-1.4-8.4-1.1c0,0-0.1,0-0.1,0.1c0,0,0,0.1,0,0.1
			c3.6,3.4,7.2,5.4,10.7,6.1c1,0.2,1.8,0.3,2.5,0.3c0.8,0,1.3-0.1,1.6-0.1c0,0,0.1,0,0.1-0.1C47.5,228.8,43.5,224.5,41.1,222.5"/>
		<path class="st2" d="M146.2,217.6c-1.9,0.1-4.9,0.7-8,2.7c-0.4,0.2-0.8,0.2-1.1,0c-0.3-0.2-0.5-0.7-0.4-1.1c0,0,0.5-2.7,0.3-5.4
			c0,0,0-0.1-0.1-0.1c0,0-0.1,0-0.1,0c-0.8,0.9-1.5,1.9-2.2,2.9c-2,3.2-3,6.3-2.7,9.4c0,0,0,0.1,0.1,0.1c0.1,0,0.3,0,0.5,0
			c0.9,0,2.3-0.1,4-0.7c1.8-0.6,3.6-1.5,5.2-2.8c1.6-1.3,3.2-2.9,4.6-4.9C146.3,217.7,146.3,217.7,146.2,217.6
			C146.2,217.6,146.2,217.6,146.2,217.6"/>
		<path class="st2" d="M152.6,206.9c-1.9,0.3-4.8,1.2-7.7,3.5c-0.3,0.3-0.8,0.3-1.1,0.1c-0.4-0.2-0.6-0.6-0.5-1c0,0,0.2-2.8-0.3-5.5
			c0,0,0-0.1-0.1-0.1c0,0-0.1,0-0.1,0c-0.7,1-1.3,2-1.8,3.1c-1.7,3.4-2.3,6.6-1.7,9.6c0,0,0,0.1,0.1,0.1h0c0.6,0,2.4-0.2,4.4-1.1
			c1.7-0.8,3.4-1.9,4.9-3.4c1.5-1.4,2.9-3.2,4.1-5.3C152.7,207,152.7,206.9,152.6,206.9C152.7,206.9,152.6,206.9,152.6,206.9"/>
		<path class="st2" d="M157.8,195.1c-0.4,0.1-0.7,0.2-1.1,0.3c-1.5,0.5-3.8,1.7-6.1,4.2c-0.3,0.3-0.7,0.4-1.1,0.3
			c-0.4-0.1-0.7-0.5-0.7-0.9c0,0-0.1-2.8-1-5.4c0,0,0,0-0.1-0.1c0,0-0.1,0-0.1,0c-0.6,1-1,2.1-1.4,3.1c-1.3,3.5-1.5,6.8-0.6,9.9
			c0,0,0,0.1,0.1,0.1c0,0,0,0,0,0c0.8-0.1,2.4-0.5,4.2-1.6c1.6-1,3.1-2.3,4.5-3.9c1.3-1.6,2.5-3.6,3.5-5.9
			C157.9,195.2,157.9,195.1,157.8,195.1C157.8,195.1,157.8,195.1,157.8,195.1"/>
		<path class="st2" d="M161.5,183.2c-1.8,0.7-4.4,2.2-6.7,5.1c-0.3,0.3-0.7,0.5-1.1,0.3c-0.4-0.1-0.7-0.5-0.7-0.9
			c0-0.1-0.4-3-1.5-5.5c0,0,0,0-0.1,0c0,0-0.1,0-0.1,0c-0.5,1.1-0.8,2.3-1.1,3.5c-0.6,2.6-1,6.4,0.4,10c0,0,0,0,0.1,0c0,0,0,0,0,0
			c0.6-0.2,2.3-0.7,4.1-2c1.5-1.1,2.9-2.6,4-4.3C159.9,187.7,160.9,185.6,161.5,183.2C161.6,183.3,161.6,183.3,161.5,183.2
			C161.6,183.2,161.5,183.2,161.5,183.2"/>
		<path class="st2" d="M164,170.8c-1.7,0.9-4.1,2.7-6.1,5.8c-0.2,0.4-0.6,0.5-1,0.5c-0.4-0.1-0.7-0.4-0.8-0.8c0,0-0.8-3-2.2-5.4
			c0,0,0,0-0.1,0c0,0-0.1,0-0.1,0.1c-0.3,1.2-0.6,2.3-0.7,3.5c-0.5,3.8,0.1,7.2,1.7,10c0,0,0,0,0.1,0c0,0,0,0,0,0
			c0.7-0.3,2.2-1,3.8-2.5c1.4-1.3,2.5-2.9,3.5-4.8c0.9-1.9,1.6-4,2-6.3C164.1,170.8,164.1,170.8,164,170.8
			C164,170.7,164,170.7,164,170.8"/>
		<path class="st2" d="M159.7,164.6c-0.2,0.4-0.6,0.6-1,0.6c-0.4,0-0.8-0.3-0.9-0.7c0,0-1-2.8-2.7-4.9c0,0,0,0-0.1,0
			c0,0,0,0-0.1,0.1c-0.2,1.2-0.4,2.4-0.4,3.6c-0.1,3.7,0.9,6.9,2.8,9.6c0,0,0,0,0.1,0c0,0,0,0,0,0c0.6-0.3,2-1.2,3.5-2.9
			c1.2-1.4,2.2-3.2,2.9-5.1c0.7-1.9,1.1-4.1,1.3-6.5c0,0,0-0.1,0-0.1c0,0-0.1,0-0.1,0C163.5,159.3,161.3,161.3,159.7,164.6"/>
		<path class="st2" d="M159.3,153.3c-0.4,0-0.8-0.2-1-0.6c0,0-1.2-2.5-3.1-4.5c0,0-0.1,0-0.1,0c0,0,0,0,0,0.1
			c-0.1,3.1,0.2,8.8,3.6,12.6c0,0,0,0,0.1,0c0,0,0,0,0,0c0.5-0.4,1.9-1.4,3.2-3.2c1.1-1.5,1.9-3.3,2.4-5.4c0.5-2,0.7-4.2,0.7-6.6
			c0,0,0-0.1,0-0.1c0,0-0.1,0-0.1,0c-1.5,1.3-3.4,3.5-4.7,6.9C160,153,159.7,153.3,159.3,153.3"/>
		<path class="st2" d="M158.7,141.1c-0.4,0.1-0.8-0.1-1-0.5c0,0-1.4-2.3-3.4-4c0,0-0.1,0-0.1,0c0,0,0,0,0,0.1
			c0.3,3.3,1.3,9.4,4.7,12.2c0,0,0,0,0,0c0,0,0,0,0,0c0.5-0.4,1.8-1.6,2.9-3.5c0.9-1.6,1.5-3.5,1.8-5.6c0.3-2,0.3-4.3,0-6.7
			c0,0,0-0.1-0.1-0.1c0,0-0.1,0-0.1,0c-1.3,1.4-3.1,3.8-4,7.4C159.4,140.7,159.1,141,158.7,141.1"/>
		<path class="st2" d="M157.1,129.3c-0.4,0.1-0.8-0.1-1.1-0.4c0,0-1.6-2.3-3.7-4c0,0-0.1,0-0.1,0c0,0,0,0,0,0.1
			c0.1,1.2,0.3,2.4,0.6,3.5c0.6,2.5,2,6.1,4.8,8.4c0,0,0,0,0,0c0,0,0,0,0,0c0.5-0.4,1.7-1.7,2.7-3.6c0.8-1.7,1.4-3.6,1.6-5.7
			c0.2-2.1,0.1-4.3-0.3-6.7c0,0,0-0.1-0.1-0.1c0,0-0.1,0-0.1,0c-1.3,1.4-2.9,3.9-3.6,7.5C157.8,128.8,157.5,129.2,157.1,129.3"/>
		<path class="st2" d="M154.4,117.5c-0.4,0.1-0.8,0-1.1-0.3c0,0-1.9-2.1-4.3-3.5c0,0-0.1,0-0.1,0c0,0,0,0,0,0.1
			c0.3,1.2,0.6,2.3,1,3.4c1.4,3.5,3.4,6.1,6,7.8c0,0,0,0,0,0c0,0,0,0,0.1,0c0.4-0.5,1.4-1.9,2.1-4c0.6-1.8,0.9-3.7,0.8-5.8
			c-0.1-2.1-0.5-4.3-1.2-6.6c0,0,0,0-0.1-0.1c0,0-0.1,0-0.1,0c-1,1.6-2.3,4.3-2.6,8C155.1,117.1,154.8,117.4,154.4,117.5"/>
		<path class="st2" d="M149.2,105.9c0,0-2.1-1.9-4.6-3c0,0-0.1,0-0.1,0c0,0,0,0,0,0.1c0.4,1.1,0.9,2.2,1.4,3.3
			c1.7,3.4,4,5.8,6.8,7.1c0,0,0,0,0,0c0,0,0,0,0.1,0c0.4-0.5,1.2-2,1.7-4.2c0.4-1.8,0.5-3.8,0.2-5.9c-0.3-2-0.9-4.2-1.9-6.4
			c0,0,0,0-0.1,0c0,0-0.1,0-0.1,0c-0.9,1.7-1.9,4.5-1.7,8.2c0,0.4-0.2,0.8-0.6,1C150,106.3,149.5,106.2,149.2,105.9"/>
		<path class="st2" d="M138.9,92.7C138.9,92.7,138.9,92.7,138.9,92.7c0.5,1.2,1,2.3,1.7,3.3c2,3.1,4.7,5.3,7.8,6.4c0,0,0,0,0,0
			c0,0,0.1,0,0.1,0c0.3-0.6,1-2.1,1.2-4.3c0.2-1.9,0-3.8-0.5-5.8c-0.5-2-1.4-4.1-2.6-6.2c0,0,0,0-0.1,0c0,0-0.1,0-0.1,0
			c-0.7,1.8-1.3,4.7-0.8,8.3c0.1,0.4-0.1,0.8-0.5,1.1c-0.4,0.2-0.8,0.2-1.2-0.1C144,95.2,141.6,93.4,138.9,92.7
			C138.9,92.6,138.9,92.6,138.9,92.7"/>
		<path class="st2" d="M132,83.6C132,83.6,132,83.6,132,83.6c0.7,1.1,1.5,2.2,2.4,3.1c2.6,2.8,5.5,4.5,8.5,5c0,0,0,0,0,0
			c0,0,0.1,0,0.1-0.1c0.2-0.8,0.6-2.3,0.5-4.5c-0.1-1.9-0.6-3.8-1.5-5.7c-0.8-1.9-2-3.7-3.5-5.6c0,0,0,0-0.1,0c0,0,0,0-0.1,0.1
			c-0.3,2-0.5,5,0.5,8.2c0.1,0.4,0,0.9-0.4,1.1c-0.4,0.3-0.8,0.3-1.2,0C137.3,85.3,135,83.7,132,83.6C132.1,83.5,132,83.5,132,83.6"
			/>
		<path class="st2" d="M130.7,76.2c-0.3,0.3-0.8,0.4-1.2,0.3c0,0-2.5-0.9-5.1-0.9c-0.1,0-0.3,0-0.4,0c0,0-0.1,0-0.1,0
			c0,0,0,0.1,0,0.1c1,1,2,1.9,3,2.7c2.1,1.6,5.3,3.5,8.8,3.5c0.1,0,0.1,0,0.2,0c0,0,0.1,0,0.1-0.1c0.1-0.6,0.2-2.4-0.3-4.6
			c-0.4-1.8-1.2-3.7-2.4-5.4c-1.1-1.7-2.6-3.4-4.3-4.9c0,0-0.1,0-0.1,0c0,0,0,0,0,0.1c-0.1,1.9,0.2,4.8,1.9,8.1
			C131.1,75.4,131,75.8,130.7,76.2"/>
		<path class="st2" d="M38.5,226.1c0.2,0,0.4,0,0.5,0c0,0,0.1,0,0.1-0.1c0.3-5-3-9.8-5-12.2c0,0,0,0-0.1,0c0,0,0,0-0.1,0.1
			c-0.3,2.8,0.3,5.3,0.3,5.3c0.1,0.4-0.1,0.8-0.4,1.1c-0.3,0.3-0.8,0.3-1.2,0c-3.2-2-6.1-2.6-8-2.7c0,0-0.1,0-0.1,0c0,0,0,0.1,0,0.1
			c1.4,1.9,3,3.6,4.6,4.9c1.7,1.3,3.4,2.3,5.2,2.8C36.2,226,37.6,226.1,38.5,226.1"/>
		<path class="st2" d="M31.6,216.7L31.6,216.7C31.7,216.7,31.7,216.7,31.6,216.7c0.7-3.7-0.5-7.3-1.7-9.6c-0.5-1.1-1.1-2.1-1.8-3.1
			c0,0,0,0-0.1,0c0,0,0,0-0.1,0.1c-0.6,2.7-0.3,5.3-0.3,5.4c0,0.4-0.2,0.8-0.5,1c-0.4,0.2-0.8,0.2-1.2-0.1c-2.9-2.3-5.8-3.2-7.7-3.5
			c0,0-0.1,0-0.1,0c0,0,0,0.1,0,0.1c1.2,2.1,2.6,3.9,4.1,5.3c1.5,1.5,3.2,2.6,4.9,3.4C29.2,216.5,30.8,216.7,31.6,216.7"/>
		<path class="st2" d="M25.2,206.8C25.2,206.8,25.2,206.8,25.2,206.8C25.2,206.8,25.3,206.7,25.2,206.8c1-3.1,0.8-6.4-0.5-9.9
			c-0.4-1.1-0.9-2.2-1.5-3.2c0,0,0,0-0.1,0c0,0-0.1,0-0.1,0.1c-0.9,2.6-0.9,5.4-0.9,5.4c0,0.4-0.3,0.8-0.7,0.9
			c-0.4,0.2-0.8,0.1-1.1-0.2c-2.3-2.3-4.6-3.4-6.2-4c-0.3-0.1-0.7-0.2-1-0.3c0,0-0.1,0-0.1,0c0,0,0,0,0,0.1c1,2.2,2.1,4.1,3.4,5.7
			c1.3,1.6,2.8,2.9,4.5,3.9C22.9,206.3,24.6,206.6,25.2,206.8"/>
		<path class="st2" d="M20,195.9C20,196,20,196,20,195.9C20,196,20.1,195.9,20,195.9c2.5-5.4,0.8-10.7-0.4-13.4c0,0,0,0-0.1,0
			c0,0-0.1,0-0.1,0c-1.2,2.5-1.6,5.3-1.6,5.4c-0.1,0.4-0.4,0.8-0.8,0.9c-0.4,0.1-0.8,0-1.1-0.4c-2-2.5-4.2-3.9-5.7-4.7
			c-0.3-0.2-0.7-0.3-1-0.5c0,0-0.1,0-0.1,0c0,0,0,0,0,0.1C12.1,192.8,17.7,195.3,20,195.9"/>
		<path class="st2" d="M12.2,182.3c1.7,1.5,3.3,2.2,3.9,2.4c0,0,0,0,0,0c0,0,0,0,0.1,0c1.9-3.2,2.5-6.7,1.7-10.2
			c-0.2-1.1-0.6-2.3-1.1-3.3c0,0,0,0-0.1,0c0,0-0.1,0-0.1,0c-1.4,2.4-2.1,5.3-2.1,5.4l0.1,0l-0.1,0c-0.1,0.4-0.4,0.7-0.8,0.8
			c-0.4,0.1-0.8-0.1-1.1-0.4c-2.1-3.1-4.6-4.8-6.3-5.6c0,0-0.1,0-0.1,0c0,0,0,0,0,0.1c0.5,2.3,1.3,4.5,2.3,6.3
			C9.6,179.5,10.8,181,12.2,182.3"/>
		<path class="st2" d="M12.9,173.2C12.9,173.2,12.9,173.2,12.9,173.2C12.9,173.2,13,173.2,12.9,173.2c4-5.3,3.6-10.5,3-13.1
			c0,0,0-0.1-0.1-0.1c0,0-0.1,0-0.1,0c-1.8,2.2-3,4.9-3,4.9c-0.2,0.4-0.5,0.6-0.9,0.6h0c-0.4,0-0.8-0.2-0.9-0.6
			c-1.3-2.9-3.1-4.8-4.3-5.9c-0.3-0.2-0.6-0.5-0.9-0.7c0,0-0.1,0-0.1,0c0,0,0,0,0,0.1C6,168.2,10.8,172,12.9,173.2"/>
		<path class="st2" d="M11.9,161.3C11.9,161.3,11.9,161.4,11.9,161.3C11.9,161.4,11.9,161.3,11.9,161.3c2-1.8,3.2-4.2,3.7-7.1
			c0.4-2.4,0.2-4.6,0-6.1c0,0,0-0.1,0-0.1c0,0-0.1,0-0.1,0c-2.2,2-2.7,4.6-2.7,4.6c-0.1,0.5-0.5,0.8-0.9,0.9c-0.5,0-0.9-0.3-1.1-0.7
			c-1-3-2.5-5.1-3.7-6.3c-0.3-0.3-0.5-0.5-0.8-0.8c0,0-0.1,0-0.1,0c0,0,0,0,0,0.1C5.5,155.7,9.9,160,11.9,161.3"/>
		<path class="st2" d="M9,145.3c1.1,1.9,2.3,3.1,2.8,3.5c0,0,0,0,0,0c0,0,0,0,0,0c2.3-2.1,3.7-5,4.3-8.8c0.2-1.2,0.3-2.4,0.3-3.7
			c0,0,0-0.1,0-0.1c0,0-0.1,0-0.1,0c-2.1,1.9-3.2,4.2-3.2,4.3c-0.2,0.4-0.6,0.6-1,0.6c-0.4,0-0.8-0.4-0.9-0.8c-0.9-3.6-2.7-6-4-7.4
			c0,0-0.1,0-0.1,0c0,0,0,0,0,0.1c-0.3,2.4-0.3,4.6,0,6.7C7.5,141.7,8.1,143.6,9,145.3"/>
		<path class="st2" d="M10.3,133.1c0.9,1.9,2.1,3.1,2.6,3.6c0,0,0,0,0.1,0c0,0,0,0,0,0c2.6-2.3,4.3-5.3,5.1-8.8
			c0.2-1.1,0.4-2.2,0.4-3.2c0,0,0-0.1,0-0.1c0,0-0.1,0-0.1,0c-2.2,1.7-3.8,4-3.8,4.1c-0.2,0.3-0.7,0.5-1.1,0.4
			c-0.4-0.1-0.7-0.4-0.8-0.8c-0.7-3.6-2.4-6.1-3.6-7.5c0,0,0,0-0.1,0c0,0,0,0-0.1,0.1c-0.4,2.4-0.5,4.6-0.3,6.7
			C8.9,129.5,9.5,131.4,10.3,133.1"/>
		<path class="st2" d="M14.5,124.9C14.6,124.9,14.6,124.9,14.5,124.9C14.6,124.9,14.6,124.9,14.5,124.9c3.2-1.9,5.4-4.7,6.5-8.2
			c0.4-1.1,0.6-2.2,0.7-3.3c0,0,0-0.1,0-0.1c0,0-0.1,0-0.1,0c-2.6,1.5-4.4,3.7-4.4,3.7c-0.3,0.3-0.7,0.5-1.1,0.3
			c-0.4-0.1-0.7-0.5-0.7-0.9c-0.3-3.7-1.6-6.4-2.7-7.9c0,0,0,0-0.1,0c0,0,0,0-0.1,0.1c-0.7,2.3-1.1,4.5-1.1,6.6c0,2.1,0.2,4,0.9,5.8
			C13.1,123,14.1,124.4,14.5,124.9"/>
		<path class="st2" d="M17.6,113.3C17.6,113.3,17.6,113.4,17.6,113.3C17.7,113.4,17.7,113.3,17.6,113.3c3.4-1.6,5.9-4.1,7.5-7.3
			c0.5-1,0.9-2,1.1-3.1c0,0,0-0.1,0-0.1c0,0-0.1,0-0.1,0c-2.6,1.1-4.8,3-4.9,3.1c-0.3,0.3-0.8,0.3-1.1,0.2c-0.4-0.2-0.6-0.6-0.6-1
			c0.2-3.7-0.8-6.5-1.7-8.2c0,0,0,0-0.1,0h0c0,0-0.1,0-0.1,0c-1,2.2-1.7,4.4-2,6.4c-0.3,2.1-0.3,4,0.1,5.9
			C16.3,111.2,17.1,112.7,17.6,113.3"/>
		<path class="st2" d="M21.9,102.3C21.9,102.3,22,102.3,21.9,102.3C22,102.3,22,102.3,21.9,102.3c3.1-0.8,5.8-2.8,8-5.9
			c1-1.3,1.6-2.6,2-3.4c0,0,0-0.1,0-0.1c0,0,0,0-0.1,0c-2.9,0.4-5.1,2.5-5.1,2.5c-0.3,0.3-0.8,0.4-1.2,0.2c-0.4-0.2-0.6-0.7-0.5-1.1
			c0.7-3.6,0.2-6.6-0.4-8.4c0,0,0,0-0.1-0.1c0,0-0.1,0-0.1,0c-1.3,2-2.3,4.1-2.9,6c-0.6,2-0.9,4-0.8,5.8
			C21,100.1,21.7,101.7,21.9,102.3"/>
		<path class="st2" d="M28,91.7C28,91.7,28,91.7,28,91.7c5.1-0.8,9-5.4,10.8-8c0,0,0-0.1,0-0.1c0,0,0,0-0.1,0
			c-2.9,0.2-5.2,1.8-5.2,1.8c-0.4,0.3-0.9,0.2-1.2,0C32,85,31.9,84.6,32,84.2c1.2-3.5,1-6.5,0.6-8.3c0,0,0,0-0.1-0.1
			c0,0-0.1,0-0.1,0C26.2,83.4,27.2,89.4,28,91.7C28,91.7,28,91.7,28,91.7"/>
		<path class="st2" d="M35.1,81.8c0.1,0,0.2,0,0.4,0c3,0,6.1-1.9,8.2-3.5c1-0.8,2.1-1.7,3.1-2.7c0,0,0-0.1,0-0.1c0,0,0,0-0.1,0
			c-2.7,0.1-5.2,0.9-5.2,0.9c-0.4,0.1-0.8,0-1.1-0.3c-0.3-0.3-0.3-0.8-0.1-1.2c1.7-3.3,2-6.2,1.9-8.1c0,0,0-0.1,0-0.1
			c0,0-0.1,0-0.1,0c-1.8,1.6-3.3,3.3-4.5,5c-1.1,1.8-1.9,3.6-2.3,5.4C34.8,79.4,34.9,81.1,35.1,81.8C35.1,81.8,35.1,81.8,35.1,81.8"
			/>
		<path class="st5" d="M65.7,126.4c0.6,0.7,1.5,1,2.9,1h13.5c-8.1-5-11.1-4.1-16.7-1.6C65.5,126,65.6,126.2,65.7,126.4"/>
		<path class="st5" d="M98.7,120.2c-1.3-0.3-2.5-0.7-3.5-1.1c-4.2-1.7-7.7-4.4-7.9-4.6c-0.9-0.7-1-1.9-0.3-2.8
			c0.7-0.9,1.9-1,2.8-0.3c0,0,3.2,2.5,6.9,4c0.8,0.3,1.9,0.6,3.1,0.9c1.7,0.4,3.7,1,5.5,1.9c-0.4-2.2-0.7-4.1-1.1-6
			c-5.4-1.2-9.9-4.9-10.1-5c-0.4-0.3-0.7-0.8-0.7-1.3c0-0.5,0.1-1,0.4-1.5c0.7-0.8,1.9-1,2.8-0.3c0,0,2.9,2.4,6.5,3.7
			c-1.4-5.4-3.4-10.4-5.9-15.4c-1.8-3.6-4.5-5.9-8-7.1c-2.5-0.8-4.6-0.7-4.6-0.7c-0.1,0-0.1,0-0.2,0c-0.1,0-6.6,0.1-10.6,4.9
			c0,0-0.1,0.1-0.1,0.1c-0.8,0.8-2.8,3.2-3.1,5c-0.2,1,0.1,1.8,0.7,2.1c0.3,0.2,1.3,0.6,3.2-0.7c0.5-0.4,0.8-0.6,0.8-0.6
			c0.9-0.6,2.1-0.4,2.7,0.4c0.6,0.8,0.5,2-0.3,2.7c-0.3,0.2-0.5,0.4-0.8,0.6c-0.8,0.7-2.5,2.2-4.3,4.7c-2.4,3.3-5.7,9-7.4,17.3
			c0,0.2-0.1,0.3-0.1,0.5c5.6-2.4,10.2-3.4,20.2,3c3.9,2.5,8.4,2.7,9.3,2.7H99c0,0,0.1,0,0.1,0c1.1,0.1,4.4-0.1,5.9-1.7
			c0.3-0.3,0.5-0.6,0.6-1C105.5,122.4,103.4,121.4,98.7,120.2"/>
		<path class="st6" d="M79.2,197.5c0.5-0.4,1.1-1.1,1.1-1.6c0-0.2-0.2-0.5-0.5-0.8c-0.4-0.4-0.9-0.6-1.4-0.6c-1,0-2.2,0.7-4,1.9
			c-1.1,0.8-3,2.3-2.9,3.8c0.1,0.6,0.3,0.8,0.5,1c0.9,0.6,2.8,0.4,3.4,0.3C76.3,200.1,77.5,198.7,79.2,197.5"/>
		<path class="st6" d="M86.1,200c0-0.1,0-0.4-0.5-1c0,0-0.9-0.7-2.8,0.5c-1.5,0.9-3.1,1.9-3.9,3.5c0.4,0.4,0.8,0.5,1,0.6
			c1.6,0.3,3.9-1.1,4.6-1.6c0,0,0.1-0.1,0.1-0.1C85,201.5,86,200.7,86.1,200"/>
		<path class="st6" d="M65.2,190.4c-0.1,0-0.3,0-0.4,0c-1.5,0-3.5,1-4.5,2.2c-0.7,0.9-0.4,1.4-0.4,1.5c0.1,0.3,0.7,0.6,1.9,0.8
			c0.2,0,0.5,0.1,0.7,0.1c0.5-1.6,1.5-2.8,2.6-3.8c0.3-0.3,0.6-0.5,0.8-0.7c-0.2-0.1-0.5-0.1-0.6-0.1
			C65.3,190.4,65.2,190.4,65.2,190.4"/>
		<path class="st6" d="M65.8,196.6c0,0.3,0.1,1.2,1.8,1.7c0.3,0.1,0.5,0.2,0.8,0.2c0.5-1.7,1.9-3.4,4.1-4.9c0.3-0.2,0.6-0.4,1-0.7
			c0-0.1,0-0.2,0-0.3c-0.1-0.3-0.4-0.6-1-0.9c-0.4-0.2-0.7-0.3-1.1-0.3c-1.1,0-2.4,0.7-3.9,2.2C66.2,195,65.7,195.8,65.8,196.6"/>
		<path class="st6" d="M108.3,193.4c1,0,1.8-0.3,2.3-0.8c0.5-0.5,0.7-1.1,0.8-1.6c-1-1.3-4.4-5.2-8.9-8.2c-1.9-1.2-4-2.5-6.1-3.3
			c-2.3-0.9-4.3-1.1-6.1-0.6c0,0-0.1,0-0.1,0c-0.5,0.1-1.3,0.6-2.2,1.2c-0.6,0.4-1.2,0.8-1.9,1.2c-2,1.2-4.8,2-7.1,2.1
			c-2,0.1-4.5,0.3-6.1-1.9c-1-1.4-1.2-2.7-0.7-4.2c0.5-1.4,2.1-2.2,4.1-3.2c0.9-0.4,1.7-0.9,2.4-1.3c1-0.6,1.5-1.1,2.3-1.7
			c0.7-0.6,1.6-1.3,2.9-2.3c0.6-0.4,1.2-0.7,1.8-1c-0.7-0.1-1.4-0.2-2.1-0.2c-3.3-0.3-5.6,0.9-9,3.3c-3,2-8.7,3.8-17.7,5.6
			c-8.5,1.7-20.3,3.4-34.8,5.1c0.4,1.6,0.9,3.2,1.4,4.8c1.9,5.8,4.2,11.3,6.9,16.4c5.2-2.3,17.9-8,27.8-13.3c2-1.9,5-3,7.2-2.6
			c0.5,0,2.4,0.3,3.8,1.5c1.6-0.5,3.2-0.4,4.6,0.3c1.6,0.8,2.3,1.9,2.6,2.7v0c2-0.6,3.9-0.2,5.5,1.1c1,0.8,1.5,1.8,1.7,2.9
			c2-0.3,3.4,0.4,4.2,1.1c1.5,1.4,1.6,2.9,1.5,3.8c-0.1,0.7-0.3,1.4-0.8,2.1c1,0.1,1.9,0,2.8-0.3c0.3-0.1,0.6-0.3,0.9-0.5
			c-0.4-0.9-1.2-2.1-2.4-3.5c-0.3-0.3-0.5-0.8-0.4-1.3c0-0.5,0.2-0.9,0.6-1.2c0.7-0.6,1.8-0.6,2.5,0.1c1.8,2,2.7,3.8,3.2,4.8
			c0.9,0.1,1.7-0.1,2.3-0.7c0.4-0.4,0.6-0.8,0.8-1.1c-0.2-0.4-0.6-1.2-1.8-2.6c-1-1.1-3.2-2.8-4-3.3c-0.4-0.3-0.6-0.7-0.7-1.1
			c-0.1-0.5,0-0.9,0.3-1.3c0.3-0.4,0.7-0.6,1.1-0.7c0.5-0.1,0.9,0,1.3,0.3c0.1,0.1,3.1,2.2,4.6,3.9c1.1,1.3,1.9,2.4,2.3,3.3
			c1.2,0,2.2-0.4,2.8-1.1c0.2-0.2,0.4-0.5,0.5-0.8c-1.3-1.8-4.7-5.8-8.7-7.8c-0.4-0.2-0.7-0.6-0.9-1c-0.1-0.4-0.1-0.9,0.1-1.3
			c0.2-0.4,0.6-0.7,1-0.9c0.4-0.2,0.9-0.1,1.3,0.1C103,186.9,106.8,191.5,108.3,193.4"/>
		<path class="st6" d="M86.1,177.2c1.2-0.8,2.1-1.4,3.3-1.7c5.8-1.6,11.7,2.3,14.9,4.4c4.4,2.8,7.6,6.4,9.2,8.3c0,0,0.1,0.1,0.3,0.3
			l0.1,0.1c0,0,0,0,0,0c0.5,0.6,1.5,1.6,3,2.7c7.3,5.4,18.5,10.3,23.1,12.2c2.8-5.3,5.3-11,7.2-17c0.5-1.4,0.9-2.9,1.3-4.4
			c-9.2-0.6-19.1-2.6-25.7-4.2c-7.7-1.8-13.3-3.6-13.5-3.7c-1.6-0.5-2.9-1-4.2-1.5c-4.2-1.5-7-2.5-10-2.4c-0.4,0-0.7,0-1.1,0
			c-0.5,0-0.9,0-1.3,0h-0.1c-2.9,0.1-4.8,0.1-6.5,1.3c-1.3,0.9-2.1,1.5-2.8,2.1c-0.8,0.6-1.5,1.2-2.6,1.9c-0.8,0.5-1.8,1-2.8,1.5
			c-0.7,0.4-2.1,1-2.5,1.4c-0.1,0.2-0.1,0.4,0.3,0.9c0.4,0.6,1.4,0.6,3.1,0.5c1.4-0.1,3.7-0.6,5.5-1.7C85,178,85.6,177.6,86.1,177.2
			"/>
	</g>
</g>
</svg>
