<?xml version="1.0" encoding="utf-8"?>
<!-- Generator: Adobe Illustrator 24.2.1, SVG Export Plug-In . SVG Version: 6.00 Build 0)  -->
<svg version="1.1" id="Layer_1" xmlns="http://www.w3.org/2000/svg" xmlns:xlink="http://www.w3.org/1999/xlink" x="0px" y="0px"
	 viewBox="0 0 356 70" style="enable-background:new 0 0 356 70;" xml:space="preserve">
<style type="text/css">
	.st0{fill:#FFFFFF;}
	.st1{fill:#FFC60B;}
	.st2{fill:#231F20;}
	.st3{fill:#59AA47;}
	.st4{fill:#05B4E9;}
	.st5{fill:#EF4123;}
	.st6{fill:#FCBC80;}
</style>
<g>
	<path class="st0" d="M78.6,49.6l-2.7-8.4H64.5l-2.7,8.4h-5.1l9.8-29.1H74l9.8,29.1H78.6z M65.9,37h8.6l-4.3-13.2L65.9,37z"/>
	<path class="st0" d="M85.9,28.2h4.2l0.4,2.8h0.3c0.6-1,1.5-1.8,2.5-2.3c1-0.5,2.2-0.8,3.4-0.8c0.6,0,1.1,0,1.7,0.1v4.7
		c-0.5-0.1-1.2-0.1-2-0.1c-1,0-2,0.2-3,0.6c-1,0.4-1.8,1-2.3,1.8v14.6h-5.1V28.2z"/>
	<path class="st0" d="M104.2,58.4c-1.2-0.1-2.3-0.4-3.4-0.7v-4.1c2.3,0.7,4.5,1,6.5,1c1.5,0,2.7-0.2,3.6-0.6s1.6-1,2-1.8
		c0.4-0.8,0.7-1.9,0.7-3.3v-1.7h-0.3c-0.7,0.8-1.5,1.4-2.4,1.8c-1,0.4-2,0.6-3.2,0.6c-1.5,0-2.9-0.4-4.2-1.1c-1.2-0.7-2.2-1.9-3-3.5
		c-0.7-1.6-1.1-3.5-1.1-5.9c0-3.8,1-6.6,2.9-8.6c2-1.9,4.9-2.9,8.8-2.9c1.3,0,2.6,0.1,4,0.3c1.4,0.2,2.6,0.5,3.7,0.8v19.1
		c0,2.5-0.4,4.5-1.2,6s-2,2.7-3.6,3.4c-1.6,0.7-3.7,1.1-6.2,1.1C106.6,58.6,105.4,58.6,104.2,58.4z M111.8,45.1
		c0.7-0.3,1.3-0.7,1.8-1.3V32.1c-1-0.2-2-0.3-2.9-0.3c-2,0-3.6,0.6-4.6,1.7c-1,1.1-1.5,2.9-1.5,5.4c0,2.4,0.4,4.2,1.3,5.2
		c0.9,1,2.1,1.5,3.7,1.5C110.3,45.6,111.1,45.4,111.8,45.1z"/>
	<path class="st0" d="M140.5,40.4h-13.3c0.1,1.4,0.3,2.5,0.8,3.3c0.5,0.8,1.2,1.4,2.1,1.8c1,0.4,2.2,0.5,3.8,0.5
		c1.6,0,3.4-0.2,5.4-0.7v3.9c-2.1,0.5-4.1,0.8-6.1,0.8c-2.6,0-4.7-0.4-6.3-1.2c-1.6-0.8-2.9-2-3.7-3.6c-0.8-1.6-1.2-3.7-1.2-6.4
		c0-2.4,0.4-4.4,1.1-6.1c0.7-1.6,1.8-2.9,3.2-3.7c1.4-0.8,3.1-1.2,5.1-1.2c2.9,0,5.1,0.9,6.7,2.8c1.5,1.9,2.3,4.7,2.3,8.4
		L140.5,40.4L140.5,40.4z M128.4,32.6c-0.7,0.9-1.1,2.5-1.1,4.7h8.5c0-2.2-0.4-3.8-1.1-4.7c-0.7-0.9-1.7-1.4-3.1-1.4
		C130.1,31.2,129.1,31.7,128.4,32.6z"/>
	<path class="st0" d="M143.5,28.2h4.3l0.4,2.3h0.3c0.8-0.8,1.8-1.5,2.9-1.9c1.1-0.4,2.3-0.7,3.5-0.7c2.2,0,4,0.7,5.2,2
		c1.3,1.3,1.9,3.4,1.9,6.2v13.6h-5.1V36.3c0-1.4-0.3-2.4-0.9-3.1c-0.6-0.6-1.5-0.9-2.6-0.9c-0.9,0-1.7,0.2-2.6,0.5s-1.5,0.9-2.1,1.6
		v15.1h-5.1L143.5,28.2L143.5,28.2z"/>
	<path class="st0" d="M178.9,45.4v4.1c-1.2,0.3-2.5,0.4-3.7,0.4c-5.1,0-7.6-2.6-7.6-7.7v-10h-3.7v-4.1h3.7l0.9-7.6h4.2v7.6h6v4.1h-6
		v9.2c0,1,0.1,1.9,0.4,2.5c0.3,0.6,0.7,1.1,1.2,1.3c0.6,0.3,1.3,0.4,2.2,0.4C177.2,45.7,178,45.6,178.9,45.4z"/>
	<path class="st0" d="M181.4,23.8c-0.5-0.5-0.8-1.2-0.8-2.1s0.3-1.6,0.8-2.1c0.5-0.5,1.4-0.7,2.4-0.7s1.9,0.2,2.4,0.7
		c0.5,0.5,0.8,1.2,0.8,2.1c0,0.9-0.3,1.6-0.8,2.1c-0.5,0.5-1.4,0.7-2.4,0.7S182,24.3,181.4,23.8z M181.3,49.6V28.2h5.2v21.4
		C186.4,49.6,181.3,49.6,181.3,49.6z"/>
	<path class="st0" d="M190.8,28.2h4.3l0.4,2.3h0.3c0.8-0.8,1.8-1.5,2.9-1.9c1.1-0.4,2.3-0.7,3.5-0.7c2.2,0,4,0.7,5.2,2
		c1.3,1.3,1.9,3.4,1.9,6.2v13.6h-5.1V36.3c0-1.4-0.3-2.4-0.9-3.1c-0.6-0.6-1.5-0.9-2.6-0.9c-0.9,0-1.7,0.2-2.6,0.5s-1.5,0.9-2.1,1.6
		v15.1h-5.1L190.8,28.2L190.8,28.2z"/>
	<path class="st0" d="M225.8,28.6c1.4,0.5,2.4,1.4,3,2.7c0.7,1.2,1,2.9,1,5.1v13.2h-4.3l-0.4-2.2h-0.3c-0.6,0.9-1.5,1.5-2.5,1.9
		c-1,0.4-2.1,0.7-3.4,0.7c-1.4,0-2.6-0.2-3.6-0.7c-1-0.5-1.8-1.2-2.3-2.1s-0.8-2-0.8-3.2c0-2,0.7-3.5,2-4.6c1.4-1.1,3.5-1.7,6.5-2
		l4-0.4v-0.8c0-1.1-0.2-1.9-0.5-2.6c-0.3-0.6-0.9-1.1-1.6-1.3c-0.7-0.3-1.7-0.4-3-0.4c-0.9,0-1.8,0.1-2.8,0.2c-1,0.2-2,0.4-2.9,0.7
		v-3.9c1-0.3,2.1-0.5,3.2-0.7c1.2-0.2,2.3-0.2,3.4-0.2C222.7,27.8,224.4,28.1,225.8,28.6z M222.9,45.9c0.7-0.3,1.4-0.7,1.9-1.4V40
		l-3.5,0.3c-1.3,0.1-2.3,0.5-3,1c-0.6,0.5-0.9,1.2-0.9,2.2c0,0.9,0.3,1.7,0.8,2.2c0.6,0.5,1.4,0.7,2.4,0.7
		C221.4,46.3,222.1,46.2,222.9,45.9z"/>
	<path class="st0" d="M234,49c-0.6-0.6-0.9-1.4-0.9-2.3c0-1,0.3-1.8,0.9-2.3c0.6-0.6,1.4-0.9,2.5-0.9c1,0,1.9,0.3,2.5,0.9
		c0.6,0.6,0.9,1.4,0.9,2.3c0,1-0.3,1.7-0.9,2.3s-1.4,0.9-2.5,0.9C235.5,49.9,234.7,49.6,234,49z"/>
	<path class="st0" d="M247.2,58.4c-1.2-0.1-2.3-0.4-3.4-0.7v-4.1c2.3,0.7,4.5,1,6.5,1c1.5,0,2.7-0.2,3.6-0.6s1.6-1,2-1.8
		c0.4-0.8,0.7-1.9,0.7-3.3v-1.7h-0.3c-0.7,0.8-1.5,1.4-2.4,1.8c-1,0.4-2,0.6-3.2,0.6c-1.5,0-2.9-0.4-4.2-1.1c-1.2-0.7-2.2-1.9-3-3.5
		c-0.7-1.6-1.1-3.5-1.1-5.9c0-3.8,1-6.6,2.9-8.6c2-1.9,4.9-2.9,8.8-2.9c1.3,0,2.6,0.1,4,0.3c1.4,0.2,2.6,0.5,3.7,0.8v19.1
		c0,2.5-0.4,4.5-1.2,6c-0.8,1.6-2,2.7-3.6,3.4c-1.6,0.7-3.7,1.1-6.2,1.1C249.6,58.6,248.4,58.6,247.2,58.4z M254.8,45.1
		c0.7-0.3,1.3-0.7,1.8-1.3V32.1c-1-0.2-2-0.3-2.9-0.3c-2,0-3.6,0.6-4.6,1.7c-1,1.1-1.5,2.9-1.5,5.4c0,2.4,0.4,4.2,1.3,5.2
		c0.9,1,2.1,1.5,3.7,1.5C253.3,45.6,254.1,45.4,254.8,45.1z"/>
	<path class="st0" d="M267.7,47.2c-1.8-1.8-2.6-4.6-2.6-8.3c0-3.7,0.9-6.5,2.6-8.3c1.7-1.8,4.2-2.8,7.4-2.8c3.2,0,5.6,0.9,7.4,2.8
		c1.7,1.8,2.6,4.6,2.6,8.3c0,2.5-0.4,4.5-1.2,6.2c-0.8,1.6-2,2.9-3.4,3.7c-1.5,0.8-3.3,1.2-5.3,1.2C271.9,50,269.5,49.1,267.7,47.2z
		 M278.6,44.4c0.8-1.1,1.2-2.9,1.2-5.5c0-2.6-0.4-4.5-1.2-5.5c-0.8-1.1-2-1.6-3.6-1.6c-1.6,0-2.8,0.5-3.6,1.6
		c-0.8,1.1-1.2,2.9-1.2,5.5c0,1.8,0.2,3.2,0.6,4.2c0.4,1,0.9,1.8,1.6,2.2c0.7,0.5,1.6,0.7,2.6,0.7C276.6,46,277.8,45.5,278.6,44.4z"
		/>
	<path class="st0" d="M292,49.7c-1.3-0.2-2.6-0.5-3.7-0.8v-31h5.1v12.4h0.3c0.7-0.8,1.5-1.4,2.4-1.8c1-0.4,2.1-0.6,3.3-0.6
		c1.6,0,3,0.4,4.2,1.1c1.2,0.7,2.2,1.9,3,3.5c0.7,1.6,1.1,3.6,1.1,6c0,3.8-1,6.7-2.9,8.6c-1.9,1.9-4.9,2.9-8.8,2.9
		C294.7,50,293.4,49.9,292,49.7z M301,44.3c1-1.1,1.5-2.9,1.5-5.5c0-2.5-0.4-4.2-1.3-5.3c-0.9-1-2.1-1.5-3.7-1.5
		c-0.8,0-1.5,0.1-2.3,0.4c-0.7,0.3-1.3,0.7-1.8,1.3v11.8c0.9,0.2,1.9,0.4,3,0.4C298.5,46,300,45.5,301,44.3z"/>
	<path class="st0" d="M311.1,49c-0.6-0.6-0.9-1.4-0.9-2.3c0-1,0.3-1.8,0.9-2.3c0.6-0.6,1.4-0.9,2.5-0.9c1,0,1.9,0.3,2.5,0.9
		c0.6,0.6,0.9,1.4,0.9,2.3c0,1-0.3,1.7-0.9,2.3s-1.5,0.9-2.5,0.9C312.5,49.9,311.7,49.6,311.1,49z"/>
	<path class="st0" d="M332.9,28.6c1.3,0.5,2.4,1.4,3,2.7c0.7,1.2,1,2.9,1,5.1v13.2h-4.3l-0.4-2.2H332c-0.6,0.9-1.5,1.5-2.5,1.9
		c-1,0.4-2.1,0.7-3.4,0.7c-1.4,0-2.6-0.2-3.6-0.7c-1-0.5-1.8-1.2-2.3-2.1c-0.5-0.9-0.8-2-0.8-3.2c0-2,0.7-3.5,2-4.6s3.5-1.7,6.5-2
		l4-0.4v-0.8c0-1.1-0.2-1.9-0.5-2.6c-0.3-0.6-0.9-1.1-1.6-1.3c-0.7-0.3-1.7-0.4-3-0.4c-0.9,0-1.8,0.1-2.8,0.2c-1,0.2-2,0.4-2.9,0.7
		v-3.9c1-0.3,2.1-0.5,3.2-0.7c1.2-0.2,2.3-0.2,3.4-0.2C329.8,27.8,331.6,28.1,332.9,28.6z M330,45.9c0.7-0.3,1.4-0.7,1.9-1.4V40
		l-3.5,0.3c-1.3,0.1-2.3,0.5-3,1c-0.6,0.5-0.9,1.2-0.9,2.2c0,0.9,0.3,1.7,0.8,2.2c0.6,0.5,1.4,0.7,2.4,0.7
		C328.5,46.3,329.3,46.2,330,45.9z"/>
	<path class="st0" d="M341.1,28.2h4.2l0.4,2.8h0.3c0.6-1,1.5-1.8,2.5-2.3c1-0.5,2.2-0.8,3.4-0.8c0.6,0,1.1,0,1.7,0.1v4.7
		c-0.5-0.1-1.2-0.1-2-0.1c-1,0-2,0.2-3,0.6c-1,0.4-1.8,1-2.3,1.8v14.6h-5.1L341.1,28.2L341.1,28.2z"/>
</g>
<g>
	<path class="st1" d="M27,16c0.5,0,1.1,0.1,1.6,0.4l0.1,0c0.3,0,0.9,0.1,1.5,0.2c0.1,0,0.1,0,0.2,0c-0.3-0.1-0.6-0.2-0.8-0.4
		c-0.2-0.1-0.3-0.2-0.5-0.3c-0.6-0.3-1.2-0.4-1.3-0.4c-0.1,0-0.1-0.1-0.1-0.2s0.1-0.2,0.1-0.2l2.9-0.4l-2.9-0.4
		c-0.1,0-0.1-0.1-0.1-0.1c0-0.1,0-0.1,0.1-0.2c0,0,0.5-0.3,1.1-0.4c0.3-0.1,0.8-0.2,1.4-0.4c0,0,0.1,0,0.1-0.1c-0.3,0-0.6,0-0.9,0
		c-0.2,0-0.4,0-0.6,0c-0.7,0-1.3,0.1-1.3,0.1c-0.1,0-0.2,0-0.2-0.1c0-0.1,0-0.2,0.1-0.2l2.5-1.5l-2.8,0.7c-0.1,0-0.1,0-0.2-0.1
		c0-0.1,0-0.1,0-0.2c0,0,0.3-0.5,0.9-0.8c0.2-0.2,0.7-0.5,1.2-0.9c0,0,0.1-0.1,0.1-0.1c-0.3,0.2-0.6,0.2-0.9,0.3
		c-0.2,0.1-0.3,0.1-0.5,0.2c-0.7,0.3-1.2,0.6-1.2,0.6c-0.1,0.1-0.2,0-0.2,0c-0.1-0.1-0.1-0.1,0-0.2L28,8.5l-2.3,1.7
		c-0.1,0-0.1,0-0.2,0c-0.1,0-0.1-0.1-0.1-0.2c0,0,0.1-0.6,0.5-1.1c0.2-0.2,0.5-0.7,0.7-1.3c0,0,0-0.1,0.1-0.1
		C26.5,7.8,26.2,8,26,8.1c-0.1,0.1-0.3,0.2-0.4,0.4c-0.5,0.5-0.8,1-0.9,1c0,0.1-0.1,0.1-0.2,0.1c-0.1,0-0.1-0.1-0.1-0.2l0.7-2.8
		l-1.5,2.5c0,0.1-0.1,0.1-0.2,0.1c-0.1,0-0.1-0.1-0.1-0.1c0,0-0.1-0.6,0-1.2c0-0.3,0.1-0.9,0.2-1.5c0-0.1,0-0.1,0-0.2
		c-0.1,0.3-0.2,0.6-0.4,0.8c-0.1,0.2-0.2,0.3-0.3,0.5c-0.3,0.6-0.4,1.3-0.4,1.3c0,0.1-0.1,0.1-0.2,0.1s-0.2-0.1-0.2-0.1l-0.4-2.9
		l-0.4,2.9c0,0.1-0.1,0.1-0.1,0.1c-0.1,0-0.1,0-0.2-0.1c0,0-0.3-0.5-0.4-1.1c-0.1-0.3-0.2-0.8-0.4-1.4c0,0,0-0.1-0.1-0.1
		c0,0.3,0,0.6,0,0.9c0,0.2,0,0.4,0,0.6c0,0.7,0.1,1.3,0.1,1.3c0,0.1,0,0.2-0.1,0.2c-0.1,0-0.2,0-0.2-0.1l-1.5-2.5l0.7,2.8
		c0,0.1,0,0.1-0.1,0.2c-0.1,0-0.1,0-0.2,0c0,0-0.5-0.3-0.8-0.9c-0.2-0.2-0.5-0.7-0.9-1.2c0,0-0.1-0.1-0.1-0.1
		c0.2,0.3,0.2,0.6,0.3,0.9c0.1,0.2,0.1,0.3,0.2,0.5c0.2,0.6,0.6,1.1,0.6,1.2c0,0.1,0,0.2,0,0.2c-0.1,0.1-0.2,0.1-0.2,0l-2.4-1.7
		l1.8,2.3c0,0.1,0,0.1,0,0.2s-0.1,0.1-0.2,0.1c0,0-0.5-0.1-1.1-0.5c-0.2-0.2-0.7-0.5-1.3-0.7c0,0-0.1,0-0.1-0.1
		c0.3,0.2,0.4,0.4,0.6,0.7c0.1,0.1,0.2,0.3,0.4,0.4c0.5,0.5,1,0.8,1,0.9c0.1,0,0.1,0.1,0.1,0.2c0,0.1-0.1,0.1-0.2,0.1l-2.8-0.7
		l2.5,1.5c0.1,0,0.1,0.1,0.1,0.2c0,0.1-0.1,0.1-0.1,0.1c0,0-0.6,0.1-1.2,0C14.6,13.1,14,13,13.4,13c-0.1,0-0.1,0-0.2,0
		c0.3,0.1,0.6,0.2,0.8,0.4c0.1,0.1,0.3,0.2,0.5,0.3c0.6,0.3,1.3,0.4,1.3,0.4c0.1,0,0.1,0.1,0.1,0.2c0,0.1-0.1,0.2-0.1,0.2l-2.9,0.4
		l2.9,0.4c0.1,0,0.1,0.1,0.1,0.1c0,0.1,0,0.1-0.1,0.2c0,0-0.5,0.3-1.1,0.4c-0.3,0.1-0.8,0.2-1.4,0.4c0,0-0.1,0-0.1,0.1
		c0.3,0,0.6,0,0.9,0c0,0,0.4,0,0.6,0c0.1,0,0.3,0,0.4,0l0,0c0.6-0.4,1.3-0.7,2.1-0.9c0.1,0,0.2,0,0.3,0.1c0.1,0.1,0.1,0.1,0.1,0.2
		c0.1-0.1,0.3-0.2,0.5-0.2c0.6-0.3,1.3-0.4,2.2-0.5c0.1,0,0.2,0,0.3,0.1c0,0.1,0.1,0.1,0.1,0.2c0.2-0.1,0.5-0.2,0.7-0.2
		c0.7-0.1,1.4-0.1,2.2,0c0.1,0,0.2,0.1,0.3,0.2c0,0,0,0.1,0,0.1c0.2,0,0.5-0.1,0.7-0.1c0.7,0,1.4,0.1,2.2,0.4
		C26.9,15.8,27,15.9,27,16C27,16,27,16,27,16"/>
	<path class="st2" d="M22.8,12.3c2.8-0.4,3.1,0.4,3.1,0.4s0.1,0.2,0.3,0.1c0,0,0.2,0,0.1-0.2c0,0-0.3-0.9-1.8-1.1c0,0-0.8-0.1-1.6,0
		c-0.2,0-0.3,0.6-0.3,0.6C22.5,12.4,22.8,12.3,22.8,12.3"/>
	<path class="st2" d="M20.4,12.9c-0.3-0.2-1.1-0.1-1.1-0.1c-1.3,0-1.6,0.8-1.6,0.8c-0.1,0.3,0.1,0.3,0.1,0.3
		c0.3,0.1,0.4-0.1,0.4-0.1s0.1-0.2,0.6-0.4c0,0.1,0,0.2,0,0.2c0,0.4,0.3,0.7,0.7,0.7S20,14,20,13.6c0-0.1,0-0.2-0.1-0.3
		c0.2,0.1,0.4,0.2,0.5,0.4c0,0.1,0.1,0.1,0.4,0.1c0.3,0,0.2-0.2,0.2-0.2C20.8,13.1,20.4,12.9,20.4,12.9"/>
	<path class="st2" d="M22.7,13.9c0.2,0,0.3,0,0.4-0.1c0.1-0.2,0.3-0.4,0.5-0.4c0,0.1-0.1,0.2-0.1,0.3c0,0.4,0.3,0.7,0.7,0.7
		s0.7-0.3,0.7-0.7c0-0.1,0-0.2,0-0.2c0.5,0.1,0.6,0.4,0.6,0.4s0.1,0.2,0.4,0.1c0,0,0.2,0,0.1-0.3c0,0-0.3-0.8-1.6-0.8
		c0,0-0.8,0-1.1,0.1c0,0-0.4,0.2-0.6,0.9C22.5,13.7,22.5,13.9,22.7,13.9"/>
	<path class="st2" d="M17.3,12.8c0.2,0.1,0.3-0.1,0.3-0.1s0.3-0.8,3.1-0.4c0,0,0.3,0.1,0.2-0.2c0,0-0.1-0.6-0.3-0.6
		c-0.8-0.1-1.6,0-1.6,0c-1.5,0.2-1.8,1.1-1.8,1.1C17.1,12.8,17.3,12.8,17.3,12.8"/>
	<path class="st3" d="M14.9,19.4c-0.6,0-1.3,0.1-1.3,0.1c-0.1,0-0.2,0-0.2-0.1s-0.1-0.2,0-0.3c0.5-0.7,0.6-1.4,0.6-1.9c0,0,0,0,0,0
		c0,0,0,0,0,0c-1.9,1.4-2,2.8-2,3.3c0,0,0,0,0,0c0,0,0.1,0,0.1,0C13.3,20.6,14.3,19.8,14.9,19.4C14.9,19.4,14.9,19.4,14.9,19.4
		C14.9,19.4,14.9,19.4,14.9,19.4"/>
	<path class="st3" d="M17.3,18.2c-0.2-0.1-0.4-0.1-0.7-0.1c-0.4,0-0.6,0-0.6,0h0c-0.1,0-0.2-0.1-0.2-0.2c0-0.1,0-0.2,0.1-0.3
		c0.7-0.6,1-1.1,1.1-1.4c0,0,0,0,0,0c0,0,0,0,0,0c-2.2,0.7-2.7,2-2.8,2.5c0,0,0,0,0,0c0.2,0.1,0.5,0.1,0.9,0.1
		c0.4,0,0.9-0.1,1.5-0.3C16.8,18.5,17,18.4,17.3,18.2C17.3,18.3,17.3,18.2,17.3,18.2C17.3,18.2,17.3,18.2,17.3,18.2"/>
	<path class="st3" d="M19.9,17.5c-0.6-0.3-1.2-0.4-1.2-0.4c-0.1,0-0.2-0.1-0.2-0.2c0-0.1,0-0.2,0.1-0.3c0.7-0.4,1.1-0.7,1.3-1
		c0,0,0,0,0,0c0,0,0,0,0,0c-1.1,0.2-2,0.5-2.6,1.1c-0.3,0.3-0.4,0.6-0.5,0.8c0,0,0,0,0,0c0.5,0.2,1,0.3,1.5,0.3c0.3,0,0.6,0,0.8-0.1
		C19.3,17.7,19.6,17.6,19.9,17.5C19.9,17.5,19.9,17.5,19.9,17.5C19.9,17.5,19.9,17.5,19.9,17.5"/>
	<path class="st3" d="M21.6,16.8c-0.1,0-0.2-0.1-0.2-0.2c0-0.1,0.1-0.2,0.2-0.2c0.7-0.2,1.2-0.5,1.4-0.7c0,0,0,0,0,0c0,0,0,0,0,0
		c-1.1-0.1-2,0.1-2.7,0.5c-0.3,0.2-0.6,0.5-0.7,0.6c0,0,0,0,0,0c0.7,0.6,1.7,0.7,2.4,0.7c0.2,0,0.4,0,0.6,0c0,0,0,0,0,0c0,0,0,0,0,0
		C22.2,17,21.6,16.8,21.6,16.8"/>
	<path class="st3" d="M24.5,17c-0.1-0.1-0.1-0.2-0.1-0.3c0-0.1,0.1-0.2,0.2-0.2c0.7-0.1,1.2-0.3,1.5-0.4c0,0,0,0,0,0c0,0,0,0,0,0
		c-1-0.3-2-0.3-2.7,0c-0.4,0.1-0.6,0.3-0.8,0.5c0,0,0,0,0,0c0.9,1.1,2.2,1.3,2.9,1.3l0,0c0,0,0,0,0,0c0,0,0,0,0,0
		C25,17.4,24.5,17,24.5,17"/>
	<path class="st3" d="M31.6,20.5C31.6,20.5,31.6,20.5,31.6,20.5c0-0.3,0-0.7-0.2-1.2c-0.3-0.8-1-1.4-2-1.8c0,0,0,0,0,0s0,0,0,0
		c0.1,0.4,0.4,1,0.8,1.5c0.1,0.1,0.1,0.2,0,0.3c-0.1,0.1-0.2,0.1-0.3,0.1c0,0-0.6-0.1-1.2,0c0,0,0,0,0,0c0,0,0,0,0,0
		c0.6,0.4,1.8,1.1,2.8,1.1C31.5,20.6,31.6,20.6,31.6,20.5"/>
	<path class="st3" d="M29.3,18.8C29.3,18.8,29.3,18.8,29.3,18.8c-0.5-0.6-1.2-0.9-2.1-0.8c-0.3,0-0.6,0.1-0.9,0.2c0,0,0,0,0,0
		c0,0,0,0,0,0c0.7,0.5,1.4,0.8,2.1,0.8c0,0,0.1,0,0.1,0C28.9,18.9,29.2,18.8,29.3,18.8C29.3,18.8,29.3,18.8,29.3,18.8"/>
	<path class="st3" d="M25.3,17C25.3,17,25.3,17,25.3,17c0.4,0.3,0.9,0.5,1.5,0.5c0.2,0,0.5,0,0.8-0.1c0.4-0.1,0.8-0.2,1.1-0.3
		c0,0,0,0,0,0c0,0,0,0,0,0c-0.4-0.2-0.8-0.4-1.2-0.4c-0.4-0.1-0.9-0.1-1.3,0C25.8,16.7,25.5,16.9,25.3,17C25.3,17,25.3,17,25.3,17"
		/>
	<path class="st4" d="M21.2,34.1h-3.4c-0.7,0-1.2-0.3-1.4-0.6c-0.2-0.2-0.3-0.5-0.4-0.8c0,0,0-0.1,0-0.1c0-0.3,0-0.7,0-1
		c0.4-2.2,1.3-3.7,2.1-4.7c-0.1,0-0.2-0.1-0.2-0.1c-0.5-0.3-0.7-0.8-0.6-1.4c0.1-0.7,0.8-1.5,1-1.6c1.2-1.4,2.9-1.5,3.1-1.5
		c0.3,0,2.6-0.1,3.8,2.3c1.5,2.9,1.8,5.3,2.1,7.2l0,0.1c0,0.3,0,0.6,0,0.8c0,0,0,0.1,0,0.1c-0.1,0.3-0.2,0.5-0.3,0.6
		c-0.3,0.3-0.8,0.5-1.3,0.6c-0.2,0-0.5,0-0.6,0c-0.1,0-0.1,0-0.1,0h-1h0h0h-1.6v4.8h15.3c0-2.8-0.4-5.6-1.2-8.2
		c-0.8-2.5-1.9-4.7-3.4-6.7c-1.5-1.9-3.1-3.4-5-4.5c-1.9-1.1-4-1.6-6.1-1.6s-4.2,0.5-6.1,1.6c-1.9,1-3.6,2.5-5,4.5
		C9.2,26,8,28.3,7.2,30.8C6.4,33.4,6,36.1,6,38.9h15.3C21.2,38.9,21.2,34.1,21.2,34.1z"/>
	<path class="st0" d="M6,38.9c0,2.2,0.2,4.3,0.7,6.3c6.8-0.8,10.9-1.6,12.1-2.4c0.9-0.6,1.5-0.9,2.4-0.9v-3H6z"/>
	<path class="st0" d="M22.3,42c0.6,0.1,1.1,0.3,1.6,0.5c0,0,0.1,0,0.2,0c0.9,0,1.6,0.2,2.6,0.6c0.3,0.1,0.6,0.2,0.9,0.3
		c0.1,0,5.1,1.6,9.2,1.8c0.5-2,0.7-4.2,0.7-6.4H22.3V42z"/>
	<path class="st0" d="M28.5,48.7c-0.1,0.1-0.2,0.3-0.3,0.4c-0.3,0.2-0.6,0.4-1,0.4c-0.1,0.1-0.1,0.3-0.3,0.4
		c-0.2,0.3-0.6,0.6-1.3,0.5c-0.1,0.1-0.2,0.2-0.3,0.4c-0.3,0.3-0.8,0.5-1.3,0.4c-0.1,0.1-0.3,0.2-0.5,0.3c-0.3,0.1-0.7,0.2-1.2,0.1
		v4.1c0,0.3-0.2,0.5-0.5,0.5c-0.3,0-0.5-0.2-0.5-0.5v-3.9c-0.2,0.1-0.4,0.1-0.7,0.1c-0.1,0-0.2,0-0.3,0c-0.3-0.1-0.5-0.2-0.7-0.4
		c-0.3,0.1-0.9,0.1-1.4-0.2c-0.2-0.1-0.3-0.3-0.4-0.5c-0.1,0-0.3,0-0.5-0.1c-0.4-0.1-0.8-0.4-0.9-0.8c-0.1,0-0.2,0-0.4,0
		c-0.4-0.1-0.9-0.2-1-0.6c0-0.1-0.1-0.2-0.1-0.3c-2.2,1.1-4.7,2.2-5.8,2.7c0.4,0.7,0.9,1.5,1.4,2.1c1.5,1.9,3.1,3.4,5,4.5
		c0.9,0.5,1.8,0.9,2.7,1.1c0.1-0.2,0.2-0.3,0.4-0.4c0.9-0.6,2.5-0.2,3,0c0.5-0.1,2.1-0.6,3,0c0.2,0.1,0.3,0.3,0.4,0.4
		c0.9-0.3,1.8-0.6,2.7-1.1c1.9-1,3.6-2.5,5-4.5c0.5-0.6,0.9-1.3,1.3-2C33,51.3,30.3,50.1,28.5,48.7"/>
	<path class="st4" d="M23.2,62.6c0-0.1,0-0.2,0-0.3c0-0.1,0-0.2,0-0.3c0.5-0.1,1.3-0.3,1.8-0.9c0.3-0.3,0.4-0.7,0.3-1.2
		c0-0.4-0.2-0.7-0.5-0.9c-0.9-0.6-2.5-0.2-3,0c-0.5-0.1-2.1-0.6-3,0c-0.3,0.2-0.5,0.5-0.5,0.9c0,0.4,0.1,0.8,0.3,1.2
		c0.5,0.6,1.3,0.8,1.8,0.9c0,0.1,0,0.2,0,0.3c0,0.1,0,0.2,0,0.3C20,62.9,18.8,64,17,64.2c0,0.1,0.2,0.3,0.5,0.6
		c1.6-0.3,2.6-1.1,3.1-1.6c0,0.1,0.1,0.1,0.2,0.2c-0.1,0.4-0.6,1.5-2.5,2c0.3,0.1,0.7,0.3,1.1,0.3c1.3-0.6,1.8-1.5,1.9-2
		c0.1,0,0.2,0,0.3,0c0.1,0,0.2,0,0.3,0c0.2,0.5,0.6,1.4,1.9,2c0.4-0.1,0.8-0.2,1.1-0.3c-1.9-0.5-2.3-1.6-2.5-2
		c0.1,0,0.1-0.1,0.2-0.2c0.5,0.5,1.6,1.3,3.1,1.6c0.3-0.3,0.5-0.5,0.5-0.6C24.7,64,23.5,62.9,23.2,62.6"/>
	<path class="st0" d="M24.4,59.5c0.1,0.1,0.2,0.2,0.2,0.4c0,0.2,0,0.5-0.2,0.6c-0.2,0.2-0.5,0.4-0.9,0.5c0.2-0.3,0.2-0.7,0.1-1
		c-0.1-0.3-0.3-0.6-0.5-0.7C23.6,59.3,24.1,59.3,24.4,59.5"/>
	<path class="st0" d="M20.5,60.3c0.3-0.7,1.2-0.7,1.2-0.7c0,0,0.3,0,0.5,0.1c0.4,0.1,0.6,0.3,0.7,0.6c0.1,0.3-0.1,0.6-0.3,0.8
		c-0.3-0.2-0.6-0.4-1-0.4c-0.4,0-0.7,0.1-1,0.4C20.6,60.9,20.4,60.6,20.5,60.3"/>
	<path class="st0" d="M19.9,61.1c-0.3-0.1-0.7-0.3-0.9-0.5c-0.2-0.2-0.2-0.4-0.2-0.6c0-0.2,0.1-0.3,0.2-0.4c0.2-0.1,0.5-0.2,0.9-0.2
		c0.1,0,0.3,0,0.4,0c-0.2,0.2-0.4,0.4-0.5,0.7C19.7,60.4,19.8,60.8,19.9,61.1"/>
	<path class="st0" d="M21,62.2c0-0.4,0.3-0.8,0.8-0.8c0.4,0,0.8,0.3,0.8,0.8c0,0.4-0.3,0.8-0.8,0.8C21.3,63,21,62.6,21,62.2"/>
	<path class="st0" d="M26,64.8c-1.5-0.3-2.6-1.1-3.1-1.6c0,0.1-0.1,0.1-0.2,0.2c0.1,0.4,0.6,1.5,2.5,2C25.5,65.2,25.8,65,26,64.8"/>
	<path class="st0" d="M20.7,63.2c-0.5,0.5-1.6,1.3-3.1,1.6c0.2,0.2,0.5,0.4,0.8,0.5c1.9-0.5,2.4-1.6,2.5-2
		C20.8,63.3,20.7,63.2,20.7,63.2"/>
	<path class="st2" d="M40.9,43c0-0.1,0-0.2-0.1-0.3c-0.1-0.1-0.1-0.1-0.2-0.1c0.1-0.1,0.1-0.3,0.2-0.4c0.2-0.6,0.4-1.4,0.4-2.2
		c0-0.1-0.1-0.2-0.1-0.3c-0.1,0-0.1-0.1-0.2-0.1c0-0.1,0.1-0.3,0.1-0.4c0.2-0.7,0.2-1.4,0.2-2.2c0-0.1-0.1-0.2-0.2-0.3
		c-0.1,0-0.2,0-0.2,0c0-0.2,0.1-0.3,0.1-0.5c0.1-0.7,0.1-1.4-0.1-2.3c0-0.1-0.1-0.2-0.2-0.2c-0.1,0-0.1,0-0.2,0c0-0.1,0-0.2,0-0.3
		c0.1-0.7,0-1.4-0.2-2.2c0-0.1-0.1-0.2-0.2-0.2s-0.2,0-0.3,0c0,0,0,0,0,0c0-0.2,0-0.4,0-0.5c0-0.7-0.2-1.4-0.5-2.2
		c0-0.1-0.1-0.2-0.2-0.2c-0.1,0-0.2,0-0.3,0c0-0.2,0-0.3,0-0.5c-0.1-0.7-0.3-1.4-0.7-2.1c0-0.1-0.1-0.2-0.3-0.2
		c-0.1,0-0.2,0-0.2,0.1c0-0.2-0.1-0.3-0.1-0.5c-0.2-0.7-0.5-1.4-1-2c-0.1-0.1-0.2-0.1-0.3-0.1c-0.1,0-0.2,0.1-0.3,0.1
		c-0.1-0.2-0.1-0.4-0.2-0.5c-0.3-0.6-0.7-1.3-1.3-1.9c-0.1-0.1-0.2-0.1-0.3-0.1c-0.1,0-0.2,0.1-0.2,0.1c-0.1-0.2-0.2-0.4-0.3-0.5
		c-0.4-0.6-0.9-1.1-1.5-1.6c-0.1-0.1-0.2-0.1-0.3-0.1c-0.1,0-0.2,0.1-0.2,0.2c-0.4-0.6-1-1-1.8-1.3c0.1,0,0.3,0,0.4,0
		c0.9,0.1,1.5-0.1,1.6-0.1c0.2-0.1,0.3-0.2,0.3-0.4c0-0.2-0.2-0.4-0.4-0.4c-1,0-1.4-0.2-1.8-0.5c-0.1-0.1-0.2-0.1-0.3-0.1l2.3-0.3
		c0.2,0,0.4-0.2,0.4-0.4s-0.2-0.4-0.4-0.4L29.5,14c0.3-0.1,0.6-0.2,0.9-0.3c0.9-0.3,1.4-0.7,1.4-0.7c0.2-0.1,0.2-0.3,0.1-0.5
		c-0.1-0.2-0.3-0.3-0.5-0.2c-0.9,0.3-1.4,0.3-1.9,0.2c-0.1,0-0.2,0-0.3,0l2-1.2c0.2-0.1,0.2-0.3,0.2-0.5c-0.1-0.2-0.3-0.3-0.5-0.2
		l-2.3,0.6c0.2-0.2,0.5-0.4,0.7-0.6c0.7-0.6,1-1.2,1-1.2c0.1-0.2,0-0.4-0.1-0.5c-0.2-0.1-0.4-0.1-0.5,0c-0.7,0.7-1.1,0.8-1.7,0.9
		c-0.1,0-0.2,0.1-0.3,0.1l1.4-1.9c0.1-0.2,0.1-0.4,0-0.5c-0.1-0.1-0.4-0.2-0.5,0l-1.9,1.4c0.1-0.2,0.3-0.5,0.4-0.8
		c0.4-0.8,0.5-1.5,0.5-1.5c0-0.2-0.1-0.4-0.3-0.4c-0.2-0.1-0.4,0-0.5,0.2c-0.4,0.9-0.8,1.2-1.2,1.5c-0.1,0.1-0.2,0.1-0.2,0.2L26,5.6
		c0-0.2-0.1-0.4-0.2-0.5c-0.2-0.1-0.4,0-0.5,0.2l-1.2,2c0-0.3,0.1-0.6,0.1-1C24.2,5.5,24,4.8,24,4.8c-0.1-0.2-0.2-0.3-0.4-0.3
		s-0.4,0.2-0.4,0.4c0,1-0.2,1.4-0.5,1.8c0,0.1-0.1,0.2-0.1,0.3l-0.3-2.3c0-0.2-0.2-0.4-0.4-0.4h0c-0.2,0-0.4,0.2-0.4,0.4L21,7
		c-0.1-0.3-0.2-0.6-0.3-0.9C20.5,5.2,20,4.7,20,4.7c-0.1-0.2-0.3-0.2-0.5-0.1c-0.2,0.1-0.3,0.3-0.2,0.5C19.6,6,19.6,6.5,19.5,7
		c0,0.1,0,0.2,0,0.3l-1.2-2c-0.1-0.2-0.3-0.2-0.5-0.2c-0.2,0.1-0.3,0.3-0.2,0.5l0.6,2.3c-0.2-0.2-0.4-0.5-0.6-0.7
		c-0.6-0.7-1.2-1-1.2-1c-0.2-0.1-0.4,0-0.5,0.1c-0.1,0.2-0.1,0.4,0,0.5c0.7,0.7,0.8,1.1,0.9,1.7c0,0.1,0.1,0.2,0.1,0.3l-1.9-1.4
		c-0.2-0.1-0.4-0.1-0.5,0c-0.1,0.1-0.2,0.4,0,0.5l1.4,1.9c-0.2-0.1-0.5-0.3-0.8-0.4c-0.8-0.4-1.5-0.5-1.5-0.5C13.2,8.9,13,9,13,9.2
		c-0.1,0.2,0,0.4,0.2,0.5c0.9,0.4,1.2,0.8,1.5,1.2c0.1,0.1,0.1,0.2,0.2,0.2l-2.3-0.6c-0.2-0.1-0.4,0.1-0.5,0.2
		c-0.1,0.2,0,0.4,0.2,0.5l2,1.2c-0.3,0-0.6-0.1-0.9-0.1c-0.9-0.1-1.5,0.1-1.6,0.1c-0.2,0.1-0.3,0.2-0.3,0.4s0.2,0.4,0.4,0.4
		c1,0,1.4,0.2,1.8,0.5c0.1,0,0.2,0.1,0.3,0.1l-2.3,0.3c-0.2,0-0.4,0.2-0.4,0.4c0,0.2,0.2,0.4,0.4,0.4l2.3,0.3
		c-0.3,0.1-0.6,0.2-0.9,0.3c-0.9,0.3-1.4,0.7-1.4,0.7c-0.2,0.1-0.2,0.3-0.1,0.5c0.1,0.2,0.3,0.3,0.5,0.2c0.5-0.2,0.9-0.3,1.2-0.3
		c-0.5,0.4-0.9,0.8-1,1c-0.1,0.1-0.2,0.2-0.3,0.4c0-0.1-0.1-0.1-0.2-0.1c-0.1,0-0.2,0-0.3,0c-0.7,0.5-1.2,1.1-1.6,1.6
		c-0.1,0.2-0.2,0.3-0.3,0.5c0-0.1-0.1-0.1-0.2-0.1c-0.1,0-0.2,0-0.3,0.1c-0.6,0.6-1,1.2-1.3,1.9c-0.1,0.2-0.1,0.3-0.2,0.5
		c-0.1-0.1-0.1-0.1-0.2-0.1c-0.1,0-0.2,0-0.3,0.1c-0.5,0.7-0.8,1.3-1,2c-0.1,0.2-0.1,0.4-0.1,0.5c-0.1-0.1-0.2-0.1-0.3-0.1
		c-0.1,0-0.2,0.1-0.3,0.2c-0.4,0.7-0.6,1.4-0.7,2.1c0,0.2,0,0.3,0,0.5c-0.1-0.1-0.2-0.1-0.3-0.1c-0.1,0-0.2,0.1-0.2,0.2
		c-0.3,0.8-0.4,1.5-0.5,2.2c0,0.2,0,0.3,0,0.5c-0.1,0-0.2-0.1-0.3,0c-0.1,0-0.2,0.1-0.2,0.2c-0.2,0.8-0.2,1.6-0.2,2.2
		c0,0.1,0,0.3,0.1,0.4c0,0-0.1,0-0.1,0c-0.1,0-0.2,0.1-0.2,0.2c-0.2,0.8-0.2,1.6-0.1,2.3c0,0.2,0.1,0.3,0.1,0.5c0,0-0.1,0-0.1,0
		c-0.1,0-0.2,0.1-0.2,0.3c-0.1,0.8-0.1,1.6,0.1,2.3c0,0.1,0.1,0.3,0.1,0.4c-0.1,0-0.2,0-0.2,0c-0.1,0.1-0.2,0.2-0.2,0.3
		c0,0.8,0.1,1.6,0.3,2.2c0.1,0.2,0.1,0.4,0.2,0.6c0,0,0,0,0,0c-0.1,0-0.2,0-0.3,0.1c-0.1,0.1-0.1,0.2-0.1,0.3
		c0.1,0.8,0.4,1.5,0.7,2.1c0.1,0.1,0.1,0.2,0.2,0.3c-0.1,0-0.1,0-0.2,0.1c-0.1,0.1-0.1,0.2-0.1,0.3c0.2,0.8,0.5,1.5,0.9,2.1
		c0.1,0.1,0.2,0.3,0.3,0.4c-0.1,0-0.2,0.1-0.2,0.1C4,48.7,4,48.9,4.1,49c0.3,0.8,0.6,1.4,1.1,2c0.1,0.1,0.2,0.2,0.3,0.3
		c-0.1,0-0.1,0.1-0.2,0.1c-0.1,0.1-0.1,0.2,0,0.3c0.4,0.7,0.8,1.4,1.3,1.8c0.1,0.1,0.2,0.2,0.3,0.3c-0.1,0-0.1,0.1-0.2,0.2
		c0,0.1,0,0.2,0,0.3c0.4,0.7,1,1.3,1.5,1.7c0.2,0.1,0.3,0.2,0.5,0.3c0,0-0.1,0-0.1,0c-0.1,0-0.2,0.1-0.2,0.2s0,0.2,0.1,0.3
		c0.6,0.6,1.2,1.1,1.7,1.4c0.5,0.3,1,0.5,1.4,0.5c0.4,0.1,0.8,0.1,1.2,0c0,0,0,0,0.1,0c1,0.7,2.1,1.3,3.2,1.8
		c0.9,0.4,1.9,0.7,2.8,0.9c0.2,0,0.4,0.1,0.6,0.1c-0.4-0.1-0.8-0.4-1.1-0.7c0-0.1-0.1-0.1-0.1-0.2c-0.7-0.2-1.3-0.4-2-0.7
		c-1.1-0.4-2.1-1-3.1-1.7c0,0,0,0,0,0c0-0.3,0-0.7-0.1-1c0.7,0.6,1.3,1,2,1.4c0.9,0.5,1.9,0.9,2.9,1.2c0-0.1,0-0.1,0-0.2
		c0-0.2,0.1-0.3,0.1-0.5c-0.9-0.3-1.8-0.6-2.7-1.1c-1.9-1-3.6-2.5-5-4.5c-0.5-0.7-1-1.4-1.4-2.1c1.1-0.5,3.6-1.6,5.8-2.7
		c0,0.1,0,0.2,0.1,0.3c0.2,0.4,0.7,0.6,1,0.6c0.1,0,0.2,0,0.4,0c0.1,0.3,0.4,0.6,0.9,0.8c0.2,0.1,0.3,0.1,0.5,0.1
		c0.1,0.2,0.2,0.4,0.4,0.5c0.4,0.3,1,0.3,1.4,0.2c0.2,0.2,0.4,0.4,0.7,0.4c0.1,0,0.2,0,0.3,0c0.2,0,0.5-0.1,0.7-0.1v3.9
		c0,0.3,0.2,0.5,0.5,0.5c0.3,0,0.5-0.2,0.5-0.5v-4.1c0.5,0.1,0.9,0,1.2-0.1c0.2-0.1,0.4-0.2,0.5-0.3c0.5,0.1,1,0,1.3-0.4
		c0.1-0.1,0.2-0.3,0.3-0.4c0.7,0,1.1-0.3,1.3-0.5c0.1-0.1,0.2-0.3,0.3-0.4c0.4,0,0.8-0.2,1-0.4c0.1-0.1,0.2-0.3,0.3-0.4
		c1.8,1.4,4.5,2.6,5.7,3.1c-0.4,0.7-0.9,1.4-1.3,2c-1.5,1.9-3.1,3.4-5,4.5c-0.9,0.5-1.8,0.9-2.7,1.1c0.1,0.1,0.1,0.3,0.1,0.5
		c0,0.1,0,0.1,0,0.2c1-0.3,2-0.7,2.9-1.2c0.7-0.4,1.4-0.9,2-1.4c-0.1,0.3-0.1,0.7-0.1,1c0,0,0,0,0,0c-0.3,0.2-1.1,0.8-2.3,1.4
		c-0.9,0.4-1.8,0.8-2.7,1c0,0-0.1,0-0.1,0c0,0.1-0.1,0.1-0.1,0.2c-0.3,0.3-0.7,0.6-1.1,0.7c0.5-0.1,1-0.2,1.5-0.3
		c1-0.3,1.9-0.6,2.8-1.1c1.2-0.6,2-1.2,2.4-1.4c0,0,0,0,0,0c0.3,0.1,0.8,0.1,1.2,0c0.5-0.1,1-0.3,1.4-0.5c0.6-0.3,1.2-0.8,1.7-1.4
		c0.1-0.1,0.1-0.2,0.1-0.3c0-0.1-0.1-0.2-0.2-0.2c0,0,0,0-0.1,0c0.2-0.1,0.4-0.2,0.5-0.4c0.5-0.4,1.1-1,1.5-1.7
		c0.1-0.1,0.1-0.2,0-0.3c0-0.1-0.1-0.1-0.2-0.2c0.1-0.1,0.2-0.2,0.3-0.3c0.5-0.5,0.9-1.1,1.3-1.8c0-0.1,0-0.2,0-0.3
		c-0.1-0.1-0.1-0.1-0.2-0.2c0.1-0.1,0.2-0.2,0.3-0.4c0.4-0.5,0.8-1.2,1.1-2c0-0.1,0-0.2,0-0.3c-0.1-0.1-0.2-0.1-0.3-0.1h0
		c0.1-0.1,0.2-0.2,0.3-0.4c0.4-0.6,0.7-1.3,0.9-2.1c0-0.1,0-0.2-0.1-0.3c-0.1-0.1-0.2-0.1-0.3-0.1c0.1-0.1,0.2-0.3,0.3-0.4
		C40.6,44.6,40.8,43.8,40.9,43 M40.5,40.4C40.5,40.4,40.5,40.5,40.5,40.4c0,0.6-0.1,1.1-0.3,1.6c-0.2,0.5-0.4,0.9-0.7,1.2
		c-0.3,0.4-0.7,0.6-0.8,0.7c0,0,0,0,0,0c0,0,0,0,0,0c-0.5-0.6-0.7-1.4-0.7-2.2c0-0.3,0-0.6,0.1-0.8c0,0,0,0,0,0c0,0,0,0,0,0
		c0.4,0.5,0.6,1.2,0.6,1.2c0,0.1,0.1,0.2,0.2,0.2c0.1,0,0.2,0,0.2-0.1C39.6,41.2,40.1,40.7,40.5,40.4C40.5,40.4,40.5,40.4,40.5,40.4
		 M40.4,37.5C40.4,37.5,40.4,37.5,40.4,37.5C40.5,37.5,40.5,37.5,40.4,37.5c0,0.6,0,1.1-0.1,1.6c-0.1,0.5-0.3,0.9-0.6,1.3
		c-0.3,0.4-0.6,0.7-0.7,0.8c0,0,0,0,0,0c0,0,0,0,0,0c-0.8-0.9-0.9-2.2-0.8-3c0,0,0,0,0,0c0,0,0,0,0,0c0.4,0.5,0.7,1,0.7,1
		c0,0.1,0.1,0.1,0.2,0.1c0.1,0,0.2-0.1,0.2-0.2C39.6,38.3,40.1,37.8,40.4,37.5 M40.1,34.5C40.1,34.5,40.1,34.5,40.1,34.5
		C40.1,34.5,40.1,34.5,40.1,34.5c0.1,0.6,0.1,1.1,0,1.6c-0.1,0.5-0.2,0.9-0.4,1.3c-0.3,0.5-0.6,0.7-0.7,0.8c0,0,0,0,0,0s0,0,0,0
		c-0.8-0.7-1-2.1-1.1-2.9c0,0,0,0,0,0s0,0,0,0c0.5,0.4,0.8,0.9,0.8,0.9c0.1,0.1,0.1,0.1,0.2,0.1c0.1,0,0.2-0.1,0.2-0.2
		C39.4,35.4,39.8,34.8,40.1,34.5 M39.6,31.7C39.6,31.7,39.7,31.7,39.6,31.7C39.7,31.7,39.7,31.7,39.6,31.7c0.1,0.6,0.1,1.1,0.1,1.6
		c0,0.5-0.2,0.9-0.4,1.3c-0.2,0.5-0.5,0.8-0.6,0.9c0,0,0,0,0,0s0,0,0,0c-0.7-0.6-1-1.4-1.1-2c-0.1-0.3-0.1-0.5-0.1-0.8c0,0,0,0,0,0
		c0,0,0,0,0,0c0.5,0.4,0.9,0.9,0.9,0.9c0.1,0.1,0.2,0.1,0.2,0.1s0.2-0.1,0.2-0.2C39,32.6,39.3,32,39.6,31.7 M17,31.9
		c0,0,0-0.1,0-0.1c0.4-2,1.2-3.3,1.7-4.1c0.4-0.6,0.8-0.9,1-1.1c0.1,0,0.1-0.1,0.2-0.1c0.2-0.2,0.2-0.4,0.1-0.6
		c-0.2-0.2-0.4-0.2-0.6-0.1c0,0-0.1,0.1-0.2,0.2c-0.4,0.3-0.7,0.2-0.7,0.2c-0.1-0.1-0.2-0.3-0.2-0.5c0.1-0.4,0.5-1,0.7-1.2
		c0,0,0,0,0,0c1-1.1,2.5-1.2,2.5-1.2s0,0,0,0c0,0,0.5,0,1.1,0.2c0.8,0.3,1.4,0.8,1.9,1.7c0.6,1.2,1.1,2.4,1.4,3.6
		c-0.9-0.3-1.5-0.9-1.5-0.9c-0.2-0.2-0.5-0.1-0.7,0.1c-0.1,0.1-0.1,0.2-0.1,0.3s0.1,0.2,0.2,0.3c0,0,1.1,0.9,2.4,1.2
		c0.1,0.4,0.2,0.9,0.3,1.4c-0.4-0.2-0.9-0.3-1.3-0.4c-0.3-0.1-0.5-0.1-0.7-0.2c-0.9-0.3-1.6-0.9-1.6-0.9c-0.2-0.2-0.5-0.1-0.7,0.1
		C22,29.7,22,30,22.2,30.2c0,0,0.9,0.7,1.9,1.1c0.2,0.1,0.5,0.2,0.8,0.3c1.1,0.3,1.6,0.5,1.6,1.1c0,0.1-0.1,0.2-0.1,0.2
		c-0.4,0.4-1.1,0.4-1.4,0.4c0,0,0,0,0,0h-1c-0.2,0-1.3,0-2.2-0.6C19.4,31.1,18.3,31.3,17,31.9 M21,33.2h-3.2c-0.3,0-0.5-0.1-0.7-0.2
		c0,0-0.1-0.1-0.1-0.1C18.4,32.2,19.1,32,21,33.2 M22.3,38.9v-4.8h1.6h0h0h1c0,0,0.1,0,0.1,0c0.1,0,0.4,0,0.6,0
		c0.6-0.1,1-0.3,1.3-0.6c0.1-0.1,0.3-0.3,0.3-0.6c0,0,0,0,0-0.1c0.1-0.2,0.1-0.5,0-0.8l0-0.1c-0.3-1.9-0.6-4.3-2.1-7.2
		c-1.2-2.4-3.5-2.3-3.8-2.3c-0.2,0-2,0.1-3.1,1.5c-0.1,0.1-0.8,0.9-1,1.6c-0.1,0.6,0.1,1.2,0.6,1.4c0.1,0,0.2,0.1,0.2,0.1
		c-0.7,0.9-1.6,2.4-2.1,4.7c-0.1,0.4-0.1,0.7,0,1c0,0,0,0.1,0,0.1c0.1,0.3,0.2,0.6,0.4,0.8c0.2,0.3,0.6,0.6,1.4,0.6h3.4v4.8v3
		c-0.9,0-1.6,0.3-2.4,0.9c-1.2,0.8-5.3,1.6-12.1,2.4c-0.5-2-0.7-4.1-0.7-6.3c0-2.8,0.4-5.6,1.3-8.2c0.8-2.5,1.9-4.7,3.4-6.7
		c1.5-1.9,3.1-3.4,5-4.5c1.9-1.1,4-1.6,6.1-1.6c2.1,0,4.2,0.5,6.1,1.6c1.9,1,3.6,2.5,5,4.5c1.5,1.9,2.6,4.2,3.4,6.7
		c0.8,2.6,1.2,5.3,1.2,8.2c0,2.2-0.2,4.3-0.7,6.4c-4.2-0.2-9.1-1.8-9.2-1.8c-0.3-0.1-0.7-0.2-1-0.3c-1-0.4-1.8-0.6-2.6-0.6
		c-0.1,0-0.1,0-0.2,0c-0.5-0.2-0.9-0.4-1.6-0.5V38.9L22.3,38.9z M28.7,17.1c-0.3,0.1-0.6,0.2-1.1,0.3c-0.3,0.1-0.5,0.1-0.8,0.1
		c-0.6,0-1.1-0.1-1.5-0.4c0,0,0,0,0,0c0,0,0,0,0,0c0.2-0.1,0.5-0.3,0.9-0.4c0.4-0.1,0.9-0.1,1.3,0C27.9,16.7,28.3,16.8,28.7,17.1
		C28.7,17,28.7,17.1,28.7,17.1C28.7,17.1,28.7,17.1,28.7,17.1 M29.3,18.8C29.3,18.8,29.3,18.8,29.3,18.8
		C29.3,18.8,29.3,18.8,29.3,18.8c-0.2,0.1-0.5,0.2-0.8,0.2c0,0-0.1,0-0.1,0c-0.7,0-1.4-0.3-2.1-0.8c0,0,0,0,0,0c0,0,0,0,0,0
		C26.7,18,27,18,27.3,18C28.1,17.9,28.8,18.2,29.3,18.8 M26.1,16.1c-0.3,0.1-0.8,0.3-1.5,0.4c-0.1,0-0.2,0.1-0.2,0.2
		c0,0.1,0,0.2,0.1,0.3c0,0,0.6,0.4,1,0.9c0,0,0,0,0,0c0,0,0,0,0,0l0,0c-0.7,0-2-0.2-2.9-1.3c0,0,0,0,0,0c0.1-0.1,0.4-0.3,0.8-0.5
		C24.1,15.8,25,15.8,26.1,16.1C26.1,16.1,26.1,16.1,26.1,16.1C26.1,16.1,26.1,16.1,26.1,16.1 M23,15.6c-0.2,0.2-0.7,0.5-1.4,0.7
		c-0.1,0-0.2,0.1-0.2,0.2c0,0.1,0.1,0.2,0.2,0.2c0,0,0.6,0.2,1.1,0.6c0,0,0,0,0,0s0,0,0,0c-0.2,0-0.4,0-0.6,0
		c-0.7,0-1.7-0.1-2.4-0.7c0,0,0,0,0,0c0.1-0.2,0.3-0.4,0.7-0.6C21,15.7,21.9,15.5,23,15.6C23,15.6,23,15.6,23,15.6
		C23,15.6,23,15.6,23,15.6 M19.9,15.7c-0.2,0.2-0.5,0.6-1.3,1c-0.1,0-0.1,0.1-0.1,0.3c0,0.1,0.1,0.2,0.2,0.2c0,0,0.6,0.1,1.2,0.4
		c0,0,0,0,0,0s0,0,0,0c-0.3,0.1-0.5,0.2-0.8,0.2c-0.2,0-0.5,0.1-0.8,0.1c-0.5,0-1-0.1-1.5-0.3c0,0,0,0,0,0c0.1-0.2,0.2-0.5,0.5-0.8
		C17.8,16.2,18.7,15.8,19.9,15.7C19.9,15.7,19.9,15.7,19.9,15.7C19.9,15.7,19.9,15.7,19.9,15.7 M15.8,17.6c-0.1,0.1-0.1,0.2-0.1,0.3
		c0,0.1,0.1,0.2,0.2,0.2h0c0,0,0.3,0,0.6,0c0.2,0,0.5,0.1,0.7,0.1c0,0,0,0,0,0s0,0,0,0c-0.3,0.1-0.5,0.2-0.8,0.3
		c-0.6,0.2-1.1,0.3-1.5,0.3c-0.4,0-0.6-0.1-0.9-0.1c0,0,0,0,0,0c0.1-0.5,0.6-1.8,2.8-2.5c0,0,0,0,0,0s0,0,0,0
		C16.8,16.5,16.5,17.1,15.8,17.6 M38.1,30.7c0.1-0.9,0.4-1.5,0.6-1.9c0,0,0,0,0,0c0,0,0,0,0,0c0.2,0.5,0.3,1.1,0.3,1.5
		c0,0.5,0,0.9-0.2,1.4c-0.2,0.5-0.4,0.8-0.5,0.9c0,0,0,0,0,0c0,0,0,0,0,0c-0.6-0.4-1.1-1-1.4-1.8c-0.1-0.3-0.2-0.5-0.2-0.8
		c0,0,0,0,0,0s0,0,0,0c0.5,0.3,1,0.8,1,0.8c0.1,0.1,0.2,0.1,0.3,0.1C38.1,30.9,38.1,30.8,38.1,30.7 M37.2,28c0-0.9,0.2-1.5,0.4-1.9
		c0,0,0,0,0,0c0,0,0,0,0,0c0.2,0.5,0.4,1,0.4,1.5c0.1,0.5,0.1,0.9,0,1.4c-0.1,0.5-0.3,0.9-0.4,1c0,0,0,0,0,0c0,0,0,0,0,0
		c-0.7-0.3-1.2-0.9-1.6-1.7c-0.1-0.2-0.2-0.5-0.3-0.8c0,0,0,0,0,0c0,0,0,0,0,0c0.6,0.3,1.1,0.7,1.1,0.7c0.1,0.1,0.2,0.1,0.3,0
		C37.1,28.2,37.2,28.1,37.2,28 M35.8,25.7L35.8,25.7c0.1,0,0.1-0.1,0.1-0.2c-0.1-0.9,0-1.5,0.2-2c0,0,0,0,0,0c0,0,0,0,0,0
		c0.3,0.5,0.5,1,0.6,1.4c0.1,0.5,0.2,0.9,0.1,1.4c-0.1,0.5-0.2,0.9-0.3,1c0,0,0,0,0,0c0,0,0,0,0,0c-0.7-0.3-1.4-0.8-1.8-1.5
		c-0.2-0.2-0.3-0.5-0.4-0.8c0,0,0,0,0,0c0,0,0,0,0,0c0.6,0.2,1.2,0.6,1.2,0.6C35.6,25.7,35.7,25.7,35.8,25.7 M34,23.3
		c0.1,0.1,0.2,0.1,0.3,0c0.1-0.1,0.1-0.2,0.1-0.3c-0.2-0.8-0.2-1.5-0.1-1.9c0,0,0,0,0,0s0,0,0,0c0.4,0.4,0.6,0.9,0.8,1.3
		c0.2,0.4,0.3,0.9,0.3,1.3c0,0.5-0.1,0.9-0.1,1c0,0,0,0,0,0c0,0,0,0,0,0c-0.7-0.1-1.4-0.5-2-1.2c-0.2-0.2-0.4-0.5-0.6-0.7
		c0,0,0,0,0,0c0,0,0,0,0,0C33.4,23,34,23.3,34,23.3 M32.1,21.2c0.1,0,0.2,0,0.3-0.1c0.1-0.1,0.1-0.2,0-0.3C32,20.1,32,19.4,32,19
		c0,0,0,0,0,0c0,0,0,0,0,0c0.4,0.4,0.8,0.8,1,1.2c0.3,0.4,0.5,0.8,0.6,1.3c0.1,0.5,0.1,0.9,0.1,1.1c0,0,0,0,0,0c0,0,0,0,0,0
		c-0.8,0-1.6-0.4-2.1-0.8c-0.2-0.2-0.5-0.4-0.7-0.6c0,0,0,0,0,0c0,0,0,0,0,0c0,0,0.1,0,0.1,0C31.6,21,32.1,21.2,32.1,21.2
		 M31.4,19.3c0.2,0.5,0.2,1,0.2,1.2c0,0,0,0,0,0c0,0-0.1,0-0.1,0c-1,0-2.2-0.7-2.8-1.1c0,0,0,0,0,0c0,0,0,0,0,0c0.6-0.1,1.2,0,1.2,0
		c0.1,0,0.2,0,0.3-0.1c0.1-0.1,0-0.2,0-0.3c-0.4-0.5-0.6-1.1-0.8-1.5c0,0,0,0,0,0c0,0,0,0,0,0C30.4,17.9,31.1,18.5,31.4,19.3
		 M13.2,16.4c0,0,0.1,0,0.1-0.1c0.6-0.2,1.2-0.3,1.4-0.4c0.7-0.1,1.1-0.4,1.1-0.4c0.1,0,0.1-0.1,0.1-0.2c0-0.1-0.1-0.1-0.1-0.1
		l-2.9-0.4l2.9-0.4c0.1,0,0.1-0.1,0.1-0.2S15.9,14,15.8,14c0,0-0.6-0.1-1.3-0.4c-0.2-0.1-0.4-0.2-0.5-0.3c-0.3-0.1-0.5-0.3-0.8-0.4
		c0.1,0,0.1,0,0.2,0c0.6,0,1.2,0.1,1.5,0.2c0.7,0.1,1.2,0,1.2,0c0.1,0,0.1-0.1,0.1-0.1c0-0.1,0-0.1-0.1-0.2l-2.5-1.5l2.8,0.7
		c0.1,0,0.2,0,0.2-0.1s0-0.2-0.1-0.2c0,0-0.5-0.3-1-0.9c-0.1-0.1-0.3-0.3-0.4-0.4c-0.2-0.2-0.4-0.4-0.6-0.7c0,0,0.1,0,0.1,0.1
		c0.6,0.3,1.1,0.6,1.3,0.7c0.6,0.4,1.1,0.5,1.1,0.5c0.1,0,0.1,0,0.2-0.1s0-0.1,0-0.2l-1.8-2.3l2.4,1.7c0.1,0,0.2,0,0.2,0
		c0.1-0.1,0.1-0.2,0-0.2c0-0.1-0.4-0.5-0.6-1.2c-0.1-0.2-0.1-0.4-0.2-0.5C17.2,8,17.1,7.7,17,7.4c0,0,0.1,0.1,0.1,0.1
		C17.5,8,17.8,8.5,18,8.7c0.4,0.5,0.8,0.8,0.8,0.9c0.1,0,0.1,0,0.2,0s0.1-0.1,0.1-0.2l-0.7-2.8l1.5,2.5c0,0.1,0.1,0.1,0.2,0.1
		c0.1,0,0.1-0.1,0.1-0.2c0,0-0.1-0.6-0.1-1.3c0-0.2,0-0.4,0-0.6c0-0.3,0.1-0.6,0-0.9c0,0,0,0.1,0.1,0.1c0.2,0.6,0.3,1.2,0.4,1.4
		C20.7,8.4,21,8.8,21,8.9c0,0.1,0.1,0.1,0.2,0.1c0.1,0,0.1-0.1,0.1-0.1l0.4-2.9l0.4,2.9c0,0.1,0.1,0.1,0.2,0.1s0.2-0.1,0.2-0.1
		c0,0,0.1-0.6,0.4-1.3C23,7.3,23.1,7.2,23.2,7c0.1-0.3,0.3-0.5,0.4-0.8c0,0.1,0,0.1,0,0.2c0,0.6-0.1,1.2-0.2,1.5
		c-0.1,0.7,0,1.2,0,1.2c0,0.1,0.1,0.1,0.1,0.1c0.1,0,0.1,0,0.2-0.1l1.5-2.5l-0.7,2.8c0,0.1,0,0.2,0.1,0.2c0.1,0,0.2,0,0.2-0.1
		c0-0.1,0.4-0.6,0.8-1c0.1-0.1,0.3-0.3,0.4-0.4c0.2-0.2,0.4-0.4,0.7-0.6c0,0,0,0.1-0.1,0.1C26.3,8.2,26,8.7,25.9,9
		c-0.4,0.6-0.5,1.1-0.5,1.1c0,0.1,0,0.1,0.1,0.2c0.1,0,0.1,0,0.2,0L28,8.5l-1.7,2.3c0,0.1,0,0.2,0,0.2c0.1,0.1,0.2,0.1,0.2,0
		c0,0,0.5-0.4,1.2-0.6c0.2-0.1,0.4-0.1,0.5-0.2c0.3-0.1,0.5-0.2,0.9-0.3c0,0-0.1,0.1-0.1,0.1c-0.5,0.4-0.9,0.8-1.2,0.9
		c-0.5,0.4-0.9,0.8-0.9,0.8c0,0.1,0,0.1,0,0.2s0.1,0.1,0.2,0.1l2.8-0.7l-2.5,1.5c-0.1,0-0.1,0.1-0.1,0.2c0,0.1,0.1,0.1,0.2,0.1
		c0.1,0,0.7-0.1,1.3-0.1c0.2,0,0.4,0,0.6,0c0.3,0,0.6,0.1,0.9,0c0,0-0.1,0-0.1,0.1c-0.6,0.2-1.2,0.3-1.4,0.4
		c-0.7,0.1-1.1,0.4-1.1,0.4c-0.1,0-0.1,0.1-0.1,0.2c0,0.1,0.1,0.1,0.1,0.1l2.9,0.4l-2.9,0.4c-0.1,0-0.1,0.1-0.1,0.2
		c0,0.1,0.1,0.2,0.1,0.2c0.1,0,0.7,0.1,1.3,0.4c0.2,0.1,0.3,0.2,0.5,0.3c0.3,0.1,0.5,0.3,0.8,0.4c-0.1,0-0.1,0-0.2,0
		c-0.6,0-1.2-0.1-1.5-0.2l-0.1,0C28.1,16.1,27.5,16,27,16c0,0,0,0,0,0c0-0.1-0.1-0.2-0.2-0.2c-0.8-0.3-1.5-0.4-2.2-0.4
		c-0.2,0-0.5,0-0.7,0c0,0,0-0.1,0-0.1c0-0.1-0.1-0.2-0.3-0.2c-0.8-0.1-1.6-0.1-2.2,0c-0.3,0.1-0.5,0.1-0.7,0.2c0-0.1,0-0.1-0.1-0.2
		c-0.1-0.1-0.2-0.1-0.3-0.1c-0.8,0.1-1.6,0.2-2.2,0.5c-0.2,0.1-0.3,0.1-0.5,0.2c0-0.1-0.1-0.2-0.1-0.2c-0.1-0.1-0.2-0.1-0.3-0.1
		c-0.8,0.2-1.5,0.5-2.1,0.9l0,0c-0.2,0-0.3,0-0.4,0c-0.1,0-0.5,0-0.6,0C13.8,16.4,13.5,16.3,13.2,16.4 M14,17.2
		C14,17.2,14,17.2,14,17.2C14,17.2,14,17.2,14,17.2c0,0.5-0.1,1.1-0.6,1.9c-0.1,0.1-0.1,0.2,0,0.3s0.2,0.1,0.2,0.1
		c0,0,0.6-0.1,1.3-0.1c0,0,0,0,0,0c0,0,0,0,0,0c-0.5,0.4-1.6,1.1-2.8,1.1c0,0-0.1,0-0.1,0c0,0,0,0,0,0C12,20,12.1,18.6,14,17.2
		 M10,21.4c0.1-0.4,0.3-0.9,0.6-1.3c0.3-0.4,0.6-0.8,1.1-1.2c0,0,0,0,0,0c0,0,0,0,0,0c0,0.4-0.1,1.1-0.5,1.9c0,0.1,0,0.2,0,0.3
		s0.2,0.1,0.3,0.1c0,0,0.6-0.2,1.2-0.2c0,0,0,0,0,0c0,0,0,0,0,0c-0.2,0.2-0.5,0.4-0.7,0.6c-0.5,0.4-1.2,0.8-1.9,0.8c0,0-0.1,0-0.1,0
		c0,0,0,0,0,0C9.9,22.4,9.9,21.9,10,21.4 M9.3,21.1C9.3,21.1,9.4,21.1,9.3,21.1C9.4,21.1,9.4,21.1,9.3,21.1c0.1,0.4,0.2,1.1-0.1,2
		c0,0.1,0,0.2,0.1,0.3s0.2,0.1,0.3,0c0,0,0.5-0.4,1.2-0.4c0,0,0,0,0,0c0,0,0,0,0,0c-0.4,0.6-1.4,1.7-2.5,1.9h0c0,0,0,0,0,0
		C8.1,24.3,7.9,22.9,9.3,21.1 M6.8,24.9c0.1-0.5,0.4-0.9,0.7-1.4c0,0,0,0,0,0c0,0,0,0,0,0c0.1,0.4,0.3,1.1,0.1,2
		c0,0.1,0,0.2,0.1,0.3c0.1,0.1,0.2,0,0.3,0c0,0,0.5-0.5,1.2-0.6c0,0,0,0,0,0c0,0,0,0,0,0c-0.1,0.2-0.3,0.5-0.5,0.8
		c-0.5,0.7-1.1,1.2-1.9,1.4c0,0,0,0,0,0c0,0,0,0,0,0c-0.1-0.1-0.2-0.5-0.2-1C6.6,25.8,6.6,25.4,6.8,24.9 M5.4,27.6
		c0.1-0.5,0.2-1,0.5-1.5c0,0,0,0,0,0c0,0,0,0,0,0c0.2,0.4,0.4,1.1,0.4,1.9c0,0.1,0.1,0.2,0.1,0.2c0.1,0,0.2,0,0.3,0
		c0,0,0.5-0.5,1.1-0.7c0,0,0,0,0,0c0,0,0,0,0,0c-0.1,0.2-0.2,0.5-0.3,0.7c-0.4,0.8-1,1.3-1.7,1.7c0,0,0,0,0,0c0,0,0,0,0,0
		c-0.1-0.2-0.3-0.5-0.4-1C5.4,28.5,5.3,28,5.4,27.6 M4.7,28.8C4.7,28.8,4.7,28.8,4.7,28.8C4.7,28.8,4.7,28.8,4.7,28.8
		c0.3,0.4,0.6,1,0.7,1.9c0,0.1,0.1,0.2,0.2,0.2c0.1,0,0.2,0,0.3-0.1c0,0,0.4-0.5,1-0.9c0,0,0,0,0,0c0,0,0,0,0,0
		c0,0.3-0.1,0.5-0.2,0.8c-0.3,0.8-0.8,1.5-1.5,1.9c0,0,0,0,0,0c0,0,0,0,0,0c-0.1-0.1-0.3-0.4-0.5-0.9c-0.1-0.4-0.2-0.9-0.2-1.4
		C4.4,29.9,4.5,29.3,4.7,28.8 M3.8,31.7C3.8,31.6,3.8,31.6,3.8,31.7C3.8,31.6,3.8,31.6,3.8,31.7c0.3,0.3,0.7,0.9,0.9,1.8
		c0,0.1,0.1,0.2,0.2,0.2c0.1,0,0.2,0,0.2-0.1c0,0,0.4-0.6,0.9-1c0,0,0,0,0,0c0,0,0,0,0,0c0,0.3,0,0.5-0.1,0.8
		c-0.2,0.8-0.6,1.5-1.2,2.1c0,0,0,0,0,0s0,0,0,0c-0.1-0.1-0.4-0.4-0.6-0.8c-0.2-0.4-0.3-0.8-0.4-1.3C3.7,32.7,3.7,32.2,3.8,31.7
		 M3.4,34.5C3.4,34.5,3.4,34.5,3.4,34.5C3.4,34.5,3.4,34.5,3.4,34.5c0.3,0.3,0.8,0.9,1,1.7c0,0.1,0.1,0.2,0.2,0.2
		c0.1,0,0.2,0,0.2-0.1c0,0,0.3-0.6,0.8-1c0,0,0,0,0,0c0,0,0,0,0,0c0,0.3,0,0.6-0.1,0.9c-0.1,0.9-0.5,1.6-1,2.1c0,0,0,0,0,0s0,0,0,0
		c-0.1-0.1-0.4-0.4-0.7-0.8c-0.2-0.4-0.4-0.8-0.4-1.3C3.3,35.6,3.3,35.1,3.4,34.5 M3.2,37.5C3.2,37.5,3.2,37.5,3.2,37.5
		C3.2,37.5,3.2,37.5,3.2,37.5c0.1,0,0.2,0.1,0.2,0.2C3.6,38,4,38.5,4.2,39.2c0,0.1,0.1,0.2,0.2,0.2c0.1,0,0.2-0.1,0.2-0.2
		c0,0,0.1-0.6,0.6-1.1c0,0,0,0,0,0c0,0,0,0,0,0c0.1,0.3,0.1,0.9,0,1.4c-0.1,0.7-0.4,1.2-0.8,1.7c0,0,0,0,0,0s0,0,0,0
		C4,40.9,3,39.9,3.2,37.5 M3,40.5C3,40.5,3,40.5,3,40.5c0.1,0.1,0.2,0.1,0.2,0.2c0.3,0.3,0.7,0.7,1,1.4c0,0.1,0.1,0.1,0.2,0.1h0
		c0.1,0,0.2-0.1,0.2-0.2c0,0,0.3-0.6,0.7-1.2c0,0,0,0,0,0c0,0,0,0,0,0c0.1,0.6,0.2,1.8-0.7,3.1c0,0,0,0,0,0c0,0,0,0,0,0
		C4.3,43.7,3.1,42.8,3,40.5C3,40.5,3,40.5,3,40.5 M3.2,43.5C3.2,43.5,3.2,43.5,3.2,43.5C3.2,43.5,3.2,43.5,3.2,43.5
		c0.4,0.2,1,0.6,1.5,1.3c0.1,0.1,0.2,0.1,0.2,0.1c0.1,0,0.2-0.1,0.2-0.2l0,0l0,0c0,0,0.2-0.7,0.5-1.3c0,0,0,0,0,0c0,0,0,0,0,0
		c0.1,0.2,0.2,0.5,0.3,0.8c0.2,0.8,0,1.6-0.4,2.4c0,0,0,0,0,0c0,0,0,0,0,0c-0.1-0.1-0.5-0.2-0.9-0.6c-0.3-0.3-0.6-0.7-0.9-1.1
		C3.5,44.6,3.3,44.1,3.2,43.5 M3.9,46.4C3.9,46.4,3.9,46.3,3.9,46.4C3.9,46.3,3.9,46.3,3.9,46.4c0.1,0,0.2,0,0.3,0.1
		C4.5,46.6,5,47,5.5,47.6c0.1,0.1,0.2,0.1,0.3,0.1c0.1,0,0.2-0.1,0.2-0.2c0,0,0.1-0.7,0.4-1.3c0,0,0,0,0,0s0,0,0,0
		C6.6,46.8,7,48,6.4,49.3c0,0,0,0,0,0c0,0,0,0,0,0C5.9,49.2,4.5,48.6,3.9,46.4 M5.6,50.6c-0.3-0.4-0.6-0.8-0.8-1.3c0,0,0,0,0,0
		c0,0,0,0,0,0c0.1,0,0.2,0,0.2,0.1c0.4,0.1,0.9,0.4,1.5,0.9c0.1,0.1,0.2,0.1,0.3,0.1c0.1,0,0.2-0.1,0.2-0.2c0,0,0-0.7,0.2-1.3
		c0,0,0,0,0,0s0,0,0,0c0.1,0.2,0.3,0.5,0.4,0.8c0.3,0.8,0.3,1.6,0.1,2.3c0,0,0,0,0,0c0,0,0,0,0,0c-0.2,0-0.5-0.1-1-0.4
		C6.2,51.2,5.9,50.9,5.6,50.6 M6,51.9C6,51.9,6,51.9,6,51.9C6,51.9,6,51.9,6,51.9c0.5,0,1.1,0.3,1.8,0.8c0.1,0.1,0.2,0.1,0.3,0
		c0.1,0,0.1-0.1,0.1-0.2c0,0-0.1-0.6,0.1-1.3c0,0,0,0,0,0c0,0,0,0,0,0c0.2,0.2,0.3,0.5,0.4,0.7c0.3,0.5,0.6,1.4,0.4,2.2c0,0,0,0,0,0
		h0c-0.2,0-0.6-0.1-1-0.3c-0.4-0.2-0.8-0.4-1.1-0.8C6.6,52.8,6.3,52.4,6,51.9 M11.6,56.8c0,0-0.2-0.6-0.3-1.2c0,0,0,0,0,0s0,0,0,0
		c0.6,0.5,1.5,1.5,1.5,2.8c0,0,0,0,0,0c-0.1,0-0.2,0-0.4,0c-0.2,0-0.4,0-0.6-0.1c-0.8-0.2-1.7-0.6-2.5-1.4c0,0,0,0,0,0c0,0,0,0,0,0
		c0.4-0.1,1.1-0.1,2,0.3c0.1,0,0.2,0,0.3-0.1C11.6,57,11.7,56.9,11.6,56.8 M9.4,55c0.1,0.1,0.2,0.1,0.3,0c0.1-0.1,0.1-0.2,0.1-0.3
		c0,0-0.1-0.6-0.1-1.3c0,0,0,0,0,0c0,0,0,0,0,0c0.5,0.6,1.2,1.7,1.2,2.9c0,0,0,0,0,0c0,0-0.1,0-0.1,0c-0.2,0-0.5,0-0.9-0.2
		c-0.4-0.1-0.8-0.4-1.2-0.7c-0.4-0.3-0.7-0.7-1.1-1.1c0,0,0,0,0,0c0,0,0,0,0,0C8,54.4,8.7,54.6,9.4,55 M19,48.6
		c-0.1,0.1-0.2,0.1-0.2,0.2c-0.5,0.4-0.8,0.8-1,1.2c-0.1,0-0.1,0-0.2,0c-0.4-0.1-0.4-0.3-0.4-0.4c0-0.2,0.1-0.4,0.4-0.7
		c0.4-0.3,0.7-0.5,0.9-0.5c0.1,0,0.2,0,0.3,0.1C18.9,48.4,18.9,48.5,19,48.6C19,48.6,19,48.6,19,48.6 M19.5,50.6
		c-0.2,0-0.6,0.1-0.8-0.1c-0.1,0-0.1-0.1-0.1-0.2c0-0.3,0.4-0.7,0.7-0.9c0.4-0.3,0.7-0.5,0.9-0.5c0.1,0,0.2,0,0.3,0.1
		c0.1,0.1,0.1,0.1,0.1,0.2c0,0.1-0.1,0.3-0.3,0.4C19.9,50,19.6,50.3,19.5,50.6 M21.5,50.7c-0.2,0.1-0.7,0.5-1.1,0.4
		c-0.1,0-0.2,0-0.2-0.1c0.2-0.4,0.6-0.6,0.9-0.8c0.5-0.3,0.7-0.1,0.7-0.1c0.1,0.1,0.1,0.2,0.1,0.2C21.9,50.4,21.7,50.6,21.5,50.7
		C21.6,50.7,21.6,50.7,21.5,50.7 M17.2,48c-0.1,0.1-0.1,0.1-0.2,0.2c-0.2,0.2-0.5,0.5-0.6,0.9c-0.1,0-0.1,0-0.2,0
		c-0.3,0-0.4-0.1-0.4-0.2c0,0-0.1-0.2,0.1-0.4c0.2-0.3,0.7-0.5,1.1-0.5c0,0,0.1,0,0.1,0c0,0,0,0,0,0C17.1,48,17.1,48,17.2,48
		 M27.7,48.5c-0.1,0.1-0.3,0.2-0.5,0.2c-0.3-0.5-1.2-1.5-2.3-2.1c-0.1,0-0.2-0.1-0.3,0c-0.1,0-0.2,0.1-0.2,0.2c0,0.1-0.1,0.2,0,0.3
		c0,0.1,0.1,0.2,0.2,0.2c1,0.5,1.7,1.4,2,1.8c0,0.1-0.1,0.1-0.1,0.2c-0.2,0.2-0.4,0.3-0.7,0.3c-0.1-0.2-0.3-0.5-0.5-0.8
		c-0.3-0.4-1-0.9-1.1-0.9c-0.1-0.1-0.2-0.1-0.3-0.1c-0.1,0-0.2,0.1-0.3,0.2s-0.1,0.2-0.1,0.3c0,0.1,0.1,0.2,0.2,0.3
		c0.2,0.1,0.7,0.5,0.9,0.8c0.3,0.3,0.4,0.5,0.4,0.6c0,0.1-0.1,0.2-0.2,0.3c-0.1,0.1-0.3,0.2-0.5,0.2c-0.1-0.2-0.3-0.7-0.7-1.1
		c-0.1-0.2-0.4-0.2-0.6,0c-0.1,0.1-0.1,0.2-0.1,0.3c0,0.1,0,0.2,0.1,0.3c0.3,0.3,0.5,0.6,0.6,0.8c-0.1,0-0.1,0.1-0.2,0.1
		c-0.2,0.1-0.4,0.1-0.7,0.1c0.1-0.2,0.2-0.3,0.2-0.5c0-0.2,0-0.6-0.4-0.9c-0.2-0.2-0.5-0.3-1-0.3c0-0.2-0.2-0.5-0.4-0.7
		c-0.4-0.3-0.8-0.4-1.3-0.3v0c-0.1-0.2-0.2-0.4-0.6-0.6c-0.3-0.2-0.7-0.2-1.1-0.1c-0.3-0.3-0.8-0.3-0.9-0.3
		c-0.5-0.1-1.2,0.2-1.7,0.6c-2.3,1.2-5.3,2.6-6.5,3.1c-0.6-1.2-1.2-2.5-1.6-3.8C7.1,46.7,7,46.3,6.9,46c3.4-0.4,6.2-0.8,8.2-1.2
		c2.1-0.4,3.5-0.8,4.2-1.3c0.8-0.6,1.3-0.8,2.1-0.8c0.2,0,0.3,0,0.5,0.1c-0.1,0.1-0.3,0.1-0.4,0.2c-0.3,0.2-0.5,0.4-0.7,0.5
		c-0.2,0.1-0.3,0.3-0.5,0.4c-0.2,0.1-0.4,0.2-0.6,0.3c-0.5,0.2-0.9,0.4-1,0.7c-0.1,0.3-0.1,0.7,0.2,1c0.4,0.5,1,0.5,1.4,0.5
		c0.5,0,1.2-0.2,1.7-0.5c0.2-0.1,0.3-0.2,0.5-0.3c0.2-0.1,0.4-0.3,0.5-0.3c0,0,0,0,0,0c0.4-0.1,0.9-0.1,1.4,0.1
		c0.5,0.2,1,0.5,1.4,0.8c1.1,0.7,1.9,1.6,2.1,1.9C27.8,48.3,27.8,48.4,27.7,48.5 M29.2,48.2c-0.4-0.2-0.6-0.5-0.7-0.6c0,0,0,0,0,0
		l0,0c0,0-0.1-0.1-0.1-0.1c-0.4-0.4-1.1-1.3-2.2-1.9c-0.8-0.5-2.1-1.4-3.5-1c-0.3,0.1-0.5,0.2-0.8,0.4c-0.1,0.1-0.3,0.2-0.4,0.3
		c-0.4,0.2-1,0.4-1.3,0.4c-0.4,0-0.6,0-0.7-0.1c-0.1-0.1-0.1-0.2-0.1-0.2c0.1-0.1,0.4-0.2,0.6-0.3c0.2-0.1,0.5-0.2,0.6-0.3
		c0.3-0.2,0.4-0.3,0.6-0.5c0.2-0.1,0.3-0.3,0.6-0.5c0.4-0.3,0.9-0.3,1.5-0.3h0c0.1,0,0.2,0,0.3,0c0.1,0,0.2,0,0.3,0
		c0.7,0,1.4,0.2,2.4,0.6c0.3,0.1,0.6,0.2,1,0.3c0.1,0,1.4,0.4,3.2,0.9c1.6,0.4,3.9,0.8,6,1c-0.1,0.3-0.2,0.7-0.3,1
		c-0.5,1.4-1,2.7-1.7,4C33.5,50.6,30.9,49.5,29.2,48.2 M34.2,56.9c-1,1-1.9,1.3-2.5,1.4c-0.2,0-0.4,0.1-0.6,0.1c-0.2,0-0.3,0-0.4,0
		c0,0,0,0,0,0c0-0.7,0.2-1.5,0.8-2.2c0.2-0.2,0.4-0.4,0.6-0.6c0,0,0,0,0,0c0,0,0,0,0,0c-0.1,0.6-0.3,1.2-0.3,1.2c0,0.1,0,0.2,0,0.3
		c0.1,0.1,0.2,0.1,0.3,0.1C33,56.8,33.7,56.8,34.2,56.9C34.2,56.9,34.2,56.9,34.2,56.9C34.2,56.9,34.2,56.9,34.2,56.9 M36,54.4
		c-0.3,0.5-0.7,0.8-1.1,1.1c-0.4,0.3-0.8,0.5-1.2,0.7c-0.4,0.1-0.7,0.2-0.9,0.2c0,0-0.1,0-0.1,0c0,0,0,0,0,0c0-0.7,0.2-1.5,0.6-2.2
		c0.1-0.2,0.3-0.5,0.5-0.7c0,0,0,0,0,0c0,0,0,0,0,0c0.1,0.6-0.1,1.3-0.1,1.3c0,0.1,0,0.2,0.1,0.2c0.1,0.1,0.2,0.1,0.3,0
		C34.9,54.6,35.6,54.4,36,54.4C36,54.4,36,54.4,36,54.4C36.1,54.4,36.1,54.4,36,54.4 M36.6,53.1c-0.4,0.3-0.7,0.6-1.1,0.8
		c-0.5,0.2-0.9,0.3-1,0.3h0c0,0,0,0,0,0c-0.1-0.7,0-1.5,0.4-2.3c0.1-0.2,0.3-0.5,0.4-0.7c0,0,0,0,0,0c0,0,0,0,0,0
		c0.1,0.6,0.1,1.3,0.1,1.3c0,0.1,0,0.2,0.1,0.2c0.1,0,0.2,0,0.3,0c0.7-0.5,1.4-0.7,1.8-0.8c0,0,0,0,0,0c0,0,0,0,0,0
		C37.3,52.4,37,52.8,36.6,53.1 M38,50.5c-0.3,0.4-0.7,0.7-1,0.9c-0.4,0.3-0.8,0.3-1,0.4c0,0,0,0,0,0c0,0,0,0,0,0
		c-0.2-0.7-0.2-1.5,0.1-2.3c0.1-0.2,0.2-0.5,0.3-0.7c0,0,0,0,0,0s0,0,0,0c0.2,0.6,0.2,1.3,0.2,1.3c0,0.1,0.1,0.2,0.2,0.2
		c0.1,0,0.2,0,0.3-0.1c0.5-0.6,1.1-0.9,1.4-1c0.1,0,0.2-0.1,0.3-0.1c0,0,0,0,0,0c0,0,0,0,0,0C38.6,49.7,38.3,50.1,38,50.5 M39,47.8
		c-0.3,0.4-0.6,0.8-0.9,1c-0.4,0.3-0.8,0.4-1,0.5c0,0,0,0,0,0c0,0,0,0,0,0c-0.3-0.8-0.2-1.7-0.1-2.3c0.1-0.3,0.2-0.5,0.3-0.8
		c0,0,0,0,0,0s0,0,0,0c0.3,0.6,0.3,1.3,0.4,1.3c0,0.1,0.1,0.2,0.2,0.2c0.1,0,0.2,0,0.3-0.1c0.5-0.7,1.2-1,1.6-1.2c0,0,0,0,0,0
		c0,0,0,0,0,0C39.5,46.9,39.3,47.4,39,47.8 M39.8,44.9c-0.2,0.4-0.5,0.8-0.8,1.1c-0.4,0.3-0.7,0.5-0.9,0.6c0,0,0,0,0,0c0,0,0,0,0,0
		c-0.4-0.7-0.5-1.5-0.4-2.4c0-0.3,0.1-0.6,0.2-0.8c0,0,0,0,0,0c0,0,0,0,0,0c0.3,0.6,0.5,1.3,0.5,1.3c0,0.1,0.1,0.2,0.2,0.2
		c0.1,0,0.2,0,0.2-0.1c0.5-0.7,1-1.2,1.4-1.4c0,0,0,0,0,0c0,0,0,0,0,0C40.1,44,40,44.5,39.8,44.9"/>
	<path class="st3" d="M34.2,56.9c-0.4-0.1-1.2-0.1-2,0.3c-0.1,0-0.2,0-0.3-0.1s-0.1-0.2-0.1-0.3c0,0,0.2-0.6,0.3-1.2c0,0,0,0,0,0
		s0,0,0,0c-0.2,0.2-0.4,0.4-0.6,0.6c-0.6,0.7-0.9,1.4-0.8,2.2c0,0,0,0,0,0c0.1,0,0.2,0,0.4,0c0.2,0,0.4,0,0.6-0.1
		C32.3,58.2,33.2,57.9,34.2,56.9C34.2,56.9,34.2,56.9,34.2,56.9C34.2,56.9,34.2,56.9,34.2,56.9"/>
	<path class="st3" d="M11.4,55.5C11.3,55.5,11.3,55.5,11.4,55.5C11.3,55.5,11.3,55.5,11.4,55.5c0,0.7,0.3,1.2,0.3,1.3
		c0,0.1,0,0.2-0.1,0.3c-0.1,0.1-0.2,0.1-0.3,0.1c-0.8-0.3-1.5-0.3-2-0.3c0,0,0,0,0,0c0,0,0,0,0,0c0.8,0.8,1.7,1.3,2.5,1.4
		c0.2,0,0.4,0.1,0.6,0.1c0.2,0,0.3,0,0.4,0c0,0,0,0,0,0C12.9,57,11.9,56,11.4,55.5"/>
	<path class="st3" d="M36,54.4c-0.5,0-1.1,0.2-1.9,0.6c-0.1,0.1-0.2,0.1-0.3,0c-0.1-0.1-0.1-0.2-0.1-0.2c0,0,0.1-0.6,0.1-1.3
		c0,0,0,0,0,0c0,0,0,0,0,0c-0.2,0.2-0.4,0.4-0.5,0.7c-0.5,0.7-0.7,1.5-0.6,2.2c0,0,0,0,0,0c0,0,0.1,0,0.1,0c0.2,0,0.5,0,0.9-0.2
		c0.4-0.1,0.8-0.4,1.2-0.7C35.4,55.3,35.7,54.9,36,54.4C36.1,54.4,36.1,54.4,36,54.4C36,54.4,36,54.4,36,54.4"/>
	<path class="st3" d="M37.5,51.9c-0.4,0.1-1.1,0.3-1.8,0.8c-0.1,0.1-0.2,0.1-0.3,0c-0.1,0-0.1-0.1-0.1-0.2c0,0,0.1-0.7-0.1-1.3
		c0,0,0,0,0,0c0,0,0,0,0,0c-0.2,0.2-0.3,0.5-0.4,0.7c-0.4,0.8-0.5,1.6-0.4,2.3c0,0,0,0,0,0h0c0.2,0,0.6,0,1-0.3
		c0.4-0.2,0.8-0.4,1.1-0.8C37,52.8,37.3,52.4,37.5,51.9C37.6,51.9,37.6,51.9,37.5,51.9C37.6,51.9,37.6,51.9,37.5,51.9"/>
	<path class="st3" d="M38.8,49.1c-0.1,0-0.2,0-0.3,0.1c-0.4,0.1-0.9,0.4-1.4,1c-0.1,0.1-0.2,0.1-0.3,0.1c-0.1,0-0.2-0.1-0.2-0.2
		c0,0,0-0.7-0.2-1.3c0,0,0,0,0,0s0,0,0,0c-0.1,0.2-0.2,0.5-0.3,0.7c-0.3,0.8-0.3,1.6-0.1,2.3c0,0,0,0,0,0c0,0,0,0,0,0
		c0.2,0,0.6-0.1,1-0.4c0.4-0.2,0.7-0.5,1-0.9C38.3,50.1,38.6,49.7,38.8,49.1C38.8,49.1,38.8,49.1,38.8,49.1
		C38.8,49.1,38.8,49.1,38.8,49.1"/>
	<path class="st3" d="M39.6,46.3c-0.4,0.2-1,0.5-1.6,1.2c-0.1,0.1-0.2,0.1-0.3,0.1s-0.2-0.1-0.2-0.2c0,0-0.1-0.7-0.4-1.3
		c0,0,0,0,0,0s0,0,0,0c-0.1,0.3-0.2,0.5-0.3,0.8c-0.1,0.6-0.2,1.5,0.1,2.3c0,0,0,0,0,0c0,0,0,0,0,0c0.1,0,0.5-0.2,1-0.5
		c0.4-0.3,0.7-0.6,0.9-1C39.3,47.4,39.5,46.9,39.6,46.3C39.7,46.3,39.7,46.3,39.6,46.3C39.7,46.3,39.6,46.3,39.6,46.3"/>
	<path class="st3" d="M40.2,43.4c-0.4,0.2-1,0.6-1.4,1.4c-0.1,0.1-0.1,0.1-0.2,0.1c-0.1,0-0.2-0.1-0.2-0.2c0,0-0.2-0.7-0.5-1.3
		c0,0,0,0,0,0s0,0,0,0c-0.1,0.3-0.1,0.6-0.2,0.8c-0.1,0.9,0,1.7,0.4,2.4c0,0,0,0,0,0c0,0,0,0,0,0c0.2-0.1,0.5-0.2,0.9-0.6
		c0.3-0.3,0.6-0.7,0.8-1.1C40,44.5,40.1,44,40.2,43.4C40.2,43.4,40.2,43.4,40.2,43.4C40.2,43.4,40.2,43.4,40.2,43.4"/>
	<path class="st3" d="M39.2,42c0,0.1-0.1,0.1-0.2,0.1c-0.1,0-0.2-0.1-0.2-0.2c0,0-0.2-0.7-0.6-1.2c0,0,0,0,0,0c0,0,0,0,0,0
		C38,41.1,38,41.3,38,41.6c0,0.9,0.2,1.6,0.7,2.2c0,0,0,0,0,0c0,0,0,0,0,0c0.1-0.1,0.5-0.3,0.8-0.7c0.3-0.3,0.5-0.7,0.7-1.2
		c0.2-0.5,0.3-1,0.3-1.5c0,0,0,0,0,0c0,0,0,0,0,0C40.1,40.7,39.6,41.2,39.2,42"/>
	<path class="st3" d="M39.1,39.3c-0.1,0-0.2,0-0.2-0.1c0,0-0.3-0.6-0.7-1c0,0,0,0,0,0c0,0,0,0,0,0c0,0.7,0,2.1,0.8,3c0,0,0,0,0,0
		c0,0,0,0,0,0c0.1-0.1,0.4-0.3,0.7-0.8c0.3-0.4,0.4-0.8,0.6-1.3c0.1-0.5,0.2-1,0.2-1.6c0,0,0,0,0,0c0,0,0,0,0,0
		c-0.3,0.3-0.8,0.8-1.1,1.6C39.3,39.2,39.2,39.3,39.1,39.3"/>
	<path class="st3" d="M39,36.4c-0.1,0-0.2,0-0.2-0.1c0,0-0.3-0.5-0.8-0.9c0,0,0,0,0,0c0,0,0,0,0,0c0.1,0.8,0.3,2.2,1.1,2.9
		c0,0,0,0,0,0s0,0,0,0c0.1-0.1,0.4-0.4,0.7-0.8c0.2-0.4,0.4-0.8,0.4-1.3c0.1-0.5,0.1-1,0-1.6c0,0,0,0,0,0s0,0,0,0
		c-0.3,0.3-0.7,0.9-0.9,1.7C39.1,36.3,39.1,36.4,39,36.4"/>
	<path class="st3" d="M38.6,33.6c-0.1,0-0.2,0-0.2-0.1c0,0-0.4-0.5-0.9-0.9c0,0,0,0,0,0c0,0,0,0,0,0c0,0.3,0.1,0.6,0.1,0.8
		c0.1,0.6,0.5,1.4,1.1,2c0,0,0,0,0,0s0,0,0,0c0.1-0.1,0.4-0.4,0.6-0.9c0.2-0.4,0.3-0.8,0.4-1.3c0-0.5,0-1-0.1-1.6c0,0,0,0,0,0
		c0,0,0,0,0,0c-0.3,0.3-0.7,0.9-0.9,1.8C38.8,33.6,38.7,33.6,38.6,33.6"/>
	<path class="st3" d="M38,30.9c-0.1,0-0.2,0-0.3-0.1c0,0-0.5-0.5-1-0.8c0,0,0,0,0,0c0,0,0,0,0,0c0.1,0.3,0.1,0.5,0.2,0.8
		c0.3,0.8,0.8,1.4,1.4,1.8c0,0,0,0,0,0c0,0,0,0,0,0c0.1-0.1,0.3-0.4,0.5-0.9c0.1-0.4,0.2-0.9,0.2-1.4c0-0.5-0.1-1-0.3-1.5
		c0,0,0,0,0,0s0,0,0,0c-0.2,0.4-0.5,1-0.6,1.9C38.1,30.8,38.1,30.9,38,30.9"/>
	<path class="st3" d="M36.8,28.2c0,0-0.5-0.4-1.1-0.7c0,0,0,0,0,0c0,0,0,0,0,0c0.1,0.3,0.2,0.5,0.3,0.8c0.4,0.8,0.9,1.4,1.6,1.7
		c0,0,0,0,0,0c0,0,0,0,0,0c0.1-0.1,0.3-0.5,0.4-1c0.1-0.4,0.1-0.9,0-1.4c-0.1-0.5-0.2-1-0.4-1.5c0,0,0,0,0,0c0,0,0,0,0,0
		c-0.2,0.4-0.4,1.1-0.4,1.9c0,0.1-0.1,0.2-0.1,0.2C36.9,28.3,36.8,28.2,36.8,28.2"/>
	<path class="st3" d="M34.3,25.1C34.3,25.1,34.3,25.1,34.3,25.1c0.1,0.3,0.2,0.5,0.4,0.8c0.5,0.7,1.1,1.2,1.8,1.5c0,0,0,0,0,0
		c0,0,0,0,0,0c0.1-0.1,0.2-0.5,0.3-1c0-0.4,0-0.9-0.1-1.4c-0.1-0.5-0.3-1-0.6-1.4c0,0,0,0,0,0c0,0,0,0,0,0c-0.2,0.4-0.3,1.1-0.2,2
		c0,0.1,0,0.2-0.1,0.2c-0.1,0-0.2,0-0.3,0C35.5,25.7,35,25.2,34.3,25.1C34.3,25,34.3,25,34.3,25.1"/>
	<path class="st3" d="M32.7,22.9C32.7,22.9,32.7,22.9,32.7,22.9c0.2,0.3,0.4,0.5,0.6,0.7c0.6,0.6,1.3,1,2,1.2c0,0,0,0,0,0
		c0,0,0,0,0,0c0.1-0.2,0.1-0.5,0.1-1c0-0.4-0.1-0.9-0.3-1.3c-0.2-0.4-0.5-0.9-0.8-1.3c0,0,0,0,0,0c0,0,0,0,0,0
		c-0.1,0.5-0.1,1.2,0.1,1.9c0,0.1,0,0.2-0.1,0.3c-0.1,0.1-0.2,0.1-0.3,0C34,23.3,33.4,23,32.7,22.9C32.7,22.9,32.7,22.9,32.7,22.9"
		/>
	<path class="st3" d="M32.4,21.2c-0.1,0.1-0.2,0.1-0.3,0.1c0,0-0.6-0.2-1.2-0.2c0,0-0.1,0-0.1,0c0,0,0,0,0,0c0,0,0,0,0,0
		c0.2,0.2,0.5,0.4,0.7,0.6c0.5,0.4,1.2,0.8,2.1,0.8c0,0,0,0,0,0c0,0,0,0,0,0c0-0.2,0.1-0.6-0.1-1.1c-0.1-0.4-0.3-0.9-0.6-1.3
		c-0.3-0.4-0.6-0.8-1-1.2c0,0,0,0,0,0c0,0,0,0,0,0c0,0.4,0.1,1.1,0.5,1.9C32.5,21,32.5,21.1,32.4,21.2"/>
	<path class="st3" d="M10.8,56.4c0,0,0.1,0,0.1,0c0,0,0,0,0,0c0.1-1.2-0.7-2.3-1.2-2.9c0,0,0,0,0,0s0,0,0,0
		c-0.1,0.6,0.1,1.2,0.1,1.3c0,0.1,0,0.2-0.1,0.3c-0.1,0.1-0.2,0.1-0.3,0c-0.7-0.5-1.4-0.6-1.9-0.6c0,0,0,0,0,0c0,0,0,0,0,0
		c0.3,0.5,0.7,0.8,1.1,1.1c0.4,0.3,0.8,0.5,1.2,0.7C10.2,56.4,10.5,56.4,10.8,56.4"/>
	<path class="st3" d="M9.1,54.2L9.1,54.2C9.1,54.2,9.2,54.2,9.1,54.2c0.2-0.9-0.1-1.7-0.4-2.3c-0.1-0.2-0.3-0.5-0.4-0.7c0,0,0,0,0,0
		c0,0,0,0,0,0c-0.1,0.6-0.1,1.2-0.1,1.3c0,0.1,0,0.2-0.1,0.2c-0.1,0-0.2,0-0.3,0c-0.7-0.5-1.4-0.8-1.8-0.8c0,0,0,0,0,0c0,0,0,0,0,0
		c0.3,0.5,0.6,0.9,1,1.2c0.4,0.3,0.7,0.6,1.1,0.8C8.6,54.1,8.9,54.2,9.1,54.2"/>
	<path class="st3" d="M7.6,51.8C7.6,51.8,7.6,51.8,7.6,51.8C7.6,51.8,7.6,51.8,7.6,51.8c0.2-0.7,0.2-1.5-0.1-2.3
		c-0.1-0.3-0.2-0.5-0.4-0.8c0,0,0,0,0,0s0,0,0,0C6.9,49.4,6.9,50,6.9,50c0,0.1-0.1,0.2-0.2,0.2c-0.1,0-0.2,0-0.3-0.1
		C6,49.7,5.4,49.4,5,49.3c-0.1,0-0.2-0.1-0.2-0.1c0,0,0,0,0,0s0,0,0,0c0.2,0.5,0.5,1,0.8,1.3c0.3,0.4,0.7,0.7,1,0.9
		C7.1,51.7,7.5,51.8,7.6,51.8"/>
	<path class="st3" d="M6.4,49.3C6.4,49.3,6.4,49.3,6.4,49.3C6.4,49.3,6.4,49.3,6.4,49.3C7,48,6.6,46.8,6.3,46.2c0,0,0,0,0,0
		c0,0,0,0,0,0c-0.3,0.6-0.4,1.3-0.4,1.3c0,0.1-0.1,0.2-0.2,0.2s-0.2,0-0.3-0.1c-0.5-0.6-1-0.9-1.3-1.1c-0.1,0-0.2-0.1-0.2-0.1
		c0,0,0,0,0,0c0,0,0,0,0,0C4.5,48.6,5.9,49.2,6.4,49.3"/>
	<path class="st3" d="M4.6,46.1c0.4,0.3,0.8,0.5,0.9,0.6c0,0,0,0,0,0c0,0,0,0,0,0c0.4-0.8,0.6-1.6,0.4-2.4c-0.1-0.3-0.1-0.5-0.3-0.8
		c0,0,0,0,0,0s0,0,0,0c-0.3,0.6-0.5,1.2-0.5,1.3l0,0l0,0c0,0.1-0.1,0.2-0.2,0.2c-0.1,0-0.2,0-0.2-0.1c-0.5-0.7-1.1-1.1-1.5-1.3
		c0,0,0,0,0,0c0,0,0,0,0,0c0.1,0.6,0.3,1,0.5,1.5C4,45.4,4.2,45.8,4.6,46.1"/>
	<path class="st3" d="M4.7,44C4.7,44,4.7,44,4.7,44C4.7,44,4.8,44,4.7,44c0.9-1.2,0.8-2.5,0.7-3.1c0,0,0,0,0,0c0,0,0,0,0,0
		C5,41.4,4.7,42,4.7,42c0,0.1-0.1,0.1-0.2,0.2h0c-0.1,0-0.2-0.1-0.2-0.1c-0.3-0.7-0.7-1.1-1-1.4c-0.1-0.1-0.1-0.1-0.2-0.2
		c0,0,0,0,0,0c0,0,0,0,0,0C3.1,42.8,4.3,43.7,4.7,44"/>
	<path class="st3" d="M4.5,41.2C4.5,41.2,4.5,41.2,4.5,41.2C4.5,41.2,4.5,41.2,4.5,41.2c0.5-0.4,0.8-1,0.9-1.7
		c0.1-0.6,0.1-1.1,0-1.4c0,0,0,0,0,0s0,0,0,0c-0.5,0.5-0.6,1.1-0.6,1.1c0,0.1-0.1,0.2-0.2,0.2c-0.1,0-0.2-0.1-0.2-0.2
		C4,38.5,3.6,38,3.4,37.7c-0.1-0.1-0.1-0.1-0.2-0.2c0,0,0,0,0,0c0,0,0,0,0,0C3,39.9,4,40.9,4.5,41.2"/>
	<path class="st3" d="M3.8,37.4c0.3,0.5,0.6,0.7,0.7,0.8c0,0,0,0,0,0s0,0,0,0c0.5-0.5,0.9-1.2,1-2.1c0-0.3,0.1-0.6,0.1-0.9
		c0,0,0,0,0,0s0,0,0,0c-0.5,0.4-0.8,1-0.8,1c0,0.1-0.1,0.1-0.2,0.1c-0.1,0-0.2-0.1-0.2-0.2c-0.2-0.8-0.6-1.4-0.9-1.7c0,0,0,0,0,0
		c0,0,0,0,0,0c-0.1,0.6-0.1,1.1,0,1.6C3.5,36.6,3.6,37,3.8,37.4"/>
	<path class="st3" d="M4.1,34.6c0.2,0.4,0.5,0.7,0.6,0.8c0,0,0,0,0,0c0,0,0,0,0,0c0.6-0.5,1-1.2,1.2-2.1c0.1-0.2,0.1-0.5,0.1-0.8
		c0,0,0,0,0,0c0,0,0,0,0,0c-0.5,0.4-0.9,0.9-0.9,1c-0.1,0.1-0.2,0.1-0.2,0.1c-0.1,0-0.2-0.1-0.2-0.2c-0.2-0.8-0.6-1.4-0.9-1.8
		c0,0,0,0,0,0c0,0,0,0,0,0c-0.1,0.6-0.1,1.1-0.1,1.6C3.8,33.7,3.9,34.2,4.1,34.6"/>
	<path class="st3" d="M5.1,32.6C5.1,32.6,5.1,32.6,5.1,32.6C5.1,32.6,5.1,32.6,5.1,32.6c0.8-0.5,1.3-1.1,1.5-1.9
		c0.1-0.2,0.1-0.5,0.2-0.8c0,0,0,0,0,0c0,0,0,0,0,0c-0.6,0.3-1,0.9-1,0.9c-0.1,0.1-0.2,0.1-0.3,0.1c-0.1,0-0.2-0.1-0.2-0.2
		c-0.1-0.9-0.4-1.5-0.6-1.9c0,0,0,0,0,0c0,0,0,0,0,0c-0.2,0.5-0.3,1.1-0.3,1.5c0,0.5,0.1,0.9,0.2,1.4C4.8,32.2,5,32.5,5.1,32.6"/>
	<path class="st3" d="M5.8,29.9C5.8,29.9,5.8,29.9,5.8,29.9C5.9,29.9,5.9,29.9,5.8,29.9c0.8-0.4,1.4-1,1.8-1.7
		c0.1-0.2,0.2-0.5,0.3-0.7c0,0,0,0,0,0c0,0,0,0,0,0c-0.6,0.3-1.1,0.7-1.1,0.7c-0.1,0.1-0.2,0.1-0.3,0c-0.1,0-0.1-0.1-0.1-0.2
		c0-0.9-0.2-1.5-0.4-1.9c0,0,0,0,0,0l0,0c0,0,0,0,0,0c-0.2,0.5-0.4,1-0.5,1.5c-0.1,0.5-0.1,0.9,0,1.4C5.5,29.4,5.7,29.8,5.8,29.9"/>
	<path class="st3" d="M6.9,27.3C6.9,27.3,6.9,27.3,6.9,27.3C6.9,27.3,6.9,27.3,6.9,27.3c0.7-0.2,1.4-0.7,1.9-1.4
		c0.2-0.3,0.4-0.6,0.5-0.8c0,0,0,0,0,0c0,0,0,0,0,0C8.5,25.2,8,25.7,8,25.7c-0.1,0.1-0.2,0.1-0.3,0c-0.1-0.1-0.1-0.2-0.1-0.3
		c0.2-0.9,0-1.5-0.1-2c0,0,0,0,0,0c0,0,0,0,0,0c-0.3,0.5-0.5,1-0.7,1.4c-0.1,0.5-0.2,0.9-0.2,1.4C6.6,26.8,6.8,27.2,6.9,27.3"/>
	<path class="st3" d="M8.3,24.8C8.3,24.8,8.3,24.8,8.3,24.8c1.2-0.2,2.1-1.3,2.5-1.9c0,0,0,0,0,0c0,0,0,0,0,0
		c-0.7,0.1-1.2,0.4-1.2,0.4c-0.1,0.1-0.2,0.1-0.3,0c-0.1-0.1-0.1-0.2-0.1-0.3c0.3-0.8,0.2-1.5,0.1-2c0,0,0,0,0,0c0,0,0,0,0,0
		C7.9,22.9,8.1,24.3,8.3,24.8C8.3,24.8,8.3,24.8,8.3,24.8"/>
	<path class="st3" d="M10,22.5C10,22.5,10,22.5,10,22.5c0.8,0,1.5-0.4,2-0.8c0.2-0.2,0.5-0.4,0.7-0.6c0,0,0,0,0,0c0,0,0,0,0,0
		c-0.6,0-1.2,0.2-1.2,0.2c-0.1,0-0.2,0-0.3-0.1s-0.1-0.2,0-0.3c0.4-0.8,0.5-1.5,0.5-1.9c0,0,0,0,0,0c0,0,0,0,0,0
		c-0.4,0.4-0.8,0.8-1.1,1.2c-0.3,0.4-0.5,0.8-0.6,1.3C9.9,21.9,9.9,22.3,10,22.5C9.9,22.5,9.9,22.5,10,22.5"/>
	<path class="st5" d="M17.1,33c0.1,0.2,0.4,0.2,0.7,0.2H21c-1.9-1.2-2.6-1-3.9-0.4C17.1,32.9,17.1,32.9,17.1,33"/>
	<path class="st5" d="M24.9,31.5c-0.3-0.1-0.6-0.2-0.8-0.3c-1-0.4-1.8-1-1.9-1.1C22,30,22,29.7,22.1,29.5c0.2-0.2,0.5-0.2,0.7-0.1
		c0,0,0.7,0.6,1.6,0.9c0.2,0.1,0.5,0.1,0.7,0.2c0.4,0.1,0.9,0.2,1.3,0.4c-0.1-0.5-0.2-1-0.3-1.4c-1.3-0.3-2.3-1.1-2.4-1.2
		c-0.1-0.1-0.2-0.2-0.2-0.3c0-0.1,0-0.2,0.1-0.3c0.2-0.2,0.5-0.2,0.7-0.1c0,0,0.7,0.6,1.5,0.9c-0.3-1.3-0.8-2.4-1.4-3.6
		c-0.4-0.8-1.1-1.4-1.9-1.7c-0.6-0.2-1.1-0.2-1.1-0.2c0,0,0,0,0,0c0,0-1.5,0-2.5,1.2c0,0,0,0,0,0c-0.2,0.2-0.7,0.7-0.7,1.2
		c0,0.2,0,0.4,0.2,0.5c0.1,0,0.3,0.1,0.7-0.2c0.1-0.1,0.2-0.1,0.2-0.2c0.2-0.1,0.5-0.1,0.6,0.1c0.2,0.2,0.1,0.5-0.1,0.6
		c-0.1,0.1-0.1,0.1-0.2,0.1c-0.2,0.2-0.6,0.5-1,1.1c-0.6,0.8-1.3,2.1-1.7,4.1c0,0,0,0.1,0,0.1c1.3-0.6,2.4-0.8,4.7,0.7
		c0.9,0.6,2,0.6,2.2,0.6h1c0,0,0,0,0,0c0.3,0,1,0,1.4-0.4c0.1-0.1,0.1-0.1,0.1-0.2C26.5,32,26,31.8,24.9,31.5"/>
	<path class="st6" d="M20.3,49.7c0.1-0.1,0.3-0.3,0.3-0.4c0-0.1,0-0.1-0.1-0.2C20.4,49,20.3,49,20.1,49c-0.2,0-0.5,0.2-0.9,0.5
		c-0.3,0.2-0.7,0.5-0.7,0.9c0,0.1,0.1,0.2,0.1,0.2c0.2,0.1,0.6,0.1,0.8,0.1C19.6,50.3,19.9,50,20.3,49.7"/>
	<path class="st6" d="M21.9,50.3c0,0,0-0.1-0.1-0.2c0,0-0.2-0.2-0.7,0.1c-0.4,0.2-0.7,0.5-0.9,0.8c0.1,0.1,0.2,0.1,0.2,0.1
		c0.4,0.1,0.9-0.3,1.1-0.4c0,0,0,0,0,0C21.7,50.6,21.9,50.4,21.9,50.3"/>
	<path class="st6" d="M17,48C17,48,16.9,48,17,48c-0.4,0-0.9,0.2-1.1,0.5c-0.2,0.2-0.1,0.3-0.1,0.4c0,0.1,0.2,0.1,0.4,0.2
		c0.1,0,0.1,0,0.2,0c0.1-0.4,0.4-0.7,0.6-0.9c0.1-0.1,0.1-0.1,0.2-0.2C17.1,48,17.1,48,17,48C17,48,17,48,17,48"/>
	<path class="st6" d="M17.2,49.5c0,0.1,0,0.3,0.4,0.4c0.1,0,0.1,0,0.2,0c0.1-0.4,0.4-0.8,1-1.2c0.1,0,0.1-0.1,0.2-0.2
		c0,0,0-0.1,0-0.1c0-0.1-0.1-0.1-0.2-0.2c-0.1,0-0.2-0.1-0.3-0.1c-0.3,0-0.6,0.2-0.9,0.5C17.3,49.1,17.1,49.3,17.2,49.5"/>
	<path class="st6" d="M27.1,48.7c0.2,0,0.4-0.1,0.5-0.2c0.1-0.1,0.2-0.3,0.2-0.4c-0.2-0.3-1-1.2-2.1-1.9c-0.4-0.3-0.9-0.6-1.4-0.8
		c-0.5-0.2-1-0.3-1.4-0.1c0,0,0,0,0,0c-0.1,0-0.3,0.1-0.5,0.3c-0.1,0.1-0.3,0.2-0.5,0.3c-0.5,0.3-1.1,0.5-1.7,0.5
		c-0.5,0-1.1,0.1-1.4-0.5c-0.2-0.3-0.3-0.6-0.2-1c0.1-0.3,0.5-0.5,1-0.7c0.2-0.1,0.4-0.2,0.6-0.3c0.2-0.1,0.4-0.3,0.5-0.4
		c0.2-0.1,0.4-0.3,0.7-0.5c0.1-0.1,0.3-0.2,0.4-0.2c-0.2,0-0.3,0-0.5-0.1c-0.8-0.1-1.3,0.2-2.1,0.8c-0.7,0.5-2,0.9-4.2,1.3
		c-2,0.4-4.8,0.8-8.2,1.2c0.1,0.4,0.2,0.8,0.3,1.1c0.4,1.4,1,2.7,1.6,3.8c1.2-0.5,4.2-1.9,6.5-3.1c0.5-0.4,1.2-0.7,1.7-0.6
		c0.1,0,0.6,0.1,0.9,0.3c0.4-0.1,0.8-0.1,1.1,0.1c0.4,0.2,0.5,0.4,0.6,0.6l0,0c0.5-0.1,0.9-0.1,1.3,0.3c0.2,0.2,0.4,0.4,0.4,0.7
		c0.5-0.1,0.8,0.1,1,0.3c0.3,0.3,0.4,0.7,0.4,0.9c0,0.2-0.1,0.3-0.2,0.5c0.2,0,0.5,0,0.7-0.1c0.1,0,0.1-0.1,0.2-0.1
		c-0.1-0.2-0.3-0.5-0.6-0.8c-0.1-0.1-0.1-0.2-0.1-0.3c0-0.1,0.1-0.2,0.1-0.3c0.2-0.1,0.4-0.1,0.6,0c0.4,0.5,0.6,0.9,0.7,1.1
		c0.2,0,0.4,0,0.5-0.2c0.1-0.1,0.1-0.2,0.2-0.3c0-0.1-0.2-0.3-0.4-0.6c-0.2-0.3-0.7-0.7-0.9-0.8c-0.1-0.1-0.1-0.2-0.2-0.3
		c0-0.1,0-0.2,0.1-0.3s0.2-0.1,0.3-0.2c0.1,0,0.2,0,0.3,0.1c0,0,0.7,0.5,1.1,0.9c0.3,0.3,0.4,0.6,0.5,0.8c0.3,0,0.5-0.1,0.7-0.3
		c0-0.1,0.1-0.1,0.1-0.2c-0.3-0.4-1.1-1.4-2-1.8c-0.1,0-0.2-0.1-0.2-0.2s0-0.2,0-0.3c0-0.1,0.1-0.2,0.2-0.2c0.1,0,0.2,0,0.3,0
		C25.9,47.2,26.8,48.3,27.1,48.7"/>
	<path class="st6" d="M21.9,44.9c0.3-0.2,0.5-0.3,0.8-0.4c1.4-0.4,2.8,0.5,3.5,1c1,0.7,1.8,1.5,2.2,1.9c0,0,0,0,0.1,0.1l0,0
		c0,0,0,0,0,0c0.1,0.1,0.4,0.4,0.7,0.6c1.7,1.3,4.3,2.4,5.4,2.9c0.7-1.2,1.2-2.6,1.7-4c0.1-0.3,0.2-0.7,0.3-1c-2.2-0.1-4.5-0.6-6-1
		c-1.8-0.4-3.1-0.8-3.2-0.9c-0.4-0.1-0.7-0.2-1-0.3c-1-0.4-1.6-0.6-2.4-0.6c-0.1,0-0.2,0-0.3,0c-0.1,0-0.2,0-0.3,0h0
		c-0.7,0-1.1,0-1.5,0.3c-0.3,0.2-0.5,0.4-0.6,0.5c-0.2,0.1-0.3,0.3-0.6,0.5c-0.2,0.1-0.4,0.2-0.6,0.3c-0.2,0.1-0.5,0.2-0.6,0.3
		c0,0,0,0.1,0.1,0.2c0.1,0.1,0.3,0.1,0.7,0.1c0.3,0,0.9-0.1,1.3-0.4C21.7,45.1,21.8,45,21.9,44.9"/>
</g>
</svg>
