<?xml version="1.0" encoding="utf-8"?>
<!-- Generator: Adobe Illustrator 23.0.1, SVG Export Plug-In . SVG Version: 6.00 Build 0)  -->
<svg version="1.1" id="Layer_1" xmlns="http://www.w3.org/2000/svg" xmlns:xlink="http://www.w3.org/1999/xlink" x="0px" y="0px"
	 viewBox="0 0 356 70" style="enable-background:new 0 0 356 70;" xml:space="preserve">
<style type="text/css">
	.st0{fill:#FFC60B;}
	.st1{fill:#231F20;}
	.st2{fill:#59AA47;}
	.st3{fill:#05B4E9;}
	.st4{fill:#FFFFFF;}
	.st5{fill:#EF4123;}
	.st6{fill:#FCBC80;}
</style>
<g>
	<path d="M78.615,49.599l-2.731-8.368H64.531l-2.729,8.368h-5.147l9.782-29.073h7.581l9.782,29.073H78.615z M65.886,37.028h8.623
		l-4.322-13.202L65.886,37.028z"/>
	<path d="M85.94,28.169h4.242l0.393,2.789h0.276c0.629-1.009,1.457-1.768,2.485-2.278c1.028-0.511,2.157-0.767,3.388-0.767
		c0.562,0,1.134,0.047,1.71,0.139v4.675c-0.512-0.092-1.179-0.139-2.004-0.139c-1.023,0-2.028,0.211-3.016,0.629
		c-0.988,0.42-1.764,1.016-2.327,1.788v14.596H85.94C85.94,49.601,85.94,28.169,85.94,28.169z"/>
	<path d="M104.218,58.409c-1.198-0.149-2.322-0.376-3.369-0.677v-4.086c2.291,0.654,4.459,0.983,6.501,0.983
		c1.467,0,2.658-0.187,3.575-0.56s1.594-0.972,2.033-1.797c0.438-0.825,0.658-1.913,0.658-3.261v-1.689h-0.255
		c-0.668,0.772-1.483,1.375-2.446,1.808c-0.962,0.433-2.045,0.649-3.25,0.649c-1.532,0-2.92-0.37-4.164-1.111
		c-1.244-0.74-2.239-1.891-2.986-3.457c-0.746-1.564-1.12-3.526-1.12-5.883c0-3.771,0.983-6.626,2.946-8.565
		c1.965-1.937,4.885-2.914,8.761-2.926c1.283,0,2.612,0.099,3.987,0.294c1.375,0.197,2.6,0.472,3.674,0.826v19.132
		c0,2.476-0.403,4.489-1.209,6.041s-2.02,2.691-3.643,3.417c-1.625,0.728-3.688,1.092-6.188,1.092
		C106.586,58.634,105.417,58.558,104.218,58.409z M111.781,45.119c0.728-0.288,1.338-0.72,1.836-1.296V32.135
		c-0.995-0.223-1.978-0.334-2.946-0.334c-2.03,0-3.552,0.562-4.567,1.689c-1.016,1.127-1.523,2.921-1.523,5.382
		c0,2.449,0.426,4.176,1.276,5.176c0.851,1.003,2.069,1.504,3.653,1.504C110.298,45.551,111.055,45.408,111.781,45.119z"/>
	<path d="M140.49,40.424H127.23c0.064,1.389,0.327,2.492,0.785,3.311c0.458,0.818,1.165,1.412,2.122,1.777
		c0.955,0.367,2.232,0.55,3.83,0.55c1.571,0,3.365-0.248,5.383-0.745v3.908c-2.057,0.511-4.086,0.767-6.089,0.767
		c-2.554,0-4.653-0.387-6.295-1.159c-1.644-0.771-2.872-1.974-3.683-3.604c-0.813-1.632-1.219-3.749-1.219-6.356
		c0-2.397,0.373-4.418,1.12-6.069c0.746-1.649,1.827-2.89,3.241-3.722c1.414-0.831,3.123-1.247,5.126-1.247
		c2.92,0,5.14,0.941,6.659,2.82c1.52,1.879,2.279,4.671,2.279,8.376V40.424L140.49,40.424z M128.35,32.607
		c-0.72,0.942-1.1,2.522-1.139,4.733h8.466c-0.039-2.213-0.403-3.791-1.09-4.733c-0.688-0.942-1.712-1.414-3.074-1.414
		C130.124,31.194,129.07,31.664,128.35,32.607z"/>
	<path d="M143.533,28.169h4.263l0.352,2.258h0.276c0.811-0.838,1.77-1.479,2.877-1.925c1.106-0.445,2.289-0.668,3.545-0.668
		c2.213,0,3.961,0.651,5.244,1.955c1.283,1.303,1.926,3.362,1.926,6.177v13.633h-5.147V36.261c0-1.428-0.302-2.446-0.903-3.054
		c-0.603-0.608-1.481-0.914-2.632-0.914c-0.864,0-1.716,0.18-2.554,0.54s-1.538,0.9-2.102,1.622V49.6h-5.147V28.169H143.533z"/>
	<path d="M178.93,45.435v4.125c-1.244,0.287-2.481,0.433-3.712,0.433c-5.081,0-7.622-2.559-7.622-7.681V32.274h-3.692V28.17h3.692
		l0.904-7.643h4.242v7.643h5.991v4.105h-5.991v9.213c0,1.047,0.135,1.879,0.403,2.494c0.269,0.615,0.678,1.057,1.228,1.326
		c0.55,0.27,1.277,0.404,2.181,0.404C177.182,45.709,177.973,45.618,178.93,45.435z"/>
	<path d="M181.415,23.778c-0.545-0.479-0.816-1.168-0.816-2.072s0.271-1.598,0.816-2.083c0.543-0.483,1.358-0.726,2.445-0.726
		s1.902,0.243,2.445,0.726c0.544,0.486,0.816,1.179,0.816,2.083c0,0.903-0.272,1.593-0.816,2.072
		c-0.544,0.479-1.358,0.717-2.445,0.717S181.958,24.257,181.415,23.778z M181.268,49.599V28.169h5.166V49.6
		C186.434,49.599,181.268,49.599,181.268,49.599z"/>
	<path d="M190.755,28.169h4.263l0.352,2.258h0.276c0.811-0.838,1.77-1.479,2.877-1.925c1.106-0.445,2.289-0.668,3.545-0.668
		c2.213,0,3.961,0.651,5.244,1.955c1.283,1.303,1.926,3.362,1.926,6.177v13.633h-5.147V36.261c0-1.428-0.302-2.446-0.903-3.054
		c-0.603-0.608-1.481-0.914-2.632-0.914c-0.864,0-1.716,0.18-2.554,0.54s-1.538,0.9-2.102,1.622V49.6h-5.147V28.169H190.755z"/>
	<path d="M225.796,28.649c1.35,0.543,2.355,1.436,3.016,2.68c0.662,1.245,0.992,2.934,0.992,5.07v13.2h-4.262l-0.354-2.221h-0.274
		c-0.643,0.852-1.47,1.497-2.485,1.934c-1.015,0.44-2.138,0.658-3.369,0.658c-1.401,0-2.613-0.248-3.634-0.746
		c-1.021-0.497-1.804-1.201-2.347-2.111s-0.815-1.981-0.815-3.213c0-1.991,0.681-3.529,2.042-4.616
		c1.362-1.087,3.516-1.747,6.463-1.983l4.007-0.373v-0.845c0-1.087-0.172-1.94-0.52-2.563c-0.347-0.622-0.892-1.063-1.632-1.327
		c-0.74-0.261-1.731-0.393-2.976-0.393c-0.877,0-1.827,0.075-2.848,0.226c-1.021,0.15-2.004,0.377-2.946,0.677v-3.947
		c0.969-0.3,2.052-0.53,3.25-0.688c1.199-0.156,2.335-0.235,3.409-0.235C222.688,27.833,224.449,28.105,225.796,28.649z
		 M222.859,45.887c0.715-0.288,1.352-0.746,1.916-1.375v-4.558l-3.515,0.314c-1.349,0.132-2.333,0.455-2.956,0.972
		c-0.623,0.518-0.934,1.24-0.934,2.17c0,0.942,0.278,1.663,0.836,2.16c0.556,0.498,1.372,0.746,2.445,0.746
		C221.411,46.319,222.146,46.174,222.859,45.887z"/>
	<path d="M234.038,49.029c-0.622-0.576-0.933-1.356-0.933-2.338c0-0.981,0.306-1.764,0.924-2.347
		c0.615-0.582,1.445-0.873,2.494-0.873c1.048,0,1.879,0.295,2.494,0.884c0.617,0.589,0.924,1.368,0.924,2.337
		c0,0.97-0.311,1.746-0.933,2.328s-1.45,0.873-2.485,0.873C235.488,49.894,234.66,49.604,234.038,49.029z"/>
	<path d="M247.238,58.409c-1.198-0.149-2.322-0.376-3.37-0.677v-4.086c2.292,0.654,4.459,0.983,6.501,0.983
		c1.468,0,2.659-0.187,3.576-0.56s1.593-0.972,2.033-1.797c0.438-0.825,0.658-1.913,0.658-3.261v-1.689h-0.256
		c-0.667,0.772-1.482,1.375-2.446,1.808c-0.962,0.433-2.044,0.649-3.249,0.649c-1.532,0-2.921-0.37-4.164-1.111
		c-1.245-0.74-2.239-1.891-2.986-3.457c-0.746-1.564-1.121-3.526-1.121-5.883c0-3.771,0.982-6.626,2.947-8.565
		c1.965-1.937,4.884-2.914,8.762-2.926c1.282,0,2.612,0.099,3.987,0.294c1.375,0.197,2.598,0.472,3.674,0.826v19.132
		c0,2.476-0.404,4.489-1.21,6.041c-0.806,1.552-2.02,2.691-3.642,3.417c-1.625,0.728-3.688,1.092-6.189,1.092
		C249.605,58.634,248.437,58.558,247.238,58.409z M254.799,45.119c0.729-0.288,1.338-0.72,1.838-1.296V32.135
		c-0.996-0.223-1.979-0.334-2.947-0.334c-2.029,0-3.551,0.562-4.566,1.689c-1.017,1.127-1.523,2.921-1.523,5.382
		c0,2.449,0.425,4.176,1.275,5.176c0.851,1.003,2.069,1.504,3.653,1.504C253.318,45.551,254.072,45.408,254.799,45.119z"/>
	<path d="M267.724,47.222c-1.761-1.845-2.641-4.608-2.641-8.289c0-3.706,0.867-6.481,2.603-8.328c1.735-1.847,4.194-2.77,7.375-2.77
		c3.184,0,5.641,0.923,7.377,2.77c1.734,1.847,2.603,4.615,2.603,8.31c0,2.462-0.404,4.518-1.21,6.168
		c-0.803,1.649-1.954,2.881-3.447,3.692c-1.493,0.813-3.268,1.219-5.323,1.219C271.932,49.992,269.484,49.069,267.724,47.222z
		 M278.646,44.412c0.806-1.074,1.21-2.895,1.21-5.461c0-2.605-0.404-4.45-1.21-5.53c-0.806-1.08-1.999-1.621-3.586-1.621
		c-1.584,0-2.778,0.538-3.583,1.611c-0.806,1.073-1.21,2.893-1.21,5.46c0,1.769,0.186,3.177,0.56,4.224
		c0.372,1.047,0.91,1.797,1.611,2.25c0.699,0.451,1.575,0.676,2.621,0.676C276.646,46.023,277.841,45.487,278.646,44.412z"/>
	<path d="M292.023,49.706c-1.33-0.188-2.557-0.467-3.683-0.834V17.855h5.147V30.29h0.256c0.653-0.772,1.466-1.375,2.434-1.808
		c0.969-0.432,2.056-0.647,3.261-0.647c1.559,0,2.959,0.37,4.203,1.11c1.245,0.741,2.232,1.905,2.968,3.497
		c0.733,1.591,1.098,3.598,1.098,6.02c0,3.824-0.976,6.702-2.927,8.633c-1.949,1.931-4.87,2.898-8.759,2.898
		C294.685,49.992,293.352,49.896,292.023,49.706z M301.021,44.334c1.001-1.127,1.502-2.946,1.502-5.462
		c0-2.487-0.427-4.239-1.277-5.253c-0.851-1.016-2.069-1.523-3.653-1.523c-0.785,0-1.54,0.145-2.269,0.432
		c-0.726,0.288-1.338,0.722-1.835,1.298v11.825c0.903,0.248,1.893,0.372,2.966,0.372C298.495,46.023,300.018,45.459,301.021,44.334z
		"/>
	<path d="M311.096,49.029c-0.622-0.576-0.933-1.356-0.933-2.338c0-0.981,0.306-1.764,0.924-2.347
		c0.615-0.582,1.445-0.873,2.494-0.873c1.048,0,1.879,0.295,2.494,0.884c0.617,0.589,0.924,1.368,0.924,2.337
		c0,0.97-0.311,1.746-0.933,2.328s-1.45,0.873-2.485,0.873C312.545,49.895,311.718,49.604,311.096,49.029z"/>
	<path d="M332.909,28.649c1.348,0.543,2.353,1.436,3.016,2.68c0.66,1.245,0.992,2.934,0.992,5.07v13.2h-4.264l-0.351-2.221h-0.277
		c-0.64,0.852-1.468,1.497-2.485,1.934c-1.015,0.44-2.137,0.658-3.368,0.658c-1.403,0-2.615-0.248-3.635-0.746
		c-1.021-0.497-1.804-1.201-2.346-2.111c-0.544-0.91-0.815-1.981-0.815-3.213c0-1.991,0.681-3.529,2.042-4.616
		c1.361-1.087,3.515-1.747,6.463-1.983l4.008-0.373v-0.845c0-1.087-0.174-1.94-0.522-2.563c-0.348-0.622-0.89-1.063-1.63-1.327
		c-0.74-0.261-1.732-0.393-2.977-0.393c-0.876,0-1.827,0.075-2.848,0.226c-1.021,0.15-2.004,0.377-2.945,0.677v-3.947
		c0.969-0.3,2.051-0.53,3.249-0.688c1.2-0.156,2.335-0.235,3.409-0.235C329.799,27.833,331.558,28.105,332.909,28.649z
		 M329.972,45.887c0.713-0.288,1.352-0.746,1.916-1.375v-4.558l-3.517,0.314c-1.348,0.132-2.332,0.455-2.954,0.972
		c-0.624,0.518-0.935,1.24-0.935,2.17c0,0.942,0.279,1.663,0.836,2.16c0.556,0.498,1.373,0.746,2.446,0.746
		C328.523,46.319,329.258,46.174,329.972,45.887z"/>
	<path d="M341.06,28.169h4.243l0.393,2.789h0.274c0.629-1.009,1.457-1.768,2.485-2.278c1.028-0.511,2.158-0.767,3.388-0.767
		c0.562,0,1.135,0.047,1.711,0.139v4.675c-0.513-0.092-1.18-0.139-2.004-0.139c-1.024,0-2.029,0.211-3.016,0.629
		c-0.989,0.42-1.765,1.016-2.328,1.788v14.596h-5.147L341.06,28.169L341.06,28.169z"/>
</g>
<g>
	<path class="st0" d="M27.002,15.983c0.537,0.006,1.073,0.124,1.598,0.352l0.077,0.012c0.285,0.05,0.856,0.141,1.482,0.179
		c0.051,0.004,0.102,0.006,0.153,0.007c-0.327-0.104-0.572-0.239-0.828-0.377c-0.16-0.088-0.321-0.175-0.509-0.261
		c-0.623-0.282-1.214-0.382-1.279-0.393c-0.082-0.012-0.143-0.083-0.143-0.165s0.061-0.153,0.143-0.165l2.893-0.433l-2.89-0.415
		c-0.069-0.01-0.126-0.062-0.14-0.131c-0.014-0.068,0.016-0.139,0.074-0.176c0.019-0.012,0.475-0.297,1.132-0.444
		c0.282-0.061,0.843-0.197,1.437-0.403c0.049-0.017,0.096-0.035,0.145-0.052c-0.343,0.029-0.622-0.001-0.911-0.032
		c-0.176-0.019-0.359-0.039-0.568-0.045c-0.679-0.023-1.266,0.112-1.331,0.127c-0.081,0.021-0.163-0.021-0.196-0.098
		c-0.031-0.076-0.002-0.165,0.069-0.207l2.507-1.504l-2.829,0.721c-0.066,0.018-0.14-0.01-0.179-0.067
		c-0.04-0.057-0.04-0.135,0.002-0.191c0.013-0.019,0.33-0.46,0.875-0.843c0.237-0.166,0.705-0.508,1.173-0.924
		c0.039-0.035,0.076-0.069,0.113-0.104c-0.305,0.158-0.573,0.238-0.852,0.32c-0.174,0.051-0.349,0.104-0.543,0.176
		c-0.666,0.252-1.176,0.625-1.181,0.629c-0.066,0.05-0.159,0.042-0.218-0.017c-0.058-0.059-0.065-0.15-0.016-0.218l1.742-2.347
		l-2.34,1.747c-0.055,0.042-0.133,0.044-0.19,0.007c-0.058-0.039-0.088-0.109-0.072-0.177c0.005-0.023,0.129-0.553,0.485-1.115
		c0.155-0.245,0.456-0.739,0.73-1.302c0.023-0.047,0.044-0.093,0.064-0.14c-0.221,0.263-0.44,0.44-0.665,0.623
		c-0.144,0.117-0.284,0.231-0.433,0.371c-0.498,0.469-0.816,0.977-0.85,1.034C24.69,9.613,24.6,9.643,24.526,9.61
		c-0.076-0.032-0.119-0.116-0.098-0.196l0.714-2.833l-1.496,2.511c-0.036,0.059-0.107,0.091-0.174,0.078
		c-0.069-0.013-0.123-0.067-0.135-0.136c-0.004-0.023-0.094-0.557,0.021-1.216c0.05-0.285,0.139-0.858,0.174-1.483
		c0.003-0.051,0.006-0.102,0.007-0.153c-0.104,0.328-0.238,0.574-0.376,0.831c-0.085,0.157-0.172,0.319-0.257,0.509
		c-0.29,0.645-0.385,1.254-0.389,1.28c-0.012,0.08-0.083,0.143-0.165,0.143s-0.153-0.061-0.165-0.143l-0.424-2.869L21.358,8.8
		c-0.01,0.069-0.062,0.126-0.132,0.141c-0.068,0.013-0.139-0.015-0.175-0.075c-0.031-0.049-0.303-0.498-0.443-1.133
		c-0.062-0.283-0.198-0.845-0.402-1.437C20.188,6.247,20.17,6.2,20.153,6.151c0.029,0.343-0.001,0.622-0.032,0.912
		c-0.02,0.178-0.039,0.36-0.046,0.568c-0.023,0.703,0.12,1.307,0.126,1.333c0.021,0.08-0.021,0.162-0.098,0.194
		c-0.076,0.033-0.165,0.003-0.207-0.068l-1.511-2.508l0.728,2.828c0.017,0.067-0.01,0.14-0.067,0.179
		c-0.058,0.04-0.135,0.039-0.192-0.002c-0.048-0.034-0.47-0.345-0.842-0.876c-0.166-0.234-0.507-0.701-0.924-1.17
		c-0.034-0.039-0.068-0.076-0.104-0.114C17.142,7.732,17.222,8,17.304,8.28c0.051,0.171,0.103,0.348,0.176,0.544
		c0.242,0.64,0.589,1.128,0.627,1.181c0.049,0.066,0.043,0.159-0.016,0.218c-0.058,0.057-0.152,0.065-0.218,0.016l-2.351-1.742
		l1.752,2.338c0.042,0.056,0.045,0.133,0.007,0.191s-0.109,0.087-0.177,0.072c-0.022-0.005-0.547-0.126-1.115-0.486
		c-0.244-0.155-0.737-0.456-1.302-0.731c-0.046-0.023-0.092-0.044-0.139-0.065c0.262,0.221,0.44,0.44,0.623,0.666
		c0.114,0.141,0.229,0.283,0.37,0.433c0.49,0.521,1.027,0.847,1.032,0.85c0.072,0.043,0.101,0.131,0.068,0.207
		c-0.032,0.076-0.115,0.119-0.195,0.098l-2.839-0.712l2.515,1.493c0.059,0.036,0.091,0.106,0.078,0.174
		c-0.012,0.069-0.067,0.123-0.137,0.135c-0.022,0.004-0.555,0.094-1.215-0.022c-0.284-0.05-0.855-0.139-1.483-0.175
		c-0.051-0.003-0.103-0.005-0.153-0.007c0.328,0.104,0.573,0.238,0.83,0.376c0.149,0.081,0.317,0.172,0.509,0.259
		c0.649,0.293,1.273,0.389,1.279,0.39c0.082,0.012,0.144,0.083,0.143,0.165c0,0.082-0.061,0.153-0.143,0.165l-2.895,0.426
		l2.896,0.422c0.069,0.01,0.125,0.062,0.14,0.132c0.014,0.068-0.016,0.139-0.074,0.175c-0.019,0.012-0.478,0.299-1.131,0.446
		c-0.283,0.063-0.846,0.2-1.436,0.407c-0.048,0.017-0.096,0.035-0.145,0.052c0.344-0.03,0.622-0.001,0.912,0.03
		c0.043,0.005,0.446,0.041,0.568,0.044c0.145,0.004,0.296,0.002,0.449-0.008l0.034-0.024c0.562-0.39,1.259-0.701,2.069-0.923
		c0.104-0.029,0.215-0.005,0.297,0.063c0.068,0.055,0.11,0.136,0.12,0.221c0.148-0.085,0.304-0.164,0.468-0.236
		c0.611-0.265,1.342-0.436,2.173-0.504c0.103-0.009,0.2,0.03,0.269,0.104c0.049,0.053,0.079,0.121,0.087,0.192
		c0.232-0.089,0.479-0.161,0.74-0.213c0.655-0.13,1.407-0.14,2.233-0.031c0.109,0.014,0.204,0.082,0.253,0.181
		c0.014,0.028,0.023,0.057,0.029,0.088c0.226-0.035,0.458-0.05,0.705-0.05c0.669,0.005,1.407,0.146,2.193,0.418
		c0.109,0.038,0.189,0.127,0.215,0.24C27,15.972,27,15.977,27.002,15.983"/>
	<path class="st1" d="M22.788,12.325c2.814-0.447,3.123,0.364,3.123,0.364s0.074,0.183,0.302,0.127c0,0,0.191-0.02,0.095-0.247
		c0,0-0.309-0.921-1.805-1.08c0,0-0.769-0.102-1.617,0.046c-0.249,0.044-0.32,0.595-0.32,0.595
		C22.534,12.378,22.788,12.325,22.788,12.325"/>
	<path class="st1" d="M20.389,12.872c-0.345-0.155-1.127-0.123-1.127-0.123c-1.273,0.043-1.606,0.832-1.606,0.832
		c-0.112,0.265,0.111,0.288,0.111,0.288c0.265,0.066,0.352-0.148,0.352-0.148s0.072-0.225,0.596-0.353
		c-0.03,0.074-0.047,0.155-0.047,0.241c0,0.36,0.292,0.651,0.651,0.651s0.654-0.294,0.654-0.653c0-0.091-0.019-0.177-0.052-0.255
		c0.18,0.069,0.355,0.195,0.466,0.421c0.046,0.093,0.143,0.133,0.385,0.133c0.26,0,0.197-0.17,0.197-0.17
		C20.811,13.068,20.389,12.872,20.389,12.872"/>
	<path class="st1" d="M22.731,13.904c0.243,0,0.34-0.04,0.385-0.133c0.111-0.226,0.286-0.351,0.466-0.421
		c-0.034,0.078-0.052,0.165-0.052,0.255c0,0.36,0.292,0.651,0.651,0.651s0.651-0.291,0.651-0.651c0-0.085-0.017-0.166-0.047-0.241
		c0.524,0.13,0.596,0.353,0.596,0.353s0.087,0.214,0.352,0.148c0,0,0.224-0.023,0.111-0.287c0,0-0.333-0.789-1.606-0.832
		c0,0-0.782-0.034-1.127,0.123c0,0-0.422,0.196-0.579,0.862C22.534,13.734,22.47,13.904,22.731,13.904"/>
	<path class="st1" d="M17.287,12.816c0.228,0.056,0.302-0.127,0.302-0.127s0.31-0.812,3.123-0.364c0,0,0.255,0.052,0.22-0.195
		c0,0-0.07-0.551-0.32-0.595c-0.846-0.148-1.617-0.046-1.617-0.046c-1.497,0.159-1.805,1.081-1.805,1.081
		C17.095,12.797,17.287,12.816,17.287,12.816"/>
	<path class="st2" d="M14.868,19.382c-0.632-0.049-1.253,0.075-1.26,0.076c-0.096,0.02-0.195-0.021-0.25-0.102
		c-0.055-0.081-0.057-0.187-0.003-0.27c0.475-0.733,0.608-1.415,0.637-1.857c0-0.007-0.003-0.013-0.009-0.017
		c-0.006-0.003-0.013-0.003-0.018,0.001c-1.879,1.352-2.012,2.776-1.982,3.325c0.001,0.009,0.008,0.016,0.017,0.016
		c0.041,0.002,0.082,0.003,0.123,0.003c1.143,0,2.211-0.711,2.755-1.145c0.006-0.004,0.008-0.011,0.006-0.018
		C14.881,19.387,14.876,19.382,14.868,19.382"/>
	<path class="st2" d="M17.274,18.226c-0.197-0.059-0.418-0.105-0.656-0.137c-0.355-0.047-0.623-0.045-0.625-0.045h-0.002
		c-0.102,0-0.194-0.063-0.23-0.158c-0.037-0.096-0.008-0.205,0.069-0.271c0.653-0.561,0.96-1.074,1.103-1.406
		c0.003-0.007,0.002-0.013-0.003-0.019c-0.005-0.005-0.012-0.007-0.018-0.005c-2.187,0.742-2.665,2.019-2.768,2.533
		c-0.002,0.009,0.004,0.018,0.012,0.02c0.222,0.063,0.512,0.116,0.868,0.116c0.407,0,0.899-0.068,1.473-0.266
		c0.262-0.09,0.524-0.202,0.779-0.331c0.006-0.003,0.01-0.01,0.009-0.017C17.286,18.234,17.281,18.228,17.274,18.226"/>
	<path class="st2" d="M19.891,17.519c-0.571-0.286-1.211-0.407-1.217-0.409c-0.104-0.02-0.183-0.103-0.198-0.207
		c-0.014-0.105,0.04-0.206,0.135-0.252c0.717-0.352,1.079-0.717,1.258-0.96c0.004-0.006,0.004-0.013,0.001-0.019
		c-0.004-0.006-0.01-0.009-0.018-0.008c-1.118,0.156-2.008,0.536-2.573,1.096c-0.291,0.288-0.441,0.567-0.515,0.75
		c-0.004,0.009,0.001,0.019,0.009,0.022c0.486,0.225,1,0.299,1.462,0.299c0.312,0,0.601-0.034,0.843-0.076
		c0.268-0.048,0.542-0.117,0.809-0.204c0.007-0.002,0.012-0.008,0.012-0.015C19.902,17.528,19.897,17.521,19.891,17.519"/>
	<path class="st2" d="M21.599,16.778c-0.098-0.037-0.162-0.132-0.158-0.237c0.003-0.105,0.072-0.196,0.172-0.227
		c0.714-0.217,1.152-0.488,1.394-0.677c0.006-0.004,0.008-0.012,0.006-0.019c-0.002-0.007-0.008-0.012-0.015-0.012
		c-1.1-0.073-2.03,0.11-2.694,0.53c-0.348,0.22-0.555,0.46-0.668,0.624c-0.005,0.008-0.004,0.018,0.004,0.023
		c0.745,0.566,1.709,0.698,2.444,0.698c0.23,0,0.437-0.013,0.608-0.029c0.007-0.001,0.013-0.006,0.015-0.012
		c0.002-0.007,0-0.013-0.005-0.018C22.211,17.01,21.604,16.781,21.599,16.778"/>
	<path class="st2" d="M24.468,16.973c-0.083-0.057-0.123-0.161-0.099-0.26c0.024-0.098,0.107-0.172,0.208-0.184
		c0.722-0.087,1.205-0.261,1.484-0.391c0.007-0.003,0.011-0.01,0.01-0.017c0-0.007-0.006-0.013-0.013-0.015
		c-1.05-0.285-1.99-0.29-2.719-0.015c-0.388,0.147-0.641,0.342-0.785,0.479c-0.006,0.007-0.007,0.017-0.002,0.024
		c0.914,1.091,2.193,1.289,2.873,1.311l0,0c0.007,0,0.012-0.004,0.015-0.009c0.003-0.006,0.003-0.013-0.002-0.019
		C25.034,17.364,24.474,16.977,24.468,16.973"/>
	<path class="st2" d="M31.604,20.549c0.009,0,0.016-0.008,0.016-0.017c0.004-0.234-0.019-0.698-0.212-1.193
		c-0.329-0.841-0.996-1.433-1.985-1.763c-0.006-0.002-0.013,0-0.018,0.005c-0.005,0.005-0.006,0.011-0.004,0.018
		c0.136,0.393,0.381,0.966,0.778,1.463c0.065,0.082,0.071,0.195,0.016,0.283c-0.056,0.088-0.162,0.131-0.263,0.107
		c-0.006-0.002-0.612-0.142-1.248-0.019c-0.007,0.002-0.012,0.007-0.014,0.014c-0.001,0.007,0.002,0.014,0.008,0.018
		c0.623,0.414,1.791,1.089,2.796,1.089C31.519,20.552,31.562,20.552,31.604,20.549"/>
	<path class="st2" d="M29.333,18.774c0.002-0.006,0-0.012-0.004-0.016c-0.545-0.577-1.243-0.844-2.076-0.794
		c-0.293,0.018-0.592,0.074-0.889,0.168c-0.006,0.002-0.011,0.007-0.012,0.013c-0.001,0.007,0.002,0.013,0.006,0.017
		c0.661,0.513,1.353,0.772,2.061,0.772c0.039,0,0.077-0.001,0.117-0.003c0.338-0.014,0.614-0.088,0.785-0.148
		C29.328,18.785,29.332,18.779,29.333,18.774"/>
	<path class="st2" d="M25.314,17.012c0,0.006,0.003,0.011,0.007,0.015c0.419,0.295,0.93,0.443,1.528,0.443
		c0.25,0,0.517-0.026,0.797-0.078c0.443-0.082,0.835-0.218,1.086-0.317c0.006-0.002,0.01-0.008,0.011-0.015
		c0-0.007-0.003-0.013-0.009-0.016c-0.401-0.222-0.81-0.37-1.216-0.44c-0.434-0.073-0.87-0.06-1.297,0.041
		c-0.397,0.093-0.708,0.245-0.9,0.353C25.318,17,25.314,17.007,25.314,17.012"/>
	<path class="st3" d="M21.247,34.104h-3.422c-0.745,0-1.156-0.31-1.37-0.57c-0.184-0.224-0.304-0.511-0.358-0.842
		c-0.006-0.026-0.01-0.051-0.011-0.077c-0.04-0.311-0.025-0.659,0.049-1.035c0.446-2.237,1.343-3.749,2.082-4.673
		c-0.081-0.026-0.16-0.06-0.237-0.104c-0.473-0.268-0.702-0.813-0.598-1.422c0.127-0.743,0.831-1.497,0.955-1.626
		c1.178-1.378,2.929-1.453,3.147-1.456c0.26-0.02,2.566-0.12,3.81,2.302c1.486,2.892,1.838,5.279,2.121,7.196l0.014,0.091
		c0.049,0.335,0.027,0.615-0.035,0.846c-0.005,0.026-0.012,0.051-0.022,0.076c-0.084,0.266-0.218,0.464-0.347,0.603
		c-0.309,0.334-0.761,0.55-1.346,0.644c-0.247,0.04-0.464,0.048-0.604,0.048c-0.067,0-0.116-0.002-0.14-0.003H23.95h-0.017h-0.022
		h-1.638v4.839H37.55c0-2.832-0.422-5.581-1.25-8.166c-0.801-2.494-1.945-4.732-3.403-6.653c-1.453-1.915-3.142-3.416-5.022-4.464
		c-1.938-1.081-3.996-1.629-6.115-1.629s-4.178,0.547-6.115,1.629c-1.879,1.047-3.569,2.549-5.021,4.464
		c-1.457,1.921-2.603,4.159-3.403,6.653c-0.83,2.586-1.25,5.333-1.25,8.166h15.276C21.247,38.94,21.247,34.104,21.247,34.104z"/>
	<path class="st4" d="M5.97,38.944c0,2.15,0.244,4.251,0.723,6.271c6.832-0.778,10.91-1.582,12.121-2.391
		c0.85-0.6,1.536-0.948,2.432-0.922v-2.958H5.97z"/>
	<path class="st4" d="M22.273,42.019c0.614,0.111,1.057,0.28,1.56,0.527c0.049-0.002,0.1-0.004,0.151-0.006
		c0.875-0.04,1.62,0.23,2.65,0.601c0.282,0.102,0.601,0.217,0.949,0.336c0.149,0.047,5.064,1.588,9.222,1.827
		c0.494-2.045,0.744-4.177,0.744-6.359H22.273V42.019z"/>
	<path class="st4" d="M28.497,48.694c-0.063,0.134-0.152,0.271-0.281,0.395c-0.256,0.248-0.601,0.382-1.026,0.399
		c-0.054,0.121-0.136,0.264-0.254,0.401c-0.232,0.265-0.645,0.554-1.337,0.522c-0.062,0.111-0.151,0.241-0.27,0.362
		c-0.343,0.347-0.797,0.483-1.299,0.395c-0.118,0.095-0.295,0.214-0.528,0.306c-0.288,0.114-0.707,0.202-1.226,0.099v4.052
		c0,0.283-0.231,0.514-0.514,0.514c-0.284,0-0.514-0.231-0.514-0.514v-3.88c-0.202,0.074-0.429,0.128-0.66,0.128
		c-0.089,0-0.18-0.008-0.269-0.026c-0.286-0.057-0.533-0.209-0.725-0.444c-0.343,0.055-0.941,0.093-1.366-0.197
		c-0.175-0.119-0.305-0.282-0.382-0.479c-0.137-0.015-0.307-0.046-0.483-0.101c-0.448-0.143-0.757-0.405-0.897-0.753
		c-0.104-0.004-0.227-0.013-0.352-0.033c-0.369-0.057-0.85-0.216-1.039-0.647c-0.041-0.093-0.066-0.187-0.078-0.283
		c-2.177,1.12-4.663,2.239-5.779,2.733c0.431,0.743,0.9,1.451,1.408,2.12c1.452,1.915,3.142,3.416,5.021,4.464
		c0.878,0.489,1.78,0.867,2.701,1.138c0.093-0.174,0.227-0.322,0.4-0.436c0.876-0.572,2.542-0.155,3.014-0.021
		c0.471-0.135,2.137-0.551,3.014,0.021c0.173,0.114,0.308,0.261,0.4,0.436c0.922-0.269,1.825-0.648,2.702-1.138
		c1.88-1.048,3.57-2.55,5.022-4.464c0.478-0.63,0.922-1.294,1.332-1.989C32.991,51.263,30.256,50.056,28.497,48.694"/>
	<path class="st3" d="M23.162,62.562c0.028-0.112,0.044-0.23,0.044-0.35c0-0.111-0.013-0.218-0.037-0.322
		c0.515-0.103,1.348-0.35,1.812-0.915c0.27-0.33,0.382-0.718,0.334-1.151c-0.043-0.382-0.23-0.691-0.541-0.894
		c-0.876-0.572-2.542-0.155-3.014-0.021c-0.471-0.135-2.137-0.551-3.014,0.021c-0.311,0.203-0.497,0.512-0.541,0.894
		c-0.049,0.434,0.063,0.822,0.334,1.151c0.466,0.569,1.309,0.816,1.823,0.918c-0.024,0.103-0.036,0.209-0.036,0.319
		c0,0.118,0.014,0.232,0.041,0.342c-0.371,0.367-1.58,1.428-3.326,1.622c0.05,0.09,0.205,0.339,0.509,0.61
		c1.551-0.291,2.649-1.143,3.15-1.607c0.049,0.055,0.104,0.106,0.161,0.152c-0.11,0.427-0.573,1.526-2.463,2.002
		c0.313,0.142,0.689,0.259,1.138,0.325c1.314-0.596,1.782-1.505,1.947-2.033c0.092,0.019,0.186,0.028,0.283,0.028
		c0.093,0,0.184-0.009,0.272-0.026c0.166,0.529,0.636,1.435,1.947,2.03c0.448-0.064,0.825-0.182,1.138-0.325
		c-1.881-0.474-2.348-1.558-2.461-1.994c0.059-0.047,0.115-0.098,0.165-0.154c0.504,0.464,1.599,1.312,3.144,1.602
		c0.304-0.271,0.458-0.521,0.508-0.61C24.747,63.98,23.545,62.938,23.162,62.562"/>
	<path class="st4" d="M24.403,59.498c0.141,0.092,0.216,0.22,0.237,0.4c0.028,0.248-0.032,0.459-0.183,0.644
		c-0.201,0.247-0.541,0.418-0.878,0.536c0.165-0.344,0.189-0.689,0.068-1.016c-0.121-0.324-0.32-0.555-0.544-0.722
		C23.618,59.29,24.122,59.313,24.403,59.498"/>
	<path class="st4" d="M20.512,60.298c0.253-0.684,1.21-0.694,1.248-0.694c0.003,0,0.259-0.002,0.546,0.091
		c0.36,0.115,0.596,0.318,0.702,0.603c0.115,0.31-0.103,0.631-0.29,0.834c-0.254-0.225-0.588-0.361-0.953-0.361
		c-0.368,0-0.706,0.14-0.96,0.368C20.617,60.937,20.394,60.612,20.512,60.298"/>
	<path class="st4" d="M19.943,61.078c-0.337-0.116-0.676-0.289-0.878-0.536c-0.151-0.185-0.212-0.396-0.184-0.644
		c0.021-0.181,0.095-0.309,0.237-0.4c0.2-0.131,0.512-0.181,0.86-0.181c0.143,0,0.291,0.008,0.441,0.023
		c-0.225,0.166-0.424,0.397-0.544,0.722C19.735,60.438,19.802,60.787,19.943,61.078"/>
	<path class="st4" d="M21.005,62.209c0-0.419,0.342-0.76,0.76-0.76c0.42,0,0.76,0.342,0.76,0.76c0,0.42-0.342,0.76-0.76,0.76
		C21.347,62.971,21.005,62.63,21.005,62.209"/>
	<path class="st4" d="M25.971,64.783c-1.544-0.29-2.64-1.137-3.144-1.601c-0.05,0.055-0.106,0.107-0.165,0.154
		c0.114,0.436,0.58,1.52,2.461,1.994C25.486,65.165,25.763,64.968,25.971,64.783"/>
	<path class="st4" d="M20.698,63.176c-0.501,0.463-1.6,1.316-3.15,1.607c0.208,0.186,0.486,0.383,0.848,0.546
		c1.89-0.476,2.353-1.575,2.463-2.002C20.802,63.282,20.749,63.231,20.698,63.176"/>
	<path class="st1" d="M40.875,43.013c0.014-0.11-0.029-0.219-0.113-0.291c-0.064-0.054-0.148-0.081-0.229-0.077
		c0.066-0.138,0.126-0.281,0.181-0.429c0.239-0.649,0.363-1.397,0.371-2.223c0.002-0.111-0.053-0.214-0.145-0.275
		c-0.067-0.046-0.148-0.063-0.225-0.053c0.049-0.137,0.092-0.278,0.13-0.421c0.173-0.669,0.223-1.427,0.15-2.249
		c-0.01-0.11-0.074-0.207-0.171-0.259c-0.072-0.04-0.154-0.049-0.233-0.03c0.043-0.161,0.077-0.328,0.104-0.496
		c0.107-0.683,0.083-1.441-0.07-2.253c-0.021-0.109-0.094-0.199-0.196-0.242c-0.055-0.023-0.116-0.03-0.174-0.021
		c0.021-0.116,0.038-0.233,0.05-0.348c0.074-0.687,0.015-1.443-0.177-2.247c-0.026-0.108-0.103-0.195-0.207-0.233
		s-0.219-0.021-0.307,0.045c0,0.001,0,0.001,0,0.001c0.014-0.178,0.019-0.361,0.013-0.544c-0.021-0.691-0.184-1.432-0.484-2.202
		c-0.041-0.103-0.129-0.178-0.237-0.201c-0.089-0.019-0.18,0-0.252,0.049c-0.005-0.166-0.019-0.335-0.042-0.503
		c-0.092-0.685-0.331-1.405-0.71-2.14c-0.05-0.099-0.147-0.164-0.256-0.175c-0.089-0.01-0.178,0.018-0.246,0.074
		c-0.024-0.153-0.056-0.309-0.096-0.464c-0.172-0.669-0.494-1.358-0.957-2.046c-0.061-0.091-0.167-0.145-0.275-0.145
		c-0.107,0.001-0.207,0.053-0.267,0.142c-0.055-0.18-0.122-0.36-0.2-0.539c-0.279-0.634-0.708-1.262-1.276-1.867
		c-0.078-0.083-0.196-0.121-0.308-0.096c-0.08,0.018-0.15,0.064-0.198,0.13c-0.086-0.179-0.185-0.356-0.296-0.528
		c-0.372-0.579-0.885-1.127-1.527-1.625c-0.088-0.068-0.202-0.087-0.307-0.051c-0.084,0.029-0.151,0.089-0.189,0.167
		c-0.426-0.57-1.03-0.996-1.795-1.271c0.134,0.013,0.27,0.025,0.412,0.033c0.907,0.055,1.547-0.137,1.573-0.145
		c0.192-0.058,0.316-0.248,0.291-0.447c-0.025-0.199-0.19-0.352-0.392-0.363c-0.991-0.048-1.363-0.25-1.834-0.508
		c-0.09-0.05-0.183-0.1-0.281-0.15l2.325-0.347c0.203-0.03,0.354-0.205,0.353-0.411s-0.152-0.38-0.355-0.409l-2.307-0.331
		c0.267-0.071,0.578-0.163,0.898-0.274c0.859-0.297,1.376-0.719,1.398-0.737c0.155-0.128,0.196-0.349,0.097-0.525
		c-0.1-0.175-0.311-0.253-0.501-0.185c-0.933,0.336-1.355,0.291-1.889,0.235c-0.101-0.011-0.204-0.022-0.313-0.031l2.011-1.206
		c0.177-0.106,0.248-0.326,0.169-0.515c-0.079-0.19-0.285-0.293-0.485-0.243l-2.265,0.577c0.22-0.169,0.475-0.374,0.73-0.601
		c0.68-0.604,0.995-1.192,1.009-1.217c0.094-0.178,0.047-0.398-0.112-0.522c-0.159-0.124-0.384-0.115-0.534,0.021
		c-0.734,0.668-1.14,0.788-1.655,0.941c-0.096,0.028-0.194,0.057-0.296,0.09l1.394-1.879c0.123-0.165,0.106-0.396-0.041-0.541
		c-0.146-0.146-0.376-0.162-0.541-0.039L26.69,8.751c0.14-0.243,0.298-0.531,0.447-0.841c0.396-0.819,0.462-1.482,0.465-1.511
		c0.019-0.201-0.109-0.386-0.304-0.44c-0.195-0.052-0.399,0.042-0.484,0.224c-0.421,0.898-0.75,1.165-1.167,1.504
		c-0.076,0.062-0.155,0.126-0.236,0.194l0.57-2.264c0.05-0.199-0.053-0.406-0.244-0.484c-0.19-0.078-0.409-0.006-0.515,0.171
		l-1.205,2.022c0.037-0.278,0.072-0.609,0.092-0.955c0.052-0.908-0.142-1.546-0.15-1.573c-0.059-0.192-0.248-0.315-0.448-0.289
		S23.159,4.7,23.15,4.902c-0.045,0.991-0.247,1.364-0.503,1.836c-0.046,0.085-0.093,0.172-0.141,0.265l-0.337-2.306
		c-0.03-0.204-0.204-0.355-0.41-0.355h-0.001c-0.207,0.001-0.381,0.152-0.41,0.357L21.02,6.991
		c-0.071-0.264-0.161-0.571-0.269-0.887c-0.297-0.859-0.719-1.376-0.736-1.398c-0.129-0.155-0.349-0.196-0.525-0.097
		c-0.175,0.1-0.253,0.311-0.185,0.501c0.336,0.934,0.29,1.355,0.233,1.89c-0.011,0.103-0.022,0.208-0.031,0.32L18.29,5.301
		c-0.106-0.176-0.326-0.248-0.515-0.168c-0.19,0.079-0.293,0.286-0.242,0.486l0.579,2.253c-0.168-0.22-0.37-0.47-0.593-0.722
		c-0.604-0.68-1.191-0.996-1.216-1.009c-0.178-0.094-0.398-0.048-0.523,0.112c-0.124,0.158-0.115,0.384,0.021,0.534
		c0.668,0.734,0.788,1.14,0.94,1.655c0.029,0.098,0.058,0.198,0.092,0.303l-1.891-1.399c-0.165-0.123-0.396-0.105-0.541,0.041
		c-0.146,0.147-0.161,0.376-0.038,0.541l1.401,1.869c-0.24-0.139-0.525-0.294-0.83-0.442c-0.818-0.396-1.482-0.463-1.51-0.465
		c-0.201-0.019-0.386,0.109-0.44,0.303c-0.053,0.195,0.041,0.399,0.224,0.485c0.898,0.422,1.165,0.751,1.503,1.169
		c0.063,0.078,0.128,0.157,0.198,0.24l-2.277-0.57c-0.2-0.05-0.406,0.054-0.484,0.245c-0.078,0.19-0.005,0.409,0.171,0.514
		l2.019,1.198c-0.276-0.037-0.603-0.071-0.944-0.091c-0.908-0.052-1.546,0.141-1.573,0.148c-0.193,0.059-0.315,0.248-0.289,0.448
		s0.191,0.352,0.392,0.362c0.991,0.045,1.364,0.248,1.835,0.504c0.087,0.047,0.174,0.095,0.269,0.144l-2.316,0.341
		c-0.204,0.03-0.354,0.204-0.354,0.411c0,0.206,0.151,0.38,0.354,0.41l2.333,0.34c-0.27,0.072-0.589,0.166-0.915,0.28
		c-0.858,0.299-1.375,0.722-1.396,0.741c-0.155,0.128-0.196,0.349-0.095,0.525c0.101,0.175,0.312,0.252,0.502,0.184
		c0.542-0.196,0.91-0.263,1.23-0.274c-0.5,0.437-0.858,0.785-1.037,1.01c-0.093,0.117-0.18,0.239-0.261,0.362
		c-0.04-0.064-0.1-0.114-0.173-0.139c-0.105-0.036-0.22-0.017-0.307,0.05c-0.657,0.509-1.181,1.062-1.557,1.644
		c-0.11,0.169-0.208,0.345-0.293,0.521c-0.049-0.075-0.128-0.128-0.219-0.144c-0.109-0.019-0.219,0.019-0.295,0.099
		c-0.568,0.605-0.997,1.234-1.275,1.867c-0.074,0.169-0.139,0.341-0.192,0.512c-0.056-0.054-0.131-0.087-0.211-0.091
		c-0.102-0.004-0.208,0.044-0.274,0.135c-0.491,0.666-0.841,1.34-1.041,2.002c-0.052,0.174-0.095,0.35-0.127,0.525
		c-0.069-0.078-0.171-0.12-0.278-0.109c-0.11,0.011-0.206,0.076-0.257,0.173c-0.385,0.732-0.631,1.449-0.73,2.134
		c-0.025,0.17-0.04,0.342-0.047,0.51c-0.078-0.063-0.181-0.088-0.28-0.065c-0.108,0.025-0.196,0.101-0.234,0.205
		c-0.29,0.772-0.443,1.515-0.454,2.206c-0.003,0.168,0.003,0.337,0.018,0.501c-0.084-0.049-0.185-0.058-0.277-0.025
		c-0.104,0.039-0.182,0.125-0.207,0.233c-0.191,0.804-0.25,1.56-0.176,2.247c0.014,0.13,0.033,0.257,0.056,0.384
		c-0.049-0.003-0.099,0.005-0.144,0.024c-0.102,0.043-0.175,0.133-0.196,0.242c-0.153,0.812-0.177,1.57-0.07,2.253
		c0.028,0.174,0.063,0.347,0.108,0.513c-0.045,0.002-0.09,0.013-0.132,0.034c-0.1,0.049-0.167,0.144-0.181,0.253
		c-0.102,0.82-0.077,1.577,0.072,2.252c0.032,0.147,0.071,0.292,0.116,0.432c-0.074-0.009-0.15,0.007-0.216,0.049
		c-0.093,0.059-0.15,0.16-0.152,0.271c-0.015,0.826,0.089,1.577,0.31,2.233c0.063,0.19,0.139,0.375,0.223,0.551
		c-0.022-0.007-0.036-0.01-0.041-0.012c-0.107-0.028-0.22,0-0.303,0.074c-0.082,0.074-0.121,0.184-0.103,0.294
		c0.129,0.816,0.363,1.537,0.695,2.146c0.063,0.118,0.132,0.232,0.203,0.342c-0.057,0.015-0.11,0.046-0.152,0.09
		c-0.076,0.081-0.107,0.194-0.082,0.301c0.19,0.804,0.478,1.507,0.854,2.09c0.089,0.138,0.184,0.27,0.284,0.397
		c-0.088,0.01-0.169,0.055-0.224,0.128c-0.067,0.089-0.084,0.205-0.046,0.309c0.283,0.777,0.649,1.442,1.091,1.979
		c0.096,0.117,0.198,0.23,0.303,0.336c-0.078,0.023-0.148,0.075-0.19,0.149c-0.056,0.097-0.059,0.214-0.01,0.313
		c0.372,0.74,0.815,1.358,1.316,1.839c0.106,0.102,0.216,0.198,0.329,0.289c-0.073,0.032-0.134,0.09-0.167,0.165
		c-0.046,0.102-0.038,0.219,0.023,0.312c0.447,0.697,0.953,1.266,1.503,1.694c0.166,0.129,0.338,0.247,0.513,0.349
		c-0.039,0.011-0.062,0.02-0.07,0.022c-0.105,0.038-0.183,0.125-0.209,0.234c-0.026,0.109,0.005,0.222,0.083,0.303
		c0.57,0.594,1.158,1.064,1.749,1.399c0.481,0.272,0.966,0.456,1.44,0.544c0.412,0.077,0.827,0.081,1.162,0.014
		c0.024-0.003,0.045-0.008,0.065-0.015c1.022,0.718,2.101,1.32,3.214,1.79c0.933,0.394,1.891,0.697,2.847,0.9
		c0.201,0.043,0.392,0.079,0.574,0.11c-0.398-0.148-0.813-0.372-1.093-0.714c-0.049-0.059-0.091-0.122-0.13-0.186
		c-0.659-0.179-1.316-0.405-1.96-0.676c-1.064-0.449-2.098-1.025-3.076-1.71c0.005-0.019,0.008-0.032,0.009-0.037
		c0.015-0.333-0.022-0.666-0.11-0.996c0.707,0.569,1.334,1.033,2.024,1.417c0.939,0.523,1.907,0.926,2.899,1.209
		c0.001-0.056,0.004-0.115,0.011-0.172c0.019-0.168,0.067-0.321,0.141-0.458c-0.922-0.269-1.824-0.648-2.701-1.137
		c-1.879-1.048-3.569-2.55-5.021-4.464c-0.508-0.669-0.977-1.377-1.408-2.121c1.116-0.493,3.601-1.614,5.778-2.733
		c0.012,0.096,0.039,0.19,0.078,0.283c0.188,0.432,0.669,0.59,1.039,0.647c0.126,0.02,0.248,0.029,0.352,0.033
		c0.14,0.348,0.447,0.611,0.897,0.753c0.176,0.056,0.347,0.086,0.483,0.102c0.077,0.197,0.206,0.36,0.382,0.479
		c0.426,0.289,1.024,0.251,1.366,0.196c0.192,0.235,0.439,0.386,0.724,0.444c0.09,0.018,0.18,0.026,0.269,0.026
		c0.232,0,0.458-0.054,0.66-0.128v3.88c0,0.283,0.23,0.514,0.514,0.514c0.283,0,0.514-0.231,0.514-0.514v-4.051
		c0.519,0.103,0.937,0.015,1.226-0.099c0.234-0.092,0.41-0.211,0.528-0.306c0.502,0.088,0.957-0.048,1.299-0.395
		c0.12-0.122,0.208-0.251,0.27-0.362c0.692,0.032,1.106-0.256,1.337-0.522c0.12-0.138,0.201-0.28,0.254-0.401
		c0.425-0.018,0.769-0.151,1.026-0.399c0.129-0.124,0.219-0.261,0.281-0.395c1.759,1.363,4.495,2.569,5.733,3.08
		c-0.41,0.696-0.853,1.36-1.332,1.99c-1.453,1.915-3.142,3.416-5.022,4.464c-0.878,0.489-1.78,0.867-2.702,1.138
		c0.072,0.137,0.121,0.29,0.14,0.458c0.007,0.058,0.01,0.116,0.011,0.173c0.993-0.284,1.961-0.686,2.901-1.21
		c0.736-0.41,1.415-0.925,2.044-1.433c-0.093,0.334-0.133,0.671-0.117,1.006c-0.001,0.018,0.003,0.033,0.005,0.049
		c-0.301,0.231-1.096,0.803-2.257,1.37c-0.873,0.427-1.78,0.767-2.694,1.011c-0.039,0.01-0.076,0.019-0.115,0.029
		c-0.035,0.053-0.071,0.106-0.112,0.156c-0.285,0.348-0.711,0.575-1.117,0.723c0.507-0.078,1.012-0.183,1.516-0.318
		c0.954-0.254,1.9-0.611,2.811-1.057c1.224-0.6,2.045-1.196,2.358-1.437c0.017,0.006,0.034,0.013,0.049,0.017
		c0.346,0.068,0.757,0.064,1.17-0.013c0.474-0.089,0.958-0.272,1.44-0.544c0.591-0.335,1.179-0.805,1.749-1.399
		c0.077-0.08,0.108-0.194,0.083-0.303c-0.026-0.109-0.104-0.196-0.21-0.234c-0.008-0.003-0.026-0.009-0.051-0.017
		c0.178-0.105,0.353-0.224,0.522-0.355c0.548-0.427,1.054-0.996,1.503-1.694c0.06-0.093,0.069-0.211,0.023-0.312
		c-0.035-0.075-0.094-0.134-0.167-0.165c0.113-0.091,0.223-0.187,0.329-0.289c0.502-0.481,0.944-1.1,1.316-1.839
		c0.05-0.1,0.047-0.217-0.01-0.313c-0.051-0.087-0.138-0.145-0.237-0.158c0.115-0.115,0.227-0.237,0.331-0.364
		c0.442-0.536,0.809-1.202,1.091-1.978c0.036-0.098,0.022-0.208-0.037-0.295c-0.058-0.086-0.155-0.141-0.259-0.145h-0.001
		c0.097-0.119,0.189-0.245,0.276-0.374c0.385-0.577,0.684-1.275,0.887-2.076c0.028-0.108-0.002-0.221-0.076-0.302
		c-0.068-0.074-0.166-0.112-0.264-0.105c0.09-0.142,0.174-0.29,0.251-0.443C40.566,44.562,40.775,43.833,40.875,43.013
		 M40.486,40.444c0.006,0.003,0.009,0.01,0.009,0.016c-0.041,0.563-0.145,1.08-0.31,1.536c-0.167,0.461-0.396,0.865-0.682,1.202
		c-0.337,0.395-0.683,0.605-0.817,0.678c-0.003,0.001-0.005,0.002-0.008,0.002c-0.005,0-0.01-0.003-0.013-0.007
		c-0.454-0.616-0.676-1.371-0.66-2.246c0.005-0.279,0.036-0.563,0.09-0.843c0.001-0.007,0.006-0.012,0.013-0.013
		c0.006-0.002,0.013,0.001,0.018,0.006c0.405,0.498,0.63,1.152,0.632,1.159c0.032,0.094,0.117,0.159,0.217,0.165
		c0.099,0.007,0.192-0.049,0.235-0.139c0.375-0.781,0.892-1.255,1.26-1.515C40.474,40.44,40.48,40.44,40.486,40.444 M40.425,37.506
		c0.005-0.004,0.012-0.005,0.018-0.003c0.007,0.003,0.011,0.008,0.011,0.015c0.015,0.565-0.037,1.09-0.155,1.56
		c-0.121,0.475-0.309,0.899-0.559,1.261c-0.295,0.426-0.62,0.668-0.745,0.753c-0.003,0.002-0.006,0.003-0.009,0.003
		c-0.005,0-0.01-0.002-0.013-0.006c-0.799-0.905-0.875-2.246-0.849-2.966c0-0.007,0.005-0.013,0.012-0.016
		c0.007-0.002,0.013-0.001,0.019,0.005c0.433,0.47,0.719,1.041,0.721,1.047c0.044,0.088,0.133,0.142,0.233,0.136
		c0.097-0.006,0.183-0.069,0.216-0.16C39.617,38.32,40.084,37.799,40.425,37.506 M40.106,34.521
		c0.005-0.005,0.012-0.007,0.018-0.005c0.006,0.002,0.011,0.008,0.012,0.014c0.07,0.56,0.069,1.088-0.003,1.568
		c-0.073,0.484-0.219,0.926-0.433,1.311c-0.257,0.46-0.56,0.736-0.68,0.833c-0.003,0.003-0.007,0.004-0.011,0.004
		s-0.008-0.002-0.011-0.004c-0.789-0.655-1.029-2.071-1.101-2.857c-0.001-0.007,0.003-0.014,0.009-0.017s0.014-0.002,0.02,0.003
		c0.461,0.419,0.793,0.944,0.797,0.949c0.051,0.083,0.148,0.127,0.245,0.113c0.097-0.015,0.175-0.086,0.199-0.181
		C39.382,35.412,39.797,34.847,40.106,34.521 M39.639,31.685c0.004-0.005,0.011-0.007,0.017-0.005
		c0.006,0.002,0.011,0.007,0.012,0.013c0.097,0.556,0.121,1.084,0.071,1.566c-0.05,0.488-0.175,0.935-0.371,1.33
		c-0.231,0.463-0.516,0.751-0.628,0.853c-0.003,0.003-0.007,0.004-0.011,0.004s-0.008-0.001-0.011-0.004
		c-0.664-0.561-0.98-1.389-1.129-1.985c-0.066-0.267-0.115-0.546-0.145-0.832c0-0.007,0.003-0.013,0.009-0.016
		c0.006-0.004,0.013-0.003,0.019,0.002c0.494,0.4,0.864,0.93,0.868,0.936c0.055,0.08,0.153,0.12,0.249,0.1
		c0.096-0.02,0.17-0.094,0.19-0.19C38.957,32.61,39.344,32.025,39.639,31.685 M16.986,31.869c0.006-0.038,0.013-0.076,0.021-0.116
		c0.389-1.951,1.153-3.283,1.728-4.056c0.43-0.58,0.821-0.942,1.013-1.105c0.061-0.045,0.123-0.094,0.183-0.146
		c0.188-0.161,0.217-0.442,0.066-0.638c-0.151-0.196-0.43-0.24-0.634-0.098c-0.02,0.013-0.089,0.063-0.196,0.152
		c-0.434,0.303-0.682,0.204-0.747,0.167c-0.141-0.079-0.201-0.266-0.16-0.499c0.072-0.422,0.547-0.984,0.725-1.164
		c0.008-0.008,0.016-0.017,0.023-0.025c0.958-1.131,2.485-1.154,2.5-1.154s0.029-0.001,0.044-0.002
		c0.005-0.001,0.48-0.039,1.076,0.157c0.818,0.268,1.449,0.829,1.879,1.665c0.602,1.17,1.058,2.353,1.396,3.614
		c-0.85-0.305-1.528-0.855-1.534-0.861c-0.198-0.163-0.492-0.136-0.654,0.062c-0.079,0.095-0.117,0.217-0.105,0.341
		s0.071,0.236,0.166,0.315c0.045,0.037,1.097,0.898,2.375,1.183c0.091,0.427,0.172,0.874,0.256,1.399
		c-0.408-0.208-0.89-0.336-1.283-0.441c-0.27-0.071-0.525-0.139-0.721-0.218c-0.873-0.349-1.615-0.931-1.622-0.937
		c-0.201-0.158-0.494-0.125-0.653,0.076c-0.158,0.201-0.125,0.494,0.075,0.653c0.035,0.027,0.856,0.671,1.853,1.071
		c0.25,0.1,0.533,0.174,0.831,0.253c1.105,0.293,1.604,0.517,1.629,1.065c-0.032,0.085-0.078,0.162-0.139,0.228
		c-0.351,0.382-1.129,0.423-1.396,0.406c-0.011-0.001-0.022-0.001-0.032-0.001H23.91c-0.204-0.003-1.266-0.047-2.184-0.639
		C19.375,31.06,18.305,31.298,16.986,31.869 M20.993,33.215h-3.171c-0.325,0-0.548-0.08-0.683-0.246
		c-0.028-0.035-0.054-0.074-0.076-0.12C18.392,32.249,19.092,32.035,20.993,33.215 M22.274,38.944v-4.839h1.637h0.022h0.018h0.985
		c0.025,0.001,0.072,0.003,0.14,0.003c0.139,0,0.357-0.008,0.604-0.048c0.585-0.094,1.039-0.311,1.346-0.644
		c0.128-0.14,0.262-0.337,0.347-0.603c0.01-0.025,0.017-0.05,0.022-0.076c0.06-0.232,0.083-0.511,0.035-0.845l-0.014-0.091
		c-0.282-1.918-0.635-4.306-2.121-7.196c-1.244-2.422-3.55-2.323-3.81-2.302c-0.217,0.004-1.969,0.078-3.147,1.456
		c-0.126,0.129-0.829,0.882-0.955,1.626c-0.104,0.609,0.125,1.153,0.597,1.422c0.076,0.044,0.155,0.077,0.237,0.104
		c-0.74,0.924-1.636,2.435-2.082,4.673c-0.074,0.374-0.09,0.723-0.049,1.035c0.001,0.025,0.005,0.051,0.01,0.076
		c0.054,0.332,0.174,0.619,0.358,0.842c0.214,0.26,0.624,0.57,1.37,0.57h3.422v4.839v2.958c-0.896-0.027-1.582,0.323-2.432,0.922
		c-1.211,0.81-5.289,1.614-12.121,2.391c-0.48-2.019-0.723-4.119-0.723-6.271c0-2.832,0.422-5.581,1.251-8.166
		c0.8-2.494,1.945-4.732,3.403-6.653c1.452-1.914,3.142-3.416,5.021-4.464c1.938-1.08,3.996-1.628,6.115-1.628
		c2.121,0,4.178,0.547,6.115,1.628c1.88,1.048,3.569,2.55,5.022,4.464c1.457,1.922,2.603,4.16,3.403,6.653
		c0.83,2.586,1.25,5.333,1.25,8.166c0,2.182-0.249,4.313-0.744,6.36c-4.158-0.239-9.072-1.78-9.221-1.828
		c-0.349-0.119-0.668-0.234-0.95-0.336c-1.031-0.372-1.775-0.64-2.65-0.6c-0.051,0.002-0.102,0.004-0.151,0.006
		c-0.504-0.246-0.946-0.415-1.56-0.527V38.944L22.274,38.944z M28.732,17.073c-0.251,0.099-0.643,0.235-1.086,0.317
		c-0.28,0.052-0.546,0.078-0.797,0.078c-0.598,0-1.109-0.148-1.528-0.443c-0.005-0.004-0.007-0.009-0.007-0.015
		c0-0.006,0.004-0.011,0.009-0.014c0.191-0.11,0.503-0.26,0.899-0.354c0.427-0.101,0.863-0.114,1.297-0.04
		c0.407,0.069,0.816,0.217,1.216,0.44c0.006,0.003,0.009,0.01,0.009,0.016C28.742,17.066,28.738,17.071,28.732,17.073 M29.33,18.758
		c0.004,0.004,0.005,0.01,0.004,0.016c-0.002,0.006-0.006,0.01-0.011,0.012c-0.172,0.059-0.447,0.134-0.785,0.148
		c-0.039,0.002-0.078,0.002-0.117,0.002c-0.708,0-1.4-0.259-2.061-0.772c-0.005-0.004-0.007-0.01-0.006-0.017
		c0.001-0.006,0.006-0.011,0.012-0.013c0.296-0.094,0.595-0.15,0.889-0.168C28.087,17.915,28.785,18.181,29.33,18.758
		 M26.061,16.139c-0.278,0.13-0.762,0.303-1.484,0.391c-0.1,0.012-0.184,0.086-0.208,0.184c-0.024,0.099,0.016,0.203,0.099,0.26
		c0.006,0.004,0.566,0.39,0.972,0.903c0.004,0.005,0.005,0.012,0.002,0.019c-0.003,0.006-0.009,0.009-0.015,0.009l0,0
		c-0.681-0.022-1.959-0.22-2.873-1.311c-0.006-0.007-0.005-0.018,0.001-0.024c0.145-0.138,0.397-0.333,0.785-0.479
		c0.729-0.275,1.668-0.269,2.719,0.015c0.007,0.002,0.012,0.008,0.013,0.015C26.071,16.128,26.066,16.135,26.061,16.139
		 M23.007,15.639c-0.242,0.188-0.68,0.459-1.393,0.677c-0.101,0.031-0.17,0.122-0.173,0.227c-0.004,0.105,0.06,0.2,0.158,0.237
		c0.006,0.003,0.611,0.233,1.102,0.644c0.005,0.005,0.007,0.012,0.005,0.019s-0.008,0.011-0.015,0.012
		c-0.171,0.017-0.378,0.029-0.608,0.029c-0.736,0-1.699-0.132-2.444-0.697c-0.007-0.006-0.009-0.016-0.004-0.024
		c0.113-0.163,0.32-0.404,0.668-0.624c0.663-0.42,1.594-0.603,2.694-0.53c0.007,0.001,0.013,0.006,0.015,0.012
		C23.014,15.627,23.013,15.635,23.007,15.639 M19.87,15.689c-0.179,0.244-0.542,0.607-1.258,0.96
		c-0.095,0.047-0.149,0.148-0.135,0.252c0.014,0.105,0.094,0.187,0.198,0.207c0.006,0.002,0.645,0.122,1.217,0.409
		c0.006,0.003,0.01,0.01,0.01,0.017s-0.006,0.013-0.012,0.015c-0.267,0.088-0.54,0.156-0.809,0.204
		c-0.243,0.043-0.533,0.076-0.843,0.076c-0.463,0-0.976-0.073-1.462-0.299c-0.008-0.004-0.012-0.013-0.008-0.022
		c0.074-0.183,0.223-0.462,0.514-0.75c0.565-0.56,1.455-0.94,2.573-1.096c0.007-0.001,0.014,0.002,0.018,0.008
		C19.874,15.677,19.874,15.684,19.87,15.689 M15.83,17.616c-0.077,0.066-0.105,0.175-0.069,0.271
		c0.036,0.095,0.128,0.158,0.23,0.158h0.002c0.002,0,0.269-0.002,0.625,0.045c0.24,0.032,0.46,0.077,0.657,0.137
		c0.007,0.002,0.011,0.008,0.012,0.015s-0.003,0.013-0.009,0.017c-0.254,0.129-0.517,0.241-0.778,0.331
		c-0.573,0.198-1.066,0.266-1.473,0.266c-0.356,0-0.646-0.052-0.868-0.116c-0.009-0.003-0.014-0.011-0.012-0.02
		c0.104-0.515,0.582-1.792,2.768-2.532c0.006-0.002,0.014,0,0.019,0.005c0.005,0.005,0.006,0.012,0.003,0.019
		C16.792,16.541,16.485,17.054,15.83,17.616 M38.133,30.685c0.055-0.864,0.359-1.495,0.604-1.872
		c0.004-0.006,0.011-0.009,0.017-0.008c0.006,0.001,0.012,0.006,0.014,0.012c0.173,0.539,0.269,1.057,0.286,1.542
		c0.018,0.489-0.045,0.949-0.185,1.366c-0.165,0.491-0.408,0.814-0.505,0.93c-0.004,0.004-0.008,0.007-0.013,0.007
		c-0.003,0-0.006-0.001-0.009-0.003c-0.617-0.386-1.094-1.002-1.418-1.828c-0.1-0.254-0.181-0.523-0.244-0.797
		c-0.002-0.007,0.001-0.014,0.007-0.018s0.013-0.005,0.019-0.001c0.55,0.329,0.998,0.811,1.003,0.816
		c0.066,0.072,0.169,0.098,0.261,0.065C38.063,30.868,38.126,30.784,38.133,30.685 M37.159,27.979
		c-0.035-0.864,0.202-1.523,0.407-1.923c0.003-0.006,0.008-0.011,0.016-0.01c0.007,0,0.013,0.004,0.015,0.01
		c0.229,0.519,0.378,1.025,0.445,1.506C38.11,28.047,38.096,28.51,38,28.94c-0.113,0.505-0.321,0.85-0.406,0.976
		c-0.003,0.005-0.009,0.007-0.015,0.007c-0.002,0-0.005,0-0.007-0.002c-0.654-0.322-1.193-0.885-1.602-1.673
		c-0.125-0.243-0.235-0.5-0.325-0.767c-0.002-0.006-0.001-0.013,0.005-0.018c0.005-0.005,0.013-0.006,0.019-0.003
		c0.578,0.27,1.076,0.706,1.082,0.71c0.073,0.065,0.178,0.08,0.266,0.039C37.109,28.167,37.163,28.076,37.159,27.979 M35.797,25.681
		L35.797,25.681c0.087-0.05,0.135-0.15,0.119-0.249c-0.136-0.855,0.022-1.534,0.178-1.953c0.002-0.006,0.008-0.011,0.014-0.011
		c0.007,0,0.013,0.003,0.017,0.009c0.287,0.49,0.496,0.976,0.62,1.446c0.125,0.474,0.165,0.937,0.121,1.374
		c-0.052,0.513-0.219,0.88-0.287,1.014c-0.003,0.006-0.009,0.009-0.015,0.009c-0.002,0-0.004-0.001-0.006-0.001
		c-0.737-0.256-1.355-0.76-1.835-1.495c-0.154-0.236-0.289-0.489-0.401-0.753c-0.003-0.006-0.002-0.013,0.003-0.018
		c0.004-0.005,0.011-0.007,0.018-0.005c0.632,0.179,1.176,0.608,1.182,0.612C35.598,25.725,35.709,25.733,35.797,25.681
		 M33.964,23.334c0.085,0.06,0.2,0.059,0.284-0.003c0.085-0.061,0.121-0.17,0.089-0.269c-0.237-0.763-0.197-1.474-0.123-1.936
		c0.001-0.007,0.006-0.012,0.012-0.014s0.013,0,0.018,0.006c0.353,0.43,0.633,0.869,0.828,1.306c0.2,0.448,0.315,0.898,0.342,1.337
		c0.03,0.495-0.061,0.867-0.119,1.044c-0.002,0.007-0.009,0.012-0.016,0.012c0,0-0.003,0-0.004-0.001
		c-0.719-0.134-1.394-0.531-2.006-1.18c-0.202-0.215-0.391-0.451-0.56-0.702c-0.004-0.006-0.004-0.013-0.001-0.019
		c0.003-0.006,0.01-0.009,0.016-0.009C33.414,22.958,33.958,23.332,33.964,23.334 M32.134,21.243
		c0.094,0.038,0.203,0.012,0.27-0.063c0.068-0.075,0.082-0.186,0.036-0.276c-0.398-0.766-0.465-1.459-0.452-1.906
		c0-0.006,0.004-0.012,0.01-0.015c0.006-0.003,0.013-0.001,0.019,0.003c0.413,0.366,0.755,0.756,1.018,1.159
		c0.266,0.411,0.453,0.84,0.554,1.272c0.12,0.513,0.088,0.923,0.068,1.074c-0.001,0.008-0.008,0.015-0.017,0.015
		c-0.014,0.001-0.028,0.001-0.042,0.001c-0.815,0-1.566-0.445-2.055-0.821c-0.244-0.186-0.48-0.4-0.704-0.634
		c-0.005-0.005-0.006-0.012-0.004-0.019c0.003-0.006,0.009-0.01,0.015-0.011c0.031-0.001,0.061-0.002,0.092-0.002
		C31.558,21.021,32.129,21.24,32.134,21.243 M31.409,19.339c0.193,0.495,0.216,0.959,0.212,1.193
		c-0.001,0.009-0.008,0.017-0.017,0.017c-0.043,0.003-0.086,0.004-0.13,0.004c-1.005,0-2.173-0.674-2.796-1.088
		c-0.006-0.004-0.009-0.011-0.008-0.018c0.002-0.007,0.007-0.012,0.014-0.013c0.637-0.123,1.242,0.018,1.248,0.019
		c0.102,0.024,0.207-0.019,0.263-0.107c0.056-0.088,0.049-0.202-0.015-0.283c-0.397-0.497-0.643-1.07-0.778-1.463
		c-0.002-0.006-0.001-0.013,0.004-0.018c0.005-0.004,0.011-0.006,0.018-0.004C30.413,17.906,31.08,18.5,31.409,19.339
		 M13.185,16.373c0.048-0.019,0.096-0.037,0.145-0.053c0.59-0.206,1.153-0.344,1.436-0.407c0.653-0.147,1.112-0.434,1.131-0.446
		c0.059-0.038,0.089-0.108,0.074-0.176c-0.015-0.068-0.07-0.121-0.14-0.131l-2.896-0.422l2.895-0.426
		c0.082-0.012,0.144-0.083,0.144-0.165s-0.061-0.153-0.144-0.165c-0.006-0.001-0.63-0.098-1.279-0.39
		c-0.192-0.086-0.36-0.177-0.51-0.259c-0.255-0.139-0.502-0.272-0.829-0.376c0.051,0.002,0.102,0.004,0.153,0.007
		c0.629,0.037,1.199,0.126,1.483,0.175c0.659,0.116,1.193,0.026,1.215,0.022c0.069-0.011,0.124-0.065,0.137-0.134
		c0.013-0.068-0.019-0.139-0.079-0.174l-2.515-1.493l2.839,0.711c0.081,0.022,0.164-0.022,0.196-0.098s0.003-0.164-0.068-0.207
		c-0.006-0.003-0.543-0.33-1.033-0.85c-0.141-0.15-0.256-0.293-0.37-0.434c-0.183-0.227-0.359-0.445-0.623-0.666
		c0.047,0.021,0.093,0.043,0.14,0.064c0.565,0.274,1.058,0.575,1.302,0.731c0.566,0.36,1.092,0.48,1.115,0.486
		c0.068,0.015,0.139-0.014,0.177-0.072s0.036-0.136-0.007-0.191l-1.753-2.336l2.353,1.741c0.066,0.049,0.159,0.042,0.217-0.017
		c0.058-0.058,0.065-0.151,0.017-0.218c-0.039-0.053-0.385-0.541-0.627-1.181c-0.073-0.195-0.126-0.372-0.176-0.544
		C17.222,8,17.142,7.731,16.985,7.427c0.036,0.038,0.07,0.075,0.104,0.114c0.416,0.469,0.756,0.937,0.922,1.173
		c0.372,0.531,0.795,0.842,0.842,0.876c0.056,0.041,0.134,0.041,0.191,0.001s0.084-0.112,0.067-0.179l-0.728-2.828l1.511,2.508
		c0.043,0.07,0.131,0.1,0.207,0.068c0.077-0.032,0.119-0.114,0.099-0.194c-0.006-0.026-0.149-0.63-0.127-1.333
		c0.007-0.207,0.027-0.39,0.046-0.568c0.031-0.289,0.06-0.568,0.032-0.911c0.019,0.048,0.036,0.096,0.052,0.145
		c0.204,0.591,0.34,1.154,0.402,1.437c0.141,0.634,0.412,1.083,0.443,1.133c0.037,0.059,0.108,0.088,0.176,0.075
		c0.068-0.014,0.121-0.071,0.132-0.141l0.405-2.869l0.42,2.87c0.012,0.082,0.083,0.143,0.165,0.143s0.153-0.061,0.165-0.142
		C22.515,8.779,22.61,8.17,22.9,7.524c0.085-0.189,0.172-0.35,0.257-0.508c0.139-0.256,0.272-0.503,0.376-0.832
		c-0.001,0.052-0.003,0.103-0.006,0.154c-0.036,0.625-0.125,1.198-0.174,1.482c-0.115,0.658-0.025,1.193-0.021,1.216
		c0.012,0.068,0.065,0.123,0.135,0.137c0.067,0.012,0.139-0.02,0.174-0.078l1.496-2.511l-0.714,2.833
		c-0.02,0.08,0.023,0.164,0.098,0.195c0.075,0.032,0.165,0.003,0.208-0.068c0.035-0.056,0.351-0.564,0.849-1.034
		c0.149-0.141,0.29-0.254,0.433-0.371c0.227-0.183,0.445-0.36,0.665-0.623c-0.021,0.047-0.043,0.093-0.064,0.139
		c-0.272,0.563-0.574,1.058-0.729,1.303c-0.356,0.561-0.48,1.092-0.485,1.115c-0.016,0.068,0.013,0.139,0.072,0.177
		c0.058,0.038,0.136,0.035,0.191-0.007l2.34-1.747l-1.742,2.347c-0.05,0.067-0.044,0.158,0.016,0.218
		c0.057,0.057,0.151,0.065,0.218,0.016c0.005-0.004,0.515-0.376,1.181-0.628c0.192-0.073,0.367-0.125,0.543-0.176
		c0.279-0.083,0.547-0.162,0.853-0.32c-0.038,0.036-0.075,0.07-0.114,0.104c-0.467,0.416-0.937,0.757-1.173,0.924
		c-0.544,0.382-0.862,0.825-0.875,0.843c-0.041,0.057-0.041,0.134-0.001,0.191c0.04,0.057,0.112,0.084,0.179,0.067l2.829-0.721
		l-2.507,1.504c-0.07,0.043-0.1,0.132-0.068,0.207c0.032,0.077,0.115,0.119,0.195,0.099c0.064-0.015,0.652-0.149,1.332-0.127
		c0.209,0.007,0.391,0.026,0.568,0.045c0.289,0.031,0.569,0.06,0.912,0.032c-0.048,0.018-0.096,0.036-0.145,0.052
		c-0.594,0.206-1.155,0.341-1.437,0.403c-0.656,0.147-1.113,0.432-1.132,0.444c-0.059,0.037-0.089,0.108-0.074,0.176
		c0.014,0.068,0.07,0.121,0.14,0.131l2.89,0.415l-2.893,0.433c-0.08,0.012-0.143,0.083-0.143,0.164c0,0.083,0.061,0.154,0.143,0.166
		c0.065,0.011,0.655,0.111,1.279,0.393c0.188,0.085,0.348,0.173,0.509,0.261c0.255,0.139,0.501,0.273,0.828,0.377
		c-0.051-0.001-0.103-0.003-0.153-0.007c-0.626-0.038-1.197-0.128-1.483-0.179l-0.077-0.013c-0.524-0.228-1.06-0.347-1.598-0.351
		c-0.001-0.005-0.002-0.01-0.003-0.015c-0.026-0.112-0.105-0.201-0.214-0.24c-0.786-0.272-1.524-0.413-2.193-0.418
		c-0.247-0.001-0.479,0.015-0.705,0.049c-0.005-0.031-0.015-0.059-0.029-0.088c-0.049-0.099-0.144-0.166-0.253-0.181
		c-0.827-0.109-1.577-0.1-2.232,0.031c-0.261,0.051-0.509,0.123-0.74,0.212c-0.007-0.071-0.038-0.138-0.087-0.191
		c-0.069-0.074-0.166-0.114-0.27-0.105c-0.831,0.068-1.561,0.238-2.173,0.504c-0.164,0.071-0.321,0.15-0.468,0.236
		c-0.009-0.086-0.051-0.165-0.119-0.221c-0.083-0.068-0.194-0.092-0.298-0.063c-0.81,0.222-1.506,0.533-2.068,0.923l-0.035,0.024
		c-0.154,0.009-0.305,0.012-0.449,0.008c-0.122-0.004-0.526-0.04-0.568-0.045C13.807,16.373,13.529,16.342,13.185,16.373
		 M13.964,17.213c0.006-0.004,0.013-0.004,0.019-0.001c0.006,0.003,0.009,0.01,0.008,0.017c-0.028,0.443-0.161,1.125-0.637,1.857
		c-0.053,0.083-0.052,0.189,0.003,0.27s0.154,0.122,0.25,0.102c0.007-0.002,0.63-0.125,1.26-0.076
		c0.007,0.001,0.013,0.006,0.015,0.012c0.002,0.007,0,0.014-0.006,0.019c-0.545,0.434-1.613,1.145-2.755,1.145
		c-0.041,0-0.082-0.001-0.123-0.003c-0.009-0.001-0.016-0.007-0.017-0.017C11.953,19.99,12.085,18.564,13.964,17.213 M9.986,21.431
		c0.097-0.43,0.282-0.856,0.551-1.267c0.267-0.409,0.621-0.806,1.05-1.182c0.005-0.004,0.012-0.005,0.018-0.003
		c0.006,0.003,0.01,0.009,0.01,0.015c0.015,0.444-0.051,1.136-0.453,1.909c-0.047,0.089-0.035,0.196,0.031,0.272
		s0.168,0.104,0.264,0.072c0.006-0.002,0.598-0.202,1.226-0.222c0.006,0,0.014,0.004,0.017,0.01
		c0.003,0.007,0.002,0.014-0.004,0.019c-0.236,0.234-0.479,0.447-0.723,0.635c-0.497,0.383-1.23,0.829-1.933,0.829
		c-0.028,0-0.055-0.001-0.084-0.002c-0.008-0.001-0.015-0.007-0.017-0.014C9.914,22.351,9.87,21.947,9.986,21.431 M9.341,21.093
		c0.004-0.005,0.011-0.007,0.018-0.006c0.007,0.002,0.011,0.007,0.013,0.013c0.086,0.437,0.132,1.13-0.143,1.957
		c-0.034,0.1,0.001,0.209,0.085,0.272s0.198,0.065,0.285,0.006c0.005-0.004,0.542-0.367,1.222-0.425
		c0.007,0,0.013,0.003,0.017,0.009c0.003,0.006,0.003,0.013-0.001,0.019c-0.442,0.618-1.359,1.685-2.543,1.884H8.29
		c-0.008,0-0.014-0.004-0.016-0.011C8.102,24.287,7.861,22.875,9.341,21.093 M6.791,24.914c0.143-0.464,0.372-0.942,0.681-1.419
		c0.004-0.006,0.01-0.009,0.017-0.008c0.006,0,0.012,0.005,0.014,0.011c0.139,0.424,0.267,1.108,0.095,1.962
		c-0.021,0.106,0.029,0.212,0.124,0.263c0.095,0.051,0.211,0.035,0.288-0.042c0.005-0.005,0.504-0.487,1.192-0.582
		c0.006-0.001,0.012,0.002,0.017,0.007c0.004,0.005,0.004,0.012,0.002,0.018c-0.094,0.194-0.254,0.491-0.479,0.799
		c-0.524,0.719-1.149,1.188-1.859,1.395c-0.002,0-0.003,0-0.005,0c-0.006,0-0.012-0.004-0.015-0.01
		c-0.063-0.137-0.215-0.512-0.247-1.029C6.586,25.843,6.646,25.382,6.791,24.914 M5.414,27.552c0.071-0.481,0.227-0.987,0.459-1.504
		c0.003-0.006,0.009-0.01,0.015-0.01c0.007,0,0.012,0.003,0.015,0.009c0.201,0.399,0.431,1.057,0.389,1.929
		c-0.005,0.098,0.05,0.189,0.138,0.232c0.088,0.043,0.193,0.029,0.267-0.036c0.022-0.019,0.541-0.464,1.145-0.725
		c0.006-0.003,0.013-0.002,0.019,0.003c0.005,0.005,0.007,0.011,0.005,0.018c-0.062,0.246-0.151,0.487-0.264,0.717
		c-0.37,0.754-0.956,1.337-1.743,1.728c-0.004,0.001-0.006,0.001-0.009,0.001c-0.006,0-0.011-0.003-0.014-0.008
		c-0.103-0.156-0.29-0.492-0.394-0.975C5.351,28.501,5.34,28.037,5.414,27.552 M4.667,28.789c0.002-0.007,0.007-0.011,0.014-0.012
		c0.007-0.002,0.013,0.002,0.017,0.007c0.249,0.37,0.561,0.995,0.63,1.864c0.008,0.099,0.074,0.183,0.169,0.214
		c0.095,0.031,0.198,0,0.262-0.076c0.004-0.006,0.441-0.523,1.043-0.865c0.006-0.003,0.012-0.003,0.018,0.001
		c0.005,0.004,0.008,0.01,0.008,0.017c-0.029,0.258-0.086,0.517-0.168,0.767c-0.268,0.817-0.778,1.464-1.514,1.925
		c-0.003,0.002-0.006,0.003-0.009,0.003c-0.005,0-0.01-0.002-0.013-0.006c-0.099-0.115-0.346-0.435-0.519-0.924
		C4.458,31.289,4.39,30.83,4.401,30.34C4.413,29.853,4.502,29.33,4.667,28.789 M3.824,31.656c0.001-0.007,0.006-0.012,0.013-0.014
		c0.006-0.002,0.013,0,0.018,0.006c0.294,0.341,0.682,0.924,0.856,1.772c0.02,0.095,0.094,0.17,0.19,0.19
		c0.095,0.02,0.194-0.02,0.249-0.101c0.017-0.023,0.396-0.564,0.905-0.963c0.005-0.004,0.012-0.005,0.019-0.002
		c0.006,0.004,0.009,0.01,0.009,0.017c-0.013,0.255-0.048,0.512-0.105,0.762c-0.19,0.834-0.596,1.533-1.208,2.076
		c-0.003,0.003-0.007,0.005-0.011,0.005S4.751,35.403,4.747,35.4c-0.138-0.127-0.402-0.405-0.622-0.847
		c-0.196-0.395-0.321-0.842-0.371-1.33C3.703,32.741,3.727,32.213,3.824,31.656 M3.391,34.532c0.001-0.007,0.005-0.012,0.012-0.014
		c0.006-0.002,0.013-0.001,0.018,0.005c0.31,0.327,0.725,0.892,0.939,1.731c0.026,0.1,0.111,0.173,0.214,0.183
		c0.102,0.011,0.201-0.046,0.245-0.139c0.003-0.006,0.272-0.566,0.761-1.003c0.005-0.005,0.012-0.006,0.019-0.003
		c0.006,0.003,0.01,0.009,0.01,0.016C5.608,35.6,5.584,35.89,5.538,36.169c-0.145,0.877-0.488,1.571-1.019,2.062
		c-0.004,0.003-0.008,0.005-0.012,0.005s-0.009-0.002-0.012-0.004c-0.117-0.097-0.415-0.371-0.667-0.823
		c-0.215-0.385-0.36-0.827-0.434-1.311C3.322,35.618,3.321,35.091,3.391,34.532 M3.153,37.55c0.001-0.007,0.005-0.012,0.011-0.015
		c0.006-0.002,0.013-0.001,0.018,0.004c0.062,0.057,0.124,0.119,0.183,0.183c0.266,0.286,0.633,0.777,0.863,1.489
		c0.035,0.107,0.138,0.176,0.25,0.168c0.113-0.009,0.205-0.092,0.223-0.204c0.001-0.006,0.11-0.617,0.625-1.086
		c0.005-0.004,0.011-0.006,0.018-0.004c0.006,0.002,0.01,0.007,0.011,0.014c0.054,0.341,0.099,0.864,0.004,1.426
		c-0.113,0.671-0.396,1.229-0.841,1.656c-0.004,0.003-0.008,0.005-0.012,0.005s-0.007-0.001-0.01-0.003
		C4.044,40.859,3.008,39.854,3.153,37.55 M3.035,40.483c0.006-0.003,0.013-0.003,0.019,0.002c0.068,0.051,0.136,0.106,0.201,0.162
		c0.296,0.257,0.713,0.708,1.017,1.392c0.04,0.088,0.127,0.145,0.223,0.145h0.004c0.098-0.002,0.185-0.06,0.223-0.151
		c0.003-0.007,0.268-0.647,0.698-1.155c0.004-0.005,0.011-0.008,0.018-0.006c0.006,0.002,0.011,0.007,0.012,0.013
		c0.133,0.618,0.221,1.838-0.694,3.076c-0.003,0.005-0.008,0.007-0.013,0.007c-0.004,0-0.006-0.001-0.009-0.003
		c-0.48-0.279-1.606-1.175-1.707-3.466C3.026,40.492,3.03,40.486,3.035,40.483 M3.187,43.533c-0.001-0.006,0.001-0.013,0.007-0.017
		c0.005-0.005,0.012-0.005,0.018-0.002c0.401,0.203,0.981,0.598,1.47,1.324c0.054,0.08,0.152,0.121,0.248,0.103
		c0.096-0.019,0.171-0.092,0.193-0.188l0.017,0.004l-0.017-0.004c0.006-0.029,0.163-0.715,0.498-1.279
		c0.003-0.006,0.01-0.009,0.015-0.009c0.006,0.001,0.012,0.004,0.014,0.01c0.119,0.249,0.208,0.511,0.264,0.778
		c0.176,0.829,0.039,1.636-0.409,2.399c-0.003,0.006-0.009,0.009-0.015,0.009c-0.002,0-0.004,0-0.006-0.001
		c-0.144-0.052-0.521-0.212-0.915-0.557c-0.333-0.293-0.62-0.659-0.851-1.093C3.488,44.579,3.31,44.083,3.187,43.533 M3.878,46.362
		c-0.002-0.006,0-0.013,0.005-0.018s0.012-0.006,0.018-0.003c0.078,0.032,0.156,0.069,0.234,0.108
		c0.35,0.178,0.866,0.514,1.332,1.104c0.06,0.077,0.161,0.11,0.255,0.085c0.095-0.026,0.164-0.105,0.178-0.202
		C5.901,47.43,6,46.76,6.276,46.174c0.003-0.006,0.009-0.01,0.016-0.01s0.013,0.004,0.015,0.01c0.287,0.628,0.683,1.869,0.115,3.126
		c-0.003,0.006-0.009,0.01-0.016,0.01c-0.002,0-0.003,0-0.005-0.001C5.866,49.159,4.546,48.567,3.878,46.362 M5.583,50.556
		c-0.307-0.377-0.577-0.832-0.803-1.349c-0.003-0.006-0.002-0.013,0.003-0.018c0.005-0.005,0.012-0.007,0.018-0.005
		c0.08,0.024,0.162,0.05,0.244,0.08c0.369,0.137,0.921,0.412,1.451,0.945c0.069,0.07,0.172,0.091,0.263,0.055
		c0.091-0.037,0.151-0.124,0.153-0.222c0-0.006,0.019-0.668,0.222-1.279c0.003-0.006,0.008-0.011,0.015-0.012
		s0.013,0.003,0.016,0.009c0.139,0.243,0.257,0.496,0.352,0.751c0.305,0.824,0.347,1.605,0.128,2.325
		c-0.002,0.008-0.009,0.012-0.017,0.012c0,0-0.002-0.001-0.003-0.001c-0.15-0.025-0.548-0.112-0.998-0.377
		C6.246,51.247,5.895,50.938,5.583,50.556 M5.999,51.898c-0.004-0.006-0.003-0.013,0-0.019c0.004-0.006,0.01-0.009,0.017-0.007
		c0.444,0.075,1.117,0.279,1.804,0.825c0.078,0.062,0.184,0.071,0.271,0.022c0.087-0.048,0.136-0.143,0.124-0.242
		c-0.003-0.026-0.069-0.627,0.064-1.266c0.001-0.007,0.007-0.012,0.013-0.013c0.007-0.001,0.013,0.002,0.018,0.007
		c0.163,0.237,0.309,0.482,0.43,0.73c0.271,0.547,0.562,1.381,0.414,2.246c-0.002,0.009-0.009,0.014-0.017,0.014H9.135
		c-0.189-0.01-0.574-0.056-1.035-0.26c-0.407-0.18-0.793-0.446-1.146-0.789C6.606,52.806,6.284,52.387,5.999,51.898 M11.626,56.796
		c-0.003-0.006-0.246-0.594-0.3-1.239c-0.001-0.007,0.003-0.013,0.009-0.017s0.013-0.003,0.019,0.002
		c0.57,0.477,1.518,1.474,1.458,2.789c-0.001,0.008-0.007,0.015-0.014,0.016c-0.069,0.013-0.202,0.031-0.382,0.031
		c-0.159,0-0.357-0.014-0.581-0.059c-0.82-0.164-1.661-0.647-2.503-1.434c-0.005-0.005-0.007-0.011-0.005-0.018
		c0.002-0.006,0.008-0.011,0.014-0.012c0.446-0.057,1.15-0.058,1.969,0.263c0.091,0.037,0.195,0.014,0.264-0.056
		C11.644,56.991,11.664,56.887,11.626,56.796 M9.408,55.035c0.085,0.054,0.193,0.051,0.275-0.008
		c0.081-0.059,0.119-0.16,0.093-0.258c-0.002-0.006-0.15-0.608-0.08-1.255c0.001-0.007,0.006-0.012,0.012-0.014
		c0.007-0.002,0.014,0.001,0.019,0.006c0.465,0.562,1.237,1.682,1.165,2.867c-0.001,0.009-0.008,0.016-0.016,0.017
		c-0.033,0.002-0.071,0.003-0.116,0.003c-0.211,0-0.545-0.027-0.941-0.154c-0.424-0.137-0.836-0.361-1.224-0.667
		c-0.383-0.302-0.748-0.685-1.083-1.141c-0.004-0.006-0.005-0.013-0.001-0.019c0.003-0.006,0.007-0.01,0.017-0.009
		C7.977,54.43,8.668,54.563,9.408,55.035 M18.965,48.623c-0.078,0.052-0.153,0.105-0.224,0.154
		c-0.522,0.365-0.846,0.754-0.966,1.155c-0.068-0.013-0.133-0.03-0.192-0.049c-0.4-0.132-0.419-0.334-0.427-0.409
		c-0.012-0.207,0.096-0.393,0.4-0.684c0.357-0.343,0.653-0.51,0.913-0.51c0.092,0,0.18,0.021,0.263,0.062
		c0.126,0.063,0.207,0.136,0.229,0.203C18.968,48.57,18.97,48.596,18.965,48.623 M19.467,50.639
		c-0.159,0.025-0.592,0.074-0.807-0.072c-0.051-0.036-0.105-0.09-0.122-0.232c-0.036-0.34,0.405-0.703,0.67-0.889
		c0.415-0.291,0.7-0.455,0.933-0.455c0.117,0,0.221,0.042,0.322,0.129c0.084,0.073,0.127,0.14,0.124,0.194
		c-0.006,0.108-0.144,0.271-0.269,0.369C19.906,49.966,19.628,50.28,19.467,50.639 M21.541,50.708
		c-0.156,0.123-0.691,0.455-1.072,0.379c-0.061-0.013-0.153-0.041-0.247-0.139c0.177-0.366,0.565-0.614,0.916-0.818
		c0.459-0.266,0.659-0.112,0.665-0.107c0.136,0.131,0.128,0.207,0.125,0.232c-0.016,0.163-0.249,0.362-0.356,0.431
		C21.563,50.692,21.552,50.699,21.541,50.708 M17.182,48.029c-0.06,0.052-0.123,0.109-0.19,0.173
		c-0.24,0.231-0.497,0.515-0.603,0.889c-0.059-0.005-0.117-0.011-0.17-0.02c-0.262-0.043-0.408-0.126-0.437-0.19
		c-0.017-0.04-0.068-0.158,0.085-0.359c0.222-0.291,0.705-0.527,1.05-0.527c0.033,0,0.063,0.003,0.093,0.007
		c0.013,0.002,0.022,0.003,0.034,0.004C17.076,48.009,17.125,48.018,17.182,48.029 M27.675,48.535
		c-0.12,0.113-0.302,0.173-0.542,0.18c-0.341-0.458-1.226-1.539-2.349-2.089c-0.098-0.048-0.209-0.054-0.312-0.02
		c-0.103,0.036-0.186,0.109-0.234,0.206c-0.048,0.098-0.055,0.208-0.02,0.312c0.036,0.103,0.109,0.186,0.206,0.234
		c0.951,0.464,1.738,1.424,2.047,1.835c-0.034,0.069-0.074,0.131-0.121,0.185c-0.152,0.175-0.38,0.26-0.668,0.259
		c-0.103-0.223-0.286-0.487-0.544-0.785c-0.347-0.401-1.046-0.894-1.076-0.915c-0.089-0.062-0.197-0.086-0.304-0.068
		c-0.107,0.019-0.201,0.078-0.263,0.167s-0.087,0.197-0.068,0.304c0.019,0.107,0.078,0.201,0.167,0.263
		c0.18,0.127,0.697,0.513,0.928,0.781c0.271,0.315,0.381,0.506,0.424,0.6c-0.037,0.072-0.097,0.17-0.185,0.255
		c-0.147,0.142-0.323,0.198-0.542,0.171c-0.103-0.23-0.331-0.663-0.743-1.127c-0.149-0.168-0.407-0.183-0.575-0.035
		c-0.082,0.072-0.13,0.172-0.137,0.281c-0.006,0.109,0.03,0.214,0.102,0.295c0.283,0.319,0.459,0.615,0.56,0.817
		c-0.067,0.042-0.139,0.078-0.213,0.108c-0.205,0.081-0.426,0.108-0.657,0.081c0.102-0.159,0.163-0.325,0.181-0.492
		c0.024-0.225-0.02-0.564-0.363-0.9c-0.175-0.178-0.523-0.338-0.982-0.265c-0.035-0.249-0.168-0.476-0.396-0.674
		c-0.371-0.321-0.802-0.41-1.282-0.263v0.001c-0.074-0.187-0.243-0.435-0.619-0.624c-0.338-0.17-0.715-0.197-1.09-0.077
		c-0.334-0.281-0.768-0.335-0.893-0.345c-0.54-0.072-1.239,0.183-1.703,0.622c-2.326,1.244-5.317,2.591-6.534,3.129
		c-0.638-1.199-1.181-2.494-1.617-3.849c-0.119-0.369-0.231-0.749-0.334-1.132c3.419-0.392,6.17-0.793,8.175-1.194
		c2.104-0.421,3.46-0.848,4.154-1.315c0.801-0.564,1.348-0.839,2.113-0.774c0.18,0.015,0.345,0.034,0.497,0.054
		c-0.147,0.061-0.283,0.139-0.418,0.233c-0.321,0.227-0.519,0.387-0.693,0.529c-0.176,0.143-0.315,0.256-0.538,0.401
		c-0.152,0.1-0.361,0.201-0.562,0.3c-0.476,0.234-0.851,0.417-0.973,0.742c-0.128,0.348-0.078,0.654,0.161,0.991
		c0.365,0.511,0.958,0.478,1.433,0.451c0.533-0.03,1.183-0.226,1.657-0.499c0.17-0.098,0.321-0.197,0.453-0.285
		c0.204-0.136,0.381-0.252,0.506-0.278c0.008-0.002,0.016-0.004,0.024-0.006c0.411-0.114,0.877-0.066,1.425,0.147
		c0.494,0.191,0.978,0.487,1.428,0.779c1.066,0.693,1.857,1.63,2.091,1.923C27.839,48.275,27.792,48.424,27.675,48.535
		 M29.152,48.22c-0.35-0.247-0.594-0.503-0.709-0.634c-0.002-0.002-0.003-0.003-0.005-0.004l-0.013-0.016
		c-0.032-0.038-0.052-0.062-0.059-0.072c-0.366-0.439-1.134-1.274-2.155-1.939c-0.751-0.488-2.148-1.397-3.501-1.031
		c-0.27,0.06-0.504,0.215-0.775,0.393c-0.128,0.085-0.26,0.172-0.411,0.259c-0.424,0.245-0.956,0.372-1.296,0.391
		c-0.385,0.022-0.627,0.025-0.724-0.111c-0.088-0.123-0.083-0.166-0.07-0.205c0.087-0.081,0.405-0.237,0.578-0.322
		c0.223-0.109,0.454-0.223,0.648-0.348c0.257-0.167,0.428-0.306,0.607-0.452c0.163-0.133,0.348-0.283,0.647-0.494
		c0.406-0.285,0.85-0.295,1.524-0.308h0.012c0.102-0.002,0.207-0.004,0.317-0.007c0.081-0.003,0.164-0.006,0.251-0.01
		c0.719-0.032,1.37,0.201,2.353,0.555c0.285,0.103,0.609,0.22,0.975,0.344c0.055,0.018,1.38,0.435,3.18,0.863
		c1.562,0.372,3.873,0.844,6.039,0.988c-0.097,0.35-0.2,0.699-0.308,1.035c-0.451,1.407-1.019,2.745-1.687,3.982
		C33.491,50.633,30.875,49.497,29.152,48.22 M34.202,56.884c-1.043,0.978-1.936,1.319-2.501,1.433
		c-0.224,0.045-0.421,0.059-0.581,0.059c-0.169,0-0.299-0.016-0.382-0.031c-0.008-0.001-0.014-0.008-0.014-0.016
		c-0.035-0.744,0.249-1.473,0.845-2.164c0.184-0.214,0.395-0.418,0.626-0.608c0.006-0.005,0.013-0.005,0.019-0.002
		c0.006,0.004,0.01,0.01,0.009,0.017c-0.067,0.622-0.311,1.217-0.313,1.223c-0.039,0.091-0.018,0.195,0.05,0.265
		c0.069,0.07,0.172,0.092,0.264,0.056c0.813-0.32,1.52-0.319,1.968-0.262c0.007,0.001,0.012,0.005,0.014,0.012
		C34.209,56.873,34.208,56.88,34.202,56.884 M36.049,54.43c-0.335,0.455-0.699,0.839-1.082,1.139c-0.388,0.305-0.8,0.53-1.224,0.667
		c-0.395,0.128-0.73,0.154-0.941,0.154c-0.045,0-0.084-0.001-0.117-0.003c-0.009-0.001-0.016-0.008-0.017-0.017
		c-0.05-0.718,0.166-1.461,0.645-2.21c0.149-0.233,0.319-0.458,0.508-0.671c0.004-0.005,0.011-0.008,0.018-0.005
		c0.007,0.002,0.011,0.008,0.012,0.015c0.059,0.637-0.068,1.273-0.069,1.279c-0.02,0.097,0.021,0.195,0.101,0.25
		c0.081,0.055,0.187,0.057,0.27,0.005c0.735-0.468,1.427-0.603,1.879-0.633c0.006-0.001,0.013,0.003,0.016,0.009
		C36.055,54.417,36.054,54.424,36.049,54.43 M36.609,53.146c-0.354,0.345-0.74,0.609-1.146,0.789
		c-0.477,0.211-0.883,0.252-1.036,0.26h-0.001c-0.008,0-0.015-0.006-0.017-0.014c-0.126-0.71,0.011-1.472,0.409-2.265
		c0.123-0.246,0.268-0.488,0.434-0.72c0.004-0.006,0.011-0.008,0.018-0.007c0.007,0.002,0.012,0.007,0.013,0.013
		c0.125,0.62,0.067,1.274,0.066,1.281c-0.009,0.098,0.041,0.191,0.127,0.238c0.086,0.047,0.192,0.038,0.268-0.024
		c0.682-0.542,1.356-0.746,1.803-0.824c0.007-0.001,0.013,0.002,0.017,0.007c0.004,0.006,0.004,0.013,0.001,0.019
		C37.279,52.388,36.958,52.807,36.609,53.146 M37.962,50.518c-0.311,0.382-0.663,0.69-1.045,0.916
		c-0.432,0.254-0.81,0.346-0.995,0.377c-0.001,0-0.002,0.001-0.003,0.001c-0.008,0-0.014-0.005-0.017-0.013
		c-0.213-0.724-0.167-1.508,0.135-2.329c0.091-0.248,0.204-0.493,0.337-0.73c0.003-0.006,0.01-0.01,0.017-0.009
		s0.013,0.005,0.015,0.012c0.196,0.615,0.228,1.262,0.228,1.268c0.004,0.099,0.067,0.185,0.16,0.219
		c0.093,0.035,0.197,0.009,0.263-0.064c0.542-0.589,1.084-0.859,1.444-0.982c0.087-0.03,0.174-0.054,0.261-0.074
		c0.006-0.002,0.013,0.001,0.017,0.006c0.004,0.005,0.005,0.012,0.003,0.018C38.553,49.666,38.277,50.132,37.962,50.518
		 M38.996,47.77c-0.271,0.411-0.59,0.751-0.948,1.014c-0.421,0.307-0.808,0.433-0.954,0.473c-0.002,0.001-0.003,0.001-0.005,0.001
		c-0.007,0-0.013-0.004-0.016-0.011c-0.347-0.838-0.246-1.735-0.1-2.341c0.066-0.273,0.154-0.548,0.262-0.817
		c0.003-0.006,0.009-0.01,0.016-0.01s0.013,0.004,0.016,0.01c0.259,0.598,0.35,1.275,0.355,1.304
		c0.012,0.096,0.081,0.176,0.175,0.204c0.094,0.027,0.195-0.005,0.256-0.081c0.549-0.674,1.164-1.017,1.584-1.186
		c0.006-0.003,0.013-0.001,0.019,0.003c0.005,0.005,0.006,0.012,0.005,0.018C39.487,46.887,39.264,47.363,38.996,47.77
		 M39.755,44.903c-0.218,0.441-0.492,0.818-0.815,1.121c-0.364,0.343-0.712,0.513-0.886,0.585c-0.002,0.001-0.004,0.001-0.007,0.001
		c-0.006,0-0.012-0.003-0.015-0.009c-0.373-0.666-0.509-1.459-0.401-2.355c0.034-0.275,0.089-0.553,0.166-0.827
		c0.002-0.007,0.008-0.012,0.014-0.012c0.007-0.001,0.014,0.002,0.017,0.008c0.334,0.569,0.512,1.27,0.514,1.277
		c0.024,0.096,0.101,0.167,0.199,0.183c0.097,0.015,0.194-0.028,0.246-0.111c0.46-0.737,1.029-1.151,1.424-1.37
		c0.006-0.003,0.013-0.003,0.019,0.001c0.006,0.004,0.008,0.011,0.007,0.017C40.132,43.965,39.971,44.467,39.755,44.903"/>
	<path class="st2" d="M34.194,56.854c-0.448-0.056-1.155-0.057-1.968,0.262c-0.092,0.036-0.195,0.014-0.264-0.056
		c-0.069-0.07-0.089-0.174-0.051-0.265c0.003-0.006,0.246-0.601,0.313-1.223c0-0.007-0.003-0.014-0.009-0.017
		c-0.006-0.003-0.014-0.003-0.019,0.002c-0.231,0.189-0.442,0.394-0.626,0.608c-0.595,0.691-0.88,1.419-0.845,2.164
		c0,0.008,0.006,0.014,0.014,0.016c0.083,0.015,0.214,0.031,0.382,0.031c0.161,0,0.357-0.014,0.581-0.059
		c0.565-0.113,1.457-0.454,2.502-1.433c0.005-0.005,0.006-0.012,0.005-0.018C34.206,56.861,34.2,56.855,34.194,56.854"/>
	<path class="st2" d="M11.355,55.542c-0.005-0.005-0.013-0.005-0.019-0.002c-0.006,0.003-0.01,0.01-0.009,0.017
		c0.054,0.646,0.298,1.235,0.3,1.239c0.039,0.091,0.018,0.195-0.051,0.265c-0.068,0.07-0.172,0.092-0.263,0.056
		c-0.819-0.323-1.524-0.321-1.97-0.263c-0.007,0.001-0.012,0.005-0.014,0.012c-0.002,0.006,0,0.013,0.005,0.018
		c0.841,0.787,1.683,1.27,2.502,1.435c0.224,0.045,0.422,0.059,0.581,0.059c0.18,0,0.313-0.018,0.382-0.03
		c0.008-0.002,0.014-0.008,0.014-0.017C12.871,57.015,11.924,56.019,11.355,55.542"/>
	<path class="st2" d="M36.035,54.402c-0.451,0.03-1.144,0.164-1.879,0.633c-0.083,0.053-0.189,0.051-0.269-0.005
		c-0.081-0.055-0.121-0.153-0.101-0.25c0.001-0.006,0.129-0.643,0.069-1.279c-0.001-0.007-0.005-0.013-0.012-0.015
		c-0.007-0.003-0.014,0-0.018,0.005c-0.188,0.214-0.359,0.44-0.508,0.671c-0.478,0.747-0.696,1.491-0.645,2.21
		c0.001,0.009,0.008,0.016,0.016,0.017c0.034,0.002,0.072,0.003,0.117,0.003c0.211,0,0.544-0.028,0.94-0.155
		c0.424-0.137,0.836-0.361,1.225-0.667c0.383-0.301,0.746-0.684,1.081-1.139c0.004-0.005,0.005-0.012,0.001-0.019
		C36.048,54.405,36.041,54.401,36.035,54.402"/>
	<path class="st2" d="M37.547,51.875c-0.446,0.076-1.121,0.281-1.803,0.823c-0.076,0.061-0.182,0.07-0.268,0.024
		c-0.086-0.047-0.136-0.141-0.127-0.238c0.001-0.007,0.058-0.661-0.066-1.281c-0.002-0.007-0.007-0.012-0.014-0.013
		c-0.007-0.002-0.013,0.001-0.018,0.007c-0.164,0.233-0.311,0.475-0.434,0.721c-0.397,0.793-0.536,1.554-0.409,2.264
		c0.002,0.008,0.009,0.014,0.017,0.014h0.001c0.152-0.008,0.557-0.049,1.036-0.26c0.407-0.18,0.792-0.446,1.146-0.789
		c0.349-0.34,0.67-0.758,0.955-1.245c0.003-0.006,0.003-0.013-0.001-0.019C37.56,51.877,37.553,51.875,37.547,51.875"/>
	<path class="st2" d="M38.762,49.108c-0.087,0.02-0.174,0.046-0.261,0.075c-0.36,0.123-0.902,0.394-1.443,0.982
		c-0.067,0.073-0.171,0.098-0.264,0.064c-0.093-0.035-0.156-0.12-0.16-0.219c0-0.006-0.032-0.653-0.228-1.268
		c-0.002-0.007-0.008-0.011-0.015-0.012s-0.013,0.003-0.017,0.009c-0.133,0.237-0.246,0.482-0.337,0.731
		c-0.302,0.822-0.347,1.605-0.135,2.329c0.002,0.007,0.009,0.012,0.017,0.012c0.001,0,0.002,0,0.003,0
		c0.186-0.031,0.563-0.122,0.995-0.377c0.382-0.225,0.735-0.534,1.045-0.915c0.315-0.387,0.59-0.853,0.819-1.387
		c0.003-0.006,0.002-0.013-0.003-0.018C38.775,49.109,38.768,49.106,38.762,49.108"/>
	<path class="st2" d="M39.637,46.328c-0.42,0.169-1.035,0.512-1.584,1.186c-0.061,0.075-0.162,0.107-0.256,0.08
		s-0.163-0.107-0.175-0.204c-0.004-0.028-0.095-0.705-0.354-1.303c-0.003-0.006-0.009-0.011-0.016-0.011s-0.013,0.005-0.016,0.011
		c-0.108,0.268-0.197,0.544-0.262,0.817c-0.146,0.606-0.247,1.503,0.1,2.341c0.003,0.007,0.009,0.011,0.016,0.011
		c0.001,0,0.003,0,0.005,0c0.148-0.04,0.535-0.166,0.955-0.473c0.358-0.262,0.677-0.603,0.947-1.014
		c0.268-0.406,0.491-0.883,0.663-1.421c0.002-0.006,0-0.013-0.004-0.018C39.65,46.326,39.643,46.326,39.637,46.328"/>
	<path class="st2" d="M40.21,43.394c-0.395,0.219-0.963,0.635-1.425,1.37c-0.052,0.083-0.149,0.127-0.246,0.112
		c-0.097-0.016-0.174-0.088-0.199-0.183c-0.002-0.007-0.179-0.709-0.513-1.278c-0.004-0.006-0.01-0.009-0.017-0.008
		s-0.012,0.006-0.014,0.012c-0.077,0.273-0.134,0.551-0.167,0.827c-0.107,0.896,0.028,1.689,0.401,2.355
		c0.003,0.006,0.009,0.009,0.015,0.009c0.002,0,0.004-0.001,0.007-0.001c0.174-0.072,0.522-0.243,0.887-0.585
		c0.323-0.303,0.596-0.68,0.815-1.121c0.216-0.435,0.377-0.937,0.481-1.491c0.002-0.007-0.002-0.013-0.007-0.018
		C40.223,43.39,40.215,43.39,40.21,43.394"/>
	<path class="st2" d="M39.208,41.96c-0.044,0.09-0.136,0.146-0.236,0.139c-0.1-0.006-0.184-0.071-0.217-0.166
		c-0.002-0.007-0.227-0.66-0.632-1.158c-0.004-0.005-0.011-0.007-0.017-0.006c-0.007,0.002-0.011,0.007-0.012,0.014
		c-0.054,0.28-0.085,0.563-0.09,0.842c-0.017,0.876,0.206,1.632,0.659,2.246c0.004,0.005,0.009,0.007,0.014,0.007
		c0.003,0,0.006,0,0.008-0.002c0.134-0.072,0.48-0.283,0.817-0.678c0.285-0.336,0.515-0.74,0.682-1.201
		c0.165-0.456,0.268-0.973,0.31-1.536c0.001-0.006-0.003-0.013-0.009-0.017c-0.006-0.003-0.013-0.003-0.019,0.002
		C40.101,40.704,39.583,41.179,39.208,41.96"/>
	<path class="st2" d="M39.105,39.296c-0.1,0.006-0.189-0.048-0.233-0.136c-0.003-0.005-0.289-0.577-0.721-1.047
		c-0.005-0.005-0.012-0.007-0.019-0.004c-0.007,0.002-0.011,0.008-0.011,0.015c-0.026,0.72,0.049,2.061,0.849,2.966
		c0.003,0.004,0.008,0.006,0.013,0.006c0.003,0,0.007-0.001,0.01-0.003c0.126-0.084,0.449-0.328,0.744-0.752
		c0.251-0.361,0.44-0.786,0.559-1.261c0.119-0.47,0.171-0.995,0.155-1.56c-0.001-0.007-0.004-0.013-0.01-0.015
		c-0.006-0.003-0.013-0.002-0.019,0.003c-0.341,0.294-0.809,0.816-1.104,1.63C39.289,39.227,39.202,39.29,39.105,39.296"/>
	<path class="st2" d="M38.97,36.433c-0.097,0.015-0.193-0.029-0.246-0.112c-0.003-0.005-0.335-0.531-0.797-0.949
		c-0.005-0.005-0.013-0.006-0.019-0.003c-0.007,0.003-0.01,0.01-0.009,0.017c0.072,0.786,0.311,2.202,1.101,2.857
		c0.003,0.003,0.007,0.004,0.011,0.004s0.008-0.002,0.011-0.004c0.119-0.097,0.423-0.372,0.679-0.833
		c0.215-0.385,0.36-0.827,0.434-1.312c0.072-0.479,0.073-1.007,0.003-1.567c-0.001-0.007-0.006-0.012-0.012-0.014
		c-0.006-0.002-0.013-0.001-0.018,0.005c-0.31,0.327-0.725,0.892-0.94,1.732C39.145,36.347,39.067,36.418,38.97,36.433"/>
	<path class="st2" d="M38.591,33.648c-0.096,0.02-0.194-0.02-0.25-0.101c-0.004-0.005-0.374-0.536-0.868-0.936
		c-0.006-0.005-0.013-0.005-0.019-0.002c-0.006,0.003-0.01,0.01-0.009,0.017c0.03,0.285,0.078,0.565,0.145,0.832
		c0.149,0.595,0.464,1.423,1.129,1.984c0.003,0.003,0.007,0.004,0.011,0.004s0.008-0.002,0.011-0.005
		c0.113-0.102,0.397-0.389,0.629-0.852c0.196-0.395,0.321-0.842,0.371-1.33c0.049-0.482,0.026-1.01-0.071-1.566
		c-0.001-0.007-0.006-0.012-0.013-0.014c-0.006-0.002-0.013,0.001-0.018,0.006c-0.294,0.341-0.682,0.924-0.856,1.772
		C38.762,33.555,38.688,33.629,38.591,33.648"/>
	<path class="st2" d="M37.971,30.899c-0.092,0.033-0.195,0.007-0.261-0.065c-0.004-0.005-0.452-0.488-1.003-0.816
		c-0.006-0.004-0.013-0.004-0.019,0.001c-0.006,0.004-0.008,0.011-0.007,0.018c0.061,0.274,0.144,0.543,0.244,0.797
		c0.325,0.826,0.801,1.44,1.418,1.828c0.003,0.002,0.006,0.003,0.009,0.003c0.005,0,0.01-0.002,0.013-0.006
		c0.097-0.117,0.341-0.44,0.505-0.931c0.141-0.417,0.202-0.877,0.185-1.366c-0.017-0.486-0.114-1.005-0.286-1.542
		c-0.002-0.006-0.008-0.011-0.014-0.012s-0.013,0.002-0.017,0.008c-0.245,0.377-0.548,1.008-0.604,1.872
		C38.126,30.784,38.063,30.868,37.971,30.899"/>
	<path class="st2" d="M36.753,28.17c-0.005-0.004-0.503-0.44-1.082-0.71c-0.006-0.003-0.014-0.002-0.019,0.003
		c-0.005,0.004-0.007,0.011-0.005,0.018c0.09,0.267,0.2,0.525,0.325,0.766c0.408,0.789,0.946,1.352,1.601,1.674
		c0.002,0.001,0.005,0.002,0.008,0.002c0.006,0,0.011-0.003,0.014-0.008c0.084-0.125,0.292-0.471,0.405-0.975
		c0.096-0.43,0.11-0.893,0.043-1.378c-0.068-0.48-0.218-0.987-0.445-1.506c-0.003-0.006-0.009-0.01-0.015-0.01
		c-0.008-0.002-0.012,0.004-0.015,0.009c-0.204,0.4-0.442,1.057-0.407,1.923c0.004,0.098-0.051,0.188-0.14,0.231
		C36.931,28.251,36.826,28.236,36.753,28.17"/>
	<path class="st2" d="M34.321,25.053c-0.005,0.005-0.006,0.012-0.003,0.018c0.113,0.264,0.247,0.518,0.401,0.753
		c0.481,0.736,1.099,1.237,1.836,1.495c0.002,0.001,0.004,0.001,0.006,0.001c0.006,0,0.012-0.004,0.015-0.01
		c0.069-0.134,0.235-0.501,0.287-1.014c0.045-0.438,0.004-0.899-0.121-1.374c-0.124-0.471-0.333-0.957-0.621-1.447
		c-0.003-0.006-0.009-0.009-0.017-0.009c-0.007,0-0.012,0.005-0.014,0.011c-0.155,0.42-0.313,1.099-0.178,1.953
		c0.016,0.099-0.033,0.199-0.119,0.249c-0.087,0.05-0.198,0.042-0.276-0.021c-0.006-0.004-0.55-0.433-1.182-0.612
		C34.333,25.048,34.326,25.049,34.321,25.053"/>
	<path class="st2" d="M32.708,22.917c-0.003,0.006-0.003,0.013,0,0.019c0.169,0.251,0.358,0.487,0.56,0.702
		c0.611,0.649,1.286,1.046,2.005,1.18c0.001,0.001,0.003,0.001,0.003,0.001c0.008,0,0.015-0.005,0.017-0.012
		c0.057-0.177,0.149-0.55,0.12-1.045c-0.027-0.439-0.142-0.889-0.342-1.337c-0.195-0.437-0.473-0.876-0.827-1.306
		c-0.005-0.005-0.011-0.007-0.018-0.006c-0.007,0.002-0.011,0.007-0.013,0.014c-0.074,0.461-0.113,1.172,0.124,1.936
		c0.031,0.1-0.005,0.208-0.089,0.269c-0.085,0.061-0.199,0.062-0.284,0.003c-0.005-0.004-0.55-0.377-1.24-0.426
		C32.717,22.907,32.71,22.912,32.708,22.917"/>
	<path class="st2" d="M32.406,21.18c-0.068,0.075-0.177,0.101-0.271,0.063c-0.006-0.002-0.576-0.221-1.19-0.221
		c-0.031,0-0.061,0-0.092,0.002c-0.007,0-0.013,0.004-0.015,0.011c-0.003,0.006-0.002,0.013,0.003,0.018
		c0.225,0.234,0.461,0.446,0.704,0.634c0.49,0.377,1.24,0.821,2.055,0.821c0.014,0,0.028,0,0.042-0.001
		c0.008,0,0.015-0.007,0.016-0.015c0.02-0.152,0.052-0.561-0.068-1.075c-0.101-0.433-0.287-0.861-0.554-1.272
		c-0.262-0.404-0.605-0.794-1.019-1.159c-0.005-0.005-0.012-0.006-0.019-0.003c-0.006,0.003-0.01,0.009-0.01,0.015
		c-0.013,0.446,0.054,1.138,0.452,1.906C32.486,20.992,32.472,21.103,32.406,21.18"/>
	<path class="st2" d="M10.76,56.39c0.045,0,0.083-0.001,0.116-0.003c0.009,0,0.016-0.007,0.017-0.016
		c0.072-1.185-0.699-2.305-1.165-2.867c-0.004-0.006-0.011-0.008-0.018-0.006s-0.011,0.008-0.012,0.015
		c-0.071,0.646,0.078,1.249,0.079,1.255c0.025,0.098-0.012,0.199-0.093,0.258c-0.082,0.059-0.189,0.062-0.275,0.008
		c-0.74-0.472-1.431-0.606-1.88-0.635c-0.009-0.001-0.013,0.003-0.017,0.009c-0.003,0.006-0.003,0.013,0.001,0.019
		c0.335,0.455,0.699,0.841,1.083,1.141c0.389,0.305,0.801,0.53,1.224,0.667C10.214,56.363,10.549,56.39,10.76,56.39"/>
	<path class="st2" d="M9.136,54.195L9.136,54.195c0.009,0,0.016-0.006,0.018-0.014c0.148-0.864-0.144-1.699-0.414-2.246
		c-0.122-0.248-0.266-0.493-0.43-0.73c-0.004-0.006-0.011-0.008-0.018-0.007c-0.007,0.002-0.012,0.007-0.013,0.013
		c-0.134,0.64-0.067,1.24-0.064,1.266c0.011,0.099-0.038,0.194-0.124,0.242c-0.086,0.049-0.193,0.04-0.27-0.022
		c-0.687-0.545-1.36-0.75-1.804-0.826C6.01,51.87,6.004,51.874,6,51.879c-0.004,0.006-0.004,0.013-0.001,0.019
		c0.284,0.488,0.606,0.908,0.956,1.247c0.354,0.345,0.741,0.61,1.146,0.79C8.562,54.139,8.947,54.186,9.136,54.195"/>
	<path class="st2" d="M7.627,51.848c0.001,0.001,0.002,0.001,0.002,0.001c0.008,0,0.015-0.005,0.018-0.012
		c0.22-0.719,0.176-1.502-0.128-2.325c-0.095-0.256-0.213-0.509-0.351-0.752c-0.004-0.006-0.01-0.009-0.017-0.008
		s-0.012,0.005-0.015,0.012c-0.203,0.61-0.221,1.272-0.221,1.279c-0.002,0.098-0.062,0.185-0.154,0.221
		c-0.091,0.037-0.195,0.015-0.263-0.054c-0.531-0.534-1.082-0.809-1.451-0.945c-0.082-0.031-0.164-0.059-0.244-0.082
		c-0.006-0.002-0.013,0.001-0.018,0.006s-0.006,0.012-0.003,0.018c0.226,0.518,0.496,0.972,0.803,1.348
		c0.311,0.382,0.663,0.69,1.045,0.916C7.079,51.736,7.477,51.824,7.627,51.848"/>
	<path class="st2" d="M6.402,49.311c0.002,0.001,0.003,0.001,0.005,0.001c0.007,0,0.013-0.004,0.016-0.011
		c0.568-1.257,0.172-2.498-0.115-3.125c-0.003-0.006-0.009-0.01-0.015-0.01c-0.007,0-0.013,0.004-0.015,0.01
		c-0.277,0.585-0.376,1.255-0.377,1.262c-0.014,0.097-0.084,0.177-0.178,0.202s-0.195-0.008-0.255-0.085
		c-0.465-0.589-0.981-0.926-1.332-1.104c-0.076-0.04-0.155-0.075-0.234-0.108c-0.006-0.003-0.013-0.002-0.018,0.003
		c-0.005,0.004-0.007,0.011-0.005,0.018C4.547,48.567,5.866,49.159,6.402,49.311"/>
	<path class="st2" d="M4.571,46.101c0.394,0.346,0.771,0.506,0.915,0.558C5.488,46.66,5.49,46.66,5.492,46.66
		c0.006,0,0.012-0.004,0.015-0.009c0.447-0.763,0.585-1.57,0.409-2.399c-0.057-0.267-0.146-0.53-0.264-0.778
		c-0.003-0.006-0.008-0.01-0.014-0.01s-0.013,0.003-0.016,0.008c-0.335,0.564-0.491,1.25-0.497,1.279l0.017,0.004l-0.017-0.004
		c-0.021,0.096-0.096,0.17-0.193,0.188c-0.096,0.018-0.194-0.023-0.248-0.104c-0.489-0.726-1.069-1.12-1.47-1.323
		c-0.006-0.004-0.013-0.003-0.019,0.002c-0.005,0.004-0.008,0.011-0.006,0.018c0.123,0.551,0.302,1.047,0.533,1.476
		C3.951,45.442,4.239,45.808,4.571,46.101"/>
	<path class="st2" d="M4.733,43.963c0.003,0.002,0.006,0.003,0.009,0.003c0.005,0,0.01-0.003,0.014-0.007
		c0.914-1.237,0.826-2.458,0.691-3.076c-0.001-0.007-0.006-0.012-0.012-0.013c-0.006-0.002-0.013,0-0.018,0.006
		c-0.43,0.508-0.695,1.149-0.697,1.155c-0.038,0.09-0.125,0.149-0.223,0.151H4.493c-0.097,0-0.183-0.056-0.223-0.146
		c-0.304-0.684-0.721-1.135-1.017-1.392c-0.065-0.057-0.133-0.112-0.201-0.162c-0.005-0.004-0.012-0.005-0.018-0.002
		c-0.006,0.003-0.01,0.009-0.01,0.016C3.127,42.787,4.252,43.685,4.733,43.963"/>
	<path class="st2" d="M4.495,41.183c0.003,0.002,0.007,0.003,0.01,0.003c0.004,0,0.008-0.002,0.012-0.005
		c0.445-0.428,0.728-0.985,0.841-1.656c0.095-0.561,0.05-1.085-0.004-1.426c-0.001-0.007-0.005-0.012-0.011-0.014
		s-0.012-0.001-0.018,0.004c-0.514,0.47-0.623,1.08-0.625,1.086c-0.019,0.112-0.11,0.195-0.223,0.204
		c-0.113,0.008-0.216-0.061-0.25-0.168c-0.23-0.712-0.596-1.203-0.863-1.489c-0.059-0.063-0.121-0.125-0.183-0.183
		c-0.005-0.005-0.012-0.006-0.018-0.003c-0.006,0.002-0.011,0.008-0.011,0.015C3.008,39.854,4.044,40.859,4.495,41.183"/>
	<path class="st2" d="M3.828,37.41c0.252,0.452,0.551,0.727,0.667,0.824c0.003,0.003,0.007,0.004,0.011,0.004
		c0.004,0,0.008-0.002,0.011-0.005c0.532-0.491,0.874-1.185,1.02-2.062c0.047-0.279,0.07-0.57,0.071-0.862
		c0-0.007-0.004-0.013-0.01-0.016c-0.006-0.003-0.013-0.002-0.019,0.003c-0.489,0.438-0.759,0.997-0.762,1.003
		c-0.044,0.092-0.142,0.149-0.245,0.138c-0.102-0.01-0.188-0.083-0.214-0.182c-0.214-0.84-0.629-1.405-0.939-1.732
		c-0.005-0.005-0.012-0.006-0.019-0.004c-0.004,0.001-0.009,0.007-0.009,0.014c-0.07,0.56-0.07,1.088,0.003,1.567
		C3.467,36.583,3.613,37.025,3.828,37.41"/>
	<path class="st2" d="M4.124,34.552c0.22,0.443,0.484,0.721,0.622,0.847c0.004,0.003,0.007,0.005,0.012,0.005
		c0.004,0,0.008-0.002,0.011-0.004c0.612-0.545,1.019-1.243,1.208-2.077c0.057-0.25,0.092-0.507,0.105-0.762
		c0-0.007-0.003-0.013-0.009-0.017c-0.006-0.003-0.013-0.002-0.019,0.002c-0.508,0.399-0.888,0.941-0.904,0.963
		c-0.055,0.08-0.154,0.121-0.249,0.101c-0.096-0.02-0.171-0.094-0.19-0.19c-0.174-0.847-0.562-1.432-0.856-1.772
		c-0.004-0.006-0.011-0.008-0.018-0.006c-0.006,0.002-0.011,0.007-0.012,0.014c-0.097,0.556-0.121,1.084-0.071,1.566
		C3.803,33.711,3.928,34.158,4.124,34.552"/>
	<path class="st2" d="M5.125,32.625c0.004,0.004,0.008,0.006,0.013,0.006c0.003,0,0.007-0.001,0.009-0.003
		c0.737-0.46,1.246-1.108,1.514-1.925c0.083-0.25,0.139-0.509,0.168-0.767c0.001-0.007-0.002-0.013-0.008-0.017
		c-0.005-0.004-0.012-0.004-0.018-0.001c-0.603,0.344-1.04,0.86-1.043,0.865c-0.064,0.076-0.167,0.107-0.262,0.076
		c-0.095-0.031-0.161-0.115-0.169-0.214c-0.068-0.869-0.38-1.493-0.63-1.864c-0.004-0.006-0.01-0.008-0.017-0.007
		c-0.007,0-0.012,0.006-0.014,0.012c-0.165,0.542-0.254,1.063-0.265,1.549c-0.011,0.49,0.058,0.948,0.204,1.364
		C4.777,32.19,5.026,32.51,5.125,32.625"/>
	<path class="st2" d="M5.836,29.906c0.003,0.005,0.009,0.008,0.014,0.008c0.003,0,0.005-0.001,0.008-0.002
		c0.787-0.392,1.373-0.973,1.743-1.728c0.113-0.231,0.202-0.472,0.264-0.717c0.002-0.007,0-0.013-0.005-0.018
		c-0.005-0.004-0.012-0.005-0.018-0.003c-0.605,0.26-1.124,0.706-1.146,0.725c-0.073,0.064-0.178,0.078-0.266,0.036
		c-0.088-0.043-0.143-0.134-0.138-0.232c0.042-0.871-0.188-1.529-0.389-1.929C5.9,26.04,5.894,26.037,5.888,26.037l0,0
		c-0.007,0-0.013,0.004-0.015,0.01c-0.233,0.517-0.388,1.023-0.459,1.504c-0.072,0.485-0.062,0.948,0.03,1.378
		C5.546,29.414,5.733,29.75,5.836,29.906"/>
	<path class="st2" d="M6.859,27.31c0.003,0.006,0.009,0.01,0.015,0.01c0.002,0,0.004,0,0.005-0.001
		c0.71-0.207,1.336-0.676,1.859-1.395c0.225-0.309,0.385-0.605,0.479-0.8c0.003-0.006,0.002-0.012-0.002-0.018
		c-0.004-0.005-0.01-0.008-0.017-0.007c-0.688,0.095-1.187,0.578-1.192,0.583c-0.077,0.076-0.193,0.092-0.288,0.042
		c-0.095-0.051-0.145-0.157-0.124-0.263c0.172-0.854,0.044-1.539-0.095-1.962c-0.003-0.006-0.008-0.011-0.014-0.012
		c-0.005-0.002-0.012,0.001-0.016,0.007c-0.309,0.476-0.538,0.954-0.681,1.42c-0.145,0.468-0.204,0.928-0.178,1.366
		C6.644,26.799,6.796,27.174,6.859,27.31"/>
	<path class="st2" d="M8.29,24.823c0.001,0,0.002,0,0.003,0c1.184-0.199,2.102-1.266,2.543-1.884
		c0.004-0.006,0.004-0.012,0.001-0.019c-0.004-0.006-0.01-0.009-0.017-0.009c-0.68,0.057-1.217,0.421-1.222,0.425
		c-0.086,0.059-0.201,0.057-0.285-0.006c-0.084-0.062-0.119-0.172-0.085-0.272c0.273-0.828,0.229-1.522,0.143-1.957
		c-0.002-0.007-0.006-0.011-0.012-0.013c-0.007-0.002-0.013,0-0.018,0.005c-1.481,1.782-1.24,3.195-1.068,3.718
		C8.276,24.819,8.283,24.823,8.29,24.823"/>
	<path class="st2" d="M9.955,22.514c0.028,0.002,0.055,0.002,0.084,0.002c0.704,0,1.435-0.446,1.932-0.83
		c0.244-0.187,0.487-0.4,0.723-0.635c0.005-0.005,0.007-0.013,0.004-0.019c-0.003-0.007-0.01-0.01-0.016-0.011
		c-0.628,0.022-1.22,0.221-1.226,0.223c-0.095,0.032-0.199,0.004-0.264-0.072s-0.077-0.183-0.032-0.271
		c0.403-0.774,0.469-1.465,0.454-1.91c0-0.006-0.004-0.012-0.01-0.015c-0.006-0.003-0.013-0.002-0.018,0.003
		c-0.43,0.376-0.783,0.774-1.05,1.182c-0.269,0.411-0.454,0.838-0.55,1.267c-0.116,0.515-0.071,0.921-0.047,1.07
		C9.94,22.509,9.947,22.514,9.955,22.514"/>
	<path class="st5" d="M17.139,32.971c0.136,0.165,0.359,0.246,0.683,0.246h3.171c-1.903-1.181-2.603-0.968-3.93-0.364
		C17.087,32.896,17.113,32.937,17.139,32.971"/>
	<path class="st5" d="M24.885,31.518c-0.298-0.079-0.58-0.153-0.831-0.253c-0.997-0.399-1.819-1.043-1.852-1.07
		c-0.201-0.159-0.235-0.452-0.075-0.653c0.158-0.201,0.452-0.235,0.652-0.076c0.008,0.006,0.749,0.587,1.622,0.937
		c0.196,0.078,0.451,0.147,0.721,0.217c0.393,0.105,0.875,0.232,1.283,0.441c-0.084-0.524-0.165-0.971-0.255-1.398
		c-1.278-0.285-2.33-1.146-2.375-1.184c-0.095-0.078-0.154-0.19-0.166-0.314c-0.012-0.124,0.026-0.245,0.105-0.341
		c0.163-0.197,0.456-0.225,0.654-0.061c0.007,0.006,0.683,0.555,1.535,0.861c-0.338-1.26-0.795-2.443-1.396-3.614
		c-0.43-0.836-1.061-1.396-1.879-1.665c-0.596-0.196-1.071-0.157-1.076-0.157c-0.015,0.001-0.029,0.002-0.044,0.002
		c-0.015,0-1.541,0.025-2.5,1.154c-0.007,0.009-0.015,0.017-0.023,0.025c-0.177,0.181-0.652,0.743-0.725,1.164
		c-0.04,0.234,0.021,0.42,0.16,0.499c0.066,0.038,0.314,0.136,0.747-0.167c0.107-0.089,0.177-0.14,0.196-0.152
		c0.204-0.142,0.481-0.098,0.634,0.098c0.151,0.197,0.123,0.476-0.066,0.638c-0.06,0.051-0.122,0.1-0.183,0.145
		c-0.192,0.162-0.583,0.525-1.013,1.105c-0.573,0.773-1.338,2.106-1.727,4.057c-0.008,0.039-0.015,0.077-0.021,0.116
		c1.32-0.571,2.389-0.809,4.739,0.708c0.917,0.592,1.98,0.636,2.184,0.639h1.039c0.011,0,0.021,0.001,0.032,0.001
		c0.267,0.018,1.043-0.023,1.396-0.405c0.06-0.066,0.107-0.143,0.139-0.228C26.49,32.035,25.991,31.81,24.885,31.518"/>
	<path class="st6" d="M20.318,49.682c0.125-0.098,0.263-0.261,0.269-0.369c0.003-0.053-0.04-0.121-0.124-0.194
		c-0.101-0.087-0.204-0.13-0.322-0.13c-0.233,0-0.518,0.164-0.933,0.455c-0.265,0.186-0.705,0.549-0.67,0.889
		c0.017,0.142,0.07,0.197,0.122,0.232c0.215,0.147,0.646,0.097,0.807,0.072C19.628,50.279,19.906,49.966,20.318,49.682"/>
	<path class="st6" d="M21.927,50.256c0.003-0.025,0.011-0.101-0.125-0.232c-0.005-0.004-0.205-0.158-0.665,0.108
		c-0.351,0.204-0.74,0.451-0.916,0.818c0.093,0.098,0.184,0.126,0.246,0.139c0.381,0.075,0.916-0.256,1.073-0.379
		c0.011-0.009,0.022-0.015,0.031-0.022C21.677,50.618,21.912,50.418,21.927,50.256"/>
	<path class="st6" d="M17.01,48.005c-0.03-0.005-0.061-0.007-0.094-0.007c-0.345,0-0.828,0.237-1.05,0.527
		c-0.153,0.201-0.102,0.32-0.085,0.358c0.028,0.064,0.173,0.148,0.437,0.19c0.053,0.009,0.11,0.015,0.17,0.02
		c0.106-0.374,0.363-0.658,0.603-0.889c0.067-0.065,0.13-0.121,0.19-0.173c-0.056-0.013-0.106-0.021-0.137-0.023
		C17.033,48.007,17.024,48.007,17.01,48.005"/>
	<path class="st6" d="M17.156,49.476c0.007,0.075,0.026,0.277,0.427,0.409c0.059,0.02,0.124,0.036,0.191,0.049
		c0.12-0.401,0.446-0.79,0.966-1.155c0.07-0.049,0.147-0.102,0.225-0.155c0.004-0.028,0.003-0.053-0.005-0.075
		c-0.022-0.067-0.103-0.14-0.229-0.202c-0.084-0.042-0.171-0.063-0.263-0.063c-0.259,0-0.556,0.167-0.913,0.51
		C17.253,49.083,17.144,49.269,17.156,49.476"/>
	<path class="st6" d="M27.132,48.715c0.24-0.006,0.422-0.066,0.542-0.18c0.118-0.111,0.165-0.261,0.184-0.373
		c-0.234-0.294-1.025-1.23-2.091-1.923c-0.448-0.292-0.933-0.589-1.428-0.78c-0.547-0.212-1.013-0.259-1.425-0.146
		c-0.008,0.002-0.016,0.004-0.024,0.006c-0.125,0.027-0.301,0.143-0.506,0.278c-0.133,0.088-0.283,0.187-0.453,0.285
		c-0.474,0.273-1.126,0.469-1.657,0.499c-0.475,0.027-1.067,0.059-1.433-0.45c-0.239-0.337-0.288-0.642-0.16-0.991
		c0.122-0.325,0.497-0.508,0.973-0.741c0.202-0.099,0.41-0.201,0.562-0.3c0.223-0.145,0.361-0.257,0.538-0.401
		c0.174-0.142,0.371-0.303,0.692-0.529c0.135-0.094,0.272-0.171,0.418-0.234c-0.153-0.021-0.318-0.039-0.497-0.054
		c-0.764-0.064-1.312,0.21-2.113,0.775c-0.694,0.466-2.05,0.894-4.154,1.315c-2.006,0.4-4.756,0.802-8.175,1.194
		c0.103,0.381,0.216,0.761,0.334,1.131c0.436,1.356,0.979,2.651,1.617,3.849c1.216-0.538,4.208-1.885,6.534-3.129
		c0.462-0.44,1.163-0.695,1.702-0.622c0.125,0.01,0.559,0.064,0.893,0.345c0.376-0.119,0.752-0.093,1.09,0.077
		c0.377,0.189,0.545,0.437,0.619,0.624l0,0c0.479-0.147,0.911-0.057,1.282,0.264c0.228,0.198,0.361,0.424,0.396,0.674
		c0.459-0.073,0.807,0.086,0.982,0.265c0.344,0.335,0.386,0.674,0.363,0.9c-0.018,0.167-0.078,0.333-0.181,0.492
		c0.232,0.028,0.451,0,0.657-0.081c0.074-0.03,0.146-0.065,0.213-0.107c-0.101-0.202-0.277-0.498-0.56-0.817
		c-0.072-0.081-0.109-0.186-0.102-0.295c0.006-0.109,0.054-0.208,0.136-0.281c0.168-0.149,0.426-0.135,0.575,0.034
		c0.412,0.464,0.64,0.897,0.743,1.127c0.219,0.026,0.395-0.03,0.542-0.172c0.088-0.085,0.149-0.183,0.185-0.255
		c-0.043-0.094-0.151-0.285-0.424-0.6c-0.232-0.267-0.748-0.654-0.928-0.781c-0.089-0.062-0.149-0.155-0.167-0.263
		c-0.019-0.107,0.006-0.216,0.068-0.305s0.156-0.149,0.263-0.167c0.108-0.019,0.216,0.006,0.304,0.068
		c0.03,0.021,0.73,0.513,1.076,0.914c0.257,0.299,0.441,0.562,0.544,0.785c0.288,0.001,0.515-0.084,0.668-0.259
		c0.047-0.053,0.087-0.116,0.121-0.185c-0.309-0.412-1.097-1.371-2.047-1.835c-0.098-0.048-0.171-0.132-0.207-0.235
		s-0.028-0.214,0.02-0.311c0.048-0.098,0.131-0.171,0.234-0.207c0.103-0.036,0.214-0.028,0.312,0.02
		C25.906,47.176,26.792,48.257,27.132,48.715"/>
	<path class="st6" d="M21.936,44.918c0.27-0.179,0.504-0.334,0.774-0.394c1.353-0.365,2.75,0.543,3.501,1.032
		c1.023,0.665,1.79,1.5,2.156,1.939c0.007,0.009,0.027,0.035,0.058,0.072l0.014,0.015c0.002,0.002,0.003,0.003,0.005,0.005
		c0.114,0.131,0.358,0.386,0.709,0.634c1.723,1.277,4.339,2.414,5.421,2.858c0.669-1.236,1.237-2.575,1.688-3.982
		c0.108-0.335,0.211-0.683,0.308-1.035c-2.166-0.145-4.477-0.616-6.04-0.988c-1.8-0.429-3.124-0.845-3.18-0.863
		c-0.366-0.124-0.69-0.241-0.975-0.345c-0.982-0.353-1.633-0.587-2.352-0.555c-0.087,0.004-0.17,0.007-0.252,0.009
		c-0.11,0.003-0.215,0.005-0.317,0.008h-0.014c-0.673,0.013-1.118,0.022-1.524,0.308c-0.299,0.211-0.484,0.361-0.647,0.494
		c-0.18,0.147-0.349,0.284-0.608,0.452c-0.194,0.126-0.426,0.24-0.648,0.348c-0.172,0.084-0.491,0.24-0.578,0.321
		c-0.012,0.04-0.017,0.082,0.071,0.205c0.097,0.136,0.338,0.133,0.724,0.111c0.34-0.02,0.872-0.148,1.296-0.392
		C21.675,45.09,21.808,45.004,21.936,44.918"/>
</g>
</svg>
