<?xml version="1.0" encoding="utf-8"?>
<!-- Generator: Adobe Illustrator 19.2.0, SVG Export Plug-In . SVG Version: 6.00 Build 0)  -->
<svg version="1.1" id="Layer_1" xmlns="http://www.w3.org/2000/svg" xmlns:xlink="http://www.w3.org/1999/xlink" x="0px" y="0px"
	 viewBox="0 0 367 70" style="enable-background:new 0 0 367 70;" xml:space="preserve">
<style type="text/css">
	.st0{fill:#FFC10E;}
	.st1{fill:#FBBB80;}
	.st2{fill:#2DA34A;stroke:#2DA34A;stroke-miterlimit:10;}
	.st3{fill:#0094D4;}
	.st4{fill:#EE4023;}
	.st5{fill:#231F20;}
	.st6{fill:#FFFFFF;}
</style>
<g>
	<polygon class="st0" points="23.1,14.2 31.6,15.7 32.2,15.2 30,14.2 32.8,13.5 29.7,12.8 33,11.5 29.6,11.4 32.1,9.6 28.9,10 
		31,7.9 28.3,8.8 29.6,6.5 27.3,7.7 28.1,5.2 26,6.8 26.3,4.1 24.8,6.2 24.5,3.8 23.3,6 22.6,3.5 21.9,5.8 20.7,3.8 20.4,6.2 
		18.6,4.3 19,6.9 17,5.2 17.7,7.8 15.5,6.4 16.9,8.8 14.3,7.9 16,9.9 13.3,9.7 15.3,11.4 12.7,11.4 15.3,12.8 12.1,13.5 14.9,14.1 
		12.5,15.4 15.4,15.8 16.5,14.7 18.2,14.8 20.6,14.2 	"/>
	<polygon class="st1" points="8.7,52.5 15.5,49.4 17.6,51 21.2,52.5 25.8,51.5 29.5,49.2 36.1,52.5 38.8,46.4 32.8,45.6 22,42.7 
		18.3,44.2 14.9,45 6.1,46.2 	"/>
	<g>
		<path class="st2" d="M35.7,58.2c-0.5-0.1-1.2-0.1-2.1,0.3c-0.1,0-0.2,0-0.3-0.1s-0.1-0.2-0.1-0.3c0,0,0.3-0.6,0.3-1.3l0,0l0,0
			c-0.2,0.2-0.5,0.4-0.7,0.6c-0.6,0.7-0.9,1.5-0.9,2.3l0,0c0.1,0,0.2,0,0.4,0s0.4,0,0.6-0.1C33.6,59.6,34.6,59.2,35.7,58.2
			L35.7,58.2L35.7,58.2"/>
		<path class="st2" d="M37.6,55.6c-0.5,0-1.2,0.2-2,0.7c-0.1,0.1-0.2,0.1-0.3,0s-0.1-0.2-0.1-0.3c0,0,0.1-0.7,0.1-1.4l0,0l0,0
			c-0.2,0.2-0.4,0.5-0.5,0.7c-0.5,0.8-0.7,1.6-0.7,2.3l0,0h0.1c0.2,0,0.6,0,1-0.2c0.4-0.1,0.9-0.4,1.3-0.7
			C36.9,56.5,37.3,56.1,37.6,55.6L37.6,55.6L37.6,55.6"/>
		<path class="st2" d="M39.2,52.9c-0.5,0.1-1.2,0.3-1.9,0.9c-0.1,0.1-0.2,0.1-0.3,0c-0.1,0-0.1-0.1-0.1-0.3c0,0,0.1-0.7-0.1-1.4l0,0
			l0,0c-0.2,0.2-0.3,0.5-0.5,0.8c-0.4,0.8-0.6,1.6-0.4,2.4l0,0l0,0c0.2,0,0.6-0.1,1.1-0.3c0.4-0.2,0.8-0.5,1.2-0.8
			C38.6,53.9,38.9,53.4,39.2,52.9L39.2,52.9L39.2,52.9"/>
		<path class="st2" d="M40.5,50c-0.1,0-0.2,0-0.3,0.1c-0.4,0.1-1,0.4-1.5,1c-0.1,0.1-0.2,0.1-0.3,0.1s-0.2-0.1-0.2-0.2
			c0,0,0-0.7-0.2-1.3l0,0l0,0c-0.1,0.3-0.3,0.5-0.4,0.8c-0.3,0.9-0.4,1.7-0.1,2.5l0,0l0,0c0.2,0,0.6-0.1,1.1-0.4
			c0.4-0.2,0.8-0.6,1.1-1C40,51,40.3,50.5,40.5,50L40.5,50L40.5,50"/>
		<path class="st2" d="M41.4,47c-0.4,0.2-1.1,0.5-1.7,1.3c-0.1,0.1-0.2,0.1-0.3,0.1s-0.2-0.1-0.2-0.2c0,0-0.1-0.7-0.4-1.4l0,0l0,0
			l0,0c-0.1,0.3-0.2,0.6-0.3,0.9c-0.2,0.6-0.3,1.6,0.1,2.5l0,0l0,0c0.2,0,0.6-0.2,1-0.5s0.7-0.6,1-1.1C41,48.1,41.3,47.6,41.4,47
			C41.5,47,41.5,47,41.4,47L41.4,47"/>
		<path class="st2" d="M11.4,56.8L11.4,56.8L11.4,56.8c0,0.7,0.3,1.3,0.3,1.3c0,0.1,0,0.2-0.1,0.3s-0.2,0.1-0.3,0.1
			c-0.9-0.3-1.6-0.3-2.1-0.3l0,0l0,0c0.9,0.8,1.8,1.3,2.7,1.5c0.2,0,0.4,0.1,0.6,0.1c0.2,0,0.3,0,0.4,0l0,0
			C13.1,58.3,12,57.3,11.4,56.8"/>
		<path class="st2" d="M42,43.9c-0.4,0.2-1,0.7-1.5,1.5c-0.1,0.1-0.2,0.1-0.3,0.1S40,45.4,40,45.3c0,0-0.2-0.8-0.5-1.4l0,0l0,0
			c-0.1,0.3-0.1,0.6-0.2,0.9c-0.1,1,0,1.8,0.4,2.5l0,0l0,0c0.2-0.1,0.6-0.3,0.9-0.6c0.3-0.3,0.6-0.7,0.9-1.2
			C41.8,45,42,44.5,42,43.9C42.1,43.9,42.1,43.9,42,43.9L42,43.9"/>
		<path class="st2" d="M41,42.4c0,0.1-0.1,0.2-0.2,0.1c-0.1,0-0.2-0.1-0.2-0.2c0,0-0.2-0.7-0.7-1.2l0,0l0,0
			c-0.1,0.3-0.1,0.6-0.1,0.9c0,0.9,0.2,1.7,0.7,2.4l0,0l0,0c0.1-0.1,0.5-0.3,0.9-0.7c0.3-0.4,0.5-0.8,0.7-1.3s0.3-1,0.3-1.6l0,0l0,0
			C41.9,41,41.4,41.6,41,42.4"/>
		<path class="st2" d="M40.9,39.6c-0.1,0-0.2-0.1-0.2-0.1s-0.3-0.6-0.8-1.1l0,0l0,0c0,0.8,0.1,2.2,0.9,3.1l0,0l0,0
			c0.1-0.1,0.5-0.3,0.8-0.8c0.3-0.4,0.5-0.8,0.6-1.3s0.2-1.1,0.2-1.7l0,0l0,0c-0.4,0.3-0.9,0.9-1.2,1.7C41.1,39.5,41,39.5,40.9,39.6
			"/>
		<path class="st2" d="M40.7,36.5c-0.1,0-0.2,0-0.3-0.1c0,0-0.4-0.6-0.8-1l0,0l0,0c0.1,0.8,0.3,2.3,1.2,3l0,0l0,0
			c0.1-0.1,0.4-0.4,0.7-0.9c0.2-0.4,0.4-0.9,0.5-1.4s0.1-1.1,0-1.7l0,0l0,0c-0.3,0.3-0.8,0.9-1,1.8C40.9,36.4,40.8,36.5,40.7,36.5"
			/>
		<path class="st2" d="M40.3,33.6c-0.1,0-0.2,0-0.3-0.1c0,0-0.4-0.6-0.9-1l0,0l0,0c0,0.3,0.1,0.6,0.2,0.9c0.2,0.6,0.5,1.5,1.2,2.1
			l0,0l0,0c0.1-0.1,0.4-0.4,0.7-0.9c0.2-0.4,0.3-0.9,0.4-1.4c0.1-0.5,0-1.1-0.1-1.7l0,0l0,0c-0.3,0.4-0.7,1-0.9,1.9
			C40.5,33.5,40.4,33.5,40.3,33.6"/>
		<path class="st2" d="M39.7,30.7c-0.1,0-0.2,0-0.3-0.1c0,0-0.5-0.5-1.1-0.9l0,0l0,0c0.1,0.3,0.2,0.6,0.3,0.8
			c0.3,0.9,0.8,1.5,1.5,1.9l0,0l0,0c0.1-0.1,0.4-0.5,0.5-1c0.1-0.4,0.2-0.9,0.2-1.4s-0.1-1.1-0.3-1.6l0,0l0,0
			c-0.3,0.4-0.6,1.1-0.6,2C39.8,30.5,39.8,30.6,39.7,30.7"/>
		<path class="st2" d="M38.4,27.8c0,0-0.5-0.5-1.1-0.8l0,0l0,0c0.1,0.3,0.2,0.6,0.3,0.8c0.4,0.8,1,1.4,1.7,1.8l0,0l0,0
			c0.1-0.1,0.3-0.5,0.4-1c0.1-0.5,0.1-0.9,0-1.5c-0.1-0.5-0.2-1-0.5-1.6l0,0l0,0c-0.2,0.4-0.5,1.1-0.4,2c0,0.1-0.1,0.2-0.1,0.2
			C38.6,27.8,38.4,27.8,38.4,27.8"/>
		<path class="st2" d="M35.8,24.5L35.8,24.5c0.1,0.3,0.3,0.6,0.4,0.8c0.5,0.8,1.2,1.3,1.9,1.6l0,0l0,0c0.1-0.1,0.2-0.5,0.3-1.1
			c0-0.5,0-1-0.1-1.5s-0.4-1-0.7-1.5l0,0l0,0c-0.2,0.4-0.3,1.2-0.2,2.1c0,0.1,0,0.2-0.1,0.3c-0.1,0.1-0.2,0-0.3,0
			C37.1,25.1,36.5,24.6,35.8,24.5L35.8,24.5"/>
		<path class="st2" d="M34.1,22.2L34.1,22.2c0.2,0.3,0.4,0.5,0.6,0.8c0.6,0.7,1.4,1.1,2.1,1.3l0,0l0,0c0.1-0.2,0.2-0.6,0.1-1.1
			c0-0.5-0.2-0.9-0.4-1.4s-0.5-0.9-0.9-1.4l0,0l0,0c-0.1,0.5-0.1,1.2,0.1,2.1c0,0.1,0,0.2-0.1,0.3c-0.1,0.1-0.2,0.1-0.3,0
			C35.4,22.6,34.8,22.2,34.1,22.2L34.1,22.2"/>
		<path class="st2" d="M33.8,20.3c-0.1,0.1-0.2,0.1-0.3,0.1c0,0-0.6-0.2-1.3-0.2h-0.1l0,0l0,0c0.2,0.2,0.5,0.5,0.7,0.7
			c0.5,0.4,1.3,0.9,2.2,0.9l0,0l0,0c0-0.2,0.1-0.6-0.1-1.1c-0.1-0.5-0.3-0.9-0.6-1.3s-0.6-0.8-1.1-1.2l0,0l0,0c0,0.5,0.1,1.2,0.5,2
			C33.8,20.2,33.8,20.3,33.8,20.3"/>
		<path class="st2" d="M10.8,57.7h0.1l0,0c0.1-1.3-0.7-2.4-1.2-3l0,0l0,0C9.6,55.3,9.8,56,9.8,56c0,0.1,0,0.2-0.1,0.3
			s-0.2,0.1-0.3,0c-0.8-0.5-1.5-0.6-2-0.7l0,0l0,0c0.4,0.5,0.7,0.9,1.1,1.2c0.4,0.3,0.8,0.6,1.3,0.7C10.2,57.7,10.6,57.7,10.8,57.7"
			/>
		<path class="st2" d="M9.1,55.4L9.1,55.4C9.1,55.4,9.1,55.3,9.1,55.4c0.2-1-0.1-1.9-0.4-2.4c-0.1-0.3-0.3-0.5-0.5-0.8l0,0l0,0
			c-0.1,0.7-0.1,1.3-0.1,1.3c0,0.1,0,0.2-0.1,0.3s-0.2,0-0.3,0C7,53.2,6.3,53,5.8,52.9l0,0l0,0c0.3,0.5,0.6,1,1,1.3
			C7.2,54.6,7.6,54.8,8,55C8.5,55.3,8.9,55.3,9.1,55.4"/>
		<path class="st2" d="M7.5,52.9L7.5,52.9L7.5,52.9c0.3-0.8,0.2-1.6-0.1-2.5c-0.1-0.3-0.2-0.5-0.4-0.8l0,0l0,0
			c-0.2,0.6-0.2,1.3-0.2,1.4c0,0.1-0.1,0.2-0.2,0.2s-0.2,0-0.3-0.1c-0.6-0.6-1.1-0.9-1.5-1c-0.1,0-0.2-0.1-0.3-0.1l0,0l0,0
			c0.2,0.5,0.5,1,0.9,1.4c0.3,0.4,0.7,0.7,1.1,1C6.9,52.7,7.3,52.8,7.5,52.9"/>
		<path class="st2" d="M6.2,50.2L6.2,50.2L6.2,50.2c0.6-1.3,0.2-2.7-0.1-3.3l0,0l0,0l0,0c-0.3,0.6-0.4,1.3-0.4,1.3
			c0,0.1-0.1,0.2-0.2,0.2s-0.2,0-0.3-0.1c-0.5-0.6-1-1-1.4-1.2c-0.1,0-0.2-0.1-0.2-0.1l0,0l0,0C4.2,49.4,5.6,50,6.2,50.2"/>
		<path class="st2" d="M4.3,46.8c0.4,0.4,0.8,0.5,1,0.6l0,0l0,0c0.5-0.8,0.6-1.7,0.4-2.5c-0.1-0.3-0.2-0.6-0.3-0.8l0,0l0,0
			c-0.4,0.6-0.5,1.3-0.5,1.4l0,0l0,0c0,0.1-0.1,0.2-0.2,0.2s-0.2,0-0.3-0.1c-0.5-0.8-1.1-1.2-1.6-1.4l0,0l0,0
			c0.1,0.6,0.3,1.1,0.6,1.6C3.6,46.1,3.9,46.5,4.3,46.8"/>
		<path class="st2" d="M4.4,44.5L4.4,44.5L4.4,44.5c1-1.3,0.9-2.6,0.8-3.3l0,0l0,0c-0.5,0.5-0.7,1.2-0.7,1.2c0,0.1-0.1,0.2-0.2,0.2
			l0,0l0,0c-0.1,0-0.2-0.1-0.2-0.2c-0.3-0.7-0.8-1.2-1.1-1.5c-0.1-0.1-0.1-0.1-0.2-0.2l0,0l0,0C2.7,43.3,3.9,44.2,4.4,44.5"/>
		<path class="st2" d="M4.2,41.6L4.2,41.6L4.2,41.6c0.5-0.5,0.8-1,0.9-1.8c0.1-0.6,0.1-1.2,0-1.5l0,0l0,0c-0.5,0.5-0.7,1.1-0.7,1.2
			c0,0.1-0.1,0.2-0.2,0.2S4,39.6,3.9,39.5c-0.2-0.8-0.6-1.3-0.9-1.6c-0.1-0.1-0.1-0.1-0.2-0.2l0,0l0,0C2.6,40.1,3.7,41.2,4.2,41.6"
			/>
		<path class="st2" d="M3.5,37.6C3.7,38,4,38.3,4.2,38.4l0,0l0,0c0.6-0.5,0.9-1.3,1.1-2.2c0-0.3,0.1-0.6,0.1-0.9l0,0l0,0
			c-0.5,0.5-0.8,1.1-0.8,1.1c0,0.1-0.2,0.2-0.3,0.1c-0.1,0-0.2-0.1-0.2-0.2c-0.2-0.9-0.7-1.5-1-1.8l0,0l0,0c-0.1,0.6-0.1,1.2,0,1.7
			C3.1,36.7,3.2,37.1,3.5,37.6"/>
		<path class="st2" d="M3.8,34.5C4,35,4.3,35.3,4.4,35.4l0,0l0,0c0.6-0.6,1.1-1.3,1.3-2.2c0.1-0.3,0.1-0.5,0.1-0.8l0,0l0,0
			c-0.5,0.4-0.9,1-1,1c-0.1,0.1-0.2,0.1-0.3,0.1c-0.1,0-0.2-0.1-0.2-0.2c-0.2-0.9-0.6-1.5-0.9-1.9l0,0l0,0c-0.1,0.6-0.1,1.1-0.1,1.7
			C3.4,33.6,3.6,34.1,3.8,34.5"/>
		<path class="st2" d="M4.8,32.5L4.8,32.5C4.9,32.5,4.9,32.5,4.8,32.5c0.8-0.5,1.3-1.2,1.6-2c0.1-0.3,0.1-0.5,0.2-0.8l0,0l0,0
			C6,30,5.5,30.5,5.5,30.5c-0.1,0.1-0.2,0.1-0.3,0.1c-0.1,0-0.2-0.1-0.2-0.2c-0.1-0.9-0.4-1.6-0.7-2l0,0l0,0C4.1,29,4,29.5,4,30
			s0.1,1,0.2,1.4C4.5,32,4.7,32.4,4.8,32.5"/>
		<path class="st2" d="M5.6,29.6L5.6,29.6L5.6,29.6c0.9-0.4,1.5-1,1.9-1.8c0.1-0.2,0.2-0.5,0.3-0.8l0,0l0,0
			c-0.6,0.3-1.2,0.7-1.2,0.8c-0.1,0.1-0.2,0.1-0.3,0c-0.1,0-0.2-0.1-0.1-0.2c0-0.9-0.2-1.6-0.4-2l0,0l0,0l0,0
			c-0.2,0.5-0.4,1.1-0.5,1.6s-0.1,1,0,1.5C5.3,29.1,5.5,29.4,5.6,29.6"/>
		<path class="st2" d="M6.7,26.8C6.7,26.9,6.7,26.9,6.7,26.8C6.7,26.9,6.7,26.9,6.7,26.8c0.8-0.2,1.4-0.7,2-1.5
			c0.2-0.3,0.4-0.6,0.5-0.8l0,0l0,0c-0.7,0.1-1.3,0.6-1.3,0.6c-0.1,0.1-0.2,0.1-0.3,0c-0.1-0.1-0.2-0.2-0.1-0.3
			c0.2-0.9,0-1.6-0.1-2.1l0,0l0,0c-0.3,0.5-0.6,1-0.7,1.5c-0.2,0.5-0.2,1-0.2,1.4C6.5,26.3,6.6,26.7,6.7,26.8"/>
		<path class="st2" d="M8.2,24.2L8.2,24.2c1.3-0.2,2.2-1.3,2.7-2l0,0l0,0c-0.7,0.1-1.3,0.4-1.3,0.4c-0.1,0.1-0.2,0.1-0.3,0
			s-0.1-0.2-0.1-0.3c0.3-0.9,0.2-1.6,0.2-2.1l0,0l0,0C7.7,22.1,8,23.6,8.2,24.2L8.2,24.2"/>
		<path class="st2" d="M10,21.8L10,21.8c0.8,0,1.6-0.5,2.1-0.9c0.3-0.2,0.5-0.4,0.8-0.7l0,0l0,0c-0.7,0-1.3,0.2-1.3,0.2
			c-0.1,0-0.2,0-0.3-0.1s-0.1-0.2,0-0.3c0.4-0.8,0.5-1.6,0.5-2l0,0l0,0c-0.5,0.4-0.8,0.8-1.1,1.3c-0.3,0.4-0.5,0.9-0.6,1.3
			C9.9,21.2,9.9,21.6,10,21.8C9.9,21.8,10,21.8,10,21.8"/>
		<path class="st2" d="M15.2,18.4c-0.7-0.1-1.3,0.1-1.3,0.1c-0.1,0-0.2,0-0.3-0.1s-0.1-0.2,0-0.3c0.5-0.8,0.6-1.5,0.7-2l0,0l0,0
			c-2,1.4-2.1,2.9-2.1,3.5l0,0h0.1C13.5,19.7,14.6,18.9,15.2,18.4C15.2,18.5,15.2,18.5,15.2,18.4L15.2,18.4"/>
		<path class="st2" d="M17.7,17.2c-0.2-0.1-0.4-0.1-0.7-0.1c-0.4,0-0.7,0-0.7,0l0,0c-0.1,0-0.2-0.1-0.2-0.2s0-0.2,0.1-0.3
			c0.7-0.6,1-1.1,1.2-1.5l0,0l0,0c-2.3,0.8-2.8,2.1-2.9,2.7l0,0c0.2,0.1,0.5,0.1,0.9,0.1s1-0.1,1.6-0.3
			C17.2,17.5,17.5,17.4,17.7,17.2L17.7,17.2L17.7,17.2"/>
		<path class="st2" d="M20.5,16.5c-0.6-0.3-1.3-0.4-1.3-0.4c-0.1,0-0.2-0.1-0.2-0.2c0-0.1,0-0.2,0.1-0.3c0.8-0.4,1.1-0.8,1.3-1l0,0
			l0,0c-1.2,0.2-2.1,0.6-2.7,1.2c-0.3,0.3-0.5,0.6-0.5,0.8l0,0c0.5,0.2,1.1,0.3,1.6,0.3c0.3,0,0.6,0,0.9-0.1
			C19.9,16.7,20.2,16.6,20.5,16.5L20.5,16.5L20.5,16.5"/>
		<path class="st2" d="M22.3,15.7c-0.1,0-0.2-0.1-0.2-0.3c0-0.1,0.1-0.2,0.2-0.2c0.8-0.2,1.2-0.5,1.5-0.7l0,0l0,0
			c-1.2-0.1-2.2,0.1-2.9,0.6c-0.4,0.2-0.6,0.5-0.7,0.7l0,0c0.8,0.6,1.8,0.7,2.6,0.7c0.2,0,0.5,0,0.6,0l0,0l0,0
			C23,15.9,22.3,15.7,22.3,15.7"/>
		<path class="st2" d="M25.3,15.9c-0.1-0.1-0.1-0.2-0.1-0.3s0.1-0.2,0.2-0.2c0.8-0.1,1.3-0.3,1.6-0.4l0,0l0,0
			c-1.1-0.3-2.1-0.3-2.9,0c-0.4,0.2-0.7,0.4-0.8,0.5l0,0c1,1.2,2.3,1.4,3,1.4l0,0l0,0l0,0C25.9,16.3,25.4,15.9,25.3,15.9"/>
		<path class="st2" d="M32.9,19.7L32.9,19.7c0-0.3,0-0.8-0.2-1.3c-0.3-0.9-1.1-1.5-2.1-1.9l0,0l0,0c0.1,0.4,0.4,1,0.8,1.6
			c0.1,0.1,0.1,0.2,0,0.3c-0.1,0.1-0.2,0.1-0.3,0.1c0,0-0.6-0.2-1.3,0l0,0l0,0C30.5,18.9,31.7,19.7,32.9,19.7
			C32.8,19.7,32.9,19.7,32.9,19.7"/>
		<path class="st2" d="M30.5,17.8L30.5,17.8c-0.6-0.6-1.3-0.9-2.2-0.9c-0.3,0-0.6,0.1-0.9,0.2l0,0l0,0c0.7,0.5,1.4,0.8,2.2,0.8h0.1
			C30,18,30.3,17.9,30.5,17.8L30.5,17.8"/>
		<path class="st2" d="M26.2,15.9L26.2,15.9c0.5,0.3,1,0.5,1.6,0.5c0.3,0,0.5,0,0.8-0.1c0.5-0.1,0.9-0.2,1.2-0.3l0,0l0,0
			c-0.4-0.2-0.9-0.4-1.3-0.5c-0.5-0.1-0.9-0.1-1.4,0C26.8,15.6,26.5,15.8,26.2,15.9L26.2,15.9"/>
	</g>
	<path class="st3" d="M39.6,39.2c0-3.1-0.5-6-1.4-8.8c-0.9-2.7-2.1-5.1-3.7-7.2c-1.6-2.1-3.4-3.7-5.4-4.8c-2.1-1.2-4.3-1.8-6.6-1.8
		s-4.5,0.6-6.6,1.8c-2,1.1-3.9,2.8-5.4,4.8c-1.6,2.1-2.8,4.5-3.7,7.2c-0.9,2.8-1.4,5.8-1.4,8.8H39.6z"/>
	<polygon class="st4" points="22.5,33.7 26.5,33.7 28.1,32.2 26.2,24.4 24.3,22.3 22,21.9 19.2,23.2 18.2,25.1 19.1,26.5 17.4,29.7 
		16.9,32.8 17.8,33.6 	"/>
	<path class="st5" d="M21.4,14.2L21.4,14.2L21.4,14.2z"/>
	<path class="st5" d="M18,14.7L18,14.7z"/>
	<path class="st5" d="M18,14.7L18,14.7L18,14.7z"/>
	<path class="st6" d="M26.9,66.6c-1.6-0.3-2.8-1.2-3.3-1.7c-0.1,0.1-0.1,0.1-0.2,0.2c0.1,0.5,0.6,1.6,2.6,2.1
		C26.4,67,26.7,66.8,26.9,66.6"/>
	<path class="st6" d="M21.4,64.9c-0.5,0.5-1.7,1.4-3.3,1.7c0.2,0.2,0.5,0.4,0.9,0.6c2-0.5,2.5-1.7,2.6-2.1
		C21.5,65,21.4,64.9,21.4,64.9"/>
	<path class="st5" d="M42.7,43.5c0-0.1,0-0.2-0.1-0.3s-0.2-0.1-0.2-0.1c0.1-0.1,0.1-0.3,0.2-0.5c0.3-0.7,0.4-1.5,0.4-2.4
		c0-0.1-0.1-0.2-0.2-0.3c-0.1,0-0.2-0.1-0.2-0.1c0.1-0.1,0.1-0.3,0.1-0.4c0.2-0.7,0.2-1.5,0.2-2.4c0-0.1-0.1-0.2-0.2-0.3
		c-0.1,0-0.2-0.1-0.2,0c0-0.2,0.1-0.3,0.1-0.5c0.1-0.7,0.1-1.5-0.1-2.4c0-0.1-0.1-0.2-0.2-0.3c-0.1,0-0.1,0-0.2,0
		c0-0.1,0-0.2,0.1-0.4c0.1-0.7,0-1.5-0.2-2.4c0-0.1-0.1-0.2-0.2-0.2c-0.1,0-0.2,0-0.3,0l0,0c0-0.2,0-0.4,0-0.6
		c0-0.7-0.2-1.5-0.5-2.3c0-0.1-0.1-0.2-0.3-0.2c-0.1,0-0.2,0-0.3,0.1c0-0.2,0-0.4,0-0.5c-0.1-0.7-0.4-1.5-0.8-2.3
		c-0.1-0.1-0.2-0.2-0.3-0.2s-0.2,0-0.3,0.1c0-0.2-0.1-0.3-0.1-0.5c-0.2-0.7-0.5-1.4-1-2.2c-0.1-0.1-0.2-0.2-0.3-0.2
		s-0.2,0.1-0.3,0.2c-0.1-0.2-0.1-0.4-0.2-0.6c-0.3-0.7-0.8-1.3-1.4-2c-0.1-0.1-0.2-0.1-0.3-0.1s-0.2,0.1-0.2,0.1
		c-0.1-0.2-0.2-0.4-0.3-0.6c-0.4-0.6-0.9-1.2-1.6-1.7c-0.1-0.1-0.2-0.1-0.3-0.1s-0.2,0.1-0.2,0.2c-0.5-0.6-1.1-1.1-1.9-1.3
		c0.1,0,0.3,0,0.4,0c1,0.1,1.6-0.1,1.7-0.2c0.2-0.1,0.3-0.3,0.3-0.5s-0.2-0.4-0.4-0.4c-1.1-0.1-1.4-0.3-1.9-0.5
		c-0.1-0.1-0.2-0.1-0.3-0.2l2.5-0.4c0.2,0,0.4-0.2,0.4-0.4s-0.2-0.4-0.4-0.4l-2.4-0.4c0.3-0.1,0.6-0.2,1-0.3
		c0.9-0.3,1.5-0.8,1.5-0.8c0.2-0.1,0.2-0.4,0.1-0.6c-0.1-0.2-0.3-0.3-0.5-0.2c-1,0.4-1.4,0.3-2,0.2c-0.1,0-0.2,0-0.3,0l2.1-1.3
		c0.2-0.1,0.3-0.3,0.2-0.5C32.6,9.1,32.4,9,32.1,9l-2.4,0.6C30,9.5,30.2,9.3,30.5,9c0.7-0.6,1.1-1.3,1.1-1.3
		c0.1-0.2,0.1-0.4-0.1-0.6c-0.2-0.1-0.4-0.1-0.6,0c-0.8,0.7-1.2,0.8-1.8,1c-0.1,0-0.2,0.1-0.3,0.1l1.5-2c0.1-0.2,0.1-0.4,0-0.6
		c-0.2-0.2-0.4-0.2-0.6,0l-2,1.5c0.1-0.3,0.3-0.6,0.5-0.9c0.4-0.9,0.5-1.6,0.5-1.6c0-0.2-0.1-0.4-0.3-0.5c-0.2-0.1-0.4,0-0.5,0.2
		c-0.4,1-0.8,1.2-1.2,1.6C26.6,6,26.5,6,26.5,6.1l0.6-2.4c0.1-0.2-0.1-0.4-0.3-0.5c-0.2-0.1-0.4,0-0.5,0.2L25,5.5
		c0-0.3,0.1-0.6,0.1-1C25,3.7,24.8,3,24.8,3c-0.1-0.2-0.3-0.3-0.5-0.3s-0.4,0.2-0.4,0.4c0,1.1-0.3,1.4-0.5,1.9
		c0,0.1-0.1,0.2-0.1,0.3l-0.4-2.4c0-0.2-0.2-0.4-0.4-0.4l0,0c-0.2,0-0.4,0.2-0.4,0.4l-0.3,2.4c-0.1-0.3-0.2-0.6-0.3-0.9
		c-0.3-0.9-0.8-1.5-0.8-1.5c-0.1-0.2-0.4-0.2-0.6-0.1c-0.2,0.1-0.3,0.3-0.2,0.5c0.4,1,0.3,1.4,0.2,2c0,0.1,0,0.2,0,0.3l-1.3-2.1
		c-0.1-0.2-0.3-0.3-0.5-0.2S18,3.6,18,3.8l0.6,2.4C18.4,6,18.2,5.7,18,5.5c-0.6-0.7-1.3-1.1-1.3-1.1c-0.2-0.1-0.4-0.1-0.6,0.1
		c-0.1,0.2-0.1,0.4,0,0.6c0.7,0.8,0.8,1.2,1,1.8c0,0.1,0.1,0.2,0.1,0.3l-2-1.5c-0.2-0.1-0.4-0.1-0.6,0c-0.2,0.2-0.2,0.4,0,0.6l1.5,2
		c-0.3-0.1-0.6-0.3-0.9-0.5c-0.9-0.4-1.6-0.5-1.6-0.5c-0.2,0-0.4,0.1-0.5,0.3c-0.1,0.2,0,0.4,0.2,0.5c1,0.4,1.2,0.8,1.6,1.2
		C15,9.4,15,9.5,15.1,9.6L12.8,9c-0.2-0.1-0.4,0.1-0.5,0.3s0,0.4,0.2,0.5l2.1,1.3c-0.3,0-0.6-0.1-1-0.1c-1-0.1-1.6,0.1-1.7,0.2
		c-0.2,0.1-0.3,0.3-0.3,0.5s0.2,0.4,0.4,0.4c1.1,0,1.4,0.3,1.9,0.5c0.1,0,0.2,0.1,0.3,0.2l-2.5,0.4c-0.2,0-0.4,0.2-0.4,0.4
		s0.2,0.4,0.4,0.4l2.5,0.4c-0.3,0.1-0.6,0.2-1,0.3c-0.9,0.3-1.5,0.8-1.5,0.8c-0.2,0.1-0.2,0.4-0.1,0.6c0.1,0.2,0.3,0.3,0.5,0.2
		c0.6-0.2,1-0.3,1.3-0.3c-0.5,0.5-0.9,0.8-1.1,1.1c-0.1,0.1-0.2,0.3-0.3,0.4c0-0.1-0.1-0.1-0.2-0.1c-0.1,0-0.2,0-0.3,0.1
		c-0.7,0.5-1.3,1.1-1.7,1.7c-0.1,0.2-0.2,0.4-0.3,0.6c-0.1-0.1-0.1-0.1-0.2-0.2c-0.1,0-0.2,0-0.3,0.1c-0.6,0.6-1.1,1.3-1.4,2
		c-0.1,0.2-0.1,0.4-0.2,0.5c-0.1-0.1-0.1-0.1-0.2-0.1s-0.2,0-0.3,0.1c-0.5,0.7-0.9,1.4-1.1,2.1c-0.1,0.2-0.1,0.4-0.1,0.6
		c-0.1-0.1-0.2-0.1-0.3-0.1c-0.1,0-0.2,0.1-0.3,0.2c-0.4,0.8-0.7,1.5-0.8,2.3c0,0.2,0,0.4,0,0.5c-0.1-0.1-0.2-0.1-0.3-0.1
		c-0.1,0-0.2,0.1-0.2,0.2c-0.3,0.8-0.5,1.6-0.5,2.3c0,0.2,0,0.4,0,0.5c-0.1-0.1-0.2-0.1-0.3,0c-0.1,0-0.2,0.1-0.2,0.2
		c-0.2,0.9-0.3,1.7-0.2,2.4c0,0.1,0,0.3,0.1,0.4c-0.1,0-0.1,0-0.2,0c-0.1,0-0.2,0.1-0.2,0.3c-0.2,0.9-0.2,1.7-0.1,2.4
		c0,0.2,0.1,0.4,0.1,0.5H2.2C2.1,37,2,37.1,2,37.2c-0.1,0.9-0.1,1.7,0.1,2.4c0,0.2,0.1,0.3,0.1,0.5c-0.1,0-0.2,0-0.2,0.1
		c0.1-0.1,0,0,0,0.1c0,0.9,0.1,1.7,0.3,2.4c0.1,0.2,0.1,0.4,0.2,0.6l0,0c-0.1,0-0.2,0-0.3,0.1s-0.1,0.2-0.1,0.3
		c0.1,0.9,0.4,1.6,0.7,2.3C2.9,46,3,46.2,3,46.3c-0.1,0-0.1,0-0.2,0.1c-0.1,0.1-0.1,0.2-0.1,0.3c0.2,0.9,0.5,1.6,0.9,2.2
		c0.1,0.1,0.2,0.3,0.3,0.4c-0.1,0-0.2,0.1-0.2,0.1c-0.1,0.1-0.1,0.2,0,0.3c0.3,0.8,0.7,1.5,1.2,2.1C5,52,5.1,52.1,5.2,52.3
		c-0.1,0-0.2,0.1-0.2,0.2c-0.1,0.1-0.1,0.2,0,0.3c0.4,0.8,0.9,1.4,1.4,2c0.1,0.1,0.2,0.2,0.3,0.3c-0.1,0-0.1,0.1-0.2,0.2
		c0,0.1,0,0.2,0,0.3c0.5,0.7,1,1.3,1.6,1.8c0.2,0.1,0.4,0.3,0.5,0.4H8.5c-0.1,0-0.2,0.1-0.2,0.2c0,0.1,0,0.2,0.1,0.3
		c0.6,0.6,1.2,1.1,1.9,1.5c0.5,0.3,1,0.5,1.5,0.6c0.4,0.1,0.9,0.1,1.2,0c0,0,0,0,0.1,0c1.1,0.8,2.2,1.4,3.4,1.9c1,0.4,2,0.7,3,1
		c0.2,0,0.4,0.1,0.6,0.1c-0.4-0.2-0.2-0.4-0.5-0.7c-0.1-0.1-0.7-0.2-0.8-0.2c-0.7-0.2-1.4-0.4-2.1-0.7c-1.1-0.5-2.2-1.1-3.3-1.8l0,0
		c0-0.4,0-0.7-0.1-1.1c0.7,0.6,1.4,1.1,2.1,1.5c1,0.6,2,1,3.1,1.3c0-0.1,0.4-0.1,0.4-0.2c0-0.2-0.3-0.4-0.2-0.5
		c-1-0.3-1.9-0.7-2.9-1.2c-2-1.1-3.8-2.7-5.3-4.7c-0.5-0.7-1-1.5-1.5-2.2c1.2-0.5,3.8-1.7,6.1-2.9c0,0.1,0,0.2,0.1,0.3
		c0.2,0.5,0.7,0.6,1.1,0.7c0.1,0,0.3,0,0.4,0c0.1,0.4,0.5,0.6,1,0.8c0.2,0.1,0.4,0.1,0.5,0.1c0.1,0.2,0.2,0.4,0.4,0.5
		c0.5,0.3,1.1,0.3,1.4,0.2c0.2,0.2,0.5,0.4,0.8,0.5c0.1,0,0.2,0,0.3,0c0.2,0,0.5-0.1,0.7-0.1v4.1c0,0.3,0.2,0.5,0.5,0.5
		s0.5-0.2,0.5-0.5v-4.3c0.5,0.1,1,0,1.3-0.1c0.2-0.1,0.4-0.2,0.6-0.3c0.5,0.1,1-0.1,1.4-0.4c0.1-0.1,0.2-0.3,0.3-0.4
		c0.7,0,1.2-0.3,1.4-0.6c0.1-0.1,0.2-0.3,0.3-0.4c0.5,0,0.8-0.2,1.1-0.4c0.1-0.1,0.2-0.3,0.3-0.4c1.9,1.4,4.8,2.7,6.1,3.3
		c-0.4,0.7-0.9,1.4-1.4,2.1c-1.5,2-3.3,3.6-5.3,4.7C28,60.4,27,60.8,26,61.1c0.1,0.1-0.2,0.3-0.1,0.5c0,0.1,0.3,0.2,0.3,0.2
		c1.1-0.3,2.1-0.7,3.1-1.3c0.8-0.4,1.5-1,2.2-1.5c-0.1,0.4-0.1,0.7-0.1,1.1c0,0,0,0,0,0.1c-0.3,0.2-1.2,0.9-2.4,1.5
		c-0.9,0.5-1.9,0.8-2.9,1.1H26c0,0.1-0.5,0.1-0.6,0.2c-0.3,0.4-0.3,0.6-0.7,0.7c0.5-0.1,1.1-0.2,1.6-0.3c1-0.3,2-0.6,3-1.1
		c1.3-0.6,2.2-1.3,2.5-1.5c0,0,0,0,0.1,0c0.4,0.1,0.8,0.1,1.2,0c0.5-0.1,1-0.3,1.5-0.6c0.6-0.4,1.2-0.9,1.9-1.5
		c0.1-0.1,0.1-0.2,0.1-0.3s-0.1-0.2-0.2-0.2c0,0,0,0-0.1,0c0.2-0.1,0.4-0.2,0.6-0.4c0.6-0.5,1.1-1.1,1.6-1.8c0.1-0.1,0.1-0.2,0-0.3
		c0-0.1-0.1-0.1-0.2-0.2c0.1-0.1,0.2-0.2,0.3-0.3c0.5-0.5,1-1.2,1.4-2c0.1-0.1,0-0.2,0-0.3c-0.1-0.1-0.1-0.2-0.3-0.2
		c0.1-0.1,0.2-0.3,0.4-0.4c0.5-0.6,0.9-1.3,1.2-2.1c0-0.1,0-0.2,0-0.3c-0.1-0.1-0.2-0.1-0.3-0.2l0,0c0.1-0.1,0.2-0.3,0.3-0.4
		c0.4-0.6,0.7-1.4,0.9-2.2c0-0.1,0-0.2-0.1-0.3s-0.2-0.1-0.3-0.1c0.1-0.2,0.2-0.3,0.3-0.5C42.4,45.1,42.6,44.4,42.7,43.5 M42.3,40.8
		L42.3,40.8c0,0.6-0.1,1.2-0.3,1.6c-0.2,0.5-0.4,0.9-0.7,1.3c-0.4,0.4-0.7,0.6-0.9,0.7l0,0l0,0c-0.5-0.7-0.7-1.5-0.7-2.4
		c0-0.3,0-0.6,0.1-0.9l0,0l0,0c0.4,0.5,0.7,1.2,0.7,1.2c0,0.1,0.1,0.2,0.2,0.2c0.1,0,0.2-0.1,0.2-0.1C41.4,41.6,41.9,41,42.3,40.8
		L42.3,40.8 M42.3,37.7L42.3,37.7L42.3,37.7c0,0.6,0,1.2-0.1,1.7s-0.3,1-0.6,1.3c-0.3,0.5-0.7,0.7-0.8,0.8l0,0l0,0
		c-0.8-1-0.9-2.4-0.9-3.1l0,0l0,0c0.5,0.5,0.8,1.1,0.8,1.1c0,0.1,0.1,0.2,0.2,0.1c0.1,0,0.2-0.1,0.2-0.2
		C41.4,38.5,41.9,38,42.3,37.7 M41.9,34.5L41.9,34.5C42,34.5,42,34.5,41.9,34.5c0.1,0.6,0.1,1.2,0,1.7s-0.2,1-0.5,1.4
		c-0.3,0.5-0.6,0.8-0.7,0.9l0,0l0,0c-0.8-0.7-1.1-2.2-1.2-3l0,0l0,0c0.5,0.4,0.8,1,0.8,1c0.1,0.1,0.2,0.1,0.3,0.1s0.2-0.1,0.2-0.2
		C41.2,35.4,41.6,34.8,41.9,34.5 M41.4,31.5L41.4,31.5C41.5,31.5,41.5,31.5,41.4,31.5c0.1,0.6,0.2,1.2,0.1,1.7
		c-0.1,0.5-0.2,1-0.4,1.4c-0.2,0.5-0.5,0.8-0.7,0.9l0,0l0,0c-0.7-0.6-1-1.5-1.2-2.1c-0.1-0.3-0.1-0.6-0.2-0.9l0,0l0,0
		c0.5,0.4,0.9,1,0.9,1c0.1,0.1,0.2,0.1,0.3,0.1s0.2-0.1,0.2-0.2C40.7,32.5,41.1,31.8,41.4,31.5 M17.4,31.7v-0.1
		c0.4-2.1,1.2-3.5,1.8-4.3c0.5-0.6,0.9-1,1.1-1.2c0.1,0,0.1-0.1,0.2-0.2c0.2-0.2,0.2-0.5,0.1-0.7c-0.2-0.2-0.5-0.3-0.7-0.1
		c0,0-0.1,0.1-0.2,0.2c-0.5,0.3-0.7,0.2-0.8,0.2c-0.1-0.1-0.2-0.3-0.2-0.5c0.1-0.4,0.6-1,0.8-1.2l0,0c1-1.2,2.6-1.2,2.7-1.2l0,0
		c0,0,0.5,0,1.1,0.2c0.9,0.3,1.5,0.9,2,1.8c0.6,1.2,1.1,2.5,1.5,3.8c-0.9-0.3-1.6-0.9-1.6-0.9c-0.2-0.2-0.5-0.1-0.7,0.1
		c-0.1,0.1-0.1,0.2-0.1,0.4c0,0.1,0.1,0.2,0.2,0.3c0,0,1.2,1,2.5,1.3c0.1,0.5,0.2,0.9,0.3,1.5c-0.4-0.2-0.9-0.4-1.4-0.5
		c-0.3-0.1-0.6-0.1-0.8-0.2c-0.9-0.4-1.7-1-1.7-1C23.3,29,23,29,22.9,29.2c-0.2,0.2-0.1,0.5,0.1,0.7c0,0,0.9,0.7,2,1.1
		c0.3,0.1,0.6,0.2,0.9,0.3c1.2,0.3,1.7,0.5,1.7,1.1c0,0.1-0.1,0.2-0.1,0.2C27.1,33,26.3,33,26,33l0,0h-1.1c-0.2,0-1.3-0.1-2.3-0.7
		C19.9,30.8,18.8,31.1,17.4,31.7 M21.7,33.1h-3.4c-0.3,0-0.6-0.1-0.7-0.3l-0.1-0.1C18.9,32.1,19.6,31.9,21.7,33.1 M23,39.2v-5.1h1.7
		l0,0l0,0h1h0.1c0.1,0,0.4,0,0.6-0.1c0.6-0.1,1.1-0.3,1.4-0.7c0.1-0.1,0.3-0.4,0.4-0.6v-0.1c0.1-0.2,0.1-0.5,0-0.9v-0.1
		c-0.3-2-0.7-4.6-2.2-7.6c-1.3-2.6-3.8-2.5-4-2.4c-0.2,0-2.1,0.1-3.3,1.5c-0.1,0.1-0.9,0.9-1,1.7c-0.1,0.6,0.1,1.2,0.6,1.5
		c0.1,0,0.2,0.1,0.3,0.1c-0.8,1-1.7,2.6-2.2,5c-0.1,0.4-0.1,0.8-0.1,1.1v0.1c0.1,0.4,0.2,0.7,0.4,0.9c0.2,0.3,0.7,0.6,1.5,0.6h3.6
		v5.1v3.1c-1,0-1.7,0.3-2.6,1c-1.3,0.9-5.6,1.7-12.8,2.5c-0.5-2.1-0.8-4.4-0.8-6.6c0-3,0.4-5.9,1.3-8.7c0.8-2.6,2.1-5,3.6-7.1
		c1.5-2,3.3-3.6,5.3-4.7c2.1-1.1,4.2-1.7,6.5-1.7c2.2,0,4.4,0.6,6.5,1.7c2,1.1,3.8,2.7,5.3,4.7s2.8,4.4,3.6,7.1
		c0.9,2.7,1.3,5.7,1.3,8.7c0,2.3-0.3,4.6-0.8,6.7C34,45.7,28.8,44,28.7,44c-0.4-0.1-0.7-0.2-1-0.4c-1.1-0.4-1.9-0.7-2.8-0.6
		c-0.1,0-0.1,0-0.2,0c-0.5-0.3-1-0.4-1.7-0.6V39.2z M29.9,16c-0.3,0.1-0.7,0.2-1.2,0.3c-0.3,0.1-0.6,0.1-0.8,0.1
		c-0.6,0-1.2-0.2-1.6-0.5l0,0l0,0c0.2-0.1,0.5-0.3,1-0.4c0.5-0.1,0.9-0.1,1.4,0C29,15.6,29.4,15.7,29.9,16L29.9,16L29.9,16
		 M30.5,17.8L30.5,17.8L30.5,17.8C30.3,17.9,30,18,29.7,18h-0.1c-0.8,0-1.5-0.3-2.2-0.8l0,0l0,0c0.3-0.1,0.6-0.2,0.9-0.2
		C29.2,16.9,29.9,17.2,30.5,17.8 M27,15c-0.3,0.1-0.8,0.3-1.6,0.4c-0.1,0-0.2,0.1-0.2,0.2c0,0.1,0,0.2,0.1,0.3c0,0,0.6,0.4,1,1l0,0
		l0,0l0,0c-0.7,0-2.1-0.2-3-1.4l0,0c0.2-0.1,0.4-0.4,0.8-0.5C24.9,14.7,25.9,14.7,27,15L27,15L27,15 M23.8,14.5
		c-0.3,0.2-0.7,0.5-1.5,0.7c-0.1,0-0.2,0.1-0.2,0.2c0,0.1,0.1,0.2,0.2,0.3c0,0,0.6,0.2,1.2,0.7l0,0l0,0c-0.2,0-0.4,0-0.6,0
		c-0.8,0-1.8-0.1-2.6-0.7l0,0c0.1-0.2,0.3-0.4,0.7-0.7C21.6,14.6,22.6,14.4,23.8,14.5C23.8,14.4,23.8,14.4,23.8,14.5L23.8,14.5
		 M20.5,14.5c-0.2,0.3-0.6,0.6-1.3,1c-0.1,0-0.2,0.2-0.1,0.3c0,0.1,0.1,0.2,0.2,0.2c0,0,0.7,0.1,1.3,0.4l0,0l0,0
		c-0.3,0.1-0.6,0.2-0.9,0.2s-0.6,0.1-0.9,0.1c-0.5,0-1-0.1-1.6-0.3l0,0c0.1-0.2,0.2-0.5,0.5-0.8C18.3,15.1,19.3,14.7,20.5,14.5
		L20.5,14.5L20.5,14.5 M16.2,16.6c-0.1,0.1-0.1,0.2-0.1,0.3c0,0.1,0.1,0.2,0.2,0.2l0,0c0,0,0.3,0,0.7,0c0.3,0,0.5,0.1,0.7,0.1l0,0
		l0,0c-0.3,0.1-0.5,0.3-0.8,0.4c-0.6,0.2-1.1,0.3-1.6,0.3c-0.4,0-0.7-0.1-0.9-0.1l0,0c0.1-0.5,0.6-1.9,2.9-2.7l0,0l0,0
		C17.2,15.4,16.9,16,16.2,16.6 M39.8,30.4c0.1-0.9,0.4-1.6,0.6-2l0,0l0,0c0.2,0.6,0.3,1.1,0.3,1.6s0,1-0.2,1.4
		c-0.2,0.5-0.4,0.9-0.5,1l0,0l0,0c-0.7-0.4-1.2-1.1-1.5-1.9c-0.1-0.3-0.2-0.6-0.3-0.8l0,0l0,0c0.6,0.3,1.1,0.9,1.1,0.9
		c0.1,0.1,0.2,0.1,0.3,0.1C39.8,30.6,39.8,30.5,39.8,30.4 M38.8,27.6c0-0.9,0.2-1.6,0.4-2l0,0l0,0c0.2,0.5,0.4,1.1,0.5,1.6
		s0.1,1,0,1.5s-0.3,0.9-0.4,1l0,0l0,0c-0.7-0.3-1.3-0.9-1.7-1.8c-0.1-0.3-0.2-0.5-0.3-0.8l0,0l0,0c0.6,0.3,1.1,0.7,1.1,0.8
		c0.1,0.1,0.2,0.1,0.3,0C38.7,27.8,38.8,27.7,38.8,27.6 M37.4,25.1L37.4,25.1c0.1-0.1,0.1-0.2,0.1-0.3c-0.1-0.9,0-1.6,0.2-2.1l0,0
		l0,0c0.3,0.5,0.5,1,0.7,1.5c0.1,0.5,0.2,1,0.1,1.5c-0.1,0.5-0.2,0.9-0.3,1.1l0,0l0,0c-0.8-0.3-1.4-0.8-1.9-1.6
		c-0.2-0.2-0.3-0.5-0.4-0.8l0,0l0,0c0.7,0.2,1.2,0.6,1.3,0.6C37.1,25.2,37.3,25.2,37.4,25.1 M35.4,22.6c0.1,0.1,0.2,0.1,0.3,0
		s0.1-0.2,0.1-0.3c-0.3-0.8-0.2-1.6-0.1-2.1l0,0l0,0c0.4,0.5,0.7,0.9,0.9,1.4s0.3,1,0.4,1.4c0,0.5-0.1,0.9-0.1,1.1l0,0l0,0
		c-0.8-0.1-1.5-0.6-2.1-1.3c-0.2-0.2-0.4-0.5-0.6-0.7l0,0l0,0C34.8,22.2,35.4,22.6,35.4,22.6 M33.5,20.4c0.1,0,0.2,0,0.3-0.1
		s0.1-0.2,0-0.3c-0.4-0.8-0.5-1.5-0.5-2l0,0l0,0c0.4,0.4,0.8,0.8,1.1,1.2c0.3,0.4,0.5,0.9,0.6,1.3c0.1,0.5,0.1,1,0.1,1.1l0,0l0,0
		c-0.9,0-1.7-0.5-2.2-0.9c-0.3-0.2-0.5-0.4-0.7-0.7l0,0l0,0h0.1C32.9,20.2,33.5,20.4,33.5,20.4 M32.7,18.4c0.2,0.5,0.2,1,0.2,1.3
		l0,0h-0.1c-1.1,0-2.3-0.7-3-1.2l0,0l0,0c0.7-0.1,1.3,0,1.3,0c0.1,0,0.2,0,0.3-0.1c0.1-0.1,0.1-0.2,0-0.3c-0.4-0.5-0.7-1.1-0.8-1.6
		l0,0l0,0C31.6,16.9,32.4,17.5,32.7,18.4 M13.4,15.3c0.1,0,0.1,0,0.2-0.1c0.6-0.2,1.2-0.4,1.5-0.4c0.7-0.2,1.2-0.5,1.2-0.5
		c0.1,0,0.1-0.1,0.1-0.2c0-0.1-0.1-0.1-0.1-0.1l-3.1-0.4l3.1-0.5c0.1,0,0.2-0.1,0.2-0.2c0-0.1-0.1-0.2-0.2-0.2c0,0-0.7-0.1-1.4-0.4
		c-0.2-0.1-0.4-0.2-0.5-0.3c-0.3-0.1-0.5-0.3-0.9-0.4c0.1,0,0.1,0,0.2,0c0.7,0,1.3,0.1,1.6,0.2c0.7,0.1,1.3,0,1.3,0
		c0.1,0,0.1-0.1,0.1-0.1c0-0.1,0-0.1-0.1-0.2l-2.7-1.6l3,0.8c0.1,0,0.2,0,0.2-0.1s0-0.2-0.1-0.2c0,0-0.6-0.3-1.1-0.9
		c-0.1-0.2-0.3-0.3-0.4-0.5c-0.2-0.2-0.4-0.5-0.7-0.7c0.1,0,0.1,0,0.1,0.1C15.5,8.7,16,9,16.3,9.2c0.6,0.4,1.2,0.5,1.2,0.5
		c0.1,0,0.1,0,0.2-0.1c0-0.1,0-0.1,0-0.2l-1.9-2.5l2.5,1.8c0.1,0.1,0.2,0,0.2,0c0.1-0.1,0.1-0.2,0-0.2c0-0.1-0.4-0.6-0.7-1.3
		c-0.1-0.2-0.1-0.4-0.2-0.6c-0.1-0.3-0.2-0.6-0.3-0.9l0.1,0.1c0.4,0.5,0.8,1,1,1.2c0.4,0.6,0.8,0.9,0.9,0.9s0.1,0,0.2,0
		s0.1-0.1,0.1-0.2l-0.8-3l1.6,2.7c0,0.1,0.1,0.1,0.2,0.1s0.1-0.1,0.1-0.2c0,0-0.2-0.7-0.1-1.4c0-0.2,0-0.4,0-0.6c0-0.3,0.1-0.6,0-1
		c0,0.1,0,0.1,0.1,0.2c0.2,0.6,0.4,1.2,0.4,1.5c0.1,0.7,0.4,1.1,0.5,1.2c0,0.1,0.1,0.1,0.2,0.1C22,7.4,22,7.3,22,7.2l0.4-3l0.4,3
		c0,0.1,0.1,0.2,0.2,0.2s0.2-0.1,0.2-0.2c0,0,0.1-0.7,0.4-1.4c0.1-0.2,0.2-0.4,0.3-0.5C24,5,24.2,4.8,24.3,4.4c0,0.1,0,0.1,0,0.2
		c0,0.7-0.1,1.3-0.2,1.6c-0.1,0.7,0,1.3,0,1.3c0,0.1,0.1,0.1,0.1,0.1c0.1,0,0.1,0,0.2-0.1L26,4.8l-0.8,3c0,0.1,0,0.2,0.1,0.2
		s0.2,0,0.2-0.1s0.4-0.6,0.9-1.1c0.2-0.1,0.3-0.3,0.5-0.4c0.2-0.2,0.5-0.4,0.7-0.7c0,0,0,0.1-0.1,0.1c-0.3,0.6-0.6,1.1-0.8,1.4
		c-0.4,0.6-0.5,1.2-0.5,1.2c0,0.1,0,0.1,0.1,0.2c0.1,0,0.1,0,0.2,0L29,6.7l-1.8,2.5c-0.1,0.1,0,0.2,0,0.2c0.1,0.1,0.2,0.1,0.2,0
		c0,0,0.5-0.4,1.3-0.7c0.2-0.1,0.4-0.1,0.6-0.2c0.3-0.1,0.6-0.2,0.9-0.3l-0.1,0.1c-0.5,0.4-1,0.8-1.2,1c-0.6,0.4-0.9,0.9-0.9,0.9
		c0,0.1,0,0.1,0,0.2c0,0.1,0.1,0.1,0.2,0.1l3-0.8l-2.7,1.6c-0.1,0-0.1,0.1-0.1,0.2c0,0.1,0.1,0.1,0.2,0.1s0.7-0.2,1.4-0.1
		c0.2,0,0.4,0,0.6,0c0.3,0,0.6,0.1,1,0c-0.1,0-0.1,0-0.2,0.1c-0.6,0.2-1.2,0.4-1.5,0.4c-0.7,0.2-1.2,0.5-1.2,0.5
		c-0.1,0-0.1,0.1-0.1,0.2c0,0.1,0.1,0.1,0.1,0.1l3.1,0.4l-3,0.8c-0.1,0-0.2,0.1-0.2,0.2c0,0.1,0.1,0.2,0.2,0.2s0.7,0.1,1.4,0.4
		c0.2,0.1,0.4,0.2,0.5,0.3c0.3,0.1,0.5,0.3,0.9,0.4c-0.1,0-0.1,0-0.2,0c-0.7,0-1.3-0.1-1.6-0.2h-0.1c-0.6-0.2-1.1-0.4-1.7-0.4l0,0
		c0-0.1-0.1-0.2-0.2-0.3c-0.8-0.3-1.6-0.4-2.3-0.4c-0.3,0-0.5,0-0.7,0.1v-0.1c-0.1-0.1-0.2-0.2-0.3-0.2c-0.9-0.1-1.7-0.1-2.4,0
		c-0.3,0.1-0.5,0.1-0.8,0.2c0-0.1,0-0.1-0.1-0.2c-0.1-0.1-0.2-0.1-0.3-0.1c-0.9,0.1-1.7,0.3-2.3,0.5c-0.2,0.1-0.3,0.2-0.5,0.2
		c0-0.1-0.1-0.2-0.1-0.2c-0.1-0.1-0.2-0.1-0.3-0.1c-0.9,0.2-1.6,0.6-2.2,1l0,0c-0.2,0-0.3,0-0.5,0c-0.1,0-0.6,0-0.6,0
		C14,15.3,13.7,15.2,13.4,15.3 M14.2,16.1L14.2,16.1C14.2,16.1,14.2,16.2,14.2,16.1c0,0.5-0.1,1.2-0.6,2c-0.1,0.1-0.1,0.2,0,0.3
		c0.1,0.1,0.2,0.1,0.3,0.1c0,0,0.7-0.1,1.3-0.1l0,0l0,0c-0.6,0.5-1.7,1.2-2.9,1.2h-0.1l0,0C12.1,19.1,12.2,17.6,14.2,16.1 M10,20.6
		c0.1-0.5,0.3-0.9,0.6-1.3s0.7-0.9,1.1-1.3l0,0l0,0c0,0.5-0.1,1.2-0.5,2c0,0.1,0,0.2,0,0.3c0.1,0.1,0.2,0.1,0.3,0.1
		c0,0,0.6-0.2,1.3-0.2l0,0l0,0c-0.3,0.2-0.5,0.5-0.8,0.7c-0.5,0.4-1.3,0.9-2,0.9H9.9l0,0C9.9,21.6,9.9,21.2,10,20.6 M9.3,20.3
		L9.3,20.3L9.3,20.3c0.1,0.5,0.2,1.2-0.1,2.1c0,0.1,0,0.2,0.1,0.3c0.1,0.1,0.2,0.1,0.3,0c0,0,0.6-0.4,1.3-0.4l0,0l0,0
		c-0.5,0.7-1.4,1.8-2.7,2l0,0l0,0C8,23.6,7.7,22.1,9.3,20.3 M6.6,24.3c0.2-0.5,0.4-1,0.7-1.5l0,0l0,0c0.1,0.4,0.3,1.2,0.1,2.1
		c0,0.1,0,0.2,0.1,0.3c0.1,0.1,0.2,0,0.3,0c0,0,0.5-0.5,1.3-0.6l0,0l0,0c-0.1,0.2-0.3,0.5-0.5,0.8c-0.6,0.8-1.2,1.3-2,1.5l0,0l0,0
		c-0.1-0.1-0.2-0.5-0.3-1.1C6.4,25.3,6.5,24.8,6.6,24.3 M5.1,27.1c0.1-0.5,0.2-1,0.5-1.6l0,0l0,0l0,0c0.2,0.4,0.5,1.1,0.4,2
		c0,0.1,0.1,0.2,0.1,0.2c0.1,0,0.2,0,0.3,0c0,0,0.6-0.5,1.2-0.8l0,0l0,0c-0.1,0.3-0.2,0.5-0.3,0.8c-0.4,0.8-1,1.4-1.8,1.8l0,0l0,0
		c-0.1-0.2-0.3-0.5-0.4-1C5.1,28.1,5.1,27.6,5.1,27.1 M4.4,28.4L4.4,28.4L4.4,28.4c0.3,0.4,0.6,1,0.7,2c0,0.1,0.1,0.2,0.2,0.2
		s0.2,0,0.3-0.1c0,0,0.5-0.6,1.1-0.9l0,0l0,0c0,0.3-0.1,0.5-0.2,0.8c-0.3,0.9-0.8,1.6-1.6,2l0,0l0,0c-0.1-0.1-0.4-0.5-0.5-1
		C4.2,31,4.2,30.5,4.2,30C4.1,29.5,4.2,29,4.4,28.4 M3.5,31.5C3.5,31.4,3.5,31.4,3.5,31.5C3.5,31.4,3.5,31.4,3.5,31.5
		c0.3,0.4,0.8,1,0.9,1.9c0,0.1,0.1,0.2,0.2,0.2s0.2,0,0.3-0.1c0,0,0.4-0.6,1-1l0,0l0,0c0,0.3-0.1,0.5-0.1,0.8
		c-0.2,0.9-0.6,1.6-1.3,2.2l0,0l0,0c-0.2-0.2-0.5-0.5-0.7-1c-0.2-0.4-0.3-0.9-0.4-1.4C3.3,32.6,3.4,32,3.5,31.5 M3,34.5L3,34.5
		L3,34.5c0.4,0.3,0.8,0.9,1,1.8c0,0.1,0.1,0.2,0.2,0.2s0.2,0,0.3-0.1c0,0,0.3-0.6,0.8-1.1l0,0l0,0c0,0.3,0,0.6-0.1,0.9
		c-0.2,0.9-0.5,1.7-1.1,2.2l0,0l0,0C4,38.3,3.7,38,3.5,37.6S3.1,36.7,3,36.2C2.9,35.7,2.9,35.1,3,34.5 M2.7,37.7
		C2.7,37.7,2.8,37.7,2.7,37.7C2.8,37.7,2.8,37.7,2.7,37.7c0.1,0,0.2,0.1,0.2,0.2c0.3,0.3,0.7,0.8,0.9,1.6c0,0.1,0.1,0.2,0.3,0.2
		c0.1,0,0.2-0.1,0.2-0.2c0,0,0.1-0.7,0.7-1.2l0,0l0,0c0.1,0.4,0.1,0.9,0,1.5c-0.1,0.7-0.4,1.3-0.9,1.8l0,0l0,0
		C3.7,41.2,2.6,40.1,2.7,37.7 M2.6,40.8L2.6,40.8c0.1,0.1,0.2,0.1,0.2,0.2c0.3,0.3,0.8,0.8,1.1,1.5c0,0.1,0.1,0.2,0.2,0.2l0,0
		c0.1,0,0.2-0.1,0.2-0.2c0,0,0.3-0.7,0.7-1.2l0,0l0,0c0.1,0.7,0.2,1.9-0.7,3.3l0,0l0,0C3.9,44.2,2.7,43.3,2.6,40.8L2.6,40.8 M2.8,44
		L2.8,44L2.8,44c0.5,0.2,1.1,0.6,1.6,1.4c0.1,0.1,0.2,0.1,0.3,0.1c0.1,0,0.2-0.1,0.2-0.2l0,0l0,0c0,0,0.2-0.8,0.5-1.4l0,0l0,0
		c0.1,0.3,0.2,0.5,0.3,0.8c0.2,0.9,0,1.7-0.4,2.5l0,0l0,0c-0.2-0.1-0.6-0.2-1-0.6c-0.4-0.3-0.7-0.7-0.9-1.2
		C3.1,45.2,2.9,44.6,2.8,44 M3.5,47L3.5,47L3.5,47c0.1,0,0.2,0.1,0.3,0.1c0.4,0.2,0.9,0.5,1.4,1.2c0.1,0.1,0.2,0.1,0.3,0.1
		c0.1,0,0.2-0.1,0.2-0.2c0,0,0.1-0.7,0.4-1.3l0,0l0,0c0.3,0.7,0.7,2,0.1,3.3l0,0l0,0C5.6,50,4.2,49.4,3.5,47 M5.3,51.5
		c-0.3-0.4-0.6-0.9-0.9-1.4l0,0l0,0c0.1,0,0.2,0.1,0.3,0.1c0.4,0.1,1,0.4,1.5,1c0.1,0.1,0.2,0.1,0.3,0.1c0.1,0,0.2-0.1,0.2-0.2
		c0,0,0-0.7,0.2-1.4l0,0l0,0C7,50,7.2,50.2,7.3,50.5c0.3,0.9,0.4,1.7,0.1,2.5l0,0l0,0c-0.2,0-0.6-0.1-1.1-0.4
		C6,52.2,5.7,51.9,5.3,51.5 M5.8,52.9L5.8,52.9L5.8,52.9C6.3,53,7,53.2,7.7,53.8c0.1,0.1,0.2,0.1,0.3,0s0.1-0.2,0.1-0.3
		c0,0-0.1-0.7,0.1-1.3l0,0l0,0c0.2,0.3,0.3,0.5,0.5,0.8c0.3,0.6,0.6,1.5,0.4,2.4l0,0l0,0c-0.2,0-0.6-0.1-1.1-0.3
		c-0.4-0.2-0.8-0.5-1.2-0.8C6.4,53.9,6.1,53.4,5.8,52.9 M11.7,58.1c0,0-0.3-0.6-0.3-1.3l0,0l0,0c0.6,0.5,1.6,1.6,1.5,3l0,0
		c-0.1,0-0.2,0-0.4,0s-0.4,0-0.6-0.1c-0.9-0.2-1.8-0.7-2.7-1.5l0,0l0,0c0.5-0.1,1.2-0.1,2.1,0.3c0.1,0,0.2,0,0.3-0.1
		C11.8,58.3,11.8,58.2,11.7,58.1 M9.4,56.2c0.1,0.1,0.2,0.1,0.3,0s0.1-0.2,0.1-0.3c0,0-0.2-0.6-0.1-1.3l0,0l0,0
		c0.5,0.6,1.3,1.8,1.2,3l0,0h-0.1c-0.2,0-0.6,0-1-0.2c-0.4-0.1-0.9-0.4-1.3-0.7c-0.4-0.3-0.8-0.7-1.1-1.2l0,0l0,0
		C7.9,55.6,8.6,55.7,9.4,56.2 M19.5,49.4c-0.1,0.1-0.2,0.1-0.2,0.2c-0.6,0.4-0.9,0.8-1,1.2c-0.1,0-0.1,0-0.2-0.1
		c-0.4-0.1-0.4-0.4-0.5-0.4c0-0.2,0.1-0.4,0.4-0.7c0.4-0.4,0.7-0.5,1-0.5c0.1,0,0.2,0,0.3,0.1C19.4,49.2,19.5,49.3,19.5,49.4
		L19.5,49.4 M20,51.6c-0.2,0-0.6,0.1-0.9-0.1c-0.1,0-0.1-0.1-0.1-0.2c0-0.4,0.4-0.7,0.7-0.9c0.4-0.3,0.7-0.5,1-0.5
		c0.1,0,0.2,0,0.3,0.1c0.1,0.1,0.1,0.1,0.1,0.2c0,0.1-0.2,0.3-0.3,0.4C20.5,50.9,20.2,51.2,20,51.6 M22.2,51.7
		c-0.2,0.1-0.7,0.5-1.1,0.4c-0.1,0-0.2,0-0.3-0.1c0.2-0.4,0.6-0.7,1-0.9c0.5-0.3,0.7-0.1,0.7-0.1c0.1,0.1,0.1,0.2,0.1,0.2
		C22.6,51.3,22.4,51.6,22.2,51.7C22.3,51.6,22.3,51.6,22.2,51.7 M17.6,48.8c-0.1,0.1-0.1,0.1-0.2,0.2c-0.3,0.2-0.5,0.5-0.6,0.9
		c-0.1,0-0.1,0-0.2,0c-0.3,0-0.4-0.1-0.5-0.2c0,0-0.1-0.2,0.1-0.4c0.2-0.3,0.7-0.6,1.1-0.6h0.1l0,0C17.5,48.8,17.6,48.8,17.6,48.8
		 M28.7,49.4c-0.1,0.1-0.3,0.2-0.6,0.2c-0.4-0.5-1.3-1.6-2.5-2.2c-0.1-0.1-0.2-0.1-0.3,0c-0.1,0-0.2,0.1-0.2,0.2
		c-0.1,0.1-0.1,0.2,0,0.3c0,0.1,0.1,0.2,0.2,0.2c1,0.5,1.8,1.5,2.2,1.9c0,0.1-0.1,0.1-0.1,0.2c-0.2,0.2-0.4,0.3-0.7,0.3
		c-0.1-0.2-0.3-0.5-0.6-0.8c-0.4-0.4-1.1-0.9-1.1-1c-0.1-0.1-0.2-0.1-0.3-0.1c-0.1,0-0.2,0.1-0.3,0.2c-0.1,0.1-0.1,0.2-0.1,0.3
		s0.1,0.2,0.2,0.3c0.2,0.1,0.7,0.5,1,0.8s0.4,0.5,0.4,0.6s-0.1,0.2-0.2,0.3c-0.2,0.1-0.3,0.2-0.6,0.2c-0.1-0.2-0.4-0.7-0.8-1.2
		c-0.2-0.2-0.4-0.2-0.6,0c-0.1,0.1-0.1,0.2-0.1,0.3s0,0.2,0.1,0.3c0.3,0.3,0.5,0.7,0.6,0.9c-0.1,0-0.1,0.1-0.2,0.1
		c-0.2,0.1-0.5,0.1-0.7,0.1c0.1-0.2,0.2-0.3,0.2-0.5s0-0.6-0.4-1c-0.2-0.2-0.6-0.4-1-0.3c0-0.3-0.2-0.5-0.4-0.7
		c-0.4-0.3-0.9-0.4-1.4-0.3l0,0c-0.1-0.2-0.3-0.5-0.7-0.7c-0.4-0.2-0.8-0.2-1.2-0.1c-0.4-0.3-0.8-0.4-0.9-0.4
		c-0.6-0.1-1.3,0.2-1.8,0.7c-2.5,1.3-5.6,2.7-6.9,3.3c-0.7-1.3-1.3-2.6-1.7-4.1C7,47.4,6.9,47,6.8,46.6c3.6-0.4,6.5-0.8,8.7-1.3
		c2.2-0.4,3.7-0.9,4.4-1.4c0.8-0.6,1.4-0.9,2.2-0.8c0.2,0,0.4,0,0.5,0.1c-0.2,0.1-0.3,0.1-0.4,0.2c-0.3,0.2-0.5,0.4-0.7,0.6
		c-0.2,0.2-0.3,0.3-0.6,0.4c-0.2,0.1-0.4,0.2-0.6,0.3c-0.5,0.2-0.9,0.4-1,0.8c-0.1,0.4-0.1,0.7,0.2,1.1c0.4,0.5,1,0.5,1.5,0.5
		c0.6,0,1.3-0.2,1.8-0.5c0.2-0.1,0.3-0.2,0.5-0.3s0.4-0.3,0.5-0.3l0,0c0.4-0.1,0.9-0.1,1.5,0.2c0.5,0.2,1,0.5,1.5,0.8
		c1.1,0.7,2,1.7,2.2,2C28.9,49.1,28.9,49.2,28.7,49.4 M30.3,49c-0.4-0.3-0.6-0.5-0.8-0.7l0,0l0,0l-0.1-0.1c-0.4-0.5-1.2-1.4-2.3-2.1
		c-0.8-0.5-2.3-1.5-3.7-1.1c-0.3,0.1-0.5,0.2-0.8,0.4c-0.1,0.1-0.3,0.2-0.4,0.3c-0.4,0.3-1,0.4-1.4,0.4s-0.7,0-0.8-0.1
		c0,0,0-0.1,0-0.1c0.1-0.1,0.4-0.3,0.6-0.3c0.2-0.1,0.5-0.2,0.7-0.4c0.3-0.2,0.5-0.3,0.6-0.5c0.2-0.1,0.4-0.3,0.7-0.5
		c0.4-0.3,0.9-0.3,1.6-0.3l0,0c0.1,0,0.2,0,0.3,0c0.1,0,0.2,0,0.3,0c0.8,0,1.5,0.2,2.5,0.6c0.3,0.1,0.6,0.2,1,0.4
		c0.1,0,1.5,0.5,3.4,0.9c1.7,0.4,4.1,0.9,6.4,1c-0.1,0.4-0.2,0.7-0.3,1.1c-0.5,1.5-1.1,2.9-1.8,4.2C34.9,51.6,32.1,50.4,30.3,49
		 M35.7,58.2c-1.1,1-2.1,1.4-2.7,1.5c-0.2,0-0.4,0.1-0.6,0.1c-0.2,0-0.3,0-0.4,0l0,0c0-0.8,0.3-1.6,0.9-2.3c0.2-0.2,0.4-0.4,0.7-0.6
		l0,0l0,0c-0.1,0.7-0.3,1.3-0.3,1.3c0,0.1,0,0.2,0.1,0.3s0.2,0.1,0.3,0.1C34.4,58.1,35.2,58.1,35.7,58.2L35.7,58.2L35.7,58.2
		 M37.6,55.6c-0.4,0.5-0.7,0.9-1.1,1.2c-0.4,0.3-0.8,0.6-1.3,0.7c-0.4,0.1-0.8,0.2-1,0.2h-0.1l0,0c-0.1-0.8,0.2-1.5,0.7-2.3
		c0.2-0.2,0.3-0.5,0.5-0.7l0,0l0,0c0.1,0.7-0.1,1.3-0.1,1.4c0,0.1,0,0.2,0.1,0.3s0.2,0.1,0.3,0C36.4,55.7,37.1,55.6,37.6,55.6
		L37.6,55.6L37.6,55.6 M38.2,54.2c-0.4,0.4-0.8,0.6-1.2,0.8c-0.5,0.2-0.9,0.3-1.1,0.3l0,0l0,0c-0.1-0.8,0-1.6,0.4-2.4
		c0.1-0.3,0.3-0.5,0.5-0.8l0,0l0,0c0.1,0.7,0.1,1.4,0.1,1.4c0,0.1,0,0.2,0.1,0.3c0.1,0,0.2,0,0.3,0c0.7-0.6,1.4-0.8,1.9-0.9l0,0l0,0
		C38.9,53.4,38.6,53.9,38.2,54.2 M39.7,51.5c-0.3,0.4-0.7,0.7-1.1,1c-0.5,0.3-0.9,0.4-1.1,0.4l0,0l0,0c-0.2-0.8-0.2-1.6,0.1-2.5
		c0.1-0.3,0.2-0.5,0.4-0.8l0,0l0,0c0.2,0.7,0.2,1.3,0.2,1.3c0,0.1,0.1,0.2,0.2,0.2c0.1,0,0.2,0,0.3-0.1c0.6-0.6,1.1-0.9,1.5-1
		c0.1,0,0.2-0.1,0.3-0.1l0,0l0,0C40.3,50.5,40,51,39.7,51.5 M40.7,48.5c-0.3,0.4-0.6,0.8-1,1.1s-0.9,0.5-1,0.5l0,0l0,0
		c-0.4-0.9-0.3-1.8-0.1-2.5c0.1-0.3,0.2-0.6,0.3-0.9l0,0l0,0l0,0c0.3,0.6,0.4,1.4,0.4,1.4c0,0.1,0.1,0.2,0.2,0.2
		c0.1,0,0.2,0,0.3-0.1c0.6-0.7,1.2-1.1,1.7-1.3l0,0l0,0C41.3,47.6,41,48.1,40.7,48.5 M41.6,45.5c-0.2,0.5-0.5,0.9-0.9,1.2
		c-0.4,0.4-0.8,0.5-0.9,0.6l0,0l0,0c-0.4-0.7-0.5-1.5-0.4-2.5c0-0.3,0.1-0.6,0.2-0.9l0,0l0,0c0.4,0.6,0.5,1.3,0.5,1.4
		c0,0.1,0.1,0.2,0.2,0.2c0.1,0,0.2,0,0.3-0.1c0.5-0.8,1.1-1.2,1.5-1.5l0,0l0,0C42,44.5,41.8,45,41.6,45.5"/>
	<path class="st5" d="M23.6,11c3-0.5,3.3,0.4,3.3,0.4s0.1,0.2,0.3,0.1c0,0,0.2,0,0.1-0.3c0,0-0.3-1-1.9-1.1c0,0-0.8-0.1-1.7,0
		c-0.3,0-0.3,0.6-0.3,0.6C23.3,11,23.6,11,23.6,11"/>
	<path class="st5" d="M21,11.5c-0.4-0.2-1.2-0.1-1.2-0.1c-1.3,0-1.7,0.9-1.7,0.9c-0.1,0.3,0.1,0.3,0.1,0.3c0.3,0.1,0.4-0.2,0.4-0.2
		s0.1-0.2,0.6-0.4c0,0.1,0,0.2,0,0.3c0,0.4,0.3,0.7,0.7,0.7c0.4,0,0.7-0.3,0.7-0.7c0-0.1,0-0.2-0.1-0.3c0.2,0.1,0.4,0.2,0.5,0.4
		c0,0.1,0.2,0.1,0.4,0.1c0.3,0,0.2-0.2,0.2-0.2C21.5,11.7,21,11.5,21,11.5"/>
	<path class="st5" d="M23.5,12.6c0.3,0,0.4,0,0.4-0.1c0.1-0.2,0.3-0.4,0.5-0.4c0,0.1-0.1,0.2-0.1,0.3c0,0.4,0.3,0.7,0.7,0.7
		c0.4,0,0.7-0.3,0.7-0.7c0-0.1,0-0.2,0-0.3c0.6,0.1,0.6,0.4,0.6,0.4s0.1,0.2,0.4,0.2c0,0,0.2,0,0.1-0.3c0,0-0.4-0.8-1.7-0.9
		c0,0-0.8,0-1.2,0.1c0,0-0.4,0.2-0.6,0.9C23.3,12.5,23.2,12.6,23.5,12.6"/>
	<path class="st5" d="M17.7,11.5c0.2,0.1,0.3-0.1,0.3-0.1s0.3-0.9,3.3-0.4c0,0,0.3,0.1,0.2-0.2c0,0-0.1-0.6-0.3-0.6
		c-0.9-0.2-1.7,0-1.7,0c-1.6,0.2-1.9,1.1-1.9,1.1C17.5,11.5,17.7,11.5,17.7,11.5"/>
	<g>
		<path class="st3" d="M73.7,23.3h4.2l11.3,25.8h-4.8L81.8,43H69.7l-2.6,6.2h-4.6L73.7,23.3z M80.2,39l-4.4-10.3L71.4,39H80.2z"/>
		<path class="st3" d="M92.3,29.8h4.4v4.4c1.2-2.9,3.4-4.9,6.9-4.7v4.7h-0.3c-3.9,0-6.6,2.5-6.6,7.7v7.4h-4.4V29.8z"/>
		<path class="st3" d="M106.7,52.8l1.6-3.3c2.1,1.3,4.2,2.1,6.9,2.1c4,0,6.1-2.1,6.1-5.9v-1.5c-1.6,2.1-3.6,3.6-6.8,3.6
			c-4.5,0-8.8-3.4-8.8-9v-0.1c0-5.7,4.3-9.1,8.8-9.1c3.3,0,5.3,1.5,6.8,3.3V30h4.4v15.4c0,3.3-0.8,5.7-2.5,7.3
			c-1.8,1.8-4.5,2.6-7.9,2.6C112.2,55.1,109.2,54.3,106.7,52.8z M121.4,38.6L121.4,38.6c0-3.2-2.6-5.4-5.7-5.4s-5.5,2.1-5.5,5.3v0.1
			c0,3.2,2.5,5.3,5.5,5.3C118.8,43.9,121.4,41.7,121.4,38.6z"/>
		<path class="st3" d="M129.6,39.6L129.6,39.6c0-5.6,3.9-10.1,9.5-10.1c6.2,0,9.3,4.8,9.3,10.4c0,0.4,0,0.8-0.1,1.2H134
			c0.5,3.2,2.7,4.9,5.6,4.9c2.2,0,3.7-0.8,5.2-2.3l2.6,2.3c-1.8,2.2-4.4,3.6-7.9,3.6C133.9,49.6,129.6,45.5,129.6,39.6z M143.9,38.1
			c-0.3-2.9-2-5.1-4.9-5.1c-2.7,0-4.6,2.1-5,5.1H143.9z"/>
		<path class="st3" d="M152.1,29.8h4.4v3c1.2-1.8,3-3.4,6-3.4c4.4,0,6.9,2.9,6.9,7.4v12.3H165v-11c0-3-1.5-4.7-4.1-4.7
			s-4.4,1.8-4.4,4.8v10.9h-4.4V29.8z"/>
		<path class="st3" d="M175,43.8V33.6h-2.5v-3.8h2.5v-5.3h4.4v5.3h5.2v3.8h-5.2v9.5c0,1.7,0.9,2.4,2.4,2.4c1,0,1.9-0.2,2.7-0.7v3.6
			c-1.1,0.6-2.3,1-4,1C177.3,49.5,175,48.1,175,43.8z"/>
		<path class="st3" d="M188.5,22.7h4.8v4.2h-4.8V22.7z M188.7,29.8h4.4v19.3h-4.4V29.8z"/>
		<path class="st3" d="M198.2,29.8h4.4v3c1.2-1.8,3-3.4,6-3.4c4.4,0,6.9,2.9,6.9,7.4v12.3h-4.4v-11c0-3-1.5-4.7-4.1-4.7
			s-4.4,1.8-4.4,4.8v10.9h-4.4V29.8z"/>
		<path class="st3" d="M218.9,43.6L218.9,43.6c0-4.2,3.3-6.3,8-6.3c2.2,0,3.7,0.3,5.2,0.8v-0.5c0-2.7-1.7-4.2-4.8-4.2
			c-2.2,0-3.8,0.5-5.5,1.2l-1.2-3.5c2.1-1,4.2-1.6,7.3-1.6c2.9,0,5.1,0.8,6.4,2.2c1.4,1.4,2.1,3.4,2.1,6v11.5H232v-2.4
			c-1.3,1.6-3.3,2.8-6.3,2.8C222.1,49.6,218.9,47.5,218.9,43.6z M232.1,42.2v-1.3c-1.1-0.4-2.6-0.8-4.4-0.8c-2.9,0-4.5,1.2-4.5,3.2
			v0.1c0,1.9,1.6,2.9,3.8,2.9C229.9,46.4,232.1,44.7,232.1,42.2z"/>
		<path class="st3" d="M240.7,44.1h4.9v5.1h-4.9V44.1z"/>
		<path class="st3" d="M250.1,52.8l1.6-3.3c2.1,1.3,4.2,2.1,6.9,2.1c4,0,6.1-2.1,6.1-5.9v-1.5c-1.6,2.1-3.6,3.6-6.8,3.6
			c-4.5,0-8.8-3.4-8.8-9v-0.1c0-5.7,4.3-9.1,8.8-9.1c3.3,0,5.3,1.5,6.8,3.3V30h4.4v15.4c0,3.3-0.8,5.7-2.5,7.3
			c-1.8,1.8-4.5,2.6-7.9,2.6C255.6,55.1,252.6,54.3,250.1,52.8z M264.8,38.6L264.8,38.6c0-3.2-2.6-5.4-5.7-5.4s-5.5,2.1-5.5,5.3v0.1
			c0,3.2,2.5,5.3,5.5,5.3C262.2,43.9,264.8,41.7,264.8,38.6z"/>
		<path class="st3" d="M272.9,39.6L272.9,39.6c0-5.6,4.4-10.2,10.3-10.2s10.3,4.5,10.3,10v0.1c0,5.5-4.4,10.1-10.4,10.1
			C277.3,49.6,272.9,45.1,272.9,39.6z M289.1,39.6L289.1,39.6c0-3.5-2.5-6.3-5.9-6.3c-3.6,0-5.8,2.8-5.8,6.2v0.1
			c0,3.4,2.5,6.2,5.9,6.2C286.8,45.7,289.1,42.9,289.1,39.6z"/>
		<path class="st3" d="M301.8,46.2v3h-4.4V22.4h4.4V33c1.4-2,3.4-3.6,6.6-3.6c4.5,0,9,3.6,9,10v0.1c0,6.4-4.4,10-9,10
			C305.1,49.6,303.1,48,301.8,46.2z M312.8,39.5L312.8,39.5c0-3.8-2.5-6.3-5.5-6.3s-5.6,2.5-5.6,6.2v0.1c0,3.7,2.6,6.2,5.6,6.2
			S312.8,43.3,312.8,39.5z"/>
		<path class="st3" d="M320.9,44.1h4.9v5.1h-4.9V44.1z"/>
		<path class="st3" d="M329.1,43.6L329.1,43.6c0-4.2,3.3-6.3,8-6.3c2.2,0,3.7,0.3,5.2,0.8v-0.5c0-2.7-1.7-4.2-4.8-4.2
			c-2.2,0-3.8,0.5-5.5,1.2l-1.2-3.5c2.1-1,4.2-1.6,7.3-1.6c2.9,0,5.1,0.8,6.4,2.2c1.4,1.4,2.1,3.4,2.1,6v11.5h-4.3v-2.4
			c-1.3,1.6-3.3,2.8-6.3,2.8C332.3,49.6,329.1,47.5,329.1,43.6z M342.3,42.2v-1.3c-1.1-0.4-2.6-0.8-4.4-0.8c-2.9,0-4.5,1.2-4.5,3.2
			v0.1c0,1.9,1.6,2.9,3.8,2.9C340.1,46.4,342.3,44.7,342.3,42.2z"/>
		<path class="st3" d="M351.1,29.8h4.4v4.4c1.2-2.9,3.4-4.9,6.9-4.7v4.7h-0.3c-3.9,0-6.6,2.5-6.6,7.7v7.4h-4.4V29.8z"/>
	</g>
	<path class="st3" d="M24,64.2c0-0.1,0-0.2,0-0.4c0-0.1,0-0.2,0-0.3c0.5-0.1,1.4-0.4,1.9-1c0.3-0.3,0.4-0.8,0.4-1.2
		s-0.2-0.7-0.6-0.9c-0.9-0.6-2.7-0.2-3.2,0c-0.5-0.1-2.3-0.6-3.2,0c-0.3,0.2-0.5,0.5-0.6,0.9c-0.1,0.5,0.1,0.9,0.4,1.2
		c0.5,0.6,1.4,0.9,1.9,1c0,0.1,0,0.2,0,0.3s0,0.2,0,0.4c-0.4,0.4-1.7,1.5-3.5,1.7l0,0c0.1,0.1,0.2,0.4,0.5,0.6
		c1.6-0.3,2.8-1.2,3.3-1.7c0.1,0.1,0.1,0.1,0.2,0.2c-0.1,0.5-0.6,1.6-2.6,2.1c0.3,0.2,0.7,0.3,1.2,0.3c1.4-0.6,1.9-1.6,2.1-2.2
		c0.1,0,0.2,0,0.3,0c0.1,0,0.2,0,0.3,0c0.2,0.6,0.7,1.5,2.1,2.2c0.5-0.1,0.9-0.2,1.2-0.3c-2-0.5-2.5-1.7-2.6-2.1
		c0.1-0.1,0.1-0.1,0.2-0.2c0.5,0.5,1.7,1.4,3.3,1.7c0.3-0.3,0.5-0.6,0.5-0.6C25.6,65.7,24.4,64.6,24,64.2z M20.5,61.6
		c-0.1,0.4-0.1,0.8,0.1,1.1c-0.4-0.1-0.7-0.3-0.9-0.6c-0.2-0.2-0.2-0.4-0.2-0.7c0-0.2,0.1-0.3,0.3-0.4c0.2-0.1,0.5-0.2,0.9-0.2
		c0.2,0,0.3,0,0.5,0C20.8,61,20.6,61.2,20.5,61.6z M22.5,64.7c-0.4,0-0.8-0.4-0.8-0.8c0-0.4,0.4-0.8,0.8-0.8s0.8,0.4,0.8,0.8
		C23.3,64.3,22.9,64.7,22.5,64.7z M23.5,62.7c-0.3-0.2-0.6-0.4-1-0.4s-0.7,0.1-1,0.4c-0.2-0.2-0.4-0.6-0.3-0.9
		c0.3-0.7,1.3-0.7,1.3-0.7l0,0c0,0,0.3,0,0.6,0.1c0.4,0.1,0.6,0.3,0.7,0.6C23.9,62.1,23.7,62.5,23.5,62.7z M25.3,61
		c0.1,0.1,0.2,0.2,0.3,0.4c0,0.3,0,0.5-0.2,0.7c-0.2,0.3-0.6,0.4-0.9,0.6c0.2-0.4,0.2-0.7,0.1-1.1c-0.1-0.3-0.3-0.6-0.6-0.8
		C24.4,60.8,25,60.8,25.3,61z"/>
</g>
</svg>
