<?xml version="1.0" encoding="utf-8"?>
<!-- Generator: Adobe Illustrator 22.0.1, SVG Export Plug-In . SVG Version: 6.00 Build 0)  -->
<svg version="1.1" id="Layer_1" xmlns="http://www.w3.org/2000/svg" xmlns:xlink="http://www.w3.org/1999/xlink" x="0px" y="0px"
	 viewBox="0 0 369.5 70" style="enable-background:new 0 0 369.5 70;" xml:space="preserve">
<style type="text/css">
	.st0{fill:#0094D4;}
	.st1{fill:#0090D1;}
	.st2{fill:#FFFFFF;}
	.st3{fill:#1D1D1B;}
	.st4{fill:#FCC200;}
	.st5{fill:#289B38;}
	.st6{fill:#E53212;}
	.st7{fill:#F9C081;}
</style>
<g>
	<g>
		<path class="st0" d="M73.7,23.3h4.2l11.3,25.8h-4.8L81.8,43H69.7l-2.6,6.2h-4.6L73.7,23.3z M80.2,39l-4.4-10.3L71.4,39H80.2z"/>
		<path class="st0" d="M92.3,29.8h4.4v4.4c1.2-2.9,3.4-4.9,6.9-4.7v4.7h-0.3c-3.9,0-6.6,2.5-6.6,7.7v7.4h-4.4V29.8z"/>
		<path class="st0" d="M106.7,52.8l1.6-3.3c2.1,1.3,4.2,2.1,6.9,2.1c4,0,6.1-2.1,6.1-5.9v-1.5c-1.6,2.1-3.6,3.6-6.8,3.6
			c-4.5,0-8.8-3.4-8.8-9v-0.1c0-5.7,4.3-9.1,8.8-9.1c3.3,0,5.3,1.5,6.8,3.3V30h4.4v15.4c0,3.3-0.8,5.7-2.5,7.3
			c-1.8,1.8-4.5,2.6-7.9,2.6C112.2,55.1,109.2,54.3,106.7,52.8z M121.4,38.6L121.4,38.6c0-3.2-2.6-5.4-5.7-5.4s-5.5,2.1-5.5,5.3v0.1
			c0,3.2,2.5,5.3,5.5,5.3C118.8,43.9,121.4,41.7,121.4,38.6z"/>
		<path class="st0" d="M129.6,39.6L129.6,39.6c0-5.6,3.9-10.1,9.5-10.1c6.2,0,9.3,4.8,9.3,10.4c0,0.4,0,0.8-0.1,1.2H134
			c0.5,3.2,2.7,4.9,5.6,4.9c2.2,0,3.7-0.8,5.2-2.3l2.6,2.3c-1.8,2.2-4.4,3.6-7.9,3.6C133.9,49.6,129.6,45.5,129.6,39.6z M143.9,38.1
			c-0.3-2.9-2-5.1-4.9-5.1c-2.7,0-4.6,2.1-5,5.1H143.9z"/>
		<path class="st0" d="M152.1,29.8h4.4v3c1.2-1.8,3-3.4,6-3.4c4.4,0,6.9,2.9,6.9,7.4v12.3H165v-11c0-3-1.5-4.7-4.1-4.7
			s-4.4,1.8-4.4,4.8v10.9h-4.4V29.8z"/>
		<path class="st0" d="M175,43.8V33.6h-2.5v-3.8h2.5v-5.3h4.4v5.3h5.2v3.8h-5.2v9.5c0,1.7,0.9,2.4,2.4,2.4c1,0,1.9-0.2,2.7-0.7v3.6
			c-1.1,0.6-2.3,1-4,1C177.3,49.5,175,48.1,175,43.8z"/>
		<path class="st0" d="M188.5,22.7h4.8v4.2h-4.8V22.7z M188.7,29.8h4.4v19.3h-4.4V29.8z"/>
		<path class="st0" d="M198.2,29.8h4.4v3c1.2-1.8,3-3.4,6-3.4c4.4,0,6.9,2.9,6.9,7.4v12.3h-4.4v-11c0-3-1.5-4.7-4.1-4.7
			s-4.4,1.8-4.4,4.8v10.9h-4.4V29.8z"/>
		<path class="st0" d="M218.9,43.6L218.9,43.6c0-4.2,3.3-6.3,8-6.3c2.2,0,3.7,0.3,5.2,0.8v-0.5c0-2.7-1.7-4.2-4.8-4.2
			c-2.2,0-3.8,0.5-5.5,1.2l-1.2-3.5c2.1-1,4.2-1.6,7.3-1.6c2.9,0,5.1,0.8,6.4,2.2c1.4,1.4,2.1,3.4,2.1,6v11.5H232v-2.4
			c-1.3,1.6-3.3,2.8-6.3,2.8C222.1,49.6,218.9,47.5,218.9,43.6z M232.1,42.2v-1.3c-1.1-0.4-2.6-0.8-4.4-0.8c-2.9,0-4.5,1.2-4.5,3.2
			v0.1c0,1.9,1.6,2.9,3.8,2.9C229.9,46.4,232.1,44.7,232.1,42.2z"/>
		<path class="st0" d="M240.7,44.1h4.9v5.1h-4.9V44.1z"/>
		<path class="st0" d="M250.1,52.8l1.6-3.3c2.1,1.3,4.2,2.1,6.9,2.1c4,0,6.1-2.1,6.1-5.9v-1.5c-1.6,2.1-3.6,3.6-6.8,3.6
			c-4.5,0-8.8-3.4-8.8-9v-0.1c0-5.7,4.3-9.1,8.8-9.1c3.3,0,5.3,1.5,6.8,3.3V30h4.4v15.4c0,3.3-0.8,5.7-2.5,7.3
			c-1.8,1.8-4.5,2.6-7.9,2.6C255.6,55.1,252.6,54.3,250.1,52.8z M264.8,38.6L264.8,38.6c0-3.2-2.6-5.4-5.7-5.4s-5.5,2.1-5.5,5.3v0.1
			c0,3.2,2.5,5.3,5.5,5.3C262.2,43.9,264.8,41.7,264.8,38.6z"/>
		<path class="st0" d="M272.9,39.6L272.9,39.6c0-5.6,4.4-10.2,10.3-10.2s10.3,4.5,10.3,10v0.1c0,5.5-4.4,10.1-10.4,10.1
			C277.3,49.6,272.9,45.1,272.9,39.6z M289.1,39.6L289.1,39.6c0-3.5-2.5-6.3-5.9-6.3c-3.6,0-5.8,2.8-5.8,6.2v0.1
			c0,3.4,2.5,6.2,5.9,6.2C286.8,45.7,289.1,42.9,289.1,39.6z"/>
		<path class="st0" d="M301.8,46.2v3h-4.4V22.4h4.4V33c1.4-2,3.4-3.6,6.6-3.6c4.5,0,9,3.6,9,10v0.1c0,6.4-4.4,10-9,10
			C305.1,49.6,303.1,48,301.8,46.2z M312.8,39.5L312.8,39.5c0-3.8-2.5-6.3-5.5-6.3s-5.6,2.5-5.6,6.2v0.1c0,3.7,2.6,6.2,5.6,6.2
			S312.8,43.3,312.8,39.5z"/>
		<path class="st0" d="M320.9,44.1h4.9v5.1h-4.9V44.1z"/>
		<path class="st0" d="M329.1,43.6L329.1,43.6c0-4.2,3.3-6.3,8-6.3c2.2,0,3.7,0.3,5.2,0.8v-0.5c0-2.7-1.7-4.2-4.8-4.2
			c-2.2,0-3.8,0.5-5.5,1.2l-1.2-3.5c2.1-1,4.2-1.6,7.3-1.6c2.9,0,5.1,0.8,6.4,2.2c1.4,1.4,2.1,3.4,2.1,6v11.5h-4.3v-2.4
			c-1.3,1.6-3.3,2.8-6.3,2.8C332.3,49.6,329.1,47.5,329.1,43.6z M342.3,42.2v-1.3c-1.1-0.4-2.6-0.8-4.4-0.8c-2.9,0-4.5,1.2-4.5,3.2
			v0.1c0,1.9,1.6,2.9,3.8,2.9C340.1,46.4,342.3,44.7,342.3,42.2z"/>
		<path class="st0" d="M351.1,29.8h4.4v4.4c1.2-2.9,3.4-4.9,6.9-4.7v4.7h-0.3c-3.9,0-6.6,2.5-6.6,7.7v7.4h-4.4V29.8z"/>
	</g>
	<g>
		<path class="st1" d="M22.4,34.6h-3.5c-0.8,0-1.2-0.3-1.4-0.6c-0.2-0.2-0.3-0.5-0.4-0.9c0,0,0-0.1,0-0.1c0-0.3,0-0.7,0.1-1.1
			c0.5-2.3,1.4-3.8,2.1-4.7c-0.1,0-0.2-0.1-0.2-0.1c-0.5-0.3-0.7-0.8-0.6-1.4c0.1-0.8,0.8-1.5,1-1.7c1.2-1.4,3-1.5,3.2-1.5
			c0.3,0,2.6-0.1,3.9,2.3c1.5,2.9,1.9,5.4,2.2,7.3l0,0.1c0.1,0.3,0,0.6,0,0.9c0,0,0,0.1,0,0.1c-0.1,0.3-0.2,0.5-0.4,0.6
			c-0.3,0.3-0.8,0.6-1.4,0.7c-0.2,0-0.5,0-0.6,0c-0.1,0-0.1,0-0.1,0h-1c0,0,0,0,0,0c0,0,0,0,0,0h-1.7v4.9h15.5
			c0-2.9-0.4-5.7-1.3-8.3c-0.8-2.5-2-4.8-3.5-6.8c-1.5-1.9-3.2-3.5-5.1-4.5c-2-1.1-4.1-1.7-6.2-1.7c-2.2,0-4.2,0.6-6.2,1.7
			c-1.9,1.1-3.6,2.6-5.1,4.5c-1.5,2-2.6,4.2-3.5,6.8c-0.8,2.6-1.3,5.4-1.3,8.3h15.5V34.6z"/>
		<path class="st2" d="M6.9,39.5c0,2.2,0.2,4.3,0.7,6.4c6.9-0.8,11.1-1.6,12.3-2.4c0.9-0.6,1.6-1,2.5-0.9v-3H6.9z"/>
		<path class="st2" d="M23.4,42.7c0.6,0.1,1.1,0.3,1.6,0.5c0.1,0,0.1,0,0.2,0c0.9,0,1.6,0.2,2.7,0.6c0.3,0.1,0.6,0.2,1,0.3
			c0.2,0,5.1,1.6,9.4,1.9c0.5-2.1,0.8-4.2,0.8-6.5H23.4V42.7z"/>
		<polyline class="st3" points="21.9,15.6 21.9,15.6 21.9,15.6 		"/>
		<path class="st3" d="M18.6,16.1L18.6,16.1z"/>
		<polyline class="st3" points="18.6,16.1 18.6,16.1 18.6,16.1 18.6,16.1 		"/>
		<path class="st2" d="M29.7,49.4c-0.1,0.1-0.2,0.3-0.3,0.4c-0.3,0.3-0.6,0.4-1,0.4c-0.1,0.1-0.1,0.3-0.3,0.4
			c-0.2,0.3-0.7,0.6-1.4,0.5c-0.1,0.1-0.2,0.2-0.3,0.4c-0.3,0.4-0.8,0.5-1.3,0.4c-0.1,0.1-0.3,0.2-0.5,0.3c-0.3,0.1-0.7,0.2-1.2,0.1
			v4.1c0,0.3-0.2,0.5-0.5,0.5c-0.3,0-0.5-0.2-0.5-0.5v-3.9c-0.2,0.1-0.4,0.1-0.7,0.1c-0.1,0-0.2,0-0.3,0c-0.3-0.1-0.5-0.2-0.7-0.5
			c-0.3,0.1-1,0.1-1.4-0.2c-0.2-0.1-0.3-0.3-0.4-0.5c-0.1,0-0.3,0-0.5-0.1c-0.5-0.1-0.8-0.4-0.9-0.8c-0.1,0-0.2,0-0.4,0
			c-0.4-0.1-0.9-0.2-1.1-0.7c0-0.1-0.1-0.2-0.1-0.3c-2.2,1.1-4.7,2.3-5.9,2.8c0.4,0.8,0.9,1.5,1.4,2.2c1.5,1.9,3.2,3.5,5.1,4.5
			c0.9,0.5,1.8,0.9,2.7,1.2c0.1-0.2,0.2-0.3,0.4-0.4c0.9-0.6,2.6-0.2,3.1,0c0.5-0.1,2.2-0.6,3.1,0c0.2,0.1,0.3,0.3,0.4,0.4
			c0.9-0.3,1.9-0.7,2.7-1.2c1.9-1.1,3.6-2.6,5.1-4.5c0.5-0.6,0.9-1.3,1.4-2C34.3,52,31.5,50.8,29.7,49.4"/>
		<path class="st1" d="M24.3,63.5c0-0.1,0-0.2,0-0.4c0-0.1,0-0.2,0-0.3c0.5-0.1,1.4-0.4,1.8-0.9c0.3-0.3,0.4-0.7,0.3-1.2
			c0-0.4-0.2-0.7-0.5-0.9c-0.9-0.6-2.6-0.2-3.1,0c-0.5-0.1-2.2-0.6-3.1,0c-0.3,0.2-0.5,0.5-0.5,0.9c0,0.4,0.1,0.8,0.3,1.2
			c0.5,0.6,1.3,0.8,1.9,0.9c0,0.1,0,0.2,0,0.3c0,0.1,0,0.2,0,0.3c-0.4,0.4-1.6,1.4-3.4,1.6v0c0.1,0.1,0.2,0.3,0.5,0.6
			c1.6-0.3,2.7-1.2,3.2-1.6c0.1,0.1,0.1,0.1,0.2,0.2c-0.1,0.4-0.6,1.5-2.5,2c0.3,0.1,0.7,0.3,1.2,0.3c1.3-0.6,1.8-1.5,2-2.1
			c0.1,0,0.2,0,0.3,0c0.1,0,0.2,0,0.3,0c0.2,0.5,0.6,1.5,2,2.1c0.5-0.1,0.8-0.2,1.2-0.3c-1.9-0.5-2.4-1.6-2.5-2
			c0.1,0,0.1-0.1,0.2-0.2c0.5,0.5,1.6,1.3,3.2,1.6c0.3-0.3,0.5-0.5,0.5-0.6C25.9,65,24.7,63.9,24.3,63.5"/>
		<path class="st2" d="M25.6,60.4c0.1,0.1,0.2,0.2,0.2,0.4c0,0.3,0,0.5-0.2,0.7c-0.2,0.2-0.5,0.4-0.9,0.5c0.2-0.3,0.2-0.7,0.1-1
			c-0.1-0.3-0.3-0.6-0.6-0.7C24.8,60.2,25.3,60.2,25.6,60.4"/>
		<path class="st2" d="M21.6,61.2c0.3-0.7,1.2-0.7,1.3-0.7h0c0,0,0.3,0,0.6,0.1c0.4,0.1,0.6,0.3,0.7,0.6c0.1,0.3-0.1,0.6-0.3,0.8
			c-0.3-0.2-0.6-0.4-1-0.4c-0.4,0-0.7,0.1-1,0.4C21.7,61.9,21.5,61.5,21.6,61.2"/>
		<path class="st2" d="M21.1,62c-0.3-0.1-0.7-0.3-0.9-0.5c-0.2-0.2-0.2-0.4-0.2-0.7c0-0.2,0.1-0.3,0.2-0.4c0.2-0.1,0.5-0.2,0.9-0.2
			c0.1,0,0.3,0,0.4,0c-0.2,0.2-0.4,0.4-0.6,0.7C20.8,61.4,20.9,61.7,21.1,62"/>
		<path class="st2" d="M22.1,63.2c0-0.4,0.3-0.8,0.8-0.8c0.4,0,0.8,0.3,0.8,0.8c0,0.4-0.3,0.8-0.8,0.8
			C22.5,63.9,22.1,63.6,22.1,63.2"/>
		<path class="st2" d="M27.2,65.8c-1.6-0.3-2.7-1.2-3.2-1.6c-0.1,0.1-0.1,0.1-0.2,0.2c0.1,0.4,0.6,1.5,2.5,2
			C26.7,66.2,27,66,27.2,65.8"/>
		<path class="st2" d="M21.8,64.1c-0.5,0.5-1.6,1.3-3.2,1.6c0.2,0.2,0.5,0.4,0.9,0.6c1.9-0.5,2.4-1.6,2.5-2
			C21.9,64.3,21.9,64.2,21.8,64.1"/>
		<path class="st3" d="M42.3,43.7c0-0.1,0-0.2-0.1-0.3c-0.1-0.1-0.1-0.1-0.2-0.1c0.1-0.1,0.1-0.3,0.2-0.4c0.2-0.7,0.4-1.4,0.4-2.3
			c0-0.1-0.1-0.2-0.1-0.3c-0.1,0-0.1-0.1-0.2-0.1c0-0.1,0.1-0.3,0.1-0.4c0.2-0.7,0.2-1.4,0.2-2.3c0-0.1-0.1-0.2-0.2-0.3
			c-0.1,0-0.2,0-0.2,0c0-0.2,0.1-0.3,0.1-0.5c0.1-0.7,0.1-1.5-0.1-2.3c0-0.1-0.1-0.2-0.2-0.2c-0.1,0-0.1,0-0.2,0
			c0-0.1,0-0.2,0.1-0.4c0.1-0.7,0-1.5-0.2-2.3c0-0.1-0.1-0.2-0.2-0.2c-0.1,0-0.2,0-0.3,0c0,0,0,0,0,0c0-0.2,0-0.4,0-0.6
			c0-0.7-0.2-1.5-0.5-2.2c0-0.1-0.1-0.2-0.2-0.2c-0.1,0-0.2,0-0.3,0c0-0.2,0-0.3,0-0.5c-0.1-0.7-0.3-1.4-0.7-2.2
			c-0.1-0.1-0.1-0.2-0.3-0.2c-0.1,0-0.2,0-0.2,0.1c0-0.2-0.1-0.3-0.1-0.5c-0.2-0.7-0.5-1.4-1-2.1c-0.1-0.1-0.2-0.1-0.3-0.1
			c-0.1,0-0.2,0.1-0.3,0.1c-0.1-0.2-0.1-0.4-0.2-0.5c-0.3-0.6-0.7-1.3-1.3-1.9c-0.1-0.1-0.2-0.1-0.3-0.1c-0.1,0-0.2,0.1-0.2,0.1
			c-0.1-0.2-0.2-0.4-0.3-0.5c-0.4-0.6-0.9-1.1-1.6-1.7c-0.1-0.1-0.2-0.1-0.3-0.1c-0.1,0-0.2,0.1-0.2,0.2c-0.4-0.6-1-1-1.8-1.3
			c0.1,0,0.3,0,0.4,0c0.9,0.1,1.6-0.1,1.6-0.1c0.2-0.1,0.3-0.3,0.3-0.5c0-0.2-0.2-0.4-0.4-0.4c-1,0-1.4-0.3-1.9-0.5
			c-0.1-0.1-0.2-0.1-0.3-0.2l2.4-0.4c0.2,0,0.4-0.2,0.4-0.4c0-0.2-0.2-0.4-0.4-0.4l-2.3-0.3c0.3-0.1,0.6-0.2,0.9-0.3
			c0.9-0.3,1.4-0.7,1.4-0.7c0.2-0.1,0.2-0.4,0.1-0.5s-0.3-0.3-0.5-0.2c-0.9,0.3-1.4,0.3-1.9,0.2c-0.1,0-0.2,0-0.3,0l2-1.2
			c0.2-0.1,0.3-0.3,0.2-0.5c-0.1-0.2-0.3-0.3-0.5-0.2l-2.3,0.6c0.2-0.2,0.5-0.4,0.7-0.6c0.7-0.6,1-1.2,1-1.2c0.1-0.2,0-0.4-0.1-0.5
			c-0.2-0.1-0.4-0.1-0.5,0c-0.7,0.7-1.2,0.8-1.7,1c-0.1,0-0.2,0.1-0.3,0.1L30.4,8c0.1-0.2,0.1-0.4,0-0.5c-0.1-0.1-0.4-0.2-0.5,0
			l-1.9,1.4c0.1-0.2,0.3-0.5,0.5-0.9c0.4-0.8,0.5-1.5,0.5-1.5c0-0.2-0.1-0.4-0.3-0.4c-0.2-0.1-0.4,0-0.5,0.2
			c-0.4,0.9-0.8,1.2-1.2,1.5c-0.1,0.1-0.2,0.1-0.2,0.2l0.6-2.3c0.1-0.2-0.1-0.4-0.2-0.5c-0.2-0.1-0.4,0-0.5,0.2l-1.2,2.1
			c0-0.3,0.1-0.6,0.1-1c0.1-0.9-0.1-1.6-0.2-1.6c-0.1-0.2-0.3-0.3-0.5-0.3S24.3,4.7,24.3,5c0,1-0.3,1.4-0.5,1.9
			c0,0.1-0.1,0.2-0.1,0.3l-0.3-2.3c0-0.2-0.2-0.4-0.4-0.4h0c-0.2,0-0.4,0.2-0.4,0.4l-0.3,2.3c-0.1-0.3-0.2-0.6-0.3-0.9
			c-0.3-0.9-0.7-1.4-0.7-1.4c-0.1-0.2-0.4-0.2-0.5-0.1c-0.2,0.1-0.3,0.3-0.2,0.5c0.3,0.9,0.3,1.4,0.2,1.9c0,0.1,0,0.2,0,0.3
			l-1.2-2.1c-0.1-0.2-0.3-0.3-0.5-0.2c-0.2,0.1-0.3,0.3-0.2,0.5L19.2,8c-0.2-0.2-0.4-0.5-0.6-0.7c-0.6-0.7-1.2-1-1.2-1
			c-0.2-0.1-0.4,0-0.5,0.1c-0.1,0.2-0.1,0.4,0,0.5c0.7,0.7,0.8,1.2,1,1.7c0,0.1,0.1,0.2,0.1,0.3L16,7.4c-0.2-0.1-0.4-0.1-0.5,0
			c-0.1,0.1-0.2,0.4,0,0.5l1.4,1.9c-0.2-0.1-0.5-0.3-0.8-0.4C15.1,9.1,14.5,9,14.4,9C14.2,9,14,9.1,14,9.3c-0.1,0.2,0,0.4,0.2,0.5
			c0.9,0.4,1.2,0.8,1.5,1.2c0.1,0.1,0.1,0.2,0.2,0.2l-2.3-0.6c-0.2-0.1-0.4,0.1-0.5,0.2c-0.1,0.2,0,0.4,0.2,0.5l2,1.2
			c-0.3,0-0.6-0.1-1-0.1c-0.9-0.1-1.6,0.1-1.6,0.2c-0.2,0.1-0.3,0.3-0.3,0.5c0,0.2,0.2,0.4,0.4,0.4c1,0,1.4,0.3,1.9,0.5
			c0.1,0,0.2,0.1,0.3,0.1l-2.4,0.3c-0.2,0-0.4,0.2-0.4,0.4c0,0.2,0.2,0.4,0.4,0.4l2.4,0.3c-0.3,0.1-0.6,0.2-0.9,0.3
			c-0.9,0.3-1.4,0.7-1.4,0.8c-0.2,0.1-0.2,0.4-0.1,0.5c0.1,0.2,0.3,0.3,0.5,0.2c0.6-0.2,0.9-0.3,1.2-0.3c-0.5,0.4-0.9,0.8-1.1,1
			c-0.1,0.1-0.2,0.2-0.3,0.4c0-0.1-0.1-0.1-0.2-0.1c-0.1,0-0.2,0-0.3,0.1c-0.7,0.5-1.2,1.1-1.6,1.7c-0.1,0.2-0.2,0.3-0.3,0.5
			c-0.1-0.1-0.1-0.1-0.2-0.1c-0.1,0-0.2,0-0.3,0.1c-0.6,0.6-1,1.3-1.3,1.9c-0.1,0.2-0.1,0.3-0.2,0.5C8.6,23,8.6,23,8.5,23
			c-0.1,0-0.2,0-0.3,0.1c-0.5,0.7-0.9,1.4-1.1,2C7.1,25.3,7,25.5,7,25.7c-0.1-0.1-0.2-0.1-0.3-0.1c-0.1,0-0.2,0.1-0.3,0.2
			c-0.4,0.7-0.6,1.5-0.7,2.2c0,0.2,0,0.3,0,0.5c-0.1-0.1-0.2-0.1-0.3-0.1c-0.1,0-0.2,0.1-0.2,0.2c-0.3,0.8-0.4,1.5-0.5,2.2
			c0,0.2,0,0.3,0,0.5c-0.1,0-0.2-0.1-0.3,0c-0.1,0-0.2,0.1-0.2,0.2C4,32.3,4,33.1,4,33.8c0,0.1,0,0.3,0.1,0.4c0,0-0.1,0-0.1,0
			c-0.1,0-0.2,0.1-0.2,0.2c-0.2,0.8-0.2,1.6-0.1,2.3c0,0.2,0.1,0.4,0.1,0.5c0,0-0.1,0-0.1,0c-0.1,0-0.2,0.1-0.2,0.3
			c-0.1,0.8-0.1,1.6,0.1,2.3c0,0.1,0.1,0.3,0.1,0.4c-0.1,0-0.2,0-0.2,0c-0.1,0.1-0.2,0.2-0.2,0.3c0,0.8,0.1,1.6,0.3,2.3
			c0.1,0.2,0.1,0.4,0.2,0.6c0,0,0,0,0,0c-0.1,0-0.2,0-0.3,0.1c-0.1,0.1-0.1,0.2-0.1,0.3c0.1,0.8,0.4,1.6,0.7,2.2
			c0.1,0.1,0.1,0.2,0.2,0.3c-0.1,0-0.1,0-0.2,0.1C4.1,46.5,4,46.6,4,46.7c0.2,0.8,0.5,1.5,0.9,2.1C5,49,5.1,49.1,5.2,49.3
			c-0.1,0-0.2,0.1-0.2,0.1c-0.1,0.1-0.1,0.2,0,0.3c0.3,0.8,0.7,1.5,1.1,2c0.1,0.1,0.2,0.2,0.3,0.3c-0.1,0-0.1,0.1-0.2,0.2
			c-0.1,0.1-0.1,0.2,0,0.3c0.4,0.8,0.8,1.4,1.3,1.9c0.1,0.1,0.2,0.2,0.3,0.3c-0.1,0-0.1,0.1-0.2,0.2c0,0.1,0,0.2,0,0.3
			c0.5,0.7,1,1.3,1.5,1.7c0.2,0.1,0.3,0.2,0.5,0.4c0,0-0.1,0-0.1,0c-0.1,0-0.2,0.1-0.2,0.2c0,0.1,0,0.2,0.1,0.3
			c0.6,0.6,1.2,1.1,1.8,1.4c0.5,0.3,1,0.5,1.5,0.6c0.4,0.1,0.8,0.1,1.2,0c0,0,0,0,0.1,0c1,0.7,2.1,1.3,3.3,1.8
			c0.9,0.4,1.9,0.7,2.9,0.9c0.2,0,0.4,0.1,0.6,0.1c-0.4-0.2-0.8-0.4-1.1-0.7c-0.1-0.1-0.1-0.1-0.1-0.2c-0.7-0.2-1.3-0.4-2-0.7
			c-1.1-0.5-2.1-1-3.1-1.7c0,0,0,0,0,0c0-0.3,0-0.7-0.1-1c0.7,0.6,1.4,1,2.1,1.4c1,0.5,1.9,0.9,2.9,1.2c0-0.1,0-0.1,0-0.2
			c0-0.2,0.1-0.3,0.1-0.5c-0.9-0.3-1.9-0.7-2.7-1.2c-1.9-1.1-3.6-2.6-5.1-4.5c-0.5-0.7-1-1.4-1.4-2.2c1.1-0.5,3.7-1.6,5.9-2.8
			c0,0.1,0,0.2,0.1,0.3c0.2,0.4,0.7,0.6,1.1,0.7c0.1,0,0.3,0,0.4,0c0.1,0.4,0.5,0.6,0.9,0.8c0.2,0.1,0.4,0.1,0.5,0.1
			c0.1,0.2,0.2,0.4,0.4,0.5c0.4,0.3,1,0.3,1.4,0.2c0.2,0.2,0.4,0.4,0.7,0.5c0.1,0,0.2,0,0.3,0c0.2,0,0.5-0.1,0.7-0.1v3.9
			c0,0.3,0.2,0.5,0.5,0.5c0.3,0,0.5-0.2,0.5-0.5v-4.1c0.5,0.1,1,0,1.2-0.1c0.2-0.1,0.4-0.2,0.5-0.3c0.5,0.1,1,0,1.3-0.4
			c0.1-0.1,0.2-0.3,0.3-0.4c0.7,0,1.1-0.3,1.4-0.5c0.1-0.1,0.2-0.3,0.3-0.4c0.4,0,0.8-0.2,1-0.4c0.1-0.1,0.2-0.3,0.3-0.4
			c1.8,1.4,4.6,2.6,5.8,3.1c-0.4,0.7-0.9,1.4-1.4,2c-1.5,1.9-3.2,3.5-5.1,4.5c-0.9,0.5-1.8,0.9-2.7,1.2c0.1,0.1,0.1,0.3,0.1,0.5
			c0,0.1,0,0.1,0,0.2c1-0.3,2-0.7,2.9-1.2c0.7-0.4,1.4-0.9,2.1-1.5c-0.1,0.3-0.1,0.7-0.1,1c0,0,0,0,0,0c-0.3,0.2-1.1,0.8-2.3,1.4
			c-0.9,0.4-1.8,0.8-2.7,1c0,0-0.1,0-0.1,0c0,0.1-0.1,0.1-0.1,0.2c-0.3,0.4-0.7,0.6-1.1,0.7c0.5-0.1,1-0.2,1.5-0.3
			c1-0.3,1.9-0.6,2.9-1.1c1.2-0.6,2.1-1.2,2.4-1.5c0,0,0,0,0,0c0.4,0.1,0.8,0.1,1.2,0c0.5-0.1,1-0.3,1.5-0.6
			c0.6-0.3,1.2-0.8,1.8-1.4c0.1-0.1,0.1-0.2,0.1-0.3c0-0.1-0.1-0.2-0.2-0.2c0,0,0,0-0.1,0c0.2-0.1,0.4-0.2,0.5-0.4
			c0.6-0.4,1.1-1,1.5-1.7c0.1-0.1,0.1-0.2,0-0.3c0-0.1-0.1-0.1-0.2-0.2c0.1-0.1,0.2-0.2,0.3-0.3c0.5-0.5,1-1.1,1.3-1.9
			c0.1-0.1,0-0.2,0-0.3c-0.1-0.1-0.1-0.1-0.2-0.2c0.1-0.1,0.2-0.2,0.3-0.4c0.4-0.5,0.8-1.2,1.1-2c0-0.1,0-0.2,0-0.3
			c-0.1-0.1-0.2-0.1-0.3-0.1c0,0,0,0,0,0c0.1-0.1,0.2-0.2,0.3-0.4c0.4-0.6,0.7-1.3,0.9-2.1c0-0.1,0-0.2-0.1-0.3
			c-0.1-0.1-0.2-0.1-0.3-0.1c0.1-0.1,0.2-0.3,0.3-0.5C42,45.2,42.2,44.5,42.3,43.7 M41.9,41.1C41.9,41.1,41.9,41.1,41.9,41.1
			c0,0.6-0.1,1.1-0.3,1.6c-0.2,0.5-0.4,0.9-0.7,1.2c-0.3,0.4-0.7,0.6-0.8,0.7c0,0,0,0,0,0c0,0,0,0,0,0c-0.5-0.6-0.7-1.4-0.7-2.3
			c0-0.3,0-0.6,0.1-0.9c0,0,0,0,0,0c0,0,0,0,0,0c0.4,0.5,0.6,1.2,0.6,1.2c0,0.1,0.1,0.2,0.2,0.2c0.1,0,0.2,0,0.2-0.1
			C41,41.8,41.5,41.3,41.9,41.1C41.9,41.1,41.9,41.1,41.9,41.1 M41.9,38.1C41.9,38.1,41.9,38.1,41.9,38.1
			C41.9,38.1,41.9,38.1,41.9,38.1c0,0.6,0,1.1-0.1,1.6c-0.1,0.5-0.3,0.9-0.6,1.3c-0.3,0.4-0.6,0.7-0.8,0.8c0,0,0,0,0,0c0,0,0,0,0,0
			c-0.8-0.9-0.9-2.3-0.9-3c0,0,0,0,0,0c0,0,0,0,0,0c0.4,0.5,0.7,1.1,0.7,1.1c0,0.1,0.1,0.1,0.2,0.1c0.1,0,0.2-0.1,0.2-0.2
			C41,38.9,41.5,38.4,41.9,38.1 M41.5,35C41.5,35,41.5,35,41.5,35C41.6,35,41.6,35,41.5,35c0.1,0.6,0.1,1.1,0,1.6
			c-0.1,0.5-0.2,0.9-0.4,1.3c-0.3,0.5-0.6,0.7-0.7,0.8c0,0,0,0,0,0c0,0,0,0,0,0c-0.8-0.7-1-2.1-1.1-2.9c0,0,0,0,0,0c0,0,0,0,0,0
			c0.5,0.4,0.8,1,0.8,1c0.1,0.1,0.1,0.1,0.2,0.1c0.1,0,0.2-0.1,0.2-0.2C40.8,35.9,41.2,35.4,41.5,35 M41.1,32.2
			C41.1,32.2,41.1,32.2,41.1,32.2C41.1,32.2,41.1,32.2,41.1,32.2c0.1,0.6,0.2,1.1,0.1,1.6c-0.1,0.5-0.2,0.9-0.4,1.4
			c-0.2,0.5-0.5,0.8-0.6,0.9c0,0,0,0,0,0c0,0,0,0,0,0c-0.7-0.6-1-1.4-1.1-2c-0.1-0.3-0.1-0.6-0.1-0.8c0,0,0,0,0,0c0,0,0,0,0,0
			c0.5,0.4,0.9,0.9,0.9,1c0.1,0.1,0.2,0.1,0.3,0.1c0.1,0,0.2-0.1,0.2-0.2C40.4,33.1,40.8,32.5,41.1,32.2 M18.1,32.3c0,0,0-0.1,0-0.1
			c0.4-2,1.2-3.3,1.8-4.1c0.4-0.6,0.8-1,1-1.1c0.1,0,0.1-0.1,0.2-0.1c0.2-0.2,0.2-0.4,0.1-0.6c-0.2-0.2-0.4-0.2-0.6-0.1
			c0,0-0.1,0.1-0.2,0.2c-0.4,0.3-0.7,0.2-0.8,0.2c-0.1-0.1-0.2-0.3-0.2-0.5c0.1-0.4,0.6-1,0.7-1.2c0,0,0,0,0,0
			c1-1.1,2.5-1.2,2.5-1.2c0,0,0,0,0,0c0,0,0.5,0,1.1,0.2c0.8,0.3,1.5,0.8,1.9,1.7c0.6,1.2,1.1,2.4,1.4,3.7c-0.9-0.3-1.6-0.9-1.6-0.9
			C25.3,28,25,28,24.9,28.2c-0.1,0.1-0.1,0.2-0.1,0.3c0,0.1,0.1,0.2,0.2,0.3c0,0,1.1,0.9,2.4,1.2c0.1,0.4,0.2,0.9,0.3,1.4
			c-0.4-0.2-0.9-0.3-1.3-0.4c-0.3-0.1-0.5-0.1-0.7-0.2c-0.9-0.4-1.6-0.9-1.6-1c-0.2-0.2-0.5-0.1-0.7,0.1c-0.2,0.2-0.1,0.5,0.1,0.7
			c0,0,0.9,0.7,1.9,1.1c0.3,0.1,0.5,0.2,0.8,0.3c1.1,0.3,1.6,0.5,1.7,1.1c0,0.1-0.1,0.2-0.1,0.2c-0.4,0.4-1.1,0.4-1.4,0.4
			c0,0,0,0,0,0h-1.1c-0.2,0-1.3,0-2.2-0.6C20.5,31.5,19.4,31.8,18.1,32.3 M22.1,33.7h-3.2c-0.3,0-0.6-0.1-0.7-0.2
			c0,0-0.1-0.1-0.1-0.1C19.5,32.7,20.2,32.5,22.1,33.7 M23.4,39.5v-4.9h1.7c0,0,0,0,0,0c0,0,0,0,0,0h1c0,0,0.1,0,0.1,0
			c0.1,0,0.4,0,0.6,0c0.6-0.1,1.1-0.3,1.4-0.7c0.1-0.1,0.3-0.3,0.4-0.6c0,0,0-0.1,0-0.1c0.1-0.2,0.1-0.5,0-0.9l0-0.1
			c-0.3-1.9-0.6-4.4-2.2-7.3c-1.3-2.5-3.6-2.4-3.9-2.3c-0.2,0-2,0.1-3.2,1.5c-0.1,0.1-0.8,0.9-1,1.7c-0.1,0.6,0.1,1.2,0.6,1.4
			c0.1,0,0.2,0.1,0.2,0.1c-0.8,0.9-1.7,2.5-2.1,4.7c-0.1,0.4-0.1,0.7-0.1,1.1c0,0,0,0.1,0,0.1c0.1,0.3,0.2,0.6,0.4,0.9
			c0.2,0.3,0.6,0.6,1.4,0.6h3.5v4.9v3c-0.9,0-1.6,0.3-2.5,0.9c-1.2,0.8-5.4,1.6-12.3,2.4c-0.5-2.1-0.7-4.2-0.7-6.4
			c0-2.9,0.4-5.7,1.3-8.3c0.8-2.5,2-4.8,3.5-6.8c1.5-1.9,3.2-3.5,5.1-4.5c2-1.1,4.1-1.7,6.2-1.7c2.2,0,4.2,0.6,6.2,1.7
			c1.9,1.1,3.6,2.6,5.1,4.5c1.5,2,2.6,4.2,3.5,6.8c0.8,2.6,1.3,5.4,1.3,8.3c0,2.2-0.3,4.4-0.8,6.5c-4.2-0.2-9.2-1.8-9.4-1.9
			c-0.4-0.1-0.7-0.2-1-0.3c-1-0.4-1.8-0.7-2.7-0.6c-0.1,0-0.1,0-0.2,0c-0.5-0.2-1-0.4-1.6-0.5V39.5z M30,17.3
			c-0.3,0.1-0.7,0.2-1.1,0.3c-0.3,0.1-0.6,0.1-0.8,0.1c-0.6,0-1.1-0.2-1.6-0.4c0,0,0,0,0,0c0,0,0,0,0,0c0.2-0.1,0.5-0.3,0.9-0.4
			c0.4-0.1,0.9-0.1,1.3,0C29.2,16.9,29.6,17.1,30,17.3C30,17.3,30,17.3,30,17.3C30,17.3,30,17.3,30,17.3 M30.6,19
			C30.6,19,30.6,19,30.6,19C30.6,19,30.6,19.1,30.6,19c-0.2,0.1-0.5,0.2-0.8,0.2c0,0-0.1,0-0.1,0c-0.7,0-1.4-0.3-2.1-0.8
			c0,0,0,0,0,0c0,0,0,0,0,0c0.3-0.1,0.6-0.2,0.9-0.2C29.3,18.2,30,18.4,30.6,19 M27.3,16.4c-0.3,0.1-0.8,0.3-1.5,0.4
			c-0.1,0-0.2,0.1-0.2,0.2s0,0.2,0.1,0.3c0,0,0.6,0.4,1,0.9c0,0,0,0,0,0c0,0,0,0,0,0h0c-0.7,0-2-0.2-2.9-1.3c0,0,0,0,0,0
			c0.1-0.1,0.4-0.3,0.8-0.5C25.2,16,26.2,16,27.3,16.4C27.3,16.3,27.3,16.3,27.3,16.4C27.3,16.4,27.3,16.4,27.3,16.4 M24.2,15.9
			c-0.2,0.2-0.7,0.5-1.4,0.7c-0.1,0-0.2,0.1-0.2,0.2c0,0.1,0.1,0.2,0.2,0.2c0,0,0.6,0.2,1.1,0.7c0,0,0,0,0,0c0,0,0,0,0,0
			c-0.2,0-0.4,0-0.6,0c-0.7,0-1.7-0.1-2.5-0.7c0,0,0,0,0,0c0.1-0.2,0.3-0.4,0.7-0.6C22.1,15.9,23,15.8,24.2,15.9
			C24.2,15.8,24.2,15.8,24.2,15.9C24.2,15.8,24.2,15.9,24.2,15.9 M21,15.9c-0.2,0.2-0.6,0.6-1.3,1c-0.1,0-0.2,0.2-0.1,0.3
			c0,0.1,0.1,0.2,0.2,0.2c0,0,0.7,0.1,1.2,0.4c0,0,0,0,0,0c0,0,0,0,0,0c-0.3,0.1-0.5,0.2-0.8,0.2c-0.2,0-0.5,0.1-0.9,0.1
			c-0.5,0-1-0.1-1.5-0.3c0,0,0,0,0,0c0.1-0.2,0.2-0.5,0.5-0.8C18.9,16.4,19.8,16,21,15.9C21,15.9,21,15.9,21,15.9
			C21,15.9,21,15.9,21,15.9 M16.9,17.9c-0.1,0.1-0.1,0.2-0.1,0.3c0,0.1,0.1,0.2,0.2,0.2h0c0,0,0.3,0,0.6,0c0.2,0,0.5,0.1,0.7,0.1
			c0,0,0,0,0,0c0,0,0,0,0,0c-0.3,0.1-0.5,0.2-0.8,0.3c-0.6,0.2-1.1,0.3-1.5,0.3c-0.4,0-0.7-0.1-0.9-0.1c0,0,0,0,0,0
			c0.1-0.5,0.6-1.8,2.8-2.6c0,0,0,0,0,0c0,0,0,0,0,0C17.9,16.8,17.5,17.3,16.9,17.9 M39.5,31.1c0.1-0.9,0.4-1.5,0.6-1.9c0,0,0,0,0,0
			c0,0,0,0,0,0c0.2,0.5,0.3,1.1,0.3,1.6c0,0.5,0,1-0.2,1.4c-0.2,0.5-0.4,0.8-0.5,0.9c0,0,0,0,0,0c0,0,0,0,0,0
			c-0.6-0.4-1.1-1-1.4-1.9c-0.1-0.3-0.2-0.5-0.2-0.8c0,0,0,0,0,0c0,0,0,0,0,0c0.6,0.3,1,0.8,1,0.8c0.1,0.1,0.2,0.1,0.3,0.1
			C39.5,31.3,39.5,31.2,39.5,31.1 M38.5,28.4c0-0.9,0.2-1.5,0.4-2c0,0,0,0,0,0c0,0,0,0,0,0c0.2,0.5,0.4,1,0.5,1.5
			c0.1,0.5,0.1,1,0,1.4c-0.1,0.5-0.3,0.9-0.4,1c0,0,0,0,0,0c0,0,0,0,0,0c-0.7-0.3-1.2-0.9-1.6-1.7c-0.1-0.2-0.2-0.5-0.3-0.8
			c0,0,0,0,0,0c0,0,0,0,0,0c0.6,0.3,1.1,0.7,1.1,0.7c0.1,0.1,0.2,0.1,0.3,0C38.5,28.6,38.5,28.5,38.5,28.4 M37.2,26.1L37.2,26.1
			c0.1-0.1,0.1-0.2,0.1-0.3c-0.1-0.9,0-1.6,0.2-2c0,0,0,0,0,0c0,0,0,0,0,0c0.3,0.5,0.5,1,0.6,1.5c0.1,0.5,0.2,1,0.1,1.4
			c-0.1,0.5-0.2,0.9-0.3,1c0,0,0,0,0,0c0,0,0,0,0,0c-0.7-0.3-1.4-0.8-1.9-1.5c-0.2-0.2-0.3-0.5-0.4-0.8c0,0,0,0,0,0c0,0,0,0,0,0
			c0.6,0.2,1.2,0.6,1.2,0.6C37,26.1,37.1,26.1,37.2,26.1 M35.3,23.7c0.1,0.1,0.2,0.1,0.3,0c0.1-0.1,0.1-0.2,0.1-0.3
			c-0.2-0.8-0.2-1.5-0.1-2c0,0,0,0,0,0c0,0,0,0,0,0c0.4,0.4,0.6,0.9,0.8,1.3c0.2,0.5,0.3,0.9,0.3,1.4c0,0.5-0.1,0.9-0.1,1.1
			c0,0,0,0,0,0c0,0,0,0,0,0c-0.7-0.1-1.4-0.5-2-1.2c-0.2-0.2-0.4-0.5-0.6-0.7c0,0,0,0,0,0c0,0,0,0,0,0
			C34.7,23.3,35.3,23.7,35.3,23.7 M33.4,21.6c0.1,0,0.2,0,0.3-0.1c0.1-0.1,0.1-0.2,0-0.3c-0.4-0.8-0.5-1.5-0.5-1.9c0,0,0,0,0,0
			c0,0,0,0,0,0c0.4,0.4,0.8,0.8,1,1.2c0.3,0.4,0.5,0.9,0.6,1.3c0.1,0.5,0.1,0.9,0.1,1.1c0,0,0,0,0,0c0,0,0,0,0,0
			c-0.8,0-1.6-0.5-2.1-0.8c-0.2-0.2-0.5-0.4-0.7-0.6c0,0,0,0,0,0c0,0,0,0,0,0c0,0,0.1,0,0.1,0C32.9,21.3,33.4,21.5,33.4,21.6
			 M32.7,19.6c0.2,0.5,0.2,1,0.2,1.2c0,0,0,0,0,0c0,0-0.1,0-0.1,0c-1,0-2.2-0.7-2.8-1.1c0,0,0,0,0,0c0,0,0,0,0,0
			c0.6-0.1,1.3,0,1.3,0c0.1,0,0.2,0,0.3-0.1c0.1-0.1,0.1-0.2,0-0.3c-0.4-0.5-0.7-1.1-0.8-1.5c0,0,0,0,0,0c0,0,0,0,0,0
			C31.7,18.2,32.4,18.8,32.7,19.6 M14.2,16.6c0,0,0.1,0,0.1-0.1c0.6-0.2,1.2-0.3,1.5-0.4c0.7-0.1,1.1-0.4,1.1-0.5
			c0.1,0,0.1-0.1,0.1-0.2c0-0.1-0.1-0.1-0.1-0.1l-2.9-0.4l2.9-0.4c0.1,0,0.1-0.1,0.1-0.2c0-0.1-0.1-0.2-0.1-0.2c0,0-0.6-0.1-1.3-0.4
			c-0.2-0.1-0.4-0.2-0.5-0.3c-0.3-0.1-0.5-0.3-0.8-0.4c0.1,0,0.1,0,0.2,0c0.6,0,1.2,0.1,1.5,0.2c0.7,0.1,1.2,0,1.2,0
			c0.1,0,0.1-0.1,0.1-0.1c0-0.1,0-0.1-0.1-0.2l-2.6-1.5l2.9,0.7c0.1,0,0.2,0,0.2-0.1c0-0.1,0-0.2-0.1-0.2c0,0-0.6-0.3-1-0.9
			c-0.1-0.2-0.3-0.3-0.4-0.4c-0.2-0.2-0.4-0.5-0.6-0.7c0,0,0.1,0,0.1,0.1c0.6,0.3,1.1,0.6,1.3,0.7c0.6,0.4,1.1,0.5,1.1,0.5
			c0.1,0,0.1,0,0.2-0.1c0-0.1,0-0.1,0-0.2l-1.8-2.4l2.4,1.8c0.1,0,0.2,0,0.2,0c0.1-0.1,0.1-0.2,0-0.2c0-0.1-0.4-0.5-0.6-1.2
			c-0.1-0.2-0.1-0.4-0.2-0.6c-0.1-0.3-0.2-0.6-0.3-0.9c0,0,0.1,0.1,0.1,0.1c0.4,0.5,0.8,1,0.9,1.2c0.4,0.5,0.8,0.9,0.9,0.9
			c0.1,0,0.1,0,0.2,0c0.1,0,0.1-0.1,0.1-0.2l-0.7-2.9L21,9.2c0,0.1,0.1,0.1,0.2,0.1c0.1,0,0.1-0.1,0.1-0.2c0,0-0.2-0.6-0.1-1.4
			c0-0.2,0-0.4,0-0.6c0-0.3,0.1-0.6,0-0.9c0,0,0,0.1,0.1,0.1c0.2,0.6,0.3,1.2,0.4,1.5c0.1,0.6,0.4,1.1,0.4,1.1
			c0,0.1,0.1,0.1,0.2,0.1c0.1,0,0.1-0.1,0.1-0.1L22.9,6l0.4,2.9c0,0.1,0.1,0.1,0.2,0.1c0.1,0,0.2-0.1,0.2-0.1c0,0,0.1-0.6,0.4-1.3
			c0.1-0.2,0.2-0.4,0.3-0.5c0.1-0.3,0.3-0.5,0.4-0.8c0,0.1,0,0.1,0,0.2c0,0.6-0.1,1.2-0.2,1.5c-0.1,0.7,0,1.2,0,1.2
			c0,0.1,0.1,0.1,0.1,0.1c0.1,0,0.1,0,0.2-0.1l1.5-2.6l-0.7,2.9c0,0.1,0,0.2,0.1,0.2c0.1,0,0.2,0,0.2-0.1c0-0.1,0.4-0.6,0.9-1
			c0.2-0.1,0.3-0.3,0.4-0.4c0.2-0.2,0.5-0.4,0.7-0.6c0,0,0,0.1-0.1,0.1c-0.3,0.6-0.6,1.1-0.7,1.3c-0.4,0.6-0.5,1.1-0.5,1.1
			c0,0.1,0,0.1,0.1,0.2c0.1,0,0.1,0,0.2,0l2.4-1.8L27.5,11c-0.1,0.1,0,0.2,0,0.2c0.1,0.1,0.2,0.1,0.2,0c0,0,0.5-0.4,1.2-0.6
			c0.2-0.1,0.4-0.1,0.6-0.2c0.3-0.1,0.6-0.2,0.9-0.3c0,0-0.1,0.1-0.1,0.1c-0.5,0.4-1,0.8-1.2,0.9c-0.6,0.4-0.9,0.8-0.9,0.9
			c0,0.1,0,0.1,0,0.2c0,0.1,0.1,0.1,0.2,0.1l2.9-0.7L28.6,13c-0.1,0-0.1,0.1-0.1,0.2c0,0.1,0.1,0.1,0.2,0.1c0.1,0,0.7-0.2,1.4-0.1
			c0.2,0,0.4,0,0.6,0c0.3,0,0.6,0.1,0.9,0c0,0-0.1,0-0.1,0.1c-0.6,0.2-1.2,0.3-1.5,0.4c-0.7,0.1-1.1,0.4-1.1,0.5
			c-0.1,0-0.1,0.1-0.1,0.2c0,0.1,0.1,0.1,0.1,0.1l2.9,0.4l-2.9,0.4c-0.1,0-0.1,0.1-0.1,0.2c0,0.1,0.1,0.2,0.1,0.2
			c0.1,0,0.7,0.1,1.3,0.4c0.2,0.1,0.4,0.2,0.5,0.3c0.3,0.1,0.5,0.3,0.8,0.4c-0.1,0-0.1,0-0.2,0c-0.6,0-1.2-0.1-1.5-0.2l-0.1,0
			c-0.5-0.2-1.1-0.4-1.6-0.4c0,0,0,0,0,0c0-0.1-0.1-0.2-0.2-0.2c-0.8-0.3-1.5-0.4-2.2-0.4c-0.3,0-0.5,0-0.7,0c0,0,0-0.1,0-0.1
			c0-0.1-0.1-0.2-0.3-0.2c-0.8-0.1-1.6-0.1-2.3,0c-0.3,0.1-0.5,0.1-0.8,0.2c0-0.1,0-0.1-0.1-0.2c-0.1-0.1-0.2-0.1-0.3-0.1
			c-0.8,0.1-1.6,0.2-2.2,0.5c-0.2,0.1-0.3,0.2-0.5,0.2c0-0.1-0.1-0.2-0.1-0.2c-0.1-0.1-0.2-0.1-0.3-0.1c-0.8,0.2-1.5,0.5-2.1,0.9
			l0,0c-0.2,0-0.3,0-0.5,0c-0.1,0-0.5,0-0.6,0C14.8,16.6,14.5,16.6,14.2,16.6 M15,17.5C15,17.5,15,17.5,15,17.5
			C15,17.5,15,17.5,15,17.5c0,0.5-0.1,1.2-0.6,1.9c-0.1,0.1-0.1,0.2,0,0.3c0.1,0.1,0.2,0.1,0.3,0.1c0,0,0.6-0.1,1.3-0.1c0,0,0,0,0,0
			c0,0,0,0,0,0c-0.6,0.4-1.6,1.2-2.8,1.2c0,0-0.1,0-0.1,0c0,0,0,0,0,0C12.9,20.3,13.1,18.8,15,17.5 M10.9,21.7
			c0.1-0.4,0.3-0.9,0.6-1.3c0.3-0.4,0.6-0.8,1.1-1.2c0,0,0,0,0,0c0,0,0,0,0,0c0,0.5-0.1,1.2-0.5,1.9c0,0.1,0,0.2,0,0.3
			c0.1,0.1,0.2,0.1,0.3,0.1c0,0,0.6-0.2,1.2-0.2c0,0,0,0,0,0c0,0,0,0,0,0c-0.2,0.2-0.5,0.5-0.7,0.6c-0.5,0.4-1.2,0.8-2,0.8
			c0,0-0.1,0-0.1,0c0,0,0,0,0,0C10.9,22.7,10.8,22.3,10.9,21.7 M10.3,21.4C10.3,21.4,10.3,21.4,10.3,21.4
			C10.3,21.4,10.3,21.4,10.3,21.4c0.1,0.5,0.2,1.2-0.1,2c0,0.1,0,0.2,0.1,0.3c0.1,0.1,0.2,0.1,0.3,0c0,0,0.5-0.4,1.2-0.4
			c0,0,0,0,0,0c0,0,0,0,0,0c-0.4,0.6-1.4,1.7-2.6,1.9c0,0,0,0,0,0c0,0,0,0,0,0C9,24.6,8.8,23.2,10.3,21.4 M7.7,25.3
			c0.1-0.5,0.4-1,0.7-1.4c0,0,0,0,0,0c0,0,0,0,0,0c0.1,0.4,0.3,1.1,0.1,2c0,0.1,0,0.2,0.1,0.3c0.1,0.1,0.2,0,0.3,0
			c0,0,0.5-0.5,1.2-0.6c0,0,0,0,0,0c0,0,0,0,0,0c-0.1,0.2-0.3,0.5-0.5,0.8c-0.5,0.7-1.2,1.2-1.9,1.4c0,0,0,0,0,0c0,0,0,0,0,0
			c-0.1-0.1-0.2-0.5-0.3-1C7.5,26.2,7.5,25.8,7.7,25.3 M6.3,28c0.1-0.5,0.2-1,0.5-1.5c0,0,0,0,0,0h0c0,0,0,0,0,0
			c0.2,0.4,0.4,1.1,0.4,2c0,0.1,0.1,0.2,0.1,0.2c0.1,0,0.2,0,0.3,0c0,0,0.5-0.5,1.2-0.7c0,0,0,0,0,0c0,0,0,0,0,0
			c-0.1,0.2-0.2,0.5-0.3,0.7c-0.4,0.8-1,1.4-1.8,1.8c0,0,0,0,0,0c0,0,0,0,0,0c-0.1-0.2-0.3-0.5-0.4-1C6.2,28.9,6.2,28.5,6.3,28
			 M5.5,29.2C5.5,29.2,5.5,29.2,5.5,29.2C5.6,29.2,5.6,29.2,5.5,29.2c0.3,0.4,0.6,1,0.7,1.9c0,0.1,0.1,0.2,0.2,0.2
			c0.1,0,0.2,0,0.3-0.1c0,0,0.4-0.5,1.1-0.9c0,0,0,0,0,0c0,0,0,0,0,0c0,0.3-0.1,0.5-0.2,0.8c-0.3,0.8-0.8,1.5-1.5,2c0,0,0,0,0,0
			c0,0,0,0,0,0c-0.1-0.1-0.4-0.4-0.5-0.9c-0.1-0.4-0.2-0.9-0.2-1.4C5.3,30.3,5.4,29.8,5.5,29.2 M4.7,32.1
			C4.7,32.1,4.7,32.1,4.7,32.1C4.7,32.1,4.7,32.1,4.7,32.1c0.3,0.3,0.7,0.9,0.9,1.8c0,0.1,0.1,0.2,0.2,0.2c0.1,0,0.2,0,0.3-0.1
			c0,0,0.4-0.6,0.9-1c0,0,0,0,0,0c0,0,0,0,0,0c0,0.3,0,0.5-0.1,0.8c-0.2,0.8-0.6,1.6-1.2,2.1c0,0,0,0,0,0c0,0,0,0,0,0
			c-0.1-0.1-0.4-0.4-0.6-0.9c-0.2-0.4-0.3-0.9-0.4-1.4C4.6,33.2,4.6,32.7,4.7,32.1 M4.2,35C4.2,35,4.2,35,4.2,35
			C4.3,35,4.3,35,4.2,35c0.3,0.3,0.8,0.9,1,1.7c0,0.1,0.1,0.2,0.2,0.2c0.1,0,0.2,0,0.2-0.1c0,0,0.3-0.6,0.8-1c0,0,0,0,0,0
			c0,0,0,0,0,0c0,0.3,0,0.6-0.1,0.9c-0.1,0.9-0.5,1.6-1,2.1c0,0,0,0,0,0c0,0,0,0,0,0c-0.1-0.1-0.4-0.4-0.7-0.8
			c-0.2-0.4-0.4-0.8-0.4-1.3C4.2,36.2,4.2,35.6,4.2,35 M4,38.1C4,38.1,4,38.1,4,38.1C4,38.1,4,38.1,4,38.1c0.1,0,0.2,0.1,0.2,0.2
			c0.3,0.3,0.6,0.8,0.9,1.5c0,0.1,0.1,0.2,0.3,0.2c0.1,0,0.2-0.1,0.2-0.2v0c0,0,0.1-0.6,0.6-1.1c0,0,0,0,0,0c0,0,0,0,0,0
			c0.1,0.3,0.1,0.9,0,1.4c-0.1,0.7-0.4,1.2-0.9,1.7c0,0,0,0,0,0c0,0,0,0,0,0C4.9,41.5,3.9,40.5,4,38.1 M3.9,41.1
			C3.9,41.1,3.9,41.1,3.9,41.1C4,41.1,4,41.2,4.1,41.3c0.3,0.3,0.7,0.7,1,1.4c0,0.1,0.1,0.1,0.2,0.1c0,0,0,0,0,0h0
			c0.1,0,0.2-0.1,0.2-0.2c0,0,0.3-0.7,0.7-1.2c0,0,0,0,0,0c0,0,0,0,0,0c0.1,0.6,0.2,1.9-0.7,3.1c0,0,0,0,0,0c0,0,0,0,0,0
			C5.1,44.3,4,43.4,3.9,41.1C3.9,41.1,3.9,41.1,3.9,41.1 M4,44.2C4,44.2,4,44.2,4,44.2C4,44.2,4.1,44.2,4,44.2
			c0.4,0.2,1,0.6,1.5,1.3c0.1,0.1,0.2,0.1,0.3,0.1c0.1,0,0.2-0.1,0.2-0.2v0l0,0l0,0c0,0,0.2-0.7,0.5-1.3c0,0,0,0,0,0c0,0,0,0,0,0
			c0.1,0.3,0.2,0.5,0.3,0.8c0.2,0.8,0,1.7-0.4,2.4c0,0,0,0,0,0c0,0,0,0,0,0c-0.1-0.1-0.5-0.2-0.9-0.6c-0.3-0.3-0.6-0.7-0.9-1.1
			C4.3,45.3,4.2,44.8,4,44.2 M4.7,47.1C4.7,47.1,4.7,47.1,4.7,47.1C4.7,47,4.8,47,4.7,47.1c0.1,0,0.2,0,0.3,0.1
			c0.4,0.2,0.9,0.5,1.4,1.1c0.1,0.1,0.2,0.1,0.3,0.1c0.1,0,0.2-0.1,0.2-0.2c0,0,0.1-0.7,0.4-1.3c0,0,0,0,0,0c0,0,0,0,0,0
			c0.3,0.6,0.7,1.9,0.1,3.2c0,0,0,0,0,0c0,0,0,0,0,0C6.8,49.9,5.4,49.3,4.7,47.1 M6.5,51.3c-0.3-0.4-0.6-0.8-0.8-1.4c0,0,0,0,0,0
			c0,0,0,0,0,0C5.8,50,5.8,50,5.9,50c0.4,0.1,0.9,0.4,1.5,1C7.5,51,7.6,51.1,7.7,51c0.1,0,0.2-0.1,0.2-0.2c0,0,0-0.7,0.2-1.3
			c0,0,0,0,0,0c0,0,0,0,0,0c0.1,0.2,0.3,0.5,0.4,0.8c0.3,0.8,0.4,1.6,0.1,2.4c0,0,0,0,0,0c0,0,0,0,0,0c-0.2,0-0.6-0.1-1-0.4
			C7.1,52,6.8,51.7,6.5,51.3 M6.9,52.7C6.9,52.7,6.9,52.7,6.9,52.7C6.9,52.7,6.9,52.7,6.9,52.7c0.5,0.1,1.2,0.3,1.8,0.8
			c0.1,0.1,0.2,0.1,0.3,0c0.1,0,0.1-0.1,0.1-0.2c0,0-0.1-0.6,0.1-1.3c0,0,0,0,0,0c0,0,0,0,0,0c0.2,0.2,0.3,0.5,0.4,0.7
			c0.3,0.6,0.6,1.4,0.4,2.3c0,0,0,0,0,0h0C9.9,55,9.5,55,9,54.8c-0.4-0.2-0.8-0.5-1.2-0.8C7.5,53.6,7.2,53.2,6.9,52.7 M12.6,57.7
			c0,0-0.2-0.6-0.3-1.3c0,0,0,0,0,0c0,0,0,0,0,0c0.6,0.5,1.5,1.5,1.5,2.8c0,0,0,0,0,0c-0.1,0-0.2,0-0.4,0c-0.2,0-0.4,0-0.6-0.1
			c-0.8-0.2-1.7-0.7-2.5-1.5c0,0,0,0,0,0c0,0,0,0,0,0c0.5-0.1,1.2-0.1,2,0.3c0.1,0,0.2,0,0.3-0.1C12.6,57.9,12.6,57.8,12.6,57.7
			 M10.4,55.9c0.1,0.1,0.2,0.1,0.3,0c0.1-0.1,0.1-0.2,0.1-0.3c0,0-0.2-0.6-0.1-1.3c0,0,0,0,0,0c0,0,0,0,0,0c0.5,0.6,1.3,1.7,1.2,2.9
			c0,0,0,0,0,0c0,0-0.1,0-0.1,0c-0.2,0-0.6,0-1-0.2c-0.4-0.1-0.8-0.4-1.2-0.7c-0.4-0.3-0.8-0.7-1.1-1.2c0,0,0,0,0,0c0,0,0,0,0,0
			C8.9,55.3,9.6,55.4,10.4,55.9 M20.1,49.4c-0.1,0.1-0.2,0.1-0.2,0.2c-0.5,0.4-0.9,0.8-1,1.2c-0.1,0-0.1,0-0.2-0.1
			c-0.4-0.1-0.4-0.3-0.4-0.4c0-0.2,0.1-0.4,0.4-0.7c0.4-0.3,0.7-0.5,0.9-0.5c0.1,0,0.2,0,0.3,0.1C20,49.1,20,49.2,20.1,49.4
			C20.1,49.3,20.1,49.3,20.1,49.4 M20.6,51.4c-0.2,0-0.6,0.1-0.8-0.1c-0.1,0-0.1-0.1-0.1-0.2c0-0.3,0.4-0.7,0.7-0.9
			c0.4-0.3,0.7-0.5,0.9-0.5c0.1,0,0.2,0,0.3,0.1c0.1,0.1,0.1,0.1,0.1,0.2c0,0.1-0.1,0.3-0.3,0.4C21,50.7,20.7,51,20.6,51.4
			 M22.7,51.5c-0.2,0.1-0.7,0.5-1.1,0.4c-0.1,0-0.2,0-0.2-0.1c0.2-0.4,0.6-0.6,0.9-0.8c0.5-0.3,0.7-0.1,0.7-0.1
			c0.1,0.1,0.1,0.2,0.1,0.2C23.1,51.2,22.8,51.4,22.7,51.5C22.7,51.5,22.7,51.5,22.7,51.5 M18.3,48.8c-0.1,0.1-0.1,0.1-0.2,0.2
			c-0.2,0.2-0.5,0.5-0.6,0.9c-0.1,0-0.1,0-0.2,0c-0.3,0-0.4-0.1-0.4-0.2c0,0-0.1-0.2,0.1-0.4c0.2-0.3,0.7-0.5,1.1-0.5
			c0,0,0.1,0,0.1,0c0,0,0,0,0,0C18.1,48.7,18.2,48.7,18.3,48.8 M28.9,49.3c-0.1,0.1-0.3,0.2-0.6,0.2C28,49,27.1,47.9,26,47.3
			c-0.1,0-0.2-0.1-0.3,0c-0.1,0-0.2,0.1-0.2,0.2c0,0.1-0.1,0.2,0,0.3c0,0.1,0.1,0.2,0.2,0.2c1,0.5,1.8,1.4,2.1,1.9
			c0,0.1-0.1,0.1-0.1,0.2c-0.2,0.2-0.4,0.3-0.7,0.3c-0.1-0.2-0.3-0.5-0.6-0.8c-0.4-0.4-1.1-0.9-1.1-0.9c-0.1-0.1-0.2-0.1-0.3-0.1
			c-0.1,0-0.2,0.1-0.3,0.2c-0.1,0.1-0.1,0.2-0.1,0.3c0,0.1,0.1,0.2,0.2,0.3c0.2,0.1,0.7,0.5,0.9,0.8c0.3,0.3,0.4,0.5,0.4,0.6
			c0,0.1-0.1,0.2-0.2,0.3c-0.1,0.1-0.3,0.2-0.6,0.2c-0.1-0.2-0.3-0.7-0.8-1.1c-0.2-0.2-0.4-0.2-0.6,0c-0.1,0.1-0.1,0.2-0.1,0.3
			c0,0.1,0,0.2,0.1,0.3c0.3,0.3,0.5,0.6,0.6,0.8c-0.1,0-0.1,0.1-0.2,0.1c-0.2,0.1-0.4,0.1-0.7,0.1c0.1-0.2,0.2-0.3,0.2-0.5
			c0-0.2,0-0.6-0.4-0.9c-0.2-0.2-0.5-0.3-1-0.3c0-0.3-0.2-0.5-0.4-0.7c-0.4-0.3-0.8-0.4-1.3-0.3v0c-0.1-0.2-0.2-0.4-0.6-0.6
			c-0.3-0.2-0.7-0.2-1.1-0.1c-0.3-0.3-0.8-0.3-0.9-0.3c-0.5-0.1-1.3,0.2-1.7,0.6c-2.4,1.3-5.4,2.6-6.6,3.2c-0.6-1.2-1.2-2.5-1.6-3.9
			c-0.1-0.4-0.2-0.8-0.3-1.1c3.5-0.4,6.3-0.8,8.3-1.2c2.1-0.4,3.5-0.9,4.2-1.3c0.8-0.6,1.4-0.9,2.1-0.8c0.2,0,0.3,0,0.5,0.1
			c-0.1,0.1-0.3,0.1-0.4,0.2c-0.3,0.2-0.5,0.4-0.7,0.5c-0.2,0.1-0.3,0.3-0.5,0.4c-0.2,0.1-0.4,0.2-0.6,0.3c-0.5,0.2-0.9,0.4-1,0.8
			c-0.1,0.4-0.1,0.7,0.2,1c0.4,0.5,1,0.5,1.5,0.5c0.5,0,1.2-0.2,1.7-0.5c0.2-0.1,0.3-0.2,0.5-0.3c0.2-0.1,0.4-0.3,0.5-0.3
			c0,0,0,0,0,0c0.4-0.1,0.9-0.1,1.4,0.1c0.5,0.2,1,0.5,1.5,0.8c1.1,0.7,1.9,1.7,2.1,2C29.1,49,29,49.2,28.9,49.3 M30.4,49
			c-0.4-0.3-0.6-0.5-0.7-0.6c0,0,0,0,0,0l0,0c0,0-0.1-0.1-0.1-0.1c-0.4-0.4-1.2-1.3-2.2-2c-0.8-0.5-2.2-1.4-3.6-1
			c-0.3,0.1-0.5,0.2-0.8,0.4c-0.1,0.1-0.3,0.2-0.4,0.3c-0.4,0.2-1,0.4-1.3,0.4c-0.4,0-0.6,0-0.7-0.1c-0.1-0.1-0.1-0.2-0.1-0.2
			c0.1-0.1,0.4-0.2,0.6-0.3c0.2-0.1,0.5-0.2,0.7-0.4c0.3-0.2,0.4-0.3,0.6-0.5c0.2-0.1,0.4-0.3,0.7-0.5c0.4-0.3,0.9-0.3,1.5-0.3l0,0
			c0.1,0,0.2,0,0.3,0c0.1,0,0.2,0,0.3,0c0.7,0,1.4,0.2,2.4,0.6c0.3,0.1,0.6,0.2,1,0.3c0.1,0,1.4,0.4,3.2,0.9c1.6,0.4,3.9,0.9,6.1,1
			c-0.1,0.4-0.2,0.7-0.3,1.1c-0.5,1.4-1,2.8-1.7,4C34.8,51.4,32.2,50.2,30.4,49 M35.5,57.8c-1.1,1-2,1.3-2.5,1.5
			c-0.2,0-0.4,0.1-0.6,0.1c-0.2,0-0.3,0-0.4,0c0,0,0,0,0,0c0-0.8,0.3-1.5,0.9-2.2c0.2-0.2,0.4-0.4,0.6-0.6c0,0,0,0,0,0c0,0,0,0,0,0
			c-0.1,0.6-0.3,1.2-0.3,1.2c0,0.1,0,0.2,0.1,0.3c0.1,0.1,0.2,0.1,0.3,0.1C34.4,57.7,35.1,57.7,35.5,57.8
			C35.5,57.7,35.5,57.7,35.5,57.8C35.5,57.7,35.5,57.7,35.5,57.8 M37.4,55.3c-0.3,0.5-0.7,0.9-1.1,1.2c-0.4,0.3-0.8,0.5-1.2,0.7
			c-0.4,0.1-0.7,0.2-1,0.2c0,0-0.1,0-0.1,0c0,0,0,0,0,0c-0.1-0.7,0.2-1.5,0.7-2.2c0.2-0.2,0.3-0.5,0.5-0.7c0,0,0,0,0,0c0,0,0,0,0,0
			c0.1,0.6-0.1,1.3-0.1,1.3c0,0.1,0,0.2,0.1,0.3c0.1,0.1,0.2,0.1,0.3,0C36.2,55.4,36.9,55.3,37.4,55.3
			C37.4,55.2,37.4,55.2,37.4,55.3C37.4,55.2,37.4,55.3,37.4,55.3 M38,54c-0.4,0.3-0.8,0.6-1.2,0.8C36.3,55,35.9,55,35.8,55h0
			c0,0,0,0,0,0c-0.1-0.7,0-1.5,0.4-2.3c0.1-0.2,0.3-0.5,0.4-0.7c0,0,0,0,0,0c0,0,0,0,0,0c0.1,0.6,0.1,1.3,0.1,1.3
			c0,0.1,0,0.2,0.1,0.2c0.1,0,0.2,0,0.3,0c0.7-0.6,1.4-0.8,1.8-0.8c0,0,0,0,0,0c0,0,0,0,0,0C38.7,53.2,38.3,53.6,38,54 M39.4,51.3
			c-0.3,0.4-0.7,0.7-1.1,0.9c-0.4,0.3-0.8,0.4-1,0.4c0,0,0,0,0,0c0,0,0,0,0,0c-0.2-0.7-0.2-1.5,0.1-2.4c0.1-0.3,0.2-0.5,0.3-0.7
			c0,0,0,0,0,0c0,0,0,0,0,0c0.2,0.6,0.2,1.3,0.2,1.3c0,0.1,0.1,0.2,0.2,0.2c0.1,0,0.2,0,0.3-0.1c0.5-0.6,1.1-0.9,1.5-1
			c0.1,0,0.2-0.1,0.3-0.1c0,0,0,0,0,0c0,0,0,0,0,0C40,50.4,39.7,50.9,39.4,51.3 M40.4,48.5c-0.3,0.4-0.6,0.8-1,1
			c-0.4,0.3-0.8,0.4-1,0.5c0,0,0,0,0,0c0,0,0,0,0,0c-0.4-0.9-0.2-1.8-0.1-2.4c0.1-0.3,0.2-0.6,0.3-0.8c0,0,0,0,0,0h0c0,0,0,0,0,0
			c0.3,0.6,0.4,1.3,0.4,1.3c0,0.1,0.1,0.2,0.2,0.2c0.1,0,0.2,0,0.3-0.1c0.6-0.7,1.2-1,1.6-1.2c0,0,0,0,0,0c0,0,0,0,0,0
			C40.9,47.6,40.7,48.1,40.4,48.5 M41.2,45.6c-0.2,0.4-0.5,0.8-0.8,1.1c-0.4,0.3-0.7,0.5-0.9,0.6c0,0,0,0,0,0c0,0,0,0,0,0
			c-0.4-0.7-0.5-1.5-0.4-2.4c0-0.3,0.1-0.6,0.2-0.8c0,0,0,0,0,0c0,0,0,0,0,0c0.3,0.6,0.5,1.3,0.5,1.3c0,0.1,0.1,0.2,0.2,0.2
			c0.1,0,0.2,0,0.2-0.1c0.5-0.7,1-1.2,1.4-1.4c0,0,0,0,0,0c0,0,0,0,0,0C41.6,44.6,41.4,45.1,41.2,45.6"/>
		<path class="st4" d="M28.2,16.2c0.5,0,1.1,0.1,1.6,0.4l0.1,0c0.3,0.1,0.9,0.1,1.5,0.2c0.1,0,0.1,0,0.2,0c-0.3-0.1-0.6-0.2-0.8-0.4
			c-0.2-0.1-0.3-0.2-0.5-0.3c-0.6-0.3-1.2-0.4-1.3-0.4c-0.1,0-0.1-0.1-0.1-0.2c0-0.1,0.1-0.2,0.1-0.2l2.9-0.4l-2.9-0.4
			c-0.1,0-0.1-0.1-0.1-0.1c0-0.1,0-0.1,0.1-0.2c0,0,0.5-0.3,1.1-0.5c0.3-0.1,0.9-0.2,1.5-0.4c0,0,0.1,0,0.1-0.1c-0.3,0-0.6,0-0.9,0
			c-0.2,0-0.4,0-0.6,0c-0.7,0-1.3,0.1-1.4,0.1c-0.1,0-0.2,0-0.2-0.1c0-0.1,0-0.2,0.1-0.2l2.5-1.5l-2.9,0.7c-0.1,0-0.1,0-0.2-0.1
			c0-0.1,0-0.1,0-0.2c0,0,0.3-0.5,0.9-0.9c0.2-0.2,0.7-0.5,1.2-0.9c0,0,0.1-0.1,0.1-0.1c-0.3,0.2-0.6,0.2-0.9,0.3
			c-0.2,0.1-0.4,0.1-0.6,0.2c-0.7,0.3-1.2,0.6-1.2,0.6c-0.1,0-0.2,0-0.2,0c-0.1-0.1-0.1-0.2,0-0.2l1.8-2.4l-2.4,1.8
			c-0.1,0-0.1,0-0.2,0c-0.1,0-0.1-0.1-0.1-0.2c0,0,0.1-0.6,0.5-1.1c0.2-0.2,0.5-0.8,0.7-1.3c0,0,0-0.1,0.1-0.1
			c-0.2,0.3-0.4,0.4-0.7,0.6c-0.1,0.1-0.3,0.2-0.4,0.4c-0.5,0.5-0.8,1-0.9,1c0,0.1-0.1,0.1-0.2,0.1c-0.1,0-0.1-0.1-0.1-0.2l0.7-2.9
			l-1.5,2.6c0,0.1-0.1,0.1-0.2,0.1c-0.1,0-0.1-0.1-0.1-0.1c0,0-0.1-0.6,0-1.2c0.1-0.3,0.1-0.9,0.2-1.5c0-0.1,0-0.1,0-0.2
			c-0.1,0.3-0.2,0.6-0.4,0.8c-0.1,0.2-0.2,0.3-0.3,0.5c-0.3,0.7-0.4,1.3-0.4,1.3c0,0.1-0.1,0.1-0.2,0.1c-0.1,0-0.2-0.1-0.2-0.1
			L22.9,6l-0.4,2.9c0,0.1-0.1,0.1-0.1,0.1c-0.1,0-0.1,0-0.2-0.1c0,0-0.3-0.5-0.4-1.1c-0.1-0.3-0.2-0.9-0.4-1.5c0,0,0-0.1-0.1-0.1
			c0,0.3,0,0.6,0,0.9c0,0.2,0,0.4,0,0.6c0,0.7,0.1,1.3,0.1,1.4c0,0.1,0,0.2-0.1,0.2c-0.1,0-0.2,0-0.2-0.1l-1.5-2.5l0.7,2.9
			c0,0.1,0,0.1-0.1,0.2c-0.1,0-0.1,0-0.2,0c0,0-0.5-0.4-0.9-0.9c-0.2-0.2-0.5-0.7-0.9-1.2c0,0-0.1-0.1-0.1-0.1
			c0.2,0.3,0.2,0.6,0.3,0.9c0.1,0.2,0.1,0.4,0.2,0.6c0.2,0.7,0.6,1.1,0.6,1.2c0,0.1,0,0.2,0,0.2c-0.1,0.1-0.2,0.1-0.2,0l-2.4-1.8
			l1.8,2.4c0,0.1,0,0.1,0,0.2c0,0.1-0.1,0.1-0.2,0.1c0,0-0.6-0.1-1.1-0.5c-0.2-0.2-0.7-0.5-1.3-0.7c0,0-0.1,0-0.1-0.1
			c0.3,0.2,0.4,0.4,0.6,0.7c0.1,0.1,0.2,0.3,0.4,0.4c0.5,0.5,1,0.9,1,0.9c0.1,0,0.1,0.1,0.1,0.2c0,0.1-0.1,0.1-0.2,0.1l-2.9-0.7
			l2.6,1.5c0.1,0,0.1,0.1,0.1,0.2c0,0.1-0.1,0.1-0.1,0.1c0,0-0.6,0.1-1.2,0c-0.3-0.1-0.9-0.1-1.5-0.2c-0.1,0-0.1,0-0.2,0
			c0.3,0.1,0.6,0.2,0.8,0.4c0.2,0.1,0.3,0.2,0.5,0.3c0.7,0.3,1.3,0.4,1.3,0.4c0.1,0,0.1,0.1,0.1,0.2c0,0.1-0.1,0.2-0.1,0.2l-2.9,0.4
			l2.9,0.4c0.1,0,0.1,0.1,0.1,0.1c0,0.1,0,0.1-0.1,0.2c0,0-0.5,0.3-1.1,0.5c-0.3,0.1-0.9,0.2-1.5,0.4c0,0-0.1,0-0.1,0.1
			c0.3,0,0.6,0,0.9,0c0,0,0.5,0,0.6,0c0.1,0,0.3,0,0.5,0l0,0c0.6-0.4,1.3-0.7,2.1-0.9c0.1,0,0.2,0,0.3,0.1c0.1,0.1,0.1,0.1,0.1,0.2
			c0.1-0.1,0.3-0.2,0.5-0.2c0.6-0.3,1.4-0.4,2.2-0.5c0.1,0,0.2,0,0.3,0.1c0.1,0.1,0.1,0.1,0.1,0.2c0.2-0.1,0.5-0.2,0.8-0.2
			c0.7-0.1,1.4-0.1,2.3,0c0.1,0,0.2,0.1,0.3,0.2c0,0,0,0.1,0,0.1c0.2,0,0.5-0.1,0.7,0c0.7,0,1.4,0.1,2.2,0.4
			C28.1,16,28.2,16.1,28.2,16.2C28.2,16.2,28.2,16.2,28.2,16.2"/>
		<path class="st3" d="M23.9,12.5c2.9-0.5,3.2,0.4,3.2,0.4s0.1,0.2,0.3,0.1c0,0,0.2,0,0.1-0.3c0,0-0.3-0.9-1.8-1.1
			c0,0-0.8-0.1-1.6,0c-0.3,0-0.3,0.6-0.3,0.6C23.7,12.5,23.9,12.5,23.9,12.5"/>
		<path class="st3" d="M21.5,13c-0.4-0.2-1.1-0.1-1.1-0.1c-1.3,0-1.6,0.8-1.6,0.8c-0.1,0.3,0.1,0.3,0.1,0.3c0.3,0.1,0.4-0.2,0.4-0.2
			s0.1-0.2,0.6-0.4c0,0.1,0,0.2,0,0.2c0,0.4,0.3,0.7,0.7,0.7c0.4,0,0.7-0.3,0.7-0.7c0-0.1,0-0.2-0.1-0.3c0.2,0.1,0.4,0.2,0.5,0.4
			c0,0.1,0.1,0.1,0.4,0.1c0.3,0,0.2-0.2,0.2-0.2C21.9,13.2,21.5,13,21.5,13"/>
		<path class="st3" d="M23.9,14.1c0.2,0,0.3,0,0.4-0.1c0.1-0.2,0.3-0.4,0.5-0.4c0,0.1-0.1,0.2-0.1,0.3c0,0.4,0.3,0.7,0.7,0.7
			c0.4,0,0.7-0.3,0.7-0.7c0-0.1,0-0.2,0-0.2c0.5,0.1,0.6,0.4,0.6,0.4s0.1,0.2,0.4,0.2c0,0,0.2,0,0.1-0.3c0,0-0.3-0.8-1.6-0.8
			c0,0-0.8,0-1.1,0.1c0,0-0.4,0.2-0.6,0.9C23.7,13.9,23.6,14.1,23.9,14.1"/>
		<path class="st3" d="M18.4,13c0.2,0.1,0.3-0.1,0.3-0.1s0.3-0.8,3.2-0.4c0,0,0.3,0.1,0.2-0.2c0,0-0.1-0.6-0.3-0.6
			c-0.9-0.2-1.6,0-1.6,0c-1.5,0.2-1.8,1.1-1.8,1.1C18.2,13,18.4,13,18.4,13"/>
		<path class="st5" d="M35.5,57.7c-0.5-0.1-1.2-0.1-2,0.3c-0.1,0-0.2,0-0.3-0.1c-0.1-0.1-0.1-0.2-0.1-0.3c0,0,0.2-0.6,0.3-1.2
			c0,0,0,0,0,0c0,0,0,0,0,0c-0.2,0.2-0.4,0.4-0.6,0.6c-0.6,0.7-0.9,1.4-0.9,2.2c0,0,0,0,0,0c0.1,0,0.2,0,0.4,0c0.2,0,0.4,0,0.6-0.1
			C33.6,59.1,34.5,58.7,35.5,57.7C35.5,57.7,35.5,57.7,35.5,57.7C35.5,57.7,35.5,57.7,35.5,57.7"/>
		<path class="st5" d="M12.3,56.4C12.3,56.4,12.3,56.4,12.3,56.4C12.3,56.4,12.3,56.4,12.3,56.4c0,0.7,0.3,1.3,0.3,1.3
			c0,0.1,0,0.2-0.1,0.3C12.5,58,12.4,58,12.3,58c-0.8-0.3-1.5-0.3-2-0.3c0,0,0,0,0,0c0,0,0,0,0,0c0.9,0.8,1.7,1.3,2.5,1.5
			c0.2,0,0.4,0.1,0.6,0.1c0.2,0,0.3,0,0.4,0c0,0,0,0,0,0C13.9,57.9,12.9,56.9,12.3,56.4"/>
		<path class="st5" d="M37.4,55.2c-0.5,0-1.2,0.2-1.9,0.6c-0.1,0.1-0.2,0.1-0.3,0c-0.1-0.1-0.1-0.2-0.1-0.3c0,0,0.1-0.7,0.1-1.3
			c0,0,0,0,0,0c0,0,0,0,0,0c-0.2,0.2-0.4,0.4-0.5,0.7c-0.5,0.8-0.7,1.5-0.7,2.2c0,0,0,0,0,0c0,0,0.1,0,0.1,0c0.2,0,0.6,0,1-0.2
			c0.4-0.1,0.8-0.4,1.2-0.7C36.7,56.1,37.1,55.7,37.4,55.2C37.4,55.3,37.4,55.2,37.4,55.2C37.4,55.2,37.4,55.2,37.4,55.2"/>
		<path class="st5" d="M38.9,52.7c-0.5,0.1-1.1,0.3-1.8,0.8c-0.1,0.1-0.2,0.1-0.3,0c-0.1,0-0.1-0.1-0.1-0.2c0,0,0.1-0.7-0.1-1.3
			c0,0,0,0,0,0c0,0,0,0,0,0c-0.2,0.2-0.3,0.5-0.4,0.7c-0.4,0.8-0.5,1.6-0.4,2.3c0,0,0,0,0,0h0c0.2,0,0.6,0,1.1-0.3
			c0.4-0.2,0.8-0.5,1.2-0.8C38.3,53.6,38.7,53.2,38.9,52.7C39,52.7,39,52.7,38.9,52.7C38.9,52.7,38.9,52.7,38.9,52.7"/>
		<path class="st5" d="M40.2,49.9c-0.1,0-0.2,0-0.3,0.1c-0.4,0.1-0.9,0.4-1.5,1C38.4,51,38.3,51,38.2,51c-0.1,0-0.2-0.1-0.2-0.2
			c0,0,0-0.7-0.2-1.3c0,0,0,0,0,0c0,0,0,0,0,0c-0.1,0.2-0.2,0.5-0.3,0.7c-0.3,0.8-0.4,1.6-0.1,2.4c0,0,0,0,0,0c0,0,0,0,0,0
			c0.2,0,0.6-0.1,1-0.4c0.4-0.2,0.7-0.5,1.1-0.9C39.7,50.9,40,50.4,40.2,49.9C40.2,49.9,40.2,49.9,40.2,49.9
			C40.2,49.9,40.2,49.9,40.2,49.9"/>
		<path class="st5" d="M41.1,47c-0.4,0.2-1.1,0.5-1.6,1.2c-0.1,0.1-0.2,0.1-0.3,0.1c-0.1,0-0.2-0.1-0.2-0.2c0,0-0.1-0.7-0.4-1.3
			c0,0,0,0,0,0c0,0,0,0,0,0c-0.1,0.3-0.2,0.6-0.3,0.8c-0.1,0.6-0.3,1.5,0.1,2.4c0,0,0,0,0,0c0,0,0,0,0,0c0.1,0,0.5-0.2,1-0.5
			c0.4-0.3,0.7-0.6,1-1C40.7,48.1,40.9,47.6,41.1,47C41.1,47,41.1,47,41.1,47C41.1,47,41.1,47,41.1,47"/>
		<path class="st5" d="M41.6,44c-0.4,0.2-1,0.6-1.4,1.4c-0.1,0.1-0.2,0.1-0.2,0.1c-0.1,0-0.2-0.1-0.2-0.2c0,0-0.2-0.7-0.5-1.3
			c0,0,0,0,0,0c0,0,0,0,0,0c-0.1,0.3-0.1,0.6-0.2,0.8c-0.1,0.9,0,1.7,0.4,2.4c0,0,0,0,0,0c0,0,0,0,0,0c0.2-0.1,0.5-0.2,0.9-0.6
			c0.3-0.3,0.6-0.7,0.8-1.1C41.4,45.1,41.6,44.6,41.6,44C41.7,44.1,41.7,44.1,41.6,44C41.7,44,41.6,44,41.6,44"/>
		<path class="st5" d="M40.6,42.6c0,0.1-0.1,0.1-0.2,0.1c-0.1,0-0.2-0.1-0.2-0.2c0,0-0.2-0.7-0.6-1.2c0,0,0,0,0,0c0,0,0,0,0,0
			c-0.1,0.3-0.1,0.6-0.1,0.9c0,0.9,0.2,1.7,0.7,2.3c0,0,0,0,0,0c0,0,0,0,0,0c0.1-0.1,0.5-0.3,0.8-0.7c0.3-0.3,0.5-0.8,0.7-1.2
			c0.2-0.5,0.3-1,0.3-1.6c0,0,0,0,0,0c0,0,0,0,0,0C41.5,41.3,41,41.8,40.6,42.6"/>
		<path class="st5" d="M40.5,39.9c-0.1,0-0.2,0-0.2-0.1c0,0-0.3-0.6-0.7-1.1c0,0,0,0,0,0c0,0,0,0,0,0c0,0.7,0.1,2.1,0.9,3
			c0,0,0,0,0,0c0,0,0,0,0,0c0.1-0.1,0.5-0.3,0.8-0.8c0.3-0.4,0.4-0.8,0.6-1.3c0.1-0.5,0.2-1,0.2-1.6c0,0,0,0,0,0c0,0,0,0,0,0
			c-0.3,0.3-0.8,0.8-1.1,1.7C40.7,39.8,40.6,39.9,40.5,39.9"/>
		<path class="st5" d="M40.4,37c-0.1,0-0.2,0-0.2-0.1c0,0-0.3-0.5-0.8-1c0,0,0,0,0,0c0,0,0,0,0,0c0.1,0.8,0.3,2.2,1.1,2.9
			c0,0,0,0,0,0c0,0,0,0,0,0c0.1-0.1,0.4-0.4,0.7-0.8c0.2-0.4,0.4-0.8,0.4-1.3c0.1-0.5,0.1-1,0-1.6c0,0,0,0,0,0c0,0,0,0,0,0
			c-0.3,0.3-0.7,0.9-1,1.8C40.6,36.9,40.5,37,40.4,37"/>
		<path class="st5" d="M40,34.2c-0.1,0-0.2,0-0.3-0.1c0,0-0.4-0.5-0.9-0.9c0,0,0,0,0,0c0,0,0,0,0,0c0,0.3,0.1,0.6,0.1,0.8
			c0.2,0.6,0.5,1.4,1.1,2c0,0,0,0,0,0c0,0,0,0,0,0c0.1-0.1,0.4-0.4,0.6-0.9c0.2-0.4,0.3-0.9,0.4-1.4c0.1-0.5,0-1-0.1-1.6
			c0,0,0,0,0,0c0,0,0,0,0,0c-0.3,0.3-0.7,0.9-0.9,1.8C40.2,34.1,40.1,34.1,40,34.2"/>
		<path class="st5" d="M39.4,31.4c-0.1,0-0.2,0-0.3-0.1c0,0-0.5-0.5-1-0.8c0,0,0,0,0,0c0,0,0,0,0,0c0.1,0.3,0.1,0.6,0.2,0.8
			c0.3,0.8,0.8,1.5,1.4,1.9c0,0,0,0,0,0c0,0,0,0,0,0c0.1-0.1,0.3-0.4,0.5-0.9c0.1-0.4,0.2-0.9,0.2-1.4c0-0.5-0.1-1-0.3-1.6
			c0,0,0,0,0,0c0,0,0,0,0,0c-0.2,0.4-0.6,1-0.6,1.9C39.5,31.2,39.5,31.3,39.4,31.4"/>
		<path class="st5" d="M38.1,28.6c0,0-0.5-0.4-1.1-0.7c0,0,0,0,0,0c0,0,0,0,0,0c0.1,0.3,0.2,0.5,0.3,0.8c0.4,0.8,1,1.4,1.6,1.7
			c0,0,0,0,0,0c0,0,0,0,0,0c0.1-0.1,0.3-0.5,0.4-1c0.1-0.4,0.1-0.9,0-1.4c-0.1-0.5-0.2-1-0.5-1.5c0,0,0,0,0,0c0,0,0,0,0,0
			c-0.2,0.4-0.4,1.1-0.4,2c0,0.1-0.1,0.2-0.1,0.2C38.3,28.7,38.2,28.7,38.1,28.6"/>
		<path class="st5" d="M35.7,25.4C35.7,25.4,35.7,25.4,35.7,25.4c0.1,0.3,0.2,0.5,0.4,0.8c0.5,0.7,1.1,1.3,1.9,1.5c0,0,0,0,0,0
			c0,0,0,0,0,0c0.1-0.1,0.2-0.5,0.3-1c0-0.4,0-0.9-0.1-1.4c-0.1-0.5-0.3-1-0.6-1.5c0,0,0,0,0,0c0,0,0,0,0,0c-0.2,0.4-0.3,1.1-0.2,2
			c0,0.1,0,0.2-0.1,0.3c-0.1,0.1-0.2,0-0.3,0C36.9,26,36.3,25.6,35.7,25.4C35.7,25.4,35.7,25.4,35.7,25.4"/>
		<path class="st5" d="M34,23.3C34,23.3,34,23.3,34,23.3c0.2,0.3,0.4,0.5,0.6,0.7c0.6,0.7,1.3,1.1,2,1.2c0,0,0,0,0,0c0,0,0,0,0,0
			c0.1-0.2,0.2-0.6,0.1-1.1c0-0.4-0.1-0.9-0.3-1.4c-0.2-0.4-0.5-0.9-0.8-1.3c0,0,0,0,0,0c0,0,0,0,0,0c-0.1,0.5-0.1,1.2,0.1,2
			c0,0.1,0,0.2-0.1,0.3c-0.1,0.1-0.2,0.1-0.3,0C35.3,23.7,34.7,23.3,34,23.3C34,23.2,34,23.2,34,23.3"/>
		<path class="st5" d="M33.7,21.5c-0.1,0.1-0.2,0.1-0.3,0.1c0,0-0.6-0.2-1.2-0.2c0,0-0.1,0-0.1,0c0,0,0,0,0,0c0,0,0,0,0,0
			c0.2,0.2,0.5,0.5,0.7,0.6c0.5,0.4,1.3,0.8,2.1,0.8c0,0,0,0,0,0c0,0,0,0,0,0c0-0.2,0.1-0.6-0.1-1.1c-0.1-0.4-0.3-0.9-0.6-1.3
			c-0.3-0.4-0.6-0.8-1-1.2c0,0,0,0,0,0c0,0,0,0,0,0c0,0.5,0.1,1.2,0.5,1.9C33.8,21.3,33.8,21.4,33.7,21.5"/>
		<path class="st5" d="M11.7,57.3c0,0,0.1,0,0.1,0c0,0,0,0,0,0c0.1-1.2-0.7-2.3-1.2-2.9c0,0,0,0,0,0c0,0,0,0,0,0
			c-0.1,0.7,0.1,1.3,0.1,1.3c0,0.1,0,0.2-0.1,0.3c-0.1,0.1-0.2,0.1-0.3,0c-0.8-0.5-1.5-0.6-1.9-0.6c0,0,0,0,0,0c0,0,0,0,0,0
			c0.3,0.5,0.7,0.9,1.1,1.2c0.4,0.3,0.8,0.5,1.2,0.7C11.2,57.2,11.5,57.3,11.7,57.3"/>
		<path class="st5" d="M10.1,55L10.1,55C10.1,55,10.1,55,10.1,55c0.2-0.9-0.1-1.7-0.4-2.3c-0.1-0.3-0.3-0.5-0.4-0.7c0,0,0,0,0,0
			c0,0,0,0,0,0c-0.1,0.6-0.1,1.3-0.1,1.3c0,0.1,0,0.2-0.1,0.2c-0.1,0-0.2,0-0.3,0c-0.7-0.6-1.4-0.8-1.8-0.8c0,0,0,0,0,0c0,0,0,0,0,0
			c0.3,0.5,0.6,0.9,1,1.3c0.4,0.3,0.8,0.6,1.2,0.8C9.5,55,9.9,55,10.1,55"/>
		<path class="st5" d="M8.5,52.6C8.5,52.6,8.5,52.6,8.5,52.6C8.6,52.6,8.6,52.6,8.5,52.6c0.2-0.7,0.2-1.5-0.1-2.4
			c-0.1-0.3-0.2-0.5-0.4-0.8c0,0,0,0,0,0c0,0,0,0,0,0c-0.2,0.6-0.2,1.3-0.2,1.3c0,0.1-0.1,0.2-0.2,0.2c-0.1,0-0.2,0-0.3-0.1
			c-0.5-0.5-1.1-0.8-1.5-1c-0.1,0-0.2-0.1-0.2-0.1c0,0,0,0,0,0c0,0,0,0,0,0c0.2,0.5,0.5,1,0.8,1.4c0.3,0.4,0.7,0.7,1.1,0.9
			C8,52.5,8.4,52.6,8.5,52.6"/>
		<path class="st5" d="M7.3,50.1C7.3,50.1,7.3,50.1,7.3,50.1C7.3,50.1,7.3,50.1,7.3,50.1c0.6-1.3,0.2-2.5-0.1-3.2c0,0,0,0,0,0h0
			c0,0,0,0,0,0c-0.3,0.6-0.4,1.3-0.4,1.3c0,0.1-0.1,0.2-0.2,0.2c-0.1,0-0.2,0-0.3-0.1c-0.5-0.6-1-0.9-1.4-1.1
			c-0.1,0-0.2-0.1-0.2-0.1c0,0,0,0,0,0c0,0,0,0,0,0C5.4,49.3,6.8,49.9,7.3,50.1"/>
		<path class="st5" d="M5.4,46.8c0.4,0.4,0.8,0.5,0.9,0.6c0,0,0,0,0,0c0,0,0,0,0,0c0.5-0.8,0.6-1.6,0.4-2.4
			c-0.1-0.3-0.1-0.5-0.3-0.8c0,0,0,0,0,0c0,0,0,0,0,0C6.2,44.7,6,45.4,6,45.4l0,0l0,0c0,0.1-0.1,0.2-0.2,0.2c-0.1,0-0.2,0-0.3-0.1
			c-0.5-0.7-1.1-1.1-1.5-1.3c0,0,0,0,0,0c0,0,0,0,0,0c0.1,0.6,0.3,1.1,0.5,1.5C4.8,46.1,5.1,46.5,5.4,46.8"/>
		<path class="st5" d="M5.6,44.6C5.6,44.6,5.6,44.6,5.6,44.6C5.6,44.6,5.6,44.6,5.6,44.6c1-1.3,0.9-2.5,0.7-3.1c0,0,0,0,0,0
			c0,0,0,0,0,0c-0.4,0.5-0.7,1.2-0.7,1.2c0,0.1-0.1,0.2-0.2,0.2c0,0,0,0,0,0c-0.1,0-0.2-0.1-0.2-0.1c-0.3-0.7-0.7-1.2-1-1.4
			C4,41.2,4,41.1,3.9,41.1c0,0,0,0,0,0c0,0,0,0,0,0C4,43.4,5.1,44.3,5.6,44.6"/>
		<path class="st5" d="M5.4,41.8C5.4,41.8,5.4,41.8,5.4,41.8C5.4,41.8,5.4,41.8,5.4,41.8c0.5-0.4,0.8-1,0.9-1.7
			c0.1-0.6,0.1-1.1,0-1.4c0,0,0,0,0,0c0,0,0,0,0,0c-0.5,0.5-0.6,1.1-0.6,1.1c0,0.1-0.1,0.2-0.2,0.2c-0.1,0-0.2-0.1-0.3-0.2
			c-0.2-0.7-0.6-1.2-0.9-1.5c-0.1-0.1-0.1-0.1-0.2-0.2c0,0,0,0,0,0c0,0,0,0,0,0C3.9,40.5,4.9,41.5,5.4,41.8"/>
		<path class="st5" d="M4.7,38c0.3,0.5,0.6,0.7,0.7,0.8c0,0,0,0,0,0c0,0,0,0,0,0c0.5-0.5,0.9-1.2,1-2.1c0-0.3,0.1-0.6,0.1-0.9
			c0,0,0,0,0,0c0,0,0,0,0,0c-0.5,0.4-0.8,1-0.8,1c0,0.1-0.1,0.2-0.2,0.1c-0.1,0-0.2-0.1-0.2-0.2c-0.2-0.9-0.6-1.4-1-1.8c0,0,0,0,0,0
			c0,0,0,0,0,0c-0.1,0.6-0.1,1.1,0,1.6C4.3,37.1,4.5,37.6,4.7,38"/>
		<path class="st5" d="M5,35.1c0.2,0.4,0.5,0.7,0.6,0.9c0,0,0,0,0,0c0,0,0,0,0,0c0.6-0.6,1-1.3,1.2-2.1C6.9,33.6,7,33.3,7,33
			c0,0,0,0,0,0c0,0,0,0,0,0C6.4,33.4,6,34,6,34c-0.1,0.1-0.2,0.1-0.3,0.1c-0.1,0-0.2-0.1-0.2-0.2c-0.2-0.9-0.6-1.5-0.9-1.8
			c0,0,0,0,0,0c0,0,0,0,0,0c-0.1,0.6-0.1,1.1-0.1,1.6C4.7,34.2,4.8,34.7,5,35.1"/>
		<path class="st5" d="M6,33.1C6,33.1,6,33.1,6,33.1C6,33.1,6,33.1,6,33.1c0.8-0.5,1.3-1.1,1.6-2c0.1-0.3,0.1-0.5,0.2-0.8
			c0,0,0,0,0,0c0,0,0,0,0,0c-0.6,0.3-1.1,0.9-1.1,0.9c-0.1,0.1-0.2,0.1-0.3,0.1c-0.1,0-0.2-0.1-0.2-0.2c-0.1-0.9-0.4-1.5-0.6-1.9
			c0,0,0,0,0,0c0,0,0,0,0,0c-0.2,0.6-0.3,1.1-0.3,1.6c0,0.5,0.1,1,0.2,1.4C5.7,32.7,5.9,33,6,33.1"/>
		<path class="st5" d="M6.7,30.4C6.7,30.4,6.7,30.4,6.7,30.4C6.7,30.4,6.7,30.4,6.7,30.4c0.8-0.4,1.4-1,1.8-1.7
			c0.1-0.2,0.2-0.5,0.3-0.7c0,0,0,0,0,0c0,0,0,0,0,0c-0.6,0.3-1.1,0.7-1.2,0.7c-0.1,0.1-0.2,0.1-0.3,0c-0.1,0-0.1-0.1-0.1-0.2
			c0-0.9-0.2-1.6-0.4-2c0,0,0,0,0,0h0c0,0,0,0,0,0c-0.2,0.5-0.4,1-0.5,1.5c-0.1,0.5-0.1,1,0,1.4C6.4,29.9,6.6,30.2,6.7,30.4"/>
		<path class="st5" d="M7.8,27.7C7.8,27.7,7.8,27.7,7.8,27.7C7.8,27.7,7.8,27.7,7.8,27.7c0.7-0.2,1.4-0.7,1.9-1.4
			c0.2-0.3,0.4-0.6,0.5-0.8c0,0,0,0,0,0c0,0,0,0,0,0c-0.7,0.1-1.2,0.6-1.2,0.6c-0.1,0.1-0.2,0.1-0.3,0c-0.1-0.1-0.1-0.2-0.1-0.3
			c0.2-0.9,0-1.6-0.1-2c0,0,0,0,0,0c0,0,0,0,0,0c-0.3,0.5-0.5,1-0.7,1.4c-0.1,0.5-0.2,0.9-0.2,1.4C7.5,27.2,7.7,27.6,7.8,27.7"/>
		<path class="st5" d="M9.2,25.2C9.2,25.2,9.2,25.2,9.2,25.2c1.2-0.2,2.1-1.3,2.6-1.9c0,0,0,0,0,0c0,0,0,0,0,0
			c-0.7,0.1-1.2,0.4-1.2,0.4c-0.1,0.1-0.2,0.1-0.3,0c-0.1-0.1-0.1-0.2-0.1-0.3c0.3-0.8,0.2-1.5,0.1-2c0,0,0,0,0,0c0,0,0,0,0,0
			C8.8,23.2,9,24.6,9.2,25.2C9.2,25.2,9.2,25.2,9.2,25.2"/>
		<path class="st5" d="M10.9,22.8C10.9,22.8,11,22.8,10.9,22.8c0.8,0,1.5-0.5,2-0.8c0.2-0.2,0.5-0.4,0.7-0.6c0,0,0,0,0,0
			c0,0,0,0,0,0c-0.6,0-1.2,0.2-1.2,0.2c-0.1,0-0.2,0-0.3-0.1c-0.1-0.1-0.1-0.2,0-0.3c0.4-0.8,0.5-1.5,0.5-1.9c0,0,0,0,0,0
			c0,0,0,0,0,0c-0.4,0.4-0.8,0.8-1.1,1.2c-0.3,0.4-0.5,0.9-0.6,1.3C10.8,22.3,10.9,22.7,10.9,22.8C10.9,22.8,10.9,22.8,10.9,22.8"/>
		<path class="st5" d="M15.9,19.7c-0.6,0-1.3,0.1-1.3,0.1c-0.1,0-0.2,0-0.3-0.1c-0.1-0.1-0.1-0.2,0-0.3c0.5-0.7,0.6-1.4,0.6-1.9
			c0,0,0,0,0,0c0,0,0,0,0,0c-1.9,1.4-2,2.8-2,3.4c0,0,0,0,0,0c0,0,0.1,0,0.1,0C14.3,20.9,15.4,20.1,15.9,19.7
			C15.9,19.7,15.9,19.7,15.9,19.7C15.9,19.7,15.9,19.7,15.9,19.7"/>
		<path class="st5" d="M18.3,18.5c-0.2-0.1-0.4-0.1-0.7-0.1c-0.4,0-0.6,0-0.6,0h0c-0.1,0-0.2-0.1-0.2-0.2c0-0.1,0-0.2,0.1-0.3
			c0.7-0.6,1-1.1,1.1-1.4c0,0,0,0,0,0c0,0,0,0,0,0c-2.2,0.8-2.7,2-2.8,2.6c0,0,0,0,0,0c0.2,0.1,0.5,0.1,0.9,0.1
			c0.4,0,0.9-0.1,1.5-0.3C17.8,18.8,18.1,18.6,18.3,18.5C18.4,18.5,18.4,18.5,18.3,18.5C18.4,18.5,18.4,18.5,18.3,18.5"/>
		<path class="st5" d="M21,17.8c-0.6-0.3-1.2-0.4-1.2-0.4c-0.1,0-0.2-0.1-0.2-0.2c0-0.1,0-0.2,0.1-0.3c0.7-0.4,1.1-0.7,1.3-1
			c0,0,0,0,0,0c0,0,0,0,0,0c-1.1,0.2-2,0.5-2.6,1.1c-0.3,0.3-0.4,0.6-0.5,0.8c0,0,0,0,0,0c0.5,0.2,1,0.3,1.5,0.3
			c0.3,0,0.6,0,0.9-0.1C20.5,18,20.7,17.9,21,17.8C21,17.8,21,17.8,21,17.8C21,17.8,21,17.8,21,17.8"/>
		<path class="st5" d="M22.7,17c-0.1,0-0.2-0.1-0.2-0.2c0-0.1,0.1-0.2,0.2-0.2c0.7-0.2,1.2-0.5,1.4-0.7c0,0,0,0,0,0c0,0,0,0,0,0
			c-1.1-0.1-2.1,0.1-2.7,0.5c-0.4,0.2-0.6,0.5-0.7,0.6c0,0,0,0,0,0c0.8,0.6,1.7,0.7,2.5,0.7c0.2,0,0.4,0,0.6,0c0,0,0,0,0,0
			c0,0,0,0,0,0C23.4,17.3,22.7,17,22.7,17"/>
		<path class="st5" d="M25.7,17.2c-0.1-0.1-0.1-0.2-0.1-0.3c0-0.1,0.1-0.2,0.2-0.2c0.7-0.1,1.2-0.3,1.5-0.4c0,0,0,0,0,0c0,0,0,0,0,0
			c-1.1-0.3-2-0.3-2.8,0c-0.4,0.1-0.7,0.3-0.8,0.5c0,0,0,0,0,0c0.9,1.1,2.2,1.3,2.9,1.3h0c0,0,0,0,0,0c0,0,0,0,0,0
			C26.2,17.6,25.7,17.2,25.7,17.2"/>
		<path class="st5" d="M32.9,20.8C32.9,20.8,32.9,20.8,32.9,20.8c0-0.3,0-0.7-0.2-1.2c-0.3-0.9-1-1.5-2-1.8c0,0,0,0,0,0c0,0,0,0,0,0
			c0.1,0.4,0.4,1,0.8,1.5c0.1,0.1,0.1,0.2,0,0.3c-0.1,0.1-0.2,0.1-0.3,0.1c0,0-0.6-0.1-1.3,0c0,0,0,0,0,0c0,0,0,0,0,0
			c0.6,0.4,1.8,1.1,2.8,1.1C32.8,20.8,32.9,20.8,32.9,20.8"/>
		<path class="st5" d="M30.6,19C30.6,19,30.6,19,30.6,19c-0.6-0.6-1.3-0.9-2.1-0.8c-0.3,0-0.6,0.1-0.9,0.2c0,0,0,0,0,0s0,0,0,0
			c0.7,0.5,1.4,0.8,2.1,0.8c0,0,0.1,0,0.1,0C30.1,19.2,30.4,19.1,30.6,19C30.6,19.1,30.6,19,30.6,19"/>
		<path class="st5" d="M26.5,17.3C26.5,17.3,26.5,17.3,26.5,17.3c0.4,0.3,1,0.5,1.6,0.5c0.3,0,0.5,0,0.8-0.1
			c0.4-0.1,0.8-0.2,1.1-0.3c0,0,0,0,0,0c0,0,0,0,0,0c-0.4-0.2-0.8-0.4-1.2-0.4c-0.4-0.1-0.9-0.1-1.3,0C27,17,26.7,17.1,26.5,17.3
			C26.5,17.2,26.5,17.2,26.5,17.3"/>
		<path class="st6" d="M18.2,33.5c0.1,0.2,0.4,0.2,0.7,0.2h3.2c-1.9-1.2-2.6-1-4-0.4C18.2,33.4,18.2,33.4,18.2,33.5"/>
		<path class="st6" d="M26.1,32c-0.3-0.1-0.6-0.2-0.8-0.3c-1-0.4-1.8-1.1-1.9-1.1c-0.2-0.2-0.2-0.5-0.1-0.7c0.2-0.2,0.5-0.2,0.7-0.1
			c0,0,0.8,0.6,1.6,1c0.2,0.1,0.5,0.1,0.7,0.2c0.4,0.1,0.9,0.2,1.3,0.4c-0.1-0.5-0.2-1-0.3-1.4c-1.3-0.3-2.4-1.2-2.4-1.2
			c-0.1-0.1-0.2-0.2-0.2-0.3c0-0.1,0-0.2,0.1-0.3c0.2-0.2,0.5-0.2,0.7-0.1c0,0,0.7,0.6,1.6,0.9c-0.3-1.3-0.8-2.5-1.4-3.7
			c-0.4-0.8-1.1-1.4-1.9-1.7c-0.6-0.2-1.1-0.2-1.1-0.2c0,0,0,0,0,0c0,0-1.6,0-2.5,1.2c0,0,0,0,0,0c-0.2,0.2-0.7,0.8-0.7,1.2
			c0,0.2,0,0.4,0.2,0.5c0.1,0,0.3,0.1,0.8-0.2c0.1-0.1,0.2-0.1,0.2-0.2c0.2-0.1,0.5-0.1,0.6,0.1c0.2,0.2,0.1,0.5-0.1,0.6
			c-0.1,0.1-0.1,0.1-0.2,0.1c-0.2,0.2-0.6,0.5-1,1.1c-0.6,0.8-1.4,2.1-1.8,4.1c0,0,0,0.1,0,0.1c1.3-0.6,2.4-0.8,4.8,0.7
			c0.9,0.6,2,0.6,2.2,0.6h1.1c0,0,0,0,0,0c0.3,0,1.1,0,1.4-0.4c0.1-0.1,0.1-0.1,0.1-0.2C27.7,32.5,27.2,32.3,26.1,32"/>
		<path class="st7" d="M21.4,50.4c0.1-0.1,0.3-0.3,0.3-0.4c0-0.1,0-0.1-0.1-0.2c-0.1-0.1-0.2-0.1-0.3-0.1c-0.2,0-0.5,0.2-0.9,0.5
			c-0.3,0.2-0.7,0.6-0.7,0.9c0,0.1,0.1,0.2,0.1,0.2c0.2,0.1,0.7,0.1,0.8,0.1C20.7,51,21,50.7,21.4,50.4"/>
		<path class="st7" d="M23.1,51c0,0,0-0.1-0.1-0.2c0,0-0.2-0.2-0.7,0.1c-0.4,0.2-0.8,0.5-0.9,0.8c0.1,0.1,0.2,0.1,0.2,0.1
			c0.4,0.1,0.9-0.3,1.1-0.4c0,0,0,0,0,0C22.8,51.4,23.1,51.2,23.1,51"/>
		<path class="st7" d="M18.1,48.7C18,48.7,18,48.7,18.1,48.7c-0.4,0-0.9,0.2-1.2,0.5c-0.2,0.2-0.1,0.3-0.1,0.4
			c0,0.1,0.2,0.2,0.4,0.2c0.1,0,0.1,0,0.2,0c0.1-0.4,0.4-0.7,0.6-0.9c0.1-0.1,0.1-0.1,0.2-0.2C18.2,48.7,18.1,48.7,18.1,48.7
			C18.1,48.7,18.1,48.7,18.1,48.7"/>
		<path class="st7" d="M18.2,50.2c0,0.1,0,0.3,0.4,0.4c0.1,0,0.1,0,0.2,0.1c0.1-0.4,0.5-0.8,1-1.2c0.1-0.1,0.1-0.1,0.2-0.2
			c0,0,0-0.1,0-0.1c0-0.1-0.1-0.1-0.2-0.2c-0.1,0-0.2-0.1-0.3-0.1c-0.3,0-0.6,0.2-0.9,0.5C18.3,49.8,18.2,50,18.2,50.2"/>
		<path class="st7" d="M28.4,49.5c0.2,0,0.4-0.1,0.6-0.2c0.1-0.1,0.2-0.3,0.2-0.4c-0.2-0.3-1-1.2-2.1-2c-0.5-0.3-0.9-0.6-1.4-0.8
			c-0.6-0.2-1-0.3-1.4-0.1c0,0,0,0,0,0c-0.1,0-0.3,0.1-0.5,0.3c-0.1,0.1-0.3,0.2-0.5,0.3c-0.5,0.3-1.1,0.5-1.7,0.5
			c-0.5,0-1.1,0.1-1.5-0.5c-0.2-0.3-0.3-0.7-0.2-1c0.1-0.3,0.5-0.5,1-0.8c0.2-0.1,0.4-0.2,0.6-0.3c0.2-0.1,0.4-0.3,0.5-0.4
			c0.2-0.1,0.4-0.3,0.7-0.5c0.1-0.1,0.3-0.2,0.4-0.2c-0.2,0-0.3,0-0.5-0.1c-0.8-0.1-1.3,0.2-2.1,0.8c-0.7,0.5-2.1,0.9-4.2,1.3
			c-2,0.4-4.8,0.8-8.3,1.2c0.1,0.4,0.2,0.8,0.3,1.1c0.4,1.4,1,2.7,1.6,3.9c1.2-0.5,4.3-1.9,6.6-3.2c0.5-0.4,1.2-0.7,1.7-0.6
			c0.1,0,0.6,0.1,0.9,0.3c0.4-0.1,0.8-0.1,1.1,0.1c0.4,0.2,0.6,0.4,0.6,0.6l0,0c0.5-0.1,0.9-0.1,1.3,0.3c0.2,0.2,0.4,0.4,0.4,0.7
			c0.5-0.1,0.8,0.1,1,0.3c0.3,0.3,0.4,0.7,0.4,0.9c0,0.2-0.1,0.3-0.2,0.5c0.2,0,0.5,0,0.7-0.1c0.1,0,0.1-0.1,0.2-0.1
			c-0.1-0.2-0.3-0.5-0.6-0.8c-0.1-0.1-0.1-0.2-0.1-0.3c0-0.1,0.1-0.2,0.1-0.3c0.2-0.2,0.4-0.1,0.6,0c0.4,0.5,0.7,0.9,0.8,1.1
			c0.2,0,0.4,0,0.6-0.2c0.1-0.1,0.2-0.2,0.2-0.3c0-0.1-0.2-0.3-0.4-0.6c-0.2-0.3-0.8-0.7-0.9-0.8c-0.1-0.1-0.2-0.2-0.2-0.3
			c0-0.1,0-0.2,0.1-0.3c0.1-0.1,0.2-0.2,0.3-0.2c0.1,0,0.2,0,0.3,0.1c0,0,0.7,0.5,1.1,0.9c0.3,0.3,0.4,0.6,0.6,0.8
			c0.3,0,0.5-0.1,0.7-0.3c0-0.1,0.1-0.1,0.1-0.2c-0.3-0.4-1.1-1.4-2.1-1.9c-0.1,0-0.2-0.1-0.2-0.2c0-0.1,0-0.2,0-0.3
			c0-0.1,0.1-0.2,0.2-0.2c0.1,0,0.2,0,0.3,0C27.1,47.9,28,49,28.4,49.5"/>
		<path class="st7" d="M23.1,45.6c0.3-0.2,0.5-0.3,0.8-0.4c1.4-0.4,2.8,0.6,3.6,1c1,0.7,1.8,1.5,2.2,2c0,0,0,0,0.1,0.1l0,0
			c0,0,0,0,0,0c0.1,0.1,0.4,0.4,0.7,0.6c1.7,1.3,4.4,2.5,5.5,2.9c0.7-1.3,1.3-2.6,1.7-4c0.1-0.3,0.2-0.7,0.3-1.1
			c-2.2-0.1-4.5-0.6-6.1-1c-1.8-0.4-3.2-0.9-3.2-0.9c-0.4-0.1-0.7-0.2-1-0.3c-1-0.4-1.7-0.6-2.4-0.6c-0.1,0-0.2,0-0.3,0
			c-0.1,0-0.2,0-0.3,0l0,0c-0.7,0-1.1,0-1.5,0.3c-0.3,0.2-0.5,0.4-0.7,0.5c-0.2,0.1-0.4,0.3-0.6,0.5c-0.2,0.1-0.4,0.2-0.7,0.4
			c-0.2,0.1-0.5,0.2-0.6,0.3c0,0,0,0.1,0.1,0.2c0.1,0.1,0.3,0.1,0.7,0.1c0.3,0,0.9-0.1,1.3-0.4C22.8,45.8,22.9,45.7,23.1,45.6"/>
	</g>
</g>
</svg>
